<?xml version="1.0" encoding="UTF-8" standalone="no"?>
<!DOCTYPE svg PUBLIC "-//W3C//DTD SVG 1.1//EN"
 "http://www.w3.org/Graphics/SVG/1.1/DTD/svg11.dtd">
<!-- Generated by graphviz version 4.0.0 (20220529.0937)
 -->
<!-- Title: top_module Pages: 1 -->
<svg width="1272pt" height="364pt"
 viewBox="0.00 0.00 1272.10 364.00" xmlns="http://www.w3.org/2000/svg" xmlns:xlink="http://www.w3.org/1999/xlink">
<g id="graph0" class="graph" transform="scale(1 1) rotate(0) translate(4 360)">
<title>top_module</title>
<polygon fill="white" stroke="transparent" points="-4,4 -4,-360 1268.1,-360 1268.1,4 -4,4"/>
<text text-anchor="middle" x="632.05" y="-7.8" font-family="Times New Roman,serif" font-size="14.00">top_module</text>
<!-- n8 -->
<g id="node1" class="node">
<title>n8</title>
<polygon fill="none" stroke="black" points="1258.2,-176.04 1258.2,-190.96 1242.38,-201.5 1220.01,-201.5 1204.2,-190.96 1204.2,-176.04 1220.01,-165.5 1242.38,-165.5 1258.2,-176.04"/>
<text text-anchor="middle" x="1231.2" y="-179.8" font-family="Times New Roman,serif" font-size="14.00">Y1</text>
</g>
<!-- x5 -->
<g id="node21" class="node">
<title>x5</title>
<path fill="none" stroke="black" d="M690,-277.5C690,-277.5 728,-277.5 728,-277.5 734,-277.5 740,-283.5 740,-289.5 740,-289.5 740,-311.5 740,-311.5 740,-317.5 734,-323.5 728,-323.5 728,-323.5 690,-323.5 690,-323.5 684,-323.5 678,-317.5 678,-311.5 678,-311.5 678,-289.5 678,-289.5 678,-283.5 684,-277.5 690,-277.5"/>
<text text-anchor="middle" x="709" y="-308.3" font-family="Times New Roman,serif" font-size="14.00">0:0 &#45; 1:1</text>
<polyline fill="none" stroke="black" points="678,-300.5 740,-300.5 "/>
<text text-anchor="middle" x="709" y="-285.3" font-family="Times New Roman,serif" font-size="14.00">0:0 &#45; 0:0</text>
</g>
<!-- n8&#45;&gt;x5 -->
<g id="edge30" class="edge">
<title>n8:e&#45;&gt;x5:w</title>
<path fill="none" stroke="#7570b3" d="M1259.2,-183.5C1267.21,-183.5 1263.65,-195.63 1258.2,-201.5 1213.96,-249.14 722.98,-230.06 678,-277 677.67,-277.35 677.34,-277.73 677.03,-278.14"/>
<polygon fill="#7570b3" stroke="#7570b3" points="673.53,-278.49 677,-288.5 680.53,-278.51 673.53,-278.49"/>
</g>
<!-- n9 -->
<g id="node2" class="node">
<title>n9</title>
<polygon fill="none" stroke="black" points="1258.2,-308.04 1258.2,-322.96 1242.38,-333.5 1220.01,-333.5 1204.2,-322.96 1204.2,-308.04 1220.01,-297.5 1242.38,-297.5 1258.2,-308.04"/>
<text text-anchor="middle" x="1231.2" y="-311.8" font-family="Times New Roman,serif" font-size="14.00">Y3</text>
</g>
<!-- n9&#45;&gt;x5 -->
<g id="edge32" class="edge">
<title>n9:e&#45;&gt;x5:w</title>
<path fill="none" stroke="#666666" d="M1259.2,-315.5C1267.21,-315.5 1263.86,-327.83 1258.2,-333.5 1235.53,-356.16 1218.23,-336.61 1186.2,-337.5 1043.49,-341.46 1007.67,-338.65 865,-333.5 781.84,-330.5 737.89,-381.78 678,-324 677.65,-323.67 677.32,-323.29 677,-322.89"/>
<polygon fill="#666666" stroke="#666666" points="680.5,-322.5 677,-312.5 673.5,-322.5 680.5,-322.5"/>
</g>
<!-- n10 -->
<g id="node3" class="node">
<title>n10</title>
<polygon fill="none" stroke="black" points="1119.1,-328.5 1051.9,-310.5 1119.1,-292.5 1186.3,-310.5 1119.1,-328.5"/>
<text text-anchor="middle" x="1119.1" y="-306.8" font-family="Times New Roman,serif" font-size="14.00">next_state</text>
</g>
<!-- n11 -->
<g id="node4" class="node">
<title>n11</title>
<polygon fill="none" stroke="black" points="353,-222.5 314.29,-204.5 353,-186.5 391.71,-204.5 353,-222.5"/>
<text text-anchor="middle" x="353" y="-200.8" font-family="Times New Roman,serif" font-size="14.00">state</text>
</g>
<!-- n12 -->
<g id="node5" class="node">
<title>n12</title>
<polygon fill="none" stroke="black" points="54,-49.04 54,-63.96 38.18,-74.5 15.82,-74.5 0,-63.96 0,-49.04 15.82,-38.5 38.18,-38.5 54,-49.04"/>
<text text-anchor="middle" x="27" y="-52.8" font-family="Times New Roman,serif" font-size="14.00">w</text>
</g>
<!-- c17 -->
<g id="node7" class="node">
<title>c17</title>
<polygon fill="none" stroke="black" points="305,-23.5 305,-69.5 401,-69.5 401,-23.5 305,-23.5"/>
<text text-anchor="middle" x="318" y="-54.3" font-family="Times New Roman,serif" font-size="14.00">A</text>
<polyline fill="none" stroke="black" points="305,-46.5 331,-46.5 "/>
<text text-anchor="middle" x="318" y="-31.3" font-family="Times New Roman,serif" font-size="14.00">B</text>
<polyline fill="none" stroke="black" points="331,-23.5 331,-69.5 "/>
<text text-anchor="middle" x="353" y="-50.3" font-family="Times New Roman,serif" font-size="14.00">$6</text>
<text text-anchor="middle" x="353" y="-35.3" font-family="Times New Roman,serif" font-size="14.00">$and</text>
<polyline fill="none" stroke="black" points="375,-23.5 375,-69.5 "/>
<text text-anchor="middle" x="388" y="-42.8" font-family="Times New Roman,serif" font-size="14.00">Y</text>
</g>
<!-- n12&#45;&gt;c17 -->
<g id="edge11" class="edge">
<title>n12:e&#45;&gt;c17:w</title>
<path fill="none" stroke="#1b9e77" d="M54,-56.5C83.06,-56.5 85.54,-36.4 114,-30.5 193.73,-13.97 218.11,-32.82 294.86,-34.4"/>
<polygon fill="#1b9e77" stroke="#1b9e77" points="294.96,-37.9 305,-34.5 295.04,-30.9 294.96,-37.9"/>
</g>
<!-- c22 -->
<g id="node17" class="node">
<title>c22</title>
<polygon fill="none" stroke="black" points="114,-95.5 114,-133.5 207,-133.5 207,-95.5 114,-95.5"/>
<text text-anchor="middle" x="127" y="-110.8" font-family="Times New Roman,serif" font-size="14.00">A</text>
<polyline fill="none" stroke="black" points="140,-95.5 140,-133.5 "/>
<text text-anchor="middle" x="160.5" y="-118.3" font-family="Times New Roman,serif" font-size="14.00">$10</text>
<text text-anchor="middle" x="160.5" y="-103.3" font-family="Times New Roman,serif" font-size="14.00">$not</text>
<polyline fill="none" stroke="black" points="181,-95.5 181,-133.5 "/>
<text text-anchor="middle" x="194" y="-110.8" font-family="Times New Roman,serif" font-size="14.00">Y</text>
</g>
<!-- n12&#45;&gt;c22 -->
<g id="edge12" class="edge">
<title>n12:e&#45;&gt;c22:w</title>
<path fill="none" stroke="#1b9e77" d="M54,-56.5C68.42,-56.5 62.05,-73.06 72,-83.5 85.26,-97.41 89.45,-109.54 103.68,-113.3"/>
<polygon fill="#1b9e77" stroke="#1b9e77" points="103.66,-116.82 114,-114.5 104.47,-109.87 103.66,-116.82"/>
</g>
<!-- n13 -->
<g id="node6" class="node">
<title>n13</title>
<polygon fill="none" stroke="black" points="54,-228.04 54,-242.96 38.18,-253.5 15.82,-253.5 0,-242.96 0,-228.04 15.82,-217.5 38.18,-217.5 54,-228.04"/>
<text text-anchor="middle" x="27" y="-231.8" font-family="Times New Roman,serif" font-size="14.00">y</text>
</g>
<!-- x0 -->
<g id="node8" class="node">
<title>x0</title>
<path fill="none" stroke="black" d="M141.5,-40.5C141.5,-40.5 179.5,-40.5 179.5,-40.5 185.5,-40.5 191.5,-46.5 191.5,-52.5 191.5,-52.5 191.5,-64.5 191.5,-64.5 191.5,-70.5 185.5,-76.5 179.5,-76.5 179.5,-76.5 141.5,-76.5 141.5,-76.5 135.5,-76.5 129.5,-70.5 129.5,-64.5 129.5,-64.5 129.5,-52.5 129.5,-52.5 129.5,-46.5 135.5,-40.5 141.5,-40.5"/>
<text text-anchor="middle" x="160.5" y="-54.8" font-family="Times New Roman,serif" font-size="14.00">0:0 &#45; 0:0</text>
</g>
<!-- n13&#45;&gt;x0 -->
<g id="edge13" class="edge">
<title>n13:e&#45;&gt;x0:w</title>
<path fill="none" stroke="#e6ab02" stroke-width="3" d="M54,-235.5C78.77,-235.5 61.64,-148 72,-125.5 86.76,-93.43 89.18,-64.46 118.5,-59.31"/>
<polygon fill="#e6ab02" stroke="#e6ab02" stroke-width="3" points="118.82,-62.8 128.5,-58.5 118.25,-55.82 118.82,-62.8"/>
<text text-anchor="middle" x="84" y="-129.3" font-family="Times New Roman,serif" font-size="14.00" fill="#e6ab02">&lt;6&gt;</text>
</g>
<!-- x1 -->
<g id="node10" class="node">
<title>x1</title>
<path fill="none" stroke="black" d="M237,-319.5C237,-319.5 275,-319.5 275,-319.5 281,-319.5 287,-325.5 287,-331.5 287,-331.5 287,-343.5 287,-343.5 287,-349.5 281,-355.5 275,-355.5 275,-355.5 237,-355.5 237,-355.5 231,-355.5 225,-349.5 225,-343.5 225,-343.5 225,-331.5 225,-331.5 225,-325.5 231,-319.5 237,-319.5"/>
<text text-anchor="middle" x="256" y="-333.8" font-family="Times New Roman,serif" font-size="14.00">1:1 &#45; 0:0</text>
</g>
<!-- n13&#45;&gt;x1 -->
<g id="edge14" class="edge">
<title>n13:e&#45;&gt;x1:w</title>
<path fill="none" stroke="#e6ab02" stroke-width="3" d="M54,-235.5C79.3,-235.5 53.95,-271.77 72,-289.5 120.36,-337.01 150.67,-337.57 214.84,-337.51"/>
<polygon fill="#e6ab02" stroke="#e6ab02" stroke-width="3" points="215,-341.01 225,-337.5 215,-334.01 215,-341.01"/>
<text text-anchor="middle" x="84" y="-313.3" font-family="Times New Roman,serif" font-size="14.00" fill="#e6ab02">&lt;6&gt;</text>
</g>
<!-- x2 -->
<g id="node12" class="node">
<title>x2</title>
<path fill="none" stroke="black" d="M237,-274.5C237,-274.5 275,-274.5 275,-274.5 281,-274.5 287,-280.5 287,-286.5 287,-286.5 287,-298.5 287,-298.5 287,-304.5 281,-310.5 275,-310.5 275,-310.5 237,-310.5 237,-310.5 231,-310.5 225,-304.5 225,-298.5 225,-298.5 225,-286.5 225,-286.5 225,-280.5 231,-274.5 237,-274.5"/>
<text text-anchor="middle" x="256" y="-288.8" font-family="Times New Roman,serif" font-size="14.00">2:2 &#45; 0:0</text>
</g>
<!-- n13&#45;&gt;x2 -->
<g id="edge15" class="edge">
<title>n13:e&#45;&gt;x2:w</title>
<path fill="none" stroke="#e6ab02" stroke-width="3" d="M54,-235.5C66.29,-235.5 61.5,-250.11 72,-256.5 128.65,-290.97 152.67,-292.44 214.71,-292.5"/>
<polygon fill="#e6ab02" stroke="#e6ab02" stroke-width="3" points="215,-296 225,-292.5 215,-289 215,-296"/>
<text text-anchor="middle" x="84" y="-274.3" font-family="Times New Roman,serif" font-size="14.00" fill="#e6ab02">&lt;6&gt;</text>
</g>
<!-- x3 -->
<g id="node14" class="node">
<title>x3</title>
<path fill="none" stroke="black" d="M237,-232.5C237,-232.5 275,-232.5 275,-232.5 281,-232.5 287,-238.5 287,-244.5 287,-244.5 287,-256.5 287,-256.5 287,-262.5 281,-268.5 275,-268.5 275,-268.5 237,-268.5 237,-268.5 231,-268.5 225,-262.5 225,-256.5 225,-256.5 225,-244.5 225,-244.5 225,-238.5 231,-232.5 237,-232.5"/>
<text text-anchor="middle" x="256" y="-246.8" font-family="Times New Roman,serif" font-size="14.00">4:4 &#45; 0:0</text>
</g>
<!-- n13&#45;&gt;x3 -->
<g id="edge16" class="edge">
<title>n13:e&#45;&gt;x3:w</title>
<path fill="none" stroke="#e6ab02" stroke-width="3" d="M54,-235.5C126.72,-235.5 146.85,-249.13 214.64,-250.4"/>
<polygon fill="#e6ab02" stroke="#e6ab02" stroke-width="3" points="214.97,-253.91 225,-250.5 215.03,-246.91 214.97,-253.91"/>
<text text-anchor="middle" x="84" y="-241.3" font-family="Times New Roman,serif" font-size="14.00" fill="#e6ab02">&lt;6&gt;</text>
</g>
<!-- x4 -->
<g id="node16" class="node">
<title>x4</title>
<path fill="none" stroke="black" d="M237,-137.5C237,-137.5 275,-137.5 275,-137.5 281,-137.5 287,-143.5 287,-149.5 287,-149.5 287,-161.5 287,-161.5 287,-167.5 281,-173.5 275,-173.5 275,-173.5 237,-173.5 237,-173.5 231,-173.5 225,-167.5 225,-161.5 225,-161.5 225,-149.5 225,-149.5 225,-143.5 231,-137.5 237,-137.5"/>
<text text-anchor="middle" x="256" y="-151.8" font-family="Times New Roman,serif" font-size="14.00">5:5 &#45; 0:0</text>
</g>
<!-- n13&#45;&gt;x4 -->
<g id="edge17" class="edge">
<title>n13:e&#45;&gt;x4:w</title>
<path fill="none" stroke="#e6ab02" stroke-width="3" d="M54,-235.5C75.54,-235.5 55.63,-204.5 72,-190.5 122.32,-147.46 152.11,-154.59 214.67,-155.43"/>
<polygon fill="#e6ab02" stroke="#e6ab02" stroke-width="3" points="214.98,-158.93 225,-155.5 215.02,-151.93 214.98,-158.93"/>
<text text-anchor="middle" x="84" y="-194.3" font-family="Times New Roman,serif" font-size="14.00" fill="#e6ab02">&lt;6&gt;</text>
</g>
<!-- x7 -->
<g id="node23" class="node">
<title>x7</title>
<path fill="none" stroke="black" d="M175.5,-226.5C175.5,-226.5 145.5,-226.5 145.5,-226.5 139.5,-226.5 133.5,-220.5 133.5,-214.5 133.5,-214.5 133.5,-202.5 133.5,-202.5 133.5,-196.5 139.5,-190.5 145.5,-190.5 145.5,-190.5 175.5,-190.5 175.5,-190.5 181.5,-190.5 187.5,-196.5 187.5,-202.5 187.5,-202.5 187.5,-214.5 187.5,-214.5 187.5,-220.5 181.5,-226.5 175.5,-226.5"/>
<text text-anchor="middle" x="160.5" y="-204.8" font-family="Times New Roman,serif" font-size="14.00">BUF</text>
</g>
<!-- n13&#45;&gt;x7 -->
<g id="edge18" class="edge">
<title>n13:e&#45;&gt;x7:w</title>
<path fill="none" stroke="#e6ab02" stroke-width="3" d="M54,-235.5C65.31,-235.5 61.9,-222.59 72,-217.5 92.96,-206.94 102.56,-207.91 122.28,-208.37"/>
<polygon fill="#e6ab02" stroke="#e6ab02" stroke-width="3" points="122.46,-211.87 132.5,-208.5 122.55,-204.87 122.46,-211.87"/>
<text text-anchor="middle" x="84" y="-221.3" font-family="Times New Roman,serif" font-size="14.00" fill="#e6ab02">&lt;6&gt;</text>
</g>
<!-- c17&#45;&gt;n8 -->
<g id="edge29" class="edge">
<title>c17:e&#45;&gt;n8:w</title>
<path fill="none" stroke="#7570b3" d="M401,-46.5C438.78,-46.5 447.22,-59.5 485,-59.5 485,-59.5 485,-59.5 990.5,-59.5 1096.77,-59.5 1094.65,-175.64 1193.93,-183.12"/>
<polygon fill="#7570b3" stroke="#7570b3" points="1194.07,-186.63 1204.2,-183.5 1194.33,-179.63 1194.07,-186.63"/>
</g>
<!-- x0&#45;&gt;c17 -->
<g id="edge1" class="edge">
<title>x0:e&#45;&gt;c17:w</title>
<path fill="none" stroke="#66a61e" d="M204.61,-58.5C241.15,-58.5 256.37,-58.5 292.92,-58.5"/>
<polygon fill="none" stroke="#66a61e" points="204.5,-58.5 198.5,-62.5 192.5,-58.5 198.5,-54.5 204.5,-58.5"/>
<polygon fill="none" stroke="#66a61e" points="293,-58.5 299,-54.5 305,-58.5 299,-62.5 293,-58.5"/>
</g>
<!-- c18 -->
<g id="node9" class="node">
<title>c18</title>
<polygon fill="none" stroke="black" points="438,-305.5 438,-351.5 534,-351.5 534,-305.5 438,-305.5"/>
<text text-anchor="middle" x="451" y="-336.3" font-family="Times New Roman,serif" font-size="14.00">A</text>
<polyline fill="none" stroke="black" points="438,-328.5 464,-328.5 "/>
<text text-anchor="middle" x="451" y="-313.3" font-family="Times New Roman,serif" font-size="14.00">B</text>
<polyline fill="none" stroke="black" points="464,-305.5 464,-351.5 "/>
<text text-anchor="middle" x="486" y="-332.3" font-family="Times New Roman,serif" font-size="14.00">$11</text>
<text text-anchor="middle" x="486" y="-317.3" font-family="Times New Roman,serif" font-size="14.00">$and</text>
<polyline fill="none" stroke="black" points="508,-305.5 508,-351.5 "/>
<text text-anchor="middle" x="521" y="-324.8" font-family="Times New Roman,serif" font-size="14.00">Y</text>
</g>
<!-- c23 -->
<g id="node18" class="node">
<title>c23</title>
<polygon fill="none" stroke="black" points="571,-252.5 571,-298.5 660,-298.5 660,-252.5 571,-252.5"/>
<text text-anchor="middle" x="584" y="-283.3" font-family="Times New Roman,serif" font-size="14.00">A</text>
<polyline fill="none" stroke="black" points="571,-275.5 597,-275.5 "/>
<text text-anchor="middle" x="584" y="-260.3" font-family="Times New Roman,serif" font-size="14.00">B</text>
<polyline fill="none" stroke="black" points="597,-252.5 597,-298.5 "/>
<text text-anchor="middle" x="615.5" y="-279.3" font-family="Times New Roman,serif" font-size="14.00">$14</text>
<text text-anchor="middle" x="615.5" y="-264.3" font-family="Times New Roman,serif" font-size="14.00">$or</text>
<polyline fill="none" stroke="black" points="634,-252.5 634,-298.5 "/>
<text text-anchor="middle" x="647" y="-271.8" font-family="Times New Roman,serif" font-size="14.00">Y</text>
</g>
<!-- c18&#45;&gt;c23 -->
<g id="edge7" class="edge">
<title>c18:e&#45;&gt;c23:w</title>
<path fill="none" stroke="#7570b3" d="M534,-328.5C554.33,-328.5 549.53,-300.38 561.22,-290.72"/>
<polygon fill="#7570b3" stroke="#7570b3" points="562.59,-293.95 571,-287.5 560.41,-287.3 562.59,-293.95"/>
</g>
<!-- x1&#45;&gt;c18 -->
<g id="edge2" class="edge">
<title>x1:e&#45;&gt;c18:w</title>
<path fill="none" stroke="#1b9e77" d="M299.02,-337.53C352.49,-337.84 372.34,-340.15 425.69,-340.46"/>
<polygon fill="none" stroke="#1b9e77" points="299,-337.53 292.99,-341.52 287,-337.5 293.01,-333.52 299,-337.53"/>
<polygon fill="none" stroke="#1b9e77" points="426,-340.47 432.01,-336.48 438,-340.5 431.99,-344.48 426,-340.47"/>
</g>
<!-- c19 -->
<g id="node11" class="node">
<title>c19</title>
<polygon fill="none" stroke="black" points="438,-240.5 438,-286.5 534,-286.5 534,-240.5 438,-240.5"/>
<text text-anchor="middle" x="451" y="-271.3" font-family="Times New Roman,serif" font-size="14.00">A</text>
<polyline fill="none" stroke="black" points="438,-263.5 464,-263.5 "/>
<text text-anchor="middle" x="451" y="-248.3" font-family="Times New Roman,serif" font-size="14.00">B</text>
<polyline fill="none" stroke="black" points="464,-240.5 464,-286.5 "/>
<text text-anchor="middle" x="486" y="-267.3" font-family="Times New Roman,serif" font-size="14.00">$13</text>
<text text-anchor="middle" x="486" y="-252.3" font-family="Times New Roman,serif" font-size="14.00">$and</text>
<polyline fill="none" stroke="black" points="508,-240.5 508,-286.5 "/>
<text text-anchor="middle" x="521" y="-259.8" font-family="Times New Roman,serif" font-size="14.00">Y</text>
</g>
<!-- c19&#45;&gt;c23 -->
<g id="edge19" class="edge">
<title>c19:e&#45;&gt;c23:w</title>
<path fill="none" stroke="#e6ab02" d="M534,-263.5C546.46,-263.5 551.84,-263.5 560.87,-263.5"/>
<polygon fill="#e6ab02" stroke="#e6ab02" points="561,-267 571,-263.5 561,-260 561,-267"/>
</g>
<!-- x2&#45;&gt;c19 -->
<g id="edge3" class="edge">
<title>x2:e&#45;&gt;c19:w</title>
<path fill="none" stroke="#1b9e77" d="M299.08,-292.31C352.9,-290.57 372.13,-277.43 425.96,-275.69"/>
<polygon fill="none" stroke="#1b9e77" points="299,-292.31 293.06,-296.4 287,-292.5 292.94,-288.41 299,-292.31"/>
<polygon fill="none" stroke="#1b9e77" points="426,-275.69 431.94,-271.59 438,-275.5 432.06,-279.59 426,-275.69"/>
</g>
<!-- c20 -->
<g id="node13" class="node">
<title>c20</title>
<polygon fill="none" stroke="black" points="438,-166.5 438,-212.5 534,-212.5 534,-166.5 438,-166.5"/>
<text text-anchor="middle" x="451" y="-197.3" font-family="Times New Roman,serif" font-size="14.00">A</text>
<polyline fill="none" stroke="black" points="438,-189.5 464,-189.5 "/>
<text text-anchor="middle" x="451" y="-174.3" font-family="Times New Roman,serif" font-size="14.00">B</text>
<polyline fill="none" stroke="black" points="464,-166.5 464,-212.5 "/>
<text text-anchor="middle" x="486" y="-193.3" font-family="Times New Roman,serif" font-size="14.00">$16</text>
<text text-anchor="middle" x="486" y="-178.3" font-family="Times New Roman,serif" font-size="14.00">$and</text>
<polyline fill="none" stroke="black" points="508,-166.5 508,-212.5 "/>
<text text-anchor="middle" x="521" y="-185.8" font-family="Times New Roman,serif" font-size="14.00">Y</text>
</g>
<!-- c24 -->
<g id="node19" class="node">
<title>c24</title>
<polygon fill="none" stroke="black" points="758,-168.5 758,-214.5 847,-214.5 847,-168.5 758,-168.5"/>
<text text-anchor="middle" x="771" y="-199.3" font-family="Times New Roman,serif" font-size="14.00">A</text>
<polyline fill="none" stroke="black" points="758,-191.5 784,-191.5 "/>
<text text-anchor="middle" x="771" y="-176.3" font-family="Times New Roman,serif" font-size="14.00">B</text>
<polyline fill="none" stroke="black" points="784,-168.5 784,-214.5 "/>
<text text-anchor="middle" x="802.5" y="-195.3" font-family="Times New Roman,serif" font-size="14.00">$17</text>
<text text-anchor="middle" x="802.5" y="-180.3" font-family="Times New Roman,serif" font-size="14.00">$or</text>
<polyline fill="none" stroke="black" points="821,-168.5 821,-214.5 "/>
<text text-anchor="middle" x="834" y="-187.8" font-family="Times New Roman,serif" font-size="14.00">Y</text>
</g>
<!-- c20&#45;&gt;c24 -->
<g id="edge20" class="edge">
<title>c20:e&#45;&gt;c24:w</title>
<path fill="none" stroke="#d95f02" d="M534,-189.5C630.15,-189.5 656.52,-180.19 747.76,-179.54"/>
<polygon fill="#d95f02" stroke="#d95f02" points="748.01,-183.04 758,-179.5 747.99,-176.04 748.01,-183.04"/>
</g>
<!-- x3&#45;&gt;c20 -->
<g id="edge4" class="edge">
<title>x3:e&#45;&gt;c20:w</title>
<path fill="none" stroke="#7570b3" d="M299.23,-250.53C341.24,-250.69 358.1,-250.82 401,-231.5 415.63,-224.91 417.18,-211.08 426.28,-204.77"/>
<polygon fill="none" stroke="#7570b3" points="299,-250.53 292.99,-254.51 287,-250.5 293.01,-246.51 299,-250.53"/>
<polygon fill="none" stroke="#7570b3" points="426.44,-204.72 431.15,-199.26 438,-201.5 433.29,-206.96 426.44,-204.72"/>
</g>
<!-- c21 -->
<g id="node15" class="node">
<title>c21</title>
<polygon fill="none" stroke="black" points="438,-101.5 438,-147.5 534,-147.5 534,-101.5 438,-101.5"/>
<text text-anchor="middle" x="451" y="-132.3" font-family="Times New Roman,serif" font-size="14.00">A</text>
<polyline fill="none" stroke="black" points="438,-124.5 464,-124.5 "/>
<text text-anchor="middle" x="451" y="-109.3" font-family="Times New Roman,serif" font-size="14.00">B</text>
<polyline fill="none" stroke="black" points="464,-101.5 464,-147.5 "/>
<text text-anchor="middle" x="486" y="-128.3" font-family="Times New Roman,serif" font-size="14.00">$19</text>
<text text-anchor="middle" x="486" y="-113.3" font-family="Times New Roman,serif" font-size="14.00">$and</text>
<polyline fill="none" stroke="black" points="508,-101.5 508,-147.5 "/>
<text text-anchor="middle" x="521" y="-120.8" font-family="Times New Roman,serif" font-size="14.00">Y</text>
</g>
<!-- c25 -->
<g id="node20" class="node">
<title>c25</title>
<polygon fill="none" stroke="black" points="945,-156.5 945,-202.5 1034,-202.5 1034,-156.5 945,-156.5"/>
<text text-anchor="middle" x="958" y="-187.3" font-family="Times New Roman,serif" font-size="14.00">A</text>
<polyline fill="none" stroke="black" points="945,-179.5 971,-179.5 "/>
<text text-anchor="middle" x="958" y="-164.3" font-family="Times New Roman,serif" font-size="14.00">B</text>
<polyline fill="none" stroke="black" points="971,-156.5 971,-202.5 "/>
<text text-anchor="middle" x="989.5" y="-183.3" font-family="Times New Roman,serif" font-size="14.00">$20</text>
<text text-anchor="middle" x="989.5" y="-168.3" font-family="Times New Roman,serif" font-size="14.00">$or</text>
<polyline fill="none" stroke="black" points="1008,-156.5 1008,-202.5 "/>
<text text-anchor="middle" x="1021" y="-175.8" font-family="Times New Roman,serif" font-size="14.00">Y</text>
</g>
<!-- c21&#45;&gt;c25 -->
<g id="edge21" class="edge">
<title>c21:e&#45;&gt;c25:w</title>
<path fill="none" stroke="#d95f02" d="M534,-124.5C577.32,-124.5 863.8,-162.77 934.67,-167.1"/>
<polygon fill="#d95f02" stroke="#d95f02" points="934.87,-170.61 945,-167.5 935.14,-163.62 934.87,-170.61"/>
</g>
<!-- x4&#45;&gt;c21 -->
<g id="edge5" class="edge">
<title>x4:e&#45;&gt;c21:w</title>
<path fill="none" stroke="#e7298a" d="M299.1,-155.29C352.98,-153.34 372.05,-138.65 425.95,-136.71"/>
<polygon fill="none" stroke="#e7298a" points="299,-155.29 293.07,-159.39 287,-155.5 292.93,-151.39 299,-155.29"/>
<polygon fill="none" stroke="#e7298a" points="426,-136.71 431.93,-132.61 438,-136.5 432.07,-140.6 426,-136.71"/>
</g>
<!-- n5 -->
<g id="node24" class="node">
<title>n5</title>
<ellipse fill="black" stroke="black" cx="353" cy="-166.5" rx="1.8" ry="1.8"/>
</g>
<!-- c22&#45;&gt;n5 -->
<g id="edge22" class="edge">
<title>c22:e&#45;&gt;n5:w</title>
<path fill="none" stroke="#d95f02" d="M207,-114.5C243.35,-114.5 252.96,-118.75 287,-131.5 313.48,-141.41 317.34,-161.1 339.92,-165.58"/>
<polygon fill="#d95f02" stroke="#d95f02" points="339.72,-169.08 350,-166.5 340.36,-162.1 339.72,-169.08"/>
</g>
<!-- c23&#45;&gt;c24 -->
<g id="edge27" class="edge">
<title>c23:e&#45;&gt;c24:w</title>
<path fill="none" stroke="#1b9e77" d="M660,-275.5C671.51,-275.5 724.68,-223.29 748.56,-207.79"/>
<polygon fill="#1b9e77" stroke="#1b9e77" points="750.34,-210.82 758,-203.5 747.45,-204.45 750.34,-210.82"/>
</g>
<!-- c24&#45;&gt;c25 -->
<g id="edge28" class="edge">
<title>c24:e&#45;&gt;c25:w</title>
<path fill="none" stroke="#1b9e77" d="M847,-191.5C886.98,-191.5 899.44,-191.5 934.9,-191.5"/>
<polygon fill="#1b9e77" stroke="#1b9e77" points="935,-195 945,-191.5 935,-188 935,-195"/>
</g>
<!-- c25&#45;&gt;n9 -->
<g id="edge31" class="edge">
<title>c25:e&#45;&gt;n9:w</title>
<path fill="none" stroke="#666666" d="M1034,-179.5C1116.94,-179.5 1128.91,-227.52 1186.2,-287.5 1193.06,-294.69 1192.15,-304.86 1195.3,-310.76"/>
<polygon fill="#666666" stroke="#666666" points="1193.73,-313.88 1204.2,-315.5 1197.02,-307.71 1193.73,-313.88"/>
</g>
<!-- x6 -->
<g id="node22" class="node">
<title>x6</title>
<path fill="none" stroke="black" d="M877,-277.5C877,-277.5 915,-277.5 915,-277.5 921,-277.5 927,-283.5 927,-289.5 927,-289.5 927,-311.5 927,-311.5 927,-317.5 921,-323.5 915,-323.5 915,-323.5 877,-323.5 877,-323.5 871,-323.5 865,-317.5 865,-311.5 865,-311.5 865,-289.5 865,-289.5 865,-283.5 871,-277.5 877,-277.5"/>
<text text-anchor="middle" x="896" y="-308.3" font-family="Times New Roman,serif" font-size="14.00">1:1 &#45; 3:3</text>
<polyline fill="none" stroke="black" points="865,-300.5 927,-300.5 "/>
<text text-anchor="middle" x="896" y="-285.3" font-family="Times New Roman,serif" font-size="14.00">0:0 &#45; 1:1</text>
</g>
<!-- x5&#45;&gt;x6 -->
<g id="edge6" class="edge">
<title>x5:e&#45;&gt;x6:w</title>
<path fill="none" stroke="#e7298a" stroke-width="3" d="M752.01,-300.5C794.06,-300.5 810.82,-300.5 852.78,-300.5"/>
<polygon fill="none" stroke="#e7298a" stroke-width="3" points="752,-300.5 746,-304.5 740,-300.5 746,-296.5 752,-300.5"/>
<polygon fill="none" stroke="#e7298a" stroke-width="3" points="853,-300.5 859,-296.5 865,-300.5 859,-304.5 853,-300.5"/>
<text text-anchor="middle" x="802.5" y="-305.3" font-family="Times New Roman,serif" font-size="14.00" fill="#e7298a">&lt;2&gt;</text>
</g>
<!-- x6&#45;&gt;n10 -->
<g id="edge8" class="edge">
<title>x6:e&#45;&gt;n10:w</title>
<path fill="none" stroke="#d95f02" d="M927,-288.5C975.15,-288.5 986.95,-295.26 1034,-305.5 1037.55,-306.27 1039.85,-307.33 1042.01,-308.27"/>
<polygon fill="#d95f02" stroke="#d95f02" points="1041.48,-311.73 1052,-310.5 1043,-304.9 1041.48,-311.73"/>
</g>
<!-- x6&#45;&gt;n10 -->
<g id="edge9" class="edge">
<title>x6:e&#45;&gt;n10:w</title>
<path fill="none" stroke="#d95f02" d="M927,-312.5C978.98,-312.5 994.48,-310.75 1041.75,-310.52"/>
<polygon fill="#d95f02" stroke="#d95f02" points="1042.01,-314.02 1052,-310.5 1041.99,-307.02 1042.01,-314.02"/>
</g>
<!-- x7&#45;&gt;n11 -->
<g id="edge10" class="edge">
<title>x7:e&#45;&gt;n11:w</title>
<path fill="none" stroke="#1b9e77" stroke-width="3" d="M188.5,-208.5C200.39,-208.5 273.57,-205.55 302.7,-204.72"/>
<polygon fill="#1b9e77" stroke="#1b9e77" stroke-width="3" points="303.08,-208.21 313,-204.5 302.93,-201.21 303.08,-208.21"/>
<text text-anchor="middle" x="256" y="-211.3" font-family="Times New Roman,serif" font-size="14.00" fill="#1b9e77">&lt;6&gt;</text>
</g>
<!-- n5&#45;&gt;c18 -->
<g id="edge23" class="edge">
<title>n5:e&#45;&gt;c18:w</title>
<path fill="none" stroke="#d95f02" d="M356,-166.5C376.59,-166.5 386.54,-162.85 401,-177.5 443.19,-220.24 382.34,-305.35 427.83,-315.5"/>
<polygon fill="#d95f02" stroke="#d95f02" points="427.71,-319.01 438,-316.5 428.39,-312.04 427.71,-319.01"/>
</g>
<!-- n5&#45;&gt;c19 -->
<g id="edge24" class="edge">
<title>n5:e&#45;&gt;c19:w</title>
<path fill="none" stroke="#d95f02" d="M356,-166.5C376.59,-166.5 384.91,-164.66 401,-177.5 426.6,-197.93 406.78,-240.67 428.12,-249.77"/>
<polygon fill="#d95f02" stroke="#d95f02" points="427.55,-253.22 438,-251.5 428.75,-246.33 427.55,-253.22"/>
</g>
<!-- n5&#45;&gt;c20 -->
<g id="edge25" class="edge">
<title>n5:e&#45;&gt;c20:w</title>
<path fill="none" stroke="#d95f02" d="M356,-166.5C389.18,-166.5 399.31,-175.46 427.98,-177.21"/>
<polygon fill="#d95f02" stroke="#d95f02" points="427.9,-180.7 438,-177.5 428.11,-173.71 427.9,-180.7"/>
</g>
<!-- n5&#45;&gt;c21 -->
<g id="edge26" class="edge">
<title>n5:e&#45;&gt;c21:w</title>
<path fill="none" stroke="#d95f02" d="M356,-166.5C395.89,-166.5 394.91,-121.38 427.77,-113.63"/>
<polygon fill="#d95f02" stroke="#d95f02" points="428.44,-117.08 438,-112.5 427.68,-110.12 428.44,-117.08"/>
</g>
</g>
</svg>
