<?xml version="1.0" encoding="UTF-8" standalone="no"?>
<!DOCTYPE svg PUBLIC "-//W3C//DTD SVG 1.1//EN"
 "http://www.w3.org/Graphics/SVG/1.1/DTD/svg11.dtd">
<!-- Generated by graphviz version 4.0.0 (20220529.0937)
 -->
<!-- Title: top_module Pages: 1 -->
<svg width="1543pt" height="776pt"
 viewBox="0.00 0.00 1543.08 775.60" xmlns="http://www.w3.org/2000/svg" xmlns:xlink="http://www.w3.org/1999/xlink">
<g id="graph0" class="graph" transform="scale(1 1) rotate(0) translate(4 771.6)">
<title>top_module</title>
<polygon fill="white" stroke="transparent" points="-4,4 -4,-771.6 1539.08,-771.6 1539.08,4 -4,4"/>
<text text-anchor="middle" x="767.54" y="-7.8" font-family="Times New Roman,serif" font-size="14.00">top_module</text>
<!-- n1 -->
<g id="node1" class="node">
<title>n1</title>
<polygon fill="none" stroke="black" points="810.01,-519 684.99,-501 810.01,-483 935.02,-501 810.01,-519"/>
<text text-anchor="middle" x="810.01" y="-497.3" font-family="Times New Roman,serif" font-size="14.00">Y3_SB_LUT4_O_I2</text>
</g>
<!-- x7 -->
<g id="node17" class="node">
<title>x7</title>
<path fill="none" stroke="black" d="M984.01,-483C984.01,-483 1022.01,-483 1022.01,-483 1028.01,-483 1034.01,-489 1034.01,-495 1034.01,-495 1034.01,-507 1034.01,-507 1034.01,-513 1028.01,-519 1022.01,-519 1022.01,-519 984.01,-519 984.01,-519 978.01,-519 972.01,-513 972.01,-507 972.01,-507 972.01,-495 972.01,-495 972.01,-489 978.01,-483 984.01,-483"/>
<text text-anchor="middle" x="1003.01" y="-497.3" font-family="Times New Roman,serif" font-size="14.00">0:0 &#45; 0:0</text>
</g>
<!-- n1&#45;&gt;x7 -->
<g id="edge10" class="edge">
<title>n1:e&#45;&gt;x7:w</title>
<path fill="none" stroke="#d95f02" d="M935.01,-501C947.47,-501 952.85,-501 961.88,-501"/>
<polygon fill="#d95f02" stroke="#d95f02" points="962.01,-504.5 972.01,-501 962.01,-497.5 962.01,-504.5"/>
</g>
<!-- n2 -->
<g id="node2" class="node">
<title>n2</title>
<polygon fill="none" stroke="black" points="1529.21,-516.54 1529.21,-531.46 1513.39,-542 1491.02,-542 1475.21,-531.46 1475.21,-516.54 1491.02,-506 1513.39,-506 1529.21,-516.54"/>
<text text-anchor="middle" x="1502.21" y="-520.3" font-family="Times New Roman,serif" font-size="14.00">Y1</text>
</g>
<!-- x12 -->
<g id="node23" class="node">
<title>x12</title>
<path fill="none" stroke="black" d="M1064.01,-666C1064.01,-666 1103.01,-666 1103.01,-666 1109.01,-666 1115.01,-672 1115.01,-678 1115.01,-678 1115.01,-746 1115.01,-746 1115.01,-752 1109.01,-758 1103.01,-758 1103.01,-758 1064.01,-758 1064.01,-758 1058.01,-758 1052.01,-752 1052.01,-746 1052.01,-746 1052.01,-678 1052.01,-678 1052.01,-672 1058.01,-666 1064.01,-666"/>
<text text-anchor="middle" x="1083.51" y="-742.8" font-family="Times New Roman,serif" font-size="14.00">0:0 &#45; 3:3</text>
<polyline fill="none" stroke="black" points="1052.01,-735 1115.01,-735 "/>
<text text-anchor="middle" x="1083.51" y="-719.8" font-family="Times New Roman,serif" font-size="14.00">X &#45;&gt; 2:2</text>
<polyline fill="none" stroke="black" points="1052.01,-712 1115.01,-712 "/>
<text text-anchor="middle" x="1083.51" y="-696.8" font-family="Times New Roman,serif" font-size="14.00">0:0 &#45; 1:1</text>
<polyline fill="none" stroke="black" points="1052.01,-689 1115.01,-689 "/>
<text text-anchor="middle" x="1083.51" y="-673.8" font-family="Times New Roman,serif" font-size="14.00">X &#45;&gt; 0:0</text>
</g>
<!-- n2&#45;&gt;x12 -->
<g id="edge12" class="edge">
<title>n2:e&#45;&gt;x12:w</title>
<path fill="none" stroke="#1b9e77" d="M1530.21,-524C1538.22,-524 1533.8,-535.44 1529.21,-542 1467.04,-630.79 1409.86,-610.52 1305.01,-638 1277.6,-645.18 1070.74,-644.69 1051.51,-665.5 1048.22,-669.06 1045.62,-681.93 1046.1,-690.9"/>
<polygon fill="#1b9e77" stroke="#1b9e77" points="1043,-692.53 1050.51,-700 1049.3,-689.47 1043,-692.53"/>
</g>
<!-- n3 -->
<g id="node3" class="node">
<title>n3</title>
<polygon fill="none" stroke="black" points="1529.21,-709.54 1529.21,-724.46 1513.39,-735 1491.02,-735 1475.21,-724.46 1475.21,-709.54 1491.02,-699 1513.39,-699 1529.21,-709.54"/>
<text text-anchor="middle" x="1502.21" y="-713.3" font-family="Times New Roman,serif" font-size="14.00">Y3</text>
</g>
<!-- n3&#45;&gt;x12 -->
<g id="edge14" class="edge">
<title>n3:e&#45;&gt;x12:w</title>
<path fill="none" stroke="#1b9e77" d="M1530.21,-717C1538.22,-717 1534.79,-729.26 1529.21,-735 1506.82,-758.02 1489.25,-738.85 1457.21,-741 1305.26,-751.21 1267.25,-754.61 1115.01,-758.5 1086.8,-759.22 1072.31,-777.57 1051.51,-758.5 1051.04,-758.07 1050.59,-757.56 1050.17,-757.01"/>
<polygon fill="#1b9e77" stroke="#1b9e77" points="1053.67,-757.11 1050.51,-747 1046.67,-756.88 1053.67,-757.11"/>
</g>
<!-- n4 -->
<g id="node4" class="node">
<title>n4</title>
<polygon fill="none" stroke="black" points="1390.11,-733 1322.91,-715 1390.11,-697 1457.31,-715 1390.11,-733"/>
<text text-anchor="middle" x="1390.11" y="-711.3" font-family="Times New Roman,serif" font-size="14.00">next_state</text>
</g>
<!-- n5 -->
<g id="node5" class="node">
<title>n5</title>
<polygon fill="none" stroke="black" points="411.5,-59 372.79,-41 411.5,-23 450.21,-41 411.5,-59"/>
<text text-anchor="middle" x="411.5" y="-37.3" font-family="Times New Roman,serif" font-size="14.00">state</text>
</g>
<!-- n6 -->
<g id="node6" class="node">
<title>n6</title>
<polygon fill="none" stroke="black" points="54,-502.54 54,-517.46 38.18,-528 15.82,-528 0,-517.46 0,-502.54 15.82,-492 38.18,-492 54,-502.54"/>
<text text-anchor="middle" x="27" y="-506.3" font-family="Times New Roman,serif" font-size="14.00">w</text>
</g>
<!-- c14 -->
<g id="node16" class="node">
<title>c14</title>
<polygon fill="none" stroke="black" points="1133.01,-536 1133.01,-628 1305.01,-628 1305.01,-536 1133.01,-536"/>
<text text-anchor="middle" x="1147.01" y="-612.8" font-family="Times New Roman,serif" font-size="14.00">I0</text>
<polyline fill="none" stroke="black" points="1133.01,-605 1161.01,-605 "/>
<text text-anchor="middle" x="1147.01" y="-589.8" font-family="Times New Roman,serif" font-size="14.00">I1</text>
<polyline fill="none" stroke="black" points="1133.01,-582 1161.01,-582 "/>
<text text-anchor="middle" x="1147.01" y="-566.8" font-family="Times New Roman,serif" font-size="14.00">I2</text>
<polyline fill="none" stroke="black" points="1133.01,-559 1161.01,-559 "/>
<text text-anchor="middle" x="1147.01" y="-543.8" font-family="Times New Roman,serif" font-size="14.00">I3</text>
<polyline fill="none" stroke="black" points="1161.01,-536 1161.01,-628 "/>
<text text-anchor="middle" x="1219.51" y="-585.8" font-family="Times New Roman,serif" font-size="14.00">Y3_SB_LUT4_O</text>
<text text-anchor="middle" x="1219.51" y="-570.8" font-family="Times New Roman,serif" font-size="14.00">SB_LUT4</text>
<polyline fill="none" stroke="black" points="1278.01,-536 1278.01,-628 "/>
<text text-anchor="middle" x="1291.51" y="-578.3" font-family="Times New Roman,serif" font-size="14.00">O</text>
</g>
<!-- n6&#45;&gt;c14 -->
<g id="edge17" class="edge">
<title>n6:e&#45;&gt;c14:w</title>
<path fill="none" stroke="#d95f02" d="M54,-510C64.13,-510 63.06,-519.22 72,-524 101.74,-539.92 110.27,-548 144,-548 144,-548 144,-548 1004.01,-548 1057.76,-548 1073.72,-547.12 1122.74,-547.01"/>
<polygon fill="#d95f02" stroke="#d95f02" points="1123.01,-550.51 1133.01,-547 1123.01,-543.51 1123.01,-550.51"/>
</g>
<!-- c15 -->
<g id="node20" class="node">
<title>c15</title>
<polygon fill="none" stroke="black" points="325.5,-131 325.5,-223 497.5,-223 497.5,-131 325.5,-131"/>
<text text-anchor="middle" x="339.5" y="-207.8" font-family="Times New Roman,serif" font-size="14.00">I0</text>
<polyline fill="none" stroke="black" points="325.5,-200 353.5,-200 "/>
<text text-anchor="middle" x="339.5" y="-184.8" font-family="Times New Roman,serif" font-size="14.00">I1</text>
<polyline fill="none" stroke="black" points="325.5,-177 353.5,-177 "/>
<text text-anchor="middle" x="339.5" y="-161.8" font-family="Times New Roman,serif" font-size="14.00">I2</text>
<polyline fill="none" stroke="black" points="325.5,-154 353.5,-154 "/>
<text text-anchor="middle" x="339.5" y="-138.8" font-family="Times New Roman,serif" font-size="14.00">I3</text>
<polyline fill="none" stroke="black" points="353.5,-131 353.5,-223 "/>
<text text-anchor="middle" x="412" y="-180.8" font-family="Times New Roman,serif" font-size="14.00">Y1_SB_LUT4_O</text>
<text text-anchor="middle" x="412" y="-165.8" font-family="Times New Roman,serif" font-size="14.00">SB_LUT4</text>
<polyline fill="none" stroke="black" points="470.5,-131 470.5,-223 "/>
<text text-anchor="middle" x="484" y="-173.3" font-family="Times New Roman,serif" font-size="14.00">O</text>
</g>
<!-- n6&#45;&gt;c15 -->
<g id="edge18" class="edge">
<title>n6:e&#45;&gt;c15:w</title>
<path fill="none" stroke="#d95f02" d="M54,-510C80.41,-510 66.27,-298.78 72,-273 83.45,-221.51 70.6,-191.98 114,-162 136.67,-146.34 148.45,-161.72 176,-162 238.53,-162.63 256.61,-164.76 314.46,-164.98"/>
<polygon fill="#d95f02" stroke="#d95f02" points="314.49,-168.48 324.5,-165 314.51,-161.48 314.49,-168.48"/>
</g>
<!-- x11 -->
<g id="node22" class="node">
<title>x11</title>
<path fill="none" stroke="black" d="M206,-492C206,-492 244,-492 244,-492 250,-492 256,-498 256,-504 256,-504 256,-516 256,-516 256,-522 250,-528 244,-528 244,-528 206,-528 206,-528 200,-528 194,-522 194,-516 194,-516 194,-504 194,-504 194,-498 200,-492 206,-492"/>
<text text-anchor="middle" x="225" y="-506.3" font-family="Times New Roman,serif" font-size="14.00">0:0 &#45; 1:1</text>
</g>
<!-- n6&#45;&gt;x11 -->
<g id="edge19" class="edge">
<title>n6:e&#45;&gt;x11:w</title>
<path fill="none" stroke="#d95f02" d="M54,-510C112.7,-510 129.87,-510 183.86,-510"/>
<polygon fill="#d95f02" stroke="#d95f02" points="184,-513.5 194,-510 184,-506.5 184,-513.5"/>
</g>
<!-- n7 -->
<g id="node7" class="node">
<title>n7</title>
<polygon fill="none" stroke="black" points="54,-236.54 54,-251.46 38.18,-262 15.82,-262 0,-251.46 0,-236.54 15.82,-226 38.18,-226 54,-236.54"/>
<text text-anchor="middle" x="27" y="-240.3" font-family="Times New Roman,serif" font-size="14.00">y</text>
</g>
<!-- x0 -->
<g id="node9" class="node">
<title>x0</title>
<path fill="none" stroke="black" d="M126,-445C126,-445 164,-445 164,-445 170,-445 176,-451 176,-457 176,-457 176,-469 176,-469 176,-475 170,-481 164,-481 164,-481 126,-481 126,-481 120,-481 114,-475 114,-469 114,-469 114,-457 114,-457 114,-451 120,-445 126,-445"/>
<text text-anchor="middle" x="145" y="-459.3" font-family="Times New Roman,serif" font-size="14.00">1:1 &#45; 0:0</text>
</g>
<!-- n7&#45;&gt;x0 -->
<g id="edge20" class="edge">
<title>n7:e&#45;&gt;x0:w</title>
<path fill="none" stroke="#d95f02" stroke-width="3" d="M54,-244C72.44,-244 65.08,-391.91 72,-409 81.99,-433.66 83.37,-456.51 103.93,-461.84"/>
<polygon fill="#d95f02" stroke="#d95f02" stroke-width="3" points="103.66,-465.33 114,-463 104.47,-458.37 103.66,-465.33"/>
<text text-anchor="middle" x="84" y="-462.8" font-family="Times New Roman,serif" font-size="14.00" fill="#d95f02">&lt;6&gt;</text>
</g>
<!-- x1 -->
<g id="node10" class="node">
<title>x1</title>
<path fill="none" stroke="black" d="M126,-390C126,-390 164,-390 164,-390 170,-390 176,-396 176,-402 176,-402 176,-414 176,-414 176,-420 170,-426 164,-426 164,-426 126,-426 126,-426 120,-426 114,-420 114,-414 114,-414 114,-402 114,-402 114,-396 120,-390 126,-390"/>
<text text-anchor="middle" x="145" y="-404.3" font-family="Times New Roman,serif" font-size="14.00">2:2 &#45; 0:0</text>
</g>
<!-- n7&#45;&gt;x1 -->
<g id="edge23" class="edge">
<title>n7:e&#45;&gt;x1:w</title>
<path fill="none" stroke="#d95f02" stroke-width="3" d="M54,-244C75.49,-244 64.29,-318.94 72,-339 77.33,-352.88 90.33,-391.09 104.83,-403.82"/>
<polygon fill="#d95f02" stroke="#d95f02" stroke-width="3" points="103.45,-407.03 114,-408 106.36,-400.66 103.45,-407.03"/>
<text text-anchor="middle" x="84" y="-395.8" font-family="Times New Roman,serif" font-size="14.00" fill="#d95f02">&lt;6&gt;</text>
</g>
<!-- x2 -->
<g id="node11" class="node">
<title>x2</title>
<path fill="none" stroke="black" d="M126,-335C126,-335 164,-335 164,-335 170,-335 176,-341 176,-347 176,-347 176,-359 176,-359 176,-365 170,-371 164,-371 164,-371 126,-371 126,-371 120,-371 114,-365 114,-359 114,-359 114,-347 114,-347 114,-341 120,-335 126,-335"/>
<text text-anchor="middle" x="145" y="-349.3" font-family="Times New Roman,serif" font-size="14.00">4:4 &#45; 0:0</text>
</g>
<!-- n7&#45;&gt;x2 -->
<g id="edge24" class="edge">
<title>n7:e&#45;&gt;x2:w</title>
<path fill="none" stroke="#d95f02" stroke-width="3" d="M54,-244C59.78,-244 92.99,-320.17 107.77,-345.16"/>
<polygon fill="#d95f02" stroke="#d95f02" stroke-width="3" points="105.04,-347.35 114,-353 110.52,-342.99 105.04,-347.35"/>
<text text-anchor="middle" x="84" y="-324.8" font-family="Times New Roman,serif" font-size="14.00" fill="#d95f02">&lt;6&gt;</text>
</g>
<!-- x3 -->
<g id="node12" class="node">
<title>x3</title>
<path fill="none" stroke="black" d="M126,-280C126,-280 164,-280 164,-280 170,-280 176,-286 176,-292 176,-292 176,-304 176,-304 176,-310 170,-316 164,-316 164,-316 126,-316 126,-316 120,-316 114,-310 114,-304 114,-304 114,-292 114,-292 114,-286 120,-280 126,-280"/>
<text text-anchor="middle" x="145" y="-294.3" font-family="Times New Roman,serif" font-size="14.00">5:5 &#45; 0:0</text>
</g>
<!-- n7&#45;&gt;x3 -->
<g id="edge25" class="edge">
<title>n7:e&#45;&gt;x3:w</title>
<path fill="none" stroke="#d95f02" stroke-width="3" d="M54,-244C62.43,-244 63.68,-239.35 72,-238 82.53,-236.29 87.44,-231.63 96,-238 114.5,-251.76 95.61,-283.88 104.38,-294.51"/>
<polygon fill="#d95f02" stroke="#d95f02" stroke-width="3" points="103.41,-297.88 114,-298 105.79,-291.3 103.41,-297.88"/>
<text text-anchor="middle" x="84" y="-241.8" font-family="Times New Roman,serif" font-size="14.00" fill="#d95f02">&lt;6&gt;</text>
</g>
<!-- x10 -->
<g id="node21" class="node">
<title>x10</title>
<path fill="none" stroke="black" d="M126,-78C126,-78 164,-78 164,-78 170,-78 176,-84 176,-90 176,-90 176,-102 176,-102 176,-108 170,-114 164,-114 164,-114 126,-114 126,-114 120,-114 114,-108 114,-102 114,-102 114,-90 114,-90 114,-84 120,-78 126,-78"/>
<text text-anchor="middle" x="145" y="-92.3" font-family="Times New Roman,serif" font-size="14.00">0:0 &#45; 0:0</text>
</g>
<!-- n7&#45;&gt;x10 -->
<g id="edge21" class="edge">
<title>n7:e&#45;&gt;x10:w</title>
<path fill="none" stroke="#d95f02" stroke-width="3" d="M54,-244C69.39,-244 89.86,-132.7 106.6,-103.14"/>
<polygon fill="#d95f02" stroke="#d95f02" stroke-width="3" points="109.24,-105.46 114,-96 104.37,-100.43 109.24,-105.46"/>
<text text-anchor="middle" x="84" y="-212.8" font-family="Times New Roman,serif" font-size="14.00" fill="#d95f02">&lt;6&gt;</text>
</g>
<!-- x13 -->
<g id="node24" class="node">
<title>x13</title>
<path fill="none" stroke="black" d="M160,-59C160,-59 130,-59 130,-59 124,-59 118,-53 118,-47 118,-47 118,-35 118,-35 118,-29 124,-23 130,-23 130,-23 160,-23 160,-23 166,-23 172,-29 172,-35 172,-35 172,-47 172,-47 172,-53 166,-59 160,-59"/>
<text text-anchor="middle" x="145" y="-37.3" font-family="Times New Roman,serif" font-size="14.00">BUF</text>
</g>
<!-- n7&#45;&gt;x13 -->
<g id="edge22" class="edge">
<title>n7:e&#45;&gt;x13:w</title>
<path fill="none" stroke="#d95f02" stroke-width="3" d="M54,-244C83.38,-244 61.99,-140.63 72,-113 83.55,-81.12 80.21,-48.41 106.78,-42.09"/>
<polygon fill="#d95f02" stroke="#d95f02" stroke-width="3" points="107.43,-45.54 117,-41 106.69,-38.58 107.43,-45.54"/>
<text text-anchor="middle" x="84" y="-116.8" font-family="Times New Roman,serif" font-size="14.00" fill="#d95f02">&lt;6&gt;</text>
</g>
<!-- c13 -->
<g id="node8" class="node">
<title>c13</title>
<polygon fill="none" stroke="black" points="274,-350 274,-442 549,-442 549,-350 274,-350"/>
<text text-anchor="middle" x="288" y="-426.8" font-family="Times New Roman,serif" font-size="14.00">I0</text>
<polyline fill="none" stroke="black" points="274,-419 302,-419 "/>
<text text-anchor="middle" x="288" y="-403.8" font-family="Times New Roman,serif" font-size="14.00">I1</text>
<polyline fill="none" stroke="black" points="274,-396 302,-396 "/>
<text text-anchor="middle" x="288" y="-380.8" font-family="Times New Roman,serif" font-size="14.00">I2</text>
<polyline fill="none" stroke="black" points="274,-373 302,-373 "/>
<text text-anchor="middle" x="288" y="-357.8" font-family="Times New Roman,serif" font-size="14.00">I3</text>
<polyline fill="none" stroke="black" points="302,-350 302,-442 "/>
<text text-anchor="middle" x="412" y="-399.8" font-family="Times New Roman,serif" font-size="14.00">Y3_SB_LUT4_O_I2_SB_LUT4_O</text>
<text text-anchor="middle" x="412" y="-384.8" font-family="Times New Roman,serif" font-size="14.00">SB_LUT4</text>
<polyline fill="none" stroke="black" points="522,-350 522,-442 "/>
<text text-anchor="middle" x="535.5" y="-392.3" font-family="Times New Roman,serif" font-size="14.00">O</text>
</g>
<!-- x4 -->
<g id="node13" class="node">
<title>x4</title>
<path fill="none" stroke="black" d="M598,-425C598,-425 636,-425 636,-425 642,-425 648,-431 648,-437 648,-437 648,-449 648,-449 648,-455 642,-461 636,-461 636,-461 598,-461 598,-461 592,-461 586,-455 586,-449 586,-449 586,-437 586,-437 586,-431 592,-425 598,-425"/>
<text text-anchor="middle" x="617" y="-439.3" font-family="Times New Roman,serif" font-size="14.00">0:0 &#45; 0:0</text>
</g>
<!-- c13&#45;&gt;x4 -->
<g id="edge5" class="edge">
<title>c13:e&#45;&gt;x4:w</title>
<path fill="none" stroke="#e7298a" d="M560.32,-400.68C568.34,-409.69 566.67,-429.35 574.7,-438.34"/>
<polygon fill="none" stroke="#e7298a" points="560.09,-400.58 553.02,-401.99 549,-396 556.07,-394.59 560.09,-400.58"/>
<polygon fill="none" stroke="#e7298a" points="574.91,-438.43 581.98,-437.02 586,-443 578.93,-444.41 574.91,-438.43"/>
</g>
<!-- x0&#45;&gt;c13 -->
<g id="edge1" class="edge">
<title>x0:e&#45;&gt;c13:w</title>
<path fill="none" stroke="#66a61e" d="M188.37,-462.14C219.74,-457.59 230.42,-436.26 261.92,-431.81"/>
<polygon fill="none" stroke="#66a61e" points="187.97,-462.17 182.26,-466.58 176,-463 181.71,-458.6 187.97,-462.17"/>
<polygon fill="none" stroke="#66a61e" points="262.03,-431.81 267.74,-427.41 274,-431 268.28,-435.39 262.03,-431.81"/>
</g>
<!-- x1&#45;&gt;c13 -->
<g id="edge2" class="edge">
<title>x1:e&#45;&gt;c13:w</title>
<path fill="none" stroke="#1b9e77" d="M188.33,-408C218.28,-408 231.71,-408 261.65,-408"/>
<polygon fill="none" stroke="#1b9e77" points="188,-408 182,-412 176,-408 182,-404 188,-408"/>
<polygon fill="none" stroke="#1b9e77" points="262,-408 268,-404 274,-408 268,-412 262,-408"/>
</g>
<!-- x2&#45;&gt;c13 -->
<g id="edge3" class="edge">
<title>x2:e&#45;&gt;c13:w</title>
<path fill="none" stroke="#1b9e77" d="M188.34,-353.83C219.66,-358.24 230.51,-378.9 261.95,-383.21"/>
<polygon fill="none" stroke="#1b9e77" points="187.97,-353.8 181.72,-357.39 176,-353 182.25,-349.41 187.97,-353.8"/>
<polygon fill="none" stroke="#1b9e77" points="262.03,-383.22 268.27,-379.62 274,-384 267.75,-387.6 262.03,-383.22"/>
</g>
<!-- x3&#45;&gt;c13 -->
<g id="edge4" class="edge">
<title>x3:e&#45;&gt;c13:w</title>
<path fill="none" stroke="#7570b3" d="M187.32,-302.94C206.88,-314.72 243.18,-344.33 262.72,-356.08"/>
<polygon fill="none" stroke="#7570b3" points="187,-302.8 179.9,-304.07 176,-298 183.1,-296.74 187,-302.8"/>
<polygon fill="none" stroke="#7570b3" points="263,-356.2 270.1,-354.93 274,-361 266.9,-362.27 263,-356.2"/>
</g>
<!-- x4&#45;&gt;n1 -->
<g id="edge9" class="edge">
<title>x4:e&#45;&gt;n1:w</title>
<path fill="none" stroke="#d95f02" d="M648,-443C674.28,-443 660.13,-485.83 675.04,-497.88"/>
<polygon fill="#d95f02" stroke="#d95f02" points="674.41,-501.35 685,-501 676.5,-494.67 674.41,-501.35"/>
</g>
<!-- v5 -->
<g id="node14" class="node">
<title>v5</title>
<ellipse fill="none" stroke="black" cx="1003.01" cy="-648" rx="27" ry="18"/>
<text text-anchor="middle" x="1003.01" y="-644.3" font-family="Times New Roman,serif" font-size="14.00">1&#39;0</text>
</g>
<!-- v5&#45;&gt;c14 -->
<g id="edge26" class="edge">
<title>v5:e&#45;&gt;c14:w</title>
<path fill="none" stroke="#d95f02" d="M1031.01,-648C1074.69,-648 1084.25,-621.65 1122.6,-617.54"/>
<polygon fill="#d95f02" stroke="#d95f02" points="1123.2,-621.01 1133.01,-617 1122.84,-614.02 1123.2,-621.01"/>
</g>
<!-- v6 -->
<g id="node15" class="node">
<title>v6</title>
<ellipse fill="none" stroke="black" cx="1003.01" cy="-594" rx="27" ry="18"/>
<text text-anchor="middle" x="1003.01" y="-590.3" font-family="Times New Roman,serif" font-size="14.00">1&#39;0</text>
</g>
<!-- v6&#45;&gt;c14 -->
<g id="edge27" class="edge">
<title>v6:e&#45;&gt;c14:w</title>
<path fill="none" stroke="#1b9e77" d="M1031.01,-594C1072.8,-594 1085.7,-594 1122.98,-594"/>
<polygon fill="#1b9e77" stroke="#1b9e77" points="1123.01,-597.5 1133.01,-594 1123.01,-590.5 1123.01,-597.5"/>
</g>
<!-- c14&#45;&gt;n3 -->
<g id="edge13" class="edge">
<title>c14:e&#45;&gt;n3:w</title>
<path fill="none" stroke="#1b9e77" d="M1305.01,-582C1389.53,-582 1395.52,-638.24 1457.21,-696 1462.68,-701.12 1463.6,-707.8 1466.27,-712.23"/>
<polygon fill="#1b9e77" stroke="#1b9e77" points="1464.74,-715.38 1475.21,-717 1468.03,-709.21 1464.74,-715.38"/>
</g>
<!-- x7&#45;&gt;c14 -->
<g id="edge6" class="edge">
<title>x7:e&#45;&gt;c14:w</title>
<path fill="none" stroke="#e7298a" d="M1046.31,-501.27C1076.16,-502.75 1089.72,-510.58 1115.01,-534 1123.62,-541.98 1120.98,-554.99 1123.2,-562.99"/>
<polygon fill="none" stroke="#e7298a" points="1046.01,-501.27 1039.92,-505.13 1034.01,-501 1040.1,-497.13 1046.01,-501.27"/>
<polygon fill="none" stroke="#e7298a" points="1123.25,-563.02 1130.45,-563.26 1133.01,-570 1125.8,-569.77 1123.25,-563.02"/>
</g>
<!-- v8 -->
<g id="node18" class="node">
<title>v8</title>
<ellipse fill="none" stroke="black" cx="145" cy="-243" rx="27" ry="18"/>
<text text-anchor="middle" x="145" y="-239.3" font-family="Times New Roman,serif" font-size="14.00">1&#39;0</text>
</g>
<!-- v8&#45;&gt;c15 -->
<g id="edge28" class="edge">
<title>v8:e&#45;&gt;c15:w</title>
<path fill="none" stroke="#1b9e77" d="M173,-243C238.24,-243 254.2,-215.07 314.44,-212.23"/>
<polygon fill="#1b9e77" stroke="#1b9e77" points="314.58,-215.73 324.5,-212 314.42,-208.73 314.58,-215.73"/>
</g>
<!-- v9 -->
<g id="node19" class="node">
<title>v9</title>
<ellipse fill="none" stroke="black" cx="145" cy="-189" rx="27" ry="18"/>
<text text-anchor="middle" x="145" y="-185.3" font-family="Times New Roman,serif" font-size="14.00">1&#39;0</text>
</g>
<!-- v9&#45;&gt;c15 -->
<g id="edge29" class="edge">
<title>v9:e&#45;&gt;c15:w</title>
<path fill="none" stroke="#7570b3" d="M173,-189C236.78,-189 255.25,-189 314.25,-189"/>
<polygon fill="#7570b3" stroke="#7570b3" points="314.5,-192.5 324.5,-189 314.5,-185.5 314.5,-192.5"/>
</g>
<!-- c15&#45;&gt;n2 -->
<g id="edge11" class="edge">
<title>c15:e&#45;&gt;n2:w</title>
<path fill="none" stroke="#1b9e77" d="M498.5,-177C577.38,-177 537.12,-310 616,-310 616,-310 616,-310 1220.01,-310 1364.56,-310 1329,-514.09 1465.11,-523.65"/>
<polygon fill="#1b9e77" stroke="#1b9e77" points="1465.09,-527.15 1475.21,-524 1465.33,-520.16 1465.09,-527.15"/>
</g>
<!-- x10&#45;&gt;c15 -->
<g id="edge7" class="edge">
<title>x10:e&#45;&gt;c15:w</title>
<path fill="none" stroke="#7570b3" d="M188.29,-96.52C242.74,-101.23 257.78,-136.79 312.25,-141.49"/>
<polygon fill="none" stroke="#7570b3" points="187.99,-96.5 181.83,-100.25 176,-96 182.16,-92.26 187.99,-96.5"/>
<polygon fill="none" stroke="#7570b3" points="312.51,-141.5 318.67,-137.75 324.5,-142 318.34,-145.75 312.51,-141.5"/>
</g>
<!-- x11&#45;&gt;n1 -->
<g id="edge8" class="edge">
<title>x11:e&#45;&gt;n1:w</title>
<path fill="none" stroke="#d95f02" d="M256,-510C443.26,-510 492.53,-501.32 674.8,-501.01"/>
<polygon fill="#d95f02" stroke="#d95f02" points="675,-504.51 685,-501 675,-497.51 675,-504.51"/>
</g>
<!-- x12&#45;&gt;n4 -->
<g id="edge15" class="edge">
<title>x12:e&#45;&gt;n4:w</title>
<path fill="none" stroke="#e6ab02" stroke-width="3" d="M1115.01,-712C1204.03,-712 1228.75,-714.78 1313,-714.99"/>
<polygon fill="#e6ab02" stroke="#e6ab02" stroke-width="3" points="1313.01,-718.49 1323.01,-715 1313.02,-711.49 1313.01,-718.49"/>
<text text-anchor="middle" x="1219.01" y="-717.8" font-family="Times New Roman,serif" font-size="14.00" fill="#e6ab02">&lt;4&gt;</text>
</g>
<!-- x13&#45;&gt;n5 -->
<g id="edge16" class="edge">
<title>x13:e&#45;&gt;n5:w</title>
<path fill="none" stroke="#e6ab02" stroke-width="3" d="M173,-41C257.78,-41 281.45,-41 361.46,-41"/>
<polygon fill="#e6ab02" stroke="#e6ab02" stroke-width="3" points="361.5,-44.5 371.5,-41 361.5,-37.5 361.5,-44.5"/>
<text text-anchor="middle" x="225" y="-44.8" font-family="Times New Roman,serif" font-size="14.00" fill="#e6ab02">&lt;6&gt;</text>
</g>
</g>
</svg>
