<svg xmlns="http://www.w3.org/2000/svg" xmlns:xlink="http://www.w3.org/1999/xlink" xmlns:s="https://github.com/nturley/netlistsvg" width="449" height="276.5">
  <style>svg {
    stroke:#000;
    fill:none;
  }
  text {
    fill:#000;
    stroke:none;
    font-size:10px;
    font-weight: bold;
    font-family: "Courier New", monospace;
  }
  .nodelabel {
    text-anchor: middle;
  }
  .inputPortLabel {
    text-anchor: end;
  }
  .splitjoinBody {
    fill:#000;
  }</style>
  <g s:type="and" transform="translate(342,19.5)" s:width="30" s:height="25" id="cell_$and$top_module.v:35$6">
    <s:alias val="$and"/>
    <s:alias val="$logic_and"/>
    <s:alias val="$_AND_"/>
    <path d="M0,0 L0,25 L15,25 A15 12.5 0 0 0 15,0 Z" class="cell_$and$top_module.v:35$6"/>
    <g s:x="0" s:y="5" s:pid="A"/>
    <g s:x="0" s:y="20" s:pid="B"/>
    <g s:x="30" s:y="12.5" s:pid="Y"/>
  </g>
  <g s:type="and" transform="translate(147,109.5)" s:width="30" s:height="25" id="cell_$and$top_module.v:42$11">
    <s:alias val="$and"/>
    <s:alias val="$logic_and"/>
    <s:alias val="$_AND_"/>
    <path d="M0,0 L0,25 L15,25 A15 12.5 0 0 0 15,0 Z" class="cell_$and$top_module.v:42$11"/>
    <g s:x="0" s:y="5" s:pid="A"/>
    <g s:x="0" s:y="20" s:pid="B"/>
    <g s:x="30" s:y="12.5" s:pid="Y"/>
  </g>
  <g s:type="and" transform="translate(147,169.5)" s:width="30" s:height="25" id="cell_$and$top_module.v:43$13">
    <s:alias val="$and"/>
    <s:alias val="$logic_and"/>
    <s:alias val="$_AND_"/>
    <path d="M0,0 L0,25 L15,25 A15 12.5 0 0 0 15,0 Z" class="cell_$and$top_module.v:43$13"/>
    <g s:x="0" s:y="5" s:pid="A"/>
    <g s:x="0" s:y="20" s:pid="B"/>
    <g s:x="30" s:y="12.5" s:pid="Y"/>
  </g>
  <g s:type="and" transform="translate(212,199.5)" s:width="30" s:height="25" id="cell_$and$top_module.v:44$16">
    <s:alias val="$and"/>
    <s:alias val="$logic_and"/>
    <s:alias val="$_AND_"/>
    <path d="M0,0 L0,25 L15,25 A15 12.5 0 0 0 15,0 Z" class="cell_$and$top_module.v:44$16"/>
    <g s:x="0" s:y="5" s:pid="A"/>
    <g s:x="0" s:y="20" s:pid="B"/>
    <g s:x="30" s:y="12.5" s:pid="Y"/>
  </g>
  <g s:type="and" transform="translate(277,229.5)" s:width="30" s:height="25" id="cell_$and$top_module.v:45$19">
    <s:alias val="$and"/>
    <s:alias val="$logic_and"/>
    <s:alias val="$_AND_"/>
    <path d="M0,0 L0,25 L15,25 A15 12.5 0 0 0 15,0 Z" class="cell_$and$top_module.v:45$19"/>
    <g s:x="0" s:y="5" s:pid="A"/>
    <g s:x="0" s:y="20" s:pid="B"/>
    <g s:x="30" s:y="12.5" s:pid="Y"/>
  </g>
  <g s:type="not" transform="translate(77,244.5)" s:width="30" s:height="20" id="cell_$not$top_module.v:42$10">
    <s:alias val="$_NOT_"/>
    <s:alias val="$not"/>
    <s:alias val="$logic_not"/>
    <path d="M0,0 L0,20 L20,10 Z" class="cell_$not$top_module.v:42$10"/>
    <circle cx="23" cy="10" r="3" class="cell_$not$top_module.v:42$10"/>
    <g s:x="0" s:y="10" s:pid="A"/>
    <g s:x="25" s:y="10" s:pid="Y"/>
  </g>
  <g s:type="or" transform="translate(212,117)" s:width="30" s:height="25" id="cell_$or$top_module.v:42$14">
    <s:alias val="$or"/>
    <s:alias val="$logic_or"/>
    <s:alias val="$_OR_"/>
    <path d="M0,25 L0,25 L15,25 A15 12.5 0 0 0 15,0 L0,0" class="cell_$or$top_module.v:42$14"/>
    <path d="M0,0 A30 25 0 0 1 0,25" class="cell_$or$top_module.v:42$14"/>
    <g s:x="3" s:y="5" s:pid="A"/>
    <g s:x="3" s:y="20" s:pid="B"/>
    <g s:x="30" s:y="12.5" s:pid="Y"/>
  </g>
  <g s:type="or" transform="translate(277,124.5)" s:width="30" s:height="25" id="cell_$or$top_module.v:42$17">
    <s:alias val="$or"/>
    <s:alias val="$logic_or"/>
    <s:alias val="$_OR_"/>
    <path d="M0,25 L0,25 L15,25 A15 12.5 0 0 0 15,0 L0,0" class="cell_$or$top_module.v:42$17"/>
    <path d="M0,0 A30 25 0 0 1 0,25" class="cell_$or$top_module.v:42$17"/>
    <g s:x="3" s:y="5" s:pid="A"/>
    <g s:x="3" s:y="20" s:pid="B"/>
    <g s:x="30" s:y="12.5" s:pid="Y"/>
  </g>
  <g s:type="or" transform="translate(342,132)" s:width="30" s:height="25" id="cell_$or$top_module.v:42$20">
    <s:alias val="$or"/>
    <s:alias val="$logic_or"/>
    <s:alias val="$_OR_"/>
    <path d="M0,25 L0,25 L15,25 A15 12.5 0 0 0 15,0 L0,0" class="cell_$or$top_module.v:42$20"/>
    <path d="M0,0 A30 25 0 0 1 0,25" class="cell_$or$top_module.v:42$20"/>
    <g s:x="3" s:y="5" s:pid="A"/>
    <g s:x="3" s:y="20" s:pid="B"/>
    <g s:x="30" s:y="12.5" s:pid="Y"/>
  </g>
  <g s:type="inputExt" transform="translate(12,94.5)" s:width="30" s:height="20" id="cell_y">
    <text x="15" y="-4" class="nodelabel cell_y" s:attribute="ref">y</text>
    <s:alias val="$_inputExt_"/>
    <path d="M0,0 L0,20 L15,20 L30,10 L15,0 Z" class="cell_y"/>
    <g s:x="28" s:y="10" s:pid="Y"/>
  </g>
  <g s:type="inputExt" transform="translate(12,29.5)" s:width="30" s:height="20" id="cell_w">
    <text x="15" y="-4" class="nodelabel cell_w" s:attribute="ref">w</text>
    <s:alias val="$_inputExt_"/>
    <path d="M0,0 L0,20 L15,20 L30,10 L15,0 Z" class="cell_w"/>
    <g s:x="28" s:y="10" s:pid="Y"/>
  </g>
  <g s:type="outputExt" transform="translate(407,22)" s:width="30" s:height="20" id="cell_Y1">
    <text x="15" y="-4" class="nodelabel cell_Y1" s:attribute="ref">Y1</text>
    <s:alias val="$_outputExt_"/>
    <path d="M30,0 L30,20 L15,20 L0,10 L15,0 Z" class="cell_Y1"/>
    <g s:x="0" s:y="10" s:pid="A"/>
  </g>
  <g s:type="outputExt" transform="translate(407,134.5)" s:width="30" s:height="20" id="cell_Y3">
    <text x="15" y="-4" class="nodelabel cell_Y3" s:attribute="ref">Y3</text>
    <s:alias val="$_outputExt_"/>
    <path d="M30,0 L30,20 L15,20 L0,10 L15,0 Z" class="cell_Y3"/>
    <g s:x="0" s:y="10" s:pid="A"/>
  </g>
  <g s:type="split" transform="translate(92.8,84)" s:width="5" s:height="40" id="cell_$split$,2,3,4,5,6,7,">
    <rect width="5" height="100" class="splitjoinBody" s:generic="body"/>
    <s:alias val="$_split_"/>
    <g s:x="0" s:y="20" s:pid="in"/>
    <g transform="translate(4,10)" s:x="4" s:y="10" s:pid="out0">
      <text x="5" y="-4">0</text>
    </g>
    <g transform="translate(4,30)" s:x="4" s:y="10" s:pid="out0">
      <text x="5" y="-4">1</text>
    </g>
    <g transform="translate(4,50)" s:x="4" s:y="10" s:pid="out0">
      <text x="5" y="-4">2</text>
    </g>
    <g transform="translate(4,70)" s:x="4" s:y="10" s:pid="out0">
      <text x="5" y="-4">4</text>
    </g>
    <g transform="translate(4,90)" s:x="4" s:y="10" s:pid="out0">
      <text x="5" y="-4">5</text>
    </g>
  </g>
  <line x1="97.8" x2="117" y1="94.5" y2="94.5" class="net_2"/>
  <line x1="117" x2="117" y1="94.5" y2="24.5" class="net_2"/>
  <line x1="117" x2="342" y1="24.5" y2="24.5" class="net_2"/>
  <line x1="40" x2="342" y1="39.5" y2="39.5" class="net_8"/>
  <line x1="40" x2="52" y1="39.5" y2="39.5" class="net_8"/>
  <line x1="52" x2="52" y1="39.5" y2="254.5" class="net_8"/>
  <circle cx="52" cy="39.5" r="2" style="fill:#000" class="net_8"/>
  <line x1="52" x2="77" y1="254.5" y2="254.5" class="net_8"/>
  <line x1="97.8" x2="147" y1="114.5" y2="114.5" class="net_3"/>
  <line x1="102" x2="127" y1="254.5" y2="254.5" class="net_11"/>
  <line x1="127" x2="127" y1="254.5" y2="129.5" class="net_11"/>
  <line x1="127" x2="147" y1="129.5" y2="129.5" class="net_11"/>
  <line x1="102" x2="127" y1="254.5" y2="254.5" class="net_11"/>
  <line x1="127" x2="127" y1="254.5" y2="189.5" class="net_11"/>
  <circle cx="127" cy="189.5" r="2" style="fill:#000" class="net_11"/>
  <line x1="127" x2="147" y1="189.5" y2="189.5" class="net_11"/>
  <line x1="102" x2="127" y1="254.5" y2="254.5" class="net_11"/>
  <line x1="127" x2="127" y1="254.5" y2="219.5" class="net_11"/>
  <circle cx="127" cy="219.5" r="2" style="fill:#000" class="net_11"/>
  <line x1="127" x2="212" y1="219.5" y2="219.5" class="net_11"/>
  <line x1="102" x2="127" y1="254.5" y2="254.5" class="net_11"/>
  <line x1="127" x2="127" y1="254.5" y2="249.5" class="net_11"/>
  <circle cx="127" cy="249.5" r="2" style="fill:#000" class="net_11"/>
  <line x1="127" x2="277" y1="249.5" y2="249.5" class="net_11"/>
  <line x1="97.8" x2="137" y1="134.5" y2="134.5" class="net_4"/>
  <line x1="137" x2="137" y1="134.5" y2="174.5" class="net_4"/>
  <line x1="137" x2="147" y1="174.5" y2="174.5" class="net_4"/>
  <line x1="97.8" x2="117" y1="154.5" y2="154.5" class="net_6"/>
  <line x1="117" x2="117" y1="154.5" y2="204.5" class="net_6"/>
  <line x1="117" x2="212" y1="204.5" y2="204.5" class="net_6"/>
  <line x1="97.3" x2="97.3" y1="175" y2="234.5" class="net_7"/>
  <line x1="97.3" x2="277" y1="234.5" y2="234.5" class="net_7"/>
  <line x1="177" x2="215" y1="122" y2="122" class="net_12"/>
  <line x1="177" x2="187" y1="182" y2="182" class="net_13"/>
  <line x1="187" x2="187" y1="182" y2="137" class="net_13"/>
  <line x1="187" x2="215" y1="137" y2="137" class="net_13"/>
  <line x1="242" x2="280" y1="129.5" y2="129.5" class="net_16"/>
  <line x1="242" x2="252" y1="212" y2="212" class="net_14"/>
  <line x1="252" x2="252" y1="212" y2="144.5" class="net_14"/>
  <line x1="252" x2="280" y1="144.5" y2="144.5" class="net_14"/>
  <line x1="307" x2="345" y1="137" y2="137" class="net_17"/>
  <line x1="307" x2="317" y1="242" y2="242" class="net_15"/>
  <line x1="317" x2="317" y1="242" y2="152" class="net_15"/>
  <line x1="317" x2="345" y1="152" y2="152" class="net_15"/>
  <line x1="372" x2="407" y1="32" y2="32" class="net_9"/>
  <line x1="372" x2="407" y1="144.5" y2="144.5" class="net_10"/>
  <line x1="40" x2="92.8" y1="104.5" y2="104.5" class="net_2,3,4,5,6,7"/>
</svg>
