<svg xmlns="http://www.w3.org/2000/svg" xmlns:xlink="http://www.w3.org/1999/xlink" xmlns:s="https://github.com/nturley/netlistsvg" width="1095" height="935">
  <style>svg {
    stroke:#000;
    fill:none;
  }
  text {
    fill:#000;
    stroke:none;
    font-size:10px;
    font-weight: bold;
    font-family: "Courier New", monospace;
  }
  .nodelabel {
    text-anchor: middle;
  }
  .inputPortLabel {
    text-anchor: end;
  }
  .splitjoinBody {
    fill:#000;
  }</style>
  <g s:type="add" transform="translate(973,408.5)" s:width="25" s:height="25" id="cell_$add$top_module.v:44$4">
    <s:alias val="$add"/>
    <circle r="12.5" cx="12.5" cy="12.5" class="cell_$add$top_module.v:44$4"/>
    <line x1="7.5" x2="17.5" y1="12.5" y2="12.5" class="cell_$add$top_module.v:44$4"/>
    <line x1="12.5" x2="12.5" y1="7.5" y2="17.5" class="cell_$add$top_module.v:44$4"/>
    <g s:x="3" s:y="5" s:pid="A"/>
    <g s:x="3" s:y="20" s:pid="B"/>
    <g s:x="25" s:y="12.5" s:pid="Y"/>
  </g>
  <g s:type="add" transform="translate(219.66666666666666,200)" s:width="25" s:height="25" id="cell_$add$top_module.v:58$12">
    <s:alias val="$add"/>
    <circle r="12.5" cx="12.5" cy="12.5" class="cell_$add$top_module.v:58$12"/>
    <line x1="7.5" x2="17.5" y1="12.5" y2="12.5" class="cell_$add$top_module.v:58$12"/>
    <line x1="12.5" x2="12.5" y1="7.5" y2="17.5" class="cell_$add$top_module.v:58$12"/>
    <g s:x="3" s:y="5" s:pid="A"/>
    <g s:x="3" s:y="20" s:pid="B"/>
    <g s:x="25" s:y="12.5" s:pid="Y"/>
  </g>
  <g s:type="generic" transform="translate(549,729)" s:width="30" s:height="40" id="cell_$auto$opt_reduce.cc:128:opt_mux$73">
    <text x="15" y="-4" class="nodelabel cell_$auto$opt_reduce.cc:128:opt_mux$73" s:attribute="ref">$reduce_or</text>
    <rect width="30" height="20" s:generic="body" class="cell_$auto$opt_reduce.cc:128:opt_mux$73"/>
    <g transform="translate(0,10)" s:x="0" s:y="10" s:pid="in0" id="port_$auto$opt_reduce.cc:128:opt_mux$73~A">
      <text x="-3" y="-4" class="inputPortLabel cell_$auto$opt_reduce.cc:128:opt_mux$73">A</text>
    </g>
    <g transform="translate(30,10)" s:x="30" s:y="10" s:pid="out0" id="port_$auto$opt_reduce.cc:128:opt_mux$73~Y">
      <text x="5" y="-4" style="fill:#000; stroke:none" class="cell_$auto$opt_reduce.cc:128:opt_mux$73">Y</text>
    </g>
  </g>
  <g s:type="eq" transform="translate(80.33333333333333,663.5)" s:width="25" s:height="25" id="cell_$eq$top_module.v:41$2">
    <s:alias val="$eq"/>
    <circle r="12.5" cx="12.5" cy="12.5" class="cell_$eq$top_module.v:41$2"/>
    <line x1="7.5" x2="17.5" y1="10" y2="10" class="cell_$eq$top_module.v:41$2"/>
    <line x1="7.5" x2="17.5" y1="15" y2="15" class="cell_$eq$top_module.v:41$2"/>
    <g s:x="3" s:y="5" s:pid="A"/>
    <g s:x="3" s:y="20" s:pid="B"/>
    <g s:x="25" s:y="12.5" s:pid="Y"/>
  </g>
  <g s:type="eq" transform="translate(792,452)" s:width="25" s:height="25" id="cell_$eq$top_module.v:43$3">
    <s:alias val="$eq"/>
    <circle r="12.5" cx="12.5" cy="12.5" class="cell_$eq$top_module.v:43$3"/>
    <line x1="7.5" x2="17.5" y1="10" y2="10" class="cell_$eq$top_module.v:43$3"/>
    <line x1="7.5" x2="17.5" y1="15" y2="15" class="cell_$eq$top_module.v:43$3"/>
    <g s:x="3" s:y="5" s:pid="A"/>
    <g s:x="3" s:y="20" s:pid="B"/>
    <g s:x="25" s:y="12.5" s:pid="Y"/>
  </g>
  <g s:type="eq" transform="translate(792,184)" s:width="25" s:height="25" id="cell_$eq$top_module.v:47$6">
    <s:alias val="$eq"/>
    <circle r="12.5" cx="12.5" cy="12.5" class="cell_$eq$top_module.v:47$6"/>
    <line x1="7.5" x2="17.5" y1="10" y2="10" class="cell_$eq$top_module.v:47$6"/>
    <line x1="7.5" x2="17.5" y1="15" y2="15" class="cell_$eq$top_module.v:47$6"/>
    <g s:x="3" s:y="5" s:pid="A"/>
    <g s:x="3" s:y="20" s:pid="B"/>
    <g s:x="25" s:y="12.5" s:pid="Y"/>
  </g>
  <g s:type="eq" transform="translate(219.66666666666666,740.5)" s:width="25" s:height="25" id="cell_$eq$top_module.v:55$8">
    <s:alias val="$eq"/>
    <circle r="12.5" cx="12.5" cy="12.5" class="cell_$eq$top_module.v:55$8"/>
    <line x1="7.5" x2="17.5" y1="10" y2="10" class="cell_$eq$top_module.v:55$8"/>
    <line x1="7.5" x2="17.5" y1="15" y2="15" class="cell_$eq$top_module.v:55$8"/>
    <g s:x="3" s:y="5" s:pid="A"/>
    <g s:x="3" s:y="20" s:pid="B"/>
    <g s:x="25" s:y="12.5" s:pid="Y"/>
  </g>
  <g s:type="not" transform="translate(217,371)" s:width="30" s:height="20" id="cell_$eq$top_module.v:57$11">
    <s:alias val="$_NOT_"/>
    <s:alias val="$not"/>
    <s:alias val="$logic_not"/>
    <path d="M0,0 L0,20 L20,10 Z" class="cell_$eq$top_module.v:57$11"/>
    <circle cx="23" cy="10" r="3" class="cell_$eq$top_module.v:57$11"/>
    <g s:x="0" s:y="10" s:pid="A"/>
    <g s:x="25" s:y="10" s:pid="Y"/>
  </g>
  <g s:type="and" transform="translate(853,176.5)" s:width="30" s:height="25" id="cell_$logic_and$top_module.v:47$7">
    <s:alias val="$and"/>
    <s:alias val="$logic_and"/>
    <s:alias val="$_AND_"/>
    <path d="M0,0 L0,25 L15,25 A15 12.5 0 0 0 15,0 Z" class="cell_$logic_and$top_module.v:47$7"/>
    <g s:x="0" s:y="5" s:pid="A"/>
    <g s:x="0" s:y="20" s:pid="B"/>
    <g s:x="30" s:y="12.5" s:pid="Y"/>
  </g>
  <g s:type="or" transform="translate(282,391)" s:width="30" s:height="25" id="cell_$logic_or$top_module.v:55$10">
    <s:alias val="$or"/>
    <s:alias val="$logic_or"/>
    <s:alias val="$_OR_"/>
    <path d="M0,25 L0,25 L15,25 A15 12.5 0 0 0 15,0 L0,0" class="cell_$logic_or$top_module.v:55$10"/>
    <path d="M0,0 A30 25 0 0 1 0,25" class="cell_$logic_or$top_module.v:55$10"/>
    <g s:x="3" s:y="5" s:pid="A"/>
    <g s:x="3" s:y="20" s:pid="B"/>
    <g s:x="30" s:y="12.5" s:pid="Y"/>
  </g>
  <g s:type="dff" transform="translate(1033,645)" s:width="30" s:height="40" id="cell_$procdff$70">
    <s:alias val="$dff"/>
    <s:alias val="$_DFF_"/>
    <s:alias val="$_DFF_P_"/>
    <rect width="30" height="40" x="0" y="0" class="cell_$procdff$70"/>
    <path d="M0,35 L5,30 L0,25" class="cell_$procdff$70"/>
    <g s:x="30" s:y="10" s:pid="Q"/>
    <g s:x="0" s:y="30" s:pid="CLK"/>
    <g s:x="0" s:y="30" s:pid="C"/>
    <g s:x="0" s:y="10" s:pid="D"/>
  </g>
  <g s:type="dff" transform="translate(590.75,403.5)" s:width="30" s:height="40" id="cell_$procdff$71">
    <s:alias val="$dff"/>
    <s:alias val="$_DFF_"/>
    <s:alias val="$_DFF_P_"/>
    <rect width="30" height="40" x="0" y="0" class="cell_$procdff$71"/>
    <path d="M0,35 L5,30 L0,25" class="cell_$procdff$71"/>
    <g s:x="30" s:y="10" s:pid="Q"/>
    <g s:x="0" s:y="30" s:pid="CLK"/>
    <g s:x="0" s:y="30" s:pid="C"/>
    <g s:x="0" s:y="10" s:pid="D"/>
  </g>
  <g s:type="dff" transform="translate(590.75,179)" s:width="30" s:height="40" id="cell_$procdff$72">
    <s:alias val="$dff"/>
    <s:alias val="$_DFF_"/>
    <s:alias val="$_DFF_P_"/>
    <rect width="30" height="40" x="0" y="0" class="cell_$procdff$72"/>
    <path d="M0,35 L5,30 L0,25" class="cell_$procdff$72"/>
    <g s:x="30" s:y="10" s:pid="Q"/>
    <g s:x="0" s:y="30" s:pid="CLK"/>
    <g s:x="0" s:y="30" s:pid="C"/>
    <g s:x="0" s:y="10" s:pid="D"/>
  </g>
  <g s:type="mux" transform="translate(418.6666666666667,220)" s:width="20" s:height="40" id="cell_$procmux$22">
    <s:alias val="$pmux"/>
    <s:alias val="$mux"/>
    <s:alias val="$_MUX_"/>
    <path d="M0,0 L20,10 L20,30 L0,40 Z" class="cell_$procmux$22"/>
    <g s:x="0" s:y="10" s:pid="A"/>
    <g s:x="0" s:y="30" s:pid="B"/>
    <g s:x="10" s:y="35" s:pid="S"/>
    <g s:x="20" s:y="20" s:pid="Y"/>
  </g>
  <g s:type="mux" transform="translate(483,230)" s:width="20" s:height="40" id="cell_$procmux$25">
    <s:alias val="$pmux"/>
    <s:alias val="$mux"/>
    <s:alias val="$_MUX_"/>
    <path d="M0,0 L20,10 L20,30 L0,40 Z" class="cell_$procmux$25"/>
    <g s:x="0" s:y="10" s:pid="A"/>
    <g s:x="0" s:y="30" s:pid="B"/>
    <g s:x="10" s:y="35" s:pid="S"/>
    <g s:x="20" s:y="20" s:pid="Y"/>
  </g>
  <g s:type="mux" transform="translate(418.6666666666667,290)" s:width="20" s:height="40" id="cell_$procmux$27">
    <s:alias val="$pmux"/>
    <s:alias val="$mux"/>
    <s:alias val="$_MUX_"/>
    <path d="M0,0 L20,10 L20,30 L0,40 Z" class="cell_$procmux$27"/>
    <g s:x="0" s:y="10" s:pid="A"/>
    <g s:x="0" s:y="30" s:pid="B"/>
    <g s:x="10" s:y="35" s:pid="S"/>
    <g s:x="20" s:y="20" s:pid="Y"/>
  </g>
  <g s:type="mux" transform="translate(483,300)" s:width="20" s:height="40" id="cell_$procmux$30">
    <s:alias val="$pmux"/>
    <s:alias val="$mux"/>
    <s:alias val="$_MUX_"/>
    <path d="M0,0 L20,10 L20,30 L0,40 Z" class="cell_$procmux$30"/>
    <g s:x="0" s:y="10" s:pid="A"/>
    <g s:x="0" s:y="30" s:pid="B"/>
    <g s:x="10" s:y="35" s:pid="S"/>
    <g s:x="20" s:y="20" s:pid="Y"/>
  </g>
  <g s:type="mux" transform="translate(918,509)" s:width="20" s:height="40" id="cell_$procmux$32">
    <s:alias val="$pmux"/>
    <s:alias val="$mux"/>
    <s:alias val="$_MUX_"/>
    <path d="M0,0 L20,10 L20,30 L0,40 Z" class="cell_$procmux$32"/>
    <g s:x="0" s:y="10" s:pid="A"/>
    <g s:x="0" s:y="30" s:pid="B"/>
    <g s:x="10" s:y="35" s:pid="S"/>
    <g s:x="20" s:y="20" s:pid="Y"/>
  </g>
  <g s:type="mux" transform="translate(974.6666666666666,635)" s:width="20" s:height="40" id="cell_$procmux$35">
    <s:alias val="$pmux"/>
    <s:alias val="$mux"/>
    <s:alias val="$_MUX_"/>
    <path d="M0,0 L20,10 L20,30 L0,40 Z" class="cell_$procmux$35"/>
    <g s:x="0" s:y="10" s:pid="A"/>
    <g s:x="0" s:y="30" s:pid="B"/>
    <g s:x="10" s:y="35" s:pid="S"/>
    <g s:x="20" s:y="20" s:pid="Y"/>
  </g>
  <g s:type="mux" transform="translate(285.3333333333333,251)" s:width="20" s:height="40" id="cell_$procmux$39">
    <s:alias val="$pmux"/>
    <s:alias val="$mux"/>
    <s:alias val="$_MUX_"/>
    <path d="M0,0 L20,10 L20,30 L0,40 Z" class="cell_$procmux$39"/>
    <g s:x="0" s:y="10" s:pid="A"/>
    <g s:x="0" s:y="30" s:pid="B"/>
    <g s:x="10" s:y="35" s:pid="S"/>
    <g s:x="20" s:y="20" s:pid="Y"/>
  </g>
  <g s:type="mux" transform="translate(350.3333333333333,230)" s:width="20" s:height="40" id="cell_$procmux$44">
    <s:alias val="$pmux"/>
    <s:alias val="$mux"/>
    <s:alias val="$_MUX_"/>
    <path d="M0,0 L20,10 L20,30 L0,40 Z" class="cell_$procmux$44"/>
    <g s:x="0" s:y="10" s:pid="A"/>
    <g s:x="0" s:y="30" s:pid="B"/>
    <g s:x="10" s:y="35" s:pid="S"/>
    <g s:x="20" s:y="20" s:pid="Y"/>
  </g>
  <g s:type="mux" transform="translate(918,33)" s:width="20" s:height="40" id="cell_$procmux$48">
    <s:alias val="$pmux"/>
    <s:alias val="$mux"/>
    <s:alias val="$_MUX_"/>
    <path d="M0,0 L20,10 L20,30 L0,40 Z" class="cell_$procmux$48"/>
    <g s:x="0" s:y="10" s:pid="A"/>
    <g s:x="0" s:y="30" s:pid="B"/>
    <g s:x="10" s:y="35" s:pid="S"/>
    <g s:x="20" s:y="20" s:pid="Y"/>
  </g>
  <g s:type="mux" transform="translate(1033,77)" s:width="20" s:height="40" id="cell_$procmux$54">
    <s:alias val="$pmux"/>
    <s:alias val="$mux"/>
    <s:alias val="$_MUX_"/>
    <path d="M0,0 L20,10 L20,30 L0,40 Z" class="cell_$procmux$54"/>
    <g s:x="0" s:y="10" s:pid="A"/>
    <g s:x="0" s:y="30" s:pid="B"/>
    <g s:x="10" s:y="35" s:pid="S"/>
    <g s:x="20" s:y="20" s:pid="Y"/>
  </g>
  <g s:type="mux" transform="translate(974.6666666666666,12)" s:width="20" s:height="40" id="cell_$procmux$59">
    <s:alias val="$pmux"/>
    <s:alias val="$mux"/>
    <s:alias val="$_MUX_"/>
    <path d="M0,0 L20,10 L20,30 L0,40 Z" class="cell_$procmux$59"/>
    <g s:x="0" s:y="10" s:pid="A"/>
    <g s:x="0" s:y="30" s:pid="B"/>
    <g s:x="10" s:y="35" s:pid="S"/>
    <g s:x="20" s:y="20" s:pid="Y"/>
  </g>
  <g s:type="mux" transform="translate(153.66666666666666,422)" s:width="20" s:height="40" id="cell_$procmux$62">
    <s:alias val="$pmux"/>
    <s:alias val="$mux"/>
    <s:alias val="$_MUX_"/>
    <path d="M0,0 L20,10 L20,30 L0,40 Z" class="cell_$procmux$62"/>
    <g s:x="0" s:y="10" s:pid="A"/>
    <g s:x="0" s:y="30" s:pid="B"/>
    <g s:x="10" s:y="35" s:pid="S"/>
    <g s:x="20" s:y="20" s:pid="Y"/>
  </g>
  <g s:type="mux" transform="translate(856.3333333333334,519)" s:width="20" s:height="40" id="cell_$procmux$65">
    <s:alias val="$pmux"/>
    <s:alias val="$mux"/>
    <s:alias val="$_MUX_"/>
    <path d="M0,0 L20,10 L20,30 L0,40 Z" class="cell_$procmux$65"/>
    <g s:x="0" s:y="10" s:pid="A"/>
    <g s:x="0" s:y="30" s:pid="B"/>
    <g s:x="10" s:y="35" s:pid="S"/>
    <g s:x="20" s:y="20" s:pid="Y"/>
  </g>
  <g s:type="eq" transform="translate(606.3333333333334,811.5)" s:width="25" s:height="25" id="cell_$procmux$68_CMP0">
    <s:alias val="$eq"/>
    <circle r="12.5" cx="12.5" cy="12.5" class="cell_$procmux$68_CMP0"/>
    <line x1="7.5" x2="17.5" y1="10" y2="10" class="cell_$procmux$68_CMP0"/>
    <line x1="7.5" x2="17.5" y1="15" y2="15" class="cell_$procmux$68_CMP0"/>
    <g s:x="3" s:y="5" s:pid="A"/>
    <g s:x="3" s:y="20" s:pid="B"/>
    <g s:x="25" s:y="12.5" s:pid="Y"/>
  </g>
  <g s:type="not" transform="translate(632.5,871.5)" s:width="30" s:height="20" id="cell_$procmux$69_CMP0">
    <s:alias val="$_NOT_"/>
    <s:alias val="$not"/>
    <s:alias val="$logic_not"/>
    <path d="M0,0 L0,20 L20,10 Z" class="cell_$procmux$69_CMP0"/>
    <circle cx="23" cy="10" r="3" class="cell_$procmux$69_CMP0"/>
    <g s:x="0" s:y="10" s:pid="A"/>
    <g s:x="25" s:y="10" s:pid="Y"/>
  </g>
  <g s:type="inputExt" transform="translate(347,423.5)" s:width="30" s:height="20" id="cell_clk">
    <text x="15" y="-4" class="nodelabel cell_clk" s:attribute="ref">clk</text>
    <s:alias val="$_inputExt_"/>
    <path d="M0,0 L0,20 L15,20 L30,10 L15,0 Z" class="cell_clk"/>
    <g s:x="28" s:y="10" s:pid="Y"/>
  </g>
  <g s:type="inputExt" transform="translate(412,391)" s:width="30" s:height="20" id="cell_reset">
    <text x="15" y="-4" class="nodelabel cell_reset" s:attribute="ref">reset</text>
    <s:alias val="$_inputExt_"/>
    <path d="M0,0 L0,20 L15,20 L30,10 L15,0 Z" class="cell_reset"/>
    <g s:x="28" s:y="10" s:pid="Y"/>
  </g>
  <g s:type="inputExt" transform="translate(412,816.5)" s:width="30" s:height="20" id="cell_s">
    <text x="15" y="-4" class="nodelabel cell_s" s:attribute="ref">s</text>
    <s:alias val="$_inputExt_"/>
    <path d="M0,0 L0,20 L15,20 L30,10 L15,0 Z" class="cell_s"/>
    <g s:x="28" s:y="10" s:pid="Y"/>
  </g>
  <g s:type="inputExt" transform="translate(147,210)" s:width="30" s:height="20" id="cell_w">
    <text x="15" y="-4" class="nodelabel cell_w" s:attribute="ref">w</text>
    <s:alias val="$_inputExt_"/>
    <path d="M0,0 L0,20 L15,20 L30,10 L15,0 Z" class="cell_w"/>
    <g s:x="28" s:y="10" s:pid="Y"/>
  </g>
  <g s:type="outputExt" transform="translate(1033,22)" s:width="30" s:height="20" id="cell_z">
    <text x="15" y="-4" class="nodelabel cell_z" s:attribute="ref">z</text>
    <s:alias val="$_outputExt_"/>
    <path d="M30,0 L30,20 L15,20 L0,10 L15,0 Z" class="cell_z"/>
    <g s:x="0" s:y="10" s:pid="A"/>
  </g>
  <g s:type="constant" transform="translate(147,381)" s:width="30" s:height="20" id="cell_1">
    <text x="15" y="-4" class="nodelabel cell_1" s:attribute="ref">1</text>
    <s:alias val="$_constant_"/>
    <rect width="30" height="20" class="cell_1"/>
    <g s:x="30" s:y="10" s:pid="Y"/>
  </g>
  <g s:type="constant" transform="translate(12,350)" s:width="30" s:height="20" id="cell_10">
    <text x="15" y="-4" class="nodelabel cell_10" s:attribute="ref">10</text>
    <s:alias val="$_constant_"/>
    <rect width="30" height="20" class="cell_10"/>
    <g s:x="30" s:y="10" s:pid="Y"/>
  </g>
  <g s:type="constant" transform="translate(77,422)" s:width="30" s:height="20" id="cell_00">
    <text x="15" y="-4" class="nodelabel cell_00" s:attribute="ref">00</text>
    <s:alias val="$_constant_"/>
    <rect width="30" height="20" class="cell_00"/>
    <g s:x="30" s:y="10" s:pid="Y"/>
  </g>
  <g s:type="constant" transform="translate(147,128)" s:width="30" s:height="20" id="cell_0">
    <text x="15" y="-4" class="nodelabel cell_0" s:attribute="ref">0</text>
    <s:alias val="$_constant_"/>
    <rect width="30" height="20" class="cell_0"/>
    <g s:x="30" s:y="10" s:pid="Y"/>
  </g>
  <g s:type="constant" transform="translate(788,519)" s:width="30" s:height="20" id="cell_11">
    <text x="15" y="-4" class="nodelabel cell_11" s:attribute="ref">11</text>
    <s:alias val="$_constant_"/>
    <rect width="30" height="20" class="cell_11"/>
    <g s:x="30" s:y="10" s:pid="Y"/>
  </g>
  <g s:type="constant" transform="translate(788,584)" s:width="30" s:height="20" id="cell_000110">
    <text x="15" y="-4" class="nodelabel cell_000110" s:attribute="ref">0x6</text>
    <s:alias val="$_constant_"/>
    <rect width="30" height="20" class="cell_000110"/>
    <g s:x="30" s:y="10" s:pid="Y"/>
  </g>
  <g s:type="constant" transform="translate(477,881)" s:width="30" s:height="20" id="cell_100">
    <text x="15" y="-4" class="nodelabel cell_100" s:attribute="ref">100</text>
    <s:alias val="$_constant_"/>
    <rect width="30" height="20" class="cell_100"/>
    <g s:x="30" s:y="10" s:pid="Y"/>
  </g>
  <g s:type="join" transform="translate(492,719)" s:width="4" s:height="40" id="cell_$join$,15,16,">
    <rect width="5" height="40" class="splitjoinBody" s:generic="body"/>
    <s:alias val="$_join_"/>
    <g s:x="5" s:y="20" s:pid="out"/>
    <g transform="translate(0,10)" s:x="0" s:y="10" s:pid="in0">
      <text x="-3" y="-4" class="inputPortLabel">0</text>
    </g>
    <g transform="translate(0,30)" s:x="0" s:y="10" s:pid="in0">
      <text x="-3" y="-4" class="inputPortLabel">1</text>
    </g>
  </g>
  <g s:type="join" transform="translate(228,260.5)" s:width="4" s:height="40" id="cell_$join$,5,60,">
    <rect width="5" height="40" class="splitjoinBody" s:generic="body"/>
    <s:alias val="$_join_"/>
    <g s:x="5" s:y="20" s:pid="out"/>
    <g transform="translate(0,10)" s:x="0" s:y="10" s:pid="in0">
      <text x="-3" y="-4" class="inputPortLabel">0</text>
    </g>
    <g transform="translate(0,30)" s:x="0" s:y="10" s:pid="in0">
      <text x="-3" y="-4" class="inputPortLabel">1</text>
    </g>
  </g>
  <g s:type="join" transform="translate(798,793.5)" s:width="4" s:height="40" id="cell_$join$,17,48,49,">
    <rect width="5" height="60" class="splitjoinBody" s:generic="body"/>
    <s:alias val="$_join_"/>
    <g s:x="5" s:y="20" s:pid="out"/>
    <g transform="translate(0,10)" s:x="0" s:y="10" s:pid="in0">
      <text x="-3" y="-4" class="inputPortLabel">0</text>
    </g>
    <g transform="translate(0,30)" s:x="0" s:y="10" s:pid="in0">
      <text x="-3" y="-4" class="inputPortLabel">1</text>
    </g>
    <g transform="translate(0,50)" s:x="0" s:y="10" s:pid="in0">
      <text x="-3" y="-4" class="inputPortLabel">2</text>
    </g>
  </g>
  <g s:type="join" transform="translate(496,796)" s:width="4" s:height="40" id="cell_$join$,18,19,4,">
    <rect width="5" height="40" class="splitjoinBody" s:generic="body"/>
    <s:alias val="$_join_"/>
    <g s:x="5" s:y="20" s:pid="out"/>
    <g transform="translate(0,10)" s:x="0" s:y="10" s:pid="in0">
      <text x="-3" y="-4" class="inputPortLabel">0:1</text>
    </g>
    <g transform="translate(0,30)" s:x="0" s:y="10" s:pid="in0">
      <text x="-3" y="-4" class="inputPortLabel">2</text>
    </g>
  </g>
  <line x1="620.75" x2="976" y1="413.5" y2="413.5" class="net_7,8"/>
  <line x1="620.75" x2="763" y1="413.5" y2="413.5" class="net_7,8"/>
  <line x1="763" x2="763" y1="413.5" y2="457" class="net_7,8"/>
  <line x1="763" x2="795" y1="457" y2="457" class="net_7,8"/>
  <line x1="620.75" x2="763" y1="413.5" y2="413.5" class="net_7,8"/>
  <line x1="763" x2="763" y1="413.5" y2="371" class="net_7,8"/>
  <line x1="763" x2="397" y1="371" y2="371" class="net_7,8"/>
  <line x1="397" x2="397" y1="371" y2="300" class="net_7,8"/>
  <circle cx="763" cy="413.5" r="2" style="fill:#000" class="net_7,8"/>
  <line x1="397" x2="418.6666666666667" y1="300" y2="300" class="net_7,8"/>
  <line x1="620.75" x2="763" y1="413.5" y2="413.5" class="net_7,8"/>
  <line x1="763" x2="763" y1="413.5" y2="371" class="net_7,8"/>
  <line x1="763" x2="462" y1="371" y2="371" class="net_7,8"/>
  <line x1="462" x2="462" y1="371" y2="330" class="net_7,8"/>
  <circle cx="462" cy="371" r="2" style="fill:#000" class="net_7,8"/>
  <line x1="462" x2="483" y1="330" y2="330" class="net_7,8"/>
  <line x1="177" x2="197" y1="391" y2="391" class="net_50"/>
  <line x1="197" x2="197" y1="391" y2="487" class="net_50"/>
  <line x1="197" x2="948" y1="487" y2="487" class="net_50"/>
  <line x1="948" x2="948" y1="487" y2="428.5" class="net_50"/>
  <circle cx="197" cy="391" r="2" style="fill:#000" class="net_50"/>
  <circle cx="197" cy="487" r="2" style="fill:#000" class="net_50"/>
  <line x1="948" x2="976" y1="428.5" y2="428.5" class="net_50"/>
  <line x1="177" x2="197" y1="391" y2="391" class="net_50"/>
  <line x1="197" x2="197" y1="391" y2="760.5" class="net_50"/>
  <line x1="197" x2="222.66666666666666" y1="760.5" y2="760.5" class="net_50"/>
  <line x1="177" x2="197" y1="391" y2="391" class="net_50"/>
  <line x1="197" x2="197" y1="391" y2="63" class="net_50"/>
  <line x1="197" x2="918" y1="63" y2="63" class="net_50"/>
  <line x1="620.75" x2="763" y1="189" y2="189" class="net_11,12"/>
  <line x1="763" x2="763" y1="189" y2="169" class="net_11,12"/>
  <line x1="763" x2="207" y1="169" y2="169" class="net_11,12"/>
  <line x1="207" x2="207" y1="169" y2="205" class="net_11,12"/>
  <circle cx="763" cy="189" r="2" style="fill:#000" class="net_11,12"/>
  <line x1="207" x2="222.66666666666666" y1="205" y2="205" class="net_11,12"/>
  <line x1="620.75" x2="795" y1="189" y2="189" class="net_11,12"/>
  <line x1="620.75" x2="763" y1="189" y2="189" class="net_11,12"/>
  <line x1="763" x2="763" y1="189" y2="169" class="net_11,12"/>
  <line x1="763" x2="397" y1="169" y2="169" class="net_11,12"/>
  <line x1="397" x2="397" y1="169" y2="230" class="net_11,12"/>
  <circle cx="397" cy="169" r="2" style="fill:#000" class="net_11,12"/>
  <line x1="397" x2="418.6666666666667" y1="230" y2="230" class="net_11,12"/>
  <line x1="620.75" x2="763" y1="189" y2="189" class="net_11,12"/>
  <line x1="763" x2="763" y1="189" y2="280" class="net_11,12"/>
  <line x1="763" x2="462" y1="280" y2="280" class="net_11,12"/>
  <line x1="462" x2="462" y1="280" y2="260" class="net_11,12"/>
  <line x1="462" x2="483" y1="260" y2="260" class="net_11,12"/>
  <line x1="175" x2="222.66666666666666" y1="220" y2="220" class="net_5"/>
  <line x1="175" x2="207" y1="220" y2="220" class="net_5"/>
  <line x1="207" x2="207" y1="220" y2="271" class="net_5"/>
  <circle cx="207" cy="220" r="2" style="fill:#000" class="net_5"/>
  <line x1="207" x2="228" y1="271" y2="271" class="net_5"/>
  <line x1="498" x2="549" y1="739.5" y2="739.5" class="net_15,16"/>
  <line x1="1063" x2="1073" y1="655" y2="655" class="net_18,19"/>
  <line x1="1073" x2="1073" y1="655" y2="922" class="net_18,19"/>
  <line x1="1073" x2="52" y1="922" y2="922" class="net_18,19"/>
  <line x1="52" x2="52" y1="922" y2="668.5" class="net_18,19"/>
  <line x1="52" x2="83.33333333333333" y1="668.5" y2="668.5" class="net_18,19"/>
  <line x1="1063" x2="1073" y1="655" y2="655" class="net_18,19"/>
  <line x1="1073" x2="1073" y1="655" y2="922" class="net_18,19"/>
  <line x1="1073" x2="207" y1="922" y2="922" class="net_18,19"/>
  <line x1="207" x2="207" y1="922" y2="745.5" class="net_18,19"/>
  <circle cx="207" cy="922" r="2" style="fill:#000" class="net_18,19"/>
  <line x1="207" x2="222.66666666666666" y1="745.5" y2="745.5" class="net_18,19"/>
  <line x1="1063" x2="1073" y1="655" y2="655" class="net_18,19"/>
  <line x1="1073" x2="1073" y1="655" y2="624" class="net_18,19"/>
  <line x1="1073" x2="893" y1="624" y2="624" class="net_18,19"/>
  <line x1="893" x2="893" y1="624" y2="519" class="net_18,19"/>
  <circle cx="1073" cy="655" r="2" style="fill:#000" class="net_18,19"/>
  <line x1="893" x2="918" y1="519" y2="519" class="net_18,19"/>
  <line x1="1063" x2="1073" y1="655" y2="655" class="net_18,19"/>
  <line x1="1073" x2="1073" y1="655" y2="707" class="net_18,19"/>
  <line x1="1073" x2="452" y1="707" y2="707" class="net_18,19"/>
  <line x1="452" x2="452" y1="707" y2="806.5" class="net_18,19"/>
  <circle cx="1073" cy="707" r="2" style="fill:#000" class="net_18,19"/>
  <line x1="452" x2="496" y1="806.5" y2="806.5" class="net_18,19"/>
  <line x1="42" x2="62" y1="360" y2="360" class="net_51,52"/>
  <line x1="62" x2="62" y1="360" y2="683.5" class="net_51,52"/>
  <circle cx="62" cy="360" r="2" style="fill:#000" class="net_51,52"/>
  <line x1="62" x2="83.33333333333333" y1="683.5" y2="683.5" class="net_51,52"/>
  <line x1="42" x2="62" y1="360" y2="360" class="net_51,52"/>
  <line x1="62" x2="62" y1="360" y2="472" class="net_51,52"/>
  <circle cx="62" cy="472" r="2" style="fill:#000" class="net_51,52"/>
  <line x1="62" x2="795" y1="472" y2="472" class="net_51,52"/>
  <line x1="42" x2="773" y1="360" y2="360" class="net_51,52"/>
  <line x1="773" x2="773" y1="360" y2="204" class="net_51,52"/>
  <line x1="773" x2="795" y1="204" y2="204" class="net_51,52"/>
  <line x1="173.66666666666666" x2="207" y1="442" y2="442" class="net_22,23"/>
  <line x1="207" x2="207" y1="442" y2="381" class="net_22,23"/>
  <circle cx="207" cy="381" r="2" style="fill:#000" class="net_22,23"/>
  <line x1="207" x2="217" y1="381" y2="381" class="net_22,23"/>
  <line x1="173.66666666666666" x2="207" y1="442" y2="442" class="net_22,23"/>
  <line x1="207" x2="207" y1="442" y2="320" class="net_22,23"/>
  <line x1="207" x2="418.6666666666667" y1="320" y2="320" class="net_22,23"/>
  <line x1="817" x2="828" y1="464.5" y2="464.5" class="net_20"/>
  <line x1="828" x2="828" y1="464.5" y2="181.5" class="net_20"/>
  <circle cx="828" cy="464.5" r="2" style="fill:#000" class="net_20"/>
  <line x1="828" x2="853" y1="181.5" y2="181.5" class="net_20"/>
  <line x1="817" x2="828" y1="464.5" y2="464.5" class="net_20"/>
  <line x1="828" x2="828" y1="464.5" y2="498" class="net_20"/>
  <line x1="828" x2="1043" y1="498" y2="498" class="net_20"/>
  <line x1="1043" x2="1043" y1="498" y2="112" class="net_20"/>
  <line x1="817" x2="853" y1="196.5" y2="196.5" class="net_21"/>
  <line x1="244.66666666666666" x2="257" y1="753" y2="753" class="net_16"/>
  <line x1="257" x2="257" y1="753" y2="396" class="net_16"/>
  <circle cx="257" cy="753" r="2" style="fill:#000" class="net_16"/>
  <line x1="257" x2="285" y1="396" y2="396" class="net_16"/>
  <line x1="244.66666666666666" x2="462" y1="753" y2="753" class="net_16"/>
  <line x1="462" x2="462" y1="753" y2="749.5" class="net_16"/>
  <line x1="462" x2="492" y1="749.5" y2="749.5" class="net_16"/>
  <line x1="105.33333333333333" x2="127" y1="676" y2="676" class="net_15"/>
  <line x1="127" x2="127" y1="676" y2="411" class="net_15"/>
  <circle cx="127" cy="676" r="2" style="fill:#000" class="net_15"/>
  <circle cx="127" cy="411" r="2" style="fill:#000" class="net_15"/>
  <line x1="127" x2="285" y1="411" y2="411" class="net_15"/>
  <line x1="105.33333333333333" x2="127" y1="676" y2="676" class="net_15"/>
  <line x1="127" x2="127" y1="676" y2="158" class="net_15"/>
  <line x1="127" x2="984.6666666666666" y1="158" y2="158" class="net_15"/>
  <line x1="984.6666666666666" x2="984.6666666666666" y1="158" y2="47" class="net_15"/>
  <line x1="105.33333333333333" x2="163.66666666666666" y1="676" y2="676" class="net_15"/>
  <line x1="163.66666666666666" x2="163.66666666666666" y1="676" y2="457" class="net_15"/>
  <line x1="105.33333333333333" x2="127" y1="676" y2="676" class="net_15"/>
  <line x1="127" x2="127" y1="676" y2="729.5" class="net_15"/>
  <line x1="127" x2="492" y1="729.5" y2="729.5" class="net_15"/>
  <line x1="375" x2="387" y1="433.5" y2="433.5" class="net_2"/>
  <line x1="387" x2="387" y1="433.5" y2="696" class="net_2"/>
  <line x1="387" x2="1008" y1="696" y2="696" class="net_2"/>
  <line x1="1008" x2="1008" y1="696" y2="675" class="net_2"/>
  <circle cx="387" cy="433.5" r="2" style="fill:#000" class="net_2"/>
  <line x1="1008" x2="1033" y1="675" y2="675" class="net_2"/>
  <line x1="375" x2="590.75" y1="433.5" y2="433.5" class="net_2"/>
  <line x1="375" x2="387" y1="433.5" y2="433.5" class="net_2"/>
  <line x1="387" x2="387" y1="433.5" y2="209" class="net_2"/>
  <line x1="387" x2="590.75" y1="209" y2="209" class="net_2"/>
  <line x1="375" x2="387" y1="433.5" y2="433.5" class="net_2"/>
  <line x1="387" x2="387" y1="433.5" y2="280" class="net_2"/>
  <line x1="387" x2="428.6666666666667" y1="280" y2="280" class="net_2"/>
  <circle cx="387" cy="280" r="2" style="fill:#000" class="net_2"/>
  <line x1="428.6666666666667" x2="428.6666666666667" y1="280" y2="255" class="net_2"/>
  <line x1="375" x2="387" y1="433.5" y2="433.5" class="net_2"/>
  <line x1="387" x2="387" y1="433.5" y2="350" class="net_2"/>
  <line x1="387" x2="428.6666666666667" y1="350" y2="350" class="net_2"/>
  <circle cx="387" cy="350" r="2" style="fill:#000" class="net_2"/>
  <line x1="428.6666666666667" x2="428.6666666666667" y1="350" y2="325" class="net_2"/>
  <line x1="375" x2="387" y1="433.5" y2="433.5" class="net_2"/>
  <line x1="387" x2="387" y1="433.5" y2="614" class="net_2"/>
  <line x1="387" x2="928" y1="614" y2="614" class="net_2"/>
  <circle cx="387" cy="614" r="2" style="fill:#000" class="net_2"/>
  <line x1="928" x2="928" y1="614" y2="544" class="net_2"/>
  <line x1="994.6666666666666" x2="1033" y1="655" y2="655" class="net_27,28"/>
  <line x1="503" x2="517" y1="320" y2="320" class="net_29,30"/>
  <line x1="517" x2="517" y1="320" y2="413.5" class="net_29,30"/>
  <line x1="517" x2="590.75" y1="413.5" y2="413.5" class="net_29,30"/>
  <line x1="503" x2="517" y1="250" y2="250" class="net_31,32"/>
  <line x1="517" x2="517" y1="250" y2="189" class="net_31,32"/>
  <line x1="517" x2="590.75" y1="189" y2="189" class="net_31,32"/>
  <line x1="370.3333333333333" x2="418.6666666666667" y1="250" y2="250" class="net_33,34"/>
  <line x1="438.6666666666667" x2="483" y1="240" y2="240" class="net_35,36"/>
  <line x1="440" x2="452" y1="401" y2="401" class="net_3"/>
  <line x1="452" x2="452" y1="401" y2="290" class="net_3"/>
  <line x1="452" x2="493" y1="290" y2="290" class="net_3"/>
  <circle cx="452" cy="401" r="2" style="fill:#000" class="net_3"/>
  <line x1="493" x2="493" y1="290" y2="265" class="net_3"/>
  <line x1="440" x2="452" y1="401" y2="401" class="net_3"/>
  <line x1="452" x2="452" y1="401" y2="350" class="net_3"/>
  <line x1="452" x2="493" y1="350" y2="350" class="net_3"/>
  <circle cx="452" cy="350" r="2" style="fill:#000" class="net_3"/>
  <line x1="493" x2="493" y1="350" y2="335" class="net_3"/>
  <line x1="440" x2="452" y1="401" y2="401" class="net_3"/>
  <line x1="452" x2="452" y1="401" y2="685" class="net_3"/>
  <line x1="452" x2="984.6666666666666" y1="685" y2="685" class="net_3"/>
  <line x1="984.6666666666666" x2="984.6666666666666" y1="685" y2="670" class="net_3"/>
  <line x1="438.6666666666667" x2="483" y1="310" y2="310" class="net_37,38"/>
  <line x1="876.3333333333334" x2="918" y1="539" y2="539" class="net_39,40"/>
  <line x1="938" x2="948" y1="529" y2="529" class="net_41,42"/>
  <line x1="948" x2="948" y1="529" y2="645" class="net_41,42"/>
  <line x1="948" x2="974.6666666666666" y1="645" y2="645" class="net_41,42"/>
  <line x1="107" x2="137" y1="432" y2="432" class="net_58,59"/>
  <line x1="137" x2="137" y1="432" y2="665" class="net_58,59"/>
  <circle cx="137" cy="432" r="2" style="fill:#000" class="net_58,59"/>
  <line x1="137" x2="974.6666666666666" y1="665" y2="665" class="net_58,59"/>
  <line x1="107" x2="137" y1="432" y2="432" class="net_58,59"/>
  <line x1="137" x2="137" y1="432" y2="240" class="net_58,59"/>
  <circle cx="137" cy="240" r="2" style="fill:#000" class="net_58,59"/>
  <line x1="137" x2="350.3333333333333" y1="240" y2="240" class="net_58,59"/>
  <line x1="107" x2="137" y1="432" y2="432" class="net_58,59"/>
  <line x1="137" x2="137" y1="432" y2="107" class="net_58,59"/>
  <line x1="137" x2="1033" y1="107" y2="107" class="net_58,59"/>
  <line x1="107" x2="153.66666666666666" y1="432" y2="432" class="net_58,59"/>
  <line x1="244.66666666666666" x2="257" y1="212.5" y2="212.5" class="net_13,14"/>
  <line x1="257" x2="257" y1="212.5" y2="261" class="net_13,14"/>
  <line x1="257" x2="285.3333333333333" y1="261" y2="261" class="net_13,14"/>
  <line x1="234" x2="285.3333333333333" y1="281" y2="281" class="net_5,60"/>
  <line x1="242" x2="295.3333333333333" y1="381" y2="381" class="net_24"/>
  <line x1="295.3333333333333" x2="295.3333333333333" y1="381" y2="286" class="net_24"/>
  <line x1="305.3333333333333" x2="322" y1="271" y2="271" class="net_43,44"/>
  <line x1="322" x2="322" y1="271" y2="260" class="net_43,44"/>
  <line x1="322" x2="350.3333333333333" y1="260" y2="260" class="net_43,44"/>
  <line x1="312" x2="360.3333333333333" y1="403.5" y2="403.5" class="net_26"/>
  <line x1="360.3333333333333" x2="360.3333333333333" y1="403.5" y2="265" class="net_26"/>
  <line x1="177" x2="187" y1="138" y2="138" class="net_60"/>
  <line x1="187" x2="187" y1="138" y2="22" class="net_60"/>
  <line x1="187" x2="893" y1="22" y2="22" class="net_60"/>
  <line x1="893" x2="893" y1="22" y2="43" class="net_60"/>
  <circle cx="187" cy="138" r="2" style="fill:#000" class="net_60"/>
  <circle cx="893" cy="22" r="2" style="fill:#000" class="net_60"/>
  <line x1="893" x2="918" y1="43" y2="43" class="net_60"/>
  <line x1="177" x2="187" y1="138" y2="138" class="net_60"/>
  <line x1="187" x2="187" y1="138" y2="22" class="net_60"/>
  <line x1="187" x2="974.6666666666666" y1="22" y2="22" class="net_60"/>
  <line x1="177" x2="187" y1="138" y2="138" class="net_60"/>
  <line x1="187" x2="187" y1="138" y2="291" class="net_60"/>
  <line x1="187" x2="228" y1="291" y2="291" class="net_60"/>
  <line x1="883" x2="928" y1="189" y2="189" class="net_25"/>
  <line x1="928" x2="928" y1="189" y2="68" class="net_25"/>
  <line x1="998" x2="1008" y1="421" y2="421" class="net_9,10"/>
  <line x1="1008" x2="1008" y1="421" y2="87" class="net_9,10"/>
  <line x1="1008" x2="1033" y1="87" y2="87" class="net_9,10"/>
  <line x1="938" x2="948" y1="53" y2="53" class="net_45"/>
  <line x1="948" x2="948" y1="53" y2="42" class="net_45"/>
  <line x1="948" x2="974.6666666666666" y1="42" y2="42" class="net_45"/>
  <line x1="1053" x2="1083" y1="97" y2="97" class="net_46,47"/>
  <line x1="1083" x2="1083" y1="97" y2="911" class="net_46,47"/>
  <line x1="1083" x2="117" y1="911" y2="911" class="net_46,47"/>
  <line x1="117" x2="117" y1="911" y2="452" class="net_46,47"/>
  <line x1="117" x2="153.66666666666666" y1="452" y2="452" class="net_46,47"/>
  <line x1="818" x2="856.3333333333334" y1="529" y2="529" class="net_70,71"/>
  <line x1="818" x2="828" y1="594" y2="594" class="net_72,73,74,75,76,77"/>
  <line x1="828" x2="828" y1="594" y2="549" class="net_72,73,74,75,76,77"/>
  <line x1="828" x2="856.3333333333334" y1="549" y2="549" class="net_72,73,74,75,76,77"/>
  <line x1="804" x2="866.3333333333334" y1="814" y2="814" class="net_17,48,49"/>
  <line x1="866.3333333333334" x2="866.3333333333334" y1="814" y2="554" class="net_17,48,49"/>
  <line x1="502" x2="609.3333333333334" y1="816.5" y2="816.5" class="net_18,19,4"/>
  <line x1="502" x2="527" y1="816.5" y2="816.5" class="net_18,19,4"/>
  <line x1="527" x2="527" y1="816.5" y2="881.5" class="net_18,19,4"/>
  <circle cx="527" cy="816.5" r="2" style="fill:#000" class="net_18,19,4"/>
  <line x1="527" x2="632.5" y1="881.5" y2="881.5" class="net_18,19,4"/>
  <line x1="507" x2="517" y1="891" y2="891" class="net_78,79,80"/>
  <line x1="517" x2="517" y1="891" y2="831.5" class="net_78,79,80"/>
  <line x1="517" x2="609.3333333333334" y1="831.5" y2="831.5" class="net_78,79,80"/>
  <line x1="994.6666666666666" x2="1033" y1="32" y2="32" class="net_6"/>
  <line x1="580" x2="763" y1="739.5" y2="739.5" class="net_17"/>
  <line x1="763" x2="763" y1="739.5" y2="804" class="net_17"/>
  <line x1="763" x2="798" y1="804" y2="804" class="net_17"/>
  <line x1="631.3333333333334" x2="798" y1="824" y2="824" class="net_48"/>
  <line x1="657.5" x2="763" y1="881.5" y2="881.5" class="net_49"/>
  <line x1="763" x2="763" y1="881.5" y2="844" class="net_49"/>
  <line x1="763" x2="798" y1="844" y2="844" class="net_49"/>
  <line x1="440" x2="496" y1="826.5" y2="826.5" class="net_4"/>
</svg>
