<?xml version="1.0" encoding="UTF-8" standalone="no"?>
<!DOCTYPE svg PUBLIC "-//W3C//DTD SVG 1.1//EN"
 "http://www.w3.org/Graphics/SVG/1.1/DTD/svg11.dtd">
<!-- Generated by graphviz version 3.0.0 (20220226.1711)
 -->
<!-- Title: root Pages: 1 -->
<svg width="534pt" height="611pt"
 viewBox="0.00 0.00 534.03 610.50" xmlns="http://www.w3.org/2000/svg" xmlns:xlink="http://www.w3.org/1999/xlink">
<g id="graph0" class="graph" transform="scale(1 1) rotate(0) translate(4 606.5)">
<title>root</title>
<polygon fill="white" stroke="transparent" points="-4,4 -4,-606.5 530.03,-606.5 530.03,4 -4,4"/>
<!-- n5 -->
<g id="node1" class="node">
<title>n5</title>
<polygon fill="none" stroke="black" points="54,-10.54 54,-25.46 38.18,-36 15.82,-36 0,-25.46 0,-10.54 15.82,0 38.18,0 54,-10.54"/>
<text text-anchor="middle" x="27" y="-14.3" font-family="Times New Roman,serif" font-size="14.00">cin</text>
</g>
<!-- c11 -->
<g id="node6" class="node">
<title>c11</title>
<polygon fill="none" stroke="black" points="224.5,-28 224.5,-74 320.5,-74 320.5,-28 224.5,-28"/>
<text text-anchor="middle" x="237.5" y="-58.8" font-family="Times New Roman,serif" font-size="14.00">A</text>
<polyline fill="none" stroke="black" points="224.5,-51 250.5,-51 "/>
<text text-anchor="middle" x="237.5" y="-35.8" font-family="Times New Roman,serif" font-size="14.00">B</text>
<polyline fill="none" stroke="black" points="250.5,-28 250.5,-74 "/>
<text text-anchor="middle" x="272.5" y="-54.8" font-family="Times New Roman,serif" font-size="14.00">$2</text>
<text text-anchor="middle" x="272.5" y="-39.8" font-family="Times New Roman,serif" font-size="14.00">$add</text>
<polyline fill="none" stroke="black" points="294.5,-28 294.5,-74 "/>
<text text-anchor="middle" x="307.5" y="-47.3" font-family="Times New Roman,serif" font-size="14.00">Y</text>
</g>
<!-- n5&#45;&gt;c11 -->
<g id="edge1" class="edge">
<title>n5:e&#45;&gt;c11:w</title>
<path fill="none" stroke="black" d="M54,-18C126.35,-18 145.81,-37.08 213.2,-38.87"/>
<polygon fill="black" stroke="black" points="213.46,-42.37 223.5,-39 213.55,-35.37 213.46,-42.37"/>
</g>
<!-- n6 -->
<g id="node2" class="node">
<title>n6</title>
<polygon fill="none" stroke="black" points="54,-64.54 54,-79.46 38.18,-90 15.82,-90 0,-79.46 0,-64.54 15.82,-54 38.18,-54 54,-64.54"/>
<text text-anchor="middle" x="27" y="-68.3" font-family="Times New Roman,serif" font-size="14.00">b</text>
</g>
<!-- c12 -->
<g id="node7" class="node">
<title>c12</title>
<polygon fill="none" stroke="black" points="90,-61 90,-107 186,-107 186,-61 90,-61"/>
<text text-anchor="middle" x="103" y="-91.8" font-family="Times New Roman,serif" font-size="14.00">A</text>
<polyline fill="none" stroke="black" points="90,-84 116,-84 "/>
<text text-anchor="middle" x="103" y="-68.8" font-family="Times New Roman,serif" font-size="14.00">B</text>
<polyline fill="none" stroke="black" points="116,-61 116,-107 "/>
<text text-anchor="middle" x="138" y="-87.8" font-family="Times New Roman,serif" font-size="14.00">$1</text>
<text text-anchor="middle" x="138" y="-72.8" font-family="Times New Roman,serif" font-size="14.00">$add</text>
<polyline fill="none" stroke="black" points="160,-61 160,-107 "/>
<text text-anchor="middle" x="173" y="-80.3" font-family="Times New Roman,serif" font-size="14.00">Y</text>
</g>
<!-- n6&#45;&gt;c12 -->
<g id="edge2" class="edge">
<title>n6:e&#45;&gt;c12:w</title>
<path fill="none" stroke="black" d="M54,-72C66,-72 71.25,-72 79.87,-72"/>
<polygon fill="black" stroke="black" points="80,-75.5 90,-72 80,-68.5 80,-75.5"/>
</g>
<!-- n7 -->
<g id="node3" class="node">
<title>n7</title>
<polygon fill="none" stroke="black" points="54,-118.54 54,-133.46 38.18,-144 15.82,-144 0,-133.46 0,-118.54 15.82,-108 38.18,-108 54,-118.54"/>
<text text-anchor="middle" x="27" y="-122.3" font-family="Times New Roman,serif" font-size="14.00">a</text>
</g>
<!-- n7&#45;&gt;c12 -->
<g id="edge3" class="edge">
<title>n7:e&#45;&gt;c12:w</title>
<path fill="none" stroke="black" d="M54,-126C70.76,-126 70.37,-106.57 80.43,-98.99"/>
<polygon fill="black" stroke="black" points="81.5,-102.32 90,-96 79.41,-95.64 81.5,-102.32"/>
</g>
<!-- n3 -->
<g id="node4" class="node">
<title>n3</title>
<polygon fill="none" stroke="black" points="514.53,-70.54 514.53,-85.46 497.73,-96 473.96,-96 457.16,-85.46 457.16,-70.54 473.96,-60 497.73,-60 514.53,-70.54"/>
<text text-anchor="middle" x="485.84" y="-74.3" font-family="Times New Roman,serif" font-size="14.00">cout</text>
</g>
<!-- n4 -->
<g id="node5" class="node">
<title>n4</title>
<polygon fill="none" stroke="black" points="514.12,-16.54 514.12,-31.46 497.56,-42 474.13,-42 457.56,-31.46 457.56,-16.54 474.13,-6 497.56,-6 514.12,-16.54"/>
<text text-anchor="middle" x="485.84" y="-20.3" font-family="Times New Roman,serif" font-size="14.00">sum</text>
</g>
<!-- x0 -->
<g id="node8" class="node">
<title>x0</title>
<path fill="none" stroke="black" d="M371,-28C371,-28 409,-28 409,-28 415,-28 421,-34 421,-40 421,-40 421,-62 421,-62 421,-68 415,-74 409,-74 409,-74 371,-74 371,-74 365,-74 359,-68 359,-62 359,-62 359,-40 359,-40 359,-34 365,-28 371,-28"/>
<text text-anchor="middle" x="390" y="-58.8" font-family="Times New Roman,serif" font-size="14.00">1:1 &#45; 0:0</text>
<polyline fill="none" stroke="black" points="359,-51 421,-51 "/>
<text text-anchor="middle" x="390" y="-35.8" font-family="Times New Roman,serif" font-size="14.00">0:0 &#45; 0:0</text>
</g>
<!-- c11&#45;&gt;x0 -->
<g id="edge4" class="edge">
<title>c11:e&#45;&gt;x0:w</title>
<path fill="none" stroke="black" stroke-width="3" d="M321.5,-51C334.13,-51 339.58,-51 348.74,-51"/>
<polygon fill="black" stroke="black" stroke-width="3" points="349,-54.5 359,-51 349,-47.5 349,-54.5"/>
</g>
<!-- c12&#45;&gt;c11 -->
<g id="edge5" class="edge">
<title>c12:e&#45;&gt;c11:w</title>
<path fill="none" stroke="black" stroke-width="3" d="M186,-84C201.07,-84 203.81,-70.92 213.68,-65.41"/>
<polygon fill="black" stroke="black" stroke-width="3" points="214.62,-68.78 223.5,-63 212.95,-61.98 214.62,-68.78"/>
</g>
<!-- x0&#45;&gt;n3 -->
<g id="edge6" class="edge">
<title>x0:e&#45;&gt;n3:w</title>
<path fill="none" stroke="black" d="M421,-63C434.27,-63 438.16,-71.79 447.04,-75.91"/>
<polygon fill="black" stroke="black" points="446.49,-79.38 457,-78 447.93,-72.53 446.49,-79.38"/>
</g>
<!-- x0&#45;&gt;n4 -->
<g id="edge7" class="edge">
<title>x0:e&#45;&gt;n4:w</title>
<path fill="none" stroke="black" d="M421,-39C434.27,-39 438.16,-30.21 447.04,-26.09"/>
<polygon fill="black" stroke="black" points="447.93,-29.47 457,-24 446.49,-22.62 447.93,-29.47"/>
</g>
<!-- n4_gv1 -->
<g id="node9" class="node">
<title>n4_gv1</title>
<polygon fill="none" stroke="black" points="54,-274.54 54,-289.46 38.18,-300 15.82,-300 0,-289.46 0,-274.54 15.82,-264 38.18,-264 54,-274.54"/>
<text text-anchor="middle" x="27" y="-278.3" font-family="Times New Roman,serif" font-size="14.00">b</text>
</g>
<!-- x1 -->
<g id="node18" class="node">
<title>x1</title>
<path fill="none" stroke="black" d="M109,-511C109,-511 167,-511 167,-511 173,-511 179,-517 179,-523 179,-523 179,-535 179,-535 179,-541 173,-547 167,-547 167,-547 109,-547 109,-547 103,-547 97,-541 97,-535 97,-535 97,-523 97,-523 97,-517 103,-511 109,-511"/>
<text text-anchor="middle" x="138" y="-525.3" font-family="Times New Roman,serif" font-size="14.00">31:16 &#45; 15:0</text>
</g>
<!-- n4_gv1&#45;&gt;x1 -->
<g id="edge13" class="edge">
<title>n4_gv1:e&#45;&gt;x1:w</title>
<path fill="none" stroke="black" stroke-width="3" d="M54,-282C105.98,-282 48.98,-497.28 86.49,-525.88"/>
<polygon fill="black" stroke="black" stroke-width="3" points="85.41,-529.21 96,-529 87.59,-522.55 85.41,-529.21"/>
</g>
<!-- x5 -->
<g id="node19" class="node">
<title>x5</title>
<path fill="none" stroke="black" d="M112.5,-236C112.5,-236 163.5,-236 163.5,-236 169.5,-236 175.5,-242 175.5,-248 175.5,-248 175.5,-260 175.5,-260 175.5,-266 169.5,-272 163.5,-272 163.5,-272 112.5,-272 112.5,-272 106.5,-272 100.5,-266 100.5,-260 100.5,-260 100.5,-248 100.5,-248 100.5,-242 106.5,-236 112.5,-236"/>
<text text-anchor="middle" x="138" y="-250.3" font-family="Times New Roman,serif" font-size="14.00">15:0 &#45; 15:0</text>
</g>
<!-- n4_gv1&#45;&gt;x5 -->
<g id="edge14" class="edge">
<title>n4_gv1:e&#45;&gt;x5:w</title>
<path fill="none" stroke="black" stroke-width="3" d="M54,-282C73.51,-282 75.41,-262.8 88.87,-256.2"/>
<polygon fill="black" stroke="black" stroke-width="3" points="89.97,-259.54 99,-254 88.49,-252.7 89.97,-259.54"/>
</g>
<!-- n5_gv1 -->
<g id="node10" class="node">
<title>n5_gv1</title>
<polygon fill="none" stroke="black" points="54,-466.54 54,-481.46 38.18,-492 15.82,-492 0,-481.46 0,-466.54 15.82,-456 38.18,-456 54,-466.54"/>
<text text-anchor="middle" x="27" y="-470.3" font-family="Times New Roman,serif" font-size="14.00">a</text>
</g>
<!-- x2 -->
<g id="node20" class="node">
<title>x2</title>
<path fill="none" stroke="black" d="M109,-566C109,-566 167,-566 167,-566 173,-566 179,-572 179,-578 179,-578 179,-590 179,-590 179,-596 173,-602 167,-602 167,-602 109,-602 109,-602 103,-602 97,-596 97,-590 97,-590 97,-578 97,-578 97,-572 103,-566 109,-566"/>
<text text-anchor="middle" x="138" y="-580.3" font-family="Times New Roman,serif" font-size="14.00">31:16 &#45; 15:0</text>
</g>
<!-- n5_gv1&#45;&gt;x2 -->
<g id="edge15" class="edge">
<title>n5_gv1:e&#45;&gt;x2:w</title>
<path fill="none" stroke="black" stroke-width="3" d="M54,-474C102.24,-474 52.76,-567.48 85.73,-582.09"/>
<polygon fill="black" stroke="black" stroke-width="3" points="85.53,-585.61 96,-584 86.81,-578.73 85.53,-585.61"/>
</g>
<!-- x6 -->
<g id="node21" class="node">
<title>x6</title>
<path fill="none" stroke="black" d="M112.5,-346C112.5,-346 163.5,-346 163.5,-346 169.5,-346 175.5,-352 175.5,-358 175.5,-358 175.5,-370 175.5,-370 175.5,-376 169.5,-382 163.5,-382 163.5,-382 112.5,-382 112.5,-382 106.5,-382 100.5,-376 100.5,-370 100.5,-370 100.5,-358 100.5,-358 100.5,-352 106.5,-346 112.5,-346"/>
<text text-anchor="middle" x="138" y="-360.3" font-family="Times New Roman,serif" font-size="14.00">15:0 &#45; 15:0</text>
</g>
<!-- n5_gv1&#45;&gt;x6 -->
<g id="edge16" class="edge">
<title>n5_gv1:e&#45;&gt;x6:w</title>
<path fill="none" stroke="black" stroke-width="3" d="M54,-474C102.9,-474 54.56,-379.72 89.02,-365.73"/>
<polygon fill="black" stroke="black" stroke-width="3" points="89.74,-369.15 99,-364 88.55,-362.26 89.74,-369.15"/>
</g>
<!-- n3_gv1 -->
<g id="node11" class="node">
<title>n3_gv1</title>
<polygon fill="none" stroke="black" points="514.12,-340.54 514.12,-355.46 497.56,-366 474.13,-366 457.56,-355.46 457.56,-340.54 474.13,-330 497.56,-330 514.12,-340.54"/>
<text text-anchor="middle" x="485.84" y="-344.3" font-family="Times New Roman,serif" font-size="14.00">sum</text>
</g>
<!-- x0_gv1 -->
<g id="node16" class="node">
<title>x0_gv1</title>
<path fill="none" stroke="black" d="M109,-456C109,-456 167,-456 167,-456 173,-456 179,-462 179,-468 179,-468 179,-480 179,-480 179,-486 173,-492 167,-492 167,-492 109,-492 109,-492 103,-492 97,-486 97,-480 97,-480 97,-468 97,-468 97,-462 103,-456 109,-456"/>
<text text-anchor="middle" x="138" y="-470.3" font-family="Times New Roman,serif" font-size="14.00">31:16 &#45; 15:0</text>
</g>
<!-- n3_gv1&#45;&gt;x0_gv1 -->
<g id="edge11" class="edge">
<title>n3_gv1:e&#45;&gt;x0_gv1:w</title>
<path fill="none" stroke="black" stroke-width="3" d="M514.84,-348C573.91,-348 378.33,-511.3 323,-532 280.96,-547.73 264.21,-547.28 222,-532 202.42,-524.91 205.18,-510.12 186,-502 167.68,-494.24 110.69,-506.93 97,-492.5 94.7,-490.07 92.74,-486.57 91.78,-483.25"/>
<polygon fill="black" stroke="black" stroke-width="3" points="95.04,-484.55 96,-474 88.67,-481.65 95.04,-484.55"/>
</g>
<!-- x3 -->
<g id="node17" class="node">
<title>x3</title>
<path fill="none" stroke="black" d="M112.5,-126C112.5,-126 163.5,-126 163.5,-126 169.5,-126 175.5,-132 175.5,-138 175.5,-138 175.5,-150 175.5,-150 175.5,-156 169.5,-162 163.5,-162 163.5,-162 112.5,-162 112.5,-162 106.5,-162 100.5,-156 100.5,-150 100.5,-150 100.5,-138 100.5,-138 100.5,-132 106.5,-126 112.5,-126"/>
<text text-anchor="middle" x="138" y="-140.3" font-family="Times New Roman,serif" font-size="14.00">15:0 &#45; 15:0</text>
</g>
<!-- n3_gv1&#45;&gt;x3 -->
<g id="edge12" class="edge">
<title>n3_gv1:e&#45;&gt;x3:w</title>
<path fill="none" stroke="black" stroke-width="3" d="M514.84,-348C531.72,-348 528.87,-404.08 457.7,-366 362.56,-315.09 417.97,-215.23 323,-164 312.1,-158.12 108.97,-171.05 100,-162.5 97.49,-160.1 95.45,-156.44 94.55,-153"/>
<polygon fill="black" stroke="black" stroke-width="3" points="97.71,-154.52 99,-144 91.43,-151.41 97.71,-154.52"/>
</g>
<!-- n1 -->
<g id="node12" class="node">
<title>n1</title>
<polygon fill="none" stroke="black" points="138,-437 104.82,-419 138,-401 171.18,-419 138,-437"/>
<text text-anchor="middle" x="138" y="-415.3" font-family="Times New Roman,serif" font-size="14.00">a2c</text>
</g>
<!-- c11_gv1 -->
<g id="node13" class="node">
<title>c11_gv1</title>
<polygon fill="none" stroke="black" points="222,-407.5 222,-522.5 323,-522.5 323,-407.5 222,-407.5"/>
<text text-anchor="middle" x="237" y="-507.3" font-family="Times New Roman,serif" font-size="14.00">$1</text>
<polyline fill="none" stroke="black" points="222,-499.5 252,-499.5 "/>
<text text-anchor="middle" x="237" y="-484.3" font-family="Times New Roman,serif" font-size="14.00">$2</text>
<polyline fill="none" stroke="black" points="222,-476.5 252,-476.5 "/>
<text text-anchor="middle" x="237" y="-461.3" font-family="Times New Roman,serif" font-size="14.00">$3</text>
<polyline fill="none" stroke="black" points="222,-453.5 252,-453.5 "/>
<text text-anchor="middle" x="237" y="-438.3" font-family="Times New Roman,serif" font-size="14.00">$4</text>
<polyline fill="none" stroke="black" points="222,-430.5 252,-430.5 "/>
<text text-anchor="middle" x="237" y="-415.3" font-family="Times New Roman,serif" font-size="14.00">$5</text>
<polyline fill="none" stroke="black" points="252,-407.5 252,-522.5 "/>
<text text-anchor="middle" x="277.5" y="-468.8" font-family="Times New Roman,serif" font-size="14.00">a2</text>
<text text-anchor="middle" x="277.5" y="-453.8" font-family="Times New Roman,serif" font-size="14.00">add16</text>
<polyline fill="none" stroke="black" points="303,-407.5 303,-522.5 "/>
<text text-anchor="middle" x="313" y="-461.3" font-family="Times New Roman,serif" font-size="14.00"> </text>
</g>
<!-- n1&#45;&gt;c11_gv1 -->
<g id="edge8" class="edge">
<title>n1:e&#45;&gt;c11_gv1:w</title>
<path fill="none" stroke="black" d="M172,-419C190.4,-419 197.38,-419 211.85,-419"/>
<polygon fill="black" stroke="black" points="212,-422.5 222,-419 212,-415.5 212,-422.5"/>
</g>
<!-- n2 -->
<g id="node14" class="node">
<title>n2</title>
<polygon fill="none" stroke="black" points="138,-327 104.82,-309 138,-291 171.18,-309 138,-327"/>
<text text-anchor="middle" x="138" y="-305.3" font-family="Times New Roman,serif" font-size="14.00">a1c</text>
</g>
<!-- n2&#45;&gt;c11_gv1 -->
<g id="edge9" class="edge">
<title>n2:e&#45;&gt;c11_gv1:w</title>
<path fill="none" stroke="black" d="M172,-309C240.97,-309 158.81,-448.98 211.84,-463.74"/>
<polygon fill="black" stroke="black" points="211.65,-467.25 222,-465 212.5,-460.3 211.65,-467.25"/>
</g>
<!-- c12_gv1 -->
<g id="node15" class="node">
<title>c12_gv1</title>
<polygon fill="none" stroke="black" points="222,-173.5 222,-288.5 323,-288.5 323,-173.5 222,-173.5"/>
<text text-anchor="middle" x="237" y="-273.3" font-family="Times New Roman,serif" font-size="14.00">$1</text>
<polyline fill="none" stroke="black" points="222,-265.5 252,-265.5 "/>
<text text-anchor="middle" x="237" y="-250.3" font-family="Times New Roman,serif" font-size="14.00">$2</text>
<polyline fill="none" stroke="black" points="222,-242.5 252,-242.5 "/>
<text text-anchor="middle" x="237" y="-227.3" font-family="Times New Roman,serif" font-size="14.00">$3</text>
<polyline fill="none" stroke="black" points="222,-219.5 252,-219.5 "/>
<text text-anchor="middle" x="237" y="-204.3" font-family="Times New Roman,serif" font-size="14.00">$4</text>
<polyline fill="none" stroke="black" points="222,-196.5 252,-196.5 "/>
<text text-anchor="middle" x="237" y="-181.3" font-family="Times New Roman,serif" font-size="14.00">$5</text>
<polyline fill="none" stroke="black" points="252,-173.5 252,-288.5 "/>
<text text-anchor="middle" x="277.5" y="-234.8" font-family="Times New Roman,serif" font-size="14.00">a1</text>
<text text-anchor="middle" x="277.5" y="-219.8" font-family="Times New Roman,serif" font-size="14.00">add16</text>
<polyline fill="none" stroke="black" points="303,-173.5 303,-288.5 "/>
<text text-anchor="middle" x="313" y="-227.3" font-family="Times New Roman,serif" font-size="14.00"> </text>
</g>
<!-- n2&#45;&gt;c12_gv1 -->
<g id="edge10" class="edge">
<title>n2:e&#45;&gt;c12_gv1:w</title>
<path fill="none" stroke="black" d="M172,-309C227.59,-309 170.92,-200.47 212.04,-186.48"/>
<polygon fill="black" stroke="black" points="212.62,-189.93 222,-185 211.59,-183.01 212.62,-189.93"/>
</g>
<!-- x0_gv1&#45;&gt;c11_gv1 -->
<g id="edge17" class="edge">
<title>x0_gv1:e&#45;&gt;c11_gv1:w</title>
<path fill="none" stroke="black" stroke-width="3" d="M191.59,-470.33C199.71,-464.16 202.32,-451.77 210.46,-445.63"/>
<polygon fill="none" stroke="black" stroke-width="3" points="191.44,-470.38 186.93,-476 180,-474 184.51,-468.38 191.44,-470.38"/>
<polygon fill="none" stroke="black" stroke-width="3" points="210.55,-445.6 215.08,-439.98 222,-442 217.48,-447.62 210.55,-445.6"/>
</g>
<!-- x3&#45;&gt;c12_gv1 -->
<g id="edge21" class="edge">
<title>x3:e&#45;&gt;c12_gv1:w</title>
<path fill="none" stroke="black" stroke-width="3" d="M188.95,-147.81C202.9,-159.22 196.1,-193.01 210.17,-204.29"/>
<polygon fill="none" stroke="black" stroke-width="3" points="188.43,-147.65 181.5,-149.63 177,-144 183.93,-142.01 188.43,-147.65"/>
<polygon fill="none" stroke="black" stroke-width="3" points="210.55,-204.41 217.47,-202.39 222,-208 215.08,-210.02 210.55,-204.41"/>
</g>
<!-- x1&#45;&gt;c11_gv1 -->
<g id="edge18" class="edge">
<title>x1:e&#45;&gt;c11_gv1:w</title>
<path fill="none" stroke="black" stroke-width="3" d="M191.68,-524.92C200.73,-516.98 201.39,-499.56 210.62,-491.82"/>
<polygon fill="none" stroke="black" stroke-width="3" points="191.33,-525.04 186.98,-530.8 180,-529 184.34,-523.24 191.33,-525.04"/>
<polygon fill="none" stroke="black" stroke-width="3" points="210.63,-491.82 215.04,-486.12 222,-488 217.59,-493.7 210.63,-491.82"/>
</g>
<!-- x5&#45;&gt;c12_gv1 -->
<g id="edge22" class="edge">
<title>x5:e&#45;&gt;c12_gv1:w</title>
<path fill="none" stroke="black" stroke-width="3" d="M189.32,-254C196.87,-254 202.32,-254 209.92,-254"/>
<polygon fill="none" stroke="black" stroke-width="3" points="189,-254 183,-258 177,-254 183,-250 189,-254"/>
<polygon fill="none" stroke="black" stroke-width="3" points="210,-254 216,-250 222,-254 216,-258 210,-254"/>
</g>
<!-- x2&#45;&gt;c11_gv1 -->
<g id="edge19" class="edge">
<title>x2:e&#45;&gt;c11_gv1:w</title>
<path fill="none" stroke="black" stroke-width="3" d="M191.52,-580.48C207.06,-568.18 194.97,-527.17 210.31,-514.66"/>
<polygon fill="none" stroke="black" stroke-width="3" points="191.48,-580.49 186.91,-586.07 180,-584 184.57,-578.42 191.48,-580.49"/>
<polygon fill="none" stroke="black" stroke-width="3" points="210.55,-514.58 215.08,-508.97 222,-511 217.47,-516.61 210.55,-514.58"/>
</g>
<!-- x6&#45;&gt;c12_gv1 -->
<g id="edge23" class="edge">
<title>x6:e&#45;&gt;c12_gv1:w</title>
<path fill="none" stroke="black" stroke-width="3" d="M188.75,-360.9C209.09,-347.4 189.93,-293.76 210.17,-280.15"/>
<polygon fill="none" stroke="black" stroke-width="3" points="188.6,-360.94 183.82,-366.34 177,-364 181.78,-358.6 188.6,-360.94"/>
<polygon fill="none" stroke="black" stroke-width="3" points="210.4,-280.09 215.17,-274.68 222,-277 217.23,-282.41 210.4,-280.09"/>
</g>
<!-- v4 -->
<g id="node22" class="node">
<title>v4</title>
<ellipse fill="none" stroke="black" cx="138" cy="-199" rx="27" ry="18"/>
<text text-anchor="middle" x="138" y="-195.3" font-family="Times New Roman,serif" font-size="14.00">1&#39;0</text>
</g>
<!-- v4&#45;&gt;c12_gv1 -->
<g id="edge20" class="edge">
<title>v4:e&#45;&gt;c12_gv1:w</title>
<path fill="none" stroke="black" d="M166,-199C190.86,-199 193.16,-223.06 212.03,-229.46"/>
<polygon fill="black" stroke="black" points="211.58,-232.93 222,-231 212.65,-226.01 211.58,-232.93"/>
</g>
</g>
</svg>
