<?xml version="1.0" encoding="UTF-8" standalone="no"?>
<!DOCTYPE svg PUBLIC "-//W3C//DTD SVG 1.1//EN"
 "http://www.w3.org/Graphics/SVG/1.1/DTD/svg11.dtd">
<!-- Generated by graphviz version 4.0.0 (20220529.0937)
 -->
<!-- Title: root Pages: 1 -->
<svg width="622pt" height="615pt"
 viewBox="0.00 0.00 621.79 614.50" xmlns="http://www.w3.org/2000/svg" xmlns:xlink="http://www.w3.org/1999/xlink">
<g id="graph0" class="graph" transform="scale(1 1) rotate(0) translate(4 610.5)">
<title>root</title>
<polygon fill="white" stroke="transparent" points="-4,4 -4,-610.5 617.79,-610.5 617.79,4 -4,4"/>
<!-- n5 -->
<g id="node1" class="node">
<title>n5</title>
<polygon fill="none" stroke="black" points="54,-12.54 54,-27.46 38.18,-38 15.82,-38 0,-27.46 0,-12.54 15.82,-2 38.18,-2 54,-12.54"/>
<text text-anchor="middle" x="27" y="-16.3" font-family="Times New Roman,serif" font-size="14.00">cin</text>
</g>
<!-- c11 -->
<g id="node6" class="node">
<title>c11</title>
<polygon fill="none" stroke="black" points="286.5,-22 286.5,-68 382.5,-68 382.5,-22 286.5,-22"/>
<text text-anchor="middle" x="299.5" y="-52.8" font-family="Times New Roman,serif" font-size="14.00">A</text>
<polyline fill="none" stroke="black" points="286.5,-45 312.5,-45 "/>
<text text-anchor="middle" x="299.5" y="-29.8" font-family="Times New Roman,serif" font-size="14.00">B</text>
<polyline fill="none" stroke="black" points="312.5,-22 312.5,-68 "/>
<text text-anchor="middle" x="334.5" y="-48.8" font-family="Times New Roman,serif" font-size="14.00">$2</text>
<text text-anchor="middle" x="334.5" y="-33.8" font-family="Times New Roman,serif" font-size="14.00">$add</text>
<polyline fill="none" stroke="black" points="356.5,-22 356.5,-68 "/>
<text text-anchor="middle" x="369.5" y="-41.3" font-family="Times New Roman,serif" font-size="14.00">Y</text>
</g>
<!-- n5&#45;&gt;c11 -->
<g id="edge1" class="edge">
<title>n5:e&#45;&gt;c11:w</title>
<path fill="none" stroke="#e7298a" d="M54,-20C153.63,-20 180.68,-32.15 275.49,-32.96"/>
<polygon fill="#e7298a" stroke="#e7298a" points="275.49,-36.46 285.5,-33 275.51,-29.46 275.49,-36.46"/>
</g>
<!-- n6 -->
<g id="node2" class="node">
<title>n6</title>
<polygon fill="none" stroke="black" points="54,-66.54 54,-81.46 38.18,-92 15.82,-92 0,-81.46 0,-66.54 15.82,-56 38.18,-56 54,-66.54"/>
<text text-anchor="middle" x="27" y="-70.3" font-family="Times New Roman,serif" font-size="14.00">b</text>
</g>
<!-- c12 -->
<g id="node7" class="node">
<title>c12</title>
<polygon fill="none" stroke="black" points="121,-63 121,-109 217,-109 217,-63 121,-63"/>
<text text-anchor="middle" x="134" y="-93.8" font-family="Times New Roman,serif" font-size="14.00">A</text>
<polyline fill="none" stroke="black" points="121,-86 147,-86 "/>
<text text-anchor="middle" x="134" y="-70.8" font-family="Times New Roman,serif" font-size="14.00">B</text>
<polyline fill="none" stroke="black" points="147,-63 147,-109 "/>
<text text-anchor="middle" x="169" y="-89.8" font-family="Times New Roman,serif" font-size="14.00">$1</text>
<text text-anchor="middle" x="169" y="-74.8" font-family="Times New Roman,serif" font-size="14.00">$add</text>
<polyline fill="none" stroke="black" points="191,-63 191,-109 "/>
<text text-anchor="middle" x="204" y="-82.3" font-family="Times New Roman,serif" font-size="14.00">Y</text>
</g>
<!-- n6&#45;&gt;c12 -->
<g id="edge2" class="edge">
<title>n6:e&#45;&gt;c12:w</title>
<path fill="none" stroke="#e7298a" d="M54,-74C80.06,-74 89.01,-74 110.79,-74"/>
<polygon fill="#e7298a" stroke="#e7298a" points="111,-77.5 121,-74 111,-70.5 111,-77.5"/>
</g>
<!-- n7 -->
<g id="node3" class="node">
<title>n7</title>
<polygon fill="none" stroke="black" points="54,-120.54 54,-135.46 38.18,-146 15.82,-146 0,-135.46 0,-120.54 15.82,-110 38.18,-110 54,-120.54"/>
<text text-anchor="middle" x="27" y="-124.3" font-family="Times New Roman,serif" font-size="14.00">a</text>
</g>
<!-- n7&#45;&gt;c12 -->
<g id="edge3" class="edge">
<title>n7:e&#45;&gt;c12:w</title>
<path fill="none" stroke="#7570b3" d="M54,-128C82.93,-128 87.58,-104.41 111.01,-99.07"/>
<polygon fill="#7570b3" stroke="#7570b3" points="111.43,-102.54 121,-98 110.68,-95.58 111.43,-102.54"/>
</g>
<!-- n3 -->
<g id="node4" class="node">
<title>n3</title>
<polygon fill="none" stroke="black" points="608.53,-64.54 608.53,-79.46 591.73,-90 567.96,-90 551.16,-79.46 551.16,-64.54 567.96,-54 591.73,-54 608.53,-64.54"/>
<text text-anchor="middle" x="579.84" y="-68.3" font-family="Times New Roman,serif" font-size="14.00">cout</text>
</g>
<!-- n4 -->
<g id="node5" class="node">
<title>n4</title>
<polygon fill="none" stroke="black" points="608.12,-10.54 608.12,-25.46 591.56,-36 568.13,-36 551.56,-25.46 551.56,-10.54 568.13,0 591.56,0 608.12,-10.54"/>
<text text-anchor="middle" x="579.84" y="-14.3" font-family="Times New Roman,serif" font-size="14.00">sum</text>
</g>
<!-- x0 -->
<g id="node8" class="node">
<title>x0</title>
<path fill="none" stroke="black" d="M464,-22C464,-22 502,-22 502,-22 508,-22 514,-28 514,-34 514,-34 514,-56 514,-56 514,-62 508,-68 502,-68 502,-68 464,-68 464,-68 458,-68 452,-62 452,-56 452,-56 452,-34 452,-34 452,-28 458,-22 464,-22"/>
<text text-anchor="middle" x="483" y="-52.8" font-family="Times New Roman,serif" font-size="14.00">1:1 &#45; 0:0</text>
<polyline fill="none" stroke="black" points="452,-45 514,-45 "/>
<text text-anchor="middle" x="483" y="-29.8" font-family="Times New Roman,serif" font-size="14.00">0:0 &#45; 0:0</text>
</g>
<!-- c11&#45;&gt;x0 -->
<g id="edge4" class="edge">
<title>c11:e&#45;&gt;x0:w</title>
<path fill="none" stroke="#66a61e" stroke-width="3" d="M383.5,-45C410.26,-45 419.38,-45 441.86,-45"/>
<polygon fill="#66a61e" stroke="#66a61e" stroke-width="3" points="442,-48.5 452,-45 442,-41.5 442,-48.5"/>
<text text-anchor="middle" x="418.5" y="-48.8" font-family="Times New Roman,serif" font-size="14.00" fill="#66a61e">&lt;2&gt;</text>
</g>
<!-- c12&#45;&gt;c11 -->
<g id="edge5" class="edge">
<title>c12:e&#45;&gt;c11:w</title>
<path fill="none" stroke="#1b9e77" stroke-width="3" d="M217,-86C246.32,-86 251.51,-63.2 275.36,-58.03"/>
<polygon fill="#1b9e77" stroke="#1b9e77" stroke-width="3" points="275.91,-61.49 285.5,-57 275.2,-54.53 275.91,-61.49"/>
<text text-anchor="middle" x="250.5" y="-86.8" font-family="Times New Roman,serif" font-size="14.00" fill="#1b9e77">&lt;2&gt;</text>
</g>
<!-- x0&#45;&gt;n3 -->
<g id="edge6" class="edge">
<title>x0:e&#45;&gt;n3:w</title>
<path fill="none" stroke="#1b9e77" d="M514,-57C527.72,-57 531.74,-65.97 541.06,-70.04"/>
<polygon fill="#1b9e77" stroke="#1b9e77" points="540.51,-73.5 551,-72 541.87,-66.63 540.51,-73.5"/>
</g>
<!-- x0&#45;&gt;n4 -->
<g id="edge7" class="edge">
<title>x0:e&#45;&gt;n4:w</title>
<path fill="none" stroke="#7570b3" d="M514,-33C527.72,-33 531.74,-24.03 541.06,-19.96"/>
<polygon fill="#7570b3" stroke="#7570b3" points="541.87,-23.37 551,-18 540.51,-16.5 541.87,-23.37"/>
</g>
<!-- n4_gv1 -->
<g id="node9" class="node">
<title>n4_gv1</title>
<polygon fill="none" stroke="black" points="54,-475.54 54,-490.46 38.18,-501 15.82,-501 0,-490.46 0,-475.54 15.82,-465 38.18,-465 54,-475.54"/>
<text text-anchor="middle" x="27" y="-479.3" font-family="Times New Roman,serif" font-size="14.00">b</text>
</g>
<!-- x1 -->
<g id="node18" class="node">
<title>x1</title>
<path fill="none" stroke="black" d="M140,-570C140,-570 198,-570 198,-570 204,-570 210,-576 210,-582 210,-582 210,-594 210,-594 210,-600 204,-606 198,-606 198,-606 140,-606 140,-606 134,-606 128,-600 128,-594 128,-594 128,-582 128,-582 128,-576 134,-570 140,-570"/>
<text text-anchor="middle" x="169" y="-584.3" font-family="Times New Roman,serif" font-size="14.00">31:16 &#45; 15:0</text>
</g>
<!-- n4_gv1&#45;&gt;x1 -->
<g id="edge13" class="edge">
<title>n4_gv1:e&#45;&gt;x1:w</title>
<path fill="none" stroke="#7570b3" stroke-width="3" d="M54,-483C55.47,-483 103.35,-555.01 120.77,-579.76"/>
<polygon fill="#7570b3" stroke="#7570b3" stroke-width="3" points="118.18,-582.13 127,-588 123.76,-577.91 118.18,-582.13"/>
<text text-anchor="middle" x="87.5" y="-554.8" font-family="Times New Roman,serif" font-size="14.00" fill="#7570b3">&lt;16&gt;</text>
</g>
<!-- x5 -->
<g id="node19" class="node">
<title>x5</title>
<path fill="none" stroke="black" d="M143.5,-350C143.5,-350 194.5,-350 194.5,-350 200.5,-350 206.5,-356 206.5,-362 206.5,-362 206.5,-374 206.5,-374 206.5,-380 200.5,-386 194.5,-386 194.5,-386 143.5,-386 143.5,-386 137.5,-386 131.5,-380 131.5,-374 131.5,-374 131.5,-362 131.5,-362 131.5,-356 137.5,-350 143.5,-350"/>
<text text-anchor="middle" x="169" y="-364.3" font-family="Times New Roman,serif" font-size="14.00">15:0 &#45; 15:0</text>
</g>
<!-- n4_gv1&#45;&gt;x5 -->
<g id="edge14" class="edge">
<title>n4_gv1:e&#45;&gt;x5:w</title>
<path fill="none" stroke="#7570b3" stroke-width="3" d="M54,-483C69.93,-483 63.47,-465.45 72,-452 94.3,-416.83 86.3,-375.45 119.94,-368.89"/>
<polygon fill="#7570b3" stroke="#7570b3" stroke-width="3" points="120.35,-372.37 130,-368 119.73,-365.4 120.35,-372.37"/>
<text text-anchor="middle" x="87.5" y="-455.8" font-family="Times New Roman,serif" font-size="14.00" fill="#7570b3">&lt;16&gt;</text>
</g>
<!-- n5_gv1 -->
<g id="node10" class="node">
<title>n5_gv1</title>
<polygon fill="none" stroke="black" points="54,-355.54 54,-370.46 38.18,-381 15.82,-381 0,-370.46 0,-355.54 15.82,-345 38.18,-345 54,-355.54"/>
<text text-anchor="middle" x="27" y="-359.3" font-family="Times New Roman,serif" font-size="14.00">a</text>
</g>
<!-- x2 -->
<g id="node20" class="node">
<title>x2</title>
<path fill="none" stroke="black" d="M140,-515C140,-515 198,-515 198,-515 204,-515 210,-521 210,-527 210,-527 210,-539 210,-539 210,-545 204,-551 198,-551 198,-551 140,-551 140,-551 134,-551 128,-545 128,-539 128,-539 128,-527 128,-527 128,-521 134,-515 140,-515"/>
<text text-anchor="middle" x="169" y="-529.3" font-family="Times New Roman,serif" font-size="14.00">31:16 &#45; 15:0</text>
</g>
<!-- n5_gv1&#45;&gt;x2 -->
<g id="edge15" class="edge">
<title>n5_gv1:e&#45;&gt;x2:w</title>
<path fill="none" stroke="#666666" stroke-width="3" d="M54,-363C77.45,-363 59.49,-447.16 72,-467 81.01,-481.29 91.78,-476.37 103,-489 114.79,-502.27 108.89,-522.33 117.27,-529.93"/>
<polygon fill="#666666" stroke="#666666" stroke-width="3" points="116.41,-533.33 127,-533 118.51,-526.66 116.41,-533.33"/>
<text text-anchor="middle" x="87.5" y="-492.8" font-family="Times New Roman,serif" font-size="14.00" fill="#666666">&lt;16&gt;</text>
</g>
<!-- x6 -->
<g id="node21" class="node">
<title>x6</title>
<path fill="none" stroke="black" d="M143.5,-240C143.5,-240 194.5,-240 194.5,-240 200.5,-240 206.5,-246 206.5,-252 206.5,-252 206.5,-264 206.5,-264 206.5,-270 200.5,-276 194.5,-276 194.5,-276 143.5,-276 143.5,-276 137.5,-276 131.5,-270 131.5,-264 131.5,-264 131.5,-252 131.5,-252 131.5,-246 137.5,-240 143.5,-240"/>
<text text-anchor="middle" x="169" y="-254.3" font-family="Times New Roman,serif" font-size="14.00">15:0 &#45; 15:0</text>
</g>
<!-- n5_gv1&#45;&gt;x6 -->
<g id="edge16" class="edge">
<title>n5_gv1:e&#45;&gt;x6:w</title>
<path fill="none" stroke="#666666" stroke-width="3" d="M54,-363C79.54,-363 96.9,-280.44 120.58,-261.74"/>
<polygon fill="#666666" stroke="#666666" stroke-width="3" points="122,-264.94 130,-258 119.41,-258.43 122,-264.94"/>
<text text-anchor="middle" x="87.5" y="-350.8" font-family="Times New Roman,serif" font-size="14.00" fill="#666666">&lt;16&gt;</text>
</g>
<!-- n3_gv1 -->
<g id="node11" class="node">
<title>n3_gv1</title>
<polygon fill="none" stroke="black" points="608.12,-352.54 608.12,-367.46 591.56,-378 568.13,-378 551.56,-367.46 551.56,-352.54 568.13,-342 591.56,-342 608.12,-352.54"/>
<text text-anchor="middle" x="579.84" y="-356.3" font-family="Times New Roman,serif" font-size="14.00">sum</text>
</g>
<!-- x0_gv1 -->
<g id="node16" class="node">
<title>x0_gv1</title>
<path fill="none" stroke="black" d="M140,-460C140,-460 198,-460 198,-460 204,-460 210,-466 210,-472 210,-472 210,-484 210,-484 210,-490 204,-496 198,-496 198,-496 140,-496 140,-496 134,-496 128,-490 128,-484 128,-484 128,-472 128,-472 128,-466 134,-460 140,-460"/>
<text text-anchor="middle" x="169" y="-474.3" font-family="Times New Roman,serif" font-size="14.00">31:16 &#45; 15:0</text>
</g>
<!-- n3_gv1&#45;&gt;x0_gv1 -->
<g id="edge11" class="edge">
<title>n3_gv1:e&#45;&gt;x0_gv1:w</title>
<path fill="none" stroke="#1b9e77" stroke-width="3" d="M608.84,-360C616.86,-360 611.72,-370.99 607.84,-378 549.13,-484.27 495.86,-486.5 385,-536 291.29,-577.84 263.04,-583.55 235,-563 213.57,-547.3 237.56,-522.82 217,-506 186.21,-480.81 155.38,-525.36 128,-496.5 125.7,-494.07 123.74,-490.57 122.78,-487.25"/>
<polygon fill="#1b9e77" stroke="#1b9e77" stroke-width="3" points="126.04,-488.55 127,-478 119.67,-485.65 126.04,-488.55"/>
<text text-anchor="middle" x="418.5" y="-530.8" font-family="Times New Roman,serif" font-size="14.00" fill="#1b9e77">&lt;16&gt;</text>
</g>
<!-- x3 -->
<g id="node17" class="node">
<title>x3</title>
<path fill="none" stroke="black" d="M143.5,-128C143.5,-128 194.5,-128 194.5,-128 200.5,-128 206.5,-134 206.5,-140 206.5,-140 206.5,-152 206.5,-152 206.5,-158 200.5,-164 194.5,-164 194.5,-164 143.5,-164 143.5,-164 137.5,-164 131.5,-158 131.5,-152 131.5,-152 131.5,-140 131.5,-140 131.5,-134 137.5,-128 143.5,-128"/>
<text text-anchor="middle" x="169" y="-142.3" font-family="Times New Roman,serif" font-size="14.00">15:0 &#45; 15:0</text>
</g>
<!-- n3_gv1&#45;&gt;x3 -->
<g id="edge12" class="edge">
<title>n3_gv1:e&#45;&gt;x3:w</title>
<path fill="none" stroke="#1b9e77" stroke-width="3" d="M608.84,-360C616.86,-360 613.66,-372.49 607.84,-378 589.72,-395.15 574.08,-389.03 551.7,-378 442.61,-324.24 492.94,-217.04 385,-161 354.25,-145.04 276.39,-149.96 235,-156 221.92,-157.91 219.58,-162.59 206.5,-164.5 173.3,-169.35 155.36,-187.58 131,-164.5 128.48,-162.11 126.44,-158.44 125.55,-155"/>
<polygon fill="#1b9e77" stroke="#1b9e77" stroke-width="3" points="128.7,-156.52 130,-146 122.43,-153.41 128.7,-156.52"/>
<text text-anchor="middle" x="418.5" y="-203.8" font-family="Times New Roman,serif" font-size="14.00" fill="#1b9e77">&lt;16&gt;</text>
</g>
<!-- n1 -->
<g id="node12" class="node">
<title>n1</title>
<polygon fill="none" stroke="black" points="169,-441 135.82,-423 169,-405 202.18,-423 169,-441"/>
<text text-anchor="middle" x="169" y="-419.3" font-family="Times New Roman,serif" font-size="14.00">a2c</text>
</g>
<!-- c11_gv1 -->
<g id="node13" class="node">
<title>c11_gv1</title>
<polygon fill="none" stroke="black" points="284,-411.5 284,-526.5 385,-526.5 385,-411.5 284,-411.5"/>
<text text-anchor="middle" x="299" y="-511.3" font-family="Times New Roman,serif" font-size="14.00">$1</text>
<polyline fill="none" stroke="black" points="284,-503.5 314,-503.5 "/>
<text text-anchor="middle" x="299" y="-488.3" font-family="Times New Roman,serif" font-size="14.00">$2</text>
<polyline fill="none" stroke="black" points="284,-480.5 314,-480.5 "/>
<text text-anchor="middle" x="299" y="-465.3" font-family="Times New Roman,serif" font-size="14.00">$3</text>
<polyline fill="none" stroke="black" points="284,-457.5 314,-457.5 "/>
<text text-anchor="middle" x="299" y="-442.3" font-family="Times New Roman,serif" font-size="14.00">$4</text>
<polyline fill="none" stroke="black" points="284,-434.5 314,-434.5 "/>
<text text-anchor="middle" x="299" y="-419.3" font-family="Times New Roman,serif" font-size="14.00">$5</text>
<polyline fill="none" stroke="black" points="314,-411.5 314,-526.5 "/>
<text text-anchor="middle" x="339.5" y="-472.8" font-family="Times New Roman,serif" font-size="14.00">a2</text>
<text text-anchor="middle" x="339.5" y="-457.8" font-family="Times New Roman,serif" font-size="14.00">add16</text>
<polyline fill="none" stroke="black" points="365,-411.5 365,-526.5 "/>
<text text-anchor="middle" x="375" y="-465.3" font-family="Times New Roman,serif" font-size="14.00"> </text>
</g>
<!-- n1&#45;&gt;c11_gv1 -->
<g id="edge8" class="edge">
<title>n1:e&#45;&gt;c11_gv1:w</title>
<path fill="none" stroke="#d95f02" d="M203,-423C235.34,-423 245.89,-423 273.81,-423"/>
<polygon fill="#d95f02" stroke="#d95f02" points="274,-426.5 284,-423 274,-419.5 274,-426.5"/>
</g>
<!-- n2 -->
<g id="node14" class="node">
<title>n2</title>
<polygon fill="none" stroke="black" points="169,-331 135.82,-313 169,-295 202.18,-313 169,-331"/>
<text text-anchor="middle" x="169" y="-309.3" font-family="Times New Roman,serif" font-size="14.00">a1c</text>
</g>
<!-- n2&#45;&gt;c11_gv1 -->
<g id="edge9" class="edge">
<title>n2:e&#45;&gt;c11_gv1:w</title>
<path fill="none" stroke="#1b9e77" d="M203,-313C231.67,-313 220.33,-344.37 235,-369 248.38,-391.47 254.62,-395.46 266,-419 274.19,-435.94 265.76,-457.63 273.95,-465.75"/>
<polygon fill="#1b9e77" stroke="#1b9e77" points="273.41,-469.25 284,-469 275.56,-462.59 273.41,-469.25"/>
</g>
<!-- c12_gv1 -->
<g id="node15" class="node">
<title>c12_gv1</title>
<polygon fill="none" stroke="black" points="284,-170.5 284,-285.5 385,-285.5 385,-170.5 284,-170.5"/>
<text text-anchor="middle" x="299" y="-270.3" font-family="Times New Roman,serif" font-size="14.00">$1</text>
<polyline fill="none" stroke="black" points="284,-262.5 314,-262.5 "/>
<text text-anchor="middle" x="299" y="-247.3" font-family="Times New Roman,serif" font-size="14.00">$2</text>
<polyline fill="none" stroke="black" points="284,-239.5 314,-239.5 "/>
<text text-anchor="middle" x="299" y="-224.3" font-family="Times New Roman,serif" font-size="14.00">$3</text>
<polyline fill="none" stroke="black" points="284,-216.5 314,-216.5 "/>
<text text-anchor="middle" x="299" y="-201.3" font-family="Times New Roman,serif" font-size="14.00">$4</text>
<polyline fill="none" stroke="black" points="284,-193.5 314,-193.5 "/>
<text text-anchor="middle" x="299" y="-178.3" font-family="Times New Roman,serif" font-size="14.00">$5</text>
<polyline fill="none" stroke="black" points="314,-170.5 314,-285.5 "/>
<text text-anchor="middle" x="339.5" y="-231.8" font-family="Times New Roman,serif" font-size="14.00">a1</text>
<text text-anchor="middle" x="339.5" y="-216.8" font-family="Times New Roman,serif" font-size="14.00">add16</text>
<polyline fill="none" stroke="black" points="365,-170.5 365,-285.5 "/>
<text text-anchor="middle" x="375" y="-224.3" font-family="Times New Roman,serif" font-size="14.00"> </text>
</g>
<!-- n2&#45;&gt;c12_gv1 -->
<g id="edge10" class="edge">
<title>n2:e&#45;&gt;c12_gv1:w</title>
<path fill="none" stroke="#1b9e77" d="M203,-313C231.28,-313 219.05,-281.35 235,-258 247.49,-239.72 254.2,-237.73 266,-219 273.16,-207.64 269.65,-193.01 274.52,-186.04"/>
<polygon fill="#1b9e77" stroke="#1b9e77" points="276.17,-189.14 284,-182 273.43,-182.7 276.17,-189.14"/>
</g>
<!-- x0_gv1&#45;&gt;c11_gv1 -->
<g id="edge17" class="edge">
<title>x0_gv1:e&#45;&gt;c11_gv1:w</title>
<path fill="none" stroke="#1b9e77" stroke-width="3" d="M223.18,-476.54C244.01,-471.19 251.13,-452.64 272.07,-447.39"/>
<polygon fill="none" stroke="#1b9e77" stroke-width="3" points="222.91,-476.57 217.43,-481.26 211,-478 216.48,-473.32 222.91,-476.57"/>
<polygon fill="none" stroke="#1b9e77" stroke-width="3" points="272.08,-447.39 277.58,-442.72 284,-446 278.5,-450.67 272.08,-447.39"/>
<text text-anchor="middle" x="250.5" y="-474.8" font-family="Times New Roman,serif" font-size="14.00" fill="#1b9e77">&lt;16&gt;</text>
</g>
<!-- x3&#45;&gt;c12_gv1 -->
<g id="edge21" class="edge">
<title>x3:e&#45;&gt;c12_gv1:w</title>
<path fill="none" stroke="#e6ab02" stroke-width="3" d="M220.13,-147.35C240.88,-152.53 244.69,-171.69 266,-189 269.76,-192.06 271.62,-195.63 273.51,-198.62"/>
<polygon fill="none" stroke="#e6ab02" stroke-width="3" points="219.93,-147.33 213.52,-150.64 208,-146 214.41,-142.69 219.93,-147.33"/>
<polygon fill="none" stroke="#e6ab02" stroke-width="3" points="273.75,-198.77 280.95,-198.47 284,-205 276.8,-205.3 273.75,-198.77"/>
<text text-anchor="middle" x="250.5" y="-192.8" font-family="Times New Roman,serif" font-size="14.00" fill="#e6ab02">&lt;16&gt;</text>
</g>
<!-- x1&#45;&gt;c11_gv1 -->
<g id="edge18" class="edge">
<title>x1:e&#45;&gt;c11_gv1:w</title>
<path fill="none" stroke="#1b9e77" stroke-width="3" d="M223.16,-586.54C247.7,-579.91 247.41,-551.68 266,-525 272.12,-516.22 270.93,-505.15 273.68,-498.32"/>
<polygon fill="none" stroke="#1b9e77" stroke-width="3" points="222.91,-586.57 217.43,-591.26 211,-588 216.48,-583.32 222.91,-586.57"/>
<polygon fill="none" stroke="#1b9e77" stroke-width="3" points="273.77,-498.27 276.79,-491.72 284,-492 280.97,-498.54 273.77,-498.27"/>
<text text-anchor="middle" x="250.5" y="-583.8" font-family="Times New Roman,serif" font-size="14.00" fill="#1b9e77">&lt;16&gt;</text>
</g>
<!-- x5&#45;&gt;c12_gv1 -->
<g id="edge22" class="edge">
<title>x5:e&#45;&gt;c12_gv1:w</title>
<path fill="none" stroke="#d95f02" stroke-width="3" d="M220,-366.71C249.76,-359.57 246.49,-323.99 266,-291 272.9,-279.33 269.48,-264.55 273.31,-256.63"/>
<polygon fill="none" stroke="#d95f02" stroke-width="3" points="219.93,-366.72 214.39,-371.34 208,-368 213.54,-363.38 219.93,-366.72"/>
<polygon fill="none" stroke="#d95f02" stroke-width="3" points="273.38,-256.59 276.83,-250.26 284,-251 280.55,-257.33 273.38,-256.59"/>
<text text-anchor="middle" x="250.5" y="-361.8" font-family="Times New Roman,serif" font-size="14.00" fill="#d95f02">&lt;16&gt;</text>
</g>
<!-- x2&#45;&gt;c11_gv1 -->
<g id="edge19" class="edge">
<title>x2:e&#45;&gt;c11_gv1:w</title>
<path fill="none" stroke="#e6ab02" stroke-width="3" d="M221.73,-526.75C225.05,-521.16 226.65,-513.36 235,-510 247.78,-504.86 252.35,-508.14 266,-510 268.57,-510.35 270.48,-510.97 272.15,-511.66"/>
<polygon fill="none" stroke="#e6ab02" stroke-width="3" points="221.37,-526.96 218.2,-533.44 211,-533 214.17,-526.52 221.37,-526.96"/>
<polygon fill="none" stroke="#e6ab02" stroke-width="3" points="272.45,-511.74 279.31,-509.52 284,-515 277.14,-517.22 272.45,-511.74"/>
<text text-anchor="middle" x="250.5" y="-513.8" font-family="Times New Roman,serif" font-size="14.00" fill="#e6ab02">&lt;16&gt;</text>
</g>
<!-- x6&#45;&gt;c12_gv1 -->
<g id="edge23" class="edge">
<title>x6:e&#45;&gt;c12_gv1:w</title>
<path fill="none" stroke="#d95f02" stroke-width="3" d="M220.09,-258.73C241.11,-261.39 250.87,-270.59 271.87,-273.27"/>
<polygon fill="none" stroke="#d95f02" stroke-width="3" points="219.98,-258.72 213.75,-262.35 208,-258 214.23,-254.37 219.98,-258.72"/>
<polygon fill="none" stroke="#d95f02" stroke-width="3" points="272.02,-273.28 278.25,-269.65 284,-274 277.77,-277.63 272.02,-273.28"/>
<text text-anchor="middle" x="250.5" y="-275.8" font-family="Times New Roman,serif" font-size="14.00" fill="#d95f02">&lt;16&gt;</text>
</g>
<!-- v4 -->
<g id="node22" class="node">
<title>v4</title>
<ellipse fill="none" stroke="black" cx="169" cy="-203" rx="27" ry="18"/>
<text text-anchor="middle" x="169" y="-199.3" font-family="Times New Roman,serif" font-size="14.00">1&#39;0</text>
</g>
<!-- v4&#45;&gt;c12_gv1 -->
<g id="edge20" class="edge">
<title>v4:e&#45;&gt;c12_gv1:w</title>
<path fill="none" stroke="#a6761d" d="M197,-203C228.48,-203 236.38,-208.33 266,-219 269.94,-220.42 272.18,-222.49 274.36,-224.28"/>
<polygon fill="#a6761d" stroke="#a6761d" points="273.41,-227.66 284,-228 275.93,-221.13 273.41,-227.66"/>
</g>
</g>
</svg>
