<svg xmlns="http://www.w3.org/2000/svg" xmlns:xlink="http://www.w3.org/1999/xlink" xmlns:s="https://github.com/nturley/netlistsvg" width="816" height="1177">
  <style>svg {
    stroke:#000;
    fill:none;
  }
  text {
    fill:#000;
    stroke:none;
    font-size:10px;
    font-weight: bold;
    font-family: "Courier New", monospace;
  }
  .nodelabel {
    text-anchor: middle;
  }
  .inputPortLabel {
    text-anchor: end;
  }
  .splitjoinBody {
    fill:#000;
  }</style>
  <g s:type="and" transform="translate(173,83)" s:width="30" s:height="25" id="cell_$auto$aigmap.cc:123:execute$103">
    <s:alias val="$and"/>
    <s:alias val="$logic_and"/>
    <s:alias val="$_AND_"/>
    <path d="M0,0 L0,25 L15,25 A15 12.5 0 0 0 15,0 Z" class="cell_$auto$aigmap.cc:123:execute$103"/>
    <g s:x="0" s:y="5" s:pid="A"/>
    <g s:x="0" s:y="20" s:pid="B"/>
    <g s:x="30" s:y="12.5" s:pid="Y"/>
  </g>
  <g s:type="and" transform="translate(303,19.5)" s:width="30" s:height="25" id="cell_$auto$aigmap.cc:123:execute$107">
    <s:alias val="$and"/>
    <s:alias val="$logic_and"/>
    <s:alias val="$_AND_"/>
    <path d="M0,0 L0,25 L15,25 A15 12.5 0 0 0 15,0 Z" class="cell_$auto$aigmap.cc:123:execute$107"/>
    <g s:x="0" s:y="5" s:pid="A"/>
    <g s:x="0" s:y="20" s:pid="B"/>
    <g s:x="30" s:y="12.5" s:pid="Y"/>
  </g>
  <g s:type="and" transform="translate(173,143)" s:width="30" s:height="25" id="cell_$auto$aigmap.cc:123:execute$13">
    <s:alias val="$and"/>
    <s:alias val="$logic_and"/>
    <s:alias val="$_AND_"/>
    <path d="M0,0 L0,25 L15,25 A15 12.5 0 0 0 15,0 Z" class="cell_$auto$aigmap.cc:123:execute$13"/>
    <g s:x="0" s:y="5" s:pid="A"/>
    <g s:x="0" s:y="20" s:pid="B"/>
    <g s:x="30" s:y="12.5" s:pid="Y"/>
  </g>
  <g s:type="and" transform="translate(173,203)" s:width="30" s:height="25" id="cell_$auto$aigmap.cc:123:execute$17">
    <s:alias val="$and"/>
    <s:alias val="$logic_and"/>
    <s:alias val="$_AND_"/>
    <path d="M0,0 L0,25 L15,25 A15 12.5 0 0 0 15,0 Z" class="cell_$auto$aigmap.cc:123:execute$17"/>
    <g s:x="0" s:y="5" s:pid="A"/>
    <g s:x="0" s:y="20" s:pid="B"/>
    <g s:x="30" s:y="12.5" s:pid="Y"/>
  </g>
  <g s:type="and" transform="translate(303,150.5)" s:width="30" s:height="25" id="cell_$auto$aigmap.cc:123:execute$21">
    <s:alias val="$and"/>
    <s:alias val="$logic_and"/>
    <s:alias val="$_AND_"/>
    <path d="M0,0 L0,25 L15,25 A15 12.5 0 0 0 15,0 Z" class="cell_$auto$aigmap.cc:123:execute$21"/>
    <g s:x="0" s:y="5" s:pid="A"/>
    <g s:x="0" s:y="20" s:pid="B"/>
    <g s:x="30" s:y="12.5" s:pid="Y"/>
  </g>
  <g s:type="and" transform="translate(173,263)" s:width="30" s:height="25" id="cell_$auto$aigmap.cc:123:execute$25">
    <s:alias val="$and"/>
    <s:alias val="$logic_and"/>
    <s:alias val="$_AND_"/>
    <path d="M0,0 L0,25 L15,25 A15 12.5 0 0 0 15,0 Z" class="cell_$auto$aigmap.cc:123:execute$25"/>
    <g s:x="0" s:y="5" s:pid="A"/>
    <g s:x="0" s:y="20" s:pid="B"/>
    <g s:x="30" s:y="12.5" s:pid="Y"/>
  </g>
  <g s:type="and" transform="translate(173,323)" s:width="30" s:height="25" id="cell_$auto$aigmap.cc:123:execute$29">
    <s:alias val="$and"/>
    <s:alias val="$logic_and"/>
    <s:alias val="$_AND_"/>
    <path d="M0,0 L0,25 L15,25 A15 12.5 0 0 0 15,0 Z" class="cell_$auto$aigmap.cc:123:execute$29"/>
    <g s:x="0" s:y="5" s:pid="A"/>
    <g s:x="0" s:y="20" s:pid="B"/>
    <g s:x="30" s:y="12.5" s:pid="Y"/>
  </g>
  <g s:type="and" transform="translate(303,270.5)" s:width="30" s:height="25" id="cell_$auto$aigmap.cc:123:execute$33">
    <s:alias val="$and"/>
    <s:alias val="$logic_and"/>
    <s:alias val="$_AND_"/>
    <path d="M0,0 L0,25 L15,25 A15 12.5 0 0 0 15,0 Z" class="cell_$auto$aigmap.cc:123:execute$33"/>
    <g s:x="0" s:y="5" s:pid="A"/>
    <g s:x="0" s:y="20" s:pid="B"/>
    <g s:x="30" s:y="12.5" s:pid="Y"/>
  </g>
  <g s:type="and" transform="translate(173,383)" s:width="30" s:height="25" id="cell_$auto$aigmap.cc:123:execute$37">
    <s:alias val="$and"/>
    <s:alias val="$logic_and"/>
    <s:alias val="$_AND_"/>
    <path d="M0,0 L0,25 L15,25 A15 12.5 0 0 0 15,0 Z" class="cell_$auto$aigmap.cc:123:execute$37"/>
    <g s:x="0" s:y="5" s:pid="A"/>
    <g s:x="0" s:y="20" s:pid="B"/>
    <g s:x="30" s:y="12.5" s:pid="Y"/>
  </g>
  <g s:type="and" transform="translate(173,443)" s:width="30" s:height="25" id="cell_$auto$aigmap.cc:123:execute$41">
    <s:alias val="$and"/>
    <s:alias val="$logic_and"/>
    <s:alias val="$_AND_"/>
    <path d="M0,0 L0,25 L15,25 A15 12.5 0 0 0 15,0 Z" class="cell_$auto$aigmap.cc:123:execute$41"/>
    <g s:x="0" s:y="5" s:pid="A"/>
    <g s:x="0" s:y="20" s:pid="B"/>
    <g s:x="30" s:y="12.5" s:pid="Y"/>
  </g>
  <g s:type="and" transform="translate(303,390.5)" s:width="30" s:height="25" id="cell_$auto$aigmap.cc:123:execute$45">
    <s:alias val="$and"/>
    <s:alias val="$logic_and"/>
    <s:alias val="$_AND_"/>
    <path d="M0,0 L0,25 L15,25 A15 12.5 0 0 0 15,0 Z" class="cell_$auto$aigmap.cc:123:execute$45"/>
    <g s:x="0" s:y="5" s:pid="A"/>
    <g s:x="0" s:y="20" s:pid="B"/>
    <g s:x="30" s:y="12.5" s:pid="Y"/>
  </g>
  <g s:type="and" transform="translate(173,503)" s:width="30" s:height="25" id="cell_$auto$aigmap.cc:123:execute$49">
    <s:alias val="$and"/>
    <s:alias val="$logic_and"/>
    <s:alias val="$_AND_"/>
    <path d="M0,0 L0,25 L15,25 A15 12.5 0 0 0 15,0 Z" class="cell_$auto$aigmap.cc:123:execute$49"/>
    <g s:x="0" s:y="5" s:pid="A"/>
    <g s:x="0" s:y="20" s:pid="B"/>
    <g s:x="30" s:y="12.5" s:pid="Y"/>
  </g>
  <g s:type="and" transform="translate(173,563)" s:width="30" s:height="25" id="cell_$auto$aigmap.cc:123:execute$53">
    <s:alias val="$and"/>
    <s:alias val="$logic_and"/>
    <s:alias val="$_AND_"/>
    <path d="M0,0 L0,25 L15,25 A15 12.5 0 0 0 15,0 Z" class="cell_$auto$aigmap.cc:123:execute$53"/>
    <g s:x="0" s:y="5" s:pid="A"/>
    <g s:x="0" s:y="20" s:pid="B"/>
    <g s:x="30" s:y="12.5" s:pid="Y"/>
  </g>
  <g s:type="and" transform="translate(303,510.5)" s:width="30" s:height="25" id="cell_$auto$aigmap.cc:123:execute$57">
    <s:alias val="$and"/>
    <s:alias val="$logic_and"/>
    <s:alias val="$_AND_"/>
    <path d="M0,0 L0,25 L15,25 A15 12.5 0 0 0 15,0 Z" class="cell_$auto$aigmap.cc:123:execute$57"/>
    <g s:x="0" s:y="5" s:pid="A"/>
    <g s:x="0" s:y="20" s:pid="B"/>
    <g s:x="30" s:y="12.5" s:pid="Y"/>
  </g>
  <g s:type="and" transform="translate(173,623)" s:width="30" s:height="25" id="cell_$auto$aigmap.cc:123:execute$61">
    <s:alias val="$and"/>
    <s:alias val="$logic_and"/>
    <s:alias val="$_AND_"/>
    <path d="M0,0 L0,25 L15,25 A15 12.5 0 0 0 15,0 Z" class="cell_$auto$aigmap.cc:123:execute$61"/>
    <g s:x="0" s:y="5" s:pid="A"/>
    <g s:x="0" s:y="20" s:pid="B"/>
    <g s:x="30" s:y="12.5" s:pid="Y"/>
  </g>
  <g s:type="and" transform="translate(173,683)" s:width="30" s:height="25" id="cell_$auto$aigmap.cc:123:execute$65">
    <s:alias val="$and"/>
    <s:alias val="$logic_and"/>
    <s:alias val="$_AND_"/>
    <path d="M0,0 L0,25 L15,25 A15 12.5 0 0 0 15,0 Z" class="cell_$auto$aigmap.cc:123:execute$65"/>
    <g s:x="0" s:y="5" s:pid="A"/>
    <g s:x="0" s:y="20" s:pid="B"/>
    <g s:x="30" s:y="12.5" s:pid="Y"/>
  </g>
  <g s:type="and" transform="translate(303,630.5)" s:width="30" s:height="25" id="cell_$auto$aigmap.cc:123:execute$69">
    <s:alias val="$and"/>
    <s:alias val="$logic_and"/>
    <s:alias val="$_AND_"/>
    <path d="M0,0 L0,25 L15,25 A15 12.5 0 0 0 15,0 Z" class="cell_$auto$aigmap.cc:123:execute$69"/>
    <g s:x="0" s:y="5" s:pid="A"/>
    <g s:x="0" s:y="20" s:pid="B"/>
    <g s:x="30" s:y="12.5" s:pid="Y"/>
  </g>
  <g s:type="and" transform="translate(173,743)" s:width="30" s:height="25" id="cell_$auto$aigmap.cc:123:execute$73">
    <s:alias val="$and"/>
    <s:alias val="$logic_and"/>
    <s:alias val="$_AND_"/>
    <path d="M0,0 L0,25 L15,25 A15 12.5 0 0 0 15,0 Z" class="cell_$auto$aigmap.cc:123:execute$73"/>
    <g s:x="0" s:y="5" s:pid="A"/>
    <g s:x="0" s:y="20" s:pid="B"/>
    <g s:x="30" s:y="12.5" s:pid="Y"/>
  </g>
  <g s:type="and" transform="translate(173,803)" s:width="30" s:height="25" id="cell_$auto$aigmap.cc:123:execute$77">
    <s:alias val="$and"/>
    <s:alias val="$logic_and"/>
    <s:alias val="$_AND_"/>
    <path d="M0,0 L0,25 L15,25 A15 12.5 0 0 0 15,0 Z" class="cell_$auto$aigmap.cc:123:execute$77"/>
    <g s:x="0" s:y="5" s:pid="A"/>
    <g s:x="0" s:y="20" s:pid="B"/>
    <g s:x="30" s:y="12.5" s:pid="Y"/>
  </g>
  <g s:type="and" transform="translate(303,750.5)" s:width="30" s:height="25" id="cell_$auto$aigmap.cc:123:execute$81">
    <s:alias val="$and"/>
    <s:alias val="$logic_and"/>
    <s:alias val="$_AND_"/>
    <path d="M0,0 L0,25 L15,25 A15 12.5 0 0 0 15,0 Z" class="cell_$auto$aigmap.cc:123:execute$81"/>
    <g s:x="0" s:y="5" s:pid="A"/>
    <g s:x="0" s:y="20" s:pid="B"/>
    <g s:x="30" s:y="12.5" s:pid="Y"/>
  </g>
  <g s:type="and" transform="translate(173,863)" s:width="30" s:height="25" id="cell_$auto$aigmap.cc:123:execute$85">
    <s:alias val="$and"/>
    <s:alias val="$logic_and"/>
    <s:alias val="$_AND_"/>
    <path d="M0,0 L0,25 L15,25 A15 12.5 0 0 0 15,0 Z" class="cell_$auto$aigmap.cc:123:execute$85"/>
    <g s:x="0" s:y="5" s:pid="A"/>
    <g s:x="0" s:y="20" s:pid="B"/>
    <g s:x="30" s:y="12.5" s:pid="Y"/>
  </g>
  <g s:type="and" transform="translate(173,923)" s:width="30" s:height="25" id="cell_$auto$aigmap.cc:123:execute$89">
    <s:alias val="$and"/>
    <s:alias val="$logic_and"/>
    <s:alias val="$_AND_"/>
    <path d="M0,0 L0,25 L15,25 A15 12.5 0 0 0 15,0 Z" class="cell_$auto$aigmap.cc:123:execute$89"/>
    <g s:x="0" s:y="5" s:pid="A"/>
    <g s:x="0" s:y="20" s:pid="B"/>
    <g s:x="30" s:y="12.5" s:pid="Y"/>
  </g>
  <g s:type="and" transform="translate(303,870.5)" s:width="30" s:height="25" id="cell_$auto$aigmap.cc:123:execute$93">
    <s:alias val="$and"/>
    <s:alias val="$logic_and"/>
    <s:alias val="$_AND_"/>
    <path d="M0,0 L0,25 L15,25 A15 12.5 0 0 0 15,0 Z" class="cell_$auto$aigmap.cc:123:execute$93"/>
    <g s:x="0" s:y="5" s:pid="A"/>
    <g s:x="0" s:y="20" s:pid="B"/>
    <g s:x="30" s:y="12.5" s:pid="Y"/>
  </g>
  <g s:type="and" transform="translate(173,12)" s:width="30" s:height="25" id="cell_$auto$aigmap.cc:123:execute$99">
    <s:alias val="$and"/>
    <s:alias val="$logic_and"/>
    <s:alias val="$_AND_"/>
    <path d="M0,0 L0,25 L15,25 A15 12.5 0 0 0 15,0 Z" class="cell_$auto$aigmap.cc:123:execute$99"/>
    <g s:x="0" s:y="5" s:pid="A"/>
    <g s:x="0" s:y="20" s:pid="B"/>
    <g s:x="30" s:y="12.5" s:pid="Y"/>
  </g>
  <g s:type="not" transform="translate(238,14.5)" s:width="30" s:height="20" id="cell_$auto$aigmap.cc:132:execute$101">
    <s:alias val="$_NOT_"/>
    <s:alias val="$not"/>
    <s:alias val="$logic_not"/>
    <path d="M0,0 L0,20 L20,10 Z" class="cell_$auto$aigmap.cc:132:execute$101"/>
    <circle cx="23" cy="10" r="3" class="cell_$auto$aigmap.cc:132:execute$101"/>
    <g s:x="0" s:y="10" s:pid="A"/>
    <g s:x="25" s:y="10" s:pid="Y"/>
  </g>
  <g s:type="not" transform="translate(238,85.5)" s:width="30" s:height="20" id="cell_$auto$aigmap.cc:132:execute$105">
    <s:alias val="$_NOT_"/>
    <s:alias val="$not"/>
    <s:alias val="$logic_not"/>
    <path d="M0,0 L0,20 L20,10 Z" class="cell_$auto$aigmap.cc:132:execute$105"/>
    <circle cx="23" cy="10" r="3" class="cell_$auto$aigmap.cc:132:execute$105"/>
    <g s:x="0" s:y="10" s:pid="A"/>
    <g s:x="25" s:y="10" s:pid="Y"/>
  </g>
  <g s:type="not" transform="translate(368,22)" s:width="30" s:height="20" id="cell_$auto$aigmap.cc:132:execute$109">
    <s:alias val="$_NOT_"/>
    <s:alias val="$not"/>
    <s:alias val="$logic_not"/>
    <path d="M0,0 L0,20 L20,10 Z" class="cell_$auto$aigmap.cc:132:execute$109"/>
    <circle cx="23" cy="10" r="3" class="cell_$auto$aigmap.cc:132:execute$109"/>
    <g s:x="0" s:y="10" s:pid="A"/>
    <g s:x="25" s:y="10" s:pid="Y"/>
  </g>
  <g s:type="not" transform="translate(83,953)" s:width="30" s:height="20" id="cell_$auto$aigmap.cc:132:execute$11">
    <s:alias val="$_NOT_"/>
    <s:alias val="$not"/>
    <s:alias val="$logic_not"/>
    <path d="M0,0 L0,20 L20,10 Z" class="cell_$auto$aigmap.cc:132:execute$11"/>
    <circle cx="23" cy="10" r="3" class="cell_$auto$aigmap.cc:132:execute$11"/>
    <g s:x="0" s:y="10" s:pid="A"/>
    <g s:x="25" s:y="10" s:pid="Y"/>
  </g>
  <g s:type="not" transform="translate(238,145.5)" s:width="30" s:height="20" id="cell_$auto$aigmap.cc:132:execute$15">
    <s:alias val="$_NOT_"/>
    <s:alias val="$not"/>
    <s:alias val="$logic_not"/>
    <path d="M0,0 L0,20 L20,10 Z" class="cell_$auto$aigmap.cc:132:execute$15"/>
    <circle cx="23" cy="10" r="3" class="cell_$auto$aigmap.cc:132:execute$15"/>
    <g s:x="0" s:y="10" s:pid="A"/>
    <g s:x="25" s:y="10" s:pid="Y"/>
  </g>
  <g s:type="not" transform="translate(238,205.5)" s:width="30" s:height="20" id="cell_$auto$aigmap.cc:132:execute$19">
    <s:alias val="$_NOT_"/>
    <s:alias val="$not"/>
    <s:alias val="$logic_not"/>
    <path d="M0,0 L0,20 L20,10 Z" class="cell_$auto$aigmap.cc:132:execute$19"/>
    <circle cx="23" cy="10" r="3" class="cell_$auto$aigmap.cc:132:execute$19"/>
    <g s:x="0" s:y="10" s:pid="A"/>
    <g s:x="25" s:y="10" s:pid="Y"/>
  </g>
  <g s:type="not" transform="translate(368,153)" s:width="30" s:height="20" id="cell_$auto$aigmap.cc:132:execute$23">
    <s:alias val="$_NOT_"/>
    <s:alias val="$not"/>
    <s:alias val="$logic_not"/>
    <path d="M0,0 L0,20 L20,10 Z" class="cell_$auto$aigmap.cc:132:execute$23"/>
    <circle cx="23" cy="10" r="3" class="cell_$auto$aigmap.cc:132:execute$23"/>
    <g s:x="0" s:y="10" s:pid="A"/>
    <g s:x="25" s:y="10" s:pid="Y"/>
  </g>
  <g s:type="not" transform="translate(238,265.5)" s:width="30" s:height="20" id="cell_$auto$aigmap.cc:132:execute$27">
    <s:alias val="$_NOT_"/>
    <s:alias val="$not"/>
    <s:alias val="$logic_not"/>
    <path d="M0,0 L0,20 L20,10 Z" class="cell_$auto$aigmap.cc:132:execute$27"/>
    <circle cx="23" cy="10" r="3" class="cell_$auto$aigmap.cc:132:execute$27"/>
    <g s:x="0" s:y="10" s:pid="A"/>
    <g s:x="25" s:y="10" s:pid="Y"/>
  </g>
  <g s:type="not" transform="translate(238,325.5)" s:width="30" s:height="20" id="cell_$auto$aigmap.cc:132:execute$31">
    <s:alias val="$_NOT_"/>
    <s:alias val="$not"/>
    <s:alias val="$logic_not"/>
    <path d="M0,0 L0,20 L20,10 Z" class="cell_$auto$aigmap.cc:132:execute$31"/>
    <circle cx="23" cy="10" r="3" class="cell_$auto$aigmap.cc:132:execute$31"/>
    <g s:x="0" s:y="10" s:pid="A"/>
    <g s:x="25" s:y="10" s:pid="Y"/>
  </g>
  <g s:type="not" transform="translate(368,273)" s:width="30" s:height="20" id="cell_$auto$aigmap.cc:132:execute$35">
    <s:alias val="$_NOT_"/>
    <s:alias val="$not"/>
    <s:alias val="$logic_not"/>
    <path d="M0,0 L0,20 L20,10 Z" class="cell_$auto$aigmap.cc:132:execute$35"/>
    <circle cx="23" cy="10" r="3" class="cell_$auto$aigmap.cc:132:execute$35"/>
    <g s:x="0" s:y="10" s:pid="A"/>
    <g s:x="25" s:y="10" s:pid="Y"/>
  </g>
  <g s:type="not" transform="translate(238,385.5)" s:width="30" s:height="20" id="cell_$auto$aigmap.cc:132:execute$39">
    <s:alias val="$_NOT_"/>
    <s:alias val="$not"/>
    <s:alias val="$logic_not"/>
    <path d="M0,0 L0,20 L20,10 Z" class="cell_$auto$aigmap.cc:132:execute$39"/>
    <circle cx="23" cy="10" r="3" class="cell_$auto$aigmap.cc:132:execute$39"/>
    <g s:x="0" s:y="10" s:pid="A"/>
    <g s:x="25" s:y="10" s:pid="Y"/>
  </g>
  <g s:type="not" transform="translate(238,445.5)" s:width="30" s:height="20" id="cell_$auto$aigmap.cc:132:execute$43">
    <s:alias val="$_NOT_"/>
    <s:alias val="$not"/>
    <s:alias val="$logic_not"/>
    <path d="M0,0 L0,20 L20,10 Z" class="cell_$auto$aigmap.cc:132:execute$43"/>
    <circle cx="23" cy="10" r="3" class="cell_$auto$aigmap.cc:132:execute$43"/>
    <g s:x="0" s:y="10" s:pid="A"/>
    <g s:x="25" s:y="10" s:pid="Y"/>
  </g>
  <g s:type="not" transform="translate(368,393)" s:width="30" s:height="20" id="cell_$auto$aigmap.cc:132:execute$47">
    <s:alias val="$_NOT_"/>
    <s:alias val="$not"/>
    <s:alias val="$logic_not"/>
    <path d="M0,0 L0,20 L20,10 Z" class="cell_$auto$aigmap.cc:132:execute$47"/>
    <circle cx="23" cy="10" r="3" class="cell_$auto$aigmap.cc:132:execute$47"/>
    <g s:x="0" s:y="10" s:pid="A"/>
    <g s:x="25" s:y="10" s:pid="Y"/>
  </g>
  <g s:type="not" transform="translate(238,505.5)" s:width="30" s:height="20" id="cell_$auto$aigmap.cc:132:execute$51">
    <s:alias val="$_NOT_"/>
    <s:alias val="$not"/>
    <s:alias val="$logic_not"/>
    <path d="M0,0 L0,20 L20,10 Z" class="cell_$auto$aigmap.cc:132:execute$51"/>
    <circle cx="23" cy="10" r="3" class="cell_$auto$aigmap.cc:132:execute$51"/>
    <g s:x="0" s:y="10" s:pid="A"/>
    <g s:x="25" s:y="10" s:pid="Y"/>
  </g>
  <g s:type="not" transform="translate(238,565.5)" s:width="30" s:height="20" id="cell_$auto$aigmap.cc:132:execute$55">
    <s:alias val="$_NOT_"/>
    <s:alias val="$not"/>
    <s:alias val="$logic_not"/>
    <path d="M0,0 L0,20 L20,10 Z" class="cell_$auto$aigmap.cc:132:execute$55"/>
    <circle cx="23" cy="10" r="3" class="cell_$auto$aigmap.cc:132:execute$55"/>
    <g s:x="0" s:y="10" s:pid="A"/>
    <g s:x="25" s:y="10" s:pid="Y"/>
  </g>
  <g s:type="not" transform="translate(368,513)" s:width="30" s:height="20" id="cell_$auto$aigmap.cc:132:execute$59">
    <s:alias val="$_NOT_"/>
    <s:alias val="$not"/>
    <s:alias val="$logic_not"/>
    <path d="M0,0 L0,20 L20,10 Z" class="cell_$auto$aigmap.cc:132:execute$59"/>
    <circle cx="23" cy="10" r="3" class="cell_$auto$aigmap.cc:132:execute$59"/>
    <g s:x="0" s:y="10" s:pid="A"/>
    <g s:x="25" s:y="10" s:pid="Y"/>
  </g>
  <g s:type="not" transform="translate(238,625.5)" s:width="30" s:height="20" id="cell_$auto$aigmap.cc:132:execute$63">
    <s:alias val="$_NOT_"/>
    <s:alias val="$not"/>
    <s:alias val="$logic_not"/>
    <path d="M0,0 L0,20 L20,10 Z" class="cell_$auto$aigmap.cc:132:execute$63"/>
    <circle cx="23" cy="10" r="3" class="cell_$auto$aigmap.cc:132:execute$63"/>
    <g s:x="0" s:y="10" s:pid="A"/>
    <g s:x="25" s:y="10" s:pid="Y"/>
  </g>
  <g s:type="not" transform="translate(238,685.5)" s:width="30" s:height="20" id="cell_$auto$aigmap.cc:132:execute$67">
    <s:alias val="$_NOT_"/>
    <s:alias val="$not"/>
    <s:alias val="$logic_not"/>
    <path d="M0,0 L0,20 L20,10 Z" class="cell_$auto$aigmap.cc:132:execute$67"/>
    <circle cx="23" cy="10" r="3" class="cell_$auto$aigmap.cc:132:execute$67"/>
    <g s:x="0" s:y="10" s:pid="A"/>
    <g s:x="25" s:y="10" s:pid="Y"/>
  </g>
  <g s:type="not" transform="translate(368,633)" s:width="30" s:height="20" id="cell_$auto$aigmap.cc:132:execute$71">
    <s:alias val="$_NOT_"/>
    <s:alias val="$not"/>
    <s:alias val="$logic_not"/>
    <path d="M0,0 L0,20 L20,10 Z" class="cell_$auto$aigmap.cc:132:execute$71"/>
    <circle cx="23" cy="10" r="3" class="cell_$auto$aigmap.cc:132:execute$71"/>
    <g s:x="0" s:y="10" s:pid="A"/>
    <g s:x="25" s:y="10" s:pid="Y"/>
  </g>
  <g s:type="not" transform="translate(238,745.5)" s:width="30" s:height="20" id="cell_$auto$aigmap.cc:132:execute$75">
    <s:alias val="$_NOT_"/>
    <s:alias val="$not"/>
    <s:alias val="$logic_not"/>
    <path d="M0,0 L0,20 L20,10 Z" class="cell_$auto$aigmap.cc:132:execute$75"/>
    <circle cx="23" cy="10" r="3" class="cell_$auto$aigmap.cc:132:execute$75"/>
    <g s:x="0" s:y="10" s:pid="A"/>
    <g s:x="25" s:y="10" s:pid="Y"/>
  </g>
  <g s:type="not" transform="translate(238,805.5)" s:width="30" s:height="20" id="cell_$auto$aigmap.cc:132:execute$79">
    <s:alias val="$_NOT_"/>
    <s:alias val="$not"/>
    <s:alias val="$logic_not"/>
    <path d="M0,0 L0,20 L20,10 Z" class="cell_$auto$aigmap.cc:132:execute$79"/>
    <circle cx="23" cy="10" r="3" class="cell_$auto$aigmap.cc:132:execute$79"/>
    <g s:x="0" s:y="10" s:pid="A"/>
    <g s:x="25" s:y="10" s:pid="Y"/>
  </g>
  <g s:type="not" transform="translate(368,753)" s:width="30" s:height="20" id="cell_$auto$aigmap.cc:132:execute$83">
    <s:alias val="$_NOT_"/>
    <s:alias val="$not"/>
    <s:alias val="$logic_not"/>
    <path d="M0,0 L0,20 L20,10 Z" class="cell_$auto$aigmap.cc:132:execute$83"/>
    <circle cx="23" cy="10" r="3" class="cell_$auto$aigmap.cc:132:execute$83"/>
    <g s:x="0" s:y="10" s:pid="A"/>
    <g s:x="25" s:y="10" s:pid="Y"/>
  </g>
  <g s:type="not" transform="translate(238,865.5)" s:width="30" s:height="20" id="cell_$auto$aigmap.cc:132:execute$87">
    <s:alias val="$_NOT_"/>
    <s:alias val="$not"/>
    <s:alias val="$logic_not"/>
    <path d="M0,0 L0,20 L20,10 Z" class="cell_$auto$aigmap.cc:132:execute$87"/>
    <circle cx="23" cy="10" r="3" class="cell_$auto$aigmap.cc:132:execute$87"/>
    <g s:x="0" s:y="10" s:pid="A"/>
    <g s:x="25" s:y="10" s:pid="Y"/>
  </g>
  <g s:type="not" transform="translate(238,925.5)" s:width="30" s:height="20" id="cell_$auto$aigmap.cc:132:execute$91">
    <s:alias val="$_NOT_"/>
    <s:alias val="$not"/>
    <s:alias val="$logic_not"/>
    <path d="M0,0 L0,20 L20,10 Z" class="cell_$auto$aigmap.cc:132:execute$91"/>
    <circle cx="23" cy="10" r="3" class="cell_$auto$aigmap.cc:132:execute$91"/>
    <g s:x="0" s:y="10" s:pid="A"/>
    <g s:x="25" s:y="10" s:pid="Y"/>
  </g>
  <g s:type="not" transform="translate(368,873)" s:width="30" s:height="20" id="cell_$auto$aigmap.cc:132:execute$95">
    <s:alias val="$_NOT_"/>
    <s:alias val="$not"/>
    <s:alias val="$logic_not"/>
    <path d="M0,0 L0,20 L20,10 Z" class="cell_$auto$aigmap.cc:132:execute$95"/>
    <circle cx="23" cy="10" r="3" class="cell_$auto$aigmap.cc:132:execute$95"/>
    <g s:x="0" s:y="10" s:pid="A"/>
    <g s:x="25" s:y="10" s:pid="Y"/>
  </g>
  <g s:type="not" transform="translate(83,93)" s:width="30" s:height="20" id="cell_$auto$aigmap.cc:132:execute$97">
    <s:alias val="$_NOT_"/>
    <s:alias val="$not"/>
    <s:alias val="$logic_not"/>
    <path d="M0,0 L0,20 L20,10 Z" class="cell_$auto$aigmap.cc:132:execute$97"/>
    <circle cx="23" cy="10" r="3" class="cell_$auto$aigmap.cc:132:execute$97"/>
    <g s:x="0" s:y="10" s:pid="A"/>
    <g s:x="25" s:y="10" s:pid="Y"/>
  </g>
  <g s:type="dff" transform="translate(523,143)" s:width="30" s:height="40" id="cell_$procdff$9">
    <s:alias val="$dff"/>
    <s:alias val="$_DFF_"/>
    <s:alias val="$_DFF_P_"/>
    <rect width="30" height="40" x="0" y="0" class="cell_$procdff$9"/>
    <path d="M0,35 L5,30 L0,25" class="cell_$procdff$9"/>
    <g s:x="30" s:y="10" s:pid="Q"/>
    <g s:x="0" s:y="30" s:pid="CLK"/>
    <g s:x="0" s:y="30" s:pid="C"/>
    <g s:x="0" s:y="10" s:pid="D"/>
  </g>
  <g s:type="generic" transform="translate(595,142.5)" s:width="30" s:height="40" id="cell_$shiftx$top_module.v:0$1">
    <text x="15" y="-4" class="nodelabel cell_$shiftx$top_module.v:0$1" s:attribute="ref">$shiftx</text>
    <rect width="30" height="40" s:generic="body" class="cell_$shiftx$top_module.v:0$1"/>
    <g transform="translate(0,10)" s:x="0" s:y="10" s:pid="in0" id="port_$shiftx$top_module.v:0$1~A">
      <text x="-3" y="-4" class="inputPortLabel cell_$shiftx$top_module.v:0$1">A</text>
    </g>
    <g transform="translate(0,30)" s:x="0" s:y="10" s:pid="in0" id="port_$shiftx$top_module.v:0$1~B">
      <text x="-3" y="-4" class="inputPortLabel cell_$shiftx$top_module.v:0$1">B</text>
    </g>
    <g transform="translate(30,10)" s:x="30" s:y="10" s:pid="out0" id="port_$shiftx$top_module.v:0$1~Y">
      <text x="5" y="-4" style="fill:#000; stroke:none" class="cell_$shiftx$top_module.v:0$1">Y</text>
    </g>
  </g>
  <g s:type="inputExt" transform="translate(458,903)" s:width="30" s:height="20" id="cell_clk">
    <text x="15" y="-4" class="nodelabel cell_clk" s:attribute="ref">clk</text>
    <s:alias val="$_inputExt_"/>
    <path d="M0,0 L0,20 L15,20 L30,10 L15,0 Z" class="cell_clk"/>
    <g s:x="28" s:y="10" s:pid="Y"/>
  </g>
  <g s:type="inputExt" transform="translate(12,258)" s:width="30" s:height="20" id="cell_enable">
    <text x="15" y="-4" class="nodelabel cell_enable" s:attribute="ref">enable</text>
    <s:alias val="$_inputExt_"/>
    <path d="M0,0 L0,20 L15,20 L30,10 L15,0 Z" class="cell_enable"/>
    <g s:x="28" s:y="10" s:pid="Y"/>
  </g>
  <g s:type="inputExt" transform="translate(83,38)" s:width="30" s:height="20" id="cell_S">
    <text x="15" y="-4" class="nodelabel cell_S" s:attribute="ref">S</text>
    <s:alias val="$_inputExt_"/>
    <path d="M0,0 L0,20 L15,20 L30,10 L15,0 Z" class="cell_S"/>
    <g s:x="28" s:y="10" s:pid="Y"/>
  </g>
  <g s:type="inputExt" transform="translate(458,1145)" s:width="30" s:height="20" id="cell_A">
    <text x="15" y="-4" class="nodelabel cell_A" s:attribute="ref">A</text>
    <s:alias val="$_inputExt_"/>
    <path d="M0,0 L0,20 L15,20 L30,10 L15,0 Z" class="cell_A"/>
    <g s:x="28" s:y="10" s:pid="Y"/>
  </g>
  <g s:type="inputExt" transform="translate(458,1080)" s:width="30" s:height="20" id="cell_B">
    <text x="15" y="-4" class="nodelabel cell_B" s:attribute="ref">B</text>
    <s:alias val="$_inputExt_"/>
    <path d="M0,0 L0,20 L15,20 L30,10 L15,0 Z" class="cell_B"/>
    <g s:x="28" s:y="10" s:pid="Y"/>
  </g>
  <g s:type="inputExt" transform="translate(458,1015)" s:width="30" s:height="20" id="cell_C">
    <text x="15" y="-4" class="nodelabel cell_C" s:attribute="ref">C</text>
    <s:alias val="$_inputExt_"/>
    <path d="M0,0 L0,20 L15,20 L30,10 L15,0 Z" class="cell_C"/>
    <g s:x="28" s:y="10" s:pid="Y"/>
  </g>
  <g s:type="outputExt" transform="translate(774,143)" s:width="30" s:height="20" id="cell_Z">
    <text x="15" y="-4" class="nodelabel cell_Z" s:attribute="ref">Z</text>
    <s:alias val="$_outputExt_"/>
    <path d="M30,0 L30,20 L15,20 L0,10 L15,0 Z" class="cell_Z"/>
    <g s:x="0" s:y="10" s:pid="A"/>
  </g>
  <g s:type="join" transform="translate(461.7142857142857,132.5)" s:width="4" s:height="40" id="cell_$join$,59,60,61,62,63,64,65,66,">
    <rect width="5" height="160" class="splitjoinBody" s:generic="body"/>
    <s:alias val="$_join_"/>
    <g s:x="5" s:y="20" s:pid="out"/>
    <g transform="translate(0,10)" s:x="0" s:y="10" s:pid="in0">
      <text x="-3" y="-4" class="inputPortLabel">0</text>
    </g>
    <g transform="translate(0,30)" s:x="0" s:y="10" s:pid="in0">
      <text x="-3" y="-4" class="inputPortLabel">1</text>
    </g>
    <g transform="translate(0,50)" s:x="0" s:y="10" s:pid="in0">
      <text x="-3" y="-4" class="inputPortLabel">2</text>
    </g>
    <g transform="translate(0,70)" s:x="0" s:y="10" s:pid="in0">
      <text x="-3" y="-4" class="inputPortLabel">3</text>
    </g>
    <g transform="translate(0,90)" s:x="0" s:y="10" s:pid="in0">
      <text x="-3" y="-4" class="inputPortLabel">4</text>
    </g>
    <g transform="translate(0,110)" s:x="0" s:y="10" s:pid="in0">
      <text x="-3" y="-4" class="inputPortLabel">5</text>
    </g>
    <g transform="translate(0,130)" s:x="0" s:y="10" s:pid="in0">
      <text x="-3" y="-4" class="inputPortLabel">6</text>
    </g>
    <g transform="translate(0,150)" s:x="0" s:y="10" s:pid="in0">
      <text x="-3" y="-4" class="inputPortLabel">7</text>
    </g>
  </g>
  <g s:type="join" transform="translate(533,1014.5)" s:width="4" s:height="40" id="cell_$join$,7,6,5,">
    <rect width="5" height="60" class="splitjoinBody" s:generic="body"/>
    <s:alias val="$_join_"/>
    <g s:x="5" s:y="20" s:pid="out"/>
    <g transform="translate(0,10)" s:x="0" s:y="10" s:pid="in0">
      <text x="-3" y="-4" class="inputPortLabel">0</text>
    </g>
    <g transform="translate(0,30)" s:x="0" s:y="10" s:pid="in0">
      <text x="-3" y="-4" class="inputPortLabel">1</text>
    </g>
    <g transform="translate(0,50)" s:x="0" s:y="10" s:pid="in0">
      <text x="-3" y="-4" class="inputPortLabel">2</text>
    </g>
  </g>
  <g s:type="split" transform="translate(101,452.5)" s:width="5" s:height="40" id="cell_$split$,9,16,23,29,35,41,47,53,">
    <rect width="5" height="160" class="splitjoinBody" s:generic="body"/>
    <s:alias val="$_split_"/>
    <g s:x="0" s:y="20" s:pid="in"/>
    <g transform="translate(4,10)" s:x="4" s:y="10" s:pid="out0">
      <text x="5" y="-4">0</text>
    </g>
    <g transform="translate(4,30)" s:x="4" s:y="10" s:pid="out0">
      <text x="5" y="-4">1</text>
    </g>
    <g transform="translate(4,50)" s:x="4" s:y="10" s:pid="out0">
      <text x="5" y="-4">2</text>
    </g>
    <g transform="translate(4,70)" s:x="4" s:y="10" s:pid="out0">
      <text x="5" y="-4">3</text>
    </g>
    <g transform="translate(4,90)" s:x="4" s:y="10" s:pid="out0">
      <text x="5" y="-4">4</text>
    </g>
    <g transform="translate(4,110)" s:x="4" s:y="10" s:pid="out0">
      <text x="5" y="-4">5</text>
    </g>
    <g transform="translate(4,130)" s:x="4" s:y="10" s:pid="out0">
      <text x="5" y="-4">6</text>
    </g>
    <g transform="translate(4,150)" s:x="4" s:y="10" s:pid="out0">
      <text x="5" y="-4">7</text>
    </g>
  </g>
  <line x1="105.5" x2="105.5" y1="462.5" y2="163" class="net_9"/>
  <line x1="105.5" x2="123" y1="163" y2="163" class="net_9"/>
  <line x1="123" x2="123" y1="163" y2="88" class="net_9"/>
  <circle cx="123" cy="163" r="2" style="fill:#000" class="net_9"/>
  <line x1="123" x2="173" y1="88" y2="88" class="net_9"/>
  <line x1="105.5" x2="105.5" y1="462.5" y2="163" class="net_9"/>
  <line x1="105.5" x2="173" y1="163" y2="163" class="net_9"/>
  <line x1="108" x2="173" y1="103" y2="103" class="net_10"/>
  <line x1="263" x2="303" y1="24.5" y2="24.5" class="net_12"/>
  <line x1="263" x2="278" y1="95.5" y2="95.5" class="net_13"/>
  <line x1="278" x2="278" y1="95.5" y2="39.5" class="net_13"/>
  <line x1="278" x2="303" y1="39.5" y2="39.5" class="net_13"/>
  <line x1="40" x2="133" y1="268" y2="268" class="net_3"/>
  <line x1="133" x2="133" y1="268" y2="148" class="net_3"/>
  <circle cx="133" cy="268" r="2" style="fill:#000" class="net_3"/>
  <line x1="133" x2="173" y1="148" y2="148" class="net_3"/>
  <line x1="40" x2="173" y1="268" y2="268" class="net_3"/>
  <line x1="40" x2="133" y1="268" y2="268" class="net_3"/>
  <line x1="133" x2="133" y1="268" y2="388" class="net_3"/>
  <circle cx="133" cy="388" r="2" style="fill:#000" class="net_3"/>
  <line x1="133" x2="173" y1="388" y2="388" class="net_3"/>
  <line x1="40" x2="133" y1="268" y2="268" class="net_3"/>
  <line x1="133" x2="133" y1="268" y2="508" class="net_3"/>
  <line x1="133" x2="173" y1="508" y2="508" class="net_3"/>
  <line x1="40" x2="68" y1="268" y2="268" class="net_3"/>
  <line x1="68" x2="68" y1="268" y2="628" class="net_3"/>
  <circle cx="68" cy="268" r="2" style="fill:#000" class="net_3"/>
  <circle cx="68" cy="628" r="2" style="fill:#000" class="net_3"/>
  <line x1="68" x2="173" y1="628" y2="628" class="net_3"/>
  <line x1="40" x2="68" y1="268" y2="268" class="net_3"/>
  <line x1="68" x2="68" y1="268" y2="628" class="net_3"/>
  <line x1="68" x2="153" y1="628" y2="628" class="net_3"/>
  <line x1="153" x2="153" y1="628" y2="748" class="net_3"/>
  <circle cx="153" cy="628" r="2" style="fill:#000" class="net_3"/>
  <line x1="153" x2="173" y1="748" y2="748" class="net_3"/>
  <line x1="40" x2="68" y1="268" y2="268" class="net_3"/>
  <line x1="68" x2="68" y1="268" y2="983" class="net_3"/>
  <line x1="68" x2="153" y1="983" y2="983" class="net_3"/>
  <line x1="153" x2="153" y1="983" y2="868" class="net_3"/>
  <line x1="153" x2="173" y1="868" y2="868" class="net_3"/>
  <line x1="40" x2="68" y1="268" y2="268" class="net_3"/>
  <line x1="68" x2="68" y1="268" y2="17" class="net_3"/>
  <line x1="68" x2="173" y1="17" y2="17" class="net_3"/>
  <line x1="40" x2="68" y1="268" y2="268" class="net_3"/>
  <line x1="68" x2="68" y1="268" y2="963" class="net_3"/>
  <circle cx="68" cy="963" r="2" style="fill:#000" class="net_3"/>
  <line x1="68" x2="83" y1="963" y2="963" class="net_3"/>
  <line x1="40" x2="68" y1="268" y2="268" class="net_3"/>
  <line x1="68" x2="68" y1="268" y2="103" class="net_3"/>
  <circle cx="68" cy="103" r="2" style="fill:#000" class="net_3"/>
  <line x1="68" x2="83" y1="103" y2="103" class="net_3"/>
  <line x1="106" x2="123" y1="483" y2="483" class="net_16"/>
  <line x1="123" x2="123" y1="483" y2="208" class="net_16"/>
  <line x1="123" x2="173" y1="208" y2="208" class="net_16"/>
  <line x1="106" x2="123" y1="483" y2="483" class="net_16"/>
  <line x1="123" x2="123" y1="483" y2="283" class="net_16"/>
  <circle cx="123" cy="283" r="2" style="fill:#000" class="net_16"/>
  <line x1="123" x2="173" y1="283" y2="283" class="net_16"/>
  <line x1="108" x2="143" y1="963" y2="963" class="net_17"/>
  <line x1="143" x2="143" y1="963" y2="223" class="net_17"/>
  <line x1="143" x2="173" y1="223" y2="223" class="net_17"/>
  <line x1="108" x2="143" y1="963" y2="963" class="net_17"/>
  <line x1="143" x2="143" y1="963" y2="328" class="net_17"/>
  <circle cx="143" cy="328" r="2" style="fill:#000" class="net_17"/>
  <line x1="143" x2="173" y1="328" y2="328" class="net_17"/>
  <line x1="108" x2="143" y1="963" y2="963" class="net_17"/>
  <line x1="143" x2="143" y1="963" y2="448" class="net_17"/>
  <circle cx="143" cy="448" r="2" style="fill:#000" class="net_17"/>
  <line x1="143" x2="173" y1="448" y2="448" class="net_17"/>
  <line x1="108" x2="143" y1="963" y2="963" class="net_17"/>
  <line x1="143" x2="143" y1="963" y2="568" class="net_17"/>
  <circle cx="143" cy="568" r="2" style="fill:#000" class="net_17"/>
  <line x1="143" x2="173" y1="568" y2="568" class="net_17"/>
  <line x1="108" x2="143" y1="963" y2="963" class="net_17"/>
  <line x1="143" x2="143" y1="963" y2="688" class="net_17"/>
  <circle cx="143" cy="688" r="2" style="fill:#000" class="net_17"/>
  <line x1="143" x2="173" y1="688" y2="688" class="net_17"/>
  <line x1="108" x2="143" y1="963" y2="963" class="net_17"/>
  <line x1="143" x2="143" y1="963" y2="808" class="net_17"/>
  <circle cx="143" cy="808" r="2" style="fill:#000" class="net_17"/>
  <line x1="143" x2="173" y1="808" y2="808" class="net_17"/>
  <line x1="108" x2="143" y1="963" y2="963" class="net_17"/>
  <line x1="143" x2="143" y1="963" y2="928" class="net_17"/>
  <circle cx="143" cy="928" r="2" style="fill:#000" class="net_17"/>
  <line x1="143" x2="173" y1="928" y2="928" class="net_17"/>
  <line x1="263" x2="303" y1="155.5" y2="155.5" class="net_19"/>
  <line x1="263" x2="278" y1="215.5" y2="215.5" class="net_20"/>
  <line x1="278" x2="278" y1="215.5" y2="170.5" class="net_20"/>
  <line x1="278" x2="303" y1="170.5" y2="170.5" class="net_20"/>
  <line x1="106" x2="153" y1="503" y2="503" class="net_23"/>
  <line x1="153" x2="153" y1="503" y2="343" class="net_23"/>
  <line x1="153" x2="173" y1="343" y2="343" class="net_23"/>
  <line x1="106" x2="153" y1="503" y2="503" class="net_23"/>
  <line x1="153" x2="153" y1="503" y2="403" class="net_23"/>
  <circle cx="153" cy="403" r="2" style="fill:#000" class="net_23"/>
  <line x1="153" x2="173" y1="403" y2="403" class="net_23"/>
  <line x1="263" x2="303" y1="275.5" y2="275.5" class="net_25"/>
  <line x1="263" x2="278" y1="335.5" y2="335.5" class="net_26"/>
  <line x1="278" x2="278" y1="335.5" y2="290.5" class="net_26"/>
  <line x1="278" x2="303" y1="290.5" y2="290.5" class="net_26"/>
  <line x1="106" x2="163" y1="523" y2="523" class="net_29"/>
  <line x1="163" x2="163" y1="523" y2="463" class="net_29"/>
  <circle cx="163" cy="523" r="2" style="fill:#000" class="net_29"/>
  <line x1="163" x2="173" y1="463" y2="463" class="net_29"/>
  <line x1="106" x2="173" y1="523" y2="523" class="net_29"/>
  <line x1="263" x2="303" y1="395.5" y2="395.5" class="net_31"/>
  <line x1="263" x2="278" y1="455.5" y2="455.5" class="net_32"/>
  <line x1="278" x2="278" y1="455.5" y2="410.5" class="net_32"/>
  <line x1="278" x2="303" y1="410.5" y2="410.5" class="net_32"/>
  <line x1="106" x2="163" y1="543" y2="543" class="net_35"/>
  <line x1="163" x2="163" y1="543" y2="583" class="net_35"/>
  <circle cx="163" cy="583" r="2" style="fill:#000" class="net_35"/>
  <line x1="163" x2="173" y1="583" y2="583" class="net_35"/>
  <line x1="106" x2="163" y1="543" y2="543" class="net_35"/>
  <line x1="163" x2="163" y1="543" y2="643" class="net_35"/>
  <line x1="163" x2="173" y1="643" y2="643" class="net_35"/>
  <line x1="263" x2="303" y1="515.5" y2="515.5" class="net_37"/>
  <line x1="263" x2="278" y1="575.5" y2="575.5" class="net_38"/>
  <line x1="278" x2="278" y1="575.5" y2="530.5" class="net_38"/>
  <line x1="278" x2="303" y1="530.5" y2="530.5" class="net_38"/>
  <line x1="106" x2="133" y1="563" y2="563" class="net_41"/>
  <line x1="133" x2="133" y1="563" y2="703" class="net_41"/>
  <circle cx="133" cy="703" r="2" style="fill:#000" class="net_41"/>
  <line x1="133" x2="173" y1="703" y2="703" class="net_41"/>
  <line x1="106" x2="133" y1="563" y2="563" class="net_41"/>
  <line x1="133" x2="133" y1="563" y2="763" class="net_41"/>
  <line x1="133" x2="173" y1="763" y2="763" class="net_41"/>
  <line x1="263" x2="303" y1="635.5" y2="635.5" class="net_43"/>
  <line x1="263" x2="278" y1="695.5" y2="695.5" class="net_44"/>
  <line x1="278" x2="278" y1="695.5" y2="650.5" class="net_44"/>
  <line x1="278" x2="303" y1="650.5" y2="650.5" class="net_44"/>
  <line x1="106" x2="123" y1="583" y2="583" class="net_47"/>
  <line x1="123" x2="123" y1="583" y2="823" class="net_47"/>
  <circle cx="123" cy="823" r="2" style="fill:#000" class="net_47"/>
  <line x1="123" x2="173" y1="823" y2="823" class="net_47"/>
  <line x1="106" x2="123" y1="583" y2="583" class="net_47"/>
  <line x1="123" x2="123" y1="583" y2="883" class="net_47"/>
  <line x1="123" x2="173" y1="883" y2="883" class="net_47"/>
  <line x1="263" x2="303" y1="755.5" y2="755.5" class="net_49"/>
  <line x1="263" x2="278" y1="815.5" y2="815.5" class="net_50"/>
  <line x1="278" x2="278" y1="815.5" y2="770.5" class="net_50"/>
  <line x1="278" x2="303" y1="770.5" y2="770.5" class="net_50"/>
  <line x1="105.5" x2="105.5" y1="603.5" y2="943" class="net_53"/>
  <line x1="105.5" x2="173" y1="943" y2="943" class="net_53"/>
  <line x1="263" x2="303" y1="875.5" y2="875.5" class="net_55"/>
  <line x1="263" x2="278" y1="935.5" y2="935.5" class="net_56"/>
  <line x1="278" x2="278" y1="935.5" y2="890.5" class="net_56"/>
  <line x1="278" x2="303" y1="890.5" y2="890.5" class="net_56"/>
  <line x1="111" x2="123" y1="48" y2="48" class="net_4"/>
  <line x1="123" x2="123" y1="48" y2="32" class="net_4"/>
  <line x1="123" x2="173" y1="32" y2="32" class="net_4"/>
  <line x1="203" x2="238" y1="24.5" y2="24.5" class="net_58"/>
  <line x1="203" x2="238" y1="95.5" y2="95.5" class="net_11"/>
  <line x1="333" x2="368" y1="32" y2="32" class="net_14"/>
  <line x1="203" x2="238" y1="155.5" y2="155.5" class="net_15"/>
  <line x1="203" x2="238" y1="215.5" y2="215.5" class="net_18"/>
  <line x1="333" x2="368" y1="163" y2="163" class="net_21"/>
  <line x1="203" x2="238" y1="275.5" y2="275.5" class="net_22"/>
  <line x1="203" x2="238" y1="335.5" y2="335.5" class="net_24"/>
  <line x1="333" x2="368" y1="283" y2="283" class="net_27"/>
  <line x1="203" x2="238" y1="395.5" y2="395.5" class="net_28"/>
  <line x1="203" x2="238" y1="455.5" y2="455.5" class="net_30"/>
  <line x1="333" x2="368" y1="403" y2="403" class="net_33"/>
  <line x1="203" x2="238" y1="515.5" y2="515.5" class="net_34"/>
  <line x1="203" x2="238" y1="575.5" y2="575.5" class="net_36"/>
  <line x1="333" x2="368" y1="523" y2="523" class="net_39"/>
  <line x1="203" x2="238" y1="635.5" y2="635.5" class="net_40"/>
  <line x1="203" x2="238" y1="695.5" y2="695.5" class="net_42"/>
  <line x1="333" x2="368" y1="643" y2="643" class="net_45"/>
  <line x1="203" x2="238" y1="755.5" y2="755.5" class="net_46"/>
  <line x1="203" x2="238" y1="815.5" y2="815.5" class="net_48"/>
  <line x1="333" x2="368" y1="763" y2="763" class="net_51"/>
  <line x1="203" x2="238" y1="875.5" y2="875.5" class="net_52"/>
  <line x1="203" x2="238" y1="935.5" y2="935.5" class="net_54"/>
  <line x1="333" x2="368" y1="883" y2="883" class="net_57"/>
  <line x1="486" x2="498" y1="913" y2="913" class="net_2"/>
  <line x1="498" x2="498" y1="913" y2="173" class="net_2"/>
  <line x1="498" x2="523" y1="173" y2="173" class="net_2"/>
  <line x1="467.7142857142857" x2="523" y1="153" y2="153" class="net_59,60,61,62,63,64,65,66"/>
  <line x1="553" x2="595" y1="153" y2="153" class="net_9,16,23,29,35,41,47,53"/>
  <line x1="553" x2="563" y1="153" y2="153" class="net_9,16,23,29,35,41,47,53"/>
  <line x1="563" x2="563" y1="153" y2="994" class="net_9,16,23,29,35,41,47,53"/>
  <line x1="563" x2="58" y1="994" y2="994" class="net_9,16,23,29,35,41,47,53"/>
  <line x1="58" x2="58" y1="994" y2="473" class="net_9,16,23,29,35,41,47,53"/>
  <circle cx="563" cy="153" r="2" style="fill:#000" class="net_9,16,23,29,35,41,47,53"/>
  <line x1="58" x2="101" y1="473" y2="473" class="net_9,16,23,29,35,41,47,53"/>
  <line x1="539" x2="573" y1="1035" y2="1035" class="net_7,6,5"/>
  <line x1="573" x2="573" y1="1035" y2="173" class="net_7,6,5"/>
  <line x1="573" x2="595" y1="173" y2="173" class="net_7,6,5"/>
  <line x1="626" x2="774" y1="153" y2="153" class="net_8"/>
  <line x1="393" x2="462.2142857142857" y1="32" y2="32" class="net_59"/>
  <line x1="462.2142857142857" x2="462.2142857142857" y1="32" y2="142.5" class="net_59"/>
  <line x1="393" x2="461.7142857142857" y1="163" y2="163" class="net_60"/>
  <line x1="393" x2="408" y1="283" y2="283" class="net_61"/>
  <line x1="408" x2="408" y1="283" y2="183" class="net_61"/>
  <line x1="408" x2="461.7142857142857" y1="183" y2="183" class="net_61"/>
  <line x1="393" x2="418" y1="403" y2="403" class="net_62"/>
  <line x1="418" x2="418" y1="403" y2="203" class="net_62"/>
  <line x1="418" x2="461.7142857142857" y1="203" y2="203" class="net_62"/>
  <line x1="393" x2="428" y1="523" y2="523" class="net_63"/>
  <line x1="428" x2="428" y1="523" y2="223" class="net_63"/>
  <line x1="428" x2="461.7142857142857" y1="223" y2="223" class="net_63"/>
  <line x1="393" x2="438" y1="643" y2="643" class="net_64"/>
  <line x1="438" x2="438" y1="643" y2="243" class="net_64"/>
  <line x1="438" x2="461.7142857142857" y1="243" y2="243" class="net_64"/>
  <line x1="393" x2="448" y1="763" y2="763" class="net_65"/>
  <line x1="448" x2="448" y1="763" y2="263" class="net_65"/>
  <line x1="448" x2="461.7142857142857" y1="263" y2="263" class="net_65"/>
  <line x1="393" x2="462.2142857142857" y1="883" y2="883" class="net_66"/>
  <line x1="462.2142857142857" x2="462.2142857142857" y1="883" y2="283.5" class="net_66"/>
  <line x1="486" x2="533" y1="1025" y2="1025" class="net_7"/>
  <line x1="486" x2="498" y1="1090" y2="1090" class="net_6"/>
  <line x1="498" x2="498" y1="1090" y2="1045" class="net_6"/>
  <line x1="498" x2="533" y1="1045" y2="1045" class="net_6"/>
  <line x1="486" x2="508" y1="1155" y2="1155" class="net_5"/>
  <line x1="508" x2="508" y1="1155" y2="1065" class="net_5"/>
  <line x1="508" x2="533" y1="1065" y2="1065" class="net_5"/>
</svg>
