<?xml version="1.0" encoding="UTF-8" standalone="no"?>
<!DOCTYPE svg PUBLIC "-//W3C//DTD SVG 1.1//EN"
 "http://www.w3.org/Graphics/SVG/1.1/DTD/svg11.dtd">
<!-- Generated by graphviz version 4.0.0 (20220529.0937)
 -->
<!-- Title: top_module Pages: 1 -->
<svg width="2546pt" height="2071pt"
 viewBox="0.00 0.00 2545.61 2070.50" xmlns="http://www.w3.org/2000/svg" xmlns:xlink="http://www.w3.org/1999/xlink">
<g id="graph0" class="graph" transform="scale(1 1) rotate(0) translate(4 2066.5)">
<title>top_module</title>
<polygon fill="white" stroke="transparent" points="-4,4 -4,-2066.5 2541.61,-2066.5 2541.61,4 -4,4"/>
<text text-anchor="middle" x="1268.81" y="-7.8" font-family="Times New Roman,serif" font-size="14.00">top_module</text>
<!-- n1 -->
<g id="node1" class="node">
<title>n1</title>
<polygon fill="none" stroke="black" points="1293.73,-1680 1175.09,-1662 1293.73,-1644 1412.38,-1662 1293.73,-1680"/>
<text text-anchor="middle" x="1293.73" y="-1658.3" font-family="Times New Roman,serif" font-size="14.00">A_SB_LUT4_I3_O</text>
</g>
<!-- x11 -->
<g id="node26" class="node">
<title>x11</title>
<path fill="none" stroke="black" d="M1522.31,-1644C1522.31,-1644 1560.31,-1644 1560.31,-1644 1566.31,-1644 1572.31,-1650 1572.31,-1656 1572.31,-1656 1572.31,-1668 1572.31,-1668 1572.31,-1674 1566.31,-1680 1560.31,-1680 1560.31,-1680 1522.31,-1680 1522.31,-1680 1516.31,-1680 1510.31,-1674 1510.31,-1668 1510.31,-1668 1510.31,-1656 1510.31,-1656 1510.31,-1650 1516.31,-1644 1522.31,-1644"/>
<text text-anchor="middle" x="1541.31" y="-1658.3" font-family="Times New Roman,serif" font-size="14.00">3:3 &#45; 0:0</text>
</g>
<!-- n1&#45;&gt;x11 -->
<g id="edge35" class="edge">
<title>n1:e&#45;&gt;x11:w</title>
<path fill="none" stroke="#1b9e77" stroke-width="3" d="M1412.31,-1662C1452.29,-1662 1464.74,-1662 1500.21,-1662"/>
<polygon fill="#1b9e77" stroke="#1b9e77" stroke-width="3" points="1500.31,-1665.5 1510.31,-1662 1500.31,-1658.5 1500.31,-1665.5"/>
<text text-anchor="middle" x="1461.31" y="-1665.8" font-family="Times New Roman,serif" font-size="14.00" fill="#1b9e77">&lt;3&gt;</text>
</g>
<!-- n2 -->
<g id="node2" class="node">
<title>n2</title>
<polygon fill="none" stroke="black" points="2028.96,-1899 1911.15,-1881 2028.96,-1863 2146.76,-1881 2028.96,-1899"/>
<text text-anchor="middle" x="2028.96" y="-1877.3" font-family="Times New Roman,serif" font-size="14.00">Z_SB_LUT4_O_I0</text>
</g>
<!-- x13 -->
<g id="node29" class="node">
<title>x13</title>
<path fill="none" stroke="black" d="M2195.61,-1967C2195.61,-1967 2233.61,-1967 2233.61,-1967 2239.61,-1967 2245.61,-1973 2245.61,-1979 2245.61,-1979 2245.61,-1991 2245.61,-1991 2245.61,-1997 2239.61,-2003 2233.61,-2003 2233.61,-2003 2195.61,-2003 2195.61,-2003 2189.61,-2003 2183.61,-1997 2183.61,-1991 2183.61,-1991 2183.61,-1979 2183.61,-1979 2183.61,-1973 2189.61,-1967 2195.61,-1967"/>
<text text-anchor="middle" x="2214.61" y="-1981.3" font-family="Times New Roman,serif" font-size="14.00">0:0 &#45; 0:0</text>
</g>
<!-- n2&#45;&gt;x13 -->
<g id="edge48" class="edge">
<title>n2:e&#45;&gt;x13:w</title>
<path fill="none" stroke="#1b9e77" d="M2146.61,-1881C2167.69,-1881 2161.75,-1957.81 2175.23,-1979.41"/>
<polygon fill="#1b9e77" stroke="#1b9e77" points="2173.35,-1982.36 2183.61,-1985 2177.23,-1976.54 2173.35,-1982.36"/>
</g>
<!-- x14 -->
<g id="node30" class="node">
<title>x14</title>
<path fill="none" stroke="black" d="M2195.61,-1912C2195.61,-1912 2233.61,-1912 2233.61,-1912 2239.61,-1912 2245.61,-1918 2245.61,-1924 2245.61,-1924 2245.61,-1936 2245.61,-1936 2245.61,-1942 2239.61,-1948 2233.61,-1948 2233.61,-1948 2195.61,-1948 2195.61,-1948 2189.61,-1948 2183.61,-1942 2183.61,-1936 2183.61,-1936 2183.61,-1924 2183.61,-1924 2183.61,-1918 2189.61,-1912 2195.61,-1912"/>
<text text-anchor="middle" x="2214.61" y="-1926.3" font-family="Times New Roman,serif" font-size="14.00">1:1 &#45; 0:0</text>
</g>
<!-- n2&#45;&gt;x14 -->
<g id="edge49" class="edge">
<title>n2:e&#45;&gt;x14:w</title>
<path fill="none" stroke="#1b9e77" d="M2146.61,-1881C2169.64,-1881 2160.72,-1915.88 2173.76,-1926.78"/>
<polygon fill="#1b9e77" stroke="#1b9e77" points="2173.02,-1930.22 2183.61,-1930 2175.19,-1923.57 2173.02,-1930.22"/>
</g>
<!-- x15 -->
<g id="node31" class="node">
<title>x15</title>
<path fill="none" stroke="black" d="M2195.61,-1857C2195.61,-1857 2233.61,-1857 2233.61,-1857 2239.61,-1857 2245.61,-1863 2245.61,-1869 2245.61,-1869 2245.61,-1881 2245.61,-1881 2245.61,-1887 2239.61,-1893 2233.61,-1893 2233.61,-1893 2195.61,-1893 2195.61,-1893 2189.61,-1893 2183.61,-1887 2183.61,-1881 2183.61,-1881 2183.61,-1869 2183.61,-1869 2183.61,-1863 2189.61,-1857 2195.61,-1857"/>
<text text-anchor="middle" x="2214.61" y="-1871.3" font-family="Times New Roman,serif" font-size="14.00">2:2 &#45; 0:0</text>
</g>
<!-- n2&#45;&gt;x15 -->
<g id="edge50" class="edge">
<title>n2:e&#45;&gt;x15:w</title>
<path fill="none" stroke="#1b9e77" d="M2146.61,-1881C2159.23,-1881 2164.41,-1877.55 2173.42,-1875.89"/>
<polygon fill="#1b9e77" stroke="#1b9e77" points="2173.95,-1879.35 2183.61,-1875 2173.34,-1872.38 2173.95,-1879.35"/>
</g>
<!-- n3 -->
<g id="node3" class="node">
<title>n3</title>
<polygon fill="none" stroke="black" points="63.58,-1781.54 63.58,-1796.46 47.77,-1807 25.4,-1807 9.58,-1796.46 9.58,-1781.54 25.4,-1771 47.77,-1771 63.58,-1781.54"/>
<text text-anchor="middle" x="36.58" y="-1785.3" font-family="Times New Roman,serif" font-size="14.00">A</text>
</g>
<!-- c16 -->
<g id="node11" class="node">
<title>c16</title>
<polygon fill="none" stroke="black" points="744.16,-1322 744.16,-1414 910.16,-1414 910.16,-1322 744.16,-1322"/>
<text text-anchor="middle" x="758.16" y="-1398.8" font-family="Times New Roman,serif" font-size="14.00">I0</text>
<polyline fill="none" stroke="black" points="744.16,-1391 772.16,-1391 "/>
<text text-anchor="middle" x="758.16" y="-1375.8" font-family="Times New Roman,serif" font-size="14.00">I1</text>
<polyline fill="none" stroke="black" points="744.16,-1368 772.16,-1368 "/>
<text text-anchor="middle" x="758.16" y="-1352.8" font-family="Times New Roman,serif" font-size="14.00">I2</text>
<polyline fill="none" stroke="black" points="744.16,-1345 772.16,-1345 "/>
<text text-anchor="middle" x="758.16" y="-1329.8" font-family="Times New Roman,serif" font-size="14.00">I3</text>
<polyline fill="none" stroke="black" points="772.16,-1322 772.16,-1414 "/>
<text text-anchor="middle" x="827.66" y="-1371.8" font-family="Times New Roman,serif" font-size="14.00">A_SB_LUT4_I2</text>
<text text-anchor="middle" x="827.66" y="-1356.8" font-family="Times New Roman,serif" font-size="14.00">SB_LUT4</text>
<polyline fill="none" stroke="black" points="883.16,-1322 883.16,-1414 "/>
<text text-anchor="middle" x="896.66" y="-1364.3" font-family="Times New Roman,serif" font-size="14.00">O</text>
</g>
<!-- n3&#45;&gt;c16 -->
<g id="edge51" class="edge">
<title>n3:e&#45;&gt;c16:w</title>
<path fill="none" stroke="#e7298a" d="M64.58,-1789C85.77,-1789 89.65,-1780.32 110.16,-1775 188.89,-1754.6 213.53,-1766.89 289.16,-1737 428.25,-1682.04 446.18,-1635.16 577.16,-1563 638.96,-1528.95 676.97,-1548.56 719.16,-1492 735.22,-1470.48 718.06,-1382.49 734.07,-1360.83"/>
<polygon fill="#e7298a" stroke="#e7298a" points="735.98,-1363.79 743.16,-1356 732.69,-1357.61 735.98,-1363.79"/>
</g>
<!-- c17 -->
<g id="node15" class="node">
<title>c17</title>
<polygon fill="none" stroke="black" points="737.16,-1835 737.16,-1927 917.16,-1927 917.16,-1835 737.16,-1835"/>
<text text-anchor="middle" x="751.16" y="-1911.8" font-family="Times New Roman,serif" font-size="14.00">I0</text>
<polyline fill="none" stroke="black" points="737.16,-1904 765.16,-1904 "/>
<text text-anchor="middle" x="751.16" y="-1888.8" font-family="Times New Roman,serif" font-size="14.00">I1</text>
<polyline fill="none" stroke="black" points="737.16,-1881 765.16,-1881 "/>
<text text-anchor="middle" x="751.16" y="-1865.8" font-family="Times New Roman,serif" font-size="14.00">I2</text>
<polyline fill="none" stroke="black" points="737.16,-1858 765.16,-1858 "/>
<text text-anchor="middle" x="751.16" y="-1842.8" font-family="Times New Roman,serif" font-size="14.00">I3</text>
<polyline fill="none" stroke="black" points="765.16,-1835 765.16,-1927 "/>
<text text-anchor="middle" x="827.66" y="-1884.8" font-family="Times New Roman,serif" font-size="14.00">A_SB_LUT4_I3_1</text>
<text text-anchor="middle" x="827.66" y="-1869.8" font-family="Times New Roman,serif" font-size="14.00">SB_LUT4</text>
<polyline fill="none" stroke="black" points="890.16,-1835 890.16,-1927 "/>
<text text-anchor="middle" x="903.66" y="-1877.3" font-family="Times New Roman,serif" font-size="14.00">O</text>
</g>
<!-- n3&#45;&gt;c17 -->
<g id="edge52" class="edge">
<title>n3:e&#45;&gt;c17:w</title>
<path fill="none" stroke="#e7298a" d="M64.58,-1789C82.59,-1789 180.66,-1880 198.66,-1880 198.66,-1880 198.66,-1880 609.16,-1880 664.46,-1880 676.88,-1849.99 726.98,-1846.36"/>
<polygon fill="#e7298a" stroke="#e7298a" points="727.29,-1849.85 737.16,-1846 727.05,-1842.85 727.29,-1849.85"/>
</g>
<!-- c18 -->
<g id="node19" class="node">
<title>c18</title>
<polygon fill="none" stroke="black" points="744.16,-1724 744.16,-1816 910.16,-1816 910.16,-1724 744.16,-1724"/>
<text text-anchor="middle" x="758.16" y="-1800.8" font-family="Times New Roman,serif" font-size="14.00">I0</text>
<polyline fill="none" stroke="black" points="744.16,-1793 772.16,-1793 "/>
<text text-anchor="middle" x="758.16" y="-1777.8" font-family="Times New Roman,serif" font-size="14.00">I1</text>
<polyline fill="none" stroke="black" points="744.16,-1770 772.16,-1770 "/>
<text text-anchor="middle" x="758.16" y="-1754.8" font-family="Times New Roman,serif" font-size="14.00">I2</text>
<polyline fill="none" stroke="black" points="744.16,-1747 772.16,-1747 "/>
<text text-anchor="middle" x="758.16" y="-1731.8" font-family="Times New Roman,serif" font-size="14.00">I3</text>
<polyline fill="none" stroke="black" points="772.16,-1724 772.16,-1816 "/>
<text text-anchor="middle" x="827.66" y="-1773.8" font-family="Times New Roman,serif" font-size="14.00">A_SB_LUT4_I3</text>
<text text-anchor="middle" x="827.66" y="-1758.8" font-family="Times New Roman,serif" font-size="14.00">SB_LUT4</text>
<polyline fill="none" stroke="black" points="883.16,-1724 883.16,-1816 "/>
<text text-anchor="middle" x="896.66" y="-1766.3" font-family="Times New Roman,serif" font-size="14.00">O</text>
</g>
<!-- n3&#45;&gt;c18 -->
<g id="edge53" class="edge">
<title>n3:e&#45;&gt;c18:w</title>
<path fill="none" stroke="#e7298a" d="M64.58,-1789C235.84,-1789 278.48,-1779.03 449.16,-1765 576.62,-1754.52 610.07,-1736.01 732.98,-1735.04"/>
<polygon fill="#e7298a" stroke="#e7298a" points="733.18,-1738.54 743.16,-1735 733.15,-1731.54 733.18,-1738.54"/>
</g>
<!-- n4 -->
<g id="node4" class="node">
<title>n4</title>
<polygon fill="none" stroke="black" points="63.58,-2017.54 63.58,-2032.46 47.77,-2043 25.4,-2043 9.58,-2032.46 9.58,-2017.54 25.4,-2007 47.77,-2007 63.58,-2017.54"/>
<text text-anchor="middle" x="36.58" y="-2021.3" font-family="Times New Roman,serif" font-size="14.00">B</text>
</g>
<!-- c20 -->
<g id="node28" class="node">
<title>c20</title>
<polygon fill="none" stroke="black" points="2282.61,-1949 2282.61,-2041 2446.61,-2041 2446.61,-1949 2282.61,-1949"/>
<text text-anchor="middle" x="2296.61" y="-2025.8" font-family="Times New Roman,serif" font-size="14.00">I0</text>
<polyline fill="none" stroke="black" points="2282.61,-2018 2310.61,-2018 "/>
<text text-anchor="middle" x="2296.61" y="-2002.8" font-family="Times New Roman,serif" font-size="14.00">I1</text>
<polyline fill="none" stroke="black" points="2282.61,-1995 2310.61,-1995 "/>
<text text-anchor="middle" x="2296.61" y="-1979.8" font-family="Times New Roman,serif" font-size="14.00">I2</text>
<polyline fill="none" stroke="black" points="2282.61,-1972 2310.61,-1972 "/>
<text text-anchor="middle" x="2296.61" y="-1956.8" font-family="Times New Roman,serif" font-size="14.00">I3</text>
<polyline fill="none" stroke="black" points="2310.61,-1949 2310.61,-2041 "/>
<text text-anchor="middle" x="2365.11" y="-1998.8" font-family="Times New Roman,serif" font-size="14.00">Z_SB_LUT4_O</text>
<text text-anchor="middle" x="2365.11" y="-1983.8" font-family="Times New Roman,serif" font-size="14.00">SB_LUT4</text>
<polyline fill="none" stroke="black" points="2419.61,-1949 2419.61,-2041 "/>
<text text-anchor="middle" x="2433.11" y="-1991.3" font-family="Times New Roman,serif" font-size="14.00">O</text>
</g>
<!-- n4&#45;&gt;c20 -->
<g id="edge54" class="edge">
<title>n4:e&#45;&gt;c20:w</title>
<path fill="none" stroke="#666666" d="M64.58,-2025C76.53,-2025 79.34,-2022.71 91.16,-2021 138.9,-2014.08 150.42,-2006 198.66,-2006 198.66,-2006 198.66,-2006 559.16,-2006 739.98,-2006 784.35,-2032 965.16,-2032 965.16,-2032 965.16,-2032 2215.61,-2032 2231.39,-2032 2234.2,-2023.91 2245.61,-2013 2249.58,-2009.2 2264.95,-1980.15 2275.16,-1966.74"/>
<polygon fill="#666666" stroke="#666666" points="2277.54,-1969.31 2282.61,-1960 2272.85,-1964.12 2277.54,-1969.31"/>
</g>
<!-- x33 -->
<g id="node57" class="node">
<title>x33</title>
<path fill="none" stroke="black" d="M319.16,-2026C319.16,-2026 357.16,-2026 357.16,-2026 363.16,-2026 369.16,-2032 369.16,-2038 369.16,-2038 369.16,-2050 369.16,-2050 369.16,-2056 363.16,-2062 357.16,-2062 357.16,-2062 319.16,-2062 319.16,-2062 313.16,-2062 307.16,-2056 307.16,-2050 307.16,-2050 307.16,-2038 307.16,-2038 307.16,-2032 313.16,-2026 319.16,-2026"/>
<text text-anchor="middle" x="338.16" y="-2040.3" font-family="Times New Roman,serif" font-size="14.00">0:0 &#45; 3:3</text>
</g>
<!-- n4&#45;&gt;x33 -->
<g id="edge55" class="edge">
<title>n4:e&#45;&gt;x33:w</title>
<path fill="none" stroke="#666666" d="M64.58,-2025C169.24,-2025 197.24,-2042.8 296.96,-2043.94"/>
<polygon fill="#666666" stroke="#666666" points="297.14,-2047.44 307.16,-2044 297.18,-2040.44 297.14,-2047.44"/>
</g>
<!-- n5 -->
<g id="node5" class="node">
<title>n5</title>
<polygon fill="none" stroke="black" points="63.58,-1705.54 63.58,-1720.46 47.77,-1731 25.4,-1731 9.58,-1720.46 9.58,-1705.54 25.4,-1695 47.77,-1695 63.58,-1705.54"/>
<text text-anchor="middle" x="36.58" y="-1709.3" font-family="Times New Roman,serif" font-size="14.00">C</text>
</g>
<!-- n5&#45;&gt;c16 -->
<g id="edge56" class="edge">
<title>n5:e&#45;&gt;c16:w</title>
<path fill="none" stroke="#a6761d" d="M64.58,-1713C184.44,-1713 78.8,-1479 198.66,-1479 198.66,-1479 198.66,-1479 468.16,-1479 545.74,-1479 571.6,-1482.12 639.16,-1444 642.28,-1442.24 711.8,-1363.71 735.49,-1339.82"/>
<polygon fill="#a6761d" stroke="#a6761d" points="738.01,-1342.26 743.16,-1333 733.36,-1337.03 738.01,-1342.26"/>
</g>
<!-- n5&#45;&gt;c17 -->
<g id="edge57" class="edge">
<title>n5:e&#45;&gt;c17:w</title>
<path fill="none" stroke="#a6761d" d="M64.58,-1713C83.53,-1713 318.22,-1918 337.16,-1918 337.16,-1918 337.16,-1918 559.16,-1918 577.51,-1918 689.05,-1878.79 727.06,-1870.52"/>
<polygon fill="#a6761d" stroke="#a6761d" points="727.8,-1873.95 737.16,-1869 726.75,-1867.03 727.8,-1873.95"/>
</g>
<!-- n5&#45;&gt;c18 -->
<g id="edge58" class="edge">
<title>n5:e&#45;&gt;c18:w</title>
<path fill="none" stroke="#a6761d" d="M64.58,-1713C164.96,-1713 190.75,-1717.22 289.16,-1737 420.13,-1763.32 444.98,-1803.69 577.16,-1823 604.43,-1826.98 612.68,-1830.6 639.16,-1823 688.08,-1808.97 688.8,-1764.48 733.03,-1758.64"/>
<polygon fill="#a6761d" stroke="#a6761d" points="733.4,-1762.12 743.16,-1758 732.96,-1755.13 733.4,-1762.12"/>
</g>
<!-- c19 -->
<g id="node23" class="node">
<title>c19</title>
<polygon fill="none" stroke="black" points="1609.31,-1702 1609.31,-1794 1775.31,-1794 1775.31,-1702 1609.31,-1702"/>
<text text-anchor="middle" x="1623.31" y="-1778.8" font-family="Times New Roman,serif" font-size="14.00">I0</text>
<polyline fill="none" stroke="black" points="1609.31,-1771 1637.31,-1771 "/>
<text text-anchor="middle" x="1623.31" y="-1755.8" font-family="Times New Roman,serif" font-size="14.00">I1</text>
<polyline fill="none" stroke="black" points="1609.31,-1748 1637.31,-1748 "/>
<text text-anchor="middle" x="1623.31" y="-1732.8" font-family="Times New Roman,serif" font-size="14.00">I2</text>
<polyline fill="none" stroke="black" points="1609.31,-1725 1637.31,-1725 "/>
<text text-anchor="middle" x="1623.31" y="-1709.8" font-family="Times New Roman,serif" font-size="14.00">I3</text>
<polyline fill="none" stroke="black" points="1637.31,-1702 1637.31,-1794 "/>
<text text-anchor="middle" x="1692.81" y="-1751.8" font-family="Times New Roman,serif" font-size="14.00">C_SB_LUT4_I2</text>
<text text-anchor="middle" x="1692.81" y="-1736.8" font-family="Times New Roman,serif" font-size="14.00">SB_LUT4</text>
<polyline fill="none" stroke="black" points="1748.31,-1702 1748.31,-1794 "/>
<text text-anchor="middle" x="1761.81" y="-1744.3" font-family="Times New Roman,serif" font-size="14.00">O</text>
</g>
<!-- n5&#45;&gt;c19 -->
<g id="edge59" class="edge">
<title>n5:e&#45;&gt;c19:w</title>
<path fill="none" stroke="#a6761d" d="M64.58,-1713C91.86,-1713 92.23,-1806.44 110.16,-1827 186.43,-1914.46 221.12,-1956 337.16,-1956 337.16,-1956 337.16,-1956 967.16,-1956 1201.49,-1956 1290.45,-2028.01 1492.31,-1909 1569.14,-1863.7 1520.63,-1745.71 1599.09,-1736.56"/>
<polygon fill="#a6761d" stroke="#a6761d" points="1599.51,-1740.05 1609.31,-1736 1599.13,-1733.06 1599.51,-1740.05"/>
</g>
<!-- x31 -->
<g id="node55" class="node">
<title>x31</title>
<path fill="none" stroke="black" d="M589.16,-1332.5C589.16,-1332.5 627.16,-1332.5 627.16,-1332.5 633.16,-1332.5 639.16,-1338.5 639.16,-1344.5 639.16,-1344.5 639.16,-1389.5 639.16,-1389.5 639.16,-1395.5 633.16,-1401.5 627.16,-1401.5 627.16,-1401.5 589.16,-1401.5 589.16,-1401.5 583.16,-1401.5 577.16,-1395.5 577.16,-1389.5 577.16,-1389.5 577.16,-1344.5 577.16,-1344.5 577.16,-1338.5 583.16,-1332.5 589.16,-1332.5"/>
<text text-anchor="middle" x="608.16" y="-1386.3" font-family="Times New Roman,serif" font-size="14.00">0:0 &#45; 2:2</text>
<polyline fill="none" stroke="black" points="577.16,-1378.5 639.16,-1378.5 "/>
<text text-anchor="middle" x="608.16" y="-1363.3" font-family="Times New Roman,serif" font-size="14.00">4:4 &#45; 1:1</text>
<polyline fill="none" stroke="black" points="577.16,-1355.5 639.16,-1355.5 "/>
<text text-anchor="middle" x="608.16" y="-1340.3" font-family="Times New Roman,serif" font-size="14.00">0:0 &#45; 0:0</text>
</g>
<!-- n5&#45;&gt;x31 -->
<g id="edge60" class="edge">
<title>n5:e&#45;&gt;x31:w</title>
<path fill="none" stroke="#a6761d" d="M64.58,-1713C120.01,-1713 65.46,-1514.11 91.16,-1465 120.46,-1409.03 135.49,-1372 198.66,-1372 198.66,-1372 198.66,-1372 514.16,-1372 539.53,-1372 546.41,-1385.66 567.01,-1389.18"/>
<polygon fill="#a6761d" stroke="#a6761d" points="566.91,-1392.68 577.16,-1390 567.48,-1385.71 566.91,-1392.68"/>
</g>
<!-- n6 -->
<g id="node6" class="node">
<title>n6</title>
<polygon fill="none" stroke="black" points="513.16,-979 486.16,-961 513.16,-943 540.16,-961 513.16,-979"/>
<text text-anchor="middle" x="513.16" y="-957.3" font-family="Times New Roman,serif" font-size="14.00">Q</text>
</g>
<!-- x0 -->
<g id="node12" class="node">
<title>x0</title>
<path fill="none" stroke="black" d="M589.16,-1239C589.16,-1239 627.16,-1239 627.16,-1239 633.16,-1239 639.16,-1245 639.16,-1251 639.16,-1251 639.16,-1263 639.16,-1263 639.16,-1269 633.16,-1275 627.16,-1275 627.16,-1275 589.16,-1275 589.16,-1275 583.16,-1275 577.16,-1269 577.16,-1263 577.16,-1263 577.16,-1251 577.16,-1251 577.16,-1245 583.16,-1239 589.16,-1239"/>
<text text-anchor="middle" x="608.16" y="-1253.3" font-family="Times New Roman,serif" font-size="14.00">7:7 &#45; 0:0</text>
</g>
<!-- n6&#45;&gt;x0 -->
<g id="edge69" class="edge">
<title>n6:e&#45;&gt;x0:w</title>
<path fill="none" stroke="#7570b3" d="M540.16,-961C555.02,-961 559.66,-1198.89 572.4,-1248.14"/>
<polygon fill="#7570b3" stroke="#7570b3" points="569.34,-1249.85 577.16,-1257 575.51,-1246.54 569.34,-1249.85"/>
</g>
<!-- x1 -->
<g id="node13" class="node">
<title>x1</title>
<path fill="none" stroke="black" d="M589.16,-1184C589.16,-1184 627.16,-1184 627.16,-1184 633.16,-1184 639.16,-1190 639.16,-1196 639.16,-1196 639.16,-1208 639.16,-1208 639.16,-1214 633.16,-1220 627.16,-1220 627.16,-1220 589.16,-1220 589.16,-1220 583.16,-1220 577.16,-1214 577.16,-1208 577.16,-1208 577.16,-1196 577.16,-1196 577.16,-1190 583.16,-1184 589.16,-1184"/>
<text text-anchor="middle" x="608.16" y="-1198.3" font-family="Times New Roman,serif" font-size="14.00">3:3 &#45; 0:0</text>
</g>
<!-- n6&#45;&gt;x1 -->
<g id="edge73" class="edge">
<title>n6:e&#45;&gt;x1:w</title>
<path fill="none" stroke="#7570b3" d="M540.16,-961C564.45,-961 553.15,-1154.69 570.08,-1194.79"/>
<polygon fill="#7570b3" stroke="#7570b3" points="567.66,-1197.32 577.16,-1202 572.65,-1192.41 567.66,-1197.32"/>
</g>
<!-- x3 -->
<g id="node16" class="node">
<title>x3</title>
<path fill="none" stroke="black" d="M589.16,-1777C589.16,-1777 627.16,-1777 627.16,-1777 633.16,-1777 639.16,-1783 639.16,-1789 639.16,-1789 639.16,-1801 639.16,-1801 639.16,-1807 633.16,-1813 627.16,-1813 627.16,-1813 589.16,-1813 589.16,-1813 583.16,-1813 577.16,-1807 577.16,-1801 577.16,-1801 577.16,-1789 577.16,-1789 577.16,-1783 583.16,-1777 589.16,-1777"/>
<text text-anchor="middle" x="608.16" y="-1791.3" font-family="Times New Roman,serif" font-size="14.00">6:6 &#45; 0:0</text>
</g>
<!-- n6&#45;&gt;x3 -->
<g id="edge81" class="edge">
<title>n6:e&#45;&gt;x3:w</title>
<path fill="none" stroke="#7570b3" d="M540.16,-961C556.73,-961 557.25,-1540.46 558.16,-1557 563.79,-1659.33 477.29,-1786 566.97,-1794.54"/>
<polygon fill="#7570b3" stroke="#7570b3" points="567.02,-1798.05 577.16,-1795 567.33,-1791.06 567.02,-1798.05"/>
</g>
<!-- x4 -->
<g id="node17" class="node">
<title>x4</title>
<path fill="none" stroke="black" d="M589.16,-1683C589.16,-1683 627.16,-1683 627.16,-1683 633.16,-1683 639.16,-1689 639.16,-1695 639.16,-1695 639.16,-1707 639.16,-1707 639.16,-1713 633.16,-1719 627.16,-1719 627.16,-1719 589.16,-1719 589.16,-1719 583.16,-1719 577.16,-1713 577.16,-1707 577.16,-1707 577.16,-1695 577.16,-1695 577.16,-1689 583.16,-1683 589.16,-1683"/>
<text text-anchor="middle" x="608.16" y="-1697.3" font-family="Times New Roman,serif" font-size="14.00">2:2 &#45; 0:0</text>
</g>
<!-- n6&#45;&gt;x4 -->
<g id="edge82" class="edge">
<title>n6:e&#45;&gt;x4:w</title>
<path fill="none" stroke="#7570b3" d="M540.16,-961C555.23,-961 557.19,-1487.97 558.16,-1503 559.41,-1522.3 556.1,-1659.42 570.06,-1693.4"/>
<polygon fill="#7570b3" stroke="#7570b3" points="567.78,-1696.08 577.16,-1701 572.89,-1691.3 567.78,-1696.08"/>
</g>
<!-- x6 -->
<g id="node20" class="node">
<title>x6</title>
<path fill="none" stroke="black" d="M589.16,-1628C589.16,-1628 627.16,-1628 627.16,-1628 633.16,-1628 639.16,-1634 639.16,-1640 639.16,-1640 639.16,-1652 639.16,-1652 639.16,-1658 633.16,-1664 627.16,-1664 627.16,-1664 589.16,-1664 589.16,-1664 583.16,-1664 577.16,-1658 577.16,-1652 577.16,-1652 577.16,-1640 577.16,-1640 577.16,-1634 583.16,-1628 589.16,-1628"/>
<text text-anchor="middle" x="608.16" y="-1642.3" font-family="Times New Roman,serif" font-size="14.00">1:1 &#45; 0:0</text>
</g>
<!-- n6&#45;&gt;x6 -->
<g id="edge83" class="edge">
<title>n6:e&#45;&gt;x6:w</title>
<path fill="none" stroke="#7570b3" d="M540.16,-961C553.73,-961 557.26,-1435.47 558.16,-1449 559.44,-1468.2 556.19,-1604.63 570.09,-1638.44"/>
<polygon fill="#7570b3" stroke="#7570b3" points="567.78,-1641.08 577.16,-1646 572.89,-1636.3 567.78,-1641.08"/>
</g>
<!-- x7 -->
<g id="node21" class="node">
<title>x7</title>
<path fill="none" stroke="black" d="M589.16,-1573C589.16,-1573 627.16,-1573 627.16,-1573 633.16,-1573 639.16,-1579 639.16,-1585 639.16,-1585 639.16,-1597 639.16,-1597 639.16,-1603 633.16,-1609 627.16,-1609 627.16,-1609 589.16,-1609 589.16,-1609 583.16,-1609 577.16,-1603 577.16,-1597 577.16,-1597 577.16,-1585 577.16,-1585 577.16,-1579 583.16,-1573 589.16,-1573"/>
<text text-anchor="middle" x="608.16" y="-1587.3" font-family="Times New Roman,serif" font-size="14.00">5:5 &#45; 0:0</text>
</g>
<!-- n6&#45;&gt;x7 -->
<g id="edge84" class="edge">
<title>n6:e&#45;&gt;x7:w</title>
<path fill="none" stroke="#7570b3" d="M540.16,-961C552.59,-961 557.27,-1395.61 558.16,-1408 559.44,-1425.76 557.4,-1551.44 570.36,-1583.55"/>
<polygon fill="#7570b3" stroke="#7570b3" points="567.84,-1585.97 577.16,-1591 573.01,-1581.25 567.84,-1585.97"/>
</g>
<!-- x9 -->
<g id="node24" class="node">
<title>x9</title>
<path fill="none" stroke="black" d="M947.16,-1503C947.16,-1503 985.16,-1503 985.16,-1503 991.16,-1503 997.16,-1509 997.16,-1515 997.16,-1515 997.16,-1527 997.16,-1527 997.16,-1533 991.16,-1539 985.16,-1539 985.16,-1539 947.16,-1539 947.16,-1539 941.16,-1539 935.16,-1533 935.16,-1527 935.16,-1527 935.16,-1515 935.16,-1515 935.16,-1509 941.16,-1503 947.16,-1503"/>
<text text-anchor="middle" x="966.16" y="-1517.3" font-family="Times New Roman,serif" font-size="14.00">0:0 &#45; 0:0</text>
</g>
<!-- n6&#45;&gt;x9 -->
<g id="edge85" class="edge">
<title>n6:e&#45;&gt;x9:w</title>
<path fill="none" stroke="#7570b3" d="M540.16,-961C558.27,-961 556.1,-1105.01 558.16,-1123 566.36,-1194.58 538.68,-1223.08 577.16,-1284 594.55,-1311.52 617.02,-1299.14 639.16,-1323 650.79,-1335.53 646.36,-1343.75 657.16,-1357 745.59,-1465.47 789.54,-1518.39 924.83,-1520.91"/>
<polygon fill="#7570b3" stroke="#7570b3" points="925.13,-1524.41 935.16,-1521 925.2,-1517.41 925.13,-1524.41"/>
</g>
<!-- x10 -->
<g id="node25" class="node">
<title>x10</title>
<path fill="none" stroke="black" d="M669.16,-1565C669.16,-1565 707.16,-1565 707.16,-1565 713.16,-1565 719.16,-1571 719.16,-1577 719.16,-1577 719.16,-1589 719.16,-1589 719.16,-1595 713.16,-1601 707.16,-1601 707.16,-1601 669.16,-1601 669.16,-1601 663.16,-1601 657.16,-1595 657.16,-1589 657.16,-1589 657.16,-1577 657.16,-1577 657.16,-1571 663.16,-1565 669.16,-1565"/>
<text text-anchor="middle" x="688.16" y="-1579.3" font-family="Times New Roman,serif" font-size="14.00">4:4 &#45; 0:0</text>
</g>
<!-- n6&#45;&gt;x10 -->
<g id="edge70" class="edge">
<title>n6:e&#45;&gt;x10:w</title>
<path fill="none" stroke="#7570b3" d="M540.16,-961C561.3,-961 554.88,-1320.12 558.16,-1341 563.18,-1372.84 566.1,-1380.72 577.16,-1411 580.3,-1419.58 630.23,-1542.63 650.31,-1575.16"/>
<polygon fill="#7570b3" stroke="#7570b3" points="647.95,-1577.77 657.16,-1583 653.22,-1573.17 647.95,-1577.77"/>
</g>
<!-- x16 -->
<g id="node33" class="node">
<title>x16</title>
<path fill="none" stroke="black" d="M589.16,-618C589.16,-618 627.16,-618 627.16,-618 633.16,-618 639.16,-624 639.16,-630 639.16,-630 639.16,-642 639.16,-642 639.16,-648 633.16,-654 627.16,-654 627.16,-654 589.16,-654 589.16,-654 583.16,-654 577.16,-648 577.16,-642 577.16,-642 577.16,-630 577.16,-630 577.16,-624 583.16,-618 589.16,-618"/>
<text text-anchor="middle" x="608.16" y="-632.3" font-family="Times New Roman,serif" font-size="14.00">0:0 &#45; 0:0</text>
</g>
<!-- n6&#45;&gt;x16 -->
<g id="edge71" class="edge">
<title>n6:e&#45;&gt;x16:w</title>
<path fill="none" stroke="#7570b3" d="M540.16,-961C559.27,-961 555.99,-808.98 558.16,-790 559.84,-775.35 559.93,-673.06 570.72,-643.8"/>
<polygon fill="#7570b3" stroke="#7570b3" points="573.5,-645.94 577.16,-636 568.1,-641.48 573.5,-645.94"/>
</g>
<!-- x18 -->
<g id="node36" class="node">
<title>x18</title>
<path fill="none" stroke="black" d="M589.16,-563C589.16,-563 627.16,-563 627.16,-563 633.16,-563 639.16,-569 639.16,-575 639.16,-575 639.16,-587 639.16,-587 639.16,-593 633.16,-599 627.16,-599 627.16,-599 589.16,-599 589.16,-599 583.16,-599 577.16,-593 577.16,-587 577.16,-587 577.16,-575 577.16,-575 577.16,-569 583.16,-563 589.16,-563"/>
<text text-anchor="middle" x="608.16" y="-577.3" font-family="Times New Roman,serif" font-size="14.00">1:1 &#45; 0:0</text>
</g>
<!-- n6&#45;&gt;x18 -->
<g id="edge72" class="edge">
<title>n6:e&#45;&gt;x18:w</title>
<path fill="none" stroke="#7570b3" d="M540.16,-961C561.81,-961 556.06,-788.55 558.16,-767 559.92,-748.99 557.27,-621.22 570.29,-588.58"/>
<polygon fill="#7570b3" stroke="#7570b3" points="573.04,-590.76 577.16,-581 567.85,-586.05 573.04,-590.76"/>
</g>
<!-- x20 -->
<g id="node39" class="node">
<title>x20</title>
<path fill="none" stroke="black" d="M589.16,-431C589.16,-431 627.16,-431 627.16,-431 633.16,-431 639.16,-437 639.16,-443 639.16,-443 639.16,-455 639.16,-455 639.16,-461 633.16,-467 627.16,-467 627.16,-467 589.16,-467 589.16,-467 583.16,-467 577.16,-461 577.16,-455 577.16,-455 577.16,-443 577.16,-443 577.16,-437 583.16,-431 589.16,-431"/>
<text text-anchor="middle" x="608.16" y="-445.3" font-family="Times New Roman,serif" font-size="14.00">2:2 &#45; 0:0</text>
</g>
<!-- n6&#45;&gt;x20 -->
<g id="edge74" class="edge">
<title>n6:e&#45;&gt;x20:w</title>
<path fill="none" stroke="#7570b3" d="M540.16,-961C553.25,-961 561.47,-529.55 573.76,-458.77"/>
<polygon fill="#7570b3" stroke="#7570b3" points="577.18,-459.59 577.16,-449 570.57,-457.29 577.18,-459.59"/>
</g>
<!-- x22 -->
<g id="node42" class="node">
<title>x22</title>
<path fill="none" stroke="black" d="M589.16,-376C589.16,-376 627.16,-376 627.16,-376 633.16,-376 639.16,-382 639.16,-388 639.16,-388 639.16,-400 639.16,-400 639.16,-406 633.16,-412 627.16,-412 627.16,-412 589.16,-412 589.16,-412 583.16,-412 577.16,-406 577.16,-400 577.16,-400 577.16,-388 577.16,-388 577.16,-382 583.16,-376 589.16,-376"/>
<text text-anchor="middle" x="608.16" y="-390.3" font-family="Times New Roman,serif" font-size="14.00">3:3 &#45; 0:0</text>
</g>
<!-- n6&#45;&gt;x22 -->
<g id="edge75" class="edge">
<title>n6:e&#45;&gt;x22:w</title>
<path fill="none" stroke="#7570b3" d="M540.16,-961C554.71,-961 560.47,-479.13 573.64,-403.84"/>
<polygon fill="#7570b3" stroke="#7570b3" points="577.09,-404.59 577.16,-394 570.5,-402.24 577.09,-404.59"/>
</g>
<!-- x24 -->
<g id="node45" class="node">
<title>x24</title>
<path fill="none" stroke="black" d="M589.16,-1090C589.16,-1090 627.16,-1090 627.16,-1090 633.16,-1090 639.16,-1096 639.16,-1102 639.16,-1102 639.16,-1114 639.16,-1114 639.16,-1120 633.16,-1126 627.16,-1126 627.16,-1126 589.16,-1126 589.16,-1126 583.16,-1126 577.16,-1120 577.16,-1114 577.16,-1114 577.16,-1102 577.16,-1102 577.16,-1096 583.16,-1090 589.16,-1090"/>
<text text-anchor="middle" x="608.16" y="-1104.3" font-family="Times New Roman,serif" font-size="14.00">4:4 &#45; 0:0</text>
</g>
<!-- n6&#45;&gt;x24 -->
<g id="edge76" class="edge">
<title>n6:e&#45;&gt;x24:w</title>
<path fill="none" stroke="#7570b3" d="M540.16,-961C569.83,-961 551.79,-996.26 559.16,-1025 562.97,-1039.85 560.02,-1085.36 568.9,-1101.91"/>
<polygon fill="#7570b3" stroke="#7570b3" points="567.04,-1104.88 577.16,-1108 571.19,-1099.25 567.04,-1104.88"/>
</g>
<!-- x26 -->
<g id="node48" class="node">
<title>x26</title>
<path fill="none" stroke="black" d="M589.16,-958C589.16,-958 627.16,-958 627.16,-958 633.16,-958 639.16,-964 639.16,-970 639.16,-970 639.16,-982 639.16,-982 639.16,-988 633.16,-994 627.16,-994 627.16,-994 589.16,-994 589.16,-994 583.16,-994 577.16,-988 577.16,-982 577.16,-982 577.16,-970 577.16,-970 577.16,-964 583.16,-958 589.16,-958"/>
<text text-anchor="middle" x="608.16" y="-972.3" font-family="Times New Roman,serif" font-size="14.00">5:5 &#45; 0:0</text>
</g>
<!-- n6&#45;&gt;x26 -->
<g id="edge77" class="edge">
<title>n6:e&#45;&gt;x26:w</title>
<path fill="none" stroke="#7570b3" d="M540.16,-961C553.89,-961 557.9,-969.97 567.22,-974.04"/>
<polygon fill="#7570b3" stroke="#7570b3" points="566.67,-977.5 577.16,-976 568.03,-970.63 566.67,-977.5"/>
</g>
<!-- x28 -->
<g id="node51" class="node">
<title>x28</title>
<path fill="none" stroke="black" d="M589.16,-712C589.16,-712 627.16,-712 627.16,-712 633.16,-712 639.16,-718 639.16,-724 639.16,-724 639.16,-736 639.16,-736 639.16,-742 633.16,-748 627.16,-748 627.16,-748 589.16,-748 589.16,-748 583.16,-748 577.16,-742 577.16,-736 577.16,-736 577.16,-724 577.16,-724 577.16,-718 583.16,-712 589.16,-712"/>
<text text-anchor="middle" x="608.16" y="-726.3" font-family="Times New Roman,serif" font-size="14.00">6:6 &#45; 0:0</text>
</g>
<!-- n6&#45;&gt;x28 -->
<g id="edge78" class="edge">
<title>n6:e&#45;&gt;x28:w</title>
<path fill="none" stroke="#7570b3" d="M540.16,-961C558.05,-961 554.84,-818.58 558.16,-801 560.58,-788.21 560.84,-750.72 569.11,-736.02"/>
<polygon fill="#7570b3" stroke="#7570b3" points="571.25,-738.79 577.16,-730 567.06,-733.18 571.25,-738.79"/>
</g>
<!-- n6&#45;&gt;x31 -->
<g id="edge79" class="edge">
<title>n6:e&#45;&gt;x31:w</title>
<path fill="none" stroke="#7570b3" d="M540.16,-961C559.47,-961 553.04,-1289.39 558.16,-1308 561.77,-1321.08 560.48,-1334.79 567.24,-1340.83"/>
<polygon fill="#7570b3" stroke="#7570b3" points="566.57,-1344.29 577.16,-1344 568.7,-1337.62 566.57,-1344.29"/>
</g>
<!-- n6&#45;&gt;x31 -->
<g id="edge80" class="edge">
<title>n6:e&#45;&gt;x31:w</title>
<path fill="none" stroke="#7570b3" d="M540.16,-961C560.35,-961 553.5,-1304.35 558.16,-1324 561.97,-1340.04 558.59,-1357.54 567.26,-1364.21"/>
<polygon fill="#7570b3" stroke="#7570b3" points="566.59,-1367.66 577.16,-1367 568.49,-1360.92 566.59,-1367.66"/>
</g>
<!-- n7 -->
<g id="node7" class="node">
<title>n7</title>
<polygon fill="none" stroke="black" points="63.58,-1078.54 63.58,-1093.46 47.77,-1104 25.4,-1104 9.58,-1093.46 9.58,-1078.54 25.4,-1068 47.77,-1068 63.58,-1078.54"/>
<text text-anchor="middle" x="36.58" y="-1082.3" font-family="Times New Roman,serif" font-size="14.00">S</text>
</g>
<!-- c30 -->
<g id="node53" class="node">
<title>c30</title>
<polygon fill="none" stroke="black" points="110.16,-797.5 110.16,-866.5 289.16,-866.5 289.16,-797.5 110.16,-797.5"/>
<text text-anchor="middle" x="123.16" y="-851.3" font-family="Times New Roman,serif" font-size="14.00">C</text>
<polyline fill="none" stroke="black" points="110.16,-843.5 136.16,-843.5 "/>
<text text-anchor="middle" x="123.16" y="-828.3" font-family="Times New Roman,serif" font-size="14.00">D</text>
<polyline fill="none" stroke="black" points="110.16,-820.5 136.16,-820.5 "/>
<text text-anchor="middle" x="123.16" y="-805.3" font-family="Times New Roman,serif" font-size="14.00">E</text>
<polyline fill="none" stroke="black" points="136.16,-797.5 136.16,-866.5 "/>
<text text-anchor="middle" x="199.16" y="-835.8" font-family="Times New Roman,serif" font-size="14.00">Q_SB_DFFE_Q_7</text>
<text text-anchor="middle" x="199.16" y="-820.8" font-family="Times New Roman,serif" font-size="14.00">SB_DFFE</text>
<polyline fill="none" stroke="black" points="262.16,-797.5 262.16,-866.5 "/>
<text text-anchor="middle" x="275.66" y="-828.3" font-family="Times New Roman,serif" font-size="14.00">Q</text>
</g>
<!-- n7&#45;&gt;c30 -->
<g id="edge86" class="edge">
<title>n7:e&#45;&gt;c30:w</title>
<path fill="none" stroke="#66a61e" d="M64.58,-1086C90.4,-1086 83.43,-880.08 102.72,-839.06"/>
<polygon fill="#66a61e" stroke="#66a61e" points="105.31,-841.42 110.16,-832 100.5,-836.34 105.31,-841.42"/>
</g>
<!-- n8 -->
<g id="node8" class="node">
<title>n8</title>
<polygon fill="none" stroke="black" points="2537.61,-1987.54 2537.61,-2002.46 2521.79,-2013 2499.43,-2013 2483.61,-2002.46 2483.61,-1987.54 2499.43,-1977 2521.79,-1977 2537.61,-1987.54"/>
<text text-anchor="middle" x="2510.61" y="-1991.3" font-family="Times New Roman,serif" font-size="14.00">Z</text>
</g>
<!-- n9 -->
<g id="node9" class="node">
<title>n9</title>
<polygon fill="none" stroke="black" points="63.58,-641.54 63.58,-656.46 47.77,-667 25.4,-667 9.58,-656.46 9.58,-641.54 25.4,-631 47.77,-631 63.58,-641.54"/>
<text text-anchor="middle" x="36.58" y="-645.3" font-family="Times New Roman,serif" font-size="14.00">clk</text>
</g>
<!-- c23 -->
<g id="node32" class="node">
<title>c23</title>
<polygon fill="none" stroke="black" points="737.66,-541.5 737.66,-610.5 916.66,-610.5 916.66,-541.5 737.66,-541.5"/>
<text text-anchor="middle" x="750.66" y="-595.3" font-family="Times New Roman,serif" font-size="14.00">C</text>
<polyline fill="none" stroke="black" points="737.66,-587.5 763.66,-587.5 "/>
<text text-anchor="middle" x="750.66" y="-572.3" font-family="Times New Roman,serif" font-size="14.00">D</text>
<polyline fill="none" stroke="black" points="737.66,-564.5 763.66,-564.5 "/>
<text text-anchor="middle" x="750.66" y="-549.3" font-family="Times New Roman,serif" font-size="14.00">E</text>
<polyline fill="none" stroke="black" points="763.66,-541.5 763.66,-610.5 "/>
<text text-anchor="middle" x="826.66" y="-579.8" font-family="Times New Roman,serif" font-size="14.00">Q_SB_DFFE_Q_6</text>
<text text-anchor="middle" x="826.66" y="-564.8" font-family="Times New Roman,serif" font-size="14.00">SB_DFFE</text>
<polyline fill="none" stroke="black" points="889.66,-541.5 889.66,-610.5 "/>
<text text-anchor="middle" x="903.16" y="-572.3" font-family="Times New Roman,serif" font-size="14.00">Q</text>
</g>
<!-- n9&#45;&gt;c23 -->
<g id="edge88" class="edge">
<title>n9:e&#45;&gt;c23:w</title>
<path fill="none" stroke="#a6761d" d="M64.58,-649C180.47,-649 461.77,-563.71 577.16,-553 640.82,-547.09 666.16,-540.25 719.16,-576 725.89,-580.54 726.17,-588.39 728.6,-593.64"/>
<polygon fill="#a6761d" stroke="#a6761d" points="726.83,-596.66 737.16,-599 730.55,-590.73 726.83,-596.66"/>
</g>
<!-- c24 -->
<g id="node35" class="node">
<title>c24</title>
<polygon fill="none" stroke="black" points="737.66,-287.5 737.66,-356.5 916.66,-356.5 916.66,-287.5 737.66,-287.5"/>
<text text-anchor="middle" x="750.66" y="-341.3" font-family="Times New Roman,serif" font-size="14.00">C</text>
<polyline fill="none" stroke="black" points="737.66,-333.5 763.66,-333.5 "/>
<text text-anchor="middle" x="750.66" y="-318.3" font-family="Times New Roman,serif" font-size="14.00">D</text>
<polyline fill="none" stroke="black" points="737.66,-310.5 763.66,-310.5 "/>
<text text-anchor="middle" x="750.66" y="-295.3" font-family="Times New Roman,serif" font-size="14.00">E</text>
<polyline fill="none" stroke="black" points="763.66,-287.5 763.66,-356.5 "/>
<text text-anchor="middle" x="826.66" y="-325.8" font-family="Times New Roman,serif" font-size="14.00">Q_SB_DFFE_Q_5</text>
<text text-anchor="middle" x="826.66" y="-310.8" font-family="Times New Roman,serif" font-size="14.00">SB_DFFE</text>
<polyline fill="none" stroke="black" points="889.66,-287.5 889.66,-356.5 "/>
<text text-anchor="middle" x="903.16" y="-318.3" font-family="Times New Roman,serif" font-size="14.00">Q</text>
</g>
<!-- n9&#45;&gt;c24 -->
<g id="edge89" class="edge">
<title>n9:e&#45;&gt;c24:w</title>
<path fill="none" stroke="#a6761d" d="M64.58,-649C91.53,-649 86.97,-622.72 110.16,-609 215.56,-546.65 260.82,-572.08 369.16,-515 469.77,-462 478.9,-423.23 577.16,-366 611.01,-346.28 618.9,-337.42 657.16,-329 684.07,-323.08 693.41,-319.21 719.16,-329 724.79,-331.14 726.4,-335.93 728.63,-339.72"/>
<polygon fill="#a6761d" stroke="#a6761d" points="726.82,-342.72 737.16,-345 730.5,-336.76 726.82,-342.72"/>
</g>
<!-- c25 -->
<g id="node38" class="node">
<title>c25</title>
<polygon fill="none" stroke="black" points="737.66,-111.5 737.66,-180.5 916.66,-180.5 916.66,-111.5 737.66,-111.5"/>
<text text-anchor="middle" x="750.66" y="-165.3" font-family="Times New Roman,serif" font-size="14.00">C</text>
<polyline fill="none" stroke="black" points="737.66,-157.5 763.66,-157.5 "/>
<text text-anchor="middle" x="750.66" y="-142.3" font-family="Times New Roman,serif" font-size="14.00">D</text>
<polyline fill="none" stroke="black" points="737.66,-134.5 763.66,-134.5 "/>
<text text-anchor="middle" x="750.66" y="-119.3" font-family="Times New Roman,serif" font-size="14.00">E</text>
<polyline fill="none" stroke="black" points="763.66,-111.5 763.66,-180.5 "/>
<text text-anchor="middle" x="826.66" y="-149.8" font-family="Times New Roman,serif" font-size="14.00">Q_SB_DFFE_Q_4</text>
<text text-anchor="middle" x="826.66" y="-134.8" font-family="Times New Roman,serif" font-size="14.00">SB_DFFE</text>
<polyline fill="none" stroke="black" points="889.66,-111.5 889.66,-180.5 "/>
<text text-anchor="middle" x="903.16" y="-142.3" font-family="Times New Roman,serif" font-size="14.00">Q</text>
</g>
<!-- n9&#45;&gt;c25 -->
<g id="edge90" class="edge">
<title>n9:e&#45;&gt;c25:w</title>
<path fill="none" stroke="#a6761d" d="M64.58,-649C121.24,-649 142,-157 198.66,-157 198.66,-157 198.66,-157 609.16,-157 662.73,-157 678.14,-167.55 726.94,-168.87"/>
<polygon fill="#a6761d" stroke="#a6761d" points="727.12,-172.37 737.16,-169 727.21,-165.37 727.12,-172.37"/>
</g>
<!-- c26 -->
<g id="node41" class="node">
<title>c26</title>
<polygon fill="none" stroke="black" points="737.66,-23.5 737.66,-92.5 916.66,-92.5 916.66,-23.5 737.66,-23.5"/>
<text text-anchor="middle" x="750.66" y="-77.3" font-family="Times New Roman,serif" font-size="14.00">C</text>
<polyline fill="none" stroke="black" points="737.66,-69.5 763.66,-69.5 "/>
<text text-anchor="middle" x="750.66" y="-54.3" font-family="Times New Roman,serif" font-size="14.00">D</text>
<polyline fill="none" stroke="black" points="737.66,-46.5 763.66,-46.5 "/>
<text text-anchor="middle" x="750.66" y="-31.3" font-family="Times New Roman,serif" font-size="14.00">E</text>
<polyline fill="none" stroke="black" points="763.66,-23.5 763.66,-92.5 "/>
<text text-anchor="middle" x="826.66" y="-61.8" font-family="Times New Roman,serif" font-size="14.00">Q_SB_DFFE_Q_3</text>
<text text-anchor="middle" x="826.66" y="-46.8" font-family="Times New Roman,serif" font-size="14.00">SB_DFFE</text>
<polyline fill="none" stroke="black" points="889.66,-23.5 889.66,-92.5 "/>
<text text-anchor="middle" x="903.16" y="-54.3" font-family="Times New Roman,serif" font-size="14.00">Q</text>
</g>
<!-- n9&#45;&gt;c26 -->
<g id="edge91" class="edge">
<title>n9:e&#45;&gt;c26:w</title>
<path fill="none" stroke="#a6761d" d="M64.58,-649C119.92,-649 75.47,-196.12 110.16,-153 176.52,-70.54 231.32,-81 337.16,-81 337.16,-81 337.16,-81 609.16,-81 662.5,-81 678.33,-81 726.98,-81"/>
<polygon fill="#a6761d" stroke="#a6761d" points="727.16,-84.5 737.16,-81 727.16,-77.5 727.16,-84.5"/>
</g>
<!-- c27 -->
<g id="node44" class="node">
<title>c27</title>
<polygon fill="none" stroke="black" points="737.66,-1119.5 737.66,-1188.5 916.66,-1188.5 916.66,-1119.5 737.66,-1119.5"/>
<text text-anchor="middle" x="750.66" y="-1173.3" font-family="Times New Roman,serif" font-size="14.00">C</text>
<polyline fill="none" stroke="black" points="737.66,-1165.5 763.66,-1165.5 "/>
<text text-anchor="middle" x="750.66" y="-1150.3" font-family="Times New Roman,serif" font-size="14.00">D</text>
<polyline fill="none" stroke="black" points="737.66,-1142.5 763.66,-1142.5 "/>
<text text-anchor="middle" x="750.66" y="-1127.3" font-family="Times New Roman,serif" font-size="14.00">E</text>
<polyline fill="none" stroke="black" points="763.66,-1119.5 763.66,-1188.5 "/>
<text text-anchor="middle" x="826.66" y="-1157.8" font-family="Times New Roman,serif" font-size="14.00">Q_SB_DFFE_Q_2</text>
<text text-anchor="middle" x="826.66" y="-1142.8" font-family="Times New Roman,serif" font-size="14.00">SB_DFFE</text>
<polyline fill="none" stroke="black" points="889.66,-1119.5 889.66,-1188.5 "/>
<text text-anchor="middle" x="903.16" y="-1150.3" font-family="Times New Roman,serif" font-size="14.00">Q</text>
</g>
<!-- n9&#45;&gt;c27 -->
<g id="edge92" class="edge">
<title>n9:e&#45;&gt;c27:w</title>
<path fill="none" stroke="#a6761d" d="M64.58,-649C65.89,-649 109.95,-1021.71 110.16,-1023 141.35,-1210.32 8.77,-1441 198.66,-1441 198.66,-1441 198.66,-1441 468.16,-1441 545.32,-1441 578.87,-1459.15 639.16,-1411 659.04,-1395.13 699.89,-1217.37 728.39,-1182.8"/>
<polygon fill="#a6761d" stroke="#a6761d" points="730.75,-1185.44 737.16,-1177 726.89,-1179.6 730.75,-1185.44"/>
</g>
<!-- c28 -->
<g id="node47" class="node">
<title>c28</title>
<polygon fill="none" stroke="black" points="737.66,-957.5 737.66,-1026.5 916.66,-1026.5 916.66,-957.5 737.66,-957.5"/>
<text text-anchor="middle" x="750.66" y="-1011.3" font-family="Times New Roman,serif" font-size="14.00">C</text>
<polyline fill="none" stroke="black" points="737.66,-1003.5 763.66,-1003.5 "/>
<text text-anchor="middle" x="750.66" y="-988.3" font-family="Times New Roman,serif" font-size="14.00">D</text>
<polyline fill="none" stroke="black" points="737.66,-980.5 763.66,-980.5 "/>
<text text-anchor="middle" x="750.66" y="-965.3" font-family="Times New Roman,serif" font-size="14.00">E</text>
<polyline fill="none" stroke="black" points="763.66,-957.5 763.66,-1026.5 "/>
<text text-anchor="middle" x="826.66" y="-995.8" font-family="Times New Roman,serif" font-size="14.00">Q_SB_DFFE_Q_1</text>
<text text-anchor="middle" x="826.66" y="-980.8" font-family="Times New Roman,serif" font-size="14.00">SB_DFFE</text>
<polyline fill="none" stroke="black" points="889.66,-957.5 889.66,-1026.5 "/>
<text text-anchor="middle" x="903.16" y="-988.3" font-family="Times New Roman,serif" font-size="14.00">Q</text>
</g>
<!-- n9&#45;&gt;c28 -->
<g id="edge93" class="edge">
<title>n9:e&#45;&gt;c28:w</title>
<path fill="none" stroke="#a6761d" d="M64.58,-649C109.2,-649 77.97,-805.38 91.16,-848 122.51,-949.3 92.62,-1061 198.66,-1061 198.66,-1061 198.66,-1061 609.16,-1061 666.07,-1061 675.7,-1020.23 727.07,-1015.46"/>
<polygon fill="#a6761d" stroke="#a6761d" points="727.33,-1018.95 737.16,-1015 727.02,-1011.95 727.33,-1018.95"/>
</g>
<!-- c29 -->
<g id="node50" class="node">
<title>c29</title>
<polygon fill="none" stroke="black" points="744.66,-650.5 744.66,-719.5 909.66,-719.5 909.66,-650.5 744.66,-650.5"/>
<text text-anchor="middle" x="757.66" y="-704.3" font-family="Times New Roman,serif" font-size="14.00">C</text>
<polyline fill="none" stroke="black" points="744.66,-696.5 770.66,-696.5 "/>
<text text-anchor="middle" x="757.66" y="-681.3" font-family="Times New Roman,serif" font-size="14.00">D</text>
<polyline fill="none" stroke="black" points="744.66,-673.5 770.66,-673.5 "/>
<text text-anchor="middle" x="757.66" y="-658.3" font-family="Times New Roman,serif" font-size="14.00">E</text>
<polyline fill="none" stroke="black" points="770.66,-650.5 770.66,-719.5 "/>
<text text-anchor="middle" x="826.66" y="-688.8" font-family="Times New Roman,serif" font-size="14.00">Q_SB_DFFE_Q</text>
<text text-anchor="middle" x="826.66" y="-673.8" font-family="Times New Roman,serif" font-size="14.00">SB_DFFE</text>
<polyline fill="none" stroke="black" points="882.66,-650.5 882.66,-719.5 "/>
<text text-anchor="middle" x="896.16" y="-681.3" font-family="Times New Roman,serif" font-size="14.00">Q</text>
</g>
<!-- n9&#45;&gt;c29 -->
<g id="edge94" class="edge">
<title>n9:e&#45;&gt;c29:w</title>
<path fill="none" stroke="#a6761d" d="M64.58,-649C126.06,-649 137.19,-683 198.66,-683 198.66,-683 198.66,-683 609.16,-683 658.45,-683 671.77,-683.47 719.16,-697 726.21,-699.01 729.24,-702.81 733.39,-705.37"/>
<polygon fill="#a6761d" stroke="#a6761d" points="732.6,-708.78 743.16,-708 734.42,-702.02 732.6,-708.78"/>
</g>
<!-- n9&#45;&gt;c30 -->
<g id="edge95" class="edge">
<title>n9:e&#45;&gt;c30:w</title>
<path fill="none" stroke="#a6761d" d="M64.58,-649C107.62,-649 70.54,-822.59 100.44,-851.07"/>
<polygon fill="#a6761d" stroke="#a6761d" points="99.58,-854.5 110.16,-855 102.2,-848.01 99.58,-854.5"/>
</g>
<!-- n10 -->
<g id="node10" class="node">
<title>n10</title>
<polygon fill="none" stroke="black" points="73.25,-282.54 73.25,-297.46 51.77,-308 21.4,-308 -0.08,-297.46 -0.08,-282.54 21.4,-272 51.77,-272 73.25,-282.54"/>
<text text-anchor="middle" x="36.58" y="-286.3" font-family="Times New Roman,serif" font-size="14.00">enable</text>
</g>
<!-- n10&#45;&gt;c23 -->
<g id="edge36" class="edge">
<title>n10:e&#45;&gt;c23:w</title>
<path fill="none" stroke="#66a61e" d="M73.16,-290C129.58,-290 142.25,-271 198.66,-271 198.66,-271 198.66,-271 559.16,-271 642.79,-271 674.93,-299.03 719.16,-370 728.54,-385.04 719.82,-511.61 730.67,-544.97"/>
<polygon fill="#66a61e" stroke="#66a61e" points="728.15,-547.42 737.16,-553 733.6,-543.02 728.15,-547.42"/>
</g>
<!-- n10&#45;&gt;c24 -->
<g id="edge37" class="edge">
<title>n10:e&#45;&gt;c24:w</title>
<path fill="none" stroke="#66a61e" d="M73.16,-290C89.87,-290 79.49,-268.95 91.16,-257 129.7,-217.54 143.51,-195 198.66,-195 198.66,-195 198.66,-195 559.16,-195 601.84,-195 679.73,-285.27 727.23,-297.61"/>
<polygon fill="#66a61e" stroke="#66a61e" points="726.77,-301.08 737.16,-299 727.75,-294.15 726.77,-301.08"/>
</g>
<!-- n10&#45;&gt;c25 -->
<g id="edge38" class="edge">
<title>n10:e&#45;&gt;c25:w</title>
<path fill="none" stroke="#66a61e" d="M73.16,-290C106.07,-290 67.61,-165.98 91.16,-143 169.79,-66.28 227.31,-119 337.16,-119 337.16,-119 337.16,-119 609.16,-119 662.52,-119 678.31,-122.52 726.97,-122.96"/>
<polygon fill="#66a61e" stroke="#66a61e" points="727.15,-126.46 737.16,-123 727.18,-119.46 727.15,-126.46"/>
</g>
<!-- n10&#45;&gt;c26 -->
<g id="edge39" class="edge">
<title>n10:e&#45;&gt;c26:w</title>
<path fill="none" stroke="#66a61e" d="M73.16,-290C90.06,-290 88,-155.6 91.16,-139 97.36,-106.49 87.33,-90.96 110.16,-67 138.62,-37.13 157.41,-39 198.66,-39 198.66,-39 198.66,-39 609.16,-39 662.52,-39 678.31,-35.48 726.97,-35.04"/>
<polygon fill="#66a61e" stroke="#66a61e" points="727.18,-38.54 737.16,-35 727.15,-31.54 727.18,-38.54"/>
</g>
<!-- n10&#45;&gt;c27 -->
<g id="edge40" class="edge">
<title>n10:e&#45;&gt;c27:w</title>
<path fill="none" stroke="#66a61e" d="M73.16,-290C79.66,-290 106.33,-395.75 110.16,-401 194.24,-516.05 286.74,-473.76 369.16,-590 422.49,-665.2 449.18,-903.56 486.16,-988 516.99,-1058.38 511.24,-1095.53 577.16,-1135 631.35,-1167.44 657.7,-1154.51 719.16,-1140 723.24,-1139.04 725.49,-1137 727.64,-1135.11"/>
<polygon fill="#66a61e" stroke="#66a61e" points="729.37,-1138.17 737.16,-1131 726.59,-1131.75 729.37,-1138.17"/>
</g>
<!-- n10&#45;&gt;c28 -->
<g id="edge41" class="edge">
<title>n10:e&#45;&gt;c28:w</title>
<path fill="none" stroke="#66a61e" d="M73.16,-290C87.96,-290 81.56,-306.74 91.16,-318 98.52,-326.62 101.15,-328.13 110.16,-335 260.74,-449.82 337.96,-428.51 468.16,-566 613.85,-719.84 524.8,-961.08 726.99,-968.81"/>
<polygon fill="#66a61e" stroke="#66a61e" points="727.1,-972.31 737.16,-969 727.23,-965.31 727.1,-972.31"/>
</g>
<!-- n10&#45;&gt;c29 -->
<g id="edge42" class="edge">
<title>n10:e&#45;&gt;c29:w</title>
<path fill="none" stroke="#66a61e" d="M73.16,-290C83.3,-290 82,-299.68 91.16,-304 135.45,-324.87 149.71,-328 198.66,-328 198.66,-328 198.66,-328 514.16,-328 572.23,-328 597.24,-325.83 639.16,-366 737.29,-460.02 610.48,-651.93 733.07,-661.62"/>
<polygon fill="#66a61e" stroke="#66a61e" points="733.04,-665.12 743.16,-662 733.3,-658.13 733.04,-665.12"/>
</g>
<!-- n10&#45;&gt;c30 -->
<g id="edge43" class="edge">
<title>n10:e&#45;&gt;c30:w</title>
<path fill="none" stroke="#66a61e" d="M73.16,-290C87.31,-290 90.16,-529.89 91.16,-544 95.1,-599.21 56.46,-783.81 100.27,-806.67"/>
<polygon fill="#66a61e" stroke="#66a61e" points="99.63,-810.12 110.16,-809 101.23,-803.3 99.63,-810.12"/>
</g>
<!-- x2 -->
<g id="node14" class="node">
<title>x2</title>
<path fill="none" stroke="black" d="M1107.16,-1507C1107.16,-1507 1145.16,-1507 1145.16,-1507 1151.16,-1507 1157.16,-1513 1157.16,-1519 1157.16,-1519 1157.16,-1531 1157.16,-1531 1157.16,-1537 1151.16,-1543 1145.16,-1543 1145.16,-1543 1107.16,-1543 1107.16,-1543 1101.16,-1543 1095.16,-1537 1095.16,-1531 1095.16,-1531 1095.16,-1519 1095.16,-1519 1095.16,-1513 1101.16,-1507 1107.16,-1507"/>
<text text-anchor="middle" x="1126.16" y="-1521.3" font-family="Times New Roman,serif" font-size="14.00">0:0 &#45; 0:0</text>
</g>
<!-- c16&#45;&gt;x2 -->
<g id="edge3" class="edge">
<title>c16:e&#45;&gt;x2:w</title>
<path fill="none" stroke="#1b9e77" d="M923.14,-1368.7C1012.63,-1379.56 993.68,-1513.33 1083.08,-1524.29"/>
<polygon fill="none" stroke="#1b9e77" points="923.14,-1368.7 916.92,-1372.34 911.16,-1368 917.39,-1364.36 923.14,-1368.7"/>
<polygon fill="none" stroke="#1b9e77" points="1083.18,-1524.29 1089.41,-1520.65 1095.16,-1525 1088.94,-1528.64 1083.18,-1524.29"/>
</g>
<!-- x0&#45;&gt;c16 -->
<g id="edge1" class="edge">
<title>x0:e&#45;&gt;c16:w</title>
<path fill="none" stroke="#66a61e" d="M649.49,-1263.31C652.07,-1269.25 651.98,-1278.34 657.16,-1286 690.85,-1335.8 680.4,-1394.36 731,-1402.13"/>
<polygon fill="none" stroke="#66a61e" points="649.4,-1263.26 642.2,-1263.54 639.16,-1257 646.37,-1256.72 649.4,-1263.26"/>
<polygon fill="none" stroke="#66a61e" points="731.19,-1402.15 737.46,-1398.58 743.16,-1403 736.89,-1406.56 731.19,-1402.15"/>
</g>
<!-- x1&#45;&gt;c16 -->
<g id="edge2" class="edge">
<title>x1:e&#45;&gt;c16:w</title>
<path fill="none" stroke="#1b9e77" d="M651.18,-1202.8C691.45,-1208.58 696.29,-1244.68 719.16,-1286 737.6,-1319.3 708.58,-1367.07 731.2,-1377.8"/>
<polygon fill="none" stroke="#1b9e77" points="651.14,-1202.8 644.88,-1206.39 639.16,-1202 645.42,-1198.41 651.14,-1202.8"/>
<polygon fill="none" stroke="#1b9e77" points="731.36,-1377.83 737.98,-1374.98 743.16,-1380 736.54,-1382.85 731.36,-1377.83"/>
</g>
<!-- x2&#45;&gt;n2 -->
<g id="edge45" class="edge">
<title>x2:e&#45;&gt;n2:w</title>
<path fill="none" stroke="#1b9e77" d="M1157.16,-1525C1292.16,-1525 1325.31,-1544 1460.31,-1544 1460.31,-1544 1460.31,-1544 1844.31,-1544 1861.6,-1544 1886.9,-1820.77 1905.7,-1872.67"/>
<polygon fill="#1b9e77" stroke="#1b9e77" points="1902.82,-1874.66 1911.31,-1881 1908.62,-1870.75 1902.82,-1874.66"/>
</g>
<!-- x5 -->
<g id="node18" class="node">
<title>x5</title>
<path fill="none" stroke="black" d="M1442.31,-1863C1442.31,-1863 1480.31,-1863 1480.31,-1863 1486.31,-1863 1492.31,-1869 1492.31,-1875 1492.31,-1875 1492.31,-1887 1492.31,-1887 1492.31,-1893 1486.31,-1899 1480.31,-1899 1480.31,-1899 1442.31,-1899 1442.31,-1899 1436.31,-1899 1430.31,-1893 1430.31,-1887 1430.31,-1887 1430.31,-1875 1430.31,-1875 1430.31,-1869 1436.31,-1863 1442.31,-1863"/>
<text text-anchor="middle" x="1461.31" y="-1877.3" font-family="Times New Roman,serif" font-size="14.00">0:0 &#45; 1:1</text>
</g>
<!-- c17&#45;&gt;x5 -->
<g id="edge6" class="edge">
<title>c17:e&#45;&gt;x5:w</title>
<path fill="none" stroke="#e7298a" d="M929.36,-1881C1143.3,-1881 1204.12,-1881 1418.01,-1881"/>
<polygon fill="none" stroke="#e7298a" points="929.16,-1881 923.16,-1885 917.16,-1881 923.16,-1877 929.16,-1881"/>
<polygon fill="none" stroke="#e7298a" points="1418.31,-1881 1424.31,-1877 1430.31,-1881 1424.31,-1885 1418.31,-1881"/>
</g>
<!-- x3&#45;&gt;c17 -->
<g id="edge4" class="edge">
<title>x3:e&#45;&gt;c17:w</title>
<path fill="none" stroke="#7570b3" d="M650.74,-1798.49C662.7,-1809.84 640.29,-1846.29 657.16,-1869 679.17,-1898.61 692.82,-1912.85 724.97,-1915.53"/>
<polygon fill="none" stroke="#7570b3" points="650.65,-1798.46 643.75,-1800.56 639.16,-1795 646.06,-1792.9 650.65,-1798.46"/>
<polygon fill="none" stroke="#7570b3" points="725.17,-1915.54 731.32,-1911.77 737.16,-1916 731.01,-1919.77 725.17,-1915.54"/>
</g>
<!-- x4&#45;&gt;c17 -->
<g id="edge5" class="edge">
<title>x4:e&#45;&gt;c17:w</title>
<path fill="none" stroke="#e7298a" d="M645.36,-1711.6C663.02,-1745.09 713.07,-1848.43 730.86,-1882.2"/>
<polygon fill="none" stroke="#e7298a" points="645.22,-1711.36 638.74,-1708.2 639.16,-1701 645.64,-1704.16 645.22,-1711.36"/>
<polygon fill="none" stroke="#e7298a" points="731.12,-1882.63 737.59,-1885.8 737.16,-1893 730.68,-1889.83 731.12,-1882.63"/>
</g>
<!-- x5&#45;&gt;n2 -->
<g id="edge47" class="edge">
<title>x5:e&#45;&gt;n2:w</title>
<path fill="none" stroke="#1b9e77" d="M1492.31,-1881C1535.86,-1881 1546.75,-1881 1590.31,-1881 1590.31,-1881 1590.31,-1881 1844.31,-1881 1870.36,-1881 1879.32,-1881 1901.1,-1881"/>
<polygon fill="#1b9e77" stroke="#1b9e77" points="1901.31,-1884.5 1911.31,-1881 1901.31,-1877.5 1901.31,-1884.5"/>
</g>
<!-- x8 -->
<g id="node22" class="node">
<title>x8</title>
<path fill="none" stroke="black" d="M1027.16,-1735C1027.16,-1735 1065.16,-1735 1065.16,-1735 1071.16,-1735 1077.16,-1741 1077.16,-1747 1077.16,-1747 1077.16,-1759 1077.16,-1759 1077.16,-1765 1071.16,-1771 1065.16,-1771 1065.16,-1771 1027.16,-1771 1027.16,-1771 1021.16,-1771 1015.16,-1765 1015.16,-1759 1015.16,-1759 1015.16,-1747 1015.16,-1747 1015.16,-1741 1021.16,-1735 1027.16,-1735"/>
<text text-anchor="middle" x="1046.16" y="-1749.3" font-family="Times New Roman,serif" font-size="14.00">0:0 &#45; 3:3</text>
</g>
<!-- c18&#45;&gt;x8 -->
<g id="edge9" class="edge">
<title>c18:e&#45;&gt;x8:w</title>
<path fill="none" stroke="#1b9e77" d="M923.43,-1769.58C956.52,-1767.23 969.94,-1755.72 1003.1,-1753.41"/>
<polygon fill="none" stroke="#1b9e77" points="923.16,-1769.59 917.3,-1773.79 911.16,-1770 917.02,-1765.8 923.16,-1769.59"/>
<polygon fill="none" stroke="#1b9e77" points="1003.17,-1753.4 1009.03,-1749.2 1015.16,-1753 1009.3,-1757.2 1003.17,-1753.4"/>
</g>
<!-- x6&#45;&gt;c18 -->
<g id="edge7" class="edge">
<title>x6:e&#45;&gt;c18:w</title>
<path fill="none" stroke="#7570b3" d="M646.76,-1655.47C666.11,-1683.68 716,-1766.97 735.46,-1795.38"/>
<polygon fill="none" stroke="#7570b3" points="646.67,-1655.36 639.8,-1653.18 639.16,-1646 646.04,-1648.18 646.67,-1655.36"/>
<polygon fill="none" stroke="#7570b3" points="735.66,-1795.63 742.53,-1797.82 743.16,-1805 736.29,-1802.82 735.66,-1795.63"/>
</g>
<!-- x7&#45;&gt;c18 -->
<g id="edge8" class="edge">
<title>x7:e&#45;&gt;c18:w</title>
<path fill="none" stroke="#d95f02" d="M647.47,-1600.31C668.01,-1630.97 715.59,-1727.24 719.16,-1734 727.79,-1750.3 723.16,-1770.1 731.66,-1778.24"/>
<polygon fill="none" stroke="#d95f02" points="647.15,-1599.95 640.17,-1598.14 639.16,-1591 646.14,-1592.81 647.15,-1599.95"/>
<polygon fill="none" stroke="#d95f02" points="731.76,-1778.27 738.7,-1776.33 743.16,-1782 736.22,-1783.94 731.76,-1778.27"/>
</g>
<!-- x8&#45;&gt;n1 -->
<g id="edge34" class="edge">
<title>x8:e&#45;&gt;n1:w</title>
<path fill="none" stroke="#1b9e77" stroke-width="3" d="M1077.16,-1753C1132.89,-1753 1118.02,-1673.02 1164.92,-1663.02"/>
<polygon fill="#1b9e77" stroke="#1b9e77" stroke-width="3" points="1165.56,-1666.48 1175.16,-1662 1164.87,-1659.51 1165.56,-1666.48"/>
<text text-anchor="middle" x="1126.16" y="-1752.8" font-family="Times New Roman,serif" font-size="14.00" fill="#1b9e77">&lt;3&gt;</text>
</g>
<!-- x12 -->
<g id="node27" class="node">
<title>x12</title>
<path fill="none" stroke="black" d="M1824.31,-1799C1824.31,-1799 1862.31,-1799 1862.31,-1799 1868.31,-1799 1874.31,-1805 1874.31,-1811 1874.31,-1811 1874.31,-1823 1874.31,-1823 1874.31,-1829 1868.31,-1835 1862.31,-1835 1862.31,-1835 1824.31,-1835 1824.31,-1835 1818.31,-1835 1812.31,-1829 1812.31,-1823 1812.31,-1823 1812.31,-1811 1812.31,-1811 1812.31,-1805 1818.31,-1799 1824.31,-1799"/>
<text text-anchor="middle" x="1843.31" y="-1813.3" font-family="Times New Roman,serif" font-size="14.00">0:0 &#45; 2:2</text>
</g>
<!-- c19&#45;&gt;x12 -->
<g id="edge13" class="edge">
<title>c19:e&#45;&gt;x12:w</title>
<path fill="none" stroke="#d95f02" d="M1786.79,-1752.11C1799.31,-1764.41 1788.27,-1800.84 1800.94,-1813"/>
<polygon fill="none" stroke="#d95f02" points="1786.6,-1752.04 1779.61,-1753.79 1775.31,-1748 1782.3,-1746.26 1786.6,-1752.04"/>
<polygon fill="none" stroke="#d95f02" points="1800.99,-1813.02 1807.97,-1811.23 1812.31,-1817 1805.32,-1818.78 1800.99,-1813.02"/>
</g>
<!-- x9&#45;&gt;c19 -->
<g id="edge10" class="edge">
<title>x9:e&#45;&gt;c19:w</title>
<path fill="none" stroke="#1b9e77" d="M1009.55,-1521.5C1044.83,-1524.53 1055.56,-1540.56 1095.16,-1552 1270.68,-1602.69 1348.25,-1545.65 1492.31,-1658 1504.87,-1667.8 1500.43,-1676.5 1510.31,-1689 1545.2,-1733.17 1548.34,-1776.29 1597.05,-1782.29"/>
<polygon fill="none" stroke="#1b9e77" points="1009.15,-1521.49 1003,-1525.24 997.16,-1521 1003.32,-1517.25 1009.15,-1521.49"/>
<polygon fill="none" stroke="#1b9e77" points="1597.33,-1782.31 1603.55,-1778.66 1609.31,-1783 1603.08,-1786.65 1597.33,-1782.31"/>
</g>
<!-- x10&#45;&gt;c19 -->
<g id="edge11" class="edge">
<title>x10:e&#45;&gt;c19:w</title>
<path fill="none" stroke="#e6ab02" d="M728.9,-1590.53C730.66,-1594.71 732.17,-1599.71 737.16,-1603 814.76,-1654.08 844.94,-1647.86 935.16,-1670 1089.69,-1707.92 1443.66,-1757.22 1596.87,-1759.89"/>
<polygon fill="none" stroke="#e6ab02" points="728.65,-1590.34 721.46,-1589.84 719.16,-1583 726.36,-1583.51 728.65,-1590.34"/>
<polygon fill="none" stroke="#e6ab02" points="1597.31,-1759.89 1603.34,-1755.95 1609.31,-1760 1603.27,-1763.95 1597.31,-1759.89"/>
</g>
<!-- x11&#45;&gt;c19 -->
<g id="edge12" class="edge">
<title>x11:e&#45;&gt;c19:w</title>
<path fill="none" stroke="#e6ab02" d="M1583.72,-1666.71C1592.32,-1676.47 1589.31,-1698.82 1598.03,-1708.45"/>
<polygon fill="none" stroke="#e6ab02" points="1583.4,-1666.57 1576.33,-1667.99 1572.31,-1662 1579.38,-1660.59 1583.4,-1666.57"/>
<polygon fill="none" stroke="#e6ab02" points="1598.18,-1708.51 1605.24,-1707.05 1609.31,-1713 1602.24,-1714.46 1598.18,-1708.51"/>
</g>
<!-- x12&#45;&gt;n2 -->
<g id="edge44" class="edge">
<title>x12:e&#45;&gt;n2:w</title>
<path fill="none" stroke="#1b9e77" d="M1874.31,-1817C1903.05,-1817 1884.67,-1866 1901.63,-1878.25"/>
<polygon fill="#1b9e77" stroke="#1b9e77" points="1900.73,-1881.63 1911.31,-1881 1902.64,-1874.9 1900.73,-1881.63"/>
</g>
<!-- c20&#45;&gt;n8 -->
<g id="edge87" class="edge">
<title>c20:e&#45;&gt;n8:w</title>
<path fill="none" stroke="#66a61e" d="M2446.61,-1995C2459.07,-1995 2464.45,-1995 2473.48,-1995"/>
<polygon fill="#66a61e" stroke="#66a61e" points="2473.61,-1998.5 2483.61,-1995 2473.61,-1991.5 2473.61,-1998.5"/>
</g>
<!-- x13&#45;&gt;c20 -->
<g id="edge14" class="edge">
<title>x13:e&#45;&gt;c20:w</title>
<path fill="none" stroke="#d95f02" d="M2257.04,-1989.82C2264.64,-1998.52 2263.62,-2016.77 2271.34,-2025.35"/>
<polygon fill="none" stroke="#d95f02" points="2256.67,-1989.66 2249.59,-1991.02 2245.61,-1985 2252.69,-1983.64 2256.67,-1989.66"/>
<polygon fill="none" stroke="#d95f02" points="2271.52,-2025.43 2278.59,-2024.02 2282.61,-2030 2275.54,-2031.41 2271.52,-2025.43"/>
</g>
<!-- x14&#45;&gt;c20 -->
<g id="edge15" class="edge">
<title>x14:e&#45;&gt;c20:w</title>
<path fill="none" stroke="#d95f02" d="M2257.03,-1933.71C2271.85,-1946.69 2256.43,-1989.94 2271.03,-2003.14"/>
<polygon fill="none" stroke="#d95f02" points="2257.02,-1933.71 2250.08,-1935.66 2245.61,-1930 2252.55,-1928.05 2257.02,-1933.71"/>
<polygon fill="none" stroke="#d95f02" points="2271.23,-2003.21 2278.18,-2001.31 2282.61,-2007 2275.65,-2008.9 2271.23,-2003.21"/>
</g>
<!-- x15&#45;&gt;c20 -->
<g id="edge16" class="edge">
<title>x15:e&#45;&gt;c20:w</title>
<path fill="none" stroke="#1b9e77" d="M2255.11,-1882.42C2265.19,-1902.15 2263.02,-1955.74 2273.08,-1975.52"/>
<polygon fill="none" stroke="#1b9e77" points="2255.07,-1882.39 2247.88,-1881.85 2245.61,-1875 2252.8,-1875.54 2255.07,-1882.39"/>
<polygon fill="none" stroke="#1b9e77" points="2273.17,-1975.59 2280.36,-1976.15 2282.61,-1983 2275.42,-1982.44 2273.17,-1975.59"/>
</g>
<!-- x17 -->
<g id="node34" class="node">
<title>x17</title>
<path fill="none" stroke="black" d="M1027.16,-715C1027.16,-715 1065.16,-715 1065.16,-715 1071.16,-715 1077.16,-721 1077.16,-727 1077.16,-727 1077.16,-739 1077.16,-739 1077.16,-745 1071.16,-751 1065.16,-751 1065.16,-751 1027.16,-751 1027.16,-751 1021.16,-751 1015.16,-745 1015.16,-739 1015.16,-739 1015.16,-727 1015.16,-727 1015.16,-721 1021.16,-715 1027.16,-715"/>
<text text-anchor="middle" x="1046.16" y="-729.3" font-family="Times New Roman,serif" font-size="14.00">0:0 &#45; 1:1</text>
</g>
<!-- c23&#45;&gt;x17 -->
<g id="edge18" class="edge">
<title>c23:e&#45;&gt;x17:w</title>
<path fill="none" stroke="#7570b3" d="M929.37,-577.36C989.01,-591.83 943.28,-717.51 1003.18,-731.7"/>
<polygon fill="none" stroke="#7570b3" points="929.09,-577.33 922.68,-580.64 917.16,-576 923.57,-572.69 929.09,-577.33"/>
<polygon fill="none" stroke="#7570b3" points="1003.23,-731.7 1009.63,-728.38 1015.16,-733 1008.77,-736.33 1003.23,-731.7"/>
</g>
<!-- x16&#45;&gt;c23 -->
<g id="edge17" class="edge">
<title>x16:e&#45;&gt;c23:w</title>
<path fill="none" stroke="#1b9e77" d="M651.18,-634.75C686.3,-626.94 690.04,-585.03 725.18,-577.25"/>
<polygon fill="none" stroke="#1b9e77" points="651.1,-634.75 645.55,-639.36 639.16,-636 644.72,-631.4 651.1,-634.75"/>
<polygon fill="none" stroke="#1b9e77" points="725.23,-577.24 730.78,-572.64 737.16,-576 731.61,-580.6 725.23,-577.24"/>
</g>
<!-- x17&#45;&gt;n6 -->
<g id="edge61" class="edge">
<title>x17:e&#45;&gt;n6:w</title>
<path fill="none" stroke="#7570b3" d="M1078.16,-733C1086.4,-733 1082.3,-745.06 1077.16,-751.5 1059.15,-774.08 598.9,-874.98 577.16,-894 561.66,-907.57 557.39,-967.71 540.16,-979 520.09,-992.15 503.6,-995.49 486.16,-979 483.8,-976.76 481.87,-973.37 480.95,-970.14"/>
<polygon fill="#7570b3" stroke="#7570b3" points="484.15,-971.55 485.16,-961 477.79,-968.61 484.15,-971.55"/>
</g>
<!-- x19 -->
<g id="node37" class="node">
<title>x19</title>
<path fill="none" stroke="black" d="M1027.16,-621C1027.16,-621 1065.16,-621 1065.16,-621 1071.16,-621 1077.16,-627 1077.16,-633 1077.16,-633 1077.16,-645 1077.16,-645 1077.16,-651 1071.16,-657 1065.16,-657 1065.16,-657 1027.16,-657 1027.16,-657 1021.16,-657 1015.16,-651 1015.16,-645 1015.16,-645 1015.16,-633 1015.16,-633 1015.16,-627 1021.16,-621 1027.16,-621"/>
<text text-anchor="middle" x="1046.16" y="-635.3" font-family="Times New Roman,serif" font-size="14.00">0:0 &#45; 2:2</text>
</g>
<!-- c24&#45;&gt;x19 -->
<g id="edge20" class="edge">
<title>c24:e&#45;&gt;x19:w</title>
<path fill="none" stroke="#a6761d" d="M929.3,-322.55C1030.8,-332.17 964.07,-467.4 997.16,-577 1003.9,-599.32 992.63,-626.3 1003.56,-635.63"/>
<polygon fill="none" stroke="#a6761d" points="929.15,-322.54 922.98,-326.27 917.16,-322 923.34,-318.27 929.15,-322.54"/>
<polygon fill="none" stroke="#a6761d" points="1003.64,-635.66 1010.52,-633.49 1015.16,-639 1008.29,-641.17 1003.64,-635.66"/>
</g>
<!-- x18&#45;&gt;c24 -->
<g id="edge19" class="edge">
<title>x18:e&#45;&gt;c24:w</title>
<path fill="none" stroke="#666666" d="M650.92,-577.34C694.14,-548.19 682.22,-354.17 725.61,-325.53"/>
<polygon fill="none" stroke="#666666" points="650.62,-577.43 646.08,-583.03 639.16,-581 643.7,-575.4 650.62,-577.43"/>
<polygon fill="none" stroke="#666666" points="725.69,-325.5 730.26,-319.93 737.16,-322 732.59,-327.58 725.69,-325.5"/>
</g>
<!-- x19&#45;&gt;n6 -->
<g id="edge62" class="edge">
<title>x19:e&#45;&gt;n6:w</title>
<path fill="none" stroke="#7570b3" d="M1078.16,-639C1086.4,-639 1081.83,-650.71 1077.16,-657.5 1033.04,-721.68 989.04,-698.99 917.16,-729 766.21,-792.04 687.49,-749.22 577.16,-870 568.54,-879.44 550.56,-971.55 540.16,-979 520.65,-992.98 503.6,-995.49 486.16,-979 483.8,-976.76 481.87,-973.37 480.95,-970.14"/>
<polygon fill="#7570b3" stroke="#7570b3" points="484.15,-971.55 485.16,-961 477.79,-968.61 484.15,-971.55"/>
</g>
<!-- x21 -->
<g id="node40" class="node">
<title>x21</title>
<path fill="none" stroke="black" d="M1027.16,-315C1027.16,-315 1065.16,-315 1065.16,-315 1071.16,-315 1077.16,-321 1077.16,-327 1077.16,-327 1077.16,-339 1077.16,-339 1077.16,-345 1071.16,-351 1065.16,-351 1065.16,-351 1027.16,-351 1027.16,-351 1021.16,-351 1015.16,-345 1015.16,-339 1015.16,-339 1015.16,-327 1015.16,-327 1015.16,-321 1021.16,-315 1027.16,-315"/>
<text text-anchor="middle" x="1046.16" y="-329.3" font-family="Times New Roman,serif" font-size="14.00">0:0 &#45; 3:3</text>
</g>
<!-- c25&#45;&gt;x21 -->
<g id="edge22" class="edge">
<title>c25:e&#45;&gt;x21:w</title>
<path fill="none" stroke="#a6761d" d="M929.19,-147.19C999.39,-162.34 932.91,-316.78 1003.22,-331.82"/>
<polygon fill="none" stroke="#a6761d" points="929.1,-147.19 922.74,-150.57 917.16,-146 923.53,-142.61 929.1,-147.19"/>
<polygon fill="none" stroke="#a6761d" points="1003.22,-331.82 1009.58,-328.43 1015.16,-333 1008.8,-336.39 1003.22,-331.82"/>
</g>
<!-- x20&#45;&gt;c25 -->
<g id="edge21" class="edge">
<title>x20:e&#45;&gt;c25:w</title>
<path fill="none" stroke="#7570b3" d="M649.05,-441.67C659.89,-418.76 646.81,-348.91 657.16,-329 674.71,-295.25 701.69,-303.79 719.16,-270 729.9,-249.23 715.66,-175.88 727.32,-152.92"/>
<polygon fill="none" stroke="#7570b3" points="648.8,-441.85 646.37,-448.64 639.16,-449 641.6,-442.21 648.8,-441.85"/>
<polygon fill="none" stroke="#7570b3" points="727.35,-152.9 729.95,-146.18 737.16,-146 734.56,-152.72 727.35,-152.9"/>
</g>
<!-- x21&#45;&gt;n6 -->
<g id="edge63" class="edge">
<title>x21:e&#45;&gt;n6:w</title>
<path fill="none" stroke="#7570b3" d="M1078.16,-333C1086.4,-333 1081.95,-344.8 1077.16,-351.5 937.79,-546.38 722.32,-362.39 577.16,-553 532.17,-612.08 564.95,-645.05 558.16,-719 555.52,-747.84 561.33,-959.24 540.16,-979 522.62,-995.37 503.6,-995.49 486.16,-979 483.8,-976.76 481.87,-973.37 480.95,-970.14"/>
<polygon fill="#7570b3" stroke="#7570b3" points="484.15,-971.55 485.16,-961 477.79,-968.61 484.15,-971.55"/>
</g>
<!-- x23 -->
<g id="node43" class="node">
<title>x23</title>
<path fill="none" stroke="black" d="M1027.16,-97C1027.16,-97 1065.16,-97 1065.16,-97 1071.16,-97 1077.16,-103 1077.16,-109 1077.16,-109 1077.16,-121 1077.16,-121 1077.16,-127 1071.16,-133 1065.16,-133 1065.16,-133 1027.16,-133 1027.16,-133 1021.16,-133 1015.16,-127 1015.16,-121 1015.16,-121 1015.16,-109 1015.16,-109 1015.16,-103 1021.16,-97 1027.16,-97"/>
<text text-anchor="middle" x="1046.16" y="-111.3" font-family="Times New Roman,serif" font-size="14.00">0:0 &#45; 4:4</text>
</g>
<!-- c26&#45;&gt;x23 -->
<g id="edge24" class="edge">
<title>c26:e&#45;&gt;x23:w</title>
<path fill="none" stroke="#1b9e77" d="M929.53,-59.3C963.78,-66.95 968.6,-106.15 1002.91,-113.73"/>
<polygon fill="none" stroke="#1b9e77" points="929.1,-59.25 922.71,-62.6 917.16,-58 923.55,-54.65 929.1,-59.25"/>
<polygon fill="none" stroke="#1b9e77" points="1003.23,-113.76 1009.61,-110.4 1015.16,-115 1008.78,-118.36 1003.23,-113.76"/>
</g>
<!-- x22&#45;&gt;c26 -->
<g id="edge23" class="edge">
<title>x22:e&#45;&gt;c26:w</title>
<path fill="none" stroke="#e6ab02" d="M649.18,-387.38C661.82,-365.43 651.47,-295.11 657.16,-273 658.53,-267.67 712.41,-111.31 731.22,-68.66"/>
<polygon fill="none" stroke="#e6ab02" points="649.18,-387.38 646.37,-394.03 639.16,-394 641.96,-387.36 649.18,-387.38"/>
<polygon fill="none" stroke="#e6ab02" points="731.32,-68.48 730.75,-61.29 737.16,-58 737.73,-65.19 731.32,-68.48"/>
</g>
<!-- x23&#45;&gt;n6 -->
<g id="edge64" class="edge">
<title>x23:e&#45;&gt;n6:w</title>
<path fill="none" stroke="#7570b3" d="M1078.16,-115C1086.4,-115 1082.01,-126.84 1077.16,-133.5 959.53,-295.23 828.03,-191.07 657.16,-295 616.55,-319.71 598.55,-323.54 577.16,-366 534.02,-451.68 564.55,-485.29 558.16,-581 556.69,-603.08 556.16,-963.71 540.16,-979 522.81,-995.58 503.6,-995.49 486.16,-979 483.8,-976.76 481.87,-973.37 480.95,-970.14"/>
<polygon fill="#7570b3" stroke="#7570b3" points="484.15,-971.55 485.16,-961 477.79,-968.61 484.15,-971.55"/>
</g>
<!-- x25 -->
<g id="node46" class="node">
<title>x25</title>
<path fill="none" stroke="black" d="M1027.16,-1062C1027.16,-1062 1065.16,-1062 1065.16,-1062 1071.16,-1062 1077.16,-1068 1077.16,-1074 1077.16,-1074 1077.16,-1086 1077.16,-1086 1077.16,-1092 1071.16,-1098 1065.16,-1098 1065.16,-1098 1027.16,-1098 1027.16,-1098 1021.16,-1098 1015.16,-1092 1015.16,-1086 1015.16,-1086 1015.16,-1074 1015.16,-1074 1015.16,-1068 1021.16,-1062 1027.16,-1062"/>
<text text-anchor="middle" x="1046.16" y="-1076.3" font-family="Times New Roman,serif" font-size="14.00">0:0 &#45; 5:5</text>
</g>
<!-- c27&#45;&gt;x25 -->
<g id="edge26" class="edge">
<title>c27:e&#45;&gt;x25:w</title>
<path fill="none" stroke="#a6761d" d="M929.34,-1152.59C966.67,-1143.28 965.64,-1090.78 1002.93,-1081.43"/>
<polygon fill="none" stroke="#a6761d" points="929.08,-1152.62 923.58,-1157.28 917.16,-1154 922.66,-1149.34 929.08,-1152.62"/>
<polygon fill="none" stroke="#a6761d" points="1003.24,-1081.39 1008.74,-1076.72 1015.16,-1080 1009.67,-1084.67 1003.24,-1081.39"/>
</g>
<!-- x24&#45;&gt;c27 -->
<g id="edge25" class="edge">
<title>x24:e&#45;&gt;c27:w</title>
<path fill="none" stroke="#66a61e" d="M651.52,-1108.57C679.84,-1111.41 689.5,-1124.47 719.16,-1141 722.8,-1143.03 724.82,-1145.66 726.67,-1148.02"/>
<polygon fill="none" stroke="#66a61e" points="651.15,-1108.56 644.97,-1112.27 639.16,-1108 645.34,-1104.28 651.15,-1108.56"/>
<polygon fill="none" stroke="#66a61e" points="726.74,-1148.06 733.93,-1147.55 737.16,-1154 729.97,-1154.5 726.74,-1148.06"/>
</g>
<!-- x25&#45;&gt;n6 -->
<g id="edge65" class="edge">
<title>x25:e&#45;&gt;n6:w</title>
<path fill="none" stroke="#7570b3" d="M1078.16,-1080C1086.4,-1080 1083.14,-1092.84 1077.16,-1098.5 1057.16,-1117.45 1040.55,-1109.22 1015.16,-1098.5 1004.59,-1094.04 1007.32,-1085.33 997.16,-1080 893.39,-1025.53 852.35,-1057.62 737.16,-1036 665.8,-1022.61 647.85,-1019.6 577.16,-1003 536.44,-993.44 512.6,-1011.41 486.16,-979 484.26,-976.67 482.52,-973.56 481.51,-970.58"/>
<polygon fill="#7570b3" stroke="#7570b3" points="484.87,-971.59 485.16,-961 478.33,-969.09 484.87,-971.59"/>
</g>
<!-- x27 -->
<g id="node49" class="node">
<title>x27</title>
<path fill="none" stroke="black" d="M1027.16,-933C1027.16,-933 1065.16,-933 1065.16,-933 1071.16,-933 1077.16,-939 1077.16,-945 1077.16,-945 1077.16,-957 1077.16,-957 1077.16,-963 1071.16,-969 1065.16,-969 1065.16,-969 1027.16,-969 1027.16,-969 1021.16,-969 1015.16,-963 1015.16,-957 1015.16,-957 1015.16,-945 1015.16,-945 1015.16,-939 1021.16,-933 1027.16,-933"/>
<text text-anchor="middle" x="1046.16" y="-947.3" font-family="Times New Roman,serif" font-size="14.00">0:0 &#45; 6:6</text>
</g>
<!-- c28&#45;&gt;x27 -->
<g id="edge28" class="edge">
<title>c28:e&#45;&gt;x27:w</title>
<path fill="none" stroke="#e6ab02" d="M929.36,-990.99C961.77,-985.31 970.66,-957.56 1003.17,-951.98"/>
<polygon fill="none" stroke="#e6ab02" points="929.12,-991.01 923.47,-995.49 917.16,-992 922.81,-987.52 929.12,-991.01"/>
<polygon fill="none" stroke="#e6ab02" points="1003.2,-951.98 1008.86,-947.5 1015.16,-951 1009.51,-955.47 1003.2,-951.98"/>
</g>
<!-- x26&#45;&gt;c28 -->
<g id="edge27" class="edge">
<title>x26:e&#45;&gt;c28:w</title>
<path fill="none" stroke="#7570b3" d="M651.17,-976.43C681.77,-978.69 694.49,-989.28 725.04,-991.56"/>
<polygon fill="none" stroke="#7570b3" points="651.16,-976.43 645.02,-980.21 639.16,-976 645.3,-972.22 651.16,-976.43"/>
<polygon fill="none" stroke="#7570b3" points="725.17,-991.57 731.31,-987.79 737.16,-992 731.02,-995.78 725.17,-991.57"/>
</g>
<!-- x27&#45;&gt;n6 -->
<g id="edge66" class="edge">
<title>x27:e&#45;&gt;n6:w</title>
<path fill="none" stroke="#7570b3" d="M1078.16,-951C1086.4,-951 1083.14,-963.84 1077.16,-969.5 1057.16,-988.45 1040.41,-980.55 1015.16,-969.5 1004.36,-964.77 1007.91,-954.87 997.16,-950 964.76,-935.33 952.73,-948.44 917.16,-948 766.06,-946.11 719.18,-896.37 577.16,-948 557,-955.33 560.33,-971.67 540.16,-979 517.61,-987.2 503.6,-995.49 486.16,-979 483.8,-976.76 481.87,-973.37 480.95,-970.14"/>
<polygon fill="#7570b3" stroke="#7570b3" points="484.15,-971.55 485.16,-961 477.79,-968.61 484.15,-971.55"/>
</g>
<!-- x29 -->
<g id="node52" class="node">
<title>x29</title>
<path fill="none" stroke="black" d="M1027.16,-789C1027.16,-789 1065.16,-789 1065.16,-789 1071.16,-789 1077.16,-795 1077.16,-801 1077.16,-801 1077.16,-813 1077.16,-813 1077.16,-819 1071.16,-825 1065.16,-825 1065.16,-825 1027.16,-825 1027.16,-825 1021.16,-825 1015.16,-819 1015.16,-813 1015.16,-813 1015.16,-801 1015.16,-801 1015.16,-795 1021.16,-789 1027.16,-789"/>
<text text-anchor="middle" x="1046.16" y="-803.3" font-family="Times New Roman,serif" font-size="14.00">0:0 &#45; 7:7</text>
</g>
<!-- c29&#45;&gt;x29 -->
<g id="edge30" class="edge">
<title>c29:e&#45;&gt;x29:w</title>
<path fill="none" stroke="#d95f02" d="M922.61,-689.44C929.67,-698.13 924.48,-717.8 935.16,-732 961.83,-767.45 965.85,-800.5 1003.11,-806.15"/>
<polygon fill="none" stroke="#d95f02" points="922.35,-689.34 915.31,-690.9 911.16,-685 918.2,-683.44 922.35,-689.34"/>
<polygon fill="none" stroke="#d95f02" points="1003.19,-806.16 1009.46,-802.59 1015.16,-807 1008.9,-810.57 1003.19,-806.16"/>
</g>
<!-- x28&#45;&gt;c29 -->
<g id="edge29" class="edge">
<title>x28:e&#45;&gt;c29:w</title>
<path fill="none" stroke="#7570b3" d="M651.47,-729.33C679.55,-726.02 688.26,-711.08 719.16,-697 725.1,-694.3 728.15,-690.96 731.65,-688.49"/>
<polygon fill="none" stroke="#7570b3" points="651.15,-729.34 645.37,-733.67 639.16,-730 644.94,-725.68 651.15,-729.34"/>
<polygon fill="none" stroke="#7570b3" points="731.68,-688.49 736.26,-682.92 743.16,-685 738.58,-690.57 731.68,-688.49"/>
</g>
<!-- x29&#45;&gt;n6 -->
<g id="edge67" class="edge">
<title>x29:e&#45;&gt;n6:w</title>
<path fill="none" stroke="#7570b3" d="M1078.16,-807C1086.4,-807 1081.63,-818.58 1077.16,-825.5 1055.44,-859.15 1035.31,-854.77 997.16,-867 817.6,-924.56 738.2,-828.9 577.16,-927 552.94,-941.76 565.37,-966 540.16,-979 518.83,-990 503.6,-995.49 486.16,-979 483.8,-976.76 481.87,-973.37 480.95,-970.14"/>
<polygon fill="#7570b3" stroke="#7570b3" points="484.15,-971.55 485.16,-961 477.79,-968.61 484.15,-971.55"/>
</g>
<!-- x30 -->
<g id="node54" class="node">
<title>x30</title>
<path fill="none" stroke="black" d="M399.16,-865C399.16,-865 437.16,-865 437.16,-865 443.16,-865 449.16,-871 449.16,-877 449.16,-877 449.16,-889 449.16,-889 449.16,-895 443.16,-901 437.16,-901 437.16,-901 399.16,-901 399.16,-901 393.16,-901 387.16,-895 387.16,-889 387.16,-889 387.16,-877 387.16,-877 387.16,-871 393.16,-865 399.16,-865"/>
<text text-anchor="middle" x="418.16" y="-879.3" font-family="Times New Roman,serif" font-size="14.00">0:0 &#45; 0:0</text>
</g>
<!-- c30&#45;&gt;x30 -->
<g id="edge31" class="edge">
<title>c30:e&#45;&gt;x30:w</title>
<path fill="none" stroke="#d95f02" d="M301.27,-833.16C334.98,-840.01 341.4,-875.08 375.17,-881.86"/>
<polygon fill="none" stroke="#d95f02" points="301.11,-833.15 294.75,-836.55 289.16,-832 295.52,-828.59 301.11,-833.15"/>
<polygon fill="none" stroke="#d95f02" points="375.22,-881.87 381.57,-878.45 387.16,-883 380.81,-886.42 375.22,-881.87"/>
</g>
<!-- x30&#45;&gt;n6 -->
<g id="edge68" class="edge">
<title>x30:e&#45;&gt;n6:w</title>
<path fill="none" stroke="#7570b3" d="M449.16,-883C483.49,-883 455.31,-945.41 476.45,-958.58"/>
<polygon fill="#7570b3" stroke="#7570b3" points="475.61,-961.98 486.16,-961 477.31,-955.19 475.61,-961.98"/>
</g>
<!-- x32 -->
<g id="node56" class="node">
<title>x32</title>
<path fill="none" stroke="black" d="M947.16,-1625C947.16,-1625 985.16,-1625 985.16,-1625 991.16,-1625 997.16,-1631 997.16,-1637 997.16,-1637 997.16,-1649 997.16,-1649 997.16,-1655 991.16,-1661 985.16,-1661 985.16,-1661 947.16,-1661 947.16,-1661 941.16,-1661 935.16,-1655 935.16,-1649 935.16,-1649 935.16,-1637 935.16,-1637 935.16,-1631 941.16,-1625 947.16,-1625"/>
<text text-anchor="middle" x="966.16" y="-1639.3" font-family="Times New Roman,serif" font-size="14.00">2:0 &#45; 2:0</text>
</g>
<!-- x31&#45;&gt;x32 -->
<g id="edge32" class="edge">
<title>x31:e&#45;&gt;x32:w</title>
<path fill="none" stroke="#e6ab02" stroke-width="3" d="M651.32,-1370C667.73,-1381.81 638.32,-1425.78 657.16,-1454 696.55,-1512.97 844.34,-1630.28 923.14,-1642.04"/>
<polygon fill="none" stroke="#e6ab02" stroke-width="3" points="650.81,-1369.88 644.03,-1372.32 639.16,-1367 645.95,-1364.56 650.81,-1369.88"/>
<polygon fill="none" stroke="#e6ab02" stroke-width="3" points="923.2,-1642.05 929.5,-1638.54 935.16,-1643 928.86,-1646.51 923.2,-1642.05"/>
<text text-anchor="middle" x="688.16" y="-1522.8" font-family="Times New Roman,serif" font-size="14.00" fill="#e6ab02">&lt;3&gt;</text>
</g>
<!-- x32&#45;&gt;n1 -->
<g id="edge33" class="edge">
<title>x32:e&#45;&gt;n1:w</title>
<path fill="none" stroke="#1b9e77" stroke-width="3" d="M997.16,-1643C1073.15,-1643 1093.78,-1660.33 1164.8,-1661.89"/>
<polygon fill="#1b9e77" stroke="#1b9e77" stroke-width="3" points="1165.13,-1665.39 1175.16,-1662 1165.2,-1658.39 1165.13,-1665.39"/>
<text text-anchor="middle" x="1046.16" y="-1654.8" font-family="Times New Roman,serif" font-size="14.00" fill="#1b9e77">&lt;3&gt;</text>
</g>
<!-- x33&#45;&gt;n2 -->
<g id="edge46" class="edge">
<title>x33:e&#45;&gt;n2:w</title>
<path fill="none" stroke="#1b9e77" d="M369.16,-2044C634.98,-2044 699.34,-1994 965.16,-1994 965.16,-1994 965.16,-1994 1844.31,-1994 1870.19,-1994 1879.9,-1905.15 1902.12,-1885.02"/>
<polygon fill="#1b9e77" stroke="#1b9e77" points="1903.55,-1888.22 1911.31,-1881 1900.74,-1881.8 1903.55,-1888.22"/>
</g>
</g>
</svg>
