<?xml version="1.0" encoding="UTF-8" standalone="no"?>
<!DOCTYPE svg PUBLIC "-//W3C//DTD SVG 1.1//EN"
 "http://www.w3.org/Graphics/SVG/1.1/DTD/svg11.dtd">
<!-- Generated by graphviz version 4.0.0 (20220529.0937)
 -->
<!-- Title: top_module Pages: 1 -->
<svg width="1161pt" height="419pt"
 viewBox="0.00 0.00 1160.76 419.06" xmlns="http://www.w3.org/2000/svg" xmlns:xlink="http://www.w3.org/1999/xlink">
<g id="graph0" class="graph" transform="scale(1 1) rotate(0) translate(4 415.06)">
<title>top_module</title>
<polygon fill="white" stroke="transparent" points="-4,4 -4,-415.06 1156.76,-415.06 1156.76,4 -4,4"/>
<text text-anchor="middle" x="576.38" y="-7.8" font-family="Times New Roman,serif" font-size="14.00">top_module</text>
<!-- n2 -->
<g id="node1" class="node">
<title>n2</title>
<polygon fill="none" stroke="black" points="63.58,-141.54 63.58,-156.46 47.77,-167 25.4,-167 9.58,-156.46 9.58,-141.54 25.4,-131 47.77,-131 63.58,-141.54"/>
<text text-anchor="middle" x="36.58" y="-145.3" font-family="Times New Roman,serif" font-size="14.00">A</text>
</g>
<!-- x5 -->
<g id="node18" class="node">
<title>x5</title>
<path fill="none" stroke="black" d="M140.66,-60.5C140.66,-60.5 178.66,-60.5 178.66,-60.5 184.66,-60.5 190.66,-66.5 190.66,-72.5 190.66,-72.5 190.66,-117.5 190.66,-117.5 190.66,-123.5 184.66,-129.5 178.66,-129.5 178.66,-129.5 140.66,-129.5 140.66,-129.5 134.66,-129.5 128.66,-123.5 128.66,-117.5 128.66,-117.5 128.66,-72.5 128.66,-72.5 128.66,-66.5 134.66,-60.5 140.66,-60.5"/>
<text text-anchor="middle" x="159.66" y="-114.3" font-family="Times New Roman,serif" font-size="14.00">0:0 &#45; 2:2</text>
<polyline fill="none" stroke="black" points="128.66,-106.5 190.66,-106.5 "/>
<text text-anchor="middle" x="159.66" y="-91.3" font-family="Times New Roman,serif" font-size="14.00">0:0 &#45; 1:1</text>
<polyline fill="none" stroke="black" points="128.66,-83.5 190.66,-83.5 "/>
<text text-anchor="middle" x="159.66" y="-68.3" font-family="Times New Roman,serif" font-size="14.00">0:0 &#45; 0:0</text>
</g>
<!-- n2&#45;&gt;x5 -->
<g id="edge10" class="edge">
<title>n2:e&#45;&gt;x5:w</title>
<path fill="none" stroke="#d95f02" d="M64.58,-149C92.04,-149 95.83,-125.05 117.55,-119.25"/>
<polygon fill="#d95f02" stroke="#d95f02" points="118.17,-122.7 127.66,-118 117.31,-115.76 118.17,-122.7"/>
</g>
<!-- n3 -->
<g id="node2" class="node">
<title>n3</title>
<polygon fill="none" stroke="black" points="63.58,-87.54 63.58,-102.46 47.77,-113 25.4,-113 9.58,-102.46 9.58,-87.54 25.4,-77 47.77,-77 63.58,-87.54"/>
<text text-anchor="middle" x="36.58" y="-91.3" font-family="Times New Roman,serif" font-size="14.00">B</text>
</g>
<!-- n3&#45;&gt;x5 -->
<g id="edge11" class="edge">
<title>n3:e&#45;&gt;x5:w</title>
<path fill="none" stroke="#1b9e77" d="M64.58,-95C88.89,-95 97.39,-95 117.51,-95"/>
<polygon fill="#1b9e77" stroke="#1b9e77" points="117.66,-98.5 127.66,-95 117.66,-91.5 117.66,-98.5"/>
</g>
<!-- n4 -->
<g id="node3" class="node">
<title>n4</title>
<polygon fill="none" stroke="black" points="63.58,-33.54 63.58,-48.46 47.77,-59 25.4,-59 9.58,-48.46 9.58,-33.54 25.4,-23 47.77,-23 63.58,-33.54"/>
<text text-anchor="middle" x="36.58" y="-37.3" font-family="Times New Roman,serif" font-size="14.00">C</text>
</g>
<!-- n4&#45;&gt;x5 -->
<g id="edge12" class="edge">
<title>n4:e&#45;&gt;x5:w</title>
<path fill="none" stroke="#1b9e77" d="M64.58,-41C92.04,-41 95.83,-64.95 117.55,-70.75"/>
<polygon fill="#1b9e77" stroke="#1b9e77" points="117.31,-74.24 127.66,-72 118.17,-67.3 117.31,-74.24"/>
</g>
<!-- n5 -->
<g id="node4" class="node">
<title>n5</title>
<polygon fill="none" stroke="black" points="606.76,-229 579.76,-211 606.76,-193 633.76,-211 606.76,-229"/>
<text text-anchor="middle" x="606.76" y="-207.3" font-family="Times New Roman,serif" font-size="14.00">Q</text>
</g>
<!-- x0 -->
<g id="node11" class="node">
<title>x0</title>
<path fill="none" stroke="black" d="M727.76,-243C727.76,-243 765.76,-243 765.76,-243 771.76,-243 777.76,-249 777.76,-255 777.76,-255 777.76,-267 777.76,-267 777.76,-273 771.76,-279 765.76,-279 765.76,-279 727.76,-279 727.76,-279 721.76,-279 715.76,-273 715.76,-267 715.76,-267 715.76,-255 715.76,-255 715.76,-249 721.76,-243 727.76,-243"/>
<text text-anchor="middle" x="746.76" y="-257.3" font-family="Times New Roman,serif" font-size="14.00">7:1 &#45; 6:0</text>
</g>
<!-- n5&#45;&gt;x0 -->
<g id="edge15" class="edge">
<title>n5:e&#45;&gt;x0:w</title>
<path fill="none" stroke="#e6ab02" stroke-width="3" d="M633.76,-211C645.08,-211 642.61,-222.36 651.76,-229 674.2,-245.28 681.65,-257.76 704.69,-260.46"/>
<polygon fill="#e6ab02" stroke="#e6ab02" stroke-width="3" points="704.59,-263.95 714.76,-261 704.97,-256.97 704.59,-263.95"/>
<text text-anchor="middle" x="663.76" y="-250.8" font-family="Times New Roman,serif" font-size="14.00" fill="#e6ab02">&lt;8&gt;</text>
</g>
<!-- x1 -->
<g id="node12" class="node">
<title>x1</title>
<path fill="none" stroke="black" d="M727.76,-188C727.76,-188 765.76,-188 765.76,-188 771.76,-188 777.76,-194 777.76,-200 777.76,-200 777.76,-212 777.76,-212 777.76,-218 771.76,-224 765.76,-224 765.76,-224 727.76,-224 727.76,-224 721.76,-224 715.76,-218 715.76,-212 715.76,-212 715.76,-200 715.76,-200 715.76,-194 721.76,-188 727.76,-188"/>
<text text-anchor="middle" x="746.76" y="-202.3" font-family="Times New Roman,serif" font-size="14.00">6:0 &#45; 6:0</text>
</g>
<!-- n5&#45;&gt;x1 -->
<g id="edge16" class="edge">
<title>n5:e&#45;&gt;x1:w</title>
<path fill="none" stroke="#e6ab02" stroke-width="3" d="M633.76,-211C666.17,-211 676.61,-206.96 704.56,-206.14"/>
<polygon fill="#e6ab02" stroke="#e6ab02" stroke-width="3" points="704.81,-209.64 714.76,-206 704.71,-202.64 704.81,-209.64"/>
<text text-anchor="middle" x="663.76" y="-213.8" font-family="Times New Roman,serif" font-size="14.00" fill="#e6ab02">&lt;8&gt;</text>
</g>
<!-- x3 -->
<g id="node15" class="node">
<title>x3</title>
<path fill="none" stroke="black" d="M727.76,-298C727.76,-298 765.76,-298 765.76,-298 771.76,-298 777.76,-304 777.76,-310 777.76,-310 777.76,-322 777.76,-322 777.76,-328 771.76,-334 765.76,-334 765.76,-334 727.76,-334 727.76,-334 721.76,-334 715.76,-328 715.76,-322 715.76,-322 715.76,-310 715.76,-310 715.76,-304 721.76,-298 727.76,-298"/>
<text text-anchor="middle" x="746.76" y="-312.3" font-family="Times New Roman,serif" font-size="14.00">0:0 &#45; 0:0</text>
</g>
<!-- n5&#45;&gt;x3 -->
<g id="edge17" class="edge">
<title>n5:e&#45;&gt;x3:w</title>
<path fill="none" stroke="#e6ab02" stroke-width="3" d="M633.76,-211C659.48,-211 637.07,-244.89 651.76,-266 670.11,-292.36 677.49,-311.71 704.72,-315.37"/>
<polygon fill="#e6ab02" stroke="#e6ab02" stroke-width="3" points="704.56,-318.87 714.76,-316 705,-311.88 704.56,-318.87"/>
<text text-anchor="middle" x="663.76" y="-302.8" font-family="Times New Roman,serif" font-size="14.00" fill="#e6ab02">&lt;8&gt;</text>
</g>
<!-- c16 -->
<g id="node17" class="node">
<title>c16</title>
<polygon fill="none" stroke="black" points="693.76,-84 693.76,-130 799.76,-130 799.76,-84 693.76,-84"/>
<text text-anchor="middle" x="706.76" y="-114.8" font-family="Times New Roman,serif" font-size="14.00">A</text>
<polyline fill="none" stroke="black" points="693.76,-107 719.76,-107 "/>
<text text-anchor="middle" x="706.76" y="-91.8" font-family="Times New Roman,serif" font-size="14.00">B</text>
<polyline fill="none" stroke="black" points="719.76,-84 719.76,-130 "/>
<text text-anchor="middle" x="746.76" y="-110.8" font-family="Times New Roman,serif" font-size="14.00">$1</text>
<text text-anchor="middle" x="746.76" y="-95.8" font-family="Times New Roman,serif" font-size="14.00">$shiftx</text>
<polyline fill="none" stroke="black" points="773.76,-84 773.76,-130 "/>
<text text-anchor="middle" x="786.76" y="-103.3" font-family="Times New Roman,serif" font-size="14.00">Y</text>
</g>
<!-- n5&#45;&gt;c16 -->
<g id="edge14" class="edge">
<title>n5:e&#45;&gt;c16:w</title>
<path fill="none" stroke="#e6ab02" stroke-width="3" d="M633.76,-211C643.97,-211 670.51,-146.71 686.07,-125.62"/>
<polygon fill="#e6ab02" stroke="#e6ab02" stroke-width="3" points="688.47,-128.18 693.76,-119 683.9,-122.87 688.47,-128.18"/>
<text text-anchor="middle" x="663.76" y="-189.8" font-family="Times New Roman,serif" font-size="14.00" fill="#e6ab02">&lt;8&gt;</text>
</g>
<!-- n6 -->
<g id="node5" class="node">
<title>n6</title>
<polygon fill="none" stroke="black" points="63.58,-337.54 63.58,-352.46 47.77,-363 25.4,-363 9.58,-352.46 9.58,-337.54 25.4,-327 47.77,-327 63.58,-337.54"/>
<text text-anchor="middle" x="36.58" y="-341.3" font-family="Times New Roman,serif" font-size="14.00">S</text>
</g>
<!-- c15 -->
<g id="node14" class="node">
<title>c15</title>
<polygon fill="none" stroke="black" points="110.16,-310.5 110.16,-379.5 209.16,-379.5 209.16,-310.5 110.16,-310.5"/>
<text text-anchor="middle" x="123.16" y="-364.3" font-family="Times New Roman,serif" font-size="14.00">A</text>
<polyline fill="none" stroke="black" points="110.16,-356.5 136.16,-356.5 "/>
<text text-anchor="middle" x="123.16" y="-341.3" font-family="Times New Roman,serif" font-size="14.00">B</text>
<polyline fill="none" stroke="black" points="110.16,-333.5 136.16,-333.5 "/>
<text text-anchor="middle" x="123.16" y="-318.3" font-family="Times New Roman,serif" font-size="14.00">S</text>
<polyline fill="none" stroke="black" points="136.16,-310.5 136.16,-379.5 "/>
<text text-anchor="middle" x="159.66" y="-348.8" font-family="Times New Roman,serif" font-size="14.00">$7</text>
<text text-anchor="middle" x="159.66" y="-333.8" font-family="Times New Roman,serif" font-size="14.00">$mux</text>
<polyline fill="none" stroke="black" points="183.16,-310.5 183.16,-379.5 "/>
<text text-anchor="middle" x="196.16" y="-341.3" font-family="Times New Roman,serif" font-size="14.00">Y</text>
</g>
<!-- n6&#45;&gt;c15 -->
<g id="edge18" class="edge">
<title>n6:e&#45;&gt;c15:w</title>
<path fill="none" stroke="#e6ab02" d="M64.58,-345C80.88,-345 87.35,-345 99.81,-345"/>
<polygon fill="#e6ab02" stroke="#e6ab02" points="100.16,-348.5 110.16,-345 100.16,-341.5 100.16,-348.5"/>
</g>
<!-- n7 -->
<g id="node6" class="node">
<title>n7</title>
<polygon fill="none" stroke="black" points="1152.76,-99.54 1152.76,-114.46 1136.95,-125 1114.58,-125 1098.76,-114.46 1098.76,-99.54 1114.58,-89 1136.95,-89 1152.76,-99.54"/>
<text text-anchor="middle" x="1125.76" y="-103.3" font-family="Times New Roman,serif" font-size="14.00">Z</text>
</g>
<!-- n8 -->
<g id="node7" class="node">
<title>n8</title>
<polygon fill="none" stroke="black" points="63.58,-208.54 63.58,-223.46 47.77,-234 25.4,-234 9.58,-223.46 9.58,-208.54 25.4,-198 47.77,-198 63.58,-208.54"/>
<text text-anchor="middle" x="36.58" y="-212.3" font-family="Times New Roman,serif" font-size="14.00">clk</text>
</g>
<!-- c12 -->
<g id="node9" class="node">
<title>c12</title>
<polygon fill="none" stroke="black" points="408.76,-188 408.76,-234 519.76,-234 519.76,-188 408.76,-188"/>
<text text-anchor="middle" x="430.76" y="-218.8" font-family="Times New Roman,serif" font-size="14.00">CLK</text>
<polyline fill="none" stroke="black" points="408.76,-211 452.76,-211 "/>
<text text-anchor="middle" x="430.76" y="-195.8" font-family="Times New Roman,serif" font-size="14.00">D</text>
<polyline fill="none" stroke="black" points="452.76,-188 452.76,-234 "/>
<text text-anchor="middle" x="472.76" y="-214.8" font-family="Times New Roman,serif" font-size="14.00">$9</text>
<text text-anchor="middle" x="472.76" y="-199.8" font-family="Times New Roman,serif" font-size="14.00">$dff</text>
<polyline fill="none" stroke="black" points="492.76,-188 492.76,-234 "/>
<text text-anchor="middle" x="506.26" y="-207.3" font-family="Times New Roman,serif" font-size="14.00">Q</text>
</g>
<!-- n8&#45;&gt;c12 -->
<g id="edge20" class="edge">
<title>n8:e&#45;&gt;c12:w</title>
<path fill="none" stroke="#d95f02" d="M64.58,-216C106.4,-216 116.85,-216 158.66,-216 158.66,-216 158.66,-216 347.96,-216 371.45,-216 379.42,-221.22 398.67,-222.64"/>
<polygon fill="#d95f02" stroke="#d95f02" points="398.65,-226.14 408.76,-223 398.89,-219.15 398.65,-226.14"/>
</g>
<!-- n9 -->
<g id="node8" class="node">
<title>n9</title>
<polygon fill="none" stroke="black" points="73.25,-272.54 73.25,-287.46 51.77,-298 21.4,-298 -0.08,-287.46 -0.08,-272.54 21.4,-262 51.77,-262 73.25,-272.54"/>
<text text-anchor="middle" x="36.58" y="-276.3" font-family="Times New Roman,serif" font-size="14.00">enable</text>
</g>
<!-- c14 -->
<g id="node10" class="node">
<title>c14</title>
<polygon fill="none" stroke="black" points="859.76,-188.5 859.76,-257.5 958.76,-257.5 958.76,-188.5 859.76,-188.5"/>
<text text-anchor="middle" x="872.76" y="-242.3" font-family="Times New Roman,serif" font-size="14.00">A</text>
<polyline fill="none" stroke="black" points="859.76,-234.5 885.76,-234.5 "/>
<text text-anchor="middle" x="872.76" y="-219.3" font-family="Times New Roman,serif" font-size="14.00">B</text>
<polyline fill="none" stroke="black" points="859.76,-211.5 885.76,-211.5 "/>
<text text-anchor="middle" x="872.76" y="-196.3" font-family="Times New Roman,serif" font-size="14.00">S</text>
<polyline fill="none" stroke="black" points="885.76,-188.5 885.76,-257.5 "/>
<text text-anchor="middle" x="909.26" y="-226.8" font-family="Times New Roman,serif" font-size="14.00">$5</text>
<text text-anchor="middle" x="909.26" y="-211.8" font-family="Times New Roman,serif" font-size="14.00">$mux</text>
<polyline fill="none" stroke="black" points="932.76,-188.5 932.76,-257.5 "/>
<text text-anchor="middle" x="945.76" y="-219.3" font-family="Times New Roman,serif" font-size="14.00">Y</text>
</g>
<!-- n9&#45;&gt;c14 -->
<g id="edge21" class="edge">
<title>n9:e&#45;&gt;c14:w</title>
<path fill="none" stroke="#d95f02" d="M73.16,-280C112.88,-280 118.95,-254 158.66,-254 158.66,-254 158.66,-254 327.16,-254 356.92,-254 344.02,-219.19 366.76,-200 430.14,-146.53 465.85,-159 548.76,-159 548.76,-159 548.76,-159 747.76,-159 797.15,-159 805.72,-194.59 849.52,-199.45"/>
<polygon fill="#d95f02" stroke="#d95f02" points="849.59,-202.96 859.76,-200 849.96,-195.97 849.59,-202.96"/>
</g>
<!-- n9&#45;&gt;c15 -->
<g id="edge22" class="edge">
<title>n9:e&#45;&gt;c15:w</title>
<path fill="none" stroke="#d95f02" d="M73.16,-280C93.96,-280 88.46,-309.35 100.63,-318.98"/>
<polygon fill="#d95f02" stroke="#d95f02" points="99.57,-322.32 110.16,-322 101.69,-315.64 99.57,-322.32"/>
</g>
<!-- c12&#45;&gt;n5 -->
<g id="edge13" class="edge">
<title>c12:e&#45;&gt;n5:w</title>
<path fill="none" stroke="#e6ab02" stroke-width="3" d="M519.76,-211C542.68,-211 550.83,-211 569.59,-211"/>
<polygon fill="#e6ab02" stroke="#e6ab02" stroke-width="3" points="569.76,-214.5 579.76,-211 569.76,-207.5 569.76,-214.5"/>
<text text-anchor="middle" x="549.76" y="-214.8" font-family="Times New Roman,serif" font-size="14.00" fill="#e6ab02">&lt;8&gt;</text>
</g>
<!-- x2 -->
<g id="node13" class="node">
<title>x2</title>
<path fill="none" stroke="black" d="M1030.76,-277C1030.76,-277 1068.76,-277 1068.76,-277 1074.76,-277 1080.76,-283 1080.76,-289 1080.76,-289 1080.76,-301 1080.76,-301 1080.76,-307 1074.76,-313 1068.76,-313 1068.76,-313 1030.76,-313 1030.76,-313 1024.76,-313 1018.76,-307 1018.76,-301 1018.76,-301 1018.76,-289 1018.76,-289 1018.76,-283 1024.76,-277 1030.76,-277"/>
<text text-anchor="middle" x="1049.76" y="-291.3" font-family="Times New Roman,serif" font-size="14.00">6:0 &#45; 7:1</text>
</g>
<!-- c14&#45;&gt;x2 -->
<g id="edge3" class="edge">
<title>c14:e&#45;&gt;x2:w</title>
<path fill="none" stroke="#1b9e77" stroke-width="3" d="M970.61,-225.56C992.7,-236.74 984.82,-281.13 1006.83,-292.39"/>
<polygon fill="none" stroke="#1b9e77" stroke-width="3" points="970.49,-225.54 963.78,-228.18 958.76,-223 965.47,-220.36 970.49,-225.54"/>
<polygon fill="none" stroke="#1b9e77" stroke-width="3" points="1007.04,-292.44 1013.76,-289.81 1018.76,-295 1012.05,-297.63 1007.04,-292.44"/>
<text text-anchor="middle" x="988.76" y="-290.8" font-family="Times New Roman,serif" font-size="14.00" fill="#1b9e77">&lt;7&gt;</text>
</g>
<!-- x0&#45;&gt;c14 -->
<g id="edge1" class="edge">
<title>x0:e&#45;&gt;c14:w</title>
<path fill="none" stroke="#66a61e" stroke-width="3" d="M790.9,-260.39C814.02,-257.97 824.56,-249 847.71,-246.6"/>
<polygon fill="none" stroke="#66a61e" stroke-width="3" points="790.75,-260.4 784.96,-264.7 778.76,-261 784.56,-256.71 790.75,-260.4"/>
<polygon fill="none" stroke="#66a61e" stroke-width="3" points="847.78,-246.59 853.57,-242.3 859.76,-246 853.97,-250.29 847.78,-246.59"/>
<text text-anchor="middle" x="829.76" y="-256.8" font-family="Times New Roman,serif" font-size="14.00" fill="#66a61e">&lt;7&gt;</text>
</g>
<!-- x1&#45;&gt;c14 -->
<g id="edge2" class="edge">
<title>x1:e&#45;&gt;c14:w</title>
<path fill="none" stroke="#1b9e77" stroke-width="3" d="M790.71,-207.95C806.26,-211.21 832.07,-217.74 847.68,-221.02"/>
<polygon fill="none" stroke="#1b9e77" stroke-width="3" points="790.61,-207.93 784.04,-210.91 778.76,-206 785.33,-203.02 790.61,-207.93"/>
<polygon fill="none" stroke="#1b9e77" stroke-width="3" points="847.92,-221.06 854.49,-218.08 859.76,-223 853.2,-225.98 847.92,-221.06"/>
<text text-anchor="middle" x="829.76" y="-222.8" font-family="Times New Roman,serif" font-size="14.00" fill="#1b9e77">&lt;7&gt;</text>
</g>
<!-- n1 -->
<g id="node19" class="node">
<title>n1</title>
<ellipse fill="black" stroke="black" cx="346.96" cy="-345" rx="1.8" ry="1.8"/>
</g>
<!-- x2&#45;&gt;n1 -->
<g id="edge7" class="edge">
<title>x2:e&#45;&gt;n1:w</title>
<path fill="none" stroke="#7570b3" d="M1081.76,-295C1090,-295 1085.88,-307.05 1080.76,-313.5 1031.69,-375.29 989.17,-363 910.26,-363 463.26,-363 463.26,-363 463.26,-363 444.62,-363 381.26,-354.3 353.4,-348.99"/>
<polygon fill="#7570b3" stroke="#7570b3" points="354.54,-345.68 343.96,-345 351.81,-352.12 354.54,-345.68"/>
</g>
<!-- x4 -->
<g id="node16" class="node">
<title>x4</title>
<path fill="none" stroke="black" d="M258.16,-327C258.16,-327 296.16,-327 296.16,-327 302.16,-327 308.16,-333 308.16,-339 308.16,-339 308.16,-351 308.16,-351 308.16,-357 302.16,-363 296.16,-363 296.16,-363 258.16,-363 258.16,-363 252.16,-363 246.16,-357 246.16,-351 246.16,-351 246.16,-339 246.16,-339 246.16,-333 252.16,-327 258.16,-327"/>
<text text-anchor="middle" x="277.16" y="-341.3" font-family="Times New Roman,serif" font-size="14.00">0:0 &#45; 0:0</text>
</g>
<!-- c15&#45;&gt;x4 -->
<g id="edge5" class="edge">
<title>c15:e&#45;&gt;x4:w</title>
<path fill="none" stroke="#e7298a" d="M221.19,-345C225.79,-345 229.55,-345 234.14,-345"/>
<polygon fill="none" stroke="#e7298a" points="221.16,-345 215.16,-349 209.16,-345 215.16,-341 221.16,-345"/>
<polygon fill="none" stroke="#e7298a" points="234.16,-345 240.16,-341 246.16,-345 240.16,-349 234.16,-345"/>
</g>
<!-- x3&#45;&gt;c15 -->
<g id="edge4" class="edge">
<title>x3:e&#45;&gt;c15:w</title>
<path fill="none" stroke="#7570b3" d="M781.46,-328.02C780.44,-330.34 779.12,-332.62 777.76,-334.5 730.23,-400.25 688.89,-401 607.76,-401 276.16,-401 276.16,-401 276.16,-401 201.58,-401 161.28,-433.84 109.66,-380 109.55,-379.88 109.43,-379.75 109.32,-379.63"/>
<polygon fill="none" stroke="#7570b3" points="781.39,-327.71 776.18,-322.73 778.76,-316 783.98,-320.98 781.39,-327.71"/>
<polygon fill="none" stroke="#7570b3" points="109.34,-379.98 105.01,-374.22 108.66,-368 112.99,-373.77 109.34,-379.98"/>
</g>
<!-- x4&#45;&gt;n1 -->
<g id="edge8" class="edge">
<title>x4:e&#45;&gt;n1:w</title>
<path fill="none" stroke="#7570b3" d="M308.16,-345C320.63,-345 326,-345 335.04,-345"/>
<polygon fill="#7570b3" stroke="#7570b3" points="335.16,-348.5 345.16,-345 335.16,-341.5 335.16,-348.5"/>
</g>
<!-- c16&#45;&gt;n7 -->
<g id="edge19" class="edge">
<title>c16:e&#45;&gt;n7:w</title>
<path fill="none" stroke="#d95f02" d="M799.76,-107C929.15,-107 964.05,-107 1088.46,-107"/>
<polygon fill="#d95f02" stroke="#d95f02" points="1088.76,-110.5 1098.76,-107 1088.76,-103.5 1088.76,-110.5"/>
</g>
<!-- x5&#45;&gt;c16 -->
<g id="edge6" class="edge">
<title>x5:e&#45;&gt;c16:w</title>
<path fill="none" stroke="#e7298a" stroke-width="3" d="M203.8,-95C231.81,-95 243.01,-95 276.16,-95 276.16,-95 276.16,-95 607.76,-95 641.51,-95 652.91,-95 681.41,-95"/>
<polygon fill="none" stroke="#e7298a" stroke-width="3" points="203.66,-95 197.66,-99 191.66,-95 197.66,-91 203.66,-95"/>
<polygon fill="none" stroke="#e7298a" stroke-width="3" points="681.76,-95 687.76,-91 693.76,-95 687.76,-99 681.76,-95"/>
<text text-anchor="middle" x="378.76" y="-98.8" font-family="Times New Roman,serif" font-size="14.00" fill="#e7298a">&lt;3&gt;</text>
</g>
<!-- n1&#45;&gt;c12 -->
<g id="edge9" class="edge">
<title>n1:e&#45;&gt;c12:w</title>
<path fill="none" stroke="#7570b3" d="M348.76,-345C415.08,-345 346.94,-214.53 398.55,-200.26"/>
<polygon fill="#7570b3" stroke="#7570b3" points="399.27,-203.7 408.76,-199 398.41,-196.75 399.27,-203.7"/>
</g>
</g>
</svg>
