<svg xmlns="http://www.w3.org/2000/svg" xmlns:xlink="http://www.w3.org/1999/xlink" xmlns:s="https://github.com/nturley/netlistsvg" width="531" height="344.5">
  <style>svg {
    stroke:#000;
    fill:none;
  }
  text {
    fill:#000;
    stroke:none;
    font-size:10px;
    font-weight: bold;
    font-family: "Courier New", monospace;
  }
  .nodelabel {
    text-anchor: middle;
  }
  .inputPortLabel {
    text-anchor: end;
  }
  .splitjoinBody {
    fill:#000;
  }</style>
  <g s:type="dff" transform="translate(238,43)" s:width="30" s:height="40" id="cell_$procdff$9">
    <s:alias val="$dff"/>
    <s:alias val="$_DFF_"/>
    <s:alias val="$_DFF_P_"/>
    <rect width="30" height="40" x="0" y="0" class="cell_$procdff$9"/>
    <path d="M0,35 L5,30 L0,25" class="cell_$procdff$9"/>
    <g s:x="30" s:y="10" s:pid="Q"/>
    <g s:x="0" s:y="30" s:pid="CLK"/>
    <g s:x="0" s:y="30" s:pid="C"/>
    <g s:x="0" s:y="10" s:pid="D"/>
  </g>
  <g s:type="mux" transform="translate(118,223)" s:width="20" s:height="40" id="cell_$procmux$5">
    <s:alias val="$pmux"/>
    <s:alias val="$mux"/>
    <s:alias val="$_MUX_"/>
    <path d="M0,0 L20,10 L20,30 L0,40 Z" class="cell_$procmux$5"/>
    <g s:x="0" s:y="10" s:pid="A"/>
    <g s:x="0" s:y="30" s:pid="B"/>
    <g s:x="10" s:y="35" s:pid="S"/>
    <g s:x="20" s:y="20" s:pid="Y"/>
  </g>
  <g s:type="mux" transform="translate(118,23)" s:width="20" s:height="40" id="cell_$procmux$7">
    <s:alias val="$pmux"/>
    <s:alias val="$mux"/>
    <s:alias val="$_MUX_"/>
    <path d="M0,0 L20,10 L20,30 L0,40 Z" class="cell_$procmux$7"/>
    <g s:x="0" s:y="10" s:pid="A"/>
    <g s:x="0" s:y="30" s:pid="B"/>
    <g s:x="10" s:y="35" s:pid="S"/>
    <g s:x="20" s:y="20" s:pid="Y"/>
  </g>
  <g s:type="generic" transform="translate(310,42.5)" s:width="30" s:height="40" id="cell_$shiftx$top_module.v:0$1">
    <text x="15" y="-4" class="nodelabel cell_$shiftx$top_module.v:0$1" s:attribute="ref">$shiftx</text>
    <rect width="30" height="40" s:generic="body" class="cell_$shiftx$top_module.v:0$1"/>
    <g transform="translate(0,10)" s:x="0" s:y="10" s:pid="in0" id="port_$shiftx$top_module.v:0$1~A">
      <text x="-3" y="-4" class="inputPortLabel cell_$shiftx$top_module.v:0$1">A</text>
    </g>
    <g transform="translate(0,30)" s:x="0" s:y="10" s:pid="in0" id="port_$shiftx$top_module.v:0$1~B">
      <text x="-3" y="-4" class="inputPortLabel cell_$shiftx$top_module.v:0$1">B</text>
    </g>
    <g transform="translate(30,10)" s:x="30" s:y="10" s:pid="out0" id="port_$shiftx$top_module.v:0$1~Y">
      <text x="5" y="-4" style="fill:#000; stroke:none" class="cell_$shiftx$top_module.v:0$1">Y</text>
    </g>
  </g>
  <g s:type="inputExt" transform="translate(173,117.5)" s:width="30" s:height="20" id="cell_clk">
    <text x="15" y="-4" class="nodelabel cell_clk" s:attribute="ref">clk</text>
    <s:alias val="$_inputExt_"/>
    <path d="M0,0 L0,20 L15,20 L30,10 L15,0 Z" class="cell_clk"/>
    <g s:x="28" s:y="10" s:pid="Y"/>
  </g>
  <g s:type="inputExt" transform="translate(32,203)" s:width="30" s:height="20" id="cell_enable">
    <text x="15" y="-4" class="nodelabel cell_enable" s:attribute="ref">enable</text>
    <s:alias val="$_inputExt_"/>
    <path d="M0,0 L0,20 L15,20 L30,10 L15,0 Z" class="cell_enable"/>
    <g s:x="28" s:y="10" s:pid="Y"/>
  </g>
  <g s:type="inputExt" transform="translate(32,43)" s:width="30" s:height="20" id="cell_S">
    <text x="15" y="-4" class="nodelabel cell_S" s:attribute="ref">S</text>
    <s:alias val="$_inputExt_"/>
    <path d="M0,0 L0,20 L15,20 L30,10 L15,0 Z" class="cell_S"/>
    <g s:x="28" s:y="10" s:pid="Y"/>
  </g>
  <g s:type="inputExt" transform="translate(173,312.5)" s:width="30" s:height="20" id="cell_A">
    <text x="15" y="-4" class="nodelabel cell_A" s:attribute="ref">A</text>
    <s:alias val="$_inputExt_"/>
    <path d="M0,0 L0,20 L15,20 L30,10 L15,0 Z" class="cell_A"/>
    <g s:x="28" s:y="10" s:pid="Y"/>
  </g>
  <g s:type="inputExt" transform="translate(173,247.5)" s:width="30" s:height="20" id="cell_B">
    <text x="15" y="-4" class="nodelabel cell_B" s:attribute="ref">B</text>
    <s:alias val="$_inputExt_"/>
    <path d="M0,0 L0,20 L15,20 L30,10 L15,0 Z" class="cell_B"/>
    <g s:x="28" s:y="10" s:pid="Y"/>
  </g>
  <g s:type="inputExt" transform="translate(173,182.5)" s:width="30" s:height="20" id="cell_C">
    <text x="15" y="-4" class="nodelabel cell_C" s:attribute="ref">C</text>
    <s:alias val="$_inputExt_"/>
    <path d="M0,0 L0,20 L15,20 L30,10 L15,0 Z" class="cell_C"/>
    <g s:x="28" s:y="10" s:pid="Y"/>
  </g>
  <g s:type="outputExt" transform="translate(489,43)" s:width="30" s:height="20" id="cell_Z">
    <text x="15" y="-4" class="nodelabel cell_Z" s:attribute="ref">Z</text>
    <s:alias val="$_outputExt_"/>
    <path d="M30,0 L30,20 L15,20 L0,10 L15,0 Z" class="cell_Z"/>
    <g s:x="0" s:y="10" s:pid="A"/>
  </g>
  <g s:type="join" transform="translate(184,32.5)" s:width="4" s:height="40" id="cell_$join$,9,10,11,12,13,14,15,16,">
    <rect width="5" height="40" class="splitjoinBody" s:generic="body"/>
    <s:alias val="$_join_"/>
    <g s:x="5" s:y="20" s:pid="out"/>
    <g transform="translate(0,10)" s:x="0" s:y="10" s:pid="in0">
      <text x="-3" y="-4" class="inputPortLabel">0</text>
    </g>
    <g transform="translate(0,30)" s:x="0" s:y="10" s:pid="in0">
      <text x="-3" y="-4" class="inputPortLabel">1:7</text>
    </g>
  </g>
  <g s:type="join" transform="translate(248,227)" s:width="4" s:height="40" id="cell_$join$,7,6,5,">
    <rect width="5" height="60" class="splitjoinBody" s:generic="body"/>
    <s:alias val="$_join_"/>
    <g s:x="5" s:y="20" s:pid="out"/>
    <g transform="translate(0,10)" s:x="0" s:y="10" s:pid="in0">
      <text x="-3" y="-4" class="inputPortLabel">0</text>
    </g>
    <g transform="translate(0,30)" s:x="0" s:y="10" s:pid="in0">
      <text x="-3" y="-4" class="inputPortLabel">1</text>
    </g>
    <g transform="translate(0,50)" s:x="0" s:y="10" s:pid="in0">
      <text x="-3" y="-4" class="inputPortLabel">2</text>
    </g>
  </g>
  <g s:type="split" transform="translate(44,98)" s:width="5" s:height="40" id="cell_$split$,17,18,19,20,21,22,23,24,">
    <rect width="5" height="60" class="splitjoinBody" s:generic="body"/>
    <s:alias val="$_split_"/>
    <g s:x="0" s:y="20" s:pid="in"/>
    <g transform="translate(4,10)" s:x="4" s:y="10" s:pid="out0">
      <text x="5" y="-4">1:7</text>
    </g>
    <g transform="translate(4,30)" s:x="4" s:y="10" s:pid="out0">
      <text x="5" y="-4">0:6</text>
    </g>
    <g transform="translate(4,50)" s:x="4" s:y="10" s:pid="out0">
      <text x="5" y="-4">0</text>
    </g>
  </g>
  <line x1="201" x2="213" y1="127.5" y2="127.5" class="net_2"/>
  <line x1="213" x2="213" y1="127.5" y2="73" class="net_2"/>
  <line x1="213" x2="238" y1="73" y2="73" class="net_2"/>
  <line x1="190" x2="238" y1="53" y2="53" class="net_9,10,11,12,13,14,15,16"/>
  <line x1="49" x2="108" y1="108.5" y2="108.5" class="net_18,19,20,21,22,23,24"/>
  <line x1="108" x2="108" y1="108.5" y2="233" class="net_18,19,20,21,22,23,24"/>
  <line x1="108" x2="118" y1="233" y2="233" class="net_18,19,20,21,22,23,24"/>
  <line x1="49" x2="88" y1="128.5" y2="128.5" class="net_17,18,19,20,21,22,23"/>
  <line x1="88" x2="88" y1="128.5" y2="253" class="net_17,18,19,20,21,22,23"/>
  <line x1="88" x2="118" y1="253" y2="253" class="net_17,18,19,20,21,22,23"/>
  <line x1="60" x2="78" y1="213" y2="213" class="net_3"/>
  <line x1="78" x2="78" y1="213" y2="273" class="net_3"/>
  <line x1="78" x2="128" y1="273" y2="273" class="net_3"/>
  <circle cx="78" cy="213" r="2" style="fill:#000" class="net_3"/>
  <line x1="128" x2="128" y1="273" y2="258" class="net_3"/>
  <line x1="60" x2="128" y1="213" y2="213" class="net_3"/>
  <line x1="128" x2="128" y1="213" y2="58" class="net_3"/>
  <line x1="49" x2="98" y1="148.5" y2="148.5" class="net_17"/>
  <line x1="98" x2="98" y1="148.5" y2="33" class="net_17"/>
  <line x1="98" x2="118" y1="33" y2="33" class="net_17"/>
  <line x1="60" x2="118" y1="53" y2="53" class="net_4"/>
  <line x1="268" x2="310" y1="53" y2="53" class="net_17,18,19,20,21,22,23,24"/>
  <line x1="268" x2="278" y1="53" y2="53" class="net_17,18,19,20,21,22,23,24"/>
  <line x1="278" x2="278" y1="53" y2="12" class="net_17,18,19,20,21,22,23,24"/>
  <line x1="278" x2="12" y1="12" y2="12" class="net_17,18,19,20,21,22,23,24"/>
  <line x1="12" x2="12" y1="12" y2="118.5" class="net_17,18,19,20,21,22,23,24"/>
  <circle cx="278" cy="53" r="2" style="fill:#000" class="net_17,18,19,20,21,22,23,24"/>
  <line x1="12" x2="44" y1="118.5" y2="118.5" class="net_17,18,19,20,21,22,23,24"/>
  <line x1="254" x2="278" y1="247.5" y2="247.5" class="net_7,6,5"/>
  <line x1="278" x2="278" y1="247.5" y2="73" class="net_7,6,5"/>
  <line x1="278" x2="310" y1="73" y2="73" class="net_7,6,5"/>
  <line x1="341" x2="489" y1="53" y2="53" class="net_8"/>
  <line x1="138" x2="184" y1="43" y2="43" class="net_9"/>
  <line x1="138" x2="148" y1="243" y2="243" class="net_10,11,12,13,14,15,16"/>
  <line x1="148" x2="148" y1="243" y2="63" class="net_10,11,12,13,14,15,16"/>
  <line x1="148" x2="184" y1="63" y2="63" class="net_10,11,12,13,14,15,16"/>
  <line x1="201" x2="213" y1="192.5" y2="192.5" class="net_7"/>
  <line x1="213" x2="213" y1="192.5" y2="237.5" class="net_7"/>
  <line x1="213" x2="248" y1="237.5" y2="237.5" class="net_7"/>
  <line x1="201" x2="248" y1="257.5" y2="257.5" class="net_6"/>
  <line x1="201" x2="213" y1="322.5" y2="322.5" class="net_5"/>
  <line x1="213" x2="213" y1="322.5" y2="277.5" class="net_5"/>
  <line x1="213" x2="248" y1="277.5" y2="277.5" class="net_5"/>
</svg>
