<?xml version="1.0" encoding="UTF-8" standalone="no"?>
<!DOCTYPE svg PUBLIC "-//W3C//DTD SVG 1.1//EN"
 "http://www.w3.org/Graphics/SVG/1.1/DTD/svg11.dtd">
<!-- Generated by graphviz version 4.0.0 (20220529.0937)
 -->
<!-- Title: add16 Pages: 1 -->
<svg width="655pt" height="186pt"
 viewBox="0.00 0.00 654.69 186.00" xmlns="http://www.w3.org/2000/svg" xmlns:xlink="http://www.w3.org/1999/xlink">
<g id="graph0" class="graph" transform="scale(1 1) rotate(0) translate(4 182)">
<title>add16</title>
<polygon fill="white" stroke="transparent" points="-4,4 -4,-182 650.69,-182 650.69,4 -4,4"/>
<text text-anchor="middle" x="323.34" y="-7.8" font-family="Times New Roman,serif" font-size="14.00">add16</text>
<!-- n3 -->
<g id="node1" class="node">
<title>n3</title>
<polygon fill="none" stroke="black" points="646.53,-87.54 646.53,-102.46 629.73,-113 605.96,-113 589.16,-102.46 589.16,-87.54 605.96,-77 629.73,-77 646.53,-87.54"/>
<text text-anchor="middle" x="617.84" y="-91.3" font-family="Times New Roman,serif" font-size="14.00">cout</text>
</g>
<!-- n4 -->
<g id="node2" class="node">
<title>n4</title>
<polygon fill="none" stroke="black" points="646.12,-33.54 646.12,-48.46 629.56,-59 606.13,-59 589.56,-48.46 589.56,-33.54 606.13,-23 629.56,-23 646.12,-33.54"/>
<text text-anchor="middle" x="617.84" y="-37.3" font-family="Times New Roman,serif" font-size="14.00">sum</text>
</g>
<!-- n5 -->
<g id="node3" class="node">
<title>n5</title>
<polygon fill="none" stroke="black" points="54,-44.54 54,-59.46 38.18,-70 15.82,-70 0,-59.46 0,-44.54 15.82,-34 38.18,-34 54,-44.54"/>
<text text-anchor="middle" x="27" y="-48.3" font-family="Times New Roman,serif" font-size="14.00">cin</text>
</g>
<!-- c11 -->
<g id="node6" class="node">
<title>c11</title>
<polygon fill="none" stroke="black" points="284,-45 284,-91 380,-91 380,-45 284,-45"/>
<text text-anchor="middle" x="297" y="-75.8" font-family="Times New Roman,serif" font-size="14.00">A</text>
<polyline fill="none" stroke="black" points="284,-68 310,-68 "/>
<text text-anchor="middle" x="297" y="-52.8" font-family="Times New Roman,serif" font-size="14.00">B</text>
<polyline fill="none" stroke="black" points="310,-45 310,-91 "/>
<text text-anchor="middle" x="332" y="-71.8" font-family="Times New Roman,serif" font-size="14.00">$2</text>
<text text-anchor="middle" x="332" y="-56.8" font-family="Times New Roman,serif" font-size="14.00">$add</text>
<polyline fill="none" stroke="black" points="354,-45 354,-91 "/>
<text text-anchor="middle" x="367" y="-64.3" font-family="Times New Roman,serif" font-size="14.00">Y</text>
</g>
<!-- n5&#45;&gt;c11 -->
<g id="edge5" class="edge">
<title>n5:e&#45;&gt;c11:w</title>
<path fill="none" stroke="#e7298a" d="M54,-52C152.74,-52 179.93,-55.73 273.78,-55.99"/>
<polygon fill="#e7298a" stroke="#e7298a" points="274,-59.49 284,-56 274,-52.49 274,-59.49"/>
</g>
<!-- n6 -->
<g id="node4" class="node">
<title>n6</title>
<polygon fill="none" stroke="black" points="54,-98.54 54,-113.46 38.18,-124 15.82,-124 0,-113.46 0,-98.54 15.82,-88 38.18,-88 54,-98.54"/>
<text text-anchor="middle" x="27" y="-102.3" font-family="Times New Roman,serif" font-size="14.00">b</text>
</g>
<!-- c12 -->
<g id="node7" class="node">
<title>c12</title>
<polygon fill="none" stroke="black" points="121,-95 121,-141 217,-141 217,-95 121,-95"/>
<text text-anchor="middle" x="134" y="-125.8" font-family="Times New Roman,serif" font-size="14.00">A</text>
<polyline fill="none" stroke="black" points="121,-118 147,-118 "/>
<text text-anchor="middle" x="134" y="-102.8" font-family="Times New Roman,serif" font-size="14.00">B</text>
<polyline fill="none" stroke="black" points="147,-95 147,-141 "/>
<text text-anchor="middle" x="169" y="-121.8" font-family="Times New Roman,serif" font-size="14.00">$1</text>
<text text-anchor="middle" x="169" y="-106.8" font-family="Times New Roman,serif" font-size="14.00">$add</text>
<polyline fill="none" stroke="black" points="191,-95 191,-141 "/>
<text text-anchor="middle" x="204" y="-114.3" font-family="Times New Roman,serif" font-size="14.00">Y</text>
</g>
<!-- n6&#45;&gt;c12 -->
<g id="edge6" class="edge">
<title>n6:e&#45;&gt;c12:w</title>
<path fill="none" stroke="#e7298a" stroke-width="3" d="M54,-106C80.06,-106 89.01,-106 110.79,-106"/>
<polygon fill="#e7298a" stroke="#e7298a" stroke-width="3" points="111,-109.5 121,-106 111,-102.5 111,-109.5"/>
<text text-anchor="middle" x="87.5" y="-109.8" font-family="Times New Roman,serif" font-size="14.00" fill="#e7298a">&lt;16&gt;</text>
</g>
<!-- n7 -->
<g id="node5" class="node">
<title>n7</title>
<polygon fill="none" stroke="black" points="54,-152.54 54,-167.46 38.18,-178 15.82,-178 0,-167.46 0,-152.54 15.82,-142 38.18,-142 54,-152.54"/>
<text text-anchor="middle" x="27" y="-156.3" font-family="Times New Roman,serif" font-size="14.00">a</text>
</g>
<!-- n7&#45;&gt;c12 -->
<g id="edge7" class="edge">
<title>n7:e&#45;&gt;c12:w</title>
<path fill="none" stroke="#7570b3" stroke-width="3" d="M54,-160C82.93,-160 87.58,-136.41 111.01,-131.07"/>
<polygon fill="#7570b3" stroke="#7570b3" stroke-width="3" points="111.43,-134.54 121,-130 110.68,-127.58 111.43,-134.54"/>
<text text-anchor="middle" x="87.5" y="-158.8" font-family="Times New Roman,serif" font-size="14.00" fill="#7570b3">&lt;16&gt;</text>
</g>
<!-- x0 -->
<g id="node8" class="node">
<title>x0</title>
<path fill="none" stroke="black" d="M459,-45C459,-45 510,-45 510,-45 516,-45 522,-51 522,-57 522,-57 522,-79 522,-79 522,-85 516,-91 510,-91 510,-91 459,-91 459,-91 453,-91 447,-85 447,-79 447,-79 447,-57 447,-57 447,-51 453,-45 459,-45"/>
<text text-anchor="middle" x="484.5" y="-75.8" font-family="Times New Roman,serif" font-size="14.00">16:16 &#45; 0:0</text>
<polyline fill="none" stroke="black" points="447,-68 522,-68 "/>
<text text-anchor="middle" x="484.5" y="-52.8" font-family="Times New Roman,serif" font-size="14.00">15:0 &#45; 15:0</text>
</g>
<!-- c11&#45;&gt;x0 -->
<g id="edge1" class="edge">
<title>c11:e&#45;&gt;x0:w</title>
<path fill="none" stroke="#66a61e" stroke-width="3" d="M380,-68C406.06,-68 415.01,-68 436.79,-68"/>
<polygon fill="#66a61e" stroke="#66a61e" stroke-width="3" points="437,-71.5 447,-68 437,-64.5 437,-71.5"/>
<text text-anchor="middle" x="413.5" y="-71.8" font-family="Times New Roman,serif" font-size="14.00" fill="#66a61e">&lt;17&gt;</text>
</g>
<!-- c12&#45;&gt;c11 -->
<g id="edge2" class="edge">
<title>c12:e&#45;&gt;c11:w</title>
<path fill="none" stroke="#1b9e77" stroke-width="3" d="M217,-118C247.49,-118 249.66,-87.86 273.95,-81.26"/>
<polygon fill="#1b9e77" stroke="#1b9e77" stroke-width="3" points="274.52,-84.72 284,-80 273.64,-77.78 274.52,-84.72"/>
<text text-anchor="middle" x="250.5" y="-117.8" font-family="Times New Roman,serif" font-size="14.00" fill="#1b9e77">&lt;17&gt;</text>
</g>
<!-- x0&#45;&gt;n3 -->
<g id="edge3" class="edge">
<title>x0:e&#45;&gt;n3:w</title>
<path fill="none" stroke="#1b9e77" d="M522,-80C548.82,-80 556.68,-91.59 578.91,-94.39"/>
<polygon fill="#1b9e77" stroke="#1b9e77" points="578.81,-97.89 589,-95 579.23,-90.91 578.81,-97.89"/>
</g>
<!-- x0&#45;&gt;n4 -->
<g id="edge4" class="edge">
<title>x0:e&#45;&gt;n4:w</title>
<path fill="none" stroke="#7570b3" stroke-width="3" d="M522,-56C548.82,-56 556.68,-44.41 578.91,-41.61"/>
<polygon fill="#7570b3" stroke="#7570b3" stroke-width="3" points="579.23,-45.09 589,-41 578.81,-38.11 579.23,-45.09"/>
<text text-anchor="middle" x="555.5" y="-57.8" font-family="Times New Roman,serif" font-size="14.00" fill="#7570b3">&lt;16&gt;</text>
</g>
</g>
</svg>
