<?xml version="1.0" encoding="UTF-8" standalone="no"?>
<!DOCTYPE svg PUBLIC "-//W3C//DTD SVG 1.1//EN"
 "http://www.w3.org/Graphics/SVG/1.1/DTD/svg11.dtd">
<!-- Generated by graphviz version 4.0.0 (20220529.0937)
 -->
<!-- Title: root Pages: 1 -->
<svg width="550pt" height="726pt"
 viewBox="0.00 0.00 550.36 726.00" xmlns="http://www.w3.org/2000/svg" xmlns:xlink="http://www.w3.org/1999/xlink">
<g id="graph0" class="graph" transform="scale(1 1) rotate(0) translate(4 722)">
<title>root</title>
<polygon fill="white" stroke="transparent" points="-4,4 -4,-722 546.36,-722 546.36,4 -4,4"/>
<text text-anchor="middle" x="271.18" y="-7.8" font-family="Times New Roman,serif" font-size="14.00">top_module</text>
<!-- n6 -->
<g id="node1" class="node">
<title>n6</title>
<polygon fill="none" stroke="black" points="54,-417.04 54,-431.96 38.18,-442.5 15.82,-442.5 0,-431.96 0,-417.04 15.82,-406.5 38.18,-406.5 54,-417.04"/>
<text text-anchor="middle" x="27" y="-420.8" font-family="Times New Roman,serif" font-size="14.00">b</text>
</g>
<!-- x1 -->
<g id="node12" class="node">
<title>x1</title>
<path fill="none" stroke="black" d="M110.63,-626.5C110.63,-626.5 168.63,-626.5 168.63,-626.5 174.63,-626.5 180.63,-632.5 180.63,-638.5 180.63,-638.5 180.63,-650.5 180.63,-650.5 180.63,-656.5 174.63,-662.5 168.63,-662.5 168.63,-662.5 110.63,-662.5 110.63,-662.5 104.63,-662.5 98.63,-656.5 98.63,-650.5 98.63,-650.5 98.63,-638.5 98.63,-638.5 98.63,-632.5 104.63,-626.5 110.63,-626.5"/>
<text text-anchor="middle" x="139.63" y="-640.8" font-family="Times New Roman,serif" font-size="14.00">31:16 &#45; 15:0</text>
</g>
<!-- n6&#45;&gt;x1 -->
<g id="edge8" class="edge">
<title>n6:e&#45;&gt;x1:w</title>
<path fill="none" stroke="black" stroke-width="3" d="M54,-424.5C149.98,-424.5 9.16,-628.47 87.57,-643.61"/>
<polygon fill="black" stroke="black" stroke-width="3" points="87.37,-647.11 97.63,-644.5 87.98,-640.14 87.37,-647.11"/>
</g>
<!-- x4 -->
<g id="node13" class="node">
<title>x4</title>
<path fill="none" stroke="black" d="M110.63,-406.5C110.63,-406.5 168.63,-406.5 168.63,-406.5 174.63,-406.5 180.63,-412.5 180.63,-418.5 180.63,-418.5 180.63,-430.5 180.63,-430.5 180.63,-436.5 174.63,-442.5 168.63,-442.5 168.63,-442.5 110.63,-442.5 110.63,-442.5 104.63,-442.5 98.63,-436.5 98.63,-430.5 98.63,-430.5 98.63,-418.5 98.63,-418.5 98.63,-412.5 104.63,-406.5 110.63,-406.5"/>
<text text-anchor="middle" x="139.63" y="-420.8" font-family="Times New Roman,serif" font-size="14.00">31:16 &#45; 15:0</text>
</g>
<!-- n6&#45;&gt;x4 -->
<g id="edge9" class="edge">
<title>n6:e&#45;&gt;x4:w</title>
<path fill="none" stroke="black" stroke-width="3" d="M54,-424.5C69.45,-424.5 75.67,-424.5 87.37,-424.5"/>
<polygon fill="black" stroke="black" stroke-width="3" points="87.63,-428 97.63,-424.5 87.63,-421 87.63,-428"/>
</g>
<!-- x8 -->
<g id="node14" class="node">
<title>x8</title>
<path fill="none" stroke="black" d="M114.13,-187.5C114.13,-187.5 165.13,-187.5 165.13,-187.5 171.13,-187.5 177.13,-193.5 177.13,-199.5 177.13,-199.5 177.13,-211.5 177.13,-211.5 177.13,-217.5 171.13,-223.5 165.13,-223.5 165.13,-223.5 114.13,-223.5 114.13,-223.5 108.13,-223.5 102.13,-217.5 102.13,-211.5 102.13,-211.5 102.13,-199.5 102.13,-199.5 102.13,-193.5 108.13,-187.5 114.13,-187.5"/>
<text text-anchor="middle" x="139.63" y="-201.8" font-family="Times New Roman,serif" font-size="14.00">15:0 &#45; 15:0</text>
</g>
<!-- n6&#45;&gt;x8 -->
<g id="edge10" class="edge">
<title>n6:e&#45;&gt;x8:w</title>
<path fill="none" stroke="black" stroke-width="3" d="M54,-424.5C149.82,-424.5 12.08,-221.45 90.57,-206.38"/>
<polygon fill="black" stroke="black" stroke-width="3" points="90.98,-209.86 100.63,-205.5 90.37,-202.89 90.98,-209.86"/>
</g>
<!-- n7 -->
<g id="node2" class="node">
<title>n7</title>
<polygon fill="none" stroke="black" points="54,-527.04 54,-541.96 38.18,-552.5 15.82,-552.5 0,-541.96 0,-527.04 15.82,-516.5 38.18,-516.5 54,-527.04"/>
<text text-anchor="middle" x="27" y="-530.8" font-family="Times New Roman,serif" font-size="14.00">a</text>
</g>
<!-- x2 -->
<g id="node15" class="node">
<title>x2</title>
<path fill="none" stroke="black" d="M110.63,-681.5C110.63,-681.5 168.63,-681.5 168.63,-681.5 174.63,-681.5 180.63,-687.5 180.63,-693.5 180.63,-693.5 180.63,-705.5 180.63,-705.5 180.63,-711.5 174.63,-717.5 168.63,-717.5 168.63,-717.5 110.63,-717.5 110.63,-717.5 104.63,-717.5 98.63,-711.5 98.63,-705.5 98.63,-705.5 98.63,-693.5 98.63,-693.5 98.63,-687.5 104.63,-681.5 110.63,-681.5"/>
<text text-anchor="middle" x="139.63" y="-695.8" font-family="Times New Roman,serif" font-size="14.00">31:16 &#45; 15:0</text>
</g>
<!-- n7&#45;&gt;x2 -->
<g id="edge11" class="edge">
<title>n7:e&#45;&gt;x2:w</title>
<path fill="none" stroke="black" stroke-width="3" d="M54,-534.5C126,-534.5 32.28,-683.17 87.45,-698.27"/>
<polygon fill="black" stroke="black" stroke-width="3" points="87.29,-701.77 97.63,-699.5 88.13,-694.82 87.29,-701.77"/>
</g>
<!-- x5 -->
<g id="node16" class="node">
<title>x5</title>
<path fill="none" stroke="black" d="M110.63,-516.5C110.63,-516.5 168.63,-516.5 168.63,-516.5 174.63,-516.5 180.63,-522.5 180.63,-528.5 180.63,-528.5 180.63,-540.5 180.63,-540.5 180.63,-546.5 174.63,-552.5 168.63,-552.5 168.63,-552.5 110.63,-552.5 110.63,-552.5 104.63,-552.5 98.63,-546.5 98.63,-540.5 98.63,-540.5 98.63,-528.5 98.63,-528.5 98.63,-522.5 104.63,-516.5 110.63,-516.5"/>
<text text-anchor="middle" x="139.63" y="-530.8" font-family="Times New Roman,serif" font-size="14.00">31:16 &#45; 15:0</text>
</g>
<!-- n7&#45;&gt;x5 -->
<g id="edge12" class="edge">
<title>n7:e&#45;&gt;x5:w</title>
<path fill="none" stroke="black" stroke-width="3" d="M54,-534.5C69.45,-534.5 75.67,-534.5 87.37,-534.5"/>
<polygon fill="black" stroke="black" stroke-width="3" points="87.63,-538 97.63,-534.5 87.63,-531 87.63,-538"/>
</g>
<!-- x9 -->
<g id="node17" class="node">
<title>x9</title>
<path fill="none" stroke="black" d="M114.13,-242.5C114.13,-242.5 165.13,-242.5 165.13,-242.5 171.13,-242.5 177.13,-248.5 177.13,-254.5 177.13,-254.5 177.13,-266.5 177.13,-266.5 177.13,-272.5 171.13,-278.5 165.13,-278.5 165.13,-278.5 114.13,-278.5 114.13,-278.5 108.13,-278.5 102.13,-272.5 102.13,-266.5 102.13,-266.5 102.13,-254.5 102.13,-254.5 102.13,-248.5 108.13,-242.5 114.13,-242.5"/>
<text text-anchor="middle" x="139.63" y="-256.8" font-family="Times New Roman,serif" font-size="14.00">15:0 &#45; 15:0</text>
</g>
<!-- n7&#45;&gt;x9 -->
<g id="edge13" class="edge">
<title>n7:e&#45;&gt;x9:w</title>
<path fill="none" stroke="black" stroke-width="3" d="M54,-534.5C112.02,-534.5 47.67,-292.68 90.88,-263.39"/>
<polygon fill="black" stroke="black" stroke-width="3" points="92.04,-266.7 100.63,-260.5 90.05,-259.99 92.04,-266.7"/>
</g>
<!-- n5 -->
<g id="node3" class="node">
<title>n5</title>
<polygon fill="none" stroke="black" points="536.69,-69.04 536.69,-83.96 520.12,-94.5 496.69,-94.5 480.13,-83.96 480.13,-69.04 496.69,-58.5 520.12,-58.5 536.69,-69.04"/>
<text text-anchor="middle" x="508.41" y="-72.8" font-family="Times New Roman,serif" font-size="14.00">sum</text>
</g>
<!-- x6 -->
<g id="node11" class="node">
<title>x6</title>
<path fill="none" stroke="black" d="M114.13,-23.5C114.13,-23.5 165.13,-23.5 165.13,-23.5 171.13,-23.5 177.13,-29.5 177.13,-35.5 177.13,-35.5 177.13,-47.5 177.13,-47.5 177.13,-53.5 171.13,-59.5 165.13,-59.5 165.13,-59.5 114.13,-59.5 114.13,-59.5 108.13,-59.5 102.13,-53.5 102.13,-47.5 102.13,-47.5 102.13,-35.5 102.13,-35.5 102.13,-29.5 108.13,-23.5 114.13,-23.5"/>
<text text-anchor="middle" x="139.63" y="-37.8" font-family="Times New Roman,serif" font-size="14.00">15:0 &#45; 15:0</text>
</g>
<!-- n5&#45;&gt;x6 -->
<g id="edge7" class="edge">
<title>n5:e&#45;&gt;x6:w</title>
<path fill="none" stroke="black" stroke-width="3" d="M537.41,-76.5C545.42,-76.5 542.23,-88.99 536.41,-94.5 518.28,-111.65 505.19,-95.63 480.27,-94.5 477.63,-94.38 103.47,-61.9 101.63,-60 99.31,-57.59 97.35,-54.09 96.4,-50.77"/>
<polygon fill="black" stroke="black" stroke-width="3" points="99.66,-52.05 100.63,-41.5 93.3,-49.14 99.66,-52.05"/>
</g>
<!-- n2 -->
<g id="node4" class="node">
<title>n2</title>
<polygon fill="none" stroke="black" points="139.63,-497.5 89.87,-479.5 139.63,-461.5 189.4,-479.5 139.63,-497.5"/>
<text text-anchor="middle" x="139.63" y="-475.8" font-family="Times New Roman,serif" font-size="14.00">sum2b</text>
</g>
<!-- c12 -->
<g id="node5" class="node">
<title>c12</title>
<polygon fill="none" stroke="black" points="226.27,-247 226.27,-316 325.27,-316 325.27,-247 226.27,-247"/>
<text text-anchor="middle" x="239.27" y="-300.8" font-family="Times New Roman,serif" font-size="14.00">A</text>
<polyline fill="none" stroke="black" points="226.27,-293 252.27,-293 "/>
<text text-anchor="middle" x="239.27" y="-277.8" font-family="Times New Roman,serif" font-size="14.00">B</text>
<polyline fill="none" stroke="black" points="226.27,-270 252.27,-270 "/>
<text text-anchor="middle" x="239.27" y="-254.8" font-family="Times New Roman,serif" font-size="14.00">S</text>
<polyline fill="none" stroke="black" points="252.27,-247 252.27,-316 "/>
<text text-anchor="middle" x="275.77" y="-285.3" font-family="Times New Roman,serif" font-size="14.00">$1</text>
<text text-anchor="middle" x="275.77" y="-270.3" font-family="Times New Roman,serif" font-size="14.00">$mux</text>
<polyline fill="none" stroke="black" points="299.27,-247 299.27,-316 "/>
<text text-anchor="middle" x="312.27" y="-277.8" font-family="Times New Roman,serif" font-size="14.00">Y</text>
</g>
<!-- n2&#45;&gt;c12 -->
<g id="edge1" class="edge">
<title>n2:e&#45;&gt;c12:w</title>
<path fill="none" stroke="black" stroke-width="3" d="M189.27,-479.5C274.87,-479.5 147.68,-298.15 214.99,-282.57"/>
<polygon fill="black" stroke="black" stroke-width="3" points="215.68,-286.01 225.27,-281.5 214.96,-279.05 215.68,-286.01"/>
</g>
<!-- c17 -->
<g id="node6" class="node">
<title>c17</title>
<polygon fill="none" stroke="black" points="225.27,-570.5 225.27,-662.5 326.27,-662.5 326.27,-570.5 225.27,-570.5"/>
<text text-anchor="middle" x="240.27" y="-647.3" font-family="Times New Roman,serif" font-size="14.00">$1</text>
<polyline fill="none" stroke="black" points="225.27,-639.5 255.27,-639.5 "/>
<text text-anchor="middle" x="240.27" y="-624.3" font-family="Times New Roman,serif" font-size="14.00">$2</text>
<polyline fill="none" stroke="black" points="225.27,-616.5 255.27,-616.5 "/>
<text text-anchor="middle" x="240.27" y="-601.3" font-family="Times New Roman,serif" font-size="14.00">$3</text>
<polyline fill="none" stroke="black" points="225.27,-593.5 255.27,-593.5 "/>
<text text-anchor="middle" x="240.27" y="-578.3" font-family="Times New Roman,serif" font-size="14.00">$4</text>
<polyline fill="none" stroke="black" points="255.27,-570.5 255.27,-662.5 "/>
<text text-anchor="middle" x="280.77" y="-620.3" font-family="Times New Roman,serif" font-size="14.00">a2b</text>
<text text-anchor="middle" x="280.77" y="-605.3" font-family="Times New Roman,serif" font-size="14.00">add16</text>
<polyline fill="none" stroke="black" points="306.27,-570.5 306.27,-662.5 "/>
<text text-anchor="middle" x="316.27" y="-612.8" font-family="Times New Roman,serif" font-size="14.00"> </text>
</g>
<!-- n2&#45;&gt;c17 -->
<g id="edge2" class="edge">
<title>n2:e&#45;&gt;c17:w</title>
<path fill="none" stroke="black" stroke-width="3" d="M189.27,-479.5C233.21,-479.5 186.73,-564.72 215.14,-579.37"/>
<polygon fill="black" stroke="black" stroke-width="3" points="214.76,-582.87 225.27,-581.5 216.2,-576.02 214.76,-582.87"/>
</g>
<!-- x10 -->
<g id="node18" class="node">
<title>x10</title>
<path fill="none" stroke="black" d="M374.27,-167.5C374.27,-167.5 432.27,-167.5 432.27,-167.5 438.27,-167.5 444.27,-173.5 444.27,-179.5 444.27,-179.5 444.27,-191.5 444.27,-191.5 444.27,-197.5 438.27,-203.5 432.27,-203.5 432.27,-203.5 374.27,-203.5 374.27,-203.5 368.27,-203.5 362.27,-197.5 362.27,-191.5 362.27,-191.5 362.27,-179.5 362.27,-179.5 362.27,-173.5 368.27,-167.5 374.27,-167.5"/>
<text text-anchor="middle" x="403.27" y="-181.8" font-family="Times New Roman,serif" font-size="14.00">15:0 &#45; 31:16</text>
</g>
<!-- c12&#45;&gt;x10 -->
<g id="edge14" class="edge">
<title>c12:e&#45;&gt;x10:w</title>
<path fill="none" stroke="black" stroke-width="3" d="M326.27,-281.5C367.74,-281.5 325.8,-201.98 352.28,-187.69"/>
<polygon fill="black" stroke="black" stroke-width="3" points="353.25,-191.06 362.27,-185.5 351.75,-184.22 353.25,-191.06"/>
</g>
<!-- n3 -->
<g id="node7" class="node">
<title>n3</title>
<polygon fill="none" stroke="black" points="139.63,-333.5 90.7,-315.5 139.63,-297.5 188.57,-315.5 139.63,-333.5"/>
<text text-anchor="middle" x="139.63" y="-311.8" font-family="Times New Roman,serif" font-size="14.00">sum2a</text>
</g>
<!-- n3&#45;&gt;c12 -->
<g id="edge3" class="edge">
<title>n3:e&#45;&gt;c12:w</title>
<path fill="none" stroke="black" stroke-width="3" d="M189.27,-315.5C201.95,-315.5 206.48,-309.18 215.21,-306.12"/>
<polygon fill="black" stroke="black" stroke-width="3" points="215.95,-309.55 225.27,-304.5 214.84,-302.64 215.95,-309.55"/>
</g>
<!-- c18 -->
<g id="node8" class="node">
<title>c18</title>
<polygon fill="none" stroke="black" points="225.27,-345.5 225.27,-437.5 326.27,-437.5 326.27,-345.5 225.27,-345.5"/>
<text text-anchor="middle" x="240.27" y="-422.3" font-family="Times New Roman,serif" font-size="14.00">$1</text>
<polyline fill="none" stroke="black" points="225.27,-414.5 255.27,-414.5 "/>
<text text-anchor="middle" x="240.27" y="-399.3" font-family="Times New Roman,serif" font-size="14.00">$2</text>
<polyline fill="none" stroke="black" points="225.27,-391.5 255.27,-391.5 "/>
<text text-anchor="middle" x="240.27" y="-376.3" font-family="Times New Roman,serif" font-size="14.00">$3</text>
<polyline fill="none" stroke="black" points="225.27,-368.5 255.27,-368.5 "/>
<text text-anchor="middle" x="240.27" y="-353.3" font-family="Times New Roman,serif" font-size="14.00">$4</text>
<polyline fill="none" stroke="black" points="255.27,-345.5 255.27,-437.5 "/>
<text text-anchor="middle" x="280.77" y="-395.3" font-family="Times New Roman,serif" font-size="14.00">a2a</text>
<text text-anchor="middle" x="280.77" y="-380.3" font-family="Times New Roman,serif" font-size="14.00">add16</text>
<polyline fill="none" stroke="black" points="306.27,-345.5 306.27,-437.5 "/>
<text text-anchor="middle" x="316.27" y="-387.8" font-family="Times New Roman,serif" font-size="14.00"> </text>
</g>
<!-- n3&#45;&gt;c18 -->
<g id="edge4" class="edge">
<title>n3:e&#45;&gt;c18:w</title>
<path fill="none" stroke="black" stroke-width="3" d="M189.27,-315.5C209.35,-315.5 204.23,-343.62 215.65,-353.28"/>
<polygon fill="black" stroke="black" stroke-width="3" points="214.68,-356.65 225.27,-356.5 216.9,-350.01 214.68,-356.65"/>
</g>
<!-- n4 -->
<g id="node9" class="node">
<title>n4</title>
<polygon fill="none" stroke="black" points="139.63,-114.5 98.41,-96.5 139.63,-78.5 180.86,-96.5 139.63,-114.5"/>
<text text-anchor="middle" x="139.63" y="-92.8" font-family="Times New Roman,serif" font-size="14.00">carry</text>
</g>
<!-- n4&#45;&gt;c12 -->
<g id="edge5" class="edge">
<title>n4:e&#45;&gt;c12:w</title>
<path fill="none" stroke="black" d="M181.63,-96.5C252.41,-96.5 160.95,-242.46 215.26,-257.29"/>
<polygon fill="black" stroke="black" points="214.92,-260.77 225.27,-258.5 215.76,-253.82 214.92,-260.77"/>
</g>
<!-- c20 -->
<g id="node10" class="node">
<title>c20</title>
<polygon fill="none" stroke="black" points="225.27,-93 225.27,-208 326.27,-208 326.27,-93 225.27,-93"/>
<text text-anchor="middle" x="240.27" y="-192.8" font-family="Times New Roman,serif" font-size="14.00">$1</text>
<polyline fill="none" stroke="black" points="225.27,-185 255.27,-185 "/>
<text text-anchor="middle" x="240.27" y="-169.8" font-family="Times New Roman,serif" font-size="14.00">$2</text>
<polyline fill="none" stroke="black" points="225.27,-162 255.27,-162 "/>
<text text-anchor="middle" x="240.27" y="-146.8" font-family="Times New Roman,serif" font-size="14.00">$3</text>
<polyline fill="none" stroke="black" points="225.27,-139 255.27,-139 "/>
<text text-anchor="middle" x="240.27" y="-123.8" font-family="Times New Roman,serif" font-size="14.00">$4</text>
<polyline fill="none" stroke="black" points="225.27,-116 255.27,-116 "/>
<text text-anchor="middle" x="240.27" y="-100.8" font-family="Times New Roman,serif" font-size="14.00">$5</text>
<polyline fill="none" stroke="black" points="255.27,-93 255.27,-208 "/>
<text text-anchor="middle" x="280.77" y="-154.3" font-family="Times New Roman,serif" font-size="14.00">a1</text>
<text text-anchor="middle" x="280.77" y="-139.3" font-family="Times New Roman,serif" font-size="14.00">add16</text>
<polyline fill="none" stroke="black" points="306.27,-93 306.27,-208 "/>
<text text-anchor="middle" x="316.27" y="-146.8" font-family="Times New Roman,serif" font-size="14.00"> </text>
</g>
<!-- n4&#45;&gt;c20 -->
<g id="edge6" class="edge">
<title>n4:e&#45;&gt;c20:w</title>
<path fill="none" stroke="black" d="M181.63,-96.5C197.5,-96.5 203.32,-101.68 215.26,-103.7"/>
<polygon fill="black" stroke="black" points="215.02,-107.2 225.27,-104.5 215.58,-100.22 215.02,-107.2"/>
</g>
<!-- x6&#45;&gt;c20 -->
<g id="edge22" class="edge">
<title>x6:e&#45;&gt;c20:w</title>
<path fill="none" stroke="black" stroke-width="3" d="M190.43,-44.56C211.01,-57.91 192.92,-110.94 213.39,-124.39"/>
<polygon fill="none" stroke="black" stroke-width="3" points="190.25,-44.51 183.44,-46.88 178.63,-41.5 185.45,-39.14 190.25,-44.51"/>
<polygon fill="none" stroke="black" stroke-width="3" points="213.66,-124.46 220.48,-122.11 225.27,-127.5 218.45,-129.85 213.66,-124.46"/>
</g>
<!-- x1&#45;&gt;c17 -->
<g id="edge16" class="edge">
<title>x1:e&#45;&gt;c17:w</title>
<path fill="none" stroke="black" stroke-width="3" d="M193.61,-642.28C201.1,-639.22 205.84,-633.75 213.34,-630.71"/>
<polygon fill="none" stroke="black" stroke-width="3" points="193.43,-642.31 188.26,-647.34 181.63,-644.5 186.8,-639.47 193.43,-642.31"/>
<polygon fill="none" stroke="black" stroke-width="3" points="213.47,-630.68 218.64,-625.66 225.27,-628.5 220.1,-633.52 213.47,-630.68"/>
</g>
<!-- x4&#45;&gt;c18 -->
<g id="edge19" class="edge">
<title>x4:e&#45;&gt;c18:w</title>
<path fill="none" stroke="black" stroke-width="3" d="M193.53,-421.75C201.33,-417.71 205.67,-410.19 213.5,-406.18"/>
<polygon fill="none" stroke="black" stroke-width="3" points="193.33,-421.8 188.38,-427.05 181.63,-424.5 186.58,-419.25 193.33,-421.8"/>
<polygon fill="none" stroke="black" stroke-width="3" points="213.57,-406.17 218.53,-400.93 225.27,-403.5 220.31,-408.73 213.57,-406.17"/>
</g>
<!-- x8&#45;&gt;c20 -->
<g id="edge23" class="edge">
<title>x8:e&#45;&gt;c20:w</title>
<path fill="none" stroke="black" stroke-width="3" d="M190.5,-202.31C200.31,-196.18 203.6,-182.8 213.43,-176.67"/>
<polygon fill="none" stroke="black" stroke-width="3" points="190.22,-202.39 185.47,-207.81 178.63,-205.5 183.39,-200.08 190.22,-202.39"/>
<polygon fill="none" stroke="black" stroke-width="3" points="213.68,-176.6 218.44,-171.19 225.27,-173.5 220.51,-178.92 213.68,-176.6"/>
</g>
<!-- x2&#45;&gt;c17 -->
<g id="edge17" class="edge">
<title>x2:e&#45;&gt;c17:w</title>
<path fill="none" stroke="black" stroke-width="3" d="M193.14,-695.73C204,-686.8 202.86,-664.43 213.63,-655.38"/>
<polygon fill="none" stroke="black" stroke-width="3" points="193.04,-695.77 188.58,-701.43 181.63,-699.5 186.09,-693.83 193.04,-695.77"/>
<polygon fill="none" stroke="black" stroke-width="3" points="213.89,-655.3 218.31,-649.6 225.27,-651.5 220.84,-657.19 213.89,-655.3"/>
</g>
<!-- x5&#45;&gt;c18 -->
<g id="edge20" class="edge">
<title>x5:e&#45;&gt;c18:w</title>
<path fill="none" stroke="black" stroke-width="3" d="M193.43,-531.83C220.02,-516.95 186.97,-444.41 213.29,-429.27"/>
<polygon fill="none" stroke="black" stroke-width="3" points="193.34,-531.85 188.37,-537.08 181.63,-534.5 186.6,-529.27 193.34,-531.85"/>
<polygon fill="none" stroke="black" stroke-width="3" points="213.58,-429.2 218.52,-423.96 225.27,-426.5 220.33,-431.75 213.58,-429.2"/>
</g>
<!-- x9&#45;&gt;c20 -->
<g id="edge24" class="edge">
<title>x9:e&#45;&gt;c20:w</title>
<path fill="none" stroke="black" stroke-width="3" d="M190.31,-257.06C205.36,-245.95 198.54,-211.09 213.57,-199.96"/>
<polygon fill="none" stroke="black" stroke-width="3" points="190.15,-257.11 185.52,-262.64 178.63,-260.5 183.26,-254.97 190.15,-257.11"/>
<polygon fill="none" stroke="black" stroke-width="3" points="213.76,-199.9 218.38,-194.36 225.27,-196.5 220.65,-202.04 213.76,-199.9"/>
</g>
<!-- x10&#45;&gt;n5 -->
<g id="edge25" class="edge">
<title>x10:e&#45;&gt;n5:w</title>
<path fill="none" stroke="black" stroke-width="3" d="M444.27,-185.5C491.3,-185.5 438.85,-92.87 470.34,-78.39"/>
<polygon fill="black" stroke="black" stroke-width="3" points="471.1,-81.81 480.27,-76.5 469.79,-74.93 471.1,-81.81"/>
</g>
<!-- v0 -->
<g id="node19" class="node">
<title>v0</title>
<ellipse fill="none" stroke="black" cx="139.63" cy="-589.5" rx="27" ry="18"/>
<text text-anchor="middle" x="139.63" y="-585.8" font-family="Times New Roman,serif" font-size="14.00">1&#39;1</text>
</g>
<!-- v0&#45;&gt;c17 -->
<g id="edge15" class="edge">
<title>v0:e&#45;&gt;c17:w</title>
<path fill="none" stroke="black" d="M167.63,-589.5C190.38,-589.5 197.05,-600.58 215.27,-603.69"/>
<polygon fill="black" stroke="black" points="215.02,-607.18 225.27,-604.5 215.58,-600.21 215.02,-607.18"/>
</g>
<!-- v3 -->
<g id="node20" class="node">
<title>v3</title>
<ellipse fill="none" stroke="black" cx="139.63" cy="-369.5" rx="27" ry="18"/>
<text text-anchor="middle" x="139.63" y="-365.8" font-family="Times New Roman,serif" font-size="14.00">1&#39;0</text>
</g>
<!-- v3&#45;&gt;c18 -->
<g id="edge18" class="edge">
<title>v3:e&#45;&gt;c18:w</title>
<path fill="none" stroke="black" d="M167.63,-369.5C189.77,-369.5 197.15,-376.75 214.9,-378.9"/>
<polygon fill="black" stroke="black" points="215.08,-382.42 225.27,-379.5 215.49,-375.43 215.08,-382.42"/>
</g>
<!-- v7 -->
<g id="node21" class="node">
<title>v7</title>
<ellipse fill="none" stroke="black" cx="139.63" cy="-150.5" rx="27" ry="18"/>
<text text-anchor="middle" x="139.63" y="-146.8" font-family="Times New Roman,serif" font-size="14.00">1&#39;0</text>
</g>
<!-- v7&#45;&gt;c20 -->
<g id="edge21" class="edge">
<title>v7:e&#45;&gt;c20:w</title>
<path fill="none" stroke="black" d="M167.63,-150.5C189.45,-150.5 197.33,-150.5 215.01,-150.5"/>
<polygon fill="black" stroke="black" points="215.27,-154 225.27,-150.5 215.27,-147 215.27,-154"/>
</g>
</g>
</svg>
