<?xml version="1.0" encoding="UTF-8" standalone="no"?>
<!DOCTYPE svg PUBLIC "-//W3C//DTD SVG 1.1//EN"
 "http://www.w3.org/Graphics/SVG/1.1/DTD/svg11.dtd">
<!-- Generated by graphviz version 4.0.0 (20220529.0937)
 -->
<!-- Title: top_module Pages: 1 -->
<svg width="1052pt" height="508pt"
 viewBox="0.00 0.00 1051.55 507.50" xmlns="http://www.w3.org/2000/svg" xmlns:xlink="http://www.w3.org/1999/xlink">
<g id="graph0" class="graph" transform="scale(1 1) rotate(0) translate(4 503.5)">
<title>top_module</title>
<polygon fill="white" stroke="transparent" points="-4,4 -4,-503.5 1047.55,-503.5 1047.55,4 -4,4"/>
<text text-anchor="middle" x="521.77" y="-7.8" font-family="Times New Roman,serif" font-size="14.00">top_module</text>
<!-- n1 -->
<g id="node1" class="node">
<title>n1</title>
<polygon fill="none" stroke="black" points="54,-308.54 54,-323.46 38.18,-334 15.82,-334 0,-323.46 0,-308.54 15.82,-298 38.18,-298 54,-308.54"/>
<text text-anchor="middle" x="27" y="-312.3" font-family="Times New Roman,serif" font-size="14.00">a</text>
</g>
<!-- x1 -->
<g id="node4" class="node">
<title>x1</title>
<path fill="none" stroke="black" d="M136.5,-133C136.5,-133 187.5,-133 187.5,-133 193.5,-133 199.5,-139 199.5,-145 199.5,-145 199.5,-157 199.5,-157 199.5,-163 193.5,-169 187.5,-169 187.5,-169 136.5,-169 136.5,-169 130.5,-169 124.5,-163 124.5,-157 124.5,-157 124.5,-145 124.5,-145 124.5,-139 130.5,-133 136.5,-133"/>
<text text-anchor="middle" x="162" y="-147.3" font-family="Times New Roman,serif" font-size="14.00">15:0 &#45; 15:0</text>
</g>
<!-- n1&#45;&gt;x1 -->
<g id="edge1" class="edge">
<title>n1:e&#45;&gt;x1:w</title>
<path fill="none" stroke="#1b9e77" stroke-width="3" d="M54,-316C87.85,-316 59.61,-273.5 72,-242 79.29,-223.46 94.6,-169.58 113.47,-154.79"/>
<polygon fill="#1b9e77" stroke="#1b9e77" stroke-width="3" points="115,-157.95 123,-151 112.41,-151.45 115,-157.95"/>
<text text-anchor="middle" x="87.5" y="-245.8" font-family="Times New Roman,serif" font-size="14.00" fill="#1b9e77">&lt;16&gt;</text>
</g>
<!-- x5 -->
<g id="node5" class="node">
<title>x5</title>
<path fill="none" stroke="black" d="M133,-463C133,-463 191,-463 191,-463 197,-463 203,-469 203,-475 203,-475 203,-487 203,-487 203,-493 197,-499 191,-499 191,-499 133,-499 133,-499 127,-499 121,-493 121,-487 121,-487 121,-475 121,-475 121,-469 127,-463 133,-463"/>
<text text-anchor="middle" x="162" y="-477.3" font-family="Times New Roman,serif" font-size="14.00">31:16 &#45; 15:0</text>
</g>
<!-- n1&#45;&gt;x5 -->
<g id="edge2" class="edge">
<title>n1:e&#45;&gt;x5:w</title>
<path fill="none" stroke="#1b9e77" stroke-width="3" d="M54,-316C75.05,-316 63.91,-389.57 72,-409 85.42,-441.25 83,-473.92 110.84,-480"/>
<polygon fill="#1b9e77" stroke="#1b9e77" stroke-width="3" points="110.7,-483.5 121,-481 111.39,-476.53 110.7,-483.5"/>
<text text-anchor="middle" x="87.5" y="-479.8" font-family="Times New Roman,serif" font-size="14.00" fill="#1b9e77">&lt;16&gt;</text>
</g>
<!-- x8 -->
<g id="node6" class="node">
<title>x8</title>
<path fill="none" stroke="black" d="M133,-298C133,-298 191,-298 191,-298 197,-298 203,-304 203,-310 203,-310 203,-322 203,-322 203,-328 197,-334 191,-334 191,-334 133,-334 133,-334 127,-334 121,-328 121,-322 121,-322 121,-310 121,-310 121,-304 127,-298 133,-298"/>
<text text-anchor="middle" x="162" y="-312.3" font-family="Times New Roman,serif" font-size="14.00">31:16 &#45; 15:0</text>
</g>
<!-- n1&#45;&gt;x8 -->
<g id="edge3" class="edge">
<title>n1:e&#45;&gt;x8:w</title>
<path fill="none" stroke="#1b9e77" stroke-width="3" d="M54,-316C80.06,-316 89.01,-316 110.79,-316"/>
<polygon fill="#1b9e77" stroke="#1b9e77" stroke-width="3" points="111,-319.5 121,-316 111,-312.5 111,-319.5"/>
<text text-anchor="middle" x="87.5" y="-319.8" font-family="Times New Roman,serif" font-size="14.00" fill="#1b9e77">&lt;16&gt;</text>
</g>
<!-- n2 -->
<g id="node2" class="node">
<title>n2</title>
<polygon fill="none" stroke="black" points="54,-253.54 54,-268.46 38.18,-279 15.82,-279 0,-268.46 0,-253.54 15.82,-243 38.18,-243 54,-253.54"/>
<text text-anchor="middle" x="27" y="-257.3" font-family="Times New Roman,serif" font-size="14.00">b</text>
</g>
<!-- x2 -->
<g id="node7" class="node">
<title>x2</title>
<path fill="none" stroke="black" d="M136.5,-78C136.5,-78 187.5,-78 187.5,-78 193.5,-78 199.5,-84 199.5,-90 199.5,-90 199.5,-102 199.5,-102 199.5,-108 193.5,-114 187.5,-114 187.5,-114 136.5,-114 136.5,-114 130.5,-114 124.5,-108 124.5,-102 124.5,-102 124.5,-90 124.5,-90 124.5,-84 130.5,-78 136.5,-78"/>
<text text-anchor="middle" x="162" y="-92.3" font-family="Times New Roman,serif" font-size="14.00">15:0 &#45; 15:0</text>
</g>
<!-- n2&#45;&gt;x2 -->
<g id="edge4" class="edge">
<title>n2:e&#45;&gt;x2:w</title>
<path fill="none" stroke="#1b9e77" stroke-width="3" d="M54,-261C78.99,-261 60.93,-172.4 72,-150 84.96,-123.76 89.08,-101.6 112.86,-96.91"/>
<polygon fill="#1b9e77" stroke="#1b9e77" stroke-width="3" points="113.35,-100.38 123,-96 112.73,-93.41 113.35,-100.38"/>
<text text-anchor="middle" x="87.5" y="-153.8" font-family="Times New Roman,serif" font-size="14.00" fill="#1b9e77">&lt;16&gt;</text>
</g>
<!-- x6 -->
<g id="node8" class="node">
<title>x6</title>
<path fill="none" stroke="black" d="M133,-408C133,-408 191,-408 191,-408 197,-408 203,-414 203,-420 203,-420 203,-432 203,-432 203,-438 197,-444 191,-444 191,-444 133,-444 133,-444 127,-444 121,-438 121,-432 121,-432 121,-420 121,-420 121,-414 127,-408 133,-408"/>
<text text-anchor="middle" x="162" y="-422.3" font-family="Times New Roman,serif" font-size="14.00">31:16 &#45; 15:0</text>
</g>
<!-- n2&#45;&gt;x6 -->
<g id="edge5" class="edge">
<title>n2:e&#45;&gt;x6:w</title>
<path fill="none" stroke="#1b9e77" stroke-width="3" d="M54,-261C87.85,-261 59.57,-303.52 72,-335 82.3,-361.1 89.83,-365.22 103,-390 109.16,-401.6 106.34,-415.58 111.48,-422.18"/>
<polygon fill="#1b9e77" stroke="#1b9e77" stroke-width="3" points="110.42,-425.53 121,-426 113.02,-419.03 110.42,-425.53"/>
<text text-anchor="middle" x="87.5" y="-393.8" font-family="Times New Roman,serif" font-size="14.00" fill="#1b9e77">&lt;16&gt;</text>
</g>
<!-- x9 -->
<g id="node9" class="node">
<title>x9</title>
<path fill="none" stroke="black" d="M133,-243C133,-243 191,-243 191,-243 197,-243 203,-249 203,-255 203,-255 203,-267 203,-267 203,-273 197,-279 191,-279 191,-279 133,-279 133,-279 127,-279 121,-273 121,-267 121,-267 121,-255 121,-255 121,-249 127,-243 133,-243"/>
<text text-anchor="middle" x="162" y="-257.3" font-family="Times New Roman,serif" font-size="14.00">31:16 &#45; 15:0</text>
</g>
<!-- n2&#45;&gt;x9 -->
<g id="edge6" class="edge">
<title>n2:e&#45;&gt;x9:w</title>
<path fill="none" stroke="#1b9e77" stroke-width="3" d="M54,-261C80.06,-261 89.01,-261 110.79,-261"/>
<polygon fill="#1b9e77" stroke="#1b9e77" stroke-width="3" points="111,-264.5 121,-261 111,-257.5 111,-264.5"/>
<text text-anchor="middle" x="87.5" y="-264.8" font-family="Times New Roman,serif" font-size="14.00" fill="#1b9e77">&lt;16&gt;</text>
</g>
<!-- n4 -->
<g id="node3" class="node">
<title>n4</title>
<polygon fill="none" stroke="black" points="1043.69,-146.54 1043.69,-161.46 1027.12,-172 1003.69,-172 987.13,-161.46 987.13,-146.54 1003.69,-136 1027.12,-136 1043.69,-146.54"/>
<text text-anchor="middle" x="1015.41" y="-150.3" font-family="Times New Roman,serif" font-size="14.00">sum</text>
</g>
<!-- c14 -->
<g id="node16" class="node">
<title>c14</title>
<polygon fill="none" stroke="black" points="270,-93.5 270,-162.5 395,-162.5 395,-93.5 270,-93.5"/>
<text text-anchor="middle" x="286.5" y="-147.3" font-family="Times New Roman,serif" font-size="14.00">a</text>
<polyline fill="none" stroke="black" points="270,-139.5 303,-139.5 "/>
<text text-anchor="middle" x="286.5" y="-124.3" font-family="Times New Roman,serif" font-size="14.00">b</text>
<polyline fill="none" stroke="black" points="270,-116.5 303,-116.5 "/>
<text text-anchor="middle" x="286.5" y="-101.3" font-family="Times New Roman,serif" font-size="14.00">cin</text>
<polyline fill="none" stroke="black" points="303,-93.5 303,-162.5 "/>
<text text-anchor="middle" x="328.5" y="-131.8" font-family="Times New Roman,serif" font-size="14.00">a1</text>
<text text-anchor="middle" x="328.5" y="-116.8" font-family="Times New Roman,serif" font-size="14.00">add16</text>
<polyline fill="none" stroke="black" points="354,-93.5 354,-162.5 "/>
<text text-anchor="middle" x="374.5" y="-141.8" font-family="Times New Roman,serif" font-size="14.00">cout</text>
<polyline fill="none" stroke="black" points="354,-128.5 395,-128.5 "/>
<text text-anchor="middle" x="374.5" y="-107.3" font-family="Times New Roman,serif" font-size="14.00">sum</text>
</g>
<!-- x1&#45;&gt;c14 -->
<g id="edge15" class="edge">
<title>x1:e&#45;&gt;c14:w</title>
<path fill="none" stroke="#1b9e77" stroke-width="3" d="M213.29,-151C230.81,-151 240.3,-151 257.87,-151"/>
<polygon fill="none" stroke="#1b9e77" stroke-width="3" points="213,-151 207,-155 201,-151 207,-147 213,-151"/>
<polygon fill="none" stroke="#1b9e77" stroke-width="3" points="258,-151 264,-147 270,-151 264,-155 258,-151"/>
<text text-anchor="middle" x="236.5" y="-154.8" font-family="Times New Roman,serif" font-size="14.00" fill="#1b9e77">&lt;16&gt;</text>
</g>
<!-- c15 -->
<g id="node19" class="node">
<title>c15</title>
<polygon fill="none" stroke="black" points="270.5,-369.5 270.5,-438.5 394.5,-438.5 394.5,-369.5 270.5,-369.5"/>
<text text-anchor="middle" x="287" y="-423.3" font-family="Times New Roman,serif" font-size="14.00">a</text>
<polyline fill="none" stroke="black" points="270.5,-415.5 303.5,-415.5 "/>
<text text-anchor="middle" x="287" y="-400.3" font-family="Times New Roman,serif" font-size="14.00">b</text>
<polyline fill="none" stroke="black" points="270.5,-392.5 303.5,-392.5 "/>
<text text-anchor="middle" x="287" y="-377.3" font-family="Times New Roman,serif" font-size="14.00">cin</text>
<polyline fill="none" stroke="black" points="303.5,-369.5 303.5,-438.5 "/>
<text text-anchor="middle" x="329" y="-407.8" font-family="Times New Roman,serif" font-size="14.00">a2a</text>
<text text-anchor="middle" x="329" y="-392.8" font-family="Times New Roman,serif" font-size="14.00">add16</text>
<polyline fill="none" stroke="black" points="354.5,-369.5 354.5,-438.5 "/>
<text text-anchor="middle" x="374.5" y="-400.3" font-family="Times New Roman,serif" font-size="14.00">sum</text>
</g>
<!-- x5&#45;&gt;c15 -->
<g id="edge20" class="edge">
<title>x5:e&#45;&gt;c15:w</title>
<path fill="none" stroke="#e6ab02" stroke-width="3" d="M212.72,-473.72C225.36,-463.47 247.22,-444.89 259.99,-434.51"/>
<polygon fill="none" stroke="#e6ab02" stroke-width="3" points="212.6,-473.81 210.2,-480.6 203,-481 205.4,-474.2 212.6,-473.81"/>
<polygon fill="none" stroke="#e6ab02" stroke-width="3" points="260.4,-434.21 262.8,-427.4 270,-427 267.6,-433.8 260.4,-434.21"/>
<text text-anchor="middle" x="236.5" y="-469.8" font-family="Times New Roman,serif" font-size="14.00" fill="#e6ab02">&lt;16&gt;</text>
</g>
<!-- c16 -->
<g id="node21" class="node">
<title>c16</title>
<polygon fill="none" stroke="black" points="270.5,-204.5 270.5,-273.5 394.5,-273.5 394.5,-204.5 270.5,-204.5"/>
<text text-anchor="middle" x="287" y="-258.3" font-family="Times New Roman,serif" font-size="14.00">a</text>
<polyline fill="none" stroke="black" points="270.5,-250.5 303.5,-250.5 "/>
<text text-anchor="middle" x="287" y="-235.3" font-family="Times New Roman,serif" font-size="14.00">b</text>
<polyline fill="none" stroke="black" points="270.5,-227.5 303.5,-227.5 "/>
<text text-anchor="middle" x="287" y="-212.3" font-family="Times New Roman,serif" font-size="14.00">cin</text>
<polyline fill="none" stroke="black" points="303.5,-204.5 303.5,-273.5 "/>
<text text-anchor="middle" x="329" y="-242.8" font-family="Times New Roman,serif" font-size="14.00">a2b</text>
<text text-anchor="middle" x="329" y="-227.8" font-family="Times New Roman,serif" font-size="14.00">add16</text>
<polyline fill="none" stroke="black" points="354.5,-204.5 354.5,-273.5 "/>
<text text-anchor="middle" x="374.5" y="-235.3" font-family="Times New Roman,serif" font-size="14.00">sum</text>
</g>
<!-- x8&#45;&gt;c16 -->
<g id="edge24" class="edge">
<title>x8:e&#45;&gt;c16:w</title>
<path fill="none" stroke="#d95f02" stroke-width="3" d="M212.72,-308.72C225.36,-298.47 247.22,-279.89 259.99,-269.51"/>
<polygon fill="none" stroke="#d95f02" stroke-width="3" points="212.6,-308.81 210.2,-315.6 203,-316 205.4,-309.2 212.6,-308.81"/>
<polygon fill="none" stroke="#d95f02" stroke-width="3" points="260.4,-269.21 262.8,-262.4 270,-262 267.6,-268.8 260.4,-269.21"/>
<text text-anchor="middle" x="236.5" y="-304.8" font-family="Times New Roman,serif" font-size="14.00" fill="#d95f02">&lt;16&gt;</text>
</g>
<!-- x2&#45;&gt;c14 -->
<g id="edge16" class="edge">
<title>x2:e&#45;&gt;c14:w</title>
<path fill="none" stroke="#1b9e77" stroke-width="3" d="M212.91,-97.54C232.18,-102.94 238.7,-120.91 257.88,-126.4"/>
<polygon fill="none" stroke="#1b9e77" stroke-width="3" points="212.9,-97.54 206.44,-100.74 201,-96 207.46,-92.8 212.9,-97.54"/>
<polygon fill="none" stroke="#1b9e77" stroke-width="3" points="258.1,-126.43 264.58,-123.25 270,-128 263.53,-131.18 258.1,-126.43"/>
<text text-anchor="middle" x="236.5" y="-128.8" font-family="Times New Roman,serif" font-size="14.00" fill="#1b9e77">&lt;16&gt;</text>
</g>
<!-- x6&#45;&gt;c15 -->
<g id="edge21" class="edge">
<title>x6:e&#45;&gt;c15:w</title>
<path fill="none" stroke="#d95f02" stroke-width="3" d="M215.06,-424.75C232.53,-420.9 240.35,-409.2 257.76,-405.29"/>
<polygon fill="none" stroke="#d95f02" stroke-width="3" points="214.94,-424.77 209.38,-429.36 203,-426 208.56,-421.4 214.94,-424.77"/>
<polygon fill="none" stroke="#d95f02" stroke-width="3" points="258.07,-405.25 263.61,-400.65 270,-404 264.45,-408.61 258.07,-405.25"/>
<text text-anchor="middle" x="236.5" y="-425.8" font-family="Times New Roman,serif" font-size="14.00" fill="#d95f02">&lt;16&gt;</text>
</g>
<!-- x9&#45;&gt;c16 -->
<g id="edge25" class="edge">
<title>x9:e&#45;&gt;c16:w</title>
<path fill="none" stroke="#d95f02" stroke-width="3" d="M215.06,-259.75C232.53,-255.9 240.35,-244.2 257.76,-240.29"/>
<polygon fill="none" stroke="#d95f02" stroke-width="3" points="214.94,-259.77 209.38,-264.36 203,-261 208.56,-256.4 214.94,-259.77"/>
<polygon fill="none" stroke="#d95f02" stroke-width="3" points="258.07,-240.25 263.61,-235.65 270,-239 264.45,-243.61 258.07,-240.25"/>
<text text-anchor="middle" x="236.5" y="-260.8" font-family="Times New Roman,serif" font-size="14.00" fill="#d95f02">&lt;16&gt;</text>
</g>
<!-- n3 -->
<g id="node10" class="node">
<title>n3</title>
<polygon fill="none" stroke="black" points="511.63,-185 470.41,-167 511.63,-149 552.86,-167 511.63,-185"/>
<text text-anchor="middle" x="511.63" y="-163.3" font-family="Times New Roman,serif" font-size="14.00">carry</text>
</g>
<!-- c11 -->
<g id="node11" class="node">
<title>c11</title>
<polygon fill="none" stroke="black" points="672.27,-167.5 672.27,-236.5 771.27,-236.5 771.27,-167.5 672.27,-167.5"/>
<text text-anchor="middle" x="685.27" y="-221.3" font-family="Times New Roman,serif" font-size="14.00">A</text>
<polyline fill="none" stroke="black" points="672.27,-213.5 698.27,-213.5 "/>
<text text-anchor="middle" x="685.27" y="-198.3" font-family="Times New Roman,serif" font-size="14.00">B</text>
<polyline fill="none" stroke="black" points="672.27,-190.5 698.27,-190.5 "/>
<text text-anchor="middle" x="685.27" y="-175.3" font-family="Times New Roman,serif" font-size="14.00">S</text>
<polyline fill="none" stroke="black" points="698.27,-167.5 698.27,-236.5 "/>
<text text-anchor="middle" x="721.77" y="-205.8" font-family="Times New Roman,serif" font-size="14.00">$1</text>
<text text-anchor="middle" x="721.77" y="-190.8" font-family="Times New Roman,serif" font-size="14.00">$mux</text>
<polyline fill="none" stroke="black" points="745.27,-167.5 745.27,-236.5 "/>
<text text-anchor="middle" x="758.27" y="-198.3" font-family="Times New Roman,serif" font-size="14.00">Y</text>
</g>
<!-- n3&#45;&gt;c11 -->
<g id="edge7" class="edge">
<title>n3:e&#45;&gt;c11:w</title>
<path fill="none" stroke="#7570b3" d="M553.63,-167C603.11,-167 617.42,-177.46 662.22,-178.85"/>
<polygon fill="#7570b3" stroke="#7570b3" points="662.22,-182.35 672.27,-179 662.32,-175.35 662.22,-182.35"/>
</g>
<!-- x0 -->
<g id="node14" class="node">
<title>x0</title>
<path fill="none" stroke="black" d="M850.27,-175C850.27,-175 908.27,-175 908.27,-175 914.27,-175 920.27,-181 920.27,-187 920.27,-187 920.27,-199 920.27,-199 920.27,-205 914.27,-211 908.27,-211 908.27,-211 850.27,-211 850.27,-211 844.27,-211 838.27,-205 838.27,-199 838.27,-199 838.27,-187 838.27,-187 838.27,-181 844.27,-175 850.27,-175"/>
<text text-anchor="middle" x="879.27" y="-189.3" font-family="Times New Roman,serif" font-size="14.00">15:0 &#45; 31:16</text>
</g>
<!-- c11&#45;&gt;x0 -->
<g id="edge10" class="edge">
<title>c11:e&#45;&gt;x0:w</title>
<path fill="none" stroke="#d95f02" stroke-width="3" d="M783.27,-201.46C800.17,-199.87 809.14,-195.2 825.94,-193.57"/>
<polygon fill="none" stroke="#d95f02" stroke-width="3" points="783.26,-201.46 777.44,-205.73 771.27,-202 777.08,-197.74 783.26,-201.46"/>
<polygon fill="none" stroke="#d95f02" stroke-width="3" points="826.28,-193.55 832.09,-189.28 838.27,-193 832.46,-197.27 826.28,-193.55"/>
<text text-anchor="middle" x="804.77" y="-204.8" font-family="Times New Roman,serif" font-size="14.00" fill="#d95f02">&lt;16&gt;</text>
</g>
<!-- n5 -->
<g id="node12" class="node">
<title>n5</title>
<polygon fill="none" stroke="black" points="511.63,-354 462.7,-336 511.63,-318 560.57,-336 511.63,-354"/>
<text text-anchor="middle" x="511.63" y="-332.3" font-family="Times New Roman,serif" font-size="14.00">sum2a</text>
</g>
<!-- n5&#45;&gt;c11 -->
<g id="edge8" class="edge">
<title>n5:e&#45;&gt;c11:w</title>
<path fill="none" stroke="#a6761d" stroke-width="3" d="M561.27,-336C561.27,-336 640.29,-256.98 664.99,-232.28"/>
<polygon fill="#a6761d" stroke="#a6761d" stroke-width="3" points="667.67,-234.55 672.27,-225 662.72,-229.6 667.67,-234.55"/>
<text text-anchor="middle" x="616.77" y="-320.8" font-family="Times New Roman,serif" font-size="14.00" fill="#a6761d">&lt;16&gt;</text>
</g>
<!-- n6 -->
<g id="node13" class="node">
<title>n6</title>
<polygon fill="none" stroke="black" points="511.63,-243 461.87,-225 511.63,-207 561.4,-225 511.63,-243"/>
<text text-anchor="middle" x="511.63" y="-221.3" font-family="Times New Roman,serif" font-size="14.00">sum2b</text>
</g>
<!-- n6&#45;&gt;c11 -->
<g id="edge9" class="edge">
<title>n6:e&#45;&gt;c11:w</title>
<path fill="none" stroke="#7570b3" stroke-width="3" d="M561.27,-225C608.11,-225 620.25,-205.12 662.21,-202.33"/>
<polygon fill="#7570b3" stroke="#7570b3" stroke-width="3" points="662.39,-205.82 672.27,-202 662.16,-198.82 662.39,-205.82"/>
<text text-anchor="middle" x="616.77" y="-227.8" font-family="Times New Roman,serif" font-size="14.00" fill="#7570b3">&lt;16&gt;</text>
</g>
<!-- x0&#45;&gt;n4 -->
<g id="edge11" class="edge">
<title>x0:e&#45;&gt;n4:w</title>
<path fill="none" stroke="#666666" stroke-width="3" d="M920.27,-193C950.96,-193 952.8,-162.06 977.17,-155.3"/>
<polygon fill="#666666" stroke="#666666" stroke-width="3" points="977.8,-158.75 987.27,-154 976.9,-151.8 977.8,-158.75"/>
<text text-anchor="middle" x="953.77" y="-192.8" font-family="Times New Roman,serif" font-size="14.00" fill="#666666">&lt;16&gt;</text>
</g>
<!-- v3 -->
<g id="node15" class="node">
<title>v3</title>
<ellipse fill="none" stroke="black" cx="162" cy="-41" rx="27" ry="18"/>
<text text-anchor="middle" x="162" y="-37.3" font-family="Times New Roman,serif" font-size="14.00">1&#39;0</text>
</g>
<!-- v3&#45;&gt;c14 -->
<g id="edge12" class="edge">
<title>v3:e&#45;&gt;c14:w</title>
<path fill="none" stroke="#e6ab02" d="M190,-41C209.74,-41 238.28,-89.13 260.36,-101.91"/>
<polygon fill="#e6ab02" stroke="#e6ab02" points="259.41,-105.28 270,-105 261.54,-98.62 259.41,-105.28"/>
</g>
<!-- c14&#45;&gt;n3 -->
<g id="edge13" class="edge">
<title>c14:e&#45;&gt;n3:w</title>
<path fill="none" stroke="#7570b3" d="M395,-146C425.82,-146 433.65,-162.8 459.62,-166.35"/>
<polygon fill="#7570b3" stroke="#7570b3" points="459.43,-169.84 469.63,-167 459.88,-162.86 459.43,-169.84"/>
</g>
<!-- x4 -->
<g id="node17" class="node">
<title>x4</title>
<path fill="none" stroke="black" d="M591.27,-118C591.27,-118 642.27,-118 642.27,-118 648.27,-118 654.27,-124 654.27,-130 654.27,-130 654.27,-142 654.27,-142 654.27,-148 648.27,-154 642.27,-154 642.27,-154 591.27,-154 591.27,-154 585.27,-154 579.27,-148 579.27,-142 579.27,-142 579.27,-130 579.27,-130 579.27,-124 585.27,-118 591.27,-118"/>
<text text-anchor="middle" x="616.77" y="-132.3" font-family="Times New Roman,serif" font-size="14.00">15:0 &#45; 15:0</text>
</g>
<!-- c14&#45;&gt;x4 -->
<g id="edge14" class="edge">
<title>c14:e&#45;&gt;x4:w</title>
<path fill="none" stroke="#e6ab02" stroke-width="3" d="M407.11,-111.19C475.77,-113.35 498.36,-133.6 566.9,-135.8"/>
<polygon fill="none" stroke="#e6ab02" stroke-width="3" points="407,-111.19 400.94,-115.09 395,-111 401.06,-107.09 407,-111.19"/>
<polygon fill="none" stroke="#e6ab02" stroke-width="3" points="567.27,-135.81 573.33,-131.91 579.27,-136 573.21,-139.9 567.27,-135.81"/>
<text text-anchor="middle" x="428.5" y="-118.8" font-family="Times New Roman,serif" font-size="14.00" fill="#e6ab02">&lt;16&gt;</text>
</g>
<!-- x4&#45;&gt;n4 -->
<g id="edge17" class="edge">
<title>x4:e&#45;&gt;n4:w</title>
<path fill="none" stroke="#666666" stroke-width="3" d="M654.27,-136C799.01,-136 837.28,-153.17 977.03,-153.97"/>
<polygon fill="#666666" stroke="#666666" stroke-width="3" points="977.26,-157.47 987.27,-154 977.28,-150.47 977.26,-157.47"/>
<text text-anchor="middle" x="804.77" y="-148.8" font-family="Times New Roman,serif" font-size="14.00" fill="#666666">&lt;16&gt;</text>
</g>
<!-- v7 -->
<g id="node18" class="node">
<title>v7</title>
<ellipse fill="none" stroke="black" cx="162" cy="-371" rx="27" ry="18"/>
<text text-anchor="middle" x="162" y="-367.3" font-family="Times New Roman,serif" font-size="14.00">1&#39;0</text>
</g>
<!-- v7&#45;&gt;c15 -->
<g id="edge18" class="edge">
<title>v7:e&#45;&gt;c15:w</title>
<path fill="none" stroke="#1b9e77" d="M190,-371C222.19,-371 232.19,-379.07 259.88,-380.71"/>
<polygon fill="#1b9e77" stroke="#1b9e77" points="259.9,-384.21 270,-381 260.1,-377.22 259.9,-384.21"/>
</g>
<!-- c15&#45;&gt;n5 -->
<g id="edge19" class="edge">
<title>c15:e&#45;&gt;n5:w</title>
<path fill="none" stroke="#a6761d" stroke-width="3" d="M395,-404C433.62,-404 422.29,-347.67 451.94,-337.55"/>
<polygon fill="#a6761d" stroke="#a6761d" stroke-width="3" points="452.65,-340.98 462,-336 451.58,-334.06 452.65,-340.98"/>
<text text-anchor="middle" x="428.5" y="-399.8" font-family="Times New Roman,serif" font-size="14.00" fill="#a6761d">&lt;16&gt;</text>
</g>
<!-- v10 -->
<g id="node20" class="node">
<title>v10</title>
<ellipse fill="none" stroke="black" cx="162" cy="-206" rx="27" ry="18"/>
<text text-anchor="middle" x="162" y="-202.3" font-family="Times New Roman,serif" font-size="14.00">1&#39;1</text>
</g>
<!-- v10&#45;&gt;c16 -->
<g id="edge22" class="edge">
<title>v10:e&#45;&gt;c16:w</title>
<path fill="none" stroke="#a6761d" d="M190,-206C222.19,-206 232.19,-214.07 259.88,-215.71"/>
<polygon fill="#a6761d" stroke="#a6761d" points="259.9,-219.21 270,-216 260.1,-212.22 259.9,-219.21"/>
</g>
<!-- c16&#45;&gt;n6 -->
<g id="edge23" class="edge">
<title>c16:e&#45;&gt;n6:w</title>
<path fill="none" stroke="#7570b3" stroke-width="3" d="M395,-239C421.74,-239 429.73,-228.19 451.93,-225.57"/>
<polygon fill="#7570b3" stroke="#7570b3" stroke-width="3" points="452.21,-229.06 462,-225 451.82,-222.07 452.21,-229.06"/>
<text text-anchor="middle" x="428.5" y="-240.8" font-family="Times New Roman,serif" font-size="14.00" fill="#7570b3">&lt;16&gt;</text>
</g>
</g>
</svg>
