<?xml version="1.0" encoding="UTF-8" standalone="no"?>
<!DOCTYPE svg PUBLIC "-//W3C//DTD SVG 1.1//EN"
 "http://www.w3.org/Graphics/SVG/1.1/DTD/svg11.dtd">
<!-- Generated by graphviz version 4.0.0 (20220529.0937)
 -->
<!-- Title: root Pages: 1 -->
<svg width="674pt" height="729pt"
 viewBox="0.00 0.00 674.36 729.00" xmlns="http://www.w3.org/2000/svg" xmlns:xlink="http://www.w3.org/1999/xlink">
<g id="graph0" class="graph" transform="scale(1 1) rotate(0) translate(4 725)">
<title>root</title>
<polygon fill="white" stroke="transparent" points="-4,4 -4,-725 670.36,-725 670.36,4 -4,4"/>
<text text-anchor="middle" x="333.18" y="-7.8" font-family="Times New Roman,serif" font-size="14.00">top_module</text>
<!-- n6 -->
<g id="node1" class="node">
<title>n6</title>
<polygon fill="none" stroke="black" points="54,-420.04 54,-434.96 38.18,-445.5 15.82,-445.5 0,-434.96 0,-420.04 15.82,-409.5 38.18,-409.5 54,-420.04"/>
<text text-anchor="middle" x="27" y="-423.8" font-family="Times New Roman,serif" font-size="14.00">b</text>
</g>
<!-- x1 -->
<g id="node12" class="node">
<title>x1</title>
<path fill="none" stroke="black" d="M141.63,-629.5C141.63,-629.5 199.63,-629.5 199.63,-629.5 205.63,-629.5 211.63,-635.5 211.63,-641.5 211.63,-641.5 211.63,-653.5 211.63,-653.5 211.63,-659.5 205.63,-665.5 199.63,-665.5 199.63,-665.5 141.63,-665.5 141.63,-665.5 135.63,-665.5 129.63,-659.5 129.63,-653.5 129.63,-653.5 129.63,-641.5 129.63,-641.5 129.63,-635.5 135.63,-629.5 141.63,-629.5"/>
<text text-anchor="middle" x="170.63" y="-643.8" font-family="Times New Roman,serif" font-size="14.00">31:16 &#45; 15:0</text>
</g>
<!-- n6&#45;&gt;x1 -->
<g id="edge8" class="edge">
<title>n6:e&#45;&gt;x1:w</title>
<path fill="none" stroke="#d95f02" stroke-width="3" d="M54,-427.5C82.94,-427.5 62.14,-529.29 72,-556.5 73.66,-561.09 106.7,-619.39 121.81,-640.19"/>
<polygon fill="#d95f02" stroke="#d95f02" stroke-width="3" points="119.25,-642.58 128.63,-647.5 124.37,-637.8 119.25,-642.58"/>
<text text-anchor="middle" x="87.5" y="-612.3" font-family="Times New Roman,serif" font-size="14.00" fill="#d95f02">&lt;16&gt;</text>
</g>
<!-- x4 -->
<g id="node13" class="node">
<title>x4</title>
<path fill="none" stroke="black" d="M141.63,-409.5C141.63,-409.5 199.63,-409.5 199.63,-409.5 205.63,-409.5 211.63,-415.5 211.63,-421.5 211.63,-421.5 211.63,-433.5 211.63,-433.5 211.63,-439.5 205.63,-445.5 199.63,-445.5 199.63,-445.5 141.63,-445.5 141.63,-445.5 135.63,-445.5 129.63,-439.5 129.63,-433.5 129.63,-433.5 129.63,-421.5 129.63,-421.5 129.63,-415.5 135.63,-409.5 141.63,-409.5"/>
<text text-anchor="middle" x="170.63" y="-423.8" font-family="Times New Roman,serif" font-size="14.00">31:16 &#45; 15:0</text>
</g>
<!-- n6&#45;&gt;x4 -->
<g id="edge9" class="edge">
<title>n6:e&#45;&gt;x4:w</title>
<path fill="none" stroke="#d95f02" stroke-width="3" d="M54,-427.5C83.54,-427.5 93.35,-427.5 118.58,-427.5"/>
<polygon fill="#d95f02" stroke="#d95f02" stroke-width="3" points="118.63,-431 128.63,-427.5 118.63,-424 118.63,-431"/>
<text text-anchor="middle" x="87.5" y="-431.3" font-family="Times New Roman,serif" font-size="14.00" fill="#d95f02">&lt;16&gt;</text>
</g>
<!-- x8 -->
<g id="node14" class="node">
<title>x8</title>
<path fill="none" stroke="black" d="M145.13,-136.5C145.13,-136.5 196.13,-136.5 196.13,-136.5 202.13,-136.5 208.13,-142.5 208.13,-148.5 208.13,-148.5 208.13,-160.5 208.13,-160.5 208.13,-166.5 202.13,-172.5 196.13,-172.5 196.13,-172.5 145.13,-172.5 145.13,-172.5 139.13,-172.5 133.13,-166.5 133.13,-160.5 133.13,-160.5 133.13,-148.5 133.13,-148.5 133.13,-142.5 139.13,-136.5 145.13,-136.5"/>
<text text-anchor="middle" x="170.63" y="-150.8" font-family="Times New Roman,serif" font-size="14.00">15:0 &#45; 15:0</text>
</g>
<!-- n6&#45;&gt;x8 -->
<g id="edge10" class="edge">
<title>n6:e&#45;&gt;x8:w</title>
<path fill="none" stroke="#d95f02" stroke-width="3" d="M54,-427.5C72.44,-427.5 66.43,-280.08 72,-262.5 87.45,-213.7 78.24,-161.89 121.56,-155.22"/>
<polygon fill="#d95f02" stroke="#d95f02" stroke-width="3" points="121.91,-158.7 131.63,-154.5 121.41,-151.72 121.91,-158.7"/>
<text text-anchor="middle" x="87.5" y="-266.3" font-family="Times New Roman,serif" font-size="14.00" fill="#d95f02">&lt;16&gt;</text>
</g>
<!-- n7 -->
<g id="node2" class="node">
<title>n7</title>
<polygon fill="none" stroke="black" points="54,-530.04 54,-544.96 38.18,-555.5 15.82,-555.5 0,-544.96 0,-530.04 15.82,-519.5 38.18,-519.5 54,-530.04"/>
<text text-anchor="middle" x="27" y="-533.8" font-family="Times New Roman,serif" font-size="14.00">a</text>
</g>
<!-- x2 -->
<g id="node15" class="node">
<title>x2</title>
<path fill="none" stroke="black" d="M141.63,-684.5C141.63,-684.5 199.63,-684.5 199.63,-684.5 205.63,-684.5 211.63,-690.5 211.63,-696.5 211.63,-696.5 211.63,-708.5 211.63,-708.5 211.63,-714.5 205.63,-720.5 199.63,-720.5 199.63,-720.5 141.63,-720.5 141.63,-720.5 135.63,-720.5 129.63,-714.5 129.63,-708.5 129.63,-708.5 129.63,-696.5 129.63,-696.5 129.63,-690.5 135.63,-684.5 141.63,-684.5"/>
<text text-anchor="middle" x="170.63" y="-698.8" font-family="Times New Roman,serif" font-size="14.00">31:16 &#45; 15:0</text>
</g>
<!-- n7&#45;&gt;x2 -->
<g id="edge11" class="edge">
<title>n7:e&#45;&gt;x2:w</title>
<path fill="none" stroke="#d95f02" stroke-width="3" d="M54,-537.5C75.05,-537.5 63.25,-611.36 72,-630.5 87.41,-664.2 87.96,-696.2 118.63,-701.68"/>
<polygon fill="#d95f02" stroke="#d95f02" stroke-width="3" points="118.38,-705.17 128.63,-702.5 118.96,-698.19 118.38,-705.17"/>
<text text-anchor="middle" x="87.5" y="-698.3" font-family="Times New Roman,serif" font-size="14.00" fill="#d95f02">&lt;16&gt;</text>
</g>
<!-- x5 -->
<g id="node16" class="node">
<title>x5</title>
<path fill="none" stroke="black" d="M141.63,-519.5C141.63,-519.5 199.63,-519.5 199.63,-519.5 205.63,-519.5 211.63,-525.5 211.63,-531.5 211.63,-531.5 211.63,-543.5 211.63,-543.5 211.63,-549.5 205.63,-555.5 199.63,-555.5 199.63,-555.5 141.63,-555.5 141.63,-555.5 135.63,-555.5 129.63,-549.5 129.63,-543.5 129.63,-543.5 129.63,-531.5 129.63,-531.5 129.63,-525.5 135.63,-519.5 141.63,-519.5"/>
<text text-anchor="middle" x="170.63" y="-533.8" font-family="Times New Roman,serif" font-size="14.00">31:16 &#45; 15:0</text>
</g>
<!-- n7&#45;&gt;x5 -->
<g id="edge12" class="edge">
<title>n7:e&#45;&gt;x5:w</title>
<path fill="none" stroke="#d95f02" stroke-width="3" d="M54,-537.5C83.54,-537.5 93.35,-537.5 118.58,-537.5"/>
<polygon fill="#d95f02" stroke="#d95f02" stroke-width="3" points="118.63,-541 128.63,-537.5 118.63,-534 118.63,-541"/>
<text text-anchor="middle" x="87.5" y="-541.3" font-family="Times New Roman,serif" font-size="14.00" fill="#d95f02">&lt;16&gt;</text>
</g>
<!-- x9 -->
<g id="node17" class="node">
<title>x9</title>
<path fill="none" stroke="black" d="M145.13,-191.5C145.13,-191.5 196.13,-191.5 196.13,-191.5 202.13,-191.5 208.13,-197.5 208.13,-203.5 208.13,-203.5 208.13,-215.5 208.13,-215.5 208.13,-221.5 202.13,-227.5 196.13,-227.5 196.13,-227.5 145.13,-227.5 145.13,-227.5 139.13,-227.5 133.13,-221.5 133.13,-215.5 133.13,-215.5 133.13,-203.5 133.13,-203.5 133.13,-197.5 139.13,-191.5 145.13,-191.5"/>
<text text-anchor="middle" x="170.63" y="-205.8" font-family="Times New Roman,serif" font-size="14.00">15:0 &#45; 15:0</text>
</g>
<!-- n7&#45;&gt;x9 -->
<g id="edge13" class="edge">
<title>n7:e&#45;&gt;x9:w</title>
<path fill="none" stroke="#d95f02" stroke-width="3" d="M54,-537.5C82.94,-537.5 66,-436.82 72,-408.5 74.09,-398.64 109.19,-254.32 125.75,-217.83"/>
<polygon fill="#d95f02" stroke="#d95f02" stroke-width="3" points="128.72,-219.69 131.63,-209.5 123,-215.65 128.72,-219.69"/>
<text text-anchor="middle" x="87.5" y="-412.3" font-family="Times New Roman,serif" font-size="14.00" fill="#d95f02">&lt;16&gt;</text>
</g>
<!-- n5 -->
<g id="node3" class="node">
<title>n5</title>
<polygon fill="none" stroke="black" points="660.69,-45.04 660.69,-59.96 644.12,-70.5 620.69,-70.5 604.13,-59.96 604.13,-45.04 620.69,-34.5 644.12,-34.5 660.69,-45.04"/>
<text text-anchor="middle" x="632.41" y="-48.8" font-family="Times New Roman,serif" font-size="14.00">sum</text>
</g>
<!-- x6 -->
<g id="node11" class="node">
<title>x6</title>
<path fill="none" stroke="black" d="M145.13,-23.5C145.13,-23.5 196.13,-23.5 196.13,-23.5 202.13,-23.5 208.13,-29.5 208.13,-35.5 208.13,-35.5 208.13,-47.5 208.13,-47.5 208.13,-53.5 202.13,-59.5 196.13,-59.5 196.13,-59.5 145.13,-59.5 145.13,-59.5 139.13,-59.5 133.13,-53.5 133.13,-47.5 133.13,-47.5 133.13,-35.5 133.13,-35.5 133.13,-29.5 139.13,-23.5 145.13,-23.5"/>
<text text-anchor="middle" x="170.63" y="-37.8" font-family="Times New Roman,serif" font-size="14.00">15:0 &#45; 15:0</text>
</g>
<!-- n5&#45;&gt;x6 -->
<g id="edge7" class="edge">
<title>n5:e&#45;&gt;x6:w</title>
<path fill="none" stroke="#e6ab02" stroke-width="3" d="M661.41,-52.5C669.42,-52.5 666.23,-64.99 660.41,-70.5 642.28,-87.65 627.73,-78.99 604.27,-70.5 594.48,-66.95 596.06,-59.05 586.27,-55.5 573.31,-50.81 569.05,-55.45 555.27,-55.5 436.16,-55.94 406.36,-55.17 287.27,-57.5 252.09,-58.19 243.32,-59.44 208.13,-60 174.58,-60.53 156.99,-83.08 132.63,-60 130.11,-57.61 128.08,-53.94 127.18,-50.5"/>
<polygon fill="#e6ab02" stroke="#e6ab02" stroke-width="3" points="130.34,-52.02 131.63,-41.5 124.06,-48.91 130.34,-52.02"/>
<text text-anchor="middle" x="421.77" y="-60.3" font-family="Times New Roman,serif" font-size="14.00" fill="#e6ab02">&lt;16&gt;</text>
</g>
<!-- n2 -->
<g id="node4" class="node">
<title>n2</title>
<polygon fill="none" stroke="black" points="170.63,-500.5 120.87,-482.5 170.63,-464.5 220.4,-482.5 170.63,-500.5"/>
<text text-anchor="middle" x="170.63" y="-478.8" font-family="Times New Roman,serif" font-size="14.00">sum2b</text>
</g>
<!-- c12 -->
<g id="node5" class="node">
<title>c12</title>
<polygon fill="none" stroke="black" points="288.27,-234 288.27,-303 387.27,-303 387.27,-234 288.27,-234"/>
<text text-anchor="middle" x="301.27" y="-287.8" font-family="Times New Roman,serif" font-size="14.00">A</text>
<polyline fill="none" stroke="black" points="288.27,-280 314.27,-280 "/>
<text text-anchor="middle" x="301.27" y="-264.8" font-family="Times New Roman,serif" font-size="14.00">B</text>
<polyline fill="none" stroke="black" points="288.27,-257 314.27,-257 "/>
<text text-anchor="middle" x="301.27" y="-241.8" font-family="Times New Roman,serif" font-size="14.00">S</text>
<polyline fill="none" stroke="black" points="314.27,-234 314.27,-303 "/>
<text text-anchor="middle" x="337.77" y="-272.3" font-family="Times New Roman,serif" font-size="14.00">$1</text>
<text text-anchor="middle" x="337.77" y="-257.3" font-family="Times New Roman,serif" font-size="14.00">$mux</text>
<polyline fill="none" stroke="black" points="361.27,-234 361.27,-303 "/>
<text text-anchor="middle" x="374.27" y="-264.8" font-family="Times New Roman,serif" font-size="14.00">Y</text>
</g>
<!-- n2&#45;&gt;c12 -->
<g id="edge1" class="edge">
<title>n2:e&#45;&gt;c12:w</title>
<path fill="none" stroke="#1b9e77" stroke-width="3" d="M220.27,-482.5C238.06,-482.5 232.25,-421.24 238.27,-404.5 248.69,-375.51 258.67,-371.43 269.27,-342.5 279.46,-314.69 259.68,-278.89 277.26,-270.38"/>
<polygon fill="#1b9e77" stroke="#1b9e77" stroke-width="3" points="278.08,-273.78 287.27,-268.5 276.8,-266.9 278.08,-273.78"/>
<text text-anchor="middle" x="253.77" y="-408.3" font-family="Times New Roman,serif" font-size="14.00" fill="#1b9e77">&lt;16&gt;</text>
</g>
<!-- c17 -->
<g id="node6" class="node">
<title>c17</title>
<polygon fill="none" stroke="black" points="287.27,-568.5 287.27,-660.5 388.27,-660.5 388.27,-568.5 287.27,-568.5"/>
<text text-anchor="middle" x="302.27" y="-645.3" font-family="Times New Roman,serif" font-size="14.00">$1</text>
<polyline fill="none" stroke="black" points="287.27,-637.5 317.27,-637.5 "/>
<text text-anchor="middle" x="302.27" y="-622.3" font-family="Times New Roman,serif" font-size="14.00">$2</text>
<polyline fill="none" stroke="black" points="287.27,-614.5 317.27,-614.5 "/>
<text text-anchor="middle" x="302.27" y="-599.3" font-family="Times New Roman,serif" font-size="14.00">$3</text>
<polyline fill="none" stroke="black" points="287.27,-591.5 317.27,-591.5 "/>
<text text-anchor="middle" x="302.27" y="-576.3" font-family="Times New Roman,serif" font-size="14.00">$4</text>
<polyline fill="none" stroke="black" points="317.27,-568.5 317.27,-660.5 "/>
<text text-anchor="middle" x="342.77" y="-618.3" font-family="Times New Roman,serif" font-size="14.00">a2b</text>
<text text-anchor="middle" x="342.77" y="-603.3" font-family="Times New Roman,serif" font-size="14.00">add16</text>
<polyline fill="none" stroke="black" points="368.27,-568.5 368.27,-660.5 "/>
<text text-anchor="middle" x="378.27" y="-610.8" font-family="Times New Roman,serif" font-size="14.00"> </text>
</g>
<!-- n2&#45;&gt;c17 -->
<g id="edge2" class="edge">
<title>n2:e&#45;&gt;c17:w</title>
<path fill="none" stroke="#1b9e77" stroke-width="3" d="M220.27,-482.5C242.16,-482.5 253.1,-472.75 269.27,-487.5 296.92,-512.73 255.78,-566.89 277.36,-577.63"/>
<polygon fill="#1b9e77" stroke="#1b9e77" stroke-width="3" points="276.79,-581.08 287.27,-579.5 278.09,-574.2 276.79,-581.08"/>
<text text-anchor="middle" x="253.77" y="-491.3" font-family="Times New Roman,serif" font-size="14.00" fill="#1b9e77">&lt;16&gt;</text>
</g>
<!-- x10 -->
<g id="node18" class="node">
<title>x10</title>
<path fill="none" stroke="black" d="M467.27,-154.5C467.27,-154.5 525.27,-154.5 525.27,-154.5 531.27,-154.5 537.27,-160.5 537.27,-166.5 537.27,-166.5 537.27,-178.5 537.27,-178.5 537.27,-184.5 531.27,-190.5 525.27,-190.5 525.27,-190.5 467.27,-190.5 467.27,-190.5 461.27,-190.5 455.27,-184.5 455.27,-178.5 455.27,-178.5 455.27,-166.5 455.27,-166.5 455.27,-160.5 461.27,-154.5 467.27,-154.5"/>
<text text-anchor="middle" x="496.27" y="-168.8" font-family="Times New Roman,serif" font-size="14.00">15:0 &#45; 31:16</text>
</g>
<!-- c12&#45;&gt;x10 -->
<g id="edge14" class="edge">
<title>c12:e&#45;&gt;x10:w</title>
<path fill="none" stroke="#d95f02" stroke-width="3" d="M388.27,-268.5C436.44,-268.5 408.25,-186.22 445.08,-174.01"/>
<polygon fill="#d95f02" stroke="#d95f02" stroke-width="3" points="445.89,-177.43 455.27,-172.5 444.86,-170.5 445.89,-177.43"/>
<text text-anchor="middle" x="421.77" y="-266.3" font-family="Times New Roman,serif" font-size="14.00" fill="#d95f02">&lt;16&gt;</text>
</g>
<!-- n3 -->
<g id="node7" class="node">
<title>n3</title>
<polygon fill="none" stroke="black" points="170.63,-336.5 121.7,-318.5 170.63,-300.5 219.57,-318.5 170.63,-336.5"/>
<text text-anchor="middle" x="170.63" y="-314.8" font-family="Times New Roman,serif" font-size="14.00">sum2a</text>
</g>
<!-- n3&#45;&gt;c12 -->
<g id="edge3" class="edge">
<title>n3:e&#45;&gt;c12:w</title>
<path fill="none" stroke="#1b9e77" stroke-width="3" d="M220.27,-318.5C235.44,-318.5 225.01,-296.87 238.27,-289.5 254.04,-280.73 262.35,-287.86 277.11,-290.57"/>
<polygon fill="#1b9e77" stroke="#1b9e77" stroke-width="3" points="276.99,-294.07 287.27,-291.5 277.63,-287.1 276.99,-294.07"/>
<text text-anchor="middle" x="253.77" y="-293.3" font-family="Times New Roman,serif" font-size="14.00" fill="#1b9e77">&lt;16&gt;</text>
</g>
<!-- c18 -->
<g id="node8" class="node">
<title>c18</title>
<polygon fill="none" stroke="black" points="287.27,-364.5 287.27,-456.5 388.27,-456.5 388.27,-364.5 287.27,-364.5"/>
<text text-anchor="middle" x="302.27" y="-441.3" font-family="Times New Roman,serif" font-size="14.00">$1</text>
<polyline fill="none" stroke="black" points="287.27,-433.5 317.27,-433.5 "/>
<text text-anchor="middle" x="302.27" y="-418.3" font-family="Times New Roman,serif" font-size="14.00">$2</text>
<polyline fill="none" stroke="black" points="287.27,-410.5 317.27,-410.5 "/>
<text text-anchor="middle" x="302.27" y="-395.3" font-family="Times New Roman,serif" font-size="14.00">$3</text>
<polyline fill="none" stroke="black" points="287.27,-387.5 317.27,-387.5 "/>
<text text-anchor="middle" x="302.27" y="-372.3" font-family="Times New Roman,serif" font-size="14.00">$4</text>
<polyline fill="none" stroke="black" points="317.27,-364.5 317.27,-456.5 "/>
<text text-anchor="middle" x="342.77" y="-414.3" font-family="Times New Roman,serif" font-size="14.00">a2a</text>
<text text-anchor="middle" x="342.77" y="-399.3" font-family="Times New Roman,serif" font-size="14.00">add16</text>
<polyline fill="none" stroke="black" points="368.27,-364.5 368.27,-456.5 "/>
<text text-anchor="middle" x="378.27" y="-406.8" font-family="Times New Roman,serif" font-size="14.00"> </text>
</g>
<!-- n3&#45;&gt;c18 -->
<g id="edge4" class="edge">
<title>n3:e&#45;&gt;c18:w</title>
<path fill="none" stroke="#1b9e77" stroke-width="3" d="M220.27,-318.5C242.41,-318.5 252.29,-313.29 269.27,-327.5 283.06,-339.04 272.11,-362.25 278.07,-371.53"/>
<polygon fill="#1b9e77" stroke="#1b9e77" stroke-width="3" points="276.7,-374.76 287.27,-375.5 279.47,-368.33 276.7,-374.76"/>
<text text-anchor="middle" x="253.77" y="-331.3" font-family="Times New Roman,serif" font-size="14.00" fill="#1b9e77">&lt;16&gt;</text>
</g>
<!-- n4 -->
<g id="node9" class="node">
<title>n4</title>
<polygon fill="none" stroke="black" points="170.63,-282.5 129.41,-264.5 170.63,-246.5 211.86,-264.5 170.63,-282.5"/>
<text text-anchor="middle" x="170.63" y="-260.8" font-family="Times New Roman,serif" font-size="14.00">carry</text>
</g>
<!-- n4&#45;&gt;c12 -->
<g id="edge5" class="edge">
<title>n4:e&#45;&gt;c12:w</title>
<path fill="none" stroke="#e6ab02" d="M212.63,-264.5C243.12,-264.5 251.35,-249.43 276.97,-246.13"/>
<polygon fill="#e6ab02" stroke="#e6ab02" points="277.5,-249.61 287.27,-245.5 277.07,-242.62 277.5,-249.61"/>
</g>
<!-- c20 -->
<g id="node10" class="node">
<title>c20</title>
<polygon fill="none" stroke="black" points="287.27,-67 287.27,-182 388.27,-182 388.27,-67 287.27,-67"/>
<text text-anchor="middle" x="302.27" y="-166.8" font-family="Times New Roman,serif" font-size="14.00">$1</text>
<polyline fill="none" stroke="black" points="287.27,-159 317.27,-159 "/>
<text text-anchor="middle" x="302.27" y="-143.8" font-family="Times New Roman,serif" font-size="14.00">$2</text>
<polyline fill="none" stroke="black" points="287.27,-136 317.27,-136 "/>
<text text-anchor="middle" x="302.27" y="-120.8" font-family="Times New Roman,serif" font-size="14.00">$3</text>
<polyline fill="none" stroke="black" points="287.27,-113 317.27,-113 "/>
<text text-anchor="middle" x="302.27" y="-97.8" font-family="Times New Roman,serif" font-size="14.00">$4</text>
<polyline fill="none" stroke="black" points="287.27,-90 317.27,-90 "/>
<text text-anchor="middle" x="302.27" y="-74.8" font-family="Times New Roman,serif" font-size="14.00">$5</text>
<polyline fill="none" stroke="black" points="317.27,-67 317.27,-182 "/>
<text text-anchor="middle" x="342.77" y="-128.3" font-family="Times New Roman,serif" font-size="14.00">a1</text>
<text text-anchor="middle" x="342.77" y="-113.3" font-family="Times New Roman,serif" font-size="14.00">add16</text>
<polyline fill="none" stroke="black" points="368.27,-67 368.27,-182 "/>
<text text-anchor="middle" x="378.27" y="-120.8" font-family="Times New Roman,serif" font-size="14.00"> </text>
</g>
<!-- n4&#45;&gt;c20 -->
<g id="edge6" class="edge">
<title>n4:e&#45;&gt;c20:w</title>
<path fill="none" stroke="#e6ab02" d="M212.63,-264.5C255.02,-264.5 206.68,-103.76 238.27,-75.5 251.86,-63.34 261.72,-73.61 277.34,-77.3"/>
<polygon fill="#e6ab02" stroke="#e6ab02" points="276.92,-80.78 287.27,-78.5 277.76,-73.83 276.92,-80.78"/>
</g>
<!-- x6&#45;&gt;c20 -->
<g id="edge22" class="edge">
<title>x6:e&#45;&gt;c20:w</title>
<path fill="none" stroke="#e7298a" stroke-width="3" d="M220.95,-45.62C237.91,-56.53 258.66,-86.07 275.66,-97.19"/>
<polygon fill="none" stroke="#e7298a" stroke-width="3" points="220.91,-45.61 213.9,-47.31 209.63,-41.5 216.64,-39.8 220.91,-45.61"/>
<polygon fill="none" stroke="#e7298a" stroke-width="3" points="276.02,-97.32 283.04,-95.66 287.27,-101.5 280.25,-103.16 276.02,-97.32"/>
<text text-anchor="middle" x="253.77" y="-95.3" font-family="Times New Roman,serif" font-size="14.00" fill="#e7298a">&lt;16&gt;</text>
</g>
<!-- x1&#45;&gt;c17 -->
<g id="edge16" class="edge">
<title>x1:e&#45;&gt;c17:w</title>
<path fill="none" stroke="#66a61e" stroke-width="3" d="M224.65,-646.54C245.42,-643.04 254.46,-630.97 275.22,-627.46"/>
<polygon fill="none" stroke="#66a61e" stroke-width="3" points="224.6,-646.55 218.93,-651.01 212.63,-647.5 218.3,-643.04 224.6,-646.55"/>
<polygon fill="none" stroke="#66a61e" stroke-width="3" points="275.31,-627.46 280.97,-622.99 287.27,-626.5 281.61,-630.97 275.31,-627.46"/>
<text text-anchor="middle" x="253.77" y="-645.3" font-family="Times New Roman,serif" font-size="14.00" fill="#66a61e">&lt;16&gt;</text>
</g>
<!-- x4&#45;&gt;c18 -->
<g id="edge19" class="edge">
<title>x4:e&#45;&gt;c18:w</title>
<path fill="none" stroke="#1b9e77" stroke-width="3" d="M224.67,-427.26C244.76,-426.42 254.99,-423.61 275.01,-422.75"/>
<polygon fill="none" stroke="#1b9e77" stroke-width="3" points="224.63,-427.26 218.71,-431.38 212.63,-427.5 218.55,-423.38 224.63,-427.26"/>
<polygon fill="none" stroke="#1b9e77" stroke-width="3" points="275.27,-422.75 281.19,-418.62 287.27,-422.5 281.35,-426.62 275.27,-422.75"/>
<text text-anchor="middle" x="253.77" y="-430.3" font-family="Times New Roman,serif" font-size="14.00" fill="#1b9e77">&lt;16&gt;</text>
</g>
<!-- x8&#45;&gt;c20 -->
<g id="edge23" class="edge">
<title>x8:e&#45;&gt;c20:w</title>
<path fill="none" stroke="#e7298a" stroke-width="3" d="M221.83,-154.18C243.15,-153.01 253.73,-148.99 275.04,-147.82"/>
<polygon fill="none" stroke="#e7298a" stroke-width="3" points="221.63,-154.19 215.74,-158.34 209.63,-154.5 215.53,-150.34 221.63,-154.19"/>
<polygon fill="none" stroke="#e7298a" stroke-width="3" points="275.27,-147.81 281.17,-143.66 287.27,-147.5 281.38,-151.66 275.27,-147.81"/>
<text text-anchor="middle" x="253.77" y="-156.3" font-family="Times New Roman,serif" font-size="14.00" fill="#e7298a">&lt;16&gt;</text>
</g>
<!-- x2&#45;&gt;c17 -->
<g id="edge17" class="edge">
<title>x2:e&#45;&gt;c17:w</title>
<path fill="none" stroke="#1b9e77" stroke-width="3" d="M222.96,-696.21C237.29,-686.01 262.64,-665.97 276.96,-655.78"/>
<polygon fill="none" stroke="#1b9e77" stroke-width="3" points="222.88,-696.26 219.84,-702.79 212.63,-702.5 215.68,-695.96 222.88,-696.26"/>
<polygon fill="none" stroke="#1b9e77" stroke-width="3" points="277.02,-655.74 280.06,-649.2 287.27,-649.5 284.23,-656.04 277.02,-655.74"/>
<text text-anchor="middle" x="253.77" y="-687.3" font-family="Times New Roman,serif" font-size="14.00" fill="#1b9e77">&lt;16&gt;</text>
</g>
<!-- x5&#45;&gt;c18 -->
<g id="edge20" class="edge">
<title>x5:e&#45;&gt;c18:w</title>
<path fill="none" stroke="#7570b3" stroke-width="3" d="M224.81,-536.85C244.63,-534.46 254.07,-525.35 269.27,-506.5 283.27,-489.14 268.78,-461.19 275.94,-450.18"/>
<polygon fill="none" stroke="#7570b3" stroke-width="3" points="224.62,-536.86 218.84,-541.17 212.63,-537.5 218.41,-533.18 224.62,-536.86"/>
<polygon fill="none" stroke="#7570b3" stroke-width="3" points="276.18,-450.08 280.2,-444.09 287.27,-445.5 283.25,-451.49 276.18,-450.08"/>
<text text-anchor="middle" x="253.77" y="-536.3" font-family="Times New Roman,serif" font-size="14.00" fill="#7570b3">&lt;16&gt;</text>
</g>
<!-- x9&#45;&gt;c20 -->
<g id="edge24" class="edge">
<title>x9:e&#45;&gt;c20:w</title>
<path fill="none" stroke="#7570b3" stroke-width="3" d="M221.76,-208.02C245.27,-201.84 251.63,-178.16 275.14,-171.98"/>
<polygon fill="none" stroke="#7570b3" stroke-width="3" points="221.55,-208.04 216.08,-212.74 209.63,-209.5 215.11,-204.8 221.55,-208.04"/>
<polygon fill="none" stroke="#7570b3" stroke-width="3" points="275.36,-171.96 280.83,-167.26 287.27,-170.5 281.8,-175.2 275.36,-171.96"/>
<text text-anchor="middle" x="253.77" y="-203.3" font-family="Times New Roman,serif" font-size="14.00" fill="#7570b3">&lt;16&gt;</text>
</g>
<!-- x10&#45;&gt;n5 -->
<g id="edge25" class="edge">
<title>x10:e&#45;&gt;n5:w</title>
<path fill="none" stroke="#e6ab02" stroke-width="3" d="M537.27,-172.5C594.53,-172.5 549.63,-67.03 594.12,-53.85"/>
<polygon fill="#e6ab02" stroke="#e6ab02" stroke-width="3" points="594.82,-57.29 604.27,-52.5 593.9,-50.35 594.82,-57.29"/>
<text text-anchor="middle" x="570.77" y="-170.3" font-family="Times New Roman,serif" font-size="14.00" fill="#e6ab02">&lt;16&gt;</text>
</g>
<!-- v0 -->
<g id="node19" class="node">
<title>v0</title>
<ellipse fill="none" stroke="black" cx="170.63" cy="-592.5" rx="27" ry="18"/>
<text text-anchor="middle" x="170.63" y="-588.8" font-family="Times New Roman,serif" font-size="14.00">1&#39;1</text>
</g>
<!-- v0&#45;&gt;c17 -->
<g id="edge15" class="edge">
<title>v0:e&#45;&gt;c17:w</title>
<path fill="none" stroke="#d95f02" d="M198.63,-592.5C234.56,-592.5 245.61,-600.71 276.87,-602.25"/>
<polygon fill="#d95f02" stroke="#d95f02" points="277.19,-605.76 287.27,-602.5 277.36,-598.76 277.19,-605.76"/>
</g>
<!-- v3 -->
<g id="node20" class="node">
<title>v3</title>
<ellipse fill="none" stroke="black" cx="170.63" cy="-372.5" rx="27" ry="18"/>
<text text-anchor="middle" x="170.63" y="-368.8" font-family="Times New Roman,serif" font-size="14.00">1&#39;0</text>
</g>
<!-- v3&#45;&gt;c18 -->
<g id="edge18" class="edge">
<title>v3:e&#45;&gt;c18:w</title>
<path fill="none" stroke="#1b9e77" d="M198.63,-372.5C236,-372.5 244.76,-394.04 276.99,-397.91"/>
<polygon fill="#1b9e77" stroke="#1b9e77" points="277.08,-401.42 287.27,-398.5 277.49,-394.43 277.08,-401.42"/>
</g>
<!-- v7 -->
<g id="node21" class="node">
<title>v7</title>
<ellipse fill="none" stroke="black" cx="170.63" cy="-99.5" rx="27" ry="18"/>
<text text-anchor="middle" x="170.63" y="-95.8" font-family="Times New Roman,serif" font-size="14.00">1&#39;0</text>
</g>
<!-- v7&#45;&gt;c20 -->
<g id="edge21" class="edge">
<title>v7:e&#45;&gt;c20:w</title>
<path fill="none" stroke="#1b9e77" d="M198.63,-99.5C207.11,-99.5 255.31,-116.64 277.45,-122.54"/>
<polygon fill="#1b9e77" stroke="#1b9e77" points="276.78,-125.97 287.27,-124.5 278.15,-119.11 276.78,-125.97"/>
</g>
</g>
</svg>
