<svg xmlns="http://www.w3.org/2000/svg" xmlns:xlink="http://www.w3.org/1999/xlink" xmlns:s="https://github.com/nturley/netlistsvg" width="585" height="861.5">
  <style>svg {
    stroke:#000;
    fill:none;
  }
  text {
    fill:#000;
    stroke:none;
    font-size:10px;
    font-weight: bold;
    font-family: "Courier New", monospace;
  }
  .nodelabel {
    text-anchor: middle;
  }
  .inputPortLabel {
    text-anchor: end;
  }
  .splitjoinBody {
    fill:#000;
  }</style>
  <g s:type="and" transform="translate(224,17)" s:width="30" s:height="25" id="cell_$auto$aigmap.cc:123:execute$17">
    <s:alias val="$and"/>
    <s:alias val="$logic_and"/>
    <s:alias val="$_AND_"/>
    <path d="M0,0 L0,25 L15,25 A15 12.5 0 0 0 15,0 Z" class="cell_$auto$aigmap.cc:123:execute$17"/>
    <g s:x="0" s:y="5" s:pid="A"/>
    <g s:x="0" s:y="20" s:pid="B"/>
    <g s:x="30" s:y="12.5" s:pid="Y"/>
  </g>
  <g s:type="and" transform="translate(289,24.5)" s:width="30" s:height="25" id="cell_$auto$aigmap.cc:123:execute$21">
    <s:alias val="$and"/>
    <s:alias val="$logic_and"/>
    <s:alias val="$_AND_"/>
    <path d="M0,0 L0,25 L15,25 A15 12.5 0 0 0 15,0 Z" class="cell_$auto$aigmap.cc:123:execute$21"/>
    <g s:x="0" s:y="5" s:pid="A"/>
    <g s:x="0" s:y="20" s:pid="B"/>
    <g s:x="30" s:y="12.5" s:pid="Y"/>
  </g>
  <g s:type="and" transform="translate(289,149.5)" s:width="30" s:height="25" id="cell_$auto$aigmap.cc:123:execute$23">
    <s:alias val="$and"/>
    <s:alias val="$logic_and"/>
    <s:alias val="$_AND_"/>
    <path d="M0,0 L0,25 L15,25 A15 12.5 0 0 0 15,0 Z" class="cell_$auto$aigmap.cc:123:execute$23"/>
    <g s:x="0" s:y="5" s:pid="A"/>
    <g s:x="0" s:y="20" s:pid="B"/>
    <g s:x="30" s:y="12.5" s:pid="Y"/>
  </g>
  <g s:type="and" transform="translate(354,32)" s:width="30" s:height="25" id="cell_$auto$aigmap.cc:123:execute$25">
    <s:alias val="$and"/>
    <s:alias val="$logic_and"/>
    <s:alias val="$_AND_"/>
    <path d="M0,0 L0,25 L15,25 A15 12.5 0 0 0 15,0 Z" class="cell_$auto$aigmap.cc:123:execute$25"/>
    <g s:x="0" s:y="5" s:pid="A"/>
    <g s:x="0" s:y="20" s:pid="B"/>
    <g s:x="30" s:y="12.5" s:pid="Y"/>
  </g>
  <g s:type="and" transform="translate(289,559.5)" s:width="30" s:height="25" id="cell_$auto$aigmap.cc:123:execute$45">
    <s:alias val="$and"/>
    <s:alias val="$logic_and"/>
    <s:alias val="$_AND_"/>
    <path d="M0,0 L0,25 L15,25 A15 12.5 0 0 0 15,0 Z" class="cell_$auto$aigmap.cc:123:execute$45"/>
    <g s:x="0" s:y="5" s:pid="A"/>
    <g s:x="0" s:y="20" s:pid="B"/>
    <g s:x="30" s:y="12.5" s:pid="Y"/>
  </g>
  <g s:type="and" transform="translate(289,669.5)" s:width="30" s:height="25" id="cell_$auto$aigmap.cc:123:execute$53">
    <s:alias val="$and"/>
    <s:alias val="$logic_and"/>
    <s:alias val="$_AND_"/>
    <path d="M0,0 L0,25 L15,25 A15 12.5 0 0 0 15,0 Z" class="cell_$auto$aigmap.cc:123:execute$53"/>
    <g s:x="0" s:y="5" s:pid="A"/>
    <g s:x="0" s:y="20" s:pid="B"/>
    <g s:x="30" s:y="12.5" s:pid="Y"/>
  </g>
  <g s:type="and" transform="translate(289,779.5)" s:width="30" s:height="25" id="cell_$auto$aigmap.cc:123:execute$61">
    <s:alias val="$and"/>
    <s:alias val="$logic_and"/>
    <s:alias val="$_AND_"/>
    <path d="M0,0 L0,25 L15,25 A15 12.5 0 0 0 15,0 Z" class="cell_$auto$aigmap.cc:123:execute$61"/>
    <g s:x="0" s:y="5" s:pid="A"/>
    <g s:x="0" s:y="20" s:pid="B"/>
    <g s:x="30" s:y="12.5" s:pid="Y"/>
  </g>
  <g s:type="and" transform="translate(224,142)" s:width="30" s:height="25" id="cell_$auto$aigmap.cc:123:execute$9">
    <s:alias val="$and"/>
    <s:alias val="$logic_and"/>
    <s:alias val="$_AND_"/>
    <path d="M0,0 L0,25 L15,25 A15 12.5 0 0 0 15,0 Z" class="cell_$auto$aigmap.cc:123:execute$9"/>
    <g s:x="0" s:y="5" s:pid="A"/>
    <g s:x="0" s:y="20" s:pid="B"/>
    <g s:x="30" s:y="12.5" s:pid="Y"/>
  </g>
  <g s:type="not" transform="translate(224,212)" s:width="30" s:height="20" id="cell_$auto$aigmap.cc:132:execute$11">
    <s:alias val="$_NOT_"/>
    <s:alias val="$not"/>
    <s:alias val="$logic_not"/>
    <path d="M0,0 L0,20 L20,10 Z" class="cell_$auto$aigmap.cc:132:execute$11"/>
    <circle cx="23" cy="10" r="3" class="cell_$auto$aigmap.cc:132:execute$11"/>
    <g s:x="0" s:y="10" s:pid="A"/>
    <g s:x="25" s:y="10" s:pid="Y"/>
  </g>
  <g s:type="not" transform="translate(159,12)" s:width="30" s:height="20" id="cell_$auto$aigmap.cc:132:execute$13">
    <s:alias val="$_NOT_"/>
    <s:alias val="$not"/>
    <s:alias val="$logic_not"/>
    <path d="M0,0 L0,20 L20,10 Z" class="cell_$auto$aigmap.cc:132:execute$13"/>
    <circle cx="23" cy="10" r="3" class="cell_$auto$aigmap.cc:132:execute$13"/>
    <g s:x="0" s:y="10" s:pid="A"/>
    <g s:x="25" s:y="10" s:pid="Y"/>
  </g>
  <g s:type="not" transform="translate(159,67)" s:width="30" s:height="20" id="cell_$auto$aigmap.cc:132:execute$15">
    <s:alias val="$_NOT_"/>
    <s:alias val="$not"/>
    <s:alias val="$logic_not"/>
    <path d="M0,0 L0,20 L20,10 Z" class="cell_$auto$aigmap.cc:132:execute$15"/>
    <circle cx="23" cy="10" r="3" class="cell_$auto$aigmap.cc:132:execute$15"/>
    <g s:x="0" s:y="10" s:pid="A"/>
    <g s:x="25" s:y="10" s:pid="Y"/>
  </g>
  <g s:type="not" transform="translate(224,87)" s:width="30" s:height="20" id="cell_$auto$aigmap.cc:132:execute$19">
    <s:alias val="$_NOT_"/>
    <s:alias val="$not"/>
    <s:alias val="$logic_not"/>
    <path d="M0,0 L0,20 L20,10 Z" class="cell_$auto$aigmap.cc:132:execute$19"/>
    <circle cx="23" cy="10" r="3" class="cell_$auto$aigmap.cc:132:execute$19"/>
    <g s:x="0" s:y="10" s:pid="A"/>
    <g s:x="25" s:y="10" s:pid="Y"/>
  </g>
  <g s:type="not" transform="translate(424,34.5)" s:width="30" s:height="20" id="cell_$auto$aigmap.cc:132:execute$27">
    <s:alias val="$_NOT_"/>
    <s:alias val="$not"/>
    <s:alias val="$logic_not"/>
    <path d="M0,0 L0,20 L20,10 Z" class="cell_$auto$aigmap.cc:132:execute$27"/>
    <circle cx="23" cy="10" r="3" class="cell_$auto$aigmap.cc:132:execute$27"/>
    <g s:x="0" s:y="10" s:pid="A"/>
    <g s:x="25" s:y="10" s:pid="Y"/>
  </g>
  <g s:type="not" transform="translate(354,232)" s:width="30" s:height="20" id="cell_$auto$aigmap.cc:132:execute$29">
    <s:alias val="$_NOT_"/>
    <s:alias val="$not"/>
    <s:alias val="$logic_not"/>
    <path d="M0,0 L0,20 L20,10 Z" class="cell_$auto$aigmap.cc:132:execute$29"/>
    <circle cx="23" cy="10" r="3" class="cell_$auto$aigmap.cc:132:execute$29"/>
    <g s:x="0" s:y="10" s:pid="A"/>
    <g s:x="25" s:y="10" s:pid="Y"/>
  </g>
  <g s:type="not" transform="translate(354,287)" s:width="30" s:height="20" id="cell_$auto$aigmap.cc:132:execute$31">
    <s:alias val="$_NOT_"/>
    <s:alias val="$not"/>
    <s:alias val="$logic_not"/>
    <path d="M0,0 L0,20 L20,10 Z" class="cell_$auto$aigmap.cc:132:execute$31"/>
    <circle cx="23" cy="10" r="3" class="cell_$auto$aigmap.cc:132:execute$31"/>
    <g s:x="0" s:y="10" s:pid="A"/>
    <g s:x="25" s:y="10" s:pid="Y"/>
  </g>
  <g s:type="not" transform="translate(354,342)" s:width="30" s:height="20" id="cell_$auto$aigmap.cc:132:execute$33">
    <s:alias val="$_NOT_"/>
    <s:alias val="$not"/>
    <s:alias val="$logic_not"/>
    <path d="M0,0 L0,20 L20,10 Z" class="cell_$auto$aigmap.cc:132:execute$33"/>
    <circle cx="23" cy="10" r="3" class="cell_$auto$aigmap.cc:132:execute$33"/>
    <g s:x="0" s:y="10" s:pid="A"/>
    <g s:x="25" s:y="10" s:pid="Y"/>
  </g>
  <g s:type="not" transform="translate(354,397)" s:width="30" s:height="20" id="cell_$auto$aigmap.cc:132:execute$35">
    <s:alias val="$_NOT_"/>
    <s:alias val="$not"/>
    <s:alias val="$logic_not"/>
    <path d="M0,0 L0,20 L20,10 Z" class="cell_$auto$aigmap.cc:132:execute$35"/>
    <circle cx="23" cy="10" r="3" class="cell_$auto$aigmap.cc:132:execute$35"/>
    <g s:x="0" s:y="10" s:pid="A"/>
    <g s:x="25" s:y="10" s:pid="Y"/>
  </g>
  <g s:type="not" transform="translate(354,452)" s:width="30" s:height="20" id="cell_$auto$aigmap.cc:132:execute$37">
    <s:alias val="$_NOT_"/>
    <s:alias val="$not"/>
    <s:alias val="$logic_not"/>
    <path d="M0,0 L0,20 L20,10 Z" class="cell_$auto$aigmap.cc:132:execute$37"/>
    <circle cx="23" cy="10" r="3" class="cell_$auto$aigmap.cc:132:execute$37"/>
    <g s:x="0" s:y="10" s:pid="A"/>
    <g s:x="25" s:y="10" s:pid="Y"/>
  </g>
  <g s:type="not" transform="translate(354,507)" s:width="30" s:height="20" id="cell_$auto$aigmap.cc:132:execute$39">
    <s:alias val="$_NOT_"/>
    <s:alias val="$not"/>
    <s:alias val="$logic_not"/>
    <path d="M0,0 L0,20 L20,10 Z" class="cell_$auto$aigmap.cc:132:execute$39"/>
    <circle cx="23" cy="10" r="3" class="cell_$auto$aigmap.cc:132:execute$39"/>
    <g s:x="0" s:y="10" s:pid="A"/>
    <g s:x="25" s:y="10" s:pid="Y"/>
  </g>
  <g s:type="not" transform="translate(224,554.5)" s:width="30" s:height="20" id="cell_$auto$aigmap.cc:132:execute$41">
    <s:alias val="$_NOT_"/>
    <s:alias val="$not"/>
    <s:alias val="$logic_not"/>
    <path d="M0,0 L0,20 L20,10 Z" class="cell_$auto$aigmap.cc:132:execute$41"/>
    <circle cx="23" cy="10" r="3" class="cell_$auto$aigmap.cc:132:execute$41"/>
    <g s:x="0" s:y="10" s:pid="A"/>
    <g s:x="25" s:y="10" s:pid="Y"/>
  </g>
  <g s:type="not" transform="translate(224,609.5)" s:width="30" s:height="20" id="cell_$auto$aigmap.cc:132:execute$43">
    <s:alias val="$_NOT_"/>
    <s:alias val="$not"/>
    <s:alias val="$logic_not"/>
    <path d="M0,0 L0,20 L20,10 Z" class="cell_$auto$aigmap.cc:132:execute$43"/>
    <circle cx="23" cy="10" r="3" class="cell_$auto$aigmap.cc:132:execute$43"/>
    <g s:x="0" s:y="10" s:pid="A"/>
    <g s:x="25" s:y="10" s:pid="Y"/>
  </g>
  <g s:type="not" transform="translate(354,562)" s:width="30" s:height="20" id="cell_$auto$aigmap.cc:132:execute$47">
    <s:alias val="$_NOT_"/>
    <s:alias val="$not"/>
    <s:alias val="$logic_not"/>
    <path d="M0,0 L0,20 L20,10 Z" class="cell_$auto$aigmap.cc:132:execute$47"/>
    <circle cx="23" cy="10" r="3" class="cell_$auto$aigmap.cc:132:execute$47"/>
    <g s:x="0" s:y="10" s:pid="A"/>
    <g s:x="25" s:y="10" s:pid="Y"/>
  </g>
  <g s:type="not" transform="translate(224,664.5)" s:width="30" s:height="20" id="cell_$auto$aigmap.cc:132:execute$49">
    <s:alias val="$_NOT_"/>
    <s:alias val="$not"/>
    <s:alias val="$logic_not"/>
    <path d="M0,0 L0,20 L20,10 Z" class="cell_$auto$aigmap.cc:132:execute$49"/>
    <circle cx="23" cy="10" r="3" class="cell_$auto$aigmap.cc:132:execute$49"/>
    <g s:x="0" s:y="10" s:pid="A"/>
    <g s:x="25" s:y="10" s:pid="Y"/>
  </g>
  <g s:type="not" transform="translate(159,137)" s:width="30" s:height="20" id="cell_$auto$aigmap.cc:132:execute$5">
    <s:alias val="$_NOT_"/>
    <s:alias val="$not"/>
    <s:alias val="$logic_not"/>
    <path d="M0,0 L0,20 L20,10 Z" class="cell_$auto$aigmap.cc:132:execute$5"/>
    <circle cx="23" cy="10" r="3" class="cell_$auto$aigmap.cc:132:execute$5"/>
    <g s:x="0" s:y="10" s:pid="A"/>
    <g s:x="25" s:y="10" s:pid="Y"/>
  </g>
  <g s:type="not" transform="translate(224,719.5)" s:width="30" s:height="20" id="cell_$auto$aigmap.cc:132:execute$51">
    <s:alias val="$_NOT_"/>
    <s:alias val="$not"/>
    <s:alias val="$logic_not"/>
    <path d="M0,0 L0,20 L20,10 Z" class="cell_$auto$aigmap.cc:132:execute$51"/>
    <circle cx="23" cy="10" r="3" class="cell_$auto$aigmap.cc:132:execute$51"/>
    <g s:x="0" s:y="10" s:pid="A"/>
    <g s:x="25" s:y="10" s:pid="Y"/>
  </g>
  <g s:type="not" transform="translate(354,672)" s:width="30" s:height="20" id="cell_$auto$aigmap.cc:132:execute$55">
    <s:alias val="$_NOT_"/>
    <s:alias val="$not"/>
    <s:alias val="$logic_not"/>
    <path d="M0,0 L0,20 L20,10 Z" class="cell_$auto$aigmap.cc:132:execute$55"/>
    <circle cx="23" cy="10" r="3" class="cell_$auto$aigmap.cc:132:execute$55"/>
    <g s:x="0" s:y="10" s:pid="A"/>
    <g s:x="25" s:y="10" s:pid="Y"/>
  </g>
  <g s:type="not" transform="translate(224,774.5)" s:width="30" s:height="20" id="cell_$auto$aigmap.cc:132:execute$57">
    <s:alias val="$_NOT_"/>
    <s:alias val="$not"/>
    <s:alias val="$logic_not"/>
    <path d="M0,0 L0,20 L20,10 Z" class="cell_$auto$aigmap.cc:132:execute$57"/>
    <circle cx="23" cy="10" r="3" class="cell_$auto$aigmap.cc:132:execute$57"/>
    <g s:x="0" s:y="10" s:pid="A"/>
    <g s:x="25" s:y="10" s:pid="Y"/>
  </g>
  <g s:type="not" transform="translate(224,829.5)" s:width="30" s:height="20" id="cell_$auto$aigmap.cc:132:execute$59">
    <s:alias val="$_NOT_"/>
    <s:alias val="$not"/>
    <s:alias val="$logic_not"/>
    <path d="M0,0 L0,20 L20,10 Z" class="cell_$auto$aigmap.cc:132:execute$59"/>
    <circle cx="23" cy="10" r="3" class="cell_$auto$aigmap.cc:132:execute$59"/>
    <g s:x="0" s:y="10" s:pid="A"/>
    <g s:x="25" s:y="10" s:pid="Y"/>
  </g>
  <g s:type="not" transform="translate(354,782)" s:width="30" s:height="20" id="cell_$auto$aigmap.cc:132:execute$63">
    <s:alias val="$_NOT_"/>
    <s:alias val="$not"/>
    <s:alias val="$logic_not"/>
    <path d="M0,0 L0,20 L20,10 Z" class="cell_$auto$aigmap.cc:132:execute$63"/>
    <circle cx="23" cy="10" r="3" class="cell_$auto$aigmap.cc:132:execute$63"/>
    <g s:x="0" s:y="10" s:pid="A"/>
    <g s:x="25" s:y="10" s:pid="Y"/>
  </g>
  <g s:type="not" transform="translate(159,192)" s:width="30" s:height="20" id="cell_$auto$aigmap.cc:132:execute$7">
    <s:alias val="$_NOT_"/>
    <s:alias val="$not"/>
    <s:alias val="$logic_not"/>
    <path d="M0,0 L0,20 L20,10 Z" class="cell_$auto$aigmap.cc:132:execute$7"/>
    <circle cx="23" cy="10" r="3" class="cell_$auto$aigmap.cc:132:execute$7"/>
    <g s:x="0" s:y="10" s:pid="A"/>
    <g s:x="25" s:y="10" s:pid="Y"/>
  </g>
  <g s:type="inputExt" transform="translate(12,537)" s:width="30" s:height="20" id="cell_a">
    <text x="15" y="-4" class="nodelabel cell_a" s:attribute="ref">a</text>
    <s:alias val="$_inputExt_"/>
    <path d="M0,0 L0,20 L15,20 L30,10 L15,0 Z" class="cell_a"/>
    <g s:x="28" s:y="10" s:pid="Y"/>
  </g>
  <g s:type="inputExt" transform="translate(12,442)" s:width="30" s:height="20" id="cell_b">
    <text x="15" y="-4" class="nodelabel cell_b" s:attribute="ref">b</text>
    <s:alias val="$_inputExt_"/>
    <path d="M0,0 L0,20 L15,20 L30,10 L15,0 Z" class="cell_b"/>
    <g s:x="28" s:y="10" s:pid="Y"/>
  </g>
  <g s:type="outputExt" transform="translate(489,572)" s:width="30" s:height="20" id="cell_out_or_bitwise">
    <text x="15" y="-4" class="nodelabel cell_out_or_bitwise" s:attribute="ref">out_or_bitwise</text>
    <s:alias val="$_outputExt_"/>
    <path d="M30,0 L30,20 L15,20 L0,10 L15,0 Z" class="cell_out_or_bitwise"/>
    <g s:x="0" s:y="10" s:pid="A"/>
  </g>
  <g s:type="outputExt" transform="translate(489,34.5)" s:width="30" s:height="20" id="cell_out_or_logical">
    <text x="15" y="-4" class="nodelabel cell_out_or_logical" s:attribute="ref">out_or_logical</text>
    <s:alias val="$_outputExt_"/>
    <path d="M30,0 L30,20 L15,20 L0,10 L15,0 Z" class="cell_out_or_logical"/>
    <g s:x="0" s:y="10" s:pid="A"/>
  </g>
  <g s:type="outputExt" transform="translate(489,277)" s:width="30" s:height="20" id="cell_out_not">
    <text x="15" y="-4" class="nodelabel cell_out_not" s:attribute="ref">out_not</text>
    <s:alias val="$_outputExt_"/>
    <path d="M30,0 L30,20 L15,20 L0,10 L15,0 Z" class="cell_out_not"/>
    <g s:x="0" s:y="10" s:pid="A"/>
  </g>
  <g s:type="join" transform="translate(434,561.5)" s:width="4" s:height="40" id="cell_$join$,8,9,10,">
    <rect width="5" height="60" class="splitjoinBody" s:generic="body"/>
    <s:alias val="$_join_"/>
    <g s:x="5" s:y="20" s:pid="out"/>
    <g transform="translate(0,10)" s:x="0" s:y="10" s:pid="in0">
      <text x="-3" y="-4" class="inputPortLabel">0</text>
    </g>
    <g transform="translate(0,30)" s:x="0" s:y="10" s:pid="in0">
      <text x="-3" y="-4" class="inputPortLabel">1</text>
    </g>
    <g transform="translate(0,50)" s:x="0" s:y="10" s:pid="in0">
      <text x="-3" y="-4" class="inputPortLabel">2</text>
    </g>
  </g>
  <g s:type="join" transform="translate(433.4,266.5)" s:width="4" s:height="40" id="cell_$join$,12,13,14,15,16,17,">
    <rect width="5" height="120" class="splitjoinBody" s:generic="body"/>
    <s:alias val="$_join_"/>
    <g s:x="5" s:y="20" s:pid="out"/>
    <g transform="translate(0,10)" s:x="0" s:y="10" s:pid="in0">
      <text x="-3" y="-4" class="inputPortLabel">0</text>
    </g>
    <g transform="translate(0,30)" s:x="0" s:y="10" s:pid="in0">
      <text x="-3" y="-4" class="inputPortLabel">1</text>
    </g>
    <g transform="translate(0,50)" s:x="0" s:y="10" s:pid="in0">
      <text x="-3" y="-4" class="inputPortLabel">2</text>
    </g>
    <g transform="translate(0,70)" s:x="0" s:y="10" s:pid="in0">
      <text x="-3" y="-4" class="inputPortLabel">3</text>
    </g>
    <g transform="translate(0,90)" s:x="0" s:y="10" s:pid="in0">
      <text x="-3" y="-4" class="inputPortLabel">4</text>
    </g>
    <g transform="translate(0,110)" s:x="0" s:y="10" s:pid="in0">
      <text x="-3" y="-4" class="inputPortLabel">5</text>
    </g>
  </g>
  <g s:type="split" transform="translate(77,526.5)" s:width="5" s:height="40" id="cell_$split$,2,3,4,">
    <rect width="5" height="60" class="splitjoinBody" s:generic="body"/>
    <s:alias val="$_split_"/>
    <g s:x="0" s:y="20" s:pid="in"/>
    <g transform="translate(4,10)" s:x="4" s:y="10" s:pid="out0">
      <text x="5" y="-4">2</text>
    </g>
    <g transform="translate(4,30)" s:x="4" s:y="10" s:pid="out0">
      <text x="5" y="-4">0</text>
    </g>
    <g transform="translate(4,50)" s:x="4" s:y="10" s:pid="out0">
      <text x="5" y="-4">1</text>
    </g>
  </g>
  <g s:type="split" transform="translate(77,431.5)" s:width="5" s:height="40" id="cell_$split$,5,6,7,">
    <rect width="5" height="60" class="splitjoinBody" s:generic="body"/>
    <s:alias val="$_split_"/>
    <g s:x="0" s:y="20" s:pid="in"/>
    <g transform="translate(4,10)" s:x="4" s:y="10" s:pid="out0">
      <text x="5" y="-4">0</text>
    </g>
    <g transform="translate(4,30)" s:x="4" s:y="10" s:pid="out0">
      <text x="5" y="-4">1</text>
    </g>
    <g transform="translate(4,50)" s:x="4" s:y="10" s:pid="out0">
      <text x="5" y="-4">2</text>
    </g>
  </g>
  <line x1="184" x2="224" y1="22" y2="22" class="net_18"/>
  <line x1="184" x2="199" y1="77" y2="77" class="net_19"/>
  <line x1="199" x2="199" y1="77" y2="37" class="net_19"/>
  <line x1="199" x2="224" y1="37" y2="37" class="net_19"/>
  <line x1="254" x2="289" y1="29.5" y2="29.5" class="net_20"/>
  <line x1="249" x2="264" y1="97" y2="97" class="net_21"/>
  <line x1="264" x2="264" y1="97" y2="44.5" class="net_21"/>
  <line x1="264" x2="289" y1="44.5" y2="44.5" class="net_21"/>
  <line x1="254" x2="289" y1="154.5" y2="154.5" class="net_23"/>
  <line x1="249" x2="264" y1="222" y2="222" class="net_24"/>
  <line x1="264" x2="264" y1="222" y2="169.5" class="net_24"/>
  <line x1="264" x2="289" y1="169.5" y2="169.5" class="net_24"/>
  <line x1="319" x2="354" y1="37" y2="37" class="net_22"/>
  <line x1="319" x2="329" y1="162" y2="162" class="net_25"/>
  <line x1="329" x2="329" y1="162" y2="52" class="net_25"/>
  <line x1="329" x2="354" y1="52" y2="52" class="net_25"/>
  <line x1="249" x2="289" y1="564.5" y2="564.5" class="net_27"/>
  <line x1="249" x2="264" y1="619.5" y2="619.5" class="net_28"/>
  <line x1="264" x2="264" y1="619.5" y2="579.5" class="net_28"/>
  <line x1="264" x2="289" y1="579.5" y2="579.5" class="net_28"/>
  <line x1="249" x2="289" y1="674.5" y2="674.5" class="net_30"/>
  <line x1="249" x2="264" y1="729.5" y2="729.5" class="net_31"/>
  <line x1="264" x2="264" y1="729.5" y2="689.5" class="net_31"/>
  <line x1="264" x2="289" y1="689.5" y2="689.5" class="net_31"/>
  <line x1="249" x2="289" y1="784.5" y2="784.5" class="net_33"/>
  <line x1="249" x2="264" y1="839.5" y2="839.5" class="net_34"/>
  <line x1="264" x2="264" y1="839.5" y2="799.5" class="net_34"/>
  <line x1="264" x2="289" y1="799.5" y2="799.5" class="net_34"/>
  <line x1="184" x2="224" y1="147" y2="147" class="net_36"/>
  <line x1="184" x2="199" y1="202" y2="202" class="net_37"/>
  <line x1="199" x2="199" y1="202" y2="162" class="net_37"/>
  <line x1="199" x2="224" y1="162" y2="162" class="net_37"/>
  <line x1="82" x2="149" y1="537" y2="537" class="net_4"/>
  <line x1="149" x2="149" y1="537" y2="222" class="net_4"/>
  <circle cx="149" cy="537" r="2" style="fill:#000" class="net_4"/>
  <line x1="149" x2="224" y1="222" y2="222" class="net_4"/>
  <line x1="82" x2="149" y1="537" y2="537" class="net_4"/>
  <line x1="149" x2="149" y1="537" y2="352" class="net_4"/>
  <circle cx="149" cy="352" r="2" style="fill:#000" class="net_4"/>
  <line x1="149" x2="354" y1="352" y2="352" class="net_4"/>
  <line x1="82" x2="149" y1="537" y2="537" class="net_4"/>
  <line x1="149" x2="149" y1="537" y2="839.5" class="net_4"/>
  <line x1="149" x2="224" y1="839.5" y2="839.5" class="net_4"/>
  <line x1="82" x2="99" y1="442" y2="442" class="net_5"/>
  <line x1="99" x2="99" y1="442" y2="22" class="net_5"/>
  <circle cx="99" cy="442" r="2" style="fill:#000" class="net_5"/>
  <line x1="99" x2="159" y1="22" y2="22" class="net_5"/>
  <line x1="82" x2="99" y1="442" y2="442" class="net_5"/>
  <line x1="99" x2="99" y1="442" y2="407" class="net_5"/>
  <circle cx="99" cy="407" r="2" style="fill:#000" class="net_5"/>
  <line x1="99" x2="354" y1="407" y2="407" class="net_5"/>
  <line x1="82" x2="99" y1="442" y2="442" class="net_5"/>
  <line x1="99" x2="99" y1="442" y2="564.5" class="net_5"/>
  <line x1="99" x2="224" y1="564.5" y2="564.5" class="net_5"/>
  <line x1="82" x2="109" y1="462" y2="462" class="net_6"/>
  <line x1="109" x2="109" y1="462" y2="77" class="net_6"/>
  <circle cx="109" cy="462" r="2" style="fill:#000" class="net_6"/>
  <line x1="109" x2="159" y1="77" y2="77" class="net_6"/>
  <line x1="82" x2="354" y1="462" y2="462" class="net_6"/>
  <line x1="82" x2="109" y1="462" y2="462" class="net_6"/>
  <line x1="109" x2="109" y1="462" y2="674.5" class="net_6"/>
  <line x1="109" x2="224" y1="674.5" y2="674.5" class="net_6"/>
  <line x1="82" x2="119" y1="482" y2="482" class="net_7"/>
  <line x1="119" x2="119" y1="482" y2="97" class="net_7"/>
  <circle cx="119" cy="482" r="2" style="fill:#000" class="net_7"/>
  <line x1="119" x2="224" y1="97" y2="97" class="net_7"/>
  <line x1="82" x2="119" y1="482" y2="482" class="net_7"/>
  <line x1="119" x2="119" y1="482" y2="517" class="net_7"/>
  <circle cx="119" cy="517" r="2" style="fill:#000" class="net_7"/>
  <line x1="119" x2="354" y1="517" y2="517" class="net_7"/>
  <line x1="82" x2="119" y1="482" y2="482" class="net_7"/>
  <line x1="119" x2="119" y1="482" y2="784.5" class="net_7"/>
  <line x1="119" x2="224" y1="784.5" y2="784.5" class="net_7"/>
  <line x1="384" x2="424" y1="44.5" y2="44.5" class="net_26"/>
  <line x1="82" x2="139" y1="557" y2="557" class="net_2"/>
  <line x1="139" x2="139" y1="557" y2="242" class="net_2"/>
  <circle cx="139" cy="557" r="2" style="fill:#000" class="net_2"/>
  <circle cx="139" cy="242" r="2" style="fill:#000" class="net_2"/>
  <line x1="139" x2="354" y1="242" y2="242" class="net_2"/>
  <line x1="82" x2="139" y1="557" y2="557" class="net_2"/>
  <line x1="139" x2="139" y1="557" y2="619.5" class="net_2"/>
  <line x1="139" x2="224" y1="619.5" y2="619.5" class="net_2"/>
  <line x1="82" x2="139" y1="557" y2="557" class="net_2"/>
  <line x1="139" x2="139" y1="557" y2="147" class="net_2"/>
  <line x1="139" x2="159" y1="147" y2="147" class="net_2"/>
  <line x1="82" x2="129" y1="577" y2="577" class="net_3"/>
  <line x1="129" x2="129" y1="577" y2="297" class="net_3"/>
  <circle cx="129" cy="577" r="2" style="fill:#000" class="net_3"/>
  <circle cx="129" cy="297" r="2" style="fill:#000" class="net_3"/>
  <line x1="129" x2="354" y1="297" y2="297" class="net_3"/>
  <line x1="82" x2="129" y1="577" y2="577" class="net_3"/>
  <line x1="129" x2="129" y1="577" y2="729.5" class="net_3"/>
  <line x1="129" x2="224" y1="729.5" y2="729.5" class="net_3"/>
  <line x1="82" x2="129" y1="577" y2="577" class="net_3"/>
  <line x1="129" x2="129" y1="577" y2="202" class="net_3"/>
  <line x1="129" x2="159" y1="202" y2="202" class="net_3"/>
  <line x1="319" x2="354" y1="572" y2="572" class="net_29"/>
  <line x1="319" x2="354" y1="682" y2="682" class="net_32"/>
  <line x1="319" x2="354" y1="792" y2="792" class="net_35"/>
  <line x1="440" x2="489" y1="582" y2="582" class="net_8,9,10"/>
  <line x1="449" x2="489" y1="44.5" y2="44.5" class="net_11"/>
  <line x1="439.4" x2="489" y1="287" y2="287" class="net_12,13,14,15,16,17"/>
  <line x1="379" x2="434" y1="572" y2="572" class="net_8"/>
  <line x1="379" x2="394" y1="682" y2="682" class="net_9"/>
  <line x1="394" x2="394" y1="682" y2="592" class="net_9"/>
  <line x1="394" x2="434" y1="592" y2="592" class="net_9"/>
  <line x1="379" x2="404" y1="792" y2="792" class="net_10"/>
  <line x1="404" x2="404" y1="792" y2="612" class="net_10"/>
  <line x1="404" x2="434" y1="612" y2="612" class="net_10"/>
  <line x1="379" x2="433.9" y1="242" y2="242" class="net_12"/>
  <line x1="433.9" x2="433.9" y1="242" y2="276.5" class="net_12"/>
  <line x1="379" x2="433.4" y1="297" y2="297" class="net_13"/>
  <line x1="379" x2="394" y1="352" y2="352" class="net_14"/>
  <line x1="394" x2="394" y1="352" y2="317" class="net_14"/>
  <line x1="394" x2="433.4" y1="317" y2="317" class="net_14"/>
  <line x1="379" x2="404" y1="407" y2="407" class="net_15"/>
  <line x1="404" x2="404" y1="407" y2="337" class="net_15"/>
  <line x1="404" x2="433.4" y1="337" y2="337" class="net_15"/>
  <line x1="379" x2="414" y1="462" y2="462" class="net_16"/>
  <line x1="414" x2="414" y1="462" y2="357" class="net_16"/>
  <line x1="414" x2="433.4" y1="357" y2="357" class="net_16"/>
  <line x1="379" x2="433.9" y1="517" y2="517" class="net_17"/>
  <line x1="433.9" x2="433.9" y1="517" y2="377.5" class="net_17"/>
  <line x1="40" x2="77" y1="547" y2="547" class="net_2,3,4"/>
  <line x1="40" x2="77" y1="452" y2="452" class="net_5,6,7"/>
</svg>
