<?xml version="1.0" encoding="UTF-8" standalone="no"?>
<!DOCTYPE svg PUBLIC "-//W3C//DTD SVG 1.1//EN"
 "http://www.w3.org/Graphics/SVG/1.1/DTD/svg11.dtd">
<!-- Generated by graphviz version 4.0.0 (20220529.0937)
 -->
<!-- Title: top_module Pages: 1 -->
<svg width="599pt" height="239pt"
 viewBox="0.00 0.00 599.11 238.76" xmlns="http://www.w3.org/2000/svg" xmlns:xlink="http://www.w3.org/1999/xlink">
<g id="graph0" class="graph" transform="scale(1 1) rotate(0) translate(4 234.76)">
<title>top_module</title>
<polygon fill="white" stroke="transparent" points="-4,4 -4,-234.76 595.11,-234.76 595.11,4 -4,4"/>
<text text-anchor="middle" x="295.55" y="-7.8" font-family="Times New Roman,serif" font-size="14.00">top_module</text>
<!-- n1 -->
<g id="node1" class="node">
<title>n1</title>
<polygon fill="none" stroke="black" points="54,-132.81 54,-147.72 38.18,-158.26 15.82,-158.26 0,-147.72 0,-132.81 15.82,-122.26 38.18,-122.26 54,-132.81"/>
<text text-anchor="middle" x="27" y="-136.56" font-family="Times New Roman,serif" font-size="14.00">a</text>
</g>
<!-- c9 -->
<g id="node6" class="node">
<title>c9</title>
<polygon fill="none" stroke="black" points="114,-98.26 114,-144.26 236,-144.26 236,-98.26 114,-98.26"/>
<text text-anchor="middle" x="127" y="-129.06" font-family="Times New Roman,serif" font-size="14.00">A</text>
<polyline fill="none" stroke="black" points="114,-121.26 140,-121.26 "/>
<text text-anchor="middle" x="127" y="-106.06" font-family="Times New Roman,serif" font-size="14.00">B</text>
<polyline fill="none" stroke="black" points="140,-98.26 140,-144.26 "/>
<text text-anchor="middle" x="175" y="-125.06" font-family="Times New Roman,serif" font-size="14.00">$2</text>
<text text-anchor="middle" x="175" y="-110.06" font-family="Times New Roman,serif" font-size="14.00">$logic_or</text>
<polyline fill="none" stroke="black" points="210,-98.26 210,-144.26 "/>
<text text-anchor="middle" x="223" y="-117.56" font-family="Times New Roman,serif" font-size="14.00">Y</text>
</g>
<!-- n1&#45;&gt;c9 -->
<g id="edge3" class="edge">
<title>n1:e&#45;&gt;c9:w</title>
<path fill="none" stroke="#1b9e77" stroke-width="3" d="M54,-140.26C77.07,-140.26 84.97,-135.09 103.78,-133.64"/>
<polygon fill="#1b9e77" stroke="#1b9e77" stroke-width="3" points="104.14,-137.13 114,-133.26 103.88,-130.13 104.14,-137.13"/>
<text text-anchor="middle" x="84" y="-142.06" font-family="Times New Roman,serif" font-size="14.00" fill="#1b9e77">&lt;3&gt;</text>
</g>
<!-- x0 -->
<g id="node8" class="node">
<title>x0</title>
<path fill="none" stroke="black" d="M156,-184.26C156,-184.26 194,-184.26 194,-184.26 200,-184.26 206,-190.26 206,-196.26 206,-196.26 206,-218.26 206,-218.26 206,-224.26 200,-230.26 194,-230.26 194,-230.26 156,-230.26 156,-230.26 150,-230.26 144,-224.26 144,-218.26 144,-218.26 144,-196.26 144,-196.26 144,-190.26 150,-184.26 156,-184.26"/>
<text text-anchor="middle" x="175" y="-215.06" font-family="Times New Roman,serif" font-size="14.00">2:0 &#45; 5:3</text>
<polyline fill="none" stroke="black" points="144,-207.26 206,-207.26 "/>
<text text-anchor="middle" x="175" y="-192.06" font-family="Times New Roman,serif" font-size="14.00">2:0 &#45; 2:0</text>
</g>
<!-- n1&#45;&gt;x0 -->
<g id="edge4" class="edge">
<title>n1:e&#45;&gt;x0:w</title>
<path fill="none" stroke="#1b9e77" stroke-width="3" d="M54,-140.26C79.3,-140.26 51.58,-179.32 72,-194.26 94.59,-210.78 108.13,-198.79 132.91,-195.86"/>
<polygon fill="#1b9e77" stroke="#1b9e77" stroke-width="3" points="133.23,-199.35 143,-195.26 132.81,-192.36 133.23,-199.35"/>
<text text-anchor="middle" x="84" y="-206.06" font-family="Times New Roman,serif" font-size="14.00" fill="#1b9e77">&lt;3&gt;</text>
</g>
<!-- c11 -->
<g id="node9" class="node">
<title>c11</title>
<polygon fill="none" stroke="black" points="131.5,-27.26 131.5,-73.26 218.5,-73.26 218.5,-27.26 131.5,-27.26"/>
<text text-anchor="middle" x="144.5" y="-58.06" font-family="Times New Roman,serif" font-size="14.00">A</text>
<polyline fill="none" stroke="black" points="131.5,-50.26 157.5,-50.26 "/>
<text text-anchor="middle" x="144.5" y="-35.06" font-family="Times New Roman,serif" font-size="14.00">B</text>
<polyline fill="none" stroke="black" points="157.5,-27.26 157.5,-73.26 "/>
<text text-anchor="middle" x="175" y="-54.06" font-family="Times New Roman,serif" font-size="14.00">$1</text>
<text text-anchor="middle" x="175" y="-39.06" font-family="Times New Roman,serif" font-size="14.00">$or</text>
<polyline fill="none" stroke="black" points="192.5,-27.26 192.5,-73.26 "/>
<text text-anchor="middle" x="205.5" y="-46.56" font-family="Times New Roman,serif" font-size="14.00">Y</text>
</g>
<!-- n1&#45;&gt;c11 -->
<g id="edge2" class="edge">
<title>n1:e&#45;&gt;c11:w</title>
<path fill="none" stroke="#1b9e77" stroke-width="3" d="M54,-140.26C67.69,-140.26 62.9,-125.49 72,-115.26 81.61,-104.46 103.11,-75.2 120.13,-65.46"/>
<polygon fill="#1b9e77" stroke="#1b9e77" stroke-width="3" points="121.57,-68.67 130,-62.26 119.41,-62.02 121.57,-68.67"/>
<text text-anchor="middle" x="84" y="-119.06" font-family="Times New Roman,serif" font-size="14.00" fill="#1b9e77">&lt;3&gt;</text>
</g>
<!-- n2 -->
<g id="node2" class="node">
<title>n2</title>
<polygon fill="none" stroke="black" points="54,-56.81 54,-71.72 38.18,-82.26 15.82,-82.26 0,-71.72 0,-56.81 15.82,-46.26 38.18,-46.26 54,-56.81"/>
<text text-anchor="middle" x="27" y="-60.56" font-family="Times New Roman,serif" font-size="14.00">b</text>
</g>
<!-- n2&#45;&gt;c9 -->
<g id="edge6" class="edge">
<title>n2:e&#45;&gt;c9:w</title>
<path fill="none" stroke="#1b9e77" stroke-width="3" d="M54,-64.26C72.67,-64.26 80.62,-54.67 96,-65.26 109.32,-74.44 100.41,-95.35 104.98,-104.66"/>
<polygon fill="#1b9e77" stroke="#1b9e77" stroke-width="3" points="103.5,-107.83 114,-109.26 106.69,-101.59 103.5,-107.83"/>
<text text-anchor="middle" x="84" y="-69.06" font-family="Times New Roman,serif" font-size="14.00" fill="#1b9e77">&lt;3&gt;</text>
</g>
<!-- n2&#45;&gt;x0 -->
<g id="edge7" class="edge">
<title>n2:e&#45;&gt;x0:w</title>
<path fill="none" stroke="#1b9e77" stroke-width="3" d="M54,-64.26C74.83,-64.26 61.16,-138.47 72,-156.26 79.08,-167.88 85.69,-166.38 96,-175.26 114.63,-191.31 114.82,-212.27 132.66,-217.85"/>
<polygon fill="#1b9e77" stroke="#1b9e77" stroke-width="3" points="132.62,-221.37 143,-219.26 133.57,-214.44 132.62,-221.37"/>
<text text-anchor="middle" x="84" y="-179.06" font-family="Times New Roman,serif" font-size="14.00" fill="#1b9e77">&lt;3&gt;</text>
</g>
<!-- n2&#45;&gt;c11 -->
<g id="edge5" class="edge">
<title>n2:e&#45;&gt;c11:w</title>
<path fill="none" stroke="#1b9e77" stroke-width="3" d="M54,-64.26C72.29,-64.26 56.5,-36.96 72,-27.26 91.12,-15.3 100.83,-32.02 119.84,-36.96"/>
<polygon fill="#1b9e77" stroke="#1b9e77" stroke-width="3" points="119.64,-40.46 130,-38.26 120.53,-33.52 119.64,-40.46"/>
<text text-anchor="middle" x="84" y="-31.06" font-family="Times New Roman,serif" font-size="14.00" fill="#1b9e77">&lt;3&gt;</text>
</g>
<!-- n3 -->
<g id="node3" class="node">
<title>n3</title>
<polygon fill="none" stroke="black" points="562.47,-199.81 562.47,-214.72 537.62,-225.26 502.48,-225.26 477.63,-214.72 477.63,-199.81 502.48,-189.26 537.62,-189.26 562.47,-199.81"/>
<text text-anchor="middle" x="520.05" y="-203.56" font-family="Times New Roman,serif" font-size="14.00">out_not</text>
</g>
<!-- n4 -->
<g id="node4" class="node">
<title>n4</title>
<polygon fill="none" stroke="black" points="591.16,-42.81 591.16,-57.72 549.51,-68.26 490.6,-68.26 448.95,-57.72 448.95,-42.81 490.6,-32.26 549.51,-32.26 591.16,-42.81"/>
<text text-anchor="middle" x="520.05" y="-46.56" font-family="Times New Roman,serif" font-size="14.00">out_or_bitwise</text>
</g>
<!-- n5 -->
<g id="node5" class="node">
<title>n5</title>
<polygon fill="none" stroke="black" points="588.94,-113.81 588.94,-128.72 548.59,-139.26 491.52,-139.26 451.17,-128.72 451.17,-113.81 491.52,-103.26 548.59,-103.26 588.94,-113.81"/>
<text text-anchor="middle" x="520.05" y="-117.56" font-family="Times New Roman,serif" font-size="14.00">out_or_logical</text>
</g>
<!-- c9&#45;&gt;n5 -->
<g id="edge10" class="edge">
<title>c9:e&#45;&gt;n5:w</title>
<path fill="none" stroke="#e7298a" d="M236,-121.26C327.7,-121.26 353.11,-121.26 440.01,-121.26"/>
<polygon fill="#e7298a" stroke="#e7298a" points="440.05,-124.76 450.05,-121.26 440.05,-117.76 440.05,-124.76"/>
</g>
<!-- c10 -->
<g id="node7" class="node">
<title>c10</title>
<polygon fill="none" stroke="black" points="296,-188.26 296,-226.26 389,-226.26 389,-188.26 296,-188.26"/>
<text text-anchor="middle" x="309" y="-203.56" font-family="Times New Roman,serif" font-size="14.00">A</text>
<polyline fill="none" stroke="black" points="322,-188.26 322,-226.26 "/>
<text text-anchor="middle" x="342.5" y="-211.06" font-family="Times New Roman,serif" font-size="14.00">$3</text>
<text text-anchor="middle" x="342.5" y="-196.06" font-family="Times New Roman,serif" font-size="14.00">$not</text>
<polyline fill="none" stroke="black" points="363,-188.26 363,-226.26 "/>
<text text-anchor="middle" x="376" y="-203.56" font-family="Times New Roman,serif" font-size="14.00">Y</text>
</g>
<!-- c10&#45;&gt;n3 -->
<g id="edge8" class="edge">
<title>c10:e&#45;&gt;n3:w</title>
<path fill="none" stroke="#7570b3" stroke-width="3" d="M389,-207.26C424.06,-207.26 435.29,-207.26 465.89,-207.26"/>
<polygon fill="#7570b3" stroke="#7570b3" stroke-width="3" points="466.05,-210.76 476.05,-207.26 466.05,-203.76 466.05,-210.76"/>
<text text-anchor="middle" x="419" y="-211.06" font-family="Times New Roman,serif" font-size="14.00" fill="#7570b3">&lt;6&gt;</text>
</g>
<!-- x0&#45;&gt;c10 -->
<g id="edge1" class="edge">
<title>x0:e&#45;&gt;c10:w</title>
<path fill="none" stroke="#66a61e" stroke-width="3" d="M219.39,-207.26C245.45,-207.26 257.71,-207.26 283.86,-207.26"/>
<polygon fill="none" stroke="#66a61e" stroke-width="3" points="219,-207.26 213,-211.26 207,-207.26 213,-203.26 219,-207.26"/>
<polygon fill="none" stroke="#66a61e" stroke-width="3" points="284,-207.26 290,-203.26 296,-207.26 290,-211.26 284,-207.26"/>
<text text-anchor="middle" x="266" y="-211.06" font-family="Times New Roman,serif" font-size="14.00" fill="#66a61e">&lt;6&gt;</text>
</g>
<!-- c11&#45;&gt;n4 -->
<g id="edge9" class="edge">
<title>c11:e&#45;&gt;n4:w</title>
<path fill="none" stroke="#e7298a" stroke-width="3" d="M220,-50.26C318.3,-50.26 345.39,-50.26 438.83,-50.26"/>
<polygon fill="#e7298a" stroke="#e7298a" stroke-width="3" points="439,-53.76 449,-50.26 439,-46.76 439,-53.76"/>
<text text-anchor="middle" x="342.5" y="-54.06" font-family="Times New Roman,serif" font-size="14.00" fill="#e7298a">&lt;3&gt;</text>
</g>
</g>
</svg>
