<?xml version="1.0" encoding="UTF-8" standalone="no"?>
<!DOCTYPE svg PUBLIC "-//W3C//DTD SVG 1.1//EN"
 "http://www.w3.org/Graphics/SVG/1.1/DTD/svg11.dtd">
<!-- Generated by graphviz version 4.0.0 (20220529.0937)
 -->
<!-- Title: count4 Pages: 1 -->
<svg width="895pt" height="323pt"
 viewBox="0.00 0.00 895.11 322.92" xmlns="http://www.w3.org/2000/svg" xmlns:xlink="http://www.w3.org/1999/xlink">
<g id="graph0" class="graph" transform="scale(1 1) rotate(0) translate(4 318.92)">
<title>count4</title>
<polygon fill="white" stroke="transparent" points="-4,4 -4,-318.92 891.11,-318.92 891.11,4 -4,4"/>
<text text-anchor="middle" x="443.56" y="-7.8" font-family="Times New Roman,serif" font-size="14.00">count4</text>
<!-- n5 -->
<g id="node1" class="node">
<title>n5</title>
<polygon fill="none" stroke="black" points="63.58,-141.54 63.58,-156.46 47.77,-167 25.4,-167 9.58,-156.46 9.58,-141.54 25.4,-131 47.77,-131 63.58,-141.54"/>
<text text-anchor="middle" x="36.58" y="-145.3" font-family="Times New Roman,serif" font-size="14.00">clk</text>
</g>
<!-- c15 -->
<g id="node8" class="node">
<title>c15</title>
<polygon fill="none" stroke="black" points="656.16,-114 656.16,-160 767.16,-160 767.16,-114 656.16,-114"/>
<text text-anchor="middle" x="678.16" y="-144.8" font-family="Times New Roman,serif" font-size="14.00">CLK</text>
<polyline fill="none" stroke="black" points="656.16,-137 700.16,-137 "/>
<text text-anchor="middle" x="678.16" y="-121.8" font-family="Times New Roman,serif" font-size="14.00">D</text>
<polyline fill="none" stroke="black" points="700.16,-114 700.16,-160 "/>
<text text-anchor="middle" x="720.16" y="-140.8" font-family="Times New Roman,serif" font-size="14.00">$13</text>
<text text-anchor="middle" x="720.16" y="-125.8" font-family="Times New Roman,serif" font-size="14.00">$dff</text>
<polyline fill="none" stroke="black" points="740.16,-114 740.16,-160 "/>
<text text-anchor="middle" x="753.66" y="-133.3" font-family="Times New Roman,serif" font-size="14.00">Q</text>
</g>
<!-- n5&#45;&gt;c15 -->
<g id="edge3" class="edge">
<title>n5:e&#45;&gt;c15:w</title>
<path fill="none" stroke="#e7298a" d="M64.58,-149C108.4,-149 119.35,-149 163.16,-149 163.16,-149 163.16,-149 547.66,-149 592.31,-149 605.95,-149 645.99,-149"/>
<polygon fill="#e7298a" stroke="#e7298a" points="646.16,-152.5 656.16,-149 646.16,-145.5 646.16,-152.5"/>
</g>
<!-- n6 -->
<g id="node2" class="node">
<title>n6</title>
<polygon fill="none" stroke="black" points="63.58,-87.54 63.58,-102.46 47.77,-113 25.4,-113 9.58,-102.46 9.58,-87.54 25.4,-77 47.77,-77 63.58,-87.54"/>
<text text-anchor="middle" x="36.58" y="-91.3" font-family="Times New Roman,serif" font-size="14.00">d</text>
</g>
<!-- c17 -->
<g id="node9" class="node">
<title>c17</title>
<polygon fill="none" stroke="black" points="497.16,-62.5 497.16,-131.5 596.16,-131.5 596.16,-62.5 497.16,-62.5"/>
<text text-anchor="middle" x="510.16" y="-116.3" font-family="Times New Roman,serif" font-size="14.00">A</text>
<polyline fill="none" stroke="black" points="497.16,-108.5 523.16,-108.5 "/>
<text text-anchor="middle" x="510.16" y="-93.3" font-family="Times New Roman,serif" font-size="14.00">B</text>
<polyline fill="none" stroke="black" points="497.16,-85.5 523.16,-85.5 "/>
<text text-anchor="middle" x="510.16" y="-70.3" font-family="Times New Roman,serif" font-size="14.00">S</text>
<polyline fill="none" stroke="black" points="523.16,-62.5 523.16,-131.5 "/>
<text text-anchor="middle" x="546.66" y="-100.8" font-family="Times New Roman,serif" font-size="14.00">$11</text>
<text text-anchor="middle" x="546.66" y="-85.8" font-family="Times New Roman,serif" font-size="14.00">$mux</text>
<polyline fill="none" stroke="black" points="570.16,-62.5 570.16,-131.5 "/>
<text text-anchor="middle" x="583.16" y="-93.3" font-family="Times New Roman,serif" font-size="14.00">Y</text>
</g>
<!-- n6&#45;&gt;c17 -->
<g id="edge4" class="edge">
<title>n6:e&#45;&gt;c17:w</title>
<path fill="none" stroke="#e7298a" stroke-width="3" d="M64.58,-95C108.4,-95 119.35,-95 163.16,-95 163.16,-95 163.16,-95 388.66,-95 433.31,-95 446.95,-96.71 486.99,-96.97"/>
<polygon fill="#e7298a" stroke="#e7298a" stroke-width="3" points="487.15,-100.47 497.16,-97 487.17,-93.47 487.15,-100.47"/>
<text text-anchor="middle" x="230.16" y="-98.8" font-family="Times New Roman,serif" font-size="14.00" fill="#e7298a">&lt;4&gt;</text>
</g>
<!-- n7 -->
<g id="node3" class="node">
<title>n7</title>
<polygon fill="none" stroke="black" points="73.25,-195.54 73.25,-210.46 51.77,-221 21.4,-221 -0.08,-210.46 -0.08,-195.54 21.4,-185 51.77,-185 73.25,-195.54"/>
<text text-anchor="middle" x="36.58" y="-199.3" font-family="Times New Roman,serif" font-size="14.00">enable</text>
</g>
<!-- c18 -->
<g id="node7" class="node">
<title>c18</title>
<polygon fill="none" stroke="black" points="338.16,-188.5 338.16,-257.5 437.16,-257.5 437.16,-188.5 338.16,-188.5"/>
<text text-anchor="middle" x="351.16" y="-242.3" font-family="Times New Roman,serif" font-size="14.00">A</text>
<polyline fill="none" stroke="black" points="338.16,-234.5 364.16,-234.5 "/>
<text text-anchor="middle" x="351.16" y="-219.3" font-family="Times New Roman,serif" font-size="14.00">B</text>
<polyline fill="none" stroke="black" points="338.16,-211.5 364.16,-211.5 "/>
<text text-anchor="middle" x="351.16" y="-196.3" font-family="Times New Roman,serif" font-size="14.00">S</text>
<polyline fill="none" stroke="black" points="364.16,-188.5 364.16,-257.5 "/>
<text text-anchor="middle" x="387.66" y="-226.8" font-family="Times New Roman,serif" font-size="14.00">$8</text>
<text text-anchor="middle" x="387.66" y="-211.8" font-family="Times New Roman,serif" font-size="14.00">$mux</text>
<polyline fill="none" stroke="black" points="411.16,-188.5 411.16,-257.5 "/>
<text text-anchor="middle" x="424.16" y="-219.3" font-family="Times New Roman,serif" font-size="14.00">Y</text>
</g>
<!-- n7&#45;&gt;c18 -->
<g id="edge5" class="edge">
<title>n7:e&#45;&gt;c18:w</title>
<path fill="none" stroke="#7570b3" d="M73.16,-203C187.5,-203 218.58,-200.17 328.03,-200.01"/>
<polygon fill="#7570b3" stroke="#7570b3" points="328.17,-203.51 338.16,-200 328.16,-196.51 328.17,-203.51"/>
</g>
<!-- n8 -->
<g id="node4" class="node">
<title>n8</title>
<polygon fill="none" stroke="black" points="65.27,-33.54 65.27,-48.46 48.46,-59 24.7,-59 7.89,-48.46 7.89,-33.54 24.7,-23 48.46,-23 65.27,-33.54"/>
<text text-anchor="middle" x="36.58" y="-37.3" font-family="Times New Roman,serif" font-size="14.00">load</text>
</g>
<!-- n8&#45;&gt;c17 -->
<g id="edge6" class="edge">
<title>n8:e&#45;&gt;c17:w</title>
<path fill="none" stroke="#d95f02" d="M66.58,-41C109.51,-41 120.24,-41 163.16,-41 163.16,-41 163.16,-41 388.66,-41 435.52,-41 445.47,-69.52 487.14,-73.53"/>
<polygon fill="#d95f02" stroke="#d95f02" points="487.01,-77.03 497.16,-74 487.34,-70.04 487.01,-77.03"/>
</g>
<!-- n4 -->
<g id="node5" class="node">
<title>n4</title>
<polygon fill="none" stroke="black" points="881.16,-238.54 881.16,-253.46 865.35,-264 842.98,-264 827.16,-253.46 827.16,-238.54 842.98,-228 865.35,-228 881.16,-238.54"/>
<text text-anchor="middle" x="854.16" y="-242.3" font-family="Times New Roman,serif" font-size="14.00">Q</text>
</g>
<!-- c12 -->
<g id="node6" class="node">
<title>c12</title>
<polygon fill="none" stroke="black" points="182.16,-240 182.16,-286 278.16,-286 278.16,-240 182.16,-240"/>
<text text-anchor="middle" x="195.16" y="-270.8" font-family="Times New Roman,serif" font-size="14.00">A</text>
<polyline fill="none" stroke="black" points="182.16,-263 208.16,-263 "/>
<text text-anchor="middle" x="195.16" y="-247.8" font-family="Times New Roman,serif" font-size="14.00">B</text>
<polyline fill="none" stroke="black" points="208.16,-240 208.16,-286 "/>
<text text-anchor="middle" x="230.16" y="-266.8" font-family="Times New Roman,serif" font-size="14.00">$6</text>
<text text-anchor="middle" x="230.16" y="-251.8" font-family="Times New Roman,serif" font-size="14.00">$add</text>
<polyline fill="none" stroke="black" points="252.16,-240 252.16,-286 "/>
<text text-anchor="middle" x="265.16" y="-259.3" font-family="Times New Roman,serif" font-size="14.00">Y</text>
</g>
<!-- n4&#45;&gt;c12 -->
<g id="edge1" class="edge">
<title>n4:e&#45;&gt;c12:w</title>
<path fill="none" stroke="#7570b3" stroke-width="3" d="M882.16,-246C890.18,-246 886.55,-258.07 881.16,-264 830.26,-320.04 788.37,-289 712.66,-289 386.66,-289 386.66,-289 386.66,-289 295.77,-289 248.79,-348.33 182.16,-286.5 181.69,-286.06 181.24,-285.56 180.83,-285"/>
<polygon fill="#7570b3" stroke="#7570b3" stroke-width="3" points="184.33,-285.11 181.16,-275 177.33,-284.88 184.33,-285.11"/>
<text text-anchor="middle" x="546.66" y="-292.8" font-family="Times New Roman,serif" font-size="14.00" fill="#7570b3">&lt;4&gt;</text>
</g>
<!-- n4&#45;&gt;c18 -->
<g id="edge2" class="edge">
<title>n4:e&#45;&gt;c18:w</title>
<path fill="none" stroke="#7570b3" stroke-width="3" d="M882.16,-246C890.18,-246 886.98,-258.49 881.16,-264 863.73,-280.49 851.16,-264.25 827.16,-264 743.15,-263.11 722.17,-261.17 638.16,-260 636.08,-259.97 339.19,-259.42 337.66,-258 337.05,-257.43 336.47,-256.75 335.96,-256"/>
<polygon fill="#7570b3" stroke="#7570b3" stroke-width="3" points="339.45,-256.22 336.66,-246 332.47,-255.73 339.45,-256.22"/>
<text text-anchor="middle" x="626.16" y="-263.8" font-family="Times New Roman,serif" font-size="14.00" fill="#7570b3">&lt;4&gt;</text>
</g>
<!-- c12&#45;&gt;c18 -->
<g id="edge8" class="edge">
<title>c12:e&#45;&gt;c18:w</title>
<path fill="none" stroke="#1b9e77" stroke-width="3" d="M278.16,-263C306.46,-263 306.58,-231.83 328.27,-224.52"/>
<polygon fill="#1b9e77" stroke="#1b9e77" stroke-width="3" points="328.81,-227.98 338.16,-223 327.75,-221.06 328.81,-227.98"/>
<text text-anchor="middle" x="308.16" y="-260.8" font-family="Times New Roman,serif" font-size="14.00" fill="#1b9e77">&lt;4&gt;</text>
</g>
<!-- c18&#45;&gt;c17 -->
<g id="edge11" class="edge">
<title>c18:e&#45;&gt;c17:w</title>
<path fill="none" stroke="#1b9e77" stroke-width="3" d="M437.16,-223C486.21,-223 450.46,-134.72 486.92,-121.62"/>
<polygon fill="#1b9e77" stroke="#1b9e77" stroke-width="3" points="487.83,-125.02 497.16,-120 486.74,-118.1 487.83,-125.02"/>
<text text-anchor="middle" x="467.16" y="-219.8" font-family="Times New Roman,serif" font-size="14.00" fill="#1b9e77">&lt;4&gt;</text>
</g>
<!-- c15&#45;&gt;n4 -->
<g id="edge9" class="edge">
<title>c15:e&#45;&gt;n4:w</title>
<path fill="none" stroke="#7570b3" stroke-width="3" d="M767.16,-137C772.94,-137 806.16,-213.17 820.94,-238.16"/>
<polygon fill="#7570b3" stroke="#7570b3" stroke-width="3" points="818.2,-240.35 827.16,-246 823.68,-235.99 818.2,-240.35"/>
<text text-anchor="middle" x="797.16" y="-217.8" font-family="Times New Roman,serif" font-size="14.00" fill="#7570b3">&lt;4&gt;</text>
</g>
<!-- c17&#45;&gt;c15 -->
<g id="edge10" class="edge">
<title>c17:e&#45;&gt;c15:w</title>
<path fill="none" stroke="#66a61e" stroke-width="3" d="M596.16,-97C608.12,-97 630.54,-115.48 646.42,-122.42"/>
<polygon fill="#66a61e" stroke="#66a61e" stroke-width="3" points="645.6,-125.82 656.16,-125 647.4,-119.05 645.6,-125.82"/>
<text text-anchor="middle" x="626.16" y="-121.8" font-family="Times New Roman,serif" font-size="14.00" fill="#66a61e">&lt;4&gt;</text>
</g>
<!-- v0 -->
<g id="node10" class="node">
<title>v0</title>
<ellipse fill="none" stroke="black" cx="118.16" cy="-251" rx="27" ry="18"/>
<text text-anchor="middle" x="118.16" y="-247.3" font-family="Times New Roman,serif" font-size="14.00">1&#39;1</text>
</g>
<!-- v0&#45;&gt;c12 -->
<g id="edge7" class="edge">
<title>v0:e&#45;&gt;c12:w</title>
<path fill="none" stroke="#1b9e77" d="M145.16,-251C157.63,-251 163,-251 172.04,-251"/>
<polygon fill="#1b9e77" stroke="#1b9e77" points="172.16,-254.5 182.16,-251 172.16,-247.5 172.16,-254.5"/>
</g>
</g>
</svg>
