<?xml version="1.0" encoding="UTF-8" standalone="no"?>
<!DOCTYPE svg PUBLIC "-//W3C//DTD SVG 1.1//EN"
 "http://www.w3.org/Graphics/SVG/1.1/DTD/svg11.dtd">
<!-- Generated by graphviz version 4.0.0 (20220529.0937)
 -->
<!-- Title: top_module Pages: 1 -->
<svg width="1482pt" height="416pt"
 viewBox="0.00 0.00 1482.07 416.00" xmlns="http://www.w3.org/2000/svg" xmlns:xlink="http://www.w3.org/1999/xlink">
<g id="graph0" class="graph" transform="scale(1 1) rotate(0) translate(4 412)">
<title>top_module</title>
<polygon fill="white" stroke="transparent" points="-4,4 -4,-412 1478.07,-412 1478.07,4 -4,4"/>
<text text-anchor="middle" x="737.04" y="-7.8" font-family="Times New Roman,serif" font-size="14.00">top_module</text>
<!-- n7 -->
<g id="node1" class="node">
<title>n7</title>
<polygon fill="none" stroke="black" points="63.58,-315.54 63.58,-330.46 47.77,-341 25.4,-341 9.58,-330.46 9.58,-315.54 25.4,-305 47.77,-305 63.58,-315.54"/>
<text text-anchor="middle" x="36.58" y="-319.3" font-family="Times New Roman,serif" font-size="14.00">clk</text>
</g>
<!-- c21 -->
<g id="node11" class="node">
<title>c21</title>
<polygon fill="none" stroke="black" points="1159.21,-197 1159.21,-289 1321.21,-289 1321.21,-197 1159.21,-197"/>
<text text-anchor="middle" x="1185.21" y="-273.8" font-family="Times New Roman,serif" font-size="14.00">clk</text>
<polyline fill="none" stroke="black" points="1159.21,-266 1211.21,-266 "/>
<text text-anchor="middle" x="1185.21" y="-250.8" font-family="Times New Roman,serif" font-size="14.00">d</text>
<polyline fill="none" stroke="black" points="1159.21,-243 1211.21,-243 "/>
<text text-anchor="middle" x="1185.21" y="-227.8" font-family="Times New Roman,serif" font-size="14.00">enable</text>
<polyline fill="none" stroke="black" points="1159.21,-220 1211.21,-220 "/>
<text text-anchor="middle" x="1185.21" y="-204.8" font-family="Times New Roman,serif" font-size="14.00">load</text>
<polyline fill="none" stroke="black" points="1211.21,-197 1211.21,-289 "/>
<text text-anchor="middle" x="1252.71" y="-246.8" font-family="Times New Roman,serif" font-size="14.00">the_counter</text>
<text text-anchor="middle" x="1252.71" y="-231.8" font-family="Times New Roman,serif" font-size="14.00">count4</text>
<polyline fill="none" stroke="black" points="1294.21,-197 1294.21,-289 "/>
<text text-anchor="middle" x="1307.71" y="-239.3" font-family="Times New Roman,serif" font-size="14.00">Q</text>
</g>
<!-- n7&#45;&gt;c21 -->
<g id="edge4" class="edge">
<title>n7:e&#45;&gt;c21:w</title>
<path fill="none" stroke="#666666" d="M64.58,-323C126.57,-323 142.07,-323 204.06,-323 204.06,-323 204.06,-323 629.74,-323 657.48,-323 1074.34,-283.28 1149.2,-278.47"/>
<polygon fill="#666666" stroke="#666666" points="1149.39,-281.97 1159.21,-278 1149.06,-274.98 1149.39,-281.97"/>
</g>
<!-- n11 -->
<g id="node2" class="node">
<title>n11</title>
<polygon fill="none" stroke="black" points="73.25,-132.54 73.25,-147.46 51.77,-158 21.4,-158 -0.08,-147.46 -0.08,-132.54 21.4,-122 51.77,-122 73.25,-132.54"/>
<text text-anchor="middle" x="36.58" y="-136.3" font-family="Times New Roman,serif" font-size="14.00">enable</text>
</g>
<!-- n11&#45;&gt;c21 -->
<g id="edge8" class="edge">
<title>n11:e&#45;&gt;c21:w</title>
<path fill="none" stroke="#e6ab02" d="M73.16,-140C87.22,-140 80.1,-157.33 91.16,-166 133.43,-199.11 150.37,-209 204.06,-209 204.06,-209 204.06,-209 1017.49,-209 1077.74,-209 1093.76,-228.66 1149.18,-230.81"/>
<polygon fill="#e6ab02" stroke="#e6ab02" points="1149.15,-234.31 1159.21,-231 1149.28,-227.31 1149.15,-234.31"/>
</g>
<!-- c16 -->
<g id="node15" class="node">
<title>c16</title>
<polygon fill="none" stroke="black" points="580.74,-121 580.74,-167 676.74,-167 676.74,-121 580.74,-121"/>
<text text-anchor="middle" x="593.74" y="-151.8" font-family="Times New Roman,serif" font-size="14.00">A</text>
<polyline fill="none" stroke="black" points="580.74,-144 606.74,-144 "/>
<text text-anchor="middle" x="593.74" y="-128.8" font-family="Times New Roman,serif" font-size="14.00">B</text>
<polyline fill="none" stroke="black" points="606.74,-121 606.74,-167 "/>
<text text-anchor="middle" x="628.74" y="-147.8" font-family="Times New Roman,serif" font-size="14.00">$2</text>
<text text-anchor="middle" x="628.74" y="-132.8" font-family="Times New Roman,serif" font-size="14.00">$and</text>
<polyline fill="none" stroke="black" points="650.74,-121 650.74,-167 "/>
<text text-anchor="middle" x="663.74" y="-140.3" font-family="Times New Roman,serif" font-size="14.00">Y</text>
</g>
<!-- n11&#45;&gt;c16 -->
<g id="edge7" class="edge">
<title>n11:e&#45;&gt;c16:w</title>
<path fill="none" stroke="#e6ab02" d="M73.16,-140C81.21,-140 83.13,-138.54 91.16,-138 129.71,-135.42 139.43,-136.64 178.06,-136 353.17,-133.11 399.46,-132.04 569.69,-132"/>
<polygon fill="#e6ab02" stroke="#e6ab02" points="569.74,-135.5 579.74,-132 569.74,-128.5 569.74,-135.5"/>
</g>
<!-- x4 -->
<g id="node16" class="node">
<title>x4</title>
<path fill="none" stroke="black" d="M756.76,-76C756.76,-76 726.76,-76 726.76,-76 720.76,-76 714.76,-70 714.76,-64 714.76,-64 714.76,-52 714.76,-52 714.76,-46 720.76,-40 726.76,-40 726.76,-40 756.76,-40 756.76,-40 762.76,-40 768.76,-46 768.76,-52 768.76,-52 768.76,-64 768.76,-64 768.76,-70 762.76,-76 756.76,-76"/>
<text text-anchor="middle" x="741.76" y="-54.3" font-family="Times New Roman,serif" font-size="14.00">BUF</text>
</g>
<!-- n11&#45;&gt;x4 -->
<g id="edge9" class="edge">
<title>n11:e&#45;&gt;x4:w</title>
<path fill="none" stroke="#e6ab02" d="M73.16,-140C81.75,-140 82.84,-135.08 91.16,-133 358.65,-66.04 433.78,-58.19 704.63,-58"/>
<polygon fill="#e6ab02" stroke="#e6ab02" points="704.76,-61.5 714.76,-58 704.76,-54.5 704.76,-61.5"/>
</g>
<!-- x8 -->
<g id="node17" class="node">
<title>x8</title>
<path fill="none" stroke="black" d="M220.06,-181C220.06,-181 190.06,-181 190.06,-181 184.06,-181 178.06,-175 178.06,-169 178.06,-169 178.06,-157 178.06,-157 178.06,-151 184.06,-145 190.06,-145 190.06,-145 220.06,-145 220.06,-145 226.06,-145 232.06,-151 232.06,-157 232.06,-157 232.06,-169 232.06,-169 232.06,-175 226.06,-181 220.06,-181"/>
<text text-anchor="middle" x="205.06" y="-159.3" font-family="Times New Roman,serif" font-size="14.00">BUF</text>
</g>
<!-- n11&#45;&gt;x8 -->
<g id="edge10" class="edge">
<title>n11:e&#45;&gt;x8:w</title>
<path fill="none" stroke="#e6ab02" d="M73.16,-140C117.35,-140 128.72,-159.71 168.03,-162.64"/>
<polygon fill="#e6ab02" stroke="#e6ab02" points="167.94,-166.14 178.06,-163 168.19,-159.14 167.94,-166.14"/>
</g>
<!-- n12 -->
<g id="node3" class="node">
<title>n12</title>
<polygon fill="none" stroke="black" points="66.58,-33.54 66.58,-48.46 49.01,-59 24.15,-59 6.58,-48.46 6.58,-33.54 24.15,-23 49.01,-23 66.58,-33.54"/>
<text text-anchor="middle" x="36.58" y="-37.3" font-family="Times New Roman,serif" font-size="14.00">reset</text>
</g>
<!-- c18 -->
<g id="node18" class="node">
<title>c18</title>
<polygon fill="none" stroke="black" points="786.76,-109 786.76,-155 873.76,-155 873.76,-109 786.76,-109"/>
<text text-anchor="middle" x="799.76" y="-139.8" font-family="Times New Roman,serif" font-size="14.00">A</text>
<polyline fill="none" stroke="black" points="786.76,-132 812.76,-132 "/>
<text text-anchor="middle" x="799.76" y="-116.8" font-family="Times New Roman,serif" font-size="14.00">B</text>
<polyline fill="none" stroke="black" points="812.76,-109 812.76,-155 "/>
<text text-anchor="middle" x="830.26" y="-135.8" font-family="Times New Roman,serif" font-size="14.00">$3</text>
<text text-anchor="middle" x="830.26" y="-120.8" font-family="Times New Roman,serif" font-size="14.00">$or</text>
<polyline fill="none" stroke="black" points="847.76,-109 847.76,-155 "/>
<text text-anchor="middle" x="860.76" y="-128.3" font-family="Times New Roman,serif" font-size="14.00">Y</text>
</g>
<!-- n12&#45;&gt;c18 -->
<g id="edge11" class="edge">
<title>n12:e&#45;&gt;c18:w</title>
<path fill="none" stroke="#d95f02" d="M67.58,-41C385.69,-41 463.54,-118.31 776.48,-119.97"/>
<polygon fill="#d95f02" stroke="#d95f02" points="776.75,-123.47 786.76,-120 776.77,-116.47 776.75,-123.47"/>
</g>
<!-- n3 -->
<g id="node4" class="node">
<title>n3</title>
<polygon fill="none" stroke="black" points="1454.64,-300.54 1454.64,-315.46 1438.82,-326 1416.46,-326 1400.64,-315.46 1400.64,-300.54 1416.46,-290 1438.82,-290 1454.64,-300.54"/>
<text text-anchor="middle" x="1427.64" y="-304.3" font-family="Times New Roman,serif" font-size="14.00">Q</text>
</g>
<!-- c17 -->
<g id="node10" class="node">
<title>c17</title>
<polygon fill="none" stroke="black" points="250.06,-247 250.06,-293 339.06,-293 339.06,-247 250.06,-247"/>
<text text-anchor="middle" x="263.06" y="-277.8" font-family="Times New Roman,serif" font-size="14.00">A</text>
<polyline fill="none" stroke="black" points="250.06,-270 276.06,-270 "/>
<text text-anchor="middle" x="263.06" y="-254.8" font-family="Times New Roman,serif" font-size="14.00">B</text>
<polyline fill="none" stroke="black" points="276.06,-247 276.06,-293 "/>
<text text-anchor="middle" x="294.56" y="-273.8" font-family="Times New Roman,serif" font-size="14.00">$1</text>
<text text-anchor="middle" x="294.56" y="-258.8" font-family="Times New Roman,serif" font-size="14.00">$eq</text>
<polyline fill="none" stroke="black" points="313.06,-247 313.06,-293 "/>
<text text-anchor="middle" x="326.06" y="-266.3" font-family="Times New Roman,serif" font-size="14.00">Y</text>
</g>
<!-- n3&#45;&gt;c17 -->
<g id="edge3" class="edge">
<title>n3:e&#45;&gt;c17:w</title>
<path fill="none" stroke="#d95f02" stroke-width="3" d="M1455.64,-308C1463.65,-308 1460.46,-320.49 1454.64,-326 1437.21,-342.49 1424.64,-326.34 1400.64,-326 1384.65,-325.77 261.19,-304.47 249.56,-293.5 249.09,-293.06 248.64,-292.55 248.23,-292"/>
<polygon fill="#d95f02" stroke="#d95f02" stroke-width="3" points="251.73,-292.11 248.56,-282 244.73,-291.88 251.73,-292.11"/>
<text text-anchor="middle" x="903.76" y="-319.8" font-family="Times New Roman,serif" font-size="14.00" fill="#d95f02">&lt;4&gt;</text>
</g>
<!-- n4 -->
<g id="node5" class="node">
<title>n4</title>
<polygon fill="none" stroke="black" points="1454.64,-382.54 1454.64,-397.46 1438.82,-408 1416.46,-408 1400.64,-397.46 1400.64,-382.54 1416.46,-372 1438.82,-372 1454.64,-382.54"/>
<text text-anchor="middle" x="1427.64" y="-386.3" font-family="Times New Roman,serif" font-size="14.00">c_d</text>
</g>
<!-- n5 -->
<g id="node6" class="node">
<title>n5</title>
<polygon fill="none" stroke="black" points="1474,-50.54 1474,-65.46 1446.84,-76 1408.44,-76 1381.28,-65.46 1381.28,-50.54 1408.44,-40 1446.84,-40 1474,-50.54"/>
<text text-anchor="middle" x="1427.64" y="-54.3" font-family="Times New Roman,serif" font-size="14.00">c_enable</text>
</g>
<!-- n6 -->
<g id="node7" class="node">
<title>n6</title>
<polygon fill="none" stroke="black" points="1466.53,-125.54 1466.53,-140.46 1443.75,-151 1411.53,-151 1388.76,-140.46 1388.76,-125.54 1411.53,-115 1443.75,-115 1466.53,-125.54"/>
<text text-anchor="middle" x="1427.64" y="-129.3" font-family="Times New Roman,serif" font-size="14.00">c_load</text>
</g>
<!-- v2 -->
<g id="node8" class="node">
<title>v2</title>
<ellipse fill="none" stroke="black" cx="1016.49" cy="-390" rx="34.39" ry="18"/>
<text text-anchor="middle" x="1016.49" y="-386.3" font-family="Times New Roman,serif" font-size="14.00">4&#39;0001</text>
</g>
<!-- x3 -->
<g id="node9" class="node">
<title>x3</title>
<path fill="none" stroke="black" d="M1255.21,-408C1255.21,-408 1225.21,-408 1225.21,-408 1219.21,-408 1213.21,-402 1213.21,-396 1213.21,-396 1213.21,-384 1213.21,-384 1213.21,-378 1219.21,-372 1225.21,-372 1225.21,-372 1255.21,-372 1255.21,-372 1261.21,-372 1267.21,-378 1267.21,-384 1267.21,-384 1267.21,-396 1267.21,-396 1267.21,-402 1261.21,-408 1255.21,-408"/>
<text text-anchor="middle" x="1240.21" y="-386.3" font-family="Times New Roman,serif" font-size="14.00">BUF</text>
</g>
<!-- v2&#45;&gt;x3 -->
<g id="edge1" class="edge">
<title>v2:e&#45;&gt;x3:w</title>
<path fill="none" stroke="#1b9e77" stroke-width="3" d="M1052.49,-390C1120.01,-390 1139.36,-390 1202.18,-390"/>
<polygon fill="#1b9e77" stroke="#1b9e77" stroke-width="3" points="1202.21,-393.5 1212.21,-390 1202.21,-386.5 1202.21,-393.5"/>
<text text-anchor="middle" x="1129.21" y="-393.8" font-family="Times New Roman,serif" font-size="14.00" fill="#1b9e77">&lt;4&gt;</text>
</g>
<!-- x3&#45;&gt;n4 -->
<g id="edge2" class="edge">
<title>x3:e&#45;&gt;n4:w</title>
<path fill="none" stroke="#1b9e77" stroke-width="3" d="M1268.21,-390C1323.09,-390 1339.3,-390 1389.49,-390"/>
<polygon fill="#1b9e77" stroke="#1b9e77" stroke-width="3" points="1389.64,-393.5 1399.64,-390 1389.64,-386.5 1389.64,-393.5"/>
<text text-anchor="middle" x="1351.21" y="-393.8" font-family="Times New Roman,serif" font-size="14.00" fill="#1b9e77">&lt;4&gt;</text>
</g>
<!-- c17&#45;&gt;c16 -->
<g id="edge14" class="edge">
<title>c17:e&#45;&gt;c16:w</title>
<path fill="none" stroke="#d95f02" d="M339.06,-270C436.31,-270 460.26,-241.54 542.73,-190 558.12,-180.38 558.19,-163.95 569.66,-158.12"/>
<polygon fill="#d95f02" stroke="#d95f02" points="570.68,-161.48 579.74,-156 569.24,-154.63 570.68,-161.48"/>
</g>
<!-- c21&#45;&gt;n3 -->
<g id="edge17" class="edge">
<title>c21:e&#45;&gt;n3:w</title>
<path fill="none" stroke="#d95f02" stroke-width="3" d="M1321.21,-243C1362.77,-243 1355.97,-297.77 1389.59,-306.76"/>
<polygon fill="#d95f02" stroke="#d95f02" stroke-width="3" points="1389.29,-310.25 1399.64,-308 1390.15,-303.3 1389.29,-310.25"/>
<text text-anchor="middle" x="1351.21" y="-283.8" font-family="Times New Roman,serif" font-size="14.00" fill="#d95f02">&lt;4&gt;</text>
</g>
<!-- n9 -->
<g id="node12" class="node">
<title>n9</title>
<polygon fill="none" stroke="black" points="449.89,-181 357.22,-163 449.89,-145 542.56,-163 449.89,-181"/>
<text text-anchor="middle" x="449.89" y="-159.3" font-family="Times New Roman,serif" font-size="14.00">counter_enable</text>
</g>
<!-- n10 -->
<g id="node13" class="node">
<title>n10</title>
<polygon fill="none" stroke="black" points="1016.49,-151 933.54,-133 1016.49,-115 1099.44,-133 1016.49,-151"/>
<text text-anchor="middle" x="1016.49" y="-129.3" font-family="Times New Roman,serif" font-size="14.00">counter_load</text>
</g>
<!-- n10&#45;&gt;c21 -->
<g id="edge5" class="edge">
<title>n10:e&#45;&gt;c21:w</title>
<path fill="none" stroke="#e6ab02" d="M1099.21,-133C1117.39,-133 1132.64,-187.39 1149.95,-203.53"/>
<polygon fill="#e6ab02" stroke="#e6ab02" points="1148.68,-206.81 1159.21,-208 1151.72,-200.5 1148.68,-206.81"/>
</g>
<!-- x5 -->
<g id="node14" class="node">
<title>x5</title>
<path fill="none" stroke="black" d="M1255.21,-151C1255.21,-151 1225.21,-151 1225.21,-151 1219.21,-151 1213.21,-145 1213.21,-139 1213.21,-139 1213.21,-127 1213.21,-127 1213.21,-121 1219.21,-115 1225.21,-115 1225.21,-115 1255.21,-115 1255.21,-115 1261.21,-115 1267.21,-121 1267.21,-127 1267.21,-127 1267.21,-139 1267.21,-139 1267.21,-145 1261.21,-151 1255.21,-151"/>
<text text-anchor="middle" x="1240.21" y="-129.3" font-family="Times New Roman,serif" font-size="14.00">BUF</text>
</g>
<!-- n10&#45;&gt;x5 -->
<g id="edge6" class="edge">
<title>n10:e&#45;&gt;x5:w</title>
<path fill="none" stroke="#e6ab02" d="M1099.21,-133C1145.9,-133 1160.04,-133 1202.15,-133"/>
<polygon fill="#e6ab02" stroke="#e6ab02" points="1202.21,-136.5 1212.21,-133 1202.21,-129.5 1202.21,-136.5"/>
</g>
<!-- x5&#45;&gt;n6 -->
<g id="edge19" class="edge">
<title>x5:e&#45;&gt;n6:w</title>
<path fill="none" stroke="#7570b3" d="M1268.21,-133C1317.77,-133 1332.62,-133 1377.57,-133"/>
<polygon fill="#7570b3" stroke="#7570b3" points="1377.64,-136.5 1387.64,-133 1377.64,-129.5 1377.64,-136.5"/>
</g>
<!-- c16&#45;&gt;c18 -->
<g id="edge12" class="edge">
<title>c16:e&#45;&gt;c18:w</title>
<path fill="none" stroke="#1b9e77" d="M677.74,-144C722.6,-144 736.31,-144 776.54,-144"/>
<polygon fill="#1b9e77" stroke="#1b9e77" points="776.76,-147.5 786.76,-144 776.76,-140.5 776.76,-147.5"/>
</g>
<!-- x4&#45;&gt;n5 -->
<g id="edge18" class="edge">
<title>x4:e&#45;&gt;n5:w</title>
<path fill="none" stroke="#1b9e77" d="M768.76,-58C828.32,-58 843.21,-58 902.76,-58 902.76,-58 902.76,-58 1241.21,-58 1299.91,-58 1317.08,-58 1371.07,-58"/>
<polygon fill="#1b9e77" stroke="#1b9e77" points="1371.21,-61.5 1381.21,-58 1371.21,-54.5 1371.21,-61.5"/>
</g>
<!-- x8&#45;&gt;n9 -->
<g id="edge20" class="edge">
<title>x8:e&#45;&gt;n9:w</title>
<path fill="none" stroke="#7570b3" d="M232.06,-163C284.03,-163 299.54,-163 346.81,-163"/>
<polygon fill="#7570b3" stroke="#7570b3" points="347.06,-166.5 357.06,-163 347.06,-159.5 347.06,-166.5"/>
</g>
<!-- c18&#45;&gt;n10 -->
<g id="edge15" class="edge">
<title>c18:e&#45;&gt;n10:w</title>
<path fill="none" stroke="#e6ab02" d="M873.76,-132C896.68,-132 904.82,-132.74 923.59,-132.95"/>
<polygon fill="#e6ab02" stroke="#e6ab02" points="923.74,-136.45 933.76,-133 923.78,-129.45 923.74,-136.45"/>
</g>
<!-- v0 -->
<g id="node19" class="node">
<title>v0</title>
<ellipse fill="none" stroke="black" cx="125.61" cy="-258" rx="34.39" ry="18"/>
<text text-anchor="middle" x="125.61" y="-254.3" font-family="Times New Roman,serif" font-size="14.00">4&#39;1100</text>
</g>
<!-- v0&#45;&gt;c17 -->
<g id="edge13" class="edge">
<title>v0:e&#45;&gt;c17:w</title>
<path fill="none" stroke="#a6761d" stroke-width="3" d="M160.06,-258C196.46,-258 208.02,-258 239.96,-258"/>
<polygon fill="#a6761d" stroke="#a6761d" stroke-width="3" points="240.06,-261.5 250.06,-258 240.06,-254.5 240.06,-261.5"/>
<text text-anchor="middle" x="205.06" y="-261.8" font-family="Times New Roman,serif" font-size="14.00" fill="#a6761d">&lt;4&gt;</text>
</g>
<!-- v1 -->
<g id="node20" class="node">
<title>v1</title>
<ellipse fill="none" stroke="black" cx="1016.49" cy="-255" rx="34.39" ry="18"/>
<text text-anchor="middle" x="1016.49" y="-251.3" font-family="Times New Roman,serif" font-size="14.00">4&#39;0001</text>
</g>
<!-- v1&#45;&gt;c21 -->
<g id="edge16" class="edge">
<title>v1:e&#45;&gt;c21:w</title>
<path fill="none" stroke="#e6ab02" stroke-width="3" d="M1052.49,-255C1096.4,-255 1109.82,-255 1149.21,-255"/>
<polygon fill="#e6ab02" stroke="#e6ab02" stroke-width="3" points="1149.21,-258.5 1159.21,-255 1149.21,-251.5 1149.21,-258.5"/>
<text text-anchor="middle" x="1129.21" y="-258.8" font-family="Times New Roman,serif" font-size="14.00" fill="#e6ab02">&lt;4&gt;</text>
</g>
<!-- n8 -->
<g id="node21" class="node">
<title>n8</title>
<polygon fill="none" stroke="black" points="628.74,-387 560.71,-369 628.74,-351 696.78,-369 628.74,-387"/>
<text text-anchor="middle" x="628.74" y="-365.3" font-family="Times New Roman,serif" font-size="14.00">counter_d</text>
</g>
<!-- v6 -->
<g id="node22" class="node">
<title>v6</title>
<ellipse fill="none" stroke="black" cx="125.61" cy="-369" rx="34.39" ry="18"/>
<text text-anchor="middle" x="125.61" y="-365.3" font-family="Times New Roman,serif" font-size="14.00">4&#39;0001</text>
</g>
<!-- x7 -->
<g id="node23" class="node">
<title>x7</title>
<path fill="none" stroke="black" d="M309.56,-387C309.56,-387 279.56,-387 279.56,-387 273.56,-387 267.56,-381 267.56,-375 267.56,-375 267.56,-363 267.56,-363 267.56,-357 273.56,-351 279.56,-351 279.56,-351 309.56,-351 309.56,-351 315.56,-351 321.56,-357 321.56,-363 321.56,-363 321.56,-375 321.56,-375 321.56,-381 315.56,-387 309.56,-387"/>
<text text-anchor="middle" x="294.56" y="-365.3" font-family="Times New Roman,serif" font-size="14.00">BUF</text>
</g>
<!-- v6&#45;&gt;x7 -->
<g id="edge21" class="edge">
<title>v6:e&#45;&gt;x7:w</title>
<path fill="none" stroke="#66a61e" stroke-width="3" d="M160.06,-369C203.69,-369 217.16,-369 256.08,-369"/>
<polygon fill="#66a61e" stroke="#66a61e" stroke-width="3" points="256.56,-372.5 266.56,-369 256.56,-365.5 256.56,-372.5"/>
<text text-anchor="middle" x="205.06" y="-373.8" font-family="Times New Roman,serif" font-size="14.00" fill="#66a61e">&lt;4&gt;</text>
</g>
<!-- x7&#45;&gt;n8 -->
<g id="edge22" class="edge">
<title>x7:e&#45;&gt;n8:w</title>
<path fill="none" stroke="#a6761d" stroke-width="3" d="M322.56,-369C424.9,-369 453.03,-369 550.44,-369"/>
<polygon fill="#a6761d" stroke="#a6761d" stroke-width="3" points="550.73,-372.5 560.73,-369 550.73,-365.5 550.73,-372.5"/>
<text text-anchor="middle" x="449.89" y="-373.8" font-family="Times New Roman,serif" font-size="14.00" fill="#a6761d">&lt;4&gt;</text>
</g>
</g>
</svg>
