<svg xmlns="http://www.w3.org/2000/svg" xmlns:xlink="http://www.w3.org/1999/xlink" xmlns:s="https://github.com/nturley/netlistsvg" width="471" height="345">
  <style>svg {
    stroke:#000;
    fill:none;
  }
  text {
    fill:#000;
    stroke:none;
    font-size:10px;
    font-weight: bold;
    font-family: "Courier New", monospace;
  }
  .nodelabel {
    text-anchor: middle;
  }
  .inputPortLabel {
    text-anchor: end;
  }
  .splitjoinBody {
    fill:#000;
  }</style>
  <g s:type="and" transform="translate(281,212)" s:width="30" s:height="25" id="cell_$and$top_module.v:33$2">
    <s:alias val="$and"/>
    <s:alias val="$logic_and"/>
    <s:alias val="$_AND_"/>
    <path d="M0,0 L0,25 L15,25 A15 12.5 0 0 0 15,0 Z" class="cell_$and$top_module.v:33$2"/>
    <g s:x="0" s:y="5" s:pid="A"/>
    <g s:x="0" s:y="20" s:pid="B"/>
    <g s:x="30" s:y="12.5" s:pid="Y"/>
  </g>
  <g s:type="eq" transform="translate(221,204.5)" s:width="25" s:height="25" id="cell_$eq$top_module.v:33$1">
    <s:alias val="$eq"/>
    <circle r="12.5" cx="12.5" cy="12.5" class="cell_$eq$top_module.v:33$1"/>
    <line x1="7.5" x2="17.5" y1="10" y2="10" class="cell_$eq$top_module.v:33$1"/>
    <line x1="7.5" x2="17.5" y1="15" y2="15" class="cell_$eq$top_module.v:33$1"/>
    <g s:x="3" s:y="5" s:pid="A"/>
    <g s:x="3" s:y="20" s:pid="B"/>
    <g s:x="25" s:y="12.5" s:pid="Y"/>
  </g>
  <g s:type="or" transform="translate(346,219.5)" s:width="30" s:height="25" id="cell_$or$top_module.v:33$3">
    <s:alias val="$or"/>
    <s:alias val="$logic_or"/>
    <s:alias val="$_OR_"/>
    <path d="M0,25 L0,25 L15,25 A15 12.5 0 0 0 15,0 L0,0" class="cell_$or$top_module.v:33$3"/>
    <path d="M0,0 A30 25 0 0 1 0,25" class="cell_$or$top_module.v:33$3"/>
    <g s:x="3" s:y="5" s:pid="A"/>
    <g s:x="3" s:y="20" s:pid="B"/>
    <g s:x="30" s:y="12.5" s:pid="Y"/>
  </g>
  <g s:type="generic" transform="translate(120,86.5)" s:width="30" s:height="40" id="cell_the_counter">
    <text x="15" y="-4" class="nodelabel cell_the_counter" s:attribute="ref">count4</text>
    <rect width="30" height="80" s:generic="body" class="cell_the_counter"/>
    <g transform="translate(0,10)" s:x="0" s:y="10" s:pid="in0" id="port_the_counter~clk">
      <text x="-3" y="-4" class="inputPortLabel cell_the_counter">clk</text>
    </g>
    <g transform="translate(0,30)" s:x="0" s:y="10" s:pid="in0" id="port_the_counter~d">
      <text x="-3" y="-4" class="inputPortLabel cell_the_counter">d</text>
    </g>
    <g transform="translate(0,50)" s:x="0" s:y="10" s:pid="in0" id="port_the_counter~enable">
      <text x="-3" y="-4" class="inputPortLabel cell_the_counter">enable</text>
    </g>
    <g transform="translate(0,70)" s:x="0" s:y="10" s:pid="in0" id="port_the_counter~load">
      <text x="-3" y="-4" class="inputPortLabel cell_the_counter">load</text>
    </g>
    <g transform="translate(30,10)" s:x="30" s:y="10" s:pid="out0" id="port_the_counter~Q">
      <text x="5" y="-4" style="fill:#000; stroke:none" class="cell_the_counter">Q</text>
    </g>
  </g>
  <g s:type="inputExt" transform="translate(12,87)" s:width="30" s:height="20" id="cell_clk">
    <text x="15" y="-4" class="nodelabel cell_clk" s:attribute="ref">clk</text>
    <s:alias val="$_inputExt_"/>
    <path d="M0,0 L0,20 L15,20 L30,10 L15,0 Z" class="cell_clk"/>
    <g s:x="28" s:y="10" s:pid="Y"/>
  </g>
  <g s:type="inputExt" transform="translate(281,282)" s:width="30" s:height="20" id="cell_reset">
    <text x="15" y="-4" class="nodelabel cell_reset" s:attribute="ref">reset</text>
    <s:alias val="$_inputExt_"/>
    <path d="M0,0 L0,20 L15,20 L30,10 L15,0 Z" class="cell_reset"/>
    <g s:x="28" s:y="10" s:pid="Y"/>
  </g>
  <g s:type="inputExt" transform="translate(12,234.5)" s:width="30" s:height="20" id="cell_enable">
    <text x="15" y="-4" class="nodelabel cell_enable" s:attribute="ref">enable</text>
    <s:alias val="$_inputExt_"/>
    <path d="M0,0 L0,20 L15,20 L30,10 L15,0 Z" class="cell_enable"/>
    <g s:x="28" s:y="10" s:pid="Y"/>
  </g>
  <g s:type="outputExt" transform="translate(411,87)" s:width="30" s:height="20" id="cell_Q">
    <text x="15" y="-4" class="nodelabel cell_Q" s:attribute="ref">Q</text>
    <s:alias val="$_outputExt_"/>
    <path d="M30,0 L30,20 L15,20 L0,10 L15,0 Z" class="cell_Q"/>
    <g s:x="0" s:y="10" s:pid="A"/>
  </g>
  <g s:type="outputExt" transform="translate(411,313)" s:width="30" s:height="20" id="cell_c_enable">
    <text x="15" y="-4" class="nodelabel cell_c_enable" s:attribute="ref">c_enable</text>
    <s:alias val="$_outputExt_"/>
    <path d="M30,0 L30,20 L15,20 L0,10 L15,0 Z" class="cell_c_enable"/>
    <g s:x="0" s:y="10" s:pid="A"/>
  </g>
  <g s:type="outputExt" transform="translate(411,222)" s:width="30" s:height="20" id="cell_c_load">
    <text x="15" y="-4" class="nodelabel cell_c_load" s:attribute="ref">c_load</text>
    <s:alias val="$_outputExt_"/>
    <path d="M30,0 L30,20 L15,20 L0,10 L15,0 Z" class="cell_c_load"/>
    <g s:x="0" s:y="10" s:pid="A"/>
  </g>
  <g s:type="outputExt" transform="translate(411,22)" s:width="30" s:height="20" id="cell_c_d">
    <text x="15" y="-4" class="nodelabel cell_c_d" s:attribute="ref">c_d</text>
    <s:alias val="$_outputExt_"/>
    <path d="M30,0 L30,20 L15,20 L0,10 L15,0 Z" class="cell_c_d"/>
    <g s:x="0" s:y="10" s:pid="A"/>
  </g>
  <g s:type="constant" transform="translate(120,214.5)" s:width="30" s:height="20" id="cell_1100">
    <text x="15" y="-4" class="nodelabel cell_1100" s:attribute="ref">0xc</text>
    <s:alias val="$_constant_"/>
    <rect width="30" height="20" class="cell_1100"/>
    <g s:x="30" s:y="10" s:pid="Y"/>
  </g>
  <g s:type="constant" transform="translate(12,22)" s:width="30" s:height="20" id="cell_0001">
    <text x="15" y="-4" class="nodelabel cell_0001" s:attribute="ref">0x1</text>
    <s:alias val="$_constant_"/>
    <rect width="30" height="20" class="cell_0001"/>
    <g s:x="30" s:y="10" s:pid="Y"/>
  </g>
  <line x1="246" x2="281" y1="217" y2="217" class="net_10"/>
  <line x1="40" x2="256" y1="244.5" y2="244.5" class="net_4"/>
  <line x1="256" x2="256" y1="244.5" y2="232" class="net_4"/>
  <line x1="256" x2="281" y1="232" y2="232" class="net_4"/>
  <line x1="40" x2="58" y1="244.5" y2="244.5" class="net_4"/>
  <line x1="58" x2="58" y1="244.5" y2="137" class="net_4"/>
  <circle cx="58" cy="244.5" r="2" style="fill:#000" class="net_4"/>
  <line x1="58" x2="120" y1="137" y2="137" class="net_4"/>
  <line x1="40" x2="58" y1="244.5" y2="244.5" class="net_4"/>
  <line x1="58" x2="58" y1="244.5" y2="323" class="net_4"/>
  <line x1="58" x2="411" y1="323" y2="323" class="net_4"/>
  <line x1="151" x2="196" y1="97" y2="97" class="net_5,6,7,8"/>
  <line x1="196" x2="196" y1="97" y2="209.5" class="net_5,6,7,8"/>
  <circle cx="196" cy="97" r="2" style="fill:#000" class="net_5,6,7,8"/>
  <line x1="196" x2="224" y1="209.5" y2="209.5" class="net_5,6,7,8"/>
  <line x1="151" x2="411" y1="97" y2="97" class="net_5,6,7,8"/>
  <line x1="150" x2="224" y1="224.5" y2="224.5" class="net_12,13,14,15"/>
  <line x1="311" x2="349" y1="224.5" y2="224.5" class="net_11"/>
  <line x1="309" x2="321" y1="292" y2="292" class="net_3"/>
  <line x1="321" x2="321" y1="292" y2="239.5" class="net_3"/>
  <line x1="321" x2="349" y1="239.5" y2="239.5" class="net_3"/>
  <line x1="40" x2="120" y1="97" y2="97" class="net_2"/>
  <line x1="42" x2="58" y1="32" y2="32" class="net_16,17,18,19"/>
  <line x1="58" x2="58" y1="32" y2="117" class="net_16,17,18,19"/>
  <circle cx="58" cy="32" r="2" style="fill:#000" class="net_16,17,18,19"/>
  <line x1="58" x2="120" y1="117" y2="117" class="net_16,17,18,19"/>
  <line x1="42" x2="411" y1="32" y2="32" class="net_16,17,18,19"/>
  <line x1="376" x2="386" y1="232" y2="232" class="net_9"/>
  <line x1="386" x2="386" y1="232" y2="312" class="net_9"/>
  <line x1="386" x2="68" y1="312" y2="312" class="net_9"/>
  <line x1="68" x2="68" y1="312" y2="157" class="net_9"/>
  <circle cx="386" cy="232" r="2" style="fill:#000" class="net_9"/>
  <line x1="68" x2="120" y1="157" y2="157" class="net_9"/>
  <line x1="376" x2="411" y1="232" y2="232" class="net_9"/>
</svg>
