<svg xmlns="http://www.w3.org/2000/svg" xmlns:xlink="http://www.w3.org/1999/xlink" xmlns:s="https://github.com/nturley/netlistsvg" width="973" height="423">
  <style>svg {
    stroke:#000;
    fill:none;
  }
  text {
    fill:#000;
    stroke:none;
    font-size:10px;
    font-weight: bold;
    font-family: "Courier New", monospace;
  }
  .nodelabel {
    text-anchor: middle;
  }
  .inputPortLabel {
    text-anchor: end;
  }
  .splitjoinBody {
    fill:#000;
  }</style>
  <g s:type="and" transform="translate(659,77)" s:width="30" s:height="25" id="cell_$auto$aigmap.cc:123:execute$15">
    <s:alias val="$and"/>
    <s:alias val="$logic_and"/>
    <s:alias val="$_AND_"/>
    <path d="M0,0 L0,25 L15,25 A15 12.5 0 0 0 15,0 Z" class="cell_$auto$aigmap.cc:123:execute$15"/>
    <g s:x="0" s:y="5" s:pid="A"/>
    <g s:x="0" s:y="20" s:pid="B"/>
    <g s:x="30" s:y="12.5" s:pid="Y"/>
  </g>
  <g s:type="and" transform="translate(724,84.5)" s:width="30" s:height="25" id="cell_$auto$aigmap.cc:123:execute$19">
    <s:alias val="$and"/>
    <s:alias val="$logic_and"/>
    <s:alias val="$_AND_"/>
    <path d="M0,0 L0,25 L15,25 A15 12.5 0 0 0 15,0 Z" class="cell_$auto$aigmap.cc:123:execute$19"/>
    <g s:x="0" s:y="5" s:pid="A"/>
    <g s:x="0" s:y="20" s:pid="B"/>
    <g s:x="30" s:y="12.5" s:pid="Y"/>
  </g>
  <g s:type="and" transform="translate(789,92)" s:width="30" s:height="25" id="cell_$auto$aigmap.cc:123:execute$23">
    <s:alias val="$and"/>
    <s:alias val="$logic_and"/>
    <s:alias val="$_AND_"/>
    <path d="M0,0 L0,25 L15,25 A15 12.5 0 0 0 15,0 Z" class="cell_$auto$aigmap.cc:123:execute$23"/>
    <g s:x="0" s:y="5" s:pid="A"/>
    <g s:x="0" s:y="20" s:pid="B"/>
    <g s:x="30" s:y="12.5" s:pid="Y"/>
  </g>
  <g s:type="and" transform="translate(204,193)" s:width="30" s:height="25" id="cell_$auto$aigmap.cc:123:execute$31">
    <s:alias val="$and"/>
    <s:alias val="$logic_and"/>
    <s:alias val="$_AND_"/>
    <path d="M0,0 L0,25 L15,25 A15 12.5 0 0 0 15,0 Z" class="cell_$auto$aigmap.cc:123:execute$31"/>
    <g s:x="0" s:y="5" s:pid="A"/>
    <g s:x="0" s:y="20" s:pid="B"/>
    <g s:x="30" s:y="12.5" s:pid="Y"/>
  </g>
  <g s:type="and" transform="translate(204,284)" s:width="30" s:height="25" id="cell_$auto$aigmap.cc:123:execute$35">
    <s:alias val="$and"/>
    <s:alias val="$logic_and"/>
    <s:alias val="$_AND_"/>
    <path d="M0,0 L0,25 L15,25 A15 12.5 0 0 0 15,0 Z" class="cell_$auto$aigmap.cc:123:execute$35"/>
    <g s:x="0" s:y="5" s:pid="A"/>
    <g s:x="0" s:y="20" s:pid="B"/>
    <g s:x="30" s:y="12.5" s:pid="Y"/>
  </g>
  <g s:type="and" transform="translate(399,364)" s:width="30" s:height="25" id="cell_$auto$aigmap.cc:123:execute$39">
    <s:alias val="$and"/>
    <s:alias val="$logic_and"/>
    <s:alias val="$_AND_"/>
    <path d="M0,0 L0,25 L15,25 A15 12.5 0 0 0 15,0 Z" class="cell_$auto$aigmap.cc:123:execute$39"/>
    <g s:x="0" s:y="5" s:pid="A"/>
    <g s:x="0" s:y="20" s:pid="B"/>
    <g s:x="30" s:y="12.5" s:pid="Y"/>
  </g>
  <g s:type="and" transform="translate(334,200.5)" s:width="30" s:height="25" id="cell_$auto$aigmap.cc:123:execute$41">
    <s:alias val="$and"/>
    <s:alias val="$logic_and"/>
    <s:alias val="$_AND_"/>
    <path d="M0,0 L0,25 L15,25 A15 12.5 0 0 0 15,0 Z" class="cell_$auto$aigmap.cc:123:execute$41"/>
    <g s:x="0" s:y="5" s:pid="A"/>
    <g s:x="0" s:y="20" s:pid="B"/>
    <g s:x="30" s:y="12.5" s:pid="Y"/>
  </g>
  <g s:type="and" transform="translate(464,208)" s:width="30" s:height="25" id="cell_$auto$aigmap.cc:123:execute$47">
    <s:alias val="$and"/>
    <s:alias val="$logic_and"/>
    <s:alias val="$_AND_"/>
    <path d="M0,0 L0,25 L15,25 A15 12.5 0 0 0 15,0 Z" class="cell_$auto$aigmap.cc:123:execute$47"/>
    <g s:x="0" s:y="5" s:pid="A"/>
    <g s:x="0" s:y="20" s:pid="B"/>
    <g s:x="30" s:y="12.5" s:pid="Y"/>
  </g>
  <g s:type="and" transform="translate(724,12)" s:width="30" s:height="25" id="cell_$auto$aigmap.cc:123:execute$5">
    <s:alias val="$and"/>
    <s:alias val="$logic_and"/>
    <s:alias val="$_AND_"/>
    <path d="M0,0 L0,25 L15,25 A15 12.5 0 0 0 15,0 Z" class="cell_$auto$aigmap.cc:123:execute$5"/>
    <g s:x="0" s:y="5" s:pid="A"/>
    <g s:x="0" s:y="20" s:pid="B"/>
    <g s:x="30" s:y="12.5" s:pid="Y"/>
  </g>
  <g s:type="and" transform="translate(464,371.5)" s:width="30" s:height="25" id="cell_$auto$aigmap.cc:123:execute$51">
    <s:alias val="$and"/>
    <s:alias val="$logic_and"/>
    <s:alias val="$_AND_"/>
    <path d="M0,0 L0,25 L15,25 A15 12.5 0 0 0 15,0 Z" class="cell_$auto$aigmap.cc:123:execute$51"/>
    <g s:x="0" s:y="5" s:pid="A"/>
    <g s:x="0" s:y="20" s:pid="B"/>
    <g s:x="30" s:y="12.5" s:pid="Y"/>
  </g>
  <g s:type="and" transform="translate(659,364)" s:width="30" s:height="25" id="cell_$auto$aigmap.cc:123:execute$55">
    <s:alias val="$and"/>
    <s:alias val="$logic_and"/>
    <s:alias val="$_AND_"/>
    <path d="M0,0 L0,25 L15,25 A15 12.5 0 0 0 15,0 Z" class="cell_$auto$aigmap.cc:123:execute$55"/>
    <g s:x="0" s:y="5" s:pid="A"/>
    <g s:x="0" s:y="20" s:pid="B"/>
    <g s:x="30" s:y="12.5" s:pid="Y"/>
  </g>
  <g s:type="and" transform="translate(594,215.5)" s:width="30" s:height="25" id="cell_$auto$aigmap.cc:123:execute$57">
    <s:alias val="$and"/>
    <s:alias val="$logic_and"/>
    <s:alias val="$_AND_"/>
    <path d="M0,0 L0,25 L15,25 A15 12.5 0 0 0 15,0 Z" class="cell_$auto$aigmap.cc:123:execute$57"/>
    <g s:x="0" s:y="5" s:pid="A"/>
    <g s:x="0" s:y="20" s:pid="B"/>
    <g s:x="30" s:y="12.5" s:pid="Y"/>
  </g>
  <g s:type="and" transform="translate(724,223)" s:width="30" s:height="25" id="cell_$auto$aigmap.cc:123:execute$63">
    <s:alias val="$and"/>
    <s:alias val="$logic_and"/>
    <s:alias val="$_AND_"/>
    <path d="M0,0 L0,25 L15,25 A15 12.5 0 0 0 15,0 Z" class="cell_$auto$aigmap.cc:123:execute$63"/>
    <g s:x="0" s:y="5" s:pid="A"/>
    <g s:x="0" s:y="20" s:pid="B"/>
    <g s:x="30" s:y="12.5" s:pid="Y"/>
  </g>
  <g s:type="and" transform="translate(724,371.5)" s:width="30" s:height="25" id="cell_$auto$aigmap.cc:123:execute$67">
    <s:alias val="$and"/>
    <s:alias val="$logic_and"/>
    <s:alias val="$_AND_"/>
    <path d="M0,0 L0,25 L15,25 A15 12.5 0 0 0 15,0 Z" class="cell_$auto$aigmap.cc:123:execute$67"/>
    <g s:x="0" s:y="5" s:pid="A"/>
    <g s:x="0" s:y="20" s:pid="B"/>
    <g s:x="30" s:y="12.5" s:pid="Y"/>
  </g>
  <g s:type="and" transform="translate(789,19.5)" s:width="30" s:height="25" id="cell_$auto$aigmap.cc:123:execute$7">
    <s:alias val="$and"/>
    <s:alias val="$logic_and"/>
    <s:alias val="$_AND_"/>
    <path d="M0,0 L0,25 L15,25 A15 12.5 0 0 0 15,0 Z" class="cell_$auto$aigmap.cc:123:execute$7"/>
    <g s:x="0" s:y="5" s:pid="A"/>
    <g s:x="0" s:y="20" s:pid="B"/>
    <g s:x="30" s:y="12.5" s:pid="Y"/>
  </g>
  <g s:type="and" transform="translate(854,230.5)" s:width="30" s:height="25" id="cell_$auto$aigmap.cc:123:execute$71">
    <s:alias val="$and"/>
    <s:alias val="$logic_and"/>
    <s:alias val="$_AND_"/>
    <path d="M0,0 L0,25 L15,25 A15 12.5 0 0 0 15,0 Z" class="cell_$auto$aigmap.cc:123:execute$71"/>
    <g s:x="0" s:y="5" s:pid="A"/>
    <g s:x="0" s:y="20" s:pid="B"/>
    <g s:x="30" s:y="12.5" s:pid="Y"/>
  </g>
  <g s:type="and" transform="translate(854,27)" s:width="30" s:height="25" id="cell_$auto$aigmap.cc:123:execute$9">
    <s:alias val="$and"/>
    <s:alias val="$logic_and"/>
    <s:alias val="$_AND_"/>
    <path d="M0,0 L0,25 L15,25 A15 12.5 0 0 0 15,0 Z" class="cell_$auto$aigmap.cc:123:execute$9"/>
    <g s:x="0" s:y="5" s:pid="A"/>
    <g s:x="0" s:y="20" s:pid="B"/>
    <g s:x="30" s:y="12.5" s:pid="Y"/>
  </g>
  <g s:type="not" transform="translate(594,72)" s:width="30" s:height="20" id="cell_$auto$aigmap.cc:132:execute$11">
    <s:alias val="$_NOT_"/>
    <s:alias val="$not"/>
    <s:alias val="$logic_not"/>
    <path d="M0,0 L0,20 L20,10 Z" class="cell_$auto$aigmap.cc:132:execute$11"/>
    <circle cx="23" cy="10" r="3" class="cell_$auto$aigmap.cc:132:execute$11"/>
    <g s:x="0" s:y="10" s:pid="A"/>
    <g s:x="25" s:y="10" s:pid="Y"/>
  </g>
  <g s:type="not" transform="translate(594,127)" s:width="30" s:height="20" id="cell_$auto$aigmap.cc:132:execute$13">
    <s:alias val="$_NOT_"/>
    <s:alias val="$not"/>
    <s:alias val="$logic_not"/>
    <path d="M0,0 L0,20 L20,10 Z" class="cell_$auto$aigmap.cc:132:execute$13"/>
    <circle cx="23" cy="10" r="3" class="cell_$auto$aigmap.cc:132:execute$13"/>
    <g s:x="0" s:y="10" s:pid="A"/>
    <g s:x="25" s:y="10" s:pid="Y"/>
  </g>
  <g s:type="not" transform="translate(659,147)" s:width="30" s:height="20" id="cell_$auto$aigmap.cc:132:execute$17">
    <s:alias val="$_NOT_"/>
    <s:alias val="$not"/>
    <s:alias val="$logic_not"/>
    <path d="M0,0 L0,20 L20,10 Z" class="cell_$auto$aigmap.cc:132:execute$17"/>
    <circle cx="23" cy="10" r="3" class="cell_$auto$aigmap.cc:132:execute$17"/>
    <g s:x="0" s:y="10" s:pid="A"/>
    <g s:x="25" s:y="10" s:pid="Y"/>
  </g>
  <g s:type="not" transform="translate(724,167)" s:width="30" s:height="20" id="cell_$auto$aigmap.cc:132:execute$21">
    <s:alias val="$_NOT_"/>
    <s:alias val="$not"/>
    <s:alias val="$logic_not"/>
    <path d="M0,0 L0,20 L20,10 Z" class="cell_$auto$aigmap.cc:132:execute$21"/>
    <circle cx="23" cy="10" r="3" class="cell_$auto$aigmap.cc:132:execute$21"/>
    <g s:x="0" s:y="10" s:pid="A"/>
    <g s:x="25" s:y="10" s:pid="Y"/>
  </g>
  <g s:type="not" transform="translate(854,94.5)" s:width="30" s:height="20" id="cell_$auto$aigmap.cc:132:execute$25">
    <s:alias val="$_NOT_"/>
    <s:alias val="$not"/>
    <s:alias val="$logic_not"/>
    <path d="M0,0 L0,20 L20,10 Z" class="cell_$auto$aigmap.cc:132:execute$25"/>
    <circle cx="23" cy="10" r="3" class="cell_$auto$aigmap.cc:132:execute$25"/>
    <g s:x="0" s:y="10" s:pid="A"/>
    <g s:x="25" s:y="10" s:pid="Y"/>
  </g>
  <g s:type="not" transform="translate(139,188)" s:width="30" s:height="20" id="cell_$auto$aigmap.cc:132:execute$27">
    <s:alias val="$_NOT_"/>
    <s:alias val="$not"/>
    <s:alias val="$logic_not"/>
    <path d="M0,0 L0,20 L20,10 Z" class="cell_$auto$aigmap.cc:132:execute$27"/>
    <circle cx="23" cy="10" r="3" class="cell_$auto$aigmap.cc:132:execute$27"/>
    <g s:x="0" s:y="10" s:pid="A"/>
    <g s:x="25" s:y="10" s:pid="Y"/>
  </g>
  <g s:type="not" transform="translate(139,243)" s:width="30" s:height="20" id="cell_$auto$aigmap.cc:132:execute$29">
    <s:alias val="$_NOT_"/>
    <s:alias val="$not"/>
    <s:alias val="$logic_not"/>
    <path d="M0,0 L0,20 L20,10 Z" class="cell_$auto$aigmap.cc:132:execute$29"/>
    <circle cx="23" cy="10" r="3" class="cell_$auto$aigmap.cc:132:execute$29"/>
    <g s:x="0" s:y="10" s:pid="A"/>
    <g s:x="25" s:y="10" s:pid="Y"/>
  </g>
  <g s:type="not" transform="translate(269,195.5)" s:width="30" s:height="20" id="cell_$auto$aigmap.cc:132:execute$33">
    <s:alias val="$_NOT_"/>
    <s:alias val="$not"/>
    <s:alias val="$logic_not"/>
    <path d="M0,0 L0,20 L20,10 Z" class="cell_$auto$aigmap.cc:132:execute$33"/>
    <circle cx="23" cy="10" r="3" class="cell_$auto$aigmap.cc:132:execute$33"/>
    <g s:x="0" s:y="10" s:pid="A"/>
    <g s:x="25" s:y="10" s:pid="Y"/>
  </g>
  <g s:type="not" transform="translate(269,286.5)" s:width="30" s:height="20" id="cell_$auto$aigmap.cc:132:execute$37">
    <s:alias val="$_NOT_"/>
    <s:alias val="$not"/>
    <s:alias val="$logic_not"/>
    <path d="M0,0 L0,20 L20,10 Z" class="cell_$auto$aigmap.cc:132:execute$37"/>
    <circle cx="23" cy="10" r="3" class="cell_$auto$aigmap.cc:132:execute$37"/>
    <g s:x="0" s:y="10" s:pid="A"/>
    <g s:x="25" s:y="10" s:pid="Y"/>
  </g>
  <g s:type="not" transform="translate(399,203)" s:width="30" s:height="20" id="cell_$auto$aigmap.cc:132:execute$43">
    <s:alias val="$_NOT_"/>
    <s:alias val="$not"/>
    <s:alias val="$logic_not"/>
    <path d="M0,0 L0,20 L20,10 Z" class="cell_$auto$aigmap.cc:132:execute$43"/>
    <circle cx="23" cy="10" r="3" class="cell_$auto$aigmap.cc:132:execute$43"/>
    <g s:x="0" s:y="10" s:pid="A"/>
    <g s:x="25" s:y="10" s:pid="Y"/>
  </g>
  <g s:type="not" transform="translate(399,263)" s:width="30" s:height="20" id="cell_$auto$aigmap.cc:132:execute$45">
    <s:alias val="$_NOT_"/>
    <s:alias val="$not"/>
    <s:alias val="$logic_not"/>
    <path d="M0,0 L0,20 L20,10 Z" class="cell_$auto$aigmap.cc:132:execute$45"/>
    <circle cx="23" cy="10" r="3" class="cell_$auto$aigmap.cc:132:execute$45"/>
    <g s:x="0" s:y="10" s:pid="A"/>
    <g s:x="25" s:y="10" s:pid="Y"/>
  </g>
  <g s:type="not" transform="translate(529,210.5)" s:width="30" s:height="20" id="cell_$auto$aigmap.cc:132:execute$49">
    <s:alias val="$_NOT_"/>
    <s:alias val="$not"/>
    <s:alias val="$logic_not"/>
    <path d="M0,0 L0,20 L20,10 Z" class="cell_$auto$aigmap.cc:132:execute$49"/>
    <circle cx="23" cy="10" r="3" class="cell_$auto$aigmap.cc:132:execute$49"/>
    <g s:x="0" s:y="10" s:pid="A"/>
    <g s:x="25" s:y="10" s:pid="Y"/>
  </g>
  <g s:type="not" transform="translate(529,374)" s:width="30" s:height="20" id="cell_$auto$aigmap.cc:132:execute$53">
    <s:alias val="$_NOT_"/>
    <s:alias val="$not"/>
    <s:alias val="$logic_not"/>
    <path d="M0,0 L0,20 L20,10 Z" class="cell_$auto$aigmap.cc:132:execute$53"/>
    <circle cx="23" cy="10" r="3" class="cell_$auto$aigmap.cc:132:execute$53"/>
    <g s:x="0" s:y="10" s:pid="A"/>
    <g s:x="25" s:y="10" s:pid="Y"/>
  </g>
  <g s:type="not" transform="translate(659,218)" s:width="30" s:height="20" id="cell_$auto$aigmap.cc:132:execute$59">
    <s:alias val="$_NOT_"/>
    <s:alias val="$not"/>
    <s:alias val="$logic_not"/>
    <path d="M0,0 L0,20 L20,10 Z" class="cell_$auto$aigmap.cc:132:execute$59"/>
    <circle cx="23" cy="10" r="3" class="cell_$auto$aigmap.cc:132:execute$59"/>
    <g s:x="0" s:y="10" s:pid="A"/>
    <g s:x="25" s:y="10" s:pid="Y"/>
  </g>
  <g s:type="not" transform="translate(659,309)" s:width="30" s:height="20" id="cell_$auto$aigmap.cc:132:execute$61">
    <s:alias val="$_NOT_"/>
    <s:alias val="$not"/>
    <s:alias val="$logic_not"/>
    <path d="M0,0 L0,20 L20,10 Z" class="cell_$auto$aigmap.cc:132:execute$61"/>
    <circle cx="23" cy="10" r="3" class="cell_$auto$aigmap.cc:132:execute$61"/>
    <g s:x="0" s:y="10" s:pid="A"/>
    <g s:x="25" s:y="10" s:pid="Y"/>
  </g>
  <g s:type="not" transform="translate(789,225.5)" s:width="30" s:height="20" id="cell_$auto$aigmap.cc:132:execute$65">
    <s:alias val="$_NOT_"/>
    <s:alias val="$not"/>
    <s:alias val="$logic_not"/>
    <path d="M0,0 L0,20 L20,10 Z" class="cell_$auto$aigmap.cc:132:execute$65"/>
    <circle cx="23" cy="10" r="3" class="cell_$auto$aigmap.cc:132:execute$65"/>
    <g s:x="0" s:y="10" s:pid="A"/>
    <g s:x="25" s:y="10" s:pid="Y"/>
  </g>
  <g s:type="not" transform="translate(789,374)" s:width="30" s:height="20" id="cell_$auto$aigmap.cc:132:execute$69">
    <s:alias val="$_NOT_"/>
    <s:alias val="$not"/>
    <s:alias val="$logic_not"/>
    <path d="M0,0 L0,20 L20,10 Z" class="cell_$auto$aigmap.cc:132:execute$69"/>
    <circle cx="23" cy="10" r="3" class="cell_$auto$aigmap.cc:132:execute$69"/>
    <g s:x="0" s:y="10" s:pid="A"/>
    <g s:x="25" s:y="10" s:pid="Y"/>
  </g>
  <g s:type="inputExt" transform="translate(12,117)" s:width="30" s:height="20" id="cell_in">
    <text x="15" y="-4" class="nodelabel cell_in" s:attribute="ref">in</text>
    <s:alias val="$_inputExt_"/>
    <path d="M0,0 L0,20 L15,20 L30,10 L15,0 Z" class="cell_in"/>
    <g s:x="28" s:y="10" s:pid="Y"/>
  </g>
  <g s:type="outputExt" transform="translate(919,29.5)" s:width="30" s:height="20" id="cell_out_and">
    <text x="15" y="-4" class="nodelabel cell_out_and" s:attribute="ref">out_and</text>
    <s:alias val="$_outputExt_"/>
    <path d="M30,0 L30,20 L15,20 L0,10 L15,0 Z" class="cell_out_and"/>
    <g s:x="0" s:y="10" s:pid="A"/>
  </g>
  <g s:type="outputExt" transform="translate(919,94.5)" s:width="30" s:height="20" id="cell_out_or">
    <text x="15" y="-4" class="nodelabel cell_out_or" s:attribute="ref">out_or</text>
    <s:alias val="$_outputExt_"/>
    <path d="M30,0 L30,20 L15,20 L0,10 L15,0 Z" class="cell_out_or"/>
    <g s:x="0" s:y="10" s:pid="A"/>
  </g>
  <g s:type="outputExt" transform="translate(919,233)" s:width="30" s:height="20" id="cell_out_xor">
    <text x="15" y="-4" class="nodelabel cell_out_xor" s:attribute="ref">out_xor</text>
    <s:alias val="$_outputExt_"/>
    <path d="M30,0 L30,20 L15,20 L0,10 L15,0 Z" class="cell_out_xor"/>
    <g s:x="0" s:y="10" s:pid="A"/>
  </g>
  <g s:type="split" transform="translate(77,106.5)" s:width="5" s:height="40" id="cell_$split$,2,3,4,5,">
    <rect width="5" height="80" class="splitjoinBody" s:generic="body"/>
    <s:alias val="$_split_"/>
    <g s:x="0" s:y="20" s:pid="in"/>
    <g transform="translate(4,10)" s:x="4" s:y="10" s:pid="out0">
      <text x="5" y="-4">0</text>
    </g>
    <g transform="translate(4,30)" s:x="4" s:y="10" s:pid="out0">
      <text x="5" y="-4">1</text>
    </g>
    <g transform="translate(4,50)" s:x="4" s:y="10" s:pid="out0">
      <text x="5" y="-4">2</text>
    </g>
    <g transform="translate(4,70)" s:x="4" s:y="10" s:pid="out0">
      <text x="5" y="-4">3</text>
    </g>
  </g>
  <line x1="619" x2="659" y1="82" y2="82" class="net_9"/>
  <line x1="619" x2="634" y1="137" y2="137" class="net_10"/>
  <line x1="634" x2="634" y1="137" y2="97" class="net_10"/>
  <line x1="634" x2="659" y1="97" y2="97" class="net_10"/>
  <line x1="689" x2="724" y1="89.5" y2="89.5" class="net_11"/>
  <line x1="684" x2="699" y1="157" y2="157" class="net_12"/>
  <line x1="699" x2="699" y1="157" y2="104.5" class="net_12"/>
  <line x1="699" x2="724" y1="104.5" y2="104.5" class="net_12"/>
  <line x1="754" x2="789" y1="97" y2="97" class="net_13"/>
  <line x1="749" x2="764" y1="177" y2="177" class="net_14"/>
  <line x1="764" x2="764" y1="177" y2="112" class="net_14"/>
  <line x1="764" x2="789" y1="112" y2="112" class="net_14"/>
  <line x1="164" x2="204" y1="198" y2="198" class="net_16"/>
  <line x1="164" x2="179" y1="253" y2="253" class="net_17"/>
  <line x1="179" x2="179" y1="253" y2="213" class="net_17"/>
  <line x1="179" x2="204" y1="213" y2="213" class="net_17"/>
  <line x1="82" x2="129" y1="117" y2="117" class="net_2"/>
  <line x1="129" x2="129" y1="117" y2="289" class="net_2"/>
  <circle cx="129" cy="117" r="2" style="fill:#000" class="net_2"/>
  <line x1="129" x2="204" y1="289" y2="289" class="net_2"/>
  <line x1="82" x2="129" y1="117" y2="117" class="net_2"/>
  <line x1="129" x2="129" y1="117" y2="17" class="net_2"/>
  <line x1="129" x2="724" y1="17" y2="17" class="net_2"/>
  <line x1="82" x2="129" y1="117" y2="117" class="net_2"/>
  <line x1="129" x2="129" y1="117" y2="82" class="net_2"/>
  <circle cx="129" cy="82" r="2" style="fill:#000" class="net_2"/>
  <line x1="129" x2="594" y1="82" y2="82" class="net_2"/>
  <line x1="82" x2="129" y1="117" y2="117" class="net_2"/>
  <line x1="129" x2="129" y1="117" y2="198" class="net_2"/>
  <circle cx="129" cy="198" r="2" style="fill:#000" class="net_2"/>
  <line x1="129" x2="139" y1="198" y2="198" class="net_2"/>
  <line x1="82" x2="119" y1="137" y2="137" class="net_3"/>
  <line x1="119" x2="119" y1="137" y2="304" class="net_3"/>
  <circle cx="119" cy="137" r="2" style="fill:#000" class="net_3"/>
  <line x1="119" x2="204" y1="304" y2="304" class="net_3"/>
  <line x1="82" x2="119" y1="137" y2="137" class="net_3"/>
  <line x1="119" x2="119" y1="137" y2="32" class="net_3"/>
  <line x1="119" x2="724" y1="32" y2="32" class="net_3"/>
  <line x1="82" x2="594" y1="137" y2="137" class="net_3"/>
  <line x1="82" x2="119" y1="137" y2="137" class="net_3"/>
  <line x1="119" x2="119" y1="137" y2="253" class="net_3"/>
  <circle cx="119" cy="253" r="2" style="fill:#000" class="net_3"/>
  <line x1="119" x2="139" y1="253" y2="253" class="net_3"/>
  <line x1="294" x2="319" y1="205.5" y2="205.5" class="net_20"/>
  <line x1="319" x2="319" y1="205.5" y2="369" class="net_20"/>
  <circle cx="319" cy="205.5" r="2" style="fill:#000" class="net_20"/>
  <line x1="319" x2="399" y1="369" y2="369" class="net_20"/>
  <line x1="294" x2="334" y1="205.5" y2="205.5" class="net_20"/>
  <line x1="294" x2="309" y1="296.5" y2="296.5" class="net_21"/>
  <line x1="309" x2="309" y1="296.5" y2="384" class="net_21"/>
  <circle cx="309" cy="296.5" r="2" style="fill:#000" class="net_21"/>
  <line x1="309" x2="399" y1="384" y2="384" class="net_21"/>
  <line x1="294" x2="309" y1="296.5" y2="296.5" class="net_21"/>
  <line x1="309" x2="309" y1="296.5" y2="220.5" class="net_21"/>
  <line x1="309" x2="334" y1="220.5" y2="220.5" class="net_21"/>
  <line x1="424" x2="464" y1="213" y2="213" class="net_24"/>
  <line x1="424" x2="439" y1="273" y2="273" class="net_25"/>
  <line x1="439" x2="439" y1="273" y2="228" class="net_25"/>
  <line x1="439" x2="464" y1="228" y2="228" class="net_25"/>
  <line x1="429" x2="464" y1="376.5" y2="376.5" class="net_22"/>
  <line x1="82" x2="109" y1="157" y2="157" class="net_4"/>
  <line x1="109" x2="109" y1="157" y2="399" class="net_4"/>
  <line x1="109" x2="439" y1="399" y2="399" class="net_4"/>
  <line x1="439" x2="439" y1="399" y2="391.5" class="net_4"/>
  <circle cx="109" cy="157" r="2" style="fill:#000" class="net_4"/>
  <line x1="439" x2="464" y1="391.5" y2="391.5" class="net_4"/>
  <line x1="82" x2="109" y1="157" y2="157" class="net_4"/>
  <line x1="109" x2="109" y1="157" y2="47" class="net_4"/>
  <line x1="109" x2="764" y1="47" y2="47" class="net_4"/>
  <line x1="764" x2="764" y1="47" y2="39.5" class="net_4"/>
  <line x1="764" x2="789" y1="39.5" y2="39.5" class="net_4"/>
  <line x1="82" x2="659" y1="157" y2="157" class="net_4"/>
  <line x1="82" x2="109" y1="157" y2="157" class="net_4"/>
  <line x1="109" x2="109" y1="157" y2="273" class="net_4"/>
  <circle cx="109" cy="273" r="2" style="fill:#000" class="net_4"/>
  <line x1="109" x2="399" y1="273" y2="273" class="net_4"/>
  <line x1="554" x2="579" y1="220.5" y2="220.5" class="net_29"/>
  <line x1="579" x2="579" y1="220.5" y2="369" class="net_29"/>
  <circle cx="579" cy="220.5" r="2" style="fill:#000" class="net_29"/>
  <line x1="579" x2="659" y1="369" y2="369" class="net_29"/>
  <line x1="554" x2="594" y1="220.5" y2="220.5" class="net_29"/>
  <line x1="554" x2="659" y1="384" y2="384" class="net_30"/>
  <line x1="554" x2="569" y1="384" y2="384" class="net_30"/>
  <line x1="569" x2="569" y1="384" y2="235.5" class="net_30"/>
  <circle cx="569" cy="384" r="2" style="fill:#000" class="net_30"/>
  <line x1="569" x2="594" y1="235.5" y2="235.5" class="net_30"/>
  <line x1="684" x2="724" y1="228" y2="228" class="net_33"/>
  <line x1="684" x2="699" y1="319" y2="319" class="net_34"/>
  <line x1="699" x2="699" y1="319" y2="243" class="net_34"/>
  <line x1="699" x2="724" y1="243" y2="243" class="net_34"/>
  <line x1="689" x2="724" y1="376.5" y2="376.5" class="net_31"/>
  <line x1="82" x2="99" y1="177" y2="177" class="net_5"/>
  <line x1="99" x2="99" y1="177" y2="410" class="net_5"/>
  <line x1="99" x2="699" y1="410" y2="410" class="net_5"/>
  <line x1="699" x2="699" y1="410" y2="391.5" class="net_5"/>
  <circle cx="99" cy="177" r="2" style="fill:#000" class="net_5"/>
  <line x1="699" x2="724" y1="391.5" y2="391.5" class="net_5"/>
  <line x1="82" x2="99" y1="177" y2="177" class="net_5"/>
  <line x1="99" x2="99" y1="177" y2="58" class="net_5"/>
  <line x1="99" x2="829" y1="58" y2="58" class="net_5"/>
  <line x1="829" x2="829" y1="58" y2="47" class="net_5"/>
  <line x1="829" x2="854" y1="47" y2="47" class="net_5"/>
  <line x1="82" x2="724" y1="177" y2="177" class="net_5"/>
  <line x1="82" x2="99" y1="177" y2="177" class="net_5"/>
  <line x1="99" x2="99" y1="177" y2="319" class="net_5"/>
  <circle cx="99" cy="319" r="2" style="fill:#000" class="net_5"/>
  <line x1="99" x2="659" y1="319" y2="319" class="net_5"/>
  <line x1="754" x2="789" y1="24.5" y2="24.5" class="net_27"/>
  <line x1="814" x2="854" y1="235.5" y2="235.5" class="net_38"/>
  <line x1="814" x2="829" y1="384" y2="384" class="net_39"/>
  <line x1="829" x2="829" y1="384" y2="250.5" class="net_39"/>
  <line x1="829" x2="854" y1="250.5" y2="250.5" class="net_39"/>
  <line x1="819" x2="854" y1="32" y2="32" class="net_37"/>
  <line x1="819" x2="854" y1="104.5" y2="104.5" class="net_15"/>
  <line x1="234" x2="269" y1="205.5" y2="205.5" class="net_18"/>
  <line x1="234" x2="269" y1="296.5" y2="296.5" class="net_19"/>
  <line x1="364" x2="399" y1="213" y2="213" class="net_23"/>
  <line x1="494" x2="529" y1="220.5" y2="220.5" class="net_26"/>
  <line x1="494" x2="529" y1="384" y2="384" class="net_28"/>
  <line x1="624" x2="659" y1="228" y2="228" class="net_32"/>
  <line x1="754" x2="789" y1="235.5" y2="235.5" class="net_35"/>
  <line x1="754" x2="789" y1="384" y2="384" class="net_36"/>
  <line x1="884" x2="919" y1="39.5" y2="39.5" class="net_6"/>
  <line x1="879" x2="919" y1="104.5" y2="104.5" class="net_7"/>
  <line x1="884" x2="919" y1="243" y2="243" class="net_8"/>
  <line x1="40" x2="77" y1="127" y2="127" class="net_2,3,4,5"/>
</svg>
