<?xml version="1.0" encoding="UTF-8" standalone="no"?>
<!DOCTYPE svg PUBLIC "-//W3C//DTD SVG 1.1//EN"
 "http://www.w3.org/Graphics/SVG/1.1/DTD/svg11.dtd">
<!-- Generated by graphviz version 4.0.0 (20220529.0937)
 -->
<!-- Title: top_module Pages: 1 -->
<svg width="387pt" height="184pt"
 viewBox="0.00 0.00 387.23 184.00" xmlns="http://www.w3.org/2000/svg" xmlns:xlink="http://www.w3.org/1999/xlink">
<g id="graph0" class="graph" transform="scale(1 1) rotate(0) translate(4 180)">
<title>top_module</title>
<polygon fill="white" stroke="transparent" points="-4,4 -4,-180 383.23,-180 383.23,4 -4,4"/>
<text text-anchor="middle" x="189.62" y="-7.8" font-family="Times New Roman,serif" font-size="14.00">top_module</text>
<!-- n1 -->
<g id="node1" class="node">
<title>n1</title>
<polygon fill="none" stroke="black" points="54,-92.04 54,-106.96 38.18,-117.5 15.82,-117.5 0,-106.96 0,-92.04 15.82,-81.5 38.18,-81.5 54,-92.04"/>
<text text-anchor="middle" x="27" y="-95.8" font-family="Times New Roman,serif" font-size="14.00">in</text>
</g>
<!-- c7 -->
<g id="node5" class="node">
<title>c7</title>
<polygon fill="none" stroke="black" points="114,-137.5 114,-175.5 255,-175.5 255,-137.5 114,-137.5"/>
<text text-anchor="middle" x="127" y="-152.8" font-family="Times New Roman,serif" font-size="14.00">A</text>
<polyline fill="none" stroke="black" points="140,-137.5 140,-175.5 "/>
<text text-anchor="middle" x="184.5" y="-160.3" font-family="Times New Roman,serif" font-size="14.00">$1</text>
<text text-anchor="middle" x="184.5" y="-145.3" font-family="Times New Roman,serif" font-size="14.00">$reduce_and</text>
<polyline fill="none" stroke="black" points="229,-137.5 229,-175.5 "/>
<text text-anchor="middle" x="242" y="-152.8" font-family="Times New Roman,serif" font-size="14.00">Y</text>
</g>
<!-- n1&#45;&gt;c7 -->
<g id="edge1" class="edge">
<title>n1:e&#45;&gt;c7:w</title>
<path fill="none" stroke="#66a61e" stroke-width="3" d="M54,-99.5C65.63,-99.5 63.68,-110.37 72,-118.5 87.19,-133.35 88.73,-150.19 103.96,-155.09"/>
<polygon fill="#66a61e" stroke="#66a61e" stroke-width="3" points="103.61,-158.58 114,-156.5 104.58,-151.65 103.61,-158.58"/>
<text text-anchor="middle" x="84" y="-153.3" font-family="Times New Roman,serif" font-size="14.00" fill="#66a61e">&lt;4&gt;</text>
</g>
<!-- c8 -->
<g id="node6" class="node">
<title>c8</title>
<polygon fill="none" stroke="black" points="118.5,-80.5 118.5,-118.5 250.5,-118.5 250.5,-80.5 118.5,-80.5"/>
<text text-anchor="middle" x="131.5" y="-95.8" font-family="Times New Roman,serif" font-size="14.00">A</text>
<polyline fill="none" stroke="black" points="144.5,-80.5 144.5,-118.5 "/>
<text text-anchor="middle" x="184.5" y="-103.3" font-family="Times New Roman,serif" font-size="14.00">$2</text>
<text text-anchor="middle" x="184.5" y="-88.3" font-family="Times New Roman,serif" font-size="14.00">$reduce_or</text>
<polyline fill="none" stroke="black" points="224.5,-80.5 224.5,-118.5 "/>
<text text-anchor="middle" x="237.5" y="-95.8" font-family="Times New Roman,serif" font-size="14.00">Y</text>
</g>
<!-- n1&#45;&gt;c8 -->
<g id="edge2" class="edge">
<title>n1:e&#45;&gt;c8:w</title>
<path fill="none" stroke="#66a61e" stroke-width="3" d="M54,-99.5C78.47,-99.5 87.03,-99.5 107.28,-99.5"/>
<polygon fill="#66a61e" stroke="#66a61e" stroke-width="3" points="107.5,-103 117.5,-99.5 107.5,-96 107.5,-103"/>
<text text-anchor="middle" x="84" y="-103.3" font-family="Times New Roman,serif" font-size="14.00" fill="#66a61e">&lt;4&gt;</text>
</g>
<!-- c9 -->
<g id="node7" class="node">
<title>c9</title>
<polygon fill="none" stroke="black" points="115,-23.5 115,-61.5 254,-61.5 254,-23.5 115,-23.5"/>
<text text-anchor="middle" x="128" y="-38.8" font-family="Times New Roman,serif" font-size="14.00">A</text>
<polyline fill="none" stroke="black" points="141,-23.5 141,-61.5 "/>
<text text-anchor="middle" x="184.5" y="-46.3" font-family="Times New Roman,serif" font-size="14.00">$3</text>
<text text-anchor="middle" x="184.5" y="-31.3" font-family="Times New Roman,serif" font-size="14.00">$reduce_xor</text>
<polyline fill="none" stroke="black" points="228,-23.5 228,-61.5 "/>
<text text-anchor="middle" x="241" y="-38.8" font-family="Times New Roman,serif" font-size="14.00">Y</text>
</g>
<!-- n1&#45;&gt;c9 -->
<g id="edge3" class="edge">
<title>n1:e&#45;&gt;c9:w</title>
<path fill="none" stroke="#66a61e" stroke-width="3" d="M54,-99.5C65.63,-99.5 63.68,-88.63 72,-80.5 87.19,-65.65 88.73,-48.81 103.96,-43.91"/>
<polygon fill="#66a61e" stroke="#66a61e" stroke-width="3" points="104.58,-47.35 114,-42.5 103.61,-40.42 104.58,-47.35"/>
<text text-anchor="middle" x="84" y="-84.3" font-family="Times New Roman,serif" font-size="14.00" fill="#66a61e">&lt;4&gt;</text>
</g>
<!-- n2 -->
<g id="node2" class="node">
<title>n2</title>
<polygon fill="none" stroke="black" points="379.35,-149.04 379.35,-163.96 353.73,-174.5 317.5,-174.5 291.88,-163.96 291.88,-149.04 317.5,-138.5 353.73,-138.5 379.35,-149.04"/>
<text text-anchor="middle" x="335.62" y="-152.8" font-family="Times New Roman,serif" font-size="14.00">out_and</text>
</g>
<!-- n3 -->
<g id="node3" class="node">
<title>n3</title>
<polygon fill="none" stroke="black" points="373.59,-92.04 373.59,-106.96 351.35,-117.5 319.89,-117.5 297.64,-106.96 297.64,-92.04 319.89,-81.5 351.35,-81.5 373.59,-92.04"/>
<text text-anchor="middle" x="335.62" y="-95.8" font-family="Times New Roman,serif" font-size="14.00">out_or</text>
</g>
<!-- n4 -->
<g id="node4" class="node">
<title>n4</title>
<polygon fill="none" stroke="black" points="378.44,-35.04 378.44,-49.96 353.36,-60.5 317.88,-60.5 292.79,-49.96 292.79,-35.04 317.88,-24.5 353.36,-24.5 378.44,-35.04"/>
<text text-anchor="middle" x="335.62" y="-38.8" font-family="Times New Roman,serif" font-size="14.00">out_xor</text>
</g>
<!-- c7&#45;&gt;n2 -->
<g id="edge4" class="edge">
<title>c7:e&#45;&gt;n2:w</title>
<path fill="none" stroke="#1b9e77" d="M255,-156.5C267.46,-156.5 272.84,-156.5 281.87,-156.5"/>
<polygon fill="#1b9e77" stroke="#1b9e77" points="282,-160 292,-156.5 282,-153 282,-160"/>
</g>
<!-- c8&#45;&gt;n3 -->
<g id="edge5" class="edge">
<title>c8:e&#45;&gt;n3:w</title>
<path fill="none" stroke="#1b9e77" d="M251.5,-99.5C267.64,-99.5 274.03,-99.5 286.36,-99.5"/>
<polygon fill="#1b9e77" stroke="#1b9e77" points="286.62,-103 296.62,-99.5 286.62,-96 286.62,-103"/>
</g>
<!-- c9&#45;&gt;n4 -->
<g id="edge6" class="edge">
<title>c9:e&#45;&gt;n4:w</title>
<path fill="none" stroke="#7570b3" d="M255,-42.5C267.46,-42.5 272.84,-42.5 281.87,-42.5"/>
<polygon fill="#7570b3" stroke="#7570b3" points="282,-46 292,-42.5 282,-39 282,-46"/>
</g>
</g>
</svg>
