<?xml version="1.0" encoding="UTF-8" standalone="no"?>
<!DOCTYPE svg PUBLIC "-//W3C//DTD SVG 1.1//EN"
 "http://www.w3.org/Graphics/SVG/1.1/DTD/svg11.dtd">
<!-- Generated by graphviz version 4.0.0 (20220529.0937)
 -->
<!-- Title: top_module Pages: 1 -->
<svg width="2658pt" height="1170pt"
 viewBox="0.00 0.00 2657.92 1170.49" xmlns="http://www.w3.org/2000/svg" xmlns:xlink="http://www.w3.org/1999/xlink">
<g id="graph0" class="graph" transform="scale(1 1) rotate(0) translate(4 1166.49)">
<title>top_module</title>
<polygon fill="white" stroke="transparent" points="-4,4 -4,-1166.49 2653.92,-1166.49 2653.92,4 -4,4"/>
<text text-anchor="middle" x="1324.96" y="-7.8" font-family="Times New Roman,serif" font-size="14.00">top_module</text>
<!-- n1 -->
<g id="node1" class="node">
<title>n1</title>
<polygon fill="none" stroke="black" points="252.22,-1012.5 78.28,-994.5 252.22,-976.5 426.16,-994.5 252.22,-1012.5"/>
<text text-anchor="middle" x="252.22" y="-990.8" font-family="Times New Roman,serif" font-size="14.00">counter_SB_CARRY_CI_CO</text>
</g>
<!-- x4 -->
<g id="node14" class="node">
<title>x4</title>
<path fill="none" stroke="black" d="M577.94,-1059.5C577.94,-1059.5 615.94,-1059.5 615.94,-1059.5 621.94,-1059.5 627.94,-1065.5 627.94,-1071.5 627.94,-1071.5 627.94,-1083.5 627.94,-1083.5 627.94,-1089.5 621.94,-1095.5 615.94,-1095.5 615.94,-1095.5 577.94,-1095.5 577.94,-1095.5 571.94,-1095.5 565.94,-1089.5 565.94,-1083.5 565.94,-1083.5 565.94,-1071.5 565.94,-1071.5 565.94,-1065.5 571.94,-1059.5 577.94,-1059.5"/>
<text text-anchor="middle" x="596.94" y="-1073.8" font-family="Times New Roman,serif" font-size="14.00">2:2 &#45; 0:0</text>
</g>
<!-- n1&#45;&gt;x4 -->
<g id="edge32" class="edge">
<title>n1:e&#45;&gt;x4:w</title>
<path fill="none" stroke="#7570b3" stroke-width="3" d="M425.94,-994.5C444.23,-994.5 430.43,-1019.18 443.94,-1031.5 484.17,-1068.18 505.34,-1076.54 555.81,-1077.42"/>
<polygon fill="#7570b3" stroke="#7570b3" stroke-width="3" points="555.91,-1080.92 565.94,-1077.5 555.97,-1073.92 555.91,-1080.92"/>
<text text-anchor="middle" x="455.94" y="-1054.3" font-family="Times New Roman,serif" font-size="14.00" fill="#7570b3">&lt;2&gt;</text>
</g>
<!-- x11 -->
<g id="node21" class="node">
<title>x11</title>
<path fill="none" stroke="black" d="M497.94,-442.5C497.94,-442.5 535.94,-442.5 535.94,-442.5 541.94,-442.5 547.94,-448.5 547.94,-454.5 547.94,-454.5 547.94,-466.5 547.94,-466.5 547.94,-472.5 541.94,-478.5 535.94,-478.5 535.94,-478.5 497.94,-478.5 497.94,-478.5 491.94,-478.5 485.94,-472.5 485.94,-466.5 485.94,-466.5 485.94,-454.5 485.94,-454.5 485.94,-448.5 491.94,-442.5 497.94,-442.5"/>
<text text-anchor="middle" x="516.94" y="-456.8" font-family="Times New Roman,serif" font-size="14.00">2:2 &#45; 0:0</text>
</g>
<!-- n1&#45;&gt;x11 -->
<g id="edge30" class="edge">
<title>n1:e&#45;&gt;x11:w</title>
<path fill="none" stroke="#7570b3" stroke-width="3" d="M425.94,-994.5C435.89,-994.5 466.52,-830.34 467.94,-820.5 470.53,-802.58 466.78,-522.68 480.85,-469.27"/>
<polygon fill="#7570b3" stroke="#7570b3" stroke-width="3" points="483.95,-470.91 485.94,-460.5 477.89,-467.39 483.95,-470.91"/>
<text text-anchor="middle" x="455.94" y="-939.3" font-family="Times New Roman,serif" font-size="14.00" fill="#7570b3">&lt;2&gt;</text>
</g>
<!-- x16 -->
<g id="node27" class="node">
<title>x16</title>
<path fill="none" stroke="black" d="M888.94,-197.5C888.94,-197.5 926.94,-197.5 926.94,-197.5 932.94,-197.5 938.94,-203.5 938.94,-209.5 938.94,-209.5 938.94,-221.5 938.94,-221.5 938.94,-227.5 932.94,-233.5 926.94,-233.5 926.94,-233.5 888.94,-233.5 888.94,-233.5 882.94,-233.5 876.94,-227.5 876.94,-221.5 876.94,-221.5 876.94,-209.5 876.94,-209.5 876.94,-203.5 882.94,-197.5 888.94,-197.5"/>
<text text-anchor="middle" x="907.94" y="-211.8" font-family="Times New Roman,serif" font-size="14.00">3:3 &#45; 0:0</text>
</g>
<!-- n1&#45;&gt;x16 -->
<g id="edge31" class="edge">
<title>n1:e&#45;&gt;x16:w</title>
<path fill="none" stroke="#7570b3" stroke-width="3" d="M425.94,-994.5C445.38,-994.5 441.93,-839.83 443.94,-820.5 462.54,-641.38 384.43,-566.24 485.94,-417.5 594.27,-258.78 678.34,-216.96 866.73,-215.54"/>
<polygon fill="#7570b3" stroke="#7570b3" stroke-width="3" points="866.95,-219.04 876.94,-215.5 866.93,-212.04 866.95,-219.04"/>
<text text-anchor="middle" x="516.94" y="-421.3" font-family="Times New Roman,serif" font-size="14.00" fill="#7570b3">&lt;2&gt;</text>
</g>
<!-- n2 -->
<g id="node2" class="node">
<title>n2</title>
<polygon fill="none" stroke="black" points="1212.2,-496.5 1056.18,-478.5 1212.2,-460.5 1368.21,-478.5 1212.2,-496.5"/>
<text text-anchor="middle" x="1212.2" y="-474.8" font-family="Times New Roman,serif" font-size="14.00">counter_SB_DFFSR_Q_D</text>
</g>
<!-- x28 -->
<g id="node42" class="node">
<title>x28</title>
<path fill="none" stroke="black" d="M1417.46,-567.5C1417.46,-567.5 1455.46,-567.5 1455.46,-567.5 1461.46,-567.5 1467.46,-573.5 1467.46,-579.5 1467.46,-579.5 1467.46,-591.5 1467.46,-591.5 1467.46,-597.5 1461.46,-603.5 1455.46,-603.5 1455.46,-603.5 1417.46,-603.5 1417.46,-603.5 1411.46,-603.5 1405.46,-597.5 1405.46,-591.5 1405.46,-591.5 1405.46,-579.5 1405.46,-579.5 1405.46,-573.5 1411.46,-567.5 1417.46,-567.5"/>
<text text-anchor="middle" x="1436.46" y="-581.8" font-family="Times New Roman,serif" font-size="14.00">1:1 &#45; 0:0</text>
</g>
<!-- n2&#45;&gt;x28 -->
<g id="edge37" class="edge">
<title>n2:e&#45;&gt;x28:w</title>
<path fill="none" stroke="#e6ab02" d="M1368.46,-478.5C1390.08,-478.5 1383.28,-557.52 1396.91,-579.75"/>
<polygon fill="#e6ab02" stroke="#e6ab02" points="1395.21,-582.82 1405.46,-585.5 1399.11,-577.01 1395.21,-582.82"/>
</g>
<!-- x30 -->
<g id="node45" class="node">
<title>x30</title>
<path fill="none" stroke="black" d="M1417.46,-685.5C1417.46,-685.5 1455.46,-685.5 1455.46,-685.5 1461.46,-685.5 1467.46,-691.5 1467.46,-697.5 1467.46,-697.5 1467.46,-709.5 1467.46,-709.5 1467.46,-715.5 1461.46,-721.5 1455.46,-721.5 1455.46,-721.5 1417.46,-721.5 1417.46,-721.5 1411.46,-721.5 1405.46,-715.5 1405.46,-709.5 1405.46,-709.5 1405.46,-697.5 1405.46,-697.5 1405.46,-691.5 1411.46,-685.5 1417.46,-685.5"/>
<text text-anchor="middle" x="1436.46" y="-699.8" font-family="Times New Roman,serif" font-size="14.00">2:2 &#45; 0:0</text>
</g>
<!-- n2&#45;&gt;x30 -->
<g id="edge38" class="edge">
<title>n2:e&#45;&gt;x30:w</title>
<path fill="none" stroke="#e6ab02" d="M1368.46,-478.5C1391.02,-478.5 1382.64,-656.97 1398.44,-696.01"/>
<polygon fill="#e6ab02" stroke="#e6ab02" points="1396.06,-698.6 1405.46,-703.5 1401.17,-693.81 1396.06,-698.6"/>
</g>
<!-- x32 -->
<g id="node48" class="node">
<title>x32</title>
<path fill="none" stroke="black" d="M1417.46,-838.5C1417.46,-838.5 1455.46,-838.5 1455.46,-838.5 1461.46,-838.5 1467.46,-844.5 1467.46,-850.5 1467.46,-850.5 1467.46,-862.5 1467.46,-862.5 1467.46,-868.5 1461.46,-874.5 1455.46,-874.5 1455.46,-874.5 1417.46,-874.5 1417.46,-874.5 1411.46,-874.5 1405.46,-868.5 1405.46,-862.5 1405.46,-862.5 1405.46,-850.5 1405.46,-850.5 1405.46,-844.5 1411.46,-838.5 1417.46,-838.5"/>
<text text-anchor="middle" x="1436.46" y="-852.8" font-family="Times New Roman,serif" font-size="14.00">3:3 &#45; 0:0</text>
</g>
<!-- n2&#45;&gt;x32 -->
<g id="edge39" class="edge">
<title>n2:e&#45;&gt;x32:w</title>
<path fill="none" stroke="#e6ab02" d="M1368.46,-478.5C1387.62,-478.5 1385.09,-790.29 1400.27,-847.53"/>
<polygon fill="#e6ab02" stroke="#e6ab02" points="1397.42,-849.59 1405.46,-856.5 1403.48,-846.09 1397.42,-849.59"/>
</g>
<!-- x34 -->
<g id="node51" class="node">
<title>x34</title>
<path fill="none" stroke="black" d="M1417.46,-465.5C1417.46,-465.5 1455.46,-465.5 1455.46,-465.5 1461.46,-465.5 1467.46,-471.5 1467.46,-477.5 1467.46,-477.5 1467.46,-489.5 1467.46,-489.5 1467.46,-495.5 1461.46,-501.5 1455.46,-501.5 1455.46,-501.5 1417.46,-501.5 1417.46,-501.5 1411.46,-501.5 1405.46,-495.5 1405.46,-489.5 1405.46,-489.5 1405.46,-477.5 1405.46,-477.5 1405.46,-471.5 1411.46,-465.5 1417.46,-465.5"/>
<text text-anchor="middle" x="1436.46" y="-479.8" font-family="Times New Roman,serif" font-size="14.00">0:0 &#45; 0:0</text>
</g>
<!-- n2&#45;&gt;x34 -->
<g id="edge40" class="edge">
<title>n2:e&#45;&gt;x34:w</title>
<path fill="none" stroke="#e6ab02" d="M1368.46,-478.5C1381.03,-478.5 1386.27,-481.37 1395.28,-482.76"/>
<polygon fill="#e6ab02" stroke="#e6ab02" points="1395.23,-486.27 1405.46,-483.5 1395.73,-479.29 1395.23,-486.27"/>
</g>
<!-- n3 -->
<g id="node3" class="node">
<title>n3</title>
<polygon fill="none" stroke="black" points="57.25,-824.04 57.25,-838.96 41.43,-849.5 19.07,-849.5 3.25,-838.96 3.25,-824.04 19.07,-813.5 41.43,-813.5 57.25,-824.04"/>
<text text-anchor="middle" x="30.25" y="-827.8" font-family="Times New Roman,serif" font-size="14.00">clk</text>
</g>
<!-- c24 -->
<g id="node41" class="node">
<title>c24</title>
<polygon fill="none" stroke="black" points="1527.46,-655 1527.46,-724 1747.46,-724 1747.46,-655 1527.46,-655"/>
<text text-anchor="middle" x="1540.46" y="-708.8" font-family="Times New Roman,serif" font-size="14.00">C</text>
<polyline fill="none" stroke="black" points="1527.46,-701 1553.46,-701 "/>
<text text-anchor="middle" x="1540.46" y="-685.8" font-family="Times New Roman,serif" font-size="14.00">D</text>
<polyline fill="none" stroke="black" points="1527.46,-678 1553.46,-678 "/>
<text text-anchor="middle" x="1540.46" y="-662.8" font-family="Times New Roman,serif" font-size="14.00">R</text>
<polyline fill="none" stroke="black" points="1553.46,-655 1553.46,-724 "/>
<text text-anchor="middle" x="1636.96" y="-693.3" font-family="Times New Roman,serif" font-size="14.00">counter_SB_DFFSR_Q_2</text>
<text text-anchor="middle" x="1636.96" y="-678.3" font-family="Times New Roman,serif" font-size="14.00">SB_DFFSR</text>
<polyline fill="none" stroke="black" points="1720.46,-655 1720.46,-724 "/>
<text text-anchor="middle" x="1733.96" y="-685.8" font-family="Times New Roman,serif" font-size="14.00">Q</text>
</g>
<!-- n3&#45;&gt;c24 -->
<g id="edge41" class="edge">
<title>n3:e&#45;&gt;c24:w</title>
<path fill="none" stroke="#7570b3" d="M58.25,-831.5C67.42,-831.5 69.47,-829.1 78.5,-827.5 245.26,-797.97 285.59,-768.5 454.94,-768.5 454.94,-768.5 454.94,-768.5 988.94,-768.5 1202.32,-768.5 1257.48,-767.43 1467.46,-729.5 1491,-725.25 1497.95,-715.67 1517.25,-713.13"/>
<polygon fill="#7570b3" stroke="#7570b3" points="1517.69,-716.61 1527.46,-712.5 1517.26,-709.62 1517.69,-716.61"/>
</g>
<!-- c25 -->
<g id="node44" class="node">
<title>c25</title>
<polygon fill="none" stroke="black" points="1527.46,-745 1527.46,-814 1747.46,-814 1747.46,-745 1527.46,-745"/>
<text text-anchor="middle" x="1540.46" y="-798.8" font-family="Times New Roman,serif" font-size="14.00">C</text>
<polyline fill="none" stroke="black" points="1527.46,-791 1553.46,-791 "/>
<text text-anchor="middle" x="1540.46" y="-775.8" font-family="Times New Roman,serif" font-size="14.00">D</text>
<polyline fill="none" stroke="black" points="1527.46,-768 1553.46,-768 "/>
<text text-anchor="middle" x="1540.46" y="-752.8" font-family="Times New Roman,serif" font-size="14.00">R</text>
<polyline fill="none" stroke="black" points="1553.46,-745 1553.46,-814 "/>
<text text-anchor="middle" x="1636.96" y="-783.3" font-family="Times New Roman,serif" font-size="14.00">counter_SB_DFFSR_Q_1</text>
<text text-anchor="middle" x="1636.96" y="-768.3" font-family="Times New Roman,serif" font-size="14.00">SB_DFFSR</text>
<polyline fill="none" stroke="black" points="1720.46,-745 1720.46,-814 "/>
<text text-anchor="middle" x="1733.96" y="-775.8" font-family="Times New Roman,serif" font-size="14.00">Q</text>
</g>
<!-- n3&#45;&gt;c25 -->
<g id="edge42" class="edge">
<title>n3:e&#45;&gt;c25:w</title>
<path fill="none" stroke="#7570b3" d="M58.25,-831.5C231.1,-831.5 271.45,-870.37 443.94,-881.5 922.37,-912.38 1042.91,-804.05 1517.25,-802.52"/>
<polygon fill="#7570b3" stroke="#7570b3" points="1517.46,-806.02 1527.46,-802.5 1517.45,-799.02 1517.46,-806.02"/>
</g>
<!-- c26 -->
<g id="node47" class="node">
<title>c26</title>
<polygon fill="none" stroke="black" points="1534.46,-871 1534.46,-940 1740.46,-940 1740.46,-871 1534.46,-871"/>
<text text-anchor="middle" x="1547.46" y="-924.8" font-family="Times New Roman,serif" font-size="14.00">C</text>
<polyline fill="none" stroke="black" points="1534.46,-917 1560.46,-917 "/>
<text text-anchor="middle" x="1547.46" y="-901.8" font-family="Times New Roman,serif" font-size="14.00">D</text>
<polyline fill="none" stroke="black" points="1534.46,-894 1560.46,-894 "/>
<text text-anchor="middle" x="1547.46" y="-878.8" font-family="Times New Roman,serif" font-size="14.00">R</text>
<polyline fill="none" stroke="black" points="1560.46,-871 1560.46,-940 "/>
<text text-anchor="middle" x="1636.96" y="-909.3" font-family="Times New Roman,serif" font-size="14.00">counter_SB_DFFSR_Q</text>
<text text-anchor="middle" x="1636.96" y="-894.3" font-family="Times New Roman,serif" font-size="14.00">SB_DFFSR</text>
<polyline fill="none" stroke="black" points="1713.46,-871 1713.46,-940 "/>
<text text-anchor="middle" x="1726.96" y="-901.8" font-family="Times New Roman,serif" font-size="14.00">Q</text>
</g>
<!-- n3&#45;&gt;c26 -->
<g id="edge43" class="edge">
<title>n3:e&#45;&gt;c26:w</title>
<path fill="none" stroke="#7570b3" d="M58.25,-831.5C77.39,-831.5 62.98,-858.31 78.5,-869.5 216.15,-968.77 285.23,-933.5 454.94,-933.5 454.94,-933.5 454.94,-933.5 1437.46,-933.5 1476.51,-933.5 1488.68,-929.32 1523.11,-928.6"/>
<polygon fill="#7570b3" stroke="#7570b3" points="1523.49,-932.1 1533.46,-928.5 1523.42,-925.1 1523.49,-932.1"/>
</g>
<!-- c27 -->
<g id="node50" class="node">
<title>c27</title>
<polygon fill="none" stroke="black" points="1527.46,-527 1527.46,-596 1747.46,-596 1747.46,-527 1527.46,-527"/>
<text text-anchor="middle" x="1540.46" y="-580.8" font-family="Times New Roman,serif" font-size="14.00">C</text>
<polyline fill="none" stroke="black" points="1527.46,-573 1553.46,-573 "/>
<text text-anchor="middle" x="1540.46" y="-557.8" font-family="Times New Roman,serif" font-size="14.00">D</text>
<polyline fill="none" stroke="black" points="1527.46,-550 1553.46,-550 "/>
<text text-anchor="middle" x="1540.46" y="-534.8" font-family="Times New Roman,serif" font-size="14.00">R</text>
<polyline fill="none" stroke="black" points="1553.46,-527 1553.46,-596 "/>
<text text-anchor="middle" x="1636.96" y="-565.3" font-family="Times New Roman,serif" font-size="14.00">counter_SB_DFFSR_Q_3</text>
<text text-anchor="middle" x="1636.96" y="-550.3" font-family="Times New Roman,serif" font-size="14.00">SB_DFFSR</text>
<polyline fill="none" stroke="black" points="1720.46,-527 1720.46,-596 "/>
<text text-anchor="middle" x="1733.96" y="-557.8" font-family="Times New Roman,serif" font-size="14.00">Q</text>
</g>
<!-- n3&#45;&gt;c27 -->
<g id="edge44" class="edge">
<title>n3:e&#45;&gt;c27:w</title>
<path fill="none" stroke="#7570b3" d="M58.25,-831.5C89.36,-831.5 55.38,-785.32 78.5,-764.5 205.08,-650.51 284.6,-692.5 454.94,-692.5 454.94,-692.5 454.94,-692.5 988.94,-692.5 1204.57,-692.5 1261.53,-676.46 1467.46,-612.5 1491.94,-604.9 1496.97,-589.29 1517.31,-585.4"/>
<polygon fill="#7570b3" stroke="#7570b3" points="1517.8,-588.87 1527.46,-584.5 1517.19,-581.89 1517.8,-588.87"/>
</g>
<!-- n4 -->
<g id="node4" class="node">
<title>n4</title>
<polygon fill="none" stroke="black" points="1960.69,-698.5 1906.22,-680.5 1960.69,-662.5 2015.15,-680.5 1960.69,-698.5"/>
<text text-anchor="middle" x="1960.69" y="-676.8" font-family="Times New Roman,serif" font-size="14.00">counter</text>
</g>
<!-- x0 -->
<g id="node9" class="node">
<title>x0</title>
<path fill="none" stroke="black" d="M2086.92,-797.5C2086.92,-797.5 2124.92,-797.5 2124.92,-797.5 2130.92,-797.5 2136.92,-803.5 2136.92,-809.5 2136.92,-809.5 2136.92,-821.5 2136.92,-821.5 2136.92,-827.5 2130.92,-833.5 2124.92,-833.5 2124.92,-833.5 2086.92,-833.5 2086.92,-833.5 2080.92,-833.5 2074.92,-827.5 2074.92,-821.5 2074.92,-821.5 2074.92,-809.5 2074.92,-809.5 2074.92,-803.5 2080.92,-797.5 2086.92,-797.5"/>
<text text-anchor="middle" x="2105.92" y="-811.8" font-family="Times New Roman,serif" font-size="14.00">0:0 &#45; 0:0</text>
</g>
<!-- n4&#45;&gt;x0 -->
<g id="edge49" class="edge">
<title>n4:e&#45;&gt;x0:w</title>
<path fill="none" stroke="#d95f02" stroke-width="3" d="M2014.92,-680.5C2044.46,-680.5 2021.3,-717.33 2032.92,-744.5 2045.81,-774.65 2039.91,-807.67 2064.76,-814.3"/>
<polygon fill="#d95f02" stroke="#d95f02" stroke-width="3" points="2064.57,-817.81 2074.92,-815.5 2065.39,-810.85 2064.57,-817.81"/>
<text text-anchor="middle" x="2044.92" y="-814.3" font-family="Times New Roman,serif" font-size="14.00" fill="#d95f02">&lt;4&gt;</text>
</g>
<!-- x3 -->
<g id="node11" class="node">
<title>x3</title>
<path fill="none" stroke="black" d="M2086.92,-713.5C2086.92,-713.5 2124.92,-713.5 2124.92,-713.5 2130.92,-713.5 2136.92,-719.5 2136.92,-725.5 2136.92,-725.5 2136.92,-737.5 2136.92,-737.5 2136.92,-743.5 2130.92,-749.5 2124.92,-749.5 2124.92,-749.5 2086.92,-749.5 2086.92,-749.5 2080.92,-749.5 2074.92,-743.5 2074.92,-737.5 2074.92,-737.5 2074.92,-725.5 2074.92,-725.5 2074.92,-719.5 2080.92,-713.5 2086.92,-713.5"/>
<text text-anchor="middle" x="2105.92" y="-727.8" font-family="Times New Roman,serif" font-size="14.00">1:1 &#45; 0:0</text>
</g>
<!-- n4&#45;&gt;x3 -->
<g id="edge57" class="edge">
<title>n4:e&#45;&gt;x3:w</title>
<path fill="none" stroke="#d95f02" stroke-width="3" d="M2014.92,-680.5C2026.55,-680.5 2024.26,-691.73 2032.92,-699.5 2047.37,-712.49 2050.6,-725.91 2064.6,-730.14"/>
<polygon fill="#d95f02" stroke="#d95f02" stroke-width="3" points="2064.54,-733.66 2074.92,-731.5 2065.46,-726.72 2064.54,-733.66"/>
<text text-anchor="middle" x="2044.92" y="-729.3" font-family="Times New Roman,serif" font-size="14.00" fill="#d95f02">&lt;4&gt;</text>
</g>
<!-- x7 -->
<g id="node16" class="node">
<title>x7</title>
<path fill="none" stroke="black" d="M2086.92,-956.5C2086.92,-956.5 2124.92,-956.5 2124.92,-956.5 2130.92,-956.5 2136.92,-962.5 2136.92,-968.5 2136.92,-968.5 2136.92,-980.5 2136.92,-980.5 2136.92,-986.5 2130.92,-992.5 2124.92,-992.5 2124.92,-992.5 2086.92,-992.5 2086.92,-992.5 2080.92,-992.5 2074.92,-986.5 2074.92,-980.5 2074.92,-980.5 2074.92,-968.5 2074.92,-968.5 2074.92,-962.5 2080.92,-956.5 2086.92,-956.5"/>
<text text-anchor="middle" x="2105.92" y="-970.8" font-family="Times New Roman,serif" font-size="14.00">2:2 &#45; 0:0</text>
</g>
<!-- n4&#45;&gt;x7 -->
<g id="edge58" class="edge">
<title>n4:e&#45;&gt;x7:w</title>
<path fill="none" stroke="#d95f02" stroke-width="3" d="M2014.92,-680.5C2039.33,-680.5 2025.79,-876.15 2032.92,-899.5 2042.98,-932.47 2037.97,-967.01 2064.97,-973.44"/>
<polygon fill="#d95f02" stroke="#d95f02" stroke-width="3" points="2064.6,-976.92 2074.92,-974.5 2065.34,-969.96 2064.6,-976.92"/>
<text text-anchor="middle" x="2044.92" y="-972.3" font-family="Times New Roman,serif" font-size="14.00" fill="#d95f02">&lt;4&gt;</text>
</g>
<!-- x10 -->
<g id="node20" class="node">
<title>x10</title>
<path fill="none" stroke="black" d="M2086.92,-241.5C2086.92,-241.5 2124.92,-241.5 2124.92,-241.5 2130.92,-241.5 2136.92,-247.5 2136.92,-253.5 2136.92,-253.5 2136.92,-265.5 2136.92,-265.5 2136.92,-271.5 2130.92,-277.5 2124.92,-277.5 2124.92,-277.5 2086.92,-277.5 2086.92,-277.5 2080.92,-277.5 2074.92,-271.5 2074.92,-265.5 2074.92,-265.5 2074.92,-253.5 2074.92,-253.5 2074.92,-247.5 2080.92,-241.5 2086.92,-241.5"/>
<text text-anchor="middle" x="2105.92" y="-255.8" font-family="Times New Roman,serif" font-size="14.00">2:2 &#45; 0:0</text>
</g>
<!-- n4&#45;&gt;x10 -->
<g id="edge50" class="edge">
<title>n4:e&#45;&gt;x10:w</title>
<path fill="none" stroke="#d95f02" stroke-width="3" d="M2014.92,-680.5C2048.97,-680.5 2021.2,-406.48 2032.92,-374.5 2039.03,-357.81 2049.53,-358.67 2056.92,-342.5 2063.29,-328.55 2058.73,-282.48 2066.92,-265.69"/>
<polygon fill="#d95f02" stroke="#d95f02" stroke-width="3" points="2069.15,-268.39 2074.92,-259.5 2064.87,-262.85 2069.15,-268.39"/>
<text text-anchor="middle" x="2044.92" y="-378.3" font-family="Times New Roman,serif" font-size="14.00" fill="#d95f02">&lt;4&gt;</text>
</g>
<!-- x15 -->
<g id="node26" class="node">
<title>x15</title>
<path fill="none" stroke="black" d="M2086.92,-283.5C2086.92,-283.5 2124.92,-283.5 2124.92,-283.5 2130.92,-283.5 2136.92,-289.5 2136.92,-295.5 2136.92,-295.5 2136.92,-307.5 2136.92,-307.5 2136.92,-313.5 2130.92,-319.5 2124.92,-319.5 2124.92,-319.5 2086.92,-319.5 2086.92,-319.5 2080.92,-319.5 2074.92,-313.5 2074.92,-307.5 2074.92,-307.5 2074.92,-295.5 2074.92,-295.5 2074.92,-289.5 2080.92,-283.5 2086.92,-283.5"/>
<text text-anchor="middle" x="2105.92" y="-297.8" font-family="Times New Roman,serif" font-size="14.00">3:3 &#45; 0:0</text>
</g>
<!-- n4&#45;&gt;x15 -->
<g id="edge51" class="edge">
<title>n4:e&#45;&gt;x15:w</title>
<path fill="none" stroke="#d95f02" stroke-width="3" d="M2014.92,-680.5C2039,-680.5 2028.02,-488.08 2032.92,-464.5 2039.68,-431.88 2048.37,-425.69 2056.92,-393.5 2061.34,-376.83 2056.5,-324.68 2066.53,-307.24"/>
<polygon fill="#d95f02" stroke="#d95f02" stroke-width="3" points="2068.64,-310.04 2074.92,-301.5 2064.69,-304.26 2068.64,-310.04"/>
<text text-anchor="middle" x="2044.92" y="-468.3" font-family="Times New Roman,serif" font-size="14.00" fill="#d95f02">&lt;4&gt;</text>
</g>
<!-- x20 -->
<g id="node32" class="node">
<title>x20</title>
<path fill="none" stroke="black" d="M2086.92,-475.5C2086.92,-475.5 2124.92,-475.5 2124.92,-475.5 2130.92,-475.5 2136.92,-481.5 2136.92,-487.5 2136.92,-487.5 2136.92,-499.5 2136.92,-499.5 2136.92,-505.5 2130.92,-511.5 2124.92,-511.5 2124.92,-511.5 2086.92,-511.5 2086.92,-511.5 2080.92,-511.5 2074.92,-505.5 2074.92,-499.5 2074.92,-499.5 2074.92,-487.5 2074.92,-487.5 2074.92,-481.5 2080.92,-475.5 2086.92,-475.5"/>
<text text-anchor="middle" x="2105.92" y="-489.8" font-family="Times New Roman,serif" font-size="14.00">1:1 &#45; 0:0</text>
</g>
<!-- n4&#45;&gt;x20 -->
<g id="edge52" class="edge">
<title>n4:e&#45;&gt;x20:w</title>
<path fill="none" stroke="#d95f02" stroke-width="3" d="M2014.92,-680.5C2024.42,-680.5 2054.62,-538.6 2069.45,-502.02"/>
<polygon fill="#d95f02" stroke="#d95f02" stroke-width="3" points="2072.47,-503.81 2074.92,-493.5 2066.57,-500.03 2072.47,-503.81"/>
<text text-anchor="middle" x="2044.92" y="-634.3" font-family="Times New Roman,serif" font-size="14.00" fill="#d95f02">&lt;4&gt;</text>
</g>
<!-- x21 -->
<g id="node33" class="node">
<title>x21</title>
<path fill="none" stroke="black" d="M2086.92,-433.5C2086.92,-433.5 2124.92,-433.5 2124.92,-433.5 2130.92,-433.5 2136.92,-439.5 2136.92,-445.5 2136.92,-445.5 2136.92,-457.5 2136.92,-457.5 2136.92,-463.5 2130.92,-469.5 2124.92,-469.5 2124.92,-469.5 2086.92,-469.5 2086.92,-469.5 2080.92,-469.5 2074.92,-463.5 2074.92,-457.5 2074.92,-457.5 2074.92,-445.5 2074.92,-445.5 2074.92,-439.5 2080.92,-433.5 2086.92,-433.5"/>
<text text-anchor="middle" x="2105.92" y="-447.8" font-family="Times New Roman,serif" font-size="14.00">0:0 &#45; 0:0</text>
</g>
<!-- n4&#45;&gt;x21 -->
<g id="edge53" class="edge">
<title>n4:e&#45;&gt;x21:w</title>
<path fill="none" stroke="#d95f02" stroke-width="3" d="M2014.92,-680.5C2032.25,-680.5 2027.51,-541.97 2032.92,-525.5 2039.63,-505.07 2046.31,-502.2 2056.92,-483.5 2062.57,-473.52 2061.11,-461.75 2065.41,-455.65"/>
<polygon fill="#d95f02" stroke="#d95f02" stroke-width="3" points="2067.15,-458.71 2074.92,-451.5 2064.35,-452.29 2067.15,-458.71"/>
<text text-anchor="middle" x="2044.92" y="-529.3" font-family="Times New Roman,serif" font-size="14.00" fill="#d95f02">&lt;4&gt;</text>
</g>
<!-- x26 -->
<g id="node39" class="node">
<title>x26</title>
<path fill="none" stroke="black" d="M2086.92,-23.5C2086.92,-23.5 2124.92,-23.5 2124.92,-23.5 2130.92,-23.5 2136.92,-29.5 2136.92,-35.5 2136.92,-35.5 2136.92,-47.5 2136.92,-47.5 2136.92,-53.5 2130.92,-59.5 2124.92,-59.5 2124.92,-59.5 2086.92,-59.5 2086.92,-59.5 2080.92,-59.5 2074.92,-53.5 2074.92,-47.5 2074.92,-47.5 2074.92,-35.5 2074.92,-35.5 2074.92,-29.5 2080.92,-23.5 2086.92,-23.5"/>
<text text-anchor="middle" x="2105.92" y="-37.8" font-family="Times New Roman,serif" font-size="14.00">0:0 &#45; 0:0</text>
</g>
<!-- n4&#45;&gt;x26 -->
<g id="edge54" class="edge">
<title>n4:e&#45;&gt;x26:w</title>
<path fill="none" stroke="#d95f02" stroke-width="3" d="M2014.92,-680.5C2034.77,-680.5 2030.95,-343.26 2032.92,-323.5 2045.1,-200.98 1953.62,-50.31 2064.68,-41.87"/>
<polygon fill="#d95f02" stroke="#d95f02" stroke-width="3" points="2065.05,-45.36 2074.92,-41.5 2064.8,-38.36 2065.05,-45.36"/>
<text text-anchor="middle" x="2044.92" y="-327.3" font-family="Times New Roman,serif" font-size="14.00" fill="#d95f02">&lt;4&gt;</text>
</g>
<!-- x36 -->
<g id="node53" class="node">
<title>x36</title>
<path fill="none" stroke="black" d="M2086.92,-851.5C2086.92,-851.5 2124.92,-851.5 2124.92,-851.5 2130.92,-851.5 2136.92,-857.5 2136.92,-863.5 2136.92,-863.5 2136.92,-885.5 2136.92,-885.5 2136.92,-891.5 2130.92,-897.5 2124.92,-897.5 2124.92,-897.5 2086.92,-897.5 2086.92,-897.5 2080.92,-897.5 2074.92,-891.5 2074.92,-885.5 2074.92,-885.5 2074.92,-863.5 2074.92,-863.5 2074.92,-857.5 2080.92,-851.5 2086.92,-851.5"/>
<text text-anchor="middle" x="2105.92" y="-882.3" font-family="Times New Roman,serif" font-size="14.00">0:0 &#45; 1:1</text>
<polyline fill="none" stroke="black" points="2074.92,-874.5 2136.92,-874.5 "/>
<text text-anchor="middle" x="2105.92" y="-859.3" font-family="Times New Roman,serif" font-size="14.00">0 &#45;&gt; 0:0</text>
</g>
<!-- n4&#45;&gt;x36 -->
<g id="edge55" class="edge">
<title>n4:e&#45;&gt;x36:w</title>
<path fill="none" stroke="#d95f02" stroke-width="3" d="M2014.92,-680.5C2048.27,-680.5 2020.62,-798.5 2032.92,-829.5 2043.11,-855.21 2043.52,-879.76 2064.84,-885.33"/>
<polygon fill="#d95f02" stroke="#d95f02" stroke-width="3" points="2064.58,-888.82 2074.92,-886.5 2065.39,-881.87 2064.58,-888.82"/>
<text text-anchor="middle" x="2044.92" y="-884.3" font-family="Times New Roman,serif" font-size="14.00" fill="#d95f02">&lt;4&gt;</text>
</g>
<!-- x38 -->
<g id="node55" class="node">
<title>x38</title>
<path fill="none" stroke="black" d="M2196.92,-698.5C2196.92,-698.5 2166.92,-698.5 2166.92,-698.5 2160.92,-698.5 2154.92,-692.5 2154.92,-686.5 2154.92,-686.5 2154.92,-674.5 2154.92,-674.5 2154.92,-668.5 2160.92,-662.5 2166.92,-662.5 2166.92,-662.5 2196.92,-662.5 2196.92,-662.5 2202.92,-662.5 2208.92,-668.5 2208.92,-674.5 2208.92,-674.5 2208.92,-686.5 2208.92,-686.5 2208.92,-692.5 2202.92,-698.5 2196.92,-698.5"/>
<text text-anchor="middle" x="2181.92" y="-676.8" font-family="Times New Roman,serif" font-size="14.00">BUF</text>
</g>
<!-- n4&#45;&gt;x38 -->
<g id="edge56" class="edge">
<title>n4:e&#45;&gt;x38:w</title>
<path fill="none" stroke="#d95f02" stroke-width="3" d="M2014.92,-680.5C2073.61,-680.5 2090.78,-680.5 2144.78,-680.5"/>
<polygon fill="#d95f02" stroke="#d95f02" stroke-width="3" points="2144.92,-684 2154.92,-680.5 2144.92,-677 2144.92,-684"/>
<text text-anchor="middle" x="2044.92" y="-684.3" font-family="Times New Roman,serif" font-size="14.00" fill="#d95f02">&lt;4&gt;</text>
</g>
<!-- n5 -->
<g id="node5" class="node">
<title>n5</title>
<polygon fill="none" stroke="black" points="2649.92,-673.04 2649.92,-687.96 2634.1,-698.5 2611.73,-698.5 2595.92,-687.96 2595.92,-673.04 2611.73,-662.5 2634.1,-662.5 2649.92,-673.04"/>
<text text-anchor="middle" x="2622.92" y="-676.8" font-family="Times New Roman,serif" font-size="14.00">q</text>
</g>
<!-- n6 -->
<g id="node6" class="node">
<title>n6</title>
<polygon fill="none" stroke="black" points="60.25,-628.04 60.25,-642.96 42.68,-653.5 17.82,-653.5 0.25,-642.96 0.25,-628.04 17.82,-617.5 42.68,-617.5 60.25,-628.04"/>
<text text-anchor="middle" x="30.25" y="-631.8" font-family="Times New Roman,serif" font-size="14.00">reset</text>
</g>
<!-- n6&#45;&gt;c24 -->
<g id="edge60" class="edge">
<title>n6:e&#45;&gt;c24:w</title>
<path fill="none" stroke="#e6ab02" d="M60.5,-635.5C236.01,-635.5 279.43,-616.5 454.94,-616.5 454.94,-616.5 454.94,-616.5 988.94,-616.5 1158.04,-616.5 1200.33,-625.38 1368.46,-643.5 1435.98,-650.78 1454.3,-665.02 1517.38,-666.39"/>
<polygon fill="#e6ab02" stroke="#e6ab02" points="1517.42,-669.89 1527.46,-666.5 1517.49,-662.89 1517.42,-669.89"/>
</g>
<!-- n6&#45;&gt;c25 -->
<g id="edge61" class="edge">
<title>n6:e&#45;&gt;c25:w</title>
<path fill="none" stroke="#e6ab02" d="M60.5,-635.5C68.8,-635.5 70.3,-639.23 78.5,-640.5 243.94,-666.19 287.52,-654.5 454.94,-654.5 454.94,-654.5 454.94,-654.5 988.94,-654.5 1160.3,-654.5 1200.79,-687.12 1368.46,-722.5 1385.01,-725.99 1388.94,-727.8 1405.46,-731.5 1455.98,-742.82 1470.31,-754.84 1517.26,-756.34"/>
<polygon fill="#e6ab02" stroke="#e6ab02" points="1517.4,-759.85 1527.46,-756.5 1517.51,-752.85 1517.4,-759.85"/>
</g>
<!-- n6&#45;&gt;c26 -->
<g id="edge62" class="edge">
<title>n6:e&#45;&gt;c26:w</title>
<path fill="none" stroke="#e6ab02" d="M60.5,-635.5C75.29,-635.5 66.19,-655.3 78.5,-663.5 219.92,-757.74 285.01,-730.5 454.94,-730.5 454.94,-730.5 454.94,-730.5 988.94,-730.5 1185.25,-730.5 1212.85,-839.54 1405.46,-877.5 1457.82,-887.82 1474.46,-883.18 1523.25,-882.56"/>
<polygon fill="#e6ab02" stroke="#e6ab02" points="1523.48,-886.06 1533.46,-882.5 1523.43,-879.06 1523.48,-886.06"/>
</g>
<!-- n6&#45;&gt;c27 -->
<g id="edge63" class="edge">
<title>n6:e&#45;&gt;c27:w</title>
<path fill="none" stroke="#e6ab02" d="M60.5,-635.5C73.13,-635.5 67.35,-619.43 78.5,-613.5 226.85,-534.59 286.91,-578.5 454.94,-578.5 454.94,-578.5 454.94,-578.5 988.94,-578.5 1225.54,-578.5 1285.76,-539.62 1517.37,-538.52"/>
<polygon fill="#e6ab02" stroke="#e6ab02" points="1517.46,-542.02 1527.46,-538.5 1517.45,-535.02 1517.46,-542.02"/>
</g>
<!-- v2 -->
<g id="node7" class="node">
<title>v2</title>
<ellipse fill="none" stroke="black" cx="2105.92" cy="-773.5" rx="27" ry="18"/>
<text text-anchor="middle" x="2105.92" y="-769.8" font-family="Times New Roman,serif" font-size="14.00">1&#39;0</text>
</g>
<!-- c11 -->
<g id="node8" class="node">
<title>c11</title>
<polygon fill="none" stroke="black" points="2226.92,-747 2226.92,-816 2455.92,-816 2455.92,-747 2226.92,-747"/>
<text text-anchor="middle" x="2242.42" y="-800.8" font-family="Times New Roman,serif" font-size="14.00">CI</text>
<polyline fill="none" stroke="black" points="2226.92,-793 2257.92,-793 "/>
<text text-anchor="middle" x="2242.42" y="-777.8" font-family="Times New Roman,serif" font-size="14.00">I0</text>
<polyline fill="none" stroke="black" points="2226.92,-770 2257.92,-770 "/>
<text text-anchor="middle" x="2242.42" y="-754.8" font-family="Times New Roman,serif" font-size="14.00">I1</text>
<polyline fill="none" stroke="black" points="2257.92,-747 2257.92,-816 "/>
<text text-anchor="middle" x="2338.42" y="-785.3" font-family="Times New Roman,serif" font-size="14.00">counter_SB_CARRY_CI</text>
<text text-anchor="middle" x="2338.42" y="-770.3" font-family="Times New Roman,serif" font-size="14.00">SB_CARRY</text>
<polyline fill="none" stroke="black" points="2418.92,-747 2418.92,-816 "/>
<text text-anchor="middle" x="2437.42" y="-777.8" font-family="Times New Roman,serif" font-size="14.00">CO</text>
</g>
<!-- v2&#45;&gt;c11 -->
<g id="edge68" class="edge">
<title>v2:e&#45;&gt;c11:w</title>
<path fill="none" stroke="#666666" d="M2133.92,-773.5C2171.84,-773.5 2183.47,-780.18 2216.88,-781.33"/>
<polygon fill="#666666" stroke="#666666" points="2216.86,-784.83 2226.92,-781.5 2216.98,-777.83 2216.86,-784.83"/>
</g>
<!-- x1 -->
<g id="node10" class="node">
<title>x1</title>
<path fill="none" stroke="black" d="M2527.92,-927.5C2527.92,-927.5 2565.92,-927.5 2565.92,-927.5 2571.92,-927.5 2577.92,-933.5 2577.92,-939.5 2577.92,-939.5 2577.92,-951.5 2577.92,-951.5 2577.92,-957.5 2571.92,-963.5 2565.92,-963.5 2565.92,-963.5 2527.92,-963.5 2527.92,-963.5 2521.92,-963.5 2515.92,-957.5 2515.92,-951.5 2515.92,-951.5 2515.92,-939.5 2515.92,-939.5 2515.92,-933.5 2521.92,-927.5 2527.92,-927.5"/>
<text text-anchor="middle" x="2546.92" y="-941.8" font-family="Times New Roman,serif" font-size="14.00">0:0 &#45; 2:2</text>
</g>
<!-- c11&#45;&gt;x1 -->
<g id="edge2" class="edge">
<title>c11:e&#45;&gt;x1:w</title>
<path fill="none" stroke="#1b9e77" d="M2467.85,-783.12C2519.52,-799.09 2452.34,-927.83 2503.94,-943.86"/>
<polygon fill="none" stroke="#1b9e77" points="2467.81,-783.12 2461.32,-786.27 2455.92,-781.5 2462.4,-778.35 2467.81,-783.12"/>
<polygon fill="none" stroke="#1b9e77" points="2504.03,-943.88 2510.51,-940.72 2515.92,-945.5 2509.43,-948.65 2504.03,-943.88"/>
</g>
<!-- x0&#45;&gt;c11 -->
<g id="edge1" class="edge">
<title>x0:e&#45;&gt;c11:w</title>
<path fill="none" stroke="#66a61e" d="M2149.11,-815.13C2175.94,-813.46 2187.99,-806.51 2214.88,-804.86"/>
<polygon fill="none" stroke="#66a61e" points="2148.91,-815.14 2143.03,-819.32 2136.92,-815.5 2142.79,-811.32 2148.91,-815.14"/>
<polygon fill="none" stroke="#66a61e" points="2214.92,-804.86 2220.8,-800.68 2226.92,-804.5 2221.04,-808.68 2214.92,-804.86"/>
</g>
<!-- x1&#45;&gt;n1 -->
<g id="edge27" class="edge">
<title>x1:e&#45;&gt;n1:w</title>
<path fill="none" stroke="#7570b3" stroke-width="3" d="M2578.92,-945.5C2587.15,-945.5 2583.64,-958.08 2577.92,-964 2482.32,-1062.77 2099.14,-1017.5 1961.69,-1017.5 515.94,-1017.5 515.94,-1017.5 515.94,-1017.5 321.39,-1017.5 218.79,-1147.01 78.22,-1012.5 75.87,-1010.25 73.94,-1006.86 73.02,-1003.62"/>
<polygon fill="#7570b3" stroke="#7570b3" stroke-width="3" points="76.21,-1005.05 77.22,-994.5 69.86,-1002.12 76.21,-1005.05"/>
<text text-anchor="middle" x="1497.46" y="-1021.3" font-family="Times New Roman,serif" font-size="14.00" fill="#7570b3">&lt;2&gt;</text>
</g>
<!-- x3&#45;&gt;c11 -->
<g id="edge3" class="edge">
<title>x3:e&#45;&gt;c11:w</title>
<path fill="none" stroke="#1b9e77" d="M2149.03,-732.34C2176.76,-736.36 2187.11,-753.67 2214.86,-757.67"/>
<polygon fill="none" stroke="#1b9e77" points="2148.89,-732.33 2142.63,-735.9 2136.92,-731.5 2143.18,-727.92 2148.89,-732.33"/>
<polygon fill="none" stroke="#1b9e77" points="2214.94,-757.68 2221.2,-754.1 2226.92,-758.5 2220.66,-762.08 2214.94,-757.68"/>
</g>
<!-- v6 -->
<g id="node12" class="node">
<title>v6</title>
<ellipse fill="none" stroke="black" cx="2105.92" cy="-1052.5" rx="27" ry="18"/>
<text text-anchor="middle" x="2105.92" y="-1048.8" font-family="Times New Roman,serif" font-size="14.00">1&#39;0</text>
</g>
<!-- c12 -->
<g id="node13" class="node">
<title>c12</title>
<polygon fill="none" stroke="black" points="2228.42,-1031 2228.42,-1100 2454.42,-1100 2454.42,-1031 2228.42,-1031"/>
<text text-anchor="middle" x="2243.92" y="-1084.8" font-family="Times New Roman,serif" font-size="14.00">CI</text>
<polyline fill="none" stroke="black" points="2228.42,-1077 2259.42,-1077 "/>
<text text-anchor="middle" x="2243.92" y="-1061.8" font-family="Times New Roman,serif" font-size="14.00">I0</text>
<polyline fill="none" stroke="black" points="2228.42,-1054 2259.42,-1054 "/>
<text text-anchor="middle" x="2243.92" y="-1038.8" font-family="Times New Roman,serif" font-size="14.00">I1</text>
<polyline fill="none" stroke="black" points="2259.42,-1031 2259.42,-1100 "/>
<text text-anchor="middle" x="2338.42" y="-1069.3" font-family="Times New Roman,serif" font-size="14.00">counter_SB_CARRY_I1</text>
<text text-anchor="middle" x="2338.42" y="-1054.3" font-family="Times New Roman,serif" font-size="14.00">SB_CARRY</text>
<polyline fill="none" stroke="black" points="2417.42,-1031 2417.42,-1100 "/>
<text text-anchor="middle" x="2435.92" y="-1061.8" font-family="Times New Roman,serif" font-size="14.00">CO</text>
</g>
<!-- v6&#45;&gt;c12 -->
<g id="edge72" class="edge">
<title>v6:e&#45;&gt;c12:w</title>
<path fill="none" stroke="#66a61e" d="M2133.92,-1052.5C2172.27,-1052.5 2183.57,-1063.36 2217.28,-1065.23"/>
<polygon fill="#66a61e" stroke="#66a61e" points="2217.33,-1068.73 2227.42,-1065.5 2217.51,-1061.73 2217.33,-1068.73"/>
</g>
<!-- x5 -->
<g id="node15" class="node">
<title>x5</title>
<path fill="none" stroke="black" d="M2527.92,-1090.5C2527.92,-1090.5 2565.92,-1090.5 2565.92,-1090.5 2571.92,-1090.5 2577.92,-1096.5 2577.92,-1102.5 2577.92,-1102.5 2577.92,-1114.5 2577.92,-1114.5 2577.92,-1120.5 2571.92,-1126.5 2565.92,-1126.5 2565.92,-1126.5 2527.92,-1126.5 2527.92,-1126.5 2521.92,-1126.5 2515.92,-1120.5 2515.92,-1114.5 2515.92,-1114.5 2515.92,-1102.5 2515.92,-1102.5 2515.92,-1096.5 2521.92,-1090.5 2527.92,-1090.5"/>
<text text-anchor="middle" x="2546.92" y="-1104.8" font-family="Times New Roman,serif" font-size="14.00">0:0 &#45; 3:3</text>
</g>
<!-- c12&#45;&gt;x5 -->
<g id="edge5" class="edge">
<title>c12:e&#45;&gt;x5:w</title>
<path fill="none" stroke="#e7298a" d="M2467.26,-1067.81C2484.28,-1075.28 2487.04,-1098.69 2504.04,-1106.18"/>
<polygon fill="none" stroke="#e7298a" points="2467.19,-1067.8 2460.54,-1070.58 2455.42,-1065.5 2462.07,-1062.72 2467.19,-1067.8"/>
<polygon fill="none" stroke="#e7298a" points="2504.14,-1106.2 2510.8,-1103.42 2515.92,-1108.5 2509.26,-1111.27 2504.14,-1106.2"/>
</g>
<!-- x4&#45;&gt;c12 -->
<g id="edge4" class="edge">
<title>x4:e&#45;&gt;c12:w</title>
<path fill="none" stroke="#7570b3" d="M640,-1077.54C754.22,-1078.35 786.93,-1090.5 906.94,-1090.5 906.94,-1090.5 906.94,-1090.5 2106.92,-1090.5 2156.19,-1090.5 2171.45,-1088.81 2215.28,-1088.54"/>
<polygon fill="none" stroke="#7570b3" points="639.94,-1077.54 633.93,-1081.52 627.94,-1077.5 633.96,-1073.52 639.94,-1077.54"/>
<polygon fill="none" stroke="#7570b3" points="2215.42,-1088.54 2221.4,-1084.52 2227.42,-1088.5 2221.43,-1092.52 2215.42,-1088.54"/>
</g>
<!-- x5&#45;&gt;n1 -->
<g id="edge29" class="edge">
<title>x5:e&#45;&gt;n1:w</title>
<path fill="none" stroke="#7570b3" stroke-width="3" d="M2578.92,-1108.5C2587.15,-1108.5 2583.78,-1121.22 2577.92,-1127 2503.34,-1200.56 2447.17,-1136.5 2342.42,-1136.5 515.94,-1136.5 515.94,-1136.5 515.94,-1136.5 313.74,-1136.5 204.59,-1170.34 78.22,-1012.5 76.34,-1010.15 74.61,-1007.04 73.59,-1004.06"/>
<polygon fill="#7570b3" stroke="#7570b3" stroke-width="3" points="76.94,-1005.09 77.22,-994.5 70.4,-1002.61 76.94,-1005.09"/>
<text text-anchor="middle" x="1497.46" y="-1140.3" font-family="Times New Roman,serif" font-size="14.00" fill="#7570b3">&lt;2&gt;</text>
</g>
<!-- x7&#45;&gt;c12 -->
<g id="edge6" class="edge">
<title>x7:e&#45;&gt;c12:w</title>
<path fill="none" stroke="#e7298a" d="M2149.1,-976.05C2182.3,-985.18 2182.07,-1031.94 2215.35,-1040.98"/>
<polygon fill="none" stroke="#e7298a" points="2148.82,-976.01 2142.36,-979.22 2136.92,-974.5 2143.37,-971.29 2148.82,-976.01"/>
<polygon fill="none" stroke="#e7298a" points="2215.51,-1041 2221.96,-1037.78 2227.42,-1042.5 2220.96,-1045.72 2215.51,-1041"/>
</g>
<!-- v8 -->
<g id="node17" class="node">
<title>v8</title>
<ellipse fill="none" stroke="black" cx="516.94" cy="-543.5" rx="27" ry="18"/>
<text text-anchor="middle" x="516.94" y="-539.8" font-family="Times New Roman,serif" font-size="14.00">1&#39;0</text>
</g>
<!-- c16 -->
<g id="node19" class="node">
<title>c16</title>
<polygon fill="none" stroke="black" points="645.94,-444.5 645.94,-536.5 858.94,-536.5 858.94,-444.5 645.94,-444.5"/>
<text text-anchor="middle" x="659.94" y="-521.3" font-family="Times New Roman,serif" font-size="14.00">I0</text>
<polyline fill="none" stroke="black" points="645.94,-513.5 673.94,-513.5 "/>
<text text-anchor="middle" x="659.94" y="-498.3" font-family="Times New Roman,serif" font-size="14.00">I1</text>
<polyline fill="none" stroke="black" points="645.94,-490.5 673.94,-490.5 "/>
<text text-anchor="middle" x="659.94" y="-475.3" font-family="Times New Roman,serif" font-size="14.00">I2</text>
<polyline fill="none" stroke="black" points="645.94,-467.5 673.94,-467.5 "/>
<text text-anchor="middle" x="659.94" y="-452.3" font-family="Times New Roman,serif" font-size="14.00">I3</text>
<polyline fill="none" stroke="black" points="673.94,-444.5 673.94,-536.5 "/>
<text text-anchor="middle" x="752.94" y="-494.3" font-family="Times New Roman,serif" font-size="14.00">counter_SB_LUT4_I2_2</text>
<text text-anchor="middle" x="752.94" y="-479.3" font-family="Times New Roman,serif" font-size="14.00">SB_LUT4</text>
<polyline fill="none" stroke="black" points="831.94,-444.5 831.94,-536.5 "/>
<text text-anchor="middle" x="845.44" y="-486.8" font-family="Times New Roman,serif" font-size="14.00">O</text>
</g>
<!-- v8&#45;&gt;c16 -->
<g id="edge73" class="edge">
<title>v8:e&#45;&gt;c16:w</title>
<path fill="none" stroke="#a6761d" d="M544.94,-543.5C586.98,-543.5 598.59,-528.2 635.88,-525.81"/>
<polygon fill="#a6761d" stroke="#a6761d" points="636.06,-529.31 645.94,-525.5 635.84,-522.31 636.06,-529.31"/>
</g>
<!-- v9 -->
<g id="node18" class="node">
<title>v9</title>
<ellipse fill="none" stroke="black" cx="516.94" cy="-502.5" rx="27" ry="18"/>
<text text-anchor="middle" x="516.94" y="-498.8" font-family="Times New Roman,serif" font-size="14.00">1&#39;0</text>
</g>
<!-- v9&#45;&gt;c16 -->
<g id="edge74" class="edge">
<title>v9:e&#45;&gt;c16:w</title>
<path fill="none" stroke="#e7298a" d="M544.94,-502.5C586.15,-502.5 598.99,-502.5 635.54,-502.5"/>
<polygon fill="#e7298a" stroke="#e7298a" points="635.94,-506 645.94,-502.5 635.94,-499 635.94,-506"/>
</g>
<!-- x12 -->
<g id="node22" class="node">
<title>x12</title>
<path fill="none" stroke="black" d="M968.94,-465.5C968.94,-465.5 1006.94,-465.5 1006.94,-465.5 1012.94,-465.5 1018.94,-471.5 1018.94,-477.5 1018.94,-477.5 1018.94,-489.5 1018.94,-489.5 1018.94,-495.5 1012.94,-501.5 1006.94,-501.5 1006.94,-501.5 968.94,-501.5 968.94,-501.5 962.94,-501.5 956.94,-495.5 956.94,-489.5 956.94,-489.5 956.94,-477.5 956.94,-477.5 956.94,-471.5 962.94,-465.5 968.94,-465.5"/>
<text text-anchor="middle" x="987.94" y="-479.8" font-family="Times New Roman,serif" font-size="14.00">0:0 &#45; 2:2</text>
</g>
<!-- c16&#45;&gt;x12 -->
<g id="edge9" class="edge">
<title>c16:e&#45;&gt;x12:w</title>
<path fill="none" stroke="#1b9e77" d="M871.29,-490.3C901.28,-489.28 914.58,-484.72 944.57,-483.7"/>
<polygon fill="none" stroke="#1b9e77" points="870.94,-490.3 865.01,-494.4 858.94,-490.5 864.88,-486.4 870.94,-490.3"/>
<polygon fill="none" stroke="#1b9e77" points="944.94,-483.7 950.88,-479.6 956.94,-483.5 951.01,-487.6 944.94,-483.7"/>
</g>
<!-- x10&#45;&gt;c16 -->
<g id="edge7" class="edge">
<title>x10:e&#45;&gt;c16:w</title>
<path fill="none" stroke="#7570b3" d="M2141.46,-271.2C2140.39,-273.76 2138.78,-276.23 2136.92,-278 2129.85,-284.7 1971.42,-277.5 1961.69,-277.5 986.94,-277.5 986.94,-277.5 986.94,-277.5 818.09,-277.5 737,-302.12 645.44,-444 643.07,-447.68 640.58,-458.38 640.31,-466.9"/>
<polygon fill="none" stroke="#7570b3" points="2141.39,-270.99 2135.82,-266.4 2137.92,-259.5 2143.48,-264.08 2141.39,-270.99"/>
<polygon fill="none" stroke="#7570b3" points="640.41,-467.2 646.2,-471.51 644.44,-478.5 638.66,-474.19 640.41,-467.2"/>
</g>
<!-- x11&#45;&gt;c16 -->
<g id="edge8" class="edge">
<title>x11:e&#45;&gt;c16:w</title>
<path fill="none" stroke="#d95f02" d="M560.28,-460.36C590.25,-459.63 603.62,-456.37 633.58,-455.64"/>
<polygon fill="none" stroke="#d95f02" points="559.94,-460.36 553.99,-464.43 547.94,-460.5 553.89,-456.43 559.94,-460.36"/>
<polygon fill="none" stroke="#d95f02" points="633.94,-455.64 639.9,-451.57 645.94,-455.5 639.99,-459.57 633.94,-455.64"/>
</g>
<!-- x12&#45;&gt;n2 -->
<g id="edge33" class="edge">
<title>x12:e&#45;&gt;n2:w</title>
<path fill="none" stroke="#e6ab02" d="M1018.94,-483.5C1031.52,-483.5 1036.75,-480.63 1045.77,-479.24"/>
<polygon fill="#e6ab02" stroke="#e6ab02" points="1046.22,-482.71 1055.94,-478.5 1045.71,-475.73 1046.22,-482.71"/>
</g>
<!-- v13 -->
<g id="node23" class="node">
<title>v13</title>
<ellipse fill="none" stroke="black" cx="2105.92" cy="-384.5" rx="27" ry="18"/>
<text text-anchor="middle" x="2105.92" y="-380.8" font-family="Times New Roman,serif" font-size="14.00">1&#39;0</text>
</g>
<!-- c17 -->
<g id="node25" class="node">
<title>c17</title>
<polygon fill="none" stroke="black" points="2234.92,-283.5 2234.92,-375.5 2447.92,-375.5 2447.92,-283.5 2234.92,-283.5"/>
<text text-anchor="middle" x="2248.92" y="-360.3" font-family="Times New Roman,serif" font-size="14.00">I0</text>
<polyline fill="none" stroke="black" points="2234.92,-352.5 2262.92,-352.5 "/>
<text text-anchor="middle" x="2248.92" y="-337.3" font-family="Times New Roman,serif" font-size="14.00">I1</text>
<polyline fill="none" stroke="black" points="2234.92,-329.5 2262.92,-329.5 "/>
<text text-anchor="middle" x="2248.92" y="-314.3" font-family="Times New Roman,serif" font-size="14.00">I2</text>
<polyline fill="none" stroke="black" points="2234.92,-306.5 2262.92,-306.5 "/>
<text text-anchor="middle" x="2248.92" y="-291.3" font-family="Times New Roman,serif" font-size="14.00">I3</text>
<polyline fill="none" stroke="black" points="2262.92,-283.5 2262.92,-375.5 "/>
<text text-anchor="middle" x="2341.92" y="-333.3" font-family="Times New Roman,serif" font-size="14.00">counter_SB_LUT4_I2_1</text>
<text text-anchor="middle" x="2341.92" y="-318.3" font-family="Times New Roman,serif" font-size="14.00">SB_LUT4</text>
<polyline fill="none" stroke="black" points="2420.92,-283.5 2420.92,-375.5 "/>
<text text-anchor="middle" x="2434.42" y="-325.8" font-family="Times New Roman,serif" font-size="14.00">O</text>
</g>
<!-- v13&#45;&gt;c17 -->
<g id="edge64" class="edge">
<title>v13:e&#45;&gt;c17:w</title>
<path fill="none" stroke="#1b9e77" d="M2133.92,-384.5C2175.32,-384.5 2186.54,-367.65 2223,-364.88"/>
<polygon fill="#1b9e77" stroke="#1b9e77" points="2223.55,-368.36 2233.42,-364.5 2223.29,-361.37 2223.55,-368.36"/>
</g>
<!-- v14 -->
<g id="node24" class="node">
<title>v14</title>
<ellipse fill="none" stroke="black" cx="2105.92" cy="-343.5" rx="27" ry="18"/>
<text text-anchor="middle" x="2105.92" y="-339.8" font-family="Times New Roman,serif" font-size="14.00">1&#39;0</text>
</g>
<!-- v14&#45;&gt;c17 -->
<g id="edge65" class="edge">
<title>v14:e&#45;&gt;c17:w</title>
<path fill="none" stroke="#66a61e" d="M2133.92,-343.5C2174.52,-343.5 2187.15,-341.81 2223.16,-341.54"/>
<polygon fill="#66a61e" stroke="#66a61e" points="2223.43,-345.04 2233.42,-341.5 2223.4,-338.04 2223.43,-345.04"/>
</g>
<!-- x17 -->
<g id="node28" class="node">
<title>x17</title>
<path fill="none" stroke="black" d="M2527.92,-377.5C2527.92,-377.5 2565.92,-377.5 2565.92,-377.5 2571.92,-377.5 2577.92,-383.5 2577.92,-389.5 2577.92,-389.5 2577.92,-401.5 2577.92,-401.5 2577.92,-407.5 2571.92,-413.5 2565.92,-413.5 2565.92,-413.5 2527.92,-413.5 2527.92,-413.5 2521.92,-413.5 2515.92,-407.5 2515.92,-401.5 2515.92,-401.5 2515.92,-389.5 2515.92,-389.5 2515.92,-383.5 2521.92,-377.5 2527.92,-377.5"/>
<text text-anchor="middle" x="2546.92" y="-391.8" font-family="Times New Roman,serif" font-size="14.00">0:0 &#45; 3:3</text>
</g>
<!-- c17&#45;&gt;x17 -->
<g id="edge12" class="edge">
<title>c17:e&#45;&gt;x17:w</title>
<path fill="none" stroke="#e6ab02" d="M2461.49,-331.85C2484.69,-342.14 2480.69,-383.15 2504.06,-393.25"/>
<polygon fill="none" stroke="#e6ab02" points="2461.19,-331.79 2454.54,-334.57 2449.42,-329.5 2456.07,-326.72 2461.19,-331.79"/>
<polygon fill="none" stroke="#e6ab02" points="2504.13,-393.26 2510.77,-390.45 2515.92,-395.5 2509.27,-398.31 2504.13,-393.26"/>
</g>
<!-- x15&#45;&gt;c17 -->
<g id="edge10" class="edge">
<title>x15:e&#45;&gt;c17:w</title>
<path fill="none" stroke="#1b9e77" d="M2149.18,-301.96C2178.89,-304.29 2191.43,-314.71 2221.12,-317.04"/>
<polygon fill="none" stroke="#1b9e77" points="2148.91,-301.95 2142.76,-305.72 2136.92,-301.5 2143.06,-297.73 2148.91,-301.95"/>
<polygon fill="none" stroke="#1b9e77" points="2221.42,-317.05 2227.57,-313.28 2233.42,-317.5 2227.27,-321.27 2221.42,-317.05"/>
</g>
<!-- x16&#45;&gt;c17 -->
<g id="edge11" class="edge">
<title>x16:e&#45;&gt;c17:w</title>
<path fill="none" stroke="#e6ab02" d="M951.37,-215.1C985.32,-212.8 997.41,-201.5 1036.94,-201.5 1036.94,-201.5 1036.94,-201.5 1961.69,-201.5 2041.38,-201.5 2062.5,-211 2136.92,-239.5 2178.87,-255.57 2183.5,-287.95 2221.21,-293.64"/>
<polygon fill="none" stroke="#e6ab02" points="950.94,-215.11 945.07,-219.3 938.94,-215.5 944.81,-211.31 950.94,-215.11"/>
<polygon fill="none" stroke="#e6ab02" points="2221.45,-293.65 2227.71,-290.09 2233.42,-294.5 2227.15,-298.07 2221.45,-293.65"/>
</g>
<!-- x17&#45;&gt;n2 -->
<g id="edge34" class="edge">
<title>x17:e&#45;&gt;n2:w</title>
<path fill="none" stroke="#e6ab02" d="M2578.92,-395.5C2587.15,-395.5 2583.85,-408.29 2577.92,-414 2502.46,-486.56 2447.09,-417.5 2342.42,-417.5 1959.69,-417.5 1959.69,-417.5 1959.69,-417.5 1704.89,-417.5 1586.45,-267.63 1386.46,-425.5 1360.9,-445.67 1394.15,-476.51 1368.46,-496.5 1313.69,-539.11 1106.61,-544.19 1056.2,-496.5 1053.83,-494.26 1051.9,-490.87 1050.98,-487.64"/>
<polygon fill="#e6ab02" stroke="#e6ab02" points="1054.19,-489.05 1055.2,-478.5 1047.83,-486.11 1054.19,-489.05"/>
</g>
<!-- v18 -->
<g id="node29" class="node">
<title>v18</title>
<ellipse fill="none" stroke="black" cx="2105.92" cy="-576.5" rx="27" ry="18"/>
<text text-anchor="middle" x="2105.92" y="-572.8" font-family="Times New Roman,serif" font-size="14.00">1&#39;0</text>
</g>
<!-- c18 -->
<g id="node31" class="node">
<title>c18</title>
<polygon fill="none" stroke="black" points="2242.42,-475.5 2242.42,-567.5 2440.42,-567.5 2440.42,-475.5 2242.42,-475.5"/>
<text text-anchor="middle" x="2256.42" y="-552.3" font-family="Times New Roman,serif" font-size="14.00">I0</text>
<polyline fill="none" stroke="black" points="2242.42,-544.5 2270.42,-544.5 "/>
<text text-anchor="middle" x="2256.42" y="-529.3" font-family="Times New Roman,serif" font-size="14.00">I1</text>
<polyline fill="none" stroke="black" points="2242.42,-521.5 2270.42,-521.5 "/>
<text text-anchor="middle" x="2256.42" y="-506.3" font-family="Times New Roman,serif" font-size="14.00">I2</text>
<polyline fill="none" stroke="black" points="2242.42,-498.5 2270.42,-498.5 "/>
<text text-anchor="middle" x="2256.42" y="-483.3" font-family="Times New Roman,serif" font-size="14.00">I3</text>
<polyline fill="none" stroke="black" points="2270.42,-475.5 2270.42,-567.5 "/>
<text text-anchor="middle" x="2341.92" y="-525.3" font-family="Times New Roman,serif" font-size="14.00">counter_SB_LUT4_I2</text>
<text text-anchor="middle" x="2341.92" y="-510.3" font-family="Times New Roman,serif" font-size="14.00">SB_LUT4</text>
<polyline fill="none" stroke="black" points="2413.42,-475.5 2413.42,-567.5 "/>
<text text-anchor="middle" x="2426.92" y="-517.8" font-family="Times New Roman,serif" font-size="14.00">O</text>
</g>
<!-- v18&#45;&gt;c18 -->
<g id="edge66" class="edge">
<title>v18:e&#45;&gt;c18:w</title>
<path fill="none" stroke="#1b9e77" d="M2133.92,-576.5C2178.91,-576.5 2191.08,-559.36 2231.2,-556.81"/>
<polygon fill="#1b9e77" stroke="#1b9e77" points="2231.53,-560.31 2241.42,-556.5 2231.31,-553.31 2231.53,-560.31"/>
</g>
<!-- v19 -->
<g id="node30" class="node">
<title>v19</title>
<ellipse fill="none" stroke="black" cx="2105.92" cy="-535.5" rx="27" ry="18"/>
<text text-anchor="middle" x="2105.92" y="-531.8" font-family="Times New Roman,serif" font-size="14.00">1&#39;0</text>
</g>
<!-- v19&#45;&gt;c18 -->
<g id="edge67" class="edge">
<title>v19:e&#45;&gt;c18:w</title>
<path fill="none" stroke="#e7298a" d="M2133.92,-535.5C2178.16,-535.5 2191.66,-533.79 2231.34,-533.53"/>
<polygon fill="#e7298a" stroke="#e7298a" points="2231.43,-537.03 2241.42,-533.5 2231.4,-530.03 2231.43,-537.03"/>
</g>
<!-- x22 -->
<g id="node34" class="node">
<title>x22</title>
<path fill="none" stroke="black" d="M2527.92,-560.5C2527.92,-560.5 2565.92,-560.5 2565.92,-560.5 2571.92,-560.5 2577.92,-566.5 2577.92,-572.5 2577.92,-572.5 2577.92,-584.5 2577.92,-584.5 2577.92,-590.5 2571.92,-596.5 2565.92,-596.5 2565.92,-596.5 2527.92,-596.5 2527.92,-596.5 2521.92,-596.5 2515.92,-590.5 2515.92,-584.5 2515.92,-584.5 2515.92,-572.5 2515.92,-572.5 2515.92,-566.5 2521.92,-560.5 2527.92,-560.5"/>
<text text-anchor="middle" x="2546.92" y="-574.8" font-family="Times New Roman,serif" font-size="14.00">0:0 &#45; 1:1</text>
</g>
<!-- c18&#45;&gt;x22 -->
<g id="edge15" class="edge">
<title>c18:e&#45;&gt;x22:w</title>
<path fill="none" stroke="#d95f02" d="M2453.41,-523.4C2478.22,-532.05 2479.04,-567.75 2503.73,-576.54"/>
<polygon fill="none" stroke="#d95f02" points="2453.27,-523.37 2446.72,-526.39 2441.42,-521.5 2447.97,-518.49 2453.27,-523.37"/>
<polygon fill="none" stroke="#d95f02" points="2504.07,-576.59 2510.63,-573.6 2515.92,-578.5 2509.36,-581.5 2504.07,-576.59"/>
</g>
<!-- x20&#45;&gt;c18 -->
<g id="edge13" class="edge">
<title>x20:e&#45;&gt;c18:w</title>
<path fill="none" stroke="#d95f02" d="M2149.23,-493.9C2182.44,-496.11 2196.02,-506.94 2229.31,-509.12"/>
<polygon fill="none" stroke="#d95f02" points="2148.91,-493.89 2142.78,-497.69 2136.92,-493.5 2143.04,-489.69 2148.91,-493.89"/>
<polygon fill="none" stroke="#d95f02" points="2229.42,-509.12 2235.54,-505.31 2241.42,-509.5 2235.29,-513.31 2229.42,-509.12"/>
</g>
<!-- x21&#45;&gt;c18 -->
<g id="edge14" class="edge">
<title>x21:e&#45;&gt;c18:w</title>
<path fill="none" stroke="#d95f02" d="M2149.15,-452.3C2183.68,-457 2194.72,-481.06 2229.3,-485.72"/>
<polygon fill="none" stroke="#d95f02" points="2148.89,-452.28 2142.64,-455.88 2136.92,-451.5 2143.16,-447.9 2148.89,-452.28"/>
<polygon fill="none" stroke="#d95f02" points="2229.44,-485.73 2235.69,-482.12 2241.42,-486.5 2235.17,-490.11 2229.44,-485.73"/>
</g>
<!-- x22&#45;&gt;n2 -->
<g id="edge35" class="edge">
<title>x22:e&#45;&gt;n2:w</title>
<path fill="none" stroke="#e6ab02" d="M2578.92,-578.5C2587.15,-578.5 2583.89,-591.34 2577.92,-597 2557.91,-615.95 2543.47,-597.04 2515.92,-597 2301.25,-596.67 2245.63,-624.37 2032.92,-595.5 1902.59,-577.81 1875.13,-549.06 1747.46,-517.5 1623.72,-486.92 1594.16,-469.36 1467.46,-455.5 1440.06,-452.5 1430.63,-444.31 1405.46,-455.5 1383.03,-465.47 1390.88,-486.53 1368.46,-496.5 1305.05,-524.69 1106.61,-544.19 1056.2,-496.5 1053.83,-494.26 1051.9,-490.87 1050.98,-487.64"/>
<polygon fill="#e6ab02" stroke="#e6ab02" points="1054.19,-489.05 1055.2,-478.5 1047.83,-486.11 1054.19,-489.05"/>
</g>
<!-- v23 -->
<g id="node35" class="node">
<title>v23</title>
<ellipse fill="none" stroke="black" cx="2105.92" cy="-165.5" rx="27" ry="18"/>
<text text-anchor="middle" x="2105.92" y="-161.8" font-family="Times New Roman,serif" font-size="14.00">1&#39;0</text>
</g>
<!-- c19 -->
<g id="node38" class="node">
<title>c19</title>
<polygon fill="none" stroke="black" points="2242.42,-66.5 2242.42,-158.5 2440.42,-158.5 2440.42,-66.5 2242.42,-66.5"/>
<text text-anchor="middle" x="2256.42" y="-143.3" font-family="Times New Roman,serif" font-size="14.00">I0</text>
<polyline fill="none" stroke="black" points="2242.42,-135.5 2270.42,-135.5 "/>
<text text-anchor="middle" x="2256.42" y="-120.3" font-family="Times New Roman,serif" font-size="14.00">I1</text>
<polyline fill="none" stroke="black" points="2242.42,-112.5 2270.42,-112.5 "/>
<text text-anchor="middle" x="2256.42" y="-97.3" font-family="Times New Roman,serif" font-size="14.00">I2</text>
<polyline fill="none" stroke="black" points="2242.42,-89.5 2270.42,-89.5 "/>
<text text-anchor="middle" x="2256.42" y="-74.3" font-family="Times New Roman,serif" font-size="14.00">I3</text>
<polyline fill="none" stroke="black" points="2270.42,-66.5 2270.42,-158.5 "/>
<text text-anchor="middle" x="2341.92" y="-116.3" font-family="Times New Roman,serif" font-size="14.00">counter_SB_LUT4_I3</text>
<text text-anchor="middle" x="2341.92" y="-101.3" font-family="Times New Roman,serif" font-size="14.00">SB_LUT4</text>
<polyline fill="none" stroke="black" points="2413.42,-66.5 2413.42,-158.5 "/>
<text text-anchor="middle" x="2426.92" y="-108.8" font-family="Times New Roman,serif" font-size="14.00">O</text>
</g>
<!-- v23&#45;&gt;c19 -->
<g id="edge69" class="edge">
<title>v23:e&#45;&gt;c19:w</title>
<path fill="none" stroke="#a6761d" d="M2133.92,-165.5C2178.76,-165.5 2191.19,-150.07 2231.22,-147.78"/>
<polygon fill="#a6761d" stroke="#a6761d" points="2231.52,-151.28 2241.42,-147.5 2231.32,-144.28 2231.52,-151.28"/>
</g>
<!-- v24 -->
<g id="node36" class="node">
<title>v24</title>
<ellipse fill="none" stroke="black" cx="2105.92" cy="-124.5" rx="27" ry="18"/>
<text text-anchor="middle" x="2105.92" y="-120.8" font-family="Times New Roman,serif" font-size="14.00">1&#39;0</text>
</g>
<!-- v24&#45;&gt;c19 -->
<g id="edge70" class="edge">
<title>v24:e&#45;&gt;c19:w</title>
<path fill="none" stroke="#7570b3" d="M2133.92,-124.5C2178.15,-124.5 2191.67,-124.5 2231.34,-124.5"/>
<polygon fill="#7570b3" stroke="#7570b3" points="2231.42,-128 2241.42,-124.5 2231.42,-121 2231.42,-128"/>
</g>
<!-- v25 -->
<g id="node37" class="node">
<title>v25</title>
<ellipse fill="none" stroke="black" cx="2105.92" cy="-83.5" rx="27" ry="18"/>
<text text-anchor="middle" x="2105.92" y="-79.8" font-family="Times New Roman,serif" font-size="14.00">1&#39;0</text>
</g>
<!-- v25&#45;&gt;c19 -->
<g id="edge71" class="edge">
<title>v25:e&#45;&gt;c19:w</title>
<path fill="none" stroke="#66a61e" d="M2133.92,-83.5C2178.7,-83.5 2191.24,-98.07 2231.24,-100.23"/>
<polygon fill="#66a61e" stroke="#66a61e" points="2231.33,-103.74 2241.42,-100.5 2231.51,-96.74 2231.33,-103.74"/>
</g>
<!-- x27 -->
<g id="node40" class="node">
<title>x27</title>
<path fill="none" stroke="black" d="M2527.92,-151.5C2527.92,-151.5 2565.92,-151.5 2565.92,-151.5 2571.92,-151.5 2577.92,-157.5 2577.92,-163.5 2577.92,-163.5 2577.92,-175.5 2577.92,-175.5 2577.92,-181.5 2571.92,-187.5 2565.92,-187.5 2565.92,-187.5 2527.92,-187.5 2527.92,-187.5 2521.92,-187.5 2515.92,-181.5 2515.92,-175.5 2515.92,-175.5 2515.92,-163.5 2515.92,-163.5 2515.92,-157.5 2521.92,-151.5 2527.92,-151.5"/>
<text text-anchor="middle" x="2546.92" y="-165.8" font-family="Times New Roman,serif" font-size="14.00">0:0 &#45; 0:0</text>
</g>
<!-- c19&#45;&gt;x27 -->
<g id="edge17" class="edge">
<title>c19:e&#45;&gt;x27:w</title>
<path fill="none" stroke="#1b9e77" d="M2453.41,-114.4C2478.22,-123.05 2479.04,-158.75 2503.73,-167.54"/>
<polygon fill="none" stroke="#1b9e77" points="2453.27,-114.37 2446.72,-117.39 2441.42,-112.5 2447.97,-109.49 2453.27,-114.37"/>
<polygon fill="none" stroke="#1b9e77" points="2504.07,-167.59 2510.63,-164.6 2515.92,-169.5 2509.36,-172.5 2504.07,-167.59"/>
</g>
<!-- x26&#45;&gt;c19 -->
<g id="edge16" class="edge">
<title>x26:e&#45;&gt;c19:w</title>
<path fill="none" stroke="#1b9e77" d="M2149.18,-42.32C2183.77,-47.15 2194.63,-71.91 2229.27,-76.7"/>
<polygon fill="none" stroke="#1b9e77" points="2148.89,-42.3 2142.64,-45.89 2136.92,-41.5 2143.17,-37.91 2148.89,-42.3"/>
<polygon fill="none" stroke="#1b9e77" points="2229.44,-76.71 2235.69,-73.11 2241.42,-77.5 2235.17,-81.1 2229.44,-76.71"/>
</g>
<!-- x27&#45;&gt;n2 -->
<g id="edge36" class="edge">
<title>x27:e&#45;&gt;n2:w</title>
<path fill="none" stroke="#e6ab02" d="M2578.92,-169.5C2587.15,-169.5 2583.64,-182.08 2577.92,-188 2421.83,-349.21 2297.2,-200.86 2074.92,-231.5 1773.7,-273.02 1636.53,-174.86 1405.46,-372.5 1387.7,-387.68 1393.42,-399.2 1386.46,-421.5 1376.24,-454.22 1395.38,-475.28 1368.46,-496.5 1313.96,-539.46 1106.61,-544.19 1056.2,-496.5 1053.83,-494.26 1051.9,-490.87 1050.98,-487.64"/>
<polygon fill="#e6ab02" stroke="#e6ab02" points="1054.19,-489.05 1055.2,-478.5 1047.83,-486.11 1054.19,-489.05"/>
</g>
<!-- x29 -->
<g id="node43" class="node">
<title>x29</title>
<path fill="none" stroke="black" d="M1796.46,-666.5C1796.46,-666.5 1834.46,-666.5 1834.46,-666.5 1840.46,-666.5 1846.46,-672.5 1846.46,-678.5 1846.46,-678.5 1846.46,-690.5 1846.46,-690.5 1846.46,-696.5 1840.46,-702.5 1834.46,-702.5 1834.46,-702.5 1796.46,-702.5 1796.46,-702.5 1790.46,-702.5 1784.46,-696.5 1784.46,-690.5 1784.46,-690.5 1784.46,-678.5 1784.46,-678.5 1784.46,-672.5 1790.46,-666.5 1796.46,-666.5"/>
<text text-anchor="middle" x="1815.46" y="-680.8" font-family="Times New Roman,serif" font-size="14.00">0:0 &#45; 1:1</text>
</g>
<!-- c24&#45;&gt;x29 -->
<g id="edge19" class="edge">
<title>c24:e&#45;&gt;x29:w</title>
<path fill="none" stroke="#666666" d="M1759.52,-688.44C1764.1,-687.59 1767.82,-686.41 1772.4,-685.56"/>
<polygon fill="none" stroke="#666666" points="1759.41,-688.45 1753.78,-692.96 1747.46,-689.5 1753.08,-684.99 1759.41,-688.45"/>
<polygon fill="none" stroke="#666666" points="1772.5,-685.55 1778.13,-681.04 1784.46,-684.5 1778.83,-689.01 1772.5,-685.55"/>
</g>
<!-- x28&#45;&gt;c24 -->
<g id="edge18" class="edge">
<title>x28:e&#45;&gt;c24:w</title>
<path fill="none" stroke="#7570b3" d="M1479.33,-587.36C1500.6,-595.22 1494.46,-626.59 1509.46,-653.5 1515.31,-664 1513.35,-676.64 1516.85,-683.81"/>
<polygon fill="none" stroke="#7570b3" points="1479.31,-587.35 1472.77,-590.38 1467.46,-585.5 1474,-582.47 1479.31,-587.35"/>
<polygon fill="none" stroke="#7570b3" points="1516.88,-683.82 1524.06,-683.14 1527.46,-689.5 1520.28,-690.19 1516.88,-683.82"/>
</g>
<!-- x29&#45;&gt;n4 -->
<g id="edge45" class="edge">
<title>x29:e&#45;&gt;n4:w</title>
<path fill="none" stroke="#d95f02" stroke-width="3" d="M1846.46,-684.5C1869.42,-684.5 1877.49,-681.55 1896.27,-680.72"/>
<polygon fill="#d95f02" stroke="#d95f02" stroke-width="3" points="1896.53,-684.21 1906.46,-680.5 1896.38,-677.21 1896.53,-684.21"/>
<text text-anchor="middle" x="1876.46" y="-687.3" font-family="Times New Roman,serif" font-size="14.00" fill="#d95f02">&lt;4&gt;</text>
</g>
<!-- x31 -->
<g id="node46" class="node">
<title>x31</title>
<path fill="none" stroke="black" d="M1796.46,-749.5C1796.46,-749.5 1834.46,-749.5 1834.46,-749.5 1840.46,-749.5 1846.46,-755.5 1846.46,-761.5 1846.46,-761.5 1846.46,-773.5 1846.46,-773.5 1846.46,-779.5 1840.46,-785.5 1834.46,-785.5 1834.46,-785.5 1796.46,-785.5 1796.46,-785.5 1790.46,-785.5 1784.46,-779.5 1784.46,-773.5 1784.46,-773.5 1784.46,-761.5 1784.46,-761.5 1784.46,-755.5 1790.46,-749.5 1796.46,-749.5"/>
<text text-anchor="middle" x="1815.46" y="-763.8" font-family="Times New Roman,serif" font-size="14.00">0:0 &#45; 2:2</text>
</g>
<!-- c25&#45;&gt;x31 -->
<g id="edge21" class="edge">
<title>c25:e&#45;&gt;x31:w</title>
<path fill="none" stroke="#7570b3" d="M1759.44,-777.07C1764.16,-774.99 1767.76,-772.01 1772.48,-769.92"/>
<polygon fill="none" stroke="#7570b3" points="1759.22,-777.12 1754.13,-782.23 1747.46,-779.5 1752.54,-774.39 1759.22,-777.12"/>
<polygon fill="none" stroke="#7570b3" points="1772.69,-769.88 1777.78,-764.77 1784.46,-767.5 1779.37,-772.61 1772.69,-769.88"/>
</g>
<!-- x30&#45;&gt;c25 -->
<g id="edge20" class="edge">
<title>x30:e&#45;&gt;c25:w</title>
<path fill="none" stroke="#a6761d" d="M1478.19,-709.46C1491.41,-723.6 1503.34,-759.03 1516.55,-773.35"/>
<polygon fill="none" stroke="#a6761d" points="1477.95,-709.33 1470.76,-709.91 1467.46,-703.5 1474.64,-702.92 1477.95,-709.33"/>
<polygon fill="none" stroke="#a6761d" points="1517,-773.61 1524.19,-773.07 1527.46,-779.5 1520.26,-780.04 1517,-773.61"/>
</g>
<!-- x31&#45;&gt;n4 -->
<g id="edge46" class="edge">
<title>x31:e&#45;&gt;n4:w</title>
<path fill="none" stroke="#d95f02" stroke-width="3" d="M1846.46,-767.5C1856.23,-767.5 1883.14,-707.27 1898.68,-687.04"/>
<polygon fill="#d95f02" stroke="#d95f02" stroke-width="3" points="1901.05,-689.61 1906.46,-680.5 1896.55,-684.26 1901.05,-689.61"/>
<text text-anchor="middle" x="1876.46" y="-747.3" font-family="Times New Roman,serif" font-size="14.00" fill="#d95f02">&lt;4&gt;</text>
</g>
<!-- x33 -->
<g id="node49" class="node">
<title>x33</title>
<path fill="none" stroke="black" d="M1796.46,-856.5C1796.46,-856.5 1834.46,-856.5 1834.46,-856.5 1840.46,-856.5 1846.46,-862.5 1846.46,-868.5 1846.46,-868.5 1846.46,-880.5 1846.46,-880.5 1846.46,-886.5 1840.46,-892.5 1834.46,-892.5 1834.46,-892.5 1796.46,-892.5 1796.46,-892.5 1790.46,-892.5 1784.46,-886.5 1784.46,-880.5 1784.46,-880.5 1784.46,-868.5 1784.46,-868.5 1784.46,-862.5 1790.46,-856.5 1796.46,-856.5"/>
<text text-anchor="middle" x="1815.46" y="-870.8" font-family="Times New Roman,serif" font-size="14.00">0:0 &#45; 3:3</text>
</g>
<!-- c26&#45;&gt;x33 -->
<g id="edge23" class="edge">
<title>c26:e&#45;&gt;x33:w</title>
<path fill="none" stroke="#e6ab02" d="M1753.19,-901.94C1761.5,-895.96 1764.44,-883.97 1772.78,-878.01"/>
<polygon fill="none" stroke="#e6ab02" points="1752.94,-902.02 1748.36,-907.59 1741.46,-905.5 1746.04,-899.93 1752.94,-902.02"/>
<polygon fill="none" stroke="#e6ab02" points="1772.96,-877.96 1777.56,-872.4 1784.46,-874.5 1779.86,-880.06 1772.96,-877.96"/>
</g>
<!-- x32&#45;&gt;c26 -->
<g id="edge22" class="edge">
<title>x32:e&#45;&gt;c26:w</title>
<path fill="none" stroke="#a6761d" d="M1479.38,-858.07C1491.22,-861.68 1496.06,-871.08 1509.46,-881.5 1516.9,-887.29 1518.52,-895.22 1522.37,-900.35"/>
<polygon fill="none" stroke="#a6761d" points="1479.35,-858.07 1472.88,-861.25 1467.46,-856.5 1473.93,-853.32 1479.35,-858.07"/>
<polygon fill="none" stroke="#a6761d" points="1522.57,-900.44 1529.7,-899.34 1533.46,-905.5 1526.33,-906.6 1522.57,-900.44"/>
</g>
<!-- x33&#45;&gt;n4 -->
<g id="edge47" class="edge">
<title>x33:e&#45;&gt;n4:w</title>
<path fill="none" stroke="#d95f02" stroke-width="3" d="M1846.46,-874.5C1899.62,-874.5 1873.38,-813.48 1888.46,-762.5 1892.75,-747.96 1889.63,-702.92 1898.32,-686.53"/>
<polygon fill="#d95f02" stroke="#d95f02" stroke-width="3" points="1900.51,-689.27 1906.46,-680.5 1896.34,-683.65 1900.51,-689.27"/>
<text text-anchor="middle" x="1876.46" y="-873.3" font-family="Times New Roman,serif" font-size="14.00" fill="#d95f02">&lt;4&gt;</text>
</g>
<!-- x35 -->
<g id="node52" class="node">
<title>x35</title>
<path fill="none" stroke="black" d="M1796.46,-590.5C1796.46,-590.5 1834.46,-590.5 1834.46,-590.5 1840.46,-590.5 1846.46,-596.5 1846.46,-602.5 1846.46,-602.5 1846.46,-614.5 1846.46,-614.5 1846.46,-620.5 1840.46,-626.5 1834.46,-626.5 1834.46,-626.5 1796.46,-626.5 1796.46,-626.5 1790.46,-626.5 1784.46,-620.5 1784.46,-614.5 1784.46,-614.5 1784.46,-602.5 1784.46,-602.5 1784.46,-596.5 1790.46,-590.5 1796.46,-590.5"/>
<text text-anchor="middle" x="1815.46" y="-604.8" font-family="Times New Roman,serif" font-size="14.00">0:0 &#45; 0:0</text>
</g>
<!-- c27&#45;&gt;x35 -->
<g id="edge25" class="edge">
<title>c27:e&#45;&gt;x35:w</title>
<path fill="none" stroke="#66a61e" d="M1758.78,-566.18C1766.79,-575.19 1765.12,-594.85 1773.15,-603.84"/>
<polygon fill="none" stroke="#66a61e" points="1758.55,-566.08 1751.47,-567.49 1747.46,-561.5 1754.53,-560.09 1758.55,-566.08"/>
<polygon fill="none" stroke="#66a61e" points="1773.36,-603.93 1780.43,-602.52 1784.46,-608.5 1777.38,-609.91 1773.36,-603.93"/>
</g>
<!-- x34&#45;&gt;c27 -->
<g id="edge24" class="edge">
<title>x34:e&#45;&gt;c27:w</title>
<path fill="none" stroke="#1b9e77" d="M1479.44,-486.1C1502.81,-497.99 1492.1,-547.22 1515.61,-558.97"/>
<polygon fill="none" stroke="#1b9e77" points="1479.18,-486.04 1472.47,-488.68 1467.46,-483.5 1474.17,-480.86 1479.18,-486.04"/>
<polygon fill="none" stroke="#1b9e77" points="1515.72,-559 1522.42,-556.34 1527.46,-561.5 1520.75,-564.16 1515.72,-559"/>
</g>
<!-- x35&#45;&gt;n4 -->
<g id="edge48" class="edge">
<title>x35:e&#45;&gt;n4:w</title>
<path fill="none" stroke="#d95f02" stroke-width="3" d="M1846.46,-608.5C1850.67,-608.5 1883.89,-655.58 1899.21,-673.6"/>
<polygon fill="#d95f02" stroke="#d95f02" stroke-width="3" points="1896.8,-676.14 1906.46,-680.5 1901.63,-671.07 1896.8,-676.14"/>
<text text-anchor="middle" x="1876.46" y="-663.3" font-family="Times New Roman,serif" font-size="14.00" fill="#d95f02">&lt;4&gt;</text>
</g>
<!-- x37 -->
<g id="node54" class="node">
<title>x37</title>
<path fill="none" stroke="black" d="M2322.42,-886.5C2322.42,-886.5 2360.42,-886.5 2360.42,-886.5 2366.42,-886.5 2372.42,-892.5 2372.42,-898.5 2372.42,-898.5 2372.42,-910.5 2372.42,-910.5 2372.42,-916.5 2366.42,-922.5 2360.42,-922.5 2360.42,-922.5 2322.42,-922.5 2322.42,-922.5 2316.42,-922.5 2310.42,-916.5 2310.42,-910.5 2310.42,-910.5 2310.42,-898.5 2310.42,-898.5 2310.42,-892.5 2316.42,-886.5 2322.42,-886.5"/>
<text text-anchor="middle" x="2341.42" y="-900.8" font-family="Times New Roman,serif" font-size="14.00">1:0 &#45; 1:0</text>
</g>
<!-- x36&#45;&gt;x37 -->
<g id="edge26" class="edge">
<title>x36:e&#45;&gt;x37:w</title>
<path fill="none" stroke="#a6761d" stroke-width="3" d="M2149.16,-874.76C2212.8,-877.52 2233.45,-901.44 2297.03,-904.23"/>
<polygon fill="none" stroke="#a6761d" stroke-width="3" points="2148.91,-874.75 2142.83,-878.63 2136.92,-874.5 2143,-870.63 2148.91,-874.75"/>
<polygon fill="none" stroke="#a6761d" stroke-width="3" points="2297.42,-904.24 2303.5,-900.37 2309.42,-904.5 2303.33,-908.37 2297.42,-904.24"/>
<text text-anchor="middle" x="2181.92" y="-888.3" font-family="Times New Roman,serif" font-size="14.00" fill="#a6761d">&lt;2&gt;</text>
</g>
<!-- x37&#45;&gt;n1 -->
<g id="edge28" class="edge">
<title>x37:e&#45;&gt;n1:w</title>
<path fill="none" stroke="#7570b3" stroke-width="3" d="M2373.42,-904.5C2381.65,-904.5 2378.24,-917.18 2372.42,-923 2370.11,-925.3 1440.71,-971.5 1437.46,-971.5 515.94,-971.5 515.94,-971.5 515.94,-971.5 480.92,-971.5 475.61,-988.55 443.94,-1003.5 435.85,-1007.32 434.65,-1010.45 425.94,-1012.5 275.53,-1048.01 190.49,-1118.7 78.22,-1012.5 75.86,-1010.26 73.93,-1006.87 73,-1003.64"/>
<polygon fill="#7570b3" stroke="#7570b3" stroke-width="3" points="76.21,-1005.05 77.22,-994.5 69.85,-1002.11 76.21,-1005.05"/>
<text text-anchor="middle" x="1436.46" y="-975.3" font-family="Times New Roman,serif" font-size="14.00" fill="#7570b3">&lt;2&gt;</text>
</g>
<!-- x38&#45;&gt;n5 -->
<g id="edge59" class="edge">
<title>x38:e&#45;&gt;n5:w</title>
<path fill="none" stroke="#d95f02" stroke-width="3" d="M2208.92,-680.5C2377.39,-680.5 2422.1,-680.5 2585.49,-680.5"/>
<polygon fill="#d95f02" stroke="#d95f02" stroke-width="3" points="2585.92,-684 2595.92,-680.5 2585.92,-677 2585.92,-684"/>
<text text-anchor="middle" x="2485.92" y="-684.3" font-family="Times New Roman,serif" font-size="14.00" fill="#d95f02">&lt;4&gt;</text>
</g>
</g>
</svg>
