<?xml version="1.0" encoding="UTF-8" standalone="no"?>
<!DOCTYPE svg PUBLIC "-//W3C//DTD SVG 1.1//EN"
 "http://www.w3.org/Graphics/SVG/1.1/DTD/svg11.dtd">
<!-- Generated by graphviz version 4.0.0 (20220529.0937)
 -->
<!-- Title: top_module Pages: 1 -->
<svg width="802pt" height="276pt"
 viewBox="0.00 0.00 801.96 276.00" xmlns="http://www.w3.org/2000/svg" xmlns:xlink="http://www.w3.org/1999/xlink">
<g id="graph0" class="graph" transform="scale(1 1) rotate(0) translate(4 272)">
<title>top_module</title>
<polygon fill="white" stroke="transparent" points="-4,4 -4,-272 797.96,-272 797.96,4 -4,4"/>
<text text-anchor="middle" x="396.98" y="-7.8" font-family="Times New Roman,serif" font-size="14.00">top_module</text>
<!-- n3 -->
<g id="node1" class="node">
<title>n3</title>
<polygon fill="none" stroke="black" points="57.25,-159.54 57.25,-174.46 41.43,-185 19.07,-185 3.25,-174.46 3.25,-159.54 19.07,-149 41.43,-149 57.25,-159.54"/>
<text text-anchor="middle" x="30.25" y="-163.3" font-family="Times New Roman,serif" font-size="14.00">clk</text>
</g>
<!-- c14 -->
<g id="node7" class="node">
<title>c14</title>
<polygon fill="none" stroke="black" points="97.5,-132 97.5,-178 208.5,-178 208.5,-132 97.5,-132"/>
<text text-anchor="middle" x="119.5" y="-162.8" font-family="Times New Roman,serif" font-size="14.00">CLK</text>
<polyline fill="none" stroke="black" points="97.5,-155 141.5,-155 "/>
<text text-anchor="middle" x="119.5" y="-139.8" font-family="Times New Roman,serif" font-size="14.00">D</text>
<polyline fill="none" stroke="black" points="141.5,-132 141.5,-178 "/>
<text text-anchor="middle" x="161.5" y="-158.8" font-family="Times New Roman,serif" font-size="14.00">$7</text>
<text text-anchor="middle" x="161.5" y="-143.8" font-family="Times New Roman,serif" font-size="14.00">$dff</text>
<polyline fill="none" stroke="black" points="181.5,-132 181.5,-178 "/>
<text text-anchor="middle" x="195" y="-151.3" font-family="Times New Roman,serif" font-size="14.00">Q</text>
</g>
<!-- n3&#45;&gt;c14 -->
<g id="edge3" class="edge">
<title>n3:e&#45;&gt;c14:w</title>
<path fill="none" stroke="#1b9e77" d="M58.25,-167C71.74,-167 77.41,-167 87.35,-167"/>
<polygon fill="#1b9e77" stroke="#1b9e77" points="87.5,-170.5 97.5,-167 87.5,-163.5 87.5,-170.5"/>
</g>
<!-- n4 -->
<g id="node2" class="node">
<title>n4</title>
<polygon fill="none" stroke="black" points="322.73,-251 268.27,-233 322.73,-215 377.19,-233 322.73,-251"/>
<text text-anchor="middle" x="322.73" y="-229.3" font-family="Times New Roman,serif" font-size="14.00">counter</text>
</g>
<!-- c10 -->
<g id="node6" class="node">
<title>c10</title>
<polygon fill="none" stroke="black" points="436.96,-168 436.96,-214 532.96,-214 532.96,-168 436.96,-168"/>
<text text-anchor="middle" x="449.96" y="-198.8" font-family="Times New Roman,serif" font-size="14.00">A</text>
<polyline fill="none" stroke="black" points="436.96,-191 462.96,-191 "/>
<text text-anchor="middle" x="449.96" y="-175.8" font-family="Times New Roman,serif" font-size="14.00">B</text>
<polyline fill="none" stroke="black" points="462.96,-168 462.96,-214 "/>
<text text-anchor="middle" x="484.96" y="-194.8" font-family="Times New Roman,serif" font-size="14.00">$2</text>
<text text-anchor="middle" x="484.96" y="-179.8" font-family="Times New Roman,serif" font-size="14.00">$add</text>
<polyline fill="none" stroke="black" points="506.96,-168 506.96,-214 "/>
<text text-anchor="middle" x="519.96" y="-187.3" font-family="Times New Roman,serif" font-size="14.00">Y</text>
</g>
<!-- n4&#45;&gt;c10 -->
<g id="edge5" class="edge">
<title>n4:e&#45;&gt;c10:w</title>
<path fill="none" stroke="#7570b3" stroke-width="3" d="M376.96,-233C388.92,-233 384.68,-219.11 394.96,-213 408.11,-205.19 414.79,-203.48 426.67,-203.1"/>
<polygon fill="#7570b3" stroke="#7570b3" stroke-width="3" points="427,-206.6 436.96,-203 426.93,-199.6 427,-206.6"/>
<text text-anchor="middle" x="406.96" y="-216.8" font-family="Times New Roman,serif" font-size="14.00" fill="#7570b3">&lt;4&gt;</text>
</g>
<!-- x2 -->
<g id="node10" class="node">
<title>x2</title>
<path fill="none" stroke="black" d="M592.96,-268C592.96,-268 562.96,-268 562.96,-268 556.96,-268 550.96,-262 550.96,-256 550.96,-256 550.96,-244 550.96,-244 550.96,-238 556.96,-232 562.96,-232 562.96,-232 592.96,-232 592.96,-232 598.96,-232 604.96,-238 604.96,-244 604.96,-244 604.96,-256 604.96,-256 604.96,-262 598.96,-268 592.96,-268"/>
<text text-anchor="middle" x="577.96" y="-246.3" font-family="Times New Roman,serif" font-size="14.00">BUF</text>
</g>
<!-- n4&#45;&gt;x2 -->
<g id="edge6" class="edge">
<title>n4:e&#45;&gt;x2:w</title>
<path fill="none" stroke="#7570b3" stroke-width="3" d="M376.96,-233C451.17,-233 471.47,-248.51 540.84,-249.9"/>
<polygon fill="#7570b3" stroke="#7570b3" stroke-width="3" points="540.93,-253.4 550.96,-250 541,-246.4 540.93,-253.4"/>
<text text-anchor="middle" x="406.96" y="-238.8" font-family="Times New Roman,serif" font-size="14.00" fill="#7570b3">&lt;4&gt;</text>
</g>
<!-- n5 -->
<g id="node3" class="node">
<title>n5</title>
<polygon fill="none" stroke="black" points="793.96,-242.54 793.96,-257.46 778.14,-268 755.78,-268 739.96,-257.46 739.96,-242.54 755.78,-232 778.14,-232 793.96,-242.54"/>
<text text-anchor="middle" x="766.96" y="-246.3" font-family="Times New Roman,serif" font-size="14.00">q</text>
</g>
<!-- n6 -->
<g id="node4" class="node">
<title>n6</title>
<polygon fill="none" stroke="black" points="60.25,-33.54 60.25,-48.46 42.68,-59 17.82,-59 0.25,-48.46 0.25,-33.54 17.82,-23 42.68,-23 60.25,-33.54"/>
<text text-anchor="middle" x="30.25" y="-37.3" font-family="Times New Roman,serif" font-size="14.00">reset</text>
</g>
<!-- c16 -->
<g id="node9" class="node">
<title>c16</title>
<polygon fill="none" stroke="black" points="622.96,-75.5 622.96,-144.5 721.96,-144.5 721.96,-75.5 622.96,-75.5"/>
<text text-anchor="middle" x="635.96" y="-129.3" font-family="Times New Roman,serif" font-size="14.00">A</text>
<polyline fill="none" stroke="black" points="622.96,-121.5 648.96,-121.5 "/>
<text text-anchor="middle" x="635.96" y="-106.3" font-family="Times New Roman,serif" font-size="14.00">B</text>
<polyline fill="none" stroke="black" points="622.96,-98.5 648.96,-98.5 "/>
<text text-anchor="middle" x="635.96" y="-83.3" font-family="Times New Roman,serif" font-size="14.00">S</text>
<polyline fill="none" stroke="black" points="648.96,-75.5 648.96,-144.5 "/>
<text text-anchor="middle" x="672.46" y="-113.8" font-family="Times New Roman,serif" font-size="14.00">$5</text>
<text text-anchor="middle" x="672.46" y="-98.8" font-family="Times New Roman,serif" font-size="14.00">$mux</text>
<polyline fill="none" stroke="black" points="695.96,-75.5 695.96,-144.5 "/>
<text text-anchor="middle" x="708.96" y="-106.3" font-family="Times New Roman,serif" font-size="14.00">Y</text>
</g>
<!-- n6&#45;&gt;c16 -->
<g id="edge8" class="edge">
<title>n6:e&#45;&gt;c16:w</title>
<path fill="none" stroke="#e7298a" d="M60.5,-41C101.17,-41 111.33,-41 152,-41 152,-41 152,-41 485.96,-41 546.68,-41 557.63,-82.11 612.9,-86.6"/>
<polygon fill="#e7298a" stroke="#e7298a" points="612.83,-90.1 622.96,-87 613.11,-83.11 612.83,-90.1"/>
</g>
<!-- v0 -->
<g id="node5" class="node">
<title>v0</title>
<ellipse fill="none" stroke="black" cx="322.73" cy="-179" rx="27" ry="18"/>
<text text-anchor="middle" x="322.73" y="-175.3" font-family="Times New Roman,serif" font-size="14.00">1&#39;1</text>
</g>
<!-- v0&#45;&gt;c10 -->
<g id="edge9" class="edge">
<title>v0:e&#45;&gt;c10:w</title>
<path fill="none" stroke="#7570b3" d="M350.73,-179C385.46,-179 396.59,-179 426.89,-179"/>
<polygon fill="#7570b3" stroke="#7570b3" points="426.96,-182.5 436.96,-179 426.96,-175.5 426.96,-182.5"/>
</g>
<!-- c10&#45;&gt;c16 -->
<g id="edge2" class="edge">
<title>c10:e&#45;&gt;c16:w</title>
<path fill="none" stroke="#1b9e77" stroke-width="3" d="M532.96,-191C570.46,-191 574.11,-168.32 604.96,-147 609.39,-143.94 611.33,-140.18 613.7,-137.33"/>
<polygon fill="#1b9e77" stroke="#1b9e77" stroke-width="3" points="615.38,-140.4 622.96,-133 612.42,-134.06 615.38,-140.4"/>
<text text-anchor="middle" x="577.96" y="-192.8" font-family="Times New Roman,serif" font-size="14.00" fill="#1b9e77">&lt;4&gt;</text>
</g>
<!-- c14&#45;&gt;n4 -->
<g id="edge4" class="edge">
<title>c14:e&#45;&gt;n4:w</title>
<path fill="none" stroke="#7570b3" stroke-width="3" d="M208.5,-155C248.31,-155 229.13,-219.61 258.33,-231.22"/>
<polygon fill="#7570b3" stroke="#7570b3" stroke-width="3" points="258.05,-234.73 268.5,-233 259.25,-227.83 258.05,-234.73"/>
<text text-anchor="middle" x="238.5" y="-228.8" font-family="Times New Roman,serif" font-size="14.00" fill="#7570b3">&lt;4&gt;</text>
</g>
<!-- v1 -->
<g id="node8" class="node">
<title>v1</title>
<ellipse fill="none" stroke="black" cx="484.96" cy="-87" rx="34.39" ry="18"/>
<text text-anchor="middle" x="484.96" y="-83.3" font-family="Times New Roman,serif" font-size="14.00">4&#39;0000</text>
</g>
<!-- v1&#45;&gt;c16 -->
<g id="edge10" class="edge">
<title>v1:e&#45;&gt;c16:w</title>
<path fill="none" stroke="#d95f02" stroke-width="3" d="M520.96,-87C559.05,-87 568.16,-94.18 604.96,-104 608.53,-104.95 610.8,-106.22 612.94,-107.34"/>
<polygon fill="#d95f02" stroke="#d95f02" stroke-width="3" points="612.4,-110.82 622.96,-110 614.19,-104.05 612.4,-110.82"/>
<text text-anchor="middle" x="577.96" y="-107.8" font-family="Times New Roman,serif" font-size="14.00" fill="#d95f02">&lt;4&gt;</text>
</g>
<!-- c16&#45;&gt;c14 -->
<g id="edge1" class="edge">
<title>c16:e&#45;&gt;c14:w</title>
<path fill="none" stroke="#66a61e" stroke-width="3" d="M723.46,-110C731.24,-110 728.04,-139.58 722.46,-145 690.75,-175.82 667.18,-145.72 622.96,-145 438.68,-142 392.78,-134.5 208.5,-131.5 158.95,-130.69 133.53,-98.01 97,-131.5 96.53,-131.93 96.08,-132.44 95.66,-132.99"/>
<polygon fill="#66a61e" stroke="#66a61e" stroke-width="3" points="92.16,-133.12 96,-143 99.16,-132.89 92.16,-133.12"/>
<text text-anchor="middle" x="406.96" y="-142.8" font-family="Times New Roman,serif" font-size="14.00" fill="#66a61e">&lt;4&gt;</text>
</g>
<!-- x2&#45;&gt;n5 -->
<g id="edge7" class="edge">
<title>x2:e&#45;&gt;n5:w</title>
<path fill="none" stroke="#e7298a" stroke-width="3" d="M604.96,-250C661.45,-250 678.05,-250 729.86,-250"/>
<polygon fill="#e7298a" stroke="#e7298a" stroke-width="3" points="729.96,-253.5 739.96,-250 729.96,-246.5 729.96,-253.5"/>
<text text-anchor="middle" x="672.46" y="-253.8" font-family="Times New Roman,serif" font-size="14.00" fill="#e7298a">&lt;4&gt;</text>
</g>
</g>
</svg>
