<?xml version="1.0" encoding="UTF-8" standalone="no"?>
<!DOCTYPE svg PUBLIC "-//W3C//DTD SVG 1.1//EN"
 "http://www.w3.org/Graphics/SVG/1.1/DTD/svg11.dtd">
<!-- Generated by graphviz version 4.0.0 (20220529.0937)
 -->
<!-- Title: top_module Pages: 1 -->
<svg width="1258pt" height="360pt"
 viewBox="0.00 0.00 1258.43 359.50" xmlns="http://www.w3.org/2000/svg" xmlns:xlink="http://www.w3.org/1999/xlink">
<g id="graph0" class="graph" transform="scale(1 1) rotate(0) translate(4 355.5)">
<title>top_module</title>
<polygon fill="white" stroke="transparent" points="-4,4 -4,-355.5 1254.43,-355.5 1254.43,4 -4,4"/>
<text text-anchor="middle" x="625.22" y="-7.8" font-family="Times New Roman,serif" font-size="14.00">top_module</text>
<!-- n6 -->
<g id="node1" class="node">
<title>n6</title>
<polygon fill="none" stroke="black" points="54,-326.04 54,-340.96 38.18,-351.5 15.82,-351.5 0,-340.96 0,-326.04 15.82,-315.5 38.18,-315.5 54,-326.04"/>
<text text-anchor="middle" x="27" y="-329.8" font-family="Times New Roman,serif" font-size="14.00">a</text>
</g>
<!-- c15 -->
<g id="node7" class="node">
<title>c15</title>
<polygon fill="none" stroke="black" points="114,-267.5 114,-313.5 196,-313.5 196,-267.5 114,-267.5"/>
<text text-anchor="middle" x="127" y="-298.3" font-family="Times New Roman,serif" font-size="14.00">A</text>
<polyline fill="none" stroke="black" points="114,-290.5 140,-290.5 "/>
<text text-anchor="middle" x="127" y="-275.3" font-family="Times New Roman,serif" font-size="14.00">B</text>
<polyline fill="none" stroke="black" points="140,-267.5 140,-313.5 "/>
<text text-anchor="middle" x="155" y="-294.3" font-family="Times New Roman,serif" font-size="14.00">$2</text>
<text text-anchor="middle" x="155" y="-279.3" font-family="Times New Roman,serif" font-size="14.00">$lt</text>
<polyline fill="none" stroke="black" points="170,-267.5 170,-313.5 "/>
<text text-anchor="middle" x="183" y="-286.8" font-family="Times New Roman,serif" font-size="14.00">Y</text>
</g>
<!-- n6&#45;&gt;c15 -->
<g id="edge13" class="edge">
<title>n6:e&#45;&gt;c15:w</title>
<path fill="none" stroke="#d95f02" stroke-width="3" d="M54,-333.5C57.57,-333.5 90.05,-299.26 105.81,-284.81"/>
<polygon fill="#d95f02" stroke="#d95f02" stroke-width="3" points="108.21,-287.38 114,-278.5 103.94,-281.83 108.21,-287.38"/>
<text text-anchor="middle" x="84" y="-320.3" font-family="Times New Roman,serif" font-size="14.00" fill="#d95f02">&lt;8&gt;</text>
</g>
<!-- c19 -->
<g id="node10" class="node">
<title>c19</title>
<polygon fill="none" stroke="black" points="233,-236 233,-305 332,-305 332,-236 233,-236"/>
<text text-anchor="middle" x="246" y="-289.8" font-family="Times New Roman,serif" font-size="14.00">A</text>
<polyline fill="none" stroke="black" points="233,-282 259,-282 "/>
<text text-anchor="middle" x="246" y="-266.8" font-family="Times New Roman,serif" font-size="14.00">B</text>
<polyline fill="none" stroke="black" points="233,-259 259,-259 "/>
<text text-anchor="middle" x="246" y="-243.8" font-family="Times New Roman,serif" font-size="14.00">S</text>
<polyline fill="none" stroke="black" points="259,-236 259,-305 "/>
<text text-anchor="middle" x="282.5" y="-274.3" font-family="Times New Roman,serif" font-size="14.00">$12</text>
<text text-anchor="middle" x="282.5" y="-259.3" font-family="Times New Roman,serif" font-size="14.00">$mux</text>
<polyline fill="none" stroke="black" points="306,-236 306,-305 "/>
<text text-anchor="middle" x="319" y="-266.8" font-family="Times New Roman,serif" font-size="14.00">Y</text>
</g>
<!-- n6&#45;&gt;c19 -->
<g id="edge14" class="edge">
<title>n6:e&#45;&gt;c19:w</title>
<path fill="none" stroke="#d95f02" stroke-width="3" d="M54,-333.5C62.05,-333.5 63.96,-335.05 72,-335.5 82.65,-336.09 85.35,-336.14 96,-335.5 140.68,-332.83 154.78,-340.95 196,-323.5 211.69,-316.86 212.38,-301.48 223.08,-295.73"/>
<polygon fill="#d95f02" stroke="#d95f02" stroke-width="3" points="224.01,-299.1 233,-293.5 222.48,-292.27 224.01,-299.1"/>
<text text-anchor="middle" x="155" y="-338.3" font-family="Times New Roman,serif" font-size="14.00" fill="#d95f02">&lt;8&gt;</text>
</g>
<!-- n7 -->
<g id="node2" class="node">
<title>n7</title>
<polygon fill="none" stroke="black" points="54,-234.04 54,-248.96 38.18,-259.5 15.82,-259.5 0,-248.96 0,-234.04 15.82,-223.5 38.18,-223.5 54,-234.04"/>
<text text-anchor="middle" x="27" y="-237.8" font-family="Times New Roman,serif" font-size="14.00">b</text>
</g>
<!-- n7&#45;&gt;c15 -->
<g id="edge15" class="edge">
<title>n7:e&#45;&gt;c15:w</title>
<path fill="none" stroke="#1b9e77" stroke-width="3" d="M54,-241.5C66.01,-241.5 87.91,-266.63 96,-275.5 102.38,-282.49 101.92,-291.94 104.94,-297.6"/>
<polygon fill="#1b9e77" stroke="#1b9e77" stroke-width="3" points="103.54,-300.82 114,-302.5 106.87,-294.67 103.54,-300.82"/>
<text text-anchor="middle" x="84" y="-279.3" font-family="Times New Roman,serif" font-size="14.00" fill="#1b9e77">&lt;8&gt;</text>
</g>
<!-- n7&#45;&gt;c19 -->
<g id="edge16" class="edge">
<title>n7:e&#45;&gt;c19:w</title>
<path fill="none" stroke="#1b9e77" stroke-width="3" d="M54,-241.5C117.12,-241.5 136.13,-223.51 196,-243.5 211.39,-248.64 212.82,-262.73 223.07,-268.25"/>
<polygon fill="#1b9e77" stroke="#1b9e77" stroke-width="3" points="222.47,-271.7 233,-270.5 224.02,-264.87 222.47,-271.7"/>
<text text-anchor="middle" x="155" y="-247.3" font-family="Times New Roman,serif" font-size="14.00" fill="#1b9e77">&lt;8&gt;</text>
</g>
<!-- n8 -->
<g id="node3" class="node">
<title>n8</title>
<polygon fill="none" stroke="black" points="54,-148.04 54,-162.96 38.18,-173.5 15.82,-173.5 0,-162.96 0,-148.04 15.82,-137.5 38.18,-137.5 54,-148.04"/>
<text text-anchor="middle" x="27" y="-151.8" font-family="Times New Roman,serif" font-size="14.00">c</text>
</g>
<!-- c16 -->
<g id="node8" class="node">
<title>c16</title>
<polygon fill="none" stroke="black" points="455.6,-170.5 455.6,-216.5 537.6,-216.5 537.6,-170.5 455.6,-170.5"/>
<text text-anchor="middle" x="468.6" y="-201.3" font-family="Times New Roman,serif" font-size="14.00">A</text>
<polyline fill="none" stroke="black" points="455.6,-193.5 481.6,-193.5 "/>
<text text-anchor="middle" x="468.6" y="-178.3" font-family="Times New Roman,serif" font-size="14.00">B</text>
<polyline fill="none" stroke="black" points="481.6,-170.5 481.6,-216.5 "/>
<text text-anchor="middle" x="496.6" y="-197.3" font-family="Times New Roman,serif" font-size="14.00">$3</text>
<text text-anchor="middle" x="496.6" y="-182.3" font-family="Times New Roman,serif" font-size="14.00">$lt</text>
<polyline fill="none" stroke="black" points="511.6,-170.5 511.6,-216.5 "/>
<text text-anchor="middle" x="524.6" y="-189.8" font-family="Times New Roman,serif" font-size="14.00">Y</text>
</g>
<!-- n8&#45;&gt;c16 -->
<g id="edge17" class="edge">
<title>n8:e&#45;&gt;c16:w</title>
<path fill="none" stroke="#1b9e77" stroke-width="3" d="M54,-155.5C100.66,-155.5 107.34,-187.5 154,-187.5 154,-187.5 154,-187.5 394.8,-187.5 406.14,-187.5 429.47,-199.16 445.5,-203.71"/>
<polygon fill="#1b9e77" stroke="#1b9e77" stroke-width="3" points="445.14,-207.2 455.6,-205.5 446.37,-200.31 445.14,-207.2"/>
<text text-anchor="middle" x="282.5" y="-191.3" font-family="Times New Roman,serif" font-size="14.00" fill="#1b9e77">&lt;8&gt;</text>
</g>
<!-- c21 -->
<g id="node12" class="node">
<title>c21</title>
<polygon fill="none" stroke="black" points="574.6,-158 574.6,-227 673.6,-227 673.6,-158 574.6,-158"/>
<text text-anchor="middle" x="587.6" y="-211.8" font-family="Times New Roman,serif" font-size="14.00">A</text>
<polyline fill="none" stroke="black" points="574.6,-204 600.6,-204 "/>
<text text-anchor="middle" x="587.6" y="-188.8" font-family="Times New Roman,serif" font-size="14.00">B</text>
<polyline fill="none" stroke="black" points="574.6,-181 600.6,-181 "/>
<text text-anchor="middle" x="587.6" y="-165.8" font-family="Times New Roman,serif" font-size="14.00">S</text>
<polyline fill="none" stroke="black" points="600.6,-158 600.6,-227 "/>
<text text-anchor="middle" x="624.1" y="-196.3" font-family="Times New Roman,serif" font-size="14.00">$9</text>
<text text-anchor="middle" x="624.1" y="-181.3" font-family="Times New Roman,serif" font-size="14.00">$mux</text>
<polyline fill="none" stroke="black" points="647.6,-158 647.6,-227 "/>
<text text-anchor="middle" x="660.6" y="-188.8" font-family="Times New Roman,serif" font-size="14.00">Y</text>
</g>
<!-- n8&#45;&gt;c21 -->
<g id="edge18" class="edge">
<title>n8:e&#45;&gt;c21:w</title>
<path fill="none" stroke="#1b9e77" stroke-width="3" d="M54,-155.5C98.88,-155.5 109.12,-141.5 154,-141.5 154,-141.5 154,-141.5 497.6,-141.5 517.28,-141.5 521.12,-149.74 537.6,-160.5 538.41,-161.03 556.08,-176.98 566.72,-186.16"/>
<polygon fill="#1b9e77" stroke="#1b9e77" stroke-width="3" points="564.62,-188.96 574.6,-192.5 569,-183.5 564.62,-188.96"/>
<text text-anchor="middle" x="362" y="-145.3" font-family="Times New Roman,serif" font-size="14.00" fill="#1b9e77">&lt;8&gt;</text>
</g>
<!-- n9 -->
<g id="node4" class="node">
<title>n9</title>
<polygon fill="none" stroke="black" points="54,-77.04 54,-91.96 38.18,-102.5 15.82,-102.5 0,-91.96 0,-77.04 15.82,-66.5 38.18,-66.5 54,-77.04"/>
<text text-anchor="middle" x="27" y="-80.8" font-family="Times New Roman,serif" font-size="14.00">d</text>
</g>
<!-- c17 -->
<g id="node9" class="node">
<title>c17</title>
<polygon fill="none" stroke="black" points="797.2,-23.5 797.2,-69.5 879.2,-69.5 879.2,-23.5 797.2,-23.5"/>
<text text-anchor="middle" x="810.2" y="-54.3" font-family="Times New Roman,serif" font-size="14.00">A</text>
<polyline fill="none" stroke="black" points="797.2,-46.5 823.2,-46.5 "/>
<text text-anchor="middle" x="810.2" y="-31.3" font-family="Times New Roman,serif" font-size="14.00">B</text>
<polyline fill="none" stroke="black" points="823.2,-23.5 823.2,-69.5 "/>
<text text-anchor="middle" x="838.2" y="-50.3" font-family="Times New Roman,serif" font-size="14.00">$4</text>
<text text-anchor="middle" x="838.2" y="-35.3" font-family="Times New Roman,serif" font-size="14.00">$lt</text>
<polyline fill="none" stroke="black" points="853.2,-23.5 853.2,-69.5 "/>
<text text-anchor="middle" x="866.2" y="-42.8" font-family="Times New Roman,serif" font-size="14.00">Y</text>
</g>
<!-- n9&#45;&gt;c17 -->
<g id="edge19" class="edge">
<title>n9:e&#45;&gt;c17:w</title>
<path fill="none" stroke="#e6ab02" stroke-width="3" d="M54,-84.5C100.66,-84.5 107.34,-52.5 154,-52.5 154,-52.5 154,-52.5 736.4,-52.5 759.84,-52.5 767.88,-56.97 787.12,-58.19"/>
<polygon fill="#e6ab02" stroke="#e6ab02" stroke-width="3" points="787.1,-61.7 797.2,-58.5 787.31,-54.7 787.1,-61.7"/>
<text text-anchor="middle" x="425.6" y="-56.3" font-family="Times New Roman,serif" font-size="14.00" fill="#e6ab02">&lt;8&gt;</text>
</g>
<!-- c20 -->
<g id="node11" class="node">
<title>c20</title>
<polygon fill="none" stroke="black" points="969.2,-64 969.2,-133 1068.2,-133 1068.2,-64 969.2,-64"/>
<text text-anchor="middle" x="982.2" y="-117.8" font-family="Times New Roman,serif" font-size="14.00">A</text>
<polyline fill="none" stroke="black" points="969.2,-110 995.2,-110 "/>
<text text-anchor="middle" x="982.2" y="-94.8" font-family="Times New Roman,serif" font-size="14.00">B</text>
<polyline fill="none" stroke="black" points="969.2,-87 995.2,-87 "/>
<text text-anchor="middle" x="982.2" y="-71.8" font-family="Times New Roman,serif" font-size="14.00">S</text>
<polyline fill="none" stroke="black" points="995.2,-64 995.2,-133 "/>
<text text-anchor="middle" x="1018.7" y="-102.3" font-family="Times New Roman,serif" font-size="14.00">$6</text>
<text text-anchor="middle" x="1018.7" y="-87.3" font-family="Times New Roman,serif" font-size="14.00">$mux</text>
<polyline fill="none" stroke="black" points="1042.2,-64 1042.2,-133 "/>
<text text-anchor="middle" x="1055.2" y="-94.8" font-family="Times New Roman,serif" font-size="14.00">Y</text>
</g>
<!-- n9&#45;&gt;c20 -->
<g id="edge20" class="edge">
<title>n9:e&#45;&gt;c20:w</title>
<path fill="none" stroke="#e6ab02" stroke-width="3" d="M54,-84.5C98.88,-84.5 109.12,-98.5 154,-98.5 154,-98.5 154,-98.5 839.2,-98.5 893.48,-98.5 909.51,-98.5 959.16,-98.5"/>
<polygon fill="#e6ab02" stroke="#e6ab02" stroke-width="3" points="959.2,-102 969.2,-98.5 959.2,-95 959.2,-102"/>
<text text-anchor="middle" x="496.6" y="-102.3" font-family="Times New Roman,serif" font-size="14.00" fill="#e6ab02">&lt;8&gt;</text>
</g>
<!-- n10 -->
<g id="node5" class="node">
<title>n10</title>
<polygon fill="none" stroke="black" points="1244.6,-127.04 1244.6,-141.96 1228.78,-152.5 1206.42,-152.5 1190.6,-141.96 1190.6,-127.04 1206.42,-116.5 1228.78,-116.5 1244.6,-127.04"/>
<text text-anchor="middle" x="1217.6" y="-130.8" font-family="Times New Roman,serif" font-size="14.00">min</text>
</g>
<!-- x0 -->
<g id="node13" class="node">
<title>x0</title>
<path fill="none" stroke="black" d="M939.2,-225.5C939.2,-225.5 909.2,-225.5 909.2,-225.5 903.2,-225.5 897.2,-219.5 897.2,-213.5 897.2,-213.5 897.2,-201.5 897.2,-201.5 897.2,-195.5 903.2,-189.5 909.2,-189.5 909.2,-189.5 939.2,-189.5 939.2,-189.5 945.2,-189.5 951.2,-195.5 951.2,-201.5 951.2,-201.5 951.2,-213.5 951.2,-213.5 951.2,-219.5 945.2,-225.5 939.2,-225.5"/>
<text text-anchor="middle" x="924.2" y="-203.8" font-family="Times New Roman,serif" font-size="14.00">BUF</text>
</g>
<!-- n10&#45;&gt;x0 -->
<g id="edge5" class="edge">
<title>n10:e&#45;&gt;x0:w</title>
<path fill="none" stroke="#1b9e77" stroke-width="3" d="M1245.6,-134.5C1253.61,-134.5 1250.04,-146.62 1244.6,-152.5 1160.75,-243.17 1069.69,-117.71 969.2,-189.5 954.64,-199.9 966.42,-216.1 951.2,-225.5 930.78,-238.12 914.63,-241.99 897.2,-225.5 894.84,-223.26 892.9,-219.87 891.98,-216.64"/>
<polygon fill="#1b9e77" stroke="#1b9e77" stroke-width="3" points="895.19,-218.05 896.2,-207.5 888.83,-215.11 895.19,-218.05"/>
<text text-anchor="middle" x="1018.7" y="-193.3" font-family="Times New Roman,serif" font-size="14.00" fill="#1b9e77">&lt;8&gt;</text>
</g>
<!-- n11 -->
<g id="node6" class="node">
<title>n11</title>
<polygon fill="none" stroke="black" points="1129.4,-238.5 1086,-220.5 1129.4,-202.5 1172.8,-220.5 1129.4,-238.5"/>
<text text-anchor="middle" x="1129.4" y="-216.8" font-family="Times New Roman,serif" font-size="14.00">min_i</text>
</g>
<!-- c15&#45;&gt;c19 -->
<g id="edge10" class="edge">
<title>c15:e&#45;&gt;c19:w</title>
<path fill="none" stroke="#e7298a" d="M196,-290.5C217.08,-290.5 211.15,-260.45 223.37,-250.59"/>
<polygon fill="#e7298a" stroke="#e7298a" points="224.55,-253.89 233,-247.5 222.41,-247.23 224.55,-253.89"/>
</g>
<!-- c16&#45;&gt;c21 -->
<g id="edge11" class="edge">
<title>c16:e&#45;&gt;c21:w</title>
<path fill="none" stroke="#e7298a" d="M537.6,-193.5C553.07,-193.5 554.96,-178.56 564.7,-172.25"/>
<polygon fill="#e7298a" stroke="#e7298a" points="565.9,-175.55 574.6,-169.5 564.03,-168.81 565.9,-175.55"/>
</g>
<!-- c17&#45;&gt;c20 -->
<g id="edge12" class="edge">
<title>c17:e&#45;&gt;c20:w</title>
<path fill="none" stroke="#7570b3" d="M879.2,-46.5C917.61,-46.5 925.89,-70.73 959.12,-74.89"/>
<polygon fill="#7570b3" stroke="#7570b3" points="959.01,-78.39 969.2,-75.5 959.43,-71.41 959.01,-78.39"/>
</g>
<!-- n1 -->
<g id="node14" class="node">
<title>n1</title>
<ellipse fill="black" stroke="black" cx="393.8" cy="-253.5" rx="1.8" ry="1.8"/>
</g>
<!-- c19&#45;&gt;n1 -->
<g id="edge1" class="edge">
<title>c19:e&#45;&gt;n1:w</title>
<path fill="none" stroke="#66a61e" stroke-width="3" d="M332,-270.5C355.93,-270.5 362.6,-257.83 381.81,-254.37"/>
<polygon fill="#66a61e" stroke="#66a61e" stroke-width="3" points="382.33,-257.83 392,-253.5 381.74,-250.86 382.33,-257.83"/>
<text text-anchor="middle" x="362" y="-270.3" font-family="Times New Roman,serif" font-size="14.00" fill="#66a61e">&lt;8&gt;</text>
</g>
<!-- c20&#45;&gt;n10 -->
<g id="edge4" class="edge">
<title>c20:e&#45;&gt;n10:w</title>
<path fill="none" stroke="#1b9e77" stroke-width="3" d="M1068.2,-98.5C1121.36,-98.5 1132.59,-130.14 1180.5,-134.1"/>
<polygon fill="#1b9e77" stroke="#1b9e77" stroke-width="3" points="1180.47,-137.6 1190.6,-134.5 1180.75,-130.6 1180.47,-137.6"/>
<text text-anchor="middle" x="1129.4" y="-137.3" font-family="Times New Roman,serif" font-size="14.00" fill="#1b9e77">&lt;8&gt;</text>
</g>
<!-- n2 -->
<g id="node15" class="node">
<title>n2</title>
<ellipse fill="black" stroke="black" cx="735.4" cy="-161.5" rx="1.8" ry="1.8"/>
</g>
<!-- c21&#45;&gt;n2 -->
<g id="edge7" class="edge">
<title>c21:e&#45;&gt;n2:w</title>
<path fill="none" stroke="#7570b3" stroke-width="3" d="M673.6,-192.5C699.86,-192.5 703.12,-168.77 723.64,-162.83"/>
<polygon fill="#7570b3" stroke="#7570b3" stroke-width="3" points="724.15,-166.29 733.6,-161.5 723.22,-159.36 724.15,-166.29"/>
<text text-anchor="middle" x="703.6" y="-191.3" font-family="Times New Roman,serif" font-size="14.00" fill="#7570b3">&lt;8&gt;</text>
</g>
<!-- x0&#45;&gt;n11 -->
<g id="edge6" class="edge">
<title>x0:e&#45;&gt;n11:w</title>
<path fill="none" stroke="#1b9e77" stroke-width="3" d="M951.2,-207.5C1007.95,-207.5 1024.07,-219.02 1076.06,-220.37"/>
<polygon fill="#1b9e77" stroke="#1b9e77" stroke-width="3" points="1076.16,-223.87 1086.2,-220.5 1076.25,-216.87 1076.16,-223.87"/>
<text text-anchor="middle" x="1018.7" y="-224.3" font-family="Times New Roman,serif" font-size="14.00" fill="#1b9e77">&lt;8&gt;</text>
</g>
<!-- n1&#45;&gt;c16 -->
<g id="edge2" class="edge">
<title>n1:e&#45;&gt;c16:w</title>
<path fill="none" stroke="#66a61e" stroke-width="3" d="M395.6,-253.5C410.77,-253.5 404.17,-236.39 413.6,-224.5 422.97,-212.68 427.08,-211.31 437.6,-200.5 442.42,-195.55 443.76,-189.78 446.49,-185.91"/>
<polygon fill="#66a61e" stroke="#66a61e" stroke-width="3" points="448.12,-189.01 455.6,-181.5 445.07,-182.71 448.12,-189.01"/>
<text text-anchor="middle" x="425.6" y="-228.3" font-family="Times New Roman,serif" font-size="14.00" fill="#66a61e">&lt;8&gt;</text>
</g>
<!-- n1&#45;&gt;c21 -->
<g id="edge3" class="edge">
<title>n1:e&#45;&gt;c21:w</title>
<path fill="none" stroke="#66a61e" stroke-width="3" d="M395.6,-253.5C459.93,-253.5 474.96,-240.12 537.6,-225.5 550.3,-222.54 555.26,-218.25 564.53,-216.4"/>
<polygon fill="#66a61e" stroke="#66a61e" stroke-width="3" points="564.95,-219.88 574.6,-215.5 564.33,-212.91 564.95,-219.88"/>
<text text-anchor="middle" x="496.6" y="-251.3" font-family="Times New Roman,serif" font-size="14.00" fill="#66a61e">&lt;8&gt;</text>
</g>
<!-- n2&#45;&gt;c17 -->
<g id="edge8" class="edge">
<title>n2:e&#45;&gt;c17:w</title>
<path fill="none" stroke="#7570b3" stroke-width="3" d="M737.2,-161.5C743.78,-161.5 776.42,-71.09 791.14,-42.83"/>
<polygon fill="#7570b3" stroke="#7570b3" stroke-width="3" points="794.15,-44.65 797.2,-34.5 788.49,-40.53 794.15,-44.65"/>
<text text-anchor="middle" x="767.2" y="-128.3" font-family="Times New Roman,serif" font-size="14.00" fill="#7570b3">&lt;8&gt;</text>
</g>
<!-- n2&#45;&gt;c20 -->
<g id="edge9" class="edge">
<title>n2:e&#45;&gt;c20:w</title>
<path fill="none" stroke="#7570b3" stroke-width="3" d="M737.2,-161.5C838.36,-161.5 862.97,-124.11 959.04,-121.63"/>
<polygon fill="#7570b3" stroke="#7570b3" stroke-width="3" points="959.25,-125.13 969.2,-121.5 959.16,-118.13 959.25,-125.13"/>
<text text-anchor="middle" x="838.2" y="-160.3" font-family="Times New Roman,serif" font-size="14.00" fill="#7570b3">&lt;8&gt;</text>
</g>
</g>
</svg>
