<svg xmlns="http://www.w3.org/2000/svg" xmlns:xlink="http://www.w3.org/1999/xlink" xmlns:s="https://github.com/nturley/netlistsvg" width="1086" height="703">
  <style>svg {
    stroke:#000;
    fill:none;
  }
  text {
    fill:#000;
    stroke:none;
    font-size:10px;
    font-weight: bold;
    font-family: "Courier New", monospace;
  }
  .nodelabel {
    text-anchor: middle;
  }
  .inputPortLabel {
    text-anchor: end;
  }
  .splitjoinBody {
    fill:#000;
  }</style>
  <g s:type="generic" transform="translate(326,258)" s:width="30" s:height="40" id="cell_$auto$opt_reduce.cc:128:opt_mux$32">
    <text x="15" y="-4" class="nodelabel cell_$auto$opt_reduce.cc:128:opt_mux$32" s:attribute="ref">$reduce_or</text>
    <rect width="30" height="20" s:generic="body" class="cell_$auto$opt_reduce.cc:128:opt_mux$32"/>
    <g transform="translate(0,10)" s:x="0" s:y="10" s:pid="in0" id="port_$auto$opt_reduce.cc:128:opt_mux$32~A">
      <text x="-3" y="-4" class="inputPortLabel cell_$auto$opt_reduce.cc:128:opt_mux$32">A</text>
    </g>
    <g transform="translate(30,10)" s:x="30" s:y="10" s:pid="out0" id="port_$auto$opt_reduce.cc:128:opt_mux$32~Y">
      <text x="5" y="-4" style="fill:#000; stroke:none" class="cell_$auto$opt_reduce.cc:128:opt_mux$32">Y</text>
    </g>
  </g>
  <g s:type="generic" transform="translate(326,375.5)" s:width="30" s:height="40" id="cell_$auto$opt_reduce.cc:128:opt_mux$34">
    <text x="15" y="-4" class="nodelabel cell_$auto$opt_reduce.cc:128:opt_mux$34" s:attribute="ref">$reduce_or</text>
    <rect width="30" height="20" s:generic="body" class="cell_$auto$opt_reduce.cc:128:opt_mux$34"/>
    <g transform="translate(0,10)" s:x="0" s:y="10" s:pid="in0" id="port_$auto$opt_reduce.cc:128:opt_mux$34~A">
      <text x="-3" y="-4" class="inputPortLabel cell_$auto$opt_reduce.cc:128:opt_mux$34">A</text>
    </g>
    <g transform="translate(30,10)" s:x="30" s:y="10" s:pid="out0" id="port_$auto$opt_reduce.cc:128:opt_mux$34~Y">
      <text x="5" y="-4" style="fill:#000; stroke:none" class="cell_$auto$opt_reduce.cc:128:opt_mux$34">Y</text>
    </g>
  </g>
  <g s:type="dff" transform="translate(955,640)" s:width="30" s:height="40" id="cell_$procdff$30">
    <s:alias val="$dff"/>
    <s:alias val="$_DFF_"/>
    <s:alias val="$_DFF_P_"/>
    <rect width="30" height="40" x="0" y="0" class="cell_$procdff$30"/>
    <path d="M0,35 L5,30 L0,25" class="cell_$procdff$30"/>
    <g s:x="30" s:y="10" s:pid="Q"/>
    <g s:x="0" s:y="30" s:pid="CLK"/>
    <g s:x="0" s:y="30" s:pid="C"/>
    <g s:x="0" s:y="10" s:pid="D"/>
  </g>
  <g s:type="dff" transform="translate(825,394.5)" s:width="30" s:height="40" id="cell_$procdff$31">
    <s:alias val="$dff"/>
    <s:alias val="$_DFF_"/>
    <s:alias val="$_DFF_P_"/>
    <rect width="30" height="40" x="0" y="0" class="cell_$procdff$31"/>
    <path d="M0,35 L5,30 L0,25" class="cell_$procdff$31"/>
    <g s:x="30" s:y="10" s:pid="Q"/>
    <g s:x="0" s:y="30" s:pid="CLK"/>
    <g s:x="0" s:y="30" s:pid="C"/>
    <g s:x="0" s:y="10" s:pid="D"/>
  </g>
  <g s:type="mux" transform="translate(828.3333333333334,609)" s:width="20" s:height="40" id="cell_$procmux$11">
    <s:alias val="$pmux"/>
    <s:alias val="$mux"/>
    <s:alias val="$_MUX_"/>
    <path d="M0,0 L20,10 L20,30 L0,40 Z" class="cell_$procmux$11"/>
    <g s:x="0" s:y="10" s:pid="A"/>
    <g s:x="0" s:y="30" s:pid="B"/>
    <g s:x="10" s:y="35" s:pid="S"/>
    <g s:x="20" s:y="20" s:pid="Y"/>
  </g>
  <g s:type="mux" transform="translate(770,476.5)" s:width="20" s:height="40" id="cell_$procmux$13">
    <s:alias val="$pmux"/>
    <s:alias val="$mux"/>
    <s:alias val="$_MUX_"/>
    <path d="M0,0 L20,10 L20,30 L0,40 Z" class="cell_$procmux$13"/>
    <g s:x="0" s:y="10" s:pid="A"/>
    <g s:x="0" s:y="30" s:pid="B"/>
    <g s:x="10" s:y="35" s:pid="S"/>
    <g s:x="20" s:y="20" s:pid="Y"/>
  </g>
  <g s:type="mux" transform="translate(828.3333333333334,496.5)" s:width="20" s:height="40" id="cell_$procmux$16">
    <s:alias val="$pmux"/>
    <s:alias val="$mux"/>
    <s:alias val="$_MUX_"/>
    <path d="M0,0 L20,10 L20,30 L0,40 Z" class="cell_$procmux$16"/>
    <g s:x="0" s:y="10" s:pid="A"/>
    <g s:x="0" s:y="30" s:pid="B"/>
    <g s:x="10" s:y="35" s:pid="S"/>
    <g s:x="20" s:y="20" s:pid="Y"/>
  </g>
  <g s:type="mux" transform="translate(700,270.5)" s:width="20" s:height="40" id="cell_$procmux$18">
    <s:alias val="$pmux"/>
    <s:alias val="$mux"/>
    <s:alias val="$_MUX_"/>
    <path d="M0,0 L20,10 L20,30 L0,40 Z" class="cell_$procmux$18"/>
    <g s:x="0" s:y="10" s:pid="A"/>
    <g s:x="0" s:y="30" s:pid="B"/>
    <g s:x="10" s:y="35" s:pid="S"/>
    <g s:x="20" s:y="20" s:pid="Y"/>
  </g>
  <g s:type="mux" transform="translate(770,280.5)" s:width="20" s:height="40" id="cell_$procmux$21">
    <s:alias val="$pmux"/>
    <s:alias val="$mux"/>
    <s:alias val="$_MUX_"/>
    <path d="M0,0 L20,10 L20,30 L0,40 Z" class="cell_$procmux$21"/>
    <g s:x="0" s:y="10" s:pid="A"/>
    <g s:x="0" s:y="30" s:pid="B"/>
    <g s:x="10" s:y="35" s:pid="S"/>
    <g s:x="20" s:y="20" s:pid="Y"/>
  </g>
  <g s:type="mux" transform="translate(640,280.5)" s:width="20" s:height="40" id="cell_$procmux$23">
    <s:alias val="$pmux"/>
    <s:alias val="$mux"/>
    <s:alias val="$_MUX_"/>
    <path d="M0,0 L20,10 L20,30 L0,40 Z" class="cell_$procmux$23"/>
    <g s:x="0" s:y="10" s:pid="A"/>
    <g s:x="0" s:y="30" s:pid="B"/>
    <g s:x="10" s:y="35" s:pid="S"/>
    <g s:x="20" s:y="20" s:pid="Y"/>
  </g>
  <g s:type="eq" transform="translate(190.66666666666666,124)" s:width="25" s:height="25" id="cell_$procmux$24_CMP0">
    <s:alias val="$eq"/>
    <circle r="12.5" cx="12.5" cy="12.5" class="cell_$procmux$24_CMP0"/>
    <line x1="7.5" x2="17.5" y1="10" y2="10" class="cell_$procmux$24_CMP0"/>
    <line x1="7.5" x2="17.5" y1="15" y2="15" class="cell_$procmux$24_CMP0"/>
    <g s:x="3" s:y="5" s:pid="A"/>
    <g s:x="3" s:y="20" s:pid="B"/>
    <g s:x="25" s:y="12.5" s:pid="Y"/>
  </g>
  <g s:type="eq" transform="translate(190.66666666666666,326)" s:width="25" s:height="25" id="cell_$procmux$25_CMP0">
    <s:alias val="$eq"/>
    <circle r="12.5" cx="12.5" cy="12.5" class="cell_$procmux$25_CMP0"/>
    <line x1="7.5" x2="17.5" y1="10" y2="10" class="cell_$procmux$25_CMP0"/>
    <line x1="7.5" x2="17.5" y1="15" y2="15" class="cell_$procmux$25_CMP0"/>
    <g s:x="3" s:y="5" s:pid="A"/>
    <g s:x="3" s:y="20" s:pid="B"/>
    <g s:x="25" s:y="12.5" s:pid="Y"/>
  </g>
  <g s:type="eq" transform="translate(385,181)" s:width="25" s:height="25" id="cell_$procmux$26_CMP0">
    <s:alias val="$eq"/>
    <circle r="12.5" cx="12.5" cy="12.5" class="cell_$procmux$26_CMP0"/>
    <line x1="7.5" x2="17.5" y1="10" y2="10" class="cell_$procmux$26_CMP0"/>
    <line x1="7.5" x2="17.5" y1="15" y2="15" class="cell_$procmux$26_CMP0"/>
    <g s:x="3" s:y="5" s:pid="A"/>
    <g s:x="3" s:y="20" s:pid="B"/>
    <g s:x="25" s:y="12.5" s:pid="Y"/>
  </g>
  <g s:type="eq" transform="translate(385,73)" s:width="25" s:height="25" id="cell_$procmux$27_CMP0">
    <s:alias val="$eq"/>
    <circle r="12.5" cx="12.5" cy="12.5" class="cell_$procmux$27_CMP0"/>
    <line x1="7.5" x2="17.5" y1="10" y2="10" class="cell_$procmux$27_CMP0"/>
    <line x1="7.5" x2="17.5" y1="15" y2="15" class="cell_$procmux$27_CMP0"/>
    <g s:x="3" s:y="5" s:pid="A"/>
    <g s:x="3" s:y="20" s:pid="B"/>
    <g s:x="25" s:y="12.5" s:pid="Y"/>
  </g>
  <g s:type="eq" transform="translate(190.66666666666666,266)" s:width="25" s:height="25" id="cell_$procmux$28_CMP0">
    <s:alias val="$eq"/>
    <circle r="12.5" cx="12.5" cy="12.5" class="cell_$procmux$28_CMP0"/>
    <line x1="7.5" x2="17.5" y1="10" y2="10" class="cell_$procmux$28_CMP0"/>
    <line x1="7.5" x2="17.5" y1="15" y2="15" class="cell_$procmux$28_CMP0"/>
    <g s:x="3" s:y="5" s:pid="A"/>
    <g s:x="3" s:y="20" s:pid="B"/>
    <g s:x="25" s:y="12.5" s:pid="Y"/>
  </g>
  <g s:type="not" transform="translate(189,386)" s:width="30" s:height="20" id="cell_$procmux$29_CMP0">
    <s:alias val="$_NOT_"/>
    <s:alias val="$not"/>
    <s:alias val="$logic_not"/>
    <path d="M0,0 L0,20 L20,10 Z" class="cell_$procmux$29_CMP0"/>
    <circle cx="23" cy="10" r="3" class="cell_$procmux$29_CMP0"/>
    <g s:x="0" s:y="10" s:pid="A"/>
    <g s:x="25" s:y="10" s:pid="Y"/>
  </g>
  <g s:type="mux" transform="translate(958.3333333333334,22)" s:width="20" s:height="40" id="cell_$procmux$6">
    <s:alias val="$pmux"/>
    <s:alias val="$mux"/>
    <s:alias val="$_MUX_"/>
    <path d="M0,0 L20,10 L20,30 L0,40 Z" class="cell_$procmux$6"/>
    <g s:x="0" s:y="10" s:pid="A"/>
    <g s:x="0" s:y="30" s:pid="B"/>
    <g s:x="10" s:y="35" s:pid="S"/>
    <g s:x="20" s:y="20" s:pid="Y"/>
  </g>
  <g s:type="eq" transform="translate(895,435.5)" s:width="25" s:height="25" id="cell_$procmux$7_CMP0">
    <s:alias val="$eq"/>
    <circle r="12.5" cx="12.5" cy="12.5" class="cell_$procmux$7_CMP0"/>
    <line x1="7.5" x2="17.5" y1="10" y2="10" class="cell_$procmux$7_CMP0"/>
    <line x1="7.5" x2="17.5" y1="15" y2="15" class="cell_$procmux$7_CMP0"/>
    <g s:x="3" s:y="5" s:pid="A"/>
    <g s:x="3" s:y="20" s:pid="B"/>
    <g s:x="25" s:y="12.5" s:pid="Y"/>
  </g>
  <g s:type="mux" transform="translate(770,599)" s:width="20" s:height="40" id="cell_$procmux$8">
    <s:alias val="$pmux"/>
    <s:alias val="$mux"/>
    <s:alias val="$_MUX_"/>
    <path d="M0,0 L20,10 L20,30 L0,40 Z" class="cell_$procmux$8"/>
    <g s:x="0" s:y="10" s:pid="A"/>
    <g s:x="0" s:y="30" s:pid="B"/>
    <g s:x="10" s:y="35" s:pid="S"/>
    <g s:x="20" s:y="20" s:pid="Y"/>
  </g>
  <g s:type="inputExt" transform="translate(635,556.5)" s:width="30" s:height="20" id="cell_clk">
    <text x="15" y="-4" class="nodelabel cell_clk" s:attribute="ref">clk</text>
    <s:alias val="$_inputExt_"/>
    <path d="M0,0 L0,20 L15,20 L30,10 L15,0 Z" class="cell_clk"/>
    <g s:x="28" s:y="10" s:pid="Y"/>
  </g>
  <g s:type="inputExt" transform="translate(12,496.5)" s:width="30" s:height="20" id="cell_in">
    <text x="15" y="-4" class="nodelabel cell_in" s:attribute="ref">in</text>
    <s:alias val="$_inputExt_"/>
    <path d="M0,0 L0,20 L15,20 L30,10 L15,0 Z" class="cell_in"/>
    <g s:x="28" s:y="10" s:pid="Y"/>
  </g>
  <g s:type="inputExt" transform="translate(700,536.5)" s:width="30" s:height="20" id="cell_reset">
    <text x="15" y="-4" class="nodelabel cell_reset" s:attribute="ref">reset</text>
    <s:alias val="$_inputExt_"/>
    <path d="M0,0 L0,20 L15,20 L30,10 L15,0 Z" class="cell_reset"/>
    <g s:x="28" s:y="10" s:pid="Y"/>
  </g>
  <g s:type="outputExt" transform="translate(1020,640)" s:width="30" s:height="20" id="cell_out_bytes">
    <text x="15" y="-4" class="nodelabel cell_out_bytes" s:attribute="ref">out_bytes</text>
    <s:alias val="$_outputExt_"/>
    <path d="M30,0 L30,20 L15,20 L0,10 L15,0 Z" class="cell_out_bytes"/>
    <g s:x="0" s:y="10" s:pid="A"/>
  </g>
  <g s:type="outputExt" transform="translate(1020,32)" s:width="30" s:height="20" id="cell_done">
    <text x="15" y="-4" class="nodelabel cell_done" s:attribute="ref">done</text>
    <s:alias val="$_outputExt_"/>
    <path d="M30,0 L30,20 L15,20 L0,10 L15,0 Z" class="cell_done"/>
    <g s:x="0" s:y="10" s:pid="A"/>
  </g>
  <g s:type="constant" transform="translate(700,215.5)" s:width="30" s:height="20" id="cell_00">
    <text x="15" y="-4" class="nodelabel cell_00" s:attribute="ref">00</text>
    <s:alias val="$_constant_"/>
    <rect width="30" height="20" class="cell_00"/>
    <g s:x="30" s:y="10" s:pid="Y"/>
  </g>
  <g s:type="constant" transform="translate(570,300.5)" s:width="30" s:height="20" id="cell_10110001">
    <text x="15" y="-4" class="nodelabel cell_10110001" s:attribute="ref">0xb1</text>
    <s:alias val="$_constant_"/>
    <rect width="30" height="20" class="cell_10110001"/>
    <g s:x="30" s:y="10" s:pid="Y"/>
  </g>
  <g s:type="constant" transform="translate(124,134)" s:width="30" s:height="20" id="cell_111">
    <text x="15" y="-4" class="nodelabel cell_111" s:attribute="ref">111</text>
    <s:alias val="$_constant_"/>
    <rect width="30" height="20" class="cell_111"/>
    <g s:x="30" s:y="10" s:pid="Y"/>
  </g>
  <g s:type="constant" transform="translate(124,445.5)" s:width="30" s:height="20" id="cell_11">
    <text x="15" y="-4" class="nodelabel cell_11" s:attribute="ref">11</text>
    <s:alias val="$_constant_"/>
    <rect width="30" height="20" class="cell_11"/>
    <g s:x="30" s:y="10" s:pid="Y"/>
  </g>
  <g s:type="constant" transform="translate(254,191)" s:width="30" s:height="20" id="cell_10">
    <text x="15" y="-4" class="nodelabel cell_10" s:attribute="ref">10</text>
    <s:alias val="$_constant_"/>
    <rect width="30" height="20" class="cell_10"/>
    <g s:x="30" s:y="10" s:pid="Y"/>
  </g>
  <g s:type="constant" transform="translate(254,83)" s:width="30" s:height="20" id="cell_1">
    <text x="15" y="-4" class="nodelabel cell_1" s:attribute="ref">1</text>
    <s:alias val="$_constant_"/>
    <rect width="30" height="20" class="cell_1"/>
    <g s:x="30" s:y="10" s:pid="Y"/>
  </g>
  <g s:type="constant" transform="translate(124,276)" s:width="30" s:height="20" id="cell_100">
    <text x="15" y="-4" class="nodelabel cell_100" s:attribute="ref">100</text>
    <s:alias val="$_constant_"/>
    <rect width="30" height="20" class="cell_100"/>
    <g s:x="30" s:y="10" s:pid="Y"/>
  </g>
  <g s:type="constant" transform="translate(890,22)" s:width="30" s:height="20" id="cell_0">
    <text x="15" y="-4" class="nodelabel cell_0" s:attribute="ref">0</text>
    <s:alias val="$_constant_"/>
    <rect width="30" height="20" class="cell_0"/>
    <g s:x="30" s:y="10" s:pid="Y"/>
  </g>
  <g s:type="join" transform="translate(265,248)" s:width="4" s:height="40" id="cell_$join$,37,38,">
    <rect width="5" height="40" class="splitjoinBody" s:generic="body"/>
    <s:alias val="$_join_"/>
    <g s:x="5" s:y="20" s:pid="out"/>
    <g transform="translate(0,10)" s:x="0" s:y="10" s:pid="in0">
      <text x="-3" y="-4" class="inputPortLabel">0</text>
    </g>
    <g transform="translate(0,30)" s:x="0" s:y="10" s:pid="in0">
      <text x="-3" y="-4" class="inputPortLabel">1</text>
    </g>
  </g>
  <g s:type="join" transform="translate(265,365.5)" s:width="4" s:height="40" id="cell_$join$,40,41,">
    <rect width="5" height="40" class="splitjoinBody" s:generic="body"/>
    <s:alias val="$_join_"/>
    <g s:x="5" s:y="20" s:pid="out"/>
    <g transform="translate(0,10)" s:x="0" s:y="10" s:pid="in0">
      <text x="-3" y="-4" class="inputPortLabel">0</text>
    </g>
    <g transform="translate(0,30)" s:x="0" s:y="10" s:pid="in0">
      <text x="-3" y="-4" class="inputPortLabel">1</text>
    </g>
  </g>
  <g s:type="join" transform="translate(909,598.5)" s:width="4" s:height="40" id="cell_$join$,43,44,45,46,47,48,49,50,51,52,53,54,55,56,57,58,59,60,61,62,63,64,65,66,">
    <rect width="5" height="40" class="splitjoinBody" s:generic="body"/>
    <s:alias val="$_join_"/>
    <g s:x="5" s:y="20" s:pid="out"/>
    <g transform="translate(0,10)" s:x="0" s:y="10" s:pid="in0">
      <text x="-3" y="-4" class="inputPortLabel">0:7</text>
    </g>
    <g transform="translate(0,30)" s:x="0" s:y="10" s:pid="in0">
      <text x="-3" y="-4" class="inputPortLabel">8:23</text>
    </g>
  </g>
  <g s:type="join" transform="translate(580,355.5)" s:width="4" s:height="40" id="cell_$join$,39,42,99,100,">
    <rect width="5" height="80" class="splitjoinBody" s:generic="body"/>
    <s:alias val="$_join_"/>
    <g s:x="5" s:y="20" s:pid="out"/>
    <g transform="translate(0,10)" s:x="0" s:y="10" s:pid="in0">
      <text x="-3" y="-4" class="inputPortLabel">0</text>
    </g>
    <g transform="translate(0,30)" s:x="0" s:y="10" s:pid="in0">
      <text x="-3" y="-4" class="inputPortLabel">1</text>
    </g>
    <g transform="translate(0,50)" s:x="0" s:y="10" s:pid="in0">
      <text x="-3" y="-4" class="inputPortLabel">2</text>
    </g>
    <g transform="translate(0,70)" s:x="0" s:y="10" s:pid="in0">
      <text x="-3" y="-4" class="inputPortLabel">3</text>
    </g>
  </g>
  <g s:type="join" transform="translate(143,191)" s:width="4" s:height="40" id="cell_$join$,69,70,6,">
    <rect width="5" height="40" class="splitjoinBody" s:generic="body"/>
    <s:alias val="$_join_"/>
    <g s:x="5" s:y="20" s:pid="out"/>
    <g transform="translate(0,10)" s:x="0" s:y="10" s:pid="in0">
      <text x="-3" y="-4" class="inputPortLabel">0:1</text>
    </g>
    <g transform="translate(0,30)" s:x="0" s:y="10" s:pid="in0">
      <text x="-3" y="-4" class="inputPortLabel">2</text>
    </g>
  </g>
  <g s:type="split" transform="translate(700,577.5)" s:width="5" s:height="40" id="cell_$split$,12,13,14,15,16,17,18,19,20,21,22,23,24,25,26,27,28,29,30,31,32,33,34,35,">
    <rect width="5" height="60" class="splitjoinBody" s:generic="body"/>
    <s:alias val="$_split_"/>
    <g s:x="0" s:y="20" s:pid="in"/>
    <g transform="translate(4,10)" s:x="4" s:y="10" s:pid="out0">
      <text x="5" y="-4">8:23</text>
    </g>
    <g transform="translate(4,30)" s:x="4" s:y="10" s:pid="out0">
      <text x="5" y="-4">0:7</text>
    </g>
    <g transform="translate(4,50)" s:x="4" s:y="10" s:pid="out0">
      <text x="5" y="-4">0:15</text>
    </g>
  </g>
  <g s:type="split" transform="translate(77,211)" s:width="5" s:height="40" id="cell_$split$,3,4,5,6,7,8,9,10,">
    <rect width="5" height="20" class="splitjoinBody" s:generic="body"/>
    <s:alias val="$_split_"/>
    <g s:x="0" s:y="20" s:pid="in"/>
    <g transform="translate(4,10)" s:x="4" s:y="10" s:pid="out0">
      <text x="5" y="-4">3</text>
    </g>
  </g>
  <line x1="271" x2="326" y1="268.5" y2="268.5" class="net_37,38"/>
  <line x1="271" x2="326" y1="386" y2="386" class="net_40,41"/>
  <line x1="663" x2="685" y1="566.5" y2="566.5" class="net_2"/>
  <line x1="685" x2="685" y1="566.5" y2="670" class="net_2"/>
  <circle cx="685" cy="566.5" r="2" style="fill:#000" class="net_2"/>
  <line x1="685" x2="955" y1="670" y2="670" class="net_2"/>
  <line x1="663" x2="685" y1="566.5" y2="566.5" class="net_2"/>
  <line x1="685" x2="685" y1="566.5" y2="424.5" class="net_2"/>
  <circle cx="685" cy="424.5" r="2" style="fill:#000" class="net_2"/>
  <line x1="685" x2="825" y1="424.5" y2="424.5" class="net_2"/>
  <line x1="663" x2="780" y1="566.5" y2="566.5" class="net_2"/>
  <line x1="780" x2="780" y1="566.5" y2="511.5" class="net_2"/>
  <line x1="663" x2="685" y1="566.5" y2="566.5" class="net_2"/>
  <line x1="685" x2="685" y1="566.5" y2="414.5" class="net_2"/>
  <line x1="685" x2="710" y1="414.5" y2="414.5" class="net_2"/>
  <line x1="710" x2="710" y1="414.5" y2="305.5" class="net_2"/>
  <line x1="663" x2="685" y1="566.5" y2="566.5" class="net_2"/>
  <line x1="685" x2="685" y1="566.5" y2="670" class="net_2"/>
  <line x1="685" x2="750" y1="670" y2="670" class="net_2"/>
  <line x1="750" x2="750" y1="670" y2="649" class="net_2"/>
  <line x1="750" x2="780" y1="649" y2="649" class="net_2"/>
  <circle cx="750" cy="670" r="2" style="fill:#000" class="net_2"/>
  <line x1="780" x2="780" y1="649" y2="634" class="net_2"/>
  <line x1="915" x2="930" y1="619" y2="619" class="net_43,44,45,46,47,48,49,50,51,52,53,54,55,56,57,58,59,60,61,62,63,64,65,66"/>
  <line x1="930" x2="930" y1="619" y2="650" class="net_43,44,45,46,47,48,49,50,51,52,53,54,55,56,57,58,59,60,61,62,63,64,65,66"/>
  <line x1="930" x2="955" y1="650" y2="650" class="net_43,44,45,46,47,48,49,50,51,52,53,54,55,56,57,58,59,60,61,62,63,64,65,66"/>
  <line x1="790" x2="800" y1="300.5" y2="300.5" class="net_67,68"/>
  <line x1="800" x2="800" y1="300.5" y2="404.5" class="net_67,68"/>
  <line x1="800" x2="825" y1="404.5" y2="404.5" class="net_67,68"/>
  <line x1="790" x2="828.3333333333334" y1="619" y2="619" class="net_71,72,73,74,75,76,77,78,79,80,81,82,83,84,85,86"/>
  <line x1="705" x2="800" y1="588" y2="588" class="net_20,21,22,23,24,25,26,27,28,29,30,31,32,33,34,35"/>
  <line x1="800" x2="800" y1="588" y2="639" class="net_20,21,22,23,24,25,26,27,28,29,30,31,32,33,34,35"/>
  <line x1="800" x2="828.3333333333334" y1="639" y2="639" class="net_20,21,22,23,24,25,26,27,28,29,30,31,32,33,34,35"/>
  <line x1="705" x2="760" y1="588" y2="588" class="net_20,21,22,23,24,25,26,27,28,29,30,31,32,33,34,35"/>
  <line x1="760" x2="760" y1="588" y2="609" class="net_20,21,22,23,24,25,26,27,28,29,30,31,32,33,34,35"/>
  <circle cx="760" cy="588" r="2" style="fill:#000" class="net_20,21,22,23,24,25,26,27,28,29,30,31,32,33,34,35"/>
  <line x1="760" x2="770" y1="609" y2="609" class="net_20,21,22,23,24,25,26,27,28,29,30,31,32,33,34,35"/>
  <line x1="728" x2="740" y1="546.5" y2="546.5" class="net_11"/>
  <line x1="740" x2="740" y1="546.5" y2="659" class="net_11"/>
  <line x1="740" x2="838.3333333333334" y1="659" y2="659" class="net_11"/>
  <circle cx="740" cy="546.5" r="2" style="fill:#000" class="net_11"/>
  <line x1="838.3333333333334" x2="838.3333333333334" y1="659" y2="644" class="net_11"/>
  <line x1="728" x2="838.3333333333334" y1="546.5" y2="546.5" class="net_11"/>
  <line x1="838.3333333333334" x2="838.3333333333334" y1="546.5" y2="531.5" class="net_11"/>
  <line x1="728" x2="740" y1="546.5" y2="546.5" class="net_11"/>
  <line x1="740" x2="740" y1="546.5" y2="466.5" class="net_11"/>
  <line x1="740" x2="780" y1="466.5" y2="466.5" class="net_11"/>
  <line x1="780" x2="780" y1="466.5" y2="315.5" class="net_11"/>
  <line x1="705" x2="750" y1="608" y2="608" class="net_12,13,14,15,16,17,18,19"/>
  <line x1="750" x2="750" y1="608" y2="486.5" class="net_12,13,14,15,16,17,18,19"/>
  <line x1="750" x2="770" y1="486.5" y2="486.5" class="net_12,13,14,15,16,17,18,19"/>
  <line x1="705" x2="750" y1="608" y2="608" class="net_12,13,14,15,16,17,18,19"/>
  <line x1="750" x2="750" y1="608" y2="526.5" class="net_12,13,14,15,16,17,18,19"/>
  <circle cx="750" cy="526.5" r="2" style="fill:#000" class="net_12,13,14,15,16,17,18,19"/>
  <line x1="750" x2="828.3333333333334" y1="526.5" y2="526.5" class="net_12,13,14,15,16,17,18,19"/>
  <line x1="40" x2="770" y1="506.5" y2="506.5" class="net_3,4,5,6,7,8,9,10"/>
  <line x1="40" x2="52" y1="506.5" y2="506.5" class="net_3,4,5,6,7,8,9,10"/>
  <line x1="52" x2="52" y1="506.5" y2="496.5" class="net_3,4,5,6,7,8,9,10"/>
  <line x1="52" x2="77.5" y1="496.5" y2="496.5" class="net_3,4,5,6,7,8,9,10"/>
  <circle cx="52" cy="506.5" r="2" style="fill:#000" class="net_3,4,5,6,7,8,9,10"/>
  <line x1="77.5" x2="77.5" y1="496.5" y2="232" class="net_3,4,5,6,7,8,9,10"/>
  <line x1="790" x2="800" y1="496.5" y2="496.5" class="net_87,88,89,90,91,92,93,94"/>
  <line x1="800" x2="800" y1="496.5" y2="506.5" class="net_87,88,89,90,91,92,93,94"/>
  <line x1="800" x2="828.3333333333334" y1="506.5" y2="506.5" class="net_87,88,89,90,91,92,93,94"/>
  <line x1="855" x2="865" y1="404.5" y2="404.5" class="net_69,70"/>
  <line x1="865" x2="865" y1="404.5" y2="444.5" class="net_69,70"/>
  <line x1="865" x2="675" y1="444.5" y2="444.5" class="net_69,70"/>
  <line x1="675" x2="675" y1="444.5" y2="280.5" class="net_69,70"/>
  <line x1="675" x2="700" y1="280.5" y2="280.5" class="net_69,70"/>
  <line x1="855" x2="865" y1="404.5" y2="404.5" class="net_69,70"/>
  <line x1="865" x2="865" y1="404.5" y2="113" class="net_69,70"/>
  <line x1="865" x2="550" y1="113" y2="113" class="net_69,70"/>
  <line x1="550" x2="550" y1="113" y2="63" class="net_69,70"/>
  <line x1="550" x2="304" y1="63" y2="63" class="net_69,70"/>
  <line x1="304" x2="304" y1="63" y2="186" class="net_69,70"/>
  <circle cx="550" cy="113" r="2" style="fill:#000" class="net_69,70"/>
  <circle cx="865" cy="404.5" r="2" style="fill:#000" class="net_69,70"/>
  <line x1="304" x2="388" y1="186" y2="186" class="net_69,70"/>
  <line x1="855" x2="865" y1="404.5" y2="404.5" class="net_69,70"/>
  <line x1="865" x2="865" y1="404.5" y2="113" class="net_69,70"/>
  <line x1="865" x2="550" y1="113" y2="113" class="net_69,70"/>
  <line x1="550" x2="550" y1="113" y2="63" class="net_69,70"/>
  <line x1="550" x2="304" y1="63" y2="63" class="net_69,70"/>
  <line x1="304" x2="304" y1="63" y2="78" class="net_69,70"/>
  <circle cx="304" cy="78" r="2" style="fill:#000" class="net_69,70"/>
  <line x1="304" x2="388" y1="78" y2="78" class="net_69,70"/>
  <line x1="855" x2="865" y1="404.5" y2="404.5" class="net_69,70"/>
  <line x1="865" x2="865" y1="404.5" y2="440.5" class="net_69,70"/>
  <circle cx="865" cy="440.5" r="2" style="fill:#000" class="net_69,70"/>
  <line x1="865" x2="898" y1="440.5" y2="440.5" class="net_69,70"/>
  <line x1="855" x2="865" y1="404.5" y2="404.5" class="net_69,70"/>
  <line x1="865" x2="865" y1="404.5" y2="113" class="net_69,70"/>
  <line x1="865" x2="99" y1="113" y2="113" class="net_69,70"/>
  <line x1="99" x2="99" y1="113" y2="201.5" class="net_69,70"/>
  <line x1="99" x2="143" y1="201.5" y2="201.5" class="net_69,70"/>
  <line x1="660" x2="700" y1="300.5" y2="300.5" class="net_95,96"/>
  <line x1="720" x2="770" y1="290.5" y2="290.5" class="net_97,98"/>
  <line x1="730" x2="740" y1="225.5" y2="225.5" class="net_102,103"/>
  <line x1="740" x2="740" y1="225.5" y2="310.5" class="net_102,103"/>
  <line x1="740" x2="770" y1="310.5" y2="310.5" class="net_102,103"/>
  <line x1="600" x2="640" y1="310.5" y2="310.5" class="net_104,105,106,107,108,109,110,111"/>
  <line x1="586" x2="650" y1="376" y2="376" class="net_39,42,99,100"/>
  <line x1="650" x2="650" y1="376" y2="315.5" class="net_39,42,99,100"/>
  <line x1="149" x2="174" y1="211.5" y2="211.5" class="net_69,70,6"/>
  <line x1="174" x2="174" y1="211.5" y2="129" class="net_69,70,6"/>
  <circle cx="174" cy="211.5" r="2" style="fill:#000" class="net_69,70,6"/>
  <line x1="174" x2="193.66666666666666" y1="129" y2="129" class="net_69,70,6"/>
  <line x1="149" x2="174" y1="211.5" y2="211.5" class="net_69,70,6"/>
  <line x1="174" x2="174" y1="211.5" y2="331" class="net_69,70,6"/>
  <circle cx="174" cy="331" r="2" style="fill:#000" class="net_69,70,6"/>
  <line x1="174" x2="193.66666666666666" y1="331" y2="331" class="net_69,70,6"/>
  <line x1="149" x2="174" y1="211.5" y2="211.5" class="net_69,70,6"/>
  <line x1="174" x2="174" y1="211.5" y2="271" class="net_69,70,6"/>
  <circle cx="174" cy="271" r="2" style="fill:#000" class="net_69,70,6"/>
  <line x1="174" x2="193.66666666666666" y1="271" y2="271" class="net_69,70,6"/>
  <line x1="149" x2="174" y1="211.5" y2="211.5" class="net_69,70,6"/>
  <line x1="174" x2="174" y1="211.5" y2="396" class="net_69,70,6"/>
  <line x1="174" x2="189" y1="396" y2="396" class="net_69,70,6"/>
  <line x1="154" x2="193.66666666666666" y1="144" y2="144" class="net_112,113,114"/>
  <line x1="154" x2="164" y1="455.5" y2="455.5" class="net_115,116"/>
  <line x1="164" x2="164" y1="455.5" y2="346" class="net_115,116"/>
  <circle cx="164" cy="455.5" r="2" style="fill:#000" class="net_115,116"/>
  <line x1="164" x2="193.66666666666666" y1="346" y2="346" class="net_115,116"/>
  <line x1="154" x2="898" y1="455.5" y2="455.5" class="net_115,116"/>
  <line x1="284" x2="388" y1="201" y2="201" class="net_117,118"/>
  <line x1="284" x2="388" y1="93" y2="93" class="net_119"/>
  <line x1="284" x2="294" y1="93" y2="93" class="net_119"/>
  <line x1="294" x2="294" y1="93" y2="52" class="net_119"/>
  <circle cx="294" cy="93" r="2" style="fill:#000" class="net_119"/>
  <line x1="294" x2="958.3333333333334" y1="52" y2="52" class="net_119"/>
  <line x1="154" x2="193.66666666666666" y1="286" y2="286" class="net_120,121,122"/>
  <line x1="920" x2="958.3333333333334" y1="32" y2="32" class="net_123"/>
  <line x1="920" x2="968.3333333333334" y1="448" y2="448" class="net_101"/>
  <line x1="968.3333333333334" x2="968.3333333333334" y1="448" y2="57" class="net_101"/>
  <line x1="705" x2="750" y1="628" y2="628" class="net_12,13,14,15,16,17,18,19,20,21,22,23,24,25,26,27"/>
  <line x1="750" x2="750" y1="628" y2="629" class="net_12,13,14,15,16,17,18,19,20,21,22,23,24,25,26,27"/>
  <line x1="750" x2="770" y1="629" y2="629" class="net_12,13,14,15,16,17,18,19,20,21,22,23,24,25,26,27"/>
  <line x1="985" x2="1020" y1="650" y2="650" class="net_12,13,14,15,16,17,18,19,20,21,22,23,24,25,26,27,28,29,30,31,32,33,34,35"/>
  <line x1="985" x2="995" y1="650" y2="650" class="net_12,13,14,15,16,17,18,19,20,21,22,23,24,25,26,27,28,29,30,31,32,33,34,35"/>
  <line x1="995" x2="995" y1="650" y2="690" class="net_12,13,14,15,16,17,18,19,20,21,22,23,24,25,26,27,28,29,30,31,32,33,34,35"/>
  <line x1="995" x2="675" y1="690" y2="690" class="net_12,13,14,15,16,17,18,19,20,21,22,23,24,25,26,27,28,29,30,31,32,33,34,35"/>
  <line x1="675" x2="675" y1="690" y2="598" class="net_12,13,14,15,16,17,18,19,20,21,22,23,24,25,26,27,28,29,30,31,32,33,34,35"/>
  <circle cx="995" cy="650" r="2" style="fill:#000" class="net_12,13,14,15,16,17,18,19,20,21,22,23,24,25,26,27,28,29,30,31,32,33,34,35"/>
  <line x1="675" x2="700" y1="598" y2="598" class="net_12,13,14,15,16,17,18,19,20,21,22,23,24,25,26,27,28,29,30,31,32,33,34,35"/>
  <line x1="978.3333333333334" x2="1020" y1="42" y2="42" class="net_36"/>
  <line x1="215.66666666666666" x2="229" y1="136.5" y2="136.5" class="net_37"/>
  <line x1="229" x2="229" y1="136.5" y2="258.5" class="net_37"/>
  <line x1="229" x2="265" y1="258.5" y2="258.5" class="net_37"/>
  <line x1="215.66666666666666" x2="265" y1="278.5" y2="278.5" class="net_38"/>
  <line x1="215.66666666666666" x2="229" y1="338.5" y2="338.5" class="net_40"/>
  <line x1="229" x2="229" y1="338.5" y2="376" class="net_40"/>
  <line x1="229" x2="265" y1="376" y2="376" class="net_40"/>
  <line x1="214" x2="265" y1="396" y2="396" class="net_41"/>
  <line x1="848.3333333333334" x2="865" y1="516.5" y2="516.5" class="net_43,44,45,46,47,48,49,50"/>
  <line x1="865" x2="865" y1="516.5" y2="609" class="net_43,44,45,46,47,48,49,50"/>
  <line x1="865" x2="909" y1="609" y2="609" class="net_43,44,45,46,47,48,49,50"/>
  <line x1="848.3333333333334" x2="909" y1="629" y2="629" class="net_51,52,53,54,55,56,57,58,59,60,61,62,63,64,65,66"/>
  <line x1="357" x2="550" y1="268.5" y2="268.5" class="net_39"/>
  <line x1="550" x2="550" y1="268.5" y2="366" class="net_39"/>
  <line x1="550" x2="580" y1="366" y2="366" class="net_39"/>
  <line x1="357" x2="580" y1="386" y2="386" class="net_42"/>
  <line x1="410" x2="560" y1="193.5" y2="193.5" class="net_99"/>
  <line x1="560" x2="560" y1="193.5" y2="406" class="net_99"/>
  <line x1="560" x2="580" y1="406" y2="406" class="net_99"/>
  <line x1="410" x2="540" y1="85.5" y2="85.5" class="net_100"/>
  <line x1="540" x2="540" y1="85.5" y2="445.5" class="net_100"/>
  <line x1="540" x2="580.5" y1="445.5" y2="445.5" class="net_100"/>
  <line x1="580.5" x2="580.5" y1="445.5" y2="426.5" class="net_100"/>
  <line x1="82" x2="143" y1="221.5" y2="221.5" class="net_6"/>
</svg>
