<?xml version="1.0" encoding="UTF-8" standalone="no"?>
<!DOCTYPE svg PUBLIC "-//W3C//DTD SVG 1.1//EN"
 "http://www.w3.org/Graphics/SVG/1.1/DTD/svg11.dtd">
<!-- Generated by graphviz version 4.0.0 (20220529.0937)
 -->
<!-- Title: top_module Pages: 1 -->
<svg width="1146pt" height="762pt"
 viewBox="0.00 0.00 1145.66 761.50" xmlns="http://www.w3.org/2000/svg" xmlns:xlink="http://www.w3.org/1999/xlink">
<g id="graph0" class="graph" transform="scale(1 1) rotate(0) translate(4 757.5)">
<title>top_module</title>
<polygon fill="white" stroke="transparent" points="-4,4 -4,-757.5 1141.66,-757.5 1141.66,4 -4,4"/>
<text text-anchor="middle" x="568.83" y="-7.8" font-family="Times New Roman,serif" font-size="14.00">top_module</text>
<!-- n8 -->
<g id="node1" class="node">
<title>n8</title>
<polygon fill="none" stroke="black" points="54,-406.54 54,-421.46 38.18,-432 15.82,-432 0,-421.46 0,-406.54 15.82,-396 38.18,-396 54,-406.54"/>
<text text-anchor="middle" x="27" y="-410.3" font-family="Times New Roman,serif" font-size="14.00">in</text>
</g>
<!-- x0 -->
<g id="node5" class="node">
<title>x0</title>
<path fill="none" stroke="black" d="M223.09,-497C223.09,-497 261.09,-497 261.09,-497 267.09,-497 273.09,-503 273.09,-509 273.09,-509 273.09,-521 273.09,-521 273.09,-527 267.09,-533 261.09,-533 261.09,-533 223.09,-533 223.09,-533 217.09,-533 211.09,-527 211.09,-521 211.09,-521 211.09,-509 211.09,-509 211.09,-503 217.09,-497 223.09,-497"/>
<text text-anchor="middle" x="242.09" y="-511.3" font-family="Times New Roman,serif" font-size="14.00">1:0 &#45; 1:0</text>
</g>
<!-- n8&#45;&gt;x0 -->
<g id="edge16" class="edge">
<title>n8:e&#45;&gt;x0:w</title>
<path fill="none" stroke="#d95f02" stroke-width="3" d="M54,-414C65.63,-414 62.91,-425.74 72,-433 125.04,-475.38 137.53,-511.33 200.05,-514.74"/>
<polygon fill="#d95f02" stroke="#d95f02" stroke-width="3" points="200,-518.24 210.09,-515 200.18,-511.24 200,-518.24"/>
<text text-anchor="middle" x="124" y="-513.8" font-family="Times New Roman,serif" font-size="14.00" fill="#d95f02">&lt;3&gt;</text>
</g>
<!-- c16 -->
<g id="node11" class="node">
<title>c16</title>
<polygon fill="none" stroke="black" points="308.18,-360 308.18,-406 434.18,-406 434.18,-360 308.18,-360"/>
<text text-anchor="middle" x="321.18" y="-390.8" font-family="Times New Roman,serif" font-size="14.00">A</text>
<polyline fill="none" stroke="black" points="308.18,-383 334.18,-383 "/>
<text text-anchor="middle" x="321.18" y="-367.8" font-family="Times New Roman,serif" font-size="14.00">B</text>
<polyline fill="none" stroke="black" points="334.18,-360 334.18,-406 "/>
<text text-anchor="middle" x="371.18" y="-386.8" font-family="Times New Roman,serif" font-size="14.00">$4_CMP0</text>
<text text-anchor="middle" x="371.18" y="-371.8" font-family="Times New Roman,serif" font-size="14.00">$eq</text>
<polyline fill="none" stroke="black" points="408.18,-360 408.18,-406 "/>
<text text-anchor="middle" x="421.18" y="-379.3" font-family="Times New Roman,serif" font-size="14.00">Y</text>
</g>
<!-- n8&#45;&gt;c16 -->
<g id="edge15" class="edge">
<title>n8:e&#45;&gt;c16:w</title>
<path fill="none" stroke="#d95f02" stroke-width="3" d="M54,-414C163.86,-414 193.15,-396.13 298.12,-395.05"/>
<polygon fill="#d95f02" stroke="#d95f02" stroke-width="3" points="298.2,-398.55 308.18,-395 298.16,-391.55 298.2,-398.55"/>
<text text-anchor="middle" x="124" y="-416.8" font-family="Times New Roman,serif" font-size="14.00" fill="#d95f02">&lt;3&gt;</text>
</g>
<!-- x6 -->
<g id="node14" class="node">
<title>x6</title>
<path fill="none" stroke="black" d="M223.09,-298C223.09,-298 261.09,-298 261.09,-298 267.09,-298 273.09,-304 273.09,-310 273.09,-310 273.09,-322 273.09,-322 273.09,-328 267.09,-334 261.09,-334 261.09,-334 223.09,-334 223.09,-334 217.09,-334 211.09,-328 211.09,-322 211.09,-322 211.09,-310 211.09,-310 211.09,-304 217.09,-298 223.09,-298"/>
<text text-anchor="middle" x="242.09" y="-312.3" font-family="Times New Roman,serif" font-size="14.00">6:0 &#45; 6:0</text>
</g>
<!-- n8&#45;&gt;x6 -->
<g id="edge20" class="edge">
<title>n8:e&#45;&gt;x6:w</title>
<path fill="none" stroke="#d95f02" stroke-width="3" d="M54,-414C92.62,-414 43.17,-354.69 72,-329 115.41,-290.31 144.95,-313.05 199.9,-315.75"/>
<polygon fill="#d95f02" stroke="#d95f02" stroke-width="3" points="200,-319.25 210.09,-316 200.18,-312.25 200,-319.25"/>
<text text-anchor="middle" x="124" y="-332.8" font-family="Times New Roman,serif" font-size="14.00" fill="#d95f02">&lt;3&gt;</text>
</g>
<!-- x8 -->
<g id="node17" class="node">
<title>x8</title>
<path fill="none" stroke="black" d="M223.09,-188C223.09,-188 261.09,-188 261.09,-188 267.09,-188 273.09,-194 273.09,-200 273.09,-200 273.09,-212 273.09,-212 273.09,-218 267.09,-224 261.09,-224 261.09,-224 223.09,-224 223.09,-224 217.09,-224 211.09,-218 211.09,-212 211.09,-212 211.09,-200 211.09,-200 211.09,-194 217.09,-188 223.09,-188"/>
<text text-anchor="middle" x="242.09" y="-202.3" font-family="Times New Roman,serif" font-size="14.00">5:0 &#45; 5:0</text>
</g>
<!-- n8&#45;&gt;x8 -->
<g id="edge21" class="edge">
<title>n8:e&#45;&gt;x8:w</title>
<path fill="none" stroke="#d95f02" stroke-width="3" d="M54,-414C82.28,-414 56.3,-311.53 72,-288 109.68,-231.53 136.03,-208.3 199.94,-206.16"/>
<polygon fill="#d95f02" stroke="#d95f02" stroke-width="3" points="200.14,-209.66 210.09,-206 200.03,-202.66 200.14,-209.66"/>
<text text-anchor="middle" x="124" y="-291.8" font-family="Times New Roman,serif" font-size="14.00" fill="#d95f02">&lt;3&gt;</text>
</g>
<!-- x10 -->
<g id="node20" class="node">
<title>x10</title>
<path fill="none" stroke="black" d="M223.09,-78C223.09,-78 261.09,-78 261.09,-78 267.09,-78 273.09,-84 273.09,-90 273.09,-90 273.09,-102 273.09,-102 273.09,-108 267.09,-114 261.09,-114 261.09,-114 223.09,-114 223.09,-114 217.09,-114 211.09,-108 211.09,-102 211.09,-102 211.09,-90 211.09,-90 211.09,-84 217.09,-78 223.09,-78"/>
<text text-anchor="middle" x="242.09" y="-92.3" font-family="Times New Roman,serif" font-size="14.00">4:0 &#45; 4:0</text>
</g>
<!-- n8&#45;&gt;x10 -->
<g id="edge17" class="edge">
<title>n8:e&#45;&gt;x10:w</title>
<path fill="none" stroke="#d95f02" stroke-width="3" d="M54,-414C78.97,-414 59.45,-211.59 72,-190 107.57,-128.83 133.33,-98.87 199.95,-96.2"/>
<polygon fill="#d95f02" stroke="#d95f02" stroke-width="3" points="200.16,-99.69 210.09,-96 200.02,-92.7 200.16,-99.69"/>
<text text-anchor="middle" x="124" y="-193.8" font-family="Times New Roman,serif" font-size="14.00" fill="#d95f02">&lt;3&gt;</text>
</g>
<!-- x12 -->
<g id="node23" class="node">
<title>x12</title>
<path fill="none" stroke="black" d="M223.09,-717C223.09,-717 261.09,-717 261.09,-717 267.09,-717 273.09,-723 273.09,-729 273.09,-729 273.09,-741 273.09,-741 273.09,-747 267.09,-753 261.09,-753 261.09,-753 223.09,-753 223.09,-753 217.09,-753 211.09,-747 211.09,-741 211.09,-741 211.09,-729 211.09,-729 211.09,-723 217.09,-717 223.09,-717"/>
<text text-anchor="middle" x="242.09" y="-731.3" font-family="Times New Roman,serif" font-size="14.00">3:0 &#45; 3:0</text>
</g>
<!-- n8&#45;&gt;x12 -->
<g id="edge18" class="edge">
<title>n8:e&#45;&gt;x12:w</title>
<path fill="none" stroke="#d95f02" stroke-width="3" d="M54,-414C79.19,-414 59.4,-618.19 72,-640 107.51,-701.48 133.1,-732.07 199.92,-734.8"/>
<polygon fill="#d95f02" stroke="#d95f02" stroke-width="3" points="200.02,-738.3 210.09,-735 200.16,-731.3 200.02,-738.3"/>
<text text-anchor="middle" x="124" y="-735.8" font-family="Times New Roman,serif" font-size="14.00" fill="#d95f02">&lt;3&gt;</text>
</g>
<!-- x14 -->
<g id="node26" class="node">
<title>x14</title>
<path fill="none" stroke="black" d="M223.09,-607C223.09,-607 261.09,-607 261.09,-607 267.09,-607 273.09,-613 273.09,-619 273.09,-619 273.09,-631 273.09,-631 273.09,-637 267.09,-643 261.09,-643 261.09,-643 223.09,-643 223.09,-643 217.09,-643 211.09,-637 211.09,-631 211.09,-631 211.09,-619 211.09,-619 211.09,-613 217.09,-607 223.09,-607"/>
<text text-anchor="middle" x="242.09" y="-621.3" font-family="Times New Roman,serif" font-size="14.00">2:0 &#45; 2:0</text>
</g>
<!-- n8&#45;&gt;x14 -->
<g id="edge19" class="edge">
<title>n8:e&#45;&gt;x14:w</title>
<path fill="none" stroke="#d95f02" stroke-width="3" d="M54,-414C79.87,-414 58.28,-507.07 72,-529 109.8,-589.39 133.09,-621.87 199.91,-624.79"/>
<polygon fill="#d95f02" stroke="#d95f02" stroke-width="3" points="200.01,-628.29 210.09,-625 200.16,-621.29 200.01,-628.29"/>
<text text-anchor="middle" x="124" y="-624.8" font-family="Times New Roman,serif" font-size="14.00" fill="#d95f02">&lt;3&gt;</text>
</g>
<!-- n9 -->
<g id="node2" class="node">
<title>n9</title>
<polygon fill="none" stroke="black" points="1137.66,-497.54 1137.66,-512.46 1121.85,-523 1099.48,-523 1083.66,-512.46 1083.66,-497.54 1099.48,-487 1121.85,-487 1137.66,-497.54"/>
<text text-anchor="middle" x="1110.66" y="-501.3" font-family="Times New Roman,serif" font-size="14.00">pos</text>
</g>
<!-- v1 -->
<g id="node3" class="node">
<title>v1</title>
<ellipse fill="none" stroke="black" cx="242.09" cy="-460" rx="27" ry="18"/>
<text text-anchor="middle" x="242.09" y="-456.3" font-family="Times New Roman,serif" font-size="14.00">2&#39;10</text>
</g>
<!-- c13 -->
<g id="node4" class="node">
<title>c13</title>
<polygon fill="none" stroke="black" points="452.18,-461 452.18,-507 585.18,-507 585.18,-461 452.18,-461"/>
<text text-anchor="middle" x="465.18" y="-491.8" font-family="Times New Roman,serif" font-size="14.00">A</text>
<polyline fill="none" stroke="black" points="452.18,-484 478.18,-484 "/>
<text text-anchor="middle" x="465.18" y="-468.8" font-family="Times New Roman,serif" font-size="14.00">B</text>
<polyline fill="none" stroke="black" points="478.18,-461 478.18,-507 "/>
<text text-anchor="middle" x="518.68" y="-487.8" font-family="Times New Roman,serif" font-size="14.00">$10_CMP0</text>
<text text-anchor="middle" x="518.68" y="-472.8" font-family="Times New Roman,serif" font-size="14.00">$eq</text>
<polyline fill="none" stroke="black" points="559.18,-461 559.18,-507 "/>
<text text-anchor="middle" x="572.18" y="-480.3" font-family="Times New Roman,serif" font-size="14.00">Y</text>
</g>
<!-- v1&#45;&gt;c13 -->
<g id="edge23" class="edge">
<title>v1:e&#45;&gt;c13:w</title>
<path fill="none" stroke="#1b9e77" stroke-width="3" d="M270.09,-460C347.71,-460 369.25,-470.99 442.06,-471.94"/>
<polygon fill="#1b9e77" stroke="#1b9e77" stroke-width="3" points="442.16,-475.44 452.18,-472 442.2,-468.44 442.16,-475.44"/>
<text text-anchor="middle" x="371.18" y="-474.8" font-family="Times New Roman,serif" font-size="14.00" fill="#1b9e77">&lt;2&gt;</text>
</g>
<!-- x4 -->
<g id="node9" class="node">
<title>x4</title>
<path fill="none" stroke="black" d="M716.92,-307.5C716.92,-307.5 754.92,-307.5 754.92,-307.5 760.92,-307.5 766.92,-313.5 766.92,-319.5 766.92,-319.5 766.92,-456.5 766.92,-456.5 766.92,-462.5 760.92,-468.5 754.92,-468.5 754.92,-468.5 716.92,-468.5 716.92,-468.5 710.92,-468.5 704.92,-462.5 704.92,-456.5 704.92,-456.5 704.92,-319.5 704.92,-319.5 704.92,-313.5 710.92,-307.5 716.92,-307.5"/>
<text text-anchor="middle" x="735.92" y="-453.3" font-family="Times New Roman,serif" font-size="14.00">0:0 &#45; 6:6</text>
<polyline fill="none" stroke="black" points="704.92,-445.5 766.92,-445.5 "/>
<text text-anchor="middle" x="735.92" y="-430.3" font-family="Times New Roman,serif" font-size="14.00">0:0 &#45; 5:5</text>
<polyline fill="none" stroke="black" points="704.92,-422.5 766.92,-422.5 "/>
<text text-anchor="middle" x="735.92" y="-407.3" font-family="Times New Roman,serif" font-size="14.00">0:0 &#45; 4:4</text>
<polyline fill="none" stroke="black" points="704.92,-399.5 766.92,-399.5 "/>
<text text-anchor="middle" x="735.92" y="-384.3" font-family="Times New Roman,serif" font-size="14.00">0:0 &#45; 3:3</text>
<polyline fill="none" stroke="black" points="704.92,-376.5 766.92,-376.5 "/>
<text text-anchor="middle" x="735.92" y="-361.3" font-family="Times New Roman,serif" font-size="14.00">0:0 &#45; 2:2</text>
<polyline fill="none" stroke="black" points="704.92,-353.5 766.92,-353.5 "/>
<text text-anchor="middle" x="735.92" y="-338.3" font-family="Times New Roman,serif" font-size="14.00">0:0 &#45; 1:1</text>
<polyline fill="none" stroke="black" points="704.92,-330.5 766.92,-330.5 "/>
<text text-anchor="middle" x="735.92" y="-315.3" font-family="Times New Roman,serif" font-size="14.00">0:0 &#45; 0:0</text>
</g>
<!-- c13&#45;&gt;x4 -->
<g id="edge8" class="edge">
<title>c13:e&#45;&gt;x4:w</title>
<path fill="none" stroke="#d95f02" d="M585.18,-484C609.28,-484 663.18,-462.58 693.79,-457.9"/>
<polygon fill="#d95f02" stroke="#d95f02" points="694.27,-461.37 703.92,-457 693.65,-454.4 694.27,-461.37"/>
</g>
<!-- x0&#45;&gt;c13 -->
<g id="edge1" class="edge">
<title>x0:e&#45;&gt;c13:w</title>
<path fill="none" stroke="#66a61e" stroke-width="3" d="M286.19,-514.85C351.9,-513.15 374.25,-497.88 439.87,-496.16"/>
<polygon fill="none" stroke="#66a61e" stroke-width="3" points="286.09,-514.85 280.14,-518.92 274.09,-515 280.04,-510.92 286.09,-514.85"/>
<polygon fill="none" stroke="#66a61e" stroke-width="3" points="440.18,-496.15 446.13,-492.08 452.18,-496 446.23,-500.08 440.18,-496.15"/>
<text text-anchor="middle" x="371.18" y="-516.8" font-family="Times New Roman,serif" font-size="14.00" fill="#66a61e">&lt;2&gt;</text>
</g>
<!-- v2 -->
<g id="node6" class="node">
<title>v2</title>
<ellipse fill="none" stroke="black" cx="735.92" cy="-559" rx="30.59" ry="18"/>
<text text-anchor="middle" x="735.92" y="-555.3" font-family="Times New Roman,serif" font-size="14.00">3&#39;000</text>
</g>
<!-- c15 -->
<g id="node8" class="node">
<title>c15</title>
<polygon fill="none" stroke="black" points="916.66,-470.5 916.66,-539.5 1023.66,-539.5 1023.66,-470.5 916.66,-470.5"/>
<text text-anchor="middle" x="929.66" y="-524.3" font-family="Times New Roman,serif" font-size="14.00">A</text>
<polyline fill="none" stroke="black" points="916.66,-516.5 942.66,-516.5 "/>
<text text-anchor="middle" x="929.66" y="-501.3" font-family="Times New Roman,serif" font-size="14.00">B</text>
<polyline fill="none" stroke="black" points="916.66,-493.5 942.66,-493.5 "/>
<text text-anchor="middle" x="929.66" y="-478.3" font-family="Times New Roman,serif" font-size="14.00">S</text>
<polyline fill="none" stroke="black" points="942.66,-470.5 942.66,-539.5 "/>
<text text-anchor="middle" x="970.16" y="-508.8" font-family="Times New Roman,serif" font-size="14.00">$3</text>
<text text-anchor="middle" x="970.16" y="-493.8" font-family="Times New Roman,serif" font-size="14.00">$pmux</text>
<polyline fill="none" stroke="black" points="997.66,-470.5 997.66,-539.5 "/>
<text text-anchor="middle" x="1010.66" y="-501.3" font-family="Times New Roman,serif" font-size="14.00">Y</text>
</g>
<!-- v2&#45;&gt;c15 -->
<g id="edge27" class="edge">
<title>v2:e&#45;&gt;c15:w</title>
<path fill="none" stroke="#7570b3" stroke-width="3" d="M767.92,-559C831.89,-559 847.54,-531.18 906.41,-528.25"/>
<polygon fill="#7570b3" stroke="#7570b3" stroke-width="3" points="906.75,-531.74 916.66,-528 906.58,-524.74 906.75,-531.74"/>
<text text-anchor="middle" x="883.16" y="-536.8" font-family="Times New Roman,serif" font-size="14.00" fill="#7570b3">&lt;3&gt;</text>
</g>
<!-- v3 -->
<g id="node7" class="node">
<title>v3</title>
<ellipse fill="none" stroke="black" cx="735.92" cy="-505" rx="113.98" ry="18"/>
<text text-anchor="middle" x="735.92" y="-501.3" font-family="Times New Roman,serif" font-size="14.00">21&#39;001010011100101110111</text>
</g>
<!-- v3&#45;&gt;c15 -->
<g id="edge28" class="edge">
<title>v3:e&#45;&gt;c15:w</title>
<path fill="none" stroke="#a6761d" stroke-width="3" d="M849.66,-505C875.72,-505 884.67,-505 906.46,-505"/>
<polygon fill="#a6761d" stroke="#a6761d" stroke-width="3" points="906.66,-508.5 916.66,-505 906.66,-501.5 906.66,-508.5"/>
<text text-anchor="middle" x="883.16" y="-508.8" font-family="Times New Roman,serif" font-size="14.00" fill="#a6761d">&lt;21&gt;</text>
</g>
<!-- c15&#45;&gt;n9 -->
<g id="edge22" class="edge">
<title>c15:e&#45;&gt;n9:w</title>
<path fill="none" stroke="#1b9e77" stroke-width="3" d="M1023.66,-505C1046.58,-505 1054.72,-505 1073.49,-505"/>
<polygon fill="#1b9e77" stroke="#1b9e77" stroke-width="3" points="1073.66,-508.5 1083.66,-505 1073.66,-501.5 1073.66,-508.5"/>
<text text-anchor="middle" x="1053.66" y="-508.8" font-family="Times New Roman,serif" font-size="14.00" fill="#1b9e77">&lt;3&gt;</text>
</g>
<!-- x4&#45;&gt;c15 -->
<g id="edge2" class="edge">
<title>x4:e&#45;&gt;c15:w</title>
<path fill="none" stroke="#1b9e77" stroke-width="3" d="M780.01,-388.81C841.7,-397.46 842.83,-472.41 904.43,-481.17"/>
<polygon fill="none" stroke="#1b9e77" stroke-width="3" points="779.9,-388.81 773.64,-392.39 767.92,-388 774.18,-384.41 779.9,-388.81"/>
<polygon fill="none" stroke="#1b9e77" stroke-width="3" points="904.69,-481.18 910.95,-477.6 916.66,-482 910.4,-485.58 904.69,-481.18"/>
<text text-anchor="middle" x="883.16" y="-482.8" font-family="Times New Roman,serif" font-size="14.00" fill="#1b9e77">&lt;7&gt;</text>
</g>
<!-- v5 -->
<g id="node10" class="node">
<title>v5</title>
<ellipse fill="none" stroke="black" cx="124" cy="-371" rx="51.99" ry="18"/>
<text text-anchor="middle" x="124" y="-367.3" font-family="Times New Roman,serif" font-size="14.00">8&#39;10000000</text>
</g>
<!-- v5&#45;&gt;c16 -->
<g id="edge29" class="edge">
<title>v5:e&#45;&gt;c16:w</title>
<path fill="none" stroke="#e6ab02" stroke-width="3" d="M175.99,-371C231.19,-371 247.49,-371 297.98,-371"/>
<polygon fill="#e6ab02" stroke="#e6ab02" stroke-width="3" points="298.18,-374.5 308.18,-371 298.18,-367.5 298.18,-374.5"/>
<text text-anchor="middle" x="242.09" y="-374.8" font-family="Times New Roman,serif" font-size="14.00" fill="#e6ab02">&lt;8&gt;</text>
</g>
<!-- c16&#45;&gt;x4 -->
<g id="edge9" class="edge">
<title>c16:e&#45;&gt;x4:w</title>
<path fill="none" stroke="#1b9e77" d="M434.18,-383C553.91,-383 579.31,-322.57 693.69,-319.15"/>
<polygon fill="#1b9e77" stroke="#1b9e77" points="693.97,-322.65 703.92,-319 693.87,-315.65 693.97,-322.65"/>
</g>
<!-- v7 -->
<g id="node12" class="node">
<title>v7</title>
<ellipse fill="none" stroke="black" cx="242.09" cy="-261" rx="48.19" ry="18"/>
<text text-anchor="middle" x="242.09" y="-257.3" font-family="Times New Roman,serif" font-size="14.00">7&#39;1000000</text>
</g>
<!-- c17 -->
<g id="node13" class="node">
<title>c17</title>
<polygon fill="none" stroke="black" points="455.68,-281 455.68,-327 581.68,-327 581.68,-281 455.68,-281"/>
<text text-anchor="middle" x="468.68" y="-311.8" font-family="Times New Roman,serif" font-size="14.00">A</text>
<polyline fill="none" stroke="black" points="455.68,-304 481.68,-304 "/>
<text text-anchor="middle" x="468.68" y="-288.8" font-family="Times New Roman,serif" font-size="14.00">B</text>
<polyline fill="none" stroke="black" points="481.68,-281 481.68,-327 "/>
<text text-anchor="middle" x="518.68" y="-307.8" font-family="Times New Roman,serif" font-size="14.00">$5_CMP0</text>
<text text-anchor="middle" x="518.68" y="-292.8" font-family="Times New Roman,serif" font-size="14.00">$eq</text>
<polyline fill="none" stroke="black" points="555.68,-281 555.68,-327 "/>
<text text-anchor="middle" x="568.68" y="-300.3" font-family="Times New Roman,serif" font-size="14.00">Y</text>
</g>
<!-- v7&#45;&gt;c17 -->
<g id="edge30" class="edge">
<title>v7:e&#45;&gt;c17:w</title>
<path fill="none" stroke="#1b9e77" stroke-width="3" d="M290.18,-261C361.09,-261 378.68,-289.16 444.59,-291.8"/>
<polygon fill="#1b9e77" stroke="#1b9e77" stroke-width="3" points="444.62,-295.3 454.68,-292 444.75,-288.3 444.62,-295.3"/>
<text text-anchor="middle" x="371.18" y="-295.8" font-family="Times New Roman,serif" font-size="14.00" fill="#1b9e77">&lt;7&gt;</text>
</g>
<!-- c17&#45;&gt;x4 -->
<g id="edge10" class="edge">
<title>c17:e&#45;&gt;x4:w</title>
<path fill="none" stroke="#1b9e77" d="M582.68,-304C635.62,-304 646.23,-337.4 693.88,-341.57"/>
<polygon fill="#1b9e77" stroke="#1b9e77" points="693.78,-345.07 703.92,-342 694.08,-338.08 693.78,-345.07"/>
</g>
<!-- x6&#45;&gt;c17 -->
<g id="edge3" class="edge">
<title>x6:e&#45;&gt;c17:w</title>
<path fill="none" stroke="#1b9e77" stroke-width="3" d="M286.3,-316C352.79,-316 376.1,-316 442.68,-316"/>
<polygon fill="none" stroke="#1b9e77" stroke-width="3" points="286.09,-316 280.09,-320 274.09,-316 280.09,-312 286.09,-316"/>
<polygon fill="none" stroke="#1b9e77" stroke-width="3" points="442.68,-316 448.68,-312 454.68,-316 448.68,-320 442.68,-316"/>
<text text-anchor="middle" x="371.18" y="-319.8" font-family="Times New Roman,serif" font-size="14.00" fill="#1b9e77">&lt;7&gt;</text>
</g>
<!-- v9 -->
<g id="node15" class="node">
<title>v9</title>
<ellipse fill="none" stroke="black" cx="242.09" cy="-151" rx="43.59" ry="18"/>
<text text-anchor="middle" x="242.09" y="-147.3" font-family="Times New Roman,serif" font-size="14.00">6&#39;100000</text>
</g>
<!-- c18 -->
<g id="node16" class="node">
<title>c18</title>
<polygon fill="none" stroke="black" points="455.68,-171 455.68,-217 581.68,-217 581.68,-171 455.68,-171"/>
<text text-anchor="middle" x="468.68" y="-201.8" font-family="Times New Roman,serif" font-size="14.00">A</text>
<polyline fill="none" stroke="black" points="455.68,-194 481.68,-194 "/>
<text text-anchor="middle" x="468.68" y="-178.8" font-family="Times New Roman,serif" font-size="14.00">B</text>
<polyline fill="none" stroke="black" points="481.68,-171 481.68,-217 "/>
<text text-anchor="middle" x="518.68" y="-197.8" font-family="Times New Roman,serif" font-size="14.00">$6_CMP0</text>
<text text-anchor="middle" x="518.68" y="-182.8" font-family="Times New Roman,serif" font-size="14.00">$eq</text>
<polyline fill="none" stroke="black" points="555.68,-171 555.68,-217 "/>
<text text-anchor="middle" x="568.68" y="-190.3" font-family="Times New Roman,serif" font-size="14.00">Y</text>
</g>
<!-- v9&#45;&gt;c18 -->
<g id="edge31" class="edge">
<title>v9:e&#45;&gt;c18:w</title>
<path fill="none" stroke="#66a61e" stroke-width="3" d="M287.09,-151C359.29,-151 377.29,-179.16 444.41,-181.8"/>
<polygon fill="#66a61e" stroke="#66a61e" stroke-width="3" points="444.62,-185.31 454.68,-182 444.75,-178.31 444.62,-185.31"/>
<text text-anchor="middle" x="371.18" y="-185.8" font-family="Times New Roman,serif" font-size="14.00" fill="#66a61e">&lt;6&gt;</text>
</g>
<!-- c18&#45;&gt;x4 -->
<g id="edge11" class="edge">
<title>c18:e&#45;&gt;x4:w</title>
<path fill="none" stroke="#e6ab02" d="M582.68,-194C672.21,-194 615.6,-351.9 693.71,-364.24"/>
<polygon fill="#e6ab02" stroke="#e6ab02" points="693.69,-367.75 703.92,-365 694.21,-360.77 693.69,-367.75"/>
</g>
<!-- x8&#45;&gt;c18 -->
<g id="edge4" class="edge">
<title>x8:e&#45;&gt;c18:w</title>
<path fill="none" stroke="#7570b3" stroke-width="3" d="M286.3,-206C352.79,-206 376.1,-206 442.68,-206"/>
<polygon fill="none" stroke="#7570b3" stroke-width="3" points="286.09,-206 280.09,-210 274.09,-206 280.09,-202 286.09,-206"/>
<polygon fill="none" stroke="#7570b3" stroke-width="3" points="442.68,-206 448.68,-202 454.68,-206 448.68,-210 442.68,-206"/>
<text text-anchor="middle" x="371.18" y="-209.8" font-family="Times New Roman,serif" font-size="14.00" fill="#7570b3">&lt;6&gt;</text>
</g>
<!-- v11 -->
<g id="node18" class="node">
<title>v11</title>
<ellipse fill="none" stroke="black" cx="242.09" cy="-41" rx="38.99" ry="18"/>
<text text-anchor="middle" x="242.09" y="-37.3" font-family="Times New Roman,serif" font-size="14.00">5&#39;10000</text>
</g>
<!-- c19 -->
<g id="node19" class="node">
<title>c19</title>
<polygon fill="none" stroke="black" points="455.68,-61 455.68,-107 581.68,-107 581.68,-61 455.68,-61"/>
<text text-anchor="middle" x="468.68" y="-91.8" font-family="Times New Roman,serif" font-size="14.00">A</text>
<polyline fill="none" stroke="black" points="455.68,-84 481.68,-84 "/>
<text text-anchor="middle" x="468.68" y="-68.8" font-family="Times New Roman,serif" font-size="14.00">B</text>
<polyline fill="none" stroke="black" points="481.68,-61 481.68,-107 "/>
<text text-anchor="middle" x="518.68" y="-87.8" font-family="Times New Roman,serif" font-size="14.00">$7_CMP0</text>
<text text-anchor="middle" x="518.68" y="-72.8" font-family="Times New Roman,serif" font-size="14.00">$eq</text>
<polyline fill="none" stroke="black" points="555.68,-61 555.68,-107 "/>
<text text-anchor="middle" x="568.68" y="-80.3" font-family="Times New Roman,serif" font-size="14.00">Y</text>
</g>
<!-- v11&#45;&gt;c19 -->
<g id="edge24" class="edge">
<title>v11:e&#45;&gt;c19:w</title>
<path fill="none" stroke="#7570b3" stroke-width="3" d="M282.09,-41C356.52,-41 375.12,-69.28 444.54,-71.82"/>
<polygon fill="#7570b3" stroke="#7570b3" stroke-width="3" points="444.62,-75.32 454.68,-72 444.75,-68.32 444.62,-75.32"/>
<text text-anchor="middle" x="371.18" y="-75.8" font-family="Times New Roman,serif" font-size="14.00" fill="#7570b3">&lt;5&gt;</text>
</g>
<!-- c19&#45;&gt;x4 -->
<g id="edge12" class="edge">
<title>c19:e&#45;&gt;x4:w</title>
<path fill="none" stroke="#e6ab02" d="M582.68,-84C724.59,-84 566.56,-373.34 693.82,-387.47"/>
<polygon fill="#e6ab02" stroke="#e6ab02" points="693.75,-390.97 703.92,-388 694.12,-383.98 693.75,-390.97"/>
</g>
<!-- x10&#45;&gt;c19 -->
<g id="edge5" class="edge">
<title>x10:e&#45;&gt;c19:w</title>
<path fill="none" stroke="#e7298a" stroke-width="3" d="M286.3,-96C352.79,-96 376.1,-96 442.68,-96"/>
<polygon fill="none" stroke="#e7298a" stroke-width="3" points="286.09,-96 280.09,-100 274.09,-96 280.09,-92 286.09,-96"/>
<polygon fill="none" stroke="#e7298a" stroke-width="3" points="442.68,-96 448.68,-92 454.68,-96 448.68,-100 442.68,-96"/>
<text text-anchor="middle" x="371.18" y="-99.8" font-family="Times New Roman,serif" font-size="14.00" fill="#e7298a">&lt;5&gt;</text>
</g>
<!-- v13 -->
<g id="node21" class="node">
<title>v13</title>
<ellipse fill="none" stroke="black" cx="242.09" cy="-680" rx="34.39" ry="18"/>
<text text-anchor="middle" x="242.09" y="-676.3" font-family="Times New Roman,serif" font-size="14.00">4&#39;1000</text>
</g>
<!-- c20 -->
<g id="node22" class="node">
<title>c20</title>
<polygon fill="none" stroke="black" points="455.68,-669 455.68,-715 581.68,-715 581.68,-669 455.68,-669"/>
<text text-anchor="middle" x="468.68" y="-699.8" font-family="Times New Roman,serif" font-size="14.00">A</text>
<polyline fill="none" stroke="black" points="455.68,-692 481.68,-692 "/>
<text text-anchor="middle" x="468.68" y="-676.8" font-family="Times New Roman,serif" font-size="14.00">B</text>
<polyline fill="none" stroke="black" points="481.68,-669 481.68,-715 "/>
<text text-anchor="middle" x="518.68" y="-695.8" font-family="Times New Roman,serif" font-size="14.00">$8_CMP0</text>
<text text-anchor="middle" x="518.68" y="-680.8" font-family="Times New Roman,serif" font-size="14.00">$eq</text>
<polyline fill="none" stroke="black" points="555.68,-669 555.68,-715 "/>
<text text-anchor="middle" x="568.68" y="-688.3" font-family="Times New Roman,serif" font-size="14.00">Y</text>
</g>
<!-- v13&#45;&gt;c20 -->
<g id="edge25" class="edge">
<title>v13:e&#45;&gt;c20:w</title>
<path fill="none" stroke="#666666" stroke-width="3" d="M278.09,-680C353.05,-680 374.31,-680 444.45,-680"/>
<polygon fill="#666666" stroke="#666666" stroke-width="3" points="444.68,-683.5 454.68,-680 444.68,-676.5 444.68,-683.5"/>
<text text-anchor="middle" x="371.18" y="-683.8" font-family="Times New Roman,serif" font-size="14.00" fill="#666666">&lt;4&gt;</text>
</g>
<!-- c20&#45;&gt;x4 -->
<g id="edge13" class="edge">
<title>c20:e&#45;&gt;x4:w</title>
<path fill="none" stroke="#d95f02" d="M582.68,-692C631.04,-692 597.6,-519.64 622.18,-478 644.2,-440.71 655.17,-415.23 693.55,-411.48"/>
<polygon fill="#d95f02" stroke="#d95f02" points="694.09,-414.96 703.92,-411 693.77,-407.97 694.09,-414.96"/>
</g>
<!-- x12&#45;&gt;c20 -->
<g id="edge6" class="edge">
<title>x12:e&#45;&gt;c20:w</title>
<path fill="none" stroke="#e7298a" stroke-width="3" d="M286.46,-734.75C353.68,-731.98 375.2,-706.97 442.52,-704.24"/>
<polygon fill="none" stroke="#e7298a" stroke-width="3" points="286.08,-734.76 280.17,-738.88 274.09,-735 280,-730.88 286.08,-734.76"/>
<polygon fill="none" stroke="#e7298a" stroke-width="3" points="442.68,-704.24 448.6,-700.12 454.68,-704 448.76,-708.12 442.68,-704.24"/>
<text text-anchor="middle" x="371.18" y="-735.8" font-family="Times New Roman,serif" font-size="14.00" fill="#e7298a">&lt;4&gt;</text>
</g>
<!-- v15 -->
<g id="node24" class="node">
<title>v15</title>
<ellipse fill="none" stroke="black" cx="242.09" cy="-570" rx="30.59" ry="18"/>
<text text-anchor="middle" x="242.09" y="-566.3" font-family="Times New Roman,serif" font-size="14.00">3&#39;100</text>
</g>
<!-- c21 -->
<g id="node25" class="node">
<title>c21</title>
<polygon fill="none" stroke="black" points="455.68,-559 455.68,-605 581.68,-605 581.68,-559 455.68,-559"/>
<text text-anchor="middle" x="468.68" y="-589.8" font-family="Times New Roman,serif" font-size="14.00">A</text>
<polyline fill="none" stroke="black" points="455.68,-582 481.68,-582 "/>
<text text-anchor="middle" x="468.68" y="-566.8" font-family="Times New Roman,serif" font-size="14.00">B</text>
<polyline fill="none" stroke="black" points="481.68,-559 481.68,-605 "/>
<text text-anchor="middle" x="518.68" y="-585.8" font-family="Times New Roman,serif" font-size="14.00">$9_CMP0</text>
<text text-anchor="middle" x="518.68" y="-570.8" font-family="Times New Roman,serif" font-size="14.00">$eq</text>
<polyline fill="none" stroke="black" points="555.68,-559 555.68,-605 "/>
<text text-anchor="middle" x="568.68" y="-578.3" font-family="Times New Roman,serif" font-size="14.00">Y</text>
</g>
<!-- v15&#45;&gt;c21 -->
<g id="edge26" class="edge">
<title>v15:e&#45;&gt;c21:w</title>
<path fill="none" stroke="#a6761d" stroke-width="3" d="M274.09,-570C350.9,-570 372.58,-570 444.66,-570"/>
<polygon fill="#a6761d" stroke="#a6761d" stroke-width="3" points="444.68,-573.5 454.68,-570 444.68,-566.5 444.68,-573.5"/>
<text text-anchor="middle" x="371.18" y="-573.8" font-family="Times New Roman,serif" font-size="14.00" fill="#a6761d">&lt;3&gt;</text>
</g>
<!-- c21&#45;&gt;x4 -->
<g id="edge14" class="edge">
<title>c21:e&#45;&gt;x4:w</title>
<path fill="none" stroke="#d95f02" d="M582.68,-582C612.81,-582 581.74,-469.15 603.18,-448 632.85,-418.74 655.02,-431.53 693.71,-433.71"/>
<polygon fill="#d95f02" stroke="#d95f02" points="693.83,-437.21 703.92,-434 694.03,-430.21 693.83,-437.21"/>
</g>
<!-- x14&#45;&gt;c21 -->
<g id="edge7" class="edge">
<title>x14:e&#45;&gt;c21:w</title>
<path fill="none" stroke="#7570b3" stroke-width="3" d="M286.46,-624.75C353.68,-621.98 375.2,-596.97 442.52,-594.24"/>
<polygon fill="none" stroke="#7570b3" stroke-width="3" points="286.08,-624.76 280.17,-628.88 274.09,-625 280,-620.88 286.08,-624.76"/>
<polygon fill="none" stroke="#7570b3" stroke-width="3" points="442.68,-594.24 448.6,-590.12 454.68,-594 448.76,-598.12 442.68,-594.24"/>
<text text-anchor="middle" x="371.18" y="-625.8" font-family="Times New Roman,serif" font-size="14.00" fill="#7570b3">&lt;3&gt;</text>
</g>
</g>
</svg>
