<?xml version="1.0" encoding="UTF-8" standalone="no"?>
<!DOCTYPE svg PUBLIC "-//W3C//DTD SVG 1.1//EN"
 "http://www.w3.org/Graphics/SVG/1.1/DTD/svg11.dtd">
<!-- Generated by graphviz version 3.0.0 (20220226.1711)
 -->
<!-- Title: top_module Pages: 1 -->
<svg width="531pt" height="388pt"
 viewBox="0.00 0.00 531.33 388.00" xmlns="http://www.w3.org/2000/svg" xmlns:xlink="http://www.w3.org/1999/xlink">
<g id="graph0" class="graph" transform="scale(1 1) rotate(0) translate(4 384)">
<title>top_module</title>
<polygon fill="white" stroke="transparent" points="-4,4 -4,-384 527.33,-384 527.33,4 -4,4"/>
<text text-anchor="middle" x="261.66" y="-7.8" font-family="Times New Roman,serif" font-size="14.00">top_module</text>
<!-- n3 -->
<g id="node1" class="node">
<title>n3</title>
<polygon fill="none" stroke="black" points="28.49,-221 0.01,-203 28.49,-185 56.98,-203 28.49,-221"/>
<text text-anchor="middle" x="28.49" y="-199.3" font-family="Times New Roman,serif" font-size="14.00">q3</text>
</g>
<!-- c14 -->
<g id="node9" class="node">
<title>c14</title>
<polygon fill="none" stroke="black" points="110.49,-310.5 110.49,-379.5 225.49,-379.5 225.49,-310.5 110.49,-310.5"/>
<text text-anchor="middle" x="125.49" y="-364.3" font-family="Times New Roman,serif" font-size="14.00">$1</text>
<polyline fill="none" stroke="black" points="110.49,-356.5 140.49,-356.5 "/>
<text text-anchor="middle" x="125.49" y="-341.3" font-family="Times New Roman,serif" font-size="14.00">$2</text>
<polyline fill="none" stroke="black" points="110.49,-333.5 140.49,-333.5 "/>
<text text-anchor="middle" x="125.49" y="-318.3" font-family="Times New Roman,serif" font-size="14.00">$3</text>
<polyline fill="none" stroke="black" points="140.49,-310.5 140.49,-379.5 "/>
<text text-anchor="middle" x="172.99" y="-348.8" font-family="Times New Roman,serif" font-size="14.00">m3</text>
<text text-anchor="middle" x="172.99" y="-333.8" font-family="Times New Roman,serif" font-size="14.00">my_dff8</text>
<polyline fill="none" stroke="black" points="205.49,-310.5 205.49,-379.5 "/>
<text text-anchor="middle" x="215.49" y="-341.3" font-family="Times New Roman,serif" font-size="14.00"> </text>
</g>
<!-- n3&#45;&gt;c14 -->
<g id="edge4" class="edge">
<title>n3:e&#45;&gt;c14:w</title>
<path fill="none" stroke="black" stroke-width="3" d="M56.99,-203C110.87,-203 59.16,-306.72 99.02,-320.5"/>
<polygon fill="black" stroke="black" stroke-width="3" points="98.58,-323.97 108.99,-322 99.62,-317.05 98.58,-323.97"/>
</g>
<!-- p0 -->
<g id="node12" class="node">
<title>p0</title>
<path fill="none" stroke="black" d="M230.99,-116C230.99,-116 104.99,-116 104.99,-116 98.99,-116 92.99,-110 92.99,-104 92.99,-104 92.99,-90 92.99,-90 92.99,-84 98.99,-78 104.99,-78 104.99,-78 230.99,-78 230.99,-78 236.99,-78 242.99,-84 242.99,-90 242.99,-90 242.99,-104 242.99,-104 242.99,-110 236.99,-116 230.99,-116"/>
<text text-anchor="middle" x="167.99" y="-100.8" font-family="Times New Roman,serif" font-size="14.00">PROC $1</text>
<text text-anchor="middle" x="167.99" y="-85.8" font-family="Times New Roman,serif" font-size="14.00">top_module.v:41.3&#45;48.6</text>
</g>
<!-- n3&#45;&gt;p0 -->
<g id="edge5" class="edge">
<title>n3:e&#45;&gt;p0:w</title>
<path fill="none" stroke="black" stroke-width="3" d="M56.99,-203C102.66,-203 52.89,-113.68 82.91,-99.02"/>
<polygon fill="black" stroke="black" stroke-width="3" points="83.87,-102.4 92.99,-97 82.49,-95.54 83.87,-102.4"/>
</g>
<!-- n4 -->
<g id="node2" class="node">
<title>n4</title>
<polygon fill="none" stroke="black" points="28.49,-275 0.01,-257 28.49,-239 56.98,-257 28.49,-275"/>
<text text-anchor="middle" x="28.49" y="-253.3" font-family="Times New Roman,serif" font-size="14.00">q2</text>
</g>
<!-- n4&#45;&gt;c14 -->
<g id="edge6" class="edge">
<title>n4:e&#45;&gt;c14:w</title>
<path fill="none" stroke="black" stroke-width="3" d="M56.99,-257C98.51,-257 69.61,-330.52 99.04,-343.16"/>
<polygon fill="black" stroke="black" stroke-width="3" points="98.52,-346.63 108.99,-345 99.79,-339.74 98.52,-346.63"/>
</g>
<!-- c15 -->
<g id="node10" class="node">
<title>c15</title>
<polygon fill="none" stroke="black" points="110.49,-222.5 110.49,-291.5 225.49,-291.5 225.49,-222.5 110.49,-222.5"/>
<text text-anchor="middle" x="125.49" y="-276.3" font-family="Times New Roman,serif" font-size="14.00">$1</text>
<polyline fill="none" stroke="black" points="110.49,-268.5 140.49,-268.5 "/>
<text text-anchor="middle" x="125.49" y="-253.3" font-family="Times New Roman,serif" font-size="14.00">$2</text>
<polyline fill="none" stroke="black" points="110.49,-245.5 140.49,-245.5 "/>
<text text-anchor="middle" x="125.49" y="-230.3" font-family="Times New Roman,serif" font-size="14.00">$3</text>
<polyline fill="none" stroke="black" points="140.49,-222.5 140.49,-291.5 "/>
<text text-anchor="middle" x="172.99" y="-260.8" font-family="Times New Roman,serif" font-size="14.00">m2</text>
<text text-anchor="middle" x="172.99" y="-245.8" font-family="Times New Roman,serif" font-size="14.00">my_dff8</text>
<polyline fill="none" stroke="black" points="205.49,-222.5 205.49,-291.5 "/>
<text text-anchor="middle" x="215.49" y="-253.3" font-family="Times New Roman,serif" font-size="14.00"> </text>
</g>
<!-- n4&#45;&gt;c15 -->
<g id="edge7" class="edge">
<title>n4:e&#45;&gt;c15:w</title>
<path fill="none" stroke="black" stroke-width="3" d="M56.99,-257C78.31,-257 82.68,-240.63 98.7,-235.51"/>
<polygon fill="black" stroke="black" stroke-width="3" points="99.6,-238.91 108.99,-234 98.59,-231.99 99.6,-238.91"/>
</g>
<!-- n4&#45;&gt;p0 -->
<g id="edge8" class="edge">
<title>n4:e&#45;&gt;p0:w</title>
<path fill="none" stroke="black" stroke-width="3" d="M56.99,-257C126.03,-257 31.17,-113.43 82.93,-98.29"/>
<polygon fill="black" stroke="black" stroke-width="3" points="83.51,-101.74 92.99,-97 82.62,-94.8 83.51,-101.74"/>
</g>
<!-- n5 -->
<g id="node3" class="node">
<title>n5</title>
<polygon fill="none" stroke="black" points="28.49,-167 0.01,-149 28.49,-131 56.98,-149 28.49,-167"/>
<text text-anchor="middle" x="28.49" y="-145.3" font-family="Times New Roman,serif" font-size="14.00">q1</text>
</g>
<!-- n5&#45;&gt;c15 -->
<g id="edge9" class="edge">
<title>n5:e&#45;&gt;c15:w</title>
<path fill="none" stroke="black" stroke-width="3" d="M56.99,-149C106.31,-149 63.22,-241.56 98.82,-255.3"/>
<polygon fill="black" stroke="black" stroke-width="3" points="98.55,-258.81 108.99,-257 99.7,-251.9 98.55,-258.81"/>
</g>
<!-- c16 -->
<g id="node11" class="node">
<title>c16</title>
<polygon fill="none" stroke="black" points="110.49,-134.5 110.49,-203.5 225.49,-203.5 225.49,-134.5 110.49,-134.5"/>
<text text-anchor="middle" x="125.49" y="-188.3" font-family="Times New Roman,serif" font-size="14.00">$1</text>
<polyline fill="none" stroke="black" points="110.49,-180.5 140.49,-180.5 "/>
<text text-anchor="middle" x="125.49" y="-165.3" font-family="Times New Roman,serif" font-size="14.00">$2</text>
<polyline fill="none" stroke="black" points="110.49,-157.5 140.49,-157.5 "/>
<text text-anchor="middle" x="125.49" y="-142.3" font-family="Times New Roman,serif" font-size="14.00">$3</text>
<polyline fill="none" stroke="black" points="140.49,-134.5 140.49,-203.5 "/>
<text text-anchor="middle" x="172.99" y="-172.8" font-family="Times New Roman,serif" font-size="14.00">m1</text>
<text text-anchor="middle" x="172.99" y="-157.8" font-family="Times New Roman,serif" font-size="14.00">my_dff8</text>
<polyline fill="none" stroke="black" points="205.49,-134.5 205.49,-203.5 "/>
<text text-anchor="middle" x="215.49" y="-165.3" font-family="Times New Roman,serif" font-size="14.00"> </text>
</g>
<!-- n5&#45;&gt;c16 -->
<g id="edge10" class="edge">
<title>n5:e&#45;&gt;c16:w</title>
<path fill="none" stroke="black" stroke-width="3" d="M56.99,-149C76.34,-149 83.5,-146.9 98.85,-146.22"/>
<polygon fill="black" stroke="black" stroke-width="3" points="99.06,-149.71 108.99,-146 98.92,-142.71 99.06,-149.71"/>
</g>
<!-- n5&#45;&gt;p0 -->
<g id="edge11" class="edge">
<title>n5:e&#45;&gt;p0:w</title>
<path fill="none" stroke="black" stroke-width="3" d="M56.99,-149C80.92,-149 69.82,-111.29 83.35,-100.1"/>
<polygon fill="black" stroke="black" stroke-width="3" points="84.54,-103.39 92.99,-97 82.4,-96.73 84.54,-103.39"/>
</g>
<!-- n6 -->
<g id="node4" class="node">
<title>n6</title>
<polygon fill="none" stroke="black" points="311.16,-115 278.82,-97 311.16,-79 343.5,-97 311.16,-115"/>
<text text-anchor="middle" x="311.16" y="-93.3" font-family="Times New Roman,serif" font-size="14.00">q_i</text>
</g>
<!-- x1 -->
<g id="node13" class="node">
<title>x1</title>
<path fill="none" stroke="black" d="M421.33,-115C421.33,-115 391.33,-115 391.33,-115 385.33,-115 379.33,-109 379.33,-103 379.33,-103 379.33,-91 379.33,-91 379.33,-85 385.33,-79 391.33,-79 391.33,-79 421.33,-79 421.33,-79 427.33,-79 433.33,-85 433.33,-91 433.33,-91 433.33,-103 433.33,-103 433.33,-109 427.33,-115 421.33,-115"/>
<text text-anchor="middle" x="406.33" y="-93.3" font-family="Times New Roman,serif" font-size="14.00">BUF</text>
</g>
<!-- n6&#45;&gt;x1 -->
<g id="edge13" class="edge">
<title>n6:e&#45;&gt;x1:w</title>
<path fill="none" stroke="black" stroke-width="3" d="M343.33,-97C355.33,-97 360.58,-97 369.2,-97"/>
<polygon fill="black" stroke="black" stroke-width="3" points="369.33,-100.5 379.33,-97 369.33,-93.5 369.33,-100.5"/>
</g>
<!-- n7 -->
<g id="node5" class="node">
<title>n7</title>
<polygon fill="none" stroke="black" points="523.33,-89.54 523.33,-104.46 507.51,-115 485.14,-115 469.33,-104.46 469.33,-89.54 485.14,-79 507.51,-79 523.33,-89.54"/>
<text text-anchor="middle" x="496.33" y="-93.3" font-family="Times New Roman,serif" font-size="14.00">q</text>
</g>
<!-- n8 -->
<g id="node6" class="node">
<title>n8</title>
<polygon fill="none" stroke="black" points="55.49,-33.54 55.49,-48.46 39.68,-59 17.31,-59 1.49,-48.46 1.49,-33.54 17.31,-23 39.68,-23 55.49,-33.54"/>
<text text-anchor="middle" x="28.49" y="-37.3" font-family="Times New Roman,serif" font-size="14.00">sel</text>
</g>
<!-- n8&#45;&gt;p0 -->
<g id="edge15" class="edge">
<title>n8:e&#45;&gt;p0:w</title>
<path fill="none" stroke="black" stroke-width="3" d="M56.49,-41C82.02,-41 68.69,-82.36 83.28,-93.99"/>
<polygon fill="black" stroke="black" stroke-width="3" points="82.4,-97.38 92.99,-97 84.47,-90.69 82.4,-97.38"/>
</g>
<!-- n9 -->
<g id="node7" class="node">
<title>n9</title>
<polygon fill="none" stroke="black" points="55.49,-87.54 55.49,-102.46 39.68,-113 17.31,-113 1.49,-102.46 1.49,-87.54 17.31,-77 39.68,-77 55.49,-87.54"/>
<text text-anchor="middle" x="28.49" y="-91.3" font-family="Times New Roman,serif" font-size="14.00">d</text>
</g>
<!-- n9&#45;&gt;c16 -->
<g id="edge16" class="edge">
<title>n9:e&#45;&gt;c16:w</title>
<path fill="none" stroke="black" stroke-width="3" d="M56.49,-95C92.88,-95 73.51,-155.25 99.01,-167.02"/>
<polygon fill="black" stroke="black" stroke-width="3" points="98.5,-170.49 108.99,-169 99.86,-163.62 98.5,-170.49"/>
</g>
<!-- n9&#45;&gt;p0 -->
<g id="edge17" class="edge">
<title>n9:e&#45;&gt;p0:w</title>
<path fill="none" stroke="black" stroke-width="3" d="M56.49,-95C68.8,-95 74.09,-96.15 82.99,-96.7"/>
<polygon fill="black" stroke="black" stroke-width="3" points="82.89,-100.2 92.99,-97 83.1,-93.21 82.89,-100.2"/>
</g>
<!-- n10 -->
<g id="node8" class="node">
<title>n10</title>
<polygon fill="none" stroke="black" points="55.49,-303.54 55.49,-318.46 39.68,-329 17.31,-329 1.49,-318.46 1.49,-303.54 17.31,-293 39.68,-293 55.49,-303.54"/>
<text text-anchor="middle" x="28.49" y="-307.3" font-family="Times New Roman,serif" font-size="14.00">clk</text>
</g>
<!-- n10&#45;&gt;c14 -->
<g id="edge1" class="edge">
<title>n10:e&#45;&gt;c14:w</title>
<path fill="none" stroke="black" d="M56.49,-311C87.03,-311 77.61,-355.82 99.09,-365.97"/>
<polygon fill="black" stroke="black" points="98.49,-369.42 108.99,-368 99.89,-362.56 98.49,-369.42"/>
</g>
<!-- n10&#45;&gt;c15 -->
<g id="edge2" class="edge">
<title>n10:e&#45;&gt;c15:w</title>
<path fill="none" stroke="black" d="M56.49,-311C79.78,-311 81.8,-288.11 99.1,-281.67"/>
<polygon fill="black" stroke="black" points="99.71,-285.11 108.99,-280 98.54,-278.21 99.71,-285.11"/>
</g>
<!-- n10&#45;&gt;c16 -->
<g id="edge3" class="edge">
<title>n10:e&#45;&gt;c16:w</title>
<path fill="none" stroke="black" d="M56.49,-311C110.46,-311 59.03,-207.28 99,-193.5"/>
<polygon fill="black" stroke="black" points="99.62,-196.95 108.99,-192 98.58,-190.03 99.62,-196.95"/>
</g>
<!-- p0&#45;&gt;n6 -->
<g id="edge12" class="edge">
<title>p0:e&#45;&gt;n6:w</title>
<path fill="none" stroke="black" stroke-width="3" d="M242.99,-97C254.99,-97 260.24,-97 268.86,-97"/>
<polygon fill="black" stroke="black" stroke-width="3" points="268.99,-100.5 278.99,-97 268.99,-93.5 268.99,-100.5"/>
</g>
<!-- x1&#45;&gt;n7 -->
<g id="edge14" class="edge">
<title>x1:e&#45;&gt;n7:w</title>
<path fill="none" stroke="black" stroke-width="3" d="M433.33,-97C445.33,-97 450.58,-97 459.2,-97"/>
<polygon fill="black" stroke="black" stroke-width="3" points="459.33,-100.5 469.33,-97 459.33,-93.5 459.33,-100.5"/>
</g>
</g>
</svg>
