<?xml version="1.0" encoding="UTF-8" standalone="no"?>
<!DOCTYPE svg PUBLIC "-//W3C//DTD SVG 1.1//EN"
 "http://www.w3.org/Graphics/SVG/1.1/DTD/svg11.dtd">
<!-- Generated by graphviz version 4.0.0 (20220529.0937)
 -->
<!-- Title: top_module Pages: 1 -->
<svg width="1621pt" height="527pt"
 viewBox="0.00 0.00 1620.99 527.00" xmlns="http://www.w3.org/2000/svg" xmlns:xlink="http://www.w3.org/1999/xlink">
<g id="graph0" class="graph" transform="scale(1 1) rotate(0) translate(4 523)">
<title>top_module</title>
<polygon fill="white" stroke="transparent" points="-4,4 -4,-523 1616.99,-523 1616.99,4 -4,4"/>
<text text-anchor="middle" x="806.5" y="-7.8" font-family="Times New Roman,serif" font-size="14.00">top_module</text>
<!-- n4 -->
<g id="node1" class="node">
<title>n4</title>
<polygon fill="none" stroke="black" points="54,-344.54 54,-359.46 38.18,-370 15.82,-370 0,-359.46 0,-344.54 15.82,-334 38.18,-334 54,-344.54"/>
<text text-anchor="middle" x="27" y="-348.3" font-family="Times New Roman,serif" font-size="14.00">clk</text>
</g>
<!-- c20 -->
<g id="node5" class="node">
<title>c20</title>
<polygon fill="none" stroke="black" points="144,-381 144,-427 266,-427 266,-381 144,-381"/>
<text text-anchor="middle" x="160.5" y="-411.8" font-family="Times New Roman,serif" font-size="14.00">clk</text>
<polyline fill="none" stroke="black" points="144,-404 177,-404 "/>
<text text-anchor="middle" x="160.5" y="-388.8" font-family="Times New Roman,serif" font-size="14.00">d</text>
<polyline fill="none" stroke="black" points="177,-381 177,-427 "/>
<text text-anchor="middle" x="209.5" y="-407.8" font-family="Times New Roman,serif" font-size="14.00">m1</text>
<text text-anchor="middle" x="209.5" y="-392.8" font-family="Times New Roman,serif" font-size="14.00">my_dff8</text>
<polyline fill="none" stroke="black" points="242,-381 242,-427 "/>
<text text-anchor="middle" x="254" y="-400.3" font-family="Times New Roman,serif" font-size="14.00">q</text>
</g>
<!-- n4&#45;&gt;c20 -->
<g id="edge1" class="edge">
<title>n4:e&#45;&gt;c20:w</title>
<path fill="none" stroke="#e6ab02" d="M54,-352C78.88,-352 52.93,-389.02 72,-405 94.1,-423.52 108.27,-417.78 133.97,-416.3"/>
<polygon fill="#e6ab02" stroke="#e6ab02" points="134.11,-419.8 144,-416 133.9,-412.8 134.11,-419.8"/>
</g>
<!-- c21 -->
<g id="node6" class="node">
<title>c21</title>
<polygon fill="none" stroke="black" points="582.99,-327 582.99,-373 704.99,-373 704.99,-327 582.99,-327"/>
<text text-anchor="middle" x="599.49" y="-357.8" font-family="Times New Roman,serif" font-size="14.00">clk</text>
<polyline fill="none" stroke="black" points="582.99,-350 615.99,-350 "/>
<text text-anchor="middle" x="599.49" y="-334.8" font-family="Times New Roman,serif" font-size="14.00">d</text>
<polyline fill="none" stroke="black" points="615.99,-327 615.99,-373 "/>
<text text-anchor="middle" x="648.49" y="-353.8" font-family="Times New Roman,serif" font-size="14.00">m2</text>
<text text-anchor="middle" x="648.49" y="-338.8" font-family="Times New Roman,serif" font-size="14.00">my_dff8</text>
<polyline fill="none" stroke="black" points="680.99,-327 680.99,-373 "/>
<text text-anchor="middle" x="692.99" y="-346.3" font-family="Times New Roman,serif" font-size="14.00">q</text>
</g>
<!-- n4&#45;&gt;c21 -->
<g id="edge2" class="edge">
<title>n4:e&#45;&gt;c21:w</title>
<path fill="none" stroke="#e6ab02" d="M54,-352C285.7,-352 346.08,-361.71 572.77,-361.99"/>
<polygon fill="#e6ab02" stroke="#e6ab02" points="572.99,-365.49 582.99,-362 572.99,-358.49 572.99,-365.49"/>
</g>
<!-- c22 -->
<g id="node7" class="node">
<title>c22</title>
<polygon fill="none" stroke="black" points="881.98,-263 881.98,-309 1003.98,-309 1003.98,-263 881.98,-263"/>
<text text-anchor="middle" x="898.48" y="-293.8" font-family="Times New Roman,serif" font-size="14.00">clk</text>
<polyline fill="none" stroke="black" points="881.98,-286 914.98,-286 "/>
<text text-anchor="middle" x="898.48" y="-270.8" font-family="Times New Roman,serif" font-size="14.00">d</text>
<polyline fill="none" stroke="black" points="914.98,-263 914.98,-309 "/>
<text text-anchor="middle" x="947.48" y="-289.8" font-family="Times New Roman,serif" font-size="14.00">m3</text>
<text text-anchor="middle" x="947.48" y="-274.8" font-family="Times New Roman,serif" font-size="14.00">my_dff8</text>
<polyline fill="none" stroke="black" points="979.98,-263 979.98,-309 "/>
<text text-anchor="middle" x="991.98" y="-282.3" font-family="Times New Roman,serif" font-size="14.00">q</text>
</g>
<!-- n4&#45;&gt;c22 -->
<g id="edge3" class="edge">
<title>n4:e&#45;&gt;c22:w</title>
<path fill="none" stroke="#e6ab02" d="M54,-352C71.71,-352 186.29,-298 204,-298 204,-298 204,-298 794.48,-298 829.72,-298 841.01,-298 871.76,-298"/>
<polygon fill="#e6ab02" stroke="#e6ab02" points="871.98,-301.5 881.98,-298 871.98,-294.5 871.98,-301.5"/>
</g>
<!-- n5 -->
<g id="node2" class="node">
<title>n5</title>
<polygon fill="none" stroke="black" points="54,-423.54 54,-438.46 38.18,-449 15.82,-449 0,-438.46 0,-423.54 15.82,-413 38.18,-413 54,-423.54"/>
<text text-anchor="middle" x="27" y="-427.3" font-family="Times New Roman,serif" font-size="14.00">d</text>
</g>
<!-- n5&#45;&gt;c20 -->
<g id="edge5" class="edge">
<title>n5:e&#45;&gt;c20:w</title>
<path fill="none" stroke="#e6ab02" stroke-width="3" d="M54,-431C72.9,-431 110.31,-401.67 134.13,-393.88"/>
<polygon fill="#e6ab02" stroke="#e6ab02" stroke-width="3" points="134.83,-397.31 144,-392 133.52,-390.43 134.83,-397.31"/>
<text text-anchor="middle" x="99" y="-428.8" font-family="Times New Roman,serif" font-size="14.00" fill="#e6ab02">&lt;8&gt;</text>
</g>
<!-- c16 -->
<g id="node8" class="node">
<title>c16</title>
<polygon fill="none" stroke="black" points="1345.96,-329.5 1345.96,-398.5 1452.96,-398.5 1452.96,-329.5 1345.96,-329.5"/>
<text text-anchor="middle" x="1358.96" y="-383.3" font-family="Times New Roman,serif" font-size="14.00">A</text>
<polyline fill="none" stroke="black" points="1345.96,-375.5 1371.96,-375.5 "/>
<text text-anchor="middle" x="1358.96" y="-360.3" font-family="Times New Roman,serif" font-size="14.00">B</text>
<polyline fill="none" stroke="black" points="1345.96,-352.5 1371.96,-352.5 "/>
<text text-anchor="middle" x="1358.96" y="-337.3" font-family="Times New Roman,serif" font-size="14.00">S</text>
<polyline fill="none" stroke="black" points="1371.96,-329.5 1371.96,-398.5 "/>
<text text-anchor="middle" x="1399.46" y="-367.8" font-family="Times New Roman,serif" font-size="14.00">$4</text>
<text text-anchor="middle" x="1399.46" y="-352.8" font-family="Times New Roman,serif" font-size="14.00">$pmux</text>
<polyline fill="none" stroke="black" points="1426.96,-329.5 1426.96,-398.5 "/>
<text text-anchor="middle" x="1439.96" y="-360.3" font-family="Times New Roman,serif" font-size="14.00">Y</text>
</g>
<!-- n5&#45;&gt;c16 -->
<g id="edge4" class="edge">
<title>n5:e&#45;&gt;c16:w</title>
<path fill="none" stroke="#e6ab02" stroke-width="3" d="M54,-431C121.59,-431 136.41,-456 204,-456 204,-456 204,-456 1219.46,-456 1279.88,-456 1281.89,-394.6 1335.69,-387.64"/>
<polygon fill="#e6ab02" stroke="#e6ab02" stroke-width="3" points="1336.2,-391.11 1345.96,-387 1335.77,-384.13 1336.2,-391.11"/>
<text text-anchor="middle" x="793.48" y="-459.8" font-family="Times New Roman,serif" font-size="14.00" fill="#e6ab02">&lt;8&gt;</text>
</g>
<!-- n11 -->
<g id="node3" class="node">
<title>n11</title>
<polygon fill="none" stroke="black" points="54,-163.54 54,-178.46 38.18,-189 15.82,-189 0,-178.46 0,-163.54 15.82,-153 38.18,-153 54,-163.54"/>
<text text-anchor="middle" x="27" y="-167.3" font-family="Times New Roman,serif" font-size="14.00">sel</text>
</g>
<!-- c17 -->
<g id="node15" class="node">
<title>c17</title>
<polygon fill="none" stroke="black" points="284,-206 284,-252 410,-252 410,-206 284,-206"/>
<text text-anchor="middle" x="297" y="-236.8" font-family="Times New Roman,serif" font-size="14.00">A</text>
<polyline fill="none" stroke="black" points="284,-229 310,-229 "/>
<text text-anchor="middle" x="297" y="-213.8" font-family="Times New Roman,serif" font-size="14.00">B</text>
<polyline fill="none" stroke="black" points="310,-206 310,-252 "/>
<text text-anchor="middle" x="347" y="-232.8" font-family="Times New Roman,serif" font-size="14.00">$5_CMP0</text>
<text text-anchor="middle" x="347" y="-217.8" font-family="Times New Roman,serif" font-size="14.00">$eq</text>
<polyline fill="none" stroke="black" points="384,-206 384,-252 "/>
<text text-anchor="middle" x="397" y="-225.3" font-family="Times New Roman,serif" font-size="14.00">Y</text>
</g>
<!-- n11&#45;&gt;c17 -->
<g id="edge12" class="edge">
<title>n11:e&#45;&gt;c17:w</title>
<path fill="none" stroke="#d95f02" stroke-width="3" d="M54,-171C84.83,-171 47.67,-219.07 72,-238 143.68,-293.78 186.59,-244.82 273.98,-241.21"/>
<polygon fill="#d95f02" stroke="#d95f02" stroke-width="3" points="274.07,-244.71 284,-241 273.93,-237.71 274.07,-244.71"/>
<text text-anchor="middle" x="99" y="-267.8" font-family="Times New Roman,serif" font-size="14.00" fill="#d95f02">&lt;2&gt;</text>
</g>
<!-- c18 -->
<g id="node16" class="node">
<title>c18</title>
<polygon fill="none" stroke="black" points="284,-136 284,-182 410,-182 410,-136 284,-136"/>
<text text-anchor="middle" x="297" y="-166.8" font-family="Times New Roman,serif" font-size="14.00">A</text>
<polyline fill="none" stroke="black" points="284,-159 310,-159 "/>
<text text-anchor="middle" x="297" y="-143.8" font-family="Times New Roman,serif" font-size="14.00">B</text>
<polyline fill="none" stroke="black" points="310,-136 310,-182 "/>
<text text-anchor="middle" x="347" y="-162.8" font-family="Times New Roman,serif" font-size="14.00">$6_CMP0</text>
<text text-anchor="middle" x="347" y="-147.8" font-family="Times New Roman,serif" font-size="14.00">$eq</text>
<polyline fill="none" stroke="black" points="384,-136 384,-182 "/>
<text text-anchor="middle" x="397" y="-155.3" font-family="Times New Roman,serif" font-size="14.00">Y</text>
</g>
<!-- n11&#45;&gt;c18 -->
<g id="edge13" class="edge">
<title>n11:e&#45;&gt;c18:w</title>
<path fill="none" stroke="#d95f02" stroke-width="3" d="M54,-171C152.73,-171 179.94,-171 273.78,-171"/>
<polygon fill="#d95f02" stroke="#d95f02" stroke-width="3" points="274,-174.5 284,-171 274,-167.5 274,-174.5"/>
<text text-anchor="middle" x="99" y="-174.8" font-family="Times New Roman,serif" font-size="14.00" fill="#d95f02">&lt;2&gt;</text>
</g>
<!-- c19 -->
<g id="node17" class="node">
<title>c19</title>
<polygon fill="none" stroke="black" points="284,-47 284,-93 410,-93 410,-47 284,-47"/>
<text text-anchor="middle" x="297" y="-77.8" font-family="Times New Roman,serif" font-size="14.00">A</text>
<polyline fill="none" stroke="black" points="284,-70 310,-70 "/>
<text text-anchor="middle" x="297" y="-54.8" font-family="Times New Roman,serif" font-size="14.00">B</text>
<polyline fill="none" stroke="black" points="310,-47 310,-93 "/>
<text text-anchor="middle" x="347" y="-73.8" font-family="Times New Roman,serif" font-size="14.00">$7_CMP0</text>
<text text-anchor="middle" x="347" y="-58.8" font-family="Times New Roman,serif" font-size="14.00">$eq</text>
<polyline fill="none" stroke="black" points="384,-47 384,-93 "/>
<text text-anchor="middle" x="397" y="-66.3" font-family="Times New Roman,serif" font-size="14.00">Y</text>
</g>
<!-- n11&#45;&gt;c19 -->
<g id="edge14" class="edge">
<title>n11:e&#45;&gt;c19:w</title>
<path fill="none" stroke="#d95f02" stroke-width="3" d="M54,-171C92.62,-171 42.23,-110.59 72,-86 105.98,-57.92 220.69,-78.88 273.92,-81.7"/>
<polygon fill="#d95f02" stroke="#d95f02" stroke-width="3" points="273.9,-85.2 284,-82 274.11,-78.2 273.9,-85.2"/>
<text text-anchor="middle" x="99" y="-89.8" font-family="Times New Roman,serif" font-size="14.00" fill="#d95f02">&lt;2&gt;</text>
</g>
<!-- n6 -->
<g id="node4" class="node">
<title>n6</title>
<polygon fill="none" stroke="black" points="1607.3,-418.54 1607.3,-433.46 1591.49,-444 1569.12,-444 1553.3,-433.46 1553.3,-418.54 1569.12,-408 1591.49,-408 1607.3,-418.54"/>
<text text-anchor="middle" x="1580.3" y="-422.3" font-family="Times New Roman,serif" font-size="14.00">q</text>
</g>
<!-- x5 -->
<g id="node9" class="node">
<title>x5</title>
<path fill="none" stroke="black" d="M1315.96,-507C1315.96,-507 1285.96,-507 1285.96,-507 1279.96,-507 1273.96,-501 1273.96,-495 1273.96,-495 1273.96,-483 1273.96,-483 1273.96,-477 1279.96,-471 1285.96,-471 1285.96,-471 1315.96,-471 1315.96,-471 1321.96,-471 1327.96,-477 1327.96,-483 1327.96,-483 1327.96,-495 1327.96,-495 1327.96,-501 1321.96,-507 1315.96,-507"/>
<text text-anchor="middle" x="1300.96" y="-485.3" font-family="Times New Roman,serif" font-size="14.00">BUF</text>
</g>
<!-- n6&#45;&gt;x5 -->
<g id="edge6" class="edge">
<title>n6:e&#45;&gt;x5:w</title>
<path fill="none" stroke="#d95f02" stroke-width="3" d="M1608.3,-426C1616.32,-426 1612.29,-437.73 1607.3,-444 1586.57,-470.1 1567.67,-457.02 1535.3,-465 1444.02,-487.52 1421.52,-497.62 1327.96,-507 1304.08,-509.39 1291.4,-523.49 1273.96,-507 1271.6,-504.76 1269.67,-501.37 1268.75,-498.14"/>
<polygon fill="#d95f02" stroke="#d95f02" stroke-width="3" points="1271.95,-499.55 1272.96,-489 1265.59,-496.61 1271.95,-499.55"/>
<text text-anchor="middle" x="1399.46" y="-507.8" font-family="Times New Roman,serif" font-size="14.00" fill="#d95f02">&lt;8&gt;</text>
</g>
<!-- n7 -->
<g id="node10" class="node">
<title>n7</title>
<polygon fill="none" stroke="black" points="456.49,-420 428.01,-402 456.49,-384 484.98,-402 456.49,-420"/>
<text text-anchor="middle" x="456.49" y="-398.3" font-family="Times New Roman,serif" font-size="14.00">q1</text>
</g>
<!-- c20&#45;&gt;n7 -->
<g id="edge24" class="edge">
<title>c20:e&#45;&gt;n7:w</title>
<path fill="none" stroke="#d95f02" stroke-width="3" d="M266,-404C334.49,-404 354.11,-402.19 417.83,-402.01"/>
<polygon fill="#d95f02" stroke="#d95f02" stroke-width="3" points="418,-405.51 428,-402 418,-398.51 418,-405.51"/>
<text text-anchor="middle" x="347" y="-406.8" font-family="Times New Roman,serif" font-size="14.00" fill="#d95f02">&lt;8&gt;</text>
</g>
<!-- n8 -->
<g id="node12" class="node">
<title>n8</title>
<polygon fill="none" stroke="black" points="793.48,-368 764.99,-350 793.48,-332 821.97,-350 793.48,-368"/>
<text text-anchor="middle" x="793.48" y="-346.3" font-family="Times New Roman,serif" font-size="14.00">q2</text>
</g>
<!-- c21&#45;&gt;n8 -->
<g id="edge25" class="edge">
<title>c21:e&#45;&gt;n8:w</title>
<path fill="none" stroke="#d95f02" stroke-width="3" d="M704.99,-350C727.9,-350 736.05,-350 754.81,-350"/>
<polygon fill="#d95f02" stroke="#d95f02" stroke-width="3" points="754.99,-353.5 764.99,-350 754.99,-346.5 754.99,-353.5"/>
<text text-anchor="middle" x="734.99" y="-353.8" font-family="Times New Roman,serif" font-size="14.00" fill="#d95f02">&lt;8&gt;</text>
</g>
<!-- n9 -->
<g id="node13" class="node">
<title>n9</title>
<polygon fill="none" stroke="black" points="1092.47,-317 1063.98,-299 1092.47,-281 1120.96,-299 1092.47,-317"/>
<text text-anchor="middle" x="1092.47" y="-295.3" font-family="Times New Roman,serif" font-size="14.00">q3</text>
</g>
<!-- c22&#45;&gt;n9 -->
<g id="edge26" class="edge">
<title>c22:e&#45;&gt;n9:w</title>
<path fill="none" stroke="#1b9e77" stroke-width="3" d="M1003.98,-286C1027.53,-286 1034.8,-295.69 1053.9,-298.34"/>
<polygon fill="#1b9e77" stroke="#1b9e77" stroke-width="3" points="1053.77,-301.84 1063.98,-299 1054.23,-294.85 1053.77,-301.84"/>
<text text-anchor="middle" x="1033.98" y="-299.8" font-family="Times New Roman,serif" font-size="14.00" fill="#1b9e77">&lt;8&gt;</text>
</g>
<!-- c16&#45;&gt;n6 -->
<g id="edge15" class="edge">
<title>c16:e&#45;&gt;n6:w</title>
<path fill="none" stroke="#d95f02" stroke-width="3" d="M1452.96,-364C1492.23,-364 1505.29,-370.69 1535.3,-396 1543.29,-402.73 1541.65,-413.96 1544.43,-420.6"/>
<polygon fill="#d95f02" stroke="#d95f02" stroke-width="3" points="1542.94,-423.79 1553.3,-426 1546.58,-417.81 1542.94,-423.79"/>
<text text-anchor="middle" x="1503.13" y="-399.8" font-family="Times New Roman,serif" font-size="14.00" fill="#d95f02">&lt;8&gt;</text>
</g>
<!-- n10 -->
<g id="node14" class="node">
<title>n10</title>
<polygon fill="none" stroke="black" points="1503.13,-456 1470.79,-438 1503.13,-420 1535.48,-438 1503.13,-456"/>
<text text-anchor="middle" x="1503.13" y="-434.3" font-family="Times New Roman,serif" font-size="14.00">q_i</text>
</g>
<!-- x5&#45;&gt;n10 -->
<g id="edge27" class="edge">
<title>x5:e&#45;&gt;n10:w</title>
<path fill="none" stroke="#7570b3" stroke-width="3" d="M1327.96,-489C1346.25,-489 1331.02,-462.55 1345.96,-452 1388.78,-421.77 1412.04,-435.92 1460.85,-437.8"/>
<polygon fill="#7570b3" stroke="#7570b3" stroke-width="3" points="1460.9,-441.3 1470.96,-438 1461.03,-434.31 1460.9,-441.3"/>
<text text-anchor="middle" x="1399.46" y="-455.8" font-family="Times New Roman,serif" font-size="14.00" fill="#7570b3">&lt;8&gt;</text>
</g>
<!-- n7&#45;&gt;c21 -->
<g id="edge8" class="edge">
<title>n7:e&#45;&gt;c21:w</title>
<path fill="none" stroke="#d95f02" stroke-width="3" d="M484.99,-402C500.16,-402 491.52,-382.93 502.99,-373 529.57,-349.97 541.8,-339.94 572.75,-338.26"/>
<polygon fill="#d95f02" stroke="#d95f02" stroke-width="3" points="573.08,-341.75 582.99,-338 572.9,-334.75 573.08,-341.75"/>
<text text-anchor="middle" x="533.99" y="-376.8" font-family="Times New Roman,serif" font-size="14.00" fill="#d95f02">&lt;8&gt;</text>
</g>
<!-- x0 -->
<g id="node11" class="node">
<title>x0</title>
<path fill="none" stroke="black" d="M1192.96,-326.5C1192.96,-326.5 1243.96,-326.5 1243.96,-326.5 1249.96,-326.5 1255.96,-332.5 1255.96,-338.5 1255.96,-338.5 1255.96,-383.5 1255.96,-383.5 1255.96,-389.5 1249.96,-395.5 1243.96,-395.5 1243.96,-395.5 1192.96,-395.5 1192.96,-395.5 1186.96,-395.5 1180.96,-389.5 1180.96,-383.5 1180.96,-383.5 1180.96,-338.5 1180.96,-338.5 1180.96,-332.5 1186.96,-326.5 1192.96,-326.5"/>
<text text-anchor="middle" x="1218.46" y="-380.3" font-family="Times New Roman,serif" font-size="14.00">7:0 &#45; 23:16</text>
<polyline fill="none" stroke="black" points="1180.96,-372.5 1255.96,-372.5 "/>
<text text-anchor="middle" x="1218.46" y="-357.3" font-family="Times New Roman,serif" font-size="14.00">7:0 &#45; 15:8</text>
<polyline fill="none" stroke="black" points="1180.96,-349.5 1255.96,-349.5 "/>
<text text-anchor="middle" x="1218.46" y="-334.3" font-family="Times New Roman,serif" font-size="14.00">7:0 &#45; 7:0</text>
</g>
<!-- n7&#45;&gt;x0 -->
<g id="edge7" class="edge">
<title>n7:e&#45;&gt;x0:w</title>
<path fill="none" stroke="#d95f02" stroke-width="3" d="M484.99,-402C555.21,-402 572.77,-402 642.99,-402 642.99,-402 642.99,-402 1093.47,-402 1129.45,-402 1139.47,-387.22 1170.58,-384.44"/>
<polygon fill="#d95f02" stroke="#d95f02" stroke-width="3" points="1171.12,-387.92 1180.96,-384 1170.82,-380.93 1171.12,-387.92"/>
<text text-anchor="middle" x="851.98" y="-405.8" font-family="Times New Roman,serif" font-size="14.00" fill="#d95f02">&lt;8&gt;</text>
</g>
<!-- x0&#45;&gt;c16 -->
<g id="edge16" class="edge">
<title>x0:e&#45;&gt;c16:w</title>
<path fill="none" stroke="#7570b3" stroke-width="3" d="M1268.1,-361.1C1294.72,-361.56 1307.08,-363.43 1333.63,-363.9"/>
<polygon fill="none" stroke="#7570b3" stroke-width="3" points="1267.96,-361.1 1261.93,-365.05 1255.96,-361 1262,-357.05 1267.96,-361.1"/>
<polygon fill="none" stroke="#7570b3" stroke-width="3" points="1333.96,-363.9 1340,-359.95 1345.96,-364 1339.93,-367.95 1333.96,-363.9"/>
<text text-anchor="middle" x="1300.96" y="-366.8" font-family="Times New Roman,serif" font-size="14.00" fill="#7570b3">&lt;24&gt;</text>
</g>
<!-- n8&#45;&gt;c22 -->
<g id="edge10" class="edge">
<title>n8:e&#45;&gt;c22:w</title>
<path fill="none" stroke="#d95f02" stroke-width="3" d="M821.98,-350C835.67,-350 831.62,-335.85 839.98,-325 855.52,-304.83 853.61,-281.29 871.97,-275.39"/>
<polygon fill="#d95f02" stroke="#d95f02" stroke-width="3" points="872.55,-278.85 881.98,-274 871.59,-271.91 872.55,-278.85"/>
<text text-anchor="middle" x="851.98" y="-328.8" font-family="Times New Roman,serif" font-size="14.00" fill="#d95f02">&lt;8&gt;</text>
</g>
<!-- n8&#45;&gt;x0 -->
<g id="edge9" class="edge">
<title>n8:e&#45;&gt;x0:w</title>
<path fill="none" stroke="#d95f02" stroke-width="3" d="M821.98,-350C978.17,-350 1019.58,-360.53 1170.84,-360.98"/>
<polygon fill="#d95f02" stroke="#d95f02" stroke-width="3" points="1170.96,-364.49 1180.96,-361 1170.97,-357.49 1170.96,-364.49"/>
<text text-anchor="middle" x="1033.98" y="-360.8" font-family="Times New Roman,serif" font-size="14.00" fill="#d95f02">&lt;8&gt;</text>
</g>
<!-- n9&#45;&gt;x0 -->
<g id="edge11" class="edge">
<title>n9:e&#45;&gt;x0:w</title>
<path fill="none" stroke="#1b9e77" stroke-width="3" d="M1120.96,-299C1142.92,-299 1144.72,-312.79 1162.96,-325 1167.32,-327.92 1169.34,-331.4 1171.76,-334.03"/>
<polygon fill="#1b9e77" stroke="#1b9e77" stroke-width="3" points="1170.39,-337.25 1180.96,-338 1173.17,-330.83 1170.39,-337.25"/>
<text text-anchor="middle" x="1150.96" y="-328.8" font-family="Times New Roman,serif" font-size="14.00" fill="#1b9e77">&lt;8&gt;</text>
</g>
<!-- x1 -->
<g id="node18" class="node">
<title>x1</title>
<path fill="none" stroke="black" d="M514.99,-147.5C514.99,-147.5 552.99,-147.5 552.99,-147.5 558.99,-147.5 564.99,-153.5 564.99,-159.5 564.99,-159.5 564.99,-204.5 564.99,-204.5 564.99,-210.5 558.99,-216.5 552.99,-216.5 552.99,-216.5 514.99,-216.5 514.99,-216.5 508.99,-216.5 502.99,-210.5 502.99,-204.5 502.99,-204.5 502.99,-159.5 502.99,-159.5 502.99,-153.5 508.99,-147.5 514.99,-147.5"/>
<text text-anchor="middle" x="533.99" y="-201.3" font-family="Times New Roman,serif" font-size="14.00">0:0 &#45; 2:2</text>
<polyline fill="none" stroke="black" points="502.99,-193.5 564.99,-193.5 "/>
<text text-anchor="middle" x="533.99" y="-178.3" font-family="Times New Roman,serif" font-size="14.00">0:0 &#45; 1:1</text>
<polyline fill="none" stroke="black" points="502.99,-170.5 564.99,-170.5 "/>
<text text-anchor="middle" x="533.99" y="-155.3" font-family="Times New Roman,serif" font-size="14.00">0:0 &#45; 0:0</text>
</g>
<!-- c17&#45;&gt;x1 -->
<g id="edge19" class="edge">
<title>c17:e&#45;&gt;x1:w</title>
<path fill="none" stroke="#e7298a" d="M410,-229C448.64,-229 456.66,-211.28 484.99,-185 491.75,-178.73 491.34,-169.49 494.22,-163.88"/>
<polygon fill="#e7298a" stroke="#e7298a" points="495.95,-166.92 502.99,-159 492.55,-160.81 495.95,-166.92"/>
</g>
<!-- c18&#45;&gt;x1 -->
<g id="edge21" class="edge">
<title>c18:e&#45;&gt;x1:w</title>
<path fill="none" stroke="#1b9e77" d="M410,-159C448.91,-159 458.81,-178.22 492.74,-181.52"/>
<polygon fill="#1b9e77" stroke="#1b9e77" points="492.83,-185.03 502.99,-182 493.16,-178.04 492.83,-185.03"/>
</g>
<!-- c19&#45;&gt;x1 -->
<g id="edge23" class="edge">
<title>c19:e&#45;&gt;x1:w</title>
<path fill="none" stroke="#1b9e77" d="M410,-70C461.05,-70 458.96,-113.09 484.99,-157 494.25,-172.62 485.71,-193.83 493.39,-201.8"/>
<polygon fill="#1b9e77" stroke="#1b9e77" points="492.39,-205.15 502.99,-205 494.61,-198.51 492.39,-205.15"/>
</g>
<!-- x1&#45;&gt;c16 -->
<g id="edge17" class="edge">
<title>x1:e&#45;&gt;c16:w</title>
<path fill="none" stroke="#e7298a" stroke-width="3" d="M577.28,-182.15C642.67,-183.76 662.81,-198 733.99,-198 733.99,-198 733.99,-198 1219.46,-198 1300.01,-198 1265.17,-326.85 1333.99,-339.93"/>
<polygon fill="none" stroke="#e7298a" stroke-width="3" points="576.99,-182.14 570.94,-186.07 564.99,-182 571.04,-178.07 576.99,-182.14"/>
<polygon fill="none" stroke="#e7298a" stroke-width="3" points="1334.01,-339.93 1340.34,-336.48 1345.96,-341 1339.63,-344.45 1334.01,-339.93"/>
<text text-anchor="middle" x="942.98" y="-201.8" font-family="Times New Roman,serif" font-size="14.00" fill="#e7298a">&lt;3&gt;</text>
</g>
<!-- v2 -->
<g id="node19" class="node">
<title>v2</title>
<ellipse fill="none" stroke="black" cx="99" cy="-217" rx="27" ry="18"/>
<text text-anchor="middle" x="99" y="-213.3" font-family="Times New Roman,serif" font-size="14.00">2&#39;11</text>
</g>
<!-- v2&#45;&gt;c17 -->
<g id="edge18" class="edge">
<title>v2:e&#45;&gt;c17:w</title>
<path fill="none" stroke="#1b9e77" stroke-width="3" d="M126,-217C192.66,-217 211.86,-217 273.7,-217"/>
<polygon fill="#1b9e77" stroke="#1b9e77" stroke-width="3" points="274,-220.5 284,-217 274,-213.5 274,-220.5"/>
<text text-anchor="middle" x="205" y="-220.8" font-family="Times New Roman,serif" font-size="14.00" fill="#1b9e77">&lt;2&gt;</text>
</g>
<!-- v3 -->
<g id="node20" class="node">
<title>v3</title>
<ellipse fill="none" stroke="black" cx="99" cy="-128" rx="27" ry="18"/>
<text text-anchor="middle" x="99" y="-124.3" font-family="Times New Roman,serif" font-size="14.00">2&#39;10</text>
</g>
<!-- v3&#45;&gt;c18 -->
<g id="edge20" class="edge">
<title>v3:e&#45;&gt;c18:w</title>
<path fill="none" stroke="#7570b3" stroke-width="3" d="M126,-128C188.53,-128 204.54,-130.48 266,-142 269.57,-142.67 271.87,-143.71 274.03,-144.67"/>
<polygon fill="#7570b3" stroke="#7570b3" stroke-width="3" points="273.47,-148.13 284,-147 275.06,-141.32 273.47,-148.13"/>
<text text-anchor="middle" x="205" y="-145.8" font-family="Times New Roman,serif" font-size="14.00" fill="#7570b3">&lt;2&gt;</text>
</g>
<!-- v4 -->
<g id="node21" class="node">
<title>v4</title>
<ellipse fill="none" stroke="black" cx="99" cy="-41" rx="27" ry="18"/>
<text text-anchor="middle" x="99" y="-37.3" font-family="Times New Roman,serif" font-size="14.00">1&#39;1</text>
</g>
<!-- v4&#45;&gt;c19 -->
<g id="edge22" class="edge">
<title>v4:e&#45;&gt;c19:w</title>
<path fill="none" stroke="#666666" d="M126,-41C193.04,-41 211.53,-56.32 273.64,-57.87"/>
<polygon fill="#666666" stroke="#666666" points="273.96,-61.38 284,-58 274.04,-54.38 273.96,-61.38"/>
</g>
</g>
</svg>
