<?xml version="1.0" encoding="UTF-8" standalone="no"?>
<!DOCTYPE svg PUBLIC "-//W3C//DTD SVG 1.1//EN"
 "http://www.w3.org/Graphics/SVG/1.1/DTD/svg11.dtd">
<!-- Generated by graphviz version 3.0.0 (20220226.1711)
 -->
<!-- Title: my_dff8 Pages: 1 -->
<svg width="319pt" height="121pt"
 viewBox="0.00 0.00 319.00 121.00" xmlns="http://www.w3.org/2000/svg" xmlns:xlink="http://www.w3.org/1999/xlink">
<g id="graph0" class="graph" transform="scale(1 1) rotate(0) translate(4 117)">
<title>my_dff8</title>
<polygon fill="white" stroke="transparent" points="-4,4 -4,-117 315,-117 315,4 -4,4"/>
<text text-anchor="middle" x="155.5" y="-7.8" font-family="Times New Roman,serif" font-size="14.00">my_dff8</text>
<!-- n2 -->
<g id="node1" class="node">
<title>n2</title>
<polygon fill="none" stroke="black" points="311,-60.54 311,-75.46 295.18,-86 272.82,-86 257,-75.46 257,-60.54 272.82,-50 295.18,-50 311,-60.54"/>
<text text-anchor="middle" x="284" y="-64.3" font-family="Times New Roman,serif" font-size="14.00">q</text>
</g>
<!-- n3 -->
<g id="node2" class="node">
<title>n3</title>
<polygon fill="none" stroke="black" points="54,-87.54 54,-102.46 38.18,-113 15.82,-113 0,-102.46 0,-87.54 15.82,-77 38.18,-77 54,-87.54"/>
<text text-anchor="middle" x="27" y="-91.3" font-family="Times New Roman,serif" font-size="14.00">d</text>
</g>
<!-- p0 -->
<g id="node4" class="node">
<title>p0</title>
<path fill="none" stroke="black" d="M209,-87C209,-87 102,-87 102,-87 96,-87 90,-81 90,-75 90,-75 90,-61 90,-61 90,-55 96,-49 102,-49 102,-49 209,-49 209,-49 215,-49 221,-55 221,-61 221,-61 221,-75 221,-75 221,-81 215,-87 209,-87"/>
<text text-anchor="middle" x="155.5" y="-71.8" font-family="Times New Roman,serif" font-size="14.00">PROC $1</text>
<text text-anchor="middle" x="155.5" y="-56.8" font-family="Times New Roman,serif" font-size="14.00">my_dff8.v:16.3&#45;18.6</text>
</g>
<!-- n3&#45;&gt;p0 -->
<g id="edge2" class="edge">
<title>n3:e&#45;&gt;p0:w</title>
<path fill="none" stroke="black" stroke-width="3" d="M54,-95C69.94,-95 70.63,-77.85 80.38,-70.89"/>
<polygon fill="black" stroke="black" stroke-width="3" points="81.43,-74.23 90,-68 79.42,-67.52 81.43,-74.23"/>
</g>
<!-- n4 -->
<g id="node3" class="node">
<title>n4</title>
<polygon fill="none" stroke="black" points="54,-33.54 54,-48.46 38.18,-59 15.82,-59 0,-48.46 0,-33.54 15.82,-23 38.18,-23 54,-33.54"/>
<text text-anchor="middle" x="27" y="-37.3" font-family="Times New Roman,serif" font-size="14.00">clk</text>
</g>
<!-- n4&#45;&gt;p0 -->
<g id="edge3" class="edge">
<title>n4:e&#45;&gt;p0:w</title>
<path fill="none" stroke="black" d="M54,-41C69.94,-41 70.63,-58.15 80.38,-65.11"/>
<polygon fill="black" stroke="black" points="79.42,-68.48 90,-68 81.43,-61.77 79.42,-68.48"/>
</g>
<!-- p0&#45;&gt;n2 -->
<g id="edge1" class="edge">
<title>p0:e&#45;&gt;n2:w</title>
<path fill="none" stroke="black" stroke-width="3" d="M221,-68C233,-68 238.25,-68 246.88,-68"/>
<polygon fill="black" stroke="black" stroke-width="3" points="247,-71.5 257,-68 247,-64.5 247,-71.5"/>
</g>
</g>
</svg>
