<?xml version="1.0" encoding="UTF-8" standalone="no"?>
<!DOCTYPE svg PUBLIC "-//W3C//DTD SVG 1.1//EN"
 "http://www.w3.org/Graphics/SVG/1.1/DTD/svg11.dtd">
<!-- Generated by graphviz version 4.0.0 (20220529.0937)
 -->
<!-- Title: top Pages: 1 -->
<svg width="315pt" height="127pt"
 viewBox="0.00 0.00 315.11 127.00" xmlns="http://www.w3.org/2000/svg" xmlns:xlink="http://www.w3.org/1999/xlink">
<g id="graph0" class="graph" transform="scale(1 1) rotate(0) translate(4 123)">
<title>top</title>
<polygon fill="white" stroke="transparent" points="-4,4 -4,-123 311.11,-123 311.11,4 -4,4"/>
<text text-anchor="middle" x="153.55" y="-7.8" font-family="Times New Roman,serif" font-size="14.00">top</text>
<!-- n1 -->
<g id="node1" class="node">
<title>n1</title>
<polygon fill="none" stroke="black" points="71.63,-35.04 71.63,-49.96 50.69,-60.5 21.07,-60.5 0.12,-49.96 0.12,-35.04 21.07,-24.5 50.69,-24.5 71.63,-35.04"/>
<text text-anchor="middle" x="35.88" y="-38.8" font-family="Times New Roman,serif" font-size="14.00">BUT1</text>
</g>
<!-- c7 -->
<g id="node5" class="node">
<title>c7</title>
<polygon fill="none" stroke="black" points="107.76,-23.5 107.76,-61.5 200.76,-61.5 200.76,-23.5 107.76,-23.5"/>
<text text-anchor="middle" x="120.76" y="-38.8" font-family="Times New Roman,serif" font-size="14.00">A</text>
<polyline fill="none" stroke="black" points="133.76,-23.5 133.76,-61.5 "/>
<text text-anchor="middle" x="154.26" y="-46.3" font-family="Times New Roman,serif" font-size="14.00">$1</text>
<text text-anchor="middle" x="154.26" y="-31.3" font-family="Times New Roman,serif" font-size="14.00">$not</text>
<polyline fill="none" stroke="black" points="174.76,-23.5 174.76,-61.5 "/>
<text text-anchor="middle" x="187.76" y="-38.8" font-family="Times New Roman,serif" font-size="14.00">Y</text>
</g>
<!-- n1&#45;&gt;c7 -->
<g id="edge1" class="edge">
<title>n1:e&#45;&gt;c7:w</title>
<path fill="none" stroke="#66a61e" d="M71.76,-42.5C83.76,-42.5 89.01,-42.5 97.63,-42.5"/>
<polygon fill="#66a61e" stroke="#66a61e" points="97.76,-46 107.76,-42.5 97.76,-39 97.76,-46"/>
</g>
<!-- n2 -->
<g id="node2" class="node">
<title>n2</title>
<polygon fill="none" stroke="black" points="71.63,-92.04 71.63,-106.96 50.69,-117.5 21.07,-117.5 0.12,-106.96 0.12,-92.04 21.07,-81.5 50.69,-81.5 71.63,-92.04"/>
<text text-anchor="middle" x="35.88" y="-95.8" font-family="Times New Roman,serif" font-size="14.00">BUT2</text>
</g>
<!-- c8 -->
<g id="node6" class="node">
<title>c8</title>
<polygon fill="none" stroke="black" points="107.76,-80.5 107.76,-118.5 200.76,-118.5 200.76,-80.5 107.76,-80.5"/>
<text text-anchor="middle" x="120.76" y="-95.8" font-family="Times New Roman,serif" font-size="14.00">A</text>
<polyline fill="none" stroke="black" points="133.76,-80.5 133.76,-118.5 "/>
<text text-anchor="middle" x="154.26" y="-103.3" font-family="Times New Roman,serif" font-size="14.00">$2</text>
<text text-anchor="middle" x="154.26" y="-88.3" font-family="Times New Roman,serif" font-size="14.00">$not</text>
<polyline fill="none" stroke="black" points="174.76,-80.5 174.76,-118.5 "/>
<text text-anchor="middle" x="187.76" y="-95.8" font-family="Times New Roman,serif" font-size="14.00">Y</text>
</g>
<!-- n2&#45;&gt;c8 -->
<g id="edge2" class="edge">
<title>n2:e&#45;&gt;c8:w</title>
<path fill="none" stroke="#1b9e77" d="M71.76,-99.5C83.76,-99.5 89.01,-99.5 97.63,-99.5"/>
<polygon fill="#1b9e77" stroke="#1b9e77" points="97.76,-103 107.76,-99.5 97.76,-96 97.76,-103"/>
</g>
<!-- n3 -->
<g id="node3" class="node">
<title>n3</title>
<polygon fill="none" stroke="black" points="307.28,-35.04 307.28,-49.96 286.57,-60.5 257.29,-60.5 236.58,-49.96 236.58,-35.04 257.29,-24.5 286.57,-24.5 307.28,-35.04"/>
<text text-anchor="middle" x="271.93" y="-38.8" font-family="Times New Roman,serif" font-size="14.00">LED1</text>
</g>
<!-- n4 -->
<g id="node4" class="node">
<title>n4</title>
<polygon fill="none" stroke="black" points="307.28,-92.04 307.28,-106.96 286.57,-117.5 257.29,-117.5 236.58,-106.96 236.58,-92.04 257.29,-81.5 286.57,-81.5 307.28,-92.04"/>
<text text-anchor="middle" x="271.93" y="-95.8" font-family="Times New Roman,serif" font-size="14.00">LED2</text>
</g>
<!-- c7&#45;&gt;n3 -->
<g id="edge3" class="edge">
<title>c7:e&#45;&gt;n3:w</title>
<path fill="none" stroke="#1b9e77" d="M200.76,-42.5C212.76,-42.5 218.01,-42.5 226.63,-42.5"/>
<polygon fill="#1b9e77" stroke="#1b9e77" points="226.76,-46 236.76,-42.5 226.76,-39 226.76,-46"/>
</g>
<!-- c8&#45;&gt;n4 -->
<g id="edge4" class="edge">
<title>c8:e&#45;&gt;n4:w</title>
<path fill="none" stroke="#7570b3" d="M200.76,-99.5C212.76,-99.5 218.01,-99.5 226.63,-99.5"/>
<polygon fill="#7570b3" stroke="#7570b3" points="226.76,-103 236.76,-99.5 226.76,-96 226.76,-103"/>
</g>
</g>
</svg>
