<?xml version="1.0" encoding="UTF-8" standalone="no"?>
<!DOCTYPE svg PUBLIC "-//W3C//DTD SVG 1.1//EN"
 "http://www.w3.org/Graphics/SVG/1.1/DTD/svg11.dtd">
<!-- Generated by graphviz version 4.0.0 (20220529.0937)
 -->
<!-- Title: top Pages: 1 -->
<svg width="405pt" height="127pt"
 viewBox="0.00 0.00 405.11 127.00" xmlns="http://www.w3.org/2000/svg" xmlns:xlink="http://www.w3.org/1999/xlink">
<g id="graph0" class="graph" transform="scale(1 1) rotate(0) translate(4 123)">
<title>top</title>
<polygon fill="white" stroke="transparent" points="-4,4 -4,-123 401.11,-123 401.11,4 -4,4"/>
<text text-anchor="middle" x="198.55" y="-7.8" font-family="Times New Roman,serif" font-size="14.00">top</text>
<!-- n3 -->
<g id="node1" class="node">
<title>n3</title>
<polygon fill="none" stroke="black" points="397.28,-35.04 397.28,-49.96 376.57,-60.5 347.29,-60.5 326.58,-49.96 326.58,-35.04 347.29,-24.5 376.57,-24.5 397.28,-35.04"/>
<text text-anchor="middle" x="361.93" y="-38.8" font-family="Times New Roman,serif" font-size="14.00">LED2</text>
</g>
<!-- n4 -->
<g id="node2" class="node">
<title>n4</title>
<polygon fill="none" stroke="black" points="397.28,-92.04 397.28,-106.96 376.57,-117.5 347.29,-117.5 326.58,-106.96 326.58,-92.04 347.29,-81.5 376.57,-81.5 397.28,-92.04"/>
<text text-anchor="middle" x="361.93" y="-95.8" font-family="Times New Roman,serif" font-size="14.00">LED1</text>
</g>
<!-- n5 -->
<g id="node3" class="node">
<title>n5</title>
<polygon fill="none" stroke="black" points="71.63,-35.04 71.63,-49.96 50.69,-60.5 21.07,-60.5 0.12,-49.96 0.12,-35.04 21.07,-24.5 50.69,-24.5 71.63,-35.04"/>
<text text-anchor="middle" x="35.88" y="-38.8" font-family="Times New Roman,serif" font-size="14.00">BUT2</text>
</g>
<!-- c9 -->
<g id="node5" class="node">
<title>c9</title>
<polygon fill="none" stroke="black" points="107.76,-23.5 107.76,-61.5 200.76,-61.5 200.76,-23.5 107.76,-23.5"/>
<text text-anchor="middle" x="120.76" y="-38.8" font-family="Times New Roman,serif" font-size="14.00">A</text>
<polyline fill="none" stroke="black" points="133.76,-23.5 133.76,-61.5 "/>
<text text-anchor="middle" x="154.26" y="-46.3" font-family="Times New Roman,serif" font-size="14.00">$2</text>
<text text-anchor="middle" x="154.26" y="-31.3" font-family="Times New Roman,serif" font-size="14.00">$not</text>
<polyline fill="none" stroke="black" points="174.76,-23.5 174.76,-61.5 "/>
<text text-anchor="middle" x="187.76" y="-38.8" font-family="Times New Roman,serif" font-size="14.00">Y</text>
</g>
<!-- n5&#45;&gt;c9 -->
<g id="edge5" class="edge">
<title>n5:e&#45;&gt;c9:w</title>
<path fill="none" stroke="#e7298a" d="M71.76,-42.5C83.76,-42.5 89.01,-42.5 97.63,-42.5"/>
<polygon fill="#e7298a" stroke="#e7298a" points="97.76,-46 107.76,-42.5 97.76,-39 97.76,-46"/>
</g>
<!-- n6 -->
<g id="node4" class="node">
<title>n6</title>
<polygon fill="none" stroke="black" points="71.63,-92.04 71.63,-106.96 50.69,-117.5 21.07,-117.5 0.12,-106.96 0.12,-92.04 21.07,-81.5 50.69,-81.5 71.63,-92.04"/>
<text text-anchor="middle" x="35.88" y="-95.8" font-family="Times New Roman,serif" font-size="14.00">BUT1</text>
</g>
<!-- c10 -->
<g id="node6" class="node">
<title>c10</title>
<polygon fill="none" stroke="black" points="107.76,-80.5 107.76,-118.5 200.76,-118.5 200.76,-80.5 107.76,-80.5"/>
<text text-anchor="middle" x="120.76" y="-95.8" font-family="Times New Roman,serif" font-size="14.00">A</text>
<polyline fill="none" stroke="black" points="133.76,-80.5 133.76,-118.5 "/>
<text text-anchor="middle" x="154.26" y="-103.3" font-family="Times New Roman,serif" font-size="14.00">$1</text>
<text text-anchor="middle" x="154.26" y="-88.3" font-family="Times New Roman,serif" font-size="14.00">$not</text>
<polyline fill="none" stroke="black" points="174.76,-80.5 174.76,-118.5 "/>
<text text-anchor="middle" x="187.76" y="-95.8" font-family="Times New Roman,serif" font-size="14.00">Y</text>
</g>
<!-- n6&#45;&gt;c10 -->
<g id="edge6" class="edge">
<title>n6:e&#45;&gt;c10:w</title>
<path fill="none" stroke="#e7298a" d="M71.76,-99.5C83.76,-99.5 89.01,-99.5 97.63,-99.5"/>
<polygon fill="#e7298a" stroke="#e7298a" points="97.76,-103 107.76,-99.5 97.76,-96 97.76,-103"/>
</g>
<!-- x1 -->
<g id="node8" class="node">
<title>x1</title>
<path fill="none" stroke="black" d="M278.76,-60.5C278.76,-60.5 248.76,-60.5 248.76,-60.5 242.76,-60.5 236.76,-54.5 236.76,-48.5 236.76,-48.5 236.76,-36.5 236.76,-36.5 236.76,-30.5 242.76,-24.5 248.76,-24.5 248.76,-24.5 278.76,-24.5 278.76,-24.5 284.76,-24.5 290.76,-30.5 290.76,-36.5 290.76,-36.5 290.76,-48.5 290.76,-48.5 290.76,-54.5 284.76,-60.5 278.76,-60.5"/>
<text text-anchor="middle" x="263.76" y="-38.8" font-family="Times New Roman,serif" font-size="14.00">BUF</text>
</g>
<!-- c9&#45;&gt;x1 -->
<g id="edge1" class="edge">
<title>c9:e&#45;&gt;x1:w</title>
<path fill="none" stroke="#66a61e" d="M200.76,-42.5C212.76,-42.5 218.01,-42.5 226.63,-42.5"/>
<polygon fill="#66a61e" stroke="#66a61e" points="226.76,-46 236.76,-42.5 226.76,-39 226.76,-46"/>
</g>
<!-- x0 -->
<g id="node7" class="node">
<title>x0</title>
<path fill="none" stroke="black" d="M278.76,-117.5C278.76,-117.5 248.76,-117.5 248.76,-117.5 242.76,-117.5 236.76,-111.5 236.76,-105.5 236.76,-105.5 236.76,-93.5 236.76,-93.5 236.76,-87.5 242.76,-81.5 248.76,-81.5 248.76,-81.5 278.76,-81.5 278.76,-81.5 284.76,-81.5 290.76,-87.5 290.76,-93.5 290.76,-93.5 290.76,-105.5 290.76,-105.5 290.76,-111.5 284.76,-117.5 278.76,-117.5"/>
<text text-anchor="middle" x="263.76" y="-95.8" font-family="Times New Roman,serif" font-size="14.00">BUF</text>
</g>
<!-- c10&#45;&gt;x0 -->
<g id="edge2" class="edge">
<title>c10:e&#45;&gt;x0:w</title>
<path fill="none" stroke="#1b9e77" d="M200.76,-99.5C212.76,-99.5 218.01,-99.5 226.63,-99.5"/>
<polygon fill="#1b9e77" stroke="#1b9e77" points="226.76,-103 236.76,-99.5 226.76,-96 226.76,-103"/>
</g>
<!-- x0&#45;&gt;n4 -->
<g id="edge4" class="edge">
<title>x0:e&#45;&gt;n4:w</title>
<path fill="none" stroke="#7570b3" d="M290.76,-99.5C302.76,-99.5 308.01,-99.5 316.63,-99.5"/>
<polygon fill="#7570b3" stroke="#7570b3" points="316.76,-103 326.76,-99.5 316.76,-96 316.76,-103"/>
</g>
<!-- x1&#45;&gt;n3 -->
<g id="edge3" class="edge">
<title>x1:e&#45;&gt;n3:w</title>
<path fill="none" stroke="#1b9e77" d="M290.76,-42.5C302.76,-42.5 308.01,-42.5 316.63,-42.5"/>
<polygon fill="#1b9e77" stroke="#1b9e77" points="316.76,-46 326.76,-42.5 316.76,-39 316.76,-46"/>
</g>
</g>
</svg>
