<svg xmlns="http://www.w3.org/2000/svg" xmlns:xlink="http://www.w3.org/1999/xlink" xmlns:s="https://github.com/nturley/netlistsvg" width="1610" height="932">
  <style>svg {
    stroke:#000;
    fill:none;
  }
  text {
    fill:#000;
    stroke:none;
    font-size:10px;
    font-weight: bold;
    font-family: "Courier New", monospace;
  }
  .nodelabel {
    text-anchor: middle;
  }
  .inputPortLabel {
    text-anchor: end;
  }
  .splitjoinBody {
    fill:#000;
  }</style>
  <g s:type="add" transform="translate(1048.6666666666667,362)" s:width="25" s:height="25" id="cell_$add$top_module.v:73$5">
    <s:alias val="$add"/>
    <circle r="12.5" cx="12.5" cy="12.5" class="cell_$add$top_module.v:73$5"/>
    <line x1="7.5" x2="17.5" y1="12.5" y2="12.5" class="cell_$add$top_module.v:73$5"/>
    <line x1="12.5" x2="12.5" y1="7.5" y2="17.5" class="cell_$add$top_module.v:73$5"/>
    <g s:x="3" s:y="5" s:pid="A"/>
    <g s:x="3" s:y="20" s:pid="B"/>
    <g s:x="25" s:y="12.5" s:pid="Y"/>
  </g>
  <g s:type="generic" transform="translate(422,485)" s:width="30" s:height="40" id="cell_$auto$opt_reduce.cc:128:opt_mux$40">
    <text x="15" y="-4" class="nodelabel cell_$auto$opt_reduce.cc:128:opt_mux$40" s:attribute="ref">$reduce_or</text>
    <rect width="30" height="20" s:generic="body" class="cell_$auto$opt_reduce.cc:128:opt_mux$40"/>
    <g transform="translate(0,10)" s:x="0" s:y="10" s:pid="in0" id="port_$auto$opt_reduce.cc:128:opt_mux$40~A">
      <text x="-3" y="-4" class="inputPortLabel cell_$auto$opt_reduce.cc:128:opt_mux$40">A</text>
    </g>
    <g transform="translate(30,10)" s:x="30" s:y="10" s:pid="out0" id="port_$auto$opt_reduce.cc:128:opt_mux$40~Y">
      <text x="5" y="-4" style="fill:#000; stroke:none" class="cell_$auto$opt_reduce.cc:128:opt_mux$40">Y</text>
    </g>
  </g>
  <g s:type="generic" transform="translate(422,675)" s:width="30" s:height="40" id="cell_$auto$opt_reduce.cc:128:opt_mux$42">
    <text x="15" y="-4" class="nodelabel cell_$auto$opt_reduce.cc:128:opt_mux$42" s:attribute="ref">$reduce_or</text>
    <rect width="30" height="20" s:generic="body" class="cell_$auto$opt_reduce.cc:128:opt_mux$42"/>
    <g transform="translate(0,10)" s:x="0" s:y="10" s:pid="in0" id="port_$auto$opt_reduce.cc:128:opt_mux$42~A">
      <text x="-3" y="-4" class="inputPortLabel cell_$auto$opt_reduce.cc:128:opt_mux$42">A</text>
    </g>
    <g transform="translate(30,10)" s:x="30" s:y="10" s:pid="out0" id="port_$auto$opt_reduce.cc:128:opt_mux$42~Y">
      <text x="5" y="-4" style="fill:#000; stroke:none" class="cell_$auto$opt_reduce.cc:128:opt_mux$42">Y</text>
    </g>
  </g>
  <g s:type="generic" transform="translate(422,863.5)" s:width="30" s:height="40" id="cell_$auto$opt_reduce.cc:128:opt_mux$44">
    <text x="15" y="-4" class="nodelabel cell_$auto$opt_reduce.cc:128:opt_mux$44" s:attribute="ref">$reduce_or</text>
    <rect width="30" height="20" s:generic="body" class="cell_$auto$opt_reduce.cc:128:opt_mux$44"/>
    <g transform="translate(0,10)" s:x="0" s:y="10" s:pid="in0" id="port_$auto$opt_reduce.cc:128:opt_mux$44~A">
      <text x="-3" y="-4" class="inputPortLabel cell_$auto$opt_reduce.cc:128:opt_mux$44">A</text>
    </g>
    <g transform="translate(30,10)" s:x="30" s:y="10" s:pid="out0" id="port_$auto$opt_reduce.cc:128:opt_mux$44~Y">
      <text x="5" y="-4" style="fill:#000; stroke:none" class="cell_$auto$opt_reduce.cc:128:opt_mux$44">Y</text>
    </g>
  </g>
  <g s:type="eq" transform="translate(1558,884)" s:width="25" s:height="25" id="cell_$eq$top_module.v:29$2">
    <s:alias val="$eq"/>
    <circle r="12.5" cx="12.5" cy="12.5" class="cell_$eq$top_module.v:29$2"/>
    <line x1="7.5" x2="17.5" y1="10" y2="10" class="cell_$eq$top_module.v:29$2"/>
    <line x1="7.5" x2="17.5" y1="15" y2="15" class="cell_$eq$top_module.v:29$2"/>
    <g s:x="3" s:y="5" s:pid="A"/>
    <g s:x="3" s:y="20" s:pid="B"/>
    <g s:x="25" s:y="12.5" s:pid="Y"/>
  </g>
  <g s:type="lt" transform="translate(1048.6666666666667,660.5)" s:width="25" s:height="25" id="cell_$lt$top_module.v:73$4">
    <s:alias val="$lt"/>
    <circle r="12.5" cx="12.5" cy="12.5" class="cell_$lt$top_module.v:73$4"/>
    <line x1="7.5" x2="17.5" y1="12.5" y2="7.5" class="cell_$lt$top_module.v:73$4"/>
    <line x1="7.5" x2="17.5" y1="12.5" y2="17.5" class="cell_$lt$top_module.v:73$4"/>
    <g s:x="3" s:y="5" s:pid="A"/>
    <g s:x="3" s:y="20" s:pid="B"/>
    <g s:x="25" s:y="12.5" s:pid="Y"/>
  </g>
  <g s:type="dff" transform="translate(921,199)" s:width="30" s:height="40" id="cell_$procdff$38">
    <s:alias val="$dff"/>
    <s:alias val="$_DFF_"/>
    <s:alias val="$_DFF_P_"/>
    <rect width="30" height="40" x="0" y="0" class="cell_$procdff$38"/>
    <path d="M0,35 L5,30 L0,25" class="cell_$procdff$38"/>
    <g s:x="30" s:y="10" s:pid="Q"/>
    <g s:x="0" s:y="30" s:pid="CLK"/>
    <g s:x="0" s:y="30" s:pid="C"/>
    <g s:x="0" s:y="10" s:pid="D"/>
  </g>
  <g s:type="dff" transform="translate(1493,843)" s:width="30" s:height="40" id="cell_$procdff$39">
    <s:alias val="$dff"/>
    <s:alias val="$_DFF_"/>
    <s:alias val="$_DFF_P_"/>
    <rect width="30" height="40" x="0" y="0" class="cell_$procdff$39"/>
    <path d="M0,35 L5,30 L0,25" class="cell_$procdff$39"/>
    <g s:x="30" s:y="10" s:pid="Q"/>
    <g s:x="0" s:y="30" s:pid="CLK"/>
    <g s:x="0" s:y="30" s:pid="C"/>
    <g s:x="0" s:y="10" s:pid="D"/>
  </g>
  <g s:type="mux" transform="translate(1496.3333333333333,22)" s:width="20" s:height="40" id="cell_$procmux$11">
    <s:alias val="$pmux"/>
    <s:alias val="$mux"/>
    <s:alias val="$_MUX_"/>
    <path d="M0,0 L20,10 L20,30 L0,40 Z" class="cell_$procmux$11"/>
    <g s:x="0" s:y="10" s:pid="A"/>
    <g s:x="0" s:y="30" s:pid="B"/>
    <g s:x="10" s:y="35" s:pid="S"/>
    <g s:x="20" s:y="20" s:pid="Y"/>
  </g>
  <g s:type="eq" transform="translate(986,282.5)" s:width="25" s:height="25" id="cell_$procmux$12_CMP0">
    <s:alias val="$eq"/>
    <circle r="12.5" cx="12.5" cy="12.5" class="cell_$procmux$12_CMP0"/>
    <line x1="7.5" x2="17.5" y1="10" y2="10" class="cell_$procmux$12_CMP0"/>
    <line x1="7.5" x2="17.5" y1="15" y2="15" class="cell_$procmux$12_CMP0"/>
    <g s:x="3" s:y="5" s:pid="A"/>
    <g s:x="3" s:y="20" s:pid="B"/>
    <g s:x="25" s:y="12.5" s:pid="Y"/>
  </g>
  <g s:type="mux" transform="translate(1318,663)" s:width="20" s:height="40" id="cell_$procmux$13">
    <s:alias val="$pmux"/>
    <s:alias val="$mux"/>
    <s:alias val="$_MUX_"/>
    <path d="M0,0 L20,10 L20,30 L0,40 Z" class="cell_$procmux$13"/>
    <g s:x="0" s:y="10" s:pid="A"/>
    <g s:x="0" s:y="30" s:pid="B"/>
    <g s:x="10" s:y="35" s:pid="S"/>
    <g s:x="20" s:y="20" s:pid="Y"/>
  </g>
  <g s:type="eq" transform="translate(1152.3333333333333,748)" s:width="25" s:height="25" id="cell_$procmux$14_CMP0">
    <s:alias val="$eq"/>
    <circle r="12.5" cx="12.5" cy="12.5" class="cell_$procmux$14_CMP0"/>
    <line x1="7.5" x2="17.5" y1="10" y2="10" class="cell_$procmux$14_CMP0"/>
    <line x1="7.5" x2="17.5" y1="15" y2="15" class="cell_$procmux$14_CMP0"/>
    <g s:x="3" s:y="5" s:pid="A"/>
    <g s:x="3" s:y="20" s:pid="B"/>
    <g s:x="25" s:y="12.5" s:pid="Y"/>
  </g>
  <g s:type="generic" transform="translate(1133,818)" s:width="30" s:height="40" id="cell_$procmux$15_ANY">
    <text x="15" y="-4" class="nodelabel cell_$procmux$15_ANY" s:attribute="ref">$reduce_or</text>
    <rect width="30" height="20" s:generic="body" class="cell_$procmux$15_ANY"/>
    <g transform="translate(0,10)" s:x="0" s:y="10" s:pid="in0" id="port_$procmux$15_ANY~A">
      <text x="-3" y="-4" class="inputPortLabel cell_$procmux$15_ANY">A</text>
    </g>
    <g transform="translate(30,10)" s:x="30" s:y="10" s:pid="out0" id="port_$procmux$15_ANY~Y">
      <text x="5" y="-4" style="fill:#000; stroke:none" class="cell_$procmux$15_ANY">Y</text>
    </g>
  </g>
  <g s:type="eq" transform="translate(861,645.5)" s:width="25" s:height="25" id="cell_$procmux$15_CMP0">
    <s:alias val="$eq"/>
    <circle r="12.5" cx="12.5" cy="12.5" class="cell_$procmux$15_CMP0"/>
    <line x1="7.5" x2="17.5" y1="10" y2="10" class="cell_$procmux$15_CMP0"/>
    <line x1="7.5" x2="17.5" y1="15" y2="15" class="cell_$procmux$15_CMP0"/>
    <g s:x="3" s:y="5" s:pid="A"/>
    <g s:x="3" s:y="20" s:pid="B"/>
    <g s:x="25" s:y="12.5" s:pid="Y"/>
  </g>
  <g s:type="mux" transform="translate(1373,653)" s:width="20" s:height="40" id="cell_$procmux$16">
    <s:alias val="$pmux"/>
    <s:alias val="$mux"/>
    <s:alias val="$_MUX_"/>
    <path d="M0,0 L20,10 L20,30 L0,40 Z" class="cell_$procmux$16"/>
    <g s:x="0" s:y="10" s:pid="A"/>
    <g s:x="0" s:y="30" s:pid="B"/>
    <g s:x="10" s:y="35" s:pid="S"/>
    <g s:x="20" s:y="20" s:pid="Y"/>
  </g>
  <g s:type="mux" transform="translate(1434.6666666666667,663)" s:width="20" s:height="40" id="cell_$procmux$19">
    <s:alias val="$pmux"/>
    <s:alias val="$mux"/>
    <s:alias val="$_MUX_"/>
    <path d="M0,0 L20,10 L20,30 L0,40 Z" class="cell_$procmux$19"/>
    <g s:x="0" s:y="10" s:pid="A"/>
    <g s:x="0" s:y="30" s:pid="B"/>
    <g s:x="10" s:y="35" s:pid="S"/>
    <g s:x="20" s:y="20" s:pid="Y"/>
  </g>
  <g s:type="mux" transform="translate(797.6666666666666,108)" s:width="20" s:height="40" id="cell_$procmux$21">
    <s:alias val="$pmux"/>
    <s:alias val="$mux"/>
    <s:alias val="$_MUX_"/>
    <path d="M0,0 L20,10 L20,30 L0,40 Z" class="cell_$procmux$21"/>
    <g s:x="0" s:y="10" s:pid="A"/>
    <g s:x="0" s:y="30" s:pid="B"/>
    <g s:x="10" s:y="35" s:pid="S"/>
    <g s:x="20" s:y="20" s:pid="Y"/>
  </g>
  <g s:type="mux" transform="translate(862.6666666666666,179)" s:width="20" s:height="40" id="cell_$procmux$24">
    <s:alias val="$pmux"/>
    <s:alias val="$mux"/>
    <s:alias val="$_MUX_"/>
    <path d="M0,0 L20,10 L20,30 L0,40 Z" class="cell_$procmux$24"/>
    <g s:x="0" s:y="10" s:pid="A"/>
    <g s:x="0" s:y="30" s:pid="B"/>
    <g s:x="10" s:y="35" s:pid="S"/>
    <g s:x="20" s:y="20" s:pid="Y"/>
  </g>
  <g s:type="mux" transform="translate(729.3333333333334,118)" s:width="20" s:height="40" id="cell_$procmux$28">
    <s:alias val="$pmux"/>
    <s:alias val="$mux"/>
    <s:alias val="$_MUX_"/>
    <path d="M0,0 L20,10 L20,30 L0,40 Z" class="cell_$procmux$28"/>
    <g s:x="0" s:y="10" s:pid="A"/>
    <g s:x="0" s:y="30" s:pid="B"/>
    <g s:x="10" s:y="35" s:pid="S"/>
    <g s:x="20" s:y="20" s:pid="Y"/>
  </g>
  <g s:type="eq" transform="translate(286.6666666666667,393)" s:width="25" s:height="25" id="cell_$procmux$29_CMP0">
    <s:alias val="$eq"/>
    <circle r="12.5" cx="12.5" cy="12.5" class="cell_$procmux$29_CMP0"/>
    <line x1="7.5" x2="17.5" y1="10" y2="10" class="cell_$procmux$29_CMP0"/>
    <line x1="7.5" x2="17.5" y1="15" y2="15" class="cell_$procmux$29_CMP0"/>
    <g s:x="3" s:y="5" s:pid="A"/>
    <g s:x="3" s:y="20" s:pid="B"/>
    <g s:x="25" s:y="12.5" s:pid="Y"/>
  </g>
  <g s:type="eq" transform="translate(286.6666666666667,573)" s:width="25" s:height="25" id="cell_$procmux$30_CMP0">
    <s:alias val="$eq"/>
    <circle r="12.5" cx="12.5" cy="12.5" class="cell_$procmux$30_CMP0"/>
    <line x1="7.5" x2="17.5" y1="10" y2="10" class="cell_$procmux$30_CMP0"/>
    <line x1="7.5" x2="17.5" y1="15" y2="15" class="cell_$procmux$30_CMP0"/>
    <g s:x="3" s:y="5" s:pid="A"/>
    <g s:x="3" s:y="20" s:pid="B"/>
    <g s:x="25" s:y="12.5" s:pid="Y"/>
  </g>
  <g s:type="eq" transform="translate(479.3333333333333,786.5)" s:width="25" s:height="25" id="cell_$procmux$31_CMP0">
    <s:alias val="$eq"/>
    <circle r="12.5" cx="12.5" cy="12.5" class="cell_$procmux$31_CMP0"/>
    <line x1="7.5" x2="17.5" y1="10" y2="10" class="cell_$procmux$31_CMP0"/>
    <line x1="7.5" x2="17.5" y1="15" y2="15" class="cell_$procmux$31_CMP0"/>
    <g s:x="3" s:y="5" s:pid="A"/>
    <g s:x="3" s:y="20" s:pid="B"/>
    <g s:x="25" s:y="12.5" s:pid="Y"/>
  </g>
  <g s:type="eq" transform="translate(286.6666666666667,814)" s:width="25" s:height="25" id="cell_$procmux$32_CMP0">
    <s:alias val="$eq"/>
    <circle r="12.5" cx="12.5" cy="12.5" class="cell_$procmux$32_CMP0"/>
    <line x1="7.5" x2="17.5" y1="10" y2="10" class="cell_$procmux$32_CMP0"/>
    <line x1="7.5" x2="17.5" y1="15" y2="15" class="cell_$procmux$32_CMP0"/>
    <g s:x="3" s:y="5" s:pid="A"/>
    <g s:x="3" s:y="20" s:pid="B"/>
    <g s:x="25" s:y="12.5" s:pid="Y"/>
  </g>
  <g s:type="eq" transform="translate(286.6666666666667,643)" s:width="25" s:height="25" id="cell_$procmux$33_CMP0">
    <s:alias val="$eq"/>
    <circle r="12.5" cx="12.5" cy="12.5" class="cell_$procmux$33_CMP0"/>
    <line x1="7.5" x2="17.5" y1="10" y2="10" class="cell_$procmux$33_CMP0"/>
    <line x1="7.5" x2="17.5" y1="15" y2="15" class="cell_$procmux$33_CMP0"/>
    <g s:x="3" s:y="5" s:pid="A"/>
    <g s:x="3" s:y="20" s:pid="B"/>
    <g s:x="25" s:y="12.5" s:pid="Y"/>
  </g>
  <g s:type="eq" transform="translate(286.6666666666667,703)" s:width="25" s:height="25" id="cell_$procmux$34_CMP0">
    <s:alias val="$eq"/>
    <circle r="12.5" cx="12.5" cy="12.5" class="cell_$procmux$34_CMP0"/>
    <line x1="7.5" x2="17.5" y1="10" y2="10" class="cell_$procmux$34_CMP0"/>
    <line x1="7.5" x2="17.5" y1="15" y2="15" class="cell_$procmux$34_CMP0"/>
    <g s:x="3" s:y="5" s:pid="A"/>
    <g s:x="3" s:y="20" s:pid="B"/>
    <g s:x="25" s:y="12.5" s:pid="Y"/>
  </g>
  <g s:type="eq" transform="translate(286.6666666666667,453)" s:width="25" s:height="25" id="cell_$procmux$35_CMP0">
    <s:alias val="$eq"/>
    <circle r="12.5" cx="12.5" cy="12.5" class="cell_$procmux$35_CMP0"/>
    <line x1="7.5" x2="17.5" y1="10" y2="10" class="cell_$procmux$35_CMP0"/>
    <line x1="7.5" x2="17.5" y1="15" y2="15" class="cell_$procmux$35_CMP0"/>
    <g s:x="3" s:y="5" s:pid="A"/>
    <g s:x="3" s:y="20" s:pid="B"/>
    <g s:x="25" s:y="12.5" s:pid="Y"/>
  </g>
  <g s:type="eq" transform="translate(286.6666666666667,513)" s:width="25" s:height="25" id="cell_$procmux$36_CMP0">
    <s:alias val="$eq"/>
    <circle r="12.5" cx="12.5" cy="12.5" class="cell_$procmux$36_CMP0"/>
    <line x1="7.5" x2="17.5" y1="10" y2="10" class="cell_$procmux$36_CMP0"/>
    <line x1="7.5" x2="17.5" y1="15" y2="15" class="cell_$procmux$36_CMP0"/>
    <g s:x="3" s:y="5" s:pid="A"/>
    <g s:x="3" s:y="20" s:pid="B"/>
    <g s:x="25" s:y="12.5" s:pid="Y"/>
  </g>
  <g s:type="not" transform="translate(285,874)" s:width="30" s:height="20" id="cell_$procmux$37_CMP0">
    <s:alias val="$_NOT_"/>
    <s:alias val="$not"/>
    <s:alias val="$logic_not"/>
    <path d="M0,0 L0,20 L20,10 Z" class="cell_$procmux$37_CMP0"/>
    <circle cx="23" cy="10" r="3" class="cell_$procmux$37_CMP0"/>
    <g s:x="0" s:y="10" s:pid="A"/>
    <g s:x="25" s:y="10" s:pid="Y"/>
  </g>
  <g s:type="mux" transform="translate(1157.3333333333333,344.5)" s:width="20" s:height="40" id="cell_$ternary$top_module.v:73$6">
    <s:alias val="$pmux"/>
    <s:alias val="$mux"/>
    <s:alias val="$_MUX_"/>
    <path d="M0,0 L20,10 L20,30 L0,40 Z" class="cell_$ternary$top_module.v:73$6"/>
    <g s:x="0" s:y="10" s:pid="A"/>
    <g s:x="0" s:y="30" s:pid="B"/>
    <g s:x="10" s:y="35" s:pid="S"/>
    <g s:x="20" s:y="20" s:pid="Y"/>
  </g>
  <g s:type="inputExt" transform="translate(726,863)" s:width="30" s:height="20" id="cell_clk">
    <text x="15" y="-4" class="nodelabel cell_clk" s:attribute="ref">clk</text>
    <s:alias val="$_inputExt_"/>
    <path d="M0,0 L0,20 L15,20 L30,10 L15,0 Z" class="cell_clk"/>
    <g s:x="28" s:y="10" s:pid="Y"/>
  </g>
  <g s:type="inputExt" transform="translate(12,578)" s:width="30" s:height="20" id="cell_in">
    <text x="15" y="-4" class="nodelabel cell_in" s:attribute="ref">in</text>
    <s:alias val="$_inputExt_"/>
    <path d="M0,0 L0,20 L15,20 L30,10 L15,0 Z" class="cell_in"/>
    <g s:x="28" s:y="10" s:pid="Y"/>
  </g>
  <g s:type="inputExt" transform="translate(791,625.5)" s:width="30" s:height="20" id="cell_reset">
    <text x="15" y="-4" class="nodelabel cell_reset" s:attribute="ref">reset</text>
    <s:alias val="$_inputExt_"/>
    <path d="M0,0 L0,20 L15,20 L30,10 L15,0 Z" class="cell_reset"/>
    <g s:x="28" s:y="10" s:pid="Y"/>
  </g>
  <g s:type="outputExt" transform="translate(1558,32)" s:width="30" s:height="20" id="cell_done">
    <text x="15" y="-4" class="nodelabel cell_done" s:attribute="ref">done</text>
    <s:alias val="$_outputExt_"/>
    <path d="M30,0 L30,20 L15,20 L0,10 L15,0 Z" class="cell_done"/>
    <g s:x="0" s:y="10" s:pid="A"/>
  </g>
  <g s:type="constant" transform="translate(185,241.5)" s:width="30" s:height="20" id="cell_1">
    <text x="15" y="-4" class="nodelabel cell_1" s:attribute="ref">1</text>
    <s:alias val="$_constant_"/>
    <rect width="30" height="20" class="cell_1"/>
    <g s:x="30" s:y="10" s:pid="Y"/>
  </g>
  <g s:type="constant" transform="translate(185,759)" s:width="30" s:height="20" id="cell_1000">
    <text x="15" y="-4" class="nodelabel cell_1000" s:attribute="ref">0x8</text>
    <s:alias val="$_constant_"/>
    <rect width="30" height="20" class="cell_1000"/>
    <g s:x="30" s:y="10" s:pid="Y"/>
  </g>
  <g s:type="constant" transform="translate(1428,22)" s:width="30" s:height="20" id="cell_0">
    <text x="15" y="-4" class="nodelabel cell_0" s:attribute="ref">0</text>
    <s:alias val="$_constant_"/>
    <rect width="30" height="20" class="cell_0"/>
    <g s:x="30" s:y="10" s:pid="Y"/>
  </g>
  <g s:type="constant" transform="translate(185,292.5)" s:width="30" s:height="20" id="cell_11">
    <text x="15" y="-4" class="nodelabel cell_11" s:attribute="ref">11</text>
    <s:alias val="$_constant_"/>
    <rect width="30" height="20" class="cell_11"/>
    <g s:x="30" s:y="10" s:pid="Y"/>
  </g>
  <g s:type="constant" transform="translate(1133,693)" s:width="30" s:height="20" id="cell_00000">
    <text x="15" y="-4" class="nodelabel cell_00000" s:attribute="ref">0x0</text>
    <s:alias val="$_constant_"/>
    <rect width="30" height="20" class="cell_00000"/>
    <g s:x="30" s:y="10" s:pid="Y"/>
  </g>
  <g s:type="constant" transform="translate(1046,230)" s:width="30" s:height="20" id="cell_10">
    <text x="15" y="-4" class="nodelabel cell_10" s:attribute="ref">10</text>
    <s:alias val="$_constant_"/>
    <rect width="30" height="20" class="cell_10"/>
    <g s:x="30" s:y="10" s:pid="Y"/>
  </g>
  <g s:type="constant" transform="translate(791,272.5)" s:width="30" s:height="20" id="cell_001">
    <text x="15" y="-4" class="nodelabel cell_001" s:attribute="ref">001</text>
    <s:alias val="$_constant_"/>
    <rect width="30" height="20" class="cell_001"/>
    <g s:x="30" s:y="10" s:pid="Y"/>
  </g>
  <g s:type="constant" transform="translate(661,73)" s:width="30" s:height="20" id="cell_111">
    <text x="15" y="-4" class="nodelabel cell_111" s:attribute="ref">111</text>
    <s:alias val="$_constant_"/>
    <rect width="30" height="20" class="cell_111"/>
    <g s:x="30" s:y="10" s:pid="Y"/>
  </g>
  <g s:type="constant" transform="translate(661,138)" s:width="30" s:height="20" id="cell_000011010001">
    <text x="15" y="-4" class="nodelabel cell_000011010001" s:attribute="ref">0xd1</text>
    <s:alias val="$_constant_"/>
    <rect width="30" height="20" class="cell_000011010001"/>
    <g s:x="30" s:y="10" s:pid="Y"/>
  </g>
  <g s:type="constant" transform="translate(185,403)" s:width="30" s:height="20" id="cell_1011">
    <text x="15" y="-4" class="nodelabel cell_1011" s:attribute="ref">0xb</text>
    <s:alias val="$_constant_"/>
    <rect width="30" height="20" class="cell_1011"/>
    <g s:x="30" s:y="10" s:pid="Y"/>
  </g>
  <g s:type="constant" transform="translate(350,796.5)" s:width="30" s:height="20" id="cell_10101">
    <text x="15" y="-4" class="nodelabel cell_10101" s:attribute="ref">0x15</text>
    <s:alias val="$_constant_"/>
    <rect width="30" height="20" class="cell_10101"/>
    <g s:x="30" s:y="10" s:pid="Y"/>
  </g>
  <g s:type="constant" transform="translate(185,824)" s:width="30" s:height="20" id="cell_101">
    <text x="15" y="-4" class="nodelabel cell_101" s:attribute="ref">101</text>
    <s:alias val="$_constant_"/>
    <rect width="30" height="20" class="cell_101"/>
    <g s:x="30" s:y="10" s:pid="Y"/>
  </g>
  <g s:type="constant" transform="translate(185,653)" s:width="30" s:height="20" id="cell_100">
    <text x="15" y="-4" class="nodelabel cell_100" s:attribute="ref">100</text>
    <s:alias val="$_constant_"/>
    <rect width="30" height="20" class="cell_100"/>
    <g s:x="30" s:y="10" s:pid="Y"/>
  </g>
  <g s:type="constant" transform="translate(185,463)" s:width="30" s:height="20" id="cell_1001">
    <text x="15" y="-4" class="nodelabel cell_1001" s:attribute="ref">0x9</text>
    <s:alias val="$_constant_"/>
    <rect width="30" height="20" class="cell_1001"/>
    <g s:x="30" s:y="10" s:pid="Y"/>
  </g>
  <g s:type="join" transform="translate(360,475)" s:width="4" s:height="40" id="cell_$join$,16,17,18,">
    <rect width="5" height="60" class="splitjoinBody" s:generic="body"/>
    <s:alias val="$_join_"/>
    <g s:x="5" s:y="20" s:pid="out"/>
    <g transform="translate(0,10)" s:x="0" s:y="10" s:pid="in0">
      <text x="-3" y="-4" class="inputPortLabel">0</text>
    </g>
    <g transform="translate(0,30)" s:x="0" s:y="10" s:pid="in0">
      <text x="-3" y="-4" class="inputPortLabel">1</text>
    </g>
    <g transform="translate(0,50)" s:x="0" s:y="10" s:pid="in0">
      <text x="-3" y="-4" class="inputPortLabel">2</text>
    </g>
  </g>
  <g s:type="join" transform="translate(360,665)" s:width="4" s:height="40" id="cell_$join$,20,21,22,">
    <rect width="5" height="60" class="splitjoinBody" s:generic="body"/>
    <s:alias val="$_join_"/>
    <g s:x="5" s:y="20" s:pid="out"/>
    <g transform="translate(0,10)" s:x="0" s:y="10" s:pid="in0">
      <text x="-3" y="-4" class="inputPortLabel">0</text>
    </g>
    <g transform="translate(0,30)" s:x="0" s:y="10" s:pid="in0">
      <text x="-3" y="-4" class="inputPortLabel">1</text>
    </g>
    <g transform="translate(0,50)" s:x="0" s:y="10" s:pid="in0">
      <text x="-3" y="-4" class="inputPortLabel">2</text>
    </g>
  </g>
  <g s:type="join" transform="translate(361,853.5)" s:width="4" s:height="40" id="cell_$join$,24,25,">
    <rect width="5" height="40" class="splitjoinBody" s:generic="body"/>
    <s:alias val="$_join_"/>
    <g s:x="5" s:y="20" s:pid="out"/>
    <g transform="translate(0,10)" s:x="0" s:y="10" s:pid="in0">
      <text x="-3" y="-4" class="inputPortLabel">0</text>
    </g>
    <g transform="translate(0,30)" s:x="0" s:y="10" s:pid="in0">
      <text x="-3" y="-4" class="inputPortLabel">1</text>
    </g>
  </g>
  <g s:type="join" transform="translate(1277,672.5)" s:width="4" s:height="40" id="cell_$join$,41,42,43,44,45,79,80,81,82,83,">
    <rect width="5" height="40" class="splitjoinBody" s:generic="body"/>
    <s:alias val="$_join_"/>
    <g s:x="5" s:y="20" s:pid="out"/>
    <g transform="translate(0,10)" s:x="0" s:y="10" s:pid="in0">
      <text x="-3" y="-4" class="inputPortLabel">0:4</text>
    </g>
    <g transform="translate(0,30)" s:x="0" s:y="10" s:pid="in0">
      <text x="-3" y="-4" class="inputPortLabel">5:9</text>
    </g>
  </g>
  <g s:type="join" transform="translate(1271.3333333333333,798)" s:width="4" s:height="40" id="cell_$join$,46,47,">
    <rect width="5" height="40" class="splitjoinBody" s:generic="body"/>
    <s:alias val="$_join_"/>
    <g s:x="5" s:y="20" s:pid="out"/>
    <g transform="translate(0,10)" s:x="0" s:y="10" s:pid="in0">
      <text x="-3" y="-4" class="inputPortLabel">0</text>
    </g>
    <g transform="translate(0,30)" s:x="0" s:y="10" s:pid="in0">
      <text x="-3" y="-4" class="inputPortLabel">1</text>
    </g>
  </g>
  <g s:type="join" transform="translate(1057,287)" s:width="4" s:height="40" id="cell_$join$,40,53,">
    <rect width="5" height="40" class="splitjoinBody" s:generic="body"/>
    <s:alias val="$_join_"/>
    <g s:x="5" s:y="20" s:pid="out"/>
    <g transform="translate(0,10)" s:x="0" s:y="10" s:pid="in0">
      <text x="-3" y="-4" class="inputPortLabel">0</text>
    </g>
    <g transform="translate(0,30)" s:x="0" s:y="10" s:pid="in0">
      <text x="-3" y="-4" class="inputPortLabel">1</text>
    </g>
  </g>
  <g s:type="join" transform="translate(671,748.5)" s:width="4" s:height="40" id="cell_$join$,19,23,65,26,">
    <rect width="5" height="80" class="splitjoinBody" s:generic="body"/>
    <s:alias val="$_join_"/>
    <g s:x="5" s:y="20" s:pid="out"/>
    <g transform="translate(0,10)" s:x="0" s:y="10" s:pid="in0">
      <text x="-3" y="-4" class="inputPortLabel">0</text>
    </g>
    <g transform="translate(0,30)" s:x="0" s:y="10" s:pid="in0">
      <text x="-3" y="-4" class="inputPortLabel">1</text>
    </g>
    <g transform="translate(0,50)" s:x="0" s:y="10" s:pid="in0">
      <text x="-3" y="-4" class="inputPortLabel">2</text>
    </g>
    <g transform="translate(0,70)" s:x="0" s:y="10" s:pid="in0">
      <text x="-3" y="-4" class="inputPortLabel">3</text>
    </g>
  </g>
  <g s:type="join" transform="translate(96,557.5)" s:width="4" s:height="40" id="cell_$join$,32,33,34,3,">
    <rect width="5" height="40" class="splitjoinBody" s:generic="body"/>
    <s:alias val="$_join_"/>
    <g s:x="5" s:y="20" s:pid="out"/>
    <g transform="translate(0,10)" s:x="0" s:y="10" s:pid="in0">
      <text x="-3" y="-4" class="inputPortLabel">0:2</text>
    </g>
    <g transform="translate(0,30)" s:x="0" s:y="10" s:pid="in0">
      <text x="-3" y="-4" class="inputPortLabel">3</text>
    </g>
  </g>
  <g s:type="join" transform="translate(144,717.5)" s:width="4" s:height="40" id="cell_$join$,27,32,33,34,3,">
    <rect width="5" height="40" class="splitjoinBody" s:generic="body"/>
    <s:alias val="$_join_"/>
    <g s:x="5" s:y="20" s:pid="out"/>
    <g transform="translate(0,10)" s:x="0" s:y="10" s:pid="in0">
      <text x="-3" y="-4" class="inputPortLabel">0</text>
    </g>
    <g transform="translate(0,30)" s:x="0" s:y="10" s:pid="in0">
      <text x="-3" y="-4" class="inputPortLabel">1:4</text>
    </g>
  </g>
  <g s:type="split" transform="translate(191,589)" s:width="5" s:height="40" id="cell_$split$,27,32,33,34,3,">
    <rect width="5" height="20" class="splitjoinBody" s:generic="body"/>
    <s:alias val="$_split_"/>
    <g s:x="0" s:y="20" s:pid="in"/>
    <g transform="translate(4,10)" s:x="4" s:y="10" s:pid="out0">
      <text x="5" y="-4">0:3</text>
    </g>
  </g>
  <line x1="1523" x2="1533" y1="853" y2="853" class="net_6,7,8,9,10"/>
  <line x1="1533" x2="1533" y1="853" y2="893" class="net_6,7,8,9,10"/>
  <line x1="1533" x2="1021" y1="893" y2="893" class="net_6,7,8,9,10"/>
  <line x1="1021" x2="1021" y1="893" y2="367" class="net_6,7,8,9,10"/>
  <line x1="1021" x2="1051.6666666666667" y1="367" y2="367" class="net_6,7,8,9,10"/>
  <line x1="1523" x2="1533" y1="853" y2="853" class="net_6,7,8,9,10"/>
  <line x1="1533" x2="1533" y1="853" y2="889" class="net_6,7,8,9,10"/>
  <circle cx="1533" cy="889" r="2" style="fill:#000" class="net_6,7,8,9,10"/>
  <line x1="1533" x2="1561" y1="889" y2="889" class="net_6,7,8,9,10"/>
  <line x1="1523" x2="1533" y1="853" y2="853" class="net_6,7,8,9,10"/>
  <line x1="1533" x2="1533" y1="853" y2="893" class="net_6,7,8,9,10"/>
  <line x1="1533" x2="1021" y1="893" y2="893" class="net_6,7,8,9,10"/>
  <line x1="1021" x2="1021" y1="893" y2="665.5" class="net_6,7,8,9,10"/>
  <circle cx="1021" cy="665.5" r="2" style="fill:#000" class="net_6,7,8,9,10"/>
  <line x1="1021" x2="1051.6666666666667" y1="665.5" y2="665.5" class="net_6,7,8,9,10"/>
  <line x1="1523" x2="1533" y1="853" y2="853" class="net_6,7,8,9,10"/>
  <line x1="1533" x2="1533" y1="853" y2="334.5" class="net_6,7,8,9,10"/>
  <line x1="1533" x2="1293" y1="334.5" y2="334.5" class="net_6,7,8,9,10"/>
  <line x1="1293" x2="1293" y1="334.5" y2="673" class="net_6,7,8,9,10"/>
  <circle cx="1293" cy="334.5" r="2" style="fill:#000" class="net_6,7,8,9,10"/>
  <line x1="1293" x2="1318" y1="673" y2="673" class="net_6,7,8,9,10"/>
  <line x1="1523" x2="1533" y1="853" y2="853" class="net_6,7,8,9,10"/>
  <line x1="1533" x2="1533" y1="853" y2="893" class="net_6,7,8,9,10"/>
  <line x1="1533" x2="1348" y1="893" y2="893" class="net_6,7,8,9,10"/>
  <line x1="1348" x2="1348" y1="893" y2="663" class="net_6,7,8,9,10"/>
  <circle cx="1348" cy="893" r="2" style="fill:#000" class="net_6,7,8,9,10"/>
  <line x1="1348" x2="1373" y1="663" y2="663" class="net_6,7,8,9,10"/>
  <line x1="1523" x2="1533" y1="853" y2="853" class="net_6,7,8,9,10"/>
  <line x1="1533" x2="1533" y1="853" y2="334.5" class="net_6,7,8,9,10"/>
  <line x1="1533" x2="1403" y1="334.5" y2="334.5" class="net_6,7,8,9,10"/>
  <line x1="1403" x2="1403" y1="334.5" y2="693" class="net_6,7,8,9,10"/>
  <circle cx="1403" cy="334.5" r="2" style="fill:#000" class="net_6,7,8,9,10"/>
  <line x1="1403" x2="1434.6666666666667" y1="693" y2="693" class="net_6,7,8,9,10"/>
  <line x1="1523" x2="1533" y1="853" y2="853" class="net_6,7,8,9,10"/>
  <line x1="1533" x2="1533" y1="853" y2="334.5" class="net_6,7,8,9,10"/>
  <line x1="1533" x2="1116" y1="334.5" y2="334.5" class="net_6,7,8,9,10"/>
  <line x1="1116" x2="1116" y1="334.5" y2="354.5" class="net_6,7,8,9,10"/>
  <circle cx="1533" cy="853" r="2" style="fill:#000" class="net_6,7,8,9,10"/>
  <line x1="1116" x2="1157.3333333333333" y1="354.5" y2="354.5" class="net_6,7,8,9,10"/>
  <line x1="215" x2="245" y1="251.5" y2="251.5" class="net_66"/>
  <line x1="245" x2="245" y1="251.5" y2="382" class="net_66"/>
  <circle cx="245" cy="251.5" r="2" style="fill:#000" class="net_66"/>
  <circle cx="245" cy="382" r="2" style="fill:#000" class="net_66"/>
  <line x1="245" x2="1051.6666666666667" y1="382" y2="382" class="net_66"/>
  <line x1="215" x2="245" y1="251.5" y2="251.5" class="net_66"/>
  <line x1="245" x2="245" y1="251.5" y2="52" class="net_66"/>
  <line x1="245" x2="1496.3333333333333" y1="52" y2="52" class="net_66"/>
  <line x1="215" x2="245" y1="251.5" y2="251.5" class="net_66"/>
  <line x1="245" x2="245" y1="251.5" y2="382" class="net_66"/>
  <line x1="245" x2="841" y1="382" y2="382" class="net_66"/>
  <line x1="841" x2="841" y1="382" y2="665.5" class="net_66"/>
  <circle cx="841" cy="382" r="2" style="fill:#000" class="net_66"/>
  <line x1="841" x2="864" y1="665.5" y2="665.5" class="net_66"/>
  <line x1="215" x2="245" y1="251.5" y2="251.5" class="net_66"/>
  <line x1="245" x2="245" y1="251.5" y2="723" class="net_66"/>
  <line x1="245" x2="289.6666666666667" y1="723" y2="723" class="net_66"/>
  <line x1="366" x2="422" y1="495.5" y2="495.5" class="net_16,17,18"/>
  <line x1="366" x2="422" y1="685.5" y2="685.5" class="net_20,21,22"/>
  <line x1="367" x2="422" y1="874" y2="874" class="net_24,25"/>
  <line x1="215" x2="265" y1="769" y2="769" class="net_67,68,69,70"/>
  <line x1="265" x2="265" y1="769" y2="904" class="net_67,68,69,70"/>
  <circle cx="265" cy="769" r="2" style="fill:#000" class="net_67,68,69,70"/>
  <line x1="265" x2="1561" y1="904" y2="904" class="net_67,68,69,70"/>
  <line x1="215" x2="265" y1="769" y2="769" class="net_67,68,69,70"/>
  <line x1="265" x2="265" y1="769" y2="904" class="net_67,68,69,70"/>
  <line x1="265" x2="776" y1="904" y2="904" class="net_67,68,69,70"/>
  <line x1="776" x2="776" y1="904" y2="680.5" class="net_67,68,69,70"/>
  <circle cx="776" cy="904" r="2" style="fill:#000" class="net_67,68,69,70"/>
  <line x1="776" x2="1051.6666666666667" y1="680.5" y2="680.5" class="net_67,68,69,70"/>
  <line x1="215" x2="265" y1="769" y2="769" class="net_67,68,69,70"/>
  <line x1="265" x2="265" y1="769" y2="533" class="net_67,68,69,70"/>
  <line x1="265" x2="289.6666666666667" y1="533" y2="533" class="net_67,68,69,70"/>
  <line x1="754" x2="766" y1="873" y2="873" class="net_2"/>
  <line x1="766" x2="766" y1="873" y2="229" class="net_2"/>
  <circle cx="766" cy="873" r="2" style="fill:#000" class="net_2"/>
  <line x1="766" x2="921" y1="229" y2="229" class="net_2"/>
  <line x1="754" x2="1493" y1="873" y2="873" class="net_2"/>
  <line x1="754" x2="841" y1="873" y2="873" class="net_2"/>
  <line x1="841" x2="841" y1="873" y2="851" class="net_2"/>
  <line x1="841" x2="1383" y1="851" y2="851" class="net_2"/>
  <circle cx="841" cy="873" r="2" style="fill:#000" class="net_2"/>
  <line x1="1383" x2="1383" y1="851" y2="688" class="net_2"/>
  <line x1="754" x2="766" y1="873" y2="873" class="net_2"/>
  <line x1="766" x2="766" y1="873" y2="252.5" class="net_2"/>
  <line x1="766" x2="807.6666666666666" y1="252.5" y2="252.5" class="net_2"/>
  <circle cx="766" cy="252.5" r="2" style="fill:#000" class="net_2"/>
  <line x1="807.6666666666666" x2="807.6666666666666" y1="252.5" y2="143" class="net_2"/>
  <line x1="882.6666666666666" x2="896" y1="199" y2="199" class="net_29,30,31"/>
  <line x1="896" x2="896" y1="199" y2="209" class="net_29,30,31"/>
  <line x1="896" x2="921" y1="209" y2="209" class="net_29,30,31"/>
  <line x1="1454.6666666666667" x2="1468" y1="683" y2="683" class="net_35,36,37,38,39"/>
  <line x1="1468" x2="1468" y1="683" y2="853" class="net_35,36,37,38,39"/>
  <line x1="1468" x2="1493" y1="853" y2="853" class="net_35,36,37,38,39"/>
  <line x1="1458" x2="1496.3333333333333" y1="32" y2="32" class="net_75"/>
  <line x1="1011" x2="1021" y1="295" y2="295" class="net_40"/>
  <line x1="1021" x2="1021" y1="295" y2="198" class="net_40"/>
  <line x1="1021" x2="1506.3333333333333" y1="198" y2="198" class="net_40"/>
  <circle cx="1021" cy="295" r="2" style="fill:#000" class="net_40"/>
  <line x1="1506.3333333333333" x2="1506.3333333333333" y1="198" y2="57" class="net_40"/>
  <line x1="1011" x2="1021" y1="295" y2="295" class="net_40"/>
  <line x1="1021" x2="1021" y1="295" y2="297.5" class="net_40"/>
  <line x1="1021" x2="1057" y1="297.5" y2="297.5" class="net_40"/>
  <line x1="951" x2="961" y1="209" y2="209" class="net_32,33,34"/>
  <line x1="961" x2="961" y1="209" y2="287.5" class="net_32,33,34"/>
  <circle cx="961" cy="287.5" r="2" style="fill:#000" class="net_32,33,34"/>
  <line x1="961" x2="989" y1="287.5" y2="287.5" class="net_32,33,34"/>
  <line x1="951" x2="1106" y1="209" y2="209" class="net_32,33,34"/>
  <line x1="1106" x2="1106" y1="209" y2="753" class="net_32,33,34"/>
  <line x1="1106" x2="1155.3333333333333" y1="753" y2="753" class="net_32,33,34"/>
  <line x1="951" x2="961" y1="209" y2="209" class="net_32,33,34"/>
  <line x1="961" x2="961" y1="209" y2="292.5" class="net_32,33,34"/>
  <line x1="961" x2="851" y1="292.5" y2="292.5" class="net_32,33,34"/>
  <line x1="851" x2="851" y1="292.5" y2="650.5" class="net_32,33,34"/>
  <line x1="851" x2="864" y1="650.5" y2="650.5" class="net_32,33,34"/>
  <line x1="951" x2="961" y1="209" y2="209" class="net_32,33,34"/>
  <line x1="961" x2="961" y1="209" y2="168" class="net_32,33,34"/>
  <line x1="961" x2="841" y1="168" y2="168" class="net_32,33,34"/>
  <line x1="841" x2="841" y1="168" y2="98" class="net_32,33,34"/>
  <line x1="841" x2="776" y1="98" y2="98" class="net_32,33,34"/>
  <line x1="776" x2="776" y1="98" y2="118" class="net_32,33,34"/>
  <circle cx="841" cy="168" r="2" style="fill:#000" class="net_32,33,34"/>
  <circle cx="961" cy="209" r="2" style="fill:#000" class="net_32,33,34"/>
  <line x1="776" x2="797.6666666666666" y1="118" y2="118" class="net_32,33,34"/>
  <line x1="951" x2="961" y1="209" y2="209" class="net_32,33,34"/>
  <line x1="961" x2="961" y1="209" y2="168" class="net_32,33,34"/>
  <line x1="961" x2="52" y1="168" y2="168" class="net_32,33,34"/>
  <line x1="52" x2="52" y1="168" y2="568" class="net_32,33,34"/>
  <line x1="52" x2="96" y1="568" y2="568" class="net_32,33,34"/>
  <line x1="215" x2="989" y1="302.5" y2="302.5" class="net_77,78"/>
  <line x1="215" x2="225" y1="302.5" y2="302.5" class="net_77,78"/>
  <line x1="225" x2="225" y1="302.5" y2="593" class="net_77,78"/>
  <circle cx="225" cy="302.5" r="2" style="fill:#000" class="net_77,78"/>
  <line x1="225" x2="289.6666666666667" y1="593" y2="593" class="net_77,78"/>
  <line x1="1283" x2="1318" y1="693" y2="693" class="net_41,42,43,44,45,79,80,81,82,83"/>
  <line x1="1277.3333333333333" x2="1328" y1="818.5" y2="818.5" class="net_46,47"/>
  <line x1="1328" x2="1328" y1="818.5" y2="698" class="net_46,47"/>
  <line x1="1076" x2="1096" y1="240" y2="240" class="net_84,85"/>
  <line x1="1096" x2="1096" y1="240" y2="768" class="net_84,85"/>
  <line x1="1096" x2="1155.3333333333333" y1="768" y2="768" class="net_84,85"/>
  <line x1="1063" x2="1086" y1="307.5" y2="307.5" class="net_40,53"/>
  <line x1="1086" x2="1086" y1="307.5" y2="828.5" class="net_40,53"/>
  <line x1="1086" x2="1133" y1="828.5" y2="828.5" class="net_40,53"/>
  <line x1="1338" x2="1373" y1="683" y2="683" class="net_48,49,50,51,52"/>
  <line x1="1393" x2="1434.6666666666667" y1="673" y2="673" class="net_54,55,56,57,58"/>
  <line x1="819" x2="831" y1="635.5" y2="635.5" class="net_4"/>
  <line x1="831" x2="831" y1="635.5" y2="862" class="net_4"/>
  <line x1="831" x2="1444.6666666666667" y1="862" y2="862" class="net_4"/>
  <circle cx="831" cy="635.5" r="2" style="fill:#000" class="net_4"/>
  <line x1="1444.6666666666667" x2="1444.6666666666667" y1="862" y2="698" class="net_4"/>
  <line x1="819" x2="872.6666666666666" y1="635.5" y2="635.5" class="net_4"/>
  <line x1="872.6666666666666" x2="872.6666666666666" y1="635.5" y2="214" class="net_4"/>
  <line x1="749.3333333333334" x2="797.6666666666666" y1="138" y2="138" class="net_59,60,61"/>
  <line x1="817.6666666666666" x2="831" y1="128" y2="128" class="net_62,63,64"/>
  <line x1="831" x2="831" y1="128" y2="189" class="net_62,63,64"/>
  <line x1="831" x2="862.6666666666666" y1="189" y2="189" class="net_62,63,64"/>
  <line x1="821" x2="831" y1="282.5" y2="282.5" class="net_87,88,89"/>
  <line x1="831" x2="831" y1="282.5" y2="209" class="net_87,88,89"/>
  <line x1="831" x2="862.6666666666666" y1="209" y2="209" class="net_87,88,89"/>
  <line x1="691" x2="701" y1="83" y2="83" class="net_90,91,92"/>
  <line x1="701" x2="701" y1="83" y2="128" class="net_90,91,92"/>
  <line x1="701" x2="729.3333333333334" y1="128" y2="128" class="net_90,91,92"/>
  <line x1="691" x2="729.3333333333334" y1="148" y2="148" class="net_93,94,95,96,97,98,99,100,101,102,103,104"/>
  <line x1="677" x2="739.3333333333334" y1="769" y2="769" class="net_19,23,65,26"/>
  <line x1="739.3333333333334" x2="739.3333333333334" y1="769" y2="153" class="net_19,23,65,26"/>
  <line x1="102" x2="160" y1="578" y2="578" class="net_32,33,34,3"/>
  <line x1="160" x2="160" y1="578" y2="271.5" class="net_32,33,34,3"/>
  <line x1="160" x2="235" y1="271.5" y2="271.5" class="net_32,33,34,3"/>
  <line x1="235" x2="235" y1="271.5" y2="398" class="net_32,33,34,3"/>
  <circle cx="160" cy="578" r="2" style="fill:#000" class="net_32,33,34,3"/>
  <line x1="235" x2="289.6666666666667" y1="398" y2="398" class="net_32,33,34,3"/>
  <line x1="102" x2="289.6666666666667" y1="578" y2="578" class="net_32,33,34,3"/>
  <line x1="102" x2="160" y1="578" y2="578" class="net_32,33,34,3"/>
  <line x1="160" x2="160" y1="578" y2="622" class="net_32,33,34,3"/>
  <line x1="160" x2="225" y1="622" y2="622" class="net_32,33,34,3"/>
  <line x1="225" x2="225" y1="622" y2="708" class="net_32,33,34,3"/>
  <line x1="225" x2="289.6666666666667" y1="708" y2="708" class="net_32,33,34,3"/>
  <line x1="102" x2="160" y1="578" y2="578" class="net_32,33,34,3"/>
  <line x1="160" x2="160" y1="578" y2="442" class="net_32,33,34,3"/>
  <line x1="160" x2="255" y1="442" y2="442" class="net_32,33,34,3"/>
  <line x1="255" x2="255" y1="442" y2="458" class="net_32,33,34,3"/>
  <circle cx="160" cy="442" r="2" style="fill:#000" class="net_32,33,34,3"/>
  <line x1="255" x2="289.6666666666667" y1="458" y2="458" class="net_32,33,34,3"/>
  <line x1="102" x2="255" y1="578" y2="578" class="net_32,33,34,3"/>
  <line x1="255" x2="255" y1="578" y2="518" class="net_32,33,34,3"/>
  <circle cx="255" cy="578" r="2" style="fill:#000" class="net_32,33,34,3"/>
  <line x1="255" x2="289.6666666666667" y1="518" y2="518" class="net_32,33,34,3"/>
  <line x1="102" x2="122" y1="578" y2="578" class="net_32,33,34,3"/>
  <line x1="122" x2="122" y1="578" y2="884" class="net_32,33,34,3"/>
  <circle cx="122" cy="578" r="2" style="fill:#000" class="net_32,33,34,3"/>
  <line x1="122" x2="285" y1="884" y2="884" class="net_32,33,34,3"/>
  <line x1="102" x2="122" y1="578" y2="578" class="net_32,33,34,3"/>
  <line x1="122" x2="122" y1="578" y2="748" class="net_32,33,34,3"/>
  <circle cx="122" cy="748" r="2" style="fill:#000" class="net_32,33,34,3"/>
  <line x1="122" x2="144" y1="748" y2="748" class="net_32,33,34,3"/>
  <line x1="215" x2="289.6666666666667" y1="413" y2="413" class="net_105,106,107,108"/>
  <line x1="150" x2="390" y1="738" y2="738" class="net_27,32,33,34,3"/>
  <line x1="390" x2="390" y1="738" y2="791.5" class="net_27,32,33,34,3"/>
  <line x1="390" x2="482.3333333333333" y1="791.5" y2="791.5" class="net_27,32,33,34,3"/>
  <line x1="150" x2="275" y1="738" y2="738" class="net_27,32,33,34,3"/>
  <line x1="275" x2="275" y1="738" y2="819" class="net_27,32,33,34,3"/>
  <circle cx="275" cy="738" r="2" style="fill:#000" class="net_27,32,33,34,3"/>
  <line x1="275" x2="289.6666666666667" y1="819" y2="819" class="net_27,32,33,34,3"/>
  <line x1="150" x2="160" y1="738" y2="738" class="net_27,32,33,34,3"/>
  <line x1="160" x2="160" y1="738" y2="633" class="net_27,32,33,34,3"/>
  <line x1="160" x2="191.5" y1="633" y2="633" class="net_27,32,33,34,3"/>
  <circle cx="160" cy="738" r="2" style="fill:#000" class="net_27,32,33,34,3"/>
  <line x1="191.5" x2="191.5" y1="633" y2="610" class="net_27,32,33,34,3"/>
  <line x1="380" x2="482.3333333333333" y1="806.5" y2="806.5" class="net_111,112,113,114,115"/>
  <line x1="215" x2="289.6666666666667" y1="834" y2="834" class="net_116,117,118"/>
  <line x1="196" x2="275" y1="599.5" y2="599.5" class="net_27,32,33,34"/>
  <line x1="275" x2="275" y1="599.5" y2="648" class="net_27,32,33,34"/>
  <line x1="275" x2="289.6666666666667" y1="648" y2="648" class="net_27,32,33,34"/>
  <line x1="215" x2="289.6666666666667" y1="663" y2="663" class="net_119,120,121"/>
  <line x1="215" x2="289.6666666666667" y1="473" y2="473" class="net_123,124,125,126"/>
  <line x1="1073.6666666666667" x2="1157.3333333333333" y1="374.5" y2="374.5" class="net_11,12,13,14,15"/>
  <line x1="1073.6666666666667" x2="1167.3333333333333" y1="673" y2="673" class="net_28"/>
  <line x1="1167.3333333333333" x2="1167.3333333333333" y1="673" y2="379.5" class="net_28"/>
  <line x1="1516.3333333333333" x2="1558" y1="42" y2="42" class="net_5"/>
  <line x1="311.6666666666667" x2="335" y1="405.5" y2="405.5" class="net_16"/>
  <line x1="335" x2="335" y1="405.5" y2="485.5" class="net_16"/>
  <line x1="335" x2="360" y1="485.5" y2="485.5" class="net_16"/>
  <line x1="311.6666666666667" x2="325" y1="465.5" y2="465.5" class="net_17"/>
  <line x1="325" x2="325" y1="465.5" y2="505.5" class="net_17"/>
  <line x1="325" x2="360" y1="505.5" y2="505.5" class="net_17"/>
  <line x1="311.6666666666667" x2="360" y1="525.5" y2="525.5" class="net_18"/>
  <line x1="311.6666666666667" x2="335" y1="585.5" y2="585.5" class="net_20"/>
  <line x1="335" x2="335" y1="585.5" y2="675.5" class="net_20"/>
  <line x1="335" x2="360" y1="675.5" y2="675.5" class="net_20"/>
  <line x1="311.6666666666667" x2="325" y1="655.5" y2="655.5" class="net_21"/>
  <line x1="325" x2="325" y1="655.5" y2="695.5" class="net_21"/>
  <line x1="325" x2="360" y1="695.5" y2="695.5" class="net_21"/>
  <line x1="311.6666666666667" x2="360" y1="715.5" y2="715.5" class="net_22"/>
  <line x1="311.6666666666667" x2="325" y1="826.5" y2="826.5" class="net_24"/>
  <line x1="325" x2="325" y1="826.5" y2="864" class="net_24"/>
  <line x1="325" x2="361" y1="864" y2="864" class="net_24"/>
  <line x1="310" x2="361" y1="884" y2="884" class="net_25"/>
  <line x1="1177.3333333333333" x2="1233" y1="364.5" y2="364.5" class="net_41,42,43,44,45"/>
  <line x1="1233" x2="1233" y1="364.5" y2="683" class="net_41,42,43,44,45"/>
  <line x1="1233" x2="1277" y1="683" y2="683" class="net_41,42,43,44,45"/>
  <line x1="1163" x2="1277" y1="703" y2="703" class="net_79,80,81,82,83"/>
  <line x1="1177.3333333333333" x2="1233" y1="760.5" y2="760.5" class="net_46"/>
  <line x1="1233" x2="1233" y1="760.5" y2="808.5" class="net_46"/>
  <line x1="1233" x2="1271.3333333333333" y1="808.5" y2="808.5" class="net_46"/>
  <line x1="1164" x2="1271.3333333333333" y1="828.5" y2="828.5" class="net_47"/>
  <line x1="886" x2="896" y1="658" y2="658" class="net_53"/>
  <line x1="896" x2="896" y1="658" y2="317.5" class="net_53"/>
  <line x1="896" x2="1057" y1="317.5" y2="317.5" class="net_53"/>
  <line x1="453" x2="646" y1="495.5" y2="495.5" class="net_19"/>
  <line x1="646" x2="646" y1="495.5" y2="759" class="net_19"/>
  <line x1="646" x2="671" y1="759" y2="759" class="net_19"/>
  <line x1="453" x2="636" y1="685.5" y2="685.5" class="net_23"/>
  <line x1="636" x2="636" y1="685.5" y2="779" class="net_23"/>
  <line x1="636" x2="671" y1="779" y2="779" class="net_23"/>
  <line x1="504.3333333333333" x2="671" y1="799" y2="799" class="net_65"/>
  <line x1="453" x2="671.5" y1="874" y2="874" class="net_26"/>
  <line x1="671.5" x2="671.5" y1="874" y2="819.5" class="net_26"/>
  <line x1="40" x2="96" y1="588" y2="588" class="net_3"/>
  <line x1="1583" x2="1598" y1="896.5" y2="896.5" class="net_27"/>
  <line x1="1598" x2="1598" y1="896.5" y2="919" class="net_27"/>
  <line x1="1598" x2="112" y1="919" y2="919" class="net_27"/>
  <line x1="112" x2="112" y1="919" y2="728" class="net_27"/>
  <line x1="112" x2="144" y1="728" y2="728" class="net_27"/>
</svg>
