<?xml version="1.0" encoding="UTF-8" standalone="no"?>
<!DOCTYPE svg PUBLIC "-//W3C//DTD SVG 1.1//EN"
 "http://www.w3.org/Graphics/SVG/1.1/DTD/svg11.dtd">
<!-- Generated by graphviz version 4.0.0 (20220529.0937)
 -->
<!-- Title: finite_state_machine Pages: 1 -->
<svg width="748pt" height="292pt"
 viewBox="0.00 0.00 748.47 291.72" xmlns="http://www.w3.org/2000/svg" xmlns:xlink="http://www.w3.org/1999/xlink">
<g id="graph0" class="graph" transform="scale(1 1) rotate(0) translate(4 287.72)">
<title>finite_state_machine</title>
<polygon fill="white" stroke="transparent" points="-4,4 -4,-287.72 744.47,-287.72 744.47,4 -4,4"/>
<!-- RESET -->
<g id="node1" class="node">
<title>RESET</title>
<ellipse fill="black" stroke="black" cx="1.8" cy="-94.03" rx="1.8" ry="1.8"/>
</g>
<!-- START -->
<g id="node4" class="node">
<title>START</title>
<ellipse fill="none" stroke="black" cx="140.85" cy="-94.03" rx="74.49" ry="74.49"/>
<text text-anchor="middle" x="140.85" y="-105.33" font-family="Times New Roman,serif" font-size="14.00">START</text>
<text text-anchor="middle" x="140.85" y="-90.33" font-family="Times New Roman,serif" font-size="14.00">bits=0</text>
<text text-anchor="middle" x="140.85" y="-75.33" font-family="Times New Roman,serif" font-size="14.00">wait for start bit</text>
</g>
<!-- RESET&#45;&gt;START -->
<g id="edge1" class="edge">
<title>RESET&#45;&gt;START</title>
<path fill="none" stroke="black" d="M3.68,-94.03C8.32,-94.03 30.87,-94.03 56.32,-94.03"/>
<polygon fill="black" stroke="black" points="56.58,-97.53 66.58,-94.03 56.58,-90.53 56.58,-97.53"/>
<text text-anchor="middle" x="35.1" y="-97.83" font-family="Times New Roman,serif" font-size="14.00">reset</text>
</g>
<!-- IDLE -->
<g id="node2" class="node">
<title>IDLE</title>
<ellipse fill="none" stroke="black" cx="681.78" cy="-192.03" rx="58.88" ry="58.88"/>
<text text-anchor="middle" x="681.78" y="-195.83" font-family="Times New Roman,serif" font-size="14.00">IDLE</text>
<text text-anchor="middle" x="681.78" y="-180.83" font-family="Times New Roman,serif" font-size="14.00">wait for idle</text>
</g>
<!-- IDLE&#45;&gt;IDLE -->
<g id="edge2" class="edge">
<title>IDLE&#45;&gt;IDLE</title>
<path fill="none" stroke="black" d="M651.1,-242.18C652.02,-257.1 662.24,-268.72 681.78,-268.72 696.74,-268.72 706.24,-261.91 710.29,-252.02"/>
<polygon fill="black" stroke="black" points="713.72,-252.7 712.46,-242.18 706.89,-251.19 713.72,-252.7"/>
<text text-anchor="middle" x="681.78" y="-272.52" font-family="Times New Roman,serif" font-size="14.00">in==0</text>
</g>
<!-- IDLE&#45;&gt;START -->
<g id="edge3" class="edge">
<title>IDLE&#45;&gt;START</title>
<path fill="none" stroke="black" d="M623.82,-202.65C545.48,-214.94 401,-229.18 285.09,-193.03 256.31,-184.05 228.21,-167.04 204.63,-149.62"/>
<polygon fill="black" stroke="black" points="206.57,-146.7 196.49,-143.45 202.35,-152.28 206.57,-146.7"/>
<text text-anchor="middle" x="348.59" y="-217.83" font-family="Times New Roman,serif" font-size="14.00">in==1</text>
</g>
<!-- STOP -->
<g id="node3" class="node">
<title>STOP</title>
<ellipse fill="none" stroke="black" cx="681.78" cy="-56.03" rx="41.94" ry="41.94"/>
<text text-anchor="middle" x="681.78" y="-67.33" font-family="Times New Roman,serif" font-size="14.00">STOP</text>
<text text-anchor="middle" x="681.78" y="-52.33" font-family="Times New Roman,serif" font-size="14.00">done=1</text>
<text text-anchor="middle" x="681.78" y="-37.33" font-family="Times New Roman,serif" font-size="14.00">bits=0</text>
</g>
<!-- STOP&#45;&gt;START -->
<g id="edge10" class="edge">
<title>STOP&#45;&gt;START</title>
<path fill="none" stroke="black" d="M642.17,-42.71C570.58,-20.01 412.9,20.61 285.09,-13.03 259.24,-19.83 233.14,-32.48 210.44,-45.8"/>
<polygon fill="black" stroke="black" points="208.35,-42.97 201.59,-51.12 211.96,-48.97 208.35,-42.97"/>
<text text-anchor="middle" x="348.59" y="-16.83" font-family="Times New Roman,serif" font-size="14.00">in==1 (start bit wrong)</text>
</g>
<!-- DATA -->
<g id="node5" class="node">
<title>DATA</title>
<ellipse fill="none" stroke="black" cx="348.59" cy="-94.03" rx="56.64" ry="56.64"/>
<text text-anchor="middle" x="348.59" y="-105.33" font-family="Times New Roman,serif" font-size="14.00">DATA</text>
<text text-anchor="middle" x="348.59" y="-90.33" font-family="Times New Roman,serif" font-size="14.00">bits++</text>
<text text-anchor="middle" x="348.59" y="-75.33" font-family="Times New Roman,serif" font-size="14.00">receive bits</text>
</g>
<!-- STOP&#45;&gt;DATA -->
<g id="edge9" class="edge">
<title>STOP&#45;&gt;DATA</title>
<path fill="none" stroke="black" d="M640.16,-49.51C590.01,-42.83 502.47,-35.66 430.09,-53.03 422.29,-54.9 414.38,-57.66 406.73,-60.89"/>
<polygon fill="black" stroke="black" points="405.24,-57.72 397.55,-65.01 408.11,-64.1 405.24,-57.72"/>
<text text-anchor="middle" x="517.59" y="-56.83" font-family="Times New Roman,serif" font-size="14.00">in==0</text>
</g>
<!-- START&#45;&gt;START -->
<g id="edge4" class="edge">
<title>START&#45;&gt;START</title>
<path fill="none" stroke="black" d="M122.8,-166.35C125.39,-178.16 131.4,-186.27 140.85,-186.27 147.34,-186.27 152.21,-182.44 155.46,-176.2"/>
<polygon fill="black" stroke="black" points="158.91,-176.94 158.89,-166.35 152.3,-174.64 158.91,-176.94"/>
<text text-anchor="middle" x="140.85" y="-190.07" font-family="Times New Roman,serif" font-size="14.00">in==1</text>
</g>
<!-- START&#45;&gt;DATA -->
<g id="edge5" class="edge">
<title>START&#45;&gt;DATA</title>
<path fill="none" stroke="black" d="M215.25,-94.03C236.97,-94.03 260.61,-94.03 281.81,-94.03"/>
<polygon fill="black" stroke="black" points="282.01,-97.53 292.01,-94.03 282.01,-90.53 282.01,-97.53"/>
<text text-anchor="middle" x="250.09" y="-97.83" font-family="Times New Roman,serif" font-size="14.00">in==0</text>
</g>
<!-- DATA&#45;&gt;IDLE -->
<g id="edge8" class="edge">
<title>DATA&#45;&gt;IDLE</title>
<path fill="none" stroke="black" d="M403.17,-109.88C461.13,-127.03 553.54,-154.37 615.65,-172.75"/>
<polygon fill="black" stroke="black" points="614.76,-176.14 625.35,-175.62 616.75,-169.43 614.76,-176.14"/>
<text text-anchor="middle" x="517.59" y="-171.83" font-family="Times New Roman,serif" font-size="14.00">bits==8,in==0 (stop bit wrong)</text>
</g>
<!-- DATA&#45;&gt;STOP -->
<g id="edge7" class="edge">
<title>DATA&#45;&gt;STOP</title>
<path fill="none" stroke="black" d="M405.14,-91.21C457.05,-88.11 536.61,-82.17 605.09,-72.03 613.5,-70.78 622.37,-69.17 630.96,-67.46"/>
<polygon fill="black" stroke="black" points="631.79,-70.86 640.88,-65.42 630.38,-64.01 631.79,-70.86"/>
<text text-anchor="middle" x="517.59" y="-92.83" font-family="Times New Roman,serif" font-size="14.00">bits==8,in==1</text>
</g>
<!-- DATA&#45;&gt;DATA -->
<g id="edge6" class="edge">
<title>DATA&#45;&gt;DATA</title>
<path fill="none" stroke="black" d="M330.71,-147.99C332.39,-159.91 338.35,-168.59 348.59,-168.59 355.63,-168.59 360.65,-164.49 363.64,-158.05"/>
<polygon fill="black" stroke="black" points="367.14,-158.56 366.47,-147.99 360.4,-156.66 367.14,-158.56"/>
<text text-anchor="middle" x="348.59" y="-172.39" font-family="Times New Roman,serif" font-size="14.00">bits&lt;8</text>
</g>
</g>
</svg>
