<?xml version="1.0" encoding="UTF-8" standalone="no"?>
<!DOCTYPE svg PUBLIC "-//W3C//DTD SVG 1.1//EN"
 "http://www.w3.org/Graphics/SVG/1.1/DTD/svg11.dtd">
<!-- Generated by graphviz version 4.0.0 (20220529.0937)
 -->
<!-- Title: top_module Pages: 1 -->
<svg width="1931pt" height="949pt"
 viewBox="0.00 0.00 1930.80 949.00" xmlns="http://www.w3.org/2000/svg" xmlns:xlink="http://www.w3.org/1999/xlink">
<g id="graph0" class="graph" transform="scale(1 1) rotate(0) translate(4 945)">
<title>top_module</title>
<polygon fill="white" stroke="transparent" points="-4,4 -4,-945 1926.8,-945 1926.8,4 -4,4"/>
<text text-anchor="middle" x="961.4" y="-7.8" font-family="Times New Roman,serif" font-size="14.00">top_module</text>
<!-- n12 -->
<g id="node1" class="node">
<title>n12</title>
<polygon fill="none" stroke="black" points="57.25,-872.54 57.25,-887.46 41.43,-898 19.07,-898 3.25,-887.46 3.25,-872.54 19.07,-862 41.43,-862 57.25,-872.54"/>
<text text-anchor="middle" x="30.25" y="-876.3" font-family="Times New Roman,serif" font-size="14.00">clk</text>
</g>
<!-- c25 -->
<g id="node11" class="node">
<title>c25</title>
<polygon fill="none" stroke="black" points="97.5,-634 97.5,-680 208.5,-680 208.5,-634 97.5,-634"/>
<text text-anchor="middle" x="119.5" y="-664.8" font-family="Times New Roman,serif" font-size="14.00">CLK</text>
<polyline fill="none" stroke="black" points="97.5,-657 141.5,-657 "/>
<text text-anchor="middle" x="119.5" y="-641.8" font-family="Times New Roman,serif" font-size="14.00">D</text>
<polyline fill="none" stroke="black" points="141.5,-634 141.5,-680 "/>
<text text-anchor="middle" x="161.5" y="-660.8" font-family="Times New Roman,serif" font-size="14.00">$20</text>
<text text-anchor="middle" x="161.5" y="-645.8" font-family="Times New Roman,serif" font-size="14.00">$dff</text>
<polyline fill="none" stroke="black" points="181.5,-634 181.5,-680 "/>
<text text-anchor="middle" x="195" y="-653.3" font-family="Times New Roman,serif" font-size="14.00">Q</text>
</g>
<!-- n12&#45;&gt;c25 -->
<g id="edge11" class="edge">
<title>n12:e&#45;&gt;c25:w</title>
<path fill="none" stroke="#e6ab02" d="M58.25,-880C149.91,-880 13.57,-685.16 87.42,-669.94"/>
<polygon fill="#e6ab02" stroke="#e6ab02" points="87.87,-673.41 97.5,-669 87.22,-666.44 87.87,-673.41"/>
</g>
<!-- c38 -->
<g id="node38" class="node">
<title>c38</title>
<polygon fill="none" stroke="black" points="1584.9,-828.5 1584.9,-897.5 1683.9,-897.5 1683.9,-828.5 1584.9,-828.5"/>
<text text-anchor="middle" x="1597.9" y="-882.3" font-family="Times New Roman,serif" font-size="14.00">A</text>
<polyline fill="none" stroke="black" points="1584.9,-874.5 1610.9,-874.5 "/>
<text text-anchor="middle" x="1597.9" y="-859.3" font-family="Times New Roman,serif" font-size="14.00">B</text>
<polyline fill="none" stroke="black" points="1584.9,-851.5 1610.9,-851.5 "/>
<text text-anchor="middle" x="1597.9" y="-836.3" font-family="Times New Roman,serif" font-size="14.00">S</text>
<polyline fill="none" stroke="black" points="1610.9,-828.5 1610.9,-897.5 "/>
<text text-anchor="middle" x="1634.4" y="-866.8" font-family="Times New Roman,serif" font-size="14.00">$8</text>
<text text-anchor="middle" x="1634.4" y="-851.8" font-family="Times New Roman,serif" font-size="14.00">$mux</text>
<polyline fill="none" stroke="black" points="1657.9,-828.5 1657.9,-897.5 "/>
<text text-anchor="middle" x="1670.9" y="-859.3" font-family="Times New Roman,serif" font-size="14.00">Y</text>
</g>
<!-- n12&#45;&gt;c38 -->
<g id="edge12" class="edge">
<title>n12:e&#45;&gt;c38:w</title>
<path fill="none" stroke="#e6ab02" d="M58.25,-880C107.96,-880 102.29,-941 152,-941 152,-941 152,-941 861.71,-941 996.55,-941 1030.05,-929.82 1163.7,-912 1348.55,-887.36 1393.38,-841.69 1574.75,-840.05"/>
<polygon fill="#e6ab02" stroke="#e6ab02" points="1574.91,-843.54 1584.9,-840 1574.88,-836.54 1574.91,-843.54"/>
</g>
<!-- n13 -->
<g id="node2" class="node">
<title>n13</title>
<polygon fill="none" stroke="black" points="1922.76,-105.54 1922.76,-120.46 1904.65,-131 1879.05,-131 1860.94,-120.46 1860.94,-105.54 1879.05,-95 1904.65,-95 1922.76,-105.54"/>
<text text-anchor="middle" x="1891.85" y="-109.3" font-family="Times New Roman,serif" font-size="14.00">done</text>
</g>
<!-- n14 -->
<g id="node3" class="node">
<title>n14</title>
<polygon fill="none" stroke="black" points="57.25,-540.54 57.25,-555.46 41.43,-566 19.07,-566 3.25,-555.46 3.25,-540.54 19.07,-530 41.43,-530 57.25,-540.54"/>
<text text-anchor="middle" x="30.25" y="-544.3" font-family="Times New Roman,serif" font-size="14.00">in</text>
</g>
<!-- x6 -->
<g id="node20" class="node">
<title>x6</title>
<path fill="none" stroke="black" d="M453.21,-573C453.21,-573 491.21,-573 491.21,-573 497.21,-573 503.21,-579 503.21,-585 503.21,-585 503.21,-607 503.21,-607 503.21,-613 497.21,-619 491.21,-619 491.21,-619 453.21,-619 453.21,-619 447.21,-619 441.21,-613 441.21,-607 441.21,-607 441.21,-585 441.21,-585 441.21,-579 447.21,-573 453.21,-573"/>
<text text-anchor="middle" x="472.21" y="-603.8" font-family="Times New Roman,serif" font-size="14.00">3:3 &#45; 2:2</text>
<polyline fill="none" stroke="black" points="441.21,-596 503.21,-596 "/>
<text text-anchor="middle" x="472.21" y="-580.8" font-family="Times New Roman,serif" font-size="14.00">1:0 &#45; 1:0</text>
</g>
<!-- n14&#45;&gt;x6 -->
<g id="edge16" class="edge">
<title>n14:e&#45;&gt;x6:w</title>
<path fill="none" stroke="#d95f02" d="M58.25,-548C226.57,-548 266.74,-605.56 429.8,-607.93"/>
<polygon fill="#d95f02" stroke="#d95f02" points="430.18,-611.43 440.21,-608 430.23,-604.43 430.18,-611.43"/>
</g>
<!-- x8 -->
<g id="node23" class="node">
<title>x8</title>
<path fill="none" stroke="black" d="M453.21,-388C453.21,-388 491.21,-388 491.21,-388 497.21,-388 503.21,-394 503.21,-400 503.21,-400 503.21,-422 503.21,-422 503.21,-428 497.21,-434 491.21,-434 491.21,-434 453.21,-434 453.21,-434 447.21,-434 441.21,-428 441.21,-422 441.21,-422 441.21,-400 441.21,-400 441.21,-394 447.21,-388 453.21,-388"/>
<text text-anchor="middle" x="472.21" y="-418.8" font-family="Times New Roman,serif" font-size="14.00">3:3 &#45; 2:2</text>
<polyline fill="none" stroke="black" points="441.21,-411 503.21,-411 "/>
<text text-anchor="middle" x="472.21" y="-395.8" font-family="Times New Roman,serif" font-size="14.00">1:0 &#45; 1:0</text>
</g>
<!-- n14&#45;&gt;x8 -->
<g id="edge17" class="edge">
<title>n14:e&#45;&gt;x8:w</title>
<path fill="none" stroke="#d95f02" d="M58.25,-548C81.62,-548 77.16,-524.52 97.5,-513 231.59,-437.07 280.62,-423.56 430.21,-423.02"/>
<polygon fill="#d95f02" stroke="#d95f02" points="430.22,-426.52 440.21,-423 430.2,-419.52 430.22,-426.52"/>
</g>
<!-- x12 -->
<g id="node30" class="node">
<title>x12</title>
<path fill="none" stroke="black" d="M453.21,-693C453.21,-693 491.21,-693 491.21,-693 497.21,-693 503.21,-699 503.21,-705 503.21,-705 503.21,-727 503.21,-727 503.21,-733 497.21,-739 491.21,-739 491.21,-739 453.21,-739 453.21,-739 447.21,-739 441.21,-733 441.21,-727 441.21,-727 441.21,-705 441.21,-705 441.21,-699 447.21,-693 453.21,-693"/>
<text text-anchor="middle" x="472.21" y="-723.8" font-family="Times New Roman,serif" font-size="14.00">3:3 &#45; 2:2</text>
<polyline fill="none" stroke="black" points="441.21,-716 503.21,-716 "/>
<text text-anchor="middle" x="472.21" y="-700.8" font-family="Times New Roman,serif" font-size="14.00">1:0 &#45; 1:0</text>
</g>
<!-- n14&#45;&gt;x12 -->
<g id="edge14" class="edge">
<title>n14:e&#45;&gt;x12:w</title>
<path fill="none" stroke="#d95f02" d="M58.25,-548C90.99,-548 72.58,-668.76 97.5,-690 100.79,-692.8 373.29,-721.49 429.99,-727.06"/>
<polygon fill="#d95f02" stroke="#d95f02" points="429.93,-730.57 440.21,-728 430.57,-723.6 429.93,-730.57"/>
</g>
<!-- x14 -->
<g id="node32" class="node">
<title>x14</title>
<path fill="none" stroke="black" d="M453.21,-453C453.21,-453 491.21,-453 491.21,-453 497.21,-453 503.21,-459 503.21,-465 503.21,-465 503.21,-487 503.21,-487 503.21,-493 497.21,-499 491.21,-499 491.21,-499 453.21,-499 453.21,-499 447.21,-499 441.21,-493 441.21,-487 441.21,-487 441.21,-465 441.21,-465 441.21,-459 447.21,-453 453.21,-453"/>
<text text-anchor="middle" x="472.21" y="-483.8" font-family="Times New Roman,serif" font-size="14.00">3:3 &#45; 2:2</text>
<polyline fill="none" stroke="black" points="441.21,-476 503.21,-476 "/>
<text text-anchor="middle" x="472.21" y="-460.8" font-family="Times New Roman,serif" font-size="14.00">1:0 &#45; 1:0</text>
</g>
<!-- n14&#45;&gt;x14 -->
<g id="edge15" class="edge">
<title>n14:e&#45;&gt;x14:w</title>
<path fill="none" stroke="#d95f02" d="M58.25,-548C67.42,-548 69.47,-545.59 78.5,-544 235.27,-516.39 275.81,-489.19 429.89,-488.04"/>
<polygon fill="#d95f02" stroke="#d95f02" points="430.22,-491.54 440.21,-488 430.2,-484.54 430.22,-491.54"/>
</g>
<!-- n15 -->
<g id="node4" class="node">
<title>n15</title>
<polygon fill="none" stroke="black" points="1457.8,-826 1390.6,-808 1457.8,-790 1525,-808 1457.8,-826"/>
<text text-anchor="middle" x="1457.8" y="-804.3" font-family="Times New Roman,serif" font-size="14.00">next_state</text>
</g>
<!-- n15&#45;&gt;c38 -->
<g id="edge19" class="edge">
<title>n15:e&#45;&gt;c38:w</title>
<path fill="none" stroke="#d95f02" stroke-width="3" d="M1524.9,-808C1557.26,-808 1550.79,-852.01 1574.96,-861.29"/>
<polygon fill="#d95f02" stroke="#d95f02" stroke-width="3" points="1574.45,-864.76 1584.9,-863 1575.63,-857.86 1574.45,-864.76"/>
<text text-anchor="middle" x="1554.9" y="-858.8" font-family="Times New Roman,serif" font-size="14.00" fill="#d95f02">&lt;2&gt;</text>
</g>
<!-- n16 -->
<g id="node5" class="node">
<title>n16</title>
<polygon fill="none" stroke="black" points="60.25,-205.54 60.25,-220.46 42.68,-231 17.82,-231 0.25,-220.46 0.25,-205.54 17.82,-195 42.68,-195 60.25,-205.54"/>
<text text-anchor="middle" x="30.25" y="-209.3" font-family="Times New Roman,serif" font-size="14.00">reset</text>
</g>
<!-- c28 -->
<g id="node13" class="node">
<title>c28</title>
<polygon fill="none" stroke="black" points="1743.9,-247.5 1743.9,-316.5 1842.9,-316.5 1842.9,-247.5 1743.9,-247.5"/>
<text text-anchor="middle" x="1756.9" y="-301.3" font-family="Times New Roman,serif" font-size="14.00">A</text>
<polyline fill="none" stroke="black" points="1743.9,-293.5 1769.9,-293.5 "/>
<text text-anchor="middle" x="1756.9" y="-278.3" font-family="Times New Roman,serif" font-size="14.00">B</text>
<polyline fill="none" stroke="black" points="1743.9,-270.5 1769.9,-270.5 "/>
<text text-anchor="middle" x="1756.9" y="-255.3" font-family="Times New Roman,serif" font-size="14.00">S</text>
<polyline fill="none" stroke="black" points="1769.9,-247.5 1769.9,-316.5 "/>
<text text-anchor="middle" x="1793.4" y="-285.8" font-family="Times New Roman,serif" font-size="14.00">$11</text>
<text text-anchor="middle" x="1793.4" y="-270.8" font-family="Times New Roman,serif" font-size="14.00">$mux</text>
<polyline fill="none" stroke="black" points="1816.9,-247.5 1816.9,-316.5 "/>
<text text-anchor="middle" x="1829.9" y="-278.3" font-family="Times New Roman,serif" font-size="14.00">Y</text>
</g>
<!-- n16&#45;&gt;c28 -->
<g id="edge20" class="edge">
<title>n16:e&#45;&gt;c28:w</title>
<path fill="none" stroke="#d95f02" d="M60.5,-213C101.17,-213 111.33,-213 152,-213 152,-213 152,-213 1635.4,-213 1684.19,-213 1690.78,-252.93 1733.81,-258.38"/>
<polygon fill="#d95f02" stroke="#d95f02" points="1733.7,-261.88 1743.9,-259 1734.13,-254.9 1733.7,-261.88"/>
</g>
<!-- n17 -->
<g id="node6" class="node">
<title>n17</title>
<polygon fill="none" stroke="black" points="307.1,-675 268.4,-657 307.1,-639 345.81,-657 307.1,-675"/>
<text text-anchor="middle" x="307.1" y="-653.3" font-family="Times New Roman,serif" font-size="14.00">state</text>
</g>
<!-- n17&#45;&gt;x6 -->
<g id="edge28" class="edge">
<title>n17:e&#45;&gt;x6:w</title>
<path fill="none" stroke="#1b9e77" stroke-width="3" d="M345.71,-657C356.41,-657 355.41,-647.76 363.71,-641 393.76,-616.52 397.37,-589.17 430.14,-584.65"/>
<polygon fill="#1b9e77" stroke="#1b9e77" stroke-width="3" points="430.46,-588.14 440.21,-584 430.01,-581.15 430.46,-588.14"/>
<text text-anchor="middle" x="375.71" y="-644.8" font-family="Times New Roman,serif" font-size="14.00" fill="#1b9e77">&lt;2&gt;</text>
</g>
<!-- n17&#45;&gt;x8 -->
<g id="edge29" class="edge">
<title>n17:e&#45;&gt;x8:w</title>
<path fill="none" stroke="#1b9e77" stroke-width="3" d="M345.71,-657C377.96,-657 353.09,-543.45 363.71,-513 382.63,-458.76 379.65,-405.61 430.14,-399.57"/>
<polygon fill="#1b9e77" stroke="#1b9e77" stroke-width="3" points="430.42,-403.06 440.21,-399 430.03,-396.07 430.42,-403.06"/>
<text text-anchor="middle" x="375.71" y="-516.8" font-family="Times New Roman,serif" font-size="14.00" fill="#1b9e77">&lt;2&gt;</text>
</g>
<!-- c32 -->
<g id="node25" class="node">
<title>c32</title>
<polygon fill="none" stroke="black" points="405.71,-823 405.71,-869 538.71,-869 538.71,-823 405.71,-823"/>
<text text-anchor="middle" x="418.71" y="-853.8" font-family="Times New Roman,serif" font-size="14.00">A</text>
<polyline fill="none" stroke="black" points="405.71,-846 431.71,-846 "/>
<text text-anchor="middle" x="418.71" y="-830.8" font-family="Times New Roman,serif" font-size="14.00">B</text>
<polyline fill="none" stroke="black" points="431.71,-823 431.71,-869 "/>
<text text-anchor="middle" x="472.21" y="-849.8" font-family="Times New Roman,serif" font-size="14.00">$16_CMP0</text>
<text text-anchor="middle" x="472.21" y="-834.8" font-family="Times New Roman,serif" font-size="14.00">$eq</text>
<polyline fill="none" stroke="black" points="512.71,-823 512.71,-869 "/>
<text text-anchor="middle" x="525.71" y="-842.3" font-family="Times New Roman,serif" font-size="14.00">Y</text>
</g>
<!-- n17&#45;&gt;c32 -->
<g id="edge22" class="edge">
<title>n17:e&#45;&gt;c32:w</title>
<path fill="none" stroke="#1b9e77" stroke-width="3" d="M345.71,-657C370.92,-657 355.88,-745.04 363.71,-769 370.99,-791.3 377.75,-794.76 387.71,-816 394.31,-830.08 389.45,-847.22 395.92,-854.48"/>
<polygon fill="#1b9e77" stroke="#1b9e77" stroke-width="3" points="395.12,-857.91 405.71,-858 397.48,-851.32 395.12,-857.91"/>
<text text-anchor="middle" x="375.71" y="-819.8" font-family="Times New Roman,serif" font-size="14.00" fill="#1b9e77">&lt;2&gt;</text>
</g>
<!-- c33 -->
<g id="node27" class="node">
<title>c33</title>
<polygon fill="none" stroke="black" points="405.71,-758 405.71,-804 538.71,-804 538.71,-758 405.71,-758"/>
<text text-anchor="middle" x="418.71" y="-788.8" font-family="Times New Roman,serif" font-size="14.00">A</text>
<polyline fill="none" stroke="black" points="405.71,-781 431.71,-781 "/>
<text text-anchor="middle" x="418.71" y="-765.8" font-family="Times New Roman,serif" font-size="14.00">B</text>
<polyline fill="none" stroke="black" points="431.71,-758 431.71,-804 "/>
<text text-anchor="middle" x="472.21" y="-784.8" font-family="Times New Roman,serif" font-size="14.00">$17_CMP0</text>
<text text-anchor="middle" x="472.21" y="-769.8" font-family="Times New Roman,serif" font-size="14.00">$eq</text>
<polyline fill="none" stroke="black" points="512.71,-758 512.71,-804 "/>
<text text-anchor="middle" x="525.71" y="-777.3" font-family="Times New Roman,serif" font-size="14.00">Y</text>
</g>
<!-- n17&#45;&gt;c33 -->
<g id="edge23" class="edge">
<title>n17:e&#45;&gt;c33:w</title>
<path fill="none" stroke="#1b9e77" stroke-width="3" d="M345.71,-657C348.54,-657 386.58,-747.4 387.71,-750 394.17,-764.84 388.88,-782.74 396.13,-789.86"/>
<polygon fill="#1b9e77" stroke="#1b9e77" stroke-width="3" points="395.12,-793.21 405.71,-793 397.3,-786.56 395.12,-793.21"/>
<text text-anchor="middle" x="375.71" y="-753.8" font-family="Times New Roman,serif" font-size="14.00" fill="#1b9e77">&lt;2&gt;</text>
</g>
<!-- n17&#45;&gt;x12 -->
<g id="edge26" class="edge">
<title>n17:e&#45;&gt;x12:w</title>
<path fill="none" stroke="#1b9e77" stroke-width="3" d="M345.71,-657C388.95,-657 392.91,-696.94 430.02,-703.18"/>
<polygon fill="#1b9e77" stroke="#1b9e77" stroke-width="3" points="429.96,-706.69 440.21,-704 430.52,-699.71 429.96,-706.69"/>
<text text-anchor="middle" x="375.71" y="-677.8" font-family="Times New Roman,serif" font-size="14.00" fill="#1b9e77">&lt;2&gt;</text>
</g>
<!-- n17&#45;&gt;x14 -->
<g id="edge27" class="edge">
<title>n17:e&#45;&gt;x14:w</title>
<path fill="none" stroke="#1b9e77" stroke-width="3" d="M345.71,-657C373.55,-657 353.68,-622.97 363.71,-597 374.79,-568.3 400.4,-483.1 430.35,-466.74"/>
<polygon fill="#1b9e77" stroke="#1b9e77" stroke-width="3" points="431.51,-470.05 440.21,-464 429.64,-463.3 431.51,-470.05"/>
<text text-anchor="middle" x="375.71" y="-600.8" font-family="Times New Roman,serif" font-size="14.00" fill="#1b9e77">&lt;2&gt;</text>
</g>
<!-- c37 -->
<g id="node37" class="node">
<title>c37</title>
<polygon fill="none" stroke="black" points="409.21,-30 409.21,-76 535.21,-76 535.21,-30 409.21,-30"/>
<text text-anchor="middle" x="422.21" y="-60.8" font-family="Times New Roman,serif" font-size="14.00">A</text>
<polyline fill="none" stroke="black" points="409.21,-53 435.21,-53 "/>
<text text-anchor="middle" x="422.21" y="-37.8" font-family="Times New Roman,serif" font-size="14.00">B</text>
<polyline fill="none" stroke="black" points="435.21,-30 435.21,-76 "/>
<text text-anchor="middle" x="472.21" y="-56.8" font-family="Times New Roman,serif" font-size="14.00">$7_CMP0</text>
<text text-anchor="middle" x="472.21" y="-41.8" font-family="Times New Roman,serif" font-size="14.00">$eq</text>
<polyline fill="none" stroke="black" points="509.21,-30 509.21,-76 "/>
<text text-anchor="middle" x="522.21" y="-49.3" font-family="Times New Roman,serif" font-size="14.00">Y</text>
</g>
<!-- n17&#45;&gt;c37 -->
<g id="edge24" class="edge">
<title>n17:e&#45;&gt;c37:w</title>
<path fill="none" stroke="#1b9e77" stroke-width="3" d="M345.71,-657C359.19,-657 362.36,-428.41 363.71,-415 379.07,-262.49 257.08,-73.69 398.07,-65.29"/>
<polygon fill="#1b9e77" stroke="#1b9e77" stroke-width="3" points="398.31,-68.79 408.21,-65 398.11,-61.79 398.31,-68.79"/>
<text text-anchor="middle" x="375.71" y="-418.8" font-family="Times New Roman,serif" font-size="14.00" fill="#1b9e77">&lt;2&gt;</text>
</g>
<!-- n17&#45;&gt;c38 -->
<g id="edge25" class="edge">
<title>n17:e&#45;&gt;c38:w</title>
<path fill="none" stroke="#1b9e77" stroke-width="3" d="M345.71,-657C368.13,-657 351.08,-839.47 363.71,-858 392.42,-900.12 420.23,-898 471.21,-898 471.21,-898 471.21,-898 1458.8,-898 1511.58,-898 1526.75,-887.45 1574.82,-886.13"/>
<polygon fill="#1b9e77" stroke="#1b9e77" stroke-width="3" points="1574.95,-889.63 1584.9,-886 1574.85,-882.63 1574.95,-889.63"/>
<text text-anchor="middle" x="956.71" y="-901.8" font-family="Times New Roman,serif" font-size="14.00" fill="#1b9e77">&lt;2&gt;</text>
</g>
<!-- c20 -->
<g id="node7" class="node">
<title>c20</title>
<polygon fill="none" stroke="black" points="890.71,-619 890.71,-657 1022.71,-657 1022.71,-619 890.71,-619"/>
<text text-anchor="middle" x="903.71" y="-634.3" font-family="Times New Roman,serif" font-size="14.00">A</text>
<polyline fill="none" stroke="black" points="916.71,-619 916.71,-657 "/>
<text text-anchor="middle" x="956.71" y="-641.8" font-family="Times New Roman,serif" font-size="14.00">$21</text>
<text text-anchor="middle" x="956.71" y="-626.8" font-family="Times New Roman,serif" font-size="14.00">$reduce_or</text>
<polyline fill="none" stroke="black" points="996.71,-619 996.71,-657 "/>
<text text-anchor="middle" x="1009.71" y="-634.3" font-family="Times New Roman,serif" font-size="14.00">Y</text>
</g>
<!-- x5 -->
<g id="node17" class="node">
<title>x5</title>
<path fill="none" stroke="black" d="M1092.7,-669C1092.7,-669 1130.7,-669 1130.7,-669 1136.7,-669 1142.7,-675 1142.7,-681 1142.7,-681 1142.7,-749 1142.7,-749 1142.7,-755 1136.7,-761 1130.7,-761 1130.7,-761 1092.7,-761 1092.7,-761 1086.7,-761 1080.7,-755 1080.7,-749 1080.7,-749 1080.7,-681 1080.7,-681 1080.7,-675 1086.7,-669 1092.7,-669"/>
<text text-anchor="middle" x="1111.7" y="-745.8" font-family="Times New Roman,serif" font-size="14.00">0:0 &#45; 3:3</text>
<polyline fill="none" stroke="black" points="1080.7,-738 1142.7,-738 "/>
<text text-anchor="middle" x="1111.7" y="-722.8" font-family="Times New Roman,serif" font-size="14.00">0:0 &#45; 2:2</text>
<polyline fill="none" stroke="black" points="1080.7,-715 1142.7,-715 "/>
<text text-anchor="middle" x="1111.7" y="-699.8" font-family="Times New Roman,serif" font-size="14.00">0:0 &#45; 1:1</text>
<polyline fill="none" stroke="black" points="1080.7,-692 1142.7,-692 "/>
<text text-anchor="middle" x="1111.7" y="-676.8" font-family="Times New Roman,serif" font-size="14.00">0:0 &#45; 0:0</text>
</g>
<!-- c20&#45;&gt;x5 -->
<g id="edge30" class="edge">
<title>c20:e&#45;&gt;x5:w</title>
<path fill="none" stroke="#1b9e77" d="M1022.71,-638C1050.37,-638 1049.13,-670.44 1069.79,-678.3"/>
<polygon fill="#1b9e77" stroke="#1b9e77" points="1069.26,-681.76 1079.7,-680 1070.44,-674.86 1069.26,-681.76"/>
</g>
<!-- x0 -->
<g id="node8" class="node">
<title>x0</title>
<path fill="none" stroke="black" d="M780.71,-615C780.71,-615 818.71,-615 818.71,-615 824.71,-615 830.71,-621 830.71,-627 830.71,-627 830.71,-649 830.71,-649 830.71,-655 824.71,-661 818.71,-661 818.71,-661 780.71,-661 780.71,-661 774.71,-661 768.71,-655 768.71,-649 768.71,-649 768.71,-627 768.71,-627 768.71,-621 774.71,-615 780.71,-615"/>
<text text-anchor="middle" x="799.71" y="-645.8" font-family="Times New Roman,serif" font-size="14.00">0:0 &#45; 1:1</text>
<polyline fill="none" stroke="black" points="768.71,-638 830.71,-638 "/>
<text text-anchor="middle" x="799.71" y="-622.8" font-family="Times New Roman,serif" font-size="14.00">0:0 &#45; 0:0</text>
</g>
<!-- x0&#45;&gt;c20 -->
<g id="edge1" class="edge">
<title>x0:e&#45;&gt;c20:w</title>
<path fill="none" stroke="#66a61e" stroke-width="3" d="M842.89,-638C856.6,-638 864.7,-638 878.35,-638"/>
<polygon fill="none" stroke="#66a61e" stroke-width="3" points="842.71,-638 836.71,-642 830.71,-638 836.71,-634 842.71,-638"/>
<polygon fill="none" stroke="#66a61e" stroke-width="3" points="878.71,-638 884.71,-634 890.71,-638 884.71,-642 878.71,-638"/>
<text text-anchor="middle" x="860.71" y="-641.8" font-family="Times New Roman,serif" font-size="14.00" fill="#66a61e">&lt;2&gt;</text>
</g>
<!-- c21 -->
<g id="node9" class="node">
<title>c21</title>
<polygon fill="none" stroke="black" points="890.71,-676 890.71,-714 1022.71,-714 1022.71,-676 890.71,-676"/>
<text text-anchor="middle" x="903.71" y="-691.3" font-family="Times New Roman,serif" font-size="14.00">A</text>
<polyline fill="none" stroke="black" points="916.71,-676 916.71,-714 "/>
<text text-anchor="middle" x="956.71" y="-698.8" font-family="Times New Roman,serif" font-size="14.00">$23</text>
<text text-anchor="middle" x="956.71" y="-683.8" font-family="Times New Roman,serif" font-size="14.00">$reduce_or</text>
<polyline fill="none" stroke="black" points="996.71,-676 996.71,-714 "/>
<text text-anchor="middle" x="1009.71" y="-691.3" font-family="Times New Roman,serif" font-size="14.00">Y</text>
</g>
<!-- c21&#45;&gt;x5 -->
<g id="edge31" class="edge">
<title>c21:e&#45;&gt;x5:w</title>
<path fill="none" stroke="#7570b3" d="M1022.71,-695C1044.49,-695 1051.96,-700.8 1069.49,-702.52"/>
<polygon fill="#7570b3" stroke="#7570b3" points="1069.55,-706.03 1079.7,-703 1069.88,-699.04 1069.55,-706.03"/>
</g>
<!-- x1 -->
<g id="node10" class="node">
<title>x1</title>
<path fill="none" stroke="black" d="M780.71,-441C780.71,-441 818.71,-441 818.71,-441 824.71,-441 830.71,-447 830.71,-453 830.71,-453 830.71,-475 830.71,-475 830.71,-481 824.71,-487 818.71,-487 818.71,-487 780.71,-487 780.71,-487 774.71,-487 768.71,-481 768.71,-475 768.71,-475 768.71,-453 768.71,-453 768.71,-447 774.71,-441 780.71,-441"/>
<text text-anchor="middle" x="799.71" y="-471.8" font-family="Times New Roman,serif" font-size="14.00">0:0 &#45; 1:1</text>
<polyline fill="none" stroke="black" points="768.71,-464 830.71,-464 "/>
<text text-anchor="middle" x="799.71" y="-448.8" font-family="Times New Roman,serif" font-size="14.00">0:0 &#45; 0:0</text>
</g>
<!-- x1&#45;&gt;c21 -->
<g id="edge2" class="edge">
<title>x1:e&#45;&gt;c21:w</title>
<path fill="none" stroke="#1b9e77" stroke-width="3" d="M837.97,-473.64C848.95,-510.4 840.44,-640.49 848.71,-657 857.87,-675.29 863.25,-688.94 878.45,-693.42"/>
<polygon fill="none" stroke="#1b9e77" stroke-width="3" points="837.93,-473.59 831.12,-471.2 830.71,-464 837.51,-466.39 837.93,-473.59"/>
<polygon fill="none" stroke="#1b9e77" stroke-width="3" points="878.81,-693.47 885.27,-690.27 890.71,-695 884.25,-698.2 878.81,-693.47"/>
<text text-anchor="middle" x="860.71" y="-694.8" font-family="Times New Roman,serif" font-size="14.00" fill="#1b9e77">&lt;2&gt;</text>
</g>
<!-- c25&#45;&gt;n17 -->
<g id="edge21" class="edge">
<title>c25:e&#45;&gt;n17:w</title>
<path fill="none" stroke="#1b9e77" stroke-width="3" d="M208.5,-657C231.42,-657 239.56,-657 258.33,-657"/>
<polygon fill="#1b9e77" stroke="#1b9e77" stroke-width="3" points="258.5,-660.5 268.5,-657 258.5,-653.5 258.5,-660.5"/>
<text text-anchor="middle" x="238.5" y="-660.8" font-family="Times New Roman,serif" font-size="14.00" fill="#1b9e77">&lt;2&gt;</text>
</g>
<!-- v2 -->
<g id="node12" class="node">
<title>v2</title>
<ellipse fill="none" stroke="black" cx="1634.4" cy="-259" rx="27" ry="18"/>
<text text-anchor="middle" x="1634.4" y="-255.3" font-family="Times New Roman,serif" font-size="14.00">2&#39;00</text>
</g>
<!-- v2&#45;&gt;c28 -->
<g id="edge44" class="edge">
<title>v2:e&#45;&gt;c28:w</title>
<path fill="none" stroke="#d95f02" stroke-width="3" d="M1662.4,-259C1691.61,-259 1697.92,-267.6 1725.9,-276 1729.43,-277.06 1731.7,-278.34 1733.85,-279.45"/>
<polygon fill="#d95f02" stroke="#d95f02" stroke-width="3" points="1733.34,-282.93 1743.9,-282 1735.07,-276.15 1733.34,-282.93"/>
<text text-anchor="middle" x="1713.9" y="-279.8" font-family="Times New Roman,serif" font-size="14.00" fill="#d95f02">&lt;2&gt;</text>
</g>
<!-- c28&#45;&gt;c25 -->
<g id="edge8" class="edge">
<title>c28:e&#45;&gt;c25:w</title>
<path fill="none" stroke="#d95f02" stroke-width="3" d="M1844.4,-282C1852.18,-282 1848.98,-311.58 1843.4,-317 1776.99,-381.54 1728,-305 1635.4,-305 567.71,-305 567.71,-305 567.71,-305 495.22,-305 470.93,-292.36 405.71,-324 365.82,-343.35 109.81,-584.94 91.73,-635.69"/>
<polygon fill="#d95f02" stroke="#d95f02" stroke-width="3" points="88.65,-637.37 96,-645 95.01,-634.45 88.65,-637.37"/>
<text text-anchor="middle" x="956.71" y="-308.8" font-family="Times New Roman,serif" font-size="14.00" fill="#d95f02">&lt;2&gt;</text>
</g>
<!-- v3 -->
<g id="node14" class="node">
<title>v3</title>
<ellipse fill="none" stroke="black" cx="1111.7" cy="-852" rx="27" ry="18"/>
<text text-anchor="middle" x="1111.7" y="-848.3" font-family="Times New Roman,serif" font-size="14.00">2&#39;xx</text>
</g>
<!-- c29 -->
<g id="node16" class="node">
<title>c29</title>
<polygon fill="none" stroke="black" points="1223.7,-771.5 1223.7,-840.5 1330.7,-840.5 1330.7,-771.5 1223.7,-771.5"/>
<text text-anchor="middle" x="1236.7" y="-825.3" font-family="Times New Roman,serif" font-size="14.00">A</text>
<polyline fill="none" stroke="black" points="1223.7,-817.5 1249.7,-817.5 "/>
<text text-anchor="middle" x="1236.7" y="-802.3" font-family="Times New Roman,serif" font-size="14.00">B</text>
<polyline fill="none" stroke="black" points="1223.7,-794.5 1249.7,-794.5 "/>
<text text-anchor="middle" x="1236.7" y="-779.3" font-family="Times New Roman,serif" font-size="14.00">S</text>
<polyline fill="none" stroke="black" points="1249.7,-771.5 1249.7,-840.5 "/>
<text text-anchor="middle" x="1277.2" y="-809.8" font-family="Times New Roman,serif" font-size="14.00">$13</text>
<text text-anchor="middle" x="1277.2" y="-794.8" font-family="Times New Roman,serif" font-size="14.00">$pmux</text>
<polyline fill="none" stroke="black" points="1304.7,-771.5 1304.7,-840.5 "/>
<text text-anchor="middle" x="1317.7" y="-802.3" font-family="Times New Roman,serif" font-size="14.00">Y</text>
</g>
<!-- v3&#45;&gt;c29 -->
<g id="edge45" class="edge">
<title>v3:e&#45;&gt;c29:w</title>
<path fill="none" stroke="#e6ab02" stroke-width="3" d="M1139.7,-852C1174.78,-852 1183.48,-833.11 1213.61,-829.57"/>
<polygon fill="#e6ab02" stroke="#e6ab02" stroke-width="3" points="1213.91,-833.06 1223.7,-829 1213.52,-826.07 1213.91,-833.06"/>
<text text-anchor="middle" x="1193.7" y="-843.8" font-family="Times New Roman,serif" font-size="14.00" fill="#e6ab02">&lt;2&gt;</text>
</g>
<!-- v4 -->
<g id="node15" class="node">
<title>v4</title>
<ellipse fill="none" stroke="black" cx="1111.7" cy="-798" rx="51.99" ry="18"/>
<text text-anchor="middle" x="1111.7" y="-794.3" font-family="Times New Roman,serif" font-size="14.00">8&#39;10110001</text>
</g>
<!-- v4&#45;&gt;c29 -->
<g id="edge46" class="edge">
<title>v4:e&#45;&gt;c29:w</title>
<path fill="none" stroke="#1b9e77" stroke-width="3" d="M1163.7,-798C1186.82,-798 1194.65,-803.91 1213.46,-805.57"/>
<polygon fill="#1b9e77" stroke="#1b9e77" stroke-width="3" points="1213.56,-809.08 1223.7,-806 1213.86,-802.08 1213.56,-809.08"/>
<text text-anchor="middle" x="1193.7" y="-807.8" font-family="Times New Roman,serif" font-size="14.00" fill="#1b9e77">&lt;8&gt;</text>
</g>
<!-- c29&#45;&gt;n15 -->
<g id="edge18" class="edge">
<title>c29:e&#45;&gt;n15:w</title>
<path fill="none" stroke="#d95f02" stroke-width="3" d="M1330.7,-806C1353.63,-806 1361.76,-807.48 1380.52,-807.89"/>
<polygon fill="#d95f02" stroke="#d95f02" stroke-width="3" points="1380.66,-811.39 1390.7,-808 1380.74,-804.39 1380.66,-811.39"/>
<text text-anchor="middle" x="1360.7" y="-810.8" font-family="Times New Roman,serif" font-size="14.00" fill="#d95f02">&lt;2&gt;</text>
</g>
<!-- x5&#45;&gt;c29 -->
<g id="edge3" class="edge">
<title>x5:e&#45;&gt;c29:w</title>
<path fill="none" stroke="#1b9e77" stroke-width="3" d="M1155.77,-716.82C1184.77,-726.45 1182.6,-771.42 1211.52,-781.14"/>
<polygon fill="none" stroke="#1b9e77" stroke-width="3" points="1155.57,-716.79 1149.04,-719.85 1143.7,-715 1150.23,-711.94 1155.57,-716.79"/>
<polygon fill="none" stroke="#1b9e77" stroke-width="3" points="1211.84,-781.19 1218.37,-778.14 1223.7,-783 1217.17,-786.05 1211.84,-781.19"/>
<text text-anchor="middle" x="1193.7" y="-781.8" font-family="Times New Roman,serif" font-size="14.00" fill="#1b9e77">&lt;4&gt;</text>
</g>
<!-- v7 -->
<g id="node18" class="node">
<title>v7</title>
<ellipse fill="none" stroke="black" cx="472.21" cy="-536" rx="30.59" ry="18"/>
<text text-anchor="middle" x="472.21" y="-532.3" font-family="Times New Roman,serif" font-size="14.00">3&#39;111</text>
</g>
<!-- c30 -->
<g id="node19" class="node">
<title>c30</title>
<polygon fill="none" stroke="black" points="598.71,-561 598.71,-607 731.71,-607 731.71,-561 598.71,-561"/>
<text text-anchor="middle" x="611.71" y="-591.8" font-family="Times New Roman,serif" font-size="14.00">A</text>
<polyline fill="none" stroke="black" points="598.71,-584 624.71,-584 "/>
<text text-anchor="middle" x="611.71" y="-568.8" font-family="Times New Roman,serif" font-size="14.00">B</text>
<polyline fill="none" stroke="black" points="624.71,-561 624.71,-607 "/>
<text text-anchor="middle" x="665.21" y="-587.8" font-family="Times New Roman,serif" font-size="14.00">$14_CMP0</text>
<text text-anchor="middle" x="665.21" y="-572.8" font-family="Times New Roman,serif" font-size="14.00">$eq</text>
<polyline fill="none" stroke="black" points="705.71,-561 705.71,-607 "/>
<text text-anchor="middle" x="718.71" y="-580.3" font-family="Times New Roman,serif" font-size="14.00">Y</text>
</g>
<!-- v7&#45;&gt;c30 -->
<g id="edge47" class="edge">
<title>v7:e&#45;&gt;c30:w</title>
<path fill="none" stroke="#66a61e" stroke-width="3" d="M504.21,-536C545.47,-536 552.74,-566.34 588.42,-571.31"/>
<polygon fill="#66a61e" stroke="#66a61e" stroke-width="3" points="588.5,-574.83 598.71,-572 588.96,-567.84 588.5,-574.83"/>
<text text-anchor="middle" x="568.71" y="-572.8" font-family="Times New Roman,serif" font-size="14.00" fill="#66a61e">&lt;3&gt;</text>
</g>
<!-- c30&#45;&gt;x0 -->
<g id="edge32" class="edge">
<title>c30:e&#45;&gt;x0:w</title>
<path fill="none" stroke="#666666" d="M731.71,-584C752.51,-584 747,-613.35 759.17,-622.98"/>
<polygon fill="#666666" stroke="#666666" points="758.12,-626.32 768.71,-626 760.23,-619.64 758.12,-626.32"/>
</g>
<!-- x6&#45;&gt;c30 -->
<g id="edge4" class="edge">
<title>x6:e&#45;&gt;c30:w</title>
<path fill="none" stroke="#7570b3" stroke-width="3" d="M516.52,-596C545,-596 557.97,-596 586.47,-596"/>
<polygon fill="none" stroke="#7570b3" stroke-width="3" points="516.21,-596 510.21,-600 504.21,-596 510.21,-592 516.21,-596"/>
<polygon fill="none" stroke="#7570b3" stroke-width="3" points="586.71,-596 592.71,-592 598.71,-596 592.71,-600 586.71,-596"/>
<text text-anchor="middle" x="568.71" y="-599.8" font-family="Times New Roman,serif" font-size="14.00" fill="#7570b3">&lt;3&gt;</text>
</g>
<!-- v9 -->
<g id="node21" class="node">
<title>v9</title>
<ellipse fill="none" stroke="black" cx="472.21" cy="-351" rx="27" ry="18"/>
<text text-anchor="middle" x="472.21" y="-347.3" font-family="Times New Roman,serif" font-size="14.00">2&#39;11</text>
</g>
<!-- c31 -->
<g id="node22" class="node">
<title>c31</title>
<polygon fill="none" stroke="black" points="598.71,-376 598.71,-422 731.71,-422 731.71,-376 598.71,-376"/>
<text text-anchor="middle" x="611.71" y="-406.8" font-family="Times New Roman,serif" font-size="14.00">A</text>
<polyline fill="none" stroke="black" points="598.71,-399 624.71,-399 "/>
<text text-anchor="middle" x="611.71" y="-383.8" font-family="Times New Roman,serif" font-size="14.00">B</text>
<polyline fill="none" stroke="black" points="624.71,-376 624.71,-422 "/>
<text text-anchor="middle" x="665.21" y="-402.8" font-family="Times New Roman,serif" font-size="14.00">$15_CMP0</text>
<text text-anchor="middle" x="665.21" y="-387.8" font-family="Times New Roman,serif" font-size="14.00">$eq</text>
<polyline fill="none" stroke="black" points="705.71,-376 705.71,-422 "/>
<text text-anchor="middle" x="718.71" y="-395.3" font-family="Times New Roman,serif" font-size="14.00">Y</text>
</g>
<!-- v9&#45;&gt;c31 -->
<g id="edge48" class="edge">
<title>v9:e&#45;&gt;c31:w</title>
<path fill="none" stroke="#1b9e77" stroke-width="3" d="M500.21,-351C543.18,-351 551.02,-381.59 588.5,-386.38"/>
<polygon fill="#1b9e77" stroke="#1b9e77" stroke-width="3" points="588.51,-389.88 598.71,-387 588.94,-382.9 588.51,-389.88"/>
<text text-anchor="middle" x="568.71" y="-387.8" font-family="Times New Roman,serif" font-size="14.00" fill="#1b9e77">&lt;2&gt;</text>
</g>
<!-- c31&#45;&gt;x1 -->
<g id="edge33" class="edge">
<title>c31:e&#45;&gt;x1:w</title>
<path fill="none" stroke="#a6761d" d="M731.71,-399C756.17,-399 744.97,-437.43 758.85,-448.84"/>
<polygon fill="#a6761d" stroke="#a6761d" points="758.12,-452.29 768.71,-452 760.25,-445.62 758.12,-452.29"/>
</g>
<!-- x8&#45;&gt;c31 -->
<g id="edge5" class="edge">
<title>x8:e&#45;&gt;c31:w</title>
<path fill="none" stroke="#e7298a" stroke-width="3" d="M516.52,-411C545,-411 557.97,-411 586.47,-411"/>
<polygon fill="none" stroke="#e7298a" stroke-width="3" points="516.21,-411 510.21,-415 504.21,-411 510.21,-407 516.21,-411"/>
<polygon fill="none" stroke="#e7298a" stroke-width="3" points="586.71,-411 592.71,-407 598.71,-411 592.71,-415 586.71,-411"/>
<text text-anchor="middle" x="568.71" y="-414.8" font-family="Times New Roman,serif" font-size="14.00" fill="#e7298a">&lt;3&gt;</text>
</g>
<!-- v10 -->
<g id="node24" class="node">
<title>v10</title>
<ellipse fill="none" stroke="black" cx="307.1" cy="-843" rx="27" ry="18"/>
<text text-anchor="middle" x="307.1" y="-839.3" font-family="Times New Roman,serif" font-size="14.00">2&#39;10</text>
</g>
<!-- v10&#45;&gt;c32 -->
<g id="edge38" class="edge">
<title>v10:e&#45;&gt;c32:w</title>
<path fill="none" stroke="#66a61e" stroke-width="3" d="M335.1,-843C363.03,-843 372.02,-835.99 395.51,-834.34"/>
<polygon fill="#66a61e" stroke="#66a61e" stroke-width="3" points="395.83,-837.83 405.71,-834 395.6,-830.84 395.83,-837.83"/>
<text text-anchor="middle" x="375.71" y="-842.8" font-family="Times New Roman,serif" font-size="14.00" fill="#66a61e">&lt;2&gt;</text>
</g>
<!-- c32&#45;&gt;x5 -->
<g id="edge34" class="edge">
<title>c32:e&#45;&gt;x5:w</title>
<path fill="none" stroke="#7570b3" d="M538.71,-846C781.41,-846 832.1,-730.35 1069.36,-727.07"/>
<polygon fill="#7570b3" stroke="#7570b3" points="1069.73,-730.57 1079.7,-727 1069.68,-723.57 1069.73,-730.57"/>
</g>
<!-- v11 -->
<g id="node26" class="node">
<title>v11</title>
<ellipse fill="none" stroke="black" cx="307.1" cy="-772" rx="27" ry="18"/>
<text text-anchor="middle" x="307.1" y="-768.3" font-family="Times New Roman,serif" font-size="14.00">1&#39;1</text>
</g>
<!-- v11&#45;&gt;c33 -->
<g id="edge39" class="edge">
<title>v11:e&#45;&gt;c33:w</title>
<path fill="none" stroke="#a6761d" d="M335.1,-772C362.83,-772 372.15,-769.66 395.56,-769.11"/>
<polygon fill="#a6761d" stroke="#a6761d" points="395.75,-772.61 405.71,-769 395.67,-765.61 395.75,-772.61"/>
</g>
<!-- c33&#45;&gt;x5 -->
<g id="edge35" class="edge">
<title>c33:e&#45;&gt;x5:w</title>
<path fill="none" stroke="#a6761d" d="M538.71,-781C594.49,-781 608.43,-781 664.21,-781 664.21,-781 664.21,-781 957.71,-781 982.73,-781 1038.22,-756.19 1069.67,-750.96"/>
<polygon fill="#a6761d" stroke="#a6761d" points="1070.08,-754.44 1079.7,-750 1069.42,-747.47 1070.08,-754.44"/>
</g>
<!-- v13 -->
<g id="node28" class="node">
<title>v13</title>
<ellipse fill="none" stroke="black" cx="472.21" cy="-656" rx="30.59" ry="18"/>
<text text-anchor="middle" x="472.21" y="-652.3" font-family="Times New Roman,serif" font-size="14.00">3&#39;100</text>
</g>
<!-- c34 -->
<g id="node29" class="node">
<title>c34</title>
<polygon fill="none" stroke="black" points="598.71,-645 598.71,-691 731.71,-691 731.71,-645 598.71,-645"/>
<text text-anchor="middle" x="611.71" y="-675.8" font-family="Times New Roman,serif" font-size="14.00">A</text>
<polyline fill="none" stroke="black" points="598.71,-668 624.71,-668 "/>
<text text-anchor="middle" x="611.71" y="-652.8" font-family="Times New Roman,serif" font-size="14.00">B</text>
<polyline fill="none" stroke="black" points="624.71,-645 624.71,-691 "/>
<text text-anchor="middle" x="665.21" y="-671.8" font-family="Times New Roman,serif" font-size="14.00">$18_CMP0</text>
<text text-anchor="middle" x="665.21" y="-656.8" font-family="Times New Roman,serif" font-size="14.00">$eq</text>
<polyline fill="none" stroke="black" points="705.71,-645 705.71,-691 "/>
<text text-anchor="middle" x="718.71" y="-664.3" font-family="Times New Roman,serif" font-size="14.00">Y</text>
</g>
<!-- v13&#45;&gt;c34 -->
<g id="edge40" class="edge">
<title>v13:e&#45;&gt;c34:w</title>
<path fill="none" stroke="#7570b3" stroke-width="3" d="M504.21,-656C542.6,-656 554.67,-656 588.54,-656"/>
<polygon fill="#7570b3" stroke="#7570b3" stroke-width="3" points="588.71,-659.5 598.71,-656 588.71,-652.5 588.71,-659.5"/>
<text text-anchor="middle" x="568.71" y="-659.8" font-family="Times New Roman,serif" font-size="14.00" fill="#7570b3">&lt;3&gt;</text>
</g>
<!-- c34&#45;&gt;x0 -->
<g id="edge36" class="edge">
<title>c34:e&#45;&gt;x0:w</title>
<path fill="none" stroke="#e6ab02" d="M731.71,-668C746,-668 749.38,-657.01 758.9,-652.21"/>
<polygon fill="#e6ab02" stroke="#e6ab02" points="759.72,-655.61 768.71,-650 758.19,-648.78 759.72,-655.61"/>
</g>
<!-- x12&#45;&gt;c34 -->
<g id="edge6" class="edge">
<title>x12:e&#45;&gt;c34:w</title>
<path fill="none" stroke="#e7298a" stroke-width="3" d="M516.3,-715.04C546.71,-709.94 556.15,-686.13 586.5,-680.98"/>
<polygon fill="none" stroke="#e7298a" stroke-width="3" points="516.17,-715.05 510.51,-719.51 504.21,-716 509.87,-711.54 516.17,-715.05"/>
<polygon fill="none" stroke="#e7298a" stroke-width="3" points="586.75,-680.96 592.41,-676.49 598.71,-680 593.05,-684.47 586.75,-680.96"/>
<text text-anchor="middle" x="568.71" y="-696.8" font-family="Times New Roman,serif" font-size="14.00" fill="#e7298a">&lt;3&gt;</text>
</g>
<!-- c35 -->
<g id="node31" class="node">
<title>c35</title>
<polygon fill="none" stroke="black" points="598.71,-457 598.71,-495 731.71,-495 731.71,-457 598.71,-457"/>
<text text-anchor="middle" x="611.71" y="-472.3" font-family="Times New Roman,serif" font-size="14.00">A</text>
<polyline fill="none" stroke="black" points="624.71,-457 624.71,-495 "/>
<text text-anchor="middle" x="665.21" y="-479.8" font-family="Times New Roman,serif" font-size="14.00">$19_CMP0</text>
<text text-anchor="middle" x="665.21" y="-464.8" font-family="Times New Roman,serif" font-size="14.00">$logic_not</text>
<polyline fill="none" stroke="black" points="705.71,-457 705.71,-495 "/>
<text text-anchor="middle" x="718.71" y="-472.3" font-family="Times New Roman,serif" font-size="14.00">Y</text>
</g>
<!-- c35&#45;&gt;x1 -->
<g id="edge37" class="edge">
<title>c35:e&#45;&gt;x1:w</title>
<path fill="none" stroke="#1b9e77" d="M731.71,-476C744.17,-476 749.55,-476 758.58,-476"/>
<polygon fill="#1b9e77" stroke="#1b9e77" points="758.71,-479.5 768.71,-476 758.71,-472.5 758.71,-479.5"/>
</g>
<!-- x14&#45;&gt;c35 -->
<g id="edge7" class="edge">
<title>x14:e&#45;&gt;c35:w</title>
<path fill="none" stroke="#7570b3" stroke-width="3" d="M516.52,-476C545,-476 557.97,-476 586.47,-476"/>
<polygon fill="none" stroke="#7570b3" stroke-width="3" points="516.21,-476 510.21,-480 504.21,-476 510.21,-472 516.21,-476"/>
<polygon fill="none" stroke="#7570b3" stroke-width="3" points="586.71,-476 592.71,-472 598.71,-476 592.71,-480 586.71,-476"/>
<text text-anchor="middle" x="568.71" y="-479.8" font-family="Times New Roman,serif" font-size="14.00" fill="#7570b3">&lt;3&gt;</text>
</g>
<!-- v15 -->
<g id="node33" class="node">
<title>v15</title>
<ellipse fill="none" stroke="black" cx="472.21" cy="-167" rx="27" ry="18"/>
<text text-anchor="middle" x="472.21" y="-163.3" font-family="Times New Roman,serif" font-size="14.00">1&#39;0</text>
</g>
<!-- c36 -->
<g id="node35" class="node">
<title>c36</title>
<polygon fill="none" stroke="black" points="615.71,-78.5 615.71,-147.5 714.71,-147.5 714.71,-78.5 615.71,-78.5"/>
<text text-anchor="middle" x="628.71" y="-132.3" font-family="Times New Roman,serif" font-size="14.00">A</text>
<polyline fill="none" stroke="black" points="615.71,-124.5 641.71,-124.5 "/>
<text text-anchor="middle" x="628.71" y="-109.3" font-family="Times New Roman,serif" font-size="14.00">B</text>
<polyline fill="none" stroke="black" points="615.71,-101.5 641.71,-101.5 "/>
<text text-anchor="middle" x="628.71" y="-86.3" font-family="Times New Roman,serif" font-size="14.00">S</text>
<polyline fill="none" stroke="black" points="641.71,-78.5 641.71,-147.5 "/>
<text text-anchor="middle" x="665.21" y="-116.8" font-family="Times New Roman,serif" font-size="14.00">$6</text>
<text text-anchor="middle" x="665.21" y="-101.8" font-family="Times New Roman,serif" font-size="14.00">$mux</text>
<polyline fill="none" stroke="black" points="688.71,-78.5 688.71,-147.5 "/>
<text text-anchor="middle" x="701.71" y="-109.3" font-family="Times New Roman,serif" font-size="14.00">Y</text>
</g>
<!-- v15&#45;&gt;c36 -->
<g id="edge41" class="edge">
<title>v15:e&#45;&gt;c36:w</title>
<path fill="none" stroke="#e6ab02" d="M500.21,-167C549.13,-167 560.27,-140.09 604.02,-136.41"/>
<polygon fill="#e6ab02" stroke="#e6ab02" points="604.36,-139.9 614.21,-136 604.08,-132.91 604.36,-139.9"/>
</g>
<!-- v16 -->
<g id="node34" class="node">
<title>v16</title>
<ellipse fill="none" stroke="black" cx="472.21" cy="-113" rx="27" ry="18"/>
<text text-anchor="middle" x="472.21" y="-109.3" font-family="Times New Roman,serif" font-size="14.00">1&#39;1</text>
</g>
<!-- v16&#45;&gt;c36 -->
<g id="edge42" class="edge">
<title>v16:e&#45;&gt;c36:w</title>
<path fill="none" stroke="#7570b3" d="M500.21,-113C547.31,-113 561.57,-113 604.06,-113"/>
<polygon fill="#7570b3" stroke="#7570b3" points="604.21,-116.5 614.21,-113 604.21,-109.5 604.21,-116.5"/>
</g>
<!-- c36&#45;&gt;n13 -->
<g id="edge13" class="edge">
<title>c36:e&#45;&gt;n13:w</title>
<path fill="none" stroke="#e6ab02" d="M716.21,-113C752.88,-113 762.04,-113 798.71,-113 798.71,-113 798.71,-113 1714.9,-113 1776.24,-113 1794.09,-113 1850.67,-113"/>
<polygon fill="#e6ab02" stroke="#e6ab02" points="1850.9,-116.5 1860.9,-113 1850.9,-109.5 1850.9,-116.5"/>
</g>
<!-- v17 -->
<g id="node36" class="node">
<title>v17</title>
<ellipse fill="none" stroke="black" cx="307.1" cy="-41" rx="27" ry="18"/>
<text text-anchor="middle" x="307.1" y="-37.3" font-family="Times New Roman,serif" font-size="14.00">2&#39;11</text>
</g>
<!-- v17&#45;&gt;c37 -->
<g id="edge43" class="edge">
<title>v17:e&#45;&gt;c37:w</title>
<path fill="none" stroke="#d95f02" stroke-width="3" d="M335.1,-41C363.92,-41 373.57,-41 398.04,-41"/>
<polygon fill="#d95f02" stroke="#d95f02" stroke-width="3" points="398.21,-44.5 408.21,-41 398.21,-37.5 398.21,-44.5"/>
<text text-anchor="middle" x="375.71" y="-44.8" font-family="Times New Roman,serif" font-size="14.00" fill="#d95f02">&lt;2&gt;</text>
</g>
<!-- c37&#45;&gt;c36 -->
<g id="edge9" class="edge">
<title>c37:e&#45;&gt;c36:w</title>
<path fill="none" stroke="#1b9e77" d="M536.21,-53C570.83,-53 575.24,-83.13 603.96,-89.01"/>
<polygon fill="#1b9e77" stroke="#1b9e77" points="603.92,-92.52 614.21,-90 604.59,-85.55 603.92,-92.52"/>
</g>
<!-- c38&#45;&gt;c28 -->
<g id="edge10" class="edge">
<title>c38:e&#45;&gt;c28:w</title>
<path fill="none" stroke="#1b9e77" stroke-width="3" d="M1683.9,-863C1742.84,-863 1688.24,-364.36 1734.77,-309.82"/>
<polygon fill="#1b9e77" stroke="#1b9e77" stroke-width="3" points="1736.69,-312.77 1743.9,-305 1733.42,-306.58 1736.69,-312.77"/>
<text text-anchor="middle" x="1713.9" y="-836.8" font-family="Times New Roman,serif" font-size="14.00" fill="#1b9e77">&lt;2&gt;</text>
</g>
</g>
</svg>
