<?xml version="1.0" encoding="UTF-8" standalone="no"?>
<!DOCTYPE svg PUBLIC "-//W3C//DTD SVG 1.1//EN"
 "http://www.w3.org/Graphics/SVG/1.1/DTD/svg11.dtd">
<!-- Generated by graphviz version 4.0.0 (20220529.0937)
 -->
<!-- Title: top_module Pages: 1 -->
<svg width="2315pt" height="955pt"
 viewBox="0.00 0.00 2314.78 955.00" xmlns="http://www.w3.org/2000/svg" xmlns:xlink="http://www.w3.org/1999/xlink">
<g id="graph0" class="graph" transform="scale(1 1) rotate(0) translate(4 951)">
<title>top_module</title>
<polygon fill="white" stroke="transparent" points="-4,4 -4,-951 2310.78,-951 2310.78,4 -4,4"/>
<text text-anchor="middle" x="1153.39" y="-7.8" font-family="Times New Roman,serif" font-size="14.00">top_module</text>
<!-- n1 -->
<g id="node1" class="node">
<title>n1</title>
<polygon fill="none" stroke="black" points="543.48,-192 395.52,-174 543.48,-156 691.45,-174 543.48,-192"/>
<text text-anchor="middle" x="543.48" y="-170.3" font-family="Times New Roman,serif" font-size="14.00">state_SB_DFFESR_Q_E</text>
</g>
<!-- c21 -->
<g id="node23" class="node">
<title>c21</title>
<polygon fill="none" stroke="black" points="727.47,-240 727.47,-332 939.47,-332 939.47,-240 727.47,-240"/>
<text text-anchor="middle" x="740.47" y="-316.8" font-family="Times New Roman,serif" font-size="14.00">C</text>
<polyline fill="none" stroke="black" points="727.47,-309 753.47,-309 "/>
<text text-anchor="middle" x="740.47" y="-293.8" font-family="Times New Roman,serif" font-size="14.00">D</text>
<polyline fill="none" stroke="black" points="727.47,-286 753.47,-286 "/>
<text text-anchor="middle" x="740.47" y="-270.8" font-family="Times New Roman,serif" font-size="14.00">E</text>
<polyline fill="none" stroke="black" points="727.47,-263 753.47,-263 "/>
<text text-anchor="middle" x="740.47" y="-247.8" font-family="Times New Roman,serif" font-size="14.00">R</text>
<polyline fill="none" stroke="black" points="753.47,-240 753.47,-332 "/>
<text text-anchor="middle" x="832.97" y="-289.8" font-family="Times New Roman,serif" font-size="14.00">state_SB_DFFESR_Q_1</text>
<text text-anchor="middle" x="832.97" y="-274.8" font-family="Times New Roman,serif" font-size="14.00">SB_DFFESR</text>
<polyline fill="none" stroke="black" points="912.47,-240 912.47,-332 "/>
<text text-anchor="middle" x="925.97" y="-282.3" font-family="Times New Roman,serif" font-size="14.00">Q</text>
</g>
<!-- n1&#45;&gt;c21 -->
<g id="edge15" class="edge">
<title>n1:e&#45;&gt;c21:w</title>
<path fill="none" stroke="#d95f02" d="M691.47,-174C734.65,-174 689.5,-257.55 717.5,-271.91"/>
<polygon fill="#d95f02" stroke="#d95f02" points="716.96,-275.38 727.47,-274 718.4,-268.52 716.96,-275.38"/>
</g>
<!-- c22 -->
<g id="node26" class="node">
<title>c22</title>
<polygon fill="none" stroke="black" points="1912.88,-101 1912.88,-193 2110.88,-193 2110.88,-101 1912.88,-101"/>
<text text-anchor="middle" x="1925.88" y="-177.8" font-family="Times New Roman,serif" font-size="14.00">C</text>
<polyline fill="none" stroke="black" points="1912.88,-170 1938.88,-170 "/>
<text text-anchor="middle" x="1925.88" y="-154.8" font-family="Times New Roman,serif" font-size="14.00">D</text>
<polyline fill="none" stroke="black" points="1912.88,-147 1938.88,-147 "/>
<text text-anchor="middle" x="1925.88" y="-131.8" font-family="Times New Roman,serif" font-size="14.00">E</text>
<polyline fill="none" stroke="black" points="1912.88,-124 1938.88,-124 "/>
<text text-anchor="middle" x="1925.88" y="-108.8" font-family="Times New Roman,serif" font-size="14.00">R</text>
<polyline fill="none" stroke="black" points="1938.88,-101 1938.88,-193 "/>
<text text-anchor="middle" x="2011.38" y="-150.8" font-family="Times New Roman,serif" font-size="14.00">state_SB_DFFESR_Q</text>
<text text-anchor="middle" x="2011.38" y="-135.8" font-family="Times New Roman,serif" font-size="14.00">SB_DFFESR</text>
<polyline fill="none" stroke="black" points="2083.88,-101 2083.88,-193 "/>
<text text-anchor="middle" x="2097.38" y="-143.3" font-family="Times New Roman,serif" font-size="14.00">Q</text>
</g>
<!-- n1&#45;&gt;c22 -->
<g id="edge16" class="edge">
<title>n1:e&#45;&gt;c22:w</title>
<path fill="none" stroke="#d95f02" d="M691.47,-174C831.99,-174 864.95,-137 1005.47,-137 1005.47,-137 1005.47,-137 1578.68,-137 1723.73,-137 1762.54,-135.09 1902.61,-135"/>
<polygon fill="#d95f02" stroke="#d95f02" points="1902.88,-138.5 1912.88,-135 1902.87,-131.5 1902.88,-138.5"/>
</g>
<!-- n2 -->
<g id="node2" class="node">
<title>n2</title>
<polygon fill="none" stroke="black" points="57.25,-129.54 57.25,-144.46 41.43,-155 19.07,-155 3.25,-144.46 3.25,-129.54 19.07,-119 41.43,-119 57.25,-129.54"/>
<text text-anchor="middle" x="30.25" y="-133.3" font-family="Times New Roman,serif" font-size="14.00">clk</text>
</g>
<!-- c13 -->
<g id="node10" class="node">
<title>c13</title>
<polygon fill="none" stroke="black" points="186.5,-128 186.5,-220 359.5,-220 359.5,-128 186.5,-128"/>
<text text-anchor="middle" x="200.5" y="-204.8" font-family="Times New Roman,serif" font-size="14.00">I0</text>
<polyline fill="none" stroke="black" points="186.5,-197 214.5,-197 "/>
<text text-anchor="middle" x="200.5" y="-181.8" font-family="Times New Roman,serif" font-size="14.00">I1</text>
<polyline fill="none" stroke="black" points="186.5,-174 214.5,-174 "/>
<text text-anchor="middle" x="200.5" y="-158.8" font-family="Times New Roman,serif" font-size="14.00">I2</text>
<polyline fill="none" stroke="black" points="186.5,-151 214.5,-151 "/>
<text text-anchor="middle" x="200.5" y="-135.8" font-family="Times New Roman,serif" font-size="14.00">I3</text>
<polyline fill="none" stroke="black" points="214.5,-128 214.5,-220 "/>
<text text-anchor="middle" x="273.5" y="-177.8" font-family="Times New Roman,serif" font-size="14.00">clk_SB_LUT4_I2</text>
<text text-anchor="middle" x="273.5" y="-162.8" font-family="Times New Roman,serif" font-size="14.00">SB_LUT4</text>
<polyline fill="none" stroke="black" points="332.5,-128 332.5,-220 "/>
<text text-anchor="middle" x="346" y="-170.3" font-family="Times New Roman,serif" font-size="14.00">O</text>
</g>
<!-- n2&#45;&gt;c13 -->
<g id="edge17" class="edge">
<title>n2:e&#45;&gt;c13:w</title>
<path fill="none" stroke="#d95f02" d="M58.25,-137C70.78,-137 146.44,-155.63 176.23,-160.73"/>
<polygon fill="#d95f02" stroke="#d95f02" points="176.15,-164.24 186.5,-162 177.01,-157.3 176.15,-164.24"/>
</g>
<!-- n2&#45;&gt;c21 -->
<g id="edge18" class="edge">
<title>n2:e&#45;&gt;c21:w</title>
<path fill="none" stroke="#d95f02" d="M58.25,-137C131.37,-137 39.97,-250.62 96.5,-297 148.62,-339.76 618.43,-322.5 717.3,-321.09"/>
<polygon fill="#d95f02" stroke="#d95f02" points="717.5,-324.59 727.47,-321 717.44,-317.59 717.5,-324.59"/>
</g>
<!-- n2&#45;&gt;c22 -->
<g id="edge19" class="edge">
<title>n2:e&#45;&gt;c22:w</title>
<path fill="none" stroke="#d95f02" d="M58.25,-137C154.74,-137 175.51,-99 272,-99 272,-99 272,-99 1578.68,-99 1728.28,-99 1758.51,-178.31 1902.75,-181.88"/>
<polygon fill="#d95f02" stroke="#d95f02" points="1902.83,-185.38 1912.88,-182 1902.92,-178.38 1902.83,-185.38"/>
</g>
<!-- n3 -->
<g id="node3" class="node">
<title>n3</title>
<polygon fill="none" stroke="black" points="2306.74,-901.54 2306.74,-916.46 2288.63,-927 2263.03,-927 2244.92,-916.46 2244.92,-901.54 2263.03,-891 2288.63,-891 2306.74,-901.54"/>
<text text-anchor="middle" x="2275.83" y="-905.3" font-family="Times New Roman,serif" font-size="14.00">done</text>
</g>
<!-- n4 -->
<g id="node4" class="node">
<title>n4</title>
<polygon fill="none" stroke="black" points="57.25,-360.54 57.25,-375.46 41.43,-386 19.07,-386 3.25,-375.46 3.25,-360.54 19.07,-350 41.43,-350 57.25,-360.54"/>
<text text-anchor="middle" x="30.25" y="-364.3" font-family="Times New Roman,serif" font-size="14.00">in</text>
</g>
<!-- x4 -->
<g id="node14" class="node">
<title>x4</title>
<path fill="none" stroke="black" d="M254,-350C254,-350 292,-350 292,-350 298,-350 304,-356 304,-362 304,-362 304,-374 304,-374 304,-380 298,-386 292,-386 292,-386 254,-386 254,-386 248,-386 242,-380 242,-374 242,-374 242,-362 242,-362 242,-356 248,-350 254,-350"/>
<text text-anchor="middle" x="273" y="-364.3" font-family="Times New Roman,serif" font-size="14.00">3:3 &#45; 0:0</text>
</g>
<!-- n4&#45;&gt;x4 -->
<g id="edge21" class="edge">
<title>n4:e&#45;&gt;x4:w</title>
<path fill="none" stroke="#1b9e77" d="M58.25,-368C135.98,-368 157.92,-368 230.86,-368"/>
<polygon fill="#1b9e77" stroke="#1b9e77" points="231,-371.5 241,-368 231,-364.5 231,-371.5"/>
</g>
<!-- n5 -->
<g id="node5" class="node">
<title>n5</title>
<polygon fill="none" stroke="black" points="1711.78,-491 1644.58,-473 1711.78,-455 1778.97,-473 1711.78,-491"/>
<text text-anchor="middle" x="1711.78" y="-469.3" font-family="Times New Roman,serif" font-size="14.00">next_state</text>
</g>
<!-- x12 -->
<g id="node24" class="node">
<title>x12</title>
<path fill="none" stroke="black" d="M1826.88,-611C1826.88,-611 1864.88,-611 1864.88,-611 1870.88,-611 1876.88,-617 1876.88,-623 1876.88,-623 1876.88,-635 1876.88,-635 1876.88,-641 1870.88,-647 1864.88,-647 1864.88,-647 1826.88,-647 1826.88,-647 1820.88,-647 1814.88,-641 1814.88,-635 1814.88,-635 1814.88,-623 1814.88,-623 1814.88,-617 1820.88,-611 1826.88,-611"/>
<text text-anchor="middle" x="1845.88" y="-625.3" font-family="Times New Roman,serif" font-size="14.00">0:0 &#45; 0:0</text>
</g>
<!-- n5&#45;&gt;x12 -->
<g id="edge24" class="edge">
<title>n5:e&#45;&gt;x12:w</title>
<path fill="none" stroke="#7570b3" d="M1778.88,-473C1846.14,-473 1754.82,-612.4 1804.74,-627.65"/>
<polygon fill="#7570b3" stroke="#7570b3" points="1804.5,-631.15 1814.88,-629 1805.42,-624.21 1804.5,-631.15"/>
</g>
<!-- x14 -->
<g id="node27" class="node">
<title>x14</title>
<path fill="none" stroke="black" d="M1826.88,-202C1826.88,-202 1864.88,-202 1864.88,-202 1870.88,-202 1876.88,-208 1876.88,-214 1876.88,-214 1876.88,-226 1876.88,-226 1876.88,-232 1870.88,-238 1864.88,-238 1864.88,-238 1826.88,-238 1826.88,-238 1820.88,-238 1814.88,-232 1814.88,-226 1814.88,-226 1814.88,-214 1814.88,-214 1814.88,-208 1820.88,-202 1826.88,-202"/>
<text text-anchor="middle" x="1845.88" y="-216.3" font-family="Times New Roman,serif" font-size="14.00">1:1 &#45; 0:0</text>
</g>
<!-- n5&#45;&gt;x14 -->
<g id="edge25" class="edge">
<title>n5:e&#45;&gt;x14:w</title>
<path fill="none" stroke="#7570b3" d="M1778.88,-473C1888.79,-473 1713.3,-236.04 1804.82,-220.77"/>
<polygon fill="#7570b3" stroke="#7570b3" points="1805.17,-224.25 1814.88,-220 1804.64,-217.28 1805.17,-224.25"/>
</g>
<!-- n6 -->
<g id="node6" class="node">
<title>n6</title>
<polygon fill="none" stroke="black" points="60.25,-53.54 60.25,-68.46 42.68,-79 17.82,-79 0.25,-68.46 0.25,-53.54 17.82,-43 42.68,-43 60.25,-53.54"/>
<text text-anchor="middle" x="30.25" y="-57.3" font-family="Times New Roman,serif" font-size="14.00">reset</text>
</g>
<!-- n6&#45;&gt;c13 -->
<g id="edge26" class="edge">
<title>n6:e&#45;&gt;c13:w</title>
<path fill="none" stroke="#666666" d="M60.5,-61C122.76,-61 121.05,-130.7 176.31,-138.33"/>
<polygon fill="#666666" stroke="#666666" points="176.29,-141.83 186.5,-139 176.75,-134.85 176.29,-141.83"/>
</g>
<!-- n6&#45;&gt;c21 -->
<g id="edge27" class="edge">
<title>n6:e&#45;&gt;c21:w</title>
<path fill="none" stroke="#666666" d="M60.5,-61C152.13,-61 26.28,-205.14 96.5,-264 114.89,-279.42 126.5,-264.27 150.5,-264 403.6,-261.15 469.25,-251.27 717.42,-251.01"/>
<polygon fill="#666666" stroke="#666666" points="717.47,-254.51 727.47,-251 717.47,-247.51 717.47,-254.51"/>
</g>
<!-- n6&#45;&gt;c22 -->
<g id="edge28" class="edge">
<title>n6:e&#45;&gt;c22:w</title>
<path fill="none" stroke="#666666" d="M60.5,-61C156.01,-61 176.5,-23 272,-23 272,-23 272,-23 1712.78,-23 1806.59,-23 1815.03,-105.68 1902.68,-111.66"/>
<polygon fill="#666666" stroke="#666666" points="1902.76,-115.16 1912.88,-112 1903,-108.17 1902.76,-115.16"/>
</g>
<!-- n7 -->
<g id="node7" class="node">
<title>n7</title>
<polygon fill="none" stroke="black" points="1112.07,-481 1073.36,-463 1112.07,-445 1150.78,-463 1112.07,-481"/>
<text text-anchor="middle" x="1112.07" y="-459.3" font-family="Times New Roman,serif" font-size="14.00">state</text>
</g>
<!-- x3 -->
<g id="node13" class="node">
<title>x3</title>
<path fill="none" stroke="black" d="M1198.68,-390C1198.68,-390 1236.68,-390 1236.68,-390 1242.68,-390 1248.68,-396 1248.68,-402 1248.68,-402 1248.68,-414 1248.68,-414 1248.68,-420 1242.68,-426 1236.68,-426 1236.68,-426 1198.68,-426 1198.68,-426 1192.68,-426 1186.68,-420 1186.68,-414 1186.68,-414 1186.68,-402 1186.68,-402 1186.68,-396 1192.68,-390 1198.68,-390"/>
<text text-anchor="middle" x="1217.68" y="-404.3" font-family="Times New Roman,serif" font-size="14.00">0:0 &#45; 0:0</text>
</g>
<!-- n7&#45;&gt;x3 -->
<g id="edge34" class="edge">
<title>n7:e&#45;&gt;x3:w</title>
<path fill="none" stroke="#a6761d" d="M1150.68,-463C1175.56,-463 1162.98,-423.12 1176.74,-411.28"/>
<polygon fill="#a6761d" stroke="#a6761d" points="1178.28,-414.46 1186.68,-408 1176.09,-407.81 1178.28,-414.46"/>
</g>
<!-- x5 -->
<g id="node15" class="node">
<title>x5</title>
<path fill="none" stroke="black" d="M1198.68,-296C1198.68,-296 1236.68,-296 1236.68,-296 1242.68,-296 1248.68,-302 1248.68,-308 1248.68,-308 1248.68,-320 1248.68,-320 1248.68,-326 1242.68,-332 1236.68,-332 1236.68,-332 1198.68,-332 1198.68,-332 1192.68,-332 1186.68,-326 1186.68,-320 1186.68,-320 1186.68,-308 1186.68,-308 1186.68,-302 1192.68,-296 1198.68,-296"/>
<text text-anchor="middle" x="1217.68" y="-310.3" font-family="Times New Roman,serif" font-size="14.00">1:1 &#45; 0:0</text>
</g>
<!-- n7&#45;&gt;x5 -->
<g id="edge35" class="edge">
<title>n7:e&#45;&gt;x5:w</title>
<path fill="none" stroke="#a6761d" d="M1150.68,-463C1214.95,-463 1129.37,-330.4 1176.66,-315.38"/>
<polygon fill="#a6761d" stroke="#a6761d" points="1177.25,-318.83 1186.68,-314 1176.29,-311.9 1177.25,-318.83"/>
</g>
<!-- x9 -->
<g id="node20" class="node">
<title>x9</title>
<path fill="none" stroke="black" d="M1198.68,-555C1198.68,-555 1236.68,-555 1236.68,-555 1242.68,-555 1248.68,-561 1248.68,-567 1248.68,-567 1248.68,-579 1248.68,-579 1248.68,-585 1242.68,-591 1236.68,-591 1236.68,-591 1198.68,-591 1198.68,-591 1192.68,-591 1186.68,-585 1186.68,-579 1186.68,-579 1186.68,-567 1186.68,-567 1186.68,-561 1192.68,-555 1198.68,-555"/>
<text text-anchor="middle" x="1217.68" y="-569.3" font-family="Times New Roman,serif" font-size="14.00">0:0 &#45; 0:0</text>
</g>
<!-- n7&#45;&gt;x9 -->
<g id="edge36" class="edge">
<title>n7:e&#45;&gt;x9:w</title>
<path fill="none" stroke="#a6761d" d="M1150.68,-463C1198.1,-463 1144.97,-556.48 1176.68,-571.09"/>
<polygon fill="#a6761d" stroke="#a6761d" points="1176.2,-574.56 1186.68,-573 1177.51,-567.69 1176.2,-574.56"/>
</g>
<!-- x10 -->
<g id="node21" class="node">
<title>x10</title>
<path fill="none" stroke="black" d="M1198.68,-500C1198.68,-500 1236.68,-500 1236.68,-500 1242.68,-500 1248.68,-506 1248.68,-512 1248.68,-512 1248.68,-524 1248.68,-524 1248.68,-530 1242.68,-536 1236.68,-536 1236.68,-536 1198.68,-536 1198.68,-536 1192.68,-536 1186.68,-530 1186.68,-524 1186.68,-524 1186.68,-512 1186.68,-512 1186.68,-506 1192.68,-500 1198.68,-500"/>
<text text-anchor="middle" x="1217.68" y="-514.3" font-family="Times New Roman,serif" font-size="14.00">1:1 &#45; 0:0</text>
</g>
<!-- n7&#45;&gt;x10 -->
<g id="edge31" class="edge">
<title>n7:e&#45;&gt;x10:w</title>
<path fill="none" stroke="#a6761d" d="M1150.68,-463C1175.56,-463 1162.98,-502.88 1176.74,-514.72"/>
<polygon fill="#a6761d" stroke="#a6761d" points="1176.09,-518.19 1186.68,-518 1178.28,-511.54 1176.09,-518.19"/>
</g>
<!-- x18 -->
<g id="node32" class="node">
<title>x18</title>
<path fill="none" stroke="black" d="M1198.68,-774C1198.68,-774 1236.68,-774 1236.68,-774 1242.68,-774 1248.68,-780 1248.68,-786 1248.68,-786 1248.68,-798 1248.68,-798 1248.68,-804 1242.68,-810 1236.68,-810 1236.68,-810 1198.68,-810 1198.68,-810 1192.68,-810 1186.68,-804 1186.68,-798 1186.68,-798 1186.68,-786 1186.68,-786 1186.68,-780 1192.68,-774 1198.68,-774"/>
<text text-anchor="middle" x="1217.68" y="-788.3" font-family="Times New Roman,serif" font-size="14.00">0:0 &#45; 0:0</text>
</g>
<!-- n7&#45;&gt;x18 -->
<g id="edge32" class="edge">
<title>n7:e&#45;&gt;x18:w</title>
<path fill="none" stroke="#a6761d" d="M1150.68,-463C1220.49,-463 1123.94,-759.43 1176.85,-789.54"/>
<polygon fill="#a6761d" stroke="#a6761d" points="1176.13,-792.97 1186.68,-792 1177.83,-786.18 1176.13,-792.97"/>
</g>
<!-- x19 -->
<g id="node33" class="node">
<title>x19</title>
<path fill="none" stroke="black" d="M1198.68,-719C1198.68,-719 1236.68,-719 1236.68,-719 1242.68,-719 1248.68,-725 1248.68,-731 1248.68,-731 1248.68,-743 1248.68,-743 1248.68,-749 1242.68,-755 1236.68,-755 1236.68,-755 1198.68,-755 1198.68,-755 1192.68,-755 1186.68,-749 1186.68,-743 1186.68,-743 1186.68,-731 1186.68,-731 1186.68,-725 1192.68,-719 1198.68,-719"/>
<text text-anchor="middle" x="1217.68" y="-733.3" font-family="Times New Roman,serif" font-size="14.00">1:1 &#45; 0:0</text>
</g>
<!-- n7&#45;&gt;x19 -->
<g id="edge33" class="edge">
<title>n7:e&#45;&gt;x19:w</title>
<path fill="none" stroke="#a6761d" d="M1150.68,-463C1208.37,-463 1135.24,-704.82 1177.09,-734.11"/>
<polygon fill="#a6761d" stroke="#a6761d" points="1176.09,-737.46 1186.68,-737 1178.11,-730.76 1176.09,-737.46"/>
</g>
<!-- v0 -->
<g id="node8" class="node">
<title>v0</title>
<ellipse fill="none" stroke="black" cx="123.5" cy="-237" rx="27" ry="18"/>
<text text-anchor="middle" x="123.5" y="-233.3" font-family="Times New Roman,serif" font-size="14.00">1&#39;0</text>
</g>
<!-- v0&#45;&gt;c13 -->
<g id="edge37" class="edge">
<title>v0:e&#45;&gt;c13:w</title>
<path fill="none" stroke="#7570b3" d="M150.5,-237C166.65,-237 167.05,-219.22 176.8,-212"/>
<polygon fill="#7570b3" stroke="#7570b3" points="177.98,-215.3 186.5,-209 175.91,-208.61 177.98,-215.3"/>
</g>
<!-- v1 -->
<g id="node9" class="node">
<title>v1</title>
<ellipse fill="none" stroke="black" cx="123.5" cy="-183" rx="27" ry="18"/>
<text text-anchor="middle" x="123.5" y="-179.3" font-family="Times New Roman,serif" font-size="14.00">1&#39;0</text>
</g>
<!-- v1&#45;&gt;c13 -->
<g id="edge38" class="edge">
<title>v1:e&#45;&gt;c13:w</title>
<path fill="none" stroke="#a6761d" d="M150.5,-183C162.54,-183 167.74,-184.69 176.36,-185.53"/>
<polygon fill="#a6761d" stroke="#a6761d" points="176.35,-189.03 186.5,-186 176.67,-182.04 176.35,-189.03"/>
</g>
<!-- c13&#45;&gt;n1 -->
<g id="edge14" class="edge">
<title>c13:e&#45;&gt;n1:w</title>
<path fill="none" stroke="#d95f02" d="M359.5,-174C371.5,-174 376.75,-174 385.38,-174"/>
<polygon fill="#d95f02" stroke="#d95f02" points="385.5,-177.5 395.5,-174 385.5,-170.5 385.5,-177.5"/>
</g>
<!-- v2 -->
<g id="node11" class="node">
<title>v2</title>
<ellipse fill="none" stroke="black" cx="1217.68" cy="-463" rx="27" ry="18"/>
<text text-anchor="middle" x="1217.68" y="-459.3" font-family="Times New Roman,serif" font-size="14.00">1&#39;0</text>
</g>
<!-- c14 -->
<g id="node12" class="node">
<title>c14</title>
<polygon fill="none" stroke="black" points="1284.68,-350 1284.68,-442 1510.68,-442 1510.68,-350 1284.68,-350"/>
<text text-anchor="middle" x="1298.68" y="-426.8" font-family="Times New Roman,serif" font-size="14.00">I0</text>
<polyline fill="none" stroke="black" points="1284.68,-419 1312.68,-419 "/>
<text text-anchor="middle" x="1298.68" y="-403.8" font-family="Times New Roman,serif" font-size="14.00">I1</text>
<polyline fill="none" stroke="black" points="1284.68,-396 1312.68,-396 "/>
<text text-anchor="middle" x="1298.68" y="-380.8" font-family="Times New Roman,serif" font-size="14.00">I2</text>
<polyline fill="none" stroke="black" points="1284.68,-373 1312.68,-373 "/>
<text text-anchor="middle" x="1298.68" y="-357.8" font-family="Times New Roman,serif" font-size="14.00">I3</text>
<polyline fill="none" stroke="black" points="1312.68,-350 1312.68,-442 "/>
<text text-anchor="middle" x="1398.18" y="-399.8" font-family="Times New Roman,serif" font-size="14.00">next_state_SB_LUT4_O_1</text>
<text text-anchor="middle" x="1398.18" y="-384.8" font-family="Times New Roman,serif" font-size="14.00">SB_LUT4</text>
<polyline fill="none" stroke="black" points="1483.68,-350 1483.68,-442 "/>
<text text-anchor="middle" x="1497.18" y="-392.3" font-family="Times New Roman,serif" font-size="14.00">O</text>
</g>
<!-- v2&#45;&gt;c14 -->
<g id="edge41" class="edge">
<title>v2:e&#45;&gt;c14:w</title>
<path fill="none" stroke="#66a61e" d="M1245.68,-463C1264.07,-463 1263.44,-441.47 1275,-433.73"/>
<polygon fill="#66a61e" stroke="#66a61e" points="1276,-437.08 1284.68,-431 1274.1,-430.35 1276,-437.08"/>
</g>
<!-- x6 -->
<g id="node16" class="node">
<title>x6</title>
<path fill="none" stroke="black" d="M1558.68,-411C1558.68,-411 1596.68,-411 1596.68,-411 1602.68,-411 1608.68,-417 1608.68,-423 1608.68,-423 1608.68,-435 1608.68,-435 1608.68,-441 1602.68,-447 1596.68,-447 1596.68,-447 1558.68,-447 1558.68,-447 1552.68,-447 1546.68,-441 1546.68,-435 1546.68,-435 1546.68,-423 1546.68,-423 1546.68,-417 1552.68,-411 1558.68,-411"/>
<text text-anchor="middle" x="1577.68" y="-425.3" font-family="Times New Roman,serif" font-size="14.00">0:0 &#45; 0:0</text>
</g>
<!-- c14&#45;&gt;x6 -->
<g id="edge4" class="edge">
<title>c14:e&#45;&gt;x6:w</title>
<path fill="none" stroke="#7570b3" d="M1521.89,-400.59C1527.82,-406.82 1529.46,-417.91 1535.3,-424.24"/>
<polygon fill="none" stroke="#7570b3" points="1521.78,-400.54 1514.72,-401.97 1510.68,-396 1517.75,-394.57 1521.78,-400.54"/>
<polygon fill="none" stroke="#7570b3" points="1535.61,-424.37 1542.69,-422.99 1546.68,-429 1539.6,-430.37 1535.61,-424.37"/>
</g>
<!-- x3&#45;&gt;c14 -->
<g id="edge1" class="edge">
<title>x3:e&#45;&gt;c14:w</title>
<path fill="none" stroke="#66a61e" d="M1260.89,-408C1264.97,-408 1268.41,-408 1272.49,-408"/>
<polygon fill="none" stroke="#66a61e" points="1260.68,-408 1254.68,-412 1248.68,-408 1254.68,-404 1260.68,-408"/>
<polygon fill="none" stroke="#66a61e" points="1272.68,-408 1278.68,-404 1284.68,-408 1278.68,-412 1272.68,-408"/>
</g>
<!-- x4&#45;&gt;c14 -->
<g id="edge2" class="edge">
<title>x4:e&#45;&gt;c14:w</title>
<path fill="none" stroke="#1b9e77" d="M317.2,-367.99C541.56,-367.76 602.14,-361 832.47,-361 832.47,-361 832.47,-361 1113.07,-361 1129.91,-361 1233.94,-378.61 1272.57,-383.01"/>
<polygon fill="none" stroke="#1b9e77" points="317,-367.99 311,-372 305,-368 311,-364 317,-367.99"/>
<polygon fill="none" stroke="#1b9e77" points="1272.72,-383.02 1279.02,-379.53 1284.68,-384 1278.37,-387.5 1272.72,-383.02"/>
</g>
<!-- x5&#45;&gt;c14 -->
<g id="edge3" class="edge">
<title>x5:e&#45;&gt;c14:w</title>
<path fill="none" stroke="#1b9e77" d="M1259.82,-318.68C1267.64,-327.69 1265.72,-347.35 1273.55,-356.34"/>
<polygon fill="none" stroke="#1b9e77" points="1259.74,-318.65 1252.66,-320.01 1248.68,-314 1255.76,-312.63 1259.74,-318.65"/>
<polygon fill="none" stroke="#1b9e77" points="1273.61,-356.36 1280.69,-354.99 1284.68,-361 1277.6,-362.37 1273.61,-356.36"/>
</g>
<!-- x6&#45;&gt;n5 -->
<g id="edge23" class="edge">
<title>x6:e&#45;&gt;n5:w</title>
<path fill="none" stroke="#7570b3" d="M1608.68,-429C1629.8,-429 1623.11,-459.75 1635.1,-469.84"/>
<polygon fill="#7570b3" stroke="#7570b3" points="1634.08,-473.18 1644.68,-473 1636.28,-466.54 1634.08,-473.18"/>
</g>
<!-- v7 -->
<g id="node17" class="node">
<title>v7</title>
<ellipse fill="none" stroke="black" cx="1217.68" cy="-682" rx="27" ry="18"/>
<text text-anchor="middle" x="1217.68" y="-678.3" font-family="Times New Roman,serif" font-size="14.00">1&#39;0</text>
</g>
<!-- c15 -->
<g id="node19" class="node">
<title>c15</title>
<polygon fill="none" stroke="black" points="1291.68,-539 1291.68,-631 1503.68,-631 1503.68,-539 1291.68,-539"/>
<text text-anchor="middle" x="1305.68" y="-615.8" font-family="Times New Roman,serif" font-size="14.00">I0</text>
<polyline fill="none" stroke="black" points="1291.68,-608 1319.68,-608 "/>
<text text-anchor="middle" x="1305.68" y="-592.8" font-family="Times New Roman,serif" font-size="14.00">I1</text>
<polyline fill="none" stroke="black" points="1291.68,-585 1319.68,-585 "/>
<text text-anchor="middle" x="1305.68" y="-569.8" font-family="Times New Roman,serif" font-size="14.00">I2</text>
<polyline fill="none" stroke="black" points="1291.68,-562 1319.68,-562 "/>
<text text-anchor="middle" x="1305.68" y="-546.8" font-family="Times New Roman,serif" font-size="14.00">I3</text>
<polyline fill="none" stroke="black" points="1319.68,-539 1319.68,-631 "/>
<text text-anchor="middle" x="1398.18" y="-588.8" font-family="Times New Roman,serif" font-size="14.00">next_state_SB_LUT4_O</text>
<text text-anchor="middle" x="1398.18" y="-573.8" font-family="Times New Roman,serif" font-size="14.00">SB_LUT4</text>
<polyline fill="none" stroke="black" points="1476.68,-539 1476.68,-631 "/>
<text text-anchor="middle" x="1490.18" y="-581.3" font-family="Times New Roman,serif" font-size="14.00">O</text>
</g>
<!-- v7&#45;&gt;c15 -->
<g id="edge42" class="edge">
<title>v7:e&#45;&gt;c15:w</title>
<path fill="none" stroke="#a6761d" d="M1245.68,-682C1275.74,-682 1261.26,-633.68 1280.88,-622.35"/>
<polygon fill="#a6761d" stroke="#a6761d" points="1281.77,-625.74 1290.68,-620 1280.14,-618.93 1281.77,-625.74"/>
</g>
<!-- v8 -->
<g id="node18" class="node">
<title>v8</title>
<ellipse fill="none" stroke="black" cx="1217.68" cy="-628" rx="27" ry="18"/>
<text text-anchor="middle" x="1217.68" y="-624.3" font-family="Times New Roman,serif" font-size="14.00">1&#39;0</text>
</g>
<!-- v8&#45;&gt;c15 -->
<g id="edge43" class="edge">
<title>v8:e&#45;&gt;c15:w</title>
<path fill="none" stroke="#7570b3" d="M1245.68,-628C1265.98,-628 1266.81,-606.34 1280.73,-599.23"/>
<polygon fill="#7570b3" stroke="#7570b3" points="1281.69,-602.6 1290.68,-597 1280.15,-595.77 1281.69,-602.6"/>
</g>
<!-- x11 -->
<g id="node22" class="node">
<title>x11</title>
<path fill="none" stroke="black" d="M1558.68,-500C1558.68,-500 1596.68,-500 1596.68,-500 1602.68,-500 1608.68,-506 1608.68,-512 1608.68,-512 1608.68,-524 1608.68,-524 1608.68,-530 1602.68,-536 1596.68,-536 1596.68,-536 1558.68,-536 1558.68,-536 1552.68,-536 1546.68,-530 1546.68,-524 1546.68,-524 1546.68,-512 1546.68,-512 1546.68,-506 1552.68,-500 1558.68,-500"/>
<text text-anchor="middle" x="1577.68" y="-514.3" font-family="Times New Roman,serif" font-size="14.00">0:0 &#45; 1:1</text>
</g>
<!-- c15&#45;&gt;x11 -->
<g id="edge7" class="edge">
<title>c15:e&#45;&gt;x11:w</title>
<path fill="none" stroke="#7570b3" d="M1516.55,-581.01C1530.03,-569.06 1521.32,-533.69 1534.93,-521.89"/>
<polygon fill="none" stroke="#7570b3" points="1516.05,-581.18 1511.64,-586.88 1504.68,-585 1509.09,-579.3 1516.05,-581.18"/>
<polygon fill="none" stroke="#7570b3" points="1535.28,-521.77 1539.73,-516.09 1546.68,-518 1542.24,-523.68 1535.28,-521.77"/>
</g>
<!-- x9&#45;&gt;c15 -->
<g id="edge5" class="edge">
<title>x9:e&#45;&gt;c15:w</title>
<path fill="none" stroke="#e7298a" d="M1260.8,-573C1267.29,-573 1272.16,-573 1278.66,-573"/>
<polygon fill="none" stroke="#e7298a" points="1260.68,-573 1254.68,-577 1248.68,-573 1254.68,-569 1260.68,-573"/>
<polygon fill="none" stroke="#e7298a" points="1278.68,-573 1284.68,-569 1290.68,-573 1284.68,-577 1278.68,-573"/>
</g>
<!-- x10&#45;&gt;c15 -->
<g id="edge6" class="edge">
<title>x10:e&#45;&gt;c15:w</title>
<path fill="none" stroke="#e7298a" d="M1260.27,-521.67C1268.39,-527.84 1271,-540.23 1279.14,-546.37"/>
<polygon fill="none" stroke="#e7298a" points="1260.12,-521.62 1253.19,-523.62 1248.68,-518 1255.61,-516 1260.12,-521.62"/>
<polygon fill="none" stroke="#e7298a" points="1279.23,-546.4 1286.15,-544.38 1290.68,-550 1283.75,-552.02 1279.23,-546.4"/>
</g>
<!-- x11&#45;&gt;n5 -->
<g id="edge22" class="edge">
<title>x11:e&#45;&gt;n5:w</title>
<path fill="none" stroke="#7570b3" d="M1608.68,-518C1630.09,-518 1622.96,-486.55 1635.01,-476.24"/>
<polygon fill="#7570b3" stroke="#7570b3" points="1636.31,-479.49 1644.68,-473 1634.08,-472.85 1636.31,-479.49"/>
</g>
<!-- x13 -->
<g id="node25" class="node">
<title>x13</title>
<path fill="none" stroke="black" d="M987.47,-282C987.47,-282 1025.47,-282 1025.47,-282 1031.47,-282 1037.47,-288 1037.47,-294 1037.47,-294 1037.47,-306 1037.47,-306 1037.47,-312 1031.47,-318 1025.47,-318 1025.47,-318 987.47,-318 987.47,-318 981.47,-318 975.47,-312 975.47,-306 975.47,-306 975.47,-294 975.47,-294 975.47,-288 981.47,-282 987.47,-282"/>
<text text-anchor="middle" x="1006.47" y="-296.3" font-family="Times New Roman,serif" font-size="14.00">0:0 &#45; 0:0</text>
</g>
<!-- c21&#45;&gt;x13 -->
<g id="edge9" class="edge">
<title>c21:e&#45;&gt;x13:w</title>
<path fill="none" stroke="#1b9e77" d="M951.22,-288.83C955.78,-291.26 959.17,-294.74 963.73,-297.17"/>
<polygon fill="none" stroke="#1b9e77" points="951.13,-288.81 944.36,-291.29 939.47,-286 946.24,-283.52 951.13,-288.81"/>
<polygon fill="none" stroke="#1b9e77" points="963.8,-297.19 970.57,-294.71 975.47,-300 968.7,-302.48 963.8,-297.19"/>
</g>
<!-- x12&#45;&gt;c21 -->
<g id="edge8" class="edge">
<title>x12:e&#45;&gt;c21:w</title>
<path fill="none" stroke="#d95f02" d="M1889.83,-630.71C1938.78,-650.88 1592.83,-843.39 1510.68,-891 1462.53,-918.91 1454.33,-947 1398.68,-947 1111.07,-947 1111.07,-947 1111.07,-947 1032.33,-947 688.12,-374.21 716.22,-304.85"/>
<polygon fill="none" stroke="#d95f02" points="1889.75,-630.7 1883.25,-633.81 1877.88,-629 1884.38,-625.89 1889.75,-630.7"/>
<polygon fill="none" stroke="#d95f02" points="716.49,-304.67 719.26,-298.01 726.47,-298 723.7,-304.66 716.49,-304.67"/>
</g>
<!-- x13&#45;&gt;n7 -->
<g id="edge29" class="edge">
<title>x13:e&#45;&gt;n7:w</title>
<path fill="none" stroke="#a6761d" d="M1037.47,-300C1107.75,-300 1010.61,-446.26 1063.23,-461.69"/>
<polygon fill="#a6761d" stroke="#a6761d" points="1063.11,-465.2 1073.47,-463 1064,-458.26 1063.11,-465.2"/>
</g>
<!-- x15 -->
<g id="node28" class="node">
<title>x15</title>
<path fill="none" stroke="black" d="M2158.88,-189C2158.88,-189 2196.88,-189 2196.88,-189 2202.88,-189 2208.88,-195 2208.88,-201 2208.88,-201 2208.88,-213 2208.88,-213 2208.88,-219 2202.88,-225 2196.88,-225 2196.88,-225 2158.88,-225 2158.88,-225 2152.88,-225 2146.88,-219 2146.88,-213 2146.88,-213 2146.88,-201 2146.88,-201 2146.88,-195 2152.88,-189 2158.88,-189"/>
<text text-anchor="middle" x="2177.88" y="-203.3" font-family="Times New Roman,serif" font-size="14.00">0:0 &#45; 1:1</text>
</g>
<!-- c22&#45;&gt;x15 -->
<g id="edge11" class="edge">
<title>c22:e&#45;&gt;x15:w</title>
<path fill="none" stroke="#e6ab02" d="M2122.41,-151.71C2132.17,-162.98 2125.56,-191.4 2135.5,-202.48"/>
<polygon fill="none" stroke="#e6ab02" points="2121.99,-151.53 2114.92,-152.97 2110.88,-147 2117.94,-145.56 2121.99,-151.53"/>
<polygon fill="none" stroke="#e6ab02" points="2135.72,-202.57 2142.78,-201.07 2146.88,-207 2139.82,-208.5 2135.72,-202.57"/>
</g>
<!-- x14&#45;&gt;c22 -->
<g id="edge10" class="edge">
<title>x14:e&#45;&gt;c22:w</title>
<path fill="none" stroke="#1b9e77" d="M1888.17,-215.61C1898.56,-204.36 1891.19,-174.56 1901.62,-163.35"/>
<polygon fill="none" stroke="#1b9e77" points="1888.06,-215.65 1883.92,-221.56 1876.88,-220 1881.02,-214.1 1888.06,-215.65"/>
<polygon fill="none" stroke="#1b9e77" points="1901.68,-163.32 1905.84,-157.43 1912.88,-159 1908.72,-164.89 1901.68,-163.32"/>
</g>
<!-- x15&#45;&gt;n7 -->
<g id="edge30" class="edge">
<title>x15:e&#45;&gt;n7:w</title>
<path fill="none" stroke="#a6761d" d="M2209.88,-207C2218.11,-207 2214.52,-219.51 2208.88,-225.5 2097.86,-343.4 2008.82,-267 1846.88,-267 1396.68,-267 1396.68,-267 1396.68,-267 1302.96,-267 1255.93,-222.86 1186.68,-286 1121.55,-345.38 1218.42,-424.62 1150.68,-481 1124.17,-503.06 1098.13,-504.7 1073.07,-481 1070.71,-478.76 1068.78,-475.37 1067.86,-472.14"/>
<polygon fill="#a6761d" stroke="#a6761d" points="1071.06,-473.55 1072.07,-463 1064.7,-470.61 1071.06,-473.55"/>
</g>
<!-- v16 -->
<g id="node29" class="node">
<title>v16</title>
<ellipse fill="none" stroke="black" cx="1217.68" cy="-901" rx="27" ry="18"/>
<text text-anchor="middle" x="1217.68" y="-897.3" font-family="Times New Roman,serif" font-size="14.00">1&#39;0</text>
</g>
<!-- c23 -->
<g id="node31" class="node">
<title>c23</title>
<polygon fill="none" stroke="black" points="1306.18,-789 1306.18,-881 1489.18,-881 1489.18,-789 1306.18,-789"/>
<text text-anchor="middle" x="1320.18" y="-865.8" font-family="Times New Roman,serif" font-size="14.00">I0</text>
<polyline fill="none" stroke="black" points="1306.18,-858 1334.18,-858 "/>
<text text-anchor="middle" x="1320.18" y="-842.8" font-family="Times New Roman,serif" font-size="14.00">I1</text>
<polyline fill="none" stroke="black" points="1306.18,-835 1334.18,-835 "/>
<text text-anchor="middle" x="1320.18" y="-819.8" font-family="Times New Roman,serif" font-size="14.00">I2</text>
<polyline fill="none" stroke="black" points="1306.18,-812 1334.18,-812 "/>
<text text-anchor="middle" x="1320.18" y="-796.8" font-family="Times New Roman,serif" font-size="14.00">I3</text>
<polyline fill="none" stroke="black" points="1334.18,-789 1334.18,-881 "/>
<text text-anchor="middle" x="1398.18" y="-838.8" font-family="Times New Roman,serif" font-size="14.00">done_SB_LUT4_O</text>
<text text-anchor="middle" x="1398.18" y="-823.8" font-family="Times New Roman,serif" font-size="14.00">SB_LUT4</text>
<polyline fill="none" stroke="black" points="1462.18,-789 1462.18,-881 "/>
<text text-anchor="middle" x="1475.68" y="-831.3" font-family="Times New Roman,serif" font-size="14.00">O</text>
</g>
<!-- v16&#45;&gt;c23 -->
<g id="edge39" class="edge">
<title>v16:e&#45;&gt;c23:w</title>
<path fill="none" stroke="#e6ab02" d="M1245.68,-901C1271.48,-901 1274.62,-877.48 1294.58,-871.41"/>
<polygon fill="#e6ab02" stroke="#e6ab02" points="1295.26,-874.85 1304.68,-870 1294.29,-867.92 1295.26,-874.85"/>
</g>
<!-- v17 -->
<g id="node30" class="node">
<title>v17</title>
<ellipse fill="none" stroke="black" cx="1217.68" cy="-847" rx="27" ry="18"/>
<text text-anchor="middle" x="1217.68" y="-843.3" font-family="Times New Roman,serif" font-size="14.00">1&#39;0</text>
</g>
<!-- v17&#45;&gt;c23 -->
<g id="edge40" class="edge">
<title>v17:e&#45;&gt;c23:w</title>
<path fill="none" stroke="#1b9e77" d="M1245.68,-847C1268.21,-847 1276.22,-847 1294.67,-847"/>
<polygon fill="#1b9e77" stroke="#1b9e77" points="1294.68,-850.5 1304.68,-847 1294.68,-843.5 1294.68,-850.5"/>
</g>
<!-- c23&#45;&gt;n3 -->
<g id="edge20" class="edge">
<title>c23:e&#45;&gt;n3:w</title>
<path fill="none" stroke="#1b9e77" d="M1490.68,-835C1593.88,-835 1607.57,-909 1710.78,-909 1710.78,-909 1710.78,-909 2012.88,-909 2112.56,-909 2139.97,-909 2234.85,-909"/>
<polygon fill="#1b9e77" stroke="#1b9e77" points="2234.88,-912.5 2244.88,-909 2234.88,-905.5 2234.88,-912.5"/>
</g>
<!-- x18&#45;&gt;c23 -->
<g id="edge12" class="edge">
<title>x18:e&#45;&gt;c23:w</title>
<path fill="none" stroke="#e6ab02" d="M1260.57,-794.23C1274.29,-799.95 1279.09,-815.09 1292.84,-820.79"/>
<polygon fill="none" stroke="#e6ab02" points="1260.47,-794.21 1253.84,-797.04 1248.68,-792 1255.31,-789.17 1260.47,-794.21"/>
<polygon fill="none" stroke="#e6ab02" points="1292.88,-820.8 1299.51,-817.97 1304.68,-823 1298.05,-825.83 1292.88,-820.8"/>
</g>
<!-- x19&#45;&gt;c23 -->
<g id="edge13" class="edge">
<title>x19:e&#45;&gt;c23:w</title>
<path fill="none" stroke="#d95f02" d="M1260.6,-739.87C1279.08,-750.41 1274.32,-786.92 1292.98,-797.26"/>
<polygon fill="none" stroke="#d95f02" points="1260.34,-739.81 1253.57,-742.29 1248.68,-737 1255.45,-734.52 1260.34,-739.81"/>
<polygon fill="none" stroke="#d95f02" points="1293,-797.26 1299.75,-794.73 1304.68,-800 1297.92,-802.52 1293,-797.26"/>
</g>
</g>
</svg>
