<svg xmlns="http://www.w3.org/2000/svg" xmlns:xlink="http://www.w3.org/1999/xlink" xmlns:s="https://github.com/nturley/netlistsvg" width="1042" height="517.5">
  <style>svg {
    stroke:#000;
    fill:none;
  }
  text {
    fill:#000;
    stroke:none;
    font-size:10px;
    font-weight: bold;
    font-family: "Courier New", monospace;
  }
  .nodelabel {
    text-anchor: middle;
  }
  .inputPortLabel {
    text-anchor: end;
  }
  .splitjoinBody {
    fill:#000;
  }</style>
  <g s:type="generic" transform="translate(326,86)" s:width="30" s:height="40" id="cell_$auto$opt_reduce.cc:128:opt_mux$21">
    <text x="15" y="-4" class="nodelabel cell_$auto$opt_reduce.cc:128:opt_mux$21" s:attribute="ref">$reduce_or</text>
    <rect width="30" height="20" s:generic="body" class="cell_$auto$opt_reduce.cc:128:opt_mux$21"/>
    <g transform="translate(0,10)" s:x="0" s:y="10" s:pid="in0" id="port_$auto$opt_reduce.cc:128:opt_mux$21~A">
      <text x="-3" y="-4" class="inputPortLabel cell_$auto$opt_reduce.cc:128:opt_mux$21">A</text>
    </g>
    <g transform="translate(30,10)" s:x="30" s:y="10" s:pid="out0" id="port_$auto$opt_reduce.cc:128:opt_mux$21~Y">
      <text x="5" y="-4" style="fill:#000; stroke:none" class="cell_$auto$opt_reduce.cc:128:opt_mux$21">Y</text>
    </g>
  </g>
  <g s:type="generic" transform="translate(326,293)" s:width="30" s:height="40" id="cell_$auto$opt_reduce.cc:128:opt_mux$23">
    <text x="15" y="-4" class="nodelabel cell_$auto$opt_reduce.cc:128:opt_mux$23" s:attribute="ref">$reduce_or</text>
    <rect width="30" height="20" s:generic="body" class="cell_$auto$opt_reduce.cc:128:opt_mux$23"/>
    <g transform="translate(0,10)" s:x="0" s:y="10" s:pid="in0" id="port_$auto$opt_reduce.cc:128:opt_mux$23~A">
      <text x="-3" y="-4" class="inputPortLabel cell_$auto$opt_reduce.cc:128:opt_mux$23">A</text>
    </g>
    <g transform="translate(30,10)" s:x="30" s:y="10" s:pid="out0" id="port_$auto$opt_reduce.cc:128:opt_mux$23~Y">
      <text x="5" y="-4" style="fill:#000; stroke:none" class="cell_$auto$opt_reduce.cc:128:opt_mux$23">Y</text>
    </g>
  </g>
  <g s:type="dff" transform="translate(815,94)" s:width="30" s:height="40" id="cell_$procdff$20">
    <s:alias val="$dff"/>
    <s:alias val="$_DFF_"/>
    <s:alias val="$_DFF_P_"/>
    <rect width="30" height="40" x="0" y="0" class="cell_$procdff$20"/>
    <path d="M0,35 L5,30 L0,25" class="cell_$procdff$20"/>
    <g s:x="30" s:y="10" s:pid="Q"/>
    <g s:x="0" s:y="30" s:pid="CLK"/>
    <g s:x="0" s:y="30" s:pid="C"/>
    <g s:x="0" s:y="10" s:pid="D"/>
  </g>
  <g s:type="mux" transform="translate(760,84)" s:width="20" s:height="40" id="cell_$procmux$11">
    <s:alias val="$pmux"/>
    <s:alias val="$mux"/>
    <s:alias val="$_MUX_"/>
    <path d="M0,0 L20,10 L20,30 L0,40 Z" class="cell_$procmux$11"/>
    <g s:x="0" s:y="10" s:pid="A"/>
    <g s:x="0" s:y="30" s:pid="B"/>
    <g s:x="10" s:y="35" s:pid="S"/>
    <g s:x="20" s:y="20" s:pid="Y"/>
  </g>
  <g s:type="mux" transform="translate(635,84)" s:width="20" s:height="40" id="cell_$procmux$13">
    <s:alias val="$pmux"/>
    <s:alias val="$mux"/>
    <s:alias val="$_MUX_"/>
    <path d="M0,0 L20,10 L20,30 L0,40 Z" class="cell_$procmux$13"/>
    <g s:x="0" s:y="10" s:pid="A"/>
    <g s:x="0" s:y="30" s:pid="B"/>
    <g s:x="10" s:y="35" s:pid="S"/>
    <g s:x="20" s:y="20" s:pid="Y"/>
  </g>
  <g s:type="eq" transform="translate(190.66666666666666,74)" s:width="25" s:height="25" id="cell_$procmux$14_CMP0">
    <s:alias val="$eq"/>
    <circle r="12.5" cx="12.5" cy="12.5" class="cell_$procmux$14_CMP0"/>
    <line x1="7.5" x2="17.5" y1="10" y2="10" class="cell_$procmux$14_CMP0"/>
    <line x1="7.5" x2="17.5" y1="15" y2="15" class="cell_$procmux$14_CMP0"/>
    <g s:x="3" s:y="5" s:pid="A"/>
    <g s:x="3" s:y="20" s:pid="B"/>
    <g s:x="25" s:y="12.5" s:pid="Y"/>
  </g>
  <g s:type="eq" transform="translate(190.66666666666666,281)" s:width="25" s:height="25" id="cell_$procmux$15_CMP0">
    <s:alias val="$eq"/>
    <circle r="12.5" cx="12.5" cy="12.5" class="cell_$procmux$15_CMP0"/>
    <line x1="7.5" x2="17.5" y1="10" y2="10" class="cell_$procmux$15_CMP0"/>
    <line x1="7.5" x2="17.5" y1="15" y2="15" class="cell_$procmux$15_CMP0"/>
    <g s:x="3" s:y="5" s:pid="A"/>
    <g s:x="3" s:y="20" s:pid="B"/>
    <g s:x="25" s:y="12.5" s:pid="Y"/>
  </g>
  <g s:type="eq" transform="translate(385,358)" s:width="25" s:height="25" id="cell_$procmux$16_CMP0">
    <s:alias val="$eq"/>
    <circle r="12.5" cx="12.5" cy="12.5" class="cell_$procmux$16_CMP0"/>
    <line x1="7.5" x2="17.5" y1="10" y2="10" class="cell_$procmux$16_CMP0"/>
    <line x1="7.5" x2="17.5" y1="15" y2="15" class="cell_$procmux$16_CMP0"/>
    <g s:x="3" s:y="5" s:pid="A"/>
    <g s:x="3" s:y="20" s:pid="B"/>
    <g s:x="25" s:y="12.5" s:pid="Y"/>
  </g>
  <g s:type="eq" transform="translate(385,459.5)" s:width="25" s:height="25" id="cell_$procmux$17_CMP0">
    <s:alias val="$eq"/>
    <circle r="12.5" cx="12.5" cy="12.5" class="cell_$procmux$17_CMP0"/>
    <line x1="7.5" x2="17.5" y1="10" y2="10" class="cell_$procmux$17_CMP0"/>
    <line x1="7.5" x2="17.5" y1="15" y2="15" class="cell_$procmux$17_CMP0"/>
    <g s:x="3" s:y="5" s:pid="A"/>
    <g s:x="3" s:y="20" s:pid="B"/>
    <g s:x="25" s:y="12.5" s:pid="Y"/>
  </g>
  <g s:type="eq" transform="translate(190.66666666666666,156.5)" s:width="25" s:height="25" id="cell_$procmux$18_CMP0">
    <s:alias val="$eq"/>
    <circle r="12.5" cx="12.5" cy="12.5" class="cell_$procmux$18_CMP0"/>
    <line x1="7.5" x2="17.5" y1="10" y2="10" class="cell_$procmux$18_CMP0"/>
    <line x1="7.5" x2="17.5" y1="15" y2="15" class="cell_$procmux$18_CMP0"/>
    <g s:x="3" s:y="5" s:pid="A"/>
    <g s:x="3" s:y="20" s:pid="B"/>
    <g s:x="25" s:y="12.5" s:pid="Y"/>
  </g>
  <g s:type="not" transform="translate(189,341)" s:width="30" s:height="20" id="cell_$procmux$19_CMP0">
    <s:alias val="$_NOT_"/>
    <s:alias val="$not"/>
    <s:alias val="$logic_not"/>
    <path d="M0,0 L0,20 L20,10 Z" class="cell_$procmux$19_CMP0"/>
    <circle cx="23" cy="10" r="3" class="cell_$procmux$19_CMP0"/>
    <g s:x="0" s:y="10" s:pid="A"/>
    <g s:x="25" s:y="10" s:pid="Y"/>
  </g>
  <g s:type="mux" transform="translate(945,22)" s:width="20" s:height="40" id="cell_$procmux$6">
    <s:alias val="$pmux"/>
    <s:alias val="$mux"/>
    <s:alias val="$_MUX_"/>
    <path d="M0,0 L20,10 L20,30 L0,40 Z" class="cell_$procmux$6"/>
    <g s:x="0" s:y="10" s:pid="A"/>
    <g s:x="0" s:y="30" s:pid="B"/>
    <g s:x="10" s:y="35" s:pid="S"/>
    <g s:x="20" s:y="20" s:pid="Y"/>
  </g>
  <g s:type="eq" transform="translate(881.6666666666666,99)" s:width="25" s:height="25" id="cell_$procmux$7_CMP0">
    <s:alias val="$eq"/>
    <circle r="12.5" cx="12.5" cy="12.5" class="cell_$procmux$7_CMP0"/>
    <line x1="7.5" x2="17.5" y1="10" y2="10" class="cell_$procmux$7_CMP0"/>
    <line x1="7.5" x2="17.5" y1="15" y2="15" class="cell_$procmux$7_CMP0"/>
    <g s:x="3" s:y="5" s:pid="A"/>
    <g s:x="3" s:y="20" s:pid="B"/>
    <g s:x="25" s:y="12.5" s:pid="Y"/>
  </g>
  <g s:type="mux" transform="translate(701.6666666666666,74)" s:width="20" s:height="40" id="cell_$procmux$8">
    <s:alias val="$pmux"/>
    <s:alias val="$mux"/>
    <s:alias val="$_MUX_"/>
    <path d="M0,0 L20,10 L20,30 L0,40 Z" class="cell_$procmux$8"/>
    <g s:x="0" s:y="10" s:pid="A"/>
    <g s:x="0" s:y="30" s:pid="B"/>
    <g s:x="10" s:y="35" s:pid="S"/>
    <g s:x="20" s:y="20" s:pid="Y"/>
  </g>
  <g s:type="inputExt" transform="translate(630,313.5)" s:width="30" s:height="20" id="cell_clk">
    <text x="15" y="-4" class="nodelabel cell_clk" s:attribute="ref">clk</text>
    <s:alias val="$_inputExt_"/>
    <path d="M0,0 L0,20 L15,20 L30,10 L15,0 Z" class="cell_clk"/>
    <g s:x="28" s:y="10" s:pid="Y"/>
  </g>
  <g s:type="inputExt" transform="translate(12,184)" s:width="30" s:height="20" id="cell_in">
    <text x="15" y="-4" class="nodelabel cell_in" s:attribute="ref">in</text>
    <s:alias val="$_inputExt_"/>
    <path d="M0,0 L0,20 L15,20 L30,10 L15,0 Z" class="cell_in"/>
    <g s:x="28" s:y="10" s:pid="Y"/>
  </g>
  <g s:type="inputExt" transform="translate(695,408.5)" s:width="30" s:height="20" id="cell_reset">
    <text x="15" y="-4" class="nodelabel cell_reset" s:attribute="ref">reset</text>
    <s:alias val="$_inputExt_"/>
    <path d="M0,0 L0,20 L15,20 L30,10 L15,0 Z" class="cell_reset"/>
    <g s:x="28" s:y="10" s:pid="Y"/>
  </g>
  <g s:type="outputExt" transform="translate(1000,32)" s:width="30" s:height="20" id="cell_done">
    <text x="15" y="-4" class="nodelabel cell_done" s:attribute="ref">done</text>
    <s:alias val="$_outputExt_"/>
    <path d="M30,0 L30,20 L15,20 L0,10 L15,0 Z" class="cell_done"/>
    <g s:x="0" s:y="10" s:pid="A"/>
  </g>
  <g s:type="constant" transform="translate(695,343.5)" s:width="30" s:height="20" id="cell_00">
    <text x="15" y="-4" class="nodelabel cell_00" s:attribute="ref">00</text>
    <s:alias val="$_constant_"/>
    <rect width="30" height="20" class="cell_00"/>
    <g s:x="30" s:y="10" s:pid="Y"/>
  </g>
  <g s:type="constant" transform="translate(565,104)" s:width="30" s:height="20" id="cell_10110001">
    <text x="15" y="-4" class="nodelabel cell_10110001" s:attribute="ref">0xb1</text>
    <s:alias val="$_constant_"/>
    <rect width="30" height="20" class="cell_10110001"/>
    <g s:x="30" s:y="10" s:pid="Y"/>
  </g>
  <g s:type="constant" transform="translate(124,84)" s:width="30" s:height="20" id="cell_111">
    <text x="15" y="-4" class="nodelabel cell_111" s:attribute="ref">111</text>
    <s:alias val="$_constant_"/>
    <rect width="30" height="20" class="cell_111"/>
    <g s:x="30" s:y="10" s:pid="Y"/>
  </g>
  <g s:type="constant" transform="translate(124,291)" s:width="30" s:height="20" id="cell_11">
    <text x="15" y="-4" class="nodelabel cell_11" s:attribute="ref">11</text>
    <s:alias val="$_constant_"/>
    <rect width="30" height="20" class="cell_11"/>
    <g s:x="30" s:y="10" s:pid="Y"/>
  </g>
  <g s:type="constant" transform="translate(254,368)" s:width="30" s:height="20" id="cell_10">
    <text x="15" y="-4" class="nodelabel cell_10" s:attribute="ref">10</text>
    <s:alias val="$_constant_"/>
    <rect width="30" height="20" class="cell_10"/>
    <g s:x="30" s:y="10" s:pid="Y"/>
  </g>
  <g s:type="constant" transform="translate(254,161)" s:width="30" s:height="20" id="cell_1">
    <text x="15" y="-4" class="nodelabel cell_1" s:attribute="ref">1</text>
    <s:alias val="$_constant_"/>
    <rect width="30" height="20" class="cell_1"/>
    <g s:x="30" s:y="10" s:pid="Y"/>
  </g>
  <g s:type="constant" transform="translate(124,226)" s:width="30" s:height="20" id="cell_100">
    <text x="15" y="-4" class="nodelabel cell_100" s:attribute="ref">100</text>
    <s:alias val="$_constant_"/>
    <rect width="30" height="20" class="cell_100"/>
    <g s:x="30" s:y="10" s:pid="Y"/>
  </g>
  <g s:type="constant" transform="translate(880,22)" s:width="30" s:height="20" id="cell_0">
    <text x="15" y="-4" class="nodelabel cell_0" s:attribute="ref">0</text>
    <s:alias val="$_constant_"/>
    <rect width="30" height="20" class="cell_0"/>
    <g s:x="30" s:y="10" s:pid="Y"/>
  </g>
  <g s:type="join" transform="translate(265,76)" s:width="4" s:height="40" id="cell_$join$,13,14,">
    <rect width="5" height="40" class="splitjoinBody" s:generic="body"/>
    <s:alias val="$_join_"/>
    <g s:x="5" s:y="20" s:pid="out"/>
    <g transform="translate(0,10)" s:x="0" s:y="10" s:pid="in0">
      <text x="-3" y="-4" class="inputPortLabel">0</text>
    </g>
    <g transform="translate(0,30)" s:x="0" s:y="10" s:pid="in0">
      <text x="-3" y="-4" class="inputPortLabel">1</text>
    </g>
  </g>
  <g s:type="join" transform="translate(265,283)" s:width="4" s:height="40" id="cell_$join$,16,17,">
    <rect width="5" height="40" class="splitjoinBody" s:generic="body"/>
    <s:alias val="$_join_"/>
    <g s:x="5" s:y="20" s:pid="out"/>
    <g transform="translate(0,10)" s:x="0" s:y="10" s:pid="in0">
      <text x="-3" y="-4" class="inputPortLabel">0</text>
    </g>
    <g transform="translate(0,30)" s:x="0" s:y="10" s:pid="in0">
      <text x="-3" y="-4" class="inputPortLabel">1</text>
    </g>
  </g>
  <g s:type="join" transform="translate(575,273)" s:width="4" s:height="40" id="cell_$join$,15,18,25,26,">
    <rect width="5" height="80" class="splitjoinBody" s:generic="body"/>
    <s:alias val="$_join_"/>
    <g s:x="5" s:y="20" s:pid="out"/>
    <g transform="translate(0,10)" s:x="0" s:y="10" s:pid="in0">
      <text x="-3" y="-4" class="inputPortLabel">0</text>
    </g>
    <g transform="translate(0,30)" s:x="0" s:y="10" s:pid="in0">
      <text x="-3" y="-4" class="inputPortLabel">1</text>
    </g>
    <g transform="translate(0,50)" s:x="0" s:y="10" s:pid="in0">
      <text x="-3" y="-4" class="inputPortLabel">2</text>
    </g>
    <g transform="translate(0,70)" s:x="0" s:y="10" s:pid="in0">
      <text x="-3" y="-4" class="inputPortLabel">3</text>
    </g>
  </g>
  <g s:type="join" transform="translate(143,141)" s:width="4" s:height="40" id="cell_$join$,21,22,6,">
    <rect width="5" height="40" class="splitjoinBody" s:generic="body"/>
    <s:alias val="$_join_"/>
    <g s:x="5" s:y="20" s:pid="out"/>
    <g transform="translate(0,10)" s:x="0" s:y="10" s:pid="in0">
      <text x="-3" y="-4" class="inputPortLabel">0:1</text>
    </g>
    <g transform="translate(0,30)" s:x="0" s:y="10" s:pid="in0">
      <text x="-3" y="-4" class="inputPortLabel">2</text>
    </g>
  </g>
  <g s:type="split" transform="translate(77,161)" s:width="5" s:height="40" id="cell_$split$,3,4,5,6,7,8,9,10,">
    <rect width="5" height="20" class="splitjoinBody" s:generic="body"/>
    <s:alias val="$_split_"/>
    <g s:x="0" s:y="20" s:pid="in"/>
    <g transform="translate(4,10)" s:x="4" s:y="10" s:pid="out0">
      <text x="5" y="-4">3</text>
    </g>
  </g>
  <line x1="271" x2="326" y1="96.5" y2="96.5" class="net_13,14"/>
  <line x1="271" x2="326" y1="303.5" y2="303.5" class="net_16,17"/>
  <line x1="658" x2="670" y1="323.5" y2="323.5" class="net_2"/>
  <line x1="670" x2="670" y1="323.5" y2="438.5" class="net_2"/>
  <line x1="670" x2="790" y1="438.5" y2="438.5" class="net_2"/>
  <line x1="790" x2="790" y1="438.5" y2="124" class="net_2"/>
  <circle cx="670" cy="323.5" r="2" style="fill:#000" class="net_2"/>
  <line x1="790" x2="815" y1="124" y2="124" class="net_2"/>
  <line x1="658" x2="711.6666666666666" y1="323.5" y2="323.5" class="net_2"/>
  <line x1="711.6666666666666" x2="711.6666666666666" y1="323.5" y2="109" class="net_2"/>
  <line x1="780" x2="815" y1="104" y2="104" class="net_19,20"/>
  <line x1="721.6666666666666" x2="760" y1="94" y2="94" class="net_23,24"/>
  <line x1="725" x2="735" y1="353.5" y2="353.5" class="net_30,31"/>
  <line x1="735" x2="735" y1="353.5" y2="114" class="net_30,31"/>
  <line x1="735" x2="760" y1="114" y2="114" class="net_30,31"/>
  <line x1="723" x2="770" y1="418.5" y2="418.5" class="net_11"/>
  <line x1="770" x2="770" y1="418.5" y2="119" class="net_11"/>
  <line x1="595" x2="635" y1="114" y2="114" class="net_32,33,34,35,36,37,38,39"/>
  <line x1="581" x2="645" y1="293.5" y2="293.5" class="net_15,18,25,26"/>
  <line x1="645" x2="645" y1="293.5" y2="119" class="net_15,18,25,26"/>
  <line x1="149" x2="174" y1="161.5" y2="161.5" class="net_21,22,6"/>
  <line x1="174" x2="174" y1="161.5" y2="79" class="net_21,22,6"/>
  <circle cx="174" cy="161.5" r="2" style="fill:#000" class="net_21,22,6"/>
  <line x1="174" x2="193.66666666666666" y1="79" y2="79" class="net_21,22,6"/>
  <line x1="149" x2="174" y1="161.5" y2="161.5" class="net_21,22,6"/>
  <line x1="174" x2="174" y1="161.5" y2="286" class="net_21,22,6"/>
  <circle cx="174" cy="286" r="2" style="fill:#000" class="net_21,22,6"/>
  <line x1="174" x2="193.66666666666666" y1="286" y2="286" class="net_21,22,6"/>
  <line x1="149" x2="193.66666666666666" y1="161.5" y2="161.5" class="net_21,22,6"/>
  <line x1="149" x2="174" y1="161.5" y2="161.5" class="net_21,22,6"/>
  <line x1="174" x2="174" y1="161.5" y2="351" class="net_21,22,6"/>
  <line x1="174" x2="189" y1="351" y2="351" class="net_21,22,6"/>
  <line x1="154" x2="193.66666666666666" y1="94" y2="94" class="net_40,41,42"/>
  <line x1="154" x2="193.66666666666666" y1="301" y2="301" class="net_43,44"/>
  <line x1="154" x2="164" y1="301" y2="301" class="net_43,44"/>
  <line x1="164" x2="164" y1="301" y2="504.5" class="net_43,44"/>
  <line x1="164" x2="865" y1="504.5" y2="504.5" class="net_43,44"/>
  <line x1="865" x2="865" y1="504.5" y2="119" class="net_43,44"/>
  <circle cx="164" cy="301" r="2" style="fill:#000" class="net_43,44"/>
  <line x1="865" x2="884.6666666666666" y1="119" y2="119" class="net_43,44"/>
  <line x1="845" x2="855" y1="104" y2="104" class="net_21,22"/>
  <line x1="855" x2="855" y1="104" y2="449.5" class="net_21,22"/>
  <line x1="855" x2="304" y1="449.5" y2="449.5" class="net_21,22"/>
  <line x1="304" x2="304" y1="449.5" y2="363" class="net_21,22"/>
  <line x1="304" x2="388" y1="363" y2="363" class="net_21,22"/>
  <line x1="845" x2="855" y1="104" y2="104" class="net_21,22"/>
  <line x1="855" x2="855" y1="104" y2="449.5" class="net_21,22"/>
  <line x1="855" x2="550" y1="449.5" y2="449.5" class="net_21,22"/>
  <line x1="550" x2="550" y1="449.5" y2="494.5" class="net_21,22"/>
  <line x1="550" x2="304" y1="494.5" y2="494.5" class="net_21,22"/>
  <line x1="304" x2="304" y1="494.5" y2="464.5" class="net_21,22"/>
  <circle cx="550" cy="449.5" r="2" style="fill:#000" class="net_21,22"/>
  <line x1="304" x2="388" y1="464.5" y2="464.5" class="net_21,22"/>
  <line x1="845" x2="884.6666666666666" y1="104" y2="104" class="net_21,22"/>
  <line x1="845" x2="855" y1="104" y2="104" class="net_21,22"/>
  <line x1="855" x2="855" y1="104" y2="63" class="net_21,22"/>
  <line x1="855" x2="670" y1="63" y2="63" class="net_21,22"/>
  <line x1="670" x2="670" y1="63" y2="84" class="net_21,22"/>
  <circle cx="670" cy="63" r="2" style="fill:#000" class="net_21,22"/>
  <line x1="670" x2="701.6666666666666" y1="84" y2="84" class="net_21,22"/>
  <line x1="845" x2="855" y1="104" y2="104" class="net_21,22"/>
  <line x1="855" x2="855" y1="104" y2="63" class="net_21,22"/>
  <line x1="855" x2="99" y1="63" y2="63" class="net_21,22"/>
  <line x1="99" x2="99" y1="63" y2="151.5" class="net_21,22"/>
  <circle cx="855" cy="104" r="2" style="fill:#000" class="net_21,22"/>
  <line x1="99" x2="143" y1="151.5" y2="151.5" class="net_21,22"/>
  <line x1="284" x2="388" y1="378" y2="378" class="net_45,46"/>
  <line x1="284" x2="294" y1="171" y2="171" class="net_47"/>
  <line x1="294" x2="294" y1="171" y2="479.5" class="net_47"/>
  <circle cx="294" cy="171" r="2" style="fill:#000" class="net_47"/>
  <line x1="294" x2="388" y1="479.5" y2="479.5" class="net_47"/>
  <line x1="284" x2="294" y1="171" y2="171" class="net_47"/>
  <line x1="294" x2="294" y1="171" y2="52" class="net_47"/>
  <line x1="294" x2="945" y1="52" y2="52" class="net_47"/>
  <line x1="154" x2="164" y1="236" y2="236" class="net_48,49,50"/>
  <line x1="164" x2="164" y1="236" y2="176.5" class="net_48,49,50"/>
  <line x1="164" x2="193.66666666666666" y1="176.5" y2="176.5" class="net_48,49,50"/>
  <line x1="910" x2="945" y1="32" y2="32" class="net_51"/>
  <line x1="906.6666666666666" x2="955" y1="111.5" y2="111.5" class="net_29"/>
  <line x1="955" x2="955" y1="111.5" y2="57" class="net_29"/>
  <line x1="655" x2="701.6666666666666" y1="104" y2="104" class="net_27,28"/>
  <line x1="965" x2="1000" y1="42" y2="42" class="net_12"/>
  <line x1="215.66666666666666" x2="265" y1="86.5" y2="86.5" class="net_13"/>
  <line x1="215.66666666666666" x2="229" y1="169" y2="169" class="net_14"/>
  <line x1="229" x2="229" y1="169" y2="106.5" class="net_14"/>
  <line x1="229" x2="265" y1="106.5" y2="106.5" class="net_14"/>
  <line x1="215.66666666666666" x2="265" y1="293.5" y2="293.5" class="net_16"/>
  <line x1="214" x2="229" y1="351" y2="351" class="net_17"/>
  <line x1="229" x2="229" y1="351" y2="313.5" class="net_17"/>
  <line x1="229" x2="265" y1="313.5" y2="313.5" class="net_17"/>
  <line x1="357" x2="540" y1="96.5" y2="96.5" class="net_15"/>
  <line x1="540" x2="540" y1="96.5" y2="283.5" class="net_15"/>
  <line x1="540" x2="575" y1="283.5" y2="283.5" class="net_15"/>
  <line x1="357" x2="575" y1="303.5" y2="303.5" class="net_18"/>
  <line x1="410" x2="540" y1="370.5" y2="370.5" class="net_25"/>
  <line x1="540" x2="540" y1="370.5" y2="323.5" class="net_25"/>
  <line x1="540" x2="575" y1="323.5" y2="323.5" class="net_25"/>
  <line x1="410" x2="540" y1="472" y2="472" class="net_26"/>
  <line x1="540" x2="540" y1="472" y2="439.5" class="net_26"/>
  <line x1="540" x2="575.5" y1="439.5" y2="439.5" class="net_26"/>
  <line x1="575.5" x2="575.5" y1="439.5" y2="344" class="net_26"/>
  <line x1="82" x2="143" y1="171.5" y2="171.5" class="net_6"/>
  <line x1="40" x2="77.5" y1="194" y2="194" class="net_3,4,5,6,7,8,9,10"/>
  <line x1="77.5" x2="77.5" y1="194" y2="182" class="net_3,4,5,6,7,8,9,10"/>
</svg>
