<?xml version="1.0" encoding="UTF-8" standalone="no"?>
<!DOCTYPE svg PUBLIC "-//W3C//DTD SVG 1.1//EN"
 "http://www.w3.org/Graphics/SVG/1.1/DTD/svg11.dtd">
<!-- Generated by graphviz version 4.0.0 (20220529.0937)
 -->
<!-- Title: top_module Pages: 1 -->
<svg width="1618pt" height="221pt"
 viewBox="0.00 0.00 1617.57 221.49" xmlns="http://www.w3.org/2000/svg" xmlns:xlink="http://www.w3.org/1999/xlink">
<g id="graph0" class="graph" transform="scale(1 1) rotate(0) translate(4 217.49)">
<title>top_module</title>
<polygon fill="white" stroke="transparent" points="-4,4 -4,-217.49 1613.57,-217.49 1613.57,4 -4,4"/>
<text text-anchor="middle" x="804.79" y="-7.8" font-family="Times New Roman,serif" font-size="14.00">top_module</text>
<!-- n5 -->
<g id="node1" class="node">
<title>n5</title>
<polygon fill="none" stroke="black" points="57.25,-185.54 57.25,-200.46 41.43,-211 19.07,-211 3.25,-200.46 3.25,-185.54 19.07,-175 41.43,-175 57.25,-185.54"/>
<text text-anchor="middle" x="30.25" y="-189.3" font-family="Times New Roman,serif" font-size="14.00">clk</text>
</g>
<!-- c20 -->
<g id="node10" class="node">
<title>c20</title>
<polygon fill="none" stroke="black" points="127.5,-136 127.5,-182 238.5,-182 238.5,-136 127.5,-136"/>
<text text-anchor="middle" x="149.5" y="-166.8" font-family="Times New Roman,serif" font-size="14.00">CLK</text>
<polyline fill="none" stroke="black" points="127.5,-159 171.5,-159 "/>
<text text-anchor="middle" x="149.5" y="-143.8" font-family="Times New Roman,serif" font-size="14.00">D</text>
<polyline fill="none" stroke="black" points="171.5,-136 171.5,-182 "/>
<text text-anchor="middle" x="191.5" y="-162.8" font-family="Times New Roman,serif" font-size="14.00">$10</text>
<text text-anchor="middle" x="191.5" y="-147.8" font-family="Times New Roman,serif" font-size="14.00">$dff</text>
<polyline fill="none" stroke="black" points="211.5,-136 211.5,-182 "/>
<text text-anchor="middle" x="225" y="-155.3" font-family="Times New Roman,serif" font-size="14.00">Q</text>
</g>
<!-- n5&#45;&gt;c20 -->
<g id="edge6" class="edge">
<title>n5:e&#45;&gt;c20:w</title>
<path fill="none" stroke="#e7298a" d="M58.25,-193C86.89,-193 93.8,-175.7 117.51,-171.78"/>
<polygon fill="#e7298a" stroke="#e7298a" points="117.8,-175.27 127.5,-171 117.26,-168.29 117.8,-175.27"/>
</g>
<!-- c21 -->
<g id="node11" class="node">
<title>c21</title>
<polygon fill="none" stroke="black" points="1103.17,-80 1103.17,-126 1214.17,-126 1214.17,-80 1103.17,-80"/>
<text text-anchor="middle" x="1125.17" y="-110.8" font-family="Times New Roman,serif" font-size="14.00">CLK</text>
<polyline fill="none" stroke="black" points="1103.17,-103 1147.17,-103 "/>
<text text-anchor="middle" x="1125.17" y="-87.8" font-family="Times New Roman,serif" font-size="14.00">D</text>
<polyline fill="none" stroke="black" points="1147.17,-80 1147.17,-126 "/>
<text text-anchor="middle" x="1167.17" y="-106.8" font-family="Times New Roman,serif" font-size="14.00">$11</text>
<text text-anchor="middle" x="1167.17" y="-91.8" font-family="Times New Roman,serif" font-size="14.00">$dff</text>
<polyline fill="none" stroke="black" points="1187.17,-80 1187.17,-126 "/>
<text text-anchor="middle" x="1200.67" y="-99.3" font-family="Times New Roman,serif" font-size="14.00">Q</text>
</g>
<!-- n5&#45;&gt;c21 -->
<g id="edge7" class="edge">
<title>n5:e&#45;&gt;c21:w</title>
<path fill="none" stroke="#e7298a" d="M58.25,-193C72.14,-193 168.11,-211 182,-211 182,-211 182,-211 987.67,-211 1032,-211 1053.46,-220.98 1085.17,-190 1106.43,-169.23 1078.58,-128.08 1093.16,-117.52"/>
<polygon fill="#e7298a" stroke="#e7298a" points="1094.33,-120.83 1103.17,-115 1092.62,-114.04 1094.33,-120.83"/>
</g>
<!-- n6 -->
<g id="node2" class="node">
<title>n6</title>
<polygon fill="none" stroke="black" points="57.25,-119.54 57.25,-134.46 41.43,-145 19.07,-145 3.25,-134.46 3.25,-119.54 19.07,-109 41.43,-109 57.25,-119.54"/>
<text text-anchor="middle" x="30.25" y="-123.3" font-family="Times New Roman,serif" font-size="14.00">in</text>
</g>
<!-- c15 -->
<g id="node8" class="node">
<title>c15</title>
<polygon fill="none" stroke="black" points="256.5,-88 256.5,-126 349.5,-126 349.5,-88 256.5,-88"/>
<text text-anchor="middle" x="269.5" y="-103.3" font-family="Times New Roman,serif" font-size="14.00">A</text>
<polyline fill="none" stroke="black" points="282.5,-88 282.5,-126 "/>
<text text-anchor="middle" x="303" y="-110.8" font-family="Times New Roman,serif" font-size="14.00">$2</text>
<text text-anchor="middle" x="303" y="-95.8" font-family="Times New Roman,serif" font-size="14.00">$not</text>
<polyline fill="none" stroke="black" points="323.5,-88 323.5,-126 "/>
<text text-anchor="middle" x="336.5" y="-103.3" font-family="Times New Roman,serif" font-size="14.00">Y</text>
</g>
<!-- n6&#45;&gt;c15 -->
<g id="edge8" class="edge">
<title>n6:e&#45;&gt;c15:w</title>
<path fill="none" stroke="#7570b3" stroke-width="3" d="M58.25,-127C69.72,-127 67.71,-114.89 78.5,-111 149.61,-85.4 175.07,-105.05 246.16,-106.87"/>
<polygon fill="#7570b3" stroke="#7570b3" stroke-width="3" points="246.46,-110.37 256.5,-107 246.55,-103.37 246.46,-110.37"/>
<text text-anchor="middle" x="94" y="-114.8" font-family="Times New Roman,serif" font-size="14.00" fill="#7570b3">&lt;32&gt;</text>
</g>
<!-- n6&#45;&gt;c20 -->
<g id="edge9" class="edge">
<title>n6:e&#45;&gt;c20:w</title>
<path fill="none" stroke="#7570b3" stroke-width="3" d="M58.25,-127C86.53,-127 93.88,-142.59 117.26,-146.24"/>
<polygon fill="#7570b3" stroke="#7570b3" stroke-width="3" points="117.27,-149.75 127.5,-147 117.79,-142.77 117.27,-149.75"/>
<text text-anchor="middle" x="94" y="-147.8" font-family="Times New Roman,serif" font-size="14.00" fill="#7570b3">&lt;32&gt;</text>
</g>
<!-- n7 -->
<g id="node3" class="node">
<title>n7</title>
<polygon fill="none" stroke="black" points="1609.57,-121.54 1609.57,-136.46 1593.75,-147 1571.39,-147 1555.57,-136.46 1555.57,-121.54 1571.39,-111 1593.75,-111 1609.57,-121.54"/>
<text text-anchor="middle" x="1582.57" y="-125.3" font-family="Times New Roman,serif" font-size="14.00">out</text>
</g>
<!-- n8 -->
<g id="node4" class="node">
<title>n8</title>
<polygon fill="none" stroke="black" points="1324.37,-147 1280.97,-129 1324.37,-111 1367.77,-129 1324.37,-147"/>
<text text-anchor="middle" x="1324.37" y="-125.3" font-family="Times New Roman,serif" font-size="14.00">out_r</text>
</g>
<!-- c16 -->
<g id="node9" class="node">
<title>c16</title>
<polygon fill="none" stroke="black" points="783.17,-124 783.17,-170 870.17,-170 870.17,-124 783.17,-124"/>
<text text-anchor="middle" x="796.17" y="-154.8" font-family="Times New Roman,serif" font-size="14.00">A</text>
<polyline fill="none" stroke="black" points="783.17,-147 809.17,-147 "/>
<text text-anchor="middle" x="796.17" y="-131.8" font-family="Times New Roman,serif" font-size="14.00">B</text>
<polyline fill="none" stroke="black" points="809.17,-124 809.17,-170 "/>
<text text-anchor="middle" x="826.67" y="-150.8" font-family="Times New Roman,serif" font-size="14.00">$4</text>
<text text-anchor="middle" x="826.67" y="-135.8" font-family="Times New Roman,serif" font-size="14.00">$or</text>
<polyline fill="none" stroke="black" points="844.17,-124 844.17,-170 "/>
<text text-anchor="middle" x="857.17" y="-143.3" font-family="Times New Roman,serif" font-size="14.00">Y</text>
</g>
<!-- n8&#45;&gt;c16 -->
<g id="edge12" class="edge">
<title>n8:e&#45;&gt;c16:w</title>
<path fill="none" stroke="#1b9e77" stroke-width="3" d="M1369.37,-129C1377.38,-129 1374.19,-141.49 1368.37,-147 1340.22,-173.63 1319.92,-147.3 1281.17,-147 1106.49,-145.67 1049.52,-207.95 888.17,-141 877.86,-136.72 880.51,-127.7 870.17,-123.5 852.15,-116.19 797,-110.36 782.67,-123.5 782.2,-123.93 781.75,-124.44 781.33,-124.99"/>
<polygon fill="#1b9e77" stroke="#1b9e77" stroke-width="3" points="777.83,-125.12 781.67,-135 784.83,-124.89 777.83,-125.12"/>
<text text-anchor="middle" x="1069.67" y="-174.8" font-family="Times New Roman,serif" font-size="14.00" fill="#1b9e77">&lt;32&gt;</text>
</g>
<!-- x1 -->
<g id="node14" class="node">
<title>x1</title>
<path fill="none" stroke="black" d="M1476.57,-147C1476.57,-147 1446.57,-147 1446.57,-147 1440.57,-147 1434.57,-141 1434.57,-135 1434.57,-135 1434.57,-123 1434.57,-123 1434.57,-117 1440.57,-111 1446.57,-111 1446.57,-111 1476.57,-111 1476.57,-111 1482.57,-111 1488.57,-117 1488.57,-123 1488.57,-123 1488.57,-135 1488.57,-135 1488.57,-141 1482.57,-147 1476.57,-147"/>
<text text-anchor="middle" x="1461.57" y="-125.3" font-family="Times New Roman,serif" font-size="14.00">BUF</text>
</g>
<!-- n8&#45;&gt;x1 -->
<g id="edge13" class="edge">
<title>n8:e&#45;&gt;x1:w</title>
<path fill="none" stroke="#1b9e77" stroke-width="3" d="M1367.57,-129C1393.63,-129 1402.58,-129 1424.36,-129"/>
<polygon fill="#1b9e77" stroke="#1b9e77" stroke-width="3" points="1424.57,-132.5 1434.57,-129 1424.57,-125.5 1424.57,-132.5"/>
<text text-anchor="middle" x="1401.07" y="-132.8" font-family="Times New Roman,serif" font-size="14.00" fill="#1b9e77">&lt;32&gt;</text>
</g>
<!-- n9 -->
<g id="node5" class="node">
<title>n9</title>
<polygon fill="none" stroke="black" points="460.34,-177 367.67,-159 460.34,-141 553.01,-159 460.34,-177"/>
<text text-anchor="middle" x="460.34" y="-155.3" font-family="Times New Roman,serif" font-size="14.00">previous_pin_r</text>
</g>
<!-- c14 -->
<g id="node7" class="node">
<title>c14</title>
<polygon fill="none" stroke="black" points="620.17,-124 620.17,-170 716.17,-170 716.17,-124 620.17,-124"/>
<text text-anchor="middle" x="633.17" y="-154.8" font-family="Times New Roman,serif" font-size="14.00">A</text>
<polyline fill="none" stroke="black" points="620.17,-147 646.17,-147 "/>
<text text-anchor="middle" x="633.17" y="-131.8" font-family="Times New Roman,serif" font-size="14.00">B</text>
<polyline fill="none" stroke="black" points="646.17,-124 646.17,-170 "/>
<text text-anchor="middle" x="668.17" y="-150.8" font-family="Times New Roman,serif" font-size="14.00">$3</text>
<text text-anchor="middle" x="668.17" y="-135.8" font-family="Times New Roman,serif" font-size="14.00">$and</text>
<polyline fill="none" stroke="black" points="690.17,-124 690.17,-170 "/>
<text text-anchor="middle" x="703.17" y="-143.3" font-family="Times New Roman,serif" font-size="14.00">Y</text>
</g>
<!-- n9&#45;&gt;c14 -->
<g id="edge15" class="edge">
<title>n9:e&#45;&gt;c14:w</title>
<path fill="none" stroke="#1b9e77" stroke-width="3" d="M553.17,-159C579.23,-159 588.18,-159 609.96,-159"/>
<polygon fill="#1b9e77" stroke="#1b9e77" stroke-width="3" points="610.17,-162.5 620.17,-159 610.17,-155.5 610.17,-162.5"/>
<text text-anchor="middle" x="586.67" y="-162.8" font-family="Times New Roman,serif" font-size="14.00" fill="#1b9e77">&lt;32&gt;</text>
</g>
<!-- n10 -->
<g id="node6" class="node">
<title>n10</title>
<polygon fill="none" stroke="black" points="60.25,-33.54 60.25,-48.46 42.68,-59 17.82,-59 0.25,-48.46 0.25,-33.54 17.82,-23 42.68,-23 60.25,-33.54"/>
<text text-anchor="middle" x="30.25" y="-37.3" font-family="Times New Roman,serif" font-size="14.00">reset</text>
</g>
<!-- c23 -->
<g id="node13" class="node">
<title>c23</title>
<polygon fill="none" stroke="black" points="937.17,-53.5 937.17,-122.5 1036.17,-122.5 1036.17,-53.5 937.17,-53.5"/>
<text text-anchor="middle" x="950.17" y="-107.3" font-family="Times New Roman,serif" font-size="14.00">A</text>
<polyline fill="none" stroke="black" points="937.17,-99.5 963.17,-99.5 "/>
<text text-anchor="middle" x="950.17" y="-84.3" font-family="Times New Roman,serif" font-size="14.00">B</text>
<polyline fill="none" stroke="black" points="937.17,-76.5 963.17,-76.5 "/>
<text text-anchor="middle" x="950.17" y="-61.3" font-family="Times New Roman,serif" font-size="14.00">S</text>
<polyline fill="none" stroke="black" points="963.17,-53.5 963.17,-122.5 "/>
<text text-anchor="middle" x="986.67" y="-91.8" font-family="Times New Roman,serif" font-size="14.00">$8</text>
<text text-anchor="middle" x="986.67" y="-76.8" font-family="Times New Roman,serif" font-size="14.00">$mux</text>
<polyline fill="none" stroke="black" points="1010.17,-53.5 1010.17,-122.5 "/>
<text text-anchor="middle" x="1023.17" y="-84.3" font-family="Times New Roman,serif" font-size="14.00">Y</text>
</g>
<!-- n10&#45;&gt;c23 -->
<g id="edge2" class="edge">
<title>n10:e&#45;&gt;c23:w</title>
<path fill="none" stroke="#1b9e77" d="M60.5,-41C114.5,-41 128,-41 182,-41 182,-41 182,-41 827.67,-41 873.89,-41 885.71,-61.66 926.96,-64.64"/>
<polygon fill="#1b9e77" stroke="#1b9e77" points="927.05,-68.15 937.17,-65 927.3,-61.15 927.05,-68.15"/>
</g>
<!-- c14&#45;&gt;c16 -->
<g id="edge3" class="edge">
<title>c14:e&#45;&gt;c16:w</title>
<path fill="none" stroke="#1b9e77" stroke-width="3" d="M716.17,-147C742.76,-147 751,-156.27 773.14,-158.51"/>
<polygon fill="#1b9e77" stroke="#1b9e77" stroke-width="3" points="773.01,-162.01 783.17,-159 773.35,-155.02 773.01,-162.01"/>
<text text-anchor="middle" x="749.67" y="-160.8" font-family="Times New Roman,serif" font-size="14.00" fill="#1b9e77">&lt;32&gt;</text>
</g>
<!-- c15&#45;&gt;c14 -->
<g id="edge4" class="edge">
<title>c15:e&#45;&gt;c14:w</title>
<path fill="none" stroke="#7570b3" stroke-width="3" d="M349.5,-107C440.13,-107 463.64,-102.94 553.17,-117 579.94,-121.2 587.59,-131.92 609.99,-134.46"/>
<polygon fill="#7570b3" stroke="#7570b3" stroke-width="3" points="610,-137.96 620.17,-135 610.37,-130.97 610,-137.96"/>
<text text-anchor="middle" x="460.34" y="-120.8" font-family="Times New Roman,serif" font-size="14.00" fill="#7570b3">&lt;32&gt;</text>
</g>
<!-- c16&#45;&gt;c23 -->
<g id="edge5" class="edge">
<title>c16:e&#45;&gt;c23:w</title>
<path fill="none" stroke="#e7298a" stroke-width="3" d="M870.17,-147C882.46,-147 877.89,-132.73 888.17,-126 904.1,-115.57 911.72,-112.1 927.1,-111.24"/>
<polygon fill="#e7298a" stroke="#e7298a" stroke-width="3" points="927.26,-114.73 937.17,-111 927.09,-107.74 927.26,-114.73"/>
<text text-anchor="middle" x="903.67" y="-129.8" font-family="Times New Roman,serif" font-size="14.00" fill="#e7298a">&lt;32&gt;</text>
</g>
<!-- c20&#45;&gt;n9 -->
<g id="edge14" class="edge">
<title>c20:e&#45;&gt;n9:w</title>
<path fill="none" stroke="#1b9e77" stroke-width="3" d="M238.5,-159C292.25,-159 308.21,-159 357.23,-159"/>
<polygon fill="#1b9e77" stroke="#1b9e77" stroke-width="3" points="357.5,-162.5 367.5,-159 357.5,-155.5 357.5,-162.5"/>
<text text-anchor="middle" x="303" y="-162.8" font-family="Times New Roman,serif" font-size="14.00" fill="#1b9e77">&lt;32&gt;</text>
</g>
<!-- c21&#45;&gt;n8 -->
<g id="edge11" class="edge">
<title>c21:e&#45;&gt;n8:w</title>
<path fill="none" stroke="#1b9e77" stroke-width="3" d="M1214.17,-103C1242.37,-103 1248.1,-123.26 1271.04,-128.01"/>
<polygon fill="#1b9e77" stroke="#1b9e77" stroke-width="3" points="1270.88,-131.51 1281.17,-129 1271.56,-124.55 1270.88,-131.51"/>
<text text-anchor="middle" x="1247.67" y="-129.8" font-family="Times New Roman,serif" font-size="14.00" fill="#1b9e77">&lt;32&gt;</text>
</g>
<!-- v0 -->
<g id="node12" class="node">
<title>v0</title>
<ellipse fill="none" stroke="black" cx="826.67" cy="-87" rx="27" ry="18"/>
<text text-anchor="middle" x="826.67" y="-83.3" font-family="Times New Roman,serif" font-size="14.00">0</text>
</g>
<!-- v0&#45;&gt;c23 -->
<g id="edge16" class="edge">
<title>v0:e&#45;&gt;c23:w</title>
<path fill="none" stroke="#e6ab02" stroke-width="3" d="M854.67,-87C887.76,-87 898.45,-87.81 927.16,-87.97"/>
<polygon fill="#e6ab02" stroke="#e6ab02" stroke-width="3" points="927.16,-91.47 937.17,-88 927.18,-84.47 927.16,-91.47"/>
<text text-anchor="middle" x="903.67" y="-91.8" font-family="Times New Roman,serif" font-size="14.00" fill="#e6ab02">&lt;32&gt;</text>
</g>
<!-- c23&#45;&gt;c21 -->
<g id="edge1" class="edge">
<title>c23:e&#45;&gt;c21:w</title>
<path fill="none" stroke="#66a61e" stroke-width="3" d="M1036.17,-88C1062.25,-88 1071.17,-90.3 1092.96,-90.87"/>
<polygon fill="#66a61e" stroke="#66a61e" stroke-width="3" points="1093.13,-94.37 1103.17,-91 1093.22,-87.37 1093.13,-94.37"/>
<text text-anchor="middle" x="1069.67" y="-94.8" font-family="Times New Roman,serif" font-size="14.00" fill="#66a61e">&lt;32&gt;</text>
</g>
<!-- x1&#45;&gt;n7 -->
<g id="edge10" class="edge">
<title>x1:e&#45;&gt;n7:w</title>
<path fill="none" stroke="#d95f02" stroke-width="3" d="M1488.57,-129C1514.63,-129 1523.58,-129 1545.36,-129"/>
<polygon fill="#d95f02" stroke="#d95f02" stroke-width="3" points="1545.57,-132.5 1555.57,-129 1545.57,-125.5 1545.57,-132.5"/>
<text text-anchor="middle" x="1522.07" y="-132.8" font-family="Times New Roman,serif" font-size="14.00" fill="#d95f02">&lt;32&gt;</text>
</g>
</g>
</svg>
