<?xml version="1.0" encoding="UTF-8" standalone="no"?>
<!DOCTYPE svg PUBLIC "-//W3C//DTD SVG 1.1//EN"
 "http://www.w3.org/Graphics/SVG/1.1/DTD/svg11.dtd">
<!-- Generated by graphviz version 4.0.0 (20220529.0937)
 -->
<!-- Title: top_module Pages: 1 -->
<svg width="1757pt" height="808pt"
 viewBox="0.00 0.00 1757.49 808.00" xmlns="http://www.w3.org/2000/svg" xmlns:xlink="http://www.w3.org/1999/xlink">
<g id="graph0" class="graph" transform="scale(1 1) rotate(0) translate(4 804)">
<title>top_module</title>
<polygon fill="white" stroke="transparent" points="-4,4 -4,-804 1753.49,-804 1753.49,4 -4,4"/>
<text text-anchor="middle" x="874.74" y="-7.8" font-family="Times New Roman,serif" font-size="14.00">top_module</text>
<!-- n8 -->
<g id="node1" class="node">
<title>n8</title>
<polygon fill="none" stroke="black" points="91.43,-774.54 91.43,-789.45 71.25,-800 42.72,-800 22.54,-789.45 22.54,-774.54 42.72,-764 71.25,-764 91.43,-774.54"/>
<text text-anchor="middle" x="56.98" y="-778.3" font-family="Times New Roman,serif" font-size="14.00">areset</text>
</g>
<!-- c24 -->
<g id="node13" class="node">
<title>c24</title>
<polygon fill="none" stroke="black" points="150.97,-709.5 150.97,-778.5 276.97,-778.5 276.97,-709.5 150.97,-709.5"/>
<text text-anchor="middle" x="177.47" y="-763.3" font-family="Times New Roman,serif" font-size="14.00">ARST</text>
<polyline fill="none" stroke="black" points="150.97,-755.5 203.97,-755.5 "/>
<text text-anchor="middle" x="177.47" y="-740.3" font-family="Times New Roman,serif" font-size="14.00">CLK</text>
<polyline fill="none" stroke="black" points="150.97,-732.5 203.97,-732.5 "/>
<text text-anchor="middle" x="177.47" y="-717.3" font-family="Times New Roman,serif" font-size="14.00">D</text>
<polyline fill="none" stroke="black" points="203.97,-709.5 203.97,-778.5 "/>
<text text-anchor="middle" x="226.97" y="-747.8" font-family="Times New Roman,serif" font-size="14.00">$13</text>
<text text-anchor="middle" x="226.97" y="-732.8" font-family="Times New Roman,serif" font-size="14.00">$adff</text>
<polyline fill="none" stroke="black" points="249.97,-709.5 249.97,-778.5 "/>
<text text-anchor="middle" x="263.47" y="-740.3" font-family="Times New Roman,serif" font-size="14.00">Q</text>
</g>
<!-- n8&#45;&gt;c24 -->
<g id="edge34" class="edge">
<title>n8:e&#45;&gt;c24:w</title>
<path fill="none" stroke="#e6ab02" d="M92.98,-782C115.86,-782 122.58,-770.92 140.91,-767.8"/>
<polygon fill="#e6ab02" stroke="#e6ab02" points="141.28,-771.28 150.97,-767 140.72,-764.31 141.28,-771.28"/>
</g>
<!-- n9 -->
<g id="node2" class="node">
<title>n9</title>
<polygon fill="none" stroke="black" points="109.1,-552.54 109.1,-567.45 78.57,-578 35.4,-578 4.87,-567.45 4.87,-552.54 35.4,-542 78.57,-542 109.1,-552.54"/>
<text text-anchor="middle" x="56.98" y="-556.3" font-family="Times New Roman,serif" font-size="14.00">bump_left</text>
</g>
<!-- x2 -->
<g id="node16" class="node">
<title>x2</title>
<path fill="none" stroke="black" d="M472.17,-465.5C472.17,-465.5 510.17,-465.5 510.17,-465.5 516.17,-465.5 522.17,-471.5 522.17,-477.5 522.17,-477.5 522.17,-522.5 522.17,-522.5 522.17,-528.5 516.17,-534.5 510.17,-534.5 510.17,-534.5 472.17,-534.5 472.17,-534.5 466.17,-534.5 460.17,-528.5 460.17,-522.5 460.17,-522.5 460.17,-477.5 460.17,-477.5 460.17,-471.5 466.17,-465.5 472.17,-465.5"/>
<text text-anchor="middle" x="491.17" y="-519.3" font-family="Times New Roman,serif" font-size="14.00">0:0 &#45; 2:2</text>
<polyline fill="none" stroke="black" points="460.17,-511.5 522.17,-511.5 "/>
<text text-anchor="middle" x="491.17" y="-496.3" font-family="Times New Roman,serif" font-size="14.00">0:0 &#45; 1:1</text>
<polyline fill="none" stroke="black" points="460.17,-488.5 522.17,-488.5 "/>
<text text-anchor="middle" x="491.17" y="-473.3" font-family="Times New Roman,serif" font-size="14.00">0:0 &#45; 0:0</text>
</g>
<!-- n9&#45;&gt;x2 -->
<g id="edge36" class="edge">
<title>n9:e&#45;&gt;x2:w</title>
<path fill="none" stroke="#1b9e77" d="M109.98,-560C243.43,-560 289.58,-623.14 410.17,-566 421.59,-560.59 418.85,-552.52 428.17,-544 437.49,-535.49 440.93,-527.82 449.3,-524.6"/>
<polygon fill="#1b9e77" stroke="#1b9e77" points="449.86,-528.05 459.17,-523 448.74,-521.14 449.86,-528.05"/>
</g>
<!-- x4 -->
<g id="node19" class="node">
<title>x4</title>
<path fill="none" stroke="black" d="M472.17,-323.5C472.17,-323.5 510.17,-323.5 510.17,-323.5 516.17,-323.5 522.17,-329.5 522.17,-335.5 522.17,-335.5 522.17,-380.5 522.17,-380.5 522.17,-386.5 516.17,-392.5 510.17,-392.5 510.17,-392.5 472.17,-392.5 472.17,-392.5 466.17,-392.5 460.17,-386.5 460.17,-380.5 460.17,-380.5 460.17,-335.5 460.17,-335.5 460.17,-329.5 466.17,-323.5 472.17,-323.5"/>
<text text-anchor="middle" x="491.17" y="-377.3" font-family="Times New Roman,serif" font-size="14.00">0:0 &#45; 2:2</text>
<polyline fill="none" stroke="black" points="460.17,-369.5 522.17,-369.5 "/>
<text text-anchor="middle" x="491.17" y="-354.3" font-family="Times New Roman,serif" font-size="14.00">0:0 &#45; 1:1</text>
<polyline fill="none" stroke="black" points="460.17,-346.5 522.17,-346.5 "/>
<text text-anchor="middle" x="491.17" y="-331.3" font-family="Times New Roman,serif" font-size="14.00">0:0 &#45; 0:0</text>
</g>
<!-- n9&#45;&gt;x4 -->
<g id="edge37" class="edge">
<title>n9:e&#45;&gt;x4:w</title>
<path fill="none" stroke="#1b9e77" d="M109.98,-560C193.95,-560 359.12,-394.03 449.11,-381.72"/>
<polygon fill="#1b9e77" stroke="#1b9e77" points="449.45,-385.2 459.17,-381 448.95,-378.22 449.45,-385.2"/>
</g>
<!-- x6 -->
<g id="node22" class="node">
<title>x6</title>
<path fill="none" stroke="black" d="M472.17,-645.5C472.17,-645.5 510.17,-645.5 510.17,-645.5 516.17,-645.5 522.17,-651.5 522.17,-657.5 522.17,-657.5 522.17,-702.5 522.17,-702.5 522.17,-708.5 516.17,-714.5 510.17,-714.5 510.17,-714.5 472.17,-714.5 472.17,-714.5 466.17,-714.5 460.17,-708.5 460.17,-702.5 460.17,-702.5 460.17,-657.5 460.17,-657.5 460.17,-651.5 466.17,-645.5 472.17,-645.5"/>
<text text-anchor="middle" x="491.17" y="-699.3" font-family="Times New Roman,serif" font-size="14.00">0:0 &#45; 2:2</text>
<polyline fill="none" stroke="black" points="460.17,-691.5 522.17,-691.5 "/>
<text text-anchor="middle" x="491.17" y="-676.3" font-family="Times New Roman,serif" font-size="14.00">0:0 &#45; 1:1</text>
<polyline fill="none" stroke="black" points="460.17,-668.5 522.17,-668.5 "/>
<text text-anchor="middle" x="491.17" y="-653.3" font-family="Times New Roman,serif" font-size="14.00">0:0 &#45; 0:0</text>
</g>
<!-- n9&#45;&gt;x6 -->
<g id="edge38" class="edge">
<title>n9:e&#45;&gt;x6:w</title>
<path fill="none" stroke="#1b9e77" d="M109.98,-560C112.77,-560 148.5,-587.7 150.97,-589 277.14,-655.5 311.53,-700.83 449.09,-702.92"/>
<polygon fill="#1b9e77" stroke="#1b9e77" points="449.15,-706.42 459.17,-703 449.2,-699.42 449.15,-706.42"/>
</g>
<!-- x14 -->
<g id="node34" class="node">
<title>x14</title>
<path fill="none" stroke="black" d="M472.17,-181.5C472.17,-181.5 510.17,-181.5 510.17,-181.5 516.17,-181.5 522.17,-187.5 522.17,-193.5 522.17,-193.5 522.17,-238.5 522.17,-238.5 522.17,-244.5 516.17,-250.5 510.17,-250.5 510.17,-250.5 472.17,-250.5 472.17,-250.5 466.17,-250.5 460.17,-244.5 460.17,-238.5 460.17,-238.5 460.17,-193.5 460.17,-193.5 460.17,-187.5 466.17,-181.5 472.17,-181.5"/>
<text text-anchor="middle" x="491.17" y="-235.3" font-family="Times New Roman,serif" font-size="14.00">0:0 &#45; 2:2</text>
<polyline fill="none" stroke="black" points="460.17,-227.5 522.17,-227.5 "/>
<text text-anchor="middle" x="491.17" y="-212.3" font-family="Times New Roman,serif" font-size="14.00">0:0 &#45; 1:1</text>
<polyline fill="none" stroke="black" points="460.17,-204.5 522.17,-204.5 "/>
<text text-anchor="middle" x="491.17" y="-189.3" font-family="Times New Roman,serif" font-size="14.00">0:0 &#45; 0:0</text>
</g>
<!-- n9&#45;&gt;x14 -->
<g id="edge35" class="edge">
<title>n9:e&#45;&gt;x14:w</title>
<path fill="none" stroke="#1b9e77" d="M109.98,-560C152.72,-560 124.16,-506.29 150.97,-473 256.62,-341.79 285.99,-243.11 448.77,-239.12"/>
<polygon fill="#1b9e77" stroke="#1b9e77" points="449.22,-242.62 459.17,-239 449.13,-235.62 449.22,-242.62"/>
</g>
<!-- n10 -->
<g id="node3" class="node">
<title>n10</title>
<polygon fill="none" stroke="black" points="113.95,-402.54 113.95,-417.45 80.58,-428 33.39,-428 0.02,-417.45 0.02,-402.54 33.39,-392 80.58,-392 113.95,-402.54"/>
<text text-anchor="middle" x="56.98" y="-406.3" font-family="Times New Roman,serif" font-size="14.00">bump_right</text>
</g>
<!-- n10&#45;&gt;x2 -->
<g id="edge12" class="edge">
<title>n10:e&#45;&gt;x2:w</title>
<path fill="none" stroke="#e6ab02" d="M113.97,-410C124.1,-410 123.51,-418.41 131.97,-424 209.15,-474.99 224.41,-501.81 313.97,-525 347.19,-533.6 357.39,-531.01 391.17,-525 419.16,-520.01 425.64,-504.34 448.92,-500.74"/>
<polygon fill="#e6ab02" stroke="#e6ab02" points="449.45,-504.21 459.17,-500 448.95,-497.23 449.45,-504.21"/>
</g>
<!-- n10&#45;&gt;x4 -->
<g id="edge13" class="edge">
<title>n10:e&#45;&gt;x4:w</title>
<path fill="none" stroke="#e6ab02" d="M113.97,-410C265.64,-410 302.39,-360.31 448.9,-358.07"/>
<polygon fill="#e6ab02" stroke="#e6ab02" points="449.2,-361.57 459.17,-358 449.15,-354.57 449.2,-361.57"/>
</g>
<!-- n10&#45;&gt;x6 -->
<g id="edge14" class="edge">
<title>n10:e&#45;&gt;x6:w</title>
<path fill="none" stroke="#e6ab02" d="M113.97,-410C123.76,-410 144.47,-482.67 150.97,-490 175.95,-518.15 388.73,-659.92 449,-678.08"/>
<polygon fill="#e6ab02" stroke="#e6ab02" points="448.7,-681.59 459.17,-680 450,-674.71 448.7,-681.59"/>
</g>
<!-- n10&#45;&gt;x14 -->
<g id="edge11" class="edge">
<title>n10:e&#45;&gt;x14:w</title>
<path fill="none" stroke="#e6ab02" d="M113.97,-410C147.1,-410 108.76,-285.64 131.97,-262 232.43,-159.65 308.67,-213.33 448.96,-215.9"/>
<polygon fill="#e6ab02" stroke="#e6ab02" points="449.14,-219.4 459.17,-216 449.21,-212.4 449.14,-219.4"/>
</g>
<!-- n11 -->
<g id="node4" class="node">
<title>n11</title>
<polygon fill="none" stroke="black" points="83.98,-720.54 83.98,-735.45 68.17,-746 45.8,-746 29.98,-735.45 29.98,-720.54 45.8,-710 68.17,-710 83.98,-720.54"/>
<text text-anchor="middle" x="56.98" y="-724.3" font-family="Times New Roman,serif" font-size="14.00">clk</text>
</g>
<!-- n11&#45;&gt;c24 -->
<g id="edge15" class="edge">
<title>n11:e&#45;&gt;c24:w</title>
<path fill="none" stroke="#e6ab02" d="M84.98,-728C111.39,-728 119,-740.25 140.7,-743.31"/>
<polygon fill="#e6ab02" stroke="#e6ab02" points="140.75,-746.82 150.97,-744 141.22,-739.84 140.75,-746.82"/>
</g>
<!-- n12 -->
<g id="node5" class="node">
<title>n12</title>
<polygon fill="none" stroke="black" points="1560.27,-718 1493.08,-700 1560.27,-682 1627.47,-700 1560.27,-718"/>
<text text-anchor="middle" x="1560.27" y="-696.3" font-family="Times New Roman,serif" font-size="14.00">next_state</text>
</g>
<!-- n12&#45;&gt;c24 -->
<g id="edge17" class="edge">
<title>n12:e&#45;&gt;c24:w</title>
<path fill="none" stroke="#d95f02" d="M1628.27,-700C1636.29,-700 1632.85,-712.24 1627.27,-718 1538.94,-809.21 1469.65,-743 1342.67,-743 351.57,-743 351.57,-743 351.57,-743 315.13,-743 312.57,-716.73 276.97,-709 222.24,-697.11 192.18,-671.08 150.97,-709 150.35,-709.56 149.77,-710.24 149.26,-710.99"/>
<polygon fill="#d95f02" stroke="#d95f02" points="145.77,-711.27 149.97,-721 152.75,-710.77 145.77,-711.27"/>
</g>
<!-- n13 -->
<g id="node6" class="node">
<title>n13</title>
<polygon fill="none" stroke="black" points="352.57,-516 313.86,-498 352.57,-480 391.28,-498 352.57,-516"/>
<text text-anchor="middle" x="352.57" y="-494.3" font-family="Times New Roman,serif" font-size="14.00">state</text>
</g>
<!-- n13&#45;&gt;x2 -->
<g id="edge23" class="edge">
<title>n13:e&#45;&gt;x2:w</title>
<path fill="none" stroke="#d95f02" d="M391.17,-498C399.76,-498 401.03,-493.71 409.17,-491 427.47,-484.89 433.99,-479.21 449.12,-477.51"/>
<polygon fill="#d95f02" stroke="#d95f02" points="449.37,-481 459.17,-477 449.01,-474.01 449.37,-481"/>
</g>
<!-- n13&#45;&gt;x4 -->
<g id="edge24" class="edge">
<title>n13:e&#45;&gt;x4:w</title>
<path fill="none" stroke="#d95f02" d="M391.17,-498C426.9,-498 421.41,-362.97 449.73,-338.71"/>
<polygon fill="#d95f02" stroke="#d95f02" points="451.15,-341.91 459.17,-335 448.59,-335.39 451.15,-341.91"/>
</g>
<!-- n13&#45;&gt;x6 -->
<g id="edge25" class="edge">
<title>n13:e&#45;&gt;x6:w</title>
<path fill="none" stroke="#d95f02" d="M391.17,-498C421.85,-498 411.57,-605.2 428.17,-631 435.78,-642.81 439.45,-652.03 449.26,-655.5"/>
<polygon fill="#d95f02" stroke="#d95f02" points="448.77,-658.97 459.17,-657 449.81,-652.05 448.77,-658.97"/>
</g>
<!-- x10 -->
<g id="node26" class="node">
<title>x10</title>
<path fill="none" stroke="black" d="M661.67,-30C661.67,-30 699.67,-30 699.67,-30 705.67,-30 711.67,-36 711.67,-42 711.67,-42 711.67,-64 711.67,-64 711.67,-70 705.67,-76 699.67,-76 699.67,-76 661.67,-76 661.67,-76 655.67,-76 649.67,-70 649.67,-64 649.67,-64 649.67,-42 649.67,-42 649.67,-36 655.67,-30 661.67,-30"/>
<text text-anchor="middle" x="680.67" y="-60.8" font-family="Times New Roman,serif" font-size="14.00">0:0 &#45; 1:1</text>
<polyline fill="none" stroke="black" points="649.67,-53 711.67,-53 "/>
<text text-anchor="middle" x="680.67" y="-37.8" font-family="Times New Roman,serif" font-size="14.00">0:0 &#45; 0:0</text>
</g>
<!-- n13&#45;&gt;x10 -->
<g id="edge21" class="edge">
<title>n13:e&#45;&gt;x10:w</title>
<path fill="none" stroke="#d95f02" d="M391.17,-498C415.7,-498 407.11,-302.44 409.17,-278 417.36,-181.09 359.37,-128.73 428.17,-60 495.32,7.08 546.6,-37.59 638.47,-40.82"/>
<polygon fill="#d95f02" stroke="#d95f02" points="638.61,-44.32 648.67,-41 638.74,-37.32 638.61,-44.32"/>
</g>
<!-- c31 -->
<g id="node28" class="node">
<title>c31</title>
<polygon fill="none" stroke="black" points="428.17,-70 428.17,-108 554.17,-108 554.17,-70 428.17,-70"/>
<text text-anchor="middle" x="441.17" y="-85.3" font-family="Times New Roman,serif" font-size="14.00">A</text>
<polyline fill="none" stroke="black" points="454.17,-70 454.17,-108 "/>
<text text-anchor="middle" x="491.17" y="-92.8" font-family="Times New Roman,serif" font-size="14.00">$6_CMP0</text>
<text text-anchor="middle" x="491.17" y="-77.8" font-family="Times New Roman,serif" font-size="14.00">$not</text>
<polyline fill="none" stroke="black" points="528.17,-70 528.17,-108 "/>
<text text-anchor="middle" x="541.17" y="-85.3" font-family="Times New Roman,serif" font-size="14.00">Y</text>
</g>
<!-- n13&#45;&gt;c31 -->
<g id="edge19" class="edge">
<title>n13:e&#45;&gt;c31:w</title>
<path fill="none" stroke="#d95f02" d="M391.17,-498C412.03,-498 406.61,-156.27 422.95,-97.54"/>
<polygon fill="#d95f02" stroke="#d95f02" points="425.94,-99.35 428.17,-89 419.97,-95.7 425.94,-99.35"/>
</g>
<!-- c32 -->
<g id="node30" class="node">
<title>c32</title>
<polygon fill="none" stroke="black" points="1288.17,-548.5 1288.17,-617.5 1395.17,-617.5 1395.17,-548.5 1288.17,-548.5"/>
<text text-anchor="middle" x="1301.17" y="-602.3" font-family="Times New Roman,serif" font-size="14.00">A</text>
<polyline fill="none" stroke="black" points="1288.17,-594.5 1314.17,-594.5 "/>
<text text-anchor="middle" x="1301.17" y="-579.3" font-family="Times New Roman,serif" font-size="14.00">B</text>
<polyline fill="none" stroke="black" points="1288.17,-571.5 1314.17,-571.5 "/>
<text text-anchor="middle" x="1301.17" y="-556.3" font-family="Times New Roman,serif" font-size="14.00">S</text>
<polyline fill="none" stroke="black" points="1314.17,-548.5 1314.17,-617.5 "/>
<text text-anchor="middle" x="1341.67" y="-586.8" font-family="Times New Roman,serif" font-size="14.00">$8</text>
<text text-anchor="middle" x="1341.67" y="-571.8" font-family="Times New Roman,serif" font-size="14.00">$pmux</text>
<polyline fill="none" stroke="black" points="1369.17,-548.5 1369.17,-617.5 "/>
<text text-anchor="middle" x="1382.17" y="-579.3" font-family="Times New Roman,serif" font-size="14.00">Y</text>
</g>
<!-- n13&#45;&gt;c32 -->
<g id="edge20" class="edge">
<title>n13:e&#45;&gt;c32:w</title>
<path fill="none" stroke="#d95f02" d="M391.17,-498C403.44,-498 404.4,-507.18 410.17,-518 427.34,-550.14 401.16,-573.54 428.17,-598 479.63,-644.58 513.77,-617 583.17,-617 583.17,-617 583.17,-617 1198.17,-617 1234.85,-617 1245.94,-607.88 1278.02,-606.25"/>
<polygon fill="#d95f02" stroke="#d95f02" points="1278.26,-609.74 1288.17,-606 1278.09,-602.74 1278.26,-609.74"/>
</g>
<!-- n13&#45;&gt;x14 -->
<g id="edge22" class="edge">
<title>n13:e&#45;&gt;x14:w</title>
<path fill="none" stroke="#d95f02" d="M391.17,-498C415.98,-498 406.34,-412.5 410.17,-388 419.07,-331.24 411.94,-315.1 428.17,-260 436.33,-232.33 428.75,-201.54 449.07,-194.49"/>
<polygon fill="#d95f02" stroke="#d95f02" points="449.79,-197.92 459.17,-193 448.77,-191 449.79,-197.92"/>
</g>
<!-- n14 -->
<g id="node7" class="node">
<title>n14</title>
<polygon fill="none" stroke="black" points="1744.7,-126.54 1744.7,-141.45 1717.01,-152 1677.85,-152 1650.16,-141.45 1650.16,-126.54 1677.85,-116 1717.01,-116 1744.7,-126.54"/>
<text text-anchor="middle" x="1697.43" y="-130.3" font-family="Times New Roman,serif" font-size="14.00">walk_left</text>
</g>
<!-- n15 -->
<g id="node8" class="node">
<title>n15</title>
<polygon fill="none" stroke="black" points="1749.55,-85.54 1749.55,-100.45 1719.02,-111 1675.84,-111 1645.31,-100.45 1645.31,-85.54 1675.84,-75 1719.02,-75 1749.55,-85.54"/>
<text text-anchor="middle" x="1697.43" y="-89.3" font-family="Times New Roman,serif" font-size="14.00">walk_right</text>
</g>
<!-- c18 -->
<g id="node9" class="node">
<title>c18</title>
<polygon fill="none" stroke="black" points="974.17,-352 974.17,-390 1106.17,-390 1106.17,-352 974.17,-352"/>
<text text-anchor="middle" x="987.17" y="-367.3" font-family="Times New Roman,serif" font-size="14.00">A</text>
<polyline fill="none" stroke="black" points="1000.17,-352 1000.17,-390 "/>
<text text-anchor="middle" x="1040.17" y="-374.8" font-family="Times New Roman,serif" font-size="14.00">$14</text>
<text text-anchor="middle" x="1040.17" y="-359.8" font-family="Times New Roman,serif" font-size="14.00">$reduce_or</text>
<polyline fill="none" stroke="black" points="1080.17,-352 1080.17,-390 "/>
<text text-anchor="middle" x="1093.17" y="-367.3" font-family="Times New Roman,serif" font-size="14.00">Y</text>
</g>
<!-- x13 -->
<g id="node31" class="node">
<title>x13</title>
<path fill="none" stroke="black" d="M1178.17,-477C1178.17,-477 1216.17,-477 1216.17,-477 1222.17,-477 1228.17,-483 1228.17,-489 1228.17,-489 1228.17,-511 1228.17,-511 1228.17,-517 1222.17,-523 1216.17,-523 1216.17,-523 1178.17,-523 1178.17,-523 1172.17,-523 1166.17,-517 1166.17,-511 1166.17,-511 1166.17,-489 1166.17,-489 1166.17,-483 1172.17,-477 1178.17,-477"/>
<text text-anchor="middle" x="1197.17" y="-507.8" font-family="Times New Roman,serif" font-size="14.00">0:0 &#45; 1:1</text>
<polyline fill="none" stroke="black" points="1166.17,-500 1228.17,-500 "/>
<text text-anchor="middle" x="1197.17" y="-484.8" font-family="Times New Roman,serif" font-size="14.00">0:0 &#45; 0:0</text>
</g>
<!-- c18&#45;&gt;x13 -->
<g id="edge10" class="edge">
<title>c18:e&#45;&gt;x13:w</title>
<path fill="none" stroke="#1b9e77" d="M1106.17,-371C1160.85,-371 1114.59,-473.4 1156.25,-486.6"/>
<polygon fill="#1b9e77" stroke="#1b9e77" points="1155.79,-490.07 1166.17,-488 1156.76,-483.14 1155.79,-490.07"/>
</g>
<!-- x0 -->
<g id="node10" class="node">
<title>x0</title>
<path fill="none" stroke="black" d="M841.67,-287C841.67,-287 879.67,-287 879.67,-287 885.67,-287 891.67,-293 891.67,-299 891.67,-299 891.67,-321 891.67,-321 891.67,-327 885.67,-333 879.67,-333 879.67,-333 841.67,-333 841.67,-333 835.67,-333 829.67,-327 829.67,-321 829.67,-321 829.67,-299 829.67,-299 829.67,-293 835.67,-287 841.67,-287"/>
<text text-anchor="middle" x="860.67" y="-317.8" font-family="Times New Roman,serif" font-size="14.00">0:0 &#45; 1:1</text>
<polyline fill="none" stroke="black" points="829.67,-310 891.67,-310 "/>
<text text-anchor="middle" x="860.67" y="-294.8" font-family="Times New Roman,serif" font-size="14.00">0:0 &#45; 0:0</text>
</g>
<!-- x0&#45;&gt;c18 -->
<g id="edge1" class="edge">
<title>x0:e&#45;&gt;c18:w</title>
<path fill="none" stroke="#66a61e" stroke-width="3" d="M904.9,-311.76C933.06,-320.62 933.79,-360.34 961.93,-369.23"/>
<polygon fill="none" stroke="#66a61e" stroke-width="3" points="904.55,-311.71 898.04,-314.81 892.67,-310 899.18,-306.89 904.55,-311.71"/>
<polygon fill="none" stroke="#66a61e" stroke-width="3" points="962.3,-369.28 968.81,-366.18 974.17,-371 967.67,-374.1 962.3,-369.28"/>
<text text-anchor="middle" x="944.17" y="-369.8" font-family="Times New Roman,serif" font-size="14.00" fill="#66a61e">&lt;2&gt;</text>
</g>
<!-- c19 -->
<g id="node11" class="node">
<title>c19</title>
<polygon fill="none" stroke="black" points="974.17,-493 974.17,-531 1106.17,-531 1106.17,-493 974.17,-493"/>
<text text-anchor="middle" x="987.17" y="-508.3" font-family="Times New Roman,serif" font-size="14.00">A</text>
<polyline fill="none" stroke="black" points="1000.17,-493 1000.17,-531 "/>
<text text-anchor="middle" x="1040.17" y="-515.8" font-family="Times New Roman,serif" font-size="14.00">$16</text>
<text text-anchor="middle" x="1040.17" y="-500.8" font-family="Times New Roman,serif" font-size="14.00">$reduce_or</text>
<polyline fill="none" stroke="black" points="1080.17,-493 1080.17,-531 "/>
<text text-anchor="middle" x="1093.17" y="-508.3" font-family="Times New Roman,serif" font-size="14.00">Y</text>
</g>
<!-- c19&#45;&gt;x13 -->
<g id="edge28" class="edge">
<title>c19:e&#45;&gt;x13:w</title>
<path fill="none" stroke="#1b9e77" d="M1106.17,-512C1129.09,-512 1137.24,-512 1156,-512"/>
<polygon fill="#1b9e77" stroke="#1b9e77" points="1156.18,-515.5 1166.17,-512 1156.17,-508.5 1156.18,-515.5"/>
</g>
<!-- x1 -->
<g id="node12" class="node">
<title>x1</title>
<path fill="none" stroke="black" d="M841.67,-489C841.67,-489 879.67,-489 879.67,-489 885.67,-489 891.67,-495 891.67,-501 891.67,-501 891.67,-523 891.67,-523 891.67,-529 885.67,-535 879.67,-535 879.67,-535 841.67,-535 841.67,-535 835.67,-535 829.67,-529 829.67,-523 829.67,-523 829.67,-501 829.67,-501 829.67,-495 835.67,-489 841.67,-489"/>
<text text-anchor="middle" x="860.67" y="-519.8" font-family="Times New Roman,serif" font-size="14.00">0:0 &#45; 1:1</text>
<polyline fill="none" stroke="black" points="829.67,-512 891.67,-512 "/>
<text text-anchor="middle" x="860.67" y="-496.8" font-family="Times New Roman,serif" font-size="14.00">0:0 &#45; 0:0</text>
</g>
<!-- x1&#45;&gt;c19 -->
<g id="edge2" class="edge">
<title>x1:e&#45;&gt;c19:w</title>
<path fill="none" stroke="#1b9e77" stroke-width="3" d="M904.74,-512C927.73,-512 938.97,-512 961.89,-512"/>
<polygon fill="none" stroke="#1b9e77" stroke-width="3" points="904.67,-512 898.67,-516 892.67,-512 898.68,-508 904.67,-512"/>
<polygon fill="none" stroke="#1b9e77" stroke-width="3" points="962.17,-512 968.17,-508 974.17,-512 968.18,-516 962.17,-512"/>
<text text-anchor="middle" x="944.17" y="-515.8" font-family="Times New Roman,serif" font-size="14.00" fill="#1b9e77">&lt;2&gt;</text>
</g>
<!-- c24&#45;&gt;n13 -->
<g id="edge18" class="edge">
<title>c24:e&#45;&gt;n13:w</title>
<path fill="none" stroke="#d95f02" d="M276.97,-744C301.8,-744 289.56,-545.43 306.87,-505.09"/>
<polygon fill="#d95f02" stroke="#d95f02" points="309.37,-507.54 313.97,-498 304.42,-502.59 309.37,-507.54"/>
</g>
<!-- v3 -->
<g id="node14" class="node">
<title>v3</title>
<ellipse fill="none" stroke="black" cx="491.17" cy="-429" rx="30.59" ry="18"/>
<text text-anchor="middle" x="491.17" y="-425.3" font-family="Times New Roman,serif" font-size="14.00">3&#39;100</text>
</g>
<!-- c26 -->
<g id="node15" class="node">
<title>c26</title>
<polygon fill="none" stroke="black" points="614.17,-465 614.17,-511 747.17,-511 747.17,-465 614.17,-465"/>
<text text-anchor="middle" x="627.17" y="-495.8" font-family="Times New Roman,serif" font-size="14.00">A</text>
<polyline fill="none" stroke="black" points="614.17,-488 640.17,-488 "/>
<text text-anchor="middle" x="627.17" y="-472.8" font-family="Times New Roman,serif" font-size="14.00">B</text>
<polyline fill="none" stroke="black" points="640.17,-465 640.17,-511 "/>
<text text-anchor="middle" x="680.67" y="-491.8" font-family="Times New Roman,serif" font-size="14.00">$10_CMP0</text>
<text text-anchor="middle" x="680.67" y="-476.8" font-family="Times New Roman,serif" font-size="14.00">$eq</text>
<polyline fill="none" stroke="black" points="721.17,-465 721.17,-511 "/>
<text text-anchor="middle" x="734.17" y="-484.3" font-family="Times New Roman,serif" font-size="14.00">Y</text>
</g>
<!-- v3&#45;&gt;c26 -->
<g id="edge41" class="edge">
<title>v3:e&#45;&gt;c26:w</title>
<path fill="none" stroke="#7570b3" stroke-width="3" d="M523.17,-429C564.96,-429 568.35,-468.6 603.84,-475.1"/>
<polygon fill="#7570b3" stroke="#7570b3" stroke-width="3" points="603.91,-478.62 614.17,-476 604.52,-471.64 603.91,-478.62"/>
<text text-anchor="middle" x="584.17" y="-476.8" font-family="Times New Roman,serif" font-size="14.00" fill="#7570b3">&lt;3&gt;</text>
</g>
<!-- c26&#45;&gt;x1 -->
<g id="edge29" class="edge">
<title>c26:e&#45;&gt;x1:w</title>
<path fill="none" stroke="#7570b3" d="M747.17,-488C780.07,-488 790.09,-497.68 818.34,-499.65"/>
<polygon fill="#7570b3" stroke="#7570b3" points="818.56,-503.16 828.67,-500 818.8,-496.16 818.56,-503.16"/>
</g>
<!-- x2&#45;&gt;c26 -->
<g id="edge3" class="edge">
<title>x2:e&#45;&gt;c26:w</title>
<path fill="none" stroke="#1b9e77" stroke-width="3" d="M535.44,-500C562.47,-500 574.98,-500 602.07,-500"/>
<polygon fill="none" stroke="#1b9e77" stroke-width="3" points="535.17,-500 529.17,-504 523.17,-500 529.18,-496 535.17,-500"/>
<polygon fill="none" stroke="#1b9e77" stroke-width="3" points="602.17,-500 608.17,-496 614.17,-500 608.18,-504 602.17,-500"/>
<text text-anchor="middle" x="584.17" y="-503.8" font-family="Times New Roman,serif" font-size="14.00" fill="#1b9e77">&lt;3&gt;</text>
</g>
<!-- v5 -->
<g id="node17" class="node">
<title>v5</title>
<ellipse fill="none" stroke="black" cx="491.17" cy="-287" rx="30.59" ry="18"/>
<text text-anchor="middle" x="491.17" y="-283.3" font-family="Times New Roman,serif" font-size="14.00">3&#39;111</text>
</g>
<!-- c27 -->
<g id="node18" class="node">
<title>c27</title>
<polygon fill="none" stroke="black" points="614.17,-299 614.17,-345 747.17,-345 747.17,-299 614.17,-299"/>
<text text-anchor="middle" x="627.17" y="-329.8" font-family="Times New Roman,serif" font-size="14.00">A</text>
<polyline fill="none" stroke="black" points="614.17,-322 640.17,-322 "/>
<text text-anchor="middle" x="627.17" y="-306.8" font-family="Times New Roman,serif" font-size="14.00">B</text>
<polyline fill="none" stroke="black" points="640.17,-299 640.17,-345 "/>
<text text-anchor="middle" x="680.67" y="-325.8" font-family="Times New Roman,serif" font-size="14.00">$11_CMP0</text>
<text text-anchor="middle" x="680.67" y="-310.8" font-family="Times New Roman,serif" font-size="14.00">$eq</text>
<polyline fill="none" stroke="black" points="721.17,-299 721.17,-345 "/>
<text text-anchor="middle" x="734.17" y="-318.3" font-family="Times New Roman,serif" font-size="14.00">Y</text>
</g>
<!-- v5&#45;&gt;c27 -->
<g id="edge42" class="edge">
<title>v5:e&#45;&gt;c27:w</title>
<path fill="none" stroke="#e6ab02" stroke-width="3" d="M523.17,-287C561.31,-287 570.91,-306.21 604.13,-309.52"/>
<polygon fill="#e6ab02" stroke="#e6ab02" stroke-width="3" points="604.02,-313.01 614.17,-310 604.35,-306.02 604.02,-313.01"/>
<text text-anchor="middle" x="584.17" y="-312.8" font-family="Times New Roman,serif" font-size="14.00" fill="#e6ab02">&lt;3&gt;</text>
</g>
<!-- c27&#45;&gt;x0 -->
<g id="edge30" class="edge">
<title>c27:e&#45;&gt;x0:w</title>
<path fill="none" stroke="#666666" d="M747.17,-322C779.72,-322 790.33,-322 818.42,-322"/>
<polygon fill="#666666" stroke="#666666" points="818.68,-325.5 828.67,-322 818.67,-318.5 818.68,-325.5"/>
</g>
<!-- x4&#45;&gt;c27 -->
<g id="edge4" class="edge">
<title>x4:e&#45;&gt;c27:w</title>
<path fill="none" stroke="#7570b3" stroke-width="3" d="M535.34,-357.25C563.23,-353.68 574.16,-338.29 602.08,-334.73"/>
<polygon fill="none" stroke="#7570b3" stroke-width="3" points="535.15,-357.26 529.41,-361.62 523.17,-358 528.92,-353.64 535.15,-357.26"/>
<polygon fill="none" stroke="#7570b3" stroke-width="3" points="602.2,-334.72 607.94,-330.37 614.17,-334 608.43,-338.35 602.2,-334.72"/>
<text text-anchor="middle" x="584.17" y="-347.8" font-family="Times New Roman,serif" font-size="14.00" fill="#7570b3">&lt;3&gt;</text>
</g>
<!-- v7 -->
<g id="node20" class="node">
<title>v7</title>
<ellipse fill="none" stroke="black" cx="491.17" cy="-571" rx="30.59" ry="18"/>
<text text-anchor="middle" x="491.17" y="-567.3" font-family="Times New Roman,serif" font-size="14.00">3&#39;110</text>
</g>
<!-- c28 -->
<g id="node21" class="node">
<title>c28</title>
<polygon fill="none" stroke="black" points="614.17,-538 614.17,-584 747.17,-584 747.17,-538 614.17,-538"/>
<text text-anchor="middle" x="627.17" y="-568.8" font-family="Times New Roman,serif" font-size="14.00">A</text>
<polyline fill="none" stroke="black" points="614.17,-561 640.17,-561 "/>
<text text-anchor="middle" x="627.17" y="-545.8" font-family="Times New Roman,serif" font-size="14.00">B</text>
<polyline fill="none" stroke="black" points="640.17,-538 640.17,-584 "/>
<text text-anchor="middle" x="680.67" y="-564.8" font-family="Times New Roman,serif" font-size="14.00">$12_CMP0</text>
<text text-anchor="middle" x="680.67" y="-549.8" font-family="Times New Roman,serif" font-size="14.00">$eq</text>
<polyline fill="none" stroke="black" points="721.17,-538 721.17,-584 "/>
<text text-anchor="middle" x="734.17" y="-557.3" font-family="Times New Roman,serif" font-size="14.00">Y</text>
</g>
<!-- v7&#45;&gt;c28 -->
<g id="edge43" class="edge">
<title>v7:e&#45;&gt;c28:w</title>
<path fill="none" stroke="#7570b3" stroke-width="3" d="M523.17,-571C546.87,-571 549.02,-555.04 572.17,-550 586.57,-546.86 592.77,-548.05 603.92,-548.69"/>
<polygon fill="#7570b3" stroke="#7570b3" stroke-width="3" points="604.08,-552.2 614.17,-549 604.28,-545.2 604.08,-552.2"/>
<text text-anchor="middle" x="584.17" y="-553.8" font-family="Times New Roman,serif" font-size="14.00" fill="#7570b3">&lt;3&gt;</text>
</g>
<!-- c28&#45;&gt;x1 -->
<g id="edge31" class="edge">
<title>c28:e&#45;&gt;x1:w</title>
<path fill="none" stroke="#a6761d" d="M747.17,-561C783.23,-561 788.2,-530.61 818.42,-524.91"/>
<polygon fill="#a6761d" stroke="#a6761d" points="819.03,-528.37 828.67,-524 818.4,-521.4 819.03,-528.37"/>
</g>
<!-- x6&#45;&gt;c28 -->
<g id="edge5" class="edge">
<title>x6:e&#45;&gt;c28:w</title>
<path fill="none" stroke="#e7298a" stroke-width="3" d="M535.27,-678.4C577.62,-666.13 559.72,-586.9 602.04,-574.6"/>
<polygon fill="none" stroke="#e7298a" stroke-width="3" points="535.07,-678.43 529.65,-683.18 523.17,-680 528.6,-675.25 535.07,-678.43"/>
<polygon fill="none" stroke="#e7298a" stroke-width="3" points="602.28,-574.57 607.7,-569.82 614.17,-573 608.75,-577.75 602.28,-574.57"/>
<text text-anchor="middle" x="584.17" y="-617.8" font-family="Times New Roman,serif" font-size="14.00" fill="#e7298a">&lt;3&gt;</text>
</g>
<!-- v8 -->
<g id="node23" class="node">
<title>v8</title>
<ellipse fill="none" stroke="black" cx="680.67" cy="-167" rx="27" ry="18"/>
<text text-anchor="middle" x="680.67" y="-163.3" font-family="Times New Roman,serif" font-size="14.00">2&#39;xx</text>
</g>
<!-- c30 -->
<g id="node25" class="node">
<title>c30</title>
<polygon fill="none" stroke="black" points="807.17,-78.5 807.17,-147.5 914.17,-147.5 914.17,-78.5 807.17,-78.5"/>
<text text-anchor="middle" x="820.17" y="-132.3" font-family="Times New Roman,serif" font-size="14.00">A</text>
<polyline fill="none" stroke="black" points="807.17,-124.5 833.17,-124.5 "/>
<text text-anchor="middle" x="820.17" y="-109.3" font-family="Times New Roman,serif" font-size="14.00">B</text>
<polyline fill="none" stroke="black" points="807.17,-101.5 833.17,-101.5 "/>
<text text-anchor="middle" x="820.17" y="-86.3" font-family="Times New Roman,serif" font-size="14.00">S</text>
<polyline fill="none" stroke="black" points="833.17,-78.5 833.17,-147.5 "/>
<text text-anchor="middle" x="860.67" y="-116.8" font-family="Times New Roman,serif" font-size="14.00">$4</text>
<text text-anchor="middle" x="860.67" y="-101.8" font-family="Times New Roman,serif" font-size="14.00">$pmux</text>
<polyline fill="none" stroke="black" points="888.17,-78.5 888.17,-147.5 "/>
<text text-anchor="middle" x="901.17" y="-109.3" font-family="Times New Roman,serif" font-size="14.00">Y</text>
</g>
<!-- v8&#45;&gt;c30 -->
<g id="edge44" class="edge">
<title>v8:e&#45;&gt;c30:w</title>
<path fill="none" stroke="#d95f02" stroke-width="3" d="M708.67,-167C750.98,-167 759.99,-140.65 797.1,-136.53"/>
<polygon fill="#d95f02" stroke="#d95f02" stroke-width="3" points="797.38,-140.02 807.17,-136 797,-133.03 797.38,-140.02"/>
<text text-anchor="middle" x="777.17" y="-150.8" font-family="Times New Roman,serif" font-size="14.00" fill="#d95f02">&lt;2&gt;</text>
</g>
<!-- v9 -->
<g id="node24" class="node">
<title>v9</title>
<ellipse fill="none" stroke="black" cx="680.67" cy="-113" rx="34.39" ry="18"/>
<text text-anchor="middle" x="680.67" y="-109.3" font-family="Times New Roman,serif" font-size="14.00">4&#39;1001</text>
</g>
<!-- v9&#45;&gt;c30 -->
<g id="edge45" class="edge">
<title>v9:e&#45;&gt;c30:w</title>
<path fill="none" stroke="#d95f02" stroke-width="3" d="M716.67,-113C753.28,-113 764.9,-113 797.02,-113"/>
<polygon fill="#d95f02" stroke="#d95f02" stroke-width="3" points="797.18,-116.5 807.17,-113 797.17,-109.5 797.18,-116.5"/>
<text text-anchor="middle" x="777.17" y="-116.8" font-family="Times New Roman,serif" font-size="14.00" fill="#d95f02">&lt;4&gt;</text>
</g>
<!-- x11 -->
<g id="node27" class="node">
<title>x11</title>
<path fill="none" stroke="black" d="M1425.17,-90C1425.17,-90 1463.17,-90 1463.17,-90 1469.17,-90 1475.17,-96 1475.17,-102 1475.17,-102 1475.17,-124 1475.17,-124 1475.17,-130 1469.17,-136 1463.17,-136 1463.17,-136 1425.17,-136 1425.17,-136 1419.17,-136 1413.17,-130 1413.17,-124 1413.17,-124 1413.17,-102 1413.17,-102 1413.17,-96 1419.17,-90 1425.17,-90"/>
<text text-anchor="middle" x="1444.17" y="-120.8" font-family="Times New Roman,serif" font-size="14.00">1:1 &#45; 0:0</text>
<polyline fill="none" stroke="black" points="1413.17,-113 1475.17,-113 "/>
<text text-anchor="middle" x="1444.17" y="-97.8" font-family="Times New Roman,serif" font-size="14.00">0:0 &#45; 0:0</text>
</g>
<!-- c30&#45;&gt;x11 -->
<g id="edge7" class="edge">
<title>c30:e&#45;&gt;x11:w</title>
<path fill="none" stroke="#7570b3" stroke-width="3" d="M926.18,-113C972.09,-113 987.85,-113 1039.17,-113 1039.17,-113 1039.17,-113 1259.17,-113 1323.34,-113 1342.39,-113 1400.92,-113"/>
<polygon fill="none" stroke="#7570b3" stroke-width="3" points="926.17,-113 920.17,-117 914.17,-113 920.18,-109 926.17,-113"/>
<polygon fill="none" stroke="#7570b3" stroke-width="3" points="1401.17,-113 1407.17,-109 1413.17,-113 1407.18,-117 1401.17,-113"/>
<text text-anchor="middle" x="1136.17" y="-116.8" font-family="Times New Roman,serif" font-size="14.00" fill="#7570b3">&lt;2&gt;</text>
</g>
<!-- x10&#45;&gt;c30 -->
<g id="edge6" class="edge">
<title>x10:e&#45;&gt;c30:w</title>
<path fill="none" stroke="#e7298a" stroke-width="3" d="M724.8,-53.99C755.27,-59.23 764.52,-83.7 794.93,-88.99"/>
<polygon fill="none" stroke="#e7298a" stroke-width="3" points="724.64,-53.97 718.33,-57.47 712.67,-53 718.98,-49.5 724.64,-53.97"/>
<polygon fill="none" stroke="#e7298a" stroke-width="3" points="795.22,-89.01 801.52,-85.52 807.17,-90 800.87,-93.49 795.22,-89.01"/>
<text text-anchor="middle" x="777.17" y="-91.8" font-family="Times New Roman,serif" font-size="14.00" fill="#e7298a">&lt;2&gt;</text>
</g>
<!-- x11&#45;&gt;n14 -->
<g id="edge26" class="edge">
<title>x11:e&#45;&gt;n14:w</title>
<path fill="none" stroke="#d95f02" d="M1475.17,-125C1548.82,-125 1569.5,-133.21 1638.38,-133.94"/>
<polygon fill="#d95f02" stroke="#d95f02" points="1638.41,-137.44 1648.43,-134 1638.45,-130.44 1638.41,-137.44"/>
</g>
<!-- x11&#45;&gt;n15 -->
<g id="edge27" class="edge">
<title>x11:e&#45;&gt;n15:w</title>
<path fill="none" stroke="#1b9e77" d="M1475.17,-101C1547.35,-101 1567.76,-93.73 1635.09,-93.05"/>
<polygon fill="#1b9e77" stroke="#1b9e77" points="1635.39,-96.55 1645.37,-93 1635.35,-89.55 1635.39,-96.55"/>
</g>
<!-- c31&#45;&gt;x10 -->
<g id="edge32" class="edge">
<title>c31:e&#45;&gt;x10:w</title>
<path fill="none" stroke="#7570b3" d="M554.17,-89C593.78,-89 603.73,-68.94 638.24,-65.5"/>
<polygon fill="#7570b3" stroke="#7570b3" points="638.85,-68.97 648.67,-65 638.52,-61.98 638.85,-68.97"/>
</g>
<!-- v12 -->
<g id="node29" class="node">
<title>v12</title>
<ellipse fill="none" stroke="black" cx="1197.17" cy="-571" rx="27" ry="18"/>
<text text-anchor="middle" x="1197.17" y="-567.3" font-family="Times New Roman,serif" font-size="14.00">2&#39;10</text>
</g>
<!-- v12&#45;&gt;c32 -->
<g id="edge39" class="edge">
<title>v12:e&#45;&gt;c32:w</title>
<path fill="none" stroke="#66a61e" stroke-width="3" d="M1225.17,-571C1250,-571 1257.75,-580.1 1278.18,-582.45"/>
<polygon fill="#66a61e" stroke="#66a61e" stroke-width="3" points="1278,-585.94 1288.17,-583 1278.38,-578.96 1278,-585.94"/>
<text text-anchor="middle" x="1258.17" y="-584.8" font-family="Times New Roman,serif" font-size="14.00" fill="#66a61e">&lt;2&gt;</text>
</g>
<!-- c32&#45;&gt;n12 -->
<g id="edge16" class="edge">
<title>c32:e&#45;&gt;n12:w</title>
<path fill="none" stroke="#d95f02" d="M1395.17,-583C1459.3,-583 1429.15,-687.55 1482.96,-698.98"/>
<polygon fill="#d95f02" stroke="#d95f02" points="1482.88,-702.49 1493.17,-700 1483.57,-695.53 1482.88,-702.49"/>
</g>
<!-- x13&#45;&gt;c32 -->
<g id="edge8" class="edge">
<title>x13:e&#45;&gt;c32:w</title>
<path fill="none" stroke="#d95f02" stroke-width="3" d="M1240.03,-502.57C1259.56,-512.4 1256.76,-547.44 1276.2,-557.36"/>
<polygon fill="none" stroke="#d95f02" stroke-width="3" points="1239.9,-502.55 1233.19,-505.18 1228.17,-500 1234.89,-497.36 1239.9,-502.55"/>
<polygon fill="none" stroke="#d95f02" stroke-width="3" points="1276.46,-557.42 1283.18,-554.8 1288.17,-560 1281.46,-562.61 1276.46,-557.42"/>
<text text-anchor="middle" x="1258.17" y="-556.8" font-family="Times New Roman,serif" font-size="14.00" fill="#d95f02">&lt;2&gt;</text>
</g>
<!-- v15 -->
<g id="node32" class="node">
<title>v15</title>
<ellipse fill="none" stroke="black" cx="491.17" cy="-145" rx="27" ry="18"/>
<text text-anchor="middle" x="491.17" y="-141.3" font-family="Times New Roman,serif" font-size="14.00">2&#39;11</text>
</g>
<!-- c33 -->
<g id="node33" class="node">
<title>c33</title>
<polygon fill="none" stroke="black" points="617.67,-204 617.67,-250 743.67,-250 743.67,-204 617.67,-204"/>
<text text-anchor="middle" x="630.67" y="-234.8" font-family="Times New Roman,serif" font-size="14.00">A</text>
<polyline fill="none" stroke="black" points="617.67,-227 643.67,-227 "/>
<text text-anchor="middle" x="630.67" y="-211.8" font-family="Times New Roman,serif" font-size="14.00">B</text>
<polyline fill="none" stroke="black" points="643.67,-204 643.67,-250 "/>
<text text-anchor="middle" x="680.67" y="-230.8" font-family="Times New Roman,serif" font-size="14.00">$9_CMP0</text>
<text text-anchor="middle" x="680.67" y="-215.8" font-family="Times New Roman,serif" font-size="14.00">$eq</text>
<polyline fill="none" stroke="black" points="717.67,-204 717.67,-250 "/>
<text text-anchor="middle" x="730.67" y="-223.3" font-family="Times New Roman,serif" font-size="14.00">Y</text>
</g>
<!-- v15&#45;&gt;c33 -->
<g id="edge40" class="edge">
<title>v15:e&#45;&gt;c33:w</title>
<path fill="none" stroke="#a6761d" stroke-width="3" d="M519.17,-145C542.83,-145 580.22,-200.03 606.99,-212.5"/>
<polygon fill="#a6761d" stroke="#a6761d" stroke-width="3" points="606.12,-215.89 616.67,-215 607.86,-209.12 606.12,-215.89"/>
<text text-anchor="middle" x="584.17" y="-208.8" font-family="Times New Roman,serif" font-size="14.00" fill="#a6761d">&lt;2&gt;</text>
</g>
<!-- c33&#45;&gt;x0 -->
<g id="edge33" class="edge">
<title>c33:e&#45;&gt;x0:w</title>
<path fill="none" stroke="#a6761d" d="M744.67,-227C789.74,-227 781.56,-287.34 818.31,-296.76"/>
<polygon fill="#a6761d" stroke="#a6761d" points="818.33,-300.29 828.67,-298 819.16,-293.34 818.33,-300.29"/>
</g>
<!-- x14&#45;&gt;c33 -->
<g id="edge9" class="edge">
<title>x14:e&#45;&gt;c33:w</title>
<path fill="none" stroke="#1b9e77" stroke-width="3" d="M535.21,-216.66C564.23,-220 575.61,-234.98 604.62,-238.33"/>
<polygon fill="none" stroke="#1b9e77" stroke-width="3" points="535.16,-216.66 528.95,-220.32 523.17,-216 529.39,-212.33 535.16,-216.66"/>
<polygon fill="none" stroke="#1b9e77" stroke-width="3" points="604.69,-238.33 610.9,-234.67 616.67,-239 610.46,-242.66 604.69,-238.33"/>
<text text-anchor="middle" x="584.17" y="-240.8" font-family="Times New Roman,serif" font-size="14.00" fill="#1b9e77">&lt;3&gt;</text>
</g>
</g>
</svg>
