<?xml version="1.0" encoding="UTF-8" standalone="no"?>
<!DOCTYPE svg PUBLIC "-//W3C//DTD SVG 1.1//EN"
 "http://www.w3.org/Graphics/SVG/1.1/DTD/svg11.dtd">
<!-- Generated by graphviz version 4.0.0 (20220529.0937)
 -->
<!-- Title: top_module Pages: 1 -->
<svg width="1336pt" height="581pt"
 viewBox="0.00 0.00 1335.91 581.00" xmlns="http://www.w3.org/2000/svg" xmlns:xlink="http://www.w3.org/1999/xlink">
<g id="graph0" class="graph" transform="scale(1 1) rotate(0) translate(4 577)">
<title>top_module</title>
<polygon fill="white" stroke="transparent" points="-4,4 -4,-577 1331.91,-577 1331.91,4 -4,4"/>
<text text-anchor="middle" x="663.96" y="-7.8" font-family="Times New Roman,serif" font-size="14.00">top_module</text>
<!-- n1 -->
<g id="node1" class="node">
<title>n1</title>
<polygon fill="none" stroke="black" points="289.68,-350 149.75,-332 289.68,-314 429.6,-332 289.68,-350"/>
<text text-anchor="middle" x="289.68" y="-328.3" font-family="Times New Roman,serif" font-size="14.00">state_SB_DFFER_Q_E</text>
</g>
<!-- c22 -->
<g id="node16" class="node">
<title>c22</title>
<polygon fill="none" stroke="black" points="465.39,-297 465.39,-389 655.39,-389 655.39,-297 465.39,-297"/>
<text text-anchor="middle" x="478.39" y="-373.8" font-family="Times New Roman,serif" font-size="14.00">C</text>
<polyline fill="none" stroke="black" points="465.39,-366 491.39,-366 "/>
<text text-anchor="middle" x="478.39" y="-350.8" font-family="Times New Roman,serif" font-size="14.00">D</text>
<polyline fill="none" stroke="black" points="465.39,-343 491.39,-343 "/>
<text text-anchor="middle" x="478.39" y="-327.8" font-family="Times New Roman,serif" font-size="14.00">E</text>
<polyline fill="none" stroke="black" points="465.39,-320 491.39,-320 "/>
<text text-anchor="middle" x="478.39" y="-304.8" font-family="Times New Roman,serif" font-size="14.00">R</text>
<polyline fill="none" stroke="black" points="491.39,-297 491.39,-389 "/>
<text text-anchor="middle" x="559.89" y="-346.8" font-family="Times New Roman,serif" font-size="14.00">state_SB_DFFER_Q</text>
<text text-anchor="middle" x="559.89" y="-331.8" font-family="Times New Roman,serif" font-size="14.00">SB_DFFER</text>
<polyline fill="none" stroke="black" points="628.39,-297 628.39,-389 "/>
<text text-anchor="middle" x="641.89" y="-339.3" font-family="Times New Roman,serif" font-size="14.00">Q</text>
</g>
<!-- n1&#45;&gt;c22 -->
<g id="edge2" class="edge">
<title>n1:e&#45;&gt;c22:w</title>
<path fill="none" stroke="#66a61e" d="M429.39,-332C441.39,-332 446.64,-331.44 455.26,-331.16"/>
<polygon fill="#66a61e" stroke="#66a61e" points="455.44,-334.65 465.39,-331 455.34,-327.65 455.44,-334.65"/>
</g>
<!-- n2 -->
<g id="node2" class="node">
<title>n2</title>
<polygon fill="none" stroke="black" points="91.43,-278.54 91.43,-293.46 71.25,-304 42.72,-304 22.54,-293.46 22.54,-278.54 42.72,-268 71.25,-268 91.43,-278.54"/>
<text text-anchor="middle" x="56.98" y="-282.3" font-family="Times New Roman,serif" font-size="14.00">areset</text>
</g>
<!-- n2&#45;&gt;c22 -->
<g id="edge3" class="edge">
<title>n2:e&#45;&gt;c22:w</title>
<path fill="none" stroke="#1b9e77" d="M92.98,-286C242.74,-286 280,-294.56 429.39,-305 441.4,-305.84 446.61,-307.11 455.24,-307.69"/>
<polygon fill="#1b9e77" stroke="#1b9e77" points="455.29,-311.19 465.39,-308 455.5,-304.19 455.29,-311.19"/>
</g>
<!-- n3 -->
<g id="node3" class="node">
<title>n3</title>
<polygon fill="none" stroke="black" points="109.1,-478.54 109.1,-493.46 78.57,-504 35.4,-504 4.87,-493.46 4.87,-478.54 35.4,-468 78.57,-468 109.1,-478.54"/>
<text text-anchor="middle" x="56.98" y="-482.3" font-family="Times New Roman,serif" font-size="14.00">bump_left</text>
</g>
<!-- c15 -->
<g id="node11" class="node">
<title>c15</title>
<polygon fill="none" stroke="black" points="804.6,-425 804.6,-517 1017.6,-517 1017.6,-425 804.6,-425"/>
<text text-anchor="middle" x="818.6" y="-501.8" font-family="Times New Roman,serif" font-size="14.00">I0</text>
<polyline fill="none" stroke="black" points="804.6,-494 832.6,-494 "/>
<text text-anchor="middle" x="818.6" y="-478.8" font-family="Times New Roman,serif" font-size="14.00">I1</text>
<polyline fill="none" stroke="black" points="804.6,-471 832.6,-471 "/>
<text text-anchor="middle" x="818.6" y="-455.8" font-family="Times New Roman,serif" font-size="14.00">I2</text>
<polyline fill="none" stroke="black" points="804.6,-448 832.6,-448 "/>
<text text-anchor="middle" x="818.6" y="-432.8" font-family="Times New Roman,serif" font-size="14.00">I3</text>
<polyline fill="none" stroke="black" points="832.6,-425 832.6,-517 "/>
<text text-anchor="middle" x="911.6" y="-474.8" font-family="Times New Roman,serif" font-size="14.00">bump_left_SB_LUT4_I2</text>
<text text-anchor="middle" x="911.6" y="-459.8" font-family="Times New Roman,serif" font-size="14.00">SB_LUT4</text>
<polyline fill="none" stroke="black" points="990.6,-425 990.6,-517 "/>
<text text-anchor="middle" x="1004.1" y="-467.3" font-family="Times New Roman,serif" font-size="14.00">O</text>
</g>
<!-- n3&#45;&gt;c15 -->
<g id="edge4" class="edge">
<title>n3:e&#45;&gt;c15:w</title>
<path fill="none" stroke="#1b9e77" d="M109.98,-486C415.46,-486 493.9,-459.6 794.28,-459.01"/>
<polygon fill="#1b9e77" stroke="#1b9e77" points="794.6,-462.51 804.6,-459 794.6,-455.51 794.6,-462.51"/>
</g>
<!-- n4 -->
<g id="node4" class="node">
<title>n4</title>
<polygon fill="none" stroke="black" points="113.95,-424.54 113.95,-439.46 80.58,-450 33.39,-450 0.02,-439.46 0.02,-424.54 33.39,-414 80.58,-414 113.95,-424.54"/>
<text text-anchor="middle" x="56.98" y="-428.3" font-family="Times New Roman,serif" font-size="14.00">bump_right</text>
</g>
<!-- n4&#45;&gt;c15 -->
<g id="edge5" class="edge">
<title>n4:e&#45;&gt;c15:w</title>
<path fill="none" stroke="#7570b3" d="M113.97,-432C372.12,-432 433.61,-480.98 691.39,-495 725.65,-496.86 734.73,-500.5 768.6,-495 781.21,-492.95 785.7,-487.12 794.47,-484.41"/>
<polygon fill="#7570b3" stroke="#7570b3" points="795.18,-487.85 804.6,-483 794.21,-480.91 795.18,-487.85"/>
</g>
<!-- c23 -->
<g id="node19" class="node">
<title>c23</title>
<polygon fill="none" stroke="black" points="805.1,-252 805.1,-344 1017.1,-344 1017.1,-252 805.1,-252"/>
<text text-anchor="middle" x="819.1" y="-328.8" font-family="Times New Roman,serif" font-size="14.00">I0</text>
<polyline fill="none" stroke="black" points="805.1,-321 833.1,-321 "/>
<text text-anchor="middle" x="819.1" y="-305.8" font-family="Times New Roman,serif" font-size="14.00">I1</text>
<polyline fill="none" stroke="black" points="805.1,-298 833.1,-298 "/>
<text text-anchor="middle" x="819.1" y="-282.8" font-family="Times New Roman,serif" font-size="14.00">I2</text>
<polyline fill="none" stroke="black" points="805.1,-275 833.1,-275 "/>
<text text-anchor="middle" x="819.1" y="-259.8" font-family="Times New Roman,serif" font-size="14.00">I3</text>
<polyline fill="none" stroke="black" points="833.1,-252 833.1,-344 "/>
<text text-anchor="middle" x="911.6" y="-301.8" font-family="Times New Roman,serif" font-size="14.00">next_state_SB_LUT4_O</text>
<text text-anchor="middle" x="911.6" y="-286.8" font-family="Times New Roman,serif" font-size="14.00">SB_LUT4</text>
<polyline fill="none" stroke="black" points="990.1,-252 990.1,-344 "/>
<text text-anchor="middle" x="1003.6" y="-294.3" font-family="Times New Roman,serif" font-size="14.00">O</text>
</g>
<!-- n4&#45;&gt;c23 -->
<g id="edge6" class="edge">
<title>n4:e&#45;&gt;c23:w</title>
<path fill="none" stroke="#7570b3" d="M113.97,-432C172.63,-432 106.27,-344.15 149.97,-305 331.71,-142.18 448.23,-234.29 691.39,-214 725.59,-211.15 737.98,-198.5 768.6,-214 788.94,-224.3 781.35,-252.1 794.71,-260.54"/>
<polygon fill="#7570b3" stroke="#7570b3" points="794.05,-263.98 804.6,-263 795.74,-257.19 794.05,-263.98"/>
</g>
<!-- n5 -->
<g id="node5" class="node">
<title>n5</title>
<polygon fill="none" stroke="black" points="83.98,-370.54 83.98,-385.46 68.17,-396 45.8,-396 29.98,-385.46 29.98,-370.54 45.8,-360 68.17,-360 83.98,-370.54"/>
<text text-anchor="middle" x="56.98" y="-374.3" font-family="Times New Roman,serif" font-size="14.00">clk</text>
</g>
<!-- n5&#45;&gt;c22 -->
<g id="edge7" class="edge">
<title>n5:e&#45;&gt;c22:w</title>
<path fill="none" stroke="#e7298a" d="M84.98,-378C250.59,-378 294.53,-378 455.15,-378"/>
<polygon fill="#e7298a" stroke="#e7298a" points="455.39,-381.5 465.39,-378 455.39,-374.5 455.39,-381.5"/>
</g>
<!-- n6 -->
<g id="node6" class="node">
<title>n6</title>
<polygon fill="none" stroke="black" points="1120.7,-372 1053.5,-354 1120.7,-336 1187.89,-354 1120.7,-372"/>
<text text-anchor="middle" x="1120.7" y="-350.3" font-family="Times New Roman,serif" font-size="14.00">next_state</text>
</g>
<!-- n6&#45;&gt;c22 -->
<g id="edge9" class="edge">
<title>n6:e&#45;&gt;c22:w</title>
<path fill="none" stroke="#e7298a" d="M1188.7,-354C1196.71,-354 1193.43,-366.4 1187.7,-372 1103.07,-454.74 773.73,-387.56 655.39,-389.5 570.96,-390.89 525.96,-448.34 465.39,-389.5 457.65,-381.98 452.72,-367.98 455.8,-360.33"/>
<polygon fill="#e7298a" stroke="#e7298a" points="457.74,-363.25 464.39,-355 454.05,-357.3 457.74,-363.25"/>
</g>
<!-- n7 -->
<g id="node7" class="node">
<title>n7</title>
<polygon fill="none" stroke="black" points="729.99,-259 691.28,-241 729.99,-223 768.7,-241 729.99,-259"/>
<text text-anchor="middle" x="729.99" y="-237.3" font-family="Times New Roman,serif" font-size="14.00">state</text>
</g>
<!-- n7&#45;&gt;c15 -->
<g id="edge11" class="edge">
<title>n7:e&#45;&gt;c15:w</title>
<path fill="none" stroke="#7570b3" d="M768.6,-241C852.94,-241 728.1,-419.6 794.47,-434.95"/>
<polygon fill="#7570b3" stroke="#7570b3" points="794.29,-438.45 804.6,-436 795.01,-431.49 794.29,-438.45"/>
</g>
<!-- c16 -->
<g id="node15" class="node">
<title>c16</title>
<polygon fill="none" stroke="black" points="808.1,-53 808.1,-145 1014.1,-145 1014.1,-53 808.1,-53"/>
<text text-anchor="middle" x="822.1" y="-129.8" font-family="Times New Roman,serif" font-size="14.00">I0</text>
<polyline fill="none" stroke="black" points="808.1,-122 836.1,-122 "/>
<text text-anchor="middle" x="822.1" y="-106.8" font-family="Times New Roman,serif" font-size="14.00">I1</text>
<polyline fill="none" stroke="black" points="808.1,-99 836.1,-99 "/>
<text text-anchor="middle" x="822.1" y="-83.8" font-family="Times New Roman,serif" font-size="14.00">I2</text>
<polyline fill="none" stroke="black" points="808.1,-76 836.1,-76 "/>
<text text-anchor="middle" x="822.1" y="-60.8" font-family="Times New Roman,serif" font-size="14.00">I3</text>
<polyline fill="none" stroke="black" points="836.1,-53 836.1,-145 "/>
<text text-anchor="middle" x="911.6" y="-102.8" font-family="Times New Roman,serif" font-size="14.00">walk_left_SB_LUT4_O</text>
<text text-anchor="middle" x="911.6" y="-87.8" font-family="Times New Roman,serif" font-size="14.00">SB_LUT4</text>
<polyline fill="none" stroke="black" points="987.1,-53 987.1,-145 "/>
<text text-anchor="middle" x="1000.6" y="-95.3" font-family="Times New Roman,serif" font-size="14.00">O</text>
</g>
<!-- n7&#45;&gt;c16 -->
<g id="edge12" class="edge">
<title>n7:e&#45;&gt;c16:w</title>
<path fill="none" stroke="#7570b3" d="M768.6,-241C845.33,-241 737.63,-80.2 797.07,-65.13"/>
<polygon fill="#7570b3" stroke="#7570b3" points="797.55,-68.6 807.1,-64 796.77,-61.64 797.55,-68.6"/>
</g>
<!-- n7&#45;&gt;c23 -->
<g id="edge13" class="edge">
<title>n7:e&#45;&gt;c23:w</title>
<path fill="none" stroke="#7570b3" d="M768.6,-241C790.01,-241 782.88,-272.45 794.93,-282.76"/>
<polygon fill="#7570b3" stroke="#7570b3" points="794,-286.15 804.6,-286 796.23,-279.51 794,-286.15"/>
</g>
<!-- x6 -->
<g id="node20" class="node">
<title>x6</title>
<path fill="none" stroke="black" d="M1135.7,-241C1135.7,-241 1105.7,-241 1105.7,-241 1099.7,-241 1093.7,-235 1093.7,-229 1093.7,-229 1093.7,-217 1093.7,-217 1093.7,-211 1099.7,-205 1105.7,-205 1105.7,-205 1135.7,-205 1135.7,-205 1141.7,-205 1147.7,-211 1147.7,-217 1147.7,-217 1147.7,-229 1147.7,-229 1147.7,-235 1141.7,-241 1135.7,-241"/>
<text text-anchor="middle" x="1120.7" y="-219.3" font-family="Times New Roman,serif" font-size="14.00">BUF</text>
</g>
<!-- n7&#45;&gt;x6 -->
<g id="edge14" class="edge">
<title>n7:e&#45;&gt;x6:w</title>
<path fill="none" stroke="#7570b3" d="M768.6,-241C909.34,-241 946.63,-223.87 1082.32,-223.03"/>
<polygon fill="#7570b3" stroke="#7570b3" points="1082.71,-226.53 1092.7,-223 1082.69,-219.53 1082.71,-226.53"/>
</g>
<!-- n8 -->
<g id="node8" class="node">
<title>n8</title>
<polygon fill="none" stroke="black" points="1323.12,-91.54 1323.12,-106.46 1295.43,-117 1256.28,-117 1228.59,-106.46 1228.59,-91.54 1256.28,-81 1295.43,-81 1323.12,-91.54"/>
<text text-anchor="middle" x="1275.85" y="-95.3" font-family="Times New Roman,serif" font-size="14.00">walk_left</text>
</g>
<!-- n9 -->
<g id="node9" class="node">
<title>n9</title>
<polygon fill="none" stroke="black" points="1327.97,-215.54 1327.97,-230.46 1297.44,-241 1254.27,-241 1223.74,-230.46 1223.74,-215.54 1254.27,-205 1297.44,-205 1327.97,-215.54"/>
<text text-anchor="middle" x="1275.85" y="-219.3" font-family="Times New Roman,serif" font-size="14.00">walk_right</text>
</g>
<!-- v0 -->
<g id="node10" class="node">
<title>v0</title>
<ellipse fill="none" stroke="black" cx="729.99" cy="-555" rx="27" ry="18"/>
<text text-anchor="middle" x="729.99" y="-551.3" font-family="Times New Roman,serif" font-size="14.00">1&#39;0</text>
</g>
<!-- v0&#45;&gt;c15 -->
<g id="edge17" class="edge">
<title>v0:e&#45;&gt;c15:w</title>
<path fill="none" stroke="#1b9e77" d="M757.99,-555C784.06,-555 777.36,-518.15 794.72,-508.36"/>
<polygon fill="#1b9e77" stroke="#1b9e77" points="795.69,-511.73 804.6,-506 794.06,-504.92 795.69,-511.73"/>
</g>
<!-- c15&#45;&gt;n1 -->
<g id="edge1" class="edge">
<title>c15:e&#45;&gt;n1:w</title>
<path fill="none" stroke="#66a61e" d="M1019.1,-471C1039.77,-471 1032.87,-503.04 1018.1,-517.5 950.28,-583.87 895.81,-543.66 804.6,-517.5 786.46,-512.3 786.02,-502.25 768.6,-495 703.39,-467.86 195.08,-404.11 149.68,-350 147.75,-347.7 146,-344.59 144.99,-341.61"/>
<polygon fill="#66a61e" stroke="#66a61e" points="148.36,-342.59 148.68,-332 141.82,-340.08 148.36,-342.59"/>
</g>
<!-- v1 -->
<g id="node12" class="node">
<title>v1</title>
<ellipse fill="none" stroke="black" cx="729.99" cy="-149" rx="27" ry="18"/>
<text text-anchor="middle" x="729.99" y="-145.3" font-family="Times New Roman,serif" font-size="14.00">1&#39;0</text>
</g>
<!-- v1&#45;&gt;c16 -->
<g id="edge18" class="edge">
<title>v1:e&#45;&gt;c16:w</title>
<path fill="none" stroke="#e6ab02" d="M757.99,-149C776.89,-149 782.52,-138.71 796.85,-135.18"/>
<polygon fill="#e6ab02" stroke="#e6ab02" points="797.56,-138.62 807.1,-134 796.76,-131.66 797.56,-138.62"/>
</g>
<!-- v2 -->
<g id="node13" class="node">
<title>v2</title>
<ellipse fill="none" stroke="black" cx="729.99" cy="-95" rx="27" ry="18"/>
<text text-anchor="middle" x="729.99" y="-91.3" font-family="Times New Roman,serif" font-size="14.00">1&#39;0</text>
</g>
<!-- v2&#45;&gt;c16 -->
<g id="edge19" class="edge">
<title>v2:e&#45;&gt;c16:w</title>
<path fill="none" stroke="#e6ab02" d="M757.99,-95C777,-95 782.46,-105.97 796.81,-109.74"/>
<polygon fill="#e6ab02" stroke="#e6ab02" points="796.75,-113.26 807.1,-111 797.6,-106.31 796.75,-113.26"/>
</g>
<!-- v3 -->
<g id="node14" class="node">
<title>v3</title>
<ellipse fill="none" stroke="black" cx="729.99" cy="-41" rx="27" ry="18"/>
<text text-anchor="middle" x="729.99" y="-37.3" font-family="Times New Roman,serif" font-size="14.00">1&#39;0</text>
</g>
<!-- v3&#45;&gt;c16 -->
<g id="edge20" class="edge">
<title>v3:e&#45;&gt;c16:w</title>
<path fill="none" stroke="#d95f02" d="M757.99,-41C783.93,-41 779.32,-75.59 797.14,-84.78"/>
<polygon fill="#d95f02" stroke="#d95f02" points="796.58,-88.24 807.1,-87 798.1,-81.41 796.58,-88.24"/>
</g>
<!-- c16&#45;&gt;n8 -->
<g id="edge15" class="edge">
<title>c16:e&#45;&gt;n8:w</title>
<path fill="none" stroke="#d95f02" d="M1015.1,-99C1105.72,-99 1130.9,-99 1216.66,-99"/>
<polygon fill="#d95f02" stroke="#d95f02" points="1216.85,-102.5 1226.85,-99 1216.85,-95.5 1216.85,-102.5"/>
</g>
<!-- c22&#45;&gt;n7 -->
<g id="edge10" class="edge">
<title>c22:e&#45;&gt;n7:w</title>
<path fill="none" stroke="#7570b3" d="M655.39,-343C699.33,-343 652.85,-257.78 681.26,-243.13"/>
<polygon fill="#7570b3" stroke="#7570b3" points="682.32,-246.48 691.39,-241 680.88,-239.63 682.32,-246.48"/>
</g>
<!-- v4 -->
<g id="node17" class="node">
<title>v4</title>
<ellipse fill="none" stroke="black" cx="729.99" cy="-349" rx="27" ry="18"/>
<text text-anchor="middle" x="729.99" y="-345.3" font-family="Times New Roman,serif" font-size="14.00">1&#39;0</text>
</g>
<!-- v4&#45;&gt;c23 -->
<g id="edge21" class="edge">
<title>v4:e&#45;&gt;c23:w</title>
<path fill="none" stroke="#d95f02" d="M757.99,-349C775.96,-349 781.07,-338.23 794.42,-334.36"/>
<polygon fill="#d95f02" stroke="#d95f02" points="795.15,-337.8 804.6,-333 794.22,-330.86 795.15,-337.8"/>
</g>
<!-- v5 -->
<g id="node18" class="node">
<title>v5</title>
<ellipse fill="none" stroke="black" cx="729.99" cy="-295" rx="27" ry="18"/>
<text text-anchor="middle" x="729.99" y="-291.3" font-family="Times New Roman,serif" font-size="14.00">1&#39;0</text>
</g>
<!-- v5&#45;&gt;c23 -->
<g id="edge22" class="edge">
<title>v5:e&#45;&gt;c23:w</title>
<path fill="none" stroke="#d95f02" d="M757.99,-295C775.84,-295 781.13,-305.09 794.46,-308.72"/>
<polygon fill="#d95f02" stroke="#d95f02" points="794.24,-312.22 804.6,-310 795.12,-305.28 794.24,-312.22"/>
</g>
<!-- c23&#45;&gt;n6 -->
<g id="edge8" class="edge">
<title>c23:e&#45;&gt;n6:w</title>
<path fill="none" stroke="#e7298a" d="M1017.6,-298C1043.03,-298 1029.49,-339.36 1043.95,-350.99"/>
<polygon fill="#e7298a" stroke="#e7298a" points="1043.01,-354.36 1053.6,-354 1045.1,-347.68 1043.01,-354.36"/>
</g>
<!-- x6&#45;&gt;n9 -->
<g id="edge16" class="edge">
<title>x6:e&#45;&gt;n9:w</title>
<path fill="none" stroke="#1b9e77" d="M1148.7,-223C1178.42,-223 1188.29,-223 1213.68,-223"/>
<polygon fill="#1b9e77" stroke="#1b9e77" points="1213.8,-226.5 1223.8,-223 1213.8,-219.5 1213.8,-226.5"/>
</g>
</g>
</svg>
