<svg xmlns="http://www.w3.org/2000/svg" xmlns:xlink="http://www.w3.org/1999/xlink" xmlns:s="https://github.com/nturley/netlistsvg" width="827" height="452">
  <style>svg {
    stroke:#000;
    fill:none;
  }
  text {
    fill:#000;
    stroke:none;
    font-size:10px;
    font-weight: bold;
    font-family: "Courier New", monospace;
  }
  .nodelabel {
    text-anchor: middle;
  }
  .inputPortLabel {
    text-anchor: end;
  }
  .splitjoinBody {
    fill:#000;
  }</style>
  <g s:type="generic" transform="translate(441,226)" s:width="30" s:height="40" id="cell_$auto$opt_reduce.cc:128:opt_mux$14">
    <text x="15" y="-4" class="nodelabel cell_$auto$opt_reduce.cc:128:opt_mux$14" s:attribute="ref">$reduce_or</text>
    <rect width="30" height="20" s:generic="body" class="cell_$auto$opt_reduce.cc:128:opt_mux$14"/>
    <g transform="translate(0,10)" s:x="0" s:y="10" s:pid="in0" id="port_$auto$opt_reduce.cc:128:opt_mux$14~A">
      <text x="-3" y="-4" class="inputPortLabel cell_$auto$opt_reduce.cc:128:opt_mux$14">A</text>
    </g>
    <g transform="translate(30,10)" s:x="30" s:y="10" s:pid="out0" id="port_$auto$opt_reduce.cc:128:opt_mux$14~Y">
      <text x="5" y="-4" style="fill:#000; stroke:none" class="cell_$auto$opt_reduce.cc:128:opt_mux$14">Y</text>
    </g>
  </g>
  <g s:type="generic" transform="translate(441,346)" s:width="30" s:height="40" id="cell_$auto$opt_reduce.cc:128:opt_mux$16">
    <text x="15" y="-4" class="nodelabel cell_$auto$opt_reduce.cc:128:opt_mux$16" s:attribute="ref">$reduce_or</text>
    <rect width="30" height="20" s:generic="body" class="cell_$auto$opt_reduce.cc:128:opt_mux$16"/>
    <g transform="translate(0,10)" s:x="0" s:y="10" s:pid="in0" id="port_$auto$opt_reduce.cc:128:opt_mux$16~A">
      <text x="-3" y="-4" class="inputPortLabel cell_$auto$opt_reduce.cc:128:opt_mux$16">A</text>
    </g>
    <g transform="translate(30,10)" s:x="30" s:y="10" s:pid="out0" id="port_$auto$opt_reduce.cc:128:opt_mux$16~Y">
      <text x="5" y="-4" style="fill:#000; stroke:none" class="cell_$auto$opt_reduce.cc:128:opt_mux$16">Y</text>
    </g>
  </g>
  <g s:type="generic" transform="translate(203,120)" s:width="30" s:height="40" id="cell_$procdff$13">
    <text x="15" y="-4" class="nodelabel cell_$procdff$13" s:attribute="ref">$adff</text>
    <rect width="30" height="60" s:generic="body" class="cell_$procdff$13"/>
    <g transform="translate(0,10)" s:x="0" s:y="10" s:pid="in0" id="port_$procdff$13~ARST">
      <text x="-3" y="-4" class="inputPortLabel cell_$procdff$13">ARST</text>
    </g>
    <g transform="translate(0,30)" s:x="0" s:y="10" s:pid="in0" id="port_$procdff$13~CLK">
      <text x="-3" y="-4" class="inputPortLabel cell_$procdff$13">CLK</text>
    </g>
    <g transform="translate(0,50)" s:x="0" s:y="10" s:pid="in0" id="port_$procdff$13~D">
      <text x="-3" y="-4" class="inputPortLabel cell_$procdff$13">D</text>
    </g>
    <g transform="translate(30,10)" s:x="30" s:y="10" s:pid="out0" id="port_$procdff$13~Q">
      <text x="5" y="-4" style="fill:#000; stroke:none" class="cell_$procdff$13">Q</text>
    </g>
  </g>
  <g s:type="eq" transform="translate(305.6666666666667,334)" s:width="25" s:height="25" id="cell_$procmux$10_CMP0">
    <s:alias val="$eq"/>
    <circle r="12.5" cx="12.5" cy="12.5" class="cell_$procmux$10_CMP0"/>
    <line x1="7.5" x2="17.5" y1="10" y2="10" class="cell_$procmux$10_CMP0"/>
    <line x1="7.5" x2="17.5" y1="15" y2="15" class="cell_$procmux$10_CMP0"/>
    <g s:x="3" s:y="5" s:pid="A"/>
    <g s:x="3" s:y="20" s:pid="B"/>
    <g s:x="25" s:y="12.5" s:pid="Y"/>
  </g>
  <g s:type="eq" transform="translate(305.6666666666667,274)" s:width="25" s:height="25" id="cell_$procmux$11_CMP0">
    <s:alias val="$eq"/>
    <circle r="12.5" cx="12.5" cy="12.5" class="cell_$procmux$11_CMP0"/>
    <line x1="7.5" x2="17.5" y1="10" y2="10" class="cell_$procmux$11_CMP0"/>
    <line x1="7.5" x2="17.5" y1="15" y2="15" class="cell_$procmux$11_CMP0"/>
    <g s:x="3" s:y="5" s:pid="A"/>
    <g s:x="3" s:y="20" s:pid="B"/>
    <g s:x="25" s:y="12.5" s:pid="Y"/>
  </g>
  <g s:type="eq" transform="translate(305.6666666666667,394)" s:width="25" s:height="25" id="cell_$procmux$12_CMP0">
    <s:alias val="$eq"/>
    <circle r="12.5" cx="12.5" cy="12.5" class="cell_$procmux$12_CMP0"/>
    <line x1="7.5" x2="17.5" y1="10" y2="10" class="cell_$procmux$12_CMP0"/>
    <line x1="7.5" x2="17.5" y1="15" y2="15" class="cell_$procmux$12_CMP0"/>
    <g s:x="3" s:y="5" s:pid="A"/>
    <g s:x="3" s:y="20" s:pid="B"/>
    <g s:x="25" s:y="12.5" s:pid="Y"/>
  </g>
  <g s:type="mux" transform="translate(529.5,22)" s:width="20" s:height="40" id="cell_$procmux$4">
    <s:alias val="$pmux"/>
    <s:alias val="$mux"/>
    <s:alias val="$_MUX_"/>
    <path d="M0,0 L20,10 L20,30 L0,40 Z" class="cell_$procmux$4"/>
    <g s:x="0" s:y="10" s:pid="A"/>
    <g s:x="0" s:y="30" s:pid="B"/>
    <g s:x="10" s:y="35" s:pid="S"/>
    <g s:x="20" s:y="20" s:pid="Y"/>
  </g>
  <g s:type="not" transform="translate(304,120.5)" s:width="30" s:height="20" id="cell_$procmux$6_CMP0">
    <s:alias val="$_NOT_"/>
    <s:alias val="$not"/>
    <s:alias val="$logic_not"/>
    <path d="M0,0 L0,20 L20,10 Z" class="cell_$procmux$6_CMP0"/>
    <circle cx="23" cy="10" r="3" class="cell_$procmux$6_CMP0"/>
    <g s:x="0" s:y="10" s:pid="A"/>
    <g s:x="25" s:y="10" s:pid="Y"/>
  </g>
  <g s:type="mux" transform="translate(745,142)" s:width="20" s:height="40" id="cell_$procmux$8">
    <s:alias val="$pmux"/>
    <s:alias val="$mux"/>
    <s:alias val="$_MUX_"/>
    <path d="M0,0 L20,10 L20,30 L0,40 Z" class="cell_$procmux$8"/>
    <g s:x="0" s:y="10" s:pid="A"/>
    <g s:x="0" s:y="30" s:pid="B"/>
    <g s:x="10" s:y="35" s:pid="S"/>
    <g s:x="20" s:y="20" s:pid="Y"/>
  </g>
  <g s:type="eq" transform="translate(305.6666666666667,214)" s:width="25" s:height="25" id="cell_$procmux$9_CMP0">
    <s:alias val="$eq"/>
    <circle r="12.5" cx="12.5" cy="12.5" class="cell_$procmux$9_CMP0"/>
    <line x1="7.5" x2="17.5" y1="10" y2="10" class="cell_$procmux$9_CMP0"/>
    <line x1="7.5" x2="17.5" y1="15" y2="15" class="cell_$procmux$9_CMP0"/>
    <g s:x="3" s:y="5" s:pid="A"/>
    <g s:x="3" s:y="20" s:pid="B"/>
    <g s:x="25" s:y="12.5" s:pid="Y"/>
  </g>
  <g s:type="inputExt" transform="translate(107,185.5)" s:width="30" s:height="20" id="cell_clk">
    <text x="15" y="-4" class="nodelabel cell_clk" s:attribute="ref">clk</text>
    <s:alias val="$_inputExt_"/>
    <path d="M0,0 L0,20 L15,20 L30,10 L15,0 Z" class="cell_clk"/>
    <g s:x="28" s:y="10" s:pid="Y"/>
  </g>
  <g s:type="inputExt" transform="translate(107,120.5)" s:width="30" s:height="20" id="cell_areset">
    <text x="15" y="-4" class="nodelabel cell_areset" s:attribute="ref">areset</text>
    <s:alias val="$_inputExt_"/>
    <path d="M0,0 L0,20 L15,20 L30,10 L15,0 Z" class="cell_areset"/>
    <g s:x="28" s:y="10" s:pid="Y"/>
  </g>
  <g s:type="inputExt" transform="translate(12,344)" s:width="30" s:height="20" id="cell_bump_left">
    <text x="15" y="-4" class="nodelabel cell_bump_left" s:attribute="ref">bump_left</text>
    <s:alias val="$_inputExt_"/>
    <path d="M0,0 L0,20 L15,20 L30,10 L15,0 Z" class="cell_bump_left"/>
    <g s:x="28" s:y="10" s:pid="Y"/>
  </g>
  <g s:type="inputExt" transform="translate(12,279)" s:width="30" s:height="20" id="cell_bump_right">
    <text x="15" y="-4" class="nodelabel cell_bump_right" s:attribute="ref">bump_right</text>
    <s:alias val="$_inputExt_"/>
    <path d="M0,0 L0,20 L15,20 L30,10 L15,0 Z" class="cell_bump_right"/>
    <g s:x="28" s:y="10" s:pid="Y"/>
  </g>
  <g s:type="outputExt" transform="translate(745,22)" s:width="30" s:height="20" id="cell_walk_left">
    <text x="15" y="-4" class="nodelabel cell_walk_left" s:attribute="ref">walk_left</text>
    <s:alias val="$_outputExt_"/>
    <path d="M30,0 L30,20 L15,20 L0,10 L15,0 Z" class="cell_walk_left"/>
    <g s:x="0" s:y="10" s:pid="A"/>
  </g>
  <g s:type="outputExt" transform="translate(745,87)" s:width="30" s:height="20" id="cell_walk_right">
    <text x="15" y="-4" class="nodelabel cell_walk_right" s:attribute="ref">walk_right</text>
    <s:alias val="$_outputExt_"/>
    <path d="M30,0 L30,20 L15,20 L0,10 L15,0 Z" class="cell_walk_right"/>
    <g s:x="0" s:y="10" s:pid="A"/>
  </g>
  <g s:type="constant" transform="translate(203,360)" s:width="30" s:height="20" id="cell_100">
    <text x="15" y="-4" class="nodelabel cell_100" s:attribute="ref">100</text>
    <s:alias val="$_constant_"/>
    <rect width="30" height="20" class="cell_100"/>
    <g s:x="30" s:y="10" s:pid="Y"/>
  </g>
  <g s:type="constant" transform="translate(203,300)" s:width="30" s:height="20" id="cell_111">
    <text x="15" y="-4" class="nodelabel cell_111" s:attribute="ref">111</text>
    <s:alias val="$_constant_"/>
    <rect width="30" height="20" class="cell_111"/>
    <g s:x="30" s:y="10" s:pid="Y"/>
  </g>
  <g s:type="constant" transform="translate(203,420)" s:width="30" s:height="20" id="cell_110">
    <text x="15" y="-4" class="nodelabel cell_110" s:attribute="ref">110</text>
    <s:alias val="$_constant_"/>
    <rect width="30" height="20" class="cell_110"/>
    <g s:x="30" s:y="10" s:pid="Y"/>
  </g>
  <g s:type="constant" transform="translate(369,42)" s:width="30" s:height="20" id="cell_1001">
    <text x="15" y="-4" class="nodelabel cell_1001" s:attribute="ref">0x9</text>
    <s:alias val="$_constant_"/>
    <rect width="30" height="20" class="cell_1001"/>
    <g s:x="30" s:y="10" s:pid="Y"/>
  </g>
  <g s:type="constant" transform="translate(680,173)" s:width="30" s:height="20" id="cell_10">
    <text x="15" y="-4" class="nodelabel cell_10" s:attribute="ref">10</text>
    <s:alias val="$_constant_"/>
    <rect width="30" height="20" class="cell_10"/>
    <g s:x="30" s:y="10" s:pid="Y"/>
  </g>
  <g s:type="constant" transform="translate(203,240)" s:width="30" s:height="20" id="cell_11">
    <text x="15" y="-4" class="nodelabel cell_11" s:attribute="ref">11</text>
    <s:alias val="$_constant_"/>
    <rect width="30" height="20" class="cell_11"/>
    <g s:x="30" s:y="10" s:pid="Y"/>
  </g>
  <g s:type="join" transform="translate(380,216)" s:width="4" s:height="40" id="cell_$join$,8,9,">
    <rect width="5" height="40" class="splitjoinBody" s:generic="body"/>
    <s:alias val="$_join_"/>
    <g s:x="5" s:y="20" s:pid="out"/>
    <g transform="translate(0,10)" s:x="0" s:y="10" s:pid="in0">
      <text x="-3" y="-4" class="inputPortLabel">0</text>
    </g>
    <g transform="translate(0,30)" s:x="0" s:y="10" s:pid="in0">
      <text x="-3" y="-4" class="inputPortLabel">1</text>
    </g>
  </g>
  <g s:type="join" transform="translate(380,336)" s:width="4" s:height="40" id="cell_$join$,11,12,">
    <rect width="5" height="40" class="splitjoinBody" s:generic="body"/>
    <s:alias val="$_join_"/>
    <g s:x="5" s:y="20" s:pid="out"/>
    <g transform="translate(0,10)" s:x="0" s:y="10" s:pid="in0">
      <text x="-3" y="-4" class="inputPortLabel">0</text>
    </g>
    <g transform="translate(0,30)" s:x="0" s:y="10" s:pid="in0">
      <text x="-3" y="-4" class="inputPortLabel">1</text>
    </g>
  </g>
  <g s:type="join" transform="translate(123,258.5)" s:width="4" s:height="40" id="cell_$join$,15,5,4,">
    <rect width="5" height="60" class="splitjoinBody" s:generic="body"/>
    <s:alias val="$_join_"/>
    <g s:x="5" s:y="20" s:pid="out"/>
    <g transform="translate(0,10)" s:x="0" s:y="10" s:pid="in0">
      <text x="-3" y="-4" class="inputPortLabel">0</text>
    </g>
    <g transform="translate(0,30)" s:x="0" s:y="10" s:pid="in0">
      <text x="-3" y="-4" class="inputPortLabel">1</text>
    </g>
    <g transform="translate(0,50)" s:x="0" s:y="10" s:pid="in0">
      <text x="-3" y="-4" class="inputPortLabel">2</text>
    </g>
  </g>
  <g s:type="join" transform="translate(380,99)" s:width="4" s:height="40" id="cell_$join$,15,16,">
    <rect width="5" height="40" class="splitjoinBody" s:generic="body"/>
    <s:alias val="$_join_"/>
    <g s:x="5" s:y="20" s:pid="out"/>
    <g transform="translate(0,10)" s:x="0" s:y="10" s:pid="in0">
      <text x="-3" y="-4" class="inputPortLabel">0</text>
    </g>
    <g transform="translate(0,30)" s:x="0" s:y="10" s:pid="in0">
      <text x="-3" y="-4" class="inputPortLabel">1</text>
    </g>
  </g>
  <g s:type="join" transform="translate(691,226)" s:width="4" s:height="40" id="cell_$join$,10,13,">
    <rect width="5" height="40" class="splitjoinBody" s:generic="body"/>
    <s:alias val="$_join_"/>
    <g s:x="5" s:y="20" s:pid="out"/>
    <g transform="translate(0,10)" s:x="0" s:y="10" s:pid="in0">
      <text x="-3" y="-4" class="inputPortLabel">0</text>
    </g>
    <g transform="translate(0,30)" s:x="0" s:y="10" s:pid="in0">
      <text x="-3" y="-4" class="inputPortLabel">1</text>
    </g>
  </g>
  <g s:type="split" transform="translate(694.3333333333334,21.5)" s:width="5" s:height="40" id="cell_$split$,7,6,">
    <rect width="5" height="40" class="splitjoinBody" s:generic="body"/>
    <s:alias val="$_split_"/>
    <g s:x="0" s:y="20" s:pid="in"/>
    <g transform="translate(4,10)" s:x="4" s:y="10" s:pid="out0">
      <text x="5" y="-4">1</text>
    </g>
    <g transform="translate(4,30)" s:x="4" s:y="10" s:pid="out0">
      <text x="5" y="-4">0</text>
    </g>
  </g>
  <line x1="386" x2="441" y1="236.5" y2="236.5" class="net_8,9"/>
  <line x1="386" x2="441" y1="356.5" y2="356.5" class="net_11,12"/>
  <line x1="135" x2="203" y1="130.5" y2="130.5" class="net_3"/>
  <line x1="135" x2="153" y1="195.5" y2="195.5" class="net_2"/>
  <line x1="153" x2="153" y1="195.5" y2="150.5" class="net_2"/>
  <line x1="153" x2="203" y1="150.5" y2="150.5" class="net_2"/>
  <line x1="765" x2="815" y1="162" y2="162" class="net_14"/>
  <line x1="815" x2="815" y1="162" y2="203" class="net_14"/>
  <line x1="815" x2="163" y1="203" y2="203" class="net_14"/>
  <line x1="163" x2="163" y1="203" y2="170.5" class="net_14"/>
  <line x1="163" x2="203" y1="170.5" y2="170.5" class="net_14"/>
  <line x1="129" x2="153" y1="279" y2="279" class="net_15,5,4"/>
  <line x1="153" x2="153" y1="279" y2="339" class="net_15,5,4"/>
  <circle cx="153" cy="279" r="2" style="fill:#000" class="net_15,5,4"/>
  <circle cx="153" cy="339" r="2" style="fill:#000" class="net_15,5,4"/>
  <line x1="153" x2="308.6666666666667" y1="339" y2="339" class="net_15,5,4"/>
  <line x1="129" x2="308.6666666666667" y1="279" y2="279" class="net_15,5,4"/>
  <line x1="129" x2="153" y1="279" y2="279" class="net_15,5,4"/>
  <line x1="153" x2="153" y1="279" y2="399" class="net_15,5,4"/>
  <line x1="153" x2="308.6666666666667" y1="399" y2="399" class="net_15,5,4"/>
  <line x1="129" x2="153" y1="279" y2="279" class="net_15,5,4"/>
  <line x1="153" x2="153" y1="279" y2="219" class="net_15,5,4"/>
  <line x1="153" x2="308.6666666666667" y1="219" y2="219" class="net_15,5,4"/>
  <line x1="233" x2="279" y1="370" y2="370" class="net_17,18,19"/>
  <line x1="279" x2="279" y1="370" y2="354" class="net_17,18,19"/>
  <line x1="279" x2="308.6666666666667" y1="354" y2="354" class="net_17,18,19"/>
  <line x1="233" x2="279" y1="310" y2="310" class="net_20,21,22"/>
  <line x1="279" x2="279" y1="310" y2="294" class="net_20,21,22"/>
  <line x1="279" x2="308.6666666666667" y1="294" y2="294" class="net_20,21,22"/>
  <line x1="233" x2="279" y1="430" y2="430" class="net_23,24,25"/>
  <line x1="279" x2="279" y1="430" y2="414" class="net_23,24,25"/>
  <line x1="279" x2="308.6666666666667" y1="414" y2="414" class="net_23,24,25"/>
  <line x1="399" x2="529.5" y1="52" y2="52" class="net_26,27,28,29"/>
  <line x1="386" x2="539.5" y1="119.5" y2="119.5" class="net_15,16"/>
  <line x1="539.5" x2="539.5" y1="119.5" y2="57" class="net_15,16"/>
  <line x1="234" x2="304" y1="130.5" y2="130.5" class="net_15"/>
  <line x1="234" x2="279" y1="130.5" y2="130.5" class="net_15"/>
  <line x1="279" x2="279" y1="130.5" y2="152" class="net_15"/>
  <line x1="279" x2="745" y1="152" y2="152" class="net_15"/>
  <line x1="234" x2="279" y1="130.5" y2="130.5" class="net_15"/>
  <line x1="279" x2="279" y1="130.5" y2="100" class="net_15"/>
  <line x1="279" x2="82" y1="100" y2="100" class="net_15"/>
  <line x1="82" x2="82" y1="100" y2="269" class="net_15"/>
  <circle cx="279" cy="130.5" r="2" style="fill:#000" class="net_15"/>
  <line x1="82" x2="123" y1="269" y2="269" class="net_15"/>
  <line x1="234" x2="279" y1="130.5" y2="130.5" class="net_15"/>
  <line x1="279" x2="279" y1="130.5" y2="109.5" class="net_15"/>
  <circle cx="279" cy="109.5" r="2" style="fill:#000" class="net_15"/>
  <line x1="279" x2="380" y1="109.5" y2="109.5" class="net_15"/>
  <line x1="710" x2="720" y1="183" y2="183" class="net_30,31"/>
  <line x1="720" x2="720" y1="183" y2="172" class="net_30,31"/>
  <line x1="720" x2="745" y1="172" y2="172" class="net_30,31"/>
  <line x1="697" x2="755" y1="246.5" y2="246.5" class="net_10,13"/>
  <line x1="755" x2="755" y1="246.5" y2="177" class="net_10,13"/>
  <line x1="233" x2="279" y1="250" y2="250" class="net_32,33"/>
  <line x1="279" x2="279" y1="250" y2="234" class="net_32,33"/>
  <line x1="279" x2="308.6666666666667" y1="234" y2="234" class="net_32,33"/>
  <line x1="699.3333333333334" x2="745" y1="32" y2="32" class="net_6"/>
  <line x1="699.3333333333334" x2="720" y1="52" y2="52" class="net_7"/>
  <line x1="720" x2="720" y1="52" y2="97" class="net_7"/>
  <line x1="720" x2="745" y1="97" y2="97" class="net_7"/>
  <line x1="330.6666666666667" x2="380" y1="226.5" y2="226.5" class="net_8"/>
  <line x1="330.6666666666667" x2="344" y1="286.5" y2="286.5" class="net_9"/>
  <line x1="344" x2="344" y1="286.5" y2="246.5" class="net_9"/>
  <line x1="344" x2="380" y1="246.5" y2="246.5" class="net_9"/>
  <line x1="330.6666666666667" x2="380" y1="346.5" y2="346.5" class="net_11"/>
  <line x1="330.6666666666667" x2="344" y1="406.5" y2="406.5" class="net_12"/>
  <line x1="344" x2="344" y1="406.5" y2="366.5" class="net_12"/>
  <line x1="344" x2="380" y1="366.5" y2="366.5" class="net_12"/>
  <line x1="40" x2="123" y1="289" y2="289" class="net_5"/>
  <line x1="40" x2="82" y1="354" y2="354" class="net_4"/>
  <line x1="82" x2="82" y1="354" y2="309" class="net_4"/>
  <line x1="82" x2="123" y1="309" y2="309" class="net_4"/>
  <line x1="329" x2="344" y1="130.5" y2="130.5" class="net_16"/>
  <line x1="344" x2="344" y1="130.5" y2="129.5" class="net_16"/>
  <line x1="344" x2="380" y1="129.5" y2="129.5" class="net_16"/>
  <line x1="472" x2="691" y1="236.5" y2="236.5" class="net_10"/>
  <line x1="472" x2="655" y1="356.5" y2="356.5" class="net_13"/>
  <line x1="655" x2="655" y1="356.5" y2="256.5" class="net_13"/>
  <line x1="655" x2="691" y1="256.5" y2="256.5" class="net_13"/>
  <line x1="549.5" x2="694.3333333333334" y1="42" y2="42" class="net_7,6"/>
</svg>
