<?xml version="1.0" encoding="UTF-8" standalone="no"?>
<!DOCTYPE svg PUBLIC "-//W3C//DTD SVG 1.1//EN"
 "http://www.w3.org/Graphics/SVG/1.1/DTD/svg11.dtd">
<!-- Generated by graphviz version 4.0.0 (20220529.0937)
 -->
<!-- Title: top_module Pages: 1 -->
<svg width="1117pt" height="267pt"
 viewBox="0.00 0.00 1116.96 267.00" xmlns="http://www.w3.org/2000/svg" xmlns:xlink="http://www.w3.org/1999/xlink">
<g id="graph0" class="graph" transform="scale(1 1) rotate(0) translate(4 263)">
<title>top_module</title>
<polygon fill="white" stroke="transparent" points="-4,4 -4,-263 1112.96,-263 1112.96,4 -4,4"/>
<text text-anchor="middle" x="554.48" y="-7.8" font-family="Times New Roman,serif" font-size="14.00">top_module</text>
<!-- n2 -->
<g id="node1" class="node">
<title>n2</title>
<polygon fill="none" stroke="black" points="57.25,-141.54 57.25,-156.46 41.43,-167 19.07,-167 3.25,-156.46 3.25,-141.54 19.07,-131 41.43,-131 57.25,-141.54"/>
<text text-anchor="middle" x="30.25" y="-145.3" font-family="Times New Roman,serif" font-size="14.00">clk</text>
</g>
<!-- c13 -->
<g id="node10" class="node">
<title>c13</title>
<polygon fill="none" stroke="black" points="97.5,-60.5 97.5,-129.5 316.5,-129.5 316.5,-60.5 97.5,-60.5"/>
<text text-anchor="middle" x="123.5" y="-114.3" font-family="Times New Roman,serif" font-size="14.00">clk</text>
<polyline fill="none" stroke="black" points="97.5,-106.5 149.5,-106.5 "/>
<text text-anchor="middle" x="123.5" y="-91.3" font-family="Times New Roman,serif" font-size="14.00">enable</text>
<polyline fill="none" stroke="black" points="97.5,-83.5 149.5,-83.5 "/>
<text text-anchor="middle" x="123.5" y="-68.3" font-family="Times New Roman,serif" font-size="14.00">reset</text>
<polyline fill="none" stroke="black" points="149.5,-60.5 149.5,-129.5 "/>
<text text-anchor="middle" x="219.5" y="-98.8" font-family="Times New Roman,serif" font-size="14.00">standard_time_format</text>
<text text-anchor="middle" x="219.5" y="-83.8" font-family="Times New Roman,serif" font-size="14.00">bcdcount24h</text>
<polyline fill="none" stroke="black" points="289.5,-60.5 289.5,-129.5 "/>
<text text-anchor="middle" x="303" y="-91.3" font-family="Times New Roman,serif" font-size="14.00">Q</text>
</g>
<!-- n2&#45;&gt;c13 -->
<g id="edge2" class="edge">
<title>n2:e&#45;&gt;c13:w</title>
<path fill="none" stroke="#e6ab02" d="M58.25,-149C76.31,-149 76.26,-128.54 87.53,-120.86"/>
<polygon fill="#e6ab02" stroke="#e6ab02" points="88.85,-124.12 97.5,-118 86.92,-117.39 88.85,-124.12"/>
</g>
<!-- n3 -->
<g id="node2" class="node">
<title>n3</title>
<polygon fill="none" stroke="black" points="57.25,-87.54 57.25,-102.46 41.43,-113 19.07,-113 3.25,-102.46 3.25,-87.54 19.07,-77 41.43,-77 57.25,-87.54"/>
<text text-anchor="middle" x="30.25" y="-91.3" font-family="Times New Roman,serif" font-size="14.00">ena</text>
</g>
<!-- n3&#45;&gt;c13 -->
<g id="edge3" class="edge">
<title>n3:e&#45;&gt;c13:w</title>
<path fill="none" stroke="#666666" d="M58.25,-95C71.74,-95 77.41,-95 87.35,-95"/>
<polygon fill="#666666" stroke="#666666" points="87.5,-98.5 97.5,-95 87.5,-91.5 87.5,-98.5"/>
</g>
<!-- n7 -->
<g id="node3" class="node">
<title>n7</title>
<polygon fill="none" stroke="black" points="60.25,-33.54 60.25,-48.46 42.68,-59 17.82,-59 0.25,-48.46 0.25,-33.54 17.82,-23 42.68,-23 60.25,-33.54"/>
<text text-anchor="middle" x="30.25" y="-37.3" font-family="Times New Roman,serif" font-size="14.00">reset</text>
</g>
<!-- n7&#45;&gt;c13 -->
<g id="edge4" class="edge">
<title>n7:e&#45;&gt;c13:w</title>
<path fill="none" stroke="#e6ab02" d="M60.5,-41C77.76,-41 77.31,-61.07 87.65,-68.91"/>
<polygon fill="#e6ab02" stroke="#e6ab02" points="86.91,-72.35 97.5,-72 89,-65.67 86.91,-72.35"/>
</g>
<!-- n4 -->
<g id="node4" class="node">
<title>n4</title>
<polygon fill="none" stroke="black" points="1108.96,-233.54 1108.96,-248.46 1093.14,-259 1070.78,-259 1054.96,-248.46 1054.96,-233.54 1070.78,-223 1093.14,-223 1108.96,-233.54"/>
<text text-anchor="middle" x="1081.96" y="-237.3" font-family="Times New Roman,serif" font-size="14.00">hh</text>
</g>
<!-- n5 -->
<g id="node5" class="node">
<title>n5</title>
<polygon fill="none" stroke="black" points="1108.96,-179.54 1108.96,-194.46 1093.14,-205 1070.78,-205 1054.96,-194.46 1054.96,-179.54 1070.78,-169 1093.14,-169 1108.96,-179.54"/>
<text text-anchor="middle" x="1081.96" y="-183.3" font-family="Times New Roman,serif" font-size="14.00">mm</text>
</g>
<!-- n6 -->
<g id="node6" class="node">
<title>n6</title>
<polygon fill="none" stroke="black" points="1108.96,-71.54 1108.96,-86.46 1093.14,-97 1070.78,-97 1054.96,-86.46 1054.96,-71.54 1070.78,-61 1093.14,-61 1108.96,-71.54"/>
<text text-anchor="middle" x="1081.96" y="-75.3" font-family="Times New Roman,serif" font-size="14.00">pm</text>
</g>
<!-- n8 -->
<g id="node7" class="node">
<title>n8</title>
<polygon fill="none" stroke="black" points="1108.96,-125.54 1108.96,-140.46 1093.14,-151 1070.78,-151 1054.96,-140.46 1054.96,-125.54 1070.78,-115 1093.14,-115 1108.96,-125.54"/>
<text text-anchor="middle" x="1081.96" y="-129.3" font-family="Times New Roman,serif" font-size="14.00">ss</text>
</g>
<!-- n1 -->
<g id="node8" class="node">
<title>n1</title>
<polygon fill="none" stroke="black" points="437.73,-113 383.27,-95 437.73,-77 492.19,-95 437.73,-113"/>
<text text-anchor="middle" x="437.73" y="-91.3" font-family="Times New Roman,serif" font-size="14.00">bcd24h</text>
</g>
<!-- c10 -->
<g id="node9" class="node">
<title>c10</title>
<polygon fill="none" stroke="black" points="558.96,-72 558.96,-118 852.96,-118 852.96,-72 558.96,-72"/>
<text text-anchor="middle" x="588.46" y="-91.3" font-family="Times New Roman,serif" font-size="14.00">bcd24h</text>
<polyline fill="none" stroke="black" points="617.96,-72 617.96,-118 "/>
<text text-anchor="middle" x="705.96" y="-98.8" font-family="Times New Roman,serif" font-size="14.00">really_complex_time_format</text>
<text text-anchor="middle" x="705.96" y="-83.8" font-family="Times New Roman,serif" font-size="14.00">bcd24h2complex12h</text>
<polyline fill="none" stroke="black" points="793.96,-72 793.96,-118 "/>
<text text-anchor="middle" x="823.46" y="-102.8" font-family="Times New Roman,serif" font-size="14.00">bcd12h</text>
<polyline fill="none" stroke="black" points="793.96,-95 852.96,-95 "/>
<text text-anchor="middle" x="823.46" y="-79.8" font-family="Times New Roman,serif" font-size="14.00">pm</text>
</g>
<!-- n1&#45;&gt;c10 -->
<g id="edge1" class="edge">
<title>n1:e&#45;&gt;c10:w</title>
<path fill="none" stroke="#7570b3" stroke-width="3" d="M491.96,-95C518.02,-95 526.97,-95 548.75,-95"/>
<polygon fill="#7570b3" stroke="#7570b3" stroke-width="3" points="548.96,-98.5 558.96,-95 548.96,-91.5 548.96,-98.5"/>
<text text-anchor="middle" x="525.46" y="-98.8" font-family="Times New Roman,serif" font-size="14.00" fill="#7570b3">&lt;24&gt;</text>
</g>
<!-- c10&#45;&gt;n6 -->
<g id="edge5" class="edge">
<title>c10:e&#45;&gt;n6:w</title>
<path fill="none" stroke="#e7298a" d="M852.96,-83C939.25,-83 963.31,-79.31 1044.74,-79.02"/>
<polygon fill="#e7298a" stroke="#e7298a" points="1044.97,-82.52 1054.96,-79 1044.95,-75.52 1044.97,-82.52"/>
</g>
<!-- x0 -->
<g id="node11" class="node">
<title>x0</title>
<path fill="none" stroke="black" d="M931.96,-136.5C931.96,-136.5 982.96,-136.5 982.96,-136.5 988.96,-136.5 994.96,-142.5 994.96,-148.5 994.96,-148.5 994.96,-193.5 994.96,-193.5 994.96,-199.5 988.96,-205.5 982.96,-205.5 982.96,-205.5 931.96,-205.5 931.96,-205.5 925.96,-205.5 919.96,-199.5 919.96,-193.5 919.96,-193.5 919.96,-148.5 919.96,-148.5 919.96,-142.5 925.96,-136.5 931.96,-136.5"/>
<text text-anchor="middle" x="957.46" y="-190.3" font-family="Times New Roman,serif" font-size="14.00">23:16 &#45; 7:0</text>
<polyline fill="none" stroke="black" points="919.96,-182.5 994.96,-182.5 "/>
<text text-anchor="middle" x="957.46" y="-167.3" font-family="Times New Roman,serif" font-size="14.00">15:8 &#45; 7:0</text>
<polyline fill="none" stroke="black" points="919.96,-159.5 994.96,-159.5 "/>
<text text-anchor="middle" x="957.46" y="-144.3" font-family="Times New Roman,serif" font-size="14.00">7:0 &#45; 7:0</text>
</g>
<!-- c10&#45;&gt;x0 -->
<g id="edge6" class="edge">
<title>c10:e&#45;&gt;x0:w</title>
<path fill="none" stroke="#1b9e77" stroke-width="3" d="M864.94,-109.28C887.98,-119.21 884.92,-158.67 907.89,-168.68"/>
<polygon fill="none" stroke="#1b9e77" stroke-width="3" points="864.75,-109.24 858.11,-112.05 852.96,-107 859.6,-104.19 864.75,-109.24"/>
<polygon fill="none" stroke="#1b9e77" stroke-width="3" points="908.18,-168.74 914.82,-165.94 919.96,-171 913.31,-173.8 908.18,-168.74"/>
<text text-anchor="middle" x="886.46" y="-167.8" font-family="Times New Roman,serif" font-size="14.00" fill="#1b9e77">&lt;24&gt;</text>
</g>
<!-- c13&#45;&gt;n1 -->
<g id="edge10" class="edge">
<title>c13:e&#45;&gt;n1:w</title>
<path fill="none" stroke="#7570b3" stroke-width="3" d="M316.5,-95C342.56,-95 351.51,-95 373.29,-95"/>
<polygon fill="#7570b3" stroke="#7570b3" stroke-width="3" points="373.5,-98.5 383.5,-95 373.5,-91.5 373.5,-98.5"/>
<text text-anchor="middle" x="350" y="-98.8" font-family="Times New Roman,serif" font-size="14.00" fill="#7570b3">&lt;24&gt;</text>
</g>
<!-- x0&#45;&gt;n4 -->
<g id="edge7" class="edge">
<title>x0:e&#45;&gt;n4:w</title>
<path fill="none" stroke="#666666" stroke-width="3" d="M994.96,-194C1008.99,-194 1029.31,-226.23 1045.51,-237.31"/>
<polygon fill="#666666" stroke="#666666" stroke-width="3" points="1044.37,-240.63 1054.96,-241 1046.92,-234.11 1044.37,-240.63"/>
<text text-anchor="middle" x="1024.96" y="-232.8" font-family="Times New Roman,serif" font-size="14.00" fill="#666666">&lt;8&gt;</text>
</g>
<!-- x0&#45;&gt;n5 -->
<g id="edge8" class="edge">
<title>x0:e&#45;&gt;n5:w</title>
<path fill="none" stroke="#a6761d" stroke-width="3" d="M994.96,-171C1018.79,-171 1025.62,-182.92 1044.8,-186.18"/>
<polygon fill="#a6761d" stroke="#a6761d" stroke-width="3" points="1044.71,-189.69 1054.96,-187 1045.27,-182.71 1044.71,-189.69"/>
<text text-anchor="middle" x="1024.96" y="-186.8" font-family="Times New Roman,serif" font-size="14.00" fill="#a6761d">&lt;8&gt;</text>
</g>
<!-- x0&#45;&gt;n8 -->
<g id="edge9" class="edge">
<title>x0:e&#45;&gt;n8:w</title>
<path fill="none" stroke="#a6761d" stroke-width="3" d="M994.96,-148C1018.69,-148 1025.68,-136.82 1044.83,-133.76"/>
<polygon fill="#a6761d" stroke="#a6761d" stroke-width="3" points="1045.25,-137.24 1054.96,-133 1044.73,-130.26 1045.25,-137.24"/>
<text text-anchor="middle" x="1024.96" y="-148.8" font-family="Times New Roman,serif" font-size="14.00" fill="#a6761d">&lt;8&gt;</text>
</g>
</g>
</svg>
