<svg xmlns="http://www.w3.org/2000/svg" xmlns:xlink="http://www.w3.org/1999/xlink" xmlns:s="https://github.com/nturley/netlistsvg" width="610" height="249">
  <style>svg {
    stroke:#000;
    fill:none;
  }
  text {
    fill:#000;
    stroke:none;
    font-size:10px;
    font-weight: bold;
    font-family: "Courier New", monospace;
  }
  .nodelabel {
    text-anchor: middle;
  }
  .inputPortLabel {
    text-anchor: end;
  }
  .splitjoinBody {
    fill:#000;
  }</style>
  <g s:type="generic" transform="translate(306,76.5)" s:width="30" s:height="40" id="cell_really_complex_time_format">
    <text x="15" y="-4" class="nodelabel cell_really_complex_time_format" s:attribute="ref">bcd24h2complex12h</text>
    <rect width="30" height="40" s:generic="body" class="cell_really_complex_time_format"/>
    <g transform="translate(0,10)" s:x="0" s:y="10" s:pid="in0" id="port_really_complex_time_format~bcd24h">
      <text x="-3" y="-4" class="inputPortLabel cell_really_complex_time_format">bcd24h</text>
    </g>
    <g transform="translate(30,10)" s:x="30" s:y="10" s:pid="out0" id="port_really_complex_time_format~bcd12h">
      <text x="5" y="-4" style="fill:#000; stroke:none" class="cell_really_complex_time_format">bcd12h</text>
    </g>
    <g transform="translate(30,30)" s:x="30" s:y="10" s:pid="out0" id="port_really_complex_time_format~pm">
      <text x="5" y="-4" style="fill:#000; stroke:none" class="cell_really_complex_time_format">pm</text>
    </g>
  </g>
  <g s:type="generic" transform="translate(114,76.5)" s:width="30" s:height="40" id="cell_standard_time_format">
    <text x="15" y="-4" class="nodelabel cell_standard_time_format" s:attribute="ref">bcdcount24h</text>
    <rect width="30" height="60" s:generic="body" class="cell_standard_time_format"/>
    <g transform="translate(0,10)" s:x="0" s:y="10" s:pid="in0" id="port_standard_time_format~clk">
      <text x="-3" y="-4" class="inputPortLabel cell_standard_time_format">clk</text>
    </g>
    <g transform="translate(0,30)" s:x="0" s:y="10" s:pid="in0" id="port_standard_time_format~enable">
      <text x="-3" y="-4" class="inputPortLabel cell_standard_time_format">enable</text>
    </g>
    <g transform="translate(0,50)" s:x="0" s:y="10" s:pid="in0" id="port_standard_time_format~reset">
      <text x="-3" y="-4" class="inputPortLabel cell_standard_time_format">reset</text>
    </g>
    <g transform="translate(30,10)" s:x="30" s:y="10" s:pid="out0" id="port_standard_time_format~Q">
      <text x="5" y="-4" style="fill:#000; stroke:none" class="cell_standard_time_format">Q</text>
    </g>
  </g>
  <g s:type="inputExt" transform="translate(12,77)" s:width="30" s:height="20" id="cell_clk">
    <text x="15" y="-4" class="nodelabel cell_clk" s:attribute="ref">clk</text>
    <s:alias val="$_inputExt_"/>
    <path d="M0,0 L0,20 L15,20 L30,10 L15,0 Z" class="cell_clk"/>
    <g s:x="28" s:y="10" s:pid="Y"/>
  </g>
  <g s:type="inputExt" transform="translate(12,207)" s:width="30" s:height="20" id="cell_reset">
    <text x="15" y="-4" class="nodelabel cell_reset" s:attribute="ref">reset</text>
    <s:alias val="$_inputExt_"/>
    <path d="M0,0 L0,20 L15,20 L30,10 L15,0 Z" class="cell_reset"/>
    <g s:x="28" s:y="10" s:pid="Y"/>
  </g>
  <g s:type="inputExt" transform="translate(12,142)" s:width="30" s:height="20" id="cell_ena">
    <text x="15" y="-4" class="nodelabel cell_ena" s:attribute="ref">ena</text>
    <s:alias val="$_inputExt_"/>
    <path d="M0,0 L0,20 L15,20 L30,10 L15,0 Z" class="cell_ena"/>
    <g s:x="28" s:y="10" s:pid="Y"/>
  </g>
  <g s:type="outputExt" transform="translate(568,217)" s:width="30" s:height="20" id="cell_pm">
    <text x="15" y="-4" class="nodelabel cell_pm" s:attribute="ref">pm</text>
    <s:alias val="$_outputExt_"/>
    <path d="M30,0 L30,20 L15,20 L0,10 L15,0 Z" class="cell_pm"/>
    <g s:x="0" s:y="10" s:pid="A"/>
  </g>
  <g s:type="outputExt" transform="translate(568,22)" s:width="30" s:height="20" id="cell_hh">
    <text x="15" y="-4" class="nodelabel cell_hh" s:attribute="ref">hh</text>
    <s:alias val="$_outputExt_"/>
    <path d="M30,0 L30,20 L15,20 L0,10 L15,0 Z" class="cell_hh"/>
    <g s:x="0" s:y="10" s:pid="A"/>
  </g>
  <g s:type="outputExt" transform="translate(568,87)" s:width="30" s:height="20" id="cell_mm">
    <text x="15" y="-4" class="nodelabel cell_mm" s:attribute="ref">mm</text>
    <s:alias val="$_outputExt_"/>
    <path d="M30,0 L30,20 L15,20 L0,10 L15,0 Z" class="cell_mm"/>
    <g s:x="0" s:y="10" s:pid="A"/>
  </g>
  <g s:type="outputExt" transform="translate(568,152)" s:width="30" s:height="20" id="cell_ss">
    <text x="15" y="-4" class="nodelabel cell_ss" s:attribute="ref">ss</text>
    <s:alias val="$_outputExt_"/>
    <path d="M30,0 L30,20 L15,20 L0,10 L15,0 Z" class="cell_ss"/>
    <g s:x="0" s:y="10" s:pid="A"/>
  </g>
  <g s:type="split" transform="translate(497,66.5)" s:width="5" s:height="40" id="cell_$split$,22,23,24,25,26,27,28,29,14,15,16,17,18,19,20,21,6,7,8,9,10,11,12,13,">
    <rect width="5" height="60" class="splitjoinBody" s:generic="body"/>
    <s:alias val="$_split_"/>
    <g s:x="0" s:y="20" s:pid="in"/>
    <g transform="translate(4,10)" s:x="4" s:y="10" s:pid="out0">
      <text x="5" y="-4">16:23</text>
    </g>
    <g transform="translate(4,30)" s:x="4" s:y="10" s:pid="out0">
      <text x="5" y="-4">8:15</text>
    </g>
    <g transform="translate(4,50)" s:x="4" s:y="10" s:pid="out0">
      <text x="5" y="-4">0:7</text>
    </g>
  </g>
  <line x1="145" x2="306" y1="87" y2="87" class="net_30,31,32,33,34,35,36,37,38,39,40,41,42,43,44,45,46,47,48,49,50,51,52,53"/>
  <line x1="40" x2="114" y1="87" y2="87" class="net_2"/>
  <line x1="40" x2="52" y1="152" y2="152" class="net_4"/>
  <line x1="52" x2="52" y1="152" y2="107" class="net_4"/>
  <line x1="52" x2="114" y1="107" y2="107" class="net_4"/>
  <line x1="40" x2="62" y1="217" y2="217" class="net_3"/>
  <line x1="62" x2="62" y1="217" y2="127" class="net_3"/>
  <line x1="62" x2="114" y1="127" y2="127" class="net_3"/>
  <line x1="337" x2="472" y1="107" y2="107" class="net_5"/>
  <line x1="472" x2="472" y1="107" y2="227" class="net_5"/>
  <line x1="472" x2="568" y1="227" y2="227" class="net_5"/>
  <line x1="502" x2="543" y1="77" y2="77" class="net_6,7,8,9,10,11,12,13"/>
  <line x1="543" x2="543" y1="77" y2="32" class="net_6,7,8,9,10,11,12,13"/>
  <line x1="543" x2="568" y1="32" y2="32" class="net_6,7,8,9,10,11,12,13"/>
  <line x1="502" x2="568" y1="97" y2="97" class="net_14,15,16,17,18,19,20,21"/>
  <line x1="502" x2="543" y1="117" y2="117" class="net_22,23,24,25,26,27,28,29"/>
  <line x1="543" x2="543" y1="117" y2="162" class="net_22,23,24,25,26,27,28,29"/>
  <line x1="543" x2="568" y1="162" y2="162" class="net_22,23,24,25,26,27,28,29"/>
  <line x1="337" x2="497" y1="87" y2="87" class="net_22,23,24,25,26,27,28,29,14,15,16,17,18,19,20,21,6,7,8,9,10,11,12,13"/>
</svg>
