<svg xmlns="http://www.w3.org/2000/svg" xmlns:xlink="http://www.w3.org/1999/xlink" xmlns:s="https://github.com/nturley/netlistsvg" width="422" height="232.5">
  <style>svg {
    stroke:#000;
    fill:none;
  }
  text {
    fill:#000;
    stroke:none;
    font-size:10px;
    font-weight: bold;
    font-family: "Courier New", monospace;
  }
  .nodelabel {
    text-anchor: middle;
  }
  .inputPortLabel {
    text-anchor: end;
  }
  .splitjoinBody {
    fill:#000;
  }</style>
  <g s:type="and" transform="translate(175,179.5)" s:width="30" s:height="25" id="cell_$auto$aigmap.cc:123:execute$11">
    <s:alias val="$and"/>
    <s:alias val="$logic_and"/>
    <s:alias val="$_AND_"/>
    <path d="M0,0 L0,25 L15,25 A15 12.5 0 0 0 15,0 Z" class="cell_$auto$aigmap.cc:123:execute$11"/>
    <g s:x="0" s:y="5" s:pid="A"/>
    <g s:x="0" s:y="20" s:pid="B"/>
    <g s:x="30" s:y="12.5" s:pid="Y"/>
  </g>
  <g s:type="and" transform="translate(175,27)" s:width="30" s:height="25" id="cell_$auto$aigmap.cc:123:execute$13">
    <s:alias val="$and"/>
    <s:alias val="$logic_and"/>
    <s:alias val="$_AND_"/>
    <path d="M0,0 L0,25 L15,25 A15 12.5 0 0 0 15,0 Z" class="cell_$auto$aigmap.cc:123:execute$13"/>
    <g s:x="0" s:y="5" s:pid="A"/>
    <g s:x="0" s:y="20" s:pid="B"/>
    <g s:x="30" s:y="12.5" s:pid="Y"/>
  </g>
  <g s:type="and" transform="translate(305,34.5)" s:width="30" s:height="25" id="cell_$auto$aigmap.cc:123:execute$21">
    <s:alias val="$and"/>
    <s:alias val="$logic_and"/>
    <s:alias val="$_AND_"/>
    <path d="M0,0 L0,25 L15,25 A15 12.5 0 0 0 15,0 Z" class="cell_$auto$aigmap.cc:123:execute$21"/>
    <g s:x="0" s:y="5" s:pid="A"/>
    <g s:x="0" s:y="20" s:pid="B"/>
    <g s:x="30" s:y="12.5" s:pid="Y"/>
  </g>
  <g s:type="not" transform="translate(93.5,22)" s:width="30" s:height="20" id="cell_$auto$aigmap.cc:132:execute$15">
    <s:alias val="$_NOT_"/>
    <s:alias val="$not"/>
    <s:alias val="$logic_not"/>
    <path d="M0,0 L0,20 L20,10 Z" class="cell_$auto$aigmap.cc:132:execute$15"/>
    <circle cx="23" cy="10" r="3" class="cell_$auto$aigmap.cc:132:execute$15"/>
    <g s:x="0" s:y="10" s:pid="A"/>
    <g s:x="25" s:y="10" s:pid="Y"/>
  </g>
  <g s:type="not" transform="translate(240,29.5)" s:width="30" s:height="20" id="cell_$auto$aigmap.cc:132:execute$17">
    <s:alias val="$_NOT_"/>
    <s:alias val="$not"/>
    <s:alias val="$logic_not"/>
    <path d="M0,0 L0,20 L20,10 Z" class="cell_$auto$aigmap.cc:132:execute$17"/>
    <circle cx="23" cy="10" r="3" class="cell_$auto$aigmap.cc:132:execute$17"/>
    <g s:x="0" s:y="10" s:pid="A"/>
    <g s:x="25" s:y="10" s:pid="Y"/>
  </g>
  <g s:type="not" transform="translate(240,182)" s:width="30" s:height="20" id="cell_$auto$aigmap.cc:132:execute$19">
    <s:alias val="$_NOT_"/>
    <s:alias val="$not"/>
    <s:alias val="$logic_not"/>
    <path d="M0,0 L0,20 L20,10 Z" class="cell_$auto$aigmap.cc:132:execute$19"/>
    <circle cx="23" cy="10" r="3" class="cell_$auto$aigmap.cc:132:execute$19"/>
    <g s:x="0" s:y="10" s:pid="A"/>
    <g s:x="25" s:y="10" s:pid="Y"/>
  </g>
  <g s:type="not" transform="translate(370,37)" s:width="30" s:height="20" id="cell_$auto$aigmap.cc:132:execute$23">
    <s:alias val="$_NOT_"/>
    <s:alias val="$not"/>
    <s:alias val="$logic_not"/>
    <path d="M0,0 L0,20 L20,10 Z" class="cell_$auto$aigmap.cc:132:execute$23"/>
    <circle cx="23" cy="10" r="3" class="cell_$auto$aigmap.cc:132:execute$23"/>
    <g s:x="0" s:y="10" s:pid="A"/>
    <g s:x="25" s:y="10" s:pid="Y"/>
  </g>
  <g s:type="generic" transform="translate(96,101.5)" s:width="30" s:height="40" id="cell_dff1">
    <text x="15" y="-4" class="nodelabel cell_dff1" s:attribute="ref">my_dff</text>
    <rect width="30" height="40" s:generic="body" class="cell_dff1"/>
    <g transform="translate(0,10)" s:x="0" s:y="10" s:pid="in0" id="port_dff1~clk">
      <text x="-3" y="-4" class="inputPortLabel cell_dff1">clk</text>
    </g>
    <g transform="translate(0,30)" s:x="0" s:y="10" s:pid="in0" id="port_dff1~d">
      <text x="-3" y="-4" class="inputPortLabel cell_dff1">d</text>
    </g>
    <g transform="translate(30,10)" s:x="30" s:y="10" s:pid="out0" id="port_dff1~q">
      <text x="5" y="-4" style="fill:#000; stroke:none" class="cell_dff1">q</text>
    </g>
    <g transform="translate(30,30)" s:x="30" s:y="10" s:pid="out0" id="port_dff1~qn">
      <text x="5" y="-4" style="fill:#000; stroke:none" class="cell_dff1">qn</text>
    </g>
  </g>
  <g s:type="inputExt" transform="translate(12,102)" s:width="30" s:height="20" id="cell_clk">
    <text x="15" y="-4" class="nodelabel cell_clk" s:attribute="ref">clk</text>
    <s:alias val="$_inputExt_"/>
    <path d="M0,0 L0,20 L15,20 L30,10 L15,0 Z" class="cell_clk"/>
    <g s:x="28" s:y="10" s:pid="Y"/>
  </g>
  <g s:type="inputExt" transform="translate(96,189.5)" s:width="30" s:height="20" id="cell_j">
    <text x="15" y="-4" class="nodelabel cell_j" s:attribute="ref">j</text>
    <s:alias val="$_inputExt_"/>
    <path d="M0,0 L0,20 L15,20 L30,10 L15,0 Z" class="cell_j"/>
    <g s:x="28" s:y="10" s:pid="Y"/>
  </g>
  <g s:type="inputExt" transform="translate(12,22)" s:width="30" s:height="20" id="cell_k">
    <text x="15" y="-4" class="nodelabel cell_k" s:attribute="ref">k</text>
    <s:alias val="$_inputExt_"/>
    <path d="M0,0 L0,20 L15,20 L30,10 L15,0 Z" class="cell_k"/>
    <g s:x="28" s:y="10" s:pid="Y"/>
  </g>
  <g s:type="outputExt" transform="translate(370,102)" s:width="30" s:height="20" id="cell_Q">
    <text x="15" y="-4" class="nodelabel cell_Q" s:attribute="ref">Q</text>
    <s:alias val="$_outputExt_"/>
    <path d="M30,0 L30,20 L15,20 L0,10 L15,0 Z" class="cell_Q"/>
    <g s:x="0" s:y="10" s:pid="A"/>
  </g>
  <line x1="127" x2="150" y1="132" y2="132" class="net_6"/>
  <line x1="150" x2="150" y1="132" y2="184.5" class="net_6"/>
  <line x1="150" x2="175" y1="184.5" y2="184.5" class="net_6"/>
  <line x1="124" x2="175" y1="199.5" y2="199.5" class="net_3"/>
  <line x1="118.5" x2="175" y1="32" y2="32" class="net_8"/>
  <line x1="127" x2="150" y1="112" y2="112" class="net_5"/>
  <line x1="150" x2="150" y1="112" y2="47" class="net_5"/>
  <circle cx="150" cy="112" r="2" style="fill:#000" class="net_5"/>
  <line x1="150" x2="175" y1="47" y2="47" class="net_5"/>
  <line x1="127" x2="370" y1="112" y2="112" class="net_5"/>
  <line x1="265" x2="305" y1="39.5" y2="39.5" class="net_10"/>
  <line x1="265" x2="280" y1="192" y2="192" class="net_11"/>
  <line x1="280" x2="280" y1="192" y2="54.5" class="net_11"/>
  <line x1="280" x2="305" y1="54.5" y2="54.5" class="net_11"/>
  <line x1="40" x2="93.5" y1="32" y2="32" class="net_4"/>
  <line x1="205" x2="240" y1="39.5" y2="39.5" class="net_9"/>
  <line x1="205" x2="240" y1="192" y2="192" class="net_7"/>
  <line x1="335" x2="370" y1="47" y2="47" class="net_12"/>
  <line x1="40" x2="96" y1="112" y2="112" class="net_2"/>
  <line x1="395" x2="410" y1="47" y2="47" class="net_13"/>
  <line x1="410" x2="410" y1="47" y2="219.5" class="net_13"/>
  <line x1="410" x2="52" y1="219.5" y2="219.5" class="net_13"/>
  <line x1="52" x2="52" y1="219.5" y2="132" class="net_13"/>
  <line x1="52" x2="96" y1="132" y2="132" class="net_13"/>
</svg>
