<?xml version="1.0" encoding="UTF-8" standalone="no"?>
<!DOCTYPE svg PUBLIC "-//W3C//DTD SVG 1.1//EN"
 "http://www.w3.org/Graphics/SVG/1.1/DTD/svg11.dtd">
<!-- Generated by graphviz version 4.0.0 (20220529.0937)
 -->
<!-- Title: top_module Pages: 1 -->
<svg width="826pt" height="259pt"
 viewBox="0.00 0.00 826.35 259.00" xmlns="http://www.w3.org/2000/svg" xmlns:xlink="http://www.w3.org/1999/xlink">
<g id="graph0" class="graph" transform="scale(1 1) rotate(0) translate(4 255)">
<title>top_module</title>
<polygon fill="white" stroke="transparent" points="-4,4 -4,-255 822.35,-255 822.35,4 -4,4"/>
<text text-anchor="middle" x="409.17" y="-7.8" font-family="Times New Roman,serif" font-size="14.00">top_module</text>
<!-- n5 -->
<g id="node1" class="node">
<title>n5</title>
<polygon fill="none" stroke="black" points="54,-203.54 54,-218.46 38.18,-229 15.82,-229 0,-218.46 0,-203.54 15.82,-193 38.18,-193 54,-203.54"/>
<text text-anchor="middle" x="27" y="-207.3" font-family="Times New Roman,serif" font-size="14.00">clk</text>
</g>
<!-- c21 -->
<g id="node5" class="node">
<title>c21</title>
<polygon fill="none" stroke="black" points="90,-176 90,-222 212,-222 212,-176 90,-176"/>
<text text-anchor="middle" x="106.5" y="-206.8" font-family="Times New Roman,serif" font-size="14.00">clk</text>
<polyline fill="none" stroke="black" points="90,-199 123,-199 "/>
<text text-anchor="middle" x="106.5" y="-183.8" font-family="Times New Roman,serif" font-size="14.00">d</text>
<polyline fill="none" stroke="black" points="123,-176 123,-222 "/>
<text text-anchor="middle" x="152" y="-202.8" font-family="Times New Roman,serif" font-size="14.00">dff1</text>
<text text-anchor="middle" x="152" y="-187.8" font-family="Times New Roman,serif" font-size="14.00">my_dff</text>
<polyline fill="none" stroke="black" points="181,-176 181,-222 "/>
<text text-anchor="middle" x="196.5" y="-206.8" font-family="Times New Roman,serif" font-size="14.00">q</text>
<polyline fill="none" stroke="black" points="181,-199 212,-199 "/>
<text text-anchor="middle" x="196.5" y="-183.8" font-family="Times New Roman,serif" font-size="14.00">qn</text>
</g>
<!-- n5&#45;&gt;c21 -->
<g id="edge1" class="edge">
<title>n5:e&#45;&gt;c21:w</title>
<path fill="none" stroke="#1b9e77" d="M54,-211C66,-211 71.25,-211 79.88,-211"/>
<polygon fill="#1b9e77" stroke="#1b9e77" points="80,-214.5 90,-211 80,-207.5 80,-214.5"/>
</g>
<!-- n9 -->
<g id="node2" class="node">
<title>n9</title>
<polygon fill="none" stroke="black" points="54,-87.54 54,-102.46 38.18,-113 15.82,-113 0,-102.46 0,-87.54 15.82,-77 38.18,-77 54,-87.54"/>
<text text-anchor="middle" x="27" y="-91.3" font-family="Times New Roman,serif" font-size="14.00">j</text>
</g>
<!-- c14 -->
<g id="node11" class="node">
<title>c14</title>
<polygon fill="none" stroke="black" points="385.11,-106 385.11,-152 481.11,-152 481.11,-106 385.11,-106"/>
<text text-anchor="middle" x="398.11" y="-136.8" font-family="Times New Roman,serif" font-size="14.00">A</text>
<polyline fill="none" stroke="black" points="385.11,-129 411.11,-129 "/>
<text text-anchor="middle" x="398.11" y="-113.8" font-family="Times New Roman,serif" font-size="14.00">B</text>
<polyline fill="none" stroke="black" points="411.11,-106 411.11,-152 "/>
<text text-anchor="middle" x="433.11" y="-132.8" font-family="Times New Roman,serif" font-size="14.00">$1</text>
<text text-anchor="middle" x="433.11" y="-117.8" font-family="Times New Roman,serif" font-size="14.00">$and</text>
<polyline fill="none" stroke="black" points="455.11,-106 455.11,-152 "/>
<text text-anchor="middle" x="468.11" y="-125.3" font-family="Times New Roman,serif" font-size="14.00">Y</text>
</g>
<!-- n9&#45;&gt;c14 -->
<g id="edge6" class="edge">
<title>n9:e&#45;&gt;c14:w</title>
<path fill="none" stroke="#d95f02" d="M54,-95C185.43,-95 218.03,-104.32 349.11,-114 361.12,-114.89 366.33,-116.13 374.96,-116.7"/>
<polygon fill="#d95f02" stroke="#d95f02" points="375.01,-120.2 385.11,-117 375.22,-113.2 375.01,-120.2"/>
</g>
<!-- n10 -->
<g id="node3" class="node">
<title>n10</title>
<polygon fill="none" stroke="black" points="54,-33.54 54,-48.46 38.18,-59 15.82,-59 0,-48.46 0,-33.54 15.82,-23 38.18,-23 54,-33.54"/>
<text text-anchor="middle" x="27" y="-37.3" font-family="Times New Roman,serif" font-size="14.00">k</text>
</g>
<!-- c16 -->
<g id="node12" class="node">
<title>c16</title>
<polygon fill="none" stroke="black" points="104.5,-25 104.5,-63 197.5,-63 197.5,-25 104.5,-25"/>
<text text-anchor="middle" x="117.5" y="-40.3" font-family="Times New Roman,serif" font-size="14.00">A</text>
<polyline fill="none" stroke="black" points="130.5,-25 130.5,-63 "/>
<text text-anchor="middle" x="151" y="-47.8" font-family="Times New Roman,serif" font-size="14.00">$2</text>
<text text-anchor="middle" x="151" y="-32.8" font-family="Times New Roman,serif" font-size="14.00">$not</text>
<polyline fill="none" stroke="black" points="171.5,-25 171.5,-63 "/>
<text text-anchor="middle" x="184.5" y="-40.3" font-family="Times New Roman,serif" font-size="14.00">Y</text>
</g>
<!-- n10&#45;&gt;c16 -->
<g id="edge7" class="edge">
<title>n10:e&#45;&gt;c16:w</title>
<path fill="none" stroke="#e7298a" d="M54,-41C71.9,-41 78.72,-43.02 92.64,-43.74"/>
<polygon fill="#e7298a" stroke="#e7298a" points="92.92,-47.25 103,-44 93.09,-40.25 92.92,-47.25"/>
</g>
<!-- n4 -->
<g id="node4" class="node">
<title>n4</title>
<polygon fill="none" stroke="black" points="818.35,-225.54 818.35,-240.46 802.53,-251 780.16,-251 764.35,-240.46 764.35,-225.54 780.16,-215 802.53,-215 818.35,-225.54"/>
<text text-anchor="middle" x="791.35" y="-229.3" font-family="Times New Roman,serif" font-size="14.00">Q</text>
</g>
<!-- n7 -->
<g id="node7" class="node">
<title>n7</title>
<polygon fill="none" stroke="black" points="298.55,-251 254.31,-233 298.55,-215 342.79,-233 298.55,-251"/>
<text text-anchor="middle" x="298.55" y="-229.3" font-family="Times New Roman,serif" font-size="14.00">dff_q</text>
</g>
<!-- c21&#45;&gt;n7 -->
<g id="edge12" class="edge">
<title>c21:e&#45;&gt;n7:w</title>
<path fill="none" stroke="#e6ab02" d="M212,-211C228.5,-211 231.43,-225.25 242.63,-230.81"/>
<polygon fill="#e6ab02" stroke="#e6ab02" points="242.03,-234.26 252.55,-233 243.54,-227.43 242.03,-234.26"/>
</g>
<!-- n8 -->
<g id="node10" class="node">
<title>n8</title>
<polygon fill="none" stroke="black" points="298.55,-159 247.95,-141 298.55,-123 349.16,-141 298.55,-159"/>
<text text-anchor="middle" x="298.55" y="-137.3" font-family="Times New Roman,serif" font-size="14.00">dff_qn</text>
</g>
<!-- c21&#45;&gt;n8 -->
<g id="edge13" class="edge">
<title>c21:e&#45;&gt;n8:w</title>
<path fill="none" stroke="#d95f02" d="M212,-187C233.7,-187 226.14,-154.86 238.23,-144.31"/>
<polygon fill="#d95f02" stroke="#d95f02" points="239.65,-147.52 248,-141 237.41,-140.89 239.65,-147.52"/>
</g>
<!-- n6 -->
<g id="node6" class="node">
<title>n6</title>
<polygon fill="none" stroke="black" points="684.23,-170 639.99,-152 684.23,-134 728.47,-152 684.23,-170"/>
<text text-anchor="middle" x="684.23" y="-148.3" font-family="Times New Roman,serif" font-size="14.00">dff_d</text>
</g>
<!-- n6&#45;&gt;c21 -->
<g id="edge2" class="edge">
<title>n6:e&#45;&gt;c21:w</title>
<path fill="none" stroke="#e6ab02" d="M730.23,-152C738.24,-152 735.02,-164.47 729.23,-170 703.53,-194.52 116.07,-151.39 90,-175.5 89.53,-175.94 89.08,-176.44 88.67,-176.99"/>
<polygon fill="#e6ab02" stroke="#e6ab02" points="85.17,-177.12 89,-187 92.16,-176.89 85.17,-177.12"/>
</g>
<!-- c15 -->
<g id="node8" class="node">
<title>c15</title>
<polygon fill="none" stroke="black" points="385.11,-41 385.11,-87 481.11,-87 481.11,-41 385.11,-41"/>
<text text-anchor="middle" x="398.11" y="-71.8" font-family="Times New Roman,serif" font-size="14.00">A</text>
<polyline fill="none" stroke="black" points="385.11,-64 411.11,-64 "/>
<text text-anchor="middle" x="398.11" y="-48.8" font-family="Times New Roman,serif" font-size="14.00">B</text>
<polyline fill="none" stroke="black" points="411.11,-41 411.11,-87 "/>
<text text-anchor="middle" x="433.11" y="-67.8" font-family="Times New Roman,serif" font-size="14.00">$3</text>
<text text-anchor="middle" x="433.11" y="-52.8" font-family="Times New Roman,serif" font-size="14.00">$and</text>
<polyline fill="none" stroke="black" points="455.11,-41 455.11,-87 "/>
<text text-anchor="middle" x="468.11" y="-60.3" font-family="Times New Roman,serif" font-size="14.00">Y</text>
</g>
<!-- n7&#45;&gt;c15 -->
<g id="edge3" class="edge">
<title>n7:e&#45;&gt;c15:w</title>
<path fill="none" stroke="#e6ab02" d="M344.55,-233C423.13,-233 313.87,-68.57 374.83,-53.16"/>
<polygon fill="#e6ab02" stroke="#e6ab02" points="375.56,-56.6 385.11,-52 374.78,-49.64 375.56,-56.6"/>
</g>
<!-- x0 -->
<g id="node9" class="node">
<title>x0</title>
<path fill="none" stroke="black" d="M575.61,-251C575.61,-251 545.61,-251 545.61,-251 539.61,-251 533.61,-245 533.61,-239 533.61,-239 533.61,-227 533.61,-227 533.61,-221 539.61,-215 545.61,-215 545.61,-215 575.61,-215 575.61,-215 581.61,-215 587.61,-221 587.61,-227 587.61,-227 587.61,-239 587.61,-239 587.61,-245 581.61,-251 575.61,-251"/>
<text text-anchor="middle" x="560.61" y="-229.3" font-family="Times New Roman,serif" font-size="14.00">BUF</text>
</g>
<!-- n7&#45;&gt;x0 -->
<g id="edge4" class="edge">
<title>n7:e&#45;&gt;x0:w</title>
<path fill="none" stroke="#e6ab02" d="M344.55,-233C424.54,-233 447.12,-233 522.17,-233"/>
<polygon fill="#e6ab02" stroke="#e6ab02" points="522.61,-236.5 532.61,-233 522.61,-229.5 522.61,-236.5"/>
</g>
<!-- c17 -->
<g id="node13" class="node">
<title>c17</title>
<polygon fill="none" stroke="black" points="517.11,-94 517.11,-140 604.11,-140 604.11,-94 517.11,-94"/>
<text text-anchor="middle" x="530.11" y="-124.8" font-family="Times New Roman,serif" font-size="14.00">A</text>
<polyline fill="none" stroke="black" points="517.11,-117 543.11,-117 "/>
<text text-anchor="middle" x="530.11" y="-101.8" font-family="Times New Roman,serif" font-size="14.00">B</text>
<polyline fill="none" stroke="black" points="543.11,-94 543.11,-140 "/>
<text text-anchor="middle" x="560.61" y="-120.8" font-family="Times New Roman,serif" font-size="14.00">$4</text>
<text text-anchor="middle" x="560.61" y="-105.8" font-family="Times New Roman,serif" font-size="14.00">$or</text>
<polyline fill="none" stroke="black" points="578.11,-94 578.11,-140 "/>
<text text-anchor="middle" x="591.11" y="-113.3" font-family="Times New Roman,serif" font-size="14.00">Y</text>
</g>
<!-- c15&#45;&gt;c17 -->
<g id="edge9" class="edge">
<title>c15:e&#45;&gt;c17:w</title>
<path fill="none" stroke="#7570b3" d="M481.11,-64C501.19,-64 496.07,-92.12 507.49,-101.78"/>
<polygon fill="#7570b3" stroke="#7570b3" points="506.51,-105.15 517.11,-105 508.73,-98.51 506.51,-105.15"/>
</g>
<!-- x0&#45;&gt;n4 -->
<g id="edge14" class="edge">
<title>x0:e&#45;&gt;n4:w</title>
<path fill="none" stroke="#1b9e77" d="M588.61,-233C663.2,-233 684.37,-233 754.16,-233"/>
<polygon fill="#1b9e77" stroke="#1b9e77" points="754.35,-236.5 764.35,-233 754.35,-229.5 754.35,-236.5"/>
</g>
<!-- n8&#45;&gt;c14 -->
<g id="edge5" class="edge">
<title>n8:e&#45;&gt;c14:w</title>
<path fill="none" stroke="#d95f02" d="M349.11,-141C361.11,-141 366.36,-141 374.98,-141"/>
<polygon fill="#d95f02" stroke="#d95f02" points="375.11,-144.5 385.11,-141 375.11,-137.5 375.11,-144.5"/>
</g>
<!-- c14&#45;&gt;c17 -->
<g id="edge8" class="edge">
<title>c14:e&#45;&gt;c17:w</title>
<path fill="none" stroke="#e7298a" d="M481.11,-129C493.11,-129 498.36,-129 506.98,-129"/>
<polygon fill="#e7298a" stroke="#e7298a" points="507.11,-132.5 517.11,-129 507.11,-125.5 507.11,-132.5"/>
</g>
<!-- c16&#45;&gt;c15 -->
<g id="edge10" class="edge">
<title>c16:e&#45;&gt;c15:w</title>
<path fill="none" stroke="#d95f02" d="M199,-44C279.49,-44 299.57,-73.43 375.1,-75.84"/>
<polygon fill="#d95f02" stroke="#d95f02" points="375.05,-79.34 385.11,-76 375.16,-72.34 375.05,-79.34"/>
</g>
<!-- c17&#45;&gt;n6 -->
<g id="edge11" class="edge">
<title>c17:e&#45;&gt;n6:w</title>
<path fill="none" stroke="#e6ab02" d="M604.11,-117C622.24,-117 619.94,-140.11 630.41,-148.77"/>
<polygon fill="#e6ab02" stroke="#e6ab02" points="629.51,-152.16 640.11,-152 631.73,-145.52 629.51,-152.16"/>
</g>
</g>
</svg>
