<?xml version="1.0" encoding="UTF-8" standalone="no"?>
<!DOCTYPE svg PUBLIC "-//W3C//DTD SVG 1.1//EN"
 "http://www.w3.org/Graphics/SVG/1.1/DTD/svg11.dtd">
<!-- Generated by graphviz version 4.0.0 (20220529.0937)
 -->
<!-- Title: top_module Pages: 1 -->
<svg width="979pt" height="376pt"
 viewBox="0.00 0.00 978.75 376.00" xmlns="http://www.w3.org/2000/svg" xmlns:xlink="http://www.w3.org/1999/xlink">
<g id="graph0" class="graph" transform="scale(1 1) rotate(0) translate(4 372)">
<title>top_module</title>
<polygon fill="white" stroke="transparent" points="-4,4 -4,-372 974.75,-372 974.75,4 -4,4"/>
<text text-anchor="middle" x="485.37" y="-7.8" font-family="Times New Roman,serif" font-size="14.00">top_module</text>
<!-- n1 -->
<g id="node1" class="node">
<title>n1</title>
<polygon fill="none" stroke="black" points="970.75,-209.54 970.75,-224.46 954.93,-235 932.56,-235 916.75,-224.46 916.75,-209.54 932.56,-199 954.93,-199 970.75,-209.54"/>
<text text-anchor="middle" x="943.75" y="-213.3" font-family="Times New Roman,serif" font-size="14.00">Q</text>
</g>
<!-- n2 -->
<g id="node2" class="node">
<title>n2</title>
<polygon fill="none" stroke="black" points="54,-56.54 54,-71.46 38.18,-82 15.82,-82 0,-71.46 0,-56.54 15.82,-46 38.18,-46 54,-56.54"/>
<text text-anchor="middle" x="27" y="-60.3" font-family="Times New Roman,serif" font-size="14.00">clk</text>
</g>
<!-- c18 -->
<g id="node12" class="node">
<title>c18</title>
<polygon fill="none" stroke="black" points="575.51,-90 575.51,-136 756.51,-136 756.51,-90 575.51,-90"/>
<text text-anchor="middle" x="588.51" y="-120.8" font-family="Times New Roman,serif" font-size="14.00">C</text>
<polyline fill="none" stroke="black" points="575.51,-113 601.51,-113 "/>
<text text-anchor="middle" x="588.51" y="-97.8" font-family="Times New Roman,serif" font-size="14.00">D</text>
<polyline fill="none" stroke="black" points="601.51,-90 601.51,-136 "/>
<text text-anchor="middle" x="665.51" y="-116.8" font-family="Times New Roman,serif" font-size="14.00">dff1.q_SB_DFF_Q</text>
<text text-anchor="middle" x="665.51" y="-101.8" font-family="Times New Roman,serif" font-size="14.00">SB_DFF</text>
<polyline fill="none" stroke="black" points="729.51,-90 729.51,-136 "/>
<text text-anchor="middle" x="743.01" y="-109.3" font-family="Times New Roman,serif" font-size="14.00">Q</text>
</g>
<!-- n2&#45;&gt;c18 -->
<g id="edge2" class="edge">
<title>n2:e&#45;&gt;c18:w</title>
<path fill="none" stroke="#1b9e77" d="M54,-64C57.35,-64 492.78,-115.62 565.33,-123.89"/>
<polygon fill="#1b9e77" stroke="#1b9e77" points="565.19,-127.39 575.51,-125 565.95,-120.44 565.19,-127.39"/>
</g>
<!-- x2 -->
<g id="node14" class="node">
<title>x2</title>
<path fill="none" stroke="black" d="M151.88,-59C151.88,-59 121.88,-59 121.88,-59 115.88,-59 109.88,-53 109.88,-47 109.88,-47 109.88,-35 109.88,-35 109.88,-29 115.88,-23 121.88,-23 121.88,-23 151.88,-23 151.88,-23 157.88,-23 163.88,-29 163.88,-35 163.88,-35 163.88,-47 163.88,-47 163.88,-53 157.88,-59 151.88,-59"/>
<text text-anchor="middle" x="136.88" y="-37.3" font-family="Times New Roman,serif" font-size="14.00">BUF</text>
</g>
<!-- n2&#45;&gt;x2 -->
<g id="edge3" class="edge">
<title>n2:e&#45;&gt;x2:w</title>
<path fill="none" stroke="#1b9e77" d="M54,-64C76.52,-64 81.3,-47.32 98.56,-42.37"/>
<polygon fill="#1b9e77" stroke="#1b9e77" points="99.42,-45.79 108.88,-41 98.5,-38.85 99.42,-45.79"/>
</g>
<!-- n3 -->
<g id="node3" class="node">
<title>n3</title>
<polygon fill="none" stroke="black" points="314.75,-59 259.45,-41 314.75,-23 370.05,-41 314.75,-59"/>
<text text-anchor="middle" x="314.75" y="-37.3" font-family="Times New Roman,serif" font-size="14.00">dff1.clk</text>
</g>
<!-- n4 -->
<g id="node4" class="node">
<title>n4</title>
<polygon fill="none" stroke="black" points="492.63,-299 445.88,-281 492.63,-263 539.39,-281 492.63,-299"/>
<text text-anchor="middle" x="492.63" y="-277.3" font-family="Times New Roman,serif" font-size="14.00">dff1.d</text>
</g>
<!-- n4&#45;&gt;c18 -->
<g id="edge6" class="edge">
<title>n4:e&#45;&gt;c18:w</title>
<path fill="none" stroke="#7570b3" d="M539.51,-281C617.27,-281 505.39,-117.48 565.37,-102.15"/>
<polygon fill="#7570b3" stroke="#7570b3" points="565.97,-105.6 575.51,-101 565.18,-98.65 565.97,-105.6"/>
</g>
<!-- x3 -->
<g id="node15" class="node">
<title>x3</title>
<path fill="none" stroke="black" d="M681.01,-299C681.01,-299 651.01,-299 651.01,-299 645.01,-299 639.01,-293 639.01,-287 639.01,-287 639.01,-275 639.01,-275 639.01,-269 645.01,-263 651.01,-263 651.01,-263 681.01,-263 681.01,-263 687.01,-263 693.01,-269 693.01,-275 693.01,-275 693.01,-287 693.01,-287 693.01,-293 687.01,-299 681.01,-299"/>
<text text-anchor="middle" x="666.01" y="-277.3" font-family="Times New Roman,serif" font-size="14.00">BUF</text>
</g>
<!-- n4&#45;&gt;x3 -->
<g id="edge7" class="edge">
<title>n4:e&#45;&gt;x3:w</title>
<path fill="none" stroke="#7570b3" d="M539.51,-281C579.69,-281 592.21,-281 627.86,-281"/>
<polygon fill="#7570b3" stroke="#7570b3" points="628.01,-284.5 638.01,-281 628.01,-277.5 628.01,-284.5"/>
</g>
<!-- n5 -->
<g id="node5" class="node">
<title>n5</title>
<polygon fill="none" stroke="black" points="136.88,-205 90.12,-187 136.88,-169 183.63,-187 136.88,-205"/>
<text text-anchor="middle" x="136.88" y="-183.3" font-family="Times New Roman,serif" font-size="14.00">dff1.q</text>
</g>
<!-- c15 -->
<g id="node11" class="node">
<title>c15</title>
<polygon fill="none" stroke="black" points="219.75,-246 219.75,-338 409.75,-338 409.75,-246 219.75,-246"/>
<text text-anchor="middle" x="233.75" y="-322.8" font-family="Times New Roman,serif" font-size="14.00">I0</text>
<polyline fill="none" stroke="black" points="219.75,-315 247.75,-315 "/>
<text text-anchor="middle" x="233.75" y="-299.8" font-family="Times New Roman,serif" font-size="14.00">I1</text>
<polyline fill="none" stroke="black" points="219.75,-292 247.75,-292 "/>
<text text-anchor="middle" x="233.75" y="-276.8" font-family="Times New Roman,serif" font-size="14.00">I2</text>
<polyline fill="none" stroke="black" points="219.75,-269 247.75,-269 "/>
<text text-anchor="middle" x="233.75" y="-253.8" font-family="Times New Roman,serif" font-size="14.00">I3</text>
<polyline fill="none" stroke="black" points="247.75,-246 247.75,-338 "/>
<text text-anchor="middle" x="315.25" y="-295.8" font-family="Times New Roman,serif" font-size="14.00">dff1.d_SB_LUT4_O</text>
<text text-anchor="middle" x="315.25" y="-280.8" font-family="Times New Roman,serif" font-size="14.00">SB_LUT4</text>
<polyline fill="none" stroke="black" points="382.75,-246 382.75,-338 "/>
<text text-anchor="middle" x="396.25" y="-288.3" font-family="Times New Roman,serif" font-size="14.00">O</text>
</g>
<!-- n5&#45;&gt;c15 -->
<g id="edge9" class="edge">
<title>n5:e&#45;&gt;c15:w</title>
<path fill="none" stroke="#e7298a" d="M183.75,-187C214.64,-187 191.78,-241.56 210.07,-254.34"/>
<polygon fill="#e7298a" stroke="#e7298a" points="209.18,-257.73 219.75,-257 211.04,-250.98 209.18,-257.73"/>
</g>
<!-- x1 -->
<g id="node13" class="node">
<title>x1</title>
<path fill="none" stroke="black" d="M851.63,-235C851.63,-235 821.63,-235 821.63,-235 815.63,-235 809.63,-229 809.63,-223 809.63,-223 809.63,-211 809.63,-211 809.63,-205 815.63,-199 821.63,-199 821.63,-199 851.63,-199 851.63,-199 857.63,-199 863.63,-205 863.63,-211 863.63,-211 863.63,-223 863.63,-223 863.63,-229 857.63,-235 851.63,-235"/>
<text text-anchor="middle" x="836.63" y="-213.3" font-family="Times New Roman,serif" font-size="14.00">BUF</text>
</g>
<!-- n5&#45;&gt;x1 -->
<g id="edge10" class="edge">
<title>n5:e&#45;&gt;x1:w</title>
<path fill="none" stroke="#e7298a" d="M183.75,-187C200.48,-187 203.25,-195.26 219.75,-198 474.68,-240.29 544.93,-217.62 798.37,-217.01"/>
<polygon fill="#e7298a" stroke="#e7298a" points="798.63,-220.51 808.63,-217 798.62,-213.51 798.63,-220.51"/>
</g>
<!-- x4 -->
<g id="node16" class="node">
<title>x4</title>
<path fill="none" stroke="black" d="M329.75,-189C329.75,-189 299.75,-189 299.75,-189 293.75,-189 287.75,-183 287.75,-177 287.75,-177 287.75,-165 287.75,-165 287.75,-159 293.75,-153 299.75,-153 299.75,-153 329.75,-153 329.75,-153 335.75,-153 341.75,-159 341.75,-165 341.75,-165 341.75,-177 341.75,-177 341.75,-183 335.75,-189 329.75,-189"/>
<text text-anchor="middle" x="314.75" y="-167.3" font-family="Times New Roman,serif" font-size="14.00">BUF</text>
</g>
<!-- n5&#45;&gt;x4 -->
<g id="edge11" class="edge">
<title>n5:e&#45;&gt;x4:w</title>
<path fill="none" stroke="#e7298a" d="M183.75,-187C226.46,-187 238.59,-173.4 276.52,-171.28"/>
<polygon fill="#e7298a" stroke="#e7298a" points="276.85,-174.77 286.75,-171 276.66,-167.77 276.85,-174.77"/>
</g>
<!-- n6 -->
<g id="node6" class="node">
<title>n6</title>
<polygon fill="none" stroke="black" points="836.63,-299 792.39,-281 836.63,-263 880.87,-281 836.63,-299"/>
<text text-anchor="middle" x="836.63" y="-277.3" font-family="Times New Roman,serif" font-size="14.00">dff_d</text>
</g>
<!-- n7 -->
<g id="node7" class="node">
<title>n7</title>
<polygon fill="none" stroke="black" points="492.63,-189 448.39,-171 492.63,-153 536.87,-171 492.63,-189"/>
<text text-anchor="middle" x="492.63" y="-167.3" font-family="Times New Roman,serif" font-size="14.00">dff_q</text>
</g>
<!-- n8 -->
<g id="node8" class="node">
<title>n8</title>
<polygon fill="none" stroke="black" points="54,-296.54 54,-311.46 38.18,-322 15.82,-322 0,-311.46 0,-296.54 15.82,-286 38.18,-286 54,-296.54"/>
<text text-anchor="middle" x="27" y="-300.3" font-family="Times New Roman,serif" font-size="14.00">j</text>
</g>
<!-- n8&#45;&gt;c15 -->
<g id="edge14" class="edge">
<title>n8:e&#45;&gt;c15:w</title>
<path fill="none" stroke="#d95f02" d="M54,-304C124.22,-304 144.24,-304 209.75,-304"/>
<polygon fill="#d95f02" stroke="#d95f02" points="209.75,-307.5 219.75,-304 209.75,-300.5 209.75,-307.5"/>
</g>
<!-- n9 -->
<g id="node9" class="node">
<title>n9</title>
<polygon fill="none" stroke="black" points="54,-242.54 54,-257.46 38.18,-268 15.82,-268 0,-257.46 0,-242.54 15.82,-232 38.18,-232 54,-242.54"/>
<text text-anchor="middle" x="27" y="-246.3" font-family="Times New Roman,serif" font-size="14.00">k</text>
</g>
<!-- n9&#45;&gt;c15 -->
<g id="edge15" class="edge">
<title>n9:e&#45;&gt;c15:w</title>
<path fill="none" stroke="#1b9e77" d="M54,-250C125.36,-250 143.26,-277.25 209.6,-279.81"/>
<polygon fill="#1b9e77" stroke="#1b9e77" points="209.69,-283.31 219.75,-280 209.82,-276.31 209.69,-283.31"/>
</g>
<!-- v0 -->
<g id="node10" class="node">
<title>v0</title>
<ellipse fill="none" stroke="black" cx="136.88" cy="-350" rx="27" ry="18"/>
<text text-anchor="middle" x="136.88" y="-346.3" font-family="Times New Roman,serif" font-size="14.00">1&#39;0</text>
</g>
<!-- v0&#45;&gt;c15 -->
<g id="edge16" class="edge">
<title>v0:e&#45;&gt;c15:w</title>
<path fill="none" stroke="#1b9e77" d="M164.88,-350C187.4,-350 192.18,-333.32 209.43,-328.37"/>
<polygon fill="#1b9e77" stroke="#1b9e77" points="210.3,-331.79 219.75,-327 209.38,-324.85 210.3,-331.79"/>
</g>
<!-- c15&#45;&gt;n4 -->
<g id="edge5" class="edge">
<title>c15:e&#45;&gt;n4:w</title>
<path fill="none" stroke="#7570b3" d="M409.75,-292C422.43,-292 426.96,-285.68 435.69,-282.62"/>
<polygon fill="#7570b3" stroke="#7570b3" points="436.44,-286.05 445.75,-281 435.32,-279.14 436.44,-286.05"/>
</g>
<!-- c18&#45;&gt;n5 -->
<g id="edge8" class="edge">
<title>c18:e&#45;&gt;n5:w</title>
<path fill="none" stroke="#e7298a" d="M758.01,-113C768.46,-113 764.5,-129.21 757.01,-136.5 735.6,-157.3 245.57,-129.02 219.75,-144 192.53,-159.8 211.09,-189.39 183.75,-205 147.52,-225.69 120.19,-233.67 89.88,-205 87.51,-202.76 85.58,-199.37 84.66,-196.14"/>
<polygon fill="#e7298a" stroke="#e7298a" points="87.86,-197.55 88.88,-187 81.51,-194.61 87.86,-197.55"/>
</g>
<!-- x1&#45;&gt;n1 -->
<g id="edge1" class="edge">
<title>x1:e&#45;&gt;n1:w</title>
<path fill="none" stroke="#66a61e" d="M864.63,-217C883.99,-217 891.22,-217 906.6,-217"/>
<polygon fill="#66a61e" stroke="#66a61e" points="906.75,-220.5 916.75,-217 906.75,-213.5 906.75,-220.5"/>
</g>
<!-- x2&#45;&gt;n3 -->
<g id="edge4" class="edge">
<title>x2:e&#45;&gt;n3:w</title>
<path fill="none" stroke="#1b9e77" d="M164.88,-41C203.01,-41 215.01,-41 248.65,-41"/>
<polygon fill="#1b9e77" stroke="#1b9e77" points="248.75,-44.5 258.75,-41 248.75,-37.5 248.75,-44.5"/>
</g>
<!-- x3&#45;&gt;n6 -->
<g id="edge12" class="edge">
<title>x3:e&#45;&gt;n6:w</title>
<path fill="none" stroke="#e7298a" d="M694.01,-281C734.19,-281 746.71,-281 782.36,-281"/>
<polygon fill="#e7298a" stroke="#e7298a" points="782.51,-284.5 792.51,-281 782.51,-277.5 782.51,-284.5"/>
</g>
<!-- x4&#45;&gt;n7 -->
<g id="edge13" class="edge">
<title>x4:e&#45;&gt;n7:w</title>
<path fill="none" stroke="#7570b3" d="M342.75,-171C385.31,-171 398.45,-171 436.41,-171"/>
<polygon fill="#7570b3" stroke="#7570b3" points="436.63,-174.5 446.63,-171 436.63,-167.5 436.63,-174.5"/>
</g>
</g>
</svg>
