<?xml version="1.0" encoding="UTF-8" standalone="no"?>
<!DOCTYPE svg PUBLIC "-//W3C//DTD SVG 1.1//EN"
 "http://www.w3.org/Graphics/SVG/1.1/DTD/svg11.dtd">
<!-- Generated by graphviz version 3.0.0 (20220226.1711)
 -->
<!-- Title: top_module Pages: 1 -->
<svg width="772pt" height="371pt"
 viewBox="0.00 0.00 772.27 371.00" xmlns="http://www.w3.org/2000/svg" xmlns:xlink="http://www.w3.org/1999/xlink">
<g id="graph0" class="graph" transform="scale(1 1) rotate(0) translate(4 367)">
<title>top_module</title>
<polygon fill="white" stroke="transparent" points="-4,4 -4,-367 768.27,-367 768.27,4 -4,4"/>
<text text-anchor="middle" x="382.13" y="-7.8" font-family="Times New Roman,serif" font-size="14.00">top_module</text>
<!-- n11 -->
<g id="node1" class="node">
<title>n11</title>
<polygon fill="none" stroke="black" points="254.63,-192.5 204.87,-174.5 254.63,-156.5 304.4,-174.5 254.63,-192.5"/>
<text text-anchor="middle" x="254.63" y="-170.8" font-family="Times New Roman,serif" font-size="14.00">signals</text>
</g>
<!-- c22 -->
<g id="node9" class="node">
<title>c22</title>
<polygon fill="none" stroke="black" points="340.27,-36.5 340.27,-82.5 434.27,-82.5 434.27,-36.5 340.27,-36.5"/>
<text text-anchor="middle" x="353.27" y="-67.3" font-family="Times New Roman,serif" font-size="14.00">A</text>
<polyline fill="none" stroke="black" points="340.27,-59.5 366.27,-59.5 "/>
<text text-anchor="middle" x="353.27" y="-44.3" font-family="Times New Roman,serif" font-size="14.00">B</text>
<polyline fill="none" stroke="black" points="366.27,-36.5 366.27,-82.5 "/>
<text text-anchor="middle" x="387.27" y="-63.3" font-family="Times New Roman,serif" font-size="14.00">$9</text>
<text text-anchor="middle" x="387.27" y="-48.3" font-family="Times New Roman,serif" font-size="14.00">$xor</text>
<polyline fill="none" stroke="black" points="408.27,-36.5 408.27,-82.5 "/>
<text text-anchor="middle" x="421.27" y="-55.8" font-family="Times New Roman,serif" font-size="14.00">Y</text>
</g>
<!-- n11&#45;&gt;c22 -->
<g id="edge9" class="edge">
<title>n11:e&#45;&gt;c22:w</title>
<path fill="none" stroke="black" stroke-width="3" d="M304.27,-174.5C359.04,-174.5 291.79,-63.81 330.35,-49.11"/>
<polygon fill="black" stroke="black" stroke-width="3" points="330.96,-52.55 340.27,-47.5 329.84,-45.64 330.96,-52.55"/>
</g>
<!-- c24 -->
<g id="node12" class="node">
<title>c24</title>
<polygon fill="none" stroke="black" points="340.27,-101.5 340.27,-147.5 434.27,-147.5 434.27,-101.5 340.27,-101.5"/>
<text text-anchor="middle" x="353.27" y="-132.3" font-family="Times New Roman,serif" font-size="14.00">A</text>
<polyline fill="none" stroke="black" points="340.27,-124.5 366.27,-124.5 "/>
<text text-anchor="middle" x="353.27" y="-109.3" font-family="Times New Roman,serif" font-size="14.00">B</text>
<polyline fill="none" stroke="black" points="366.27,-101.5 366.27,-147.5 "/>
<text text-anchor="middle" x="387.27" y="-128.3" font-family="Times New Roman,serif" font-size="14.00">$7</text>
<text text-anchor="middle" x="387.27" y="-113.3" font-family="Times New Roman,serif" font-size="14.00">$xor</text>
<polyline fill="none" stroke="black" points="408.27,-101.5 408.27,-147.5 "/>
<text text-anchor="middle" x="421.27" y="-120.8" font-family="Times New Roman,serif" font-size="14.00">Y</text>
</g>
<!-- n11&#45;&gt;c24 -->
<g id="edge10" class="edge">
<title>n11:e&#45;&gt;c24:w</title>
<path fill="none" stroke="black" stroke-width="3" d="M304.27,-174.5C331.9,-174.5 314.72,-127.88 330.45,-115.49"/>
<polygon fill="black" stroke="black" stroke-width="3" points="331.72,-118.76 340.27,-112.5 329.68,-112.06 331.72,-118.76"/>
</g>
<!-- c26 -->
<g id="node15" class="node">
<title>c26</title>
<polygon fill="none" stroke="black" points="340.27,-166.5 340.27,-212.5 434.27,-212.5 434.27,-166.5 340.27,-166.5"/>
<text text-anchor="middle" x="353.27" y="-197.3" font-family="Times New Roman,serif" font-size="14.00">A</text>
<polyline fill="none" stroke="black" points="340.27,-189.5 366.27,-189.5 "/>
<text text-anchor="middle" x="353.27" y="-174.3" font-family="Times New Roman,serif" font-size="14.00">B</text>
<polyline fill="none" stroke="black" points="366.27,-166.5 366.27,-212.5 "/>
<text text-anchor="middle" x="387.27" y="-193.3" font-family="Times New Roman,serif" font-size="14.00">$5</text>
<text text-anchor="middle" x="387.27" y="-178.3" font-family="Times New Roman,serif" font-size="14.00">$xor</text>
<polyline fill="none" stroke="black" points="408.27,-166.5 408.27,-212.5 "/>
<text text-anchor="middle" x="421.27" y="-185.8" font-family="Times New Roman,serif" font-size="14.00">Y</text>
</g>
<!-- n11&#45;&gt;c26 -->
<g id="edge11" class="edge">
<title>n11:e&#45;&gt;c26:w</title>
<path fill="none" stroke="black" stroke-width="3" d="M304.27,-174.5C316.31,-174.5 321.51,-176.19 330.13,-177.03"/>
<polygon fill="black" stroke="black" stroke-width="3" points="330.12,-180.53 340.27,-177.5 330.44,-173.54 330.12,-180.53"/>
</g>
<!-- c28 -->
<g id="node18" class="node">
<title>c28</title>
<polygon fill="none" stroke="black" points="340.27,-231.5 340.27,-277.5 434.27,-277.5 434.27,-231.5 340.27,-231.5"/>
<text text-anchor="middle" x="353.27" y="-262.3" font-family="Times New Roman,serif" font-size="14.00">A</text>
<polyline fill="none" stroke="black" points="340.27,-254.5 366.27,-254.5 "/>
<text text-anchor="middle" x="353.27" y="-239.3" font-family="Times New Roman,serif" font-size="14.00">B</text>
<polyline fill="none" stroke="black" points="366.27,-231.5 366.27,-277.5 "/>
<text text-anchor="middle" x="387.27" y="-258.3" font-family="Times New Roman,serif" font-size="14.00">$3</text>
<text text-anchor="middle" x="387.27" y="-243.3" font-family="Times New Roman,serif" font-size="14.00">$xor</text>
<polyline fill="none" stroke="black" points="408.27,-231.5 408.27,-277.5 "/>
<text text-anchor="middle" x="421.27" y="-250.8" font-family="Times New Roman,serif" font-size="14.00">Y</text>
</g>
<!-- n11&#45;&gt;c28 -->
<g id="edge12" class="edge">
<title>n11:e&#45;&gt;c28:w</title>
<path fill="none" stroke="black" stroke-width="3" d="M304.27,-174.5C334.19,-174.5 313.13,-226.56 330.31,-239.58"/>
<polygon fill="black" stroke="black" stroke-width="3" points="329.69,-243.04 340.27,-242.5 331.66,-236.33 329.69,-243.04"/>
</g>
<!-- c30 -->
<g id="node21" class="node">
<title>c30</title>
<polygon fill="none" stroke="black" points="340.27,-296.5 340.27,-342.5 434.27,-342.5 434.27,-296.5 340.27,-296.5"/>
<text text-anchor="middle" x="353.27" y="-327.3" font-family="Times New Roman,serif" font-size="14.00">A</text>
<polyline fill="none" stroke="black" points="340.27,-319.5 366.27,-319.5 "/>
<text text-anchor="middle" x="353.27" y="-304.3" font-family="Times New Roman,serif" font-size="14.00">B</text>
<polyline fill="none" stroke="black" points="366.27,-296.5 366.27,-342.5 "/>
<text text-anchor="middle" x="387.27" y="-323.3" font-family="Times New Roman,serif" font-size="14.00">$1</text>
<text text-anchor="middle" x="387.27" y="-308.3" font-family="Times New Roman,serif" font-size="14.00">$xor</text>
<polyline fill="none" stroke="black" points="408.27,-296.5 408.27,-342.5 "/>
<text text-anchor="middle" x="421.27" y="-315.8" font-family="Times New Roman,serif" font-size="14.00">Y</text>
</g>
<!-- n11&#45;&gt;c30 -->
<g id="edge13" class="edge">
<title>n11:e&#45;&gt;c30:w</title>
<path fill="none" stroke="black" stroke-width="3" d="M304.27,-174.5C361.44,-174.5 289.86,-290.42 329.94,-305.82"/>
<polygon fill="black" stroke="black" stroke-width="3" points="329.84,-309.35 340.27,-307.5 330.96,-302.44 329.84,-309.35"/>
</g>
<!-- n12 -->
<g id="node2" class="node">
<title>n12</title>
<polygon fill="none" stroke="black" points="764.27,-182.04 764.27,-196.96 748.45,-207.5 726.09,-207.5 710.27,-196.96 710.27,-182.04 726.09,-171.5 748.45,-171.5 764.27,-182.04"/>
<text text-anchor="middle" x="737.27" y="-185.8" font-family="Times New Roman,serif" font-size="14.00">out</text>
</g>
<!-- n13 -->
<g id="node3" class="node">
<title>n13</title>
<polygon fill="none" stroke="black" points="54,-37.04 54,-51.96 38.18,-62.5 15.82,-62.5 0,-51.96 0,-37.04 15.82,-26.5 38.18,-26.5 54,-37.04"/>
<text text-anchor="middle" x="27" y="-40.8" font-family="Times New Roman,serif" font-size="14.00">e</text>
</g>
<!-- x0 -->
<g id="node10" class="node">
<title>x0</title>
<path fill="none" stroke="black" d="M227.13,-23.5C227.13,-23.5 282.13,-23.5 282.13,-23.5 288.13,-23.5 294.13,-29.5 294.13,-35.5 294.13,-35.5 294.13,-47.5 294.13,-47.5 294.13,-53.5 288.13,-59.5 282.13,-59.5 282.13,-59.5 227.13,-59.5 227.13,-59.5 221.13,-59.5 215.13,-53.5 215.13,-47.5 215.13,-47.5 215.13,-35.5 215.13,-35.5 215.13,-29.5 221.13,-23.5 227.13,-23.5"/>
<text text-anchor="middle" x="254.63" y="-37.8" font-family="Times New Roman,serif" font-size="14.00">5x 0:0 &#45; 4:0</text>
</g>
<!-- n13&#45;&gt;x0 -->
<g id="edge19" class="edge">
<title>n13:e&#45;&gt;x0:w</title>
<path fill="none" stroke="black" d="M54,-44.5C121.5,-44.5 140.82,-41.79 203.61,-41.52"/>
<polygon fill="black" stroke="black" points="203.64,-45.02 213.63,-41.5 203.63,-38.02 203.64,-45.02"/>
</g>
<!-- x5 -->
<g id="node23" class="node">
<title>x5</title>
<path fill="none" stroke="black" d="M110.5,-111C110.5,-111 148.5,-111 148.5,-111 154.5,-111 160.5,-117 160.5,-123 160.5,-123 160.5,-214 160.5,-214 160.5,-220 154.5,-226 148.5,-226 148.5,-226 110.5,-226 110.5,-226 104.5,-226 98.5,-220 98.5,-214 98.5,-214 98.5,-123 98.5,-123 98.5,-117 104.5,-111 110.5,-111"/>
<text text-anchor="middle" x="129.5" y="-210.8" font-family="Times New Roman,serif" font-size="14.00">0:0 &#45; 4:4</text>
<polyline fill="none" stroke="black" points="98.5,-203 160.5,-203 "/>
<text text-anchor="middle" x="129.5" y="-187.8" font-family="Times New Roman,serif" font-size="14.00">0:0 &#45; 3:3</text>
<polyline fill="none" stroke="black" points="98.5,-180 160.5,-180 "/>
<text text-anchor="middle" x="129.5" y="-164.8" font-family="Times New Roman,serif" font-size="14.00">0:0 &#45; 2:2</text>
<polyline fill="none" stroke="black" points="98.5,-157 160.5,-157 "/>
<text text-anchor="middle" x="129.5" y="-141.8" font-family="Times New Roman,serif" font-size="14.00">0:0 &#45; 1:1</text>
<polyline fill="none" stroke="black" points="98.5,-134 160.5,-134 "/>
<text text-anchor="middle" x="129.5" y="-118.8" font-family="Times New Roman,serif" font-size="14.00">0:0 &#45; 0:0</text>
</g>
<!-- n13&#45;&gt;x5 -->
<g id="edge20" class="edge">
<title>n13:e&#45;&gt;x5:w</title>
<path fill="none" stroke="black" d="M54,-44.5C89.66,-44.5 64.32,-107.46 87.59,-120.25"/>
<polygon fill="black" stroke="black" points="86.97,-123.7 97.5,-122.5 88.52,-116.87 86.97,-123.7"/>
</g>
<!-- n14 -->
<g id="node4" class="node">
<title>n14</title>
<polygon fill="none" stroke="black" points="54,-108.04 54,-122.96 38.18,-133.5 15.82,-133.5 0,-122.96 0,-108.04 15.82,-97.5 38.18,-97.5 54,-108.04"/>
<text text-anchor="middle" x="27" y="-111.8" font-family="Times New Roman,serif" font-size="14.00">d</text>
</g>
<!-- x1 -->
<g id="node13" class="node">
<title>x1</title>
<path fill="none" stroke="black" d="M102,-55.5C102,-55.5 157,-55.5 157,-55.5 163,-55.5 169,-61.5 169,-67.5 169,-67.5 169,-79.5 169,-79.5 169,-85.5 163,-91.5 157,-91.5 157,-91.5 102,-91.5 102,-91.5 96,-91.5 90,-85.5 90,-79.5 90,-79.5 90,-67.5 90,-67.5 90,-61.5 96,-55.5 102,-55.5"/>
<text text-anchor="middle" x="129.5" y="-69.8" font-family="Times New Roman,serif" font-size="14.00">5x 0:0 &#45; 4:0</text>
</g>
<!-- n14&#45;&gt;x1 -->
<g id="edge21" class="edge">
<title>n14:e&#45;&gt;x1:w</title>
<path fill="none" stroke="black" d="M54,-115.5C74.36,-115.5 68.83,-86.7 80.29,-76.8"/>
<polygon fill="black" stroke="black" points="81.65,-80.03 90,-73.5 79.41,-73.4 81.65,-80.03"/>
</g>
<!-- n14&#45;&gt;x5 -->
<g id="edge22" class="edge">
<title>n14:e&#45;&gt;x5:w</title>
<path fill="none" stroke="black" d="M54,-115.5C73.45,-115.5 74.41,-136.07 87.51,-143.15"/>
<polygon fill="black" stroke="black" points="86.96,-146.61 97.5,-145.5 88.57,-139.8 86.96,-146.61"/>
</g>
<!-- n15 -->
<g id="node5" class="node">
<title>n15</title>
<polygon fill="none" stroke="black" points="54,-170.04 54,-184.96 38.18,-195.5 15.82,-195.5 0,-184.96 0,-170.04 15.82,-159.5 38.18,-159.5 54,-170.04"/>
<text text-anchor="middle" x="27" y="-173.8" font-family="Times New Roman,serif" font-size="14.00">c</text>
</g>
<!-- x2 -->
<g id="node16" class="node">
<title>x2</title>
<path fill="none" stroke="black" d="M227.13,-229.5C227.13,-229.5 282.13,-229.5 282.13,-229.5 288.13,-229.5 294.13,-235.5 294.13,-241.5 294.13,-241.5 294.13,-253.5 294.13,-253.5 294.13,-259.5 288.13,-265.5 282.13,-265.5 282.13,-265.5 227.13,-265.5 227.13,-265.5 221.13,-265.5 215.13,-259.5 215.13,-253.5 215.13,-253.5 215.13,-241.5 215.13,-241.5 215.13,-235.5 221.13,-229.5 227.13,-229.5"/>
<text text-anchor="middle" x="254.63" y="-243.8" font-family="Times New Roman,serif" font-size="14.00">5x 0:0 &#45; 4:0</text>
</g>
<!-- n15&#45;&gt;x2 -->
<g id="edge23" class="edge">
<title>n15:e&#45;&gt;x2:w</title>
<path fill="none" stroke="black" d="M54,-177.5C84.34,-177.5 64.23,-219.49 90,-235.5 133.87,-262.76 155.55,-249.52 203.36,-247.7"/>
<polygon fill="black" stroke="black" points="203.7,-251.19 213.63,-247.5 203.57,-244.19 203.7,-251.19"/>
</g>
<!-- n15&#45;&gt;x5 -->
<g id="edge24" class="edge">
<title>n15:e&#45;&gt;x5:w</title>
<path fill="none" stroke="black" d="M54,-177.5C69.89,-177.5 75.59,-171.67 87.5,-169.4"/>
<polygon fill="black" stroke="black" points="87.85,-172.88 97.5,-168.5 87.23,-165.91 87.85,-172.88"/>
</g>
<!-- n16 -->
<g id="node6" class="node">
<title>n16</title>
<polygon fill="none" stroke="black" points="54,-260.04 54,-274.96 38.18,-285.5 15.82,-285.5 0,-274.96 0,-260.04 15.82,-249.5 38.18,-249.5 54,-260.04"/>
<text text-anchor="middle" x="27" y="-263.8" font-family="Times New Roman,serif" font-size="14.00">b</text>
</g>
<!-- x3 -->
<g id="node19" class="node">
<title>x3</title>
<path fill="none" stroke="black" d="M102,-283.5C102,-283.5 157,-283.5 157,-283.5 163,-283.5 169,-289.5 169,-295.5 169,-295.5 169,-307.5 169,-307.5 169,-313.5 163,-319.5 157,-319.5 157,-319.5 102,-319.5 102,-319.5 96,-319.5 90,-313.5 90,-307.5 90,-307.5 90,-295.5 90,-295.5 90,-289.5 96,-283.5 102,-283.5"/>
<text text-anchor="middle" x="129.5" y="-297.8" font-family="Times New Roman,serif" font-size="14.00">5x 0:0 &#45; 4:0</text>
</g>
<!-- n16&#45;&gt;x3 -->
<g id="edge25" class="edge">
<title>n16:e&#45;&gt;x3:w</title>
<path fill="none" stroke="black" d="M54,-267.5C71.88,-267.5 69.94,-289.95 80.39,-298.36"/>
<polygon fill="black" stroke="black" points="79.41,-301.72 90,-301.5 81.58,-295.07 79.41,-301.72"/>
</g>
<!-- n16&#45;&gt;x5 -->
<g id="edge26" class="edge">
<title>n16:e&#45;&gt;x5:w</title>
<path fill="none" stroke="black" d="M54,-267.5C88.81,-267.5 65.01,-206.69 87.46,-193.86"/>
<polygon fill="black" stroke="black" points="88.56,-197.19 97.5,-191.5 86.96,-190.38 88.56,-197.19"/>
</g>
<!-- n17 -->
<g id="node7" class="node">
<title>n17</title>
<polygon fill="none" stroke="black" points="54,-332.04 54,-346.96 38.18,-357.5 15.82,-357.5 0,-346.96 0,-332.04 15.82,-321.5 38.18,-321.5 54,-332.04"/>
<text text-anchor="middle" x="27" y="-335.8" font-family="Times New Roman,serif" font-size="14.00">a</text>
</g>
<!-- x4 -->
<g id="node22" class="node">
<title>x4</title>
<path fill="none" stroke="black" d="M227.13,-326.5C227.13,-326.5 282.13,-326.5 282.13,-326.5 288.13,-326.5 294.13,-332.5 294.13,-338.5 294.13,-338.5 294.13,-350.5 294.13,-350.5 294.13,-356.5 288.13,-362.5 282.13,-362.5 282.13,-362.5 227.13,-362.5 227.13,-362.5 221.13,-362.5 215.13,-356.5 215.13,-350.5 215.13,-350.5 215.13,-338.5 215.13,-338.5 215.13,-332.5 221.13,-326.5 227.13,-326.5"/>
<text text-anchor="middle" x="254.63" y="-340.8" font-family="Times New Roman,serif" font-size="14.00">5x 0:0 &#45; 4:0</text>
</g>
<!-- n17&#45;&gt;x4 -->
<g id="edge27" class="edge">
<title>n17:e&#45;&gt;x4:w</title>
<path fill="none" stroke="black" d="M54,-339.5C121.52,-339.5 140.8,-344.02 203.61,-344.47"/>
<polygon fill="black" stroke="black" points="203.62,-347.97 213.63,-344.5 203.65,-340.97 203.62,-347.97"/>
</g>
<!-- n17&#45;&gt;x5 -->
<g id="edge28" class="edge">
<title>n17:e&#45;&gt;x5:w</title>
<path fill="none" stroke="black" d="M54,-339.5C108.92,-339.5 47.94,-230.55 87.46,-216.08"/>
<polygon fill="black" stroke="black" points="88.17,-219.51 97.5,-214.5 87.08,-212.6 88.17,-219.51"/>
</g>
<!-- c20 -->
<g id="node8" class="node">
<title>c20</title>
<polygon fill="none" stroke="black" points="470.27,-46.5 470.27,-84.5 563.27,-84.5 563.27,-46.5 470.27,-46.5"/>
<text text-anchor="middle" x="483.27" y="-61.8" font-family="Times New Roman,serif" font-size="14.00">A</text>
<polyline fill="none" stroke="black" points="496.27,-46.5 496.27,-84.5 "/>
<text text-anchor="middle" x="516.77" y="-69.3" font-family="Times New Roman,serif" font-size="14.00">$10</text>
<text text-anchor="middle" x="516.77" y="-54.3" font-family="Times New Roman,serif" font-size="14.00">$not</text>
<polyline fill="none" stroke="black" points="537.27,-46.5 537.27,-84.5 "/>
<text text-anchor="middle" x="550.27" y="-61.8" font-family="Times New Roman,serif" font-size="14.00">Y</text>
</g>
<!-- x10 -->
<g id="node28" class="node">
<title>x10</title>
<path fill="none" stroke="black" d="M617.77,-55.5C617.77,-55.5 655.77,-55.5 655.77,-55.5 661.77,-55.5 667.77,-61.5 667.77,-67.5 667.77,-67.5 667.77,-79.5 667.77,-79.5 667.77,-85.5 661.77,-91.5 655.77,-91.5 655.77,-91.5 617.77,-91.5 617.77,-91.5 611.77,-91.5 605.77,-85.5 605.77,-79.5 605.77,-79.5 605.77,-67.5 605.77,-67.5 605.77,-61.5 611.77,-55.5 617.77,-55.5"/>
<text text-anchor="middle" x="636.77" y="-69.8" font-family="Times New Roman,serif" font-size="14.00">4:0 &#45; 4:0</text>
</g>
<!-- c20&#45;&gt;x10 -->
<g id="edge6" class="edge">
<title>c20:e&#45;&gt;x10:w</title>
<path fill="none" stroke="black" stroke-width="3" d="M563.27,-65.5C578.09,-65.5 583.67,-70.48 594.59,-72.58"/>
<polygon fill="black" stroke="black" stroke-width="3" points="594.5,-76.09 604.77,-73.5 595.12,-69.12 594.5,-76.09"/>
</g>
<!-- c22&#45;&gt;c20 -->
<g id="edge29" class="edge">
<title>c22:e&#45;&gt;c20:w</title>
<path fill="none" stroke="black" stroke-width="3" d="M434.27,-59.5C446.43,-59.5 451.48,-62.88 460.08,-64.56"/>
<polygon fill="black" stroke="black" stroke-width="3" points="459.99,-68.07 470.27,-65.5 460.63,-61.1 459.99,-68.07"/>
</g>
<!-- x0&#45;&gt;c22 -->
<g id="edge1" class="edge">
<title>x0:e&#45;&gt;c22:w</title>
<path fill="none" stroke="black" stroke-width="3" d="M307.3,-44.71C316.26,-50.45 319.59,-62.43 328.5,-68.22"/>
<polygon fill="none" stroke="black" stroke-width="3" points="307.2,-44.68 300.36,-46.95 295.63,-41.5 302.48,-39.24 307.2,-44.68"/>
<polygon fill="none" stroke="black" stroke-width="3" points="328.71,-68.28 335.56,-66.04 340.27,-71.5 333.42,-73.74 328.71,-68.28"/>
</g>
<!-- c23 -->
<g id="node11" class="node">
<title>c23</title>
<polygon fill="none" stroke="black" points="470.27,-107.5 470.27,-145.5 563.27,-145.5 563.27,-107.5 470.27,-107.5"/>
<text text-anchor="middle" x="483.27" y="-122.8" font-family="Times New Roman,serif" font-size="14.00">A</text>
<polyline fill="none" stroke="black" points="496.27,-107.5 496.27,-145.5 "/>
<text text-anchor="middle" x="516.77" y="-130.3" font-family="Times New Roman,serif" font-size="14.00">$8</text>
<text text-anchor="middle" x="516.77" y="-115.3" font-family="Times New Roman,serif" font-size="14.00">$not</text>
<polyline fill="none" stroke="black" points="537.27,-107.5 537.27,-145.5 "/>
<text text-anchor="middle" x="550.27" y="-122.8" font-family="Times New Roman,serif" font-size="14.00">Y</text>
</g>
<!-- x9 -->
<g id="node27" class="node">
<title>x9</title>
<path fill="none" stroke="black" d="M617.77,-113.5C617.77,-113.5 655.77,-113.5 655.77,-113.5 661.77,-113.5 667.77,-119.5 667.77,-125.5 667.77,-125.5 667.77,-137.5 667.77,-137.5 667.77,-143.5 661.77,-149.5 655.77,-149.5 655.77,-149.5 617.77,-149.5 617.77,-149.5 611.77,-149.5 605.77,-143.5 605.77,-137.5 605.77,-137.5 605.77,-125.5 605.77,-125.5 605.77,-119.5 611.77,-113.5 617.77,-113.5"/>
<text text-anchor="middle" x="636.77" y="-127.8" font-family="Times New Roman,serif" font-size="14.00">4:0 &#45; 9:5</text>
</g>
<!-- c23&#45;&gt;x9 -->
<g id="edge30" class="edge">
<title>c23:e&#45;&gt;x9:w</title>
<path fill="none" stroke="black" stroke-width="3" d="M563.27,-126.5C577.93,-126.5 583.73,-129.61 594.65,-130.93"/>
<polygon fill="black" stroke="black" stroke-width="3" points="594.59,-134.43 604.77,-131.5 594.98,-127.44 594.59,-134.43"/>
</g>
<!-- c24&#45;&gt;c23 -->
<g id="edge31" class="edge">
<title>c24:e&#45;&gt;c23:w</title>
<path fill="none" stroke="black" stroke-width="3" d="M434.27,-124.5C446.29,-124.5 451.51,-125.62 460.14,-126.19"/>
<polygon fill="black" stroke="black" stroke-width="3" points="460.17,-129.69 470.27,-126.5 460.38,-122.69 460.17,-129.69"/>
</g>
<!-- x1&#45;&gt;c24 -->
<g id="edge2" class="edge">
<title>x1:e&#45;&gt;c24:w</title>
<path fill="none" stroke="black" stroke-width="3" d="M181.25,-74.01C247.43,-79.64 261.94,-130.47 328.22,-136.01"/>
<polygon fill="none" stroke="black" stroke-width="3" points="180.99,-74 174.83,-77.74 169,-73.5 175.16,-69.75 180.99,-74"/>
<polygon fill="none" stroke="black" stroke-width="3" points="328.28,-136.01 334.44,-132.26 340.27,-136.5 334.11,-140.25 328.28,-136.01"/>
</g>
<!-- c25 -->
<g id="node14" class="node">
<title>c25</title>
<polygon fill="none" stroke="black" points="470.27,-170.5 470.27,-208.5 563.27,-208.5 563.27,-170.5 470.27,-170.5"/>
<text text-anchor="middle" x="483.27" y="-185.8" font-family="Times New Roman,serif" font-size="14.00">A</text>
<polyline fill="none" stroke="black" points="496.27,-170.5 496.27,-208.5 "/>
<text text-anchor="middle" x="516.77" y="-193.3" font-family="Times New Roman,serif" font-size="14.00">$6</text>
<text text-anchor="middle" x="516.77" y="-178.3" font-family="Times New Roman,serif" font-size="14.00">$not</text>
<polyline fill="none" stroke="black" points="537.27,-170.5 537.27,-208.5 "/>
<text text-anchor="middle" x="550.27" y="-185.8" font-family="Times New Roman,serif" font-size="14.00">Y</text>
</g>
<!-- x8 -->
<g id="node26" class="node">
<title>x8</title>
<path fill="none" stroke="black" d="M611.27,-171.5C611.27,-171.5 662.27,-171.5 662.27,-171.5 668.27,-171.5 674.27,-177.5 674.27,-183.5 674.27,-183.5 674.27,-195.5 674.27,-195.5 674.27,-201.5 668.27,-207.5 662.27,-207.5 662.27,-207.5 611.27,-207.5 611.27,-207.5 605.27,-207.5 599.27,-201.5 599.27,-195.5 599.27,-195.5 599.27,-183.5 599.27,-183.5 599.27,-177.5 605.27,-171.5 611.27,-171.5"/>
<text text-anchor="middle" x="636.77" y="-185.8" font-family="Times New Roman,serif" font-size="14.00">4:0 &#45; 14:10</text>
</g>
<!-- c25&#45;&gt;x8 -->
<g id="edge32" class="edge">
<title>c25:e&#45;&gt;x8:w</title>
<path fill="none" stroke="black" stroke-width="3" d="M563.27,-189.5C575.27,-189.5 580.52,-189.5 589.14,-189.5"/>
<polygon fill="black" stroke="black" stroke-width="3" points="589.27,-193 599.27,-189.5 589.27,-186 589.27,-193"/>
</g>
<!-- c26&#45;&gt;c25 -->
<g id="edge33" class="edge">
<title>c26:e&#45;&gt;c25:w</title>
<path fill="none" stroke="black" stroke-width="3" d="M434.27,-189.5C446.27,-189.5 451.52,-189.5 460.14,-189.5"/>
<polygon fill="black" stroke="black" stroke-width="3" points="460.27,-193 470.27,-189.5 460.27,-186 460.27,-193"/>
</g>
<!-- x2&#45;&gt;c26 -->
<g id="edge3" class="edge">
<title>x2:e&#45;&gt;c26:w</title>
<path fill="none" stroke="black" stroke-width="3" d="M307.12,-243.89C318.14,-235.33 317.72,-213.89 328.64,-205.22"/>
<polygon fill="none" stroke="black" stroke-width="3" points="307.08,-243.9 302.56,-249.52 295.63,-247.5 300.16,-241.89 307.08,-243.9"/>
<polygon fill="none" stroke="black" stroke-width="3" points="328.84,-205.16 333.34,-199.52 340.27,-201.5 335.77,-207.14 328.84,-205.16"/>
</g>
<!-- c27 -->
<g id="node17" class="node">
<title>c27</title>
<polygon fill="none" stroke="black" points="470.27,-231.5 470.27,-269.5 563.27,-269.5 563.27,-231.5 470.27,-231.5"/>
<text text-anchor="middle" x="483.27" y="-246.8" font-family="Times New Roman,serif" font-size="14.00">A</text>
<polyline fill="none" stroke="black" points="496.27,-231.5 496.27,-269.5 "/>
<text text-anchor="middle" x="516.77" y="-254.3" font-family="Times New Roman,serif" font-size="14.00">$4</text>
<text text-anchor="middle" x="516.77" y="-239.3" font-family="Times New Roman,serif" font-size="14.00">$not</text>
<polyline fill="none" stroke="black" points="537.27,-231.5 537.27,-269.5 "/>
<text text-anchor="middle" x="550.27" y="-246.8" font-family="Times New Roman,serif" font-size="14.00">Y</text>
</g>
<!-- x7 -->
<g id="node25" class="node">
<title>x7</title>
<path fill="none" stroke="black" d="M611.27,-229.5C611.27,-229.5 662.27,-229.5 662.27,-229.5 668.27,-229.5 674.27,-235.5 674.27,-241.5 674.27,-241.5 674.27,-253.5 674.27,-253.5 674.27,-259.5 668.27,-265.5 662.27,-265.5 662.27,-265.5 611.27,-265.5 611.27,-265.5 605.27,-265.5 599.27,-259.5 599.27,-253.5 599.27,-253.5 599.27,-241.5 599.27,-241.5 599.27,-235.5 605.27,-229.5 611.27,-229.5"/>
<text text-anchor="middle" x="636.77" y="-243.8" font-family="Times New Roman,serif" font-size="14.00">4:0 &#45; 19:15</text>
</g>
<!-- c27&#45;&gt;x7 -->
<g id="edge34" class="edge">
<title>c27:e&#45;&gt;x7:w</title>
<path fill="none" stroke="black" stroke-width="3" d="M563.27,-250.5C575.31,-250.5 580.51,-248.81 589.13,-247.97"/>
<polygon fill="black" stroke="black" stroke-width="3" points="589.44,-251.46 599.27,-247.5 589.12,-244.47 589.44,-251.46"/>
</g>
<!-- c28&#45;&gt;c27 -->
<g id="edge35" class="edge">
<title>c28:e&#45;&gt;c27:w</title>
<path fill="none" stroke="black" stroke-width="3" d="M434.27,-254.5C446.34,-254.5 451.5,-252.25 460.12,-251.12"/>
<polygon fill="black" stroke="black" stroke-width="3" points="460.5,-254.61 470.27,-250.5 460.07,-247.62 460.5,-254.61"/>
</g>
<!-- x3&#45;&gt;c28 -->
<g id="edge4" class="edge">
<title>x3:e&#45;&gt;c28:w</title>
<path fill="none" stroke="black" stroke-width="3" d="M181.26,-301.29C232.5,-299.49 248.5,-286.26 304.27,-274.5 315.42,-272.15 320.54,-269.2 328.14,-267.62"/>
<polygon fill="none" stroke="black" stroke-width="3" points="181,-301.3 175.07,-305.4 169,-301.5 174.93,-297.4 181,-301.3"/>
<polygon fill="none" stroke="black" stroke-width="3" points="328.32,-267.6 333.93,-263.07 340.27,-266.5 334.66,-271.04 328.32,-267.6"/>
</g>
<!-- c29 -->
<g id="node20" class="node">
<title>c29</title>
<polygon fill="none" stroke="black" points="470.27,-294.5 470.27,-332.5 563.27,-332.5 563.27,-294.5 470.27,-294.5"/>
<text text-anchor="middle" x="483.27" y="-309.8" font-family="Times New Roman,serif" font-size="14.00">A</text>
<polyline fill="none" stroke="black" points="496.27,-294.5 496.27,-332.5 "/>
<text text-anchor="middle" x="516.77" y="-317.3" font-family="Times New Roman,serif" font-size="14.00">$2</text>
<text text-anchor="middle" x="516.77" y="-302.3" font-family="Times New Roman,serif" font-size="14.00">$not</text>
<polyline fill="none" stroke="black" points="537.27,-294.5 537.27,-332.5 "/>
<text text-anchor="middle" x="550.27" y="-309.8" font-family="Times New Roman,serif" font-size="14.00">Y</text>
</g>
<!-- x6 -->
<g id="node24" class="node">
<title>x6</title>
<path fill="none" stroke="black" d="M611.27,-289.5C611.27,-289.5 662.27,-289.5 662.27,-289.5 668.27,-289.5 674.27,-295.5 674.27,-301.5 674.27,-301.5 674.27,-313.5 674.27,-313.5 674.27,-319.5 668.27,-325.5 662.27,-325.5 662.27,-325.5 611.27,-325.5 611.27,-325.5 605.27,-325.5 599.27,-319.5 599.27,-313.5 599.27,-313.5 599.27,-301.5 599.27,-301.5 599.27,-295.5 605.27,-289.5 611.27,-289.5"/>
<text text-anchor="middle" x="636.77" y="-303.8" font-family="Times New Roman,serif" font-size="14.00">4:0 &#45; 24:20</text>
</g>
<!-- c29&#45;&gt;x6 -->
<g id="edge36" class="edge">
<title>c29:e&#45;&gt;x6:w</title>
<path fill="none" stroke="black" stroke-width="3" d="M563.27,-313.5C575.43,-313.5 580.48,-310.12 589.08,-308.44"/>
<polygon fill="black" stroke="black" stroke-width="3" points="589.63,-311.9 599.27,-307.5 588.99,-304.93 589.63,-311.9"/>
</g>
<!-- c30&#45;&gt;c29 -->
<g id="edge7" class="edge">
<title>c30:e&#45;&gt;c29:w</title>
<path fill="none" stroke="black" stroke-width="3" d="M434.27,-319.5C446.43,-319.5 451.48,-316.12 460.08,-314.44"/>
<polygon fill="black" stroke="black" stroke-width="3" points="460.63,-317.9 470.27,-313.5 459.99,-310.93 460.63,-317.9"/>
</g>
<!-- x4&#45;&gt;c30 -->
<g id="edge5" class="edge">
<title>x4:e&#45;&gt;c30:w</title>
<path fill="none" stroke="black" stroke-width="3" d="M307.75,-342.69C315.43,-340.21 320.51,-335.77 328.2,-333.29"/>
<polygon fill="none" stroke="black" stroke-width="3" points="307.5,-342.73 302.16,-347.57 295.63,-344.5 300.98,-339.66 307.5,-342.73"/>
<polygon fill="none" stroke="black" stroke-width="3" points="328.4,-333.26 333.75,-328.42 340.27,-331.5 334.92,-336.34 328.4,-333.26"/>
</g>
<!-- x5&#45;&gt;n11 -->
<g id="edge8" class="edge">
<title>x5:e&#45;&gt;n11:w</title>
<path fill="none" stroke="black" stroke-width="3" d="M161.5,-168.5C177.05,-168.5 183.05,-172.31 194.72,-173.86"/>
<polygon fill="black" stroke="black" stroke-width="3" points="194.8,-177.37 205,-174.5 195.24,-170.38 194.8,-177.37"/>
</g>
<!-- x6&#45;&gt;n12 -->
<g id="edge15" class="edge">
<title>x6:e&#45;&gt;n12:w</title>
<path fill="none" stroke="black" stroke-width="3" d="M674.27,-307.5C725.03,-307.5 665.66,-206.37 700.08,-191.35"/>
<polygon fill="black" stroke="black" stroke-width="3" points="701.06,-194.73 710.27,-189.5 699.8,-187.85 701.06,-194.73"/>
</g>
<!-- x7&#45;&gt;n12 -->
<g id="edge16" class="edge">
<title>x7:e&#45;&gt;n12:w</title>
<path fill="none" stroke="black" stroke-width="3" d="M674.27,-247.5C700.34,-247.5 685.78,-204.67 700.43,-192.62"/>
<polygon fill="black" stroke="black" stroke-width="3" points="701.79,-195.86 710.27,-189.5 699.68,-189.18 701.79,-195.86"/>
</g>
<!-- x8&#45;&gt;n12 -->
<g id="edge17" class="edge">
<title>x8:e&#45;&gt;n12:w</title>
<path fill="none" stroke="black" stroke-width="3" d="M674.27,-189.5C686.27,-189.5 691.52,-189.5 700.14,-189.5"/>
<polygon fill="black" stroke="black" stroke-width="3" points="700.27,-193 710.27,-189.5 700.27,-186 700.27,-193"/>
</g>
<!-- x9&#45;&gt;n12 -->
<g id="edge18" class="edge">
<title>x9:e&#45;&gt;n12:w</title>
<path fill="none" stroke="black" stroke-width="3" d="M668.77,-131.5C696.26,-131.5 683.44,-175.12 700.22,-186.7"/>
<polygon fill="black" stroke="black" stroke-width="3" points="699.7,-190.19 710.27,-189.5 701.57,-183.45 699.7,-190.19"/>
</g>
<!-- x10&#45;&gt;n12 -->
<g id="edge14" class="edge">
<title>x10:e&#45;&gt;n12:w</title>
<path fill="none" stroke="black" stroke-width="3" d="M668.77,-73.5C719.46,-73.5 664.93,-172.92 700.01,-187.68"/>
<polygon fill="black" stroke="black" stroke-width="3" points="699.81,-191.2 710.27,-189.5 701.03,-184.31 699.81,-191.2"/>
</g>
</g>
</svg>
