<?xml version="1.0" encoding="UTF-8" standalone="no"?>
<!DOCTYPE svg PUBLIC "-//W3C//DTD SVG 1.1//EN"
 "http://www.w3.org/Graphics/SVG/1.1/DTD/svg11.dtd">
<!-- Generated by graphviz version 4.0.0 (20220529.0937)
 -->
<!-- Title: top_module Pages: 1 -->
<svg width="795pt" height="754pt"
 viewBox="0.00 0.00 794.84 754.15" xmlns="http://www.w3.org/2000/svg" xmlns:xlink="http://www.w3.org/1999/xlink">
<g id="graph0" class="graph" transform="scale(1 1) rotate(0) translate(4 750.15)">
<title>top_module</title>
<polygon fill="white" stroke="transparent" points="-4,4 -4,-750.15 790.84,-750.15 790.84,4 -4,4"/>
<text text-anchor="middle" x="393.42" y="-7.8" font-family="Times New Roman,serif" font-size="14.00">top_module</text>
<!-- n2 -->
<g id="node1" class="node">
<title>n2</title>
<polygon fill="none" stroke="black" points="313.42,-574.15 250.08,-556.15 313.42,-538.15 376.77,-556.15 313.42,-574.15"/>
<text text-anchor="middle" x="313.42" y="-552.45" font-family="Times New Roman,serif" font-size="14.00">signals_b</text>
</g>
<!-- c13 -->
<g id="node9" class="node">
<title>c13</title>
<polygon fill="none" stroke="black" points="443.84,-562.15 443.84,-608.15 544.84,-608.15 544.84,-562.15 443.84,-562.15"/>
<text text-anchor="middle" x="456.84" y="-592.95" font-family="Times New Roman,serif" font-size="14.00">A</text>
<polyline fill="none" stroke="black" points="443.84,-585.15 469.84,-585.15 "/>
<text text-anchor="middle" x="456.84" y="-569.95" font-family="Times New Roman,serif" font-size="14.00">B</text>
<polyline fill="none" stroke="black" points="469.84,-562.15 469.84,-608.15 "/>
<text text-anchor="middle" x="494.34" y="-588.95" font-family="Times New Roman,serif" font-size="14.00">$1</text>
<text text-anchor="middle" x="494.34" y="-573.95" font-family="Times New Roman,serif" font-size="14.00">$xnor</text>
<polyline fill="none" stroke="black" points="518.84,-562.15 518.84,-608.15 "/>
<text text-anchor="middle" x="531.84" y="-581.45" font-family="Times New Roman,serif" font-size="14.00">Y</text>
</g>
<!-- n2&#45;&gt;c13 -->
<g id="edge3" class="edge">
<title>n2:e&#45;&gt;c13:w</title>
<path fill="none" stroke="#1b9e77" stroke-width="3" d="M376.84,-556.15C382.9,-556.15 416.33,-566.73 433.94,-571.2"/>
<polygon fill="#1b9e77" stroke="#1b9e77" stroke-width="3" points="433.36,-574.65 443.84,-573.15 434.71,-567.78 433.36,-574.65"/>
<text text-anchor="middle" x="410.34" y="-571.95" font-family="Times New Roman,serif" font-size="14.00" fill="#1b9e77">&lt;25&gt;</text>
</g>
<!-- n3 -->
<g id="node2" class="node">
<title>n3</title>
<polygon fill="none" stroke="black" points="313.42,-667.15 250.92,-649.15 313.42,-631.15 375.93,-649.15 313.42,-667.15"/>
<text text-anchor="middle" x="313.42" y="-645.45" font-family="Times New Roman,serif" font-size="14.00">signals_a</text>
</g>
<!-- n3&#45;&gt;c13 -->
<g id="edge5" class="edge">
<title>n3:e&#45;&gt;c13:w</title>
<path fill="none" stroke="#1b9e77" stroke-width="3" d="M376.84,-649.15C410.71,-649.15 407.38,-607.18 433.69,-598.65"/>
<polygon fill="#1b9e77" stroke="#1b9e77" stroke-width="3" points="434.46,-602.07 443.84,-597.15 433.44,-595.15 434.46,-602.07"/>
<text text-anchor="middle" x="410.34" y="-645.95" font-family="Times New Roman,serif" font-size="14.00" fill="#1b9e77">&lt;25&gt;</text>
</g>
<!-- n4 -->
<g id="node3" class="node">
<title>n4</title>
<polygon fill="none" stroke="black" points="786.84,-577.69 786.84,-592.61 771.03,-603.15 748.66,-603.15 732.84,-592.61 732.84,-577.69 748.66,-567.15 771.03,-567.15 786.84,-577.69"/>
<text text-anchor="middle" x="759.84" y="-581.45" font-family="Times New Roman,serif" font-size="14.00">out</text>
</g>
<!-- n5 -->
<g id="node4" class="node">
<title>n5</title>
<polygon fill="none" stroke="black" points="54,-216.69 54,-231.61 38.18,-242.15 15.82,-242.15 0,-231.61 0,-216.69 15.82,-206.15 38.18,-206.15 54,-216.69"/>
<text text-anchor="middle" x="27" y="-220.45" font-family="Times New Roman,serif" font-size="14.00">e</text>
</g>
<!-- x0 -->
<g id="node10" class="node">
<title>x0</title>
<path fill="none" stroke="black" d="M103,-630.65C103,-630.65 171,-630.65 171,-630.65 177,-630.65 183,-636.65 183,-642.65 183,-642.65 183,-733.65 183,-733.65 183,-739.65 177,-745.65 171,-745.65 171,-745.65 103,-745.65 103,-745.65 97,-745.65 91,-739.65 91,-733.65 91,-733.65 91,-642.65 91,-642.65 91,-636.65 97,-630.65 103,-630.65"/>
<text text-anchor="middle" x="137" y="-730.45" font-family="Times New Roman,serif" font-size="14.00">5x 0:0 &#45; 24:20</text>
<polyline fill="none" stroke="black" points="91,-722.65 183,-722.65 "/>
<text text-anchor="middle" x="137" y="-707.45" font-family="Times New Roman,serif" font-size="14.00">5x 0:0 &#45; 19:15</text>
<polyline fill="none" stroke="black" points="91,-699.65 183,-699.65 "/>
<text text-anchor="middle" x="137" y="-684.45" font-family="Times New Roman,serif" font-size="14.00">5x 0:0 &#45; 14:10</text>
<polyline fill="none" stroke="black" points="91,-676.65 183,-676.65 "/>
<text text-anchor="middle" x="137" y="-661.45" font-family="Times New Roman,serif" font-size="14.00">5x 0:0 &#45; 9:5</text>
<polyline fill="none" stroke="black" points="91,-653.65 183,-653.65 "/>
<text text-anchor="middle" x="137" y="-638.45" font-family="Times New Roman,serif" font-size="14.00">5x 0:0 &#45; 4:0</text>
</g>
<!-- n5&#45;&gt;x0 -->
<g id="edge7" class="edge">
<title>n5:e&#45;&gt;x0:w</title>
<path fill="none" stroke="#e7298a" d="M54,-224.15C75.31,-224.15 69.1,-573.39 85.68,-633.42"/>
<polygon fill="#e7298a" stroke="#e7298a" points="82.81,-635.43 91,-642.15 88.78,-631.79 82.81,-635.43"/>
</g>
<!-- x1 -->
<g id="node11" class="node">
<title>x1</title>
<path fill="none" stroke="black" d="M111.5,-36.65C111.5,-36.65 162.5,-36.65 162.5,-36.65 168.5,-36.65 174.5,-42.65 174.5,-48.65 174.5,-48.65 174.5,-599.65 174.5,-599.65 174.5,-605.65 168.5,-611.65 162.5,-611.65 162.5,-611.65 111.5,-611.65 111.5,-611.65 105.5,-611.65 99.5,-605.65 99.5,-599.65 99.5,-599.65 99.5,-48.65 99.5,-48.65 99.5,-42.65 105.5,-36.65 111.5,-36.65"/>
<text text-anchor="middle" x="137" y="-596.45" font-family="Times New Roman,serif" font-size="14.00">0:0 &#45; 24:24</text>
<polyline fill="none" stroke="black" points="99.5,-588.65 174.5,-588.65 "/>
<text text-anchor="middle" x="137" y="-573.45" font-family="Times New Roman,serif" font-size="14.00">0:0 &#45; 23:23</text>
<polyline fill="none" stroke="black" points="99.5,-565.65 174.5,-565.65 "/>
<text text-anchor="middle" x="137" y="-550.45" font-family="Times New Roman,serif" font-size="14.00">0:0 &#45; 22:22</text>
<polyline fill="none" stroke="black" points="99.5,-542.65 174.5,-542.65 "/>
<text text-anchor="middle" x="137" y="-527.45" font-family="Times New Roman,serif" font-size="14.00">0:0 &#45; 21:21</text>
<polyline fill="none" stroke="black" points="99.5,-519.65 174.5,-519.65 "/>
<text text-anchor="middle" x="137" y="-504.45" font-family="Times New Roman,serif" font-size="14.00">0:0 &#45; 20:20</text>
<polyline fill="none" stroke="black" points="99.5,-496.65 174.5,-496.65 "/>
<text text-anchor="middle" x="137" y="-481.45" font-family="Times New Roman,serif" font-size="14.00">0:0 &#45; 19:19</text>
<polyline fill="none" stroke="black" points="99.5,-473.65 174.5,-473.65 "/>
<text text-anchor="middle" x="137" y="-458.45" font-family="Times New Roman,serif" font-size="14.00">0:0 &#45; 18:18</text>
<polyline fill="none" stroke="black" points="99.5,-450.65 174.5,-450.65 "/>
<text text-anchor="middle" x="137" y="-435.45" font-family="Times New Roman,serif" font-size="14.00">0:0 &#45; 17:17</text>
<polyline fill="none" stroke="black" points="99.5,-427.65 174.5,-427.65 "/>
<text text-anchor="middle" x="137" y="-412.45" font-family="Times New Roman,serif" font-size="14.00">0:0 &#45; 16:16</text>
<polyline fill="none" stroke="black" points="99.5,-404.65 174.5,-404.65 "/>
<text text-anchor="middle" x="137" y="-389.45" font-family="Times New Roman,serif" font-size="14.00">0:0 &#45; 15:15</text>
<polyline fill="none" stroke="black" points="99.5,-381.65 174.5,-381.65 "/>
<text text-anchor="middle" x="137" y="-366.45" font-family="Times New Roman,serif" font-size="14.00">0:0 &#45; 14:14</text>
<polyline fill="none" stroke="black" points="99.5,-358.65 174.5,-358.65 "/>
<text text-anchor="middle" x="137" y="-343.45" font-family="Times New Roman,serif" font-size="14.00">0:0 &#45; 13:13</text>
<polyline fill="none" stroke="black" points="99.5,-335.65 174.5,-335.65 "/>
<text text-anchor="middle" x="137" y="-320.45" font-family="Times New Roman,serif" font-size="14.00">0:0 &#45; 12:12</text>
<polyline fill="none" stroke="black" points="99.5,-312.65 174.5,-312.65 "/>
<text text-anchor="middle" x="137" y="-297.45" font-family="Times New Roman,serif" font-size="14.00">0:0 &#45; 11:11</text>
<polyline fill="none" stroke="black" points="99.5,-289.65 174.5,-289.65 "/>
<text text-anchor="middle" x="137" y="-274.45" font-family="Times New Roman,serif" font-size="14.00">0:0 &#45; 10:10</text>
<polyline fill="none" stroke="black" points="99.5,-266.65 174.5,-266.65 "/>
<text text-anchor="middle" x="137" y="-251.45" font-family="Times New Roman,serif" font-size="14.00">0:0 &#45; 9:9</text>
<polyline fill="none" stroke="black" points="99.5,-243.65 174.5,-243.65 "/>
<text text-anchor="middle" x="137" y="-228.45" font-family="Times New Roman,serif" font-size="14.00">0:0 &#45; 8:8</text>
<polyline fill="none" stroke="black" points="99.5,-220.65 174.5,-220.65 "/>
<text text-anchor="middle" x="137" y="-205.45" font-family="Times New Roman,serif" font-size="14.00">0:0 &#45; 7:7</text>
<polyline fill="none" stroke="black" points="99.5,-197.65 174.5,-197.65 "/>
<text text-anchor="middle" x="137" y="-182.45" font-family="Times New Roman,serif" font-size="14.00">0:0 &#45; 6:6</text>
<polyline fill="none" stroke="black" points="99.5,-174.65 174.5,-174.65 "/>
<text text-anchor="middle" x="137" y="-159.45" font-family="Times New Roman,serif" font-size="14.00">0:0 &#45; 5:5</text>
<polyline fill="none" stroke="black" points="99.5,-151.65 174.5,-151.65 "/>
<text text-anchor="middle" x="137" y="-136.45" font-family="Times New Roman,serif" font-size="14.00">0:0 &#45; 4:4</text>
<polyline fill="none" stroke="black" points="99.5,-128.65 174.5,-128.65 "/>
<text text-anchor="middle" x="137" y="-113.45" font-family="Times New Roman,serif" font-size="14.00">0:0 &#45; 3:3</text>
<polyline fill="none" stroke="black" points="99.5,-105.65 174.5,-105.65 "/>
<text text-anchor="middle" x="137" y="-90.45" font-family="Times New Roman,serif" font-size="14.00">0:0 &#45; 2:2</text>
<polyline fill="none" stroke="black" points="99.5,-82.65 174.5,-82.65 "/>
<text text-anchor="middle" x="137" y="-67.45" font-family="Times New Roman,serif" font-size="14.00">0:0 &#45; 1:1</text>
<polyline fill="none" stroke="black" points="99.5,-59.65 174.5,-59.65 "/>
<text text-anchor="middle" x="137" y="-44.45" font-family="Times New Roman,serif" font-size="14.00">0:0 &#45; 0:0</text>
</g>
<!-- n5&#45;&gt;x1 -->
<g id="edge8" class="edge">
<title>n5:e&#45;&gt;x1:w</title>
<path fill="none" stroke="#e7298a" d="M54,-224.15C81.62,-224.15 63.82,-127.53 72,-101.15 78.56,-80.01 73.88,-56.81 88.02,-50.08"/>
<polygon fill="#e7298a" stroke="#e7298a" points="88.85,-53.48 98,-48.15 87.52,-46.61 88.85,-53.48"/>
</g>
<!-- n5&#45;&gt;x1 -->
<g id="edge9" class="edge">
<title>n5:e&#45;&gt;x1:w</title>
<path fill="none" stroke="#e7298a" d="M54,-224.15C62.49,-224.15 66.06,-221.26 73,-226.15 90.2,-238.26 78.75,-265.49 88.23,-274.89"/>
<polygon fill="#e7298a" stroke="#e7298a" points="87.41,-278.3 98,-278.15 89.62,-271.66 87.41,-278.3"/>
</g>
<!-- n5&#45;&gt;x1 -->
<g id="edge10" class="edge">
<title>n5:e&#45;&gt;x1:w</title>
<path fill="none" stroke="#e7298a" d="M54,-224.15C68.67,-224.15 67.37,-237.6 73,-251.15 83.85,-277.27 70.06,-367.94 88.72,-388.83"/>
<polygon fill="#e7298a" stroke="#e7298a" points="87.46,-392.11 98,-393.15 90.41,-385.76 87.46,-392.11"/>
</g>
<!-- n5&#45;&gt;x1 -->
<g id="edge11" class="edge">
<title>n5:e&#45;&gt;x1:w</title>
<path fill="none" stroke="#e7298a" d="M54,-224.15C68.28,-224.15 79.45,-451.4 93.07,-499.34"/>
<polygon fill="#e7298a" stroke="#e7298a" points="90.06,-501.13 98,-508.15 96.17,-497.71 90.06,-501.13"/>
</g>
<!-- n5&#45;&gt;x1 -->
<g id="edge12" class="edge">
<title>n5:e&#45;&gt;x1:w</title>
<path fill="none" stroke="#e7298a" d="M54,-224.15C90.88,-224.15 43.23,-166.23 72,-143.15 80.35,-136.45 82.6,-150.38 88.97,-158.25"/>
<polygon fill="#e7298a" stroke="#e7298a" points="87.54,-161.45 98,-163.15 90.88,-155.3 87.54,-161.45"/>
</g>
<!-- n6 -->
<g id="node5" class="node">
<title>n6</title>
<polygon fill="none" stroke="black" points="54,-408.69 54,-423.61 38.18,-434.15 15.82,-434.15 0,-423.61 0,-408.69 15.82,-398.15 38.18,-398.15 54,-408.69"/>
<text text-anchor="middle" x="27" y="-412.45" font-family="Times New Roman,serif" font-size="14.00">d</text>
</g>
<!-- n6&#45;&gt;x0 -->
<g id="edge13" class="edge">
<title>n6:e&#45;&gt;x0:w</title>
<path fill="none" stroke="#e7298a" d="M54,-416.15C79.86,-416.15 60.54,-624.97 72,-648.15 75.14,-654.5 77.35,-659.55 81.33,-662.45"/>
<polygon fill="#e7298a" stroke="#e7298a" points="80.43,-665.83 91,-665.15 82.31,-659.09 80.43,-665.83"/>
</g>
<!-- n6&#45;&gt;x1 -->
<g id="edge14" class="edge">
<title>n6:e&#45;&gt;x1:w</title>
<path fill="none" stroke="#e7298a" d="M54,-416.15C83.51,-416.15 66.4,-180.13 72,-151.15 78.35,-118.31 64.23,-80.21 87.94,-72.54"/>
<polygon fill="#e7298a" stroke="#e7298a" points="88.57,-75.98 98,-71.15 87.62,-69.05 88.57,-75.98"/>
</g>
<!-- n6&#45;&gt;x1 -->
<g id="edge15" class="edge">
<title>n6:e&#45;&gt;x1:w</title>
<path fill="none" stroke="#e7298a" d="M54,-416.15C104.66,-416.15 52.33,-317.59 87.7,-302.96"/>
<polygon fill="#e7298a" stroke="#e7298a" points="88.76,-306.32 98,-301.15 87.55,-299.43 88.76,-306.32"/>
</g>
<!-- n6&#45;&gt;x1 -->
<g id="edge16" class="edge">
<title>n6:e&#45;&gt;x1:w</title>
<path fill="none" stroke="#e7298a" d="M54,-416.15C62.43,-416.15 63.68,-420.8 72,-422.15 79.5,-423.37 83.19,-420.56 88,-418.39"/>
<polygon fill="#e7298a" stroke="#e7298a" points="89.01,-421.75 98,-416.15 87.48,-414.92 89.01,-421.75"/>
</g>
<!-- n6&#45;&gt;x1 -->
<g id="edge17" class="edge">
<title>n6:e&#45;&gt;x1:w</title>
<path fill="none" stroke="#e7298a" d="M54,-416.15C77.84,-416.15 72.77,-503.41 89.15,-525.91"/>
<polygon fill="#e7298a" stroke="#e7298a" points="87.61,-529.06 98,-531.15 91.18,-523.04 87.61,-529.06"/>
</g>
<!-- n6&#45;&gt;x1 -->
<g id="edge18" class="edge">
<title>n6:e&#45;&gt;x1:w</title>
<path fill="none" stroke="#e7298a" d="M54,-416.15C72.77,-416.15 67.32,-266.33 72,-248.15 78.46,-223.06 70.8,-194.86 88.13,-187.81"/>
<polygon fill="#e7298a" stroke="#e7298a" points="88.72,-191.26 98,-186.15 87.56,-184.36 88.72,-191.26"/>
</g>
<!-- n7 -->
<g id="node6" class="node">
<title>n7</title>
<polygon fill="none" stroke="black" points="54,-102.69 54,-117.61 38.18,-128.15 15.82,-128.15 0,-117.61 0,-102.69 15.82,-92.15 38.18,-92.15 54,-102.69"/>
<text text-anchor="middle" x="27" y="-106.45" font-family="Times New Roman,serif" font-size="14.00">c</text>
</g>
<!-- n7&#45;&gt;x0 -->
<g id="edge19" class="edge">
<title>n7:e&#45;&gt;x0:w</title>
<path fill="none" stroke="#7570b3" d="M54,-110.15C83.91,-110.15 62.38,-609.73 85.05,-679.98"/>
<polygon fill="#7570b3" stroke="#7570b3" points="82.29,-682.12 91,-688.15 87.95,-678 82.29,-682.12"/>
</g>
<!-- n7&#45;&gt;x1 -->
<g id="edge20" class="edge">
<title>n7:e&#45;&gt;x1:w</title>
<path fill="none" stroke="#7570b3" d="M54,-110.15C65.04,-110.15 64.78,-86.78 73,-94.15 108.43,-125.93 55.62,-295.99 88.38,-321.06"/>
<polygon fill="#7570b3" stroke="#7570b3" points="87.41,-324.43 98,-324.15 89.55,-317.76 87.41,-324.43"/>
</g>
<!-- n7&#45;&gt;x1 -->
<g id="edge21" class="edge">
<title>n7:e&#45;&gt;x1:w</title>
<path fill="none" stroke="#7570b3" d="M54,-110.15C87.86,-110.15 65.55,-387.39 90.2,-432.87"/>
<polygon fill="#7570b3" stroke="#7570b3" points="88.01,-435.61 98,-439.15 92.4,-430.15 88.01,-435.61"/>
</g>
<!-- n7&#45;&gt;x1 -->
<g id="edge22" class="edge">
<title>n7:e&#45;&gt;x1:w</title>
<path fill="none" stroke="#7570b3" d="M54,-110.15C92.18,-110.15 42.31,-50.15 72,-26.15 94.02,-8.35 72.64,-73.76 88.63,-90.39"/>
<polygon fill="#7570b3" stroke="#7570b3" points="87.42,-93.68 98,-94.15 90.02,-87.18 87.42,-93.68"/>
</g>
<!-- n7&#45;&gt;x1 -->
<g id="edge23" class="edge">
<title>n7:e&#45;&gt;x1:w</title>
<path fill="none" stroke="#7570b3" d="M54,-110.15C76.75,-110.15 73.92,-484.29 92.48,-545.68"/>
<polygon fill="#7570b3" stroke="#7570b3" points="89.61,-547.68 98,-554.15 95.47,-543.86 89.61,-547.68"/>
</g>
<!-- n7&#45;&gt;x1 -->
<g id="edge24" class="edge">
<title>n7:e&#45;&gt;x1:w</title>
<path fill="none" stroke="#7570b3" d="M54,-110.15C66.26,-110.15 63.48,-82.42 73,-90.15 111.85,-121.68 53.87,-196.82 87.94,-207.8"/>
<polygon fill="#7570b3" stroke="#7570b3" points="87.62,-211.29 98,-209.15 88.55,-204.35 87.62,-211.29"/>
</g>
<!-- n8 -->
<g id="node7" class="node">
<title>n8</title>
<polygon fill="none" stroke="black" points="54,-470.69 54,-485.61 38.18,-496.15 15.82,-496.15 0,-485.61 0,-470.69 15.82,-460.15 38.18,-460.15 54,-470.69"/>
<text text-anchor="middle" x="27" y="-474.45" font-family="Times New Roman,serif" font-size="14.00">b</text>
</g>
<!-- n8&#45;&gt;x0 -->
<g id="edge25" class="edge">
<title>n8:e&#45;&gt;x0:w</title>
<path fill="none" stroke="#d95f02" d="M54,-478.15C75.76,-478.15 66.03,-652.23 72,-673.15 75.97,-687.05 73.93,-701.94 81.23,-708.16"/>
<polygon fill="#d95f02" stroke="#d95f02" points="80.41,-711.57 91,-711.15 82.46,-704.87 80.41,-711.57"/>
</g>
<!-- n8&#45;&gt;x1 -->
<g id="edge26" class="edge">
<title>n8:e&#45;&gt;x1:w</title>
<path fill="none" stroke="#d95f02" d="M54,-478.15C81.11,-478.15 70.71,-376.05 89.03,-352.12"/>
<polygon fill="#d95f02" stroke="#d95f02" points="90.95,-355.06 98,-347.15 87.56,-348.94 90.95,-355.06"/>
</g>
<!-- n8&#45;&gt;x1 -->
<g id="edge27" class="edge">
<title>n8:e&#45;&gt;x1:w</title>
<path fill="none" stroke="#d95f02" d="M54,-478.15C70.91,-478.15 75.65,-467.59 88,-463.63"/>
<polygon fill="#d95f02" stroke="#d95f02" points="88.62,-467.07 98,-462.15 87.6,-460.15 88.62,-467.07"/>
</g>
<!-- n8&#45;&gt;x1 -->
<g id="edge28" class="edge">
<title>n8:e&#45;&gt;x1:w</title>
<path fill="none" stroke="#d95f02" d="M54,-478.15C98.2,-478.15 57.75,-561.57 88.07,-575.26"/>
<polygon fill="#d95f02" stroke="#d95f02" points="87.52,-578.72 98,-577.15 88.83,-571.84 87.52,-578.72"/>
</g>
<!-- n8&#45;&gt;x1 -->
<g id="edge29" class="edge">
<title>n8:e&#45;&gt;x1:w</title>
<path fill="none" stroke="#d95f02" d="M54,-478.15C76.53,-478.15 69.18,-298.51 72,-276.15 73.93,-260.89 78.52,-154.43 91.14,-124.79"/>
<polygon fill="#d95f02" stroke="#d95f02" points="93.92,-126.93 98,-117.15 88.72,-122.25 93.92,-126.93"/>
</g>
<!-- n8&#45;&gt;x1 -->
<g id="edge30" class="edge">
<title>n8:e&#45;&gt;x1:w</title>
<path fill="none" stroke="#d95f02" d="M54,-478.15C77.67,-478.15 67.85,-396.46 72,-373.15 76.95,-345.33 68.51,-255.98 88.75,-236.1"/>
<polygon fill="#d95f02" stroke="#d95f02" points="90.18,-239.29 98,-232.15 87.43,-232.86 90.18,-239.29"/>
</g>
<!-- n9 -->
<g id="node8" class="node">
<title>n9</title>
<polygon fill="none" stroke="black" points="54,-566.69 54,-581.61 38.18,-592.15 15.82,-592.15 0,-581.61 0,-566.69 15.82,-556.15 38.18,-556.15 54,-566.69"/>
<text text-anchor="middle" x="27" y="-570.45" font-family="Times New Roman,serif" font-size="14.00">a</text>
</g>
<!-- n9&#45;&gt;x0 -->
<g id="edge31" class="edge">
<title>n9:e&#45;&gt;x0:w</title>
<path fill="none" stroke="#1b9e77" d="M54,-574.15C87.35,-574.15 53.64,-695.31 72,-723.15 75.02,-727.73 77.57,-730.64 80.96,-732.31"/>
<polygon fill="#1b9e77" stroke="#1b9e77" points="80.53,-735.79 91,-734.15 81.8,-728.9 80.53,-735.79"/>
</g>
<!-- n9&#45;&gt;x1 -->
<g id="edge32" class="edge">
<title>n9:e&#45;&gt;x1:w</title>
<path fill="none" stroke="#1b9e77" d="M54,-574.15C96.57,-574.15 58.98,-402.25 88.4,-374.04"/>
<polygon fill="#1b9e77" stroke="#1b9e77" points="90.05,-377.15 98,-370.15 87.42,-370.67 90.05,-377.15"/>
</g>
<!-- n9&#45;&gt;x1 -->
<g id="edge33" class="edge">
<title>n9:e&#45;&gt;x1:w</title>
<path fill="none" stroke="#1b9e77" d="M54,-574.15C94.16,-574.15 61.11,-500.42 88.12,-487.18"/>
<polygon fill="#1b9e77" stroke="#1b9e77" points="88.91,-490.59 98,-485.15 87.5,-483.73 88.91,-490.59"/>
</g>
<!-- n9&#45;&gt;x1 -->
<g id="edge34" class="edge">
<title>n9:e&#45;&gt;x1:w</title>
<path fill="none" stroke="#1b9e77" d="M54,-574.15C72.81,-574.15 75.06,-591.98 88.18,-598.11"/>
<polygon fill="#1b9e77" stroke="#1b9e77" points="87.5,-601.54 98,-600.15 88.92,-594.69 87.5,-601.54"/>
</g>
<!-- n9&#45;&gt;x1 -->
<g id="edge35" class="edge">
<title>n9:e&#45;&gt;x1:w</title>
<path fill="none" stroke="#1b9e77" d="M54,-574.15C76.2,-574.15 74.31,-209.99 92.47,-148.82"/>
<polygon fill="#1b9e77" stroke="#1b9e77" points="95.57,-150.46 98,-140.15 89.67,-146.7 95.57,-150.46"/>
</g>
<!-- n9&#45;&gt;x1 -->
<g id="edge36" class="edge">
<title>n9:e&#45;&gt;x1:w</title>
<path fill="none" stroke="#1b9e77" d="M54,-574.15C86.78,-574.15 66.4,-306.48 90.25,-261.52"/>
<polygon fill="#1b9e77" stroke="#1b9e77" points="92.5,-264.2 98,-255.15 88.05,-258.8 92.5,-264.2"/>
</g>
<!-- x2 -->
<g id="node12" class="node">
<title>x2</title>
<path fill="none" stroke="black" d="M653.84,-603.15C653.84,-603.15 623.84,-603.15 623.84,-603.15 617.84,-603.15 611.84,-597.15 611.84,-591.15 611.84,-591.15 611.84,-579.15 611.84,-579.15 611.84,-573.15 617.84,-567.15 623.84,-567.15 623.84,-567.15 653.84,-567.15 653.84,-567.15 659.84,-567.15 665.84,-573.15 665.84,-579.15 665.84,-579.15 665.84,-591.15 665.84,-591.15 665.84,-597.15 659.84,-603.15 653.84,-603.15"/>
<text text-anchor="middle" x="638.84" y="-581.45" font-family="Times New Roman,serif" font-size="14.00">BUF</text>
</g>
<!-- c13&#45;&gt;x2 -->
<g id="edge1" class="edge">
<title>c13:e&#45;&gt;x2:w</title>
<path fill="none" stroke="#66a61e" stroke-width="3" d="M544.84,-585.15C570.9,-585.15 579.86,-585.15 601.64,-585.15"/>
<polygon fill="#66a61e" stroke="#66a61e" stroke-width="3" points="601.84,-588.65 611.84,-585.15 601.84,-581.65 601.84,-588.65"/>
<text text-anchor="middle" x="578.34" y="-588.95" font-family="Times New Roman,serif" font-size="14.00" fill="#66a61e">&lt;25&gt;</text>
</g>
<!-- x0&#45;&gt;n3 -->
<g id="edge4" class="edge">
<title>x0:e&#45;&gt;n3:w</title>
<path fill="none" stroke="#1b9e77" stroke-width="3" d="M183,-688.15C213.69,-688.15 215.53,-657.21 239.9,-650.45"/>
<polygon fill="#1b9e77" stroke="#1b9e77" stroke-width="3" points="240.53,-653.9 250,-649.15 239.64,-646.95 240.53,-653.9"/>
<text text-anchor="middle" x="216.5" y="-686.95" font-family="Times New Roman,serif" font-size="14.00" fill="#1b9e77">&lt;25&gt;</text>
</g>
<!-- x1&#45;&gt;n2 -->
<g id="edge2" class="edge">
<title>x1:e&#45;&gt;n2:w</title>
<path fill="none" stroke="#1b9e77" stroke-width="3" d="M176,-324.15C280.53,-324.15 151.22,-540.56 239.76,-555.35"/>
<polygon fill="#1b9e77" stroke="#1b9e77" stroke-width="3" points="239.76,-558.87 250,-556.15 240.3,-551.89 239.76,-558.87"/>
<text text-anchor="middle" x="216.5" y="-554.95" font-family="Times New Roman,serif" font-size="14.00" fill="#1b9e77">&lt;25&gt;</text>
</g>
<!-- x2&#45;&gt;n4 -->
<g id="edge6" class="edge">
<title>x2:e&#45;&gt;n4:w</title>
<path fill="none" stroke="#7570b3" stroke-width="3" d="M665.84,-585.15C691.9,-585.15 700.86,-585.15 722.64,-585.15"/>
<polygon fill="#7570b3" stroke="#7570b3" stroke-width="3" points="722.84,-588.65 732.84,-585.15 722.84,-581.65 722.84,-588.65"/>
<text text-anchor="middle" x="699.34" y="-588.95" font-family="Times New Roman,serif" font-size="14.00" fill="#7570b3">&lt;25&gt;</text>
</g>
</g>
</svg>
