<?xml version="1.0" encoding="UTF-8" standalone="no"?>
<!DOCTYPE svg PUBLIC "-//W3C//DTD SVG 1.1//EN"
 "http://www.w3.org/Graphics/SVG/1.1/DTD/svg11.dtd">
<!-- Generated by graphviz version 3.0.0 (20220226.1711)
 -->
<!-- Title: top_module Pages: 1 -->
<svg width="670pt" height="741pt"
 viewBox="0.00 0.00 669.84 741.00" xmlns="http://www.w3.org/2000/svg" xmlns:xlink="http://www.w3.org/1999/xlink">
<g id="graph0" class="graph" transform="scale(1 1) rotate(0) translate(4 737)">
<title>top_module</title>
<polygon fill="white" stroke="transparent" points="-4,4 -4,-737 665.84,-737 665.84,4 -4,4"/>
<text text-anchor="middle" x="330.92" y="-7.8" font-family="Times New Roman,serif" font-size="14.00">top_module</text>
<!-- n2 -->
<g id="node1" class="node">
<title>n2</title>
<polygon fill="none" stroke="black" points="281.42,-484 218.08,-466 281.42,-448 344.77,-466 281.42,-484"/>
<text text-anchor="middle" x="281.42" y="-462.3" font-family="Times New Roman,serif" font-size="14.00">signals_b</text>
</g>
<!-- c13 -->
<g id="node9" class="node">
<title>c13</title>
<polygon fill="none" stroke="black" points="380.84,-508 380.84,-554 481.84,-554 481.84,-508 380.84,-508"/>
<text text-anchor="middle" x="393.84" y="-538.8" font-family="Times New Roman,serif" font-size="14.00">A</text>
<polyline fill="none" stroke="black" points="380.84,-531 406.84,-531 "/>
<text text-anchor="middle" x="393.84" y="-515.8" font-family="Times New Roman,serif" font-size="14.00">B</text>
<polyline fill="none" stroke="black" points="406.84,-508 406.84,-554 "/>
<text text-anchor="middle" x="431.34" y="-534.8" font-family="Times New Roman,serif" font-size="14.00">$1</text>
<text text-anchor="middle" x="431.34" y="-519.8" font-family="Times New Roman,serif" font-size="14.00">$xnor</text>
<polyline fill="none" stroke="black" points="455.84,-508 455.84,-554 "/>
<text text-anchor="middle" x="468.84" y="-527.3" font-family="Times New Roman,serif" font-size="14.00">Y</text>
</g>
<!-- n2&#45;&gt;c13 -->
<g id="edge3" class="edge">
<title>n2:e&#45;&gt;c13:w</title>
<path fill="none" stroke="black" stroke-width="3" d="M344.84,-466C369.09,-466 357.5,-504.43 371.11,-515.84"/>
<polygon fill="black" stroke="black" stroke-width="3" points="370.25,-519.25 380.84,-519 372.41,-512.59 370.25,-519.25"/>
</g>
<!-- n3 -->
<g id="node2" class="node">
<title>n3</title>
<polygon fill="none" stroke="black" points="281.42,-615 218.92,-597 281.42,-579 343.93,-597 281.42,-615"/>
<text text-anchor="middle" x="281.42" y="-593.3" font-family="Times New Roman,serif" font-size="14.00">signals_a</text>
</g>
<!-- n3&#45;&gt;c13 -->
<g id="edge5" class="edge">
<title>n3:e&#45;&gt;c13:w</title>
<path fill="none" stroke="black" stroke-width="3" d="M344.84,-597C369.41,-597 357.32,-557.84 371.01,-546.22"/>
<polygon fill="black" stroke="black" stroke-width="3" points="372.43,-549.43 380.84,-543 370.25,-542.78 372.43,-549.43"/>
</g>
<!-- n4 -->
<g id="node3" class="node">
<title>n4</title>
<polygon fill="none" stroke="black" points="661.84,-523.54 661.84,-538.46 646.03,-549 623.66,-549 607.84,-538.46 607.84,-523.54 623.66,-513 646.03,-513 661.84,-523.54"/>
<text text-anchor="middle" x="634.84" y="-527.3" font-family="Times New Roman,serif" font-size="14.00">out</text>
</g>
<!-- n5 -->
<g id="node4" class="node">
<title>n5</title>
<polygon fill="none" stroke="black" points="54,-253.54 54,-268.46 38.18,-279 15.82,-279 0,-268.46 0,-253.54 15.82,-243 38.18,-243 54,-253.54"/>
<text text-anchor="middle" x="27" y="-257.3" font-family="Times New Roman,serif" font-size="14.00">e</text>
</g>
<!-- x0 -->
<g id="node10" class="node">
<title>x0</title>
<path fill="none" stroke="black" d="M102,-617.5C102,-617.5 170,-617.5 170,-617.5 176,-617.5 182,-623.5 182,-629.5 182,-629.5 182,-720.5 182,-720.5 182,-726.5 176,-732.5 170,-732.5 170,-732.5 102,-732.5 102,-732.5 96,-732.5 90,-726.5 90,-720.5 90,-720.5 90,-629.5 90,-629.5 90,-623.5 96,-617.5 102,-617.5"/>
<text text-anchor="middle" x="136" y="-717.3" font-family="Times New Roman,serif" font-size="14.00">5x 0:0 &#45; 24:20</text>
<polyline fill="none" stroke="black" points="90,-709.5 182,-709.5 "/>
<text text-anchor="middle" x="136" y="-694.3" font-family="Times New Roman,serif" font-size="14.00">5x 0:0 &#45; 19:15</text>
<polyline fill="none" stroke="black" points="90,-686.5 182,-686.5 "/>
<text text-anchor="middle" x="136" y="-671.3" font-family="Times New Roman,serif" font-size="14.00">5x 0:0 &#45; 14:10</text>
<polyline fill="none" stroke="black" points="90,-663.5 182,-663.5 "/>
<text text-anchor="middle" x="136" y="-648.3" font-family="Times New Roman,serif" font-size="14.00">5x 0:0 &#45; 9:5</text>
<polyline fill="none" stroke="black" points="90,-640.5 182,-640.5 "/>
<text text-anchor="middle" x="136" y="-625.3" font-family="Times New Roman,serif" font-size="14.00">5x 0:0 &#45; 4:0</text>
</g>
<!-- n5&#45;&gt;x0 -->
<g id="edge7" class="edge">
<title>n5:e&#45;&gt;x0:w</title>
<path fill="none" stroke="black" d="M54,-261C132.48,-261 18.94,-596.68 80.16,-626.84"/>
<polygon fill="black" stroke="black" points="79.48,-630.27 90,-629 80.98,-623.44 79.48,-630.27"/>
</g>
<!-- x1 -->
<g id="node11" class="node">
<title>x1</title>
<path fill="none" stroke="black" d="M110.5,-23.5C110.5,-23.5 161.5,-23.5 161.5,-23.5 167.5,-23.5 173.5,-29.5 173.5,-35.5 173.5,-35.5 173.5,-586.5 173.5,-586.5 173.5,-592.5 167.5,-598.5 161.5,-598.5 161.5,-598.5 110.5,-598.5 110.5,-598.5 104.5,-598.5 98.5,-592.5 98.5,-586.5 98.5,-586.5 98.5,-35.5 98.5,-35.5 98.5,-29.5 104.5,-23.5 110.5,-23.5"/>
<text text-anchor="middle" x="136" y="-583.3" font-family="Times New Roman,serif" font-size="14.00">0:0 &#45; 24:24</text>
<polyline fill="none" stroke="black" points="98.5,-575.5 173.5,-575.5 "/>
<text text-anchor="middle" x="136" y="-560.3" font-family="Times New Roman,serif" font-size="14.00">0:0 &#45; 23:23</text>
<polyline fill="none" stroke="black" points="98.5,-552.5 173.5,-552.5 "/>
<text text-anchor="middle" x="136" y="-537.3" font-family="Times New Roman,serif" font-size="14.00">0:0 &#45; 22:22</text>
<polyline fill="none" stroke="black" points="98.5,-529.5 173.5,-529.5 "/>
<text text-anchor="middle" x="136" y="-514.3" font-family="Times New Roman,serif" font-size="14.00">0:0 &#45; 21:21</text>
<polyline fill="none" stroke="black" points="98.5,-506.5 173.5,-506.5 "/>
<text text-anchor="middle" x="136" y="-491.3" font-family="Times New Roman,serif" font-size="14.00">0:0 &#45; 20:20</text>
<polyline fill="none" stroke="black" points="98.5,-483.5 173.5,-483.5 "/>
<text text-anchor="middle" x="136" y="-468.3" font-family="Times New Roman,serif" font-size="14.00">0:0 &#45; 19:19</text>
<polyline fill="none" stroke="black" points="98.5,-460.5 173.5,-460.5 "/>
<text text-anchor="middle" x="136" y="-445.3" font-family="Times New Roman,serif" font-size="14.00">0:0 &#45; 18:18</text>
<polyline fill="none" stroke="black" points="98.5,-437.5 173.5,-437.5 "/>
<text text-anchor="middle" x="136" y="-422.3" font-family="Times New Roman,serif" font-size="14.00">0:0 &#45; 17:17</text>
<polyline fill="none" stroke="black" points="98.5,-414.5 173.5,-414.5 "/>
<text text-anchor="middle" x="136" y="-399.3" font-family="Times New Roman,serif" font-size="14.00">0:0 &#45; 16:16</text>
<polyline fill="none" stroke="black" points="98.5,-391.5 173.5,-391.5 "/>
<text text-anchor="middle" x="136" y="-376.3" font-family="Times New Roman,serif" font-size="14.00">0:0 &#45; 15:15</text>
<polyline fill="none" stroke="black" points="98.5,-368.5 173.5,-368.5 "/>
<text text-anchor="middle" x="136" y="-353.3" font-family="Times New Roman,serif" font-size="14.00">0:0 &#45; 14:14</text>
<polyline fill="none" stroke="black" points="98.5,-345.5 173.5,-345.5 "/>
<text text-anchor="middle" x="136" y="-330.3" font-family="Times New Roman,serif" font-size="14.00">0:0 &#45; 13:13</text>
<polyline fill="none" stroke="black" points="98.5,-322.5 173.5,-322.5 "/>
<text text-anchor="middle" x="136" y="-307.3" font-family="Times New Roman,serif" font-size="14.00">0:0 &#45; 12:12</text>
<polyline fill="none" stroke="black" points="98.5,-299.5 173.5,-299.5 "/>
<text text-anchor="middle" x="136" y="-284.3" font-family="Times New Roman,serif" font-size="14.00">0:0 &#45; 11:11</text>
<polyline fill="none" stroke="black" points="98.5,-276.5 173.5,-276.5 "/>
<text text-anchor="middle" x="136" y="-261.3" font-family="Times New Roman,serif" font-size="14.00">0:0 &#45; 10:10</text>
<polyline fill="none" stroke="black" points="98.5,-253.5 173.5,-253.5 "/>
<text text-anchor="middle" x="136" y="-238.3" font-family="Times New Roman,serif" font-size="14.00">0:0 &#45; 9:9</text>
<polyline fill="none" stroke="black" points="98.5,-230.5 173.5,-230.5 "/>
<text text-anchor="middle" x="136" y="-215.3" font-family="Times New Roman,serif" font-size="14.00">0:0 &#45; 8:8</text>
<polyline fill="none" stroke="black" points="98.5,-207.5 173.5,-207.5 "/>
<text text-anchor="middle" x="136" y="-192.3" font-family="Times New Roman,serif" font-size="14.00">0:0 &#45; 7:7</text>
<polyline fill="none" stroke="black" points="98.5,-184.5 173.5,-184.5 "/>
<text text-anchor="middle" x="136" y="-169.3" font-family="Times New Roman,serif" font-size="14.00">0:0 &#45; 6:6</text>
<polyline fill="none" stroke="black" points="98.5,-161.5 173.5,-161.5 "/>
<text text-anchor="middle" x="136" y="-146.3" font-family="Times New Roman,serif" font-size="14.00">0:0 &#45; 5:5</text>
<polyline fill="none" stroke="black" points="98.5,-138.5 173.5,-138.5 "/>
<text text-anchor="middle" x="136" y="-123.3" font-family="Times New Roman,serif" font-size="14.00">0:0 &#45; 4:4</text>
<polyline fill="none" stroke="black" points="98.5,-115.5 173.5,-115.5 "/>
<text text-anchor="middle" x="136" y="-100.3" font-family="Times New Roman,serif" font-size="14.00">0:0 &#45; 3:3</text>
<polyline fill="none" stroke="black" points="98.5,-92.5 173.5,-92.5 "/>
<text text-anchor="middle" x="136" y="-77.3" font-family="Times New Roman,serif" font-size="14.00">0:0 &#45; 2:2</text>
<polyline fill="none" stroke="black" points="98.5,-69.5 173.5,-69.5 "/>
<text text-anchor="middle" x="136" y="-54.3" font-family="Times New Roman,serif" font-size="14.00">0:0 &#45; 1:1</text>
<polyline fill="none" stroke="black" points="98.5,-46.5 173.5,-46.5 "/>
<text text-anchor="middle" x="136" y="-31.3" font-family="Times New Roman,serif" font-size="14.00">0:0 &#45; 0:0</text>
</g>
<!-- n5&#45;&gt;x1 -->
<g id="edge8" class="edge">
<title>n5:e&#45;&gt;x1:w</title>
<path fill="none" stroke="black" d="M54,-261C152.45,-261 6.38,-51.46 86.68,-35.91"/>
<polygon fill="black" stroke="black" points="87.35,-39.37 97,-35 86.73,-32.39 87.35,-39.37"/>
</g>
<!-- n5&#45;&gt;x1 -->
<g id="edge9" class="edge">
<title>n5:e&#45;&gt;x1:w</title>
<path fill="none" stroke="black" d="M54,-261C69.29,-261 75.33,-263.54 86.86,-264.57"/>
<polygon fill="black" stroke="black" points="86.86,-268.07 97,-265 87.16,-261.08 86.86,-268.07"/>
</g>
<!-- n5&#45;&gt;x1 -->
<g id="edge10" class="edge">
<title>n5:e&#45;&gt;x1:w</title>
<path fill="none" stroke="black" d="M54,-261C106.28,-261 49.91,-363.85 86.91,-378.32"/>
<polygon fill="black" stroke="black" points="86.56,-381.81 97,-380 87.71,-374.9 86.56,-381.81"/>
</g>
<!-- n5&#45;&gt;x1 -->
<g id="edge11" class="edge">
<title>n5:e&#45;&gt;x1:w</title>
<path fill="none" stroke="black" d="M54,-261C156.02,-261 2.77,-478.84 86.84,-494.15"/>
<polygon fill="black" stroke="black" points="86.74,-497.66 97,-495 87.33,-490.68 86.74,-497.66"/>
</g>
<!-- n5&#45;&gt;x1 -->
<g id="edge12" class="edge">
<title>n5:e&#45;&gt;x1:w</title>
<path fill="none" stroke="black" d="M54,-261C102.98,-261 52.78,-165.87 87.04,-151.74"/>
<polygon fill="black" stroke="black" points="87.75,-155.17 97,-150 86.55,-148.28 87.75,-155.17"/>
</g>
<!-- n6 -->
<g id="node5" class="node">
<title>n6</title>
<polygon fill="none" stroke="black" points="54,-307.54 54,-322.46 38.18,-333 15.82,-333 0,-322.46 0,-307.54 15.82,-297 38.18,-297 54,-307.54"/>
<text text-anchor="middle" x="27" y="-311.3" font-family="Times New Roman,serif" font-size="14.00">d</text>
</g>
<!-- n6&#45;&gt;x0 -->
<g id="edge13" class="edge">
<title>n6:e&#45;&gt;x0:w</title>
<path fill="none" stroke="black" d="M54,-315C125.49,-315 25.84,-618.64 79.95,-649.48"/>
<polygon fill="black" stroke="black" points="79.45,-652.96 90,-652 81.15,-646.17 79.45,-652.96"/>
</g>
<!-- n6&#45;&gt;x1 -->
<g id="edge14" class="edge">
<title>n6:e&#45;&gt;x1:w</title>
<path fill="none" stroke="black" d="M54,-315C166.19,-315 -7.32,-73.81 87.02,-58.74"/>
<polygon fill="black" stroke="black" points="87.28,-62.23 97,-58 86.77,-55.25 87.28,-62.23"/>
</g>
<!-- n6&#45;&gt;x1 -->
<g id="edge15" class="edge">
<title>n6:e&#45;&gt;x1:w</title>
<path fill="none" stroke="black" d="M54,-315C72.51,-315 74.4,-296.83 86.94,-290.3"/>
<polygon fill="black" stroke="black" points="88.03,-293.64 97,-288 86.47,-286.82 88.03,-293.64"/>
</g>
<!-- n6&#45;&gt;x1 -->
<g id="edge16" class="edge">
<title>n6:e&#45;&gt;x1:w</title>
<path fill="none" stroke="black" d="M54,-315C93.45,-315 60.96,-387.27 86.92,-400.82"/>
<polygon fill="black" stroke="black" points="86.49,-404.31 97,-403 87.96,-397.47 86.49,-404.31"/>
</g>
<!-- n6&#45;&gt;x1 -->
<g id="edge17" class="edge">
<title>n6:e&#45;&gt;x1:w</title>
<path fill="none" stroke="black" d="M54,-315C142.44,-315 15.99,-501.69 86.8,-517"/>
<polygon fill="black" stroke="black" points="86.71,-520.51 97,-518 87.39,-513.54 86.71,-520.51"/>
</g>
<!-- n6&#45;&gt;x1 -->
<g id="edge18" class="edge">
<title>n6:e&#45;&gt;x1:w</title>
<path fill="none" stroke="black" d="M54,-315C116.08,-315 40.94,-189.15 86.94,-174.41"/>
<polygon fill="black" stroke="black" points="87.58,-177.85 97,-173 86.61,-170.92 87.58,-177.85"/>
</g>
<!-- n7 -->
<g id="node6" class="node">
<title>n7</title>
<polygon fill="none" stroke="black" points="54,-361.54 54,-376.46 38.18,-387 15.82,-387 0,-376.46 0,-361.54 15.82,-351 38.18,-351 54,-361.54"/>
<text text-anchor="middle" x="27" y="-365.3" font-family="Times New Roman,serif" font-size="14.00">c</text>
</g>
<!-- n7&#45;&gt;x0 -->
<g id="edge19" class="edge">
<title>n7:e&#45;&gt;x0:w</title>
<path fill="none" stroke="black" d="M54,-369C118.72,-369 32.06,-642.45 80.23,-672.35"/>
<polygon fill="black" stroke="black" points="79.43,-675.76 90,-675 81.26,-669.01 79.43,-675.76"/>
</g>
<!-- n7&#45;&gt;x1 -->
<g id="edge20" class="edge">
<title>n7:e&#45;&gt;x1:w</title>
<path fill="none" stroke="black" d="M54,-369C82.08,-369 69.37,-324.59 87.26,-313.49"/>
<polygon fill="black" stroke="black" points="88.18,-316.87 97,-311 86.44,-310.09 88.18,-316.87"/>
</g>
<!-- n7&#45;&gt;x1 -->
<g id="edge21" class="edge">
<title>n7:e&#45;&gt;x1:w</title>
<path fill="none" stroke="black" d="M54,-369C81.52,-369 69.78,-411.86 86.87,-423.25"/>
<polygon fill="black" stroke="black" points="86.43,-426.76 97,-426 88.27,-420 86.43,-426.76"/>
</g>
<!-- n7&#45;&gt;x1 -->
<g id="edge22" class="edge">
<title>n7:e&#45;&gt;x1:w</title>
<path fill="none" stroke="black" d="M54,-369C114.92,-369 41.9,-113.76 87.12,-83.85"/>
<polygon fill="black" stroke="black" points="88.36,-87.14 97,-81 86.42,-80.41 88.36,-87.14"/>
</g>
<!-- n7&#45;&gt;x1 -->
<g id="edge23" class="edge">
<title>n7:e&#45;&gt;x1:w</title>
<path fill="none" stroke="black" d="M54,-369C128.95,-369 28.93,-524.61 86.8,-539.81"/>
<polygon fill="black" stroke="black" points="86.66,-543.32 97,-541 87.47,-536.36 86.66,-543.32"/>
</g>
<!-- n7&#45;&gt;x1 -->
<g id="edge24" class="edge">
<title>n7:e&#45;&gt;x1:w</title>
<path fill="none" stroke="black" d="M54,-369C129.36,-369 28.58,-212.48 86.74,-197.2"/>
<polygon fill="black" stroke="black" points="87.47,-200.64 97,-196 86.66,-193.68 87.47,-200.64"/>
</g>
<!-- n8 -->
<g id="node7" class="node">
<title>n8</title>
<polygon fill="none" stroke="black" points="54,-415.54 54,-430.46 38.18,-441 15.82,-441 0,-430.46 0,-415.54 15.82,-405 38.18,-405 54,-415.54"/>
<text text-anchor="middle" x="27" y="-419.3" font-family="Times New Roman,serif" font-size="14.00">b</text>
</g>
<!-- n8&#45;&gt;x0 -->
<g id="edge25" class="edge">
<title>n8:e&#45;&gt;x0:w</title>
<path fill="none" stroke="black" d="M54,-423C111.9,-423 38.39,-665.71 80.38,-695.1"/>
<polygon fill="black" stroke="black" points="79.42,-698.46 90,-698 81.44,-691.76 79.42,-698.46"/>
</g>
<!-- n8&#45;&gt;x1 -->
<g id="edge26" class="edge">
<title>n8:e&#45;&gt;x1:w</title>
<path fill="none" stroke="black" d="M54,-423C93.98,-423 60.41,-349.27 87.18,-336.03"/>
<polygon fill="black" stroke="black" points="87.91,-339.45 97,-334 86.5,-332.59 87.91,-339.45"/>
</g>
<!-- n8&#45;&gt;x1 -->
<g id="edge27" class="edge">
<title>n8:e&#45;&gt;x1:w</title>
<path fill="none" stroke="black" d="M54,-423C72.32,-423 74.49,-440.5 87.01,-446.78"/>
<polygon fill="black" stroke="black" points="86.48,-450.25 97,-449 88,-443.42 86.48,-450.25"/>
</g>
<!-- n8&#45;&gt;x1 -->
<g id="edge28" class="edge">
<title>n8:e&#45;&gt;x1:w</title>
<path fill="none" stroke="black" d="M54,-423C115.68,-423 41.27,-547.96 87,-562.6"/>
<polygon fill="black" stroke="black" points="86.61,-566.08 97,-564 87.58,-559.15 86.61,-566.08"/>
</g>
<!-- n8&#45;&gt;x1 -->
<g id="edge29" class="edge">
<title>n8:e&#45;&gt;x1:w</title>
<path fill="none" stroke="black" d="M54,-423C121.76,-423 35.55,-136.76 87.06,-106.57"/>
<polygon fill="black" stroke="black" points="88.19,-109.89 97,-104 86.44,-103.11 88.19,-109.89"/>
</g>
<!-- n8&#45;&gt;x1 -->
<g id="edge30" class="edge">
<title>n8:e&#45;&gt;x1:w</title>
<path fill="none" stroke="black" d="M54,-423C142.86,-423 15.62,-235.39 86.75,-220"/>
<polygon fill="black" stroke="black" points="87.39,-223.46 97,-219 86.71,-216.49 87.39,-223.46"/>
</g>
<!-- n9 -->
<g id="node8" class="node">
<title>n9</title>
<polygon fill="none" stroke="black" points="54,-469.54 54,-484.46 38.18,-495 15.82,-495 0,-484.46 0,-469.54 15.82,-459 38.18,-459 54,-469.54"/>
<text text-anchor="middle" x="27" y="-473.3" font-family="Times New Roman,serif" font-size="14.00">a</text>
</g>
<!-- n9&#45;&gt;x0 -->
<g id="edge31" class="edge">
<title>n9:e&#45;&gt;x0:w</title>
<path fill="none" stroke="black" d="M54,-477C104.96,-477 44.91,-687.89 80.25,-717.55"/>
<polygon fill="black" stroke="black" points="79.41,-720.96 90,-721 81.74,-714.36 79.41,-720.96"/>
</g>
<!-- n9&#45;&gt;x1 -->
<g id="edge32" class="edge">
<title>n9:e&#45;&gt;x1:w</title>
<path fill="none" stroke="black" d="M54,-477C106.67,-477 49.61,-373.28 86.84,-358.7"/>
<polygon fill="black" stroke="black" points="87.71,-362.1 97,-357 86.56,-355.2 87.71,-362.1"/>
</g>
<!-- n9&#45;&gt;x1 -->
<g id="edge33" class="edge">
<title>n9:e&#45;&gt;x1:w</title>
<path fill="none" stroke="black" d="M54,-477C69.33,-477 75.32,-473.82 86.85,-472.54"/>
<polygon fill="black" stroke="black" points="87.2,-476.02 97,-472 86.83,-469.03 87.2,-476.02"/>
</g>
<!-- n9&#45;&gt;x1 -->
<g id="edge34" class="edge">
<title>n9:e&#45;&gt;x1:w</title>
<path fill="none" stroke="black" d="M54,-477C102.6,-477 53.08,-571.28 87.11,-585.27"/>
<polygon fill="black" stroke="black" points="86.55,-588.73 97,-587 87.75,-581.83 86.55,-588.73"/>
</g>
<!-- n9&#45;&gt;x1 -->
<g id="edge35" class="edge">
<title>n9:e&#45;&gt;x1:w</title>
<path fill="none" stroke="black" d="M54,-477C128.69,-477 28.88,-159.04 87.21,-129.24"/>
<polygon fill="black" stroke="black" points="88.03,-132.64 97,-127 86.47,-125.81 88.03,-132.64"/>
</g>
<!-- n9&#45;&gt;x1 -->
<g id="edge36" class="edge">
<title>n9:e&#45;&gt;x1:w</title>
<path fill="none" stroke="black" d="M54,-477C156.45,-477 2.39,-258.23 86.8,-242.85"/>
<polygon fill="black" stroke="black" points="87.33,-246.32 97,-242 86.74,-239.34 87.33,-246.32"/>
</g>
<!-- x2 -->
<g id="node12" class="node">
<title>x2</title>
<path fill="none" stroke="black" d="M559.84,-549C559.84,-549 529.84,-549 529.84,-549 523.84,-549 517.84,-543 517.84,-537 517.84,-537 517.84,-525 517.84,-525 517.84,-519 523.84,-513 529.84,-513 529.84,-513 559.84,-513 559.84,-513 565.84,-513 571.84,-519 571.84,-525 571.84,-525 571.84,-537 571.84,-537 571.84,-543 565.84,-549 559.84,-549"/>
<text text-anchor="middle" x="544.84" y="-527.3" font-family="Times New Roman,serif" font-size="14.00">BUF</text>
</g>
<!-- c13&#45;&gt;x2 -->
<g id="edge1" class="edge">
<title>c13:e&#45;&gt;x2:w</title>
<path fill="none" stroke="black" stroke-width="3" d="M481.84,-531C493.84,-531 499.09,-531 507.72,-531"/>
<polygon fill="black" stroke="black" stroke-width="3" points="507.84,-534.5 517.84,-531 507.84,-527.5 507.84,-534.5"/>
</g>
<!-- x0&#45;&gt;n3 -->
<g id="edge4" class="edge">
<title>x0:e&#45;&gt;n3:w</title>
<path fill="none" stroke="black" stroke-width="3" d="M182,-675C216,-675 187.71,-613.13 208.09,-599.6"/>
<polygon fill="black" stroke="black" stroke-width="3" points="209.21,-602.92 218,-597 207.44,-596.15 209.21,-602.92"/>
</g>
<!-- x1&#45;&gt;n2 -->
<g id="edge2" class="edge">
<title>x1:e&#45;&gt;n2:w</title>
<path fill="none" stroke="black" stroke-width="3" d="M175,-311C242.72,-311 156.58,-450.08 208.07,-464.75"/>
<polygon fill="black" stroke="black" stroke-width="3" points="207.64,-468.23 218,-466 208.51,-461.28 207.64,-468.23"/>
</g>
<!-- x2&#45;&gt;n4 -->
<g id="edge6" class="edge">
<title>x2:e&#45;&gt;n4:w</title>
<path fill="none" stroke="black" stroke-width="3" d="M571.84,-531C583.84,-531 589.09,-531 597.72,-531"/>
<polygon fill="black" stroke="black" stroke-width="3" points="597.84,-534.5 607.84,-531 597.84,-527.5 597.84,-534.5"/>
</g>
</g>
</svg>
