<svg xmlns="http://www.w3.org/2000/svg" xmlns:xlink="http://www.w3.org/1999/xlink" xmlns:s="https://github.com/nturley/netlistsvg" width="355" height="806">
  <style>svg {
    stroke:#000;
    fill:none;
  }
  text {
    fill:#000;
    stroke:none;
    font-size:10px;
    font-weight: bold;
    font-family: "Courier New", monospace;
  }
  .nodelabel {
    text-anchor: middle;
  }
  .inputPortLabel {
    text-anchor: end;
  }
  .splitjoinBody {
    fill:#000;
  }</style>
  <g s:type="not" transform="translate(193,702)" s:width="30" s:height="20" id="cell_$not$top_module.v:21$2">
    <s:alias val="$_NOT_"/>
    <s:alias val="$not"/>
    <s:alias val="$logic_not"/>
    <path d="M0,0 L0,20 L20,10 Z" class="cell_$not$top_module.v:21$2"/>
    <circle cx="23" cy="10" r="3" class="cell_$not$top_module.v:21$2"/>
    <g s:x="0" s:y="10" s:pid="A"/>
    <g s:x="25" s:y="10" s:pid="Y"/>
  </g>
  <g s:type="not" transform="translate(193,570)" s:width="30" s:height="20" id="cell_$not$top_module.v:22$4">
    <s:alias val="$_NOT_"/>
    <s:alias val="$not"/>
    <s:alias val="$logic_not"/>
    <path d="M0,0 L0,20 L20,10 Z" class="cell_$not$top_module.v:22$4"/>
    <circle cx="23" cy="10" r="3" class="cell_$not$top_module.v:22$4"/>
    <g s:x="0" s:y="10" s:pid="A"/>
    <g s:x="25" s:y="10" s:pid="Y"/>
  </g>
  <g s:type="not" transform="translate(193,291)" s:width="30" s:height="20" id="cell_$not$top_module.v:23$6">
    <s:alias val="$_NOT_"/>
    <s:alias val="$not"/>
    <s:alias val="$logic_not"/>
    <path d="M0,0 L0,20 L20,10 Z" class="cell_$not$top_module.v:23$6"/>
    <circle cx="23" cy="10" r="3" class="cell_$not$top_module.v:23$6"/>
    <g s:x="0" s:y="10" s:pid="A"/>
    <g s:x="25" s:y="10" s:pid="Y"/>
  </g>
  <g s:type="not" transform="translate(193,174)" s:width="30" s:height="20" id="cell_$not$top_module.v:24$8">
    <s:alias val="$_NOT_"/>
    <s:alias val="$not"/>
    <s:alias val="$logic_not"/>
    <path d="M0,0 L0,20 L20,10 Z" class="cell_$not$top_module.v:24$8"/>
    <circle cx="23" cy="10" r="3" class="cell_$not$top_module.v:24$8"/>
    <g s:x="0" s:y="10" s:pid="A"/>
    <g s:x="25" s:y="10" s:pid="Y"/>
  </g>
  <g s:type="not" transform="translate(193,42)" s:width="30" s:height="20" id="cell_$not$top_module.v:25$10">
    <s:alias val="$_NOT_"/>
    <s:alias val="$not"/>
    <s:alias val="$logic_not"/>
    <path d="M0,0 L0,20 L20,10 Z" class="cell_$not$top_module.v:25$10"/>
    <circle cx="23" cy="10" r="3" class="cell_$not$top_module.v:25$10"/>
    <g s:x="0" s:y="10" s:pid="A"/>
    <g s:x="25" s:y="10" s:pid="Y"/>
  </g>
  <g s:type="reduce_xor" transform="translate(125,699.5)" s:width="33" s:height="25" id="cell_$xor$top_module.v:21$1">
    <s:alias val="$xor"/>
    <s:alias val="$reduce_xor"/>
    <s:alias val="$_XOR_"/>
    <path d="M3,0 A30 25 0 0 1 3,25 A30 25 0 0 0 33,12.5 A30 25 0 0 0 3,0" class="cell_$xor$top_module.v:21$1"/>
    <path d="M0,0 A30 25 0 0 1 0,25" class="cell_$xor$top_module.v:21$1"/>
    <g s:x="3" s:y="5" s:pid="A"/>
    <g s:x="3" s:y="20" s:pid="B"/>
    <g s:x="33" s:y="12.5" s:pid="Y"/>
  </g>
  <g s:type="reduce_xor" transform="translate(125,567.5)" s:width="33" s:height="25" id="cell_$xor$top_module.v:22$3">
    <s:alias val="$xor"/>
    <s:alias val="$reduce_xor"/>
    <s:alias val="$_XOR_"/>
    <path d="M3,0 A30 25 0 0 1 3,25 A30 25 0 0 0 33,12.5 A30 25 0 0 0 3,0" class="cell_$xor$top_module.v:22$3"/>
    <path d="M0,0 A30 25 0 0 1 0,25" class="cell_$xor$top_module.v:22$3"/>
    <g s:x="3" s:y="5" s:pid="A"/>
    <g s:x="3" s:y="20" s:pid="B"/>
    <g s:x="33" s:y="12.5" s:pid="Y"/>
  </g>
  <g s:type="reduce_xor" transform="translate(125,288.5)" s:width="33" s:height="25" id="cell_$xor$top_module.v:23$5">
    <s:alias val="$xor"/>
    <s:alias val="$reduce_xor"/>
    <s:alias val="$_XOR_"/>
    <path d="M3,0 A30 25 0 0 1 3,25 A30 25 0 0 0 33,12.5 A30 25 0 0 0 3,0" class="cell_$xor$top_module.v:23$5"/>
    <path d="M0,0 A30 25 0 0 1 0,25" class="cell_$xor$top_module.v:23$5"/>
    <g s:x="3" s:y="5" s:pid="A"/>
    <g s:x="3" s:y="20" s:pid="B"/>
    <g s:x="33" s:y="12.5" s:pid="Y"/>
  </g>
  <g s:type="reduce_xor" transform="translate(125,171.5)" s:width="33" s:height="25" id="cell_$xor$top_module.v:24$7">
    <s:alias val="$xor"/>
    <s:alias val="$reduce_xor"/>
    <s:alias val="$_XOR_"/>
    <path d="M3,0 A30 25 0 0 1 3,25 A30 25 0 0 0 33,12.5 A30 25 0 0 0 3,0" class="cell_$xor$top_module.v:24$7"/>
    <path d="M0,0 A30 25 0 0 1 0,25" class="cell_$xor$top_module.v:24$7"/>
    <g s:x="3" s:y="5" s:pid="A"/>
    <g s:x="3" s:y="20" s:pid="B"/>
    <g s:x="33" s:y="12.5" s:pid="Y"/>
  </g>
  <g s:type="reduce_xor" transform="translate(125,39.5)" s:width="33" s:height="25" id="cell_$xor$top_module.v:25$9">
    <s:alias val="$xor"/>
    <s:alias val="$reduce_xor"/>
    <s:alias val="$_XOR_"/>
    <path d="M3,0 A30 25 0 0 1 3,25 A30 25 0 0 0 33,12.5 A30 25 0 0 0 3,0" class="cell_$xor$top_module.v:25$9"/>
    <path d="M0,0 A30 25 0 0 1 0,25" class="cell_$xor$top_module.v:25$9"/>
    <g s:x="3" s:y="5" s:pid="A"/>
    <g s:x="3" s:y="20" s:pid="B"/>
    <g s:x="33" s:y="12.5" s:pid="Y"/>
  </g>
  <g s:type="inputExt" transform="translate(12,744.5)" s:width="30" s:height="20" id="cell_a">
    <text x="15" y="-4" class="nodelabel cell_a" s:attribute="ref">a</text>
    <s:alias val="$_inputExt_"/>
    <path d="M0,0 L0,20 L15,20 L30,10 L15,0 Z" class="cell_a"/>
    <g s:x="28" s:y="10" s:pid="Y"/>
  </g>
  <g s:type="inputExt" transform="translate(12,612.5)" s:width="30" s:height="20" id="cell_b">
    <text x="15" y="-4" class="nodelabel cell_b" s:attribute="ref">b</text>
    <s:alias val="$_inputExt_"/>
    <path d="M0,0 L0,20 L15,20 L30,10 L15,0 Z" class="cell_b"/>
    <g s:x="28" s:y="10" s:pid="Y"/>
  </g>
  <g s:type="inputExt" transform="translate(12,480.5)" s:width="30" s:height="20" id="cell_c">
    <text x="15" y="-4" class="nodelabel cell_c" s:attribute="ref">c</text>
    <s:alias val="$_inputExt_"/>
    <path d="M0,0 L0,20 L15,20 L30,10 L15,0 Z" class="cell_c"/>
    <g s:x="28" s:y="10" s:pid="Y"/>
  </g>
  <g s:type="inputExt" transform="translate(12,216.5)" s:width="30" s:height="20" id="cell_d">
    <text x="15" y="-4" class="nodelabel cell_d" s:attribute="ref">d</text>
    <s:alias val="$_inputExt_"/>
    <path d="M0,0 L0,20 L15,20 L30,10 L15,0 Z" class="cell_d"/>
    <g s:x="28" s:y="10" s:pid="Y"/>
  </g>
  <g s:type="inputExt" transform="translate(12,84.5)" s:width="30" s:height="20" id="cell_e">
    <text x="15" y="-4" class="nodelabel cell_e" s:attribute="ref">e</text>
    <s:alias val="$_inputExt_"/>
    <path d="M0,0 L0,20 L15,20 L30,10 L15,0 Z" class="cell_e"/>
    <g s:x="28" s:y="10" s:pid="Y"/>
  </g>
  <g s:type="outputExt" transform="translate(313,164)" s:width="30" s:height="20" id="cell_out">
    <text x="15" y="-4" class="nodelabel cell_out" s:attribute="ref">out</text>
    <s:alias val="$_outputExt_"/>
    <path d="M30,0 L30,20 L15,20 L0,10 L15,0 Z" class="cell_out"/>
    <g s:x="0" s:y="10" s:pid="A"/>
  </g>
  <g s:type="join" transform="translate(82,684)" s:width="4" s:height="40" id="cell_$join$,2,2,2,2,2,">
    <rect width="5" height="100" class="splitjoinBody" s:generic="body"/>
    <s:alias val="$_join_"/>
    <g s:x="5" s:y="20" s:pid="out"/>
    <g transform="translate(0,10)" s:x="0" s:y="10" s:pid="in0">
      <text x="-3" y="-4" class="inputPortLabel">0</text>
    </g>
    <g transform="translate(0,30)" s:x="0" s:y="10" s:pid="in0">
      <text x="-3" y="-4" class="inputPortLabel">1</text>
    </g>
    <g transform="translate(0,50)" s:x="0" s:y="10" s:pid="in0">
      <text x="-3" y="-4" class="inputPortLabel">2</text>
    </g>
    <g transform="translate(0,70)" s:x="0" s:y="10" s:pid="in0">
      <text x="-3" y="-4" class="inputPortLabel">3</text>
    </g>
    <g transform="translate(0,90)" s:x="0" s:y="10" s:pid="in0">
      <text x="-3" y="-4" class="inputPortLabel">4</text>
    </g>
  </g>
  <g s:type="join" transform="translate(82,288)" s:width="4" s:height="40" id="cell_$join$,6,5,4,3,2,">
    <rect width="5" height="100" class="splitjoinBody" s:generic="body"/>
    <s:alias val="$_join_"/>
    <g s:x="5" s:y="20" s:pid="out"/>
    <g transform="translate(0,10)" s:x="0" s:y="10" s:pid="in0">
      <text x="-3" y="-4" class="inputPortLabel">0</text>
    </g>
    <g transform="translate(0,30)" s:x="0" s:y="10" s:pid="in0">
      <text x="-3" y="-4" class="inputPortLabel">1</text>
    </g>
    <g transform="translate(0,50)" s:x="0" s:y="10" s:pid="in0">
      <text x="-3" y="-4" class="inputPortLabel">2</text>
    </g>
    <g transform="translate(0,70)" s:x="0" s:y="10" s:pid="in0">
      <text x="-3" y="-4" class="inputPortLabel">3</text>
    </g>
    <g transform="translate(0,90)" s:x="0" s:y="10" s:pid="in0">
      <text x="-3" y="-4" class="inputPortLabel">4</text>
    </g>
  </g>
  <g s:type="join" transform="translate(82,552)" s:width="4" s:height="40" id="cell_$join$,3,3,3,3,3,">
    <rect width="5" height="100" class="splitjoinBody" s:generic="body"/>
    <s:alias val="$_join_"/>
    <g s:x="5" s:y="20" s:pid="out"/>
    <g transform="translate(0,10)" s:x="0" s:y="10" s:pid="in0">
      <text x="-3" y="-4" class="inputPortLabel">0</text>
    </g>
    <g transform="translate(0,30)" s:x="0" s:y="10" s:pid="in0">
      <text x="-3" y="-4" class="inputPortLabel">1</text>
    </g>
    <g transform="translate(0,50)" s:x="0" s:y="10" s:pid="in0">
      <text x="-3" y="-4" class="inputPortLabel">2</text>
    </g>
    <g transform="translate(0,70)" s:x="0" s:y="10" s:pid="in0">
      <text x="-3" y="-4" class="inputPortLabel">3</text>
    </g>
    <g transform="translate(0,90)" s:x="0" s:y="10" s:pid="in0">
      <text x="-3" y="-4" class="inputPortLabel">4</text>
    </g>
  </g>
  <g s:type="join" transform="translate(82,420)" s:width="4" s:height="40" id="cell_$join$,4,4,4,4,4,">
    <rect width="5" height="100" class="splitjoinBody" s:generic="body"/>
    <s:alias val="$_join_"/>
    <g s:x="5" s:y="20" s:pid="out"/>
    <g transform="translate(0,10)" s:x="0" s:y="10" s:pid="in0">
      <text x="-3" y="-4" class="inputPortLabel">0</text>
    </g>
    <g transform="translate(0,30)" s:x="0" s:y="10" s:pid="in0">
      <text x="-3" y="-4" class="inputPortLabel">1</text>
    </g>
    <g transform="translate(0,50)" s:x="0" s:y="10" s:pid="in0">
      <text x="-3" y="-4" class="inputPortLabel">2</text>
    </g>
    <g transform="translate(0,70)" s:x="0" s:y="10" s:pid="in0">
      <text x="-3" y="-4" class="inputPortLabel">3</text>
    </g>
    <g transform="translate(0,90)" s:x="0" s:y="10" s:pid="in0">
      <text x="-3" y="-4" class="inputPortLabel">4</text>
    </g>
  </g>
  <g s:type="join" transform="translate(82,156)" s:width="4" s:height="40" id="cell_$join$,5,5,5,5,5,">
    <rect width="5" height="100" class="splitjoinBody" s:generic="body"/>
    <s:alias val="$_join_"/>
    <g s:x="5" s:y="20" s:pid="out"/>
    <g transform="translate(0,10)" s:x="0" s:y="10" s:pid="in0">
      <text x="-3" y="-4" class="inputPortLabel">0</text>
    </g>
    <g transform="translate(0,30)" s:x="0" s:y="10" s:pid="in0">
      <text x="-3" y="-4" class="inputPortLabel">1</text>
    </g>
    <g transform="translate(0,50)" s:x="0" s:y="10" s:pid="in0">
      <text x="-3" y="-4" class="inputPortLabel">2</text>
    </g>
    <g transform="translate(0,70)" s:x="0" s:y="10" s:pid="in0">
      <text x="-3" y="-4" class="inputPortLabel">3</text>
    </g>
    <g transform="translate(0,90)" s:x="0" s:y="10" s:pid="in0">
      <text x="-3" y="-4" class="inputPortLabel">4</text>
    </g>
  </g>
  <g s:type="join" transform="translate(82,24)" s:width="4" s:height="40" id="cell_$join$,6,6,6,6,6,">
    <rect width="5" height="100" class="splitjoinBody" s:generic="body"/>
    <s:alias val="$_join_"/>
    <g s:x="5" s:y="20" s:pid="out"/>
    <g transform="translate(0,10)" s:x="0" s:y="10" s:pid="in0">
      <text x="-3" y="-4" class="inputPortLabel">0</text>
    </g>
    <g transform="translate(0,30)" s:x="0" s:y="10" s:pid="in0">
      <text x="-3" y="-4" class="inputPortLabel">1</text>
    </g>
    <g transform="translate(0,50)" s:x="0" s:y="10" s:pid="in0">
      <text x="-3" y="-4" class="inputPortLabel">2</text>
    </g>
    <g transform="translate(0,70)" s:x="0" s:y="10" s:pid="in0">
      <text x="-3" y="-4" class="inputPortLabel">3</text>
    </g>
    <g transform="translate(0,90)" s:x="0" s:y="10" s:pid="in0">
      <text x="-3" y="-4" class="inputPortLabel">4</text>
    </g>
  </g>
  <g s:type="join" transform="translate(258,153.5)" s:width="4" s:height="40" id="cell_$join$,7,8,9,10,11,12,13,14,15,16,17,18,19,20,21,22,23,24,25,26,27,28,29,30,31,">
    <rect width="5" height="100" class="splitjoinBody" s:generic="body"/>
    <s:alias val="$_join_"/>
    <g s:x="5" s:y="20" s:pid="out"/>
    <g transform="translate(0,10)" s:x="0" s:y="10" s:pid="in0">
      <text x="-3" y="-4" class="inputPortLabel">0:4</text>
    </g>
    <g transform="translate(0,30)" s:x="0" s:y="10" s:pid="in0">
      <text x="-3" y="-4" class="inputPortLabel">5:9</text>
    </g>
    <g transform="translate(0,50)" s:x="0" s:y="10" s:pid="in0">
      <text x="-3" y="-4" class="inputPortLabel">10:14</text>
    </g>
    <g transform="translate(0,70)" s:x="0" s:y="10" s:pid="in0">
      <text x="-3" y="-4" class="inputPortLabel">15:19</text>
    </g>
    <g transform="translate(0,90)" s:x="0" s:y="10" s:pid="in0">
      <text x="-3" y="-4" class="inputPortLabel">20:24</text>
    </g>
  </g>
  <line x1="158" x2="193" y1="712" y2="712" class="net_32,33,34,35,36"/>
  <line x1="158" x2="193" y1="580" y2="580" class="net_37,38,39,40,41"/>
  <line x1="158" x2="193" y1="301" y2="301" class="net_42,43,44,45,46"/>
  <line x1="158" x2="193" y1="184" y2="184" class="net_47,48,49,50,51"/>
  <line x1="158" x2="193" y1="52" y2="52" class="net_52,53,54,55,56"/>
  <line x1="88" x2="128" y1="704.5" y2="704.5" class="net_2,2,2,2,2"/>
  <line x1="88" x2="110" y1="308.5" y2="308.5" class="net_6,5,4,3,2"/>
  <line x1="110" x2="110" y1="308.5" y2="719.5" class="net_6,5,4,3,2"/>
  <circle cx="110" cy="308.5" r="2" style="fill:#000" class="net_6,5,4,3,2"/>
  <line x1="110" x2="128" y1="719.5" y2="719.5" class="net_6,5,4,3,2"/>
  <line x1="88" x2="110" y1="308.5" y2="308.5" class="net_6,5,4,3,2"/>
  <line x1="110" x2="110" y1="308.5" y2="587.5" class="net_6,5,4,3,2"/>
  <circle cx="110" cy="587.5" r="2" style="fill:#000" class="net_6,5,4,3,2"/>
  <line x1="110" x2="128" y1="587.5" y2="587.5" class="net_6,5,4,3,2"/>
  <line x1="88" x2="128" y1="308.5" y2="308.5" class="net_6,5,4,3,2"/>
  <line x1="88" x2="110" y1="308.5" y2="308.5" class="net_6,5,4,3,2"/>
  <line x1="110" x2="110" y1="308.5" y2="191.5" class="net_6,5,4,3,2"/>
  <circle cx="110" cy="191.5" r="2" style="fill:#000" class="net_6,5,4,3,2"/>
  <line x1="110" x2="128" y1="191.5" y2="191.5" class="net_6,5,4,3,2"/>
  <line x1="88" x2="110" y1="308.5" y2="308.5" class="net_6,5,4,3,2"/>
  <line x1="110" x2="110" y1="308.5" y2="59.5" class="net_6,5,4,3,2"/>
  <line x1="110" x2="128" y1="59.5" y2="59.5" class="net_6,5,4,3,2"/>
  <line x1="88" x2="128" y1="572.5" y2="572.5" class="net_3,3,3,3,3"/>
  <line x1="88" x2="100" y1="440.5" y2="440.5" class="net_4,4,4,4,4"/>
  <line x1="100" x2="100" y1="440.5" y2="293.5" class="net_4,4,4,4,4"/>
  <line x1="100" x2="128" y1="293.5" y2="293.5" class="net_4,4,4,4,4"/>
  <line x1="88" x2="128" y1="176.5" y2="176.5" class="net_5,5,5,5,5"/>
  <line x1="88" x2="128" y1="44.5" y2="44.5" class="net_6,6,6,6,6"/>
  <line x1="264" x2="313" y1="174" y2="174" class="net_7,8,9,10,11,12,13,14,15,16,17,18,19,20,21,22,23,24,25,26,27,28,29,30,31"/>
  <line x1="40" x2="52" y1="754.5" y2="754.5" class="net_2"/>
  <line x1="52" x2="52" y1="754.5" y2="672" class="net_2"/>
  <line x1="52" x2="82.5" y1="672" y2="672" class="net_2"/>
  <circle cx="52" cy="754.5" r="2" style="fill:#000" class="net_2"/>
  <circle cx="52" cy="672" r="2" style="fill:#000" class="net_2"/>
  <line x1="82.5" x2="82.5" y1="672" y2="694" class="net_2"/>
  <line x1="40" x2="52" y1="754.5" y2="754.5" class="net_2"/>
  <line x1="52" x2="52" y1="754.5" y2="714.5" class="net_2"/>
  <circle cx="52" cy="714.5" r="2" style="fill:#000" class="net_2"/>
  <line x1="52" x2="82" y1="714.5" y2="714.5" class="net_2"/>
  <line x1="40" x2="52" y1="754.5" y2="754.5" class="net_2"/>
  <line x1="52" x2="52" y1="754.5" y2="734.5" class="net_2"/>
  <circle cx="52" cy="734.5" r="2" style="fill:#000" class="net_2"/>
  <line x1="52" x2="82" y1="734.5" y2="734.5" class="net_2"/>
  <line x1="40" x2="82" y1="754.5" y2="754.5" class="net_2"/>
  <line x1="40" x2="52" y1="754.5" y2="754.5" class="net_2"/>
  <line x1="52" x2="52" y1="754.5" y2="794" class="net_2"/>
  <line x1="52" x2="82.5" y1="794" y2="794" class="net_2"/>
  <line x1="82.5" x2="82.5" y1="794" y2="775" class="net_2"/>
  <line x1="40" x2="52" y1="754.5" y2="754.5" class="net_2"/>
  <line x1="52" x2="52" y1="754.5" y2="398" class="net_2"/>
  <line x1="52" x2="82.5" y1="398" y2="398" class="net_2"/>
  <line x1="82.5" x2="82.5" y1="398" y2="379" class="net_2"/>
  <line x1="40" x2="52" y1="94.5" y2="94.5" class="net_6"/>
  <line x1="52" x2="52" y1="94.5" y2="276" class="net_6"/>
  <line x1="52" x2="82.5" y1="276" y2="276" class="net_6"/>
  <circle cx="52" cy="94.5" r="2" style="fill:#000" class="net_6"/>
  <line x1="82.5" x2="82.5" y1="276" y2="298" class="net_6"/>
  <line x1="40" x2="52" y1="94.5" y2="94.5" class="net_6"/>
  <line x1="52" x2="52" y1="94.5" y2="12" class="net_6"/>
  <line x1="52" x2="82.5" y1="12" y2="12" class="net_6"/>
  <line x1="82.5" x2="82.5" y1="12" y2="34" class="net_6"/>
  <line x1="40" x2="52" y1="94.5" y2="94.5" class="net_6"/>
  <line x1="52" x2="52" y1="94.5" y2="54.5" class="net_6"/>
  <circle cx="52" cy="54.5" r="2" style="fill:#000" class="net_6"/>
  <line x1="52" x2="82" y1="54.5" y2="54.5" class="net_6"/>
  <line x1="40" x2="52" y1="94.5" y2="94.5" class="net_6"/>
  <line x1="52" x2="52" y1="94.5" y2="74.5" class="net_6"/>
  <circle cx="52" cy="74.5" r="2" style="fill:#000" class="net_6"/>
  <line x1="52" x2="82" y1="74.5" y2="74.5" class="net_6"/>
  <line x1="40" x2="82" y1="94.5" y2="94.5" class="net_6"/>
  <line x1="40" x2="52" y1="94.5" y2="94.5" class="net_6"/>
  <line x1="52" x2="52" y1="94.5" y2="134" class="net_6"/>
  <line x1="52" x2="82.5" y1="134" y2="134" class="net_6"/>
  <circle cx="52" cy="134" r="2" style="fill:#000" class="net_6"/>
  <line x1="82.5" x2="82.5" y1="134" y2="115" class="net_6"/>
  <line x1="40" x2="62" y1="226.5" y2="226.5" class="net_5"/>
  <line x1="62" x2="62" y1="226.5" y2="318.5" class="net_5"/>
  <circle cx="62" cy="226.5" r="2" style="fill:#000" class="net_5"/>
  <line x1="62" x2="82" y1="318.5" y2="318.5" class="net_5"/>
  <line x1="40" x2="62" y1="226.5" y2="226.5" class="net_5"/>
  <line x1="62" x2="62" y1="226.5" y2="144" class="net_5"/>
  <line x1="62" x2="82.5" y1="144" y2="144" class="net_5"/>
  <line x1="82.5" x2="82.5" y1="144" y2="166" class="net_5"/>
  <line x1="40" x2="62" y1="226.5" y2="226.5" class="net_5"/>
  <line x1="62" x2="62" y1="226.5" y2="186.5" class="net_5"/>
  <circle cx="62" cy="186.5" r="2" style="fill:#000" class="net_5"/>
  <line x1="62" x2="82" y1="186.5" y2="186.5" class="net_5"/>
  <line x1="40" x2="62" y1="226.5" y2="226.5" class="net_5"/>
  <line x1="62" x2="62" y1="226.5" y2="206.5" class="net_5"/>
  <circle cx="62" cy="206.5" r="2" style="fill:#000" class="net_5"/>
  <line x1="62" x2="82" y1="206.5" y2="206.5" class="net_5"/>
  <line x1="40" x2="82" y1="226.5" y2="226.5" class="net_5"/>
  <line x1="40" x2="62" y1="226.5" y2="226.5" class="net_5"/>
  <line x1="62" x2="62" y1="226.5" y2="266" class="net_5"/>
  <line x1="62" x2="82.5" y1="266" y2="266" class="net_5"/>
  <circle cx="62" cy="266" r="2" style="fill:#000" class="net_5"/>
  <line x1="82.5" x2="82.5" y1="266" y2="247" class="net_5"/>
  <line x1="40" x2="72" y1="490.5" y2="490.5" class="net_4"/>
  <line x1="72" x2="72" y1="490.5" y2="338.5" class="net_4"/>
  <circle cx="72" cy="490.5" r="2" style="fill:#000" class="net_4"/>
  <line x1="72" x2="82" y1="338.5" y2="338.5" class="net_4"/>
  <line x1="40" x2="72" y1="490.5" y2="490.5" class="net_4"/>
  <line x1="72" x2="72" y1="490.5" y2="408" class="net_4"/>
  <line x1="72" x2="82.5" y1="408" y2="408" class="net_4"/>
  <circle cx="72" cy="408" r="2" style="fill:#000" class="net_4"/>
  <line x1="82.5" x2="82.5" y1="408" y2="430" class="net_4"/>
  <line x1="40" x2="72" y1="490.5" y2="490.5" class="net_4"/>
  <line x1="72" x2="72" y1="490.5" y2="450.5" class="net_4"/>
  <circle cx="72" cy="450.5" r="2" style="fill:#000" class="net_4"/>
  <line x1="72" x2="82" y1="450.5" y2="450.5" class="net_4"/>
  <line x1="40" x2="72" y1="490.5" y2="490.5" class="net_4"/>
  <line x1="72" x2="72" y1="490.5" y2="470.5" class="net_4"/>
  <circle cx="72" cy="470.5" r="2" style="fill:#000" class="net_4"/>
  <line x1="72" x2="82" y1="470.5" y2="470.5" class="net_4"/>
  <line x1="40" x2="82" y1="490.5" y2="490.5" class="net_4"/>
  <line x1="40" x2="72" y1="490.5" y2="490.5" class="net_4"/>
  <line x1="72" x2="72" y1="490.5" y2="530" class="net_4"/>
  <line x1="72" x2="82.5" y1="530" y2="530" class="net_4"/>
  <line x1="82.5" x2="82.5" y1="530" y2="511" class="net_4"/>
  <line x1="40" x2="62" y1="622.5" y2="622.5" class="net_3"/>
  <line x1="62" x2="62" y1="622.5" y2="358.5" class="net_3"/>
  <circle cx="62" cy="622.5" r="2" style="fill:#000" class="net_3"/>
  <line x1="62" x2="82" y1="358.5" y2="358.5" class="net_3"/>
  <line x1="40" x2="62" y1="622.5" y2="622.5" class="net_3"/>
  <line x1="62" x2="62" y1="622.5" y2="540" class="net_3"/>
  <line x1="62" x2="82.5" y1="540" y2="540" class="net_3"/>
  <circle cx="62" cy="540" r="2" style="fill:#000" class="net_3"/>
  <line x1="82.5" x2="82.5" y1="540" y2="562" class="net_3"/>
  <line x1="40" x2="62" y1="622.5" y2="622.5" class="net_3"/>
  <line x1="62" x2="62" y1="622.5" y2="582.5" class="net_3"/>
  <circle cx="62" cy="582.5" r="2" style="fill:#000" class="net_3"/>
  <line x1="62" x2="82" y1="582.5" y2="582.5" class="net_3"/>
  <line x1="40" x2="62" y1="622.5" y2="622.5" class="net_3"/>
  <line x1="62" x2="62" y1="622.5" y2="602.5" class="net_3"/>
  <circle cx="62" cy="602.5" r="2" style="fill:#000" class="net_3"/>
  <line x1="62" x2="82" y1="602.5" y2="602.5" class="net_3"/>
  <line x1="40" x2="82" y1="622.5" y2="622.5" class="net_3"/>
  <line x1="40" x2="62" y1="622.5" y2="622.5" class="net_3"/>
  <line x1="62" x2="62" y1="622.5" y2="662" class="net_3"/>
  <line x1="62" x2="82.5" y1="662" y2="662" class="net_3"/>
  <line x1="82.5" x2="82.5" y1="662" y2="643" class="net_3"/>
  <line x1="218" x2="258.5" y1="52" y2="52" class="net_7,8,9,10,11"/>
  <line x1="258.5" x2="258.5" y1="52" y2="163.5" class="net_7,8,9,10,11"/>
  <line x1="218" x2="258" y1="184" y2="184" class="net_12,13,14,15,16"/>
  <line x1="218" x2="233" y1="301" y2="301" class="net_17,18,19,20,21"/>
  <line x1="233" x2="233" y1="301" y2="204" class="net_17,18,19,20,21"/>
  <line x1="233" x2="258" y1="204" y2="204" class="net_17,18,19,20,21"/>
  <line x1="218" x2="243" y1="580" y2="580" class="net_22,23,24,25,26"/>
  <line x1="243" x2="243" y1="580" y2="224" class="net_22,23,24,25,26"/>
  <line x1="243" x2="258" y1="224" y2="224" class="net_22,23,24,25,26"/>
  <line x1="218" x2="258.5" y1="712" y2="712" class="net_27,28,29,30,31"/>
  <line x1="258.5" x2="258.5" y1="712" y2="244.5" class="net_27,28,29,30,31"/>
</svg>
