<?xml version="1.0" encoding="UTF-8" standalone="no"?>
<!DOCTYPE svg PUBLIC "-//W3C//DTD SVG 1.1//EN"
 "http://www.w3.org/Graphics/SVG/1.1/DTD/svg11.dtd">
<!-- Generated by graphviz version 4.0.0 (20220529.0937)
 -->
<!-- Title: top_module Pages: 1 -->
<svg width="943pt" height="433pt"
 viewBox="0.00 0.00 942.64 433.00" xmlns="http://www.w3.org/2000/svg" xmlns:xlink="http://www.w3.org/1999/xlink">
<g id="graph0" class="graph" transform="scale(1 1) rotate(0) translate(4 429)">
<title>top_module</title>
<polygon fill="white" stroke="transparent" points="-4,4 -4,-429 938.64,-429 938.64,4 -4,4"/>
<text text-anchor="middle" x="467.32" y="-7.8" font-family="Times New Roman,serif" font-size="14.00">top_module</text>
<!-- n7 -->
<g id="node1" class="node">
<title>n7</title>
<polygon fill="none" stroke="black" points="55.84,-349.54 55.84,-364.46 40.03,-375 17.66,-375 1.84,-364.46 1.84,-349.54 17.66,-339 40.03,-339 55.84,-349.54"/>
<text text-anchor="middle" x="28.84" y="-353.3" font-family="Times New Roman,serif" font-size="14.00">clk</text>
</g>
<!-- c22 -->
<g id="node10" class="node">
<title>c22</title>
<polygon fill="none" stroke="black" points="94.69,-322 94.69,-368 205.69,-368 205.69,-322 94.69,-322"/>
<text text-anchor="middle" x="116.69" y="-352.8" font-family="Times New Roman,serif" font-size="14.00">CLK</text>
<polyline fill="none" stroke="black" points="94.69,-345 138.69,-345 "/>
<text text-anchor="middle" x="116.69" y="-329.8" font-family="Times New Roman,serif" font-size="14.00">D</text>
<polyline fill="none" stroke="black" points="138.69,-322 138.69,-368 "/>
<text text-anchor="middle" x="158.69" y="-348.8" font-family="Times New Roman,serif" font-size="14.00">$12</text>
<text text-anchor="middle" x="158.69" y="-333.8" font-family="Times New Roman,serif" font-size="14.00">$dff</text>
<polyline fill="none" stroke="black" points="178.69,-322 178.69,-368 "/>
<text text-anchor="middle" x="192.19" y="-341.3" font-family="Times New Roman,serif" font-size="14.00">Q</text>
</g>
<!-- n7&#45;&gt;c22 -->
<g id="edge13" class="edge">
<title>n7:e&#45;&gt;c22:w</title>
<path fill="none" stroke="#1b9e77" d="M56.84,-357C69.72,-357 75.2,-357 84.61,-357"/>
<polygon fill="#1b9e77" stroke="#1b9e77" points="84.69,-360.5 94.69,-357 84.69,-353.5 84.69,-360.5"/>
</g>
<!-- n8 -->
<g id="node2" class="node">
<title>n8</title>
<polygon fill="none" stroke="black" points="57.12,-151.54 57.12,-166.46 40.56,-177 17.13,-177 0.56,-166.46 0.56,-151.54 17.13,-141 40.56,-141 57.12,-151.54"/>
<text text-anchor="middle" x="28.84" y="-155.3" font-family="Times New Roman,serif" font-size="14.00">data</text>
</g>
<!-- c25 -->
<g id="node12" class="node">
<title>c25</title>
<polygon fill="none" stroke="black" points="494.69,-225.5 494.69,-294.5 593.69,-294.5 593.69,-225.5 494.69,-225.5"/>
<text text-anchor="middle" x="507.69" y="-279.3" font-family="Times New Roman,serif" font-size="14.00">A</text>
<polyline fill="none" stroke="black" points="494.69,-271.5 520.69,-271.5 "/>
<text text-anchor="middle" x="507.69" y="-256.3" font-family="Times New Roman,serif" font-size="14.00">B</text>
<polyline fill="none" stroke="black" points="494.69,-248.5 520.69,-248.5 "/>
<text text-anchor="middle" x="507.69" y="-233.3" font-family="Times New Roman,serif" font-size="14.00">S</text>
<polyline fill="none" stroke="black" points="520.69,-225.5 520.69,-294.5 "/>
<text text-anchor="middle" x="544.19" y="-263.8" font-family="Times New Roman,serif" font-size="14.00">$8</text>
<text text-anchor="middle" x="544.19" y="-248.8" font-family="Times New Roman,serif" font-size="14.00">$mux</text>
<polyline fill="none" stroke="black" points="567.69,-225.5 567.69,-294.5 "/>
<text text-anchor="middle" x="580.69" y="-256.3" font-family="Times New Roman,serif" font-size="14.00">Y</text>
</g>
<!-- n8&#45;&gt;c25 -->
<g id="edge14" class="edge">
<title>n8:e&#45;&gt;c25:w</title>
<path fill="none" stroke="#1b9e77" stroke-width="3" d="M57.69,-159C172.81,-159 204.44,-129.4 316.69,-155 393.63,-172.55 417.56,-179.73 476.69,-232 484.13,-238.58 483.02,-248.96 485.98,-255.06"/>
<polygon fill="#1b9e77" stroke="#1b9e77" stroke-width="3" points="484.26,-258.11 494.69,-260 487.71,-252.02 484.26,-258.11"/>
<text text-anchor="middle" x="270.19" y="-158.8" font-family="Times New Roman,serif" font-size="14.00" fill="#1b9e77">&lt;10&gt;</text>
</g>
<!-- n9 -->
<g id="node3" class="node">
<title>n9</title>
<polygon fill="none" stroke="black" points="57.53,-217.54 57.53,-232.46 40.73,-243 16.96,-243 0.16,-232.46 0.16,-217.54 16.96,-207 40.73,-207 57.53,-217.54"/>
<text text-anchor="middle" x="28.84" y="-221.3" font-family="Times New Roman,serif" font-size="14.00">load</text>
</g>
<!-- c17 -->
<g id="node8" class="node">
<title>c17</title>
<polygon fill="none" stroke="black" points="223.69,-180 223.69,-218 316.69,-218 316.69,-180 223.69,-180"/>
<text text-anchor="middle" x="236.69" y="-195.3" font-family="Times New Roman,serif" font-size="14.00">A</text>
<polyline fill="none" stroke="black" points="249.69,-180 249.69,-218 "/>
<text text-anchor="middle" x="270.19" y="-202.8" font-family="Times New Roman,serif" font-size="14.00">$3</text>
<text text-anchor="middle" x="270.19" y="-187.8" font-family="Times New Roman,serif" font-size="14.00">$not</text>
<polyline fill="none" stroke="black" points="290.69,-180 290.69,-218 "/>
<text text-anchor="middle" x="303.69" y="-195.3" font-family="Times New Roman,serif" font-size="14.00">Y</text>
</g>
<!-- n9&#45;&gt;c17 -->
<g id="edge15" class="edge">
<title>n9:e&#45;&gt;c17:w</title>
<path fill="none" stroke="#e6ab02" d="M57.69,-225C74.24,-225 177.28,-204.56 213.43,-199.93"/>
<polygon fill="#e6ab02" stroke="#e6ab02" points="214.04,-203.38 223.69,-199 213.41,-196.41 214.04,-203.38"/>
</g>
<!-- n9&#45;&gt;c25 -->
<g id="edge16" class="edge">
<title>n9:e&#45;&gt;c25:w</title>
<path fill="none" stroke="#e6ab02" d="M57.69,-225C248.57,-225 298.64,-236.58 484.57,-236.99"/>
<polygon fill="#e6ab02" stroke="#e6ab02" points="484.68,-240.49 494.69,-237 484.69,-233.49 484.68,-240.49"/>
</g>
<!-- n10 -->
<g id="node4" class="node">
<title>n10</title>
<polygon fill="none" stroke="black" points="381.19,-406 354.19,-388 381.19,-370 408.19,-388 381.19,-406"/>
<text text-anchor="middle" x="381.19" y="-384.3" font-family="Times New Roman,serif" font-size="14.00">q</text>
</g>
<!-- c16 -->
<g id="node7" class="node">
<title>c16</title>
<polygon fill="none" stroke="black" points="611.69,-378 611.69,-416 739.69,-416 739.69,-378 611.69,-378"/>
<text text-anchor="middle" x="624.69" y="-393.3" font-family="Times New Roman,serif" font-size="14.00">A</text>
<polyline fill="none" stroke="black" points="637.69,-378 637.69,-416 "/>
<text text-anchor="middle" x="675.69" y="-400.8" font-family="Times New Roman,serif" font-size="14.00">$1</text>
<text text-anchor="middle" x="675.69" y="-385.8" font-family="Times New Roman,serif" font-size="14.00">$logic_not</text>
<polyline fill="none" stroke="black" points="713.69,-378 713.69,-416 "/>
<text text-anchor="middle" x="726.69" y="-393.3" font-family="Times New Roman,serif" font-size="14.00">Y</text>
</g>
<!-- n10&#45;&gt;c16 -->
<g id="edge3" class="edge">
<title>n10:e&#45;&gt;c16:w</title>
<path fill="none" stroke="#1b9e77" stroke-width="3" d="M409.19,-388C427.9,-388 427.6,-404.17 445.69,-409 459,-412.56 462.92,-409.61 476.69,-409 533.34,-406.49 549.58,-398.07 601.55,-397.09"/>
<polygon fill="#1b9e77" stroke="#1b9e77" stroke-width="3" points="601.72,-400.59 611.69,-397 601.65,-393.59 601.72,-400.59"/>
<text text-anchor="middle" x="461.19" y="-413.8" font-family="Times New Roman,serif" font-size="14.00" fill="#1b9e77">&lt;10&gt;</text>
</g>
<!-- n10&#45;&gt;c25 -->
<g id="edge4" class="edge">
<title>n10:e&#45;&gt;c25:w</title>
<path fill="none" stroke="#1b9e77" stroke-width="3" d="M409.19,-388C439.58,-388 454.9,-398.19 476.69,-377 504.08,-350.35 462.44,-295.71 484.55,-284.89"/>
<polygon fill="#1b9e77" stroke="#1b9e77" stroke-width="3" points="485.5,-288.27 494.69,-283 484.21,-281.39 485.5,-288.27"/>
<text text-anchor="middle" x="461.19" y="-393.8" font-family="Times New Roman,serif" font-size="14.00" fill="#1b9e77">&lt;10&gt;</text>
</g>
<!-- c26 -->
<g id="node14" class="node">
<title>c26</title>
<polygon fill="none" stroke="black" points="496.19,-160 496.19,-206 592.19,-206 592.19,-160 496.19,-160"/>
<text text-anchor="middle" x="509.19" y="-190.8" font-family="Times New Roman,serif" font-size="14.00">A</text>
<polyline fill="none" stroke="black" points="496.19,-183 522.19,-183 "/>
<text text-anchor="middle" x="509.19" y="-167.8" font-family="Times New Roman,serif" font-size="14.00">B</text>
<polyline fill="none" stroke="black" points="522.19,-160 522.19,-206 "/>
<text text-anchor="middle" x="544.19" y="-186.8" font-family="Times New Roman,serif" font-size="14.00">$6</text>
<text text-anchor="middle" x="544.19" y="-171.8" font-family="Times New Roman,serif" font-size="14.00">$sub</text>
<polyline fill="none" stroke="black" points="566.19,-160 566.19,-206 "/>
<text text-anchor="middle" x="579.19" y="-179.3" font-family="Times New Roman,serif" font-size="14.00">Y</text>
</g>
<!-- n10&#45;&gt;c26 -->
<g id="edge5" class="edge">
<title>n10:e&#45;&gt;c26:w</title>
<path fill="none" stroke="#1b9e77" stroke-width="3" d="M409.19,-388C430.18,-388 428.58,-370.18 445.69,-358 458.85,-348.63 467.91,-352.57 476.69,-339 492.09,-315.19 469.79,-222 486.06,-199.78"/>
<polygon fill="#1b9e77" stroke="#1b9e77" stroke-width="3" points="487.95,-202.74 495.19,-195 484.7,-196.54 487.95,-202.74"/>
<text text-anchor="middle" x="461.19" y="-361.8" font-family="Times New Roman,serif" font-size="14.00" fill="#1b9e77">&lt;10&gt;</text>
</g>
<!-- n11 -->
<g id="node5" class="node">
<title>n11</title>
<polygon fill="none" stroke="black" points="928.69,-148.54 928.69,-163.46 912.87,-174 890.5,-174 874.69,-163.46 874.69,-148.54 890.5,-138 912.87,-138 928.69,-148.54"/>
<text text-anchor="middle" x="901.69" y="-152.3" font-family="Times New Roman,serif" font-size="14.00">tc</text>
</g>
<!-- c18 -->
<g id="node9" class="node">
<title>c18</title>
<polygon fill="none" stroke="black" points="334.69,-81 334.69,-119 427.69,-119 427.69,-81 334.69,-81"/>
<text text-anchor="middle" x="347.69" y="-96.3" font-family="Times New Roman,serif" font-size="14.00">A</text>
<polyline fill="none" stroke="black" points="360.69,-81 360.69,-119 "/>
<text text-anchor="middle" x="381.19" y="-103.8" font-family="Times New Roman,serif" font-size="14.00">$4</text>
<text text-anchor="middle" x="381.19" y="-88.8" font-family="Times New Roman,serif" font-size="14.00">$not</text>
<polyline fill="none" stroke="black" points="401.69,-81 401.69,-119 "/>
<text text-anchor="middle" x="414.69" y="-96.3" font-family="Times New Roman,serif" font-size="14.00">Y</text>
</g>
<!-- n11&#45;&gt;c18 -->
<g id="edge7" class="edge">
<title>n11:e&#45;&gt;c18:w</title>
<path fill="none" stroke="#1b9e77" d="M929.69,-156C937.7,-156 934.51,-168.49 928.69,-174 911.25,-190.49 898.18,-178.91 874.69,-174 810.59,-160.61 802.1,-134.81 739.69,-115 635.12,-81.81 603.6,-71.86 494.69,-85 472.43,-87.69 464.59,-84.94 445.69,-97 434.89,-103.89 439.23,-113.95 427.69,-119.5 390.23,-137.5 364.31,-148.12 334.19,-119.5 331.43,-116.89 329.24,-112.83 328.36,-109.09"/>
<polygon fill="#1b9e77" stroke="#1b9e77" points="331.59,-110.47 333.19,-100 325.41,-107.19 331.59,-110.47"/>
</g>
<!-- c15 -->
<g id="node6" class="node">
<title>c15</title>
<polygon fill="none" stroke="black" points="496.19,-95 496.19,-141 592.19,-141 592.19,-95 496.19,-95"/>
<text text-anchor="middle" x="509.19" y="-125.8" font-family="Times New Roman,serif" font-size="14.00">A</text>
<polyline fill="none" stroke="black" points="496.19,-118 522.19,-118 "/>
<text text-anchor="middle" x="509.19" y="-102.8" font-family="Times New Roman,serif" font-size="14.00">B</text>
<polyline fill="none" stroke="black" points="522.19,-95 522.19,-141 "/>
<text text-anchor="middle" x="544.19" y="-121.8" font-family="Times New Roman,serif" font-size="14.00">$5</text>
<text text-anchor="middle" x="544.19" y="-106.8" font-family="Times New Roman,serif" font-size="14.00">$and</text>
<polyline fill="none" stroke="black" points="566.19,-95 566.19,-141 "/>
<text text-anchor="middle" x="579.19" y="-114.3" font-family="Times New Roman,serif" font-size="14.00">Y</text>
</g>
<!-- c24 -->
<g id="node11" class="node">
<title>c24</title>
<polygon fill="none" stroke="black" points="757.69,-182.5 757.69,-251.5 856.69,-251.5 856.69,-182.5 757.69,-182.5"/>
<text text-anchor="middle" x="770.69" y="-236.3" font-family="Times New Roman,serif" font-size="14.00">A</text>
<polyline fill="none" stroke="black" points="757.69,-228.5 783.69,-228.5 "/>
<text text-anchor="middle" x="770.69" y="-213.3" font-family="Times New Roman,serif" font-size="14.00">B</text>
<polyline fill="none" stroke="black" points="757.69,-205.5 783.69,-205.5 "/>
<text text-anchor="middle" x="770.69" y="-190.3" font-family="Times New Roman,serif" font-size="14.00">S</text>
<polyline fill="none" stroke="black" points="783.69,-182.5 783.69,-251.5 "/>
<text text-anchor="middle" x="807.19" y="-220.8" font-family="Times New Roman,serif" font-size="14.00">$10</text>
<text text-anchor="middle" x="807.19" y="-205.8" font-family="Times New Roman,serif" font-size="14.00">$mux</text>
<polyline fill="none" stroke="black" points="830.69,-182.5 830.69,-251.5 "/>
<text text-anchor="middle" x="843.69" y="-213.3" font-family="Times New Roman,serif" font-size="14.00">Y</text>
</g>
<!-- c15&#45;&gt;c24 -->
<g id="edge8" class="edge">
<title>c15:e&#45;&gt;c24:w</title>
<path fill="none" stroke="#7570b3" d="M593.19,-118C663.72,-118 679.36,-142.46 739.69,-179 744.56,-181.95 746.37,-186.16 748.71,-189.37"/>
<polygon fill="#7570b3" stroke="#7570b3" points="747.19,-192.52 757.69,-194 750.41,-186.3 747.19,-192.52"/>
</g>
<!-- c16&#45;&gt;n11 -->
<g id="edge6" class="edge">
<title>c16:e&#45;&gt;n11:w</title>
<path fill="none" stroke="#1b9e77" d="M739.69,-397C819.42,-397 822.72,-333.14 856.69,-261 865.2,-242.93 855.31,-180.6 866.23,-161.57"/>
<polygon fill="#1b9e77" stroke="#1b9e77" points="868.26,-164.42 874.69,-156 864.41,-158.57 868.26,-164.42"/>
</g>
<!-- c17&#45;&gt;c15 -->
<g id="edge9" class="edge">
<title>c17:e&#45;&gt;c15:w</title>
<path fill="none" stroke="#e7298a" d="M316.69,-199C398.25,-199 409.31,-135.54 485.1,-130.34"/>
<polygon fill="#e7298a" stroke="#e7298a" points="485.31,-133.83 495.19,-130 485.07,-126.84 485.31,-133.83"/>
</g>
<!-- c18&#45;&gt;c15 -->
<g id="edge10" class="edge">
<title>c18:e&#45;&gt;c15:w</title>
<path fill="none" stroke="#e7298a" d="M427.69,-100C454.16,-100 462.97,-104.63 485.17,-105.76"/>
<polygon fill="#e7298a" stroke="#e7298a" points="485.1,-109.26 495.19,-106 485.27,-102.26 485.1,-109.26"/>
</g>
<!-- c22&#45;&gt;n10 -->
<g id="edge2" class="edge">
<title>c22:e&#45;&gt;n10:w</title>
<path fill="none" stroke="#1b9e77" stroke-width="3" d="M205.69,-345C270.37,-345 283.59,-383.58 342.85,-387.65"/>
<polygon fill="#1b9e77" stroke="#1b9e77" stroke-width="3" points="343.07,-391.16 353.19,-388 343.31,-384.17 343.07,-391.16"/>
<text text-anchor="middle" x="270.19" y="-385.8" font-family="Times New Roman,serif" font-size="14.00" fill="#1b9e77">&lt;10&gt;</text>
</g>
<!-- c24&#45;&gt;c22 -->
<g id="edge1" class="edge">
<title>c24:e&#45;&gt;c22:w</title>
<path fill="none" stroke="#66a61e" stroke-width="3" d="M858.19,-217C865.97,-217 862.6,-246.41 857.19,-252 849.48,-259.95 767.66,-253.19 757.69,-258 746.91,-263.19 750.14,-272.19 739.69,-278 682.07,-310.01 659.23,-297.05 593.69,-304 566.07,-306.93 114.32,-302.38 94.19,-321.5 93.84,-321.83 93.5,-322.2 93.18,-322.6"/>
<polygon fill="#66a61e" stroke="#66a61e" stroke-width="3" points="89.68,-323 93.19,-333 96.68,-323 89.68,-323"/>
<text text-anchor="middle" x="461.19" y="-308.8" font-family="Times New Roman,serif" font-size="14.00" fill="#66a61e">&lt;10&gt;</text>
</g>
<!-- c25&#45;&gt;c24 -->
<g id="edge11" class="edge">
<title>c25:e&#45;&gt;c24:w</title>
<path fill="none" stroke="#7570b3" stroke-width="3" d="M593.69,-260C663.53,-260 682.45,-241.91 747.32,-240.14"/>
<polygon fill="#7570b3" stroke="#7570b3" stroke-width="3" points="747.73,-243.63 757.69,-240 747.64,-236.63 747.73,-243.63"/>
<text text-anchor="middle" x="675.69" y="-262.8" font-family="Times New Roman,serif" font-size="14.00" fill="#7570b3">&lt;10&gt;</text>
</g>
<!-- v0 -->
<g id="node13" class="node">
<title>v0</title>
<ellipse fill="none" stroke="black" cx="381.19" cy="-41" rx="27" ry="18"/>
<text text-anchor="middle" x="381.19" y="-37.3" font-family="Times New Roman,serif" font-size="14.00">1&#39;1</text>
</g>
<!-- v0&#45;&gt;c26 -->
<g id="edge17" class="edge">
<title>v0:e&#45;&gt;c26:w</title>
<path fill="none" stroke="#e6ab02" d="M409.19,-41C412.86,-41 468.99,-134.41 488.64,-162.87"/>
<polygon fill="#e6ab02" stroke="#e6ab02" points="486.19,-165.4 495.19,-171 491.64,-161.02 486.19,-165.4"/>
</g>
<!-- c26&#45;&gt;c24 -->
<g id="edge12" class="edge">
<title>c26:e&#45;&gt;c24:w</title>
<path fill="none" stroke="#d95f02" stroke-width="3" d="M593.19,-183C659.39,-183 675.99,-191.92 739.69,-210 743.56,-211.1 745.87,-212.71 748.12,-214.1"/>
<polygon fill="#d95f02" stroke="#d95f02" stroke-width="3" points="747.1,-217.45 757.69,-217 749.13,-210.75 747.1,-217.45"/>
<text text-anchor="middle" x="675.69" y="-213.8" font-family="Times New Roman,serif" font-size="14.00" fill="#d95f02">&lt;10&gt;</text>
</g>
</g>
</svg>
