<svg xmlns="http://www.w3.org/2000/svg" xmlns:xlink="http://www.w3.org/1999/xlink" xmlns:s="https://github.com/nturley/netlistsvg" width="344" height="275">
  <style>svg {
    stroke:#000;
    fill:none;
  }
  text {
    fill:#000;
    stroke:none;
    font-size:10px;
    font-weight: bold;
    font-family: "Courier New", monospace;
  }
  .nodelabel {
    text-anchor: middle;
  }
  .inputPortLabel {
    text-anchor: end;
  }
  .splitjoinBody {
    fill:#000;
  }</style>
  <g s:type="and" transform="translate(162,162)" s:width="30" s:height="25" id="cell_$and$top_module.v:25$5">
    <s:alias val="$and"/>
    <s:alias val="$logic_and"/>
    <s:alias val="$_AND_"/>
    <path d="M0,0 L0,25 L15,25 A15 12.5 0 0 0 15,0 Z" class="cell_$and$top_module.v:25$5"/>
    <g s:x="0" s:y="5" s:pid="A"/>
    <g s:x="0" s:y="20" s:pid="B"/>
    <g s:x="30" s:y="12.5" s:pid="Y"/>
  </g>
  <g s:type="not" transform="translate(32,212)" s:width="30" s:height="20" id="cell_$eq$top_module.v:18$1">
    <s:alias val="$_NOT_"/>
    <s:alias val="$not"/>
    <s:alias val="$logic_not"/>
    <path d="M0,0 L0,20 L20,10 Z" class="cell_$eq$top_module.v:18$1"/>
    <circle cx="23" cy="10" r="3" class="cell_$eq$top_module.v:18$1"/>
    <g s:x="0" s:y="10" s:pid="A"/>
    <g s:x="25" s:y="10" s:pid="Y"/>
  </g>
  <g s:type="not" transform="translate(97,157)" s:width="30" s:height="20" id="cell_$not$top_module.v:25$3">
    <s:alias val="$_NOT_"/>
    <s:alias val="$not"/>
    <s:alias val="$logic_not"/>
    <path d="M0,0 L0,20 L20,10 Z" class="cell_$not$top_module.v:25$3"/>
    <circle cx="23" cy="10" r="3" class="cell_$not$top_module.v:25$3"/>
    <g s:x="0" s:y="10" s:pid="A"/>
    <g s:x="25" s:y="10" s:pid="Y"/>
  </g>
  <g s:type="not" transform="translate(97,212)" s:width="30" s:height="20" id="cell_$not$top_module.v:25$4">
    <s:alias val="$_NOT_"/>
    <s:alias val="$not"/>
    <s:alias val="$logic_not"/>
    <path d="M0,0 L0,20 L20,10 Z" class="cell_$not$top_module.v:25$4"/>
    <circle cx="23" cy="10" r="3" class="cell_$not$top_module.v:25$4"/>
    <g s:x="0" s:y="10" s:pid="A"/>
    <g s:x="25" s:y="10" s:pid="Y"/>
  </g>
  <g s:type="dff" transform="translate(292,42)" s:width="30" s:height="40" id="cell_$procdff$12">
    <s:alias val="$dff"/>
    <s:alias val="$_DFF_"/>
    <s:alias val="$_DFF_P_"/>
    <rect width="30" height="40" x="0" y="0" class="cell_$procdff$12"/>
    <path d="M0,35 L5,30 L0,25" class="cell_$procdff$12"/>
    <g s:x="30" s:y="10" s:pid="Q"/>
    <g s:x="0" s:y="30" s:pid="CLK"/>
    <g s:x="0" s:y="30" s:pid="C"/>
    <g s:x="0" s:y="10" s:pid="D"/>
  </g>
  <g s:type="mux" transform="translate(230.33333333333334,32)" s:width="20" s:height="40" id="cell_$procmux$10">
    <s:alias val="$pmux"/>
    <s:alias val="$mux"/>
    <s:alias val="$_MUX_"/>
    <path d="M0,0 L20,10 L20,30 L0,40 Z" class="cell_$procmux$10"/>
    <g s:x="0" s:y="10" s:pid="A"/>
    <g s:x="0" s:y="30" s:pid="B"/>
    <g s:x="10" s:y="35" s:pid="S"/>
    <g s:x="20" s:y="20" s:pid="Y"/>
  </g>
  <g s:type="mux" transform="translate(168.66666666666666,22)" s:width="20" s:height="40" id="cell_$procmux$8">
    <s:alias val="$pmux"/>
    <s:alias val="$mux"/>
    <s:alias val="$_MUX_"/>
    <path d="M0,0 L20,10 L20,30 L0,40 Z" class="cell_$procmux$8"/>
    <g s:x="0" s:y="10" s:pid="A"/>
    <g s:x="0" s:y="30" s:pid="B"/>
    <g s:x="10" s:y="35" s:pid="S"/>
    <g s:x="20" s:y="20" s:pid="Y"/>
  </g>
  <g s:type="sub" transform="translate(165.33333333333334,92)" s:width="25" s:height="25" id="cell_$sub$top_module.v:26$6">
    <s:alias val="$sub"/>
    <circle r="12.5" cx="12.5" cy="12.5" class="cell_$sub$top_module.v:26$6"/>
    <line x1="7.5" x2="17.5" y1="12.5" y2="12.5" class="cell_$sub$top_module.v:26$6"/>
    <g s:x="3" s:y="5" s:pid="A"/>
    <g s:x="3" s:y="20" s:pid="B"/>
    <g s:x="25" s:y="12.5" s:pid="Y"/>
  </g>
  <g s:type="inputExt" transform="translate(227,194.5)" s:width="30" s:height="20" id="cell_clk">
    <text x="15" y="-4" class="nodelabel cell_clk" s:attribute="ref">clk</text>
    <s:alias val="$_inputExt_"/>
    <path d="M0,0 L0,20 L15,20 L30,10 L15,0 Z" class="cell_clk"/>
    <g s:x="28" s:y="10" s:pid="Y"/>
  </g>
  <g s:type="inputExt" transform="translate(32,62)" s:width="30" s:height="20" id="cell_load">
    <text x="15" y="-4" class="nodelabel cell_load" s:attribute="ref">load</text>
    <s:alias val="$_inputExt_"/>
    <path d="M0,0 L0,20 L15,20 L30,10 L15,0 Z" class="cell_load"/>
    <g s:x="28" s:y="10" s:pid="Y"/>
  </g>
  <g s:type="inputExt" transform="translate(97,42)" s:width="30" s:height="20" id="cell_data">
    <text x="15" y="-4" class="nodelabel cell_data" s:attribute="ref">data</text>
    <s:alias val="$_inputExt_"/>
    <path d="M0,0 L0,20 L15,20 L30,10 L15,0 Z" class="cell_data"/>
    <g s:x="28" s:y="10" s:pid="Y"/>
  </g>
  <g s:type="outputExt" transform="translate(292,232)" s:width="30" s:height="20" id="cell_tc">
    <text x="15" y="-4" class="nodelabel cell_tc" s:attribute="ref">tc</text>
    <s:alias val="$_outputExt_"/>
    <path d="M30,0 L30,20 L15,20 L0,10 L15,0 Z" class="cell_tc"/>
    <g s:x="0" s:y="10" s:pid="A"/>
  </g>
  <g s:type="constant" transform="translate(97,102)" s:width="30" s:height="20" id="cell_1">
    <text x="15" y="-4" class="nodelabel cell_1" s:attribute="ref">1</text>
    <s:alias val="$_constant_"/>
    <rect width="30" height="20" class="cell_1"/>
    <g s:x="30" s:y="10" s:pid="Y"/>
  </g>
  <line x1="122" x2="162" y1="167" y2="167" class="net_15"/>
  <line x1="122" x2="137" y1="222" y2="222" class="net_16"/>
  <line x1="137" x2="137" y1="222" y2="182" class="net_16"/>
  <line x1="137" x2="162" y1="182" y2="182" class="net_16"/>
  <line x1="322" x2="332" y1="52" y2="52" class="net_18,19,20,21,22,23,24,25,26,27"/>
  <line x1="332" x2="332" y1="52" y2="262" class="net_18,19,20,21,22,23,24,25,26,27"/>
  <line x1="332" x2="12" y1="262" y2="262" class="net_18,19,20,21,22,23,24,25,26,27"/>
  <line x1="12" x2="12" y1="262" y2="222" class="net_18,19,20,21,22,23,24,25,26,27"/>
  <line x1="12" x2="32" y1="222" y2="222" class="net_18,19,20,21,22,23,24,25,26,27"/>
  <line x1="322" x2="332" y1="52" y2="52" class="net_18,19,20,21,22,23,24,25,26,27"/>
  <line x1="332" x2="332" y1="52" y2="12" class="net_18,19,20,21,22,23,24,25,26,27"/>
  <line x1="332" x2="137" y1="12" y2="12" class="net_18,19,20,21,22,23,24,25,26,27"/>
  <line x1="137" x2="137" y1="12" y2="32" class="net_18,19,20,21,22,23,24,25,26,27"/>
  <circle cx="332" cy="52" r="2" style="fill:#000" class="net_18,19,20,21,22,23,24,25,26,27"/>
  <line x1="137" x2="168.66666666666666" y1="32" y2="32" class="net_18,19,20,21,22,23,24,25,26,27"/>
  <line x1="322" x2="332" y1="52" y2="52" class="net_18,19,20,21,22,23,24,25,26,27"/>
  <line x1="332" x2="332" y1="52" y2="12" class="net_18,19,20,21,22,23,24,25,26,27"/>
  <line x1="332" x2="202" y1="12" y2="12" class="net_18,19,20,21,22,23,24,25,26,27"/>
  <line x1="202" x2="202" y1="12" y2="82" class="net_18,19,20,21,22,23,24,25,26,27"/>
  <line x1="202" x2="137" y1="82" y2="82" class="net_18,19,20,21,22,23,24,25,26,27"/>
  <line x1="137" x2="137" y1="82" y2="97" class="net_18,19,20,21,22,23,24,25,26,27"/>
  <circle cx="202" cy="12" r="2" style="fill:#000" class="net_18,19,20,21,22,23,24,25,26,27"/>
  <line x1="137" x2="168.33333333333334" y1="97" y2="97" class="net_18,19,20,21,22,23,24,25,26,27"/>
  <line x1="60" x2="72" y1="72" y2="72" class="net_3"/>
  <line x1="72" x2="72" y1="72" y2="167" class="net_3"/>
  <circle cx="72" cy="72" r="2" style="fill:#000" class="net_3"/>
  <line x1="72" x2="97" y1="167" y2="167" class="net_3"/>
  <line x1="60" x2="178.66666666666666" y1="72" y2="72" class="net_3"/>
  <line x1="178.66666666666666" x2="178.66666666666666" y1="72" y2="57" class="net_3"/>
  <line x1="57" x2="97" y1="222" y2="222" class="net_14"/>
  <line x1="57" x2="72" y1="222" y2="222" class="net_14"/>
  <line x1="72" x2="72" y1="222" y2="242" class="net_14"/>
  <circle cx="72" cy="222" r="2" style="fill:#000" class="net_14"/>
  <line x1="72" x2="292" y1="242" y2="242" class="net_14"/>
  <line x1="255" x2="267" y1="204.5" y2="204.5" class="net_2"/>
  <line x1="267" x2="267" y1="204.5" y2="72" class="net_2"/>
  <line x1="267" x2="292" y1="72" y2="72" class="net_2"/>
  <line x1="250.33333333333334" x2="292" y1="52" y2="52" class="net_28,29,30,31,32,33,34,35,36,37"/>
  <line x1="188.66666666666666" x2="230.33333333333334" y1="42" y2="42" class="net_38,39,40,41,42,43,44,45,46,47"/>
  <line x1="190.33333333333334" x2="212" y1="104.5" y2="104.5" class="net_48,49,50,51,52,53,54,55,56,57"/>
  <line x1="212" x2="212" y1="104.5" y2="62" class="net_48,49,50,51,52,53,54,55,56,57"/>
  <line x1="212" x2="230.33333333333334" y1="62" y2="62" class="net_48,49,50,51,52,53,54,55,56,57"/>
  <line x1="192" x2="240.33333333333334" y1="174.5" y2="174.5" class="net_17"/>
  <line x1="240.33333333333334" x2="240.33333333333334" y1="174.5" y2="67" class="net_17"/>
  <line x1="125" x2="168.66666666666666" y1="52" y2="52" class="net_4,5,6,7,8,9,10,11,12,13"/>
  <line x1="127" x2="168.33333333333334" y1="112" y2="112" class="net_58"/>
</svg>
