<?xml version="1.0" encoding="UTF-8" standalone="no"?>
<!DOCTYPE svg PUBLIC "-//W3C//DTD SVG 1.1//EN"
 "http://www.w3.org/Graphics/SVG/1.1/DTD/svg11.dtd">
<!-- Generated by graphviz version 3.0.0 (20220226.1711)
 -->
<!-- Title: top_module Pages: 1 -->
<svg width="648pt" height="208pt"
 viewBox="0.00 0.00 647.52 208.00" xmlns="http://www.w3.org/2000/svg" xmlns:xlink="http://www.w3.org/1999/xlink">
<g id="graph0" class="graph" transform="scale(1 1) rotate(0) translate(4 204)">
<title>top_module</title>
<polygon fill="white" stroke="transparent" points="-4,4 -4,-204 643.52,-204 643.52,4 -4,4"/>
<text text-anchor="middle" x="319.76" y="-7.8" font-family="Times New Roman,serif" font-size="14.00">top_module</text>
<!-- n4 -->
<g id="node1" class="node">
<title>n4</title>
<polygon fill="none" stroke="black" points="639.74,-169.04 639.74,-183.96 614.89,-194.5 579.74,-194.5 554.89,-183.96 554.89,-169.04 579.74,-158.5 614.89,-158.5 639.74,-169.04"/>
<text text-anchor="middle" x="597.32" y="-172.8" font-family="Times New Roman,serif" font-size="14.00">out_not</text>
</g>
<!-- n5 -->
<g id="node2" class="node">
<title>n5</title>
<polygon fill="none" stroke="black" points="516.94,-104.04 516.94,-118.96 476.59,-129.5 419.52,-129.5 379.17,-118.96 379.17,-104.04 419.52,-93.5 476.59,-93.5 516.94,-104.04"/>
<text text-anchor="middle" x="448.05" y="-107.8" font-family="Times New Roman,serif" font-size="14.00">out_or_logical</text>
</g>
<!-- n6 -->
<g id="node3" class="node">
<title>n6</title>
<polygon fill="none" stroke="black" points="519.16,-39.04 519.16,-53.96 477.51,-64.5 418.6,-64.5 376.95,-53.96 376.95,-39.04 418.6,-28.5 477.51,-28.5 519.16,-39.04"/>
<text text-anchor="middle" x="448.05" y="-42.8" font-family="Times New Roman,serif" font-size="14.00">out_or_bitwise</text>
</g>
<!-- n7 -->
<g id="node4" class="node">
<title>n7</title>
<polygon fill="none" stroke="black" points="54,-77.04 54,-91.96 38.18,-102.5 15.82,-102.5 0,-91.96 0,-77.04 15.82,-66.5 38.18,-66.5 54,-77.04"/>
<text text-anchor="middle" x="27" y="-80.8" font-family="Times New Roman,serif" font-size="14.00">b</text>
</g>
<!-- x0 -->
<g id="node7" class="node">
<title>x0</title>
<path fill="none" stroke="black" d="M132,-153.5C132,-153.5 170,-153.5 170,-153.5 176,-153.5 182,-159.5 182,-165.5 182,-165.5 182,-187.5 182,-187.5 182,-193.5 176,-199.5 170,-199.5 170,-199.5 132,-199.5 132,-199.5 126,-199.5 120,-193.5 120,-187.5 120,-187.5 120,-165.5 120,-165.5 120,-159.5 126,-153.5 132,-153.5"/>
<text text-anchor="middle" x="151" y="-184.3" font-family="Times New Roman,serif" font-size="14.00">2:0 &#45; 5:3</text>
<polyline fill="none" stroke="black" points="120,-176.5 182,-176.5 "/>
<text text-anchor="middle" x="151" y="-161.3" font-family="Times New Roman,serif" font-size="14.00">2:0 &#45; 2:0</text>
</g>
<!-- n7&#45;&gt;x0 -->
<g id="edge10" class="edge">
<title>n7:e&#45;&gt;x0:w</title>
<path fill="none" stroke="black" stroke-width="3" d="M54,-84.5C104.67,-84.5 70.2,-174.39 108.9,-187.03"/>
<polygon fill="black" stroke="black" stroke-width="3" points="108.6,-190.52 119,-188.5 109.61,-183.6 108.6,-190.52"/>
</g>
<!-- c13 -->
<g id="node8" class="node">
<title>c13</title>
<polygon fill="none" stroke="black" points="90,-88.5 90,-134.5 212,-134.5 212,-88.5 90,-88.5"/>
<text text-anchor="middle" x="103" y="-119.3" font-family="Times New Roman,serif" font-size="14.00">A</text>
<polyline fill="none" stroke="black" points="90,-111.5 116,-111.5 "/>
<text text-anchor="middle" x="103" y="-96.3" font-family="Times New Roman,serif" font-size="14.00">B</text>
<polyline fill="none" stroke="black" points="116,-88.5 116,-134.5 "/>
<text text-anchor="middle" x="151" y="-115.3" font-family="Times New Roman,serif" font-size="14.00">$2</text>
<text text-anchor="middle" x="151" y="-100.3" font-family="Times New Roman,serif" font-size="14.00">$logic_or</text>
<polyline fill="none" stroke="black" points="186,-88.5 186,-134.5 "/>
<text text-anchor="middle" x="199" y="-107.8" font-family="Times New Roman,serif" font-size="14.00">Y</text>
</g>
<!-- n7&#45;&gt;c13 -->
<g id="edge8" class="edge">
<title>n7:e&#45;&gt;c13:w</title>
<path fill="none" stroke="black" stroke-width="3" d="M54,-84.5C67.27,-84.5 71.16,-93.29 80.04,-97.41"/>
<polygon fill="black" stroke="black" stroke-width="3" points="79.49,-100.88 90,-99.5 80.93,-94.03 79.49,-100.88"/>
</g>
<!-- c14 -->
<g id="node9" class="node">
<title>c14</title>
<polygon fill="none" stroke="black" points="107.5,-23.5 107.5,-69.5 194.5,-69.5 194.5,-23.5 107.5,-23.5"/>
<text text-anchor="middle" x="120.5" y="-54.3" font-family="Times New Roman,serif" font-size="14.00">A</text>
<polyline fill="none" stroke="black" points="107.5,-46.5 133.5,-46.5 "/>
<text text-anchor="middle" x="120.5" y="-31.3" font-family="Times New Roman,serif" font-size="14.00">B</text>
<polyline fill="none" stroke="black" points="133.5,-23.5 133.5,-69.5 "/>
<text text-anchor="middle" x="151" y="-50.3" font-family="Times New Roman,serif" font-size="14.00">$1</text>
<text text-anchor="middle" x="151" y="-35.3" font-family="Times New Roman,serif" font-size="14.00">$or</text>
<polyline fill="none" stroke="black" points="168.5,-23.5 168.5,-69.5 "/>
<text text-anchor="middle" x="181.5" y="-42.8" font-family="Times New Roman,serif" font-size="14.00">Y</text>
</g>
<!-- n7&#45;&gt;c14 -->
<g id="edge9" class="edge">
<title>n7:e&#45;&gt;c14:w</title>
<path fill="none" stroke="black" stroke-width="3" d="M54,-84.5C82.18,-84.5 76.23,-45.88 96.14,-36.52"/>
<polygon fill="black" stroke="black" stroke-width="3" points="96.91,-39.94 106,-34.5 95.5,-33.08 96.91,-39.94"/>
</g>
<!-- n8 -->
<g id="node5" class="node">
<title>n8</title>
<polygon fill="none" stroke="black" points="54,-131.04 54,-145.96 38.18,-156.5 15.82,-156.5 0,-145.96 0,-131.04 15.82,-120.5 38.18,-120.5 54,-131.04"/>
<text text-anchor="middle" x="27" y="-134.8" font-family="Times New Roman,serif" font-size="14.00">a</text>
</g>
<!-- n8&#45;&gt;x0 -->
<g id="edge13" class="edge">
<title>n8:e&#45;&gt;x0:w</title>
<path fill="none" stroke="black" stroke-width="3" d="M54,-138.5C81.35,-138.5 86.8,-158.58 108.84,-163.45"/>
<polygon fill="black" stroke="black" stroke-width="3" points="108.69,-166.95 119,-164.5 109.41,-159.99 108.69,-166.95"/>
</g>
<!-- n8&#45;&gt;c13 -->
<g id="edge11" class="edge">
<title>n8:e&#45;&gt;c13:w</title>
<path fill="none" stroke="black" stroke-width="3" d="M54,-138.5C67.27,-138.5 71.16,-129.71 80.04,-125.59"/>
<polygon fill="black" stroke="black" stroke-width="3" points="80.93,-128.97 90,-123.5 79.49,-122.12 80.93,-128.97"/>
</g>
<!-- n8&#45;&gt;c14 -->
<g id="edge12" class="edge">
<title>n8:e&#45;&gt;c14:w</title>
<path fill="none" stroke="black" stroke-width="3" d="M54,-138.5C92.43,-138.5 69.08,-72.8 95.93,-60.48"/>
<polygon fill="black" stroke="black" stroke-width="3" points="96.86,-63.86 106,-58.5 95.51,-56.99 96.86,-63.86"/>
</g>
<!-- c11 -->
<g id="node6" class="node">
<title>c11</title>
<polygon fill="none" stroke="black" points="248,-157.5 248,-195.5 341,-195.5 341,-157.5 248,-157.5"/>
<text text-anchor="middle" x="261" y="-172.8" font-family="Times New Roman,serif" font-size="14.00">A</text>
<polyline fill="none" stroke="black" points="274,-157.5 274,-195.5 "/>
<text text-anchor="middle" x="294.5" y="-180.3" font-family="Times New Roman,serif" font-size="14.00">$3</text>
<text text-anchor="middle" x="294.5" y="-165.3" font-family="Times New Roman,serif" font-size="14.00">$not</text>
<polyline fill="none" stroke="black" points="315,-157.5 315,-195.5 "/>
<text text-anchor="middle" x="328" y="-172.8" font-family="Times New Roman,serif" font-size="14.00">Y</text>
</g>
<!-- x3 -->
<g id="node12" class="node">
<title>x3</title>
<path fill="none" stroke="black" d="M463.05,-194.5C463.05,-194.5 433.05,-194.5 433.05,-194.5 427.05,-194.5 421.05,-188.5 421.05,-182.5 421.05,-182.5 421.05,-170.5 421.05,-170.5 421.05,-164.5 427.05,-158.5 433.05,-158.5 433.05,-158.5 463.05,-158.5 463.05,-158.5 469.05,-158.5 475.05,-164.5 475.05,-170.5 475.05,-170.5 475.05,-182.5 475.05,-182.5 475.05,-188.5 469.05,-194.5 463.05,-194.5"/>
<text text-anchor="middle" x="448.05" y="-172.8" font-family="Times New Roman,serif" font-size="14.00">BUF</text>
</g>
<!-- c11&#45;&gt;x3 -->
<g id="edge2" class="edge">
<title>c11:e&#45;&gt;x3:w</title>
<path fill="none" stroke="black" stroke-width="3" d="M341,-176.5C372.43,-176.5 382.77,-176.5 409.75,-176.5"/>
<polygon fill="black" stroke="black" stroke-width="3" points="410.05,-180 420.05,-176.5 410.05,-173 410.05,-180"/>
</g>
<!-- x0&#45;&gt;c11 -->
<g id="edge1" class="edge">
<title>x0:e&#45;&gt;c11:w</title>
<path fill="none" stroke="black" stroke-width="3" d="M195.12,-176.5C211.01,-176.5 219.9,-176.5 235.74,-176.5"/>
<polygon fill="none" stroke="black" stroke-width="3" points="195,-176.5 189,-180.5 183,-176.5 189,-172.5 195,-176.5"/>
<polygon fill="none" stroke="black" stroke-width="3" points="236,-176.5 242,-172.5 248,-176.5 242,-180.5 236,-176.5"/>
</g>
<!-- x2 -->
<g id="node11" class="node">
<title>x2</title>
<path fill="none" stroke="black" d="M309.5,-129.5C309.5,-129.5 279.5,-129.5 279.5,-129.5 273.5,-129.5 267.5,-123.5 267.5,-117.5 267.5,-117.5 267.5,-105.5 267.5,-105.5 267.5,-99.5 273.5,-93.5 279.5,-93.5 279.5,-93.5 309.5,-93.5 309.5,-93.5 315.5,-93.5 321.5,-99.5 321.5,-105.5 321.5,-105.5 321.5,-117.5 321.5,-117.5 321.5,-123.5 315.5,-129.5 309.5,-129.5"/>
<text text-anchor="middle" x="294.5" y="-107.8" font-family="Times New Roman,serif" font-size="14.00">BUF</text>
</g>
<!-- c13&#45;&gt;x2 -->
<g id="edge3" class="edge">
<title>c13:e&#45;&gt;x2:w</title>
<path fill="none" stroke="black" d="M212,-111.5C232.44,-111.5 239.94,-111.5 256.34,-111.5"/>
<polygon fill="black" stroke="black" points="256.5,-115 266.5,-111.5 256.5,-108 256.5,-115"/>
</g>
<!-- x1 -->
<g id="node10" class="node">
<title>x1</title>
<path fill="none" stroke="black" d="M309.5,-64.5C309.5,-64.5 279.5,-64.5 279.5,-64.5 273.5,-64.5 267.5,-58.5 267.5,-52.5 267.5,-52.5 267.5,-40.5 267.5,-40.5 267.5,-34.5 273.5,-28.5 279.5,-28.5 279.5,-28.5 309.5,-28.5 309.5,-28.5 315.5,-28.5 321.5,-34.5 321.5,-40.5 321.5,-40.5 321.5,-52.5 321.5,-52.5 321.5,-58.5 315.5,-64.5 309.5,-64.5"/>
<text text-anchor="middle" x="294.5" y="-42.8" font-family="Times New Roman,serif" font-size="14.00">BUF</text>
</g>
<!-- c14&#45;&gt;x1 -->
<g id="edge4" class="edge">
<title>c14:e&#45;&gt;x1:w</title>
<path fill="none" stroke="black" stroke-width="3" d="M196,-46.5C223.66,-46.5 233.01,-46.5 256.38,-46.5"/>
<polygon fill="black" stroke="black" stroke-width="3" points="256.5,-50 266.5,-46.5 256.5,-43 256.5,-50"/>
</g>
<!-- x1&#45;&gt;n6 -->
<g id="edge7" class="edge">
<title>x1:e&#45;&gt;n6:w</title>
<path fill="none" stroke="black" stroke-width="3" d="M322.5,-46.5C342.94,-46.5 350.44,-46.5 366.84,-46.5"/>
<polygon fill="black" stroke="black" stroke-width="3" points="367,-50 377,-46.5 367,-43 367,-50"/>
</g>
<!-- x2&#45;&gt;n5 -->
<g id="edge6" class="edge">
<title>x2:e&#45;&gt;n5:w</title>
<path fill="none" stroke="black" d="M322.5,-111.5C343.33,-111.5 350.98,-111.5 367.69,-111.5"/>
<polygon fill="black" stroke="black" points="368.05,-115 378.05,-111.5 368.05,-108 368.05,-115"/>
</g>
<!-- x3&#45;&gt;n4 -->
<g id="edge5" class="edge">
<title>x3:e&#45;&gt;n4:w</title>
<path fill="none" stroke="black" stroke-width="3" d="M476.05,-176.5C507.48,-176.5 517.83,-176.5 544.81,-176.5"/>
<polygon fill="black" stroke="black" stroke-width="3" points="545.11,-180 555.11,-176.5 545.11,-173 545.11,-180"/>
</g>
</g>
</svg>
