<?xml version="1.0" encoding="UTF-8" standalone="no"?>
<!DOCTYPE svg PUBLIC "-//W3C//DTD SVG 1.1//EN"
 "http://www.w3.org/Graphics/SVG/1.1/DTD/svg11.dtd">
<!-- Generated by graphviz version 4.0.0 (20220529.0937)
 -->
<!-- Title: top_module Pages: 1 -->
<svg width="743pt" height="230pt"
 viewBox="0.00 0.00 743.11 230.44" xmlns="http://www.w3.org/2000/svg" xmlns:xlink="http://www.w3.org/1999/xlink">
<g id="graph0" class="graph" transform="scale(1 1) rotate(0) translate(4 226.44)">
<title>top_module</title>
<polygon fill="white" stroke="transparent" points="-4,4 -4,-226.44 739.11,-226.44 739.11,4 -4,4"/>
<text text-anchor="middle" x="367.55" y="-7.8" font-family="Times New Roman,serif" font-size="14.00">top_module</text>
<!-- n4 -->
<g id="node1" class="node">
<title>n4</title>
<polygon fill="none" stroke="black" points="706.47,-121.99 706.47,-136.9 681.62,-147.44 646.48,-147.44 621.63,-136.9 621.63,-121.99 646.48,-111.44 681.62,-111.44 706.47,-121.99"/>
<text text-anchor="middle" x="664.05" y="-125.74" font-family="Times New Roman,serif" font-size="14.00">out_not</text>
</g>
<!-- n5 -->
<g id="node2" class="node">
<title>n5</title>
<polygon fill="none" stroke="black" points="732.94,-190.99 732.94,-205.9 692.59,-216.44 635.52,-216.44 595.17,-205.9 595.17,-190.99 635.52,-180.44 692.59,-180.44 732.94,-190.99"/>
<text text-anchor="middle" x="664.05" y="-194.74" font-family="Times New Roman,serif" font-size="14.00">out_or_logical</text>
</g>
<!-- n6 -->
<g id="node3" class="node">
<title>n6</title>
<polygon fill="none" stroke="black" points="735.16,-47.99 735.16,-62.9 693.51,-73.44 634.6,-73.44 592.95,-62.9 592.95,-47.99 634.6,-37.44 693.51,-37.44 735.16,-47.99"/>
<text text-anchor="middle" x="664.05" y="-51.74" font-family="Times New Roman,serif" font-size="14.00">out_or_bitwise</text>
</g>
<!-- n7 -->
<g id="node4" class="node">
<title>n7</title>
<polygon fill="none" stroke="black" points="54,-55.99 54,-70.9 38.18,-81.44 15.82,-81.44 0,-70.9 0,-55.99 15.82,-45.44 38.18,-45.44 54,-55.99"/>
<text text-anchor="middle" x="27" y="-59.74" font-family="Times New Roman,serif" font-size="14.00">b</text>
</g>
<!-- x0 -->
<g id="node7" class="node">
<title>x0</title>
<path fill="none" stroke="black" d="M156,-106.44C156,-106.44 194,-106.44 194,-106.44 200,-106.44 206,-112.44 206,-118.44 206,-118.44 206,-140.44 206,-140.44 206,-146.44 200,-152.44 194,-152.44 194,-152.44 156,-152.44 156,-152.44 150,-152.44 144,-146.44 144,-140.44 144,-140.44 144,-118.44 144,-118.44 144,-112.44 150,-106.44 156,-106.44"/>
<text text-anchor="middle" x="175" y="-137.24" font-family="Times New Roman,serif" font-size="14.00">2:0 &#45; 5:3</text>
<polyline fill="none" stroke="black" points="144,-129.44 206,-129.44 "/>
<text text-anchor="middle" x="175" y="-114.24" font-family="Times New Roman,serif" font-size="14.00">2:0 &#45; 2:0</text>
</g>
<!-- n7&#45;&gt;x0 -->
<g id="edge10" class="edge">
<title>n7:e&#45;&gt;x0:w</title>
<path fill="none" stroke="#d95f02" stroke-width="3" d="M54,-63.44C72.67,-63.44 79.83,-55.11 96,-64.44 127.34,-82.52 107.74,-130.67 133.08,-139.9"/>
<polygon fill="#d95f02" stroke="#d95f02" stroke-width="3" points="132.58,-143.36 143,-141.44 133.66,-136.45 132.58,-143.36"/>
<text text-anchor="middle" x="84" y="-68.24" font-family="Times New Roman,serif" font-size="14.00" fill="#d95f02">&lt;3&gt;</text>
</g>
<!-- c13 -->
<g id="node8" class="node">
<title>c13</title>
<polygon fill="none" stroke="black" points="114,-175.44 114,-221.44 236,-221.44 236,-175.44 114,-175.44"/>
<text text-anchor="middle" x="127" y="-206.24" font-family="Times New Roman,serif" font-size="14.00">A</text>
<polyline fill="none" stroke="black" points="114,-198.44 140,-198.44 "/>
<text text-anchor="middle" x="127" y="-183.24" font-family="Times New Roman,serif" font-size="14.00">B</text>
<polyline fill="none" stroke="black" points="140,-175.44 140,-221.44 "/>
<text text-anchor="middle" x="175" y="-202.24" font-family="Times New Roman,serif" font-size="14.00">$2</text>
<text text-anchor="middle" x="175" y="-187.24" font-family="Times New Roman,serif" font-size="14.00">$logic_or</text>
<polyline fill="none" stroke="black" points="210,-175.44 210,-221.44 "/>
<text text-anchor="middle" x="223" y="-194.74" font-family="Times New Roman,serif" font-size="14.00">Y</text>
</g>
<!-- n7&#45;&gt;c13 -->
<g id="edge8" class="edge">
<title>n7:e&#45;&gt;c13:w</title>
<path fill="none" stroke="#d95f02" stroke-width="3" d="M54,-63.44C64.7,-63.44 63.8,-72.56 72,-79.44 82.42,-88.19 88.87,-86.85 96,-98.44 114.71,-128.86 82.41,-175.27 103.96,-184.73"/>
<polygon fill="#d95f02" stroke="#d95f02" stroke-width="3" points="103.55,-188.21 114,-186.44 104.73,-181.31 103.55,-188.21"/>
<text text-anchor="middle" x="84" y="-102.24" font-family="Times New Roman,serif" font-size="14.00" fill="#d95f02">&lt;3&gt;</text>
</g>
<!-- c14 -->
<g id="node9" class="node">
<title>c14</title>
<polygon fill="none" stroke="black" points="131.5,-32.44 131.5,-78.44 218.5,-78.44 218.5,-32.44 131.5,-32.44"/>
<text text-anchor="middle" x="144.5" y="-63.24" font-family="Times New Roman,serif" font-size="14.00">A</text>
<polyline fill="none" stroke="black" points="131.5,-55.44 157.5,-55.44 "/>
<text text-anchor="middle" x="144.5" y="-40.24" font-family="Times New Roman,serif" font-size="14.00">B</text>
<polyline fill="none" stroke="black" points="157.5,-32.44 157.5,-78.44 "/>
<text text-anchor="middle" x="175" y="-59.24" font-family="Times New Roman,serif" font-size="14.00">$1</text>
<text text-anchor="middle" x="175" y="-44.24" font-family="Times New Roman,serif" font-size="14.00">$or</text>
<polyline fill="none" stroke="black" points="192.5,-32.44 192.5,-78.44 "/>
<text text-anchor="middle" x="205.5" y="-51.74" font-family="Times New Roman,serif" font-size="14.00">Y</text>
</g>
<!-- n7&#45;&gt;c14 -->
<g id="edge9" class="edge">
<title>n7:e&#45;&gt;c14:w</title>
<path fill="none" stroke="#d95f02" stroke-width="3" d="M54,-63.44C72.29,-63.44 56.5,-36.14 72,-26.44 81.04,-20.78 85.62,-23.99 96,-26.44 108.46,-29.38 111.86,-37.63 120.13,-41.45"/>
<polygon fill="#d95f02" stroke="#d95f02" stroke-width="3" points="119.51,-44.9 130,-43.44 120.89,-38.03 119.51,-44.9"/>
<text text-anchor="middle" x="84" y="-30.24" font-family="Times New Roman,serif" font-size="14.00" fill="#d95f02">&lt;3&gt;</text>
</g>
<!-- n8 -->
<g id="node5" class="node">
<title>n8</title>
<polygon fill="none" stroke="black" points="54,-169.99 54,-184.9 38.18,-195.44 15.82,-195.44 0,-184.9 0,-169.99 15.82,-159.44 38.18,-159.44 54,-169.99"/>
<text text-anchor="middle" x="27" y="-173.74" font-family="Times New Roman,serif" font-size="14.00">a</text>
</g>
<!-- n8&#45;&gt;x0 -->
<g id="edge13" class="edge">
<title>n8:e&#45;&gt;x0:w</title>
<path fill="none" stroke="#1b9e77" stroke-width="3" d="M54,-177.44C75.07,-177.44 78.39,-167.01 96,-155.44 115.12,-142.88 116.28,-124.16 132.79,-118.87"/>
<polygon fill="#1b9e77" stroke="#1b9e77" stroke-width="3" points="133.58,-122.3 143,-117.44 132.61,-115.37 133.58,-122.3"/>
<text text-anchor="middle" x="84" y="-176.24" font-family="Times New Roman,serif" font-size="14.00" fill="#1b9e77">&lt;3&gt;</text>
</g>
<!-- n8&#45;&gt;c13 -->
<g id="edge11" class="edge">
<title>n8:e&#45;&gt;c13:w</title>
<path fill="none" stroke="#1b9e77" stroke-width="3" d="M54,-177.44C64.7,-177.44 62.91,-187.8 72,-193.44 85.77,-201.99 91.53,-207.79 103.75,-209.73"/>
<polygon fill="#1b9e77" stroke="#1b9e77" stroke-width="3" points="103.78,-213.24 114,-210.44 104.27,-206.25 103.78,-213.24"/>
<text text-anchor="middle" x="84" y="-211.24" font-family="Times New Roman,serif" font-size="14.00" fill="#1b9e77">&lt;3&gt;</text>
</g>
<!-- n8&#45;&gt;c14 -->
<g id="edge12" class="edge">
<title>n8:e&#45;&gt;c14:w</title>
<path fill="none" stroke="#1b9e77" stroke-width="3" d="M54,-177.44C73.9,-177.44 59.84,-152.19 72,-136.44 80.31,-125.67 86.73,-127.4 96,-117.44 111.44,-100.84 105.9,-76.66 119.93,-69.51"/>
<polygon fill="#1b9e77" stroke="#1b9e77" stroke-width="3" points="120.91,-72.88 130,-67.44 119.5,-66.02 120.91,-72.88"/>
<text text-anchor="middle" x="84" y="-140.24" font-family="Times New Roman,serif" font-size="14.00" fill="#1b9e77">&lt;3&gt;</text>
</g>
<!-- c11 -->
<g id="node6" class="node">
<title>c11</title>
<polygon fill="none" stroke="black" points="296,-110.44 296,-148.44 389,-148.44 389,-110.44 296,-110.44"/>
<text text-anchor="middle" x="309" y="-125.74" font-family="Times New Roman,serif" font-size="14.00">A</text>
<polyline fill="none" stroke="black" points="322,-110.44 322,-148.44 "/>
<text text-anchor="middle" x="342.5" y="-133.24" font-family="Times New Roman,serif" font-size="14.00">$3</text>
<text text-anchor="middle" x="342.5" y="-118.24" font-family="Times New Roman,serif" font-size="14.00">$not</text>
<polyline fill="none" stroke="black" points="363,-110.44 363,-148.44 "/>
<text text-anchor="middle" x="376" y="-125.74" font-family="Times New Roman,serif" font-size="14.00">Y</text>
</g>
<!-- x3 -->
<g id="node12" class="node">
<title>x3</title>
<path fill="none" stroke="black" d="M521,-147.44C521,-147.44 491,-147.44 491,-147.44 485,-147.44 479,-141.44 479,-135.44 479,-135.44 479,-123.44 479,-123.44 479,-117.44 485,-111.44 491,-111.44 491,-111.44 521,-111.44 521,-111.44 527,-111.44 533,-117.44 533,-123.44 533,-123.44 533,-135.44 533,-135.44 533,-141.44 527,-147.44 521,-147.44"/>
<text text-anchor="middle" x="506" y="-125.74" font-family="Times New Roman,serif" font-size="14.00">BUF</text>
</g>
<!-- c11&#45;&gt;x3 -->
<g id="edge2" class="edge">
<title>c11:e&#45;&gt;x3:w</title>
<path fill="none" stroke="#1b9e77" stroke-width="3" d="M389,-129.44C425.41,-129.44 436.96,-129.44 468.9,-129.44"/>
<polygon fill="#1b9e77" stroke="#1b9e77" stroke-width="3" points="469,-132.94 479,-129.44 469,-125.94 469,-132.94"/>
<text text-anchor="middle" x="434" y="-133.24" font-family="Times New Roman,serif" font-size="14.00" fill="#1b9e77">&lt;6&gt;</text>
</g>
<!-- x0&#45;&gt;c11 -->
<g id="edge1" class="edge">
<title>x0:e&#45;&gt;c11:w</title>
<path fill="none" stroke="#66a61e" stroke-width="3" d="M219.39,-129.44C245.45,-129.44 257.71,-129.44 283.86,-129.44"/>
<polygon fill="none" stroke="#66a61e" stroke-width="3" points="219,-129.44 213,-133.44 207,-129.44 213,-125.44 219,-129.44"/>
<polygon fill="none" stroke="#66a61e" stroke-width="3" points="284,-129.44 290,-125.44 296,-129.44 290,-133.44 284,-129.44"/>
<text text-anchor="middle" x="266" y="-133.24" font-family="Times New Roman,serif" font-size="14.00" fill="#66a61e">&lt;6&gt;</text>
</g>
<!-- x2 -->
<g id="node11" class="node">
<title>x2</title>
<path fill="none" stroke="black" d="M449,-216.44C449,-216.44 419,-216.44 419,-216.44 413,-216.44 407,-210.44 407,-204.44 407,-204.44 407,-192.44 407,-192.44 407,-186.44 413,-180.44 419,-180.44 419,-180.44 449,-180.44 449,-180.44 455,-180.44 461,-186.44 461,-192.44 461,-192.44 461,-204.44 461,-204.44 461,-210.44 455,-216.44 449,-216.44"/>
<text text-anchor="middle" x="434" y="-194.74" font-family="Times New Roman,serif" font-size="14.00">BUF</text>
</g>
<!-- c13&#45;&gt;x2 -->
<g id="edge3" class="edge">
<title>c13:e&#45;&gt;x2:w</title>
<path fill="none" stroke="#1b9e77" d="M236,-198.44C308.44,-198.44 329.09,-198.44 396.68,-198.44"/>
<polygon fill="#1b9e77" stroke="#1b9e77" points="397,-201.94 407,-198.44 397,-194.94 397,-201.94"/>
</g>
<!-- x1 -->
<g id="node10" class="node">
<title>x1</title>
<path fill="none" stroke="black" d="M449,-73.44C449,-73.44 419,-73.44 419,-73.44 413,-73.44 407,-67.44 407,-61.44 407,-61.44 407,-49.44 407,-49.44 407,-43.44 413,-37.44 419,-37.44 419,-37.44 449,-37.44 449,-37.44 455,-37.44 461,-43.44 461,-49.44 461,-49.44 461,-61.44 461,-61.44 461,-67.44 455,-73.44 449,-73.44"/>
<text text-anchor="middle" x="434" y="-51.74" font-family="Times New Roman,serif" font-size="14.00">BUF</text>
</g>
<!-- c14&#45;&gt;x1 -->
<g id="edge4" class="edge">
<title>c14:e&#45;&gt;x1:w</title>
<path fill="none" stroke="#7570b3" stroke-width="3" d="M220,-55.44C299.54,-55.44 321.99,-55.44 396.62,-55.44"/>
<polygon fill="#7570b3" stroke="#7570b3" stroke-width="3" points="397,-58.94 407,-55.44 397,-51.94 397,-58.94"/>
<text text-anchor="middle" x="266" y="-59.24" font-family="Times New Roman,serif" font-size="14.00" fill="#7570b3">&lt;3&gt;</text>
</g>
<!-- x1&#45;&gt;n6 -->
<g id="edge7" class="edge">
<title>x1:e&#45;&gt;n6:w</title>
<path fill="none" stroke="#7570b3" stroke-width="3" d="M461,-55.44C516.11,-55.44 532.4,-55.44 582.81,-55.44"/>
<polygon fill="#7570b3" stroke="#7570b3" stroke-width="3" points="583,-58.94 593,-55.44 583,-51.94 583,-58.94"/>
<text text-anchor="middle" x="506" y="-59.24" font-family="Times New Roman,serif" font-size="14.00" fill="#7570b3">&lt;3&gt;</text>
</g>
<!-- x2&#45;&gt;n5 -->
<g id="edge6" class="edge">
<title>x2:e&#45;&gt;n5:w</title>
<path fill="none" stroke="#e7298a" d="M461,-198.44C516.55,-198.44 532.97,-198.44 583.78,-198.44"/>
<polygon fill="#e7298a" stroke="#e7298a" points="584.05,-201.94 594.05,-198.44 584.05,-194.94 584.05,-201.94"/>
</g>
<!-- x3&#45;&gt;n4 -->
<g id="edge5" class="edge">
<title>x3:e&#45;&gt;n4:w</title>
<path fill="none" stroke="#e7298a" stroke-width="3" d="M533,-129.44C568.06,-129.44 579.29,-129.44 609.89,-129.44"/>
<polygon fill="#e7298a" stroke="#e7298a" stroke-width="3" points="610.05,-132.94 620.05,-129.44 610.05,-125.94 610.05,-132.94"/>
<text text-anchor="middle" x="563" y="-133.24" font-family="Times New Roman,serif" font-size="14.00" fill="#e7298a">&lt;6&gt;</text>
</g>
</g>
</svg>
