<?xml version="1.0" encoding="UTF-8" standalone="no"?>
<!DOCTYPE svg PUBLIC "-//W3C//DTD SVG 1.1//EN"
 "http://www.w3.org/Graphics/SVG/1.1/DTD/svg11.dtd">
<!-- Generated by graphviz version 4.0.0 (20220529.0937)
 -->
<!-- Title: finite_state_machine Pages: 1 -->
<svg width="594pt" height="160pt"
 viewBox="0.00 0.00 594.37 160.05" xmlns="http://www.w3.org/2000/svg" xmlns:xlink="http://www.w3.org/1999/xlink">
<g id="graph0" class="graph" transform="scale(1 1) rotate(0) translate(4 156.05)">
<title>finite_state_machine</title>
<polygon fill="white" stroke="transparent" points="-4,4 -4,-156.05 590.37,-156.05 590.37,4 -4,4"/>
<!-- RESET -->
<g id="node1" class="node">
<title>RESET</title>
<ellipse fill="black" stroke="black" cx="1.8" cy="-63.05" rx="1.8" ry="1.8"/>
</g>
<!-- 000 -->
<g id="node4" class="node">
<title>000</title>
<ellipse fill="none" stroke="black" cx="90.65" cy="-63.05" rx="24.1" ry="24.1"/>
<text text-anchor="middle" x="90.65" y="-59.35" font-family="Times New Roman,serif" font-size="14.00">000</text>
</g>
<!-- RESET&#45;&gt;000 -->
<g id="edge1" class="edge">
<title>RESET&#45;&gt;000</title>
<path fill="none" stroke="black" d="M3.78,-63.05C9.02,-63.05 34.44,-63.05 56.28,-63.05"/>
<polygon fill="black" stroke="black" points="56.29,-66.55 66.29,-63.05 56.29,-59.55 56.29,-66.55"/>
<text text-anchor="middle" x="35.1" y="-66.85" font-family="Times New Roman,serif" font-size="14.00">reset</text>
</g>
<!-- 011 -->
<g id="node2" class="node">
<title>011</title>
<ellipse fill="none" stroke="black" cx="444.4" cy="-63.05" rx="26.74" ry="26.74"/>
<text text-anchor="middle" x="444.4" y="-66.85" font-family="Times New Roman,serif" font-size="14.00">011</text>
<text text-anchor="middle" x="444.4" y="-51.85" font-family="Times New Roman,serif" font-size="14.00">z=1</text>
</g>
<!-- 001 -->
<g id="node5" class="node">
<title>001</title>
<ellipse fill="none" stroke="black" cx="205.74" cy="-63.05" rx="24.1" ry="24.1"/>
<text text-anchor="middle" x="205.74" y="-59.35" font-family="Times New Roman,serif" font-size="14.00">001</text>
</g>
<!-- 011&#45;&gt;001 -->
<g id="edge8" class="edge">
<title>011&#45;&gt;001</title>
<path fill="none" stroke="black" d="M425.24,-82.23C407.9,-99.04 380.09,-122.27 350.53,-132.05 327.86,-139.55 319.41,-139.72 296.79,-132.05 270.91,-123.27 246.63,-103.74 229.82,-87.69"/>
<polygon fill="black" stroke="black" points="232.22,-85.14 222.65,-80.61 227.31,-90.12 232.22,-85.14"/>
<text text-anchor="middle" x="323.66" y="-140.85" font-family="Times New Roman,serif" font-size="14.00">x==0</text>
</g>
<!-- 010 -->
<g id="node6" class="node">
<title>010</title>
<ellipse fill="none" stroke="black" cx="562.32" cy="-24.05" rx="24.1" ry="24.1"/>
<text text-anchor="middle" x="562.32" y="-20.35" font-family="Times New Roman,serif" font-size="14.00">010</text>
</g>
<!-- 011&#45;&gt;010 -->
<g id="edge9" class="edge">
<title>011&#45;&gt;010</title>
<path fill="none" stroke="black" d="M469.98,-54.78C487.34,-48.94 510.74,-41.07 529.51,-34.75"/>
<polygon fill="black" stroke="black" points="530.76,-38.02 539.12,-31.52 528.53,-31.39 530.76,-38.02"/>
<text text-anchor="middle" x="504.77" y="-52.85" font-family="Times New Roman,serif" font-size="14.00">x==1</text>
</g>
<!-- 100 -->
<g id="node3" class="node">
<title>100</title>
<ellipse fill="none" stroke="black" cx="323.66" cy="-63.05" rx="26.74" ry="26.74"/>
<text text-anchor="middle" x="323.66" y="-66.85" font-family="Times New Roman,serif" font-size="14.00">100</text>
<text text-anchor="middle" x="323.66" y="-51.85" font-family="Times New Roman,serif" font-size="14.00">z=1</text>
</g>
<!-- 100&#45;&gt;011 -->
<g id="edge10" class="edge">
<title>100&#45;&gt;011</title>
<path fill="none" stroke="black" d="M350.72,-63.05C367.35,-63.05 389.13,-63.05 407.4,-63.05"/>
<polygon fill="black" stroke="black" points="407.4,-66.55 417.4,-63.05 407.4,-59.55 407.4,-66.55"/>
<text text-anchor="middle" x="384.03" y="-66.85" font-family="Times New Roman,serif" font-size="14.00">x==0</text>
</g>
<!-- 100&#45;&gt;100 -->
<g id="edge11" class="edge">
<title>100&#45;&gt;100</title>
<path fill="none" stroke="black" d="M312.55,-87.96C311.64,-98.71 315.34,-107.92 323.66,-107.92 329.12,-107.92 332.59,-103.95 334.08,-98.19"/>
<polygon fill="black" stroke="black" points="337.59,-98.18 334.78,-87.96 330.6,-97.7 337.59,-98.18"/>
<text text-anchor="middle" x="323.66" y="-111.72" font-family="Times New Roman,serif" font-size="14.00">x==1</text>
</g>
<!-- 000&#45;&gt;000 -->
<g id="edge2" class="edge">
<title>000&#45;&gt;000</title>
<path fill="none" stroke="black" d="M80.77,-85.11C79.55,-95.73 82.84,-105.1 90.65,-105.1 95.77,-105.1 98.95,-101.06 100.18,-95.29"/>
<polygon fill="black" stroke="black" points="103.69,-95.23 100.53,-85.11 96.69,-94.99 103.69,-95.23"/>
<text text-anchor="middle" x="90.65" y="-108.9" font-family="Times New Roman,serif" font-size="14.00">x==0</text>
</g>
<!-- 000&#45;&gt;001 -->
<g id="edge3" class="edge">
<title>000&#45;&gt;001</title>
<path fill="none" stroke="black" d="M114.81,-63.05C131.12,-63.05 153.21,-63.05 171.42,-63.05"/>
<polygon fill="black" stroke="black" points="171.62,-66.55 181.62,-63.05 171.62,-59.55 171.62,-66.55"/>
<text text-anchor="middle" x="148.2" y="-66.85" font-family="Times New Roman,serif" font-size="14.00">x==1</text>
</g>
<!-- 001&#45;&gt;100 -->
<g id="edge5" class="edge">
<title>001&#45;&gt;100</title>
<path fill="none" stroke="black" d="M229.92,-63.05C246.13,-63.05 268.08,-63.05 286.56,-63.05"/>
<polygon fill="black" stroke="black" points="286.69,-66.55 296.69,-63.05 286.69,-59.55 286.69,-66.55"/>
<text text-anchor="middle" x="263.29" y="-66.85" font-family="Times New Roman,serif" font-size="14.00">x==1</text>
</g>
<!-- 001&#45;&gt;001 -->
<g id="edge4" class="edge">
<title>001&#45;&gt;001</title>
<path fill="none" stroke="black" d="M195.5,-85.11C194.24,-95.73 197.65,-105.1 205.74,-105.1 211.06,-105.1 214.35,-101.06 215.63,-95.29"/>
<polygon fill="black" stroke="black" points="219.14,-95.23 215.99,-85.11 212.14,-94.99 219.14,-95.23"/>
<text text-anchor="middle" x="205.74" y="-108.9" font-family="Times New Roman,serif" font-size="14.00">x==0</text>
</g>
<!-- 010&#45;&gt;001 -->
<g id="edge7" class="edge">
<title>010&#45;&gt;001</title>
<path fill="none" stroke="black" d="M538.38,-21.51C492.14,-17 384.64,-9.62 296.79,-27.05 276.08,-31.16 254.06,-39.88 236.97,-47.71"/>
<polygon fill="black" stroke="black" points="235.08,-44.73 227.53,-52.17 238.07,-51.06 235.08,-44.73"/>
<text text-anchor="middle" x="384.03" y="-21.85" font-family="Times New Roman,serif" font-size="14.00">x==1</text>
</g>
<!-- 010&#45;&gt;010 -->
<g id="edge6" class="edge">
<title>010&#45;&gt;010</title>
<path fill="none" stroke="black" d="M552.08,-46.11C550.81,-56.73 554.23,-66.1 562.32,-66.1 567.63,-66.1 570.93,-62.06 572.21,-56.29"/>
<polygon fill="black" stroke="black" points="575.71,-56.23 572.56,-46.11 568.72,-55.99 575.71,-56.23"/>
<text text-anchor="middle" x="562.32" y="-69.9" font-family="Times New Roman,serif" font-size="14.00">x==0</text>
</g>
</g>
</svg>
