<svg xmlns="http://www.w3.org/2000/svg" xmlns:xlink="http://www.w3.org/1999/xlink" xmlns:s="https://github.com/nturley/netlistsvg" width="849" height="281">
  <style>svg {
    stroke:#000;
    fill:none;
  }
  text {
    fill:#000;
    stroke:none;
    font-size:10px;
    font-weight: bold;
    font-family: "Courier New", monospace;
  }
  .nodelabel {
    text-anchor: middle;
  }
  .inputPortLabel {
    text-anchor: end;
  }
  .splitjoinBody {
    fill:#000;
  }</style>
  <g s:type="and" transform="translate(742,19.5)" s:width="30" s:height="25" id="cell_$auto$aigmap.cc:123:execute$27">
    <s:alias val="$and"/>
    <s:alias val="$logic_and"/>
    <s:alias val="$_AND_"/>
    <path d="M0,0 L0,25 L15,25 A15 12.5 0 0 0 15,0 Z" class="cell_$auto$aigmap.cc:123:execute$27"/>
    <g s:x="0" s:y="5" s:pid="A"/>
    <g s:x="0" s:y="20" s:pid="B"/>
    <g s:x="30" s:y="12.5" s:pid="Y"/>
  </g>
  <g s:type="and" transform="translate(157,134)" s:width="30" s:height="25" id="cell_$auto$aigmap.cc:123:execute$29">
    <s:alias val="$and"/>
    <s:alias val="$logic_and"/>
    <s:alias val="$_AND_"/>
    <path d="M0,0 L0,25 L15,25 A15 12.5 0 0 0 15,0 Z" class="cell_$auto$aigmap.cc:123:execute$29"/>
    <g s:x="0" s:y="5" s:pid="A"/>
    <g s:x="0" s:y="20" s:pid="B"/>
    <g s:x="30" s:y="12.5" s:pid="Y"/>
  </g>
  <g s:type="and" transform="translate(157,194)" s:width="30" s:height="25" id="cell_$auto$aigmap.cc:123:execute$31">
    <s:alias val="$and"/>
    <s:alias val="$logic_and"/>
    <s:alias val="$_AND_"/>
    <path d="M0,0 L0,25 L15,25 A15 12.5 0 0 0 15,0 Z" class="cell_$auto$aigmap.cc:123:execute$31"/>
    <g s:x="0" s:y="5" s:pid="A"/>
    <g s:x="0" s:y="20" s:pid="B"/>
    <g s:x="30" s:y="12.5" s:pid="Y"/>
  </g>
  <g s:type="and" transform="translate(352,184)" s:width="30" s:height="25" id="cell_$auto$aigmap.cc:123:execute$33">
    <s:alias val="$and"/>
    <s:alias val="$logic_and"/>
    <s:alias val="$_AND_"/>
    <path d="M0,0 L0,25 L15,25 A15 12.5 0 0 0 15,0 Z" class="cell_$auto$aigmap.cc:123:execute$33"/>
    <g s:x="0" s:y="5" s:pid="A"/>
    <g s:x="0" s:y="20" s:pid="B"/>
    <g s:x="30" s:y="12.5" s:pid="Y"/>
  </g>
  <g s:type="and" transform="translate(547,224)" s:width="30" s:height="25" id="cell_$auto$aigmap.cc:123:execute$35">
    <s:alias val="$and"/>
    <s:alias val="$logic_and"/>
    <s:alias val="$_AND_"/>
    <path d="M0,0 L0,25 L15,25 A15 12.5 0 0 0 15,0 Z" class="cell_$auto$aigmap.cc:123:execute$35"/>
    <g s:x="0" s:y="5" s:pid="A"/>
    <g s:x="0" s:y="20" s:pid="B"/>
    <g s:x="30" s:y="12.5" s:pid="Y"/>
  </g>
  <g s:type="and" transform="translate(287,126.5)" s:width="30" s:height="25" id="cell_$auto$aigmap.cc:123:execute$43">
    <s:alias val="$and"/>
    <s:alias val="$logic_and"/>
    <s:alias val="$_AND_"/>
    <path d="M0,0 L0,25 L15,25 A15 12.5 0 0 0 15,0 Z" class="cell_$auto$aigmap.cc:123:execute$43"/>
    <g s:x="0" s:y="5" s:pid="A"/>
    <g s:x="0" s:y="20" s:pid="B"/>
    <g s:x="30" s:y="12.5" s:pid="Y"/>
  </g>
  <g s:type="and" transform="translate(482,119)" s:width="30" s:height="25" id="cell_$auto$aigmap.cc:123:execute$51">
    <s:alias val="$and"/>
    <s:alias val="$logic_and"/>
    <s:alias val="$_AND_"/>
    <path d="M0,0 L0,25 L15,25 A15 12.5 0 0 0 15,0 Z" class="cell_$auto$aigmap.cc:123:execute$51"/>
    <g s:x="0" s:y="5" s:pid="A"/>
    <g s:x="0" s:y="20" s:pid="B"/>
    <g s:x="30" s:y="12.5" s:pid="Y"/>
  </g>
  <g s:type="and" transform="translate(677,111.5)" s:width="30" s:height="25" id="cell_$auto$aigmap.cc:123:execute$59">
    <s:alias val="$and"/>
    <s:alias val="$logic_and"/>
    <s:alias val="$_AND_"/>
    <path d="M0,0 L0,25 L15,25 A15 12.5 0 0 0 15,0 Z" class="cell_$auto$aigmap.cc:123:execute$59"/>
    <g s:x="0" s:y="5" s:pid="A"/>
    <g s:x="0" s:y="20" s:pid="B"/>
    <g s:x="30" s:y="12.5" s:pid="Y"/>
  </g>
  <g s:type="not" transform="translate(677,249)" s:width="30" s:height="20" id="cell_$auto$aigmap.cc:132:execute$37">
    <s:alias val="$_NOT_"/>
    <s:alias val="$not"/>
    <s:alias val="$logic_not"/>
    <path d="M0,0 L0,20 L20,10 Z" class="cell_$auto$aigmap.cc:132:execute$37"/>
    <circle cx="23" cy="10" r="3" class="cell_$auto$aigmap.cc:132:execute$37"/>
    <g s:x="0" s:y="10" s:pid="A"/>
    <g s:x="25" s:y="10" s:pid="Y"/>
  </g>
  <g s:type="not" transform="translate(222,196.5)" s:width="30" s:height="20" id="cell_$auto$aigmap.cc:132:execute$39">
    <s:alias val="$_NOT_"/>
    <s:alias val="$not"/>
    <s:alias val="$logic_not"/>
    <path d="M0,0 L0,20 L20,10 Z" class="cell_$auto$aigmap.cc:132:execute$39"/>
    <circle cx="23" cy="10" r="3" class="cell_$auto$aigmap.cc:132:execute$39"/>
    <g s:x="0" s:y="10" s:pid="A"/>
    <g s:x="25" s:y="10" s:pid="Y"/>
  </g>
  <g s:type="not" transform="translate(222,136.5)" s:width="30" s:height="20" id="cell_$auto$aigmap.cc:132:execute$41">
    <s:alias val="$_NOT_"/>
    <s:alias val="$not"/>
    <s:alias val="$logic_not"/>
    <path d="M0,0 L0,20 L20,10 Z" class="cell_$auto$aigmap.cc:132:execute$41"/>
    <circle cx="23" cy="10" r="3" class="cell_$auto$aigmap.cc:132:execute$41"/>
    <g s:x="0" s:y="10" s:pid="A"/>
    <g s:x="25" s:y="10" s:pid="Y"/>
  </g>
  <g s:type="not" transform="translate(352,129)" s:width="30" s:height="20" id="cell_$auto$aigmap.cc:132:execute$45">
    <s:alias val="$_NOT_"/>
    <s:alias val="$not"/>
    <s:alias val="$logic_not"/>
    <path d="M0,0 L0,20 L20,10 Z" class="cell_$auto$aigmap.cc:132:execute$45"/>
    <circle cx="23" cy="10" r="3" class="cell_$auto$aigmap.cc:132:execute$45"/>
    <g s:x="0" s:y="10" s:pid="A"/>
    <g s:x="25" s:y="10" s:pid="Y"/>
  </g>
  <g s:type="not" transform="translate(417,186.5)" s:width="30" s:height="20" id="cell_$auto$aigmap.cc:132:execute$47">
    <s:alias val="$_NOT_"/>
    <s:alias val="$not"/>
    <s:alias val="$logic_not"/>
    <path d="M0,0 L0,20 L20,10 Z" class="cell_$auto$aigmap.cc:132:execute$47"/>
    <circle cx="23" cy="10" r="3" class="cell_$auto$aigmap.cc:132:execute$47"/>
    <g s:x="0" s:y="10" s:pid="A"/>
    <g s:x="25" s:y="10" s:pid="Y"/>
  </g>
  <g s:type="not" transform="translate(417,129)" s:width="30" s:height="20" id="cell_$auto$aigmap.cc:132:execute$49">
    <s:alias val="$_NOT_"/>
    <s:alias val="$not"/>
    <s:alias val="$logic_not"/>
    <path d="M0,0 L0,20 L20,10 Z" class="cell_$auto$aigmap.cc:132:execute$49"/>
    <circle cx="23" cy="10" r="3" class="cell_$auto$aigmap.cc:132:execute$49"/>
    <g s:x="0" s:y="10" s:pid="A"/>
    <g s:x="25" s:y="10" s:pid="Y"/>
  </g>
  <g s:type="not" transform="translate(547,121.5)" s:width="30" s:height="20" id="cell_$auto$aigmap.cc:132:execute$53">
    <s:alias val="$_NOT_"/>
    <s:alias val="$not"/>
    <s:alias val="$logic_not"/>
    <path d="M0,0 L0,20 L20,10 Z" class="cell_$auto$aigmap.cc:132:execute$53"/>
    <circle cx="23" cy="10" r="3" class="cell_$auto$aigmap.cc:132:execute$53"/>
    <g s:x="0" s:y="10" s:pid="A"/>
    <g s:x="25" s:y="10" s:pid="Y"/>
  </g>
  <g s:type="not" transform="translate(612,226.5)" s:width="30" s:height="20" id="cell_$auto$aigmap.cc:132:execute$55">
    <s:alias val="$_NOT_"/>
    <s:alias val="$not"/>
    <s:alias val="$logic_not"/>
    <path d="M0,0 L0,20 L20,10 Z" class="cell_$auto$aigmap.cc:132:execute$55"/>
    <circle cx="23" cy="10" r="3" class="cell_$auto$aigmap.cc:132:execute$55"/>
    <g s:x="0" s:y="10" s:pid="A"/>
    <g s:x="25" s:y="10" s:pid="Y"/>
  </g>
  <g s:type="not" transform="translate(612,121.5)" s:width="30" s:height="20" id="cell_$auto$aigmap.cc:132:execute$57">
    <s:alias val="$_NOT_"/>
    <s:alias val="$not"/>
    <s:alias val="$logic_not"/>
    <path d="M0,0 L0,20 L20,10 Z" class="cell_$auto$aigmap.cc:132:execute$57"/>
    <circle cx="23" cy="10" r="3" class="cell_$auto$aigmap.cc:132:execute$57"/>
    <g s:x="0" s:y="10" s:pid="A"/>
    <g s:x="25" s:y="10" s:pid="Y"/>
  </g>
  <g s:type="not" transform="translate(742,114)" s:width="30" s:height="20" id="cell_$auto$aigmap.cc:132:execute$61">
    <s:alias val="$_NOT_"/>
    <s:alias val="$not"/>
    <s:alias val="$logic_not"/>
    <path d="M0,0 L0,20 L20,10 Z" class="cell_$auto$aigmap.cc:132:execute$61"/>
    <circle cx="23" cy="10" r="3" class="cell_$auto$aigmap.cc:132:execute$61"/>
    <g s:x="0" s:y="10" s:pid="A"/>
    <g s:x="25" s:y="10" s:pid="Y"/>
  </g>
  <g s:type="inputExt" transform="translate(12,24.5)" s:width="30" s:height="20" id="cell_y">
    <text x="15" y="-4" class="nodelabel cell_y" s:attribute="ref">y</text>
    <s:alias val="$_inputExt_"/>
    <path d="M0,0 L0,20 L15,20 L30,10 L15,0 Z" class="cell_y"/>
    <g s:x="28" s:y="10" s:pid="Y"/>
  </g>
  <g s:type="inputExt" transform="translate(77,144)" s:width="30" s:height="20" id="cell_w">
    <text x="15" y="-4" class="nodelabel cell_w" s:attribute="ref">w</text>
    <s:alias val="$_inputExt_"/>
    <path d="M0,0 L0,20 L15,20 L30,10 L15,0 Z" class="cell_w"/>
    <g s:x="28" s:y="10" s:pid="Y"/>
  </g>
  <g s:type="outputExt" transform="translate(807,22)" s:width="30" s:height="20" id="cell_Y2">
    <text x="15" y="-4" class="nodelabel cell_Y2" s:attribute="ref">Y2</text>
    <s:alias val="$_outputExt_"/>
    <path d="M30,0 L30,20 L15,20 L0,10 L15,0 Z" class="cell_Y2"/>
    <g s:x="0" s:y="10" s:pid="A"/>
  </g>
  <g s:type="outputExt" transform="translate(807,114)" s:width="30" s:height="20" id="cell_Y4">
    <text x="15" y="-4" class="nodelabel cell_Y4" s:attribute="ref">Y4</text>
    <s:alias val="$_outputExt_"/>
    <path d="M30,0 L30,20 L15,20 L0,10 L15,0 Z" class="cell_Y4"/>
    <g s:x="0" s:y="10" s:pid="A"/>
  </g>
  <g s:type="split" transform="translate(92.8,14)" s:width="5" s:height="40" id="cell_$split$,2,3,4,5,6,7,">
    <rect width="5" height="100" class="splitjoinBody" s:generic="body"/>
    <s:alias val="$_split_"/>
    <g s:x="0" s:y="20" s:pid="in"/>
    <g transform="translate(4,10)" s:x="4" s:y="10" s:pid="out0">
      <text x="5" y="-4">0</text>
    </g>
    <g transform="translate(4,30)" s:x="4" s:y="10" s:pid="out0">
      <text x="5" y="-4">1</text>
    </g>
    <g transform="translate(4,50)" s:x="4" s:y="10" s:pid="out0">
      <text x="5" y="-4">2</text>
    </g>
    <g transform="translate(4,70)" s:x="4" s:y="10" s:pid="out0">
      <text x="5" y="-4">4</text>
    </g>
    <g transform="translate(4,90)" s:x="4" s:y="10" s:pid="out0">
      <text x="5" y="-4">5</text>
    </g>
  </g>
  <line x1="97.8" x2="742" y1="24.5" y2="24.5" class="net_2"/>
  <line x1="702" x2="717" y1="259" y2="259" class="net_11"/>
  <line x1="717" x2="717" y1="259" y2="39.5" class="net_11"/>
  <line x1="717" x2="742" y1="39.5" y2="39.5" class="net_11"/>
  <line x1="97.8" x2="147" y1="44.5" y2="44.5" class="net_3"/>
  <line x1="147" x2="147" y1="44.5" y2="139" class="net_3"/>
  <line x1="147" x2="157" y1="139" y2="139" class="net_3"/>
  <line x1="105" x2="157" y1="154" y2="154" class="net_8"/>
  <line x1="105" x2="127" y1="154" y2="154" class="net_8"/>
  <line x1="127" x2="127" y1="154" y2="214" class="net_8"/>
  <circle cx="127" cy="154" r="2" style="fill:#000" class="net_8"/>
  <circle cx="127" cy="214" r="2" style="fill:#000" class="net_8"/>
  <line x1="127" x2="157" y1="214" y2="214" class="net_8"/>
  <line x1="105" x2="127" y1="154" y2="154" class="net_8"/>
  <line x1="127" x2="127" y1="154" y2="259" class="net_8"/>
  <line x1="127" x2="327" y1="259" y2="259" class="net_8"/>
  <line x1="327" x2="327" y1="259" y2="204" class="net_8"/>
  <circle cx="327" cy="259" r="2" style="fill:#000" class="net_8"/>
  <line x1="327" x2="352" y1="204" y2="204" class="net_8"/>
  <line x1="105" x2="127" y1="154" y2="154" class="net_8"/>
  <line x1="127" x2="127" y1="154" y2="259" class="net_8"/>
  <line x1="127" x2="522" y1="259" y2="259" class="net_8"/>
  <line x1="522" x2="522" y1="259" y2="244" class="net_8"/>
  <circle cx="522" cy="259" r="2" style="fill:#000" class="net_8"/>
  <line x1="522" x2="547" y1="244" y2="244" class="net_8"/>
  <line x1="105" x2="127" y1="154" y2="154" class="net_8"/>
  <line x1="127" x2="127" y1="154" y2="259" class="net_8"/>
  <line x1="127" x2="677" y1="259" y2="259" class="net_8"/>
  <line x1="97.8" x2="137" y1="64.5" y2="64.5" class="net_4"/>
  <line x1="137" x2="137" y1="64.5" y2="199" class="net_4"/>
  <line x1="137" x2="157" y1="199" y2="199" class="net_4"/>
  <line x1="97.8" x2="327" y1="84.5" y2="84.5" class="net_6"/>
  <line x1="327" x2="327" y1="84.5" y2="189" class="net_6"/>
  <line x1="327" x2="352" y1="189" y2="189" class="net_6"/>
  <line x1="97.3" x2="97.3" y1="105" y2="124" class="net_7"/>
  <line x1="97.3" x2="117" y1="124" y2="124" class="net_7"/>
  <line x1="117" x2="117" y1="124" y2="229" class="net_7"/>
  <line x1="117" x2="547" y1="229" y2="229" class="net_7"/>
  <line x1="247" x2="262" y1="206.5" y2="206.5" class="net_16"/>
  <line x1="262" x2="262" y1="206.5" y2="131.5" class="net_16"/>
  <line x1="262" x2="287" y1="131.5" y2="131.5" class="net_16"/>
  <line x1="247" x2="287" y1="146.5" y2="146.5" class="net_17"/>
  <line x1="442" x2="457" y1="196.5" y2="196.5" class="net_19"/>
  <line x1="457" x2="457" y1="196.5" y2="124" class="net_19"/>
  <line x1="457" x2="482" y1="124" y2="124" class="net_19"/>
  <line x1="442" x2="482" y1="139" y2="139" class="net_20"/>
  <line x1="637" x2="652" y1="236.5" y2="236.5" class="net_22"/>
  <line x1="652" x2="652" y1="236.5" y2="116.5" class="net_22"/>
  <line x1="652" x2="677" y1="116.5" y2="116.5" class="net_22"/>
  <line x1="637" x2="677" y1="131.5" y2="131.5" class="net_23"/>
  <line x1="187" x2="222" y1="206.5" y2="206.5" class="net_13"/>
  <line x1="187" x2="222" y1="146.5" y2="146.5" class="net_12"/>
  <line x1="317" x2="352" y1="139" y2="139" class="net_18"/>
  <line x1="382" x2="417" y1="196.5" y2="196.5" class="net_14"/>
  <line x1="377" x2="417" y1="139" y2="139" class="net_25"/>
  <line x1="512" x2="547" y1="131.5" y2="131.5" class="net_21"/>
  <line x1="577" x2="612" y1="236.5" y2="236.5" class="net_15"/>
  <line x1="572" x2="612" y1="131.5" y2="131.5" class="net_26"/>
  <line x1="707" x2="742" y1="124" y2="124" class="net_24"/>
  <line x1="772" x2="807" y1="32" y2="32" class="net_9"/>
  <line x1="767" x2="807" y1="124" y2="124" class="net_10"/>
  <line x1="40" x2="92.8" y1="34.5" y2="34.5" class="net_2,3,4,5,6,7"/>
</svg>
