<svg xmlns="http://www.w3.org/2000/svg" xmlns:xlink="http://www.w3.org/1999/xlink" xmlns:s="https://github.com/nturley/netlistsvg" width="449" height="252.5">
  <style>svg {
    stroke:#000;
    fill:none;
  }
  text {
    fill:#000;
    stroke:none;
    font-size:10px;
    font-weight: bold;
    font-family: "Courier New", monospace;
  }
  .nodelabel {
    text-anchor: middle;
  }
  .inputPortLabel {
    text-anchor: end;
  }
  .splitjoinBody {
    fill:#000;
  }</style>
  <g s:type="and" transform="translate(342,19.5)" s:width="30" s:height="25" id="cell_$and$top_module.v:35$5">
    <s:alias val="$and"/>
    <s:alias val="$logic_and"/>
    <s:alias val="$_AND_"/>
    <path d="M0,0 L0,25 L15,25 A15 12.5 0 0 0 15,0 Z" class="cell_$and$top_module.v:35$5"/>
    <g s:x="0" s:y="5" s:pid="A"/>
    <g s:x="0" s:y="20" s:pid="B"/>
    <g s:x="30" s:y="12.5" s:pid="Y"/>
  </g>
  <g s:type="and" transform="translate(147,75.5)" s:width="30" s:height="25" id="cell_$and$top_module.v:42$11">
    <s:alias val="$and"/>
    <s:alias val="$logic_and"/>
    <s:alias val="$_AND_"/>
    <path d="M0,0 L0,25 L15,25 A15 12.5 0 0 0 15,0 Z" class="cell_$and$top_module.v:42$11"/>
    <g s:x="0" s:y="5" s:pid="A"/>
    <g s:x="0" s:y="20" s:pid="B"/>
    <g s:x="30" s:y="12.5" s:pid="Y"/>
  </g>
  <g s:type="and" transform="translate(147,135.5)" s:width="30" s:height="25" id="cell_$and$top_module.v:43$12">
    <s:alias val="$and"/>
    <s:alias val="$logic_and"/>
    <s:alias val="$_AND_"/>
    <path d="M0,0 L0,25 L15,25 A15 12.5 0 0 0 15,0 Z" class="cell_$and$top_module.v:43$12"/>
    <g s:x="0" s:y="5" s:pid="A"/>
    <g s:x="0" s:y="20" s:pid="B"/>
    <g s:x="30" s:y="12.5" s:pid="Y"/>
  </g>
  <g s:type="and" transform="translate(212,165.5)" s:width="30" s:height="25" id="cell_$and$top_module.v:44$14">
    <s:alias val="$and"/>
    <s:alias val="$logic_and"/>
    <s:alias val="$_AND_"/>
    <path d="M0,0 L0,25 L15,25 A15 12.5 0 0 0 15,0 Z" class="cell_$and$top_module.v:44$14"/>
    <g s:x="0" s:y="5" s:pid="A"/>
    <g s:x="0" s:y="20" s:pid="B"/>
    <g s:x="30" s:y="12.5" s:pid="Y"/>
  </g>
  <g s:type="and" transform="translate(277,195.5)" s:width="30" s:height="25" id="cell_$and$top_module.v:45$16">
    <s:alias val="$and"/>
    <s:alias val="$logic_and"/>
    <s:alias val="$_AND_"/>
    <path d="M0,0 L0,25 L15,25 A15 12.5 0 0 0 15,0 Z" class="cell_$and$top_module.v:45$16"/>
    <g s:x="0" s:y="5" s:pid="A"/>
    <g s:x="0" s:y="20" s:pid="B"/>
    <g s:x="30" s:y="12.5" s:pid="Y"/>
  </g>
  <g s:type="not" transform="translate(277,35.5)" s:width="30" s:height="20" id="cell_$not$top_module.v:35$4">
    <s:alias val="$_NOT_"/>
    <s:alias val="$not"/>
    <s:alias val="$logic_not"/>
    <path d="M0,0 L0,20 L20,10 Z" class="cell_$not$top_module.v:35$4"/>
    <circle cx="23" cy="10" r="3" class="cell_$not$top_module.v:35$4"/>
    <g s:x="0" s:y="10" s:pid="A"/>
    <g s:x="25" s:y="10" s:pid="Y"/>
  </g>
  <g s:type="or" transform="translate(212,83)" s:width="30" s:height="25" id="cell_$or$top_module.v:42$13">
    <s:alias val="$or"/>
    <s:alias val="$logic_or"/>
    <s:alias val="$_OR_"/>
    <path d="M0,25 L0,25 L15,25 A15 12.5 0 0 0 15,0 L0,0" class="cell_$or$top_module.v:42$13"/>
    <path d="M0,0 A30 25 0 0 1 0,25" class="cell_$or$top_module.v:42$13"/>
    <g s:x="3" s:y="5" s:pid="A"/>
    <g s:x="3" s:y="20" s:pid="B"/>
    <g s:x="30" s:y="12.5" s:pid="Y"/>
  </g>
  <g s:type="or" transform="translate(277,90.5)" s:width="30" s:height="25" id="cell_$or$top_module.v:42$15">
    <s:alias val="$or"/>
    <s:alias val="$logic_or"/>
    <s:alias val="$_OR_"/>
    <path d="M0,25 L0,25 L15,25 A15 12.5 0 0 0 15,0 L0,0" class="cell_$or$top_module.v:42$15"/>
    <path d="M0,0 A30 25 0 0 1 0,25" class="cell_$or$top_module.v:42$15"/>
    <g s:x="3" s:y="5" s:pid="A"/>
    <g s:x="3" s:y="20" s:pid="B"/>
    <g s:x="30" s:y="12.5" s:pid="Y"/>
  </g>
  <g s:type="or" transform="translate(342,98)" s:width="30" s:height="25" id="cell_$or$top_module.v:42$17">
    <s:alias val="$or"/>
    <s:alias val="$logic_or"/>
    <s:alias val="$_OR_"/>
    <path d="M0,25 L0,25 L15,25 A15 12.5 0 0 0 15,0 L0,0" class="cell_$or$top_module.v:42$17"/>
    <path d="M0,0 A30 25 0 0 1 0,25" class="cell_$or$top_module.v:42$17"/>
    <g s:x="3" s:y="5" s:pid="A"/>
    <g s:x="3" s:y="20" s:pid="B"/>
    <g s:x="30" s:y="12.5" s:pid="Y"/>
  </g>
  <g s:type="inputExt" transform="translate(12,60.5)" s:width="30" s:height="20" id="cell_y">
    <text x="15" y="-4" class="nodelabel cell_y" s:attribute="ref">y</text>
    <s:alias val="$_inputExt_"/>
    <path d="M0,0 L0,20 L15,20 L30,10 L15,0 Z" class="cell_y"/>
    <g s:x="28" s:y="10" s:pid="Y"/>
  </g>
  <g s:type="inputExt" transform="translate(77,220.5)" s:width="30" s:height="20" id="cell_w">
    <text x="15" y="-4" class="nodelabel cell_w" s:attribute="ref">w</text>
    <s:alias val="$_inputExt_"/>
    <path d="M0,0 L0,20 L15,20 L30,10 L15,0 Z" class="cell_w"/>
    <g s:x="28" s:y="10" s:pid="Y"/>
  </g>
  <g s:type="outputExt" transform="translate(407,22)" s:width="30" s:height="20" id="cell_Y2">
    <text x="15" y="-4" class="nodelabel cell_Y2" s:attribute="ref">Y2</text>
    <s:alias val="$_outputExt_"/>
    <path d="M30,0 L30,20 L15,20 L0,10 L15,0 Z" class="cell_Y2"/>
    <g s:x="0" s:y="10" s:pid="A"/>
  </g>
  <g s:type="outputExt" transform="translate(407,100.5)" s:width="30" s:height="20" id="cell_Y4">
    <text x="15" y="-4" class="nodelabel cell_Y4" s:attribute="ref">Y4</text>
    <s:alias val="$_outputExt_"/>
    <path d="M30,0 L30,20 L15,20 L0,10 L15,0 Z" class="cell_Y4"/>
    <g s:x="0" s:y="10" s:pid="A"/>
  </g>
  <g s:type="split" transform="translate(92.8,50)" s:width="5" s:height="40" id="cell_$split$,2,3,4,5,6,7,">
    <rect width="5" height="100" class="splitjoinBody" s:generic="body"/>
    <s:alias val="$_split_"/>
    <g s:x="0" s:y="20" s:pid="in"/>
    <g transform="translate(4,10)" s:x="4" s:y="10" s:pid="out0">
      <text x="5" y="-4">0</text>
    </g>
    <g transform="translate(4,30)" s:x="4" s:y="10" s:pid="out0">
      <text x="5" y="-4">1</text>
    </g>
    <g transform="translate(4,50)" s:x="4" s:y="10" s:pid="out0">
      <text x="5" y="-4">2</text>
    </g>
    <g transform="translate(4,70)" s:x="4" s:y="10" s:pid="out0">
      <text x="5" y="-4">4</text>
    </g>
    <g transform="translate(4,90)" s:x="4" s:y="10" s:pid="out0">
      <text x="5" y="-4">5</text>
    </g>
  </g>
  <line x1="97.8" x2="117" y1="60.5" y2="60.5" class="net_2"/>
  <line x1="117" x2="117" y1="60.5" y2="24.5" class="net_2"/>
  <line x1="117" x2="342" y1="24.5" y2="24.5" class="net_2"/>
  <line x1="302" x2="317" y1="45.5" y2="45.5" class="net_11"/>
  <line x1="317" x2="317" y1="45.5" y2="39.5" class="net_11"/>
  <line x1="317" x2="342" y1="39.5" y2="39.5" class="net_11"/>
  <line x1="97.8" x2="147" y1="80.5" y2="80.5" class="net_3"/>
  <line x1="105" x2="127" y1="230.5" y2="230.5" class="net_8"/>
  <line x1="127" x2="127" y1="230.5" y2="95.5" class="net_8"/>
  <circle cx="127" cy="95.5" r="2" style="fill:#000" class="net_8"/>
  <line x1="127" x2="147" y1="95.5" y2="95.5" class="net_8"/>
  <line x1="105" x2="127" y1="230.5" y2="230.5" class="net_8"/>
  <line x1="127" x2="127" y1="230.5" y2="155.5" class="net_8"/>
  <circle cx="127" cy="155.5" r="2" style="fill:#000" class="net_8"/>
  <line x1="127" x2="147" y1="155.5" y2="155.5" class="net_8"/>
  <line x1="105" x2="127" y1="230.5" y2="230.5" class="net_8"/>
  <line x1="127" x2="127" y1="230.5" y2="185.5" class="net_8"/>
  <circle cx="127" cy="185.5" r="2" style="fill:#000" class="net_8"/>
  <line x1="127" x2="212" y1="185.5" y2="185.5" class="net_8"/>
  <line x1="105" x2="127" y1="230.5" y2="230.5" class="net_8"/>
  <line x1="127" x2="127" y1="230.5" y2="215.5" class="net_8"/>
  <circle cx="127" cy="215.5" r="2" style="fill:#000" class="net_8"/>
  <line x1="127" x2="277" y1="215.5" y2="215.5" class="net_8"/>
  <line x1="105" x2="127" y1="230.5" y2="230.5" class="net_8"/>
  <line x1="127" x2="127" y1="230.5" y2="45.5" class="net_8"/>
  <line x1="127" x2="277" y1="45.5" y2="45.5" class="net_8"/>
  <line x1="97.8" x2="137" y1="100.5" y2="100.5" class="net_4"/>
  <line x1="137" x2="137" y1="100.5" y2="140.5" class="net_4"/>
  <line x1="137" x2="147" y1="140.5" y2="140.5" class="net_4"/>
  <line x1="97.8" x2="117" y1="120.5" y2="120.5" class="net_6"/>
  <line x1="117" x2="117" y1="120.5" y2="170.5" class="net_6"/>
  <line x1="117" x2="212" y1="170.5" y2="170.5" class="net_6"/>
  <line x1="97.3" x2="97.3" y1="141" y2="200.5" class="net_7"/>
  <line x1="97.3" x2="277" y1="200.5" y2="200.5" class="net_7"/>
  <line x1="177" x2="215" y1="88" y2="88" class="net_12"/>
  <line x1="177" x2="187" y1="148" y2="148" class="net_13"/>
  <line x1="187" x2="187" y1="148" y2="103" class="net_13"/>
  <line x1="187" x2="215" y1="103" y2="103" class="net_13"/>
  <line x1="242" x2="280" y1="95.5" y2="95.5" class="net_16"/>
  <line x1="242" x2="252" y1="178" y2="178" class="net_14"/>
  <line x1="252" x2="252" y1="178" y2="110.5" class="net_14"/>
  <line x1="252" x2="280" y1="110.5" y2="110.5" class="net_14"/>
  <line x1="307" x2="345" y1="103" y2="103" class="net_17"/>
  <line x1="307" x2="317" y1="208" y2="208" class="net_15"/>
  <line x1="317" x2="317" y1="208" y2="118" class="net_15"/>
  <line x1="317" x2="345" y1="118" y2="118" class="net_15"/>
  <line x1="372" x2="407" y1="32" y2="32" class="net_9"/>
  <line x1="372" x2="407" y1="110.5" y2="110.5" class="net_10"/>
  <line x1="40" x2="92.8" y1="70.5" y2="70.5" class="net_2,3,4,5,6,7"/>
</svg>
