<?xml version="1.0" encoding="UTF-8" standalone="no"?>
<!DOCTYPE svg PUBLIC "-//W3C//DTD SVG 1.1//EN"
 "http://www.w3.org/Graphics/SVG/1.1/DTD/svg11.dtd">
<!-- Generated by graphviz version 4.0.0 (20220529.0937)
 -->
<!-- Title: top_module Pages: 1 -->
<svg width="1899pt" height="2713pt"
 viewBox="0.00 0.00 1899.08 2712.74" xmlns="http://www.w3.org/2000/svg" xmlns:xlink="http://www.w3.org/1999/xlink">
<g id="graph0" class="graph" transform="scale(1 1) rotate(0) translate(4 2708.74)">
<title>top_module</title>
<polygon fill="white" stroke="transparent" points="-4,4 -4,-2708.74 1895.08,-2708.74 1895.08,4 -4,4"/>
<text text-anchor="middle" x="945.54" y="-7.8" font-family="Times New Roman,serif" font-size="14.00">top_module</text>
<!-- n1 -->
<g id="node1" class="node">
<title>n1</title>
<polygon fill="none" stroke="black" points="932.73,-1779.74 757.95,-1761.74 932.73,-1743.74 1107.51,-1761.74 932.73,-1779.74"/>
<text text-anchor="middle" x="932.73" y="-1758.04" font-family="Times New Roman,serif" font-size="14.00">next_state_SB_LUT4_O_9_I1</text>
</g>
<!-- x13 -->
<g id="node24" class="node">
<title>x13</title>
<path fill="none" stroke="black" d="M1217.37,-1769.74C1217.37,-1769.74 1255.37,-1769.74 1255.37,-1769.74 1261.37,-1769.74 1267.37,-1775.74 1267.37,-1781.74 1267.37,-1781.74 1267.37,-1793.74 1267.37,-1793.74 1267.37,-1799.74 1261.37,-1805.74 1255.37,-1805.74 1255.37,-1805.74 1217.37,-1805.74 1217.37,-1805.74 1211.37,-1805.74 1205.37,-1799.74 1205.37,-1793.74 1205.37,-1793.74 1205.37,-1781.74 1205.37,-1781.74 1205.37,-1775.74 1211.37,-1769.74 1217.37,-1769.74"/>
<text text-anchor="middle" x="1236.37" y="-1784.04" font-family="Times New Roman,serif" font-size="14.00">1:1 &#45; 0:0</text>
</g>
<!-- n1&#45;&gt;x13 -->
<g id="edge40" class="edge">
<title>n1:e&#45;&gt;x13:w</title>
<path fill="none" stroke="#e7298a" d="M1107.37,-1761.74C1148.74,-1761.74 1158.77,-1783.65 1194.99,-1787.24"/>
<polygon fill="#e7298a" stroke="#e7298a" points="1195.22,-1790.76 1205.37,-1787.74 1195.55,-1783.76 1195.22,-1790.76"/>
</g>
<!-- x14 -->
<g id="node25" class="node">
<title>x14</title>
<path fill="none" stroke="black" d="M1217.37,-1714.74C1217.37,-1714.74 1255.37,-1714.74 1255.37,-1714.74 1261.37,-1714.74 1267.37,-1720.74 1267.37,-1726.74 1267.37,-1726.74 1267.37,-1738.74 1267.37,-1738.74 1267.37,-1744.74 1261.37,-1750.74 1255.37,-1750.74 1255.37,-1750.74 1217.37,-1750.74 1217.37,-1750.74 1211.37,-1750.74 1205.37,-1744.74 1205.37,-1738.74 1205.37,-1738.74 1205.37,-1726.74 1205.37,-1726.74 1205.37,-1720.74 1211.37,-1714.74 1217.37,-1714.74"/>
<text text-anchor="middle" x="1236.37" y="-1729.04" font-family="Times New Roman,serif" font-size="14.00">2:2 &#45; 0:0</text>
</g>
<!-- n1&#45;&gt;x14 -->
<g id="edge41" class="edge">
<title>n1:e&#45;&gt;x14:w</title>
<path fill="none" stroke="#e7298a" d="M1107.37,-1761.74C1149.07,-1761.74 1158.52,-1737.3 1194.93,-1733.29"/>
<polygon fill="#e7298a" stroke="#e7298a" points="1195.57,-1736.76 1205.37,-1732.74 1195.2,-1729.77 1195.57,-1736.76"/>
</g>
<!-- n2 -->
<g id="node2" class="node">
<title>n2</title>
<polygon fill="none" stroke="black" points="56.55,-1073.28 56.55,-1088.19 40.73,-1098.74 18.36,-1098.74 2.55,-1088.19 2.55,-1073.28 18.36,-1062.74 40.73,-1062.74 56.55,-1073.28"/>
<text text-anchor="middle" x="29.55" y="-1077.04" font-family="Times New Roman,serif" font-size="14.00">in</text>
</g>
<!-- c13 -->
<g id="node14" class="node">
<title>c13</title>
<polygon fill="none" stroke="black" points="253.59,-1917.74 253.59,-2009.74 479.59,-2009.74 479.59,-1917.74 253.59,-1917.74"/>
<text text-anchor="middle" x="267.59" y="-1994.54" font-family="Times New Roman,serif" font-size="14.00">I0</text>
<polyline fill="none" stroke="black" points="253.59,-1986.74 281.59,-1986.74 "/>
<text text-anchor="middle" x="267.59" y="-1971.54" font-family="Times New Roman,serif" font-size="14.00">I1</text>
<polyline fill="none" stroke="black" points="253.59,-1963.74 281.59,-1963.74 "/>
<text text-anchor="middle" x="267.59" y="-1948.54" font-family="Times New Roman,serif" font-size="14.00">I2</text>
<polyline fill="none" stroke="black" points="253.59,-1940.74 281.59,-1940.74 "/>
<text text-anchor="middle" x="267.59" y="-1925.54" font-family="Times New Roman,serif" font-size="14.00">I3</text>
<polyline fill="none" stroke="black" points="281.59,-1917.74 281.59,-2009.74 "/>
<text text-anchor="middle" x="367.09" y="-1967.54" font-family="Times New Roman,serif" font-size="14.00">next_state_SB_LUT4_O_8</text>
<text text-anchor="middle" x="367.09" y="-1952.54" font-family="Times New Roman,serif" font-size="14.00">SB_LUT4</text>
<polyline fill="none" stroke="black" points="452.59,-1917.74 452.59,-2009.74 "/>
<text text-anchor="middle" x="466.09" y="-1960.04" font-family="Times New Roman,serif" font-size="14.00">O</text>
</g>
<!-- n2&#45;&gt;c13 -->
<g id="edge42" class="edge">
<title>n2:e&#45;&gt;c13:w</title>
<path fill="none" stroke="#666666" d="M57.55,-1080.74C76.44,-1080.74 75.56,-1741.9 77.09,-1760.74 82.23,-1823.76 52.21,-1856.21 96.09,-1901.74 142.68,-1950.08 178.37,-1930.89 242.49,-1928.9"/>
<polygon fill="#666666" stroke="#666666" points="242.65,-1932.4 252.59,-1928.74 242.54,-1925.4 242.65,-1932.4"/>
</g>
<!-- c15 -->
<g id="node23" class="node">
<title>c15</title>
<polygon fill="none" stroke="black" points="1365.37,-1698.74 1365.37,-1790.74 1591.37,-1790.74 1591.37,-1698.74 1365.37,-1698.74"/>
<text text-anchor="middle" x="1379.37" y="-1775.54" font-family="Times New Roman,serif" font-size="14.00">I0</text>
<polyline fill="none" stroke="black" points="1365.37,-1767.74 1393.37,-1767.74 "/>
<text text-anchor="middle" x="1379.37" y="-1752.54" font-family="Times New Roman,serif" font-size="14.00">I1</text>
<polyline fill="none" stroke="black" points="1365.37,-1744.74 1393.37,-1744.74 "/>
<text text-anchor="middle" x="1379.37" y="-1729.54" font-family="Times New Roman,serif" font-size="14.00">I2</text>
<polyline fill="none" stroke="black" points="1365.37,-1721.74 1393.37,-1721.74 "/>
<text text-anchor="middle" x="1379.37" y="-1706.54" font-family="Times New Roman,serif" font-size="14.00">I3</text>
<polyline fill="none" stroke="black" points="1393.37,-1698.74 1393.37,-1790.74 "/>
<text text-anchor="middle" x="1478.87" y="-1748.54" font-family="Times New Roman,serif" font-size="14.00">next_state_SB_LUT4_O_9</text>
<text text-anchor="middle" x="1478.87" y="-1733.54" font-family="Times New Roman,serif" font-size="14.00">SB_LUT4</text>
<polyline fill="none" stroke="black" points="1564.37,-1698.74 1564.37,-1790.74 "/>
<text text-anchor="middle" x="1577.87" y="-1741.04" font-family="Times New Roman,serif" font-size="14.00">O</text>
</g>
<!-- n2&#45;&gt;c15 -->
<g id="edge43" class="edge">
<title>n2:e&#45;&gt;c15:w</title>
<path fill="none" stroke="#666666" d="M57.55,-1080.74C72.36,-1080.74 88.48,-1600.02 96.09,-1612.74 104.2,-1626.28 110.31,-1631.74 126.09,-1631.74 126.09,-1631.74 126.09,-1631.74 1237.37,-1631.74 1300.35,-1631.74 1299.11,-1701.44 1355.06,-1709.06"/>
<polygon fill="#666666" stroke="#666666" points="1355.17,-1712.58 1365.37,-1709.74 1355.62,-1705.59 1355.17,-1712.58"/>
</g>
<!-- c17 -->
<g id="node34" class="node">
<title>c17</title>
<polygon fill="none" stroke="black" points="253.59,-58.74 253.59,-150.74 479.59,-150.74 479.59,-58.74 253.59,-58.74"/>
<text text-anchor="middle" x="267.59" y="-135.54" font-family="Times New Roman,serif" font-size="14.00">I0</text>
<polyline fill="none" stroke="black" points="253.59,-127.74 281.59,-127.74 "/>
<text text-anchor="middle" x="267.59" y="-112.54" font-family="Times New Roman,serif" font-size="14.00">I1</text>
<polyline fill="none" stroke="black" points="253.59,-104.74 281.59,-104.74 "/>
<text text-anchor="middle" x="267.59" y="-89.54" font-family="Times New Roman,serif" font-size="14.00">I2</text>
<polyline fill="none" stroke="black" points="253.59,-81.74 281.59,-81.74 "/>
<text text-anchor="middle" x="267.59" y="-66.54" font-family="Times New Roman,serif" font-size="14.00">I3</text>
<polyline fill="none" stroke="black" points="281.59,-58.74 281.59,-150.74 "/>
<text text-anchor="middle" x="367.09" y="-108.54" font-family="Times New Roman,serif" font-size="14.00">next_state_SB_LUT4_O_7</text>
<text text-anchor="middle" x="367.09" y="-93.54" font-family="Times New Roman,serif" font-size="14.00">SB_LUT4</text>
<polyline fill="none" stroke="black" points="452.59,-58.74 452.59,-150.74 "/>
<text text-anchor="middle" x="466.09" y="-101.04" font-family="Times New Roman,serif" font-size="14.00">O</text>
</g>
<!-- n2&#45;&gt;c17 -->
<g id="edge44" class="edge">
<title>n2:e&#45;&gt;c17:w</title>
<path fill="none" stroke="#666666" d="M57.55,-1080.74C72.1,-1080.74 85.62,-43.84 96.09,-33.74 115.93,-14.62 131.6,-26.15 158.09,-33.74 202.16,-46.36 203.19,-86.18 242.39,-92.02"/>
<polygon fill="#666666" stroke="#666666" points="242.37,-95.53 252.59,-92.74 242.86,-88.54 242.37,-95.53"/>
</g>
<!-- c18 -->
<g id="node39" class="node">
<title>c18</title>
<polygon fill="none" stroke="black" points="253.59,-462.74 253.59,-554.74 479.59,-554.74 479.59,-462.74 253.59,-462.74"/>
<text text-anchor="middle" x="267.59" y="-539.54" font-family="Times New Roman,serif" font-size="14.00">I0</text>
<polyline fill="none" stroke="black" points="253.59,-531.74 281.59,-531.74 "/>
<text text-anchor="middle" x="267.59" y="-516.54" font-family="Times New Roman,serif" font-size="14.00">I1</text>
<polyline fill="none" stroke="black" points="253.59,-508.74 281.59,-508.74 "/>
<text text-anchor="middle" x="267.59" y="-493.54" font-family="Times New Roman,serif" font-size="14.00">I2</text>
<polyline fill="none" stroke="black" points="253.59,-485.74 281.59,-485.74 "/>
<text text-anchor="middle" x="267.59" y="-470.54" font-family="Times New Roman,serif" font-size="14.00">I3</text>
<polyline fill="none" stroke="black" points="281.59,-462.74 281.59,-554.74 "/>
<text text-anchor="middle" x="367.09" y="-512.54" font-family="Times New Roman,serif" font-size="14.00">next_state_SB_LUT4_O_6</text>
<text text-anchor="middle" x="367.09" y="-497.54" font-family="Times New Roman,serif" font-size="14.00">SB_LUT4</text>
<polyline fill="none" stroke="black" points="452.59,-462.74 452.59,-554.74 "/>
<text text-anchor="middle" x="466.09" y="-505.04" font-family="Times New Roman,serif" font-size="14.00">O</text>
</g>
<!-- n2&#45;&gt;c18 -->
<g id="edge45" class="edge">
<title>n2:e&#45;&gt;c18:w</title>
<path fill="none" stroke="#666666" d="M57.55,-1080.74C93.33,-1080.74 70.04,-462.27 96.09,-437.74 116.15,-418.85 131.6,-430.15 158.09,-437.74 202.16,-450.36 203.19,-490.18 242.39,-496.02"/>
<polygon fill="#666666" stroke="#666666" points="242.37,-499.53 252.59,-496.74 242.86,-492.54 242.37,-499.53"/>
</g>
<!-- c19 -->
<g id="node44" class="node">
<title>c19</title>
<polygon fill="none" stroke="black" points="253.59,-260.74 253.59,-352.74 479.59,-352.74 479.59,-260.74 253.59,-260.74"/>
<text text-anchor="middle" x="267.59" y="-337.54" font-family="Times New Roman,serif" font-size="14.00">I0</text>
<polyline fill="none" stroke="black" points="253.59,-329.74 281.59,-329.74 "/>
<text text-anchor="middle" x="267.59" y="-314.54" font-family="Times New Roman,serif" font-size="14.00">I1</text>
<polyline fill="none" stroke="black" points="253.59,-306.74 281.59,-306.74 "/>
<text text-anchor="middle" x="267.59" y="-291.54" font-family="Times New Roman,serif" font-size="14.00">I2</text>
<polyline fill="none" stroke="black" points="253.59,-283.74 281.59,-283.74 "/>
<text text-anchor="middle" x="267.59" y="-268.54" font-family="Times New Roman,serif" font-size="14.00">I3</text>
<polyline fill="none" stroke="black" points="281.59,-260.74 281.59,-352.74 "/>
<text text-anchor="middle" x="367.09" y="-310.54" font-family="Times New Roman,serif" font-size="14.00">next_state_SB_LUT4_O_5</text>
<text text-anchor="middle" x="367.09" y="-295.54" font-family="Times New Roman,serif" font-size="14.00">SB_LUT4</text>
<polyline fill="none" stroke="black" points="452.59,-260.74 452.59,-352.74 "/>
<text text-anchor="middle" x="466.09" y="-303.04" font-family="Times New Roman,serif" font-size="14.00">O</text>
</g>
<!-- n2&#45;&gt;c19 -->
<g id="edge46" class="edge">
<title>n2:e&#45;&gt;c19:w</title>
<path fill="none" stroke="#666666" d="M57.55,-1080.74C81.04,-1080.74 79.1,-251.97 96.09,-235.74 116.02,-216.7 131.6,-228.15 158.09,-235.74 202.16,-248.36 203.19,-288.18 242.39,-294.02"/>
<polygon fill="#666666" stroke="#666666" points="242.37,-297.53 252.59,-294.74 242.86,-290.54 242.37,-297.53"/>
</g>
<!-- c20 -->
<g id="node49" class="node">
<title>c20</title>
<polygon fill="none" stroke="black" points="253.59,-1451.74 253.59,-1543.74 479.59,-1543.74 479.59,-1451.74 253.59,-1451.74"/>
<text text-anchor="middle" x="267.59" y="-1528.54" font-family="Times New Roman,serif" font-size="14.00">I0</text>
<polyline fill="none" stroke="black" points="253.59,-1520.74 281.59,-1520.74 "/>
<text text-anchor="middle" x="267.59" y="-1505.54" font-family="Times New Roman,serif" font-size="14.00">I1</text>
<polyline fill="none" stroke="black" points="253.59,-1497.74 281.59,-1497.74 "/>
<text text-anchor="middle" x="267.59" y="-1482.54" font-family="Times New Roman,serif" font-size="14.00">I2</text>
<polyline fill="none" stroke="black" points="253.59,-1474.74 281.59,-1474.74 "/>
<text text-anchor="middle" x="267.59" y="-1459.54" font-family="Times New Roman,serif" font-size="14.00">I3</text>
<polyline fill="none" stroke="black" points="281.59,-1451.74 281.59,-1543.74 "/>
<text text-anchor="middle" x="367.09" y="-1501.54" font-family="Times New Roman,serif" font-size="14.00">next_state_SB_LUT4_O_4</text>
<text text-anchor="middle" x="367.09" y="-1486.54" font-family="Times New Roman,serif" font-size="14.00">SB_LUT4</text>
<polyline fill="none" stroke="black" points="452.59,-1451.74 452.59,-1543.74 "/>
<text text-anchor="middle" x="466.09" y="-1494.04" font-family="Times New Roman,serif" font-size="14.00">O</text>
</g>
<!-- n2&#45;&gt;c20 -->
<g id="edge47" class="edge">
<title>n2:e&#45;&gt;c20:w</title>
<path fill="none" stroke="#666666" d="M57.55,-1080.74C79.04,-1080.74 81.1,-1450.33 96.09,-1465.74 142.61,-1513.54 178.78,-1488.5 242.55,-1485.94"/>
<polygon fill="#666666" stroke="#666666" points="242.67,-1489.44 252.59,-1485.74 242.52,-1482.44 242.67,-1489.44"/>
</g>
<!-- c21 -->
<g id="node54" class="node">
<title>c21</title>
<polygon fill="none" stroke="black" points="253.59,-1046.74 253.59,-1138.74 479.59,-1138.74 479.59,-1046.74 253.59,-1046.74"/>
<text text-anchor="middle" x="267.59" y="-1123.54" font-family="Times New Roman,serif" font-size="14.00">I0</text>
<polyline fill="none" stroke="black" points="253.59,-1115.74 281.59,-1115.74 "/>
<text text-anchor="middle" x="267.59" y="-1100.54" font-family="Times New Roman,serif" font-size="14.00">I1</text>
<polyline fill="none" stroke="black" points="253.59,-1092.74 281.59,-1092.74 "/>
<text text-anchor="middle" x="267.59" y="-1077.54" font-family="Times New Roman,serif" font-size="14.00">I2</text>
<polyline fill="none" stroke="black" points="253.59,-1069.74 281.59,-1069.74 "/>
<text text-anchor="middle" x="267.59" y="-1054.54" font-family="Times New Roman,serif" font-size="14.00">I3</text>
<polyline fill="none" stroke="black" points="281.59,-1046.74 281.59,-1138.74 "/>
<text text-anchor="middle" x="367.09" y="-1096.54" font-family="Times New Roman,serif" font-size="14.00">next_state_SB_LUT4_O_3</text>
<text text-anchor="middle" x="367.09" y="-1081.54" font-family="Times New Roman,serif" font-size="14.00">SB_LUT4</text>
<polyline fill="none" stroke="black" points="452.59,-1046.74 452.59,-1138.74 "/>
<text text-anchor="middle" x="466.09" y="-1089.04" font-family="Times New Roman,serif" font-size="14.00">O</text>
</g>
<!-- n2&#45;&gt;c21 -->
<g id="edge48" class="edge">
<title>n2:e&#45;&gt;c21:w</title>
<path fill="none" stroke="#666666" d="M57.55,-1080.74C140.68,-1080.74 164.02,-1080.74 242.25,-1080.74"/>
<polygon fill="#666666" stroke="#666666" points="242.59,-1084.24 252.59,-1080.74 242.59,-1077.24 242.59,-1084.24"/>
</g>
<!-- c22 -->
<g id="node58" class="node">
<title>c22</title>
<polygon fill="none" stroke="black" points="253.59,-1239.74 253.59,-1331.74 479.59,-1331.74 479.59,-1239.74 253.59,-1239.74"/>
<text text-anchor="middle" x="267.59" y="-1316.54" font-family="Times New Roman,serif" font-size="14.00">I0</text>
<polyline fill="none" stroke="black" points="253.59,-1308.74 281.59,-1308.74 "/>
<text text-anchor="middle" x="267.59" y="-1293.54" font-family="Times New Roman,serif" font-size="14.00">I1</text>
<polyline fill="none" stroke="black" points="253.59,-1285.74 281.59,-1285.74 "/>
<text text-anchor="middle" x="267.59" y="-1270.54" font-family="Times New Roman,serif" font-size="14.00">I2</text>
<polyline fill="none" stroke="black" points="253.59,-1262.74 281.59,-1262.74 "/>
<text text-anchor="middle" x="267.59" y="-1247.54" font-family="Times New Roman,serif" font-size="14.00">I3</text>
<polyline fill="none" stroke="black" points="281.59,-1239.74 281.59,-1331.74 "/>
<text text-anchor="middle" x="367.09" y="-1289.54" font-family="Times New Roman,serif" font-size="14.00">next_state_SB_LUT4_O_2</text>
<text text-anchor="middle" x="367.09" y="-1274.54" font-family="Times New Roman,serif" font-size="14.00">SB_LUT4</text>
<polyline fill="none" stroke="black" points="452.59,-1239.74 452.59,-1331.74 "/>
<text text-anchor="middle" x="466.09" y="-1282.04" font-family="Times New Roman,serif" font-size="14.00">O</text>
</g>
<!-- n2&#45;&gt;c22 -->
<g id="edge49" class="edge">
<title>n2:e&#45;&gt;c22:w</title>
<path fill="none" stroke="#666666" d="M57.55,-1080.74C87.04,-1080.74 74.96,-1187.16 96.09,-1207.74 119.76,-1230.79 201.12,-1247.69 242.34,-1250.37"/>
<polygon fill="#666666" stroke="#666666" points="242.47,-1253.87 252.59,-1250.74 242.73,-1246.88 242.47,-1253.87"/>
</g>
<!-- c23 -->
<g id="node64" class="node">
<title>c23</title>
<polygon fill="none" stroke="black" points="253.59,-866.74 253.59,-958.74 479.59,-958.74 479.59,-866.74 253.59,-866.74"/>
<text text-anchor="middle" x="267.59" y="-943.54" font-family="Times New Roman,serif" font-size="14.00">I0</text>
<polyline fill="none" stroke="black" points="253.59,-935.74 281.59,-935.74 "/>
<text text-anchor="middle" x="267.59" y="-920.54" font-family="Times New Roman,serif" font-size="14.00">I1</text>
<polyline fill="none" stroke="black" points="253.59,-912.74 281.59,-912.74 "/>
<text text-anchor="middle" x="267.59" y="-897.54" font-family="Times New Roman,serif" font-size="14.00">I2</text>
<polyline fill="none" stroke="black" points="253.59,-889.74 281.59,-889.74 "/>
<text text-anchor="middle" x="267.59" y="-874.54" font-family="Times New Roman,serif" font-size="14.00">I3</text>
<polyline fill="none" stroke="black" points="281.59,-866.74 281.59,-958.74 "/>
<text text-anchor="middle" x="367.09" y="-916.54" font-family="Times New Roman,serif" font-size="14.00">next_state_SB_LUT4_O_1</text>
<text text-anchor="middle" x="367.09" y="-901.54" font-family="Times New Roman,serif" font-size="14.00">SB_LUT4</text>
<polyline fill="none" stroke="black" points="452.59,-866.74 452.59,-958.74 "/>
<text text-anchor="middle" x="466.09" y="-909.04" font-family="Times New Roman,serif" font-size="14.00">O</text>
</g>
<!-- n2&#45;&gt;c23 -->
<g id="edge50" class="edge">
<title>n2:e&#45;&gt;c23:w</title>
<path fill="none" stroke="#666666" d="M57.55,-1080.74C111.34,-1080.74 55.14,-876.62 96.09,-841.74 117.07,-823.87 131.6,-834.15 158.09,-841.74 202.16,-854.36 203.19,-894.18 242.39,-900.02"/>
<polygon fill="#666666" stroke="#666666" points="242.37,-903.53 252.59,-900.74 242.86,-896.54 242.37,-903.53"/>
</g>
<!-- c24 -->
<g id="node69" class="node">
<title>c24</title>
<polygon fill="none" stroke="black" points="260.59,-664.74 260.59,-756.74 472.59,-756.74 472.59,-664.74 260.59,-664.74"/>
<text text-anchor="middle" x="274.59" y="-741.54" font-family="Times New Roman,serif" font-size="14.00">I0</text>
<polyline fill="none" stroke="black" points="260.59,-733.74 288.59,-733.74 "/>
<text text-anchor="middle" x="274.59" y="-718.54" font-family="Times New Roman,serif" font-size="14.00">I1</text>
<polyline fill="none" stroke="black" points="260.59,-710.74 288.59,-710.74 "/>
<text text-anchor="middle" x="274.59" y="-695.54" font-family="Times New Roman,serif" font-size="14.00">I2</text>
<polyline fill="none" stroke="black" points="260.59,-687.74 288.59,-687.74 "/>
<text text-anchor="middle" x="274.59" y="-672.54" font-family="Times New Roman,serif" font-size="14.00">I3</text>
<polyline fill="none" stroke="black" points="288.59,-664.74 288.59,-756.74 "/>
<text text-anchor="middle" x="367.09" y="-714.54" font-family="Times New Roman,serif" font-size="14.00">next_state_SB_LUT4_O</text>
<text text-anchor="middle" x="367.09" y="-699.54" font-family="Times New Roman,serif" font-size="14.00">SB_LUT4</text>
<polyline fill="none" stroke="black" points="445.59,-664.74 445.59,-756.74 "/>
<text text-anchor="middle" x="459.09" y="-707.04" font-family="Times New Roman,serif" font-size="14.00">O</text>
</g>
<!-- n2&#45;&gt;c24 -->
<g id="edge51" class="edge">
<title>n2:e&#45;&gt;c24:w</title>
<path fill="none" stroke="#666666" d="M57.55,-1080.74C106.73,-1080.74 59.83,-672.97 96.09,-639.74 150.49,-589.89 179.65,-689.08 249.47,-698.09"/>
<polygon fill="#666666" stroke="#666666" points="249.39,-701.59 259.59,-698.74 249.84,-694.61 249.39,-701.59"/>
</g>
<!-- x56 -->
<g id="node77" class="node">
<title>x56</title>
<path fill="none" stroke="black" d="M347.59,-1852.74C347.59,-1852.74 385.59,-1852.74 385.59,-1852.74 391.59,-1852.74 397.59,-1858.74 397.59,-1864.74 397.59,-1864.74 397.59,-1886.74 397.59,-1886.74 397.59,-1892.74 391.59,-1898.74 385.59,-1898.74 385.59,-1898.74 347.59,-1898.74 347.59,-1898.74 341.59,-1898.74 335.59,-1892.74 335.59,-1886.74 335.59,-1886.74 335.59,-1864.74 335.59,-1864.74 335.59,-1858.74 341.59,-1852.74 347.59,-1852.74"/>
<text text-anchor="middle" x="366.59" y="-1883.54" font-family="Times New Roman,serif" font-size="14.00">0:0 &#45; 1:1</text>
<polyline fill="none" stroke="black" points="335.59,-1875.74 397.59,-1875.74 "/>
<text text-anchor="middle" x="366.59" y="-1860.54" font-family="Times New Roman,serif" font-size="14.00">0:0 &#45; 0:0</text>
</g>
<!-- n2&#45;&gt;x56 -->
<g id="edge52" class="edge">
<title>n2:e&#45;&gt;x56:w</title>
<path fill="none" stroke="#666666" d="M57.55,-1080.74C73.25,-1080.74 76.16,-1630.06 77.09,-1645.74 83.04,-1745.47 25.12,-1799.42 96.09,-1869.74 169.17,-1942.14 224.62,-1891.26 324.47,-1887.91"/>
<polygon fill="#666666" stroke="#666666" points="324.65,-1891.41 334.59,-1887.74 324.54,-1884.41 324.65,-1891.41"/>
</g>
<!-- n3 -->
<g id="node3" class="node">
<title>n3</title>
<polygon fill="none" stroke="black" points="1890.94,-1026.28 1890.94,-1041.19 1860.94,-1051.74 1818.52,-1051.74 1788.52,-1041.19 1788.52,-1026.28 1818.52,-1015.74 1860.94,-1015.74 1890.94,-1026.28"/>
<text text-anchor="middle" x="1839.73" y="-1030.04" font-family="Times New Roman,serif" font-size="14.00">next_state</text>
</g>
<!-- n4 -->
<g id="node4" class="node">
<title>n4</title>
<polygon fill="none" stroke="black" points="1868.42,-2238.28 1868.42,-2253.19 1851.61,-2263.74 1827.85,-2263.74 1811.04,-2253.19 1811.04,-2238.28 1827.85,-2227.74 1851.61,-2227.74 1868.42,-2238.28"/>
<text text-anchor="middle" x="1839.73" y="-2242.04" font-family="Times New Roman,serif" font-size="14.00">out1</text>
</g>
<!-- n4&#45;&gt;c13 -->
<g id="edge64" class="edge">
<title>n4:e&#45;&gt;c13:w</title>
<path fill="none" stroke="#7570b3" d="M1869.73,-2245.74C1877.74,-2245.74 1874.55,-2258.23 1868.73,-2263.74 1850.05,-2281.41 1836.18,-2268.35 1810.88,-2263.74 1580.28,-2221.72 1551.77,-2077.74 1317.37,-2077.74 628.09,-2077.74 628.09,-2077.74 628.09,-2077.74 530.91,-2077.74 568.64,-1956.16 479.59,-1917.24 468.09,-1912.21 262.6,-1908.49 253.59,-1917.24 250.11,-1920.62 247.56,-1933.54 248.11,-1942.57"/>
<polygon fill="#7570b3" stroke="#7570b3" points="245.06,-1944.29 252.59,-1951.74 251.34,-1941.22 245.06,-1944.29"/>
</g>
<!-- n5 -->
<g id="node5" class="node">
<title>n5</title>
<polygon fill="none" stroke="black" points="1868.42,-1843.28 1868.42,-1858.19 1851.61,-1868.74 1827.85,-1868.74 1811.04,-1858.19 1811.04,-1843.28 1827.85,-1832.74 1851.61,-1832.74 1868.42,-1843.28"/>
<text text-anchor="middle" x="1839.73" y="-1847.04" font-family="Times New Roman,serif" font-size="14.00">out2</text>
</g>
<!-- n5&#45;&gt;c15 -->
<g id="edge66" class="edge">
<title>n5:e&#45;&gt;c15:w</title>
<path fill="none" stroke="#66a61e" d="M1869.73,-1850.74C1877.74,-1850.74 1874.55,-1863.23 1868.73,-1868.74 1850.05,-1886.41 1835.17,-1877.17 1810.88,-1868.74 1789.21,-1861.21 1791.59,-1845.47 1770.37,-1836.74 1686.61,-1802.29 1428.6,-1856.08 1365.37,-1791.24 1365.04,-1790.89 1364.71,-1790.51 1364.4,-1790.11"/>
<polygon fill="#66a61e" stroke="#66a61e" points="1367.9,-1789.73 1364.37,-1779.74 1360.9,-1789.75 1367.9,-1789.73"/>
</g>
<!-- n5&#45;&gt;x56 -->
<g id="edge67" class="edge">
<title>n5:e&#45;&gt;x56:w</title>
<path fill="none" stroke="#66a61e" d="M1869.73,-1850.74C1877.74,-1850.74 1874.55,-1863.23 1868.73,-1868.74 1850.05,-1886.41 1836.47,-1871.28 1810.88,-1868.74 1770.51,-1864.72 1761.95,-1850.74 1721.37,-1850.74 708.09,-1850.74 708.09,-1850.74 708.09,-1850.74 666.7,-1850.74 366.04,-1824.21 335.59,-1852.24 335.12,-1852.67 334.67,-1853.18 334.26,-1853.73"/>
<polygon fill="#66a61e" stroke="#66a61e" points="330.76,-1853.86 334.59,-1863.74 337.75,-1853.63 330.76,-1853.86"/>
</g>
<!-- n6 -->
<g id="node6" class="node">
<title>n6</title>
<polygon fill="none" stroke="black" points="59.14,-1956.28 59.14,-1971.19 41.8,-1981.74 17.29,-1981.74 -0.05,-1971.19 -0.05,-1956.28 17.29,-1945.74 41.8,-1945.74 59.14,-1956.28"/>
<text text-anchor="middle" x="29.55" y="-1960.04" font-family="Times New Roman,serif" font-size="14.00">state</text>
</g>
<!-- x0 -->
<g id="node8" class="node">
<title>x0</title>
<path fill="none" stroke="black" d="M108.09,-2230.74C108.09,-2230.74 146.09,-2230.74 146.09,-2230.74 152.09,-2230.74 158.09,-2236.74 158.09,-2242.74 158.09,-2242.74 158.09,-2254.74 158.09,-2254.74 158.09,-2260.74 152.09,-2266.74 146.09,-2266.74 146.09,-2266.74 108.09,-2266.74 108.09,-2266.74 102.09,-2266.74 96.09,-2260.74 96.09,-2254.74 96.09,-2254.74 96.09,-2242.74 96.09,-2242.74 96.09,-2236.74 102.09,-2230.74 108.09,-2230.74"/>
<text text-anchor="middle" x="127.09" y="-2245.04" font-family="Times New Roman,serif" font-size="14.00">0:0 &#45; 0:0</text>
</g>
<!-- n6&#45;&gt;x0 -->
<g id="edge68" class="edge">
<title>n6:e&#45;&gt;x0:w</title>
<path fill="none" stroke="#66a61e" d="M59.09,-1963.74C73.38,-1963.74 78.94,-2191.79 91.38,-2239.9"/>
<polygon fill="#66a61e" stroke="#66a61e" points="88.3,-2241.56 96.09,-2248.74 94.48,-2238.27 88.3,-2241.56"/>
</g>
<!-- x1 -->
<g id="node9" class="node">
<title>x1</title>
<path fill="none" stroke="black" d="M108.09,-2175.74C108.09,-2175.74 146.09,-2175.74 146.09,-2175.74 152.09,-2175.74 158.09,-2181.74 158.09,-2187.74 158.09,-2187.74 158.09,-2199.74 158.09,-2199.74 158.09,-2205.74 152.09,-2211.74 146.09,-2211.74 146.09,-2211.74 108.09,-2211.74 108.09,-2211.74 102.09,-2211.74 96.09,-2205.74 96.09,-2199.74 96.09,-2199.74 96.09,-2187.74 96.09,-2187.74 96.09,-2181.74 102.09,-2175.74 108.09,-2175.74"/>
<text text-anchor="middle" x="127.09" y="-2190.04" font-family="Times New Roman,serif" font-size="14.00">1:1 &#45; 0:0</text>
</g>
<!-- n6&#45;&gt;x1 -->
<g id="edge73" class="edge">
<title>n6:e&#45;&gt;x1:w</title>
<path fill="none" stroke="#66a61e" d="M59.09,-1963.74C82.2,-1963.74 72.91,-2146.98 89.06,-2186.35"/>
<polygon fill="#66a61e" stroke="#66a61e" points="86.66,-2188.91 96.09,-2193.74 91.73,-2184.08 86.66,-2188.91"/>
</g>
<!-- x2 -->
<g id="node10" class="node">
<title>x2</title>
<path fill="none" stroke="black" d="M108.09,-2120.74C108.09,-2120.74 146.09,-2120.74 146.09,-2120.74 152.09,-2120.74 158.09,-2126.74 158.09,-2132.74 158.09,-2132.74 158.09,-2144.74 158.09,-2144.74 158.09,-2150.74 152.09,-2156.74 146.09,-2156.74 146.09,-2156.74 108.09,-2156.74 108.09,-2156.74 102.09,-2156.74 96.09,-2150.74 96.09,-2144.74 96.09,-2144.74 96.09,-2132.74 96.09,-2132.74 96.09,-2126.74 102.09,-2120.74 108.09,-2120.74"/>
<text text-anchor="middle" x="127.09" y="-2135.04" font-family="Times New Roman,serif" font-size="14.00">3:3 &#45; 0:0</text>
</g>
<!-- n6&#45;&gt;x2 -->
<g id="edge76" class="edge">
<title>n6:e&#45;&gt;x2:w</title>
<path fill="none" stroke="#66a61e" d="M59.09,-1963.74C76.41,-1963.74 76.55,-2096.53 89.44,-2130.76"/>
<polygon fill="#66a61e" stroke="#66a61e" points="87,-2133.3 96.09,-2138.74 92.37,-2128.82 87,-2133.3"/>
</g>
<!-- x3 -->
<g id="node11" class="node">
<title>x3</title>
<path fill="none" stroke="black" d="M108.09,-2065.74C108.09,-2065.74 146.09,-2065.74 146.09,-2065.74 152.09,-2065.74 158.09,-2071.74 158.09,-2077.74 158.09,-2077.74 158.09,-2089.74 158.09,-2089.74 158.09,-2095.74 152.09,-2101.74 146.09,-2101.74 146.09,-2101.74 108.09,-2101.74 108.09,-2101.74 102.09,-2101.74 96.09,-2095.74 96.09,-2089.74 96.09,-2089.74 96.09,-2077.74 96.09,-2077.74 96.09,-2071.74 102.09,-2065.74 108.09,-2065.74"/>
<text text-anchor="middle" x="127.09" y="-2080.04" font-family="Times New Roman,serif" font-size="14.00">4:4 &#45; 0:0</text>
</g>
<!-- n6&#45;&gt;x3 -->
<g id="edge80" class="edge">
<title>n6:e&#45;&gt;x3:w</title>
<path fill="none" stroke="#66a61e" d="M59.09,-1963.74C83.4,-1963.74 72.26,-2054.79 87.43,-2078.27"/>
<polygon fill="#66a61e" stroke="#66a61e" points="85.77,-2081.36 96.09,-2083.74 89.51,-2075.44 85.77,-2081.36"/>
</g>
<!-- x6 -->
<g id="node15" class="node">
<title>x6</title>
<path fill="none" stroke="black" d="M108.09,-1955.74C108.09,-1955.74 146.09,-1955.74 146.09,-1955.74 152.09,-1955.74 158.09,-1961.74 158.09,-1967.74 158.09,-1967.74 158.09,-1979.74 158.09,-1979.74 158.09,-1985.74 152.09,-1991.74 146.09,-1991.74 146.09,-1991.74 108.09,-1991.74 108.09,-1991.74 102.09,-1991.74 96.09,-1985.74 96.09,-1979.74 96.09,-1979.74 96.09,-1967.74 96.09,-1967.74 96.09,-1961.74 102.09,-1955.74 108.09,-1955.74"/>
<text text-anchor="middle" x="127.09" y="-1970.04" font-family="Times New Roman,serif" font-size="14.00">0:0 &#45; 0:0</text>
</g>
<!-- n6&#45;&gt;x6 -->
<g id="edge87" class="edge">
<title>n6:e&#45;&gt;x6:w</title>
<path fill="none" stroke="#66a61e" d="M59.09,-1963.74C72.43,-1963.74 65.17,-1981.78 77.09,-1987.74 82.81,-1990.6 84.72,-1984.77 87.71,-1979.79"/>
<polygon fill="#66a61e" stroke="#66a61e" points="90.03,-1982.43 96.09,-1973.74 85.94,-1976.75 90.03,-1982.43"/>
</g>
<!-- x10 -->
<g id="node20" class="node">
<title>x10</title>
<path fill="none" stroke="black" d="M108.09,-1715.74C108.09,-1715.74 146.09,-1715.74 146.09,-1715.74 152.09,-1715.74 158.09,-1721.74 158.09,-1727.74 158.09,-1727.74 158.09,-1739.74 158.09,-1739.74 158.09,-1745.74 152.09,-1751.74 146.09,-1751.74 146.09,-1751.74 108.09,-1751.74 108.09,-1751.74 102.09,-1751.74 96.09,-1745.74 96.09,-1739.74 96.09,-1739.74 96.09,-1727.74 96.09,-1727.74 96.09,-1721.74 102.09,-1715.74 108.09,-1715.74"/>
<text text-anchor="middle" x="127.09" y="-1730.04" font-family="Times New Roman,serif" font-size="14.00">2:2 &#45; 0:0</text>
</g>
<!-- n6&#45;&gt;x10 -->
<g id="edge69" class="edge">
<title>n6:e&#45;&gt;x10:w</title>
<path fill="none" stroke="#66a61e" d="M59.09,-1963.74C67.55,-1963.74 72.04,-1968.64 78.09,-1962.74 94.3,-1946.94 75.85,-1779.1 89.26,-1741.28"/>
<polygon fill="#66a61e" stroke="#66a61e" points="91.97,-1743.5 96.09,-1733.74 86.78,-1738.8 91.97,-1743.5"/>
</g>
<!-- x11 -->
<g id="node21" class="node">
<title>x11</title>
<path fill="none" stroke="black" d="M108.09,-1660.74C108.09,-1660.74 146.09,-1660.74 146.09,-1660.74 152.09,-1660.74 158.09,-1666.74 158.09,-1672.74 158.09,-1672.74 158.09,-1684.74 158.09,-1684.74 158.09,-1690.74 152.09,-1696.74 146.09,-1696.74 146.09,-1696.74 108.09,-1696.74 108.09,-1696.74 102.09,-1696.74 96.09,-1690.74 96.09,-1684.74 96.09,-1684.74 96.09,-1672.74 96.09,-1672.74 96.09,-1666.74 102.09,-1660.74 108.09,-1660.74"/>
<text text-anchor="middle" x="127.09" y="-1675.04" font-family="Times New Roman,serif" font-size="14.00">8:8 &#45; 0:0</text>
</g>
<!-- n6&#45;&gt;x11 -->
<g id="edge70" class="edge">
<title>n6:e&#45;&gt;x11:w</title>
<path fill="none" stroke="#66a61e" d="M59.09,-1963.74C82.04,-1963.74 72.94,-1938.1 78.09,-1915.74 83.37,-1892.82 72.58,-1722.73 88.81,-1685.8"/>
<polygon fill="#66a61e" stroke="#66a61e" points="91.35,-1688.21 96.09,-1678.74 86.48,-1683.19 91.35,-1688.21"/>
</g>
<!-- x18 -->
<g id="node30" class="node">
<title>x18</title>
<path fill="none" stroke="black" d="M108.09,-2559.74C108.09,-2559.74 146.09,-2559.74 146.09,-2559.74 152.09,-2559.74 158.09,-2565.74 158.09,-2571.74 158.09,-2571.74 158.09,-2583.74 158.09,-2583.74 158.09,-2589.74 152.09,-2595.74 146.09,-2595.74 146.09,-2595.74 108.09,-2595.74 108.09,-2595.74 102.09,-2595.74 96.09,-2589.74 96.09,-2583.74 96.09,-2583.74 96.09,-2571.74 96.09,-2571.74 96.09,-2565.74 102.09,-2559.74 108.09,-2559.74"/>
<text text-anchor="middle" x="127.09" y="-2574.04" font-family="Times New Roman,serif" font-size="14.00">8:8 &#45; 0:0</text>
</g>
<!-- n6&#45;&gt;x18 -->
<g id="edge71" class="edge">
<title>n6:e&#45;&gt;x18:w</title>
<path fill="none" stroke="#66a61e" d="M59.09,-1963.74C66.99,-1963.74 84.62,-2488.87 93.98,-2567.85"/>
<polygon fill="#66a61e" stroke="#66a61e" points="90.58,-2568.69 96.09,-2577.74 97.43,-2567.23 90.58,-2568.69"/>
</g>
<!-- x19 -->
<g id="node31" class="node">
<title>x19</title>
<path fill="none" stroke="black" d="M108.09,-2504.74C108.09,-2504.74 146.09,-2504.74 146.09,-2504.74 152.09,-2504.74 158.09,-2510.74 158.09,-2516.74 158.09,-2516.74 158.09,-2528.74 158.09,-2528.74 158.09,-2534.74 152.09,-2540.74 146.09,-2540.74 146.09,-2540.74 108.09,-2540.74 108.09,-2540.74 102.09,-2540.74 96.09,-2534.74 96.09,-2528.74 96.09,-2528.74 96.09,-2516.74 96.09,-2516.74 96.09,-2510.74 102.09,-2504.74 108.09,-2504.74"/>
<text text-anchor="middle" x="127.09" y="-2519.04" font-family="Times New Roman,serif" font-size="14.00">9:9 &#45; 0:0</text>
</g>
<!-- n6&#45;&gt;x19 -->
<g id="edge72" class="edge">
<title>n6:e&#45;&gt;x19:w</title>
<path fill="none" stroke="#66a61e" d="M59.09,-1963.74C87.97,-1963.74 68.32,-2444.86 90.19,-2514.4"/>
<polygon fill="#66a61e" stroke="#66a61e" points="87.46,-2516.6 96.09,-2522.74 93.17,-2512.56 87.46,-2516.6"/>
</g>
<!-- x22 -->
<g id="node35" class="node">
<title>x22</title>
<path fill="none" stroke="black" d="M108.09,-43.74C108.09,-43.74 146.09,-43.74 146.09,-43.74 152.09,-43.74 158.09,-49.74 158.09,-55.74 158.09,-55.74 158.09,-67.74 158.09,-67.74 158.09,-73.74 152.09,-79.74 146.09,-79.74 146.09,-79.74 108.09,-79.74 108.09,-79.74 102.09,-79.74 96.09,-73.74 96.09,-67.74 96.09,-67.74 96.09,-55.74 96.09,-55.74 96.09,-49.74 102.09,-43.74 108.09,-43.74"/>
<text text-anchor="middle" x="127.09" y="-58.04" font-family="Times New Roman,serif" font-size="14.00">1:1 &#45; 0:0</text>
</g>
<!-- n6&#45;&gt;x22 -->
<g id="edge74" class="edge">
<title>n6:e&#45;&gt;x22:w</title>
<path fill="none" stroke="#66a61e" d="M59.09,-1963.74C84.41,-1963.74 70.93,-218.12 92.98,-71.52"/>
<polygon fill="#66a61e" stroke="#66a61e" points="96.4,-72.33 96.09,-61.74 89.73,-70.21 96.4,-72.33"/>
</g>
<!-- x26 -->
<g id="node40" class="node">
<title>x26</title>
<path fill="none" stroke="black" d="M108.09,-447.74C108.09,-447.74 146.09,-447.74 146.09,-447.74 152.09,-447.74 158.09,-453.74 158.09,-459.74 158.09,-459.74 158.09,-471.74 158.09,-471.74 158.09,-477.74 152.09,-483.74 146.09,-483.74 146.09,-483.74 108.09,-483.74 108.09,-483.74 102.09,-483.74 96.09,-477.74 96.09,-471.74 96.09,-471.74 96.09,-459.74 96.09,-459.74 96.09,-453.74 102.09,-447.74 108.09,-447.74"/>
<text text-anchor="middle" x="127.09" y="-462.04" font-family="Times New Roman,serif" font-size="14.00">2:2 &#45; 0:0</text>
</g>
<!-- n6&#45;&gt;x26 -->
<g id="edge75" class="edge">
<title>n6:e&#45;&gt;x26:w</title>
<path fill="none" stroke="#66a61e" d="M59.09,-1963.74C78.91,-1963.74 75.67,-605.67 93.27,-475.7"/>
<polygon fill="#66a61e" stroke="#66a61e" points="96.74,-476.31 96.09,-465.74 90,-474.41 96.74,-476.31"/>
</g>
<!-- x30 -->
<g id="node45" class="node">
<title>x30</title>
<path fill="none" stroke="black" d="M108.09,-245.74C108.09,-245.74 146.09,-245.74 146.09,-245.74 152.09,-245.74 158.09,-251.74 158.09,-257.74 158.09,-257.74 158.09,-269.74 158.09,-269.74 158.09,-275.74 152.09,-281.74 146.09,-281.74 146.09,-281.74 108.09,-281.74 108.09,-281.74 102.09,-281.74 96.09,-275.74 96.09,-269.74 96.09,-269.74 96.09,-257.74 96.09,-257.74 96.09,-251.74 102.09,-245.74 108.09,-245.74"/>
<text text-anchor="middle" x="127.09" y="-260.04" font-family="Times New Roman,serif" font-size="14.00">3:3 &#45; 0:0</text>
</g>
<!-- n6&#45;&gt;x30 -->
<g id="edge77" class="edge">
<title>n6:e&#45;&gt;x30:w</title>
<path fill="none" stroke="#66a61e" d="M59.09,-1963.74C70.37,-1963.74 83.09,-413.04 94.49,-273.72"/>
<polygon fill="#66a61e" stroke="#66a61e" points="97.97,-274.17 96.09,-263.74 91.05,-273.06 97.97,-274.17"/>
</g>
<!-- x34 -->
<g id="node50" class="node">
<title>x34</title>
<path fill="none" stroke="black" d="M108.09,-1420.74C108.09,-1420.74 146.09,-1420.74 146.09,-1420.74 152.09,-1420.74 158.09,-1426.74 158.09,-1432.74 158.09,-1432.74 158.09,-1444.74 158.09,-1444.74 158.09,-1450.74 152.09,-1456.74 146.09,-1456.74 146.09,-1456.74 108.09,-1456.74 108.09,-1456.74 102.09,-1456.74 96.09,-1450.74 96.09,-1444.74 96.09,-1444.74 96.09,-1432.74 96.09,-1432.74 96.09,-1426.74 102.09,-1420.74 108.09,-1420.74"/>
<text text-anchor="middle" x="127.09" y="-1435.04" font-family="Times New Roman,serif" font-size="14.00">4:4 &#45; 0:0</text>
</g>
<!-- n6&#45;&gt;x34 -->
<g id="edge78" class="edge">
<title>n6:e&#45;&gt;x34:w</title>
<path fill="none" stroke="#66a61e" d="M59.09,-1963.74C76.5,-1963.74 75.62,-1904.97 78.09,-1887.74 81.34,-1865.1 72.8,-1507.19 90.52,-1447.23"/>
<polygon fill="#66a61e" stroke="#66a61e" points="93.54,-1449.02 96.09,-1438.74 87.68,-1445.18 93.54,-1449.02"/>
</g>
<!-- x38 -->
<g id="node55" class="node">
<title>x38</title>
<path fill="none" stroke="black" d="M108.09,-1015.74C108.09,-1015.74 146.09,-1015.74 146.09,-1015.74 152.09,-1015.74 158.09,-1021.74 158.09,-1027.74 158.09,-1027.74 158.09,-1039.74 158.09,-1039.74 158.09,-1045.74 152.09,-1051.74 146.09,-1051.74 146.09,-1051.74 108.09,-1051.74 108.09,-1051.74 102.09,-1051.74 96.09,-1045.74 96.09,-1039.74 96.09,-1039.74 96.09,-1027.74 96.09,-1027.74 96.09,-1021.74 102.09,-1015.74 108.09,-1015.74"/>
<text text-anchor="middle" x="127.09" y="-1030.04" font-family="Times New Roman,serif" font-size="14.00">5:5 &#45; 0:0</text>
</g>
<!-- n6&#45;&gt;x38 -->
<g id="edge79" class="edge">
<title>n6:e&#45;&gt;x38:w</title>
<path fill="none" stroke="#66a61e" d="M59.09,-1963.74C83.43,-1963.74 71.82,-1139.53 91.95,-1042.94"/>
<polygon fill="#66a61e" stroke="#66a61e" points="95.18,-1044.29 96.09,-1033.74 88.8,-1041.42 95.18,-1044.29"/>
</g>
<!-- x41 -->
<g id="node59" class="node">
<title>x41</title>
<path fill="none" stroke="black" d="M108.09,-1310.74C108.09,-1310.74 146.09,-1310.74 146.09,-1310.74 152.09,-1310.74 158.09,-1316.74 158.09,-1322.74 158.09,-1322.74 158.09,-1334.74 158.09,-1334.74 158.09,-1340.74 152.09,-1346.74 146.09,-1346.74 146.09,-1346.74 108.09,-1346.74 108.09,-1346.74 102.09,-1346.74 96.09,-1340.74 96.09,-1334.74 96.09,-1334.74 96.09,-1322.74 96.09,-1322.74 96.09,-1316.74 102.09,-1310.74 108.09,-1310.74"/>
<text text-anchor="middle" x="127.09" y="-1325.04" font-family="Times New Roman,serif" font-size="14.00">6:6 &#45; 0:0</text>
</g>
<!-- n6&#45;&gt;x41 -->
<g id="edge81" class="edge">
<title>n6:e&#45;&gt;x41:w</title>
<path fill="none" stroke="#66a61e" d="M59.09,-1963.74C75.49,-1963.74 78.1,-1417.2 92.5,-1338.21"/>
<polygon fill="#66a61e" stroke="#66a61e" points="95.82,-1339.33 96.09,-1328.74 89.27,-1336.85 95.82,-1339.33"/>
</g>
<!-- x42 -->
<g id="node60" class="node">
<title>x42</title>
<path fill="none" stroke="black" d="M108.09,-1255.74C108.09,-1255.74 146.09,-1255.74 146.09,-1255.74 152.09,-1255.74 158.09,-1261.74 158.09,-1267.74 158.09,-1267.74 158.09,-1279.74 158.09,-1279.74 158.09,-1285.74 152.09,-1291.74 146.09,-1291.74 146.09,-1291.74 108.09,-1291.74 108.09,-1291.74 102.09,-1291.74 96.09,-1285.74 96.09,-1279.74 96.09,-1279.74 96.09,-1267.74 96.09,-1267.74 96.09,-1261.74 102.09,-1255.74 108.09,-1255.74"/>
<text text-anchor="middle" x="127.09" y="-1270.04" font-family="Times New Roman,serif" font-size="14.00">7:7 &#45; 0:0</text>
</g>
<!-- n6&#45;&gt;x42 -->
<g id="edge82" class="edge">
<title>n6:e&#45;&gt;x42:w</title>
<path fill="none" stroke="#66a61e" d="M59.09,-1963.74C76.96,-1963.74 76.99,-1366.1 92.38,-1283.23"/>
<polygon fill="#66a61e" stroke="#66a61e" points="95.71,-1284.33 96.09,-1273.74 89.19,-1281.78 95.71,-1284.33"/>
</g>
<!-- x46 -->
<g id="node65" class="node">
<title>x46</title>
<path fill="none" stroke="black" d="M108.09,-851.74C108.09,-851.74 146.09,-851.74 146.09,-851.74 152.09,-851.74 158.09,-857.74 158.09,-863.74 158.09,-863.74 158.09,-875.74 158.09,-875.74 158.09,-881.74 152.09,-887.74 146.09,-887.74 146.09,-887.74 108.09,-887.74 108.09,-887.74 102.09,-887.74 96.09,-881.74 96.09,-875.74 96.09,-875.74 96.09,-863.74 96.09,-863.74 96.09,-857.74 102.09,-851.74 108.09,-851.74"/>
<text text-anchor="middle" x="127.09" y="-866.04" font-family="Times New Roman,serif" font-size="14.00">5:5 &#45; 0:0</text>
</g>
<!-- n6&#45;&gt;x46 -->
<g id="edge83" class="edge">
<title>n6:e&#45;&gt;x46:w</title>
<path fill="none" stroke="#66a61e" d="M59.09,-1963.74C73.45,-1963.74 80.13,-988.14 93.63,-879.53"/>
<polygon fill="#66a61e" stroke="#66a61e" points="97.05,-880.29 96.09,-869.74 90.26,-878.58 97.05,-880.29"/>
</g>
<!-- x50 -->
<g id="node70" class="node">
<title>x50</title>
<path fill="none" stroke="black" d="M108.09,-649.74C108.09,-649.74 146.09,-649.74 146.09,-649.74 152.09,-649.74 158.09,-655.74 158.09,-661.74 158.09,-661.74 158.09,-673.74 158.09,-673.74 158.09,-679.74 152.09,-685.74 146.09,-685.74 146.09,-685.74 108.09,-685.74 108.09,-685.74 102.09,-685.74 96.09,-679.74 96.09,-673.74 96.09,-673.74 96.09,-661.74 96.09,-661.74 96.09,-655.74 102.09,-649.74 108.09,-649.74"/>
<text text-anchor="middle" x="127.09" y="-664.04" font-family="Times New Roman,serif" font-size="14.00">6:6 &#45; 0:0</text>
</g>
<!-- n6&#45;&gt;x50 -->
<g id="edge84" class="edge">
<title>n6:e&#45;&gt;x50:w</title>
<path fill="none" stroke="#66a61e" d="M59.09,-1963.74C76.19,-1963.74 77.94,-796.02 93.48,-677.42"/>
<polygon fill="#66a61e" stroke="#66a61e" points="96.86,-678.3 96.09,-667.74 90.11,-676.48 96.86,-678.3"/>
</g>
<!-- x54 -->
<g id="node75" class="node">
<title>x54</title>
<path fill="none" stroke="black" d="M108.09,-2340.74C108.09,-2340.74 146.09,-2340.74 146.09,-2340.74 152.09,-2340.74 158.09,-2346.74 158.09,-2352.74 158.09,-2352.74 158.09,-2364.74 158.09,-2364.74 158.09,-2370.74 152.09,-2376.74 146.09,-2376.74 146.09,-2376.74 108.09,-2376.74 108.09,-2376.74 102.09,-2376.74 96.09,-2370.74 96.09,-2364.74 96.09,-2364.74 96.09,-2352.74 96.09,-2352.74 96.09,-2346.74 102.09,-2340.74 108.09,-2340.74"/>
<text text-anchor="middle" x="127.09" y="-2355.04" font-family="Times New Roman,serif" font-size="14.00">7:7 &#45; 0:0</text>
</g>
<!-- n6&#45;&gt;x54 -->
<g id="edge85" class="edge">
<title>n6:e&#45;&gt;x54:w</title>
<path fill="none" stroke="#66a61e" d="M59.09,-1963.74C79.2,-1963.74 75.07,-2292.36 90.92,-2350.12"/>
<polygon fill="#66a61e" stroke="#66a61e" points="87.94,-2351.97 96.09,-2358.74 93.94,-2348.36 87.94,-2351.97"/>
</g>
<!-- x55 -->
<g id="node76" class="node">
<title>x55</title>
<path fill="none" stroke="black" d="M108.09,-2285.74C108.09,-2285.74 146.09,-2285.74 146.09,-2285.74 152.09,-2285.74 158.09,-2291.74 158.09,-2297.74 158.09,-2297.74 158.09,-2309.74 158.09,-2309.74 158.09,-2315.74 152.09,-2321.74 146.09,-2321.74 146.09,-2321.74 108.09,-2321.74 108.09,-2321.74 102.09,-2321.74 96.09,-2315.74 96.09,-2309.74 96.09,-2309.74 96.09,-2297.74 96.09,-2297.74 96.09,-2291.74 102.09,-2285.74 108.09,-2285.74"/>
<text text-anchor="middle" x="127.09" y="-2300.04" font-family="Times New Roman,serif" font-size="14.00">9:9 &#45; 0:0</text>
</g>
<!-- n6&#45;&gt;x55 -->
<g id="edge86" class="edge">
<title>n6:e&#45;&gt;x55:w</title>
<path fill="none" stroke="#66a61e" d="M59.09,-1963.74C76.28,-1963.74 77.1,-2241.77 91.15,-2294.99"/>
<polygon fill="#66a61e" stroke="#66a61e" points="88.13,-2296.75 96.09,-2303.74 94.22,-2293.31 88.13,-2296.75"/>
</g>
<!-- c12 -->
<g id="node7" class="node">
<title>c12</title>
<polygon fill="none" stroke="black" points="195.09,-2104.74 195.09,-2196.74 538.09,-2196.74 538.09,-2104.74 195.09,-2104.74"/>
<text text-anchor="middle" x="209.09" y="-2181.54" font-family="Times New Roman,serif" font-size="14.00">I0</text>
<polyline fill="none" stroke="black" points="195.09,-2173.74 223.09,-2173.74 "/>
<text text-anchor="middle" x="209.09" y="-2158.54" font-family="Times New Roman,serif" font-size="14.00">I1</text>
<polyline fill="none" stroke="black" points="195.09,-2150.74 223.09,-2150.74 "/>
<text text-anchor="middle" x="209.09" y="-2135.54" font-family="Times New Roman,serif" font-size="14.00">I2</text>
<polyline fill="none" stroke="black" points="195.09,-2127.74 223.09,-2127.74 "/>
<text text-anchor="middle" x="209.09" y="-2112.54" font-family="Times New Roman,serif" font-size="14.00">I3</text>
<polyline fill="none" stroke="black" points="223.09,-2104.74 223.09,-2196.74 "/>
<text text-anchor="middle" x="367.09" y="-2154.54" font-family="Times New Roman,serif" font-size="14.00">next_state_SB_LUT4_O_9_I1_SB_LUT4_O_1</text>
<text text-anchor="middle" x="367.09" y="-2139.54" font-family="Times New Roman,serif" font-size="14.00">SB_LUT4</text>
<polyline fill="none" stroke="black" points="511.09,-2104.74 511.09,-2196.74 "/>
<text text-anchor="middle" x="524.59" y="-2147.04" font-family="Times New Roman,serif" font-size="14.00">O</text>
</g>
<!-- x4 -->
<g id="node12" class="node">
<title>x4</title>
<path fill="none" stroke="black" d="M610.09,-1946.74C610.09,-1946.74 648.09,-1946.74 648.09,-1946.74 654.09,-1946.74 660.09,-1952.74 660.09,-1958.74 660.09,-1958.74 660.09,-1970.74 660.09,-1970.74 660.09,-1976.74 654.09,-1982.74 648.09,-1982.74 648.09,-1982.74 610.09,-1982.74 610.09,-1982.74 604.09,-1982.74 598.09,-1976.74 598.09,-1970.74 598.09,-1970.74 598.09,-1958.74 598.09,-1958.74 598.09,-1952.74 604.09,-1946.74 610.09,-1946.74"/>
<text text-anchor="middle" x="629.09" y="-1961.04" font-family="Times New Roman,serif" font-size="14.00">0:0 &#45; 2:2</text>
</g>
<!-- c12&#45;&gt;x4 -->
<g id="edge5" class="edge">
<title>c12:e&#45;&gt;x4:w</title>
<path fill="none" stroke="#e7298a" d="M543.11,-2139.66C554.68,-2106.66 581.39,-2009.23 593.01,-1975.99"/>
<polygon fill="none" stroke="#e7298a" points="543.05,-2139.81 544.21,-2146.92 538.09,-2150.74 536.93,-2143.62 543.05,-2139.81"/>
<polygon fill="none" stroke="#e7298a" points="593.15,-1975.67 591.98,-1968.56 598.09,-1964.74 599.27,-1971.85 593.15,-1975.67"/>
</g>
<!-- x0&#45;&gt;c12 -->
<g id="edge1" class="edge">
<title>x0:e&#45;&gt;c12:w</title>
<path fill="none" stroke="#66a61e" d="M169.73,-2244.21C180.53,-2232.47 172.6,-2201.21 183.81,-2189.9"/>
<polygon fill="none" stroke="#66a61e" points="169.28,-2244.38 165.14,-2250.29 158.09,-2248.74 162.23,-2242.83 169.28,-2244.38"/>
<polygon fill="none" stroke="#66a61e" points="183.83,-2189.89 188.08,-2184.06 195.09,-2185.74 190.85,-2191.57 183.83,-2189.89"/>
</g>
<!-- x1&#45;&gt;c12 -->
<g id="edge2" class="edge">
<title>x1:e&#45;&gt;c12:w</title>
<path fill="none" stroke="#1b9e77" d="M169.37,-2189.43C175.5,-2183.57 177.59,-2173.15 183.64,-2167.21"/>
<polygon fill="none" stroke="#1b9e77" points="169.3,-2189.45 165.13,-2195.33 158.09,-2193.74 162.27,-2187.86 169.3,-2189.45"/>
<polygon fill="none" stroke="#1b9e77" points="183.92,-2167.11 188.05,-2161.2 195.09,-2162.74 190.96,-2168.65 183.92,-2167.11"/>
</g>
<!-- x2&#45;&gt;c12 -->
<g id="edge3" class="edge">
<title>x2:e&#45;&gt;c12:w</title>
<path fill="none" stroke="#1b9e77" d="M170.12,-2138.74C174.72,-2138.74 178.48,-2138.74 183.07,-2138.74"/>
<polygon fill="none" stroke="#1b9e77" points="170.09,-2138.74 164.09,-2142.74 158.09,-2138.74 164.09,-2134.74 170.09,-2138.74"/>
<polygon fill="none" stroke="#1b9e77" points="183.09,-2138.74 189.09,-2134.74 195.09,-2138.74 189.09,-2142.74 183.09,-2138.74"/>
</g>
<!-- x3&#45;&gt;c12 -->
<g id="edge4" class="edge">
<title>x3:e&#45;&gt;c12:w</title>
<path fill="none" stroke="#7570b3" d="M169.46,-2088.19C175.57,-2094.23 177.53,-2104.99 183.56,-2111.12"/>
<polygon fill="none" stroke="#7570b3" points="169.27,-2088.11 162.22,-2089.65 158.09,-2083.74 165.14,-2082.2 169.27,-2088.11"/>
<polygon fill="none" stroke="#7570b3" points="183.95,-2111.28 191.01,-2109.79 195.09,-2115.74 188.04,-2117.22 183.95,-2111.28"/>
</g>
<!-- x4&#45;&gt;n1 -->
<g id="edge37" class="edge">
<title>x4:e&#45;&gt;n1:w</title>
<path fill="none" stroke="#e7298a" d="M660.09,-1964.74C741.19,-1964.74 705.32,-1874 740.09,-1800.74 746.23,-1787.8 742.55,-1772.33 748.38,-1765.41"/>
<polygon fill="#e7298a" stroke="#e7298a" points="749.97,-1768.55 758.09,-1761.74 747.5,-1762 749.97,-1768.55"/>
</g>
<!-- v5 -->
<g id="node13" class="node">
<title>v5</title>
<ellipse fill="none" stroke="black" cx="127.09" cy="-2028.74" rx="27" ry="18"/>
<text text-anchor="middle" x="127.09" y="-2025.04" font-family="Times New Roman,serif" font-size="14.00">1&#39;0</text>
</g>
<!-- v5&#45;&gt;c13 -->
<g id="edge105" class="edge">
<title>v5:e&#45;&gt;c13:w</title>
<path fill="none" stroke="#a6761d" d="M155.09,-2028.74C196.71,-2028.74 205.88,-2003.46 242.17,-1999.31"/>
<polygon fill="#a6761d" stroke="#a6761d" points="242.8,-2002.78 252.59,-1998.74 242.42,-1995.79 242.8,-2002.78"/>
</g>
<!-- x7 -->
<g id="node16" class="node">
<title>x7</title>
<path fill="none" stroke="black" d="M690.09,-1663.74C690.09,-1663.74 728.09,-1663.74 728.09,-1663.74 734.09,-1663.74 740.09,-1669.74 740.09,-1675.74 740.09,-1675.74 740.09,-1687.74 740.09,-1687.74 740.09,-1693.74 734.09,-1699.74 728.09,-1699.74 728.09,-1699.74 690.09,-1699.74 690.09,-1699.74 684.09,-1699.74 678.09,-1693.74 678.09,-1687.74 678.09,-1687.74 678.09,-1675.74 678.09,-1675.74 678.09,-1669.74 684.09,-1663.74 690.09,-1663.74"/>
<text text-anchor="middle" x="709.09" y="-1678.04" font-family="Times New Roman,serif" font-size="14.00">0:0 &#45; 1:1</text>
</g>
<!-- c13&#45;&gt;x7 -->
<g id="edge7" class="edge">
<title>c13:e&#45;&gt;x7:w</title>
<path fill="none" stroke="#7570b3" d="M492.67,-1962.46C516.55,-1956.84 519.68,-1933.44 538.09,-1908.74 562.56,-1875.91 567.46,-1865.69 580.09,-1826.74 596.19,-1777.11 564.94,-1751.03 598.09,-1710.74 619.4,-1684.84 636.09,-1682.07 665.96,-1681.77"/>
<polygon fill="none" stroke="#7570b3" points="492.53,-1962.48 486.98,-1967.09 480.59,-1963.74 486.14,-1959.13 492.53,-1962.48"/>
<polygon fill="none" stroke="#7570b3" points="666.09,-1681.77 672.08,-1677.76 678.09,-1681.74 672.11,-1685.76 666.09,-1681.77"/>
</g>
<!-- x6&#45;&gt;c13 -->
<g id="edge6" class="edge">
<title>x6:e&#45;&gt;c13:w</title>
<path fill="none" stroke="#e7298a" d="M170.41,-1973.8C198.88,-1974.1 211.85,-1975.38 240.35,-1975.68"/>
<polygon fill="none" stroke="#e7298a" points="170.09,-1973.8 164.07,-1977.77 158.09,-1973.74 164.11,-1969.77 170.09,-1973.8"/>
<polygon fill="none" stroke="#e7298a" points="240.59,-1975.68 246.61,-1971.71 252.59,-1975.74 246.57,-1979.71 240.59,-1975.68"/>
</g>
<!-- x7&#45;&gt;n3 -->
<g id="edge62" class="edge">
<title>x7:e&#45;&gt;n3:w</title>
<path fill="none" stroke="#a6761d" d="M740.09,-1681.74C924.74,-1681.74 970.73,-1669.74 1155.37,-1669.74 1155.37,-1669.74 1155.37,-1669.74 1721.37,-1669.74 1737.87,-1669.74 1766.19,-1121.19 1784.37,-1042.97"/>
<polygon fill="#a6761d" stroke="#a6761d" points="1787.61,-1044.31 1788.37,-1033.74 1781.19,-1041.52 1787.61,-1044.31"/>
</g>
<!-- v8 -->
<g id="node17" class="node">
<title>v8</title>
<ellipse fill="none" stroke="black" cx="127.09" cy="-1842.74" rx="27" ry="18"/>
<text text-anchor="middle" x="127.09" y="-1839.04" font-family="Times New Roman,serif" font-size="14.00">1&#39;0</text>
</g>
<!-- c14 -->
<g id="node19" class="node">
<title>c14</title>
<polygon fill="none" stroke="black" points="202.09,-1730.74 202.09,-1822.74 531.09,-1822.74 531.09,-1730.74 202.09,-1730.74"/>
<text text-anchor="middle" x="216.09" y="-1807.54" font-family="Times New Roman,serif" font-size="14.00">I0</text>
<polyline fill="none" stroke="black" points="202.09,-1799.74 230.09,-1799.74 "/>
<text text-anchor="middle" x="216.09" y="-1784.54" font-family="Times New Roman,serif" font-size="14.00">I1</text>
<polyline fill="none" stroke="black" points="202.09,-1776.74 230.09,-1776.74 "/>
<text text-anchor="middle" x="216.09" y="-1761.54" font-family="Times New Roman,serif" font-size="14.00">I2</text>
<polyline fill="none" stroke="black" points="202.09,-1753.74 230.09,-1753.74 "/>
<text text-anchor="middle" x="216.09" y="-1738.54" font-family="Times New Roman,serif" font-size="14.00">I3</text>
<polyline fill="none" stroke="black" points="230.09,-1730.74 230.09,-1822.74 "/>
<text text-anchor="middle" x="367.09" y="-1780.54" font-family="Times New Roman,serif" font-size="14.00">next_state_SB_LUT4_O_9_I1_SB_LUT4_O</text>
<text text-anchor="middle" x="367.09" y="-1765.54" font-family="Times New Roman,serif" font-size="14.00">SB_LUT4</text>
<polyline fill="none" stroke="black" points="504.09,-1730.74 504.09,-1822.74 "/>
<text text-anchor="middle" x="517.59" y="-1773.04" font-family="Times New Roman,serif" font-size="14.00">O</text>
</g>
<!-- v8&#45;&gt;c14 -->
<g id="edge108" class="edge">
<title>v8:e&#45;&gt;c14:w</title>
<path fill="none" stroke="#7570b3" d="M155.09,-1842.74C175.55,-1842.74 176.5,-1821.08 190.56,-1813.97"/>
<polygon fill="#7570b3" stroke="#7570b3" points="191.59,-1817.32 200.59,-1811.74 190.07,-1810.49 191.59,-1817.32"/>
</g>
<!-- v9 -->
<g id="node18" class="node">
<title>v9</title>
<ellipse fill="none" stroke="black" cx="127.09" cy="-1788.74" rx="27" ry="18"/>
<text text-anchor="middle" x="127.09" y="-1785.04" font-family="Times New Roman,serif" font-size="14.00">1&#39;0</text>
</g>
<!-- v9&#45;&gt;c14 -->
<g id="edge109" class="edge">
<title>v9:e&#45;&gt;c14:w</title>
<path fill="none" stroke="#66a61e" d="M155.09,-1788.74C171.37,-1788.74 177.82,-1788.74 190.25,-1788.74"/>
<polygon fill="#66a61e" stroke="#66a61e" points="190.59,-1792.24 200.59,-1788.74 190.59,-1785.24 190.59,-1792.24"/>
</g>
<!-- x12 -->
<g id="node22" class="node">
<title>x12</title>
<path fill="none" stroke="black" d="M610.09,-1785.74C610.09,-1785.74 648.09,-1785.74 648.09,-1785.74 654.09,-1785.74 660.09,-1791.74 660.09,-1797.74 660.09,-1797.74 660.09,-1809.74 660.09,-1809.74 660.09,-1815.74 654.09,-1821.74 648.09,-1821.74 648.09,-1821.74 610.09,-1821.74 610.09,-1821.74 604.09,-1821.74 598.09,-1815.74 598.09,-1809.74 598.09,-1809.74 598.09,-1797.74 598.09,-1797.74 598.09,-1791.74 604.09,-1785.74 610.09,-1785.74"/>
<text text-anchor="middle" x="629.09" y="-1800.04" font-family="Times New Roman,serif" font-size="14.00">0:0 &#45; 1:1</text>
</g>
<!-- c14&#45;&gt;x12 -->
<g id="edge10" class="edge">
<title>c14:e&#45;&gt;x12:w</title>
<path fill="none" stroke="#1b9e77" d="M544.61,-1778.27C561.84,-1783 568.74,-1797.36 585.9,-1802.16"/>
<polygon fill="none" stroke="#1b9e77" points="544.5,-1778.25 538.04,-1781.46 532.59,-1776.74 539.05,-1773.53 544.5,-1778.25"/>
<polygon fill="none" stroke="#1b9e77" points="586.19,-1802.2 592.66,-1799 598.09,-1803.74 591.63,-1806.93 586.19,-1802.2"/>
</g>
<!-- x10&#45;&gt;c14 -->
<g id="edge8" class="edge">
<title>x10:e&#45;&gt;c14:w</title>
<path fill="none" stroke="#d95f02" d="M169.72,-1737.29C177.93,-1743.27 180.78,-1755.27 189.03,-1761.22"/>
<polygon fill="none" stroke="#d95f02" points="169.57,-1737.25 162.66,-1739.32 158.09,-1733.74 165,-1731.67 169.57,-1737.25"/>
<polygon fill="none" stroke="#d95f02" points="189.11,-1761.25 196.02,-1759.17 200.59,-1764.74 193.69,-1766.82 189.11,-1761.25"/>
</g>
<!-- x11&#45;&gt;c14 -->
<g id="edge9" class="edge">
<title>x11:e&#45;&gt;c14:w</title>
<path fill="none" stroke="#1b9e77" d="M169.63,-1682.49C182.84,-1693.62 175.86,-1726.36 188.8,-1737.76"/>
<polygon fill="none" stroke="#1b9e77" points="169.5,-1682.45 162.56,-1684.4 158.09,-1678.74 165.04,-1676.79 169.5,-1682.45"/>
<polygon fill="none" stroke="#1b9e77" points="189.22,-1737.91 196.18,-1736.03 200.59,-1741.74 193.63,-1743.61 189.22,-1737.91"/>
</g>
<!-- x12&#45;&gt;n1 -->
<g id="edge36" class="edge">
<title>x12:e&#45;&gt;n1:w</title>
<path fill="none" stroke="#e7298a" d="M660.09,-1803.74C698.23,-1803.74 705.91,-1789.64 740.09,-1772.74 744.3,-1770.66 746.45,-1767.91 748.73,-1765.68"/>
<polygon fill="#e7298a" stroke="#e7298a" points="750.23,-1768.84 758.09,-1761.74 747.52,-1762.39 750.23,-1768.84"/>
</g>
<!-- x15 -->
<g id="node26" class="node">
<title>x15</title>
<path fill="none" stroke="black" d="M1701.37,-1705.74C1701.37,-1705.74 1739.37,-1705.74 1739.37,-1705.74 1745.37,-1705.74 1751.37,-1711.74 1751.37,-1717.74 1751.37,-1717.74 1751.37,-1729.74 1751.37,-1729.74 1751.37,-1735.74 1745.37,-1741.74 1739.37,-1741.74 1739.37,-1741.74 1701.37,-1741.74 1701.37,-1741.74 1695.37,-1741.74 1689.37,-1735.74 1689.37,-1729.74 1689.37,-1729.74 1689.37,-1717.74 1689.37,-1717.74 1689.37,-1711.74 1695.37,-1705.74 1701.37,-1705.74"/>
<text text-anchor="middle" x="1720.37" y="-1720.04" font-family="Times New Roman,serif" font-size="14.00">0:0 &#45; 0:0</text>
</g>
<!-- c15&#45;&gt;x15 -->
<g id="edge13" class="edge">
<title>c15:e&#45;&gt;x15:w</title>
<path fill="none" stroke="#d95f02" d="M1603.47,-1744.18C1634.22,-1741.2 1646.45,-1727.31 1677.16,-1724.31"/>
<polygon fill="none" stroke="#d95f02" points="1603.36,-1744.18 1597.55,-1748.46 1591.37,-1744.74 1597.18,-1740.46 1603.36,-1744.18"/>
<polygon fill="none" stroke="#d95f02" points="1677.39,-1724.3 1683.19,-1720.02 1689.37,-1723.74 1683.57,-1728.02 1677.39,-1724.3"/>
</g>
<!-- x13&#45;&gt;c15 -->
<g id="edge11" class="edge">
<title>x13:e&#45;&gt;c15:w</title>
<path fill="none" stroke="#e6ab02" d="M1279.71,-1786.91C1311.03,-1782.5 1321.88,-1761.84 1353.32,-1757.53"/>
<polygon fill="none" stroke="#e6ab02" points="1279.35,-1786.93 1273.63,-1791.33 1267.37,-1787.74 1273.09,-1783.34 1279.35,-1786.93"/>
<polygon fill="none" stroke="#e6ab02" points="1353.4,-1757.52 1359.12,-1753.14 1365.37,-1756.74 1359.65,-1761.12 1353.4,-1757.52"/>
</g>
<!-- x14&#45;&gt;c15 -->
<g id="edge12" class="edge">
<title>x14:e&#45;&gt;c15:w</title>
<path fill="none" stroke="#e6ab02" d="M1279.7,-1732.74C1309.65,-1732.74 1323.08,-1732.74 1353.02,-1732.74"/>
<polygon fill="none" stroke="#e6ab02" points="1279.37,-1732.74 1273.37,-1736.74 1267.37,-1732.74 1273.37,-1728.74 1279.37,-1732.74"/>
<polygon fill="none" stroke="#e6ab02" points="1353.37,-1732.74 1359.37,-1728.74 1365.37,-1732.74 1359.37,-1736.74 1353.37,-1732.74"/>
</g>
<!-- x15&#45;&gt;n3 -->
<g id="edge53" class="edge">
<title>x15:e&#45;&gt;n3:w</title>
<path fill="none" stroke="#a6761d" d="M1751.37,-1723.74C1771.05,-1723.74 1765.78,-1702.88 1770.37,-1683.74 1774.28,-1667.44 1770.88,-1121.93 1784.8,-1043.18"/>
<polygon fill="#a6761d" stroke="#a6761d" points="1788.1,-1044.33 1788.37,-1033.74 1781.56,-1041.85 1788.1,-1044.33"/>
</g>
<!-- v16 -->
<g id="node27" class="node">
<title>v16</title>
<ellipse fill="none" stroke="black" cx="127.09" cy="-2686.74" rx="27" ry="18"/>
<text text-anchor="middle" x="127.09" y="-2683.04" font-family="Times New Roman,serif" font-size="14.00">1&#39;0</text>
</g>
<!-- c16 -->
<g id="node29" class="node">
<title>c16</title>
<polygon fill="none" stroke="black" points="276.59,-2543.74 276.59,-2635.74 456.59,-2635.74 456.59,-2543.74 276.59,-2543.74"/>
<text text-anchor="middle" x="290.59" y="-2620.54" font-family="Times New Roman,serif" font-size="14.00">I0</text>
<polyline fill="none" stroke="black" points="276.59,-2612.74 304.59,-2612.74 "/>
<text text-anchor="middle" x="290.59" y="-2597.54" font-family="Times New Roman,serif" font-size="14.00">I1</text>
<polyline fill="none" stroke="black" points="276.59,-2589.74 304.59,-2589.74 "/>
<text text-anchor="middle" x="290.59" y="-2574.54" font-family="Times New Roman,serif" font-size="14.00">I2</text>
<polyline fill="none" stroke="black" points="276.59,-2566.74 304.59,-2566.74 "/>
<text text-anchor="middle" x="290.59" y="-2551.54" font-family="Times New Roman,serif" font-size="14.00">I3</text>
<polyline fill="none" stroke="black" points="304.59,-2543.74 304.59,-2635.74 "/>
<text text-anchor="middle" x="367.09" y="-2593.54" font-family="Times New Roman,serif" font-size="14.00">out1_SB_LUT4_O</text>
<text text-anchor="middle" x="367.09" y="-2578.54" font-family="Times New Roman,serif" font-size="14.00">SB_LUT4</text>
<polyline fill="none" stroke="black" points="429.59,-2543.74 429.59,-2635.74 "/>
<text text-anchor="middle" x="443.09" y="-2586.04" font-family="Times New Roman,serif" font-size="14.00">O</text>
</g>
<!-- v16&#45;&gt;c16 -->
<g id="edge88" class="edge">
<title>v16:e&#45;&gt;c16:w</title>
<path fill="none" stroke="#a6761d" d="M155.09,-2686.74C211.79,-2686.74 215.15,-2631.79 265.6,-2625.35"/>
<polygon fill="#a6761d" stroke="#a6761d" points="265.83,-2628.84 275.59,-2624.74 265.4,-2621.86 265.83,-2628.84"/>
</g>
<!-- v17 -->
<g id="node28" class="node">
<title>v17</title>
<ellipse fill="none" stroke="black" cx="127.09" cy="-2632.74" rx="27" ry="18"/>
<text text-anchor="middle" x="127.09" y="-2629.04" font-family="Times New Roman,serif" font-size="14.00">1&#39;0</text>
</g>
<!-- v17&#45;&gt;c16 -->
<g id="edge89" class="edge">
<title>v17:e&#45;&gt;c16:w</title>
<path fill="none" stroke="#e7298a" d="M155.09,-2632.74C206.83,-2632.74 218.83,-2605.61 265.44,-2602.11"/>
<polygon fill="#e7298a" stroke="#e7298a" points="265.73,-2605.6 275.59,-2601.74 265.47,-2598.6 265.73,-2605.6"/>
</g>
<!-- c16&#45;&gt;n4 -->
<g id="edge63" class="edge">
<title>c16:e&#45;&gt;n4:w</title>
<path fill="none" stroke="#7570b3" d="M457.59,-2589.74C580.25,-2589.74 505.44,-2372.74 628.09,-2372.74 628.09,-2372.74 628.09,-2372.74 1721.37,-2372.74 1786.37,-2372.74 1745.99,-2259.25 1799.47,-2246.84"/>
<polygon fill="#7570b3" stroke="#7570b3" points="1800.16,-2250.28 1809.73,-2245.74 1799.41,-2243.32 1800.16,-2250.28"/>
</g>
<!-- x18&#45;&gt;c16 -->
<g id="edge14" class="edge">
<title>x18:e&#45;&gt;c16:w</title>
<path fill="none" stroke="#d95f02" d="M170.2,-2577.74C208.9,-2577.74 224.75,-2577.74 263.43,-2577.74"/>
<polygon fill="none" stroke="#d95f02" points="170.09,-2577.74 164.09,-2581.74 158.09,-2577.74 164.09,-2573.74 170.09,-2577.74"/>
<polygon fill="none" stroke="#d95f02" points="263.59,-2577.74 269.59,-2573.74 275.59,-2577.74 269.59,-2581.74 263.59,-2577.74"/>
</g>
<!-- x19&#45;&gt;c16 -->
<g id="edge15" class="edge">
<title>x19:e&#45;&gt;c16:w</title>
<path fill="none" stroke="#d95f02" d="M170.28,-2523.32C210.23,-2527.29 223.54,-2550.25 263.55,-2554.17"/>
<polygon fill="none" stroke="#d95f02" points="170.08,-2523.31 163.9,-2527.02 158.09,-2522.74 164.28,-2519.03 170.08,-2523.31"/>
<polygon fill="none" stroke="#d95f02" points="263.61,-2554.17 269.79,-2550.46 275.59,-2554.74 269.41,-2558.45 263.61,-2554.17"/>
</g>
<!-- v20 -->
<g id="node32" class="node">
<title>v20</title>
<ellipse fill="none" stroke="black" cx="127.09" cy="-170.74" rx="27" ry="18"/>
<text text-anchor="middle" x="127.09" y="-167.04" font-family="Times New Roman,serif" font-size="14.00">1&#39;0</text>
</g>
<!-- v20&#45;&gt;c17 -->
<g id="edge90" class="edge">
<title>v20:e&#45;&gt;c17:w</title>
<path fill="none" stroke="#a6761d" d="M155.09,-170.74C196.83,-170.74 205.78,-144.62 242.15,-140.33"/>
<polygon fill="#a6761d" stroke="#a6761d" points="242.81,-143.8 252.59,-139.74 242.41,-136.81 242.81,-143.8"/>
</g>
<!-- v21 -->
<g id="node33" class="node">
<title>v21</title>
<ellipse fill="none" stroke="black" cx="127.09" cy="-116.74" rx="27" ry="18"/>
<text text-anchor="middle" x="127.09" y="-113.04" font-family="Times New Roman,serif" font-size="14.00">1&#39;0</text>
</g>
<!-- v21&#45;&gt;c17 -->
<g id="edge91" class="edge">
<title>v21:e&#45;&gt;c17:w</title>
<path fill="none" stroke="#a6761d" d="M155.09,-116.74C194.87,-116.74 207.26,-116.74 242.55,-116.74"/>
<polygon fill="#a6761d" stroke="#a6761d" points="242.59,-120.24 252.59,-116.74 242.59,-113.24 242.59,-120.24"/>
</g>
<!-- x23 -->
<g id="node36" class="node">
<title>x23</title>
<path fill="none" stroke="black" d="M913.73,-282.74C913.73,-282.74 951.73,-282.74 951.73,-282.74 957.73,-282.74 963.73,-288.74 963.73,-294.74 963.73,-294.74 963.73,-306.74 963.73,-306.74 963.73,-312.74 957.73,-318.74 951.73,-318.74 951.73,-318.74 913.73,-318.74 913.73,-318.74 907.73,-318.74 901.73,-312.74 901.73,-306.74 901.73,-306.74 901.73,-294.74 901.73,-294.74 901.73,-288.74 907.73,-282.74 913.73,-282.74"/>
<text text-anchor="middle" x="932.73" y="-297.04" font-family="Times New Roman,serif" font-size="14.00">0:0 &#45; 2:2</text>
</g>
<!-- c17&#45;&gt;x23 -->
<g id="edge17" class="edge">
<title>c17:e&#45;&gt;x23:w</title>
<path fill="none" stroke="#1b9e77" d="M492.73,-104.97C683.06,-112.35 698.25,-293.09 888.55,-300.5"/>
<polygon fill="none" stroke="#1b9e77" points="492.59,-104.97 486.52,-108.85 480.59,-104.74 486.67,-100.85 492.59,-104.97"/>
<polygon fill="none" stroke="#1b9e77" points="888.74,-300.51 894.81,-296.62 900.73,-300.74 894.66,-304.62 888.74,-300.51"/>
</g>
<!-- x22&#45;&gt;c17 -->
<g id="edge16" class="edge">
<title>x22:e&#45;&gt;c17:w</title>
<path fill="none" stroke="#1b9e77" d="M170.44,-61.99C198.96,-63.18 211.77,-68.31 240.32,-69.49"/>
<polygon fill="none" stroke="#1b9e77" points="170.09,-61.98 164.01,-65.86 158.09,-61.74 164.17,-57.86 170.09,-61.98"/>
<polygon fill="none" stroke="#1b9e77" points="240.6,-69.5 246.67,-65.62 252.59,-69.74 246.51,-73.62 240.6,-69.5"/>
</g>
<!-- x23&#45;&gt;n3 -->
<g id="edge54" class="edge">
<title>x23:e&#45;&gt;n3:w</title>
<path fill="none" stroke="#a6761d" d="M964.73,-300.74C1089.09,-300.74 1111.02,-371.74 1235.37,-371.74 1235.37,-371.74 1235.37,-371.74 1721.37,-371.74 1804.23,-371.74 1741.5,-473.47 1751.37,-555.74 1752.82,-567.82 1771.41,-957.19 1784.76,-1024.02"/>
<polygon fill="#a6761d" stroke="#a6761d" points="1781.61,-1025.58 1788.37,-1033.74 1788.17,-1023.15 1781.61,-1025.58"/>
</g>
<!-- v24 -->
<g id="node37" class="node">
<title>v24</title>
<ellipse fill="none" stroke="black" cx="127.09" cy="-574.74" rx="27" ry="18"/>
<text text-anchor="middle" x="127.09" y="-571.04" font-family="Times New Roman,serif" font-size="14.00">1&#39;0</text>
</g>
<!-- v24&#45;&gt;c18 -->
<g id="edge92" class="edge">
<title>v24:e&#45;&gt;c18:w</title>
<path fill="none" stroke="#e6ab02" d="M155.09,-574.74C196.83,-574.74 205.78,-548.62 242.15,-544.33"/>
<polygon fill="#e6ab02" stroke="#e6ab02" points="242.81,-547.8 252.59,-543.74 242.41,-540.81 242.81,-547.8"/>
</g>
<!-- v25 -->
<g id="node38" class="node">
<title>v25</title>
<ellipse fill="none" stroke="black" cx="127.09" cy="-520.74" rx="27" ry="18"/>
<text text-anchor="middle" x="127.09" y="-517.04" font-family="Times New Roman,serif" font-size="14.00">1&#39;0</text>
</g>
<!-- v25&#45;&gt;c18 -->
<g id="edge93" class="edge">
<title>v25:e&#45;&gt;c18:w</title>
<path fill="none" stroke="#7570b3" d="M155.09,-520.74C194.87,-520.74 207.26,-520.74 242.55,-520.74"/>
<polygon fill="#7570b3" stroke="#7570b3" points="242.59,-524.24 252.59,-520.74 242.59,-517.24 242.59,-524.24"/>
</g>
<!-- x27 -->
<g id="node41" class="node">
<title>x27</title>
<path fill="none" stroke="black" d="M1621.37,-677.74C1621.37,-677.74 1659.37,-677.74 1659.37,-677.74 1665.37,-677.74 1671.37,-683.74 1671.37,-689.74 1671.37,-689.74 1671.37,-701.74 1671.37,-701.74 1671.37,-707.74 1665.37,-713.74 1659.37,-713.74 1659.37,-713.74 1621.37,-713.74 1621.37,-713.74 1615.37,-713.74 1609.37,-707.74 1609.37,-701.74 1609.37,-701.74 1609.37,-689.74 1609.37,-689.74 1609.37,-683.74 1615.37,-677.74 1621.37,-677.74"/>
<text text-anchor="middle" x="1640.37" y="-692.04" font-family="Times New Roman,serif" font-size="14.00">0:0 &#45; 3:3</text>
</g>
<!-- c18&#45;&gt;x27 -->
<g id="edge19" class="edge">
<title>c18:e&#45;&gt;x27:w</title>
<path fill="none" stroke="#666666" d="M492.64,-509.63C562.97,-520.52 548.14,-627.74 628.09,-627.74 628.09,-627.74 628.09,-627.74 1317.37,-627.74 1446.46,-627.74 1474.42,-691.55 1597.19,-695.54"/>
<polygon fill="none" stroke="#666666" points="492.56,-509.62 486.28,-513.17 480.59,-508.74 486.87,-505.19 492.56,-509.62"/>
<polygon fill="none" stroke="#666666" points="1597.37,-695.55 1603.44,-691.64 1609.37,-695.74 1603.31,-699.64 1597.37,-695.55"/>
</g>
<!-- x26&#45;&gt;c18 -->
<g id="edge18" class="edge">
<title>x26:e&#45;&gt;c18:w</title>
<path fill="none" stroke="#7570b3" d="M170.44,-465.99C198.96,-467.18 211.77,-472.31 240.32,-473.49"/>
<polygon fill="none" stroke="#7570b3" points="170.09,-465.98 164.01,-469.86 158.09,-465.74 164.17,-461.86 170.09,-465.98"/>
<polygon fill="none" stroke="#7570b3" points="240.6,-473.5 246.67,-469.62 252.59,-473.74 246.51,-477.62 240.6,-473.5"/>
</g>
<!-- x27&#45;&gt;n3 -->
<g id="edge55" class="edge">
<title>x27:e&#45;&gt;n3:w</title>
<path fill="none" stroke="#a6761d" d="M1671.37,-695.74C1782.25,-695.74 1739.11,-818.36 1770.37,-924.74 1776.27,-944.8 1767.37,-1009.74 1779.76,-1028.57"/>
<polygon fill="#a6761d" stroke="#a6761d" points="1778,-1031.59 1788.37,-1033.74 1781.6,-1025.59 1778,-1031.59"/>
</g>
<!-- v28 -->
<g id="node42" class="node">
<title>v28</title>
<ellipse fill="none" stroke="black" cx="127.09" cy="-372.74" rx="27" ry="18"/>
<text text-anchor="middle" x="127.09" y="-369.04" font-family="Times New Roman,serif" font-size="14.00">1&#39;0</text>
</g>
<!-- v28&#45;&gt;c19 -->
<g id="edge94" class="edge">
<title>v28:e&#45;&gt;c19:w</title>
<path fill="none" stroke="#7570b3" d="M155.09,-372.74C196.83,-372.74 205.78,-346.62 242.15,-342.33"/>
<polygon fill="#7570b3" stroke="#7570b3" points="242.81,-345.8 252.59,-341.74 242.41,-338.81 242.81,-345.8"/>
</g>
<!-- v29 -->
<g id="node43" class="node">
<title>v29</title>
<ellipse fill="none" stroke="black" cx="127.09" cy="-318.74" rx="27" ry="18"/>
<text text-anchor="middle" x="127.09" y="-315.04" font-family="Times New Roman,serif" font-size="14.00">1&#39;0</text>
</g>
<!-- v29&#45;&gt;c19 -->
<g id="edge95" class="edge">
<title>v29:e&#45;&gt;c19:w</title>
<path fill="none" stroke="#d95f02" d="M155.09,-318.74C194.87,-318.74 207.26,-318.74 242.55,-318.74"/>
<polygon fill="#d95f02" stroke="#d95f02" points="242.59,-322.24 252.59,-318.74 242.59,-315.24 242.59,-322.24"/>
</g>
<!-- x31 -->
<g id="node46" class="node">
<title>x31</title>
<path fill="none" stroke="black" d="M1137.37,-389.74C1137.37,-389.74 1175.37,-389.74 1175.37,-389.74 1181.37,-389.74 1187.37,-395.74 1187.37,-401.74 1187.37,-401.74 1187.37,-413.74 1187.37,-413.74 1187.37,-419.74 1181.37,-425.74 1175.37,-425.74 1175.37,-425.74 1137.37,-425.74 1137.37,-425.74 1131.37,-425.74 1125.37,-419.74 1125.37,-413.74 1125.37,-413.74 1125.37,-401.74 1125.37,-401.74 1125.37,-395.74 1131.37,-389.74 1137.37,-389.74"/>
<text text-anchor="middle" x="1156.37" y="-404.04" font-family="Times New Roman,serif" font-size="14.00">0:0 &#45; 4:4</text>
</g>
<!-- c19&#45;&gt;x31 -->
<g id="edge21" class="edge">
<title>c19:e&#45;&gt;x31:w</title>
<path fill="none" stroke="#7570b3" d="M492.78,-306.8C768.57,-309.54 837.48,-404.98 1113.36,-407.68"/>
<polygon fill="none" stroke="#7570b3" points="492.59,-306.8 486.57,-310.77 480.59,-306.74 486.61,-302.77 492.59,-306.8"/>
<polygon fill="none" stroke="#7570b3" points="1113.37,-407.68 1119.39,-403.71 1125.37,-407.74 1119.35,-411.71 1113.37,-407.68"/>
</g>
<!-- x30&#45;&gt;c19 -->
<g id="edge20" class="edge">
<title>x30:e&#45;&gt;c19:w</title>
<path fill="none" stroke="#a6761d" d="M170.44,-263.99C198.96,-265.18 211.77,-270.31 240.32,-271.49"/>
<polygon fill="none" stroke="#a6761d" points="170.09,-263.98 164.01,-267.86 158.09,-263.74 164.17,-259.86 170.09,-263.98"/>
<polygon fill="none" stroke="#a6761d" points="240.6,-271.5 246.67,-267.62 252.59,-271.74 246.51,-275.62 240.6,-271.5"/>
</g>
<!-- x31&#45;&gt;n3 -->
<g id="edge56" class="edge">
<title>x31:e&#45;&gt;n3:w</title>
<path fill="none" stroke="#a6761d" d="M1187.37,-407.74C1279.14,-407.74 1223.61,-569.74 1315.37,-569.74 1315.37,-569.74 1315.37,-569.74 1721.37,-569.74 1778.07,-569.74 1741.62,-637.88 1751.37,-693.74 1752.84,-702.15 1773.87,-969.89 1785.01,-1024.19"/>
<polygon fill="#a6761d" stroke="#a6761d" points="1781.75,-1025.47 1788.37,-1033.74 1788.36,-1023.14 1781.75,-1025.47"/>
</g>
<!-- v32 -->
<g id="node47" class="node">
<title>v32</title>
<ellipse fill="none" stroke="black" cx="127.09" cy="-1585.74" rx="27" ry="18"/>
<text text-anchor="middle" x="127.09" y="-1582.04" font-family="Times New Roman,serif" font-size="14.00">1&#39;0</text>
</g>
<!-- v32&#45;&gt;c20 -->
<g id="edge96" class="edge">
<title>v32:e&#45;&gt;c20:w</title>
<path fill="none" stroke="#e6ab02" d="M155.09,-1585.74C200.75,-1585.74 203.16,-1540.31 242.4,-1533.57"/>
<polygon fill="#e6ab02" stroke="#e6ab02" points="242.91,-1537.04 252.59,-1532.74 242.34,-1530.06 242.91,-1537.04"/>
</g>
<!-- v33 -->
<g id="node48" class="node">
<title>v33</title>
<ellipse fill="none" stroke="black" cx="127.09" cy="-1531.74" rx="27" ry="18"/>
<text text-anchor="middle" x="127.09" y="-1528.04" font-family="Times New Roman,serif" font-size="14.00">1&#39;0</text>
</g>
<!-- v33&#45;&gt;c20 -->
<g id="edge97" class="edge">
<title>v33:e&#45;&gt;c20:w</title>
<path fill="none" stroke="#a6761d" d="M155.09,-1531.74C195.87,-1531.74 206.51,-1513.2 242.34,-1510.16"/>
<polygon fill="#a6761d" stroke="#a6761d" points="242.75,-1513.64 252.59,-1509.74 242.46,-1506.65 242.75,-1513.64"/>
</g>
<!-- x35 -->
<g id="node51" class="node">
<title>x35</title>
<path fill="none" stroke="black" d="M1459.37,-1218.74C1459.37,-1218.74 1497.37,-1218.74 1497.37,-1218.74 1503.37,-1218.74 1509.37,-1224.74 1509.37,-1230.74 1509.37,-1230.74 1509.37,-1242.74 1509.37,-1242.74 1509.37,-1248.74 1503.37,-1254.74 1497.37,-1254.74 1497.37,-1254.74 1459.37,-1254.74 1459.37,-1254.74 1453.37,-1254.74 1447.37,-1248.74 1447.37,-1242.74 1447.37,-1242.74 1447.37,-1230.74 1447.37,-1230.74 1447.37,-1224.74 1453.37,-1218.74 1459.37,-1218.74"/>
<text text-anchor="middle" x="1478.37" y="-1233.04" font-family="Times New Roman,serif" font-size="14.00">0:0 &#45; 5:5</text>
</g>
<!-- c20&#45;&gt;x35 -->
<g id="edge23" class="edge">
<title>c20:e&#45;&gt;x35:w</title>
<path fill="none" stroke="#e6ab02" d="M492.79,-1496.8C573.47,-1483.69 535.72,-1337.74 628.09,-1337.74 628.09,-1337.74 628.09,-1337.74 1237.37,-1337.74 1336.31,-1337.74 1342.82,-1244.85 1434.17,-1237.23"/>
<polygon fill="none" stroke="#e6ab02" points="492.56,-1496.82 486.88,-1501.27 480.59,-1497.74 486.27,-1493.29 492.56,-1496.82"/>
<polygon fill="none" stroke="#e6ab02" points="1434.38,-1237.23 1440.22,-1232.99 1446.37,-1236.74 1440.54,-1240.98 1434.38,-1237.23"/>
</g>
<!-- x34&#45;&gt;c20 -->
<g id="edge22" class="edge">
<title>x34:e&#45;&gt;c20:w</title>
<path fill="none" stroke="#a6761d" d="M170.27,-1439.43C199.63,-1442.92 211.04,-1458.55 240.39,-1462.04"/>
<polygon fill="none" stroke="#a6761d" points="170.07,-1439.42 163.86,-1443.07 158.09,-1438.74 164.31,-1435.09 170.07,-1439.42"/>
<polygon fill="none" stroke="#a6761d" points="240.61,-1462.06 246.83,-1458.4 252.59,-1462.74 246.38,-1466.39 240.61,-1462.06"/>
</g>
<!-- x35&#45;&gt;n3 -->
<g id="edge57" class="edge">
<title>x35:e&#45;&gt;n3:w</title>
<path fill="none" stroke="#a6761d" d="M1510.37,-1236.74C1633.1,-1236.74 1691.81,-1238.02 1770.37,-1143.74 1783.81,-1127.61 1769.6,-1059.79 1780.05,-1039.5"/>
<polygon fill="#a6761d" stroke="#a6761d" points="1782.14,-1042.31 1788.37,-1033.74 1778.16,-1036.55 1782.14,-1042.31"/>
</g>
<!-- v36 -->
<g id="node52" class="node">
<title>v36</title>
<ellipse fill="none" stroke="black" cx="127.09" cy="-1180.74" rx="27" ry="18"/>
<text text-anchor="middle" x="127.09" y="-1177.04" font-family="Times New Roman,serif" font-size="14.00">1&#39;0</text>
</g>
<!-- v36&#45;&gt;c21 -->
<g id="edge98" class="edge">
<title>v36:e&#45;&gt;c21:w</title>
<path fill="none" stroke="#e6ab02" d="M155.09,-1180.74C200.75,-1180.74 203.16,-1135.31 242.4,-1128.57"/>
<polygon fill="#e6ab02" stroke="#e6ab02" points="242.91,-1132.04 252.59,-1127.74 242.34,-1125.06 242.91,-1132.04"/>
</g>
<!-- v37 -->
<g id="node53" class="node">
<title>v37</title>
<ellipse fill="none" stroke="black" cx="127.09" cy="-1126.74" rx="27" ry="18"/>
<text text-anchor="middle" x="127.09" y="-1123.04" font-family="Times New Roman,serif" font-size="14.00">1&#39;0</text>
</g>
<!-- v37&#45;&gt;c21 -->
<g id="edge99" class="edge">
<title>v37:e&#45;&gt;c21:w</title>
<path fill="none" stroke="#1b9e77" d="M155.09,-1126.74C195.87,-1126.74 206.51,-1108.2 242.34,-1105.16"/>
<polygon fill="#1b9e77" stroke="#1b9e77" points="242.75,-1108.64 252.59,-1104.74 242.46,-1101.65 242.75,-1108.64"/>
</g>
<!-- x39 -->
<g id="node56" class="node">
<title>x39</title>
<path fill="none" stroke="black" d="M690.09,-1034.74C690.09,-1034.74 728.09,-1034.74 728.09,-1034.74 734.09,-1034.74 740.09,-1040.74 740.09,-1046.74 740.09,-1046.74 740.09,-1058.74 740.09,-1058.74 740.09,-1064.74 734.09,-1070.74 728.09,-1070.74 728.09,-1070.74 690.09,-1070.74 690.09,-1070.74 684.09,-1070.74 678.09,-1064.74 678.09,-1058.74 678.09,-1058.74 678.09,-1046.74 678.09,-1046.74 678.09,-1040.74 684.09,-1034.74 690.09,-1034.74"/>
<text text-anchor="middle" x="709.09" y="-1049.04" font-family="Times New Roman,serif" font-size="14.00">0:0 &#45; 6:6</text>
</g>
<!-- c21&#45;&gt;x39 -->
<g id="edge25" class="edge">
<title>c21:e&#45;&gt;x39:w</title>
<path fill="none" stroke="#66a61e" d="M492.73,-1092.48C568.16,-1089.24 590.57,-1056.21 666.04,-1052.99"/>
<polygon fill="none" stroke="#66a61e" points="492.59,-1092.49 486.68,-1096.61 480.59,-1092.74 486.51,-1088.61 492.59,-1092.49"/>
<polygon fill="none" stroke="#66a61e" points="666.1,-1052.99 672.01,-1048.86 678.09,-1052.74 672.18,-1056.86 666.1,-1052.99"/>
</g>
<!-- x38&#45;&gt;c21 -->
<g id="edge24" class="edge">
<title>x38:e&#45;&gt;c21:w</title>
<path fill="none" stroke="#1b9e77" d="M170.27,-1034.43C199.63,-1037.92 211.04,-1053.55 240.39,-1057.04"/>
<polygon fill="none" stroke="#1b9e77" points="170.07,-1034.42 163.86,-1038.07 158.09,-1033.74 164.31,-1030.09 170.07,-1034.42"/>
<polygon fill="none" stroke="#1b9e77" points="240.61,-1057.06 246.83,-1053.4 252.59,-1057.74 246.38,-1061.39 240.61,-1057.06"/>
</g>
<!-- x39&#45;&gt;n3 -->
<g id="edge58" class="edge">
<title>x39:e&#45;&gt;n3:w</title>
<path fill="none" stroke="#a6761d" d="M740.09,-1052.74C924.66,-1052.74 970.8,-1052.74 1155.37,-1052.74 1155.37,-1052.74 1155.37,-1052.74 1721.37,-1052.74 1722.11,-1052.74 1760.04,-1041.71 1778.5,-1036.46"/>
<polygon fill="#a6761d" stroke="#a6761d" points="1779.66,-1039.77 1788.37,-1033.74 1777.8,-1033.02 1779.66,-1039.77"/>
</g>
<!-- v40 -->
<g id="node57" class="node">
<title>v40</title>
<ellipse fill="none" stroke="black" cx="127.09" cy="-1383.74" rx="27" ry="18"/>
<text text-anchor="middle" x="127.09" y="-1380.04" font-family="Times New Roman,serif" font-size="14.00">1&#39;0</text>
</g>
<!-- v40&#45;&gt;c22 -->
<g id="edge100" class="edge">
<title>v40:e&#45;&gt;c22:w</title>
<path fill="none" stroke="#d95f02" d="M155.09,-1383.74C203.06,-1383.74 201.52,-1329.29 242.52,-1321.63"/>
<polygon fill="#d95f02" stroke="#d95f02" points="242.94,-1325.11 252.59,-1320.74 242.32,-1318.13 242.94,-1325.11"/>
</g>
<!-- x43 -->
<g id="node61" class="node">
<title>x43</title>
<path fill="none" stroke="black" d="M1297.37,-1130.74C1297.37,-1130.74 1335.37,-1130.74 1335.37,-1130.74 1341.37,-1130.74 1347.37,-1136.74 1347.37,-1142.74 1347.37,-1142.74 1347.37,-1154.74 1347.37,-1154.74 1347.37,-1160.74 1341.37,-1166.74 1335.37,-1166.74 1335.37,-1166.74 1297.37,-1166.74 1297.37,-1166.74 1291.37,-1166.74 1285.37,-1160.74 1285.37,-1154.74 1285.37,-1154.74 1285.37,-1142.74 1285.37,-1142.74 1285.37,-1136.74 1291.37,-1130.74 1297.37,-1130.74"/>
<text text-anchor="middle" x="1316.37" y="-1145.04" font-family="Times New Roman,serif" font-size="14.00">0:0 &#45; 7:7</text>
</g>
<!-- c22&#45;&gt;x43 -->
<g id="edge28" class="edge">
<title>c22:e&#45;&gt;x43:w</title>
<path fill="none" stroke="#e6ab02" d="M492.76,-1285.11C552.32,-1278.69 561.61,-1225.74 628.09,-1225.74 628.09,-1225.74 628.09,-1225.74 1157.37,-1225.74 1219.48,-1225.74 1219.3,-1158.34 1273.39,-1149.66"/>
<polygon fill="none" stroke="#e6ab02" points="492.58,-1285.11 486.79,-1289.42 480.59,-1285.74 486.38,-1281.43 492.58,-1285.11"/>
<polygon fill="none" stroke="#e6ab02" points="1273.41,-1149.65 1279.09,-1145.21 1285.37,-1148.74 1279.7,-1153.18 1273.41,-1149.65"/>
</g>
<!-- x41&#45;&gt;c22 -->
<g id="edge26" class="edge">
<title>x41:e&#45;&gt;c22:w</title>
<path fill="none" stroke="#a6761d" d="M170.46,-1327.84C200.27,-1323.32 210.63,-1302.97 240.59,-1298.58"/>
<polygon fill="none" stroke="#a6761d" points="170.06,-1327.87 164.37,-1332.3 158.09,-1328.74 163.79,-1324.32 170.06,-1327.87"/>
<polygon fill="none" stroke="#a6761d" points="240.62,-1298.58 246.33,-1294.17 252.59,-1297.74 246.89,-1302.15 240.62,-1298.58"/>
</g>
<!-- x42&#45;&gt;c22 -->
<g id="edge27" class="edge">
<title>x42:e&#45;&gt;c22:w</title>
<path fill="none" stroke="#7570b3" d="M170.41,-1273.74C198.88,-1273.74 211.85,-1273.74 240.35,-1273.74"/>
<polygon fill="none" stroke="#7570b3" points="170.09,-1273.74 164.09,-1277.74 158.09,-1273.74 164.09,-1269.74 170.09,-1273.74"/>
<polygon fill="none" stroke="#7570b3" points="240.59,-1273.74 246.59,-1269.74 252.59,-1273.74 246.59,-1277.74 240.59,-1273.74"/>
</g>
<!-- x43&#45;&gt;n3 -->
<g id="edge59" class="edge">
<title>x43:e&#45;&gt;n3:w</title>
<path fill="none" stroke="#a6761d" d="M1347.37,-1148.74C1538.87,-1148.74 1615.8,-1179.79 1770.37,-1066.74 1779.85,-1059.8 1776.64,-1046.31 1779.71,-1038.9"/>
<polygon fill="#a6761d" stroke="#a6761d" points="1781.57,-1041.86 1788.37,-1033.74 1777.99,-1035.85 1781.57,-1041.86"/>
</g>
<!-- v44 -->
<g id="node62" class="node">
<title>v44</title>
<ellipse fill="none" stroke="black" cx="127.09" cy="-978.74" rx="27" ry="18"/>
<text text-anchor="middle" x="127.09" y="-975.04" font-family="Times New Roman,serif" font-size="14.00">1&#39;0</text>
</g>
<!-- v44&#45;&gt;c23 -->
<g id="edge101" class="edge">
<title>v44:e&#45;&gt;c23:w</title>
<path fill="none" stroke="#1b9e77" d="M155.09,-978.74C196.83,-978.74 205.78,-952.62 242.15,-948.33"/>
<polygon fill="#1b9e77" stroke="#1b9e77" points="242.81,-951.8 252.59,-947.74 242.41,-944.81 242.81,-951.8"/>
</g>
<!-- v45 -->
<g id="node63" class="node">
<title>v45</title>
<ellipse fill="none" stroke="black" cx="127.09" cy="-924.74" rx="27" ry="18"/>
<text text-anchor="middle" x="127.09" y="-921.04" font-family="Times New Roman,serif" font-size="14.00">1&#39;0</text>
</g>
<!-- v45&#45;&gt;c23 -->
<g id="edge102" class="edge">
<title>v45:e&#45;&gt;c23:w</title>
<path fill="none" stroke="#66a61e" d="M155.09,-924.74C194.87,-924.74 207.26,-924.74 242.55,-924.74"/>
<polygon fill="#66a61e" stroke="#66a61e" points="242.59,-928.24 252.59,-924.74 242.59,-921.24 242.59,-928.24"/>
</g>
<!-- x47 -->
<g id="node66" class="node">
<title>x47</title>
<path fill="none" stroke="black" d="M1137.37,-996.74C1137.37,-996.74 1175.37,-996.74 1175.37,-996.74 1181.37,-996.74 1187.37,-1002.74 1187.37,-1008.74 1187.37,-1008.74 1187.37,-1020.74 1187.37,-1020.74 1187.37,-1026.74 1181.37,-1032.74 1175.37,-1032.74 1175.37,-1032.74 1137.37,-1032.74 1137.37,-1032.74 1131.37,-1032.74 1125.37,-1026.74 1125.37,-1020.74 1125.37,-1020.74 1125.37,-1008.74 1125.37,-1008.74 1125.37,-1002.74 1131.37,-996.74 1137.37,-996.74"/>
<text text-anchor="middle" x="1156.37" y="-1011.04" font-family="Times New Roman,serif" font-size="14.00">0:0 &#45; 8:8</text>
</g>
<!-- c23&#45;&gt;x47 -->
<g id="edge30" class="edge">
<title>c23:e&#45;&gt;x47:w</title>
<path fill="none" stroke="#d95f02" d="M492.78,-912.8C768.64,-915.57 837.42,-1011.95 1113.35,-1014.68"/>
<polygon fill="none" stroke="#d95f02" points="492.59,-912.8 486.57,-916.77 480.59,-912.74 486.61,-908.77 492.59,-912.8"/>
<polygon fill="none" stroke="#d95f02" points="1113.37,-1014.68 1119.39,-1010.71 1125.37,-1014.74 1119.35,-1018.71 1113.37,-1014.68"/>
</g>
<!-- x46&#45;&gt;c23 -->
<g id="edge29" class="edge">
<title>x46:e&#45;&gt;c23:w</title>
<path fill="none" stroke="#7570b3" d="M170.44,-869.99C198.96,-871.18 211.77,-876.31 240.32,-877.49"/>
<polygon fill="none" stroke="#7570b3" points="170.09,-869.98 164.01,-873.86 158.09,-869.74 164.17,-865.86 170.09,-869.98"/>
<polygon fill="none" stroke="#7570b3" points="240.6,-877.5 246.67,-873.62 252.59,-877.74 246.51,-881.62 240.6,-877.5"/>
</g>
<!-- x47&#45;&gt;n3 -->
<g id="edge60" class="edge">
<title>x47:e&#45;&gt;n3:w</title>
<path fill="none" stroke="#a6761d" d="M1187.37,-1014.74C1244.26,-1014.74 1258.48,-1014.74 1315.37,-1014.74 1315.37,-1014.74 1315.37,-1014.74 1721.37,-1014.74 1748.58,-1014.74 1755.81,-1029.42 1778.17,-1032.97"/>
<polygon fill="#a6761d" stroke="#a6761d" points="1778.14,-1036.48 1788.37,-1033.74 1778.66,-1029.5 1778.14,-1036.48"/>
</g>
<!-- v48 -->
<g id="node67" class="node">
<title>v48</title>
<ellipse fill="none" stroke="black" cx="127.09" cy="-776.74" rx="27" ry="18"/>
<text text-anchor="middle" x="127.09" y="-773.04" font-family="Times New Roman,serif" font-size="14.00">1&#39;0</text>
</g>
<!-- v48&#45;&gt;c24 -->
<g id="edge103" class="edge">
<title>v48:e&#45;&gt;c24:w</title>
<path fill="none" stroke="#666666" d="M155.09,-776.74C199.94,-776.74 209.79,-750.17 249.45,-746.23"/>
<polygon fill="#666666" stroke="#666666" points="249.77,-749.71 259.59,-745.74 249.44,-742.72 249.77,-749.71"/>
</g>
<!-- v49 -->
<g id="node68" class="node">
<title>v49</title>
<ellipse fill="none" stroke="black" cx="127.09" cy="-722.74" rx="27" ry="18"/>
<text text-anchor="middle" x="127.09" y="-719.04" font-family="Times New Roman,serif" font-size="14.00">1&#39;0</text>
</g>
<!-- v49&#45;&gt;c24 -->
<g id="edge104" class="edge">
<title>v49:e&#45;&gt;c24:w</title>
<path fill="none" stroke="#666666" d="M155.09,-722.74C197.91,-722.74 211.12,-722.74 249.31,-722.74"/>
<polygon fill="#666666" stroke="#666666" points="249.59,-726.24 259.59,-722.74 249.59,-719.24 249.59,-726.24"/>
</g>
<!-- x51 -->
<g id="node71" class="node">
<title>x51</title>
<path fill="none" stroke="black" d="M1297.37,-844.74C1297.37,-844.74 1335.37,-844.74 1335.37,-844.74 1341.37,-844.74 1347.37,-850.74 1347.37,-856.74 1347.37,-856.74 1347.37,-868.74 1347.37,-868.74 1347.37,-874.74 1341.37,-880.74 1335.37,-880.74 1335.37,-880.74 1297.37,-880.74 1297.37,-880.74 1291.37,-880.74 1285.37,-874.74 1285.37,-868.74 1285.37,-868.74 1285.37,-856.74 1285.37,-856.74 1285.37,-850.74 1291.37,-844.74 1297.37,-844.74"/>
<text text-anchor="middle" x="1316.37" y="-859.04" font-family="Times New Roman,serif" font-size="14.00">0:0 &#45; 9:9</text>
</g>
<!-- c24&#45;&gt;x51 -->
<g id="edge32" class="edge">
<title>c24:e&#45;&gt;x51:w</title>
<path fill="none" stroke="#e6ab02" d="M485.8,-711.58C557.34,-721.92 547.34,-823.74 628.09,-823.74 628.09,-823.74 628.09,-823.74 1157.37,-823.74 1212.55,-823.74 1224.33,-857.31 1273.23,-862.16"/>
<polygon fill="none" stroke="#e6ab02" points="485.56,-711.57 479.3,-715.14 473.59,-710.74 479.86,-707.16 485.56,-711.57"/>
<polygon fill="none" stroke="#e6ab02" points="1273.39,-862.16 1279.57,-858.46 1285.37,-862.74 1279.19,-866.45 1273.39,-862.16"/>
</g>
<!-- x50&#45;&gt;c24 -->
<g id="edge31" class="edge">
<title>x50:e&#45;&gt;c24:w</title>
<path fill="none" stroke="#d95f02" d="M170.43,-667.95C202.09,-669.09 215.78,-674.42 247.55,-675.53"/>
<polygon fill="none" stroke="#d95f02" points="170.09,-667.95 164.02,-671.84 158.09,-667.74 164.16,-663.84 170.09,-667.95"/>
<polygon fill="none" stroke="#d95f02" points="247.6,-675.54 253.66,-671.64 259.59,-675.74 253.53,-679.64 247.6,-675.54"/>
</g>
<!-- x51&#45;&gt;n3 -->
<g id="edge61" class="edge">
<title>x51:e&#45;&gt;n3:w</title>
<path fill="none" stroke="#a6761d" d="M1347.37,-862.74C1545.12,-862.74 1618.29,-874.34 1770.37,-1000.74 1779.41,-1008.25 1776.38,-1021.51 1779.59,-1028.72"/>
<polygon fill="#a6761d" stroke="#a6761d" points="1777.95,-1031.82 1788.37,-1033.74 1781.42,-1025.74 1777.95,-1031.82"/>
</g>
<!-- v52 -->
<g id="node72" class="node">
<title>v52</title>
<ellipse fill="none" stroke="black" cx="127.09" cy="-2467.74" rx="27" ry="18"/>
<text text-anchor="middle" x="127.09" y="-2464.04" font-family="Times New Roman,serif" font-size="14.00">1&#39;0</text>
</g>
<!-- c25 -->
<g id="node74" class="node">
<title>c25</title>
<polygon fill="none" stroke="black" points="276.59,-2324.74 276.59,-2416.74 456.59,-2416.74 456.59,-2324.74 276.59,-2324.74"/>
<text text-anchor="middle" x="290.59" y="-2401.54" font-family="Times New Roman,serif" font-size="14.00">I0</text>
<polyline fill="none" stroke="black" points="276.59,-2393.74 304.59,-2393.74 "/>
<text text-anchor="middle" x="290.59" y="-2378.54" font-family="Times New Roman,serif" font-size="14.00">I1</text>
<polyline fill="none" stroke="black" points="276.59,-2370.74 304.59,-2370.74 "/>
<text text-anchor="middle" x="290.59" y="-2355.54" font-family="Times New Roman,serif" font-size="14.00">I2</text>
<polyline fill="none" stroke="black" points="276.59,-2347.74 304.59,-2347.74 "/>
<text text-anchor="middle" x="290.59" y="-2332.54" font-family="Times New Roman,serif" font-size="14.00">I3</text>
<polyline fill="none" stroke="black" points="304.59,-2324.74 304.59,-2416.74 "/>
<text text-anchor="middle" x="367.09" y="-2374.54" font-family="Times New Roman,serif" font-size="14.00">out2_SB_LUT4_O</text>
<text text-anchor="middle" x="367.09" y="-2359.54" font-family="Times New Roman,serif" font-size="14.00">SB_LUT4</text>
<polyline fill="none" stroke="black" points="429.59,-2324.74 429.59,-2416.74 "/>
<text text-anchor="middle" x="443.09" y="-2367.04" font-family="Times New Roman,serif" font-size="14.00">O</text>
</g>
<!-- v52&#45;&gt;c25 -->
<g id="edge106" class="edge">
<title>v52:e&#45;&gt;c25:w</title>
<path fill="none" stroke="#d95f02" d="M155.09,-2467.74C211.79,-2467.74 215.15,-2412.79 265.6,-2406.35"/>
<polygon fill="#d95f02" stroke="#d95f02" points="265.83,-2409.84 275.59,-2405.74 265.4,-2402.86 265.83,-2409.84"/>
</g>
<!-- v53 -->
<g id="node73" class="node">
<title>v53</title>
<ellipse fill="none" stroke="black" cx="127.09" cy="-2413.74" rx="27" ry="18"/>
<text text-anchor="middle" x="127.09" y="-2410.04" font-family="Times New Roman,serif" font-size="14.00">1&#39;0</text>
</g>
<!-- v53&#45;&gt;c25 -->
<g id="edge107" class="edge">
<title>v53:e&#45;&gt;c25:w</title>
<path fill="none" stroke="#1b9e77" d="M155.09,-2413.74C206.83,-2413.74 218.83,-2386.61 265.44,-2383.11"/>
<polygon fill="#1b9e77" stroke="#1b9e77" points="265.73,-2386.6 275.59,-2382.74 265.47,-2379.6 265.73,-2386.6"/>
</g>
<!-- c25&#45;&gt;n5 -->
<g id="edge65" class="edge">
<title>c25:e&#45;&gt;n5:w</title>
<path fill="none" stroke="#66a61e" d="M457.59,-2370.74C593.93,-2370.74 491.76,-2115.74 628.09,-2115.74 628.09,-2115.74 628.09,-2115.74 1317.37,-2115.74 1545.84,-2115.74 1569.99,-1982.48 1770.37,-1872.74 1784.38,-1865.07 1788.33,-1855.65 1799.5,-1852.14"/>
<polygon fill="#66a61e" stroke="#66a61e" points="1800.3,-1855.57 1809.73,-1850.74 1799.34,-1848.63 1800.3,-1855.57"/>
</g>
<!-- x54&#45;&gt;c25 -->
<g id="edge33" class="edge">
<title>x54:e&#45;&gt;c25:w</title>
<path fill="none" stroke="#1b9e77" d="M170.2,-2358.74C208.9,-2358.74 224.75,-2358.74 263.43,-2358.74"/>
<polygon fill="none" stroke="#1b9e77" points="170.09,-2358.74 164.09,-2362.74 158.09,-2358.74 164.09,-2354.74 170.09,-2358.74"/>
<polygon fill="none" stroke="#1b9e77" points="263.59,-2358.74 269.59,-2354.74 275.59,-2358.74 269.59,-2362.74 263.59,-2358.74"/>
</g>
<!-- x55&#45;&gt;c25 -->
<g id="edge34" class="edge">
<title>x55:e&#45;&gt;c25:w</title>
<path fill="none" stroke="#66a61e" d="M170.28,-2304.32C210.23,-2308.29 223.54,-2331.25 263.55,-2335.17"/>
<polygon fill="none" stroke="#66a61e" points="170.08,-2304.31 163.9,-2308.02 158.09,-2303.74 164.28,-2300.03 170.08,-2304.31"/>
<polygon fill="none" stroke="#66a61e" points="263.61,-2335.17 269.79,-2331.46 275.59,-2335.74 269.41,-2339.45 263.61,-2335.17"/>
</g>
<!-- x57 -->
<g id="node78" class="node">
<title>x57</title>
<path fill="none" stroke="black" d="M610.09,-1720.74C610.09,-1720.74 648.09,-1720.74 648.09,-1720.74 654.09,-1720.74 660.09,-1726.74 660.09,-1732.74 660.09,-1732.74 660.09,-1754.74 660.09,-1754.74 660.09,-1760.74 654.09,-1766.74 648.09,-1766.74 648.09,-1766.74 610.09,-1766.74 610.09,-1766.74 604.09,-1766.74 598.09,-1760.74 598.09,-1754.74 598.09,-1754.74 598.09,-1732.74 598.09,-1732.74 598.09,-1726.74 604.09,-1720.74 610.09,-1720.74"/>
<text text-anchor="middle" x="629.09" y="-1751.54" font-family="Times New Roman,serif" font-size="14.00">1:1 &#45; 3:3</text>
<polyline fill="none" stroke="black" points="598.09,-1743.74 660.09,-1743.74 "/>
<text text-anchor="middle" x="629.09" y="-1728.54" font-family="Times New Roman,serif" font-size="14.00">0:0 &#45; 0:0</text>
</g>
<!-- x56&#45;&gt;x57 -->
<g id="edge35" class="edge">
<title>x56:e&#45;&gt;x57:w</title>
<path fill="none" stroke="#1b9e77" stroke-width="3" d="M410.63,-1875.68C466.5,-1875.04 489.35,-1868.9 538.09,-1832.74 572.66,-1807.09 554.86,-1755.26 586.1,-1745.38"/>
<polygon fill="none" stroke="#1b9e77" stroke-width="3" points="410.59,-1875.68 404.61,-1879.71 398.59,-1875.74 404.57,-1871.71 410.59,-1875.68"/>
<polygon fill="none" stroke="#1b9e77" stroke-width="3" points="586.2,-1745.37 591.61,-1740.59 598.09,-1743.74 592.69,-1748.52 586.2,-1745.37"/>
<text text-anchor="middle" x="568.09" y="-1811.54" font-family="Times New Roman,serif" font-size="14.00" fill="#1b9e77">&lt;2&gt;</text>
</g>
<!-- x57&#45;&gt;n1 -->
<g id="edge38" class="edge">
<title>x57:e&#45;&gt;n1:w</title>
<path fill="none" stroke="#e7298a" d="M660.09,-1731.74C696.27,-1731.74 707.36,-1731.33 740.09,-1746.74 745.25,-1749.16 747.03,-1753.42 749.3,-1756.78"/>
<polygon fill="#e7298a" stroke="#e7298a" points="747.66,-1759.88 758.09,-1761.74 751.1,-1753.78 747.66,-1759.88"/>
</g>
<!-- x57&#45;&gt;n1 -->
<g id="edge39" class="edge">
<title>x57:e&#45;&gt;n1:w</title>
<path fill="none" stroke="#e7298a" d="M660.09,-1755.74C700.15,-1755.74 712.48,-1760.79 747.98,-1761.62"/>
<polygon fill="#e7298a" stroke="#e7298a" points="748.05,-1765.12 758.09,-1761.74 748.13,-1758.13 748.05,-1765.12"/>
</g>
</g>
</svg>
