<svg xmlns="http://www.w3.org/2000/svg" xmlns:xlink="http://www.w3.org/1999/xlink" xmlns:s="https://github.com/nturley/netlistsvg" width="919" height="1007.5">
  <style>svg {
    stroke:#000;
    fill:none;
  }
  text {
    fill:#000;
    stroke:none;
    font-size:10px;
    font-weight: bold;
    font-family: "Courier New", monospace;
  }
  .nodelabel {
    text-anchor: middle;
  }
  .inputPortLabel {
    text-anchor: end;
  }
  .splitjoinBody {
    fill:#000;
  }</style>
  <g s:type="and" transform="translate(217,115.5)" s:width="30" s:height="25" id="cell_$and$top_module.v:31$2">
    <s:alias val="$and"/>
    <s:alias val="$logic_and"/>
    <s:alias val="$_AND_"/>
    <path d="M0,0 L0,25 L15,25 A15 12.5 0 0 0 15,0 Z" class="cell_$and$top_module.v:31$2"/>
    <g s:x="0" s:y="5" s:pid="A"/>
    <g s:x="0" s:y="20" s:pid="B"/>
    <g s:x="30" s:y="12.5" s:pid="Y"/>
  </g>
  <g s:type="and" transform="translate(217,175.5)" s:width="30" s:height="25" id="cell_$and$top_module.v:32$4">
    <s:alias val="$and"/>
    <s:alias val="$logic_and"/>
    <s:alias val="$_AND_"/>
    <path d="M0,0 L0,25 L15,25 A15 12.5 0 0 0 15,0 Z" class="cell_$and$top_module.v:32$4"/>
    <g s:x="0" s:y="5" s:pid="A"/>
    <g s:x="0" s:y="20" s:pid="B"/>
    <g s:x="30" s:y="12.5" s:pid="Y"/>
  </g>
  <g s:type="and" transform="translate(282,205.5)" s:width="30" s:height="25" id="cell_$and$top_module.v:33$7">
    <s:alias val="$and"/>
    <s:alias val="$logic_and"/>
    <s:alias val="$_AND_"/>
    <path d="M0,0 L0,25 L15,25 A15 12.5 0 0 0 15,0 Z" class="cell_$and$top_module.v:33$7"/>
    <g s:x="0" s:y="5" s:pid="A"/>
    <g s:x="0" s:y="20" s:pid="B"/>
    <g s:x="30" s:y="12.5" s:pid="Y"/>
  </g>
  <g s:type="and" transform="translate(347,235.5)" s:width="30" s:height="25" id="cell_$and$top_module.v:34$10">
    <s:alias val="$and"/>
    <s:alias val="$logic_and"/>
    <s:alias val="$_AND_"/>
    <path d="M0,0 L0,25 L15,25 A15 12.5 0 0 0 15,0 Z" class="cell_$and$top_module.v:34$10"/>
    <g s:x="0" s:y="5" s:pid="A"/>
    <g s:x="0" s:y="20" s:pid="B"/>
    <g s:x="30" s:y="12.5" s:pid="Y"/>
  </g>
  <g s:type="and" transform="translate(412,265.5)" s:width="30" s:height="25" id="cell_$and$top_module.v:35$13">
    <s:alias val="$and"/>
    <s:alias val="$logic_and"/>
    <s:alias val="$_AND_"/>
    <path d="M0,0 L0,25 L15,25 A15 12.5 0 0 0 15,0 Z" class="cell_$and$top_module.v:35$13"/>
    <g s:x="0" s:y="5" s:pid="A"/>
    <g s:x="0" s:y="20" s:pid="B"/>
    <g s:x="30" s:y="12.5" s:pid="Y"/>
  </g>
  <g s:type="and" transform="translate(477,295.5)" s:width="30" s:height="25" id="cell_$and$top_module.v:36$16">
    <s:alias val="$and"/>
    <s:alias val="$logic_and"/>
    <s:alias val="$_AND_"/>
    <path d="M0,0 L0,25 L15,25 A15 12.5 0 0 0 15,0 Z" class="cell_$and$top_module.v:36$16"/>
    <g s:x="0" s:y="5" s:pid="A"/>
    <g s:x="0" s:y="20" s:pid="B"/>
    <g s:x="30" s:y="12.5" s:pid="Y"/>
  </g>
  <g s:type="and" transform="translate(542,325.5)" s:width="30" s:height="25" id="cell_$and$top_module.v:37$19">
    <s:alias val="$and"/>
    <s:alias val="$logic_and"/>
    <s:alias val="$_AND_"/>
    <path d="M0,0 L0,25 L15,25 A15 12.5 0 0 0 15,0 Z" class="cell_$and$top_module.v:37$19"/>
    <g s:x="0" s:y="5" s:pid="A"/>
    <g s:x="0" s:y="20" s:pid="B"/>
    <g s:x="30" s:y="12.5" s:pid="Y"/>
  </g>
  <g s:type="and" transform="translate(607,355.5)" s:width="30" s:height="25" id="cell_$and$top_module.v:38$22">
    <s:alias val="$and"/>
    <s:alias val="$logic_and"/>
    <s:alias val="$_AND_"/>
    <path d="M0,0 L0,25 L15,25 A15 12.5 0 0 0 15,0 Z" class="cell_$and$top_module.v:38$22"/>
    <g s:x="0" s:y="5" s:pid="A"/>
    <g s:x="0" s:y="20" s:pid="B"/>
    <g s:x="30" s:y="12.5" s:pid="Y"/>
  </g>
  <g s:type="and" transform="translate(542,408)" s:width="30" s:height="25" id="cell_$and$top_module.v:41$24">
    <s:alias val="$and"/>
    <s:alias val="$logic_and"/>
    <s:alias val="$_AND_"/>
    <path d="M0,0 L0,25 L15,25 A15 12.5 0 0 0 15,0 Z" class="cell_$and$top_module.v:41$24"/>
    <g s:x="0" s:y="5" s:pid="A"/>
    <g s:x="0" s:y="20" s:pid="B"/>
    <g s:x="30" s:y="12.5" s:pid="Y"/>
  </g>
  <g s:type="and" transform="translate(542,468)" s:width="30" s:height="25" id="cell_$and$top_module.v:42$25">
    <s:alias val="$and"/>
    <s:alias val="$logic_and"/>
    <s:alias val="$_AND_"/>
    <path d="M0,0 L0,25 L15,25 A15 12.5 0 0 0 15,0 Z" class="cell_$and$top_module.v:42$25"/>
    <g s:x="0" s:y="5" s:pid="A"/>
    <g s:x="0" s:y="20" s:pid="B"/>
    <g s:x="30" s:y="12.5" s:pid="Y"/>
  </g>
  <g s:type="and" transform="translate(607,498)" s:width="30" s:height="25" id="cell_$and$top_module.v:43$27">
    <s:alias val="$and"/>
    <s:alias val="$logic_and"/>
    <s:alias val="$_AND_"/>
    <path d="M0,0 L0,25 L15,25 A15 12.5 0 0 0 15,0 Z" class="cell_$and$top_module.v:43$27"/>
    <g s:x="0" s:y="5" s:pid="A"/>
    <g s:x="0" s:y="20" s:pid="B"/>
    <g s:x="30" s:y="12.5" s:pid="Y"/>
  </g>
  <g s:type="and" transform="translate(672,528)" s:width="30" s:height="25" id="cell_$and$top_module.v:45$29">
    <s:alias val="$and"/>
    <s:alias val="$logic_and"/>
    <s:alias val="$_AND_"/>
    <path d="M0,0 L0,25 L15,25 A15 12.5 0 0 0 15,0 Z" class="cell_$and$top_module.v:45$29"/>
    <g s:x="0" s:y="5" s:pid="A"/>
    <g s:x="0" s:y="20" s:pid="B"/>
    <g s:x="30" s:y="12.5" s:pid="Y"/>
  </g>
  <g s:type="and" transform="translate(672,588)" s:width="30" s:height="25" id="cell_$and$top_module.v:46$30">
    <s:alias val="$and"/>
    <s:alias val="$logic_and"/>
    <s:alias val="$_AND_"/>
    <path d="M0,0 L0,25 L15,25 A15 12.5 0 0 0 15,0 Z" class="cell_$and$top_module.v:46$30"/>
    <g s:x="0" s:y="5" s:pid="A"/>
    <g s:x="0" s:y="20" s:pid="B"/>
    <g s:x="30" s:y="12.5" s:pid="Y"/>
  </g>
  <g s:type="and" transform="translate(672,648)" s:width="30" s:height="25" id="cell_$and$top_module.v:47$31">
    <s:alias val="$and"/>
    <s:alias val="$logic_and"/>
    <s:alias val="$_AND_"/>
    <path d="M0,0 L0,25 L15,25 A15 12.5 0 0 0 15,0 Z" class="cell_$and$top_module.v:47$31"/>
    <g s:x="0" s:y="5" s:pid="A"/>
    <g s:x="0" s:y="20" s:pid="B"/>
    <g s:x="30" s:y="12.5" s:pid="Y"/>
  </g>
  <g s:type="and" transform="translate(672,708)" s:width="30" s:height="25" id="cell_$and$top_module.v:48$32">
    <s:alias val="$and"/>
    <s:alias val="$logic_and"/>
    <s:alias val="$_AND_"/>
    <path d="M0,0 L0,25 L15,25 A15 12.5 0 0 0 15,0 Z" class="cell_$and$top_module.v:48$32"/>
    <g s:x="0" s:y="5" s:pid="A"/>
    <g s:x="0" s:y="20" s:pid="B"/>
    <g s:x="30" s:y="12.5" s:pid="Y"/>
  </g>
  <g s:type="and" transform="translate(672,768)" s:width="30" s:height="25" id="cell_$and$top_module.v:49$33">
    <s:alias val="$and"/>
    <s:alias val="$logic_and"/>
    <s:alias val="$_AND_"/>
    <path d="M0,0 L0,25 L15,25 A15 12.5 0 0 0 15,0 Z" class="cell_$and$top_module.v:49$33"/>
    <g s:x="0" s:y="5" s:pid="A"/>
    <g s:x="0" s:y="20" s:pid="B"/>
    <g s:x="30" s:y="12.5" s:pid="Y"/>
  </g>
  <g s:type="and" transform="translate(607,820.5)" s:width="30" s:height="25" id="cell_$and$top_module.v:50$34">
    <s:alias val="$and"/>
    <s:alias val="$logic_and"/>
    <s:alias val="$_AND_"/>
    <path d="M0,0 L0,25 L15,25 A15 12.5 0 0 0 15,0 Z" class="cell_$and$top_module.v:50$34"/>
    <g s:x="0" s:y="5" s:pid="A"/>
    <g s:x="0" s:y="20" s:pid="B"/>
    <g s:x="30" s:y="12.5" s:pid="Y"/>
  </g>
  <g s:type="and" transform="translate(607,880.5)" s:width="30" s:height="25" id="cell_$and$top_module.v:50$35">
    <s:alias val="$and"/>
    <s:alias val="$logic_and"/>
    <s:alias val="$_AND_"/>
    <path d="M0,0 L0,25 L15,25 A15 12.5 0 0 0 15,0 Z" class="cell_$and$top_module.v:50$35"/>
    <g s:x="0" s:y="5" s:pid="A"/>
    <g s:x="0" s:y="20" s:pid="B"/>
    <g s:x="30" s:y="12.5" s:pid="Y"/>
  </g>
  <g s:type="and" transform="translate(672,910.5)" s:width="30" s:height="25" id="cell_$and$top_module.v:51$38">
    <s:alias val="$and"/>
    <s:alias val="$logic_and"/>
    <s:alias val="$_AND_"/>
    <path d="M0,0 L0,25 L15,25 A15 12.5 0 0 0 15,0 Z" class="cell_$and$top_module.v:51$38"/>
    <g s:x="0" s:y="5" s:pid="A"/>
    <g s:x="0" s:y="20" s:pid="B"/>
    <g s:x="30" s:y="12.5" s:pid="Y"/>
  </g>
  <g s:type="and" transform="translate(672,970.5)" s:width="30" s:height="25" id="cell_$and$top_module.v:52$40">
    <s:alias val="$and"/>
    <s:alias val="$logic_and"/>
    <s:alias val="$_AND_"/>
    <path d="M0,0 L0,25 L15,25 A15 12.5 0 0 0 15,0 Z" class="cell_$and$top_module.v:52$40"/>
    <g s:x="0" s:y="5" s:pid="A"/>
    <g s:x="0" s:y="20" s:pid="B"/>
    <g s:x="30" s:y="12.5" s:pid="Y"/>
  </g>
  <g s:type="not" transform="translate(77,275.5)" s:width="30" s:height="20" id="cell_$not$top_module.v:31$1">
    <s:alias val="$_NOT_"/>
    <s:alias val="$not"/>
    <s:alias val="$logic_not"/>
    <path d="M0,0 L0,20 L20,10 Z" class="cell_$not$top_module.v:31$1"/>
    <circle cx="23" cy="10" r="3" class="cell_$not$top_module.v:31$1"/>
    <g s:x="0" s:y="10" s:pid="A"/>
    <g s:x="25" s:y="10" s:pid="Y"/>
  </g>
  <g s:type="or" transform="translate(412,138)" s:width="30" s:height="25" id="cell_$or$top_module.v:31$11">
    <s:alias val="$or"/>
    <s:alias val="$logic_or"/>
    <s:alias val="$_OR_"/>
    <path d="M0,25 L0,25 L15,25 A15 12.5 0 0 0 15,0 L0,0" class="cell_$or$top_module.v:31$11"/>
    <path d="M0,0 A30 25 0 0 1 0,25" class="cell_$or$top_module.v:31$11"/>
    <g s:x="3" s:y="5" s:pid="A"/>
    <g s:x="3" s:y="20" s:pid="B"/>
    <g s:x="30" s:y="12.5" s:pid="Y"/>
  </g>
  <g s:type="or" transform="translate(477,145.5)" s:width="30" s:height="25" id="cell_$or$top_module.v:31$14">
    <s:alias val="$or"/>
    <s:alias val="$logic_or"/>
    <s:alias val="$_OR_"/>
    <path d="M0,25 L0,25 L15,25 A15 12.5 0 0 0 15,0 L0,0" class="cell_$or$top_module.v:31$14"/>
    <path d="M0,0 A30 25 0 0 1 0,25" class="cell_$or$top_module.v:31$14"/>
    <g s:x="3" s:y="5" s:pid="A"/>
    <g s:x="3" s:y="20" s:pid="B"/>
    <g s:x="30" s:y="12.5" s:pid="Y"/>
  </g>
  <g s:type="or" transform="translate(542,153)" s:width="30" s:height="25" id="cell_$or$top_module.v:31$17">
    <s:alias val="$or"/>
    <s:alias val="$logic_or"/>
    <s:alias val="$_OR_"/>
    <path d="M0,25 L0,25 L15,25 A15 12.5 0 0 0 15,0 L0,0" class="cell_$or$top_module.v:31$17"/>
    <path d="M0,0 A30 25 0 0 1 0,25" class="cell_$or$top_module.v:31$17"/>
    <g s:x="3" s:y="5" s:pid="A"/>
    <g s:x="3" s:y="20" s:pid="B"/>
    <g s:x="30" s:y="12.5" s:pid="Y"/>
  </g>
  <g s:type="or" transform="translate(607,160.5)" s:width="30" s:height="25" id="cell_$or$top_module.v:31$20">
    <s:alias val="$or"/>
    <s:alias val="$logic_or"/>
    <s:alias val="$_OR_"/>
    <path d="M0,25 L0,25 L15,25 A15 12.5 0 0 0 15,0 L0,0" class="cell_$or$top_module.v:31$20"/>
    <path d="M0,0 A30 25 0 0 1 0,25" class="cell_$or$top_module.v:31$20"/>
    <g s:x="3" s:y="5" s:pid="A"/>
    <g s:x="3" s:y="20" s:pid="B"/>
    <g s:x="30" s:y="12.5" s:pid="Y"/>
  </g>
  <g s:type="or" transform="translate(672,168)" s:width="30" s:height="25" id="cell_$or$top_module.v:31$23">
    <s:alias val="$or"/>
    <s:alias val="$logic_or"/>
    <s:alias val="$_OR_"/>
    <path d="M0,25 L0,25 L15,25 A15 12.5 0 0 0 15,0 L0,0" class="cell_$or$top_module.v:31$23"/>
    <path d="M0,0 A30 25 0 0 1 0,25" class="cell_$or$top_module.v:31$23"/>
    <g s:x="3" s:y="5" s:pid="A"/>
    <g s:x="3" s:y="20" s:pid="B"/>
    <g s:x="30" s:y="12.5" s:pid="Y"/>
  </g>
  <g s:type="or" transform="translate(282,123)" s:width="30" s:height="25" id="cell_$or$top_module.v:31$5">
    <s:alias val="$or"/>
    <s:alias val="$logic_or"/>
    <s:alias val="$_OR_"/>
    <path d="M0,25 L0,25 L15,25 A15 12.5 0 0 0 15,0 L0,0" class="cell_$or$top_module.v:31$5"/>
    <path d="M0,0 A30 25 0 0 1 0,25" class="cell_$or$top_module.v:31$5"/>
    <g s:x="3" s:y="5" s:pid="A"/>
    <g s:x="3" s:y="20" s:pid="B"/>
    <g s:x="30" s:y="12.5" s:pid="Y"/>
  </g>
  <g s:type="or" transform="translate(347,130.5)" s:width="30" s:height="25" id="cell_$or$top_module.v:31$8">
    <s:alias val="$or"/>
    <s:alias val="$logic_or"/>
    <s:alias val="$_OR_"/>
    <path d="M0,25 L0,25 L15,25 A15 12.5 0 0 0 15,0 L0,0" class="cell_$or$top_module.v:31$8"/>
    <path d="M0,0 A30 25 0 0 1 0,25" class="cell_$or$top_module.v:31$8"/>
    <g s:x="3" s:y="5" s:pid="A"/>
    <g s:x="3" s:y="20" s:pid="B"/>
    <g s:x="30" s:y="12.5" s:pid="Y"/>
  </g>
  <g s:type="or" transform="translate(607,415.5)" s:width="30" s:height="25" id="cell_$or$top_module.v:41$26">
    <s:alias val="$or"/>
    <s:alias val="$logic_or"/>
    <s:alias val="$_OR_"/>
    <path d="M0,25 L0,25 L15,25 A15 12.5 0 0 0 15,0 L0,0" class="cell_$or$top_module.v:41$26"/>
    <path d="M0,0 A30 25 0 0 1 0,25" class="cell_$or$top_module.v:41$26"/>
    <g s:x="3" s:y="5" s:pid="A"/>
    <g s:x="3" s:y="20" s:pid="B"/>
    <g s:x="30" s:y="12.5" s:pid="Y"/>
  </g>
  <g s:type="or" transform="translate(672,423)" s:width="30" s:height="25" id="cell_$or$top_module.v:41$28">
    <s:alias val="$or"/>
    <s:alias val="$logic_or"/>
    <s:alias val="$_OR_"/>
    <path d="M0,25 L0,25 L15,25 A15 12.5 0 0 0 15,0 L0,0" class="cell_$or$top_module.v:41$28"/>
    <path d="M0,0 A30 25 0 0 1 0,25" class="cell_$or$top_module.v:41$28"/>
    <g s:x="3" s:y="5" s:pid="A"/>
    <g s:x="3" s:y="20" s:pid="B"/>
    <g s:x="30" s:y="12.5" s:pid="Y"/>
  </g>
  <g s:type="or" transform="translate(672,828)" s:width="30" s:height="25" id="cell_$or$top_module.v:50$36">
    <s:alias val="$or"/>
    <s:alias val="$logic_or"/>
    <s:alias val="$_OR_"/>
    <path d="M0,25 L0,25 L15,25 A15 12.5 0 0 0 15,0 L0,0" class="cell_$or$top_module.v:50$36"/>
    <path d="M0,0 A30 25 0 0 1 0,25" class="cell_$or$top_module.v:50$36"/>
    <g s:x="3" s:y="5" s:pid="A"/>
    <g s:x="3" s:y="20" s:pid="B"/>
    <g s:x="30" s:y="12.5" s:pid="Y"/>
  </g>
  <g s:type="or" transform="translate(782,84.5)" s:width="30" s:height="25" id="cell_$or$top_module.v:55$41">
    <s:alias val="$or"/>
    <s:alias val="$logic_or"/>
    <s:alias val="$_OR_"/>
    <path d="M0,25 L0,25 L15,25 A15 12.5 0 0 0 15,0 L0,0" class="cell_$or$top_module.v:55$41"/>
    <path d="M0,0 A30 25 0 0 1 0,25" class="cell_$or$top_module.v:55$41"/>
    <g s:x="3" s:y="5" s:pid="A"/>
    <g s:x="3" s:y="20" s:pid="B"/>
    <g s:x="30" s:y="12.5" s:pid="Y"/>
  </g>
  <g s:type="or" transform="translate(782,19.5)" s:width="30" s:height="25" id="cell_$or$top_module.v:56$42">
    <s:alias val="$or"/>
    <s:alias val="$logic_or"/>
    <s:alias val="$_OR_"/>
    <path d="M0,25 L0,25 L15,25 A15 12.5 0 0 0 15,0 L0,0" class="cell_$or$top_module.v:56$42"/>
    <path d="M0,0 A30 25 0 0 1 0,25" class="cell_$or$top_module.v:56$42"/>
    <g s:x="3" s:y="5" s:pid="A"/>
    <g s:x="3" s:y="20" s:pid="B"/>
    <g s:x="30" s:y="12.5" s:pid="Y"/>
  </g>
  <g s:type="inputExt" transform="translate(12,625)" s:width="30" s:height="20" id="cell_in">
    <text x="15" y="-4" class="nodelabel cell_in" s:attribute="ref">in</text>
    <s:alias val="$_inputExt_"/>
    <path d="M0,0 L0,20 L15,20 L30,10 L15,0 Z" class="cell_in"/>
    <g s:x="28" s:y="10" s:pid="Y"/>
  </g>
  <g s:type="inputExt" transform="translate(12,435.5)" s:width="30" s:height="20" id="cell_state">
    <text x="15" y="-4" class="nodelabel cell_state" s:attribute="ref">state</text>
    <s:alias val="$_inputExt_"/>
    <path d="M0,0 L0,20 L15,20 L30,10 L15,0 Z" class="cell_state"/>
    <g s:x="28" s:y="10" s:pid="Y"/>
  </g>
  <g s:type="outputExt" transform="translate(847,415.5)" s:width="30" s:height="20" id="cell_next_state">
    <text x="15" y="-4" class="nodelabel cell_next_state" s:attribute="ref">next_state</text>
    <s:alias val="$_outputExt_"/>
    <path d="M30,0 L30,20 L15,20 L0,10 L15,0 Z" class="cell_next_state"/>
    <g s:x="0" s:y="10" s:pid="A"/>
  </g>
  <g s:type="outputExt" transform="translate(847,87)" s:width="30" s:height="20" id="cell_out1">
    <text x="15" y="-4" class="nodelabel cell_out1" s:attribute="ref">out1</text>
    <s:alias val="$_outputExt_"/>
    <path d="M30,0 L30,20 L15,20 L0,10 L15,0 Z" class="cell_out1"/>
    <g s:x="0" s:y="10" s:pid="A"/>
  </g>
  <g s:type="outputExt" transform="translate(847,22)" s:width="30" s:height="20" id="cell_out2">
    <text x="15" y="-4" class="nodelabel cell_out2" s:attribute="ref">out2</text>
    <s:alias val="$_outputExt_"/>
    <path d="M30,0 L30,20 L15,20 L0,10 L15,0 Z" class="cell_out2"/>
    <g s:x="0" s:y="10" s:pid="A"/>
  </g>
  <g s:type="join" transform="translate(784.8888888888889,405)" s:width="4" s:height="40" id="cell_$join$,13,14,15,16,17,18,19,20,21,22,">
    <rect width="5" height="200" class="splitjoinBody" s:generic="body"/>
    <s:alias val="$_join_"/>
    <g s:x="5" s:y="20" s:pid="out"/>
    <g transform="translate(0,10)" s:x="0" s:y="10" s:pid="in0">
      <text x="-3" y="-4" class="inputPortLabel">0</text>
    </g>
    <g transform="translate(0,30)" s:x="0" s:y="10" s:pid="in0">
      <text x="-3" y="-4" class="inputPortLabel">1</text>
    </g>
    <g transform="translate(0,50)" s:x="0" s:y="10" s:pid="in0">
      <text x="-3" y="-4" class="inputPortLabel">2</text>
    </g>
    <g transform="translate(0,70)" s:x="0" s:y="10" s:pid="in0">
      <text x="-3" y="-4" class="inputPortLabel">3</text>
    </g>
    <g transform="translate(0,90)" s:x="0" s:y="10" s:pid="in0">
      <text x="-3" y="-4" class="inputPortLabel">4</text>
    </g>
    <g transform="translate(0,110)" s:x="0" s:y="10" s:pid="in0">
      <text x="-3" y="-4" class="inputPortLabel">5</text>
    </g>
    <g transform="translate(0,130)" s:x="0" s:y="10" s:pid="in0">
      <text x="-3" y="-4" class="inputPortLabel">6</text>
    </g>
    <g transform="translate(0,150)" s:x="0" s:y="10" s:pid="in0">
      <text x="-3" y="-4" class="inputPortLabel">7</text>
    </g>
    <g transform="translate(0,170)" s:x="0" s:y="10" s:pid="in0">
      <text x="-3" y="-4" class="inputPortLabel">8</text>
    </g>
    <g transform="translate(0,190)" s:x="0" s:y="10" s:pid="in0">
      <text x="-3" y="-4" class="inputPortLabel">9</text>
    </g>
  </g>
  <g s:type="split" transform="translate(93.77777777777777,425)" s:width="5" s:height="40" id="cell_$split$,3,4,5,6,7,8,9,10,11,12,">
    <rect width="5" height="200" class="splitjoinBody" s:generic="body"/>
    <s:alias val="$_split_"/>
    <g s:x="0" s:y="20" s:pid="in"/>
    <g transform="translate(4,10)" s:x="4" s:y="10" s:pid="out0">
      <text x="5" y="-4">0</text>
    </g>
    <g transform="translate(4,30)" s:x="4" s:y="10" s:pid="out0">
      <text x="5" y="-4">1</text>
    </g>
    <g transform="translate(4,50)" s:x="4" s:y="10" s:pid="out0">
      <text x="5" y="-4">2</text>
    </g>
    <g transform="translate(4,70)" s:x="4" s:y="10" s:pid="out0">
      <text x="5" y="-4">3</text>
    </g>
    <g transform="translate(4,90)" s:x="4" s:y="10" s:pid="out0">
      <text x="5" y="-4">4</text>
    </g>
    <g transform="translate(4,110)" s:x="4" s:y="10" s:pid="out0">
      <text x="5" y="-4">7</text>
    </g>
    <g transform="translate(4,130)" s:x="4" s:y="10" s:pid="out0">
      <text x="5" y="-4">8</text>
    </g>
    <g transform="translate(4,150)" s:x="4" s:y="10" s:pid="out0">
      <text x="5" y="-4">9</text>
    </g>
    <g transform="translate(4,170)" s:x="4" s:y="10" s:pid="out0">
      <text x="5" y="-4">5</text>
    </g>
    <g transform="translate(4,190)" s:x="4" s:y="10" s:pid="out0">
      <text x="5" y="-4">6</text>
    </g>
  </g>
  <line x1="98.27777777777777" x2="98.27777777777777" y1="435" y2="413" class="net_3"/>
  <line x1="98.27777777777777" x2="117" y1="413" y2="413" class="net_3"/>
  <line x1="117" x2="117" y1="413" y2="120.5" class="net_3"/>
  <circle cx="117" cy="413" r="2" style="fill:#000" class="net_3"/>
  <line x1="117" x2="217" y1="120.5" y2="120.5" class="net_3"/>
  <line x1="98.27777777777777" x2="98.27777777777777" y1="435" y2="413" class="net_3"/>
  <line x1="98.27777777777777" x2="542" y1="413" y2="413" class="net_3"/>
  <line x1="102" x2="197" y1="285.5" y2="285.5" class="net_25"/>
  <line x1="197" x2="197" y1="285.5" y2="135.5" class="net_25"/>
  <circle cx="197" cy="285.5" r="2" style="fill:#000" class="net_25"/>
  <line x1="197" x2="217" y1="135.5" y2="135.5" class="net_25"/>
  <line x1="102" x2="197" y1="285.5" y2="285.5" class="net_25"/>
  <line x1="197" x2="197" y1="285.5" y2="195.5" class="net_25"/>
  <circle cx="197" cy="195.5" r="2" style="fill:#000" class="net_25"/>
  <line x1="197" x2="217" y1="195.5" y2="195.5" class="net_25"/>
  <line x1="102" x2="197" y1="285.5" y2="285.5" class="net_25"/>
  <line x1="197" x2="197" y1="285.5" y2="225.5" class="net_25"/>
  <circle cx="197" cy="225.5" r="2" style="fill:#000" class="net_25"/>
  <line x1="197" x2="282" y1="225.5" y2="225.5" class="net_25"/>
  <line x1="102" x2="197" y1="285.5" y2="285.5" class="net_25"/>
  <line x1="197" x2="197" y1="285.5" y2="255.5" class="net_25"/>
  <circle cx="197" cy="255.5" r="2" style="fill:#000" class="net_25"/>
  <line x1="197" x2="347" y1="255.5" y2="255.5" class="net_25"/>
  <line x1="102" x2="412" y1="285.5" y2="285.5" class="net_25"/>
  <line x1="102" x2="197" y1="285.5" y2="285.5" class="net_25"/>
  <line x1="197" x2="197" y1="285.5" y2="315.5" class="net_25"/>
  <circle cx="197" cy="315.5" r="2" style="fill:#000" class="net_25"/>
  <line x1="197" x2="477" y1="315.5" y2="315.5" class="net_25"/>
  <line x1="102" x2="197" y1="285.5" y2="285.5" class="net_25"/>
  <line x1="197" x2="197" y1="285.5" y2="345.5" class="net_25"/>
  <circle cx="197" cy="345.5" r="2" style="fill:#000" class="net_25"/>
  <line x1="197" x2="542" y1="345.5" y2="345.5" class="net_25"/>
  <line x1="102" x2="197" y1="285.5" y2="285.5" class="net_25"/>
  <line x1="197" x2="197" y1="285.5" y2="375.5" class="net_25"/>
  <circle cx="197" cy="375.5" r="2" style="fill:#000" class="net_25"/>
  <line x1="197" x2="607" y1="375.5" y2="375.5" class="net_25"/>
  <line x1="102" x2="197" y1="285.5" y2="285.5" class="net_25"/>
  <line x1="197" x2="197" y1="285.5" y2="930.5" class="net_25"/>
  <circle cx="197" cy="930.5" r="2" style="fill:#000" class="net_25"/>
  <line x1="197" x2="672" y1="930.5" y2="930.5" class="net_25"/>
  <line x1="102" x2="197" y1="285.5" y2="285.5" class="net_25"/>
  <line x1="197" x2="197" y1="285.5" y2="990.5" class="net_25"/>
  <line x1="197" x2="672" y1="990.5" y2="990.5" class="net_25"/>
  <line x1="98.77777777777777" x2="127" y1="455.5" y2="455.5" class="net_4"/>
  <line x1="127" x2="127" y1="455.5" y2="180.5" class="net_4"/>
  <circle cx="127" cy="455.5" r="2" style="fill:#000" class="net_4"/>
  <line x1="127" x2="217" y1="180.5" y2="180.5" class="net_4"/>
  <line x1="98.77777777777777" x2="127" y1="455.5" y2="455.5" class="net_4"/>
  <line x1="127" x2="127" y1="455.5" y2="533" class="net_4"/>
  <line x1="127" x2="672" y1="533" y2="533" class="net_4"/>
  <line x1="98.77777777777777" x2="147" y1="475.5" y2="475.5" class="net_5"/>
  <line x1="147" x2="147" y1="475.5" y2="210.5" class="net_5"/>
  <circle cx="147" cy="475.5" r="2" style="fill:#000" class="net_5"/>
  <line x1="147" x2="282" y1="210.5" y2="210.5" class="net_5"/>
  <line x1="98.77777777777777" x2="147" y1="475.5" y2="475.5" class="net_5"/>
  <line x1="147" x2="147" y1="475.5" y2="593" class="net_5"/>
  <line x1="147" x2="672" y1="593" y2="593" class="net_5"/>
  <line x1="98.77777777777777" x2="177" y1="495.5" y2="495.5" class="net_6"/>
  <line x1="177" x2="177" y1="495.5" y2="240.5" class="net_6"/>
  <circle cx="177" cy="495.5" r="2" style="fill:#000" class="net_6"/>
  <line x1="177" x2="347" y1="240.5" y2="240.5" class="net_6"/>
  <line x1="98.77777777777777" x2="177" y1="495.5" y2="495.5" class="net_6"/>
  <line x1="177" x2="177" y1="495.5" y2="653" class="net_6"/>
  <line x1="177" x2="672" y1="653" y2="653" class="net_6"/>
  <line x1="98.77777777777777" x2="187" y1="515.5" y2="515.5" class="net_7"/>
  <line x1="187" x2="187" y1="515.5" y2="270.5" class="net_7"/>
  <circle cx="187" cy="515.5" r="2" style="fill:#000" class="net_7"/>
  <line x1="187" x2="412" y1="270.5" y2="270.5" class="net_7"/>
  <line x1="98.77777777777777" x2="187" y1="515.5" y2="515.5" class="net_7"/>
  <line x1="187" x2="187" y1="515.5" y2="713" class="net_7"/>
  <line x1="187" x2="672" y1="713" y2="713" class="net_7"/>
  <line x1="98.77777777777777" x2="137" y1="535.5" y2="535.5" class="net_10"/>
  <line x1="137" x2="137" y1="535.5" y2="300.5" class="net_10"/>
  <circle cx="137" cy="535.5" r="2" style="fill:#000" class="net_10"/>
  <circle cx="137" cy="300.5" r="2" style="fill:#000" class="net_10"/>
  <line x1="137" x2="477" y1="300.5" y2="300.5" class="net_10"/>
  <line x1="98.77777777777777" x2="137" y1="535.5" y2="535.5" class="net_10"/>
  <line x1="137" x2="137" y1="535.5" y2="885.5" class="net_10"/>
  <line x1="137" x2="607" y1="885.5" y2="885.5" class="net_10"/>
  <line x1="98.77777777777777" x2="137" y1="535.5" y2="535.5" class="net_10"/>
  <line x1="137" x2="137" y1="535.5" y2="24.5" class="net_10"/>
  <line x1="137" x2="785" y1="24.5" y2="24.5" class="net_10"/>
  <line x1="98.77777777777777" x2="157" y1="555.5" y2="555.5" class="net_11"/>
  <line x1="157" x2="157" y1="555.5" y2="330.5" class="net_11"/>
  <circle cx="157" cy="330.5" r="2" style="fill:#000" class="net_11"/>
  <line x1="157" x2="542" y1="330.5" y2="330.5" class="net_11"/>
  <line x1="98.77777777777777" x2="157" y1="555.5" y2="555.5" class="net_11"/>
  <line x1="157" x2="157" y1="555.5" y2="473" class="net_11"/>
  <circle cx="157" cy="473" r="2" style="fill:#000" class="net_11"/>
  <line x1="157" x2="542" y1="473" y2="473" class="net_11"/>
  <line x1="98.77777777777777" x2="157" y1="555.5" y2="555.5" class="net_11"/>
  <line x1="157" x2="157" y1="555.5" y2="89.5" class="net_11"/>
  <line x1="157" x2="785" y1="89.5" y2="89.5" class="net_11"/>
  <line x1="98.77777777777777" x2="167" y1="575.5" y2="575.5" class="net_12"/>
  <line x1="167" x2="167" y1="575.5" y2="360.5" class="net_12"/>
  <circle cx="167" cy="360.5" r="2" style="fill:#000" class="net_12"/>
  <line x1="167" x2="607" y1="360.5" y2="360.5" class="net_12"/>
  <line x1="98.77777777777777" x2="167" y1="575.5" y2="575.5" class="net_12"/>
  <line x1="167" x2="167" y1="575.5" y2="503" class="net_12"/>
  <circle cx="167" cy="503" r="2" style="fill:#000" class="net_12"/>
  <line x1="167" x2="607" y1="503" y2="503" class="net_12"/>
  <line x1="98.77777777777777" x2="167" y1="575.5" y2="575.5" class="net_12"/>
  <line x1="167" x2="167" y1="575.5" y2="104.5" class="net_12"/>
  <circle cx="167" cy="104.5" r="2" style="fill:#000" class="net_12"/>
  <line x1="167" x2="785" y1="104.5" y2="104.5" class="net_12"/>
  <line x1="98.77777777777777" x2="167" y1="575.5" y2="575.5" class="net_12"/>
  <line x1="167" x2="167" y1="575.5" y2="39.5" class="net_12"/>
  <line x1="167" x2="785" y1="39.5" y2="39.5" class="net_12"/>
  <line x1="40" x2="207" y1="635" y2="635" class="net_2"/>
  <line x1="207" x2="207" y1="635" y2="428" class="net_2"/>
  <circle cx="207" cy="635" r="2" style="fill:#000" class="net_2"/>
  <line x1="207" x2="542" y1="428" y2="428" class="net_2"/>
  <line x1="40" x2="207" y1="635" y2="635" class="net_2"/>
  <line x1="207" x2="207" y1="635" y2="488" class="net_2"/>
  <circle cx="207" cy="488" r="2" style="fill:#000" class="net_2"/>
  <line x1="207" x2="542" y1="488" y2="488" class="net_2"/>
  <line x1="40" x2="207" y1="635" y2="635" class="net_2"/>
  <line x1="207" x2="207" y1="635" y2="518" class="net_2"/>
  <circle cx="207" cy="518" r="2" style="fill:#000" class="net_2"/>
  <line x1="207" x2="607" y1="518" y2="518" class="net_2"/>
  <line x1="40" x2="207" y1="635" y2="635" class="net_2"/>
  <line x1="207" x2="207" y1="635" y2="548" class="net_2"/>
  <circle cx="207" cy="548" r="2" style="fill:#000" class="net_2"/>
  <line x1="207" x2="672" y1="548" y2="548" class="net_2"/>
  <line x1="40" x2="647" y1="635" y2="635" class="net_2"/>
  <line x1="647" x2="647" y1="635" y2="608" class="net_2"/>
  <line x1="647" x2="672" y1="608" y2="608" class="net_2"/>
  <line x1="40" x2="207" y1="635" y2="635" class="net_2"/>
  <line x1="207" x2="207" y1="635" y2="668" class="net_2"/>
  <circle cx="207" cy="668" r="2" style="fill:#000" class="net_2"/>
  <line x1="207" x2="672" y1="668" y2="668" class="net_2"/>
  <line x1="40" x2="207" y1="635" y2="635" class="net_2"/>
  <line x1="207" x2="207" y1="635" y2="728" class="net_2"/>
  <circle cx="207" cy="728" r="2" style="fill:#000" class="net_2"/>
  <line x1="207" x2="672" y1="728" y2="728" class="net_2"/>
  <line x1="40" x2="207" y1="635" y2="635" class="net_2"/>
  <line x1="207" x2="207" y1="635" y2="788" class="net_2"/>
  <circle cx="207" cy="788" r="2" style="fill:#000" class="net_2"/>
  <line x1="207" x2="672" y1="788" y2="788" class="net_2"/>
  <line x1="40" x2="207" y1="635" y2="635" class="net_2"/>
  <line x1="207" x2="207" y1="635" y2="840.5" class="net_2"/>
  <line x1="207" x2="607" y1="840.5" y2="840.5" class="net_2"/>
  <line x1="40" x2="52" y1="635" y2="635" class="net_2"/>
  <line x1="52" x2="52" y1="635" y2="900.5" class="net_2"/>
  <circle cx="52" cy="635" r="2" style="fill:#000" class="net_2"/>
  <line x1="52" x2="607" y1="900.5" y2="900.5" class="net_2"/>
  <line x1="40" x2="52" y1="635" y2="635" class="net_2"/>
  <line x1="52" x2="52" y1="635" y2="285.5" class="net_2"/>
  <line x1="52" x2="77" y1="285.5" y2="285.5" class="net_2"/>
  <line x1="98.77777777777777" x2="147" y1="595.5" y2="595.5" class="net_8"/>
  <line x1="147" x2="147" y1="595.5" y2="773" class="net_8"/>
  <circle cx="147" cy="773" r="2" style="fill:#000" class="net_8"/>
  <line x1="147" x2="672" y1="773" y2="773" class="net_8"/>
  <line x1="98.77777777777777" x2="147" y1="595.5" y2="595.5" class="net_8"/>
  <line x1="147" x2="147" y1="595.5" y2="915.5" class="net_8"/>
  <line x1="147" x2="672" y1="915.5" y2="915.5" class="net_8"/>
  <line x1="98.27777777777777" x2="98.27777777777777" y1="616" y2="825.5" class="net_9"/>
  <line x1="98.27777777777777" x2="607" y1="825.5" y2="825.5" class="net_9"/>
  <line x1="98.27777777777777" x2="98.27777777777777" y1="616" y2="825.5" class="net_9"/>
  <line x1="98.27777777777777" x2="117" y1="825.5" y2="825.5" class="net_9"/>
  <line x1="117" x2="117" y1="825.5" y2="975.5" class="net_9"/>
  <circle cx="117" cy="825.5" r="2" style="fill:#000" class="net_9"/>
  <line x1="117" x2="672" y1="975.5" y2="975.5" class="net_9"/>
  <line x1="377" x2="415" y1="143" y2="143" class="net_39"/>
  <line x1="377" x2="387" y1="248" y2="248" class="net_29"/>
  <line x1="387" x2="387" y1="248" y2="158" class="net_29"/>
  <line x1="387" x2="415" y1="158" y2="158" class="net_29"/>
  <line x1="442" x2="480" y1="150.5" y2="150.5" class="net_40"/>
  <line x1="442" x2="452" y1="278" y2="278" class="net_30"/>
  <line x1="452" x2="452" y1="278" y2="165.5" class="net_30"/>
  <line x1="452" x2="480" y1="165.5" y2="165.5" class="net_30"/>
  <line x1="507" x2="545" y1="158" y2="158" class="net_41"/>
  <line x1="507" x2="517" y1="308" y2="308" class="net_31"/>
  <line x1="517" x2="517" y1="308" y2="173" class="net_31"/>
  <line x1="517" x2="545" y1="173" y2="173" class="net_31"/>
  <line x1="572" x2="610" y1="165.5" y2="165.5" class="net_42"/>
  <line x1="572" x2="582" y1="338" y2="338" class="net_32"/>
  <line x1="582" x2="582" y1="338" y2="180.5" class="net_32"/>
  <line x1="582" x2="610" y1="180.5" y2="180.5" class="net_32"/>
  <line x1="637" x2="675" y1="173" y2="173" class="net_43"/>
  <line x1="637" x2="647" y1="368" y2="368" class="net_33"/>
  <line x1="647" x2="647" y1="368" y2="188" class="net_33"/>
  <line x1="647" x2="675" y1="188" y2="188" class="net_33"/>
  <line x1="247" x2="285" y1="128" y2="128" class="net_26"/>
  <line x1="247" x2="257" y1="188" y2="188" class="net_27"/>
  <line x1="257" x2="257" y1="188" y2="143" class="net_27"/>
  <line x1="257" x2="285" y1="143" y2="143" class="net_27"/>
  <line x1="312" x2="350" y1="135.5" y2="135.5" class="net_44"/>
  <line x1="312" x2="322" y1="218" y2="218" class="net_28"/>
  <line x1="322" x2="322" y1="218" y2="150.5" class="net_28"/>
  <line x1="322" x2="350" y1="150.5" y2="150.5" class="net_28"/>
  <line x1="572" x2="610" y1="420.5" y2="420.5" class="net_34"/>
  <line x1="572" x2="582" y1="480.5" y2="480.5" class="net_35"/>
  <line x1="582" x2="582" y1="480.5" y2="435.5" class="net_35"/>
  <line x1="582" x2="610" y1="435.5" y2="435.5" class="net_35"/>
  <line x1="637" x2="675" y1="428" y2="428" class="net_45"/>
  <line x1="637" x2="647" y1="510.5" y2="510.5" class="net_36"/>
  <line x1="647" x2="647" y1="510.5" y2="443" class="net_36"/>
  <line x1="647" x2="675" y1="443" y2="443" class="net_36"/>
  <line x1="637" x2="675" y1="833" y2="833" class="net_37"/>
  <line x1="637" x2="647" y1="893" y2="893" class="net_38"/>
  <line x1="647" x2="647" y1="893" y2="848" class="net_38"/>
  <line x1="647" x2="675" y1="848" y2="848" class="net_38"/>
  <line x1="790.8888888888889" x2="847" y1="425.5" y2="425.5" class="net_13,14,15,16,17,18,19,20,21,22"/>
  <line x1="812" x2="847" y1="97" y2="97" class="net_23"/>
  <line x1="812" x2="847" y1="32" y2="32" class="net_24"/>
  <line x1="702" x2="785.3888888888889" y1="180.5" y2="180.5" class="net_13"/>
  <line x1="785.3888888888889" x2="785.3888888888889" y1="180.5" y2="415" class="net_13"/>
  <line x1="702" x2="784.8888888888889" y1="435.5" y2="435.5" class="net_14"/>
  <line x1="702" x2="712" y1="540.5" y2="540.5" class="net_15"/>
  <line x1="712" x2="712" y1="540.5" y2="455.5" class="net_15"/>
  <line x1="712" x2="784.8888888888889" y1="455.5" y2="455.5" class="net_15"/>
  <line x1="702" x2="722" y1="600.5" y2="600.5" class="net_16"/>
  <line x1="722" x2="722" y1="600.5" y2="475.5" class="net_16"/>
  <line x1="722" x2="784.8888888888889" y1="475.5" y2="475.5" class="net_16"/>
  <line x1="702" x2="732" y1="660.5" y2="660.5" class="net_17"/>
  <line x1="732" x2="732" y1="660.5" y2="495.5" class="net_17"/>
  <line x1="732" x2="784.8888888888889" y1="495.5" y2="495.5" class="net_17"/>
  <line x1="702" x2="742" y1="720.5" y2="720.5" class="net_18"/>
  <line x1="742" x2="742" y1="720.5" y2="515.5" class="net_18"/>
  <line x1="742" x2="784.8888888888889" y1="515.5" y2="515.5" class="net_18"/>
  <line x1="702" x2="752" y1="780.5" y2="780.5" class="net_19"/>
  <line x1="752" x2="752" y1="780.5" y2="535.5" class="net_19"/>
  <line x1="752" x2="784.8888888888889" y1="535.5" y2="535.5" class="net_19"/>
  <line x1="702" x2="762" y1="840.5" y2="840.5" class="net_20"/>
  <line x1="762" x2="762" y1="840.5" y2="555.5" class="net_20"/>
  <line x1="762" x2="784.8888888888889" y1="555.5" y2="555.5" class="net_20"/>
  <line x1="702" x2="772" y1="923" y2="923" class="net_21"/>
  <line x1="772" x2="772" y1="923" y2="575.5" class="net_21"/>
  <line x1="772" x2="784.8888888888889" y1="575.5" y2="575.5" class="net_21"/>
  <line x1="702" x2="785.3888888888889" y1="983" y2="983" class="net_22"/>
  <line x1="785.3888888888889" x2="785.3888888888889" y1="983" y2="596" class="net_22"/>
  <line x1="40" x2="93.77777777777777" y1="445.5" y2="445.5" class="net_3,4,5,6,7,8,9,10,11,12"/>
</svg>
