<svg xmlns="http://www.w3.org/2000/svg" xmlns:xlink="http://www.w3.org/1999/xlink" xmlns:s="https://github.com/nturley/netlistsvg" width="524" height="651">
  <style>svg {
    stroke:#000;
    fill:none;
  }
  text {
    fill:#000;
    stroke:none;
    font-size:10px;
    font-weight: bold;
    font-family: "Courier New", monospace;
  }
  .nodelabel {
    text-anchor: middle;
  }
  .inputPortLabel {
    text-anchor: end;
  }
  .splitjoinBody {
    fill:#000;
  }</style>
  <g s:type="and" transform="translate(304,77)" s:width="30" s:height="25" id="cell_$auto$aigmap.cc:123:execute$11">
    <s:alias val="$and"/>
    <s:alias val="$logic_and"/>
    <s:alias val="$_AND_"/>
    <path d="M0,0 L0,25 L15,25 A15 12.5 0 0 0 15,0 Z" class="cell_$auto$aigmap.cc:123:execute$11"/>
    <g s:x="0" s:y="5" s:pid="A"/>
    <g s:x="0" s:y="20" s:pid="B"/>
    <g s:x="30" s:y="12.5" s:pid="Y"/>
  </g>
  <g s:type="and" transform="translate(304,137)" s:width="30" s:height="25" id="cell_$auto$aigmap.cc:123:execute$13">
    <s:alias val="$and"/>
    <s:alias val="$logic_and"/>
    <s:alias val="$_AND_"/>
    <path d="M0,0 L0,25 L15,25 A15 12.5 0 0 0 15,0 Z" class="cell_$auto$aigmap.cc:123:execute$13"/>
    <g s:x="0" s:y="5" s:pid="A"/>
    <g s:x="0" s:y="20" s:pid="B"/>
    <g s:x="30" s:y="12.5" s:pid="Y"/>
  </g>
  <g s:type="and" transform="translate(304,197)" s:width="30" s:height="25" id="cell_$auto$aigmap.cc:123:execute$15">
    <s:alias val="$and"/>
    <s:alias val="$logic_and"/>
    <s:alias val="$_AND_"/>
    <path d="M0,0 L0,25 L15,25 A15 12.5 0 0 0 15,0 Z" class="cell_$auto$aigmap.cc:123:execute$15"/>
    <g s:x="0" s:y="5" s:pid="A"/>
    <g s:x="0" s:y="20" s:pid="B"/>
    <g s:x="30" s:y="12.5" s:pid="Y"/>
  </g>
  <g s:type="and" transform="translate(304,257)" s:width="30" s:height="25" id="cell_$auto$aigmap.cc:123:execute$17">
    <s:alias val="$and"/>
    <s:alias val="$logic_and"/>
    <s:alias val="$_AND_"/>
    <path d="M0,0 L0,25 L15,25 A15 12.5 0 0 0 15,0 Z" class="cell_$auto$aigmap.cc:123:execute$17"/>
    <g s:x="0" s:y="5" s:pid="A"/>
    <g s:x="0" s:y="20" s:pid="B"/>
    <g s:x="30" s:y="12.5" s:pid="Y"/>
  </g>
  <g s:type="and" transform="translate(304,364.5)" s:width="30" s:height="25" id="cell_$auto$aigmap.cc:123:execute$19">
    <s:alias val="$and"/>
    <s:alias val="$logic_and"/>
    <s:alias val="$_AND_"/>
    <path d="M0,0 L0,25 L15,25 A15 12.5 0 0 0 15,0 Z" class="cell_$auto$aigmap.cc:123:execute$19"/>
    <g s:x="0" s:y="5" s:pid="A"/>
    <g s:x="0" s:y="20" s:pid="B"/>
    <g s:x="30" s:y="12.5" s:pid="Y"/>
  </g>
  <g s:type="and" transform="translate(304,534)" s:width="30" s:height="25" id="cell_$auto$aigmap.cc:123:execute$21">
    <s:alias val="$and"/>
    <s:alias val="$logic_and"/>
    <s:alias val="$_AND_"/>
    <path d="M0,0 L0,25 L15,25 A15 12.5 0 0 0 15,0 Z" class="cell_$auto$aigmap.cc:123:execute$21"/>
    <g s:x="0" s:y="5" s:pid="A"/>
    <g s:x="0" s:y="20" s:pid="B"/>
    <g s:x="30" s:y="12.5" s:pid="Y"/>
  </g>
  <g s:type="and" transform="translate(304,594)" s:width="30" s:height="25" id="cell_$auto$aigmap.cc:123:execute$23">
    <s:alias val="$and"/>
    <s:alias val="$logic_and"/>
    <s:alias val="$_AND_"/>
    <path d="M0,0 L0,25 L15,25 A15 12.5 0 0 0 15,0 Z" class="cell_$auto$aigmap.cc:123:execute$23"/>
    <g s:x="0" s:y="5" s:pid="A"/>
    <g s:x="0" s:y="20" s:pid="B"/>
    <g s:x="30" s:y="12.5" s:pid="Y"/>
  </g>
  <g s:type="and" transform="translate(304,17)" s:width="30" s:height="25" id="cell_$auto$aigmap.cc:123:execute$9">
    <s:alias val="$and"/>
    <s:alias val="$logic_and"/>
    <s:alias val="$_AND_"/>
    <path d="M0,0 L0,25 L15,25 A15 12.5 0 0 0 15,0 Z" class="cell_$auto$aigmap.cc:123:execute$9"/>
    <g s:x="0" s:y="5" s:pid="A"/>
    <g s:x="0" s:y="20" s:pid="B"/>
    <g s:x="30" s:y="12.5" s:pid="Y"/>
  </g>
  <g s:type="not" transform="translate(214,12)" s:width="30" s:height="20" id="cell_$auto$aigmap.cc:132:execute$25">
    <s:alias val="$_NOT_"/>
    <s:alias val="$not"/>
    <s:alias val="$logic_not"/>
    <path d="M0,0 L0,20 L20,10 Z" class="cell_$auto$aigmap.cc:132:execute$25"/>
    <circle cx="23" cy="10" r="3" class="cell_$auto$aigmap.cc:132:execute$25"/>
    <g s:x="0" s:y="10" s:pid="A"/>
    <g s:x="25" s:y="10" s:pid="Y"/>
  </g>
  <g s:type="not" transform="translate(214,72)" s:width="30" s:height="20" id="cell_$auto$aigmap.cc:132:execute$27">
    <s:alias val="$_NOT_"/>
    <s:alias val="$not"/>
    <s:alias val="$logic_not"/>
    <path d="M0,0 L0,20 L20,10 Z" class="cell_$auto$aigmap.cc:132:execute$27"/>
    <circle cx="23" cy="10" r="3" class="cell_$auto$aigmap.cc:132:execute$27"/>
    <g s:x="0" s:y="10" s:pid="A"/>
    <g s:x="25" s:y="10" s:pid="Y"/>
  </g>
  <g s:type="not" transform="translate(214,132)" s:width="30" s:height="20" id="cell_$auto$aigmap.cc:132:execute$29">
    <s:alias val="$_NOT_"/>
    <s:alias val="$not"/>
    <s:alias val="$logic_not"/>
    <path d="M0,0 L0,20 L20,10 Z" class="cell_$auto$aigmap.cc:132:execute$29"/>
    <circle cx="23" cy="10" r="3" class="cell_$auto$aigmap.cc:132:execute$29"/>
    <g s:x="0" s:y="10" s:pid="A"/>
    <g s:x="25" s:y="10" s:pid="Y"/>
  </g>
  <g s:type="not" transform="translate(214,192)" s:width="30" s:height="20" id="cell_$auto$aigmap.cc:132:execute$31">
    <s:alias val="$_NOT_"/>
    <s:alias val="$not"/>
    <s:alias val="$logic_not"/>
    <path d="M0,0 L0,20 L20,10 Z" class="cell_$auto$aigmap.cc:132:execute$31"/>
    <circle cx="23" cy="10" r="3" class="cell_$auto$aigmap.cc:132:execute$31"/>
    <g s:x="0" s:y="10" s:pid="A"/>
    <g s:x="25" s:y="10" s:pid="Y"/>
  </g>
  <g s:type="not" transform="translate(214,252)" s:width="30" s:height="20" id="cell_$auto$aigmap.cc:132:execute$33">
    <s:alias val="$_NOT_"/>
    <s:alias val="$not"/>
    <s:alias val="$logic_not"/>
    <path d="M0,0 L0,20 L20,10 Z" class="cell_$auto$aigmap.cc:132:execute$33"/>
    <circle cx="23" cy="10" r="3" class="cell_$auto$aigmap.cc:132:execute$33"/>
    <g s:x="0" s:y="10" s:pid="A"/>
    <g s:x="25" s:y="10" s:pid="Y"/>
  </g>
  <g s:type="not" transform="translate(214,474)" s:width="30" s:height="20" id="cell_$auto$aigmap.cc:132:execute$35">
    <s:alias val="$_NOT_"/>
    <s:alias val="$not"/>
    <s:alias val="$logic_not"/>
    <path d="M0,0 L0,20 L20,10 Z" class="cell_$auto$aigmap.cc:132:execute$35"/>
    <circle cx="23" cy="10" r="3" class="cell_$auto$aigmap.cc:132:execute$35"/>
    <g s:x="0" s:y="10" s:pid="A"/>
    <g s:x="25" s:y="10" s:pid="Y"/>
  </g>
  <g s:type="not" transform="translate(214,529)" s:width="30" s:height="20" id="cell_$auto$aigmap.cc:132:execute$37">
    <s:alias val="$_NOT_"/>
    <s:alias val="$not"/>
    <s:alias val="$logic_not"/>
    <path d="M0,0 L0,20 L20,10 Z" class="cell_$auto$aigmap.cc:132:execute$37"/>
    <circle cx="23" cy="10" r="3" class="cell_$auto$aigmap.cc:132:execute$37"/>
    <g s:x="0" s:y="10" s:pid="A"/>
    <g s:x="25" s:y="10" s:pid="Y"/>
  </g>
  <g s:type="not" transform="translate(214,589)" s:width="30" s:height="20" id="cell_$auto$aigmap.cc:132:execute$39">
    <s:alias val="$_NOT_"/>
    <s:alias val="$not"/>
    <s:alias val="$logic_not"/>
    <path d="M0,0 L0,20 L20,10 Z" class="cell_$auto$aigmap.cc:132:execute$39"/>
    <circle cx="23" cy="10" r="3" class="cell_$auto$aigmap.cc:132:execute$39"/>
    <g s:x="0" s:y="10" s:pid="A"/>
    <g s:x="25" s:y="10" s:pid="Y"/>
  </g>
  <g s:type="dff" transform="translate(77,62)" s:width="30" s:height="40" id="cell_$procdff$6">
    <s:alias val="$dff"/>
    <s:alias val="$_DFF_"/>
    <s:alias val="$_DFF_P_"/>
    <rect width="30" height="40" x="0" y="0" class="cell_$procdff$6"/>
    <path d="M0,35 L5,30 L0,25" class="cell_$procdff$6"/>
    <g s:x="30" s:y="10" s:pid="Q"/>
    <g s:x="0" s:y="30" s:pid="CLK"/>
    <g s:x="0" s:y="30" s:pid="C"/>
    <g s:x="0" s:y="10" s:pid="D"/>
  </g>
  <g s:type="dff" transform="translate(417,149.5)" s:width="30" s:height="40" id="cell_$procdff$7">
    <s:alias val="$dff"/>
    <s:alias val="$_DFF_"/>
    <s:alias val="$_DFF_P_"/>
    <rect width="30" height="40" x="0" y="0" class="cell_$procdff$7"/>
    <path d="M0,35 L5,30 L0,25" class="cell_$procdff$7"/>
    <g s:x="30" s:y="10" s:pid="Q"/>
    <g s:x="0" s:y="30" s:pid="CLK"/>
    <g s:x="0" s:y="30" s:pid="C"/>
    <g s:x="0" s:y="10" s:pid="D"/>
  </g>
  <g s:type="inputExt" transform="translate(12,619)" s:width="30" s:height="20" id="cell_clk">
    <text x="15" y="-4" class="nodelabel cell_clk" s:attribute="ref">clk</text>
    <s:alias val="$_inputExt_"/>
    <path d="M0,0 L0,20 L15,20 L30,10 L15,0 Z" class="cell_clk"/>
    <g s:x="28" s:y="10" s:pid="Y"/>
  </g>
  <g s:type="inputExt" transform="translate(12,62)" s:width="30" s:height="20" id="cell_in">
    <text x="15" y="-4" class="nodelabel cell_in" s:attribute="ref">in</text>
    <s:alias val="$_inputExt_"/>
    <path d="M0,0 L0,20 L15,20 L30,10 L15,0 Z" class="cell_in"/>
    <g s:x="28" s:y="10" s:pid="Y"/>
  </g>
  <g s:type="outputExt" transform="translate(482,149.5)" s:width="30" s:height="20" id="cell_pedge">
    <text x="15" y="-4" class="nodelabel cell_pedge" s:attribute="ref">pedge</text>
    <s:alias val="$_outputExt_"/>
    <path d="M30,0 L30,20 L15,20 L0,10 L15,0 Z" class="cell_pedge"/>
    <g s:x="0" s:y="10" s:pid="A"/>
  </g>
  <g s:type="join" transform="translate(374,139)" s:width="4" s:height="40" id="cell_$join$,34,20,22,24,26,28,30,32,">
    <rect width="5" height="160" class="splitjoinBody" s:generic="body"/>
    <s:alias val="$_join_"/>
    <g s:x="5" s:y="20" s:pid="out"/>
    <g transform="translate(0,10)" s:x="0" s:y="10" s:pid="in0">
      <text x="-3" y="-4" class="inputPortLabel">0</text>
    </g>
    <g transform="translate(0,30)" s:x="0" s:y="10" s:pid="in0">
      <text x="-3" y="-4" class="inputPortLabel">1</text>
    </g>
    <g transform="translate(0,50)" s:x="0" s:y="10" s:pid="in0">
      <text x="-3" y="-4" class="inputPortLabel">2</text>
    </g>
    <g transform="translate(0,70)" s:x="0" s:y="10" s:pid="in0">
      <text x="-3" y="-4" class="inputPortLabel">3</text>
    </g>
    <g transform="translate(0,90)" s:x="0" s:y="10" s:pid="in0">
      <text x="-3" y="-4" class="inputPortLabel">4</text>
    </g>
    <g transform="translate(0,110)" s:x="0" s:y="10" s:pid="in0">
      <text x="-3" y="-4" class="inputPortLabel">5</text>
    </g>
    <g transform="translate(0,130)" s:x="0" s:y="10" s:pid="in0">
      <text x="-3" y="-4" class="inputPortLabel">6</text>
    </g>
    <g transform="translate(0,150)" s:x="0" s:y="10" s:pid="in0">
      <text x="-3" y="-4" class="inputPortLabel">7</text>
    </g>
  </g>
  <g s:type="split" transform="translate(230.42857142857142,294)" s:width="5" s:height="40" id="cell_$split$,3,4,5,6,7,8,9,10,">
    <rect width="5" height="160" class="splitjoinBody" s:generic="body"/>
    <s:alias val="$_split_"/>
    <g s:x="0" s:y="20" s:pid="in"/>
    <g transform="translate(4,10)" s:x="4" s:y="10" s:pid="out0">
      <text x="5" y="-4">1</text>
    </g>
    <g transform="translate(4,30)" s:x="4" s:y="10" s:pid="out0">
      <text x="5" y="-4">2</text>
    </g>
    <g transform="translate(4,50)" s:x="4" s:y="10" s:pid="out0">
      <text x="5" y="-4">3</text>
    </g>
    <g transform="translate(4,70)" s:x="4" s:y="10" s:pid="out0">
      <text x="5" y="-4">4</text>
    </g>
    <g transform="translate(4,90)" s:x="4" s:y="10" s:pid="out0">
      <text x="5" y="-4">5</text>
    </g>
    <g transform="translate(4,110)" s:x="4" s:y="10" s:pid="out0">
      <text x="5" y="-4">6</text>
    </g>
    <g transform="translate(4,130)" s:x="4" s:y="10" s:pid="out0">
      <text x="5" y="-4">7</text>
    </g>
    <g transform="translate(4,150)" s:x="4" s:y="10" s:pid="out0">
      <text x="5" y="-4">0</text>
    </g>
  </g>
  <g s:type="split" transform="translate(142,51.5)" s:width="5" s:height="40" id="cell_$split$,35,36,37,38,39,40,41,42,">
    <rect width="5" height="160" class="splitjoinBody" s:generic="body"/>
    <s:alias val="$_split_"/>
    <g s:x="0" s:y="20" s:pid="in"/>
    <g transform="translate(4,10)" s:x="4" s:y="10" s:pid="out0">
      <text x="5" y="-4">0</text>
    </g>
    <g transform="translate(4,30)" s:x="4" s:y="10" s:pid="out0">
      <text x="5" y="-4">1</text>
    </g>
    <g transform="translate(4,50)" s:x="4" s:y="10" s:pid="out0">
      <text x="5" y="-4">2</text>
    </g>
    <g transform="translate(4,70)" s:x="4" s:y="10" s:pid="out0">
      <text x="5" y="-4">3</text>
    </g>
    <g transform="translate(4,90)" s:x="4" s:y="10" s:pid="out0">
      <text x="5" y="-4">4</text>
    </g>
    <g transform="translate(4,110)" s:x="4" s:y="10" s:pid="out0">
      <text x="5" y="-4">5</text>
    </g>
    <g transform="translate(4,130)" s:x="4" s:y="10" s:pid="out0">
      <text x="5" y="-4">6</text>
    </g>
    <g transform="translate(4,150)" s:x="4" s:y="10" s:pid="out0">
      <text x="5" y="-4">7</text>
    </g>
  </g>
  <line x1="239" x2="304" y1="82" y2="82" class="net_19"/>
  <line x1="234.92857142857142" x2="234.92857142857142" y1="304" y2="282" class="net_4"/>
  <line x1="234.92857142857142" x2="254" y1="282" y2="282" class="net_4"/>
  <line x1="254" x2="254" y1="282" y2="97" class="net_4"/>
  <line x1="254" x2="304" y1="97" y2="97" class="net_4"/>
  <line x1="239" x2="304" y1="142" y2="142" class="net_21"/>
  <line x1="235.42857142857142" x2="274" y1="324.5" y2="324.5" class="net_5"/>
  <line x1="274" x2="274" y1="324.5" y2="157" class="net_5"/>
  <line x1="274" x2="304" y1="157" y2="157" class="net_5"/>
  <line x1="239" x2="304" y1="202" y2="202" class="net_23"/>
  <line x1="235.42857142857142" x2="284" y1="344.5" y2="344.5" class="net_6"/>
  <line x1="284" x2="284" y1="344.5" y2="217" class="net_6"/>
  <line x1="284" x2="304" y1="217" y2="217" class="net_6"/>
  <line x1="239" x2="304" y1="262" y2="262" class="net_25"/>
  <line x1="235.42857142857142" x2="294" y1="364.5" y2="364.5" class="net_7"/>
  <line x1="294" x2="294" y1="364.5" y2="277" class="net_7"/>
  <line x1="294" x2="304" y1="277" y2="277" class="net_7"/>
  <line x1="239" x2="274" y1="484" y2="484" class="net_27"/>
  <line x1="274" x2="274" y1="484" y2="369.5" class="net_27"/>
  <line x1="274" x2="304" y1="369.5" y2="369.5" class="net_27"/>
  <line x1="235.42857142857142" x2="304" y1="384.5" y2="384.5" class="net_8"/>
  <line x1="239" x2="304" y1="539" y2="539" class="net_29"/>
  <line x1="235.42857142857142" x2="284" y1="404.5" y2="404.5" class="net_9"/>
  <line x1="284" x2="284" y1="404.5" y2="554" class="net_9"/>
  <line x1="284" x2="304" y1="554" y2="554" class="net_9"/>
  <line x1="239" x2="304" y1="599" y2="599" class="net_31"/>
  <line x1="235.42857142857142" x2="254" y1="424.5" y2="424.5" class="net_10"/>
  <line x1="254" x2="254" y1="424.5" y2="614" class="net_10"/>
  <line x1="254" x2="304" y1="614" y2="614" class="net_10"/>
  <line x1="239" x2="304" y1="22" y2="22" class="net_33"/>
  <line x1="234.92857142857142" x2="234.92857142857142" y1="445" y2="464" class="net_3"/>
  <line x1="234.92857142857142" x2="264" y1="464" y2="464" class="net_3"/>
  <line x1="264" x2="264" y1="464" y2="37" class="net_3"/>
  <line x1="264" x2="304" y1="37" y2="37" class="net_3"/>
  <line x1="146.5" x2="146.5" y1="61.5" y2="22" class="net_35"/>
  <line x1="146.5" x2="214" y1="22" y2="22" class="net_35"/>
  <line x1="147" x2="214" y1="82" y2="82" class="net_36"/>
  <line x1="147" x2="204" y1="102" y2="102" class="net_37"/>
  <line x1="204" x2="204" y1="102" y2="142" class="net_37"/>
  <line x1="204" x2="214" y1="142" y2="142" class="net_37"/>
  <line x1="147" x2="194" y1="122" y2="122" class="net_38"/>
  <line x1="194" x2="194" y1="122" y2="202" class="net_38"/>
  <line x1="194" x2="214" y1="202" y2="202" class="net_38"/>
  <line x1="147" x2="184" y1="142" y2="142" class="net_39"/>
  <line x1="184" x2="184" y1="142" y2="262" class="net_39"/>
  <line x1="184" x2="214" y1="262" y2="262" class="net_39"/>
  <line x1="147" x2="174" y1="162" y2="162" class="net_40"/>
  <line x1="174" x2="174" y1="162" y2="484" class="net_40"/>
  <line x1="174" x2="214" y1="484" y2="484" class="net_40"/>
  <line x1="147" x2="164" y1="182" y2="182" class="net_41"/>
  <line x1="164" x2="164" y1="182" y2="539" class="net_41"/>
  <line x1="164" x2="214" y1="539" y2="539" class="net_41"/>
  <line x1="146.5" x2="146.5" y1="202.5" y2="599" class="net_42"/>
  <line x1="146.5" x2="214" y1="599" y2="599" class="net_42"/>
  <line x1="40" x2="52" y1="629" y2="629" class="net_2"/>
  <line x1="52" x2="52" y1="629" y2="92" class="net_2"/>
  <circle cx="52" cy="629" r="2" style="fill:#000" class="net_2"/>
  <line x1="52" x2="77" y1="92" y2="92" class="net_2"/>
  <line x1="40" x2="392" y1="629" y2="629" class="net_2"/>
  <line x1="392" x2="392" y1="629" y2="179.5" class="net_2"/>
  <line x1="392" x2="417" y1="179.5" y2="179.5" class="net_2"/>
  <line x1="40" x2="77" y1="72" y2="72" class="net_3,4,5,6,7,8,9,10"/>
  <line x1="40" x2="62" y1="72" y2="72" class="net_3,4,5,6,7,8,9,10"/>
  <line x1="62" x2="62" y1="72" y2="314.5" class="net_3,4,5,6,7,8,9,10"/>
  <circle cx="62" cy="72" r="2" style="fill:#000" class="net_3,4,5,6,7,8,9,10"/>
  <line x1="62" x2="230.42857142857142" y1="314.5" y2="314.5" class="net_3,4,5,6,7,8,9,10"/>
  <line x1="380" x2="417" y1="159.5" y2="159.5" class="net_34,20,22,24,26,28,30,32"/>
  <line x1="447" x2="482" y1="159.5" y2="159.5" class="net_11,12,13,14,15,16,17,18"/>
  <line x1="334" x2="374.5" y1="29.5" y2="29.5" class="net_34"/>
  <line x1="374.5" x2="374.5" y1="29.5" y2="149" class="net_34"/>
  <line x1="334" x2="354" y1="89.5" y2="89.5" class="net_20"/>
  <line x1="354" x2="354" y1="89.5" y2="169.5" class="net_20"/>
  <line x1="354" x2="374" y1="169.5" y2="169.5" class="net_20"/>
  <line x1="334" x2="344" y1="149.5" y2="149.5" class="net_22"/>
  <line x1="344" x2="344" y1="149.5" y2="189.5" class="net_22"/>
  <line x1="344" x2="374" y1="189.5" y2="189.5" class="net_22"/>
  <line x1="334" x2="374" y1="209.5" y2="209.5" class="net_24"/>
  <line x1="334" x2="344" y1="269.5" y2="269.5" class="net_26"/>
  <line x1="344" x2="344" y1="269.5" y2="229.5" class="net_26"/>
  <line x1="344" x2="374" y1="229.5" y2="229.5" class="net_26"/>
  <line x1="334" x2="354" y1="377" y2="377" class="net_28"/>
  <line x1="354" x2="354" y1="377" y2="249.5" class="net_28"/>
  <line x1="354" x2="374" y1="249.5" y2="249.5" class="net_28"/>
  <line x1="334" x2="364" y1="546.5" y2="546.5" class="net_30"/>
  <line x1="364" x2="364" y1="546.5" y2="269.5" class="net_30"/>
  <line x1="364" x2="374" y1="269.5" y2="269.5" class="net_30"/>
  <line x1="334" x2="374.5" y1="606.5" y2="606.5" class="net_32"/>
  <line x1="374.5" x2="374.5" y1="606.5" y2="290" class="net_32"/>
  <line x1="107" x2="142" y1="72" y2="72" class="net_35,36,37,38,39,40,41,42"/>
</svg>
