<?xml version="1.0" encoding="UTF-8" standalone="no"?>
<!DOCTYPE svg PUBLIC "-//W3C//DTD SVG 1.1//EN"
 "http://www.w3.org/Graphics/SVG/1.1/DTD/svg11.dtd">
<!-- Generated by graphviz version 4.0.0 (20220529.0937)
 -->
<!-- Title: top_module Pages: 1 -->
<svg width="1377pt" height="135pt"
 viewBox="0.00 0.00 1376.99 135.00" xmlns="http://www.w3.org/2000/svg" xmlns:xlink="http://www.w3.org/1999/xlink">
<g id="graph0" class="graph" transform="scale(1 1) rotate(0) translate(4 131)">
<title>top_module</title>
<polygon fill="white" stroke="transparent" points="-4,4 -4,-131 1372.99,-131 1372.99,4 -4,4"/>
<text text-anchor="middle" x="684.5" y="-7.8" font-family="Times New Roman,serif" font-size="14.00">top_module</text>
<!-- n3 -->
<g id="node1" class="node">
<title>n3</title>
<polygon fill="none" stroke="black" points="54,-96.54 54,-111.46 38.18,-122 15.82,-122 0,-111.46 0,-96.54 15.82,-86 38.18,-86 54,-96.54"/>
<text text-anchor="middle" x="27" y="-100.3" font-family="Times New Roman,serif" font-size="14.00">clk</text>
</g>
<!-- c16 -->
<g id="node8" class="node">
<title>c16</title>
<polygon fill="none" stroke="black" points="114,-52 114,-98 225,-98 225,-52 114,-52"/>
<text text-anchor="middle" x="136" y="-82.8" font-family="Times New Roman,serif" font-size="14.00">CLK</text>
<polyline fill="none" stroke="black" points="114,-75 158,-75 "/>
<text text-anchor="middle" x="136" y="-59.8" font-family="Times New Roman,serif" font-size="14.00">D</text>
<polyline fill="none" stroke="black" points="158,-52 158,-98 "/>
<text text-anchor="middle" x="178" y="-78.8" font-family="Times New Roman,serif" font-size="14.00">$6</text>
<text text-anchor="middle" x="178" y="-63.8" font-family="Times New Roman,serif" font-size="14.00">$dff</text>
<polyline fill="none" stroke="black" points="198,-52 198,-98 "/>
<text text-anchor="middle" x="211.5" y="-71.3" font-family="Times New Roman,serif" font-size="14.00">Q</text>
</g>
<!-- n3&#45;&gt;c16 -->
<g id="edge3" class="edge">
<title>n3:e&#45;&gt;c16:w</title>
<path fill="none" stroke="#1b9e77" d="M54,-104C77.93,-104 84.6,-91.33 103.81,-87.87"/>
<polygon fill="#1b9e77" stroke="#1b9e77" points="104.33,-91.33 114,-87 103.74,-84.36 104.33,-91.33"/>
</g>
<!-- c17 -->
<g id="node9" class="node">
<title>c17</title>
<polygon fill="none" stroke="black" points="839.67,-80 839.67,-126 950.67,-126 950.67,-80 839.67,-80"/>
<text text-anchor="middle" x="861.67" y="-110.8" font-family="Times New Roman,serif" font-size="14.00">CLK</text>
<polyline fill="none" stroke="black" points="839.67,-103 883.67,-103 "/>
<text text-anchor="middle" x="861.67" y="-87.8" font-family="Times New Roman,serif" font-size="14.00">D</text>
<polyline fill="none" stroke="black" points="883.67,-80 883.67,-126 "/>
<text text-anchor="middle" x="903.67" y="-106.8" font-family="Times New Roman,serif" font-size="14.00">$7</text>
<text text-anchor="middle" x="903.67" y="-91.8" font-family="Times New Roman,serif" font-size="14.00">$dff</text>
<polyline fill="none" stroke="black" points="923.67,-80 923.67,-126 "/>
<text text-anchor="middle" x="937.17" y="-99.3" font-family="Times New Roman,serif" font-size="14.00">Q</text>
</g>
<!-- n3&#45;&gt;c17 -->
<g id="edge4" class="edge">
<title>n3:e&#45;&gt;c17:w</title>
<path fill="none" stroke="#1b9e77" d="M54,-104C62.3,-104 63.91,-107.13 72,-109 114.5,-118.85 124.87,-127 168.5,-127 168.5,-127 168.5,-127 732.67,-127 776.97,-127 789.94,-116.72 829.59,-115.19"/>
<polygon fill="#1b9e77" stroke="#1b9e77" points="829.74,-118.69 839.67,-115 829.61,-111.69 829.74,-118.69"/>
</g>
<!-- n4 -->
<g id="node2" class="node">
<title>n4</title>
<polygon fill="none" stroke="black" points="54,-37.54 54,-52.46 38.18,-63 15.82,-63 0,-52.46 0,-37.54 15.82,-27 38.18,-27 54,-37.54"/>
<text text-anchor="middle" x="27" y="-41.3" font-family="Times New Roman,serif" font-size="14.00">in</text>
</g>
<!-- c11 -->
<g id="node6" class="node">
<title>c11</title>
<polygon fill="none" stroke="black" points="683.67,-40 683.67,-86 779.67,-86 779.67,-40 683.67,-40"/>
<text text-anchor="middle" x="696.67" y="-70.8" font-family="Times New Roman,serif" font-size="14.00">A</text>
<polyline fill="none" stroke="black" points="683.67,-63 709.67,-63 "/>
<text text-anchor="middle" x="696.67" y="-47.8" font-family="Times New Roman,serif" font-size="14.00">B</text>
<polyline fill="none" stroke="black" points="709.67,-40 709.67,-86 "/>
<text text-anchor="middle" x="731.67" y="-66.8" font-family="Times New Roman,serif" font-size="14.00">$3</text>
<text text-anchor="middle" x="731.67" y="-51.8" font-family="Times New Roman,serif" font-size="14.00">$and</text>
<polyline fill="none" stroke="black" points="753.67,-40 753.67,-86 "/>
<text text-anchor="middle" x="766.67" y="-59.3" font-family="Times New Roman,serif" font-size="14.00">Y</text>
</g>
<!-- n4&#45;&gt;c11 -->
<g id="edge5" class="edge">
<title>n4:e&#45;&gt;c11:w</title>
<path fill="none" stroke="#7570b3" stroke-width="3" d="M54,-45C79.91,-45 142.59,-23 168.5,-23 168.5,-23 168.5,-23 578.17,-23 623.08,-23 633.68,-47 673.5,-50.56"/>
<polygon fill="#7570b3" stroke="#7570b3" stroke-width="3" points="673.53,-54.06 683.67,-51 673.83,-47.07 673.53,-54.06"/>
<text text-anchor="middle" x="377.83" y="-26.8" font-family="Times New Roman,serif" font-size="14.00" fill="#7570b3">&lt;8&gt;</text>
</g>
<!-- n4&#45;&gt;c16 -->
<g id="edge6" class="edge">
<title>n4:e&#45;&gt;c16:w</title>
<path fill="none" stroke="#7570b3" stroke-width="3" d="M54,-45C78.03,-45 84.54,-58.41 103.78,-62.08"/>
<polygon fill="#7570b3" stroke="#7570b3" stroke-width="3" points="103.73,-65.59 114,-63 104.35,-58.62 103.73,-65.59"/>
<text text-anchor="middle" x="84" y="-62.8" font-family="Times New Roman,serif" font-size="14.00" fill="#7570b3">&lt;8&gt;</text>
</g>
<!-- n5 -->
<g id="node3" class="node">
<title>n5</title>
<polygon fill="none" stroke="black" points="1369.17,-95.54 1369.17,-110.46 1348.46,-121 1319.18,-121 1298.47,-110.46 1298.47,-95.54 1319.18,-85 1348.46,-85 1369.17,-95.54"/>
<text text-anchor="middle" x="1333.82" y="-99.3" font-family="Times New Roman,serif" font-size="14.00">pedge</text>
</g>
<!-- n6 -->
<g id="node4" class="node">
<title>n6</title>
<polygon fill="none" stroke="black" points="1067.66,-121 1010.68,-103 1067.66,-85 1124.63,-103 1067.66,-121"/>
<text text-anchor="middle" x="1067.66" y="-99.3" font-family="Times New Roman,serif" font-size="14.00">pedge_r</text>
</g>
<!-- x0 -->
<g id="node10" class="node">
<title>x0</title>
<path fill="none" stroke="black" d="M1226.65,-121C1226.65,-121 1196.65,-121 1196.65,-121 1190.65,-121 1184.65,-115 1184.65,-109 1184.65,-109 1184.65,-97 1184.65,-97 1184.65,-91 1190.65,-85 1196.65,-85 1196.65,-85 1226.65,-85 1226.65,-85 1232.65,-85 1238.65,-91 1238.65,-97 1238.65,-97 1238.65,-109 1238.65,-109 1238.65,-115 1232.65,-121 1226.65,-121"/>
<text text-anchor="middle" x="1211.65" y="-99.3" font-family="Times New Roman,serif" font-size="14.00">BUF</text>
</g>
<!-- n6&#45;&gt;x0 -->
<g id="edge9" class="edge">
<title>n6:e&#45;&gt;x0:w</title>
<path fill="none" stroke="#e7298a" stroke-width="3" d="M1124.65,-103C1147.56,-103 1155.71,-103 1174.47,-103"/>
<polygon fill="#e7298a" stroke="#e7298a" stroke-width="3" points="1174.65,-106.5 1184.65,-103 1174.65,-99.5 1174.65,-106.5"/>
<text text-anchor="middle" x="1154.65" y="-106.8" font-family="Times New Roman,serif" font-size="14.00" fill="#e7298a">&lt;8&gt;</text>
</g>
<!-- n7 -->
<g id="node5" class="node">
<title>n7</title>
<polygon fill="none" stroke="black" points="377.83,-93 285.16,-75 377.83,-57 470.5,-75 377.83,-93"/>
<text text-anchor="middle" x="377.83" y="-71.3" font-family="Times New Roman,serif" font-size="14.00">previous_pin_r</text>
</g>
<!-- c12 -->
<g id="node7" class="node">
<title>c12</title>
<polygon fill="none" stroke="black" points="530.67,-56 530.67,-94 623.67,-94 623.67,-56 530.67,-56"/>
<text text-anchor="middle" x="543.67" y="-71.3" font-family="Times New Roman,serif" font-size="14.00">A</text>
<polyline fill="none" stroke="black" points="556.67,-56 556.67,-94 "/>
<text text-anchor="middle" x="577.17" y="-78.8" font-family="Times New Roman,serif" font-size="14.00">$2</text>
<text text-anchor="middle" x="577.17" y="-63.8" font-family="Times New Roman,serif" font-size="14.00">$not</text>
<polyline fill="none" stroke="black" points="597.67,-56 597.67,-94 "/>
<text text-anchor="middle" x="610.67" y="-71.3" font-family="Times New Roman,serif" font-size="14.00">Y</text>
</g>
<!-- n7&#45;&gt;c12 -->
<g id="edge11" class="edge">
<title>n7:e&#45;&gt;c12:w</title>
<path fill="none" stroke="#7570b3" stroke-width="3" d="M470.67,-75C493.59,-75 501.73,-75 520.5,-75"/>
<polygon fill="#7570b3" stroke="#7570b3" stroke-width="3" points="520.67,-78.5 530.67,-75 520.67,-71.5 520.67,-78.5"/>
<text text-anchor="middle" x="500.67" y="-78.8" font-family="Times New Roman,serif" font-size="14.00" fill="#7570b3">&lt;8&gt;</text>
</g>
<!-- c11&#45;&gt;c17 -->
<g id="edge1" class="edge">
<title>c11:e&#45;&gt;c17:w</title>
<path fill="none" stroke="#66a61e" stroke-width="3" d="M779.67,-63C805.3,-63 809.48,-84.25 829.58,-89.72"/>
<polygon fill="#66a61e" stroke="#66a61e" stroke-width="3" points="829.31,-93.22 839.67,-91 830.19,-86.27 829.31,-93.22"/>
<text text-anchor="middle" x="809.67" y="-89.8" font-family="Times New Roman,serif" font-size="14.00" fill="#66a61e">&lt;8&gt;</text>
</g>
<!-- c12&#45;&gt;c11 -->
<g id="edge2" class="edge">
<title>c12:e&#45;&gt;c11:w</title>
<path fill="none" stroke="#1b9e77" stroke-width="3" d="M623.67,-75C646.59,-75 654.73,-75 673.5,-75"/>
<polygon fill="#1b9e77" stroke="#1b9e77" stroke-width="3" points="673.67,-78.5 683.67,-75 673.67,-71.5 673.67,-78.5"/>
<text text-anchor="middle" x="653.67" y="-78.8" font-family="Times New Roman,serif" font-size="14.00" fill="#1b9e77">&lt;8&gt;</text>
</g>
<!-- c16&#45;&gt;n7 -->
<g id="edge10" class="edge">
<title>c16:e&#45;&gt;n7:w</title>
<path fill="none" stroke="#7570b3" stroke-width="3" d="M225,-75C247.92,-75 256.06,-75 274.83,-75"/>
<polygon fill="#7570b3" stroke="#7570b3" stroke-width="3" points="275,-78.5 285,-75 275,-71.5 275,-78.5"/>
<text text-anchor="middle" x="255" y="-78.8" font-family="Times New Roman,serif" font-size="14.00" fill="#7570b3">&lt;8&gt;</text>
</g>
<!-- c17&#45;&gt;n6 -->
<g id="edge8" class="edge">
<title>c17:e&#45;&gt;n6:w</title>
<path fill="none" stroke="#e7298a" stroke-width="3" d="M950.67,-103C973.59,-103 981.73,-103 1000.5,-103"/>
<polygon fill="#e7298a" stroke="#e7298a" stroke-width="3" points="1000.67,-106.5 1010.67,-103 1000.67,-99.5 1000.67,-106.5"/>
<text text-anchor="middle" x="980.67" y="-106.8" font-family="Times New Roman,serif" font-size="14.00" fill="#e7298a">&lt;8&gt;</text>
</g>
<!-- x0&#45;&gt;n5 -->
<g id="edge7" class="edge">
<title>x0:e&#45;&gt;n5:w</title>
<path fill="none" stroke="#e7298a" stroke-width="3" d="M1238.65,-103C1261.56,-103 1269.71,-103 1288.47,-103"/>
<polygon fill="#e7298a" stroke="#e7298a" stroke-width="3" points="1288.65,-106.5 1298.65,-103 1288.65,-99.5 1288.65,-106.5"/>
<text text-anchor="middle" x="1268.65" y="-106.8" font-family="Times New Roman,serif" font-size="14.00" fill="#e7298a">&lt;8&gt;</text>
</g>
</g>
</svg>
