<svg xmlns="http://www.w3.org/2000/svg" xmlns:xlink="http://www.w3.org/1999/xlink" xmlns:s="https://github.com/nturley/netlistsvg" width="379" height="119">
  <style>svg {
    stroke:#000;
    fill:none;
  }
  text {
    fill:#000;
    stroke:none;
    font-size:10px;
    font-weight: bold;
    font-family: "Courier New", monospace;
  }
  .nodelabel {
    text-anchor: middle;
  }
  .inputPortLabel {
    text-anchor: end;
  }
  .splitjoinBody {
    fill:#000;
  }</style>
  <g s:type="and" transform="translate(207,27)" s:width="30" s:height="25" id="cell_$and$top_module.v:22$3">
    <s:alias val="$and"/>
    <s:alias val="$logic_and"/>
    <s:alias val="$_AND_"/>
    <path d="M0,0 L0,25 L15,25 A15 12.5 0 0 0 15,0 Z" class="cell_$and$top_module.v:22$3"/>
    <g s:x="0" s:y="5" s:pid="A"/>
    <g s:x="0" s:y="20" s:pid="B"/>
    <g s:x="30" s:y="12.5" s:pid="Y"/>
  </g>
  <g s:type="not" transform="translate(142,22)" s:width="30" s:height="20" id="cell_$not$top_module.v:22$2">
    <s:alias val="$_NOT_"/>
    <s:alias val="$not"/>
    <s:alias val="$logic_not"/>
    <path d="M0,0 L0,20 L20,10 Z" class="cell_$not$top_module.v:22$2"/>
    <circle cx="23" cy="10" r="3" class="cell_$not$top_module.v:22$2"/>
    <g s:x="0" s:y="10" s:pid="A"/>
    <g s:x="25" s:y="10" s:pid="Y"/>
  </g>
  <g s:type="dff" transform="translate(77,22)" s:width="30" s:height="40" id="cell_$procdff$6">
    <s:alias val="$dff"/>
    <s:alias val="$_DFF_"/>
    <s:alias val="$_DFF_P_"/>
    <rect width="30" height="40" x="0" y="0" class="cell_$procdff$6"/>
    <path d="M0,35 L5,30 L0,25" class="cell_$procdff$6"/>
    <g s:x="30" s:y="10" s:pid="Q"/>
    <g s:x="0" s:y="30" s:pid="CLK"/>
    <g s:x="0" s:y="30" s:pid="C"/>
    <g s:x="0" s:y="10" s:pid="D"/>
  </g>
  <g s:type="dff" transform="translate(272,29.5)" s:width="30" s:height="40" id="cell_$procdff$7">
    <s:alias val="$dff"/>
    <s:alias val="$_DFF_"/>
    <s:alias val="$_DFF_P_"/>
    <rect width="30" height="40" x="0" y="0" class="cell_$procdff$7"/>
    <path d="M0,35 L5,30 L0,25" class="cell_$procdff$7"/>
    <g s:x="30" s:y="10" s:pid="Q"/>
    <g s:x="0" s:y="30" s:pid="CLK"/>
    <g s:x="0" s:y="30" s:pid="C"/>
    <g s:x="0" s:y="10" s:pid="D"/>
  </g>
  <g s:type="inputExt" transform="translate(12,87)" s:width="30" s:height="20" id="cell_clk">
    <text x="15" y="-4" class="nodelabel cell_clk" s:attribute="ref">clk</text>
    <s:alias val="$_inputExt_"/>
    <path d="M0,0 L0,20 L15,20 L30,10 L15,0 Z" class="cell_clk"/>
    <g s:x="28" s:y="10" s:pid="Y"/>
  </g>
  <g s:type="inputExt" transform="translate(12,22)" s:width="30" s:height="20" id="cell_in">
    <text x="15" y="-4" class="nodelabel cell_in" s:attribute="ref">in</text>
    <s:alias val="$_inputExt_"/>
    <path d="M0,0 L0,20 L15,20 L30,10 L15,0 Z" class="cell_in"/>
    <g s:x="28" s:y="10" s:pid="Y"/>
  </g>
  <g s:type="outputExt" transform="translate(337,29.5)" s:width="30" s:height="20" id="cell_pedge">
    <text x="15" y="-4" class="nodelabel cell_pedge" s:attribute="ref">pedge</text>
    <s:alias val="$_outputExt_"/>
    <path d="M30,0 L30,20 L15,20 L0,10 L15,0 Z" class="cell_pedge"/>
    <g s:x="0" s:y="10" s:pid="A"/>
  </g>
  <line x1="167" x2="207" y1="32" y2="32" class="net_19,20,21,22,23,24,25,26"/>
  <line x1="40" x2="62" y1="32" y2="32" class="net_3,4,5,6,7,8,9,10"/>
  <line x1="62" x2="62" y1="32" y2="72" class="net_3,4,5,6,7,8,9,10"/>
  <line x1="62" x2="182" y1="72" y2="72" class="net_3,4,5,6,7,8,9,10"/>
  <line x1="182" x2="182" y1="72" y2="47" class="net_3,4,5,6,7,8,9,10"/>
  <circle cx="62" cy="32" r="2" style="fill:#000" class="net_3,4,5,6,7,8,9,10"/>
  <line x1="182" x2="207" y1="47" y2="47" class="net_3,4,5,6,7,8,9,10"/>
  <line x1="40" x2="77" y1="32" y2="32" class="net_3,4,5,6,7,8,9,10"/>
  <line x1="107" x2="142" y1="32" y2="32" class="net_35,36,37,38,39,40,41,42"/>
  <line x1="40" x2="52" y1="97" y2="97" class="net_2"/>
  <line x1="52" x2="52" y1="97" y2="52" class="net_2"/>
  <circle cx="52" cy="97" r="2" style="fill:#000" class="net_2"/>
  <line x1="52" x2="77" y1="52" y2="52" class="net_2"/>
  <line x1="40" x2="247" y1="97" y2="97" class="net_2"/>
  <line x1="247" x2="247" y1="97" y2="59.5" class="net_2"/>
  <line x1="247" x2="272" y1="59.5" y2="59.5" class="net_2"/>
  <line x1="237" x2="272" y1="39.5" y2="39.5" class="net_27,28,29,30,31,32,33,34"/>
  <line x1="302" x2="337" y1="39.5" y2="39.5" class="net_11,12,13,14,15,16,17,18"/>
</svg>
