<?xml version="1.0" encoding="UTF-8" standalone="no"?>
<!DOCTYPE svg PUBLIC "-//W3C//DTD SVG 1.1//EN"
 "http://www.w3.org/Graphics/SVG/1.1/DTD/svg11.dtd">
<!-- Generated by graphviz version 4.0.0 (20220529.0937)
 -->
<!-- Title: bcd24h2complex12h Pages: 1 -->
<svg width="1489pt" height="1052pt"
 viewBox="0.00 0.00 1488.60 1051.50" xmlns="http://www.w3.org/2000/svg" xmlns:xlink="http://www.w3.org/1999/xlink">
<g id="graph0" class="graph" transform="scale(1 1) rotate(0) translate(4 1047.5)">
<title>bcd24h2complex12h</title>
<polygon fill="white" stroke="transparent" points="-4,4 -4,-1047.5 1484.6,-1047.5 1484.6,4 -4,4"/>
<text text-anchor="middle" x="740.3" y="-7.8" font-family="Times New Roman,serif" font-size="14.00">bcd24h2complex12h</text>
<!-- n19 -->
<g id="node1" class="node">
<title>n19</title>
<polygon fill="none" stroke="black" points="83.02,-572.54 83.02,-587.46 58.7,-598 24.31,-598 -0.01,-587.46 -0.01,-572.54 24.31,-562 58.7,-562 83.02,-572.54"/>
<text text-anchor="middle" x="41.51" y="-576.3" font-family="Times New Roman,serif" font-size="14.00">bcd24h</text>
</g>
<!-- c24 -->
<g id="node4" class="node">
<title>c24</title>
<polygon fill="none" stroke="black" points="404.59,-165 404.59,-211 500.59,-211 500.59,-165 404.59,-165"/>
<text text-anchor="middle" x="417.59" y="-195.8" font-family="Times New Roman,serif" font-size="14.00">A</text>
<polyline fill="none" stroke="black" points="404.59,-188 430.59,-188 "/>
<text text-anchor="middle" x="417.59" y="-172.8" font-family="Times New Roman,serif" font-size="14.00">B</text>
<polyline fill="none" stroke="black" points="430.59,-165 430.59,-211 "/>
<text text-anchor="middle" x="452.59" y="-191.8" font-family="Times New Roman,serif" font-size="14.00">$38</text>
<text text-anchor="middle" x="452.59" y="-176.8" font-family="Times New Roman,serif" font-size="14.00">$add</text>
<polyline fill="none" stroke="black" points="474.59,-165 474.59,-211 "/>
<text text-anchor="middle" x="487.59" y="-184.3" font-family="Times New Roman,serif" font-size="14.00">Y</text>
</g>
<!-- n19&#45;&gt;c24 -->
<g id="edge1" class="edge">
<title>n19:e&#45;&gt;c24:w</title>
<path fill="none" stroke="#e6ab02" stroke-width="3" d="M83.01,-580C125.61,-580 70.19,-226.41 101.01,-197 147.54,-152.61 319.87,-195.56 394.34,-199.69"/>
<polygon fill="#e6ab02" stroke="#e6ab02" stroke-width="3" points="394.49,-203.19 404.59,-200 394.7,-196.2 394.49,-203.19"/>
<text text-anchor="middle" x="219.3" y="-200.8" font-family="Times New Roman,serif" font-size="14.00" fill="#e6ab02">&lt;24&gt;</text>
</g>
<!-- c28 -->
<g id="node5" class="node">
<title>c28</title>
<polygon fill="none" stroke="black" points="408.09,-491 408.09,-537 497.09,-537 497.09,-491 408.09,-491"/>
<text text-anchor="middle" x="421.09" y="-521.8" font-family="Times New Roman,serif" font-size="14.00">A</text>
<polyline fill="none" stroke="black" points="408.09,-514 434.09,-514 "/>
<text text-anchor="middle" x="421.09" y="-498.8" font-family="Times New Roman,serif" font-size="14.00">B</text>
<polyline fill="none" stroke="black" points="434.09,-491 434.09,-537 "/>
<text text-anchor="middle" x="452.59" y="-517.8" font-family="Times New Roman,serif" font-size="14.00">$39</text>
<text text-anchor="middle" x="452.59" y="-502.8" font-family="Times New Roman,serif" font-size="14.00">$ge</text>
<polyline fill="none" stroke="black" points="471.09,-491 471.09,-537 "/>
<text text-anchor="middle" x="484.09" y="-510.3" font-family="Times New Roman,serif" font-size="14.00">Y</text>
</g>
<!-- n19&#45;&gt;c28 -->
<g id="edge2" class="edge">
<title>n19:e&#45;&gt;c28:w</title>
<path fill="none" stroke="#e6ab02" stroke-width="3" d="M83.01,-580C102.51,-580 84.89,-550.96 101.01,-540 154.6,-503.58 321.88,-523.87 396.31,-525.85"/>
<polygon fill="#e6ab02" stroke="#e6ab02" stroke-width="3" points="396.54,-529.35 406.59,-526 396.64,-522.35 396.54,-529.35"/>
<text text-anchor="middle" x="219.3" y="-543.8" font-family="Times New Roman,serif" font-size="14.00" fill="#e6ab02">&lt;24&gt;</text>
</g>
<!-- c29 -->
<g id="node6" class="node">
<title>c29</title>
<polygon fill="none" stroke="black" points="408.09,-838 408.09,-884 497.09,-884 497.09,-838 408.09,-838"/>
<text text-anchor="middle" x="421.09" y="-868.8" font-family="Times New Roman,serif" font-size="14.00">A</text>
<polyline fill="none" stroke="black" points="408.09,-861 434.09,-861 "/>
<text text-anchor="middle" x="421.09" y="-845.8" font-family="Times New Roman,serif" font-size="14.00">B</text>
<polyline fill="none" stroke="black" points="434.09,-838 434.09,-884 "/>
<text text-anchor="middle" x="452.59" y="-864.8" font-family="Times New Roman,serif" font-size="14.00">$43</text>
<text text-anchor="middle" x="452.59" y="-849.8" font-family="Times New Roman,serif" font-size="14.00">$ge</text>
<polyline fill="none" stroke="black" points="471.09,-838 471.09,-884 "/>
<text text-anchor="middle" x="484.09" y="-857.3" font-family="Times New Roman,serif" font-size="14.00">Y</text>
</g>
<!-- n19&#45;&gt;c29 -->
<g id="edge3" class="edge">
<title>n19:e&#45;&gt;c29:w</title>
<path fill="none" stroke="#e6ab02" stroke-width="3" d="M83.01,-580C115.3,-580 77.6,-847.77 101.01,-870 147.96,-914.56 321.32,-876.9 396.27,-873.27"/>
<polygon fill="#e6ab02" stroke="#e6ab02" stroke-width="3" points="396.69,-876.76 406.59,-873 396.5,-869.77 396.69,-876.76"/>
<text text-anchor="middle" x="219.3" y="-894.8" font-family="Times New Roman,serif" font-size="14.00" fill="#e6ab02">&lt;24&gt;</text>
</g>
<!-- c30 -->
<g id="node7" class="node">
<title>c30</title>
<polygon fill="none" stroke="black" points="408.09,-927 408.09,-973 497.09,-973 497.09,-927 408.09,-927"/>
<text text-anchor="middle" x="421.09" y="-957.8" font-family="Times New Roman,serif" font-size="14.00">A</text>
<polyline fill="none" stroke="black" points="408.09,-950 434.09,-950 "/>
<text text-anchor="middle" x="421.09" y="-934.8" font-family="Times New Roman,serif" font-size="14.00">B</text>
<polyline fill="none" stroke="black" points="434.09,-927 434.09,-973 "/>
<text text-anchor="middle" x="452.59" y="-953.8" font-family="Times New Roman,serif" font-size="14.00">$47</text>
<text text-anchor="middle" x="452.59" y="-938.8" font-family="Times New Roman,serif" font-size="14.00">$ge</text>
<polyline fill="none" stroke="black" points="471.09,-927 471.09,-973 "/>
<text text-anchor="middle" x="484.09" y="-946.3" font-family="Times New Roman,serif" font-size="14.00">Y</text>
</g>
<!-- n19&#45;&gt;c30 -->
<g id="edge4" class="edge">
<title>n19:e&#45;&gt;c30:w</title>
<path fill="none" stroke="#e6ab02" stroke-width="3" d="M83.01,-580C125.17,-580 70.65,-929.76 101.01,-959 147.63,-1003.9 321.29,-965.93 396.27,-962.28"/>
<polygon fill="#e6ab02" stroke="#e6ab02" stroke-width="3" points="396.69,-965.77 406.59,-962 396.5,-958.77 396.69,-965.77"/>
<text text-anchor="middle" x="219.3" y="-983.8" font-family="Times New Roman,serif" font-size="14.00" fill="#e6ab02">&lt;24&gt;</text>
</g>
<!-- c31 -->
<g id="node8" class="node">
<title>c31</title>
<polygon fill="none" stroke="black" points="408.09,-309 408.09,-355 497.09,-355 497.09,-309 408.09,-309"/>
<text text-anchor="middle" x="421.09" y="-339.8" font-family="Times New Roman,serif" font-size="14.00">A</text>
<polyline fill="none" stroke="black" points="408.09,-332 434.09,-332 "/>
<text text-anchor="middle" x="421.09" y="-316.8" font-family="Times New Roman,serif" font-size="14.00">B</text>
<polyline fill="none" stroke="black" points="434.09,-309 434.09,-355 "/>
<text text-anchor="middle" x="452.59" y="-335.8" font-family="Times New Roman,serif" font-size="14.00">$35</text>
<text text-anchor="middle" x="452.59" y="-320.8" font-family="Times New Roman,serif" font-size="14.00">$ge</text>
<polyline fill="none" stroke="black" points="471.09,-309 471.09,-355 "/>
<text text-anchor="middle" x="484.09" y="-328.3" font-family="Times New Roman,serif" font-size="14.00">Y</text>
</g>
<!-- n19&#45;&gt;c31 -->
<g id="edge5" class="edge">
<title>n19:e&#45;&gt;c31:w</title>
<path fill="none" stroke="#e6ab02" stroke-width="3" d="M83.01,-580C107.32,-580 83.63,-378.98 101.01,-362 123.63,-339.91 338.91,-343.34 396.41,-343.93"/>
<polygon fill="#e6ab02" stroke="#e6ab02" stroke-width="3" points="396.57,-347.43 406.59,-344 396.62,-340.43 396.57,-347.43"/>
<text text-anchor="middle" x="219.3" y="-365.8" font-family="Times New Roman,serif" font-size="14.00" fill="#e6ab02">&lt;24&gt;</text>
</g>
<!-- c32 -->
<g id="node9" class="node">
<title>c32</title>
<polygon fill="none" stroke="black" points="408.09,-412 408.09,-458 497.09,-458 497.09,-412 408.09,-412"/>
<text text-anchor="middle" x="421.09" y="-442.8" font-family="Times New Roman,serif" font-size="14.00">A</text>
<polyline fill="none" stroke="black" points="408.09,-435 434.09,-435 "/>
<text text-anchor="middle" x="421.09" y="-419.8" font-family="Times New Roman,serif" font-size="14.00">B</text>
<polyline fill="none" stroke="black" points="434.09,-412 434.09,-458 "/>
<text text-anchor="middle" x="452.59" y="-438.8" font-family="Times New Roman,serif" font-size="14.00">$40</text>
<text text-anchor="middle" x="452.59" y="-423.8" font-family="Times New Roman,serif" font-size="14.00">$lt</text>
<polyline fill="none" stroke="black" points="471.09,-412 471.09,-458 "/>
<text text-anchor="middle" x="484.09" y="-431.3" font-family="Times New Roman,serif" font-size="14.00">Y</text>
</g>
<!-- n19&#45;&gt;c32 -->
<g id="edge6" class="edge">
<title>n19:e&#45;&gt;c32:w</title>
<path fill="none" stroke="#e6ab02" stroke-width="3" d="M83.01,-580C111.96,-580 79.3,-470.14 101.01,-451 149.56,-408.19 321.47,-443.35 396.28,-446.74"/>
<polygon fill="#e6ab02" stroke="#e6ab02" stroke-width="3" points="396.51,-450.25 406.59,-447 396.68,-443.25 396.51,-450.25"/>
<text text-anchor="middle" x="219.3" y="-454.8" font-family="Times New Roman,serif" font-size="14.00" fill="#e6ab02">&lt;24&gt;</text>
</g>
<!-- c33 -->
<g id="node10" class="node">
<title>c33</title>
<polygon fill="none" stroke="black" points="408.09,-758 408.09,-804 497.09,-804 497.09,-758 408.09,-758"/>
<text text-anchor="middle" x="421.09" y="-788.8" font-family="Times New Roman,serif" font-size="14.00">A</text>
<polyline fill="none" stroke="black" points="408.09,-781 434.09,-781 "/>
<text text-anchor="middle" x="421.09" y="-765.8" font-family="Times New Roman,serif" font-size="14.00">B</text>
<polyline fill="none" stroke="black" points="434.09,-758 434.09,-804 "/>
<text text-anchor="middle" x="452.59" y="-784.8" font-family="Times New Roman,serif" font-size="14.00">$44</text>
<text text-anchor="middle" x="452.59" y="-769.8" font-family="Times New Roman,serif" font-size="14.00">$lt</text>
<polyline fill="none" stroke="black" points="471.09,-758 471.09,-804 "/>
<text text-anchor="middle" x="484.09" y="-777.3" font-family="Times New Roman,serif" font-size="14.00">Y</text>
</g>
<!-- n19&#45;&gt;c33 -->
<g id="edge7" class="edge">
<title>n19:e&#45;&gt;c33:w</title>
<path fill="none" stroke="#e6ab02" stroke-width="3" d="M83.01,-580C127.86,-580 68.52,-750.09 101.01,-781 147.95,-825.64 321.28,-796.09 396.27,-793.22"/>
<polygon fill="#e6ab02" stroke="#e6ab02" stroke-width="3" points="396.67,-796.71 406.59,-793 396.52,-789.71 396.67,-796.71"/>
<text text-anchor="middle" x="219.3" y="-808.8" font-family="Times New Roman,serif" font-size="14.00" fill="#e6ab02">&lt;24&gt;</text>
</g>
<!-- c34 -->
<g id="node11" class="node">
<title>c34</title>
<polygon fill="none" stroke="black" points="408.09,-30 408.09,-76 497.09,-76 497.09,-30 408.09,-30"/>
<text text-anchor="middle" x="421.09" y="-60.8" font-family="Times New Roman,serif" font-size="14.00">A</text>
<polyline fill="none" stroke="black" points="408.09,-53 434.09,-53 "/>
<text text-anchor="middle" x="421.09" y="-37.8" font-family="Times New Roman,serif" font-size="14.00">B</text>
<polyline fill="none" stroke="black" points="434.09,-30 434.09,-76 "/>
<text text-anchor="middle" x="452.59" y="-56.8" font-family="Times New Roman,serif" font-size="14.00">$49</text>
<text text-anchor="middle" x="452.59" y="-41.8" font-family="Times New Roman,serif" font-size="14.00">$lt</text>
<polyline fill="none" stroke="black" points="471.09,-30 471.09,-76 "/>
<text text-anchor="middle" x="484.09" y="-49.3" font-family="Times New Roman,serif" font-size="14.00">Y</text>
</g>
<!-- n19&#45;&gt;c34 -->
<g id="edge8" class="edge">
<title>n19:e&#45;&gt;c34:w</title>
<path fill="none" stroke="#e6ab02" stroke-width="3" d="M83.01,-580C109.25,-580 83.42,-127.47 101.01,-108 122.38,-84.34 338.5,-67.51 396.34,-65.26"/>
<polygon fill="#e6ab02" stroke="#e6ab02" stroke-width="3" points="396.68,-68.75 406.59,-65 396.51,-61.75 396.68,-68.75"/>
<text text-anchor="middle" x="219.3" y="-111.8" font-family="Times New Roman,serif" font-size="14.00" fill="#e6ab02">&lt;24&gt;</text>
</g>
<!-- c35 -->
<g id="node12" class="node">
<title>c35</title>
<polygon fill="none" stroke="black" points="408.09,-247 408.09,-293 497.09,-293 497.09,-247 408.09,-247"/>
<text text-anchor="middle" x="421.09" y="-277.8" font-family="Times New Roman,serif" font-size="14.00">A</text>
<polyline fill="none" stroke="black" points="408.09,-270 434.09,-270 "/>
<text text-anchor="middle" x="421.09" y="-254.8" font-family="Times New Roman,serif" font-size="14.00">B</text>
<polyline fill="none" stroke="black" points="434.09,-247 434.09,-293 "/>
<text text-anchor="middle" x="452.59" y="-273.8" font-family="Times New Roman,serif" font-size="14.00">$36</text>
<text text-anchor="middle" x="452.59" y="-258.8" font-family="Times New Roman,serif" font-size="14.00">$lt</text>
<polyline fill="none" stroke="black" points="471.09,-247 471.09,-293 "/>
<text text-anchor="middle" x="484.09" y="-266.3" font-family="Times New Roman,serif" font-size="14.00">Y</text>
</g>
<!-- n19&#45;&gt;c35 -->
<g id="edge9" class="edge">
<title>n19:e&#45;&gt;c35:w</title>
<path fill="none" stroke="#e6ab02" stroke-width="3" d="M83.01,-580C116.63,-580 76.55,-301.05 101.01,-278 123.99,-256.35 339.01,-278.41 396.42,-281.62"/>
<polygon fill="#e6ab02" stroke="#e6ab02" stroke-width="3" points="396.47,-285.13 406.59,-282 396.73,-278.13 396.47,-285.13"/>
<text text-anchor="middle" x="219.3" y="-281.8" font-family="Times New Roman,serif" font-size="14.00" fill="#e6ab02">&lt;24&gt;</text>
</g>
<!-- c38 -->
<g id="node13" class="node">
<title>c38</title>
<polygon fill="none" stroke="black" points="733.59,-773.5 733.59,-842.5 832.59,-842.5 832.59,-773.5 733.59,-773.5"/>
<text text-anchor="middle" x="746.59" y="-827.3" font-family="Times New Roman,serif" font-size="14.00">A</text>
<polyline fill="none" stroke="black" points="733.59,-819.5 759.59,-819.5 "/>
<text text-anchor="middle" x="746.59" y="-804.3" font-family="Times New Roman,serif" font-size="14.00">B</text>
<polyline fill="none" stroke="black" points="733.59,-796.5 759.59,-796.5 "/>
<text text-anchor="middle" x="746.59" y="-781.3" font-family="Times New Roman,serif" font-size="14.00">S</text>
<polyline fill="none" stroke="black" points="759.59,-773.5 759.59,-842.5 "/>
<text text-anchor="middle" x="783.09" y="-811.8" font-family="Times New Roman,serif" font-size="14.00">$54</text>
<text text-anchor="middle" x="783.09" y="-796.8" font-family="Times New Roman,serif" font-size="14.00">$mux</text>
<polyline fill="none" stroke="black" points="806.59,-773.5 806.59,-842.5 "/>
<text text-anchor="middle" x="819.59" y="-804.3" font-family="Times New Roman,serif" font-size="14.00">Y</text>
</g>
<!-- n19&#45;&gt;c38 -->
<g id="edge10" class="edge">
<title>n19:e&#45;&gt;c38:w</title>
<path fill="none" stroke="#e6ab02" stroke-width="3" d="M83.01,-580C106.31,-580 84.8,-982.27 101.01,-999 184.47,-1085.11 250.17,-1019 370.09,-1019 370.09,-1019 370.09,-1019 618.09,-1019 628.91,-1019 701.09,-872.48 726.29,-838.14"/>
<polygon fill="#e6ab02" stroke="#e6ab02" stroke-width="3" points="728.89,-840.49 733.59,-831 724,-835.49 728.89,-840.49"/>
<text text-anchor="middle" x="452.59" y="-1022.8" font-family="Times New Roman,serif" font-size="14.00" fill="#e6ab02">&lt;24&gt;</text>
</g>
<!-- c42 -->
<g id="node14" class="node">
<title>c42</title>
<polygon fill="none" stroke="black" points="404.59,-670 404.59,-716 500.59,-716 500.59,-670 404.59,-670"/>
<text text-anchor="middle" x="417.59" y="-700.8" font-family="Times New Roman,serif" font-size="14.00">A</text>
<polyline fill="none" stroke="black" points="404.59,-693 430.59,-693 "/>
<text text-anchor="middle" x="417.59" y="-677.8" font-family="Times New Roman,serif" font-size="14.00">B</text>
<polyline fill="none" stroke="black" points="430.59,-670 430.59,-716 "/>
<text text-anchor="middle" x="452.59" y="-696.8" font-family="Times New Roman,serif" font-size="14.00">$42</text>
<text text-anchor="middle" x="452.59" y="-681.8" font-family="Times New Roman,serif" font-size="14.00">$sub</text>
<polyline fill="none" stroke="black" points="474.59,-670 474.59,-716 "/>
<text text-anchor="middle" x="487.59" y="-689.3" font-family="Times New Roman,serif" font-size="14.00">Y</text>
</g>
<!-- n19&#45;&gt;c42 -->
<g id="edge11" class="edge">
<title>n19:e&#45;&gt;c42:w</title>
<path fill="none" stroke="#e6ab02" stroke-width="3" d="M83.01,-580C108.22,-580 82.18,-675.24 101.01,-692 149.09,-734.78 319.96,-707.82 394.34,-705.2"/>
<polygon fill="#e6ab02" stroke="#e6ab02" stroke-width="3" points="394.66,-708.69 404.59,-705 394.53,-701.69 394.66,-708.69"/>
<text text-anchor="middle" x="219.3" y="-718.8" font-family="Times New Roman,serif" font-size="14.00" fill="#e6ab02">&lt;24&gt;</text>
</g>
<!-- c43 -->
<g id="node15" class="node">
<title>c43</title>
<polygon fill="none" stroke="black" points="404.59,-590 404.59,-636 500.59,-636 500.59,-590 404.59,-590"/>
<text text-anchor="middle" x="417.59" y="-620.8" font-family="Times New Roman,serif" font-size="14.00">A</text>
<polyline fill="none" stroke="black" points="404.59,-613 430.59,-613 "/>
<text text-anchor="middle" x="417.59" y="-597.8" font-family="Times New Roman,serif" font-size="14.00">B</text>
<polyline fill="none" stroke="black" points="430.59,-590 430.59,-636 "/>
<text text-anchor="middle" x="452.59" y="-616.8" font-family="Times New Roman,serif" font-size="14.00">$46</text>
<text text-anchor="middle" x="452.59" y="-601.8" font-family="Times New Roman,serif" font-size="14.00">$sub</text>
<polyline fill="none" stroke="black" points="474.59,-590 474.59,-636 "/>
<text text-anchor="middle" x="487.59" y="-609.3" font-family="Times New Roman,serif" font-size="14.00">Y</text>
</g>
<!-- n19&#45;&gt;c43 -->
<g id="edge12" class="edge">
<title>n19:e&#45;&gt;c43:w</title>
<path fill="none" stroke="#e6ab02" stroke-width="3" d="M83.01,-580C95.99,-580 89.56,-596.9 101.01,-603 157.91,-633.31 320.69,-625.83 394.39,-625.06"/>
<polygon fill="#e6ab02" stroke="#e6ab02" stroke-width="3" points="394.61,-628.56 404.59,-625 394.57,-621.56 394.61,-628.56"/>
<text text-anchor="middle" x="219.3" y="-629.8" font-family="Times New Roman,serif" font-size="14.00" fill="#e6ab02">&lt;24&gt;</text>
</g>
<!-- n18 -->
<g id="node2" class="node">
<title>n18</title>
<polygon fill="none" stroke="black" points="1480.61,-311.54 1480.61,-326.46 1456.29,-337 1421.9,-337 1397.59,-326.46 1397.59,-311.54 1421.9,-301 1456.29,-301 1480.61,-311.54"/>
<text text-anchor="middle" x="1439.1" y="-315.3" font-family="Times New Roman,serif" font-size="14.00">bcd12h</text>
</g>
<!-- n20 -->
<g id="node3" class="node">
<title>n20</title>
<polygon fill="none" stroke="black" points="1466.1,-92.54 1466.1,-107.46 1450.28,-118 1427.91,-118 1412.1,-107.46 1412.1,-92.54 1427.91,-82 1450.28,-82 1466.1,-92.54"/>
<text text-anchor="middle" x="1439.1" y="-96.3" font-family="Times New Roman,serif" font-size="14.00">pm</text>
</g>
<!-- c41 -->
<g id="node17" class="node">
<title>c41</title>
<polygon fill="none" stroke="black" points="1231.59,-284.5 1231.59,-353.5 1330.59,-353.5 1330.59,-284.5 1231.59,-284.5"/>
<text text-anchor="middle" x="1244.59" y="-338.3" font-family="Times New Roman,serif" font-size="14.00">A</text>
<polyline fill="none" stroke="black" points="1231.59,-330.5 1257.59,-330.5 "/>
<text text-anchor="middle" x="1244.59" y="-315.3" font-family="Times New Roman,serif" font-size="14.00">B</text>
<polyline fill="none" stroke="black" points="1231.59,-307.5 1257.59,-307.5 "/>
<text text-anchor="middle" x="1244.59" y="-292.3" font-family="Times New Roman,serif" font-size="14.00">S</text>
<polyline fill="none" stroke="black" points="1257.59,-284.5 1257.59,-353.5 "/>
<text text-anchor="middle" x="1281.09" y="-322.8" font-family="Times New Roman,serif" font-size="14.00">$81</text>
<text text-anchor="middle" x="1281.09" y="-307.8" font-family="Times New Roman,serif" font-size="14.00">$mux</text>
<polyline fill="none" stroke="black" points="1304.59,-284.5 1304.59,-353.5 "/>
<text text-anchor="middle" x="1317.59" y="-315.3" font-family="Times New Roman,serif" font-size="14.00">Y</text>
</g>
<!-- c24&#45;&gt;c41 -->
<g id="edge14" class="edge">
<title>c24:e&#45;&gt;c41:w</title>
<path fill="none" stroke="#d95f02" stroke-width="3" d="M500.59,-188C827.27,-188 900.05,-316.33 1221.52,-318.96"/>
<polygon fill="#d95f02" stroke="#d95f02" stroke-width="3" points="1221.58,-322.46 1231.59,-319 1221.61,-315.46 1221.58,-322.46"/>
<text text-anchor="middle" x="866.09" y="-261.8" font-family="Times New Roman,serif" font-size="14.00" fill="#d95f02">&lt;24&gt;</text>
</g>
<!-- c25 -->
<g id="node18" class="node">
<title>c25</title>
<polygon fill="none" stroke="black" points="569.09,-479 569.09,-525 665.09,-525 665.09,-479 569.09,-479"/>
<text text-anchor="middle" x="582.09" y="-509.8" font-family="Times New Roman,serif" font-size="14.00">A</text>
<polyline fill="none" stroke="black" points="569.09,-502 595.09,-502 "/>
<text text-anchor="middle" x="582.09" y="-486.8" font-family="Times New Roman,serif" font-size="14.00">B</text>
<polyline fill="none" stroke="black" points="595.09,-479 595.09,-525 "/>
<text text-anchor="middle" x="617.09" y="-505.8" font-family="Times New Roman,serif" font-size="14.00">$41</text>
<text text-anchor="middle" x="617.09" y="-490.8" font-family="Times New Roman,serif" font-size="14.00">$and</text>
<polyline fill="none" stroke="black" points="639.09,-479 639.09,-525 "/>
<text text-anchor="middle" x="652.09" y="-498.3" font-family="Times New Roman,serif" font-size="14.00">Y</text>
</g>
<!-- c28&#45;&gt;c25 -->
<g id="edge19" class="edge">
<title>c28:e&#45;&gt;c25:w</title>
<path fill="none" stroke="#666666" d="M498.59,-514C525.74,-514 534.99,-514 557.81,-514"/>
<polygon fill="#666666" stroke="#666666" points="558.09,-517.5 568.09,-514 558.09,-510.5 558.09,-517.5"/>
</g>
<!-- c26 -->
<g id="node20" class="node">
<title>c26</title>
<polygon fill="none" stroke="black" points="569.09,-770 569.09,-816 665.09,-816 665.09,-770 569.09,-770"/>
<text text-anchor="middle" x="582.09" y="-800.8" font-family="Times New Roman,serif" font-size="14.00">A</text>
<polyline fill="none" stroke="black" points="569.09,-793 595.09,-793 "/>
<text text-anchor="middle" x="582.09" y="-777.8" font-family="Times New Roman,serif" font-size="14.00">B</text>
<polyline fill="none" stroke="black" points="595.09,-770 595.09,-816 "/>
<text text-anchor="middle" x="617.09" y="-796.8" font-family="Times New Roman,serif" font-size="14.00">$45</text>
<text text-anchor="middle" x="617.09" y="-781.8" font-family="Times New Roman,serif" font-size="14.00">$and</text>
<polyline fill="none" stroke="black" points="639.09,-770 639.09,-816 "/>
<text text-anchor="middle" x="652.09" y="-789.3" font-family="Times New Roman,serif" font-size="14.00">Y</text>
</g>
<!-- c29&#45;&gt;c26 -->
<g id="edge21" class="edge">
<title>c29:e&#45;&gt;c26:w</title>
<path fill="none" stroke="#a6761d" d="M498.59,-861C534.54,-861 529.83,-815.01 558.16,-806.38"/>
<polygon fill="#a6761d" stroke="#a6761d" points="558.67,-809.85 568.09,-805 557.7,-802.91 558.67,-809.85"/>
</g>
<!-- c30&#45;&gt;c38 -->
<g id="edge23" class="edge">
<title>c30:e&#45;&gt;c38:w</title>
<path fill="none" stroke="#1b9e77" d="M498.59,-950C610.34,-950 640.09,-905.38 715.59,-823 724.86,-812.88 720.15,-797.13 724.39,-789.48"/>
<polygon fill="#1b9e77" stroke="#1b9e77" points="726.13,-792.52 733.59,-785 723.07,-786.23 726.13,-792.52"/>
</g>
<!-- c27 -->
<g id="node22" class="node">
<title>c27</title>
<polygon fill="none" stroke="black" points="569.09,-265 569.09,-311 665.09,-311 665.09,-265 569.09,-265"/>
<text text-anchor="middle" x="582.09" y="-295.8" font-family="Times New Roman,serif" font-size="14.00">A</text>
<polyline fill="none" stroke="black" points="569.09,-288 595.09,-288 "/>
<text text-anchor="middle" x="582.09" y="-272.8" font-family="Times New Roman,serif" font-size="14.00">B</text>
<polyline fill="none" stroke="black" points="595.09,-265 595.09,-311 "/>
<text text-anchor="middle" x="617.09" y="-291.8" font-family="Times New Roman,serif" font-size="14.00">$37</text>
<text text-anchor="middle" x="617.09" y="-276.8" font-family="Times New Roman,serif" font-size="14.00">$and</text>
<polyline fill="none" stroke="black" points="639.09,-265 639.09,-311 "/>
<text text-anchor="middle" x="652.09" y="-284.3" font-family="Times New Roman,serif" font-size="14.00">Y</text>
</g>
<!-- c31&#45;&gt;c27 -->
<g id="edge25" class="edge">
<title>c31:e&#45;&gt;c27:w</title>
<path fill="none" stroke="#1b9e77" d="M498.59,-332C528.88,-332 533.37,-306.62 558.01,-301.06"/>
<polygon fill="#1b9e77" stroke="#1b9e77" points="558.51,-304.53 568.09,-300 557.78,-297.57 558.51,-304.53"/>
</g>
<!-- c32&#45;&gt;c25 -->
<g id="edge27" class="edge">
<title>c32:e&#45;&gt;c25:w</title>
<path fill="none" stroke="#7570b3" d="M498.59,-435C534.14,-435 530.05,-479.78 557.85,-488.53"/>
<polygon fill="#7570b3" stroke="#7570b3" points="557.69,-492.04 568.09,-490 558.69,-485.11 557.69,-492.04"/>
</g>
<!-- c33&#45;&gt;c26 -->
<g id="edge29" class="edge">
<title>c33:e&#45;&gt;c26:w</title>
<path fill="none" stroke="#e7298a" d="M498.59,-781C525.74,-781 534.99,-781 557.81,-781"/>
<polygon fill="#e7298a" stroke="#e7298a" points="558.09,-784.5 568.09,-781 558.09,-777.5 558.09,-784.5"/>
</g>
<!-- c37 -->
<g id="node30" class="node">
<title>c37</title>
<polygon fill="none" stroke="black" points="567.59,-65.5 567.59,-134.5 666.59,-134.5 666.59,-65.5 567.59,-65.5"/>
<text text-anchor="middle" x="580.59" y="-119.3" font-family="Times New Roman,serif" font-size="14.00">A</text>
<polyline fill="none" stroke="black" points="567.59,-111.5 593.59,-111.5 "/>
<text text-anchor="middle" x="580.59" y="-96.3" font-family="Times New Roman,serif" font-size="14.00">B</text>
<polyline fill="none" stroke="black" points="567.59,-88.5 593.59,-88.5 "/>
<text text-anchor="middle" x="580.59" y="-73.3" font-family="Times New Roman,serif" font-size="14.00">S</text>
<polyline fill="none" stroke="black" points="593.59,-65.5 593.59,-134.5 "/>
<text text-anchor="middle" x="617.09" y="-103.8" font-family="Times New Roman,serif" font-size="14.00">$51</text>
<text text-anchor="middle" x="617.09" y="-88.8" font-family="Times New Roman,serif" font-size="14.00">$mux</text>
<polyline fill="none" stroke="black" points="640.59,-65.5 640.59,-134.5 "/>
<text text-anchor="middle" x="653.59" y="-96.3" font-family="Times New Roman,serif" font-size="14.00">Y</text>
</g>
<!-- c34&#45;&gt;c37 -->
<g id="edge31" class="edge">
<title>c34:e&#45;&gt;c37:w</title>
<path fill="none" stroke="#e7298a" d="M498.59,-53C527.38,-53 533.84,-71.87 557.57,-76.15"/>
<polygon fill="#e7298a" stroke="#e7298a" points="557.33,-79.64 567.59,-77 557.92,-72.66 557.33,-79.64"/>
</g>
<!-- c35&#45;&gt;c27 -->
<g id="edge33" class="edge">
<title>c35:e&#45;&gt;c27:w</title>
<path fill="none" stroke="#7570b3" d="M498.59,-270C525.96,-270 535.01,-274.68 558.08,-275.77"/>
<polygon fill="#7570b3" stroke="#7570b3" points="558.01,-279.27 568.09,-276 558.17,-272.27 558.01,-279.27"/>
</g>
<!-- c39 -->
<g id="node21" class="node">
<title>c39</title>
<polygon fill="none" stroke="black" points="899.59,-708.5 899.59,-777.5 998.59,-777.5 998.59,-708.5 899.59,-708.5"/>
<text text-anchor="middle" x="912.59" y="-762.3" font-family="Times New Roman,serif" font-size="14.00">A</text>
<polyline fill="none" stroke="black" points="899.59,-754.5 925.59,-754.5 "/>
<text text-anchor="middle" x="912.59" y="-739.3" font-family="Times New Roman,serif" font-size="14.00">B</text>
<polyline fill="none" stroke="black" points="899.59,-731.5 925.59,-731.5 "/>
<text text-anchor="middle" x="912.59" y="-716.3" font-family="Times New Roman,serif" font-size="14.00">S</text>
<polyline fill="none" stroke="black" points="925.59,-708.5 925.59,-777.5 "/>
<text text-anchor="middle" x="949.09" y="-746.8" font-family="Times New Roman,serif" font-size="14.00">$66</text>
<text text-anchor="middle" x="949.09" y="-731.8" font-family="Times New Roman,serif" font-size="14.00">$mux</text>
<polyline fill="none" stroke="black" points="972.59,-708.5 972.59,-777.5 "/>
<text text-anchor="middle" x="985.59" y="-739.3" font-family="Times New Roman,serif" font-size="14.00">Y</text>
</g>
<!-- c38&#45;&gt;c39 -->
<g id="edge37" class="edge">
<title>c38:e&#45;&gt;c39:w</title>
<path fill="none" stroke="#d95f02" stroke-width="3" d="M832.59,-808C864.03,-808 864.71,-774.39 889.66,-767.3"/>
<polygon fill="#d95f02" stroke="#d95f02" stroke-width="3" points="890.13,-770.77 899.59,-766 889.22,-763.83 890.13,-770.77"/>
<text text-anchor="middle" x="866.09" y="-805.8" font-family="Times New Roman,serif" font-size="14.00" fill="#d95f02">&lt;24&gt;</text>
</g>
<!-- n16 -->
<g id="node35" class="node">
<title>n16</title>
<ellipse fill="black" stroke="black" cx="617.09" cy="-693" rx="1.8" ry="1.8"/>
</g>
<!-- c42&#45;&gt;n16 -->
<g id="edge42" class="edge">
<title>c42:e&#45;&gt;n16:w</title>
<path fill="none" stroke="#d95f02" stroke-width="3" d="M500.59,-693C547.49,-693 561.69,-693 603.99,-693"/>
<polygon fill="#d95f02" stroke="#d95f02" stroke-width="3" points="604.09,-696.5 614.09,-693 604.09,-689.5 604.09,-696.5"/>
<text text-anchor="middle" x="534.09" y="-696.8" font-family="Times New Roman,serif" font-size="14.00" fill="#d95f02">&lt;24&gt;</text>
</g>
<!-- c43&#45;&gt;c39 -->
<g id="edge44" class="edge">
<title>c43:e&#45;&gt;c39:w</title>
<path fill="none" stroke="#1b9e77" stroke-width="3" d="M500.59,-613C683.64,-613 712.06,-738.22 889.37,-742.87"/>
<polygon fill="#1b9e77" stroke="#1b9e77" stroke-width="3" points="889.55,-746.37 899.59,-743 889.64,-739.37 889.55,-746.37"/>
<text text-anchor="middle" x="700.09" y="-689.8" font-family="Times New Roman,serif" font-size="14.00" fill="#1b9e77">&lt;24&gt;</text>
</g>
<!-- v0 -->
<g id="node16" class="node">
<title>v0</title>
<ellipse fill="none" stroke="black" cx="219.3" cy="-150" rx="113.98" ry="18"/>
<text text-anchor="middle" x="219.3" y="-146.3" font-family="Times New Roman,serif" font-size="14.00">21&#39;100100000000000000000</text>
</g>
<!-- v0&#45;&gt;c24 -->
<g id="edge13" class="edge">
<title>v0:e&#45;&gt;c24:w</title>
<path fill="none" stroke="#7570b3" stroke-width="3" d="M334.3,-150C358.36,-150 364.67,-154.08 386.59,-164 390.97,-165.98 393.07,-168.98 395.27,-171.49"/>
<polygon fill="#7570b3" stroke="#7570b3" stroke-width="3" points="394.07,-174.79 404.59,-176 397.12,-168.49 394.07,-174.79"/>
<text text-anchor="middle" x="371.09" y="-167.8" font-family="Times New Roman,serif" font-size="14.00" fill="#7570b3">&lt;21&gt;</text>
</g>
<!-- c41&#45;&gt;n18 -->
<g id="edge40" class="edge">
<title>c41:e&#45;&gt;n18:w</title>
<path fill="none" stroke="#1b9e77" stroke-width="3" d="M1330.59,-319C1356.65,-319 1365.6,-319 1387.38,-319"/>
<polygon fill="#1b9e77" stroke="#1b9e77" stroke-width="3" points="1387.59,-322.5 1397.59,-319 1387.59,-315.5 1387.59,-322.5"/>
<text text-anchor="middle" x="1364.09" y="-322.8" font-family="Times New Roman,serif" font-size="14.00" fill="#1b9e77">&lt;24&gt;</text>
</g>
<!-- c40 -->
<g id="node19" class="node">
<title>c40</title>
<polygon fill="none" stroke="black" points="1065.59,-593.5 1065.59,-662.5 1164.59,-662.5 1164.59,-593.5 1065.59,-593.5"/>
<text text-anchor="middle" x="1078.59" y="-647.3" font-family="Times New Roman,serif" font-size="14.00">A</text>
<polyline fill="none" stroke="black" points="1065.59,-639.5 1091.59,-639.5 "/>
<text text-anchor="middle" x="1078.59" y="-624.3" font-family="Times New Roman,serif" font-size="14.00">B</text>
<polyline fill="none" stroke="black" points="1065.59,-616.5 1091.59,-616.5 "/>
<text text-anchor="middle" x="1078.59" y="-601.3" font-family="Times New Roman,serif" font-size="14.00">S</text>
<polyline fill="none" stroke="black" points="1091.59,-593.5 1091.59,-662.5 "/>
<text text-anchor="middle" x="1115.09" y="-631.8" font-family="Times New Roman,serif" font-size="14.00">$75</text>
<text text-anchor="middle" x="1115.09" y="-616.8" font-family="Times New Roman,serif" font-size="14.00">$mux</text>
<polyline fill="none" stroke="black" points="1138.59,-593.5 1138.59,-662.5 "/>
<text text-anchor="middle" x="1151.59" y="-624.3" font-family="Times New Roman,serif" font-size="14.00">Y</text>
</g>
<!-- c25&#45;&gt;c40 -->
<g id="edge15" class="edge">
<title>c25:e&#45;&gt;c40:w</title>
<path fill="none" stroke="#1b9e77" d="M666.09,-502C846.05,-502 880.96,-601.21 1055.54,-604.89"/>
<polygon fill="#1b9e77" stroke="#1b9e77" points="1055.56,-608.4 1065.59,-605 1055.63,-601.4 1055.56,-608.4"/>
</g>
<!-- c40&#45;&gt;c41 -->
<g id="edge39" class="edge">
<title>c40:e&#45;&gt;c41:w</title>
<path fill="none" stroke="#66a61e" stroke-width="3" d="M1164.59,-628C1291.57,-628 1111.41,-357.43 1221.6,-342.63"/>
<polygon fill="#66a61e" stroke="#66a61e" stroke-width="3" points="1221.83,-346.12 1231.59,-342 1221.39,-339.14 1221.83,-346.12"/>
<text text-anchor="middle" x="1198.09" y="-628.8" font-family="Times New Roman,serif" font-size="14.00" fill="#66a61e">&lt;24&gt;</text>
</g>
<!-- c26&#45;&gt;c39 -->
<g id="edge16" class="edge">
<title>c26:e&#45;&gt;c39:w</title>
<path fill="none" stroke="#1b9e77" d="M666.09,-793C680.64,-793 672.51,-774.1 684.59,-766 762.91,-713.51 799.28,-719.49 889.51,-719.97"/>
<polygon fill="#1b9e77" stroke="#1b9e77" points="889.58,-723.47 899.59,-720 889.6,-716.47 889.58,-723.47"/>
</g>
<!-- c39&#45;&gt;c40 -->
<g id="edge38" class="edge">
<title>c39:e&#45;&gt;c40:w</title>
<path fill="none" stroke="#e6ab02" stroke-width="3" d="M998.59,-743C1032.68,-743 1028.45,-712.21 1047.59,-684 1054.19,-674.28 1052.15,-661.91 1056.16,-655.43"/>
<polygon fill="#e6ab02" stroke="#e6ab02" stroke-width="3" points="1058.03,-658.42 1065.59,-651 1055.05,-652.08 1058.03,-658.42"/>
<text text-anchor="middle" x="1032.09" y="-741.8" font-family="Times New Roman,serif" font-size="14.00" fill="#e6ab02">&lt;24&gt;</text>
</g>
<!-- c27&#45;&gt;c41 -->
<g id="edge17" class="edge">
<title>c27:e&#45;&gt;c41:w</title>
<path fill="none" stroke="#7570b3" d="M666.09,-288C717.74,-288 730.44,-281 782.09,-281 782.09,-281 782.09,-281 1116.09,-281 1164.32,-281 1178,-294.02 1221.51,-295.8"/>
<polygon fill="#7570b3" stroke="#7570b3" points="1221.52,-299.3 1231.59,-296 1221.66,-292.3 1221.52,-299.3"/>
</g>
<!-- v1 -->
<g id="node23" class="node">
<title>v1</title>
<ellipse fill="none" stroke="black" cx="219.3" cy="-493" rx="113.98" ry="18"/>
<text text-anchor="middle" x="219.3" y="-489.3" font-family="Times New Roman,serif" font-size="14.00">21&#39;100110000000000000000</text>
</g>
<!-- v1&#45;&gt;c28 -->
<g id="edge18" class="edge">
<title>v1:e&#45;&gt;c28:w</title>
<path fill="none" stroke="#a6761d" stroke-width="3" d="M334.3,-493C363.01,-493 372.19,-500.08 396.47,-501.68"/>
<polygon fill="#a6761d" stroke="#a6761d" stroke-width="3" points="396.49,-505.18 406.59,-502 396.71,-498.19 396.49,-505.18"/>
<text text-anchor="middle" x="371.09" y="-503.8" font-family="Times New Roman,serif" font-size="14.00" fill="#a6761d">&lt;21&gt;</text>
</g>
<!-- v2 -->
<g id="node24" class="node">
<title>v2</title>
<ellipse fill="none" stroke="black" cx="219.3" cy="-849" rx="118.08" ry="18"/>
<text text-anchor="middle" x="219.3" y="-845.3" font-family="Times New Roman,serif" font-size="14.00">22&#39;1000000000000000000000</text>
</g>
<!-- v2&#45;&gt;c29 -->
<g id="edge20" class="edge">
<title>v2:e&#45;&gt;c29:w</title>
<path fill="none" stroke="#a6761d" stroke-width="3" d="M337.59,-849C364.54,-849 373.73,-849 396.38,-849"/>
<polygon fill="#a6761d" stroke="#a6761d" stroke-width="3" points="396.59,-852.5 406.59,-849 396.59,-845.5 396.59,-852.5"/>
<text text-anchor="middle" x="371.09" y="-852.8" font-family="Times New Roman,serif" font-size="14.00" fill="#a6761d">&lt;22&gt;</text>
</g>
<!-- v3 -->
<g id="node25" class="node">
<title>v3</title>
<ellipse fill="none" stroke="black" cx="219.3" cy="-938" rx="118.08" ry="18"/>
<text text-anchor="middle" x="219.3" y="-934.3" font-family="Times New Roman,serif" font-size="14.00">22&#39;1000100000000000000000</text>
</g>
<!-- v3&#45;&gt;c30 -->
<g id="edge22" class="edge">
<title>v3:e&#45;&gt;c30:w</title>
<path fill="none" stroke="#7570b3" stroke-width="3" d="M337.59,-938C364.54,-938 373.73,-938 396.38,-938"/>
<polygon fill="#7570b3" stroke="#7570b3" stroke-width="3" points="396.59,-941.5 406.59,-938 396.59,-934.5 396.59,-941.5"/>
<text text-anchor="middle" x="371.09" y="-941.8" font-family="Times New Roman,serif" font-size="14.00" fill="#7570b3">&lt;22&gt;</text>
</g>
<!-- v4 -->
<g id="node26" class="node">
<title>v4</title>
<ellipse fill="none" stroke="black" cx="219.3" cy="-320" rx="27" ry="18"/>
<text text-anchor="middle" x="219.3" y="-316.3" font-family="Times New Roman,serif" font-size="14.00">1&#39;0</text>
</g>
<!-- v4&#45;&gt;c31 -->
<g id="edge24" class="edge">
<title>v4:e&#45;&gt;c31:w</title>
<path fill="none" stroke="#e6ab02" d="M247.3,-320C314.64,-320 333.94,-320 396.59,-320"/>
<polygon fill="#e6ab02" stroke="#e6ab02" points="396.59,-323.5 406.59,-320 396.59,-316.5 396.59,-323.5"/>
</g>
<!-- v5 -->
<g id="node27" class="node">
<title>v5</title>
<ellipse fill="none" stroke="black" cx="219.3" cy="-404" rx="118.08" ry="18"/>
<text text-anchor="middle" x="219.3" y="-400.3" font-family="Times New Roman,serif" font-size="14.00">22&#39;1000000000000000000000</text>
</g>
<!-- v5&#45;&gt;c32 -->
<g id="edge26" class="edge">
<title>v5:e&#45;&gt;c32:w</title>
<path fill="none" stroke="#7570b3" stroke-width="3" d="M337.59,-404C343.9,-404 378.59,-415.95 396.65,-420.89"/>
<polygon fill="#7570b3" stroke="#7570b3" stroke-width="3" points="396.08,-424.35 406.59,-423 397.53,-417.5 396.08,-424.35"/>
<text text-anchor="middle" x="371.09" y="-420.8" font-family="Times New Roman,serif" font-size="14.00" fill="#7570b3">&lt;22&gt;</text>
</g>
<!-- v6 -->
<g id="node28" class="node">
<title>v6</title>
<ellipse fill="none" stroke="black" cx="219.3" cy="-760" rx="118.08" ry="18"/>
<text text-anchor="middle" x="219.3" y="-756.3" font-family="Times New Roman,serif" font-size="14.00">22&#39;1000100000000000000000</text>
</g>
<!-- v6&#45;&gt;c33 -->
<g id="edge28" class="edge">
<title>v6:e&#45;&gt;c33:w</title>
<path fill="none" stroke="#d95f02" stroke-width="3" d="M337.59,-760C364.77,-760 373.59,-766.95 396.32,-768.64"/>
<polygon fill="#d95f02" stroke="#d95f02" stroke-width="3" points="396.47,-772.14 406.59,-769 396.72,-765.15 396.47,-772.14"/>
<text text-anchor="middle" x="371.09" y="-770.8" font-family="Times New Roman,serif" font-size="14.00" fill="#d95f02">&lt;22&gt;</text>
</g>
<!-- v7 -->
<g id="node29" class="node">
<title>v7</title>
<ellipse fill="none" stroke="black" cx="219.3" cy="-41" rx="113.98" ry="18"/>
<text text-anchor="middle" x="219.3" y="-37.3" font-family="Times New Roman,serif" font-size="14.00">21&#39;100100000000000000000</text>
</g>
<!-- v7&#45;&gt;c34 -->
<g id="edge30" class="edge">
<title>v7:e&#45;&gt;c34:w</title>
<path fill="none" stroke="#d95f02" stroke-width="3" d="M334.3,-41C362.79,-41 372.33,-41 396.53,-41"/>
<polygon fill="#d95f02" stroke="#d95f02" stroke-width="3" points="396.59,-44.5 406.59,-41 396.59,-37.5 396.59,-44.5"/>
<text text-anchor="middle" x="371.09" y="-44.8" font-family="Times New Roman,serif" font-size="14.00" fill="#d95f02">&lt;21&gt;</text>
</g>
<!-- c37&#45;&gt;n20 -->
<g id="edge36" class="edge">
<title>c37:e&#45;&gt;n20:w</title>
<path fill="none" stroke="#d95f02" d="M666.59,-100C717.92,-100 730.76,-100 782.09,-100 782.09,-100 782.09,-100 1282.09,-100 1335.84,-100 1351.8,-100 1400.83,-100"/>
<polygon fill="#d95f02" stroke="#d95f02" points="1401.1,-103.5 1411.1,-100 1401.1,-96.5 1401.1,-103.5"/>
</g>
<!-- v8 -->
<g id="node31" class="node">
<title>v8</title>
<ellipse fill="none" stroke="black" cx="219.3" cy="-239" rx="96.38" ry="18"/>
<text text-anchor="middle" x="219.3" y="-235.3" font-family="Times New Roman,serif" font-size="14.00">17&#39;10000000000000000</text>
</g>
<!-- v8&#45;&gt;c35 -->
<g id="edge32" class="edge">
<title>v8:e&#45;&gt;c35:w</title>
<path fill="none" stroke="#e6ab02" stroke-width="3" d="M317.3,-239C348.72,-239 355.95,-246.08 386.59,-253 391.06,-254.01 393.77,-255.26 396.51,-256.26"/>
<polygon fill="#e6ab02" stroke="#e6ab02" stroke-width="3" points="396.14,-259.75 406.59,-258 397.33,-252.85 396.14,-259.75"/>
<text text-anchor="middle" x="371.09" y="-256.8" font-family="Times New Roman,serif" font-size="14.00" fill="#e6ab02">&lt;17&gt;</text>
</g>
<!-- v9 -->
<g id="node32" class="node">
<title>v9</title>
<ellipse fill="none" stroke="black" cx="452.59" cy="-141" rx="27" ry="18"/>
<text text-anchor="middle" x="452.59" y="-137.3" font-family="Times New Roman,serif" font-size="14.00">1&#39;1</text>
</g>
<!-- v9&#45;&gt;c37 -->
<g id="edge34" class="edge">
<title>v9:e&#45;&gt;c37:w</title>
<path fill="none" stroke="#1b9e77" d="M480.59,-141C516.37,-141 526.32,-126.22 557.26,-123.44"/>
<polygon fill="#1b9e77" stroke="#1b9e77" points="557.75,-126.93 567.59,-123 557.45,-119.93 557.75,-126.93"/>
</g>
<!-- v10 -->
<g id="node33" class="node">
<title>v10</title>
<ellipse fill="none" stroke="black" cx="452.59" cy="-100" rx="27" ry="18"/>
<text text-anchor="middle" x="452.59" y="-96.3" font-family="Times New Roman,serif" font-size="14.00">1&#39;0</text>
</g>
<!-- v10&#45;&gt;c37 -->
<g id="edge35" class="edge">
<title>v10:e&#45;&gt;c37:w</title>
<path fill="none" stroke="#e6ab02" d="M480.59,-100C515.63,-100 526.86,-100 557.43,-100"/>
<polygon fill="#e6ab02" stroke="#e6ab02" points="557.59,-103.5 567.59,-100 557.59,-96.5 557.59,-103.5"/>
</g>
<!-- v11 -->
<g id="node34" class="node">
<title>v11</title>
<ellipse fill="none" stroke="black" cx="219.3" cy="-671" rx="113.98" ry="18"/>
<text text-anchor="middle" x="219.3" y="-667.3" font-family="Times New Roman,serif" font-size="14.00">21&#39;100100000000000000000</text>
</g>
<!-- v11&#45;&gt;c42 -->
<g id="edge41" class="edge">
<title>v11:e&#45;&gt;c42:w</title>
<path fill="none" stroke="#1b9e77" stroke-width="3" d="M334.3,-671C362.16,-671 371.02,-678.79 394.42,-680.62"/>
<polygon fill="#1b9e77" stroke="#1b9e77" stroke-width="3" points="394.47,-684.12 404.59,-681 394.73,-677.13 394.47,-684.12"/>
<text text-anchor="middle" x="371.09" y="-682.8" font-family="Times New Roman,serif" font-size="14.00" fill="#1b9e77">&lt;21&gt;</text>
</g>
<!-- n16&#45;&gt;c38 -->
<g id="edge45" class="edge">
<title>n16:e&#45;&gt;c38:w</title>
<path fill="none" stroke="#d95f02" stroke-width="3" d="M620.09,-693C688.26,-693 664.58,-796.62 723.41,-807.14"/>
<polygon fill="#d95f02" stroke="#d95f02" stroke-width="3" points="723.33,-810.65 733.59,-808 723.92,-803.67 723.33,-810.65"/>
<text text-anchor="middle" x="700.09" y="-807.8" font-family="Times New Roman,serif" font-size="14.00" fill="#d95f02">&lt;24&gt;</text>
</g>
<!-- n16&#45;&gt;c40 -->
<g id="edge46" class="edge">
<title>n16:e&#45;&gt;c40:w</title>
<path fill="none" stroke="#d95f02" stroke-width="3" d="M620.09,-693C816.77,-693 863.9,-630.2 1055.47,-628.06"/>
<polygon fill="#d95f02" stroke="#d95f02" stroke-width="3" points="1055.61,-631.56 1065.59,-628 1055.57,-624.56 1055.61,-631.56"/>
<text text-anchor="middle" x="866.09" y="-661.8" font-family="Times New Roman,serif" font-size="14.00" fill="#d95f02">&lt;24&gt;</text>
</g>
<!-- v12 -->
<g id="node36" class="node">
<title>v12</title>
<ellipse fill="none" stroke="black" cx="219.3" cy="-582" rx="113.98" ry="18"/>
<text text-anchor="middle" x="219.3" y="-578.3" font-family="Times New Roman,serif" font-size="14.00">21&#39;110000000000000000000</text>
</g>
<!-- v12&#45;&gt;c43 -->
<g id="edge43" class="edge">
<title>v12:e&#45;&gt;c43:w</title>
<path fill="none" stroke="#66a61e" stroke-width="3" d="M334.3,-582C358.36,-582 363.38,-589.67 386.59,-596 390.1,-596.96 392.39,-598.03 394.56,-598.94"/>
<polygon fill="#66a61e" stroke="#66a61e" stroke-width="3" points="394.09,-602.42 404.59,-601 395.5,-595.56 394.09,-602.42"/>
<text text-anchor="middle" x="371.09" y="-599.8" font-family="Times New Roman,serif" font-size="14.00" fill="#66a61e">&lt;21&gt;</text>
</g>
</g>
</svg>
