<?xml version="1.0" encoding="UTF-8" standalone="no"?>
<!DOCTYPE svg PUBLIC "-//W3C//DTD SVG 1.1//EN"
 "http://www.w3.org/Graphics/SVG/1.1/DTD/svg11.dtd">
<!-- Generated by graphviz version 4.0.0 (20220529.0937)
 -->
<!-- Title: add16 Pages: 1 -->
<svg width="531pt" height="175pt"
 viewBox="0.00 0.00 530.69 175.00" xmlns="http://www.w3.org/2000/svg" xmlns:xlink="http://www.w3.org/1999/xlink">
<g id="graph0" class="graph" transform="scale(1 1) rotate(0) translate(4 171)">
<title>add16</title>
<polygon fill="white" stroke="transparent" points="-4,4 -4,-171 526.69,-171 526.69,4 -4,4"/>
<text text-anchor="middle" x="261.34" y="-7.8" font-family="Times New Roman,serif" font-size="14.00">add16</text>
<!-- n3 -->
<g id="node1" class="node">
<title>n3</title>
<polygon fill="none" stroke="black" points="522.53,-93.54 522.53,-108.46 505.73,-119 481.96,-119 465.16,-108.46 465.16,-93.54 481.96,-83 505.73,-83 522.53,-93.54"/>
<text text-anchor="middle" x="493.84" y="-97.3" font-family="Times New Roman,serif" font-size="14.00">cout</text>
</g>
<!-- n4 -->
<g id="node2" class="node">
<title>n4</title>
<polygon fill="none" stroke="black" points="522.12,-39.54 522.12,-54.46 505.56,-65 482.13,-65 465.56,-54.46 465.56,-39.54 482.13,-29 505.56,-29 522.12,-39.54"/>
<text text-anchor="middle" x="493.84" y="-43.3" font-family="Times New Roman,serif" font-size="14.00">sum</text>
</g>
<!-- n5 -->
<g id="node3" class="node">
<title>n5</title>
<polygon fill="none" stroke="black" points="54,-33.54 54,-48.46 38.18,-59 15.82,-59 0,-48.46 0,-33.54 15.82,-23 38.18,-23 54,-33.54"/>
<text text-anchor="middle" x="27" y="-37.3" font-family="Times New Roman,serif" font-size="14.00">cin</text>
</g>
<!-- c11 -->
<g id="node6" class="node">
<title>c11</title>
<polygon fill="none" stroke="black" points="222,-51 222,-97 318,-97 318,-51 222,-51"/>
<text text-anchor="middle" x="235" y="-81.8" font-family="Times New Roman,serif" font-size="14.00">A</text>
<polyline fill="none" stroke="black" points="222,-74 248,-74 "/>
<text text-anchor="middle" x="235" y="-58.8" font-family="Times New Roman,serif" font-size="14.00">B</text>
<polyline fill="none" stroke="black" points="248,-51 248,-97 "/>
<text text-anchor="middle" x="270" y="-77.8" font-family="Times New Roman,serif" font-size="14.00">$2</text>
<text text-anchor="middle" x="270" y="-62.8" font-family="Times New Roman,serif" font-size="14.00">$add</text>
<polyline fill="none" stroke="black" points="292,-51 292,-97 "/>
<text text-anchor="middle" x="305" y="-70.3" font-family="Times New Roman,serif" font-size="14.00">Y</text>
</g>
<!-- n5&#45;&gt;c11 -->
<g id="edge5" class="edge">
<title>n5:e&#45;&gt;c11:w</title>
<path fill="none" stroke="black" d="M54,-41C125.72,-41 144.98,-60.08 211.79,-61.87"/>
<polygon fill="black" stroke="black" points="211.95,-65.37 222,-62 212.05,-58.37 211.95,-65.37"/>
</g>
<!-- n6 -->
<g id="node4" class="node">
<title>n6</title>
<polygon fill="none" stroke="black" points="54,-87.54 54,-102.46 38.18,-113 15.82,-113 0,-102.46 0,-87.54 15.82,-77 38.18,-77 54,-87.54"/>
<text text-anchor="middle" x="27" y="-91.3" font-family="Times New Roman,serif" font-size="14.00">b</text>
</g>
<!-- c12 -->
<g id="node7" class="node">
<title>c12</title>
<polygon fill="none" stroke="black" points="90,-84 90,-130 186,-130 186,-84 90,-84"/>
<text text-anchor="middle" x="103" y="-114.8" font-family="Times New Roman,serif" font-size="14.00">A</text>
<polyline fill="none" stroke="black" points="90,-107 116,-107 "/>
<text text-anchor="middle" x="103" y="-91.8" font-family="Times New Roman,serif" font-size="14.00">B</text>
<polyline fill="none" stroke="black" points="116,-84 116,-130 "/>
<text text-anchor="middle" x="138" y="-110.8" font-family="Times New Roman,serif" font-size="14.00">$1</text>
<text text-anchor="middle" x="138" y="-95.8" font-family="Times New Roman,serif" font-size="14.00">$add</text>
<polyline fill="none" stroke="black" points="160,-84 160,-130 "/>
<text text-anchor="middle" x="173" y="-103.3" font-family="Times New Roman,serif" font-size="14.00">Y</text>
</g>
<!-- n6&#45;&gt;c12 -->
<g id="edge6" class="edge">
<title>n6:e&#45;&gt;c12:w</title>
<path fill="none" stroke="black" stroke-width="3" d="M54,-95C66,-95 71.25,-95 79.87,-95"/>
<polygon fill="black" stroke="black" stroke-width="3" points="80,-98.5 90,-95 80,-91.5 80,-98.5"/>
</g>
<!-- n7 -->
<g id="node5" class="node">
<title>n7</title>
<polygon fill="none" stroke="black" points="54,-141.54 54,-156.46 38.18,-167 15.82,-167 0,-156.46 0,-141.54 15.82,-131 38.18,-131 54,-141.54"/>
<text text-anchor="middle" x="27" y="-145.3" font-family="Times New Roman,serif" font-size="14.00">a</text>
</g>
<!-- n7&#45;&gt;c12 -->
<g id="edge7" class="edge">
<title>n7:e&#45;&gt;c12:w</title>
<path fill="none" stroke="black" stroke-width="3" d="M54,-149C70.76,-149 70.37,-129.57 80.43,-121.99"/>
<polygon fill="black" stroke="black" stroke-width="3" points="81.5,-125.32 90,-119 79.41,-118.64 81.5,-125.32"/>
</g>
<!-- x0 -->
<g id="node8" class="node">
<title>x0</title>
<path fill="none" stroke="black" d="M366,-51C366,-51 417,-51 417,-51 423,-51 429,-57 429,-63 429,-63 429,-85 429,-85 429,-91 423,-97 417,-97 417,-97 366,-97 366,-97 360,-97 354,-91 354,-85 354,-85 354,-63 354,-63 354,-57 360,-51 366,-51"/>
<text text-anchor="middle" x="391.5" y="-81.8" font-family="Times New Roman,serif" font-size="14.00">16:16 &#45; 0:0</text>
<polyline fill="none" stroke="black" points="354,-74 429,-74 "/>
<text text-anchor="middle" x="391.5" y="-58.8" font-family="Times New Roman,serif" font-size="14.00">15:0 &#45; 15:0</text>
</g>
<!-- c11&#45;&gt;x0 -->
<g id="edge1" class="edge">
<title>c11:e&#45;&gt;x0:w</title>
<path fill="none" stroke="black" stroke-width="3" d="M318,-74C330,-74 335.25,-74 343.87,-74"/>
<polygon fill="black" stroke="black" stroke-width="3" points="344,-77.5 354,-74 344,-70.5 344,-77.5"/>
</g>
<!-- c12&#45;&gt;c11 -->
<g id="edge2" class="edge">
<title>c12:e&#45;&gt;c11:w</title>
<path fill="none" stroke="black" stroke-width="3" d="M186,-107C200.47,-107 203,-94.18 212.24,-88.58"/>
<polygon fill="black" stroke="black" stroke-width="3" points="213.22,-91.94 222,-86 211.44,-85.17 213.22,-91.94"/>
</g>
<!-- x0&#45;&gt;n3 -->
<g id="edge3" class="edge">
<title>x0:e&#45;&gt;n3:w</title>
<path fill="none" stroke="black" d="M429,-86C442.27,-86 446.16,-94.79 455.04,-98.91"/>
<polygon fill="black" stroke="black" points="454.49,-102.38 465,-101 455.93,-95.53 454.49,-102.38"/>
</g>
<!-- x0&#45;&gt;n4 -->
<g id="edge4" class="edge">
<title>x0:e&#45;&gt;n4:w</title>
<path fill="none" stroke="black" stroke-width="3" d="M429,-62C442.27,-62 446.16,-53.21 455.04,-49.09"/>
<polygon fill="black" stroke="black" stroke-width="3" points="455.93,-52.47 465,-47 454.49,-45.62 455.93,-52.47"/>
</g>
</g>
</svg>
