<?xml version="1.0" encoding="UTF-8" standalone="no"?>
<!DOCTYPE svg PUBLIC "-//W3C//DTD SVG 1.1//EN"
 "http://www.w3.org/Graphics/SVG/1.1/DTD/svg11.dtd">
<!-- Generated by graphviz version 4.0.0 (20220529.0937)
 -->
<!-- Title: root Pages: 1 -->
<svg width="918pt" height="497pt"
 viewBox="0.00 0.00 918.22 496.50" xmlns="http://www.w3.org/2000/svg" xmlns:xlink="http://www.w3.org/1999/xlink">
<g id="graph0" class="graph" transform="scale(1 1) rotate(0) translate(4 492.5)">
<title>root</title>
<polygon fill="white" stroke="transparent" points="-4,4 -4,-492.5 914.22,-492.5 914.22,4 -4,4"/>
<text text-anchor="middle" x="455.11" y="-7.8" font-family="Times New Roman,serif" font-size="14.00">top_module</text>
<!-- n6 -->
<g id="node1" class="node">
<title>n6</title>
<polygon fill="none" stroke="black" points="54,-362.04 54,-376.96 38.18,-387.5 15.82,-387.5 0,-376.96 0,-362.04 15.82,-351.5 38.18,-351.5 54,-362.04"/>
<text text-anchor="middle" x="27" y="-365.8" font-family="Times New Roman,serif" font-size="14.00">sub</text>
</g>
<!-- c12 -->
<g id="node7" class="node">
<title>c12</title>
<polygon fill="none" stroke="black" points="700.61,-289 700.61,-404 812.61,-404 812.61,-289 700.61,-289"/>
<text text-anchor="middle" x="721.11" y="-388.8" font-family="Times New Roman,serif" font-size="14.00">a</text>
<polyline fill="none" stroke="black" points="700.61,-381 741.61,-381 "/>
<text text-anchor="middle" x="721.11" y="-365.8" font-family="Times New Roman,serif" font-size="14.00">b</text>
<polyline fill="none" stroke="black" points="700.61,-358 741.61,-358 "/>
<text text-anchor="middle" x="721.11" y="-342.8" font-family="Times New Roman,serif" font-size="14.00">cin</text>
<polyline fill="none" stroke="black" points="700.61,-335 741.61,-335 "/>
<text text-anchor="middle" x="721.11" y="-319.8" font-family="Times New Roman,serif" font-size="14.00">cout</text>
<polyline fill="none" stroke="black" points="700.61,-312 741.61,-312 "/>
<text text-anchor="middle" x="721.11" y="-296.8" font-family="Times New Roman,serif" font-size="14.00">sum</text>
<polyline fill="none" stroke="black" points="741.61,-289 741.61,-404 "/>
<text text-anchor="middle" x="767.11" y="-350.3" font-family="Times New Roman,serif" font-size="14.00">a1</text>
<text text-anchor="middle" x="767.11" y="-335.3" font-family="Times New Roman,serif" font-size="14.00">add16</text>
<polyline fill="none" stroke="black" points="792.61,-289 792.61,-404 "/>
<text text-anchor="middle" x="802.61" y="-342.8" font-family="Times New Roman,serif" font-size="14.00"> </text>
</g>
<!-- n6&#45;&gt;c12 -->
<g id="edge7" class="edge">
<title>n6:e&#45;&gt;c12:w</title>
<path fill="none" stroke="black" d="M54,-369.5C203.9,-369.5 240.6,-346.5 390.5,-346.5 390.5,-346.5 390.5,-346.5 506.44,-346.5 589.2,-346.5 612.43,-346.5 690.31,-346.5"/>
<polygon fill="black" stroke="black" points="690.61,-350 700.61,-346.5 690.61,-343 690.61,-350"/>
</g>
<!-- c17 -->
<g id="node13" class="node">
<title>c17</title>
<polygon fill="none" stroke="black" points="219,-413 219,-482 318,-482 318,-413 219,-413"/>
<text text-anchor="middle" x="232" y="-466.8" font-family="Times New Roman,serif" font-size="14.00">A</text>
<polyline fill="none" stroke="black" points="219,-459 245,-459 "/>
<text text-anchor="middle" x="232" y="-443.8" font-family="Times New Roman,serif" font-size="14.00">B</text>
<polyline fill="none" stroke="black" points="219,-436 245,-436 "/>
<text text-anchor="middle" x="232" y="-420.8" font-family="Times New Roman,serif" font-size="14.00">S</text>
<polyline fill="none" stroke="black" points="245,-413 245,-482 "/>
<text text-anchor="middle" x="268.5" y="-451.3" font-family="Times New Roman,serif" font-size="14.00">$2</text>
<text text-anchor="middle" x="268.5" y="-436.3" font-family="Times New Roman,serif" font-size="14.00">$mux</text>
<polyline fill="none" stroke="black" points="292,-413 292,-482 "/>
<text text-anchor="middle" x="305" y="-443.8" font-family="Times New Roman,serif" font-size="14.00">Y</text>
</g>
<!-- n6&#45;&gt;c17 -->
<g id="edge8" class="edge">
<title>n6:e&#45;&gt;c17:w</title>
<path fill="none" stroke="black" d="M54,-369.5C89.56,-369.5 166.62,-416.04 208.82,-423.5"/>
<polygon fill="black" stroke="black" points="208.71,-427 219,-424.5 209.39,-420.04 208.71,-427"/>
</g>
<!-- n7 -->
<g id="node2" class="node">
<title>n7</title>
<polygon fill="none" stroke="black" points="54,-463.04 54,-477.96 38.18,-488.5 15.82,-488.5 0,-477.96 0,-463.04 15.82,-452.5 38.18,-452.5 54,-463.04"/>
<text text-anchor="middle" x="27" y="-466.8" font-family="Times New Roman,serif" font-size="14.00">b</text>
</g>
<!-- n7&#45;&gt;c17 -->
<g id="edge9" class="edge">
<title>n7:e&#45;&gt;c17:w</title>
<path fill="none" stroke="black" stroke-width="3" d="M54,-470.5C70.15,-470.5 73.88,-474.39 90,-475.5 131.23,-478.35 141.77,-478.35 183,-475.5 195.09,-474.66 200.21,-472.27 208.83,-471.12"/>
<polygon fill="black" stroke="black" stroke-width="3" points="209.23,-474.61 219,-470.5 208.8,-467.62 209.23,-474.61"/>
</g>
<!-- c18 -->
<g id="node14" class="node">
<title>c18</title>
<polygon fill="none" stroke="black" points="90,-427.5 90,-465.5 183,-465.5 183,-427.5 90,-427.5"/>
<text text-anchor="middle" x="103" y="-442.8" font-family="Times New Roman,serif" font-size="14.00">A</text>
<polyline fill="none" stroke="black" points="116,-427.5 116,-465.5 "/>
<text text-anchor="middle" x="136.5" y="-450.3" font-family="Times New Roman,serif" font-size="14.00">$1</text>
<text text-anchor="middle" x="136.5" y="-435.3" font-family="Times New Roman,serif" font-size="14.00">$not</text>
<polyline fill="none" stroke="black" points="157,-427.5 157,-465.5 "/>
<text text-anchor="middle" x="170" y="-442.8" font-family="Times New Roman,serif" font-size="14.00">Y</text>
</g>
<!-- n7&#45;&gt;c18 -->
<g id="edge10" class="edge">
<title>n7:e&#45;&gt;c18:w</title>
<path fill="none" stroke="black" stroke-width="3" d="M54,-470.5C69.17,-470.5 70.84,-455.56 80.32,-449.25"/>
<polygon fill="black" stroke="black" stroke-width="3" points="81.34,-452.6 90,-446.5 79.42,-445.87 81.34,-452.6"/>
</g>
<!-- n8 -->
<g id="node3" class="node">
<title>n8</title>
<polygon fill="none" stroke="black" points="54,-293.04 54,-307.96 38.18,-318.5 15.82,-318.5 0,-307.96 0,-293.04 15.82,-282.5 38.18,-282.5 54,-293.04"/>
<text text-anchor="middle" x="27" y="-296.8" font-family="Times New Roman,serif" font-size="14.00">a</text>
</g>
<!-- x3 -->
<g id="node15" class="node">
<title>x3</title>
<path fill="none" stroke="black" d="M239.5,-250.5C239.5,-250.5 297.5,-250.5 297.5,-250.5 303.5,-250.5 309.5,-256.5 309.5,-262.5 309.5,-262.5 309.5,-274.5 309.5,-274.5 309.5,-280.5 303.5,-286.5 297.5,-286.5 297.5,-286.5 239.5,-286.5 239.5,-286.5 233.5,-286.5 227.5,-280.5 227.5,-274.5 227.5,-274.5 227.5,-262.5 227.5,-262.5 227.5,-256.5 233.5,-250.5 239.5,-250.5"/>
<text text-anchor="middle" x="268.5" y="-264.8" font-family="Times New Roman,serif" font-size="14.00">31:16 &#45; 15:0</text>
</g>
<!-- n8&#45;&gt;x3 -->
<g id="edge11" class="edge">
<title>n8:e&#45;&gt;x3:w</title>
<path fill="none" stroke="black" stroke-width="3" d="M54,-300.5C128.47,-300.5 146.91,-271.31 216.35,-268.69"/>
<polygon fill="black" stroke="black" stroke-width="3" points="216.57,-272.18 226.5,-268.5 216.44,-265.19 216.57,-272.18"/>
</g>
<!-- x6 -->
<g id="node16" class="node">
<title>x6</title>
<path fill="none" stroke="black" d="M366,-429.5C366,-429.5 417,-429.5 417,-429.5 423,-429.5 429,-435.5 429,-441.5 429,-441.5 429,-453.5 429,-453.5 429,-459.5 423,-465.5 417,-465.5 417,-465.5 366,-465.5 366,-465.5 360,-465.5 354,-459.5 354,-453.5 354,-453.5 354,-441.5 354,-441.5 354,-435.5 360,-429.5 366,-429.5"/>
<text text-anchor="middle" x="391.5" y="-443.8" font-family="Times New Roman,serif" font-size="14.00">15:0 &#45; 15:0</text>
</g>
<!-- n8&#45;&gt;x6 -->
<g id="edge12" class="edge">
<title>n8:e&#45;&gt;x6:w</title>
<path fill="none" stroke="black" stroke-width="3" d="M54,-300.5C179.95,-300.5 216.12,-329.45 318,-403.5 335.09,-415.92 331.11,-438.32 344.1,-445.34"/>
<polygon fill="black" stroke="black" stroke-width="3" points="343.48,-448.79 354,-447.5 344.98,-441.95 343.48,-448.79"/>
</g>
<!-- n5 -->
<g id="node4" class="node">
<title>n5</title>
<polygon fill="none" stroke="black" points="905.03,-144.04 905.03,-158.96 888.46,-169.5 865.04,-169.5 848.47,-158.96 848.47,-144.04 865.04,-133.5 888.46,-133.5 905.03,-144.04"/>
<text text-anchor="middle" x="876.75" y="-147.8" font-family="Times New Roman,serif" font-size="14.00">sum</text>
</g>
<!-- x1 -->
<g id="node11" class="node">
<title>x1</title>
<path fill="none" stroke="black" d="M594.25,-23.5C594.25,-23.5 652.25,-23.5 652.25,-23.5 658.25,-23.5 664.25,-29.5 664.25,-35.5 664.25,-35.5 664.25,-47.5 664.25,-47.5 664.25,-53.5 658.25,-59.5 652.25,-59.5 652.25,-59.5 594.25,-59.5 594.25,-59.5 588.25,-59.5 582.25,-53.5 582.25,-47.5 582.25,-47.5 582.25,-35.5 582.25,-35.5 582.25,-29.5 588.25,-23.5 594.25,-23.5"/>
<text text-anchor="middle" x="623.25" y="-37.8" font-family="Times New Roman,serif" font-size="14.00">31:16 &#45; 15:0</text>
</g>
<!-- n5&#45;&gt;x1 -->
<g id="edge5" class="edge">
<title>n5:e&#45;&gt;x1:w</title>
<path fill="none" stroke="black" stroke-width="3" d="M905.75,-151.5C916.74,-151.5 901.44,-207.58 848.61,-169.5 807.56,-139.92 853.56,-91.22 812.61,-61.5 791.89,-46.47 600.77,-77.66 582.25,-60 579.73,-57.6 577.7,-53.94 576.8,-50.5"/>
<polygon fill="black" stroke="black" stroke-width="3" points="579.95,-52.02 581.25,-41.5 573.68,-48.91 579.95,-52.02"/>
</g>
<!-- x4 -->
<g id="node12" class="node">
<title>x4</title>
<path fill="none" stroke="black" d="M597.75,-281.5C597.75,-281.5 648.75,-281.5 648.75,-281.5 654.75,-281.5 660.75,-287.5 660.75,-293.5 660.75,-293.5 660.75,-305.5 660.75,-305.5 660.75,-311.5 654.75,-317.5 648.75,-317.5 648.75,-317.5 597.75,-317.5 597.75,-317.5 591.75,-317.5 585.75,-311.5 585.75,-305.5 585.75,-305.5 585.75,-293.5 585.75,-293.5 585.75,-287.5 591.75,-281.5 597.75,-281.5"/>
<text text-anchor="middle" x="623.25" y="-295.8" font-family="Times New Roman,serif" font-size="14.00">15:0 &#45; 15:0</text>
</g>
<!-- n5&#45;&gt;x4 -->
<g id="edge6" class="edge">
<title>n5:e&#45;&gt;x4:w</title>
<path fill="none" stroke="black" stroke-width="3" d="M905.75,-151.5C913.76,-151.5 909.05,-162.74 904.75,-169.5 849.48,-256.49 783.82,-218.69 700.61,-279.5 680.72,-294.03 683.58,-308.77 660.75,-318 629.64,-330.57 609.61,-341.08 585.25,-318 582.73,-315.61 580.69,-311.94 579.79,-308.5"/>
<polygon fill="black" stroke="black" stroke-width="3" points="582.95,-310.02 584.25,-299.5 576.68,-306.91 582.95,-310.02"/>
</g>
<!-- n3 -->
<g id="node5" class="node">
<title>n3</title>
<polygon fill="none" stroke="black" points="623.25,-224.5 582.02,-206.5 623.25,-188.5 664.47,-206.5 623.25,-224.5"/>
<text text-anchor="middle" x="623.25" y="-202.8" font-family="Times New Roman,serif" font-size="14.00">carry</text>
</g>
<!-- c11 -->
<g id="node6" class="node">
<title>c11</title>
<polygon fill="none" stroke="black" points="700.61,-71 700.61,-186 812.61,-186 812.61,-71 700.61,-71"/>
<text text-anchor="middle" x="721.11" y="-170.8" font-family="Times New Roman,serif" font-size="14.00">a</text>
<polyline fill="none" stroke="black" points="700.61,-163 741.61,-163 "/>
<text text-anchor="middle" x="721.11" y="-147.8" font-family="Times New Roman,serif" font-size="14.00">b</text>
<polyline fill="none" stroke="black" points="700.61,-140 741.61,-140 "/>
<text text-anchor="middle" x="721.11" y="-124.8" font-family="Times New Roman,serif" font-size="14.00">cin</text>
<polyline fill="none" stroke="black" points="700.61,-117 741.61,-117 "/>
<text text-anchor="middle" x="721.11" y="-101.8" font-family="Times New Roman,serif" font-size="14.00">cout</text>
<polyline fill="none" stroke="black" points="700.61,-94 741.61,-94 "/>
<text text-anchor="middle" x="721.11" y="-78.8" font-family="Times New Roman,serif" font-size="14.00">sum</text>
<polyline fill="none" stroke="black" points="741.61,-71 741.61,-186 "/>
<text text-anchor="middle" x="767.11" y="-132.3" font-family="Times New Roman,serif" font-size="14.00">a2</text>
<text text-anchor="middle" x="767.11" y="-117.3" font-family="Times New Roman,serif" font-size="14.00">add16</text>
<polyline fill="none" stroke="black" points="792.61,-71 792.61,-186 "/>
<text text-anchor="middle" x="802.61" y="-124.8" font-family="Times New Roman,serif" font-size="14.00"> </text>
</g>
<!-- n3&#45;&gt;c11 -->
<g id="edge1" class="edge">
<title>n3:e&#45;&gt;c11:w</title>
<path fill="none" stroke="black" d="M664.61,-206.5C698.61,-206.5 670.32,-144.63 690.7,-131.1"/>
<polygon fill="black" stroke="black" points="691.82,-134.42 700.61,-128.5 690.05,-127.65 691.82,-134.42"/>
</g>
<!-- n3&#45;&gt;c12 -->
<g id="edge2" class="edge">
<title>n3:e&#45;&gt;c12:w</title>
<path fill="none" stroke="black" d="M664.61,-206.5C714.98,-206.5 656.31,-306.78 690.49,-321.66"/>
<polygon fill="black" stroke="black" points="690.15,-325.16 700.61,-323.5 691.4,-318.27 690.15,-325.16"/>
</g>
<!-- n4 -->
<g id="node8" class="node">
<title>n4</title>
<polygon fill="none" stroke="black" points="505.44,-410.5 465.06,-392.5 505.44,-374.5 545.83,-392.5 505.44,-410.5"/>
<text text-anchor="middle" x="505.44" y="-388.8" font-family="Times New Roman,serif" font-size="14.00">bsub</text>
</g>
<!-- x2 -->
<g id="node9" class="node">
<title>x2</title>
<path fill="none" stroke="black" d="M594.25,-133.5C594.25,-133.5 652.25,-133.5 652.25,-133.5 658.25,-133.5 664.25,-139.5 664.25,-145.5 664.25,-145.5 664.25,-157.5 664.25,-157.5 664.25,-163.5 658.25,-169.5 652.25,-169.5 652.25,-169.5 594.25,-169.5 594.25,-169.5 588.25,-169.5 582.25,-163.5 582.25,-157.5 582.25,-157.5 582.25,-145.5 582.25,-145.5 582.25,-139.5 588.25,-133.5 594.25,-133.5"/>
<text text-anchor="middle" x="623.25" y="-147.8" font-family="Times New Roman,serif" font-size="14.00">31:16 &#45; 15:0</text>
</g>
<!-- n4&#45;&gt;x2 -->
<g id="edge3" class="edge">
<title>n4:e&#45;&gt;x2:w</title>
<path fill="none" stroke="black" stroke-width="3" d="M545.89,-392.5C596.23,-392.5 537.28,-184.2 572.25,-154.91"/>
<polygon fill="black" stroke="black" stroke-width="3" points="573.62,-158.13 581.89,-151.5 571.29,-151.53 573.62,-158.13"/>
</g>
<!-- x5 -->
<g id="node10" class="node">
<title>x5</title>
<path fill="none" stroke="black" d="M597.75,-375.5C597.75,-375.5 648.75,-375.5 648.75,-375.5 654.75,-375.5 660.75,-381.5 660.75,-387.5 660.75,-387.5 660.75,-399.5 660.75,-399.5 660.75,-405.5 654.75,-411.5 648.75,-411.5 648.75,-411.5 597.75,-411.5 597.75,-411.5 591.75,-411.5 585.75,-405.5 585.75,-399.5 585.75,-399.5 585.75,-387.5 585.75,-387.5 585.75,-381.5 591.75,-375.5 597.75,-375.5"/>
<text text-anchor="middle" x="623.25" y="-389.8" font-family="Times New Roman,serif" font-size="14.00">15:0 &#45; 15:0</text>
</g>
<!-- n4&#45;&gt;x5 -->
<g id="edge4" class="edge">
<title>n4:e&#45;&gt;x5:w</title>
<path fill="none" stroke="black" stroke-width="3" d="M545.89,-392.5C558.94,-392.5 564.5,-393.09 574.04,-393.36"/>
<polygon fill="black" stroke="black" stroke-width="3" points="574.2,-396.86 584.25,-393.5 574.3,-389.86 574.2,-396.86"/>
</g>
<!-- x2&#45;&gt;c11 -->
<g id="edge15" class="edge">
<title>x2:e&#45;&gt;c11:w</title>
<path fill="none" stroke="black" stroke-width="3" d="M676.83,-151.5C680.9,-151.5 684.34,-151.5 688.42,-151.5"/>
<polygon fill="none" stroke="black" stroke-width="3" points="676.61,-151.5 670.61,-155.5 664.61,-151.5 670.61,-147.5 676.61,-151.5"/>
<polygon fill="none" stroke="black" stroke-width="3" points="688.61,-151.5 694.61,-147.5 700.61,-151.5 694.61,-155.5 688.61,-151.5"/>
</g>
<!-- x5&#45;&gt;c12 -->
<g id="edge18" class="edge">
<title>x5:e&#45;&gt;c12:w</title>
<path fill="none" stroke="black" stroke-width="3" d="M673.9,-389.75C679.88,-385.21 683.07,-377.63 689.1,-373.15"/>
<polygon fill="none" stroke="black" stroke-width="3" points="673.67,-389.82 669.18,-395.47 662.25,-393.5 666.73,-387.85 673.67,-389.82"/>
<polygon fill="none" stroke="black" stroke-width="3" points="689.17,-373.12 693.68,-367.5 700.61,-369.5 696.1,-375.12 689.17,-373.12"/>
</g>
<!-- x1&#45;&gt;c11 -->
<g id="edge14" class="edge">
<title>x1:e&#45;&gt;c11:w</title>
<path fill="none" stroke="black" stroke-width="3" d="M675.74,-46.2C682.7,-54.11 682.53,-69.98 689.53,-77.85"/>
<polygon fill="none" stroke="black" stroke-width="3" points="675.66,-46.17 668.58,-47.52 664.61,-41.5 671.69,-40.15 675.66,-46.17"/>
<polygon fill="none" stroke="black" stroke-width="3" points="689.54,-77.86 696.62,-76.49 700.61,-82.5 693.53,-83.87 689.54,-77.86"/>
</g>
<!-- x4&#45;&gt;c12 -->
<g id="edge17" class="edge">
<title>x4:e&#45;&gt;c12:w</title>
<path fill="none" stroke="black" stroke-width="3" d="M674.45,-299.7C679.43,-299.88 683.44,-300.12 688.42,-300.3"/>
<polygon fill="none" stroke="black" stroke-width="3" points="674.25,-299.7 668.18,-303.6 662.25,-299.5 668.31,-295.6 674.25,-299.7"/>
<polygon fill="none" stroke="black" stroke-width="3" points="688.61,-300.3 694.68,-296.4 700.61,-300.5 694.54,-304.4 688.61,-300.3"/>
</g>
<!-- x7 -->
<g id="node18" class="node">
<title>x7</title>
<path fill="none" stroke="black" d="M406.5,-410.5C406.5,-410.5 376.5,-410.5 376.5,-410.5 370.5,-410.5 364.5,-404.5 364.5,-398.5 364.5,-398.5 364.5,-386.5 364.5,-386.5 364.5,-380.5 370.5,-374.5 376.5,-374.5 376.5,-374.5 406.5,-374.5 406.5,-374.5 412.5,-374.5 418.5,-380.5 418.5,-386.5 418.5,-386.5 418.5,-398.5 418.5,-398.5 418.5,-404.5 412.5,-410.5 406.5,-410.5"/>
<text text-anchor="middle" x="391.5" y="-388.8" font-family="Times New Roman,serif" font-size="14.00">BUF</text>
</g>
<!-- c17&#45;&gt;x7 -->
<g id="edge20" class="edge">
<title>c17:e&#45;&gt;x7:w</title>
<path fill="none" stroke="black" stroke-width="3" d="M318,-447.5C345.76,-447.5 335.49,-405.39 353.74,-394.86"/>
<polygon fill="black" stroke="black" stroke-width="3" points="354.6,-398.25 363.5,-392.5 352.96,-391.45 354.6,-398.25"/>
</g>
<!-- c18&#45;&gt;c17 -->
<g id="edge21" class="edge">
<title>c18:e&#45;&gt;c17:w</title>
<path fill="none" stroke="black" stroke-width="3" d="M183,-446.5C195,-446.5 200.25,-447.06 208.87,-447.34"/>
<polygon fill="black" stroke="black" stroke-width="3" points="208.95,-450.85 219,-447.5 209.06,-443.85 208.95,-450.85"/>
</g>
<!-- x3&#45;&gt;c11 -->
<g id="edge16" class="edge">
<title>x3:e&#45;&gt;c11:w</title>
<path fill="none" stroke="black" stroke-width="3" d="M322.71,-268.54C409.16,-269.06 600.85,-273.54 664.61,-233.5 686.15,-219.97 675.64,-188.39 688.83,-177.93"/>
<polygon fill="none" stroke="black" stroke-width="3" points="322.5,-268.54 316.49,-272.52 310.5,-268.5 316.51,-264.52 322.5,-268.54"/>
<polygon fill="none" stroke="black" stroke-width="3" points="689.09,-177.86 693.73,-172.34 700.61,-174.5 695.97,-180.02 689.09,-177.86"/>
</g>
<!-- x6&#45;&gt;c12 -->
<g id="edge19" class="edge">
<title>x6:e&#45;&gt;c12:w</title>
<path fill="none" stroke="black" stroke-width="3" d="M441.02,-447.56C537.03,-448.54 571.13,-460.36 664.61,-421.5 678.84,-415.58 680.42,-402.23 688.99,-395.92"/>
<polygon fill="none" stroke="black" stroke-width="3" points="441,-447.56 434.98,-451.53 429,-447.5 435.02,-443.53 441,-447.56"/>
<polygon fill="none" stroke="black" stroke-width="3" points="689.1,-395.89 693.72,-390.36 700.61,-392.5 695.98,-398.03 689.1,-395.89"/>
</g>
<!-- v0 -->
<g id="node17" class="node">
<title>v0</title>
<ellipse fill="none" stroke="black" cx="623.25" cy="-96.5" rx="27" ry="18"/>
</g>
<!-- v0&#45;&gt;c11 -->
<g id="edge13" class="edge">
<title>v0:e&#45;&gt;c11:w</title>
<path fill="none" stroke="black" d="M651.25,-96.5C669.72,-96.5 676.15,-102.67 690.49,-104.79"/>
<polygon fill="black" stroke="black" points="690.39,-108.3 700.61,-105.5 690.88,-101.31 690.39,-108.3"/>
</g>
<!-- x7&#45;&gt;n4 -->
<g id="edge22" class="edge">
<title>x7:e&#45;&gt;n4:w</title>
<path fill="none" stroke="black" stroke-width="3" d="M419.5,-392.5C435.77,-392.5 442.22,-392.5 454.66,-392.5"/>
<polygon fill="black" stroke="black" stroke-width="3" points="455,-396 465,-392.5 455,-389 455,-396"/>
</g>
</g>
</svg>
