<svg xmlns="http://www.w3.org/2000/svg" xmlns:xlink="http://www.w3.org/1999/xlink" xmlns:s="https://github.com/nturley/netlistsvg" width="594" height="210.5">
  <style>svg {
    stroke:#000;
    fill:none;
  }
  text {
    fill:#000;
    stroke:none;
    font-size:10px;
    font-weight: bold;
    font-family: "Courier New", monospace;
  }
  .nodelabel {
    text-anchor: middle;
  }
  .inputPortLabel {
    text-anchor: end;
  }
  .splitjoinBody {
    fill:#000;
  }</style>
  <g s:type="not" transform="translate(77,112.5)" s:width="30" s:height="20" id="cell_$not$top_module.v:19$1">
    <s:alias val="$_NOT_"/>
    <s:alias val="$not"/>
    <s:alias val="$logic_not"/>
    <path d="M0,0 L0,20 L20,10 Z" class="cell_$not$top_module.v:19$1"/>
    <circle cx="23" cy="10" r="3" class="cell_$not$top_module.v:19$1"/>
    <g s:x="0" s:y="10" s:pid="A"/>
    <g s:x="25" s:y="10" s:pid="Y"/>
  </g>
  <g s:type="mux" transform="translate(145.33333333333334,91.5)" s:width="20" s:height="40" id="cell_$ternary$top_module.v:19$2">
    <s:alias val="$pmux"/>
    <s:alias val="$mux"/>
    <s:alias val="$_MUX_"/>
    <path d="M0,0 L20,10 L20,30 L0,40 Z" class="cell_$ternary$top_module.v:19$2"/>
    <g s:x="0" s:y="10" s:pid="A"/>
    <g s:x="0" s:y="30" s:pid="B"/>
    <g s:x="10" s:y="35" s:pid="S"/>
    <g s:x="20" s:y="20" s:pid="Y"/>
  </g>
  <g s:type="generic" transform="translate(291,71)" s:width="30" s:height="40" id="cell_a1">
    <text x="15" y="-4" class="nodelabel cell_a1" s:attribute="ref">add16</text>
    <rect width="30" height="60" s:generic="body" class="cell_a1"/>
    <g transform="translate(0,10)" s:x="0" s:y="10" s:pid="in0" id="port_a1~a">
      <text x="-3" y="-4" class="inputPortLabel cell_a1">a</text>
    </g>
    <g transform="translate(0,30)" s:x="0" s:y="10" s:pid="in0" id="port_a1~b">
      <text x="-3" y="-4" class="inputPortLabel cell_a1">b</text>
    </g>
    <g transform="translate(0,50)" s:x="0" s:y="10" s:pid="in0" id="port_a1~cin">
      <text x="-3" y="-4" class="inputPortLabel cell_a1">cin</text>
    </g>
    <g transform="translate(30,10)" s:x="30" s:y="10" s:pid="out0" id="port_a1~cout">
      <text x="5" y="-4" style="fill:#000; stroke:none" class="cell_a1">cout</text>
    </g>
    <g transform="translate(30,30)" s:x="30" s:y="10" s:pid="out0" id="port_a1~sum">
      <text x="5" y="-4" style="fill:#000; stroke:none" class="cell_a1">sum</text>
    </g>
  </g>
  <g s:type="generic" transform="translate(401,122.5)" s:width="30" s:height="40" id="cell_a2">
    <text x="15" y="-4" class="nodelabel cell_a2" s:attribute="ref">add16</text>
    <rect width="30" height="60" s:generic="body" class="cell_a2"/>
    <g transform="translate(0,10)" s:x="0" s:y="10" s:pid="in0" id="port_a2~a">
      <text x="-3" y="-4" class="inputPortLabel cell_a2">a</text>
    </g>
    <g transform="translate(0,30)" s:x="0" s:y="10" s:pid="in0" id="port_a2~b">
      <text x="-3" y="-4" class="inputPortLabel cell_a2">b</text>
    </g>
    <g transform="translate(0,50)" s:x="0" s:y="10" s:pid="in0" id="port_a2~cin">
      <text x="-3" y="-4" class="inputPortLabel cell_a2">cin</text>
    </g>
    <g transform="translate(30,10)" s:x="30" s:y="10" s:pid="out0" id="port_a2~sum">
      <text x="5" y="-4" style="fill:#000; stroke:none" class="cell_a2">sum</text>
    </g>
  </g>
  <g s:type="inputExt" transform="translate(142,24.5)" s:width="30" s:height="20" id="cell_a">
    <text x="15" y="-4" class="nodelabel cell_a" s:attribute="ref">a</text>
    <s:alias val="$_inputExt_"/>
    <path d="M0,0 L0,20 L15,20 L30,10 L15,0 Z" class="cell_a"/>
    <g s:x="28" s:y="10" s:pid="Y"/>
  </g>
  <g s:type="inputExt" transform="translate(12,91.5)" s:width="30" s:height="20" id="cell_b">
    <text x="15" y="-4" class="nodelabel cell_b" s:attribute="ref">b</text>
    <s:alias val="$_inputExt_"/>
    <path d="M0,0 L0,20 L15,20 L30,10 L15,0 Z" class="cell_b"/>
    <g s:x="28" s:y="10" s:pid="Y"/>
  </g>
  <g s:type="inputExt" transform="translate(77,177.5)" s:width="30" s:height="20" id="cell_sub">
    <text x="15" y="-4" class="nodelabel cell_sub" s:attribute="ref">sub</text>
    <s:alias val="$_inputExt_"/>
    <path d="M0,0 L0,20 L15,20 L30,10 L15,0 Z" class="cell_sub"/>
    <g s:x="28" s:y="10" s:pid="Y"/>
  </g>
  <g s:type="outputExt" transform="translate(552,101.5)" s:width="30" s:height="20" id="cell_sum">
    <text x="15" y="-4" class="nodelabel cell_sum" s:attribute="ref">sum</text>
    <s:alias val="$_outputExt_"/>
    <path d="M30,0 L30,20 L15,20 L0,10 L15,0 Z" class="cell_sum"/>
    <g s:x="0" s:y="10" s:pid="A"/>
  </g>
  <g s:type="join" transform="translate(511,91)" s:width="4" s:height="40" id="cell_$join$,67,68,69,70,71,72,73,74,75,76,77,78,79,80,81,82,83,84,85,86,87,88,89,90,91,92,93,94,95,96,97,98,">
    <rect width="5" height="40" class="splitjoinBody" s:generic="body"/>
    <s:alias val="$_join_"/>
    <g s:x="5" s:y="20" s:pid="out"/>
    <g transform="translate(0,10)" s:x="0" s:y="10" s:pid="in0">
      <text x="-3" y="-4" class="inputPortLabel">0:15</text>
    </g>
    <g transform="translate(0,30)" s:x="0" s:y="10" s:pid="in0">
      <text x="-3" y="-4" class="inputPortLabel">16:31</text>
    </g>
  </g>
  <g s:type="split" transform="translate(207,14)" s:width="5" s:height="40" id="cell_$split$,2,3,4,5,6,7,8,9,10,11,12,13,14,15,16,17,18,19,20,21,22,23,24,25,26,27,28,29,30,31,32,33,">
    <rect width="5" height="40" class="splitjoinBody" s:generic="body"/>
    <s:alias val="$_split_"/>
    <g s:x="0" s:y="20" s:pid="in"/>
    <g transform="translate(4,10)" s:x="4" s:y="10" s:pid="out0">
      <text x="5" y="-4">0:15</text>
    </g>
    <g transform="translate(4,30)" s:x="4" s:y="10" s:pid="out0">
      <text x="5" y="-4">16:31</text>
    </g>
  </g>
  <g s:type="split" transform="translate(207,91)" s:width="5" s:height="40" id="cell_$split$,131,132,133,134,135,136,137,138,139,140,141,142,143,144,145,146,147,148,149,150,151,152,153,154,155,156,157,158,159,160,161,162,">
    <rect width="5" height="40" class="splitjoinBody" s:generic="body"/>
    <s:alias val="$_split_"/>
    <g s:x="0" s:y="20" s:pid="in"/>
    <g transform="translate(4,10)" s:x="4" s:y="10" s:pid="out0">
      <text x="5" y="-4">0:15</text>
    </g>
    <g transform="translate(4,30)" s:x="4" s:y="10" s:pid="out0">
      <text x="5" y="-4">16:31</text>
    </g>
  </g>
  <line x1="40" x2="52" y1="101.5" y2="101.5" class="net_34,35,36,37,38,39,40,41,42,43,44,45,46,47,48,49,50,51,52,53,54,55,56,57,58,59,60,61,62,63,64,65"/>
  <line x1="52" x2="52" y1="101.5" y2="122.5" class="net_34,35,36,37,38,39,40,41,42,43,44,45,46,47,48,49,50,51,52,53,54,55,56,57,58,59,60,61,62,63,64,65"/>
  <circle cx="52" cy="101.5" r="2" style="fill:#000" class="net_34,35,36,37,38,39,40,41,42,43,44,45,46,47,48,49,50,51,52,53,54,55,56,57,58,59,60,61,62,63,64,65"/>
  <line x1="52" x2="77" y1="122.5" y2="122.5" class="net_34,35,36,37,38,39,40,41,42,43,44,45,46,47,48,49,50,51,52,53,54,55,56,57,58,59,60,61,62,63,64,65"/>
  <line x1="40" x2="145.33333333333334" y1="101.5" y2="101.5" class="net_34,35,36,37,38,39,40,41,42,43,44,45,46,47,48,49,50,51,52,53,54,55,56,57,58,59,60,61,62,63,64,65"/>
  <line x1="102" x2="117" y1="122.5" y2="122.5" class="net_99,100,101,102,103,104,105,106,107,108,109,110,111,112,113,114,115,116,117,118,119,120,121,122,123,124,125,126,127,128,129,130"/>
  <line x1="117" x2="117" y1="122.5" y2="121.5" class="net_99,100,101,102,103,104,105,106,107,108,109,110,111,112,113,114,115,116,117,118,119,120,121,122,123,124,125,126,127,128,129,130"/>
  <line x1="117" x2="145.33333333333334" y1="121.5" y2="121.5" class="net_99,100,101,102,103,104,105,106,107,108,109,110,111,112,113,114,115,116,117,118,119,120,121,122,123,124,125,126,127,128,129,130"/>
  <line x1="105" x2="155.33333333333334" y1="187.5" y2="187.5" class="net_66"/>
  <line x1="155.33333333333334" x2="155.33333333333334" y1="187.5" y2="126.5" class="net_66"/>
  <line x1="105" x2="117" y1="187.5" y2="187.5" class="net_66"/>
  <line x1="117" x2="117" y1="187.5" y2="197.5" class="net_66"/>
  <line x1="117" x2="257" y1="197.5" y2="197.5" class="net_66"/>
  <line x1="257" x2="257" y1="197.5" y2="121.5" class="net_66"/>
  <circle cx="117" cy="187.5" r="2" style="fill:#000" class="net_66"/>
  <line x1="257" x2="291" y1="121.5" y2="121.5" class="net_66"/>
  <line x1="212" x2="247" y1="24.5" y2="24.5" class="net_2,3,4,5,6,7,8,9,10,11,12,13,14,15,16,17"/>
  <line x1="247" x2="247" y1="24.5" y2="81.5" class="net_2,3,4,5,6,7,8,9,10,11,12,13,14,15,16,17"/>
  <line x1="247" x2="291" y1="81.5" y2="81.5" class="net_2,3,4,5,6,7,8,9,10,11,12,13,14,15,16,17"/>
  <line x1="212" x2="291" y1="101.5" y2="101.5" class="net_131,132,133,134,135,136,137,138,139,140,141,142,143,144,145,146"/>
  <line x1="212" x2="367" y1="44.5" y2="44.5" class="net_18,19,20,21,22,23,24,25,26,27,28,29,30,31,32,33"/>
  <line x1="367" x2="367" y1="44.5" y2="133" class="net_18,19,20,21,22,23,24,25,26,27,28,29,30,31,32,33"/>
  <line x1="367" x2="401" y1="133" y2="133" class="net_18,19,20,21,22,23,24,25,26,27,28,29,30,31,32,33"/>
  <line x1="212" x2="247" y1="121.5" y2="121.5" class="net_147,148,149,150,151,152,153,154,155,156,157,158,159,160,161,162"/>
  <line x1="247" x2="247" y1="121.5" y2="144" class="net_147,148,149,150,151,152,153,154,155,156,157,158,159,160,161,162"/>
  <line x1="247" x2="367" y1="144" y2="144" class="net_147,148,149,150,151,152,153,154,155,156,157,158,159,160,161,162"/>
  <line x1="367" x2="367" y1="144" y2="153" class="net_147,148,149,150,151,152,153,154,155,156,157,158,159,160,161,162"/>
  <line x1="367" x2="401" y1="153" y2="153" class="net_147,148,149,150,151,152,153,154,155,156,157,158,159,160,161,162"/>
  <line x1="322" x2="357" y1="81.5" y2="81.5" class="net_163"/>
  <line x1="357" x2="357" y1="81.5" y2="173" class="net_163"/>
  <line x1="357" x2="401" y1="173" y2="173" class="net_163"/>
  <line x1="517" x2="552" y1="111.5" y2="111.5" class="net_67,68,69,70,71,72,73,74,75,76,77,78,79,80,81,82,83,84,85,86,87,88,89,90,91,92,93,94,95,96,97,98"/>
  <line x1="322" x2="511" y1="101.5" y2="101.5" class="net_67,68,69,70,71,72,73,74,75,76,77,78,79,80,81,82"/>
  <line x1="432" x2="461" y1="133" y2="133" class="net_83,84,85,86,87,88,89,90,91,92,93,94,95,96,97,98"/>
  <line x1="461" x2="461" y1="133" y2="121.5" class="net_83,84,85,86,87,88,89,90,91,92,93,94,95,96,97,98"/>
  <line x1="461" x2="511" y1="121.5" y2="121.5" class="net_83,84,85,86,87,88,89,90,91,92,93,94,95,96,97,98"/>
  <line x1="170" x2="207" y1="34.5" y2="34.5" class="net_2,3,4,5,6,7,8,9,10,11,12,13,14,15,16,17,18,19,20,21,22,23,24,25,26,27,28,29,30,31,32,33"/>
  <line x1="165.33333333333334" x2="207" y1="111.5" y2="111.5" class="net_131,132,133,134,135,136,137,138,139,140,141,142,143,144,145,146,147,148,149,150,151,152,153,154,155,156,157,158,159,160,161,162"/>
</svg>
