<?xml version="1.0" encoding="UTF-8" standalone="no"?>
<!DOCTYPE svg PUBLIC "-//W3C//DTD SVG 1.1//EN"
 "http://www.w3.org/Graphics/SVG/1.1/DTD/svg11.dtd">
<!-- Generated by graphviz version 4.0.0 (20220529.0937)
 -->
<!-- Title: blocking Pages: 1 -->
<svg width="535pt" height="121pt"
 viewBox="0.00 0.00 535.40 121.00" xmlns="http://www.w3.org/2000/svg" xmlns:xlink="http://www.w3.org/1999/xlink">
<g id="graph0" class="graph" transform="scale(1 1) rotate(0) translate(4 117)">
<title>blocking</title>
<polygon fill="white" stroke="transparent" points="-4,4 -4,-117 531.4,-117 531.4,4 -4,4"/>
<text text-anchor="middle" x="263.7" y="-7.8" font-family="Times New Roman,serif" font-size="14.00">blocking</text>
<!-- n1 -->
<g id="node1" class="node">
<title>n1</title>
<polygon fill="none" stroke="black" points="61.86,-33.54 61.86,-48.46 43.76,-59 18.15,-59 0.05,-48.46 0.05,-33.54 18.15,-23 43.76,-23 61.86,-33.54"/>
<text text-anchor="middle" x="30.95" y="-37.3" font-family="Times New Roman,serif" font-size="14.00">BUT</text>
</g>
<!-- c10 -->
<g id="node4" class="node">
<title>c10</title>
<polygon fill="none" stroke="black" points="97.91,-45 97.91,-91 208.91,-91 208.91,-45 97.91,-45"/>
<text text-anchor="middle" x="119.91" y="-75.8" font-family="Times New Roman,serif" font-size="14.00">CLK</text>
<polyline fill="none" stroke="black" points="97.91,-68 141.91,-68 "/>
<text text-anchor="middle" x="119.91" y="-52.8" font-family="Times New Roman,serif" font-size="14.00">D</text>
<polyline fill="none" stroke="black" points="141.91,-45 141.91,-91 "/>
<text text-anchor="middle" x="161.91" y="-71.8" font-family="Times New Roman,serif" font-size="14.00">$10</text>
<text text-anchor="middle" x="161.91" y="-56.8" font-family="Times New Roman,serif" font-size="14.00">$dff</text>
<polyline fill="none" stroke="black" points="181.91,-45 181.91,-91 "/>
<text text-anchor="middle" x="195.41" y="-64.3" font-family="Times New Roman,serif" font-size="14.00">Q</text>
</g>
<!-- n1&#45;&gt;c10 -->
<g id="edge1" class="edge">
<title>n1:e&#45;&gt;c10:w</title>
<path fill="none" stroke="#66a61e" d="M61.91,-41C75.18,-41 79.07,-49.79 87.94,-53.91"/>
<polygon fill="#66a61e" stroke="#66a61e" points="87.4,-57.38 97.91,-56 88.84,-50.53 87.4,-57.38"/>
</g>
<!-- n2 -->
<g id="node2" class="node">
<title>n2</title>
<polygon fill="none" stroke="black" points="61.86,-87.54 61.86,-102.46 43.76,-113 18.15,-113 0.05,-102.46 0.05,-87.54 18.15,-77 43.76,-77 61.86,-87.54"/>
<text text-anchor="middle" x="30.95" y="-91.3" font-family="Times New Roman,serif" font-size="14.00">CLK</text>
</g>
<!-- n2&#45;&gt;c10 -->
<g id="edge2" class="edge">
<title>n2:e&#45;&gt;c10:w</title>
<path fill="none" stroke="#1b9e77" d="M61.91,-95C75.18,-95 79.07,-86.21 87.94,-82.09"/>
<polygon fill="#1b9e77" stroke="#1b9e77" points="88.84,-85.47 97.91,-80 87.4,-78.62 88.84,-85.47"/>
</g>
<!-- n3 -->
<g id="node3" class="node">
<title>n3</title>
<polygon fill="none" stroke="black" points="527.15,-60.54 527.15,-75.46 509.57,-86 484.72,-86 467.14,-75.46 467.14,-60.54 484.72,-50 509.57,-50 527.15,-60.54"/>
<text text-anchor="middle" x="497.15" y="-64.3" font-family="Times New Roman,serif" font-size="14.00">LED</text>
</g>
<!-- n4 -->
<g id="node5" class="node">
<title>n4</title>
<polygon fill="none" stroke="black" points="273.4,-86 244.91,-68 273.4,-50 301.89,-68 273.4,-86"/>
<text text-anchor="middle" x="273.4" y="-64.3" font-family="Times New Roman,serif" font-size="14.00">b3</text>
</g>
<!-- c10&#45;&gt;n4 -->
<g id="edge5" class="edge">
<title>c10:e&#45;&gt;n4:w</title>
<path fill="none" stroke="#7570b3" d="M208.91,-68C220.91,-68 226.16,-68 234.78,-68"/>
<polygon fill="#7570b3" stroke="#7570b3" points="234.91,-71.5 244.91,-68 234.91,-64.5 234.91,-71.5"/>
</g>
<!-- c7 -->
<g id="node6" class="node">
<title>c7</title>
<polygon fill="none" stroke="black" points="337.9,-49 337.9,-87 430.9,-87 430.9,-49 337.9,-49"/>
<text text-anchor="middle" x="350.9" y="-64.3" font-family="Times New Roman,serif" font-size="14.00">A</text>
<polyline fill="none" stroke="black" points="363.9,-49 363.9,-87 "/>
<text text-anchor="middle" x="384.4" y="-71.8" font-family="Times New Roman,serif" font-size="14.00">$2</text>
<text text-anchor="middle" x="384.4" y="-56.8" font-family="Times New Roman,serif" font-size="14.00">$not</text>
<polyline fill="none" stroke="black" points="404.9,-49 404.9,-87 "/>
<text text-anchor="middle" x="417.9" y="-64.3" font-family="Times New Roman,serif" font-size="14.00">Y</text>
</g>
<!-- n4&#45;&gt;c7 -->
<g id="edge3" class="edge">
<title>n4:e&#45;&gt;c7:w</title>
<path fill="none" stroke="#7570b3" d="M301.9,-68C313.9,-68 319.15,-68 327.77,-68"/>
<polygon fill="#7570b3" stroke="#7570b3" points="327.9,-71.5 337.9,-68 327.9,-64.5 327.9,-71.5"/>
</g>
<!-- c7&#45;&gt;n3 -->
<g id="edge4" class="edge">
<title>c7:e&#45;&gt;n3:w</title>
<path fill="none" stroke="#1b9e77" d="M430.9,-68C442.9,-68 448.15,-68 456.77,-68"/>
<polygon fill="#1b9e77" stroke="#1b9e77" points="456.9,-71.5 466.9,-68 456.9,-64.5 456.9,-71.5"/>
</g>
</g>
</svg>
