<?xml version="1.0" encoding="UTF-8" standalone="no"?>
<!DOCTYPE svg PUBLIC "-//W3C//DTD SVG 1.1//EN"
 "http://www.w3.org/Graphics/SVG/1.1/DTD/svg11.dtd">
<!-- Generated by graphviz version 4.0.0 (20220529.0937)
 -->
<!-- Title: top Pages: 1 -->
<svg width="395pt" height="143pt"
 viewBox="0.00 0.00 395.11 143.00" xmlns="http://www.w3.org/2000/svg" xmlns:xlink="http://www.w3.org/1999/xlink">
<g id="graph0" class="graph" transform="scale(1 1) rotate(0) translate(4 139)">
<title>top</title>
<polygon fill="white" stroke="transparent" points="-4,4 -4,-139 391.11,-139 391.11,4 -4,4"/>
<text text-anchor="middle" x="193.55" y="-7.8" font-family="Times New Roman,serif" font-size="14.00">top</text>
<!-- n1 -->
<g id="node1" class="node">
<title>n1</title>
<polygon fill="none" stroke="black" points="71.63,-107.04 71.63,-121.96 50.69,-132.5 21.07,-132.5 0.12,-121.96 0.12,-107.04 21.07,-96.5 50.69,-96.5 71.63,-107.04"/>
<text text-anchor="middle" x="35.88" y="-110.8" font-family="Times New Roman,serif" font-size="14.00">BUT1</text>
</g>
<!-- c7 -->
<g id="node5" class="node">
<title>c7</title>
<polygon fill="none" stroke="black" points="118.26,-88.5 118.26,-134.5 270.26,-134.5 270.26,-88.5 118.26,-88.5"/>
<text text-anchor="middle" x="140.26" y="-119.3" font-family="Times New Roman,serif" font-size="14.00">BUT</text>
<polyline fill="none" stroke="black" points="118.26,-111.5 162.26,-111.5 "/>
<text text-anchor="middle" x="140.26" y="-96.3" font-family="Times New Roman,serif" font-size="14.00">CLK</text>
<polyline fill="none" stroke="black" points="162.26,-88.5 162.26,-134.5 "/>
<text text-anchor="middle" x="194.76" y="-115.3" font-family="Times New Roman,serif" font-size="14.00">blk1</text>
<text text-anchor="middle" x="194.76" y="-100.3" font-family="Times New Roman,serif" font-size="14.00">blocking</text>
<polyline fill="none" stroke="black" points="227.26,-88.5 227.26,-134.5 "/>
<text text-anchor="middle" x="248.76" y="-107.8" font-family="Times New Roman,serif" font-size="14.00">LED</text>
</g>
<!-- n1&#45;&gt;c7 -->
<g id="edge1" class="edge">
<title>n1:e&#45;&gt;c7:w</title>
<path fill="none" stroke="#e6ab02" d="M71.76,-114.5C88.51,-114.5 94.47,-120.44 107.17,-122.67"/>
<polygon fill="#e6ab02" stroke="#e6ab02" points="107,-126.17 117.26,-123.5 107.58,-119.19 107,-126.17"/>
</g>
<!-- c8 -->
<g id="node6" class="node">
<title>c8</title>
<polygon fill="none" stroke="black" points="107.76,-23.5 107.76,-69.5 280.76,-69.5 280.76,-23.5 107.76,-23.5"/>
<text text-anchor="middle" x="129.76" y="-54.3" font-family="Times New Roman,serif" font-size="14.00">BUT</text>
<polyline fill="none" stroke="black" points="107.76,-46.5 151.76,-46.5 "/>
<text text-anchor="middle" x="129.76" y="-31.3" font-family="Times New Roman,serif" font-size="14.00">CLK</text>
<polyline fill="none" stroke="black" points="151.76,-23.5 151.76,-69.5 "/>
<text text-anchor="middle" x="194.76" y="-50.3" font-family="Times New Roman,serif" font-size="14.00">nblk1</text>
<text text-anchor="middle" x="194.76" y="-35.3" font-family="Times New Roman,serif" font-size="14.00">nonblocking</text>
<polyline fill="none" stroke="black" points="237.76,-23.5 237.76,-69.5 "/>
<text text-anchor="middle" x="259.26" y="-42.8" font-family="Times New Roman,serif" font-size="14.00">LED</text>
</g>
<!-- n1&#45;&gt;c8 -->
<g id="edge2" class="edge">
<title>n1:e&#45;&gt;c8:w</title>
<path fill="none" stroke="#e6ab02" d="M71.76,-114.5C97.18,-114.5 83.64,-73.14 98.11,-61.51"/>
<polygon fill="#e6ab02" stroke="#e6ab02" points="99.25,-64.82 107.76,-58.5 97.17,-58.14 99.25,-64.82"/>
</g>
<!-- n2 -->
<g id="node2" class="node">
<title>n2</title>
<polygon fill="none" stroke="black" points="66.79,-36.04 66.79,-50.96 48.68,-61.5 23.08,-61.5 4.97,-50.96 4.97,-36.04 23.08,-25.5 48.68,-25.5 66.79,-36.04"/>
<text text-anchor="middle" x="35.88" y="-39.8" font-family="Times New Roman,serif" font-size="14.00">CLK</text>
</g>
<!-- n2&#45;&gt;c7 -->
<g id="edge3" class="edge">
<title>n2:e&#45;&gt;c7:w</title>
<path fill="none" stroke="#e6ab02" d="M67.88,-43.5C97.04,-43.5 87.45,-86.76 107.23,-97.24"/>
<polygon fill="#e6ab02" stroke="#e6ab02" points="106.73,-100.71 117.26,-99.5 108.27,-93.88 106.73,-100.71"/>
</g>
<!-- n2&#45;&gt;c8 -->
<g id="edge4" class="edge">
<title>n2:e&#45;&gt;c8:w</title>
<path fill="none" stroke="#e6ab02" d="M67.88,-43.5C82.07,-43.5 87.34,-38.01 97.63,-35.6"/>
<polygon fill="#e6ab02" stroke="#e6ab02" points="98.19,-39.06 107.76,-34.5 97.44,-32.1 98.19,-39.06"/>
</g>
<!-- n3 -->
<g id="node3" class="node">
<title>n3</title>
<polygon fill="none" stroke="black" points="387.28,-104.04 387.28,-118.96 366.57,-129.5 337.29,-129.5 316.58,-118.96 316.58,-104.04 337.29,-93.5 366.57,-93.5 387.28,-104.04"/>
<text text-anchor="middle" x="351.93" y="-107.8" font-family="Times New Roman,serif" font-size="14.00">LED1</text>
</g>
<!-- n4 -->
<g id="node4" class="node">
<title>n4</title>
<polygon fill="none" stroke="black" points="387.28,-39.04 387.28,-53.96 366.57,-64.5 337.29,-64.5 316.58,-53.96 316.58,-39.04 337.29,-28.5 366.57,-28.5 387.28,-39.04"/>
<text text-anchor="middle" x="351.93" y="-42.8" font-family="Times New Roman,serif" font-size="14.00">LED2</text>
</g>
<!-- c7&#45;&gt;n3 -->
<g id="edge5" class="edge">
<title>c7:e&#45;&gt;n3:w</title>
<path fill="none" stroke="#d95f02" d="M271.26,-111.5C287.53,-111.5 293.98,-111.5 306.42,-111.5"/>
<polygon fill="#d95f02" stroke="#d95f02" points="306.76,-115 316.76,-111.5 306.76,-108 306.76,-115"/>
</g>
<!-- c8&#45;&gt;n4 -->
<g id="edge6" class="edge">
<title>c8:e&#45;&gt;n4:w</title>
<path fill="none" stroke="#d95f02" d="M280.76,-46.5C292.76,-46.5 298.01,-46.5 306.63,-46.5"/>
<polygon fill="#d95f02" stroke="#d95f02" points="306.76,-50 316.76,-46.5 306.76,-43 306.76,-50"/>
</g>
</g>
</svg>
