<?xml version="1.0" encoding="UTF-8" standalone="no"?>
<!DOCTYPE svg PUBLIC "-//W3C//DTD SVG 1.1//EN"
 "http://www.w3.org/Graphics/SVG/1.1/DTD/svg11.dtd">
<!-- Generated by graphviz version 4.0.0 (20220529.0937)
 -->
<!-- Title: root Pages: 1 -->
<svg width="690pt" height="496pt"
 viewBox="0.00 0.00 689.74 496.00" xmlns="http://www.w3.org/2000/svg" xmlns:xlink="http://www.w3.org/1999/xlink">
<g id="graph0" class="graph" transform="scale(1 1) rotate(0) translate(4 492)">
<title>root</title>
<polygon fill="white" stroke="transparent" points="-4,4 -4,-492 685.74,-492 685.74,4 -4,4"/>
<!-- n9 -->
<g id="node1" class="node">
<title>n9</title>
<polygon fill="none" stroke="black" points="66.79,-91.54 66.79,-106.46 48.68,-117 23.08,-117 4.97,-106.46 4.97,-91.54 23.08,-81 48.68,-81 66.79,-91.54"/>
<text text-anchor="middle" x="35.88" y="-95.3" font-family="Times New Roman,serif" font-size="14.00">BUT</text>
</g>
<!-- p0 -->
<g id="node7" class="node">
<title>p0</title>
<path fill="none" stroke="black" d="M214.26,-91C214.26,-91 137.26,-91 137.26,-91 131.26,-91 125.26,-85 125.26,-79 125.26,-79 125.26,-65 125.26,-65 125.26,-59 131.26,-53 137.26,-53 137.26,-53 214.26,-53 214.26,-53 220.26,-53 226.26,-59 226.26,-65 226.26,-65 226.26,-79 226.26,-79 226.26,-85 220.26,-91 214.26,-91"/>
<text text-anchor="middle" x="175.76" y="-75.8" font-family="Times New Roman,serif" font-size="14.00">PROC $3</text>
<text text-anchor="middle" x="175.76" y="-60.8" font-family="Times New Roman,serif" font-size="14.00">top.v:64.3&#45;68.6</text>
</g>
<!-- n9&#45;&gt;p0 -->
<g id="edge4" class="edge">
<title>n9:e&#45;&gt;p0:w</title>
<path fill="none" stroke="#1b9e77" d="M67.88,-99C91.58,-99 95.44,-79.06 113.56,-73.45"/>
<polygon fill="#1b9e77" stroke="#1b9e77" points="114.35,-76.88 123.76,-72 113.36,-69.95 114.35,-76.88"/>
</g>
<!-- n10 -->
<g id="node2" class="node">
<title>n10</title>
<polygon fill="none" stroke="black" points="66.79,-37.54 66.79,-52.46 48.68,-63 23.08,-63 4.97,-52.46 4.97,-37.54 23.08,-27 48.68,-27 66.79,-37.54"/>
<text text-anchor="middle" x="35.88" y="-41.3" font-family="Times New Roman,serif" font-size="14.00">CLK</text>
</g>
<!-- n10&#45;&gt;p0 -->
<g id="edge5" class="edge">
<title>n10:e&#45;&gt;p0:w</title>
<path fill="none" stroke="#1b9e77" d="M67.88,-45C91.58,-45 95.44,-64.94 113.56,-70.55"/>
<polygon fill="#1b9e77" stroke="#1b9e77" points="113.36,-74.05 123.76,-72 114.35,-67.12 113.36,-74.05"/>
</g>
<!-- n8 -->
<g id="node3" class="node">
<title>n8</title>
<polygon fill="none" stroke="black" points="669.79,-64.54 669.79,-79.46 652.21,-90 627.36,-90 609.78,-79.46 609.78,-64.54 627.36,-54 652.21,-54 669.79,-64.54"/>
<text text-anchor="middle" x="639.79" y="-68.3" font-family="Times New Roman,serif" font-size="14.00">LED</text>
</g>
<!-- n5 -->
<g id="node4" class="node">
<title>n5</title>
<polygon fill="none" stroke="black" points="314.68,-90 279.83,-72 314.68,-54 349.54,-72 314.68,-90"/>
<text text-anchor="middle" x="314.68" y="-68.3" font-family="Times New Roman,serif" font-size="14.00">nb3</text>
</g>
<!-- c13 -->
<g id="node5" class="node">
<title>c13</title>
<polygon fill="none" stroke="black" points="385.61,-53 385.61,-91 478.61,-91 478.61,-53 385.61,-53"/>
<text text-anchor="middle" x="398.61" y="-68.3" font-family="Times New Roman,serif" font-size="14.00">A</text>
<polyline fill="none" stroke="black" points="411.61,-53 411.61,-91 "/>
<text text-anchor="middle" x="432.11" y="-75.8" font-family="Times New Roman,serif" font-size="14.00">$4</text>
<text text-anchor="middle" x="432.11" y="-60.8" font-family="Times New Roman,serif" font-size="14.00">$not</text>
<polyline fill="none" stroke="black" points="452.61,-53 452.61,-91 "/>
<text text-anchor="middle" x="465.61" y="-68.3" font-family="Times New Roman,serif" font-size="14.00">Y</text>
</g>
<!-- n5&#45;&gt;c13 -->
<g id="edge1" class="edge">
<title>n5:e&#45;&gt;c13:w</title>
<path fill="none" stroke="#e7298a" d="M349.61,-72C361.61,-72 366.86,-72 375.49,-72"/>
<polygon fill="#e7298a" stroke="#e7298a" points="375.61,-75.5 385.61,-72 375.61,-68.5 375.61,-75.5"/>
</g>
<!-- x1 -->
<g id="node9" class="node">
<title>x1</title>
<path fill="none" stroke="black" d="M556.61,-90C556.61,-90 526.61,-90 526.61,-90 520.61,-90 514.61,-84 514.61,-78 514.61,-78 514.61,-66 514.61,-66 514.61,-60 520.61,-54 526.61,-54 526.61,-54 556.61,-54 556.61,-54 562.61,-54 568.61,-60 568.61,-66 568.61,-66 568.61,-78 568.61,-78 568.61,-84 562.61,-90 556.61,-90"/>
<text text-anchor="middle" x="541.61" y="-68.3" font-family="Times New Roman,serif" font-size="14.00">BUF</text>
</g>
<!-- c13&#45;&gt;x1 -->
<g id="edge6" class="edge">
<title>c13:e&#45;&gt;x1:w</title>
<path fill="none" stroke="#66a61e" d="M478.61,-72C490.61,-72 495.86,-72 504.49,-72"/>
<polygon fill="#66a61e" stroke="#66a61e" points="504.61,-75.5 514.61,-72 504.61,-68.5 504.61,-75.5"/>
</g>
<!-- n6 -->
<g id="node6" class="node">
<title>n6</title>
<polygon fill="none" stroke="black" points="314.68,-144 279.83,-126 314.68,-108 349.54,-126 314.68,-144"/>
<text text-anchor="middle" x="314.68" y="-122.3" font-family="Times New Roman,serif" font-size="14.00">nb2</text>
</g>
<!-- n6&#45;&gt;p0 -->
<g id="edge2" class="edge">
<title>n6:e&#45;&gt;p0:w</title>
<path fill="none" stroke="#7570b3" d="M350.68,-126C358.7,-126 355.5,-138.49 349.68,-144 338.4,-154.68 295.09,-146.55 279.76,-144 207.94,-132.06 168.64,-149.09 124.76,-91 122.69,-88.26 120.74,-84.61 119.72,-81.24"/>
<polygon fill="#7570b3" stroke="#7570b3" points="122.96,-82.56 123.76,-72 116.55,-79.76 122.96,-82.56"/>
</g>
<!-- p0&#45;&gt;n5 -->
<g id="edge7" class="edge">
<title>p0:e&#45;&gt;n5:w</title>
<path fill="none" stroke="#e7298a" d="M227.76,-72C247.08,-72 254.28,-72 269.63,-72"/>
<polygon fill="#e7298a" stroke="#e7298a" points="269.76,-75.5 279.76,-72 269.76,-68.5 269.76,-75.5"/>
</g>
<!-- p0&#45;&gt;n6 -->
<g id="edge8" class="edge">
<title>p0:e&#45;&gt;n6:w</title>
<path fill="none" stroke="#7570b3" d="M227.76,-72C257.17,-72 249.21,-114.09 269.86,-123.95"/>
<polygon fill="#7570b3" stroke="#7570b3" points="269.25,-127.4 279.76,-126 270.68,-120.54 269.25,-127.4"/>
</g>
<!-- n7 -->
<g id="node8" class="node">
<title>n7</title>
<polygon fill="none" stroke="black" points="314.68,-36 279.83,-18 314.68,0 349.54,-18 314.68,-36"/>
<text text-anchor="middle" x="314.68" y="-14.3" font-family="Times New Roman,serif" font-size="14.00">nb1</text>
</g>
<!-- p0&#45;&gt;n7 -->
<g id="edge9" class="edge">
<title>p0:e&#45;&gt;n7:w</title>
<path fill="none" stroke="#d95f02" d="M227.76,-72C257.17,-72 249.21,-29.91 269.86,-20.05"/>
<polygon fill="#d95f02" stroke="#d95f02" points="270.68,-23.46 279.76,-18 269.25,-16.6 270.68,-23.46"/>
</g>
<!-- n7&#45;&gt;p0 -->
<g id="edge3" class="edge">
<title>n7:e&#45;&gt;p0:w</title>
<path fill="none" stroke="#d95f02" d="M350.68,-18C358.7,-18 355.1,-30.09 349.68,-36 339.07,-47.57 294.09,-39.59 279.76,-46 251.39,-58.69 255.45,-80.36 226.26,-91 183.87,-106.45 157.48,-122.05 124.76,-91 122.07,-88.45 119.93,-84.5 119.07,-80.85"/>
<polygon fill="#d95f02" stroke="#d95f02" points="122.17,-82.48 123.76,-72 115.99,-79.2 122.17,-82.48"/>
</g>
<!-- x1&#45;&gt;n8 -->
<g id="edge10" class="edge">
<title>x1:e&#45;&gt;n8:w</title>
<path fill="none" stroke="#1b9e77" d="M568.61,-72C582.56,-72 588.34,-72 598.71,-72"/>
<polygon fill="#1b9e77" stroke="#1b9e77" points="598.79,-75.5 608.79,-72 598.79,-68.5 598.79,-75.5"/>
</g>
<!-- n9_gv1 -->
<g id="node10" class="node">
<title>n9_gv1</title>
<polygon fill="none" stroke="black" points="66.79,-253.54 66.79,-268.46 48.68,-279 23.08,-279 4.97,-268.46 4.97,-253.54 23.08,-243 48.68,-243 66.79,-253.54"/>
<text text-anchor="middle" x="35.88" y="-257.3" font-family="Times New Roman,serif" font-size="14.00">BUT</text>
</g>
<!-- p0_gv1 -->
<g id="node17" class="node">
<title>p0_gv1</title>
<path fill="none" stroke="black" d="M214.26,-253C214.26,-253 137.26,-253 137.26,-253 131.26,-253 125.26,-247 125.26,-241 125.26,-241 125.26,-227 125.26,-227 125.26,-221 131.26,-215 137.26,-215 137.26,-215 214.26,-215 214.26,-215 220.26,-215 226.26,-221 226.26,-227 226.26,-227 226.26,-241 226.26,-241 226.26,-247 220.26,-253 214.26,-253"/>
<text text-anchor="middle" x="175.76" y="-237.8" font-family="Times New Roman,serif" font-size="14.00">PROC $1</text>
<text text-anchor="middle" x="175.76" y="-222.8" font-family="Times New Roman,serif" font-size="14.00">top.v:41.3&#45;45.6</text>
</g>
<!-- n9_gv1&#45;&gt;p0_gv1 -->
<g id="edge12" class="edge">
<title>n9_gv1:e&#45;&gt;p0_gv1:w</title>
<path fill="none" stroke="#a6761d" d="M67.88,-261C91.58,-261 95.44,-241.06 113.56,-235.45"/>
<polygon fill="#a6761d" stroke="#a6761d" points="114.35,-238.88 123.76,-234 113.36,-231.95 114.35,-238.88"/>
</g>
<!-- n10_gv1 -->
<g id="node11" class="node">
<title>n10_gv1</title>
<polygon fill="none" stroke="black" points="66.79,-199.54 66.79,-214.46 48.68,-225 23.08,-225 4.97,-214.46 4.97,-199.54 23.08,-189 48.68,-189 66.79,-199.54"/>
<text text-anchor="middle" x="35.88" y="-203.3" font-family="Times New Roman,serif" font-size="14.00">CLK</text>
</g>
<!-- n10_gv1&#45;&gt;p0_gv1 -->
<g id="edge13" class="edge">
<title>n10_gv1:e&#45;&gt;p0_gv1:w</title>
<path fill="none" stroke="#e6ab02" d="M67.88,-207C91.58,-207 95.44,-226.94 113.56,-232.55"/>
<polygon fill="#e6ab02" stroke="#e6ab02" points="113.36,-236.05 123.76,-234 114.35,-229.12 113.36,-236.05"/>
</g>
<!-- n8_gv1 -->
<g id="node12" class="node">
<title>n8_gv1</title>
<polygon fill="none" stroke="black" points="669.79,-280.54 669.79,-295.46 652.21,-306 627.36,-306 609.78,-295.46 609.78,-280.54 627.36,-270 652.21,-270 669.79,-280.54"/>
<text text-anchor="middle" x="639.79" y="-284.3" font-family="Times New Roman,serif" font-size="14.00">LED</text>
</g>
<!-- n5_gv1 -->
<g id="node13" class="node">
<title>n5_gv1</title>
<polygon fill="none" stroke="black" points="314.68,-306 286.2,-288 314.68,-270 343.17,-288 314.68,-306"/>
<text text-anchor="middle" x="314.68" y="-284.3" font-family="Times New Roman,serif" font-size="14.00">b3</text>
</g>
<!-- c13_gv1 -->
<g id="node14" class="node">
<title>c13_gv1</title>
<polygon fill="none" stroke="black" points="385.61,-269 385.61,-307 478.61,-307 478.61,-269 385.61,-269"/>
<text text-anchor="middle" x="398.61" y="-284.3" font-family="Times New Roman,serif" font-size="14.00">A</text>
<polyline fill="none" stroke="black" points="411.61,-269 411.61,-307 "/>
<text text-anchor="middle" x="432.11" y="-291.8" font-family="Times New Roman,serif" font-size="14.00">$2</text>
<text text-anchor="middle" x="432.11" y="-276.8" font-family="Times New Roman,serif" font-size="14.00">$not</text>
<polyline fill="none" stroke="black" points="452.61,-269 452.61,-307 "/>
<text text-anchor="middle" x="465.61" y="-284.3" font-family="Times New Roman,serif" font-size="14.00">Y</text>
</g>
<!-- n5_gv1&#45;&gt;c13_gv1 -->
<g id="edge11" class="edge">
<title>n5_gv1:e&#45;&gt;c13_gv1:w</title>
<path fill="none" stroke="#1b9e77" d="M344.68,-288C358.9,-288 364.78,-288 375.35,-288"/>
<polygon fill="#1b9e77" stroke="#1b9e77" points="375.61,-291.5 385.61,-288 375.61,-284.5 375.61,-291.5"/>
</g>
<!-- x1_gv1 -->
<g id="node18" class="node">
<title>x1_gv1</title>
<path fill="none" stroke="black" d="M556.61,-306C556.61,-306 526.61,-306 526.61,-306 520.61,-306 514.61,-300 514.61,-294 514.61,-294 514.61,-282 514.61,-282 514.61,-276 520.61,-270 526.61,-270 526.61,-270 556.61,-270 556.61,-270 562.61,-270 568.61,-276 568.61,-282 568.61,-282 568.61,-294 568.61,-294 568.61,-300 562.61,-306 556.61,-306"/>
<text text-anchor="middle" x="541.61" y="-284.3" font-family="Times New Roman,serif" font-size="14.00">BUF</text>
</g>
<!-- c13_gv1&#45;&gt;x1_gv1 -->
<g id="edge14" class="edge">
<title>c13_gv1:e&#45;&gt;x1_gv1:w</title>
<path fill="none" stroke="#e6ab02" d="M478.61,-288C490.61,-288 495.86,-288 504.49,-288"/>
<polygon fill="#e6ab02" stroke="#e6ab02" points="504.61,-291.5 514.61,-288 504.61,-284.5 504.61,-291.5"/>
</g>
<!-- n6_gv1 -->
<g id="node15" class="node">
<title>n6_gv1</title>
<polygon fill="none" stroke="black" points="314.68,-252 286.2,-234 314.68,-216 343.17,-234 314.68,-252"/>
<text text-anchor="middle" x="314.68" y="-230.3" font-family="Times New Roman,serif" font-size="14.00">b2</text>
</g>
<!-- n7_gv1 -->
<g id="node16" class="node">
<title>n7_gv1</title>
<polygon fill="none" stroke="black" points="314.68,-198 286.2,-180 314.68,-162 343.17,-180 314.68,-198"/>
<text text-anchor="middle" x="314.68" y="-176.3" font-family="Times New Roman,serif" font-size="14.00">b1</text>
</g>
<!-- p0_gv1&#45;&gt;n5_gv1 -->
<g id="edge15" class="edge">
<title>p0_gv1:e&#45;&gt;n5_gv1:w</title>
<path fill="none" stroke="#1b9e77" d="M227.76,-234C258.82,-234 252.04,-276.83 274.83,-286.2"/>
<polygon fill="#1b9e77" stroke="#1b9e77" points="274.22,-289.65 284.68,-288 275.47,-282.76 274.22,-289.65"/>
</g>
<!-- p0_gv1&#45;&gt;n6_gv1 -->
<g id="edge16" class="edge">
<title>p0_gv1:e&#45;&gt;n6_gv1:w</title>
<path fill="none" stroke="#1b9e77" d="M227.76,-234C249.3,-234 257.09,-234 274.55,-234"/>
<polygon fill="#1b9e77" stroke="#1b9e77" points="274.68,-237.5 284.68,-234 274.68,-230.5 274.68,-237.5"/>
</g>
<!-- p0_gv1&#45;&gt;n7_gv1 -->
<g id="edge17" class="edge">
<title>p0_gv1:e&#45;&gt;n7_gv1:w</title>
<path fill="none" stroke="#7570b3" d="M227.76,-234C258.82,-234 252.04,-191.17 274.83,-181.8"/>
<polygon fill="#7570b3" stroke="#7570b3" points="275.47,-185.24 284.68,-180 274.22,-178.35 275.47,-185.24"/>
</g>
<!-- x1_gv1&#45;&gt;n8_gv1 -->
<g id="edge18" class="edge">
<title>x1_gv1:e&#45;&gt;n8_gv1:w</title>
<path fill="none" stroke="#666666" d="M568.61,-288C582.56,-288 588.34,-288 598.71,-288"/>
<polygon fill="#666666" stroke="#666666" points="598.79,-291.5 608.79,-288 598.79,-284.5 598.79,-291.5"/>
</g>
<!-- n3 -->
<g id="node19" class="node">
<title>n3</title>
<polygon fill="none" stroke="black" points="71.63,-372.54 71.63,-387.46 50.69,-398 21.07,-398 0.12,-387.46 0.12,-372.54 21.07,-362 50.69,-362 71.63,-372.54"/>
<text text-anchor="middle" x="35.88" y="-376.3" font-family="Times New Roman,serif" font-size="14.00">BUT1</text>
</g>
<!-- c8 -->
<g id="node23" class="node">
<title>c8</title>
<polygon fill="none" stroke="black" points="107.76,-418.5 107.76,-487.5 243.76,-487.5 243.76,-418.5 107.76,-418.5"/>
<text text-anchor="middle" x="122.76" y="-472.3" font-family="Times New Roman,serif" font-size="14.00">$1</text>
<polyline fill="none" stroke="black" points="107.76,-464.5 137.76,-464.5 "/>
<text text-anchor="middle" x="122.76" y="-449.3" font-family="Times New Roman,serif" font-size="14.00">$2</text>
<polyline fill="none" stroke="black" points="107.76,-441.5 137.76,-441.5 "/>
<text text-anchor="middle" x="122.76" y="-426.3" font-family="Times New Roman,serif" font-size="14.00">$3</text>
<polyline fill="none" stroke="black" points="137.76,-418.5 137.76,-487.5 "/>
<text text-anchor="middle" x="180.76" y="-456.8" font-family="Times New Roman,serif" font-size="14.00">nblk1</text>
<text text-anchor="middle" x="180.76" y="-441.8" font-family="Times New Roman,serif" font-size="14.00">nonblocking</text>
<polyline fill="none" stroke="black" points="223.76,-418.5 223.76,-487.5 "/>
<text text-anchor="middle" x="233.76" y="-449.3" font-family="Times New Roman,serif" font-size="14.00"> </text>
</g>
<!-- n3&#45;&gt;c8 -->
<g id="edge21" class="edge">
<title>n3:e&#45;&gt;c8:w</title>
<path fill="none" stroke="#e6ab02" d="M71.76,-380C103.83,-380 78.89,-437.4 98.04,-450.4"/>
<polygon fill="#e6ab02" stroke="#e6ab02" points="97.19,-453.8 107.76,-453 99,-447.03 97.19,-453.8"/>
</g>
<!-- c9 -->
<g id="node24" class="node">
<title>c9</title>
<polygon fill="none" stroke="black" points="118.26,-330.5 118.26,-399.5 233.26,-399.5 233.26,-330.5 118.26,-330.5"/>
<text text-anchor="middle" x="133.26" y="-384.3" font-family="Times New Roman,serif" font-size="14.00">$1</text>
<polyline fill="none" stroke="black" points="118.26,-376.5 148.26,-376.5 "/>
<text text-anchor="middle" x="133.26" y="-361.3" font-family="Times New Roman,serif" font-size="14.00">$2</text>
<polyline fill="none" stroke="black" points="118.26,-353.5 148.26,-353.5 "/>
<text text-anchor="middle" x="133.26" y="-338.3" font-family="Times New Roman,serif" font-size="14.00">$3</text>
<polyline fill="none" stroke="black" points="148.26,-330.5 148.26,-399.5 "/>
<text text-anchor="middle" x="180.76" y="-368.8" font-family="Times New Roman,serif" font-size="14.00">blk1</text>
<text text-anchor="middle" x="180.76" y="-353.8" font-family="Times New Roman,serif" font-size="14.00">blocking</text>
<polyline fill="none" stroke="black" points="213.26,-330.5 213.26,-399.5 "/>
<text text-anchor="middle" x="223.26" y="-361.3" font-family="Times New Roman,serif" font-size="14.00"> </text>
</g>
<!-- n3&#45;&gt;c9 -->
<g id="edge22" class="edge">
<title>n3:e&#45;&gt;c9:w</title>
<path fill="none" stroke="#e6ab02" d="M71.76,-380C88.89,-380 93.97,-370.1 106.58,-366.38"/>
<polygon fill="#e6ab02" stroke="#e6ab02" points="107.32,-369.82 116.76,-365 106.38,-362.88 107.32,-369.82"/>
</g>
<!-- n4 -->
<g id="node20" class="node">
<title>n4</title>
<polygon fill="none" stroke="black" points="66.79,-454.54 66.79,-469.46 48.68,-480 23.08,-480 4.97,-469.46 4.97,-454.54 23.08,-444 48.68,-444 66.79,-454.54"/>
<text text-anchor="middle" x="35.88" y="-458.3" font-family="Times New Roman,serif" font-size="14.00">CLK</text>
</g>
<!-- n4&#45;&gt;c8 -->
<g id="edge23" class="edge">
<title>n4:e&#45;&gt;c8:w</title>
<path fill="none" stroke="#1b9e77" d="M67.88,-462C82.7,-462 87.26,-470.72 97.76,-474.39"/>
<polygon fill="#1b9e77" stroke="#1b9e77" points="97.33,-477.87 107.76,-476 98.44,-470.96 97.33,-477.87"/>
</g>
<!-- n4&#45;&gt;c9 -->
<g id="edge24" class="edge">
<title>n4:e&#45;&gt;c9:w</title>
<path fill="none" stroke="#1b9e77" d="M67.88,-462C103.29,-462 82.71,-402.27 106.75,-390.13"/>
<polygon fill="#1b9e77" stroke="#1b9e77" points="107.71,-393.51 116.76,-388 106.25,-386.66 107.71,-393.51"/>
</g>
<!-- n1 -->
<g id="node21" class="node">
<title>n1</title>
<polygon fill="none" stroke="black" points="675.14,-422.54 675.14,-437.46 654.43,-448 625.14,-448 604.44,-437.46 604.44,-422.54 625.14,-412 654.43,-412 675.14,-422.54"/>
<text text-anchor="middle" x="639.79" y="-426.3" font-family="Times New Roman,serif" font-size="14.00">LED2</text>
</g>
<!-- n1&#45;&gt;c8 -->
<g id="edge19" class="edge">
<title>n1:e&#45;&gt;c8:w</title>
<path fill="none" stroke="#7570b3" d="M676.79,-430C684.8,-430 681.61,-442.49 675.79,-448 652.81,-469.74 636.22,-449.31 604.61,-448 443.82,-441.33 404.55,-424.67 243.76,-418 213.56,-416.75 130,-397.54 107.76,-418 107.14,-418.57 106.56,-419.25 106.05,-420"/>
<polygon fill="#7570b3" stroke="#7570b3" points="102.56,-420.27 106.76,-430 109.54,-419.78 102.56,-420.27"/>
</g>
<!-- n2 -->
<g id="node22" class="node">
<title>n2</title>
<polygon fill="none" stroke="black" points="675.14,-334.54 675.14,-349.46 654.43,-360 625.14,-360 604.44,-349.46 604.44,-334.54 625.14,-324 654.43,-324 675.14,-334.54"/>
<text text-anchor="middle" x="639.79" y="-338.3" font-family="Times New Roman,serif" font-size="14.00">LED1</text>
</g>
<!-- n2&#45;&gt;c9 -->
<g id="edge20" class="edge">
<title>n2:e&#45;&gt;c9:w</title>
<path fill="none" stroke="#a6761d" d="M676.79,-342C684.8,-342 681.61,-354.49 675.79,-360 652.81,-381.74 636.22,-361.27 604.61,-360 439.16,-353.33 398.71,-336.67 233.26,-330 181.96,-327.93 155.53,-295.24 117.76,-330 117.14,-330.57 116.56,-331.25 116.05,-332"/>
<polygon fill="#a6761d" stroke="#a6761d" points="112.56,-332.27 116.76,-342 119.54,-331.78 112.56,-332.27"/>
</g>
</g>
</svg>
