<?xml version="1.0" encoding="UTF-8" standalone="no"?>
<!DOCTYPE svg PUBLIC "-//W3C//DTD SVG 1.1//EN"
 "http://www.w3.org/Graphics/SVG/1.1/DTD/svg11.dtd">
<!-- Generated by graphviz version 4.0.0 (20220529.0937)
 -->
<!-- Title: nonblocking Pages: 1 -->
<svg width="1054pt" height="151pt"
 viewBox="0.00 0.00 1053.98 151.00" xmlns="http://www.w3.org/2000/svg" xmlns:xlink="http://www.w3.org/1999/xlink">
<g id="graph0" class="graph" transform="scale(1 1) rotate(0) translate(4 147)">
<title>nonblocking</title>
<polygon fill="white" stroke="transparent" points="-4,4 -4,-147 1049.98,-147 1049.98,4 -4,4"/>
<text text-anchor="middle" x="522.99" y="-7.8" font-family="Times New Roman,serif" font-size="14.00">nonblocking</text>
<!-- n1 -->
<g id="node1" class="node">
<title>n1</title>
<polygon fill="none" stroke="black" points="61.86,-33.54 61.86,-48.46 43.76,-59 18.15,-59 0.05,-48.46 0.05,-33.54 18.15,-23 43.76,-23 61.86,-33.54"/>
<text text-anchor="middle" x="30.95" y="-37.3" font-family="Times New Roman,serif" font-size="14.00">BUT</text>
</g>
<!-- c12 -->
<g id="node4" class="node">
<title>c12</title>
<polygon fill="none" stroke="black" points="97.91,-30 97.91,-76 208.91,-76 208.91,-30 97.91,-30"/>
<text text-anchor="middle" x="119.91" y="-60.8" font-family="Times New Roman,serif" font-size="14.00">CLK</text>
<polyline fill="none" stroke="black" points="97.91,-53 141.91,-53 "/>
<text text-anchor="middle" x="119.91" y="-37.8" font-family="Times New Roman,serif" font-size="14.00">D</text>
<polyline fill="none" stroke="black" points="141.91,-30 141.91,-76 "/>
<text text-anchor="middle" x="161.91" y="-56.8" font-family="Times New Roman,serif" font-size="14.00">$5</text>
<text text-anchor="middle" x="161.91" y="-41.8" font-family="Times New Roman,serif" font-size="14.00">$dff</text>
<polyline fill="none" stroke="black" points="181.91,-30 181.91,-76 "/>
<text text-anchor="middle" x="195.41" y="-49.3" font-family="Times New Roman,serif" font-size="14.00">Q</text>
</g>
<!-- n1&#45;&gt;c12 -->
<g id="edge1" class="edge">
<title>n1:e&#45;&gt;c12:w</title>
<path fill="none" stroke="#e7298a" d="M61.91,-41C73.91,-41 79.16,-41 87.78,-41"/>
<polygon fill="#e7298a" stroke="#e7298a" points="87.91,-44.5 97.91,-41 87.91,-37.5 87.91,-44.5"/>
</g>
<!-- n2 -->
<g id="node2" class="node">
<title>n2</title>
<polygon fill="none" stroke="black" points="61.86,-97.54 61.86,-112.46 43.76,-123 18.15,-123 0.05,-112.46 0.05,-97.54 18.15,-87 43.76,-87 61.86,-97.54"/>
<text text-anchor="middle" x="30.95" y="-101.3" font-family="Times New Roman,serif" font-size="14.00">CLK</text>
</g>
<!-- n2&#45;&gt;c12 -->
<g id="edge2" class="edge">
<title>n2:e&#45;&gt;c12:w</title>
<path fill="none" stroke="#e7298a" d="M61.91,-105C81.71,-105 77,-77.57 88.38,-68.14"/>
<polygon fill="#e7298a" stroke="#e7298a" points="89.5,-71.45 97.91,-65 87.31,-64.8 89.5,-71.45"/>
</g>
<!-- c13 -->
<g id="node5" class="node">
<title>c13</title>
<polygon fill="none" stroke="black" points="350.76,-68 350.76,-114 461.76,-114 461.76,-68 350.76,-68"/>
<text text-anchor="middle" x="372.76" y="-98.8" font-family="Times New Roman,serif" font-size="14.00">CLK</text>
<polyline fill="none" stroke="black" points="350.76,-91 394.76,-91 "/>
<text text-anchor="middle" x="372.76" y="-75.8" font-family="Times New Roman,serif" font-size="14.00">D</text>
<polyline fill="none" stroke="black" points="394.76,-68 394.76,-114 "/>
<text text-anchor="middle" x="414.76" y="-94.8" font-family="Times New Roman,serif" font-size="14.00">$6</text>
<text text-anchor="middle" x="414.76" y="-79.8" font-family="Times New Roman,serif" font-size="14.00">$dff</text>
<polyline fill="none" stroke="black" points="434.76,-68 434.76,-114 "/>
<text text-anchor="middle" x="448.26" y="-87.3" font-family="Times New Roman,serif" font-size="14.00">Q</text>
</g>
<!-- n2&#45;&gt;c13 -->
<g id="edge3" class="edge">
<title>n2:e&#45;&gt;c13:w</title>
<path fill="none" stroke="#e7298a" d="M61.91,-105C186.78,-105 220.55,-103.11 340.44,-103"/>
<polygon fill="#e7298a" stroke="#e7298a" points="340.76,-106.5 350.76,-103 340.76,-99.5 340.76,-106.5"/>
</g>
<!-- c14 -->
<g id="node6" class="node">
<title>c14</title>
<polygon fill="none" stroke="black" points="603.62,-95 603.62,-141 714.62,-141 714.62,-95 603.62,-95"/>
<text text-anchor="middle" x="625.62" y="-125.8" font-family="Times New Roman,serif" font-size="14.00">CLK</text>
<polyline fill="none" stroke="black" points="603.62,-118 647.62,-118 "/>
<text text-anchor="middle" x="625.62" y="-102.8" font-family="Times New Roman,serif" font-size="14.00">D</text>
<polyline fill="none" stroke="black" points="647.62,-95 647.62,-141 "/>
<text text-anchor="middle" x="667.62" y="-121.8" font-family="Times New Roman,serif" font-size="14.00">$7</text>
<text text-anchor="middle" x="667.62" y="-106.8" font-family="Times New Roman,serif" font-size="14.00">$dff</text>
<polyline fill="none" stroke="black" points="687.62,-95 687.62,-141 "/>
<text text-anchor="middle" x="701.12" y="-114.3" font-family="Times New Roman,serif" font-size="14.00">Q</text>
</g>
<!-- n2&#45;&gt;c14 -->
<g id="edge4" class="edge">
<title>n2:e&#45;&gt;c14:w</title>
<path fill="none" stroke="#e7298a" d="M61.91,-105C79.07,-105 81.28,-114.73 97.91,-119 176.47,-139.18 197.72,-143 278.84,-143 278.84,-143 278.84,-143 407.26,-143 491.14,-143 514.29,-131.04 593.18,-130.06"/>
<polygon fill="#e7298a" stroke="#e7298a" points="593.64,-133.56 603.62,-130 593.6,-126.56 593.64,-133.56"/>
</g>
<!-- n3 -->
<g id="node3" class="node">
<title>n3</title>
<polygon fill="none" stroke="black" points="1045.73,-110.54 1045.73,-125.46 1028.15,-136 1003.3,-136 985.72,-125.46 985.72,-110.54 1003.3,-100 1028.15,-100 1045.73,-110.54"/>
<text text-anchor="middle" x="1015.73" y="-114.3" font-family="Times New Roman,serif" font-size="14.00">LED</text>
</g>
<!-- n4 -->
<g id="node7" class="node">
<title>n4</title>
<polygon fill="none" stroke="black" points="279.84,-74 244.98,-56 279.84,-38 314.69,-56 279.84,-74"/>
<text text-anchor="middle" x="279.84" y="-52.3" font-family="Times New Roman,serif" font-size="14.00">nb1</text>
</g>
<!-- c12&#45;&gt;n4 -->
<g id="edge9" class="edge">
<title>c12:e&#45;&gt;n4:w</title>
<path fill="none" stroke="#d95f02" d="M208.91,-53C220.95,-53 226.15,-54.69 234.77,-55.53"/>
<polygon fill="#d95f02" stroke="#d95f02" points="234.76,-59.03 244.91,-56 235.08,-52.04 234.76,-59.03"/>
</g>
<!-- n5 -->
<g id="node8" class="node">
<title>n5</title>
<polygon fill="none" stroke="black" points="532.69,-112 497.84,-94 532.69,-76 567.55,-94 532.69,-112"/>
<text text-anchor="middle" x="532.69" y="-90.3" font-family="Times New Roman,serif" font-size="14.00">nb2</text>
</g>
<!-- c13&#45;&gt;n5 -->
<g id="edge10" class="edge">
<title>c13:e&#45;&gt;n5:w</title>
<path fill="none" stroke="#1b9e77" d="M461.76,-91C473.8,-91 479,-92.69 487.62,-93.53"/>
<polygon fill="#1b9e77" stroke="#1b9e77" points="487.61,-97.03 497.76,-94 487.94,-90.04 487.61,-97.03"/>
</g>
<!-- n6 -->
<g id="node9" class="node">
<title>n6</title>
<polygon fill="none" stroke="black" points="785.55,-136 750.69,-118 785.55,-100 820.4,-118 785.55,-136"/>
<text text-anchor="middle" x="785.55" y="-114.3" font-family="Times New Roman,serif" font-size="14.00">nb3</text>
</g>
<!-- c14&#45;&gt;n6 -->
<g id="edge11" class="edge">
<title>c14:e&#45;&gt;n6:w</title>
<path fill="none" stroke="#1b9e77" d="M714.62,-118C726.62,-118 731.87,-118 740.49,-118"/>
<polygon fill="#1b9e77" stroke="#1b9e77" points="740.62,-121.5 750.62,-118 740.62,-114.5 740.62,-121.5"/>
</g>
<!-- n4&#45;&gt;c13 -->
<g id="edge5" class="edge">
<title>n4:e&#45;&gt;c13:w</title>
<path fill="none" stroke="#d95f02" d="M314.76,-56C329.6,-56 331.64,-70.04 340.87,-76.18"/>
<polygon fill="#d95f02" stroke="#d95f02" points="340.19,-79.62 350.76,-79 342.11,-72.89 340.19,-79.62"/>
</g>
<!-- n5&#45;&gt;c14 -->
<g id="edge6" class="edge">
<title>n5:e&#45;&gt;c14:w</title>
<path fill="none" stroke="#1b9e77" d="M567.62,-94C580.4,-94 584.8,-100.89 593.52,-104.23"/>
<polygon fill="#1b9e77" stroke="#1b9e77" points="593.17,-107.72 603.62,-106 594.37,-100.83 593.17,-107.72"/>
</g>
<!-- c9 -->
<g id="node10" class="node">
<title>c9</title>
<polygon fill="none" stroke="black" points="856.48,-99 856.48,-137 949.48,-137 949.48,-99 856.48,-99"/>
<text text-anchor="middle" x="869.48" y="-114.3" font-family="Times New Roman,serif" font-size="14.00">A</text>
<polyline fill="none" stroke="black" points="882.48,-99 882.48,-137 "/>
<text text-anchor="middle" x="902.98" y="-121.8" font-family="Times New Roman,serif" font-size="14.00">$4</text>
<text text-anchor="middle" x="902.98" y="-106.8" font-family="Times New Roman,serif" font-size="14.00">$not</text>
<polyline fill="none" stroke="black" points="923.48,-99 923.48,-137 "/>
<text text-anchor="middle" x="936.48" y="-114.3" font-family="Times New Roman,serif" font-size="14.00">Y</text>
</g>
<!-- n6&#45;&gt;c9 -->
<g id="edge7" class="edge">
<title>n6:e&#45;&gt;c9:w</title>
<path fill="none" stroke="#1b9e77" d="M820.48,-118C832.48,-118 837.73,-118 846.35,-118"/>
<polygon fill="#1b9e77" stroke="#1b9e77" points="846.48,-121.5 856.48,-118 846.48,-114.5 846.48,-121.5"/>
</g>
<!-- c9&#45;&gt;n3 -->
<g id="edge8" class="edge">
<title>c9:e&#45;&gt;n3:w</title>
<path fill="none" stroke="#7570b3" d="M949.48,-118C961.48,-118 966.73,-118 975.35,-118"/>
<polygon fill="#7570b3" stroke="#7570b3" points="975.48,-121.5 985.48,-118 975.48,-114.5 975.48,-121.5"/>
</g>
</g>
</svg>
