<svg xmlns="http://www.w3.org/2000/svg" xmlns:xlink="http://www.w3.org/1999/xlink" xmlns:s="https://github.com/nturley/netlistsvg" width="561" height="358.5">
  <style>svg {
    stroke:#000;
    fill:none;
  }
  text {
    fill:#000;
    stroke:none;
    font-size:10px;
    font-weight: bold;
    font-family: "Courier New", monospace;
  }
  .nodelabel {
    text-anchor: middle;
  }
  .inputPortLabel {
    text-anchor: end;
  }
  .splitjoinBody {
    fill:#000;
  }</style>
  <g s:type="and" transform="translate(312,195.5)" s:width="30" s:height="25" id="cell_$auto$aigmap.cc:123:execute$12">
    <s:alias val="$and"/>
    <s:alias val="$logic_and"/>
    <s:alias val="$_AND_"/>
    <path d="M0,0 L0,25 L15,25 A15 12.5 0 0 0 15,0 Z" class="cell_$auto$aigmap.cc:123:execute$12"/>
    <g s:x="0" s:y="5" s:pid="A"/>
    <g s:x="0" s:y="20" s:pid="B"/>
    <g s:x="30" s:y="12.5" s:pid="Y"/>
  </g>
  <g s:type="and" transform="translate(102,125.5)" s:width="30" s:height="25" id="cell_$auto$aigmap.cc:123:execute$14">
    <s:alias val="$and"/>
    <s:alias val="$logic_and"/>
    <s:alias val="$_AND_"/>
    <path d="M0,0 L0,25 L15,25 A15 12.5 0 0 0 15,0 Z" class="cell_$auto$aigmap.cc:123:execute$14"/>
    <g s:x="0" s:y="5" s:pid="A"/>
    <g s:x="0" s:y="20" s:pid="B"/>
    <g s:x="30" s:y="12.5" s:pid="Y"/>
  </g>
  <g s:type="and" transform="translate(167,180.5)" s:width="30" s:height="25" id="cell_$auto$aigmap.cc:123:execute$16">
    <s:alias val="$and"/>
    <s:alias val="$logic_and"/>
    <s:alias val="$_AND_"/>
    <path d="M0,0 L0,25 L15,25 A15 12.5 0 0 0 15,0 Z" class="cell_$auto$aigmap.cc:123:execute$16"/>
    <g s:x="0" s:y="5" s:pid="A"/>
    <g s:x="0" s:y="20" s:pid="B"/>
    <g s:x="30" s:y="12.5" s:pid="Y"/>
  </g>
  <g s:type="and" transform="translate(232,68)" s:width="30" s:height="25" id="cell_$auto$aigmap.cc:123:execute$24">
    <s:alias val="$and"/>
    <s:alias val="$logic_and"/>
    <s:alias val="$_AND_"/>
    <path d="M0,0 L0,25 L15,25 A15 12.5 0 0 0 15,0 Z" class="cell_$auto$aigmap.cc:123:execute$24"/>
    <g s:x="0" s:y="5" s:pid="A"/>
    <g s:x="0" s:y="20" s:pid="B"/>
    <g s:x="30" s:y="12.5" s:pid="Y"/>
  </g>
  <g s:type="and" transform="translate(312,310.5)" s:width="30" s:height="25" id="cell_$auto$aigmap.cc:123:execute$32">
    <s:alias val="$and"/>
    <s:alias val="$logic_and"/>
    <s:alias val="$_AND_"/>
    <path d="M0,0 L0,25 L15,25 A15 12.5 0 0 0 15,0 Z" class="cell_$auto$aigmap.cc:123:execute$32"/>
    <g s:x="0" s:y="5" s:pid="A"/>
    <g s:x="0" s:y="20" s:pid="B"/>
    <g s:x="30" s:y="12.5" s:pid="Y"/>
  </g>
  <g s:type="not" transform="translate(102,205.5)" s:width="30" s:height="20" id="cell_$auto$aigmap.cc:132:execute$18">
    <s:alias val="$_NOT_"/>
    <s:alias val="$not"/>
    <s:alias val="$logic_not"/>
    <path d="M0,0 L0,20 L20,10 Z" class="cell_$auto$aigmap.cc:132:execute$18"/>
    <circle cx="23" cy="10" r="3" class="cell_$auto$aigmap.cc:132:execute$18"/>
    <g s:x="0" s:y="10" s:pid="A"/>
    <g s:x="25" s:y="10" s:pid="Y"/>
  </g>
  <g s:type="not" transform="translate(167,23)" s:width="30" s:height="20" id="cell_$auto$aigmap.cc:132:execute$20">
    <s:alias val="$_NOT_"/>
    <s:alias val="$not"/>
    <s:alias val="$logic_not"/>
    <path d="M0,0 L0,20 L20,10 Z" class="cell_$auto$aigmap.cc:132:execute$20"/>
    <circle cx="23" cy="10" r="3" class="cell_$auto$aigmap.cc:132:execute$20"/>
    <g s:x="0" s:y="10" s:pid="A"/>
    <g s:x="25" s:y="10" s:pid="Y"/>
  </g>
  <g s:type="not" transform="translate(167,78)" s:width="30" s:height="20" id="cell_$auto$aigmap.cc:132:execute$22">
    <s:alias val="$_NOT_"/>
    <s:alias val="$not"/>
    <s:alias val="$logic_not"/>
    <path d="M0,0 L0,20 L20,10 Z" class="cell_$auto$aigmap.cc:132:execute$22"/>
    <circle cx="23" cy="10" r="3" class="cell_$auto$aigmap.cc:132:execute$22"/>
    <g s:x="0" s:y="10" s:pid="A"/>
    <g s:x="25" s:y="10" s:pid="Y"/>
  </g>
  <g s:type="not" transform="translate(312,255.5)" s:width="30" s:height="20" id="cell_$auto$aigmap.cc:132:execute$26">
    <s:alias val="$_NOT_"/>
    <s:alias val="$not"/>
    <s:alias val="$logic_not"/>
    <path d="M0,0 L0,20 L20,10 Z" class="cell_$auto$aigmap.cc:132:execute$26"/>
    <circle cx="23" cy="10" r="3" class="cell_$auto$aigmap.cc:132:execute$26"/>
    <g s:x="0" s:y="10" s:pid="A"/>
    <g s:x="25" s:y="10" s:pid="Y"/>
  </g>
  <g s:type="not" transform="translate(232,183)" s:width="30" s:height="20" id="cell_$auto$aigmap.cc:132:execute$28">
    <s:alias val="$_NOT_"/>
    <s:alias val="$not"/>
    <s:alias val="$logic_not"/>
    <path d="M0,0 L0,20 L20,10 Z" class="cell_$auto$aigmap.cc:132:execute$28"/>
    <circle cx="23" cy="10" r="3" class="cell_$auto$aigmap.cc:132:execute$28"/>
    <g s:x="0" s:y="10" s:pid="A"/>
    <g s:x="25" s:y="10" s:pid="Y"/>
  </g>
  <g s:type="not" transform="translate(232,128)" s:width="30" s:height="20" id="cell_$auto$aigmap.cc:132:execute$30">
    <s:alias val="$_NOT_"/>
    <s:alias val="$not"/>
    <s:alias val="$logic_not"/>
    <path d="M0,0 L0,20 L20,10 Z" class="cell_$auto$aigmap.cc:132:execute$30"/>
    <circle cx="23" cy="10" r="3" class="cell_$auto$aigmap.cc:132:execute$30"/>
    <g s:x="0" s:y="10" s:pid="A"/>
    <g s:x="25" s:y="10" s:pid="Y"/>
  </g>
  <g s:type="not" transform="translate(380,313)" s:width="30" s:height="20" id="cell_$auto$aigmap.cc:132:execute$34">
    <s:alias val="$_NOT_"/>
    <s:alias val="$not"/>
    <s:alias val="$logic_not"/>
    <path d="M0,0 L0,20 L20,10 Z" class="cell_$auto$aigmap.cc:132:execute$34"/>
    <circle cx="23" cy="10" r="3" class="cell_$auto$aigmap.cc:132:execute$34"/>
    <g s:x="0" s:y="10" s:pid="A"/>
    <g s:x="25" s:y="10" s:pid="Y"/>
  </g>
  <g s:type="generic" transform="translate(473,205)" s:width="30" s:height="40" id="cell_$procdff$10">
    <text x="15" y="-4" class="nodelabel cell_$procdff$10" s:attribute="ref">$adff</text>
    <rect width="30" height="60" s:generic="body" class="cell_$procdff$10"/>
    <g transform="translate(0,10)" s:x="0" s:y="10" s:pid="in0" id="port_$procdff$10~ARST">
      <text x="-3" y="-4" class="inputPortLabel cell_$procdff$10">ARST</text>
    </g>
    <g transform="translate(0,30)" s:x="0" s:y="10" s:pid="in0" id="port_$procdff$10~CLK">
      <text x="-3" y="-4" class="inputPortLabel cell_$procdff$10">CLK</text>
    </g>
    <g transform="translate(0,50)" s:x="0" s:y="10" s:pid="in0" id="port_$procdff$10~D">
      <text x="-3" y="-4" class="inputPortLabel cell_$procdff$10">D</text>
    </g>
    <g transform="translate(30,10)" s:x="30" s:y="10" s:pid="out0" id="port_$procdff$10~Q">
      <text x="5" y="-4" style="fill:#000; stroke:none" class="cell_$procdff$10">Q</text>
    </g>
  </g>
  <g s:type="inputExt" transform="translate(377,178)" s:width="30" s:height="20" id="cell_clk">
    <text x="15" y="-4" class="nodelabel cell_clk" s:attribute="ref">clk</text>
    <s:alias val="$_inputExt_"/>
    <path d="M0,0 L0,20 L15,20 L30,10 L15,0 Z" class="cell_clk"/>
    <g s:x="28" s:y="10" s:pid="Y"/>
  </g>
  <g s:type="inputExt" transform="translate(377,113)" s:width="30" s:height="20" id="cell_areset">
    <text x="15" y="-4" class="nodelabel cell_areset" s:attribute="ref">areset</text>
    <s:alias val="$_inputExt_"/>
    <path d="M0,0 L0,20 L15,20 L30,10 L15,0 Z" class="cell_areset"/>
    <g s:x="28" s:y="10" s:pid="Y"/>
  </g>
  <g s:type="inputExt" transform="translate(32,205.5)" s:width="30" s:height="20" id="cell_x">
    <text x="15" y="-4" class="nodelabel cell_x" s:attribute="ref">x</text>
    <s:alias val="$_inputExt_"/>
    <path d="M0,0 L0,20 L15,20 L30,10 L15,0 Z" class="cell_x"/>
    <g s:x="28" s:y="10" s:pid="Y"/>
  </g>
  <g s:type="outputExt" transform="translate(473,313)" s:width="30" s:height="20" id="cell_z">
    <text x="15" y="-4" class="nodelabel cell_z" s:attribute="ref">z</text>
    <s:alias val="$_outputExt_"/>
    <path d="M30,0 L30,20 L15,20 L0,10 L15,0 Z" class="cell_z"/>
    <g s:x="0" s:y="10" s:pid="A"/>
  </g>
  <g s:type="join" transform="translate(390,235)" s:width="4" s:height="40" id="cell_$join$,8,18,">
    <rect width="5" height="40" class="splitjoinBody" s:generic="body"/>
    <s:alias val="$_join_"/>
    <g s:x="5" s:y="20" s:pid="out"/>
    <g transform="translate(0,10)" s:x="0" s:y="10" s:pid="in0">
      <text x="-3" y="-4" class="inputPortLabel">0</text>
    </g>
    <g transform="translate(0,30)" s:x="0" s:y="10" s:pid="in0">
      <text x="-3" y="-4" class="inputPortLabel">1</text>
    </g>
  </g>
  <g s:type="split" transform="translate(50,120)" s:width="5" s:height="40" id="cell_$split$,6,10,">
    <rect width="5" height="40" class="splitjoinBody" s:generic="body"/>
    <s:alias val="$_split_"/>
    <g s:x="0" s:y="20" s:pid="in"/>
    <g transform="translate(4,10)" s:x="4" s:y="10" s:pid="out0">
      <text x="5" y="-4">0</text>
    </g>
    <g transform="translate(4,30)" s:x="4" s:y="10" s:pid="out0">
      <text x="5" y="-4">1</text>
    </g>
  </g>
  <line x1="55" x2="72" y1="130.5" y2="130.5" class="net_6"/>
  <line x1="72" x2="72" y1="130.5" y2="12" class="net_6"/>
  <line x1="72" x2="302" y1="12" y2="12" class="net_6"/>
  <line x1="302" x2="302" y1="12" y2="200.5" class="net_6"/>
  <circle cx="72" cy="130.5" r="2" style="fill:#000" class="net_6"/>
  <line x1="302" x2="312" y1="200.5" y2="200.5" class="net_6"/>
  <line x1="55" x2="102" y1="130.5" y2="130.5" class="net_6"/>
  <line x1="127" x2="312" y1="215.5" y2="215.5" class="net_7"/>
  <line x1="127" x2="142" y1="215.5" y2="215.5" class="net_7"/>
  <line x1="142" x2="142" y1="215.5" y2="200.5" class="net_7"/>
  <circle cx="142" cy="215.5" r="2" style="fill:#000" class="net_7"/>
  <line x1="142" x2="167" y1="200.5" y2="200.5" class="net_7"/>
  <line x1="60" x2="92" y1="215.5" y2="215.5" class="net_4"/>
  <line x1="92" x2="92" y1="215.5" y2="145.5" class="net_4"/>
  <circle cx="92" cy="215.5" r="2" style="fill:#000" class="net_4"/>
  <line x1="92" x2="102" y1="145.5" y2="145.5" class="net_4"/>
  <line x1="60" x2="102" y1="215.5" y2="215.5" class="net_4"/>
  <line x1="55" x2="82" y1="150.5" y2="150.5" class="net_10"/>
  <line x1="82" x2="82" y1="150.5" y2="185.5" class="net_10"/>
  <circle cx="82" cy="150.5" r="2" style="fill:#000" class="net_10"/>
  <line x1="82" x2="167" y1="185.5" y2="185.5" class="net_10"/>
  <line x1="55" x2="82" y1="150.5" y2="150.5" class="net_10"/>
  <line x1="82" x2="82" y1="150.5" y2="33" class="net_10"/>
  <line x1="82" x2="167" y1="33" y2="33" class="net_10"/>
  <line x1="192" x2="207" y1="33" y2="33" class="net_12"/>
  <line x1="207" x2="207" y1="33" y2="73" class="net_12"/>
  <line x1="207" x2="232" y1="73" y2="73" class="net_12"/>
  <line x1="192" x2="232" y1="88" y2="88" class="net_13"/>
  <line x1="257" x2="282" y1="193" y2="193" class="net_15"/>
  <line x1="282" x2="282" y1="193" y2="315.5" class="net_15"/>
  <line x1="282" x2="312" y1="315.5" y2="315.5" class="net_15"/>
  <line x1="257" x2="272" y1="138" y2="138" class="net_16"/>
  <line x1="272" x2="272" y1="138" y2="330.5" class="net_16"/>
  <line x1="272" x2="312" y1="330.5" y2="330.5" class="net_16"/>
  <line x1="132" x2="142" y1="138" y2="138" class="net_9"/>
  <line x1="142" x2="142" y1="138" y2="88" class="net_9"/>
  <circle cx="142" cy="138" r="2" style="fill:#000" class="net_9"/>
  <line x1="142" x2="167" y1="88" y2="88" class="net_9"/>
  <line x1="132" x2="232" y1="138" y2="138" class="net_9"/>
  <line x1="262" x2="292" y1="80.5" y2="80.5" class="net_14"/>
  <line x1="292" x2="292" y1="80.5" y2="265.5" class="net_14"/>
  <line x1="292" x2="312" y1="265.5" y2="265.5" class="net_14"/>
  <line x1="197" x2="232" y1="193" y2="193" class="net_11"/>
  <line x1="342" x2="380" y1="323" y2="323" class="net_17"/>
  <line x1="405" x2="433" y1="123" y2="123" class="net_3"/>
  <line x1="433" x2="433" y1="123" y2="215.5" class="net_3"/>
  <line x1="433" x2="473" y1="215.5" y2="215.5" class="net_3"/>
  <line x1="405" x2="423" y1="188" y2="188" class="net_2"/>
  <line x1="423" x2="423" y1="188" y2="235.5" class="net_2"/>
  <line x1="423" x2="473" y1="235.5" y2="235.5" class="net_2"/>
  <line x1="396" x2="473" y1="255.5" y2="255.5" class="net_8,18"/>
  <line x1="405" x2="473" y1="323" y2="323" class="net_5"/>
  <line x1="342" x2="352" y1="208" y2="208" class="net_8"/>
  <line x1="352" x2="352" y1="208" y2="245.5" class="net_8"/>
  <line x1="352" x2="390" y1="245.5" y2="245.5" class="net_8"/>
  <line x1="337" x2="390" y1="265.5" y2="265.5" class="net_18"/>
  <line x1="504" x2="549" y1="215.5" y2="215.5" class="net_6,10"/>
  <line x1="549" x2="549" y1="215.5" y2="345.5" class="net_6,10"/>
  <line x1="549" x2="12" y1="345.5" y2="345.5" class="net_6,10"/>
  <line x1="12" x2="12" y1="345.5" y2="140.5" class="net_6,10"/>
  <line x1="12" x2="50" y1="140.5" y2="140.5" class="net_6,10"/>
</svg>
