<?xml version="1.0" encoding="UTF-8" standalone="no"?>
<!DOCTYPE svg PUBLIC "-//W3C//DTD SVG 1.1//EN"
 "http://www.w3.org/Graphics/SVG/1.1/DTD/svg11.dtd">
<!-- Generated by graphviz version 4.0.0 (20220529.0937)
 -->
<!-- Title: top_module Pages: 1 -->
<svg width="1399pt" height="389pt"
 viewBox="0.00 0.00 1398.95 388.80" xmlns="http://www.w3.org/2000/svg" xmlns:xlink="http://www.w3.org/1999/xlink">
<g id="graph0" class="graph" transform="scale(1 1) rotate(0) translate(4 384.8)">
<title>top_module</title>
<polygon fill="white" stroke="transparent" points="-4,4 -4,-384.8 1394.95,-384.8 1394.95,4 -4,4"/>
<text text-anchor="middle" x="695.47" y="-7.8" font-family="Times New Roman,serif" font-size="14.00">top_module</text>
<!-- n4 -->
<g id="node1" class="node">
<title>n4</title>
<polygon fill="none" stroke="black" points="68.91,-355.34 68.91,-370.26 48.74,-380.8 20.2,-380.8 0.03,-370.26 0.03,-355.34 20.2,-344.8 48.74,-344.8 68.91,-355.34"/>
<text text-anchor="middle" x="34.47" y="-359.1" font-family="Times New Roman,serif" font-size="14.00">areset</text>
</g>
<!-- c23 -->
<g id="node19" class="node">
<title>c23</title>
<polygon fill="none" stroke="black" points="105.94,-290.3 105.94,-359.3 231.94,-359.3 231.94,-290.3 105.94,-290.3"/>
<text text-anchor="middle" x="132.44" y="-344.1" font-family="Times New Roman,serif" font-size="14.00">ARST</text>
<polyline fill="none" stroke="black" points="105.94,-336.3 158.94,-336.3 "/>
<text text-anchor="middle" x="132.44" y="-321.1" font-family="Times New Roman,serif" font-size="14.00">CLK</text>
<polyline fill="none" stroke="black" points="105.94,-313.3 158.94,-313.3 "/>
<text text-anchor="middle" x="132.44" y="-298.1" font-family="Times New Roman,serif" font-size="14.00">D</text>
<polyline fill="none" stroke="black" points="158.94,-290.3 158.94,-359.3 "/>
<text text-anchor="middle" x="181.94" y="-328.6" font-family="Times New Roman,serif" font-size="14.00">$10</text>
<text text-anchor="middle" x="181.94" y="-313.6" font-family="Times New Roman,serif" font-size="14.00">$adff</text>
<polyline fill="none" stroke="black" points="204.94,-290.3 204.94,-359.3 "/>
<text text-anchor="middle" x="218.44" y="-321.1" font-family="Times New Roman,serif" font-size="14.00">Q</text>
</g>
<!-- n4&#45;&gt;c23 -->
<g id="edge14" class="edge">
<title>n4:e&#45;&gt;c23:w</title>
<path fill="none" stroke="#1b9e77" d="M68.94,-362.8C82.67,-362.8 86.68,-353.83 96,-349.76"/>
<polygon fill="#1b9e77" stroke="#1b9e77" points="96.81,-353.17 105.94,-347.8 95.45,-346.3 96.81,-353.17"/>
</g>
<!-- n5 -->
<g id="node2" class="node">
<title>n5</title>
<polygon fill="none" stroke="black" points="61.47,-301.34 61.47,-316.26 45.65,-326.8 23.29,-326.8 7.47,-316.26 7.47,-301.34 23.29,-290.8 45.65,-290.8 61.47,-301.34"/>
<text text-anchor="middle" x="34.47" y="-305.1" font-family="Times New Roman,serif" font-size="14.00">clk</text>
</g>
<!-- n5&#45;&gt;c23 -->
<g id="edge15" class="edge">
<title>n5:e&#45;&gt;c23:w</title>
<path fill="none" stroke="#e6ab02" d="M62.47,-308.8C79.2,-308.8 83.85,-319.36 96.05,-323.32"/>
<polygon fill="#e6ab02" stroke="#e6ab02" points="95.54,-326.79 105.94,-324.8 96.57,-319.86 95.54,-326.79"/>
</g>
<!-- n6 -->
<g id="node3" class="node">
<title>n6</title>
<polygon fill="none" stroke="black" points="1251.85,-258.8 1184.65,-240.8 1251.85,-222.8 1319.05,-240.8 1251.85,-258.8"/>
<text text-anchor="middle" x="1251.85" y="-237.1" font-family="Times New Roman,serif" font-size="14.00">next_state</text>
</g>
<!-- n6&#45;&gt;c23 -->
<g id="edge18" class="edge">
<title>n6:e&#45;&gt;c23:w</title>
<path fill="none" stroke="#e6ab02" stroke-width="3" d="M1319.85,-240.8C1327.86,-240.8 1324.19,-252.82 1318.85,-258.8 1251.55,-334.13 1195.77,-296.8 1094.75,-296.8 398.55,-296.8 398.55,-296.8 398.55,-296.8 368.92,-296.8 115.54,-280.97 105.94,-289.8 105.33,-290.37 104.75,-291.05 104.23,-291.8"/>
<polygon fill="#e6ab02" stroke="#e6ab02" stroke-width="3" points="100.74,-292.07 104.94,-301.8 107.72,-291.58 100.74,-292.07"/>
<text text-anchor="middle" x="784.15" y="-300.6" font-family="Times New Roman,serif" font-size="14.00" fill="#e6ab02">&lt;2&gt;</text>
</g>
<!-- n7 -->
<g id="node4" class="node">
<title>n7</title>
<polygon fill="none" stroke="black" points="399.55,-229.8 360.84,-211.8 399.55,-193.8 438.26,-211.8 399.55,-229.8"/>
<text text-anchor="middle" x="399.55" y="-208.1" font-family="Times New Roman,serif" font-size="14.00">state</text>
</g>
<!-- x0 -->
<g id="node8" class="node">
<title>x0</title>
<path fill="none" stroke="black" d="M510.15,-138.8C510.15,-138.8 548.15,-138.8 548.15,-138.8 554.15,-138.8 560.15,-144.8 560.15,-150.8 560.15,-150.8 560.15,-162.8 560.15,-162.8 560.15,-168.8 554.15,-174.8 548.15,-174.8 548.15,-174.8 510.15,-174.8 510.15,-174.8 504.15,-174.8 498.15,-168.8 498.15,-162.8 498.15,-162.8 498.15,-150.8 498.15,-150.8 498.15,-144.8 504.15,-138.8 510.15,-138.8"/>
<text text-anchor="middle" x="529.15" y="-153.1" font-family="Times New Roman,serif" font-size="14.00">0:0 &#45; 0:0</text>
</g>
<!-- n7&#45;&gt;x0 -->
<g id="edge20" class="edge">
<title>n7:e&#45;&gt;x0:w</title>
<path fill="none" stroke="#d95f02" stroke-width="3" d="M438.15,-211.8C449.78,-211.8 447.72,-200.82 456.15,-192.8 471.04,-178.63 473.21,-163 487.88,-158.25"/>
<polygon fill="#d95f02" stroke="#d95f02" stroke-width="3" points="488.74,-161.66 498.15,-156.8 487.76,-154.73 488.74,-161.66"/>
<text text-anchor="middle" x="468.15" y="-196.6" font-family="Times New Roman,serif" font-size="14.00" fill="#d95f02">&lt;2&gt;</text>
</g>
<!-- x2 -->
<g id="node11" class="node">
<title>x2</title>
<path fill="none" stroke="black" d="M510.15,-193.8C510.15,-193.8 548.15,-193.8 548.15,-193.8 554.15,-193.8 560.15,-199.8 560.15,-205.8 560.15,-205.8 560.15,-217.8 560.15,-217.8 560.15,-223.8 554.15,-229.8 548.15,-229.8 548.15,-229.8 510.15,-229.8 510.15,-229.8 504.15,-229.8 498.15,-223.8 498.15,-217.8 498.15,-217.8 498.15,-205.8 498.15,-205.8 498.15,-199.8 504.15,-193.8 510.15,-193.8"/>
<text text-anchor="middle" x="529.15" y="-208.1" font-family="Times New Roman,serif" font-size="14.00">0:0 &#45; 0:0</text>
</g>
<!-- n7&#45;&gt;x2 -->
<g id="edge21" class="edge">
<title>n7:e&#45;&gt;x2:w</title>
<path fill="none" stroke="#d95f02" stroke-width="3" d="M438.15,-211.8C461.07,-211.8 469.21,-211.8 487.98,-211.8"/>
<polygon fill="#d95f02" stroke="#d95f02" stroke-width="3" points="488.15,-215.3 498.15,-211.8 488.15,-208.3 488.15,-215.3"/>
<text text-anchor="middle" x="468.15" y="-215.6" font-family="Times New Roman,serif" font-size="14.00" fill="#d95f02">&lt;2&gt;</text>
</g>
<!-- x3 -->
<g id="node13" class="node">
<title>x3</title>
<path fill="none" stroke="black" d="M510.15,-44.8C510.15,-44.8 548.15,-44.8 548.15,-44.8 554.15,-44.8 560.15,-50.8 560.15,-56.8 560.15,-56.8 560.15,-68.8 560.15,-68.8 560.15,-74.8 554.15,-80.8 548.15,-80.8 548.15,-80.8 510.15,-80.8 510.15,-80.8 504.15,-80.8 498.15,-74.8 498.15,-68.8 498.15,-68.8 498.15,-56.8 498.15,-56.8 498.15,-50.8 504.15,-44.8 510.15,-44.8"/>
<text text-anchor="middle" x="529.15" y="-59.1" font-family="Times New Roman,serif" font-size="14.00">1:1 &#45; 0:0</text>
</g>
<!-- n7&#45;&gt;x3 -->
<g id="edge22" class="edge">
<title>n7:e&#45;&gt;x3:w</title>
<path fill="none" stroke="#d95f02" stroke-width="3" d="M438.15,-211.8C469.41,-211.8 444.89,-172.96 456.15,-143.8 469.39,-109.52 459.82,-70.85 488.1,-63.9"/>
<polygon fill="#d95f02" stroke="#d95f02" stroke-width="3" points="488.59,-67.37 498.15,-62.8 487.83,-60.41 488.59,-67.37"/>
<text text-anchor="middle" x="468.15" y="-147.6" font-family="Times New Roman,serif" font-size="14.00" fill="#d95f02">&lt;2&gt;</text>
</g>
<!-- x4 -->
<g id="node16" class="node">
<title>x4</title>
<path fill="none" stroke="black" d="M590.15,-237.8C590.15,-237.8 628.15,-237.8 628.15,-237.8 634.15,-237.8 640.15,-243.8 640.15,-249.8 640.15,-249.8 640.15,-261.8 640.15,-261.8 640.15,-267.8 634.15,-273.8 628.15,-273.8 628.15,-273.8 590.15,-273.8 590.15,-273.8 584.15,-273.8 578.15,-267.8 578.15,-261.8 578.15,-261.8 578.15,-249.8 578.15,-249.8 578.15,-243.8 584.15,-237.8 590.15,-237.8"/>
<text text-anchor="middle" x="609.15" y="-252.1" font-family="Times New Roman,serif" font-size="14.00">1:1 &#45; 0:0</text>
</g>
<!-- n7&#45;&gt;x4 -->
<g id="edge23" class="edge">
<title>n7:e&#45;&gt;x4:w</title>
<path fill="none" stroke="#d95f02" stroke-width="3" d="M438.15,-211.8C449.78,-211.8 445.98,-225.15 456.15,-230.8 501.41,-255.96 520.32,-255.92 567.89,-255.82"/>
<polygon fill="#d95f02" stroke="#d95f02" stroke-width="3" points="568.16,-259.32 578.15,-255.8 568.15,-252.32 568.16,-259.32"/>
<text text-anchor="middle" x="468.15" y="-246.6" font-family="Times New Roman,serif" font-size="14.00" fill="#d95f02">&lt;2&gt;</text>
</g>
<!-- n8 -->
<g id="node5" class="node">
<title>n8</title>
<polygon fill="none" stroke="black" points="61.47,-76.34 61.47,-91.26 45.65,-101.8 23.29,-101.8 7.47,-91.26 7.47,-76.34 23.29,-65.8 45.65,-65.8 61.47,-76.34"/>
<text text-anchor="middle" x="34.47" y="-80.1" font-family="Times New Roman,serif" font-size="14.00">x</text>
</g>
<!-- c14 -->
<g id="node10" class="node">
<title>c14</title>
<polygon fill="none" stroke="black" points="658.15,-176.8 658.15,-222.8 754.15,-222.8 754.15,-176.8 658.15,-176.8"/>
<text text-anchor="middle" x="671.15" y="-207.6" font-family="Times New Roman,serif" font-size="14.00">A</text>
<polyline fill="none" stroke="black" points="658.15,-199.8 684.15,-199.8 "/>
<text text-anchor="middle" x="671.15" y="-184.6" font-family="Times New Roman,serif" font-size="14.00">B</text>
<polyline fill="none" stroke="black" points="684.15,-176.8 684.15,-222.8 "/>
<text text-anchor="middle" x="706.15" y="-203.6" font-family="Times New Roman,serif" font-size="14.00">$3</text>
<text text-anchor="middle" x="706.15" y="-188.6" font-family="Times New Roman,serif" font-size="14.00">$and</text>
<polyline fill="none" stroke="black" points="728.15,-176.8 728.15,-222.8 "/>
<text text-anchor="middle" x="741.15" y="-196.1" font-family="Times New Roman,serif" font-size="14.00">Y</text>
</g>
<!-- n8&#45;&gt;c14 -->
<g id="edge24" class="edge">
<title>n8:e&#45;&gt;c14:w</title>
<path fill="none" stroke="#d95f02" d="M62.47,-83.8C74.58,-83.8 75.42,-92.06 86.94,-95.8 121.7,-107.07 131.41,-109.8 167.94,-109.8 167.94,-109.8 167.94,-109.8 530.15,-109.8 593.13,-109.8 591.89,-179.5 647.84,-187.13"/>
<polygon fill="#d95f02" stroke="#d95f02" points="647.94,-190.64 658.15,-187.8 648.4,-183.65 647.94,-190.64"/>
</g>
<!-- c16 -->
<g id="node14" class="node">
<title>c16</title>
<polygon fill="none" stroke="black" points="249.94,-23.8 249.94,-61.8 342.94,-61.8 342.94,-23.8 249.94,-23.8"/>
<text text-anchor="middle" x="262.94" y="-39.1" font-family="Times New Roman,serif" font-size="14.00">A</text>
<polyline fill="none" stroke="black" points="275.94,-23.8 275.94,-61.8 "/>
<text text-anchor="middle" x="296.44" y="-46.6" font-family="Times New Roman,serif" font-size="14.00">$1</text>
<text text-anchor="middle" x="296.44" y="-31.6" font-family="Times New Roman,serif" font-size="14.00">$not</text>
<polyline fill="none" stroke="black" points="316.94,-23.8 316.94,-61.8 "/>
<text text-anchor="middle" x="329.94" y="-39.1" font-family="Times New Roman,serif" font-size="14.00">Y</text>
</g>
<!-- n8&#45;&gt;c16 -->
<g id="edge25" class="edge">
<title>n8:e&#45;&gt;c16:w</title>
<path fill="none" stroke="#d95f02" d="M62.47,-83.8C144.26,-83.8 163.15,-46.09 239.78,-43"/>
<polygon fill="#d95f02" stroke="#d95f02" points="240.01,-46.5 249.94,-42.8 239.87,-39.5 240.01,-46.5"/>
</g>
<!-- n9 -->
<g id="node6" class="node">
<title>n9</title>
<polygon fill="none" stroke="black" points="1390.95,-113.34 1390.95,-128.26 1375.13,-138.8 1352.76,-138.8 1336.95,-128.26 1336.95,-113.34 1352.76,-102.8 1375.13,-102.8 1390.95,-113.34"/>
<text text-anchor="middle" x="1363.95" y="-117.1" font-family="Times New Roman,serif" font-size="14.00">z</text>
</g>
<!-- c13 -->
<g id="node7" class="node">
<title>c13</title>
<polygon fill="none" stroke="black" points="658.15,-111.8 658.15,-157.8 754.15,-157.8 754.15,-111.8 658.15,-111.8"/>
<text text-anchor="middle" x="671.15" y="-142.6" font-family="Times New Roman,serif" font-size="14.00">A</text>
<polyline fill="none" stroke="black" points="658.15,-134.8 684.15,-134.8 "/>
<text text-anchor="middle" x="671.15" y="-119.6" font-family="Times New Roman,serif" font-size="14.00">B</text>
<polyline fill="none" stroke="black" points="684.15,-111.8 684.15,-157.8 "/>
<text text-anchor="middle" x="706.15" y="-138.6" font-family="Times New Roman,serif" font-size="14.00">$2</text>
<text text-anchor="middle" x="706.15" y="-123.6" font-family="Times New Roman,serif" font-size="14.00">$and</text>
<polyline fill="none" stroke="black" points="728.15,-111.8 728.15,-157.8 "/>
<text text-anchor="middle" x="741.15" y="-131.1" font-family="Times New Roman,serif" font-size="14.00">Y</text>
</g>
<!-- x1 -->
<g id="node9" class="node">
<title>x1</title>
<path fill="none" stroke="black" d="M847.75,-135.8C847.75,-135.8 885.75,-135.8 885.75,-135.8 891.75,-135.8 897.75,-141.8 897.75,-147.8 897.75,-147.8 897.75,-159.8 897.75,-159.8 897.75,-165.8 891.75,-171.8 885.75,-171.8 885.75,-171.8 847.75,-171.8 847.75,-171.8 841.75,-171.8 835.75,-165.8 835.75,-159.8 835.75,-159.8 835.75,-147.8 835.75,-147.8 835.75,-141.8 841.75,-135.8 847.75,-135.8"/>
<text text-anchor="middle" x="866.75" y="-150.1" font-family="Times New Roman,serif" font-size="14.00">0:0 &#45; 0:0</text>
</g>
<!-- c13&#45;&gt;x1 -->
<g id="edge2" class="edge">
<title>c13:e&#45;&gt;x1:w</title>
<path fill="none" stroke="#1b9e77" d="M766.46,-135.57C789.85,-138.64 800.11,-149.99 823.53,-153.04"/>
<polygon fill="none" stroke="#1b9e77" points="766.13,-135.55 759.89,-139.17 754.15,-134.8 760.39,-131.18 766.13,-135.55"/>
<polygon fill="none" stroke="#1b9e77" points="823.77,-153.06 830.01,-149.44 835.75,-153.8 829.52,-157.42 823.77,-153.06"/>
</g>
<!-- x0&#45;&gt;c13 -->
<g id="edge1" class="edge">
<title>x0:e&#45;&gt;c13:w</title>
<path fill="none" stroke="#66a61e" d="M572.53,-156.51C602.69,-155.05 615.84,-148.49 646.15,-147.07"/>
<polygon fill="none" stroke="#66a61e" points="572.15,-156.52 566.24,-160.66 560.15,-156.8 566.06,-152.66 572.15,-156.52"/>
<polygon fill="none" stroke="#66a61e" points="646.15,-147.07 652.06,-142.94 658.15,-146.8 652.24,-150.93 646.15,-147.07"/>
</g>
<!-- x1&#45;&gt;n6 -->
<g id="edge16" class="edge">
<title>x1:e&#45;&gt;n6:w</title>
<path fill="none" stroke="#e6ab02" stroke-width="3" d="M897.75,-153.8C1001.99,-153.8 1026.67,-177.5 1124.75,-212.8 1136,-216.85 1158.87,-232.8 1174.94,-238.64"/>
<polygon fill="#e6ab02" stroke="#e6ab02" stroke-width="3" points="1174.23,-242.07 1184.75,-240.8 1175.74,-235.23 1174.23,-242.07"/>
<text text-anchor="middle" x="1032.75" y="-185.6" font-family="Times New Roman,serif" font-size="14.00" fill="#e6ab02">&lt;2&gt;</text>
</g>
<!-- n1 -->
<g id="node20" class="node">
<title>n1</title>
<ellipse fill="black" stroke="black" cx="815.95" cy="-199.8" rx="1.8" ry="1.8"/>
</g>
<!-- c14&#45;&gt;n1 -->
<g id="edge7" class="edge">
<title>c14:e&#45;&gt;n1:w</title>
<path fill="none" stroke="#7570b3" d="M754.15,-199.8C777.07,-199.8 785.21,-199.8 803.98,-199.8"/>
<polygon fill="#7570b3" stroke="#7570b3" points="804.15,-203.3 814.15,-199.8 804.15,-196.3 804.15,-203.3"/>
</g>
<!-- x2&#45;&gt;c14 -->
<g id="edge3" class="edge">
<title>x2:e&#45;&gt;c14:w</title>
<path fill="none" stroke="#1b9e77" d="M572.48,-211.8C602.43,-211.8 615.86,-211.8 645.8,-211.8"/>
<polygon fill="none" stroke="#1b9e77" points="572.15,-211.8 566.15,-215.8 560.15,-211.8 566.15,-207.8 572.15,-211.8"/>
<polygon fill="none" stroke="#1b9e77" points="646.15,-211.8 652.15,-207.8 658.15,-211.8 652.15,-215.8 646.15,-211.8"/>
</g>
<!-- c15 -->
<g id="node12" class="node">
<title>c15</title>
<polygon fill="none" stroke="black" points="658.15,-39.8 658.15,-85.8 754.15,-85.8 754.15,-39.8 658.15,-39.8"/>
<text text-anchor="middle" x="671.15" y="-70.6" font-family="Times New Roman,serif" font-size="14.00">A</text>
<polyline fill="none" stroke="black" points="658.15,-62.8 684.15,-62.8 "/>
<text text-anchor="middle" x="671.15" y="-47.6" font-family="Times New Roman,serif" font-size="14.00">B</text>
<polyline fill="none" stroke="black" points="684.15,-39.8 684.15,-85.8 "/>
<text text-anchor="middle" x="706.15" y="-66.6" font-family="Times New Roman,serif" font-size="14.00">$8</text>
<text text-anchor="middle" x="706.15" y="-51.6" font-family="Times New Roman,serif" font-size="14.00">$and</text>
<polyline fill="none" stroke="black" points="728.15,-39.8 728.15,-85.8 "/>
<text text-anchor="middle" x="741.15" y="-59.1" font-family="Times New Roman,serif" font-size="14.00">Y</text>
</g>
<!-- c18 -->
<g id="node18" class="node">
<title>c18</title>
<polygon fill="none" stroke="black" points="915.75,-97.8 915.75,-143.8 1002.75,-143.8 1002.75,-97.8 915.75,-97.8"/>
<text text-anchor="middle" x="928.75" y="-128.6" font-family="Times New Roman,serif" font-size="14.00">A</text>
<polyline fill="none" stroke="black" points="915.75,-120.8 941.75,-120.8 "/>
<text text-anchor="middle" x="928.75" y="-105.6" font-family="Times New Roman,serif" font-size="14.00">B</text>
<polyline fill="none" stroke="black" points="941.75,-97.8 941.75,-143.8 "/>
<text text-anchor="middle" x="959.25" y="-124.6" font-family="Times New Roman,serif" font-size="14.00">$9</text>
<text text-anchor="middle" x="959.25" y="-109.6" font-family="Times New Roman,serif" font-size="14.00">$or</text>
<polyline fill="none" stroke="black" points="976.75,-97.8 976.75,-143.8 "/>
<text text-anchor="middle" x="989.75" y="-117.1" font-family="Times New Roman,serif" font-size="14.00">Y</text>
</g>
<!-- c15&#45;&gt;c18 -->
<g id="edge10" class="edge">
<title>c15:e&#45;&gt;c18:w</title>
<path fill="none" stroke="#d95f02" d="M754.15,-62.8C825.33,-62.8 839.79,-104.59 905.65,-108.51"/>
<polygon fill="#d95f02" stroke="#d95f02" points="905.65,-112.01 915.75,-108.8 905.86,-105.01 905.65,-112.01"/>
</g>
<!-- x3&#45;&gt;c15 -->
<g id="edge4" class="edge">
<title>x3:e&#45;&gt;c15:w</title>
<path fill="none" stroke="#7570b3" d="M572.55,-63.15C602.75,-64.9 615.78,-72.77 646.13,-74.48"/>
<polygon fill="none" stroke="#7570b3" points="572.15,-63.14 566.04,-66.97 560.15,-62.8 566.26,-58.97 572.15,-63.14"/>
<polygon fill="none" stroke="#7570b3" points="646.16,-74.48 652.26,-70.64 658.15,-74.8 652.05,-78.64 646.16,-74.48"/>
</g>
<!-- n3 -->
<g id="node21" class="node">
<title>n3</title>
<ellipse fill="black" stroke="black" cx="529.15" cy="-24.8" rx="1.8" ry="1.8"/>
</g>
<!-- c16&#45;&gt;n3 -->
<g id="edge11" class="edge">
<title>c16:e&#45;&gt;n3:w</title>
<path fill="none" stroke="#1b9e77" d="M342.94,-42.8C421.24,-42.8 442.54,-26.31 515.94,-24.9"/>
<polygon fill="#1b9e77" stroke="#1b9e77" points="516.19,-28.39 526.15,-24.8 516.12,-21.4 516.19,-28.39"/>
</g>
<!-- c17 -->
<g id="node15" class="node">
<title>c17</title>
<polygon fill="none" stroke="black" points="915.75,-217.8 915.75,-263.8 1002.75,-263.8 1002.75,-217.8 915.75,-217.8"/>
<text text-anchor="middle" x="928.75" y="-248.6" font-family="Times New Roman,serif" font-size="14.00">A</text>
<polyline fill="none" stroke="black" points="915.75,-240.8 941.75,-240.8 "/>
<text text-anchor="middle" x="928.75" y="-225.6" font-family="Times New Roman,serif" font-size="14.00">B</text>
<polyline fill="none" stroke="black" points="941.75,-217.8 941.75,-263.8 "/>
<text text-anchor="middle" x="959.25" y="-244.6" font-family="Times New Roman,serif" font-size="14.00">$4</text>
<text text-anchor="middle" x="959.25" y="-229.6" font-family="Times New Roman,serif" font-size="14.00">$or</text>
<polyline fill="none" stroke="black" points="976.75,-217.8 976.75,-263.8 "/>
<text text-anchor="middle" x="989.75" y="-237.1" font-family="Times New Roman,serif" font-size="14.00">Y</text>
</g>
<!-- x5 -->
<g id="node17" class="node">
<title>x5</title>
<path fill="none" stroke="black" d="M1074.75,-222.8C1074.75,-222.8 1112.75,-222.8 1112.75,-222.8 1118.75,-222.8 1124.75,-228.8 1124.75,-234.8 1124.75,-234.8 1124.75,-246.8 1124.75,-246.8 1124.75,-252.8 1118.75,-258.8 1112.75,-258.8 1112.75,-258.8 1074.75,-258.8 1074.75,-258.8 1068.75,-258.8 1062.75,-252.8 1062.75,-246.8 1062.75,-246.8 1062.75,-234.8 1062.75,-234.8 1062.75,-228.8 1068.75,-222.8 1074.75,-222.8"/>
<text text-anchor="middle" x="1093.75" y="-237.1" font-family="Times New Roman,serif" font-size="14.00">0:0 &#45; 1:1</text>
</g>
<!-- c17&#45;&gt;x5 -->
<g id="edge6" class="edge">
<title>c17:e&#45;&gt;x5:w</title>
<path fill="none" stroke="#e7298a" d="M1014.93,-240.8C1028.64,-240.8 1036.74,-240.8 1050.39,-240.8"/>
<polygon fill="none" stroke="#e7298a" points="1014.75,-240.8 1008.75,-244.8 1002.75,-240.8 1008.75,-236.8 1014.75,-240.8"/>
<polygon fill="none" stroke="#e7298a" points="1050.75,-240.8 1056.75,-236.8 1062.75,-240.8 1056.75,-244.8 1050.75,-240.8"/>
</g>
<!-- x4&#45;&gt;c17 -->
<g id="edge5" class="edge">
<title>x4:e&#45;&gt;c17:w</title>
<path fill="none" stroke="#e7298a" d="M652.28,-255.86C757.36,-256.85 791.67,-270.05 897.75,-238.8 901.04,-237.83 903.11,-236.18 904.89,-234.5"/>
<polygon fill="none" stroke="#e7298a" points="652.15,-255.86 646.13,-259.83 640.15,-255.8 646.17,-251.83 652.15,-255.86"/>
<polygon fill="none" stroke="#e7298a" points="905.13,-234.38 908.58,-228.05 915.75,-228.8 912.3,-235.13 905.13,-234.38"/>
</g>
<!-- x5&#45;&gt;n6 -->
<g id="edge17" class="edge">
<title>x5:e&#45;&gt;n6:w</title>
<path fill="none" stroke="#e6ab02" stroke-width="3" d="M1124.75,-240.8C1147.67,-240.8 1155.81,-240.8 1174.58,-240.8"/>
<polygon fill="#e6ab02" stroke="#e6ab02" stroke-width="3" points="1174.75,-244.3 1184.75,-240.8 1174.75,-237.3 1174.75,-244.3"/>
<text text-anchor="middle" x="1154.75" y="-244.6" font-family="Times New Roman,serif" font-size="14.00" fill="#e6ab02">&lt;2&gt;</text>
</g>
<!-- c18&#45;&gt;n9 -->
<g id="edge26" class="edge">
<title>c18:e&#45;&gt;n9:w</title>
<path fill="none" stroke="#d95f02" d="M1002.75,-120.8C1147.8,-120.8 1186.61,-120.8 1326.69,-120.8"/>
<polygon fill="#d95f02" stroke="#d95f02" points="1326.95,-124.3 1336.95,-120.8 1326.95,-117.3 1326.95,-124.3"/>
</g>
<!-- c23&#45;&gt;n7 -->
<g id="edge19" class="edge">
<title>c23:e&#45;&gt;n7:w</title>
<path fill="none" stroke="#d95f02" stroke-width="3" d="M231.94,-324.8C304.59,-324.8 286.7,-222.15 350.86,-212.52"/>
<polygon fill="#d95f02" stroke="#d95f02" stroke-width="3" points="351.22,-216.01 360.94,-211.8 350.72,-209.02 351.22,-216.01"/>
<text text-anchor="middle" x="296.44" y="-324.6" font-family="Times New Roman,serif" font-size="14.00" fill="#d95f02">&lt;2&gt;</text>
</g>
<!-- n1&#45;&gt;c17 -->
<g id="edge8" class="edge">
<title>n1:e&#45;&gt;c17:w</title>
<path fill="none" stroke="#7570b3" d="M817.75,-199.8C826.9,-199.8 827.63,-205.58 835.75,-209.8 862.92,-223.91 871.47,-224.11 897.75,-239.8 901.99,-242.33 904.02,-245.58 906.23,-248.2"/>
<polygon fill="#7570b3" stroke="#7570b3" points="905.22,-251.6 915.75,-252.8 908.27,-245.3 905.22,-251.6"/>
</g>
<!-- n1&#45;&gt;c18 -->
<g id="edge9" class="edge">
<title>n1:e&#45;&gt;c18:w</title>
<path fill="none" stroke="#7570b3" d="M817.75,-199.8C854.3,-199.8 870.34,-204.97 897.75,-180.8 911.24,-168.91 900.46,-145.9 906.51,-136.72"/>
<polygon fill="#7570b3" stroke="#7570b3" points="907.91,-139.93 915.75,-132.8 905.18,-133.48 907.91,-139.93"/>
</g>
<!-- n3&#45;&gt;c13 -->
<g id="edge12" class="edge">
<title>n3:e&#45;&gt;c13:w</title>
<path fill="none" stroke="#1b9e77" d="M532.15,-24.8C575.12,-24.8 633.91,-89.15 640.15,-95.8 646.63,-102.7 646.15,-112.17 649.12,-117.87"/>
<polygon fill="#1b9e77" stroke="#1b9e77" points="647.7,-121.08 658.15,-122.8 651.05,-114.93 647.7,-121.08"/>
</g>
<!-- n3&#45;&gt;c15 -->
<g id="edge13" class="edge">
<title>n3:e&#45;&gt;c15:w</title>
<path fill="none" stroke="#1b9e77" d="M532.15,-24.8C580.55,-24.8 594.83,-21.82 640.15,-38.8 644.65,-40.49 646.75,-43.49 648.92,-46.06"/>
<polygon fill="#1b9e77" stroke="#1b9e77" points="647.66,-49.35 658.15,-50.8 650.85,-43.12 647.66,-49.35"/>
</g>
</g>
</svg>
