<svg xmlns="http://www.w3.org/2000/svg" xmlns:xlink="http://www.w3.org/1999/xlink" xmlns:s="https://github.com/nturley/netlistsvg" width="411" height="295">
  <style>svg {
    stroke:#000;
    fill:none;
  }
  text {
    fill:#000;
    stroke:none;
    font-size:10px;
    font-weight: bold;
    font-family: "Courier New", monospace;
  }
  .nodelabel {
    text-anchor: middle;
  }
  .inputPortLabel {
    text-anchor: end;
  }
  .splitjoinBody {
    fill:#000;
  }</style>
  <g s:type="and" transform="translate(162,89.5)" s:width="30" s:height="25" id="cell_$and$top_module.v:24$2">
    <s:alias val="$and"/>
    <s:alias val="$logic_and"/>
    <s:alias val="$_AND_"/>
    <path d="M0,0 L0,25 L15,25 A15 12.5 0 0 0 15,0 Z" class="cell_$and$top_module.v:24$2"/>
    <g s:x="0" s:y="5" s:pid="A"/>
    <g s:x="0" s:y="20" s:pid="B"/>
    <g s:x="30" s:y="12.5" s:pid="Y"/>
  </g>
  <g s:type="and" transform="translate(97,154.5)" s:width="30" s:height="25" id="cell_$and$top_module.v:25$3">
    <s:alias val="$and"/>
    <s:alias val="$logic_and"/>
    <s:alias val="$_AND_"/>
    <path d="M0,0 L0,25 L15,25 A15 12.5 0 0 0 15,0 Z" class="cell_$and$top_module.v:25$3"/>
    <g s:x="0" s:y="5" s:pid="A"/>
    <g s:x="0" s:y="20" s:pid="B"/>
    <g s:x="30" s:y="12.5" s:pid="Y"/>
  </g>
  <g s:type="and" transform="translate(162,247)" s:width="30" s:height="25" id="cell_$and$top_module.v:34$8">
    <s:alias val="$and"/>
    <s:alias val="$logic_and"/>
    <s:alias val="$_AND_"/>
    <path d="M0,0 L0,25 L15,25 A15 12.5 0 0 0 15,0 Z" class="cell_$and$top_module.v:34$8"/>
    <g s:x="0" s:y="5" s:pid="A"/>
    <g s:x="0" s:y="20" s:pid="B"/>
    <g s:x="30" s:y="12.5" s:pid="Y"/>
  </g>
  <g s:type="not" transform="translate(97,99.5)" s:width="30" s:height="20" id="cell_$not$top_module.v:24$1">
    <s:alias val="$_NOT_"/>
    <s:alias val="$not"/>
    <s:alias val="$logic_not"/>
    <path d="M0,0 L0,20 L20,10 Z" class="cell_$not$top_module.v:24$1"/>
    <circle cx="23" cy="10" r="3" class="cell_$not$top_module.v:24$1"/>
    <g s:x="0" s:y="10" s:pid="A"/>
    <g s:x="25" s:y="10" s:pid="Y"/>
  </g>
  <g s:type="or" transform="translate(162,162)" s:width="30" s:height="25" id="cell_$or$top_module.v:25$4">
    <s:alias val="$or"/>
    <s:alias val="$logic_or"/>
    <s:alias val="$_OR_"/>
    <path d="M0,25 L0,25 L15,25 A15 12.5 0 0 0 15,0 L0,0" class="cell_$or$top_module.v:25$4"/>
    <path d="M0,0 A30 25 0 0 1 0,25" class="cell_$or$top_module.v:25$4"/>
    <g s:x="3" s:y="5" s:pid="A"/>
    <g s:x="3" s:y="20" s:pid="B"/>
    <g s:x="30" s:y="12.5" s:pid="Y"/>
  </g>
  <g s:type="or" transform="translate(231.33333333333334,239.5)" s:width="30" s:height="25" id="cell_$or$top_module.v:34$9">
    <s:alias val="$or"/>
    <s:alias val="$logic_or"/>
    <s:alias val="$_OR_"/>
    <path d="M0,25 L0,25 L15,25 A15 12.5 0 0 0 15,0 L0,0" class="cell_$or$top_module.v:34$9"/>
    <path d="M0,0 A30 25 0 0 1 0,25" class="cell_$or$top_module.v:34$9"/>
    <g s:x="3" s:y="5" s:pid="A"/>
    <g s:x="3" s:y="20" s:pid="B"/>
    <g s:x="30" s:y="12.5" s:pid="Y"/>
  </g>
  <g s:type="generic" transform="translate(323,66.5)" s:width="30" s:height="40" id="cell_$procdff$10">
    <text x="15" y="-4" class="nodelabel cell_$procdff$10" s:attribute="ref">$adff</text>
    <rect width="30" height="60" s:generic="body" class="cell_$procdff$10"/>
    <g transform="translate(0,10)" s:x="0" s:y="10" s:pid="in0" id="port_$procdff$10~ARST">
      <text x="-3" y="-4" class="inputPortLabel cell_$procdff$10">ARST</text>
    </g>
    <g transform="translate(0,30)" s:x="0" s:y="10" s:pid="in0" id="port_$procdff$10~CLK">
      <text x="-3" y="-4" class="inputPortLabel cell_$procdff$10">CLK</text>
    </g>
    <g transform="translate(0,50)" s:x="0" s:y="10" s:pid="in0" id="port_$procdff$10~D">
      <text x="-3" y="-4" class="inputPortLabel cell_$procdff$10">D</text>
    </g>
    <g transform="translate(30,10)" s:x="30" s:y="10" s:pid="out0" id="port_$procdff$10~Q">
      <text x="5" y="-4" style="fill:#000; stroke:none" class="cell_$procdff$10">Q</text>
    </g>
  </g>
  <g s:type="inputExt" transform="translate(227,87)" s:width="30" s:height="20" id="cell_clk">
    <text x="15" y="-4" class="nodelabel cell_clk" s:attribute="ref">clk</text>
    <s:alias val="$_inputExt_"/>
    <path d="M0,0 L0,20 L15,20 L30,10 L15,0 Z" class="cell_clk"/>
    <g s:x="28" s:y="10" s:pid="Y"/>
  </g>
  <g s:type="inputExt" transform="translate(227,22)" s:width="30" s:height="20" id="cell_areset">
    <text x="15" y="-4" class="nodelabel cell_areset" s:attribute="ref">areset</text>
    <s:alias val="$_inputExt_"/>
    <path d="M0,0 L0,20 L15,20 L30,10 L15,0 Z" class="cell_areset"/>
    <g s:x="28" s:y="10" s:pid="Y"/>
  </g>
  <g s:type="inputExt" transform="translate(32,164.5)" s:width="30" s:height="20" id="cell_x">
    <text x="15" y="-4" class="nodelabel cell_x" s:attribute="ref">x</text>
    <s:alias val="$_inputExt_"/>
    <path d="M0,0 L0,20 L15,20 L30,10 L15,0 Z" class="cell_x"/>
    <g s:x="28" s:y="10" s:pid="Y"/>
  </g>
  <g s:type="outputExt" transform="translate(323,242)" s:width="30" s:height="20" id="cell_z">
    <text x="15" y="-4" class="nodelabel cell_z" s:attribute="ref">z</text>
    <s:alias val="$_outputExt_"/>
    <path d="M30,0 L30,20 L15,20 L0,10 L15,0 Z" class="cell_z"/>
    <g s:x="0" s:y="10" s:pid="A"/>
  </g>
  <g s:type="join" transform="translate(240,144)" s:width="4" s:height="40" id="cell_$join$,8,12,">
    <rect width="5" height="40" class="splitjoinBody" s:generic="body"/>
    <s:alias val="$_join_"/>
    <g s:x="5" s:y="20" s:pid="out"/>
    <g transform="translate(0,10)" s:x="0" s:y="10" s:pid="in0">
      <text x="-3" y="-4" class="inputPortLabel">0</text>
    </g>
    <g transform="translate(0,30)" s:x="0" s:y="10" s:pid="in0">
      <text x="-3" y="-4" class="inputPortLabel">1</text>
    </g>
  </g>
  <g s:type="split" transform="translate(50,221.5)" s:width="5" s:height="40" id="cell_$split$,6,10,">
    <rect width="5" height="40" class="splitjoinBody" s:generic="body"/>
    <s:alias val="$_split_"/>
    <g s:x="0" s:y="20" s:pid="in"/>
    <g transform="translate(4,10)" s:x="4" s:y="10" s:pid="out0">
      <text x="5" y="-4">0</text>
    </g>
    <g transform="translate(4,30)" s:x="4" s:y="10" s:pid="out0">
      <text x="5" y="-4">1</text>
    </g>
  </g>
  <line x1="55" x2="72" y1="232" y2="232" class="net_6"/>
  <line x1="72" x2="72" y1="232" y2="88.5" class="net_6"/>
  <line x1="72" x2="137" y1="88.5" y2="88.5" class="net_6"/>
  <line x1="137" x2="137" y1="88.5" y2="94.5" class="net_6"/>
  <line x1="137" x2="162" y1="94.5" y2="94.5" class="net_6"/>
  <line x1="55" x2="72" y1="232" y2="232" class="net_6"/>
  <line x1="72" x2="72" y1="232" y2="159.5" class="net_6"/>
  <circle cx="72" cy="159.5" r="2" style="fill:#000" class="net_6"/>
  <line x1="72" x2="97" y1="159.5" y2="159.5" class="net_6"/>
  <line x1="122" x2="162" y1="109.5" y2="109.5" class="net_7"/>
  <line x1="122" x2="137" y1="109.5" y2="109.5" class="net_7"/>
  <line x1="137" x2="137" y1="109.5" y2="267" class="net_7"/>
  <circle cx="137" cy="109.5" r="2" style="fill:#000" class="net_7"/>
  <line x1="137" x2="162" y1="267" y2="267" class="net_7"/>
  <line x1="60" x2="97" y1="174.5" y2="174.5" class="net_4"/>
  <line x1="60" x2="82" y1="174.5" y2="174.5" class="net_4"/>
  <line x1="82" x2="82" y1="174.5" y2="109.5" class="net_4"/>
  <circle cx="82" cy="174.5" r="2" style="fill:#000" class="net_4"/>
  <line x1="82" x2="97" y1="109.5" y2="109.5" class="net_4"/>
  <line x1="55" x2="162" y1="252" y2="252" class="net_10"/>
  <line x1="55" x2="147" y1="252" y2="252" class="net_10"/>
  <line x1="147" x2="147" y1="252" y2="182" class="net_10"/>
  <circle cx="147" cy="252" r="2" style="fill:#000" class="net_10"/>
  <line x1="147" x2="165" y1="182" y2="182" class="net_10"/>
  <line x1="127" x2="165" y1="167" y2="167" class="net_9"/>
  <line x1="127" x2="147" y1="167" y2="167" class="net_9"/>
  <line x1="147" x2="147" y1="167" y2="151" class="net_9"/>
  <line x1="147" x2="202" y1="151" y2="151" class="net_9"/>
  <line x1="202" x2="202" y1="151" y2="244.5" class="net_9"/>
  <circle cx="147" cy="167" r="2" style="fill:#000" class="net_9"/>
  <line x1="202" x2="234.33333333333334" y1="244.5" y2="244.5" class="net_9"/>
  <line x1="192" x2="234.33333333333334" y1="259.5" y2="259.5" class="net_11"/>
  <line x1="255" x2="273" y1="32" y2="32" class="net_3"/>
  <line x1="273" x2="273" y1="32" y2="77" class="net_3"/>
  <line x1="273" x2="323" y1="77" y2="77" class="net_3"/>
  <line x1="255" x2="323" y1="97" y2="97" class="net_2"/>
  <line x1="246" x2="273" y1="164.5" y2="164.5" class="net_8,12"/>
  <line x1="273" x2="273" y1="164.5" y2="117" class="net_8,12"/>
  <line x1="273" x2="323" y1="117" y2="117" class="net_8,12"/>
  <line x1="261.33333333333337" x2="323" y1="252" y2="252" class="net_5"/>
  <line x1="192" x2="212" y1="102" y2="102" class="net_8"/>
  <line x1="212" x2="212" y1="102" y2="154.5" class="net_8"/>
  <line x1="212" x2="240" y1="154.5" y2="154.5" class="net_8"/>
  <line x1="192" x2="240" y1="174.5" y2="174.5" class="net_12"/>
  <line x1="354" x2="399" y1="77" y2="77" class="net_6,10"/>
  <line x1="399" x2="399" y1="77" y2="282" class="net_6,10"/>
  <line x1="399" x2="12" y1="282" y2="282" class="net_6,10"/>
  <line x1="12" x2="12" y1="282" y2="242" class="net_6,10"/>
  <line x1="12" x2="50" y1="242" y2="242" class="net_6,10"/>
</svg>
