<svg xmlns="http://www.w3.org/2000/svg" xmlns:xlink="http://www.w3.org/1999/xlink" xmlns:s="https://github.com/nturley/netlistsvg" width="1934" height="555">
  <style>svg {
    stroke:#000;
    fill:none;
  }
  text {
    fill:#000;
    stroke:none;
    font-size:10px;
    font-weight: bold;
    font-family: "Courier New", monospace;
  }
  .nodelabel {
    text-anchor: middle;
  }
  .inputPortLabel {
    text-anchor: end;
  }
  .splitjoinBody {
    fill:#000;
  }</style>
  <g s:type="and" transform="translate(1124,219)" s:width="30" s:height="25" id="cell_$auto$aigmap.cc:123:execute$102">
    <s:alias val="$and"/>
    <s:alias val="$logic_and"/>
    <s:alias val="$_AND_"/>
    <path d="M0,0 L0,25 L15,25 A15 12.5 0 0 0 15,0 Z" class="cell_$auto$aigmap.cc:123:execute$102"/>
    <g s:x="0" s:y="5" s:pid="A"/>
    <g s:x="0" s:y="20" s:pid="B"/>
    <g s:x="30" s:y="12.5" s:pid="Y"/>
  </g>
  <g s:type="and" transform="translate(1124,342)" s:width="30" s:height="25" id="cell_$auto$aigmap.cc:123:execute$106">
    <s:alias val="$and"/>
    <s:alias val="$logic_and"/>
    <s:alias val="$_AND_"/>
    <path d="M0,0 L0,25 L15,25 A15 12.5 0 0 0 15,0 Z" class="cell_$auto$aigmap.cc:123:execute$106"/>
    <g s:x="0" s:y="5" s:pid="A"/>
    <g s:x="0" s:y="20" s:pid="B"/>
    <g s:x="30" s:y="12.5" s:pid="Y"/>
  </g>
  <g s:type="and" transform="translate(1254,226.5)" s:width="30" s:height="25" id="cell_$auto$aigmap.cc:123:execute$110">
    <s:alias val="$and"/>
    <s:alias val="$logic_and"/>
    <s:alias val="$_AND_"/>
    <path d="M0,0 L0,25 L15,25 A15 12.5 0 0 0 15,0 Z" class="cell_$auto$aigmap.cc:123:execute$110"/>
    <g s:x="0" s:y="5" s:pid="A"/>
    <g s:x="0" s:y="20" s:pid="B"/>
    <g s:x="30" s:y="12.5" s:pid="Y"/>
  </g>
  <g s:type="and" transform="translate(1059,102)" s:width="30" s:height="25" id="cell_$auto$aigmap.cc:123:execute$116">
    <s:alias val="$and"/>
    <s:alias val="$logic_and"/>
    <s:alias val="$_AND_"/>
    <path d="M0,0 L0,25 L15,25 A15 12.5 0 0 0 15,0 Z" class="cell_$auto$aigmap.cc:123:execute$116"/>
    <g s:x="0" s:y="5" s:pid="A"/>
    <g s:x="0" s:y="20" s:pid="B"/>
    <g s:x="30" s:y="12.5" s:pid="Y"/>
  </g>
  <g s:type="and" transform="translate(1059,162)" s:width="30" s:height="25" id="cell_$auto$aigmap.cc:123:execute$120">
    <s:alias val="$and"/>
    <s:alias val="$logic_and"/>
    <s:alias val="$_AND_"/>
    <path d="M0,0 L0,25 L15,25 A15 12.5 0 0 0 15,0 Z" class="cell_$auto$aigmap.cc:123:execute$120"/>
    <g s:x="0" s:y="5" s:pid="A"/>
    <g s:x="0" s:y="20" s:pid="B"/>
    <g s:x="30" s:y="12.5" s:pid="Y"/>
  </g>
  <g s:type="and" transform="translate(1189,109.5)" s:width="30" s:height="25" id="cell_$auto$aigmap.cc:123:execute$124">
    <s:alias val="$and"/>
    <s:alias val="$logic_and"/>
    <s:alias val="$_AND_"/>
    <path d="M0,0 L0,25 L15,25 A15 12.5 0 0 0 15,0 Z" class="cell_$auto$aigmap.cc:123:execute$124"/>
    <g s:x="0" s:y="5" s:pid="A"/>
    <g s:x="0" s:y="20" s:pid="B"/>
    <g s:x="30" s:y="12.5" s:pid="Y"/>
  </g>
  <g s:type="and" transform="translate(664,307)" s:width="30" s:height="25" id="cell_$auto$aigmap.cc:123:execute$130">
    <s:alias val="$and"/>
    <s:alias val="$logic_and"/>
    <s:alias val="$_AND_"/>
    <path d="M0,0 L0,25 L15,25 A15 12.5 0 0 0 15,0 Z" class="cell_$auto$aigmap.cc:123:execute$130"/>
    <g s:x="0" s:y="5" s:pid="A"/>
    <g s:x="0" s:y="20" s:pid="B"/>
    <g s:x="30" s:y="12.5" s:pid="Y"/>
  </g>
  <g s:type="and" transform="translate(664,367)" s:width="30" s:height="25" id="cell_$auto$aigmap.cc:123:execute$134">
    <s:alias val="$and"/>
    <s:alias val="$logic_and"/>
    <s:alias val="$_AND_"/>
    <path d="M0,0 L0,25 L15,25 A15 12.5 0 0 0 15,0 Z" class="cell_$auto$aigmap.cc:123:execute$134"/>
    <g s:x="0" s:y="5" s:pid="A"/>
    <g s:x="0" s:y="20" s:pid="B"/>
    <g s:x="30" s:y="12.5" s:pid="Y"/>
  </g>
  <g s:type="and" transform="translate(794,314.5)" s:width="30" s:height="25" id="cell_$auto$aigmap.cc:123:execute$138">
    <s:alias val="$and"/>
    <s:alias val="$logic_and"/>
    <s:alias val="$_AND_"/>
    <path d="M0,0 L0,25 L15,25 A15 12.5 0 0 0 15,0 Z" class="cell_$auto$aigmap.cc:123:execute$138"/>
    <g s:x="0" s:y="5" s:pid="A"/>
    <g s:x="0" s:y="20" s:pid="B"/>
    <g s:x="30" s:y="12.5" s:pid="Y"/>
  </g>
  <g s:type="and" transform="translate(209,352)" s:width="30" s:height="25" id="cell_$auto$aigmap.cc:123:execute$144">
    <s:alias val="$and"/>
    <s:alias val="$logic_and"/>
    <s:alias val="$_AND_"/>
    <path d="M0,0 L0,25 L15,25 A15 12.5 0 0 0 15,0 Z" class="cell_$auto$aigmap.cc:123:execute$144"/>
    <g s:x="0" s:y="5" s:pid="A"/>
    <g s:x="0" s:y="20" s:pid="B"/>
    <g s:x="30" s:y="12.5" s:pid="Y"/>
  </g>
  <g s:type="and" transform="translate(209,412)" s:width="30" s:height="25" id="cell_$auto$aigmap.cc:123:execute$148">
    <s:alias val="$and"/>
    <s:alias val="$logic_and"/>
    <s:alias val="$_AND_"/>
    <path d="M0,0 L0,25 L15,25 A15 12.5 0 0 0 15,0 Z" class="cell_$auto$aigmap.cc:123:execute$148"/>
    <g s:x="0" s:y="5" s:pid="A"/>
    <g s:x="0" s:y="20" s:pid="B"/>
    <g s:x="30" s:y="12.5" s:pid="Y"/>
  </g>
  <g s:type="and" transform="translate(339,359.5)" s:width="30" s:height="25" id="cell_$auto$aigmap.cc:123:execute$152">
    <s:alias val="$and"/>
    <s:alias val="$logic_and"/>
    <s:alias val="$_AND_"/>
    <path d="M0,0 L0,25 L15,25 A15 12.5 0 0 0 15,0 Z" class="cell_$auto$aigmap.cc:123:execute$152"/>
    <g s:x="0" s:y="5" s:pid="A"/>
    <g s:x="0" s:y="20" s:pid="B"/>
    <g s:x="30" s:y="12.5" s:pid="Y"/>
  </g>
  <g s:type="and" transform="translate(1449,203)" s:width="30" s:height="25" id="cell_$auto$aigmap.cc:123:execute$36">
    <s:alias val="$and"/>
    <s:alias val="$logic_and"/>
    <s:alias val="$_AND_"/>
    <path d="M0,0 L0,25 L15,25 A15 12.5 0 0 0 15,0 Z" class="cell_$auto$aigmap.cc:123:execute$36"/>
    <g s:x="0" s:y="5" s:pid="A"/>
    <g s:x="0" s:y="20" s:pid="B"/>
    <g s:x="30" s:y="12.5" s:pid="Y"/>
  </g>
  <g s:type="and" transform="translate(534,250)" s:width="30" s:height="25" id="cell_$auto$aigmap.cc:123:execute$38">
    <s:alias val="$and"/>
    <s:alias val="$logic_and"/>
    <s:alias val="$_AND_"/>
    <path d="M0,0 L0,25 L15,25 A15 12.5 0 0 0 15,0 Z" class="cell_$auto$aigmap.cc:123:execute$38"/>
    <g s:x="0" s:y="5" s:pid="A"/>
    <g s:x="0" s:y="20" s:pid="B"/>
    <g s:x="30" s:y="12.5" s:pid="Y"/>
  </g>
  <g s:type="and" transform="translate(989,291)" s:width="30" s:height="25" id="cell_$auto$aigmap.cc:123:execute$40">
    <s:alias val="$and"/>
    <s:alias val="$logic_and"/>
    <s:alias val="$_AND_"/>
    <path d="M0,0 L0,25 L15,25 A15 12.5 0 0 0 15,0 Z" class="cell_$auto$aigmap.cc:123:execute$40"/>
    <g s:x="0" s:y="5" s:pid="A"/>
    <g s:x="0" s:y="20" s:pid="B"/>
    <g s:x="30" s:y="12.5" s:pid="Y"/>
  </g>
  <g s:type="and" transform="translate(1584,12)" s:width="30" s:height="25" id="cell_$auto$aigmap.cc:123:execute$50">
    <s:alias val="$and"/>
    <s:alias val="$logic_and"/>
    <s:alias val="$_AND_"/>
    <path d="M0,0 L0,25 L15,25 A15 12.5 0 0 0 15,0 Z" class="cell_$auto$aigmap.cc:123:execute$50"/>
    <g s:x="0" s:y="5" s:pid="A"/>
    <g s:x="0" s:y="20" s:pid="B"/>
    <g s:x="30" s:y="12.5" s:pid="Y"/>
  </g>
  <g s:type="and" transform="translate(1584,72)" s:width="30" s:height="25" id="cell_$auto$aigmap.cc:123:execute$54">
    <s:alias val="$and"/>
    <s:alias val="$logic_and"/>
    <s:alias val="$_AND_"/>
    <path d="M0,0 L0,25 L15,25 A15 12.5 0 0 0 15,0 Z" class="cell_$auto$aigmap.cc:123:execute$54"/>
    <g s:x="0" s:y="5" s:pid="A"/>
    <g s:x="0" s:y="20" s:pid="B"/>
    <g s:x="30" s:y="12.5" s:pid="Y"/>
  </g>
  <g s:type="and" transform="translate(1714,19.5)" s:width="30" s:height="25" id="cell_$auto$aigmap.cc:123:execute$58">
    <s:alias val="$and"/>
    <s:alias val="$logic_and"/>
    <s:alias val="$_AND_"/>
    <path d="M0,0 L0,25 L15,25 A15 12.5 0 0 0 15,0 Z" class="cell_$auto$aigmap.cc:123:execute$58"/>
    <g s:x="0" s:y="5" s:pid="A"/>
    <g s:x="0" s:y="20" s:pid="B"/>
    <g s:x="30" s:y="12.5" s:pid="Y"/>
  </g>
  <g s:type="and" transform="translate(1584,210.5)" s:width="30" s:height="25" id="cell_$auto$aigmap.cc:123:execute$62">
    <s:alias val="$and"/>
    <s:alias val="$logic_and"/>
    <s:alias val="$_AND_"/>
    <path d="M0,0 L0,25 L15,25 A15 12.5 0 0 0 15,0 Z" class="cell_$auto$aigmap.cc:123:execute$62"/>
    <g s:x="0" s:y="5" s:pid="A"/>
    <g s:x="0" s:y="20" s:pid="B"/>
    <g s:x="30" s:y="12.5" s:pid="Y"/>
  </g>
  <g s:type="and" transform="translate(1584,270.5)" s:width="30" s:height="25" id="cell_$auto$aigmap.cc:123:execute$66">
    <s:alias val="$and"/>
    <s:alias val="$logic_and"/>
    <s:alias val="$_AND_"/>
    <path d="M0,0 L0,25 L15,25 A15 12.5 0 0 0 15,0 Z" class="cell_$auto$aigmap.cc:123:execute$66"/>
    <g s:x="0" s:y="5" s:pid="A"/>
    <g s:x="0" s:y="20" s:pid="B"/>
    <g s:x="30" s:y="12.5" s:pid="Y"/>
  </g>
  <g s:type="and" transform="translate(1714,218)" s:width="30" s:height="25" id="cell_$auto$aigmap.cc:123:execute$70">
    <s:alias val="$and"/>
    <s:alias val="$logic_and"/>
    <s:alias val="$_AND_"/>
    <path d="M0,0 L0,25 L15,25 A15 12.5 0 0 0 15,0 Z" class="cell_$auto$aigmap.cc:123:execute$70"/>
    <g s:x="0" s:y="5" s:pid="A"/>
    <g s:x="0" s:y="20" s:pid="B"/>
    <g s:x="30" s:y="12.5" s:pid="Y"/>
  </g>
  <g s:type="and" transform="translate(1319,57)" s:width="30" s:height="25" id="cell_$auto$aigmap.cc:123:execute$76">
    <s:alias val="$and"/>
    <s:alias val="$logic_and"/>
    <s:alias val="$_AND_"/>
    <path d="M0,0 L0,25 L15,25 A15 12.5 0 0 0 15,0 Z" class="cell_$auto$aigmap.cc:123:execute$76"/>
    <g s:x="0" s:y="5" s:pid="A"/>
    <g s:x="0" s:y="20" s:pid="B"/>
    <g s:x="30" s:y="12.5" s:pid="Y"/>
  </g>
  <g s:type="and" transform="translate(1319,117)" s:width="30" s:height="25" id="cell_$auto$aigmap.cc:123:execute$80">
    <s:alias val="$and"/>
    <s:alias val="$logic_and"/>
    <s:alias val="$_AND_"/>
    <path d="M0,0 L0,25 L15,25 A15 12.5 0 0 0 15,0 Z" class="cell_$auto$aigmap.cc:123:execute$80"/>
    <g s:x="0" s:y="5" s:pid="A"/>
    <g s:x="0" s:y="20" s:pid="B"/>
    <g s:x="30" s:y="12.5" s:pid="Y"/>
  </g>
  <g s:type="and" transform="translate(1449,64.5)" s:width="30" s:height="25" id="cell_$auto$aigmap.cc:123:execute$84">
    <s:alias val="$and"/>
    <s:alias val="$logic_and"/>
    <s:alias val="$_AND_"/>
    <path d="M0,0 L0,25 L15,25 A15 12.5 0 0 0 15,0 Z" class="cell_$auto$aigmap.cc:123:execute$84"/>
    <g s:x="0" s:y="5" s:pid="A"/>
    <g s:x="0" s:y="20" s:pid="B"/>
    <g s:x="30" s:y="12.5" s:pid="Y"/>
  </g>
  <g s:type="and" transform="translate(1319,458)" s:width="30" s:height="25" id="cell_$auto$aigmap.cc:123:execute$88">
    <s:alias val="$and"/>
    <s:alias val="$logic_and"/>
    <s:alias val="$_AND_"/>
    <path d="M0,0 L0,25 L15,25 A15 12.5 0 0 0 15,0 Z" class="cell_$auto$aigmap.cc:123:execute$88"/>
    <g s:x="0" s:y="5" s:pid="A"/>
    <g s:x="0" s:y="20" s:pid="B"/>
    <g s:x="30" s:y="12.5" s:pid="Y"/>
  </g>
  <g s:type="and" transform="translate(1319,518)" s:width="30" s:height="25" id="cell_$auto$aigmap.cc:123:execute$92">
    <s:alias val="$and"/>
    <s:alias val="$logic_and"/>
    <s:alias val="$_AND_"/>
    <path d="M0,0 L0,25 L15,25 A15 12.5 0 0 0 15,0 Z" class="cell_$auto$aigmap.cc:123:execute$92"/>
    <g s:x="0" s:y="5" s:pid="A"/>
    <g s:x="0" s:y="20" s:pid="B"/>
    <g s:x="30" s:y="12.5" s:pid="Y"/>
  </g>
  <g s:type="and" transform="translate(1449,465.5)" s:width="30" s:height="25" id="cell_$auto$aigmap.cc:123:execute$96">
    <s:alias val="$and"/>
    <s:alias val="$logic_and"/>
    <s:alias val="$_AND_"/>
    <path d="M0,0 L0,25 L15,25 A15 12.5 0 0 0 15,0 Z" class="cell_$auto$aigmap.cc:123:execute$96"/>
    <g s:x="0" s:y="5" s:pid="A"/>
    <g s:x="0" s:y="20" s:pid="B"/>
    <g s:x="30" s:y="12.5" s:pid="Y"/>
  </g>
  <g s:type="not" transform="translate(1059,358)" s:width="30" s:height="20" id="cell_$auto$aigmap.cc:132:execute$100">
    <s:alias val="$_NOT_"/>
    <s:alias val="$not"/>
    <s:alias val="$logic_not"/>
    <path d="M0,0 L0,20 L20,10 Z" class="cell_$auto$aigmap.cc:132:execute$100"/>
    <circle cx="23" cy="10" r="3" class="cell_$auto$aigmap.cc:132:execute$100"/>
    <g s:x="0" s:y="10" s:pid="A"/>
    <g s:x="25" s:y="10" s:pid="Y"/>
  </g>
  <g s:type="not" transform="translate(1189,221.5)" s:width="30" s:height="20" id="cell_$auto$aigmap.cc:132:execute$104">
    <s:alias val="$_NOT_"/>
    <s:alias val="$not"/>
    <s:alias val="$logic_not"/>
    <path d="M0,0 L0,20 L20,10 Z" class="cell_$auto$aigmap.cc:132:execute$104"/>
    <circle cx="23" cy="10" r="3" class="cell_$auto$aigmap.cc:132:execute$104"/>
    <g s:x="0" s:y="10" s:pid="A"/>
    <g s:x="25" s:y="10" s:pid="Y"/>
  </g>
  <g s:type="not" transform="translate(1189,344.5)" s:width="30" s:height="20" id="cell_$auto$aigmap.cc:132:execute$108">
    <s:alias val="$_NOT_"/>
    <s:alias val="$not"/>
    <s:alias val="$logic_not"/>
    <path d="M0,0 L0,20 L20,10 Z" class="cell_$auto$aigmap.cc:132:execute$108"/>
    <circle cx="23" cy="10" r="3" class="cell_$auto$aigmap.cc:132:execute$108"/>
    <g s:x="0" s:y="10" s:pid="A"/>
    <g s:x="25" s:y="10" s:pid="Y"/>
  </g>
  <g s:type="not" transform="translate(1319,229)" s:width="30" s:height="20" id="cell_$auto$aigmap.cc:132:execute$112">
    <s:alias val="$_NOT_"/>
    <s:alias val="$not"/>
    <s:alias val="$logic_not"/>
    <path d="M0,0 L0,20 L20,10 Z" class="cell_$auto$aigmap.cc:132:execute$112"/>
    <circle cx="23" cy="10" r="3" class="cell_$auto$aigmap.cc:132:execute$112"/>
    <g s:x="0" s:y="10" s:pid="A"/>
    <g s:x="25" s:y="10" s:pid="Y"/>
  </g>
  <g s:type="not" transform="translate(989,178)" s:width="30" s:height="20" id="cell_$auto$aigmap.cc:132:execute$114">
    <s:alias val="$_NOT_"/>
    <s:alias val="$not"/>
    <s:alias val="$logic_not"/>
    <path d="M0,0 L0,20 L20,10 Z" class="cell_$auto$aigmap.cc:132:execute$114"/>
    <circle cx="23" cy="10" r="3" class="cell_$auto$aigmap.cc:132:execute$114"/>
    <g s:x="0" s:y="10" s:pid="A"/>
    <g s:x="25" s:y="10" s:pid="Y"/>
  </g>
  <g s:type="not" transform="translate(1124,104.5)" s:width="30" s:height="20" id="cell_$auto$aigmap.cc:132:execute$118">
    <s:alias val="$_NOT_"/>
    <s:alias val="$not"/>
    <s:alias val="$logic_not"/>
    <path d="M0,0 L0,20 L20,10 Z" class="cell_$auto$aigmap.cc:132:execute$118"/>
    <circle cx="23" cy="10" r="3" class="cell_$auto$aigmap.cc:132:execute$118"/>
    <g s:x="0" s:y="10" s:pid="A"/>
    <g s:x="25" s:y="10" s:pid="Y"/>
  </g>
  <g s:type="not" transform="translate(1124,164.5)" s:width="30" s:height="20" id="cell_$auto$aigmap.cc:132:execute$122">
    <s:alias val="$_NOT_"/>
    <s:alias val="$not"/>
    <s:alias val="$logic_not"/>
    <path d="M0,0 L0,20 L20,10 Z" class="cell_$auto$aigmap.cc:132:execute$122"/>
    <circle cx="23" cy="10" r="3" class="cell_$auto$aigmap.cc:132:execute$122"/>
    <g s:x="0" s:y="10" s:pid="A"/>
    <g s:x="25" s:y="10" s:pid="Y"/>
  </g>
  <g s:type="not" transform="translate(1254,112)" s:width="30" s:height="20" id="cell_$auto$aigmap.cc:132:execute$126">
    <s:alias val="$_NOT_"/>
    <s:alias val="$not"/>
    <s:alias val="$logic_not"/>
    <path d="M0,0 L0,20 L20,10 Z" class="cell_$auto$aigmap.cc:132:execute$126"/>
    <circle cx="23" cy="10" r="3" class="cell_$auto$aigmap.cc:132:execute$126"/>
    <g s:x="0" s:y="10" s:pid="A"/>
    <g s:x="25" s:y="10" s:pid="Y"/>
  </g>
  <g s:type="not" transform="translate(599,383)" s:width="30" s:height="20" id="cell_$auto$aigmap.cc:132:execute$128">
    <s:alias val="$_NOT_"/>
    <s:alias val="$not"/>
    <s:alias val="$logic_not"/>
    <path d="M0,0 L0,20 L20,10 Z" class="cell_$auto$aigmap.cc:132:execute$128"/>
    <circle cx="23" cy="10" r="3" class="cell_$auto$aigmap.cc:132:execute$128"/>
    <g s:x="0" s:y="10" s:pid="A"/>
    <g s:x="25" s:y="10" s:pid="Y"/>
  </g>
  <g s:type="not" transform="translate(729,309.5)" s:width="30" s:height="20" id="cell_$auto$aigmap.cc:132:execute$132">
    <s:alias val="$_NOT_"/>
    <s:alias val="$not"/>
    <s:alias val="$logic_not"/>
    <path d="M0,0 L0,20 L20,10 Z" class="cell_$auto$aigmap.cc:132:execute$132"/>
    <circle cx="23" cy="10" r="3" class="cell_$auto$aigmap.cc:132:execute$132"/>
    <g s:x="0" s:y="10" s:pid="A"/>
    <g s:x="25" s:y="10" s:pid="Y"/>
  </g>
  <g s:type="not" transform="translate(729,369.5)" s:width="30" s:height="20" id="cell_$auto$aigmap.cc:132:execute$136">
    <s:alias val="$_NOT_"/>
    <s:alias val="$not"/>
    <s:alias val="$logic_not"/>
    <path d="M0,0 L0,20 L20,10 Z" class="cell_$auto$aigmap.cc:132:execute$136"/>
    <circle cx="23" cy="10" r="3" class="cell_$auto$aigmap.cc:132:execute$136"/>
    <g s:x="0" s:y="10" s:pid="A"/>
    <g s:x="25" s:y="10" s:pid="Y"/>
  </g>
  <g s:type="not" transform="translate(859,317)" s:width="30" s:height="20" id="cell_$auto$aigmap.cc:132:execute$140">
    <s:alias val="$_NOT_"/>
    <s:alias val="$not"/>
    <s:alias val="$logic_not"/>
    <path d="M0,0 L0,20 L20,10 Z" class="cell_$auto$aigmap.cc:132:execute$140"/>
    <circle cx="23" cy="10" r="3" class="cell_$auto$aigmap.cc:132:execute$140"/>
    <g s:x="0" s:y="10" s:pid="A"/>
    <g s:x="25" s:y="10" s:pid="Y"/>
  </g>
  <g s:type="not" transform="translate(129,513)" s:width="30" s:height="20" id="cell_$auto$aigmap.cc:132:execute$142">
    <s:alias val="$_NOT_"/>
    <s:alias val="$not"/>
    <s:alias val="$logic_not"/>
    <path d="M0,0 L0,20 L20,10 Z" class="cell_$auto$aigmap.cc:132:execute$142"/>
    <circle cx="23" cy="10" r="3" class="cell_$auto$aigmap.cc:132:execute$142"/>
    <g s:x="0" s:y="10" s:pid="A"/>
    <g s:x="25" s:y="10" s:pid="Y"/>
  </g>
  <g s:type="not" transform="translate(274,354.5)" s:width="30" s:height="20" id="cell_$auto$aigmap.cc:132:execute$146">
    <s:alias val="$_NOT_"/>
    <s:alias val="$not"/>
    <s:alias val="$logic_not"/>
    <path d="M0,0 L0,20 L20,10 Z" class="cell_$auto$aigmap.cc:132:execute$146"/>
    <circle cx="23" cy="10" r="3" class="cell_$auto$aigmap.cc:132:execute$146"/>
    <g s:x="0" s:y="10" s:pid="A"/>
    <g s:x="25" s:y="10" s:pid="Y"/>
  </g>
  <g s:type="not" transform="translate(274,414.5)" s:width="30" s:height="20" id="cell_$auto$aigmap.cc:132:execute$150">
    <s:alias val="$_NOT_"/>
    <s:alias val="$not"/>
    <s:alias val="$logic_not"/>
    <path d="M0,0 L0,20 L20,10 Z" class="cell_$auto$aigmap.cc:132:execute$150"/>
    <circle cx="23" cy="10" r="3" class="cell_$auto$aigmap.cc:132:execute$150"/>
    <g s:x="0" s:y="10" s:pid="A"/>
    <g s:x="25" s:y="10" s:pid="Y"/>
  </g>
  <g s:type="not" transform="translate(404,362)" s:width="30" s:height="20" id="cell_$auto$aigmap.cc:132:execute$154">
    <s:alias val="$_NOT_"/>
    <s:alias val="$not"/>
    <s:alias val="$logic_not"/>
    <path d="M0,0 L0,20 L20,10 Z" class="cell_$auto$aigmap.cc:132:execute$154"/>
    <circle cx="23" cy="10" r="3" class="cell_$auto$aigmap.cc:132:execute$154"/>
    <g s:x="0" s:y="10" s:pid="A"/>
    <g s:x="25" s:y="10" s:pid="Y"/>
  </g>
  <g s:type="not" transform="translate(469,266)" s:width="30" s:height="20" id="cell_$auto$aigmap.cc:132:execute$42">
    <s:alias val="$_NOT_"/>
    <s:alias val="$not"/>
    <s:alias val="$logic_not"/>
    <path d="M0,0 L0,20 L20,10 Z" class="cell_$auto$aigmap.cc:132:execute$42"/>
    <circle cx="23" cy="10" r="3" class="cell_$auto$aigmap.cc:132:execute$42"/>
    <g s:x="0" s:y="10" s:pid="A"/>
    <g s:x="25" s:y="10" s:pid="Y"/>
  </g>
  <g s:type="not" transform="translate(924,317)" s:width="30" s:height="20" id="cell_$auto$aigmap.cc:132:execute$44">
    <s:alias val="$_NOT_"/>
    <s:alias val="$not"/>
    <s:alias val="$logic_not"/>
    <path d="M0,0 L0,20 L20,10 Z" class="cell_$auto$aigmap.cc:132:execute$44"/>
    <circle cx="23" cy="10" r="3" class="cell_$auto$aigmap.cc:132:execute$44"/>
    <g s:x="0" s:y="10" s:pid="A"/>
    <g s:x="25" s:y="10" s:pid="Y"/>
  </g>
  <g s:type="not" transform="translate(1384,229)" s:width="30" s:height="20" id="cell_$auto$aigmap.cc:132:execute$46">
    <s:alias val="$_NOT_"/>
    <s:alias val="$not"/>
    <s:alias val="$logic_not"/>
    <path d="M0,0 L0,20 L20,10 Z" class="cell_$auto$aigmap.cc:132:execute$46"/>
    <circle cx="23" cy="10" r="3" class="cell_$auto$aigmap.cc:132:execute$46"/>
    <g s:x="0" s:y="10" s:pid="A"/>
    <g s:x="25" s:y="10" s:pid="Y"/>
  </g>
  <g s:type="not" transform="translate(1514,265.5)" s:width="30" s:height="20" id="cell_$auto$aigmap.cc:132:execute$48">
    <s:alias val="$_NOT_"/>
    <s:alias val="$not"/>
    <s:alias val="$logic_not"/>
    <path d="M0,0 L0,20 L20,10 Z" class="cell_$auto$aigmap.cc:132:execute$48"/>
    <circle cx="23" cy="10" r="3" class="cell_$auto$aigmap.cc:132:execute$48"/>
    <g s:x="0" s:y="10" s:pid="A"/>
    <g s:x="25" s:y="10" s:pid="Y"/>
  </g>
  <g s:type="not" transform="translate(1649,14.5)" s:width="30" s:height="20" id="cell_$auto$aigmap.cc:132:execute$52">
    <s:alias val="$_NOT_"/>
    <s:alias val="$not"/>
    <s:alias val="$logic_not"/>
    <path d="M0,0 L0,20 L20,10 Z" class="cell_$auto$aigmap.cc:132:execute$52"/>
    <circle cx="23" cy="10" r="3" class="cell_$auto$aigmap.cc:132:execute$52"/>
    <g s:x="0" s:y="10" s:pid="A"/>
    <g s:x="25" s:y="10" s:pid="Y"/>
  </g>
  <g s:type="not" transform="translate(1649,74.5)" s:width="30" s:height="20" id="cell_$auto$aigmap.cc:132:execute$56">
    <s:alias val="$_NOT_"/>
    <s:alias val="$not"/>
    <s:alias val="$logic_not"/>
    <path d="M0,0 L0,20 L20,10 Z" class="cell_$auto$aigmap.cc:132:execute$56"/>
    <circle cx="23" cy="10" r="3" class="cell_$auto$aigmap.cc:132:execute$56"/>
    <g s:x="0" s:y="10" s:pid="A"/>
    <g s:x="25" s:y="10" s:pid="Y"/>
  </g>
  <g s:type="not" transform="translate(1779,22)" s:width="30" s:height="20" id="cell_$auto$aigmap.cc:132:execute$60">
    <s:alias val="$_NOT_"/>
    <s:alias val="$not"/>
    <s:alias val="$logic_not"/>
    <path d="M0,0 L0,20 L20,10 Z" class="cell_$auto$aigmap.cc:132:execute$60"/>
    <circle cx="23" cy="10" r="3" class="cell_$auto$aigmap.cc:132:execute$60"/>
    <g s:x="0" s:y="10" s:pid="A"/>
    <g s:x="25" s:y="10" s:pid="Y"/>
  </g>
  <g s:type="not" transform="translate(1649,213)" s:width="30" s:height="20" id="cell_$auto$aigmap.cc:132:execute$64">
    <s:alias val="$_NOT_"/>
    <s:alias val="$not"/>
    <s:alias val="$logic_not"/>
    <path d="M0,0 L0,20 L20,10 Z" class="cell_$auto$aigmap.cc:132:execute$64"/>
    <circle cx="23" cy="10" r="3" class="cell_$auto$aigmap.cc:132:execute$64"/>
    <g s:x="0" s:y="10" s:pid="A"/>
    <g s:x="25" s:y="10" s:pid="Y"/>
  </g>
  <g s:type="not" transform="translate(1649,273)" s:width="30" s:height="20" id="cell_$auto$aigmap.cc:132:execute$68">
    <s:alias val="$_NOT_"/>
    <s:alias val="$not"/>
    <s:alias val="$logic_not"/>
    <path d="M0,0 L0,20 L20,10 Z" class="cell_$auto$aigmap.cc:132:execute$68"/>
    <circle cx="23" cy="10" r="3" class="cell_$auto$aigmap.cc:132:execute$68"/>
    <g s:x="0" s:y="10" s:pid="A"/>
    <g s:x="25" s:y="10" s:pid="Y"/>
  </g>
  <g s:type="not" transform="translate(1779,220.5)" s:width="30" s:height="20" id="cell_$auto$aigmap.cc:132:execute$72">
    <s:alias val="$_NOT_"/>
    <s:alias val="$not"/>
    <s:alias val="$logic_not"/>
    <path d="M0,0 L0,20 L20,10 Z" class="cell_$auto$aigmap.cc:132:execute$72"/>
    <circle cx="23" cy="10" r="3" class="cell_$auto$aigmap.cc:132:execute$72"/>
    <g s:x="0" s:y="10" s:pid="A"/>
    <g s:x="25" s:y="10" s:pid="Y"/>
  </g>
  <g s:type="not" transform="translate(1254,378)" s:width="30" s:height="20" id="cell_$auto$aigmap.cc:132:execute$74">
    <s:alias val="$_NOT_"/>
    <s:alias val="$not"/>
    <s:alias val="$logic_not"/>
    <path d="M0,0 L0,20 L20,10 Z" class="cell_$auto$aigmap.cc:132:execute$74"/>
    <circle cx="23" cy="10" r="3" class="cell_$auto$aigmap.cc:132:execute$74"/>
    <g s:x="0" s:y="10" s:pid="A"/>
    <g s:x="25" s:y="10" s:pid="Y"/>
  </g>
  <g s:type="not" transform="translate(1384,59.5)" s:width="30" s:height="20" id="cell_$auto$aigmap.cc:132:execute$78">
    <s:alias val="$_NOT_"/>
    <s:alias val="$not"/>
    <s:alias val="$logic_not"/>
    <path d="M0,0 L0,20 L20,10 Z" class="cell_$auto$aigmap.cc:132:execute$78"/>
    <circle cx="23" cy="10" r="3" class="cell_$auto$aigmap.cc:132:execute$78"/>
    <g s:x="0" s:y="10" s:pid="A"/>
    <g s:x="25" s:y="10" s:pid="Y"/>
  </g>
  <g s:type="not" transform="translate(1384,119.5)" s:width="30" s:height="20" id="cell_$auto$aigmap.cc:132:execute$82">
    <s:alias val="$_NOT_"/>
    <s:alias val="$not"/>
    <s:alias val="$logic_not"/>
    <path d="M0,0 L0,20 L20,10 Z" class="cell_$auto$aigmap.cc:132:execute$82"/>
    <circle cx="23" cy="10" r="3" class="cell_$auto$aigmap.cc:132:execute$82"/>
    <g s:x="0" s:y="10" s:pid="A"/>
    <g s:x="25" s:y="10" s:pid="Y"/>
  </g>
  <g s:type="not" transform="translate(1514,67)" s:width="30" s:height="20" id="cell_$auto$aigmap.cc:132:execute$86">
    <s:alias val="$_NOT_"/>
    <s:alias val="$not"/>
    <s:alias val="$logic_not"/>
    <path d="M0,0 L0,20 L20,10 Z" class="cell_$auto$aigmap.cc:132:execute$86"/>
    <circle cx="23" cy="10" r="3" class="cell_$auto$aigmap.cc:132:execute$86"/>
    <g s:x="0" s:y="10" s:pid="A"/>
    <g s:x="25" s:y="10" s:pid="Y"/>
  </g>
  <g s:type="not" transform="translate(1384,460.5)" s:width="30" s:height="20" id="cell_$auto$aigmap.cc:132:execute$90">
    <s:alias val="$_NOT_"/>
    <s:alias val="$not"/>
    <s:alias val="$logic_not"/>
    <path d="M0,0 L0,20 L20,10 Z" class="cell_$auto$aigmap.cc:132:execute$90"/>
    <circle cx="23" cy="10" r="3" class="cell_$auto$aigmap.cc:132:execute$90"/>
    <g s:x="0" s:y="10" s:pid="A"/>
    <g s:x="25" s:y="10" s:pid="Y"/>
  </g>
  <g s:type="not" transform="translate(1384,520.5)" s:width="30" s:height="20" id="cell_$auto$aigmap.cc:132:execute$94">
    <s:alias val="$_NOT_"/>
    <s:alias val="$not"/>
    <s:alias val="$logic_not"/>
    <path d="M0,0 L0,20 L20,10 Z" class="cell_$auto$aigmap.cc:132:execute$94"/>
    <circle cx="23" cy="10" r="3" class="cell_$auto$aigmap.cc:132:execute$94"/>
    <g s:x="0" s:y="10" s:pid="A"/>
    <g s:x="25" s:y="10" s:pid="Y"/>
  </g>
  <g s:type="not" transform="translate(1514,468)" s:width="30" s:height="20" id="cell_$auto$aigmap.cc:132:execute$98">
    <s:alias val="$_NOT_"/>
    <s:alias val="$not"/>
    <s:alias val="$logic_not"/>
    <path d="M0,0 L0,20 L20,10 Z" class="cell_$auto$aigmap.cc:132:execute$98"/>
    <circle cx="23" cy="10" r="3" class="cell_$auto$aigmap.cc:132:execute$98"/>
    <g s:x="0" s:y="10" s:pid="A"/>
    <g s:x="25" s:y="10" s:pid="Y"/>
  </g>
  <g s:type="inputExt" transform="translate(12,236)" s:width="30" s:height="20" id="cell_in">
    <text x="15" y="-4" class="nodelabel cell_in" s:attribute="ref">in</text>
    <s:alias val="$_inputExt_"/>
    <path d="M0,0 L0,20 L15,20 L30,10 L15,0 Z" class="cell_in"/>
    <g s:x="28" s:y="10" s:pid="Y"/>
  </g>
  <g s:type="outputExt" transform="translate(1892,32)" s:width="30" s:height="20" id="cell_pos">
    <text x="15" y="-4" class="nodelabel cell_pos" s:attribute="ref">pos</text>
    <s:alias val="$_outputExt_"/>
    <path d="M30,0 L30,20 L15,20 L0,10 L15,0 Z" class="cell_pos"/>
    <g s:x="0" s:y="10" s:pid="A"/>
  </g>
  <g s:type="constant" transform="translate(129,472)" s:width="30" s:height="20" id="cell_1">
    <text x="15" y="-4" class="nodelabel cell_1" s:attribute="ref">1</text>
    <s:alias val="$_constant_"/>
    <rect width="30" height="20" class="cell_1"/>
    <g s:x="30" s:y="10" s:pid="Y"/>
  </g>
  <g s:type="constant" transform="translate(129,407)" s:width="30" s:height="20" id="cell_0">
    <text x="15" y="-4" class="nodelabel cell_0" s:attribute="ref">0</text>
    <s:alias val="$_constant_"/>
    <rect width="30" height="20" class="cell_0"/>
    <g s:x="30" s:y="10" s:pid="Y"/>
  </g>
  <g s:type="join" transform="translate(1851,21.5)" s:width="4" s:height="40" id="cell_$join$,6,7,">
    <rect width="5" height="40" class="splitjoinBody" s:generic="body"/>
    <s:alias val="$_join_"/>
    <g s:x="5" s:y="20" s:pid="out"/>
    <g transform="translate(0,10)" s:x="0" s:y="10" s:pid="in0">
      <text x="-3" y="-4" class="inputPortLabel">0</text>
    </g>
    <g transform="translate(0,30)" s:x="0" s:y="10" s:pid="in0">
      <text x="-3" y="-4" class="inputPortLabel">1</text>
    </g>
  </g>
  <g s:type="split" transform="translate(77,225.5)" s:width="5" s:height="40" id="cell_$split$,2,3,4,5,">
    <rect width="5" height="80" class="splitjoinBody" s:generic="body"/>
    <s:alias val="$_split_"/>
    <g s:x="0" s:y="20" s:pid="in"/>
    <g transform="translate(4,10)" s:x="4" s:y="10" s:pid="out0">
      <text x="5" y="-4">0</text>
    </g>
    <g transform="translate(4,30)" s:x="4" s:y="10" s:pid="out0">
      <text x="5" y="-4">3</text>
    </g>
    <g transform="translate(4,50)" s:x="4" s:y="10" s:pid="out0">
      <text x="5" y="-4">1</text>
    </g>
    <g transform="translate(4,70)" s:x="4" s:y="10" s:pid="out0">
      <text x="5" y="-4">2</text>
    </g>
  </g>
  <line x1="1019" x2="1039" y1="303.5" y2="303.5" class="net_8"/>
  <line x1="1039" x2="1039" y1="303.5" y2="224" class="net_8"/>
  <circle cx="1039" cy="303.5" r="2" style="fill:#000" class="net_8"/>
  <circle cx="1039" cy="224" r="2" style="fill:#000" class="net_8"/>
  <line x1="1039" x2="1124" y1="224" y2="224" class="net_8"/>
  <line x1="1019" x2="1039" y1="303.5" y2="303.5" class="net_8"/>
  <line x1="1039" x2="1039" y1="303.5" y2="62" class="net_8"/>
  <line x1="1039" x2="1319" y1="62" y2="62" class="net_8"/>
  <line x1="1019" x2="1039" y1="303.5" y2="303.5" class="net_8"/>
  <line x1="1039" x2="1039" y1="303.5" y2="463" class="net_8"/>
  <line x1="1039" x2="1319" y1="463" y2="463" class="net_8"/>
  <line x1="1019" x2="1039" y1="303.5" y2="303.5" class="net_8"/>
  <line x1="1039" x2="1039" y1="303.5" y2="368" class="net_8"/>
  <circle cx="1039" cy="368" r="2" style="fill:#000" class="net_8"/>
  <line x1="1039" x2="1059" y1="368" y2="368" class="net_8"/>
  <line x1="1019" x2="1039" y1="303.5" y2="303.5" class="net_8"/>
  <line x1="1039" x2="1039" y1="303.5" y2="388" class="net_8"/>
  <circle cx="1039" cy="388" r="2" style="fill:#000" class="net_8"/>
  <line x1="1039" x2="1254" y1="388" y2="388" class="net_8"/>
  <line x1="159" x2="189" y1="482" y2="482" class="net_66"/>
  <line x1="189" x2="189" y1="482" y2="239" class="net_66"/>
  <circle cx="189" cy="239" r="2" style="fill:#000" class="net_66"/>
  <line x1="189" x2="1124" y1="239" y2="239" class="net_66"/>
  <line x1="159" x2="189" y1="482" y2="482" class="net_66"/>
  <line x1="189" x2="189" y1="482" y2="122" class="net_66"/>
  <circle cx="189" cy="122" r="2" style="fill:#000" class="net_66"/>
  <line x1="189" x2="1059" y1="122" y2="122" class="net_66"/>
  <line x1="159" x2="189" y1="482" y2="482" class="net_66"/>
  <line x1="189" x2="189" y1="482" y2="447" class="net_66"/>
  <line x1="189" x2="454" y1="447" y2="447" class="net_66"/>
  <line x1="454" x2="454" y1="447" y2="327" class="net_66"/>
  <circle cx="189" cy="447" r="2" style="fill:#000" class="net_66"/>
  <circle cx="454" cy="447" r="2" style="fill:#000" class="net_66"/>
  <line x1="454" x2="664" y1="327" y2="327" class="net_66"/>
  <line x1="159" x2="189" y1="482" y2="482" class="net_66"/>
  <line x1="189" x2="189" y1="482" y2="372" class="net_66"/>
  <circle cx="189" cy="372" r="2" style="fill:#000" class="net_66"/>
  <line x1="189" x2="209" y1="372" y2="372" class="net_66"/>
  <line x1="159" x2="189" y1="482" y2="482" class="net_66"/>
  <line x1="189" x2="189" y1="482" y2="32" class="net_66"/>
  <line x1="189" x2="1584" y1="32" y2="32" class="net_66"/>
  <line x1="159" x2="189" y1="482" y2="482" class="net_66"/>
  <line x1="189" x2="189" y1="482" y2="447" class="net_66"/>
  <line x1="189" x2="1564" y1="447" y2="447" class="net_66"/>
  <line x1="1564" x2="1564" y1="447" y2="230.5" class="net_66"/>
  <line x1="1564" x2="1584" y1="230.5" y2="230.5" class="net_66"/>
  <line x1="159" x2="189" y1="482" y2="482" class="net_66"/>
  <line x1="189" x2="189" y1="482" y2="447" class="net_66"/>
  <line x1="189" x2="1029" y1="447" y2="447" class="net_66"/>
  <line x1="1029" x2="1029" y1="447" y2="478" class="net_66"/>
  <circle cx="1029" cy="447" r="2" style="fill:#000" class="net_66"/>
  <line x1="1029" x2="1319" y1="478" y2="478" class="net_66"/>
  <line x1="884" x2="899" y1="327" y2="327" class="net_10"/>
  <line x1="899" x2="899" y1="327" y2="347" class="net_10"/>
  <circle cx="899" cy="327" r="2" style="fill:#000" class="net_10"/>
  <line x1="899" x2="1124" y1="347" y2="347" class="net_10"/>
  <line x1="884" x2="924" y1="327" y2="327" class="net_10"/>
  <line x1="1084" x2="1099" y1="368" y2="368" class="net_11"/>
  <line x1="1099" x2="1099" y1="368" y2="362" class="net_11"/>
  <line x1="1099" x2="1124" y1="362" y2="362" class="net_11"/>
  <line x1="1214" x2="1254" y1="231.5" y2="231.5" class="net_13"/>
  <line x1="1214" x2="1229" y1="354.5" y2="354.5" class="net_14"/>
  <line x1="1229" x2="1229" y1="354.5" y2="246.5" class="net_14"/>
  <line x1="1229" x2="1254" y1="246.5" y2="246.5" class="net_14"/>
  <line x1="564" x2="574" y1="262.5" y2="262.5" class="net_16"/>
  <line x1="574" x2="574" y1="262.5" y2="107" class="net_16"/>
  <circle cx="574" cy="262.5" r="2" style="fill:#000" class="net_16"/>
  <line x1="574" x2="1059" y1="107" y2="107" class="net_16"/>
  <line x1="564" x2="574" y1="262.5" y2="262.5" class="net_16"/>
  <line x1="574" x2="574" y1="262.5" y2="312" class="net_16"/>
  <circle cx="574" cy="312" r="2" style="fill:#000" class="net_16"/>
  <line x1="574" x2="664" y1="312" y2="312" class="net_16"/>
  <line x1="564" x2="574" y1="262.5" y2="262.5" class="net_16"/>
  <line x1="574" x2="574" y1="262.5" y2="188" class="net_16"/>
  <circle cx="574" cy="188" r="2" style="fill:#000" class="net_16"/>
  <line x1="574" x2="989" y1="188" y2="188" class="net_16"/>
  <line x1="564" x2="574" y1="262.5" y2="262.5" class="net_16"/>
  <line x1="574" x2="574" y1="262.5" y2="393" class="net_16"/>
  <line x1="574" x2="599" y1="393" y2="393" class="net_16"/>
  <line x1="159" x2="169" y1="417" y2="417" class="net_68"/>
  <line x1="169" x2="169" y1="417" y2="167" class="net_68"/>
  <circle cx="169" cy="417" r="2" style="fill:#000" class="net_68"/>
  <circle cx="169" cy="167" r="2" style="fill:#000" class="net_68"/>
  <line x1="169" x2="1059" y1="167" y2="167" class="net_68"/>
  <line x1="159" x2="209" y1="417" y2="417" class="net_68"/>
  <line x1="159" x2="169" y1="417" y2="417" class="net_68"/>
  <line x1="169" x2="169" y1="417" y2="77" class="net_68"/>
  <line x1="169" x2="1319" y1="77" y2="77" class="net_68"/>
  <line x1="159" x2="169" y1="417" y2="417" class="net_68"/>
  <line x1="169" x2="169" y1="417" y2="538" class="net_68"/>
  <line x1="169" x2="1319" y1="538" y2="538" class="net_68"/>
  <line x1="1014" x2="1049" y1="188" y2="188" class="net_18"/>
  <line x1="1049" x2="1049" y1="188" y2="182" class="net_18"/>
  <line x1="1049" x2="1059" y1="182" y2="182" class="net_18"/>
  <line x1="1149" x2="1189" y1="114.5" y2="114.5" class="net_20"/>
  <line x1="1149" x2="1164" y1="174.5" y2="174.5" class="net_21"/>
  <line x1="1164" x2="1164" y1="174.5" y2="129.5" class="net_21"/>
  <line x1="1164" x2="1189" y1="129.5" y2="129.5" class="net_21"/>
  <line x1="429" x2="664" y1="372" y2="372" class="net_24"/>
  <line x1="429" x2="444" y1="372" y2="372" class="net_24"/>
  <line x1="444" x2="444" y1="372" y2="276" class="net_24"/>
  <circle cx="444" cy="372" r="2" style="fill:#000" class="net_24"/>
  <line x1="444" x2="469" y1="276" y2="276" class="net_24"/>
  <line x1="624" x2="639" y1="393" y2="393" class="net_25"/>
  <line x1="639" x2="639" y1="393" y2="387" class="net_25"/>
  <line x1="639" x2="664" y1="387" y2="387" class="net_25"/>
  <line x1="754" x2="794" y1="319.5" y2="319.5" class="net_27"/>
  <line x1="754" x2="769" y1="379.5" y2="379.5" class="net_28"/>
  <line x1="769" x2="769" y1="379.5" y2="334.5" class="net_28"/>
  <line x1="769" x2="794" y1="334.5" y2="334.5" class="net_28"/>
  <line x1="82" x2="119" y1="236" y2="236" class="net_2"/>
  <line x1="119" x2="119" y1="236" y2="502" class="net_2"/>
  <line x1="119" x2="179" y1="502" y2="502" class="net_2"/>
  <line x1="179" x2="179" y1="502" y2="357" class="net_2"/>
  <circle cx="119" cy="502" r="2" style="fill:#000" class="net_2"/>
  <line x1="179" x2="209" y1="357" y2="357" class="net_2"/>
  <line x1="82" x2="119" y1="236" y2="236" class="net_2"/>
  <line x1="119" x2="119" y1="236" y2="523" class="net_2"/>
  <line x1="119" x2="129" y1="523" y2="523" class="net_2"/>
  <line x1="154" x2="199" y1="523" y2="523" class="net_31"/>
  <line x1="199" x2="199" y1="523" y2="432" class="net_31"/>
  <line x1="199" x2="209" y1="432" y2="432" class="net_31"/>
  <line x1="299" x2="339" y1="364.5" y2="364.5" class="net_33"/>
  <line x1="299" x2="314" y1="424.5" y2="424.5" class="net_34"/>
  <line x1="314" x2="314" y1="424.5" y2="379.5" class="net_34"/>
  <line x1="314" x2="339" y1="379.5" y2="379.5" class="net_34"/>
  <line x1="82" x2="99" y1="256" y2="256" class="net_5"/>
  <line x1="99" x2="99" y1="256" y2="208" class="net_5"/>
  <line x1="99" x2="1449" y1="208" y2="208" class="net_5"/>
  <line x1="1409" x2="1424" y1="239" y2="239" class="net_36"/>
  <line x1="1424" x2="1424" y1="239" y2="223" class="net_36"/>
  <line x1="1424" x2="1449" y1="223" y2="223" class="net_36"/>
  <line x1="82" x2="109" y1="276" y2="276" class="net_3"/>
  <line x1="109" x2="109" y1="276" y2="255" class="net_3"/>
  <line x1="109" x2="534" y1="255" y2="255" class="net_3"/>
  <line x1="494" x2="509" y1="276" y2="276" class="net_38"/>
  <line x1="509" x2="509" y1="276" y2="270" class="net_38"/>
  <line x1="509" x2="534" y1="270" y2="270" class="net_38"/>
  <line x1="82" x2="989" y1="296" y2="296" class="net_4"/>
  <line x1="949" x2="964" y1="327" y2="327" class="net_39"/>
  <line x1="964" x2="964" y1="327" y2="311" class="net_39"/>
  <line x1="964" x2="989" y1="311" y2="311" class="net_39"/>
  <line x1="1479" x2="1489" y1="215.5" y2="215.5" class="net_37"/>
  <line x1="1489" x2="1489" y1="215.5" y2="17" class="net_37"/>
  <circle cx="1489" cy="215.5" r="2" style="fill:#000" class="net_37"/>
  <line x1="1489" x2="1584" y1="17" y2="17" class="net_37"/>
  <line x1="1479" x2="1584" y1="215.5" y2="215.5" class="net_37"/>
  <line x1="1479" x2="1489" y1="215.5" y2="215.5" class="net_37"/>
  <line x1="1489" x2="1489" y1="215.5" y2="275.5" class="net_37"/>
  <line x1="1489" x2="1514" y1="275.5" y2="275.5" class="net_37"/>
  <line x1="1539" x2="1584" y1="77" y2="77" class="net_41"/>
  <line x1="1539" x2="1554" y1="275.5" y2="275.5" class="net_42"/>
  <line x1="1554" x2="1554" y1="275.5" y2="92" class="net_42"/>
  <circle cx="1554" cy="275.5" r="2" style="fill:#000" class="net_42"/>
  <line x1="1554" x2="1584" y1="92" y2="92" class="net_42"/>
  <line x1="1539" x2="1584" y1="275.5" y2="275.5" class="net_42"/>
  <line x1="1674" x2="1714" y1="24.5" y2="24.5" class="net_44"/>
  <line x1="1674" x2="1689" y1="84.5" y2="84.5" class="net_45"/>
  <line x1="1689" x2="1689" y1="84.5" y2="39.5" class="net_45"/>
  <line x1="1689" x2="1714" y1="39.5" y2="39.5" class="net_45"/>
  <line x1="1539" x2="1574" y1="478" y2="478" class="net_48"/>
  <line x1="1574" x2="1574" y1="478" y2="290.5" class="net_48"/>
  <line x1="1574" x2="1584" y1="290.5" y2="290.5" class="net_48"/>
  <line x1="1674" x2="1714" y1="223" y2="223" class="net_50"/>
  <line x1="1674" x2="1689" y1="283" y2="283" class="net_51"/>
  <line x1="1689" x2="1689" y1="283" y2="238" class="net_51"/>
  <line x1="1689" x2="1714" y1="238" y2="238" class="net_51"/>
  <line x1="1279" x2="1319" y1="122" y2="122" class="net_54"/>
  <line x1="1279" x2="1294" y1="388" y2="388" class="net_55"/>
  <line x1="1294" x2="1294" y1="388" y2="137" class="net_55"/>
  <circle cx="1294" cy="388" r="2" style="fill:#000" class="net_55"/>
  <line x1="1294" x2="1319" y1="137" y2="137" class="net_55"/>
  <line x1="1279" x2="1294" y1="388" y2="388" class="net_55"/>
  <line x1="1294" x2="1294" y1="388" y2="523" class="net_55"/>
  <line x1="1294" x2="1319" y1="523" y2="523" class="net_55"/>
  <line x1="1409" x2="1449" y1="69.5" y2="69.5" class="net_57"/>
  <line x1="1409" x2="1424" y1="129.5" y2="129.5" class="net_58"/>
  <line x1="1424" x2="1424" y1="129.5" y2="84.5" class="net_58"/>
  <line x1="1424" x2="1449" y1="84.5" y2="84.5" class="net_58"/>
  <line x1="1409" x2="1449" y1="470.5" y2="470.5" class="net_62"/>
  <line x1="1409" x2="1424" y1="530.5" y2="530.5" class="net_63"/>
  <line x1="1424" x2="1424" y1="530.5" y2="485.5" class="net_63"/>
  <line x1="1424" x2="1449" y1="485.5" y2="485.5" class="net_63"/>
  <line x1="1154" x2="1189" y1="231.5" y2="231.5" class="net_9"/>
  <line x1="1154" x2="1189" y1="354.5" y2="354.5" class="net_12"/>
  <line x1="1284" x2="1319" y1="239" y2="239" class="net_15"/>
  <line x1="1089" x2="1124" y1="114.5" y2="114.5" class="net_17"/>
  <line x1="1089" x2="1124" y1="174.5" y2="174.5" class="net_19"/>
  <line x1="1219" x2="1254" y1="122" y2="122" class="net_22"/>
  <line x1="694" x2="729" y1="319.5" y2="319.5" class="net_23"/>
  <line x1="694" x2="729" y1="379.5" y2="379.5" class="net_26"/>
  <line x1="824" x2="859" y1="327" y2="327" class="net_29"/>
  <line x1="239" x2="274" y1="364.5" y2="364.5" class="net_30"/>
  <line x1="239" x2="274" y1="424.5" y2="424.5" class="net_32"/>
  <line x1="369" x2="404" y1="372" y2="372" class="net_35"/>
  <line x1="1344" x2="1384" y1="239" y2="239" class="net_65"/>
  <line x1="1614" x2="1649" y1="24.5" y2="24.5" class="net_40"/>
  <line x1="1614" x2="1649" y1="84.5" y2="84.5" class="net_43"/>
  <line x1="1744" x2="1779" y1="32" y2="32" class="net_46"/>
  <line x1="1614" x2="1649" y1="223" y2="223" class="net_47"/>
  <line x1="1614" x2="1649" y1="283" y2="283" class="net_49"/>
  <line x1="1744" x2="1779" y1="230.5" y2="230.5" class="net_52"/>
  <line x1="1349" x2="1384" y1="69.5" y2="69.5" class="net_53"/>
  <line x1="1349" x2="1384" y1="129.5" y2="129.5" class="net_56"/>
  <line x1="1479" x2="1514" y1="77" y2="77" class="net_59"/>
  <line x1="1349" x2="1384" y1="470.5" y2="470.5" class="net_60"/>
  <line x1="1349" x2="1384" y1="530.5" y2="530.5" class="net_61"/>
  <line x1="1479" x2="1514" y1="478" y2="478" class="net_64"/>
  <line x1="1857" x2="1892" y1="42" y2="42" class="net_6,7"/>
  <line x1="1804" x2="1851" y1="32" y2="32" class="net_6"/>
  <line x1="1804" x2="1819" y1="230.5" y2="230.5" class="net_7"/>
  <line x1="1819" x2="1819" y1="230.5" y2="52" class="net_7"/>
  <line x1="1819" x2="1851" y1="52" y2="52" class="net_7"/>
  <line x1="40" x2="77" y1="246" y2="246" class="net_2,3,4,5"/>
</svg>
