<?xml version="1.0" encoding="UTF-8" standalone="no"?>
<!DOCTYPE svg PUBLIC "-//W3C//DTD SVG 1.1//EN"
 "http://www.w3.org/Graphics/SVG/1.1/DTD/svg11.dtd">
<!-- Generated by graphviz version 4.0.0 (20220529.0937)
 -->
<!-- Title: top_module Pages: 1 -->
<svg width="2497pt" height="524pt"
 viewBox="0.00 0.00 2497.20 524.00" xmlns="http://www.w3.org/2000/svg" xmlns:xlink="http://www.w3.org/1999/xlink">
<g id="graph0" class="graph" transform="scale(1 1) rotate(0) translate(4 520)">
<title>top_module</title>
<polygon fill="white" stroke="transparent" points="-4,4 -4,-520 2493.2,-520 2493.2,4 -4,4"/>
<text text-anchor="middle" x="1244.6" y="-7.8" font-family="Times New Roman,serif" font-size="14.00">top_module</text>
<!-- n12 -->
<g id="node1" class="node">
<title>n12</title>
<polygon fill="none" stroke="black" points="448,-59 421,-41 448,-23 475,-41 448,-59"/>
<text text-anchor="middle" x="448" y="-37.3" font-family="Times New Roman,serif" font-size="14.00">i</text>
</g>
<!-- n13 -->
<g id="node2" class="node">
<title>n13</title>
<polygon fill="none" stroke="black" points="54,-259.54 54,-274.46 38.18,-285 15.82,-285 0,-274.46 0,-259.54 15.82,-249 38.18,-249 54,-259.54"/>
<text text-anchor="middle" x="27" y="-263.3" font-family="Times New Roman,serif" font-size="14.00">in</text>
</g>
<!-- x0 -->
<g id="node5" class="node">
<title>x0</title>
<path fill="none" stroke="black" d="M526.6,-354C526.6,-354 564.6,-354 564.6,-354 570.6,-354 576.6,-360 576.6,-366 576.6,-366 576.6,-378 576.6,-378 576.6,-384 570.6,-390 564.6,-390 564.6,-390 526.6,-390 526.6,-390 520.6,-390 514.6,-384 514.6,-378 514.6,-378 514.6,-366 514.6,-366 514.6,-360 520.6,-354 526.6,-354"/>
<text text-anchor="middle" x="545.6" y="-368.3" font-family="Times New Roman,serif" font-size="14.00">3:3 &#45; 0:0</text>
</g>
<!-- n13&#45;&gt;x0 -->
<g id="edge12" class="edge">
<title>n13:e&#45;&gt;x0:w</title>
<path fill="none" stroke="#1b9e77" d="M54,-267C66.63,-267 63.05,-280.08 72,-289 113.38,-330.27 115.55,-372 174,-372 174,-372 174,-372 449,-372 474.4,-372 483.2,-372 504.32,-372"/>
<polygon fill="#1b9e77" stroke="#1b9e77" points="504.6,-375.5 514.6,-372 504.6,-368.5 504.6,-375.5"/>
</g>
<!-- x1 -->
<g id="node7" class="node">
<title>x1</title>
<path fill="none" stroke="black" d="M236,-293C236,-293 274,-293 274,-293 280,-293 286,-299 286,-305 286,-305 286,-317 286,-317 286,-323 280,-329 274,-329 274,-329 236,-329 236,-329 230,-329 224,-323 224,-317 224,-317 224,-305 224,-305 224,-299 230,-293 236,-293"/>
<text text-anchor="middle" x="255" y="-307.3" font-family="Times New Roman,serif" font-size="14.00">1:1 &#45; 0:0</text>
</g>
<!-- n13&#45;&gt;x1 -->
<g id="edge14" class="edge">
<title>n13:e&#45;&gt;x1:w</title>
<path fill="none" stroke="#1b9e77" d="M54,-267C128.54,-267 144.58,-307.14 213.86,-310.74"/>
<polygon fill="#1b9e77" stroke="#1b9e77" points="213.91,-314.24 224,-311 214.09,-307.25 213.91,-314.24"/>
</g>
<!-- x2 -->
<g id="node9" class="node">
<title>x2</title>
<path fill="none" stroke="black" d="M752.6,-235C752.6,-235 790.6,-235 790.6,-235 796.6,-235 802.6,-241 802.6,-247 802.6,-247 802.6,-259 802.6,-259 802.6,-265 796.6,-271 790.6,-271 790.6,-271 752.6,-271 752.6,-271 746.6,-271 740.6,-265 740.6,-259 740.6,-259 740.6,-247 740.6,-247 740.6,-241 746.6,-235 752.6,-235"/>
<text text-anchor="middle" x="771.6" y="-249.3" font-family="Times New Roman,serif" font-size="14.00">2:2 &#45; 0:0</text>
</g>
<!-- n13&#45;&gt;x2 -->
<g id="edge15" class="edge">
<title>n13:e&#45;&gt;x2:w</title>
<path fill="none" stroke="#1b9e77" d="M54,-267C62.2,-267 63.94,-264.49 72,-263 117.06,-254.69 128.18,-248 174,-248 174,-248 174,-248 495.8,-248 601.12,-248 629.94,-252.68 730.33,-252.98"/>
<polygon fill="#1b9e77" stroke="#1b9e77" points="730.59,-256.49 740.6,-253 730.61,-249.49 730.59,-256.49"/>
</g>
<!-- x12 -->
<g id="node28" class="node">
<title>x12</title>
<path fill="none" stroke="black" d="M156,-75C156,-75 194,-75 194,-75 200,-75 206,-81 206,-87 206,-87 206,-99 206,-99 206,-105 200,-111 194,-111 194,-111 156,-111 156,-111 150,-111 144,-105 144,-99 144,-99 144,-87 144,-87 144,-81 150,-75 156,-75"/>
<text text-anchor="middle" x="175" y="-89.3" font-family="Times New Roman,serif" font-size="14.00">0:0 &#45; 0:0</text>
</g>
<!-- n13&#45;&gt;x12 -->
<g id="edge13" class="edge">
<title>n13:e&#45;&gt;x12:w</title>
<path fill="none" stroke="#1b9e77" d="M54,-267C56.35,-267 119.69,-137.33 138.71,-101.87"/>
<polygon fill="#1b9e77" stroke="#1b9e77" points="141.89,-103.38 144,-93 135.87,-99.8 141.89,-103.38"/>
</g>
<!-- n14 -->
<g id="node3" class="node">
<title>n14</title>
<polygon fill="none" stroke="black" points="2489.2,-381.54 2489.2,-396.46 2473.38,-407 2451.02,-407 2435.2,-396.46 2435.2,-381.54 2451.02,-371 2473.38,-371 2489.2,-381.54"/>
<text text-anchor="middle" x="2462.2" y="-385.3" font-family="Times New Roman,serif" font-size="14.00">pos</text>
</g>
<!-- c18 -->
<g id="node4" class="node">
<title>c18</title>
<polygon fill="none" stroke="black" points="2086.2,-306 2086.2,-352 2216.2,-352 2216.2,-306 2086.2,-306"/>
<text text-anchor="middle" x="2099.2" y="-336.8" font-family="Times New Roman,serif" font-size="14.00">A</text>
<polyline fill="none" stroke="black" points="2086.2,-329 2112.2,-329 "/>
<text text-anchor="middle" x="2099.2" y="-313.8" font-family="Times New Roman,serif" font-size="14.00">B</text>
<polyline fill="none" stroke="black" points="2112.2,-306 2112.2,-352 "/>
<text text-anchor="middle" x="2151.2" y="-332.8" font-family="Times New Roman,serif" font-size="14.00">$10</text>
<text text-anchor="middle" x="2151.2" y="-317.8" font-family="Times New Roman,serif" font-size="14.00">$logic_and</text>
<polyline fill="none" stroke="black" points="2190.2,-306 2190.2,-352 "/>
<text text-anchor="middle" x="2203.2" y="-325.3" font-family="Times New Roman,serif" font-size="14.00">Y</text>
</g>
<!-- c25 -->
<g id="node14" class="node">
<title>c25</title>
<polygon fill="none" stroke="black" points="2276.2,-354.5 2276.2,-423.5 2375.2,-423.5 2375.2,-354.5 2276.2,-354.5"/>
<text text-anchor="middle" x="2289.2" y="-408.3" font-family="Times New Roman,serif" font-size="14.00">A</text>
<polyline fill="none" stroke="black" points="2276.2,-400.5 2302.2,-400.5 "/>
<text text-anchor="middle" x="2289.2" y="-385.3" font-family="Times New Roman,serif" font-size="14.00">B</text>
<polyline fill="none" stroke="black" points="2276.2,-377.5 2302.2,-377.5 "/>
<text text-anchor="middle" x="2289.2" y="-362.3" font-family="Times New Roman,serif" font-size="14.00">S</text>
<polyline fill="none" stroke="black" points="2302.2,-354.5 2302.2,-423.5 "/>
<text text-anchor="middle" x="2325.7" y="-392.8" font-family="Times New Roman,serif" font-size="14.00">$12</text>
<text text-anchor="middle" x="2325.7" y="-377.8" font-family="Times New Roman,serif" font-size="14.00">$mux</text>
<polyline fill="none" stroke="black" points="2349.2,-354.5 2349.2,-423.5 "/>
<text text-anchor="middle" x="2362.2" y="-385.3" font-family="Times New Roman,serif" font-size="14.00">Y</text>
</g>
<!-- c18&#45;&gt;c25 -->
<g id="edge23" class="edge">
<title>c18:e&#45;&gt;c25:w</title>
<path fill="none" stroke="#1b9e77" d="M2216.2,-329C2243.74,-329 2245.02,-357.58 2266.19,-364.5"/>
<polygon fill="#1b9e77" stroke="#1b9e77" points="2265.79,-367.98 2276.2,-366 2266.83,-361.06 2265.79,-367.98"/>
</g>
<!-- x0&#45;&gt;c18 -->
<g id="edge1" class="edge">
<title>x0:e&#45;&gt;c18:w</title>
<path fill="none" stroke="#66a61e" d="M588.78,-372C665.08,-372 688.59,-372 770.6,-372 770.6,-372 770.6,-372 1963.2,-372 2015.28,-372 2028,-345.54 2074.08,-341.51"/>
<polygon fill="none" stroke="#66a61e" points="588.6,-372 582.6,-376 576.6,-372 582.6,-368 588.6,-372"/>
<polygon fill="none" stroke="#66a61e" points="2074.21,-341.51 2080.04,-337.26 2086.2,-341 2080.37,-345.25 2074.21,-341.51"/>
</g>
<!-- c19 -->
<g id="node6" class="node">
<title>c19</title>
<polygon fill="none" stroke="black" points="820.6,-297 820.6,-343 950.6,-343 950.6,-297 820.6,-297"/>
<text text-anchor="middle" x="833.6" y="-327.8" font-family="Times New Roman,serif" font-size="14.00">A</text>
<polyline fill="none" stroke="black" points="820.6,-320 846.6,-320 "/>
<text text-anchor="middle" x="833.6" y="-304.8" font-family="Times New Roman,serif" font-size="14.00">B</text>
<polyline fill="none" stroke="black" points="846.6,-297 846.6,-343 "/>
<text text-anchor="middle" x="885.6" y="-323.8" font-family="Times New Roman,serif" font-size="14.00">$6</text>
<text text-anchor="middle" x="885.6" y="-308.8" font-family="Times New Roman,serif" font-size="14.00">$logic_and</text>
<polyline fill="none" stroke="black" points="924.6,-297 924.6,-343 "/>
<text text-anchor="middle" x="937.6" y="-316.3" font-family="Times New Roman,serif" font-size="14.00">Y</text>
</g>
<!-- n7 -->
<g id="node33" class="node">
<title>n7</title>
<ellipse fill="black" stroke="black" cx="1014.6" cy="-320" rx="1.8" ry="1.8"/>
</g>
<!-- c19&#45;&gt;n7 -->
<g id="edge24" class="edge">
<title>c19:e&#45;&gt;n7:w</title>
<path fill="none" stroke="#1b9e77" d="M950.6,-320C974,-320 982.26,-320 1001.52,-320"/>
<polygon fill="#1b9e77" stroke="#1b9e77" points="1001.6,-323.5 1011.6,-320 1001.6,-316.5 1001.6,-323.5"/>
</g>
<!-- x1&#45;&gt;c19 -->
<g id="edge2" class="edge">
<title>x1:e&#45;&gt;c19:w</title>
<path fill="none" stroke="#1b9e77" d="M298.15,-311.23C360.4,-313.62 378.95,-334 447,-334 447,-334 447,-334 659.6,-334 726.97,-334 746.76,-332.23 808.55,-332.02"/>
<polygon fill="none" stroke="#1b9e77" points="298,-311.22 291.92,-315.11 286,-311 292.07,-307.11 298,-311.22"/>
<polygon fill="none" stroke="#1b9e77" points="808.6,-332.02 814.59,-328.01 820.6,-332 814.61,-336.01 808.6,-332.02"/>
</g>
<!-- c20 -->
<g id="node8" class="node">
<title>c20</title>
<polygon fill="none" stroke="black" points="1481.2,-226 1481.2,-272 1611.2,-272 1611.2,-226 1481.2,-226"/>
<text text-anchor="middle" x="1494.2" y="-256.8" font-family="Times New Roman,serif" font-size="14.00">A</text>
<polyline fill="none" stroke="black" points="1481.2,-249 1507.2,-249 "/>
<text text-anchor="middle" x="1494.2" y="-233.8" font-family="Times New Roman,serif" font-size="14.00">B</text>
<polyline fill="none" stroke="black" points="1507.2,-226 1507.2,-272 "/>
<text text-anchor="middle" x="1546.2" y="-252.8" font-family="Times New Roman,serif" font-size="14.00">$8</text>
<text text-anchor="middle" x="1546.2" y="-237.8" font-family="Times New Roman,serif" font-size="14.00">$logic_and</text>
<polyline fill="none" stroke="black" points="1585.2,-226 1585.2,-272 "/>
<text text-anchor="middle" x="1598.2" y="-245.3" font-family="Times New Roman,serif" font-size="14.00">Y</text>
</g>
<!-- n8 -->
<g id="node34" class="node">
<title>n8</title>
<ellipse fill="black" stroke="black" cx="1675.2" cy="-249" rx="1.8" ry="1.8"/>
</g>
<!-- c20&#45;&gt;n8 -->
<g id="edge27" class="edge">
<title>c20:e&#45;&gt;n8:w</title>
<path fill="none" stroke="#7570b3" d="M1611.2,-249C1634.6,-249 1642.86,-249 1662.12,-249"/>
<polygon fill="#7570b3" stroke="#7570b3" points="1662.2,-252.5 1672.2,-249 1662.2,-245.5 1662.2,-252.5"/>
</g>
<!-- x2&#45;&gt;c20 -->
<g id="edge3" class="edge">
<title>x2:e&#45;&gt;c20:w</title>
<path fill="none" stroke="#1b9e77" d="M814.67,-253.14C878.88,-254.65 898.72,-268 968.6,-268 968.6,-268 968.6,-268 1381.2,-268 1421.4,-268 1434.2,-262.3 1469.05,-261.19"/>
<polygon fill="none" stroke="#1b9e77" points="814.6,-253.14 808.55,-257.07 802.6,-253 808.65,-249.07 814.6,-253.14"/>
<polygon fill="none" stroke="#1b9e77" points="1469.2,-261.18 1475.14,-257.09 1481.2,-261 1475.26,-265.09 1469.2,-261.18"/>
</g>
<!-- c21 -->
<g id="node10" class="node">
<title>c21</title>
<polygon fill="none" stroke="black" points="594.6,-267 594.6,-305 722.6,-305 722.6,-267 594.6,-267"/>
<text text-anchor="middle" x="607.6" y="-282.3" font-family="Times New Roman,serif" font-size="14.00">A</text>
<polyline fill="none" stroke="black" points="620.6,-267 620.6,-305 "/>
<text text-anchor="middle" x="658.6" y="-289.8" font-family="Times New Roman,serif" font-size="14.00">$5</text>
<text text-anchor="middle" x="658.6" y="-274.8" font-family="Times New Roman,serif" font-size="14.00">$logic_not</text>
<polyline fill="none" stroke="black" points="696.6,-267 696.6,-305 "/>
<text text-anchor="middle" x="709.6" y="-282.3" font-family="Times New Roman,serif" font-size="14.00">Y</text>
</g>
<!-- c21&#45;&gt;c19 -->
<g id="edge30" class="edge">
<title>c21:e&#45;&gt;c19:w</title>
<path fill="none" stroke="#666666" d="M722.6,-286C763.58,-286 774.29,-304.54 810.3,-307.58"/>
<polygon fill="#666666" stroke="#666666" points="810.47,-311.09 820.6,-308 810.75,-304.1 810.47,-311.09"/>
</g>
<!-- c22 -->
<g id="node11" class="node">
<title>c22</title>
<polygon fill="none" stroke="black" points="1316.2,-201 1316.2,-239 1444.2,-239 1444.2,-201 1316.2,-201"/>
<text text-anchor="middle" x="1329.2" y="-216.3" font-family="Times New Roman,serif" font-size="14.00">A</text>
<polyline fill="none" stroke="black" points="1342.2,-201 1342.2,-239 "/>
<text text-anchor="middle" x="1380.2" y="-223.8" font-family="Times New Roman,serif" font-size="14.00">$7</text>
<text text-anchor="middle" x="1380.2" y="-208.8" font-family="Times New Roman,serif" font-size="14.00">$logic_not</text>
<polyline fill="none" stroke="black" points="1418.2,-201 1418.2,-239 "/>
<text text-anchor="middle" x="1431.2" y="-216.3" font-family="Times New Roman,serif" font-size="14.00">Y</text>
</g>
<!-- c22&#45;&gt;c20 -->
<g id="edge9" class="edge">
<title>c22:e&#45;&gt;c20:w</title>
<path fill="none" stroke="#7570b3" d="M1444.2,-220C1458.2,-220 1461.85,-230.17 1471.16,-234.78"/>
<polygon fill="#7570b3" stroke="#7570b3" points="1470.68,-238.26 1481.2,-237 1472.19,-231.42 1470.68,-238.26"/>
</g>
<!-- c23 -->
<g id="node12" class="node">
<title>c23</title>
<polygon fill="none" stroke="black" points="1898.2,-258 1898.2,-296 2026.2,-296 2026.2,-258 1898.2,-258"/>
<text text-anchor="middle" x="1911.2" y="-273.3" font-family="Times New Roman,serif" font-size="14.00">A</text>
<polyline fill="none" stroke="black" points="1924.2,-258 1924.2,-296 "/>
<text text-anchor="middle" x="1962.2" y="-280.8" font-family="Times New Roman,serif" font-size="14.00">$9</text>
<text text-anchor="middle" x="1962.2" y="-265.8" font-family="Times New Roman,serif" font-size="14.00">$logic_not</text>
<polyline fill="none" stroke="black" points="2000.2,-258 2000.2,-296 "/>
<text text-anchor="middle" x="2013.2" y="-273.3" font-family="Times New Roman,serif" font-size="14.00">Y</text>
</g>
<!-- c23&#45;&gt;c18 -->
<g id="edge10" class="edge">
<title>c23:e&#45;&gt;c18:w</title>
<path fill="none" stroke="#d95f02" d="M2026.2,-277C2054.49,-277 2054.61,-308.17 2076.31,-315.48"/>
<polygon fill="#d95f02" stroke="#d95f02" points="2075.78,-318.94 2086.2,-317 2076.85,-312.02 2075.78,-318.94"/>
</g>
<!-- v3 -->
<g id="node13" class="node">
<title>v3</title>
<ellipse fill="none" stroke="black" cx="2151.2" cy="-389" rx="27" ry="18"/>
<text text-anchor="middle" x="2151.2" y="-385.3" font-family="Times New Roman,serif" font-size="14.00">2&#39;11</text>
</g>
<!-- v3&#45;&gt;c25 -->
<g id="edge34" class="edge">
<title>v3:e&#45;&gt;c25:w</title>
<path fill="none" stroke="#e6ab02" stroke-width="3" d="M2179.2,-389C2218.61,-389 2231,-389 2265.76,-389"/>
<polygon fill="#e6ab02" stroke="#e6ab02" stroke-width="3" points="2266.2,-392.5 2276.2,-389 2266.2,-385.5 2266.2,-392.5"/>
<text text-anchor="middle" x="2246.2" y="-392.8" font-family="Times New Roman,serif" font-size="14.00" fill="#e6ab02">&lt;2&gt;</text>
</g>
<!-- c25&#45;&gt;n14 -->
<g id="edge16" class="edge">
<title>c25:e&#45;&gt;n14:w</title>
<path fill="none" stroke="#e6ab02" stroke-width="3" d="M2375.2,-389C2398.12,-389 2406.26,-389 2425.03,-389"/>
<polygon fill="#e6ab02" stroke="#e6ab02" stroke-width="3" points="2425.2,-392.5 2435.2,-389 2425.2,-385.5 2425.2,-392.5"/>
<text text-anchor="middle" x="2405.2" y="-392.8" font-family="Times New Roman,serif" font-size="14.00" fill="#e6ab02">&lt;2&gt;</text>
</g>
<!-- v5 -->
<g id="node15" class="node">
<title>v5</title>
<ellipse fill="none" stroke="black" cx="1675.2" cy="-424" rx="27" ry="18"/>
<text text-anchor="middle" x="1675.2" y="-420.3" font-family="Times New Roman,serif" font-size="14.00">2&#39;10</text>
</g>
<!-- c26 -->
<g id="node16" class="node">
<title>c26</title>
<polygon fill="none" stroke="black" points="1762.2,-400.5 1762.2,-469.5 1861.2,-469.5 1861.2,-400.5 1762.2,-400.5"/>
<text text-anchor="middle" x="1775.2" y="-454.3" font-family="Times New Roman,serif" font-size="14.00">A</text>
<polyline fill="none" stroke="black" points="1762.2,-446.5 1788.2,-446.5 "/>
<text text-anchor="middle" x="1775.2" y="-431.3" font-family="Times New Roman,serif" font-size="14.00">B</text>
<polyline fill="none" stroke="black" points="1762.2,-423.5 1788.2,-423.5 "/>
<text text-anchor="middle" x="1775.2" y="-408.3" font-family="Times New Roman,serif" font-size="14.00">S</text>
<polyline fill="none" stroke="black" points="1788.2,-400.5 1788.2,-469.5 "/>
<text text-anchor="middle" x="1811.7" y="-438.8" font-family="Times New Roman,serif" font-size="14.00">$18</text>
<text text-anchor="middle" x="1811.7" y="-423.8" font-family="Times New Roman,serif" font-size="14.00">$mux</text>
<polyline fill="none" stroke="black" points="1835.2,-400.5 1835.2,-469.5 "/>
<text text-anchor="middle" x="1848.2" y="-431.3" font-family="Times New Roman,serif" font-size="14.00">Y</text>
</g>
<!-- v5&#45;&gt;c26 -->
<g id="edge35" class="edge">
<title>v5:e&#45;&gt;c26:w</title>
<path fill="none" stroke="#1b9e77" stroke-width="3" d="M1702.2,-424C1725.6,-424 1733.11,-432.2 1752.17,-434.44"/>
<polygon fill="#1b9e77" stroke="#1b9e77" stroke-width="3" points="1752.02,-437.94 1762.2,-435 1752.41,-430.95 1752.02,-437.94"/>
<text text-anchor="middle" x="1732.2" y="-435.8" font-family="Times New Roman,serif" font-size="14.00" fill="#1b9e77">&lt;2&gt;</text>
</g>
<!-- c26&#45;&gt;c25 -->
<g id="edge22" class="edge">
<title>c26:e&#45;&gt;c25:w</title>
<path fill="none" stroke="#d95f02" stroke-width="3" d="M1861.2,-435C2019.2,-435 2058.48,-425.48 2216.2,-416 2239.13,-414.62 2247.22,-412.66 2266.01,-412.13"/>
<polygon fill="#d95f02" stroke="#d95f02" stroke-width="3" points="2266.25,-415.63 2276.2,-412 2266.16,-408.63 2266.25,-415.63"/>
<text text-anchor="middle" x="2056.2" y="-431.8" font-family="Times New Roman,serif" font-size="14.00" fill="#d95f02">&lt;2&gt;</text>
</g>
<!-- x4 -->
<g id="node17" class="node">
<title>x4</title>
<path fill="none" stroke="black" d="M1248.2,-440C1248.2,-440 1286.2,-440 1286.2,-440 1292.2,-440 1298.2,-446 1298.2,-452 1298.2,-452 1298.2,-474 1298.2,-474 1298.2,-480 1292.2,-486 1286.2,-486 1286.2,-486 1248.2,-486 1248.2,-486 1242.2,-486 1236.2,-480 1236.2,-474 1236.2,-474 1236.2,-452 1236.2,-452 1236.2,-446 1242.2,-440 1248.2,-440"/>
<text text-anchor="middle" x="1267.2" y="-470.8" font-family="Times New Roman,serif" font-size="14.00">0 &#45;&gt; 1:1</text>
<polyline fill="none" stroke="black" points="1236.2,-463 1298.2,-463 "/>
<text text-anchor="middle" x="1267.2" y="-447.8" font-family="Times New Roman,serif" font-size="14.00">0:0 &#45; 0:0</text>
</g>
<!-- x4&#45;&gt;c26 -->
<g id="edge4" class="edge">
<title>x4:e&#45;&gt;c26:w</title>
<path fill="none" stroke="#7570b3" stroke-width="3" d="M1310.48,-463.07C1373.46,-463.8 1393.52,-470 1462.2,-470 1462.2,-470 1462.2,-470 1676.2,-470 1710.42,-470 1721.23,-460.56 1750.14,-458.43"/>
<polygon fill="none" stroke="#7570b3" stroke-width="3" points="1310.2,-463.07 1304.18,-467.03 1298.2,-463 1304.22,-459.03 1310.2,-463.07"/>
<polygon fill="none" stroke="#7570b3" stroke-width="3" points="1750.21,-458.42 1756.06,-454.21 1762.2,-458 1756.35,-462.21 1750.21,-458.42"/>
<text text-anchor="middle" x="1546.2" y="-473.8" font-family="Times New Roman,serif" font-size="14.00" fill="#7570b3">&lt;2&gt;</text>
</g>
<!-- v6 -->
<g id="node18" class="node">
<title>v6</title>
<ellipse fill="none" stroke="black" cx="1675.2" cy="-122" rx="27" ry="18"/>
<text text-anchor="middle" x="1675.2" y="-118.3" font-family="Times New Roman,serif" font-size="14.00">1&#39;1</text>
</g>
<!-- c27 -->
<g id="node19" class="node">
<title>c27</title>
<polygon fill="none" stroke="black" points="1762.2,-125.5 1762.2,-194.5 1861.2,-194.5 1861.2,-125.5 1762.2,-125.5"/>
<text text-anchor="middle" x="1775.2" y="-179.3" font-family="Times New Roman,serif" font-size="14.00">A</text>
<polyline fill="none" stroke="black" points="1762.2,-171.5 1788.2,-171.5 "/>
<text text-anchor="middle" x="1775.2" y="-156.3" font-family="Times New Roman,serif" font-size="14.00">B</text>
<polyline fill="none" stroke="black" points="1762.2,-148.5 1788.2,-148.5 "/>
<text text-anchor="middle" x="1775.2" y="-133.3" font-family="Times New Roman,serif" font-size="14.00">S</text>
<polyline fill="none" stroke="black" points="1788.2,-125.5 1788.2,-194.5 "/>
<text text-anchor="middle" x="1811.7" y="-163.8" font-family="Times New Roman,serif" font-size="14.00">$21</text>
<text text-anchor="middle" x="1811.7" y="-148.8" font-family="Times New Roman,serif" font-size="14.00">$mux</text>
<polyline fill="none" stroke="black" points="1835.2,-125.5 1835.2,-194.5 "/>
<text text-anchor="middle" x="1848.2" y="-156.3" font-family="Times New Roman,serif" font-size="14.00">Y</text>
</g>
<!-- v6&#45;&gt;c27 -->
<g id="edge36" class="edge">
<title>v6:e&#45;&gt;c27:w</title>
<path fill="none" stroke="#66a61e" d="M1702.2,-122C1721.88,-122 1728.24,-124.5 1744.2,-136 1750.96,-140.87 1751.09,-149.03 1753.5,-154.46"/>
<polygon fill="#66a61e" stroke="#66a61e" points="1751.88,-157.58 1762.2,-160 1755.64,-151.68 1751.88,-157.58"/>
</g>
<!-- c27&#45;&gt;c23 -->
<g id="edge21" class="edge">
<title>c27:e&#45;&gt;c23:w</title>
<path fill="none" stroke="#d95f02" d="M1861.2,-160C1911.69,-160 1853.66,-260.28 1888.05,-275.16"/>
<polygon fill="#d95f02" stroke="#d95f02" points="1887.74,-278.66 1898.2,-277 1888.98,-271.77 1887.74,-278.66"/>
</g>
<!-- v7 -->
<g id="node20" class="node">
<title>v7</title>
<ellipse fill="none" stroke="black" cx="1014.6" cy="-498" rx="27" ry="18"/>
<text text-anchor="middle" x="1014.6" y="-494.3" font-family="Times New Roman,serif" font-size="14.00">1&#39;0</text>
</g>
<!-- c28 -->
<g id="node22" class="node">
<title>c28</title>
<polygon fill="none" stroke="black" points="1078.6,-411.5 1078.6,-480.5 1177.6,-480.5 1177.6,-411.5 1078.6,-411.5"/>
<text text-anchor="middle" x="1091.6" y="-465.3" font-family="Times New Roman,serif" font-size="14.00">A</text>
<polyline fill="none" stroke="black" points="1078.6,-457.5 1104.6,-457.5 "/>
<text text-anchor="middle" x="1091.6" y="-442.3" font-family="Times New Roman,serif" font-size="14.00">B</text>
<polyline fill="none" stroke="black" points="1078.6,-434.5 1104.6,-434.5 "/>
<text text-anchor="middle" x="1091.6" y="-419.3" font-family="Times New Roman,serif" font-size="14.00">S</text>
<polyline fill="none" stroke="black" points="1104.6,-411.5 1104.6,-480.5 "/>
<text text-anchor="middle" x="1128.1" y="-449.8" font-family="Times New Roman,serif" font-size="14.00">$24</text>
<text text-anchor="middle" x="1128.1" y="-434.8" font-family="Times New Roman,serif" font-size="14.00">$mux</text>
<polyline fill="none" stroke="black" points="1151.6,-411.5 1151.6,-480.5 "/>
<text text-anchor="middle" x="1164.6" y="-442.3" font-family="Times New Roman,serif" font-size="14.00">Y</text>
</g>
<!-- v7&#45;&gt;c28 -->
<g id="edge37" class="edge">
<title>v7:e&#45;&gt;c28:w</title>
<path fill="none" stroke="#a6761d" d="M1041.6,-498C1058.41,-498 1058.6,-479.22 1068.91,-471.89"/>
<polygon fill="#a6761d" stroke="#a6761d" points="1070.02,-475.21 1078.6,-469 1068.02,-468.5 1070.02,-475.21"/>
</g>
<!-- v8 -->
<g id="node21" class="node">
<title>v8</title>
<ellipse fill="none" stroke="black" cx="1014.6" cy="-444" rx="27" ry="18"/>
<text text-anchor="middle" x="1014.6" y="-440.3" font-family="Times New Roman,serif" font-size="14.00">1&#39;1</text>
</g>
<!-- v8&#45;&gt;c28 -->
<g id="edge38" class="edge">
<title>v8:e&#45;&gt;c28:w</title>
<path fill="none" stroke="#7570b3" d="M1041.6,-444C1054.08,-444 1059.44,-445.15 1068.47,-445.7"/>
<polygon fill="#7570b3" stroke="#7570b3" points="1068.5,-449.21 1078.6,-446 1068.71,-442.21 1068.5,-449.21"/>
</g>
<!-- c28&#45;&gt;x4 -->
<g id="edge20" class="edge">
<title>c28:e&#45;&gt;x4:w</title>
<path fill="none" stroke="#d95f02" d="M1177.6,-446C1199.86,-446 1207.75,-449.63 1225.74,-450.7"/>
<polygon fill="#d95f02" stroke="#d95f02" points="1226.1,-454.21 1236.2,-451 1226.3,-447.22 1226.1,-454.21"/>
</g>
<!-- v9 -->
<g id="node23" class="node">
<title>v9</title>
<ellipse fill="none" stroke="black" cx="1014.6" cy="-152" rx="27" ry="18"/>
<text text-anchor="middle" x="1014.6" y="-148.3" font-family="Times New Roman,serif" font-size="14.00">1&#39;1</text>
</g>
<!-- c29 -->
<g id="node24" class="node">
<title>c29</title>
<polygon fill="none" stroke="black" points="1078.6,-140.5 1078.6,-209.5 1177.6,-209.5 1177.6,-140.5 1078.6,-140.5"/>
<text text-anchor="middle" x="1091.6" y="-194.3" font-family="Times New Roman,serif" font-size="14.00">A</text>
<polyline fill="none" stroke="black" points="1078.6,-186.5 1104.6,-186.5 "/>
<text text-anchor="middle" x="1091.6" y="-171.3" font-family="Times New Roman,serif" font-size="14.00">B</text>
<polyline fill="none" stroke="black" points="1078.6,-163.5 1104.6,-163.5 "/>
<text text-anchor="middle" x="1091.6" y="-148.3" font-family="Times New Roman,serif" font-size="14.00">S</text>
<polyline fill="none" stroke="black" points="1104.6,-140.5 1104.6,-209.5 "/>
<text text-anchor="middle" x="1128.1" y="-178.8" font-family="Times New Roman,serif" font-size="14.00">$27</text>
<text text-anchor="middle" x="1128.1" y="-163.8" font-family="Times New Roman,serif" font-size="14.00">$mux</text>
<polyline fill="none" stroke="black" points="1151.6,-140.5 1151.6,-209.5 "/>
<text text-anchor="middle" x="1164.6" y="-171.3" font-family="Times New Roman,serif" font-size="14.00">Y</text>
</g>
<!-- v9&#45;&gt;c29 -->
<g id="edge39" class="edge">
<title>v9:e&#45;&gt;c29:w</title>
<path fill="none" stroke="#e6ab02" d="M1041.6,-152C1056.88,-152 1059.03,-166.32 1068.77,-172.36"/>
<polygon fill="#e6ab02" stroke="#e6ab02" points="1068.03,-175.79 1078.6,-175 1069.85,-169.03 1068.03,-175.79"/>
</g>
<!-- n2 -->
<g id="node32" class="node">
<title>n2</title>
<ellipse fill="black" stroke="black" cx="1216.4" cy="-175" rx="1.8" ry="1.8"/>
</g>
<!-- c29&#45;&gt;n2 -->
<g id="edge17" class="edge">
<title>c29:e&#45;&gt;n2:w</title>
<path fill="none" stroke="#e6ab02" d="M1177.6,-175C1190.06,-175 1195.44,-175 1204.47,-175"/>
<polygon fill="#e6ab02" stroke="#e6ab02" points="1204.6,-178.5 1214.6,-175 1204.6,-171.5 1204.6,-178.5"/>
</g>
<!-- v10 -->
<g id="node25" class="node">
<title>v10</title>
<ellipse fill="none" stroke="black" cx="175" cy="-202" rx="27" ry="18"/>
<text text-anchor="middle" x="175" y="-198.3" font-family="Times New Roman,serif" font-size="14.00">1&#39;0</text>
</g>
<!-- c30 -->
<g id="node27" class="node">
<title>c30</title>
<polygon fill="none" stroke="black" points="304,-129.5 304,-198.5 403,-198.5 403,-129.5 304,-129.5"/>
<text text-anchor="middle" x="317" y="-183.3" font-family="Times New Roman,serif" font-size="14.00">A</text>
<polyline fill="none" stroke="black" points="304,-175.5 330,-175.5 "/>
<text text-anchor="middle" x="317" y="-160.3" font-family="Times New Roman,serif" font-size="14.00">B</text>
<polyline fill="none" stroke="black" points="304,-152.5 330,-152.5 "/>
<text text-anchor="middle" x="317" y="-137.3" font-family="Times New Roman,serif" font-size="14.00">S</text>
<polyline fill="none" stroke="black" points="330,-129.5 330,-198.5 "/>
<text text-anchor="middle" x="353.5" y="-167.8" font-family="Times New Roman,serif" font-size="14.00">$32</text>
<text text-anchor="middle" x="353.5" y="-152.8" font-family="Times New Roman,serif" font-size="14.00">$mux</text>
<polyline fill="none" stroke="black" points="377,-129.5 377,-198.5 "/>
<text text-anchor="middle" x="390" y="-160.3" font-family="Times New Roman,serif" font-size="14.00">Y</text>
</g>
<!-- v10&#45;&gt;c30 -->
<g id="edge31" class="edge">
<title>v10:e&#45;&gt;c30:w</title>
<path fill="none" stroke="#a6761d" d="M203,-202C244.84,-202 256.8,-189.25 293.97,-187.26"/>
<polygon fill="#a6761d" stroke="#a6761d" points="294.09,-190.76 304,-187 293.91,-183.76 294.09,-190.76"/>
</g>
<!-- v11 -->
<g id="node26" class="node">
<title>v11</title>
<ellipse fill="none" stroke="black" cx="175" cy="-148" rx="27" ry="18"/>
<text text-anchor="middle" x="175" y="-144.3" font-family="Times New Roman,serif" font-size="14.00">1&#39;1</text>
</g>
<!-- v11&#45;&gt;c30 -->
<g id="edge32" class="edge">
<title>v11:e&#45;&gt;c30:w</title>
<path fill="none" stroke="#7570b3" d="M203,-148C244.9,-148 256.76,-161.6 293.96,-163.72"/>
<polygon fill="#7570b3" stroke="#7570b3" points="293.91,-167.22 304,-164 294.1,-160.22 293.91,-167.22"/>
</g>
<!-- n1 -->
<g id="node31" class="node">
<title>n1</title>
<ellipse fill="black" stroke="black" cx="494.8" cy="-198" rx="1.8" ry="1.8"/>
</g>
<!-- c30&#45;&gt;n1 -->
<g id="edge6" class="edge">
<title>c30:e&#45;&gt;n1:w</title>
<path fill="none" stroke="#e7298a" d="M403,-164C442.08,-164 449.19,-192.41 482.78,-197.29"/>
<polygon fill="#e7298a" stroke="#e7298a" points="482.78,-200.8 493,-198 483.27,-193.82 482.78,-200.8"/>
</g>
<!-- x12&#45;&gt;c30 -->
<g id="edge5" class="edge">
<title>x12:e&#45;&gt;c30:w</title>
<path fill="none" stroke="#e7298a" d="M217.99,-94.09C251.3,-100.51 258.55,-133.26 291.69,-139.85"/>
<polygon fill="none" stroke="#e7298a" points="217.95,-94.09 211.61,-97.53 206,-93 212.34,-89.56 217.95,-94.09"/>
<polygon fill="none" stroke="#e7298a" points="292.05,-139.88 298.4,-136.46 304,-141 297.65,-144.42 292.05,-139.88"/>
</g>
<!-- v13 -->
<g id="node29" class="node">
<title>v13</title>
<ellipse fill="none" stroke="black" cx="99" cy="-41" rx="27" ry="18"/>
<text text-anchor="middle" x="99" y="-37.3" font-family="Times New Roman,serif" font-size="14.00">4</text>
</g>
<!-- x14 -->
<g id="node30" class="node">
<title>x14</title>
<path fill="none" stroke="black" d="M270,-59C270,-59 240,-59 240,-59 234,-59 228,-53 228,-47 228,-47 228,-35 228,-35 228,-29 234,-23 240,-23 240,-23 270,-23 270,-23 276,-23 282,-29 282,-35 282,-35 282,-47 282,-47 282,-53 276,-59 270,-59"/>
<text text-anchor="middle" x="255" y="-37.3" font-family="Times New Roman,serif" font-size="14.00">BUF</text>
</g>
<!-- v13&#45;&gt;x14 -->
<g id="edge33" class="edge">
<title>v13:e&#45;&gt;x14:w</title>
<path fill="none" stroke="#a6761d" stroke-width="3" d="M126,-41C167.21,-41 180.04,-41 216.6,-41"/>
<polygon fill="#a6761d" stroke="#a6761d" stroke-width="3" points="217,-44.5 227,-41 217,-37.5 217,-44.5"/>
<text text-anchor="middle" x="175" y="-44.8" font-family="Times New Roman,serif" font-size="14.00" fill="#a6761d">&lt;32&gt;</text>
</g>
<!-- x14&#45;&gt;n12 -->
<g id="edge11" class="edge">
<title>x14:e&#45;&gt;n12:w</title>
<path fill="none" stroke="#1b9e77" stroke-width="3" d="M283,-41C340.74,-41 357.71,-41 410.67,-41"/>
<polygon fill="#1b9e77" stroke="#1b9e77" stroke-width="3" points="411,-44.5 421,-41 411,-37.5 411,-44.5"/>
<text text-anchor="middle" x="353.5" y="-44.8" font-family="Times New Roman,serif" font-size="14.00" fill="#1b9e77">&lt;32&gt;</text>
</g>
<!-- n1&#45;&gt;c21 -->
<g id="edge7" class="edge">
<title>n1:e&#45;&gt;c21:w</title>
<path fill="none" stroke="#e7298a" d="M496.6,-198C509.18,-198 561.7,-262.99 585.52,-281.27"/>
<polygon fill="#e7298a" stroke="#e7298a" points="584.11,-284.48 594.6,-286 587.35,-278.28 584.11,-284.48"/>
</g>
<!-- n1&#45;&gt;c29 -->
<g id="edge8" class="edge">
<title>n1:e&#45;&gt;c29:w</title>
<path fill="none" stroke="#e7298a" d="M496.6,-198C568.16,-198 586.04,-198 657.6,-198 657.6,-198 657.6,-198 1015.6,-198 1039.88,-198 1048.37,-198 1068.46,-198"/>
<polygon fill="#e7298a" stroke="#e7298a" points="1068.6,-201.5 1078.6,-198 1068.6,-194.5 1068.6,-201.5"/>
</g>
<!-- n2&#45;&gt;c22 -->
<g id="edge18" class="edge">
<title>n2:e&#45;&gt;c22:w</title>
<path fill="none" stroke="#e6ab02" d="M1218.2,-175C1227.58,-175 1227.86,-181.71 1236.2,-186 1267.33,-202.02 1276.01,-216.93 1306.12,-219.58"/>
<polygon fill="#e6ab02" stroke="#e6ab02" points="1306.06,-223.08 1316.2,-220 1306.35,-216.09 1306.06,-223.08"/>
</g>
<!-- n2&#45;&gt;c27 -->
<g id="edge19" class="edge">
<title>n2:e&#45;&gt;c27:w</title>
<path fill="none" stroke="#e6ab02" d="M1218.2,-175C1289.77,-175 1307.63,-172 1379.2,-172 1379.2,-172 1379.2,-172 1676.2,-172 1711.12,-172 1721.73,-181.03 1752.09,-182.73"/>
<polygon fill="#e6ab02" stroke="#e6ab02" points="1752.11,-186.23 1762.2,-183 1752.3,-179.23 1752.11,-186.23"/>
</g>
<!-- n7&#45;&gt;c28 -->
<g id="edge25" class="edge">
<title>n7:e&#45;&gt;c28:w</title>
<path fill="none" stroke="#1b9e77" d="M1017.6,-320C1066.85,-320 1031.59,-408.28 1068.3,-421.38"/>
<polygon fill="#1b9e77" stroke="#1b9e77" points="1068.18,-424.91 1078.6,-423 1069.26,-417.99 1068.18,-424.91"/>
</g>
<!-- n7&#45;&gt;c29 -->
<g id="edge26" class="edge">
<title>n7:e&#45;&gt;c29:w</title>
<path fill="none" stroke="#1b9e77" d="M1017.6,-320C1069.26,-320 1043.61,-260.79 1060.6,-212 1068.33,-189.82 1056.01,-162.35 1068.69,-154.31"/>
<polygon fill="#1b9e77" stroke="#1b9e77" points="1069.66,-157.68 1078.6,-152 1068.07,-150.86 1069.66,-157.68"/>
</g>
<!-- n8&#45;&gt;c26 -->
<g id="edge28" class="edge">
<title>n8:e&#45;&gt;c26:w</title>
<path fill="none" stroke="#7570b3" d="M1678.2,-249C1756.04,-249 1687.48,-397.68 1752.16,-411.04"/>
<polygon fill="#7570b3" stroke="#7570b3" points="1751.91,-414.54 1762.2,-412 1752.58,-407.57 1751.91,-414.54"/>
</g>
<!-- n8&#45;&gt;c27 -->
<g id="edge29" class="edge">
<title>n8:e&#45;&gt;c27:w</title>
<path fill="none" stroke="#7570b3" d="M1678.2,-249C1736.65,-249 1704.5,-150.15 1751.98,-138.18"/>
<polygon fill="#7570b3" stroke="#7570b3" points="1752.67,-141.63 1762.2,-137 1751.86,-134.67 1752.67,-141.63"/>
</g>
</g>
</svg>
