<?xml version="1.0" encoding="UTF-8" standalone="no"?>
<!DOCTYPE svg PUBLIC "-//W3C//DTD SVG 1.1//EN"
 "http://www.w3.org/Graphics/SVG/1.1/DTD/svg11.dtd">
<!-- Generated by graphviz version 4.0.0 (20220529.0937)
 -->
<!-- Title: top_module Pages: 1 -->
<svg width="738pt" height="505pt"
 viewBox="0.00 0.00 738.00 504.50" xmlns="http://www.w3.org/2000/svg" xmlns:xlink="http://www.w3.org/1999/xlink">
<g id="graph0" class="graph" transform="scale(1 1) rotate(0) translate(4 500.5)">
<title>top_module</title>
<polygon fill="white" stroke="transparent" points="-4,4 -4,-500.5 734,-500.5 734,4 -4,4"/>
<text text-anchor="middle" x="365" y="-7.8" font-family="Times New Roman,serif" font-size="14.00">top_module</text>
<!-- n1 -->
<g id="node1" class="node">
<title>n1</title>
<polygon fill="none" stroke="black" points="532,-59 505,-41 532,-23 559,-41 532,-59"/>
<text text-anchor="middle" x="532" y="-37.3" font-family="Times New Roman,serif" font-size="14.00">i</text>
</g>
<!-- n2 -->
<g id="node2" class="node">
<title>n2</title>
<polygon fill="none" stroke="black" points="54,-269.54 54,-284.46 38.18,-295 15.82,-295 0,-284.46 0,-269.54 15.82,-259 38.18,-259 54,-269.54"/>
<text text-anchor="middle" x="27" y="-273.3" font-family="Times New Roman,serif" font-size="14.00">in</text>
</g>
<!-- x0 -->
<g id="node5" class="node">
<title>x0</title>
<path fill="none" stroke="black" d="M156,-460C156,-460 194,-460 194,-460 200,-460 206,-466 206,-472 206,-472 206,-484 206,-484 206,-490 200,-496 194,-496 194,-496 156,-496 156,-496 150,-496 144,-490 144,-484 144,-484 144,-472 144,-472 144,-466 150,-460 156,-460"/>
<text text-anchor="middle" x="175" y="-474.3" font-family="Times New Roman,serif" font-size="14.00">2:2 &#45; 0:0</text>
</g>
<!-- n2&#45;&gt;x0 -->
<g id="edge12" class="edge">
<title>n2:e&#45;&gt;x0:w</title>
<path fill="none" stroke="#e6ab02" d="M54,-277C81.4,-277 60.26,-374.24 72,-399 90.76,-438.57 95.75,-472.32 133.63,-477.35"/>
<polygon fill="#e6ab02" stroke="#e6ab02" points="133.8,-480.87 144,-478 134.24,-473.88 133.8,-480.87"/>
</g>
<!-- x1 -->
<g id="node6" class="node">
<title>x1</title>
<path fill="none" stroke="black" d="M156,-405C156,-405 194,-405 194,-405 200,-405 206,-411 206,-417 206,-417 206,-429 206,-429 206,-435 200,-441 194,-441 194,-441 156,-441 156,-441 150,-441 144,-435 144,-429 144,-429 144,-417 144,-417 144,-411 150,-405 156,-405"/>
<text text-anchor="middle" x="175" y="-419.3" font-family="Times New Roman,serif" font-size="14.00">3:3 &#45; 0:0</text>
</g>
<!-- n2&#45;&gt;x1 -->
<g id="edge13" class="edge">
<title>n2:e&#45;&gt;x1:w</title>
<path fill="none" stroke="#e6ab02" d="M54,-277C87.85,-277 55.42,-321.49 72,-351 92.35,-387.22 97.88,-417.61 133.65,-422.36"/>
<polygon fill="#e6ab02" stroke="#e6ab02" points="133.8,-425.87 144,-423 134.24,-418.89 133.8,-425.87"/>
</g>
<!-- x2 -->
<g id="node7" class="node">
<title>x2</title>
<path fill="none" stroke="black" d="M156,-350C156,-350 194,-350 194,-350 200,-350 206,-356 206,-362 206,-362 206,-374 206,-374 206,-380 200,-386 194,-386 194,-386 156,-386 156,-386 150,-386 144,-380 144,-374 144,-374 144,-362 144,-362 144,-356 150,-350 156,-350"/>
<text text-anchor="middle" x="175" y="-364.3" font-family="Times New Roman,serif" font-size="14.00">1:1 &#45; 0:0</text>
</g>
<!-- n2&#45;&gt;x2 -->
<g id="edge14" class="edge">
<title>n2:e&#45;&gt;x2:w</title>
<path fill="none" stroke="#e6ab02" d="M54,-277C70.32,-277 61.51,-296.5 72,-309 96.21,-337.84 101.72,-363.06 133.71,-367.36"/>
<polygon fill="#e6ab02" stroke="#e6ab02" points="133.8,-370.87 144,-368 134.24,-363.88 133.8,-370.87"/>
</g>
<!-- x3 -->
<g id="node8" class="node">
<title>x3</title>
<path fill="none" stroke="black" d="M156,-295C156,-295 194,-295 194,-295 200,-295 206,-301 206,-307 206,-307 206,-319 206,-319 206,-325 200,-331 194,-331 194,-331 156,-331 156,-331 150,-331 144,-325 144,-319 144,-319 144,-307 144,-307 144,-301 150,-295 156,-295"/>
<text text-anchor="middle" x="175" y="-309.3" font-family="Times New Roman,serif" font-size="14.00">0:0 &#45; 0:0</text>
</g>
<!-- n2&#45;&gt;x3 -->
<g id="edge15" class="edge">
<title>n2:e&#45;&gt;x3:w</title>
<path fill="none" stroke="#e6ab02" d="M54,-277C62.96,-277 111.86,-301.92 134.24,-310.29"/>
<polygon fill="#e6ab02" stroke="#e6ab02" points="133.43,-313.7 144,-313 135.3,-306.96 133.43,-313.7"/>
</g>
<!-- x5 -->
<g id="node11" class="node">
<title>x5</title>
<path fill="none" stroke="black" d="M156,-240C156,-240 194,-240 194,-240 200,-240 206,-246 206,-252 206,-252 206,-264 206,-264 206,-270 200,-276 194,-276 194,-276 156,-276 156,-276 150,-276 144,-270 144,-264 144,-264 144,-252 144,-252 144,-246 150,-240 156,-240"/>
<text text-anchor="middle" x="175" y="-254.3" font-family="Times New Roman,serif" font-size="14.00">3:3 &#45; 0:0</text>
</g>
<!-- n2&#45;&gt;x5 -->
<g id="edge16" class="edge">
<title>n2:e&#45;&gt;x5:w</title>
<path fill="none" stroke="#e6ab02" d="M54,-277C91.21,-277 101.37,-261.26 133.72,-258.43"/>
<polygon fill="#e6ab02" stroke="#e6ab02" points="134.16,-261.92 144,-258 133.86,-254.92 134.16,-261.92"/>
</g>
<!-- x6 -->
<g id="node12" class="node">
<title>x6</title>
<path fill="none" stroke="black" d="M156,-185C156,-185 194,-185 194,-185 200,-185 206,-191 206,-197 206,-197 206,-209 206,-209 206,-215 200,-221 194,-221 194,-221 156,-221 156,-221 150,-221 144,-215 144,-209 144,-209 144,-197 144,-197 144,-191 150,-185 156,-185"/>
<text text-anchor="middle" x="175" y="-199.3" font-family="Times New Roman,serif" font-size="14.00">2:2 &#45; 0:0</text>
</g>
<!-- n2&#45;&gt;x6 -->
<g id="edge17" class="edge">
<title>n2:e&#45;&gt;x6:w</title>
<path fill="none" stroke="#e6ab02" d="M54,-277C66.29,-277 62.99,-264.36 72,-256 98.39,-231.5 103.45,-207.88 133.74,-203.66"/>
<polygon fill="#e6ab02" stroke="#e6ab02" points="134.25,-207.14 144,-203 133.79,-200.15 134.25,-207.14"/>
</g>
<!-- x7 -->
<g id="node13" class="node">
<title>x7</title>
<path fill="none" stroke="black" d="M156,-130C156,-130 194,-130 194,-130 200,-130 206,-136 206,-142 206,-142 206,-154 206,-154 206,-160 200,-166 194,-166 194,-166 156,-166 156,-166 150,-166 144,-160 144,-154 144,-154 144,-142 144,-142 144,-136 150,-130 156,-130"/>
<text text-anchor="middle" x="175" y="-144.3" font-family="Times New Roman,serif" font-size="14.00">0:0 &#45; 0:0</text>
</g>
<!-- n2&#45;&gt;x7 -->
<g id="edge18" class="edge">
<title>n2:e&#45;&gt;x7:w</title>
<path fill="none" stroke="#e6ab02" d="M54,-277C88.28,-277 53.17,-230.65 72,-202 91.99,-171.58 102.1,-151.8 133.91,-148.49"/>
<polygon fill="#e6ab02" stroke="#e6ab02" points="134.18,-151.98 144,-148 133.84,-144.99 134.18,-151.98"/>
</g>
<!-- x8 -->
<g id="node14" class="node">
<title>x8</title>
<path fill="none" stroke="black" d="M156,-75C156,-75 194,-75 194,-75 200,-75 206,-81 206,-87 206,-87 206,-99 206,-99 206,-105 200,-111 194,-111 194,-111 156,-111 156,-111 150,-111 144,-105 144,-99 144,-99 144,-87 144,-87 144,-81 150,-75 156,-75"/>
<text text-anchor="middle" x="175" y="-89.3" font-family="Times New Roman,serif" font-size="14.00">1:1 &#45; 0:0</text>
</g>
<!-- n2&#45;&gt;x8 -->
<g id="edge19" class="edge">
<title>n2:e&#45;&gt;x8:w</title>
<path fill="none" stroke="#e6ab02" d="M54,-277C83.38,-277 56.98,-171.26 72,-146 90.48,-114.91 102.05,-96.51 133.94,-93.45"/>
<polygon fill="#e6ab02" stroke="#e6ab02" points="134.17,-96.95 144,-93 133.85,-89.95 134.17,-96.95"/>
</g>
<!-- n3 -->
<g id="node3" class="node">
<title>n3</title>
<polygon fill="none" stroke="black" points="730,-285.54 730,-300.46 714.18,-311 691.82,-311 676,-300.46 676,-285.54 691.82,-275 714.18,-275 730,-285.54"/>
<text text-anchor="middle" x="703" y="-289.3" font-family="Times New Roman,serif" font-size="14.00">pos</text>
</g>
<!-- c9 -->
<g id="node4" class="node">
<title>c9</title>
<polygon fill="none" stroke="black" points="296,-334 296,-426 487,-426 487,-334 296,-334"/>
<text text-anchor="middle" x="310" y="-410.8" font-family="Times New Roman,serif" font-size="14.00">I0</text>
<polyline fill="none" stroke="black" points="296,-403 324,-403 "/>
<text text-anchor="middle" x="310" y="-387.8" font-family="Times New Roman,serif" font-size="14.00">I1</text>
<polyline fill="none" stroke="black" points="296,-380 324,-380 "/>
<text text-anchor="middle" x="310" y="-364.8" font-family="Times New Roman,serif" font-size="14.00">I2</text>
<polyline fill="none" stroke="black" points="296,-357 324,-357 "/>
<text text-anchor="middle" x="310" y="-341.8" font-family="Times New Roman,serif" font-size="14.00">I3</text>
<polyline fill="none" stroke="black" points="324,-334 324,-426 "/>
<text text-anchor="middle" x="392" y="-383.8" font-family="Times New Roman,serif" font-size="14.00">pos_SB_LUT4_O_1</text>
<text text-anchor="middle" x="392" y="-368.8" font-family="Times New Roman,serif" font-size="14.00">SB_LUT4</text>
<polyline fill="none" stroke="black" points="460,-334 460,-426 "/>
<text text-anchor="middle" x="473.5" y="-376.3" font-family="Times New Roman,serif" font-size="14.00">O</text>
</g>
<!-- x4 -->
<g id="node9" class="node">
<title>x4</title>
<path fill="none" stroke="black" d="M589,-336C589,-336 627,-336 627,-336 633,-336 639,-342 639,-348 639,-348 639,-360 639,-360 639,-366 633,-372 627,-372 627,-372 589,-372 589,-372 583,-372 577,-366 577,-360 577,-360 577,-348 577,-348 577,-342 583,-336 589,-336"/>
<text text-anchor="middle" x="608" y="-350.3" font-family="Times New Roman,serif" font-size="14.00">0:0 &#45; 0:0</text>
</g>
<!-- c9&#45;&gt;x4 -->
<g id="edge5" class="edge">
<title>c9:e&#45;&gt;x4:w</title>
<path fill="none" stroke="#e7298a" d="M499.09,-379.19C526.77,-375.32 537.27,-358.65 564.98,-354.8"/>
<polygon fill="none" stroke="#e7298a" points="498.97,-379.2 493.25,-383.59 487,-380 492.72,-375.61 498.97,-379.2"/>
<polygon fill="none" stroke="#e7298a" points="565.03,-354.79 570.75,-350.41 577,-354 571.28,-358.39 565.03,-354.79"/>
</g>
<!-- x0&#45;&gt;c9 -->
<g id="edge1" class="edge">
<title>x0:e&#45;&gt;c9:w</title>
<path fill="none" stroke="#66a61e" d="M217.53,-474.43C237.77,-463.4 263.98,-429.88 284.25,-418.69"/>
<polygon fill="none" stroke="#66a61e" points="217.46,-474.45 212.91,-480.05 206,-478 210.55,-472.41 217.46,-474.45"/>
<polygon fill="none" stroke="#66a61e" points="284.55,-418.59 289.08,-412.98 296,-415 291.47,-420.61 284.55,-418.59"/>
</g>
<!-- x1&#45;&gt;c9 -->
<g id="edge2" class="edge">
<title>x1:e&#45;&gt;c9:w</title>
<path fill="none" stroke="#1b9e77" d="M218.24,-422.04C246.15,-417.42 255.89,-397.55 283.83,-392.95"/>
<polygon fill="none" stroke="#1b9e77" points="217.96,-422.06 212.29,-426.52 206,-423 211.67,-418.54 217.96,-422.06"/>
<polygon fill="none" stroke="#1b9e77" points="284.04,-392.93 289.71,-388.48 296,-392 290.33,-396.46 284.04,-392.93"/>
</g>
<!-- x2&#45;&gt;c9 -->
<g id="edge3" class="edge">
<title>x2:e&#45;&gt;c9:w</title>
<path fill="none" stroke="#1b9e77" d="M218.13,-368C244.74,-368 257.13,-368 283.67,-368"/>
<polygon fill="none" stroke="#1b9e77" points="218,-368 212,-372 206,-368 212,-364 218,-368"/>
<polygon fill="none" stroke="#1b9e77" points="284,-368 290,-364 296,-368 290,-372 284,-368"/>
</g>
<!-- x3&#45;&gt;c9 -->
<g id="edge4" class="edge">
<title>x3:e&#45;&gt;c9:w</title>
<path fill="none" stroke="#7570b3" d="M218.27,-313.99C246.23,-318.76 255.81,-339.28 283.79,-344.02"/>
<polygon fill="none" stroke="#7570b3" points="217.96,-313.97 211.66,-317.47 206,-313 212.3,-309.5 217.96,-313.97"/>
<polygon fill="none" stroke="#7570b3" points="284.04,-344.04 290.34,-340.53 296,-345 289.7,-348.51 284.04,-344.04"/>
</g>
<!-- x4&#45;&gt;n3 -->
<g id="edge20" class="edge">
<title>x4:e&#45;&gt;n3:w</title>
<path fill="none" stroke="#d95f02" d="M639,-354C666.5,-354 650.28,-308.13 666.17,-295.94"/>
<polygon fill="#d95f02" stroke="#d95f02" points="667.42,-299.22 676,-293 665.42,-292.51 667.42,-299.22"/>
</g>
<!-- c10 -->
<g id="node10" class="node">
<title>c10</title>
<polygon fill="none" stroke="black" points="303,-145 303,-237 480,-237 480,-145 303,-145"/>
<text text-anchor="middle" x="317" y="-221.8" font-family="Times New Roman,serif" font-size="14.00">I0</text>
<polyline fill="none" stroke="black" points="303,-214 331,-214 "/>
<text text-anchor="middle" x="317" y="-198.8" font-family="Times New Roman,serif" font-size="14.00">I1</text>
<polyline fill="none" stroke="black" points="303,-191 331,-191 "/>
<text text-anchor="middle" x="317" y="-175.8" font-family="Times New Roman,serif" font-size="14.00">I2</text>
<polyline fill="none" stroke="black" points="303,-168 331,-168 "/>
<text text-anchor="middle" x="317" y="-152.8" font-family="Times New Roman,serif" font-size="14.00">I3</text>
<polyline fill="none" stroke="black" points="331,-145 331,-237 "/>
<text text-anchor="middle" x="392" y="-194.8" font-family="Times New Roman,serif" font-size="14.00">pos_SB_LUT4_O</text>
<text text-anchor="middle" x="392" y="-179.8" font-family="Times New Roman,serif" font-size="14.00">SB_LUT4</text>
<polyline fill="none" stroke="black" points="453,-145 453,-237 "/>
<text text-anchor="middle" x="466.5" y="-187.3" font-family="Times New Roman,serif" font-size="14.00">O</text>
</g>
<!-- x9 -->
<g id="node15" class="node">
<title>x9</title>
<path fill="none" stroke="black" d="M589,-248C589,-248 627,-248 627,-248 633,-248 639,-254 639,-260 639,-260 639,-272 639,-272 639,-278 633,-284 627,-284 627,-284 589,-284 589,-284 583,-284 577,-278 577,-272 577,-272 577,-260 577,-260 577,-254 583,-248 589,-248"/>
<text text-anchor="middle" x="608" y="-262.3" font-family="Times New Roman,serif" font-size="14.00">0:0 &#45; 1:1</text>
</g>
<!-- c10&#45;&gt;x9 -->
<g id="edge10" class="edge">
<title>c10:e&#45;&gt;x9:w</title>
<path fill="none" stroke="#1b9e77" d="M493.51,-192.43C530.25,-201.87 528.23,-255.07 564.93,-264.55"/>
<polygon fill="none" stroke="#1b9e77" points="493.42,-192.42 486.98,-195.68 481.5,-191 487.93,-187.74 493.42,-192.42"/>
<polygon fill="none" stroke="#1b9e77" points="565.09,-264.57 571.52,-261.31 577,-266 570.57,-269.26 565.09,-264.57"/>
</g>
<!-- x5&#45;&gt;c10 -->
<g id="edge6" class="edge">
<title>x5:e&#45;&gt;c10:w</title>
<path fill="none" stroke="#e7298a" d="M218.08,-257.14C248.56,-252.61 258.88,-231.45 289.31,-226.87"/>
<polygon fill="none" stroke="#e7298a" points="217.97,-257.15 212.27,-261.57 206,-258 211.7,-253.59 217.97,-257.15"/>
<polygon fill="none" stroke="#e7298a" points="289.53,-226.86 295.23,-222.44 301.5,-226 295.8,-230.42 289.53,-226.86"/>
</g>
<!-- x6&#45;&gt;c10 -->
<g id="edge7" class="edge">
<title>x6:e&#45;&gt;c10:w</title>
<path fill="none" stroke="#7570b3" d="M218.01,-203C247.2,-203 260.29,-203 289.46,-203"/>
<polygon fill="none" stroke="#7570b3" points="218,-203 212,-207 206,-203 212,-199 218,-203"/>
<polygon fill="none" stroke="#7570b3" points="289.5,-203 295.5,-199 301.5,-203 295.5,-207 289.5,-203"/>
</g>
<!-- x7&#45;&gt;c10 -->
<g id="edge8" class="edge">
<title>x7:e&#45;&gt;c10:w</title>
<path fill="none" stroke="#d95f02" d="M218.05,-148.83C248.47,-153.22 258.96,-173.72 289.34,-178.15"/>
<polygon fill="none" stroke="#d95f02" points="217.97,-148.82 211.71,-152.4 206,-148 212.26,-144.42 217.97,-148.82"/>
<polygon fill="none" stroke="#d95f02" points="289.53,-178.17 295.79,-174.59 301.5,-179 295.24,-182.57 289.53,-178.17"/>
</g>
<!-- x8&#45;&gt;c10 -->
<g id="edge9" class="edge">
<title>x8:e&#45;&gt;c10:w</title>
<path fill="none" stroke="#1b9e77" d="M217.76,-96.39C239.36,-107.33 268.1,-141.63 289.71,-152.6"/>
<polygon fill="none" stroke="#1b9e77" points="217.53,-96.32 210.66,-98.5 206,-93 212.87,-90.82 217.53,-96.32"/>
<polygon fill="none" stroke="#1b9e77" points="289.97,-152.67 296.84,-150.49 301.5,-156 294.63,-158.18 289.97,-152.67"/>
</g>
<!-- x9&#45;&gt;n3 -->
<g id="edge21" class="edge">
<title>x9:e&#45;&gt;n3:w</title>
<path fill="none" stroke="#d95f02" d="M639,-266C655.22,-266 656.16,-283.15 666.17,-290.11"/>
<polygon fill="#d95f02" stroke="#d95f02" points="665.42,-293.54 676,-293 667.39,-286.82 665.42,-293.54"/>
</g>
<!-- v10 -->
<g id="node16" class="node">
<title>v10</title>
<ellipse fill="none" stroke="black" cx="99" cy="-41" rx="27" ry="18"/>
<text text-anchor="middle" x="99" y="-37.3" font-family="Times New Roman,serif" font-size="14.00">4</text>
</g>
<!-- x11 -->
<g id="node17" class="node">
<title>x11</title>
<path fill="none" stroke="black" d="M266,-59C266,-59 236,-59 236,-59 230,-59 224,-53 224,-47 224,-47 224,-35 224,-35 224,-29 230,-23 236,-23 236,-23 266,-23 266,-23 272,-23 278,-29 278,-35 278,-35 278,-47 278,-47 278,-53 272,-59 266,-59"/>
<text text-anchor="middle" x="251" y="-37.3" font-family="Times New Roman,serif" font-size="14.00">BUF</text>
</g>
<!-- v10&#45;&gt;x11 -->
<g id="edge22" class="edge">
<title>v10:e&#45;&gt;x11:w</title>
<path fill="none" stroke="#d95f02" stroke-width="3" d="M126,-41C165.98,-41 178.44,-41 213.9,-41"/>
<polygon fill="#d95f02" stroke="#d95f02" stroke-width="3" points="214,-44.5 224,-41 214,-37.5 214,-44.5"/>
<text text-anchor="middle" x="175" y="-44.8" font-family="Times New Roman,serif" font-size="14.00" fill="#d95f02">&lt;32&gt;</text>
</g>
<!-- x11&#45;&gt;n1 -->
<g id="edge11" class="edge">
<title>x11:e&#45;&gt;n1:w</title>
<path fill="none" stroke="#e6ab02" stroke-width="3" d="M278,-41C375.44,-41 402.3,-41 494.91,-41"/>
<polygon fill="#e6ab02" stroke="#e6ab02" stroke-width="3" points="495,-44.5 505,-41 495,-37.5 495,-44.5"/>
<text text-anchor="middle" x="391.5" y="-44.8" font-family="Times New Roman,serif" font-size="14.00" fill="#e6ab02">&lt;32&gt;</text>
</g>
</g>
</svg>
