<svg xmlns="http://www.w3.org/2000/svg" xmlns:xlink="http://www.w3.org/1999/xlink" xmlns:s="https://github.com/nturley/netlistsvg" width="799" height="360.5">
  <style>svg {
    stroke:#000;
    fill:none;
  }
  text {
    fill:#000;
    stroke:none;
    font-size:10px;
    font-weight: bold;
    font-family: "Courier New", monospace;
  }
  .nodelabel {
    text-anchor: middle;
  }
  .inputPortLabel {
    text-anchor: end;
  }
  .splitjoinBody {
    fill:#000;
  }</style>
  <g s:type="and" transform="translate(637,280)" s:width="30" s:height="25" id="cell_$logic_and$top_module.v:21$10">
    <s:alias val="$and"/>
    <s:alias val="$logic_and"/>
    <s:alias val="$_AND_"/>
    <path d="M0,0 L0,25 L15,25 A15 12.5 0 0 0 15,0 Z" class="cell_$logic_and$top_module.v:21$10"/>
    <g s:x="0" s:y="5" s:pid="A"/>
    <g s:x="0" s:y="20" s:pid="B"/>
    <g s:x="30" s:y="12.5" s:pid="Y"/>
  </g>
  <g s:type="and" transform="translate(267,85)" s:width="30" s:height="25" id="cell_$logic_and$top_module.v:21$6">
    <s:alias val="$and"/>
    <s:alias val="$logic_and"/>
    <s:alias val="$_AND_"/>
    <path d="M0,0 L0,25 L15,25 A15 12.5 0 0 0 15,0 Z" class="cell_$logic_and$top_module.v:21$6"/>
    <g s:x="0" s:y="5" s:pid="A"/>
    <g s:x="0" s:y="20" s:pid="B"/>
    <g s:x="30" s:y="12.5" s:pid="Y"/>
  </g>
  <g s:type="and" transform="translate(452,192.5)" s:width="30" s:height="25" id="cell_$logic_and$top_module.v:21$8">
    <s:alias val="$and"/>
    <s:alias val="$logic_and"/>
    <s:alias val="$_AND_"/>
    <path d="M0,0 L0,25 L15,25 A15 12.5 0 0 0 15,0 Z" class="cell_$logic_and$top_module.v:21$8"/>
    <g s:x="0" s:y="5" s:pid="A"/>
    <g s:x="0" s:y="20" s:pid="B"/>
    <g s:x="30" s:y="12.5" s:pid="Y"/>
  </g>
  <g s:type="not" transform="translate(202,95)" s:width="30" s:height="20" id="cell_$logic_not$top_module.v:21$5">
    <s:alias val="$_NOT_"/>
    <s:alias val="$not"/>
    <s:alias val="$logic_not"/>
    <path d="M0,0 L0,20 L20,10 Z" class="cell_$logic_not$top_module.v:21$5"/>
    <circle cx="23" cy="10" r="3" class="cell_$logic_not$top_module.v:21$5"/>
    <g s:x="0" s:y="10" s:pid="A"/>
    <g s:x="25" s:y="10" s:pid="Y"/>
  </g>
  <g s:type="not" transform="translate(387,202.5)" s:width="30" s:height="20" id="cell_$logic_not$top_module.v:21$7">
    <s:alias val="$_NOT_"/>
    <s:alias val="$not"/>
    <s:alias val="$logic_not"/>
    <path d="M0,0 L0,20 L20,10 Z" class="cell_$logic_not$top_module.v:21$7"/>
    <circle cx="23" cy="10" r="3" class="cell_$logic_not$top_module.v:21$7"/>
    <g s:x="0" s:y="10" s:pid="A"/>
    <g s:x="25" s:y="10" s:pid="Y"/>
  </g>
  <g s:type="not" transform="translate(572,290)" s:width="30" s:height="20" id="cell_$logic_not$top_module.v:21$9">
    <s:alias val="$_NOT_"/>
    <s:alias val="$not"/>
    <s:alias val="$logic_not"/>
    <path d="M0,0 L0,20 L20,10 Z" class="cell_$logic_not$top_module.v:21$9"/>
    <circle cx="23" cy="10" r="3" class="cell_$logic_not$top_module.v:21$9"/>
    <g s:x="0" s:y="10" s:pid="A"/>
    <g s:x="25" s:y="10" s:pid="Y"/>
  </g>
  <g s:type="mux" transform="translate(702,205)" s:width="20" s:height="40" id="cell_$procmux$12">
    <s:alias val="$pmux"/>
    <s:alias val="$mux"/>
    <s:alias val="$_MUX_"/>
    <path d="M0,0 L20,10 L20,30 L0,40 Z" class="cell_$procmux$12"/>
    <g s:x="0" s:y="10" s:pid="A"/>
    <g s:x="0" s:y="30" s:pid="B"/>
    <g s:x="10" s:y="35" s:pid="S"/>
    <g s:x="20" s:y="20" s:pid="Y"/>
  </g>
  <g s:type="mux" transform="translate(640.3333333333334,155)" s:width="20" s:height="40" id="cell_$procmux$18">
    <s:alias val="$pmux"/>
    <s:alias val="$mux"/>
    <s:alias val="$_MUX_"/>
    <path d="M0,0 L20,10 L20,30 L0,40 Z" class="cell_$procmux$18"/>
    <g s:x="0" s:y="10" s:pid="A"/>
    <g s:x="0" s:y="30" s:pid="B"/>
    <g s:x="10" s:y="35" s:pid="S"/>
    <g s:x="20" s:y="20" s:pid="Y"/>
  </g>
  <g s:type="mux" transform="translate(517,145)" s:width="20" s:height="40" id="cell_$procmux$21">
    <s:alias val="$pmux"/>
    <s:alias val="$mux"/>
    <s:alias val="$_MUX_"/>
    <path d="M0,0 L20,10 L20,30 L0,40 Z" class="cell_$procmux$21"/>
    <g s:x="0" s:y="10" s:pid="A"/>
    <g s:x="0" s:y="30" s:pid="B"/>
    <g s:x="10" s:y="35" s:pid="S"/>
    <g s:x="20" s:y="20" s:pid="Y"/>
  </g>
  <g s:type="mux" transform="translate(517,12)" s:width="20" s:height="40" id="cell_$procmux$24">
    <s:alias val="$pmux"/>
    <s:alias val="$mux"/>
    <s:alias val="$_MUX_"/>
    <path d="M0,0 L20,10 L20,30 L0,40 Z" class="cell_$procmux$24"/>
    <g s:x="0" s:y="10" s:pid="A"/>
    <g s:x="0" s:y="30" s:pid="B"/>
    <g s:x="10" s:y="35" s:pid="S"/>
    <g s:x="20" s:y="20" s:pid="Y"/>
  </g>
  <g s:type="mux" transform="translate(332,115)" s:width="20" s:height="40" id="cell_$procmux$27">
    <s:alias val="$pmux"/>
    <s:alias val="$mux"/>
    <s:alias val="$_MUX_"/>
    <path d="M0,0 L20,10 L20,30 L0,40 Z" class="cell_$procmux$27"/>
    <g s:x="0" s:y="10" s:pid="A"/>
    <g s:x="0" s:y="30" s:pid="B"/>
    <g s:x="10" s:y="35" s:pid="S"/>
    <g s:x="20" s:y="20" s:pid="Y"/>
  </g>
  <g s:type="mux" transform="translate(147,105)" s:width="20" s:height="40" id="cell_$procmux$32">
    <s:alias val="$pmux"/>
    <s:alias val="$mux"/>
    <s:alias val="$_MUX_"/>
    <path d="M0,0 L20,10 L20,30 L0,40 Z" class="cell_$procmux$32"/>
    <g s:x="0" s:y="10" s:pid="A"/>
    <g s:x="0" s:y="30" s:pid="B"/>
    <g s:x="10" s:y="35" s:pid="S"/>
    <g s:x="20" s:y="20" s:pid="Y"/>
  </g>
  <g s:type="inputExt" transform="translate(12,279)" s:width="30" s:height="20" id="cell_in">
    <text x="15" y="-4" class="nodelabel cell_in" s:attribute="ref">in</text>
    <s:alias val="$_inputExt_"/>
    <path d="M0,0 L0,20 L15,20 L30,10 L15,0 Z" class="cell_in"/>
    <g s:x="28" s:y="10" s:pid="Y"/>
  </g>
  <g s:type="outputExt" transform="translate(757,215)" s:width="30" s:height="20" id="cell_pos">
    <text x="15" y="-4" class="nodelabel cell_pos" s:attribute="ref">pos</text>
    <s:alias val="$_outputExt_"/>
    <path d="M30,0 L30,20 L15,20 L0,10 L15,0 Z" class="cell_pos"/>
    <g s:x="0" s:y="10" s:pid="A"/>
  </g>
  <g s:type="constant" transform="translate(637,225)" s:width="30" s:height="20" id="cell_11">
    <text x="15" y="-4" class="nodelabel cell_11" s:attribute="ref">11</text>
    <s:alias val="$_constant_"/>
    <rect width="30" height="20" class="cell_11"/>
    <g s:x="30" s:y="10" s:pid="Y"/>
  </g>
  <g s:type="constant" transform="translate(77,63)" s:width="30" s:height="20" id="cell_0">
    <text x="15" y="-4" class="nodelabel cell_0" s:attribute="ref">0</text>
    <s:alias val="$_constant_"/>
    <rect width="30" height="20" class="cell_0"/>
    <g s:x="30" s:y="10" s:pid="Y"/>
  </g>
  <g s:type="constant" transform="translate(572,175)" s:width="30" s:height="20" id="cell_10">
    <text x="15" y="-4" class="nodelabel cell_10" s:attribute="ref">10</text>
    <s:alias val="$_constant_"/>
    <rect width="30" height="20" class="cell_10"/>
    <g s:x="30" s:y="10" s:pid="Y"/>
  </g>
  <g s:type="constant" transform="translate(77,165)" s:width="30" s:height="20" id="cell_1">
    <text x="15" y="-4" class="nodelabel cell_1" s:attribute="ref">1</text>
    <s:alias val="$_constant_"/>
    <rect width="30" height="20" class="cell_1"/>
    <g s:x="30" s:y="10" s:pid="Y"/>
  </g>
  <g s:type="join" transform="translate(583,42.5)" s:width="4" s:height="40" id="cell_$join$,19,22,">
    <rect width="5" height="40" class="splitjoinBody" s:generic="body"/>
    <s:alias val="$_join_"/>
    <g s:x="5" s:y="20" s:pid="out"/>
    <g transform="translate(0,10)" s:x="0" s:y="10" s:pid="in0">
      <text x="-3" y="-4" class="inputPortLabel">0</text>
    </g>
    <g transform="translate(0,30)" s:x="0" s:y="10" s:pid="in0">
      <text x="-3" y="-4" class="inputPortLabel">1</text>
    </g>
  </g>
  <g s:type="split" transform="translate(92.8,268.5)" s:width="5" s:height="40" id="cell_$split$,2,3,4,5,">
    <rect width="5" height="80" class="splitjoinBody" s:generic="body"/>
    <s:alias val="$_split_"/>
    <g s:x="0" s:y="20" s:pid="in"/>
    <g transform="translate(4,10)" s:x="4" s:y="10" s:pid="out0">
      <text x="5" y="-4">3</text>
    </g>
    <g transform="translate(4,30)" s:x="4" s:y="10" s:pid="out0">
      <text x="5" y="-4">1</text>
    </g>
    <g transform="translate(4,50)" s:x="4" s:y="10" s:pid="out0">
      <text x="5" y="-4">2</text>
    </g>
    <g transform="translate(4,70)" s:x="4" s:y="10" s:pid="out0">
      <text x="5" y="-4">0</text>
    </g>
  </g>
  <line x1="97.8" x2="612" y1="279" y2="279" class="net_5"/>
  <line x1="612" x2="612" y1="279" y2="285" class="net_5"/>
  <line x1="612" x2="637" y1="285" y2="285" class="net_5"/>
  <line x1="597" x2="637" y1="300" y2="300" class="net_8"/>
  <line x1="97.8" x2="117" y1="299" y2="299" class="net_3"/>
  <line x1="117" x2="117" y1="299" y2="84" class="net_3"/>
  <line x1="117" x2="242" y1="84" y2="84" class="net_3"/>
  <line x1="242" x2="242" y1="84" y2="90" class="net_3"/>
  <line x1="242" x2="267" y1="90" y2="90" class="net_3"/>
  <line x1="227" x2="267" y1="105" y2="105" class="net_10"/>
  <line x1="97.8" x2="127" y1="319" y2="319" class="net_4"/>
  <line x1="127" x2="127" y1="319" y2="191.5" class="net_4"/>
  <line x1="127" x2="427" y1="191.5" y2="191.5" class="net_4"/>
  <line x1="427" x2="427" y1="191.5" y2="197.5" class="net_4"/>
  <line x1="427" x2="452" y1="197.5" y2="197.5" class="net_4"/>
  <line x1="412" x2="452" y1="212.5" y2="212.5" class="net_12"/>
  <line x1="167" x2="177" y1="125" y2="125" class="net_14"/>
  <line x1="177" x2="177" y1="125" y2="105" class="net_14"/>
  <circle cx="177" cy="125" r="2" style="fill:#000" class="net_14"/>
  <line x1="177" x2="202" y1="105" y2="105" class="net_14"/>
  <line x1="167" x2="332" y1="125" y2="125" class="net_14"/>
  <line x1="352" x2="362" y1="135" y2="135" class="net_15"/>
  <line x1="362" x2="362" y1="135" y2="212.5" class="net_15"/>
  <circle cx="362" cy="135" r="2" style="fill:#000" class="net_15"/>
  <line x1="362" x2="387" y1="212.5" y2="212.5" class="net_15"/>
  <line x1="352" x2="492" y1="135" y2="135" class="net_15"/>
  <line x1="492" x2="492" y1="135" y2="155" class="net_15"/>
  <line x1="492" x2="517" y1="155" y2="155" class="net_15"/>
  <line x1="537" x2="547" y1="165" y2="165" class="net_16"/>
  <line x1="547" x2="547" y1="165" y2="300" class="net_16"/>
  <line x1="547" x2="572" y1="300" y2="300" class="net_16"/>
  <line x1="660.3333333333334" x2="677" y1="175" y2="175" class="net_17,18"/>
  <line x1="677" x2="677" y1="175" y2="215" class="net_17,18"/>
  <line x1="677" x2="702" y1="215" y2="215" class="net_17,18"/>
  <line x1="667" x2="702" y1="235" y2="235" class="net_20,21"/>
  <line x1="667" x2="712" y1="292.5" y2="292.5" class="net_9"/>
  <line x1="712" x2="712" y1="292.5" y2="240" class="net_9"/>
  <line x1="589" x2="612" y1="63" y2="63" class="net_19,22"/>
  <line x1="612" x2="612" y1="63" y2="165" class="net_19,22"/>
  <line x1="612" x2="640.3333333333334" y1="165" y2="165" class="net_19,22"/>
  <line x1="602" x2="640.3333333333334" y1="185" y2="185" class="net_23,24"/>
  <line x1="482" x2="650.3333333333334" y1="205" y2="205" class="net_13"/>
  <line x1="650.3333333333334" x2="650.3333333333334" y1="205" y2="190" class="net_13"/>
  <line x1="482" x2="492" y1="205" y2="205" class="net_13"/>
  <line x1="492" x2="492" y1="205" y2="195" class="net_13"/>
  <line x1="492" x2="527" y1="195" y2="195" class="net_13"/>
  <circle cx="492" cy="205" r="2" style="fill:#000" class="net_13"/>
  <line x1="527" x2="527" y1="195" y2="180" class="net_13"/>
  <line x1="107" x2="517" y1="175" y2="175" class="net_25"/>
  <line x1="107" x2="127" y1="175" y2="175" class="net_25"/>
  <line x1="127" x2="127" y1="175" y2="42" class="net_25"/>
  <circle cx="127" cy="175" r="2" style="fill:#000" class="net_25"/>
  <line x1="127" x2="517" y1="42" y2="42" class="net_25"/>
  <line x1="107" x2="307" y1="175" y2="175" class="net_25"/>
  <line x1="307" x2="307" y1="175" y2="145" class="net_25"/>
  <circle cx="307" cy="175" r="2" style="fill:#000" class="net_25"/>
  <line x1="307" x2="332" y1="145" y2="145" class="net_25"/>
  <line x1="107" x2="127" y1="175" y2="175" class="net_25"/>
  <line x1="127" x2="127" y1="175" y2="135" class="net_25"/>
  <circle cx="127" cy="135" r="2" style="fill:#000" class="net_25"/>
  <line x1="127" x2="147" y1="135" y2="135" class="net_25"/>
  <line x1="107" x2="137" y1="73" y2="73" class="net_22"/>
  <line x1="137" x2="137" y1="73" y2="22" class="net_22"/>
  <circle cx="137" cy="73" r="2" style="fill:#000" class="net_22"/>
  <line x1="137" x2="517" y1="22" y2="22" class="net_22"/>
  <line x1="107" x2="137" y1="73" y2="73" class="net_22"/>
  <line x1="137" x2="137" y1="73" y2="115" class="net_22"/>
  <line x1="137" x2="147" y1="115" y2="115" class="net_22"/>
  <line x1="107" x2="583" y1="73" y2="73" class="net_22"/>
  <line x1="297" x2="317" y1="97.5" y2="97.5" class="net_11"/>
  <line x1="317" x2="317" y1="97.5" y2="62" class="net_11"/>
  <line x1="317" x2="527" y1="62" y2="62" class="net_11"/>
  <circle cx="317" cy="97.5" r="2" style="fill:#000" class="net_11"/>
  <line x1="527" x2="527" y1="62" y2="47" class="net_11"/>
  <line x1="297" x2="317" y1="97.5" y2="97.5" class="net_11"/>
  <line x1="317" x2="317" y1="97.5" y2="165" class="net_11"/>
  <line x1="317" x2="342" y1="165" y2="165" class="net_11"/>
  <line x1="342" x2="342" y1="165" y2="150" class="net_11"/>
  <line x1="97.8" x2="157" y1="339" y2="339" class="net_2"/>
  <line x1="157" x2="157" y1="339" y2="140" class="net_2"/>
  <line x1="722" x2="757" y1="225" y2="225" class="net_6,7"/>
  <line x1="537" x2="547" y1="32" y2="32" class="net_19"/>
  <line x1="547" x2="547" y1="32" y2="53" class="net_19"/>
  <line x1="547" x2="583" y1="53" y2="53" class="net_19"/>
  <line x1="40" x2="92.8" y1="289" y2="289" class="net_2,3,4,5"/>
</svg>
