<svg xmlns="http://www.w3.org/2000/svg" xmlns:xlink="http://www.w3.org/1999/xlink" xmlns:s="https://github.com/nturley/netlistsvg" width="1524" height="628">
  <style>svg {
    stroke:#000;
    fill:none;
  }
  text {
    fill:#000;
    stroke:none;
    font-size:10px;
    font-weight: bold;
    font-family: "Courier New", monospace;
  }
  .nodelabel {
    text-anchor: middle;
  }
  .inputPortLabel {
    text-anchor: end;
  }
  .splitjoinBody {
    fill:#000;
  }</style>
  <g s:type="and" transform="translate(1082,591)" s:width="30" s:height="25" id="cell_$auto$aigmap.cc:123:execute$100">
    <s:alias val="$and"/>
    <s:alias val="$logic_and"/>
    <s:alias val="$_AND_"/>
    <path d="M0,0 L0,25 L15,25 A15 12.5 0 0 0 15,0 Z" class="cell_$auto$aigmap.cc:123:execute$100"/>
    <g s:x="0" s:y="5" s:pid="A"/>
    <g s:x="0" s:y="20" s:pid="B"/>
    <g s:x="30" s:y="12.5" s:pid="Y"/>
  </g>
  <g s:type="and" transform="translate(1212,523.5)" s:width="30" s:height="25" id="cell_$auto$aigmap.cc:123:execute$104">
    <s:alias val="$and"/>
    <s:alias val="$logic_and"/>
    <s:alias val="$_AND_"/>
    <path d="M0,0 L0,25 L15,25 A15 12.5 0 0 0 15,0 Z" class="cell_$auto$aigmap.cc:123:execute$104"/>
    <g s:x="0" s:y="5" s:pid="A"/>
    <g s:x="0" s:y="20" s:pid="B"/>
    <g s:x="30" s:y="12.5" s:pid="Y"/>
  </g>
  <g s:type="and" transform="translate(1342,396)" s:width="30" s:height="25" id="cell_$auto$aigmap.cc:123:execute$108">
    <s:alias val="$and"/>
    <s:alias val="$logic_and"/>
    <s:alias val="$_AND_"/>
    <path d="M0,0 L0,25 L15,25 A15 12.5 0 0 0 15,0 Z" class="cell_$auto$aigmap.cc:123:execute$108"/>
    <g s:x="0" s:y="5" s:pid="A"/>
    <g s:x="0" s:y="20" s:pid="B"/>
    <g s:x="30" s:y="12.5" s:pid="Y"/>
  </g>
  <g s:type="and" transform="translate(1212,23)" s:width="30" s:height="25" id="cell_$auto$aigmap.cc:123:execute$112">
    <s:alias val="$and"/>
    <s:alias val="$logic_and"/>
    <s:alias val="$_AND_"/>
    <path d="M0,0 L0,25 L15,25 A15 12.5 0 0 0 15,0 Z" class="cell_$auto$aigmap.cc:123:execute$112"/>
    <g s:x="0" s:y="5" s:pid="A"/>
    <g s:x="0" s:y="20" s:pid="B"/>
    <g s:x="30" s:y="12.5" s:pid="Y"/>
  </g>
  <g s:type="and" transform="translate(1212,134)" s:width="30" s:height="25" id="cell_$auto$aigmap.cc:123:execute$116">
    <s:alias val="$and"/>
    <s:alias val="$logic_and"/>
    <s:alias val="$_AND_"/>
    <path d="M0,0 L0,25 L15,25 A15 12.5 0 0 0 15,0 Z" class="cell_$auto$aigmap.cc:123:execute$116"/>
    <g s:x="0" s:y="5" s:pid="A"/>
    <g s:x="0" s:y="20" s:pid="B"/>
    <g s:x="30" s:y="12.5" s:pid="Y"/>
  </g>
  <g s:type="and" transform="translate(1342,30.5)" s:width="30" s:height="25" id="cell_$auto$aigmap.cc:123:execute$120">
    <s:alias val="$and"/>
    <s:alias val="$logic_and"/>
    <s:alias val="$_AND_"/>
    <path d="M0,0 L0,25 L15,25 A15 12.5 0 0 0 15,0 Z" class="cell_$auto$aigmap.cc:123:execute$120"/>
    <g s:x="0" s:y="5" s:pid="A"/>
    <g s:x="0" s:y="20" s:pid="B"/>
    <g s:x="30" s:y="12.5" s:pid="Y"/>
  </g>
  <g s:type="and" transform="translate(427,259)" s:width="30" s:height="25" id="cell_$auto$aigmap.cc:123:execute$126">
    <s:alias val="$and"/>
    <s:alias val="$logic_and"/>
    <s:alias val="$_AND_"/>
    <path d="M0,0 L0,25 L15,25 A15 12.5 0 0 0 15,0 Z" class="cell_$auto$aigmap.cc:123:execute$126"/>
    <g s:x="0" s:y="5" s:pid="A"/>
    <g s:x="0" s:y="20" s:pid="B"/>
    <g s:x="30" s:y="12.5" s:pid="Y"/>
  </g>
  <g s:type="and" transform="translate(427,199)" s:width="30" s:height="25" id="cell_$auto$aigmap.cc:123:execute$130">
    <s:alias val="$and"/>
    <s:alias val="$logic_and"/>
    <s:alias val="$_AND_"/>
    <path d="M0,0 L0,25 L15,25 A15 12.5 0 0 0 15,0 Z" class="cell_$auto$aigmap.cc:123:execute$130"/>
    <g s:x="0" s:y="5" s:pid="A"/>
    <g s:x="0" s:y="20" s:pid="B"/>
    <g s:x="30" s:y="12.5" s:pid="Y"/>
  </g>
  <g s:type="and" transform="translate(557,266.5)" s:width="30" s:height="25" id="cell_$auto$aigmap.cc:123:execute$134">
    <s:alias val="$and"/>
    <s:alias val="$logic_and"/>
    <s:alias val="$_AND_"/>
    <path d="M0,0 L0,25 L15,25 A15 12.5 0 0 0 15,0 Z" class="cell_$auto$aigmap.cc:123:execute$134"/>
    <g s:x="0" s:y="5" s:pid="A"/>
    <g s:x="0" s:y="20" s:pid="B"/>
    <g s:x="30" s:y="12.5" s:pid="Y"/>
  </g>
  <g s:type="and" transform="translate(1472,257)" s:width="30" s:height="25" id="cell_$auto$aigmap.cc:123:execute$24">
    <s:alias val="$and"/>
    <s:alias val="$logic_and"/>
    <s:alias val="$_AND_"/>
    <path d="M0,0 L0,25 L15,25 A15 12.5 0 0 0 15,0 Z" class="cell_$auto$aigmap.cc:123:execute$24"/>
    <g s:x="0" s:y="5" s:pid="A"/>
    <g s:x="0" s:y="20" s:pid="B"/>
    <g s:x="30" s:y="12.5" s:pid="Y"/>
  </g>
  <g s:type="and" transform="translate(687,172)" s:width="30" s:height="25" id="cell_$auto$aigmap.cc:123:execute$30">
    <s:alias val="$and"/>
    <s:alias val="$logic_and"/>
    <s:alias val="$_AND_"/>
    <path d="M0,0 L0,25 L15,25 A15 12.5 0 0 0 15,0 Z" class="cell_$auto$aigmap.cc:123:execute$30"/>
    <g s:x="0" s:y="5" s:pid="A"/>
    <g s:x="0" s:y="20" s:pid="B"/>
    <g s:x="30" s:y="12.5" s:pid="Y"/>
  </g>
  <g s:type="and" transform="translate(687,274)" s:width="30" s:height="25" id="cell_$auto$aigmap.cc:123:execute$34">
    <s:alias val="$and"/>
    <s:alias val="$logic_and"/>
    <s:alias val="$_AND_"/>
    <path d="M0,0 L0,25 L15,25 A15 12.5 0 0 0 15,0 Z" class="cell_$auto$aigmap.cc:123:execute$34"/>
    <g s:x="0" s:y="5" s:pid="A"/>
    <g s:x="0" s:y="20" s:pid="B"/>
    <g s:x="30" s:y="12.5" s:pid="Y"/>
  </g>
  <g s:type="and" transform="translate(817,179.5)" s:width="30" s:height="25" id="cell_$auto$aigmap.cc:123:execute$38">
    <s:alias val="$and"/>
    <s:alias val="$logic_and"/>
    <s:alias val="$_AND_"/>
    <path d="M0,0 L0,25 L15,25 A15 12.5 0 0 0 15,0 Z" class="cell_$auto$aigmap.cc:123:execute$38"/>
    <g s:x="0" s:y="5" s:pid="A"/>
    <g s:x="0" s:y="20" s:pid="B"/>
    <g s:x="30" s:y="12.5" s:pid="Y"/>
  </g>
  <g s:type="and" transform="translate(167,265)" s:width="30" s:height="25" id="cell_$auto$aigmap.cc:123:execute$44">
    <s:alias val="$and"/>
    <s:alias val="$logic_and"/>
    <s:alias val="$_AND_"/>
    <path d="M0,0 L0,25 L15,25 A15 12.5 0 0 0 15,0 Z" class="cell_$auto$aigmap.cc:123:execute$44"/>
    <g s:x="0" s:y="5" s:pid="A"/>
    <g s:x="0" s:y="20" s:pid="B"/>
    <g s:x="30" s:y="12.5" s:pid="Y"/>
  </g>
  <g s:type="and" transform="translate(167,325)" s:width="30" s:height="25" id="cell_$auto$aigmap.cc:123:execute$48">
    <s:alias val="$and"/>
    <s:alias val="$logic_and"/>
    <s:alias val="$_AND_"/>
    <path d="M0,0 L0,25 L15,25 A15 12.5 0 0 0 15,0 Z" class="cell_$auto$aigmap.cc:123:execute$48"/>
    <g s:x="0" s:y="5" s:pid="A"/>
    <g s:x="0" s:y="20" s:pid="B"/>
    <g s:x="30" s:y="12.5" s:pid="Y"/>
  </g>
  <g s:type="and" transform="translate(297,272.5)" s:width="30" s:height="25" id="cell_$auto$aigmap.cc:123:execute$52">
    <s:alias val="$and"/>
    <s:alias val="$logic_and"/>
    <s:alias val="$_AND_"/>
    <path d="M0,0 L0,25 L15,25 A15 12.5 0 0 0 15,0 Z" class="cell_$auto$aigmap.cc:123:execute$52"/>
    <g s:x="0" s:y="5" s:pid="A"/>
    <g s:x="0" s:y="20" s:pid="B"/>
    <g s:x="30" s:y="12.5" s:pid="Y"/>
  </g>
  <g s:type="and" transform="translate(1082,234.5)" s:width="30" s:height="25" id="cell_$auto$aigmap.cc:123:execute$60">
    <s:alias val="$and"/>
    <s:alias val="$logic_and"/>
    <s:alias val="$_AND_"/>
    <path d="M0,0 L0,25 L15,25 A15 12.5 0 0 0 15,0 Z" class="cell_$auto$aigmap.cc:123:execute$60"/>
    <g s:x="0" s:y="5" s:pid="A"/>
    <g s:x="0" s:y="20" s:pid="B"/>
    <g s:x="30" s:y="12.5" s:pid="Y"/>
  </g>
  <g s:type="and" transform="translate(1082,309.5)" s:width="30" s:height="25" id="cell_$auto$aigmap.cc:123:execute$64">
    <s:alias val="$and"/>
    <s:alias val="$logic_and"/>
    <s:alias val="$_AND_"/>
    <path d="M0,0 L0,25 L15,25 A15 12.5 0 0 0 15,0 Z" class="cell_$auto$aigmap.cc:123:execute$64"/>
    <g s:x="0" s:y="5" s:pid="A"/>
    <g s:x="0" s:y="20" s:pid="B"/>
    <g s:x="30" s:y="12.5" s:pid="Y"/>
  </g>
  <g s:type="and" transform="translate(1212,242)" s:width="30" s:height="25" id="cell_$auto$aigmap.cc:123:execute$68">
    <s:alias val="$and"/>
    <s:alias val="$logic_and"/>
    <s:alias val="$_AND_"/>
    <path d="M0,0 L0,25 L15,25 A15 12.5 0 0 0 15,0 Z" class="cell_$auto$aigmap.cc:123:execute$68"/>
    <g s:x="0" s:y="5" s:pid="A"/>
    <g s:x="0" s:y="20" s:pid="B"/>
    <g s:x="30" s:y="12.5" s:pid="Y"/>
  </g>
  <g s:type="and" transform="translate(1342,249.5)" s:width="30" s:height="25" id="cell_$auto$aigmap.cc:123:execute$74">
    <s:alias val="$and"/>
    <s:alias val="$logic_and"/>
    <s:alias val="$_AND_"/>
    <path d="M0,0 L0,25 L15,25 A15 12.5 0 0 0 15,0 Z" class="cell_$auto$aigmap.cc:123:execute$74"/>
    <g s:x="0" s:y="5" s:pid="A"/>
    <g s:x="0" s:y="20" s:pid="B"/>
    <g s:x="30" s:y="12.5" s:pid="Y"/>
  </g>
  <g s:type="and" transform="translate(1082,381)" s:width="30" s:height="25" id="cell_$auto$aigmap.cc:123:execute$80">
    <s:alias val="$and"/>
    <s:alias val="$logic_and"/>
    <s:alias val="$_AND_"/>
    <path d="M0,0 L0,25 L15,25 A15 12.5 0 0 0 15,0 Z" class="cell_$auto$aigmap.cc:123:execute$80"/>
    <g s:x="0" s:y="5" s:pid="A"/>
    <g s:x="0" s:y="20" s:pid="B"/>
    <g s:x="30" s:y="12.5" s:pid="Y"/>
  </g>
  <g s:type="and" transform="translate(1082,456)" s:width="30" s:height="25" id="cell_$auto$aigmap.cc:123:execute$84">
    <s:alias val="$and"/>
    <s:alias val="$logic_and"/>
    <s:alias val="$_AND_"/>
    <path d="M0,0 L0,25 L15,25 A15 12.5 0 0 0 15,0 Z" class="cell_$auto$aigmap.cc:123:execute$84"/>
    <g s:x="0" s:y="5" s:pid="A"/>
    <g s:x="0" s:y="20" s:pid="B"/>
    <g s:x="30" s:y="12.5" s:pid="Y"/>
  </g>
  <g s:type="and" transform="translate(1212,388.5)" s:width="30" s:height="25" id="cell_$auto$aigmap.cc:123:execute$88">
    <s:alias val="$and"/>
    <s:alias val="$logic_and"/>
    <s:alias val="$_AND_"/>
    <path d="M0,0 L0,25 L15,25 A15 12.5 0 0 0 15,0 Z" class="cell_$auto$aigmap.cc:123:execute$88"/>
    <g s:x="0" s:y="5" s:pid="A"/>
    <g s:x="0" s:y="20" s:pid="B"/>
    <g s:x="30" s:y="12.5" s:pid="Y"/>
  </g>
  <g s:type="and" transform="translate(1082,516)" s:width="30" s:height="25" id="cell_$auto$aigmap.cc:123:execute$96">
    <s:alias val="$and"/>
    <s:alias val="$logic_and"/>
    <s:alias val="$_AND_"/>
    <path d="M0,0 L0,25 L15,25 A15 12.5 0 0 0 15,0 Z" class="cell_$auto$aigmap.cc:123:execute$96"/>
    <g s:x="0" s:y="5" s:pid="A"/>
    <g s:x="0" s:y="20" s:pid="B"/>
    <g s:x="30" s:y="12.5" s:pid="Y"/>
  </g>
  <g s:type="not" transform="translate(1147,593.5)" s:width="30" s:height="20" id="cell_$auto$aigmap.cc:132:execute$102">
    <s:alias val="$_NOT_"/>
    <s:alias val="$not"/>
    <s:alias val="$logic_not"/>
    <path d="M0,0 L0,20 L20,10 Z" class="cell_$auto$aigmap.cc:132:execute$102"/>
    <circle cx="23" cy="10" r="3" class="cell_$auto$aigmap.cc:132:execute$102"/>
    <g s:x="0" s:y="10" s:pid="A"/>
    <g s:x="25" s:y="10" s:pid="Y"/>
  </g>
  <g s:type="not" transform="translate(1277,526)" s:width="30" s:height="20" id="cell_$auto$aigmap.cc:132:execute$106">
    <s:alias val="$_NOT_"/>
    <s:alias val="$not"/>
    <s:alias val="$logic_not"/>
    <path d="M0,0 L0,20 L20,10 Z" class="cell_$auto$aigmap.cc:132:execute$106"/>
    <circle cx="23" cy="10" r="3" class="cell_$auto$aigmap.cc:132:execute$106"/>
    <g s:x="0" s:y="10" s:pid="A"/>
    <g s:x="25" s:y="10" s:pid="Y"/>
  </g>
  <g s:type="not" transform="translate(1147,182)" s:width="30" s:height="20" id="cell_$auto$aigmap.cc:132:execute$110">
    <s:alias val="$_NOT_"/>
    <s:alias val="$not"/>
    <s:alias val="$logic_not"/>
    <path d="M0,0 L0,20 L20,10 Z" class="cell_$auto$aigmap.cc:132:execute$110"/>
    <circle cx="23" cy="10" r="3" class="cell_$auto$aigmap.cc:132:execute$110"/>
    <g s:x="0" s:y="10" s:pid="A"/>
    <g s:x="25" s:y="10" s:pid="Y"/>
  </g>
  <g s:type="not" transform="translate(1277,25.5)" s:width="30" s:height="20" id="cell_$auto$aigmap.cc:132:execute$114">
    <s:alias val="$_NOT_"/>
    <s:alias val="$not"/>
    <s:alias val="$logic_not"/>
    <path d="M0,0 L0,20 L20,10 Z" class="cell_$auto$aigmap.cc:132:execute$114"/>
    <circle cx="23" cy="10" r="3" class="cell_$auto$aigmap.cc:132:execute$114"/>
    <g s:x="0" s:y="10" s:pid="A"/>
    <g s:x="25" s:y="10" s:pid="Y"/>
  </g>
  <g s:type="not" transform="translate(1277,136.5)" s:width="30" s:height="20" id="cell_$auto$aigmap.cc:132:execute$118">
    <s:alias val="$_NOT_"/>
    <s:alias val="$not"/>
    <s:alias val="$logic_not"/>
    <path d="M0,0 L0,20 L20,10 Z" class="cell_$auto$aigmap.cc:132:execute$118"/>
    <circle cx="23" cy="10" r="3" class="cell_$auto$aigmap.cc:132:execute$118"/>
    <g s:x="0" s:y="10" s:pid="A"/>
    <g s:x="25" s:y="10" s:pid="Y"/>
  </g>
  <g s:type="not" transform="translate(1407,33)" s:width="30" s:height="20" id="cell_$auto$aigmap.cc:132:execute$122">
    <s:alias val="$_NOT_"/>
    <s:alias val="$not"/>
    <s:alias val="$logic_not"/>
    <path d="M0,0 L0,20 L20,10 Z" class="cell_$auto$aigmap.cc:132:execute$122"/>
    <circle cx="23" cy="10" r="3" class="cell_$auto$aigmap.cc:132:execute$122"/>
    <g s:x="0" s:y="10" s:pid="A"/>
    <g s:x="25" s:y="10" s:pid="Y"/>
  </g>
  <g s:type="not" transform="translate(362,209)" s:width="30" s:height="20" id="cell_$auto$aigmap.cc:132:execute$124">
    <s:alias val="$_NOT_"/>
    <s:alias val="$not"/>
    <s:alias val="$logic_not"/>
    <path d="M0,0 L0,20 L20,10 Z" class="cell_$auto$aigmap.cc:132:execute$124"/>
    <circle cx="23" cy="10" r="3" class="cell_$auto$aigmap.cc:132:execute$124"/>
    <g s:x="0" s:y="10" s:pid="A"/>
    <g s:x="25" s:y="10" s:pid="Y"/>
  </g>
  <g s:type="not" transform="translate(492,261.5)" s:width="30" s:height="20" id="cell_$auto$aigmap.cc:132:execute$128">
    <s:alias val="$_NOT_"/>
    <s:alias val="$not"/>
    <s:alias val="$logic_not"/>
    <path d="M0,0 L0,20 L20,10 Z" class="cell_$auto$aigmap.cc:132:execute$128"/>
    <circle cx="23" cy="10" r="3" class="cell_$auto$aigmap.cc:132:execute$128"/>
    <g s:x="0" s:y="10" s:pid="A"/>
    <g s:x="25" s:y="10" s:pid="Y"/>
  </g>
  <g s:type="not" transform="translate(492,316.5)" s:width="30" s:height="20" id="cell_$auto$aigmap.cc:132:execute$132">
    <s:alias val="$_NOT_"/>
    <s:alias val="$not"/>
    <s:alias val="$logic_not"/>
    <path d="M0,0 L0,20 L20,10 Z" class="cell_$auto$aigmap.cc:132:execute$132"/>
    <circle cx="23" cy="10" r="3" class="cell_$auto$aigmap.cc:132:execute$132"/>
    <g s:x="0" s:y="10" s:pid="A"/>
    <g s:x="25" s:y="10" s:pid="Y"/>
  </g>
  <g s:type="not" transform="translate(622,269)" s:width="30" s:height="20" id="cell_$auto$aigmap.cc:132:execute$136">
    <s:alias val="$_NOT_"/>
    <s:alias val="$not"/>
    <s:alias val="$logic_not"/>
    <path d="M0,0 L0,20 L20,10 Z" class="cell_$auto$aigmap.cc:132:execute$136"/>
    <circle cx="23" cy="10" r="3" class="cell_$auto$aigmap.cc:132:execute$136"/>
    <g s:x="0" s:y="10" s:pid="A"/>
    <g s:x="25" s:y="10" s:pid="Y"/>
  </g>
  <g s:type="not" transform="translate(1407,252)" s:width="30" s:height="20" id="cell_$auto$aigmap.cc:132:execute$20">
    <s:alias val="$_NOT_"/>
    <s:alias val="$not"/>
    <s:alias val="$logic_not"/>
    <path d="M0,0 L0,20 L20,10 Z" class="cell_$auto$aigmap.cc:132:execute$20"/>
    <circle cx="23" cy="10" r="3" class="cell_$auto$aigmap.cc:132:execute$20"/>
    <g s:x="0" s:y="10" s:pid="A"/>
    <g s:x="25" s:y="10" s:pid="Y"/>
  </g>
  <g s:type="not" transform="translate(1407,398.5)" s:width="30" s:height="20" id="cell_$auto$aigmap.cc:132:execute$22">
    <s:alias val="$_NOT_"/>
    <s:alias val="$not"/>
    <s:alias val="$logic_not"/>
    <path d="M0,0 L0,20 L20,10 Z" class="cell_$auto$aigmap.cc:132:execute$22"/>
    <circle cx="23" cy="10" r="3" class="cell_$auto$aigmap.cc:132:execute$22"/>
    <g s:x="0" s:y="10" s:pid="A"/>
    <g s:x="25" s:y="10" s:pid="Y"/>
  </g>
  <g s:type="not" transform="translate(32,22)" s:width="30" s:height="20" id="cell_$auto$aigmap.cc:132:execute$26">
    <s:alias val="$_NOT_"/>
    <s:alias val="$not"/>
    <s:alias val="$logic_not"/>
    <path d="M0,0 L0,20 L20,10 Z" class="cell_$auto$aigmap.cc:132:execute$26"/>
    <circle cx="23" cy="10" r="3" class="cell_$auto$aigmap.cc:132:execute$26"/>
    <g s:x="0" s:y="10" s:pid="A"/>
    <g s:x="25" s:y="10" s:pid="Y"/>
  </g>
  <g s:type="not" transform="translate(622,324)" s:width="30" s:height="20" id="cell_$auto$aigmap.cc:132:execute$28">
    <s:alias val="$_NOT_"/>
    <s:alias val="$not"/>
    <s:alias val="$logic_not"/>
    <path d="M0,0 L0,20 L20,10 Z" class="cell_$auto$aigmap.cc:132:execute$28"/>
    <circle cx="23" cy="10" r="3" class="cell_$auto$aigmap.cc:132:execute$28"/>
    <g s:x="0" s:y="10" s:pid="A"/>
    <g s:x="25" s:y="10" s:pid="Y"/>
  </g>
  <g s:type="not" transform="translate(752,174.5)" s:width="30" s:height="20" id="cell_$auto$aigmap.cc:132:execute$32">
    <s:alias val="$_NOT_"/>
    <s:alias val="$not"/>
    <s:alias val="$logic_not"/>
    <path d="M0,0 L0,20 L20,10 Z" class="cell_$auto$aigmap.cc:132:execute$32"/>
    <circle cx="23" cy="10" r="3" class="cell_$auto$aigmap.cc:132:execute$32"/>
    <g s:x="0" s:y="10" s:pid="A"/>
    <g s:x="25" s:y="10" s:pid="Y"/>
  </g>
  <g s:type="not" transform="translate(752,276.5)" s:width="30" s:height="20" id="cell_$auto$aigmap.cc:132:execute$36">
    <s:alias val="$_NOT_"/>
    <s:alias val="$not"/>
    <s:alias val="$logic_not"/>
    <path d="M0,0 L0,20 L20,10 Z" class="cell_$auto$aigmap.cc:132:execute$36"/>
    <circle cx="23" cy="10" r="3" class="cell_$auto$aigmap.cc:132:execute$36"/>
    <g s:x="0" s:y="10" s:pid="A"/>
    <g s:x="25" s:y="10" s:pid="Y"/>
  </g>
  <g s:type="not" transform="translate(882,182)" s:width="30" s:height="20" id="cell_$auto$aigmap.cc:132:execute$40">
    <s:alias val="$_NOT_"/>
    <s:alias val="$not"/>
    <s:alias val="$logic_not"/>
    <path d="M0,0 L0,20 L20,10 Z" class="cell_$auto$aigmap.cc:132:execute$40"/>
    <circle cx="23" cy="10" r="3" class="cell_$auto$aigmap.cc:132:execute$40"/>
    <g s:x="0" s:y="10" s:pid="A"/>
    <g s:x="25" s:y="10" s:pid="Y"/>
  </g>
  <g s:type="not" transform="translate(97,335)" s:width="30" s:height="20" id="cell_$auto$aigmap.cc:132:execute$42">
    <s:alias val="$_NOT_"/>
    <s:alias val="$not"/>
    <s:alias val="$logic_not"/>
    <path d="M0,0 L0,20 L20,10 Z" class="cell_$auto$aigmap.cc:132:execute$42"/>
    <circle cx="23" cy="10" r="3" class="cell_$auto$aigmap.cc:132:execute$42"/>
    <g s:x="0" s:y="10" s:pid="A"/>
    <g s:x="25" s:y="10" s:pid="Y"/>
  </g>
  <g s:type="not" transform="translate(232,267.5)" s:width="30" s:height="20" id="cell_$auto$aigmap.cc:132:execute$46">
    <s:alias val="$_NOT_"/>
    <s:alias val="$not"/>
    <s:alias val="$logic_not"/>
    <path d="M0,0 L0,20 L20,10 Z" class="cell_$auto$aigmap.cc:132:execute$46"/>
    <circle cx="23" cy="10" r="3" class="cell_$auto$aigmap.cc:132:execute$46"/>
    <g s:x="0" s:y="10" s:pid="A"/>
    <g s:x="25" s:y="10" s:pid="Y"/>
  </g>
  <g s:type="not" transform="translate(232,327.5)" s:width="30" s:height="20" id="cell_$auto$aigmap.cc:132:execute$50">
    <s:alias val="$_NOT_"/>
    <s:alias val="$not"/>
    <s:alias val="$logic_not"/>
    <path d="M0,0 L0,20 L20,10 Z" class="cell_$auto$aigmap.cc:132:execute$50"/>
    <circle cx="23" cy="10" r="3" class="cell_$auto$aigmap.cc:132:execute$50"/>
    <g s:x="0" s:y="10" s:pid="A"/>
    <g s:x="25" s:y="10" s:pid="Y"/>
  </g>
  <g s:type="not" transform="translate(362,275)" s:width="30" s:height="20" id="cell_$auto$aigmap.cc:132:execute$54">
    <s:alias val="$_NOT_"/>
    <s:alias val="$not"/>
    <s:alias val="$logic_not"/>
    <path d="M0,0 L0,20 L20,10 Z" class="cell_$auto$aigmap.cc:132:execute$54"/>
    <circle cx="23" cy="10" r="3" class="cell_$auto$aigmap.cc:132:execute$54"/>
    <g s:x="0" s:y="10" s:pid="A"/>
    <g s:x="25" s:y="10" s:pid="Y"/>
  </g>
  <g s:type="not" transform="translate(1017,229.5)" s:width="30" s:height="20" id="cell_$auto$aigmap.cc:132:execute$56">
    <s:alias val="$_NOT_"/>
    <s:alias val="$not"/>
    <s:alias val="$logic_not"/>
    <path d="M0,0 L0,20 L20,10 Z" class="cell_$auto$aigmap.cc:132:execute$56"/>
    <circle cx="23" cy="10" r="3" class="cell_$auto$aigmap.cc:132:execute$56"/>
    <g s:x="0" s:y="10" s:pid="A"/>
    <g s:x="25" s:y="10" s:pid="Y"/>
  </g>
  <g s:type="not" transform="translate(1017,284.5)" s:width="30" s:height="20" id="cell_$auto$aigmap.cc:132:execute$58">
    <s:alias val="$_NOT_"/>
    <s:alias val="$not"/>
    <s:alias val="$logic_not"/>
    <path d="M0,0 L0,20 L20,10 Z" class="cell_$auto$aigmap.cc:132:execute$58"/>
    <circle cx="23" cy="10" r="3" class="cell_$auto$aigmap.cc:132:execute$58"/>
    <g s:x="0" s:y="10" s:pid="A"/>
    <g s:x="25" s:y="10" s:pid="Y"/>
  </g>
  <g s:type="not" transform="translate(1147,237)" s:width="30" s:height="20" id="cell_$auto$aigmap.cc:132:execute$62">
    <s:alias val="$_NOT_"/>
    <s:alias val="$not"/>
    <s:alias val="$logic_not"/>
    <path d="M0,0 L0,20 L20,10 Z" class="cell_$auto$aigmap.cc:132:execute$62"/>
    <circle cx="23" cy="10" r="3" class="cell_$auto$aigmap.cc:132:execute$62"/>
    <g s:x="0" s:y="10" s:pid="A"/>
    <g s:x="25" s:y="10" s:pid="Y"/>
  </g>
  <g s:type="not" transform="translate(1147,312)" s:width="30" s:height="20" id="cell_$auto$aigmap.cc:132:execute$66">
    <s:alias val="$_NOT_"/>
    <s:alias val="$not"/>
    <s:alias val="$logic_not"/>
    <path d="M0,0 L0,20 L20,10 Z" class="cell_$auto$aigmap.cc:132:execute$66"/>
    <circle cx="23" cy="10" r="3" class="cell_$auto$aigmap.cc:132:execute$66"/>
    <g s:x="0" s:y="10" s:pid="A"/>
    <g s:x="25" s:y="10" s:pid="Y"/>
  </g>
  <g s:type="not" transform="translate(1277,244.5)" s:width="30" s:height="20" id="cell_$auto$aigmap.cc:132:execute$70">
    <s:alias val="$_NOT_"/>
    <s:alias val="$not"/>
    <s:alias val="$logic_not"/>
    <path d="M0,0 L0,20 L20,10 Z" class="cell_$auto$aigmap.cc:132:execute$70"/>
    <circle cx="23" cy="10" r="3" class="cell_$auto$aigmap.cc:132:execute$70"/>
    <g s:x="0" s:y="10" s:pid="A"/>
    <g s:x="25" s:y="10" s:pid="Y"/>
  </g>
  <g s:type="not" transform="translate(1277,312)" s:width="30" s:height="20" id="cell_$auto$aigmap.cc:132:execute$72">
    <s:alias val="$_NOT_"/>
    <s:alias val="$not"/>
    <s:alias val="$logic_not"/>
    <path d="M0,0 L0,20 L20,10 Z" class="cell_$auto$aigmap.cc:132:execute$72"/>
    <circle cx="23" cy="10" r="3" class="cell_$auto$aigmap.cc:132:execute$72"/>
    <g s:x="0" s:y="10" s:pid="A"/>
    <g s:x="25" s:y="10" s:pid="Y"/>
  </g>
  <g s:type="not" transform="translate(1017,376)" s:width="30" s:height="20" id="cell_$auto$aigmap.cc:132:execute$76">
    <s:alias val="$_NOT_"/>
    <s:alias val="$not"/>
    <s:alias val="$logic_not"/>
    <path d="M0,0 L0,20 L20,10 Z" class="cell_$auto$aigmap.cc:132:execute$76"/>
    <circle cx="23" cy="10" r="3" class="cell_$auto$aigmap.cc:132:execute$76"/>
    <g s:x="0" s:y="10" s:pid="A"/>
    <g s:x="25" s:y="10" s:pid="Y"/>
  </g>
  <g s:type="not" transform="translate(1017,431)" s:width="30" s:height="20" id="cell_$auto$aigmap.cc:132:execute$78">
    <s:alias val="$_NOT_"/>
    <s:alias val="$not"/>
    <s:alias val="$logic_not"/>
    <path d="M0,0 L0,20 L20,10 Z" class="cell_$auto$aigmap.cc:132:execute$78"/>
    <circle cx="23" cy="10" r="3" class="cell_$auto$aigmap.cc:132:execute$78"/>
    <g s:x="0" s:y="10" s:pid="A"/>
    <g s:x="25" s:y="10" s:pid="Y"/>
  </g>
  <g s:type="not" transform="translate(1147,383.5)" s:width="30" s:height="20" id="cell_$auto$aigmap.cc:132:execute$82">
    <s:alias val="$_NOT_"/>
    <s:alias val="$not"/>
    <s:alias val="$logic_not"/>
    <path d="M0,0 L0,20 L20,10 Z" class="cell_$auto$aigmap.cc:132:execute$82"/>
    <circle cx="23" cy="10" r="3" class="cell_$auto$aigmap.cc:132:execute$82"/>
    <g s:x="0" s:y="10" s:pid="A"/>
    <g s:x="25" s:y="10" s:pid="Y"/>
  </g>
  <g s:type="not" transform="translate(1147,458.5)" s:width="30" s:height="20" id="cell_$auto$aigmap.cc:132:execute$86">
    <s:alias val="$_NOT_"/>
    <s:alias val="$not"/>
    <s:alias val="$logic_not"/>
    <path d="M0,0 L0,20 L20,10 Z" class="cell_$auto$aigmap.cc:132:execute$86"/>
    <circle cx="23" cy="10" r="3" class="cell_$auto$aigmap.cc:132:execute$86"/>
    <g s:x="0" s:y="10" s:pid="A"/>
    <g s:x="25" s:y="10" s:pid="Y"/>
  </g>
  <g s:type="not" transform="translate(1277,391)" s:width="30" s:height="20" id="cell_$auto$aigmap.cc:132:execute$90">
    <s:alias val="$_NOT_"/>
    <s:alias val="$not"/>
    <s:alias val="$logic_not"/>
    <path d="M0,0 L0,20 L20,10 Z" class="cell_$auto$aigmap.cc:132:execute$90"/>
    <circle cx="23" cy="10" r="3" class="cell_$auto$aigmap.cc:132:execute$90"/>
    <g s:x="0" s:y="10" s:pid="A"/>
    <g s:x="25" s:y="10" s:pid="Y"/>
  </g>
  <g s:type="not" transform="translate(1017,511)" s:width="30" s:height="20" id="cell_$auto$aigmap.cc:132:execute$92">
    <s:alias val="$_NOT_"/>
    <s:alias val="$not"/>
    <s:alias val="$logic_not"/>
    <path d="M0,0 L0,20 L20,10 Z" class="cell_$auto$aigmap.cc:132:execute$92"/>
    <circle cx="23" cy="10" r="3" class="cell_$auto$aigmap.cc:132:execute$92"/>
    <g s:x="0" s:y="10" s:pid="A"/>
    <g s:x="25" s:y="10" s:pid="Y"/>
  </g>
  <g s:type="not" transform="translate(1017,566)" s:width="30" s:height="20" id="cell_$auto$aigmap.cc:132:execute$94">
    <s:alias val="$_NOT_"/>
    <s:alias val="$not"/>
    <s:alias val="$logic_not"/>
    <path d="M0,0 L0,20 L20,10 Z" class="cell_$auto$aigmap.cc:132:execute$94"/>
    <circle cx="23" cy="10" r="3" class="cell_$auto$aigmap.cc:132:execute$94"/>
    <g s:x="0" s:y="10" s:pid="A"/>
    <g s:x="25" s:y="10" s:pid="Y"/>
  </g>
  <g s:type="not" transform="translate(1147,518.5)" s:width="30" s:height="20" id="cell_$auto$aigmap.cc:132:execute$98">
    <s:alias val="$_NOT_"/>
    <s:alias val="$not"/>
    <s:alias val="$logic_not"/>
    <path d="M0,0 L0,20 L20,10 Z" class="cell_$auto$aigmap.cc:132:execute$98"/>
    <circle cx="23" cy="10" r="3" class="cell_$auto$aigmap.cc:132:execute$98"/>
    <g s:x="0" s:y="10" s:pid="A"/>
    <g s:x="25" s:y="10" s:pid="Y"/>
  </g>
  <g s:type="dff" transform="translate(947,182)" s:width="30" s:height="40" id="cell_$procdff$16">
    <s:alias val="$dff"/>
    <s:alias val="$_DFF_"/>
    <s:alias val="$_DFF_P_"/>
    <rect width="30" height="40" x="0" y="0" class="cell_$procdff$16"/>
    <path d="M0,35 L5,30 L0,25" class="cell_$procdff$16"/>
    <g s:x="30" s:y="10" s:pid="Q"/>
    <g s:x="0" s:y="30" s:pid="CLK"/>
    <g s:x="0" s:y="30" s:pid="C"/>
    <g s:x="0" s:y="10" s:pid="D"/>
  </g>
  <g s:type="inputExt" transform="translate(297,209)" s:width="30" s:height="20" id="cell_clk">
    <text x="15" y="-4" class="nodelabel cell_clk" s:attribute="ref">clk</text>
    <s:alias val="$_inputExt_"/>
    <path d="M0,0 L0,20 L15,20 L30,10 L15,0 Z" class="cell_clk"/>
    <g s:x="28" s:y="10" s:pid="Y"/>
  </g>
  <g s:type="inputExt" transform="translate(557,209)" s:width="30" s:height="20" id="cell_reset">
    <text x="15" y="-4" class="nodelabel cell_reset" s:attribute="ref">reset</text>
    <s:alias val="$_inputExt_"/>
    <path d="M0,0 L0,20 L15,20 L30,10 L15,0 Z" class="cell_reset"/>
    <g s:x="28" s:y="10" s:pid="Y"/>
  </g>
  <g s:type="inputExt" transform="translate(947,566)" s:width="30" s:height="20" id="cell_j">
    <text x="15" y="-4" class="nodelabel cell_j" s:attribute="ref">j</text>
    <s:alias val="$_inputExt_"/>
    <path d="M0,0 L0,20 L15,20 L30,10 L15,0 Z" class="cell_j"/>
    <g s:x="28" s:y="10" s:pid="Y"/>
  </g>
  <g s:type="inputExt" transform="translate(1212,312)" s:width="30" s:height="20" id="cell_k">
    <text x="15" y="-4" class="nodelabel cell_k" s:attribute="ref">k</text>
    <s:alias val="$_inputExt_"/>
    <path d="M0,0 L0,20 L15,20 L30,10 L15,0 Z" class="cell_k"/>
    <g s:x="28" s:y="10" s:pid="Y"/>
  </g>
  <g s:type="outputExt" transform="translate(1472,33)" s:width="30" s:height="20" id="cell_out">
    <text x="15" y="-4" class="nodelabel cell_out" s:attribute="ref">out</text>
    <s:alias val="$_outputExt_"/>
    <path d="M30,0 L30,20 L15,20 L0,10 L15,0 Z" class="cell_out"/>
    <g s:x="0" s:y="10" s:pid="A"/>
  </g>
  <g s:type="constant" transform="translate(97,118)" s:width="30" s:height="20" id="cell_1">
    <text x="15" y="-4" class="nodelabel cell_1" s:attribute="ref">1</text>
    <s:alias val="$_constant_"/>
    <rect width="30" height="20" class="cell_1"/>
    <g s:x="30" s:y="10" s:pid="Y"/>
  </g>
  <g s:type="constant" transform="translate(97,53)" s:width="30" s:height="20" id="cell_0">
    <text x="15" y="-4" class="nodelabel cell_0" s:attribute="ref">0</text>
    <s:alias val="$_constant_"/>
    <rect width="30" height="20" class="cell_0"/>
    <g s:x="30" s:y="10" s:pid="Y"/>
  </g>
  <line x1="975" x2="987" y1="576" y2="576" class="net_4"/>
  <line x1="987" x2="987" y1="576" y2="596" class="net_4"/>
  <circle cx="987" cy="576" r="2" style="fill:#000" class="net_4"/>
  <line x1="987" x2="1082" y1="596" y2="596" class="net_4"/>
  <line x1="975" x2="1017" y1="576" y2="576" class="net_4"/>
  <line x1="127" x2="137" y1="128" y2="128" class="net_66"/>
  <line x1="137" x2="137" y1="128" y2="521" class="net_66"/>
  <line x1="137" x2="922" y1="521" y2="521" class="net_66"/>
  <line x1="922" x2="922" y1="521" y2="607" class="net_66"/>
  <line x1="922" x2="1057" y1="607" y2="607" class="net_66"/>
  <line x1="1057" x2="1057" y1="607" y2="611" class="net_66"/>
  <circle cx="137" cy="128" r="2" style="fill:#000" class="net_66"/>
  <circle cx="922" cy="521" r="2" style="fill:#000" class="net_66"/>
  <line x1="1057" x2="1082" y1="611" y2="611" class="net_66"/>
  <line x1="127" x2="1187" y1="128" y2="128" class="net_66"/>
  <line x1="1187" x2="1187" y1="128" y2="43" class="net_66"/>
  <line x1="1187" x2="1212" y1="43" y2="43" class="net_66"/>
  <line x1="127" x2="137" y1="128" y2="128" class="net_66"/>
  <line x1="137" x2="137" y1="128" y2="285" class="net_66"/>
  <circle cx="137" cy="285" r="2" style="fill:#000" class="net_66"/>
  <line x1="137" x2="167" y1="285" y2="285" class="net_66"/>
  <line x1="127" x2="137" y1="128" y2="128" class="net_66"/>
  <line x1="137" x2="137" y1="128" y2="365" class="net_66"/>
  <line x1="137" x2="1057" y1="365" y2="365" class="net_66"/>
  <line x1="1057" x2="1057" y1="365" y2="329.5" class="net_66"/>
  <circle cx="137" cy="365" r="2" style="fill:#000" class="net_66"/>
  <line x1="1057" x2="1082" y1="329.5" y2="329.5" class="net_66"/>
  <line x1="127" x2="137" y1="128" y2="128" class="net_66"/>
  <line x1="137" x2="137" y1="128" y2="150" class="net_66"/>
  <line x1="137" x2="1007" y1="150" y2="150" class="net_66"/>
  <line x1="1007" x2="1007" y1="150" y2="239.5" class="net_66"/>
  <circle cx="137" cy="150" r="2" style="fill:#000" class="net_66"/>
  <line x1="1007" x2="1017" y1="239.5" y2="239.5" class="net_66"/>
  <line x1="127" x2="137" y1="128" y2="128" class="net_66"/>
  <line x1="137" x2="137" y1="128" y2="521" class="net_66"/>
  <line x1="137" x2="1017" y1="521" y2="521" class="net_66"/>
  <line x1="1172" x2="1212" y1="528.5" y2="528.5" class="net_8"/>
  <line x1="1172" x2="1187" y1="603.5" y2="603.5" class="net_9"/>
  <line x1="1187" x2="1187" y1="603.5" y2="543.5" class="net_9"/>
  <line x1="1187" x2="1212" y1="543.5" y2="543.5" class="net_9"/>
  <line x1="1302" x2="1342" y1="401" y2="401" class="net_11"/>
  <line x1="1302" x2="1317" y1="536" y2="536" class="net_12"/>
  <line x1="1317" x2="1317" y1="536" y2="416" class="net_12"/>
  <line x1="1317" x2="1342" y1="416" y2="416" class="net_12"/>
  <line x1="977" x2="997" y1="192" y2="192" class="net_14"/>
  <line x1="997" x2="997" y1="192" y2="28" class="net_14"/>
  <line x1="997" x2="1212" y1="28" y2="28" class="net_14"/>
  <line x1="977" x2="997" y1="192" y2="192" class="net_14"/>
  <line x1="997" x2="997" y1="192" y2="161" class="net_14"/>
  <line x1="997" x2="402" y1="161" y2="161" class="net_14"/>
  <line x1="402" x2="402" y1="161" y2="204" class="net_14"/>
  <circle cx="997" cy="161" r="2" style="fill:#000" class="net_14"/>
  <circle cx="997" cy="192" r="2" style="fill:#000" class="net_14"/>
  <line x1="402" x2="427" y1="204" y2="204" class="net_14"/>
  <line x1="977" x2="997" y1="192" y2="192" class="net_14"/>
  <line x1="997" x2="997" y1="192" y2="314.5" class="net_14"/>
  <circle cx="997" cy="314.5" r="2" style="fill:#000" class="net_14"/>
  <line x1="997" x2="1082" y1="314.5" y2="314.5" class="net_14"/>
  <line x1="977" x2="997" y1="192" y2="192" class="net_14"/>
  <line x1="997" x2="997" y1="192" y2="461" class="net_14"/>
  <line x1="997" x2="1082" y1="461" y2="461" class="net_14"/>
  <line x1="977" x2="1147" y1="192" y2="192" class="net_14"/>
  <line x1="977" x2="997" y1="192" y2="192" class="net_14"/>
  <line x1="997" x2="997" y1="192" y2="294.5" class="net_14"/>
  <circle cx="997" cy="294.5" r="2" style="fill:#000" class="net_14"/>
  <line x1="997" x2="1017" y1="294.5" y2="294.5" class="net_14"/>
  <line x1="977" x2="997" y1="192" y2="192" class="net_14"/>
  <line x1="997" x2="997" y1="192" y2="441" class="net_14"/>
  <circle cx="997" cy="441" r="2" style="fill:#000" class="net_14"/>
  <line x1="997" x2="1017" y1="441" y2="441" class="net_14"/>
  <line x1="127" x2="147" y1="63" y2="63" class="net_68"/>
  <line x1="147" x2="147" y1="63" y2="139" class="net_68"/>
  <circle cx="147" cy="139" r="2" style="fill:#000" class="net_68"/>
  <line x1="147" x2="1212" y1="139" y2="139" class="net_68"/>
  <line x1="127" x2="147" y1="63" y2="63" class="net_68"/>
  <line x1="147" x2="147" y1="63" y2="188" class="net_68"/>
  <line x1="147" x2="662" y1="188" y2="188" class="net_68"/>
  <line x1="662" x2="662" y1="188" y2="192" class="net_68"/>
  <circle cx="147" cy="188" r="2" style="fill:#000" class="net_68"/>
  <line x1="662" x2="687" y1="192" y2="192" class="net_68"/>
  <line x1="127" x2="147" y1="63" y2="63" class="net_68"/>
  <line x1="147" x2="147" y1="63" y2="330" class="net_68"/>
  <circle cx="147" cy="330" r="2" style="fill:#000" class="net_68"/>
  <line x1="147" x2="167" y1="330" y2="330" class="net_68"/>
  <line x1="127" x2="147" y1="63" y2="63" class="net_68"/>
  <line x1="147" x2="147" y1="63" y2="386" class="net_68"/>
  <line x1="147" x2="987" y1="386" y2="386" class="net_68"/>
  <line x1="987" x2="987" y1="386" y2="472" class="net_68"/>
  <line x1="987" x2="1057" y1="472" y2="472" class="net_68"/>
  <line x1="1057" x2="1057" y1="472" y2="476" class="net_68"/>
  <circle cx="987" cy="386" r="2" style="fill:#000" class="net_68"/>
  <line x1="1057" x2="1082" y1="476" y2="476" class="net_68"/>
  <line x1="127" x2="147" y1="63" y2="63" class="net_68"/>
  <line x1="147" x2="147" y1="63" y2="386" class="net_68"/>
  <line x1="147" x2="1017" y1="386" y2="386" class="net_68"/>
  <line x1="1172" x2="1187" y1="192" y2="192" class="net_16"/>
  <line x1="1187" x2="1187" y1="192" y2="154" class="net_16"/>
  <line x1="1187" x2="1212" y1="154" y2="154" class="net_16"/>
  <line x1="1302" x2="1342" y1="35.5" y2="35.5" class="net_18"/>
  <line x1="1302" x2="1317" y1="146.5" y2="146.5" class="net_19"/>
  <line x1="1317" x2="1317" y1="146.5" y2="50.5" class="net_19"/>
  <line x1="1317" x2="1342" y1="50.5" y2="50.5" class="net_19"/>
  <line x1="325" x2="337" y1="219" y2="219" class="net_2"/>
  <line x1="337" x2="337" y1="219" y2="264" class="net_2"/>
  <circle cx="337" cy="219" r="2" style="fill:#000" class="net_2"/>
  <circle cx="337" cy="264" r="2" style="fill:#000" class="net_2"/>
  <line x1="337" x2="427" y1="264" y2="264" class="net_2"/>
  <line x1="325" x2="362" y1="219" y2="219" class="net_2"/>
  <line x1="325" x2="337" y1="219" y2="219" class="net_2"/>
  <line x1="337" x2="337" y1="219" y2="354" class="net_2"/>
  <line x1="337" x2="922" y1="354" y2="354" class="net_2"/>
  <line x1="922" x2="922" y1="354" y2="212" class="net_2"/>
  <line x1="922" x2="947" y1="212" y2="212" class="net_2"/>
  <line x1="387" x2="402" y1="285" y2="285" class="net_21"/>
  <line x1="402" x2="402" y1="285" y2="279" class="net_21"/>
  <line x1="402" x2="427" y1="279" y2="279" class="net_21"/>
  <line x1="387" x2="427" y1="219" y2="219" class="net_23"/>
  <line x1="517" x2="557" y1="271.5" y2="271.5" class="net_25"/>
  <line x1="517" x2="532" y1="326.5" y2="326.5" class="net_26"/>
  <line x1="532" x2="532" y1="326.5" y2="286.5" class="net_26"/>
  <line x1="532" x2="557" y1="286.5" y2="286.5" class="net_26"/>
  <line x1="1432" x2="1472" y1="262" y2="262" class="net_28"/>
  <line x1="1432" x2="1447" y1="408.5" y2="408.5" class="net_29"/>
  <line x1="1447" x2="1447" y1="408.5" y2="277" class="net_29"/>
  <line x1="1447" x2="1472" y1="277" y2="277" class="net_29"/>
  <line x1="585" x2="597" y1="219" y2="219" class="net_3"/>
  <line x1="597" x2="597" y1="219" y2="177" class="net_3"/>
  <circle cx="597" cy="219" r="2" style="fill:#000" class="net_3"/>
  <line x1="597" x2="687" y1="177" y2="177" class="net_3"/>
  <line x1="585" x2="597" y1="219" y2="219" class="net_3"/>
  <line x1="597" x2="597" y1="219" y2="334" class="net_3"/>
  <line x1="597" x2="622" y1="334" y2="334" class="net_3"/>
  <line x1="647" x2="687" y1="279" y2="279" class="net_32"/>
  <line x1="647" x2="662" y1="334" y2="334" class="net_33"/>
  <line x1="662" x2="662" y1="334" y2="294" class="net_33"/>
  <line x1="662" x2="687" y1="294" y2="294" class="net_33"/>
  <line x1="777" x2="817" y1="184.5" y2="184.5" class="net_35"/>
  <line x1="777" x2="792" y1="286.5" y2="286.5" class="net_36"/>
  <line x1="792" x2="792" y1="286.5" y2="199.5" class="net_36"/>
  <line x1="792" x2="817" y1="199.5" y2="199.5" class="net_36"/>
  <line x1="57" x2="157" y1="32" y2="32" class="net_38"/>
  <line x1="157" x2="157" y1="32" y2="270" class="net_38"/>
  <line x1="157" x2="167" y1="270" y2="270" class="net_38"/>
  <line x1="57" x2="72" y1="32" y2="32" class="net_38"/>
  <line x1="72" x2="72" y1="32" y2="345" class="net_38"/>
  <circle cx="72" cy="32" r="2" style="fill:#000" class="net_38"/>
  <line x1="72" x2="97" y1="345" y2="345" class="net_38"/>
  <line x1="122" x2="167" y1="345" y2="345" class="net_40"/>
  <line x1="257" x2="297" y1="277.5" y2="277.5" class="net_42"/>
  <line x1="257" x2="272" y1="337.5" y2="337.5" class="net_43"/>
  <line x1="272" x2="272" y1="337.5" y2="292.5" class="net_43"/>
  <line x1="272" x2="297" y1="292.5" y2="292.5" class="net_43"/>
  <line x1="1042" x2="1082" y1="239.5" y2="239.5" class="net_45"/>
  <line x1="1042" x2="1057" y1="294.5" y2="294.5" class="net_46"/>
  <line x1="1057" x2="1057" y1="294.5" y2="254.5" class="net_46"/>
  <line x1="1057" x2="1082" y1="254.5" y2="254.5" class="net_46"/>
  <line x1="1172" x2="1212" y1="247" y2="247" class="net_49"/>
  <line x1="1172" x2="1187" y1="322" y2="322" class="net_50"/>
  <line x1="1187" x2="1187" y1="322" y2="262" class="net_50"/>
  <line x1="1187" x2="1212" y1="262" y2="262" class="net_50"/>
  <line x1="1302" x2="1342" y1="254.5" y2="254.5" class="net_52"/>
  <line x1="1302" x2="1317" y1="322" y2="322" class="net_53"/>
  <line x1="1317" x2="1317" y1="322" y2="269.5" class="net_53"/>
  <line x1="1317" x2="1342" y1="269.5" y2="269.5" class="net_53"/>
  <line x1="1042" x2="1082" y1="386" y2="386" class="net_55"/>
  <line x1="1042" x2="1057" y1="441" y2="441" class="net_56"/>
  <line x1="1057" x2="1057" y1="441" y2="401" class="net_56"/>
  <line x1="1057" x2="1082" y1="401" y2="401" class="net_56"/>
  <line x1="1172" x2="1212" y1="393.5" y2="393.5" class="net_59"/>
  <line x1="1172" x2="1187" y1="468.5" y2="468.5" class="net_60"/>
  <line x1="1187" x2="1187" y1="468.5" y2="408.5" class="net_60"/>
  <line x1="1187" x2="1212" y1="408.5" y2="408.5" class="net_60"/>
  <line x1="1042" x2="1082" y1="521" y2="521" class="net_62"/>
  <line x1="1042" x2="1057" y1="576" y2="576" class="net_63"/>
  <line x1="1057" x2="1057" y1="576" y2="536" class="net_63"/>
  <line x1="1057" x2="1082" y1="536" y2="536" class="net_63"/>
  <line x1="1112" x2="1147" y1="603.5" y2="603.5" class="net_7"/>
  <line x1="1242" x2="1277" y1="536" y2="536" class="net_10"/>
  <line x1="1242" x2="1277" y1="35.5" y2="35.5" class="net_15"/>
  <line x1="1242" x2="1277" y1="146.5" y2="146.5" class="net_17"/>
  <line x1="1372" x2="1407" y1="43" y2="43" class="net_20"/>
  <line x1="457" x2="492" y1="271.5" y2="271.5" class="net_22"/>
  <line x1="457" x2="467" y1="211.5" y2="211.5" class="net_24"/>
  <line x1="467" x2="467" y1="211.5" y2="326.5" class="net_24"/>
  <line x1="467" x2="492" y1="326.5" y2="326.5" class="net_24"/>
  <line x1="587" x2="622" y1="279" y2="279" class="net_27"/>
  <line x1="1372" x2="1407" y1="262" y2="262" class="net_54"/>
  <line x1="1372" x2="1407" y1="408.5" y2="408.5" class="net_13"/>
  <line x1="1502" x2="1512" y1="269.5" y2="269.5" class="net_30"/>
  <line x1="1512" x2="1512" y1="269.5" y2="12" class="net_30"/>
  <line x1="1512" x2="12" y1="12" y2="12" class="net_30"/>
  <line x1="12" x2="12" y1="12" y2="32" class="net_30"/>
  <line x1="12" x2="32" y1="32" y2="32" class="net_30"/>
  <line x1="717" x2="752" y1="184.5" y2="184.5" class="net_31"/>
  <line x1="717" x2="752" y1="286.5" y2="286.5" class="net_34"/>
  <line x1="847" x2="882" y1="192" y2="192" class="net_37"/>
  <line x1="197" x2="232" y1="277.5" y2="277.5" class="net_39"/>
  <line x1="197" x2="232" y1="337.5" y2="337.5" class="net_41"/>
  <line x1="327" x2="362" y1="285" y2="285" class="net_44"/>
  <line x1="1112" x2="1147" y1="247" y2="247" class="net_47"/>
  <line x1="1112" x2="1147" y1="322" y2="322" class="net_48"/>
  <line x1="1242" x2="1277" y1="254.5" y2="254.5" class="net_51"/>
  <line x1="1240" x2="1277" y1="322" y2="322" class="net_5"/>
  <line x1="1112" x2="1147" y1="393.5" y2="393.5" class="net_57"/>
  <line x1="1112" x2="1147" y1="468.5" y2="468.5" class="net_58"/>
  <line x1="1242" x2="1277" y1="401" y2="401" class="net_61"/>
  <line x1="1112" x2="1147" y1="528.5" y2="528.5" class="net_64"/>
  <line x1="907" x2="947" y1="192" y2="192" class="net_65"/>
  <line x1="1432" x2="1472" y1="43" y2="43" class="net_6"/>
</svg>
