<?xml version="1.0" encoding="UTF-8" standalone="no"?>
<!DOCTYPE svg PUBLIC "-//W3C//DTD SVG 1.1//EN"
 "http://www.w3.org/Graphics/SVG/1.1/DTD/svg11.dtd">
<!-- Generated by graphviz version 4.0.0 (20220529.0937)
 -->
<!-- Title: top_module Pages: 1 -->
<svg width="1602pt" height="559pt"
 viewBox="0.00 0.00 1601.91 558.72" xmlns="http://www.w3.org/2000/svg" xmlns:xlink="http://www.w3.org/1999/xlink">
<g id="graph0" class="graph" transform="scale(1 1) rotate(0) translate(4 554.72)">
<title>top_module</title>
<polygon fill="white" stroke="transparent" points="-4,4 -4,-554.72 1597.91,-554.72 1597.91,4 -4,4"/>
<text text-anchor="middle" x="796.95" y="-7.8" font-family="Times New Roman,serif" font-size="14.00">top_module</text>
<!-- n6 -->
<g id="node1" class="node">
<title>n6</title>
<polygon fill="none" stroke="black" points="57.25,-445.54 57.25,-460.46 41.43,-471 19.07,-471 3.25,-460.46 3.25,-445.54 19.07,-435 41.43,-435 57.25,-445.54"/>
<text text-anchor="middle" x="30.25" y="-449.3" font-family="Times New Roman,serif" font-size="14.00">clk</text>
</g>
<!-- c19 -->
<g id="node10" class="node">
<title>c19</title>
<polygon fill="none" stroke="black" points="97.5,-394 97.5,-440 208.5,-440 208.5,-394 97.5,-394"/>
<text text-anchor="middle" x="119.5" y="-424.8" font-family="Times New Roman,serif" font-size="14.00">CLK</text>
<polyline fill="none" stroke="black" points="97.5,-417 141.5,-417 "/>
<text text-anchor="middle" x="119.5" y="-401.8" font-family="Times New Roman,serif" font-size="14.00">D</text>
<polyline fill="none" stroke="black" points="141.5,-394 141.5,-440 "/>
<text text-anchor="middle" x="161.5" y="-420.8" font-family="Times New Roman,serif" font-size="14.00">$16</text>
<text text-anchor="middle" x="161.5" y="-405.8" font-family="Times New Roman,serif" font-size="14.00">$dff</text>
<polyline fill="none" stroke="black" points="181.5,-394 181.5,-440 "/>
<text text-anchor="middle" x="195" y="-413.3" font-family="Times New Roman,serif" font-size="14.00">Q</text>
</g>
<!-- n6&#45;&gt;c19 -->
<g id="edge16" class="edge">
<title>n6:e&#45;&gt;c19:w</title>
<path fill="none" stroke="#e6ab02" d="M58.25,-453C74.7,-453 76.85,-437.46 87.72,-431.39"/>
<polygon fill="#e6ab02" stroke="#e6ab02" points="88.62,-434.77 97.5,-429 86.96,-427.97 88.62,-434.77"/>
</g>
<!-- c27 -->
<g id="node25" class="node">
<title>c27</title>
<polygon fill="none" stroke="black" points="1286.91,-394.5 1286.91,-463.5 1385.91,-463.5 1385.91,-394.5 1286.91,-394.5"/>
<text text-anchor="middle" x="1299.91" y="-448.3" font-family="Times New Roman,serif" font-size="14.00">A</text>
<polyline fill="none" stroke="black" points="1286.91,-440.5 1312.91,-440.5 "/>
<text text-anchor="middle" x="1299.91" y="-425.3" font-family="Times New Roman,serif" font-size="14.00">B</text>
<polyline fill="none" stroke="black" points="1286.91,-417.5 1312.91,-417.5 "/>
<text text-anchor="middle" x="1299.91" y="-402.3" font-family="Times New Roman,serif" font-size="14.00">S</text>
<polyline fill="none" stroke="black" points="1312.91,-394.5 1312.91,-463.5 "/>
<text text-anchor="middle" x="1336.41" y="-432.8" font-family="Times New Roman,serif" font-size="14.00">$7</text>
<text text-anchor="middle" x="1336.41" y="-417.8" font-family="Times New Roman,serif" font-size="14.00">$mux</text>
<polyline fill="none" stroke="black" points="1359.91,-394.5 1359.91,-463.5 "/>
<text text-anchor="middle" x="1372.91" y="-425.3" font-family="Times New Roman,serif" font-size="14.00">Y</text>
</g>
<!-- n6&#45;&gt;c27 -->
<g id="edge17" class="edge">
<title>n6:e&#45;&gt;c27:w</title>
<path fill="none" stroke="#e6ab02" d="M58.25,-453C196.98,-453 222.17,-515.84 359.71,-534 517.76,-554.86 704.12,-565.88 942.71,-505 1007.44,-488.48 1020.02,-472.91 1078.71,-441 1095.72,-431.75 1097.29,-423.96 1115.71,-418 1184.87,-395.61 1208.43,-405 1276.53,-405.93"/>
<polygon fill="#e6ab02" stroke="#e6ab02" points="1276.88,-409.43 1286.91,-406 1276.93,-402.43 1276.88,-409.43"/>
</g>
<!-- n7 -->
<g id="node2" class="node">
<title>n7</title>
<polygon fill="none" stroke="black" points="57.25,-507.54 57.25,-522.46 41.43,-533 19.07,-533 3.25,-522.46 3.25,-507.54 19.07,-497 41.43,-497 57.25,-507.54"/>
<text text-anchor="middle" x="30.25" y="-511.3" font-family="Times New Roman,serif" font-size="14.00">j</text>
</g>
<!-- x6 -->
<g id="node21" class="node">
<title>x6</title>
<path fill="none" stroke="black" d="M390.21,-478C390.21,-478 428.21,-478 428.21,-478 434.21,-478 440.21,-484 440.21,-490 440.21,-490 440.21,-512 440.21,-512 440.21,-518 434.21,-524 428.21,-524 428.21,-524 390.21,-524 390.21,-524 384.21,-524 378.21,-518 378.21,-512 378.21,-512 378.21,-490 378.21,-490 378.21,-484 384.21,-478 390.21,-478"/>
<text text-anchor="middle" x="409.21" y="-508.8" font-family="Times New Roman,serif" font-size="14.00">0:0 &#45; 1:1</text>
<polyline fill="none" stroke="black" points="378.21,-501 440.21,-501 "/>
<text text-anchor="middle" x="409.21" y="-485.8" font-family="Times New Roman,serif" font-size="14.00">0:0 &#45; 0:0</text>
</g>
<!-- n7&#45;&gt;x6 -->
<g id="edge18" class="edge">
<title>n7:e&#45;&gt;x6:w</title>
<path fill="none" stroke="#d95f02" d="M58.25,-515C196.55,-515 233.65,-513.1 367.01,-513"/>
<polygon fill="#d95f02" stroke="#d95f02" points="367.21,-516.5 377.21,-513 367.21,-509.5 367.21,-516.5"/>
</g>
<!-- n8 -->
<g id="node3" class="node">
<title>n8</title>
<polygon fill="none" stroke="black" points="57.25,-348.54 57.25,-363.46 41.43,-374 19.07,-374 3.25,-363.46 3.25,-348.54 19.07,-338 41.43,-338 57.25,-348.54"/>
<text text-anchor="middle" x="30.25" y="-352.3" font-family="Times New Roman,serif" font-size="14.00">k</text>
</g>
<!-- x4 -->
<g id="node18" class="node">
<title>x4</title>
<path fill="none" stroke="black" d="M390.21,-320C390.21,-320 428.21,-320 428.21,-320 434.21,-320 440.21,-326 440.21,-332 440.21,-332 440.21,-354 440.21,-354 440.21,-360 434.21,-366 428.21,-366 428.21,-366 390.21,-366 390.21,-366 384.21,-366 378.21,-360 378.21,-354 378.21,-354 378.21,-332 378.21,-332 378.21,-326 384.21,-320 390.21,-320"/>
<text text-anchor="middle" x="409.21" y="-350.8" font-family="Times New Roman,serif" font-size="14.00">0:0 &#45; 1:1</text>
<polyline fill="none" stroke="black" points="378.21,-343 440.21,-343 "/>
<text text-anchor="middle" x="409.21" y="-327.8" font-family="Times New Roman,serif" font-size="14.00">0:0 &#45; 0:0</text>
</g>
<!-- n8&#45;&gt;x4 -->
<g id="edge19" class="edge">
<title>n8:e&#45;&gt;x4:w</title>
<path fill="none" stroke="#d95f02" d="M58.25,-356C196.55,-356 233.66,-355.05 367.01,-355"/>
<polygon fill="#d95f02" stroke="#d95f02" points="367.21,-358.5 377.21,-355 367.21,-351.5 367.21,-358.5"/>
</g>
<!-- n9 -->
<g id="node4" class="node">
<title>n9</title>
<polygon fill="none" stroke="black" points="1182.81,-463 1115.61,-445 1182.81,-427 1250.01,-445 1182.81,-463"/>
<text text-anchor="middle" x="1182.81" y="-441.3" font-family="Times New Roman,serif" font-size="14.00">next_state</text>
</g>
<!-- n9&#45;&gt;c27 -->
<g id="edge21" class="edge">
<title>n9:e&#45;&gt;c27:w</title>
<path fill="none" stroke="#d95f02" d="M1249.91,-445C1263.76,-445 1267.6,-435.43 1276.92,-431.09"/>
<polygon fill="#d95f02" stroke="#d95f02" points="1277.84,-434.48 1286.91,-429 1276.4,-427.62 1277.84,-434.48"/>
</g>
<!-- n10 -->
<g id="node5" class="node">
<title>n10</title>
<polygon fill="none" stroke="black" points="1593.91,-64.54 1593.91,-79.46 1578.09,-90 1555.72,-90 1539.91,-79.46 1539.91,-64.54 1555.72,-54 1578.09,-54 1593.91,-64.54"/>
<text text-anchor="middle" x="1566.91" y="-68.3" font-family="Times New Roman,serif" font-size="14.00">out</text>
</g>
<!-- n11 -->
<g id="node6" class="node">
<title>n11</title>
<polygon fill="none" stroke="black" points="60.25,-137.54 60.25,-152.46 42.68,-163 17.82,-163 0.25,-152.46 0.25,-137.54 17.82,-127 42.68,-127 60.25,-137.54"/>
<text text-anchor="middle" x="30.25" y="-141.3" font-family="Times New Roman,serif" font-size="14.00">reset</text>
</g>
<!-- c22 -->
<g id="node12" class="node">
<title>c22</title>
<polygon fill="none" stroke="black" points="1422.91,-179.5 1422.91,-248.5 1521.91,-248.5 1521.91,-179.5 1422.91,-179.5"/>
<text text-anchor="middle" x="1435.91" y="-233.3" font-family="Times New Roman,serif" font-size="14.00">A</text>
<polyline fill="none" stroke="black" points="1422.91,-225.5 1448.91,-225.5 "/>
<text text-anchor="middle" x="1435.91" y="-210.3" font-family="Times New Roman,serif" font-size="14.00">B</text>
<polyline fill="none" stroke="black" points="1422.91,-202.5 1448.91,-202.5 "/>
<text text-anchor="middle" x="1435.91" y="-187.3" font-family="Times New Roman,serif" font-size="14.00">S</text>
<polyline fill="none" stroke="black" points="1448.91,-179.5 1448.91,-248.5 "/>
<text text-anchor="middle" x="1472.41" y="-217.8" font-family="Times New Roman,serif" font-size="14.00">$10</text>
<text text-anchor="middle" x="1472.41" y="-202.8" font-family="Times New Roman,serif" font-size="14.00">$mux</text>
<polyline fill="none" stroke="black" points="1495.91,-179.5 1495.91,-248.5 "/>
<text text-anchor="middle" x="1508.91" y="-210.3" font-family="Times New Roman,serif" font-size="14.00">Y</text>
</g>
<!-- n11&#45;&gt;c22 -->
<g id="edge6" class="edge">
<title>n11:e&#45;&gt;c22:w</title>
<path fill="none" stroke="#e7298a" d="M60.5,-145C101.17,-145 111.33,-145 152,-145 152,-145 152,-145 1337.41,-145 1360.56,-145 1365.61,-152.86 1385.91,-164 1400.13,-171.8 1402.25,-184.32 1412.83,-189.08"/>
<polygon fill="#e7298a" stroke="#e7298a" points="1412.43,-192.56 1422.91,-191 1413.74,-185.69 1412.43,-192.56"/>
</g>
<!-- n12 -->
<g id="node7" class="node">
<title>n12</title>
<polygon fill="none" stroke="black" points="284.1,-435 245.4,-417 284.1,-399 322.81,-417 284.1,-435"/>
<text text-anchor="middle" x="284.1" y="-413.3" font-family="Times New Roman,serif" font-size="14.00">state</text>
</g>
<!-- n12&#45;&gt;x4 -->
<g id="edge10" class="edge">
<title>n12:e&#45;&gt;x4:w</title>
<path fill="none" stroke="#7570b3" d="M322.71,-417C364.07,-417 337.55,-345.15 367.24,-332.8"/>
<polygon fill="#7570b3" stroke="#7570b3" points="367.99,-336.22 377.21,-331 366.75,-329.33 367.99,-336.22"/>
</g>
<!-- n12&#45;&gt;x6 -->
<g id="edge11" class="edge">
<title>n12:e&#45;&gt;x6:w</title>
<path fill="none" stroke="#7570b3" d="M322.71,-417C344.66,-417 327.21,-445.69 340.71,-463 350.57,-475.64 355.3,-484.77 367.15,-487.86"/>
<polygon fill="#7570b3" stroke="#7570b3" points="366.88,-491.35 377.21,-489 367.67,-484.39 366.88,-491.35"/>
</g>
<!-- c26 -->
<g id="node24" class="node">
<title>c26</title>
<polygon fill="none" stroke="black" points="359.71,-37.5 359.71,-106.5 458.71,-106.5 458.71,-37.5 359.71,-37.5"/>
<text text-anchor="middle" x="372.71" y="-91.3" font-family="Times New Roman,serif" font-size="14.00">A</text>
<polyline fill="none" stroke="black" points="359.71,-83.5 385.71,-83.5 "/>
<text text-anchor="middle" x="372.71" y="-68.3" font-family="Times New Roman,serif" font-size="14.00">B</text>
<polyline fill="none" stroke="black" points="359.71,-60.5 385.71,-60.5 "/>
<text text-anchor="middle" x="372.71" y="-45.3" font-family="Times New Roman,serif" font-size="14.00">S</text>
<polyline fill="none" stroke="black" points="385.71,-37.5 385.71,-106.5 "/>
<text text-anchor="middle" x="409.21" y="-75.8" font-family="Times New Roman,serif" font-size="14.00">$5</text>
<text text-anchor="middle" x="409.21" y="-60.8" font-family="Times New Roman,serif" font-size="14.00">$mux</text>
<polyline fill="none" stroke="black" points="432.71,-37.5 432.71,-106.5 "/>
<text text-anchor="middle" x="445.71" y="-68.3" font-family="Times New Roman,serif" font-size="14.00">Y</text>
</g>
<!-- n12&#45;&gt;c26 -->
<g id="edge8" class="edge">
<title>n12:e&#45;&gt;c26:w</title>
<path fill="none" stroke="#7570b3" d="M322.71,-417C360.67,-417 325,-102.93 351.74,-55.08"/>
<polygon fill="#7570b3" stroke="#7570b3" points="353.88,-57.85 359.71,-49 349.64,-52.29 353.88,-57.85"/>
</g>
<!-- n12&#45;&gt;c27 -->
<g id="edge9" class="edge">
<title>n12:e&#45;&gt;c27:w</title>
<path fill="none" stroke="#7570b3" d="M322.71,-417C340.14,-417 343.07,-424.81 359.71,-430 411.17,-446.06 423.68,-452.29 476.71,-462 609.78,-486.38 644.43,-491 779.71,-491 779.71,-491 779.71,-491 1183.81,-491 1214.37,-491 1221.61,-483.56 1249.91,-472 1263.43,-466.48 1267,-457.38 1276.82,-453.66"/>
<polygon fill="#7570b3" stroke="#7570b3" points="1277.61,-457.08 1286.91,-452 1276.47,-450.17 1277.61,-457.08"/>
</g>
<!-- c15 -->
<g id="node8" class="node">
<title>c15</title>
<polygon fill="none" stroke="black" points="810.71,-316 810.71,-354 942.71,-354 942.71,-316 810.71,-316"/>
<text text-anchor="middle" x="823.71" y="-331.3" font-family="Times New Roman,serif" font-size="14.00">A</text>
<polyline fill="none" stroke="black" points="836.71,-316 836.71,-354 "/>
<text text-anchor="middle" x="876.71" y="-338.8" font-family="Times New Roman,serif" font-size="14.00">$17</text>
<text text-anchor="middle" x="876.71" y="-323.8" font-family="Times New Roman,serif" font-size="14.00">$reduce_or</text>
<polyline fill="none" stroke="black" points="916.71,-316 916.71,-354 "/>
<text text-anchor="middle" x="929.71" y="-331.3" font-family="Times New Roman,serif" font-size="14.00">Y</text>
</g>
<!-- c23 -->
<g id="node15" class="node">
<title>c23</title>
<polygon fill="none" stroke="black" points="979.71,-362.5 979.71,-431.5 1078.71,-431.5 1078.71,-362.5 979.71,-362.5"/>
<text text-anchor="middle" x="992.71" y="-416.3" font-family="Times New Roman,serif" font-size="14.00">A</text>
<polyline fill="none" stroke="black" points="979.71,-408.5 1005.71,-408.5 "/>
<text text-anchor="middle" x="992.71" y="-393.3" font-family="Times New Roman,serif" font-size="14.00">B</text>
<polyline fill="none" stroke="black" points="979.71,-385.5 1005.71,-385.5 "/>
<text text-anchor="middle" x="992.71" y="-370.3" font-family="Times New Roman,serif" font-size="14.00">S</text>
<polyline fill="none" stroke="black" points="1005.71,-362.5 1005.71,-431.5 "/>
<text text-anchor="middle" x="1029.21" y="-400.8" font-family="Times New Roman,serif" font-size="14.00">$13</text>
<text text-anchor="middle" x="1029.21" y="-385.8" font-family="Times New Roman,serif" font-size="14.00">$mux</text>
<polyline fill="none" stroke="black" points="1052.71,-362.5 1052.71,-431.5 "/>
<text text-anchor="middle" x="1065.71" y="-393.3" font-family="Times New Roman,serif" font-size="14.00">Y</text>
</g>
<!-- c15&#45;&gt;c23 -->
<g id="edge12" class="edge">
<title>c15:e&#45;&gt;c23:w</title>
<path fill="none" stroke="#d95f02" d="M942.71,-335C962.5,-335 958.5,-361.75 970.11,-370.94"/>
<polygon fill="#d95f02" stroke="#d95f02" points="969.12,-374.3 979.71,-374 971.25,-367.63 969.12,-374.3"/>
</g>
<!-- x0 -->
<g id="node9" class="node">
<title>x0</title>
<path fill="none" stroke="black" d="M700.71,-313C700.71,-313 738.71,-313 738.71,-313 744.71,-313 750.71,-319 750.71,-325 750.71,-325 750.71,-347 750.71,-347 750.71,-353 744.71,-359 738.71,-359 738.71,-359 700.71,-359 700.71,-359 694.71,-359 688.71,-353 688.71,-347 688.71,-347 688.71,-325 688.71,-325 688.71,-319 694.71,-313 700.71,-313"/>
<text text-anchor="middle" x="719.71" y="-343.8" font-family="Times New Roman,serif" font-size="14.00">0:0 &#45; 1:1</text>
<polyline fill="none" stroke="black" points="688.71,-336 750.71,-336 "/>
<text text-anchor="middle" x="719.71" y="-320.8" font-family="Times New Roman,serif" font-size="14.00">0:0 &#45; 0:0</text>
</g>
<!-- x0&#45;&gt;c15 -->
<g id="edge1" class="edge">
<title>x0:e&#45;&gt;c15:w</title>
<path fill="none" stroke="#66a61e" stroke-width="3" d="M762.89,-335.92C776.6,-335.74 784.69,-335.27 798.35,-335.08"/>
<polygon fill="none" stroke="#66a61e" stroke-width="3" points="762.71,-335.92 756.74,-339.96 750.71,-336 756.68,-331.96 762.71,-335.92"/>
<polygon fill="none" stroke="#66a61e" stroke-width="3" points="798.71,-335.08 804.68,-331.04 810.71,-335 804.74,-339.04 798.71,-335.08"/>
<text text-anchor="middle" x="780.71" y="-338.8" font-family="Times New Roman,serif" font-size="14.00" fill="#66a61e">&lt;2&gt;</text>
</g>
<!-- c19&#45;&gt;n12 -->
<g id="edge7" class="edge">
<title>c19:e&#45;&gt;n12:w</title>
<path fill="none" stroke="#7570b3" d="M208.5,-417C220.96,-417 226.34,-417 235.37,-417"/>
<polygon fill="#7570b3" stroke="#7570b3" points="235.5,-420.5 245.5,-417 235.5,-413.5 235.5,-420.5"/>
</g>
<!-- v1 -->
<g id="node11" class="node">
<title>v1</title>
<ellipse fill="none" stroke="black" cx="1336.41" cy="-191" rx="27" ry="18"/>
<text text-anchor="middle" x="1336.41" y="-187.3" font-family="Times New Roman,serif" font-size="14.00">1&#39;0</text>
</g>
<!-- v1&#45;&gt;c22 -->
<g id="edge22" class="edge">
<title>v1:e&#45;&gt;c22:w</title>
<path fill="none" stroke="#1b9e77" d="M1364.41,-191C1388.52,-191 1393.78,-208.14 1412.74,-212.83"/>
<polygon fill="#1b9e77" stroke="#1b9e77" points="1412.57,-216.33 1422.91,-214 1413.37,-209.38 1412.57,-216.33"/>
</g>
<!-- c22&#45;&gt;c19 -->
<g id="edge4" class="edge">
<title>c22:e&#45;&gt;c19:w</title>
<path fill="none" stroke="#7570b3" d="M1523.41,-214C1531.19,-214 1527.99,-243.58 1522.41,-249 1463.32,-306.42 1419.8,-237 1337.41,-237 283.1,-237 283.1,-237 283.1,-237 175.03,-237 146.83,-297.6 97,-393.5 96.78,-393.93 96.54,-394.37 96.31,-394.84"/>
<polygon fill="#7570b3" stroke="#7570b3" points="92.8,-394.9 96,-405 99.8,-395.11 92.8,-394.9"/>
</g>
<!-- v2 -->
<g id="node13" class="node">
<title>v2</title>
<ellipse fill="none" stroke="black" cx="876.71" cy="-445" rx="27" ry="18"/>
<text text-anchor="middle" x="876.71" y="-441.3" font-family="Times New Roman,serif" font-size="14.00">1&#39;0</text>
</g>
<!-- v2&#45;&gt;c23 -->
<g id="edge23" class="edge">
<title>v2:e&#45;&gt;c23:w</title>
<path fill="none" stroke="#1b9e77" d="M904.71,-445C936.14,-445 943.24,-425 969.54,-420.78"/>
<polygon fill="#1b9e77" stroke="#1b9e77" points="970,-424.25 979.71,-420 969.47,-417.27 970,-424.25"/>
</g>
<!-- v3 -->
<g id="node14" class="node">
<title>v3</title>
<ellipse fill="none" stroke="black" cx="876.71" cy="-391" rx="27" ry="18"/>
<text text-anchor="middle" x="876.71" y="-387.3" font-family="Times New Roman,serif" font-size="14.00">1&#39;1</text>
</g>
<!-- v3&#45;&gt;c23 -->
<g id="edge24" class="edge">
<title>v3:e&#45;&gt;c23:w</title>
<path fill="none" stroke="#7570b3" d="M904.71,-391C934.49,-391 944.19,-395.76 969.58,-396.8"/>
<polygon fill="#7570b3" stroke="#7570b3" points="969.64,-400.3 979.71,-397 969.78,-393.3 969.64,-400.3"/>
</g>
<!-- c23&#45;&gt;n9 -->
<g id="edge20" class="edge">
<title>c23:e&#45;&gt;n9:w</title>
<path fill="none" stroke="#d95f02" d="M1078.71,-397C1101.44,-397 1092.98,-431.17 1105.96,-441.85"/>
<polygon fill="#d95f02" stroke="#d95f02" points="1105.12,-445.26 1115.71,-445 1107.27,-438.6 1105.12,-445.26"/>
</g>
<!-- v5 -->
<g id="node16" class="node">
<title>v5</title>
<ellipse fill="none" stroke="black" cx="409.21" cy="-283" rx="27" ry="18"/>
<text text-anchor="middle" x="409.21" y="-279.3" font-family="Times New Roman,serif" font-size="14.00">1&#39;1</text>
</g>
<!-- c24 -->
<g id="node17" class="node">
<title>c24</title>
<polygon fill="none" stroke="black" points="518.71,-301 518.71,-347 651.71,-347 651.71,-301 518.71,-301"/>
<text text-anchor="middle" x="531.71" y="-331.8" font-family="Times New Roman,serif" font-size="14.00">A</text>
<polyline fill="none" stroke="black" points="518.71,-324 544.71,-324 "/>
<text text-anchor="middle" x="531.71" y="-308.8" font-family="Times New Roman,serif" font-size="14.00">B</text>
<polyline fill="none" stroke="black" points="544.71,-301 544.71,-347 "/>
<text text-anchor="middle" x="585.21" y="-327.8" font-family="Times New Roman,serif" font-size="14.00">$14_CMP0</text>
<text text-anchor="middle" x="585.21" y="-312.8" font-family="Times New Roman,serif" font-size="14.00">$eq</text>
<polyline fill="none" stroke="black" points="625.71,-301 625.71,-347 "/>
<text text-anchor="middle" x="638.71" y="-320.3" font-family="Times New Roman,serif" font-size="14.00">Y</text>
</g>
<!-- v5&#45;&gt;c24 -->
<g id="edge25" class="edge">
<title>v5:e&#45;&gt;c24:w</title>
<path fill="none" stroke="#666666" d="M437.21,-283C472.05,-283 479.1,-306.82 508.73,-311.28"/>
<polygon fill="#666666" stroke="#666666" points="508.48,-314.77 518.71,-312 508.99,-307.79 508.48,-314.77"/>
</g>
<!-- c24&#45;&gt;x0 -->
<g id="edge13" class="edge">
<title>c24:e&#45;&gt;x0:w</title>
<path fill="none" stroke="#1b9e77" d="M651.71,-324C664.17,-324 669.55,-324 678.58,-324"/>
<polygon fill="#1b9e77" stroke="#1b9e77" points="678.71,-327.5 688.71,-324 678.71,-320.5 678.71,-327.5"/>
</g>
<!-- x4&#45;&gt;c24 -->
<g id="edge2" class="edge">
<title>x4:e&#45;&gt;c24:w</title>
<path fill="none" stroke="#1b9e77" stroke-width="3" d="M453.39,-342.68C474.67,-341.51 485.23,-337.49 506.5,-336.32"/>
<polygon fill="none" stroke="#1b9e77" stroke-width="3" points="453.21,-342.69 447.31,-346.84 441.21,-343 447.1,-338.84 453.21,-342.69"/>
<polygon fill="none" stroke="#1b9e77" stroke-width="3" points="506.71,-336.32 512.61,-332.16 518.71,-336 512.82,-340.16 506.71,-336.32"/>
<text text-anchor="middle" x="488.71" y="-342.8" font-family="Times New Roman,serif" font-size="14.00" fill="#1b9e77">&lt;2&gt;</text>
</g>
<!-- v7 -->
<g id="node19" class="node">
<title>v7</title>
<ellipse fill="none" stroke="black" cx="409.21" cy="-403" rx="27" ry="18"/>
<text text-anchor="middle" x="409.21" y="-399.3" font-family="Times New Roman,serif" font-size="14.00">2&#39;10</text>
</g>
<!-- c25 -->
<g id="node20" class="node">
<title>c25</title>
<polygon fill="none" stroke="black" points="518.71,-392 518.71,-438 651.71,-438 651.71,-392 518.71,-392"/>
<text text-anchor="middle" x="531.71" y="-422.8" font-family="Times New Roman,serif" font-size="14.00">A</text>
<polyline fill="none" stroke="black" points="518.71,-415 544.71,-415 "/>
<text text-anchor="middle" x="531.71" y="-399.8" font-family="Times New Roman,serif" font-size="14.00">B</text>
<polyline fill="none" stroke="black" points="544.71,-392 544.71,-438 "/>
<text text-anchor="middle" x="585.21" y="-418.8" font-family="Times New Roman,serif" font-size="14.00">$15_CMP0</text>
<text text-anchor="middle" x="585.21" y="-403.8" font-family="Times New Roman,serif" font-size="14.00">$eq</text>
<polyline fill="none" stroke="black" points="625.71,-392 625.71,-438 "/>
<text text-anchor="middle" x="638.71" y="-411.3" font-family="Times New Roman,serif" font-size="14.00">Y</text>
</g>
<!-- v7&#45;&gt;c25 -->
<g id="edge26" class="edge">
<title>v7:e&#45;&gt;c25:w</title>
<path fill="none" stroke="#a6761d" stroke-width="3" d="M437.21,-403C469.75,-403 480.37,-403 508.46,-403"/>
<polygon fill="#a6761d" stroke="#a6761d" stroke-width="3" points="508.71,-406.5 518.71,-403 508.71,-399.5 508.71,-406.5"/>
<text text-anchor="middle" x="488.71" y="-406.8" font-family="Times New Roman,serif" font-size="14.00" fill="#a6761d">&lt;2&gt;</text>
</g>
<!-- c25&#45;&gt;x0 -->
<g id="edge14" class="edge">
<title>c25:e&#45;&gt;x0:w</title>
<path fill="none" stroke="#1b9e77" d="M651.71,-415C681.47,-415 661.43,-363.7 678.75,-350.88"/>
<polygon fill="#1b9e77" stroke="#1b9e77" points="680.07,-354.14 688.71,-348 678.13,-347.41 680.07,-354.14"/>
</g>
<!-- x6&#45;&gt;c25 -->
<g id="edge3" class="edge">
<title>x6:e&#45;&gt;c25:w</title>
<path fill="none" stroke="#1b9e77" stroke-width="3" d="M453.41,-499.02C482.56,-488.49 477.42,-439.17 506.78,-428.88"/>
<polygon fill="none" stroke="#1b9e77" stroke-width="3" points="453.05,-499.08 447.77,-503.99 441.21,-501 446.49,-496.09 453.05,-499.08"/>
<polygon fill="none" stroke="#1b9e77" stroke-width="3" points="506.86,-428.87 512.16,-423.98 518.71,-427 513.41,-431.89 506.86,-428.87"/>
<text text-anchor="middle" x="488.71" y="-473.8" font-family="Times New Roman,serif" font-size="14.00" fill="#1b9e77">&lt;2&gt;</text>
</g>
<!-- v8 -->
<g id="node22" class="node">
<title>v8</title>
<ellipse fill="none" stroke="black" cx="284.1" cy="-95" rx="27" ry="18"/>
<text text-anchor="middle" x="284.1" y="-91.3" font-family="Times New Roman,serif" font-size="14.00">1&#39;0</text>
</g>
<!-- v8&#45;&gt;c26 -->
<g id="edge27" class="edge">
<title>v8:e&#45;&gt;c26:w</title>
<path fill="none" stroke="#7570b3" d="M312.1,-95C329.46,-95 336.14,-95 349.66,-95"/>
<polygon fill="#7570b3" stroke="#7570b3" points="349.71,-98.5 359.71,-95 349.71,-91.5 349.71,-98.5"/>
</g>
<!-- v9 -->
<g id="node23" class="node">
<title>v9</title>
<ellipse fill="none" stroke="black" cx="284.1" cy="-41" rx="27" ry="18"/>
<text text-anchor="middle" x="284.1" y="-37.3" font-family="Times New Roman,serif" font-size="14.00">1&#39;1</text>
</g>
<!-- v9&#45;&gt;c26 -->
<g id="edge28" class="edge">
<title>v9:e&#45;&gt;c26:w</title>
<path fill="none" stroke="#a6761d" d="M312.1,-41C333.41,-41 334.68,-63.07 349.72,-69.97"/>
<polygon fill="#a6761d" stroke="#a6761d" points="349.21,-73.43 359.71,-72 350.61,-66.57 349.21,-73.43"/>
</g>
<!-- c26&#45;&gt;n10 -->
<g id="edge5" class="edge">
<title>c26:e&#45;&gt;n10:w</title>
<path fill="none" stroke="#e7298a" d="M458.71,-72C514.49,-72 528.43,-72 584.21,-72 584.21,-72 584.21,-72 1404.91,-72 1461.39,-72 1477.99,-72 1529.81,-72"/>
<polygon fill="#e7298a" stroke="#e7298a" points="1529.91,-75.5 1539.91,-72 1529.91,-68.5 1529.91,-75.5"/>
</g>
<!-- c27&#45;&gt;c22 -->
<g id="edge15" class="edge">
<title>c27:e&#45;&gt;c22:w</title>
<path fill="none" stroke="#e6ab02" d="M1385.91,-429C1425.62,-429 1387.34,-268.58 1413.65,-241.01"/>
<polygon fill="#e6ab02" stroke="#e6ab02" points="1415.12,-244.19 1422.91,-237 1412.34,-237.77 1415.12,-244.19"/>
</g>
</g>
</svg>
