<?xml version="1.0" encoding="UTF-8" standalone="no"?>
<!DOCTYPE svg PUBLIC "-//W3C//DTD SVG 1.1//EN"
 "http://www.w3.org/Graphics/SVG/1.1/DTD/svg11.dtd">
<!-- Generated by graphviz version 4.0.0 (20220529.0937)
 -->
<!-- Title: top_module Pages: 1 -->
<svg width="1555pt" height="512pt"
 viewBox="0.00 0.00 1554.88 512.34" xmlns="http://www.w3.org/2000/svg" xmlns:xlink="http://www.w3.org/1999/xlink">
<g id="graph0" class="graph" transform="scale(1 1) rotate(0) translate(4 508.34)">
<title>top_module</title>
<polygon fill="white" stroke="transparent" points="-4,4 -4,-508.34 1550.88,-508.34 1550.88,4 -4,4"/>
<text text-anchor="middle" x="773.44" y="-7.8" font-family="Times New Roman,serif" font-size="14.00">top_module</text>
<!-- n1 -->
<g id="node1" class="node">
<title>n1</title>
<polygon fill="none" stroke="black" points="543.48,-242 395.52,-224 543.48,-206 691.45,-224 543.48,-242"/>
<text text-anchor="middle" x="543.48" y="-220.3" font-family="Times New Roman,serif" font-size="14.00">state_SB_DFFESR_Q_E</text>
</g>
<!-- c20 -->
<g id="node12" class="node">
<title>c20</title>
<polygon fill="none" stroke="black" points="727.47,-190 727.47,-282 925.47,-282 925.47,-190 727.47,-190"/>
<text text-anchor="middle" x="740.47" y="-266.8" font-family="Times New Roman,serif" font-size="14.00">C</text>
<polyline fill="none" stroke="black" points="727.47,-259 753.47,-259 "/>
<text text-anchor="middle" x="740.47" y="-243.8" font-family="Times New Roman,serif" font-size="14.00">D</text>
<polyline fill="none" stroke="black" points="727.47,-236 753.47,-236 "/>
<text text-anchor="middle" x="740.47" y="-220.8" font-family="Times New Roman,serif" font-size="14.00">E</text>
<polyline fill="none" stroke="black" points="727.47,-213 753.47,-213 "/>
<text text-anchor="middle" x="740.47" y="-197.8" font-family="Times New Roman,serif" font-size="14.00">R</text>
<polyline fill="none" stroke="black" points="753.47,-190 753.47,-282 "/>
<text text-anchor="middle" x="825.97" y="-239.8" font-family="Times New Roman,serif" font-size="14.00">state_SB_DFFESR_Q</text>
<text text-anchor="middle" x="825.97" y="-224.8" font-family="Times New Roman,serif" font-size="14.00">SB_DFFESR</text>
<polyline fill="none" stroke="black" points="898.47,-190 898.47,-282 "/>
<text text-anchor="middle" x="911.97" y="-232.3" font-family="Times New Roman,serif" font-size="14.00">Q</text>
</g>
<!-- n1&#45;&gt;c20 -->
<g id="edge2" class="edge">
<title>n1:e&#45;&gt;c20:w</title>
<path fill="none" stroke="#66a61e" d="M691.47,-224C703.47,-224 708.72,-224 717.34,-224"/>
<polygon fill="#66a61e" stroke="#66a61e" points="717.47,-227.5 727.47,-224 717.47,-220.5 717.47,-227.5"/>
</g>
<!-- n2 -->
<g id="node2" class="node">
<title>n2</title>
<polygon fill="none" stroke="black" points="57.25,-202.54 57.25,-217.46 41.43,-228 19.07,-228 3.25,-217.46 3.25,-202.54 19.07,-192 41.43,-192 57.25,-202.54"/>
<text text-anchor="middle" x="30.25" y="-206.3" font-family="Times New Roman,serif" font-size="14.00">clk</text>
</g>
<!-- c14 -->
<g id="node11" class="node">
<title>c14</title>
<polygon fill="none" stroke="black" points="186.5,-178 186.5,-270 359.5,-270 359.5,-178 186.5,-178"/>
<text text-anchor="middle" x="200.5" y="-254.8" font-family="Times New Roman,serif" font-size="14.00">I0</text>
<polyline fill="none" stroke="black" points="186.5,-247 214.5,-247 "/>
<text text-anchor="middle" x="200.5" y="-231.8" font-family="Times New Roman,serif" font-size="14.00">I1</text>
<polyline fill="none" stroke="black" points="186.5,-224 214.5,-224 "/>
<text text-anchor="middle" x="200.5" y="-208.8" font-family="Times New Roman,serif" font-size="14.00">I2</text>
<polyline fill="none" stroke="black" points="186.5,-201 214.5,-201 "/>
<text text-anchor="middle" x="200.5" y="-185.8" font-family="Times New Roman,serif" font-size="14.00">I3</text>
<polyline fill="none" stroke="black" points="214.5,-178 214.5,-270 "/>
<text text-anchor="middle" x="273.5" y="-227.8" font-family="Times New Roman,serif" font-size="14.00">clk_SB_LUT4_I2</text>
<text text-anchor="middle" x="273.5" y="-212.8" font-family="Times New Roman,serif" font-size="14.00">SB_LUT4</text>
<polyline fill="none" stroke="black" points="332.5,-178 332.5,-270 "/>
<text text-anchor="middle" x="346" y="-220.3" font-family="Times New Roman,serif" font-size="14.00">O</text>
</g>
<!-- n2&#45;&gt;c14 -->
<g id="edge3" class="edge">
<title>n2:e&#45;&gt;c14:w</title>
<path fill="none" stroke="#1b9e77" d="M58.25,-210C111.69,-210 127.55,-211.76 176.29,-211.98"/>
<polygon fill="#1b9e77" stroke="#1b9e77" points="176.49,-215.48 186.5,-212 176.51,-208.48 176.49,-215.48"/>
</g>
<!-- n2&#45;&gt;c20 -->
<g id="edge4" class="edge">
<title>n2:e&#45;&gt;c20:w</title>
<path fill="none" stroke="#1b9e77" d="M58.25,-210C113.38,-210 51.91,-295.58 96.5,-328 115.91,-342.11 126.53,-329.18 150.5,-328 404.47,-315.49 468.12,-272.16 717.38,-271.02"/>
<polygon fill="#1b9e77" stroke="#1b9e77" points="717.48,-274.52 727.47,-271 717.46,-267.52 717.48,-274.52"/>
</g>
<!-- n3 -->
<g id="node3" class="node">
<title>n3</title>
<polygon fill="none" stroke="black" points="57.25,-377.54 57.25,-392.46 41.43,-403 19.07,-403 3.25,-392.46 3.25,-377.54 19.07,-367 41.43,-367 57.25,-377.54"/>
<text text-anchor="middle" x="30.25" y="-381.3" font-family="Times New Roman,serif" font-size="14.00">j</text>
</g>
<!-- c21 -->
<g id="node14" class="node">
<title>c21</title>
<polygon fill="none" stroke="black" points="1074.68,-327 1074.68,-419 1286.68,-419 1286.68,-327 1074.68,-327"/>
<text text-anchor="middle" x="1088.68" y="-403.8" font-family="Times New Roman,serif" font-size="14.00">I0</text>
<polyline fill="none" stroke="black" points="1074.68,-396 1102.68,-396 "/>
<text text-anchor="middle" x="1088.68" y="-380.8" font-family="Times New Roman,serif" font-size="14.00">I1</text>
<polyline fill="none" stroke="black" points="1074.68,-373 1102.68,-373 "/>
<text text-anchor="middle" x="1088.68" y="-357.8" font-family="Times New Roman,serif" font-size="14.00">I2</text>
<polyline fill="none" stroke="black" points="1074.68,-350 1102.68,-350 "/>
<text text-anchor="middle" x="1088.68" y="-334.8" font-family="Times New Roman,serif" font-size="14.00">I3</text>
<polyline fill="none" stroke="black" points="1102.68,-327 1102.68,-419 "/>
<text text-anchor="middle" x="1181.18" y="-376.8" font-family="Times New Roman,serif" font-size="14.00">next_state_SB_LUT4_O</text>
<text text-anchor="middle" x="1181.18" y="-361.8" font-family="Times New Roman,serif" font-size="14.00">SB_LUT4</text>
<polyline fill="none" stroke="black" points="1259.68,-327 1259.68,-419 "/>
<text text-anchor="middle" x="1273.18" y="-369.3" font-family="Times New Roman,serif" font-size="14.00">O</text>
</g>
<!-- n3&#45;&gt;c21 -->
<g id="edge5" class="edge">
<title>n3:e&#45;&gt;c21:w</title>
<path fill="none" stroke="#1b9e77" d="M58.25,-385C153.25,-385 177,-385 272,-385 272,-385 272,-385 827.47,-385 933.91,-385 963.01,-385 1064.61,-385"/>
<polygon fill="#1b9e77" stroke="#1b9e77" points="1064.68,-388.5 1074.68,-385 1064.68,-381.5 1064.68,-388.5"/>
</g>
<!-- n4 -->
<g id="node4" class="node">
<title>n4</title>
<polygon fill="none" stroke="black" points="57.25,-79.54 57.25,-94.46 41.43,-105 19.07,-105 3.25,-94.46 3.25,-79.54 19.07,-69 41.43,-69 57.25,-79.54"/>
<text text-anchor="middle" x="30.25" y="-83.3" font-family="Times New Roman,serif" font-size="14.00">k</text>
</g>
<!-- n4&#45;&gt;c21 -->
<g id="edge6" class="edge">
<title>n4:e&#45;&gt;c21:w</title>
<path fill="none" stroke="#7570b3" d="M58.25,-87C153.25,-87 177,-87 272,-87 272,-87 272,-87 827.47,-87 987.96,-87 914.02,-349.35 1064.44,-360.63"/>
<polygon fill="#7570b3" stroke="#7570b3" points="1064.56,-364.13 1074.68,-361 1064.81,-357.14 1064.56,-364.13"/>
</g>
<!-- n5 -->
<g id="node5" class="node">
<title>n5</title>
<polygon fill="none" stroke="black" points="1389.78,-443 1322.58,-425 1389.78,-407 1456.97,-425 1389.78,-443"/>
<text text-anchor="middle" x="1389.78" y="-421.3" font-family="Times New Roman,serif" font-size="14.00">next_state</text>
</g>
<!-- n5&#45;&gt;c20 -->
<g id="edge8" class="edge">
<title>n5:e&#45;&gt;c20:w</title>
<path fill="none" stroke="#e7298a" d="M1457.78,-425C1465.79,-425 1462.5,-437.39 1456.78,-443 1324.01,-573.18 1224.59,-454.67 1038.68,-458 1004.37,-458.62 994.02,-468.85 961.47,-458 757.65,-390.06 708.08,-281.14 718.31,-254.18"/>
<polygon fill="#e7298a" stroke="#e7298a" points="720.61,-256.83 726.47,-248 716.38,-251.25 720.61,-256.83"/>
</g>
<!-- n6 -->
<g id="node6" class="node">
<title>n6</title>
<polygon fill="none" stroke="black" points="1546.88,-33.54 1546.88,-48.46 1531.06,-59 1508.69,-59 1492.88,-48.46 1492.88,-33.54 1508.69,-23 1531.06,-23 1546.88,-33.54"/>
<text text-anchor="middle" x="1519.88" y="-37.3" font-family="Times New Roman,serif" font-size="14.00">out</text>
</g>
<!-- n7 -->
<g id="node7" class="node">
<title>n7</title>
<polygon fill="none" stroke="black" points="60.25,-145.54 60.25,-160.46 42.68,-171 17.82,-171 0.25,-160.46 0.25,-145.54 17.82,-135 42.68,-135 60.25,-145.54"/>
<text text-anchor="middle" x="30.25" y="-149.3" font-family="Times New Roman,serif" font-size="14.00">reset</text>
</g>
<!-- n7&#45;&gt;c14 -->
<g id="edge10" class="edge">
<title>n7:e&#45;&gt;c14:w</title>
<path fill="none" stroke="#7570b3" d="M60.5,-153C115.21,-153 126.93,-184.77 176.44,-188.62"/>
<polygon fill="#7570b3" stroke="#7570b3" points="176.38,-192.12 186.5,-189 176.64,-185.13 176.38,-192.12"/>
</g>
<!-- n7&#45;&gt;c20 -->
<g id="edge11" class="edge">
<title>n7:e&#45;&gt;c20:w</title>
<path fill="none" stroke="#7570b3" d="M60.5,-153C100.52,-153 110.52,-154.19 150.5,-156 243.45,-160.22 266.7,-161.28 359.5,-168 507.22,-178.69 544.09,-182.38 691.47,-197 703.48,-198.19 708.67,-199.85 717.31,-200.6"/>
<polygon fill="#7570b3" stroke="#7570b3" points="717.34,-204.1 727.47,-201 717.61,-197.11 717.34,-204.1"/>
</g>
<!-- n8 -->
<g id="node8" class="node">
<title>n8</title>
<polygon fill="none" stroke="black" points="1000.07,-59 961.36,-41 1000.07,-23 1038.78,-41 1000.07,-59"/>
<text text-anchor="middle" x="1000.07" y="-37.3" font-family="Times New Roman,serif" font-size="14.00">state</text>
</g>
<!-- n8&#45;&gt;c21 -->
<g id="edge13" class="edge">
<title>n8:e&#45;&gt;c21:w</title>
<path fill="none" stroke="#d95f02" d="M1038.68,-41C1101.4,-41 1018.66,-305.31 1064.89,-335.25"/>
<polygon fill="#d95f02" stroke="#d95f02" points="1064.1,-338.66 1074.68,-338 1066,-331.92 1064.1,-338.66"/>
</g>
<!-- x3 -->
<g id="node15" class="node">
<title>x3</title>
<path fill="none" stroke="black" d="M1404.78,-59C1404.78,-59 1374.78,-59 1374.78,-59 1368.78,-59 1362.78,-53 1362.78,-47 1362.78,-47 1362.78,-35 1362.78,-35 1362.78,-29 1368.78,-23 1374.78,-23 1374.78,-23 1404.78,-23 1404.78,-23 1410.78,-23 1416.78,-29 1416.78,-35 1416.78,-35 1416.78,-47 1416.78,-47 1416.78,-53 1410.78,-59 1404.78,-59"/>
<text text-anchor="middle" x="1389.78" y="-37.3" font-family="Times New Roman,serif" font-size="14.00">BUF</text>
</g>
<!-- n8&#45;&gt;x3 -->
<g id="edge14" class="edge">
<title>n8:e&#45;&gt;x3:w</title>
<path fill="none" stroke="#d95f02" d="M1038.68,-41C1178.77,-41 1216.36,-41 1351.45,-41"/>
<polygon fill="#d95f02" stroke="#d95f02" points="1351.78,-44.5 1361.78,-41 1351.78,-37.5 1351.78,-44.5"/>
</g>
<!-- v0 -->
<g id="node9" class="node">
<title>v0</title>
<ellipse fill="none" stroke="black" cx="123.5" cy="-301" rx="27" ry="18"/>
<text text-anchor="middle" x="123.5" y="-297.3" font-family="Times New Roman,serif" font-size="14.00">1&#39;0</text>
</g>
<!-- v0&#45;&gt;c14 -->
<g id="edge15" class="edge">
<title>v0:e&#45;&gt;c14:w</title>
<path fill="none" stroke="#1b9e77" d="M150.5,-301C170.86,-301 165.33,-272.2 176.79,-262.3"/>
<polygon fill="#1b9e77" stroke="#1b9e77" points="178.15,-265.53 186.5,-259 175.91,-258.9 178.15,-265.53"/>
</g>
<!-- v1 -->
<g id="node10" class="node">
<title>v1</title>
<ellipse fill="none" stroke="black" cx="123.5" cy="-247" rx="27" ry="18"/>
<text text-anchor="middle" x="123.5" y="-243.3" font-family="Times New Roman,serif" font-size="14.00">1&#39;0</text>
</g>
<!-- v1&#45;&gt;c14 -->
<g id="edge16" class="edge">
<title>v1:e&#45;&gt;c14:w</title>
<path fill="none" stroke="#1b9e77" d="M150.5,-247C163.18,-247 167.71,-240.68 176.44,-237.62"/>
<polygon fill="#1b9e77" stroke="#1b9e77" points="177.19,-241.05 186.5,-236 176.07,-234.14 177.19,-241.05"/>
</g>
<!-- c14&#45;&gt;n1 -->
<g id="edge1" class="edge">
<title>c14:e&#45;&gt;n1:w</title>
<path fill="none" stroke="#66a61e" d="M359.5,-224C371.5,-224 376.75,-224 385.38,-224"/>
<polygon fill="#66a61e" stroke="#66a61e" points="385.5,-227.5 395.5,-224 385.5,-220.5 385.5,-227.5"/>
</g>
<!-- c20&#45;&gt;n8 -->
<g id="edge12" class="edge">
<title>c20:e&#45;&gt;n8:w</title>
<path fill="none" stroke="#d95f02" d="M925.47,-236C1009.81,-236 884.97,-57.4 951.34,-42.05"/>
<polygon fill="#d95f02" stroke="#d95f02" points="951.88,-45.51 961.47,-41 951.16,-38.55 951.88,-45.51"/>
</g>
<!-- v2 -->
<g id="node13" class="node">
<title>v2</title>
<ellipse fill="none" stroke="black" cx="1000.07" cy="-431" rx="27" ry="18"/>
<text text-anchor="middle" x="1000.07" y="-427.3" font-family="Times New Roman,serif" font-size="14.00">1&#39;0</text>
</g>
<!-- v2&#45;&gt;c21 -->
<g id="edge17" class="edge">
<title>v2:e&#45;&gt;c21:w</title>
<path fill="none" stroke="#e6ab02" d="M1028.07,-431C1047.2,-431 1050.77,-415.23 1064.55,-409.8"/>
<polygon fill="#e6ab02" stroke="#e6ab02" points="1065.45,-413.2 1074.68,-408 1064.22,-406.31 1065.45,-413.2"/>
</g>
<!-- c21&#45;&gt;n5 -->
<g id="edge7" class="edge">
<title>c21:e&#45;&gt;n5:w</title>
<path fill="none" stroke="#e7298a" d="M1286.68,-373C1310.61,-373 1299.51,-410.71 1313.04,-421.9"/>
<polygon fill="#e7298a" stroke="#e7298a" points="1312.09,-425.27 1322.68,-425 1314.23,-418.61 1312.09,-425.27"/>
</g>
<!-- x3&#45;&gt;n6 -->
<g id="edge9" class="edge">
<title>x3:e&#45;&gt;n6:w</title>
<path fill="none" stroke="#e7298a" d="M1417.78,-41C1447.5,-41 1457.37,-41 1482.76,-41"/>
<polygon fill="#e7298a" stroke="#e7298a" points="1482.88,-44.5 1492.88,-41 1482.88,-37.5 1482.88,-44.5"/>
</g>
</g>
</svg>
