<svg xmlns="http://www.w3.org/2000/svg" xmlns:xlink="http://www.w3.org/1999/xlink" xmlns:s="https://github.com/nturley/netlistsvg" width="780" height="362">
  <style>svg {
    stroke:#000;
    fill:none;
  }
  text {
    fill:#000;
    stroke:none;
    font-size:10px;
    font-weight: bold;
    font-family: "Courier New", monospace;
  }
  .nodelabel {
    text-anchor: middle;
  }
  .inputPortLabel {
    text-anchor: end;
  }
  .splitjoinBody {
    fill:#000;
  }</style>
  <g s:type="and" transform="translate(77,258)" s:width="30" s:height="25" id="cell_$auto$aigmap.cc:123:execute$14">
    <s:alias val="$and"/>
    <s:alias val="$logic_and"/>
    <s:alias val="$_AND_"/>
    <path d="M0,0 L0,25 L15,25 A15 12.5 0 0 0 15,0 Z" class="cell_$auto$aigmap.cc:123:execute$14"/>
    <g s:x="0" s:y="5" s:pid="A"/>
    <g s:x="0" s:y="20" s:pid="B"/>
    <g s:x="30" s:y="12.5" s:pid="Y"/>
  </g>
  <g s:type="and" transform="translate(240,314)" s:width="30" s:height="25" id="cell_$auto$aigmap.cc:123:execute$22">
    <s:alias val="$and"/>
    <s:alias val="$logic_and"/>
    <s:alias val="$_AND_"/>
    <path d="M0,0 L0,25 L15,25 A15 12.5 0 0 0 15,0 Z" class="cell_$auto$aigmap.cc:123:execute$22"/>
    <g s:x="0" s:y="5" s:pid="A"/>
    <g s:x="0" s:y="20" s:pid="B"/>
    <g s:x="30" s:y="12.5" s:pid="Y"/>
  </g>
  <g s:type="and" transform="translate(305,208)" s:width="30" s:height="25" id="cell_$auto$aigmap.cc:123:execute$30">
    <s:alias val="$and"/>
    <s:alias val="$logic_and"/>
    <s:alias val="$_AND_"/>
    <path d="M0,0 L0,25 L15,25 A15 12.5 0 0 0 15,0 Z" class="cell_$auto$aigmap.cc:123:execute$30"/>
    <g s:x="0" s:y="5" s:pid="A"/>
    <g s:x="0" s:y="20" s:pid="B"/>
    <g s:x="30" s:y="12.5" s:pid="Y"/>
  </g>
  <g s:type="and" transform="translate(533,160.5)" s:width="30" s:height="25" id="cell_$auto$aigmap.cc:123:execute$38">
    <s:alias val="$and"/>
    <s:alias val="$logic_and"/>
    <s:alias val="$_AND_"/>
    <path d="M0,0 L0,25 L15,25 A15 12.5 0 0 0 15,0 Z" class="cell_$auto$aigmap.cc:123:execute$38"/>
    <g s:x="0" s:y="5" s:pid="A"/>
    <g s:x="0" s:y="20" s:pid="B"/>
    <g s:x="30" s:y="12.5" s:pid="Y"/>
  </g>
  <g s:type="and" transform="translate(598,28)" s:width="30" s:height="25" id="cell_$auto$aigmap.cc:123:execute$46">
    <s:alias val="$and"/>
    <s:alias val="$logic_and"/>
    <s:alias val="$_AND_"/>
    <path d="M0,0 L0,25 L15,25 A15 12.5 0 0 0 15,0 Z" class="cell_$auto$aigmap.cc:123:execute$46"/>
    <g s:x="0" s:y="5" s:pid="A"/>
    <g s:x="0" s:y="20" s:pid="B"/>
    <g s:x="30" s:y="12.5" s:pid="Y"/>
  </g>
  <g s:type="and" transform="translate(598,103)" s:width="30" s:height="25" id="cell_$auto$aigmap.cc:123:execute$50">
    <s:alias val="$and"/>
    <s:alias val="$logic_and"/>
    <s:alias val="$_AND_"/>
    <path d="M0,0 L0,25 L15,25 A15 12.5 0 0 0 15,0 Z" class="cell_$auto$aigmap.cc:123:execute$50"/>
    <g s:x="0" s:y="5" s:pid="A"/>
    <g s:x="0" s:y="20" s:pid="B"/>
    <g s:x="30" s:y="12.5" s:pid="Y"/>
  </g>
  <g s:type="and" transform="translate(728,35.5)" s:width="30" s:height="25" id="cell_$auto$aigmap.cc:123:execute$54">
    <s:alias val="$and"/>
    <s:alias val="$logic_and"/>
    <s:alias val="$_AND_"/>
    <path d="M0,0 L0,25 L15,25 A15 12.5 0 0 0 15,0 Z" class="cell_$auto$aigmap.cc:123:execute$54"/>
    <g s:x="0" s:y="5" s:pid="A"/>
    <g s:x="0" s:y="20" s:pid="B"/>
    <g s:x="30" s:y="12.5" s:pid="Y"/>
  </g>
  <g s:type="not" transform="translate(663,163)" s:width="30" s:height="20" id="cell_$auto$aigmap.cc:132:execute$16">
    <s:alias val="$_NOT_"/>
    <s:alias val="$not"/>
    <s:alias val="$logic_not"/>
    <path d="M0,0 L0,20 L20,10 Z" class="cell_$auto$aigmap.cc:132:execute$16"/>
    <circle cx="23" cy="10" r="3" class="cell_$auto$aigmap.cc:132:execute$16"/>
    <g s:x="0" s:y="10" s:pid="A"/>
    <g s:x="25" s:y="10" s:pid="Y"/>
  </g>
  <g s:type="not" transform="translate(728,313)" s:width="30" s:height="20" id="cell_$auto$aigmap.cc:132:execute$18">
    <s:alias val="$_NOT_"/>
    <s:alias val="$not"/>
    <s:alias val="$logic_not"/>
    <path d="M0,0 L0,20 L20,10 Z" class="cell_$auto$aigmap.cc:132:execute$18"/>
    <circle cx="23" cy="10" r="3" class="cell_$auto$aigmap.cc:132:execute$18"/>
    <g s:x="0" s:y="10" s:pid="A"/>
    <g s:x="25" s:y="10" s:pid="Y"/>
  </g>
  <g s:type="not" transform="translate(158.5,324)" s:width="30" s:height="20" id="cell_$auto$aigmap.cc:132:execute$20">
    <s:alias val="$_NOT_"/>
    <s:alias val="$not"/>
    <s:alias val="$logic_not"/>
    <path d="M0,0 L0,20 L20,10 Z" class="cell_$auto$aigmap.cc:132:execute$20"/>
    <circle cx="23" cy="10" r="3" class="cell_$auto$aigmap.cc:132:execute$20"/>
    <g s:x="0" s:y="10" s:pid="A"/>
    <g s:x="25" s:y="10" s:pid="Y"/>
  </g>
  <g s:type="not" transform="translate(305,316.5)" s:width="30" s:height="20" id="cell_$auto$aigmap.cc:132:execute$24">
    <s:alias val="$_NOT_"/>
    <s:alias val="$not"/>
    <s:alias val="$logic_not"/>
    <path d="M0,0 L0,20 L20,10 Z" class="cell_$auto$aigmap.cc:132:execute$24"/>
    <circle cx="23" cy="10" r="3" class="cell_$auto$aigmap.cc:132:execute$24"/>
    <g s:x="0" s:y="10" s:pid="A"/>
    <g s:x="25" s:y="10" s:pid="Y"/>
  </g>
  <g s:type="not" transform="translate(240,203)" s:width="30" s:height="20" id="cell_$auto$aigmap.cc:132:execute$26">
    <s:alias val="$_NOT_"/>
    <s:alias val="$not"/>
    <s:alias val="$logic_not"/>
    <path d="M0,0 L0,20 L20,10 Z" class="cell_$auto$aigmap.cc:132:execute$26"/>
    <circle cx="23" cy="10" r="3" class="cell_$auto$aigmap.cc:132:execute$26"/>
    <g s:x="0" s:y="10" s:pid="A"/>
    <g s:x="25" s:y="10" s:pid="Y"/>
  </g>
  <g s:type="not" transform="translate(240,258)" s:width="30" s:height="20" id="cell_$auto$aigmap.cc:132:execute$28">
    <s:alias val="$_NOT_"/>
    <s:alias val="$not"/>
    <s:alias val="$logic_not"/>
    <path d="M0,0 L0,20 L20,10 Z" class="cell_$auto$aigmap.cc:132:execute$28"/>
    <circle cx="23" cy="10" r="3" class="cell_$auto$aigmap.cc:132:execute$28"/>
    <g s:x="0" s:y="10" s:pid="A"/>
    <g s:x="25" s:y="10" s:pid="Y"/>
  </g>
  <g s:type="not" transform="translate(386.5,210.5)" s:width="30" s:height="20" id="cell_$auto$aigmap.cc:132:execute$32">
    <s:alias val="$_NOT_"/>
    <s:alias val="$not"/>
    <s:alias val="$logic_not"/>
    <path d="M0,0 L0,20 L20,10 Z" class="cell_$auto$aigmap.cc:132:execute$32"/>
    <circle cx="23" cy="10" r="3" class="cell_$auto$aigmap.cc:132:execute$32"/>
    <g s:x="0" s:y="10" s:pid="A"/>
    <g s:x="25" s:y="10" s:pid="Y"/>
  </g>
  <g s:type="not" transform="translate(468,155.5)" s:width="30" s:height="20" id="cell_$auto$aigmap.cc:132:execute$34">
    <s:alias val="$_NOT_"/>
    <s:alias val="$not"/>
    <s:alias val="$logic_not"/>
    <path d="M0,0 L0,20 L20,10 Z" class="cell_$auto$aigmap.cc:132:execute$34"/>
    <circle cx="23" cy="10" r="3" class="cell_$auto$aigmap.cc:132:execute$34"/>
    <g s:x="0" s:y="10" s:pid="A"/>
    <g s:x="25" s:y="10" s:pid="Y"/>
  </g>
  <g s:type="not" transform="translate(468,210.5)" s:width="30" s:height="20" id="cell_$auto$aigmap.cc:132:execute$36">
    <s:alias val="$_NOT_"/>
    <s:alias val="$not"/>
    <s:alias val="$logic_not"/>
    <path d="M0,0 L0,20 L20,10 Z" class="cell_$auto$aigmap.cc:132:execute$36"/>
    <circle cx="23" cy="10" r="3" class="cell_$auto$aigmap.cc:132:execute$36"/>
    <g s:x="0" s:y="10" s:pid="A"/>
    <g s:x="25" s:y="10" s:pid="Y"/>
  </g>
  <g s:type="not" transform="translate(598,163)" s:width="30" s:height="20" id="cell_$auto$aigmap.cc:132:execute$40">
    <s:alias val="$_NOT_"/>
    <s:alias val="$not"/>
    <s:alias val="$logic_not"/>
    <path d="M0,0 L0,20 L20,10 Z" class="cell_$auto$aigmap.cc:132:execute$40"/>
    <circle cx="23" cy="10" r="3" class="cell_$auto$aigmap.cc:132:execute$40"/>
    <g s:x="0" s:y="10" s:pid="A"/>
    <g s:x="25" s:y="10" s:pid="Y"/>
  </g>
  <g s:type="not" transform="translate(533,23)" s:width="30" s:height="20" id="cell_$auto$aigmap.cc:132:execute$42">
    <s:alias val="$_NOT_"/>
    <s:alias val="$not"/>
    <s:alias val="$logic_not"/>
    <path d="M0,0 L0,20 L20,10 Z" class="cell_$auto$aigmap.cc:132:execute$42"/>
    <circle cx="23" cy="10" r="3" class="cell_$auto$aigmap.cc:132:execute$42"/>
    <g s:x="0" s:y="10" s:pid="A"/>
    <g s:x="25" s:y="10" s:pid="Y"/>
  </g>
  <g s:type="not" transform="translate(533,78)" s:width="30" s:height="20" id="cell_$auto$aigmap.cc:132:execute$44">
    <s:alias val="$_NOT_"/>
    <s:alias val="$not"/>
    <s:alias val="$logic_not"/>
    <path d="M0,0 L0,20 L20,10 Z" class="cell_$auto$aigmap.cc:132:execute$44"/>
    <circle cx="23" cy="10" r="3" class="cell_$auto$aigmap.cc:132:execute$44"/>
    <g s:x="0" s:y="10" s:pid="A"/>
    <g s:x="25" s:y="10" s:pid="Y"/>
  </g>
  <g s:type="not" transform="translate(663,30.5)" s:width="30" s:height="20" id="cell_$auto$aigmap.cc:132:execute$48">
    <s:alias val="$_NOT_"/>
    <s:alias val="$not"/>
    <s:alias val="$logic_not"/>
    <path d="M0,0 L0,20 L20,10 Z" class="cell_$auto$aigmap.cc:132:execute$48"/>
    <circle cx="23" cy="10" r="3" class="cell_$auto$aigmap.cc:132:execute$48"/>
    <g s:x="0" s:y="10" s:pid="A"/>
    <g s:x="25" s:y="10" s:pid="Y"/>
  </g>
  <g s:type="not" transform="translate(663,105.5)" s:width="30" s:height="20" id="cell_$auto$aigmap.cc:132:execute$52">
    <s:alias val="$_NOT_"/>
    <s:alias val="$not"/>
    <s:alias val="$logic_not"/>
    <path d="M0,0 L0,20 L20,10 Z" class="cell_$auto$aigmap.cc:132:execute$52"/>
    <circle cx="23" cy="10" r="3" class="cell_$auto$aigmap.cc:132:execute$52"/>
    <g s:x="0" s:y="10" s:pid="A"/>
    <g s:x="25" s:y="10" s:pid="Y"/>
  </g>
  <g s:type="generic" transform="translate(161,112.5)" s:width="30" s:height="40" id="cell_dff1">
    <text x="15" y="-4" class="nodelabel cell_dff1" s:attribute="ref">my_dff</text>
    <rect width="30" height="40" s:generic="body" class="cell_dff1"/>
    <g transform="translate(0,10)" s:x="0" s:y="10" s:pid="in0" id="port_dff1~clk">
      <text x="-3" y="-4" class="inputPortLabel cell_dff1">clk</text>
    </g>
    <g transform="translate(0,30)" s:x="0" s:y="10" s:pid="in0" id="port_dff1~d">
      <text x="-3" y="-4" class="inputPortLabel cell_dff1">d</text>
    </g>
    <g transform="translate(30,10)" s:x="30" s:y="10" s:pid="out0" id="port_dff1~q">
      <text x="5" y="-4" style="fill:#000; stroke:none" class="cell_dff1">q</text>
    </g>
    <g transform="translate(30,30)" s:x="30" s:y="10" s:pid="out0" id="port_dff1~qn">
      <text x="5" y="-4" style="fill:#000; stroke:none" class="cell_dff1">qn</text>
    </g>
  </g>
  <g s:type="generic" transform="translate(161,202.5)" s:width="30" s:height="40" id="cell_dff2">
    <text x="15" y="-4" class="nodelabel cell_dff2" s:attribute="ref">my_dff</text>
    <rect width="30" height="40" s:generic="body" class="cell_dff2"/>
    <g transform="translate(0,10)" s:x="0" s:y="10" s:pid="in0" id="port_dff2~clk">
      <text x="-3" y="-4" class="inputPortLabel cell_dff2">clk</text>
    </g>
    <g transform="translate(0,30)" s:x="0" s:y="10" s:pid="in0" id="port_dff2~d">
      <text x="-3" y="-4" class="inputPortLabel cell_dff2">d</text>
    </g>
    <g transform="translate(30,10)" s:x="30" s:y="10" s:pid="out0" id="port_dff2~q">
      <text x="5" y="-4" style="fill:#000; stroke:none" class="cell_dff2">q</text>
    </g>
    <g transform="translate(30,30)" s:x="30" s:y="10" s:pid="out0" id="port_dff2~qn">
      <text x="5" y="-4" style="fill:#000; stroke:none" class="cell_dff2">qn</text>
    </g>
  </g>
  <g s:type="generic" transform="translate(389,292.5)" s:width="30" s:height="40" id="cell_dff3">
    <text x="15" y="-4" class="nodelabel cell_dff3" s:attribute="ref">my_dff</text>
    <rect width="30" height="40" s:generic="body" class="cell_dff3"/>
    <g transform="translate(0,10)" s:x="0" s:y="10" s:pid="in0" id="port_dff3~clk">
      <text x="-3" y="-4" class="inputPortLabel cell_dff3">clk</text>
    </g>
    <g transform="translate(0,30)" s:x="0" s:y="10" s:pid="in0" id="port_dff3~d">
      <text x="-3" y="-4" class="inputPortLabel cell_dff3">d</text>
    </g>
    <g transform="translate(30,10)" s:x="30" s:y="10" s:pid="out0" id="port_dff3~q">
      <text x="5" y="-4" style="fill:#000; stroke:none" class="cell_dff3">q</text>
    </g>
    <g transform="translate(30,30)" s:x="30" s:y="10" s:pid="out0" id="port_dff3~qn">
      <text x="5" y="-4" style="fill:#000; stroke:none" class="cell_dff3">qn</text>
    </g>
  </g>
  <g s:type="inputExt" transform="translate(77,203)" s:width="30" s:height="20" id="cell_clk">
    <text x="15" y="-4" class="nodelabel cell_clk" s:attribute="ref">clk</text>
    <s:alias val="$_inputExt_"/>
    <path d="M0,0 L0,20 L15,20 L30,10 L15,0 Z" class="cell_clk"/>
    <g s:x="28" s:y="10" s:pid="Y"/>
  </g>
  <g s:type="inputExt" transform="translate(12,78)" s:width="30" s:height="20" id="cell_x">
    <text x="15" y="-4" class="nodelabel cell_x" s:attribute="ref">x</text>
    <s:alias val="$_inputExt_"/>
    <path d="M0,0 L0,20 L15,20 L30,10 L15,0 Z" class="cell_x"/>
    <g s:x="28" s:y="10" s:pid="Y"/>
  </g>
  <g s:type="outputExt" transform="translate(728,163)" s:width="30" s:height="20" id="cell_z">
    <text x="15" y="-4" class="nodelabel cell_z" s:attribute="ref">z</text>
    <s:alias val="$_outputExt_"/>
    <path d="M30,0 L30,20 L15,20 L0,10 L15,0 Z" class="cell_z"/>
    <g s:x="0" s:y="10" s:pid="A"/>
  </g>
  <line x1="40" x2="52" y1="88" y2="88" class="net_3"/>
  <line x1="52" x2="52" y1="88" y2="263" class="net_3"/>
  <circle cx="52" cy="88" r="2" style="fill:#000" class="net_3"/>
  <circle cx="52" cy="263" r="2" style="fill:#000" class="net_3"/>
  <line x1="52" x2="77" y1="263" y2="263" class="net_3"/>
  <line x1="40" x2="508" y1="88" y2="88" class="net_3"/>
  <line x1="508" x2="508" y1="88" y2="108" class="net_3"/>
  <circle cx="508" cy="88" r="2" style="fill:#000" class="net_3"/>
  <line x1="508" x2="598" y1="108" y2="108" class="net_3"/>
  <line x1="40" x2="52" y1="88" y2="88" class="net_3"/>
  <line x1="52" x2="52" y1="88" y2="334" class="net_3"/>
  <line x1="52" x2="158.5" y1="334" y2="334" class="net_3"/>
  <line x1="40" x2="533" y1="88" y2="88" class="net_3"/>
  <line x1="192" x2="215" y1="233" y2="233" class="net_5"/>
  <line x1="215" x2="215" y1="233" y2="293" class="net_5"/>
  <line x1="215" x2="62" y1="293" y2="293" class="net_5"/>
  <line x1="62" x2="62" y1="293" y2="278" class="net_5"/>
  <line x1="62" x2="77" y1="278" y2="278" class="net_5"/>
  <line x1="753" x2="768" y1="323" y2="323" class="net_7"/>
  <line x1="768" x2="768" y1="323" y2="349" class="net_7"/>
  <line x1="768" x2="225" y1="349" y2="349" class="net_7"/>
  <line x1="225" x2="225" y1="349" y2="319" class="net_7"/>
  <line x1="225" x2="240" y1="319" y2="319" class="net_7"/>
  <line x1="183.5" x2="240" y1="334" y2="334" class="net_8"/>
  <line x1="265" x2="305" y1="213" y2="213" class="net_10"/>
  <line x1="265" x2="280" y1="268" y2="268" class="net_11"/>
  <line x1="280" x2="280" y1="268" y2="228" class="net_11"/>
  <line x1="280" x2="305" y1="228" y2="228" class="net_11"/>
  <line x1="493" x2="533" y1="165.5" y2="165.5" class="net_13"/>
  <line x1="493" x2="508" y1="220.5" y2="220.5" class="net_14"/>
  <line x1="508" x2="508" y1="220.5" y2="180.5" class="net_14"/>
  <line x1="508" x2="533" y1="180.5" y2="180.5" class="net_14"/>
  <line x1="558" x2="598" y1="33" y2="33" class="net_16"/>
  <line x1="558" x2="573" y1="88" y2="88" class="net_17"/>
  <line x1="573" x2="573" y1="88" y2="48" class="net_17"/>
  <line x1="573" x2="598" y1="48" y2="48" class="net_17"/>
  <line x1="192" x2="598" y1="123" y2="123" class="net_19"/>
  <line x1="192" x2="225" y1="123" y2="123" class="net_19"/>
  <line x1="225" x2="225" y1="123" y2="268" class="net_19"/>
  <circle cx="225" cy="123" r="2" style="fill:#000" class="net_19"/>
  <line x1="225" x2="240" y1="268" y2="268" class="net_19"/>
  <line x1="192" x2="225" y1="123" y2="123" class="net_19"/>
  <line x1="225" x2="225" y1="123" y2="33" class="net_19"/>
  <line x1="225" x2="533" y1="33" y2="33" class="net_19"/>
  <line x1="688" x2="728" y1="40.5" y2="40.5" class="net_21"/>
  <line x1="688" x2="703" y1="115.5" y2="115.5" class="net_22"/>
  <line x1="703" x2="703" y1="115.5" y2="55.5" class="net_22"/>
  <line x1="703" x2="728" y1="55.5" y2="55.5" class="net_22"/>
  <line x1="623" x2="663" y1="173" y2="173" class="net_24"/>
  <line x1="420" x2="728" y1="323" y2="323" class="net_25"/>
  <line x1="270" x2="305" y1="326.5" y2="326.5" class="net_9"/>
  <line x1="192" x2="240" y1="213" y2="213" class="net_27"/>
  <line x1="335" x2="386.5" y1="220.5" y2="220.5" class="net_12"/>
  <line x1="420" x2="443" y1="303" y2="303" class="net_29"/>
  <line x1="443" x2="443" y1="303" y2="165.5" class="net_29"/>
  <line x1="443" x2="468" y1="165.5" y2="165.5" class="net_29"/>
  <line x1="411.5" x2="468" y1="220.5" y2="220.5" class="net_28"/>
  <line x1="563" x2="598" y1="173" y2="173" class="net_15"/>
  <line x1="628" x2="663" y1="40.5" y2="40.5" class="net_18"/>
  <line x1="628" x2="663" y1="115.5" y2="115.5" class="net_20"/>
  <line x1="105" x2="127" y1="213" y2="213" class="net_2"/>
  <line x1="127" x2="127" y1="213" y2="123" class="net_2"/>
  <circle cx="127" cy="213" r="2" style="fill:#000" class="net_2"/>
  <line x1="127" x2="161" y1="123" y2="123" class="net_2"/>
  <line x1="105" x2="161" y1="213" y2="213" class="net_2"/>
  <line x1="105" x2="127" y1="213" y2="213" class="net_2"/>
  <line x1="127" x2="127" y1="213" y2="303" class="net_2"/>
  <line x1="127" x2="389" y1="303" y2="303" class="net_2"/>
  <line x1="758" x2="768" y1="48" y2="48" class="net_23"/>
  <line x1="768" x2="768" y1="48" y2="12" class="net_23"/>
  <line x1="768" x2="117" y1="12" y2="12" class="net_23"/>
  <line x1="117" x2="117" y1="12" y2="143" class="net_23"/>
  <line x1="117" x2="161" y1="143" y2="143" class="net_23"/>
  <line x1="107" x2="117" y1="270.5" y2="270.5" class="net_6"/>
  <line x1="117" x2="117" y1="270.5" y2="233" class="net_6"/>
  <line x1="117" x2="161" y1="233" y2="233" class="net_6"/>
  <line x1="330" x2="345" y1="326.5" y2="326.5" class="net_26"/>
  <line x1="345" x2="345" y1="326.5" y2="323" class="net_26"/>
  <line x1="345" x2="389" y1="323" y2="323" class="net_26"/>
  <line x1="688" x2="728" y1="173" y2="173" class="net_4"/>
</svg>
