<?xml version="1.0" encoding="UTF-8" standalone="no"?>
<!DOCTYPE svg PUBLIC "-//W3C//DTD SVG 1.1//EN"
 "http://www.w3.org/Graphics/SVG/1.1/DTD/svg11.dtd">
<!-- Generated by graphviz version 4.0.0 (20220529.0937)
 -->
<!-- Title: top_module Pages: 1 -->
<svg width="849pt" height="526pt"
 viewBox="0.00 0.00 849.08 526.35" xmlns="http://www.w3.org/2000/svg" xmlns:xlink="http://www.w3.org/1999/xlink">
<g id="graph0" class="graph" transform="scale(1 1) rotate(0) translate(4 522.35)">
<title>top_module</title>
<polygon fill="white" stroke="transparent" points="-4,4 -4,-522.35 845.08,-522.35 845.08,4 -4,4"/>
<text text-anchor="middle" x="420.54" y="-7.8" font-family="Times New Roman,serif" font-size="14.00">top_module</text>
<!-- n4 -->
<g id="node1" class="node">
<title>n4</title>
<polygon fill="none" stroke="black" points="54,-291.91 54,-306.82 38.18,-317.37 15.82,-317.37 0,-306.82 0,-291.91 15.82,-281.37 38.18,-281.37 54,-291.91"/>
<text text-anchor="middle" x="27" y="-295.67" font-family="Times New Roman,serif" font-size="14.00">clk</text>
</g>
<!-- c28 -->
<g id="node5" class="node">
<title>c28</title>
<polygon fill="none" stroke="black" points="90,-264.37 90,-310.37 212,-310.37 212,-264.37 90,-264.37"/>
<text text-anchor="middle" x="106.5" y="-295.17" font-family="Times New Roman,serif" font-size="14.00">clk</text>
<polyline fill="none" stroke="black" points="90,-287.37 123,-287.37 "/>
<text text-anchor="middle" x="106.5" y="-272.17" font-family="Times New Roman,serif" font-size="14.00">d</text>
<polyline fill="none" stroke="black" points="123,-264.37 123,-310.37 "/>
<text text-anchor="middle" x="152" y="-291.17" font-family="Times New Roman,serif" font-size="14.00">dff2</text>
<text text-anchor="middle" x="152" y="-276.17" font-family="Times New Roman,serif" font-size="14.00">my_dff</text>
<polyline fill="none" stroke="black" points="181,-264.37 181,-310.37 "/>
<text text-anchor="middle" x="196.5" y="-295.17" font-family="Times New Roman,serif" font-size="14.00">q</text>
<polyline fill="none" stroke="black" points="181,-287.37 212,-287.37 "/>
<text text-anchor="middle" x="196.5" y="-272.17" font-family="Times New Roman,serif" font-size="14.00">qn</text>
</g>
<!-- n4&#45;&gt;c28 -->
<g id="edge3" class="edge">
<title>n4:e&#45;&gt;c28:w</title>
<path fill="none" stroke="#d95f02" d="M54,-299.37C66,-299.37 71.25,-299.37 79.88,-299.37"/>
<polygon fill="#d95f02" stroke="#d95f02" points="80,-302.87 90,-299.37 80,-295.87 80,-302.87"/>
</g>
<!-- c27 -->
<g id="node6" class="node">
<title>c27</title>
<polygon fill="none" stroke="black" points="90,-453.37 90,-499.37 212,-499.37 212,-453.37 90,-453.37"/>
<text text-anchor="middle" x="106.5" y="-484.17" font-family="Times New Roman,serif" font-size="14.00">clk</text>
<polyline fill="none" stroke="black" points="90,-476.37 123,-476.37 "/>
<text text-anchor="middle" x="106.5" y="-461.17" font-family="Times New Roman,serif" font-size="14.00">d</text>
<polyline fill="none" stroke="black" points="123,-453.37 123,-499.37 "/>
<text text-anchor="middle" x="152" y="-480.17" font-family="Times New Roman,serif" font-size="14.00">dff1</text>
<text text-anchor="middle" x="152" y="-465.17" font-family="Times New Roman,serif" font-size="14.00">my_dff</text>
<polyline fill="none" stroke="black" points="181,-453.37 181,-499.37 "/>
<text text-anchor="middle" x="196.5" y="-484.17" font-family="Times New Roman,serif" font-size="14.00">q</text>
<polyline fill="none" stroke="black" points="181,-476.37 212,-476.37 "/>
<text text-anchor="middle" x="196.5" y="-461.17" font-family="Times New Roman,serif" font-size="14.00">qn</text>
</g>
<!-- n4&#45;&gt;c27 -->
<g id="edge2" class="edge">
<title>n4:e&#45;&gt;c27:w</title>
<path fill="none" stroke="#d95f02" d="M54,-299.37C135.67,-299.37 16.18,-471.77 79.77,-487.26"/>
<polygon fill="#d95f02" stroke="#d95f02" points="79.68,-490.77 90,-488.37 80.44,-483.81 79.68,-490.77"/>
</g>
<!-- c29 -->
<g id="node7" class="node">
<title>c29</title>
<polygon fill="none" stroke="black" points="90,-187.37 90,-233.37 212,-233.37 212,-187.37 90,-187.37"/>
<text text-anchor="middle" x="106.5" y="-218.17" font-family="Times New Roman,serif" font-size="14.00">clk</text>
<polyline fill="none" stroke="black" points="90,-210.37 123,-210.37 "/>
<text text-anchor="middle" x="106.5" y="-195.17" font-family="Times New Roman,serif" font-size="14.00">d</text>
<polyline fill="none" stroke="black" points="123,-187.37 123,-233.37 "/>
<text text-anchor="middle" x="152" y="-214.17" font-family="Times New Roman,serif" font-size="14.00">dff3</text>
<text text-anchor="middle" x="152" y="-199.17" font-family="Times New Roman,serif" font-size="14.00">my_dff</text>
<polyline fill="none" stroke="black" points="181,-187.37 181,-233.37 "/>
<text text-anchor="middle" x="196.5" y="-218.17" font-family="Times New Roman,serif" font-size="14.00">q</text>
<polyline fill="none" stroke="black" points="181,-210.37 212,-210.37 "/>
<text text-anchor="middle" x="196.5" y="-195.17" font-family="Times New Roman,serif" font-size="14.00">qn</text>
</g>
<!-- n4&#45;&gt;c29 -->
<g id="edge4" class="edge">
<title>n4:e&#45;&gt;c29:w</title>
<path fill="none" stroke="#d95f02" d="M54,-299.37C87.65,-299.37 59.95,-238.29 80.18,-224.93"/>
<polygon fill="#d95f02" stroke="#d95f02" points="81.21,-228.28 90,-222.37 79.44,-221.5 81.21,-228.28"/>
</g>
<!-- n12 -->
<g id="node2" class="node">
<title>n12</title>
<polygon fill="none" stroke="black" points="54,-137.91 54,-152.82 38.18,-163.37 15.82,-163.37 0,-152.82 0,-137.91 15.82,-127.37 38.18,-127.37 54,-137.91"/>
<text text-anchor="middle" x="27" y="-141.67" font-family="Times New Roman,serif" font-size="14.00">x</text>
</g>
<!-- c23 -->
<g id="node10" class="node">
<title>c23</title>
<polygon fill="none" stroke="black" points="401.53,-386.37 401.53,-432.37 495.53,-432.37 495.53,-386.37 401.53,-386.37"/>
<text text-anchor="middle" x="414.53" y="-417.17" font-family="Times New Roman,serif" font-size="14.00">A</text>
<polyline fill="none" stroke="black" points="401.53,-409.37 427.53,-409.37 "/>
<text text-anchor="middle" x="414.53" y="-394.17" font-family="Times New Roman,serif" font-size="14.00">B</text>
<polyline fill="none" stroke="black" points="427.53,-386.37 427.53,-432.37 "/>
<text text-anchor="middle" x="448.53" y="-413.17" font-family="Times New Roman,serif" font-size="14.00">$1</text>
<text text-anchor="middle" x="448.53" y="-398.17" font-family="Times New Roman,serif" font-size="14.00">$xor</text>
<polyline fill="none" stroke="black" points="469.53,-386.37 469.53,-432.37 "/>
<text text-anchor="middle" x="482.53" y="-405.67" font-family="Times New Roman,serif" font-size="14.00">Y</text>
</g>
<!-- n12&#45;&gt;c23 -->
<g id="edge14" class="edge">
<title>n12:e&#45;&gt;c23:w</title>
<path fill="none" stroke="#d95f02" d="M54,-145.37C133.41,-145.37 42.1,-257.03 90,-320.37 175.49,-433.41 251.74,-421.99 390.43,-421.39"/>
<polygon fill="#d95f02" stroke="#d95f02" points="390.54,-424.89 400.53,-421.37 390.52,-417.89 390.54,-424.89"/>
</g>
<!-- c18 -->
<g id="node14" class="node">
<title>c18</title>
<polygon fill="none" stroke="black" points="400.53,-146.37 400.53,-192.37 496.53,-192.37 496.53,-146.37 400.53,-146.37"/>
<text text-anchor="middle" x="413.53" y="-177.17" font-family="Times New Roman,serif" font-size="14.00">A</text>
<polyline fill="none" stroke="black" points="400.53,-169.37 426.53,-169.37 "/>
<text text-anchor="middle" x="413.53" y="-154.17" font-family="Times New Roman,serif" font-size="14.00">B</text>
<polyline fill="none" stroke="black" points="426.53,-146.37 426.53,-192.37 "/>
<text text-anchor="middle" x="448.53" y="-173.17" font-family="Times New Roman,serif" font-size="14.00">$2</text>
<text text-anchor="middle" x="448.53" y="-158.17" font-family="Times New Roman,serif" font-size="14.00">$and</text>
<polyline fill="none" stroke="black" points="470.53,-146.37 470.53,-192.37 "/>
<text text-anchor="middle" x="483.53" y="-165.67" font-family="Times New Roman,serif" font-size="14.00">Y</text>
</g>
<!-- n12&#45;&gt;c18 -->
<g id="edge12" class="edge">
<title>n12:e&#45;&gt;c18:w</title>
<path fill="none" stroke="#d95f02" d="M54,-145.37C191.14,-145.37 228.88,-131.32 361.98,-164.37 375.87,-167.81 379.79,-176.25 389.58,-179.78"/>
<polygon fill="#d95f02" stroke="#d95f02" points="389.1,-183.24 399.53,-181.37 390.21,-176.33 389.1,-183.24"/>
</g>
<!-- c20 -->
<g id="node18" class="node">
<title>c20</title>
<polygon fill="none" stroke="black" points="405.03,-32.37 405.03,-78.37 492.03,-78.37 492.03,-32.37 405.03,-32.37"/>
<text text-anchor="middle" x="418.03" y="-63.17" font-family="Times New Roman,serif" font-size="14.00">A</text>
<polyline fill="none" stroke="black" points="405.03,-55.37 431.03,-55.37 "/>
<text text-anchor="middle" x="418.03" y="-40.17" font-family="Times New Roman,serif" font-size="14.00">B</text>
<polyline fill="none" stroke="black" points="431.03,-32.37 431.03,-78.37 "/>
<text text-anchor="middle" x="448.53" y="-59.17" font-family="Times New Roman,serif" font-size="14.00">$3</text>
<text text-anchor="middle" x="448.53" y="-44.17" font-family="Times New Roman,serif" font-size="14.00">$or</text>
<polyline fill="none" stroke="black" points="466.03,-32.37 466.03,-78.37 "/>
<text text-anchor="middle" x="479.03" y="-51.67" font-family="Times New Roman,serif" font-size="14.00">Y</text>
</g>
<!-- n12&#45;&gt;c20 -->
<g id="edge13" class="edge">
<title>n12:e&#45;&gt;c20:w</title>
<path fill="none" stroke="#d95f02" d="M54,-145.37C103.67,-145.37 200,-47.13 248,-34.37 296.96,-21.35 314.15,-17.68 361.98,-34.37 380.42,-40.8 380.64,-59.21 393.56,-65.35"/>
<polygon fill="#d95f02" stroke="#d95f02" points="393.03,-68.81 403.53,-67.37 394.42,-61.95 393.03,-68.81"/>
</g>
<!-- n14 -->
<g id="node3" class="node">
<title>n14</title>
<polygon fill="none" stroke="black" points="841.08,-273.91 841.08,-288.82 825.27,-299.37 802.9,-299.37 787.08,-288.82 787.08,-273.91 802.9,-263.37 825.27,-263.37 841.08,-273.91"/>
<text text-anchor="middle" x="814.08" y="-277.67" font-family="Times New Roman,serif" font-size="14.00">z</text>
</g>
<!-- n3 -->
<g id="node4" class="node">
<title>n3</title>
<polygon fill="none" stroke="black" points="578.58,-193.37 535.18,-175.37 578.58,-157.37 621.98,-175.37 578.58,-193.37"/>
<text text-anchor="middle" x="578.58" y="-171.67" font-family="Times New Roman,serif" font-size="14.00">and_i</text>
</g>
<!-- n3&#45;&gt;c28 -->
<g id="edge1" class="edge">
<title>n3:e&#45;&gt;c28:w</title>
<path fill="none" stroke="#e6ab02" d="M623.58,-175.37C631.6,-175.37 626.96,-186.65 622.58,-193.37 588.95,-245 558.86,-241.42 499.08,-256.37 454.98,-267.39 123.23,-232.84 90,-263.87 89.53,-264.3 89.08,-264.81 88.67,-265.37"/>
<polygon fill="#e6ab02" stroke="#e6ab02" points="85.17,-265.49 89,-275.37 92.17,-265.26 85.17,-265.49"/>
</g>
<!-- n7 -->
<g id="node12" class="node">
<title>n7</title>
<polygon fill="none" stroke="black" points="304.99,-339.37 254.38,-321.37 304.99,-303.37 355.6,-321.37 304.99,-339.37"/>
<text text-anchor="middle" x="304.99" y="-317.67" font-family="Times New Roman,serif" font-size="14.00">dff2_q</text>
</g>
<!-- c28&#45;&gt;n7 -->
<g id="edge24" class="edge">
<title>c28:e&#45;&gt;n7:w</title>
<path fill="none" stroke="#1b9e77" d="M212,-299.37C228.64,-299.37 231.65,-313.61 242.97,-319.18"/>
<polygon fill="#1b9e77" stroke="#1b9e77" points="242.47,-322.65 252.99,-321.37 243.97,-315.81 242.47,-322.65"/>
</g>
<!-- n8 -->
<g id="node13" class="node">
<title>n8</title>
<polygon fill="none" stroke="black" points="304.99,-209.37 248.01,-191.37 304.99,-173.37 361.96,-191.37 304.99,-209.37"/>
<text text-anchor="middle" x="304.99" y="-187.67" font-family="Times New Roman,serif" font-size="14.00">dff2_qn</text>
</g>
<!-- c28&#45;&gt;n8 -->
<g id="edge25" class="edge">
<title>c28:e&#45;&gt;n8:w</title>
<path fill="none" stroke="#1b9e77" d="M212,-275.37C248.49,-275.37 215.69,-207.56 238.1,-193.79"/>
<polygon fill="#1b9e77" stroke="#1b9e77" points="239.12,-197.14 248,-191.37 237.45,-190.34 239.12,-197.14"/>
</g>
<!-- n5 -->
<g id="node8" class="node">
<title>n5</title>
<polygon fill="none" stroke="black" points="304.99,-393.37 254.38,-375.37 304.99,-357.37 355.6,-375.37 304.99,-393.37"/>
<text text-anchor="middle" x="304.99" y="-371.67" font-family="Times New Roman,serif" font-size="14.00">dff1_q</text>
</g>
<!-- c27&#45;&gt;n5 -->
<g id="edge22" class="edge">
<title>c27:e&#45;&gt;n5:w</title>
<path fill="none" stroke="#d95f02" d="M212,-488.37C261.46,-488.37 208.68,-391.52 242.97,-377.14"/>
<polygon fill="#d95f02" stroke="#d95f02" points="243.75,-380.56 252.99,-375.37 242.53,-373.66 243.75,-380.56"/>
</g>
<!-- n6 -->
<g id="node11" class="node">
<title>n6</title>
<polygon fill="none" stroke="black" points="304.99,-485.37 248.01,-467.37 304.99,-449.37 361.96,-467.37 304.99,-485.37"/>
<text text-anchor="middle" x="304.99" y="-463.67" font-family="Times New Roman,serif" font-size="14.00">dff1_qn</text>
</g>
<!-- c27&#45;&gt;n6 -->
<g id="edge23" class="edge">
<title>c27:e&#45;&gt;n6:w</title>
<path fill="none" stroke="#d95f02" d="M212,-464.37C224.04,-464.37 229.24,-466.05 237.86,-466.9"/>
<polygon fill="#d95f02" stroke="#d95f02" points="237.85,-470.4 248,-467.37 238.17,-463.41 237.85,-470.4"/>
</g>
<!-- n9 -->
<g id="node15" class="node">
<title>n9</title>
<polygon fill="none" stroke="black" points="448.53,-247.37 397.92,-229.37 448.53,-211.37 499.14,-229.37 448.53,-247.37"/>
<text text-anchor="middle" x="448.53" y="-225.67" font-family="Times New Roman,serif" font-size="14.00">dff3_q</text>
</g>
<!-- c29&#45;&gt;n9 -->
<g id="edge26" class="edge">
<title>c29:e&#45;&gt;n9:w</title>
<path fill="none" stroke="#7570b3" d="M212,-222.37C291.16,-222.37 313.38,-228.78 387.65,-229.33"/>
<polygon fill="#7570b3" stroke="#7570b3" points="387.96,-232.83 397.98,-229.37 387.99,-225.83 387.96,-232.83"/>
</g>
<!-- n10 -->
<g id="node17" class="node">
<title>n10</title>
<polygon fill="none" stroke="black" points="304.99,-79.37 248.01,-61.37 304.99,-43.37 361.96,-61.37 304.99,-79.37"/>
<text text-anchor="middle" x="304.99" y="-57.67" font-family="Times New Roman,serif" font-size="14.00">dff3_qn</text>
</g>
<!-- c29&#45;&gt;n10 -->
<g id="edge27" class="edge">
<title>c29:e&#45;&gt;n10:w</title>
<path fill="none" stroke="#e7298a" d="M212,-198.37C271.02,-198.37 195.69,-77.96 237.91,-62.9"/>
<polygon fill="#e7298a" stroke="#e7298a" points="238.64,-66.33 248,-61.37 237.59,-59.41 238.64,-66.33"/>
</g>
<!-- c21 -->
<g id="node9" class="node">
<title>c21</title>
<polygon fill="none" stroke="black" points="405.03,-310.37 405.03,-356.37 492.03,-356.37 492.03,-310.37 405.03,-310.37"/>
<text text-anchor="middle" x="418.03" y="-341.17" font-family="Times New Roman,serif" font-size="14.00">A</text>
<polyline fill="none" stroke="black" points="405.03,-333.37 431.03,-333.37 "/>
<text text-anchor="middle" x="418.03" y="-318.17" font-family="Times New Roman,serif" font-size="14.00">B</text>
<polyline fill="none" stroke="black" points="431.03,-310.37 431.03,-356.37 "/>
<text text-anchor="middle" x="448.53" y="-337.17" font-family="Times New Roman,serif" font-size="14.00">$4</text>
<text text-anchor="middle" x="448.53" y="-322.17" font-family="Times New Roman,serif" font-size="14.00">$or</text>
<polyline fill="none" stroke="black" points="466.03,-310.37 466.03,-356.37 "/>
<text text-anchor="middle" x="479.03" y="-329.67" font-family="Times New Roman,serif" font-size="14.00">Y</text>
</g>
<!-- n5&#45;&gt;c21 -->
<g id="edge5" class="edge">
<title>n5:e&#45;&gt;c21:w</title>
<path fill="none" stroke="#d95f02" d="M356.99,-375.37C377.56,-375.37 379.06,-354.4 393.38,-347.52"/>
<polygon fill="#d95f02" stroke="#d95f02" points="394.48,-350.87 403.53,-345.37 393.02,-344.02 394.48,-350.87"/>
</g>
<!-- n5&#45;&gt;c23 -->
<g id="edge6" class="edge">
<title>n5:e&#45;&gt;c23:w</title>
<path fill="none" stroke="#d95f02" d="M356.99,-375.37C374.77,-375.37 378.09,-390.17 390.67,-395.49"/>
<polygon fill="#d95f02" stroke="#d95f02" points="390.05,-398.93 400.53,-397.37 391.36,-392.06 390.05,-398.93"/>
</g>
<!-- c22 -->
<g id="node16" class="node">
<title>c22</title>
<polygon fill="none" stroke="black" points="535.08,-258.37 535.08,-304.37 622.08,-304.37 622.08,-258.37 535.08,-258.37"/>
<text text-anchor="middle" x="548.08" y="-289.17" font-family="Times New Roman,serif" font-size="14.00">A</text>
<polyline fill="none" stroke="black" points="535.08,-281.37 561.08,-281.37 "/>
<text text-anchor="middle" x="548.08" y="-266.17" font-family="Times New Roman,serif" font-size="14.00">B</text>
<polyline fill="none" stroke="black" points="561.08,-258.37 561.08,-304.37 "/>
<text text-anchor="middle" x="578.58" y="-285.17" font-family="Times New Roman,serif" font-size="14.00">$5</text>
<text text-anchor="middle" x="578.58" y="-270.17" font-family="Times New Roman,serif" font-size="14.00">$or</text>
<polyline fill="none" stroke="black" points="596.08,-258.37 596.08,-304.37 "/>
<text text-anchor="middle" x="609.08" y="-277.67" font-family="Times New Roman,serif" font-size="14.00">Y</text>
</g>
<!-- c21&#45;&gt;c22 -->
<g id="edge19" class="edge">
<title>c21:e&#45;&gt;c22:w</title>
<path fill="none" stroke="#e7298a" d="M493.53,-333.37C515.16,-333.37 511.62,-304.89 525.39,-295.99"/>
<polygon fill="#e7298a" stroke="#e7298a" points="526.34,-299.36 535.08,-293.37 524.52,-292.6 526.34,-299.36"/>
</g>
<!-- n13 -->
<g id="node20" class="node">
<title>n13</title>
<polygon fill="none" stroke="black" points="578.58,-479.37 536.52,-461.37 578.58,-443.37 620.65,-461.37 578.58,-479.37"/>
<text text-anchor="middle" x="578.58" y="-457.67" font-family="Times New Roman,serif" font-size="14.00">xor_i</text>
</g>
<!-- c23&#45;&gt;n13 -->
<g id="edge21" class="edge">
<title>c23:e&#45;&gt;n13:w</title>
<path fill="none" stroke="#1b9e77" d="M496.53,-409.37C521.37,-409.37 511.01,-447.77 525.95,-458.57"/>
<polygon fill="#1b9e77" stroke="#1b9e77" points="525,-461.94 535.58,-461.37 526.95,-455.22 525,-461.94"/>
</g>
<!-- n7&#45;&gt;c21 -->
<g id="edge7" class="edge">
<title>n7:e&#45;&gt;c21:w</title>
<path fill="none" stroke="#1b9e77" d="M356.99,-321.37C373.79,-321.37 380.36,-321.37 393.33,-321.37"/>
<polygon fill="#1b9e77" stroke="#1b9e77" points="393.53,-324.87 403.53,-321.37 393.53,-317.87 393.53,-324.87"/>
</g>
<!-- n8&#45;&gt;c18 -->
<g id="edge8" class="edge">
<title>n8:e&#45;&gt;c18:w</title>
<path fill="none" stroke="#1b9e77" d="M361.98,-191.37C380.44,-191.37 378.73,-168.49 389.95,-160.26"/>
<polygon fill="#1b9e77" stroke="#1b9e77" points="390.97,-163.61 399.53,-157.37 388.94,-156.91 390.97,-163.61"/>
</g>
<!-- c18&#45;&gt;n3 -->
<g id="edge16" class="edge">
<title>c18:e&#45;&gt;n3:w</title>
<path fill="none" stroke="#e6ab02" d="M497.53,-169.37C510.47,-169.37 515.7,-172.88 525.03,-174.53"/>
<polygon fill="#e6ab02" stroke="#e6ab02" points="524.83,-178.03 535.08,-175.37 525.41,-171.05 524.83,-178.03"/>
</g>
<!-- n9&#45;&gt;c22 -->
<g id="edge9" class="edge">
<title>n9:e&#45;&gt;c22:w</title>
<path fill="none" stroke="#7570b3" d="M499.08,-229.37C518.89,-229.37 514.18,-256.8 525.56,-266.23"/>
<polygon fill="#7570b3" stroke="#7570b3" points="524.49,-269.56 535.08,-269.37 526.68,-262.91 524.49,-269.56"/>
</g>
<!-- c19 -->
<g id="node21" class="node">
<title>c19</title>
<polygon fill="none" stroke="black" points="658.08,-262.37 658.08,-300.37 751.08,-300.37 751.08,-262.37 658.08,-262.37"/>
<text text-anchor="middle" x="671.08" y="-277.67" font-family="Times New Roman,serif" font-size="14.00">A</text>
<polyline fill="none" stroke="black" points="684.08,-262.37 684.08,-300.37 "/>
<text text-anchor="middle" x="704.58" y="-285.17" font-family="Times New Roman,serif" font-size="14.00">$6</text>
<text text-anchor="middle" x="704.58" y="-270.17" font-family="Times New Roman,serif" font-size="14.00">$not</text>
<polyline fill="none" stroke="black" points="725.08,-262.37 725.08,-300.37 "/>
<text text-anchor="middle" x="738.08" y="-277.67" font-family="Times New Roman,serif" font-size="14.00">Y</text>
</g>
<!-- c22&#45;&gt;c19 -->
<g id="edge20" class="edge">
<title>c22:e&#45;&gt;c19:w</title>
<path fill="none" stroke="#e6ab02" d="M622.08,-281.37C634.08,-281.37 639.33,-281.37 647.96,-281.37"/>
<polygon fill="#e6ab02" stroke="#e6ab02" points="648.08,-284.87 658.08,-281.37 648.08,-277.87 648.08,-284.87"/>
</g>
<!-- n10&#45;&gt;c20 -->
<g id="edge10" class="edge">
<title>n10:e&#45;&gt;c20:w</title>
<path fill="none" stroke="#e7298a" d="M361.98,-61.37C378.17,-61.37 382.18,-49.71 393.61,-45.16"/>
<polygon fill="#e7298a" stroke="#e7298a" points="394.31,-48.59 403.53,-43.37 393.07,-41.7 394.31,-48.59"/>
</g>
<!-- n11 -->
<g id="node19" class="node">
<title>n11</title>
<polygon fill="none" stroke="black" points="578.58,-99.37 542.89,-81.37 578.58,-63.37 614.28,-81.37 578.58,-99.37"/>
<text text-anchor="middle" x="578.58" y="-77.67" font-family="Times New Roman,serif" font-size="14.00">or_i</text>
</g>
<!-- c20&#45;&gt;n11 -->
<g id="edge18" class="edge">
<title>c20:e&#45;&gt;n11:w</title>
<path fill="none" stroke="#7570b3" d="M493.53,-55.37C513.83,-55.37 516.8,-73.53 531.41,-79.5"/>
<polygon fill="#7570b3" stroke="#7570b3" points="531.11,-83 541.58,-81.37 532.38,-76.11 531.11,-83"/>
</g>
<!-- n11&#45;&gt;c29 -->
<g id="edge11" class="edge">
<title>n11:e&#45;&gt;c29:w</title>
<path fill="none" stroke="#7570b3" d="M615.58,-81.37C623.6,-81.37 619.93,-93.4 614.58,-99.37 609.65,-104.87 95.01,-181.44 90,-186.87 89.67,-187.22 89.35,-187.61 89.05,-188.02"/>
<polygon fill="#7570b3" stroke="#7570b3" points="85.55,-188.35 89,-198.37 92.55,-188.38 85.55,-188.35"/>
</g>
<!-- n13&#45;&gt;c27 -->
<g id="edge15" class="edge">
<title>n13:e&#45;&gt;c27:w</title>
<path fill="none" stroke="#1b9e77" d="M621.58,-461.37C629.6,-461.37 626.24,-473.69 620.58,-479.37 570.09,-529.99 318.92,-526.73 248,-494.37 225.79,-484.23 234.21,-463 212,-452.87 187.34,-441.61 109.98,-434.54 90,-452.87 89.53,-453.3 89.08,-453.8 88.66,-454.36"/>
<polygon fill="#1b9e77" stroke="#1b9e77" points="85.16,-454.49 89,-464.37 92.16,-454.25 85.16,-454.49"/>
</g>
<!-- c19&#45;&gt;n14 -->
<g id="edge17" class="edge">
<title>c19:e&#45;&gt;n14:w</title>
<path fill="none" stroke="#1b9e77" d="M751.08,-281.37C763.08,-281.37 768.33,-281.37 776.96,-281.37"/>
<polygon fill="#1b9e77" stroke="#1b9e77" points="777.08,-284.87 787.08,-281.37 777.08,-277.87 777.08,-284.87"/>
</g>
</g>
</svg>
