<?xml version="1.0" encoding="UTF-8" standalone="no"?>
<!DOCTYPE svg PUBLIC "-//W3C//DTD SVG 1.1//EN"
 "http://www.w3.org/Graphics/SVG/1.1/DTD/svg11.dtd">
<!-- Generated by graphviz version 4.0.0 (20220529.0937)
 -->
<!-- Title: top_module Pages: 1 -->
<svg width="1292pt" height="1007pt"
 viewBox="0.00 0.00 1291.80 1006.82" xmlns="http://www.w3.org/2000/svg" xmlns:xlink="http://www.w3.org/1999/xlink">
<g id="graph0" class="graph" transform="scale(1 1) rotate(0) translate(4 1002.82)">
<title>top_module</title>
<polygon fill="white" stroke="transparent" points="-4,4 -4,-1002.82 1287.8,-1002.82 1287.8,4 -4,4"/>
<text text-anchor="middle" x="641.9" y="-7.8" font-family="Times New Roman,serif" font-size="14.00">top_module</text>
<!-- n1 -->
<g id="node1" class="node">
<title>n1</title>
<polygon fill="none" stroke="black" points="628,-210.82 584.6,-192.82 628,-174.82 671.4,-192.82 628,-210.82"/>
<text text-anchor="middle" x="628" y="-189.12" font-family="Times New Roman,serif" font-size="14.00">and_i</text>
</g>
<!-- n2 -->
<g id="node2" class="node">
<title>n2</title>
<polygon fill="none" stroke="black" points="54,-718.36 54,-733.28 38.18,-743.82 15.82,-743.82 0,-733.28 0,-718.36 15.82,-707.82 38.18,-707.82 54,-718.36"/>
<text text-anchor="middle" x="27" y="-722.12" font-family="Times New Roman,serif" font-size="14.00">clk</text>
</g>
<!-- c30 -->
<g id="node27" class="node">
<title>c30</title>
<polygon fill="none" stroke="black" points="763.5,-833.82 763.5,-879.82 944.5,-879.82 944.5,-833.82 763.5,-833.82"/>
<text text-anchor="middle" x="776.5" y="-864.62" font-family="Times New Roman,serif" font-size="14.00">C</text>
<polyline fill="none" stroke="black" points="763.5,-856.82 789.5,-856.82 "/>
<text text-anchor="middle" x="776.5" y="-841.62" font-family="Times New Roman,serif" font-size="14.00">D</text>
<polyline fill="none" stroke="black" points="789.5,-833.82 789.5,-879.82 "/>
<text text-anchor="middle" x="853.5" y="-860.62" font-family="Times New Roman,serif" font-size="14.00">dff1.q_SB_DFF_Q</text>
<text text-anchor="middle" x="853.5" y="-845.62" font-family="Times New Roman,serif" font-size="14.00">SB_DFF</text>
<polyline fill="none" stroke="black" points="917.5,-833.82 917.5,-879.82 "/>
<text text-anchor="middle" x="931" y="-853.12" font-family="Times New Roman,serif" font-size="14.00">Q</text>
</g>
<!-- n2&#45;&gt;c30 -->
<g id="edge18" class="edge">
<title>n2:e&#45;&gt;c30:w</title>
<path fill="none" stroke="#e6ab02" d="M54,-725.82C116.1,-725.82 40.98,-822.7 90,-860.82 146.75,-904.96 648.03,-871.51 751.82,-868.97"/>
<polygon fill="#e6ab02" stroke="#e6ab02" points="752.05,-872.47 762,-868.82 751.95,-865.47 752.05,-872.47"/>
</g>
<!-- c31 -->
<g id="node28" class="node">
<title>c31</title>
<polygon fill="none" stroke="black" points="311.5,-237.82 311.5,-283.82 492.5,-283.82 492.5,-237.82 311.5,-237.82"/>
<text text-anchor="middle" x="324.5" y="-268.62" font-family="Times New Roman,serif" font-size="14.00">C</text>
<polyline fill="none" stroke="black" points="311.5,-260.82 337.5,-260.82 "/>
<text text-anchor="middle" x="324.5" y="-245.62" font-family="Times New Roman,serif" font-size="14.00">D</text>
<polyline fill="none" stroke="black" points="337.5,-237.82 337.5,-283.82 "/>
<text text-anchor="middle" x="401.5" y="-264.62" font-family="Times New Roman,serif" font-size="14.00">dff2.q_SB_DFF_Q</text>
<text text-anchor="middle" x="401.5" y="-249.62" font-family="Times New Roman,serif" font-size="14.00">SB_DFF</text>
<polyline fill="none" stroke="black" points="465.5,-237.82 465.5,-283.82 "/>
<text text-anchor="middle" x="479" y="-257.12" font-family="Times New Roman,serif" font-size="14.00">Q</text>
</g>
<!-- n2&#45;&gt;c31 -->
<g id="edge19" class="edge">
<title>n2:e&#45;&gt;c31:w</title>
<path fill="none" stroke="#e6ab02" d="M54,-725.82C114.53,-725.82 60.73,-508.8 90,-455.82 149.82,-347.54 181.08,-276.77 299.78,-272.98"/>
<polygon fill="#e6ab02" stroke="#e6ab02" points="300.06,-276.48 310,-272.82 299.95,-269.48 300.06,-276.48"/>
</g>
<!-- c32 -->
<g id="node29" class="node">
<title>c32</title>
<polygon fill="none" stroke="black" points="90,-535.82 90,-581.82 271,-581.82 271,-535.82 90,-535.82"/>
<text text-anchor="middle" x="103" y="-566.62" font-family="Times New Roman,serif" font-size="14.00">C</text>
<polyline fill="none" stroke="black" points="90,-558.82 116,-558.82 "/>
<text text-anchor="middle" x="103" y="-543.62" font-family="Times New Roman,serif" font-size="14.00">D</text>
<polyline fill="none" stroke="black" points="116,-535.82 116,-581.82 "/>
<text text-anchor="middle" x="180" y="-562.62" font-family="Times New Roman,serif" font-size="14.00">dff3.q_SB_DFF_Q</text>
<text text-anchor="middle" x="180" y="-547.62" font-family="Times New Roman,serif" font-size="14.00">SB_DFF</text>
<polyline fill="none" stroke="black" points="244,-535.82 244,-581.82 "/>
<text text-anchor="middle" x="257.5" y="-555.12" font-family="Times New Roman,serif" font-size="14.00">Q</text>
</g>
<!-- n2&#45;&gt;c32 -->
<g id="edge20" class="edge">
<title>n2:e&#45;&gt;c32:w</title>
<path fill="none" stroke="#e6ab02" d="M54,-725.82C120.85,-725.82 30.28,-587.31 79.92,-572.16"/>
<polygon fill="#e6ab02" stroke="#e6ab02" points="80.55,-575.61 90,-570.82 79.63,-568.67 80.55,-575.61"/>
</g>
<!-- x8 -->
<g id="node34" class="node">
<title>x8</title>
<path fill="none" stroke="black" d="M195.5,-500.82C195.5,-500.82 165.5,-500.82 165.5,-500.82 159.5,-500.82 153.5,-494.82 153.5,-488.82 153.5,-488.82 153.5,-476.82 153.5,-476.82 153.5,-470.82 159.5,-464.82 165.5,-464.82 165.5,-464.82 195.5,-464.82 195.5,-464.82 201.5,-464.82 207.5,-470.82 207.5,-476.82 207.5,-476.82 207.5,-488.82 207.5,-488.82 207.5,-494.82 201.5,-500.82 195.5,-500.82"/>
<text text-anchor="middle" x="180.5" y="-479.12" font-family="Times New Roman,serif" font-size="14.00">BUF</text>
</g>
<!-- n2&#45;&gt;x8 -->
<g id="edge23" class="edge">
<title>n2:e&#45;&gt;x8:w</title>
<path fill="none" stroke="#e6ab02" d="M54,-725.82C98.94,-725.82 65.82,-564.7 90,-526.82 106.35,-501.21 116.28,-486.21 142.51,-483.33"/>
<polygon fill="#e6ab02" stroke="#e6ab02" points="142.69,-486.83 152.5,-482.82 142.33,-479.84 142.69,-486.83"/>
</g>
<!-- x10 -->
<g id="node36" class="node">
<title>x10</title>
<path fill="none" stroke="black" d="M195.5,-998.82C195.5,-998.82 165.5,-998.82 165.5,-998.82 159.5,-998.82 153.5,-992.82 153.5,-986.82 153.5,-986.82 153.5,-974.82 153.5,-974.82 153.5,-968.82 159.5,-962.82 165.5,-962.82 165.5,-962.82 195.5,-962.82 195.5,-962.82 201.5,-962.82 207.5,-968.82 207.5,-974.82 207.5,-974.82 207.5,-986.82 207.5,-986.82 207.5,-992.82 201.5,-998.82 195.5,-998.82"/>
<text text-anchor="middle" x="180.5" y="-977.12" font-family="Times New Roman,serif" font-size="14.00">BUF</text>
</g>
<!-- n2&#45;&gt;x10 -->
<g id="edge21" class="edge">
<title>n2:e&#45;&gt;x10:w</title>
<path fill="none" stroke="#e6ab02" d="M54,-725.82C105.29,-725.82 58.56,-913.29 90,-953.82 106.3,-974.83 118.85,-979.77 142.2,-980.65"/>
<polygon fill="#e6ab02" stroke="#e6ab02" points="142.44,-984.16 152.5,-980.82 142.56,-977.16 142.44,-984.16"/>
</g>
<!-- x12 -->
<g id="node38" class="node">
<title>x12</title>
<path fill="none" stroke="black" d="M195.5,-944.82C195.5,-944.82 165.5,-944.82 165.5,-944.82 159.5,-944.82 153.5,-938.82 153.5,-932.82 153.5,-932.82 153.5,-920.82 153.5,-920.82 153.5,-914.82 159.5,-908.82 165.5,-908.82 165.5,-908.82 195.5,-908.82 195.5,-908.82 201.5,-908.82 207.5,-914.82 207.5,-920.82 207.5,-920.82 207.5,-932.82 207.5,-932.82 207.5,-938.82 201.5,-944.82 195.5,-944.82"/>
<text text-anchor="middle" x="180.5" y="-923.12" font-family="Times New Roman,serif" font-size="14.00">BUF</text>
</g>
<!-- n2&#45;&gt;x12 -->
<g id="edge22" class="edge">
<title>n2:e&#45;&gt;x12:w</title>
<path fill="none" stroke="#e6ab02" d="M54,-725.82C130.8,-725.82 43.3,-833.86 90,-894.82 106.75,-916.69 118.32,-924.89 142.27,-926.51"/>
<polygon fill="#e6ab02" stroke="#e6ab02" points="142.4,-930.01 152.5,-926.82 142.61,-923.02 142.4,-930.01"/>
</g>
<!-- n3 -->
<g id="node3" class="node">
<title>n3</title>
<polygon fill="none" stroke="black" points="402,-484.82 346.7,-466.82 402,-448.82 457.3,-466.82 402,-484.82"/>
<text text-anchor="middle" x="402" y="-463.12" font-family="Times New Roman,serif" font-size="14.00">dff1.clk</text>
</g>
<!-- n4 -->
<g id="node4" class="node">
<title>n4</title>
<polygon fill="none" stroke="black" points="628,-814.82 581.25,-796.82 628,-778.82 674.75,-796.82 628,-814.82"/>
<text text-anchor="middle" x="628" y="-793.12" font-family="Times New Roman,serif" font-size="14.00">dff1.d</text>
</g>
<!-- n4&#45;&gt;c30 -->
<g id="edge26" class="edge">
<title>n4:e&#45;&gt;c30:w</title>
<path fill="none" stroke="#d95f02" d="M676,-796.82C716.01,-796.82 718.16,-836.93 751.66,-843.82"/>
<polygon fill="#d95f02" stroke="#d95f02" points="751.71,-847.34 762,-844.82 752.38,-840.37 751.71,-847.34"/>
</g>
<!-- x15 -->
<g id="node41" class="node">
<title>x15</title>
<path fill="none" stroke="black" d="M869,-814.82C869,-814.82 839,-814.82 839,-814.82 833,-814.82 827,-808.82 827,-802.82 827,-802.82 827,-790.82 827,-790.82 827,-784.82 833,-778.82 839,-778.82 839,-778.82 869,-778.82 869,-778.82 875,-778.82 881,-784.82 881,-790.82 881,-790.82 881,-802.82 881,-802.82 881,-808.82 875,-814.82 869,-814.82"/>
<text text-anchor="middle" x="854" y="-793.12" font-family="Times New Roman,serif" font-size="14.00">BUF</text>
</g>
<!-- n4&#45;&gt;x15 -->
<g id="edge27" class="edge">
<title>n4:e&#45;&gt;x15:w</title>
<path fill="none" stroke="#d95f02" d="M676,-796.82C739.15,-796.82 757.44,-796.82 815.86,-796.82"/>
<polygon fill="#d95f02" stroke="#d95f02" points="816,-800.32 826,-796.82 816,-793.32 816,-800.32"/>
</g>
<!-- n5 -->
<g id="node5" class="node">
<title>n5</title>
<polygon fill="none" stroke="black" points="180.5,-683.82 133.75,-665.82 180.5,-647.82 227.25,-665.82 180.5,-683.82"/>
<text text-anchor="middle" x="180.5" y="-662.12" font-family="Times New Roman,serif" font-size="14.00">dff1.q</text>
</g>
<!-- c24 -->
<g id="node20" class="node">
<title>c24</title>
<polygon fill="none" stroke="black" points="773,-543.82 773,-635.82 935,-635.82 935,-543.82 773,-543.82"/>
<text text-anchor="middle" x="787" y="-620.62" font-family="Times New Roman,serif" font-size="14.00">I0</text>
<polyline fill="none" stroke="black" points="773,-612.82 801,-612.82 "/>
<text text-anchor="middle" x="787" y="-597.62" font-family="Times New Roman,serif" font-size="14.00">I1</text>
<polyline fill="none" stroke="black" points="773,-589.82 801,-589.82 "/>
<text text-anchor="middle" x="787" y="-574.62" font-family="Times New Roman,serif" font-size="14.00">I2</text>
<polyline fill="none" stroke="black" points="773,-566.82 801,-566.82 "/>
<text text-anchor="middle" x="787" y="-551.62" font-family="Times New Roman,serif" font-size="14.00">I3</text>
<polyline fill="none" stroke="black" points="801,-543.82 801,-635.82 "/>
<text text-anchor="middle" x="854.5" y="-593.62" font-family="Times New Roman,serif" font-size="14.00">z_SB_LUT4_O</text>
<text text-anchor="middle" x="854.5" y="-578.62" font-family="Times New Roman,serif" font-size="14.00">SB_LUT4</text>
<polyline fill="none" stroke="black" points="908,-543.82 908,-635.82 "/>
<text text-anchor="middle" x="921.5" y="-586.12" font-family="Times New Roman,serif" font-size="14.00">O</text>
</g>
<!-- n5&#45;&gt;c24 -->
<g id="edge29" class="edge">
<title>n5:e&#45;&gt;c24:w</title>
<path fill="none" stroke="#d95f02" d="M228.5,-665.82C283.64,-665.82 675.12,-651.17 723,-623.82 752.21,-607.13 738.27,-565.09 761.93,-556.4"/>
<polygon fill="#d95f02" stroke="#d95f02" points="762.67,-559.83 772,-554.82 761.58,-552.92 762.67,-559.83"/>
</g>
<!-- c33 -->
<g id="node32" class="node">
<title>c33</title>
<polygon fill="none" stroke="black" points="307,-751.82 307,-843.82 497,-843.82 497,-751.82 307,-751.82"/>
<text text-anchor="middle" x="321" y="-828.62" font-family="Times New Roman,serif" font-size="14.00">I0</text>
<polyline fill="none" stroke="black" points="307,-820.82 335,-820.82 "/>
<text text-anchor="middle" x="321" y="-805.62" font-family="Times New Roman,serif" font-size="14.00">I1</text>
<polyline fill="none" stroke="black" points="307,-797.82 335,-797.82 "/>
<text text-anchor="middle" x="321" y="-782.62" font-family="Times New Roman,serif" font-size="14.00">I2</text>
<polyline fill="none" stroke="black" points="307,-774.82 335,-774.82 "/>
<text text-anchor="middle" x="321" y="-759.62" font-family="Times New Roman,serif" font-size="14.00">I3</text>
<polyline fill="none" stroke="black" points="335,-751.82 335,-843.82 "/>
<text text-anchor="middle" x="402.5" y="-801.62" font-family="Times New Roman,serif" font-size="14.00">dff1.d_SB_LUT4_O</text>
<text text-anchor="middle" x="402.5" y="-786.62" font-family="Times New Roman,serif" font-size="14.00">SB_LUT4</text>
<polyline fill="none" stroke="black" points="470,-751.82 470,-843.82 "/>
<text text-anchor="middle" x="483.5" y="-794.12" font-family="Times New Roman,serif" font-size="14.00">O</text>
</g>
<!-- n5&#45;&gt;c33 -->
<g id="edge30" class="edge">
<title>n5:e&#45;&gt;c33:w</title>
<path fill="none" stroke="#d95f02" d="M228.5,-665.82C254.75,-665.82 254.35,-686.53 271,-706.82 287.13,-726.47 280.27,-753.71 296.8,-760.98"/>
<polygon fill="#d95f02" stroke="#d95f02" points="296.54,-764.48 307,-762.82 297.78,-757.6 296.54,-764.48"/>
</g>
<!-- x9 -->
<g id="node35" class="node">
<title>x9</title>
<path fill="none" stroke="black" d="M417,-630.82C417,-630.82 387,-630.82 387,-630.82 381,-630.82 375,-624.82 375,-618.82 375,-618.82 375,-606.82 375,-606.82 375,-600.82 381,-594.82 387,-594.82 387,-594.82 417,-594.82 417,-594.82 423,-594.82 429,-600.82 429,-606.82 429,-606.82 429,-618.82 429,-618.82 429,-624.82 423,-630.82 417,-630.82"/>
<text text-anchor="middle" x="402" y="-609.12" font-family="Times New Roman,serif" font-size="14.00">BUF</text>
</g>
<!-- n5&#45;&gt;x9 -->
<g id="edge31" class="edge">
<title>n5:e&#45;&gt;x9:w</title>
<path fill="none" stroke="#d95f02" d="M228.5,-665.82C293.83,-665.82 304.22,-618.07 363.97,-613.22"/>
<polygon fill="#d95f02" stroke="#d95f02" points="364.15,-616.71 374,-612.82 363.87,-609.72 364.15,-616.71"/>
</g>
<!-- n6 -->
<g id="node6" class="node">
<title>n6</title>
<polygon fill="none" stroke="black" points="628,-614.82 577.39,-596.82 628,-578.82 678.61,-596.82 628,-614.82"/>
<text text-anchor="middle" x="628" y="-593.12" font-family="Times New Roman,serif" font-size="14.00">dff1_q</text>
</g>
<!-- n7 -->
<g id="node7" class="node">
<title>n7</title>
<polygon fill="none" stroke="black" points="402,-998.82 346.7,-980.82 402,-962.82 457.3,-980.82 402,-998.82"/>
<text text-anchor="middle" x="402" y="-977.12" font-family="Times New Roman,serif" font-size="14.00">dff2.clk</text>
</g>
<!-- n8 -->
<g id="node8" class="node">
<title>n8</title>
<polygon fill="none" stroke="black" points="180.5,-210.82 133.75,-192.82 180.5,-174.82 227.25,-192.82 180.5,-210.82"/>
<text text-anchor="middle" x="180.5" y="-189.12" font-family="Times New Roman,serif" font-size="14.00">dff2.d</text>
</g>
<!-- n8&#45;&gt;c31 -->
<g id="edge35" class="edge">
<title>n8:e&#45;&gt;c31:w</title>
<path fill="none" stroke="#1b9e77" d="M228.5,-192.82C268.67,-192.82 266.78,-239.61 299.72,-247.65"/>
<polygon fill="#1b9e77" stroke="#1b9e77" points="299.67,-251.17 310,-248.82 300.46,-244.21 299.67,-251.17"/>
</g>
<!-- x7 -->
<g id="node33" class="node">
<title>x7</title>
<path fill="none" stroke="black" d="M417,-210.82C417,-210.82 387,-210.82 387,-210.82 381,-210.82 375,-204.82 375,-198.82 375,-198.82 375,-186.82 375,-186.82 375,-180.82 381,-174.82 387,-174.82 387,-174.82 417,-174.82 417,-174.82 423,-174.82 429,-180.82 429,-186.82 429,-186.82 429,-198.82 429,-198.82 429,-204.82 423,-210.82 417,-210.82"/>
<text text-anchor="middle" x="402" y="-189.12" font-family="Times New Roman,serif" font-size="14.00">BUF</text>
</g>
<!-- n8&#45;&gt;x7 -->
<g id="edge36" class="edge">
<title>n8:e&#45;&gt;x7:w</title>
<path fill="none" stroke="#1b9e77" d="M228.5,-192.82C289.63,-192.82 307.42,-192.82 363.81,-192.82"/>
<polygon fill="#1b9e77" stroke="#1b9e77" points="364,-196.32 374,-192.82 364,-189.32 364,-196.32"/>
</g>
<!-- n9 -->
<g id="node9" class="node">
<title>n9</title>
<polygon fill="none" stroke="black" points="628,-372.82 581.25,-354.82 628,-336.82 674.75,-354.82 628,-372.82"/>
<text text-anchor="middle" x="628" y="-351.12" font-family="Times New Roman,serif" font-size="14.00">dff2.q</text>
</g>
<!-- n9&#45;&gt;c24 -->
<g id="edge38" class="edge">
<title>n9:e&#45;&gt;c24:w</title>
<path fill="none" stroke="#7570b3" d="M676,-354.82C700.09,-354.82 708.72,-362.42 723,-381.82 780.22,-459.6 679.59,-591.83 761.95,-601.28"/>
<polygon fill="#7570b3" stroke="#7570b3" points="761.83,-604.78 772,-601.82 762.2,-597.79 761.83,-604.78"/>
</g>
<!-- c25 -->
<g id="node23" class="node">
<title>c25</title>
<polygon fill="none" stroke="black" points="759,-188.82 759,-280.82 949,-280.82 949,-188.82 759,-188.82"/>
<text text-anchor="middle" x="773" y="-265.62" font-family="Times New Roman,serif" font-size="14.00">I0</text>
<polyline fill="none" stroke="black" points="759,-257.82 787,-257.82 "/>
<text text-anchor="middle" x="773" y="-242.62" font-family="Times New Roman,serif" font-size="14.00">I1</text>
<polyline fill="none" stroke="black" points="759,-234.82 787,-234.82 "/>
<text text-anchor="middle" x="773" y="-219.62" font-family="Times New Roman,serif" font-size="14.00">I2</text>
<polyline fill="none" stroke="black" points="759,-211.82 787,-211.82 "/>
<text text-anchor="middle" x="773" y="-196.62" font-family="Times New Roman,serif" font-size="14.00">I3</text>
<polyline fill="none" stroke="black" points="787,-188.82 787,-280.82 "/>
<text text-anchor="middle" x="854.5" y="-238.62" font-family="Times New Roman,serif" font-size="14.00">dff2.d_SB_LUT4_O</text>
<text text-anchor="middle" x="854.5" y="-223.62" font-family="Times New Roman,serif" font-size="14.00">SB_LUT4</text>
<polyline fill="none" stroke="black" points="922,-188.82 922,-280.82 "/>
<text text-anchor="middle" x="935.5" y="-231.12" font-family="Times New Roman,serif" font-size="14.00">O</text>
</g>
<!-- n9&#45;&gt;c25 -->
<g id="edge39" class="edge">
<title>n9:e&#45;&gt;c25:w</title>
<path fill="none" stroke="#7570b3" d="M676,-354.82C700.09,-354.82 707.67,-346.4 723,-327.82 751.82,-292.89 716.49,-233.61 748.66,-224.12"/>
<polygon fill="#7570b3" stroke="#7570b3" points="749.51,-227.54 759,-222.82 748.64,-220.59 749.51,-227.54"/>
</g>
<!-- x11 -->
<g id="node37" class="node">
<title>x11</title>
<path fill="none" stroke="black" d="M869,-372.82C869,-372.82 839,-372.82 839,-372.82 833,-372.82 827,-366.82 827,-360.82 827,-360.82 827,-348.82 827,-348.82 827,-342.82 833,-336.82 839,-336.82 839,-336.82 869,-336.82 869,-336.82 875,-336.82 881,-342.82 881,-348.82 881,-348.82 881,-360.82 881,-360.82 881,-366.82 875,-372.82 869,-372.82"/>
<text text-anchor="middle" x="854" y="-351.12" font-family="Times New Roman,serif" font-size="14.00">BUF</text>
</g>
<!-- n9&#45;&gt;x11 -->
<g id="edge40" class="edge">
<title>n9:e&#45;&gt;x11:w</title>
<path fill="none" stroke="#7570b3" d="M676,-354.82C739.15,-354.82 757.44,-354.82 815.86,-354.82"/>
<polygon fill="#7570b3" stroke="#7570b3" points="816,-358.32 826,-354.82 816,-351.32 816,-358.32"/>
</g>
<!-- n10 -->
<g id="node10" class="node">
<title>n10</title>
<polygon fill="none" stroke="black" points="1035.55,-372.82 984.95,-354.82 1035.55,-336.82 1086.16,-354.82 1035.55,-372.82"/>
<text text-anchor="middle" x="1035.55" y="-351.12" font-family="Times New Roman,serif" font-size="14.00">dff2_q</text>
</g>
<!-- n11 -->
<g id="node11" class="node">
<title>n11</title>
<polygon fill="none" stroke="black" points="402,-944.82 346.7,-926.82 402,-908.82 457.3,-926.82 402,-944.82"/>
<text text-anchor="middle" x="402" y="-923.12" font-family="Times New Roman,serif" font-size="14.00">dff3.clk</text>
</g>
<!-- n12 -->
<g id="node12" class="node">
<title>n12</title>
<polygon fill="none" stroke="black" points="854,-503.82 807.25,-485.82 854,-467.82 900.75,-485.82 854,-503.82"/>
<text text-anchor="middle" x="854" y="-482.12" font-family="Times New Roman,serif" font-size="14.00">dff3.d</text>
</g>
<!-- n12&#45;&gt;c32 -->
<g id="edge5" class="edge">
<title>n12:e&#45;&gt;c32:w</title>
<path fill="none" stroke="#7570b3" d="M902,-485.82C910.01,-485.82 906.71,-498.2 901,-503.82 836.66,-567.09 154.82,-473.06 89.5,-535.32 89.15,-535.65 88.82,-536.02 88.49,-536.42"/>
<polygon fill="#7570b3" stroke="#7570b3" points="84.99,-536.82 88.5,-546.82 91.99,-536.82 84.99,-536.82"/>
</g>
<!-- x14 -->
<g id="node40" class="node">
<title>x14</title>
<path fill="none" stroke="black" d="M1050.55,-503.82C1050.55,-503.82 1020.55,-503.82 1020.55,-503.82 1014.55,-503.82 1008.55,-497.82 1008.55,-491.82 1008.55,-491.82 1008.55,-479.82 1008.55,-479.82 1008.55,-473.82 1014.55,-467.82 1020.55,-467.82 1020.55,-467.82 1050.55,-467.82 1050.55,-467.82 1056.55,-467.82 1062.55,-473.82 1062.55,-479.82 1062.55,-479.82 1062.55,-491.82 1062.55,-491.82 1062.55,-497.82 1056.55,-503.82 1050.55,-503.82"/>
<text text-anchor="middle" x="1035.55" y="-482.12" font-family="Times New Roman,serif" font-size="14.00">BUF</text>
</g>
<!-- n12&#45;&gt;x14 -->
<g id="edge6" class="edge">
<title>n12:e&#45;&gt;x14:w</title>
<path fill="none" stroke="#7570b3" d="M902,-485.82C945.25,-485.82 958.59,-485.82 997.17,-485.82"/>
<polygon fill="#7570b3" stroke="#7570b3" points="997.55,-489.32 1007.55,-485.82 997.55,-482.32 997.55,-489.32"/>
</g>
<!-- n13 -->
<g id="node13" class="node">
<title>n13</title>
<polygon fill="none" stroke="black" points="402,-576.82 355.25,-558.82 402,-540.82 448.75,-558.82 402,-576.82"/>
<text text-anchor="middle" x="402" y="-555.12" font-family="Times New Roman,serif" font-size="14.00">dff3.q</text>
</g>
<!-- n13&#45;&gt;c24 -->
<g id="edge8" class="edge">
<title>n13:e&#45;&gt;c24:w</title>
<path fill="none" stroke="#e7298a" d="M450,-558.82C571.43,-558.82 602.19,-557.57 723,-569.82 741.18,-571.66 747.72,-575.94 761.96,-577.36"/>
<polygon fill="#e7298a" stroke="#e7298a" points="761.85,-580.85 772,-577.82 762.17,-573.86 761.85,-580.85"/>
</g>
<!-- c26 -->
<g id="node26" class="node">
<title>c26</title>
<polygon fill="none" stroke="black" points="533,-391.82 533,-483.82 723,-483.82 723,-391.82 533,-391.82"/>
<text text-anchor="middle" x="547" y="-468.62" font-family="Times New Roman,serif" font-size="14.00">I0</text>
<polyline fill="none" stroke="black" points="533,-460.82 561,-460.82 "/>
<text text-anchor="middle" x="547" y="-445.62" font-family="Times New Roman,serif" font-size="14.00">I1</text>
<polyline fill="none" stroke="black" points="533,-437.82 561,-437.82 "/>
<text text-anchor="middle" x="547" y="-422.62" font-family="Times New Roman,serif" font-size="14.00">I2</text>
<polyline fill="none" stroke="black" points="533,-414.82 561,-414.82 "/>
<text text-anchor="middle" x="547" y="-399.62" font-family="Times New Roman,serif" font-size="14.00">I3</text>
<polyline fill="none" stroke="black" points="561,-391.82 561,-483.82 "/>
<text text-anchor="middle" x="628.5" y="-441.62" font-family="Times New Roman,serif" font-size="14.00">dff3.d_SB_LUT4_O</text>
<text text-anchor="middle" x="628.5" y="-426.62" font-family="Times New Roman,serif" font-size="14.00">SB_LUT4</text>
<polyline fill="none" stroke="black" points="696,-391.82 696,-483.82 "/>
<text text-anchor="middle" x="709.5" y="-434.12" font-family="Times New Roman,serif" font-size="14.00">O</text>
</g>
<!-- n13&#45;&gt;c26 -->
<g id="edge9" class="edge">
<title>n13:e&#45;&gt;c26:w</title>
<path fill="none" stroke="#e7298a" d="M450,-558.82C485.65,-558.82 479.87,-525.08 497,-493.82 516.03,-459.11 494.21,-412.2 522.93,-404.05"/>
<polygon fill="#e7298a" stroke="#e7298a" points="523.5,-407.51 533,-402.82 522.65,-400.56 523.5,-407.51"/>
</g>
<!-- x13 -->
<g id="node39" class="node">
<title>x13</title>
<path fill="none" stroke="black" d="M643,-760.82C643,-760.82 613,-760.82 613,-760.82 607,-760.82 601,-754.82 601,-748.82 601,-748.82 601,-736.82 601,-736.82 601,-730.82 607,-724.82 613,-724.82 613,-724.82 643,-724.82 643,-724.82 649,-724.82 655,-730.82 655,-736.82 655,-736.82 655,-748.82 655,-748.82 655,-754.82 649,-760.82 643,-760.82"/>
<text text-anchor="middle" x="628" y="-739.12" font-family="Times New Roman,serif" font-size="14.00">BUF</text>
</g>
<!-- n13&#45;&gt;x13 -->
<g id="edge10" class="edge">
<title>n13:e&#45;&gt;x13:w</title>
<path fill="none" stroke="#e7298a" d="M450,-558.82C474.09,-558.82 482.23,-566.79 497,-585.82 533.75,-633.19 493.07,-671.1 533,-715.82 551.96,-737.05 564.73,-741.86 589.77,-742.68"/>
<polygon fill="#e7298a" stroke="#e7298a" points="589.95,-746.18 600,-742.82 590.05,-739.18 589.95,-746.18"/>
</g>
<!-- n14 -->
<g id="node14" class="node">
<title>n14</title>
<polygon fill="none" stroke="black" points="854,-760.82 803.39,-742.82 854,-724.82 904.61,-742.82 854,-760.82"/>
<text text-anchor="middle" x="854" y="-739.12" font-family="Times New Roman,serif" font-size="14.00">dff3_q</text>
</g>
<!-- n15 -->
<g id="node15" class="node">
<title>n15</title>
<polygon fill="none" stroke="black" points="1157.95,-503.82 1122.26,-485.82 1157.95,-467.82 1193.65,-485.82 1157.95,-503.82"/>
<text text-anchor="middle" x="1157.95" y="-482.12" font-family="Times New Roman,serif" font-size="14.00">or_i</text>
</g>
<!-- n16 -->
<g id="node16" class="node">
<title>n16</title>
<polygon fill="none" stroke="black" points="54,-305.36 54,-320.28 38.18,-330.82 15.82,-330.82 0,-320.28 0,-305.36 15.82,-294.82 38.18,-294.82 54,-305.36"/>
<text text-anchor="middle" x="27" y="-309.12" font-family="Times New Roman,serif" font-size="14.00">x</text>
</g>
<!-- n16&#45;&gt;c25 -->
<g id="edge13" class="edge">
<title>n16:e&#45;&gt;c25:w</title>
<path fill="none" stroke="#d95f02" d="M54,-312.82C121.26,-312.82 40.16,-210.99 90,-165.82 298.76,23.37 481.63,13.5 723,-131.82 748.75,-147.32 730.63,-188.1 749.08,-197.75"/>
<polygon fill="#d95f02" stroke="#d95f02" points="748.5,-201.21 759,-199.82 749.92,-194.35 748.5,-201.21"/>
</g>
<!-- n16&#45;&gt;c26 -->
<g id="edge14" class="edge">
<title>n16:e&#45;&gt;c26:w</title>
<path fill="none" stroke="#d95f02" d="M54,-312.82C152.53,-312.82 417.03,-274.25 497,-331.82 530.05,-355.61 495.7,-413.96 522.99,-424.26"/>
<polygon fill="#d95f02" stroke="#d95f02" points="522.58,-427.73 533,-425.82 523.66,-420.82 522.58,-427.73"/>
</g>
<!-- n16&#45;&gt;c33 -->
<g id="edge15" class="edge">
<title>n16:e&#45;&gt;c33:w</title>
<path fill="none" stroke="#d95f02" d="M54,-312.82C138.82,-312.82 37.16,-626.47 90,-692.82 142.8,-759.11 197.92,-709.9 271,-752.82 286.21,-761.75 286.14,-777.95 297.22,-783.72"/>
<polygon fill="#d95f02" stroke="#d95f02" points="296.49,-787.14 307,-785.82 297.96,-780.3 296.49,-787.14"/>
</g>
<!-- n17 -->
<g id="node17" class="node">
<title>n17</title>
<polygon fill="none" stroke="black" points="1035.55,-814.82 993.49,-796.82 1035.55,-778.82 1077.62,-796.82 1035.55,-814.82"/>
<text text-anchor="middle" x="1035.55" y="-793.12" font-family="Times New Roman,serif" font-size="14.00">xor_i</text>
</g>
<!-- n18 -->
<g id="node18" class="node">
<title>n18</title>
<polygon fill="none" stroke="black" points="1283.8,-582.36 1283.8,-597.28 1267.99,-607.82 1245.62,-607.82 1229.8,-597.28 1229.8,-582.36 1245.62,-571.82 1267.99,-571.82 1283.8,-582.36"/>
<text text-anchor="middle" x="1256.8" y="-586.12" font-family="Times New Roman,serif" font-size="14.00">z</text>
</g>
<!-- v0 -->
<g id="node19" class="node">
<title>v0</title>
<ellipse fill="none" stroke="black" cx="628" cy="-688.82" rx="27" ry="18"/>
<text text-anchor="middle" x="628" y="-685.12" font-family="Times New Roman,serif" font-size="14.00">1&#39;0</text>
</g>
<!-- v0&#45;&gt;c24 -->
<g id="edge41" class="edge">
<title>v0:e&#45;&gt;c24:w</title>
<path fill="none" stroke="#666666" d="M656,-688.82C689,-688.82 694.23,-672.99 723,-656.82 742.31,-645.97 745.4,-630.39 761.96,-626.01"/>
<polygon fill="#666666" stroke="#666666" points="762.48,-629.47 772,-624.82 761.66,-622.52 762.48,-629.47"/>
</g>
<!-- c24&#45;&gt;n18 -->
<g id="edge17" class="edge">
<title>c24:e&#45;&gt;n18:w</title>
<path fill="none" stroke="#1b9e77" d="M936,-589.82C1063.14,-589.82 1097.43,-589.82 1219.67,-589.82"/>
<polygon fill="#1b9e77" stroke="#1b9e77" points="1219.8,-593.32 1229.8,-589.82 1219.8,-586.32 1219.8,-593.32"/>
</g>
<!-- v1 -->
<g id="node21" class="node">
<title>v1</title>
<ellipse fill="none" stroke="black" cx="628" cy="-300.82" rx="27" ry="18"/>
<text text-anchor="middle" x="628" y="-297.12" font-family="Times New Roman,serif" font-size="14.00">1&#39;0</text>
</g>
<!-- v1&#45;&gt;c25 -->
<g id="edge42" class="edge">
<title>v1:e&#45;&gt;c25:w</title>
<path fill="none" stroke="#a6761d" d="M656,-300.82C700.26,-300.82 709.87,-274.25 748.99,-270.31"/>
<polygon fill="#a6761d" stroke="#a6761d" points="749.18,-273.8 759,-269.82 748.84,-266.81 749.18,-273.8"/>
</g>
<!-- v2 -->
<g id="node22" class="node">
<title>v2</title>
<ellipse fill="none" stroke="black" cx="628" cy="-246.82" rx="27" ry="18"/>
<text text-anchor="middle" x="628" y="-243.12" font-family="Times New Roman,serif" font-size="14.00">1&#39;0</text>
</g>
<!-- v2&#45;&gt;c25 -->
<g id="edge43" class="edge">
<title>v2:e&#45;&gt;c25:w</title>
<path fill="none" stroke="#7570b3" d="M656,-246.82C698.2,-246.82 711.22,-246.82 748.87,-246.82"/>
<polygon fill="#7570b3" stroke="#7570b3" points="749,-250.32 759,-246.82 749,-243.32 749,-250.32"/>
</g>
<!-- c25&#45;&gt;n8 -->
<g id="edge34" class="edge">
<title>c25:e&#45;&gt;n8:w</title>
<path fill="none" stroke="#1b9e77" d="M950,-234.82C970.67,-234.82 963.77,-266.86 949,-281.32 888.65,-340.39 827.02,-331.37 759,-281.32 715.69,-249.46 766.31,-197.69 723,-165.82 648.54,-111.03 396.4,-142.3 307,-165.82 267.69,-176.16 266.69,-200.48 227.38,-210.82 187.03,-221.43 163.81,-239.49 133.5,-210.82 131.14,-208.58 129.2,-205.19 128.28,-201.96"/>
<polygon fill="#1b9e77" stroke="#1b9e77" points="131.49,-203.37 132.5,-192.82 125.13,-200.43 131.49,-203.37"/>
</g>
<!-- v3 -->
<g id="node24" class="node">
<title>v3</title>
<ellipse fill="none" stroke="black" cx="402" cy="-412.82" rx="27" ry="18"/>
<text text-anchor="middle" x="402" y="-409.12" font-family="Times New Roman,serif" font-size="14.00">1&#39;0</text>
</g>
<!-- v3&#45;&gt;c26 -->
<g id="edge44" class="edge">
<title>v3:e&#45;&gt;c26:w</title>
<path fill="none" stroke="#a6761d" d="M430,-412.82C462.1,-412.82 469.84,-422.7 497,-439.82 511.92,-449.23 512.03,-465.13 523.19,-470.77"/>
<polygon fill="#a6761d" stroke="#a6761d" points="522.49,-474.2 533,-472.82 523.93,-467.35 522.49,-474.2"/>
</g>
<!-- v4 -->
<g id="node25" class="node">
<title>v4</title>
<ellipse fill="none" stroke="black" cx="402" cy="-358.82" rx="27" ry="18"/>
<text text-anchor="middle" x="402" y="-355.12" font-family="Times New Roman,serif" font-size="14.00">1&#39;0</text>
</g>
<!-- v4&#45;&gt;c26 -->
<g id="edge45" class="edge">
<title>v4:e&#45;&gt;c26:w</title>
<path fill="none" stroke="#e6ab02" d="M430,-358.82C462.1,-358.82 472.88,-364.63 497,-385.82 518.45,-404.67 504.94,-439.53 523.09,-447.95"/>
<polygon fill="#e6ab02" stroke="#e6ab02" points="522.52,-451.41 533,-449.82 523.82,-444.53 522.52,-451.41"/>
</g>
<!-- c26&#45;&gt;n12 -->
<g id="edge4" class="edge">
<title>c26:e&#45;&gt;n12:w</title>
<path fill="none" stroke="#7570b3" d="M723,-437.82C761.95,-437.82 763.44,-477.93 795.95,-484.82"/>
<polygon fill="#7570b3" stroke="#7570b3" points="795.7,-488.31 806,-485.82 796.4,-481.35 795.7,-488.31"/>
</g>
<!-- c30&#45;&gt;n5 -->
<g id="edge28" class="edge">
<title>c30:e&#45;&gt;n5:w</title>
<path fill="none" stroke="#d95f02" d="M946,-856.82C956.45,-856.82 952.55,-873.09 945,-880.32 886.76,-936.13 843.13,-893.24 763.5,-880.32 744.77,-877.28 741.28,-871.92 723,-866.82 639.61,-843.55 599.91,-878.77 533,-823.82 502.56,-798.82 527.29,-768.01 497,-742.82 417.59,-676.8 373.33,-702.77 271,-688.82 263.43,-687.79 138.96,-689.17 133.5,-683.82 131.18,-681.54 129.25,-678.14 128.33,-674.91"/>
<polygon fill="#d95f02" stroke="#d95f02" points="131.51,-676.37 132.5,-665.82 125.15,-673.45 131.51,-676.37"/>
</g>
<!-- c31&#45;&gt;n9 -->
<g id="edge37" class="edge">
<title>c31:e&#45;&gt;n9:w</title>
<path fill="none" stroke="#7570b3" d="M494,-260.82C528.46,-260.82 508.57,-303.53 533,-327.82 547.41,-342.15 553.81,-351.52 569.93,-354.1"/>
<polygon fill="#7570b3" stroke="#7570b3" points="569.78,-357.6 580,-354.82 570.28,-350.61 569.78,-357.6"/>
</g>
<!-- c32&#45;&gt;n13 -->
<g id="edge7" class="edge">
<title>c32:e&#45;&gt;n13:w</title>
<path fill="none" stroke="#e7298a" d="M271,-558.82C304.29,-558.82 315.05,-558.82 343.93,-558.82"/>
<polygon fill="#e7298a" stroke="#e7298a" points="344,-562.32 354,-558.82 344,-555.32 344,-562.32"/>
</g>
<!-- v5 -->
<g id="node30" class="node">
<title>v5</title>
<ellipse fill="none" stroke="black" cx="180.5" cy="-833.82" rx="27" ry="18"/>
<text text-anchor="middle" x="180.5" y="-830.12" font-family="Times New Roman,serif" font-size="14.00">1&#39;0</text>
</g>
<!-- v5&#45;&gt;c33 -->
<g id="edge46" class="edge">
<title>v5:e&#45;&gt;c33:w</title>
<path fill="none" stroke="#1b9e77" d="M208.5,-833.82C248.69,-833.82 261.2,-832.98 296.85,-832.84"/>
<polygon fill="#1b9e77" stroke="#1b9e77" points="297.01,-836.34 307,-832.82 296.99,-829.34 297.01,-836.34"/>
</g>
<!-- v6 -->
<g id="node31" class="node">
<title>v6</title>
<ellipse fill="none" stroke="black" cx="180.5" cy="-779.82" rx="27" ry="18"/>
<text text-anchor="middle" x="180.5" y="-776.12" font-family="Times New Roman,serif" font-size="14.00">1&#39;0</text>
</g>
<!-- v6&#45;&gt;c33 -->
<g id="edge47" class="edge">
<title>v6:e&#45;&gt;c33:w</title>
<path fill="none" stroke="#66a61e" d="M208.5,-779.82C250.69,-779.82 259.91,-805.32 296.95,-809.3"/>
<polygon fill="#66a61e" stroke="#66a61e" points="296.83,-812.8 307,-809.82 297.19,-805.81 296.83,-812.8"/>
</g>
<!-- c33&#45;&gt;n4 -->
<g id="edge25" class="edge">
<title>c33:e&#45;&gt;n4:w</title>
<path fill="none" stroke="#d95f02" d="M497,-797.82C530.29,-797.82 541.04,-797.01 569.93,-796.85"/>
<polygon fill="#d95f02" stroke="#d95f02" points="570.01,-800.35 580,-796.82 569.99,-793.35 570.01,-800.35"/>
</g>
<!-- x7&#45;&gt;n1 -->
<g id="edge1" class="edge">
<title>x7:e&#45;&gt;n1:w</title>
<path fill="none" stroke="#66a61e" d="M430,-192.82C494.41,-192.82 513.07,-192.82 572.65,-192.82"/>
<polygon fill="#66a61e" stroke="#66a61e" points="573,-196.32 583,-192.82 573,-189.32 573,-196.32"/>
</g>
<!-- x8&#45;&gt;n3 -->
<g id="edge24" class="edge">
<title>x8:e&#45;&gt;n3:w</title>
<path fill="none" stroke="#e6ab02" d="M208.5,-482.82C266.54,-482.82 282.69,-468.58 335.98,-466.97"/>
<polygon fill="#e6ab02" stroke="#e6ab02" points="336.05,-470.47 346,-466.82 335.95,-463.47 336.05,-470.47"/>
</g>
<!-- x9&#45;&gt;n6 -->
<g id="edge32" class="edge">
<title>x9:e&#45;&gt;n6:w</title>
<path fill="none" stroke="#d95f02" d="M430,-612.82C491.71,-612.82 508.88,-598.52 565.72,-596.96"/>
<polygon fill="#d95f02" stroke="#d95f02" points="566.05,-600.46 576,-596.82 565.95,-593.46 566.05,-600.46"/>
</g>
<!-- x10&#45;&gt;n7 -->
<g id="edge33" class="edge">
<title>x10:e&#45;&gt;n7:w</title>
<path fill="none" stroke="#1b9e77" d="M208.5,-980.82C266.03,-980.82 282.94,-980.82 335.71,-980.82"/>
<polygon fill="#1b9e77" stroke="#1b9e77" points="336,-984.32 346,-980.82 336,-977.32 336,-984.32"/>
</g>
<!-- x11&#45;&gt;n10 -->
<g id="edge2" class="edge">
<title>x11:e&#45;&gt;n10:w</title>
<path fill="none" stroke="#1b9e77" d="M882,-354.82C924.2,-354.82 937.22,-354.82 974.87,-354.82"/>
<polygon fill="#1b9e77" stroke="#1b9e77" points="975,-358.32 985,-354.82 975,-351.32 975,-358.32"/>
</g>
<!-- x12&#45;&gt;n11 -->
<g id="edge3" class="edge">
<title>x12:e&#45;&gt;n11:w</title>
<path fill="none" stroke="#1b9e77" d="M208.5,-926.82C266.03,-926.82 282.94,-926.82 335.71,-926.82"/>
<polygon fill="#1b9e77" stroke="#1b9e77" points="336,-930.32 346,-926.82 336,-923.32 336,-930.32"/>
</g>
<!-- x13&#45;&gt;n14 -->
<g id="edge11" class="edge">
<title>x13:e&#45;&gt;n14:w</title>
<path fill="none" stroke="#e7298a" d="M656,-742.82C717.34,-742.82 735.19,-742.82 791.77,-742.82"/>
<polygon fill="#e7298a" stroke="#e7298a" points="792,-746.32 802,-742.82 792,-739.32 792,-746.32"/>
</g>
<!-- x14&#45;&gt;n15 -->
<g id="edge12" class="edge">
<title>x14:e&#45;&gt;n15:w</title>
<path fill="none" stroke="#7570b3" d="M1063.55,-485.82C1085.71,-485.82 1093.72,-485.82 1111.68,-485.82"/>
<polygon fill="#7570b3" stroke="#7570b3" points="1112.11,-489.32 1122.11,-485.82 1112.11,-482.32 1112.11,-489.32"/>
</g>
<!-- x15&#45;&gt;n17 -->
<g id="edge16" class="edge">
<title>x15:e&#45;&gt;n17:w</title>
<path fill="none" stroke="#1b9e77" d="M882,-796.82C927.58,-796.82 941.45,-796.82 982.45,-796.82"/>
<polygon fill="#1b9e77" stroke="#1b9e77" points="982.55,-800.32 992.55,-796.82 982.55,-793.32 982.55,-800.32"/>
</g>
</g>
</svg>
