<?xml version="1.0" encoding="UTF-8" standalone="no"?>
<!DOCTYPE svg PUBLIC "-//W3C//DTD SVG 1.1//EN"
 "http://www.w3.org/Graphics/SVG/1.1/DTD/svg11.dtd">
<!-- Generated by graphviz version 4.0.0 (20220529.0937)
 -->
<!-- Title: my_dff Pages: 1 -->
<svg width="311pt" height="157pt"
 viewBox="0.00 0.00 310.59 156.50" xmlns="http://www.w3.org/2000/svg" xmlns:xlink="http://www.w3.org/1999/xlink">
<g id="graph0" class="graph" transform="scale(1 1) rotate(0) translate(4 152.5)">
<title>my_dff</title>
<polygon fill="white" stroke="transparent" points="-4,4 -4,-152.5 306.59,-152.5 306.59,4 -4,4"/>
<text text-anchor="middle" x="151.29" y="-7.8" font-family="Times New Roman,serif" font-size="14.00">my_dff</text>
<!-- n1 -->
<g id="node1" class="node">
<title>n1</title>
<polygon fill="none" stroke="black" points="54,-123.04 54,-137.96 38.18,-148.5 15.82,-148.5 0,-137.96 0,-123.04 15.82,-112.5 38.18,-112.5 54,-123.04"/>
<text text-anchor="middle" x="27" y="-126.8" font-family="Times New Roman,serif" font-size="14.00">clk</text>
</g>
<!-- c11 -->
<g id="node5" class="node">
<title>c11</title>
<polygon fill="none" stroke="black" points="90,-80.5 90,-126.5 201,-126.5 201,-80.5 90,-80.5"/>
<text text-anchor="middle" x="112" y="-111.3" font-family="Times New Roman,serif" font-size="14.00">CLK</text>
<polyline fill="none" stroke="black" points="90,-103.5 134,-103.5 "/>
<text text-anchor="middle" x="112" y="-88.3" font-family="Times New Roman,serif" font-size="14.00">D</text>
<polyline fill="none" stroke="black" points="134,-80.5 134,-126.5 "/>
<text text-anchor="middle" x="154" y="-107.3" font-family="Times New Roman,serif" font-size="14.00">$10</text>
<text text-anchor="middle" x="154" y="-92.3" font-family="Times New Roman,serif" font-size="14.00">$dff</text>
<polyline fill="none" stroke="black" points="174,-80.5 174,-126.5 "/>
<text text-anchor="middle" x="187.5" y="-99.8" font-family="Times New Roman,serif" font-size="14.00">Q</text>
</g>
<!-- n1&#45;&gt;c11 -->
<g id="edge1" class="edge">
<title>n1:e&#45;&gt;c11:w</title>
<path fill="none" stroke="#66a61e" d="M54,-130.5C67.27,-130.5 71.16,-121.71 80.04,-117.59"/>
<polygon fill="#66a61e" stroke="#66a61e" points="80.93,-120.97 90,-115.5 79.49,-114.12 80.93,-120.97"/>
</g>
<!-- n2 -->
<g id="node2" class="node">
<title>n2</title>
<polygon fill="none" stroke="black" points="54,-69.04 54,-83.96 38.18,-94.5 15.82,-94.5 0,-83.96 0,-69.04 15.82,-58.5 38.18,-58.5 54,-69.04"/>
<text text-anchor="middle" x="27" y="-72.8" font-family="Times New Roman,serif" font-size="14.00">d</text>
</g>
<!-- n2&#45;&gt;c11 -->
<g id="edge2" class="edge">
<title>n2:e&#45;&gt;c11:w</title>
<path fill="none" stroke="#1b9e77" d="M54,-76.5C67.27,-76.5 71.16,-85.29 80.04,-89.41"/>
<polygon fill="#1b9e77" stroke="#1b9e77" points="79.49,-92.88 90,-91.5 80.93,-86.03 79.49,-92.88"/>
</g>
<!-- n3 -->
<g id="node3" class="node">
<title>n3</title>
<polygon fill="none" stroke="black" points="291,-92.04 291,-106.96 275.18,-117.5 252.82,-117.5 237,-106.96 237,-92.04 252.82,-81.5 275.18,-81.5 291,-92.04"/>
<text text-anchor="middle" x="264" y="-95.8" font-family="Times New Roman,serif" font-size="14.00">q</text>
</g>
<!-- c7 -->
<g id="node6" class="node">
<title>c7</title>
<polygon fill="none" stroke="black" points="99,-23.5 99,-61.5 192,-61.5 192,-23.5 99,-23.5"/>
<text text-anchor="middle" x="112" y="-38.8" font-family="Times New Roman,serif" font-size="14.00">A</text>
<polyline fill="none" stroke="black" points="125,-23.5 125,-61.5 "/>
<text text-anchor="middle" x="145.5" y="-46.3" font-family="Times New Roman,serif" font-size="14.00">$7</text>
<text text-anchor="middle" x="145.5" y="-31.3" font-family="Times New Roman,serif" font-size="14.00">$not</text>
<polyline fill="none" stroke="black" points="166,-23.5 166,-61.5 "/>
<text text-anchor="middle" x="179" y="-38.8" font-family="Times New Roman,serif" font-size="14.00">Y</text>
</g>
<!-- n3&#45;&gt;c7 -->
<g id="edge3" class="edge">
<title>n3:e&#45;&gt;c7:w</title>
<path fill="none" stroke="#1b9e77" d="M292,-99.5C310.6,-99.5 310.72,-153.42 237,-117.5 213.66,-106.13 223.79,-83.94 201,-71.5 180.92,-60.54 114.34,-78.5 98.5,-62 95.87,-59.26 93.69,-55.19 92.79,-51.47"/>
<polygon fill="#1b9e77" stroke="#1b9e77" points="95.95,-52.98 97.5,-42.5 89.75,-49.73 95.95,-52.98"/>
</g>
<!-- n4 -->
<g id="node4" class="node">
<title>n4</title>
<polygon fill="none" stroke="black" points="291,-35.04 291,-49.96 275.18,-60.5 252.82,-60.5 237,-49.96 237,-35.04 252.82,-24.5 275.18,-24.5 291,-35.04"/>
<text text-anchor="middle" x="264" y="-38.8" font-family="Times New Roman,serif" font-size="14.00">qn</text>
</g>
<!-- c11&#45;&gt;n3 -->
<g id="edge5" class="edge">
<title>c11:e&#45;&gt;n3:w</title>
<path fill="none" stroke="#1b9e77" d="M201,-103.5C213.07,-103.5 218.23,-101.25 226.85,-100.12"/>
<polygon fill="#1b9e77" stroke="#1b9e77" points="227.23,-103.61 237,-99.5 226.8,-96.62 227.23,-103.61"/>
</g>
<!-- c7&#45;&gt;n4 -->
<g id="edge4" class="edge">
<title>c7:e&#45;&gt;n4:w</title>
<path fill="none" stroke="#7570b3" d="M193.5,-42.5C208.91,-42.5 215.1,-42.5 226.77,-42.5"/>
<polygon fill="#7570b3" stroke="#7570b3" points="227,-46 237,-42.5 227,-39 227,-46"/>
</g>
</g>
</svg>
