<svg xmlns="http://www.w3.org/2000/svg" xmlns:xlink="http://www.w3.org/1999/xlink" xmlns:s="https://github.com/nturley/netlistsvg" width="523" height="257.5">
  <style>svg {
    stroke:#000;
    fill:none;
  }
  text {
    fill:#000;
    stroke:none;
    font-size:10px;
    font-weight: bold;
    font-family: "Courier New", monospace;
  }
  .nodelabel {
    text-anchor: middle;
  }
  .inputPortLabel {
    text-anchor: end;
  }
  .splitjoinBody {
    fill:#000;
  }</style>
  <g s:type="and" transform="translate(77,150)" s:width="30" s:height="25" id="cell_$and$top_module.v:21$2">
    <s:alias val="$and"/>
    <s:alias val="$logic_and"/>
    <s:alias val="$_AND_"/>
    <path d="M0,0 L0,25 L15,25 A15 12.5 0 0 0 15,0 Z" class="cell_$and$top_module.v:21$2"/>
    <g s:x="0" s:y="5" s:pid="A"/>
    <g s:x="0" s:y="20" s:pid="B"/>
    <g s:x="30" s:y="12.5" s:pid="Y"/>
  </g>
  <g s:type="not" transform="translate(403,185.5)" s:width="30" s:height="20" id="cell_$not$top_module.v:43$6">
    <s:alias val="$_NOT_"/>
    <s:alias val="$not"/>
    <s:alias val="$logic_not"/>
    <path d="M0,0 L0,20 L20,10 Z" class="cell_$not$top_module.v:43$6"/>
    <circle cx="23" cy="10" r="3" class="cell_$not$top_module.v:43$6"/>
    <g s:x="0" s:y="10" s:pid="A"/>
    <g s:x="25" s:y="10" s:pid="Y"/>
  </g>
  <g s:type="or" transform="translate(159.33333333333334,210.5)" s:width="30" s:height="25" id="cell_$or$top_module.v:22$3">
    <s:alias val="$or"/>
    <s:alias val="$logic_or"/>
    <s:alias val="$_OR_"/>
    <path d="M0,25 L0,25 L15,25 A15 12.5 0 0 0 15,0 L0,0" class="cell_$or$top_module.v:22$3"/>
    <path d="M0,0 A30 25 0 0 1 0,25" class="cell_$or$top_module.v:22$3"/>
    <g s:x="3" s:y="5" s:pid="A"/>
    <g s:x="3" s:y="20" s:pid="B"/>
    <g s:x="30" s:y="12.5" s:pid="Y"/>
  </g>
  <g s:type="or" transform="translate(257.33333333333337,122.5)" s:width="30" s:height="25" id="cell_$or$top_module.v:43$4">
    <s:alias val="$or"/>
    <s:alias val="$logic_or"/>
    <s:alias val="$_OR_"/>
    <path d="M0,25 L0,25 L15,25 A15 12.5 0 0 0 15,0 L0,0" class="cell_$or$top_module.v:43$4"/>
    <path d="M0,0 A30 25 0 0 1 0,25" class="cell_$or$top_module.v:43$4"/>
    <g s:x="3" s:y="5" s:pid="A"/>
    <g s:x="3" s:y="20" s:pid="B"/>
    <g s:x="30" s:y="12.5" s:pid="Y"/>
  </g>
  <g s:type="or" transform="translate(338,183)" s:width="30" s:height="25" id="cell_$or$top_module.v:43$5">
    <s:alias val="$or"/>
    <s:alias val="$logic_or"/>
    <s:alias val="$_OR_"/>
    <path d="M0,25 L0,25 L15,25 A15 12.5 0 0 0 15,0 L0,0" class="cell_$or$top_module.v:43$5"/>
    <path d="M0,0 A30 25 0 0 1 0,25" class="cell_$or$top_module.v:43$5"/>
    <g s:x="3" s:y="5" s:pid="A"/>
    <g s:x="3" s:y="20" s:pid="B"/>
    <g s:x="30" s:y="12.5" s:pid="Y"/>
  </g>
  <g s:type="reduce_xor" transform="translate(468,34.5)" s:width="33" s:height="25" id="cell_$xor$top_module.v:20$1">
    <s:alias val="$xor"/>
    <s:alias val="$reduce_xor"/>
    <s:alias val="$_XOR_"/>
    <path d="M3,0 A30 25 0 0 1 3,25 A30 25 0 0 0 33,12.5 A30 25 0 0 0 3,0" class="cell_$xor$top_module.v:20$1"/>
    <path d="M0,0 A30 25 0 0 1 0,25" class="cell_$xor$top_module.v:20$1"/>
    <g s:x="3" s:y="5" s:pid="A"/>
    <g s:x="3" s:y="20" s:pid="B"/>
    <g s:x="33" s:y="12.5" s:pid="Y"/>
  </g>
  <g s:type="generic" transform="translate(161,44)" s:width="30" s:height="40" id="cell_dff1">
    <text x="15" y="-4" class="nodelabel cell_dff1" s:attribute="ref">my_dff</text>
    <rect width="30" height="40" s:generic="body" class="cell_dff1"/>
    <g transform="translate(0,10)" s:x="0" s:y="10" s:pid="in0" id="port_dff1~clk">
      <text x="-3" y="-4" class="inputPortLabel cell_dff1">clk</text>
    </g>
    <g transform="translate(0,30)" s:x="0" s:y="10" s:pid="in0" id="port_dff1~d">
      <text x="-3" y="-4" class="inputPortLabel cell_dff1">d</text>
    </g>
    <g transform="translate(30,10)" s:x="30" s:y="10" s:pid="out0" id="port_dff1~q">
      <text x="5" y="-4" style="fill:#000; stroke:none" class="cell_dff1">q</text>
    </g>
    <g transform="translate(30,30)" s:x="30" s:y="10" s:pid="out0" id="port_dff1~qn">
      <text x="5" y="-4" style="fill:#000; stroke:none" class="cell_dff1">qn</text>
    </g>
  </g>
  <g s:type="generic" transform="translate(161,132)" s:width="30" s:height="40" id="cell_dff2">
    <text x="15" y="-4" class="nodelabel cell_dff2" s:attribute="ref">my_dff</text>
    <rect width="30" height="40" s:generic="body" class="cell_dff2"/>
    <g transform="translate(0,10)" s:x="0" s:y="10" s:pid="in0" id="port_dff2~clk">
      <text x="-3" y="-4" class="inputPortLabel cell_dff2">clk</text>
    </g>
    <g transform="translate(0,30)" s:x="0" s:y="10" s:pid="in0" id="port_dff2~d">
      <text x="-3" y="-4" class="inputPortLabel cell_dff2">d</text>
    </g>
    <g transform="translate(30,10)" s:x="30" s:y="10" s:pid="out0" id="port_dff2~q">
      <text x="5" y="-4" style="fill:#000; stroke:none" class="cell_dff2">q</text>
    </g>
    <g transform="translate(30,30)" s:x="30" s:y="10" s:pid="out0" id="port_dff2~qn">
      <text x="5" y="-4" style="fill:#000; stroke:none" class="cell_dff2">qn</text>
    </g>
  </g>
  <g s:type="generic" transform="translate(259,192.5)" s:width="30" s:height="40" id="cell_dff3">
    <text x="15" y="-4" class="nodelabel cell_dff3" s:attribute="ref">my_dff</text>
    <rect width="30" height="40" s:generic="body" class="cell_dff3"/>
    <g transform="translate(0,10)" s:x="0" s:y="10" s:pid="in0" id="port_dff3~clk">
      <text x="-3" y="-4" class="inputPortLabel cell_dff3">clk</text>
    </g>
    <g transform="translate(0,30)" s:x="0" s:y="10" s:pid="in0" id="port_dff3~d">
      <text x="-3" y="-4" class="inputPortLabel cell_dff3">d</text>
    </g>
    <g transform="translate(30,10)" s:x="30" s:y="10" s:pid="out0" id="port_dff3~q">
      <text x="5" y="-4" style="fill:#000; stroke:none" class="cell_dff3">q</text>
    </g>
    <g transform="translate(30,30)" s:x="30" s:y="10" s:pid="out0" id="port_dff3~qn">
      <text x="5" y="-4" style="fill:#000; stroke:none" class="cell_dff3">qn</text>
    </g>
  </g>
  <g s:type="inputExt" transform="translate(77,44.5)" s:width="30" s:height="20" id="cell_clk">
    <text x="15" y="-4" class="nodelabel cell_clk" s:attribute="ref">clk</text>
    <s:alias val="$_inputExt_"/>
    <path d="M0,0 L0,20 L15,20 L30,10 L15,0 Z" class="cell_clk"/>
    <g s:x="28" s:y="10" s:pid="Y"/>
  </g>
  <g s:type="inputExt" transform="translate(12,205.5)" s:width="30" s:height="20" id="cell_x">
    <text x="15" y="-4" class="nodelabel cell_x" s:attribute="ref">x</text>
    <s:alias val="$_inputExt_"/>
    <path d="M0,0 L0,20 L15,20 L30,10 L15,0 Z" class="cell_x"/>
    <g s:x="28" s:y="10" s:pid="Y"/>
  </g>
  <g s:type="outputExt" transform="translate(468,185.5)" s:width="30" s:height="20" id="cell_z">
    <text x="15" y="-4" class="nodelabel cell_z" s:attribute="ref">z</text>
    <s:alias val="$_outputExt_"/>
    <path d="M30,0 L30,20 L15,20 L0,10 L15,0 Z" class="cell_z"/>
    <g s:x="0" s:y="10" s:pid="A"/>
  </g>
  <line x1="40" x2="52" y1="215.5" y2="215.5" class="net_3"/>
  <line x1="52" x2="52" y1="215.5" y2="155" class="net_3"/>
  <circle cx="52" cy="215.5" r="2" style="fill:#000" class="net_3"/>
  <circle cx="52" cy="155" r="2" style="fill:#000" class="net_3"/>
  <line x1="52" x2="77" y1="155" y2="155" class="net_3"/>
  <line x1="40" x2="162.33333333333334" y1="215.5" y2="215.5" class="net_3"/>
  <line x1="40" x2="52" y1="215.5" y2="215.5" class="net_3"/>
  <line x1="52" x2="52" y1="215.5" y2="23" class="net_3"/>
  <line x1="52" x2="443" y1="23" y2="23" class="net_3"/>
  <line x1="443" x2="443" y1="23" y2="39.5" class="net_3"/>
  <line x1="443" x2="471" y1="39.5" y2="39.5" class="net_3"/>
  <line x1="192" x2="215" y1="162.5" y2="162.5" class="net_5"/>
  <line x1="215" x2="215" y1="162.5" y2="185" class="net_5"/>
  <line x1="215" x2="62" y1="185" y2="185" class="net_5"/>
  <line x1="62" x2="62" y1="185" y2="170" class="net_5"/>
  <line x1="62" x2="77" y1="170" y2="170" class="net_5"/>
  <line x1="368" x2="403" y1="195.5" y2="195.5" class="net_7"/>
  <line x1="290" x2="313" y1="223" y2="223" class="net_8"/>
  <line x1="313" x2="313" y1="223" y2="245.5" class="net_8"/>
  <line x1="313" x2="127" y1="245.5" y2="245.5" class="net_8"/>
  <line x1="127" x2="127" y1="245.5" y2="230.5" class="net_8"/>
  <line x1="127" x2="162.33333333333334" y1="230.5" y2="230.5" class="net_8"/>
  <line x1="192" x2="215" y1="54.5" y2="54.5" class="net_10"/>
  <line x1="215" x2="215" y1="54.5" y2="127.5" class="net_10"/>
  <circle cx="215" cy="54.5" r="2" style="fill:#000" class="net_10"/>
  <line x1="215" x2="260.33333333333337" y1="127.5" y2="127.5" class="net_10"/>
  <line x1="192" x2="471" y1="54.5" y2="54.5" class="net_10"/>
  <line x1="192" x2="260.33333333333337" y1="142.5" y2="142.5" class="net_11"/>
  <line x1="287.33333333333337" x2="313" y1="135" y2="135" class="net_12"/>
  <line x1="313" x2="313" y1="135" y2="188" class="net_12"/>
  <line x1="313" x2="341" y1="188" y2="188" class="net_12"/>
  <line x1="290" x2="341" y1="203" y2="203" class="net_13"/>
  <line x1="105" x2="161" y1="54.5" y2="54.5" class="net_2"/>
  <line x1="105" x2="117" y1="54.5" y2="54.5" class="net_2"/>
  <line x1="117" x2="117" y1="54.5" y2="142.5" class="net_2"/>
  <circle cx="117" cy="54.5" r="2" style="fill:#000" class="net_2"/>
  <circle cx="117" cy="142.5" r="2" style="fill:#000" class="net_2"/>
  <line x1="117" x2="161" y1="142.5" y2="142.5" class="net_2"/>
  <line x1="105" x2="117" y1="54.5" y2="54.5" class="net_2"/>
  <line x1="117" x2="117" y1="54.5" y2="199.5" class="net_2"/>
  <line x1="117" x2="215" y1="199.5" y2="199.5" class="net_2"/>
  <line x1="215" x2="215" y1="199.5" y2="203" class="net_2"/>
  <line x1="215" x2="259" y1="203" y2="203" class="net_2"/>
  <line x1="501" x2="511" y1="47" y2="47" class="net_14"/>
  <line x1="511" x2="511" y1="47" y2="12" class="net_14"/>
  <line x1="511" x2="127" y1="12" y2="12" class="net_14"/>
  <line x1="127" x2="127" y1="12" y2="74.5" class="net_14"/>
  <line x1="127" x2="161" y1="74.5" y2="74.5" class="net_14"/>
  <line x1="107" x2="161" y1="162.5" y2="162.5" class="net_6"/>
  <line x1="189.33333333333334" x2="259" y1="223" y2="223" class="net_9"/>
  <line x1="428" x2="468" y1="195.5" y2="195.5" class="net_4"/>
</svg>
