<?xml version="1.0" encoding="UTF-8" standalone="no"?>
<!DOCTYPE svg PUBLIC "-//W3C//DTD SVG 1.1//EN"
 "http://www.w3.org/Graphics/SVG/1.1/DTD/svg11.dtd">
<!-- Generated by graphviz version 4.0.0 (20220529.0937)
 -->
<!-- Title: top_module Pages: 1 -->
<svg width="1637pt" height="655pt"
 viewBox="0.00 0.00 1637.35 654.50" xmlns="http://www.w3.org/2000/svg" xmlns:xlink="http://www.w3.org/1999/xlink">
<g id="graph0" class="graph" transform="scale(1 1) rotate(0) translate(4 650.5)">
<title>top_module</title>
<polygon fill="white" stroke="transparent" points="-4,4 -4,-650.5 1633.35,-650.5 1633.35,4 -4,4"/>
<text text-anchor="middle" x="814.67" y="-7.8" font-family="Times New Roman,serif" font-size="14.00">top_module</text>
<!-- n1 -->
<g id="node1" class="node">
<title>n1</title>
<polygon fill="none" stroke="black" points="68.91,-300.04 68.91,-314.96 48.74,-325.5 20.2,-325.5 0.03,-314.96 0.03,-300.04 20.2,-289.5 48.74,-289.5 68.91,-300.04"/>
<text text-anchor="middle" x="34.47" y="-303.8" font-family="Times New Roman,serif" font-size="14.00">areset</text>
</g>
<!-- c17 -->
<g id="node12" class="node">
<title>c17</title>
<polygon fill="none" stroke="black" points="104.94,-320 104.94,-389 300.94,-389 300.94,-320 104.94,-320"/>
<text text-anchor="middle" x="117.94" y="-373.8" font-family="Times New Roman,serif" font-size="14.00">C</text>
<polyline fill="none" stroke="black" points="104.94,-366 130.94,-366 "/>
<text text-anchor="middle" x="117.94" y="-350.8" font-family="Times New Roman,serif" font-size="14.00">D</text>
<polyline fill="none" stroke="black" points="104.94,-343 130.94,-343 "/>
<text text-anchor="middle" x="117.94" y="-327.8" font-family="Times New Roman,serif" font-size="14.00">R</text>
<polyline fill="none" stroke="black" points="130.94,-320 130.94,-389 "/>
<text text-anchor="middle" x="202.44" y="-358.3" font-family="Times New Roman,serif" font-size="14.00">state_SB_DFFR_Q_1</text>
<text text-anchor="middle" x="202.44" y="-343.3" font-family="Times New Roman,serif" font-size="14.00">SB_DFFR</text>
<polyline fill="none" stroke="black" points="273.94,-320 273.94,-389 "/>
<text text-anchor="middle" x="287.44" y="-350.8" font-family="Times New Roman,serif" font-size="14.00">Q</text>
</g>
<!-- n1&#45;&gt;c17 -->
<g id="edge9" class="edge">
<title>n1:e&#45;&gt;c17:w</title>
<path fill="none" stroke="#1b9e77" d="M68.94,-307.5C84.12,-307.5 85.79,-322.44 95.26,-328.75"/>
<polygon fill="#1b9e77" stroke="#1b9e77" points="94.37,-332.13 104.94,-331.5 96.28,-325.4 94.37,-332.13"/>
</g>
<!-- c18 -->
<g id="node14" class="node">
<title>c18</title>
<polygon fill="none" stroke="black" points="1260.35,-315 1260.35,-384 1441.35,-384 1441.35,-315 1260.35,-315"/>
<text text-anchor="middle" x="1273.35" y="-368.8" font-family="Times New Roman,serif" font-size="14.00">C</text>
<polyline fill="none" stroke="black" points="1260.35,-361 1286.35,-361 "/>
<text text-anchor="middle" x="1273.35" y="-345.8" font-family="Times New Roman,serif" font-size="14.00">D</text>
<polyline fill="none" stroke="black" points="1260.35,-338 1286.35,-338 "/>
<text text-anchor="middle" x="1273.35" y="-322.8" font-family="Times New Roman,serif" font-size="14.00">R</text>
<polyline fill="none" stroke="black" points="1286.35,-315 1286.35,-384 "/>
<text text-anchor="middle" x="1350.35" y="-353.3" font-family="Times New Roman,serif" font-size="14.00">state_SB_DFFR_Q</text>
<text text-anchor="middle" x="1350.35" y="-338.3" font-family="Times New Roman,serif" font-size="14.00">SB_DFFR</text>
<polyline fill="none" stroke="black" points="1414.35,-315 1414.35,-384 "/>
<text text-anchor="middle" x="1427.85" y="-345.8" font-family="Times New Roman,serif" font-size="14.00">Q</text>
</g>
<!-- n1&#45;&gt;c18 -->
<g id="edge10" class="edge">
<title>n1:e&#45;&gt;c18:w</title>
<path fill="none" stroke="#1b9e77" d="M68.94,-307.5C201.58,-307.5 234.31,-291.5 366.94,-291.5 366.94,-291.5 366.94,-291.5 1060.25,-291.5 1133.72,-291.5 1153.31,-292.75 1224.35,-311.5 1237.18,-314.89 1241.31,-321.88 1250.31,-324.97"/>
<polygon fill="#1b9e77" stroke="#1b9e77" points="1249.94,-328.46 1260.35,-326.5 1250.99,-321.53 1249.94,-328.46"/>
</g>
<!-- n2 -->
<g id="node2" class="node">
<title>n2</title>
<polygon fill="none" stroke="black" points="61.47,-390.04 61.47,-404.96 45.65,-415.5 23.29,-415.5 7.47,-404.96 7.47,-390.04 23.29,-379.5 45.65,-379.5 61.47,-390.04"/>
<text text-anchor="middle" x="34.47" y="-393.8" font-family="Times New Roman,serif" font-size="14.00">clk</text>
</g>
<!-- n2&#45;&gt;c17 -->
<g id="edge11" class="edge">
<title>n2:e&#45;&gt;c17:w</title>
<path fill="none" stroke="#1b9e77" d="M62.47,-397.5C79.42,-397.5 83.09,-384.3 95.06,-379.35"/>
<polygon fill="#1b9e77" stroke="#1b9e77" points="95.76,-382.78 104.94,-377.5 94.47,-375.9 95.76,-382.78"/>
</g>
<!-- n2&#45;&gt;c18 -->
<g id="edge12" class="edge">
<title>n2:e&#45;&gt;c18:w</title>
<path fill="none" stroke="#1b9e77" d="M62.47,-397.5C130.28,-397.5 299.14,-417.5 366.94,-417.5 366.94,-417.5 366.94,-417.5 753.15,-417.5 976.03,-417.5 1032.35,-373.85 1250.19,-372.53"/>
<polygon fill="#1b9e77" stroke="#1b9e77" points="1250.36,-376.03 1260.35,-372.5 1250.34,-369.03 1250.36,-376.03"/>
</g>
<!-- n3 -->
<g id="node3" class="node">
<title>n3</title>
<polygon fill="none" stroke="black" points="61.47,-81.04 61.47,-95.96 45.65,-106.5 23.29,-106.5 7.47,-95.96 7.47,-81.04 23.29,-70.5 45.65,-70.5 61.47,-81.04"/>
<text text-anchor="middle" x="34.47" y="-84.8" font-family="Times New Roman,serif" font-size="14.00">in</text>
</g>
<!-- n3&#45;&gt;c17 -->
<g id="edge13" class="edge">
<title>n3:e&#45;&gt;c17:w</title>
<path fill="none" stroke="#e6ab02" d="M62.47,-88.5C118.59,-88.5 54.2,-322.29 95.26,-351.51"/>
<polygon fill="#e6ab02" stroke="#e6ab02" points="94.35,-354.9 104.94,-354.5 96.42,-348.21 94.35,-354.9"/>
</g>
<!-- c19 -->
<g id="node18" class="node">
<title>c19</title>
<polygon fill="none" stroke="black" points="646.15,-116.5 646.15,-208.5 858.15,-208.5 858.15,-116.5 646.15,-116.5"/>
<text text-anchor="middle" x="660.15" y="-193.3" font-family="Times New Roman,serif" font-size="14.00">I0</text>
<polyline fill="none" stroke="black" points="646.15,-185.5 674.15,-185.5 "/>
<text text-anchor="middle" x="660.15" y="-170.3" font-family="Times New Roman,serif" font-size="14.00">I1</text>
<polyline fill="none" stroke="black" points="646.15,-162.5 674.15,-162.5 "/>
<text text-anchor="middle" x="660.15" y="-147.3" font-family="Times New Roman,serif" font-size="14.00">I2</text>
<polyline fill="none" stroke="black" points="646.15,-139.5 674.15,-139.5 "/>
<text text-anchor="middle" x="660.15" y="-124.3" font-family="Times New Roman,serif" font-size="14.00">I3</text>
<polyline fill="none" stroke="black" points="674.15,-116.5 674.15,-208.5 "/>
<text text-anchor="middle" x="752.65" y="-166.3" font-family="Times New Roman,serif" font-size="14.00">next_state_SB_LUT4_O</text>
<text text-anchor="middle" x="752.65" y="-151.3" font-family="Times New Roman,serif" font-size="14.00">SB_LUT4</text>
<polyline fill="none" stroke="black" points="831.15,-116.5 831.15,-208.5 "/>
<text text-anchor="middle" x="844.65" y="-158.8" font-family="Times New Roman,serif" font-size="14.00">O</text>
</g>
<!-- n3&#45;&gt;c19 -->
<g id="edge14" class="edge">
<title>n3:e&#45;&gt;c19:w</title>
<path fill="none" stroke="#e6ab02" d="M62.47,-88.5C197.79,-88.5 231.62,-88.5 366.94,-88.5 366.94,-88.5 366.94,-88.5 474.55,-88.5 535.4,-88.5 552.44,-88.17 610.15,-107.5 623.58,-112 626.82,-121.5 636.07,-125.58"/>
<polygon fill="#e6ab02" stroke="#e6ab02" points="635.67,-129.06 646.15,-127.5 636.98,-122.19 635.67,-129.06"/>
</g>
<!-- x11 -->
<g id="node22" class="node">
<title>x11</title>
<path fill="none" stroke="black" d="M348.94,-23.5C348.94,-23.5 386.94,-23.5 386.94,-23.5 392.94,-23.5 398.94,-29.5 398.94,-35.5 398.94,-35.5 398.94,-47.5 398.94,-47.5 398.94,-53.5 392.94,-59.5 386.94,-59.5 386.94,-59.5 348.94,-59.5 348.94,-59.5 342.94,-59.5 336.94,-53.5 336.94,-47.5 336.94,-47.5 336.94,-35.5 336.94,-35.5 336.94,-29.5 342.94,-23.5 348.94,-23.5"/>
<text text-anchor="middle" x="367.94" y="-37.8" font-family="Times New Roman,serif" font-size="14.00">0:0 &#45; 0:0</text>
</g>
<!-- n3&#45;&gt;x11 -->
<g id="edge15" class="edge">
<title>n3:e&#45;&gt;x11:w</title>
<path fill="none" stroke="#e6ab02" d="M62.47,-88.5C82.35,-88.5 85.59,-79.03 104.94,-74.5 202.98,-51.56 230.95,-42.13 326.82,-41.53"/>
<polygon fill="#e6ab02" stroke="#e6ab02" points="326.95,-45.03 336.94,-41.5 326.93,-38.03 326.95,-45.03"/>
</g>
<!-- n4 -->
<g id="node4" class="node">
<title>n4</title>
<polygon fill="none" stroke="black" points="1059.25,-180.5 992.05,-162.5 1059.25,-144.5 1126.45,-162.5 1059.25,-180.5"/>
<text text-anchor="middle" x="1059.25" y="-158.8" font-family="Times New Roman,serif" font-size="14.00">next_state</text>
</g>
<!-- x5 -->
<g id="node15" class="node">
<title>x5</title>
<path fill="none" stroke="black" d="M1174.35,-320.5C1174.35,-320.5 1212.35,-320.5 1212.35,-320.5 1218.35,-320.5 1224.35,-326.5 1224.35,-332.5 1224.35,-332.5 1224.35,-344.5 1224.35,-344.5 1224.35,-350.5 1218.35,-356.5 1212.35,-356.5 1212.35,-356.5 1174.35,-356.5 1174.35,-356.5 1168.35,-356.5 1162.35,-350.5 1162.35,-344.5 1162.35,-344.5 1162.35,-332.5 1162.35,-332.5 1162.35,-326.5 1168.35,-320.5 1174.35,-320.5"/>
<text text-anchor="middle" x="1193.35" y="-334.8" font-family="Times New Roman,serif" font-size="14.00">1:1 &#45; 0:0</text>
</g>
<!-- n4&#45;&gt;x5 -->
<g id="edge18" class="edge">
<title>n4:e&#45;&gt;x5:w</title>
<path fill="none" stroke="#e6ab02" d="M1126.35,-162.5C1202.29,-162.5 1094.1,-321.73 1152.06,-337.28"/>
<polygon fill="#e6ab02" stroke="#e6ab02" points="1152.01,-340.8 1162.35,-338.5 1152.83,-333.85 1152.01,-340.8"/>
</g>
<!-- n5 -->
<g id="node5" class="node">
<title>n5</title>
<polygon fill="none" stroke="black" points="1629.35,-539.04 1629.35,-553.96 1613.53,-564.5 1591.16,-564.5 1575.35,-553.96 1575.35,-539.04 1591.16,-528.5 1613.53,-528.5 1629.35,-539.04"/>
<text text-anchor="middle" x="1602.35" y="-542.8" font-family="Times New Roman,serif" font-size="14.00">out</text>
</g>
<!-- n6 -->
<g id="node6" class="node">
<title>n6</title>
<polygon fill="none" stroke="black" points="473.55,-384.5 434.84,-366.5 473.55,-348.5 512.26,-366.5 473.55,-384.5"/>
<text text-anchor="middle" x="473.55" y="-362.8" font-family="Times New Roman,serif" font-size="14.00">state</text>
</g>
<!-- x2 -->
<g id="node10" class="node">
<title>x2</title>
<path fill="none" stroke="black" d="M560.15,-501.5C560.15,-501.5 598.15,-501.5 598.15,-501.5 604.15,-501.5 610.15,-507.5 610.15,-513.5 610.15,-513.5 610.15,-525.5 610.15,-525.5 610.15,-531.5 604.15,-537.5 598.15,-537.5 598.15,-537.5 560.15,-537.5 560.15,-537.5 554.15,-537.5 548.15,-531.5 548.15,-525.5 548.15,-525.5 548.15,-513.5 548.15,-513.5 548.15,-507.5 554.15,-501.5 560.15,-501.5"/>
<text text-anchor="middle" x="579.15" y="-515.8" font-family="Times New Roman,serif" font-size="14.00">1:1 &#45; 0:0</text>
</g>
<!-- n6&#45;&gt;x2 -->
<g id="edge22" class="edge">
<title>n6:e&#45;&gt;x2:w</title>
<path fill="none" stroke="#d95f02" d="M512.15,-366.5C578.19,-366.5 489.12,-503.22 538.19,-518.18"/>
<polygon fill="#d95f02" stroke="#d95f02" points="537.78,-521.65 548.15,-519.5 538.7,-514.71 537.78,-521.65"/>
</g>
<!-- x3 -->
<g id="node11" class="node">
<title>x3</title>
<path fill="none" stroke="black" d="M560.15,-446.5C560.15,-446.5 598.15,-446.5 598.15,-446.5 604.15,-446.5 610.15,-452.5 610.15,-458.5 610.15,-458.5 610.15,-470.5 610.15,-470.5 610.15,-476.5 604.15,-482.5 598.15,-482.5 598.15,-482.5 560.15,-482.5 560.15,-482.5 554.15,-482.5 548.15,-476.5 548.15,-470.5 548.15,-470.5 548.15,-458.5 548.15,-458.5 548.15,-452.5 554.15,-446.5 560.15,-446.5"/>
<text text-anchor="middle" x="579.15" y="-460.8" font-family="Times New Roman,serif" font-size="14.00">0:0 &#45; 0:0</text>
</g>
<!-- n6&#45;&gt;x3 -->
<g id="edge23" class="edge">
<title>n6:e&#45;&gt;x3:w</title>
<path fill="none" stroke="#d95f02" d="M512.15,-366.5C554.57,-366.5 510.75,-448.38 538.34,-462.45"/>
<polygon fill="#d95f02" stroke="#d95f02" points="537.65,-465.88 548.15,-464.5 539.08,-459.03 537.65,-465.88"/>
</g>
<!-- x8 -->
<g id="node19" class="node">
<title>x8</title>
<path fill="none" stroke="black" d="M560.15,-172.5C560.15,-172.5 598.15,-172.5 598.15,-172.5 604.15,-172.5 610.15,-178.5 610.15,-184.5 610.15,-184.5 610.15,-196.5 610.15,-196.5 610.15,-202.5 604.15,-208.5 598.15,-208.5 598.15,-208.5 560.15,-208.5 560.15,-208.5 554.15,-208.5 548.15,-202.5 548.15,-196.5 548.15,-196.5 548.15,-184.5 548.15,-184.5 548.15,-178.5 554.15,-172.5 560.15,-172.5"/>
<text text-anchor="middle" x="579.15" y="-186.8" font-family="Times New Roman,serif" font-size="14.00">1:1 &#45; 0:0</text>
</g>
<!-- n6&#45;&gt;x8 -->
<g id="edge24" class="edge">
<title>n6:e&#45;&gt;x8:w</title>
<path fill="none" stroke="#d95f02" d="M512.15,-366.5C588.09,-366.5 479.9,-207.27 537.86,-191.72"/>
<polygon fill="#d95f02" stroke="#d95f02" points="538.63,-195.15 548.15,-190.5 537.81,-188.2 538.63,-195.15"/>
</g>
<!-- x9 -->
<g id="node20" class="node">
<title>x9</title>
<path fill="none" stroke="black" d="M560.15,-117.5C560.15,-117.5 598.15,-117.5 598.15,-117.5 604.15,-117.5 610.15,-123.5 610.15,-129.5 610.15,-129.5 610.15,-141.5 610.15,-141.5 610.15,-147.5 604.15,-153.5 598.15,-153.5 598.15,-153.5 560.15,-153.5 560.15,-153.5 554.15,-153.5 548.15,-147.5 548.15,-141.5 548.15,-141.5 548.15,-129.5 548.15,-129.5 548.15,-123.5 554.15,-117.5 560.15,-117.5"/>
<text text-anchor="middle" x="579.15" y="-131.8" font-family="Times New Roman,serif" font-size="14.00">0:0 &#45; 0:0</text>
</g>
<!-- n6&#45;&gt;x9 -->
<g id="edge25" class="edge">
<title>n6:e&#45;&gt;x9:w</title>
<path fill="none" stroke="#d95f02" d="M512.15,-366.5C612.2,-366.5 456.62,-152.33 537.69,-136.43"/>
<polygon fill="#d95f02" stroke="#d95f02" points="538.5,-139.87 548.15,-135.5 537.88,-132.9 538.5,-139.87"/>
</g>
<!-- v0 -->
<g id="node7" class="node">
<title>v0</title>
<ellipse fill="none" stroke="black" cx="579.15" cy="-628.5" rx="27" ry="18"/>
<text text-anchor="middle" x="579.15" y="-624.8" font-family="Times New Roman,serif" font-size="14.00">1&#39;0</text>
</g>
<!-- c12 -->
<g id="node9" class="node">
<title>c12</title>
<polygon fill="none" stroke="black" points="665.15,-500.5 665.15,-592.5 839.15,-592.5 839.15,-500.5 665.15,-500.5"/>
<text text-anchor="middle" x="679.15" y="-577.3" font-family="Times New Roman,serif" font-size="14.00">I0</text>
<polyline fill="none" stroke="black" points="665.15,-569.5 693.15,-569.5 "/>
<text text-anchor="middle" x="679.15" y="-554.3" font-family="Times New Roman,serif" font-size="14.00">I1</text>
<polyline fill="none" stroke="black" points="665.15,-546.5 693.15,-546.5 "/>
<text text-anchor="middle" x="679.15" y="-531.3" font-family="Times New Roman,serif" font-size="14.00">I2</text>
<polyline fill="none" stroke="black" points="665.15,-523.5 693.15,-523.5 "/>
<text text-anchor="middle" x="679.15" y="-508.3" font-family="Times New Roman,serif" font-size="14.00">I3</text>
<polyline fill="none" stroke="black" points="693.15,-500.5 693.15,-592.5 "/>
<text text-anchor="middle" x="752.65" y="-550.3" font-family="Times New Roman,serif" font-size="14.00">out_SB_LUT4_O</text>
<text text-anchor="middle" x="752.65" y="-535.3" font-family="Times New Roman,serif" font-size="14.00">SB_LUT4</text>
<polyline fill="none" stroke="black" points="812.15,-500.5 812.15,-592.5 "/>
<text text-anchor="middle" x="825.65" y="-542.8" font-family="Times New Roman,serif" font-size="14.00">O</text>
</g>
<!-- v0&#45;&gt;c12 -->
<g id="edge26" class="edge">
<title>v0:e&#45;&gt;c12:w</title>
<path fill="none" stroke="#d95f02" d="M607.15,-628.5C636.14,-628.5 632.78,-591.87 654.18,-583.29"/>
<polygon fill="#d95f02" stroke="#d95f02" points="654.93,-586.71 664.15,-581.5 653.69,-579.82 654.93,-586.71"/>
</g>
<!-- v1 -->
<g id="node8" class="node">
<title>v1</title>
<ellipse fill="none" stroke="black" cx="579.15" cy="-574.5" rx="27" ry="18"/>
<text text-anchor="middle" x="579.15" y="-570.8" font-family="Times New Roman,serif" font-size="14.00">1&#39;0</text>
</g>
<!-- v1&#45;&gt;c12 -->
<g id="edge27" class="edge">
<title>v1:e&#45;&gt;c12:w</title>
<path fill="none" stroke="#1b9e77" d="M607.15,-574.5C629.56,-574.5 636.06,-562.9 653.74,-559.45"/>
<polygon fill="#1b9e77" stroke="#1b9e77" points="654.51,-562.9 664.15,-558.5 653.87,-555.93 654.51,-562.9"/>
</g>
<!-- c12&#45;&gt;n5 -->
<g id="edge19" class="edge">
<title>c12:e&#45;&gt;n5:w</title>
<path fill="none" stroke="#d95f02" d="M840.15,-546.5C937.08,-546.5 961.32,-546.5 1058.25,-546.5 1058.25,-546.5 1058.25,-546.5 1351.85,-546.5 1447.69,-546.5 1474.18,-546.5 1565.14,-546.5"/>
<polygon fill="#d95f02" stroke="#d95f02" points="1565.35,-550 1575.35,-546.5 1565.35,-543 1565.35,-550"/>
</g>
<!-- x2&#45;&gt;c12 -->
<g id="edge1" class="edge">
<title>x2:e&#45;&gt;c12:w</title>
<path fill="none" stroke="#66a61e" d="M622.25,-520.88C633.82,-523.73 640.37,-530.2 651.89,-533.08"/>
<polygon fill="none" stroke="#66a61e" points="622.07,-520.86 615.66,-524.16 610.15,-519.5 616.57,-516.21 622.07,-520.86"/>
<polygon fill="none" stroke="#66a61e" points="652.23,-533.11 658.65,-529.83 664.15,-534.5 657.73,-537.78 652.23,-533.11"/>
</g>
<!-- x3&#45;&gt;c12 -->
<g id="edge2" class="edge">
<title>x3:e&#45;&gt;c12:w</title>
<path fill="none" stroke="#1b9e77" d="M621.85,-467.3C636.76,-475.6 637.44,-500.03 652.16,-508.54"/>
<polygon fill="none" stroke="#1b9e77" points="621.82,-467.29 615.06,-469.79 610.15,-464.5 616.92,-462.01 621.82,-467.29"/>
<polygon fill="none" stroke="#1b9e77" points="652.5,-508.62 659.29,-506.18 664.15,-511.5 657.37,-513.94 652.5,-508.62"/>
</g>
<!-- x4 -->
<g id="node13" class="node">
<title>x4</title>
<path fill="none" stroke="black" d="M348.94,-344.5C348.94,-344.5 386.94,-344.5 386.94,-344.5 392.94,-344.5 398.94,-350.5 398.94,-356.5 398.94,-356.5 398.94,-368.5 398.94,-368.5 398.94,-374.5 392.94,-380.5 386.94,-380.5 386.94,-380.5 348.94,-380.5 348.94,-380.5 342.94,-380.5 336.94,-374.5 336.94,-368.5 336.94,-368.5 336.94,-356.5 336.94,-356.5 336.94,-350.5 342.94,-344.5 348.94,-344.5"/>
<text text-anchor="middle" x="367.94" y="-358.8" font-family="Times New Roman,serif" font-size="14.00">0:0 &#45; 0:0</text>
</g>
<!-- c17&#45;&gt;x4 -->
<g id="edge3" class="edge">
<title>c17:e&#45;&gt;x4:w</title>
<path fill="none" stroke="#1b9e77" d="M313,-356.28C317.23,-357.6 320.67,-359.4 324.9,-360.73"/>
<polygon fill="none" stroke="#1b9e77" points="312.81,-356.25 306.3,-359.33 300.94,-354.5 307.46,-351.42 312.81,-356.25"/>
<polygon fill="none" stroke="#1b9e77" points="325.07,-360.75 331.59,-357.67 336.94,-362.5 330.42,-365.58 325.07,-360.75"/>
</g>
<!-- x4&#45;&gt;n6 -->
<g id="edge20" class="edge">
<title>x4:e&#45;&gt;n6:w</title>
<path fill="none" stroke="#d95f02" d="M398.94,-362.5C411.02,-362.5 416.17,-364.75 424.79,-365.88"/>
<polygon fill="#d95f02" stroke="#d95f02" points="424.75,-369.38 434.94,-366.5 425.18,-362.39 424.75,-369.38"/>
</g>
<!-- x6 -->
<g id="node16" class="node">
<title>x6</title>
<path fill="none" stroke="black" d="M1489.35,-368.5C1489.35,-368.5 1527.35,-368.5 1527.35,-368.5 1533.35,-368.5 1539.35,-374.5 1539.35,-380.5 1539.35,-380.5 1539.35,-392.5 1539.35,-392.5 1539.35,-398.5 1533.35,-404.5 1527.35,-404.5 1527.35,-404.5 1489.35,-404.5 1489.35,-404.5 1483.35,-404.5 1477.35,-398.5 1477.35,-392.5 1477.35,-392.5 1477.35,-380.5 1477.35,-380.5 1477.35,-374.5 1483.35,-368.5 1489.35,-368.5"/>
<text text-anchor="middle" x="1508.35" y="-382.8" font-family="Times New Roman,serif" font-size="14.00">0:0 &#45; 1:1</text>
</g>
<!-- c18&#45;&gt;x6 -->
<g id="edge5" class="edge">
<title>c18:e&#45;&gt;x6:w</title>
<path fill="none" stroke="#e7298a" d="M1452.65,-354.34C1458.87,-361.39 1459.78,-374.42 1465.94,-381.54"/>
<polygon fill="none" stroke="#e7298a" points="1452.38,-354.22 1445.29,-355.54 1441.35,-349.5 1448.44,-348.18 1452.38,-354.22"/>
<polygon fill="none" stroke="#e7298a" points="1466.34,-381.72 1473.44,-380.44 1477.35,-386.5 1470.25,-387.78 1466.34,-381.72"/>
</g>
<!-- x5&#45;&gt;c18 -->
<g id="edge4" class="edge">
<title>x5:e&#45;&gt;c18:w</title>
<path fill="none" stroke="#7570b3" d="M1236.24,-340.83C1240.63,-342.7 1244.07,-345.3 1248.47,-347.17"/>
<polygon fill="none" stroke="#7570b3" points="1236.12,-340.81 1229.47,-343.58 1224.35,-338.5 1231.01,-335.73 1236.12,-340.81"/>
<polygon fill="none" stroke="#7570b3" points="1248.57,-347.19 1255.23,-344.42 1260.35,-349.5 1253.69,-352.27 1248.57,-347.19"/>
</g>
<!-- x6&#45;&gt;n6 -->
<g id="edge21" class="edge">
<title>x6:e&#45;&gt;n6:w</title>
<path fill="none" stroke="#d95f02" d="M1540.35,-386.5C1548.58,-386.5 1545.33,-399.34 1539.35,-405 1519.34,-423.95 1504.9,-405.27 1477.35,-405 1448.38,-404.72 455.4,-404.62 434.55,-384.5 432.2,-382.24 430.28,-378.85 429.35,-375.61"/>
<polygon fill="#d95f02" stroke="#d95f02" points="432.54,-377.05 433.55,-366.5 426.19,-374.12 432.54,-377.05"/>
</g>
<!-- v7 -->
<g id="node17" class="node">
<title>v7</title>
<ellipse fill="none" stroke="black" cx="579.15" cy="-245.5" rx="27" ry="18"/>
<text text-anchor="middle" x="579.15" y="-241.8" font-family="Times New Roman,serif" font-size="14.00">1&#39;0</text>
</g>
<!-- v7&#45;&gt;c19 -->
<g id="edge28" class="edge">
<title>v7:e&#45;&gt;c19:w</title>
<path fill="none" stroke="#1b9e77" d="M607.15,-245.5C630.56,-245.5 622.45,-210.69 636.5,-200.36"/>
<polygon fill="#1b9e77" stroke="#1b9e77" points="637.56,-203.7 646.15,-197.5 635.57,-196.98 637.56,-203.7"/>
</g>
<!-- x10 -->
<g id="node21" class="node">
<title>x10</title>
<path fill="none" stroke="black" d="M906.15,-144.5C906.15,-144.5 944.15,-144.5 944.15,-144.5 950.15,-144.5 956.15,-150.5 956.15,-156.5 956.15,-156.5 956.15,-168.5 956.15,-168.5 956.15,-174.5 950.15,-180.5 944.15,-180.5 944.15,-180.5 906.15,-180.5 906.15,-180.5 900.15,-180.5 894.15,-174.5 894.15,-168.5 894.15,-168.5 894.15,-156.5 894.15,-156.5 894.15,-150.5 900.15,-144.5 906.15,-144.5"/>
<text text-anchor="middle" x="925.15" y="-158.8" font-family="Times New Roman,serif" font-size="14.00">0:0 &#45; 1:1</text>
</g>
<!-- c19&#45;&gt;x10 -->
<g id="edge8" class="edge">
<title>c19:e&#45;&gt;x10:w</title>
<path fill="none" stroke="#d95f02" d="M870.37,-162.5C874.45,-162.5 877.89,-162.5 881.97,-162.5"/>
<polygon fill="none" stroke="#d95f02" points="870.15,-162.5 864.15,-166.5 858.15,-162.5 864.15,-158.5 870.15,-162.5"/>
<polygon fill="none" stroke="#d95f02" points="882.15,-162.5 888.15,-158.5 894.15,-162.5 888.15,-166.5 882.15,-162.5"/>
</g>
<!-- x8&#45;&gt;c19 -->
<g id="edge6" class="edge">
<title>x8:e&#45;&gt;c19:w</title>
<path fill="none" stroke="#e7298a" d="M621.99,-187.26C626.51,-184.49 629.8,-180.51 634.32,-177.73"/>
<polygon fill="none" stroke="#e7298a" points="621.73,-187.33 616.99,-192.78 610.15,-190.5 614.88,-185.06 621.73,-187.33"/>
<polygon fill="none" stroke="#e7298a" points="634.58,-177.66 639.31,-172.22 646.15,-174.5 641.42,-179.94 634.58,-177.66"/>
</g>
<!-- x9&#45;&gt;c19 -->
<g id="edge7" class="edge">
<title>x9:e&#45;&gt;c19:w</title>
<path fill="none" stroke="#7570b3" d="M621.94,-138.54C626.49,-141.14 629.82,-144.87 634.37,-147.47"/>
<polygon fill="none" stroke="#7570b3" points="621.77,-138.49 614.97,-140.87 610.15,-135.5 616.96,-133.12 621.77,-138.49"/>
<polygon fill="none" stroke="#7570b3" points="634.53,-147.51 641.34,-145.13 646.15,-150.5 639.34,-152.88 634.53,-147.51"/>
</g>
<!-- x10&#45;&gt;n4 -->
<g id="edge16" class="edge">
<title>x10:e&#45;&gt;n4:w</title>
<path fill="none" stroke="#e6ab02" d="M956.15,-162.5C968.15,-162.5 973.4,-162.5 982.03,-162.5"/>
<polygon fill="#e6ab02" stroke="#e6ab02" points="982.15,-166 992.15,-162.5 982.15,-159 982.15,-166"/>
</g>
<!-- x11&#45;&gt;n4 -->
<g id="edge17" class="edge">
<title>x11:e&#45;&gt;n4:w</title>
<path fill="none" stroke="#e6ab02" d="M398.94,-41.5C478.62,-41.5 498.47,-46.5 578.15,-46.5 578.15,-46.5 578.15,-46.5 753.15,-46.5 851.49,-46.5 871.56,-84.36 956.15,-134.5 970.05,-142.74 971.79,-155.63 982.18,-160.52"/>
<polygon fill="#e6ab02" stroke="#e6ab02" points="981.66,-163.99 992.15,-162.5 983.02,-157.12 981.66,-163.99"/>
</g>
</g>
</svg>
