<svg xmlns="http://www.w3.org/2000/svg" xmlns:xlink="http://www.w3.org/1999/xlink" xmlns:s="https://github.com/nturley/netlistsvg" width="942" height="420.5">
  <style>svg {
    stroke:#000;
    fill:none;
  }
  text {
    fill:#000;
    stroke:none;
    font-size:10px;
    font-weight: bold;
    font-family: "Courier New", monospace;
  }
  .nodelabel {
    text-anchor: middle;
  }
  .inputPortLabel {
    text-anchor: end;
  }
  .splitjoinBody {
    fill:#000;
  }</style>
  <g s:type="generic" transform="translate(279,217)" s:width="30" s:height="40" id="cell_$auto$opt_reduce.cc:128:opt_mux$15">
    <text x="15" y="-4" class="nodelabel cell_$auto$opt_reduce.cc:128:opt_mux$15" s:attribute="ref">$reduce_or</text>
    <rect width="30" height="20" s:generic="body" class="cell_$auto$opt_reduce.cc:128:opt_mux$15"/>
    <g transform="translate(0,10)" s:x="0" s:y="10" s:pid="in0" id="port_$auto$opt_reduce.cc:128:opt_mux$15~A">
      <text x="-3" y="-4" class="inputPortLabel cell_$auto$opt_reduce.cc:128:opt_mux$15">A</text>
    </g>
    <g transform="translate(30,10)" s:x="30" s:y="10" s:pid="out0" id="port_$auto$opt_reduce.cc:128:opt_mux$15~Y">
      <text x="5" y="-4" style="fill:#000; stroke:none" class="cell_$auto$opt_reduce.cc:128:opt_mux$15">Y</text>
    </g>
  </g>
  <g s:type="generic" transform="translate(279,352)" s:width="30" s:height="40" id="cell_$auto$opt_reduce.cc:128:opt_mux$17">
    <text x="15" y="-4" class="nodelabel cell_$auto$opt_reduce.cc:128:opt_mux$17" s:attribute="ref">$reduce_or</text>
    <rect width="30" height="20" s:generic="body" class="cell_$auto$opt_reduce.cc:128:opt_mux$17"/>
    <g transform="translate(0,10)" s:x="0" s:y="10" s:pid="in0" id="port_$auto$opt_reduce.cc:128:opt_mux$17~A">
      <text x="-3" y="-4" class="inputPortLabel cell_$auto$opt_reduce.cc:128:opt_mux$17">A</text>
    </g>
    <g transform="translate(30,10)" s:x="30" s:y="10" s:pid="out0" id="port_$auto$opt_reduce.cc:128:opt_mux$17~Y">
      <text x="5" y="-4" style="fill:#000; stroke:none" class="cell_$auto$opt_reduce.cc:128:opt_mux$17">Y</text>
    </g>
  </g>
  <g s:type="generic" transform="translate(679,206.5)" s:width="30" s:height="40" id="cell_$procdff$14">
    <text x="15" y="-4" class="nodelabel cell_$procdff$14" s:attribute="ref">$adff</text>
    <rect width="30" height="60" s:generic="body" class="cell_$procdff$14"/>
    <g transform="translate(0,10)" s:x="0" s:y="10" s:pid="in0" id="port_$procdff$14~ARST">
      <text x="-3" y="-4" class="inputPortLabel cell_$procdff$14">ARST</text>
    </g>
    <g transform="translate(0,30)" s:x="0" s:y="10" s:pid="in0" id="port_$procdff$14~CLK">
      <text x="-3" y="-4" class="inputPortLabel cell_$procdff$14">CLK</text>
    </g>
    <g transform="translate(0,50)" s:x="0" s:y="10" s:pid="in0" id="port_$procdff$14~D">
      <text x="-3" y="-4" class="inputPortLabel cell_$procdff$14">D</text>
    </g>
    <g transform="translate(30,10)" s:x="30" s:y="10" s:pid="out0" id="port_$procdff$14~Q">
      <text x="5" y="-4" style="fill:#000; stroke:none" class="cell_$procdff$14">Q</text>
    </g>
  </g>
  <g s:type="eq" transform="translate(336.3333333333333,275)" s:width="25" s:height="25" id="cell_$procmux$10_CMP0">
    <s:alias val="$eq"/>
    <circle r="12.5" cx="12.5" cy="12.5" class="cell_$procmux$10_CMP0"/>
    <line x1="7.5" x2="17.5" y1="10" y2="10" class="cell_$procmux$10_CMP0"/>
    <line x1="7.5" x2="17.5" y1="15" y2="15" class="cell_$procmux$10_CMP0"/>
    <g s:x="3" s:y="5" s:pid="A"/>
    <g s:x="3" s:y="20" s:pid="B"/>
    <g s:x="25" s:y="12.5" s:pid="Y"/>
  </g>
  <g s:type="eq" transform="translate(143.66666666666666,302.5)" s:width="25" s:height="25" id="cell_$procmux$11_CMP0">
    <s:alias val="$eq"/>
    <circle r="12.5" cx="12.5" cy="12.5" class="cell_$procmux$11_CMP0"/>
    <line x1="7.5" x2="17.5" y1="10" y2="10" class="cell_$procmux$11_CMP0"/>
    <line x1="7.5" x2="17.5" y1="15" y2="15" class="cell_$procmux$11_CMP0"/>
    <g s:x="3" s:y="5" s:pid="A"/>
    <g s:x="3" s:y="20" s:pid="B"/>
    <g s:x="25" s:y="12.5" s:pid="Y"/>
  </g>
  <g s:type="eq" transform="translate(143.66666666666666,63)" s:width="25" s:height="25" id="cell_$procmux$12_CMP0">
    <s:alias val="$eq"/>
    <circle r="12.5" cx="12.5" cy="12.5" class="cell_$procmux$12_CMP0"/>
    <line x1="7.5" x2="17.5" y1="10" y2="10" class="cell_$procmux$12_CMP0"/>
    <line x1="7.5" x2="17.5" y1="15" y2="15" class="cell_$procmux$12_CMP0"/>
    <g s:x="3" s:y="5" s:pid="A"/>
    <g s:x="3" s:y="20" s:pid="B"/>
    <g s:x="25" s:y="12.5" s:pid="Y"/>
  </g>
  <g s:type="not" transform="translate(142,362.5)" s:width="30" s:height="20" id="cell_$procmux$13_CMP0">
    <s:alias val="$_NOT_"/>
    <s:alias val="$not"/>
    <s:alias val="$logic_not"/>
    <path d="M0,0 L0,20 L20,10 Z" class="cell_$procmux$13_CMP0"/>
    <circle cx="23" cy="10" r="3" class="cell_$procmux$13_CMP0"/>
    <g s:x="0" s:y="10" s:pid="A"/>
    <g s:x="25" s:y="10" s:pid="Y"/>
  </g>
  <g s:type="mux" transform="translate(845,22)" s:width="20" s:height="40" id="cell_$procmux$5">
    <s:alias val="$pmux"/>
    <s:alias val="$mux"/>
    <s:alias val="$_MUX_"/>
    <path d="M0,0 L20,10 L20,30 L0,40 Z" class="cell_$procmux$5"/>
    <g s:x="0" s:y="10" s:pid="A"/>
    <g s:x="0" s:y="30" s:pid="B"/>
    <g s:x="10" s:y="35" s:pid="S"/>
    <g s:x="20" s:y="20" s:pid="Y"/>
  </g>
  <g s:type="eq" transform="translate(781.6666666666666,383.5)" s:width="25" s:height="25" id="cell_$procmux$6_CMP0">
    <s:alias val="$eq"/>
    <circle r="12.5" cx="12.5" cy="12.5" class="cell_$procmux$6_CMP0"/>
    <line x1="7.5" x2="17.5" y1="10" y2="10" class="cell_$procmux$6_CMP0"/>
    <line x1="7.5" x2="17.5" y1="15" y2="15" class="cell_$procmux$6_CMP0"/>
    <g s:x="3" s:y="5" s:pid="A"/>
    <g s:x="3" s:y="20" s:pid="B"/>
    <g s:x="25" s:y="12.5" s:pid="Y"/>
  </g>
  <g s:type="mux" transform="translate(588.3333333333334,237)" s:width="20" s:height="40" id="cell_$procmux$8">
    <s:alias val="$pmux"/>
    <s:alias val="$mux"/>
    <s:alias val="$_MUX_"/>
    <path d="M0,0 L20,10 L20,30 L0,40 Z" class="cell_$procmux$8"/>
    <g s:x="0" s:y="10" s:pid="A"/>
    <g s:x="0" s:y="30" s:pid="B"/>
    <g s:x="10" s:y="35" s:pid="S"/>
    <g s:x="20" s:y="20" s:pid="Y"/>
  </g>
  <g s:type="eq" transform="translate(143.66666666666666,205)" s:width="25" s:height="25" id="cell_$procmux$9_CMP0">
    <s:alias val="$eq"/>
    <circle r="12.5" cx="12.5" cy="12.5" class="cell_$procmux$9_CMP0"/>
    <line x1="7.5" x2="17.5" y1="10" y2="10" class="cell_$procmux$9_CMP0"/>
    <line x1="7.5" x2="17.5" y1="15" y2="15" class="cell_$procmux$9_CMP0"/>
    <g s:x="3" s:y="5" s:pid="A"/>
    <g s:x="3" s:y="20" s:pid="B"/>
    <g s:x="25" s:y="12.5" s:pid="Y"/>
  </g>
  <g s:type="inputExt" transform="translate(583,182)" s:width="30" s:height="20" id="cell_clk">
    <text x="15" y="-4" class="nodelabel cell_clk" s:attribute="ref">clk</text>
    <s:alias val="$_inputExt_"/>
    <path d="M0,0 L0,20 L15,20 L30,10 L15,0 Z" class="cell_clk"/>
    <g s:x="28" s:y="10" s:pid="Y"/>
  </g>
  <g s:type="inputExt" transform="translate(12,150.5)" s:width="30" s:height="20" id="cell_in">
    <text x="15" y="-4" class="nodelabel cell_in" s:attribute="ref">in</text>
    <s:alias val="$_inputExt_"/>
    <path d="M0,0 L0,20 L15,20 L30,10 L15,0 Z" class="cell_in"/>
    <g s:x="28" s:y="10" s:pid="Y"/>
  </g>
  <g s:type="inputExt" transform="translate(583,117)" s:width="30" s:height="20" id="cell_areset">
    <text x="15" y="-4" class="nodelabel cell_areset" s:attribute="ref">areset</text>
    <s:alias val="$_inputExt_"/>
    <path d="M0,0 L0,20 L15,20 L30,10 L15,0 Z" class="cell_areset"/>
    <g s:x="28" s:y="10" s:pid="Y"/>
  </g>
  <g s:type="outputExt" transform="translate(900,32)" s:width="30" s:height="20" id="cell_out">
    <text x="15" y="-4" class="nodelabel cell_out" s:attribute="ref">out</text>
    <s:alias val="$_outputExt_"/>
    <path d="M30,0 L30,20 L15,20 L0,10 L15,0 Z" class="cell_out"/>
    <g s:x="0" s:y="10" s:pid="A"/>
  </g>
  <g s:type="constant" transform="translate(207,285)" s:width="30" s:height="20" id="cell_110">
    <text x="15" y="-4" class="nodelabel cell_110" s:attribute="ref">110</text>
    <s:alias val="$_constant_"/>
    <rect width="30" height="20" class="cell_110"/>
    <g s:x="30" s:y="10" s:pid="Y"/>
  </g>
  <g s:type="constant" transform="translate(77,312.5)" s:width="30" s:height="20" id="cell_10">
    <text x="15" y="-4" class="nodelabel cell_10" s:attribute="ref">10</text>
    <s:alias val="$_constant_"/>
    <rect width="30" height="20" class="cell_10"/>
    <g s:x="30" s:y="10" s:pid="Y"/>
  </g>
  <g s:type="constant" transform="translate(77,73)" s:width="30" s:height="20" id="cell_1">
    <text x="15" y="-4" class="nodelabel cell_1" s:attribute="ref">1</text>
    <s:alias val="$_constant_"/>
    <rect width="30" height="20" class="cell_1"/>
    <g s:x="30" s:y="10" s:pid="Y"/>
  </g>
  <g s:type="constant" transform="translate(780,22)" s:width="30" s:height="20" id="cell_0">
    <text x="15" y="-4" class="nodelabel cell_0" s:attribute="ref">0</text>
    <s:alias val="$_constant_"/>
    <rect width="30" height="20" class="cell_0"/>
    <g s:x="30" s:y="10" s:pid="Y"/>
  </g>
  <g s:type="constant" transform="translate(77,215)" s:width="30" s:height="20" id="cell_11">
    <text x="15" y="-4" class="nodelabel cell_11" s:attribute="ref">11</text>
    <s:alias val="$_constant_"/>
    <rect width="30" height="20" class="cell_11"/>
    <g s:x="30" s:y="10" s:pid="Y"/>
  </g>
  <g s:type="constant" transform="translate(518,192)" s:width="30" s:height="20" id="cell_01">
    <text x="15" y="-4" class="nodelabel cell_01" s:attribute="ref">01</text>
    <s:alias val="$_constant_"/>
    <rect width="30" height="20" class="cell_01"/>
    <g s:x="30" s:y="10" s:pid="Y"/>
  </g>
  <g s:type="constant" transform="translate(518,257)" s:width="30" s:height="20" id="cell_001110">
    <text x="15" y="-4" class="nodelabel cell_001110" s:attribute="ref">0xe</text>
    <s:alias val="$_constant_"/>
    <rect width="30" height="20" class="cell_001110"/>
    <g s:x="30" s:y="10" s:pid="Y"/>
  </g>
  <g s:type="join" transform="translate(218,207)" s:width="4" s:height="40" id="cell_$join$,6,7,">
    <rect width="5" height="40" class="splitjoinBody" s:generic="body"/>
    <s:alias val="$_join_"/>
    <g s:x="5" s:y="20" s:pid="out"/>
    <g transform="translate(0,10)" s:x="0" s:y="10" s:pid="in0">
      <text x="-3" y="-4" class="inputPortLabel">0</text>
    </g>
    <g transform="translate(0,30)" s:x="0" s:y="10" s:pid="in0">
      <text x="-3" y="-4" class="inputPortLabel">1</text>
    </g>
  </g>
  <g s:type="join" transform="translate(218,342)" s:width="4" s:height="40" id="cell_$join$,9,10,">
    <rect width="5" height="40" class="splitjoinBody" s:generic="body"/>
    <s:alias val="$_join_"/>
    <g s:x="5" s:y="20" s:pid="out"/>
    <g transform="translate(0,10)" s:x="0" s:y="10" s:pid="in0">
      <text x="-3" y="-4" class="inputPortLabel">0</text>
    </g>
    <g transform="translate(0,30)" s:x="0" s:y="10" s:pid="in0">
      <text x="-3" y="-4" class="inputPortLabel">1</text>
    </g>
  </g>
  <g s:type="join" transform="translate(96,130)" s:width="4" s:height="40" id="cell_$join$,14,15,3,">
    <rect width="5" height="40" class="splitjoinBody" s:generic="body"/>
    <s:alias val="$_join_"/>
    <g s:x="5" s:y="20" s:pid="out"/>
    <g transform="translate(0,10)" s:x="0" s:y="10" s:pid="in0">
      <text x="-3" y="-4" class="inputPortLabel">0:1</text>
    </g>
    <g transform="translate(0,30)" s:x="0" s:y="10" s:pid="in0">
      <text x="-3" y="-4" class="inputPortLabel">2</text>
    </g>
  </g>
  <g s:type="join" transform="translate(528,312)" s:width="4" s:height="40" id="cell_$join$,8,16,11,">
    <rect width="5" height="60" class="splitjoinBody" s:generic="body"/>
    <s:alias val="$_join_"/>
    <g s:x="5" s:y="20" s:pid="out"/>
    <g transform="translate(0,10)" s:x="0" s:y="10" s:pid="in0">
      <text x="-3" y="-4" class="inputPortLabel">0</text>
    </g>
    <g transform="translate(0,30)" s:x="0" s:y="10" s:pid="in0">
      <text x="-3" y="-4" class="inputPortLabel">1</text>
    </g>
    <g transform="translate(0,50)" s:x="0" s:y="10" s:pid="in0">
      <text x="-3" y="-4" class="inputPortLabel">2</text>
    </g>
  </g>
  <line x1="224" x2="279" y1="227.5" y2="227.5" class="net_6,7"/>
  <line x1="224" x2="279" y1="362.5" y2="362.5" class="net_9,10"/>
  <line x1="611" x2="639" y1="127" y2="127" class="net_4"/>
  <line x1="639" x2="639" y1="127" y2="217" class="net_4"/>
  <line x1="639" x2="679" y1="217" y2="217" class="net_4"/>
  <line x1="611" x2="629" y1="192" y2="192" class="net_2"/>
  <line x1="629" x2="629" y1="192" y2="237" class="net_2"/>
  <line x1="629" x2="679" y1="237" y2="237" class="net_2"/>
  <line x1="608.3333333333334" x2="679" y1="257" y2="257" class="net_12,13"/>
  <line x1="102" x2="127" y1="150.5" y2="150.5" class="net_14,15,3"/>
  <line x1="127" x2="127" y1="150.5" y2="264" class="net_14,15,3"/>
  <line x1="127" x2="247" y1="264" y2="264" class="net_14,15,3"/>
  <line x1="247" x2="247" y1="264" y2="280" class="net_14,15,3"/>
  <circle cx="127" cy="150.5" r="2" style="fill:#000" class="net_14,15,3"/>
  <circle cx="127" cy="264" r="2" style="fill:#000" class="net_14,15,3"/>
  <line x1="247" x2="339.3333333333333" y1="280" y2="280" class="net_14,15,3"/>
  <line x1="102" x2="127" y1="150.5" y2="150.5" class="net_14,15,3"/>
  <line x1="127" x2="127" y1="150.5" y2="307.5" class="net_14,15,3"/>
  <circle cx="127" cy="307.5" r="2" style="fill:#000" class="net_14,15,3"/>
  <line x1="127" x2="146.66666666666666" y1="307.5" y2="307.5" class="net_14,15,3"/>
  <line x1="102" x2="127" y1="150.5" y2="150.5" class="net_14,15,3"/>
  <line x1="127" x2="127" y1="150.5" y2="68" class="net_14,15,3"/>
  <line x1="127" x2="146.66666666666666" y1="68" y2="68" class="net_14,15,3"/>
  <line x1="102" x2="127" y1="150.5" y2="150.5" class="net_14,15,3"/>
  <line x1="127" x2="127" y1="150.5" y2="372.5" class="net_14,15,3"/>
  <line x1="127" x2="142" y1="372.5" y2="372.5" class="net_14,15,3"/>
  <line x1="102" x2="127" y1="150.5" y2="150.5" class="net_14,15,3"/>
  <line x1="127" x2="127" y1="150.5" y2="210" class="net_14,15,3"/>
  <circle cx="127" cy="210" r="2" style="fill:#000" class="net_14,15,3"/>
  <line x1="127" x2="146.66666666666666" y1="210" y2="210" class="net_14,15,3"/>
  <line x1="237" x2="339.3333333333333" y1="295" y2="295" class="net_18,19,20"/>
  <line x1="107" x2="146.66666666666666" y1="322.5" y2="322.5" class="net_21,22"/>
  <line x1="107" x2="146.66666666666666" y1="83" y2="83" class="net_23"/>
  <line x1="107" x2="117" y1="83" y2="83" class="net_23"/>
  <line x1="117" x2="117" y1="83" y2="52" class="net_23"/>
  <circle cx="117" cy="83" r="2" style="fill:#000" class="net_23"/>
  <line x1="117" x2="845" y1="52" y2="52" class="net_23"/>
  <line x1="810" x2="845" y1="32" y2="32" class="net_24"/>
  <line x1="806.6666666666666" x2="855" y1="396" y2="396" class="net_17"/>
  <line x1="855" x2="855" y1="396" y2="57" class="net_17"/>
  <line x1="710" x2="755" y1="217" y2="217" class="net_14,15"/>
  <line x1="755" x2="755" y1="217" y2="388.5" class="net_14,15"/>
  <circle cx="755" cy="388.5" r="2" style="fill:#000" class="net_14,15"/>
  <line x1="755" x2="784.6666666666666" y1="388.5" y2="388.5" class="net_14,15"/>
  <line x1="710" x2="755" y1="217" y2="217" class="net_14,15"/>
  <line x1="755" x2="755" y1="217" y2="392.5" class="net_14,15"/>
  <line x1="755" x2="52" y1="392.5" y2="392.5" class="net_14,15"/>
  <line x1="52" x2="52" y1="392.5" y2="140.5" class="net_14,15"/>
  <line x1="52" x2="96" y1="140.5" y2="140.5" class="net_14,15"/>
  <line x1="107" x2="117" y1="225" y2="225" class="net_26,27"/>
  <line x1="117" x2="117" y1="225" y2="403.5" class="net_26,27"/>
  <circle cx="117" cy="225" r="2" style="fill:#000" class="net_26,27"/>
  <line x1="117" x2="784.6666666666666" y1="403.5" y2="403.5" class="net_26,27"/>
  <line x1="107" x2="146.66666666666666" y1="225" y2="225" class="net_26,27"/>
  <line x1="548" x2="558" y1="202" y2="202" class="net_28,29"/>
  <line x1="558" x2="558" y1="202" y2="247" class="net_28,29"/>
  <line x1="558" x2="588.3333333333334" y1="247" y2="247" class="net_28,29"/>
  <line x1="548" x2="588.3333333333334" y1="267" y2="267" class="net_30,31,32,33,34,35"/>
  <line x1="534" x2="598.3333333333334" y1="332.5" y2="332.5" class="net_8,16,11"/>
  <line x1="598.3333333333334" x2="598.3333333333334" y1="332.5" y2="272" class="net_8,16,11"/>
  <line x1="865" x2="900" y1="42" y2="42" class="net_5"/>
  <line x1="168.66666666666666" x2="218" y1="217.5" y2="217.5" class="net_6"/>
  <line x1="168.66666666666666" x2="182" y1="75.5" y2="75.5" class="net_7"/>
  <line x1="182" x2="182" y1="75.5" y2="237.5" class="net_7"/>
  <line x1="182" x2="218" y1="237.5" y2="237.5" class="net_7"/>
  <line x1="168.66666666666666" x2="182" y1="315" y2="315" class="net_9"/>
  <line x1="182" x2="182" y1="315" y2="352.5" class="net_9"/>
  <line x1="182" x2="218" y1="352.5" y2="352.5" class="net_9"/>
  <line x1="167" x2="218" y1="372.5" y2="372.5" class="net_10"/>
  <line x1="40" x2="96" y1="160.5" y2="160.5" class="net_3"/>
  <line x1="310" x2="503" y1="227.5" y2="227.5" class="net_8"/>
  <line x1="503" x2="503" y1="227.5" y2="322.5" class="net_8"/>
  <line x1="503" x2="528" y1="322.5" y2="322.5" class="net_8"/>
  <line x1="361.3333333333333" x2="493" y1="287.5" y2="287.5" class="net_16"/>
  <line x1="493" x2="493" y1="287.5" y2="342.5" class="net_16"/>
  <line x1="493" x2="528" y1="342.5" y2="342.5" class="net_16"/>
  <line x1="310" x2="528" y1="362.5" y2="362.5" class="net_11"/>
</svg>
