<svg xmlns="http://www.w3.org/2000/svg" xmlns:xlink="http://www.w3.org/1999/xlink" xmlns:s="https://github.com/nturley/netlistsvg" width="1159" height="423">
  <style>svg {
    stroke:#000;
    fill:none;
  }
  text {
    fill:#000;
    stroke:none;
    font-size:10px;
    font-weight: bold;
    font-family: "Courier New", monospace;
  }
  .nodelabel {
    text-anchor: middle;
  }
  .inputPortLabel {
    text-anchor: end;
  }
  .splitjoinBody {
    fill:#000;
  }</style>
  <g s:type="generic" transform="translate(257,156)" s:width="30" s:height="40" id="cell_$auto$opt_reduce.cc:128:opt_mux$18">
    <text x="15" y="-4" class="nodelabel cell_$auto$opt_reduce.cc:128:opt_mux$18" s:attribute="ref">$reduce_or</text>
    <rect width="30" height="20" s:generic="body" class="cell_$auto$opt_reduce.cc:128:opt_mux$18"/>
    <g transform="translate(0,10)" s:x="0" s:y="10" s:pid="in0" id="port_$auto$opt_reduce.cc:128:opt_mux$18~A">
      <text x="-3" y="-4" class="inputPortLabel cell_$auto$opt_reduce.cc:128:opt_mux$18">A</text>
    </g>
    <g transform="translate(30,10)" s:x="30" s:y="10" s:pid="out0" id="port_$auto$opt_reduce.cc:128:opt_mux$18~Y">
      <text x="5" y="-4" style="fill:#000; stroke:none" class="cell_$auto$opt_reduce.cc:128:opt_mux$18">Y</text>
    </g>
  </g>
  <g s:type="generic" transform="translate(257,343)" s:width="30" s:height="40" id="cell_$auto$opt_reduce.cc:128:opt_mux$20">
    <text x="15" y="-4" class="nodelabel cell_$auto$opt_reduce.cc:128:opt_mux$20" s:attribute="ref">$reduce_or</text>
    <rect width="30" height="20" s:generic="body" class="cell_$auto$opt_reduce.cc:128:opt_mux$20"/>
    <g transform="translate(0,10)" s:x="0" s:y="10" s:pid="in0" id="port_$auto$opt_reduce.cc:128:opt_mux$20~A">
      <text x="-3" y="-4" class="inputPortLabel cell_$auto$opt_reduce.cc:128:opt_mux$20">A</text>
    </g>
    <g transform="translate(30,10)" s:x="30" s:y="10" s:pid="out0" id="port_$auto$opt_reduce.cc:128:opt_mux$20~Y">
      <text x="5" y="-4" style="fill:#000; stroke:none" class="cell_$auto$opt_reduce.cc:128:opt_mux$20">Y</text>
    </g>
  </g>
  <g s:type="generic" transform="translate(657,217.5)" s:width="30" s:height="40" id="cell_$procdff$17">
    <text x="15" y="-4" class="nodelabel cell_$procdff$17" s:attribute="ref">$adff</text>
    <rect width="30" height="60" s:generic="body" class="cell_$procdff$17"/>
    <g transform="translate(0,10)" s:x="0" s:y="10" s:pid="in0" id="port_$procdff$17~ARST">
      <text x="-3" y="-4" class="inputPortLabel cell_$procdff$17">ARST</text>
    </g>
    <g transform="translate(0,30)" s:x="0" s:y="10" s:pid="in0" id="port_$procdff$17~CLK">
      <text x="-3" y="-4" class="inputPortLabel cell_$procdff$17">CLK</text>
    </g>
    <g transform="translate(0,50)" s:x="0" s:y="10" s:pid="in0" id="port_$procdff$17~D">
      <text x="-3" y="-4" class="inputPortLabel cell_$procdff$17">D</text>
    </g>
    <g transform="translate(30,10)" s:x="30" s:y="10" s:pid="out0" id="port_$procdff$17~Q">
      <text x="5" y="-4" style="fill:#000; stroke:none" class="cell_$procdff$17">Q</text>
    </g>
  </g>
  <g s:type="mux" transform="translate(566.3333333333334,248)" s:width="20" s:height="40" id="cell_$procmux$10">
    <s:alias val="$pmux"/>
    <s:alias val="$mux"/>
    <s:alias val="$_MUX_"/>
    <path d="M0,0 L20,10 L20,30 L0,40 Z" class="cell_$procmux$10"/>
    <g s:x="0" s:y="10" s:pid="A"/>
    <g s:x="0" s:y="30" s:pid="B"/>
    <g s:x="10" s:y="35" s:pid="S"/>
    <g s:x="20" s:y="20" s:pid="Y"/>
  </g>
  <g s:type="eq" transform="translate(142,34)" s:width="25" s:height="25" id="cell_$procmux$11_CMP0">
    <s:alias val="$eq"/>
    <circle r="12.5" cx="12.5" cy="12.5" class="cell_$procmux$11_CMP0"/>
    <line x1="7.5" x2="17.5" y1="10" y2="10" class="cell_$procmux$11_CMP0"/>
    <line x1="7.5" x2="17.5" y1="15" y2="15" class="cell_$procmux$11_CMP0"/>
    <g s:x="3" s:y="5" s:pid="A"/>
    <g s:x="3" s:y="20" s:pid="B"/>
    <g s:x="25" s:y="12.5" s:pid="Y"/>
  </g>
  <g s:type="eq" transform="translate(142,306)" s:width="25" s:height="25" id="cell_$procmux$12_CMP0">
    <s:alias val="$eq"/>
    <circle r="12.5" cx="12.5" cy="12.5" class="cell_$procmux$12_CMP0"/>
    <line x1="7.5" x2="17.5" y1="10" y2="10" class="cell_$procmux$12_CMP0"/>
    <line x1="7.5" x2="17.5" y1="15" y2="15" class="cell_$procmux$12_CMP0"/>
    <g s:x="3" s:y="5" s:pid="A"/>
    <g s:x="3" s:y="20" s:pid="B"/>
    <g s:x="25" s:y="12.5" s:pid="Y"/>
  </g>
  <g s:type="eq" transform="translate(142,164)" s:width="25" s:height="25" id="cell_$procmux$13_CMP0">
    <s:alias val="$eq"/>
    <circle r="12.5" cx="12.5" cy="12.5" class="cell_$procmux$13_CMP0"/>
    <line x1="7.5" x2="17.5" y1="10" y2="10" class="cell_$procmux$13_CMP0"/>
    <line x1="7.5" x2="17.5" y1="15" y2="15" class="cell_$procmux$13_CMP0"/>
    <g s:x="3" s:y="5" s:pid="A"/>
    <g s:x="3" s:y="20" s:pid="B"/>
    <g s:x="25" s:y="12.5" s:pid="Y"/>
  </g>
  <g s:type="eq" transform="translate(142,99)" s:width="25" s:height="25" id="cell_$procmux$14_CMP0">
    <s:alias val="$eq"/>
    <circle r="12.5" cx="12.5" cy="12.5" class="cell_$procmux$14_CMP0"/>
    <line x1="7.5" x2="17.5" y1="10" y2="10" class="cell_$procmux$14_CMP0"/>
    <line x1="7.5" x2="17.5" y1="15" y2="15" class="cell_$procmux$14_CMP0"/>
    <g s:x="3" s:y="5" s:pid="A"/>
    <g s:x="3" s:y="20" s:pid="B"/>
    <g s:x="25" s:y="12.5" s:pid="Y"/>
  </g>
  <g s:type="eq" transform="translate(142,371)" s:width="25" s:height="25" id="cell_$procmux$15_CMP0">
    <s:alias val="$eq"/>
    <circle r="12.5" cx="12.5" cy="12.5" class="cell_$procmux$15_CMP0"/>
    <line x1="7.5" x2="17.5" y1="10" y2="10" class="cell_$procmux$15_CMP0"/>
    <line x1="7.5" x2="17.5" y1="15" y2="15" class="cell_$procmux$15_CMP0"/>
    <g s:x="3" s:y="5" s:pid="A"/>
    <g s:x="3" s:y="20" s:pid="B"/>
    <g s:x="25" s:y="12.5" s:pid="Y"/>
  </g>
  <g s:type="not" transform="translate(340.5,241.5)" s:width="30" s:height="20" id="cell_$procmux$16_CMP0">
    <s:alias val="$_NOT_"/>
    <s:alias val="$not"/>
    <s:alias val="$logic_not"/>
    <path d="M0,0 L0,20 L20,10 Z" class="cell_$procmux$16_CMP0"/>
    <circle cx="23" cy="10" r="3" class="cell_$procmux$16_CMP0"/>
    <g s:x="0" s:y="10" s:pid="A"/>
    <g s:x="25" s:y="10" s:pid="Y"/>
  </g>
  <g s:type="mux" transform="translate(1062,281)" s:width="20" s:height="40" id="cell_$procmux$6">
    <s:alias val="$pmux"/>
    <s:alias val="$mux"/>
    <s:alias val="$_MUX_"/>
    <path d="M0,0 L20,10 L20,30 L0,40 Z" class="cell_$procmux$6"/>
    <g s:x="0" s:y="10" s:pid="A"/>
    <g s:x="0" s:y="30" s:pid="B"/>
    <g s:x="10" s:y="35" s:pid="S"/>
    <g s:x="20" s:y="20" s:pid="Y"/>
  </g>
  <g s:type="eq" transform="translate(895.3333333333334,202)" s:width="25" s:height="25" id="cell_$procmux$7_CMP0">
    <s:alias val="$eq"/>
    <circle r="12.5" cx="12.5" cy="12.5" class="cell_$procmux$7_CMP0"/>
    <line x1="7.5" x2="17.5" y1="10" y2="10" class="cell_$procmux$7_CMP0"/>
    <line x1="7.5" x2="17.5" y1="15" y2="15" class="cell_$procmux$7_CMP0"/>
    <g s:x="3" s:y="5" s:pid="A"/>
    <g s:x="3" s:y="20" s:pid="B"/>
    <g s:x="25" s:y="12.5" s:pid="Y"/>
  </g>
  <g s:type="generic" transform="translate(878,378)" s:width="30" s:height="40" id="cell_$procmux$8_ANY">
    <text x="15" y="-4" class="nodelabel cell_$procmux$8_ANY" s:attribute="ref">$reduce_or</text>
    <rect width="30" height="20" s:generic="body" class="cell_$procmux$8_ANY"/>
    <g transform="translate(0,10)" s:x="0" s:y="10" s:pid="in0" id="port_$procmux$8_ANY~A">
      <text x="-3" y="-4" class="inputPortLabel cell_$procmux$8_ANY">A</text>
    </g>
    <g transform="translate(30,10)" s:x="30" s:y="10" s:pid="out0" id="port_$procmux$8_ANY~Y">
      <text x="5" y="-4" style="fill:#000; stroke:none" class="cell_$procmux$8_ANY">Y</text>
    </g>
  </g>
  <g s:type="not" transform="translate(758,218)" s:width="30" s:height="20" id="cell_$procmux$8_CMP0">
    <s:alias val="$_NOT_"/>
    <s:alias val="$not"/>
    <s:alias val="$logic_not"/>
    <path d="M0,0 L0,20 L20,10 Z" class="cell_$procmux$8_CMP0"/>
    <circle cx="23" cy="10" r="3" class="cell_$procmux$8_CMP0"/>
    <g s:x="0" s:y="10" s:pid="A"/>
    <g s:x="25" s:y="10" s:pid="Y"/>
  </g>
  <g s:type="eq" transform="translate(759.6666666666666,386)" s:width="25" s:height="25" id="cell_$procmux$8_CMP1">
    <s:alias val="$eq"/>
    <circle r="12.5" cx="12.5" cy="12.5" class="cell_$procmux$8_CMP1"/>
    <line x1="7.5" x2="17.5" y1="10" y2="10" class="cell_$procmux$8_CMP1"/>
    <line x1="7.5" x2="17.5" y1="15" y2="15" class="cell_$procmux$8_CMP1"/>
    <g s:x="3" s:y="5" s:pid="A"/>
    <g s:x="3" s:y="20" s:pid="B"/>
    <g s:x="25" s:y="12.5" s:pid="Y"/>
  </g>
  <g s:type="inputExt" transform="translate(561,193)" s:width="30" s:height="20" id="cell_clk">
    <text x="15" y="-4" class="nodelabel cell_clk" s:attribute="ref">clk</text>
    <s:alias val="$_inputExt_"/>
    <path d="M0,0 L0,20 L15,20 L30,10 L15,0 Z" class="cell_clk"/>
    <g s:x="28" s:y="10" s:pid="Y"/>
  </g>
  <g s:type="inputExt" transform="translate(561,128)" s:width="30" s:height="20" id="cell_areset">
    <text x="15" y="-4" class="nodelabel cell_areset" s:attribute="ref">areset</text>
    <s:alias val="$_inputExt_"/>
    <path d="M0,0 L0,20 L15,20 L30,10 L15,0 Z" class="cell_areset"/>
    <g s:x="28" s:y="10" s:pid="Y"/>
  </g>
  <g s:type="inputExt" transform="translate(12,251.5)" s:width="30" s:height="20" id="cell_x">
    <text x="15" y="-4" class="nodelabel cell_x" s:attribute="ref">x</text>
    <s:alias val="$_inputExt_"/>
    <path d="M0,0 L0,20 L15,20 L30,10 L15,0 Z" class="cell_x"/>
    <g s:x="28" s:y="10" s:pid="Y"/>
  </g>
  <g s:type="outputExt" transform="translate(1117,291)" s:width="30" s:height="20" id="cell_z">
    <text x="15" y="-4" class="nodelabel cell_z" s:attribute="ref">z</text>
    <s:alias val="$_outputExt_"/>
    <path d="M30,0 L30,20 L15,20 L0,10 L15,0 Z" class="cell_z"/>
    <g s:x="0" s:y="10" s:pid="A"/>
  </g>
  <g s:type="constant" transform="translate(496,203)" s:width="30" s:height="20" id="cell_11">
    <text x="15" y="-4" class="nodelabel cell_11" s:attribute="ref">11</text>
    <s:alias val="$_constant_"/>
    <rect width="30" height="20" class="cell_11"/>
    <g s:x="30" s:y="10" s:pid="Y"/>
  </g>
  <g s:type="constant" transform="translate(496,268)" s:width="30" s:height="20" id="cell_000110">
    <text x="15" y="-4" class="nodelabel cell_000110" s:attribute="ref">0x6</text>
    <s:alias val="$_constant_"/>
    <rect width="30" height="20" class="cell_000110"/>
    <g s:x="30" s:y="10" s:pid="Y"/>
  </g>
  <g s:type="constant" transform="translate(77,44)" s:width="30" s:height="20" id="cell_110">
    <text x="15" y="-4" class="nodelabel cell_110" s:attribute="ref">110</text>
    <s:alias val="$_constant_"/>
    <rect width="30" height="20" class="cell_110"/>
    <g s:x="30" s:y="10" s:pid="Y"/>
  </g>
  <g s:type="constant" transform="translate(77,316)" s:width="30" s:height="20" id="cell_10">
    <text x="15" y="-4" class="nodelabel cell_10" s:attribute="ref">10</text>
    <s:alias val="$_constant_"/>
    <rect width="30" height="20" class="cell_10"/>
    <g s:x="30" s:y="10" s:pid="Y"/>
  </g>
  <g s:type="constant" transform="translate(77,174)" s:width="30" s:height="20" id="cell_101">
    <text x="15" y="-4" class="nodelabel cell_101" s:attribute="ref">101</text>
    <s:alias val="$_constant_"/>
    <rect width="30" height="20" class="cell_101"/>
    <g s:x="30" s:y="10" s:pid="Y"/>
  </g>
  <g s:type="constant" transform="translate(77,109)" s:width="30" s:height="20" id="cell_1">
    <text x="15" y="-4" class="nodelabel cell_1" s:attribute="ref">1</text>
    <s:alias val="$_constant_"/>
    <rect width="30" height="20" class="cell_1"/>
    <g s:x="30" s:y="10" s:pid="Y"/>
  </g>
  <g s:type="constant" transform="translate(77,381)" s:width="30" s:height="20" id="cell_100">
    <text x="15" y="-4" class="nodelabel cell_100" s:attribute="ref">100</text>
    <s:alias val="$_constant_"/>
    <rect width="30" height="20" class="cell_100"/>
    <g s:x="30" s:y="10" s:pid="Y"/>
  </g>
  <g s:type="constant" transform="translate(997,301)" s:width="30" s:height="20" id="cell_01">
    <text x="15" y="-4" class="nodelabel cell_01" s:attribute="ref">01</text>
    <s:alias val="$_constant_"/>
    <rect width="30" height="20" class="cell_01"/>
    <g s:x="30" s:y="10" s:pid="Y"/>
  </g>
  <g s:type="join" transform="translate(209,146)" s:width="4" s:height="40" id="cell_$join$,6,7,">
    <rect width="5" height="40" class="splitjoinBody" s:generic="body"/>
    <s:alias val="$_join_"/>
    <g s:x="5" s:y="20" s:pid="out"/>
    <g transform="translate(0,10)" s:x="0" s:y="10" s:pid="in0">
      <text x="-3" y="-4" class="inputPortLabel">0</text>
    </g>
    <g transform="translate(0,30)" s:x="0" s:y="10" s:pid="in0">
      <text x="-3" y="-4" class="inputPortLabel">1</text>
    </g>
  </g>
  <g s:type="join" transform="translate(209,333)" s:width="4" s:height="40" id="cell_$join$,9,10,11,">
    <rect width="5" height="60" class="splitjoinBody" s:generic="body"/>
    <s:alias val="$_join_"/>
    <g s:x="5" s:y="20" s:pid="out"/>
    <g transform="translate(0,10)" s:x="0" s:y="10" s:pid="in0">
      <text x="-3" y="-4" class="inputPortLabel">0</text>
    </g>
    <g transform="translate(0,30)" s:x="0" s:y="10" s:pid="in0">
      <text x="-3" y="-4" class="inputPortLabel">1</text>
    </g>
    <g transform="translate(0,50)" s:x="0" s:y="10" s:pid="in0">
      <text x="-3" y="-4" class="inputPortLabel">2</text>
    </g>
  </g>
  <g s:type="join" transform="translate(506,323)" s:width="4" s:height="40" id="cell_$join$,8,12,17,">
    <rect width="5" height="60" class="splitjoinBody" s:generic="body"/>
    <s:alias val="$_join_"/>
    <g s:x="5" s:y="20" s:pid="out"/>
    <g transform="translate(0,10)" s:x="0" s:y="10" s:pid="in0">
      <text x="-3" y="-4" class="inputPortLabel">0</text>
    </g>
    <g transform="translate(0,30)" s:x="0" s:y="10" s:pid="in0">
      <text x="-3" y="-4" class="inputPortLabel">1</text>
    </g>
    <g transform="translate(0,50)" s:x="0" s:y="10" s:pid="in0">
      <text x="-3" y="-4" class="inputPortLabel">2</text>
    </g>
  </g>
  <g s:type="join" transform="translate(96,231)" s:width="4" s:height="40" id="cell_$join$,15,16,4,">
    <rect width="5" height="40" class="splitjoinBody" s:generic="body"/>
    <s:alias val="$_join_"/>
    <g s:x="5" s:y="20" s:pid="out"/>
    <g transform="translate(0,10)" s:x="0" s:y="10" s:pid="in0">
      <text x="-3" y="-4" class="inputPortLabel">0:1</text>
    </g>
    <g transform="translate(0,30)" s:x="0" s:y="10" s:pid="in0">
      <text x="-3" y="-4" class="inputPortLabel">2</text>
    </g>
  </g>
  <g s:type="join" transform="translate(1008,358)" s:width="4" s:height="40" id="cell_$join$,18,19,">
    <rect width="5" height="40" class="splitjoinBody" s:generic="body"/>
    <s:alias val="$_join_"/>
    <g s:x="5" s:y="20" s:pid="out"/>
    <g transform="translate(0,10)" s:x="0" s:y="10" s:pid="in0">
      <text x="-3" y="-4" class="inputPortLabel">0</text>
    </g>
    <g transform="translate(0,30)" s:x="0" s:y="10" s:pid="in0">
      <text x="-3" y="-4" class="inputPortLabel">1</text>
    </g>
  </g>
  <g s:type="join" transform="translate(830,368)" s:width="4" s:height="40" id="cell_$join$,20,21,">
    <rect width="5" height="40" class="splitjoinBody" s:generic="body"/>
    <s:alias val="$_join_"/>
    <g s:x="5" s:y="20" s:pid="out"/>
    <g transform="translate(0,10)" s:x="0" s:y="10" s:pid="in0">
      <text x="-3" y="-4" class="inputPortLabel">0</text>
    </g>
    <g transform="translate(0,30)" s:x="0" s:y="10" s:pid="in0">
      <text x="-3" y="-4" class="inputPortLabel">1</text>
    </g>
  </g>
  <line x1="215" x2="257" y1="166.5" y2="166.5" class="net_6,7"/>
  <line x1="215" x2="257" y1="353.5" y2="353.5" class="net_9,10,11"/>
  <line x1="589" x2="617" y1="138" y2="138" class="net_3"/>
  <line x1="617" x2="617" y1="138" y2="228" class="net_3"/>
  <line x1="617" x2="657" y1="228" y2="228" class="net_3"/>
  <line x1="589" x2="607" y1="203" y2="203" class="net_2"/>
  <line x1="607" x2="607" y1="203" y2="248" class="net_2"/>
  <line x1="607" x2="657" y1="248" y2="248" class="net_2"/>
  <line x1="586.3333333333334" x2="657" y1="268" y2="268" class="net_13,14"/>
  <line x1="526" x2="536" y1="213" y2="213" class="net_22,23"/>
  <line x1="536" x2="536" y1="213" y2="258" class="net_22,23"/>
  <line x1="536" x2="566.3333333333334" y1="258" y2="258" class="net_22,23"/>
  <line x1="526" x2="566.3333333333334" y1="278" y2="278" class="net_24,25,26,27,28,29"/>
  <line x1="512" x2="576.3333333333334" y1="343.5" y2="343.5" class="net_8,12,17"/>
  <line x1="576.3333333333334" x2="576.3333333333334" y1="343.5" y2="283" class="net_8,12,17"/>
  <line x1="102" x2="127" y1="251.5" y2="251.5" class="net_15,16,4"/>
  <line x1="127" x2="127" y1="251.5" y2="39" class="net_15,16,4"/>
  <circle cx="127" cy="251.5" r="2" style="fill:#000" class="net_15,16,4"/>
  <line x1="127" x2="145" y1="39" y2="39" class="net_15,16,4"/>
  <line x1="102" x2="127" y1="251.5" y2="251.5" class="net_15,16,4"/>
  <line x1="127" x2="127" y1="251.5" y2="311" class="net_15,16,4"/>
  <circle cx="127" cy="311" r="2" style="fill:#000" class="net_15,16,4"/>
  <line x1="127" x2="145" y1="311" y2="311" class="net_15,16,4"/>
  <line x1="102" x2="127" y1="251.5" y2="251.5" class="net_15,16,4"/>
  <line x1="127" x2="127" y1="251.5" y2="169" class="net_15,16,4"/>
  <circle cx="127" cy="169" r="2" style="fill:#000" class="net_15,16,4"/>
  <line x1="127" x2="145" y1="169" y2="169" class="net_15,16,4"/>
  <line x1="102" x2="127" y1="251.5" y2="251.5" class="net_15,16,4"/>
  <line x1="127" x2="127" y1="251.5" y2="104" class="net_15,16,4"/>
  <circle cx="127" cy="104" r="2" style="fill:#000" class="net_15,16,4"/>
  <line x1="127" x2="145" y1="104" y2="104" class="net_15,16,4"/>
  <line x1="102" x2="127" y1="251.5" y2="251.5" class="net_15,16,4"/>
  <line x1="127" x2="127" y1="251.5" y2="376" class="net_15,16,4"/>
  <line x1="127" x2="145" y1="376" y2="376" class="net_15,16,4"/>
  <line x1="102" x2="340.5" y1="251.5" y2="251.5" class="net_15,16,4"/>
  <line x1="107" x2="145" y1="54" y2="54" class="net_30,31,32"/>
  <line x1="107" x2="145" y1="326" y2="326" class="net_33,34"/>
  <line x1="107" x2="117" y1="326" y2="326" class="net_33,34"/>
  <line x1="117" x2="117" y1="326" y2="406" class="net_33,34"/>
  <circle cx="117" cy="326" r="2" style="fill:#000" class="net_33,34"/>
  <line x1="117" x2="762.6666666666666" y1="406" y2="406" class="net_33,34"/>
  <line x1="107" x2="145" y1="184" y2="184" class="net_35,36,37"/>
  <line x1="107" x2="145" y1="119" y2="119" class="net_38"/>
  <line x1="107" x2="117" y1="119" y2="119" class="net_38"/>
  <line x1="117" x2="117" y1="119" y2="23" class="net_38"/>
  <line x1="117" x2="846" y1="23" y2="23" class="net_38"/>
  <line x1="846" x2="846" y1="23" y2="222" class="net_38"/>
  <circle cx="117" cy="119" r="2" style="fill:#000" class="net_38"/>
  <line x1="846" x2="898.3333333333334" y1="222" y2="222" class="net_38"/>
  <line x1="107" x2="145" y1="391" y2="391" class="net_39,40,41"/>
  <line x1="1027" x2="1062" y1="311" y2="311" class="net_42,43"/>
  <line x1="1014" x2="1072" y1="378.5" y2="378.5" class="net_18,19"/>
  <line x1="1072" x2="1072" y1="378.5" y2="316" class="net_18,19"/>
  <line x1="688" x2="733" y1="228" y2="228" class="net_15,16"/>
  <line x1="733" x2="733" y1="228" y2="207" class="net_15,16"/>
  <circle cx="733" cy="207" r="2" style="fill:#000" class="net_15,16"/>
  <line x1="733" x2="898.3333333333334" y1="207" y2="207" class="net_15,16"/>
  <line x1="688" x2="758" y1="228" y2="228" class="net_15,16"/>
  <line x1="688" x2="733" y1="228" y2="228" class="net_15,16"/>
  <line x1="733" x2="733" y1="228" y2="391" class="net_15,16"/>
  <line x1="733" x2="762.6666666666666" y1="391" y2="391" class="net_15,16"/>
  <line x1="688" x2="733" y1="228" y2="228" class="net_15,16"/>
  <line x1="733" x2="733" y1="228" y2="12" class="net_15,16"/>
  <line x1="733" x2="52" y1="12" y2="12" class="net_15,16"/>
  <line x1="52" x2="52" y1="12" y2="241.5" class="net_15,16"/>
  <circle cx="733" cy="228" r="2" style="fill:#000" class="net_15,16"/>
  <line x1="52" x2="96" y1="241.5" y2="241.5" class="net_15,16"/>
  <line x1="836" x2="878" y1="388.5" y2="388.5" class="net_20,21"/>
  <line x1="1082" x2="1117" y1="301" y2="301" class="net_5"/>
  <line x1="167" x2="187" y1="46.5" y2="46.5" class="net_6"/>
  <line x1="187" x2="187" y1="46.5" y2="156.5" class="net_6"/>
  <line x1="187" x2="209" y1="156.5" y2="156.5" class="net_6"/>
  <line x1="167" x2="209" y1="176.5" y2="176.5" class="net_7"/>
  <line x1="167" x2="187" y1="318.5" y2="318.5" class="net_9"/>
  <line x1="187" x2="187" y1="318.5" y2="343.5" class="net_9"/>
  <line x1="187" x2="209" y1="343.5" y2="343.5" class="net_9"/>
  <line x1="167" x2="177" y1="111.5" y2="111.5" class="net_10"/>
  <line x1="177" x2="177" y1="111.5" y2="363.5" class="net_10"/>
  <line x1="177" x2="209" y1="363.5" y2="363.5" class="net_10"/>
  <line x1="167" x2="209" y1="383.5" y2="383.5" class="net_11"/>
  <line x1="288" x2="481" y1="166.5" y2="166.5" class="net_8"/>
  <line x1="481" x2="481" y1="166.5" y2="333.5" class="net_8"/>
  <line x1="481" x2="506" y1="333.5" y2="333.5" class="net_8"/>
  <line x1="288" x2="506" y1="353.5" y2="353.5" class="net_12"/>
  <line x1="365.5" x2="471" y1="251.5" y2="251.5" class="net_17"/>
  <line x1="471" x2="471" y1="251.5" y2="373.5" class="net_17"/>
  <line x1="471" x2="506" y1="373.5" y2="373.5" class="net_17"/>
  <line x1="40" x2="96" y1="261.5" y2="261.5" class="net_4"/>
  <line x1="920.3333333333334" x2="972" y1="214.5" y2="214.5" class="net_18"/>
  <line x1="972" x2="972" y1="214.5" y2="368.5" class="net_18"/>
  <line x1="972" x2="1008" y1="368.5" y2="368.5" class="net_18"/>
  <line x1="909" x2="1008" y1="388.5" y2="388.5" class="net_19"/>
  <line x1="783" x2="798" y1="228" y2="228" class="net_20"/>
  <line x1="798" x2="798" y1="228" y2="378.5" class="net_20"/>
  <line x1="798" x2="830" y1="378.5" y2="378.5" class="net_20"/>
  <line x1="784.6666666666666" x2="830" y1="398.5" y2="398.5" class="net_21"/>
</svg>
