<?xml version="1.0" encoding="UTF-8" standalone="no"?>
<!DOCTYPE svg PUBLIC "-//W3C//DTD SVG 1.1//EN"
 "http://www.w3.org/Graphics/SVG/1.1/DTD/svg11.dtd">
<!-- Generated by graphviz version 4.0.0 (20220529.0937)
 -->
<!-- Title: finite_state_machine Pages: 1 -->
<svg width="376pt" height="95pt"
 viewBox="0.00 0.00 375.82 94.74" xmlns="http://www.w3.org/2000/svg" xmlns:xlink="http://www.w3.org/1999/xlink">
<g id="graph0" class="graph" transform="scale(1 1) rotate(0) translate(4 90.74)">
<title>finite_state_machine</title>
<polygon fill="white" stroke="transparent" points="-4,4 -4,-90.74 371.82,-90.74 371.82,4 -4,4"/>
<!-- RESET -->
<g id="node1" class="node">
<title>RESET</title>
<ellipse fill="black" stroke="black" cx="1.8" cy="-26.87" rx="1.8" ry="1.8"/>
</g>
<!-- A -->
<g id="node2" class="node">
<title>A</title>
<ellipse fill="none" stroke="black" cx="99.47" cy="-26.87" rx="26.74" ry="26.74"/>
<text text-anchor="middle" x="99.47" y="-30.67" font-family="Times New Roman,serif" font-size="14.00">A</text>
<text text-anchor="middle" x="99.47" y="-15.67" font-family="Times New Roman,serif" font-size="14.00">z=0</text>
</g>
<!-- RESET&#45;&gt;A -->
<g id="edge1" class="edge">
<title>RESET&#45;&gt;A</title>
<path fill="none" stroke="black" d="M3.87,-26.87C9.69,-26.87 38.07,-26.87 62.24,-26.87"/>
<polygon fill="black" stroke="black" points="62.26,-30.37 72.26,-26.87 62.26,-23.37 62.26,-30.37"/>
<text text-anchor="middle" x="38.1" y="-30.67" font-family="Times New Roman,serif" font-size="14.00">areset</text>
</g>
<!-- A&#45;&gt;A -->
<g id="edge2" class="edge">
<title>A&#45;&gt;A</title>
<path fill="none" stroke="black" d="M88.35,-51.79C87.44,-62.54 91.15,-71.74 99.47,-71.74 104.93,-71.74 108.4,-67.78 109.89,-62.01"/>
<polygon fill="black" stroke="black" points="113.4,-62 110.59,-51.79 106.41,-61.53 113.4,-62"/>
<text text-anchor="middle" x="99.47" y="-75.54" font-family="Times New Roman,serif" font-size="14.00">x==0</text>
</g>
<!-- B -->
<g id="node3" class="node">
<title>B</title>
<ellipse fill="none" stroke="black" cx="220.21" cy="-26.87" rx="26.74" ry="26.74"/>
<text text-anchor="middle" x="220.21" y="-30.67" font-family="Times New Roman,serif" font-size="14.00">B</text>
<text text-anchor="middle" x="220.21" y="-15.67" font-family="Times New Roman,serif" font-size="14.00">z=1</text>
</g>
<!-- A&#45;&gt;B -->
<g id="edge3" class="edge">
<title>A&#45;&gt;B</title>
<path fill="none" stroke="black" d="M126.53,-26.87C143.16,-26.87 164.94,-26.87 183.2,-26.87"/>
<polygon fill="black" stroke="black" points="183.21,-30.37 193.21,-26.87 183.21,-23.37 183.21,-30.37"/>
<text text-anchor="middle" x="159.84" y="-30.67" font-family="Times New Roman,serif" font-size="14.00">x==1</text>
</g>
<!-- B&#45;&gt;B -->
<g id="edge5" class="edge">
<title>B&#45;&gt;B</title>
<path fill="none" stroke="black" d="M209.09,-51.79C208.18,-62.54 211.89,-71.74 220.21,-71.74 225.67,-71.74 229.14,-67.78 230.63,-62.01"/>
<polygon fill="black" stroke="black" points="234.14,-62 231.33,-51.79 227.15,-61.53 234.14,-62"/>
<text text-anchor="middle" x="220.21" y="-75.54" font-family="Times New Roman,serif" font-size="14.00">x==0</text>
</g>
<!-- C -->
<g id="node4" class="node">
<title>C</title>
<ellipse fill="none" stroke="black" cx="340.95" cy="-26.87" rx="26.74" ry="26.74"/>
<text text-anchor="middle" x="340.95" y="-30.67" font-family="Times New Roman,serif" font-size="14.00">C</text>
<text text-anchor="middle" x="340.95" y="-15.67" font-family="Times New Roman,serif" font-size="14.00">z=0</text>
</g>
<!-- B&#45;&gt;C -->
<g id="edge4" class="edge">
<title>B&#45;&gt;C</title>
<path fill="none" stroke="black" d="M247.27,-26.87C263.9,-26.87 285.68,-26.87 303.94,-26.87"/>
<polygon fill="black" stroke="black" points="303.95,-30.37 313.95,-26.87 303.95,-23.37 303.95,-30.37"/>
<text text-anchor="middle" x="280.58" y="-30.67" font-family="Times New Roman,serif" font-size="14.00">x==1</text>
</g>
<!-- C&#45;&gt;B -->
<g id="edge6" class="edge">
<title>C&#45;&gt;B</title>
<path fill="none" stroke="black" d="M316.85,-14.78C310.31,-11.94 303.07,-9.32 296.08,-7.87 282.59,-5.07 278.57,-5.07 265.08,-7.87 261.37,-8.64 257.58,-9.74 253.87,-11.03"/>
<polygon fill="black" stroke="black" points="252.34,-7.87 244.31,-14.78 254.89,-14.38 252.34,-7.87"/>
<text text-anchor="middle" x="280.58" y="-11.67" font-family="Times New Roman,serif" font-size="14.00">x==0</text>
</g>
<!-- C&#45;&gt;C -->
<g id="edge7" class="edge">
<title>C&#45;&gt;C</title>
<path fill="none" stroke="black" d="M329.83,-51.79C328.92,-62.54 332.63,-71.74 340.95,-71.74 346.41,-71.74 349.88,-67.78 351.37,-62.01"/>
<polygon fill="black" stroke="black" points="354.88,-62 352.07,-51.79 347.89,-61.53 354.88,-62"/>
<text text-anchor="middle" x="340.95" y="-75.54" font-family="Times New Roman,serif" font-size="14.00">x==1</text>
</g>
</g>
</svg>
