<?xml version="1.0" encoding="UTF-8" standalone="no"?>
<!DOCTYPE svg PUBLIC "-//W3C//DTD SVG 1.1//EN"
 "http://www.w3.org/Graphics/SVG/1.1/DTD/svg11.dtd">
<!-- Generated by graphviz version 4.0.0 (20220529.0937)
 -->
<!-- Title: top_module Pages: 1 -->
<svg width="1123pt" height="460pt"
 viewBox="0.00 0.00 1122.96 459.83" xmlns="http://www.w3.org/2000/svg" xmlns:xlink="http://www.w3.org/1999/xlink">
<g id="graph0" class="graph" transform="scale(1 1) rotate(0) translate(4 455.83)">
<title>top_module</title>
<polygon fill="white" stroke="transparent" points="-4,4 -4,-455.83 1118.96,-455.83 1118.96,4 -4,4"/>
<text text-anchor="middle" x="557.48" y="-7.8" font-family="Times New Roman,serif" font-size="14.00">top_module</text>
<!-- n5 -->
<g id="node1" class="node">
<title>n5</title>
<polygon fill="none" stroke="black" points="141,-227 78.5,-209 141,-191 203.51,-209 141,-227"/>
<text text-anchor="middle" x="141" y="-205.3" font-family="Times New Roman,serif" font-size="14.00">bitstream</text>
</g>
<!-- x0 -->
<g id="node8" class="node">
<title>x0</title>
<path fill="none" stroke="black" d="M278.95,-284C278.95,-284 316.95,-284 316.95,-284 322.95,-284 328.95,-290 328.95,-296 328.95,-296 328.95,-318 328.95,-318 328.95,-324 322.95,-330 316.95,-330 316.95,-330 278.95,-330 278.95,-330 272.95,-330 266.95,-324 266.95,-318 266.95,-318 266.95,-296 266.95,-296 266.95,-290 272.95,-284 278.95,-284"/>
<text text-anchor="middle" x="297.95" y="-314.8" font-family="Times New Roman,serif" font-size="14.00">2:0 &#45; 3:1</text>
<polyline fill="none" stroke="black" points="266.95,-307 328.95,-307 "/>
<text text-anchor="middle" x="297.95" y="-291.8" font-family="Times New Roman,serif" font-size="14.00">0:0 &#45; 0:0</text>
</g>
<!-- n5&#45;&gt;x0 -->
<g id="edge8" class="edge">
<title>n5:e&#45;&gt;x0:w</title>
<path fill="none" stroke="#7570b3" stroke-width="3" d="M203.51,-209C228.21,-209 236.01,-293.97 256.63,-314.55"/>
<polygon fill="#7570b3" stroke="#7570b3" stroke-width="3" points="255.42,-317.85 265.95,-319 258.43,-311.54 255.42,-317.85"/>
<text text-anchor="middle" x="233.51" y="-298.8" font-family="Times New Roman,serif" font-size="14.00" fill="#7570b3">&lt;2&gt;</text>
</g>
<!-- x2 -->
<g id="node13" class="node">
<title>x2</title>
<path fill="none" stroke="black" d="M278.95,-131C278.95,-131 316.95,-131 316.95,-131 322.95,-131 328.95,-137 328.95,-143 328.95,-143 328.95,-165 328.95,-165 328.95,-171 322.95,-177 316.95,-177 316.95,-177 278.95,-177 278.95,-177 272.95,-177 266.95,-171 266.95,-165 266.95,-165 266.95,-143 266.95,-143 266.95,-137 272.95,-131 278.95,-131"/>
<text text-anchor="middle" x="297.95" y="-161.8" font-family="Times New Roman,serif" font-size="14.00">1:0 &#45; 2:1</text>
<polyline fill="none" stroke="black" points="266.95,-154 328.95,-154 "/>
<text text-anchor="middle" x="297.95" y="-138.8" font-family="Times New Roman,serif" font-size="14.00">0:0 &#45; 0:0</text>
</g>
<!-- n5&#45;&gt;x2 -->
<g id="edge9" class="edge">
<title>n5:e&#45;&gt;x2:w</title>
<path fill="none" stroke="#7570b3" stroke-width="3" d="M203.51,-209C218.68,-209 209.52,-189.3 221.51,-180 234.92,-169.58 242.3,-166.83 255.95,-166.18"/>
<polygon fill="#7570b3" stroke="#7570b3" stroke-width="3" points="256.02,-169.68 265.95,-166 255.89,-162.68 256.02,-169.68"/>
<text text-anchor="middle" x="233.51" y="-183.8" font-family="Times New Roman,serif" font-size="14.00" fill="#7570b3">&lt;2&gt;</text>
</g>
<!-- n6 -->
<g id="node2" class="node">
<title>n6</title>
<polygon fill="none" stroke="black" points="57.25,-370.54 57.25,-385.46 41.43,-396 19.07,-396 3.25,-385.46 3.25,-370.54 19.07,-360 41.43,-360 57.25,-370.54"/>
<text text-anchor="middle" x="30.25" y="-374.3" font-family="Times New Roman,serif" font-size="14.00">clk</text>
</g>
<!-- c17 -->
<g id="node9" class="node">
<title>c17</title>
<polygon fill="none" stroke="black" points="835.4,-367 835.4,-413 946.4,-413 946.4,-367 835.4,-367"/>
<text text-anchor="middle" x="857.4" y="-397.8" font-family="Times New Roman,serif" font-size="14.00">CLK</text>
<polyline fill="none" stroke="black" points="835.4,-390 879.4,-390 "/>
<text text-anchor="middle" x="857.4" y="-374.8" font-family="Times New Roman,serif" font-size="14.00">D</text>
<polyline fill="none" stroke="black" points="879.4,-367 879.4,-413 "/>
<text text-anchor="middle" x="899.4" y="-393.8" font-family="Times New Roman,serif" font-size="14.00">$11</text>
<text text-anchor="middle" x="899.4" y="-378.8" font-family="Times New Roman,serif" font-size="14.00">$dff</text>
<polyline fill="none" stroke="black" points="919.4,-367 919.4,-413 "/>
<text text-anchor="middle" x="932.9" y="-386.3" font-family="Times New Roman,serif" font-size="14.00">Q</text>
</g>
<!-- n6&#45;&gt;c17 -->
<g id="edge10" class="edge">
<title>n6:e&#45;&gt;c17:w</title>
<path fill="none" stroke="#d95f02" d="M58.25,-378C67.64,-378 69.3,-382.11 78.5,-384 146.01,-397.84 163.59,-402 232.51,-402 232.51,-402 232.51,-402 749.9,-402 784.19,-402 795.27,-402 825.03,-402"/>
<polygon fill="#d95f02" stroke="#d95f02" points="825.4,-405.5 835.4,-402 825.4,-398.5 825.4,-405.5"/>
</g>
<!-- c18 -->
<g id="node10" class="node">
<title>c18</title>
<polygon fill="none" stroke="black" points="551.4,-215 551.4,-261 662.4,-261 662.4,-215 551.4,-215"/>
<text text-anchor="middle" x="573.4" y="-245.8" font-family="Times New Roman,serif" font-size="14.00">CLK</text>
<polyline fill="none" stroke="black" points="551.4,-238 595.4,-238 "/>
<text text-anchor="middle" x="573.4" y="-222.8" font-family="Times New Roman,serif" font-size="14.00">D</text>
<polyline fill="none" stroke="black" points="595.4,-215 595.4,-261 "/>
<text text-anchor="middle" x="615.4" y="-241.8" font-family="Times New Roman,serif" font-size="14.00">$12</text>
<text text-anchor="middle" x="615.4" y="-226.8" font-family="Times New Roman,serif" font-size="14.00">$dff</text>
<polyline fill="none" stroke="black" points="635.4,-215 635.4,-261 "/>
<text text-anchor="middle" x="648.9" y="-234.3" font-family="Times New Roman,serif" font-size="14.00">Q</text>
</g>
<!-- n6&#45;&gt;c18 -->
<g id="edge11" class="edge">
<title>n6:e&#45;&gt;c18:w</title>
<path fill="none" stroke="#d95f02" d="M58.25,-378C106.88,-378 448.05,-337.06 491.4,-315 514.93,-303.03 515.9,-292.76 533.4,-273 538.78,-266.93 539.39,-259.46 542.27,-254.71"/>
<polygon fill="#d95f02" stroke="#d95f02" points="544.12,-257.7 551.4,-250 540.91,-251.48 544.12,-257.7"/>
</g>
<!-- n7 -->
<g id="node3" class="node">
<title>n7</title>
<polygon fill="none" stroke="black" points="58.53,-184.54 58.53,-199.46 41.96,-210 18.54,-210 1.97,-199.46 1.97,-184.54 18.54,-174 41.96,-174 58.53,-184.54"/>
<text text-anchor="middle" x="30.25" y="-188.3" font-family="Times New Roman,serif" font-size="14.00">data</text>
</g>
<!-- n7&#45;&gt;x0 -->
<g id="edge12" class="edge">
<title>n7:e&#45;&gt;x0:w</title>
<path fill="none" stroke="#1b9e77" d="M59.25,-192C80.6,-192 61.74,-222.78 78.5,-236 137.7,-282.72 181.9,-225.48 245.51,-266 254.65,-271.83 253.43,-283.35 256.9,-289.98"/>
<polygon fill="#1b9e77" stroke="#1b9e77" points="255.51,-293.21 265.95,-295 258.9,-287.09 255.51,-293.21"/>
</g>
<!-- n7&#45;&gt;x2 -->
<g id="edge13" class="edge">
<title>n7:e&#45;&gt;x2:w</title>
<path fill="none" stroke="#1b9e77" d="M59.25,-192C68.89,-192 69.43,-185.26 78.5,-182 155.39,-154.4 178.86,-142.95 255.78,-142.06"/>
<polygon fill="#1b9e77" stroke="#1b9e77" points="255.97,-145.56 265.95,-142 255.93,-138.56 255.97,-145.56"/>
</g>
<!-- n8 -->
<g id="node4" class="node">
<title>n8</title>
<polygon fill="none" stroke="black" points="60.25,-34.54 60.25,-49.46 42.68,-60 17.82,-60 0.25,-49.46 0.25,-34.54 17.82,-24 42.68,-24 60.25,-34.54"/>
<text text-anchor="middle" x="30.25" y="-38.3" font-family="Times New Roman,serif" font-size="14.00">reset</text>
</g>
<!-- c20 -->
<g id="node12" class="node">
<title>c20</title>
<polygon fill="none" stroke="black" points="392.4,-86.5 392.4,-155.5 491.4,-155.5 491.4,-86.5 392.4,-86.5"/>
<text text-anchor="middle" x="405.4" y="-140.3" font-family="Times New Roman,serif" font-size="14.00">A</text>
<polyline fill="none" stroke="black" points="392.4,-132.5 418.4,-132.5 "/>
<text text-anchor="middle" x="405.4" y="-117.3" font-family="Times New Roman,serif" font-size="14.00">B</text>
<polyline fill="none" stroke="black" points="392.4,-109.5 418.4,-109.5 "/>
<text text-anchor="middle" x="405.4" y="-94.3" font-family="Times New Roman,serif" font-size="14.00">S</text>
<polyline fill="none" stroke="black" points="418.4,-86.5 418.4,-155.5 "/>
<text text-anchor="middle" x="441.9" y="-124.8" font-family="Times New Roman,serif" font-size="14.00">$4</text>
<text text-anchor="middle" x="441.9" y="-109.8" font-family="Times New Roman,serif" font-size="14.00">$mux</text>
<polyline fill="none" stroke="black" points="465.4,-86.5 465.4,-155.5 "/>
<text text-anchor="middle" x="478.4" y="-117.3" font-family="Times New Roman,serif" font-size="14.00">Y</text>
</g>
<!-- n8&#45;&gt;c20 -->
<g id="edge14" class="edge">
<title>n8:e&#45;&gt;c20:w</title>
<path fill="none" stroke="#1b9e77" d="M60.5,-42C182.52,-42 213.19,-53.95 332.4,-80 355.99,-85.15 362.85,-94.91 382.41,-97.4"/>
<polygon fill="#1b9e77" stroke="#1b9e77" points="382.21,-100.9 392.4,-98 382.63,-93.91 382.21,-100.9"/>
</g>
<!-- c22 -->
<g id="node17" class="node">
<title>c22</title>
<polygon fill="none" stroke="black" points="699.4,-182.5 699.4,-251.5 798.4,-251.5 798.4,-182.5 699.4,-182.5"/>
<text text-anchor="middle" x="712.4" y="-236.3" font-family="Times New Roman,serif" font-size="14.00">A</text>
<polyline fill="none" stroke="black" points="699.4,-228.5 725.4,-228.5 "/>
<text text-anchor="middle" x="712.4" y="-213.3" font-family="Times New Roman,serif" font-size="14.00">B</text>
<polyline fill="none" stroke="black" points="699.4,-205.5 725.4,-205.5 "/>
<text text-anchor="middle" x="712.4" y="-190.3" font-family="Times New Roman,serif" font-size="14.00">S</text>
<polyline fill="none" stroke="black" points="725.4,-182.5 725.4,-251.5 "/>
<text text-anchor="middle" x="748.9" y="-220.8" font-family="Times New Roman,serif" font-size="14.00">$9</text>
<text text-anchor="middle" x="748.9" y="-205.8" font-family="Times New Roman,serif" font-size="14.00">$mux</text>
<polyline fill="none" stroke="black" points="772.4,-182.5 772.4,-251.5 "/>
<text text-anchor="middle" x="785.4" y="-213.3" font-family="Times New Roman,serif" font-size="14.00">Y</text>
</g>
<!-- n8&#45;&gt;c22 -->
<g id="edge15" class="edge">
<title>n8:e&#45;&gt;c22:w</title>
<path fill="none" stroke="#1b9e77" d="M60.5,-42C68.61,-42 70.46,-40.09 78.5,-39 146.7,-29.78 163.69,-23 232.51,-23 232.51,-23 232.51,-23 607.9,-23 647.46,-23 655.18,-167.1 689.51,-190.74"/>
<polygon fill="#1b9e77" stroke="#1b9e77" points="688.81,-194.19 699.4,-194 691,-187.54 688.81,-194.19"/>
</g>
<!-- n9 -->
<g id="node5" class="node">
<title>n9</title>
<polygon fill="none" stroke="black" points="1108.73,-407.54 1108.73,-422.46 1071.99,-433 1020.03,-433 983.29,-422.46 983.29,-407.54 1020.03,-397 1071.99,-397 1108.73,-407.54"/>
<text text-anchor="middle" x="1046.01" y="-411.3" font-family="Times New Roman,serif" font-size="14.00">start_shifting</text>
</g>
<!-- c21 -->
<g id="node15" class="node">
<title>c21</title>
<polygon fill="none" stroke="black" points="557.4,-297.5 557.4,-366.5 656.4,-366.5 656.4,-297.5 557.4,-297.5"/>
<text text-anchor="middle" x="570.4" y="-351.3" font-family="Times New Roman,serif" font-size="14.00">A</text>
<polyline fill="none" stroke="black" points="557.4,-343.5 583.4,-343.5 "/>
<text text-anchor="middle" x="570.4" y="-328.3" font-family="Times New Roman,serif" font-size="14.00">B</text>
<polyline fill="none" stroke="black" points="557.4,-320.5 583.4,-320.5 "/>
<text text-anchor="middle" x="570.4" y="-305.3" font-family="Times New Roman,serif" font-size="14.00">S</text>
<polyline fill="none" stroke="black" points="583.4,-297.5 583.4,-366.5 "/>
<text text-anchor="middle" x="606.9" y="-335.8" font-family="Times New Roman,serif" font-size="14.00">$6</text>
<text text-anchor="middle" x="606.9" y="-320.8" font-family="Times New Roman,serif" font-size="14.00">$mux</text>
<polyline fill="none" stroke="black" points="630.4,-297.5 630.4,-366.5 "/>
<text text-anchor="middle" x="643.4" y="-328.3" font-family="Times New Roman,serif" font-size="14.00">Y</text>
</g>
<!-- n9&#45;&gt;c21 -->
<g id="edge17" class="edge">
<title>n9:e&#45;&gt;c21:w</title>
<path fill="none" stroke="#e6ab02" d="M1110.01,-415C1118.02,-415 1114.83,-427.49 1109.01,-433 1068.45,-471.37 1039.19,-434.88 983.4,-433 791.7,-426.53 684.49,-510.22 556.9,-367 556.45,-366.5 556.02,-365.94 555.62,-365.34"/>
<polygon fill="#e6ab02" stroke="#e6ab02" points="559.12,-365.09 555.9,-355 552.13,-364.9 559.12,-365.09"/>
</g>
<!-- v1 -->
<g id="node6" class="node">
<title>v1</title>
<ellipse fill="none" stroke="black" cx="297.95" cy="-260" rx="34.39" ry="18"/>
<text text-anchor="middle" x="297.95" y="-256.3" font-family="Times New Roman,serif" font-size="14.00">4&#39;1101</text>
</g>
<!-- c13 -->
<g id="node7" class="node">
<title>c13</title>
<polygon fill="none" stroke="black" points="397.4,-265 397.4,-311 486.4,-311 486.4,-265 397.4,-265"/>
<text text-anchor="middle" x="410.4" y="-295.8" font-family="Times New Roman,serif" font-size="14.00">A</text>
<polyline fill="none" stroke="black" points="397.4,-288 423.4,-288 "/>
<text text-anchor="middle" x="410.4" y="-272.8" font-family="Times New Roman,serif" font-size="14.00">B</text>
<polyline fill="none" stroke="black" points="423.4,-265 423.4,-311 "/>
<text text-anchor="middle" x="441.9" y="-291.8" font-family="Times New Roman,serif" font-size="14.00">$2</text>
<text text-anchor="middle" x="441.9" y="-276.8" font-family="Times New Roman,serif" font-size="14.00">$eq</text>
<polyline fill="none" stroke="black" points="460.4,-265 460.4,-311 "/>
<text text-anchor="middle" x="473.4" y="-284.3" font-family="Times New Roman,serif" font-size="14.00">Y</text>
</g>
<!-- v1&#45;&gt;c13 -->
<g id="edge18" class="edge">
<title>v1:e&#45;&gt;c13:w</title>
<path fill="none" stroke="#e6ab02" stroke-width="3" d="M332.4,-260C357.75,-260 365.04,-272.14 385.73,-275.27"/>
<polygon fill="#e6ab02" stroke="#e6ab02" stroke-width="3" points="385.67,-278.78 395.9,-276 386.18,-271.79 385.67,-278.78"/>
<text text-anchor="middle" x="362.4" y="-275.8" font-family="Times New Roman,serif" font-size="14.00" fill="#e6ab02">&lt;4&gt;</text>
</g>
<!-- c13&#45;&gt;c21 -->
<g id="edge5" class="edge">
<title>c13:e&#45;&gt;c21:w</title>
<path fill="none" stroke="#e7298a" d="M487.9,-288C515.82,-288 522.79,-304.37 545.8,-308.2"/>
<polygon fill="#e7298a" stroke="#e7298a" points="545.66,-311.7 555.9,-309 546.21,-304.72 545.66,-311.7"/>
</g>
<!-- x0&#45;&gt;c13 -->
<g id="edge1" class="edge">
<title>x0:e&#45;&gt;c13:w</title>
<path fill="none" stroke="#66a61e" stroke-width="3" d="M342.02,-306.56C358.48,-305.31 367.38,-301.69 383.84,-300.44"/>
<polygon fill="none" stroke="#66a61e" stroke-width="3" points="341.94,-306.56 336.09,-310.78 329.95,-307 335.8,-302.78 341.94,-306.56"/>
<polygon fill="none" stroke="#66a61e" stroke-width="3" points="383.91,-300.44 389.76,-296.22 395.9,-300 390.05,-304.21 383.91,-300.44"/>
<text text-anchor="middle" x="362.4" y="-308.8" font-family="Times New Roman,serif" font-size="14.00" fill="#66a61e">&lt;4&gt;</text>
</g>
<!-- c17&#45;&gt;n9 -->
<g id="edge16" class="edge">
<title>c17:e&#45;&gt;n9:w</title>
<path fill="none" stroke="#e6ab02" d="M946.4,-390C962.21,-390 963.72,-405.88 973.72,-412.32"/>
<polygon fill="#e6ab02" stroke="#e6ab02" points="972.83,-415.71 983.4,-415 974.69,-408.96 972.83,-415.71"/>
</g>
<!-- c18&#45;&gt;n5 -->
<g id="edge7" class="edge">
<title>c18:e&#45;&gt;n5:w</title>
<path fill="none" stroke="#7570b3" stroke-width="3" d="M663.9,-238C674.35,-238 670.45,-254.27 662.9,-261.5 627.12,-295.79 600.85,-264.7 551.4,-261.5 453.45,-255.15 430.27,-240.5 332.4,-233 325.35,-232.46 83.08,-231.92 78,-227 75.66,-224.74 73.74,-221.34 72.81,-218.11"/>
<polygon fill="#7570b3" stroke="#7570b3" stroke-width="3" points="76,-219.55 77,-209 69.64,-216.62 76,-219.55"/>
<text text-anchor="middle" x="362.4" y="-240.8" font-family="Times New Roman,serif" font-size="14.00" fill="#7570b3">&lt;2&gt;</text>
</g>
<!-- v3 -->
<g id="node11" class="node">
<title>v3</title>
<ellipse fill="none" stroke="black" cx="297.95" cy="-107" rx="30.59" ry="18"/>
<text text-anchor="middle" x="297.95" y="-103.3" font-family="Times New Roman,serif" font-size="14.00">3&#39;000</text>
</g>
<!-- v3&#45;&gt;c20 -->
<g id="edge19" class="edge">
<title>v3:e&#45;&gt;c20:w</title>
<path fill="none" stroke="#d95f02" stroke-width="3" d="M329.95,-107C354.62,-107 362.08,-117.53 382.17,-120.32"/>
<polygon fill="#d95f02" stroke="#d95f02" stroke-width="3" points="382.19,-123.83 392.4,-121 382.65,-116.85 382.19,-123.83"/>
<text text-anchor="middle" x="362.4" y="-122.8" font-family="Times New Roman,serif" font-size="14.00" fill="#d95f02">&lt;3&gt;</text>
</g>
<!-- c20&#45;&gt;c18 -->
<g id="edge3" class="edge">
<title>c20:e&#45;&gt;c18:w</title>
<path fill="none" stroke="#1b9e77" stroke-width="3" d="M491.4,-121C523.59,-121 518.09,-151.69 533.4,-180 541.56,-195.09 534.56,-214.68 541.57,-222.53"/>
<polygon fill="#1b9e77" stroke="#1b9e77" stroke-width="3" points="540.8,-225.97 551.4,-226 543.14,-219.37 540.8,-225.97"/>
<text text-anchor="middle" x="521.4" y="-183.8" font-family="Times New Roman,serif" font-size="14.00" fill="#1b9e77">&lt;3&gt;</text>
</g>
<!-- x2&#45;&gt;c20 -->
<g id="edge2" class="edge">
<title>x2:e&#45;&gt;c20:w</title>
<path fill="none" stroke="#1b9e77" stroke-width="3" d="M341.95,-153.31C356.97,-151.49 365.2,-146.57 380.14,-144.72"/>
<polygon fill="none" stroke="#1b9e77" stroke-width="3" points="341.93,-153.31 336.17,-157.65 329.95,-154 335.71,-149.66 341.93,-153.31"/>
<polygon fill="none" stroke="#1b9e77" stroke-width="3" points="380.42,-144.7 386.18,-140.36 392.4,-144 386.64,-148.34 380.42,-144.7"/>
<text text-anchor="middle" x="362.4" y="-155.8" font-family="Times New Roman,serif" font-size="14.00" fill="#1b9e77">&lt;3&gt;</text>
</g>
<!-- v4 -->
<g id="node14" class="node">
<title>v4</title>
<ellipse fill="none" stroke="black" cx="441.9" cy="-364" rx="27" ry="18"/>
<text text-anchor="middle" x="441.9" y="-360.3" font-family="Times New Roman,serif" font-size="14.00">1&#39;1</text>
</g>
<!-- v4&#45;&gt;c21 -->
<g id="edge20" class="edge">
<title>v4:e&#45;&gt;c21:w</title>
<path fill="none" stroke="#d95f02" d="M469.9,-364C471.94,-364 524.23,-343.48 546.29,-335.3"/>
<polygon fill="#d95f02" stroke="#d95f02" points="547.58,-338.56 555.9,-332 545.3,-331.94 547.58,-338.56"/>
</g>
<!-- c21&#45;&gt;c22 -->
<g id="edge6" class="edge">
<title>c21:e&#45;&gt;c22:w</title>
<path fill="none" stroke="#e7298a" d="M657.9,-332C698.73,-332 662.46,-255.79 689.43,-242.09"/>
<polygon fill="#e7298a" stroke="#e7298a" points="690.33,-245.48 699.4,-240 688.89,-238.63 690.33,-245.48"/>
</g>
<!-- v5 -->
<g id="node16" class="node">
<title>v5</title>
<ellipse fill="none" stroke="black" cx="606.9" cy="-191" rx="27" ry="18"/>
<text text-anchor="middle" x="606.9" y="-187.3" font-family="Times New Roman,serif" font-size="14.00">1&#39;0</text>
</g>
<!-- v5&#45;&gt;c22 -->
<g id="edge21" class="edge">
<title>v5:e&#45;&gt;c22:w</title>
<path fill="none" stroke="#d95f02" d="M634.9,-191C662.06,-191 667.43,-211.08 689.31,-215.95"/>
<polygon fill="#d95f02" stroke="#d95f02" points="689.09,-219.44 699.4,-217 689.82,-212.48 689.09,-219.44"/>
</g>
<!-- c22&#45;&gt;c17 -->
<g id="edge4" class="edge">
<title>c22:e&#45;&gt;c17:w</title>
<path fill="none" stroke="#7570b3" d="M798.4,-217C867.95,-217 773.05,-361.47 825.26,-376.7"/>
<polygon fill="#7570b3" stroke="#7570b3" points="825.04,-380.2 835.4,-378 825.92,-373.26 825.04,-380.2"/>
</g>
</g>
</svg>
