<svg xmlns="http://www.w3.org/2000/svg" xmlns:xlink="http://www.w3.org/1999/xlink" xmlns:s="https://github.com/nturley/netlistsvg" width="1299" height="822.5">
  <style>svg {
    stroke:#000;
    fill:none;
  }
  text {
    fill:#000;
    stroke:none;
    font-size:10px;
    font-weight: bold;
    font-family: "Courier New", monospace;
  }
  .nodelabel {
    text-anchor: middle;
  }
  .inputPortLabel {
    text-anchor: end;
  }
  .splitjoinBody {
    fill:#000;
  }</style>
  <g s:type="generic" transform="translate(284,205.5)" s:width="30" s:height="40" id="cell_$auto$opt_reduce.cc:128:opt_mux$27">
    <text x="15" y="-4" class="nodelabel cell_$auto$opt_reduce.cc:128:opt_mux$27" s:attribute="ref">$reduce_or</text>
    <rect width="30" height="20" s:generic="body" class="cell_$auto$opt_reduce.cc:128:opt_mux$27"/>
    <g transform="translate(0,10)" s:x="0" s:y="10" s:pid="in0" id="port_$auto$opt_reduce.cc:128:opt_mux$27~A">
      <text x="-3" y="-4" class="inputPortLabel cell_$auto$opt_reduce.cc:128:opt_mux$27">A</text>
    </g>
    <g transform="translate(30,10)" s:x="30" s:y="10" s:pid="out0" id="port_$auto$opt_reduce.cc:128:opt_mux$27~Y">
      <text x="5" y="-4" style="fill:#000; stroke:none" class="cell_$auto$opt_reduce.cc:128:opt_mux$27">Y</text>
    </g>
  </g>
  <g s:type="generic" transform="translate(284,445)" s:width="30" s:height="40" id="cell_$auto$opt_reduce.cc:128:opt_mux$29">
    <text x="15" y="-4" class="nodelabel cell_$auto$opt_reduce.cc:128:opt_mux$29" s:attribute="ref">$reduce_or</text>
    <rect width="30" height="20" s:generic="body" class="cell_$auto$opt_reduce.cc:128:opt_mux$29"/>
    <g transform="translate(0,10)" s:x="0" s:y="10" s:pid="in0" id="port_$auto$opt_reduce.cc:128:opt_mux$29~A">
      <text x="-3" y="-4" class="inputPortLabel cell_$auto$opt_reduce.cc:128:opt_mux$29">A</text>
    </g>
    <g transform="translate(30,10)" s:x="30" s:y="10" s:pid="out0" id="port_$auto$opt_reduce.cc:128:opt_mux$29~Y">
      <text x="5" y="-4" style="fill:#000; stroke:none" class="cell_$auto$opt_reduce.cc:128:opt_mux$29">Y</text>
    </g>
  </g>
  <g s:type="generic" transform="translate(284,587.5)" s:width="30" s:height="40" id="cell_$auto$opt_reduce.cc:128:opt_mux$31">
    <text x="15" y="-4" class="nodelabel cell_$auto$opt_reduce.cc:128:opt_mux$31" s:attribute="ref">$reduce_or</text>
    <rect width="30" height="20" s:generic="body" class="cell_$auto$opt_reduce.cc:128:opt_mux$31"/>
    <g transform="translate(0,10)" s:x="0" s:y="10" s:pid="in0" id="port_$auto$opt_reduce.cc:128:opt_mux$31~A">
      <text x="-3" y="-4" class="inputPortLabel cell_$auto$opt_reduce.cc:128:opt_mux$31">A</text>
    </g>
    <g transform="translate(30,10)" s:x="30" s:y="10" s:pid="out0" id="port_$auto$opt_reduce.cc:128:opt_mux$31~Y">
      <text x="5" y="-4" style="fill:#000; stroke:none" class="cell_$auto$opt_reduce.cc:128:opt_mux$31">Y</text>
    </g>
  </g>
  <g s:type="dff" transform="translate(779,660.5)" s:width="30" s:height="40" id="cell_$procdff$26">
    <s:alias val="$dff"/>
    <s:alias val="$_DFF_"/>
    <s:alias val="$_DFF_P_"/>
    <rect width="30" height="40" x="0" y="0" class="cell_$procdff$26"/>
    <path d="M0,35 L5,30 L0,25" class="cell_$procdff$26"/>
    <g s:x="30" s:y="10" s:pid="Q"/>
    <g s:x="0" s:y="30" s:pid="CLK"/>
    <g s:x="0" s:y="30" s:pid="C"/>
    <g s:x="0" s:y="10" s:pid="D"/>
  </g>
  <g s:type="mux" transform="translate(665.6666666666666,156)" s:width="20" s:height="40" id="cell_$procmux$10">
    <s:alias val="$pmux"/>
    <s:alias val="$mux"/>
    <s:alias val="$_MUX_"/>
    <path d="M0,0 L20,10 L20,30 L0,40 Z" class="cell_$procmux$10"/>
    <g s:x="0" s:y="10" s:pid="A"/>
    <g s:x="0" s:y="30" s:pid="B"/>
    <g s:x="10" s:y="35" s:pid="S"/>
    <g s:x="20" s:y="20" s:pid="Y"/>
  </g>
  <g s:type="mux" transform="translate(724,166)" s:width="20" s:height="40" id="cell_$procmux$13">
    <s:alias val="$pmux"/>
    <s:alias val="$mux"/>
    <s:alias val="$_MUX_"/>
    <path d="M0,0 L20,10 L20,30 L0,40 Z" class="cell_$procmux$13"/>
    <g s:x="0" s:y="10" s:pid="A"/>
    <g s:x="0" s:y="30" s:pid="B"/>
    <g s:x="10" s:y="35" s:pid="S"/>
    <g s:x="20" s:y="20" s:pid="Y"/>
  </g>
  <g s:type="mux" transform="translate(597.3333333333334,166)" s:width="20" s:height="40" id="cell_$procmux$16">
    <s:alias val="$pmux"/>
    <s:alias val="$mux"/>
    <s:alias val="$_MUX_"/>
    <path d="M0,0 L20,10 L20,30 L0,40 Z" class="cell_$procmux$16"/>
    <g s:x="0" s:y="10" s:pid="A"/>
    <g s:x="0" s:y="30" s:pid="B"/>
    <g s:x="10" s:y="35" s:pid="S"/>
    <g s:x="20" s:y="20" s:pid="Y"/>
  </g>
  <g s:type="eq" transform="translate(150.33333333333334,45)" s:width="25" s:height="25" id="cell_$procmux$17_CMP0">
    <s:alias val="$eq"/>
    <circle r="12.5" cx="12.5" cy="12.5" class="cell_$procmux$17_CMP0"/>
    <line x1="7.5" x2="17.5" y1="10" y2="10" class="cell_$procmux$17_CMP0"/>
    <line x1="7.5" x2="17.5" y1="15" y2="15" class="cell_$procmux$17_CMP0"/>
    <g s:x="3" s:y="5" s:pid="A"/>
    <g s:x="3" s:y="20" s:pid="B"/>
    <g s:x="25" s:y="12.5" s:pid="Y"/>
  </g>
  <g s:type="eq" transform="translate(148.66666666666666,213.5)" s:width="25" s:height="25" id="cell_$procmux$18_CMP0">
    <s:alias val="$eq"/>
    <circle r="12.5" cx="12.5" cy="12.5" class="cell_$procmux$18_CMP0"/>
    <line x1="7.5" x2="17.5" y1="10" y2="10" class="cell_$procmux$18_CMP0"/>
    <line x1="7.5" x2="17.5" y1="15" y2="15" class="cell_$procmux$18_CMP0"/>
    <g s:x="3" s:y="5" s:pid="A"/>
    <g s:x="3" s:y="20" s:pid="B"/>
    <g s:x="25" s:y="12.5" s:pid="Y"/>
  </g>
  <g s:type="eq" transform="translate(148.66666666666666,355.5)" s:width="25" s:height="25" id="cell_$procmux$19_CMP0">
    <s:alias val="$eq"/>
    <circle r="12.5" cx="12.5" cy="12.5" class="cell_$procmux$19_CMP0"/>
    <line x1="7.5" x2="17.5" y1="10" y2="10" class="cell_$procmux$19_CMP0"/>
    <line x1="7.5" x2="17.5" y1="15" y2="15" class="cell_$procmux$19_CMP0"/>
    <g s:x="3" s:y="5" s:pid="A"/>
    <g s:x="3" s:y="20" s:pid="B"/>
    <g s:x="25" s:y="12.5" s:pid="Y"/>
  </g>
  <g s:type="eq" transform="translate(148.66666666666666,530.5)" s:width="25" s:height="25" id="cell_$procmux$20_CMP0">
    <s:alias val="$eq"/>
    <circle r="12.5" cx="12.5" cy="12.5" class="cell_$procmux$20_CMP0"/>
    <line x1="7.5" x2="17.5" y1="10" y2="10" class="cell_$procmux$20_CMP0"/>
    <line x1="7.5" x2="17.5" y1="15" y2="15" class="cell_$procmux$20_CMP0"/>
    <g s:x="3" s:y="5" s:pid="A"/>
    <g s:x="3" s:y="20" s:pid="B"/>
    <g s:x="25" s:y="12.5" s:pid="Y"/>
  </g>
  <g s:type="eq" transform="translate(341.3333333333333,645.5)" s:width="25" s:height="25" id="cell_$procmux$21_CMP0">
    <s:alias val="$eq"/>
    <circle r="12.5" cx="12.5" cy="12.5" class="cell_$procmux$21_CMP0"/>
    <line x1="7.5" x2="17.5" y1="10" y2="10" class="cell_$procmux$21_CMP0"/>
    <line x1="7.5" x2="17.5" y1="15" y2="15" class="cell_$procmux$21_CMP0"/>
    <g s:x="3" s:y="5" s:pid="A"/>
    <g s:x="3" s:y="20" s:pid="B"/>
    <g s:x="25" s:y="12.5" s:pid="Y"/>
  </g>
  <g s:type="eq" transform="translate(148.66666666666666,595.5)" s:width="25" s:height="25" id="cell_$procmux$22_CMP0">
    <s:alias val="$eq"/>
    <circle r="12.5" cx="12.5" cy="12.5" class="cell_$procmux$22_CMP0"/>
    <line x1="7.5" x2="17.5" y1="10" y2="10" class="cell_$procmux$22_CMP0"/>
    <line x1="7.5" x2="17.5" y1="15" y2="15" class="cell_$procmux$22_CMP0"/>
    <g s:x="3" s:y="5" s:pid="A"/>
    <g s:x="3" s:y="20" s:pid="B"/>
    <g s:x="25" s:y="12.5" s:pid="Y"/>
  </g>
  <g s:type="eq" transform="translate(148.66666666666666,415.5)" s:width="25" s:height="25" id="cell_$procmux$23_CMP0">
    <s:alias val="$eq"/>
    <circle r="12.5" cx="12.5" cy="12.5" class="cell_$procmux$23_CMP0"/>
    <line x1="7.5" x2="17.5" y1="10" y2="10" class="cell_$procmux$23_CMP0"/>
    <line x1="7.5" x2="17.5" y1="15" y2="15" class="cell_$procmux$23_CMP0"/>
    <g s:x="3" s:y="5" s:pid="A"/>
    <g s:x="3" s:y="20" s:pid="B"/>
    <g s:x="25" s:y="12.5" s:pid="Y"/>
  </g>
  <g s:type="eq" transform="translate(341.3333333333333,710.5)" s:width="25" s:height="25" id="cell_$procmux$24_CMP0">
    <s:alias val="$eq"/>
    <circle r="12.5" cx="12.5" cy="12.5" class="cell_$procmux$24_CMP0"/>
    <line x1="7.5" x2="17.5" y1="10" y2="10" class="cell_$procmux$24_CMP0"/>
    <line x1="7.5" x2="17.5" y1="15" y2="15" class="cell_$procmux$24_CMP0"/>
    <g s:x="3" s:y="5" s:pid="A"/>
    <g s:x="3" s:y="20" s:pid="B"/>
    <g s:x="25" s:y="12.5" s:pid="Y"/>
  </g>
  <g s:type="not" transform="translate(147,475.5)" s:width="30" s:height="20" id="cell_$procmux$25_CMP0">
    <s:alias val="$_NOT_"/>
    <s:alias val="$not"/>
    <s:alias val="$logic_not"/>
    <path d="M0,0 L0,20 L20,10 Z" class="cell_$procmux$25_CMP0"/>
    <circle cx="23" cy="10" r="3" class="cell_$procmux$25_CMP0"/>
    <g s:x="0" s:y="10" s:pid="A"/>
    <g s:x="25" s:y="10" s:pid="Y"/>
  </g>
  <g s:type="mux" transform="translate(1148,600.5)" s:width="20" s:height="40" id="cell_$procmux$7">
    <s:alias val="$pmux"/>
    <s:alias val="$mux"/>
    <s:alias val="$_MUX_"/>
    <path d="M0,0 L20,10 L20,30 L0,40 Z" class="cell_$procmux$7"/>
    <g s:x="0" s:y="10" s:pid="A"/>
    <g s:x="0" s:y="30" s:pid="B"/>
    <g s:x="10" s:y="35" s:pid="S"/>
    <g s:x="20" s:y="20" s:pid="Y"/>
  </g>
  <g s:type="generic" transform="translate(964,697.5)" s:width="30" s:height="40" id="cell_$procmux$9_ANY">
    <text x="15" y="-4" class="nodelabel cell_$procmux$9_ANY" s:attribute="ref">$reduce_or</text>
    <rect width="30" height="20" s:generic="body" class="cell_$procmux$9_ANY"/>
    <g transform="translate(0,10)" s:x="0" s:y="10" s:pid="in0" id="port_$procmux$9_ANY~A">
      <text x="-3" y="-4" class="inputPortLabel cell_$procmux$9_ANY">A</text>
    </g>
    <g transform="translate(30,10)" s:x="30" s:y="10" s:pid="out0" id="port_$procmux$9_ANY~Y">
      <text x="5" y="-4" style="fill:#000; stroke:none" class="cell_$procmux$9_ANY">Y</text>
    </g>
  </g>
  <g s:type="not" transform="translate(844,610.5)" s:width="30" s:height="20" id="cell_$procmux$9_CMP0">
    <s:alias val="$_NOT_"/>
    <s:alias val="$not"/>
    <s:alias val="$logic_not"/>
    <path d="M0,0 L0,20 L20,10 Z" class="cell_$procmux$9_CMP0"/>
    <circle cx="23" cy="10" r="3" class="cell_$procmux$9_CMP0"/>
    <g s:x="0" s:y="10" s:pid="A"/>
    <g s:x="25" s:y="10" s:pid="Y"/>
  </g>
  <g s:type="eq" transform="translate(845.6666666666666,665.5)" s:width="25" s:height="25" id="cell_$procmux$9_CMP1">
    <s:alias val="$eq"/>
    <circle r="12.5" cx="12.5" cy="12.5" class="cell_$procmux$9_CMP1"/>
    <line x1="7.5" x2="17.5" y1="10" y2="10" class="cell_$procmux$9_CMP1"/>
    <line x1="7.5" x2="17.5" y1="15" y2="15" class="cell_$procmux$9_CMP1"/>
    <g s:x="3" s:y="5" s:pid="A"/>
    <g s:x="3" s:y="20" s:pid="B"/>
    <g s:x="25" s:y="12.5" s:pid="Y"/>
  </g>
  <g s:type="eq" transform="translate(845.6666666666666,725.5)" s:width="25" s:height="25" id="cell_$procmux$9_CMP2">
    <s:alias val="$eq"/>
    <circle r="12.5" cx="12.5" cy="12.5" class="cell_$procmux$9_CMP2"/>
    <line x1="7.5" x2="17.5" y1="10" y2="10" class="cell_$procmux$9_CMP2"/>
    <line x1="7.5" x2="17.5" y1="15" y2="15" class="cell_$procmux$9_CMP2"/>
    <g s:x="3" s:y="5" s:pid="A"/>
    <g s:x="3" s:y="20" s:pid="B"/>
    <g s:x="25" s:y="12.5" s:pid="Y"/>
  </g>
  <g s:type="eq" transform="translate(845.6666666666666,785.5)" s:width="25" s:height="25" id="cell_$procmux$9_CMP3">
    <s:alias val="$eq"/>
    <circle r="12.5" cx="12.5" cy="12.5" class="cell_$procmux$9_CMP3"/>
    <line x1="7.5" x2="17.5" y1="10" y2="10" class="cell_$procmux$9_CMP3"/>
    <line x1="7.5" x2="17.5" y1="15" y2="15" class="cell_$procmux$9_CMP3"/>
    <g s:x="3" s:y="5" s:pid="A"/>
    <g s:x="3" s:y="20" s:pid="B"/>
    <g s:x="25" s:y="12.5" s:pid="Y"/>
  </g>
  <g s:type="inputExt" transform="translate(594,680.5)" s:width="30" s:height="20" id="cell_clk">
    <text x="15" y="-4" class="nodelabel cell_clk" s:attribute="ref">clk</text>
    <s:alias val="$_inputExt_"/>
    <path d="M0,0 L0,20 L15,20 L30,10 L15,0 Z" class="cell_clk"/>
    <g s:x="28" s:y="10" s:pid="Y"/>
  </g>
  <g s:type="inputExt" transform="translate(659,620.5)" s:width="30" s:height="20" id="cell_reset">
    <text x="15" y="-4" class="nodelabel cell_reset" s:attribute="ref">reset</text>
    <s:alias val="$_inputExt_"/>
    <path d="M0,0 L0,20 L15,20 L30,10 L15,0 Z" class="cell_reset"/>
    <g s:x="28" s:y="10" s:pid="Y"/>
  </g>
  <g s:type="inputExt" transform="translate(12,301)" s:width="30" s:height="20" id="cell_data">
    <text x="15" y="-4" class="nodelabel cell_data" s:attribute="ref">data</text>
    <s:alias val="$_inputExt_"/>
    <path d="M0,0 L0,20 L15,20 L30,10 L15,0 Z" class="cell_data"/>
    <g s:x="28" s:y="10" s:pid="Y"/>
  </g>
  <g s:type="outputExt" transform="translate(1203,610.5)" s:width="30" s:height="20" id="cell_start_shifting">
    <text x="15" y="-4" class="nodelabel cell_start_shifting" s:attribute="ref">start_shifting</text>
    <s:alias val="$_outputExt_"/>
    <path d="M30,0 L30,20 L15,20 L0,10 L15,0 Z" class="cell_start_shifting"/>
    <g s:x="0" s:y="10" s:pid="A"/>
  </g>
  <g s:type="constant" transform="translate(659,101)" s:width="30" s:height="20" id="cell_000">
    <text x="15" y="-4" class="nodelabel cell_000" s:attribute="ref">000</text>
    <s:alias val="$_constant_"/>
    <rect width="30" height="20" class="cell_000"/>
    <g s:x="30" s:y="10" s:pid="Y"/>
  </g>
  <g s:type="constant" transform="translate(523,121)" s:width="30" s:height="20" id="cell_111">
    <text x="15" y="-4" class="nodelabel cell_111" s:attribute="ref">111</text>
    <s:alias val="$_constant_"/>
    <rect width="30" height="20" class="cell_111"/>
    <g s:x="30" s:y="10" s:pid="Y"/>
  </g>
  <g s:type="constant" transform="translate(523,186)" s:width="30" s:height="20" id="cell_001011010000100">
    <text x="15" y="-4" class="nodelabel cell_001011010000100" s:attribute="ref">0x1684</text>
    <s:alias val="$_constant_"/>
    <rect width="30" height="20" class="cell_001011010000100"/>
    <g s:x="30" s:y="10" s:pid="Y"/>
  </g>
  <g s:type="constant" transform="translate(77,55)" s:width="30" s:height="20" id="cell_100">
    <text x="15" y="-4" class="nodelabel cell_100" s:attribute="ref">100</text>
    <s:alias val="$_constant_"/>
    <rect width="30" height="20" class="cell_100"/>
    <g s:x="30" s:y="10" s:pid="Y"/>
  </g>
  <g s:type="constant" transform="translate(77,223.5)" s:width="30" s:height="20" id="cell_1011">
    <text x="15" y="-4" class="nodelabel cell_1011" s:attribute="ref">0xb</text>
    <s:alias val="$_constant_"/>
    <rect width="30" height="20" class="cell_1011"/>
    <g s:x="30" s:y="10" s:pid="Y"/>
  </g>
  <g s:type="constant" transform="translate(77,365.5)" s:width="30" s:height="20" id="cell_11">
    <text x="15" y="-4" class="nodelabel cell_11" s:attribute="ref">11</text>
    <s:alias val="$_constant_"/>
    <rect width="30" height="20" class="cell_11"/>
    <g s:x="30" s:y="10" s:pid="Y"/>
  </g>
  <g s:type="constant" transform="translate(77,540.5)" s:width="30" s:height="20" id="cell_1010">
    <text x="15" y="-4" class="nodelabel cell_1010" s:attribute="ref">0xa</text>
    <s:alias val="$_constant_"/>
    <rect width="30" height="20" class="cell_1010"/>
    <g s:x="30" s:y="10" s:pid="Y"/>
  </g>
  <g s:type="constant" transform="translate(212,655.5)" s:width="30" s:height="20" id="cell_10">
    <text x="15" y="-4" class="nodelabel cell_10" s:attribute="ref">10</text>
    <s:alias val="$_constant_"/>
    <rect width="30" height="20" class="cell_10"/>
    <g s:x="30" s:y="10" s:pid="Y"/>
  </g>
  <g s:type="constant" transform="translate(77,605.5)" s:width="30" s:height="20" id="cell_1001">
    <text x="15" y="-4" class="nodelabel cell_1001" s:attribute="ref">0x9</text>
    <s:alias val="$_constant_"/>
    <rect width="30" height="20" class="cell_1001"/>
    <g s:x="30" s:y="10" s:pid="Y"/>
  </g>
  <g s:type="constant" transform="translate(77,158.5)" s:width="30" s:height="20" id="cell_1">
    <text x="15" y="-4" class="nodelabel cell_1" s:attribute="ref">1</text>
    <s:alias val="$_constant_"/>
    <rect width="30" height="20" class="cell_1"/>
    <g s:x="30" s:y="10" s:pid="Y"/>
  </g>
  <g s:type="constant" transform="translate(212,720.5)" s:width="30" s:height="20" id="cell_1000">
    <text x="15" y="-4" class="nodelabel cell_1000" s:attribute="ref">0x8</text>
    <s:alias val="$_constant_"/>
    <rect width="30" height="20" class="cell_1000"/>
    <g s:x="30" s:y="10" s:pid="Y"/>
  </g>
  <g s:type="constant" transform="translate(1083,620.5)" s:width="30" s:height="20" id="cell_01">
    <text x="15" y="-4" class="nodelabel cell_01" s:attribute="ref">01</text>
    <s:alias val="$_constant_"/>
    <rect width="30" height="20" class="cell_01"/>
    <g s:x="30" s:y="10" s:pid="Y"/>
  </g>
  <g s:type="join" transform="translate(223,195.5)" s:width="4" s:height="40" id="cell_$join$,6,7,">
    <rect width="5" height="40" class="splitjoinBody" s:generic="body"/>
    <s:alias val="$_join_"/>
    <g s:x="5" s:y="20" s:pid="out"/>
    <g transform="translate(0,10)" s:x="0" s:y="10" s:pid="in0">
      <text x="-3" y="-4" class="inputPortLabel">0</text>
    </g>
    <g transform="translate(0,30)" s:x="0" s:y="10" s:pid="in0">
      <text x="-3" y="-4" class="inputPortLabel">1</text>
    </g>
  </g>
  <g s:type="join" transform="translate(222,435)" s:width="4" s:height="40" id="cell_$join$,9,10,11,">
    <rect width="5" height="60" class="splitjoinBody" s:generic="body"/>
    <s:alias val="$_join_"/>
    <g s:x="5" s:y="20" s:pid="out"/>
    <g transform="translate(0,10)" s:x="0" s:y="10" s:pid="in0">
      <text x="-3" y="-4" class="inputPortLabel">0</text>
    </g>
    <g transform="translate(0,30)" s:x="0" s:y="10" s:pid="in0">
      <text x="-3" y="-4" class="inputPortLabel">1</text>
    </g>
    <g transform="translate(0,50)" s:x="0" s:y="10" s:pid="in0">
      <text x="-3" y="-4" class="inputPortLabel">2</text>
    </g>
  </g>
  <g s:type="join" transform="translate(223,577.5)" s:width="4" s:height="40" id="cell_$join$,13,14,">
    <rect width="5" height="40" class="splitjoinBody" s:generic="body"/>
    <s:alias val="$_join_"/>
    <g s:x="5" s:y="20" s:pid="out"/>
    <g transform="translate(0,10)" s:x="0" s:y="10" s:pid="in0">
      <text x="-3" y="-4" class="inputPortLabel">0</text>
    </g>
    <g transform="translate(0,30)" s:x="0" s:y="10" s:pid="in0">
      <text x="-3" y="-4" class="inputPortLabel">1</text>
    </g>
  </g>
  <g s:type="join" transform="translate(531,587.5)" s:width="4" s:height="40" id="cell_$join$,8,12,15,28,29,">
    <rect width="5" height="100" class="splitjoinBody" s:generic="body"/>
    <s:alias val="$_join_"/>
    <g s:x="5" s:y="20" s:pid="out"/>
    <g transform="translate(0,10)" s:x="0" s:y="10" s:pid="in0">
      <text x="-3" y="-4" class="inputPortLabel">0</text>
    </g>
    <g transform="translate(0,30)" s:x="0" s:y="10" s:pid="in0">
      <text x="-3" y="-4" class="inputPortLabel">1</text>
    </g>
    <g transform="translate(0,50)" s:x="0" s:y="10" s:pid="in0">
      <text x="-3" y="-4" class="inputPortLabel">2</text>
    </g>
    <g transform="translate(0,70)" s:x="0" s:y="10" s:pid="in0">
      <text x="-3" y="-4" class="inputPortLabel">3</text>
    </g>
    <g transform="translate(0,90)" s:x="0" s:y="10" s:pid="in0">
      <text x="-3" y="-4" class="inputPortLabel">4</text>
    </g>
  </g>
  <g s:type="join" transform="translate(96,280.5)" s:width="4" s:height="40" id="cell_$join$,19,20,21,4,">
    <rect width="5" height="40" class="splitjoinBody" s:generic="body"/>
    <s:alias val="$_join_"/>
    <g s:x="5" s:y="20" s:pid="out"/>
    <g transform="translate(0,10)" s:x="0" s:y="10" s:pid="in0">
      <text x="-3" y="-4" class="inputPortLabel">0:2</text>
    </g>
    <g transform="translate(0,30)" s:x="0" s:y="10" s:pid="in0">
      <text x="-3" y="-4" class="inputPortLabel">3</text>
    </g>
  </g>
  <g s:type="join" transform="translate(1094,677.5)" s:width="4" s:height="40" id="cell_$join$,6,30,">
    <rect width="5" height="40" class="splitjoinBody" s:generic="body"/>
    <s:alias val="$_join_"/>
    <g s:x="5" s:y="20" s:pid="out"/>
    <g transform="translate(0,10)" s:x="0" s:y="10" s:pid="in0">
      <text x="-3" y="-4" class="inputPortLabel">0</text>
    </g>
    <g transform="translate(0,30)" s:x="0" s:y="10" s:pid="in0">
      <text x="-3" y="-4" class="inputPortLabel">1</text>
    </g>
  </g>
  <g s:type="join" transform="translate(916,687.5)" s:width="4" s:height="40" id="cell_$join$,31,32,33,34,">
    <rect width="5" height="80" class="splitjoinBody" s:generic="body"/>
    <s:alias val="$_join_"/>
    <g s:x="5" s:y="20" s:pid="out"/>
    <g transform="translate(0,10)" s:x="0" s:y="10" s:pid="in0">
      <text x="-3" y="-4" class="inputPortLabel">0</text>
    </g>
    <g transform="translate(0,30)" s:x="0" s:y="10" s:pid="in0">
      <text x="-3" y="-4" class="inputPortLabel">1</text>
    </g>
    <g transform="translate(0,50)" s:x="0" s:y="10" s:pid="in0">
      <text x="-3" y="-4" class="inputPortLabel">2</text>
    </g>
    <g transform="translate(0,70)" s:x="0" s:y="10" s:pid="in0">
      <text x="-3" y="-4" class="inputPortLabel">3</text>
    </g>
  </g>
  <line x1="229" x2="284" y1="216" y2="216" class="net_6,7"/>
  <line x1="228" x2="284" y1="455.5" y2="455.5" class="net_9,10,11"/>
  <line x1="229" x2="284" y1="598" y2="598" class="net_13,14"/>
  <line x1="622" x2="779" y1="690.5" y2="690.5" class="net_2"/>
  <line x1="622" x2="644" y1="690.5" y2="690.5" class="net_2"/>
  <line x1="644" x2="644" y1="690.5" y2="600.5" class="net_2"/>
  <line x1="644" x2="675.6666666666666" y1="600.5" y2="600.5" class="net_2"/>
  <circle cx="644" cy="690.5" r="2" style="fill:#000" class="net_2"/>
  <line x1="675.6666666666666" x2="675.6666666666666" y1="600.5" y2="191" class="net_2"/>
  <line x1="744" x2="754" y1="186" y2="186" class="net_16,17,18"/>
  <line x1="754" x2="754" y1="186" y2="670.5" class="net_16,17,18"/>
  <line x1="754" x2="779" y1="670.5" y2="670.5" class="net_16,17,18"/>
  <line x1="809" x2="819" y1="670.5" y2="670.5" class="net_19,20,21"/>
  <line x1="819" x2="819" y1="670.5" y2="650.5" class="net_19,20,21"/>
  <line x1="819" x2="634" y1="650.5" y2="650.5" class="net_19,20,21"/>
  <line x1="634" x2="634" y1="650.5" y2="166" class="net_19,20,21"/>
  <line x1="634" x2="665.6666666666666" y1="166" y2="166" class="net_19,20,21"/>
  <line x1="809" x2="819" y1="670.5" y2="670.5" class="net_19,20,21"/>
  <line x1="819" x2="819" y1="670.5" y2="650.5" class="net_19,20,21"/>
  <line x1="819" x2="764" y1="650.5" y2="650.5" class="net_19,20,21"/>
  <line x1="764" x2="764" y1="650.5" y2="80" class="net_19,20,21"/>
  <line x1="764" x2="137" y1="80" y2="80" class="net_19,20,21"/>
  <line x1="137" x2="137" y1="80" y2="50" class="net_19,20,21"/>
  <line x1="137" x2="153.33333333333334" y1="50" y2="50" class="net_19,20,21"/>
  <line x1="809" x2="819" y1="670.5" y2="670.5" class="net_19,20,21"/>
  <line x1="819" x2="819" y1="670.5" y2="620.5" class="net_19,20,21"/>
  <line x1="819" x2="844" y1="620.5" y2="620.5" class="net_19,20,21"/>
  <line x1="809" x2="848.6666666666666" y1="670.5" y2="670.5" class="net_19,20,21"/>
  <line x1="809" x2="819" y1="670.5" y2="670.5" class="net_19,20,21"/>
  <line x1="819" x2="819" y1="670.5" y2="730.5" class="net_19,20,21"/>
  <circle cx="819" cy="730.5" r="2" style="fill:#000" class="net_19,20,21"/>
  <line x1="819" x2="848.6666666666666" y1="730.5" y2="730.5" class="net_19,20,21"/>
  <line x1="809" x2="819" y1="670.5" y2="670.5" class="net_19,20,21"/>
  <line x1="819" x2="819" y1="670.5" y2="790.5" class="net_19,20,21"/>
  <line x1="819" x2="848.6666666666666" y1="790.5" y2="790.5" class="net_19,20,21"/>
  <line x1="809" x2="819" y1="670.5" y2="670.5" class="net_19,20,21"/>
  <line x1="819" x2="819" y1="670.5" y2="650.5" class="net_19,20,21"/>
  <line x1="819" x2="764" y1="650.5" y2="650.5" class="net_19,20,21"/>
  <line x1="764" x2="764" y1="650.5" y2="80" class="net_19,20,21"/>
  <line x1="764" x2="197" y1="80" y2="80" class="net_19,20,21"/>
  <line x1="197" x2="197" y1="80" y2="34" class="net_19,20,21"/>
  <line x1="197" x2="52" y1="34" y2="34" class="net_19,20,21"/>
  <line x1="52" x2="52" y1="34" y2="291" class="net_19,20,21"/>
  <circle cx="197" cy="80" r="2" style="fill:#000" class="net_19,20,21"/>
  <circle cx="764" cy="650.5" r="2" style="fill:#000" class="net_19,20,21"/>
  <circle cx="819" cy="650.5" r="2" style="fill:#000" class="net_19,20,21"/>
  <circle cx="819" cy="670.5" r="2" style="fill:#000" class="net_19,20,21"/>
  <line x1="52" x2="96" y1="291" y2="291" class="net_19,20,21"/>
  <line x1="617.3333333333334" x2="665.6666666666666" y1="186" y2="186" class="net_22,23,24"/>
  <line x1="685.6666666666666" x2="724" y1="176" y2="176" class="net_25,26,27"/>
  <line x1="689" x2="699" y1="111" y2="111" class="net_35,36,37"/>
  <line x1="699" x2="699" y1="111" y2="196" class="net_35,36,37"/>
  <line x1="699" x2="724" y1="196" y2="196" class="net_35,36,37"/>
  <line x1="687" x2="734" y1="630.5" y2="630.5" class="net_3"/>
  <line x1="734" x2="734" y1="630.5" y2="201" class="net_3"/>
  <line x1="553" x2="569" y1="131" y2="131" class="net_38,39,40"/>
  <line x1="569" x2="569" y1="131" y2="176" class="net_38,39,40"/>
  <line x1="569" x2="597.3333333333334" y1="176" y2="176" class="net_38,39,40"/>
  <line x1="553" x2="597.3333333333334" y1="196" y2="196" class="net_41,42,43,44,45,46,47,48,49,50,51,52,53,54,55"/>
  <line x1="537" x2="607.3333333333334" y1="608" y2="608" class="net_8,12,15,28,29"/>
  <line x1="607.3333333333334" x2="607.3333333333334" y1="608" y2="201" class="net_8,12,15,28,29"/>
  <line x1="107" x2="153.33333333333334" y1="65" y2="65" class="net_56,57,58"/>
  <line x1="102" x2="137" y1="301" y2="301" class="net_19,20,21,4"/>
  <line x1="137" x2="137" y1="301" y2="218.5" class="net_19,20,21,4"/>
  <circle cx="137" cy="301" r="2" style="fill:#000" class="net_19,20,21,4"/>
  <line x1="137" x2="151.66666666666666" y1="218.5" y2="218.5" class="net_19,20,21,4"/>
  <line x1="102" x2="137" y1="301" y2="301" class="net_19,20,21,4"/>
  <line x1="137" x2="137" y1="301" y2="360.5" class="net_19,20,21,4"/>
  <circle cx="137" cy="360.5" r="2" style="fill:#000" class="net_19,20,21,4"/>
  <line x1="137" x2="151.66666666666666" y1="360.5" y2="360.5" class="net_19,20,21,4"/>
  <line x1="102" x2="137" y1="301" y2="301" class="net_19,20,21,4"/>
  <line x1="137" x2="137" y1="301" y2="535.5" class="net_19,20,21,4"/>
  <circle cx="137" cy="535.5" r="2" style="fill:#000" class="net_19,20,21,4"/>
  <line x1="137" x2="151.66666666666666" y1="535.5" y2="535.5" class="net_19,20,21,4"/>
  <line x1="102" x2="137" y1="301" y2="301" class="net_19,20,21,4"/>
  <line x1="137" x2="137" y1="301" y2="634.5" class="net_19,20,21,4"/>
  <line x1="137" x2="262" y1="634.5" y2="634.5" class="net_19,20,21,4"/>
  <line x1="262" x2="262" y1="634.5" y2="650.5" class="net_19,20,21,4"/>
  <circle cx="262" cy="650.5" r="2" style="fill:#000" class="net_19,20,21,4"/>
  <line x1="262" x2="344.3333333333333" y1="650.5" y2="650.5" class="net_19,20,21,4"/>
  <line x1="102" x2="137" y1="301" y2="301" class="net_19,20,21,4"/>
  <line x1="137" x2="137" y1="301" y2="600.5" class="net_19,20,21,4"/>
  <circle cx="137" cy="600.5" r="2" style="fill:#000" class="net_19,20,21,4"/>
  <line x1="137" x2="151.66666666666666" y1="600.5" y2="600.5" class="net_19,20,21,4"/>
  <line x1="102" x2="137" y1="301" y2="301" class="net_19,20,21,4"/>
  <line x1="137" x2="137" y1="301" y2="420.5" class="net_19,20,21,4"/>
  <circle cx="137" cy="420.5" r="2" style="fill:#000" class="net_19,20,21,4"/>
  <line x1="137" x2="151.66666666666666" y1="420.5" y2="420.5" class="net_19,20,21,4"/>
  <line x1="102" x2="137" y1="301" y2="301" class="net_19,20,21,4"/>
  <line x1="137" x2="137" y1="301" y2="634.5" class="net_19,20,21,4"/>
  <line x1="137" x2="262" y1="634.5" y2="634.5" class="net_19,20,21,4"/>
  <line x1="262" x2="262" y1="634.5" y2="715.5" class="net_19,20,21,4"/>
  <line x1="262" x2="344.3333333333333" y1="715.5" y2="715.5" class="net_19,20,21,4"/>
  <line x1="102" x2="137" y1="301" y2="301" class="net_19,20,21,4"/>
  <line x1="137" x2="137" y1="301" y2="485.5" class="net_19,20,21,4"/>
  <circle cx="137" cy="485.5" r="2" style="fill:#000" class="net_19,20,21,4"/>
  <line x1="137" x2="147" y1="485.5" y2="485.5" class="net_19,20,21,4"/>
  <line x1="107" x2="151.66666666666666" y1="233.5" y2="233.5" class="net_59,60,61,62"/>
  <line x1="107" x2="151.66666666666666" y1="375.5" y2="375.5" class="net_63,64"/>
  <line x1="107" x2="117" y1="375.5" y2="375.5" class="net_63,64"/>
  <line x1="117" x2="117" y1="375.5" y2="805.5" class="net_63,64"/>
  <circle cx="117" cy="375.5" r="2" style="fill:#000" class="net_63,64"/>
  <line x1="117" x2="848.6666666666666" y1="805.5" y2="805.5" class="net_63,64"/>
  <line x1="107" x2="151.66666666666666" y1="550.5" y2="550.5" class="net_65,66,67,68"/>
  <line x1="242" x2="344.3333333333333" y1="665.5" y2="665.5" class="net_69,70"/>
  <line x1="242" x2="252" y1="665.5" y2="665.5" class="net_69,70"/>
  <line x1="252" x2="252" y1="665.5" y2="745.5" class="net_69,70"/>
  <circle cx="252" cy="665.5" r="2" style="fill:#000" class="net_69,70"/>
  <line x1="252" x2="848.6666666666666" y1="745.5" y2="745.5" class="net_69,70"/>
  <line x1="107" x2="151.66666666666666" y1="615.5" y2="615.5" class="net_71,72,73,74"/>
  <line x1="107" x2="127" y1="168.5" y2="168.5" class="net_75"/>
  <line x1="127" x2="127" y1="168.5" y2="435.5" class="net_75"/>
  <circle cx="127" cy="168.5" r="2" style="fill:#000" class="net_75"/>
  <line x1="127" x2="151.66666666666666" y1="435.5" y2="435.5" class="net_75"/>
  <line x1="107" x2="127" y1="168.5" y2="168.5" class="net_75"/>
  <line x1="127" x2="127" y1="168.5" y2="23" class="net_75"/>
  <line x1="127" x2="829" y1="23" y2="23" class="net_75"/>
  <line x1="829" x2="829" y1="23" y2="685.5" class="net_75"/>
  <line x1="829" x2="848.6666666666666" y1="685.5" y2="685.5" class="net_75"/>
  <line x1="242" x2="344.3333333333333" y1="730.5" y2="730.5" class="net_76,77,78,79"/>
  <line x1="1113" x2="1148" y1="630.5" y2="630.5" class="net_80,81"/>
  <line x1="1100" x2="1158" y1="698" y2="698" class="net_6,30"/>
  <line x1="1158" x2="1158" y1="698" y2="635.5" class="net_6,30"/>
  <line x1="922" x2="964" y1="708" y2="708" class="net_31,32,33,34"/>
  <line x1="1168" x2="1203" y1="620.5" y2="620.5" class="net_5"/>
  <line x1="175.33333333333334" x2="187" y1="57.5" y2="57.5" class="net_6"/>
  <line x1="187" x2="187" y1="57.5" y2="206" class="net_6"/>
  <circle cx="187" cy="57.5" r="2" style="fill:#000" class="net_6"/>
  <line x1="187" x2="223" y1="206" y2="206" class="net_6"/>
  <line x1="175.33333333333334" x2="187" y1="57.5" y2="57.5" class="net_6"/>
  <line x1="187" x2="187" y1="57.5" y2="12" class="net_6"/>
  <line x1="187" x2="1058" y1="12" y2="12" class="net_6"/>
  <line x1="1058" x2="1058" y1="12" y2="688" class="net_6"/>
  <line x1="1058" x2="1094" y1="688" y2="688" class="net_6"/>
  <line x1="173.66666666666666" x2="223" y1="226" y2="226" class="net_7"/>
  <line x1="173.66666666666666" x2="197" y1="368" y2="368" class="net_9"/>
  <line x1="197" x2="197" y1="368" y2="445.5" class="net_9"/>
  <line x1="197" x2="222" y1="445.5" y2="445.5" class="net_9"/>
  <line x1="173.66666666666666" x2="187" y1="428" y2="428" class="net_10"/>
  <line x1="187" x2="187" y1="428" y2="465.5" class="net_10"/>
  <line x1="187" x2="222" y1="465.5" y2="465.5" class="net_10"/>
  <line x1="172" x2="222" y1="485.5" y2="485.5" class="net_11"/>
  <line x1="173.66666666666666" x2="187" y1="543" y2="543" class="net_13"/>
  <line x1="187" x2="187" y1="543" y2="588" class="net_13"/>
  <line x1="187" x2="223" y1="588" y2="588" class="net_13"/>
  <line x1="173.66666666666666" x2="223" y1="608" y2="608" class="net_14"/>
  <line x1="315" x2="531.5" y1="216" y2="216" class="net_8"/>
  <line x1="531.5" x2="531.5" y1="216" y2="597.5" class="net_8"/>
  <line x1="315" x2="508" y1="455.5" y2="455.5" class="net_12"/>
  <line x1="508" x2="508" y1="455.5" y2="618" class="net_12"/>
  <line x1="508" x2="531" y1="618" y2="618" class="net_12"/>
  <line x1="315" x2="498" y1="598" y2="598" class="net_15"/>
  <line x1="498" x2="498" y1="598" y2="638" class="net_15"/>
  <line x1="498" x2="531" y1="638" y2="638" class="net_15"/>
  <line x1="366.3333333333333" x2="531" y1="658" y2="658" class="net_28"/>
  <line x1="366.3333333333333" x2="531.5" y1="723" y2="723" class="net_29"/>
  <line x1="531.5" x2="531.5" y1="723" y2="678.5" class="net_29"/>
  <line x1="40" x2="96" y1="311" y2="311" class="net_4"/>
  <line x1="995" x2="1094" y1="708" y2="708" class="net_30"/>
  <line x1="869" x2="894" y1="620.5" y2="620.5" class="net_31"/>
  <line x1="894" x2="894" y1="620.5" y2="698" class="net_31"/>
  <line x1="894" x2="916" y1="698" y2="698" class="net_31"/>
  <line x1="870.6666666666666" x2="884" y1="678" y2="678" class="net_32"/>
  <line x1="884" x2="884" y1="678" y2="718" class="net_32"/>
  <line x1="884" x2="916" y1="718" y2="718" class="net_32"/>
  <line x1="870.6666666666666" x2="916" y1="738" y2="738" class="net_33"/>
  <line x1="870.6666666666666" x2="916.5" y1="798" y2="798" class="net_34"/>
  <line x1="916.5" x2="916.5" y1="798" y2="758.5" class="net_34"/>
</svg>
