<svg xmlns="http://www.w3.org/2000/svg" xmlns:xlink="http://www.w3.org/1999/xlink" xmlns:s="https://github.com/nturley/netlistsvg" width="556" height="338.5">
  <style>svg {
    stroke:#000;
    fill:none;
  }
  text {
    fill:#000;
    stroke:none;
    font-size:10px;
    font-weight: bold;
    font-family: "Courier New", monospace;
  }
  .nodelabel {
    text-anchor: middle;
  }
  .inputPortLabel {
    text-anchor: end;
  }
  .splitjoinBody {
    fill:#000;
  }</style>
  <g s:type="eq" transform="translate(191.66666666666666,97)" s:width="25" s:height="25" id="cell_$eq$top_module.v:26$2">
    <s:alias val="$eq"/>
    <circle r="12.5" cx="12.5" cy="12.5" class="cell_$eq$top_module.v:26$2"/>
    <line x1="7.5" x2="17.5" y1="10" y2="10" class="cell_$eq$top_module.v:26$2"/>
    <line x1="7.5" x2="17.5" y1="15" y2="15" class="cell_$eq$top_module.v:26$2"/>
    <g s:x="3" s:y="5" s:pid="A"/>
    <g s:x="3" s:y="20" s:pid="B"/>
    <g s:x="25" s:y="12.5" s:pid="Y"/>
  </g>
  <g s:type="dff" transform="translate(385,190.5)" s:width="30" s:height="40" id="cell_$procdff$11">
    <s:alias val="$dff"/>
    <s:alias val="$_DFF_"/>
    <s:alias val="$_DFF_P_"/>
    <rect width="30" height="40" x="0" y="0" class="cell_$procdff$11"/>
    <path d="M0,35 L5,30 L0,25" class="cell_$procdff$11"/>
    <g s:x="30" s:y="10" s:pid="Q"/>
    <g s:x="0" s:y="30" s:pid="CLK"/>
    <g s:x="0" s:y="30" s:pid="C"/>
    <g s:x="0" s:y="10" s:pid="D"/>
  </g>
  <g s:type="dff" transform="translate(385,275.5)" s:width="30" s:height="40" id="cell_$procdff$12">
    <s:alias val="$dff"/>
    <s:alias val="$_DFF_"/>
    <s:alias val="$_DFF_P_"/>
    <rect width="30" height="40" x="0" y="0" class="cell_$procdff$12"/>
    <path d="M0,35 L5,30 L0,25" class="cell_$procdff$12"/>
    <g s:x="30" s:y="10" s:pid="Q"/>
    <g s:x="0" s:y="30" s:pid="CLK"/>
    <g s:x="0" s:y="30" s:pid="C"/>
    <g s:x="0" s:y="10" s:pid="D"/>
  </g>
  <g s:type="mux" transform="translate(323.3333333333333,265.5)" s:width="20" s:height="40" id="cell_$procmux$4">
    <s:alias val="$pmux"/>
    <s:alias val="$mux"/>
    <s:alias val="$_MUX_"/>
    <path d="M0,0 L20,10 L20,30 L0,40 Z" class="cell_$procmux$4"/>
    <g s:x="0" s:y="10" s:pid="A"/>
    <g s:x="0" s:y="30" s:pid="B"/>
    <g s:x="10" s:y="35" s:pid="S"/>
    <g s:x="20" s:y="20" s:pid="Y"/>
  </g>
  <g s:type="mux" transform="translate(261.66666666666663,22)" s:width="20" s:height="40" id="cell_$procmux$6">
    <s:alias val="$pmux"/>
    <s:alias val="$mux"/>
    <s:alias val="$_MUX_"/>
    <path d="M0,0 L20,10 L20,30 L0,40 Z" class="cell_$procmux$6"/>
    <g s:x="0" s:y="10" s:pid="A"/>
    <g s:x="0" s:y="30" s:pid="B"/>
    <g s:x="10" s:y="35" s:pid="S"/>
    <g s:x="20" s:y="20" s:pid="Y"/>
  </g>
  <g s:type="mux" transform="translate(323.3333333333333,109.5)" s:width="20" s:height="40" id="cell_$procmux$9">
    <s:alias val="$pmux"/>
    <s:alias val="$mux"/>
    <s:alias val="$_MUX_"/>
    <path d="M0,0 L20,10 L20,30 L0,40 Z" class="cell_$procmux$9"/>
    <g s:x="0" s:y="10" s:pid="A"/>
    <g s:x="0" s:y="30" s:pid="B"/>
    <g s:x="10" s:y="35" s:pid="S"/>
    <g s:x="20" s:y="20" s:pid="Y"/>
  </g>
  <g s:type="inputExt" transform="translate(320,210.5)" s:width="30" s:height="20" id="cell_clk">
    <text x="15" y="-4" class="nodelabel cell_clk" s:attribute="ref">clk</text>
    <s:alias val="$_inputExt_"/>
    <path d="M0,0 L0,20 L15,20 L30,10 L15,0 Z" class="cell_clk"/>
    <g s:x="28" s:y="10" s:pid="Y"/>
  </g>
  <g s:type="inputExt" transform="translate(255,180.5)" s:width="30" s:height="20" id="cell_reset">
    <text x="15" y="-4" class="nodelabel cell_reset" s:attribute="ref">reset</text>
    <s:alias val="$_inputExt_"/>
    <path d="M0,0 L0,20 L15,20 L30,10 L15,0 Z" class="cell_reset"/>
    <g s:x="28" s:y="10" s:pid="Y"/>
  </g>
  <g s:type="inputExt" transform="translate(12,139.5)" s:width="30" s:height="20" id="cell_data">
    <text x="15" y="-4" class="nodelabel cell_data" s:attribute="ref">data</text>
    <s:alias val="$_inputExt_"/>
    <path d="M0,0 L0,20 L15,20 L30,10 L15,0 Z" class="cell_data"/>
    <g s:x="28" s:y="10" s:pid="Y"/>
  </g>
  <g s:type="outputExt" transform="translate(450,190.5)" s:width="30" s:height="20" id="cell_start_shifting">
    <text x="15" y="-4" class="nodelabel cell_start_shifting" s:attribute="ref">start_shifting</text>
    <s:alias val="$_outputExt_"/>
    <path d="M30,0 L30,20 L15,20 L0,10 L15,0 Z" class="cell_start_shifting"/>
    <g s:x="0" s:y="10" s:pid="A"/>
  </g>
  <g s:type="constant" transform="translate(125,107)" s:width="30" s:height="20" id="cell_1101">
    <text x="15" y="-4" class="nodelabel cell_1101" s:attribute="ref">0xd</text>
    <s:alias val="$_constant_"/>
    <rect width="30" height="20" class="cell_1101"/>
    <g s:x="30" s:y="10" s:pid="Y"/>
  </g>
  <g s:type="constant" transform="translate(255,285.5)" s:width="30" s:height="20" id="cell_000">
    <text x="15" y="-4" class="nodelabel cell_000" s:attribute="ref">000</text>
    <s:alias val="$_constant_"/>
    <rect width="30" height="20" class="cell_000"/>
    <g s:x="30" s:y="10" s:pid="Y"/>
  </g>
  <g s:type="constant" transform="translate(190,42)" s:width="30" s:height="20" id="cell_1">
    <text x="15" y="-4" class="nodelabel cell_1" s:attribute="ref">1</text>
    <s:alias val="$_constant_"/>
    <rect width="30" height="20" class="cell_1"/>
    <g s:x="30" s:y="10" s:pid="Y"/>
  </g>
  <g s:type="constant" transform="translate(255,129.5)" s:width="30" s:height="20" id="cell_0">
    <text x="15" y="-4" class="nodelabel cell_0" s:attribute="ref">0</text>
    <s:alias val="$_constant_"/>
    <rect width="30" height="20" class="cell_0"/>
    <g s:x="30" s:y="10" s:pid="Y"/>
  </g>
  <g s:type="join" transform="translate(144,22)" s:width="4" s:height="40" id="cell_$join$,4,6,7,8,">
    <rect width="5" height="40" class="splitjoinBody" s:generic="body"/>
    <s:alias val="$_join_"/>
    <g s:x="5" s:y="20" s:pid="out"/>
    <g transform="translate(0,10)" s:x="0" s:y="10" s:pid="in0">
      <text x="-3" y="-4" class="inputPortLabel">0:2</text>
    </g>
  </g>
  <g s:type="join" transform="translate(84,139)" s:width="4" s:height="40" id="cell_$join$,4,6,7,">
    <rect width="5" height="40" class="splitjoinBody" s:generic="body"/>
    <s:alias val="$_join_"/>
    <g s:x="5" s:y="20" s:pid="out"/>
    <g transform="translate(0,10)" s:x="0" s:y="10" s:pid="in0">
      <text x="-3" y="-4" class="inputPortLabel">0</text>
    </g>
    <g transform="translate(0,30)" s:x="0" s:y="10" s:pid="in0">
      <text x="-3" y="-4" class="inputPortLabel">1:2</text>
    </g>
  </g>
  <g s:type="split" transform="translate(450,252.5)" s:width="5" s:height="40" id="cell_$split$,6,7,8,">
    <rect width="5" height="20" class="splitjoinBody" s:generic="body"/>
    <s:alias val="$_split_"/>
    <g s:x="0" s:y="20" s:pid="in"/>
    <g transform="translate(4,10)" s:x="4" s:y="10" s:pid="out0">
      <text x="5" y="-4">0:1</text>
    </g>
  </g>
  <line x1="150" x2="165" y1="42.5" y2="42.5" class="net_4,6,7,8"/>
  <line x1="165" x2="165" y1="42.5" y2="102" class="net_4,6,7,8"/>
  <line x1="165" x2="194.66666666666666" y1="102" y2="102" class="net_4,6,7,8"/>
  <line x1="155" x2="194.66666666666666" y1="117" y2="117" class="net_15,16,17,18"/>
  <line x1="348" x2="385" y1="220.5" y2="220.5" class="net_2"/>
  <line x1="348" x2="360" y1="220.5" y2="220.5" class="net_2"/>
  <line x1="360" x2="360" y1="220.5" y2="305.5" class="net_2"/>
  <circle cx="360" cy="220.5" r="2" style="fill:#000" class="net_2"/>
  <line x1="360" x2="385" y1="305.5" y2="305.5" class="net_2"/>
  <line x1="343.3333333333333" x2="360" y1="129.5" y2="129.5" class="net_10"/>
  <line x1="360" x2="360" y1="129.5" y2="200.5" class="net_10"/>
  <line x1="360" x2="385" y1="200.5" y2="200.5" class="net_10"/>
  <line x1="343.3333333333333" x2="385" y1="285.5" y2="285.5" class="net_11,12,13"/>
  <line x1="90" x2="305" y1="159.5" y2="159.5" class="net_4,6,7"/>
  <line x1="305" x2="305" y1="159.5" y2="275.5" class="net_4,6,7"/>
  <line x1="305" x2="323.3333333333333" y1="275.5" y2="275.5" class="net_4,6,7"/>
  <line x1="90" x2="100" y1="159.5" y2="159.5" class="net_4,6,7"/>
  <line x1="100" x2="100" y1="159.5" y2="32.5" class="net_4,6,7"/>
  <circle cx="100" cy="159.5" r="2" style="fill:#000" class="net_4,6,7"/>
  <line x1="100" x2="144" y1="32.5" y2="32.5" class="net_4,6,7"/>
  <line x1="285" x2="323.3333333333333" y1="295.5" y2="295.5" class="net_19,20,21"/>
  <line x1="283" x2="295" y1="190.5" y2="190.5" class="net_3"/>
  <line x1="295" x2="295" y1="190.5" y2="315.5" class="net_3"/>
  <line x1="295" x2="333.3333333333333" y1="315.5" y2="315.5" class="net_3"/>
  <circle cx="295" cy="190.5" r="2" style="fill:#000" class="net_3"/>
  <line x1="333.3333333333333" x2="333.3333333333333" y1="315.5" y2="300.5" class="net_3"/>
  <line x1="283" x2="333.3333333333333" y1="190.5" y2="190.5" class="net_3"/>
  <line x1="333.3333333333333" x2="333.3333333333333" y1="190.5" y2="144.5" class="net_3"/>
  <line x1="415" x2="425" y1="200.5" y2="200.5" class="net_5"/>
  <line x1="425" x2="425" y1="200.5" y2="12" class="net_5"/>
  <line x1="425" x2="230" y1="12" y2="12" class="net_5"/>
  <line x1="230" x2="230" y1="12" y2="32" class="net_5"/>
  <circle cx="425" cy="200.5" r="2" style="fill:#000" class="net_5"/>
  <line x1="230" x2="261.66666666666663" y1="32" y2="32" class="net_5"/>
  <line x1="415" x2="450" y1="200.5" y2="200.5" class="net_5"/>
  <line x1="220" x2="261.66666666666663" y1="52" y2="52" class="net_22"/>
  <line x1="216.66666666666666" x2="271.66666666666663" y1="109.5" y2="109.5" class="net_9"/>
  <line x1="271.66666666666663" x2="271.66666666666663" y1="109.5" y2="57" class="net_9"/>
  <line x1="281.66666666666663" x2="295" y1="42" y2="42" class="net_14"/>
  <line x1="295" x2="295" y1="42" y2="119.5" class="net_14"/>
  <line x1="295" x2="323.3333333333333" y1="119.5" y2="119.5" class="net_14"/>
  <line x1="285" x2="323.3333333333333" y1="139.5" y2="139.5" class="net_23"/>
  <line x1="40" x2="84" y1="149.5" y2="149.5" class="net_4"/>
  <line x1="455" x2="544" y1="263" y2="263" class="net_6,7"/>
  <line x1="544" x2="544" y1="263" y2="325.5" class="net_6,7"/>
  <line x1="544" x2="52" y1="325.5" y2="325.5" class="net_6,7"/>
  <line x1="52" x2="52" y1="325.5" y2="169.5" class="net_6,7"/>
  <line x1="52" x2="84" y1="169.5" y2="169.5" class="net_6,7"/>
  <line x1="415" x2="450.5" y1="285.5" y2="285.5" class="net_6,7,8"/>
  <line x1="450.5" x2="450.5" y1="285.5" y2="273.5" class="net_6,7,8"/>
</svg>
