<?xml version="1.0" encoding="UTF-8" standalone="no"?>
<!DOCTYPE svg PUBLIC "-//W3C//DTD SVG 1.1//EN"
 "http://www.w3.org/Graphics/SVG/1.1/DTD/svg11.dtd">
<!-- Generated by graphviz version 4.0.0 (20220529.0937)
 -->
<!-- Title: finite_state_machine Pages: 1 -->
<svg width="661pt" height="173pt"
 viewBox="0.00 0.00 661.26 173.08" xmlns="http://www.w3.org/2000/svg" xmlns:xlink="http://www.w3.org/1999/xlink">
<g id="graph0" class="graph" transform="scale(1 1) rotate(0) translate(4 169.08)">
<title>finite_state_machine</title>
<polygon fill="white" stroke="transparent" points="-4,4 -4,-169.08 657.26,-169.08 657.26,4 -4,4"/>
<!-- RESET -->
<g id="node1" class="node">
<title>RESET</title>
<ellipse fill="black" stroke="black" cx="1.8" cy="-90.54" rx="1.8" ry="1.8"/>
</g>
<!-- X0 -->
<g id="node3" class="node">
<title>X0</title>
<ellipse fill="none" stroke="black" cx="88.05" cy="-90.54" rx="21.4" ry="21.4"/>
<text text-anchor="middle" x="88.05" y="-86.84" font-family="Times New Roman,serif" font-size="14.00">X0</text>
</g>
<!-- RESET&#45;&gt;X0 -->
<g id="edge1" class="edge">
<title>RESET&#45;&gt;X0</title>
<path fill="none" stroke="black" d="M3.75,-90.54C8.97,-90.54 34.79,-90.54 56.32,-90.54"/>
<polygon fill="black" stroke="black" points="56.44,-94.04 66.44,-90.54 56.44,-87.04 56.44,-94.04"/>
<text text-anchor="middle" x="35.1" y="-94.34" font-family="Times New Roman,serif" font-size="14.00">reset</text>
</g>
<!-- F0 -->
<g id="node2" class="node">
<title>F0</title>
<ellipse fill="none" stroke="black" cx="579.72" cy="-73.54" rx="73.58" ry="73.58"/>
<text text-anchor="middle" x="579.72" y="-77.34" font-family="Times New Roman,serif" font-size="14.00">F0</text>
<text text-anchor="middle" x="579.72" y="-62.34" font-family="Times New Roman,serif" font-size="14.00">start_shifting=1</text>
</g>
<!-- F0&#45;&gt;F0 -->
<g id="edge10" class="edge">
<title>F0&#45;&gt;F0</title>
<path fill="none" stroke="black" d="M561.25,-144.93C563.84,-156.85 569.99,-165.08 579.72,-165.08 586.57,-165.08 591.64,-161.01 594.95,-154.45"/>
<polygon fill="black" stroke="black" points="598.28,-155.52 598.2,-144.93 591.66,-153.26 598.28,-155.52"/>
</g>
<!-- X0&#45;&gt;X0 -->
<g id="edge3" class="edge">
<title>X0&#45;&gt;X0</title>
<path fill="none" stroke="red" d="M78.7,-110.02C77.11,-120.47 80.23,-129.99 88.05,-129.99 93.18,-129.99 96.29,-125.89 97.37,-120.12"/>
<polygon fill="red" stroke="red" points="100.87,-120.03 97.4,-110.02 93.87,-120.01 100.87,-120.03"/>
<text text-anchor="middle" x="88.05" y="-133.79" font-family="Times New Roman,serif" font-size="14.00">x==0</text>
</g>
<!-- X1 -->
<g id="node4" class="node">
<title>X1</title>
<ellipse fill="none" stroke="black" cx="197.94" cy="-106.54" rx="21.4" ry="21.4"/>
<text text-anchor="middle" x="197.94" y="-102.84" font-family="Times New Roman,serif" font-size="14.00">X1</text>
</g>
<!-- X0&#45;&gt;X1 -->
<g id="edge2" class="edge">
<title>X0&#45;&gt;X1</title>
<path fill="none" stroke="green" d="M107.35,-99.88C113.58,-102.59 120.69,-105.18 127.5,-106.54 140.02,-109.04 154.08,-109.47 166.25,-109.12"/>
<polygon fill="green" stroke="green" points="166.55,-112.61 176.38,-108.64 166.22,-105.62 166.55,-112.61"/>
<text text-anchor="middle" x="143" y="-112.34" font-family="Times New Roman,serif" font-size="14.00">x==1</text>
</g>
<!-- X1&#45;&gt;X0 -->
<g id="edge5" class="edge">
<title>X1&#45;&gt;X0</title>
<path fill="none" stroke="red" d="M179.21,-95.66C172.9,-92.37 165.6,-89.2 158.5,-87.54 145.95,-84.61 131.8,-84.64 119.55,-85.68"/>
<polygon fill="red" stroke="red" points="118.93,-82.23 109.37,-86.8 119.7,-89.19 118.93,-82.23"/>
<text text-anchor="middle" x="143" y="-91.34" font-family="Times New Roman,serif" font-size="14.00">x==0</text>
</g>
<!-- X2 -->
<g id="node5" class="node">
<title>X2</title>
<ellipse fill="none" stroke="black" cx="307.84" cy="-106.54" rx="21.4" ry="21.4"/>
<text text-anchor="middle" x="307.84" y="-102.84" font-family="Times New Roman,serif" font-size="14.00">X2</text>
</g>
<!-- X1&#45;&gt;X2 -->
<g id="edge4" class="edge">
<title>X1&#45;&gt;X2</title>
<path fill="none" stroke="green" d="M219.49,-106.54C235.54,-106.54 258.09,-106.54 276.26,-106.54"/>
<polygon fill="green" stroke="green" points="276.37,-110.04 286.37,-106.54 276.37,-103.04 276.37,-110.04"/>
<text text-anchor="middle" x="252.89" y="-110.34" font-family="Times New Roman,serif" font-size="14.00">x==1</text>
</g>
<!-- X2&#45;&gt;X2 -->
<g id="edge6" class="edge">
<title>X2&#45;&gt;X2</title>
<path fill="none" stroke="red" d="M298.13,-126.02C296.48,-136.47 299.72,-145.99 307.84,-145.99 313.17,-145.99 316.4,-141.89 317.52,-136.12"/>
<polygon fill="red" stroke="red" points="321.02,-136.03 317.55,-126.02 314.02,-136.01 321.02,-136.03"/>
<text text-anchor="middle" x="307.84" y="-149.79" font-family="Times New Roman,serif" font-size="14.00">x==1</text>
</g>
<!-- X3 -->
<g id="node6" class="node">
<title>X3</title>
<ellipse fill="none" stroke="black" cx="417.74" cy="-73.54" rx="21.4" ry="21.4"/>
<text text-anchor="middle" x="417.74" y="-69.84" font-family="Times New Roman,serif" font-size="14.00">X3</text>
</g>
<!-- X2&#45;&gt;X3 -->
<g id="edge7" class="edge">
<title>X2&#45;&gt;X3</title>
<path fill="none" stroke="green" d="M328.63,-100.49C345.06,-95.46 368.66,-88.24 387.3,-82.54"/>
<polygon fill="green" stroke="green" points="388.53,-85.83 397.07,-79.55 386.49,-79.13 388.53,-85.83"/>
<text text-anchor="middle" x="362.79" y="-97.34" font-family="Times New Roman,serif" font-size="14.00">x==0</text>
</g>
<!-- X3&#45;&gt;F0 -->
<g id="edge8" class="edge">
<title>X3&#45;&gt;F0</title>
<path fill="none" stroke="green" d="M439.32,-73.54C454.04,-73.54 474.9,-73.54 496.02,-73.54"/>
<polygon fill="green" stroke="green" points="496.05,-77.04 506.05,-73.54 496.05,-70.04 496.05,-77.04"/>
<text text-anchor="middle" x="472.68" y="-77.34" font-family="Times New Roman,serif" font-size="14.00">x==1</text>
</g>
<!-- X3&#45;&gt;X0 -->
<g id="edge9" class="edge">
<title>X3&#45;&gt;X0</title>
<path fill="none" stroke="red" d="M396.16,-73.32C354.61,-72.98 257.74,-72.72 176.5,-76.54 154.67,-77.57 149.04,-76.89 127.5,-80.54 124.63,-81.03 121.66,-81.62 118.7,-82.28"/>
<polygon fill="red" stroke="red" points="117.75,-78.91 108.86,-84.69 119.41,-85.71 117.75,-78.91"/>
<text text-anchor="middle" x="252.89" y="-77.34" font-family="Times New Roman,serif" font-size="14.00">x==0</text>
</g>
</g>
</svg>
