<?xml version="1.0" encoding="UTF-8" standalone="no"?>
<!DOCTYPE svg PUBLIC "-//W3C//DTD SVG 1.1//EN"
 "http://www.w3.org/Graphics/SVG/1.1/DTD/svg11.dtd">
<!-- Generated by graphviz version 4.0.0 (20220529.0937)
 -->
<!-- Title: top_module Pages: 1 -->
<svg width="2293pt" height="897pt"
 viewBox="0.00 0.00 2292.88 896.62" xmlns="http://www.w3.org/2000/svg" xmlns:xlink="http://www.w3.org/1999/xlink">
<g id="graph0" class="graph" transform="scale(1 1) rotate(0) translate(4 892.62)">
<title>top_module</title>
<polygon fill="white" stroke="transparent" points="-4,4 -4,-892.62 2288.88,-892.62 2288.88,4 -4,4"/>
<text text-anchor="middle" x="1142.44" y="-7.8" font-family="Times New Roman,serif" font-size="14.00">top_module</text>
<!-- n1 -->
<g id="node1" class="node">
<title>n1</title>
<polygon fill="none" stroke="black" points="543.48,-181.62 395.52,-163.62 543.48,-145.62 691.45,-163.62 543.48,-181.62"/>
<text text-anchor="middle" x="543.48" y="-159.92" font-family="Times New Roman,serif" font-size="14.00">state_SB_DFFESR_Q_E</text>
</g>
<!-- c20 -->
<g id="node16" class="node">
<title>c20</title>
<polygon fill="none" stroke="black" points="727.47,-275.62 727.47,-367.62 939.47,-367.62 939.47,-275.62 727.47,-275.62"/>
<text text-anchor="middle" x="740.47" y="-352.42" font-family="Times New Roman,serif" font-size="14.00">C</text>
<polyline fill="none" stroke="black" points="727.47,-344.62 753.47,-344.62 "/>
<text text-anchor="middle" x="740.47" y="-329.42" font-family="Times New Roman,serif" font-size="14.00">D</text>
<polyline fill="none" stroke="black" points="727.47,-321.62 753.47,-321.62 "/>
<text text-anchor="middle" x="740.47" y="-306.42" font-family="Times New Roman,serif" font-size="14.00">E</text>
<polyline fill="none" stroke="black" points="727.47,-298.62 753.47,-298.62 "/>
<text text-anchor="middle" x="740.47" y="-283.42" font-family="Times New Roman,serif" font-size="14.00">R</text>
<polyline fill="none" stroke="black" points="753.47,-275.62 753.47,-367.62 "/>
<text text-anchor="middle" x="832.97" y="-325.42" font-family="Times New Roman,serif" font-size="14.00">state_SB_DFFESR_Q_1</text>
<text text-anchor="middle" x="832.97" y="-310.42" font-family="Times New Roman,serif" font-size="14.00">SB_DFFESR</text>
<polyline fill="none" stroke="black" points="912.47,-275.62 912.47,-367.62 "/>
<text text-anchor="middle" x="925.97" y="-317.92" font-family="Times New Roman,serif" font-size="14.00">Q</text>
</g>
<!-- n1&#45;&gt;c20 -->
<g id="edge10" class="edge">
<title>n1:e&#45;&gt;c20:w</title>
<path fill="none" stroke="#1b9e77" d="M691.47,-163.62C754.39,-163.62 671.52,-293.01 717.35,-308.17"/>
<polygon fill="#1b9e77" stroke="#1b9e77" points="717.07,-311.67 727.47,-309.62 718.06,-304.74 717.07,-311.67"/>
</g>
<!-- c21 -->
<g id="node18" class="node">
<title>c21</title>
<polygon fill="none" stroke="black" points="1898.88,-68.62 1898.88,-160.62 2096.88,-160.62 2096.88,-68.62 1898.88,-68.62"/>
<text text-anchor="middle" x="1911.88" y="-145.42" font-family="Times New Roman,serif" font-size="14.00">C</text>
<polyline fill="none" stroke="black" points="1898.88,-137.62 1924.88,-137.62 "/>
<text text-anchor="middle" x="1911.88" y="-122.42" font-family="Times New Roman,serif" font-size="14.00">D</text>
<polyline fill="none" stroke="black" points="1898.88,-114.62 1924.88,-114.62 "/>
<text text-anchor="middle" x="1911.88" y="-99.42" font-family="Times New Roman,serif" font-size="14.00">E</text>
<polyline fill="none" stroke="black" points="1898.88,-91.62 1924.88,-91.62 "/>
<text text-anchor="middle" x="1911.88" y="-76.42" font-family="Times New Roman,serif" font-size="14.00">R</text>
<polyline fill="none" stroke="black" points="1924.88,-68.62 1924.88,-160.62 "/>
<text text-anchor="middle" x="1997.38" y="-118.42" font-family="Times New Roman,serif" font-size="14.00">state_SB_DFFESR_Q</text>
<text text-anchor="middle" x="1997.38" y="-103.42" font-family="Times New Roman,serif" font-size="14.00">SB_DFFESR</text>
<polyline fill="none" stroke="black" points="2069.88,-68.62 2069.88,-160.62 "/>
<text text-anchor="middle" x="2083.38" y="-110.92" font-family="Times New Roman,serif" font-size="14.00">Q</text>
</g>
<!-- n1&#45;&gt;c21 -->
<g id="edge11" class="edge">
<title>n1:e&#45;&gt;c21:w</title>
<path fill="none" stroke="#1b9e77" d="M691.47,-163.62C833.63,-163.62 863.3,-102.62 1005.47,-102.62 1005.47,-102.62 1005.47,-102.62 1698.78,-102.62 1784.24,-102.62 1808.1,-102.62 1888.75,-102.62"/>
<polygon fill="#1b9e77" stroke="#1b9e77" points="1888.88,-106.12 1898.88,-102.62 1888.88,-99.12 1888.88,-106.12"/>
</g>
<!-- n2 -->
<g id="node2" class="node">
<title>n2</title>
<polygon fill="none" stroke="black" points="57.25,-141.16 57.25,-156.07 41.43,-166.62 19.07,-166.62 3.25,-156.07 3.25,-141.16 19.07,-130.62 41.43,-130.62 57.25,-141.16"/>
<text text-anchor="middle" x="30.25" y="-144.92" font-family="Times New Roman,serif" font-size="14.00">clk</text>
</g>
<!-- c13 -->
<g id="node10" class="node">
<title>c13</title>
<polygon fill="none" stroke="black" points="186.5,-117.62 186.5,-209.62 359.5,-209.62 359.5,-117.62 186.5,-117.62"/>
<text text-anchor="middle" x="200.5" y="-194.42" font-family="Times New Roman,serif" font-size="14.00">I0</text>
<polyline fill="none" stroke="black" points="186.5,-186.62 214.5,-186.62 "/>
<text text-anchor="middle" x="200.5" y="-171.42" font-family="Times New Roman,serif" font-size="14.00">I1</text>
<polyline fill="none" stroke="black" points="186.5,-163.62 214.5,-163.62 "/>
<text text-anchor="middle" x="200.5" y="-148.42" font-family="Times New Roman,serif" font-size="14.00">I2</text>
<polyline fill="none" stroke="black" points="186.5,-140.62 214.5,-140.62 "/>
<text text-anchor="middle" x="200.5" y="-125.42" font-family="Times New Roman,serif" font-size="14.00">I3</text>
<polyline fill="none" stroke="black" points="214.5,-117.62 214.5,-209.62 "/>
<text text-anchor="middle" x="273.5" y="-167.42" font-family="Times New Roman,serif" font-size="14.00">clk_SB_LUT4_I2</text>
<text text-anchor="middle" x="273.5" y="-152.42" font-family="Times New Roman,serif" font-size="14.00">SB_LUT4</text>
<polyline fill="none" stroke="black" points="332.5,-117.62 332.5,-209.62 "/>
<text text-anchor="middle" x="346" y="-159.92" font-family="Times New Roman,serif" font-size="14.00">O</text>
</g>
<!-- n2&#45;&gt;c13 -->
<g id="edge12" class="edge">
<title>n2:e&#45;&gt;c13:w</title>
<path fill="none" stroke="#1b9e77" d="M58.25,-148.62C111.7,-148.62 127.54,-151.25 176.29,-151.58"/>
<polygon fill="#1b9e77" stroke="#1b9e77" points="176.49,-155.08 186.5,-151.62 176.51,-148.08 176.49,-155.08"/>
</g>
<!-- n2&#45;&gt;c20 -->
<g id="edge13" class="edge">
<title>n2:e&#45;&gt;c20:w</title>
<path fill="none" stroke="#1b9e77" d="M58.25,-148.62C127.91,-148.62 42.95,-256.06 96.5,-300.62 198.34,-385.36 563.56,-304.08 691.47,-338.62 704.83,-342.22 708.36,-351.02 717.55,-354.82"/>
<polygon fill="#1b9e77" stroke="#1b9e77" points="717.01,-358.28 727.47,-356.62 718.25,-351.39 717.01,-358.28"/>
</g>
<!-- n2&#45;&gt;c21 -->
<g id="edge14" class="edge">
<title>n2:e&#45;&gt;c21:w</title>
<path fill="none" stroke="#1b9e77" d="M58.25,-148.62C160.32,-148.62 169.93,-64.62 272,-64.62 272,-64.62 272,-64.62 1391.68,-64.62 1616.78,-64.62 1668.75,-147.06 1888.62,-149.56"/>
<polygon fill="#1b9e77" stroke="#1b9e77" points="1888.86,-153.06 1898.88,-149.62 1888.9,-146.06 1888.86,-153.06"/>
</g>
<!-- n3 -->
<g id="node3" class="node">
<title>n3</title>
<polygon fill="none" stroke="black" points="57.25,-411.16 57.25,-426.07 41.43,-436.62 19.07,-436.62 3.25,-426.07 3.25,-411.16 19.07,-400.62 41.43,-400.62 57.25,-411.16"/>
<text text-anchor="middle" x="30.25" y="-414.92" font-family="Times New Roman,serif" font-size="14.00">in</text>
</g>
<!-- c14 -->
<g id="node12" class="node">
<title>c14</title>
<polygon fill="none" stroke="black" points="1284.68,-469.62 1284.68,-561.62 1496.68,-561.62 1496.68,-469.62 1284.68,-469.62"/>
<text text-anchor="middle" x="1298.68" y="-546.42" font-family="Times New Roman,serif" font-size="14.00">I0</text>
<polyline fill="none" stroke="black" points="1284.68,-538.62 1312.68,-538.62 "/>
<text text-anchor="middle" x="1298.68" y="-523.42" font-family="Times New Roman,serif" font-size="14.00">I1</text>
<polyline fill="none" stroke="black" points="1284.68,-515.62 1312.68,-515.62 "/>
<text text-anchor="middle" x="1298.68" y="-500.42" font-family="Times New Roman,serif" font-size="14.00">I2</text>
<polyline fill="none" stroke="black" points="1284.68,-492.62 1312.68,-492.62 "/>
<text text-anchor="middle" x="1298.68" y="-477.42" font-family="Times New Roman,serif" font-size="14.00">I3</text>
<polyline fill="none" stroke="black" points="1312.68,-469.62 1312.68,-561.62 "/>
<text text-anchor="middle" x="1391.18" y="-519.42" font-family="Times New Roman,serif" font-size="14.00">next_state_SB_LUT4_O</text>
<text text-anchor="middle" x="1391.18" y="-504.42" font-family="Times New Roman,serif" font-size="14.00">SB_LUT4</text>
<polyline fill="none" stroke="black" points="1469.68,-469.62 1469.68,-561.62 "/>
<text text-anchor="middle" x="1483.18" y="-511.92" font-family="Times New Roman,serif" font-size="14.00">O</text>
</g>
<!-- n3&#45;&gt;c14 -->
<g id="edge15" class="edge">
<title>n3:e&#45;&gt;c14:w</title>
<path fill="none" stroke="#e6ab02" d="M58.25,-418.62C76.35,-418.62 78.93,-428.25 96.5,-432.62 172.91,-451.59 193.27,-456.62 272,-456.62 272,-456.62 272,-456.62 1113.07,-456.62 1113.59,-456.62 1237.8,-474.1 1274.55,-479.22"/>
<polygon fill="#e6ab02" stroke="#e6ab02" points="1274.29,-482.72 1284.68,-480.62 1275.25,-475.79 1274.29,-482.72"/>
</g>
<!-- n3&#45;&gt;c20 -->
<g id="edge16" class="edge">
<title>n3:e&#45;&gt;c20:w</title>
<path fill="none" stroke="#e6ab02" d="M58.25,-418.62C192.43,-418.62 226.29,-414.76 359.5,-398.62 378.5,-396.31 657.55,-343.02 717.3,-334.7"/>
<polygon fill="#e6ab02" stroke="#e6ab02" points="717.9,-338.16 727.47,-333.62 717.15,-331.2 717.9,-338.16"/>
</g>
<!-- x13 -->
<g id="node26" class="node">
<title>x13</title>
<path fill="none" stroke="black" d="M254,-353.62C254,-353.62 292,-353.62 292,-353.62 298,-353.62 304,-359.62 304,-365.62 304,-365.62 304,-377.62 304,-377.62 304,-383.62 298,-389.62 292,-389.62 292,-389.62 254,-389.62 254,-389.62 248,-389.62 242,-383.62 242,-377.62 242,-377.62 242,-365.62 242,-365.62 242,-359.62 248,-353.62 254,-353.62"/>
<text text-anchor="middle" x="273" y="-367.92" font-family="Times New Roman,serif" font-size="14.00">0:0 &#45; 0:0</text>
</g>
<!-- n3&#45;&gt;x13 -->
<g id="edge17" class="edge">
<title>n3:e&#45;&gt;x13:w</title>
<path fill="none" stroke="#e6ab02" d="M58.25,-418.62C76.35,-418.62 79.14,-409.75 96.5,-404.62 156.34,-386.91 173.36,-373.14 230.98,-371.73"/>
<polygon fill="#e6ab02" stroke="#e6ab02" points="231.04,-375.23 241,-371.62 230.96,-368.23 231.04,-375.23"/>
</g>
<!-- n4 -->
<g id="node4" class="node">
<title>n4</title>
<polygon fill="none" stroke="black" points="1697.78,-436.62 1630.58,-418.62 1697.78,-400.62 1764.97,-418.62 1697.78,-436.62"/>
<text text-anchor="middle" x="1697.78" y="-414.92" font-family="Times New Roman,serif" font-size="14.00">next_state</text>
</g>
<!-- x7 -->
<g id="node19" class="node">
<title>x7</title>
<path fill="none" stroke="black" d="M1812.88,-285.62C1812.88,-285.62 1850.88,-285.62 1850.88,-285.62 1856.88,-285.62 1862.88,-291.62 1862.88,-297.62 1862.88,-297.62 1862.88,-309.62 1862.88,-309.62 1862.88,-315.62 1856.88,-321.62 1850.88,-321.62 1850.88,-321.62 1812.88,-321.62 1812.88,-321.62 1806.88,-321.62 1800.88,-315.62 1800.88,-309.62 1800.88,-309.62 1800.88,-297.62 1800.88,-297.62 1800.88,-291.62 1806.88,-285.62 1812.88,-285.62"/>
<text text-anchor="middle" x="1831.88" y="-299.92" font-family="Times New Roman,serif" font-size="14.00">1:1 &#45; 0:0</text>
</g>
<!-- n4&#45;&gt;x7 -->
<g id="edge20" class="edge">
<title>n4:e&#45;&gt;x7:w</title>
<path fill="none" stroke="#e6ab02" d="M1764.88,-418.62C1814.46,-418.62 1757.19,-320.05 1790.91,-305.42"/>
<polygon fill="#e6ab02" stroke="#e6ab02" points="1791.66,-308.84 1800.88,-303.62 1790.41,-301.96 1791.66,-308.84"/>
</g>
<!-- n5 -->
<g id="node5" class="node">
<title>n5</title>
<polygon fill="none" stroke="black" points="2284.88,-781.16 2284.88,-796.07 2269.06,-806.62 2246.69,-806.62 2230.88,-796.07 2230.88,-781.16 2246.69,-770.62 2269.06,-770.62 2284.88,-781.16"/>
<text text-anchor="middle" x="2257.88" y="-784.92" font-family="Times New Roman,serif" font-size="14.00">out</text>
</g>
<!-- n6 -->
<g id="node6" class="node">
<title>n6</title>
<polygon fill="none" stroke="black" points="60.25,-87.16 60.25,-102.07 42.68,-112.62 17.82,-112.62 0.25,-102.07 0.25,-87.16 17.82,-76.62 42.68,-76.62 60.25,-87.16"/>
<text text-anchor="middle" x="30.25" y="-90.92" font-family="Times New Roman,serif" font-size="14.00">reset</text>
</g>
<!-- n6&#45;&gt;c13 -->
<g id="edge22" class="edge">
<title>n6:e&#45;&gt;c13:w</title>
<path fill="none" stroke="#d95f02" d="M60.5,-94.62C114.99,-94.62 127.11,-124.62 176.47,-128.26"/>
<polygon fill="#d95f02" stroke="#d95f02" points="176.38,-131.76 186.5,-128.62 176.63,-124.76 176.38,-131.76"/>
</g>
<!-- n6&#45;&gt;c20 -->
<g id="edge23" class="edge">
<title>n6:e&#45;&gt;c20:w</title>
<path fill="none" stroke="#d95f02" d="M60.5,-94.62C139.04,-94.62 36.32,-217.15 96.5,-267.62 201.46,-355.64 569.38,-289.86 717.21,-286.73"/>
<polygon fill="#d95f02" stroke="#d95f02" points="717.51,-290.23 727.47,-286.62 717.43,-283.23 717.51,-290.23"/>
</g>
<!-- n6&#45;&gt;c21 -->
<g id="edge24" class="edge">
<title>n6:e&#45;&gt;c21:w</title>
<path fill="none" stroke="#d95f02" d="M60.5,-94.62C85.77,-94.62 74.45,-62.96 96.5,-50.62 165.19,-12.15 193.27,-26.62 272,-26.62 272,-26.62 272,-26.62 1698.78,-26.62 1787.27,-26.62 1805.54,-75.66 1888.69,-79.39"/>
<polygon fill="#d95f02" stroke="#d95f02" points="1888.8,-82.89 1898.88,-79.62 1888.95,-75.9 1888.8,-82.89"/>
</g>
<!-- n7 -->
<g id="node7" class="node">
<title>n7</title>
<polygon fill="none" stroke="black" points="1112.07,-626.62 1073.36,-608.62 1112.07,-590.62 1150.78,-608.62 1112.07,-626.62"/>
<text text-anchor="middle" x="1112.07" y="-604.92" font-family="Times New Roman,serif" font-size="14.00">state</text>
</g>
<!-- x3 -->
<g id="node13" class="node">
<title>x3</title>
<path fill="none" stroke="black" d="M1198.68,-540.62C1198.68,-540.62 1236.68,-540.62 1236.68,-540.62 1242.68,-540.62 1248.68,-546.62 1248.68,-552.62 1248.68,-552.62 1248.68,-564.62 1248.68,-564.62 1248.68,-570.62 1242.68,-576.62 1236.68,-576.62 1236.68,-576.62 1198.68,-576.62 1198.68,-576.62 1192.68,-576.62 1186.68,-570.62 1186.68,-564.62 1186.68,-564.62 1186.68,-552.62 1186.68,-552.62 1186.68,-546.62 1192.68,-540.62 1198.68,-540.62"/>
<text text-anchor="middle" x="1217.68" y="-554.92" font-family="Times New Roman,serif" font-size="14.00">1:1 &#45; 0:0</text>
</g>
<!-- n7&#45;&gt;x3 -->
<g id="edge29" class="edge">
<title>n7:e&#45;&gt;x3:w</title>
<path fill="none" stroke="#d95f02" d="M1150.68,-608.62C1173.78,-608.62 1164.03,-573.02 1176.87,-561.9"/>
<polygon fill="#d95f02" stroke="#d95f02" points="1178.3,-565.11 1186.68,-558.62 1176.08,-558.47 1178.3,-565.11"/>
</g>
<!-- x4 -->
<g id="node14" class="node">
<title>x4</title>
<path fill="none" stroke="black" d="M1198.68,-485.62C1198.68,-485.62 1236.68,-485.62 1236.68,-485.62 1242.68,-485.62 1248.68,-491.62 1248.68,-497.62 1248.68,-497.62 1248.68,-509.62 1248.68,-509.62 1248.68,-515.62 1242.68,-521.62 1236.68,-521.62 1236.68,-521.62 1198.68,-521.62 1198.68,-521.62 1192.68,-521.62 1186.68,-515.62 1186.68,-509.62 1186.68,-509.62 1186.68,-497.62 1186.68,-497.62 1186.68,-491.62 1192.68,-485.62 1198.68,-485.62"/>
<text text-anchor="middle" x="1217.68" y="-499.92" font-family="Times New Roman,serif" font-size="14.00">0:0 &#45; 0:0</text>
</g>
<!-- n7&#45;&gt;x4 -->
<g id="edge30" class="edge">
<title>n7:e&#45;&gt;x4:w</title>
<path fill="none" stroke="#d95f02" d="M1150.68,-608.62C1195.96,-608.62 1146.87,-520.14 1176.67,-505.62"/>
<polygon fill="#d95f02" stroke="#d95f02" points="1177.56,-509.01 1186.68,-503.62 1176.19,-502.15 1177.56,-509.01"/>
</g>
<!-- x11 -->
<g id="node24" class="node">
<title>x11</title>
<path fill="none" stroke="black" d="M1198.68,-743.62C1198.68,-743.62 1236.68,-743.62 1236.68,-743.62 1242.68,-743.62 1248.68,-749.62 1248.68,-755.62 1248.68,-755.62 1248.68,-767.62 1248.68,-767.62 1248.68,-773.62 1242.68,-779.62 1236.68,-779.62 1236.68,-779.62 1198.68,-779.62 1198.68,-779.62 1192.68,-779.62 1186.68,-773.62 1186.68,-767.62 1186.68,-767.62 1186.68,-755.62 1186.68,-755.62 1186.68,-749.62 1192.68,-743.62 1198.68,-743.62"/>
<text text-anchor="middle" x="1217.68" y="-757.92" font-family="Times New Roman,serif" font-size="14.00">1:1 &#45; 0:0</text>
</g>
<!-- n7&#45;&gt;x11 -->
<g id="edge27" class="edge">
<title>n7:e&#45;&gt;x11:w</title>
<path fill="none" stroke="#d95f02" d="M1150.68,-608.62C1216.71,-608.62 1127.65,-745.34 1176.72,-760.29"/>
<polygon fill="#d95f02" stroke="#d95f02" points="1176.3,-763.77 1186.68,-761.62 1177.23,-756.83 1176.3,-763.77"/>
</g>
<!-- x12 -->
<g id="node25" class="node">
<title>x12</title>
<path fill="none" stroke="black" d="M1198.68,-688.62C1198.68,-688.62 1236.68,-688.62 1236.68,-688.62 1242.68,-688.62 1248.68,-694.62 1248.68,-700.62 1248.68,-700.62 1248.68,-712.62 1248.68,-712.62 1248.68,-718.62 1242.68,-724.62 1236.68,-724.62 1236.68,-724.62 1198.68,-724.62 1198.68,-724.62 1192.68,-724.62 1186.68,-718.62 1186.68,-712.62 1186.68,-712.62 1186.68,-700.62 1186.68,-700.62 1186.68,-694.62 1192.68,-688.62 1198.68,-688.62"/>
<text text-anchor="middle" x="1217.68" y="-702.92" font-family="Times New Roman,serif" font-size="14.00">0:0 &#45; 0:0</text>
</g>
<!-- n7&#45;&gt;x12 -->
<g id="edge28" class="edge">
<title>n7:e&#45;&gt;x12:w</title>
<path fill="none" stroke="#d95f02" d="M1150.68,-608.62C1193.09,-608.62 1149.28,-690.5 1176.87,-704.57"/>
<polygon fill="#d95f02" stroke="#d95f02" points="1176.17,-708 1186.68,-706.62 1177.6,-701.15 1176.17,-708"/>
</g>
<!-- v0 -->
<g id="node8" class="node">
<title>v0</title>
<ellipse fill="none" stroke="black" cx="123.5" cy="-240.62" rx="27" ry="18"/>
<text text-anchor="middle" x="123.5" y="-236.92" font-family="Times New Roman,serif" font-size="14.00">1&#39;0</text>
</g>
<!-- v0&#45;&gt;c13 -->
<g id="edge31" class="edge">
<title>v0:e&#45;&gt;c13:w</title>
<path fill="none" stroke="#1b9e77" d="M150.5,-240.62C170.86,-240.62 165.33,-211.81 176.79,-201.91"/>
<polygon fill="#1b9e77" stroke="#1b9e77" points="178.15,-205.14 186.5,-198.62 175.91,-198.51 178.15,-205.14"/>
</g>
<!-- v1 -->
<g id="node9" class="node">
<title>v1</title>
<ellipse fill="none" stroke="black" cx="123.5" cy="-186.62" rx="27" ry="18"/>
<text text-anchor="middle" x="123.5" y="-182.92" font-family="Times New Roman,serif" font-size="14.00">1&#39;0</text>
</g>
<!-- v1&#45;&gt;c13 -->
<g id="edge32" class="edge">
<title>v1:e&#45;&gt;c13:w</title>
<path fill="none" stroke="#1b9e77" d="M150.5,-186.62C163.18,-186.62 167.71,-180.3 176.44,-177.24"/>
<polygon fill="#1b9e77" stroke="#1b9e77" points="177.19,-180.66 186.5,-175.62 176.07,-173.75 177.19,-180.66"/>
</g>
<!-- c13&#45;&gt;n1 -->
<g id="edge9" class="edge">
<title>c13:e&#45;&gt;n1:w</title>
<path fill="none" stroke="#1b9e77" d="M359.5,-163.62C371.5,-163.62 376.75,-163.62 385.38,-163.62"/>
<polygon fill="#1b9e77" stroke="#1b9e77" points="385.5,-167.12 395.5,-163.62 385.5,-160.12 385.5,-167.12"/>
</g>
<!-- v2 -->
<g id="node11" class="node">
<title>v2</title>
<ellipse fill="none" stroke="black" cx="1217.68" cy="-613.62" rx="27" ry="18"/>
<text text-anchor="middle" x="1217.68" y="-609.92" font-family="Times New Roman,serif" font-size="14.00">1&#39;0</text>
</g>
<!-- v2&#45;&gt;c14 -->
<g id="edge34" class="edge">
<title>v2:e&#45;&gt;c14:w</title>
<path fill="none" stroke="#666666" d="M1245.68,-613.62C1274.49,-613.62 1257.53,-565.38 1274.9,-553.32"/>
<polygon fill="#666666" stroke="#666666" points="1275.97,-556.66 1284.68,-550.62 1274.11,-549.91 1275.97,-556.66"/>
</g>
<!-- x5 -->
<g id="node15" class="node">
<title>x5</title>
<path fill="none" stroke="black" d="M1544.68,-472.62C1544.68,-472.62 1582.68,-472.62 1582.68,-472.62 1588.68,-472.62 1594.68,-478.62 1594.68,-484.62 1594.68,-484.62 1594.68,-496.62 1594.68,-496.62 1594.68,-502.62 1588.68,-508.62 1582.68,-508.62 1582.68,-508.62 1544.68,-508.62 1544.68,-508.62 1538.68,-508.62 1532.68,-502.62 1532.68,-496.62 1532.68,-496.62 1532.68,-484.62 1532.68,-484.62 1532.68,-478.62 1538.68,-472.62 1544.68,-472.62"/>
<text text-anchor="middle" x="1563.68" y="-486.92" font-family="Times New Roman,serif" font-size="14.00">0:0 &#45; 1:1</text>
</g>
<!-- c14&#45;&gt;x5 -->
<g id="edge3" class="edge">
<title>c14:e&#45;&gt;x5:w</title>
<path fill="none" stroke="#1b9e77" d="M1508.29,-511.26C1513.34,-506.67 1516.06,-499.49 1521.12,-494.92"/>
<polygon fill="none" stroke="#1b9e77" points="1507.91,-511.4 1503.7,-517.26 1496.68,-515.62 1500.89,-509.76 1507.91,-511.4"/>
<polygon fill="none" stroke="#1b9e77" points="1521.43,-494.8 1525.66,-488.96 1532.68,-490.62 1528.45,-496.46 1521.43,-494.8"/>
</g>
<!-- x3&#45;&gt;c14 -->
<g id="edge1" class="edge">
<title>x3:e&#45;&gt;c14:w</title>
<path fill="none" stroke="#66a61e" d="M1259.98,-554.04C1265.62,-548.25 1267.61,-538.31 1273.16,-532.41"/>
<polygon fill="none" stroke="#66a61e" points="1259.8,-554.12 1255.74,-560.07 1248.68,-558.62 1252.74,-552.66 1259.8,-554.12"/>
<polygon fill="none" stroke="#66a61e" points="1273.6,-532.23 1277.6,-526.23 1284.68,-527.62 1280.68,-533.62 1273.6,-532.23"/>
</g>
<!-- x4&#45;&gt;c14 -->
<g id="edge2" class="edge">
<title>x4:e&#45;&gt;c14:w</title>
<path fill="none" stroke="#1b9e77" d="M1260.89,-503.62C1264.97,-503.62 1268.41,-503.62 1272.49,-503.62"/>
<polygon fill="none" stroke="#1b9e77" points="1260.68,-503.62 1254.68,-507.62 1248.68,-503.62 1254.68,-499.62 1260.68,-503.62"/>
<polygon fill="none" stroke="#1b9e77" points="1272.68,-503.62 1278.68,-499.62 1284.68,-503.62 1278.68,-507.62 1272.68,-503.62"/>
</g>
<!-- x5&#45;&gt;n4 -->
<g id="edge19" class="edge">
<title>x5:e&#45;&gt;n4:w</title>
<path fill="none" stroke="#e6ab02" d="M1594.68,-490.62C1626.26,-490.62 1602.25,-434.5 1620.81,-421.35"/>
<polygon fill="#e6ab02" stroke="#e6ab02" points="1621.98,-424.66 1630.68,-418.62 1620.11,-417.91 1621.98,-424.66"/>
</g>
<!-- x6 -->
<g id="node17" class="node">
<title>x6</title>
<path fill="none" stroke="black" d="M987.47,-512.62C987.47,-512.62 1025.47,-512.62 1025.47,-512.62 1031.47,-512.62 1037.47,-518.62 1037.47,-524.62 1037.47,-524.62 1037.47,-536.62 1037.47,-536.62 1037.47,-542.62 1031.47,-548.62 1025.47,-548.62 1025.47,-548.62 987.47,-548.62 987.47,-548.62 981.47,-548.62 975.47,-542.62 975.47,-536.62 975.47,-536.62 975.47,-524.62 975.47,-524.62 975.47,-518.62 981.47,-512.62 987.47,-512.62"/>
<text text-anchor="middle" x="1006.47" y="-526.92" font-family="Times New Roman,serif" font-size="14.00">0:0 &#45; 0:0</text>
</g>
<!-- c20&#45;&gt;x6 -->
<g id="edge4" class="edge">
<title>c20:e&#45;&gt;x6:w</title>
<path fill="none" stroke="#7570b3" d="M951.57,-323.06C1015.97,-340.59 898.86,-511.85 963.48,-529.2"/>
<polygon fill="none" stroke="#7570b3" points="951.38,-323.04 944.95,-326.3 939.47,-321.62 945.9,-318.36 951.38,-323.04"/>
<polygon fill="none" stroke="#7570b3" points="963.55,-529.21 969.98,-525.94 975.47,-530.62 969.04,-533.89 963.55,-529.21"/>
</g>
<!-- x6&#45;&gt;n7 -->
<g id="edge25" class="edge">
<title>x6:e&#45;&gt;n7:w</title>
<path fill="none" stroke="#d95f02" d="M1037.47,-530.62C1071.47,-530.62 1043.18,-592.49 1063.55,-606.02"/>
<polygon fill="#d95f02" stroke="#d95f02" points="1062.91,-609.47 1073.47,-608.62 1064.68,-602.7 1062.91,-609.47"/>
</g>
<!-- x8 -->
<g id="node20" class="node">
<title>x8</title>
<path fill="none" stroke="black" d="M2144.88,-369.62C2144.88,-369.62 2182.88,-369.62 2182.88,-369.62 2188.88,-369.62 2194.88,-375.62 2194.88,-381.62 2194.88,-381.62 2194.88,-393.62 2194.88,-393.62 2194.88,-399.62 2188.88,-405.62 2182.88,-405.62 2182.88,-405.62 2144.88,-405.62 2144.88,-405.62 2138.88,-405.62 2132.88,-399.62 2132.88,-393.62 2132.88,-393.62 2132.88,-381.62 2132.88,-381.62 2132.88,-375.62 2138.88,-369.62 2144.88,-369.62"/>
<text text-anchor="middle" x="2163.88" y="-383.92" font-family="Times New Roman,serif" font-size="14.00">0:0 &#45; 1:1</text>
</g>
<!-- c21&#45;&gt;x8 -->
<g id="edge6" class="edge">
<title>c21:e&#45;&gt;x8:w</title>
<path fill="none" stroke="#e7298a" d="M2108.88,-115.66C2200.96,-133.29 2028.95,-368.64 2120.7,-386.54"/>
<polygon fill="none" stroke="#e7298a" points="2108.83,-115.66 2102.51,-119.12 2096.88,-114.62 2103.2,-111.15 2108.83,-115.66"/>
<polygon fill="none" stroke="#e7298a" points="2120.92,-386.56 2127.25,-383.1 2132.88,-387.62 2126.55,-391.07 2120.92,-386.56"/>
</g>
<!-- x7&#45;&gt;c21 -->
<g id="edge5" class="edge">
<title>x7:e&#45;&gt;c21:w</title>
<path fill="none" stroke="#e7298a" d="M1874.96,-301.86C1925.87,-284.63 1835.92,-145.68 1886.75,-128.38"/>
<polygon fill="none" stroke="#e7298a" points="1874.75,-301.89 1869.39,-306.71 1862.88,-303.62 1868.24,-298.8 1874.75,-301.89"/>
<polygon fill="none" stroke="#e7298a" points="1887,-128.35 1892.36,-123.52 1898.88,-126.62 1893.51,-131.44 1887,-128.35"/>
</g>
<!-- x8&#45;&gt;n7 -->
<g id="edge26" class="edge">
<title>x8:e&#45;&gt;n7:w</title>
<path fill="none" stroke="#d95f02" d="M2195.88,-387.62C2204.11,-387.62 2198.87,-398.92 2194.88,-406.12 2099.51,-577.83 2029.29,-659.62 1832.88,-659.62 1389.68,-659.62 1389.68,-659.62 1389.68,-659.62 1299.06,-659.62 1276.77,-650.38 1186.68,-640.62 1136.1,-635.13 1107.82,-663.78 1073.07,-626.62 1070.94,-624.33 1069.09,-621.08 1068.12,-617.98"/>
<polygon fill="#d95f02" stroke="#d95f02" points="1071.41,-619.19 1072.07,-608.62 1064.96,-616.47 1071.41,-619.19"/>
</g>
<!-- v9 -->
<g id="node21" class="node">
<title>v9</title>
<ellipse fill="none" stroke="black" cx="1217.68" cy="-870.62" rx="27" ry="18"/>
<text text-anchor="middle" x="1217.68" y="-866.92" font-family="Times New Roman,serif" font-size="14.00">1&#39;0</text>
</g>
<!-- c22 -->
<g id="node23" class="node">
<title>c22</title>
<polygon fill="none" stroke="black" points="1303.68,-742.62 1303.68,-834.62 1477.68,-834.62 1477.68,-742.62 1303.68,-742.62"/>
<text text-anchor="middle" x="1317.68" y="-819.42" font-family="Times New Roman,serif" font-size="14.00">I0</text>
<polyline fill="none" stroke="black" points="1303.68,-811.62 1331.68,-811.62 "/>
<text text-anchor="middle" x="1317.68" y="-796.42" font-family="Times New Roman,serif" font-size="14.00">I1</text>
<polyline fill="none" stroke="black" points="1303.68,-788.62 1331.68,-788.62 "/>
<text text-anchor="middle" x="1317.68" y="-773.42" font-family="Times New Roman,serif" font-size="14.00">I2</text>
<polyline fill="none" stroke="black" points="1303.68,-765.62 1331.68,-765.62 "/>
<text text-anchor="middle" x="1317.68" y="-750.42" font-family="Times New Roman,serif" font-size="14.00">I3</text>
<polyline fill="none" stroke="black" points="1331.68,-742.62 1331.68,-834.62 "/>
<text text-anchor="middle" x="1391.18" y="-792.42" font-family="Times New Roman,serif" font-size="14.00">out_SB_LUT4_O</text>
<text text-anchor="middle" x="1391.18" y="-777.42" font-family="Times New Roman,serif" font-size="14.00">SB_LUT4</text>
<polyline fill="none" stroke="black" points="1450.68,-742.62 1450.68,-834.62 "/>
<text text-anchor="middle" x="1464.18" y="-784.92" font-family="Times New Roman,serif" font-size="14.00">O</text>
</g>
<!-- v9&#45;&gt;c22 -->
<g id="edge35" class="edge">
<title>v9:e&#45;&gt;c22:w</title>
<path fill="none" stroke="#a6761d" d="M1245.68,-870.62C1274.67,-870.62 1271.31,-833.99 1292.71,-825.4"/>
<polygon fill="#a6761d" stroke="#a6761d" points="1293.45,-828.82 1302.68,-823.62 1292.22,-821.93 1293.45,-828.82"/>
</g>
<!-- v10 -->
<g id="node22" class="node">
<title>v10</title>
<ellipse fill="none" stroke="black" cx="1217.68" cy="-816.62" rx="27" ry="18"/>
<text text-anchor="middle" x="1217.68" y="-812.92" font-family="Times New Roman,serif" font-size="14.00">1&#39;0</text>
</g>
<!-- v10&#45;&gt;c22 -->
<g id="edge33" class="edge">
<title>v10:e&#45;&gt;c22:w</title>
<path fill="none" stroke="#7570b3" d="M1245.68,-816.62C1268.08,-816.62 1274.58,-805.01 1292.27,-801.57"/>
<polygon fill="#7570b3" stroke="#7570b3" points="1293.04,-805.01 1302.68,-800.62 1292.4,-798.04 1293.04,-805.01"/>
</g>
<!-- c22&#45;&gt;n5 -->
<g id="edge21" class="edge">
<title>c22:e&#45;&gt;n5:w</title>
<path fill="none" stroke="#d95f02" d="M1478.68,-788.62C1575.61,-788.62 1599.84,-788.62 1696.78,-788.62 1696.78,-788.62 1696.78,-788.62 1998.88,-788.62 2098.56,-788.62 2125.97,-788.62 2220.85,-788.62"/>
<polygon fill="#d95f02" stroke="#d95f02" points="2220.88,-792.12 2230.88,-788.62 2220.88,-785.12 2220.88,-792.12"/>
</g>
<!-- x11&#45;&gt;c22 -->
<g id="edge7" class="edge">
<title>x11:e&#45;&gt;c22:w</title>
<path fill="none" stroke="#7570b3" d="M1260.78,-763C1272.34,-765.84 1278.9,-772.31 1290.42,-775.19"/>
<polygon fill="none" stroke="#7570b3" points="1260.6,-762.98 1254.18,-766.27 1248.68,-761.62 1255.09,-758.32 1260.6,-762.98"/>
<polygon fill="none" stroke="#7570b3" points="1290.76,-775.23 1297.18,-771.95 1302.68,-776.62 1296.26,-779.9 1290.76,-775.23"/>
</g>
<!-- x12&#45;&gt;c22 -->
<g id="edge8" class="edge">
<title>x12:e&#45;&gt;c22:w</title>
<path fill="none" stroke="#d95f02" d="M1260.38,-709.42C1275.28,-717.72 1275.97,-742.14 1290.69,-750.65"/>
<polygon fill="none" stroke="#d95f02" points="1260.35,-709.41 1253.58,-711.9 1248.68,-706.62 1255.44,-704.12 1260.35,-709.41"/>
<polygon fill="none" stroke="#d95f02" points="1291.03,-750.74 1297.81,-748.29 1302.68,-753.62 1295.89,-756.06 1291.03,-750.74"/>
</g>
<!-- x13&#45;&gt;n4 -->
<g id="edge18" class="edge">
<title>x13:e&#45;&gt;n4:w</title>
<path fill="none" stroke="#e6ab02" d="M305,-371.62C540.36,-371.62 597.11,-418.62 832.47,-418.62 832.47,-418.62 832.47,-418.62 1391.68,-418.62 1494.48,-418.62 1522.66,-418.62 1620.65,-418.62"/>
<polygon fill="#e6ab02" stroke="#e6ab02" points="1620.68,-422.12 1630.68,-418.62 1620.68,-415.12 1620.68,-422.12"/>
</g>
</g>
</svg>
