<?xml version="1.0" encoding="UTF-8" standalone="no"?>
<!DOCTYPE svg PUBLIC "-//W3C//DTD SVG 1.1//EN"
 "http://www.w3.org/Graphics/SVG/1.1/DTD/svg11.dtd">
<!-- Generated by graphviz version 4.0.0 (20220529.0937)
 -->
<!-- Title: top Pages: 1 -->
<svg width="702pt" height="196pt"
 viewBox="0.00 0.00 702.08 195.50" xmlns="http://www.w3.org/2000/svg" xmlns:xlink="http://www.w3.org/1999/xlink">
<g id="graph0" class="graph" transform="scale(1 1) rotate(0) translate(4 191.5)">
<title>top</title>
<polygon fill="white" stroke="transparent" points="-4,4 -4,-191.5 698.08,-191.5 698.08,4 -4,4"/>
<text text-anchor="middle" x="347.04" y="-7.8" font-family="Times New Roman,serif" font-size="14.00">top</text>
<!-- n3 -->
<g id="node1" class="node">
<title>n3</title>
<polygon fill="none" stroke="black" points="71.63,-92.04 71.63,-106.96 50.69,-117.5 21.07,-117.5 0.12,-106.96 0.12,-92.04 21.07,-81.5 50.69,-81.5 71.63,-92.04"/>
<text text-anchor="middle" x="35.88" y="-95.8" font-family="Times New Roman,serif" font-size="14.00">BUT1</text>
</g>
<!-- c12 -->
<g id="node8" class="node">
<title>c12</title>
<polygon fill="none" stroke="black" points="107.76,-80.5 107.76,-118.5 200.76,-118.5 200.76,-80.5 107.76,-80.5"/>
<text text-anchor="middle" x="120.76" y="-95.8" font-family="Times New Roman,serif" font-size="14.00">A</text>
<polyline fill="none" stroke="black" points="133.76,-80.5 133.76,-118.5 "/>
<text text-anchor="middle" x="154.26" y="-103.3" font-family="Times New Roman,serif" font-size="14.00">$2</text>
<text text-anchor="middle" x="154.26" y="-88.3" font-family="Times New Roman,serif" font-size="14.00">$not</text>
<polyline fill="none" stroke="black" points="174.76,-80.5 174.76,-118.5 "/>
<text text-anchor="middle" x="187.76" y="-95.8" font-family="Times New Roman,serif" font-size="14.00">Y</text>
</g>
<!-- n3&#45;&gt;c12 -->
<g id="edge3" class="edge">
<title>n3:e&#45;&gt;c12:w</title>
<path fill="none" stroke="#1b9e77" d="M71.76,-99.5C83.76,-99.5 89.01,-99.5 97.63,-99.5"/>
<polygon fill="#1b9e77" stroke="#1b9e77" points="97.76,-103 107.76,-99.5 97.76,-96 97.76,-103"/>
</g>
<!-- n4 -->
<g id="node2" class="node">
<title>n4</title>
<polygon fill="none" stroke="black" points="71.63,-35.04 71.63,-49.96 50.69,-60.5 21.07,-60.5 0.12,-49.96 0.12,-35.04 21.07,-24.5 50.69,-24.5 71.63,-35.04"/>
<text text-anchor="middle" x="35.88" y="-38.8" font-family="Times New Roman,serif" font-size="14.00">BUT2</text>
</g>
<!-- c13 -->
<g id="node9" class="node">
<title>c13</title>
<polygon fill="none" stroke="black" points="107.76,-23.5 107.76,-61.5 200.76,-61.5 200.76,-23.5 107.76,-23.5"/>
<text text-anchor="middle" x="120.76" y="-38.8" font-family="Times New Roman,serif" font-size="14.00">A</text>
<polyline fill="none" stroke="black" points="133.76,-23.5 133.76,-61.5 "/>
<text text-anchor="middle" x="154.26" y="-46.3" font-family="Times New Roman,serif" font-size="14.00">$3</text>
<text text-anchor="middle" x="154.26" y="-31.3" font-family="Times New Roman,serif" font-size="14.00">$not</text>
<polyline fill="none" stroke="black" points="174.76,-23.5 174.76,-61.5 "/>
<text text-anchor="middle" x="187.76" y="-38.8" font-family="Times New Roman,serif" font-size="14.00">Y</text>
</g>
<!-- n4&#45;&gt;c13 -->
<g id="edge4" class="edge">
<title>n4:e&#45;&gt;c13:w</title>
<path fill="none" stroke="#7570b3" d="M71.76,-42.5C83.76,-42.5 89.01,-42.5 97.63,-42.5"/>
<polygon fill="#7570b3" stroke="#7570b3" points="97.76,-46 107.76,-42.5 97.76,-39 97.76,-46"/>
</g>
<!-- n5 -->
<g id="node3" class="node">
<title>n5</title>
<polygon fill="none" stroke="black" points="66.79,-162.04 66.79,-176.96 48.68,-187.5 23.08,-187.5 4.97,-176.96 4.97,-162.04 23.08,-151.5 48.68,-151.5 66.79,-162.04"/>
<text text-anchor="middle" x="35.88" y="-165.8" font-family="Times New Roman,serif" font-size="14.00">CLK</text>
</g>
<!-- c16 -->
<g id="node10" class="node">
<title>c16</title>
<polygon fill="none" stroke="black" points="236.76,-136.5 236.76,-182.5 347.76,-182.5 347.76,-136.5 236.76,-136.5"/>
<text text-anchor="middle" x="258.76" y="-167.3" font-family="Times New Roman,serif" font-size="14.00">CLK</text>
<polyline fill="none" stroke="black" points="236.76,-159.5 280.76,-159.5 "/>
<text text-anchor="middle" x="258.76" y="-144.3" font-family="Times New Roman,serif" font-size="14.00">D</text>
<polyline fill="none" stroke="black" points="280.76,-136.5 280.76,-182.5 "/>
<text text-anchor="middle" x="300.76" y="-163.3" font-family="Times New Roman,serif" font-size="14.00">$4</text>
<text text-anchor="middle" x="300.76" y="-148.3" font-family="Times New Roman,serif" font-size="14.00">$dff</text>
<polyline fill="none" stroke="black" points="320.76,-136.5 320.76,-182.5 "/>
<text text-anchor="middle" x="334.26" y="-155.8" font-family="Times New Roman,serif" font-size="14.00">Q</text>
</g>
<!-- n5&#45;&gt;c16 -->
<g id="edge5" class="edge">
<title>n5:e&#45;&gt;c16:w</title>
<path fill="none" stroke="#e7298a" d="M67.88,-169.5C139.42,-169.5 159.81,-171.32 226.56,-171.49"/>
<polygon fill="#e7298a" stroke="#e7298a" points="226.75,-174.99 236.76,-171.5 226.76,-167.99 226.75,-174.99"/>
</g>
<!-- c17 -->
<g id="node11" class="node">
<title>c17</title>
<polygon fill="none" stroke="black" points="236.76,-58.5 236.76,-104.5 347.76,-104.5 347.76,-58.5 236.76,-58.5"/>
<text text-anchor="middle" x="258.76" y="-89.3" font-family="Times New Roman,serif" font-size="14.00">CLK</text>
<polyline fill="none" stroke="black" points="236.76,-81.5 280.76,-81.5 "/>
<text text-anchor="middle" x="258.76" y="-66.3" font-family="Times New Roman,serif" font-size="14.00">D</text>
<polyline fill="none" stroke="black" points="280.76,-58.5 280.76,-104.5 "/>
<text text-anchor="middle" x="300.76" y="-85.3" font-family="Times New Roman,serif" font-size="14.00">$5</text>
<text text-anchor="middle" x="300.76" y="-70.3" font-family="Times New Roman,serif" font-size="14.00">$dff</text>
<polyline fill="none" stroke="black" points="320.76,-58.5 320.76,-104.5 "/>
<text text-anchor="middle" x="334.26" y="-77.8" font-family="Times New Roman,serif" font-size="14.00">Q</text>
</g>
<!-- n5&#45;&gt;c17 -->
<g id="edge6" class="edge">
<title>n5:e&#45;&gt;c17:w</title>
<path fill="none" stroke="#e7298a" d="M67.88,-169.5C98.78,-169.5 174.18,-144.26 200.76,-128.5 216.35,-119.25 215.64,-101.93 226.79,-95.75"/>
<polygon fill="#e7298a" stroke="#e7298a" points="227.78,-99.12 236.76,-93.5 226.23,-92.29 227.78,-99.12"/>
</g>
<!-- n6 -->
<g id="node4" class="node">
<title>n6</title>
<polygon fill="none" stroke="black" points="694.26,-152.04 694.26,-166.96 673.55,-177.5 644.26,-177.5 623.56,-166.96 623.56,-152.04 644.26,-141.5 673.55,-141.5 694.26,-152.04"/>
<text text-anchor="middle" x="658.91" y="-155.8" font-family="Times New Roman,serif" font-size="14.00">LED1</text>
</g>
<!-- n7 -->
<g id="node5" class="node">
<title>n7</title>
<polygon fill="none" stroke="black" points="440.74,-177.5 383.77,-159.5 440.74,-141.5 497.72,-159.5 440.74,-177.5"/>
<text text-anchor="middle" x="440.74" y="-155.8" font-family="Times New Roman,serif" font-size="14.00">LED1_r</text>
</g>
<!-- x0 -->
<g id="node12" class="node">
<title>x0</title>
<path fill="none" stroke="black" d="M575.73,-177.5C575.73,-177.5 545.73,-177.5 545.73,-177.5 539.73,-177.5 533.73,-171.5 533.73,-165.5 533.73,-165.5 533.73,-153.5 533.73,-153.5 533.73,-147.5 539.73,-141.5 545.73,-141.5 545.73,-141.5 575.73,-141.5 575.73,-141.5 581.73,-141.5 587.73,-147.5 587.73,-153.5 587.73,-153.5 587.73,-165.5 587.73,-165.5 587.73,-171.5 581.73,-177.5 575.73,-177.5"/>
<text text-anchor="middle" x="560.73" y="-155.8" font-family="Times New Roman,serif" font-size="14.00">BUF</text>
</g>
<!-- n7&#45;&gt;x0 -->
<g id="edge9" class="edge">
<title>n7:e&#45;&gt;x0:w</title>
<path fill="none" stroke="#7570b3" d="M497.73,-159.5C509.73,-159.5 514.98,-159.5 523.61,-159.5"/>
<polygon fill="#7570b3" stroke="#7570b3" points="523.73,-163 533.73,-159.5 523.73,-156 523.73,-163"/>
</g>
<!-- n8 -->
<g id="node6" class="node">
<title>n8</title>
<polygon fill="none" stroke="black" points="694.26,-74.04 694.26,-88.96 673.55,-99.5 644.26,-99.5 623.56,-88.96 623.56,-74.04 644.26,-63.5 673.55,-63.5 694.26,-74.04"/>
<text text-anchor="middle" x="658.91" y="-77.8" font-family="Times New Roman,serif" font-size="14.00">LED2</text>
</g>
<!-- n9 -->
<g id="node7" class="node">
<title>n9</title>
<polygon fill="none" stroke="black" points="440.74,-99.5 383.77,-81.5 440.74,-63.5 497.72,-81.5 440.74,-99.5"/>
<text text-anchor="middle" x="440.74" y="-77.8" font-family="Times New Roman,serif" font-size="14.00">LED2_r</text>
</g>
<!-- x1 -->
<g id="node13" class="node">
<title>x1</title>
<path fill="none" stroke="black" d="M575.73,-99.5C575.73,-99.5 545.73,-99.5 545.73,-99.5 539.73,-99.5 533.73,-93.5 533.73,-87.5 533.73,-87.5 533.73,-75.5 533.73,-75.5 533.73,-69.5 539.73,-63.5 545.73,-63.5 545.73,-63.5 575.73,-63.5 575.73,-63.5 581.73,-63.5 587.73,-69.5 587.73,-75.5 587.73,-75.5 587.73,-87.5 587.73,-87.5 587.73,-93.5 581.73,-99.5 575.73,-99.5"/>
<text text-anchor="middle" x="560.73" y="-77.8" font-family="Times New Roman,serif" font-size="14.00">BUF</text>
</g>
<!-- n9&#45;&gt;x1 -->
<g id="edge12" class="edge">
<title>n9:e&#45;&gt;x1:w</title>
<path fill="none" stroke="#1b9e77" d="M497.73,-81.5C509.73,-81.5 514.98,-81.5 523.61,-81.5"/>
<polygon fill="#1b9e77" stroke="#1b9e77" points="523.73,-85 533.73,-81.5 523.73,-78 523.73,-85"/>
</g>
<!-- c12&#45;&gt;c16 -->
<g id="edge1" class="edge">
<title>c12:e&#45;&gt;c16:w</title>
<path fill="none" stroke="#66a61e" d="M200.76,-99.5C223.26,-99.5 214.43,-133.67 227.14,-144.35"/>
<polygon fill="#66a61e" stroke="#66a61e" points="226.16,-147.71 236.76,-147.5 228.34,-141.06 226.16,-147.71"/>
</g>
<!-- c13&#45;&gt;c17 -->
<g id="edge2" class="edge">
<title>c13:e&#45;&gt;c17:w</title>
<path fill="none" stroke="#1b9e77" d="M200.76,-42.5C216.69,-42.5 217.39,-59.65 227.14,-66.61"/>
<polygon fill="#1b9e77" stroke="#1b9e77" points="226.17,-69.98 236.76,-69.5 228.19,-63.27 226.17,-69.98"/>
</g>
<!-- c16&#45;&gt;n7 -->
<g id="edge8" class="edge">
<title>c16:e&#45;&gt;n7:w</title>
<path fill="none" stroke="#7570b3" d="M347.76,-159.5C359.76,-159.5 365.01,-159.5 373.63,-159.5"/>
<polygon fill="#7570b3" stroke="#7570b3" points="373.76,-163 383.76,-159.5 373.76,-156 373.76,-163"/>
</g>
<!-- c17&#45;&gt;n9 -->
<g id="edge11" class="edge">
<title>c17:e&#45;&gt;n9:w</title>
<path fill="none" stroke="#1b9e77" d="M347.76,-81.5C359.76,-81.5 365.01,-81.5 373.63,-81.5"/>
<polygon fill="#1b9e77" stroke="#1b9e77" points="373.76,-85 383.76,-81.5 373.76,-78 373.76,-85"/>
</g>
<!-- x0&#45;&gt;n6 -->
<g id="edge7" class="edge">
<title>x0:e&#45;&gt;n6:w</title>
<path fill="none" stroke="#e7298a" d="M587.73,-159.5C599.73,-159.5 604.98,-159.5 613.61,-159.5"/>
<polygon fill="#e7298a" stroke="#e7298a" points="613.73,-163 623.73,-159.5 613.73,-156 613.73,-163"/>
</g>
<!-- x1&#45;&gt;n8 -->
<g id="edge10" class="edge">
<title>x1:e&#45;&gt;n8:w</title>
<path fill="none" stroke="#d95f02" d="M587.73,-81.5C599.73,-81.5 604.98,-81.5 613.61,-81.5"/>
<polygon fill="#d95f02" stroke="#d95f02" points="613.73,-85 623.73,-81.5 613.73,-78 613.73,-85"/>
</g>
</g>
</svg>
