<?xml version="1.0" encoding="UTF-8" standalone="no"?>
<!DOCTYPE svg PUBLIC "-//W3C//DTD SVG 1.1//EN"
 "http://www.w3.org/Graphics/SVG/1.1/DTD/svg11.dtd">
<!-- Generated by graphviz version 4.0.0 (20220529.0937)
 -->
<!-- Title: top_module Pages: 1 -->
<svg width="1087pt" height="437pt"
 viewBox="0.00 0.00 1087.28 436.64" xmlns="http://www.w3.org/2000/svg" xmlns:xlink="http://www.w3.org/1999/xlink">
<g id="graph0" class="graph" transform="scale(1 1) rotate(0) translate(4 432.64)">
<title>top_module</title>
<polygon fill="white" stroke="transparent" points="-4,4 -4,-432.64 1083.28,-432.64 1083.28,4 -4,4"/>
<text text-anchor="middle" x="539.64" y="-7.8" font-family="Times New Roman,serif" font-size="14.00">top_module</text>
<!-- n8 -->
<g id="node1" class="node">
<title>n8</title>
<polygon fill="none" stroke="black" points="57.25,-264.68 57.25,-279.59 41.43,-290.14 19.07,-290.14 3.25,-279.59 3.25,-264.68 19.07,-254.14 41.43,-254.14 57.25,-264.68"/>
<text text-anchor="middle" x="30.25" y="-268.44" font-family="Times New Roman,serif" font-size="14.00">clk</text>
</g>
<!-- c20 -->
<g id="node15" class="node">
<title>c20</title>
<polygon fill="none" stroke="black" points="177.5,-194.64 177.5,-263.64 326.5,-263.64 326.5,-194.64 177.5,-194.64"/>
<text text-anchor="middle" x="203.5" y="-248.44" font-family="Times New Roman,serif" font-size="14.00">clk</text>
<polyline fill="none" stroke="black" points="177.5,-240.64 229.5,-240.64 "/>
<text text-anchor="middle" x="203.5" y="-225.44" font-family="Times New Roman,serif" font-size="14.00">enable</text>
<polyline fill="none" stroke="black" points="177.5,-217.64 229.5,-217.64 "/>
<text text-anchor="middle" x="203.5" y="-202.44" font-family="Times New Roman,serif" font-size="14.00">reset</text>
<polyline fill="none" stroke="black" points="229.5,-194.64 229.5,-263.64 "/>
<text text-anchor="middle" x="264.5" y="-232.94" font-family="Times New Roman,serif" font-size="14.00">counter0</text>
<text text-anchor="middle" x="264.5" y="-217.94" font-family="Times New Roman,serif" font-size="14.00">bcdcount</text>
<polyline fill="none" stroke="black" points="299.5,-194.64 299.5,-263.64 "/>
<text text-anchor="middle" x="313" y="-225.44" font-family="Times New Roman,serif" font-size="14.00">Q</text>
</g>
<!-- n8&#45;&gt;c20 -->
<g id="edge8" class="edge">
<title>n8:e&#45;&gt;c20:w</title>
<path fill="none" stroke="#7570b3" d="M58.25,-272.14C108.42,-272.14 122.01,-254.71 167.32,-252.39"/>
<polygon fill="#7570b3" stroke="#7570b3" points="167.59,-255.88 177.5,-252.14 167.42,-248.89 167.59,-255.88"/>
</g>
<!-- c21 -->
<g id="node16" class="node">
<title>c21</title>
<polygon fill="none" stroke="black" points="177.5,-98.64 177.5,-167.64 326.5,-167.64 326.5,-98.64 177.5,-98.64"/>
<text text-anchor="middle" x="203.5" y="-152.44" font-family="Times New Roman,serif" font-size="14.00">clk</text>
<polyline fill="none" stroke="black" points="177.5,-144.64 229.5,-144.64 "/>
<text text-anchor="middle" x="203.5" y="-129.44" font-family="Times New Roman,serif" font-size="14.00">enable</text>
<polyline fill="none" stroke="black" points="177.5,-121.64 229.5,-121.64 "/>
<text text-anchor="middle" x="203.5" y="-106.44" font-family="Times New Roman,serif" font-size="14.00">reset</text>
<polyline fill="none" stroke="black" points="229.5,-98.64 229.5,-167.64 "/>
<text text-anchor="middle" x="264.5" y="-136.94" font-family="Times New Roman,serif" font-size="14.00">counter1</text>
<text text-anchor="middle" x="264.5" y="-121.94" font-family="Times New Roman,serif" font-size="14.00">bcdcount</text>
<polyline fill="none" stroke="black" points="299.5,-98.64 299.5,-167.64 "/>
<text text-anchor="middle" x="313" y="-129.44" font-family="Times New Roman,serif" font-size="14.00">Q</text>
</g>
<!-- n8&#45;&gt;c21 -->
<g id="edge9" class="edge">
<title>n8:e&#45;&gt;c21:w</title>
<path fill="none" stroke="#7570b3" d="M58.25,-272.14C103.6,-272.14 45.81,-203.56 78.5,-172.14 108.12,-143.66 129.39,-154.09 167.45,-155.89"/>
<polygon fill="#7570b3" stroke="#7570b3" points="167.42,-159.39 177.5,-156.14 167.59,-152.4 167.42,-159.39"/>
</g>
<!-- c22 -->
<g id="node17" class="node">
<title>c22</title>
<polygon fill="none" stroke="black" points="177.5,-326.64 177.5,-395.64 326.5,-395.64 326.5,-326.64 177.5,-326.64"/>
<text text-anchor="middle" x="203.5" y="-380.44" font-family="Times New Roman,serif" font-size="14.00">clk</text>
<polyline fill="none" stroke="black" points="177.5,-372.64 229.5,-372.64 "/>
<text text-anchor="middle" x="203.5" y="-357.44" font-family="Times New Roman,serif" font-size="14.00">enable</text>
<polyline fill="none" stroke="black" points="177.5,-349.64 229.5,-349.64 "/>
<text text-anchor="middle" x="203.5" y="-334.44" font-family="Times New Roman,serif" font-size="14.00">reset</text>
<polyline fill="none" stroke="black" points="229.5,-326.64 229.5,-395.64 "/>
<text text-anchor="middle" x="264.5" y="-364.94" font-family="Times New Roman,serif" font-size="14.00">counter2</text>
<text text-anchor="middle" x="264.5" y="-349.94" font-family="Times New Roman,serif" font-size="14.00">bcdcount</text>
<polyline fill="none" stroke="black" points="299.5,-326.64 299.5,-395.64 "/>
<text text-anchor="middle" x="313" y="-357.44" font-family="Times New Roman,serif" font-size="14.00">Q</text>
</g>
<!-- n8&#45;&gt;c22 -->
<g id="edge10" class="edge">
<title>n8:e&#45;&gt;c22:w</title>
<path fill="none" stroke="#7570b3" d="M58.25,-272.14C97.09,-272.14 51.49,-329.24 78.5,-357.14 107.74,-387.34 128.45,-384.8 167.23,-384.22"/>
<polygon fill="#7570b3" stroke="#7570b3" points="167.53,-387.72 177.5,-384.14 167.47,-380.72 167.53,-387.72"/>
</g>
<!-- n9 -->
<g id="node2" class="node">
<title>n9</title>
<polygon fill="none" stroke="black" points="60.25,-112.68 60.25,-127.59 42.68,-138.14 17.82,-138.14 0.25,-127.59 0.25,-112.68 17.82,-102.14 42.68,-102.14 60.25,-112.68"/>
<text text-anchor="middle" x="30.25" y="-116.44" font-family="Times New Roman,serif" font-size="14.00">reset</text>
</g>
<!-- n9&#45;&gt;c20 -->
<g id="edge11" class="edge">
<title>n9:e&#45;&gt;c20:w</title>
<path fill="none" stroke="#e6ab02" d="M60.5,-120.14C102.2,-120.14 107.75,-143.33 140.5,-169.14 155.48,-180.95 155.13,-198.28 167.36,-204.13"/>
<polygon fill="#e6ab02" stroke="#e6ab02" points="167.01,-207.62 177.5,-206.14 168.37,-200.76 167.01,-207.62"/>
</g>
<!-- n9&#45;&gt;c21 -->
<g id="edge12" class="edge">
<title>n9:e&#45;&gt;c21:w</title>
<path fill="none" stroke="#e6ab02" d="M60.5,-120.14C99.12,-120.14 48.5,-59.45 78.5,-35.14 99.91,-17.79 117.1,-20.59 140.5,-35.14 153.45,-43.19 157.55,-88.5 168.86,-104.52"/>
<polygon fill="#e6ab02" stroke="#e6ab02" points="167.21,-107.62 177.5,-110.14 171.02,-101.75 167.21,-107.62"/>
</g>
<!-- n9&#45;&gt;c22 -->
<g id="edge13" class="edge">
<title>n9:e&#45;&gt;c22:w</title>
<path fill="none" stroke="#e6ab02" d="M60.5,-120.14C83.08,-120.14 68.92,-199.69 78.5,-220.14 81.61,-226.77 145.59,-308.41 169.37,-331.87"/>
<polygon fill="#e6ab02" stroke="#e6ab02" points="167.44,-334.8 177.5,-338.14 171.72,-329.26 167.44,-334.8"/>
</g>
<!-- n3 -->
<g id="node3" class="node">
<title>n3</title>
<polygon fill="none" stroke="black" points="1073.61,-397.68 1073.61,-412.59 1044.62,-423.14 1003.62,-423.14 974.63,-412.59 974.63,-397.68 1003.62,-387.14 1044.62,-387.14 1073.61,-397.68"/>
<text text-anchor="middle" x="1024.12" y="-401.44" font-family="Times New Roman,serif" font-size="14.00">OneHertz</text>
</g>
<!-- n7 -->
<g id="node4" class="node">
<title>n7</title>
<polygon fill="none" stroke="black" points="1070.48,-191.68 1070.48,-206.59 1043.32,-217.14 1004.91,-217.14 977.75,-206.59 977.75,-191.68 1004.91,-181.14 1043.32,-181.14 1070.48,-191.68"/>
<text text-anchor="middle" x="1024.12" y="-195.44" font-family="Times New Roman,serif" font-size="14.00">c_enable</text>
</g>
<!-- x0 -->
<g id="node11" class="node">
<title>x0</title>
<path fill="none" stroke="black" d="M547.37,-157.14C547.37,-157.14 585.37,-157.14 585.37,-157.14 591.37,-157.14 597.37,-163.14 597.37,-169.14 597.37,-169.14 597.37,-181.14 597.37,-181.14 597.37,-187.14 591.37,-193.14 585.37,-193.14 585.37,-193.14 547.37,-193.14 547.37,-193.14 541.37,-193.14 535.37,-187.14 535.37,-181.14 535.37,-181.14 535.37,-169.14 535.37,-169.14 535.37,-163.14 541.37,-157.14 547.37,-157.14"/>
<text text-anchor="middle" x="566.37" y="-171.44" font-family="Times New Roman,serif" font-size="14.00">1:1 &#45; 0:0</text>
</g>
<!-- n7&#45;&gt;x0 -->
<g id="edge4" class="edge">
<title>n7:e&#45;&gt;x0:w</title>
<path fill="none" stroke="#a6761d" d="M1071.12,-199.14C1079.13,-199.14 1075.94,-211.63 1070.12,-217.14 1033.53,-251.75 1006.88,-219.07 956.87,-213.14 933.59,-210.38 552.01,-210.15 535.37,-193.64 533,-191.28 531.03,-187.79 530.08,-184.47"/>
<polygon fill="#a6761d" stroke="#a6761d" points="533.37,-185.68 534.37,-175.14 527.01,-182.76 533.37,-185.68"/>
</g>
<!-- x2 -->
<g id="node12" class="node">
<title>x2</title>
<path fill="none" stroke="black" d="M676.87,-332.14C676.87,-332.14 714.87,-332.14 714.87,-332.14 720.87,-332.14 726.87,-338.14 726.87,-344.14 726.87,-344.14 726.87,-356.14 726.87,-356.14 726.87,-362.14 720.87,-368.14 714.87,-368.14 714.87,-368.14 676.87,-368.14 676.87,-368.14 670.87,-368.14 664.87,-362.14 664.87,-356.14 664.87,-356.14 664.87,-344.14 664.87,-344.14 664.87,-338.14 670.87,-332.14 676.87,-332.14"/>
<text text-anchor="middle" x="695.87" y="-346.44" font-family="Times New Roman,serif" font-size="14.00">2:2 &#45; 0:0</text>
</g>
<!-- n7&#45;&gt;x2 -->
<g id="edge5" class="edge">
<title>n7:e&#45;&gt;x2:w</title>
<path fill="none" stroke="#a6761d" d="M1071.12,-199.14C1108.75,-199.14 990.35,-306.96 956.87,-324.14 864.24,-371.67 830.51,-358.7 726.87,-368.64 699.44,-371.27 684.87,-387.59 664.87,-368.64 662.35,-366.25 660.31,-362.58 659.42,-359.14"/>
<polygon fill="#a6761d" stroke="#a6761d" points="662.57,-360.65 663.87,-350.14 656.3,-357.55 662.57,-360.65"/>
</g>
<!-- x8 -->
<g id="node13" class="node">
<title>x8</title>
<path fill="none" stroke="black" d="M90.5,-45.14C90.5,-45.14 128.5,-45.14 128.5,-45.14 134.5,-45.14 140.5,-51.14 140.5,-57.14 140.5,-57.14 140.5,-69.14 140.5,-69.14 140.5,-75.14 134.5,-81.14 128.5,-81.14 128.5,-81.14 90.5,-81.14 90.5,-81.14 84.5,-81.14 78.5,-75.14 78.5,-69.14 78.5,-69.14 78.5,-57.14 78.5,-57.14 78.5,-51.14 84.5,-45.14 90.5,-45.14"/>
<text text-anchor="middle" x="109.5" y="-59.44" font-family="Times New Roman,serif" font-size="14.00">1:1 &#45; 0:0</text>
</g>
<!-- n7&#45;&gt;x8 -->
<g id="edge6" class="edge">
<title>n7:e&#45;&gt;x8:w</title>
<path fill="none" stroke="#a6761d" d="M1071.12,-199.14C1087.27,-199.14 1088.69,-300.47 977.69,-217.14 976.82,-216.49 978.44,-44.14 890.87,-44.14 251,-44.14 251,-44.14 251,-44.14 199.14,-44.14 191.67,-73.19 140.5,-81.64 113.31,-86.12 98.5,-100.59 78.5,-81.64 75.98,-79.25 73.94,-75.58 73.05,-72.14"/>
<polygon fill="#a6761d" stroke="#a6761d" points="76.2,-73.65 77.5,-63.14 69.93,-70.55 76.2,-73.65"/>
</g>
<!-- x9 -->
<g id="node14" class="node">
<title>x9</title>
<path fill="none" stroke="black" d="M90.5,-311.14C90.5,-311.14 128.5,-311.14 128.5,-311.14 134.5,-311.14 140.5,-317.14 140.5,-323.14 140.5,-323.14 140.5,-335.14 140.5,-335.14 140.5,-341.14 134.5,-347.14 128.5,-347.14 128.5,-347.14 90.5,-347.14 90.5,-347.14 84.5,-347.14 78.5,-341.14 78.5,-335.14 78.5,-335.14 78.5,-323.14 78.5,-323.14 78.5,-317.14 84.5,-311.14 90.5,-311.14"/>
<text text-anchor="middle" x="109.5" y="-325.44" font-family="Times New Roman,serif" font-size="14.00">2:2 &#45; 0:0</text>
</g>
<!-- n7&#45;&gt;x9 -->
<g id="edge7" class="edge">
<title>n7:e&#45;&gt;x9:w</title>
<path fill="none" stroke="#a6761d" d="M1071.12,-199.14C1079.13,-199.14 1074.47,-210.41 1070.12,-217.14 1021.39,-292.51 980.62,-310.14 890.87,-310.14 251,-310.14 251,-310.14 251,-310.14 217.75,-310.14 208.42,-311.89 177.5,-324.14 159.39,-331.31 159.21,-342.2 140.5,-347.64 127.27,-351.48 88.5,-357.11 78.5,-347.64 75.98,-345.25 73.94,-341.58 73.05,-338.14"/>
<polygon fill="#a6761d" stroke="#a6761d" points="76.2,-339.65 77.5,-329.14 69.93,-336.55 76.2,-339.65"/>
</g>
<!-- n4 -->
<g id="node5" class="node">
<title>n4</title>
<polygon fill="none" stroke="black" points="424.19,-261.14 386.31,-243.14 424.19,-225.14 462.06,-243.14 424.19,-261.14"/>
<text text-anchor="middle" x="424.19" y="-239.44" font-family="Times New Roman,serif" font-size="14.00">cQ0</text>
</g>
<!-- c15 -->
<g id="node6" class="node">
<title>c15</title>
<polygon fill="none" stroke="black" points="521.87,-213.14 521.87,-259.14 610.87,-259.14 610.87,-213.14 521.87,-213.14"/>
<text text-anchor="middle" x="534.87" y="-243.94" font-family="Times New Roman,serif" font-size="14.00">A</text>
<polyline fill="none" stroke="black" points="521.87,-236.14 547.87,-236.14 "/>
<text text-anchor="middle" x="534.87" y="-220.94" font-family="Times New Roman,serif" font-size="14.00">B</text>
<polyline fill="none" stroke="black" points="547.87,-213.14 547.87,-259.14 "/>
<text text-anchor="middle" x="566.37" y="-239.94" font-family="Times New Roman,serif" font-size="14.00">$1</text>
<text text-anchor="middle" x="566.37" y="-224.94" font-family="Times New Roman,serif" font-size="14.00">$eq</text>
<polyline fill="none" stroke="black" points="584.87,-213.14 584.87,-259.14 "/>
<text text-anchor="middle" x="597.87" y="-232.44" font-family="Times New Roman,serif" font-size="14.00">Y</text>
</g>
<!-- n4&#45;&gt;c15 -->
<g id="edge1" class="edge">
<title>n4:e&#45;&gt;c15:w</title>
<path fill="none" stroke="#e6ab02" stroke-width="3" d="M461.87,-243.14C484.87,-243.14 492.89,-246.83 511.67,-247.87"/>
<polygon fill="#e6ab02" stroke="#e6ab02" stroke-width="3" points="511.78,-251.37 521.87,-248.14 511.97,-244.37 511.78,-251.37"/>
<text text-anchor="middle" x="491.87" y="-250.94" font-family="Times New Roman,serif" font-size="14.00" fill="#e6ab02">&lt;4&gt;</text>
</g>
<!-- x4 -->
<g id="node22" class="node">
<title>x4</title>
<path fill="none" stroke="black" d="M773.87,-228.14C773.87,-228.14 811.87,-228.14 811.87,-228.14 817.87,-228.14 823.87,-234.14 823.87,-240.14 823.87,-240.14 823.87,-252.14 823.87,-252.14 823.87,-258.14 817.87,-264.14 811.87,-264.14 811.87,-264.14 773.87,-264.14 773.87,-264.14 767.87,-264.14 761.87,-258.14 761.87,-252.14 761.87,-252.14 761.87,-240.14 761.87,-240.14 761.87,-234.14 767.87,-228.14 773.87,-228.14"/>
<text text-anchor="middle" x="792.87" y="-242.44" font-family="Times New Roman,serif" font-size="14.00">0:0 &#45; 1:1</text>
</g>
<!-- c15&#45;&gt;x4 -->
<g id="edge20" class="edge">
<title>c15:e&#45;&gt;x4:w</title>
<path fill="none" stroke="#1b9e77" d="M622.91,-236.25C676.46,-237.27 696.11,-244.97 749.54,-246.02"/>
<polygon fill="none" stroke="#1b9e77" points="622.87,-236.25 616.83,-240.19 610.87,-236.14 616.91,-232.19 622.87,-236.25"/>
<polygon fill="none" stroke="#1b9e77" points="749.87,-246.02 755.91,-242.08 761.87,-246.14 755.83,-250.08 749.87,-246.02"/>
</g>
<!-- n5 -->
<g id="node7" class="node">
<title>n5</title>
<polygon fill="none" stroke="black" points="424.19,-157.14 386.31,-139.14 424.19,-121.14 462.06,-139.14 424.19,-157.14"/>
<text text-anchor="middle" x="424.19" y="-135.44" font-family="Times New Roman,serif" font-size="14.00">cQ1</text>
</g>
<!-- c16 -->
<g id="node8" class="node">
<title>c16</title>
<polygon fill="none" stroke="black" points="521.87,-100.14 521.87,-146.14 610.87,-146.14 610.87,-100.14 521.87,-100.14"/>
<text text-anchor="middle" x="534.87" y="-130.94" font-family="Times New Roman,serif" font-size="14.00">A</text>
<polyline fill="none" stroke="black" points="521.87,-123.14 547.87,-123.14 "/>
<text text-anchor="middle" x="534.87" y="-107.94" font-family="Times New Roman,serif" font-size="14.00">B</text>
<polyline fill="none" stroke="black" points="547.87,-100.14 547.87,-146.14 "/>
<text text-anchor="middle" x="566.37" y="-126.94" font-family="Times New Roman,serif" font-size="14.00">$3</text>
<text text-anchor="middle" x="566.37" y="-111.94" font-family="Times New Roman,serif" font-size="14.00">$eq</text>
<polyline fill="none" stroke="black" points="584.87,-100.14 584.87,-146.14 "/>
<text text-anchor="middle" x="597.87" y="-119.44" font-family="Times New Roman,serif" font-size="14.00">Y</text>
</g>
<!-- n5&#45;&gt;c16 -->
<g id="edge2" class="edge">
<title>n5:e&#45;&gt;c16:w</title>
<path fill="none" stroke="#1b9e77" stroke-width="3" d="M461.87,-139.14C484.84,-139.14 492.9,-136.18 511.68,-135.35"/>
<polygon fill="#1b9e77" stroke="#1b9e77" stroke-width="3" points="511.95,-138.85 521.87,-135.14 511.8,-131.85 511.95,-138.85"/>
<text text-anchor="middle" x="491.87" y="-142.94" font-family="Times New Roman,serif" font-size="14.00" fill="#1b9e77">&lt;4&gt;</text>
</g>
<!-- c13 -->
<g id="node18" class="node">
<title>c13</title>
<polygon fill="none" stroke="black" points="647.87,-129.14 647.87,-175.14 743.87,-175.14 743.87,-129.14 647.87,-129.14"/>
<text text-anchor="middle" x="660.87" y="-159.94" font-family="Times New Roman,serif" font-size="14.00">A</text>
<polyline fill="none" stroke="black" points="647.87,-152.14 673.87,-152.14 "/>
<text text-anchor="middle" x="660.87" y="-136.94" font-family="Times New Roman,serif" font-size="14.00">B</text>
<polyline fill="none" stroke="black" points="673.87,-129.14 673.87,-175.14 "/>
<text text-anchor="middle" x="695.87" y="-155.94" font-family="Times New Roman,serif" font-size="14.00">$4</text>
<text text-anchor="middle" x="695.87" y="-140.94" font-family="Times New Roman,serif" font-size="14.00">$and</text>
<polyline fill="none" stroke="black" points="717.87,-129.14 717.87,-175.14 "/>
<text text-anchor="middle" x="730.87" y="-148.44" font-family="Times New Roman,serif" font-size="14.00">Y</text>
</g>
<!-- c16&#45;&gt;c13 -->
<g id="edge23" class="edge">
<title>c16:e&#45;&gt;c13:w</title>
<path fill="none" stroke="#a6761d" d="M610.87,-123.14C624.87,-123.14 628.52,-133.31 637.83,-137.91"/>
<polygon fill="#a6761d" stroke="#a6761d" points="637.35,-141.39 647.87,-140.14 638.86,-134.56 637.35,-141.39"/>
</g>
<!-- n6 -->
<g id="node9" class="node">
<title>n6</title>
<polygon fill="none" stroke="black" points="424.19,-420.14 386.31,-402.14 424.19,-384.14 462.06,-402.14 424.19,-420.14"/>
<text text-anchor="middle" x="424.19" y="-398.44" font-family="Times New Roman,serif" font-size="14.00">cQ2</text>
</g>
<!-- c17 -->
<g id="node10" class="node">
<title>c17</title>
<polygon fill="none" stroke="black" points="521.87,-363.14 521.87,-409.14 610.87,-409.14 610.87,-363.14 521.87,-363.14"/>
<text text-anchor="middle" x="534.87" y="-393.94" font-family="Times New Roman,serif" font-size="14.00">A</text>
<polyline fill="none" stroke="black" points="521.87,-386.14 547.87,-386.14 "/>
<text text-anchor="middle" x="534.87" y="-370.94" font-family="Times New Roman,serif" font-size="14.00">B</text>
<polyline fill="none" stroke="black" points="547.87,-363.14 547.87,-409.14 "/>
<text text-anchor="middle" x="566.37" y="-389.94" font-family="Times New Roman,serif" font-size="14.00">$8</text>
<text text-anchor="middle" x="566.37" y="-374.94" font-family="Times New Roman,serif" font-size="14.00">$eq</text>
<polyline fill="none" stroke="black" points="584.87,-363.14 584.87,-409.14 "/>
<text text-anchor="middle" x="597.87" y="-382.44" font-family="Times New Roman,serif" font-size="14.00">Y</text>
</g>
<!-- n6&#45;&gt;c17 -->
<g id="edge3" class="edge">
<title>n6:e&#45;&gt;c17:w</title>
<path fill="none" stroke="#66a61e" stroke-width="3" d="M461.87,-402.14C484.84,-402.14 492.9,-399.18 511.68,-398.35"/>
<polygon fill="#66a61e" stroke="#66a61e" stroke-width="3" points="511.95,-401.85 521.87,-398.14 511.8,-394.85 511.95,-401.85"/>
<text text-anchor="middle" x="491.87" y="-404.94" font-family="Times New Roman,serif" font-size="14.00" fill="#66a61e">&lt;4&gt;</text>
</g>
<!-- c14 -->
<g id="node20" class="node">
<title>c14</title>
<polygon fill="none" stroke="black" points="841.87,-382.14 841.87,-428.14 937.87,-428.14 937.87,-382.14 841.87,-382.14"/>
<text text-anchor="middle" x="854.87" y="-412.94" font-family="Times New Roman,serif" font-size="14.00">A</text>
<polyline fill="none" stroke="black" points="841.87,-405.14 867.87,-405.14 "/>
<text text-anchor="middle" x="854.87" y="-389.94" font-family="Times New Roman,serif" font-size="14.00">B</text>
<polyline fill="none" stroke="black" points="867.87,-382.14 867.87,-428.14 "/>
<text text-anchor="middle" x="889.87" y="-408.94" font-family="Times New Roman,serif" font-size="14.00">$9</text>
<text text-anchor="middle" x="889.87" y="-393.94" font-family="Times New Roman,serif" font-size="14.00">$and</text>
<polyline fill="none" stroke="black" points="911.87,-382.14 911.87,-428.14 "/>
<text text-anchor="middle" x="924.87" y="-401.44" font-family="Times New Roman,serif" font-size="14.00">Y</text>
</g>
<!-- c17&#45;&gt;c14 -->
<g id="edge25" class="edge">
<title>c17:e&#45;&gt;c14:w</title>
<path fill="none" stroke="#7570b3" d="M610.87,-386.14C710.07,-386.14 737.32,-392.67 831.6,-393.11"/>
<polygon fill="#7570b3" stroke="#7570b3" points="831.86,-396.61 841.87,-393.14 831.88,-389.61 831.86,-396.61"/>
</g>
<!-- x0&#45;&gt;c13 -->
<g id="edge15" class="edge">
<title>x0:e&#45;&gt;c13:w</title>
<path fill="none" stroke="#d95f02" d="M610.56,-173.88C620.12,-171.75 626.17,-167.5 635.75,-165.38"/>
<polygon fill="none" stroke="#d95f02" points="610.31,-173.9 604.75,-178.5 598.37,-175.14 603.93,-170.54 610.31,-173.9"/>
<polygon fill="none" stroke="#d95f02" points="635.93,-165.37 641.49,-160.77 647.87,-164.14 642.31,-168.73 635.93,-165.37"/>
</g>
<!-- x2&#45;&gt;c14 -->
<g id="edge18" class="edge">
<title>x2:e&#45;&gt;c14:w</title>
<path fill="none" stroke="#1b9e77" d="M739.59,-352.85C765.94,-363.62 803.47,-403.36 829.89,-414.32"/>
<polygon fill="none" stroke="#1b9e77" points="739.56,-352.84 732.82,-355.39 727.87,-350.14 734.62,-347.59 739.56,-352.84"/>
<polygon fill="none" stroke="#1b9e77" points="830.19,-414.39 836.95,-411.87 841.87,-417.14 835.11,-419.66 830.19,-414.39"/>
</g>
<!-- x8&#45;&gt;c21 -->
<g id="edge29" class="edge">
<title>x8:e&#45;&gt;c21:w</title>
<path fill="none" stroke="#7570b3" d="M149.68,-70.9C156.91,-84.28 161,-111.57 168.19,-125.13"/>
<polygon fill="none" stroke="#7570b3" points="149.66,-70.88 142.5,-70.07 140.5,-63.14 147.66,-63.96 149.66,-70.88"/>
<polygon fill="none" stroke="#7570b3" points="168.4,-125.31 175.56,-126.19 177.5,-133.14 170.34,-132.26 168.4,-125.31"/>
</g>
<!-- x9&#45;&gt;c22 -->
<g id="edge31" class="edge">
<title>x9:e&#45;&gt;c22:w</title>
<path fill="none" stroke="#666666" d="M151.86,-333.59C157.98,-339.63 159.93,-350.39 165.97,-356.52"/>
<polygon fill="none" stroke="#666666" points="151.67,-333.51 144.63,-335.05 140.5,-329.14 147.55,-327.6 151.67,-333.51"/>
<polygon fill="none" stroke="#666666" points="166.36,-356.68 173.42,-355.19 177.5,-361.14 170.44,-362.62 166.36,-356.68"/>
</g>
<!-- c20&#45;&gt;n4 -->
<g id="edge27" class="edge">
<title>c20:e&#45;&gt;n4:w</title>
<path fill="none" stroke="#e6ab02" stroke-width="3" d="M326.5,-229.14C350.14,-229.14 357.27,-239.57 376.4,-242.42"/>
<polygon fill="#e6ab02" stroke="#e6ab02" stroke-width="3" points="376.28,-245.92 386.5,-243.14 376.77,-238.94 376.28,-245.92"/>
<text text-anchor="middle" x="356.5" y="-243.94" font-family="Times New Roman,serif" font-size="14.00" fill="#e6ab02">&lt;4&gt;</text>
</g>
<!-- c21&#45;&gt;n5 -->
<g id="edge28" class="edge">
<title>c21:e&#45;&gt;n5:w</title>
<path fill="none" stroke="#1b9e77" stroke-width="3" d="M326.5,-133.14C349.53,-133.14 357.5,-137.57 376.29,-138.81"/>
<polygon fill="#1b9e77" stroke="#1b9e77" stroke-width="3" points="376.39,-142.32 386.5,-139.14 376.62,-135.32 376.39,-142.32"/>
<text text-anchor="middle" x="356.5" y="-141.94" font-family="Times New Roman,serif" font-size="14.00" fill="#1b9e77">&lt;4&gt;</text>
</g>
<!-- c22&#45;&gt;n6 -->
<g id="edge30" class="edge">
<title>c22:e&#45;&gt;n6:w</title>
<path fill="none" stroke="#66a61e" stroke-width="3" d="M326.5,-361.14C355.01,-361.14 354.77,-393.09 376.55,-400.58"/>
<polygon fill="#66a61e" stroke="#66a61e" stroke-width="3" points="376.08,-404.05 386.5,-402.14 377.16,-397.13 376.08,-404.05"/>
<text text-anchor="middle" x="356.5" y="-398.94" font-family="Times New Roman,serif" font-size="14.00" fill="#66a61e">&lt;4&gt;</text>
</g>
<!-- x1 -->
<g id="node19" class="node">
<title>x1</title>
<path fill="none" stroke="black" d="M870.87,-136.14C870.87,-136.14 908.87,-136.14 908.87,-136.14 914.87,-136.14 920.87,-142.14 920.87,-148.14 920.87,-148.14 920.87,-160.14 920.87,-160.14 920.87,-166.14 914.87,-172.14 908.87,-172.14 908.87,-172.14 870.87,-172.14 870.87,-172.14 864.87,-172.14 858.87,-166.14 858.87,-160.14 858.87,-160.14 858.87,-148.14 858.87,-148.14 858.87,-142.14 864.87,-136.14 870.87,-136.14"/>
<text text-anchor="middle" x="889.87" y="-150.44" font-family="Times New Roman,serif" font-size="14.00">0:0 &#45; 2:2</text>
</g>
<!-- c13&#45;&gt;x1 -->
<g id="edge14" class="edge">
<title>c13:e&#45;&gt;x1:w</title>
<path fill="none" stroke="#d95f02" d="M755.88,-152.18C793.09,-152.43 808.5,-153.83 845.61,-154.1"/>
<polygon fill="none" stroke="#d95f02" points="755.87,-152.18 749.86,-156.16 743.87,-152.14 749.88,-148.16 755.87,-152.18"/>
<polygon fill="none" stroke="#d95f02" points="845.87,-154.1 851.88,-150.12 857.87,-154.14 851.86,-158.12 845.87,-154.1"/>
</g>
<!-- x1&#45;&gt;n7 -->
<g id="edge16" class="edge">
<title>x1:e&#45;&gt;n7:w</title>
<path fill="none" stroke="#a6761d" d="M921.87,-154.14C934.74,-154.14 952.71,-183.84 967.49,-194.98"/>
<polygon fill="#a6761d" stroke="#a6761d" points="966.55,-198.39 977.12,-199.14 969.32,-191.96 966.55,-198.39"/>
</g>
<!-- c14&#45;&gt;n3 -->
<g id="edge17" class="edge">
<title>c14:e&#45;&gt;n3:w</title>
<path fill="none" stroke="#a6761d" d="M937.87,-405.14C950.33,-405.14 955.71,-405.14 964.74,-405.14"/>
<polygon fill="#a6761d" stroke="#a6761d" points="964.87,-408.64 974.87,-405.14 964.87,-401.64 964.87,-408.64"/>
</g>
<!-- v3 -->
<g id="node21" class="node">
<title>v3</title>
<ellipse fill="none" stroke="black" cx="424.19" cy="-197.14" rx="34.39" ry="18"/>
<text text-anchor="middle" x="424.19" y="-193.44" font-family="Times New Roman,serif" font-size="14.00">4&#39;1001</text>
</g>
<!-- v3&#45;&gt;c15 -->
<g id="edge19" class="edge">
<title>v3:e&#45;&gt;c15:w</title>
<path fill="none" stroke="#d95f02" stroke-width="3" d="M460.19,-197.14C486.37,-197.14 491.05,-217.81 511.86,-222.98"/>
<polygon fill="#d95f02" stroke="#d95f02" stroke-width="3" points="511.53,-226.46 521.87,-224.14 512.34,-219.51 511.53,-226.46"/>
<text text-anchor="middle" x="491.87" y="-222.94" font-family="Times New Roman,serif" font-size="14.00" fill="#d95f02">&lt;4&gt;</text>
</g>
<!-- x4&#45;&gt;n7 -->
<g id="edge21" class="edge">
<title>x4:e&#45;&gt;n7:w</title>
<path fill="none" stroke="#a6761d" d="M823.87,-246.14C884.77,-246.14 901.36,-238.2 956.87,-213.14 962.64,-210.53 964.84,-206.26 967.8,-203.12"/>
<polygon fill="#a6761d" stroke="#a6761d" points="969.3,-206.29 977.12,-199.14 966.54,-199.85 969.3,-206.29"/>
</g>
<!-- v5 -->
<g id="node23" class="node">
<title>v5</title>
<ellipse fill="none" stroke="black" cx="424.19" cy="-90.14" rx="34.39" ry="18"/>
<text text-anchor="middle" x="424.19" y="-86.44" font-family="Times New Roman,serif" font-size="14.00">4&#39;1001</text>
</g>
<!-- v5&#45;&gt;c16 -->
<g id="edge22" class="edge">
<title>v5:e&#45;&gt;c16:w</title>
<path fill="none" stroke="#d95f02" stroke-width="3" d="M460.19,-90.14C485.41,-90.14 491.52,-106.07 511.82,-110.18"/>
<polygon fill="#d95f02" stroke="#d95f02" stroke-width="3" points="511.58,-113.67 521.87,-111.14 512.25,-106.71 511.58,-113.67"/>
<text text-anchor="middle" x="491.87" y="-111.94" font-family="Times New Roman,serif" font-size="14.00" fill="#d95f02">&lt;4&gt;</text>
</g>
<!-- v6 -->
<g id="node24" class="node">
<title>v6</title>
<ellipse fill="none" stroke="black" cx="424.19" cy="-356.14" rx="34.39" ry="18"/>
<text text-anchor="middle" x="424.19" y="-352.44" font-family="Times New Roman,serif" font-size="14.00">4&#39;1001</text>
</g>
<!-- v6&#45;&gt;c17 -->
<g id="edge24" class="edge">
<title>v6:e&#45;&gt;c17:w</title>
<path fill="none" stroke="#e6ab02" stroke-width="3" d="M460.19,-356.14C484.95,-356.14 491.68,-369.67 511.65,-373.27"/>
<polygon fill="#e6ab02" stroke="#e6ab02" stroke-width="3" points="511.61,-376.78 521.87,-374.14 512.2,-369.8 511.61,-376.78"/>
<text text-anchor="middle" x="491.87" y="-373.94" font-family="Times New Roman,serif" font-size="14.00" fill="#e6ab02">&lt;4&gt;</text>
</g>
<!-- v7 -->
<g id="node25" class="node">
<title>v7</title>
<ellipse fill="none" stroke="black" cx="109.5" cy="-196.14" rx="27" ry="18"/>
<text text-anchor="middle" x="109.5" y="-192.44" font-family="Times New Roman,serif" font-size="14.00">1&#39;1</text>
</g>
<!-- v7&#45;&gt;c20 -->
<g id="edge26" class="edge">
<title>v7:e&#45;&gt;c20:w</title>
<path fill="none" stroke="#1b9e77" d="M137.5,-196.14C156.41,-196.14 155.7,-218.34 167.56,-226.32"/>
<polygon fill="#1b9e77" stroke="#1b9e77" points="166.93,-229.78 177.5,-229.14 168.83,-223.05 166.93,-229.78"/>
</g>
<!-- v10 -->
<g id="node26" class="node">
<title>v10</title>
<ellipse fill="none" stroke="black" cx="695.87" cy="-105.14" rx="27" ry="18"/>
<text text-anchor="middle" x="695.87" y="-101.44" font-family="Times New Roman,serif" font-size="14.00">1&#39;1</text>
</g>
<!-- x11 -->
<g id="node27" class="node">
<title>x11</title>
<path fill="none" stroke="black" d="M870.87,-90.14C870.87,-90.14 908.87,-90.14 908.87,-90.14 914.87,-90.14 920.87,-96.14 920.87,-102.14 920.87,-102.14 920.87,-114.14 920.87,-114.14 920.87,-120.14 914.87,-126.14 908.87,-126.14 908.87,-126.14 870.87,-126.14 870.87,-126.14 864.87,-126.14 858.87,-120.14 858.87,-114.14 858.87,-114.14 858.87,-102.14 858.87,-102.14 858.87,-96.14 864.87,-90.14 870.87,-90.14"/>
<text text-anchor="middle" x="889.87" y="-104.44" font-family="Times New Roman,serif" font-size="14.00">0:0 &#45; 0:0</text>
</g>
<!-- v10&#45;&gt;x11 -->
<g id="edge32" class="edge">
<title>v10:e&#45;&gt;x11:w</title>
<path fill="none" stroke="#7570b3" d="M723.87,-105.14C779.95,-105.14 796.41,-107.8 847.84,-108.11"/>
<polygon fill="#7570b3" stroke="#7570b3" points="847.86,-111.61 857.87,-108.14 847.88,-104.61 847.86,-111.61"/>
</g>
<!-- x11&#45;&gt;n7 -->
<g id="edge33" class="edge">
<title>x11:e&#45;&gt;n7:w</title>
<path fill="none" stroke="#a6761d" d="M921.87,-108.14C942.29,-108.14 951,-175.96 968.21,-194.5"/>
<polygon fill="#a6761d" stroke="#a6761d" points="966.63,-197.62 977.12,-199.14 969.86,-191.41 966.63,-197.62"/>
</g>
</g>
</svg>
