<svg xmlns="http://www.w3.org/2000/svg" xmlns:xlink="http://www.w3.org/1999/xlink" xmlns:s="https://github.com/nturley/netlistsvg" width="807" height="301.5">
  <style>svg {
    stroke:#000;
    fill:none;
  }
  text {
    fill:#000;
    stroke:none;
    font-size:10px;
    font-weight: bold;
    font-family: "Courier New", monospace;
  }
  .nodelabel {
    text-anchor: middle;
  }
  .inputPortLabel {
    text-anchor: end;
  }
  .splitjoinBody {
    fill:#000;
  }</style>
  <g s:type="and" transform="translate(437,161)" s:width="30" s:height="25" id="cell_$and$top_module.v:21$4">
    <s:alias val="$and"/>
    <s:alias val="$logic_and"/>
    <s:alias val="$_AND_"/>
    <path d="M0,0 L0,25 L15,25 A15 12.5 0 0 0 15,0 Z" class="cell_$and$top_module.v:21$4"/>
    <g s:x="0" s:y="5" s:pid="A"/>
    <g s:x="0" s:y="20" s:pid="B"/>
    <g s:x="30" s:y="12.5" s:pid="Y"/>
  </g>
  <g s:type="and" transform="translate(682,257)" s:width="30" s:height="25" id="cell_$and$top_module.v:23$9">
    <s:alias val="$and"/>
    <s:alias val="$logic_and"/>
    <s:alias val="$_AND_"/>
    <path d="M0,0 L0,25 L15,25 A15 12.5 0 0 0 15,0 Z" class="cell_$and$top_module.v:23$9"/>
    <g s:x="0" s:y="5" s:pid="A"/>
    <g s:x="0" s:y="20" s:pid="B"/>
    <g s:x="30" s:y="12.5" s:pid="Y"/>
  </g>
  <g s:type="eq" transform="translate(197,58.5)" s:width="25" s:height="25" id="cell_$eq$top_module.v:20$1">
    <s:alias val="$eq"/>
    <circle r="12.5" cx="12.5" cy="12.5" class="cell_$eq$top_module.v:20$1"/>
    <line x1="7.5" x2="17.5" y1="10" y2="10" class="cell_$eq$top_module.v:20$1"/>
    <line x1="7.5" x2="17.5" y1="15" y2="15" class="cell_$eq$top_module.v:20$1"/>
    <g s:x="3" s:y="5" s:pid="A"/>
    <g s:x="3" s:y="20" s:pid="B"/>
    <g s:x="25" s:y="12.5" s:pid="Y"/>
  </g>
  <g s:type="eq" transform="translate(377,168.5)" s:width="25" s:height="25" id="cell_$eq$top_module.v:21$3">
    <s:alias val="$eq"/>
    <circle r="12.5" cx="12.5" cy="12.5" class="cell_$eq$top_module.v:21$3"/>
    <line x1="7.5" x2="17.5" y1="10" y2="10" class="cell_$eq$top_module.v:21$3"/>
    <line x1="7.5" x2="17.5" y1="15" y2="15" class="cell_$eq$top_module.v:21$3"/>
    <g s:x="3" s:y="5" s:pid="A"/>
    <g s:x="3" s:y="20" s:pid="B"/>
    <g s:x="25" s:y="12.5" s:pid="Y"/>
  </g>
  <g s:type="eq" transform="translate(622,264.5)" s:width="25" s:height="25" id="cell_$eq$top_module.v:23$8">
    <s:alias val="$eq"/>
    <circle r="12.5" cx="12.5" cy="12.5" class="cell_$eq$top_module.v:23$8"/>
    <line x1="7.5" x2="17.5" y1="10" y2="10" class="cell_$eq$top_module.v:23$8"/>
    <line x1="7.5" x2="17.5" y1="15" y2="15" class="cell_$eq$top_module.v:23$8"/>
    <g s:x="3" s:y="5" s:pid="A"/>
    <g s:x="3" s:y="20" s:pid="B"/>
    <g s:x="25" s:y="12.5" s:pid="Y"/>
  </g>
  <g s:type="generic" transform="translate(114,53)" s:width="30" s:height="40" id="cell_counter0">
    <text x="15" y="-4" class="nodelabel cell_counter0" s:attribute="ref">bcdcount</text>
    <rect width="30" height="60" s:generic="body" class="cell_counter0"/>
    <g transform="translate(0,10)" s:x="0" s:y="10" s:pid="in0" id="port_counter0~clk">
      <text x="-3" y="-4" class="inputPortLabel cell_counter0">clk</text>
    </g>
    <g transform="translate(0,30)" s:x="0" s:y="10" s:pid="in0" id="port_counter0~enable">
      <text x="-3" y="-4" class="inputPortLabel cell_counter0">enable</text>
    </g>
    <g transform="translate(0,50)" s:x="0" s:y="10" s:pid="in0" id="port_counter0~reset">
      <text x="-3" y="-4" class="inputPortLabel cell_counter0">reset</text>
    </g>
    <g transform="translate(30,10)" s:x="30" s:y="10" s:pid="out0" id="port_counter0~Q">
      <text x="5" y="-4" style="fill:#000; stroke:none" class="cell_counter0">Q</text>
    </g>
  </g>
  <g s:type="generic" transform="translate(294,115.5)" s:width="30" s:height="40" id="cell_counter1">
    <text x="15" y="-4" class="nodelabel cell_counter1" s:attribute="ref">bcdcount</text>
    <rect width="30" height="60" s:generic="body" class="cell_counter1"/>
    <g transform="translate(0,10)" s:x="0" s:y="10" s:pid="in0" id="port_counter1~clk">
      <text x="-3" y="-4" class="inputPortLabel cell_counter1">clk</text>
    </g>
    <g transform="translate(0,30)" s:x="0" s:y="10" s:pid="in0" id="port_counter1~enable">
      <text x="-3" y="-4" class="inputPortLabel cell_counter1">enable</text>
    </g>
    <g transform="translate(0,50)" s:x="0" s:y="10" s:pid="in0" id="port_counter1~reset">
      <text x="-3" y="-4" class="inputPortLabel cell_counter1">reset</text>
    </g>
    <g transform="translate(30,10)" s:x="30" s:y="10" s:pid="out0" id="port_counter1~Q">
      <text x="5" y="-4" style="fill:#000; stroke:none" class="cell_counter1">Q</text>
    </g>
  </g>
  <g s:type="generic" transform="translate(539,198)" s:width="30" s:height="40" id="cell_counter2">
    <text x="15" y="-4" class="nodelabel cell_counter2" s:attribute="ref">bcdcount</text>
    <rect width="30" height="60" s:generic="body" class="cell_counter2"/>
    <g transform="translate(0,10)" s:x="0" s:y="10" s:pid="in0" id="port_counter2~clk">
      <text x="-3" y="-4" class="inputPortLabel cell_counter2">clk</text>
    </g>
    <g transform="translate(0,30)" s:x="0" s:y="10" s:pid="in0" id="port_counter2~enable">
      <text x="-3" y="-4" class="inputPortLabel cell_counter2">enable</text>
    </g>
    <g transform="translate(0,50)" s:x="0" s:y="10" s:pid="in0" id="port_counter2~reset">
      <text x="-3" y="-4" class="inputPortLabel cell_counter2">reset</text>
    </g>
    <g transform="translate(30,10)" s:x="30" s:y="10" s:pid="out0" id="port_counter2~Q">
      <text x="5" y="-4" style="fill:#000; stroke:none" class="cell_counter2">Q</text>
    </g>
  </g>
  <g s:type="inputExt" transform="translate(12,198.5)" s:width="30" s:height="20" id="cell_clk">
    <text x="15" y="-4" class="nodelabel cell_clk" s:attribute="ref">clk</text>
    <s:alias val="$_inputExt_"/>
    <path d="M0,0 L0,20 L15,20 L30,10 L15,0 Z" class="cell_clk"/>
    <g s:x="28" s:y="10" s:pid="Y"/>
  </g>
  <g s:type="inputExt" transform="translate(12,263.5)" s:width="30" s:height="20" id="cell_reset">
    <text x="15" y="-4" class="nodelabel cell_reset" s:attribute="ref">reset</text>
    <s:alias val="$_inputExt_"/>
    <path d="M0,0 L0,20 L15,20 L30,10 L15,0 Z" class="cell_reset"/>
    <g s:x="28" s:y="10" s:pid="Y"/>
  </g>
  <g s:type="outputExt" transform="translate(747,259.5)" s:width="30" s:height="20" id="cell_OneHertz">
    <text x="15" y="-4" class="nodelabel cell_OneHertz" s:attribute="ref">OneHertz</text>
    <s:alias val="$_outputExt_"/>
    <path d="M30,0 L30,20 L15,20 L0,10 L15,0 Z" class="cell_OneHertz"/>
    <g s:x="0" s:y="10" s:pid="A"/>
  </g>
  <g s:type="outputExt" transform="translate(747,51)" s:width="30" s:height="20" id="cell_c_enable">
    <text x="15" y="-4" class="nodelabel cell_c_enable" s:attribute="ref">c_enable</text>
    <s:alias val="$_outputExt_"/>
    <path d="M30,0 L30,20 L15,20 L0,10 L15,0 Z" class="cell_c_enable"/>
    <g s:x="0" s:y="10" s:pid="A"/>
  </g>
  <g s:type="constant" transform="translate(114,178.5)" s:width="30" s:height="20" id="cell_1001">
    <text x="15" y="-4" class="nodelabel cell_1001" s:attribute="ref">0x9</text>
    <s:alias val="$_constant_"/>
    <rect width="30" height="20" class="cell_1001"/>
    <g s:x="30" s:y="10" s:pid="Y"/>
  </g>
  <g s:type="constant" transform="translate(12,22)" s:width="30" s:height="20" id="cell_1">
    <text x="15" y="-4" class="nodelabel cell_1" s:attribute="ref">1</text>
    <s:alias val="$_constant_"/>
    <rect width="30" height="20" class="cell_1"/>
    <g s:x="30" s:y="10" s:pid="Y"/>
  </g>
  <g s:type="join" transform="translate(692,40.5)" s:width="4" s:height="40" id="cell_$join$,33,5,6,">
    <rect width="5" height="60" class="splitjoinBody" s:generic="body"/>
    <s:alias val="$_join_"/>
    <g s:x="5" s:y="20" s:pid="out"/>
    <g transform="translate(0,10)" s:x="0" s:y="10" s:pid="in0">
      <text x="-3" y="-4" class="inputPortLabel">0</text>
    </g>
    <g transform="translate(0,30)" s:x="0" s:y="10" s:pid="in0">
      <text x="-3" y="-4" class="inputPortLabel">1</text>
    </g>
    <g transform="translate(0,50)" s:x="0" s:y="10" s:pid="in0">
      <text x="-3" y="-4" class="inputPortLabel">2</text>
    </g>
  </g>
  <line x1="222" x2="412" y1="71" y2="71" class="net_5"/>
  <line x1="412" x2="412" y1="71" y2="166" class="net_5"/>
  <circle cx="412" cy="71" r="2" style="fill:#000" class="net_5"/>
  <line x1="412" x2="437" y1="166" y2="166" class="net_5"/>
  <line x1="222" x2="232" y1="71" y2="71" class="net_5"/>
  <line x1="232" x2="232" y1="71" y2="146" class="net_5"/>
  <circle cx="232" cy="71" r="2" style="fill:#000" class="net_5"/>
  <line x1="232" x2="294" y1="146" y2="146" class="net_5"/>
  <line x1="222" x2="692" y1="71" y2="71" class="net_5"/>
  <line x1="402" x2="437" y1="181" y2="181" class="net_7"/>
  <line x1="467" x2="657" y1="173.5" y2="173.5" class="net_6"/>
  <line x1="657" x2="657" y1="173.5" y2="262" class="net_6"/>
  <line x1="657" x2="682" y1="262" y2="262" class="net_6"/>
  <line x1="467" x2="477" y1="173.5" y2="173.5" class="net_6"/>
  <line x1="477" x2="477" y1="173.5" y2="228.5" class="net_6"/>
  <circle cx="477" cy="173.5" r="2" style="fill:#000" class="net_6"/>
  <line x1="477" x2="539" y1="228.5" y2="228.5" class="net_6"/>
  <line x1="467" x2="657" y1="173.5" y2="173.5" class="net_6"/>
  <line x1="657" x2="657" y1="173.5" y2="91" class="net_6"/>
  <circle cx="657" cy="173.5" r="2" style="fill:#000" class="net_6"/>
  <line x1="657" x2="692" y1="91" y2="91" class="net_6"/>
  <line x1="647" x2="682" y1="277" y2="277" class="net_8"/>
  <line x1="145" x2="200" y1="63.5" y2="63.5" class="net_9,10,11,12"/>
  <line x1="144" x2="172" y1="188.5" y2="188.5" class="net_21,22,23,24"/>
  <line x1="172" x2="172" y1="188.5" y2="78.5" class="net_21,22,23,24"/>
  <circle cx="172" cy="188.5" r="2" style="fill:#000" class="net_21,22,23,24"/>
  <line x1="172" x2="200" y1="78.5" y2="78.5" class="net_21,22,23,24"/>
  <line x1="144" x2="380" y1="188.5" y2="188.5" class="net_21,22,23,24"/>
  <line x1="144" x2="172" y1="188.5" y2="188.5" class="net_21,22,23,24"/>
  <line x1="172" x2="172" y1="188.5" y2="284.5" class="net_21,22,23,24"/>
  <line x1="172" x2="625" y1="284.5" y2="284.5" class="net_21,22,23,24"/>
  <line x1="325" x2="352" y1="126" y2="126" class="net_13,14,15,16"/>
  <line x1="352" x2="352" y1="126" y2="173.5" class="net_13,14,15,16"/>
  <line x1="352" x2="380" y1="173.5" y2="173.5" class="net_13,14,15,16"/>
  <line x1="570" x2="597" y1="208.5" y2="208.5" class="net_17,18,19,20"/>
  <line x1="597" x2="597" y1="208.5" y2="269.5" class="net_17,18,19,20"/>
  <line x1="597" x2="625" y1="269.5" y2="269.5" class="net_17,18,19,20"/>
  <line x1="40" x2="52" y1="208.5" y2="208.5" class="net_2"/>
  <line x1="52" x2="52" y1="208.5" y2="63.5" class="net_2"/>
  <circle cx="52" cy="208.5" r="2" style="fill:#000" class="net_2"/>
  <line x1="52" x2="114" y1="63.5" y2="63.5" class="net_2"/>
  <line x1="40" x2="52" y1="208.5" y2="208.5" class="net_2"/>
  <line x1="52" x2="52" y1="208.5" y2="126" class="net_2"/>
  <circle cx="52" cy="126" r="2" style="fill:#000" class="net_2"/>
  <line x1="52" x2="294" y1="126" y2="126" class="net_2"/>
  <line x1="40" x2="539" y1="208.5" y2="208.5" class="net_2"/>
  <line x1="42" x2="62" y1="32" y2="32" class="net_33"/>
  <line x1="62" x2="62" y1="32" y2="83.5" class="net_33"/>
  <circle cx="62" cy="32" r="2" style="fill:#000" class="net_33"/>
  <line x1="62" x2="114" y1="83.5" y2="83.5" class="net_33"/>
  <line x1="42" x2="657" y1="32" y2="32" class="net_33"/>
  <line x1="657" x2="657" y1="32" y2="51" class="net_33"/>
  <line x1="657" x2="692" y1="51" y2="51" class="net_33"/>
  <line x1="40" x2="62" y1="273.5" y2="273.5" class="net_3"/>
  <line x1="62" x2="62" y1="273.5" y2="103.5" class="net_3"/>
  <circle cx="62" cy="273.5" r="2" style="fill:#000" class="net_3"/>
  <line x1="62" x2="114" y1="103.5" y2="103.5" class="net_3"/>
  <line x1="40" x2="62" y1="273.5" y2="273.5" class="net_3"/>
  <line x1="62" x2="62" y1="273.5" y2="157.5" class="net_3"/>
  <line x1="62" x2="232" y1="157.5" y2="157.5" class="net_3"/>
  <line x1="232" x2="232" y1="157.5" y2="166" class="net_3"/>
  <circle cx="62" cy="157.5" r="2" style="fill:#000" class="net_3"/>
  <line x1="232" x2="294" y1="166" y2="166" class="net_3"/>
  <line x1="40" x2="477" y1="273.5" y2="273.5" class="net_3"/>
  <line x1="477" x2="477" y1="273.5" y2="248.5" class="net_3"/>
  <line x1="477" x2="539" y1="248.5" y2="248.5" class="net_3"/>
  <line x1="712" x2="747" y1="269.5" y2="269.5" class="net_4"/>
  <line x1="698" x2="747" y1="61" y2="61" class="net_33,5,6"/>
</svg>
