<?xml version="1.0" encoding="UTF-8" standalone="no"?>
<!DOCTYPE svg PUBLIC "-//W3C//DTD SVG 1.1//EN"
 "http://www.w3.org/Graphics/SVG/1.1/DTD/svg11.dtd">
<!-- Generated by graphviz version 4.0.0 (20220529.0937)
 -->
<!-- Title: top_module Pages: 1 -->
<svg width="1674pt" height="295pt"
 viewBox="0.00 0.00 1673.89 295.00" xmlns="http://www.w3.org/2000/svg" xmlns:xlink="http://www.w3.org/1999/xlink">
<g id="graph0" class="graph" transform="scale(1 1) rotate(0) translate(4 291)">
<title>top_module</title>
<polygon fill="white" stroke="transparent" points="-4,4 -4,-291 1669.89,-291 1669.89,4 -4,4"/>
<text text-anchor="middle" x="832.94" y="-7.8" font-family="Times New Roman,serif" font-size="14.00">top_module</text>
<!-- n2 -->
<g id="node1" class="node">
<title>n2</title>
<polygon fill="none" stroke="black" points="54,-215.54 54,-230.46 38.18,-241 15.82,-241 0,-230.46 0,-215.54 15.82,-205 38.18,-205 54,-215.54"/>
<text text-anchor="middle" x="27" y="-219.3" font-family="Times New Roman,serif" font-size="14.00">a</text>
</g>
<!-- x0 -->
<g id="node5" class="node">
<title>x0</title>
<path fill="none" stroke="black" d="M244,-186C244,-186 295,-186 295,-186 301,-186 307,-192 307,-198 307,-198 307,-210 307,-210 307,-216 301,-222 295,-222 295,-222 244,-222 244,-222 238,-222 232,-216 232,-210 232,-210 232,-198 232,-198 232,-192 238,-186 244,-186"/>
<text text-anchor="middle" x="269.5" y="-200.3" font-family="Times New Roman,serif" font-size="14.00">15:0 &#45; 15:0</text>
</g>
<!-- n2&#45;&gt;x0 -->
<g id="edge1" class="edge">
<title>n2:e&#45;&gt;x0:w</title>
<path fill="none" stroke="#d95f02" stroke-width="3" d="M54,-223C129.99,-223 150.62,-205.67 221.63,-204.11"/>
<polygon fill="#d95f02" stroke="#d95f02" stroke-width="3" points="222.04,-207.61 232,-204 221.96,-200.61 222.04,-207.61"/>
<text text-anchor="middle" x="87.5" y="-225.8" font-family="Times New Roman,serif" font-size="14.00" fill="#d95f02">&lt;16&gt;</text>
</g>
<!-- x3 -->
<g id="node6" class="node">
<title>x3</title>
<path fill="none" stroke="black" d="M454,-236C454,-236 512,-236 512,-236 518,-236 524,-242 524,-248 524,-248 524,-260 524,-260 524,-266 518,-272 512,-272 512,-272 454,-272 454,-272 448,-272 442,-266 442,-260 442,-260 442,-248 442,-248 442,-242 448,-236 454,-236"/>
<text text-anchor="middle" x="483" y="-250.3" font-family="Times New Roman,serif" font-size="14.00">31:16 &#45; 15:0</text>
</g>
<!-- n2&#45;&gt;x3 -->
<g id="edge2" class="edge">
<title>n2:e&#45;&gt;x3:w</title>
<path fill="none" stroke="#d95f02" stroke-width="3" d="M54,-223C65,-223 61.85,-235.74 72,-240 220.48,-302.31 275.09,-256.08 431.54,-254.07"/>
<polygon fill="#d95f02" stroke="#d95f02" stroke-width="3" points="432.02,-257.56 442,-254 431.98,-250.56 432.02,-257.56"/>
<text text-anchor="middle" x="167.5" y="-275.8" font-family="Times New Roman,serif" font-size="14.00" fill="#d95f02">&lt;16&gt;</text>
</g>
<!-- n3 -->
<g id="node2" class="node">
<title>n3</title>
<polygon fill="none" stroke="black" points="54,-142.54 54,-157.46 38.18,-168 15.82,-168 0,-157.46 0,-142.54 15.82,-132 38.18,-132 54,-142.54"/>
<text text-anchor="middle" x="27" y="-146.3" font-family="Times New Roman,serif" font-size="14.00">b</text>
</g>
<!-- c10 -->
<g id="node7" class="node">
<title>c10</title>
<polygon fill="none" stroke="black" points="121,-90 121,-128 214,-128 214,-90 121,-90"/>
<text text-anchor="middle" x="134" y="-105.3" font-family="Times New Roman,serif" font-size="14.00">A</text>
<polyline fill="none" stroke="black" points="147,-90 147,-128 "/>
<text text-anchor="middle" x="167.5" y="-112.8" font-family="Times New Roman,serif" font-size="14.00">$1</text>
<text text-anchor="middle" x="167.5" y="-97.8" font-family="Times New Roman,serif" font-size="14.00">$not</text>
<polyline fill="none" stroke="black" points="188,-90 188,-128 "/>
<text text-anchor="middle" x="201" y="-105.3" font-family="Times New Roman,serif" font-size="14.00">Y</text>
</g>
<!-- n3&#45;&gt;c10 -->
<g id="edge3" class="edge">
<title>n3:e&#45;&gt;c10:w</title>
<path fill="none" stroke="#1b9e77" stroke-width="3" d="M54,-150C64.13,-150 63.54,-141.57 72,-136 89.52,-124.46 94.66,-113.17 110.77,-109.93"/>
<polygon fill="#1b9e77" stroke="#1b9e77" stroke-width="3" points="111.36,-113.39 121,-109 110.73,-106.42 111.36,-113.39"/>
<text text-anchor="middle" x="87.5" y="-139.8" font-family="Times New Roman,serif" font-size="14.00" fill="#1b9e77">&lt;32&gt;</text>
</g>
<!-- c13 -->
<g id="node8" class="node">
<title>c13</title>
<polygon fill="none" stroke="black" points="325,-74.5 325,-143.5 424,-143.5 424,-74.5 325,-74.5"/>
<text text-anchor="middle" x="338" y="-128.3" font-family="Times New Roman,serif" font-size="14.00">A</text>
<polyline fill="none" stroke="black" points="325,-120.5 351,-120.5 "/>
<text text-anchor="middle" x="338" y="-105.3" font-family="Times New Roman,serif" font-size="14.00">B</text>
<polyline fill="none" stroke="black" points="325,-97.5 351,-97.5 "/>
<text text-anchor="middle" x="338" y="-82.3" font-family="Times New Roman,serif" font-size="14.00">S</text>
<polyline fill="none" stroke="black" points="351,-74.5 351,-143.5 "/>
<text text-anchor="middle" x="374.5" y="-112.8" font-family="Times New Roman,serif" font-size="14.00">$2</text>
<text text-anchor="middle" x="374.5" y="-97.8" font-family="Times New Roman,serif" font-size="14.00">$mux</text>
<polyline fill="none" stroke="black" points="398,-74.5 398,-143.5 "/>
<text text-anchor="middle" x="411" y="-105.3" font-family="Times New Roman,serif" font-size="14.00">Y</text>
</g>
<!-- n3&#45;&gt;c13 -->
<g id="edge4" class="edge">
<title>n3:e&#45;&gt;c13:w</title>
<path fill="none" stroke="#1b9e77" stroke-width="3" d="M54,-150C62.01,-150 63.99,-150.78 72,-151 85.77,-151.38 89.23,-151.59 103,-151 198.46,-146.92 224.19,-133.03 314.83,-132.05"/>
<polygon fill="#1b9e77" stroke="#1b9e77" stroke-width="3" points="315.02,-135.55 325,-132 314.98,-128.55 315.02,-135.55"/>
<text text-anchor="middle" x="167.5" y="-153.8" font-family="Times New Roman,serif" font-size="14.00" fill="#1b9e77">&lt;32&gt;</text>
</g>
<!-- n6 -->
<g id="node3" class="node">
<title>n6</title>
<polygon fill="none" stroke="black" points="54,-34.54 54,-49.46 38.18,-60 15.82,-60 0,-49.46 0,-34.54 15.82,-24 38.18,-24 54,-34.54"/>
<text text-anchor="middle" x="27" y="-38.3" font-family="Times New Roman,serif" font-size="14.00">sub</text>
</g>
<!-- n6&#45;&gt;c13 -->
<g id="edge8" class="edge">
<title>n6:e&#45;&gt;c13:w</title>
<path fill="none" stroke="#666666" d="M54,-42C172.57,-42 201.38,-83.54 314.86,-85.9"/>
<polygon fill="#666666" stroke="#666666" points="314.96,-89.4 325,-86 315.04,-82.4 314.96,-89.4"/>
</g>
<!-- c16 -->
<g id="node14" class="node">
<title>c16</title>
<polygon fill="none" stroke="black" points="882.89,-102.5 882.89,-171.5 1007.89,-171.5 1007.89,-102.5 882.89,-102.5"/>
<text text-anchor="middle" x="899.39" y="-156.3" font-family="Times New Roman,serif" font-size="14.00">a</text>
<polyline fill="none" stroke="black" points="882.89,-148.5 915.89,-148.5 "/>
<text text-anchor="middle" x="899.39" y="-133.3" font-family="Times New Roman,serif" font-size="14.00">b</text>
<polyline fill="none" stroke="black" points="882.89,-125.5 915.89,-125.5 "/>
<text text-anchor="middle" x="899.39" y="-110.3" font-family="Times New Roman,serif" font-size="14.00">cin</text>
<polyline fill="none" stroke="black" points="915.89,-102.5 915.89,-171.5 "/>
<text text-anchor="middle" x="941.39" y="-140.8" font-family="Times New Roman,serif" font-size="14.00">a1</text>
<text text-anchor="middle" x="941.39" y="-125.8" font-family="Times New Roman,serif" font-size="14.00">add16</text>
<polyline fill="none" stroke="black" points="966.89,-102.5 966.89,-171.5 "/>
<text text-anchor="middle" x="987.39" y="-150.8" font-family="Times New Roman,serif" font-size="14.00">cout</text>
<polyline fill="none" stroke="black" points="966.89,-137.5 1007.89,-137.5 "/>
<text text-anchor="middle" x="987.39" y="-116.3" font-family="Times New Roman,serif" font-size="14.00">sum</text>
</g>
<!-- n6&#45;&gt;c16 -->
<g id="edge9" class="edge">
<title>n6:e&#45;&gt;c16:w</title>
<path fill="none" stroke="#666666" d="M54,-42C54.79,-42 165.71,-23 166.5,-23 166.5,-23 166.5,-23 728.39,-23 795.97,-23 812.84,-46.89 864.89,-90 871.3,-95.32 871.52,-103.36 874.04,-108.65"/>
<polygon fill="#666666" stroke="#666666" points="872.52,-111.82 882.89,-114 876.14,-105.83 872.52,-111.82"/>
</g>
<!-- n7 -->
<g id="node4" class="node">
<title>n7</title>
<polygon fill="none" stroke="black" points="1666.03,-133.54 1666.03,-148.46 1649.46,-159 1626.04,-159 1609.47,-148.46 1609.47,-133.54 1626.04,-123 1649.46,-123 1666.03,-133.54"/>
<text text-anchor="middle" x="1637.75" y="-137.3" font-family="Times New Roman,serif" font-size="14.00">sum</text>
</g>
<!-- x0&#45;&gt;c16 -->
<g id="edge14" class="edge">
<title>x0:e&#45;&gt;c16:w</title>
<path fill="none" stroke="#d95f02" stroke-width="3" d="M319.37,-203.78C387.75,-201.23 407.67,-178 482,-178 482,-178 482,-178 728.39,-178 793.33,-178 811.59,-162.11 870.89,-160.19"/>
<polygon fill="none" stroke="#d95f02" stroke-width="3" points="319,-203.78 313.07,-207.89 307,-204 312.93,-199.89 319,-203.78"/>
<polygon fill="none" stroke="#d95f02" stroke-width="3" points="870.89,-160.19 876.82,-156.1 882.89,-160 876.95,-164.09 870.89,-160.19"/>
<text text-anchor="middle" x="582.44" y="-181.8" font-family="Times New Roman,serif" font-size="14.00" fill="#d95f02">&lt;16&gt;</text>
</g>
<!-- c17 -->
<g id="node13" class="node">
<title>c17</title>
<polygon fill="none" stroke="black" points="1268.61,-177.5 1268.61,-246.5 1393.61,-246.5 1393.61,-177.5 1268.61,-177.5"/>
<text text-anchor="middle" x="1285.11" y="-231.3" font-family="Times New Roman,serif" font-size="14.00">a</text>
<polyline fill="none" stroke="black" points="1268.61,-223.5 1301.61,-223.5 "/>
<text text-anchor="middle" x="1285.11" y="-208.3" font-family="Times New Roman,serif" font-size="14.00">b</text>
<polyline fill="none" stroke="black" points="1268.61,-200.5 1301.61,-200.5 "/>
<text text-anchor="middle" x="1285.11" y="-185.3" font-family="Times New Roman,serif" font-size="14.00">cin</text>
<polyline fill="none" stroke="black" points="1301.61,-177.5 1301.61,-246.5 "/>
<text text-anchor="middle" x="1327.11" y="-215.8" font-family="Times New Roman,serif" font-size="14.00">a2</text>
<text text-anchor="middle" x="1327.11" y="-200.8" font-family="Times New Roman,serif" font-size="14.00">add16</text>
<polyline fill="none" stroke="black" points="1352.61,-177.5 1352.61,-246.5 "/>
<text text-anchor="middle" x="1373.11" y="-225.8" font-family="Times New Roman,serif" font-size="14.00">cout</text>
<polyline fill="none" stroke="black" points="1352.61,-212.5 1393.61,-212.5 "/>
<text text-anchor="middle" x="1373.11" y="-191.3" font-family="Times New Roman,serif" font-size="14.00">sum</text>
</g>
<!-- x3&#45;&gt;c17 -->
<g id="edge19" class="edge">
<title>x3:e&#45;&gt;c17:w</title>
<path fill="none" stroke="#e6ab02" stroke-width="3" d="M536.01,-254C584.73,-254 601.21,-254 655.39,-254 655.39,-254 655.39,-254 1117.25,-254 1180.81,-254 1198.64,-237.3 1256.48,-235.21"/>
<polygon fill="none" stroke="#e6ab02" stroke-width="3" points="536,-254 530,-258 524,-254 530,-250 536,-254"/>
<polygon fill="none" stroke="#e6ab02" stroke-width="3" points="1256.61,-235.21 1262.54,-231.11 1268.61,-235 1262.68,-239.1 1256.61,-235.21"/>
<text text-anchor="middle" x="823.89" y="-257.8" font-family="Times New Roman,serif" font-size="14.00" fill="#e6ab02">&lt;16&gt;</text>
</g>
<!-- c10&#45;&gt;c13 -->
<g id="edge10" class="edge">
<title>c10:e&#45;&gt;c13:w</title>
<path fill="none" stroke="#d95f02" stroke-width="3" d="M214,-109C259.77,-109 273.69,-109 314.86,-109"/>
<polygon fill="#d95f02" stroke="#d95f02" stroke-width="3" points="315,-112.5 325,-109 315,-105.5 315,-112.5"/>
<text text-anchor="middle" x="269.5" y="-112.8" font-family="Times New Roman,serif" font-size="14.00" fill="#d95f02">&lt;32&gt;</text>
</g>
<!-- n4 -->
<g id="node9" class="node">
<title>n4</title>
<polygon fill="none" stroke="black" points="582.44,-127 542.06,-109 582.44,-91 622.83,-109 582.44,-127"/>
<text text-anchor="middle" x="582.44" y="-105.3" font-family="Times New Roman,serif" font-size="14.00">bsub</text>
</g>
<!-- c13&#45;&gt;n4 -->
<g id="edge11" class="edge">
<title>c13:e&#45;&gt;n4:w</title>
<path fill="none" stroke="#1b9e77" stroke-width="3" d="M424,-109C472.86,-109 487.58,-109 531.77,-109"/>
<polygon fill="#1b9e77" stroke="#1b9e77" stroke-width="3" points="532,-112.5 542,-109 532,-105.5 532,-112.5"/>
<text text-anchor="middle" x="483" y="-112.8" font-family="Times New Roman,serif" font-size="14.00" fill="#1b9e77">&lt;16&gt;</text>
</g>
<!-- x1 -->
<g id="node10" class="node">
<title>x1</title>
<path fill="none" stroke="black" d="M701.89,-75C701.89,-75 752.89,-75 752.89,-75 758.89,-75 764.89,-81 764.89,-87 764.89,-87 764.89,-99 764.89,-99 764.89,-105 758.89,-111 752.89,-111 752.89,-111 701.89,-111 701.89,-111 695.89,-111 689.89,-105 689.89,-99 689.89,-99 689.89,-87 689.89,-87 689.89,-81 695.89,-75 701.89,-75"/>
<text text-anchor="middle" x="727.39" y="-89.3" font-family="Times New Roman,serif" font-size="14.00">15:0 &#45; 15:0</text>
</g>
<!-- n4&#45;&gt;x1 -->
<g id="edge5" class="edge">
<title>n4:e&#45;&gt;x1:w</title>
<path fill="none" stroke="#1b9e77" stroke-width="3" d="M622.89,-109C631.32,-109 632.74,-105.18 640.89,-103 658.67,-98.24 665.36,-94.51 679.76,-93.36"/>
<polygon fill="#1b9e77" stroke="#1b9e77" stroke-width="3" points="680.02,-96.86 689.89,-93 679.77,-89.86 680.02,-96.86"/>
<text text-anchor="middle" x="656.39" y="-106.8" font-family="Times New Roman,serif" font-size="14.00" fill="#1b9e77">&lt;16&gt;</text>
</g>
<!-- x4 -->
<g id="node11" class="node">
<title>x4</title>
<path fill="none" stroke="black" d="M794.89,-194C794.89,-194 852.89,-194 852.89,-194 858.89,-194 864.89,-200 864.89,-206 864.89,-206 864.89,-218 864.89,-218 864.89,-224 858.89,-230 852.89,-230 852.89,-230 794.89,-230 794.89,-230 788.89,-230 782.89,-224 782.89,-218 782.89,-218 782.89,-206 782.89,-206 782.89,-200 788.89,-194 794.89,-194"/>
<text text-anchor="middle" x="823.89" y="-208.3" font-family="Times New Roman,serif" font-size="14.00">31:16 &#45; 15:0</text>
</g>
<!-- n4&#45;&gt;x4 -->
<g id="edge6" class="edge">
<title>n4:e&#45;&gt;x4:w</title>
<path fill="none" stroke="#1b9e77" stroke-width="3" d="M622.89,-109C632.14,-109 739.6,-187.86 773.41,-207.57"/>
<polygon fill="#1b9e77" stroke="#1b9e77" stroke-width="3" points="772.34,-210.94 782.89,-212 775.31,-204.6 772.34,-210.94"/>
<text text-anchor="middle" x="656.39" y="-142.8" font-family="Times New Roman,serif" font-size="14.00" fill="#1b9e77">&lt;16&gt;</text>
</g>
<!-- x1&#45;&gt;c16 -->
<g id="edge15" class="edge">
<title>x1:e&#45;&gt;c16:w</title>
<path fill="none" stroke="#1b9e77" stroke-width="3" d="M777.14,-93.76C818.33,-99.12 829.49,-130.94 870.74,-136.25"/>
<polygon fill="none" stroke="#1b9e77" stroke-width="3" points="776.86,-93.75 770.63,-97.37 764.89,-93 771.12,-89.38 776.86,-93.75"/>
<polygon fill="none" stroke="#1b9e77" stroke-width="3" points="870.91,-136.26 877.14,-132.64 882.89,-137 876.65,-140.62 870.91,-136.26"/>
<text text-anchor="middle" x="823.89" y="-138.8" font-family="Times New Roman,serif" font-size="14.00" fill="#1b9e77">&lt;16&gt;</text>
</g>
<!-- x4&#45;&gt;c17 -->
<g id="edge20" class="edge">
<title>x4:e&#45;&gt;c17:w</title>
<path fill="none" stroke="#e6ab02" stroke-width="3" d="M877.03,-212C1042.48,-212 1091.03,-212 1256.49,-212"/>
<polygon fill="none" stroke="#e6ab02" stroke-width="3" points="876.89,-212 870.89,-216 864.89,-212 870.89,-208 876.89,-212"/>
<polygon fill="none" stroke="#e6ab02" stroke-width="3" points="1256.61,-212 1262.61,-208 1268.61,-212 1262.61,-216 1256.61,-212"/>
<text text-anchor="middle" x="1041.39" y="-215.8" font-family="Times New Roman,serif" font-size="14.00" fill="#e6ab02">&lt;16&gt;</text>
</g>
<!-- n5 -->
<g id="node12" class="node">
<title>n5</title>
<polygon fill="none" stroke="black" points="1116.25,-184 1075.02,-166 1116.25,-148 1157.47,-166 1116.25,-184"/>
<text text-anchor="middle" x="1116.25" y="-162.3" font-family="Times New Roman,serif" font-size="14.00">carry</text>
</g>
<!-- n5&#45;&gt;c17 -->
<g id="edge7" class="edge">
<title>n5:e&#45;&gt;c17:w</title>
<path fill="none" stroke="#7570b3" d="M1157.61,-166C1204.45,-166 1216.59,-185.88 1258.55,-188.67"/>
<polygon fill="#7570b3" stroke="#7570b3" points="1258.5,-192.18 1268.61,-189 1258.73,-185.18 1258.5,-192.18"/>
</g>
<!-- v5 -->
<g id="node16" class="node">
<title>v5</title>
<ellipse fill="none" stroke="black" cx="1501.61" cy="-230" rx="27" ry="18"/>
<text text-anchor="middle" x="1501.61" y="-226.3" font-family="Times New Roman,serif" font-size="14.00">v5</text>
</g>
<!-- c17&#45;&gt;v5 -->
<g id="edge17" class="edge">
<title>c17:e&#45;&gt;v5:w</title>
<path fill="none" stroke="#7570b3" d="M1393.61,-230C1425.55,-230 1435.97,-230 1463.55,-230"/>
<polygon fill="#7570b3" stroke="#7570b3" points="1463.61,-233.5 1473.61,-230 1463.61,-226.5 1463.61,-233.5"/>
</g>
<!-- x6 -->
<g id="node17" class="node">
<title>x6</title>
<path fill="none" stroke="black" d="M1472.61,-156C1472.61,-156 1530.61,-156 1530.61,-156 1536.61,-156 1542.61,-162 1542.61,-168 1542.61,-168 1542.61,-180 1542.61,-180 1542.61,-186 1536.61,-192 1530.61,-192 1530.61,-192 1472.61,-192 1472.61,-192 1466.61,-192 1460.61,-186 1460.61,-180 1460.61,-180 1460.61,-168 1460.61,-168 1460.61,-162 1466.61,-156 1472.61,-156"/>
<text text-anchor="middle" x="1501.61" y="-170.3" font-family="Times New Roman,serif" font-size="14.00">15:0 &#45; 31:16</text>
</g>
<!-- c17&#45;&gt;x6 -->
<g id="edge18" class="edge">
<title>c17:e&#45;&gt;x6:w</title>
<path fill="none" stroke="#d95f02" stroke-width="3" d="M1405.63,-193.81C1423.08,-190.13 1431.02,-178.96 1448.4,-175.23"/>
<polygon fill="none" stroke="#d95f02" stroke-width="3" points="1405.55,-193.82 1399.97,-198.39 1393.61,-195 1399.19,-190.43 1405.55,-193.82"/>
<polygon fill="none" stroke="#d95f02" stroke-width="3" points="1448.67,-175.2 1454.24,-170.62 1460.61,-174 1455.04,-178.58 1448.67,-175.2"/>
<text text-anchor="middle" x="1427.11" y="-194.8" font-family="Times New Roman,serif" font-size="14.00" fill="#d95f02">&lt;16&gt;</text>
</g>
<!-- c16&#45;&gt;n5 -->
<g id="edge12" class="edge">
<title>c16:e&#45;&gt;n5:w</title>
<path fill="none" stroke="#7570b3" d="M1007.89,-155C1034.41,-155 1042.75,-163.5 1064.87,-165.56"/>
<polygon fill="#7570b3" stroke="#7570b3" points="1064.74,-169.05 1074.89,-166 1065.05,-162.06 1064.74,-169.05"/>
</g>
<!-- x2 -->
<g id="node15" class="node">
<title>x2</title>
<path fill="none" stroke="black" d="M1187.61,-103C1187.61,-103 1238.61,-103 1238.61,-103 1244.61,-103 1250.61,-109 1250.61,-115 1250.61,-115 1250.61,-127 1250.61,-127 1250.61,-133 1244.61,-139 1238.61,-139 1238.61,-139 1187.61,-139 1187.61,-139 1181.61,-139 1175.61,-133 1175.61,-127 1175.61,-127 1175.61,-115 1175.61,-115 1175.61,-109 1181.61,-103 1187.61,-103"/>
<text text-anchor="middle" x="1213.11" y="-117.3" font-family="Times New Roman,serif" font-size="14.00">15:0 &#45; 15:0</text>
</g>
<!-- c16&#45;&gt;x2 -->
<g id="edge13" class="edge">
<title>c16:e&#45;&gt;x2:w</title>
<path fill="none" stroke="#1b9e77" stroke-width="3" d="M1020.03,-120.01C1080.8,-120.1 1102.63,-120.9 1163.36,-120.99"/>
<polygon fill="none" stroke="#1b9e77" stroke-width="3" points="1019.89,-120.01 1013.88,-124 1007.89,-120 1013.89,-116 1019.89,-120.01"/>
<polygon fill="none" stroke="#1b9e77" stroke-width="3" points="1163.61,-120.99 1169.61,-117 1175.61,-121 1169.61,-125 1163.61,-120.99"/>
<text text-anchor="middle" x="1041.39" y="-123.8" font-family="Times New Roman,serif" font-size="14.00" fill="#1b9e77">&lt;16&gt;</text>
</g>
<!-- x2&#45;&gt;n7 -->
<g id="edge16" class="edge">
<title>x2:e&#45;&gt;n7:w</title>
<path fill="none" stroke="#a6761d" stroke-width="3" d="M1250.61,-121C1406.98,-121 1448.06,-140.15 1599.47,-140.97"/>
<polygon fill="#a6761d" stroke="#a6761d" stroke-width="3" points="1599.6,-144.47 1609.61,-141 1599.62,-137.47 1599.6,-144.47"/>
<text text-anchor="middle" x="1427.11" y="-135.8" font-family="Times New Roman,serif" font-size="14.00" fill="#a6761d">&lt;16&gt;</text>
</g>
<!-- x6&#45;&gt;n7 -->
<g id="edge21" class="edge">
<title>x6:e&#45;&gt;n7:w</title>
<path fill="none" stroke="#a6761d" stroke-width="3" d="M1542.61,-174C1572.04,-174 1575.86,-148.05 1599.49,-142.17"/>
<polygon fill="#a6761d" stroke="#a6761d" stroke-width="3" points="1600.08,-145.63 1609.61,-141 1599.27,-138.68 1600.08,-145.63"/>
<text text-anchor="middle" x="1576.11" y="-172.8" font-family="Times New Roman,serif" font-size="14.00" fill="#a6761d">&lt;16&gt;</text>
</g>
</g>
</svg>
