<svg xmlns="http://www.w3.org/2000/svg" xmlns:xlink="http://www.w3.org/1999/xlink" xmlns:s="https://github.com/nturley/netlistsvg" width="824" height="802">
  <style>svg {
    stroke:#000;
    fill:none;
  }
  text {
    fill:#000;
    stroke:none;
    font-size:10px;
    font-weight: bold;
    font-family: "Courier New", monospace;
  }
  .nodelabel {
    text-anchor: middle;
  }
  .inputPortLabel {
    text-anchor: end;
  }
  .splitjoinBody {
    fill:#000;
  }</style>
  <g s:type="generic" transform="translate(293,202)" s:width="30" s:height="40" id="cell_$auto$opt_reduce.cc:128:opt_mux$14">
    <text x="15" y="-4" class="nodelabel cell_$auto$opt_reduce.cc:128:opt_mux$14" s:attribute="ref">$reduce_or</text>
    <rect width="30" height="20" s:generic="body" class="cell_$auto$opt_reduce.cc:128:opt_mux$14"/>
    <g transform="translate(0,10)" s:x="0" s:y="10" s:pid="in0" id="port_$auto$opt_reduce.cc:128:opt_mux$14~A">
      <text x="-3" y="-4" class="inputPortLabel cell_$auto$opt_reduce.cc:128:opt_mux$14">A</text>
    </g>
    <g transform="translate(30,10)" s:x="30" s:y="10" s:pid="out0" id="port_$auto$opt_reduce.cc:128:opt_mux$14~Y">
      <text x="5" y="-4" style="fill:#000; stroke:none" class="cell_$auto$opt_reduce.cc:128:opt_mux$14">Y</text>
    </g>
  </g>
  <g s:type="generic" transform="translate(293,332)" s:width="30" s:height="40" id="cell_$auto$opt_reduce.cc:128:opt_mux$16">
    <text x="15" y="-4" class="nodelabel cell_$auto$opt_reduce.cc:128:opt_mux$16" s:attribute="ref">$reduce_or</text>
    <rect width="30" height="20" s:generic="body" class="cell_$auto$opt_reduce.cc:128:opt_mux$16"/>
    <g transform="translate(0,10)" s:x="0" s:y="10" s:pid="in0" id="port_$auto$opt_reduce.cc:128:opt_mux$16~A">
      <text x="-3" y="-4" class="inputPortLabel cell_$auto$opt_reduce.cc:128:opt_mux$16">A</text>
    </g>
    <g transform="translate(30,10)" s:x="30" s:y="10" s:pid="out0" id="port_$auto$opt_reduce.cc:128:opt_mux$16~Y">
      <text x="5" y="-4" style="fill:#000; stroke:none" class="cell_$auto$opt_reduce.cc:128:opt_mux$16">Y</text>
    </g>
  </g>
  <g s:type="generic" transform="translate(293,557)" s:width="30" s:height="40" id="cell_$auto$opt_reduce.cc:128:opt_mux$18">
    <text x="15" y="-4" class="nodelabel cell_$auto$opt_reduce.cc:128:opt_mux$18" s:attribute="ref">$reduce_or</text>
    <rect width="30" height="20" s:generic="body" class="cell_$auto$opt_reduce.cc:128:opt_mux$18"/>
    <g transform="translate(0,10)" s:x="0" s:y="10" s:pid="in0" id="port_$auto$opt_reduce.cc:128:opt_mux$18~A">
      <text x="-3" y="-4" class="inputPortLabel cell_$auto$opt_reduce.cc:128:opt_mux$18">A</text>
    </g>
    <g transform="translate(30,10)" s:x="30" s:y="10" s:pid="out0" id="port_$auto$opt_reduce.cc:128:opt_mux$18~Y">
      <text x="5" y="-4" style="fill:#000; stroke:none" class="cell_$auto$opt_reduce.cc:128:opt_mux$18">Y</text>
    </g>
  </g>
  <g s:type="generic" transform="translate(293,687)" s:width="30" s:height="40" id="cell_$auto$opt_reduce.cc:128:opt_mux$20">
    <text x="15" y="-4" class="nodelabel cell_$auto$opt_reduce.cc:128:opt_mux$20" s:attribute="ref">$reduce_or</text>
    <rect width="30" height="20" s:generic="body" class="cell_$auto$opt_reduce.cc:128:opt_mux$20"/>
    <g transform="translate(0,10)" s:x="0" s:y="10" s:pid="in0" id="port_$auto$opt_reduce.cc:128:opt_mux$20~A">
      <text x="-3" y="-4" class="inputPortLabel cell_$auto$opt_reduce.cc:128:opt_mux$20">A</text>
    </g>
    <g transform="translate(30,10)" s:x="30" s:y="10" s:pid="out0" id="port_$auto$opt_reduce.cc:128:opt_mux$20~Y">
      <text x="5" y="-4" style="fill:#000; stroke:none" class="cell_$auto$opt_reduce.cc:128:opt_mux$20">Y</text>
    </g>
  </g>
  <g s:type="generic" transform="translate(671,106)" s:width="30" s:height="40" id="cell_$procdff$13">
    <text x="15" y="-4" class="nodelabel cell_$procdff$13" s:attribute="ref">$adff</text>
    <rect width="30" height="60" s:generic="body" class="cell_$procdff$13"/>
    <g transform="translate(0,10)" s:x="0" s:y="10" s:pid="in0" id="port_$procdff$13~ARST">
      <text x="-3" y="-4" class="inputPortLabel cell_$procdff$13">ARST</text>
    </g>
    <g transform="translate(0,30)" s:x="0" s:y="10" s:pid="in0" id="port_$procdff$13~CLK">
      <text x="-3" y="-4" class="inputPortLabel cell_$procdff$13">CLK</text>
    </g>
    <g transform="translate(0,50)" s:x="0" s:y="10" s:pid="in0" id="port_$procdff$13~D">
      <text x="-3" y="-4" class="inputPortLabel cell_$procdff$13">D</text>
    </g>
    <g transform="translate(30,10)" s:x="30" s:y="10" s:pid="out0" id="port_$procdff$13~Q">
      <text x="5" y="-4" style="fill:#000; stroke:none" class="cell_$procdff$13">Q</text>
    </g>
  </g>
  <g s:type="eq" transform="translate(178,675)" s:width="25" s:height="25" id="cell_$procmux$10_CMP0">
    <s:alias val="$eq"/>
    <circle r="12.5" cx="12.5" cy="12.5" class="cell_$procmux$10_CMP0"/>
    <line x1="7.5" x2="17.5" y1="10" y2="10" class="cell_$procmux$10_CMP0"/>
    <line x1="7.5" x2="17.5" y1="15" y2="15" class="cell_$procmux$10_CMP0"/>
    <g s:x="3" s:y="5" s:pid="A"/>
    <g s:x="3" s:y="20" s:pid="B"/>
    <g s:x="25" s:y="12.5" s:pid="Y"/>
  </g>
  <g s:type="eq" transform="translate(178,740)" s:width="25" s:height="25" id="cell_$procmux$11_CMP0">
    <s:alias val="$eq"/>
    <circle r="12.5" cx="12.5" cy="12.5" class="cell_$procmux$11_CMP0"/>
    <line x1="7.5" x2="17.5" y1="10" y2="10" class="cell_$procmux$11_CMP0"/>
    <line x1="7.5" x2="17.5" y1="15" y2="15" class="cell_$procmux$11_CMP0"/>
    <g s:x="3" s:y="5" s:pid="A"/>
    <g s:x="3" s:y="20" s:pid="B"/>
    <g s:x="25" s:y="12.5" s:pid="Y"/>
  </g>
  <g s:type="not" transform="translate(376.5,770)" s:width="30" s:height="20" id="cell_$procmux$12_CMP0">
    <s:alias val="$_NOT_"/>
    <s:alias val="$not"/>
    <s:alias val="$logic_not"/>
    <path d="M0,0 L0,20 L20,10 Z" class="cell_$procmux$12_CMP0"/>
    <circle cx="23" cy="10" r="3" class="cell_$procmux$12_CMP0"/>
    <g s:x="0" s:y="10" s:pid="A"/>
    <g s:x="25" s:y="10" s:pid="Y"/>
  </g>
  <g s:type="mux" transform="translate(585,190)" s:width="20" s:height="40" id="cell_$procmux$3">
    <s:alias val="$pmux"/>
    <s:alias val="$mux"/>
    <s:alias val="$_MUX_"/>
    <path d="M0,0 L20,10 L20,30 L0,40 Z" class="cell_$procmux$3"/>
    <g s:x="0" s:y="10" s:pid="A"/>
    <g s:x="0" s:y="30" s:pid="B"/>
    <g s:x="10" s:y="35" s:pid="S"/>
    <g s:x="20" s:y="20" s:pid="Y"/>
  </g>
  <g s:type="eq" transform="translate(178,190)" s:width="25" s:height="25" id="cell_$procmux$4_CMP0">
    <s:alias val="$eq"/>
    <circle r="12.5" cx="12.5" cy="12.5" class="cell_$procmux$4_CMP0"/>
    <line x1="7.5" x2="17.5" y1="10" y2="10" class="cell_$procmux$4_CMP0"/>
    <line x1="7.5" x2="17.5" y1="15" y2="15" class="cell_$procmux$4_CMP0"/>
    <g s:x="3" s:y="5" s:pid="A"/>
    <g s:x="3" s:y="20" s:pid="B"/>
    <g s:x="25" s:y="12.5" s:pid="Y"/>
  </g>
  <g s:type="eq" transform="translate(178,255)" s:width="25" s:height="25" id="cell_$procmux$5_CMP0">
    <s:alias val="$eq"/>
    <circle r="12.5" cx="12.5" cy="12.5" class="cell_$procmux$5_CMP0"/>
    <line x1="7.5" x2="17.5" y1="10" y2="10" class="cell_$procmux$5_CMP0"/>
    <line x1="7.5" x2="17.5" y1="15" y2="15" class="cell_$procmux$5_CMP0"/>
    <g s:x="3" s:y="5" s:pid="A"/>
    <g s:x="3" s:y="20" s:pid="B"/>
    <g s:x="25" s:y="12.5" s:pid="Y"/>
  </g>
  <g s:type="eq" transform="translate(178,320)" s:width="25" s:height="25" id="cell_$procmux$6_CMP0">
    <s:alias val="$eq"/>
    <circle r="12.5" cx="12.5" cy="12.5" class="cell_$procmux$6_CMP0"/>
    <line x1="7.5" x2="17.5" y1="10" y2="10" class="cell_$procmux$6_CMP0"/>
    <line x1="7.5" x2="17.5" y1="15" y2="15" class="cell_$procmux$6_CMP0"/>
    <g s:x="3" s:y="5" s:pid="A"/>
    <g s:x="3" s:y="20" s:pid="B"/>
    <g s:x="25" s:y="12.5" s:pid="Y"/>
  </g>
  <g s:type="eq" transform="translate(178,545)" s:width="25" s:height="25" id="cell_$procmux$7_CMP0">
    <s:alias val="$eq"/>
    <circle r="12.5" cx="12.5" cy="12.5" class="cell_$procmux$7_CMP0"/>
    <line x1="7.5" x2="17.5" y1="10" y2="10" class="cell_$procmux$7_CMP0"/>
    <line x1="7.5" x2="17.5" y1="15" y2="15" class="cell_$procmux$7_CMP0"/>
    <g s:x="3" s:y="5" s:pid="A"/>
    <g s:x="3" s:y="20" s:pid="B"/>
    <g s:x="25" s:y="12.5" s:pid="Y"/>
  </g>
  <g s:type="eq" transform="translate(178,400.5)" s:width="25" s:height="25" id="cell_$procmux$8_CMP0">
    <s:alias val="$eq"/>
    <circle r="12.5" cx="12.5" cy="12.5" class="cell_$procmux$8_CMP0"/>
    <line x1="7.5" x2="17.5" y1="10" y2="10" class="cell_$procmux$8_CMP0"/>
    <line x1="7.5" x2="17.5" y1="15" y2="15" class="cell_$procmux$8_CMP0"/>
    <g s:x="3" s:y="5" s:pid="A"/>
    <g s:x="3" s:y="20" s:pid="B"/>
    <g s:x="25" s:y="12.5" s:pid="Y"/>
  </g>
  <g s:type="eq" transform="translate(178,610)" s:width="25" s:height="25" id="cell_$procmux$9_CMP0">
    <s:alias val="$eq"/>
    <circle r="12.5" cx="12.5" cy="12.5" class="cell_$procmux$9_CMP0"/>
    <line x1="7.5" x2="17.5" y1="10" y2="10" class="cell_$procmux$9_CMP0"/>
    <line x1="7.5" x2="17.5" y1="15" y2="15" class="cell_$procmux$9_CMP0"/>
    <g s:x="3" s:y="5" s:pid="A"/>
    <g s:x="3" s:y="20" s:pid="B"/>
    <g s:x="25" s:y="12.5" s:pid="Y"/>
  </g>
  <g s:type="inputExt" transform="translate(575,126.5)" s:width="30" s:height="20" id="cell_clk">
    <text x="15" y="-4" class="nodelabel cell_clk" s:attribute="ref">clk</text>
    <s:alias val="$_inputExt_"/>
    <path d="M0,0 L0,20 L15,20 L30,10 L15,0 Z" class="cell_clk"/>
    <g s:x="28" s:y="10" s:pid="Y"/>
  </g>
  <g s:type="inputExt" transform="translate(575,61.5)" s:width="30" s:height="20" id="cell_areset">
    <text x="15" y="-4" class="nodelabel cell_areset" s:attribute="ref">areset</text>
    <s:alias val="$_inputExt_"/>
    <path d="M0,0 L0,20 L15,20 L30,10 L15,0 Z" class="cell_areset"/>
    <g s:x="28" s:y="10" s:pid="Y"/>
  </g>
  <g s:type="inputExt" transform="translate(12,770)" s:width="30" s:height="20" id="cell_train_valid">
    <text x="15" y="-4" class="nodelabel cell_train_valid" s:attribute="ref">train_valid</text>
    <s:alias val="$_inputExt_"/>
    <path d="M0,0 L0,20 L15,20 L30,10 L15,0 Z" class="cell_train_valid"/>
    <g s:x="28" s:y="10" s:pid="Y"/>
  </g>
  <g s:type="inputExt" transform="translate(12,405.5)" s:width="30" s:height="20" id="cell_train_taken">
    <text x="15" y="-4" class="nodelabel cell_train_taken" s:attribute="ref">train_taken</text>
    <s:alias val="$_inputExt_"/>
    <path d="M0,0 L0,20 L15,20 L30,10 L15,0 Z" class="cell_train_taken"/>
    <g s:x="28" s:y="10" s:pid="Y"/>
  </g>
  <g s:type="outputExt" transform="translate(772,106.5)" s:width="30" s:height="20" id="cell_state">
    <text x="15" y="-4" class="nodelabel cell_state" s:attribute="ref">state</text>
    <s:alias val="$_outputExt_"/>
    <path d="M30,0 L30,20 L15,20 L0,10 L15,0 Z" class="cell_state"/>
    <g s:x="0" s:y="10" s:pid="A"/>
  </g>
  <g s:type="constant" transform="translate(113,685)" s:width="30" s:height="20" id="cell_1001">
    <text x="15" y="-4" class="nodelabel cell_1001" s:attribute="ref">0x9</text>
    <s:alias val="$_constant_"/>
    <rect width="30" height="20" class="cell_1001"/>
    <g s:x="30" s:y="10" s:pid="Y"/>
  </g>
  <g s:type="constant" transform="translate(113,750)" s:width="30" s:height="20" id="cell_1000">
    <text x="15" y="-4" class="nodelabel cell_1000" s:attribute="ref">0x8</text>
    <s:alias val="$_constant_"/>
    <rect width="30" height="20" class="cell_1000"/>
    <g s:x="30" s:y="10" s:pid="Y"/>
  </g>
  <g s:type="constant" transform="translate(671,22)" s:width="30" s:height="20" id="cell_00011011">
    <text x="15" y="-4" class="nodelabel cell_00011011" s:attribute="ref">0x1b</text>
    <s:alias val="$_constant_"/>
    <rect width="30" height="20" class="cell_00011011"/>
    <g s:x="30" s:y="10" s:pid="Y"/>
  </g>
  <g s:type="constant" transform="translate(113,200)" s:width="30" s:height="20" id="cell_1111">
    <text x="15" y="-4" class="nodelabel cell_1111" s:attribute="ref">0xf</text>
    <s:alias val="$_constant_"/>
    <rect width="30" height="20" class="cell_1111"/>
    <g s:x="30" s:y="10" s:pid="Y"/>
  </g>
  <g s:type="constant" transform="translate(113,265)" s:width="30" s:height="20" id="cell_1110">
    <text x="15" y="-4" class="nodelabel cell_1110" s:attribute="ref">0xe</text>
    <s:alias val="$_constant_"/>
    <rect width="30" height="20" class="cell_1110"/>
    <g s:x="30" s:y="10" s:pid="Y"/>
  </g>
  <g s:type="constant" transform="translate(113,330)" s:width="30" s:height="20" id="cell_1101">
    <text x="15" y="-4" class="nodelabel cell_1101" s:attribute="ref">0xd</text>
    <s:alias val="$_constant_"/>
    <rect width="30" height="20" class="cell_1101"/>
    <g s:x="30" s:y="10" s:pid="Y"/>
  </g>
  <g s:type="constant" transform="translate(113,555)" s:width="30" s:height="20" id="cell_1100">
    <text x="15" y="-4" class="nodelabel cell_1100" s:attribute="ref">0xc</text>
    <s:alias val="$_constant_"/>
    <rect width="30" height="20" class="cell_1100"/>
    <g s:x="30" s:y="10" s:pid="Y"/>
  </g>
  <g s:type="constant" transform="translate(113,490)" s:width="30" s:height="20" id="cell_1011">
    <text x="15" y="-4" class="nodelabel cell_1011" s:attribute="ref">0xb</text>
    <s:alias val="$_constant_"/>
    <rect width="30" height="20" class="cell_1011"/>
    <g s:x="30" s:y="10" s:pid="Y"/>
  </g>
  <g s:type="constant" transform="translate(113,620)" s:width="30" s:height="20" id="cell_1010">
    <text x="15" y="-4" class="nodelabel cell_1010" s:attribute="ref">0xa</text>
    <s:alias val="$_constant_"/>
    <rect width="30" height="20" class="cell_1010"/>
    <g s:x="30" s:y="10" s:pid="Y"/>
  </g>
  <g s:type="join" transform="translate(245,192)" s:width="4" s:height="40" id="cell_$join$,8,9,">
    <rect width="5" height="40" class="splitjoinBody" s:generic="body"/>
    <s:alias val="$_join_"/>
    <g s:x="5" s:y="20" s:pid="out"/>
    <g transform="translate(0,10)" s:x="0" s:y="10" s:pid="in0">
      <text x="-3" y="-4" class="inputPortLabel">0</text>
    </g>
    <g transform="translate(0,30)" s:x="0" s:y="10" s:pid="in0">
      <text x="-3" y="-4" class="inputPortLabel">1</text>
    </g>
  </g>
  <g s:type="join" transform="translate(245,322)" s:width="4" s:height="40" id="cell_$join$,11,12,">
    <rect width="5" height="40" class="splitjoinBody" s:generic="body"/>
    <s:alias val="$_join_"/>
    <g s:x="5" s:y="20" s:pid="out"/>
    <g transform="translate(0,10)" s:x="0" s:y="10" s:pid="in0">
      <text x="-3" y="-4" class="inputPortLabel">0</text>
    </g>
    <g transform="translate(0,30)" s:x="0" s:y="10" s:pid="in0">
      <text x="-3" y="-4" class="inputPortLabel">1</text>
    </g>
  </g>
  <g s:type="join" transform="translate(245,547)" s:width="4" s:height="40" id="cell_$join$,14,15,">
    <rect width="5" height="40" class="splitjoinBody" s:generic="body"/>
    <s:alias val="$_join_"/>
    <g s:x="5" s:y="20" s:pid="out"/>
    <g transform="translate(0,10)" s:x="0" s:y="10" s:pid="in0">
      <text x="-3" y="-4" class="inputPortLabel">0</text>
    </g>
    <g transform="translate(0,30)" s:x="0" s:y="10" s:pid="in0">
      <text x="-3" y="-4" class="inputPortLabel">1</text>
    </g>
  </g>
  <g s:type="join" transform="translate(245,677)" s:width="4" s:height="40" id="cell_$join$,17,18,">
    <rect width="5" height="40" class="splitjoinBody" s:generic="body"/>
    <s:alias val="$_join_"/>
    <g s:x="5" s:y="20" s:pid="out"/>
    <g transform="translate(0,10)" s:x="0" s:y="10" s:pid="in0">
      <text x="-3" y="-4" class="inputPortLabel">0</text>
    </g>
    <g transform="translate(0,30)" s:x="0" s:y="10" s:pid="in0">
      <text x="-3" y="-4" class="inputPortLabel">1</text>
    </g>
  </g>
  <g s:type="join" transform="translate(132,385)" s:width="4" s:height="40" id="cell_$join$,6,7,5,4,">
    <rect width="5" height="60" class="splitjoinBody" s:generic="body"/>
    <s:alias val="$_join_"/>
    <g s:x="5" s:y="20" s:pid="out"/>
    <g transform="translate(0,10)" s:x="0" s:y="10" s:pid="in0">
      <text x="-3" y="-4" class="inputPortLabel">0:1</text>
    </g>
    <g transform="translate(0,30)" s:x="0" s:y="10" s:pid="in0">
      <text x="-3" y="-4" class="inputPortLabel">2</text>
    </g>
    <g transform="translate(0,50)" s:x="0" s:y="10" s:pid="in0">
      <text x="-3" y="-4" class="inputPortLabel">3</text>
    </g>
  </g>
  <g s:type="join" transform="translate(791,21.5)" s:width="4" s:height="40" id="cell_$join$,31,32,33,34,35,36,37,38,6,7,">
    <rect width="5" height="40" class="splitjoinBody" s:generic="body"/>
    <s:alias val="$_join_"/>
    <g s:x="5" s:y="20" s:pid="out"/>
    <g transform="translate(0,10)" s:x="0" s:y="10" s:pid="in0">
      <text x="-3" y="-4" class="inputPortLabel">0:7</text>
    </g>
    <g transform="translate(0,30)" s:x="0" s:y="10" s:pid="in0">
      <text x="-3" y="-4" class="inputPortLabel">8:9</text>
    </g>
  </g>
  <g s:type="join" transform="translate(532,517)" s:width="4" s:height="40" id="cell_$join$,10,13,16,19,22,">
    <rect width="5" height="100" class="splitjoinBody" s:generic="body"/>
    <s:alias val="$_join_"/>
    <g s:x="5" s:y="20" s:pid="out"/>
    <g transform="translate(0,10)" s:x="0" s:y="10" s:pid="in0">
      <text x="-3" y="-4" class="inputPortLabel">0</text>
    </g>
    <g transform="translate(0,30)" s:x="0" s:y="10" s:pid="in0">
      <text x="-3" y="-4" class="inputPortLabel">1</text>
    </g>
    <g transform="translate(0,50)" s:x="0" s:y="10" s:pid="in0">
      <text x="-3" y="-4" class="inputPortLabel">2</text>
    </g>
    <g transform="translate(0,70)" s:x="0" s:y="10" s:pid="in0">
      <text x="-3" y="-4" class="inputPortLabel">3</text>
    </g>
    <g transform="translate(0,90)" s:x="0" s:y="10" s:pid="in0">
      <text x="-3" y="-4" class="inputPortLabel">4</text>
    </g>
  </g>
  <line x1="251" x2="293" y1="212.5" y2="212.5" class="net_8,9"/>
  <line x1="251" x2="293" y1="342.5" y2="342.5" class="net_11,12"/>
  <line x1="251" x2="293" y1="567.5" y2="567.5" class="net_14,15"/>
  <line x1="251" x2="293" y1="697.5" y2="697.5" class="net_17,18"/>
  <line x1="603" x2="621" y1="71.5" y2="71.5" class="net_3"/>
  <line x1="621" x2="621" y1="71.5" y2="116.5" class="net_3"/>
  <line x1="621" x2="671" y1="116.5" y2="116.5" class="net_3"/>
  <line x1="603" x2="671" y1="136.5" y2="136.5" class="net_2"/>
  <line x1="605" x2="621" y1="210" y2="210" class="net_20,21"/>
  <line x1="621" x2="621" y1="210" y2="156.5" class="net_20,21"/>
  <line x1="621" x2="671" y1="156.5" y2="156.5" class="net_20,21"/>
  <line x1="138" x2="163" y1="405.5" y2="405.5" class="net_6,7,5,4"/>
  <line x1="163" x2="163" y1="405.5" y2="680" class="net_6,7,5,4"/>
  <circle cx="163" cy="405.5" r="2" style="fill:#000" class="net_6,7,5,4"/>
  <circle cx="163" cy="680" r="2" style="fill:#000" class="net_6,7,5,4"/>
  <line x1="163" x2="181" y1="680" y2="680" class="net_6,7,5,4"/>
  <line x1="138" x2="163" y1="405.5" y2="405.5" class="net_6,7,5,4"/>
  <line x1="163" x2="163" y1="405.5" y2="745" class="net_6,7,5,4"/>
  <line x1="163" x2="181" y1="745" y2="745" class="net_6,7,5,4"/>
  <line x1="138" x2="163" y1="405.5" y2="405.5" class="net_6,7,5,4"/>
  <line x1="163" x2="163" y1="405.5" y2="195" class="net_6,7,5,4"/>
  <line x1="163" x2="181" y1="195" y2="195" class="net_6,7,5,4"/>
  <line x1="138" x2="163" y1="405.5" y2="405.5" class="net_6,7,5,4"/>
  <line x1="163" x2="163" y1="405.5" y2="260" class="net_6,7,5,4"/>
  <circle cx="163" cy="260" r="2" style="fill:#000" class="net_6,7,5,4"/>
  <line x1="163" x2="181" y1="260" y2="260" class="net_6,7,5,4"/>
  <line x1="138" x2="163" y1="405.5" y2="405.5" class="net_6,7,5,4"/>
  <line x1="163" x2="163" y1="405.5" y2="325" class="net_6,7,5,4"/>
  <circle cx="163" cy="325" r="2" style="fill:#000" class="net_6,7,5,4"/>
  <line x1="163" x2="181" y1="325" y2="325" class="net_6,7,5,4"/>
  <line x1="138" x2="163" y1="405.5" y2="405.5" class="net_6,7,5,4"/>
  <line x1="163" x2="163" y1="405.5" y2="550" class="net_6,7,5,4"/>
  <circle cx="163" cy="550" r="2" style="fill:#000" class="net_6,7,5,4"/>
  <line x1="163" x2="181" y1="550" y2="550" class="net_6,7,5,4"/>
  <line x1="138" x2="181" y1="405.5" y2="405.5" class="net_6,7,5,4"/>
  <line x1="138" x2="163" y1="405.5" y2="405.5" class="net_6,7,5,4"/>
  <line x1="163" x2="163" y1="405.5" y2="615" class="net_6,7,5,4"/>
  <circle cx="163" cy="615" r="2" style="fill:#000" class="net_6,7,5,4"/>
  <line x1="163" x2="181" y1="615" y2="615" class="net_6,7,5,4"/>
  <line x1="143" x2="181" y1="695" y2="695" class="net_23,24,25,26"/>
  <line x1="143" x2="181" y1="760" y2="760" class="net_27,28,29,30"/>
  <line x1="40" x2="376.5" y1="780" y2="780" class="net_4"/>
  <line x1="40" x2="88" y1="780" y2="780" class="net_4"/>
  <line x1="88" x2="88" y1="780" y2="435.5" class="net_4"/>
  <circle cx="88" cy="780" r="2" style="fill:#000" class="net_4"/>
  <line x1="88" x2="132" y1="435.5" y2="435.5" class="net_4"/>
  <line x1="797" x2="812" y1="42" y2="42" class="net_31,32,33,34,35,36,37,38,6,7"/>
  <line x1="812" x2="812" y1="42" y2="547.5" class="net_31,32,33,34,35,36,37,38,6,7"/>
  <line x1="812" x2="550" y1="547.5" y2="547.5" class="net_31,32,33,34,35,36,37,38,6,7"/>
  <line x1="550" x2="550" y1="547.5" y2="220" class="net_31,32,33,34,35,36,37,38,6,7"/>
  <line x1="550" x2="585" y1="220" y2="220" class="net_31,32,33,34,35,36,37,38,6,7"/>
  <line x1="538" x2="595" y1="537.5" y2="537.5" class="net_10,13,16,19,22"/>
  <line x1="595" x2="595" y1="537.5" y2="225" class="net_10,13,16,19,22"/>
  <line x1="143" x2="181" y1="210" y2="210" class="net_39,40,41,42"/>
  <line x1="143" x2="181" y1="275" y2="275" class="net_43,44,45,46"/>
  <line x1="143" x2="181" y1="340" y2="340" class="net_47,48,49,50"/>
  <line x1="143" x2="181" y1="565" y2="565" class="net_51,52,53,54"/>
  <line x1="143" x2="153" y1="500" y2="500" class="net_55,56,57,58"/>
  <line x1="153" x2="153" y1="500" y2="420.5" class="net_55,56,57,58"/>
  <line x1="153" x2="181" y1="420.5" y2="420.5" class="net_55,56,57,58"/>
  <line x1="143" x2="181" y1="630" y2="630" class="net_59,60,61,62"/>
  <line x1="702" x2="772" y1="116.5" y2="116.5" class="net_6,7"/>
  <line x1="702" x2="747" y1="116.5" y2="116.5" class="net_6,7"/>
  <line x1="747" x2="747" y1="116.5" y2="179" class="net_6,7"/>
  <line x1="747" x2="88" y1="179" y2="179" class="net_6,7"/>
  <line x1="88" x2="88" y1="179" y2="395.5" class="net_6,7"/>
  <line x1="88" x2="132" y1="395.5" y2="395.5" class="net_6,7"/>
  <line x1="702" x2="747" y1="116.5" y2="116.5" class="net_6,7"/>
  <line x1="747" x2="747" y1="116.5" y2="52" class="net_6,7"/>
  <circle cx="747" cy="116.5" r="2" style="fill:#000" class="net_6,7"/>
  <line x1="747" x2="791" y1="52" y2="52" class="net_6,7"/>
  <line x1="203" x2="245" y1="202.5" y2="202.5" class="net_8"/>
  <line x1="203" x2="213" y1="267.5" y2="267.5" class="net_9"/>
  <line x1="213" x2="213" y1="267.5" y2="222.5" class="net_9"/>
  <line x1="213" x2="245" y1="222.5" y2="222.5" class="net_9"/>
  <line x1="203" x2="245" y1="332.5" y2="332.5" class="net_11"/>
  <line x1="203" x2="213" y1="413" y2="413" class="net_12"/>
  <line x1="213" x2="213" y1="413" y2="352.5" class="net_12"/>
  <line x1="213" x2="245" y1="352.5" y2="352.5" class="net_12"/>
  <line x1="203" x2="245" y1="557.5" y2="557.5" class="net_14"/>
  <line x1="203" x2="213" y1="622.5" y2="622.5" class="net_15"/>
  <line x1="213" x2="213" y1="622.5" y2="577.5" class="net_15"/>
  <line x1="213" x2="245" y1="577.5" y2="577.5" class="net_15"/>
  <line x1="203" x2="245" y1="687.5" y2="687.5" class="net_17"/>
  <line x1="203" x2="213" y1="752.5" y2="752.5" class="net_18"/>
  <line x1="213" x2="213" y1="752.5" y2="707.5" class="net_18"/>
  <line x1="213" x2="245" y1="707.5" y2="707.5" class="net_18"/>
  <line x1="40" x2="132" y1="415.5" y2="415.5" class="net_5"/>
  <line x1="701" x2="791" y1="32" y2="32" class="net_31,32,33,34,35,36,37,38"/>
  <line x1="324" x2="532.5" y1="212.5" y2="212.5" class="net_10"/>
  <line x1="532.5" x2="532.5" y1="212.5" y2="527" class="net_10"/>
  <line x1="324" x2="507" y1="342.5" y2="342.5" class="net_13"/>
  <line x1="507" x2="507" y1="342.5" y2="547.5" class="net_13"/>
  <line x1="507" x2="532" y1="547.5" y2="547.5" class="net_13"/>
  <line x1="324" x2="532" y1="567.5" y2="567.5" class="net_16"/>
  <line x1="324" x2="507" y1="697.5" y2="697.5" class="net_19"/>
  <line x1="507" x2="507" y1="697.5" y2="587.5" class="net_19"/>
  <line x1="507" x2="532" y1="587.5" y2="587.5" class="net_19"/>
  <line x1="401.5" x2="532.5" y1="780" y2="780" class="net_22"/>
  <line x1="532.5" x2="532.5" y1="780" y2="608" class="net_22"/>
</svg>
