<svg xmlns="http://www.w3.org/2000/svg" xmlns:xlink="http://www.w3.org/1999/xlink" xmlns:s="https://github.com/nturley/netlistsvg" width="803" height="752">
  <style>svg {
    stroke:#000;
    fill:none;
  }
  text {
    fill:#000;
    stroke:none;
    font-size:10px;
    font-weight: bold;
    font-family: "Courier New", monospace;
  }
  .nodelabel {
    text-anchor: middle;
  }
  .inputPortLabel {
    text-anchor: end;
  }
  .splitjoinBody {
    fill:#000;
  }</style>
  <g s:type="generic" transform="translate(341,77)" s:width="30" s:height="40" id="cell_$auto$opt_reduce.cc:128:opt_mux$17">
    <text x="15" y="-4" class="nodelabel cell_$auto$opt_reduce.cc:128:opt_mux$17" s:attribute="ref">$reduce_or</text>
    <rect width="30" height="20" s:generic="body" class="cell_$auto$opt_reduce.cc:128:opt_mux$17"/>
    <g transform="translate(0,10)" s:x="0" s:y="10" s:pid="in0" id="port_$auto$opt_reduce.cc:128:opt_mux$17~A">
      <text x="-3" y="-4" class="inputPortLabel cell_$auto$opt_reduce.cc:128:opt_mux$17">A</text>
    </g>
    <g transform="translate(30,10)" s:x="30" s:y="10" s:pid="out0" id="port_$auto$opt_reduce.cc:128:opt_mux$17~Y">
      <text x="5" y="-4" style="fill:#000; stroke:none" class="cell_$auto$opt_reduce.cc:128:opt_mux$17">Y</text>
    </g>
  </g>
  <g s:type="generic" transform="translate(341,230)" s:width="30" s:height="40" id="cell_$auto$opt_reduce.cc:128:opt_mux$19">
    <text x="15" y="-4" class="nodelabel cell_$auto$opt_reduce.cc:128:opt_mux$19" s:attribute="ref">$reduce_or</text>
    <rect width="30" height="20" s:generic="body" class="cell_$auto$opt_reduce.cc:128:opt_mux$19"/>
    <g transform="translate(0,10)" s:x="0" s:y="10" s:pid="in0" id="port_$auto$opt_reduce.cc:128:opt_mux$19~A">
      <text x="-3" y="-4" class="inputPortLabel cell_$auto$opt_reduce.cc:128:opt_mux$19">A</text>
    </g>
    <g transform="translate(30,10)" s:x="30" s:y="10" s:pid="out0" id="port_$auto$opt_reduce.cc:128:opt_mux$19~Y">
      <text x="5" y="-4" style="fill:#000; stroke:none" class="cell_$auto$opt_reduce.cc:128:opt_mux$19">Y</text>
    </g>
  </g>
  <g s:type="generic" transform="translate(341,372.5)" s:width="30" s:height="40" id="cell_$auto$opt_reduce.cc:128:opt_mux$21">
    <text x="15" y="-4" class="nodelabel cell_$auto$opt_reduce.cc:128:opt_mux$21" s:attribute="ref">$reduce_or</text>
    <rect width="30" height="20" s:generic="body" class="cell_$auto$opt_reduce.cc:128:opt_mux$21"/>
    <g transform="translate(0,10)" s:x="0" s:y="10" s:pid="in0" id="port_$auto$opt_reduce.cc:128:opt_mux$21~A">
      <text x="-3" y="-4" class="inputPortLabel cell_$auto$opt_reduce.cc:128:opt_mux$21">A</text>
    </g>
    <g transform="translate(30,10)" s:x="30" s:y="10" s:pid="out0" id="port_$auto$opt_reduce.cc:128:opt_mux$21~Y">
      <text x="5" y="-4" style="fill:#000; stroke:none" class="cell_$auto$opt_reduce.cc:128:opt_mux$21">Y</text>
    </g>
  </g>
  <g s:type="eq" transform="translate(210.66666666666666,218)" s:width="25" s:height="25" id="cell_$procmux$10_CMP0">
    <s:alias val="$eq"/>
    <circle r="12.5" cx="12.5" cy="12.5" class="cell_$procmux$10_CMP0"/>
    <line x1="7.5" x2="17.5" y1="10" y2="10" class="cell_$procmux$10_CMP0"/>
    <line x1="7.5" x2="17.5" y1="15" y2="15" class="cell_$procmux$10_CMP0"/>
    <g s:x="3" s:y="5" s:pid="A"/>
    <g s:x="3" s:y="20" s:pid="B"/>
    <g s:x="25" s:y="12.5" s:pid="Y"/>
  </g>
  <g s:type="eq" transform="translate(210.66666666666666,360.5)" s:width="25" s:height="25" id="cell_$procmux$11_CMP0">
    <s:alias val="$eq"/>
    <circle r="12.5" cx="12.5" cy="12.5" class="cell_$procmux$11_CMP0"/>
    <line x1="7.5" x2="17.5" y1="10" y2="10" class="cell_$procmux$11_CMP0"/>
    <line x1="7.5" x2="17.5" y1="15" y2="15" class="cell_$procmux$11_CMP0"/>
    <g s:x="3" s:y="5" s:pid="A"/>
    <g s:x="3" s:y="20" s:pid="B"/>
    <g s:x="25" s:y="12.5" s:pid="Y"/>
  </g>
  <g s:type="eq" transform="translate(210.66666666666666,425)" s:width="25" s:height="25" id="cell_$procmux$12_CMP0">
    <s:alias val="$eq"/>
    <circle r="12.5" cx="12.5" cy="12.5" class="cell_$procmux$12_CMP0"/>
    <line x1="7.5" x2="17.5" y1="10" y2="10" class="cell_$procmux$12_CMP0"/>
    <line x1="7.5" x2="17.5" y1="15" y2="15" class="cell_$procmux$12_CMP0"/>
    <g s:x="3" s:y="5" s:pid="A"/>
    <g s:x="3" s:y="20" s:pid="B"/>
    <g s:x="25" s:y="12.5" s:pid="Y"/>
  </g>
  <g s:type="eq" transform="translate(210.66666666666666,300.5)" s:width="25" s:height="25" id="cell_$procmux$13_CMP0">
    <s:alias val="$eq"/>
    <circle r="12.5" cx="12.5" cy="12.5" class="cell_$procmux$13_CMP0"/>
    <line x1="7.5" x2="17.5" y1="10" y2="10" class="cell_$procmux$13_CMP0"/>
    <line x1="7.5" x2="17.5" y1="15" y2="15" class="cell_$procmux$13_CMP0"/>
    <g s:x="3" s:y="5" s:pid="A"/>
    <g s:x="3" s:y="20" s:pid="B"/>
    <g s:x="25" s:y="12.5" s:pid="Y"/>
  </g>
  <g s:type="eq" transform="translate(210.66666666666666,130)" s:width="25" s:height="25" id="cell_$procmux$14_CMP0">
    <s:alias val="$eq"/>
    <circle r="12.5" cx="12.5" cy="12.5" class="cell_$procmux$14_CMP0"/>
    <line x1="7.5" x2="17.5" y1="10" y2="10" class="cell_$procmux$14_CMP0"/>
    <line x1="7.5" x2="17.5" y1="15" y2="15" class="cell_$procmux$14_CMP0"/>
    <g s:x="3" s:y="5" s:pid="A"/>
    <g s:x="3" s:y="20" s:pid="B"/>
    <g s:x="25" s:y="12.5" s:pid="Y"/>
  </g>
  <g s:type="eq" transform="translate(210.66666666666666,490)" s:width="25" s:height="25" id="cell_$procmux$15_CMP0">
    <s:alias val="$eq"/>
    <circle r="12.5" cx="12.5" cy="12.5" class="cell_$procmux$15_CMP0"/>
    <line x1="7.5" x2="17.5" y1="10" y2="10" class="cell_$procmux$15_CMP0"/>
    <line x1="7.5" x2="17.5" y1="15" y2="15" class="cell_$procmux$15_CMP0"/>
    <g s:x="3" s:y="5" s:pid="A"/>
    <g s:x="3" s:y="20" s:pid="B"/>
    <g s:x="25" s:y="12.5" s:pid="Y"/>
  </g>
  <g s:type="eq" transform="translate(210.66666666666666,620)" s:width="25" s:height="25" id="cell_$procmux$16_CMP0">
    <s:alias val="$eq"/>
    <circle r="12.5" cx="12.5" cy="12.5" class="cell_$procmux$16_CMP0"/>
    <line x1="7.5" x2="17.5" y1="10" y2="10" class="cell_$procmux$16_CMP0"/>
    <line x1="7.5" x2="17.5" y1="15" y2="15" class="cell_$procmux$16_CMP0"/>
    <g s:x="3" s:y="5" s:pid="A"/>
    <g s:x="3" s:y="20" s:pid="B"/>
    <g s:x="25" s:y="12.5" s:pid="Y"/>
  </g>
  <g s:type="mux" transform="translate(706,571)" s:width="20" s:height="40" id="cell_$procmux$4">
    <s:alias val="$pmux"/>
    <s:alias val="$mux"/>
    <s:alias val="$_MUX_"/>
    <path d="M0,0 L20,10 L20,30 L0,40 Z" class="cell_$procmux$4"/>
    <g s:x="0" s:y="10" s:pid="A"/>
    <g s:x="0" s:y="30" s:pid="B"/>
    <g s:x="10" s:y="35" s:pid="S"/>
    <g s:x="20" s:y="20" s:pid="Y"/>
  </g>
  <g s:type="generic" transform="translate(587,667)" s:width="30" s:height="40" id="cell_$procmux$5_ANY">
    <text x="15" y="-4" class="nodelabel cell_$procmux$5_ANY" s:attribute="ref">$reduce_or</text>
    <rect width="30" height="20" s:generic="body" class="cell_$procmux$5_ANY"/>
    <g transform="translate(0,10)" s:x="0" s:y="10" s:pid="in0" id="port_$procmux$5_ANY~A">
      <text x="-3" y="-4" class="inputPortLabel cell_$procmux$5_ANY">A</text>
    </g>
    <g transform="translate(30,10)" s:x="30" s:y="10" s:pid="out0" id="port_$procmux$5_ANY~Y">
      <text x="5" y="-4" style="fill:#000; stroke:none" class="cell_$procmux$5_ANY">Y</text>
    </g>
  </g>
  <g s:type="eq" transform="translate(274,655)" s:width="25" s:height="25" id="cell_$procmux$5_CMP0">
    <s:alias val="$eq"/>
    <circle r="12.5" cx="12.5" cy="12.5" class="cell_$procmux$5_CMP0"/>
    <line x1="7.5" x2="17.5" y1="10" y2="10" class="cell_$procmux$5_CMP0"/>
    <line x1="7.5" x2="17.5" y1="15" y2="15" class="cell_$procmux$5_CMP0"/>
    <g s:x="3" s:y="5" s:pid="A"/>
    <g s:x="3" s:y="20" s:pid="B"/>
    <g s:x="25" s:y="12.5" s:pid="Y"/>
  </g>
  <g s:type="eq" transform="translate(274,715)" s:width="25" s:height="25" id="cell_$procmux$5_CMP1">
    <s:alias val="$eq"/>
    <circle r="12.5" cx="12.5" cy="12.5" class="cell_$procmux$5_CMP1"/>
    <line x1="7.5" x2="17.5" y1="10" y2="10" class="cell_$procmux$5_CMP1"/>
    <line x1="7.5" x2="17.5" y1="15" y2="15" class="cell_$procmux$5_CMP1"/>
    <g s:x="3" s:y="5" s:pid="A"/>
    <g s:x="3" s:y="20" s:pid="B"/>
    <g s:x="25" s:y="12.5" s:pid="Y"/>
  </g>
  <g s:type="mux" transform="translate(706,22)" s:width="20" s:height="40" id="cell_$procmux$7">
    <s:alias val="$pmux"/>
    <s:alias val="$mux"/>
    <s:alias val="$_MUX_"/>
    <path d="M0,0 L20,10 L20,30 L0,40 Z" class="cell_$procmux$7"/>
    <g s:x="0" s:y="10" s:pid="A"/>
    <g s:x="0" s:y="30" s:pid="B"/>
    <g s:x="10" s:y="35" s:pid="S"/>
    <g s:x="20" s:y="20" s:pid="Y"/>
  </g>
  <g s:type="eq" transform="translate(210.66666666666666,65)" s:width="25" s:height="25" id="cell_$procmux$8_CMP0">
    <s:alias val="$eq"/>
    <circle r="12.5" cx="12.5" cy="12.5" class="cell_$procmux$8_CMP0"/>
    <line x1="7.5" x2="17.5" y1="10" y2="10" class="cell_$procmux$8_CMP0"/>
    <line x1="7.5" x2="17.5" y1="15" y2="15" class="cell_$procmux$8_CMP0"/>
    <g s:x="3" s:y="5" s:pid="A"/>
    <g s:x="3" s:y="20" s:pid="B"/>
    <g s:x="25" s:y="12.5" s:pid="Y"/>
  </g>
  <g s:type="eq" transform="translate(398.3333333333333,160)" s:width="25" s:height="25" id="cell_$procmux$9_CMP0">
    <s:alias val="$eq"/>
    <circle r="12.5" cx="12.5" cy="12.5" class="cell_$procmux$9_CMP0"/>
    <line x1="7.5" x2="17.5" y1="10" y2="10" class="cell_$procmux$9_CMP0"/>
    <line x1="7.5" x2="17.5" y1="15" y2="15" class="cell_$procmux$9_CMP0"/>
    <g s:x="3" s:y="5" s:pid="A"/>
    <g s:x="3" s:y="20" s:pid="B"/>
    <g s:x="25" s:y="12.5" s:pid="Y"/>
  </g>
  <g s:type="inputExt" transform="translate(12,22)" s:width="30" s:height="20" id="cell_clk">
    <text x="15" y="-4" class="nodelabel cell_clk" s:attribute="ref">clk</text>
    <s:alias val="$_inputExt_"/>
    <path d="M0,0 L0,20 L15,20 L30,10 L15,0 Z" class="cell_clk"/>
    <g s:x="28" s:y="10" s:pid="Y"/>
  </g>
  <g s:type="inputExt" transform="translate(54,650)" s:width="30" s:height="20" id="cell_y">
    <text x="15" y="-4" class="nodelabel cell_y" s:attribute="ref">y</text>
    <s:alias val="$_inputExt_"/>
    <path d="M0,0 L0,20 L15,20 L30,10 L15,0 Z" class="cell_y"/>
    <g s:x="28" s:y="10" s:pid="Y"/>
  </g>
  <g s:type="inputExt" transform="translate(54,305.5)" s:width="30" s:height="20" id="cell_x">
    <text x="15" y="-4" class="nodelabel cell_x" s:attribute="ref">x</text>
    <s:alias val="$_inputExt_"/>
    <path d="M0,0 L0,20 L15,20 L30,10 L15,0 Z" class="cell_x"/>
    <g s:x="28" s:y="10" s:pid="Y"/>
  </g>
  <g s:type="outputExt" transform="translate(761,32)" s:width="30" s:height="20" id="cell_Y0">
    <text x="15" y="-4" class="nodelabel cell_Y0" s:attribute="ref">Y0</text>
    <s:alias val="$_outputExt_"/>
    <path d="M30,0 L30,20 L15,20 L0,10 L15,0 Z" class="cell_Y0"/>
    <g s:x="0" s:y="10" s:pid="A"/>
  </g>
  <g s:type="outputExt" transform="translate(761,581)" s:width="30" s:height="20" id="cell_z">
    <text x="15" y="-4" class="nodelabel cell_z" s:attribute="ref">z</text>
    <s:alias val="$_outputExt_"/>
    <path d="M30,0 L30,20 L15,20 L0,10 L15,0 Z" class="cell_z"/>
    <g s:x="0" s:y="10" s:pid="A"/>
  </g>
  <g s:type="constant" transform="translate(119,228)" s:width="30" s:height="20" id="cell_1011">
    <text x="15" y="-4" class="nodelabel cell_1011" s:attribute="ref">0xb</text>
    <s:alias val="$_constant_"/>
    <rect width="30" height="20" class="cell_1011"/>
    <g s:x="30" s:y="10" s:pid="Y"/>
  </g>
  <g s:type="constant" transform="translate(119,565)" s:width="30" s:height="20" id="cell_11">
    <text x="15" y="-4" class="nodelabel cell_11" s:attribute="ref">11</text>
    <s:alias val="$_constant_"/>
    <rect width="30" height="20" class="cell_11"/>
    <g s:x="30" s:y="10" s:pid="Y"/>
  </g>
  <g s:type="constant" transform="translate(119,435)" s:width="30" s:height="20" id="cell_1010">
    <text x="15" y="-4" class="nodelabel cell_1010" s:attribute="ref">0xa</text>
    <s:alias val="$_constant_"/>
    <rect width="30" height="20" class="cell_1010"/>
    <g s:x="30" s:y="10" s:pid="Y"/>
  </g>
  <g s:type="constant" transform="translate(119,370)" s:width="30" s:height="20" id="cell_10">
    <text x="15" y="-4" class="nodelabel cell_10" s:attribute="ref">10</text>
    <s:alias val="$_constant_"/>
    <rect width="30" height="20" class="cell_10"/>
    <g s:x="30" s:y="10" s:pid="Y"/>
  </g>
  <g s:type="constant" transform="translate(119,140)" s:width="30" s:height="20" id="cell_1001">
    <text x="15" y="-4" class="nodelabel cell_1001" s:attribute="ref">0x9</text>
    <s:alias val="$_constant_"/>
    <rect width="30" height="20" class="cell_1001"/>
    <g s:x="30" s:y="10" s:pid="Y"/>
  </g>
  <g s:type="constant" transform="translate(119,500)" s:width="30" s:height="20" id="cell_1">
    <text x="15" y="-4" class="nodelabel cell_1" s:attribute="ref">1</text>
    <s:alias val="$_constant_"/>
    <rect width="30" height="20" class="cell_1"/>
    <g s:x="30" s:y="10" s:pid="Y"/>
  </g>
  <g s:type="constant" transform="translate(119,630)" s:width="30" s:height="20" id="cell_1000">
    <text x="15" y="-4" class="nodelabel cell_1000" s:attribute="ref">0x8</text>
    <s:alias val="$_constant_"/>
    <rect width="30" height="20" class="cell_1000"/>
    <g s:x="30" s:y="10" s:pid="Y"/>
  </g>
  <g s:type="constant" transform="translate(587,22)" s:width="30" s:height="20" id="cell_0">
    <text x="15" y="-4" class="nodelabel cell_0" s:attribute="ref">0</text>
    <s:alias val="$_constant_"/>
    <rect width="30" height="20" class="cell_0"/>
    <g s:x="30" s:y="10" s:pid="Y"/>
  </g>
  <g s:type="constant" transform="translate(209,560)" s:width="30" s:height="20" id="cell_100">
    <text x="15" y="-4" class="nodelabel cell_100" s:attribute="ref">100</text>
    <s:alias val="$_constant_"/>
    <rect width="30" height="20" class="cell_100"/>
    <g s:x="30" s:y="10" s:pid="Y"/>
  </g>
  <g s:type="constant" transform="translate(119,75)" s:width="30" s:height="20" id="cell_1100">
    <text x="15" y="-4" class="nodelabel cell_1100" s:attribute="ref">0xc</text>
    <s:alias val="$_constant_"/>
    <rect width="30" height="20" class="cell_1100"/>
    <g s:x="30" s:y="10" s:pid="Y"/>
  </g>
  <g s:type="join" transform="translate(283.33333333333337,67)" s:width="4" s:height="40" id="cell_$join$,9,10,">
    <rect width="5" height="40" class="splitjoinBody" s:generic="body"/>
    <s:alias val="$_join_"/>
    <g s:x="5" s:y="20" s:pid="out"/>
    <g transform="translate(0,10)" s:x="0" s:y="10" s:pid="in0">
      <text x="-3" y="-4" class="inputPortLabel">0</text>
    </g>
    <g transform="translate(0,30)" s:x="0" s:y="10" s:pid="in0">
      <text x="-3" y="-4" class="inputPortLabel">1</text>
    </g>
  </g>
  <g s:type="join" transform="translate(283.33333333333337,220)" s:width="4" s:height="40" id="cell_$join$,12,13,">
    <rect width="5" height="40" class="splitjoinBody" s:generic="body"/>
    <s:alias val="$_join_"/>
    <g s:x="5" s:y="20" s:pid="out"/>
    <g transform="translate(0,10)" s:x="0" s:y="10" s:pid="in0">
      <text x="-3" y="-4" class="inputPortLabel">0</text>
    </g>
    <g transform="translate(0,30)" s:x="0" s:y="10" s:pid="in0">
      <text x="-3" y="-4" class="inputPortLabel">1</text>
    </g>
  </g>
  <g s:type="join" transform="translate(282.75,362.5)" s:width="4" s:height="40" id="cell_$join$,15,16,17,18,">
    <rect width="5" height="80" class="splitjoinBody" s:generic="body"/>
    <s:alias val="$_join_"/>
    <g s:x="5" s:y="20" s:pid="out"/>
    <g transform="translate(0,10)" s:x="0" s:y="10" s:pid="in0">
      <text x="-3" y="-4" class="inputPortLabel">0</text>
    </g>
    <g transform="translate(0,30)" s:x="0" s:y="10" s:pid="in0">
      <text x="-3" y="-4" class="inputPortLabel">1</text>
    </g>
    <g transform="translate(0,50)" s:x="0" s:y="10" s:pid="in0">
      <text x="-3" y="-4" class="inputPortLabel">2</text>
    </g>
    <g transform="translate(0,70)" s:x="0" s:y="10" s:pid="in0">
      <text x="-3" y="-4" class="inputPortLabel">3</text>
    </g>
  </g>
  <g s:type="join" transform="translate(138,285)" s:width="4" s:height="40" id="cell_$join$,3,4,5,6,">
    <rect width="5" height="40" class="splitjoinBody" s:generic="body"/>
    <s:alias val="$_join_"/>
    <g s:x="5" s:y="20" s:pid="out"/>
    <g transform="translate(0,10)" s:x="0" s:y="10" s:pid="in0">
      <text x="-3" y="-4" class="inputPortLabel">0:2</text>
    </g>
    <g transform="translate(0,30)" s:x="0" s:y="10" s:pid="in0">
      <text x="-3" y="-4" class="inputPortLabel">3</text>
    </g>
  </g>
  <g s:type="join" transform="translate(405.3333333333333,657)" s:width="4" s:height="40" id="cell_$join$,21,22,">
    <rect width="5" height="40" class="splitjoinBody" s:generic="body"/>
    <s:alias val="$_join_"/>
    <g s:x="5" s:y="20" s:pid="out"/>
    <g transform="translate(0,10)" s:x="0" s:y="10" s:pid="in0">
      <text x="-3" y="-4" class="inputPortLabel">0</text>
    </g>
    <g transform="translate(0,30)" s:x="0" s:y="10" s:pid="in0">
      <text x="-3" y="-4" class="inputPortLabel">1</text>
    </g>
  </g>
  <g s:type="join" transform="translate(605.25,77)" s:width="4" s:height="40" id="cell_$join$,11,23,14,19,">
    <rect width="5" height="80" class="splitjoinBody" s:generic="body"/>
    <s:alias val="$_join_"/>
    <g s:x="5" s:y="20" s:pid="out"/>
    <g transform="translate(0,10)" s:x="0" s:y="10" s:pid="in0">
      <text x="-3" y="-4" class="inputPortLabel">0</text>
    </g>
    <g transform="translate(0,30)" s:x="0" s:y="10" s:pid="in0">
      <text x="-3" y="-4" class="inputPortLabel">1</text>
    </g>
    <g transform="translate(0,50)" s:x="0" s:y="10" s:pid="in0">
      <text x="-3" y="-4" class="inputPortLabel">2</text>
    </g>
    <g transform="translate(0,70)" s:x="0" s:y="10" s:pid="in0">
      <text x="-3" y="-4" class="inputPortLabel">3</text>
    </g>
  </g>
  <line x1="289.33333333333337" x2="341" y1="87.5" y2="87.5" class="net_9,10"/>
  <line x1="289.33333333333337" x2="341" y1="240.5" y2="240.5" class="net_12,13"/>
  <line x1="288.75" x2="341" y1="383" y2="383" class="net_15,16,17,18"/>
  <line x1="144" x2="179" y1="305.5" y2="305.5" class="net_3,4,5,6"/>
  <line x1="179" x2="179" y1="305.5" y2="223" class="net_3,4,5,6"/>
  <circle cx="179" cy="305.5" r="2" style="fill:#000" class="net_3,4,5,6"/>
  <circle cx="179" cy="223" r="2" style="fill:#000" class="net_3,4,5,6"/>
  <line x1="179" x2="213.66666666666666" y1="223" y2="223" class="net_3,4,5,6"/>
  <line x1="144" x2="179" y1="305.5" y2="305.5" class="net_3,4,5,6"/>
  <line x1="179" x2="179" y1="305.5" y2="365.5" class="net_3,4,5,6"/>
  <circle cx="179" cy="365.5" r="2" style="fill:#000" class="net_3,4,5,6"/>
  <line x1="179" x2="213.66666666666666" y1="365.5" y2="365.5" class="net_3,4,5,6"/>
  <line x1="144" x2="179" y1="305.5" y2="305.5" class="net_3,4,5,6"/>
  <line x1="179" x2="179" y1="305.5" y2="430" class="net_3,4,5,6"/>
  <circle cx="179" cy="430" r="2" style="fill:#000" class="net_3,4,5,6"/>
  <line x1="179" x2="213.66666666666666" y1="430" y2="430" class="net_3,4,5,6"/>
  <line x1="144" x2="213.66666666666666" y1="305.5" y2="305.5" class="net_3,4,5,6"/>
  <line x1="144" x2="179" y1="305.5" y2="305.5" class="net_3,4,5,6"/>
  <line x1="179" x2="179" y1="305.5" y2="135" class="net_3,4,5,6"/>
  <circle cx="179" cy="135" r="2" style="fill:#000" class="net_3,4,5,6"/>
  <line x1="179" x2="213.66666666666666" y1="135" y2="135" class="net_3,4,5,6"/>
  <line x1="144" x2="179" y1="305.5" y2="305.5" class="net_3,4,5,6"/>
  <line x1="179" x2="179" y1="305.5" y2="495" class="net_3,4,5,6"/>
  <circle cx="179" cy="495" r="2" style="fill:#000" class="net_3,4,5,6"/>
  <line x1="179" x2="213.66666666666666" y1="495" y2="495" class="net_3,4,5,6"/>
  <line x1="144" x2="179" y1="305.5" y2="305.5" class="net_3,4,5,6"/>
  <line x1="179" x2="179" y1="305.5" y2="625" class="net_3,4,5,6"/>
  <line x1="179" x2="213.66666666666666" y1="625" y2="625" class="net_3,4,5,6"/>
  <line x1="144" x2="179" y1="305.5" y2="305.5" class="net_3,4,5,6"/>
  <line x1="179" x2="179" y1="305.5" y2="70" class="net_3,4,5,6"/>
  <line x1="179" x2="213.66666666666666" y1="70" y2="70" class="net_3,4,5,6"/>
  <line x1="144" x2="179" y1="305.5" y2="305.5" class="net_3,4,5,6"/>
  <line x1="179" x2="179" y1="305.5" y2="165" class="net_3,4,5,6"/>
  <circle cx="179" cy="165" r="2" style="fill:#000" class="net_3,4,5,6"/>
  <line x1="179" x2="401.3333333333333" y1="165" y2="165" class="net_3,4,5,6"/>
  <line x1="149" x2="213.66666666666666" y1="238" y2="238" class="net_24,25,26,27"/>
  <line x1="149" x2="169" y1="575" y2="575" class="net_28,29"/>
  <line x1="169" x2="169" y1="575" y2="380.5" class="net_28,29"/>
  <circle cx="169" cy="575" r="2" style="fill:#000" class="net_28,29"/>
  <line x1="169" x2="213.66666666666666" y1="380.5" y2="380.5" class="net_28,29"/>
  <line x1="149" x2="169" y1="575" y2="575" class="net_28,29"/>
  <line x1="169" x2="169" y1="575" y2="675" class="net_28,29"/>
  <line x1="169" x2="277" y1="675" y2="675" class="net_28,29"/>
  <line x1="149" x2="213.66666666666666" y1="445" y2="445" class="net_30,31,32,33"/>
  <line x1="149" x2="199" y1="445" y2="445" class="net_30,31,32,33"/>
  <line x1="199" x2="199" y1="445" y2="590" class="net_30,31,32,33"/>
  <line x1="199" x2="681" y1="590" y2="590" class="net_30,31,32,33"/>
  <line x1="681" x2="681" y1="590" y2="52" class="net_30,31,32,33"/>
  <circle cx="199" cy="445" r="2" style="fill:#000" class="net_30,31,32,33"/>
  <line x1="681" x2="706" y1="52" y2="52" class="net_30,31,32,33"/>
  <line x1="149" x2="159" y1="380" y2="380" class="net_34,35"/>
  <line x1="159" x2="159" y1="380" y2="320.5" class="net_34,35"/>
  <line x1="159" x2="213.66666666666666" y1="320.5" y2="320.5" class="net_34,35"/>
  <line x1="149" x2="213.66666666666666" y1="150" y2="150" class="net_36,37,38,39"/>
  <line x1="149" x2="213.66666666666666" y1="510" y2="510" class="net_40"/>
  <line x1="149" x2="189" y1="510" y2="510" class="net_40"/>
  <line x1="189" x2="189" y1="510" y2="601" class="net_40"/>
  <circle cx="189" cy="510" r="2" style="fill:#000" class="net_40"/>
  <line x1="189" x2="706" y1="601" y2="601" class="net_40"/>
  <line x1="149" x2="213.66666666666666" y1="640" y2="640" class="net_41,42,43,44"/>
  <line x1="617" x2="691" y1="32" y2="32" class="net_45"/>
  <line x1="691" x2="691" y1="32" y2="581" class="net_45"/>
  <circle cx="691" cy="32" r="2" style="fill:#000" class="net_45"/>
  <line x1="691" x2="706" y1="581" y2="581" class="net_45"/>
  <line x1="617" x2="706" y1="32" y2="32" class="net_45"/>
  <line x1="618" x2="716" y1="677.5" y2="677.5" class="net_20"/>
  <line x1="716" x2="716" y1="677.5" y2="606" class="net_20"/>
  <line x1="411.3333333333333" x2="587" y1="677.5" y2="677.5" class="net_21,22"/>
  <line x1="82" x2="277" y1="660" y2="660" class="net_3,4,5"/>
  <line x1="82" x2="159" y1="660" y2="660" class="net_3,4,5"/>
  <line x1="159" x2="159" y1="660" y2="720" class="net_3,4,5"/>
  <circle cx="159" cy="660" r="2" style="fill:#000" class="net_3,4,5"/>
  <line x1="159" x2="277" y1="720" y2="720" class="net_3,4,5"/>
  <line x1="82" x2="94" y1="660" y2="660" class="net_3,4,5"/>
  <line x1="94" x2="94" y1="660" y2="295.5" class="net_3,4,5"/>
  <circle cx="94" cy="660" r="2" style="fill:#000" class="net_3,4,5"/>
  <line x1="94" x2="138" y1="295.5" y2="295.5" class="net_3,4,5"/>
  <line x1="239" x2="249" y1="570" y2="570" class="net_49,50,51"/>
  <line x1="249" x2="249" y1="570" y2="735" class="net_49,50,51"/>
  <circle cx="249" cy="570" r="2" style="fill:#000" class="net_49,50,51"/>
  <line x1="249" x2="277" y1="735" y2="735" class="net_49,50,51"/>
  <line x1="239" x2="309" y1="570" y2="570" class="net_49,50,51"/>
  <line x1="309" x2="309" y1="570" y2="180" class="net_49,50,51"/>
  <line x1="309" x2="401.3333333333333" y1="180" y2="180" class="net_49,50,51"/>
  <line x1="611.25" x2="716" y1="97.5" y2="97.5" class="net_11,23,14,19"/>
  <line x1="716" x2="716" y1="97.5" y2="57" class="net_11,23,14,19"/>
  <line x1="149" x2="213.66666666666666" y1="85" y2="85" class="net_57,58,59,60"/>
  <line x1="726" x2="761" y1="42" y2="42" class="net_7"/>
  <line x1="726" x2="761" y1="591" y2="591" class="net_8"/>
  <line x1="235.66666666666666" x2="283.33333333333337" y1="77.5" y2="77.5" class="net_9"/>
  <line x1="235.66666666666666" x2="249" y1="142.5" y2="142.5" class="net_10"/>
  <line x1="249" x2="249" y1="142.5" y2="97.5" class="net_10"/>
  <line x1="249" x2="283.33333333333337" y1="97.5" y2="97.5" class="net_10"/>
  <line x1="235.66666666666666" x2="283.33333333333337" y1="230.5" y2="230.5" class="net_12"/>
  <line x1="235.66666666666666" x2="249" y1="313" y2="313" class="net_13"/>
  <line x1="249" x2="249" y1="313" y2="250.5" class="net_13"/>
  <line x1="249" x2="283.33333333333337" y1="250.5" y2="250.5" class="net_13"/>
  <line x1="235.66666666666666" x2="282.75" y1="373" y2="373" class="net_15"/>
  <line x1="235.66666666666666" x2="249" y1="437.5" y2="437.5" class="net_16"/>
  <line x1="249" x2="249" y1="437.5" y2="393" class="net_16"/>
  <line x1="249" x2="282.75" y1="393" y2="393" class="net_16"/>
  <line x1="235.66666666666666" x2="259" y1="502.5" y2="502.5" class="net_17"/>
  <line x1="259" x2="259" y1="502.5" y2="413" class="net_17"/>
  <line x1="259" x2="282.75" y1="413" y2="413" class="net_17"/>
  <line x1="235.66666666666666" x2="283.25" y1="632.5" y2="632.5" class="net_18"/>
  <line x1="283.25" x2="283.25" y1="632.5" y2="433.5" class="net_18"/>
  <line x1="82" x2="138" y1="315.5" y2="315.5" class="net_6"/>
  <line x1="299" x2="405.3333333333333" y1="667.5" y2="667.5" class="net_21"/>
  <line x1="299" x2="309" y1="727.5" y2="727.5" class="net_22"/>
  <line x1="309" x2="309" y1="727.5" y2="687.5" class="net_22"/>
  <line x1="309" x2="405.3333333333333" y1="687.5" y2="687.5" class="net_22"/>
  <line x1="372" x2="605.25" y1="87.5" y2="87.5" class="net_11"/>
  <line x1="423.3333333333333" x2="555" y1="172.5" y2="172.5" class="net_23"/>
  <line x1="555" x2="555" y1="172.5" y2="107.5" class="net_23"/>
  <line x1="555" x2="605.25" y1="107.5" y2="107.5" class="net_23"/>
  <line x1="372" x2="565" y1="240.5" y2="240.5" class="net_14"/>
  <line x1="565" x2="565" y1="240.5" y2="127.5" class="net_14"/>
  <line x1="565" x2="605.25" y1="127.5" y2="127.5" class="net_14"/>
  <line x1="372" x2="605.75" y1="383" y2="383" class="net_19"/>
  <line x1="605.75" x2="605.75" y1="383" y2="148" class="net_19"/>
</svg>
