<?xml version="1.0" encoding="UTF-8" standalone="no"?>
<!DOCTYPE svg PUBLIC "-//W3C//DTD SVG 1.1//EN"
 "http://www.w3.org/Graphics/SVG/1.1/DTD/svg11.dtd">
<!-- Generated by graphviz version 4.0.0 (20220529.0937)
 -->
<!-- Title: finite_state_machine Pages: 1 -->
<svg width="413pt" height="278pt"
 viewBox="0.00 0.00 412.67 277.92" xmlns="http://www.w3.org/2000/svg" xmlns:xlink="http://www.w3.org/1999/xlink">
<g id="graph0" class="graph" transform="scale(1 1) rotate(0) translate(4 273.92)">
<title>finite_state_machine</title>
<polygon fill="white" stroke="transparent" points="-4,4 -4,-273.92 408.67,-273.92 408.67,4 -4,4"/>
<!-- 011 -->
<g id="node1" class="node">
<title>011</title>
<ellipse fill="none" stroke="black" cx="26.87" cy="-62.87" rx="26.74" ry="26.74"/>
<text text-anchor="middle" x="26.87" y="-66.67" font-family="Times New Roman,serif" font-size="14.00">011</text>
<text text-anchor="middle" x="26.87" y="-51.67" font-family="Times New Roman,serif" font-size="14.00">z=1</text>
</g>
<!-- 001 -->
<g id="node4" class="node">
<title>001</title>
<ellipse fill="none" stroke="black" cx="259.88" cy="-112.87" rx="24.1" ry="24.1"/>
<text text-anchor="middle" x="259.88" y="-109.17" font-family="Times New Roman,serif" font-size="14.00">001</text>
</g>
<!-- 011&#45;&gt;001 -->
<g id="edge7" class="edge">
<title>011&#45;&gt;001</title>
<path fill="none" stroke="black" d="M46.53,-81.54C64.01,-97.61 91.72,-119.61 120.74,-128.87 155.97,-140.11 198.51,-132.17 226.99,-123.98"/>
<polygon fill="black" stroke="black" points="228.26,-127.25 236.8,-120.99 226.22,-120.56 228.26,-127.25"/>
<text text-anchor="middle" x="144.79" y="-137.67" font-family="Times New Roman,serif" font-size="14.00">x==0</text>
</g>
<!-- 010 -->
<g id="node5" class="node">
<title>010</title>
<ellipse fill="none" stroke="black" cx="144.79" cy="-62.87" rx="24.1" ry="24.1"/>
<text text-anchor="middle" x="144.79" y="-59.17" font-family="Times New Roman,serif" font-size="14.00">010</text>
</g>
<!-- 011&#45;&gt;010 -->
<g id="edge8" class="edge">
<title>011&#45;&gt;010</title>
<path fill="none" stroke="black" d="M53.88,-62.87C70.62,-62.87 92.53,-62.87 110.53,-62.87"/>
<polygon fill="black" stroke="black" points="110.61,-66.37 120.61,-62.87 110.61,-59.37 110.61,-66.37"/>
<text text-anchor="middle" x="87.24" y="-66.67" font-family="Times New Roman,serif" font-size="14.00">x==1</text>
</g>
<!-- 100 -->
<g id="node2" class="node">
<title>100</title>
<ellipse fill="none" stroke="black" cx="377.8" cy="-26.87" rx="26.74" ry="26.74"/>
<text text-anchor="middle" x="377.8" y="-30.67" font-family="Times New Roman,serif" font-size="14.00">100</text>
<text text-anchor="middle" x="377.8" y="-15.67" font-family="Times New Roman,serif" font-size="14.00">z=1</text>
</g>
<!-- 100&#45;&gt;011 -->
<g id="edge9" class="edge">
<title>100&#45;&gt;011</title>
<path fill="none" stroke="black" d="M350.73,-24.38C304.14,-20.54 203.68,-15.07 120.74,-29.87 100.46,-33.49 78.72,-41 61.38,-47.94"/>
<polygon fill="black" stroke="black" points="59.62,-44.88 51.72,-51.93 62.29,-51.35 59.62,-44.88"/>
<text text-anchor="middle" x="202.34" y="-26.67" font-family="Times New Roman,serif" font-size="14.00">x==0</text>
</g>
<!-- 100&#45;&gt;100 -->
<g id="edge10" class="edge">
<title>100&#45;&gt;100</title>
<path fill="none" stroke="black" d="M366.69,-51.79C365.78,-62.54 369.48,-71.74 377.8,-71.74 383.26,-71.74 386.73,-67.78 388.22,-62.01"/>
<polygon fill="black" stroke="black" points="391.73,-62 388.92,-51.79 384.74,-61.53 391.73,-62"/>
<text text-anchor="middle" x="377.8" y="-75.54" font-family="Times New Roman,serif" font-size="14.00">x==1</text>
</g>
<!-- 000 -->
<g id="node3" class="node">
<title>000</title>
<ellipse fill="none" stroke="black" cx="144.79" cy="-212.87" rx="24.1" ry="24.1"/>
<text text-anchor="middle" x="144.79" y="-209.17" font-family="Times New Roman,serif" font-size="14.00">000</text>
</g>
<!-- 000&#45;&gt;000 -->
<g id="edge1" class="edge">
<title>000&#45;&gt;000</title>
<path fill="none" stroke="black" d="M134.54,-234.94C133.28,-245.55 136.69,-254.92 144.79,-254.92 150.1,-254.92 153.4,-250.88 154.68,-245.11"/>
<polygon fill="black" stroke="black" points="158.18,-245.05 155.03,-234.94 151.19,-244.81 158.18,-245.05"/>
<text text-anchor="middle" x="144.79" y="-258.72" font-family="Times New Roman,serif" font-size="14.00">x==0</text>
</g>
<!-- 000&#45;&gt;001 -->
<g id="edge2" class="edge">
<title>000&#45;&gt;001</title>
<path fill="none" stroke="black" d="M166.86,-203.2C182.09,-195.55 202.59,-183.85 217.84,-169.87 226.64,-161.79 234.72,-151.54 241.34,-141.97"/>
<polygon fill="black" stroke="black" points="244.38,-143.72 246.99,-133.46 238.54,-139.86 244.38,-143.72"/>
<text text-anchor="middle" x="202.34" y="-194.67" font-family="Times New Roman,serif" font-size="14.00">x==1</text>
</g>
<!-- 001&#45;&gt;100 -->
<g id="edge4" class="edge">
<title>001&#45;&gt;100</title>
<path fill="none" stroke="black" d="M279.77,-98.86C298.12,-85.25 326.25,-64.38 347.5,-48.61"/>
<polygon fill="black" stroke="black" points="349.62,-51.39 355.57,-42.62 345.45,-45.77 349.62,-51.39"/>
<text text-anchor="middle" x="317.43" y="-83.67" font-family="Times New Roman,serif" font-size="14.00">x==1</text>
</g>
<!-- 001&#45;&gt;001 -->
<g id="edge3" class="edge">
<title>001&#45;&gt;001</title>
<path fill="none" stroke="black" d="M249.64,-134.94C248.38,-145.55 251.79,-154.92 259.88,-154.92 265.2,-154.92 268.49,-150.88 269.77,-145.11"/>
<polygon fill="black" stroke="black" points="273.28,-145.05 270.13,-134.94 266.28,-144.81 273.28,-145.05"/>
<text text-anchor="middle" x="259.88" y="-158.72" font-family="Times New Roman,serif" font-size="14.00">x==0</text>
</g>
<!-- 010&#45;&gt;001 -->
<g id="edge6" class="edge">
<title>010&#45;&gt;001</title>
<path fill="none" stroke="black" d="M167.06,-72.27C184.36,-79.92 208.99,-90.81 228.38,-99.39"/>
<polygon fill="black" stroke="black" points="227.15,-102.67 237.71,-103.51 229.98,-96.26 227.15,-102.67"/>
<text text-anchor="middle" x="202.34" y="-96.67" font-family="Times New Roman,serif" font-size="14.00">x==1</text>
</g>
<!-- 010&#45;&gt;010 -->
<g id="edge5" class="edge">
<title>010&#45;&gt;010</title>
<path fill="none" stroke="black" d="M134.54,-84.94C133.28,-95.55 136.69,-104.92 144.79,-104.92 150.1,-104.92 153.4,-100.88 154.68,-95.11"/>
<polygon fill="black" stroke="black" points="158.18,-95.05 155.03,-84.94 151.19,-94.81 158.18,-95.05"/>
<text text-anchor="middle" x="144.79" y="-108.72" font-family="Times New Roman,serif" font-size="14.00">x==0</text>
</g>
</g>
</svg>
