<?xml version="1.0" encoding="UTF-8" standalone="no"?>
<!DOCTYPE svg PUBLIC "-//W3C//DTD SVG 1.1//EN"
 "http://www.w3.org/Graphics/SVG/1.1/DTD/svg11.dtd">
<!-- Generated by graphviz version 4.0.0 (20220529.0937)
 -->
<!-- Title: add1 Pages: 1 -->
<svg width="568pt" height="186pt"
 viewBox="0.00 0.00 567.69 186.00" xmlns="http://www.w3.org/2000/svg" xmlns:xlink="http://www.w3.org/1999/xlink">
<g id="graph0" class="graph" transform="scale(1 1) rotate(0) translate(4 182)">
<title>add1</title>
<polygon fill="white" stroke="transparent" points="-4,4 -4,-182 563.69,-182 563.69,4 -4,4"/>
<text text-anchor="middle" x="279.84" y="-7.8" font-family="Times New Roman,serif" font-size="14.00">add1</text>
<!-- n2 -->
<g id="node1" class="node">
<title>n2</title>
<polygon fill="none" stroke="black" points="54,-152.54 54,-167.46 38.18,-178 15.82,-178 0,-167.46 0,-152.54 15.82,-142 38.18,-142 54,-152.54"/>
<text text-anchor="middle" x="27" y="-156.3" font-family="Times New Roman,serif" font-size="14.00">a</text>
</g>
<!-- c10 -->
<g id="node6" class="node">
<title>c10</title>
<polygon fill="none" stroke="black" points="91,-95 91,-141 187,-141 187,-95 91,-95"/>
<text text-anchor="middle" x="104" y="-125.8" font-family="Times New Roman,serif" font-size="14.00">A</text>
<polyline fill="none" stroke="black" points="91,-118 117,-118 "/>
<text text-anchor="middle" x="104" y="-102.8" font-family="Times New Roman,serif" font-size="14.00">B</text>
<polyline fill="none" stroke="black" points="117,-95 117,-141 "/>
<text text-anchor="middle" x="139" y="-121.8" font-family="Times New Roman,serif" font-size="14.00">$1</text>
<text text-anchor="middle" x="139" y="-106.8" font-family="Times New Roman,serif" font-size="14.00">$add</text>
<polyline fill="none" stroke="black" points="161,-95 161,-141 "/>
<text text-anchor="middle" x="174" y="-114.3" font-family="Times New Roman,serif" font-size="14.00">Y</text>
</g>
<!-- n2&#45;&gt;c10 -->
<g id="edge1" class="edge">
<title>n2:e&#45;&gt;c10:w</title>
<path fill="none" stroke="#1b9e77" d="M54,-160C71.04,-160 70.9,-140.57 81.23,-132.99"/>
<polygon fill="#1b9e77" stroke="#1b9e77" points="82.46,-136.27 91,-130 80.41,-129.58 82.46,-136.27"/>
</g>
<!-- n3 -->
<g id="node2" class="node">
<title>n3</title>
<polygon fill="none" stroke="black" points="54,-98.54 54,-113.46 38.18,-124 15.82,-124 0,-113.46 0,-98.54 15.82,-88 38.18,-88 54,-98.54"/>
<text text-anchor="middle" x="27" y="-102.3" font-family="Times New Roman,serif" font-size="14.00">b</text>
</g>
<!-- n3&#45;&gt;c10 -->
<g id="edge2" class="edge">
<title>n3:e&#45;&gt;c10:w</title>
<path fill="none" stroke="#7570b3" d="M54,-106C66.46,-106 71.84,-106 80.87,-106"/>
<polygon fill="#7570b3" stroke="#7570b3" points="81,-109.5 91,-106 81,-102.5 81,-109.5"/>
</g>
<!-- n4 -->
<g id="node3" class="node">
<title>n4</title>
<polygon fill="none" stroke="black" points="54,-44.54 54,-59.46 38.18,-70 15.82,-70 0,-59.46 0,-44.54 15.82,-34 38.18,-34 54,-44.54"/>
<text text-anchor="middle" x="27" y="-48.3" font-family="Times New Roman,serif" font-size="14.00">cin</text>
</g>
<!-- c11 -->
<g id="node7" class="node">
<title>c11</title>
<polygon fill="none" stroke="black" points="247,-45 247,-91 343,-91 343,-45 247,-45"/>
<text text-anchor="middle" x="260" y="-75.8" font-family="Times New Roman,serif" font-size="14.00">A</text>
<polyline fill="none" stroke="black" points="247,-68 273,-68 "/>
<text text-anchor="middle" x="260" y="-52.8" font-family="Times New Roman,serif" font-size="14.00">B</text>
<polyline fill="none" stroke="black" points="273,-45 273,-91 "/>
<text text-anchor="middle" x="295" y="-71.8" font-family="Times New Roman,serif" font-size="14.00">$2</text>
<text text-anchor="middle" x="295" y="-56.8" font-family="Times New Roman,serif" font-size="14.00">$add</text>
<polyline fill="none" stroke="black" points="317,-45 317,-91 "/>
<text text-anchor="middle" x="330" y="-64.3" font-family="Times New Roman,serif" font-size="14.00">Y</text>
</g>
<!-- n4&#45;&gt;c11 -->
<g id="edge3" class="edge">
<title>n4:e&#45;&gt;c11:w</title>
<path fill="none" stroke="#e7298a" d="M54,-52C136.28,-52 159.34,-55.68 236.76,-55.98"/>
<polygon fill="#e7298a" stroke="#e7298a" points="236.99,-59.48 247,-56 237.01,-52.48 236.99,-59.48"/>
</g>
<!-- n5 -->
<g id="node4" class="node">
<title>n5</title>
<polygon fill="none" stroke="black" points="559.53,-87.54 559.53,-102.46 542.73,-113 518.96,-113 502.16,-102.46 502.16,-87.54 518.96,-77 542.73,-77 559.53,-87.54"/>
<text text-anchor="middle" x="530.84" y="-91.3" font-family="Times New Roman,serif" font-size="14.00">cout</text>
</g>
<!-- n6 -->
<g id="node5" class="node">
<title>n6</title>
<polygon fill="none" stroke="black" points="559.12,-33.54 559.12,-48.46 542.56,-59 519.13,-59 502.56,-48.46 502.56,-33.54 519.13,-23 542.56,-23 559.12,-33.54"/>
<text text-anchor="middle" x="530.84" y="-37.3" font-family="Times New Roman,serif" font-size="14.00">sum</text>
</g>
<!-- c10&#45;&gt;c11 -->
<g id="edge4" class="edge">
<title>c10:e&#45;&gt;c11:w</title>
<path fill="none" stroke="#1b9e77" stroke-width="3" d="M187,-118C214.74,-118 215.68,-88.65 236.94,-81.54"/>
<polygon fill="#1b9e77" stroke="#1b9e77" stroke-width="3" points="237.64,-84.97 247,-80 236.59,-78.05 237.64,-84.97"/>
<text text-anchor="middle" x="217" y="-114.8" font-family="Times New Roman,serif" font-size="14.00" fill="#1b9e77">&lt;2&gt;</text>
</g>
<!-- x0 -->
<g id="node8" class="node">
<title>x0</title>
<path fill="none" stroke="black" d="M415,-45C415,-45 453,-45 453,-45 459,-45 465,-51 465,-57 465,-57 465,-79 465,-79 465,-85 459,-91 453,-91 453,-91 415,-91 415,-91 409,-91 403,-85 403,-79 403,-79 403,-57 403,-57 403,-51 409,-45 415,-45"/>
<text text-anchor="middle" x="434" y="-75.8" font-family="Times New Roman,serif" font-size="14.00">1:1 &#45; 0:0</text>
<polyline fill="none" stroke="black" points="403,-68 465,-68 "/>
<text text-anchor="middle" x="434" y="-52.8" font-family="Times New Roman,serif" font-size="14.00">0:0 &#45; 0:0</text>
</g>
<!-- c11&#45;&gt;x0 -->
<g id="edge5" class="edge">
<title>c11:e&#45;&gt;x0:w</title>
<path fill="none" stroke="#66a61e" stroke-width="3" d="M355.18,-68C368.89,-68 376.99,-68 390.64,-68"/>
<polygon fill="none" stroke="#66a61e" stroke-width="3" points="355,-68 349,-72 343,-68 349,-64 355,-68"/>
<polygon fill="none" stroke="#66a61e" stroke-width="3" points="391,-68 397,-64 403,-68 397,-72 391,-68"/>
<text text-anchor="middle" x="373" y="-71.8" font-family="Times New Roman,serif" font-size="14.00" fill="#66a61e">&lt;2&gt;</text>
</g>
<!-- x0&#45;&gt;n5 -->
<g id="edge6" class="edge">
<title>x0:e&#45;&gt;n5:w</title>
<path fill="none" stroke="#e7298a" d="M465,-80C478.72,-80 482.74,-88.97 492.06,-93.04"/>
<polygon fill="#e7298a" stroke="#e7298a" points="491.51,-96.5 502,-95 492.87,-89.63 491.51,-96.5"/>
</g>
<!-- x0&#45;&gt;n6 -->
<g id="edge7" class="edge">
<title>x0:e&#45;&gt;n6:w</title>
<path fill="none" stroke="#7570b3" d="M465,-56C478.72,-56 482.74,-47.03 492.06,-42.96"/>
<polygon fill="#7570b3" stroke="#7570b3" points="492.87,-46.37 502,-41 491.51,-39.5 492.87,-46.37"/>
</g>
</g>
</svg>
