<svg xmlns="http://www.w3.org/2000/svg" xmlns:xlink="http://www.w3.org/1999/xlink" xmlns:s="https://github.com/nturley/netlistsvg" width="757" height="414">
  <style>svg {
    stroke:#000;
    fill:none;
  }
  text {
    fill:#000;
    stroke:none;
    font-size:10px;
    font-weight: bold;
    font-family: "Courier New", monospace;
  }
  .nodelabel {
    text-anchor: middle;
  }
  .inputPortLabel {
    text-anchor: end;
  }
  .splitjoinBody {
    fill:#000;
  }</style>
  <g s:type="and" transform="translate(377,72)" s:width="30" s:height="25" id="cell_$auto$aigmap.cc:123:execute$18">
    <s:alias val="$and"/>
    <s:alias val="$logic_and"/>
    <s:alias val="$_AND_"/>
    <path d="M0,0 L0,25 L15,25 A15 12.5 0 0 0 15,0 Z" class="cell_$auto$aigmap.cc:123:execute$18"/>
    <g s:x="0" s:y="5" s:pid="A"/>
    <g s:x="0" s:y="20" s:pid="B"/>
    <g s:x="30" s:y="12.5" s:pid="Y"/>
  </g>
  <g s:type="and" transform="translate(377,12)" s:width="30" s:height="25" id="cell_$auto$aigmap.cc:123:execute$20">
    <s:alias val="$and"/>
    <s:alias val="$logic_and"/>
    <s:alias val="$_AND_"/>
    <path d="M0,0 L0,25 L15,25 A15 12.5 0 0 0 15,0 Z" class="cell_$auto$aigmap.cc:123:execute$20"/>
    <g s:x="0" s:y="5" s:pid="A"/>
    <g s:x="0" s:y="20" s:pid="B"/>
    <g s:x="30" s:y="12.5" s:pid="Y"/>
  </g>
  <g s:type="and" transform="translate(167,197)" s:width="30" s:height="25" id="cell_$auto$aigmap.cc:123:execute$22">
    <s:alias val="$and"/>
    <s:alias val="$logic_and"/>
    <s:alias val="$_AND_"/>
    <path d="M0,0 L0,25 L15,25 A15 12.5 0 0 0 15,0 Z" class="cell_$auto$aigmap.cc:123:execute$22"/>
    <g s:x="0" s:y="5" s:pid="A"/>
    <g s:x="0" s:y="20" s:pid="B"/>
    <g s:x="30" s:y="12.5" s:pid="Y"/>
  </g>
  <g s:type="and" transform="translate(167,137)" s:width="30" s:height="25" id="cell_$auto$aigmap.cc:123:execute$24">
    <s:alias val="$and"/>
    <s:alias val="$logic_and"/>
    <s:alias val="$_AND_"/>
    <path d="M0,0 L0,25 L15,25 A15 12.5 0 0 0 15,0 Z" class="cell_$auto$aigmap.cc:123:execute$24"/>
    <g s:x="0" s:y="5" s:pid="A"/>
    <g s:x="0" s:y="20" s:pid="B"/>
    <g s:x="30" s:y="12.5" s:pid="Y"/>
  </g>
  <g s:type="and" transform="translate(377,132)" s:width="30" s:height="25" id="cell_$auto$aigmap.cc:123:execute$26">
    <s:alias val="$and"/>
    <s:alias val="$logic_and"/>
    <s:alias val="$_AND_"/>
    <path d="M0,0 L0,25 L15,25 A15 12.5 0 0 0 15,0 Z" class="cell_$auto$aigmap.cc:123:execute$26"/>
    <g s:x="0" s:y="5" s:pid="A"/>
    <g s:x="0" s:y="20" s:pid="B"/>
    <g s:x="30" s:y="12.5" s:pid="Y"/>
  </g>
  <g s:type="and" transform="translate(377,307)" s:width="30" s:height="25" id="cell_$auto$aigmap.cc:123:execute$28">
    <s:alias val="$and"/>
    <s:alias val="$logic_and"/>
    <s:alias val="$_AND_"/>
    <path d="M0,0 L0,25 L15,25 A15 12.5 0 0 0 15,0 Z" class="cell_$auto$aigmap.cc:123:execute$28"/>
    <g s:x="0" s:y="5" s:pid="A"/>
    <g s:x="0" s:y="20" s:pid="B"/>
    <g s:x="30" s:y="12.5" s:pid="Y"/>
  </g>
  <g s:type="and" transform="translate(377,247)" s:width="30" s:height="25" id="cell_$auto$aigmap.cc:123:execute$30">
    <s:alias val="$and"/>
    <s:alias val="$logic_and"/>
    <s:alias val="$_AND_"/>
    <path d="M0,0 L0,25 L15,25 A15 12.5 0 0 0 15,0 Z" class="cell_$auto$aigmap.cc:123:execute$30"/>
    <g s:x="0" s:y="5" s:pid="A"/>
    <g s:x="0" s:y="20" s:pid="B"/>
    <g s:x="30" s:y="12.5" s:pid="Y"/>
  </g>
  <g s:type="and" transform="translate(572,357)" s:width="30" s:height="25" id="cell_$auto$aigmap.cc:123:execute$32">
    <s:alias val="$and"/>
    <s:alias val="$logic_and"/>
    <s:alias val="$_AND_"/>
    <path d="M0,0 L0,25 L15,25 A15 12.5 0 0 0 15,0 Z" class="cell_$auto$aigmap.cc:123:execute$32"/>
    <g s:x="0" s:y="5" s:pid="A"/>
    <g s:x="0" s:y="20" s:pid="B"/>
    <g s:x="30" s:y="12.5" s:pid="Y"/>
  </g>
  <g s:type="and" transform="translate(507,64.5)" s:width="30" s:height="25" id="cell_$auto$aigmap.cc:123:execute$40">
    <s:alias val="$and"/>
    <s:alias val="$logic_and"/>
    <s:alias val="$_AND_"/>
    <path d="M0,0 L0,25 L15,25 A15 12.5 0 0 0 15,0 Z" class="cell_$auto$aigmap.cc:123:execute$40"/>
    <g s:x="0" s:y="5" s:pid="A"/>
    <g s:x="0" s:y="20" s:pid="B"/>
    <g s:x="30" s:y="12.5" s:pid="Y"/>
  </g>
  <g s:type="and" transform="translate(507,182)" s:width="30" s:height="25" id="cell_$auto$aigmap.cc:123:execute$48">
    <s:alias val="$and"/>
    <s:alias val="$logic_and"/>
    <s:alias val="$_AND_"/>
    <path d="M0,0 L0,25 L15,25 A15 12.5 0 0 0 15,0 Z" class="cell_$auto$aigmap.cc:123:execute$48"/>
    <g s:x="0" s:y="5" s:pid="A"/>
    <g s:x="0" s:y="20" s:pid="B"/>
    <g s:x="30" s:y="12.5" s:pid="Y"/>
  </g>
  <g s:type="and" transform="translate(297,189.5)" s:width="30" s:height="25" id="cell_$auto$aigmap.cc:123:execute$56">
    <s:alias val="$and"/>
    <s:alias val="$logic_and"/>
    <s:alias val="$_AND_"/>
    <path d="M0,0 L0,25 L15,25 A15 12.5 0 0 0 15,0 Z" class="cell_$auto$aigmap.cc:123:execute$56"/>
    <g s:x="0" s:y="5" s:pid="A"/>
    <g s:x="0" s:y="20" s:pid="B"/>
    <g s:x="30" s:y="12.5" s:pid="Y"/>
  </g>
  <g s:type="and" transform="translate(507,299.5)" s:width="30" s:height="25" id="cell_$auto$aigmap.cc:123:execute$64">
    <s:alias val="$and"/>
    <s:alias val="$logic_and"/>
    <s:alias val="$_AND_"/>
    <path d="M0,0 L0,25 L15,25 A15 12.5 0 0 0 15,0 Z" class="cell_$auto$aigmap.cc:123:execute$64"/>
    <g s:x="0" s:y="5" s:pid="A"/>
    <g s:x="0" s:y="20" s:pid="B"/>
    <g s:x="30" s:y="12.5" s:pid="Y"/>
  </g>
  <g s:type="not" transform="translate(297,82)" s:width="30" s:height="20" id="cell_$auto$aigmap.cc:132:execute$34">
    <s:alias val="$_NOT_"/>
    <s:alias val="$not"/>
    <s:alias val="$logic_not"/>
    <path d="M0,0 L0,20 L20,10 Z" class="cell_$auto$aigmap.cc:132:execute$34"/>
    <circle cx="23" cy="10" r="3" class="cell_$auto$aigmap.cc:132:execute$34"/>
    <g s:x="0" s:y="10" s:pid="A"/>
    <g s:x="25" s:y="10" s:pid="Y"/>
  </g>
  <g s:type="not" transform="translate(442,14.5)" s:width="30" s:height="20" id="cell_$auto$aigmap.cc:132:execute$36">
    <s:alias val="$_NOT_"/>
    <s:alias val="$not"/>
    <s:alias val="$logic_not"/>
    <path d="M0,0 L0,20 L20,10 Z" class="cell_$auto$aigmap.cc:132:execute$36"/>
    <circle cx="23" cy="10" r="3" class="cell_$auto$aigmap.cc:132:execute$36"/>
    <g s:x="0" s:y="10" s:pid="A"/>
    <g s:x="25" s:y="10" s:pid="Y"/>
  </g>
  <g s:type="not" transform="translate(442,74.5)" s:width="30" s:height="20" id="cell_$auto$aigmap.cc:132:execute$38">
    <s:alias val="$_NOT_"/>
    <s:alias val="$not"/>
    <s:alias val="$logic_not"/>
    <path d="M0,0 L0,20 L20,10 Z" class="cell_$auto$aigmap.cc:132:execute$38"/>
    <circle cx="23" cy="10" r="3" class="cell_$auto$aigmap.cc:132:execute$38"/>
    <g s:x="0" s:y="10" s:pid="A"/>
    <g s:x="25" s:y="10" s:pid="Y"/>
  </g>
  <g s:type="not" transform="translate(572,67)" s:width="30" s:height="20" id="cell_$auto$aigmap.cc:132:execute$42">
    <s:alias val="$_NOT_"/>
    <s:alias val="$not"/>
    <s:alias val="$logic_not"/>
    <path d="M0,0 L0,20 L20,10 Z" class="cell_$auto$aigmap.cc:132:execute$42"/>
    <circle cx="23" cy="10" r="3" class="cell_$auto$aigmap.cc:132:execute$42"/>
    <g s:x="0" s:y="10" s:pid="A"/>
    <g s:x="25" s:y="10" s:pid="Y"/>
  </g>
  <g s:type="not" transform="translate(442,134.5)" s:width="30" s:height="20" id="cell_$auto$aigmap.cc:132:execute$44">
    <s:alias val="$_NOT_"/>
    <s:alias val="$not"/>
    <s:alias val="$logic_not"/>
    <path d="M0,0 L0,20 L20,10 Z" class="cell_$auto$aigmap.cc:132:execute$44"/>
    <circle cx="23" cy="10" r="3" class="cell_$auto$aigmap.cc:132:execute$44"/>
    <g s:x="0" s:y="10" s:pid="A"/>
    <g s:x="25" s:y="10" s:pid="Y"/>
  </g>
  <g s:type="not" transform="translate(442,192)" s:width="30" s:height="20" id="cell_$auto$aigmap.cc:132:execute$46">
    <s:alias val="$_NOT_"/>
    <s:alias val="$not"/>
    <s:alias val="$logic_not"/>
    <path d="M0,0 L0,20 L20,10 Z" class="cell_$auto$aigmap.cc:132:execute$46"/>
    <circle cx="23" cy="10" r="3" class="cell_$auto$aigmap.cc:132:execute$46"/>
    <g s:x="0" s:y="10" s:pid="A"/>
    <g s:x="25" s:y="10" s:pid="Y"/>
  </g>
  <g s:type="not" transform="translate(572,184.5)" s:width="30" s:height="20" id="cell_$auto$aigmap.cc:132:execute$50">
    <s:alias val="$_NOT_"/>
    <s:alias val="$not"/>
    <s:alias val="$logic_not"/>
    <path d="M0,0 L0,20 L20,10 Z" class="cell_$auto$aigmap.cc:132:execute$50"/>
    <circle cx="23" cy="10" r="3" class="cell_$auto$aigmap.cc:132:execute$50"/>
    <g s:x="0" s:y="10" s:pid="A"/>
    <g s:x="25" s:y="10" s:pid="Y"/>
  </g>
  <g s:type="not" transform="translate(232,139.5)" s:width="30" s:height="20" id="cell_$auto$aigmap.cc:132:execute$52">
    <s:alias val="$_NOT_"/>
    <s:alias val="$not"/>
    <s:alias val="$logic_not"/>
    <path d="M0,0 L0,20 L20,10 Z" class="cell_$auto$aigmap.cc:132:execute$52"/>
    <circle cx="23" cy="10" r="3" class="cell_$auto$aigmap.cc:132:execute$52"/>
    <g s:x="0" s:y="10" s:pid="A"/>
    <g s:x="25" s:y="10" s:pid="Y"/>
  </g>
  <g s:type="not" transform="translate(232,199.5)" s:width="30" s:height="20" id="cell_$auto$aigmap.cc:132:execute$54">
    <s:alias val="$_NOT_"/>
    <s:alias val="$not"/>
    <s:alias val="$logic_not"/>
    <path d="M0,0 L0,20 L20,10 Z" class="cell_$auto$aigmap.cc:132:execute$54"/>
    <circle cx="23" cy="10" r="3" class="cell_$auto$aigmap.cc:132:execute$54"/>
    <g s:x="0" s:y="10" s:pid="A"/>
    <g s:x="25" s:y="10" s:pid="Y"/>
  </g>
  <g s:type="not" transform="translate(377,192)" s:width="30" s:height="20" id="cell_$auto$aigmap.cc:132:execute$58">
    <s:alias val="$_NOT_"/>
    <s:alias val="$not"/>
    <s:alias val="$logic_not"/>
    <path d="M0,0 L0,20 L20,10 Z" class="cell_$auto$aigmap.cc:132:execute$58"/>
    <circle cx="23" cy="10" r="3" class="cell_$auto$aigmap.cc:132:execute$58"/>
    <g s:x="0" s:y="10" s:pid="A"/>
    <g s:x="25" s:y="10" s:pid="Y"/>
  </g>
  <g s:type="not" transform="translate(442,249.5)" s:width="30" s:height="20" id="cell_$auto$aigmap.cc:132:execute$60">
    <s:alias val="$_NOT_"/>
    <s:alias val="$not"/>
    <s:alias val="$logic_not"/>
    <path d="M0,0 L0,20 L20,10 Z" class="cell_$auto$aigmap.cc:132:execute$60"/>
    <circle cx="23" cy="10" r="3" class="cell_$auto$aigmap.cc:132:execute$60"/>
    <g s:x="0" s:y="10" s:pid="A"/>
    <g s:x="25" s:y="10" s:pid="Y"/>
  </g>
  <g s:type="not" transform="translate(442,309.5)" s:width="30" s:height="20" id="cell_$auto$aigmap.cc:132:execute$62">
    <s:alias val="$_NOT_"/>
    <s:alias val="$not"/>
    <s:alias val="$logic_not"/>
    <path d="M0,0 L0,20 L20,10 Z" class="cell_$auto$aigmap.cc:132:execute$62"/>
    <circle cx="23" cy="10" r="3" class="cell_$auto$aigmap.cc:132:execute$62"/>
    <g s:x="0" s:y="10" s:pid="A"/>
    <g s:x="25" s:y="10" s:pid="Y"/>
  </g>
  <g s:type="not" transform="translate(572,302)" s:width="30" s:height="20" id="cell_$auto$aigmap.cc:132:execute$66">
    <s:alias val="$_NOT_"/>
    <s:alias val="$not"/>
    <s:alias val="$logic_not"/>
    <path d="M0,0 L0,20 L20,10 Z" class="cell_$auto$aigmap.cc:132:execute$66"/>
    <circle cx="23" cy="10" r="3" class="cell_$auto$aigmap.cc:132:execute$66"/>
    <g s:x="0" s:y="10" s:pid="A"/>
    <g s:x="25" s:y="10" s:pid="Y"/>
  </g>
  <g s:type="inputExt" transform="translate(77,147)" s:width="30" s:height="20" id="cell_in">
    <text x="15" y="-4" class="nodelabel cell_in" s:attribute="ref">in</text>
    <s:alias val="$_inputExt_"/>
    <path d="M0,0 L0,20 L15,20 L30,10 L15,0 Z" class="cell_in"/>
    <g s:x="28" s:y="10" s:pid="Y"/>
  </g>
  <g s:type="inputExt" transform="translate(12,32.5)" s:width="30" s:height="20" id="cell_state">
    <text x="15" y="-4" class="nodelabel cell_state" s:attribute="ref">state</text>
    <s:alias val="$_inputExt_"/>
    <path d="M0,0 L0,20 L15,20 L30,10 L15,0 Z" class="cell_state"/>
    <g s:x="28" s:y="10" s:pid="Y"/>
  </g>
  <g s:type="outputExt" transform="translate(685,272)" s:width="30" s:height="20" id="cell_next_state">
    <text x="15" y="-4" class="nodelabel cell_next_state" s:attribute="ref">next_state</text>
    <s:alias val="$_outputExt_"/>
    <path d="M30,0 L30,20 L15,20 L0,10 L15,0 Z" class="cell_next_state"/>
    <g s:x="0" s:y="10" s:pid="A"/>
  </g>
  <g s:type="outputExt" transform="translate(685,382)" s:width="30" s:height="20" id="cell_out">
    <text x="15" y="-4" class="nodelabel cell_out" s:attribute="ref">out</text>
    <s:alias val="$_outputExt_"/>
    <path d="M30,0 L30,20 L15,20 L0,10 L15,0 Z" class="cell_out"/>
    <g s:x="0" s:y="10" s:pid="A"/>
  </g>
  <g s:type="join" transform="translate(644,261.5)" s:width="4" s:height="40" id="cell_$join$,7,8,9,10,">
    <rect width="5" height="80" class="splitjoinBody" s:generic="body"/>
    <s:alias val="$_join_"/>
    <g s:x="5" s:y="20" s:pid="out"/>
    <g transform="translate(0,10)" s:x="0" s:y="10" s:pid="in0">
      <text x="-3" y="-4" class="inputPortLabel">0</text>
    </g>
    <g transform="translate(0,30)" s:x="0" s:y="10" s:pid="in0">
      <text x="-3" y="-4" class="inputPortLabel">1</text>
    </g>
    <g transform="translate(0,50)" s:x="0" s:y="10" s:pid="in0">
      <text x="-3" y="-4" class="inputPortLabel">2</text>
    </g>
    <g transform="translate(0,70)" s:x="0" s:y="10" s:pid="in0">
      <text x="-3" y="-4" class="inputPortLabel">3</text>
    </g>
  </g>
  <g s:type="split" transform="translate(92.8,22)" s:width="5" s:height="40" id="cell_$split$,3,4,5,6,">
    <rect width="5" height="80" class="splitjoinBody" s:generic="body"/>
    <s:alias val="$_split_"/>
    <g s:x="0" s:y="20" s:pid="in"/>
    <g transform="translate(4,10)" s:x="4" s:y="10" s:pid="out0">
      <text x="5" y="-4">0</text>
    </g>
    <g transform="translate(4,30)" s:x="4" s:y="10" s:pid="out0">
      <text x="5" y="-4">2</text>
    </g>
    <g transform="translate(4,50)" s:x="4" s:y="10" s:pid="out0">
      <text x="5" y="-4">1</text>
    </g>
    <g transform="translate(4,70)" s:x="4" s:y="10" s:pid="out0">
      <text x="5" y="-4">3</text>
    </g>
  </g>
  <line x1="97.8" x2="157" y1="32.5" y2="32.5" class="net_3"/>
  <line x1="157" x2="157" y1="32.5" y2="49" class="net_3"/>
  <line x1="157" x2="367" y1="49" y2="49" class="net_3"/>
  <line x1="367" x2="367" y1="49" y2="77" class="net_3"/>
  <circle cx="157" cy="49" r="2" style="fill:#000" class="net_3"/>
  <line x1="367" x2="377" y1="77" y2="77" class="net_3"/>
  <line x1="97.8" x2="157" y1="32.5" y2="32.5" class="net_3"/>
  <line x1="157" x2="157" y1="32.5" y2="202" class="net_3"/>
  <line x1="157" x2="167" y1="202" y2="202" class="net_3"/>
  <line x1="322" x2="377" y1="92" y2="92" class="net_11"/>
  <line x1="322" x2="357" y1="92" y2="92" class="net_11"/>
  <line x1="357" x2="357" y1="92" y2="32" class="net_11"/>
  <circle cx="357" cy="92" r="2" style="fill:#000" class="net_11"/>
  <line x1="357" x2="377" y1="32" y2="32" class="net_11"/>
  <line x1="322" x2="357" y1="92" y2="92" class="net_11"/>
  <line x1="357" x2="357" y1="92" y2="327" class="net_11"/>
  <line x1="357" x2="377" y1="327" y2="327" class="net_11"/>
  <line x1="322" x2="357" y1="92" y2="92" class="net_11"/>
  <line x1="357" x2="357" y1="92" y2="267" class="net_11"/>
  <circle cx="357" cy="267" r="2" style="fill:#000" class="net_11"/>
  <line x1="357" x2="377" y1="267" y2="267" class="net_11"/>
  <line x1="97.8" x2="117" y1="52.5" y2="52.5" class="net_5"/>
  <line x1="117" x2="117" y1="52.5" y2="17" class="net_5"/>
  <circle cx="117" cy="52.5" r="2" style="fill:#000" class="net_5"/>
  <line x1="117" x2="377" y1="17" y2="17" class="net_5"/>
  <line x1="97.8" x2="117" y1="52.5" y2="52.5" class="net_5"/>
  <line x1="117" x2="117" y1="52.5" y2="362" class="net_5"/>
  <line x1="117" x2="572" y1="362" y2="362" class="net_5"/>
  <line x1="105" x2="147" y1="157" y2="157" class="net_2"/>
  <line x1="147" x2="147" y1="157" y2="217" class="net_2"/>
  <circle cx="147" cy="157" r="2" style="fill:#000" class="net_2"/>
  <circle cx="147" cy="217" r="2" style="fill:#000" class="net_2"/>
  <line x1="147" x2="167" y1="217" y2="217" class="net_2"/>
  <line x1="105" x2="167" y1="157" y2="157" class="net_2"/>
  <line x1="105" x2="147" y1="157" y2="157" class="net_2"/>
  <line x1="147" x2="147" y1="157" y2="92" class="net_2"/>
  <line x1="147" x2="272" y1="92" y2="92" class="net_2"/>
  <line x1="272" x2="272" y1="92" y2="71" class="net_2"/>
  <line x1="272" x2="337" y1="71" y2="71" class="net_2"/>
  <line x1="337" x2="337" y1="71" y2="152" class="net_2"/>
  <circle cx="272" cy="92" r="2" style="fill:#000" class="net_2"/>
  <line x1="337" x2="377" y1="152" y2="152" class="net_2"/>
  <line x1="105" x2="147" y1="157" y2="157" class="net_2"/>
  <line x1="147" x2="147" y1="157" y2="377" class="net_2"/>
  <line x1="147" x2="572" y1="377" y2="377" class="net_2"/>
  <line x1="105" x2="147" y1="157" y2="157" class="net_2"/>
  <line x1="147" x2="147" y1="157" y2="92" class="net_2"/>
  <line x1="147" x2="297" y1="92" y2="92" class="net_2"/>
  <line x1="97.8" x2="137" y1="72.5" y2="72.5" class="net_4"/>
  <line x1="137" x2="137" y1="72.5" y2="142" class="net_4"/>
  <circle cx="137" cy="142" r="2" style="fill:#000" class="net_4"/>
  <line x1="137" x2="167" y1="142" y2="142" class="net_4"/>
  <line x1="97.8" x2="137" y1="72.5" y2="72.5" class="net_4"/>
  <line x1="137" x2="137" y1="72.5" y2="312" class="net_4"/>
  <line x1="137" x2="377" y1="312" y2="312" class="net_4"/>
  <line x1="97.8" x2="127" y1="92.5" y2="92.5" class="net_6"/>
  <line x1="127" x2="127" y1="92.5" y2="60" class="net_6"/>
  <line x1="127" x2="347" y1="60" y2="60" class="net_6"/>
  <line x1="347" x2="347" y1="60" y2="137" class="net_6"/>
  <circle cx="127" cy="92.5" r="2" style="fill:#000" class="net_6"/>
  <line x1="347" x2="377" y1="137" y2="137" class="net_6"/>
  <line x1="97.8" x2="127" y1="92.5" y2="92.5" class="net_6"/>
  <line x1="127" x2="127" y1="92.5" y2="252" class="net_6"/>
  <circle cx="127" cy="252" r="2" style="fill:#000" class="net_6"/>
  <line x1="127" x2="377" y1="252" y2="252" class="net_6"/>
  <line x1="97.8" x2="127" y1="92.5" y2="92.5" class="net_6"/>
  <line x1="127" x2="127" y1="92.5" y2="392" class="net_6"/>
  <line x1="127" x2="685" y1="392" y2="392" class="net_6"/>
  <line x1="467" x2="482" y1="24.5" y2="24.5" class="net_19"/>
  <line x1="482" x2="482" y1="24.5" y2="69.5" class="net_19"/>
  <line x1="482" x2="507" y1="69.5" y2="69.5" class="net_19"/>
  <line x1="467" x2="507" y1="84.5" y2="84.5" class="net_20"/>
  <line x1="467" x2="482" y1="144.5" y2="144.5" class="net_22"/>
  <line x1="482" x2="482" y1="144.5" y2="187" class="net_22"/>
  <line x1="482" x2="507" y1="187" y2="187" class="net_22"/>
  <line x1="467" x2="507" y1="202" y2="202" class="net_23"/>
  <line x1="257" x2="272" y1="149.5" y2="149.5" class="net_25"/>
  <line x1="272" x2="272" y1="149.5" y2="194.5" class="net_25"/>
  <line x1="272" x2="297" y1="194.5" y2="194.5" class="net_25"/>
  <line x1="257" x2="297" y1="209.5" y2="209.5" class="net_26"/>
  <line x1="467" x2="482" y1="259.5" y2="259.5" class="net_28"/>
  <line x1="482" x2="482" y1="259.5" y2="304.5" class="net_28"/>
  <line x1="482" x2="507" y1="304.5" y2="304.5" class="net_28"/>
  <line x1="467" x2="507" y1="319.5" y2="319.5" class="net_29"/>
  <line x1="407" x2="442" y1="24.5" y2="24.5" class="net_13"/>
  <line x1="407" x2="442" y1="84.5" y2="84.5" class="net_12"/>
  <line x1="537" x2="572" y1="77" y2="77" class="net_21"/>
  <line x1="407" x2="442" y1="144.5" y2="144.5" class="net_16"/>
  <line x1="402" x2="442" y1="202" y2="202" class="net_31"/>
  <line x1="537" x2="572" y1="194.5" y2="194.5" class="net_24"/>
  <line x1="197" x2="232" y1="149.5" y2="149.5" class="net_15"/>
  <line x1="197" x2="232" y1="209.5" y2="209.5" class="net_14"/>
  <line x1="327" x2="377" y1="202" y2="202" class="net_27"/>
  <line x1="407" x2="442" y1="259.5" y2="259.5" class="net_18"/>
  <line x1="407" x2="442" y1="319.5" y2="319.5" class="net_17"/>
  <line x1="537" x2="572" y1="312" y2="312" class="net_30"/>
  <line x1="650" x2="685" y1="282" y2="282" class="net_7,8,9,10"/>
  <line x1="597" x2="622" y1="77" y2="77" class="net_7"/>
  <line x1="622" x2="622" y1="77" y2="272" class="net_7"/>
  <line x1="622" x2="644" y1="272" y2="272" class="net_7"/>
  <line x1="597" x2="612" y1="194.5" y2="194.5" class="net_8"/>
  <line x1="612" x2="612" y1="194.5" y2="292" class="net_8"/>
  <line x1="612" x2="644" y1="292" y2="292" class="net_8"/>
  <line x1="597" x2="644" y1="312" y2="312" class="net_9"/>
  <line x1="602" x2="644.5" y1="369.5" y2="369.5" class="net_10"/>
  <line x1="644.5" x2="644.5" y1="369.5" y2="332.5" class="net_10"/>
  <line x1="40" x2="92.8" y1="42.5" y2="42.5" class="net_3,4,5,6"/>
</svg>
