<?xml version="1.0" encoding="UTF-8" standalone="no"?>
<!DOCTYPE svg PUBLIC "-//W3C//DTD SVG 1.1//EN"
 "http://www.w3.org/Graphics/SVG/1.1/DTD/svg11.dtd">
<!-- Generated by graphviz version 4.0.0 (20220529.0937)
 -->
<!-- Title: top_module Pages: 1 -->
<svg width="664pt" height="872pt"
 viewBox="0.00 0.00 663.80 871.50" xmlns="http://www.w3.org/2000/svg" xmlns:xlink="http://www.w3.org/1999/xlink">
<g id="graph0" class="graph" transform="scale(1 1) rotate(0) translate(4 867.5)">
<title>top_module</title>
<polygon fill="white" stroke="transparent" points="-4,4 -4,-867.5 659.8,-867.5 659.8,4 -4,4"/>
<text text-anchor="middle" x="327.9" y="-7.8" font-family="Times New Roman,serif" font-size="14.00">top_module</text>
<!-- n1 -->
<g id="node1" class="node">
<title>n1</title>
<polygon fill="none" stroke="black" points="56.55,-372.04 56.55,-386.96 40.73,-397.5 18.36,-397.5 2.55,-386.96 2.55,-372.04 18.36,-361.5 40.73,-361.5 56.55,-372.04"/>
<text text-anchor="middle" x="29.55" y="-375.8" font-family="Times New Roman,serif" font-size="14.00">in</text>
</g>
<!-- c10 -->
<g id="node6" class="node">
<title>c10</title>
<polygon fill="none" stroke="black" points="193.09,-701.5 193.09,-793.5 419.09,-793.5 419.09,-701.5 193.09,-701.5"/>
<text text-anchor="middle" x="207.09" y="-778.3" font-family="Times New Roman,serif" font-size="14.00">I0</text>
<polyline fill="none" stroke="black" points="193.09,-770.5 221.09,-770.5 "/>
<text text-anchor="middle" x="207.09" y="-755.3" font-family="Times New Roman,serif" font-size="14.00">I1</text>
<polyline fill="none" stroke="black" points="193.09,-747.5 221.09,-747.5 "/>
<text text-anchor="middle" x="207.09" y="-732.3" font-family="Times New Roman,serif" font-size="14.00">I2</text>
<polyline fill="none" stroke="black" points="193.09,-724.5 221.09,-724.5 "/>
<text text-anchor="middle" x="207.09" y="-709.3" font-family="Times New Roman,serif" font-size="14.00">I3</text>
<polyline fill="none" stroke="black" points="221.09,-701.5 221.09,-793.5 "/>
<text text-anchor="middle" x="306.59" y="-751.3" font-family="Times New Roman,serif" font-size="14.00">next_state_SB_LUT4_O_3</text>
<text text-anchor="middle" x="306.59" y="-736.3" font-family="Times New Roman,serif" font-size="14.00">SB_LUT4</text>
<polyline fill="none" stroke="black" points="392.09,-701.5 392.09,-793.5 "/>
<text text-anchor="middle" x="405.59" y="-743.8" font-family="Times New Roman,serif" font-size="14.00">O</text>
</g>
<!-- n1&#45;&gt;c10 -->
<g id="edge13" class="edge">
<title>n1:e&#45;&gt;c10:w</title>
<path fill="none" stroke="#d95f02" d="M57.55,-379.5C110.43,-379.5 65.94,-570.38 95.09,-614.5 113.04,-641.66 134.23,-630.32 157.09,-653.5 175.8,-672.46 166.03,-702.91 183.14,-710.66"/>
<polygon fill="#d95f02" stroke="#d95f02" points="182.62,-714.12 193.09,-712.5 183.9,-707.24 182.62,-714.12"/>
</g>
<!-- c11 -->
<g id="node11" class="node">
<title>c11</title>
<polygon fill="none" stroke="black" points="193.09,-325.5 193.09,-417.5 419.09,-417.5 419.09,-325.5 193.09,-325.5"/>
<text text-anchor="middle" x="207.09" y="-402.3" font-family="Times New Roman,serif" font-size="14.00">I0</text>
<polyline fill="none" stroke="black" points="193.09,-394.5 221.09,-394.5 "/>
<text text-anchor="middle" x="207.09" y="-379.3" font-family="Times New Roman,serif" font-size="14.00">I1</text>
<polyline fill="none" stroke="black" points="193.09,-371.5 221.09,-371.5 "/>
<text text-anchor="middle" x="207.09" y="-356.3" font-family="Times New Roman,serif" font-size="14.00">I2</text>
<polyline fill="none" stroke="black" points="193.09,-348.5 221.09,-348.5 "/>
<text text-anchor="middle" x="207.09" y="-333.3" font-family="Times New Roman,serif" font-size="14.00">I3</text>
<polyline fill="none" stroke="black" points="221.09,-325.5 221.09,-417.5 "/>
<text text-anchor="middle" x="306.59" y="-375.3" font-family="Times New Roman,serif" font-size="14.00">next_state_SB_LUT4_O_1</text>
<text text-anchor="middle" x="306.59" y="-360.3" font-family="Times New Roman,serif" font-size="14.00">SB_LUT4</text>
<polyline fill="none" stroke="black" points="392.09,-325.5 392.09,-417.5 "/>
<text text-anchor="middle" x="405.59" y="-367.8" font-family="Times New Roman,serif" font-size="14.00">O</text>
</g>
<!-- n1&#45;&gt;c11 -->
<g id="edge14" class="edge">
<title>n1:e&#45;&gt;c11:w</title>
<path fill="none" stroke="#d95f02" d="M57.55,-379.5C96.42,-379.5 62.23,-321.27 95.09,-300.5 118.39,-285.78 131.64,-289.95 157.09,-300.5 174.08,-307.54 172.29,-326.9 183.16,-333.92"/>
<polygon fill="#d95f02" stroke="#d95f02" points="182.53,-337.37 193.09,-336.5 184.29,-330.6 182.53,-337.37"/>
</g>
<!-- c12 -->
<g id="node17" class="node">
<title>c12</title>
<polygon fill="none" stroke="black" points="200.09,-123.5 200.09,-215.5 412.09,-215.5 412.09,-123.5 200.09,-123.5"/>
<text text-anchor="middle" x="214.09" y="-200.3" font-family="Times New Roman,serif" font-size="14.00">I0</text>
<polyline fill="none" stroke="black" points="200.09,-192.5 228.09,-192.5 "/>
<text text-anchor="middle" x="214.09" y="-177.3" font-family="Times New Roman,serif" font-size="14.00">I1</text>
<polyline fill="none" stroke="black" points="200.09,-169.5 228.09,-169.5 "/>
<text text-anchor="middle" x="214.09" y="-154.3" font-family="Times New Roman,serif" font-size="14.00">I2</text>
<polyline fill="none" stroke="black" points="200.09,-146.5 228.09,-146.5 "/>
<text text-anchor="middle" x="214.09" y="-131.3" font-family="Times New Roman,serif" font-size="14.00">I3</text>
<polyline fill="none" stroke="black" points="228.09,-123.5 228.09,-215.5 "/>
<text text-anchor="middle" x="306.59" y="-173.3" font-family="Times New Roman,serif" font-size="14.00">next_state_SB_LUT4_O</text>
<text text-anchor="middle" x="306.59" y="-158.3" font-family="Times New Roman,serif" font-size="14.00">SB_LUT4</text>
<polyline fill="none" stroke="black" points="385.09,-123.5 385.09,-215.5 "/>
<text text-anchor="middle" x="398.59" y="-165.8" font-family="Times New Roman,serif" font-size="14.00">O</text>
</g>
<!-- n1&#45;&gt;c12 -->
<g id="edge15" class="edge">
<title>n1:e&#45;&gt;c12:w</title>
<path fill="none" stroke="#d95f02" d="M57.55,-379.5C108.24,-379.5 56.41,-187.26 95.09,-154.5 127.69,-126.89 149.35,-152.85 188.92,-156.97"/>
<polygon fill="#d95f02" stroke="#d95f02" points="188.92,-160.47 199.09,-157.5 189.29,-153.48 188.92,-160.47"/>
</g>
<!-- c13 -->
<g id="node20" class="node">
<title>c13</title>
<polygon fill="none" stroke="black" points="193.09,-497.5 193.09,-589.5 419.09,-589.5 419.09,-497.5 193.09,-497.5"/>
<text text-anchor="middle" x="207.09" y="-574.3" font-family="Times New Roman,serif" font-size="14.00">I0</text>
<polyline fill="none" stroke="black" points="193.09,-566.5 221.09,-566.5 "/>
<text text-anchor="middle" x="207.09" y="-551.3" font-family="Times New Roman,serif" font-size="14.00">I1</text>
<polyline fill="none" stroke="black" points="193.09,-543.5 221.09,-543.5 "/>
<text text-anchor="middle" x="207.09" y="-528.3" font-family="Times New Roman,serif" font-size="14.00">I2</text>
<polyline fill="none" stroke="black" points="193.09,-520.5 221.09,-520.5 "/>
<text text-anchor="middle" x="207.09" y="-505.3" font-family="Times New Roman,serif" font-size="14.00">I3</text>
<polyline fill="none" stroke="black" points="221.09,-497.5 221.09,-589.5 "/>
<text text-anchor="middle" x="306.59" y="-547.3" font-family="Times New Roman,serif" font-size="14.00">next_state_SB_LUT4_O_2</text>
<text text-anchor="middle" x="306.59" y="-532.3" font-family="Times New Roman,serif" font-size="14.00">SB_LUT4</text>
<polyline fill="none" stroke="black" points="392.09,-497.5 392.09,-589.5 "/>
<text text-anchor="middle" x="405.59" y="-539.8" font-family="Times New Roman,serif" font-size="14.00">O</text>
</g>
<!-- n1&#45;&gt;c13 -->
<g id="edge16" class="edge">
<title>n1:e&#45;&gt;c13:w</title>
<path fill="none" stroke="#d95f02" d="M57.55,-379.5C99.25,-379.5 65.63,-435.98 95.09,-465.5 109.86,-480.29 156,-502.3 183.11,-507.41"/>
<polygon fill="#d95f02" stroke="#d95f02" points="182.77,-510.9 193.09,-508.5 183.53,-503.94 182.77,-510.9"/>
</g>
<!-- n2 -->
<g id="node2" class="node">
<title>n2</title>
<polygon fill="none" stroke="black" points="655.66,-449.04 655.66,-463.96 625.66,-474.5 583.24,-474.5 553.24,-463.96 553.24,-449.04 583.24,-438.5 625.66,-438.5 655.66,-449.04"/>
<text text-anchor="middle" x="604.45" y="-452.8" font-family="Times New Roman,serif" font-size="14.00">next_state</text>
</g>
<!-- n3 -->
<g id="node3" class="node">
<title>n3</title>
<polygon fill="none" stroke="black" points="631.45,-34.04 631.45,-48.96 615.63,-59.5 593.26,-59.5 577.45,-48.96 577.45,-34.04 593.26,-23.5 615.63,-23.5 631.45,-34.04"/>
<text text-anchor="middle" x="604.45" y="-37.8" font-family="Times New Roman,serif" font-size="14.00">out</text>
</g>
<!-- n4 -->
<g id="node4" class="node">
<title>n4</title>
<polygon fill="none" stroke="black" points="59.14,-524.04 59.14,-538.96 41.8,-549.5 17.29,-549.5 -0.05,-538.96 -0.05,-524.04 17.29,-513.5 41.8,-513.5 59.14,-524.04"/>
<text text-anchor="middle" x="29.55" y="-527.8" font-family="Times New Roman,serif" font-size="14.00">state</text>
</g>
<!-- x1 -->
<g id="node7" class="node">
<title>x1</title>
<path fill="none" stroke="black" d="M107.09,-772.5C107.09,-772.5 145.09,-772.5 145.09,-772.5 151.09,-772.5 157.09,-778.5 157.09,-784.5 157.09,-784.5 157.09,-796.5 157.09,-796.5 157.09,-802.5 151.09,-808.5 145.09,-808.5 145.09,-808.5 107.09,-808.5 107.09,-808.5 101.09,-808.5 95.09,-802.5 95.09,-796.5 95.09,-796.5 95.09,-784.5 95.09,-784.5 95.09,-778.5 101.09,-772.5 107.09,-772.5"/>
<text text-anchor="middle" x="126.09" y="-786.8" font-family="Times New Roman,serif" font-size="14.00">2:2 &#45; 0:0</text>
</g>
<!-- n4&#45;&gt;x1 -->
<g id="edge27" class="edge">
<title>n4:e&#45;&gt;x1:w</title>
<path fill="none" stroke="#1b9e77" d="M59.09,-531.5C113.34,-531.5 47.03,-757.24 85.27,-787.23"/>
<polygon fill="#1b9e77" stroke="#1b9e77" points="84.5,-790.66 95.09,-790.5 86.71,-784.02 84.5,-790.66"/>
</g>
<!-- x2 -->
<g id="node8" class="node">
<title>x2</title>
<path fill="none" stroke="black" d="M107.09,-717.5C107.09,-717.5 145.09,-717.5 145.09,-717.5 151.09,-717.5 157.09,-723.5 157.09,-729.5 157.09,-729.5 157.09,-741.5 157.09,-741.5 157.09,-747.5 151.09,-753.5 145.09,-753.5 145.09,-753.5 107.09,-753.5 107.09,-753.5 101.09,-753.5 95.09,-747.5 95.09,-741.5 95.09,-741.5 95.09,-729.5 95.09,-729.5 95.09,-723.5 101.09,-717.5 107.09,-717.5"/>
<text text-anchor="middle" x="126.09" y="-731.8" font-family="Times New Roman,serif" font-size="14.00">0:0 &#45; 0:0</text>
</g>
<!-- n4&#45;&gt;x2 -->
<g id="edge28" class="edge">
<title>n4:e&#45;&gt;x2:w</title>
<path fill="none" stroke="#1b9e77" d="M59.09,-531.5C147.38,-531.5 14.77,-719.11 84.94,-734.5"/>
<polygon fill="#1b9e77" stroke="#1b9e77" points="84.8,-738 95.09,-735.5 85.49,-731.03 84.8,-738"/>
</g>
<!-- x5 -->
<g id="node12" class="node">
<title>x5</title>
<path fill="none" stroke="black" d="M107.09,-365.5C107.09,-365.5 145.09,-365.5 145.09,-365.5 151.09,-365.5 157.09,-371.5 157.09,-377.5 157.09,-377.5 157.09,-389.5 157.09,-389.5 157.09,-395.5 151.09,-401.5 145.09,-401.5 145.09,-401.5 107.09,-401.5 107.09,-401.5 101.09,-401.5 95.09,-395.5 95.09,-389.5 95.09,-389.5 95.09,-377.5 95.09,-377.5 95.09,-371.5 101.09,-365.5 107.09,-365.5"/>
<text text-anchor="middle" x="126.09" y="-379.8" font-family="Times New Roman,serif" font-size="14.00">3:3 &#45; 0:0</text>
</g>
<!-- n4&#45;&gt;x5 -->
<g id="edge29" class="edge">
<title>n4:e&#45;&gt;x5:w</title>
<path fill="none" stroke="#1b9e77" d="M59.09,-531.5C122.95,-531.5 38.12,-399.79 85.14,-384.87"/>
<polygon fill="#1b9e77" stroke="#1b9e77" points="85.66,-388.33 95.09,-383.5 84.71,-381.4 85.66,-388.33"/>
</g>
<!-- x6 -->
<g id="node13" class="node">
<title>x6</title>
<path fill="none" stroke="black" d="M107.09,-310.5C107.09,-310.5 145.09,-310.5 145.09,-310.5 151.09,-310.5 157.09,-316.5 157.09,-322.5 157.09,-322.5 157.09,-334.5 157.09,-334.5 157.09,-340.5 151.09,-346.5 145.09,-346.5 145.09,-346.5 107.09,-346.5 107.09,-346.5 101.09,-346.5 95.09,-340.5 95.09,-334.5 95.09,-334.5 95.09,-322.5 95.09,-322.5 95.09,-316.5 101.09,-310.5 107.09,-310.5"/>
<text text-anchor="middle" x="126.09" y="-324.8" font-family="Times New Roman,serif" font-size="14.00">1:1 &#45; 0:0</text>
</g>
<!-- n4&#45;&gt;x6 -->
<g id="edge30" class="edge">
<title>n4:e&#45;&gt;x6:w</title>
<path fill="none" stroke="#1b9e77" d="M59.09,-531.5C146.97,-531.5 15.14,-344.81 84.99,-329.5"/>
<polygon fill="#1b9e77" stroke="#1b9e77" points="85.49,-332.96 95.09,-328.5 84.8,-326 85.49,-332.96"/>
</g>
<!-- x10 -->
<g id="node18" class="node">
<title>x10</title>
<path fill="none" stroke="black" d="M107.09,-70.5C107.09,-70.5 145.09,-70.5 145.09,-70.5 151.09,-70.5 157.09,-76.5 157.09,-82.5 157.09,-82.5 157.09,-94.5 157.09,-94.5 157.09,-100.5 151.09,-106.5 145.09,-106.5 145.09,-106.5 107.09,-106.5 107.09,-106.5 101.09,-106.5 95.09,-100.5 95.09,-94.5 95.09,-94.5 95.09,-82.5 95.09,-82.5 95.09,-76.5 101.09,-70.5 107.09,-70.5"/>
<text text-anchor="middle" x="126.09" y="-84.8" font-family="Times New Roman,serif" font-size="14.00">2:2 &#45; 0:0</text>
</g>
<!-- n4&#45;&gt;x10 -->
<g id="edge22" class="edge">
<title>n4:e&#45;&gt;x10:w</title>
<path fill="none" stroke="#1b9e77" d="M59.09,-531.5C154.2,-531.5 7.96,-120.77 85.15,-90.28"/>
<polygon fill="#1b9e77" stroke="#1b9e77" points="85.87,-93.71 95.09,-88.5 84.63,-86.82 85.87,-93.71"/>
</g>
<!-- x12 -->
<g id="node21" class="node">
<title>x12</title>
<path fill="none" stroke="black" d="M107.09,-662.5C107.09,-662.5 145.09,-662.5 145.09,-662.5 151.09,-662.5 157.09,-668.5 157.09,-674.5 157.09,-674.5 157.09,-686.5 157.09,-686.5 157.09,-692.5 151.09,-698.5 145.09,-698.5 145.09,-698.5 107.09,-698.5 107.09,-698.5 101.09,-698.5 95.09,-692.5 95.09,-686.5 95.09,-686.5 95.09,-674.5 95.09,-674.5 95.09,-668.5 101.09,-662.5 107.09,-662.5"/>
<text text-anchor="middle" x="126.09" y="-676.8" font-family="Times New Roman,serif" font-size="14.00">3:3 &#45; 0:0</text>
</g>
<!-- n4&#45;&gt;x12 -->
<g id="edge23" class="edge">
<title>n4:e&#45;&gt;x12:w</title>
<path fill="none" stroke="#1b9e77" d="M59.09,-531.5C123.36,-531.5 37.78,-664.1 85.08,-679.12"/>
<polygon fill="#1b9e77" stroke="#1b9e77" points="84.71,-682.6 95.09,-680.5 85.66,-675.67 84.71,-682.6"/>
</g>
<!-- x13 -->
<g id="node22" class="node">
<title>x13</title>
<path fill="none" stroke="black" d="M107.09,-568.5C107.09,-568.5 145.09,-568.5 145.09,-568.5 151.09,-568.5 157.09,-574.5 157.09,-580.5 157.09,-580.5 157.09,-592.5 157.09,-592.5 157.09,-598.5 151.09,-604.5 145.09,-604.5 145.09,-604.5 107.09,-604.5 107.09,-604.5 101.09,-604.5 95.09,-598.5 95.09,-592.5 95.09,-592.5 95.09,-580.5 95.09,-580.5 95.09,-574.5 101.09,-568.5 107.09,-568.5"/>
<text text-anchor="middle" x="126.09" y="-582.8" font-family="Times New Roman,serif" font-size="14.00">0:0 &#45; 0:0</text>
</g>
<!-- n4&#45;&gt;x13 -->
<g id="edge24" class="edge">
<title>n4:e&#45;&gt;x13:w</title>
<path fill="none" stroke="#1b9e77" d="M59.09,-531.5C83.97,-531.5 71.4,-571.38 85.16,-583.22"/>
<polygon fill="#1b9e77" stroke="#1b9e77" points="84.5,-586.69 95.09,-586.5 86.69,-580.04 84.5,-586.69"/>
</g>
<!-- x14 -->
<g id="node23" class="node">
<title>x14</title>
<path fill="none" stroke="black" d="M107.09,-513.5C107.09,-513.5 145.09,-513.5 145.09,-513.5 151.09,-513.5 157.09,-519.5 157.09,-525.5 157.09,-525.5 157.09,-537.5 157.09,-537.5 157.09,-543.5 151.09,-549.5 145.09,-549.5 145.09,-549.5 107.09,-549.5 107.09,-549.5 101.09,-549.5 95.09,-543.5 95.09,-537.5 95.09,-537.5 95.09,-525.5 95.09,-525.5 95.09,-519.5 101.09,-513.5 107.09,-513.5"/>
<text text-anchor="middle" x="126.09" y="-527.8" font-family="Times New Roman,serif" font-size="14.00">1:1 &#45; 0:0</text>
</g>
<!-- n4&#45;&gt;x14 -->
<g id="edge25" class="edge">
<title>n4:e&#45;&gt;x14:w</title>
<path fill="none" stroke="#1b9e77" d="M59.09,-531.5C71.09,-531.5 76.34,-531.5 84.97,-531.5"/>
<polygon fill="#1b9e77" stroke="#1b9e77" points="85.09,-535 95.09,-531.5 85.09,-528 85.09,-535"/>
</g>
<!-- x16 -->
<g id="node25" class="node">
<title>x16</title>
<path fill="none" stroke="black" d="M287.09,-23.5C287.09,-23.5 325.09,-23.5 325.09,-23.5 331.09,-23.5 337.09,-29.5 337.09,-35.5 337.09,-35.5 337.09,-47.5 337.09,-47.5 337.09,-53.5 331.09,-59.5 325.09,-59.5 325.09,-59.5 287.09,-59.5 287.09,-59.5 281.09,-59.5 275.09,-53.5 275.09,-47.5 275.09,-47.5 275.09,-35.5 275.09,-35.5 275.09,-29.5 281.09,-23.5 287.09,-23.5"/>
<text text-anchor="middle" x="306.09" y="-37.8" font-family="Times New Roman,serif" font-size="14.00">3:3 &#45; 0:0</text>
</g>
<!-- n4&#45;&gt;x16 -->
<g id="edge26" class="edge">
<title>n4:e&#45;&gt;x16:w</title>
<path fill="none" stroke="#1b9e77" d="M59.09,-531.5C111.58,-531.5 58.53,-98.16 95.09,-60.5 148.43,-5.57 190.35,-38.38 263.98,-41.3"/>
<polygon fill="#1b9e77" stroke="#1b9e77" points="264.03,-44.8 274.09,-41.5 264.17,-37.8 264.03,-44.8"/>
</g>
<!-- v0 -->
<g id="node5" class="node">
<title>v0</title>
<ellipse fill="none" stroke="black" cx="126.09" cy="-845.5" rx="27" ry="18"/>
<text text-anchor="middle" x="126.09" y="-841.8" font-family="Times New Roman,serif" font-size="14.00">1&#39;0</text>
</g>
<!-- v0&#45;&gt;c10 -->
<g id="edge31" class="edge">
<title>v0:e&#45;&gt;c10:w</title>
<path fill="none" stroke="#1b9e77" d="M154.09,-845.5C182.91,-845.5 165.94,-797.27 183.31,-785.21"/>
<polygon fill="#1b9e77" stroke="#1b9e77" points="184.39,-788.54 193.09,-782.5 182.52,-781.79 184.39,-788.54"/>
</g>
<!-- x3 -->
<g id="node9" class="node">
<title>x3</title>
<path fill="none" stroke="black" d="M467.09,-654.5C467.09,-654.5 505.09,-654.5 505.09,-654.5 511.09,-654.5 517.09,-660.5 517.09,-666.5 517.09,-666.5 517.09,-678.5 517.09,-678.5 517.09,-684.5 511.09,-690.5 505.09,-690.5 505.09,-690.5 467.09,-690.5 467.09,-690.5 461.09,-690.5 455.09,-684.5 455.09,-678.5 455.09,-678.5 455.09,-666.5 455.09,-666.5 455.09,-660.5 461.09,-654.5 467.09,-654.5"/>
<text text-anchor="middle" x="486.09" y="-668.8" font-family="Times New Roman,serif" font-size="14.00">0:0 &#45; 0:0</text>
</g>
<!-- c10&#45;&gt;x3 -->
<g id="edge3" class="edge">
<title>c10:e&#45;&gt;x3:w</title>
<path fill="none" stroke="#1b9e77" d="M430.66,-743.47C444.22,-730.45 429.98,-689.6 443.5,-676.55"/>
<polygon fill="none" stroke="#1b9e77" points="430.42,-743.55 426.08,-749.3 419.09,-747.5 423.44,-741.75 430.42,-743.55"/>
<polygon fill="none" stroke="#1b9e77" points="443.77,-676.46 448.11,-670.7 455.09,-672.5 450.75,-678.26 443.77,-676.46"/>
</g>
<!-- x1&#45;&gt;c10 -->
<g id="edge1" class="edge">
<title>x1:e&#45;&gt;c10:w</title>
<path fill="none" stroke="#66a61e" d="M168.4,-785.93C174.04,-780.13 176.03,-770.19 181.57,-764.3"/>
<polygon fill="none" stroke="#66a61e" points="168.22,-786 164.16,-791.96 157.09,-790.5 161.16,-784.54 168.22,-786"/>
<polygon fill="none" stroke="#66a61e" points="182.02,-764.11 186.02,-758.11 193.09,-759.5 189.09,-765.5 182.02,-764.11"/>
</g>
<!-- x2&#45;&gt;c10 -->
<g id="edge2" class="edge">
<title>x2:e&#45;&gt;c10:w</title>
<path fill="none" stroke="#1b9e77" d="M169.31,-735.5C173.39,-735.5 176.83,-735.5 180.91,-735.5"/>
<polygon fill="none" stroke="#1b9e77" points="169.09,-735.5 163.09,-739.5 157.09,-735.5 163.09,-731.5 169.09,-735.5"/>
<polygon fill="none" stroke="#1b9e77" points="181.09,-735.5 187.09,-731.5 193.09,-735.5 187.09,-739.5 181.09,-735.5"/>
</g>
<!-- x3&#45;&gt;n2 -->
<g id="edge19" class="edge">
<title>x3:e&#45;&gt;n2:w</title>
<path fill="none" stroke="#d95f02" d="M517.09,-672.5C610.62,-672.5 467.77,-473.05 542.83,-457.46"/>
<polygon fill="#d95f02" stroke="#d95f02" points="543.46,-460.92 553.09,-456.5 542.81,-453.95 543.46,-460.92"/>
</g>
<!-- v4 -->
<g id="node10" class="node">
<title>v4</title>
<ellipse fill="none" stroke="black" cx="126.09" cy="-438.5" rx="27" ry="18"/>
<text text-anchor="middle" x="126.09" y="-434.8" font-family="Times New Roman,serif" font-size="14.00">1&#39;0</text>
</g>
<!-- v4&#45;&gt;c11 -->
<g id="edge32" class="edge">
<title>v4:e&#45;&gt;c11:w</title>
<path fill="none" stroke="#7570b3" d="M154.09,-438.5C172.49,-438.5 171.86,-416.97 183.42,-409.23"/>
<polygon fill="#7570b3" stroke="#7570b3" points="184.42,-412.58 193.09,-406.5 182.52,-405.85 184.42,-412.58"/>
</g>
<!-- x7 -->
<g id="node14" class="node">
<title>x7</title>
<path fill="none" stroke="black" d="M467.09,-382.5C467.09,-382.5 505.09,-382.5 505.09,-382.5 511.09,-382.5 517.09,-388.5 517.09,-394.5 517.09,-394.5 517.09,-406.5 517.09,-406.5 517.09,-412.5 511.09,-418.5 505.09,-418.5 505.09,-418.5 467.09,-418.5 467.09,-418.5 461.09,-418.5 455.09,-412.5 455.09,-406.5 455.09,-406.5 455.09,-394.5 455.09,-394.5 455.09,-388.5 461.09,-382.5 467.09,-382.5"/>
<text text-anchor="middle" x="486.09" y="-396.8" font-family="Times New Roman,serif" font-size="14.00">0:0 &#45; 2:2</text>
</g>
<!-- c11&#45;&gt;x7 -->
<g id="edge6" class="edge">
<title>c11:e&#45;&gt;x7:w</title>
<path fill="none" stroke="#e7298a" d="M430.5,-376.03C436.01,-381.51 438.26,-390.67 443.82,-396.1"/>
<polygon fill="none" stroke="#e7298a" points="430.25,-375.93 423.19,-377.43 419.09,-371.5 426.15,-370 430.25,-375.93"/>
<polygon fill="none" stroke="#e7298a" points="443.92,-396.13 450.96,-394.59 455.09,-400.5 448.05,-402.04 443.92,-396.13"/>
</g>
<!-- x5&#45;&gt;c11 -->
<g id="edge4" class="edge">
<title>x5:e&#45;&gt;c11:w</title>
<path fill="none" stroke="#7570b3" d="M169.31,-383.5C173.39,-383.5 176.83,-383.5 180.91,-383.5"/>
<polygon fill="none" stroke="#7570b3" points="169.09,-383.5 163.09,-387.5 157.09,-383.5 163.09,-379.5 169.09,-383.5"/>
<polygon fill="none" stroke="#7570b3" points="181.09,-383.5 187.09,-379.5 193.09,-383.5 187.09,-387.5 181.09,-383.5"/>
</g>
<!-- x6&#45;&gt;c11 -->
<g id="edge5" class="edge">
<title>x6:e&#45;&gt;c11:w</title>
<path fill="none" stroke="#e7298a" d="M168.4,-333.07C174.04,-338.87 176.03,-348.81 181.57,-354.7"/>
<polygon fill="none" stroke="#e7298a" points="168.22,-333 161.16,-334.46 157.09,-328.5 164.16,-327.04 168.22,-333"/>
<polygon fill="none" stroke="#e7298a" points="182.02,-354.89 189.09,-353.5 193.09,-359.5 186.02,-360.89 182.02,-354.89"/>
</g>
<!-- x7&#45;&gt;n2 -->
<g id="edge20" class="edge">
<title>x7:e&#45;&gt;n2:w</title>
<path fill="none" stroke="#d95f02" d="M517.09,-400.5C542.52,-400.5 528.98,-441.86 543.45,-453.49"/>
<polygon fill="#d95f02" stroke="#d95f02" points="542.5,-456.86 553.09,-456.5 544.59,-450.18 542.5,-456.86"/>
</g>
<!-- v8 -->
<g id="node15" class="node">
<title>v8</title>
<ellipse fill="none" stroke="black" cx="126.09" cy="-235.5" rx="27" ry="18"/>
<text text-anchor="middle" x="126.09" y="-231.8" font-family="Times New Roman,serif" font-size="14.00">1&#39;0</text>
</g>
<!-- v8&#45;&gt;c12 -->
<g id="edge33" class="edge">
<title>v8:e&#45;&gt;c12:w</title>
<path fill="none" stroke="#666666" d="M154.09,-235.5C174.4,-235.5 175.23,-213.84 189.14,-206.73"/>
<polygon fill="#666666" stroke="#666666" points="190.1,-210.1 199.09,-204.5 188.57,-203.27 190.1,-210.1"/>
</g>
<!-- v9 -->
<g id="node16" class="node">
<title>v9</title>
<ellipse fill="none" stroke="black" cx="126.09" cy="-181.5" rx="27" ry="18"/>
<text text-anchor="middle" x="126.09" y="-177.8" font-family="Times New Roman,serif" font-size="14.00">1&#39;0</text>
</g>
<!-- v9&#45;&gt;c12 -->
<g id="edge34" class="edge">
<title>v9:e&#45;&gt;c12:w</title>
<path fill="none" stroke="#a6761d" d="M154.09,-181.5C170.19,-181.5 176.57,-181.5 188.87,-181.5"/>
<polygon fill="#a6761d" stroke="#a6761d" points="189.09,-185 199.09,-181.5 189.09,-178 189.09,-185"/>
</g>
<!-- x11 -->
<g id="node19" class="node">
<title>x11</title>
<path fill="none" stroke="black" d="M467.09,-239.5C467.09,-239.5 505.09,-239.5 505.09,-239.5 511.09,-239.5 517.09,-245.5 517.09,-251.5 517.09,-251.5 517.09,-263.5 517.09,-263.5 517.09,-269.5 511.09,-275.5 505.09,-275.5 505.09,-275.5 467.09,-275.5 467.09,-275.5 461.09,-275.5 455.09,-269.5 455.09,-263.5 455.09,-263.5 455.09,-251.5 455.09,-251.5 455.09,-245.5 461.09,-239.5 467.09,-239.5"/>
<text text-anchor="middle" x="486.09" y="-253.8" font-family="Times New Roman,serif" font-size="14.00">0:0 &#45; 3:3</text>
</g>
<!-- c12&#45;&gt;x11 -->
<g id="edge8" class="edge">
<title>c12:e&#45;&gt;x11:w</title>
<path fill="none" stroke="#d95f02" d="M424.69,-172.63C444.51,-186.29 423.71,-240.55 443.42,-254.31"/>
<polygon fill="none" stroke="#d95f02" points="424.68,-172.63 417.84,-174.93 413.09,-169.5 419.93,-167.2 424.68,-172.63"/>
<polygon fill="none" stroke="#d95f02" points="443.52,-254.34 450.36,-252.06 455.09,-257.5 448.25,-259.78 443.52,-254.34"/>
</g>
<!-- x10&#45;&gt;c12 -->
<g id="edge7" class="edge">
<title>x10:e&#45;&gt;c12:w</title>
<path fill="none" stroke="#7570b3" d="M168.52,-92.42C178.5,-101.11 177.69,-121.91 187.68,-130.59"/>
<polygon fill="none" stroke="#7570b3" points="168.44,-92.4 161.47,-94.23 157.09,-88.5 164.07,-86.67 168.44,-92.4"/>
<polygon fill="none" stroke="#7570b3" points="187.74,-130.61 194.71,-128.77 199.09,-134.5 192.12,-136.34 187.74,-130.61"/>
</g>
<!-- x11&#45;&gt;n2 -->
<g id="edge17" class="edge">
<title>x11:e&#45;&gt;n2:w</title>
<path fill="none" stroke="#d95f02" d="M517.09,-257.5C603.11,-257.5 475.14,-439.77 542.76,-455.43"/>
<polygon fill="#d95f02" stroke="#d95f02" points="542.79,-458.95 553.09,-456.5 543.51,-451.99 542.79,-458.95"/>
</g>
<!-- x15 -->
<g id="node24" class="node">
<title>x15</title>
<path fill="none" stroke="black" d="M467.09,-495.5C467.09,-495.5 505.09,-495.5 505.09,-495.5 511.09,-495.5 517.09,-501.5 517.09,-507.5 517.09,-507.5 517.09,-519.5 517.09,-519.5 517.09,-525.5 511.09,-531.5 505.09,-531.5 505.09,-531.5 467.09,-531.5 467.09,-531.5 461.09,-531.5 455.09,-525.5 455.09,-519.5 455.09,-519.5 455.09,-507.5 455.09,-507.5 455.09,-501.5 461.09,-495.5 467.09,-495.5"/>
<text text-anchor="middle" x="486.09" y="-509.8" font-family="Times New Roman,serif" font-size="14.00">0:0 &#45; 1:1</text>
</g>
<!-- c13&#45;&gt;x15 -->
<g id="edge12" class="edge">
<title>c13:e&#45;&gt;x15:w</title>
<path fill="none" stroke="#e6ab02" d="M430.32,-539.07C435.97,-533.47 438.09,-523.85 443.65,-518.14"/>
<polygon fill="none" stroke="#e6ab02" points="430.26,-539.1 426.14,-545.02 419.09,-543.5 423.21,-537.58 430.26,-539.1"/>
<polygon fill="none" stroke="#e6ab02" points="443.97,-518.01 448.03,-512.05 455.09,-513.5 451.04,-519.46 443.97,-518.01"/>
</g>
<!-- x12&#45;&gt;c13 -->
<g id="edge9" class="edge">
<title>x12:e&#45;&gt;c13:w</title>
<path fill="none" stroke="#1b9e77" d="M168.95,-677.34C190.78,-662.14 159.37,-596.75 181.29,-581.63"/>
<polygon fill="none" stroke="#1b9e77" points="168.69,-677.4 163.92,-682.82 157.09,-680.5 161.86,-675.09 168.69,-677.4"/>
<polygon fill="none" stroke="#1b9e77" points="181.49,-581.57 186.27,-576.17 193.09,-578.5 188.32,-583.9 181.49,-581.57"/>
</g>
<!-- x13&#45;&gt;c13 -->
<g id="edge10" class="edge">
<title>x13:e&#45;&gt;c13:w</title>
<path fill="none" stroke="#1b9e77" d="M168.4,-581.93C174.04,-576.13 176.03,-566.19 181.57,-560.3"/>
<polygon fill="none" stroke="#1b9e77" points="168.22,-582 164.16,-587.96 157.09,-586.5 161.16,-580.54 168.22,-582"/>
<polygon fill="none" stroke="#1b9e77" points="182.02,-560.11 186.02,-554.11 193.09,-555.5 189.09,-561.5 182.02,-560.11"/>
</g>
<!-- x14&#45;&gt;c13 -->
<g id="edge11" class="edge">
<title>x14:e&#45;&gt;c13:w</title>
<path fill="none" stroke="#e6ab02" d="M169.31,-531.5C173.39,-531.5 176.83,-531.5 180.91,-531.5"/>
<polygon fill="none" stroke="#e6ab02" points="169.09,-531.5 163.09,-535.5 157.09,-531.5 163.09,-527.5 169.09,-531.5"/>
<polygon fill="none" stroke="#e6ab02" points="181.09,-531.5 187.09,-527.5 193.09,-531.5 187.09,-535.5 181.09,-531.5"/>
</g>
<!-- x15&#45;&gt;n2 -->
<g id="edge18" class="edge">
<title>x15:e&#45;&gt;n2:w</title>
<path fill="none" stroke="#d95f02" d="M517.09,-513.5C542.84,-513.5 528.79,-471.4 543.35,-459.56"/>
<polygon fill="#d95f02" stroke="#d95f02" points="544.6,-462.84 553.09,-456.5 542.5,-456.16 544.6,-462.84"/>
</g>
<!-- x16&#45;&gt;n3 -->
<g id="edge21" class="edge">
<title>x16:e&#45;&gt;n3:w</title>
<path fill="none" stroke="#d95f02" d="M338.09,-41.5C440.51,-41.5 468.67,-41.5 566.15,-41.5"/>
<polygon fill="#d95f02" stroke="#d95f02" points="566.45,-45 576.45,-41.5 566.45,-38 566.45,-45"/>
</g>
</g>
</svg>
