<?xml version="1.0" encoding="UTF-8" standalone="no"?>
<!DOCTYPE svg PUBLIC "-//W3C//DTD SVG 1.1//EN"
 "http://www.w3.org/Graphics/SVG/1.1/DTD/svg11.dtd">
<!-- Generated by graphviz version 4.0.0 (20220529.0937)
 -->
<!-- Title: top_module Pages: 1 -->
<svg width="822pt" height="691pt"
 viewBox="0.00 0.00 821.80 691.00" xmlns="http://www.w3.org/2000/svg" xmlns:xlink="http://www.w3.org/1999/xlink">
<g id="graph0" class="graph" transform="scale(1 1) rotate(0) translate(4 687)">
<title>top_module</title>
<polygon fill="white" stroke="transparent" points="-4,4 -4,-687 817.8,-687 817.8,4 -4,4"/>
<text text-anchor="middle" x="406.9" y="-7.8" font-family="Times New Roman,serif" font-size="14.00">top_module</text>
<!-- n10 -->
<g id="node1" class="node">
<title>n10</title>
<polygon fill="none" stroke="black" points="56.55,-422.04 56.55,-436.96 40.73,-447.5 18.36,-447.5 2.55,-436.96 2.55,-422.04 18.36,-411.5 40.73,-411.5 56.55,-422.04"/>
<text text-anchor="middle" x="29.55" y="-425.8" font-family="Times New Roman,serif" font-size="14.00">in</text>
</g>
<!-- c19 -->
<g id="node9" class="node">
<title>c19</title>
<polygon fill="none" stroke="black" points="224.09,-512.5 224.09,-558.5 320.09,-558.5 320.09,-512.5 224.09,-512.5"/>
<text text-anchor="middle" x="237.09" y="-543.3" font-family="Times New Roman,serif" font-size="14.00">A</text>
<polyline fill="none" stroke="black" points="224.09,-535.5 250.09,-535.5 "/>
<text text-anchor="middle" x="237.09" y="-520.3" font-family="Times New Roman,serif" font-size="14.00">B</text>
<polyline fill="none" stroke="black" points="250.09,-512.5 250.09,-558.5 "/>
<text text-anchor="middle" x="272.09" y="-539.3" font-family="Times New Roman,serif" font-size="14.00">$6</text>
<text text-anchor="middle" x="272.09" y="-524.3" font-family="Times New Roman,serif" font-size="14.00">$and</text>
<polyline fill="none" stroke="black" points="294.09,-512.5 294.09,-558.5 "/>
<text text-anchor="middle" x="307.09" y="-531.8" font-family="Times New Roman,serif" font-size="14.00">Y</text>
</g>
<!-- n10&#45;&gt;c19 -->
<g id="edge14" class="edge">
<title>n10:e&#45;&gt;c19:w</title>
<path fill="none" stroke="#d95f02" d="M57.55,-429.5C94.82,-429.5 64.89,-482.65 95.09,-504.5 139.2,-536.42 163.14,-525.13 213.93,-523.65"/>
<polygon fill="#d95f02" stroke="#d95f02" points="214.15,-527.15 224.09,-523.5 214.04,-520.15 214.15,-527.15"/>
</g>
<!-- c20 -->
<g id="node11" class="node">
<title>c20</title>
<polygon fill="none" stroke="black" points="224.09,-429.5 224.09,-475.5 320.09,-475.5 320.09,-429.5 224.09,-429.5"/>
<text text-anchor="middle" x="237.09" y="-460.3" font-family="Times New Roman,serif" font-size="14.00">A</text>
<polyline fill="none" stroke="black" points="224.09,-452.5 250.09,-452.5 "/>
<text text-anchor="middle" x="237.09" y="-437.3" font-family="Times New Roman,serif" font-size="14.00">B</text>
<polyline fill="none" stroke="black" points="250.09,-429.5 250.09,-475.5 "/>
<text text-anchor="middle" x="272.09" y="-456.3" font-family="Times New Roman,serif" font-size="14.00">$7</text>
<text text-anchor="middle" x="272.09" y="-441.3" font-family="Times New Roman,serif" font-size="14.00">$and</text>
<polyline fill="none" stroke="black" points="294.09,-429.5 294.09,-475.5 "/>
<text text-anchor="middle" x="307.09" y="-448.8" font-family="Times New Roman,serif" font-size="14.00">Y</text>
</g>
<!-- n10&#45;&gt;c20 -->
<g id="edge15" class="edge">
<title>n10:e&#45;&gt;c20:w</title>
<path fill="none" stroke="#d95f02" d="M57.55,-429.5C128.25,-429.5 148.08,-439.49 214.02,-440.43"/>
<polygon fill="#d95f02" stroke="#d95f02" points="214.07,-443.93 224.09,-440.5 214.12,-436.93 214.07,-443.93"/>
</g>
<!-- c21 -->
<g id="node13" class="node">
<title>c21</title>
<polygon fill="none" stroke="black" points="224.09,-336.5 224.09,-382.5 320.09,-382.5 320.09,-336.5 224.09,-336.5"/>
<text text-anchor="middle" x="237.09" y="-367.3" font-family="Times New Roman,serif" font-size="14.00">A</text>
<polyline fill="none" stroke="black" points="224.09,-359.5 250.09,-359.5 "/>
<text text-anchor="middle" x="237.09" y="-344.3" font-family="Times New Roman,serif" font-size="14.00">B</text>
<polyline fill="none" stroke="black" points="250.09,-336.5 250.09,-382.5 "/>
<text text-anchor="middle" x="272.09" y="-363.3" font-family="Times New Roman,serif" font-size="14.00">$9</text>
<text text-anchor="middle" x="272.09" y="-348.3" font-family="Times New Roman,serif" font-size="14.00">$and</text>
<polyline fill="none" stroke="black" points="294.09,-336.5 294.09,-382.5 "/>
<text text-anchor="middle" x="307.09" y="-355.8" font-family="Times New Roman,serif" font-size="14.00">Y</text>
</g>
<!-- n10&#45;&gt;c21 -->
<g id="edge16" class="edge">
<title>n10:e&#45;&gt;c21:w</title>
<path fill="none" stroke="#d95f02" d="M57.55,-429.5C94.43,-429.5 64.28,-375.76 95.09,-355.5 140.19,-325.85 163.71,-344.85 214.02,-347.26"/>
<polygon fill="#d95f02" stroke="#d95f02" points="214.01,-350.76 224.09,-347.5 214.18,-343.76 214.01,-350.76"/>
</g>
<!-- c24 -->
<g id="node19" class="node">
<title>c24</title>
<polygon fill="none" stroke="black" points="224.09,-606.5 224.09,-652.5 320.09,-652.5 320.09,-606.5 224.09,-606.5"/>
<text text-anchor="middle" x="237.09" y="-637.3" font-family="Times New Roman,serif" font-size="14.00">A</text>
<polyline fill="none" stroke="black" points="224.09,-629.5 250.09,-629.5 "/>
<text text-anchor="middle" x="237.09" y="-614.3" font-family="Times New Roman,serif" font-size="14.00">B</text>
<polyline fill="none" stroke="black" points="250.09,-606.5 250.09,-652.5 "/>
<text text-anchor="middle" x="272.09" y="-633.3" font-family="Times New Roman,serif" font-size="14.00">$16</text>
<text text-anchor="middle" x="272.09" y="-618.3" font-family="Times New Roman,serif" font-size="14.00">$and</text>
<polyline fill="none" stroke="black" points="294.09,-606.5 294.09,-652.5 "/>
<text text-anchor="middle" x="307.09" y="-625.8" font-family="Times New Roman,serif" font-size="14.00">Y</text>
</g>
<!-- n10&#45;&gt;c24 -->
<g id="edge17" class="edge">
<title>n10:e&#45;&gt;c24:w</title>
<path fill="none" stroke="#d95f02" d="M57.55,-429.5C134.49,-429.5 38.75,-546.1 95.09,-598.5 134.96,-635.58 162.63,-619.76 213.88,-617.71"/>
<polygon fill="#d95f02" stroke="#d95f02" points="214.17,-621.2 224.09,-617.5 214.02,-614.2 214.17,-621.2"/>
</g>
<!-- c25 -->
<g id="node22" class="node">
<title>c25</title>
<polygon fill="none" stroke="black" points="95.09,-213.5 95.09,-251.5 188.09,-251.5 188.09,-213.5 95.09,-213.5"/>
<text text-anchor="middle" x="108.09" y="-228.8" font-family="Times New Roman,serif" font-size="14.00">A</text>
<polyline fill="none" stroke="black" points="121.09,-213.5 121.09,-251.5 "/>
<text text-anchor="middle" x="141.59" y="-236.3" font-family="Times New Roman,serif" font-size="14.00">$1</text>
<text text-anchor="middle" x="141.59" y="-221.3" font-family="Times New Roman,serif" font-size="14.00">$not</text>
<polyline fill="none" stroke="black" points="162.09,-213.5 162.09,-251.5 "/>
<text text-anchor="middle" x="175.09" y="-228.8" font-family="Times New Roman,serif" font-size="14.00">Y</text>
</g>
<!-- n10&#45;&gt;c25 -->
<g id="edge18" class="edge">
<title>n10:e&#45;&gt;c25:w</title>
<path fill="none" stroke="#d95f02" d="M57.55,-429.5C142.85,-429.5 17.63,-249.07 84.84,-233.56"/>
<polygon fill="#d95f02" stroke="#d95f02" points="85.51,-237.01 95.09,-232.5 84.79,-230.05 85.51,-237.01"/>
</g>
<!-- n11 -->
<g id="node2" class="node">
<title>n11</title>
<polygon fill="none" stroke="black" points="813.66,-316.04 813.66,-330.96 783.66,-341.5 741.24,-341.5 711.24,-330.96 711.24,-316.04 741.24,-305.5 783.66,-305.5 813.66,-316.04"/>
<text text-anchor="middle" x="762.45" y="-319.8" font-family="Times New Roman,serif" font-size="14.00">next_state</text>
</g>
<!-- n12 -->
<g id="node3" class="node">
<title>n12</title>
<polygon fill="none" stroke="black" points="789.45,-34.04 789.45,-48.96 773.63,-59.5 751.26,-59.5 735.45,-48.96 735.45,-34.04 751.26,-23.5 773.63,-23.5 789.45,-34.04"/>
<text text-anchor="middle" x="762.45" y="-37.8" font-family="Times New Roman,serif" font-size="14.00">out</text>
</g>
<!-- n13 -->
<g id="node4" class="node">
<title>n13</title>
<polygon fill="none" stroke="black" points="59.14,-281.04 59.14,-295.96 41.8,-306.5 17.29,-306.5 -0.05,-295.96 -0.05,-281.04 17.29,-270.5 41.8,-270.5 59.14,-281.04"/>
<text text-anchor="middle" x="29.55" y="-284.8" font-family="Times New Roman,serif" font-size="14.00">state</text>
</g>
<!-- x0 -->
<g id="node6" class="node">
<title>x0</title>
<path fill="none" stroke="black" d="M122.59,-270.5C122.59,-270.5 160.59,-270.5 160.59,-270.5 166.59,-270.5 172.59,-276.5 172.59,-282.5 172.59,-282.5 172.59,-294.5 172.59,-294.5 172.59,-300.5 166.59,-306.5 160.59,-306.5 160.59,-306.5 122.59,-306.5 122.59,-306.5 116.59,-306.5 110.59,-300.5 110.59,-294.5 110.59,-294.5 110.59,-282.5 110.59,-282.5 110.59,-276.5 116.59,-270.5 122.59,-270.5"/>
<text text-anchor="middle" x="141.59" y="-284.8" font-family="Times New Roman,serif" font-size="14.00">0:0 &#45; 0:0</text>
</g>
<!-- n13&#45;&gt;x0 -->
<g id="edge24" class="edge">
<title>n13:e&#45;&gt;x0:w</title>
<path fill="none" stroke="#1b9e77" d="M59.09,-288.5C77.68,-288.5 84.72,-288.5 99.34,-288.5"/>
<polygon fill="#1b9e77" stroke="#1b9e77" points="99.59,-292 109.59,-288.5 99.59,-285 99.59,-292"/>
</g>
<!-- x1 -->
<g id="node8" class="node">
<title>x1</title>
<path fill="none" stroke="black" d="M122.59,-158.5C122.59,-158.5 160.59,-158.5 160.59,-158.5 166.59,-158.5 172.59,-164.5 172.59,-170.5 172.59,-170.5 172.59,-182.5 172.59,-182.5 172.59,-188.5 166.59,-194.5 160.59,-194.5 160.59,-194.5 122.59,-194.5 122.59,-194.5 116.59,-194.5 110.59,-188.5 110.59,-182.5 110.59,-182.5 110.59,-170.5 110.59,-170.5 110.59,-164.5 116.59,-158.5 122.59,-158.5"/>
<text text-anchor="middle" x="141.59" y="-172.8" font-family="Times New Roman,serif" font-size="14.00">2:2 &#45; 0:0</text>
</g>
<!-- n13&#45;&gt;x1 -->
<g id="edge26" class="edge">
<title>n13:e&#45;&gt;x1:w</title>
<path fill="none" stroke="#1b9e77" d="M59.09,-288.5C109.86,-288.5 62.69,-191.7 99.68,-178.08"/>
<polygon fill="#1b9e77" stroke="#1b9e77" points="100.27,-181.53 109.59,-176.5 99.17,-174.62 100.27,-181.53"/>
</g>
<!-- x2 -->
<g id="node10" class="node">
<title>x2</title>
<path fill="none" stroke="black" d="M122.59,-552.5C122.59,-552.5 160.59,-552.5 160.59,-552.5 166.59,-552.5 172.59,-558.5 172.59,-564.5 172.59,-564.5 172.59,-576.5 172.59,-576.5 172.59,-582.5 166.59,-588.5 160.59,-588.5 160.59,-588.5 122.59,-588.5 122.59,-588.5 116.59,-588.5 110.59,-582.5 110.59,-576.5 110.59,-576.5 110.59,-564.5 110.59,-564.5 110.59,-558.5 116.59,-552.5 122.59,-552.5"/>
<text text-anchor="middle" x="141.59" y="-566.8" font-family="Times New Roman,serif" font-size="14.00">0:0 &#45; 0:0</text>
</g>
<!-- n13&#45;&gt;x2 -->
<g id="edge27" class="edge">
<title>n13:e&#45;&gt;x2:w</title>
<path fill="none" stroke="#1b9e77" d="M59.09,-288.5C119.03,-288.5 54.45,-538.42 99.79,-567.71"/>
<polygon fill="#1b9e77" stroke="#1b9e77" points="99.02,-571.13 109.59,-570.5 100.93,-564.39 99.02,-571.13"/>
</g>
<!-- x3 -->
<g id="node12" class="node">
<title>x3</title>
<path fill="none" stroke="black" d="M122.59,-458.5C122.59,-458.5 160.59,-458.5 160.59,-458.5 166.59,-458.5 172.59,-464.5 172.59,-470.5 172.59,-470.5 172.59,-482.5 172.59,-482.5 172.59,-488.5 166.59,-494.5 160.59,-494.5 160.59,-494.5 122.59,-494.5 122.59,-494.5 116.59,-494.5 110.59,-488.5 110.59,-482.5 110.59,-482.5 110.59,-470.5 110.59,-470.5 110.59,-464.5 116.59,-458.5 122.59,-458.5"/>
<text text-anchor="middle" x="141.59" y="-472.8" font-family="Times New Roman,serif" font-size="14.00">1:1 &#45; 0:0</text>
</g>
<!-- n13&#45;&gt;x3 -->
<g id="edge28" class="edge">
<title>n13:e&#45;&gt;x3:w</title>
<path fill="none" stroke="#1b9e77" d="M59.09,-288.5C141.89,-288.5 33.22,-460.69 99.57,-475.49"/>
<polygon fill="#1b9e77" stroke="#1b9e77" points="99.29,-478.98 109.59,-476.5 100,-472.01 99.29,-478.98"/>
</g>
<!-- x4 -->
<g id="node14" class="node">
<title>x4</title>
<path fill="none" stroke="black" d="M122.59,-364.5C122.59,-364.5 160.59,-364.5 160.59,-364.5 166.59,-364.5 172.59,-370.5 172.59,-376.5 172.59,-376.5 172.59,-388.5 172.59,-388.5 172.59,-394.5 166.59,-400.5 160.59,-400.5 160.59,-400.5 122.59,-400.5 122.59,-400.5 116.59,-400.5 110.59,-394.5 110.59,-388.5 110.59,-388.5 110.59,-376.5 110.59,-376.5 110.59,-370.5 116.59,-364.5 122.59,-364.5"/>
<text text-anchor="middle" x="141.59" y="-378.8" font-family="Times New Roman,serif" font-size="14.00">3:3 &#45; 0:0</text>
</g>
<!-- n13&#45;&gt;x4 -->
<g id="edge29" class="edge">
<title>n13:e&#45;&gt;x4:w</title>
<path fill="none" stroke="#1b9e77" d="M59.09,-288.5C102.63,-288.5 68.83,-367.71 99.67,-380.71"/>
<polygon fill="#1b9e77" stroke="#1b9e77" points="99.13,-384.16 109.59,-382.5 100.38,-377.28 99.13,-384.16"/>
</g>
<!-- x5 -->
<g id="node16" class="node">
<title>x5</title>
<path fill="none" stroke="black" d="M253.09,-146.5C253.09,-146.5 291.09,-146.5 291.09,-146.5 297.09,-146.5 303.09,-152.5 303.09,-158.5 303.09,-158.5 303.09,-170.5 303.09,-170.5 303.09,-176.5 297.09,-182.5 291.09,-182.5 291.09,-182.5 253.09,-182.5 253.09,-182.5 247.09,-182.5 241.09,-176.5 241.09,-170.5 241.09,-170.5 241.09,-158.5 241.09,-158.5 241.09,-152.5 247.09,-146.5 253.09,-146.5"/>
<text text-anchor="middle" x="272.09" y="-160.8" font-family="Times New Roman,serif" font-size="14.00">1:1 &#45; 0:0</text>
</g>
<!-- n13&#45;&gt;x5 -->
<g id="edge30" class="edge">
<title>n13:e&#45;&gt;x5:w</title>
<path fill="none" stroke="#1b9e77" d="M59.09,-288.5C123.34,-288.5 44.32,-187.87 95.09,-148.5 127.76,-123.17 147.22,-142.35 188.09,-148.5 208.27,-151.53 214.2,-160.84 230.09,-163.67"/>
<polygon fill="#1b9e77" stroke="#1b9e77" points="229.84,-167.16 240.09,-164.5 230.42,-160.19 229.84,-167.16"/>
</g>
<!-- x6 -->
<g id="node18" class="node">
<title>x6</title>
<path fill="none" stroke="black" d="M253.09,-80.5C253.09,-80.5 291.09,-80.5 291.09,-80.5 297.09,-80.5 303.09,-86.5 303.09,-92.5 303.09,-92.5 303.09,-104.5 303.09,-104.5 303.09,-110.5 297.09,-116.5 291.09,-116.5 291.09,-116.5 253.09,-116.5 253.09,-116.5 247.09,-116.5 241.09,-110.5 241.09,-104.5 241.09,-104.5 241.09,-92.5 241.09,-92.5 241.09,-86.5 247.09,-80.5 253.09,-80.5"/>
<text text-anchor="middle" x="272.09" y="-94.8" font-family="Times New Roman,serif" font-size="14.00">3:3 &#45; 0:0</text>
</g>
<!-- n13&#45;&gt;x6 -->
<g id="edge31" class="edge">
<title>n13:e&#45;&gt;x6:w</title>
<path fill="none" stroke="#1b9e77" d="M59.09,-288.5C130.25,-288.5 44.87,-182.9 95.09,-132.5 139.35,-88.09 170.48,-97.31 229.9,-98.4"/>
<polygon fill="#1b9e77" stroke="#1b9e77" points="230.06,-101.9 240.09,-98.5 230.13,-94.91 230.06,-101.9"/>
</g>
<!-- x7 -->
<g id="node20" class="node">
<title>x7</title>
<path fill="none" stroke="black" d="M122.59,-646.5C122.59,-646.5 160.59,-646.5 160.59,-646.5 166.59,-646.5 172.59,-652.5 172.59,-658.5 172.59,-658.5 172.59,-670.5 172.59,-670.5 172.59,-676.5 166.59,-682.5 160.59,-682.5 160.59,-682.5 122.59,-682.5 122.59,-682.5 116.59,-682.5 110.59,-676.5 110.59,-670.5 110.59,-670.5 110.59,-658.5 110.59,-658.5 110.59,-652.5 116.59,-646.5 122.59,-646.5"/>
<text text-anchor="middle" x="141.59" y="-660.8" font-family="Times New Roman,serif" font-size="14.00">2:2 &#45; 0:0</text>
</g>
<!-- n13&#45;&gt;x7 -->
<g id="edge32" class="edge">
<title>n13:e&#45;&gt;x7:w</title>
<path fill="none" stroke="#1b9e77" d="M59.09,-288.5C139.61,-288.5 35.49,-631.48 99.42,-662.29"/>
<polygon fill="#1b9e77" stroke="#1b9e77" points="99.08,-665.8 109.59,-664.5 100.56,-658.96 99.08,-665.8"/>
</g>
<!-- x12 -->
<g id="node30" class="node">
<title>x12</title>
<path fill="none" stroke="black" d="M513.59,-23.5C513.59,-23.5 551.59,-23.5 551.59,-23.5 557.59,-23.5 563.59,-29.5 563.59,-35.5 563.59,-35.5 563.59,-47.5 563.59,-47.5 563.59,-53.5 557.59,-59.5 551.59,-59.5 551.59,-59.5 513.59,-59.5 513.59,-59.5 507.59,-59.5 501.59,-53.5 501.59,-47.5 501.59,-47.5 501.59,-35.5 501.59,-35.5 501.59,-29.5 507.59,-23.5 513.59,-23.5"/>
<text text-anchor="middle" x="532.59" y="-37.8" font-family="Times New Roman,serif" font-size="14.00">3:3 &#45; 0:0</text>
</g>
<!-- n13&#45;&gt;x12 -->
<g id="edge25" class="edge">
<title>n13:e&#45;&gt;x12:w</title>
<path fill="none" stroke="#1b9e77" d="M59.09,-288.5C147.22,-288.5 32.58,-155.63 95.09,-93.5 125.75,-63.03 358.63,-42.56 490.5,-41.54"/>
<polygon fill="#1b9e77" stroke="#1b9e77" points="490.61,-45.04 500.59,-41.5 490.58,-38.04 490.61,-45.04"/>
</g>
<!-- c17 -->
<g id="node5" class="node">
<title>c17</title>
<polygon fill="none" stroke="black" points="356.09,-265.5 356.09,-311.5 452.09,-311.5 452.09,-265.5 356.09,-265.5"/>
<text text-anchor="middle" x="369.09" y="-296.3" font-family="Times New Roman,serif" font-size="14.00">A</text>
<polyline fill="none" stroke="black" points="356.09,-288.5 382.09,-288.5 "/>
<text text-anchor="middle" x="369.09" y="-273.3" font-family="Times New Roman,serif" font-size="14.00">B</text>
<polyline fill="none" stroke="black" points="382.09,-265.5 382.09,-311.5 "/>
<text text-anchor="middle" x="404.09" y="-292.3" font-family="Times New Roman,serif" font-size="14.00">$2</text>
<text text-anchor="middle" x="404.09" y="-277.3" font-family="Times New Roman,serif" font-size="14.00">$and</text>
<polyline fill="none" stroke="black" points="426.09,-265.5 426.09,-311.5 "/>
<text text-anchor="middle" x="439.09" y="-284.8" font-family="Times New Roman,serif" font-size="14.00">Y</text>
</g>
<!-- c26 -->
<g id="node23" class="node">
<title>c26</title>
<polygon fill="none" stroke="black" points="489.09,-253.5 489.09,-299.5 576.09,-299.5 576.09,-253.5 489.09,-253.5"/>
<text text-anchor="middle" x="502.09" y="-284.3" font-family="Times New Roman,serif" font-size="14.00">A</text>
<polyline fill="none" stroke="black" points="489.09,-276.5 515.09,-276.5 "/>
<text text-anchor="middle" x="502.09" y="-261.3" font-family="Times New Roman,serif" font-size="14.00">B</text>
<polyline fill="none" stroke="black" points="515.09,-253.5 515.09,-299.5 "/>
<text text-anchor="middle" x="532.59" y="-280.3" font-family="Times New Roman,serif" font-size="14.00">$5</text>
<text text-anchor="middle" x="532.59" y="-265.3" font-family="Times New Roman,serif" font-size="14.00">$or</text>
<polyline fill="none" stroke="black" points="550.09,-253.5 550.09,-299.5 "/>
<text text-anchor="middle" x="563.09" y="-272.8" font-family="Times New Roman,serif" font-size="14.00">Y</text>
</g>
<!-- c17&#45;&gt;c26 -->
<g id="edge13" class="edge">
<title>c17:e&#45;&gt;c26:w</title>
<path fill="none" stroke="#d95f02" d="M452.09,-288.5C464.09,-288.5 469.34,-288.5 477.97,-288.5"/>
<polygon fill="#d95f02" stroke="#d95f02" points="478.09,-292 488.09,-288.5 478.09,-285 478.09,-292"/>
</g>
<!-- x0&#45;&gt;c17 -->
<g id="edge1" class="edge">
<title>x0:e&#45;&gt;c17:w</title>
<path fill="none" stroke="#66a61e" d="M185.96,-288.6C253.26,-289.67 276.55,-299.35 343.94,-300.41"/>
<polygon fill="none" stroke="#66a61e" points="185.59,-288.59 179.56,-292.55 173.59,-288.5 179.62,-284.55 185.59,-288.59"/>
<polygon fill="none" stroke="#66a61e" points="344.09,-300.41 350.12,-296.45 356.09,-300.5 350.06,-304.45 344.09,-300.41"/>
</g>
<!-- c18 -->
<g id="node7" class="node">
<title>c18</title>
<polygon fill="none" stroke="black" points="356.09,-200.5 356.09,-246.5 452.09,-246.5 452.09,-200.5 356.09,-200.5"/>
<text text-anchor="middle" x="369.09" y="-231.3" font-family="Times New Roman,serif" font-size="14.00">A</text>
<polyline fill="none" stroke="black" points="356.09,-223.5 382.09,-223.5 "/>
<text text-anchor="middle" x="369.09" y="-208.3" font-family="Times New Roman,serif" font-size="14.00">B</text>
<polyline fill="none" stroke="black" points="382.09,-200.5 382.09,-246.5 "/>
<text text-anchor="middle" x="404.09" y="-227.3" font-family="Times New Roman,serif" font-size="14.00">$4</text>
<text text-anchor="middle" x="404.09" y="-212.3" font-family="Times New Roman,serif" font-size="14.00">$and</text>
<polyline fill="none" stroke="black" points="426.09,-200.5 426.09,-246.5 "/>
<text text-anchor="middle" x="439.09" y="-219.8" font-family="Times New Roman,serif" font-size="14.00">Y</text>
</g>
<!-- c18&#45;&gt;c26 -->
<g id="edge33" class="edge">
<title>c18:e&#45;&gt;c26:w</title>
<path fill="none" stroke="#7570b3" d="M452.09,-223.5C472.18,-223.5 467.05,-251.62 478.47,-261.28"/>
<polygon fill="#7570b3" stroke="#7570b3" points="477.5,-264.65 488.09,-264.5 479.72,-258.01 477.5,-264.65"/>
</g>
<!-- x1&#45;&gt;c18 -->
<g id="edge2" class="edge">
<title>x1:e&#45;&gt;c18:w</title>
<path fill="none" stroke="#1b9e77" d="M185.75,-178.81C201.61,-185.85 202.31,-207.13 224.09,-216.5 274.6,-238.24 293.99,-235.99 343.86,-235.56"/>
<polygon fill="none" stroke="#1b9e77" points="185.38,-178.74 178.74,-181.55 173.59,-176.5 180.23,-173.69 185.38,-178.74"/>
<polygon fill="none" stroke="#1b9e77" points="344.09,-235.56 350.07,-231.53 356.09,-235.5 350.11,-239.53 344.09,-235.56"/>
</g>
<!-- c28 -->
<g id="node27" class="node">
<title>c28</title>
<polygon fill="none" stroke="black" points="360.59,-441.5 360.59,-487.5 447.59,-487.5 447.59,-441.5 360.59,-441.5"/>
<text text-anchor="middle" x="373.59" y="-472.3" font-family="Times New Roman,serif" font-size="14.00">A</text>
<polyline fill="none" stroke="black" points="360.59,-464.5 386.59,-464.5 "/>
<text text-anchor="middle" x="373.59" y="-449.3" font-family="Times New Roman,serif" font-size="14.00">B</text>
<polyline fill="none" stroke="black" points="386.59,-441.5 386.59,-487.5 "/>
<text text-anchor="middle" x="404.09" y="-468.3" font-family="Times New Roman,serif" font-size="14.00">$8</text>
<text text-anchor="middle" x="404.09" y="-453.3" font-family="Times New Roman,serif" font-size="14.00">$or</text>
<polyline fill="none" stroke="black" points="421.59,-441.5 421.59,-487.5 "/>
<text text-anchor="middle" x="434.59" y="-460.8" font-family="Times New Roman,serif" font-size="14.00">Y</text>
</g>
<!-- c19&#45;&gt;c28 -->
<g id="edge34" class="edge">
<title>c19:e&#45;&gt;c28:w</title>
<path fill="none" stroke="#666666" d="M320.09,-535.5C347.35,-535.5 333.02,-491.13 349.24,-479.35"/>
<polygon fill="#666666" stroke="#666666" points="350.46,-482.64 359.09,-476.5 348.51,-475.91 350.46,-482.64"/>
</g>
<!-- x2&#45;&gt;c19 -->
<g id="edge3" class="edge">
<title>x2:e&#45;&gt;c19:w</title>
<path fill="none" stroke="#1b9e77" d="M185.71,-568.21C196.24,-563.8 201.46,-554.18 212,-549.78"/>
<polygon fill="none" stroke="#1b9e77" points="185.38,-568.27 180.23,-573.32 173.59,-570.5 178.75,-565.46 185.38,-568.27"/>
<polygon fill="none" stroke="#1b9e77" points="212.3,-549.72 217.46,-544.68 224.09,-547.5 218.94,-552.54 212.3,-549.72"/>
</g>
<!-- c20&#45;&gt;c28 -->
<g id="edge35" class="edge">
<title>c20:e&#45;&gt;c28:w</title>
<path fill="none" stroke="#a6761d" d="M320.09,-452.5C333.5,-452.5 339.13,-452.5 349.01,-452.5"/>
<polygon fill="#a6761d" stroke="#a6761d" points="349.09,-456 359.09,-452.5 349.09,-449 349.09,-456"/>
</g>
<!-- x3&#45;&gt;c20 -->
<g id="edge4" class="edge">
<title>x3:e&#45;&gt;c20:w</title>
<path fill="none" stroke="#7570b3" d="M185.65,-475.22C195.71,-472.92 201.89,-468.13 211.92,-465.81"/>
<polygon fill="none" stroke="#7570b3" points="185.53,-475.23 179.98,-479.84 173.59,-476.5 179.14,-471.89 185.53,-475.23"/>
<polygon fill="none" stroke="#7570b3" points="212.16,-465.79 217.7,-461.17 224.09,-464.5 218.56,-469.12 212.16,-465.79"/>
</g>
<!-- c27 -->
<g id="node25" class="node">
<title>c27</title>
<polygon fill="none" stroke="black" points="488.09,-348.5 488.09,-394.5 577.09,-394.5 577.09,-348.5 488.09,-348.5"/>
<text text-anchor="middle" x="501.09" y="-379.3" font-family="Times New Roman,serif" font-size="14.00">A</text>
<polyline fill="none" stroke="black" points="488.09,-371.5 514.09,-371.5 "/>
<text text-anchor="middle" x="501.09" y="-356.3" font-family="Times New Roman,serif" font-size="14.00">B</text>
<polyline fill="none" stroke="black" points="514.09,-348.5 514.09,-394.5 "/>
<text text-anchor="middle" x="532.59" y="-375.3" font-family="Times New Roman,serif" font-size="14.00">$10</text>
<text text-anchor="middle" x="532.59" y="-360.3" font-family="Times New Roman,serif" font-size="14.00">$or</text>
<polyline fill="none" stroke="black" points="551.09,-348.5 551.09,-394.5 "/>
<text text-anchor="middle" x="564.09" y="-367.8" font-family="Times New Roman,serif" font-size="14.00">Y</text>
</g>
<!-- c21&#45;&gt;c27 -->
<g id="edge36" class="edge">
<title>c21:e&#45;&gt;c27:w</title>
<path fill="none" stroke="#7570b3" d="M320.09,-359.5C391.26,-359.5 411.55,-359.5 477.95,-359.5"/>
<polygon fill="#7570b3" stroke="#7570b3" points="478.09,-363 488.09,-359.5 478.09,-356 478.09,-363"/>
</g>
<!-- x4&#45;&gt;c21 -->
<g id="edge5" class="edge">
<title>x4:e&#45;&gt;c21:w</title>
<path fill="none" stroke="#e7298a" d="M185.62,-381.32C195.68,-379.22 201.92,-374.83 211.95,-372.7"/>
<polygon fill="none" stroke="#e7298a" points="185.54,-381.33 179.95,-385.9 173.59,-382.5 179.18,-377.93 185.54,-381.33"/>
<polygon fill="none" stroke="#e7298a" points="212.15,-372.68 217.73,-368.11 224.09,-371.5 218.52,-376.07 212.15,-372.68"/>
</g>
<!-- c22 -->
<g id="node15" class="node">
<title>c22</title>
<polygon fill="none" stroke="black" points="356.09,-135.5 356.09,-181.5 452.09,-181.5 452.09,-135.5 356.09,-135.5"/>
<text text-anchor="middle" x="369.09" y="-166.3" font-family="Times New Roman,serif" font-size="14.00">A</text>
<polyline fill="none" stroke="black" points="356.09,-158.5 382.09,-158.5 "/>
<text text-anchor="middle" x="369.09" y="-143.3" font-family="Times New Roman,serif" font-size="14.00">B</text>
<polyline fill="none" stroke="black" points="382.09,-135.5 382.09,-181.5 "/>
<text text-anchor="middle" x="404.09" y="-162.3" font-family="Times New Roman,serif" font-size="14.00">$12</text>
<text text-anchor="middle" x="404.09" y="-147.3" font-family="Times New Roman,serif" font-size="14.00">$and</text>
<polyline fill="none" stroke="black" points="426.09,-135.5 426.09,-181.5 "/>
<text text-anchor="middle" x="439.09" y="-154.8" font-family="Times New Roman,serif" font-size="14.00">Y</text>
</g>
<!-- c29 -->
<g id="node28" class="node">
<title>c29</title>
<polygon fill="none" stroke="black" points="488.09,-123.5 488.09,-169.5 577.09,-169.5 577.09,-123.5 488.09,-123.5"/>
<text text-anchor="middle" x="501.09" y="-154.3" font-family="Times New Roman,serif" font-size="14.00">A</text>
<polyline fill="none" stroke="black" points="488.09,-146.5 514.09,-146.5 "/>
<text text-anchor="middle" x="501.09" y="-131.3" font-family="Times New Roman,serif" font-size="14.00">B</text>
<polyline fill="none" stroke="black" points="514.09,-123.5 514.09,-169.5 "/>
<text text-anchor="middle" x="532.59" y="-150.3" font-family="Times New Roman,serif" font-size="14.00">$15</text>
<text text-anchor="middle" x="532.59" y="-135.3" font-family="Times New Roman,serif" font-size="14.00">$or</text>
<polyline fill="none" stroke="black" points="551.09,-123.5 551.09,-169.5 "/>
<text text-anchor="middle" x="564.09" y="-142.8" font-family="Times New Roman,serif" font-size="14.00">Y</text>
</g>
<!-- c22&#45;&gt;c29 -->
<g id="edge37" class="edge">
<title>c22:e&#45;&gt;c29:w</title>
<path fill="none" stroke="#a6761d" d="M452.09,-158.5C464.09,-158.5 469.34,-158.5 477.97,-158.5"/>
<polygon fill="#a6761d" stroke="#a6761d" points="478.09,-162 488.09,-158.5 478.09,-155 478.09,-162"/>
</g>
<!-- x5&#45;&gt;c22 -->
<g id="edge6" class="edge">
<title>x5:e&#45;&gt;c22:w</title>
<path fill="none" stroke="#e7298a" d="M316.37,-165.14C326.83,-166.3 333.52,-168.74 344.03,-169.88"/>
<polygon fill="none" stroke="#e7298a" points="316.08,-165.13 309.88,-168.81 304.09,-164.5 310.29,-160.82 316.08,-165.13"/>
<polygon fill="none" stroke="#e7298a" points="344.11,-169.88 350.31,-166.2 356.09,-170.5 349.9,-174.19 344.11,-169.88"/>
</g>
<!-- c23 -->
<g id="node17" class="node">
<title>c23</title>
<polygon fill="none" stroke="black" points="356.09,-70.5 356.09,-116.5 452.09,-116.5 452.09,-70.5 356.09,-70.5"/>
<text text-anchor="middle" x="369.09" y="-101.3" font-family="Times New Roman,serif" font-size="14.00">A</text>
<polyline fill="none" stroke="black" points="356.09,-93.5 382.09,-93.5 "/>
<text text-anchor="middle" x="369.09" y="-78.3" font-family="Times New Roman,serif" font-size="14.00">B</text>
<polyline fill="none" stroke="black" points="382.09,-70.5 382.09,-116.5 "/>
<text text-anchor="middle" x="404.09" y="-97.3" font-family="Times New Roman,serif" font-size="14.00">$14</text>
<text text-anchor="middle" x="404.09" y="-82.3" font-family="Times New Roman,serif" font-size="14.00">$and</text>
<polyline fill="none" stroke="black" points="426.09,-70.5 426.09,-116.5 "/>
<text text-anchor="middle" x="439.09" y="-89.8" font-family="Times New Roman,serif" font-size="14.00">Y</text>
</g>
<!-- c23&#45;&gt;c29 -->
<g id="edge38" class="edge">
<title>c23:e&#45;&gt;c29:w</title>
<path fill="none" stroke="#e6ab02" d="M452.09,-93.5C472.18,-93.5 467.05,-121.62 478.47,-131.28"/>
<polygon fill="#e6ab02" stroke="#e6ab02" points="477.5,-134.65 488.09,-134.5 479.72,-128.01 477.5,-134.65"/>
</g>
<!-- x6&#45;&gt;c23 -->
<g id="edge7" class="edge">
<title>x6:e&#45;&gt;c23:w</title>
<path fill="none" stroke="#7570b3" d="M316.38,-99.25C326.84,-100.6 333.5,-103.44 344.01,-104.78"/>
<polygon fill="none" stroke="#7570b3" points="316.07,-99.23 309.84,-102.86 304.09,-98.5 310.33,-94.87 316.07,-99.23"/>
<polygon fill="none" stroke="#7570b3" points="344.11,-104.78 350.34,-101.15 356.09,-105.5 349.87,-109.13 344.11,-104.78"/>
</g>
<!-- x8 -->
<g id="node21" class="node">
<title>x8</title>
<path fill="none" stroke="black" d="M625.09,-478.5C625.09,-478.5 663.09,-478.5 663.09,-478.5 669.09,-478.5 675.09,-484.5 675.09,-490.5 675.09,-490.5 675.09,-502.5 675.09,-502.5 675.09,-508.5 669.09,-514.5 663.09,-514.5 663.09,-514.5 625.09,-514.5 625.09,-514.5 619.09,-514.5 613.09,-508.5 613.09,-502.5 613.09,-502.5 613.09,-490.5 613.09,-490.5 613.09,-484.5 619.09,-478.5 625.09,-478.5"/>
<text text-anchor="middle" x="644.09" y="-492.8" font-family="Times New Roman,serif" font-size="14.00">0:0 &#45; 3:3</text>
</g>
<!-- c24&#45;&gt;x8 -->
<g id="edge9" class="edge">
<title>c24:e&#45;&gt;x8:w</title>
<path fill="none" stroke="#1b9e77" d="M332.32,-629.16C459.65,-622.04 473.52,-503.98 600.83,-496.84"/>
<polygon fill="none" stroke="#1b9e77" points="332.09,-629.17 326.2,-633.33 320.09,-629.5 325.98,-625.34 332.09,-629.17"/>
<polygon fill="none" stroke="#1b9e77" points="601.1,-496.83 606.99,-492.67 613.09,-496.5 607.21,-500.66 601.1,-496.83"/>
</g>
<!-- x7&#45;&gt;c24 -->
<g id="edge8" class="edge">
<title>x7:e&#45;&gt;c24:w</title>
<path fill="none" stroke="#d95f02" d="M185.71,-662.21C196.24,-657.8 201.46,-648.18 212,-643.78"/>
<polygon fill="none" stroke="#d95f02" points="185.38,-662.27 180.23,-667.32 173.59,-664.5 178.75,-659.46 185.38,-662.27"/>
<polygon fill="none" stroke="#d95f02" points="212.3,-643.72 217.46,-638.68 224.09,-641.5 218.94,-646.54 212.3,-643.72"/>
</g>
<!-- x8&#45;&gt;n11 -->
<g id="edge21" class="edge">
<title>x8:e&#45;&gt;n11:w</title>
<path fill="none" stroke="#d95f02" d="M675.09,-496.5C749.79,-496.5 643.9,-339.98 700.97,-324.7"/>
<polygon fill="#d95f02" stroke="#d95f02" points="701.57,-328.15 711.09,-323.5 700.75,-321.2 701.57,-328.15"/>
</g>
<!-- n8 -->
<g id="node31" class="node">
<title>n8</title>
<ellipse fill="black" stroke="black" cx="272.09" cy="-205.5" rx="1.8" ry="1.8"/>
</g>
<!-- c25&#45;&gt;n8 -->
<g id="edge39" class="edge">
<title>c25:e&#45;&gt;n8:w</title>
<path fill="none" stroke="#1b9e77" d="M188.09,-232.5C222.33,-232.5 229.84,-210.52 258.85,-206.22"/>
<polygon fill="#1b9e77" stroke="#1b9e77" points="259.36,-209.7 269.09,-205.5 258.87,-202.71 259.36,-209.7"/>
</g>
<!-- x9 -->
<g id="node24" class="node">
<title>x9</title>
<path fill="none" stroke="black" d="M625.09,-268.5C625.09,-268.5 663.09,-268.5 663.09,-268.5 669.09,-268.5 675.09,-274.5 675.09,-280.5 675.09,-280.5 675.09,-292.5 675.09,-292.5 675.09,-298.5 669.09,-304.5 663.09,-304.5 663.09,-304.5 625.09,-304.5 625.09,-304.5 619.09,-304.5 613.09,-298.5 613.09,-292.5 613.09,-292.5 613.09,-280.5 613.09,-280.5 613.09,-274.5 619.09,-268.5 625.09,-268.5"/>
<text text-anchor="middle" x="644.09" y="-282.8" font-family="Times New Roman,serif" font-size="14.00">0:0 &#45; 0:0</text>
</g>
<!-- c26&#45;&gt;x9 -->
<g id="edge10" class="edge">
<title>c26:e&#45;&gt;x9:w</title>
<path fill="none" stroke="#1b9e77" d="M588.95,-278.62C593.36,-280.32 596.84,-282.69 601.24,-284.38"/>
<polygon fill="none" stroke="#1b9e77" points="588.91,-278.61 582.3,-281.49 577.09,-276.5 583.7,-273.62 588.91,-278.61"/>
<polygon fill="none" stroke="#1b9e77" points="601.28,-284.39 607.89,-281.51 613.09,-286.5 606.48,-289.38 601.28,-284.39"/>
</g>
<!-- x9&#45;&gt;n11 -->
<g id="edge22" class="edge">
<title>x9:e&#45;&gt;n11:w</title>
<path fill="none" stroke="#d95f02" d="M675.09,-286.5C693.91,-286.5 690.64,-311.4 701.52,-320.35"/>
<polygon fill="#d95f02" stroke="#d95f02" points="700.5,-323.69 711.09,-323.5 702.69,-317.04 700.5,-323.69"/>
</g>
<!-- x10 -->
<g id="node26" class="node">
<title>x10</title>
<path fill="none" stroke="black" d="M625.09,-343.5C625.09,-343.5 663.09,-343.5 663.09,-343.5 669.09,-343.5 675.09,-349.5 675.09,-355.5 675.09,-355.5 675.09,-367.5 675.09,-367.5 675.09,-373.5 669.09,-379.5 663.09,-379.5 663.09,-379.5 625.09,-379.5 625.09,-379.5 619.09,-379.5 613.09,-373.5 613.09,-367.5 613.09,-367.5 613.09,-355.5 613.09,-355.5 613.09,-349.5 619.09,-343.5 625.09,-343.5"/>
<text text-anchor="middle" x="644.09" y="-357.8" font-family="Times New Roman,serif" font-size="14.00">0:0 &#45; 1:1</text>
</g>
<!-- c27&#45;&gt;x10 -->
<g id="edge11" class="edge">
<title>c27:e&#45;&gt;x10:w</title>
<path fill="none" stroke="#e6ab02" d="M588.95,-369.38C593.36,-367.68 596.84,-365.31 601.24,-363.62"/>
<polygon fill="none" stroke="#e6ab02" points="588.91,-369.39 583.7,-374.38 577.09,-371.5 582.3,-366.51 588.91,-369.39"/>
<polygon fill="none" stroke="#e6ab02" points="601.28,-363.61 606.48,-358.62 613.09,-361.5 607.89,-366.49 601.28,-363.61"/>
</g>
<!-- x10&#45;&gt;n11 -->
<g id="edge19" class="edge">
<title>x10:e&#45;&gt;n11:w</title>
<path fill="none" stroke="#d95f02" d="M675.09,-361.5C694.18,-361.5 690.52,-335.93 701.43,-326.74"/>
<polygon fill="#d95f02" stroke="#d95f02" points="702.73,-330 711.09,-323.5 700.5,-323.36 702.73,-330"/>
</g>
<!-- c28&#45;&gt;c27 -->
<g id="edge44" class="edge">
<title>c28:e&#45;&gt;c27:w</title>
<path fill="none" stroke="#66a61e" d="M449.09,-464.5C484.99,-464.5 455.61,-399.12 478.25,-385.84"/>
<polygon fill="#66a61e" stroke="#66a61e" points="479.17,-389.22 488.09,-383.5 477.56,-382.41 479.17,-389.22"/>
</g>
<!-- x11 -->
<g id="node29" class="node">
<title>x11</title>
<path fill="none" stroke="black" d="M625.09,-170.5C625.09,-170.5 663.09,-170.5 663.09,-170.5 669.09,-170.5 675.09,-176.5 675.09,-182.5 675.09,-182.5 675.09,-194.5 675.09,-194.5 675.09,-200.5 669.09,-206.5 663.09,-206.5 663.09,-206.5 625.09,-206.5 625.09,-206.5 619.09,-206.5 613.09,-200.5 613.09,-194.5 613.09,-194.5 613.09,-182.5 613.09,-182.5 613.09,-176.5 619.09,-170.5 625.09,-170.5"/>
<text text-anchor="middle" x="644.09" y="-184.8" font-family="Times New Roman,serif" font-size="14.00">0:0 &#45; 2:2</text>
</g>
<!-- c29&#45;&gt;x11 -->
<g id="edge12" class="edge">
<title>c29:e&#45;&gt;x11:w</title>
<path fill="none" stroke="#e6ab02" d="M588.32,-151.32C595.28,-159.42 594.92,-175.67 601.92,-183.74"/>
<polygon fill="none" stroke="#e6ab02" points="588.12,-151.23 581.03,-152.54 577.09,-146.5 584.18,-145.19 588.12,-151.23"/>
<polygon fill="none" stroke="#e6ab02" points="602.05,-183.8 609.14,-182.47 613.09,-188.5 606.01,-189.83 602.05,-183.8"/>
</g>
<!-- x11&#45;&gt;n11 -->
<g id="edge20" class="edge">
<title>x11:e&#45;&gt;n11:w</title>
<path fill="none" stroke="#d95f02" d="M675.09,-188.5C733.31,-188.5 659.43,-307.15 701.14,-321.98"/>
<polygon fill="#d95f02" stroke="#d95f02" points="700.68,-325.45 711.09,-323.5 701.73,-318.53 700.68,-325.45"/>
</g>
<!-- x12&#45;&gt;n12 -->
<g id="edge23" class="edge">
<title>x12:e&#45;&gt;n12:w</title>
<path fill="none" stroke="#1b9e77" d="M564.59,-41.5C636.55,-41.5 657.06,-41.5 724.19,-41.5"/>
<polygon fill="#1b9e77" stroke="#1b9e77" points="724.45,-45 734.45,-41.5 724.45,-38 724.45,-45"/>
</g>
<!-- n8&#45;&gt;c17 -->
<g id="edge40" class="edge">
<title>n8:e&#45;&gt;c17:w</title>
<path fill="none" stroke="#1b9e77" d="M275.09,-205.5C319.23,-205.5 310.14,-265.84 345.96,-275.27"/>
<polygon fill="#1b9e77" stroke="#1b9e77" points="345.74,-278.77 356.09,-276.5 346.59,-271.82 345.74,-278.77"/>
</g>
<!-- n8&#45;&gt;c18 -->
<g id="edge41" class="edge">
<title>n8:e&#45;&gt;c18:w</title>
<path fill="none" stroke="#1b9e77" d="M275.09,-205.5C307.53,-205.5 317.93,-210.34 345.88,-211.33"/>
<polygon fill="#1b9e77" stroke="#1b9e77" points="346.04,-214.83 356.09,-211.5 346.15,-207.83 346.04,-214.83"/>
</g>
<!-- n8&#45;&gt;c22 -->
<g id="edge42" class="edge">
<title>n8:e&#45;&gt;c22:w</title>
<path fill="none" stroke="#1b9e77" d="M275.09,-205.5C296.04,-205.5 302.79,-203.31 320.09,-191.5 337.78,-179.43 333.15,-156.09 346.12,-148.76"/>
<polygon fill="#1b9e77" stroke="#1b9e77" points="347.12,-152.13 356.09,-146.5 345.57,-145.3 347.12,-152.13"/>
</g>
<!-- n8&#45;&gt;c23 -->
<g id="edge43" class="edge">
<title>n8:e&#45;&gt;c23:w</title>
<path fill="none" stroke="#1b9e77" d="M275.09,-205.5C296.04,-205.5 305.17,-206.2 320.09,-191.5 353.87,-158.21 312.25,-92.82 345.84,-82.8"/>
<polygon fill="#1b9e77" stroke="#1b9e77" points="346.61,-86.23 356.09,-81.5 345.73,-79.29 346.61,-86.23"/>
</g>
</g>
</svg>
