<svg xmlns="http://www.w3.org/2000/svg" xmlns:xlink="http://www.w3.org/1999/xlink" xmlns:s="https://github.com/nturley/netlistsvg" width="487" height="421.5">
  <style>svg {
    stroke:#000;
    fill:none;
  }
  text {
    fill:#000;
    stroke:none;
    font-size:10px;
    font-weight: bold;
    font-family: "Courier New", monospace;
  }
  .nodelabel {
    text-anchor: middle;
  }
  .inputPortLabel {
    text-anchor: end;
  }
  .splitjoinBody {
    fill:#000;
  }</style>
  <g s:type="and" transform="translate(237,12)" s:width="30" s:height="25" id="cell_$and$top_module.v:20$2">
    <s:alias val="$and"/>
    <s:alias val="$logic_and"/>
    <s:alias val="$_AND_"/>
    <path d="M0,0 L0,25 L15,25 A15 12.5 0 0 0 15,0 Z" class="cell_$and$top_module.v:20$2"/>
    <g s:x="0" s:y="5" s:pid="A"/>
    <g s:x="0" s:y="20" s:pid="B"/>
    <g s:x="30" s:y="12.5" s:pid="Y"/>
  </g>
  <g s:type="and" transform="translate(237,72)" s:width="30" s:height="25" id="cell_$and$top_module.v:20$4">
    <s:alias val="$and"/>
    <s:alias val="$logic_and"/>
    <s:alias val="$_AND_"/>
    <path d="M0,0 L0,25 L15,25 A15 12.5 0 0 0 15,0 Z" class="cell_$and$top_module.v:20$4"/>
    <g s:x="0" s:y="5" s:pid="A"/>
    <g s:x="0" s:y="20" s:pid="B"/>
    <g s:x="30" s:y="12.5" s:pid="Y"/>
  </g>
  <g s:type="and" transform="translate(157,124.5)" s:width="30" s:height="25" id="cell_$and$top_module.v:21$6">
    <s:alias val="$and"/>
    <s:alias val="$logic_and"/>
    <s:alias val="$_AND_"/>
    <path d="M0,0 L0,25 L15,25 A15 12.5 0 0 0 15,0 Z" class="cell_$and$top_module.v:21$6"/>
    <g s:x="0" s:y="5" s:pid="A"/>
    <g s:x="0" s:y="20" s:pid="B"/>
    <g s:x="30" s:y="12.5" s:pid="Y"/>
  </g>
  <g s:type="and" transform="translate(157,184.5)" s:width="30" s:height="25" id="cell_$and$top_module.v:21$7">
    <s:alias val="$and"/>
    <s:alias val="$logic_and"/>
    <s:alias val="$_AND_"/>
    <path d="M0,0 L0,25 L15,25 A15 12.5 0 0 0 15,0 Z" class="cell_$and$top_module.v:21$7"/>
    <g s:x="0" s:y="5" s:pid="A"/>
    <g s:x="0" s:y="20" s:pid="B"/>
    <g s:x="30" s:y="12.5" s:pid="Y"/>
  </g>
  <g s:type="and" transform="translate(237,214.5)" s:width="30" s:height="25" id="cell_$and$top_module.v:21$9">
    <s:alias val="$and"/>
    <s:alias val="$logic_and"/>
    <s:alias val="$_AND_"/>
    <path d="M0,0 L0,25 L15,25 A15 12.5 0 0 0 15,0 Z" class="cell_$and$top_module.v:21$9"/>
    <g s:x="0" s:y="5" s:pid="A"/>
    <g s:x="0" s:y="20" s:pid="B"/>
    <g s:x="30" s:y="12.5" s:pid="Y"/>
  </g>
  <g s:type="and" transform="translate(237,274.5)" s:width="30" s:height="25" id="cell_$and$top_module.v:22$12">
    <s:alias val="$and"/>
    <s:alias val="$logic_and"/>
    <s:alias val="$_AND_"/>
    <path d="M0,0 L0,25 L15,25 A15 12.5 0 0 0 15,0 Z" class="cell_$and$top_module.v:22$12"/>
    <g s:x="0" s:y="5" s:pid="A"/>
    <g s:x="0" s:y="20" s:pid="B"/>
    <g s:x="30" s:y="12.5" s:pid="Y"/>
  </g>
  <g s:type="and" transform="translate(237,334.5)" s:width="30" s:height="25" id="cell_$and$top_module.v:22$14">
    <s:alias val="$and"/>
    <s:alias val="$logic_and"/>
    <s:alias val="$_AND_"/>
    <path d="M0,0 L0,25 L15,25 A15 12.5 0 0 0 15,0 Z" class="cell_$and$top_module.v:22$14"/>
    <g s:x="0" s:y="5" s:pid="A"/>
    <g s:x="0" s:y="20" s:pid="B"/>
    <g s:x="30" s:y="12.5" s:pid="Y"/>
  </g>
  <g s:type="and" transform="translate(302,364.5)" s:width="30" s:height="25" id="cell_$and$top_module.v:23$16">
    <s:alias val="$and"/>
    <s:alias val="$logic_and"/>
    <s:alias val="$_AND_"/>
    <path d="M0,0 L0,25 L15,25 A15 12.5 0 0 0 15,0 Z" class="cell_$and$top_module.v:23$16"/>
    <g s:x="0" s:y="5" s:pid="A"/>
    <g s:x="0" s:y="20" s:pid="B"/>
    <g s:x="30" s:y="12.5" s:pid="Y"/>
  </g>
  <g s:type="not" transform="translate(157,284.5)" s:width="30" s:height="20" id="cell_$not$top_module.v:20$1">
    <s:alias val="$_NOT_"/>
    <s:alias val="$not"/>
    <s:alias val="$logic_not"/>
    <path d="M0,0 L0,20 L20,10 Z" class="cell_$not$top_module.v:20$1"/>
    <circle cx="23" cy="10" r="3" class="cell_$not$top_module.v:20$1"/>
    <g s:x="0" s:y="10" s:pid="A"/>
    <g s:x="25" s:y="10" s:pid="Y"/>
  </g>
  <g s:type="or" transform="translate(302,19.5)" s:width="30" s:height="25" id="cell_$or$top_module.v:20$5">
    <s:alias val="$or"/>
    <s:alias val="$logic_or"/>
    <s:alias val="$_OR_"/>
    <path d="M0,25 L0,25 L15,25 A15 12.5 0 0 0 15,0 L0,0" class="cell_$or$top_module.v:20$5"/>
    <path d="M0,0 A30 25 0 0 1 0,25" class="cell_$or$top_module.v:20$5"/>
    <g s:x="3" s:y="5" s:pid="A"/>
    <g s:x="3" s:y="20" s:pid="B"/>
    <g s:x="30" s:y="12.5" s:pid="Y"/>
  </g>
  <g s:type="or" transform="translate(302,139.5)" s:width="30" s:height="25" id="cell_$or$top_module.v:21$10">
    <s:alias val="$or"/>
    <s:alias val="$logic_or"/>
    <s:alias val="$_OR_"/>
    <path d="M0,25 L0,25 L15,25 A15 12.5 0 0 0 15,0 L0,0" class="cell_$or$top_module.v:21$10"/>
    <path d="M0,0 A30 25 0 0 1 0,25" class="cell_$or$top_module.v:21$10"/>
    <g s:x="3" s:y="5" s:pid="A"/>
    <g s:x="3" s:y="20" s:pid="B"/>
    <g s:x="30" s:y="12.5" s:pid="Y"/>
  </g>
  <g s:type="or" transform="translate(237,132)" s:width="30" s:height="25" id="cell_$or$top_module.v:21$8">
    <s:alias val="$or"/>
    <s:alias val="$logic_or"/>
    <s:alias val="$_OR_"/>
    <path d="M0,25 L0,25 L15,25 A15 12.5 0 0 0 15,0 L0,0" class="cell_$or$top_module.v:21$8"/>
    <path d="M0,0 A30 25 0 0 1 0,25" class="cell_$or$top_module.v:21$8"/>
    <g s:x="3" s:y="5" s:pid="A"/>
    <g s:x="3" s:y="20" s:pid="B"/>
    <g s:x="30" s:y="12.5" s:pid="Y"/>
  </g>
  <g s:type="or" transform="translate(302,282)" s:width="30" s:height="25" id="cell_$or$top_module.v:22$15">
    <s:alias val="$or"/>
    <s:alias val="$logic_or"/>
    <s:alias val="$_OR_"/>
    <path d="M0,25 L0,25 L15,25 A15 12.5 0 0 0 15,0 L0,0" class="cell_$or$top_module.v:22$15"/>
    <path d="M0,0 A30 25 0 0 1 0,25" class="cell_$or$top_module.v:22$15"/>
    <g s:x="3" s:y="5" s:pid="A"/>
    <g s:x="3" s:y="20" s:pid="B"/>
    <g s:x="30" s:y="12.5" s:pid="Y"/>
  </g>
  <g s:type="inputExt" transform="translate(77,284.5)" s:width="30" s:height="20" id="cell_in">
    <text x="15" y="-4" class="nodelabel cell_in" s:attribute="ref">in</text>
    <s:alias val="$_inputExt_"/>
    <path d="M0,0 L0,20 L15,20 L30,10 L15,0 Z" class="cell_in"/>
    <g s:x="28" s:y="10" s:pid="Y"/>
  </g>
  <g s:type="inputExt" transform="translate(12,159.5)" s:width="30" s:height="20" id="cell_state">
    <text x="15" y="-4" class="nodelabel cell_state" s:attribute="ref">state</text>
    <s:alias val="$_inputExt_"/>
    <path d="M0,0 L0,20 L15,20 L30,10 L15,0 Z" class="cell_state"/>
    <g s:x="28" s:y="10" s:pid="Y"/>
  </g>
  <g s:type="outputExt" transform="translate(415,32)" s:width="30" s:height="20" id="cell_next_state">
    <text x="15" y="-4" class="nodelabel cell_next_state" s:attribute="ref">next_state</text>
    <s:alias val="$_outputExt_"/>
    <path d="M30,0 L30,20 L15,20 L0,10 L15,0 Z" class="cell_next_state"/>
    <g s:x="0" s:y="10" s:pid="A"/>
  </g>
  <g s:type="outputExt" transform="translate(415,389.5)" s:width="30" s:height="20" id="cell_out">
    <text x="15" y="-4" class="nodelabel cell_out" s:attribute="ref">out</text>
    <s:alias val="$_outputExt_"/>
    <path d="M30,0 L30,20 L15,20 L0,10 L15,0 Z" class="cell_out"/>
    <g s:x="0" s:y="10" s:pid="A"/>
  </g>
  <g s:type="join" transform="translate(374,21.5)" s:width="4" s:height="40" id="cell_$join$,7,8,9,10,">
    <rect width="5" height="80" class="splitjoinBody" s:generic="body"/>
    <s:alias val="$_join_"/>
    <g s:x="5" s:y="20" s:pid="out"/>
    <g transform="translate(0,10)" s:x="0" s:y="10" s:pid="in0">
      <text x="-3" y="-4" class="inputPortLabel">0</text>
    </g>
    <g transform="translate(0,30)" s:x="0" s:y="10" s:pid="in0">
      <text x="-3" y="-4" class="inputPortLabel">1</text>
    </g>
    <g transform="translate(0,50)" s:x="0" s:y="10" s:pid="in0">
      <text x="-3" y="-4" class="inputPortLabel">2</text>
    </g>
    <g transform="translate(0,70)" s:x="0" s:y="10" s:pid="in0">
      <text x="-3" y="-4" class="inputPortLabel">3</text>
    </g>
  </g>
  <g s:type="split" transform="translate(92.8,149)" s:width="5" s:height="40" id="cell_$split$,3,4,5,6,">
    <rect width="5" height="80" class="splitjoinBody" s:generic="body"/>
    <s:alias val="$_split_"/>
    <g s:x="0" s:y="20" s:pid="in"/>
    <g transform="translate(4,10)" s:x="4" s:y="10" s:pid="out0">
      <text x="5" y="-4">0</text>
    </g>
    <g transform="translate(4,30)" s:x="4" s:y="10" s:pid="out0">
      <text x="5" y="-4">2</text>
    </g>
    <g transform="translate(4,50)" s:x="4" s:y="10" s:pid="out0">
      <text x="5" y="-4">1</text>
    </g>
    <g transform="translate(4,70)" s:x="4" s:y="10" s:pid="out0">
      <text x="5" y="-4">3</text>
    </g>
  </g>
  <line x1="97.8" x2="117" y1="159.5" y2="159.5" class="net_3"/>
  <line x1="117" x2="117" y1="159.5" y2="17" class="net_3"/>
  <line x1="117" x2="237" y1="17" y2="17" class="net_3"/>
  <line x1="97.8" x2="117" y1="159.5" y2="159.5" class="net_3"/>
  <line x1="117" x2="117" y1="159.5" y2="129.5" class="net_3"/>
  <circle cx="117" cy="129.5" r="2" style="fill:#000" class="net_3"/>
  <line x1="117" x2="157" y1="129.5" y2="129.5" class="net_3"/>
  <line x1="182" x2="217" y1="294.5" y2="294.5" class="net_11"/>
  <line x1="217" x2="217" y1="294.5" y2="32" class="net_11"/>
  <circle cx="217" cy="294.5" r="2" style="fill:#000" class="net_11"/>
  <line x1="217" x2="237" y1="32" y2="32" class="net_11"/>
  <line x1="182" x2="217" y1="294.5" y2="294.5" class="net_11"/>
  <line x1="217" x2="217" y1="294.5" y2="92" class="net_11"/>
  <circle cx="217" cy="92" r="2" style="fill:#000" class="net_11"/>
  <line x1="217" x2="237" y1="92" y2="92" class="net_11"/>
  <line x1="182" x2="237" y1="294.5" y2="294.5" class="net_11"/>
  <line x1="182" x2="217" y1="294.5" y2="294.5" class="net_11"/>
  <line x1="217" x2="217" y1="294.5" y2="354.5" class="net_11"/>
  <line x1="217" x2="237" y1="354.5" y2="354.5" class="net_11"/>
  <line x1="97.8" x2="127" y1="179.5" y2="179.5" class="net_5"/>
  <line x1="127" x2="127" y1="179.5" y2="77" class="net_5"/>
  <circle cx="127" cy="179.5" r="2" style="fill:#000" class="net_5"/>
  <line x1="127" x2="237" y1="77" y2="77" class="net_5"/>
  <line x1="97.8" x2="127" y1="179.5" y2="179.5" class="net_5"/>
  <line x1="127" x2="127" y1="179.5" y2="369.5" class="net_5"/>
  <line x1="127" x2="302" y1="369.5" y2="369.5" class="net_5"/>
  <line x1="105" x2="147" y1="294.5" y2="294.5" class="net_2"/>
  <line x1="147" x2="147" y1="294.5" y2="144.5" class="net_2"/>
  <circle cx="147" cy="294.5" r="2" style="fill:#000" class="net_2"/>
  <line x1="147" x2="157" y1="144.5" y2="144.5" class="net_2"/>
  <line x1="105" x2="147" y1="294.5" y2="294.5" class="net_2"/>
  <line x1="147" x2="147" y1="294.5" y2="204.5" class="net_2"/>
  <circle cx="147" cy="204.5" r="2" style="fill:#000" class="net_2"/>
  <line x1="147" x2="157" y1="204.5" y2="204.5" class="net_2"/>
  <line x1="105" x2="147" y1="294.5" y2="294.5" class="net_2"/>
  <line x1="147" x2="147" y1="294.5" y2="314.5" class="net_2"/>
  <line x1="147" x2="197" y1="314.5" y2="314.5" class="net_2"/>
  <line x1="197" x2="197" y1="314.5" y2="234.5" class="net_2"/>
  <circle cx="147" cy="314.5" r="2" style="fill:#000" class="net_2"/>
  <line x1="197" x2="237" y1="234.5" y2="234.5" class="net_2"/>
  <line x1="105" x2="147" y1="294.5" y2="294.5" class="net_2"/>
  <line x1="147" x2="147" y1="294.5" y2="384.5" class="net_2"/>
  <line x1="147" x2="302" y1="384.5" y2="384.5" class="net_2"/>
  <line x1="105" x2="157" y1="294.5" y2="294.5" class="net_2"/>
  <line x1="97.8" x2="137" y1="199.5" y2="199.5" class="net_4"/>
  <line x1="137" x2="137" y1="199.5" y2="189.5" class="net_4"/>
  <circle cx="137" cy="199.5" r="2" style="fill:#000" class="net_4"/>
  <line x1="137" x2="157" y1="189.5" y2="189.5" class="net_4"/>
  <line x1="97.8" x2="137" y1="199.5" y2="199.5" class="net_4"/>
  <line x1="137" x2="137" y1="199.5" y2="325.5" class="net_4"/>
  <line x1="137" x2="207" y1="325.5" y2="325.5" class="net_4"/>
  <line x1="207" x2="207" y1="325.5" y2="279.5" class="net_4"/>
  <line x1="207" x2="237" y1="279.5" y2="279.5" class="net_4"/>
  <line x1="97.8" x2="237" y1="219.5" y2="219.5" class="net_6"/>
  <line x1="97.8" x2="117" y1="219.5" y2="219.5" class="net_6"/>
  <line x1="117" x2="117" y1="219.5" y2="339.5" class="net_6"/>
  <circle cx="117" cy="219.5" r="2" style="fill:#000" class="net_6"/>
  <circle cx="117" cy="339.5" r="2" style="fill:#000" class="net_6"/>
  <line x1="117" x2="237" y1="339.5" y2="339.5" class="net_6"/>
  <line x1="97.8" x2="117" y1="219.5" y2="219.5" class="net_6"/>
  <line x1="117" x2="117" y1="219.5" y2="399.5" class="net_6"/>
  <line x1="117" x2="415" y1="399.5" y2="399.5" class="net_6"/>
  <line x1="267" x2="305" y1="24.5" y2="24.5" class="net_12"/>
  <line x1="267" x2="277" y1="84.5" y2="84.5" class="net_13"/>
  <line x1="277" x2="277" y1="84.5" y2="39.5" class="net_13"/>
  <line x1="277" x2="305" y1="39.5" y2="39.5" class="net_13"/>
  <line x1="267" x2="305" y1="144.5" y2="144.5" class="net_19"/>
  <line x1="267" x2="277" y1="227" y2="227" class="net_16"/>
  <line x1="277" x2="277" y1="227" y2="159.5" class="net_16"/>
  <line x1="277" x2="305" y1="159.5" y2="159.5" class="net_16"/>
  <line x1="187" x2="240" y1="137" y2="137" class="net_14"/>
  <line x1="187" x2="227" y1="197" y2="197" class="net_15"/>
  <line x1="227" x2="227" y1="197" y2="152" class="net_15"/>
  <line x1="227" x2="240" y1="152" y2="152" class="net_15"/>
  <line x1="267" x2="305" y1="287" y2="287" class="net_17"/>
  <line x1="267" x2="277" y1="347" y2="347" class="net_18"/>
  <line x1="277" x2="277" y1="347" y2="302" class="net_18"/>
  <line x1="277" x2="305" y1="302" y2="302" class="net_18"/>
  <line x1="380" x2="415" y1="42" y2="42" class="net_7,8,9,10"/>
  <line x1="332" x2="374" y1="32" y2="32" class="net_7"/>
  <line x1="332" x2="342" y1="152" y2="152" class="net_8"/>
  <line x1="342" x2="342" y1="152" y2="52" class="net_8"/>
  <line x1="342" x2="374" y1="52" y2="52" class="net_8"/>
  <line x1="332" x2="352" y1="294.5" y2="294.5" class="net_9"/>
  <line x1="352" x2="352" y1="294.5" y2="72" class="net_9"/>
  <line x1="352" x2="374" y1="72" y2="72" class="net_9"/>
  <line x1="332" x2="374.5" y1="377" y2="377" class="net_10"/>
  <line x1="374.5" x2="374.5" y1="377" y2="92.5" class="net_10"/>
  <line x1="40" x2="92.8" y1="169.5" y2="169.5" class="net_3,4,5,6"/>
</svg>
