<svg xmlns="http://www.w3.org/2000/svg" xmlns:xlink="http://www.w3.org/1999/xlink" xmlns:s="https://github.com/nturley/netlistsvg" width="1121" height="619.5">
  <style>svg {
    stroke:#000;
    fill:none;
  }
  text {
    fill:#000;
    stroke:none;
    font-size:10px;
    font-weight: bold;
    font-family: "Courier New", monospace;
  }
  .nodelabel {
    text-anchor: middle;
  }
  .inputPortLabel {
    text-anchor: end;
  }
  .splitjoinBody {
    fill:#000;
  }</style>
  <g s:type="and" transform="translate(549,180.5)" s:width="30" s:height="25" id="cell_$auto$aigmap.cc:123:execute$103">
    <s:alias val="$and"/>
    <s:alias val="$logic_and"/>
    <s:alias val="$_AND_"/>
    <path d="M0,0 L0,25 L15,25 A15 12.5 0 0 0 15,0 Z" class="cell_$auto$aigmap.cc:123:execute$103"/>
    <g s:x="0" s:y="5" s:pid="A"/>
    <g s:x="0" s:y="20" s:pid="B"/>
    <g s:x="30" s:y="12.5" s:pid="Y"/>
  </g>
  <g s:type="and" transform="translate(679,188)" s:width="30" s:height="25" id="cell_$auto$aigmap.cc:123:execute$19">
    <s:alias val="$and"/>
    <s:alias val="$logic_and"/>
    <s:alias val="$_AND_"/>
    <path d="M0,0 L0,25 L15,25 A15 12.5 0 0 0 15,0 Z" class="cell_$auto$aigmap.cc:123:execute$19"/>
    <g s:x="0" s:y="5" s:pid="A"/>
    <g s:x="0" s:y="20" s:pid="B"/>
    <g s:x="30" s:y="12.5" s:pid="Y"/>
  </g>
  <g s:type="and" transform="translate(289,435.5)" s:width="30" s:height="25" id="cell_$auto$aigmap.cc:123:execute$27">
    <s:alias val="$and"/>
    <s:alias val="$logic_and"/>
    <s:alias val="$_AND_"/>
    <path d="M0,0 L0,25 L15,25 A15 12.5 0 0 0 15,0 Z" class="cell_$auto$aigmap.cc:123:execute$27"/>
    <g s:x="0" s:y="5" s:pid="A"/>
    <g s:x="0" s:y="20" s:pid="B"/>
    <g s:x="30" s:y="12.5" s:pid="Y"/>
  </g>
  <g s:type="and" transform="translate(289,510.5)" s:width="30" s:height="25" id="cell_$auto$aigmap.cc:123:execute$31">
    <s:alias val="$and"/>
    <s:alias val="$logic_and"/>
    <s:alias val="$_AND_"/>
    <path d="M0,0 L0,25 L15,25 A15 12.5 0 0 0 15,0 Z" class="cell_$auto$aigmap.cc:123:execute$31"/>
    <g s:x="0" s:y="5" s:pid="A"/>
    <g s:x="0" s:y="20" s:pid="B"/>
    <g s:x="30" s:y="12.5" s:pid="Y"/>
  </g>
  <g s:type="and" transform="translate(419,443)" s:width="30" s:height="25" id="cell_$auto$aigmap.cc:123:execute$35">
    <s:alias val="$and"/>
    <s:alias val="$logic_and"/>
    <s:alias val="$_AND_"/>
    <path d="M0,0 L0,25 L15,25 A15 12.5 0 0 0 15,0 Z" class="cell_$auto$aigmap.cc:123:execute$35"/>
    <g s:x="0" s:y="5" s:pid="A"/>
    <g s:x="0" s:y="20" s:pid="B"/>
    <g s:x="30" s:y="12.5" s:pid="Y"/>
  </g>
  <g s:type="and" transform="translate(549,450.5)" s:width="30" s:height="25" id="cell_$auto$aigmap.cc:123:execute$41">
    <s:alias val="$and"/>
    <s:alias val="$logic_and"/>
    <s:alias val="$_AND_"/>
    <path d="M0,0 L0,25 L15,25 A15 12.5 0 0 0 15,0 Z" class="cell_$auto$aigmap.cc:123:execute$41"/>
    <g s:x="0" s:y="5" s:pid="A"/>
    <g s:x="0" s:y="20" s:pid="B"/>
    <g s:x="30" s:y="12.5" s:pid="Y"/>
  </g>
  <g s:type="and" transform="translate(809,12)" s:width="30" s:height="25" id="cell_$auto$aigmap.cc:123:execute$45">
    <s:alias val="$and"/>
    <s:alias val="$logic_and"/>
    <s:alias val="$_AND_"/>
    <path d="M0,0 L0,25 L15,25 A15 12.5 0 0 0 15,0 Z" class="cell_$auto$aigmap.cc:123:execute$45"/>
    <g s:x="0" s:y="5" s:pid="A"/>
    <g s:x="0" s:y="20" s:pid="B"/>
    <g s:x="30" s:y="12.5" s:pid="Y"/>
  </g>
  <g s:type="and" transform="translate(809,72)" s:width="30" s:height="25" id="cell_$auto$aigmap.cc:123:execute$49">
    <s:alias val="$and"/>
    <s:alias val="$logic_and"/>
    <s:alias val="$_AND_"/>
    <path d="M0,0 L0,25 L15,25 A15 12.5 0 0 0 15,0 Z" class="cell_$auto$aigmap.cc:123:execute$49"/>
    <g s:x="0" s:y="5" s:pid="A"/>
    <g s:x="0" s:y="20" s:pid="B"/>
    <g s:x="30" s:y="12.5" s:pid="Y"/>
  </g>
  <g s:type="and" transform="translate(939,19.5)" s:width="30" s:height="25" id="cell_$auto$aigmap.cc:123:execute$53">
    <s:alias val="$and"/>
    <s:alias val="$logic_and"/>
    <s:alias val="$_AND_"/>
    <path d="M0,0 L0,25 L15,25 A15 12.5 0 0 0 15,0 Z" class="cell_$auto$aigmap.cc:123:execute$53"/>
    <g s:x="0" s:y="5" s:pid="A"/>
    <g s:x="0" s:y="20" s:pid="B"/>
    <g s:x="30" s:y="12.5" s:pid="Y"/>
  </g>
  <g s:type="and" transform="translate(874,129.5)" s:width="30" s:height="25" id="cell_$auto$aigmap.cc:123:execute$59">
    <s:alias val="$and"/>
    <s:alias val="$logic_and"/>
    <s:alias val="$_AND_"/>
    <path d="M0,0 L0,25 L15,25 A15 12.5 0 0 0 15,0 Z" class="cell_$auto$aigmap.cc:123:execute$59"/>
    <g s:x="0" s:y="5" s:pid="A"/>
    <g s:x="0" s:y="20" s:pid="B"/>
    <g s:x="30" s:y="12.5" s:pid="Y"/>
  </g>
  <g s:type="and" transform="translate(874,560.5)" s:width="30" s:height="25" id="cell_$auto$aigmap.cc:123:execute$63">
    <s:alias val="$and"/>
    <s:alias val="$logic_and"/>
    <s:alias val="$_AND_"/>
    <path d="M0,0 L0,25 L15,25 A15 12.5 0 0 0 15,0 Z" class="cell_$auto$aigmap.cc:123:execute$63"/>
    <g s:x="0" s:y="5" s:pid="A"/>
    <g s:x="0" s:y="20" s:pid="B"/>
    <g s:x="30" s:y="12.5" s:pid="Y"/>
  </g>
  <g s:type="and" transform="translate(1004,137)" s:width="30" s:height="25" id="cell_$auto$aigmap.cc:123:execute$67">
    <s:alias val="$and"/>
    <s:alias val="$logic_and"/>
    <s:alias val="$_AND_"/>
    <path d="M0,0 L0,25 L15,25 A15 12.5 0 0 0 15,0 Z" class="cell_$auto$aigmap.cc:123:execute$67"/>
    <g s:x="0" s:y="5" s:pid="A"/>
    <g s:x="0" s:y="20" s:pid="B"/>
    <g s:x="30" s:y="12.5" s:pid="Y"/>
  </g>
  <g s:type="and" transform="translate(289,165.5)" s:width="30" s:height="25" id="cell_$auto$aigmap.cc:123:execute$75">
    <s:alias val="$and"/>
    <s:alias val="$logic_and"/>
    <s:alias val="$_AND_"/>
    <path d="M0,0 L0,25 L15,25 A15 12.5 0 0 0 15,0 Z" class="cell_$auto$aigmap.cc:123:execute$75"/>
    <g s:x="0" s:y="5" s:pid="A"/>
    <g s:x="0" s:y="20" s:pid="B"/>
    <g s:x="30" s:y="12.5" s:pid="Y"/>
  </g>
  <g s:type="and" transform="translate(289,240.5)" s:width="30" s:height="25" id="cell_$auto$aigmap.cc:123:execute$79">
    <s:alias val="$and"/>
    <s:alias val="$logic_and"/>
    <s:alias val="$_AND_"/>
    <path d="M0,0 L0,25 L15,25 A15 12.5 0 0 0 15,0 Z" class="cell_$auto$aigmap.cc:123:execute$79"/>
    <g s:x="0" s:y="5" s:pid="A"/>
    <g s:x="0" s:y="20" s:pid="B"/>
    <g s:x="30" s:y="12.5" s:pid="Y"/>
  </g>
  <g s:type="and" transform="translate(419,173)" s:width="30" s:height="25" id="cell_$auto$aigmap.cc:123:execute$83">
    <s:alias val="$and"/>
    <s:alias val="$logic_and"/>
    <s:alias val="$_AND_"/>
    <path d="M0,0 L0,25 L15,25 A15 12.5 0 0 0 15,0 Z" class="cell_$auto$aigmap.cc:123:execute$83"/>
    <g s:x="0" s:y="5" s:pid="A"/>
    <g s:x="0" s:y="20" s:pid="B"/>
    <g s:x="30" s:y="12.5" s:pid="Y"/>
  </g>
  <g s:type="and" transform="translate(289,300.5)" s:width="30" s:height="25" id="cell_$auto$aigmap.cc:123:execute$91">
    <s:alias val="$and"/>
    <s:alias val="$logic_and"/>
    <s:alias val="$_AND_"/>
    <path d="M0,0 L0,25 L15,25 A15 12.5 0 0 0 15,0 Z" class="cell_$auto$aigmap.cc:123:execute$91"/>
    <g s:x="0" s:y="5" s:pid="A"/>
    <g s:x="0" s:y="20" s:pid="B"/>
    <g s:x="30" s:y="12.5" s:pid="Y"/>
  </g>
  <g s:type="and" transform="translate(289,375.5)" s:width="30" s:height="25" id="cell_$auto$aigmap.cc:123:execute$95">
    <s:alias val="$and"/>
    <s:alias val="$logic_and"/>
    <s:alias val="$_AND_"/>
    <path d="M0,0 L0,25 L15,25 A15 12.5 0 0 0 15,0 Z" class="cell_$auto$aigmap.cc:123:execute$95"/>
    <g s:x="0" s:y="5" s:pid="A"/>
    <g s:x="0" s:y="20" s:pid="B"/>
    <g s:x="30" s:y="12.5" s:pid="Y"/>
  </g>
  <g s:type="and" transform="translate(419,308)" s:width="30" s:height="25" id="cell_$auto$aigmap.cc:123:execute$99">
    <s:alias val="$and"/>
    <s:alias val="$logic_and"/>
    <s:alias val="$_AND_"/>
    <path d="M0,0 L0,25 L15,25 A15 12.5 0 0 0 15,0 Z" class="cell_$auto$aigmap.cc:123:execute$99"/>
    <g s:x="0" s:y="5" s:pid="A"/>
    <g s:x="0" s:y="20" s:pid="B"/>
    <g s:x="30" s:y="12.5" s:pid="Y"/>
  </g>
  <g s:type="not" transform="translate(484,310.5)" s:width="30" s:height="20" id="cell_$auto$aigmap.cc:132:execute$101">
    <s:alias val="$_NOT_"/>
    <s:alias val="$not"/>
    <s:alias val="$logic_not"/>
    <path d="M0,0 L0,20 L20,10 Z" class="cell_$auto$aigmap.cc:132:execute$101"/>
    <circle cx="23" cy="10" r="3" class="cell_$auto$aigmap.cc:132:execute$101"/>
    <g s:x="0" s:y="10" s:pid="A"/>
    <g s:x="25" s:y="10" s:pid="Y"/>
  </g>
  <g s:type="not" transform="translate(614,183)" s:width="30" s:height="20" id="cell_$auto$aigmap.cc:132:execute$15">
    <s:alias val="$_NOT_"/>
    <s:alias val="$not"/>
    <s:alias val="$logic_not"/>
    <path d="M0,0 L0,20 L20,10 Z" class="cell_$auto$aigmap.cc:132:execute$15"/>
    <circle cx="23" cy="10" r="3" class="cell_$auto$aigmap.cc:132:execute$15"/>
    <g s:x="0" s:y="10" s:pid="A"/>
    <g s:x="25" s:y="10" s:pid="Y"/>
  </g>
  <g s:type="not" transform="translate(614,453)" s:width="30" s:height="20" id="cell_$auto$aigmap.cc:132:execute$17">
    <s:alias val="$_NOT_"/>
    <s:alias val="$not"/>
    <s:alias val="$logic_not"/>
    <path d="M0,0 L0,20 L20,10 Z" class="cell_$auto$aigmap.cc:132:execute$17"/>
    <circle cx="23" cy="10" r="3" class="cell_$auto$aigmap.cc:132:execute$17"/>
    <g s:x="0" s:y="10" s:pid="A"/>
    <g s:x="25" s:y="10" s:pid="Y"/>
  </g>
  <g s:type="not" transform="translate(744,190.5)" s:width="30" s:height="20" id="cell_$auto$aigmap.cc:132:execute$21">
    <s:alias val="$_NOT_"/>
    <s:alias val="$not"/>
    <s:alias val="$logic_not"/>
    <path d="M0,0 L0,20 L20,10 Z" class="cell_$auto$aigmap.cc:132:execute$21"/>
    <circle cx="23" cy="10" r="3" class="cell_$auto$aigmap.cc:132:execute$21"/>
    <g s:x="0" s:y="10" s:pid="A"/>
    <g s:x="25" s:y="10" s:pid="Y"/>
  </g>
  <g s:type="not" transform="translate(224,430.5)" s:width="30" s:height="20" id="cell_$auto$aigmap.cc:132:execute$23">
    <s:alias val="$_NOT_"/>
    <s:alias val="$not"/>
    <s:alias val="$logic_not"/>
    <path d="M0,0 L0,20 L20,10 Z" class="cell_$auto$aigmap.cc:132:execute$23"/>
    <circle cx="23" cy="10" r="3" class="cell_$auto$aigmap.cc:132:execute$23"/>
    <g s:x="0" s:y="10" s:pid="A"/>
    <g s:x="25" s:y="10" s:pid="Y"/>
  </g>
  <g s:type="not" transform="translate(224,485.5)" s:width="30" s:height="20" id="cell_$auto$aigmap.cc:132:execute$25">
    <s:alias val="$_NOT_"/>
    <s:alias val="$not"/>
    <s:alias val="$logic_not"/>
    <path d="M0,0 L0,20 L20,10 Z" class="cell_$auto$aigmap.cc:132:execute$25"/>
    <circle cx="23" cy="10" r="3" class="cell_$auto$aigmap.cc:132:execute$25"/>
    <g s:x="0" s:y="10" s:pid="A"/>
    <g s:x="25" s:y="10" s:pid="Y"/>
  </g>
  <g s:type="not" transform="translate(354,438)" s:width="30" s:height="20" id="cell_$auto$aigmap.cc:132:execute$29">
    <s:alias val="$_NOT_"/>
    <s:alias val="$not"/>
    <s:alias val="$logic_not"/>
    <path d="M0,0 L0,20 L20,10 Z" class="cell_$auto$aigmap.cc:132:execute$29"/>
    <circle cx="23" cy="10" r="3" class="cell_$auto$aigmap.cc:132:execute$29"/>
    <g s:x="0" s:y="10" s:pid="A"/>
    <g s:x="25" s:y="10" s:pid="Y"/>
  </g>
  <g s:type="not" transform="translate(354,513)" s:width="30" s:height="20" id="cell_$auto$aigmap.cc:132:execute$33">
    <s:alias val="$_NOT_"/>
    <s:alias val="$not"/>
    <s:alias val="$logic_not"/>
    <path d="M0,0 L0,20 L20,10 Z" class="cell_$auto$aigmap.cc:132:execute$33"/>
    <circle cx="23" cy="10" r="3" class="cell_$auto$aigmap.cc:132:execute$33"/>
    <g s:x="0" s:y="10" s:pid="A"/>
    <g s:x="25" s:y="10" s:pid="Y"/>
  </g>
  <g s:type="not" transform="translate(484,445.5)" s:width="30" s:height="20" id="cell_$auto$aigmap.cc:132:execute$37">
    <s:alias val="$_NOT_"/>
    <s:alias val="$not"/>
    <s:alias val="$logic_not"/>
    <path d="M0,0 L0,20 L20,10 Z" class="cell_$auto$aigmap.cc:132:execute$37"/>
    <circle cx="23" cy="10" r="3" class="cell_$auto$aigmap.cc:132:execute$37"/>
    <g s:x="0" s:y="10" s:pid="A"/>
    <g s:x="25" s:y="10" s:pid="Y"/>
  </g>
  <g s:type="not" transform="translate(484,535.5)" s:width="30" s:height="20" id="cell_$auto$aigmap.cc:132:execute$39">
    <s:alias val="$_NOT_"/>
    <s:alias val="$not"/>
    <s:alias val="$logic_not"/>
    <path d="M0,0 L0,20 L20,10 Z" class="cell_$auto$aigmap.cc:132:execute$39"/>
    <circle cx="23" cy="10" r="3" class="cell_$auto$aigmap.cc:132:execute$39"/>
    <g s:x="0" s:y="10" s:pid="A"/>
    <g s:x="25" s:y="10" s:pid="Y"/>
  </g>
  <g s:type="not" transform="translate(744,88)" s:width="30" s:height="20" id="cell_$auto$aigmap.cc:132:execute$43">
    <s:alias val="$_NOT_"/>
    <s:alias val="$not"/>
    <s:alias val="$logic_not"/>
    <path d="M0,0 L0,20 L20,10 Z" class="cell_$auto$aigmap.cc:132:execute$43"/>
    <circle cx="23" cy="10" r="3" class="cell_$auto$aigmap.cc:132:execute$43"/>
    <g s:x="0" s:y="10" s:pid="A"/>
    <g s:x="25" s:y="10" s:pid="Y"/>
  </g>
  <g s:type="not" transform="translate(874,14.5)" s:width="30" s:height="20" id="cell_$auto$aigmap.cc:132:execute$47">
    <s:alias val="$_NOT_"/>
    <s:alias val="$not"/>
    <s:alias val="$logic_not"/>
    <path d="M0,0 L0,20 L20,10 Z" class="cell_$auto$aigmap.cc:132:execute$47"/>
    <circle cx="23" cy="10" r="3" class="cell_$auto$aigmap.cc:132:execute$47"/>
    <g s:x="0" s:y="10" s:pid="A"/>
    <g s:x="25" s:y="10" s:pid="Y"/>
  </g>
  <g s:type="not" transform="translate(874,74.5)" s:width="30" s:height="20" id="cell_$auto$aigmap.cc:132:execute$51">
    <s:alias val="$_NOT_"/>
    <s:alias val="$not"/>
    <s:alias val="$logic_not"/>
    <path d="M0,0 L0,20 L20,10 Z" class="cell_$auto$aigmap.cc:132:execute$51"/>
    <circle cx="23" cy="10" r="3" class="cell_$auto$aigmap.cc:132:execute$51"/>
    <g s:x="0" s:y="10" s:pid="A"/>
    <g s:x="25" s:y="10" s:pid="Y"/>
  </g>
  <g s:type="not" transform="translate(1004,22)" s:width="30" s:height="20" id="cell_$auto$aigmap.cc:132:execute$55">
    <s:alias val="$_NOT_"/>
    <s:alias val="$not"/>
    <s:alias val="$logic_not"/>
    <path d="M0,0 L0,20 L20,10 Z" class="cell_$auto$aigmap.cc:132:execute$55"/>
    <circle cx="23" cy="10" r="3" class="cell_$auto$aigmap.cc:132:execute$55"/>
    <g s:x="0" s:y="10" s:pid="A"/>
    <g s:x="25" s:y="10" s:pid="Y"/>
  </g>
  <g s:type="not" transform="translate(809,576.5)" s:width="30" s:height="20" id="cell_$auto$aigmap.cc:132:execute$57">
    <s:alias val="$_NOT_"/>
    <s:alias val="$not"/>
    <s:alias val="$logic_not"/>
    <path d="M0,0 L0,20 L20,10 Z" class="cell_$auto$aigmap.cc:132:execute$57"/>
    <circle cx="23" cy="10" r="3" class="cell_$auto$aigmap.cc:132:execute$57"/>
    <g s:x="0" s:y="10" s:pid="A"/>
    <g s:x="25" s:y="10" s:pid="Y"/>
  </g>
  <g s:type="not" transform="translate(939,132)" s:width="30" s:height="20" id="cell_$auto$aigmap.cc:132:execute$61">
    <s:alias val="$_NOT_"/>
    <s:alias val="$not"/>
    <s:alias val="$logic_not"/>
    <path d="M0,0 L0,20 L20,10 Z" class="cell_$auto$aigmap.cc:132:execute$61"/>
    <circle cx="23" cy="10" r="3" class="cell_$auto$aigmap.cc:132:execute$61"/>
    <g s:x="0" s:y="10" s:pid="A"/>
    <g s:x="25" s:y="10" s:pid="Y"/>
  </g>
  <g s:type="not" transform="translate(939,563)" s:width="30" s:height="20" id="cell_$auto$aigmap.cc:132:execute$65">
    <s:alias val="$_NOT_"/>
    <s:alias val="$not"/>
    <s:alias val="$logic_not"/>
    <path d="M0,0 L0,20 L20,10 Z" class="cell_$auto$aigmap.cc:132:execute$65"/>
    <circle cx="23" cy="10" r="3" class="cell_$auto$aigmap.cc:132:execute$65"/>
    <g s:x="0" s:y="10" s:pid="A"/>
    <g s:x="25" s:y="10" s:pid="Y"/>
  </g>
  <g s:type="not" transform="translate(1069,139.5)" s:width="30" s:height="20" id="cell_$auto$aigmap.cc:132:execute$69">
    <s:alias val="$_NOT_"/>
    <s:alias val="$not"/>
    <s:alias val="$logic_not"/>
    <path d="M0,0 L0,20 L20,10 Z" class="cell_$auto$aigmap.cc:132:execute$69"/>
    <circle cx="23" cy="10" r="3" class="cell_$auto$aigmap.cc:132:execute$69"/>
    <g s:x="0" s:y="10" s:pid="A"/>
    <g s:x="25" s:y="10" s:pid="Y"/>
  </g>
  <g s:type="not" transform="translate(224,160.5)" s:width="30" s:height="20" id="cell_$auto$aigmap.cc:132:execute$71">
    <s:alias val="$_NOT_"/>
    <s:alias val="$not"/>
    <s:alias val="$logic_not"/>
    <path d="M0,0 L0,20 L20,10 Z" class="cell_$auto$aigmap.cc:132:execute$71"/>
    <circle cx="23" cy="10" r="3" class="cell_$auto$aigmap.cc:132:execute$71"/>
    <g s:x="0" s:y="10" s:pid="A"/>
    <g s:x="25" s:y="10" s:pid="Y"/>
  </g>
  <g s:type="not" transform="translate(224,215.5)" s:width="30" s:height="20" id="cell_$auto$aigmap.cc:132:execute$73">
    <s:alias val="$_NOT_"/>
    <s:alias val="$not"/>
    <s:alias val="$logic_not"/>
    <path d="M0,0 L0,20 L20,10 Z" class="cell_$auto$aigmap.cc:132:execute$73"/>
    <circle cx="23" cy="10" r="3" class="cell_$auto$aigmap.cc:132:execute$73"/>
    <g s:x="0" s:y="10" s:pid="A"/>
    <g s:x="25" s:y="10" s:pid="Y"/>
  </g>
  <g s:type="not" transform="translate(354,168)" s:width="30" s:height="20" id="cell_$auto$aigmap.cc:132:execute$77">
    <s:alias val="$_NOT_"/>
    <s:alias val="$not"/>
    <s:alias val="$logic_not"/>
    <path d="M0,0 L0,20 L20,10 Z" class="cell_$auto$aigmap.cc:132:execute$77"/>
    <circle cx="23" cy="10" r="3" class="cell_$auto$aigmap.cc:132:execute$77"/>
    <g s:x="0" s:y="10" s:pid="A"/>
    <g s:x="25" s:y="10" s:pid="Y"/>
  </g>
  <g s:type="not" transform="translate(354,243)" s:width="30" s:height="20" id="cell_$auto$aigmap.cc:132:execute$81">
    <s:alias val="$_NOT_"/>
    <s:alias val="$not"/>
    <s:alias val="$logic_not"/>
    <path d="M0,0 L0,20 L20,10 Z" class="cell_$auto$aigmap.cc:132:execute$81"/>
    <circle cx="23" cy="10" r="3" class="cell_$auto$aigmap.cc:132:execute$81"/>
    <g s:x="0" s:y="10" s:pid="A"/>
    <g s:x="25" s:y="10" s:pid="Y"/>
  </g>
  <g s:type="not" transform="translate(484,175.5)" s:width="30" s:height="20" id="cell_$auto$aigmap.cc:132:execute$85">
    <s:alias val="$_NOT_"/>
    <s:alias val="$not"/>
    <s:alias val="$logic_not"/>
    <path d="M0,0 L0,20 L20,10 Z" class="cell_$auto$aigmap.cc:132:execute$85"/>
    <circle cx="23" cy="10" r="3" class="cell_$auto$aigmap.cc:132:execute$85"/>
    <g s:x="0" s:y="10" s:pid="A"/>
    <g s:x="25" s:y="10" s:pid="Y"/>
  </g>
  <g s:type="not" transform="translate(224,295.5)" s:width="30" s:height="20" id="cell_$auto$aigmap.cc:132:execute$87">
    <s:alias val="$_NOT_"/>
    <s:alias val="$not"/>
    <s:alias val="$logic_not"/>
    <path d="M0,0 L0,20 L20,10 Z" class="cell_$auto$aigmap.cc:132:execute$87"/>
    <circle cx="23" cy="10" r="3" class="cell_$auto$aigmap.cc:132:execute$87"/>
    <g s:x="0" s:y="10" s:pid="A"/>
    <g s:x="25" s:y="10" s:pid="Y"/>
  </g>
  <g s:type="not" transform="translate(224,350.5)" s:width="30" s:height="20" id="cell_$auto$aigmap.cc:132:execute$89">
    <s:alias val="$_NOT_"/>
    <s:alias val="$not"/>
    <s:alias val="$logic_not"/>
    <path d="M0,0 L0,20 L20,10 Z" class="cell_$auto$aigmap.cc:132:execute$89"/>
    <circle cx="23" cy="10" r="3" class="cell_$auto$aigmap.cc:132:execute$89"/>
    <g s:x="0" s:y="10" s:pid="A"/>
    <g s:x="25" s:y="10" s:pid="Y"/>
  </g>
  <g s:type="not" transform="translate(354,303)" s:width="30" s:height="20" id="cell_$auto$aigmap.cc:132:execute$93">
    <s:alias val="$_NOT_"/>
    <s:alias val="$not"/>
    <s:alias val="$logic_not"/>
    <path d="M0,0 L0,20 L20,10 Z" class="cell_$auto$aigmap.cc:132:execute$93"/>
    <circle cx="23" cy="10" r="3" class="cell_$auto$aigmap.cc:132:execute$93"/>
    <g s:x="0" s:y="10" s:pid="A"/>
    <g s:x="25" s:y="10" s:pid="Y"/>
  </g>
  <g s:type="not" transform="translate(354,378)" s:width="30" s:height="20" id="cell_$auto$aigmap.cc:132:execute$97">
    <s:alias val="$_NOT_"/>
    <s:alias val="$not"/>
    <s:alias val="$logic_not"/>
    <path d="M0,0 L0,20 L20,10 Z" class="cell_$auto$aigmap.cc:132:execute$97"/>
    <circle cx="23" cy="10" r="3" class="cell_$auto$aigmap.cc:132:execute$97"/>
    <g s:x="0" s:y="10" s:pid="A"/>
    <g s:x="25" s:y="10" s:pid="Y"/>
  </g>
  <g s:type="generic" transform="translate(108,215)" s:width="30" s:height="40" id="cell_$procdff$11">
    <text x="15" y="-4" class="nodelabel cell_$procdff$11" s:attribute="ref">$adff</text>
    <rect width="30" height="60" s:generic="body" class="cell_$procdff$11"/>
    <g transform="translate(0,10)" s:x="0" s:y="10" s:pid="in0" id="port_$procdff$11~ARST">
      <text x="-3" y="-4" class="inputPortLabel cell_$procdff$11">ARST</text>
    </g>
    <g transform="translate(0,30)" s:x="0" s:y="10" s:pid="in0" id="port_$procdff$11~CLK">
      <text x="-3" y="-4" class="inputPortLabel cell_$procdff$11">CLK</text>
    </g>
    <g transform="translate(0,50)" s:x="0" s:y="10" s:pid="in0" id="port_$procdff$11~D">
      <text x="-3" y="-4" class="inputPortLabel cell_$procdff$11">D</text>
    </g>
    <g transform="translate(30,10)" s:x="30" s:y="10" s:pid="out0" id="port_$procdff$11~Q">
      <text x="5" y="-4" style="fill:#000; stroke:none" class="cell_$procdff$11">Q</text>
    </g>
  </g>
  <g s:type="inputExt" transform="translate(12,280.5)" s:width="30" s:height="20" id="cell_clk">
    <text x="15" y="-4" class="nodelabel cell_clk" s:attribute="ref">clk</text>
    <s:alias val="$_inputExt_"/>
    <path d="M0,0 L0,20 L15,20 L30,10 L15,0 Z" class="cell_clk"/>
    <g s:x="28" s:y="10" s:pid="Y"/>
  </g>
  <g s:type="inputExt" transform="translate(12,215.5)" s:width="30" s:height="20" id="cell_areset">
    <text x="15" y="-4" class="nodelabel cell_areset" s:attribute="ref">areset</text>
    <s:alias val="$_inputExt_"/>
    <path d="M0,0 L0,20 L15,20 L30,10 L15,0 Z" class="cell_areset"/>
    <g s:x="28" s:y="10" s:pid="Y"/>
  </g>
  <g s:type="inputExt" transform="translate(108,450.5)" s:width="30" s:height="20" id="cell_in">
    <text x="15" y="-4" class="nodelabel cell_in" s:attribute="ref">in</text>
    <s:alias val="$_inputExt_"/>
    <path d="M0,0 L0,20 L15,20 L30,10 L15,0 Z" class="cell_in"/>
    <g s:x="28" s:y="10" s:pid="Y"/>
  </g>
  <g s:type="outputExt" transform="translate(1069,22)" s:width="30" s:height="20" id="cell_out">
    <text x="15" y="-4" class="nodelabel cell_out" s:attribute="ref">out</text>
    <s:alias val="$_outputExt_"/>
    <path d="M30,0 L30,20 L15,20 L0,10 L15,0 Z" class="cell_out"/>
    <g s:x="0" s:y="10" s:pid="A"/>
  </g>
  <g s:type="constant" transform="translate(108,385.5)" s:width="30" s:height="20" id="cell_1">
    <text x="15" y="-4" class="nodelabel cell_1" s:attribute="ref">1</text>
    <s:alias val="$_constant_"/>
    <rect width="30" height="20" class="cell_1"/>
    <g s:x="30" s:y="10" s:pid="Y"/>
  </g>
  <g s:type="constant" transform="translate(108,139.5)" s:width="30" s:height="20" id="cell_0">
    <text x="15" y="-4" class="nodelabel cell_0" s:attribute="ref">0</text>
    <s:alias val="$_constant_"/>
    <rect width="30" height="20" class="cell_0"/>
    <g s:x="30" s:y="10" s:pid="Y"/>
  </g>
  <line x1="509" x2="549" y1="185.5" y2="185.5" class="net_6"/>
  <line x1="509" x2="524" y1="320.5" y2="320.5" class="net_7"/>
  <line x1="524" x2="524" y1="320.5" y2="200.5" class="net_7"/>
  <line x1="524" x2="549" y1="200.5" y2="200.5" class="net_7"/>
  <line x1="639" x2="679" y1="193" y2="193" class="net_9"/>
  <line x1="639" x2="654" y1="463" y2="463" class="net_10"/>
  <line x1="654" x2="654" y1="463" y2="208" class="net_10"/>
  <line x1="654" x2="679" y1="208" y2="208" class="net_10"/>
  <line x1="249" x2="289" y1="440.5" y2="440.5" class="net_12"/>
  <line x1="249" x2="264" y1="495.5" y2="495.5" class="net_13"/>
  <line x1="264" x2="264" y1="495.5" y2="455.5" class="net_13"/>
  <line x1="264" x2="289" y1="455.5" y2="455.5" class="net_13"/>
  <line x1="139" x2="204" y1="225.5" y2="225.5" class="net_15"/>
  <line x1="204" x2="204" y1="225.5" y2="515.5" class="net_15"/>
  <circle cx="204" cy="225.5" r="2" style="fill:#000" class="net_15"/>
  <line x1="204" x2="289" y1="515.5" y2="515.5" class="net_15"/>
  <line x1="139" x2="204" y1="225.5" y2="225.5" class="net_15"/>
  <line x1="204" x2="204" y1="225.5" y2="17" class="net_15"/>
  <line x1="204" x2="809" y1="17" y2="17" class="net_15"/>
  <line x1="139" x2="204" y1="225.5" y2="225.5" class="net_15"/>
  <line x1="204" x2="204" y1="225.5" y2="245.5" class="net_15"/>
  <circle cx="204" cy="245.5" r="2" style="fill:#000" class="net_15"/>
  <line x1="204" x2="289" y1="245.5" y2="245.5" class="net_15"/>
  <line x1="139" x2="204" y1="225.5" y2="225.5" class="net_15"/>
  <line x1="204" x2="204" y1="225.5" y2="495.5" class="net_15"/>
  <circle cx="204" cy="495.5" r="2" style="fill:#000" class="net_15"/>
  <line x1="204" x2="224" y1="495.5" y2="495.5" class="net_15"/>
  <line x1="139" x2="204" y1="225.5" y2="225.5" class="net_15"/>
  <line x1="204" x2="204" y1="225.5" y2="98" class="net_15"/>
  <circle cx="204" cy="98" r="2" style="fill:#000" class="net_15"/>
  <line x1="204" x2="744" y1="98" y2="98" class="net_15"/>
  <line x1="139" x2="224" y1="225.5" y2="225.5" class="net_15"/>
  <line x1="138" x2="184" y1="395.5" y2="395.5" class="net_51"/>
  <line x1="184" x2="184" y1="395.5" y2="530.5" class="net_51"/>
  <circle cx="184" cy="395.5" r="2" style="fill:#000" class="net_51"/>
  <circle cx="184" cy="530.5" r="2" style="fill:#000" class="net_51"/>
  <line x1="184" x2="289" y1="530.5" y2="530.5" class="net_51"/>
  <line x1="138" x2="184" y1="395.5" y2="395.5" class="net_51"/>
  <line x1="184" x2="184" y1="395.5" y2="32" class="net_51"/>
  <line x1="184" x2="809" y1="32" y2="32" class="net_51"/>
  <line x1="138" x2="184" y1="395.5" y2="395.5" class="net_51"/>
  <line x1="184" x2="184" y1="395.5" y2="565.5" class="net_51"/>
  <line x1="184" x2="874" y1="565.5" y2="565.5" class="net_51"/>
  <line x1="138" x2="289" y1="395.5" y2="395.5" class="net_51"/>
  <line x1="138" x2="184" y1="395.5" y2="395.5" class="net_51"/>
  <line x1="184" x2="184" y1="395.5" y2="440.5" class="net_51"/>
  <circle cx="184" cy="440.5" r="2" style="fill:#000" class="net_51"/>
  <line x1="184" x2="224" y1="440.5" y2="440.5" class="net_51"/>
  <line x1="138" x2="184" y1="395.5" y2="395.5" class="net_51"/>
  <line x1="184" x2="184" y1="395.5" y2="305.5" class="net_51"/>
  <circle cx="184" cy="305.5" r="2" style="fill:#000" class="net_51"/>
  <line x1="184" x2="224" y1="305.5" y2="305.5" class="net_51"/>
  <line x1="379" x2="419" y1="448" y2="448" class="net_17"/>
  <line x1="379" x2="394" y1="523" y2="523" class="net_18"/>
  <line x1="394" x2="394" y1="523" y2="463" class="net_18"/>
  <line x1="394" x2="419" y1="463" y2="463" class="net_18"/>
  <line x1="509" x2="549" y1="455.5" y2="455.5" class="net_20"/>
  <line x1="509" x2="524" y1="545.5" y2="545.5" class="net_21"/>
  <line x1="524" x2="524" y1="545.5" y2="470.5" class="net_21"/>
  <line x1="524" x2="549" y1="470.5" y2="470.5" class="net_21"/>
  <line x1="138" x2="214" y1="149.5" y2="149.5" class="net_53"/>
  <line x1="214" x2="214" y1="149.5" y2="77" class="net_53"/>
  <circle cx="214" cy="149.5" r="2" style="fill:#000" class="net_53"/>
  <line x1="214" x2="809" y1="77" y2="77" class="net_53"/>
  <line x1="138" x2="874" y1="149.5" y2="149.5" class="net_53"/>
  <line x1="138" x2="214" y1="149.5" y2="149.5" class="net_53"/>
  <line x1="214" x2="214" y1="149.5" y2="260.5" class="net_53"/>
  <line x1="214" x2="289" y1="260.5" y2="260.5" class="net_53"/>
  <line x1="138" x2="214" y1="149.5" y2="149.5" class="net_53"/>
  <line x1="214" x2="214" y1="149.5" y2="170.5" class="net_53"/>
  <circle cx="214" cy="170.5" r="2" style="fill:#000" class="net_53"/>
  <line x1="214" x2="224" y1="170.5" y2="170.5" class="net_53"/>
  <line x1="769" x2="784" y1="98" y2="98" class="net_24"/>
  <line x1="784" x2="784" y1="98" y2="92" class="net_24"/>
  <line x1="784" x2="809" y1="92" y2="92" class="net_24"/>
  <line x1="899" x2="939" y1="24.5" y2="24.5" class="net_26"/>
  <line x1="899" x2="914" y1="84.5" y2="84.5" class="net_27"/>
  <line x1="914" x2="914" y1="84.5" y2="39.5" class="net_27"/>
  <line x1="914" x2="939" y1="39.5" y2="39.5" class="net_27"/>
  <line x1="769" x2="784" y1="200.5" y2="200.5" class="net_29"/>
  <line x1="784" x2="784" y1="200.5" y2="134.5" class="net_29"/>
  <circle cx="784" cy="200.5" r="2" style="fill:#000" class="net_29"/>
  <line x1="784" x2="874" y1="134.5" y2="134.5" class="net_29"/>
  <line x1="769" x2="784" y1="200.5" y2="200.5" class="net_29"/>
  <line x1="784" x2="784" y1="200.5" y2="586.5" class="net_29"/>
  <line x1="784" x2="809" y1="586.5" y2="586.5" class="net_29"/>
  <line x1="834" x2="849" y1="586.5" y2="586.5" class="net_31"/>
  <line x1="849" x2="849" y1="586.5" y2="580.5" class="net_31"/>
  <line x1="849" x2="874" y1="580.5" y2="580.5" class="net_31"/>
  <line x1="964" x2="1004" y1="142" y2="142" class="net_33"/>
  <line x1="964" x2="979" y1="573" y2="573" class="net_34"/>
  <line x1="979" x2="979" y1="573" y2="157" class="net_34"/>
  <line x1="979" x2="1004" y1="157" y2="157" class="net_34"/>
  <line x1="249" x2="289" y1="170.5" y2="170.5" class="net_36"/>
  <line x1="249" x2="264" y1="225.5" y2="225.5" class="net_37"/>
  <line x1="264" x2="264" y1="225.5" y2="185.5" class="net_37"/>
  <line x1="264" x2="289" y1="185.5" y2="185.5" class="net_37"/>
  <line x1="379" x2="419" y1="178" y2="178" class="net_40"/>
  <line x1="379" x2="394" y1="253" y2="253" class="net_41"/>
  <line x1="394" x2="394" y1="253" y2="193" class="net_41"/>
  <line x1="394" x2="419" y1="193" y2="193" class="net_41"/>
  <line x1="249" x2="289" y1="305.5" y2="305.5" class="net_43"/>
  <line x1="249" x2="264" y1="360.5" y2="360.5" class="net_44"/>
  <line x1="264" x2="264" y1="360.5" y2="320.5" class="net_44"/>
  <line x1="264" x2="289" y1="320.5" y2="320.5" class="net_44"/>
  <line x1="136" x2="194" y1="460.5" y2="460.5" class="net_4"/>
  <line x1="194" x2="194" y1="460.5" y2="380.5" class="net_4"/>
  <circle cx="194" cy="460.5" r="2" style="fill:#000" class="net_4"/>
  <circle cx="194" cy="380.5" r="2" style="fill:#000" class="net_4"/>
  <line x1="194" x2="289" y1="380.5" y2="380.5" class="net_4"/>
  <line x1="136" x2="194" y1="460.5" y2="460.5" class="net_4"/>
  <line x1="194" x2="194" y1="460.5" y2="545.5" class="net_4"/>
  <line x1="194" x2="484" y1="545.5" y2="545.5" class="net_4"/>
  <line x1="136" x2="194" y1="460.5" y2="460.5" class="net_4"/>
  <line x1="194" x2="194" y1="460.5" y2="360.5" class="net_4"/>
  <line x1="194" x2="224" y1="360.5" y2="360.5" class="net_4"/>
  <line x1="379" x2="419" y1="313" y2="313" class="net_47"/>
  <line x1="379" x2="394" y1="388" y2="388" class="net_48"/>
  <line x1="394" x2="394" y1="388" y2="328" class="net_48"/>
  <line x1="394" x2="419" y1="328" y2="328" class="net_48"/>
  <line x1="449" x2="484" y1="320.5" y2="320.5" class="net_49"/>
  <line x1="579" x2="614" y1="193" y2="193" class="net_8"/>
  <line x1="579" x2="614" y1="463" y2="463" class="net_22"/>
  <line x1="709" x2="744" y1="200.5" y2="200.5" class="net_11"/>
  <line x1="319" x2="354" y1="448" y2="448" class="net_14"/>
  <line x1="319" x2="354" y1="523" y2="523" class="net_16"/>
  <line x1="449" x2="484" y1="455.5" y2="455.5" class="net_19"/>
  <line x1="839" x2="874" y1="24.5" y2="24.5" class="net_23"/>
  <line x1="839" x2="874" y1="84.5" y2="84.5" class="net_25"/>
  <line x1="969" x2="1004" y1="32" y2="32" class="net_28"/>
  <line x1="904" x2="939" y1="142" y2="142" class="net_30"/>
  <line x1="904" x2="939" y1="573" y2="573" class="net_32"/>
  <line x1="1034" x2="1069" y1="149.5" y2="149.5" class="net_35"/>
  <line x1="319" x2="354" y1="178" y2="178" class="net_38"/>
  <line x1="319" x2="354" y1="253" y2="253" class="net_39"/>
  <line x1="449" x2="484" y1="185.5" y2="185.5" class="net_42"/>
  <line x1="319" x2="354" y1="313" y2="313" class="net_45"/>
  <line x1="319" x2="354" y1="388" y2="388" class="net_46"/>
  <line x1="40" x2="108" y1="225.5" y2="225.5" class="net_3"/>
  <line x1="40" x2="58" y1="290.5" y2="290.5" class="net_2"/>
  <line x1="58" x2="58" y1="290.5" y2="245.5" class="net_2"/>
  <line x1="58" x2="108" y1="245.5" y2="245.5" class="net_2"/>
  <line x1="1094" x2="1109" y1="149.5" y2="149.5" class="net_50"/>
  <line x1="1109" x2="1109" y1="149.5" y2="606.5" class="net_50"/>
  <line x1="1109" x2="68" y1="606.5" y2="606.5" class="net_50"/>
  <line x1="68" x2="68" y1="606.5" y2="265.5" class="net_50"/>
  <line x1="68" x2="108" y1="265.5" y2="265.5" class="net_50"/>
  <line x1="1029" x2="1069" y1="32" y2="32" class="net_5"/>
</svg>
