<?xml version="1.0" encoding="UTF-8" standalone="no"?>
<!DOCTYPE svg PUBLIC "-//W3C//DTD SVG 1.1//EN"
 "http://www.w3.org/Graphics/SVG/1.1/DTD/svg11.dtd">
<!-- Generated by graphviz version 4.0.0 (20220529.0937)
 -->
<!-- Title: top_module Pages: 1 -->
<svg width="914pt" height="289pt"
 viewBox="0.00 0.00 914.35 288.71" xmlns="http://www.w3.org/2000/svg" xmlns:xlink="http://www.w3.org/1999/xlink">
<g id="graph0" class="graph" transform="scale(1 1) rotate(0) translate(4 284.71)">
<title>top_module</title>
<polygon fill="white" stroke="transparent" points="-4,4 -4,-284.71 910.35,-284.71 910.35,4 -4,4"/>
<text text-anchor="middle" x="453.17" y="-7.8" font-family="Times New Roman,serif" font-size="14.00">top_module</text>
<!-- n1 -->
<g id="node1" class="node">
<title>n1</title>
<polygon fill="none" stroke="black" points="68.91,-167.54 68.91,-182.46 48.74,-193 20.2,-193 0.03,-182.46 0.03,-167.54 20.2,-157 48.74,-157 68.91,-167.54"/>
<text text-anchor="middle" x="34.47" y="-171.3" font-family="Times New Roman,serif" font-size="14.00">areset</text>
</g>
<!-- c17 -->
<g id="node10" class="node">
<title>c17</title>
<polygon fill="none" stroke="black" points="104.94,-167.5 104.94,-236.5 284.94,-236.5 284.94,-167.5 104.94,-167.5"/>
<text text-anchor="middle" x="117.94" y="-221.3" font-family="Times New Roman,serif" font-size="14.00">C</text>
<polyline fill="none" stroke="black" points="104.94,-213.5 130.94,-213.5 "/>
<text text-anchor="middle" x="117.94" y="-198.3" font-family="Times New Roman,serif" font-size="14.00">D</text>
<polyline fill="none" stroke="black" points="104.94,-190.5 130.94,-190.5 "/>
<text text-anchor="middle" x="117.94" y="-175.3" font-family="Times New Roman,serif" font-size="14.00">S</text>
<polyline fill="none" stroke="black" points="130.94,-167.5 130.94,-236.5 "/>
<text text-anchor="middle" x="194.44" y="-205.8" font-family="Times New Roman,serif" font-size="14.00">state_SB_DFFS_Q</text>
<text text-anchor="middle" x="194.44" y="-190.8" font-family="Times New Roman,serif" font-size="14.00">SB_DFFS</text>
<polyline fill="none" stroke="black" points="257.94,-167.5 257.94,-236.5 "/>
<text text-anchor="middle" x="271.44" y="-198.3" font-family="Times New Roman,serif" font-size="14.00">Q</text>
</g>
<!-- n1&#45;&gt;c17 -->
<g id="edge1" class="edge">
<title>n1:e&#45;&gt;c17:w</title>
<path fill="none" stroke="#66a61e" d="M68.94,-175C81.02,-175 86.17,-177.25 94.79,-178.38"/>
<polygon fill="#66a61e" stroke="#66a61e" points="94.75,-181.88 104.94,-179 95.18,-174.89 94.75,-181.88"/>
</g>
<!-- n2 -->
<g id="node2" class="node">
<title>n2</title>
<polygon fill="none" stroke="black" points="61.47,-221.54 61.47,-236.46 45.65,-247 23.29,-247 7.47,-236.46 7.47,-221.54 23.29,-211 45.65,-211 61.47,-221.54"/>
<text text-anchor="middle" x="34.47" y="-225.3" font-family="Times New Roman,serif" font-size="14.00">clk</text>
</g>
<!-- n2&#45;&gt;c17 -->
<g id="edge2" class="edge">
<title>n2:e&#45;&gt;c17:w</title>
<path fill="none" stroke="#1b9e77" d="M62.47,-229C77.58,-229 83.54,-226.46 94.93,-225.43"/>
<polygon fill="#1b9e77" stroke="#1b9e77" points="95.1,-228.92 104.94,-225 94.8,-221.93 95.1,-228.92"/>
</g>
<!-- n3 -->
<g id="node3" class="node">
<title>n3</title>
<polygon fill="none" stroke="black" points="61.47,-79.54 61.47,-94.46 45.65,-105 23.29,-105 7.47,-94.46 7.47,-79.54 23.29,-69 45.65,-69 61.47,-79.54"/>
<text text-anchor="middle" x="34.47" y="-83.3" font-family="Times New Roman,serif" font-size="14.00">in</text>
</g>
<!-- c12 -->
<g id="node9" class="node">
<title>c12</title>
<polygon fill="none" stroke="black" points="434.15,-75 434.15,-167 646.15,-167 646.15,-75 434.15,-75"/>
<text text-anchor="middle" x="448.15" y="-151.8" font-family="Times New Roman,serif" font-size="14.00">I0</text>
<polyline fill="none" stroke="black" points="434.15,-144 462.15,-144 "/>
<text text-anchor="middle" x="448.15" y="-128.8" font-family="Times New Roman,serif" font-size="14.00">I1</text>
<polyline fill="none" stroke="black" points="434.15,-121 462.15,-121 "/>
<text text-anchor="middle" x="448.15" y="-105.8" font-family="Times New Roman,serif" font-size="14.00">I2</text>
<polyline fill="none" stroke="black" points="434.15,-98 462.15,-98 "/>
<text text-anchor="middle" x="448.15" y="-82.8" font-family="Times New Roman,serif" font-size="14.00">I3</text>
<polyline fill="none" stroke="black" points="462.15,-75 462.15,-167 "/>
<text text-anchor="middle" x="540.65" y="-124.8" font-family="Times New Roman,serif" font-size="14.00">next_state_SB_LUT4_O</text>
<text text-anchor="middle" x="540.65" y="-109.8" font-family="Times New Roman,serif" font-size="14.00">SB_LUT4</text>
<polyline fill="none" stroke="black" points="619.15,-75 619.15,-167 "/>
<text text-anchor="middle" x="632.65" y="-117.3" font-family="Times New Roman,serif" font-size="14.00">O</text>
</g>
<!-- n3&#45;&gt;c12 -->
<g id="edge3" class="edge">
<title>n3:e&#45;&gt;c12:w</title>
<path fill="none" stroke="#1b9e77" d="M62.47,-87C211.9,-87 249.09,-95.57 398.15,-106 410.16,-106.84 415.38,-108.11 424.01,-108.69"/>
<polygon fill="#1b9e77" stroke="#1b9e77" points="424.05,-112.19 434.15,-109 424.26,-105.19 424.05,-112.19"/>
</g>
<!-- n4 -->
<g id="node4" class="node">
<title>n4</title>
<polygon fill="none" stroke="black" points="749.25,-195 682.05,-177 749.25,-159 816.45,-177 749.25,-195"/>
<text text-anchor="middle" x="749.25" y="-173.3" font-family="Times New Roman,serif" font-size="14.00">next_state</text>
</g>
<!-- n4&#45;&gt;c17 -->
<g id="edge5" class="edge">
<title>n4:e&#45;&gt;c17:w</title>
<path fill="none" stroke="#7570b3" d="M817.25,-177C825.26,-177 821.85,-189.27 816.25,-195 650.73,-364.44 521.63,-227.66 284.94,-237 205,-240.15 162.31,-292.75 104.94,-237 97.01,-229.29 91.98,-214.85 95.33,-207.15"/>
<polygon fill="#7570b3" stroke="#7570b3" points="97.16,-210.14 103.94,-202 93.56,-204.13 97.16,-210.14"/>
</g>
<!-- n5 -->
<g id="node5" class="node">
<title>n5</title>
<polygon fill="none" stroke="black" points="906.35,-33.54 906.35,-48.46 890.53,-59 868.16,-59 852.35,-48.46 852.35,-33.54 868.16,-23 890.53,-23 906.35,-33.54"/>
<text text-anchor="middle" x="879.35" y="-37.3" font-family="Times New Roman,serif" font-size="14.00">out</text>
</g>
<!-- n6 -->
<g id="node6" class="node">
<title>n6</title>
<polygon fill="none" stroke="black" points="359.55,-59 320.84,-41 359.55,-23 398.26,-41 359.55,-59"/>
<text text-anchor="middle" x="359.55" y="-37.3" font-family="Times New Roman,serif" font-size="14.00">state</text>
</g>
<!-- n6&#45;&gt;c12 -->
<g id="edge8" class="edge">
<title>n6:e&#45;&gt;c12:w</title>
<path fill="none" stroke="#e7298a" d="M398.15,-41C419.56,-41 412.44,-72.45 424.48,-82.76"/>
<polygon fill="#e7298a" stroke="#e7298a" points="423.56,-86.15 434.15,-86 425.78,-79.51 423.56,-86.15"/>
</g>
<!-- x2 -->
<g id="node11" class="node">
<title>x2</title>
<path fill="none" stroke="black" d="M764.25,-59C764.25,-59 734.25,-59 734.25,-59 728.25,-59 722.25,-53 722.25,-47 722.25,-47 722.25,-35 722.25,-35 722.25,-29 728.25,-23 734.25,-23 734.25,-23 764.25,-23 764.25,-23 770.25,-23 776.25,-29 776.25,-35 776.25,-35 776.25,-47 776.25,-47 776.25,-53 770.25,-59 764.25,-59"/>
<text text-anchor="middle" x="749.25" y="-37.3" font-family="Times New Roman,serif" font-size="14.00">BUF</text>
</g>
<!-- n6&#45;&gt;x2 -->
<g id="edge9" class="edge">
<title>n6:e&#45;&gt;x2:w</title>
<path fill="none" stroke="#e7298a" d="M398.15,-41C538.24,-41 575.83,-41 710.92,-41"/>
<polygon fill="#e7298a" stroke="#e7298a" points="711.25,-44.5 721.25,-41 711.25,-37.5 711.25,-44.5"/>
</g>
<!-- v0 -->
<g id="node7" class="node">
<title>v0</title>
<ellipse fill="none" stroke="black" cx="359.55" cy="-187" rx="27" ry="18"/>
<text text-anchor="middle" x="359.55" y="-183.3" font-family="Times New Roman,serif" font-size="14.00">1&#39;0</text>
</g>
<!-- v0&#45;&gt;c12 -->
<g id="edge10" class="edge">
<title>v0:e&#45;&gt;c12:w</title>
<path fill="none" stroke="#7570b3" d="M387.55,-187C408.54,-187 409.57,-164.93 424.33,-158.03"/>
<polygon fill="#7570b3" stroke="#7570b3" points="425.07,-161.46 434.15,-156 423.65,-154.6 425.07,-161.46"/>
</g>
<!-- v1 -->
<g id="node8" class="node">
<title>v1</title>
<ellipse fill="none" stroke="black" cx="359.55" cy="-133" rx="27" ry="18"/>
<text text-anchor="middle" x="359.55" y="-129.3" font-family="Times New Roman,serif" font-size="14.00">1&#39;0</text>
</g>
<!-- v1&#45;&gt;c12 -->
<g id="edge11" class="edge">
<title>v1:e&#45;&gt;c12:w</title>
<path fill="none" stroke="#d95f02" d="M387.55,-133C404.38,-133 410.95,-133 423.93,-133"/>
<polygon fill="#d95f02" stroke="#d95f02" points="424.15,-136.5 434.15,-133 424.15,-129.5 424.15,-136.5"/>
</g>
<!-- c12&#45;&gt;n4 -->
<g id="edge4" class="edge">
<title>c12:e&#45;&gt;n4:w</title>
<path fill="none" stroke="#7570b3" d="M646.15,-121C671.58,-121 658.04,-162.36 672.51,-173.99"/>
<polygon fill="#7570b3" stroke="#7570b3" points="671.56,-177.36 682.15,-177 673.65,-170.68 671.56,-177.36"/>
</g>
<!-- c17&#45;&gt;n6 -->
<g id="edge7" class="edge">
<title>c17:e&#45;&gt;n6:w</title>
<path fill="none" stroke="#e7298a" d="M284.94,-202C354.4,-202 258.78,-57.53 310.82,-42.3"/>
<polygon fill="#e7298a" stroke="#e7298a" points="311.47,-45.74 320.94,-41 310.58,-38.8 311.47,-45.74"/>
</g>
<!-- x2&#45;&gt;n5 -->
<g id="edge6" class="edge">
<title>x2:e&#45;&gt;n5:w</title>
<path fill="none" stroke="#e7298a" d="M777.25,-41C806.98,-41 816.85,-41 842.23,-41"/>
<polygon fill="#e7298a" stroke="#e7298a" points="842.35,-44.5 852.35,-41 842.35,-37.5 842.35,-44.5"/>
</g>
</g>
</svg>
