<?xml version="1.0" encoding="UTF-8" standalone="no"?>
<!DOCTYPE svg PUBLIC "-//W3C//DTD SVG 1.1//EN"
 "http://www.w3.org/Graphics/SVG/1.1/DTD/svg11.dtd">
<!-- Generated by graphviz version 4.0.0 (20220529.0937)
 -->
<!-- Title: top_module Pages: 1 -->
<svg width="1353pt" height="449pt"
 viewBox="0.00 0.00 1353.35 449.00" xmlns="http://www.w3.org/2000/svg" xmlns:xlink="http://www.w3.org/1999/xlink">
<g id="graph0" class="graph" transform="scale(1 1) rotate(0) translate(4 445)">
<title>top_module</title>
<polygon fill="white" stroke="transparent" points="-4,4 -4,-445 1349.35,-445 1349.35,4 -4,4"/>
<text text-anchor="middle" x="672.67" y="-7.8" font-family="Times New Roman,serif" font-size="14.00">top_module</text>
<!-- n4 -->
<g id="node1" class="node">
<title>n4</title>
<polygon fill="none" stroke="black" points="68.91,-415.54 68.91,-430.46 48.74,-441 20.2,-441 0.03,-430.46 0.03,-415.54 20.2,-405 48.74,-405 68.91,-415.54"/>
<text text-anchor="middle" x="34.47" y="-419.3" font-family="Times New Roman,serif" font-size="14.00">areset</text>
</g>
<!-- c17 -->
<g id="node9" class="node">
<title>c17</title>
<polygon fill="none" stroke="black" points="105.94,-350.5 105.94,-419.5 231.94,-419.5 231.94,-350.5 105.94,-350.5"/>
<text text-anchor="middle" x="132.44" y="-404.3" font-family="Times New Roman,serif" font-size="14.00">ARST</text>
<polyline fill="none" stroke="black" points="105.94,-396.5 158.94,-396.5 "/>
<text text-anchor="middle" x="132.44" y="-381.3" font-family="Times New Roman,serif" font-size="14.00">CLK</text>
<polyline fill="none" stroke="black" points="105.94,-373.5 158.94,-373.5 "/>
<text text-anchor="middle" x="132.44" y="-358.3" font-family="Times New Roman,serif" font-size="14.00">D</text>
<polyline fill="none" stroke="black" points="158.94,-350.5 158.94,-419.5 "/>
<text text-anchor="middle" x="181.94" y="-388.8" font-family="Times New Roman,serif" font-size="14.00">$11</text>
<text text-anchor="middle" x="181.94" y="-373.8" font-family="Times New Roman,serif" font-size="14.00">$adff</text>
<polyline fill="none" stroke="black" points="204.94,-350.5 204.94,-419.5 "/>
<text text-anchor="middle" x="218.44" y="-381.3" font-family="Times New Roman,serif" font-size="14.00">Q</text>
</g>
<!-- n4&#45;&gt;c17 -->
<g id="edge7" class="edge">
<title>n4:e&#45;&gt;c17:w</title>
<path fill="none" stroke="#7570b3" d="M68.94,-423C82.67,-423 86.68,-414.03 96,-409.96"/>
<polygon fill="#7570b3" stroke="#7570b3" points="96.81,-413.37 105.94,-408 95.45,-406.5 96.81,-413.37"/>
</g>
<!-- n5 -->
<g id="node2" class="node">
<title>n5</title>
<polygon fill="none" stroke="black" points="61.47,-361.54 61.47,-376.46 45.65,-387 23.29,-387 7.47,-376.46 7.47,-361.54 23.29,-351 45.65,-351 61.47,-361.54"/>
<text text-anchor="middle" x="34.47" y="-365.3" font-family="Times New Roman,serif" font-size="14.00">clk</text>
</g>
<!-- n5&#45;&gt;c17 -->
<g id="edge8" class="edge">
<title>n5:e&#45;&gt;c17:w</title>
<path fill="none" stroke="#d95f02" d="M62.47,-369C79.2,-369 83.85,-379.56 96.05,-383.52"/>
<polygon fill="#d95f02" stroke="#d95f02" points="95.54,-386.99 105.94,-385 96.57,-380.06 95.54,-386.99"/>
</g>
<!-- n6 -->
<g id="node3" class="node">
<title>n6</title>
<polygon fill="none" stroke="black" points="61.47,-258.54 61.47,-273.46 45.65,-284 23.29,-284 7.47,-273.46 7.47,-258.54 23.29,-248 45.65,-248 61.47,-258.54"/>
<text text-anchor="middle" x="34.47" y="-262.3" font-family="Times New Roman,serif" font-size="14.00">in</text>
</g>
<!-- x1 -->
<g id="node12" class="node">
<title>x1</title>
<path fill="none" stroke="black" d="M413.65,-286C413.65,-286 451.65,-286 451.65,-286 457.65,-286 463.65,-292 463.65,-298 463.65,-298 463.65,-320 463.65,-320 463.65,-326 457.65,-332 451.65,-332 451.65,-332 413.65,-332 413.65,-332 407.65,-332 401.65,-326 401.65,-320 401.65,-320 401.65,-298 401.65,-298 401.65,-292 407.65,-286 413.65,-286"/>
<text text-anchor="middle" x="432.65" y="-316.8" font-family="Times New Roman,serif" font-size="14.00">0:0 &#45; 1:1</text>
<polyline fill="none" stroke="black" points="401.65,-309 463.65,-309 "/>
<text text-anchor="middle" x="432.65" y="-293.8" font-family="Times New Roman,serif" font-size="14.00">0:0 &#45; 0:0</text>
</g>
<!-- n6&#45;&gt;x1 -->
<g id="edge9" class="edge">
<title>n6:e&#45;&gt;x1:w</title>
<path fill="none" stroke="#1b9e77" d="M62.47,-266C211.33,-266 246.8,-318.56 390.57,-320.92"/>
<polygon fill="#1b9e77" stroke="#1b9e77" points="390.62,-324.42 400.65,-321 390.68,-317.42 390.62,-324.42"/>
</g>
<!-- x7 -->
<g id="node21" class="node">
<title>x7</title>
<path fill="none" stroke="black" d="M413.65,-166C413.65,-166 451.65,-166 451.65,-166 457.65,-166 463.65,-172 463.65,-178 463.65,-178 463.65,-200 463.65,-200 463.65,-206 457.65,-212 451.65,-212 451.65,-212 413.65,-212 413.65,-212 407.65,-212 401.65,-206 401.65,-200 401.65,-200 401.65,-178 401.65,-178 401.65,-172 407.65,-166 413.65,-166"/>
<text text-anchor="middle" x="432.65" y="-196.8" font-family="Times New Roman,serif" font-size="14.00">0:0 &#45; 1:1</text>
<polyline fill="none" stroke="black" points="401.65,-189 463.65,-189 "/>
<text text-anchor="middle" x="432.65" y="-173.8" font-family="Times New Roman,serif" font-size="14.00">0:0 &#45; 0:0</text>
</g>
<!-- n6&#45;&gt;x7 -->
<g id="edge10" class="edge">
<title>n6:e&#45;&gt;x7:w</title>
<path fill="none" stroke="#1b9e77" d="M62.47,-266C80.03,-266 334.2,-211.23 390.58,-202.24"/>
<polygon fill="#1b9e77" stroke="#1b9e77" points="391.15,-205.7 400.65,-201 390.3,-198.75 391.15,-205.7"/>
</g>
<!-- n7 -->
<g id="node4" class="node">
<title>n7</title>
<polygon fill="none" stroke="black" points="1206.25,-358 1139.05,-340 1206.25,-322 1273.45,-340 1206.25,-358"/>
<text text-anchor="middle" x="1206.25" y="-336.3" font-family="Times New Roman,serif" font-size="14.00">next_state</text>
</g>
<!-- n7&#45;&gt;c17 -->
<g id="edge12" class="edge">
<title>n7:e&#45;&gt;c17:w</title>
<path fill="none" stroke="#1b9e77" d="M1274.25,-340C1282.26,-340 1279.03,-352.45 1273.25,-358 1202.8,-425.56 1151.26,-361 1053.65,-361 306.55,-361 306.55,-361 306.55,-361 217.26,-361 171.65,-289.54 105.94,-350 105.33,-350.57 104.75,-351.25 104.23,-352"/>
<polygon fill="#1b9e77" stroke="#1b9e77" points="100.74,-352.27 104.94,-362 107.72,-351.78 100.74,-352.27"/>
</g>
<!-- n8 -->
<g id="node5" class="node">
<title>n8</title>
<polygon fill="none" stroke="black" points="1345.35,-50.54 1345.35,-65.46 1329.53,-76 1307.16,-76 1291.35,-65.46 1291.35,-50.54 1307.16,-40 1329.53,-40 1345.35,-50.54"/>
<text text-anchor="middle" x="1318.35" y="-54.3" font-family="Times New Roman,serif" font-size="14.00">out</text>
</g>
<!-- n9 -->
<g id="node6" class="node">
<title>n9</title>
<polygon fill="none" stroke="black" points="307.55,-291 268.84,-273 307.55,-255 346.26,-273 307.55,-291"/>
<text text-anchor="middle" x="307.55" y="-269.3" font-family="Times New Roman,serif" font-size="14.00">state</text>
</g>
<!-- n9&#45;&gt;x1 -->
<g id="edge16" class="edge">
<title>n9:e&#45;&gt;x1:w</title>
<path fill="none" stroke="#e6ab02" d="M346.15,-273C368.69,-273 373.17,-290.4 390.35,-295.57"/>
<polygon fill="#e6ab02" stroke="#e6ab02" points="390.27,-299.09 400.65,-297 391.23,-292.16 390.27,-299.09"/>
</g>
<!-- c21 -->
<g id="node15" class="node">
<title>c21</title>
<polygon fill="none" stroke="black" points="383.15,-23.5 383.15,-92.5 482.15,-92.5 482.15,-23.5 383.15,-23.5"/>
<text text-anchor="middle" x="396.15" y="-77.3" font-family="Times New Roman,serif" font-size="14.00">A</text>
<polyline fill="none" stroke="black" points="383.15,-69.5 409.15,-69.5 "/>
<text text-anchor="middle" x="396.15" y="-54.3" font-family="Times New Roman,serif" font-size="14.00">B</text>
<polyline fill="none" stroke="black" points="383.15,-46.5 409.15,-46.5 "/>
<text text-anchor="middle" x="396.15" y="-31.3" font-family="Times New Roman,serif" font-size="14.00">S</text>
<polyline fill="none" stroke="black" points="409.15,-23.5 409.15,-92.5 "/>
<text text-anchor="middle" x="432.65" y="-61.8" font-family="Times New Roman,serif" font-size="14.00">$5</text>
<text text-anchor="middle" x="432.65" y="-46.8" font-family="Times New Roman,serif" font-size="14.00">$mux</text>
<polyline fill="none" stroke="black" points="456.15,-23.5 456.15,-92.5 "/>
<text text-anchor="middle" x="469.15" y="-54.3" font-family="Times New Roman,serif" font-size="14.00">Y</text>
</g>
<!-- n9&#45;&gt;c21 -->
<g id="edge15" class="edge">
<title>n9:e&#45;&gt;c21:w</title>
<path fill="none" stroke="#e6ab02" d="M346.15,-273C395.91,-273 338.87,-67.29 373.61,-38.36"/>
<polygon fill="#e6ab02" stroke="#e6ab02" points="374.88,-41.63 383.15,-35 372.56,-35.02 374.88,-41.63"/>
</g>
<!-- n9&#45;&gt;x7 -->
<g id="edge17" class="edge">
<title>n9:e&#45;&gt;x7:w</title>
<path fill="none" stroke="#e6ab02" d="M346.15,-273C391.38,-273 357.84,-191.41 390.76,-178.67"/>
<polygon fill="#e6ab02" stroke="#e6ab02" points="391.37,-182.11 400.65,-177 390.21,-175.21 391.37,-182.11"/>
</g>
<!-- c12 -->
<g id="node7" class="node">
<title>c12</title>
<polygon fill="none" stroke="black" points="834.15,-186 834.15,-224 966.15,-224 966.15,-186 834.15,-186"/>
<text text-anchor="middle" x="847.15" y="-201.3" font-family="Times New Roman,serif" font-size="14.00">A</text>
<polyline fill="none" stroke="black" points="860.15,-186 860.15,-224 "/>
<text text-anchor="middle" x="900.15" y="-208.8" font-family="Times New Roman,serif" font-size="14.00">$12</text>
<text text-anchor="middle" x="900.15" y="-193.8" font-family="Times New Roman,serif" font-size="14.00">$reduce_or</text>
<polyline fill="none" stroke="black" points="940.15,-186 940.15,-224 "/>
<text text-anchor="middle" x="953.15" y="-201.3" font-family="Times New Roman,serif" font-size="14.00">Y</text>
</g>
<!-- c22 -->
<g id="node18" class="node">
<title>c22</title>
<polygon fill="none" stroke="black" points="1003.15,-242.5 1003.15,-311.5 1102.15,-311.5 1102.15,-242.5 1003.15,-242.5"/>
<text text-anchor="middle" x="1016.15" y="-296.3" font-family="Times New Roman,serif" font-size="14.00">A</text>
<polyline fill="none" stroke="black" points="1003.15,-288.5 1029.15,-288.5 "/>
<text text-anchor="middle" x="1016.15" y="-273.3" font-family="Times New Roman,serif" font-size="14.00">B</text>
<polyline fill="none" stroke="black" points="1003.15,-265.5 1029.15,-265.5 "/>
<text text-anchor="middle" x="1016.15" y="-250.3" font-family="Times New Roman,serif" font-size="14.00">S</text>
<polyline fill="none" stroke="black" points="1029.15,-242.5 1029.15,-311.5 "/>
<text text-anchor="middle" x="1052.65" y="-280.8" font-family="Times New Roman,serif" font-size="14.00">$8</text>
<text text-anchor="middle" x="1052.65" y="-265.8" font-family="Times New Roman,serif" font-size="14.00">$mux</text>
<polyline fill="none" stroke="black" points="1076.15,-242.5 1076.15,-311.5 "/>
<text text-anchor="middle" x="1089.15" y="-273.3" font-family="Times New Roman,serif" font-size="14.00">Y</text>
</g>
<!-- c12&#45;&gt;c22 -->
<g id="edge4" class="edge">
<title>c12:e&#45;&gt;c22:w</title>
<path fill="none" stroke="#7570b3" d="M966.15,-205C989.18,-205 980.26,-239.88 993.3,-250.78"/>
<polygon fill="#7570b3" stroke="#7570b3" points="992.56,-254.22 1003.15,-254 994.73,-247.57 992.56,-254.22"/>
</g>
<!-- x0 -->
<g id="node8" class="node">
<title>x0</title>
<path fill="none" stroke="black" d="M724.15,-182C724.15,-182 762.15,-182 762.15,-182 768.15,-182 774.15,-188 774.15,-194 774.15,-194 774.15,-216 774.15,-216 774.15,-222 768.15,-228 762.15,-228 762.15,-228 724.15,-228 724.15,-228 718.15,-228 712.15,-222 712.15,-216 712.15,-216 712.15,-194 712.15,-194 712.15,-188 718.15,-182 724.15,-182"/>
<text text-anchor="middle" x="743.15" y="-212.8" font-family="Times New Roman,serif" font-size="14.00">0:0 &#45; 1:1</text>
<polyline fill="none" stroke="black" points="712.15,-205 774.15,-205 "/>
<text text-anchor="middle" x="743.15" y="-189.8" font-family="Times New Roman,serif" font-size="14.00">0:0 &#45; 0:0</text>
</g>
<!-- x0&#45;&gt;c12 -->
<g id="edge1" class="edge">
<title>x0:e&#45;&gt;c12:w</title>
<path fill="none" stroke="#66a61e" stroke-width="3" d="M786.33,-205C800.04,-205 808.14,-205 821.79,-205"/>
<polygon fill="none" stroke="#66a61e" stroke-width="3" points="786.15,-205 780.15,-209 774.15,-205 780.15,-201 786.15,-205"/>
<polygon fill="none" stroke="#66a61e" stroke-width="3" points="822.15,-205 828.15,-201 834.15,-205 828.15,-209 822.15,-205"/>
<text text-anchor="middle" x="804.15" y="-208.8" font-family="Times New Roman,serif" font-size="14.00" fill="#66a61e">&lt;2&gt;</text>
</g>
<!-- c17&#45;&gt;n9 -->
<g id="edge14" class="edge">
<title>c17:e&#45;&gt;n9:w</title>
<path fill="none" stroke="#e6ab02" d="M231.94,-385C280.27,-385 226.39,-289.82 258.74,-274.94"/>
<polygon fill="#e6ab02" stroke="#e6ab02" points="259.77,-278.31 268.94,-273 258.46,-271.43 259.77,-278.31"/>
</g>
<!-- v2 -->
<g id="node10" class="node">
<title>v2</title>
<ellipse fill="none" stroke="black" cx="432.65" cy="-249" rx="27" ry="18"/>
<text text-anchor="middle" x="432.65" y="-245.3" font-family="Times New Roman,serif" font-size="14.00">1&#39;1</text>
</g>
<!-- c19 -->
<g id="node11" class="node">
<title>c19</title>
<polygon fill="none" stroke="black" points="542.15,-238 542.15,-284 675.15,-284 675.15,-238 542.15,-238"/>
<text text-anchor="middle" x="555.15" y="-268.8" font-family="Times New Roman,serif" font-size="14.00">A</text>
<polyline fill="none" stroke="black" points="542.15,-261 568.15,-261 "/>
<text text-anchor="middle" x="555.15" y="-245.8" font-family="Times New Roman,serif" font-size="14.00">B</text>
<polyline fill="none" stroke="black" points="568.15,-238 568.15,-284 "/>
<text text-anchor="middle" x="608.65" y="-264.8" font-family="Times New Roman,serif" font-size="14.00">$10_CMP0</text>
<text text-anchor="middle" x="608.65" y="-249.8" font-family="Times New Roman,serif" font-size="14.00">$eq</text>
<polyline fill="none" stroke="black" points="649.15,-238 649.15,-284 "/>
<text text-anchor="middle" x="662.15" y="-257.3" font-family="Times New Roman,serif" font-size="14.00">Y</text>
</g>
<!-- v2&#45;&gt;c19 -->
<g id="edge18" class="edge">
<title>v2:e&#45;&gt;c19:w</title>
<path fill="none" stroke="#d95f02" d="M460.65,-249C493.19,-249 503.81,-249 531.9,-249"/>
<polygon fill="#d95f02" stroke="#d95f02" points="532.15,-252.5 542.15,-249 532.15,-245.5 532.15,-252.5"/>
</g>
<!-- c19&#45;&gt;x0 -->
<g id="edge5" class="edge">
<title>c19:e&#45;&gt;x0:w</title>
<path fill="none" stroke="#e7298a" d="M675.15,-261C696.51,-261 690.16,-230.25 702.43,-220.16"/>
<polygon fill="#e7298a" stroke="#e7298a" points="703.73,-223.42 712.15,-217 701.56,-216.77 703.73,-223.42"/>
</g>
<!-- x1&#45;&gt;c19 -->
<g id="edge2" class="edge">
<title>x1:e&#45;&gt;c19:w</title>
<path fill="none" stroke="#1b9e77" stroke-width="3" d="M476.62,-307.63C499.92,-301.93 506.88,-280.07 530.18,-274.37"/>
<polygon fill="none" stroke="#1b9e77" stroke-width="3" points="476.57,-307.64 471.07,-312.29 464.65,-309 470.16,-304.34 476.57,-307.64"/>
<polygon fill="none" stroke="#1b9e77" stroke-width="3" points="530.23,-274.36 535.74,-269.71 542.15,-273 536.64,-277.66 530.23,-274.36"/>
<text text-anchor="middle" x="512.15" y="-297.8" font-family="Times New Roman,serif" font-size="14.00" fill="#1b9e77">&lt;2&gt;</text>
</g>
<!-- v3 -->
<g id="node13" class="node">
<title>v3</title>
<ellipse fill="none" stroke="black" cx="307.55" cy="-113" rx="27" ry="18"/>
<text text-anchor="middle" x="307.55" y="-109.3" font-family="Times New Roman,serif" font-size="14.00">1&#39;0</text>
</g>
<!-- v3&#45;&gt;c21 -->
<g id="edge19" class="edge">
<title>v3:e&#45;&gt;c21:w</title>
<path fill="none" stroke="#d95f02" d="M335.55,-113C357.06,-113 358.01,-90.22 373.1,-83.1"/>
<polygon fill="#d95f02" stroke="#d95f02" points="374.08,-86.47 383.15,-81 372.65,-79.62 374.08,-86.47"/>
</g>
<!-- v4 -->
<g id="node14" class="node">
<title>v4</title>
<ellipse fill="none" stroke="black" cx="307.55" cy="-59" rx="27" ry="18"/>
<text text-anchor="middle" x="307.55" y="-55.3" font-family="Times New Roman,serif" font-size="14.00">1&#39;1</text>
</g>
<!-- v4&#45;&gt;c21 -->
<g id="edge20" class="edge">
<title>v4:e&#45;&gt;c21:w</title>
<path fill="none" stroke="#d95f02" d="M335.55,-59C352.91,-59 359.58,-58.33 373.1,-58.09"/>
<polygon fill="#d95f02" stroke="#d95f02" points="373.18,-61.58 383.15,-58 373.12,-54.59 373.18,-61.58"/>
</g>
<!-- c21&#45;&gt;n8 -->
<g id="edge13" class="edge">
<title>c21:e&#45;&gt;n8:w</title>
<path fill="none" stroke="#e6ab02" d="M482.15,-58C537.93,-58 551.87,-58 607.65,-58 607.65,-58 607.65,-58 1121.15,-58 1193.25,-58 1213.81,-58 1281.07,-58"/>
<polygon fill="#e6ab02" stroke="#e6ab02" points="1281.35,-61.5 1291.35,-58 1281.35,-54.5 1281.35,-61.5"/>
</g>
<!-- v5 -->
<g id="node16" class="node">
<title>v5</title>
<ellipse fill="none" stroke="black" cx="900.15" cy="-315" rx="27" ry="18"/>
<text text-anchor="middle" x="900.15" y="-311.3" font-family="Times New Roman,serif" font-size="14.00">1&#39;1</text>
</g>
<!-- v5&#45;&gt;c22 -->
<g id="edge21" class="edge">
<title>v5:e&#45;&gt;c22:w</title>
<path fill="none" stroke="#1b9e77" d="M928.15,-315C958.43,-315 967.3,-303.1 992.9,-300.5"/>
<polygon fill="#1b9e77" stroke="#1b9e77" points="993.33,-303.98 1003.15,-300 992.99,-296.99 993.33,-303.98"/>
</g>
<!-- v6 -->
<g id="node17" class="node">
<title>v6</title>
<ellipse fill="none" stroke="black" cx="900.15" cy="-261" rx="27" ry="18"/>
<text text-anchor="middle" x="900.15" y="-257.3" font-family="Times New Roman,serif" font-size="14.00">1&#39;0</text>
</g>
<!-- v6&#45;&gt;c22 -->
<g id="edge22" class="edge">
<title>v6:e&#45;&gt;c22:w</title>
<path fill="none" stroke="#1b9e77" d="M928.15,-261C958.51,-261 967.25,-273.69 992.87,-276.47"/>
<polygon fill="#1b9e77" stroke="#1b9e77" points="992.98,-279.98 1003.15,-277 993.35,-272.99 992.98,-279.98"/>
</g>
<!-- c22&#45;&gt;n7 -->
<g id="edge11" class="edge">
<title>c22:e&#45;&gt;n7:w</title>
<path fill="none" stroke="#1b9e77" d="M1102.15,-277C1130.31,-277 1113.04,-324.38 1129.13,-336.96"/>
<polygon fill="#1b9e77" stroke="#1b9e77" points="1128.57,-340.45 1139.15,-340 1130.6,-333.75 1128.57,-340.45"/>
</g>
<!-- v8 -->
<g id="node19" class="node">
<title>v8</title>
<ellipse fill="none" stroke="black" cx="432.65" cy="-129" rx="27" ry="18"/>
<text text-anchor="middle" x="432.65" y="-125.3" font-family="Times New Roman,serif" font-size="14.00">2&#39;10</text>
</g>
<!-- c23 -->
<g id="node20" class="node">
<title>c23</title>
<polygon fill="none" stroke="black" points="545.65,-154 545.65,-200 671.65,-200 671.65,-154 545.65,-154"/>
<text text-anchor="middle" x="558.65" y="-184.8" font-family="Times New Roman,serif" font-size="14.00">A</text>
<polyline fill="none" stroke="black" points="545.65,-177 571.65,-177 "/>
<text text-anchor="middle" x="558.65" y="-161.8" font-family="Times New Roman,serif" font-size="14.00">B</text>
<polyline fill="none" stroke="black" points="571.65,-154 571.65,-200 "/>
<text text-anchor="middle" x="608.65" y="-180.8" font-family="Times New Roman,serif" font-size="14.00">$9_CMP0</text>
<text text-anchor="middle" x="608.65" y="-165.8" font-family="Times New Roman,serif" font-size="14.00">$eq</text>
<polyline fill="none" stroke="black" points="645.65,-154 645.65,-200 "/>
<text text-anchor="middle" x="658.65" y="-173.3" font-family="Times New Roman,serif" font-size="14.00">Y</text>
</g>
<!-- v8&#45;&gt;c23 -->
<g id="edge23" class="edge">
<title>v8:e&#45;&gt;c23:w</title>
<path fill="none" stroke="#7570b3" stroke-width="3" d="M460.65,-129C497.62,-129 503.23,-158.82 534.57,-164.18"/>
<polygon fill="#7570b3" stroke="#7570b3" stroke-width="3" points="534.4,-167.68 544.65,-165 534.97,-160.7 534.4,-167.68"/>
<text text-anchor="middle" x="512.15" y="-164.8" font-family="Times New Roman,serif" font-size="14.00" fill="#7570b3">&lt;2&gt;</text>
</g>
<!-- c23&#45;&gt;x0 -->
<g id="edge6" class="edge">
<title>c23:e&#45;&gt;x0:w</title>
<path fill="none" stroke="#e7298a" d="M672.65,-177C687.6,-177 691.76,-186.96 702.15,-191.16"/>
<polygon fill="#e7298a" stroke="#e7298a" points="701.68,-194.64 712.15,-193 702.95,-187.75 701.68,-194.64"/>
</g>
<!-- x7&#45;&gt;c23 -->
<g id="edge3" class="edge">
<title>x7:e&#45;&gt;c23:w</title>
<path fill="none" stroke="#1b9e77" stroke-width="3" d="M476.84,-189C499.19,-189 510.23,-189 532.64,-189"/>
<polygon fill="none" stroke="#1b9e77" stroke-width="3" points="476.65,-189 470.65,-193 464.65,-189 470.65,-185 476.65,-189"/>
<polygon fill="none" stroke="#1b9e77" stroke-width="3" points="532.65,-189 538.65,-185 544.65,-189 538.65,-193 532.65,-189"/>
<text text-anchor="middle" x="512.15" y="-192.8" font-family="Times New Roman,serif" font-size="14.00" fill="#1b9e77">&lt;2&gt;</text>
</g>
</g>
</svg>
