<?xml version="1.0" encoding="UTF-8" standalone="no"?>
<!DOCTYPE svg PUBLIC "-//W3C//DTD SVG 1.1//EN"
 "http://www.w3.org/Graphics/SVG/1.1/DTD/svg11.dtd">
<!-- Generated by graphviz version 3.0.0 (20220226.1711)
 -->
<!-- Title: top_module Pages: 1 -->
<svg width="452pt" height="184pt"
 viewBox="0.00 0.00 452.23 184.00" xmlns="http://www.w3.org/2000/svg" xmlns:xlink="http://www.w3.org/1999/xlink">
<g id="graph0" class="graph" transform="scale(1 1) rotate(0) translate(4 180)">
<title>top_module</title>
<polygon fill="white" stroke="transparent" points="-4,4 -4,-180 448.23,-180 448.23,4 -4,4"/>
<text text-anchor="middle" x="222.12" y="-7.8" font-family="Times New Roman,serif" font-size="14.00">top_module</text>
<!-- n4 -->
<g id="node1" class="node">
<title>n4</title>
<polygon fill="none" stroke="black" points="443.44,-149.04 443.44,-163.96 418.36,-174.5 382.88,-174.5 357.79,-163.96 357.79,-149.04 382.88,-138.5 418.36,-138.5 443.44,-149.04"/>
<text text-anchor="middle" x="400.62" y="-152.8" font-family="Times New Roman,serif" font-size="14.00">out_xor</text>
</g>
<!-- n5 -->
<g id="node2" class="node">
<title>n5</title>
<polygon fill="none" stroke="black" points="438.59,-92.04 438.59,-106.96 416.35,-117.5 384.89,-117.5 362.64,-106.96 362.64,-92.04 384.89,-81.5 416.35,-81.5 438.59,-92.04"/>
<text text-anchor="middle" x="400.62" y="-95.8" font-family="Times New Roman,serif" font-size="14.00">out_or</text>
</g>
<!-- n6 -->
<g id="node3" class="node">
<title>n6</title>
<polygon fill="none" stroke="black" points="444.35,-35.04 444.35,-49.96 418.73,-60.5 382.5,-60.5 356.88,-49.96 356.88,-35.04 382.5,-24.5 418.73,-24.5 444.35,-35.04"/>
<text text-anchor="middle" x="400.62" y="-38.8" font-family="Times New Roman,serif" font-size="14.00">out_and</text>
</g>
<!-- n7 -->
<g id="node4" class="node">
<title>n7</title>
<polygon fill="none" stroke="black" points="54,-92.04 54,-106.96 38.18,-117.5 15.82,-117.5 0,-106.96 0,-92.04 15.82,-81.5 38.18,-81.5 54,-92.04"/>
<text text-anchor="middle" x="27" y="-95.8" font-family="Times New Roman,serif" font-size="14.00">in</text>
</g>
<!-- c10 -->
<g id="node5" class="node">
<title>c10</title>
<polygon fill="none" stroke="black" points="91,-137.5 91,-175.5 230,-175.5 230,-137.5 91,-137.5"/>
<text text-anchor="middle" x="104" y="-152.8" font-family="Times New Roman,serif" font-size="14.00">A</text>
<polyline fill="none" stroke="black" points="117,-137.5 117,-175.5 "/>
<text text-anchor="middle" x="160.5" y="-160.3" font-family="Times New Roman,serif" font-size="14.00">$3</text>
<text text-anchor="middle" x="160.5" y="-145.3" font-family="Times New Roman,serif" font-size="14.00">$reduce_xor</text>
<polyline fill="none" stroke="black" points="204,-137.5 204,-175.5 "/>
<text text-anchor="middle" x="217" y="-152.8" font-family="Times New Roman,serif" font-size="14.00">Y</text>
</g>
<!-- n7&#45;&gt;c10 -->
<g id="edge7" class="edge">
<title>n7:e&#45;&gt;c10:w</title>
<path fill="none" stroke="black" stroke-width="3" d="M54,-99.5C79.75,-99.5 65.7,-141.6 80.26,-153.44"/>
<polygon fill="black" stroke="black" stroke-width="3" points="79.41,-156.84 90,-156.5 81.51,-150.16 79.41,-156.84"/>
</g>
<!-- c11 -->
<g id="node6" class="node">
<title>c11</title>
<polygon fill="none" stroke="black" points="94.5,-80.5 94.5,-118.5 226.5,-118.5 226.5,-80.5 94.5,-80.5"/>
<text text-anchor="middle" x="107.5" y="-95.8" font-family="Times New Roman,serif" font-size="14.00">A</text>
<polyline fill="none" stroke="black" points="120.5,-80.5 120.5,-118.5 "/>
<text text-anchor="middle" x="160.5" y="-103.3" font-family="Times New Roman,serif" font-size="14.00">$2</text>
<text text-anchor="middle" x="160.5" y="-88.3" font-family="Times New Roman,serif" font-size="14.00">$reduce_or</text>
<polyline fill="none" stroke="black" points="200.5,-80.5 200.5,-118.5 "/>
<text text-anchor="middle" x="213.5" y="-95.8" font-family="Times New Roman,serif" font-size="14.00">Y</text>
</g>
<!-- n7&#45;&gt;c11 -->
<g id="edge8" class="edge">
<title>n7:e&#45;&gt;c11:w</title>
<path fill="none" stroke="black" stroke-width="3" d="M54,-99.5C67.58,-99.5 73.28,-99.5 83.29,-99.5"/>
<polygon fill="black" stroke="black" stroke-width="3" points="83.5,-103 93.5,-99.5 83.5,-96 83.5,-103"/>
</g>
<!-- c12 -->
<g id="node7" class="node">
<title>c12</title>
<polygon fill="none" stroke="black" points="90,-23.5 90,-61.5 231,-61.5 231,-23.5 90,-23.5"/>
<text text-anchor="middle" x="103" y="-38.8" font-family="Times New Roman,serif" font-size="14.00">A</text>
<polyline fill="none" stroke="black" points="116,-23.5 116,-61.5 "/>
<text text-anchor="middle" x="160.5" y="-46.3" font-family="Times New Roman,serif" font-size="14.00">$1</text>
<text text-anchor="middle" x="160.5" y="-31.3" font-family="Times New Roman,serif" font-size="14.00">$reduce_and</text>
<polyline fill="none" stroke="black" points="205,-23.5 205,-61.5 "/>
<text text-anchor="middle" x="218" y="-38.8" font-family="Times New Roman,serif" font-size="14.00">Y</text>
</g>
<!-- n7&#45;&gt;c12 -->
<g id="edge9" class="edge">
<title>n7:e&#45;&gt;c12:w</title>
<path fill="none" stroke="black" stroke-width="3" d="M54,-99.5C79.75,-99.5 65.7,-57.4 80.26,-45.56"/>
<polygon fill="black" stroke="black" stroke-width="3" points="81.51,-48.84 90,-42.5 79.41,-42.16 81.51,-48.84"/>
</g>
<!-- x2 -->
<g id="node10" class="node">
<title>x2</title>
<path fill="none" stroke="black" d="M309,-174.5C309,-174.5 279,-174.5 279,-174.5 273,-174.5 267,-168.5 267,-162.5 267,-162.5 267,-150.5 267,-150.5 267,-144.5 273,-138.5 279,-138.5 279,-138.5 309,-138.5 309,-138.5 315,-138.5 321,-144.5 321,-150.5 321,-150.5 321,-162.5 321,-162.5 321,-168.5 315,-174.5 309,-174.5"/>
<text text-anchor="middle" x="294" y="-152.8" font-family="Times New Roman,serif" font-size="14.00">BUF</text>
</g>
<!-- c10&#45;&gt;x2 -->
<g id="edge1" class="edge">
<title>c10:e&#45;&gt;x2:w</title>
<path fill="none" stroke="black" d="M231,-156.5C243,-156.5 248.25,-156.5 256.88,-156.5"/>
<polygon fill="black" stroke="black" points="257,-160 267,-156.5 257,-153 257,-160"/>
</g>
<!-- x1 -->
<g id="node9" class="node">
<title>x1</title>
<path fill="none" stroke="black" d="M309,-117.5C309,-117.5 279,-117.5 279,-117.5 273,-117.5 267,-111.5 267,-105.5 267,-105.5 267,-93.5 267,-93.5 267,-87.5 273,-81.5 279,-81.5 279,-81.5 309,-81.5 309,-81.5 315,-81.5 321,-87.5 321,-93.5 321,-93.5 321,-105.5 321,-105.5 321,-111.5 315,-117.5 309,-117.5"/>
<text text-anchor="middle" x="294" y="-95.8" font-family="Times New Roman,serif" font-size="14.00">BUF</text>
</g>
<!-- c11&#45;&gt;x1 -->
<g id="edge2" class="edge">
<title>c11:e&#45;&gt;x1:w</title>
<path fill="none" stroke="black" d="M227.5,-99.5C241.08,-99.5 246.78,-99.5 256.79,-99.5"/>
<polygon fill="black" stroke="black" points="257,-103 267,-99.5 257,-96 257,-103"/>
</g>
<!-- x0 -->
<g id="node8" class="node">
<title>x0</title>
<path fill="none" stroke="black" d="M309,-60.5C309,-60.5 279,-60.5 279,-60.5 273,-60.5 267,-54.5 267,-48.5 267,-48.5 267,-36.5 267,-36.5 267,-30.5 273,-24.5 279,-24.5 279,-24.5 309,-24.5 309,-24.5 315,-24.5 321,-30.5 321,-36.5 321,-36.5 321,-48.5 321,-48.5 321,-54.5 315,-60.5 309,-60.5"/>
<text text-anchor="middle" x="294" y="-38.8" font-family="Times New Roman,serif" font-size="14.00">BUF</text>
</g>
<!-- c12&#45;&gt;x0 -->
<g id="edge3" class="edge">
<title>c12:e&#45;&gt;x0:w</title>
<path fill="none" stroke="black" d="M231,-42.5C243,-42.5 248.25,-42.5 256.88,-42.5"/>
<polygon fill="black" stroke="black" points="257,-46 267,-42.5 257,-39 257,-46"/>
</g>
<!-- x0&#45;&gt;n6 -->
<g id="edge6" class="edge">
<title>x0:e&#45;&gt;n6:w</title>
<path fill="none" stroke="black" d="M321,-42.5C333,-42.5 338.25,-42.5 346.88,-42.5"/>
<polygon fill="black" stroke="black" points="347,-46 357,-42.5 347,-39 347,-46"/>
</g>
<!-- x1&#45;&gt;n5 -->
<g id="edge5" class="edge">
<title>x1:e&#45;&gt;n5:w</title>
<path fill="none" stroke="black" d="M321,-99.5C335.1,-99.5 340.94,-99.5 351.43,-99.5"/>
<polygon fill="black" stroke="black" points="351.62,-103 361.62,-99.5 351.62,-96 351.62,-103"/>
</g>
<!-- x2&#45;&gt;n4 -->
<g id="edge4" class="edge">
<title>x2:e&#45;&gt;n4:w</title>
<path fill="none" stroke="black" d="M321,-156.5C333,-156.5 338.25,-156.5 346.88,-156.5"/>
<polygon fill="black" stroke="black" points="347,-160 357,-156.5 347,-153 347,-160"/>
</g>
</g>
</svg>
