<?xml version="1.0" encoding="UTF-8" standalone="no"?>
<!DOCTYPE svg PUBLIC "-//W3C//DTD SVG 1.1//EN"
 "http://www.w3.org/Graphics/SVG/1.1/DTD/svg11.dtd">
<!-- Generated by graphviz version 4.0.0 (20220529.0937)
 -->
<!-- Title: top_module Pages: 1 -->
<svg width="478pt" height="184pt"
 viewBox="0.00 0.00 478.23 184.00" xmlns="http://www.w3.org/2000/svg" xmlns:xlink="http://www.w3.org/1999/xlink">
<g id="graph0" class="graph" transform="scale(1 1) rotate(0) translate(4 180)">
<title>top_module</title>
<polygon fill="white" stroke="transparent" points="-4,4 -4,-180 474.23,-180 474.23,4 -4,4"/>
<text text-anchor="middle" x="235.12" y="-7.8" font-family="Times New Roman,serif" font-size="14.00">top_module</text>
<!-- n4 -->
<g id="node1" class="node">
<title>n4</title>
<polygon fill="none" stroke="black" points="469.44,-149.04 469.44,-163.96 444.36,-174.5 408.88,-174.5 383.79,-163.96 383.79,-149.04 408.88,-138.5 444.36,-138.5 469.44,-149.04"/>
<text text-anchor="middle" x="426.62" y="-152.8" font-family="Times New Roman,serif" font-size="14.00">out_xor</text>
</g>
<!-- n5 -->
<g id="node2" class="node">
<title>n5</title>
<polygon fill="none" stroke="black" points="464.59,-92.04 464.59,-106.96 442.35,-117.5 410.89,-117.5 388.64,-106.96 388.64,-92.04 410.89,-81.5 442.35,-81.5 464.59,-92.04"/>
<text text-anchor="middle" x="426.62" y="-95.8" font-family="Times New Roman,serif" font-size="14.00">out_or</text>
</g>
<!-- n6 -->
<g id="node3" class="node">
<title>n6</title>
<polygon fill="none" stroke="black" points="470.35,-35.04 470.35,-49.96 444.73,-60.5 408.5,-60.5 382.88,-49.96 382.88,-35.04 408.5,-24.5 444.73,-24.5 470.35,-35.04"/>
<text text-anchor="middle" x="426.62" y="-38.8" font-family="Times New Roman,serif" font-size="14.00">out_and</text>
</g>
<!-- n7 -->
<g id="node4" class="node">
<title>n7</title>
<polygon fill="none" stroke="black" points="54,-92.04 54,-106.96 38.18,-117.5 15.82,-117.5 0,-106.96 0,-92.04 15.82,-81.5 38.18,-81.5 54,-92.04"/>
<text text-anchor="middle" x="27" y="-95.8" font-family="Times New Roman,serif" font-size="14.00">in</text>
</g>
<!-- c10 -->
<g id="node5" class="node">
<title>c10</title>
<polygon fill="none" stroke="black" points="115,-137.5 115,-175.5 254,-175.5 254,-137.5 115,-137.5"/>
<text text-anchor="middle" x="128" y="-152.8" font-family="Times New Roman,serif" font-size="14.00">A</text>
<polyline fill="none" stroke="black" points="141,-137.5 141,-175.5 "/>
<text text-anchor="middle" x="184.5" y="-160.3" font-family="Times New Roman,serif" font-size="14.00">$3</text>
<text text-anchor="middle" x="184.5" y="-145.3" font-family="Times New Roman,serif" font-size="14.00">$reduce_xor</text>
<polyline fill="none" stroke="black" points="228,-137.5 228,-175.5 "/>
<text text-anchor="middle" x="241" y="-152.8" font-family="Times New Roman,serif" font-size="14.00">Y</text>
</g>
<!-- n7&#45;&gt;c10 -->
<g id="edge7" class="edge">
<title>n7:e&#45;&gt;c10:w</title>
<path fill="none" stroke="#7570b3" stroke-width="3" d="M54,-99.5C65.63,-99.5 63.68,-110.37 72,-118.5 87.19,-133.35 88.73,-150.19 103.96,-155.09"/>
<polygon fill="#7570b3" stroke="#7570b3" stroke-width="3" points="103.61,-158.58 114,-156.5 104.58,-151.65 103.61,-158.58"/>
<text text-anchor="middle" x="84" y="-153.3" font-family="Times New Roman,serif" font-size="14.00" fill="#7570b3">&lt;4&gt;</text>
</g>
<!-- c11 -->
<g id="node6" class="node">
<title>c11</title>
<polygon fill="none" stroke="black" points="118.5,-80.5 118.5,-118.5 250.5,-118.5 250.5,-80.5 118.5,-80.5"/>
<text text-anchor="middle" x="131.5" y="-95.8" font-family="Times New Roman,serif" font-size="14.00">A</text>
<polyline fill="none" stroke="black" points="144.5,-80.5 144.5,-118.5 "/>
<text text-anchor="middle" x="184.5" y="-103.3" font-family="Times New Roman,serif" font-size="14.00">$2</text>
<text text-anchor="middle" x="184.5" y="-88.3" font-family="Times New Roman,serif" font-size="14.00">$reduce_or</text>
<polyline fill="none" stroke="black" points="224.5,-80.5 224.5,-118.5 "/>
<text text-anchor="middle" x="237.5" y="-95.8" font-family="Times New Roman,serif" font-size="14.00">Y</text>
</g>
<!-- n7&#45;&gt;c11 -->
<g id="edge8" class="edge">
<title>n7:e&#45;&gt;c11:w</title>
<path fill="none" stroke="#7570b3" stroke-width="3" d="M54,-99.5C78.47,-99.5 87.03,-99.5 107.28,-99.5"/>
<polygon fill="#7570b3" stroke="#7570b3" stroke-width="3" points="107.5,-103 117.5,-99.5 107.5,-96 107.5,-103"/>
<text text-anchor="middle" x="84" y="-103.3" font-family="Times New Roman,serif" font-size="14.00" fill="#7570b3">&lt;4&gt;</text>
</g>
<!-- c12 -->
<g id="node7" class="node">
<title>c12</title>
<polygon fill="none" stroke="black" points="114,-23.5 114,-61.5 255,-61.5 255,-23.5 114,-23.5"/>
<text text-anchor="middle" x="127" y="-38.8" font-family="Times New Roman,serif" font-size="14.00">A</text>
<polyline fill="none" stroke="black" points="140,-23.5 140,-61.5 "/>
<text text-anchor="middle" x="184.5" y="-46.3" font-family="Times New Roman,serif" font-size="14.00">$1</text>
<text text-anchor="middle" x="184.5" y="-31.3" font-family="Times New Roman,serif" font-size="14.00">$reduce_and</text>
<polyline fill="none" stroke="black" points="229,-23.5 229,-61.5 "/>
<text text-anchor="middle" x="242" y="-38.8" font-family="Times New Roman,serif" font-size="14.00">Y</text>
</g>
<!-- n7&#45;&gt;c12 -->
<g id="edge9" class="edge">
<title>n7:e&#45;&gt;c12:w</title>
<path fill="none" stroke="#7570b3" stroke-width="3" d="M54,-99.5C65.63,-99.5 63.68,-88.63 72,-80.5 87.19,-65.65 88.73,-48.81 103.96,-43.91"/>
<polygon fill="#7570b3" stroke="#7570b3" stroke-width="3" points="104.58,-47.35 114,-42.5 103.61,-40.42 104.58,-47.35"/>
<text text-anchor="middle" x="84" y="-84.3" font-family="Times New Roman,serif" font-size="14.00" fill="#7570b3">&lt;4&gt;</text>
</g>
<!-- x2 -->
<g id="node10" class="node">
<title>x2</title>
<path fill="none" stroke="black" d="M334,-174.5C334,-174.5 304,-174.5 304,-174.5 298,-174.5 292,-168.5 292,-162.5 292,-162.5 292,-150.5 292,-150.5 292,-144.5 298,-138.5 304,-138.5 304,-138.5 334,-138.5 334,-138.5 340,-138.5 346,-144.5 346,-150.5 346,-150.5 346,-162.5 346,-162.5 346,-168.5 340,-174.5 334,-174.5"/>
<text text-anchor="middle" x="319" y="-152.8" font-family="Times New Roman,serif" font-size="14.00">BUF</text>
</g>
<!-- c10&#45;&gt;x2 -->
<g id="edge1" class="edge">
<title>c10:e&#45;&gt;x2:w</title>
<path fill="none" stroke="#66a61e" d="M255,-156.5C267.46,-156.5 272.84,-156.5 281.87,-156.5"/>
<polygon fill="#66a61e" stroke="#66a61e" points="282,-160 292,-156.5 282,-153 282,-160"/>
</g>
<!-- x1 -->
<g id="node9" class="node">
<title>x1</title>
<path fill="none" stroke="black" d="M334,-117.5C334,-117.5 304,-117.5 304,-117.5 298,-117.5 292,-111.5 292,-105.5 292,-105.5 292,-93.5 292,-93.5 292,-87.5 298,-81.5 304,-81.5 304,-81.5 334,-81.5 334,-81.5 340,-81.5 346,-87.5 346,-93.5 346,-93.5 346,-105.5 346,-105.5 346,-111.5 340,-117.5 334,-117.5"/>
<text text-anchor="middle" x="319" y="-95.8" font-family="Times New Roman,serif" font-size="14.00">BUF</text>
</g>
<!-- c11&#45;&gt;x1 -->
<g id="edge2" class="edge">
<title>c11:e&#45;&gt;x1:w</title>
<path fill="none" stroke="#1b9e77" d="M251.5,-99.5C265.56,-99.5 271.39,-99.5 281.84,-99.5"/>
<polygon fill="#1b9e77" stroke="#1b9e77" points="282,-103 292,-99.5 282,-96 282,-103"/>
</g>
<!-- x0 -->
<g id="node8" class="node">
<title>x0</title>
<path fill="none" stroke="black" d="M334,-60.5C334,-60.5 304,-60.5 304,-60.5 298,-60.5 292,-54.5 292,-48.5 292,-48.5 292,-36.5 292,-36.5 292,-30.5 298,-24.5 304,-24.5 304,-24.5 334,-24.5 334,-24.5 340,-24.5 346,-30.5 346,-36.5 346,-36.5 346,-48.5 346,-48.5 346,-54.5 340,-60.5 334,-60.5"/>
<text text-anchor="middle" x="319" y="-38.8" font-family="Times New Roman,serif" font-size="14.00">BUF</text>
</g>
<!-- c12&#45;&gt;x0 -->
<g id="edge3" class="edge">
<title>c12:e&#45;&gt;x0:w</title>
<path fill="none" stroke="#1b9e77" d="M255,-42.5C267.46,-42.5 272.84,-42.5 281.87,-42.5"/>
<polygon fill="#1b9e77" stroke="#1b9e77" points="282,-46 292,-42.5 282,-39 282,-46"/>
</g>
<!-- x0&#45;&gt;n6 -->
<g id="edge6" class="edge">
<title>x0:e&#45;&gt;n6:w</title>
<path fill="none" stroke="#e7298a" d="M346,-42.5C358.46,-42.5 363.84,-42.5 372.87,-42.5"/>
<polygon fill="#e7298a" stroke="#e7298a" points="373,-46 383,-42.5 373,-39 373,-46"/>
</g>
<!-- x1&#45;&gt;n5 -->
<g id="edge5" class="edge">
<title>x1:e&#45;&gt;n5:w</title>
<path fill="none" stroke="#e7298a" d="M346,-99.5C360.59,-99.5 366.55,-99.5 377.5,-99.5"/>
<polygon fill="#e7298a" stroke="#e7298a" points="377.62,-103 387.62,-99.5 377.62,-96 377.62,-103"/>
</g>
<!-- x2&#45;&gt;n4 -->
<g id="edge4" class="edge">
<title>x2:e&#45;&gt;n4:w</title>
<path fill="none" stroke="#7570b3" d="M346,-156.5C358.46,-156.5 363.84,-156.5 372.87,-156.5"/>
<polygon fill="#7570b3" stroke="#7570b3" points="373,-160 383,-156.5 373,-153 373,-160"/>
</g>
</g>
</svg>
