<svg xmlns="http://www.w3.org/2000/svg" xmlns:xlink="http://www.w3.org/1999/xlink" xmlns:s="https://github.com/nturley/netlistsvg" width="347" height="192.5">
  <style>svg {
    stroke:#000;
    fill:none;
  }
  text {
    fill:#000;
    stroke:none;
    font-size:10px;
    font-weight: bold;
    font-family: "Courier New", monospace;
  }
  .nodelabel {
    text-anchor: middle;
  }
  .inputPortLabel {
    text-anchor: end;
  }
  .splitjoinBody {
    fill:#000;
  }</style>
  <g s:type="generic" transform="translate(84,89.5)" s:width="30" s:height="40" id="cell_$reduce_and$top_module.v:17$1">
    <text x="15" y="-4" class="nodelabel cell_$reduce_and$top_module.v:17$1" s:attribute="ref">$reduce_and</text>
    <rect width="30" height="20" s:generic="body" class="cell_$reduce_and$top_module.v:17$1"/>
    <g transform="translate(0,10)" s:x="0" s:y="10" s:pid="in0" id="port_$reduce_and$top_module.v:17$1~A">
      <text x="-3" y="-4" class="inputPortLabel cell_$reduce_and$top_module.v:17$1">A</text>
    </g>
    <g transform="translate(30,10)" s:x="30" s:y="10" s:pid="out0" id="port_$reduce_and$top_module.v:17$1~Y">
      <text x="5" y="-4" style="fill:#000; stroke:none" class="cell_$reduce_and$top_module.v:17$1">Y</text>
    </g>
  </g>
  <g s:type="generic" transform="translate(90,157.5)" s:width="30" s:height="40" id="cell_$reduce_or$top_module.v:18$2">
    <text x="15" y="-4" class="nodelabel cell_$reduce_or$top_module.v:18$2" s:attribute="ref">$reduce_or</text>
    <rect width="30" height="20" s:generic="body" class="cell_$reduce_or$top_module.v:18$2"/>
    <g transform="translate(0,10)" s:x="0" s:y="10" s:pid="in0" id="port_$reduce_or$top_module.v:18$2~A">
      <text x="-3" y="-4" class="inputPortLabel cell_$reduce_or$top_module.v:18$2">A</text>
    </g>
    <g transform="translate(30,10)" s:x="30" s:y="10" s:pid="out0" id="port_$reduce_or$top_module.v:18$2~Y">
      <text x="5" y="-4" style="fill:#000; stroke:none" class="cell_$reduce_or$top_module.v:18$2">Y</text>
    </g>
  </g>
  <g s:type="reduce_xor" transform="translate(151,19.5)" s:width="33" s:height="25" id="cell_$reduce_xor$top_module.v:19$3">
    <s:alias val="$xor"/>
    <s:alias val="$reduce_xor"/>
    <s:alias val="$_XOR_"/>
    <path d="M3,0 A30 25 0 0 1 3,25 A30 25 0 0 0 33,12.5 A30 25 0 0 0 3,0" class="cell_$reduce_xor$top_module.v:19$3"/>
    <path d="M0,0 A30 25 0 0 1 0,25" class="cell_$reduce_xor$top_module.v:19$3"/>
    <g s:x="3" s:y="5" s:pid="A"/>
    <g s:x="3" s:y="20" s:pid="B"/>
    <g s:x="33" s:y="12.5" s:pid="Y"/>
  </g>
  <g s:type="inputExt" transform="translate(12,158)" s:width="30" s:height="20" id="cell_in">
    <text x="15" y="-4" class="nodelabel cell_in" s:attribute="ref">in</text>
    <s:alias val="$_inputExt_"/>
    <path d="M0,0 L0,20 L15,20 L30,10 L15,0 Z" class="cell_in"/>
    <g s:x="28" s:y="10" s:pid="Y"/>
  </g>
  <g s:type="outputExt" transform="translate(293,90)" s:width="30" s:height="20" id="cell_out_and">
    <text x="15" y="-4" class="nodelabel cell_out_and" s:attribute="ref">out_and</text>
    <s:alias val="$_outputExt_"/>
    <path d="M30,0 L30,20 L15,20 L0,10 L15,0 Z" class="cell_out_and"/>
    <g s:x="0" s:y="10" s:pid="A"/>
  </g>
  <g s:type="outputExt" transform="translate(293,158)" s:width="30" s:height="20" id="cell_out_or">
    <text x="15" y="-4" class="nodelabel cell_out_or" s:attribute="ref">out_or</text>
    <s:alias val="$_outputExt_"/>
    <path d="M30,0 L30,20 L15,20 L0,10 L15,0 Z" class="cell_out_or"/>
    <g s:x="0" s:y="10" s:pid="A"/>
  </g>
  <g s:type="outputExt" transform="translate(293,22)" s:width="30" s:height="20" id="cell_out_xor">
    <text x="15" y="-4" class="nodelabel cell_out_xor" s:attribute="ref">out_xor</text>
    <s:alias val="$_outputExt_"/>
    <path d="M30,0 L30,20 L15,20 L0,10 L15,0 Z" class="cell_out_xor"/>
    <g s:x="0" s:y="10" s:pid="A"/>
  </g>
  <line x1="40" x2="52" y1="168" y2="168" class="net_2,3,4,5"/>
  <line x1="52" x2="52" y1="168" y2="100" class="net_2,3,4,5"/>
  <circle cx="52" cy="168" r="2" style="fill:#000" class="net_2,3,4,5"/>
  <circle cx="52" cy="100" r="2" style="fill:#000" class="net_2,3,4,5"/>
  <line x1="52" x2="84" y1="100" y2="100" class="net_2,3,4,5"/>
  <line x1="40" x2="90" y1="168" y2="168" class="net_2,3,4,5"/>
  <line x1="40" x2="52" y1="168" y2="168" class="net_2,3,4,5"/>
  <line x1="52" x2="52" y1="168" y2="24.5" class="net_2,3,4,5"/>
  <line x1="52" x2="154" y1="24.5" y2="24.5" class="net_2,3,4,5"/>
  <line x1="115" x2="293" y1="100" y2="100" class="net_6"/>
  <line x1="121" x2="293" y1="168" y2="168" class="net_7"/>
  <line x1="184" x2="293" y1="32" y2="32" class="net_8"/>
</svg>
