<?xml version="1.0" encoding="UTF-8" standalone="no"?>
<!DOCTYPE svg PUBLIC "-//W3C//DTD SVG 1.1//EN"
 "http://www.w3.org/Graphics/SVG/1.1/DTD/svg11.dtd">
<!-- Generated by graphviz version 4.0.0 (20220529.0937)
 -->
<!-- Title: top_module Pages: 1 -->
<svg width="506pt" height="1501pt"
 viewBox="0.00 0.00 505.84 1501.36" xmlns="http://www.w3.org/2000/svg" xmlns:xlink="http://www.w3.org/1999/xlink">
<g id="graph0" class="graph" transform="scale(1 1) rotate(0) translate(4 1497.36)">
<title>top_module</title>
<polygon fill="white" stroke="transparent" points="-4,4 -4,-1497.36 501.84,-1497.36 501.84,4 -4,4"/>
<text text-anchor="middle" x="248.92" y="-7.8" font-family="Times New Roman,serif" font-size="14.00">top_module</text>
<!-- n1 -->
<g id="node1" class="node">
<title>n1</title>
<polygon fill="none" stroke="black" points="54,-1182.9 54,-1197.81 38.18,-1208.36 15.82,-1208.36 0,-1197.81 0,-1182.9 15.82,-1172.36 38.18,-1172.36 54,-1182.9"/>
<text text-anchor="middle" x="27" y="-1186.66" font-family="Times New Roman,serif" font-size="14.00">a</text>
</g>
<!-- x0 -->
<g id="node10" class="node">
<title>x0</title>
<path fill="none" stroke="black" d="M103,-1377.86C103,-1377.86 171,-1377.86 171,-1377.86 177,-1377.86 183,-1383.86 183,-1389.86 183,-1389.86 183,-1480.86 183,-1480.86 183,-1486.86 177,-1492.86 171,-1492.86 171,-1492.86 103,-1492.86 103,-1492.86 97,-1492.86 91,-1486.86 91,-1480.86 91,-1480.86 91,-1389.86 91,-1389.86 91,-1383.86 97,-1377.86 103,-1377.86"/>
<text text-anchor="middle" x="137" y="-1477.66" font-family="Times New Roman,serif" font-size="14.00">5x 0:0 &#45; 24:20</text>
<polyline fill="none" stroke="black" points="91,-1469.86 183,-1469.86 "/>
<text text-anchor="middle" x="137" y="-1454.66" font-family="Times New Roman,serif" font-size="14.00">5x 0:0 &#45; 19:15</text>
<polyline fill="none" stroke="black" points="91,-1446.86 183,-1446.86 "/>
<text text-anchor="middle" x="137" y="-1431.66" font-family="Times New Roman,serif" font-size="14.00">5x 0:0 &#45; 14:10</text>
<polyline fill="none" stroke="black" points="91,-1423.86 183,-1423.86 "/>
<text text-anchor="middle" x="137" y="-1408.66" font-family="Times New Roman,serif" font-size="14.00">5x 0:0 &#45; 9:5</text>
<polyline fill="none" stroke="black" points="91,-1400.86 183,-1400.86 "/>
<text text-anchor="middle" x="137" y="-1385.66" font-family="Times New Roman,serif" font-size="14.00">5x 0:0 &#45; 4:0</text>
</g>
<!-- n1&#45;&gt;x0 -->
<g id="edge3" class="edge">
<title>n1:e&#45;&gt;x0:w</title>
<path fill="none" stroke="#1b9e77" d="M54,-1190.36C85.4,-1190.36 54.37,-1446.38 72,-1472.36 74.87,-1476.59 77.49,-1478.88 80.8,-1480.09"/>
<polygon fill="#1b9e77" stroke="#1b9e77" points="80.65,-1483.6 91,-1481.36 81.51,-1476.65 80.65,-1483.6"/>
</g>
<!-- x1 -->
<g id="node11" class="node">
<title>x1</title>
<path fill="none" stroke="black" d="M111.5,-777.86C111.5,-777.86 162.5,-777.86 162.5,-777.86 168.5,-777.86 174.5,-783.86 174.5,-789.86 174.5,-789.86 174.5,-1340.86 174.5,-1340.86 174.5,-1346.86 168.5,-1352.86 162.5,-1352.86 162.5,-1352.86 111.5,-1352.86 111.5,-1352.86 105.5,-1352.86 99.5,-1346.86 99.5,-1340.86 99.5,-1340.86 99.5,-789.86 99.5,-789.86 99.5,-783.86 105.5,-777.86 111.5,-777.86"/>
<text text-anchor="middle" x="137" y="-1337.66" font-family="Times New Roman,serif" font-size="14.00">0:0 &#45; 24:24</text>
<polyline fill="none" stroke="black" points="99.5,-1329.86 174.5,-1329.86 "/>
<text text-anchor="middle" x="137" y="-1314.66" font-family="Times New Roman,serif" font-size="14.00">0:0 &#45; 23:23</text>
<polyline fill="none" stroke="black" points="99.5,-1306.86 174.5,-1306.86 "/>
<text text-anchor="middle" x="137" y="-1291.66" font-family="Times New Roman,serif" font-size="14.00">0:0 &#45; 22:22</text>
<polyline fill="none" stroke="black" points="99.5,-1283.86 174.5,-1283.86 "/>
<text text-anchor="middle" x="137" y="-1268.66" font-family="Times New Roman,serif" font-size="14.00">0:0 &#45; 21:21</text>
<polyline fill="none" stroke="black" points="99.5,-1260.86 174.5,-1260.86 "/>
<text text-anchor="middle" x="137" y="-1245.66" font-family="Times New Roman,serif" font-size="14.00">0:0 &#45; 20:20</text>
<polyline fill="none" stroke="black" points="99.5,-1237.86 174.5,-1237.86 "/>
<text text-anchor="middle" x="137" y="-1222.66" font-family="Times New Roman,serif" font-size="14.00">0:0 &#45; 19:19</text>
<polyline fill="none" stroke="black" points="99.5,-1214.86 174.5,-1214.86 "/>
<text text-anchor="middle" x="137" y="-1199.66" font-family="Times New Roman,serif" font-size="14.00">0:0 &#45; 18:18</text>
<polyline fill="none" stroke="black" points="99.5,-1191.86 174.5,-1191.86 "/>
<text text-anchor="middle" x="137" y="-1176.66" font-family="Times New Roman,serif" font-size="14.00">0:0 &#45; 17:17</text>
<polyline fill="none" stroke="black" points="99.5,-1168.86 174.5,-1168.86 "/>
<text text-anchor="middle" x="137" y="-1153.66" font-family="Times New Roman,serif" font-size="14.00">0:0 &#45; 16:16</text>
<polyline fill="none" stroke="black" points="99.5,-1145.86 174.5,-1145.86 "/>
<text text-anchor="middle" x="137" y="-1130.66" font-family="Times New Roman,serif" font-size="14.00">0:0 &#45; 15:15</text>
<polyline fill="none" stroke="black" points="99.5,-1122.86 174.5,-1122.86 "/>
<text text-anchor="middle" x="137" y="-1107.66" font-family="Times New Roman,serif" font-size="14.00">0:0 &#45; 14:14</text>
<polyline fill="none" stroke="black" points="99.5,-1099.86 174.5,-1099.86 "/>
<text text-anchor="middle" x="137" y="-1084.66" font-family="Times New Roman,serif" font-size="14.00">0:0 &#45; 13:13</text>
<polyline fill="none" stroke="black" points="99.5,-1076.86 174.5,-1076.86 "/>
<text text-anchor="middle" x="137" y="-1061.66" font-family="Times New Roman,serif" font-size="14.00">0:0 &#45; 12:12</text>
<polyline fill="none" stroke="black" points="99.5,-1053.86 174.5,-1053.86 "/>
<text text-anchor="middle" x="137" y="-1038.66" font-family="Times New Roman,serif" font-size="14.00">0:0 &#45; 11:11</text>
<polyline fill="none" stroke="black" points="99.5,-1030.86 174.5,-1030.86 "/>
<text text-anchor="middle" x="137" y="-1015.66" font-family="Times New Roman,serif" font-size="14.00">0:0 &#45; 10:10</text>
<polyline fill="none" stroke="black" points="99.5,-1007.86 174.5,-1007.86 "/>
<text text-anchor="middle" x="137" y="-992.66" font-family="Times New Roman,serif" font-size="14.00">0:0 &#45; 9:9</text>
<polyline fill="none" stroke="black" points="99.5,-984.86 174.5,-984.86 "/>
<text text-anchor="middle" x="137" y="-969.66" font-family="Times New Roman,serif" font-size="14.00">0:0 &#45; 8:8</text>
<polyline fill="none" stroke="black" points="99.5,-961.86 174.5,-961.86 "/>
<text text-anchor="middle" x="137" y="-946.66" font-family="Times New Roman,serif" font-size="14.00">0:0 &#45; 7:7</text>
<polyline fill="none" stroke="black" points="99.5,-938.86 174.5,-938.86 "/>
<text text-anchor="middle" x="137" y="-923.66" font-family="Times New Roman,serif" font-size="14.00">0:0 &#45; 6:6</text>
<polyline fill="none" stroke="black" points="99.5,-915.86 174.5,-915.86 "/>
<text text-anchor="middle" x="137" y="-900.66" font-family="Times New Roman,serif" font-size="14.00">0:0 &#45; 5:5</text>
<polyline fill="none" stroke="black" points="99.5,-892.86 174.5,-892.86 "/>
<text text-anchor="middle" x="137" y="-877.66" font-family="Times New Roman,serif" font-size="14.00">0:0 &#45; 4:4</text>
<polyline fill="none" stroke="black" points="99.5,-869.86 174.5,-869.86 "/>
<text text-anchor="middle" x="137" y="-854.66" font-family="Times New Roman,serif" font-size="14.00">0:0 &#45; 3:3</text>
<polyline fill="none" stroke="black" points="99.5,-846.86 174.5,-846.86 "/>
<text text-anchor="middle" x="137" y="-831.66" font-family="Times New Roman,serif" font-size="14.00">0:0 &#45; 2:2</text>
<polyline fill="none" stroke="black" points="99.5,-823.86 174.5,-823.86 "/>
<text text-anchor="middle" x="137" y="-808.66" font-family="Times New Roman,serif" font-size="14.00">0:0 &#45; 1:1</text>
<polyline fill="none" stroke="black" points="99.5,-800.86 174.5,-800.86 "/>
<text text-anchor="middle" x="137" y="-785.66" font-family="Times New Roman,serif" font-size="14.00">0:0 &#45; 0:0</text>
</g>
<!-- n1&#45;&gt;x1 -->
<g id="edge4" class="edge">
<title>n1:e&#45;&gt;x1:w</title>
<path fill="none" stroke="#1b9e77" d="M54,-1190.36C78.15,-1190.36 54.82,-1313.26 73,-1297.36 101.45,-1272.48 64.61,-1139.93 88.5,-1115.3"/>
<polygon fill="#1b9e77" stroke="#1b9e77" points="90.1,-1118.42 98,-1111.36 87.42,-1111.96 90.1,-1118.42"/>
</g>
<!-- n1&#45;&gt;x1 -->
<g id="edge5" class="edge">
<title>n1:e&#45;&gt;x1:w</title>
<path fill="none" stroke="#1b9e77" d="M54,-1190.36C81.18,-1190.36 51.41,-1293.61 72,-1311.36 98.88,-1334.54 66.56,-1247.45 88.37,-1229.53"/>
<polygon fill="#1b9e77" stroke="#1b9e77" points="89.59,-1232.81 98,-1226.36 87.41,-1226.16 89.59,-1232.81"/>
</g>
<!-- n1&#45;&gt;x1 -->
<g id="edge6" class="edge">
<title>n1:e&#45;&gt;x1:w</title>
<path fill="none" stroke="#1b9e77" d="M54,-1190.36C84.27,-1190.36 55.52,-1299.97 72,-1325.36 77.2,-1333.36 81.23,-1338.02 87.89,-1340.08"/>
<polygon fill="#1b9e77" stroke="#1b9e77" points="87.64,-1343.58 98,-1341.36 88.52,-1336.63 87.64,-1343.58"/>
</g>
<!-- n1&#45;&gt;x1 -->
<g id="edge7" class="edge">
<title>n1:e&#45;&gt;x1:w</title>
<path fill="none" stroke="#1b9e77" d="M54,-1190.36C68.67,-1190.36 62.25,-1227.34 73,-1217.36 98.13,-1194.03 66.79,-931.51 90.12,-887.58"/>
<polygon fill="#1b9e77" stroke="#1b9e77" points="92.32,-890.3 98,-881.36 87.98,-884.8 92.32,-890.3"/>
</g>
<!-- n1&#45;&gt;x1 -->
<g id="edge8" class="edge">
<title>n1:e&#45;&gt;x1:w</title>
<path fill="none" stroke="#1b9e77" d="M54,-1190.36C74.08,-1190.36 58.07,-1244.79 73,-1231.36 109.15,-1198.85 54.78,-1025.12 88.18,-999.51"/>
<polygon fill="#1b9e77" stroke="#1b9e77" points="89.55,-1002.75 98,-996.36 87.41,-996.08 89.55,-1002.75"/>
</g>
<!-- x2 -->
<g id="node12" class="node">
<title>x2</title>
<path fill="none" stroke="black" d="M103,-628.86C103,-628.86 171,-628.86 171,-628.86 177,-628.86 183,-634.86 183,-640.86 183,-640.86 183,-731.86 183,-731.86 183,-737.86 177,-743.86 171,-743.86 171,-743.86 103,-743.86 103,-743.86 97,-743.86 91,-737.86 91,-731.86 91,-731.86 91,-640.86 91,-640.86 91,-634.86 97,-628.86 103,-628.86"/>
<text text-anchor="middle" x="137" y="-728.66" font-family="Times New Roman,serif" font-size="14.00">5x 0:0 &#45; 24:20</text>
<polyline fill="none" stroke="black" points="91,-720.86 183,-720.86 "/>
<text text-anchor="middle" x="137" y="-705.66" font-family="Times New Roman,serif" font-size="14.00">5x 0:0 &#45; 19:15</text>
<polyline fill="none" stroke="black" points="91,-697.86 183,-697.86 "/>
<text text-anchor="middle" x="137" y="-682.66" font-family="Times New Roman,serif" font-size="14.00">5x 0:0 &#45; 14:10</text>
<polyline fill="none" stroke="black" points="91,-674.86 183,-674.86 "/>
<text text-anchor="middle" x="137" y="-659.66" font-family="Times New Roman,serif" font-size="14.00">5x 0:0 &#45; 9:5</text>
<polyline fill="none" stroke="black" points="91,-651.86 183,-651.86 "/>
<text text-anchor="middle" x="137" y="-636.66" font-family="Times New Roman,serif" font-size="14.00">5x 0:0 &#45; 4:0</text>
</g>
<!-- n1&#45;&gt;x2 -->
<g id="edge9" class="edge">
<title>n1:e&#45;&gt;x2:w</title>
<path fill="none" stroke="#1b9e77" d="M54,-1190.36C152.32,-1190.36 0.93,-765.72 80.72,-734.2"/>
<polygon fill="#1b9e77" stroke="#1b9e77" points="81.78,-737.57 91,-732.36 80.54,-730.68 81.78,-737.57"/>
</g>
<!-- x3 -->
<g id="node13" class="node">
<title>x3</title>
<path fill="none" stroke="black" d="M111.5,-23.86C111.5,-23.86 162.5,-23.86 162.5,-23.86 168.5,-23.86 174.5,-29.86 174.5,-35.86 174.5,-35.86 174.5,-586.86 174.5,-586.86 174.5,-592.86 168.5,-598.86 162.5,-598.86 162.5,-598.86 111.5,-598.86 111.5,-598.86 105.5,-598.86 99.5,-592.86 99.5,-586.86 99.5,-586.86 99.5,-35.86 99.5,-35.86 99.5,-29.86 105.5,-23.86 111.5,-23.86"/>
<text text-anchor="middle" x="137" y="-583.66" font-family="Times New Roman,serif" font-size="14.00">0:0 &#45; 24:24</text>
<polyline fill="none" stroke="black" points="99.5,-575.86 174.5,-575.86 "/>
<text text-anchor="middle" x="137" y="-560.66" font-family="Times New Roman,serif" font-size="14.00">0:0 &#45; 23:23</text>
<polyline fill="none" stroke="black" points="99.5,-552.86 174.5,-552.86 "/>
<text text-anchor="middle" x="137" y="-537.66" font-family="Times New Roman,serif" font-size="14.00">0:0 &#45; 22:22</text>
<polyline fill="none" stroke="black" points="99.5,-529.86 174.5,-529.86 "/>
<text text-anchor="middle" x="137" y="-514.66" font-family="Times New Roman,serif" font-size="14.00">0:0 &#45; 21:21</text>
<polyline fill="none" stroke="black" points="99.5,-506.86 174.5,-506.86 "/>
<text text-anchor="middle" x="137" y="-491.66" font-family="Times New Roman,serif" font-size="14.00">0:0 &#45; 20:20</text>
<polyline fill="none" stroke="black" points="99.5,-483.86 174.5,-483.86 "/>
<text text-anchor="middle" x="137" y="-468.66" font-family="Times New Roman,serif" font-size="14.00">0:0 &#45; 19:19</text>
<polyline fill="none" stroke="black" points="99.5,-460.86 174.5,-460.86 "/>
<text text-anchor="middle" x="137" y="-445.66" font-family="Times New Roman,serif" font-size="14.00">0:0 &#45; 18:18</text>
<polyline fill="none" stroke="black" points="99.5,-437.86 174.5,-437.86 "/>
<text text-anchor="middle" x="137" y="-422.66" font-family="Times New Roman,serif" font-size="14.00">0:0 &#45; 17:17</text>
<polyline fill="none" stroke="black" points="99.5,-414.86 174.5,-414.86 "/>
<text text-anchor="middle" x="137" y="-399.66" font-family="Times New Roman,serif" font-size="14.00">0:0 &#45; 16:16</text>
<polyline fill="none" stroke="black" points="99.5,-391.86 174.5,-391.86 "/>
<text text-anchor="middle" x="137" y="-376.66" font-family="Times New Roman,serif" font-size="14.00">0:0 &#45; 15:15</text>
<polyline fill="none" stroke="black" points="99.5,-368.86 174.5,-368.86 "/>
<text text-anchor="middle" x="137" y="-353.66" font-family="Times New Roman,serif" font-size="14.00">0:0 &#45; 14:14</text>
<polyline fill="none" stroke="black" points="99.5,-345.86 174.5,-345.86 "/>
<text text-anchor="middle" x="137" y="-330.66" font-family="Times New Roman,serif" font-size="14.00">0:0 &#45; 13:13</text>
<polyline fill="none" stroke="black" points="99.5,-322.86 174.5,-322.86 "/>
<text text-anchor="middle" x="137" y="-307.66" font-family="Times New Roman,serif" font-size="14.00">0:0 &#45; 12:12</text>
<polyline fill="none" stroke="black" points="99.5,-299.86 174.5,-299.86 "/>
<text text-anchor="middle" x="137" y="-284.66" font-family="Times New Roman,serif" font-size="14.00">0:0 &#45; 11:11</text>
<polyline fill="none" stroke="black" points="99.5,-276.86 174.5,-276.86 "/>
<text text-anchor="middle" x="137" y="-261.66" font-family="Times New Roman,serif" font-size="14.00">0:0 &#45; 10:10</text>
<polyline fill="none" stroke="black" points="99.5,-253.86 174.5,-253.86 "/>
<text text-anchor="middle" x="137" y="-238.66" font-family="Times New Roman,serif" font-size="14.00">0:0 &#45; 9:9</text>
<polyline fill="none" stroke="black" points="99.5,-230.86 174.5,-230.86 "/>
<text text-anchor="middle" x="137" y="-215.66" font-family="Times New Roman,serif" font-size="14.00">0:0 &#45; 8:8</text>
<polyline fill="none" stroke="black" points="99.5,-207.86 174.5,-207.86 "/>
<text text-anchor="middle" x="137" y="-192.66" font-family="Times New Roman,serif" font-size="14.00">0:0 &#45; 7:7</text>
<polyline fill="none" stroke="black" points="99.5,-184.86 174.5,-184.86 "/>
<text text-anchor="middle" x="137" y="-169.66" font-family="Times New Roman,serif" font-size="14.00">0:0 &#45; 6:6</text>
<polyline fill="none" stroke="black" points="99.5,-161.86 174.5,-161.86 "/>
<text text-anchor="middle" x="137" y="-146.66" font-family="Times New Roman,serif" font-size="14.00">0:0 &#45; 5:5</text>
<polyline fill="none" stroke="black" points="99.5,-138.86 174.5,-138.86 "/>
<text text-anchor="middle" x="137" y="-123.66" font-family="Times New Roman,serif" font-size="14.00">0:0 &#45; 4:4</text>
<polyline fill="none" stroke="black" points="99.5,-115.86 174.5,-115.86 "/>
<text text-anchor="middle" x="137" y="-100.66" font-family="Times New Roman,serif" font-size="14.00">0:0 &#45; 3:3</text>
<polyline fill="none" stroke="black" points="99.5,-92.86 174.5,-92.86 "/>
<text text-anchor="middle" x="137" y="-77.66" font-family="Times New Roman,serif" font-size="14.00">0:0 &#45; 2:2</text>
<polyline fill="none" stroke="black" points="99.5,-69.86 174.5,-69.86 "/>
<text text-anchor="middle" x="137" y="-54.66" font-family="Times New Roman,serif" font-size="14.00">0:0 &#45; 1:1</text>
<polyline fill="none" stroke="black" points="99.5,-46.86 174.5,-46.86 "/>
<text text-anchor="middle" x="137" y="-31.66" font-family="Times New Roman,serif" font-size="14.00">0:0 &#45; 0:0</text>
</g>
<!-- n1&#45;&gt;x3 -->
<g id="edge10" class="edge">
<title>n1:e&#45;&gt;x3:w</title>
<path fill="none" stroke="#1b9e77" d="M54,-1190.36C71.09,-1190.36 70.74,-592.4 72,-575.36 72.79,-564.74 82.72,-406.5 93.35,-366.49"/>
<polygon fill="#1b9e77" stroke="#1b9e77" points="96.58,-367.86 98,-357.36 90.34,-364.68 96.58,-367.86"/>
</g>
<!-- n1&#45;&gt;x3 -->
<g id="edge11" class="edge">
<title>n1:e&#45;&gt;x3:w</title>
<path fill="none" stroke="#1b9e77" d="M54,-1190.36C70.4,-1190.36 70.11,-616.65 72,-600.36 74.93,-575.13 70.42,-496.05 88.69,-476.68"/>
<polygon fill="#1b9e77" stroke="#1b9e77" points="90.4,-479.74 98,-472.36 87.46,-473.39 90.4,-479.74"/>
</g>
<!-- n1&#45;&gt;x3 -->
<g id="edge12" class="edge">
<title>n1:e&#45;&gt;x3:w</title>
<path fill="none" stroke="#1b9e77" d="M54,-1190.36C57.97,-1190.36 90.45,-623.29 91,-619.36 92.27,-610.35 89,-600.1 89.92,-593.68"/>
<polygon fill="#1b9e77" stroke="#1b9e77" points="92.28,-596.28 98,-587.36 87.97,-590.77 92.28,-596.28"/>
</g>
<!-- n1&#45;&gt;x3 -->
<g id="edge13" class="edge">
<title>n1:e&#45;&gt;x3:w</title>
<path fill="none" stroke="#1b9e77" d="M54,-1190.36C72.48,-1190.36 71.15,-543.82 72,-525.36 72.46,-515.33 84.34,-196.6 94.81,-136.93"/>
<polygon fill="#1b9e77" stroke="#1b9e77" points="98.16,-137.95 98,-127.36 91.52,-135.74 98.16,-137.95"/>
</g>
<!-- n1&#45;&gt;x3 -->
<g id="edge14" class="edge">
<title>n1:e&#45;&gt;x3:w</title>
<path fill="none" stroke="#1b9e77" d="M54,-1190.36C71.56,-1190.36 71.03,-575.89 72,-558.36 72.87,-542.59 78.92,-301.13 92.85,-251.31"/>
<polygon fill="#1b9e77" stroke="#1b9e77" points="96.05,-252.77 98,-242.36 89.98,-249.28 96.05,-252.77"/>
</g>
<!-- n2 -->
<g id="node2" class="node">
<title>n2</title>
<polygon fill="none" stroke="black" points="54,-1058.9 54,-1073.81 38.18,-1084.36 15.82,-1084.36 0,-1073.81 0,-1058.9 15.82,-1048.36 38.18,-1048.36 54,-1058.9"/>
<text text-anchor="middle" x="27" y="-1062.66" font-family="Times New Roman,serif" font-size="14.00">b</text>
</g>
<!-- n2&#45;&gt;x0 -->
<g id="edge15" class="edge">
<title>n2:e&#45;&gt;x0:w</title>
<path fill="none" stroke="#7570b3" d="M54,-1066.36C75.19,-1066.36 60.99,-1429.26 72,-1447.36 74.85,-1452.05 77.42,-1454.94 80.86,-1456.58"/>
<polygon fill="#7570b3" stroke="#7570b3" points="80.55,-1460.07 91,-1458.36 81.76,-1453.18 80.55,-1460.07"/>
</g>
<!-- n2&#45;&gt;x1 -->
<g id="edge16" class="edge">
<title>n2:e&#45;&gt;x1:w</title>
<path fill="none" stroke="#7570b3" d="M54,-1066.36C77.89,-1066.36 53.75,-1156.94 72,-1172.36 98.83,-1195.01 66.89,-1109.16 88.47,-1091.48"/>
<polygon fill="#7570b3" stroke="#7570b3" points="89.59,-1094.8 98,-1088.36 87.41,-1088.15 89.59,-1094.8"/>
</g>
<!-- n2&#45;&gt;x1 -->
<g id="edge17" class="edge">
<title>n2:e&#45;&gt;x1:w</title>
<path fill="none" stroke="#7570b3" d="M54,-1066.36C80.96,-1066.36 57.44,-1163.66 72,-1186.36 77.24,-1194.53 81.14,-1199.61 87.79,-1201.91"/>
<polygon fill="#7570b3" stroke="#7570b3" points="87.61,-1205.42 98,-1203.36 88.59,-1198.49 87.61,-1205.42"/>
</g>
<!-- n2&#45;&gt;x1 -->
<g id="edge18" class="edge">
<title>n2:e&#45;&gt;x1:w</title>
<path fill="none" stroke="#7570b3" d="M54,-1066.36C69.02,-1066.36 69.38,-1185.57 72,-1200.36 76.06,-1223.29 72.44,-1295.19 88.92,-1313.88"/>
<polygon fill="#7570b3" stroke="#7570b3" points="87.48,-1317.08 98,-1318.36 90.58,-1310.8 87.48,-1317.08"/>
</g>
<!-- n2&#45;&gt;x1 -->
<g id="edge19" class="edge">
<title>n2:e&#45;&gt;x1:w</title>
<path fill="none" stroke="#7570b3" d="M54,-1066.36C80.28,-1066.36 53.56,-1140.04 73,-1122.36 113.69,-1085.33 48.83,-887.34 87.99,-861.21"/>
<polygon fill="#7570b3" stroke="#7570b3" points="89.34,-864.46 98,-858.36 87.42,-857.73 89.34,-864.46"/>
</g>
<!-- n2&#45;&gt;x1 -->
<g id="edge20" class="edge">
<title>n2:e&#45;&gt;x1:w</title>
<path fill="none" stroke="#7570b3" d="M54,-1066.36C86.24,-1066.36 48.54,-1157.35 73,-1136.36 97.87,-1115.01 68.93,-1001.42 88.78,-977.7"/>
<polygon fill="#7570b3" stroke="#7570b3" points="90.44,-980.79 98,-973.36 87.46,-974.45 90.44,-980.79"/>
</g>
<!-- n2&#45;&gt;x2 -->
<g id="edge21" class="edge">
<title>n2:e&#45;&gt;x2:w</title>
<path fill="none" stroke="#7570b3" d="M54,-1066.36C91.94,-1066.36 55.09,-759.32 72,-725.36 75,-719.34 77.3,-714.71 81.14,-712.02"/>
<polygon fill="#7570b3" stroke="#7570b3" points="82.26,-715.34 91,-709.36 80.43,-708.58 82.26,-715.34"/>
</g>
<!-- n2&#45;&gt;x3 -->
<g id="edge22" class="edge">
<title>n2:e&#45;&gt;x3:w</title>
<path fill="none" stroke="#7570b3" d="M54,-1066.36C71.12,-1066.36 69.87,-467.34 72,-450.36 74.85,-427.63 72.44,-357.09 88.98,-338.75"/>
<polygon fill="#7570b3" stroke="#7570b3" points="90.54,-341.88 98,-334.36 87.48,-335.59 90.54,-341.88"/>
</g>
<!-- n2&#45;&gt;x3 -->
<g id="edge23" class="edge">
<title>n2:e&#45;&gt;x3:w</title>
<path fill="none" stroke="#7570b3" d="M54,-1066.36C86.85,-1066.36 58.97,-505.51 72,-475.36 76.86,-464.11 79.86,-455.11 87.95,-451.31"/>
<polygon fill="#7570b3" stroke="#7570b3" points="88.85,-454.7 98,-449.36 87.52,-447.83 88.85,-454.7"/>
</g>
<!-- n2&#45;&gt;x3 -->
<g id="edge24" class="edge">
<title>n2:e&#45;&gt;x3:w</title>
<path fill="none" stroke="#7570b3" d="M54,-1066.36C85.46,-1066.36 49.4,-522.25 72,-500.36 91.12,-481.83 73.54,-543.57 88.56,-560.29"/>
<polygon fill="#7570b3" stroke="#7570b3" points="87.43,-563.62 98,-564.36 90.2,-557.19 87.43,-563.62"/>
</g>
<!-- n2&#45;&gt;x3 -->
<g id="edge25" class="edge">
<title>n2:e&#45;&gt;x3:w</title>
<path fill="none" stroke="#7570b3" d="M54,-1066.36C72.51,-1066.36 70.94,-418.83 72,-400.36 72.85,-385.62 79.77,-160.39 93.04,-113.05"/>
<polygon fill="#7570b3" stroke="#7570b3" points="96.09,-114.78 98,-104.36 90,-111.31 96.09,-114.78"/>
</g>
<!-- n2&#45;&gt;x3 -->
<g id="edge26" class="edge">
<title>n2:e&#45;&gt;x3:w</title>
<path fill="none" stroke="#7570b3" d="M54,-1066.36C71.56,-1066.36 70.69,-451.87 72,-434.36 73.58,-413.17 73.88,-261.83 90.48,-226.65"/>
<polygon fill="#7570b3" stroke="#7570b3" points="93.26,-228.83 98,-219.36 88.39,-223.81 93.26,-228.83"/>
</g>
<!-- n3 -->
<g id="node3" class="node">
<title>n3</title>
<polygon fill="none" stroke="black" points="54,-934.9 54,-949.81 38.18,-960.36 15.82,-960.36 0,-949.81 0,-934.9 15.82,-924.36 38.18,-924.36 54,-934.9"/>
<text text-anchor="middle" x="27" y="-938.66" font-family="Times New Roman,serif" font-size="14.00">c</text>
</g>
<!-- n3&#45;&gt;x0 -->
<g id="edge27" class="edge">
<title>n3:e&#45;&gt;x0:w</title>
<path fill="none" stroke="#e7298a" d="M54,-942.36C80.69,-942.36 59.11,-1398.99 72,-1422.36 74.93,-1427.68 77.48,-1431.26 81.2,-1433.3"/>
<polygon fill="#e7298a" stroke="#e7298a" points="80.49,-1436.73 91,-1435.36 81.93,-1429.88 80.49,-1436.73"/>
</g>
<!-- n3&#45;&gt;x1 -->
<g id="edge28" class="edge">
<title>n3:e&#45;&gt;x1:w</title>
<path fill="none" stroke="#e7298a" d="M54,-942.36C77.67,-942.36 59.27,-1027.4 72,-1047.36 77.31,-1055.69 81.06,-1061.2 87.7,-1063.74"/>
<polygon fill="#e7298a" stroke="#e7298a" points="87.58,-1067.27 98,-1065.36 88.66,-1060.35 87.58,-1067.27"/>
</g>
<!-- n3&#45;&gt;x1 -->
<g id="edge29" class="edge">
<title>n3:e&#45;&gt;x1:w</title>
<path fill="none" stroke="#e7298a" d="M54,-942.36C80.75,-942.36 67.14,-1035.06 72,-1061.36 76.26,-1084.44 72.33,-1156.98 88.86,-1175.84"/>
<polygon fill="#e7298a" stroke="#e7298a" points="87.48,-1179.06 98,-1180.36 90.59,-1172.79 87.48,-1179.06"/>
</g>
<!-- n3&#45;&gt;x1 -->
<g id="edge30" class="edge">
<title>n3:e&#45;&gt;x1:w</title>
<path fill="none" stroke="#e7298a" d="M54,-942.36C79.86,-942.36 53.37,-1014.19 73,-997.36 97.74,-976.15 69.07,-863.25 88.83,-839.68"/>
<polygon fill="#e7298a" stroke="#e7298a" points="90.44,-842.78 98,-835.36 87.46,-836.45 90.44,-842.78"/>
</g>
<!-- n3&#45;&gt;x1 -->
<g id="edge31" class="edge">
<title>n3:e&#45;&gt;x1:w</title>
<path fill="none" stroke="#e7298a" d="M54,-942.36C58.45,-942.36 86.55,-1228.54 95.71,-1285.55"/>
<polygon fill="#e7298a" stroke="#e7298a" points="92.32,-1286.41 98,-1295.36 99.14,-1284.82 92.32,-1286.41"/>
</g>
<!-- n3&#45;&gt;x1 -->
<g id="edge32" class="edge">
<title>n3:e&#45;&gt;x1:w</title>
<path fill="none" stroke="#e7298a" d="M54,-942.36C85.69,-942.36 46.92,-991.98 72,-1011.36 92.04,-1026.84 75.07,-970.66 88.61,-954.56"/>
<polygon fill="#e7298a" stroke="#e7298a" points="90.3,-957.63 98,-950.36 87.44,-951.24 90.3,-957.63"/>
</g>
<!-- n3&#45;&gt;x2 -->
<g id="edge33" class="edge">
<title>n3:e&#45;&gt;x2:w</title>
<path fill="none" stroke="#e7298a" d="M54,-942.36C80.96,-942.36 58.95,-723.96 72,-700.36 75.01,-694.91 77.45,-690.99 81.13,-688.71"/>
<polygon fill="#e7298a" stroke="#e7298a" points="82.09,-692.08 91,-686.36 80.46,-685.27 82.09,-692.08"/>
</g>
<!-- n3&#45;&gt;x3 -->
<g id="edge34" class="edge">
<title>n3:e&#45;&gt;x3:w</title>
<path fill="none" stroke="#e7298a" d="M54,-942.36C88.29,-942.36 53.99,-354.54 72,-325.36 76.85,-317.51 81.24,-313.77 87.99,-312.25"/>
<polygon fill="#e7298a" stroke="#e7298a" points="88.35,-315.73 98,-311.36 87.73,-308.76 88.35,-315.73"/>
</g>
<!-- n3&#45;&gt;x3 -->
<g id="edge35" class="edge">
<title>n3:e&#45;&gt;x3:w</title>
<path fill="none" stroke="#e7298a" d="M54,-942.36C86.9,-942.36 48.38,-373.27 72,-350.36 94.62,-328.41 69.74,-404.45 88.16,-422.57"/>
<polygon fill="#e7298a" stroke="#e7298a" points="87.41,-426.03 98,-426.36 89.93,-419.5 87.41,-426.03"/>
</g>
<!-- n3&#45;&gt;x3 -->
<g id="edge36" class="edge">
<title>n3:e&#45;&gt;x3:w</title>
<path fill="none" stroke="#e7298a" d="M54,-942.36C72.53,-942.36 70.52,-293.83 72,-275.36 73.52,-256.39 75.64,-122.08 90.71,-88.8"/>
<polygon fill="#e7298a" stroke="#e7298a" points="93.51,-90.95 98,-81.36 88.5,-86.06 93.51,-90.95"/>
</g>
<!-- n3&#45;&gt;x3 -->
<g id="edge37" class="edge">
<title>n3:e&#45;&gt;x3:w</title>
<path fill="none" stroke="#e7298a" d="M54,-942.36C85.52,-942.36 49.36,-397.29 72,-375.36 96.2,-351.91 67.49,-505.94 89.09,-536.25"/>
<polygon fill="#e7298a" stroke="#e7298a" points="87.58,-539.42 98,-541.36 91.07,-533.35 87.58,-539.42"/>
</g>
<!-- n3&#45;&gt;x3 -->
<g id="edge38" class="edge">
<title>n3:e&#45;&gt;x3:w</title>
<path fill="none" stroke="#e7298a" d="M54,-942.36C71.31,-942.36 69.95,-336.55 72,-319.36 74.88,-295.19 71.27,-219.79 88.76,-200.76"/>
<polygon fill="#e7298a" stroke="#e7298a" points="90.48,-203.82 98,-196.36 87.47,-197.5 90.48,-203.82"/>
</g>
<!-- n4 -->
<g id="node4" class="node">
<title>n4</title>
<polygon fill="none" stroke="black" points="54,-811.9 54,-826.81 38.18,-837.36 15.82,-837.36 0,-826.81 0,-811.9 15.82,-801.36 38.18,-801.36 54,-811.9"/>
<text text-anchor="middle" x="27" y="-815.66" font-family="Times New Roman,serif" font-size="14.00">d</text>
</g>
<!-- n4&#45;&gt;x0 -->
<g id="edge39" class="edge">
<title>n4:e&#45;&gt;x0:w</title>
<path fill="none" stroke="#e7298a" d="M54,-819.36C86.13,-819.36 57.54,-1368.67 72,-1397.36 74.95,-1403.21 77.37,-1407.5 81.24,-1409.96"/>
<polygon fill="#e7298a" stroke="#e7298a" points="80.45,-1413.37 91,-1412.36 82.12,-1406.57 80.45,-1413.37"/>
</g>
<!-- n4&#45;&gt;x1 -->
<g id="edge40" class="edge">
<title>n4:e&#45;&gt;x1:w</title>
<path fill="none" stroke="#e7298a" d="M54,-819.36C79.02,-819.36 52.18,-886.24 73,-872.36 93.28,-858.84 76.57,-825.42 88.2,-815.3"/>
<polygon fill="#e7298a" stroke="#e7298a" points="89.43,-818.59 98,-812.36 87.42,-811.89 89.43,-818.59"/>
</g>
<!-- n4&#45;&gt;x1 -->
<g id="edge41" class="edge">
<title>n4:e&#45;&gt;x1:w</title>
<path fill="none" stroke="#e7298a" d="M54,-819.36C77.24,-819.36 67.54,-899.55 72,-922.36 76.54,-945.58 72.24,-1018.77 88.81,-1037.8"/>
<polygon fill="#e7298a" stroke="#e7298a" points="87.49,-1041.05 98,-1042.36 90.6,-1034.78 87.49,-1041.05"/>
</g>
<!-- n4&#45;&gt;x1 -->
<g id="edge42" class="edge">
<title>n4:e&#45;&gt;x1:w</title>
<path fill="none" stroke="#e7298a" d="M54,-819.36C62.51,-819.36 83.6,-1092.19 94.67,-1147.61"/>
<polygon fill="#e7298a" stroke="#e7298a" points="91.45,-1149.03 98,-1157.36 98.08,-1146.76 91.45,-1149.03"/>
</g>
<!-- n4&#45;&gt;x1 -->
<g id="edge43" class="edge">
<title>n4:e&#45;&gt;x1:w</title>
<path fill="none" stroke="#e7298a" d="M54,-819.36C64.11,-819.36 72.01,-990.3 73,-1000.36 75.68,-1027.61 69.17,-1227.15 90.17,-1265.86"/>
<polygon fill="#e7298a" stroke="#e7298a" points="88.07,-1268.67 98,-1272.36 92.54,-1263.28 88.07,-1268.67"/>
</g>
<!-- n4&#45;&gt;x1 -->
<g id="edge44" class="edge">
<title>n4:e&#45;&gt;x1:w</title>
<path fill="none" stroke="#e7298a" d="M54,-819.36C84.83,-819.36 59.6,-858.13 72,-886.36 78.98,-902.26 77.59,-919.12 88.02,-925.1"/>
<polygon fill="#e7298a" stroke="#e7298a" points="87.47,-928.56 98,-927.36 89.02,-921.73 87.47,-928.56"/>
</g>
<!-- n4&#45;&gt;x2 -->
<g id="edge45" class="edge">
<title>n4:e&#45;&gt;x2:w</title>
<path fill="none" stroke="#e7298a" d="M54,-819.36C86.25,-819.36 54.71,-702.58 72,-675.36 75.1,-670.48 77.62,-667.23 81.14,-665.36"/>
<polygon fill="#e7298a" stroke="#e7298a" points="81.9,-668.78 91,-663.36 80.5,-661.92 81.9,-668.78"/>
</g>
<!-- n4&#45;&gt;x3 -->
<g id="edge46" class="edge">
<title>n4:e&#45;&gt;x3:w</title>
<path fill="none" stroke="#e7298a" d="M54,-819.36C72.59,-819.36 69.2,-168.74 72,-150.36 74.67,-132.8 76.2,-80.31 89.04,-63.56"/>
<polygon fill="#e7298a" stroke="#e7298a" points="91.11,-66.4 98,-58.36 87.59,-60.35 91.11,-66.4"/>
</g>
<!-- n4&#45;&gt;x3 -->
<g id="edge47" class="edge">
<title>n4:e&#45;&gt;x3:w</title>
<path fill="none" stroke="#e7298a" d="M54,-819.36C88.4,-819.36 47.32,-224.33 72,-200.36 98.4,-174.72 65.12,-267 88.33,-285.27"/>
<polygon fill="#e7298a" stroke="#e7298a" points="87.41,-288.65 98,-288.36 89.54,-281.98 87.41,-288.65"/>
</g>
<!-- n4&#45;&gt;x3 -->
<g id="edge48" class="edge">
<title>n4:e&#45;&gt;x3:w</title>
<path fill="none" stroke="#e7298a" d="M54,-819.36C87.02,-819.36 48.3,-248.35 72,-225.36 98.11,-200.02 65.12,-368.26 89.11,-398.69"/>
<polygon fill="#e7298a" stroke="#e7298a" points="87.52,-401.81 98,-403.36 90.77,-395.61 87.52,-401.81"/>
</g>
<!-- n4&#45;&gt;x3 -->
<g id="edge49" class="edge">
<title>n4:e&#45;&gt;x3:w</title>
<path fill="none" stroke="#e7298a" d="M54,-819.36C85.63,-819.36 49.29,-272.37 72,-250.36 112.29,-211.32 47.3,-481.03 88.32,-514.89"/>
<polygon fill="#e7298a" stroke="#e7298a" points="87.41,-518.28 98,-518.36 89.77,-511.69 87.41,-518.28"/>
</g>
<!-- n4&#45;&gt;x3 -->
<g id="edge50" class="edge">
<title>n4:e&#45;&gt;x3:w</title>
<path fill="none" stroke="#e7298a" d="M54,-819.36C88.63,-819.36 57.32,-227.72 72,-196.36 76.8,-186.1 80.25,-178.5 87.86,-175.19"/>
<polygon fill="#e7298a" stroke="#e7298a" points="88.78,-178.58 98,-173.36 87.54,-171.69 88.78,-178.58"/>
</g>
<!-- n5 -->
<g id="node5" class="node">
<title>n5</title>
<polygon fill="none" stroke="black" points="54,-690.9 54,-705.81 38.18,-716.36 15.82,-716.36 0,-705.81 0,-690.9 15.82,-680.36 38.18,-680.36 54,-690.9"/>
<text text-anchor="middle" x="27" y="-694.66" font-family="Times New Roman,serif" font-size="14.00">e</text>
</g>
<!-- n5&#45;&gt;x0 -->
<g id="edge51" class="edge">
<title>n5:e&#45;&gt;x0:w</title>
<path fill="none" stroke="#7570b3" d="M54,-698.36C71.89,-698.36 71.88,-1296.86 87.29,-1379.85"/>
<polygon fill="#7570b3" stroke="#7570b3" points="84.1,-1381.32 91,-1389.36 90.62,-1378.77 84.1,-1381.32"/>
</g>
<!-- n5&#45;&gt;x1 -->
<g id="edge52" class="edge">
<title>n5:e&#45;&gt;x1:w</title>
<path fill="none" stroke="#7570b3" d="M54,-698.36C94.89,-698.36 60.58,-773.74 87.96,-787.29"/>
<polygon fill="#7570b3" stroke="#7570b3" points="87.5,-790.77 98,-789.36 88.91,-783.91 87.5,-790.77"/>
</g>
<!-- n5&#45;&gt;x1 -->
<g id="edge53" class="edge">
<title>n5:e&#45;&gt;x1:w</title>
<path fill="none" stroke="#7570b3" d="M54,-698.36C70.21,-698.36 78.31,-958.59 92.9,-1010.44"/>
<polygon fill="#7570b3" stroke="#7570b3" points="90,-1012.41 98,-1019.36 96.07,-1008.94 90,-1012.41"/>
</g>
<!-- n5&#45;&gt;x1 -->
<g id="edge54" class="edge">
<title>n5:e&#45;&gt;x1:w</title>
<path fill="none" stroke="#7570b3" d="M54,-698.36C71.02,-698.36 71.2,-833.43 73,-850.36 76.04,-878.9 68.09,-1088.96 90.15,-1128.09"/>
<polygon fill="#7570b3" stroke="#7570b3" points="88,-1130.86 98,-1134.36 92.37,-1125.38 88,-1130.86"/>
</g>
<!-- n5&#45;&gt;x1 -->
<g id="edge55" class="edge">
<title>n5:e&#45;&gt;x1:w</title>
<path fill="none" stroke="#7570b3" d="M54,-698.36C63.89,-698.36 72.14,-865.51 73,-875.36 74.64,-894.16 76.74,-1186.05 92.62,-1240.61"/>
<polygon fill="#7570b3" stroke="#7570b3" points="89.78,-1242.68 98,-1249.36 95.74,-1239.01 89.78,-1242.68"/>
</g>
<!-- n5&#45;&gt;x1 -->
<g id="edge56" class="edge">
<title>n5:e&#45;&gt;x1:w</title>
<path fill="none" stroke="#7570b3" d="M54,-698.36C74.75,-698.36 74.9,-860.33 90.98,-897.03"/>
<polygon fill="#7570b3" stroke="#7570b3" points="88.56,-899.56 98,-904.36 93.61,-894.71 88.56,-899.56"/>
</g>
<!-- n5&#45;&gt;x2 -->
<g id="edge57" class="edge">
<title>n5:e&#45;&gt;x2:w</title>
<path fill="none" stroke="#7570b3" d="M54,-698.36C76.78,-698.36 56.93,-667.45 72,-650.36 75.45,-646.44 77.96,-643.82 81.08,-642.25"/>
<polygon fill="#7570b3" stroke="#7570b3" points="81.83,-645.67 91,-640.36 80.52,-638.79 81.83,-645.67"/>
</g>
<!-- n5&#45;&gt;x3 -->
<g id="edge58" class="edge">
<title>n5:e&#45;&gt;x3:w</title>
<path fill="none" stroke="#7570b3" d="M54,-698.36C91.4,-698.36 45.2,-51.45 72,-25.36 78.24,-19.29 82.44,-26.7 88.68,-31.63"/>
<polygon fill="#7570b3" stroke="#7570b3" points="87.42,-34.89 98,-35.36 90.02,-28.39 87.42,-34.89"/>
</g>
<!-- n5&#45;&gt;x3 -->
<g id="edge59" class="edge">
<title>n5:e&#45;&gt;x3:w</title>
<path fill="none" stroke="#7570b3" d="M54,-698.36C88.63,-698.36 47.16,-99.49 72,-75.36 99.94,-48.21 62.92,-229.44 88.9,-260.79"/>
<polygon fill="#7570b3" stroke="#7570b3" points="87.49,-264 98,-265.36 90.63,-257.74 87.49,-264"/>
</g>
<!-- n5&#45;&gt;x3 -->
<g id="edge60" class="edge">
<title>n5:e&#45;&gt;x3:w</title>
<path fill="none" stroke="#7570b3" d="M54,-698.36C87.24,-698.36 48.15,-123.5 72,-100.36 114.22,-59.39 44.61,-343.71 88.44,-377.16"/>
<polygon fill="#7570b3" stroke="#7570b3" points="87.41,-380.51 98,-380.36 89.62,-373.87 87.41,-380.51"/>
</g>
<!-- n5&#45;&gt;x3 -->
<g id="edge61" class="edge">
<title>n5:e&#45;&gt;x3:w</title>
<path fill="none" stroke="#7570b3" d="M54,-698.36C85.85,-698.36 49.13,-147.52 72,-125.36 99.4,-98.81 63.03,-438.53 90.18,-489.11"/>
<polygon fill="#7570b3" stroke="#7570b3" points="88,-491.85 98,-495.36 92.37,-486.38 88,-491.85"/>
</g>
<!-- n5&#45;&gt;x3 -->
<g id="edge62" class="edge">
<title>n5:e&#45;&gt;x3:w</title>
<path fill="none" stroke="#7570b3" d="M54,-698.36C88.85,-698.36 47.01,-95.64 72,-71.36 95.61,-48.42 68.47,-129 88.36,-146.91"/>
<polygon fill="#7570b3" stroke="#7570b3" points="87.41,-150.28 98,-150.36 89.77,-143.69 87.41,-150.28"/>
</g>
<!-- n6 -->
<g id="node6" class="node">
<title>n6</title>
<polygon fill="none" stroke="black" points="497.84,-1244.9 497.84,-1259.81 482.03,-1270.36 459.66,-1270.36 443.84,-1259.81 443.84,-1244.9 459.66,-1234.36 482.03,-1234.36 497.84,-1244.9"/>
<text text-anchor="middle" x="470.84" y="-1248.66" font-family="Times New Roman,serif" font-size="14.00">out</text>
</g>
<!-- n7 -->
<g id="node7" class="node">
<title>n7</title>
<polygon fill="none" stroke="black" points="313.42,-704.36 250.92,-686.36 313.42,-668.36 375.93,-686.36 313.42,-704.36"/>
<text text-anchor="middle" x="313.42" y="-682.66" font-family="Times New Roman,serif" font-size="14.00">signals_a</text>
</g>
<!-- n8 -->
<g id="node8" class="node">
<title>n8</title>
<polygon fill="none" stroke="black" points="313.42,-329.36 250.08,-311.36 313.42,-293.36 376.77,-311.36 313.42,-329.36"/>
<text text-anchor="middle" x="313.42" y="-307.66" font-family="Times New Roman,serif" font-size="14.00">signals_b</text>
</g>
<!-- c12 -->
<g id="node9" class="node">
<title>c12</title>
<polygon fill="none" stroke="black" points="262.92,-1229.36 262.92,-1275.36 363.92,-1275.36 363.92,-1229.36 262.92,-1229.36"/>
<text text-anchor="middle" x="275.92" y="-1260.16" font-family="Times New Roman,serif" font-size="14.00">A</text>
<polyline fill="none" stroke="black" points="262.92,-1252.36 288.92,-1252.36 "/>
<text text-anchor="middle" x="275.92" y="-1237.16" font-family="Times New Roman,serif" font-size="14.00">B</text>
<polyline fill="none" stroke="black" points="288.92,-1229.36 288.92,-1275.36 "/>
<text text-anchor="middle" x="313.42" y="-1256.16" font-family="Times New Roman,serif" font-size="14.00">$1</text>
<text text-anchor="middle" x="313.42" y="-1241.16" font-family="Times New Roman,serif" font-size="14.00">$xnor</text>
<polyline fill="none" stroke="black" points="337.92,-1229.36 337.92,-1275.36 "/>
<text text-anchor="middle" x="350.92" y="-1248.66" font-family="Times New Roman,serif" font-size="14.00">Y</text>
</g>
<!-- c12&#45;&gt;n6 -->
<g id="edge63" class="edge">
<title>c12:e&#45;&gt;n6:w</title>
<path fill="none" stroke="#d95f02" stroke-width="3" d="M365.42,-1252.36C396.6,-1252.36 406.86,-1252.36 433.63,-1252.36"/>
<polygon fill="#d95f02" stroke="#d95f02" stroke-width="3" points="433.84,-1255.86 443.84,-1252.36 433.84,-1248.86 433.84,-1255.86"/>
<text text-anchor="middle" x="410.34" y="-1256.16" font-family="Times New Roman,serif" font-size="14.00" fill="#d95f02">&lt;25&gt;</text>
</g>
<!-- x0&#45;&gt;c12 -->
<g id="edge1" class="edge">
<title>x0:e&#45;&gt;c12:w</title>
<path fill="none" stroke="#66a61e" stroke-width="3" d="M195.23,-1433.88C253.89,-1418.11 190.44,-1281.23 249.42,-1265.78"/>
<polygon fill="none" stroke="#66a61e" stroke-width="3" points="194.91,-1433.92 189.44,-1438.61 183,-1435.36 188.48,-1430.67 194.91,-1433.92"/>
<polygon fill="none" stroke="#66a61e" stroke-width="3" points="249.5,-1265.77 254.99,-1261.09 261.42,-1264.36 255.93,-1269.03 249.5,-1265.77"/>
<text text-anchor="middle" x="216.5" y="-1434.16" font-family="Times New Roman,serif" font-size="14.00" fill="#66a61e">&lt;25&gt;</text>
</g>
<!-- x1&#45;&gt;c12 -->
<g id="edge2" class="edge">
<title>x1:e&#45;&gt;c12:w</title>
<path fill="none" stroke="#1b9e77" stroke-width="3" d="M188.29,-1066.77C250.2,-1082.42 187.15,-1223.6 249.33,-1239"/>
<polygon fill="none" stroke="#1b9e77" stroke-width="3" points="187.92,-1066.72 181.51,-1070.02 176,-1065.36 182.42,-1062.07 187.92,-1066.72"/>
<polygon fill="none" stroke="#1b9e77" stroke-width="3" points="249.5,-1239.02 255.91,-1235.71 261.42,-1240.36 255.01,-1243.66 249.5,-1239.02"/>
<text text-anchor="middle" x="216.5" y="-1231.16" font-family="Times New Roman,serif" font-size="14.00" fill="#1b9e77">&lt;25&gt;</text>
</g>
<!-- x2&#45;&gt;n7 -->
<g id="edge64" class="edge">
<title>x2:e&#45;&gt;n7:w</title>
<path fill="none" stroke="#1b9e77" stroke-width="3" d="M183,-686.36C209.06,-686.36 218.01,-686.36 239.79,-686.36"/>
<polygon fill="#1b9e77" stroke="#1b9e77" stroke-width="3" points="240,-689.86 250,-686.36 240,-682.86 240,-689.86"/>
<text text-anchor="middle" x="216.5" y="-690.16" font-family="Times New Roman,serif" font-size="14.00" fill="#1b9e77">&lt;25&gt;</text>
</g>
<!-- x3&#45;&gt;n8 -->
<g id="edge65" class="edge">
<title>x3:e&#45;&gt;n8:w</title>
<path fill="none" stroke="#1b9e77" stroke-width="3" d="M176,-311.36C205.16,-311.36 214.93,-311.36 239.7,-311.36"/>
<polygon fill="#1b9e77" stroke="#1b9e77" stroke-width="3" points="240,-314.86 250,-311.36 240,-307.86 240,-314.86"/>
<text text-anchor="middle" x="216.5" y="-315.16" font-family="Times New Roman,serif" font-size="14.00" fill="#1b9e77">&lt;25&gt;</text>
</g>
</g>
</svg>
