<svg xmlns="http://www.w3.org/2000/svg" xmlns:xlink="http://www.w3.org/1999/xlink" xmlns:s="https://github.com/nturley/netlistsvg" width="1081" height="1498">
  <style>svg {
    stroke:#000;
    fill:none;
  }
  text {
    fill:#000;
    stroke:none;
    font-size:10px;
    font-weight: bold;
    font-family: "Courier New", monospace;
  }
  .nodelabel {
    text-anchor: middle;
  }
  .inputPortLabel {
    text-anchor: end;
  }
  .splitjoinBody {
    fill:#000;
  }</style>
  <g s:type="generic" transform="translate(684,748.5)" s:width="30" s:height="40" id="cell_$auto$opt_reduce.cc:128:opt_mux$26">
    <text x="15" y="-4" class="nodelabel cell_$auto$opt_reduce.cc:128:opt_mux$26" s:attribute="ref">$reduce_or</text>
    <rect width="30" height="20" s:generic="body" class="cell_$auto$opt_reduce.cc:128:opt_mux$26"/>
    <g transform="translate(0,10)" s:x="0" s:y="10" s:pid="in0" id="port_$auto$opt_reduce.cc:128:opt_mux$26~A">
      <text x="-3" y="-4" class="inputPortLabel cell_$auto$opt_reduce.cc:128:opt_mux$26">A</text>
    </g>
    <g transform="translate(30,10)" s:x="30" s:y="10" s:pid="out0" id="port_$auto$opt_reduce.cc:128:opt_mux$26~Y">
      <text x="5" y="-4" style="fill:#000; stroke:none" class="cell_$auto$opt_reduce.cc:128:opt_mux$26">Y</text>
    </g>
  </g>
  <g s:type="generic" transform="translate(684,852)" s:width="30" s:height="40" id="cell_$auto$opt_reduce.cc:128:opt_mux$28">
    <text x="15" y="-4" class="nodelabel cell_$auto$opt_reduce.cc:128:opt_mux$28" s:attribute="ref">$reduce_or</text>
    <rect width="30" height="20" s:generic="body" class="cell_$auto$opt_reduce.cc:128:opt_mux$28"/>
    <g transform="translate(0,10)" s:x="0" s:y="10" s:pid="in0" id="port_$auto$opt_reduce.cc:128:opt_mux$28~A">
      <text x="-3" y="-4" class="inputPortLabel cell_$auto$opt_reduce.cc:128:opt_mux$28">A</text>
    </g>
    <g transform="translate(30,10)" s:x="30" s:y="10" s:pid="out0" id="port_$auto$opt_reduce.cc:128:opt_mux$28~Y">
      <text x="5" y="-4" style="fill:#000; stroke:none" class="cell_$auto$opt_reduce.cc:128:opt_mux$28">Y</text>
    </g>
  </g>
  <g s:type="generic" transform="translate(684,1238)" s:width="30" s:height="40" id="cell_$auto$opt_reduce.cc:128:opt_mux$30">
    <text x="15" y="-4" class="nodelabel cell_$auto$opt_reduce.cc:128:opt_mux$30" s:attribute="ref">$reduce_or</text>
    <rect width="30" height="20" s:generic="body" class="cell_$auto$opt_reduce.cc:128:opt_mux$30"/>
    <g transform="translate(0,10)" s:x="0" s:y="10" s:pid="in0" id="port_$auto$opt_reduce.cc:128:opt_mux$30~A">
      <text x="-3" y="-4" class="inputPortLabel cell_$auto$opt_reduce.cc:128:opt_mux$30">A</text>
    </g>
    <g transform="translate(30,10)" s:x="30" s:y="10" s:pid="out0" id="port_$auto$opt_reduce.cc:128:opt_mux$30~Y">
      <text x="5" y="-4" style="fill:#000; stroke:none" class="cell_$auto$opt_reduce.cc:128:opt_mux$30">Y</text>
    </g>
  </g>
  <g s:type="generic" transform="translate(684,1428)" s:width="30" s:height="40" id="cell_$auto$opt_reduce.cc:128:opt_mux$32">
    <text x="15" y="-4" class="nodelabel cell_$auto$opt_reduce.cc:128:opt_mux$32" s:attribute="ref">$reduce_or</text>
    <rect width="30" height="20" s:generic="body" class="cell_$auto$opt_reduce.cc:128:opt_mux$32"/>
    <g transform="translate(0,10)" s:x="0" s:y="10" s:pid="in0" id="port_$auto$opt_reduce.cc:128:opt_mux$32~A">
      <text x="-3" y="-4" class="inputPortLabel cell_$auto$opt_reduce.cc:128:opt_mux$32">A</text>
    </g>
    <g transform="translate(30,10)" s:x="30" s:y="10" s:pid="out0" id="port_$auto$opt_reduce.cc:128:opt_mux$32~Y">
      <text x="5" y="-4" style="fill:#000; stroke:none" class="cell_$auto$opt_reduce.cc:128:opt_mux$32">Y</text>
    </g>
  </g>
  <g s:type="generic" transform="translate(179,116.5)" s:width="30" s:height="40" id="cell_$procdff$25">
    <text x="15" y="-4" class="nodelabel cell_$procdff$25" s:attribute="ref">$adff</text>
    <rect width="30" height="60" s:generic="body" class="cell_$procdff$25"/>
    <g transform="translate(0,10)" s:x="0" s:y="10" s:pid="in0" id="port_$procdff$25~ARST">
      <text x="-3" y="-4" class="inputPortLabel cell_$procdff$25">ARST</text>
    </g>
    <g transform="translate(0,30)" s:x="0" s:y="10" s:pid="in0" id="port_$procdff$25~CLK">
      <text x="-3" y="-4" class="inputPortLabel cell_$procdff$25">CLK</text>
    </g>
    <g transform="translate(0,50)" s:x="0" s:y="10" s:pid="in0" id="port_$procdff$25~D">
      <text x="-3" y="-4" class="inputPortLabel cell_$procdff$25">D</text>
    </g>
    <g transform="translate(30,10)" s:x="30" s:y="10" s:pid="out0" id="port_$procdff$25~Q">
      <text x="5" y="-4" style="fill:#000; stroke:none" class="cell_$procdff$25">Q</text>
    </g>
  </g>
  <g s:type="not" transform="translate(510.5,641.5)" s:width="30" s:height="20" id="cell_$procmux$10_CMP0">
    <s:alias val="$_NOT_"/>
    <s:alias val="$not"/>
    <s:alias val="$logic_not"/>
    <path d="M0,0 L0,20 L20,10 Z" class="cell_$procmux$10_CMP0"/>
    <circle cx="23" cy="10" r="3" class="cell_$procmux$10_CMP0"/>
    <g s:x="0" s:y="10" s:pid="A"/>
    <g s:x="25" s:y="10" s:pid="Y"/>
  </g>
  <g s:type="mux" transform="translate(999,709)" s:width="20" s:height="40" id="cell_$procmux$12">
    <s:alias val="$pmux"/>
    <s:alias val="$mux"/>
    <s:alias val="$_MUX_"/>
    <path d="M0,0 L20,10 L20,30 L0,40 Z" class="cell_$procmux$12"/>
    <g s:x="0" s:y="10" s:pid="A"/>
    <g s:x="0" s:y="30" s:pid="B"/>
    <g s:x="10" s:y="35" s:pid="S"/>
    <g s:x="20" s:y="20" s:pid="Y"/>
  </g>
  <g s:type="eq" transform="translate(504.3333333333333,696.5)" s:width="25" s:height="25" id="cell_$procmux$13_CMP0">
    <s:alias val="$eq"/>
    <circle r="12.5" cx="12.5" cy="12.5" class="cell_$procmux$13_CMP0"/>
    <line x1="7.5" x2="17.5" y1="10" y2="10" class="cell_$procmux$13_CMP0"/>
    <line x1="7.5" x2="17.5" y1="15" y2="15" class="cell_$procmux$13_CMP0"/>
    <g s:x="3" s:y="5" s:pid="A"/>
    <g s:x="3" s:y="20" s:pid="B"/>
    <g s:x="25" s:y="12.5" s:pid="Y"/>
  </g>
  <g s:type="eq" transform="translate(504.3333333333333,802.5)" s:width="25" s:height="25" id="cell_$procmux$14_CMP0">
    <s:alias val="$eq"/>
    <circle r="12.5" cx="12.5" cy="12.5" class="cell_$procmux$14_CMP0"/>
    <line x1="7.5" x2="17.5" y1="10" y2="10" class="cell_$procmux$14_CMP0"/>
    <line x1="7.5" x2="17.5" y1="15" y2="15" class="cell_$procmux$14_CMP0"/>
    <g s:x="3" s:y="5" s:pid="A"/>
    <g s:x="3" s:y="20" s:pid="B"/>
    <g s:x="25" s:y="12.5" s:pid="Y"/>
  </g>
  <g s:type="eq" transform="translate(741.3333333333334,984)" s:width="25" s:height="25" id="cell_$procmux$15_CMP0">
    <s:alias val="$eq"/>
    <circle r="12.5" cx="12.5" cy="12.5" class="cell_$procmux$15_CMP0"/>
    <line x1="7.5" x2="17.5" y1="10" y2="10" class="cell_$procmux$15_CMP0"/>
    <line x1="7.5" x2="17.5" y1="15" y2="15" class="cell_$procmux$15_CMP0"/>
    <g s:x="3" s:y="5" s:pid="A"/>
    <g s:x="3" s:y="20" s:pid="B"/>
    <g s:x="25" s:y="12.5" s:pid="Y"/>
  </g>
  <g s:type="eq" transform="translate(741.3333333333334,1163)" s:width="25" s:height="25" id="cell_$procmux$16_CMP0">
    <s:alias val="$eq"/>
    <circle r="12.5" cx="12.5" cy="12.5" class="cell_$procmux$16_CMP0"/>
    <line x1="7.5" x2="17.5" y1="10" y2="10" class="cell_$procmux$16_CMP0"/>
    <line x1="7.5" x2="17.5" y1="15" y2="15" class="cell_$procmux$16_CMP0"/>
    <g s:x="3" s:y="5" s:pid="A"/>
    <g s:x="3" s:y="20" s:pid="B"/>
    <g s:x="25" s:y="12.5" s:pid="Y"/>
  </g>
  <g s:type="eq" transform="translate(504.3333333333333,1041)" s:width="25" s:height="25" id="cell_$procmux$17_CMP0">
    <s:alias val="$eq"/>
    <circle r="12.5" cx="12.5" cy="12.5" class="cell_$procmux$17_CMP0"/>
    <line x1="7.5" x2="17.5" y1="10" y2="10" class="cell_$procmux$17_CMP0"/>
    <line x1="7.5" x2="17.5" y1="15" y2="15" class="cell_$procmux$17_CMP0"/>
    <g s:x="3" s:y="5" s:pid="A"/>
    <g s:x="3" s:y="20" s:pid="B"/>
    <g s:x="25" s:y="12.5" s:pid="Y"/>
  </g>
  <g s:type="eq" transform="translate(504.3333333333333,1326)" s:width="25" s:height="25" id="cell_$procmux$18_CMP0">
    <s:alias val="$eq"/>
    <circle r="12.5" cx="12.5" cy="12.5" class="cell_$procmux$18_CMP0"/>
    <line x1="7.5" x2="17.5" y1="10" y2="10" class="cell_$procmux$18_CMP0"/>
    <line x1="7.5" x2="17.5" y1="15" y2="15" class="cell_$procmux$18_CMP0"/>
    <g s:x="3" s:y="5" s:pid="A"/>
    <g s:x="3" s:y="20" s:pid="B"/>
    <g s:x="25" s:y="12.5" s:pid="Y"/>
  </g>
  <g s:type="eq" transform="translate(504.3333333333333,756.5)" s:width="25" s:height="25" id="cell_$procmux$19_CMP0">
    <s:alias val="$eq"/>
    <circle r="12.5" cx="12.5" cy="12.5" class="cell_$procmux$19_CMP0"/>
    <line x1="7.5" x2="17.5" y1="10" y2="10" class="cell_$procmux$19_CMP0"/>
    <line x1="7.5" x2="17.5" y1="15" y2="15" class="cell_$procmux$19_CMP0"/>
    <g s:x="3" s:y="5" s:pid="A"/>
    <g s:x="3" s:y="20" s:pid="B"/>
    <g s:x="25" s:y="12.5" s:pid="Y"/>
  </g>
  <g s:type="not" transform="translate(510.5,862.5)" s:width="30" s:height="20" id="cell_$procmux$20_CMP0">
    <s:alias val="$_NOT_"/>
    <s:alias val="$not"/>
    <s:alias val="$logic_not"/>
    <path d="M0,0 L0,20 L20,10 Z" class="cell_$procmux$20_CMP0"/>
    <circle cx="23" cy="10" r="3" class="cell_$procmux$20_CMP0"/>
    <g s:x="0" s:y="10" s:pid="A"/>
    <g s:x="25" s:y="10" s:pid="Y"/>
  </g>
  <g s:type="eq" transform="translate(504.3333333333333,1391)" s:width="25" s:height="25" id="cell_$procmux$21_CMP0">
    <s:alias val="$eq"/>
    <circle r="12.5" cx="12.5" cy="12.5" class="cell_$procmux$21_CMP0"/>
    <line x1="7.5" x2="17.5" y1="10" y2="10" class="cell_$procmux$21_CMP0"/>
    <line x1="7.5" x2="17.5" y1="15" y2="15" class="cell_$procmux$21_CMP0"/>
    <g s:x="3" s:y="5" s:pid="A"/>
    <g s:x="3" s:y="20" s:pid="B"/>
    <g s:x="25" s:y="12.5" s:pid="Y"/>
  </g>
  <g s:type="eq" transform="translate(504.3333333333333,1106)" s:width="25" s:height="25" id="cell_$procmux$22_CMP0">
    <s:alias val="$eq"/>
    <circle r="12.5" cx="12.5" cy="12.5" class="cell_$procmux$22_CMP0"/>
    <line x1="7.5" x2="17.5" y1="10" y2="10" class="cell_$procmux$22_CMP0"/>
    <line x1="7.5" x2="17.5" y1="15" y2="15" class="cell_$procmux$22_CMP0"/>
    <g s:x="3" s:y="5" s:pid="A"/>
    <g s:x="3" s:y="20" s:pid="B"/>
    <g s:x="25" s:y="12.5" s:pid="Y"/>
  </g>
  <g s:type="eq" transform="translate(504.3333333333333,1456)" s:width="25" s:height="25" id="cell_$procmux$23_CMP0">
    <s:alias val="$eq"/>
    <circle r="12.5" cx="12.5" cy="12.5" class="cell_$procmux$23_CMP0"/>
    <line x1="7.5" x2="17.5" y1="10" y2="10" class="cell_$procmux$23_CMP0"/>
    <line x1="7.5" x2="17.5" y1="15" y2="15" class="cell_$procmux$23_CMP0"/>
    <g s:x="3" s:y="5" s:pid="A"/>
    <g s:x="3" s:y="20" s:pid="B"/>
    <g s:x="25" s:y="12.5" s:pid="Y"/>
  </g>
  <g s:type="eq" transform="translate(504.3333333333333,1266)" s:width="25" s:height="25" id="cell_$procmux$24_CMP0">
    <s:alias val="$eq"/>
    <circle r="12.5" cx="12.5" cy="12.5" class="cell_$procmux$24_CMP0"/>
    <line x1="7.5" x2="17.5" y1="10" y2="10" class="cell_$procmux$24_CMP0"/>
    <line x1="7.5" x2="17.5" y1="15" y2="15" class="cell_$procmux$24_CMP0"/>
    <g s:x="3" s:y="5" s:pid="A"/>
    <g s:x="3" s:y="20" s:pid="B"/>
    <g s:x="25" s:y="12.5" s:pid="Y"/>
  </g>
  <g s:type="mux" transform="translate(743,244)" s:width="20" s:height="40" id="cell_$procmux$6">
    <s:alias val="$pmux"/>
    <s:alias val="$mux"/>
    <s:alias val="$_MUX_"/>
    <path d="M0,0 L20,10 L20,30 L0,40 Z" class="cell_$procmux$6"/>
    <g s:x="0" s:y="10" s:pid="A"/>
    <g s:x="0" s:y="30" s:pid="B"/>
    <g s:x="10" s:y="35" s:pid="S"/>
    <g s:x="20" s:y="20" s:pid="Y"/>
  </g>
  <g s:type="generic" transform="translate(487,396.5)" s:width="30" s:height="40" id="cell_$procmux$7_ANY">
    <text x="15" y="-4" class="nodelabel cell_$procmux$7_ANY" s:attribute="ref">$reduce_or</text>
    <rect width="30" height="20" s:generic="body" class="cell_$procmux$7_ANY"/>
    <g transform="translate(0,10)" s:x="0" s:y="10" s:pid="in0" id="port_$procmux$7_ANY~A">
      <text x="-3" y="-4" class="inputPortLabel cell_$procmux$7_ANY">A</text>
    </g>
    <g transform="translate(30,10)" s:x="30" s:y="10" s:pid="out0" id="port_$procmux$7_ANY~Y">
      <text x="5" y="-4" style="fill:#000; stroke:none" class="cell_$procmux$7_ANY">Y</text>
    </g>
  </g>
  <g s:type="eq" transform="translate(326.6666666666667,344.5)" s:width="25" s:height="25" id="cell_$procmux$7_CMP0">
    <s:alias val="$eq"/>
    <circle r="12.5" cx="12.5" cy="12.5" class="cell_$procmux$7_CMP0"/>
    <line x1="7.5" x2="17.5" y1="10" y2="10" class="cell_$procmux$7_CMP0"/>
    <line x1="7.5" x2="17.5" y1="15" y2="15" class="cell_$procmux$7_CMP0"/>
    <g s:x="3" s:y="5" s:pid="A"/>
    <g s:x="3" s:y="20" s:pid="B"/>
    <g s:x="25" s:y="12.5" s:pid="Y"/>
  </g>
  <g s:type="eq" transform="translate(326.6666666666667,404.5)" s:width="25" s:height="25" id="cell_$procmux$7_CMP1">
    <s:alias val="$eq"/>
    <circle r="12.5" cx="12.5" cy="12.5" class="cell_$procmux$7_CMP1"/>
    <line x1="7.5" x2="17.5" y1="10" y2="10" class="cell_$procmux$7_CMP1"/>
    <line x1="7.5" x2="17.5" y1="15" y2="15" class="cell_$procmux$7_CMP1"/>
    <g s:x="3" s:y="5" s:pid="A"/>
    <g s:x="3" s:y="20" s:pid="B"/>
    <g s:x="25" s:y="12.5" s:pid="Y"/>
  </g>
  <g s:type="generic" transform="translate(487,516.5)" s:width="30" s:height="40" id="cell_$procmux$8_ANY">
    <text x="15" y="-4" class="nodelabel cell_$procmux$8_ANY" s:attribute="ref">$reduce_or</text>
    <rect width="30" height="20" s:generic="body" class="cell_$procmux$8_ANY"/>
    <g transform="translate(0,10)" s:x="0" s:y="10" s:pid="in0" id="port_$procmux$8_ANY~A">
      <text x="-3" y="-4" class="inputPortLabel cell_$procmux$8_ANY">A</text>
    </g>
    <g transform="translate(30,10)" s:x="30" s:y="10" s:pid="out0" id="port_$procmux$8_ANY~Y">
      <text x="5" y="-4" style="fill:#000; stroke:none" class="cell_$procmux$8_ANY">Y</text>
    </g>
  </g>
  <g s:type="eq" transform="translate(326.6666666666667,464.5)" s:width="25" s:height="25" id="cell_$procmux$8_CMP0">
    <s:alias val="$eq"/>
    <circle r="12.5" cx="12.5" cy="12.5" class="cell_$procmux$8_CMP0"/>
    <line x1="7.5" x2="17.5" y1="10" y2="10" class="cell_$procmux$8_CMP0"/>
    <line x1="7.5" x2="17.5" y1="15" y2="15" class="cell_$procmux$8_CMP0"/>
    <g s:x="3" s:y="5" s:pid="A"/>
    <g s:x="3" s:y="20" s:pid="B"/>
    <g s:x="25" s:y="12.5" s:pid="Y"/>
  </g>
  <g s:type="eq" transform="translate(326.6666666666667,524.5)" s:width="25" s:height="25" id="cell_$procmux$8_CMP1">
    <s:alias val="$eq"/>
    <circle r="12.5" cx="12.5" cy="12.5" class="cell_$procmux$8_CMP1"/>
    <line x1="7.5" x2="17.5" y1="10" y2="10" class="cell_$procmux$8_CMP1"/>
    <line x1="7.5" x2="17.5" y1="15" y2="15" class="cell_$procmux$8_CMP1"/>
    <g s:x="3" s:y="5" s:pid="A"/>
    <g s:x="3" s:y="20" s:pid="B"/>
    <g s:x="25" s:y="12.5" s:pid="Y"/>
  </g>
  <g s:type="eq" transform="translate(504.3333333333333,581.5)" s:width="25" s:height="25" id="cell_$procmux$9_CMP0">
    <s:alias val="$eq"/>
    <circle r="12.5" cx="12.5" cy="12.5" class="cell_$procmux$9_CMP0"/>
    <line x1="7.5" x2="17.5" y1="10" y2="10" class="cell_$procmux$9_CMP0"/>
    <line x1="7.5" x2="17.5" y1="15" y2="15" class="cell_$procmux$9_CMP0"/>
    <g s:x="3" s:y="5" s:pid="A"/>
    <g s:x="3" s:y="20" s:pid="B"/>
    <g s:x="25" s:y="12.5" s:pid="Y"/>
  </g>
  <g s:type="inputExt" transform="translate(83,137)" s:width="30" s:height="20" id="cell_clk">
    <text x="15" y="-4" class="nodelabel cell_clk" s:attribute="ref">clk</text>
    <s:alias val="$_inputExt_"/>
    <path d="M0,0 L0,20 L15,20 L30,10 L15,0 Z" class="cell_clk"/>
    <g s:x="28" s:y="10" s:pid="Y"/>
  </g>
  <g s:type="inputExt" transform="translate(83,72)" s:width="30" s:height="20" id="cell_areset">
    <text x="15" y="-4" class="nodelabel cell_areset" s:attribute="ref">areset</text>
    <s:alias val="$_inputExt_"/>
    <path d="M0,0 L0,20 L15,20 L30,10 L15,0 Z" class="cell_areset"/>
    <g s:x="28" s:y="10" s:pid="Y"/>
  </g>
  <g s:type="inputExt" transform="translate(315,1211.5)" s:width="30" s:height="20" id="cell_bump_left">
    <text x="15" y="-4" class="nodelabel cell_bump_left" s:attribute="ref">bump_left</text>
    <s:alias val="$_inputExt_"/>
    <path d="M0,0 L0,20 L15,20 L30,10 L15,0 Z" class="cell_bump_left"/>
    <g s:x="28" s:y="10" s:pid="Y"/>
  </g>
  <g s:type="inputExt" transform="translate(315,1146.5)" s:width="30" s:height="20" id="cell_bump_right">
    <text x="15" y="-4" class="nodelabel cell_bump_right" s:attribute="ref">bump_right</text>
    <s:alias val="$_inputExt_"/>
    <path d="M0,0 L0,20 L15,20 L30,10 L15,0 Z" class="cell_bump_right"/>
    <g s:x="28" s:y="10" s:pid="Y"/>
  </g>
  <g s:type="inputExt" transform="translate(12,1009)" s:width="30" s:height="20" id="cell_ground">
    <text x="15" y="-4" class="nodelabel cell_ground" s:attribute="ref">ground</text>
    <s:alias val="$_inputExt_"/>
    <path d="M0,0 L0,20 L15,20 L30,10 L15,0 Z" class="cell_ground"/>
    <g s:x="28" s:y="10" s:pid="Y"/>
  </g>
  <g s:type="inputExt" transform="translate(487,989)" s:width="30" s:height="20" id="cell_dig">
    <text x="15" y="-4" class="nodelabel cell_dig" s:attribute="ref">dig</text>
    <s:alias val="$_inputExt_"/>
    <path d="M0,0 L0,20 L15,20 L30,10 L15,0 Z" class="cell_dig"/>
    <g s:x="28" s:y="10" s:pid="Y"/>
  </g>
  <g s:type="outputExt" transform="translate(999,154)" s:width="30" s:height="20" id="cell_walk_left">
    <text x="15" y="-4" class="nodelabel cell_walk_left" s:attribute="ref">walk_left</text>
    <s:alias val="$_outputExt_"/>
    <path d="M30,0 L30,20 L15,20 L0,10 L15,0 Z" class="cell_walk_left"/>
    <g s:x="0" s:y="10" s:pid="A"/>
  </g>
  <g s:type="outputExt" transform="translate(999,219)" s:width="30" s:height="20" id="cell_walk_right">
    <text x="15" y="-4" class="nodelabel cell_walk_right" s:attribute="ref">walk_right</text>
    <s:alias val="$_outputExt_"/>
    <path d="M30,0 L30,20 L15,20 L0,10 L15,0 Z" class="cell_walk_right"/>
    <g s:x="0" s:y="10" s:pid="A"/>
  </g>
  <g s:type="outputExt" transform="translate(999,284)" s:width="30" s:height="20" id="cell_aaah">
    <text x="15" y="-4" class="nodelabel cell_aaah" s:attribute="ref">aaah</text>
    <s:alias val="$_outputExt_"/>
    <path d="M30,0 L30,20 L15,20 L0,10 L15,0 Z" class="cell_aaah"/>
    <g s:x="0" s:y="10" s:pid="A"/>
  </g>
  <g s:type="outputExt" transform="translate(999,349)" s:width="30" s:height="20" id="cell_digging">
    <text x="15" y="-4" class="nodelabel cell_digging" s:attribute="ref">digging</text>
    <s:alias val="$_outputExt_"/>
    <path d="M30,0 L30,20 L15,20 L0,10 L15,0 Z" class="cell_digging"/>
    <g s:x="0" s:y="10" s:pid="A"/>
  </g>
  <g s:type="constant" transform="translate(928,729)" s:width="30" s:height="20" id="cell_000001100101010011">
    <text x="15" y="-4" class="nodelabel cell_000001100101010011" s:attribute="ref">0x1953</text>
    <s:alias val="$_constant_"/>
    <rect width="30" height="20" class="cell_000001100101010011"/>
    <g s:x="30" s:y="10" s:pid="Y"/>
  </g>
  <g s:type="constant" transform="translate(179,224.5)" s:width="30" s:height="20" id="cell_101">
    <text x="15" y="-4" class="nodelabel cell_101" s:attribute="ref">101</text>
    <s:alias val="$_constant_"/>
    <rect width="30" height="20" class="cell_101"/>
    <g s:x="30" s:y="10" s:pid="Y"/>
  </g>
  <g s:type="constant" transform="translate(179,354.5)" s:width="30" s:height="20" id="cell_100">
    <text x="15" y="-4" class="nodelabel cell_100" s:attribute="ref">100</text>
    <s:alias val="$_constant_"/>
    <rect width="30" height="20" class="cell_100"/>
    <g s:x="30" s:y="10" s:pid="Y"/>
  </g>
  <g s:type="constant" transform="translate(606,927)" s:width="30" s:height="20" id="cell_11001">
    <text x="15" y="-4" class="nodelabel cell_11001" s:attribute="ref">0x19</text>
    <s:alias val="$_constant_"/>
    <rect width="30" height="20" class="cell_11001"/>
    <g s:x="30" s:y="10" s:pid="Y"/>
  </g>
  <g s:type="constant" transform="translate(606,1173)" s:width="30" s:height="20" id="cell_11000">
    <text x="15" y="-4" class="nodelabel cell_11000" s:attribute="ref">0x18</text>
    <s:alias val="$_constant_"/>
    <rect width="30" height="20" class="cell_11000"/>
    <g s:x="30" s:y="10" s:pid="Y"/>
  </g>
  <g s:type="constant" transform="translate(410,1051)" s:width="30" s:height="20" id="cell_1011">
    <text x="15" y="-4" class="nodelabel cell_1011" s:attribute="ref">0xb</text>
    <s:alias val="$_constant_"/>
    <rect width="30" height="20" class="cell_1011"/>
    <g s:x="30" s:y="10" s:pid="Y"/>
  </g>
  <g s:type="constant" transform="translate(410,1336)" s:width="30" s:height="20" id="cell_1010">
    <text x="15" y="-4" class="nodelabel cell_1010" s:attribute="ref">0xa</text>
    <s:alias val="$_constant_"/>
    <rect width="30" height="20" class="cell_1010"/>
    <g s:x="30" s:y="10" s:pid="Y"/>
  </g>
  <g s:type="constant" transform="translate(410,591.5)" s:width="30" s:height="20" id="cell_1">
    <text x="15" y="-4" class="nodelabel cell_1" s:attribute="ref">1</text>
    <s:alias val="$_constant_"/>
    <rect width="30" height="20" class="cell_1"/>
    <g s:x="30" s:y="10" s:pid="Y"/>
  </g>
  <g s:type="constant" transform="translate(410,1401)" s:width="30" s:height="20" id="cell_110001">
    <text x="15" y="-4" class="nodelabel cell_110001" s:attribute="ref">0x31</text>
    <s:alias val="$_constant_"/>
    <rect width="30" height="20" class="cell_110001"/>
    <g s:x="30" s:y="10" s:pid="Y"/>
  </g>
  <g s:type="constant" transform="translate(410,1116)" s:width="30" s:height="20" id="cell_1010000">
    <text x="15" y="-4" class="nodelabel cell_1010000" s:attribute="ref">0x50</text>
    <s:alias val="$_constant_"/>
    <rect width="30" height="20" class="cell_1010000"/>
    <g s:x="30" s:y="10" s:pid="Y"/>
  </g>
  <g s:type="constant" transform="translate(410,1466)" s:width="30" s:height="20" id="cell_1110001">
    <text x="15" y="-4" class="nodelabel cell_1110001" s:attribute="ref">0x71</text>
    <s:alias val="$_constant_"/>
    <rect width="30" height="20" class="cell_1110001"/>
    <g s:x="30" s:y="10" s:pid="Y"/>
  </g>
  <g s:type="constant" transform="translate(410,1276)" s:width="30" s:height="20" id="cell_1110000">
    <text x="15" y="-4" class="nodelabel cell_1110000" s:attribute="ref">0x70</text>
    <s:alias val="$_constant_"/>
    <rect width="30" height="20" class="cell_1110000"/>
    <g s:x="30" s:y="10" s:pid="Y"/>
  </g>
  <g s:type="constant" transform="translate(606,199)" s:width="30" s:height="20" id="cell_0000">
    <text x="15" y="-4" class="nodelabel cell_0000" s:attribute="ref">0x0</text>
    <s:alias val="$_constant_"/>
    <rect width="30" height="20" class="cell_0000"/>
    <g s:x="30" s:y="10" s:pid="Y"/>
  </g>
  <g s:type="constant" transform="translate(606,264)" s:width="30" s:height="20" id="cell_1000010000100001">
    <text x="15" y="-4" class="nodelabel cell_1000010000100001" s:attribute="ref">0x8421</text>
    <s:alias val="$_constant_"/>
    <rect width="30" height="20" class="cell_1000010000100001"/>
    <g s:x="30" s:y="10" s:pid="Y"/>
  </g>
  <g s:type="constant" transform="translate(179,22)" s:width="30" s:height="20" id="cell_10">
    <text x="15" y="-4" class="nodelabel cell_10" s:attribute="ref">10</text>
    <s:alias val="$_constant_"/>
    <rect width="30" height="20" class="cell_10"/>
    <g s:x="30" s:y="10" s:pid="Y"/>
  </g>
  <g s:type="constant" transform="translate(179,289.5)" s:width="30" s:height="20" id="cell_11">
    <text x="15" y="-4" class="nodelabel cell_11" s:attribute="ref">11</text>
    <s:alias val="$_constant_"/>
    <rect width="30" height="20" class="cell_11"/>
    <g s:x="30" s:y="10" s:pid="Y"/>
  </g>
  <g s:type="join" transform="translate(623,738.5)" s:width="4" s:height="40" id="cell_$join$,12,13,">
    <rect width="5" height="40" class="splitjoinBody" s:generic="body"/>
    <s:alias val="$_join_"/>
    <g s:x="5" s:y="20" s:pid="out"/>
    <g transform="translate(0,10)" s:x="0" s:y="10" s:pid="in0">
      <text x="-3" y="-4" class="inputPortLabel">0</text>
    </g>
    <g transform="translate(0,30)" s:x="0" s:y="10" s:pid="in0">
      <text x="-3" y="-4" class="inputPortLabel">1</text>
    </g>
  </g>
  <g s:type="join" transform="translate(623,842)" s:width="4" s:height="40" id="cell_$join$,15,16,">
    <rect width="5" height="40" class="splitjoinBody" s:generic="body"/>
    <s:alias val="$_join_"/>
    <g s:x="5" s:y="20" s:pid="out"/>
    <g transform="translate(0,10)" s:x="0" s:y="10" s:pid="in0">
      <text x="-3" y="-4" class="inputPortLabel">0</text>
    </g>
    <g transform="translate(0,30)" s:x="0" s:y="10" s:pid="in0">
      <text x="-3" y="-4" class="inputPortLabel">1</text>
    </g>
  </g>
  <g s:type="join" transform="translate(623.5,1228)" s:width="4" s:height="40" id="cell_$join$,18,19,20,">
    <rect width="5" height="60" class="splitjoinBody" s:generic="body"/>
    <s:alias val="$_join_"/>
    <g s:x="5" s:y="20" s:pid="out"/>
    <g transform="translate(0,10)" s:x="0" s:y="10" s:pid="in0">
      <text x="-3" y="-4" class="inputPortLabel">0</text>
    </g>
    <g transform="translate(0,30)" s:x="0" s:y="10" s:pid="in0">
      <text x="-3" y="-4" class="inputPortLabel">1</text>
    </g>
    <g transform="translate(0,50)" s:x="0" s:y="10" s:pid="in0">
      <text x="-3" y="-4" class="inputPortLabel">2</text>
    </g>
  </g>
  <g s:type="join" transform="translate(623.5,1418)" s:width="4" s:height="40" id="cell_$join$,22,23,24,">
    <rect width="5" height="60" class="splitjoinBody" s:generic="body"/>
    <s:alias val="$_join_"/>
    <g s:x="5" s:y="20" s:pid="out"/>
    <g transform="translate(0,10)" s:x="0" s:y="10" s:pid="in0">
      <text x="-3" y="-4" class="inputPortLabel">0</text>
    </g>
    <g transform="translate(0,30)" s:x="0" s:y="10" s:pid="in0">
      <text x="-3" y="-4" class="inputPortLabel">1</text>
    </g>
    <g transform="translate(0,50)" s:x="0" s:y="10" s:pid="in0">
      <text x="-3" y="-4" class="inputPortLabel">2</text>
    </g>
  </g>
  <g s:type="join" transform="translate(934.4,1158)" s:width="4" s:height="40" id="cell_$join$,14,17,33,34,21,25,">
    <rect width="5" height="120" class="splitjoinBody" s:generic="body"/>
    <s:alias val="$_join_"/>
    <g s:x="5" s:y="20" s:pid="out"/>
    <g transform="translate(0,10)" s:x="0" s:y="10" s:pid="in0">
      <text x="-3" y="-4" class="inputPortLabel">0</text>
    </g>
    <g transform="translate(0,30)" s:x="0" s:y="10" s:pid="in0">
      <text x="-3" y="-4" class="inputPortLabel">1</text>
    </g>
    <g transform="translate(0,50)" s:x="0" s:y="10" s:pid="in0">
      <text x="-3" y="-4" class="inputPortLabel">2</text>
    </g>
    <g transform="translate(0,70)" s:x="0" s:y="10" s:pid="in0">
      <text x="-3" y="-4" class="inputPortLabel">3</text>
    </g>
    <g transform="translate(0,90)" s:x="0" s:y="10" s:pid="in0">
      <text x="-3" y="-4" class="inputPortLabel">4</text>
    </g>
    <g transform="translate(0,110)" s:x="0" s:y="10" s:pid="in0">
      <text x="-3" y="-4" class="inputPortLabel">5</text>
    </g>
  </g>
  <g s:type="join" transform="translate(102.33333333333333,852)" s:width="4" s:height="40" id="cell_$join$,29,30,31,6,">
    <rect width="5" height="40" class="splitjoinBody" s:generic="body"/>
    <s:alias val="$_join_"/>
    <g s:x="5" s:y="20" s:pid="out"/>
    <g transform="translate(0,10)" s:x="0" s:y="10" s:pid="in0">
      <text x="-3" y="-4" class="inputPortLabel">0:2</text>
    </g>
    <g transform="translate(0,30)" s:x="0" s:y="10" s:pid="in0">
      <text x="-3" y="-4" class="inputPortLabel">3</text>
    </g>
  </g>
  <g s:type="join" transform="translate(625,968.5)" s:width="4" s:height="40" id="cell_$join$,29,30,31,7,6,">
    <rect width="5" height="60" class="splitjoinBody" s:generic="body"/>
    <s:alias val="$_join_"/>
    <g s:x="5" s:y="20" s:pid="out"/>
    <g transform="translate(0,10)" s:x="0" s:y="10" s:pid="in0">
      <text x="-3" y="-4" class="inputPortLabel">0:2</text>
    </g>
    <g transform="translate(0,30)" s:x="0" s:y="10" s:pid="in0">
      <text x="-3" y="-4" class="inputPortLabel">3</text>
    </g>
    <g transform="translate(0,50)" s:x="0" s:y="10" s:pid="in0">
      <text x="-3" y="-4" class="inputPortLabel">4</text>
    </g>
  </g>
  <g s:type="join" transform="translate(429,1171)" s:width="4" s:height="40" id="cell_$join$,29,30,31,7,6,5,4,">
    <rect width="5" height="60" class="splitjoinBody" s:generic="body"/>
    <s:alias val="$_join_"/>
    <g s:x="5" s:y="20" s:pid="out"/>
    <g transform="translate(0,10)" s:x="0" s:y="10" s:pid="in0">
      <text x="-3" y="-4" class="inputPortLabel">0:4</text>
    </g>
    <g transform="translate(0,30)" s:x="0" s:y="10" s:pid="in0">
      <text x="-3" y="-4" class="inputPortLabel">5</text>
    </g>
    <g transform="translate(0,50)" s:x="0" s:y="10" s:pid="in0">
      <text x="-3" y="-4" class="inputPortLabel">6</text>
    </g>
  </g>
  <g s:type="join" transform="translate(623.5,543.5)" s:width="4" s:height="40" id="cell_$join$,35,36,37,32,">
    <rect width="5" height="80" class="splitjoinBody" s:generic="body"/>
    <s:alias val="$_join_"/>
    <g s:x="5" s:y="20" s:pid="out"/>
    <g transform="translate(0,10)" s:x="0" s:y="10" s:pid="in0">
      <text x="-3" y="-4" class="inputPortLabel">0</text>
    </g>
    <g transform="translate(0,30)" s:x="0" s:y="10" s:pid="in0">
      <text x="-3" y="-4" class="inputPortLabel">1</text>
    </g>
    <g transform="translate(0,50)" s:x="0" s:y="10" s:pid="in0">
      <text x="-3" y="-4" class="inputPortLabel">2</text>
    </g>
    <g transform="translate(0,70)" s:x="0" s:y="10" s:pid="in0">
      <text x="-3" y="-4" class="inputPortLabel">3</text>
    </g>
  </g>
  <g s:type="join" transform="translate(425,386.5)" s:width="4" s:height="40" id="cell_$join$,38,39,">
    <rect width="5" height="40" class="splitjoinBody" s:generic="body"/>
    <s:alias val="$_join_"/>
    <g s:x="5" s:y="20" s:pid="out"/>
    <g transform="translate(0,10)" s:x="0" s:y="10" s:pid="in0">
      <text x="-3" y="-4" class="inputPortLabel">0</text>
    </g>
    <g transform="translate(0,30)" s:x="0" s:y="10" s:pid="in0">
      <text x="-3" y="-4" class="inputPortLabel">1</text>
    </g>
  </g>
  <g s:type="join" transform="translate(425,506.5)" s:width="4" s:height="40" id="cell_$join$,40,41,">
    <rect width="5" height="40" class="splitjoinBody" s:generic="body"/>
    <s:alias val="$_join_"/>
    <g s:x="5" s:y="20" s:pid="out"/>
    <g transform="translate(0,10)" s:x="0" s:y="10" s:pid="in0">
      <text x="-3" y="-4" class="inputPortLabel">0</text>
    </g>
    <g transform="translate(0,30)" s:x="0" s:y="10" s:pid="in0">
      <text x="-3" y="-4" class="inputPortLabel">1</text>
    </g>
  </g>
  <g s:type="split" transform="translate(948.6,243.5)" s:width="5" s:height="40" id="cell_$split$,11,10,9,8,">
    <rect width="5" height="80" class="splitjoinBody" s:generic="body"/>
    <s:alias val="$_split_"/>
    <g s:x="0" s:y="20" s:pid="in"/>
    <g transform="translate(4,10)" s:x="4" s:y="10" s:pid="out0">
      <text x="5" y="-4">3</text>
    </g>
    <g transform="translate(4,30)" s:x="4" s:y="10" s:pid="out0">
      <text x="5" y="-4">2</text>
    </g>
    <g transform="translate(4,50)" s:x="4" s:y="10" s:pid="out0">
      <text x="5" y="-4">1</text>
    </g>
    <g transform="translate(4,70)" s:x="4" s:y="10" s:pid="out0">
      <text x="5" y="-4">0</text>
    </g>
  </g>
  <line x1="629" x2="684" y1="759" y2="759" class="net_12,13"/>
  <line x1="629" x2="684" y1="862.5" y2="862.5" class="net_15,16"/>
  <line x1="629.5" x2="684" y1="1248.5" y2="1248.5" class="net_18,19,20"/>
  <line x1="629.5" x2="684" y1="1438.5" y2="1438.5" class="net_22,23,24"/>
  <line x1="111" x2="129" y1="82" y2="82" class="net_3"/>
  <line x1="129" x2="129" y1="82" y2="127" class="net_3"/>
  <line x1="129" x2="179" y1="127" y2="127" class="net_3"/>
  <line x1="111" x2="179" y1="147" y2="147" class="net_2"/>
  <line x1="1019" x2="1069" y1="729" y2="729" class="net_26,27,28"/>
  <line x1="1069" x2="1069" y1="729" y2="791.5" class="net_26,27,28"/>
  <line x1="1069" x2="129" y1="791.5" y2="791.5" class="net_26,27,28"/>
  <line x1="129" x2="129" y1="791.5" y2="167" class="net_26,27,28"/>
  <line x1="129" x2="179" y1="167" y2="167" class="net_26,27,28"/>
  <line x1="210" x2="295" y1="127" y2="127" class="net_29,30,31"/>
  <line x1="295" x2="295" y1="127" y2="559.5" class="net_29,30,31"/>
  <line x1="295" x2="470" y1="559.5" y2="559.5" class="net_29,30,31"/>
  <line x1="470" x2="470" y1="559.5" y2="651.5" class="net_29,30,31"/>
  <circle cx="295" cy="559.5" r="2" style="fill:#000" class="net_29,30,31"/>
  <line x1="470" x2="510.5" y1="651.5" y2="651.5" class="net_29,30,31"/>
  <line x1="210" x2="295" y1="127" y2="127" class="net_29,30,31"/>
  <line x1="295" x2="295" y1="127" y2="333.5" class="net_29,30,31"/>
  <line x1="295" x2="974" y1="333.5" y2="333.5" class="net_29,30,31"/>
  <line x1="974" x2="974" y1="333.5" y2="719" class="net_29,30,31"/>
  <circle cx="295" cy="333.5" r="2" style="fill:#000" class="net_29,30,31"/>
  <line x1="974" x2="999" y1="719" y2="719" class="net_29,30,31"/>
  <line x1="210" x2="295" y1="127" y2="127" class="net_29,30,31"/>
  <line x1="295" x2="295" y1="127" y2="349.5" class="net_29,30,31"/>
  <circle cx="295" cy="349.5" r="2" style="fill:#000" class="net_29,30,31"/>
  <line x1="295" x2="329.6666666666667" y1="349.5" y2="349.5" class="net_29,30,31"/>
  <line x1="210" x2="295" y1="127" y2="127" class="net_29,30,31"/>
  <line x1="295" x2="295" y1="127" y2="409.5" class="net_29,30,31"/>
  <circle cx="295" cy="409.5" r="2" style="fill:#000" class="net_29,30,31"/>
  <line x1="295" x2="329.6666666666667" y1="409.5" y2="409.5" class="net_29,30,31"/>
  <line x1="210" x2="295" y1="127" y2="127" class="net_29,30,31"/>
  <line x1="295" x2="295" y1="127" y2="469.5" class="net_29,30,31"/>
  <circle cx="295" cy="469.5" r="2" style="fill:#000" class="net_29,30,31"/>
  <line x1="295" x2="329.6666666666667" y1="469.5" y2="469.5" class="net_29,30,31"/>
  <line x1="210" x2="295" y1="127" y2="127" class="net_29,30,31"/>
  <line x1="295" x2="295" y1="127" y2="529.5" class="net_29,30,31"/>
  <circle cx="295" cy="529.5" r="2" style="fill:#000" class="net_29,30,31"/>
  <line x1="295" x2="329.6666666666667" y1="529.5" y2="529.5" class="net_29,30,31"/>
  <line x1="210" x2="295" y1="127" y2="127" class="net_29,30,31"/>
  <line x1="295" x2="295" y1="127" y2="559.5" class="net_29,30,31"/>
  <line x1="295" x2="470" y1="559.5" y2="559.5" class="net_29,30,31"/>
  <line x1="470" x2="470" y1="559.5" y2="586.5" class="net_29,30,31"/>
  <circle cx="470" cy="586.5" r="2" style="fill:#000" class="net_29,30,31"/>
  <line x1="470" x2="507.3333333333333" y1="586.5" y2="586.5" class="net_29,30,31"/>
  <line x1="210" x2="295" y1="127" y2="127" class="net_29,30,31"/>
  <line x1="295" x2="295" y1="127" y2="52" class="net_29,30,31"/>
  <line x1="295" x2="58" y1="52" y2="52" class="net_29,30,31"/>
  <line x1="58" x2="58" y1="52" y2="862.5" class="net_29,30,31"/>
  <circle cx="295" cy="127" r="2" style="fill:#000" class="net_29,30,31"/>
  <line x1="58" x2="102.33333333333333" y1="862.5" y2="862.5" class="net_29,30,31"/>
  <line x1="210" x2="295" y1="127" y2="127" class="net_29,30,31"/>
  <line x1="295" x2="295" y1="127" y2="968" class="net_29,30,31"/>
  <line x1="295" x2="581" y1="968" y2="968" class="net_29,30,31"/>
  <line x1="581" x2="581" y1="968" y2="979" class="net_29,30,31"/>
  <line x1="581" x2="625" y1="979" y2="979" class="net_29,30,31"/>
  <line x1="958" x2="999" y1="739" y2="739" class="net_42,43,44,45,46,47,48,49,50,51,52,53,54,55,56,57,58,59"/>
  <line x1="940.4" x2="1009" y1="1178.5" y2="1178.5" class="net_14,17,33,34,21,25"/>
  <line x1="1009" x2="1009" y1="1178.5" y2="744" class="net_14,17,33,34,21,25"/>
  <line x1="108.33333333333333" x2="139" y1="872.5" y2="872.5" class="net_29,30,31,6"/>
  <line x1="139" x2="139" y1="872.5" y2="761.5" class="net_29,30,31,6"/>
  <line x1="139" x2="305" y1="761.5" y2="761.5" class="net_29,30,31,6"/>
  <line x1="305" x2="305" y1="761.5" y2="570.5" class="net_29,30,31,6"/>
  <line x1="305" x2="460" y1="570.5" y2="570.5" class="net_29,30,31,6"/>
  <line x1="460" x2="460" y1="570.5" y2="701.5" class="net_29,30,31,6"/>
  <circle cx="139" cy="872.5" r="2" style="fill:#000" class="net_29,30,31,6"/>
  <circle cx="305" cy="761.5" r="2" style="fill:#000" class="net_29,30,31,6"/>
  <line x1="460" x2="507.3333333333333" y1="701.5" y2="701.5" class="net_29,30,31,6"/>
  <line x1="108.33333333333333" x2="305" y1="872.5" y2="872.5" class="net_29,30,31,6"/>
  <line x1="305" x2="305" y1="872.5" y2="807.5" class="net_29,30,31,6"/>
  <circle cx="305" cy="872.5" r="2" style="fill:#000" class="net_29,30,31,6"/>
  <line x1="305" x2="507.3333333333333" y1="807.5" y2="807.5" class="net_29,30,31,6"/>
  <line x1="108.33333333333333" x2="139" y1="872.5" y2="872.5" class="net_29,30,31,6"/>
  <line x1="139" x2="139" y1="872.5" y2="1315" class="net_29,30,31,6"/>
  <line x1="139" x2="255" y1="1315" y2="1315" class="net_29,30,31,6"/>
  <line x1="255" x2="255" y1="1315" y2="1030" class="net_29,30,31,6"/>
  <line x1="255" x2="450" y1="1030" y2="1030" class="net_29,30,31,6"/>
  <line x1="450" x2="450" y1="1030" y2="1046" class="net_29,30,31,6"/>
  <circle cx="255" cy="1315" r="2" style="fill:#000" class="net_29,30,31,6"/>
  <line x1="450" x2="507.3333333333333" y1="1046" y2="1046" class="net_29,30,31,6"/>
  <line x1="108.33333333333333" x2="139" y1="872.5" y2="872.5" class="net_29,30,31,6"/>
  <line x1="139" x2="139" y1="872.5" y2="1315" class="net_29,30,31,6"/>
  <line x1="139" x2="450" y1="1315" y2="1315" class="net_29,30,31,6"/>
  <line x1="450" x2="450" y1="1315" y2="1331" class="net_29,30,31,6"/>
  <line x1="450" x2="507.3333333333333" y1="1331" y2="1331" class="net_29,30,31,6"/>
  <line x1="108.33333333333333" x2="139" y1="872.5" y2="872.5" class="net_29,30,31,6"/>
  <line x1="139" x2="139" y1="872.5" y2="761.5" class="net_29,30,31,6"/>
  <line x1="139" x2="507.3333333333333" y1="761.5" y2="761.5" class="net_29,30,31,6"/>
  <line x1="108.33333333333333" x2="510.5" y1="872.5" y2="872.5" class="net_29,30,31,6"/>
  <line x1="209" x2="275" y1="234.5" y2="234.5" class="net_60,61,62"/>
  <line x1="275" x2="275" y1="234.5" y2="716.5" class="net_60,61,62"/>
  <line x1="275" x2="507.3333333333333" y1="716.5" y2="716.5" class="net_60,61,62"/>
  <line x1="209" x2="275" y1="234.5" y2="234.5" class="net_60,61,62"/>
  <line x1="275" x2="275" y1="234.5" y2="424.5" class="net_60,61,62"/>
  <circle cx="275" cy="424.5" r="2" style="fill:#000" class="net_60,61,62"/>
  <line x1="275" x2="329.6666666666667" y1="424.5" y2="424.5" class="net_60,61,62"/>
  <line x1="209" x2="255" y1="364.5" y2="364.5" class="net_63,64,65"/>
  <line x1="255" x2="255" y1="364.5" y2="822.5" class="net_63,64,65"/>
  <circle cx="255" cy="364.5" r="2" style="fill:#000" class="net_63,64,65"/>
  <line x1="255" x2="507.3333333333333" y1="822.5" y2="822.5" class="net_63,64,65"/>
  <line x1="209" x2="329.6666666666667" y1="364.5" y2="364.5" class="net_63,64,65"/>
  <line x1="631" x2="744.3333333333334" y1="989" y2="989" class="net_29,30,31,7,6"/>
  <line x1="631" x2="652" y1="989" y2="989" class="net_29,30,31,7,6"/>
  <line x1="652" x2="652" y1="989" y2="1168" class="net_29,30,31,7,6"/>
  <line x1="652" x2="744.3333333333334" y1="1168" y2="1168" class="net_29,30,31,7,6"/>
  <line x1="631" x2="652" y1="989" y2="989" class="net_29,30,31,7,6"/>
  <line x1="652" x2="652" y1="989" y2="957" class="net_29,30,31,7,6"/>
  <line x1="652" x2="395" y1="957" y2="957" class="net_29,30,31,7,6"/>
  <line x1="395" x2="395" y1="957" y2="1181.5" class="net_29,30,31,7,6"/>
  <circle cx="652" cy="989" r="2" style="fill:#000" class="net_29,30,31,7,6"/>
  <line x1="395" x2="429" y1="1181.5" y2="1181.5" class="net_29,30,31,7,6"/>
  <line x1="636" x2="662" y1="937" y2="937" class="net_66,67,68,69,70"/>
  <line x1="662" x2="662" y1="937" y2="1004" class="net_66,67,68,69,70"/>
  <line x1="662" x2="744.3333333333334" y1="1004" y2="1004" class="net_66,67,68,69,70"/>
  <line x1="636" x2="744.3333333333334" y1="1183" y2="1183" class="net_71,72,73,74,75"/>
  <line x1="440" x2="507.3333333333333" y1="1061" y2="1061" class="net_76,77,78,79"/>
  <line x1="440" x2="507.3333333333333" y1="1346" y2="1346" class="net_80,81,82,83"/>
  <line x1="440" x2="450" y1="601.5" y2="601.5" class="net_84"/>
  <line x1="450" x2="450" y1="601.5" y2="776.5" class="net_84"/>
  <circle cx="450" cy="601.5" r="2" style="fill:#000" class="net_84"/>
  <line x1="450" x2="507.3333333333333" y1="776.5" y2="776.5" class="net_84"/>
  <line x1="440" x2="507.3333333333333" y1="601.5" y2="601.5" class="net_84"/>
  <line x1="435" x2="460" y1="1191.5" y2="1191.5" class="net_29,30,31,7,6,5,4"/>
  <line x1="460" x2="460" y1="1191.5" y2="1396" class="net_29,30,31,7,6,5,4"/>
  <circle cx="460" cy="1191.5" r="2" style="fill:#000" class="net_29,30,31,7,6,5,4"/>
  <circle cx="460" cy="1396" r="2" style="fill:#000" class="net_29,30,31,7,6,5,4"/>
  <line x1="460" x2="507.3333333333333" y1="1396" y2="1396" class="net_29,30,31,7,6,5,4"/>
  <line x1="435" x2="460" y1="1191.5" y2="1191.5" class="net_29,30,31,7,6,5,4"/>
  <line x1="460" x2="460" y1="1191.5" y2="1111" class="net_29,30,31,7,6,5,4"/>
  <line x1="460" x2="507.3333333333333" y1="1111" y2="1111" class="net_29,30,31,7,6,5,4"/>
  <line x1="435" x2="460" y1="1191.5" y2="1191.5" class="net_29,30,31,7,6,5,4"/>
  <line x1="460" x2="460" y1="1191.5" y2="1461" class="net_29,30,31,7,6,5,4"/>
  <line x1="460" x2="507.3333333333333" y1="1461" y2="1461" class="net_29,30,31,7,6,5,4"/>
  <line x1="435" x2="460" y1="1191.5" y2="1191.5" class="net_29,30,31,7,6,5,4"/>
  <line x1="460" x2="460" y1="1191.5" y2="1271" class="net_29,30,31,7,6,5,4"/>
  <circle cx="460" cy="1271" r="2" style="fill:#000" class="net_29,30,31,7,6,5,4"/>
  <line x1="460" x2="507.3333333333333" y1="1271" y2="1271" class="net_29,30,31,7,6,5,4"/>
  <line x1="440" x2="507.3333333333333" y1="1411" y2="1411" class="net_85,86,87,88,89,90"/>
  <line x1="440" x2="507.3333333333333" y1="1126" y2="1126" class="net_91,92,93,94,95,96,97"/>
  <line x1="440" x2="507.3333333333333" y1="1476" y2="1476" class="net_98,99,100,101,102,103,104"/>
  <line x1="440" x2="507.3333333333333" y1="1286" y2="1286" class="net_105,106,107,108,109,110,111"/>
  <line x1="636" x2="652" y1="209" y2="209" class="net_112,113,114,115"/>
  <line x1="652" x2="652" y1="209" y2="254" class="net_112,113,114,115"/>
  <line x1="652" x2="743" y1="254" y2="254" class="net_112,113,114,115"/>
  <line x1="636" x2="743" y1="274" y2="274" class="net_116,117,118,119,120,121,122,123,124,125,126,127,128,129,130,131"/>
  <line x1="629.5" x2="753" y1="564" y2="564" class="net_35,36,37,32"/>
  <line x1="753" x2="753" y1="564" y2="279" class="net_35,36,37,32"/>
  <line x1="431" x2="487" y1="407" y2="407" class="net_38,39"/>
  <line x1="431" x2="487" y1="527" y2="527" class="net_40,41"/>
  <line x1="209" x2="285" y1="32" y2="32" class="net_138,139"/>
  <line x1="285" x2="285" y1="32" y2="484.5" class="net_138,139"/>
  <line x1="285" x2="329.6666666666667" y1="484.5" y2="484.5" class="net_138,139"/>
  <line x1="209" x2="265" y1="299.5" y2="299.5" class="net_140,141"/>
  <line x1="265" x2="265" y1="299.5" y2="544.5" class="net_140,141"/>
  <line x1="265" x2="329.6666666666667" y1="544.5" y2="544.5" class="net_140,141"/>
  <line x1="953.6" x2="974" y1="254" y2="254" class="net_8"/>
  <line x1="974" x2="974" y1="254" y2="164" class="net_8"/>
  <line x1="974" x2="999" y1="164" y2="164" class="net_8"/>
  <line x1="953.6" x2="984" y1="274" y2="274" class="net_9"/>
  <line x1="984" x2="984" y1="274" y2="229" class="net_9"/>
  <line x1="984" x2="999" y1="229" y2="229" class="net_9"/>
  <line x1="953.6" x2="999" y1="294" y2="294" class="net_10"/>
  <line x1="953.6" x2="984" y1="314" y2="314" class="net_11"/>
  <line x1="984" x2="984" y1="314" y2="359" class="net_11"/>
  <line x1="984" x2="999" y1="359" y2="359" class="net_11"/>
  <line x1="529.3333333333333" x2="581" y1="709" y2="709" class="net_12"/>
  <line x1="581" x2="581" y1="709" y2="749" class="net_12"/>
  <line x1="581" x2="623" y1="749" y2="749" class="net_12"/>
  <line x1="529.3333333333333" x2="623" y1="769" y2="769" class="net_13"/>
  <line x1="529.3333333333333" x2="581" y1="815" y2="815" class="net_15"/>
  <line x1="581" x2="581" y1="815" y2="852.5" class="net_15"/>
  <line x1="581" x2="623" y1="852.5" y2="852.5" class="net_15"/>
  <line x1="535.5" x2="623" y1="872.5" y2="872.5" class="net_16"/>
  <line x1="529.3333333333333" x2="591" y1="1053.5" y2="1053.5" class="net_18"/>
  <line x1="591" x2="591" y1="1053.5" y2="1238.5" class="net_18"/>
  <line x1="591" x2="623.5" y1="1238.5" y2="1238.5" class="net_18"/>
  <line x1="529.3333333333333" x2="581" y1="1118.5" y2="1118.5" class="net_19"/>
  <line x1="581" x2="581" y1="1118.5" y2="1258.5" class="net_19"/>
  <line x1="581" x2="623.5" y1="1258.5" y2="1258.5" class="net_19"/>
  <line x1="529.3333333333333" x2="623.5" y1="1278.5" y2="1278.5" class="net_20"/>
  <line x1="529.3333333333333" x2="591" y1="1338.5" y2="1338.5" class="net_22"/>
  <line x1="591" x2="591" y1="1338.5" y2="1428.5" class="net_22"/>
  <line x1="591" x2="623.5" y1="1428.5" y2="1428.5" class="net_22"/>
  <line x1="529.3333333333333" x2="581" y1="1403.5" y2="1403.5" class="net_23"/>
  <line x1="581" x2="581" y1="1403.5" y2="1448.5" class="net_23"/>
  <line x1="581" x2="623.5" y1="1448.5" y2="1448.5" class="net_23"/>
  <line x1="529.3333333333333" x2="623.5" y1="1468.5" y2="1468.5" class="net_24"/>
  <line x1="715" x2="934.9" y1="759" y2="759" class="net_14"/>
  <line x1="934.9" x2="934.9" y1="759" y2="1168" class="net_14"/>
  <line x1="715" x2="918" y1="862.5" y2="862.5" class="net_17"/>
  <line x1="918" x2="918" y1="862.5" y2="1188.5" class="net_17"/>
  <line x1="918" x2="934.4" y1="1188.5" y2="1188.5" class="net_17"/>
  <line x1="766.3333333333334" x2="908" y1="996.5" y2="996.5" class="net_33"/>
  <line x1="908" x2="908" y1="996.5" y2="1208.5" class="net_33"/>
  <line x1="908" x2="934.4" y1="1208.5" y2="1208.5" class="net_33"/>
  <line x1="766.3333333333334" x2="898" y1="1175.5" y2="1175.5" class="net_34"/>
  <line x1="898" x2="898" y1="1175.5" y2="1228.5" class="net_34"/>
  <line x1="898" x2="934.4" y1="1228.5" y2="1228.5" class="net_34"/>
  <line x1="715" x2="934.4" y1="1248.5" y2="1248.5" class="net_21"/>
  <line x1="715" x2="934.9" y1="1438.5" y2="1438.5" class="net_25"/>
  <line x1="934.9" x2="934.9" y1="1438.5" y2="1269" class="net_25"/>
  <line x1="40" x2="58" y1="1019" y2="1019" class="net_6"/>
  <line x1="58" x2="58" y1="1019" y2="882.5" class="net_6"/>
  <circle cx="58" cy="1019" r="2" style="fill:#000" class="net_6"/>
  <line x1="58" x2="102.33333333333333" y1="882.5" y2="882.5" class="net_6"/>
  <line x1="40" x2="625" y1="1019" y2="1019" class="net_6"/>
  <line x1="515" x2="625" y1="999" y2="999" class="net_7"/>
  <line x1="343" x2="385" y1="1156.5" y2="1156.5" class="net_5"/>
  <line x1="385" x2="385" y1="1156.5" y2="1201.5" class="net_5"/>
  <line x1="385" x2="429" y1="1201.5" y2="1201.5" class="net_5"/>
  <line x1="343" x2="429" y1="1221.5" y2="1221.5" class="net_4"/>
  <line x1="518" x2="591" y1="407" y2="407" class="net_35"/>
  <line x1="591" x2="591" y1="407" y2="554" class="net_35"/>
  <line x1="591" x2="623.5" y1="554" y2="554" class="net_35"/>
  <line x1="518" x2="581" y1="527" y2="527" class="net_36"/>
  <line x1="581" x2="581" y1="527" y2="574" class="net_36"/>
  <line x1="581" x2="623.5" y1="574" y2="574" class="net_36"/>
  <line x1="529.3333333333333" x2="623.5" y1="594" y2="594" class="net_37"/>
  <line x1="535.5" x2="624" y1="651.5" y2="651.5" class="net_32"/>
  <line x1="624" x2="624" y1="651.5" y2="614.5" class="net_32"/>
  <line x1="351.6666666666667" x2="385" y1="357" y2="357" class="net_38"/>
  <line x1="385" x2="385" y1="357" y2="397" class="net_38"/>
  <line x1="385" x2="425" y1="397" y2="397" class="net_38"/>
  <line x1="351.6666666666667" x2="425" y1="417" y2="417" class="net_39"/>
  <line x1="351.6666666666667" x2="385" y1="477" y2="477" class="net_40"/>
  <line x1="385" x2="385" y1="477" y2="517" class="net_40"/>
  <line x1="385" x2="425" y1="517" y2="517" class="net_40"/>
  <line x1="351.6666666666667" x2="425" y1="537" y2="537" class="net_41"/>
  <line x1="763" x2="948.6" y1="264" y2="264" class="net_11,10,9,8"/>
</svg>
