<?xml version="1.0" encoding="UTF-8" standalone="no"?>
<!DOCTYPE svg PUBLIC "-//W3C//DTD SVG 1.1//EN"
 "http://www.w3.org/Graphics/SVG/1.1/DTD/svg11.dtd">
<!-- Generated by graphviz version 4.0.0 (20220529.0937)
 -->
<!-- Title: top_module Pages: 1 -->
<svg width="1083pt" height="1240pt"
 viewBox="0.00 0.00 1082.69 1240.00" xmlns="http://www.w3.org/2000/svg" xmlns:xlink="http://www.w3.org/1999/xlink">
<g id="graph0" class="graph" transform="scale(1 1) rotate(0) translate(4 1236)">
<title>top_module</title>
<polygon fill="white" stroke="transparent" points="-4,4 -4,-1236 1078.69,-1236 1078.69,4 -4,4"/>
<text text-anchor="middle" x="537.35" y="-7.8" font-family="Times New Roman,serif" font-size="14.00">top_module</text>
<!-- n10 -->
<g id="node1" class="node">
<title>n10</title>
<polygon fill="none" stroke="black" points="54,-1206.54 54,-1221.46 38.18,-1232 15.82,-1232 0,-1221.46 0,-1206.54 15.82,-1196 38.18,-1196 54,-1206.54"/>
<text text-anchor="middle" x="27" y="-1210.3" font-family="Times New Roman,serif" font-size="14.00">a</text>
</g>
<!-- x3 -->
<g id="node20" class="node">
<title>x3</title>
<path fill="none" stroke="black" d="M189.89,-878.5C189.89,-878.5 260.89,-878.5 260.89,-878.5 266.89,-878.5 272.89,-884.5 272.89,-890.5 272.89,-890.5 272.89,-1073.5 272.89,-1073.5 272.89,-1079.5 266.89,-1085.5 260.89,-1085.5 260.89,-1085.5 189.89,-1085.5 189.89,-1085.5 183.89,-1085.5 177.89,-1079.5 177.89,-1073.5 177.89,-1073.5 177.89,-890.5 177.89,-890.5 177.89,-884.5 183.89,-878.5 189.89,-878.5"/>
<text text-anchor="middle" x="225.39" y="-1070.3" font-family="Times New Roman,serif" font-size="14.00">15:0 &#45; 143:128</text>
<polyline fill="none" stroke="black" points="177.89,-1062.5 272.89,-1062.5 "/>
<text text-anchor="middle" x="225.39" y="-1047.3" font-family="Times New Roman,serif" font-size="14.00">15:0 &#45; 127:112</text>
<polyline fill="none" stroke="black" points="177.89,-1039.5 272.89,-1039.5 "/>
<text text-anchor="middle" x="225.39" y="-1024.3" font-family="Times New Roman,serif" font-size="14.00">15:0 &#45; 111:96</text>
<polyline fill="none" stroke="black" points="177.89,-1016.5 272.89,-1016.5 "/>
<text text-anchor="middle" x="225.39" y="-1001.3" font-family="Times New Roman,serif" font-size="14.00">15:0 &#45; 95:80</text>
<polyline fill="none" stroke="black" points="177.89,-993.5 272.89,-993.5 "/>
<text text-anchor="middle" x="225.39" y="-978.3" font-family="Times New Roman,serif" font-size="14.00">15:0 &#45; 79:64</text>
<polyline fill="none" stroke="black" points="177.89,-970.5 272.89,-970.5 "/>
<text text-anchor="middle" x="225.39" y="-955.3" font-family="Times New Roman,serif" font-size="14.00">15:0 &#45; 63:48</text>
<polyline fill="none" stroke="black" points="177.89,-947.5 272.89,-947.5 "/>
<text text-anchor="middle" x="225.39" y="-932.3" font-family="Times New Roman,serif" font-size="14.00">15:0 &#45; 47:32</text>
<polyline fill="none" stroke="black" points="177.89,-924.5 272.89,-924.5 "/>
<text text-anchor="middle" x="225.39" y="-909.3" font-family="Times New Roman,serif" font-size="14.00">15:0 &#45; 31:16</text>
<polyline fill="none" stroke="black" points="177.89,-901.5 272.89,-901.5 "/>
<text text-anchor="middle" x="225.39" y="-886.3" font-family="Times New Roman,serif" font-size="14.00">15:0 &#45; 15:0</text>
</g>
<!-- n10&#45;&gt;x3 -->
<g id="edge4" class="edge">
<title>n10:e&#45;&gt;x3:w</title>
<path fill="none" stroke="#7570b3" stroke-width="3" d="M54,-1214C95.63,-1214 112.3,-1209.27 140.89,-1179 171.95,-1146.13 134.39,-1085.13 166.13,-1075.34"/>
<polygon fill="#7570b3" stroke="#7570b3" stroke-width="3" points="166.93,-1078.77 176.39,-1074 166.02,-1071.82 166.93,-1078.77"/>
<text text-anchor="middle" x="106.45" y="-1217.8" font-family="Times New Roman,serif" font-size="14.00" fill="#7570b3">&lt;16&gt;</text>
</g>
<!-- n11 -->
<g id="node2" class="node">
<title>n11</title>
<polygon fill="none" stroke="black" points="54,-1152.54 54,-1167.46 38.18,-1178 15.82,-1178 0,-1167.46 0,-1152.54 15.82,-1142 38.18,-1142 54,-1152.54"/>
<text text-anchor="middle" x="27" y="-1156.3" font-family="Times New Roman,serif" font-size="14.00">b</text>
</g>
<!-- n11&#45;&gt;x3 -->
<g id="edge5" class="edge">
<title>n11:e&#45;&gt;x3:w</title>
<path fill="none" stroke="#e7298a" stroke-width="3" d="M54,-1160C95.8,-1160 110.46,-1152.66 140.89,-1124 164.18,-1102.07 145.72,-1061.63 166.39,-1052.75"/>
<polygon fill="#e7298a" stroke="#e7298a" stroke-width="3" points="167.15,-1056.17 176.39,-1051 165.94,-1049.28 167.15,-1056.17"/>
<text text-anchor="middle" x="106.45" y="-1163.8" font-family="Times New Roman,serif" font-size="14.00" fill="#e7298a">&lt;16&gt;</text>
</g>
<!-- n12 -->
<g id="node3" class="node">
<title>n12</title>
<polygon fill="none" stroke="black" points="54,-1098.54 54,-1113.46 38.18,-1124 15.82,-1124 0,-1113.46 0,-1098.54 15.82,-1088 38.18,-1088 54,-1098.54"/>
<text text-anchor="middle" x="27" y="-1102.3" font-family="Times New Roman,serif" font-size="14.00">c</text>
</g>
<!-- n12&#45;&gt;x3 -->
<g id="edge6" class="edge">
<title>n12:e&#45;&gt;x3:w</title>
<path fill="none" stroke="#e7298a" stroke-width="3" d="M54,-1106C96.51,-1106 106.43,-1090.89 140.89,-1066 156.26,-1054.9 154.75,-1036.44 166.47,-1030.16"/>
<polygon fill="#e7298a" stroke="#e7298a" stroke-width="3" points="167.37,-1033.55 176.39,-1028 165.88,-1026.71 167.37,-1033.55"/>
<text text-anchor="middle" x="106.45" y="-1108.8" font-family="Times New Roman,serif" font-size="14.00" fill="#e7298a">&lt;16&gt;</text>
</g>
<!-- n13 -->
<g id="node4" class="node">
<title>n13</title>
<polygon fill="none" stroke="black" points="54,-1044.54 54,-1059.46 38.18,-1070 15.82,-1070 0,-1059.46 0,-1044.54 15.82,-1034 38.18,-1034 54,-1044.54"/>
<text text-anchor="middle" x="27" y="-1048.3" font-family="Times New Roman,serif" font-size="14.00">d</text>
</g>
<!-- n13&#45;&gt;x3 -->
<g id="edge7" class="edge">
<title>n13:e&#45;&gt;x3:w</title>
<path fill="none" stroke="#7570b3" stroke-width="3" d="M54,-1052C66.58,-1052 137.8,-1016.97 166.41,-1007.4"/>
<polygon fill="#7570b3" stroke="#7570b3" stroke-width="3" points="167.49,-1010.74 176.39,-1005 165.85,-1003.93 167.49,-1010.74"/>
<text text-anchor="middle" x="106.45" y="-1050.8" font-family="Times New Roman,serif" font-size="14.00" fill="#7570b3">&lt;16&gt;</text>
</g>
<!-- n14 -->
<g id="node5" class="node">
<title>n14</title>
<polygon fill="none" stroke="black" points="54,-990.54 54,-1005.46 38.18,-1016 15.82,-1016 0,-1005.46 0,-990.54 15.82,-980 38.18,-980 54,-990.54"/>
<text text-anchor="middle" x="27" y="-994.3" font-family="Times New Roman,serif" font-size="14.00">e</text>
</g>
<!-- n14&#45;&gt;x3 -->
<g id="edge8" class="edge">
<title>n14:e&#45;&gt;x3:w</title>
<path fill="none" stroke="#d95f02" stroke-width="3" d="M54,-998C105.32,-998 119.72,-984 166.29,-982.19"/>
<polygon fill="#d95f02" stroke="#d95f02" stroke-width="3" points="166.46,-985.69 176.39,-982 166.33,-978.69 166.46,-985.69"/>
<text text-anchor="middle" x="106.45" y="-1001.8" font-family="Times New Roman,serif" font-size="14.00" fill="#d95f02">&lt;16&gt;</text>
</g>
<!-- n15 -->
<g id="node6" class="node">
<title>n15</title>
<polygon fill="none" stroke="black" points="54,-936.54 54,-951.46 38.18,-962 15.82,-962 0,-951.46 0,-936.54 15.82,-926 38.18,-926 54,-936.54"/>
<text text-anchor="middle" x="27" y="-940.3" font-family="Times New Roman,serif" font-size="14.00">f</text>
</g>
<!-- n15&#45;&gt;x3 -->
<g id="edge9" class="edge">
<title>n15:e&#45;&gt;x3:w</title>
<path fill="none" stroke="#1b9e77" stroke-width="3" d="M54,-944C105.27,-944 119.77,-957.13 166.3,-958.82"/>
<polygon fill="#1b9e77" stroke="#1b9e77" stroke-width="3" points="166.33,-962.32 176.39,-959 166.46,-955.32 166.33,-962.32"/>
<text text-anchor="middle" x="106.45" y="-960.8" font-family="Times New Roman,serif" font-size="14.00" fill="#1b9e77">&lt;16&gt;</text>
</g>
<!-- n16 -->
<g id="node7" class="node">
<title>n16</title>
<polygon fill="none" stroke="black" points="54,-882.54 54,-897.46 38.18,-908 15.82,-908 0,-897.46 0,-882.54 15.82,-872 38.18,-872 54,-882.54"/>
<text text-anchor="middle" x="27" y="-886.3" font-family="Times New Roman,serif" font-size="14.00">g</text>
</g>
<!-- n16&#45;&gt;x3 -->
<g id="edge10" class="edge">
<title>n16:e&#45;&gt;x3:w</title>
<path fill="none" stroke="#1b9e77" stroke-width="3" d="M54,-890C79.99,-890 134.17,-926.81 166.11,-934.57"/>
<polygon fill="#1b9e77" stroke="#1b9e77" stroke-width="3" points="166.01,-938.09 176.39,-936 166.97,-931.16 166.01,-938.09"/>
<text text-anchor="middle" x="106.45" y="-928.8" font-family="Times New Roman,serif" font-size="14.00" fill="#1b9e77">&lt;16&gt;</text>
</g>
<!-- n17 -->
<g id="node8" class="node">
<title>n17</title>
<polygon fill="none" stroke="black" points="54,-828.54 54,-843.46 38.18,-854 15.82,-854 0,-843.46 0,-828.54 15.82,-818 38.18,-818 54,-828.54"/>
<text text-anchor="middle" x="27" y="-832.3" font-family="Times New Roman,serif" font-size="14.00">h</text>
</g>
<!-- n17&#45;&gt;x3 -->
<g id="edge11" class="edge">
<title>n17:e&#45;&gt;x3:w</title>
<path fill="none" stroke="#e6ab02" stroke-width="3" d="M54,-836C96.33,-836 106.46,-850.38 140.89,-875 156.32,-886.03 154.77,-904.53 166.48,-910.83"/>
<polygon fill="#e6ab02" stroke="#e6ab02" stroke-width="3" points="165.88,-914.28 176.39,-913 167.37,-907.44 165.88,-914.28"/>
<text text-anchor="middle" x="106.45" y="-878.8" font-family="Times New Roman,serif" font-size="14.00" fill="#e6ab02">&lt;16&gt;</text>
</g>
<!-- n18 -->
<g id="node9" class="node">
<title>n18</title>
<polygon fill="none" stroke="black" points="54,-774.54 54,-789.46 38.18,-800 15.82,-800 0,-789.46 0,-774.54 15.82,-764 38.18,-764 54,-774.54"/>
<text text-anchor="middle" x="27" y="-778.3" font-family="Times New Roman,serif" font-size="14.00">i</text>
</g>
<!-- n18&#45;&gt;x3 -->
<g id="edge12" class="edge">
<title>n18:e&#45;&gt;x3:w</title>
<path fill="none" stroke="#e6ab02" stroke-width="3" d="M54,-782C95.97,-782 110.32,-790.24 140.89,-819 163.58,-840.34 146.38,-879.34 166.31,-888.18"/>
<polygon fill="#e6ab02" stroke="#e6ab02" stroke-width="3" points="165.93,-891.67 176.39,-890 167.17,-884.78 165.93,-891.67"/>
<text text-anchor="middle" x="106.45" y="-822.8" font-family="Times New Roman,serif" font-size="14.00" fill="#e6ab02">&lt;16&gt;</text>
</g>
<!-- n19 -->
<g id="node10" class="node">
<title>n19</title>
<polygon fill="none" stroke="black" points="1068.9,-807.54 1068.9,-822.46 1053.09,-833 1030.72,-833 1014.9,-822.46 1014.9,-807.54 1030.72,-797 1053.09,-797 1068.9,-807.54"/>
<text text-anchor="middle" x="1041.9" y="-811.3" font-family="Times New Roman,serif" font-size="14.00">out</text>
</g>
<!-- x11 -->
<g id="node34" class="node">
<title>x11</title>
<path fill="none" stroke="black" d="M759.18,-881C759.18,-881 729.18,-881 729.18,-881 723.18,-881 717.18,-875 717.18,-869 717.18,-869 717.18,-857 717.18,-857 717.18,-851 723.18,-845 729.18,-845 729.18,-845 759.18,-845 759.18,-845 765.18,-845 771.18,-851 771.18,-857 771.18,-857 771.18,-869 771.18,-869 771.18,-875 765.18,-881 759.18,-881"/>
<text text-anchor="middle" x="744.18" y="-859.3" font-family="Times New Roman,serif" font-size="14.00">BUF</text>
</g>
<!-- n19&#45;&gt;x11 -->
<g id="edge14" class="edge">
<title>n19:e&#45;&gt;x11:w</title>
<path fill="none" stroke="#d95f02" stroke-width="3" d="M1069.9,-815C1077.91,-815 1074.21,-827 1068.9,-833 1047.37,-857.36 1028.97,-840.62 996.9,-846 896.78,-862.8 872.4,-873.2 771.18,-881 747.25,-882.84 734.61,-897.49 717.18,-881 714.81,-878.76 712.88,-875.37 711.96,-872.14"/>
<polygon fill="#d95f02" stroke="#d95f02" stroke-width="3" points="715.16,-873.55 716.18,-863 708.81,-870.61 715.16,-873.55"/>
<text text-anchor="middle" x="842.68" y="-883.8" font-family="Times New Roman,serif" font-size="14.00" fill="#d95f02">&lt;16&gt;</text>
</g>
<!-- n20 -->
<g id="node11" class="node">
<title>n20</title>
<polygon fill="none" stroke="black" points="955.54,-837 914.32,-819 955.54,-801 996.76,-819 955.54,-837"/>
<text text-anchor="middle" x="955.54" y="-815.3" font-family="Times New Roman,serif" font-size="14.00">out_i</text>
</g>
<!-- n21 -->
<g id="node12" class="node">
<title>n21</title>
<polygon fill="none" stroke="black" points="54,-432.54 54,-447.46 38.18,-458 15.82,-458 0,-447.46 0,-432.54 15.82,-422 38.18,-422 54,-432.54"/>
<text text-anchor="middle" x="27" y="-436.3" font-family="Times New Roman,serif" font-size="14.00">sel</text>
</g>
<!-- c25 -->
<g id="node14" class="node">
<title>c25</title>
<polygon fill="none" stroke="black" points="309.89,-698 309.89,-744 442.89,-744 442.89,-698 309.89,-698"/>
<text text-anchor="middle" x="322.89" y="-728.8" font-family="Times New Roman,serif" font-size="14.00">A</text>
<polyline fill="none" stroke="black" points="309.89,-721 335.89,-721 "/>
<text text-anchor="middle" x="322.89" y="-705.8" font-family="Times New Roman,serif" font-size="14.00">B</text>
<polyline fill="none" stroke="black" points="335.89,-698 335.89,-744 "/>
<text text-anchor="middle" x="376.39" y="-724.8" font-family="Times New Roman,serif" font-size="14.00">$10_CMP0</text>
<text text-anchor="middle" x="376.39" y="-709.8" font-family="Times New Roman,serif" font-size="14.00">$eq</text>
<polyline fill="none" stroke="black" points="416.89,-698 416.89,-744 "/>
<text text-anchor="middle" x="429.89" y="-717.3" font-family="Times New Roman,serif" font-size="14.00">Y</text>
</g>
<!-- n21&#45;&gt;c25 -->
<g id="edge17" class="edge">
<title>n21:e&#45;&gt;c25:w</title>
<path fill="none" stroke="#1b9e77" stroke-width="3" d="M54,-440C86.28,-440 48.61,-707.74 72,-730 146.12,-800.55 200.55,-737.36 299.83,-733.21"/>
<polygon fill="#1b9e77" stroke="#1b9e77" stroke-width="3" points="299.97,-736.71 309.89,-733 299.82,-729.71 299.97,-736.71"/>
<text text-anchor="middle" x="106.45" y="-767.8" font-family="Times New Roman,serif" font-size="14.00" fill="#1b9e77">&lt;4&gt;</text>
</g>
<!-- c26 -->
<g id="node16" class="node">
<title>c26</title>
<polygon fill="none" stroke="black" points="309.89,-614 309.89,-660 442.89,-660 442.89,-614 309.89,-614"/>
<text text-anchor="middle" x="322.89" y="-644.8" font-family="Times New Roman,serif" font-size="14.00">A</text>
<polyline fill="none" stroke="black" points="309.89,-637 335.89,-637 "/>
<text text-anchor="middle" x="322.89" y="-621.8" font-family="Times New Roman,serif" font-size="14.00">B</text>
<polyline fill="none" stroke="black" points="335.89,-614 335.89,-660 "/>
<text text-anchor="middle" x="376.39" y="-640.8" font-family="Times New Roman,serif" font-size="14.00">$11_CMP0</text>
<text text-anchor="middle" x="376.39" y="-625.8" font-family="Times New Roman,serif" font-size="14.00">$eq</text>
<polyline fill="none" stroke="black" points="416.89,-614 416.89,-660 "/>
<text text-anchor="middle" x="429.89" y="-633.3" font-family="Times New Roman,serif" font-size="14.00">Y</text>
</g>
<!-- n21&#45;&gt;c26 -->
<g id="edge18" class="edge">
<title>n21:e&#45;&gt;c26:w</title>
<path fill="none" stroke="#1b9e77" stroke-width="3" d="M54,-440C98.85,-440 39.42,-610.18 72,-641 108.18,-675.22 240.19,-652.1 299.67,-649.27"/>
<polygon fill="#1b9e77" stroke="#1b9e77" stroke-width="3" points="299.99,-652.77 309.89,-649 299.8,-645.77 299.99,-652.77"/>
<text text-anchor="middle" x="106.45" y="-663.8" font-family="Times New Roman,serif" font-size="14.00" fill="#1b9e77">&lt;4&gt;</text>
</g>
<!-- c27 -->
<g id="node17" class="node">
<title>c27</title>
<polygon fill="none" stroke="black" points="158.89,-558 158.89,-596 291.89,-596 291.89,-558 158.89,-558"/>
<text text-anchor="middle" x="171.89" y="-573.3" font-family="Times New Roman,serif" font-size="14.00">A</text>
<polyline fill="none" stroke="black" points="184.89,-558 184.89,-596 "/>
<text text-anchor="middle" x="225.39" y="-580.8" font-family="Times New Roman,serif" font-size="14.00">$12_CMP0</text>
<text text-anchor="middle" x="225.39" y="-565.8" font-family="Times New Roman,serif" font-size="14.00">$logic_not</text>
<polyline fill="none" stroke="black" points="265.89,-558 265.89,-596 "/>
<text text-anchor="middle" x="278.89" y="-573.3" font-family="Times New Roman,serif" font-size="14.00">Y</text>
</g>
<!-- n21&#45;&gt;c27 -->
<g id="edge19" class="edge">
<title>n21:e&#45;&gt;c27:w</title>
<path fill="none" stroke="#1b9e77" stroke-width="3" d="M54,-440C78.33,-440 56.2,-529.5 72,-548 96.17,-576.3 114.74,-577.09 148.84,-577.02"/>
<polygon fill="#1b9e77" stroke="#1b9e77" stroke-width="3" points="148.9,-580.52 158.89,-577 148.89,-573.52 148.9,-580.52"/>
<text text-anchor="middle" x="106.45" y="-581.8" font-family="Times New Roman,serif" font-size="14.00" fill="#1b9e77">&lt;4&gt;</text>
</g>
<!-- c30 -->
<g id="node23" class="node">
<title>c30</title>
<polygon fill="none" stroke="black" points="313.39,-475 313.39,-521 439.39,-521 439.39,-475 313.39,-475"/>
<text text-anchor="middle" x="326.39" y="-505.8" font-family="Times New Roman,serif" font-size="14.00">A</text>
<polyline fill="none" stroke="black" points="313.39,-498 339.39,-498 "/>
<text text-anchor="middle" x="326.39" y="-482.8" font-family="Times New Roman,serif" font-size="14.00">B</text>
<polyline fill="none" stroke="black" points="339.39,-475 339.39,-521 "/>
<text text-anchor="middle" x="376.39" y="-501.8" font-family="Times New Roman,serif" font-size="14.00">$4_CMP0</text>
<text text-anchor="middle" x="376.39" y="-486.8" font-family="Times New Roman,serif" font-size="14.00">$eq</text>
<polyline fill="none" stroke="black" points="413.39,-475 413.39,-521 "/>
<text text-anchor="middle" x="426.39" y="-494.3" font-family="Times New Roman,serif" font-size="14.00">Y</text>
</g>
<!-- n21&#45;&gt;c30 -->
<g id="edge20" class="edge">
<title>n21:e&#45;&gt;c30:w</title>
<path fill="none" stroke="#1b9e77" stroke-width="3" d="M54,-440C84.83,-440 47.65,-488.09 72,-507 111.72,-537.85 242.36,-513.27 302.1,-510.29"/>
<polygon fill="#1b9e77" stroke="#1b9e77" stroke-width="3" points="302.5,-513.78 312.39,-510 302.3,-506.78 302.5,-513.78"/>
<text text-anchor="middle" x="106.45" y="-526.8" font-family="Times New Roman,serif" font-size="14.00" fill="#1b9e77">&lt;4&gt;</text>
</g>
<!-- c31 -->
<g id="node25" class="node">
<title>c31</title>
<polygon fill="none" stroke="black" points="313.39,-393 313.39,-439 439.39,-439 439.39,-393 313.39,-393"/>
<text text-anchor="middle" x="326.39" y="-423.8" font-family="Times New Roman,serif" font-size="14.00">A</text>
<polyline fill="none" stroke="black" points="313.39,-416 339.39,-416 "/>
<text text-anchor="middle" x="326.39" y="-400.8" font-family="Times New Roman,serif" font-size="14.00">B</text>
<polyline fill="none" stroke="black" points="339.39,-393 339.39,-439 "/>
<text text-anchor="middle" x="376.39" y="-419.8" font-family="Times New Roman,serif" font-size="14.00">$5_CMP0</text>
<text text-anchor="middle" x="376.39" y="-404.8" font-family="Times New Roman,serif" font-size="14.00">$eq</text>
<polyline fill="none" stroke="black" points="413.39,-393 413.39,-439 "/>
<text text-anchor="middle" x="426.39" y="-412.3" font-family="Times New Roman,serif" font-size="14.00">Y</text>
</g>
<!-- n21&#45;&gt;c31 -->
<g id="edge21" class="edge">
<title>n21:e&#45;&gt;c31:w</title>
<path fill="none" stroke="#1b9e77" stroke-width="3" d="M54,-440C165.49,-440 195.63,-428.72 302.19,-428.03"/>
<polygon fill="#1b9e77" stroke="#1b9e77" stroke-width="3" points="302.41,-431.53 312.39,-428 302.38,-424.53 302.41,-431.53"/>
<text text-anchor="middle" x="106.45" y="-443.8" font-family="Times New Roman,serif" font-size="14.00" fill="#1b9e77">&lt;4&gt;</text>
</g>
<!-- c32 -->
<g id="node27" class="node">
<title>c32</title>
<polygon fill="none" stroke="black" points="313.39,-316 313.39,-362 439.39,-362 439.39,-316 313.39,-316"/>
<text text-anchor="middle" x="326.39" y="-346.8" font-family="Times New Roman,serif" font-size="14.00">A</text>
<polyline fill="none" stroke="black" points="313.39,-339 339.39,-339 "/>
<text text-anchor="middle" x="326.39" y="-323.8" font-family="Times New Roman,serif" font-size="14.00">B</text>
<polyline fill="none" stroke="black" points="339.39,-316 339.39,-362 "/>
<text text-anchor="middle" x="376.39" y="-342.8" font-family="Times New Roman,serif" font-size="14.00">$6_CMP0</text>
<text text-anchor="middle" x="376.39" y="-327.8" font-family="Times New Roman,serif" font-size="14.00">$eq</text>
<polyline fill="none" stroke="black" points="413.39,-316 413.39,-362 "/>
<text text-anchor="middle" x="426.39" y="-335.3" font-family="Times New Roman,serif" font-size="14.00">Y</text>
</g>
<!-- n21&#45;&gt;c32 -->
<g id="edge22" class="edge">
<title>n21:e&#45;&gt;c32:w</title>
<path fill="none" stroke="#1b9e77" stroke-width="3" d="M54,-440C92.62,-440 42.2,-379.56 72,-355 110.81,-323.01 242.25,-347.71 302.09,-350.71"/>
<polygon fill="#1b9e77" stroke="#1b9e77" stroke-width="3" points="302.3,-354.22 312.39,-351 302.5,-347.22 302.3,-354.22"/>
<text text-anchor="middle" x="106.45" y="-358.8" font-family="Times New Roman,serif" font-size="14.00" fill="#1b9e77">&lt;4&gt;</text>
</g>
<!-- c33 -->
<g id="node29" class="node">
<title>c33</title>
<polygon fill="none" stroke="black" points="313.39,-227 313.39,-273 439.39,-273 439.39,-227 313.39,-227"/>
<text text-anchor="middle" x="326.39" y="-257.8" font-family="Times New Roman,serif" font-size="14.00">A</text>
<polyline fill="none" stroke="black" points="313.39,-250 339.39,-250 "/>
<text text-anchor="middle" x="326.39" y="-234.8" font-family="Times New Roman,serif" font-size="14.00">B</text>
<polyline fill="none" stroke="black" points="339.39,-227 339.39,-273 "/>
<text text-anchor="middle" x="376.39" y="-253.8" font-family="Times New Roman,serif" font-size="14.00">$7_CMP0</text>
<text text-anchor="middle" x="376.39" y="-238.8" font-family="Times New Roman,serif" font-size="14.00">$eq</text>
<polyline fill="none" stroke="black" points="413.39,-227 413.39,-273 "/>
<text text-anchor="middle" x="426.39" y="-246.3" font-family="Times New Roman,serif" font-size="14.00">Y</text>
</g>
<!-- n21&#45;&gt;c33 -->
<g id="edge23" class="edge">
<title>n21:e&#45;&gt;c33:w</title>
<path fill="none" stroke="#1b9e77" stroke-width="3" d="M54,-440C92.87,-440 43.35,-292.27 72,-266 109.07,-232 242.04,-258.47 302.07,-261.69"/>
<polygon fill="#1b9e77" stroke="#1b9e77" stroke-width="3" points="302.29,-265.2 312.39,-262 302.5,-258.2 302.29,-265.2"/>
<text text-anchor="middle" x="106.45" y="-269.8" font-family="Times New Roman,serif" font-size="14.00" fill="#1b9e77">&lt;4&gt;</text>
</g>
<!-- c34 -->
<g id="node31" class="node">
<title>c34</title>
<polygon fill="none" stroke="black" points="313.39,-138 313.39,-184 439.39,-184 439.39,-138 313.39,-138"/>
<text text-anchor="middle" x="326.39" y="-168.8" font-family="Times New Roman,serif" font-size="14.00">A</text>
<polyline fill="none" stroke="black" points="313.39,-161 339.39,-161 "/>
<text text-anchor="middle" x="326.39" y="-145.8" font-family="Times New Roman,serif" font-size="14.00">B</text>
<polyline fill="none" stroke="black" points="339.39,-138 339.39,-184 "/>
<text text-anchor="middle" x="376.39" y="-164.8" font-family="Times New Roman,serif" font-size="14.00">$8_CMP0</text>
<text text-anchor="middle" x="376.39" y="-149.8" font-family="Times New Roman,serif" font-size="14.00">$eq</text>
<polyline fill="none" stroke="black" points="413.39,-138 413.39,-184 "/>
<text text-anchor="middle" x="426.39" y="-157.3" font-family="Times New Roman,serif" font-size="14.00">Y</text>
</g>
<!-- n21&#45;&gt;c34 -->
<g id="edge24" class="edge">
<title>n21:e&#45;&gt;c34:w</title>
<path fill="none" stroke="#1b9e77" stroke-width="3" d="M54,-440C83.29,-440 50.76,-197.17 72,-177 108.47,-142.37 241.97,-169.4 302.07,-172.68"/>
<polygon fill="#1b9e77" stroke="#1b9e77" stroke-width="3" points="302.29,-176.19 312.39,-173 302.51,-169.19 302.29,-176.19"/>
<text text-anchor="middle" x="106.45" y="-180.8" font-family="Times New Roman,serif" font-size="14.00" fill="#1b9e77">&lt;4&gt;</text>
</g>
<!-- c35 -->
<g id="node33" class="node">
<title>c35</title>
<polygon fill="none" stroke="black" points="313.39,-49 313.39,-95 439.39,-95 439.39,-49 313.39,-49"/>
<text text-anchor="middle" x="326.39" y="-79.8" font-family="Times New Roman,serif" font-size="14.00">A</text>
<polyline fill="none" stroke="black" points="313.39,-72 339.39,-72 "/>
<text text-anchor="middle" x="326.39" y="-56.8" font-family="Times New Roman,serif" font-size="14.00">B</text>
<polyline fill="none" stroke="black" points="339.39,-49 339.39,-95 "/>
<text text-anchor="middle" x="376.39" y="-75.8" font-family="Times New Roman,serif" font-size="14.00">$9_CMP0</text>
<text text-anchor="middle" x="376.39" y="-60.8" font-family="Times New Roman,serif" font-size="14.00">$eq</text>
<polyline fill="none" stroke="black" points="413.39,-49 413.39,-95 "/>
<text text-anchor="middle" x="426.39" y="-68.3" font-family="Times New Roman,serif" font-size="14.00">Y</text>
</g>
<!-- n21&#45;&gt;c35 -->
<g id="edge25" class="edge">
<title>n21:e&#45;&gt;c35:w</title>
<path fill="none" stroke="#1b9e77" stroke-width="3" d="M54,-440C93.16,-440 43.84,-115.21 72,-88 108.17,-53.05 241.94,-80.36 302.06,-83.68"/>
<polygon fill="#1b9e77" stroke="#1b9e77" stroke-width="3" points="302.29,-87.19 312.39,-84 302.51,-80.19 302.29,-87.19"/>
<text text-anchor="middle" x="106.45" y="-91.8" font-family="Times New Roman,serif" font-size="14.00" fill="#1b9e77">&lt;4&gt;</text>
</g>
<!-- v0 -->
<g id="node13" class="node">
<title>v0</title>
<ellipse fill="none" stroke="black" cx="106.45" cy="-709" rx="27" ry="18"/>
<text text-anchor="middle" x="106.45" y="-705.3" font-family="Times New Roman,serif" font-size="14.00">2&#39;10</text>
</g>
<!-- v0&#45;&gt;c25 -->
<g id="edge33" class="edge">
<title>v0:e&#45;&gt;c25:w</title>
<path fill="none" stroke="#1b9e77" stroke-width="3" d="M134.45,-709C208.92,-709 230.05,-709 299.73,-709"/>
<polygon fill="#1b9e77" stroke="#1b9e77" stroke-width="3" points="299.89,-712.5 309.89,-709 299.89,-705.5 299.89,-712.5"/>
<text text-anchor="middle" x="225.39" y="-712.8" font-family="Times New Roman,serif" font-size="14.00" fill="#1b9e77">&lt;2&gt;</text>
</g>
<!-- x4 -->
<g id="node21" class="node">
<title>x4</title>
<path fill="none" stroke="black" d="M588.54,-381.5C588.54,-381.5 626.54,-381.5 626.54,-381.5 632.54,-381.5 638.54,-387.5 638.54,-393.5 638.54,-393.5 638.54,-576.5 638.54,-576.5 638.54,-582.5 632.54,-588.5 626.54,-588.5 626.54,-588.5 588.54,-588.5 588.54,-588.5 582.54,-588.5 576.54,-582.5 576.54,-576.5 576.54,-576.5 576.54,-393.5 576.54,-393.5 576.54,-387.5 582.54,-381.5 588.54,-381.5"/>
<text text-anchor="middle" x="607.54" y="-573.3" font-family="Times New Roman,serif" font-size="14.00">0:0 &#45; 8:8</text>
<polyline fill="none" stroke="black" points="576.54,-565.5 638.54,-565.5 "/>
<text text-anchor="middle" x="607.54" y="-550.3" font-family="Times New Roman,serif" font-size="14.00">0:0 &#45; 7:7</text>
<polyline fill="none" stroke="black" points="576.54,-542.5 638.54,-542.5 "/>
<text text-anchor="middle" x="607.54" y="-527.3" font-family="Times New Roman,serif" font-size="14.00">0:0 &#45; 6:6</text>
<polyline fill="none" stroke="black" points="576.54,-519.5 638.54,-519.5 "/>
<text text-anchor="middle" x="607.54" y="-504.3" font-family="Times New Roman,serif" font-size="14.00">0:0 &#45; 5:5</text>
<polyline fill="none" stroke="black" points="576.54,-496.5 638.54,-496.5 "/>
<text text-anchor="middle" x="607.54" y="-481.3" font-family="Times New Roman,serif" font-size="14.00">0:0 &#45; 4:4</text>
<polyline fill="none" stroke="black" points="576.54,-473.5 638.54,-473.5 "/>
<text text-anchor="middle" x="607.54" y="-458.3" font-family="Times New Roman,serif" font-size="14.00">0:0 &#45; 3:3</text>
<polyline fill="none" stroke="black" points="576.54,-450.5 638.54,-450.5 "/>
<text text-anchor="middle" x="607.54" y="-435.3" font-family="Times New Roman,serif" font-size="14.00">0:0 &#45; 2:2</text>
<polyline fill="none" stroke="black" points="576.54,-427.5 638.54,-427.5 "/>
<text text-anchor="middle" x="607.54" y="-412.3" font-family="Times New Roman,serif" font-size="14.00">0:0 &#45; 1:1</text>
<polyline fill="none" stroke="black" points="576.54,-404.5 638.54,-404.5 "/>
<text text-anchor="middle" x="607.54" y="-389.3" font-family="Times New Roman,serif" font-size="14.00">0:0 &#45; 0:0</text>
</g>
<!-- c25&#45;&gt;x4 -->
<g id="edge3" class="edge">
<title>c25:e&#45;&gt;x4:w</title>
<path fill="none" stroke="#1b9e77" d="M442.89,-721C542.26,-721 477.49,-544.12 565.31,-531.69"/>
<polygon fill="#1b9e77" stroke="#1b9e77" points="565.79,-535.16 575.54,-531 565.32,-528.18 565.79,-535.16"/>
</g>
<!-- v1 -->
<g id="node15" class="node">
<title>v1</title>
<ellipse fill="none" stroke="black" cx="106.45" cy="-622" rx="27" ry="18"/>
<text text-anchor="middle" x="106.45" y="-618.3" font-family="Times New Roman,serif" font-size="14.00">1&#39;1</text>
</g>
<!-- v1&#45;&gt;c26 -->
<g id="edge34" class="edge">
<title>v1:e&#45;&gt;c26:w</title>
<path fill="none" stroke="#66a61e" d="M134.45,-622C208.93,-622 230.04,-624.74 299.73,-624.98"/>
<polygon fill="#66a61e" stroke="#66a61e" points="299.89,-628.48 309.89,-625 299.9,-621.48 299.89,-628.48"/>
</g>
<!-- c26&#45;&gt;x4 -->
<g id="edge15" class="edge">
<title>c26:e&#45;&gt;x4:w</title>
<path fill="none" stroke="#d95f02" d="M442.89,-637C508.9,-637 506.45,-562.22 565.51,-554.62"/>
<polygon fill="#d95f02" stroke="#d95f02" points="565.77,-558.11 575.54,-554 565.34,-551.12 565.77,-558.11"/>
</g>
<!-- c27&#45;&gt;x4 -->
<g id="edge26" class="edge">
<title>c27:e&#45;&gt;x4:w</title>
<path fill="none" stroke="#1b9e77" d="M291.89,-577C414.51,-577 447.68,-577 565.4,-577"/>
<polygon fill="#1b9e77" stroke="#1b9e77" points="565.54,-580.5 575.54,-577 565.54,-573.5 565.54,-580.5"/>
</g>
<!-- v2 -->
<g id="node18" class="node">
<title>v2</title>
<ellipse fill="none" stroke="black" cx="607.54" cy="-809" rx="91.78" ry="18"/>
<text text-anchor="middle" x="607.54" y="-805.3" font-family="Times New Roman,serif" font-size="14.00">16&#39;1111111111111111</text>
</g>
<!-- c29 -->
<g id="node19" class="node">
<title>c29</title>
<polygon fill="none" stroke="black" points="789.18,-728.5 789.18,-797.5 896.18,-797.5 896.18,-728.5 789.18,-728.5"/>
<text text-anchor="middle" x="802.18" y="-782.3" font-family="Times New Roman,serif" font-size="14.00">A</text>
<polyline fill="none" stroke="black" points="789.18,-774.5 815.18,-774.5 "/>
<text text-anchor="middle" x="802.18" y="-759.3" font-family="Times New Roman,serif" font-size="14.00">B</text>
<polyline fill="none" stroke="black" points="789.18,-751.5 815.18,-751.5 "/>
<text text-anchor="middle" x="802.18" y="-736.3" font-family="Times New Roman,serif" font-size="14.00">S</text>
<polyline fill="none" stroke="black" points="815.18,-728.5 815.18,-797.5 "/>
<text text-anchor="middle" x="842.68" y="-766.8" font-family="Times New Roman,serif" font-size="14.00">$3</text>
<text text-anchor="middle" x="842.68" y="-751.8" font-family="Times New Roman,serif" font-size="14.00">$pmux</text>
<polyline fill="none" stroke="black" points="870.18,-728.5 870.18,-797.5 "/>
<text text-anchor="middle" x="883.18" y="-759.3" font-family="Times New Roman,serif" font-size="14.00">Y</text>
</g>
<!-- v2&#45;&gt;c29 -->
<g id="edge36" class="edge">
<title>v2:e&#45;&gt;c29:w</title>
<path fill="none" stroke="#7570b3" stroke-width="3" d="M699.18,-809C736.75,-809 746.28,-789.95 778.82,-786.52"/>
<polygon fill="#7570b3" stroke="#7570b3" stroke-width="3" points="779.37,-790 789.18,-786 779.01,-783.01 779.37,-790"/>
<text text-anchor="middle" x="744.18" y="-811.8" font-family="Times New Roman,serif" font-size="14.00" fill="#7570b3">&lt;16&gt;</text>
</g>
<!-- c29&#45;&gt;n19 -->
<g id="edge13" class="edge">
<title>c29:e&#45;&gt;n19:w</title>
<path fill="none" stroke="#d95f02" stroke-width="3" d="M896.18,-763C941.37,-763 960.47,-750.25 996.9,-777 1007.96,-785.12 1002.41,-801.81 1006.08,-810.1"/>
<polygon fill="#d95f02" stroke="#d95f02" stroke-width="3" points="1004.46,-813.21 1014.9,-815 1007.86,-807.09 1004.46,-813.21"/>
<text text-anchor="middle" x="955.54" y="-780.8" font-family="Times New Roman,serif" font-size="14.00" fill="#d95f02">&lt;16&gt;</text>
</g>
<!-- x3&#45;&gt;c29 -->
<g id="edge1" class="edge">
<title>x3:e&#45;&gt;c29:w</title>
<path fill="none" stroke="#66a61e" stroke-width="3" d="M286.6,-981.6C412.25,-973.11 390.42,-832.2 515.89,-782 625.07,-738.32 664.71,-761.29 776.98,-762.91"/>
<polygon fill="none" stroke="#66a61e" stroke-width="3" points="286.39,-981.61 280.52,-985.8 274.39,-982 280.26,-977.81 286.39,-981.61"/>
<polygon fill="none" stroke="#66a61e" stroke-width="3" points="777.18,-762.91 783.21,-758.96 789.18,-763 783.15,-766.96 777.18,-762.91"/>
<text text-anchor="middle" x="479.39" y="-820.8" font-family="Times New Roman,serif" font-size="14.00" fill="#66a61e">&lt;144&gt;</text>
</g>
<!-- x4&#45;&gt;c29 -->
<g id="edge2" class="edge">
<title>x4:e&#45;&gt;c29:w</title>
<path fill="none" stroke="#1b9e77" stroke-width="3" d="M651.32,-487.86C703.96,-514.02 724.78,-711.1 777.44,-737.16"/>
<polygon fill="none" stroke="#1b9e77" stroke-width="3" points="651.2,-487.83 644.42,-490.3 639.54,-485 646.31,-482.53 651.2,-487.83"/>
<polygon fill="none" stroke="#1b9e77" stroke-width="3" points="777.51,-737.18 784.29,-734.7 789.18,-740 782.41,-742.48 777.51,-737.18"/>
<text text-anchor="middle" x="744.18" y="-736.8" font-family="Times New Roman,serif" font-size="14.00" fill="#1b9e77">&lt;9&gt;</text>
</g>
<!-- v5 -->
<g id="node22" class="node">
<title>v5</title>
<ellipse fill="none" stroke="black" cx="106.45" cy="-486" rx="34.39" ry="18"/>
<text text-anchor="middle" x="106.45" y="-482.3" font-family="Times New Roman,serif" font-size="14.00">4&#39;1000</text>
</g>
<!-- v5&#45;&gt;c30 -->
<g id="edge37" class="edge">
<title>v5:e&#45;&gt;c30:w</title>
<path fill="none" stroke="#e6ab02" stroke-width="3" d="M140.89,-486C213.54,-486 234.26,-486 302.04,-486"/>
<polygon fill="#e6ab02" stroke="#e6ab02" stroke-width="3" points="302.39,-489.5 312.39,-486 302.39,-482.5 302.39,-489.5"/>
<text text-anchor="middle" x="225.39" y="-489.8" font-family="Times New Roman,serif" font-size="14.00" fill="#e6ab02">&lt;4&gt;</text>
</g>
<!-- c30&#45;&gt;x4 -->
<g id="edge27" class="edge">
<title>c30:e&#45;&gt;x4:w</title>
<path fill="none" stroke="#7570b3" d="M440.39,-498C512.89,-498 500.86,-402.61 565.43,-393.67"/>
<polygon fill="#7570b3" stroke="#7570b3" points="565.79,-397.15 575.54,-393 565.33,-390.17 565.79,-397.15"/>
</g>
<!-- v6 -->
<g id="node24" class="node">
<title>v6</title>
<ellipse fill="none" stroke="black" cx="106.45" cy="-397" rx="30.59" ry="18"/>
<text text-anchor="middle" x="106.45" y="-393.3" font-family="Times New Roman,serif" font-size="14.00">3&#39;111</text>
</g>
<!-- v6&#45;&gt;c31 -->
<g id="edge38" class="edge">
<title>v6:e&#45;&gt;c31:w</title>
<path fill="none" stroke="#7570b3" stroke-width="3" d="M138.45,-397C212.34,-397 233.18,-403.39 302.31,-403.96"/>
<polygon fill="#7570b3" stroke="#7570b3" stroke-width="3" points="302.38,-407.46 312.39,-404 302.41,-400.46 302.38,-407.46"/>
<text text-anchor="middle" x="225.39" y="-407.8" font-family="Times New Roman,serif" font-size="14.00" fill="#7570b3">&lt;3&gt;</text>
</g>
<!-- c31&#45;&gt;x4 -->
<g id="edge28" class="edge">
<title>c31:e&#45;&gt;x4:w</title>
<path fill="none" stroke="#666666" d="M440.39,-416C496.94,-416 513.56,-416 565.42,-416"/>
<polygon fill="#666666" stroke="#666666" points="565.54,-419.5 575.54,-416 565.54,-412.5 565.54,-419.5"/>
</g>
<!-- v7 -->
<g id="node26" class="node">
<title>v7</title>
<ellipse fill="none" stroke="black" cx="106.45" cy="-308" rx="30.59" ry="18"/>
<text text-anchor="middle" x="106.45" y="-304.3" font-family="Times New Roman,serif" font-size="14.00">3&#39;110</text>
</g>
<!-- v7&#45;&gt;c32 -->
<g id="edge39" class="edge">
<title>v7:e&#45;&gt;c32:w</title>
<path fill="none" stroke="#d95f02" stroke-width="3" d="M138.45,-308C206.93,-308 224.34,-310.74 291.89,-322 296.66,-322.79 299.47,-324.1 302.36,-325.18"/>
<polygon fill="#d95f02" stroke="#d95f02" stroke-width="3" points="301.93,-328.66 312.39,-327 303.18,-321.77 301.93,-328.66"/>
<text text-anchor="middle" x="225.39" y="-325.8" font-family="Times New Roman,serif" font-size="14.00" fill="#d95f02">&lt;3&gt;</text>
</g>
<!-- c32&#45;&gt;x4 -->
<g id="edge29" class="edge">
<title>c32:e&#45;&gt;x4:w</title>
<path fill="none" stroke="#a6761d" d="M440.39,-339C511.46,-339 502,-429.47 565.21,-438.31"/>
<polygon fill="#a6761d" stroke="#a6761d" points="565.32,-441.82 575.54,-439 565.79,-434.84 565.32,-441.82"/>
</g>
<!-- v8 -->
<g id="node28" class="node">
<title>v8</title>
<ellipse fill="none" stroke="black" cx="106.45" cy="-219" rx="30.59" ry="18"/>
<text text-anchor="middle" x="106.45" y="-215.3" font-family="Times New Roman,serif" font-size="14.00">3&#39;101</text>
</g>
<!-- v8&#45;&gt;c33 -->
<g id="edge40" class="edge">
<title>v8:e&#45;&gt;c33:w</title>
<path fill="none" stroke="#d95f02" stroke-width="3" d="M138.45,-219C206.93,-219 224.34,-221.74 291.89,-233 296.66,-233.79 299.47,-235.1 302.36,-236.18"/>
<polygon fill="#d95f02" stroke="#d95f02" stroke-width="3" points="301.93,-239.66 312.39,-238 303.18,-232.77 301.93,-239.66"/>
<text text-anchor="middle" x="225.39" y="-236.8" font-family="Times New Roman,serif" font-size="14.00" fill="#d95f02">&lt;3&gt;</text>
</g>
<!-- c33&#45;&gt;x4 -->
<g id="edge30" class="edge">
<title>c33:e&#45;&gt;x4:w</title>
<path fill="none" stroke="#7570b3" d="M440.39,-250C548.53,-250 469.28,-448.56 565.34,-461.35"/>
<polygon fill="#7570b3" stroke="#7570b3" points="565.33,-464.86 575.54,-462 565.78,-457.87 565.33,-464.86"/>
</g>
<!-- v9 -->
<g id="node30" class="node">
<title>v9</title>
<ellipse fill="none" stroke="black" cx="106.45" cy="-130" rx="30.59" ry="18"/>
<text text-anchor="middle" x="106.45" y="-126.3" font-family="Times New Roman,serif" font-size="14.00">3&#39;100</text>
</g>
<!-- v9&#45;&gt;c34 -->
<g id="edge41" class="edge">
<title>v9:e&#45;&gt;c34:w</title>
<path fill="none" stroke="#e6ab02" stroke-width="3" d="M138.45,-130C206.93,-130 224.34,-132.74 291.89,-144 296.66,-144.79 299.47,-146.1 302.36,-147.18"/>
<polygon fill="#e6ab02" stroke="#e6ab02" stroke-width="3" points="301.93,-150.66 312.39,-149 303.18,-143.77 301.93,-150.66"/>
<text text-anchor="middle" x="225.39" y="-147.8" font-family="Times New Roman,serif" font-size="14.00" fill="#e6ab02">&lt;3&gt;</text>
</g>
<!-- c34&#45;&gt;x4 -->
<g id="edge31" class="edge">
<title>c34:e&#45;&gt;x4:w</title>
<path fill="none" stroke="#a6761d" d="M440.39,-161C592.91,-161 427.29,-470.61 565.52,-484.52"/>
<polygon fill="#a6761d" stroke="#a6761d" points="565.38,-488.01 575.54,-485 565.72,-481.02 565.38,-488.01"/>
</g>
<!-- v10 -->
<g id="node32" class="node">
<title>v10</title>
<ellipse fill="none" stroke="black" cx="106.45" cy="-41" rx="27" ry="18"/>
<text text-anchor="middle" x="106.45" y="-37.3" font-family="Times New Roman,serif" font-size="14.00">2&#39;11</text>
</g>
<!-- v10&#45;&gt;c35 -->
<g id="edge35" class="edge">
<title>v10:e&#45;&gt;c35:w</title>
<path fill="none" stroke="#a6761d" stroke-width="3" d="M134.45,-41C204.7,-41 222.58,-43.53 291.89,-55 296.66,-55.79 299.47,-57.09 302.36,-58.17"/>
<polygon fill="#a6761d" stroke="#a6761d" stroke-width="3" points="301.93,-61.65 312.39,-60 303.18,-54.77 301.93,-61.65"/>
<text text-anchor="middle" x="225.39" y="-58.8" font-family="Times New Roman,serif" font-size="14.00" fill="#a6761d">&lt;2&gt;</text>
</g>
<!-- c35&#45;&gt;x4 -->
<g id="edge32" class="edge">
<title>c35:e&#45;&gt;x4:w</title>
<path fill="none" stroke="#e6ab02" d="M440.39,-72C487.49,-72 479.69,-117.57 497.89,-161 527.06,-230.6 499.26,-483.78 565.54,-506.38"/>
<polygon fill="#e6ab02" stroke="#e6ab02" points="565.11,-509.86 575.54,-508 566.22,-502.95 565.11,-509.86"/>
</g>
<!-- x11&#45;&gt;n20 -->
<g id="edge16" class="edge">
<title>x11:e&#45;&gt;n20:w</title>
<path fill="none" stroke="#d95f02" stroke-width="3" d="M771.18,-863C788.67,-863 774.58,-837.64 789.18,-828 832.75,-799.22 855.53,-816.49 904.11,-818.76"/>
<polygon fill="#d95f02" stroke="#d95f02" stroke-width="3" points="904.1,-822.26 914.18,-819 904.26,-815.27 904.1,-822.26"/>
<text text-anchor="middle" x="842.68" y="-831.8" font-family="Times New Roman,serif" font-size="14.00" fill="#d95f02">&lt;16&gt;</text>
</g>
</g>
</svg>
