<svg xmlns="http://www.w3.org/2000/svg" xmlns:xlink="http://www.w3.org/1999/xlink" xmlns:s="https://github.com/nturley/netlistsvg" width="315" height="1229">
  <style>svg {
    stroke:#000;
    fill:none;
  }
  text {
    fill:#000;
    stroke:none;
    font-size:10px;
    font-weight: bold;
    font-family: "Courier New", monospace;
  }
  .nodelabel {
    text-anchor: middle;
  }
  .inputPortLabel {
    text-anchor: end;
  }
  .splitjoinBody {
    fill:#000;
  }</style>
  <g s:type="eq" transform="translate(78.66666666666667,1072)" s:width="25" s:height="25" id="cell_$procmux$10_CMP0">
    <s:alias val="$eq"/>
    <circle r="12.5" cx="12.5" cy="12.5" class="cell_$procmux$10_CMP0"/>
    <line x1="7.5" x2="17.5" y1="10" y2="10" class="cell_$procmux$10_CMP0"/>
    <line x1="7.5" x2="17.5" y1="15" y2="15" class="cell_$procmux$10_CMP0"/>
    <g s:x="3" s:y="5" s:pid="A"/>
    <g s:x="3" s:y="20" s:pid="B"/>
    <g s:x="25" s:y="12.5" s:pid="Y"/>
  </g>
  <g s:type="eq" transform="translate(78.66666666666667,1137)" s:width="25" s:height="25" id="cell_$procmux$11_CMP0">
    <s:alias val="$eq"/>
    <circle r="12.5" cx="12.5" cy="12.5" class="cell_$procmux$11_CMP0"/>
    <line x1="7.5" x2="17.5" y1="10" y2="10" class="cell_$procmux$11_CMP0"/>
    <line x1="7.5" x2="17.5" y1="15" y2="15" class="cell_$procmux$11_CMP0"/>
    <g s:x="3" s:y="5" s:pid="A"/>
    <g s:x="3" s:y="20" s:pid="B"/>
    <g s:x="25" s:y="12.5" s:pid="Y"/>
  </g>
  <g s:type="not" transform="translate(77,1197)" s:width="30" s:height="20" id="cell_$procmux$12_CMP0">
    <s:alias val="$_NOT_"/>
    <s:alias val="$not"/>
    <s:alias val="$logic_not"/>
    <path d="M0,0 L0,20 L20,10 Z" class="cell_$procmux$12_CMP0"/>
    <circle cx="23" cy="10" r="3" class="cell_$procmux$12_CMP0"/>
    <g s:x="0" s:y="10" s:pid="A"/>
    <g s:x="25" s:y="10" s:pid="Y"/>
  </g>
  <g s:type="mux" transform="translate(218,22)" s:width="20" s:height="40" id="cell_$procmux$3">
    <s:alias val="$pmux"/>
    <s:alias val="$mux"/>
    <s:alias val="$_MUX_"/>
    <path d="M0,0 L20,10 L20,30 L0,40 Z" class="cell_$procmux$3"/>
    <g s:x="0" s:y="10" s:pid="A"/>
    <g s:x="0" s:y="30" s:pid="B"/>
    <g s:x="10" s:y="35" s:pid="S"/>
    <g s:x="20" s:y="20" s:pid="Y"/>
  </g>
  <g s:type="eq" transform="translate(78.66666666666667,617)" s:width="25" s:height="25" id="cell_$procmux$4_CMP0">
    <s:alias val="$eq"/>
    <circle r="12.5" cx="12.5" cy="12.5" class="cell_$procmux$4_CMP0"/>
    <line x1="7.5" x2="17.5" y1="10" y2="10" class="cell_$procmux$4_CMP0"/>
    <line x1="7.5" x2="17.5" y1="15" y2="15" class="cell_$procmux$4_CMP0"/>
    <g s:x="3" s:y="5" s:pid="A"/>
    <g s:x="3" s:y="20" s:pid="B"/>
    <g s:x="25" s:y="12.5" s:pid="Y"/>
  </g>
  <g s:type="eq" transform="translate(78.66666666666667,682)" s:width="25" s:height="25" id="cell_$procmux$5_CMP0">
    <s:alias val="$eq"/>
    <circle r="12.5" cx="12.5" cy="12.5" class="cell_$procmux$5_CMP0"/>
    <line x1="7.5" x2="17.5" y1="10" y2="10" class="cell_$procmux$5_CMP0"/>
    <line x1="7.5" x2="17.5" y1="15" y2="15" class="cell_$procmux$5_CMP0"/>
    <g s:x="3" s:y="5" s:pid="A"/>
    <g s:x="3" s:y="20" s:pid="B"/>
    <g s:x="25" s:y="12.5" s:pid="Y"/>
  </g>
  <g s:type="eq" transform="translate(78.66666666666667,747)" s:width="25" s:height="25" id="cell_$procmux$6_CMP0">
    <s:alias val="$eq"/>
    <circle r="12.5" cx="12.5" cy="12.5" class="cell_$procmux$6_CMP0"/>
    <line x1="7.5" x2="17.5" y1="10" y2="10" class="cell_$procmux$6_CMP0"/>
    <line x1="7.5" x2="17.5" y1="15" y2="15" class="cell_$procmux$6_CMP0"/>
    <g s:x="3" s:y="5" s:pid="A"/>
    <g s:x="3" s:y="20" s:pid="B"/>
    <g s:x="25" s:y="12.5" s:pid="Y"/>
  </g>
  <g s:type="eq" transform="translate(78.66666666666667,812)" s:width="25" s:height="25" id="cell_$procmux$7_CMP0">
    <s:alias val="$eq"/>
    <circle r="12.5" cx="12.5" cy="12.5" class="cell_$procmux$7_CMP0"/>
    <line x1="7.5" x2="17.5" y1="10" y2="10" class="cell_$procmux$7_CMP0"/>
    <line x1="7.5" x2="17.5" y1="15" y2="15" class="cell_$procmux$7_CMP0"/>
    <g s:x="3" s:y="5" s:pid="A"/>
    <g s:x="3" s:y="20" s:pid="B"/>
    <g s:x="25" s:y="12.5" s:pid="Y"/>
  </g>
  <g s:type="eq" transform="translate(78.66666666666667,892)" s:width="25" s:height="25" id="cell_$procmux$8_CMP0">
    <s:alias val="$eq"/>
    <circle r="12.5" cx="12.5" cy="12.5" class="cell_$procmux$8_CMP0"/>
    <line x1="7.5" x2="17.5" y1="10" y2="10" class="cell_$procmux$8_CMP0"/>
    <line x1="7.5" x2="17.5" y1="15" y2="15" class="cell_$procmux$8_CMP0"/>
    <g s:x="3" s:y="5" s:pid="A"/>
    <g s:x="3" s:y="20" s:pid="B"/>
    <g s:x="25" s:y="12.5" s:pid="Y"/>
  </g>
  <g s:type="eq" transform="translate(78.66666666666667,1007)" s:width="25" s:height="25" id="cell_$procmux$9_CMP0">
    <s:alias val="$eq"/>
    <circle r="12.5" cx="12.5" cy="12.5" class="cell_$procmux$9_CMP0"/>
    <line x1="7.5" x2="17.5" y1="10" y2="10" class="cell_$procmux$9_CMP0"/>
    <line x1="7.5" x2="17.5" y1="15" y2="15" class="cell_$procmux$9_CMP0"/>
    <g s:x="3" s:y="5" s:pid="A"/>
    <g s:x="3" s:y="20" s:pid="B"/>
    <g s:x="25" s:y="12.5" s:pid="Y"/>
  </g>
  <g s:type="inputExt" transform="translate(77,562)" s:width="30" s:height="20" id="cell_a">
    <text x="15" y="-4" class="nodelabel cell_a" s:attribute="ref">a</text>
    <s:alias val="$_inputExt_"/>
    <path d="M0,0 L0,20 L15,20 L30,10 L15,0 Z" class="cell_a"/>
    <g s:x="28" s:y="10" s:pid="Y"/>
  </g>
  <g s:type="inputExt" transform="translate(77,497)" s:width="30" s:height="20" id="cell_b">
    <text x="15" y="-4" class="nodelabel cell_b" s:attribute="ref">b</text>
    <s:alias val="$_inputExt_"/>
    <path d="M0,0 L0,20 L15,20 L30,10 L15,0 Z" class="cell_b"/>
    <g s:x="28" s:y="10" s:pid="Y"/>
  </g>
  <g s:type="inputExt" transform="translate(77,432)" s:width="30" s:height="20" id="cell_c">
    <text x="15" y="-4" class="nodelabel cell_c" s:attribute="ref">c</text>
    <s:alias val="$_inputExt_"/>
    <path d="M0,0 L0,20 L15,20 L30,10 L15,0 Z" class="cell_c"/>
    <g s:x="28" s:y="10" s:pid="Y"/>
  </g>
  <g s:type="inputExt" transform="translate(77,367)" s:width="30" s:height="20" id="cell_d">
    <text x="15" y="-4" class="nodelabel cell_d" s:attribute="ref">d</text>
    <s:alias val="$_inputExt_"/>
    <path d="M0,0 L0,20 L15,20 L30,10 L15,0 Z" class="cell_d"/>
    <g s:x="28" s:y="10" s:pid="Y"/>
  </g>
  <g s:type="inputExt" transform="translate(77,302)" s:width="30" s:height="20" id="cell_e">
    <text x="15" y="-4" class="nodelabel cell_e" s:attribute="ref">e</text>
    <s:alias val="$_inputExt_"/>
    <path d="M0,0 L0,20 L15,20 L30,10 L15,0 Z" class="cell_e"/>
    <g s:x="28" s:y="10" s:pid="Y"/>
  </g>
  <g s:type="inputExt" transform="translate(77,237)" s:width="30" s:height="20" id="cell_f">
    <text x="15" y="-4" class="nodelabel cell_f" s:attribute="ref">f</text>
    <s:alias val="$_inputExt_"/>
    <path d="M0,0 L0,20 L15,20 L30,10 L15,0 Z" class="cell_f"/>
    <g s:x="28" s:y="10" s:pid="Y"/>
  </g>
  <g s:type="inputExt" transform="translate(77,172)" s:width="30" s:height="20" id="cell_g">
    <text x="15" y="-4" class="nodelabel cell_g" s:attribute="ref">g</text>
    <s:alias val="$_inputExt_"/>
    <path d="M0,0 L0,20 L15,20 L30,10 L15,0 Z" class="cell_g"/>
    <g s:x="28" s:y="10" s:pid="Y"/>
  </g>
  <g s:type="inputExt" transform="translate(77,107)" s:width="30" s:height="20" id="cell_h">
    <text x="15" y="-4" class="nodelabel cell_h" s:attribute="ref">h</text>
    <s:alias val="$_inputExt_"/>
    <path d="M0,0 L0,20 L15,20 L30,10 L15,0 Z" class="cell_h"/>
    <g s:x="28" s:y="10" s:pid="Y"/>
  </g>
  <g s:type="inputExt" transform="translate(77,42)" s:width="30" s:height="20" id="cell_i">
    <text x="15" y="-4" class="nodelabel cell_i" s:attribute="ref">i</text>
    <s:alias val="$_inputExt_"/>
    <path d="M0,0 L0,20 L15,20 L30,10 L15,0 Z" class="cell_i"/>
    <g s:x="28" s:y="10" s:pid="Y"/>
  </g>
  <g s:type="inputExt" transform="translate(12,887)" s:width="30" s:height="20" id="cell_sel">
    <text x="15" y="-4" class="nodelabel cell_sel" s:attribute="ref">sel</text>
    <s:alias val="$_inputExt_"/>
    <path d="M0,0 L0,20 L15,20 L30,10 L15,0 Z" class="cell_sel"/>
    <g s:x="28" s:y="10" s:pid="Y"/>
  </g>
  <g s:type="outputExt" transform="translate(273,32)" s:width="30" s:height="20" id="cell_out">
    <text x="15" y="-4" class="nodelabel cell_out" s:attribute="ref">out</text>
    <s:alias val="$_outputExt_"/>
    <path d="M30,0 L30,20 L15,20 L0,10 L15,0 Z" class="cell_out"/>
    <g s:x="0" s:y="10" s:pid="A"/>
  </g>
  <g s:type="constant" transform="translate(12,1082)" s:width="30" s:height="20" id="cell_10">
    <text x="15" y="-4" class="nodelabel cell_10" s:attribute="ref">10</text>
    <s:alias val="$_constant_"/>
    <rect width="30" height="20" class="cell_10"/>
    <g s:x="30" s:y="10" s:pid="Y"/>
  </g>
  <g s:type="constant" transform="translate(12,1147)" s:width="30" s:height="20" id="cell_1">
    <text x="15" y="-4" class="nodelabel cell_1" s:attribute="ref">1</text>
    <s:alias val="$_constant_"/>
    <rect width="30" height="20" class="cell_1"/>
    <g s:x="30" s:y="10" s:pid="Y"/>
  </g>
  <g s:type="constant" transform="translate(147,22)" s:width="30" s:height="20" id="cell_1111111111111111">
    <text x="15" y="-4" class="nodelabel cell_1111111111111111" s:attribute="ref">0xffff</text>
    <s:alias val="$_constant_"/>
    <rect width="30" height="20" class="cell_1111111111111111"/>
    <g s:x="30" s:y="10" s:pid="Y"/>
  </g>
  <g s:type="constant" transform="translate(12,627)" s:width="30" s:height="20" id="cell_1000">
    <text x="15" y="-4" class="nodelabel cell_1000" s:attribute="ref">0x8</text>
    <s:alias val="$_constant_"/>
    <rect width="30" height="20" class="cell_1000"/>
    <g s:x="30" s:y="10" s:pid="Y"/>
  </g>
  <g s:type="constant" transform="translate(12,692)" s:width="30" s:height="20" id="cell_111">
    <text x="15" y="-4" class="nodelabel cell_111" s:attribute="ref">111</text>
    <s:alias val="$_constant_"/>
    <rect width="30" height="20" class="cell_111"/>
    <g s:x="30" s:y="10" s:pid="Y"/>
  </g>
  <g s:type="constant" transform="translate(12,757)" s:width="30" s:height="20" id="cell_110">
    <text x="15" y="-4" class="nodelabel cell_110" s:attribute="ref">110</text>
    <s:alias val="$_constant_"/>
    <rect width="30" height="20" class="cell_110"/>
    <g s:x="30" s:y="10" s:pid="Y"/>
  </g>
  <g s:type="constant" transform="translate(12,822)" s:width="30" s:height="20" id="cell_101">
    <text x="15" y="-4" class="nodelabel cell_101" s:attribute="ref">101</text>
    <s:alias val="$_constant_"/>
    <rect width="30" height="20" class="cell_101"/>
    <g s:x="30" s:y="10" s:pid="Y"/>
  </g>
  <g s:type="constant" transform="translate(12,952)" s:width="30" s:height="20" id="cell_100">
    <text x="15" y="-4" class="nodelabel cell_100" s:attribute="ref">100</text>
    <s:alias val="$_constant_"/>
    <rect width="30" height="20" class="cell_100"/>
    <g s:x="30" s:y="10" s:pid="Y"/>
  </g>
  <g s:type="constant" transform="translate(12,1017)" s:width="30" s:height="20" id="cell_11">
    <text x="15" y="-4" class="nodelabel cell_11" s:attribute="ref">11</text>
    <s:alias val="$_constant_"/>
    <rect width="30" height="20" class="cell_11"/>
    <g s:x="30" s:y="10" s:pid="Y"/>
  </g>
  <g s:type="join" transform="translate(151,221.5)" s:width="4" s:height="40" id="cell_$join$,130,131,132,133,134,135,136,137,138,139,140,141,142,143,144,145,114,115,116,117,118,119,120,121,122,123,124,125,126,127,128,129,98,99,100,101,102,103,104,105,106,107,108,109,110,111,112,113,82,83,84,85,86,87,88,89,90,91,92,93,94,95,96,97,66,67,68,69,70,71,72,73,74,75,76,77,78,79,80,81,50,51,52,53,54,55,56,57,58,59,60,61,62,63,64,65,34,35,36,37,38,39,40,41,42,43,44,45,46,47,48,49,18,19,20,21,22,23,24,25,26,27,28,29,30,31,32,33,2,3,4,5,6,7,8,9,10,11,12,13,14,15,16,17,">
    <rect width="5" height="180" class="splitjoinBody" s:generic="body"/>
    <s:alias val="$_join_"/>
    <g s:x="5" s:y="20" s:pid="out"/>
    <g transform="translate(0,10)" s:x="0" s:y="10" s:pid="in0">
      <text x="-3" y="-4" class="inputPortLabel">0:15</text>
    </g>
    <g transform="translate(0,30)" s:x="0" s:y="10" s:pid="in0">
      <text x="-3" y="-4" class="inputPortLabel">16:31</text>
    </g>
    <g transform="translate(0,50)" s:x="0" s:y="10" s:pid="in0">
      <text x="-3" y="-4" class="inputPortLabel">32:47</text>
    </g>
    <g transform="translate(0,70)" s:x="0" s:y="10" s:pid="in0">
      <text x="-3" y="-4" class="inputPortLabel">48:63</text>
    </g>
    <g transform="translate(0,90)" s:x="0" s:y="10" s:pid="in0">
      <text x="-3" y="-4" class="inputPortLabel">64:79</text>
    </g>
    <g transform="translate(0,110)" s:x="0" s:y="10" s:pid="in0">
      <text x="-3" y="-4" class="inputPortLabel">80:95</text>
    </g>
    <g transform="translate(0,130)" s:x="0" s:y="10" s:pid="in0">
      <text x="-3" y="-4" class="inputPortLabel">96:111</text>
    </g>
    <g transform="translate(0,150)" s:x="0" s:y="10" s:pid="in0">
      <text x="-3" y="-4" class="inputPortLabel">112:127</text>
    </g>
    <g transform="translate(0,170)" s:x="0" s:y="10" s:pid="in0">
      <text x="-3" y="-4" class="inputPortLabel">128:143</text>
    </g>
  </g>
  <g s:type="join" transform="translate(151,814)" s:width="4" s:height="40" id="cell_$join$,169,170,171,172,173,174,166,167,168,">
    <rect width="5" height="180" class="splitjoinBody" s:generic="body"/>
    <s:alias val="$_join_"/>
    <g s:x="5" s:y="20" s:pid="out"/>
    <g transform="translate(0,10)" s:x="0" s:y="10" s:pid="in0">
      <text x="-3" y="-4" class="inputPortLabel">0</text>
    </g>
    <g transform="translate(0,30)" s:x="0" s:y="10" s:pid="in0">
      <text x="-3" y="-4" class="inputPortLabel">1</text>
    </g>
    <g transform="translate(0,50)" s:x="0" s:y="10" s:pid="in0">
      <text x="-3" y="-4" class="inputPortLabel">2</text>
    </g>
    <g transform="translate(0,70)" s:x="0" s:y="10" s:pid="in0">
      <text x="-3" y="-4" class="inputPortLabel">3</text>
    </g>
    <g transform="translate(0,90)" s:x="0" s:y="10" s:pid="in0">
      <text x="-3" y="-4" class="inputPortLabel">4</text>
    </g>
    <g transform="translate(0,110)" s:x="0" s:y="10" s:pid="in0">
      <text x="-3" y="-4" class="inputPortLabel">5</text>
    </g>
    <g transform="translate(0,130)" s:x="0" s:y="10" s:pid="in0">
      <text x="-3" y="-4" class="inputPortLabel">6</text>
    </g>
    <g transform="translate(0,150)" s:x="0" s:y="10" s:pid="in0">
      <text x="-3" y="-4" class="inputPortLabel">7</text>
    </g>
    <g transform="translate(0,170)" s:x="0" s:y="10" s:pid="in0">
      <text x="-3" y="-4" class="inputPortLabel">8</text>
    </g>
  </g>
  <line x1="40" x2="62" y1="897" y2="897" class="net_146,147,148,149"/>
  <line x1="62" x2="62" y1="897" y2="1077" class="net_146,147,148,149"/>
  <circle cx="62" cy="897" r="2" style="fill:#000" class="net_146,147,148,149"/>
  <circle cx="62" cy="1077" r="2" style="fill:#000" class="net_146,147,148,149"/>
  <line x1="62" x2="81.66666666666667" y1="1077" y2="1077" class="net_146,147,148,149"/>
  <line x1="40" x2="62" y1="897" y2="897" class="net_146,147,148,149"/>
  <line x1="62" x2="62" y1="897" y2="1142" class="net_146,147,148,149"/>
  <circle cx="62" cy="1142" r="2" style="fill:#000" class="net_146,147,148,149"/>
  <line x1="62" x2="81.66666666666667" y1="1142" y2="1142" class="net_146,147,148,149"/>
  <line x1="40" x2="62" y1="897" y2="897" class="net_146,147,148,149"/>
  <line x1="62" x2="62" y1="897" y2="1207" class="net_146,147,148,149"/>
  <line x1="62" x2="77" y1="1207" y2="1207" class="net_146,147,148,149"/>
  <line x1="40" x2="62" y1="897" y2="897" class="net_146,147,148,149"/>
  <line x1="62" x2="62" y1="897" y2="622" class="net_146,147,148,149"/>
  <line x1="62" x2="81.66666666666667" y1="622" y2="622" class="net_146,147,148,149"/>
  <line x1="40" x2="62" y1="897" y2="897" class="net_146,147,148,149"/>
  <line x1="62" x2="62" y1="897" y2="687" class="net_146,147,148,149"/>
  <circle cx="62" cy="687" r="2" style="fill:#000" class="net_146,147,148,149"/>
  <line x1="62" x2="81.66666666666667" y1="687" y2="687" class="net_146,147,148,149"/>
  <line x1="40" x2="62" y1="897" y2="897" class="net_146,147,148,149"/>
  <line x1="62" x2="62" y1="897" y2="752" class="net_146,147,148,149"/>
  <circle cx="62" cy="752" r="2" style="fill:#000" class="net_146,147,148,149"/>
  <line x1="62" x2="81.66666666666667" y1="752" y2="752" class="net_146,147,148,149"/>
  <line x1="40" x2="62" y1="897" y2="897" class="net_146,147,148,149"/>
  <line x1="62" x2="62" y1="897" y2="817" class="net_146,147,148,149"/>
  <circle cx="62" cy="817" r="2" style="fill:#000" class="net_146,147,148,149"/>
  <line x1="62" x2="81.66666666666667" y1="817" y2="817" class="net_146,147,148,149"/>
  <line x1="40" x2="81.66666666666667" y1="897" y2="897" class="net_146,147,148,149"/>
  <line x1="40" x2="62" y1="897" y2="897" class="net_146,147,148,149"/>
  <line x1="62" x2="62" y1="897" y2="1012" class="net_146,147,148,149"/>
  <circle cx="62" cy="1012" r="2" style="fill:#000" class="net_146,147,148,149"/>
  <line x1="62" x2="81.66666666666667" y1="1012" y2="1012" class="net_146,147,148,149"/>
  <line x1="42" x2="81.66666666666667" y1="1092" y2="1092" class="net_175,176"/>
  <line x1="42" x2="81.66666666666667" y1="1157" y2="1157" class="net_177"/>
  <line x1="177" x2="218" y1="32" y2="32" class="net_178,179,180,181,182,183,184,185,186,187,188,189,190,191,192,193"/>
  <line x1="157" x2="193" y1="242" y2="242" class="net_130,131,132,133,134,135,136,137,138,139,140,141,142,143,144,145,114,115,116,117,118,119,120,121,122,123,124,125,126,127,128,129,98,99,100,101,102,103,104,105,106,107,108,109,110,111,112,113,82,83,84,85,86,87,88,89,90,91,92,93,94,95,96,97,66,67,68,69,70,71,72,73,74,75,76,77,78,79,80,81,50,51,52,53,54,55,56,57,58,59,60,61,62,63,64,65,34,35,36,37,38,39,40,41,42,43,44,45,46,47,48,49,18,19,20,21,22,23,24,25,26,27,28,29,30,31,32,33,2,3,4,5,6,7,8,9,10,11,12,13,14,15,16,17"/>
  <line x1="193" x2="193" y1="242" y2="52" class="net_130,131,132,133,134,135,136,137,138,139,140,141,142,143,144,145,114,115,116,117,118,119,120,121,122,123,124,125,126,127,128,129,98,99,100,101,102,103,104,105,106,107,108,109,110,111,112,113,82,83,84,85,86,87,88,89,90,91,92,93,94,95,96,97,66,67,68,69,70,71,72,73,74,75,76,77,78,79,80,81,50,51,52,53,54,55,56,57,58,59,60,61,62,63,64,65,34,35,36,37,38,39,40,41,42,43,44,45,46,47,48,49,18,19,20,21,22,23,24,25,26,27,28,29,30,31,32,33,2,3,4,5,6,7,8,9,10,11,12,13,14,15,16,17"/>
  <line x1="193" x2="218" y1="52" y2="52" class="net_130,131,132,133,134,135,136,137,138,139,140,141,142,143,144,145,114,115,116,117,118,119,120,121,122,123,124,125,126,127,128,129,98,99,100,101,102,103,104,105,106,107,108,109,110,111,112,113,82,83,84,85,86,87,88,89,90,91,92,93,94,95,96,97,66,67,68,69,70,71,72,73,74,75,76,77,78,79,80,81,50,51,52,53,54,55,56,57,58,59,60,61,62,63,64,65,34,35,36,37,38,39,40,41,42,43,44,45,46,47,48,49,18,19,20,21,22,23,24,25,26,27,28,29,30,31,32,33,2,3,4,5,6,7,8,9,10,11,12,13,14,15,16,17"/>
  <line x1="157" x2="228" y1="834.5" y2="834.5" class="net_169,170,171,172,173,174,166,167,168"/>
  <line x1="228" x2="228" y1="834.5" y2="57" class="net_169,170,171,172,173,174,166,167,168"/>
  <line x1="42" x2="81.66666666666667" y1="637" y2="637" class="net_194,195,196,197"/>
  <line x1="42" x2="81.66666666666667" y1="702" y2="702" class="net_198,199,200"/>
  <line x1="42" x2="81.66666666666667" y1="767" y2="767" class="net_201,202,203"/>
  <line x1="42" x2="81.66666666666667" y1="832" y2="832" class="net_204,205,206"/>
  <line x1="42" x2="52" y1="962" y2="962" class="net_207,208,209"/>
  <line x1="52" x2="52" y1="962" y2="912" class="net_207,208,209"/>
  <line x1="52" x2="81.66666666666667" y1="912" y2="912" class="net_207,208,209"/>
  <line x1="42" x2="81.66666666666667" y1="1027" y2="1027" class="net_210,211"/>
  <line x1="238" x2="273" y1="42" y2="42" class="net_150,151,152,153,154,155,156,157,158,159,160,161,162,163,164,165"/>
  <line x1="105" x2="151.5" y1="52" y2="52" class="net_130,131,132,133,134,135,136,137,138,139,140,141,142,143,144,145"/>
  <line x1="151.5" x2="151.5" y1="52" y2="231.5" class="net_130,131,132,133,134,135,136,137,138,139,140,141,142,143,144,145"/>
  <line x1="105" x2="137" y1="117" y2="117" class="net_114,115,116,117,118,119,120,121,122,123,124,125,126,127,128,129"/>
  <line x1="137" x2="137" y1="117" y2="252" class="net_114,115,116,117,118,119,120,121,122,123,124,125,126,127,128,129"/>
  <line x1="137" x2="151" y1="252" y2="252" class="net_114,115,116,117,118,119,120,121,122,123,124,125,126,127,128,129"/>
  <line x1="105" x2="127" y1="182" y2="182" class="net_98,99,100,101,102,103,104,105,106,107,108,109,110,111,112,113"/>
  <line x1="127" x2="127" y1="182" y2="272" class="net_98,99,100,101,102,103,104,105,106,107,108,109,110,111,112,113"/>
  <line x1="127" x2="151" y1="272" y2="272" class="net_98,99,100,101,102,103,104,105,106,107,108,109,110,111,112,113"/>
  <line x1="105" x2="117" y1="247" y2="247" class="net_82,83,84,85,86,87,88,89,90,91,92,93,94,95,96,97"/>
  <line x1="117" x2="117" y1="247" y2="292" class="net_82,83,84,85,86,87,88,89,90,91,92,93,94,95,96,97"/>
  <line x1="117" x2="151" y1="292" y2="292" class="net_82,83,84,85,86,87,88,89,90,91,92,93,94,95,96,97"/>
  <line x1="105" x2="151" y1="312" y2="312" class="net_66,67,68,69,70,71,72,73,74,75,76,77,78,79,80,81"/>
  <line x1="105" x2="117" y1="377" y2="377" class="net_50,51,52,53,54,55,56,57,58,59,60,61,62,63,64,65"/>
  <line x1="117" x2="117" y1="377" y2="332" class="net_50,51,52,53,54,55,56,57,58,59,60,61,62,63,64,65"/>
  <line x1="117" x2="151" y1="332" y2="332" class="net_50,51,52,53,54,55,56,57,58,59,60,61,62,63,64,65"/>
  <line x1="105" x2="127" y1="442" y2="442" class="net_34,35,36,37,38,39,40,41,42,43,44,45,46,47,48,49"/>
  <line x1="127" x2="127" y1="442" y2="352" class="net_34,35,36,37,38,39,40,41,42,43,44,45,46,47,48,49"/>
  <line x1="127" x2="151" y1="352" y2="352" class="net_34,35,36,37,38,39,40,41,42,43,44,45,46,47,48,49"/>
  <line x1="105" x2="137" y1="507" y2="507" class="net_18,19,20,21,22,23,24,25,26,27,28,29,30,31,32,33"/>
  <line x1="137" x2="137" y1="507" y2="372" class="net_18,19,20,21,22,23,24,25,26,27,28,29,30,31,32,33"/>
  <line x1="137" x2="151" y1="372" y2="372" class="net_18,19,20,21,22,23,24,25,26,27,28,29,30,31,32,33"/>
  <line x1="105" x2="151.5" y1="572" y2="572" class="net_2,3,4,5,6,7,8,9,10,11,12,13,14,15,16,17"/>
  <line x1="151.5" x2="151.5" y1="572" y2="392.5" class="net_2,3,4,5,6,7,8,9,10,11,12,13,14,15,16,17"/>
  <line x1="103.66666666666667" x2="151.5" y1="629.5" y2="629.5" class="net_169"/>
  <line x1="151.5" x2="151.5" y1="629.5" y2="824" class="net_169"/>
  <line x1="103.66666666666667" x2="137" y1="694.5" y2="694.5" class="net_170"/>
  <line x1="137" x2="137" y1="694.5" y2="844.5" class="net_170"/>
  <line x1="137" x2="151" y1="844.5" y2="844.5" class="net_170"/>
  <line x1="103.66666666666667" x2="127" y1="759.5" y2="759.5" class="net_171"/>
  <line x1="127" x2="127" y1="759.5" y2="864.5" class="net_171"/>
  <line x1="127" x2="151" y1="864.5" y2="864.5" class="net_171"/>
  <line x1="103.66666666666667" x2="117" y1="824.5" y2="824.5" class="net_172"/>
  <line x1="117" x2="117" y1="824.5" y2="884.5" class="net_172"/>
  <line x1="117" x2="151" y1="884.5" y2="884.5" class="net_172"/>
  <line x1="103.66666666666667" x2="151" y1="904.5" y2="904.5" class="net_173"/>
  <line x1="103.66666666666667" x2="117" y1="1019.5" y2="1019.5" class="net_174"/>
  <line x1="117" x2="117" y1="1019.5" y2="924.5" class="net_174"/>
  <line x1="117" x2="151" y1="924.5" y2="924.5" class="net_174"/>
  <line x1="103.66666666666667" x2="127" y1="1084.5" y2="1084.5" class="net_166"/>
  <line x1="127" x2="127" y1="1084.5" y2="944.5" class="net_166"/>
  <line x1="127" x2="151" y1="944.5" y2="944.5" class="net_166"/>
  <line x1="103.66666666666667" x2="137" y1="1149.5" y2="1149.5" class="net_167"/>
  <line x1="137" x2="137" y1="1149.5" y2="964.5" class="net_167"/>
  <line x1="137" x2="151" y1="964.5" y2="964.5" class="net_167"/>
  <line x1="102" x2="151.5" y1="1207" y2="1207" class="net_168"/>
  <line x1="151.5" x2="151.5" y1="1207" y2="985" class="net_168"/>
</svg>
