<svg xmlns="http://www.w3.org/2000/svg" xmlns:xlink="http://www.w3.org/1999/xlink" xmlns:s="https://github.com/nturley/netlistsvg" width="781" height="657">
  <style>svg {
    stroke:#000;
    fill:none;
  }
  text {
    fill:#000;
    stroke:none;
    font-size:10px;
    font-weight: bold;
    font-family: "Courier New", monospace;
  }
  .nodelabel {
    text-anchor: middle;
  }
  .inputPortLabel {
    text-anchor: end;
  }
  .splitjoinBody {
    fill:#000;
  }</style>
  <g s:type="and" transform="translate(279,333)" s:width="30" s:height="25" id="cell_$auto$aigmap.cc:123:execute$103">
    <s:alias val="$and"/>
    <s:alias val="$logic_and"/>
    <s:alias val="$_AND_"/>
    <path d="M0,0 L0,25 L15,25 A15 12.5 0 0 0 15,0 Z" class="cell_$auto$aigmap.cc:123:execute$103"/>
    <g s:x="0" s:y="5" s:pid="A"/>
    <g s:x="0" s:y="20" s:pid="B"/>
    <g s:x="30" s:y="12.5" s:pid="Y"/>
  </g>
  <g s:type="and" transform="translate(349,252)" s:width="30" s:height="25" id="cell_$auto$aigmap.cc:123:execute$23">
    <s:alias val="$and"/>
    <s:alias val="$logic_and"/>
    <s:alias val="$_AND_"/>
    <path d="M0,0 L0,25 L15,25 A15 12.5 0 0 0 15,0 Z" class="cell_$auto$aigmap.cc:123:execute$23"/>
    <g s:x="0" s:y="5" s:pid="A"/>
    <g s:x="0" s:y="20" s:pid="B"/>
    <g s:x="30" s:y="12.5" s:pid="Y"/>
  </g>
  <g s:type="and" transform="translate(349,340.5)" s:width="30" s:height="25" id="cell_$auto$aigmap.cc:123:execute$27">
    <s:alias val="$and"/>
    <s:alias val="$logic_and"/>
    <s:alias val="$_AND_"/>
    <path d="M0,0 L0,25 L15,25 A15 12.5 0 0 0 15,0 Z" class="cell_$auto$aigmap.cc:123:execute$27"/>
    <g s:x="0" s:y="5" s:pid="A"/>
    <g s:x="0" s:y="20" s:pid="B"/>
    <g s:x="30" s:y="12.5" s:pid="Y"/>
  </g>
  <g s:type="and" transform="translate(479,259.5)" s:width="30" s:height="25" id="cell_$auto$aigmap.cc:123:execute$31">
    <s:alias val="$and"/>
    <s:alias val="$logic_and"/>
    <s:alias val="$_AND_"/>
    <path d="M0,0 L0,25 L15,25 A15 12.5 0 0 0 15,0 Z" class="cell_$auto$aigmap.cc:123:execute$31"/>
    <g s:x="0" s:y="5" s:pid="A"/>
    <g s:x="0" s:y="20" s:pid="B"/>
    <g s:x="30" s:y="12.5" s:pid="Y"/>
  </g>
  <g s:type="and" transform="translate(349,132)" s:width="30" s:height="25" id="cell_$auto$aigmap.cc:123:execute$37">
    <s:alias val="$and"/>
    <s:alias val="$logic_and"/>
    <s:alias val="$_AND_"/>
    <path d="M0,0 L0,25 L15,25 A15 12.5 0 0 0 15,0 Z" class="cell_$auto$aigmap.cc:123:execute$37"/>
    <g s:x="0" s:y="5" s:pid="A"/>
    <g s:x="0" s:y="20" s:pid="B"/>
    <g s:x="30" s:y="12.5" s:pid="Y"/>
  </g>
  <g s:type="and" transform="translate(349,192)" s:width="30" s:height="25" id="cell_$auto$aigmap.cc:123:execute$41">
    <s:alias val="$and"/>
    <s:alias val="$logic_and"/>
    <s:alias val="$_AND_"/>
    <path d="M0,0 L0,25 L15,25 A15 12.5 0 0 0 15,0 Z" class="cell_$auto$aigmap.cc:123:execute$41"/>
    <g s:x="0" s:y="5" s:pid="A"/>
    <g s:x="0" s:y="20" s:pid="B"/>
    <g s:x="30" s:y="12.5" s:pid="Y"/>
  </g>
  <g s:type="and" transform="translate(479,139.5)" s:width="30" s:height="25" id="cell_$auto$aigmap.cc:123:execute$45">
    <s:alias val="$and"/>
    <s:alias val="$logic_and"/>
    <s:alias val="$_AND_"/>
    <path d="M0,0 L0,25 L15,25 A15 12.5 0 0 0 15,0 Z" class="cell_$auto$aigmap.cc:123:execute$45"/>
    <g s:x="0" s:y="5" s:pid="A"/>
    <g s:x="0" s:y="20" s:pid="B"/>
    <g s:x="30" s:y="12.5" s:pid="Y"/>
  </g>
  <g s:type="and" transform="translate(349,12)" s:width="30" s:height="25" id="cell_$auto$aigmap.cc:123:execute$51">
    <s:alias val="$and"/>
    <s:alias val="$logic_and"/>
    <s:alias val="$_AND_"/>
    <path d="M0,0 L0,25 L15,25 A15 12.5 0 0 0 15,0 Z" class="cell_$auto$aigmap.cc:123:execute$51"/>
    <g s:x="0" s:y="5" s:pid="A"/>
    <g s:x="0" s:y="20" s:pid="B"/>
    <g s:x="30" s:y="12.5" s:pid="Y"/>
  </g>
  <g s:type="and" transform="translate(349,72)" s:width="30" s:height="25" id="cell_$auto$aigmap.cc:123:execute$55">
    <s:alias val="$and"/>
    <s:alias val="$logic_and"/>
    <s:alias val="$_AND_"/>
    <path d="M0,0 L0,25 L15,25 A15 12.5 0 0 0 15,0 Z" class="cell_$auto$aigmap.cc:123:execute$55"/>
    <g s:x="0" s:y="5" s:pid="A"/>
    <g s:x="0" s:y="20" s:pid="B"/>
    <g s:x="30" s:y="12.5" s:pid="Y"/>
  </g>
  <g s:type="and" transform="translate(479,19.5)" s:width="30" s:height="25" id="cell_$auto$aigmap.cc:123:execute$59">
    <s:alias val="$and"/>
    <s:alias val="$logic_and"/>
    <s:alias val="$_AND_"/>
    <path d="M0,0 L0,25 L15,25 A15 12.5 0 0 0 15,0 Z" class="cell_$auto$aigmap.cc:123:execute$59"/>
    <g s:x="0" s:y="5" s:pid="A"/>
    <g s:x="0" s:y="20" s:pid="B"/>
    <g s:x="30" s:y="12.5" s:pid="Y"/>
  </g>
  <g s:type="and" transform="translate(349,538)" s:width="30" s:height="25" id="cell_$auto$aigmap.cc:123:execute$65">
    <s:alias val="$and"/>
    <s:alias val="$logic_and"/>
    <s:alias val="$_AND_"/>
    <path d="M0,0 L0,25 L15,25 A15 12.5 0 0 0 15,0 Z" class="cell_$auto$aigmap.cc:123:execute$65"/>
    <g s:x="0" s:y="5" s:pid="A"/>
    <g s:x="0" s:y="20" s:pid="B"/>
    <g s:x="30" s:y="12.5" s:pid="Y"/>
  </g>
  <g s:type="and" transform="translate(349,598)" s:width="30" s:height="25" id="cell_$auto$aigmap.cc:123:execute$69">
    <s:alias val="$and"/>
    <s:alias val="$logic_and"/>
    <s:alias val="$_AND_"/>
    <path d="M0,0 L0,25 L15,25 A15 12.5 0 0 0 15,0 Z" class="cell_$auto$aigmap.cc:123:execute$69"/>
    <g s:x="0" s:y="5" s:pid="A"/>
    <g s:x="0" s:y="20" s:pid="B"/>
    <g s:x="30" s:y="12.5" s:pid="Y"/>
  </g>
  <g s:type="and" transform="translate(479,545.5)" s:width="30" s:height="25" id="cell_$auto$aigmap.cc:123:execute$73">
    <s:alias val="$and"/>
    <s:alias val="$logic_and"/>
    <s:alias val="$_AND_"/>
    <path d="M0,0 L0,25 L15,25 A15 12.5 0 0 0 15,0 Z" class="cell_$auto$aigmap.cc:123:execute$73"/>
    <g s:x="0" s:y="5" s:pid="A"/>
    <g s:x="0" s:y="20" s:pid="B"/>
    <g s:x="30" s:y="12.5" s:pid="Y"/>
  </g>
  <g s:type="and" transform="translate(349,418)" s:width="30" s:height="25" id="cell_$auto$aigmap.cc:123:execute$79">
    <s:alias val="$and"/>
    <s:alias val="$logic_and"/>
    <s:alias val="$_AND_"/>
    <path d="M0,0 L0,25 L15,25 A15 12.5 0 0 0 15,0 Z" class="cell_$auto$aigmap.cc:123:execute$79"/>
    <g s:x="0" s:y="5" s:pid="A"/>
    <g s:x="0" s:y="20" s:pid="B"/>
    <g s:x="30" s:y="12.5" s:pid="Y"/>
  </g>
  <g s:type="and" transform="translate(349,478)" s:width="30" s:height="25" id="cell_$auto$aigmap.cc:123:execute$83">
    <s:alias val="$and"/>
    <s:alias val="$logic_and"/>
    <s:alias val="$_AND_"/>
    <path d="M0,0 L0,25 L15,25 A15 12.5 0 0 0 15,0 Z" class="cell_$auto$aigmap.cc:123:execute$83"/>
    <g s:x="0" s:y="5" s:pid="A"/>
    <g s:x="0" s:y="20" s:pid="B"/>
    <g s:x="30" s:y="12.5" s:pid="Y"/>
  </g>
  <g s:type="and" transform="translate(479,425.5)" s:width="30" s:height="25" id="cell_$auto$aigmap.cc:123:execute$87">
    <s:alias val="$and"/>
    <s:alias val="$logic_and"/>
    <s:alias val="$_AND_"/>
    <path d="M0,0 L0,25 L15,25 A15 12.5 0 0 0 15,0 Z" class="cell_$auto$aigmap.cc:123:execute$87"/>
    <g s:x="0" s:y="5" s:pid="A"/>
    <g s:x="0" s:y="20" s:pid="B"/>
    <g s:x="30" s:y="12.5" s:pid="Y"/>
  </g>
  <g s:type="and" transform="translate(149,325.5)" s:width="30" s:height="25" id="cell_$auto$aigmap.cc:123:execute$95">
    <s:alias val="$and"/>
    <s:alias val="$logic_and"/>
    <s:alias val="$_AND_"/>
    <path d="M0,0 L0,25 L15,25 A15 12.5 0 0 0 15,0 Z" class="cell_$auto$aigmap.cc:123:execute$95"/>
    <g s:x="0" s:y="5" s:pid="A"/>
    <g s:x="0" s:y="20" s:pid="B"/>
    <g s:x="30" s:y="12.5" s:pid="Y"/>
  </g>
  <g s:type="and" transform="translate(149,445.5)" s:width="30" s:height="25" id="cell_$auto$aigmap.cc:123:execute$99">
    <s:alias val="$and"/>
    <s:alias val="$logic_and"/>
    <s:alias val="$_AND_"/>
    <path d="M0,0 L0,25 L15,25 A15 12.5 0 0 0 15,0 Z" class="cell_$auto$aigmap.cc:123:execute$99"/>
    <g s:x="0" s:y="5" s:pid="A"/>
    <g s:x="0" s:y="20" s:pid="B"/>
    <g s:x="30" s:y="12.5" s:pid="Y"/>
  </g>
  <g s:type="not" transform="translate(214,448)" s:width="30" s:height="20" id="cell_$auto$aigmap.cc:132:execute$101">
    <s:alias val="$_NOT_"/>
    <s:alias val="$not"/>
    <s:alias val="$logic_not"/>
    <path d="M0,0 L0,20 L20,10 Z" class="cell_$auto$aigmap.cc:132:execute$101"/>
    <circle cx="23" cy="10" r="3" class="cell_$auto$aigmap.cc:132:execute$101"/>
    <g s:x="0" s:y="10" s:pid="A"/>
    <g s:x="25" s:y="10" s:pid="Y"/>
  </g>
  <g s:type="not" transform="translate(279,393)" s:width="30" s:height="20" id="cell_$auto$aigmap.cc:132:execute$21">
    <s:alias val="$_NOT_"/>
    <s:alias val="$not"/>
    <s:alias val="$logic_not"/>
    <path d="M0,0 L0,20 L20,10 Z" class="cell_$auto$aigmap.cc:132:execute$21"/>
    <circle cx="23" cy="10" r="3" class="cell_$auto$aigmap.cc:132:execute$21"/>
    <g s:x="0" s:y="10" s:pid="A"/>
    <g s:x="25" s:y="10" s:pid="Y"/>
  </g>
  <g s:type="not" transform="translate(414,254.5)" s:width="30" s:height="20" id="cell_$auto$aigmap.cc:132:execute$25">
    <s:alias val="$_NOT_"/>
    <s:alias val="$not"/>
    <s:alias val="$logic_not"/>
    <path d="M0,0 L0,20 L20,10 Z" class="cell_$auto$aigmap.cc:132:execute$25"/>
    <circle cx="23" cy="10" r="3" class="cell_$auto$aigmap.cc:132:execute$25"/>
    <g s:x="0" s:y="10" s:pid="A"/>
    <g s:x="25" s:y="10" s:pid="Y"/>
  </g>
  <g s:type="not" transform="translate(414,343)" s:width="30" s:height="20" id="cell_$auto$aigmap.cc:132:execute$29">
    <s:alias val="$_NOT_"/>
    <s:alias val="$not"/>
    <s:alias val="$logic_not"/>
    <path d="M0,0 L0,20 L20,10 Z" class="cell_$auto$aigmap.cc:132:execute$29"/>
    <circle cx="23" cy="10" r="3" class="cell_$auto$aigmap.cc:132:execute$29"/>
    <g s:x="0" s:y="10" s:pid="A"/>
    <g s:x="25" s:y="10" s:pid="Y"/>
  </g>
  <g s:type="not" transform="translate(544,262)" s:width="30" s:height="20" id="cell_$auto$aigmap.cc:132:execute$33">
    <s:alias val="$_NOT_"/>
    <s:alias val="$not"/>
    <s:alias val="$logic_not"/>
    <path d="M0,0 L0,20 L20,10 Z" class="cell_$auto$aigmap.cc:132:execute$33"/>
    <circle cx="23" cy="10" r="3" class="cell_$auto$aigmap.cc:132:execute$33"/>
    <g s:x="0" s:y="10" s:pid="A"/>
    <g s:x="25" s:y="10" s:pid="Y"/>
  </g>
  <g s:type="not" transform="translate(279,208)" s:width="30" s:height="20" id="cell_$auto$aigmap.cc:132:execute$35">
    <s:alias val="$_NOT_"/>
    <s:alias val="$not"/>
    <s:alias val="$logic_not"/>
    <path d="M0,0 L0,20 L20,10 Z" class="cell_$auto$aigmap.cc:132:execute$35"/>
    <circle cx="23" cy="10" r="3" class="cell_$auto$aigmap.cc:132:execute$35"/>
    <g s:x="0" s:y="10" s:pid="A"/>
    <g s:x="25" s:y="10" s:pid="Y"/>
  </g>
  <g s:type="not" transform="translate(414,134.5)" s:width="30" s:height="20" id="cell_$auto$aigmap.cc:132:execute$39">
    <s:alias val="$_NOT_"/>
    <s:alias val="$not"/>
    <s:alias val="$logic_not"/>
    <path d="M0,0 L0,20 L20,10 Z" class="cell_$auto$aigmap.cc:132:execute$39"/>
    <circle cx="23" cy="10" r="3" class="cell_$auto$aigmap.cc:132:execute$39"/>
    <g s:x="0" s:y="10" s:pid="A"/>
    <g s:x="25" s:y="10" s:pid="Y"/>
  </g>
  <g s:type="not" transform="translate(414,194.5)" s:width="30" s:height="20" id="cell_$auto$aigmap.cc:132:execute$43">
    <s:alias val="$_NOT_"/>
    <s:alias val="$not"/>
    <s:alias val="$logic_not"/>
    <path d="M0,0 L0,20 L20,10 Z" class="cell_$auto$aigmap.cc:132:execute$43"/>
    <circle cx="23" cy="10" r="3" class="cell_$auto$aigmap.cc:132:execute$43"/>
    <g s:x="0" s:y="10" s:pid="A"/>
    <g s:x="25" s:y="10" s:pid="Y"/>
  </g>
  <g s:type="not" transform="translate(544,142)" s:width="30" s:height="20" id="cell_$auto$aigmap.cc:132:execute$47">
    <s:alias val="$_NOT_"/>
    <s:alias val="$not"/>
    <s:alias val="$logic_not"/>
    <path d="M0,0 L0,20 L20,10 Z" class="cell_$auto$aigmap.cc:132:execute$47"/>
    <circle cx="23" cy="10" r="3" class="cell_$auto$aigmap.cc:132:execute$47"/>
    <g s:x="0" s:y="10" s:pid="A"/>
    <g s:x="25" s:y="10" s:pid="Y"/>
  </g>
  <g s:type="not" transform="translate(279,88)" s:width="30" s:height="20" id="cell_$auto$aigmap.cc:132:execute$49">
    <s:alias val="$_NOT_"/>
    <s:alias val="$not"/>
    <s:alias val="$logic_not"/>
    <path d="M0,0 L0,20 L20,10 Z" class="cell_$auto$aigmap.cc:132:execute$49"/>
    <circle cx="23" cy="10" r="3" class="cell_$auto$aigmap.cc:132:execute$49"/>
    <g s:x="0" s:y="10" s:pid="A"/>
    <g s:x="25" s:y="10" s:pid="Y"/>
  </g>
  <g s:type="not" transform="translate(414,14.5)" s:width="30" s:height="20" id="cell_$auto$aigmap.cc:132:execute$53">
    <s:alias val="$_NOT_"/>
    <s:alias val="$not"/>
    <s:alias val="$logic_not"/>
    <path d="M0,0 L0,20 L20,10 Z" class="cell_$auto$aigmap.cc:132:execute$53"/>
    <circle cx="23" cy="10" r="3" class="cell_$auto$aigmap.cc:132:execute$53"/>
    <g s:x="0" s:y="10" s:pid="A"/>
    <g s:x="25" s:y="10" s:pid="Y"/>
  </g>
  <g s:type="not" transform="translate(414,74.5)" s:width="30" s:height="20" id="cell_$auto$aigmap.cc:132:execute$57">
    <s:alias val="$_NOT_"/>
    <s:alias val="$not"/>
    <s:alias val="$logic_not"/>
    <path d="M0,0 L0,20 L20,10 Z" class="cell_$auto$aigmap.cc:132:execute$57"/>
    <circle cx="23" cy="10" r="3" class="cell_$auto$aigmap.cc:132:execute$57"/>
    <g s:x="0" s:y="10" s:pid="A"/>
    <g s:x="25" s:y="10" s:pid="Y"/>
  </g>
  <g s:type="not" transform="translate(544,22)" s:width="30" s:height="20" id="cell_$auto$aigmap.cc:132:execute$61">
    <s:alias val="$_NOT_"/>
    <s:alias val="$not"/>
    <s:alias val="$logic_not"/>
    <path d="M0,0 L0,20 L20,10 Z" class="cell_$auto$aigmap.cc:132:execute$61"/>
    <circle cx="23" cy="10" r="3" class="cell_$auto$aigmap.cc:132:execute$61"/>
    <g s:x="0" s:y="10" s:pid="A"/>
    <g s:x="25" s:y="10" s:pid="Y"/>
  </g>
  <g s:type="not" transform="translate(279,614)" s:width="30" s:height="20" id="cell_$auto$aigmap.cc:132:execute$63">
    <s:alias val="$_NOT_"/>
    <s:alias val="$not"/>
    <s:alias val="$logic_not"/>
    <path d="M0,0 L0,20 L20,10 Z" class="cell_$auto$aigmap.cc:132:execute$63"/>
    <circle cx="23" cy="10" r="3" class="cell_$auto$aigmap.cc:132:execute$63"/>
    <g s:x="0" s:y="10" s:pid="A"/>
    <g s:x="25" s:y="10" s:pid="Y"/>
  </g>
  <g s:type="not" transform="translate(414,540.5)" s:width="30" s:height="20" id="cell_$auto$aigmap.cc:132:execute$67">
    <s:alias val="$_NOT_"/>
    <s:alias val="$not"/>
    <s:alias val="$logic_not"/>
    <path d="M0,0 L0,20 L20,10 Z" class="cell_$auto$aigmap.cc:132:execute$67"/>
    <circle cx="23" cy="10" r="3" class="cell_$auto$aigmap.cc:132:execute$67"/>
    <g s:x="0" s:y="10" s:pid="A"/>
    <g s:x="25" s:y="10" s:pid="Y"/>
  </g>
  <g s:type="not" transform="translate(414,600.5)" s:width="30" s:height="20" id="cell_$auto$aigmap.cc:132:execute$71">
    <s:alias val="$_NOT_"/>
    <s:alias val="$not"/>
    <s:alias val="$logic_not"/>
    <path d="M0,0 L0,20 L20,10 Z" class="cell_$auto$aigmap.cc:132:execute$71"/>
    <circle cx="23" cy="10" r="3" class="cell_$auto$aigmap.cc:132:execute$71"/>
    <g s:x="0" s:y="10" s:pid="A"/>
    <g s:x="25" s:y="10" s:pid="Y"/>
  </g>
  <g s:type="not" transform="translate(544,548)" s:width="30" s:height="20" id="cell_$auto$aigmap.cc:132:execute$75">
    <s:alias val="$_NOT_"/>
    <s:alias val="$not"/>
    <s:alias val="$logic_not"/>
    <path d="M0,0 L0,20 L20,10 Z" class="cell_$auto$aigmap.cc:132:execute$75"/>
    <circle cx="23" cy="10" r="3" class="cell_$auto$aigmap.cc:132:execute$75"/>
    <g s:x="0" s:y="10" s:pid="A"/>
    <g s:x="25" s:y="10" s:pid="Y"/>
  </g>
  <g s:type="not" transform="translate(279,494)" s:width="30" s:height="20" id="cell_$auto$aigmap.cc:132:execute$77">
    <s:alias val="$_NOT_"/>
    <s:alias val="$not"/>
    <s:alias val="$logic_not"/>
    <path d="M0,0 L0,20 L20,10 Z" class="cell_$auto$aigmap.cc:132:execute$77"/>
    <circle cx="23" cy="10" r="3" class="cell_$auto$aigmap.cc:132:execute$77"/>
    <g s:x="0" s:y="10" s:pid="A"/>
    <g s:x="25" s:y="10" s:pid="Y"/>
  </g>
  <g s:type="not" transform="translate(414,420.5)" s:width="30" s:height="20" id="cell_$auto$aigmap.cc:132:execute$81">
    <s:alias val="$_NOT_"/>
    <s:alias val="$not"/>
    <s:alias val="$logic_not"/>
    <path d="M0,0 L0,20 L20,10 Z" class="cell_$auto$aigmap.cc:132:execute$81"/>
    <circle cx="23" cy="10" r="3" class="cell_$auto$aigmap.cc:132:execute$81"/>
    <g s:x="0" s:y="10" s:pid="A"/>
    <g s:x="25" s:y="10" s:pid="Y"/>
  </g>
  <g s:type="not" transform="translate(414,480.5)" s:width="30" s:height="20" id="cell_$auto$aigmap.cc:132:execute$85">
    <s:alias val="$_NOT_"/>
    <s:alias val="$not"/>
    <s:alias val="$logic_not"/>
    <path d="M0,0 L0,20 L20,10 Z" class="cell_$auto$aigmap.cc:132:execute$85"/>
    <circle cx="23" cy="10" r="3" class="cell_$auto$aigmap.cc:132:execute$85"/>
    <g s:x="0" s:y="10" s:pid="A"/>
    <g s:x="25" s:y="10" s:pid="Y"/>
  </g>
  <g s:type="not" transform="translate(544,428)" s:width="30" s:height="20" id="cell_$auto$aigmap.cc:132:execute$89">
    <s:alias val="$_NOT_"/>
    <s:alias val="$not"/>
    <s:alias val="$logic_not"/>
    <path d="M0,0 L0,20 L20,10 Z" class="cell_$auto$aigmap.cc:132:execute$89"/>
    <circle cx="23" cy="10" r="3" class="cell_$auto$aigmap.cc:132:execute$89"/>
    <g s:x="0" s:y="10" s:pid="A"/>
    <g s:x="25" s:y="10" s:pid="Y"/>
  </g>
  <g s:type="not" transform="translate(84,320.5)" s:width="30" s:height="20" id="cell_$auto$aigmap.cc:132:execute$91">
    <s:alias val="$_NOT_"/>
    <s:alias val="$not"/>
    <s:alias val="$logic_not"/>
    <path d="M0,0 L0,20 L20,10 Z" class="cell_$auto$aigmap.cc:132:execute$91"/>
    <circle cx="23" cy="10" r="3" class="cell_$auto$aigmap.cc:132:execute$91"/>
    <g s:x="0" s:y="10" s:pid="A"/>
    <g s:x="25" s:y="10" s:pid="Y"/>
  </g>
  <g s:type="not" transform="translate(84,380)" s:width="30" s:height="20" id="cell_$auto$aigmap.cc:132:execute$93">
    <s:alias val="$_NOT_"/>
    <s:alias val="$not"/>
    <s:alias val="$logic_not"/>
    <path d="M0,0 L0,20 L20,10 Z" class="cell_$auto$aigmap.cc:132:execute$93"/>
    <circle cx="23" cy="10" r="3" class="cell_$auto$aigmap.cc:132:execute$93"/>
    <g s:x="0" s:y="10" s:pid="A"/>
    <g s:x="25" s:y="10" s:pid="Y"/>
  </g>
  <g s:type="not" transform="translate(214,328)" s:width="30" s:height="20" id="cell_$auto$aigmap.cc:132:execute$97">
    <s:alias val="$_NOT_"/>
    <s:alias val="$not"/>
    <s:alias val="$logic_not"/>
    <path d="M0,0 L0,20 L20,10 Z" class="cell_$auto$aigmap.cc:132:execute$97"/>
    <circle cx="23" cy="10" r="3" class="cell_$auto$aigmap.cc:132:execute$97"/>
    <g s:x="0" s:y="10" s:pid="A"/>
    <g s:x="25" s:y="10" s:pid="Y"/>
  </g>
  <g s:type="dff" transform="translate(674,132)" s:width="30" s:height="40" id="cell_$procdff$19">
    <s:alias val="$dff"/>
    <s:alias val="$_DFF_"/>
    <s:alias val="$_DFF_P_"/>
    <rect width="30" height="40" x="0" y="0" class="cell_$procdff$19"/>
    <path d="M0,35 L5,30 L0,25" class="cell_$procdff$19"/>
    <g s:x="30" s:y="10" s:pid="Q"/>
    <g s:x="0" s:y="30" s:pid="CLK"/>
    <g s:x="0" s:y="30" s:pid="C"/>
    <g s:x="0" s:y="10" s:pid="D"/>
  </g>
  <g s:type="inputExt" transform="translate(609,578)" s:width="30" s:height="20" id="cell_clk">
    <text x="15" y="-4" class="nodelabel cell_clk" s:attribute="ref">clk</text>
    <s:alias val="$_inputExt_"/>
    <path d="M0,0 L0,20 L15,20 L30,10 L15,0 Z" class="cell_clk"/>
    <g s:x="28" s:y="10" s:pid="Y"/>
  </g>
  <g s:type="inputExt" transform="translate(214,393)" s:width="30" s:height="20" id="cell_reset">
    <text x="15" y="-4" class="nodelabel cell_reset" s:attribute="ref">reset</text>
    <s:alias val="$_inputExt_"/>
    <path d="M0,0 L0,20 L15,20 L30,10 L15,0 Z" class="cell_reset"/>
    <g s:x="28" s:y="10" s:pid="Y"/>
  </g>
  <g s:type="outputExt" transform="translate(739,132)" s:width="30" s:height="20" id="cell_q">
    <text x="15" y="-4" class="nodelabel cell_q" s:attribute="ref">q</text>
    <s:alias val="$_outputExt_"/>
    <path d="M30,0 L30,20 L15,20 L0,10 L15,0 Z" class="cell_q"/>
    <g s:x="0" s:y="10" s:pid="A"/>
  </g>
  <g s:type="constant" transform="translate(279,278)" s:width="30" s:height="20" id="cell_1">
    <text x="15" y="-4" class="nodelabel cell_1" s:attribute="ref">1</text>
    <s:alias val="$_constant_"/>
    <rect width="30" height="20" class="cell_1"/>
    <g s:x="30" s:y="10" s:pid="Y"/>
  </g>
  <g s:type="join" transform="translate(615.5,121.5)" s:width="4" s:height="40" id="cell_$join$,48,47,46,50,49,">
    <rect width="5" height="100" class="splitjoinBody" s:generic="body"/>
    <s:alias val="$_join_"/>
    <g s:x="5" s:y="20" s:pid="out"/>
    <g transform="translate(0,10)" s:x="0" s:y="10" s:pid="in0">
      <text x="-3" y="-4" class="inputPortLabel">0</text>
    </g>
    <g transform="translate(0,30)" s:x="0" s:y="10" s:pid="in0">
      <text x="-3" y="-4" class="inputPortLabel">1</text>
    </g>
    <g transform="translate(0,50)" s:x="0" s:y="10" s:pid="in0">
      <text x="-3" y="-4" class="inputPortLabel">2</text>
    </g>
    <g transform="translate(0,70)" s:x="0" s:y="10" s:pid="in0">
      <text x="-3" y="-4" class="inputPortLabel">3</text>
    </g>
    <g transform="translate(0,90)" s:x="0" s:y="10" s:pid="in0">
      <text x="-3" y="-4" class="inputPortLabel">4</text>
    </g>
  </g>
  <g s:type="split" transform="translate(32,280)" s:width="5" s:height="40" id="cell_$split$,4,5,6,7,8,">
    <rect width="5" height="100" class="splitjoinBody" s:generic="body"/>
    <s:alias val="$_split_"/>
    <g s:x="0" s:y="20" s:pid="in"/>
    <g transform="translate(4,10)" s:x="4" s:y="10" s:pid="out0">
      <text x="5" y="-4">2</text>
    </g>
    <g transform="translate(4,30)" s:x="4" s:y="10" s:pid="out0">
      <text x="5" y="-4">1</text>
    </g>
    <g transform="translate(4,50)" s:x="4" s:y="10" s:pid="out0">
      <text x="5" y="-4">0</text>
    </g>
    <g transform="translate(4,70)" s:x="4" s:y="10" s:pid="out0">
      <text x="5" y="-4">4</text>
    </g>
    <g transform="translate(4,90)" s:x="4" s:y="10" s:pid="out0">
      <text x="5" y="-4">3</text>
    </g>
  </g>
  <line x1="239" x2="279" y1="338" y2="338" class="net_9"/>
  <line x1="239" x2="254" y1="458" y2="458" class="net_10"/>
  <line x1="254" x2="254" y1="458" y2="353" class="net_10"/>
  <line x1="254" x2="279" y1="353" y2="353" class="net_10"/>
  <line x1="242" x2="264" y1="403" y2="403" class="net_3"/>
  <line x1="264" x2="264" y1="403" y2="257" class="net_3"/>
  <circle cx="264" cy="403" r="2" style="fill:#000" class="net_3"/>
  <circle cx="264" cy="257" r="2" style="fill:#000" class="net_3"/>
  <line x1="264" x2="349" y1="257" y2="257" class="net_3"/>
  <line x1="242" x2="264" y1="403" y2="403" class="net_3"/>
  <line x1="264" x2="264" y1="403" y2="137" class="net_3"/>
  <circle cx="264" cy="137" r="2" style="fill:#000" class="net_3"/>
  <line x1="264" x2="349" y1="137" y2="137" class="net_3"/>
  <line x1="242" x2="264" y1="403" y2="403" class="net_3"/>
  <line x1="264" x2="264" y1="403" y2="17" class="net_3"/>
  <line x1="264" x2="349" y1="17" y2="17" class="net_3"/>
  <line x1="242" x2="264" y1="403" y2="403" class="net_3"/>
  <line x1="264" x2="264" y1="403" y2="543" class="net_3"/>
  <circle cx="264" cy="543" r="2" style="fill:#000" class="net_3"/>
  <line x1="264" x2="349" y1="543" y2="543" class="net_3"/>
  <line x1="242" x2="264" y1="403" y2="403" class="net_3"/>
  <line x1="264" x2="264" y1="403" y2="423" class="net_3"/>
  <circle cx="264" cy="423" r="2" style="fill:#000" class="net_3"/>
  <line x1="264" x2="349" y1="423" y2="423" class="net_3"/>
  <line x1="242" x2="279" y1="403" y2="403" class="net_3"/>
  <line x1="242" x2="264" y1="403" y2="403" class="net_3"/>
  <line x1="264" x2="264" y1="403" y2="218" class="net_3"/>
  <circle cx="264" cy="218" r="2" style="fill:#000" class="net_3"/>
  <line x1="264" x2="279" y1="218" y2="218" class="net_3"/>
  <line x1="242" x2="264" y1="403" y2="403" class="net_3"/>
  <line x1="264" x2="264" y1="403" y2="98" class="net_3"/>
  <circle cx="264" cy="98" r="2" style="fill:#000" class="net_3"/>
  <line x1="264" x2="279" y1="98" y2="98" class="net_3"/>
  <line x1="242" x2="264" y1="403" y2="403" class="net_3"/>
  <line x1="264" x2="264" y1="403" y2="624" class="net_3"/>
  <line x1="264" x2="279" y1="624" y2="624" class="net_3"/>
  <line x1="242" x2="264" y1="403" y2="403" class="net_3"/>
  <line x1="264" x2="264" y1="403" y2="504" class="net_3"/>
  <circle cx="264" cy="504" r="2" style="fill:#000" class="net_3"/>
  <line x1="264" x2="279" y1="504" y2="504" class="net_3"/>
  <line x1="309" x2="329" y1="288" y2="288" class="net_51"/>
  <line x1="329" x2="329" y1="288" y2="272" class="net_51"/>
  <circle cx="329" cy="288" r="2" style="fill:#000" class="net_51"/>
  <circle cx="329" cy="272" r="2" style="fill:#000" class="net_51"/>
  <line x1="329" x2="349" y1="272" y2="272" class="net_51"/>
  <line x1="309" x2="329" y1="288" y2="288" class="net_51"/>
  <line x1="329" x2="329" y1="288" y2="152" class="net_51"/>
  <circle cx="329" cy="152" r="2" style="fill:#000" class="net_51"/>
  <line x1="329" x2="349" y1="152" y2="152" class="net_51"/>
  <line x1="309" x2="329" y1="288" y2="288" class="net_51"/>
  <line x1="329" x2="329" y1="288" y2="32" class="net_51"/>
  <line x1="329" x2="349" y1="32" y2="32" class="net_51"/>
  <line x1="309" x2="329" y1="288" y2="288" class="net_51"/>
  <line x1="329" x2="329" y1="288" y2="558" class="net_51"/>
  <line x1="329" x2="349" y1="558" y2="558" class="net_51"/>
  <line x1="309" x2="329" y1="288" y2="288" class="net_51"/>
  <line x1="329" x2="329" y1="288" y2="438" class="net_51"/>
  <circle cx="329" cy="438" r="2" style="fill:#000" class="net_51"/>
  <line x1="329" x2="349" y1="438" y2="438" class="net_51"/>
  <line x1="309" x2="349" y1="345.5" y2="345.5" class="net_11"/>
  <line x1="304" x2="319" y1="403" y2="403" class="net_13"/>
  <line x1="319" x2="319" y1="403" y2="360.5" class="net_13"/>
  <line x1="319" x2="349" y1="360.5" y2="360.5" class="net_13"/>
  <line x1="439" x2="479" y1="264.5" y2="264.5" class="net_15"/>
  <line x1="439" x2="454" y1="353" y2="353" class="net_16"/>
  <line x1="454" x2="454" y1="353" y2="279.5" class="net_16"/>
  <line x1="454" x2="479" y1="279.5" y2="279.5" class="net_16"/>
  <line x1="37" x2="64" y1="290.5" y2="290.5" class="net_6"/>
  <line x1="64" x2="64" y1="290.5" y2="197" class="net_6"/>
  <line x1="64" x2="349" y1="197" y2="197" class="net_6"/>
  <line x1="304" x2="339" y1="218" y2="218" class="net_19"/>
  <line x1="339" x2="339" y1="218" y2="212" class="net_19"/>
  <line x1="339" x2="349" y1="212" y2="212" class="net_19"/>
  <line x1="439" x2="479" y1="144.5" y2="144.5" class="net_21"/>
  <line x1="439" x2="454" y1="204.5" y2="204.5" class="net_22"/>
  <line x1="454" x2="454" y1="204.5" y2="159.5" class="net_22"/>
  <line x1="454" x2="479" y1="159.5" y2="159.5" class="net_22"/>
  <line x1="37" x2="54" y1="310.5" y2="310.5" class="net_5"/>
  <line x1="54" x2="54" y1="310.5" y2="77" class="net_5"/>
  <line x1="54" x2="349" y1="77" y2="77" class="net_5"/>
  <line x1="304" x2="339" y1="98" y2="98" class="net_25"/>
  <line x1="339" x2="339" y1="98" y2="92" class="net_25"/>
  <line x1="339" x2="349" y1="92" y2="92" class="net_25"/>
  <line x1="439" x2="479" y1="24.5" y2="24.5" class="net_27"/>
  <line x1="439" x2="454" y1="84.5" y2="84.5" class="net_28"/>
  <line x1="454" x2="454" y1="84.5" y2="39.5" class="net_28"/>
  <line x1="454" x2="479" y1="39.5" y2="39.5" class="net_28"/>
  <line x1="37" x2="64" y1="330.5" y2="330.5" class="net_4"/>
  <line x1="64" x2="64" y1="330.5" y2="603" class="net_4"/>
  <circle cx="64" cy="330.5" r="2" style="fill:#000" class="net_4"/>
  <line x1="64" x2="349" y1="603" y2="603" class="net_4"/>
  <line x1="37" x2="64" y1="330.5" y2="330.5" class="net_4"/>
  <line x1="64" x2="64" y1="330.5" y2="465.5" class="net_4"/>
  <circle cx="64" cy="465.5" r="2" style="fill:#000" class="net_4"/>
  <line x1="64" x2="149" y1="465.5" y2="465.5" class="net_4"/>
  <line x1="37" x2="84" y1="330.5" y2="330.5" class="net_4"/>
  <line x1="304" x2="319" y1="624" y2="624" class="net_31"/>
  <line x1="319" x2="319" y1="624" y2="618" class="net_31"/>
  <line x1="319" x2="349" y1="618" y2="618" class="net_31"/>
  <line x1="439" x2="479" y1="550.5" y2="550.5" class="net_33"/>
  <line x1="439" x2="454" y1="610.5" y2="610.5" class="net_34"/>
  <line x1="454" x2="454" y1="610.5" y2="565.5" class="net_34"/>
  <line x1="454" x2="479" y1="565.5" y2="565.5" class="net_34"/>
  <line x1="37" x2="54" y1="350.5" y2="350.5" class="net_8"/>
  <line x1="54" x2="54" y1="350.5" y2="483" class="net_8"/>
  <line x1="54" x2="349" y1="483" y2="483" class="net_8"/>
  <line x1="304" x2="319" y1="504" y2="504" class="net_37"/>
  <line x1="319" x2="319" y1="504" y2="498" class="net_37"/>
  <line x1="319" x2="349" y1="498" y2="498" class="net_37"/>
  <line x1="439" x2="479" y1="430.5" y2="430.5" class="net_39"/>
  <line x1="439" x2="454" y1="490.5" y2="490.5" class="net_40"/>
  <line x1="454" x2="454" y1="490.5" y2="445.5" class="net_40"/>
  <line x1="454" x2="479" y1="445.5" y2="445.5" class="net_40"/>
  <line x1="109" x2="149" y1="330.5" y2="330.5" class="net_42"/>
  <line x1="109" x2="124" y1="390" y2="390" class="net_43"/>
  <line x1="124" x2="124" y1="390" y2="345.5" class="net_43"/>
  <line x1="124" x2="149" y1="345.5" y2="345.5" class="net_43"/>
  <line x1="36.5" x2="36.5" y1="371" y2="390" class="net_7"/>
  <line x1="36.5" x2="74" y1="390" y2="390" class="net_7"/>
  <line x1="74" x2="74" y1="390" y2="450.5" class="net_7"/>
  <circle cx="74" cy="390" r="2" style="fill:#000" class="net_7"/>
  <line x1="74" x2="149" y1="450.5" y2="450.5" class="net_7"/>
  <line x1="36.5" x2="36.5" y1="371" y2="390" class="net_7"/>
  <line x1="36.5" x2="84" y1="390" y2="390" class="net_7"/>
  <line x1="179" x2="214" y1="458" y2="458" class="net_45"/>
  <line x1="379" x2="414" y1="264.5" y2="264.5" class="net_12"/>
  <line x1="379" x2="414" y1="353" y2="353" class="net_14"/>
  <line x1="509" x2="544" y1="272" y2="272" class="net_17"/>
  <line x1="379" x2="414" y1="144.5" y2="144.5" class="net_18"/>
  <line x1="379" x2="414" y1="204.5" y2="204.5" class="net_20"/>
  <line x1="509" x2="544" y1="152" y2="152" class="net_23"/>
  <line x1="379" x2="414" y1="24.5" y2="24.5" class="net_24"/>
  <line x1="379" x2="414" y1="84.5" y2="84.5" class="net_26"/>
  <line x1="509" x2="544" y1="32" y2="32" class="net_29"/>
  <line x1="379" x2="414" y1="550.5" y2="550.5" class="net_30"/>
  <line x1="379" x2="414" y1="610.5" y2="610.5" class="net_32"/>
  <line x1="509" x2="544" y1="558" y2="558" class="net_35"/>
  <line x1="379" x2="414" y1="430.5" y2="430.5" class="net_36"/>
  <line x1="379" x2="414" y1="490.5" y2="490.5" class="net_38"/>
  <line x1="509" x2="544" y1="438" y2="438" class="net_41"/>
  <line x1="179" x2="214" y1="338" y2="338" class="net_44"/>
  <line x1="637" x2="649" y1="588" y2="588" class="net_2"/>
  <line x1="649" x2="649" y1="588" y2="162" class="net_2"/>
  <line x1="649" x2="674" y1="162" y2="162" class="net_2"/>
  <line x1="621.5" x2="674" y1="142" y2="142" class="net_48,47,46,50,49"/>
  <line x1="704" x2="739" y1="142" y2="142" class="net_4,5,6,7,8"/>
  <line x1="704" x2="714" y1="142" y2="142" class="net_4,5,6,7,8"/>
  <line x1="714" x2="714" y1="142" y2="644" class="net_4,5,6,7,8"/>
  <line x1="714" x2="12" y1="644" y2="644" class="net_4,5,6,7,8"/>
  <line x1="12" x2="12" y1="644" y2="300.5" class="net_4,5,6,7,8"/>
  <circle cx="714" cy="142" r="2" style="fill:#000" class="net_4,5,6,7,8"/>
  <line x1="12" x2="32" y1="300.5" y2="300.5" class="net_4,5,6,7,8"/>
  <line x1="569" x2="616" y1="32" y2="32" class="net_48"/>
  <line x1="616" x2="616" y1="32" y2="131.5" class="net_48"/>
  <line x1="569" x2="615.5" y1="152" y2="152" class="net_47"/>
  <line x1="569" x2="584" y1="272" y2="272" class="net_46"/>
  <line x1="584" x2="584" y1="272" y2="172" class="net_46"/>
  <line x1="584" x2="615.5" y1="172" y2="172" class="net_46"/>
  <line x1="569" x2="594" y1="438" y2="438" class="net_50"/>
  <line x1="594" x2="594" y1="438" y2="192" class="net_50"/>
  <line x1="594" x2="615.5" y1="192" y2="192" class="net_50"/>
  <line x1="569" x2="616" y1="558" y2="558" class="net_49"/>
  <line x1="616" x2="616" y1="558" y2="212.5" class="net_49"/>
</svg>
