<?xml version="1.0" encoding="UTF-8" standalone="no"?>
<!DOCTYPE svg PUBLIC "-//W3C//DTD SVG 1.1//EN"
 "http://www.w3.org/Graphics/SVG/1.1/DTD/svg11.dtd">
<!-- Generated by graphviz version 4.0.0 (20220529.0937)
 -->
<!-- Title: top_module Pages: 1 -->
<svg width="1060pt" height="835pt"
 viewBox="0.00 0.00 1060.44 835.00" xmlns="http://www.w3.org/2000/svg" xmlns:xlink="http://www.w3.org/1999/xlink">
<g id="graph0" class="graph" transform="scale(1 1) rotate(0) translate(4 831)">
<title>top_module</title>
<polygon fill="white" stroke="transparent" points="-4,4 -4,-831 1056.44,-831 1056.44,4 -4,4"/>
<text text-anchor="middle" x="526.22" y="-7.8" font-family="Times New Roman,serif" font-size="14.00">top_module</text>
<!-- n3 -->
<g id="node1" class="node">
<title>n3</title>
<polygon fill="none" stroke="black" points="57.25,-801.54 57.25,-816.46 41.43,-827 19.07,-827 3.25,-816.46 3.25,-801.54 19.07,-791 41.43,-791 57.25,-801.54"/>
<text text-anchor="middle" x="30.25" y="-805.3" font-family="Times New Roman,serif" font-size="14.00">clk</text>
</g>
<!-- c10 -->
<g id="node5" class="node">
<title>c10</title>
<polygon fill="none" stroke="black" points="97.5,-774 97.5,-820 208.5,-820 208.5,-774 97.5,-774"/>
<text text-anchor="middle" x="119.5" y="-804.8" font-family="Times New Roman,serif" font-size="14.00">CLK</text>
<polyline fill="none" stroke="black" points="97.5,-797 141.5,-797 "/>
<text text-anchor="middle" x="119.5" y="-781.8" font-family="Times New Roman,serif" font-size="14.00">D</text>
<polyline fill="none" stroke="black" points="141.5,-774 141.5,-820 "/>
<text text-anchor="middle" x="161.5" y="-800.8" font-family="Times New Roman,serif" font-size="14.00">$19</text>
<text text-anchor="middle" x="161.5" y="-785.8" font-family="Times New Roman,serif" font-size="14.00">$dff</text>
<polyline fill="none" stroke="black" points="181.5,-774 181.5,-820 "/>
<text text-anchor="middle" x="195" y="-793.3" font-family="Times New Roman,serif" font-size="14.00">Q</text>
</g>
<!-- n3&#45;&gt;c10 -->
<g id="edge19" class="edge">
<title>n3:e&#45;&gt;c10:w</title>
<path fill="none" stroke="#d95f02" d="M58.25,-809C71.74,-809 77.41,-809 87.35,-809"/>
<polygon fill="#d95f02" stroke="#d95f02" points="87.5,-812.5 97.5,-809 87.5,-805.5 87.5,-812.5"/>
</g>
<!-- n4 -->
<g id="node2" class="node">
<title>n4</title>
<polygon fill="none" stroke="black" points="1052.44,-757.54 1052.44,-772.46 1036.63,-783 1014.26,-783 998.44,-772.46 998.44,-757.54 1014.26,-747 1036.63,-747 1052.44,-757.54"/>
<text text-anchor="middle" x="1025.44" y="-761.3" font-family="Times New Roman,serif" font-size="14.00">q</text>
</g>
<!-- n5 -->
<g id="node3" class="node">
<title>n5</title>
<polygon fill="none" stroke="black" points="300.67,-563 268.33,-545 300.67,-527 333.01,-545 300.67,-563"/>
<text text-anchor="middle" x="300.67" y="-541.3" font-family="Times New Roman,serif" font-size="14.00">q_i</text>
</g>
<!-- x2 -->
<g id="node11" class="node">
<title>x2</title>
<path fill="none" stroke="black" d="M404.84,-662C404.84,-662 442.84,-662 442.84,-662 448.84,-662 454.84,-668 454.84,-674 454.84,-674 454.84,-686 454.84,-686 454.84,-692 448.84,-698 442.84,-698 442.84,-698 404.84,-698 404.84,-698 398.84,-698 392.84,-692 392.84,-686 392.84,-686 392.84,-674 392.84,-674 392.84,-668 398.84,-662 404.84,-662"/>
<text text-anchor="middle" x="423.84" y="-676.3" font-family="Times New Roman,serif" font-size="14.00">2:2 &#45; 0:0</text>
</g>
<!-- n5&#45;&gt;x2 -->
<g id="edge26" class="edge">
<title>n5:e&#45;&gt;x2:w</title>
<path fill="none" stroke="#1b9e77" stroke-width="3" d="M332.84,-545C333.7,-545 374.71,-640.22 388.44,-670.72"/>
<polygon fill="#1b9e77" stroke="#1b9e77" stroke-width="3" points="385.39,-672.47 392.84,-680 391.71,-669.47 385.39,-672.47"/>
<text text-anchor="middle" x="362.84" y="-640.8" font-family="Times New Roman,serif" font-size="14.00" fill="#1b9e77">&lt;5&gt;</text>
</g>
<!-- x5 -->
<g id="node15" class="node">
<title>x5</title>
<path fill="none" stroke="black" d="M404.84,-144C404.84,-144 442.84,-144 442.84,-144 448.84,-144 454.84,-150 454.84,-156 454.84,-156 454.84,-168 454.84,-168 454.84,-174 448.84,-180 442.84,-180 442.84,-180 404.84,-180 404.84,-180 398.84,-180 392.84,-174 392.84,-168 392.84,-168 392.84,-156 392.84,-156 392.84,-150 398.84,-144 404.84,-144"/>
<text text-anchor="middle" x="423.84" y="-158.3" font-family="Times New Roman,serif" font-size="14.00">1:1 &#45; 0:0</text>
</g>
<!-- n5&#45;&gt;x5 -->
<g id="edge27" class="edge">
<title>n5:e&#45;&gt;x5:w</title>
<path fill="none" stroke="#1b9e77" stroke-width="3" d="M332.84,-545C352.61,-545 347.86,-387.54 350.84,-368 364.37,-279.24 304.4,-170.84 382.6,-162.51"/>
<polygon fill="#1b9e77" stroke="#1b9e77" stroke-width="3" points="383.03,-166 392.84,-162 382.68,-159 383.03,-166"/>
<text text-anchor="middle" x="362.84" y="-371.8" font-family="Times New Roman,serif" font-size="14.00" fill="#1b9e77">&lt;5&gt;</text>
</g>
<!-- x8 -->
<g id="node19" class="node">
<title>x8</title>
<path fill="none" stroke="black" d="M404.84,-552C404.84,-552 442.84,-552 442.84,-552 448.84,-552 454.84,-558 454.84,-564 454.84,-564 454.84,-576 454.84,-576 454.84,-582 448.84,-588 442.84,-588 442.84,-588 404.84,-588 404.84,-588 398.84,-588 392.84,-582 392.84,-576 392.84,-576 392.84,-564 392.84,-564 392.84,-558 398.84,-552 404.84,-552"/>
<text text-anchor="middle" x="423.84" y="-566.3" font-family="Times New Roman,serif" font-size="14.00">0:0 &#45; 0:0</text>
</g>
<!-- n5&#45;&gt;x8 -->
<g id="edge28" class="edge">
<title>n5:e&#45;&gt;x8:w</title>
<path fill="none" stroke="#1b9e77" stroke-width="3" d="M332.84,-545C358.01,-545 362.94,-563.97 382.88,-568.86"/>
<polygon fill="#1b9e77" stroke="#1b9e77" stroke-width="3" points="382.51,-572.34 392.84,-570 383.3,-565.39 382.51,-572.34"/>
<text text-anchor="middle" x="362.84" y="-569.8" font-family="Times New Roman,serif" font-size="14.00" fill="#1b9e77">&lt;5&gt;</text>
</g>
<!-- x11 -->
<g id="node23" class="node">
<title>x11</title>
<path fill="none" stroke="black" d="M404.84,-254C404.84,-254 442.84,-254 442.84,-254 448.84,-254 454.84,-260 454.84,-266 454.84,-266 454.84,-278 454.84,-278 454.84,-284 448.84,-290 442.84,-290 442.84,-290 404.84,-290 404.84,-290 398.84,-290 392.84,-284 392.84,-278 392.84,-278 392.84,-266 392.84,-266 392.84,-260 398.84,-254 404.84,-254"/>
<text text-anchor="middle" x="423.84" y="-268.3" font-family="Times New Roman,serif" font-size="14.00">4:4 &#45; 0:0</text>
</g>
<!-- n5&#45;&gt;x11 -->
<g id="edge22" class="edge">
<title>n5:e&#45;&gt;x11:w</title>
<path fill="none" stroke="#1b9e77" stroke-width="3" d="M332.84,-545C355.2,-545 344.6,-467.47 350.84,-446 358.75,-418.82 367.27,-414.28 374.84,-387 380.76,-365.68 370.8,-296.68 383.99,-277.18"/>
<polygon fill="#1b9e77" stroke="#1b9e77" stroke-width="3" points="385.97,-280.07 392.84,-272 382.44,-274.02 385.97,-280.07"/>
<text text-anchor="middle" x="362.84" y="-449.8" font-family="Times New Roman,serif" font-size="14.00" fill="#1b9e77">&lt;5&gt;</text>
</g>
<!-- x14 -->
<g id="node26" class="node">
<title>x14</title>
<path fill="none" stroke="black" d="M404.84,-442C404.84,-442 442.84,-442 442.84,-442 448.84,-442 454.84,-448 454.84,-454 454.84,-454 454.84,-466 454.84,-466 454.84,-472 448.84,-478 442.84,-478 442.84,-478 404.84,-478 404.84,-478 398.84,-478 392.84,-472 392.84,-466 392.84,-466 392.84,-454 392.84,-454 392.84,-448 398.84,-442 404.84,-442"/>
<text text-anchor="middle" x="423.84" y="-456.3" font-family="Times New Roman,serif" font-size="14.00">3:3 &#45; 0:0</text>
</g>
<!-- n5&#45;&gt;x14 -->
<g id="edge23" class="edge">
<title>n5:e&#45;&gt;x14:w</title>
<path fill="none" stroke="#1b9e77" stroke-width="3" d="M332.84,-545C339.36,-545 371.2,-509.41 374.84,-504 383.88,-490.58 377.24,-471.92 383.12,-463.91"/>
<polygon fill="#1b9e77" stroke="#1b9e77" stroke-width="3" points="384.87,-466.98 392.84,-460 382.26,-460.48 384.87,-466.98"/>
<text text-anchor="middle" x="362.84" y="-533.8" font-family="Times New Roman,serif" font-size="14.00" fill="#1b9e77">&lt;5&gt;</text>
</g>
<!-- x15 -->
<g id="node27" class="node">
<title>x15</title>
<path fill="none" stroke="black" d="M404.84,-348C404.84,-348 442.84,-348 442.84,-348 448.84,-348 454.84,-354 454.84,-360 454.84,-360 454.84,-372 454.84,-372 454.84,-378 448.84,-384 442.84,-384 442.84,-384 404.84,-384 404.84,-384 398.84,-384 392.84,-378 392.84,-372 392.84,-372 392.84,-360 392.84,-360 392.84,-354 398.84,-348 404.84,-348"/>
<text text-anchor="middle" x="423.84" y="-362.3" font-family="Times New Roman,serif" font-size="14.00">0:0 &#45; 0:0</text>
</g>
<!-- n5&#45;&gt;x15 -->
<g id="edge24" class="edge">
<title>n5:e&#45;&gt;x15:w</title>
<path fill="none" stroke="#1b9e77" stroke-width="3" d="M332.84,-545C360.68,-545 335.5,-508.23 350.84,-485 358.49,-473.41 367.85,-476.99 374.84,-465 384.26,-448.85 374.88,-390.52 384.62,-371.82"/>
<polygon fill="#1b9e77" stroke="#1b9e77" stroke-width="3" points="386.7,-374.63 392.84,-366 382.66,-368.92 386.7,-374.63"/>
<text text-anchor="middle" x="362.84" y="-488.8" font-family="Times New Roman,serif" font-size="14.00" fill="#1b9e77">&lt;5&gt;</text>
</g>
<!-- x16 -->
<g id="node28" class="node">
<title>x16</title>
<path fill="none" stroke="black" d="M514.84,-783C514.84,-783 484.84,-783 484.84,-783 478.84,-783 472.84,-777 472.84,-771 472.84,-771 472.84,-759 472.84,-759 472.84,-753 478.84,-747 484.84,-747 484.84,-747 514.84,-747 514.84,-747 520.84,-747 526.84,-753 526.84,-759 526.84,-759 526.84,-771 526.84,-771 526.84,-777 520.84,-783 514.84,-783"/>
<text text-anchor="middle" x="499.84" y="-761.3" font-family="Times New Roman,serif" font-size="14.00">BUF</text>
</g>
<!-- n5&#45;&gt;x16 -->
<g id="edge25" class="edge">
<title>n5:e&#45;&gt;x16:w</title>
<path fill="none" stroke="#1b9e77" stroke-width="3" d="M332.84,-545C357.83,-545 340.54,-633.23 350.84,-656 379.35,-719.01 398.22,-760.77 462.56,-764.7"/>
<polygon fill="#1b9e77" stroke="#1b9e77" stroke-width="3" points="462.74,-768.2 472.84,-765 462.95,-761.21 462.74,-768.2"/>
<text text-anchor="middle" x="362.84" y="-708.8" font-family="Times New Roman,serif" font-size="14.00" fill="#1b9e77">&lt;5&gt;</text>
</g>
<!-- n6 -->
<g id="node4" class="node">
<title>n6</title>
<polygon fill="none" stroke="black" points="60.25,-311.54 60.25,-326.46 42.68,-337 17.82,-337 0.25,-326.46 0.25,-311.54 17.82,-301 42.68,-301 60.25,-311.54"/>
<text text-anchor="middle" x="30.25" y="-315.3" font-family="Times New Roman,serif" font-size="14.00">reset</text>
</g>
<!-- c15 -->
<g id="node7" class="node">
<title>c15</title>
<polygon fill="none" stroke="black" points="680.84,-344.5 680.84,-413.5 779.84,-413.5 779.84,-344.5 680.84,-344.5"/>
<text text-anchor="middle" x="693.84" y="-398.3" font-family="Times New Roman,serif" font-size="14.00">A</text>
<polyline fill="none" stroke="black" points="680.84,-390.5 706.84,-390.5 "/>
<text text-anchor="middle" x="693.84" y="-375.3" font-family="Times New Roman,serif" font-size="14.00">B</text>
<polyline fill="none" stroke="black" points="680.84,-367.5 706.84,-367.5 "/>
<text text-anchor="middle" x="693.84" y="-352.3" font-family="Times New Roman,serif" font-size="14.00">S</text>
<polyline fill="none" stroke="black" points="706.84,-344.5 706.84,-413.5 "/>
<text text-anchor="middle" x="730.34" y="-382.8" font-family="Times New Roman,serif" font-size="14.00">$11</text>
<text text-anchor="middle" x="730.34" y="-367.8" font-family="Times New Roman,serif" font-size="14.00">$mux</text>
<polyline fill="none" stroke="black" points="753.84,-344.5 753.84,-413.5 "/>
<text text-anchor="middle" x="766.84" y="-375.3" font-family="Times New Roman,serif" font-size="14.00">Y</text>
</g>
<!-- n6&#45;&gt;c15 -->
<g id="edge29" class="edge">
<title>n6:e&#45;&gt;c15:w</title>
<path fill="none" stroke="#1b9e77" d="M60.5,-319C101.17,-319 111.33,-319 152,-319 152,-319 152,-319 595.34,-319 613.13,-319 648.2,-346.33 670.85,-354.01"/>
<polygon fill="#1b9e77" stroke="#1b9e77" points="670.35,-357.48 680.84,-356 671.72,-350.61 670.35,-357.48"/>
</g>
<!-- c16 -->
<g id="node10" class="node">
<title>c16</title>
<polygon fill="none" stroke="black" points="544.84,-643.5 544.84,-712.5 643.84,-712.5 643.84,-643.5 544.84,-643.5"/>
<text text-anchor="middle" x="557.84" y="-697.3" font-family="Times New Roman,serif" font-size="14.00">A</text>
<polyline fill="none" stroke="black" points="544.84,-689.5 570.84,-689.5 "/>
<text text-anchor="middle" x="557.84" y="-674.3" font-family="Times New Roman,serif" font-size="14.00">B</text>
<polyline fill="none" stroke="black" points="544.84,-666.5 570.84,-666.5 "/>
<text text-anchor="middle" x="557.84" y="-651.3" font-family="Times New Roman,serif" font-size="14.00">S</text>
<polyline fill="none" stroke="black" points="570.84,-643.5 570.84,-712.5 "/>
<text text-anchor="middle" x="594.34" y="-681.8" font-family="Times New Roman,serif" font-size="14.00">$14</text>
<text text-anchor="middle" x="594.34" y="-666.8" font-family="Times New Roman,serif" font-size="14.00">$mux</text>
<polyline fill="none" stroke="black" points="617.84,-643.5 617.84,-712.5 "/>
<text text-anchor="middle" x="630.84" y="-674.3" font-family="Times New Roman,serif" font-size="14.00">Y</text>
</g>
<!-- n6&#45;&gt;c16 -->
<g id="edge30" class="edge">
<title>n6:e&#45;&gt;c16:w</title>
<path fill="none" stroke="#1b9e77" d="M60.5,-319C83.73,-319 128.77,-727 152,-727 152,-727 152,-727 363.84,-727 405.25,-727 416.24,-721.98 454.84,-707 494.54,-691.59 498.27,-660.4 534.8,-655.62"/>
<polygon fill="#1b9e77" stroke="#1b9e77" points="535.08,-659.11 544.84,-655 534.64,-652.12 535.08,-659.11"/>
</g>
<!-- c17 -->
<g id="node14" class="node">
<title>c17</title>
<polygon fill="none" stroke="black" points="544.84,-98.5 544.84,-167.5 643.84,-167.5 643.84,-98.5 544.84,-98.5"/>
<text text-anchor="middle" x="557.84" y="-152.3" font-family="Times New Roman,serif" font-size="14.00">A</text>
<polyline fill="none" stroke="black" points="544.84,-144.5 570.84,-144.5 "/>
<text text-anchor="middle" x="557.84" y="-129.3" font-family="Times New Roman,serif" font-size="14.00">B</text>
<polyline fill="none" stroke="black" points="544.84,-121.5 570.84,-121.5 "/>
<text text-anchor="middle" x="557.84" y="-106.3" font-family="Times New Roman,serif" font-size="14.00">S</text>
<polyline fill="none" stroke="black" points="570.84,-98.5 570.84,-167.5 "/>
<text text-anchor="middle" x="594.34" y="-136.8" font-family="Times New Roman,serif" font-size="14.00">$17</text>
<text text-anchor="middle" x="594.34" y="-121.8" font-family="Times New Roman,serif" font-size="14.00">$mux</text>
<polyline fill="none" stroke="black" points="617.84,-98.5 617.84,-167.5 "/>
<text text-anchor="middle" x="630.84" y="-129.3" font-family="Times New Roman,serif" font-size="14.00">Y</text>
</g>
<!-- n6&#45;&gt;c17 -->
<g id="edge31" class="edge">
<title>n6:e&#45;&gt;c17:w</title>
<path fill="none" stroke="#1b9e77" d="M60.5,-319C83.97,-319 89.12,-132.93 97.5,-111 113.93,-68.03 106,-23 152,-23 152,-23 152,-23 424.84,-23 474.21,-23 492.12,-31.9 526.84,-67 538,-78.28 530.48,-97.49 535.64,-105.88"/>
<polygon fill="#1b9e77" stroke="#1b9e77" points="534.28,-109.11 544.84,-110 537.14,-102.72 534.28,-109.11"/>
</g>
<!-- c18 -->
<g id="node18" class="node">
<title>c18</title>
<polygon fill="none" stroke="black" points="544.84,-474.5 544.84,-543.5 643.84,-543.5 643.84,-474.5 544.84,-474.5"/>
<text text-anchor="middle" x="557.84" y="-528.3" font-family="Times New Roman,serif" font-size="14.00">A</text>
<polyline fill="none" stroke="black" points="544.84,-520.5 570.84,-520.5 "/>
<text text-anchor="middle" x="557.84" y="-505.3" font-family="Times New Roman,serif" font-size="14.00">B</text>
<polyline fill="none" stroke="black" points="544.84,-497.5 570.84,-497.5 "/>
<text text-anchor="middle" x="557.84" y="-482.3" font-family="Times New Roman,serif" font-size="14.00">S</text>
<polyline fill="none" stroke="black" points="570.84,-474.5 570.84,-543.5 "/>
<text text-anchor="middle" x="594.34" y="-512.8" font-family="Times New Roman,serif" font-size="14.00">$5</text>
<text text-anchor="middle" x="594.34" y="-497.8" font-family="Times New Roman,serif" font-size="14.00">$mux</text>
<polyline fill="none" stroke="black" points="617.84,-474.5 617.84,-543.5 "/>
<text text-anchor="middle" x="630.84" y="-505.3" font-family="Times New Roman,serif" font-size="14.00">Y</text>
</g>
<!-- n6&#45;&gt;c18 -->
<g id="edge32" class="edge">
<title>n6:e&#45;&gt;c18:w</title>
<path fill="none" stroke="#1b9e77" d="M60.5,-319C75.08,-319 137.42,-413 152,-413 152,-413 152,-413 424.84,-413 483.73,-413 482.75,-477.96 534.86,-485.32"/>
<polygon fill="#1b9e77" stroke="#1b9e77" points="534.63,-488.82 544.84,-486 535.1,-481.83 534.63,-488.82"/>
</g>
<!-- c19 -->
<g id="node22" class="node">
<title>c19</title>
<polygon fill="none" stroke="black" points="544.84,-193.5 544.84,-262.5 643.84,-262.5 643.84,-193.5 544.84,-193.5"/>
<text text-anchor="middle" x="557.84" y="-247.3" font-family="Times New Roman,serif" font-size="14.00">A</text>
<polyline fill="none" stroke="black" points="544.84,-239.5 570.84,-239.5 "/>
<text text-anchor="middle" x="557.84" y="-224.3" font-family="Times New Roman,serif" font-size="14.00">B</text>
<polyline fill="none" stroke="black" points="544.84,-216.5 570.84,-216.5 "/>
<text text-anchor="middle" x="557.84" y="-201.3" font-family="Times New Roman,serif" font-size="14.00">S</text>
<polyline fill="none" stroke="black" points="570.84,-193.5 570.84,-262.5 "/>
<text text-anchor="middle" x="594.34" y="-231.8" font-family="Times New Roman,serif" font-size="14.00">$8</text>
<text text-anchor="middle" x="594.34" y="-216.8" font-family="Times New Roman,serif" font-size="14.00">$mux</text>
<polyline fill="none" stroke="black" points="617.84,-193.5 617.84,-262.5 "/>
<text text-anchor="middle" x="630.84" y="-224.3" font-family="Times New Roman,serif" font-size="14.00">Y</text>
</g>
<!-- n6&#45;&gt;c19 -->
<g id="edge33" class="edge">
<title>n6:e&#45;&gt;c19:w</title>
<path fill="none" stroke="#1b9e77" d="M60.5,-319C85.34,-319 127.16,-115 152,-115 152,-115 152,-115 424.84,-115 487.86,-115 479.39,-195.43 534.6,-204.22"/>
<polygon fill="#1b9e77" stroke="#1b9e77" points="534.61,-207.73 544.84,-205 535.14,-200.75 534.61,-207.73"/>
</g>
<!-- c10&#45;&gt;n5 -->
<g id="edge21" class="edge">
<title>c10:e&#45;&gt;n5:w</title>
<path fill="none" stroke="#1b9e77" stroke-width="3" d="M208.5,-797C234.47,-797 238.99,-591.82 260.77,-551.74"/>
<polygon fill="#1b9e77" stroke="#1b9e77" stroke-width="3" points="263.26,-554.21 268.5,-545 258.66,-548.94 263.26,-554.21"/>
<text text-anchor="middle" x="238.5" y="-758.8" font-family="Times New Roman,serif" font-size="14.00" fill="#1b9e77">&lt;5&gt;</text>
</g>
<!-- v0 -->
<g id="node6" class="node">
<title>v0</title>
<ellipse fill="none" stroke="black" cx="594.34" cy="-369" rx="27" ry="18"/>
<text text-anchor="middle" x="594.34" y="-365.3" font-family="Times New Roman,serif" font-size="14.00">1&#39;1</text>
</g>
<!-- v0&#45;&gt;c15 -->
<g id="edge34" class="edge">
<title>v0:e&#45;&gt;c15:w</title>
<path fill="none" stroke="#7570b3" d="M622.34,-369C645.01,-369 652.44,-376.39 670.82,-378.46"/>
<polygon fill="#7570b3" stroke="#7570b3" points="670.67,-381.96 680.84,-379 671.04,-374.97 670.67,-381.96"/>
</g>
<!-- x1 -->
<g id="node8" class="node">
<title>x1</title>
<path fill="none" stroke="black" d="M889.84,-371C889.84,-371 927.84,-371 927.84,-371 933.84,-371 939.84,-377 939.84,-383 939.84,-383 939.84,-395 939.84,-395 939.84,-401 933.84,-407 927.84,-407 927.84,-407 889.84,-407 889.84,-407 883.84,-407 877.84,-401 877.84,-395 877.84,-395 877.84,-383 877.84,-383 877.84,-377 883.84,-371 889.84,-371"/>
<text text-anchor="middle" x="908.84" y="-385.3" font-family="Times New Roman,serif" font-size="14.00">0:0 &#45; 2:2</text>
</g>
<!-- c15&#45;&gt;x1 -->
<g id="edge1" class="edge">
<title>c15:e&#45;&gt;x1:w</title>
<path fill="none" stroke="#66a61e" d="M792.22,-379.29C822.38,-380.75 835.53,-387.31 865.84,-388.73"/>
<polygon fill="none" stroke="#66a61e" points="791.84,-379.28 785.75,-383.14 779.84,-379 785.93,-375.14 791.84,-379.28"/>
<polygon fill="none" stroke="#66a61e" points="865.84,-388.73 871.93,-384.87 877.84,-389 871.75,-392.86 865.84,-388.73"/>
</g>
<!-- n1 -->
<g id="node29" class="node">
<title>n1</title>
<ellipse fill="black" stroke="black" cx="978.64" cy="-434" rx="1.8" ry="1.8"/>
</g>
<!-- x1&#45;&gt;n1 -->
<g id="edge14" class="edge">
<title>x1:e&#45;&gt;n1:w</title>
<path fill="none" stroke="#e6ab02" d="M939.84,-389C961.49,-389 954.71,-420.45 967.02,-430.76"/>
<polygon fill="#e6ab02" stroke="#e6ab02" points="966.25,-434.19 976.84,-434 968.44,-427.55 966.25,-434.19"/>
</g>
<!-- v3 -->
<g id="node9" class="node">
<title>v3</title>
<ellipse fill="none" stroke="black" cx="423.84" cy="-625" rx="27" ry="18"/>
<text text-anchor="middle" x="423.84" y="-621.3" font-family="Times New Roman,serif" font-size="14.00">1&#39;1</text>
</g>
<!-- v3&#45;&gt;c16 -->
<g id="edge36" class="edge">
<title>v3:e&#45;&gt;c16:w</title>
<path fill="none" stroke="#a6761d" d="M451.84,-625C495.7,-625 497.3,-670.04 534.55,-677.08"/>
<polygon fill="#a6761d" stroke="#a6761d" points="534.57,-680.6 544.84,-678 535.19,-673.62 534.57,-680.6"/>
</g>
<!-- x4 -->
<g id="node12" class="node">
<title>x4</title>
<path fill="none" stroke="black" d="M809.84,-546C809.84,-546 847.84,-546 847.84,-546 853.84,-546 859.84,-552 859.84,-558 859.84,-558 859.84,-570 859.84,-570 859.84,-576 853.84,-582 847.84,-582 847.84,-582 809.84,-582 809.84,-582 803.84,-582 797.84,-576 797.84,-570 797.84,-570 797.84,-558 797.84,-558 797.84,-552 803.84,-546 809.84,-546"/>
<text text-anchor="middle" x="828.84" y="-560.3" font-family="Times New Roman,serif" font-size="14.00">0:0 &#45; 1:1</text>
</g>
<!-- c16&#45;&gt;x4 -->
<g id="edge3" class="edge">
<title>c16:e&#45;&gt;x4:w</title>
<path fill="none" stroke="#1b9e77" d="M656.06,-677.15C723.83,-667.27 717.9,-574.58 785.79,-564.83"/>
<polygon fill="none" stroke="#1b9e77" points="655.81,-677.16 650.11,-681.57 643.84,-678 649.55,-673.59 655.81,-677.16"/>
<polygon fill="none" stroke="#1b9e77" points="785.87,-564.82 791.58,-560.42 797.84,-564 792.13,-568.4 785.87,-564.82"/>
</g>
<!-- x2&#45;&gt;c16 -->
<g id="edge2" class="edge">
<title>x2:e&#45;&gt;c16:w</title>
<path fill="none" stroke="#1b9e77" d="M465.75,-685.54C467.54,-687.21 469.59,-688.89 472.84,-690 499.28,-699.04 509.61,-700.67 532.76,-700.95"/>
<polygon fill="none" stroke="#1b9e77" points="465.54,-685.43 458.38,-686.28 454.84,-680 462,-679.15 465.54,-685.43"/>
<polygon fill="none" stroke="#1b9e77" points="532.84,-700.95 538.86,-696.97 544.84,-701 538.82,-704.97 532.84,-700.95"/>
</g>
<!-- x4&#45;&gt;n1 -->
<g id="edge15" class="edge">
<title>x4:e&#45;&gt;n1:w</title>
<path fill="none" stroke="#e6ab02" d="M859.84,-564C923.66,-564 918.56,-509.49 958.84,-460 964.66,-452.85 964.54,-443.88 967.74,-438.57"/>
<polygon fill="#e6ab02" stroke="#e6ab02" points="969.48,-441.62 976.84,-434 966.33,-435.36 969.48,-441.62"/>
</g>
<!-- v6 -->
<g id="node13" class="node">
<title>v6</title>
<ellipse fill="none" stroke="black" cx="423.84" cy="-69" rx="27" ry="18"/>
<text text-anchor="middle" x="423.84" y="-65.3" font-family="Times New Roman,serif" font-size="14.00">1&#39;1</text>
</g>
<!-- v6&#45;&gt;c17 -->
<g id="edge37" class="edge">
<title>v6:e&#45;&gt;c17:w</title>
<path fill="none" stroke="#7570b3" d="M451.84,-69C488.08,-69 499.86,-76.81 526.84,-101 535.19,-108.49 532.86,-120.81 535.88,-127.77"/>
<polygon fill="#7570b3" stroke="#7570b3" points="534.44,-130.98 544.84,-133 537.97,-124.94 534.44,-130.98"/>
</g>
<!-- x7 -->
<g id="node16" class="node">
<title>x7</title>
<path fill="none" stroke="black" d="M809.84,-205C809.84,-205 847.84,-205 847.84,-205 853.84,-205 859.84,-211 859.84,-217 859.84,-217 859.84,-229 859.84,-229 859.84,-235 853.84,-241 847.84,-241 847.84,-241 809.84,-241 809.84,-241 803.84,-241 797.84,-235 797.84,-229 797.84,-229 797.84,-217 797.84,-217 797.84,-211 803.84,-205 809.84,-205"/>
<text text-anchor="middle" x="828.84" y="-219.3" font-family="Times New Roman,serif" font-size="14.00">0:0 &#45; 0:0</text>
</g>
<!-- c17&#45;&gt;x7 -->
<g id="edge5" class="edge">
<title>c17:e&#45;&gt;x7:w</title>
<path fill="none" stroke="#e7298a" d="M656.12,-133.78C719.09,-142.08 722.68,-214.12 785.8,-222.25"/>
<polygon fill="none" stroke="#e7298a" points="655.82,-133.76 649.58,-137.37 643.84,-133 650.08,-129.39 655.82,-133.76"/>
<polygon fill="none" stroke="#e7298a" points="785.86,-222.26 792.1,-218.64 797.84,-223 791.61,-226.62 785.86,-222.26"/>
</g>
<!-- x5&#45;&gt;c17 -->
<g id="edge4" class="edge">
<title>x5:e&#45;&gt;c17:w</title>
<path fill="none" stroke="#7570b3" d="M466.99,-161.8C493.63,-160.89 505.92,-157.13 532.49,-156.21"/>
<polygon fill="none" stroke="#7570b3" points="466.84,-161.8 460.91,-165.9 454.84,-162 460.77,-157.9 466.84,-161.8"/>
<polygon fill="none" stroke="#7570b3" points="532.84,-156.2 538.78,-152.1 544.84,-156 538.91,-160.1 532.84,-156.2"/>
</g>
<!-- x7&#45;&gt;n1 -->
<g id="edge16" class="edge">
<title>x7:e&#45;&gt;n1:w</title>
<path fill="none" stroke="#e6ab02" d="M859.84,-223C905.1,-223 915.25,-248 939.84,-286 941.78,-289 963.77,-392.3 973.14,-424.51"/>
<polygon fill="#e6ab02" stroke="#e6ab02" points="969.95,-425.95 976.84,-434 976.47,-423.41 969.95,-425.95"/>
</g>
<!-- v9 -->
<g id="node17" class="node">
<title>v9</title>
<ellipse fill="none" stroke="black" cx="423.84" cy="-515" rx="27" ry="18"/>
<text text-anchor="middle" x="423.84" y="-511.3" font-family="Times New Roman,serif" font-size="14.00">1&#39;1</text>
</g>
<!-- v9&#45;&gt;c18 -->
<g id="edge38" class="edge">
<title>v9:e&#45;&gt;c18:w</title>
<path fill="none" stroke="#a6761d" d="M451.84,-515C489.7,-515 501.44,-509.99 534.82,-509.13"/>
<polygon fill="#a6761d" stroke="#a6761d" points="534.89,-512.62 544.84,-509 534.8,-505.63 534.89,-512.62"/>
</g>
<!-- x10 -->
<g id="node20" class="node">
<title>x10</title>
<path fill="none" stroke="black" d="M711.34,-460C711.34,-460 749.34,-460 749.34,-460 755.34,-460 761.34,-466 761.34,-472 761.34,-472 761.34,-484 761.34,-484 761.34,-490 755.34,-496 749.34,-496 749.34,-496 711.34,-496 711.34,-496 705.34,-496 699.34,-490 699.34,-484 699.34,-484 699.34,-472 699.34,-472 699.34,-466 705.34,-460 711.34,-460"/>
<text text-anchor="middle" x="730.34" y="-474.3" font-family="Times New Roman,serif" font-size="14.00">0:0 &#45; 4:4</text>
</g>
<!-- c18&#45;&gt;x10 -->
<g id="edge7" class="edge">
<title>c18:e&#45;&gt;x10:w</title>
<path fill="none" stroke="#7570b3" d="M655.93,-506.57C668.85,-500.74 673.46,-486.06 686.47,-480.34"/>
<polygon fill="none" stroke="#7570b3" points="655.61,-506.63 650.51,-511.74 643.84,-509 648.93,-503.89 655.61,-506.63"/>
<polygon fill="none" stroke="#7570b3" points="686.57,-480.32 691.68,-475.23 698.34,-478 693.23,-483.08 686.57,-480.32"/>
</g>
<!-- x8&#45;&gt;c18 -->
<g id="edge6" class="edge">
<title>x8:e&#45;&gt;c18:w</title>
<path fill="none" stroke="#e7298a" d="M466.91,-568.9C495.65,-563.38 504.02,-538.64 532.75,-533.1"/>
<polygon fill="none" stroke="#e7298a" points="466.79,-568.91 461.18,-573.44 454.84,-570 460.45,-565.47 466.79,-568.91"/>
<polygon fill="none" stroke="#e7298a" points="532.89,-533.09 538.5,-528.56 544.84,-532 539.23,-536.53 532.89,-533.09"/>
</g>
<!-- x10&#45;&gt;n1 -->
<g id="edge12" class="edge">
<title>x10:e&#45;&gt;n1:w</title>
<path fill="none" stroke="#e6ab02" d="M762.34,-478C856.14,-478 877.99,-437.12 966.59,-434.17"/>
<polygon fill="#e6ab02" stroke="#e6ab02" points="966.9,-437.66 976.84,-434 966.79,-430.66 966.9,-437.66"/>
</g>
<!-- v12 -->
<g id="node21" class="node">
<title>v12</title>
<ellipse fill="none" stroke="black" cx="423.84" cy="-217" rx="27" ry="18"/>
<text text-anchor="middle" x="423.84" y="-213.3" font-family="Times New Roman,serif" font-size="14.00">1&#39;1</text>
</g>
<!-- v12&#45;&gt;c19 -->
<g id="edge35" class="edge">
<title>v12:e&#45;&gt;c19:w</title>
<path fill="none" stroke="#666666" d="M451.84,-217C489.89,-217 501.31,-226.19 534.78,-227.77"/>
<polygon fill="#666666" stroke="#666666" points="534.76,-231.27 544.84,-228 534.92,-224.27 534.76,-231.27"/>
</g>
<!-- x13 -->
<g id="node24" class="node">
<title>x13</title>
<path fill="none" stroke="black" d="M889.84,-296C889.84,-296 927.84,-296 927.84,-296 933.84,-296 939.84,-302 939.84,-308 939.84,-308 939.84,-320 939.84,-320 939.84,-326 933.84,-332 927.84,-332 927.84,-332 889.84,-332 889.84,-332 883.84,-332 877.84,-326 877.84,-320 877.84,-320 877.84,-308 877.84,-308 877.84,-302 883.84,-296 889.84,-296"/>
<text text-anchor="middle" x="908.84" y="-310.3" font-family="Times New Roman,serif" font-size="14.00">0:0 &#45; 3:3</text>
</g>
<!-- c19&#45;&gt;x13 -->
<g id="edge9" class="edge">
<title>c19:e&#45;&gt;x13:w</title>
<path fill="none" stroke="#1b9e77" d="M656.08,-228.36C751.84,-234.19 769.92,-307.9 865.76,-313.64"/>
<polygon fill="none" stroke="#1b9e77" points="655.84,-228.36 649.72,-232.18 643.84,-228 649.96,-224.18 655.84,-228.36"/>
<polygon fill="none" stroke="#1b9e77" points="865.85,-313.65 871.96,-309.83 877.84,-314 871.73,-317.82 865.85,-313.65"/>
</g>
<!-- x11&#45;&gt;c19 -->
<g id="edge8" class="edge">
<title>x11:e&#45;&gt;c19:w</title>
<path fill="none" stroke="#d95f02" d="M467.21,-271.3C494.3,-268.1 505.48,-254.84 532.63,-251.68"/>
<polygon fill="none" stroke="#d95f02" points="466.82,-271.32 461.06,-275.66 454.84,-272 460.61,-267.67 466.82,-271.32"/>
<polygon fill="none" stroke="#d95f02" points="532.86,-251.67 538.63,-247.34 544.84,-251 539.07,-255.33 532.86,-251.67"/>
</g>
<!-- x13&#45;&gt;n1 -->
<g id="edge13" class="edge">
<title>x13:e&#45;&gt;n1:w</title>
<path fill="none" stroke="#e6ab02" d="M939.84,-314C964.15,-314 953.01,-405.06 968.18,-428.53"/>
<polygon fill="#e6ab02" stroke="#e6ab02" points="966.52,-431.62 976.84,-434 970.25,-425.7 966.52,-431.62"/>
</g>
<!-- c20 -->
<g id="node25" class="node">
<title>c20</title>
<polygon fill="none" stroke="black" points="547.34,-406 547.34,-452 641.34,-452 641.34,-406 547.34,-406"/>
<text text-anchor="middle" x="560.34" y="-436.8" font-family="Times New Roman,serif" font-size="14.00">A</text>
<polyline fill="none" stroke="black" points="547.34,-429 573.34,-429 "/>
<text text-anchor="middle" x="560.34" y="-413.8" font-family="Times New Roman,serif" font-size="14.00">B</text>
<polyline fill="none" stroke="black" points="573.34,-406 573.34,-452 "/>
<text text-anchor="middle" x="594.34" y="-432.8" font-family="Times New Roman,serif" font-size="14.00">$2</text>
<text text-anchor="middle" x="594.34" y="-417.8" font-family="Times New Roman,serif" font-size="14.00">$xor</text>
<polyline fill="none" stroke="black" points="615.34,-406 615.34,-452 "/>
<text text-anchor="middle" x="628.34" y="-425.3" font-family="Times New Roman,serif" font-size="14.00">Y</text>
</g>
<!-- c20&#45;&gt;c15 -->
<g id="edge18" class="edge">
<title>c20:e&#45;&gt;c15:w</title>
<path fill="none" stroke="#d95f02" d="M642.34,-429C659.16,-429 660.31,-411.52 671,-404.69"/>
<polygon fill="#d95f02" stroke="#d95f02" points="672.12,-408.01 680.84,-402 670.27,-401.26 672.12,-408.01"/>
</g>
<!-- x14&#45;&gt;c20 -->
<g id="edge10" class="edge">
<title>x14:e&#45;&gt;c20:w</title>
<path fill="none" stroke="#1b9e77" d="M466.96,-459.41C494.82,-456.58 506.4,-444.4 534.29,-441.58"/>
<polygon fill="none" stroke="#1b9e77" points="466.83,-459.42 461.03,-463.7 454.84,-460 460.64,-455.71 466.83,-459.42"/>
<polygon fill="none" stroke="#1b9e77" points="534.36,-441.58 540.16,-437.29 546.34,-441 540.54,-445.29 534.36,-441.58"/>
</g>
<!-- x15&#45;&gt;c20 -->
<g id="edge11" class="edge">
<title>x15:e&#45;&gt;c20:w</title>
<path fill="none" stroke="#e6ab02" d="M466.84,-366.62C492.26,-369.47 501.21,-381.93 526.84,-399 531.9,-402.37 533.79,-407.05 536.05,-410.79"/>
<polygon fill="none" stroke="#e6ab02" points="466.83,-366.62 460.63,-370.3 454.84,-366 461.04,-362.31 466.83,-366.62"/>
<polygon fill="none" stroke="#e6ab02" points="536.07,-410.8 543.27,-410.48 546.34,-417 539.14,-417.33 536.07,-410.8"/>
</g>
<!-- x16&#45;&gt;n4 -->
<g id="edge20" class="edge">
<title>x16:e&#45;&gt;n4:w</title>
<path fill="none" stroke="#d95f02" stroke-width="3" d="M526.84,-765C586.84,-765 601.84,-765 661.84,-765 661.84,-765 661.84,-765 958.84,-765 972.45,-765 978.17,-765 988.2,-765"/>
<polygon fill="#d95f02" stroke="#d95f02" stroke-width="3" points="988.44,-768.5 998.44,-765 988.44,-761.5 988.44,-768.5"/>
<text text-anchor="middle" x="828.84" y="-768.8" font-family="Times New Roman,serif" font-size="14.00" fill="#d95f02">&lt;5&gt;</text>
</g>
<!-- n1&#45;&gt;c10 -->
<g id="edge17" class="edge">
<title>n1:e&#45;&gt;c10:w</title>
<path fill="none" stroke="#e6ab02" d="M981.64,-434C1002.23,-434 876.03,-771.28 859.84,-784 790.68,-838.35 750.8,-803 662.84,-803 299.67,-803 299.67,-803 299.67,-803 257.08,-803 250.57,-780.14 208.5,-773.5 159.55,-765.78 133.53,-740.01 97,-773.5 96.53,-773.93 96.08,-774.44 95.66,-774.99"/>
<polygon fill="#e6ab02" stroke="#e6ab02" points="92.16,-775.12 96,-785 99.16,-774.89 92.16,-775.12"/>
</g>
</g>
</svg>
