<?xml version="1.0" encoding="UTF-8" standalone="no"?>
<!DOCTYPE svg PUBLIC "-//W3C//DTD SVG 1.1//EN"
 "http://www.w3.org/Graphics/SVG/1.1/DTD/svg11.dtd">
<!-- Generated by graphviz version 4.0.0 (20220529.0937)
 -->
<!-- Title: top_module Pages: 1 -->
<svg width="1538pt" height="1028pt"
 viewBox="0.00 0.00 1538.13 1027.72" xmlns="http://www.w3.org/2000/svg" xmlns:xlink="http://www.w3.org/1999/xlink">
<g id="graph0" class="graph" transform="scale(1 1) rotate(0) translate(4 1023.72)">
<title>top_module</title>
<polygon fill="white" stroke="transparent" points="-4,4 -4,-1023.72 1534.13,-1023.72 1534.13,4 -4,4"/>
<text text-anchor="middle" x="765.07" y="-7.8" font-family="Times New Roman,serif" font-size="14.00">top_module</text>
<!-- n1 -->
<g id="node1" class="node">
<title>n1</title>
<polygon fill="none" stroke="black" points="224.65,-746.47 78.35,-728.47 224.65,-710.47 370.94,-728.47 224.65,-746.47"/>
<text text-anchor="middle" x="224.65" y="-724.77" font-family="Times New Roman,serif" font-size="14.00">q_i_SB_DFFSS_Q_2_D</text>
</g>
<!-- c17 -->
<g id="node14" class="node">
<title>c17</title>
<polygon fill="none" stroke="black" points="407.79,-664.97 407.79,-733.97 602.79,-733.97 602.79,-664.97 407.79,-664.97"/>
<text text-anchor="middle" x="420.79" y="-718.77" font-family="Times New Roman,serif" font-size="14.00">C</text>
<polyline fill="none" stroke="black" points="407.79,-710.97 433.79,-710.97 "/>
<text text-anchor="middle" x="420.79" y="-695.77" font-family="Times New Roman,serif" font-size="14.00">D</text>
<polyline fill="none" stroke="black" points="407.79,-687.97 433.79,-687.97 "/>
<text text-anchor="middle" x="420.79" y="-672.77" font-family="Times New Roman,serif" font-size="14.00">S</text>
<polyline fill="none" stroke="black" points="433.79,-664.97 433.79,-733.97 "/>
<text text-anchor="middle" x="504.79" y="-703.27" font-family="Times New Roman,serif" font-size="14.00">q_i_SB_DFFSS_Q_2</text>
<text text-anchor="middle" x="504.79" y="-688.27" font-family="Times New Roman,serif" font-size="14.00">SB_DFFSS</text>
<polyline fill="none" stroke="black" points="575.79,-664.97 575.79,-733.97 "/>
<text text-anchor="middle" x="589.29" y="-695.77" font-family="Times New Roman,serif" font-size="14.00">Q</text>
</g>
<!-- n1&#45;&gt;c17 -->
<g id="edge13" class="edge">
<title>n1:e&#45;&gt;c17:w</title>
<path fill="none" stroke="#e6ab02" d="M370.79,-728.47C387.61,-728.47 387.79,-709.69 398.11,-702.35"/>
<polygon fill="#e6ab02" stroke="#e6ab02" points="399.21,-705.68 407.79,-699.47 397.21,-698.97 399.21,-705.68"/>
</g>
<!-- n2 -->
<g id="node2" class="node">
<title>n2</title>
<polygon fill="none" stroke="black" points="57.25,-285.01 57.25,-299.92 41.43,-310.47 19.07,-310.47 3.25,-299.92 3.25,-285.01 19.07,-274.47 41.43,-274.47 57.25,-285.01"/>
<text text-anchor="middle" x="30.25" y="-288.77" font-family="Times New Roman,serif" font-size="14.00">clk</text>
</g>
<!-- c16 -->
<g id="node11" class="node">
<title>c16</title>
<polygon fill="none" stroke="black" points="1089.63,-151.97 1089.63,-220.97 1284.63,-220.97 1284.63,-151.97 1089.63,-151.97"/>
<text text-anchor="middle" x="1102.63" y="-205.77" font-family="Times New Roman,serif" font-size="14.00">C</text>
<polyline fill="none" stroke="black" points="1089.63,-197.97 1115.63,-197.97 "/>
<text text-anchor="middle" x="1102.63" y="-182.77" font-family="Times New Roman,serif" font-size="14.00">D</text>
<polyline fill="none" stroke="black" points="1089.63,-174.97 1115.63,-174.97 "/>
<text text-anchor="middle" x="1102.63" y="-159.77" font-family="Times New Roman,serif" font-size="14.00">S</text>
<polyline fill="none" stroke="black" points="1115.63,-151.97 1115.63,-220.97 "/>
<text text-anchor="middle" x="1186.63" y="-190.27" font-family="Times New Roman,serif" font-size="14.00">q_i_SB_DFFSS_Q_3</text>
<text text-anchor="middle" x="1186.63" y="-175.27" font-family="Times New Roman,serif" font-size="14.00">SB_DFFSS</text>
<polyline fill="none" stroke="black" points="1257.63,-151.97 1257.63,-220.97 "/>
<text text-anchor="middle" x="1271.13" y="-182.77" font-family="Times New Roman,serif" font-size="14.00">Q</text>
</g>
<!-- n2&#45;&gt;c16 -->
<g id="edge14" class="edge">
<title>n2:e&#45;&gt;c16:w</title>
<path fill="none" stroke="#d95f02" d="M58.25,-292.47C67.42,-292.47 69.48,-290.12 78.5,-288.47 267.28,-253.87 312.36,-216.47 504.29,-216.47 504.29,-216.47 504.29,-216.47 918.13,-216.47 990.21,-216.47 1010.63,-210.11 1077.86,-209.51"/>
<polygon fill="#d95f02" stroke="#d95f02" points="1078.15,-213.01 1088.13,-209.47 1078.12,-206.01 1078.15,-213.01"/>
</g>
<!-- n2&#45;&gt;c17 -->
<g id="edge15" class="edge">
<title>n2:e&#45;&gt;c17:w</title>
<path fill="none" stroke="#d95f02" d="M58.25,-292.47C109.74,-292.47 41.3,-719.86 78.5,-755.47 172.34,-845.3 249.4,-801.73 370.79,-755.47 387.52,-749.09 386.95,-731.29 397.96,-724.84"/>
<polygon fill="#d95f02" stroke="#d95f02" points="398.89,-728.21 407.79,-722.47 397.25,-721.41 398.89,-728.21"/>
</g>
<!-- c18 -->
<g id="node16" class="node">
<title>c18</title>
<polygon fill="none" stroke="black" points="1089.63,-269.97 1089.63,-338.97 1284.63,-338.97 1284.63,-269.97 1089.63,-269.97"/>
<text text-anchor="middle" x="1102.63" y="-323.77" font-family="Times New Roman,serif" font-size="14.00">C</text>
<polyline fill="none" stroke="black" points="1089.63,-315.97 1115.63,-315.97 "/>
<text text-anchor="middle" x="1102.63" y="-300.77" font-family="Times New Roman,serif" font-size="14.00">D</text>
<polyline fill="none" stroke="black" points="1089.63,-292.97 1115.63,-292.97 "/>
<text text-anchor="middle" x="1102.63" y="-277.77" font-family="Times New Roman,serif" font-size="14.00">S</text>
<polyline fill="none" stroke="black" points="1115.63,-269.97 1115.63,-338.97 "/>
<text text-anchor="middle" x="1186.63" y="-308.27" font-family="Times New Roman,serif" font-size="14.00">q_i_SB_DFFSS_Q_1</text>
<text text-anchor="middle" x="1186.63" y="-293.27" font-family="Times New Roman,serif" font-size="14.00">SB_DFFSS</text>
<polyline fill="none" stroke="black" points="1257.63,-269.97 1257.63,-338.97 "/>
<text text-anchor="middle" x="1271.13" y="-300.77" font-family="Times New Roman,serif" font-size="14.00">Q</text>
</g>
<!-- n2&#45;&gt;c18 -->
<g id="edge16" class="edge">
<title>n2:e&#45;&gt;c18:w</title>
<path fill="none" stroke="#d95f02" d="M58.25,-292.47C205.16,-292.47 241.88,-292.47 388.79,-292.47 388.79,-292.47 388.79,-292.47 918.13,-292.47 991.81,-292.47 1009.46,-324.39 1078.1,-327.26"/>
<polygon fill="#d95f02" stroke="#d95f02" points="1078.06,-330.76 1088.13,-327.47 1078.21,-323.76 1078.06,-330.76"/>
</g>
<!-- c19 -->
<g id="node19" class="node">
<title>c19</title>
<polygon fill="none" stroke="black" points="1096.63,-42.97 1096.63,-111.97 1277.63,-111.97 1277.63,-42.97 1096.63,-42.97"/>
<text text-anchor="middle" x="1109.63" y="-96.77" font-family="Times New Roman,serif" font-size="14.00">C</text>
<polyline fill="none" stroke="black" points="1096.63,-88.97 1122.63,-88.97 "/>
<text text-anchor="middle" x="1109.63" y="-73.77" font-family="Times New Roman,serif" font-size="14.00">D</text>
<polyline fill="none" stroke="black" points="1096.63,-65.97 1122.63,-65.97 "/>
<text text-anchor="middle" x="1109.63" y="-50.77" font-family="Times New Roman,serif" font-size="14.00">S</text>
<polyline fill="none" stroke="black" points="1122.63,-42.97 1122.63,-111.97 "/>
<text text-anchor="middle" x="1186.63" y="-81.27" font-family="Times New Roman,serif" font-size="14.00">q_i_SB_DFFSS_Q</text>
<text text-anchor="middle" x="1186.63" y="-66.27" font-family="Times New Roman,serif" font-size="14.00">SB_DFFSS</text>
<polyline fill="none" stroke="black" points="1250.63,-42.97 1250.63,-111.97 "/>
<text text-anchor="middle" x="1264.13" y="-73.77" font-family="Times New Roman,serif" font-size="14.00">Q</text>
</g>
<!-- n2&#45;&gt;c19 -->
<g id="edge17" class="edge">
<title>n2:e&#45;&gt;c19:w</title>
<path fill="none" stroke="#d95f02" d="M58.25,-292.47C91.06,-292.47 54.01,-243.3 78.5,-221.47 86.99,-213.9 874.8,-89.39 886.13,-88.47 975.42,-81.16 1000.27,-99.05 1085.06,-100.39"/>
<polygon fill="#d95f02" stroke="#d95f02" points="1085.11,-103.89 1095.13,-100.47 1085.16,-96.89 1085.11,-103.89"/>
</g>
<!-- c20 -->
<g id="node22" class="node">
<title>c20</title>
<polygon fill="none" stroke="black" points="1089.63,-718.97 1089.63,-787.97 1284.63,-787.97 1284.63,-718.97 1089.63,-718.97"/>
<text text-anchor="middle" x="1102.63" y="-772.77" font-family="Times New Roman,serif" font-size="14.00">C</text>
<polyline fill="none" stroke="black" points="1089.63,-764.97 1115.63,-764.97 "/>
<text text-anchor="middle" x="1102.63" y="-749.77" font-family="Times New Roman,serif" font-size="14.00">D</text>
<polyline fill="none" stroke="black" points="1089.63,-741.97 1115.63,-741.97 "/>
<text text-anchor="middle" x="1102.63" y="-726.77" font-family="Times New Roman,serif" font-size="14.00">S</text>
<polyline fill="none" stroke="black" points="1115.63,-718.97 1115.63,-787.97 "/>
<text text-anchor="middle" x="1186.63" y="-757.27" font-family="Times New Roman,serif" font-size="14.00">q_i_SB_DFFSS_Q_4</text>
<text text-anchor="middle" x="1186.63" y="-742.27" font-family="Times New Roman,serif" font-size="14.00">SB_DFFSS</text>
<polyline fill="none" stroke="black" points="1257.63,-718.97 1257.63,-787.97 "/>
<text text-anchor="middle" x="1271.13" y="-749.77" font-family="Times New Roman,serif" font-size="14.00">Q</text>
</g>
<!-- n2&#45;&gt;c20 -->
<g id="edge18" class="edge">
<title>n2:e&#45;&gt;c20:w</title>
<path fill="none" stroke="#d95f02" d="M58.25,-292.47C86.22,-292.47 59.32,-775.11 78.5,-795.47 173.55,-896.33 250.2,-826.47 388.79,-826.47 388.79,-826.47 388.79,-826.47 794.96,-826.47 857.83,-826.47 1006.55,-781.23 1077.8,-776.81"/>
<polygon fill="#d95f02" stroke="#d95f02" points="1078.26,-780.3 1088.13,-776.47 1078.02,-773.3 1078.26,-780.3"/>
</g>
<!-- n3 -->
<g id="node3" class="node">
<title>n3</title>
<polygon fill="none" stroke="black" points="1530.13,-615.01 1530.13,-629.92 1514.32,-640.47 1491.95,-640.47 1476.13,-629.92 1476.13,-615.01 1491.95,-604.47 1514.32,-604.47 1530.13,-615.01"/>
<text text-anchor="middle" x="1503.13" y="-618.77" font-family="Times New Roman,serif" font-size="14.00">q</text>
</g>
<!-- n4 -->
<g id="node4" class="node">
<title>n4</title>
<polygon fill="none" stroke="black" points="793.96,-549.47 761.62,-531.47 793.96,-513.47 826.3,-531.47 793.96,-549.47"/>
<text text-anchor="middle" x="793.96" y="-527.77" font-family="Times New Roman,serif" font-size="14.00">q_i</text>
</g>
<!-- x2 -->
<g id="node9" class="node">
<title>x2</title>
<path fill="none" stroke="black" d="M898.13,-744.47C898.13,-744.47 936.13,-744.47 936.13,-744.47 942.13,-744.47 948.13,-750.47 948.13,-756.47 948.13,-756.47 948.13,-768.47 948.13,-768.47 948.13,-774.47 942.13,-780.47 936.13,-780.47 936.13,-780.47 898.13,-780.47 898.13,-780.47 892.13,-780.47 886.13,-774.47 886.13,-768.47 886.13,-768.47 886.13,-756.47 886.13,-756.47 886.13,-750.47 892.13,-744.47 898.13,-744.47"/>
<text text-anchor="middle" x="917.13" y="-758.77" font-family="Times New Roman,serif" font-size="14.00">3:3 &#45; 0:0</text>
</g>
<!-- n4&#45;&gt;x2 -->
<g id="edge27" class="edge">
<title>n4:e&#45;&gt;x2:w</title>
<path fill="none" stroke="#d95f02" stroke-width="3" d="M826.13,-531.47C855.52,-531.47 835.21,-634.47 844.13,-662.47 851.14,-684.44 859.13,-687.24 868.13,-708.47 876.24,-727.57 866.14,-751.67 876.21,-759.71"/>
<polygon fill="#d95f02" stroke="#d95f02" stroke-width="3" points="875.56,-763.17 886.13,-762.47 877.43,-756.42 875.56,-763.17"/>
<text text-anchor="middle" x="856.13" y="-712.27" font-family="Times New Roman,serif" font-size="14.00" fill="#d95f02">&lt;5&gt;</text>
</g>
<!-- x3 -->
<g id="node10" class="node">
<title>x3</title>
<path fill="none" stroke="black" d="M898.13,-816.47C898.13,-816.47 936.13,-816.47 936.13,-816.47 942.13,-816.47 948.13,-822.47 948.13,-828.47 948.13,-828.47 948.13,-840.47 948.13,-840.47 948.13,-846.47 942.13,-852.47 936.13,-852.47 936.13,-852.47 898.13,-852.47 898.13,-852.47 892.13,-852.47 886.13,-846.47 886.13,-840.47 886.13,-840.47 886.13,-828.47 886.13,-828.47 886.13,-822.47 892.13,-816.47 898.13,-816.47"/>
<text text-anchor="middle" x="917.13" y="-830.77" font-family="Times New Roman,serif" font-size="14.00">0:0 &#45; 0:0</text>
</g>
<!-- n4&#45;&gt;x3 -->
<g id="edge28" class="edge">
<title>n4:e&#45;&gt;x3:w</title>
<path fill="none" stroke="#d95f02" stroke-width="3" d="M826.13,-531.47C847.56,-531.47 839.3,-702.59 844.13,-723.47 855.2,-771.24 836.4,-826.12 876.09,-833.61"/>
<polygon fill="#d95f02" stroke="#d95f02" stroke-width="3" points="875.87,-837.1 886.13,-834.47 876.47,-830.13 875.87,-837.1"/>
<text text-anchor="middle" x="856.13" y="-834.27" font-family="Times New Roman,serif" font-size="14.00" fill="#d95f02">&lt;5&gt;</text>
</g>
<!-- x4 -->
<g id="node12" class="node">
<title>x4</title>
<path fill="none" stroke="black" d="M898.13,-314.47C898.13,-314.47 936.13,-314.47 936.13,-314.47 942.13,-314.47 948.13,-320.47 948.13,-326.47 948.13,-326.47 948.13,-338.47 948.13,-338.47 948.13,-344.47 942.13,-350.47 936.13,-350.47 936.13,-350.47 898.13,-350.47 898.13,-350.47 892.13,-350.47 886.13,-344.47 886.13,-338.47 886.13,-338.47 886.13,-326.47 886.13,-326.47 886.13,-320.47 892.13,-314.47 898.13,-314.47"/>
<text text-anchor="middle" x="917.13" y="-328.77" font-family="Times New Roman,serif" font-size="14.00">2:2 &#45; 0:0</text>
</g>
<!-- n4&#45;&gt;x4 -->
<g id="edge29" class="edge">
<title>n4:e&#45;&gt;x4:w</title>
<path fill="none" stroke="#d95f02" stroke-width="3" d="M826.13,-531.47C866.11,-531.47 821.12,-385.16 844.13,-352.47 853.9,-338.6 861.99,-334.02 876,-332.83"/>
<polygon fill="#d95f02" stroke="#d95f02" stroke-width="3" points="876.26,-336.32 886.13,-332.47 876.01,-329.33 876.26,-336.32"/>
<text text-anchor="middle" x="856.13" y="-356.27" font-family="Times New Roman,serif" font-size="14.00" fill="#d95f02">&lt;5&gt;</text>
</g>
<!-- x7 -->
<g id="node17" class="node">
<title>x7</title>
<path fill="none" stroke="black" d="M898.13,-407.47C898.13,-407.47 936.13,-407.47 936.13,-407.47 942.13,-407.47 948.13,-413.47 948.13,-419.47 948.13,-419.47 948.13,-431.47 948.13,-431.47 948.13,-437.47 942.13,-443.47 936.13,-443.47 936.13,-443.47 898.13,-443.47 898.13,-443.47 892.13,-443.47 886.13,-437.47 886.13,-431.47 886.13,-431.47 886.13,-419.47 886.13,-419.47 886.13,-413.47 892.13,-407.47 898.13,-407.47"/>
<text text-anchor="middle" x="917.13" y="-421.77" font-family="Times New Roman,serif" font-size="14.00">4:4 &#45; 0:0</text>
</g>
<!-- n4&#45;&gt;x7 -->
<g id="edge30" class="edge">
<title>n4:e&#45;&gt;x7:w</title>
<path fill="none" stroke="#d95f02" stroke-width="3" d="M826.13,-531.47C866.93,-531.47 817.79,-472.61 844.13,-441.47 854.62,-429.08 862.6,-426.26 875.95,-425.64"/>
<polygon fill="#d95f02" stroke="#d95f02" stroke-width="3" points="876.19,-429.13 886.13,-425.47 876.08,-422.13 876.19,-429.13"/>
<text text-anchor="middle" x="856.13" y="-445.27" font-family="Times New Roman,serif" font-size="14.00" fill="#d95f02">&lt;5&gt;</text>
</g>
<!-- x9 -->
<g id="node20" class="node">
<title>x9</title>
<path fill="none" stroke="black" d="M898.13,-132.47C898.13,-132.47 936.13,-132.47 936.13,-132.47 942.13,-132.47 948.13,-138.47 948.13,-144.47 948.13,-144.47 948.13,-156.47 948.13,-156.47 948.13,-162.47 942.13,-168.47 936.13,-168.47 936.13,-168.47 898.13,-168.47 898.13,-168.47 892.13,-168.47 886.13,-162.47 886.13,-156.47 886.13,-156.47 886.13,-144.47 886.13,-144.47 886.13,-138.47 892.13,-132.47 898.13,-132.47"/>
<text text-anchor="middle" x="917.13" y="-146.77" font-family="Times New Roman,serif" font-size="14.00">0:0 &#45; 0:0</text>
</g>
<!-- n4&#45;&gt;x9 -->
<g id="edge31" class="edge">
<title>n4:e&#45;&gt;x9:w</title>
<path fill="none" stroke="#d95f02" stroke-width="3" d="M826.13,-531.47C850.22,-531.47 840.15,-339.22 844.13,-315.47 856.04,-244.48 814.83,-159.25 875.9,-151.1"/>
<polygon fill="#d95f02" stroke="#d95f02" stroke-width="3" points="876.37,-154.58 886.13,-150.47 875.94,-147.59 876.37,-154.58"/>
<text text-anchor="middle" x="856.13" y="-319.27" font-family="Times New Roman,serif" font-size="14.00" fill="#d95f02">&lt;5&gt;</text>
</g>
<!-- x11 -->
<g id="node23" class="node">
<title>x11</title>
<path fill="none" stroke="black" d="M898.13,-541.47C898.13,-541.47 936.13,-541.47 936.13,-541.47 942.13,-541.47 948.13,-547.47 948.13,-553.47 948.13,-553.47 948.13,-565.47 948.13,-565.47 948.13,-571.47 942.13,-577.47 936.13,-577.47 936.13,-577.47 898.13,-577.47 898.13,-577.47 892.13,-577.47 886.13,-571.47 886.13,-565.47 886.13,-565.47 886.13,-553.47 886.13,-553.47 886.13,-547.47 892.13,-541.47 898.13,-541.47"/>
<text text-anchor="middle" x="917.13" y="-555.77" font-family="Times New Roman,serif" font-size="14.00">1:1 &#45; 0:0</text>
</g>
<!-- n4&#45;&gt;x11 -->
<g id="edge25" class="edge">
<title>n4:e&#45;&gt;x11:w</title>
<path fill="none" stroke="#d95f02" stroke-width="3" d="M826.13,-531.47C851.77,-531.47 855.94,-552.71 876.04,-558.19"/>
<polygon fill="#d95f02" stroke="#d95f02" stroke-width="3" points="875.77,-561.68 886.13,-559.47 876.65,-554.74 875.77,-561.68"/>
<text text-anchor="middle" x="856.13" y="-559.27" font-family="Times New Roman,serif" font-size="14.00" fill="#d95f02">&lt;5&gt;</text>
</g>
<!-- x13 -->
<g id="node25" class="node">
<title>x13</title>
<path fill="none" stroke="black" d="M1008.13,-666.47C1008.13,-666.47 978.13,-666.47 978.13,-666.47 972.13,-666.47 966.13,-660.47 966.13,-654.47 966.13,-654.47 966.13,-642.47 966.13,-642.47 966.13,-636.47 972.13,-630.47 978.13,-630.47 978.13,-630.47 1008.13,-630.47 1008.13,-630.47 1014.13,-630.47 1020.13,-636.47 1020.13,-642.47 1020.13,-642.47 1020.13,-654.47 1020.13,-654.47 1020.13,-660.47 1014.13,-666.47 1008.13,-666.47"/>
<text text-anchor="middle" x="993.13" y="-644.77" font-family="Times New Roman,serif" font-size="14.00">BUF</text>
</g>
<!-- n4&#45;&gt;x13 -->
<g id="edge26" class="edge">
<title>n4:e&#45;&gt;x13:w</title>
<path fill="none" stroke="#d95f02" stroke-width="3" d="M826.13,-531.47C862.58,-531.47 819.32,-584.77 844.13,-611.47 880.3,-650.38 906.08,-648.85 955.85,-648.51"/>
<polygon fill="#d95f02" stroke="#d95f02" stroke-width="3" points="956.15,-652.01 966.13,-648.47 956.12,-645.01 956.15,-652.01"/>
<text text-anchor="middle" x="856.13" y="-635.27" font-family="Times New Roman,serif" font-size="14.00" fill="#d95f02">&lt;5&gt;</text>
</g>
<!-- n5 -->
<g id="node5" class="node">
<title>n5</title>
<polygon fill="none" stroke="black" points="60.25,-133.01 60.25,-147.92 42.68,-158.47 17.82,-158.47 0.25,-147.92 0.25,-133.01 17.82,-122.47 42.68,-122.47 60.25,-133.01"/>
<text text-anchor="middle" x="30.25" y="-136.77" font-family="Times New Roman,serif" font-size="14.00">reset</text>
</g>
<!-- n5&#45;&gt;c16 -->
<g id="edge32" class="edge">
<title>n5:e&#45;&gt;c16:w</title>
<path fill="none" stroke="#1b9e77" d="M60.5,-140.47C70.64,-140.47 69.05,-130.12 78.5,-126.47 207.5,-76.56 250.47,-102.47 388.79,-102.47 388.79,-102.47 388.79,-102.47 918.13,-102.47 994.8,-102.47 1006.87,-158.11 1077.73,-163.11"/>
<polygon fill="#1b9e77" stroke="#1b9e77" points="1078.02,-166.62 1088.13,-163.47 1078.26,-159.62 1078.02,-166.62"/>
</g>
<!-- n5&#45;&gt;c17 -->
<g id="edge33" class="edge">
<title>n5:e&#45;&gt;c17:w</title>
<path fill="none" stroke="#1b9e77" d="M60.5,-140.47C80.46,-140.47 70.4,-210.22 78.5,-228.47 177.35,-451.12 161.17,-670.17 397.45,-676.33"/>
<polygon fill="#1b9e77" stroke="#1b9e77" points="397.75,-679.84 407.79,-676.47 397.84,-672.84 397.75,-679.84"/>
</g>
<!-- n5&#45;&gt;c18 -->
<g id="edge34" class="edge">
<title>n5:e&#45;&gt;c18:w</title>
<path fill="none" stroke="#1b9e77" d="M60.5,-140.47C207.24,-140.47 244.18,-146.29 389.79,-164.47 698.71,-203.02 771.87,-279.79 1078.08,-281.44"/>
<polygon fill="#1b9e77" stroke="#1b9e77" points="1078.12,-284.94 1088.13,-281.47 1078.14,-277.94 1078.12,-284.94"/>
</g>
<!-- n5&#45;&gt;c19 -->
<g id="edge35" class="edge">
<title>n5:e&#45;&gt;c19:w</title>
<path fill="none" stroke="#1b9e77" d="M60.5,-140.47C83.28,-140.47 61.23,-107.33 78.5,-92.47 185.35,-0.48 247.8,-26.47 388.79,-26.47 388.79,-26.47 388.79,-26.47 918.13,-26.47 994.2,-26.47 1013.77,-52.01 1084.76,-54.3"/>
<polygon fill="#1b9e77" stroke="#1b9e77" points="1085.08,-57.81 1095.13,-54.47 1085.19,-50.81 1085.08,-57.81"/>
</g>
<!-- n5&#45;&gt;c20 -->
<g id="edge36" class="edge">
<title>n5:e&#45;&gt;c20:w</title>
<path fill="none" stroke="#1b9e77" d="M60.5,-140.47C74.19,-140.47 67.04,-157.97 78.5,-165.47 277.95,-296 420.35,-125.05 602.79,-278.47 790.42,-436.25 630.77,-653.73 844.13,-774.47 853.42,-779.72 859.06,-780.07 868.13,-774.47 883.35,-765.06 871.11,-748.17 886.13,-738.47 958.74,-691.58 995.44,-727.49 1078.09,-730.3"/>
<polygon fill="#1b9e77" stroke="#1b9e77" points="1078.08,-733.8 1088.13,-730.47 1078.19,-726.8 1078.08,-733.8"/>
</g>
<!-- v0 -->
<g id="node6" class="node">
<title>v0</title>
<ellipse fill="none" stroke="black" cx="917.13" cy="-991.47" rx="27" ry="18"/>
<text text-anchor="middle" x="917.13" y="-987.77" font-family="Times New Roman,serif" font-size="14.00">1&#39;0</text>
</g>
<!-- c11 -->
<g id="node8" class="node">
<title>c11</title>
<polygon fill="none" stroke="black" points="1038.13,-866.47 1038.13,-958.47 1336.13,-958.47 1336.13,-866.47 1038.13,-866.47"/>
<text text-anchor="middle" x="1052.13" y="-943.27" font-family="Times New Roman,serif" font-size="14.00">I0</text>
<polyline fill="none" stroke="black" points="1038.13,-935.47 1066.13,-935.47 "/>
<text text-anchor="middle" x="1052.13" y="-920.27" font-family="Times New Roman,serif" font-size="14.00">I1</text>
<polyline fill="none" stroke="black" points="1038.13,-912.47 1066.13,-912.47 "/>
<text text-anchor="middle" x="1052.13" y="-897.27" font-family="Times New Roman,serif" font-size="14.00">I2</text>
<polyline fill="none" stroke="black" points="1038.13,-889.47 1066.13,-889.47 "/>
<text text-anchor="middle" x="1052.13" y="-874.27" font-family="Times New Roman,serif" font-size="14.00">I3</text>
<polyline fill="none" stroke="black" points="1066.13,-866.47 1066.13,-958.47 "/>
<text text-anchor="middle" x="1187.63" y="-916.27" font-family="Times New Roman,serif" font-size="14.00">q_i_SB_DFFSS_Q_2_D_SB_LUT4_O</text>
<text text-anchor="middle" x="1187.63" y="-901.27" font-family="Times New Roman,serif" font-size="14.00">SB_LUT4</text>
<polyline fill="none" stroke="black" points="1309.13,-866.47 1309.13,-958.47 "/>
<text text-anchor="middle" x="1322.63" y="-908.77" font-family="Times New Roman,serif" font-size="14.00">O</text>
</g>
<!-- v0&#45;&gt;c11 -->
<g id="edge37" class="edge">
<title>v0:e&#45;&gt;c11:w</title>
<path fill="none" stroke="#1b9e77" d="M945.13,-991.47C965.05,-991.47 1003.49,-958.08 1028.18,-949.47"/>
<polygon fill="#1b9e77" stroke="#1b9e77" points="1029.02,-952.87 1038.13,-947.47 1027.64,-946.01 1029.02,-952.87"/>
</g>
<!-- v1 -->
<g id="node7" class="node">
<title>v1</title>
<ellipse fill="none" stroke="black" cx="917.13" cy="-950.47" rx="27" ry="18"/>
<text text-anchor="middle" x="917.13" y="-946.77" font-family="Times New Roman,serif" font-size="14.00">1&#39;0</text>
</g>
<!-- v1&#45;&gt;c11 -->
<g id="edge38" class="edge">
<title>v1:e&#45;&gt;c11:w</title>
<path fill="none" stroke="#7570b3" d="M945.13,-950.47C963.74,-950.47 1003.88,-930.91 1028.2,-925.72"/>
<polygon fill="#7570b3" stroke="#7570b3" points="1028.65,-929.19 1038.13,-924.47 1027.77,-922.25 1028.65,-929.19"/>
</g>
<!-- c11&#45;&gt;n1 -->
<g id="edge12" class="edge">
<title>c11:e&#45;&gt;n1:w</title>
<path fill="none" stroke="#e6ab02" d="M1337.13,-912.47C1347.47,-912.47 1343.52,-951.74 1336.13,-958.97 1241.48,-1051.61 1152.24,-1026.21 1038.13,-958.97 1023.91,-950.58 1032.71,-937.16 1020.13,-926.47 962.88,-877.8 775.05,-829.21 701.79,-812.47 566.04,-781.44 174.62,-847.36 78.65,-746.47 76.49,-744.2 74.64,-740.96 73.67,-737.85"/>
<polygon fill="#e6ab02" stroke="#e6ab02" points="76.97,-739.04 77.65,-728.47 70.52,-736.31 76.97,-739.04"/>
</g>
<!-- x2&#45;&gt;c11 -->
<g id="edge1" class="edge">
<title>x2:e&#45;&gt;c11:w</title>
<path fill="none" stroke="#66a61e" d="M957.74,-769.89C976.98,-793.85 1009.24,-869 1028.49,-893.01"/>
<polygon fill="none" stroke="#66a61e" points="957.63,-769.8 950.44,-769.3 948.13,-762.47 955.33,-762.97 957.63,-769.8"/>
<polygon fill="none" stroke="#66a61e" points="1028.64,-893.12 1035.84,-893.63 1038.13,-900.47 1030.94,-899.96 1028.64,-893.12"/>
</g>
<!-- x3&#45;&gt;c11 -->
<g id="edge2" class="edge">
<title>x3:e&#45;&gt;c11:w</title>
<path fill="none" stroke="#1b9e77" d="M960.4,-835.71C989.47,-841.96 996.79,-869.96 1025.84,-876.22"/>
<polygon fill="none" stroke="#1b9e77" points="960.07,-835.67 953.7,-839.05 948.13,-834.47 954.51,-831.09 960.07,-835.67"/>
<polygon fill="none" stroke="#1b9e77" points="1026.19,-876.26 1032.57,-872.88 1038.13,-877.47 1031.76,-880.84 1026.19,-876.26"/>
</g>
<!-- x5 -->
<g id="node13" class="node">
<title>x5</title>
<path fill="none" stroke="black" d="M1408.13,-370.47C1408.13,-370.47 1446.13,-370.47 1446.13,-370.47 1452.13,-370.47 1458.13,-376.47 1458.13,-382.47 1458.13,-382.47 1458.13,-394.47 1458.13,-394.47 1458.13,-400.47 1452.13,-406.47 1446.13,-406.47 1446.13,-406.47 1408.13,-406.47 1408.13,-406.47 1402.13,-406.47 1396.13,-400.47 1396.13,-394.47 1396.13,-394.47 1396.13,-382.47 1396.13,-382.47 1396.13,-376.47 1402.13,-370.47 1408.13,-370.47"/>
<text text-anchor="middle" x="1427.13" y="-384.77" font-family="Times New Roman,serif" font-size="14.00">0:0 &#45; 1:1</text>
</g>
<!-- c16&#45;&gt;x5 -->
<g id="edge4" class="edge">
<title>c16:e&#45;&gt;x5:w</title>
<path fill="none" stroke="#7570b3" d="M1298.25,-187.55C1376.91,-202.74 1305.36,-372.19 1384.01,-387.38"/>
<polygon fill="none" stroke="#7570b3" points="1298.09,-187.54 1291.75,-190.99 1286.13,-186.47 1292.47,-183.02 1298.09,-187.54"/>
<polygon fill="none" stroke="#7570b3" points="1384.18,-387.39 1390.51,-383.95 1396.13,-388.47 1389.8,-391.91 1384.18,-387.39"/>
</g>
<!-- x4&#45;&gt;c16 -->
<g id="edge3" class="edge">
<title>x4:e&#45;&gt;c16:w</title>
<path fill="none" stroke="#1b9e77" d="M960.4,-331.46C1030.7,-319.21 1005.58,-199.57 1075.98,-187.46"/>
<polygon fill="none" stroke="#1b9e77" points="960.09,-331.48 954.44,-335.96 948.13,-332.47 953.78,-327.99 960.09,-331.48"/>
<polygon fill="none" stroke="#1b9e77" points="1076.17,-187.44 1081.83,-182.97 1088.13,-186.47 1082.48,-190.94 1076.17,-187.44"/>
</g>
<!-- x5&#45;&gt;n4 -->
<g id="edge22" class="edge">
<title>x5:e&#45;&gt;n4:w</title>
<path fill="none" stroke="#d95f02" stroke-width="3" d="M1459.13,-388.47C1467.37,-388.47 1463.64,-400.84 1458.13,-406.97 1384.09,-489.33 1075.12,-466.77 966.13,-486.47 930.45,-492.92 920.65,-491.37 886.13,-502.47 866.63,-508.74 859.64,-508.08 844.13,-521.47 832.93,-531.13 839.12,-542.38 826.13,-549.47 801.1,-563.13 782.68,-569.07 761.96,-549.47 759.6,-547.23 757.67,-543.84 756.75,-540.6"/>
<polygon fill="#d95f02" stroke="#d95f02" stroke-width="3" points="759.95,-542.01 760.96,-531.47 753.59,-539.08 759.95,-542.01"/>
<text text-anchor="middle" x="993.13" y="-490.27" font-family="Times New Roman,serif" font-size="14.00" fill="#d95f02">&lt;5&gt;</text>
</g>
<!-- x6 -->
<g id="node15" class="node">
<title>x6</title>
<path fill="none" stroke="black" d="M651.79,-533.47C651.79,-533.47 689.79,-533.47 689.79,-533.47 695.79,-533.47 701.79,-539.47 701.79,-545.47 701.79,-545.47 701.79,-557.47 701.79,-557.47 701.79,-563.47 695.79,-569.47 689.79,-569.47 689.79,-569.47 651.79,-569.47 651.79,-569.47 645.79,-569.47 639.79,-563.47 639.79,-557.47 639.79,-557.47 639.79,-545.47 639.79,-545.47 639.79,-539.47 645.79,-533.47 651.79,-533.47"/>
<text text-anchor="middle" x="670.79" y="-547.77" font-family="Times New Roman,serif" font-size="14.00">0:0 &#45; 2:2</text>
</g>
<!-- c17&#45;&gt;x6 -->
<g id="edge5" class="edge">
<title>c17:e&#45;&gt;x6:w</title>
<path fill="none" stroke="#e7298a" d="M614.74,-697.37C654.29,-680.76 588.35,-570.32 627.77,-553.59"/>
<polygon fill="none" stroke="#e7298a" points="614.61,-697.4 609.39,-702.37 602.79,-699.47 608.01,-694.49 614.61,-697.4"/>
<polygon fill="none" stroke="#e7298a" points="627.98,-553.55 633.19,-548.57 639.79,-551.47 634.58,-556.45 627.98,-553.55"/>
</g>
<!-- x6&#45;&gt;n4 -->
<g id="edge23" class="edge">
<title>x6:e&#45;&gt;n4:w</title>
<path fill="none" stroke="#d95f02" stroke-width="3" d="M701.79,-551.47C726.17,-551.47 732.25,-536.43 751.77,-532.43"/>
<polygon fill="#d95f02" stroke="#d95f02" stroke-width="3" points="752.17,-535.91 761.79,-531.47 751.5,-528.94 752.17,-535.91"/>
<text text-anchor="middle" x="731.79" y="-552.27" font-family="Times New Roman,serif" font-size="14.00" fill="#d95f02">&lt;5&gt;</text>
</g>
<!-- x8 -->
<g id="node18" class="node">
<title>x8</title>
<path fill="none" stroke="black" d="M1408.13,-455.47C1408.13,-455.47 1446.13,-455.47 1446.13,-455.47 1452.13,-455.47 1458.13,-461.47 1458.13,-467.47 1458.13,-467.47 1458.13,-479.47 1458.13,-479.47 1458.13,-485.47 1452.13,-491.47 1446.13,-491.47 1446.13,-491.47 1408.13,-491.47 1408.13,-491.47 1402.13,-491.47 1396.13,-485.47 1396.13,-479.47 1396.13,-479.47 1396.13,-467.47 1396.13,-467.47 1396.13,-461.47 1402.13,-455.47 1408.13,-455.47"/>
<text text-anchor="middle" x="1427.13" y="-469.77" font-family="Times New Roman,serif" font-size="14.00">0:0 &#45; 3:3</text>
</g>
<!-- c18&#45;&gt;x8 -->
<g id="edge7" class="edge">
<title>c18:e&#45;&gt;x8:w</title>
<path fill="none" stroke="#7570b3" d="M1298.16,-305.64C1365.62,-319.78 1316.7,-457.72 1383.81,-472.23"/>
<polygon fill="none" stroke="#7570b3" points="1298.08,-305.63 1291.72,-309.03 1286.13,-304.47 1292.49,-301.07 1298.08,-305.63"/>
<polygon fill="none" stroke="#7570b3" points="1384.19,-472.27 1390.56,-468.89 1396.13,-473.47 1389.77,-476.85 1384.19,-472.27"/>
</g>
<!-- x7&#45;&gt;c18 -->
<g id="edge6" class="edge">
<title>x7:e&#45;&gt;c18:w</title>
<path fill="none" stroke="#e7298a" d="M960.18,-425.21C985.12,-424.01 996.54,-418.19 1020.13,-400.47 1058.18,-371.88 1039.99,-315.81 1075.83,-305.96"/>
<polygon fill="none" stroke="#e7298a" points="960.13,-425.21 954.22,-429.34 948.13,-425.47 954.05,-421.34 960.13,-425.21"/>
<polygon fill="none" stroke="#e7298a" points="1076.22,-305.91 1081.7,-301.22 1088.13,-304.47 1082.66,-309.16 1076.22,-305.91"/>
</g>
<!-- x8&#45;&gt;n4 -->
<g id="edge24" class="edge">
<title>x8:e&#45;&gt;n4:w</title>
<path fill="none" stroke="#d95f02" stroke-width="3" d="M1459.13,-473.47C1467.37,-473.47 1463.92,-486.11 1458.13,-491.97 1265.9,-686.49 1094.8,-423.12 844.13,-532.47 834.05,-536.87 836.36,-545.4 826.13,-549.47 799.63,-560 782.68,-569.07 761.96,-549.47 759.6,-547.23 757.67,-543.84 756.75,-540.6"/>
<polygon fill="#d95f02" stroke="#d95f02" stroke-width="3" points="759.95,-542.01 760.96,-531.47 753.59,-539.08 759.95,-542.01"/>
<text text-anchor="middle" x="993.13" y="-511.27" font-family="Times New Roman,serif" font-size="14.00" fill="#d95f02">&lt;5&gt;</text>
</g>
<!-- x10 -->
<g id="node21" class="node">
<title>x10</title>
<path fill="none" stroke="black" d="M1408.13,-240.47C1408.13,-240.47 1446.13,-240.47 1446.13,-240.47 1452.13,-240.47 1458.13,-246.47 1458.13,-252.47 1458.13,-252.47 1458.13,-264.47 1458.13,-264.47 1458.13,-270.47 1452.13,-276.47 1446.13,-276.47 1446.13,-276.47 1408.13,-276.47 1408.13,-276.47 1402.13,-276.47 1396.13,-270.47 1396.13,-264.47 1396.13,-264.47 1396.13,-252.47 1396.13,-252.47 1396.13,-246.47 1402.13,-240.47 1408.13,-240.47"/>
<text text-anchor="middle" x="1427.13" y="-254.77" font-family="Times New Roman,serif" font-size="14.00">0:0 &#45; 4:4</text>
</g>
<!-- c19&#45;&gt;x10 -->
<g id="edge9" class="edge">
<title>c19:e&#45;&gt;x10:w</title>
<path fill="none" stroke="#1b9e77" d="M1291.38,-78.87C1317.17,-85.5 1317.1,-114.57 1336.13,-142.47 1366.29,-186.67 1342.51,-247.96 1384.08,-257.26"/>
<polygon fill="none" stroke="#1b9e77" points="1291.06,-78.83 1284.64,-82.12 1279.13,-77.47 1285.55,-74.17 1291.06,-78.83"/>
<polygon fill="none" stroke="#1b9e77" points="1384.19,-257.27 1390.56,-253.89 1396.13,-258.47 1389.77,-261.85 1384.19,-257.27"/>
</g>
<!-- x9&#45;&gt;c19 -->
<g id="edge8" class="edge">
<title>x9:e&#45;&gt;c19:w</title>
<path fill="none" stroke="#d95f02" d="M960.24,-149.74C1017.63,-142.64 1025.62,-85.33 1082.97,-78.19"/>
<polygon fill="none" stroke="#d95f02" points="960.11,-149.75 954.36,-154.1 948.13,-150.47 953.88,-146.12 960.11,-149.75"/>
<polygon fill="none" stroke="#d95f02" points="1083.15,-78.18 1088.9,-73.83 1095.13,-77.47 1089.38,-81.82 1083.15,-78.18"/>
</g>
<!-- x10&#45;&gt;n4 -->
<g id="edge20" class="edge">
<title>x10:e&#45;&gt;n4:w</title>
<path fill="none" stroke="#d95f02" stroke-width="3" d="M1459.13,-258.47C1467.37,-258.47 1462.42,-269.94 1458.13,-276.97 1425.43,-330.63 1395.81,-328.74 1336.13,-348.47 1145.12,-411.62 1076.93,-333.67 886.13,-397.47 865.53,-404.36 856.17,-404.38 844.13,-422.47 812.54,-469.92 869.18,-512.09 826.13,-549.47 804.6,-568.16 782.68,-569.07 761.96,-549.47 759.6,-547.23 757.67,-543.84 756.75,-540.6"/>
<polygon fill="#d95f02" stroke="#d95f02" stroke-width="3" points="759.95,-542.01 760.96,-531.47 753.59,-539.08 759.95,-542.01"/>
<text text-anchor="middle" x="993.13" y="-381.27" font-family="Times New Roman,serif" font-size="14.00" fill="#d95f02">&lt;5&gt;</text>
</g>
<!-- x12 -->
<g id="node24" class="node">
<title>x12</title>
<path fill="none" stroke="black" d="M1408.13,-673.47C1408.13,-673.47 1446.13,-673.47 1446.13,-673.47 1452.13,-673.47 1458.13,-679.47 1458.13,-685.47 1458.13,-685.47 1458.13,-697.47 1458.13,-697.47 1458.13,-703.47 1452.13,-709.47 1446.13,-709.47 1446.13,-709.47 1408.13,-709.47 1408.13,-709.47 1402.13,-709.47 1396.13,-703.47 1396.13,-697.47 1396.13,-697.47 1396.13,-685.47 1396.13,-685.47 1396.13,-679.47 1402.13,-673.47 1408.13,-673.47"/>
<text text-anchor="middle" x="1427.13" y="-687.77" font-family="Times New Roman,serif" font-size="14.00">0:0 &#45; 0:0</text>
</g>
<!-- c20&#45;&gt;x12 -->
<g id="edge11" class="edge">
<title>c20:e&#45;&gt;x12:w</title>
<path fill="none" stroke="#e6ab02" d="M1298.27,-752.39C1338.57,-744.85 1343.74,-700 1384.09,-692.52"/>
<polygon fill="none" stroke="#e6ab02" points="1298.09,-752.41 1292.46,-756.92 1286.13,-753.47 1291.76,-748.95 1298.09,-752.41"/>
<polygon fill="none" stroke="#e6ab02" points="1384.18,-692.52 1389.81,-688.01 1396.13,-691.47 1390.51,-695.98 1384.18,-692.52"/>
</g>
<!-- x11&#45;&gt;c20 -->
<g id="edge10" class="edge">
<title>x11:e&#45;&gt;c20:w</title>
<path fill="none" stroke="#1b9e77" d="M957.72,-566.97C967.62,-589.69 954.33,-657.37 966.13,-675.47 998.96,-725.79 1020.73,-750.13 1075.85,-753.15"/>
<polygon fill="none" stroke="#1b9e77" points="957.59,-566.86 950.4,-566.31 948.13,-559.47 955.32,-560.01 957.59,-566.86"/>
<polygon fill="none" stroke="#1b9e77" points="1076.14,-753.15 1082.24,-749.31 1088.13,-753.47 1082.03,-757.31 1076.14,-753.15"/>
</g>
<!-- x12&#45;&gt;n4 -->
<g id="edge21" class="edge">
<title>x12:e&#45;&gt;n4:w</title>
<path fill="none" stroke="#d95f02" stroke-width="3" d="M1459.13,-691.47C1467.37,-691.47 1464.11,-704.3 1458.13,-709.97 1438.13,-728.92 1421.38,-721.02 1396.13,-709.97 1385.33,-705.24 1388.32,-696.41 1378.13,-690.47 1236.95,-608.14 1180.3,-638.97 1020.13,-606.47 960.91,-594.45 945.47,-594.91 886.13,-583.47 829.95,-572.63 797.29,-594.48 761.96,-549.47 760.11,-547.1 758.38,-543.98 757.36,-541"/>
<polygon fill="#d95f02" stroke="#d95f02" stroke-width="3" points="760.7,-542.06 760.96,-531.47 754.15,-539.58 760.7,-542.06"/>
<text text-anchor="middle" x="993.13" y="-610.27" font-family="Times New Roman,serif" font-size="14.00" fill="#d95f02">&lt;5&gt;</text>
</g>
<!-- x13&#45;&gt;n3 -->
<g id="edge19" class="edge">
<title>x13:e&#45;&gt;n3:w</title>
<path fill="none" stroke="#d95f02" stroke-width="3" d="M1020.13,-648.47C1219.66,-648.47 1271.38,-623.35 1465.86,-622.49"/>
<polygon fill="#d95f02" stroke="#d95f02" stroke-width="3" points="1466.14,-625.99 1476.13,-622.47 1466.13,-618.99 1466.14,-625.99"/>
<text text-anchor="middle" x="1366.13" y="-629.27" font-family="Times New Roman,serif" font-size="14.00" fill="#d95f02">&lt;5&gt;</text>
</g>
</g>
</svg>
