<svg xmlns="http://www.w3.org/2000/svg" xmlns:xlink="http://www.w3.org/1999/xlink" xmlns:s="https://github.com/nturley/netlistsvg" width="1029" height="271.5">
  <style>svg {
    stroke:#000;
    fill:none;
  }
  text {
    fill:#000;
    stroke:none;
    font-size:10px;
    font-weight: bold;
    font-family: "Courier New", monospace;
  }
  .nodelabel {
    text-anchor: middle;
  }
  .inputPortLabel {
    text-anchor: end;
  }
  .splitjoinBody {
    fill:#000;
  }</style>
  <g s:type="and" transform="translate(142,50)" s:width="30" s:height="25" id="cell_$auto$aigmap.cc:123:execute$15">
    <s:alias val="$and"/>
    <s:alias val="$logic_and"/>
    <s:alias val="$_AND_"/>
    <path d="M0,0 L0,25 L15,25 A15 12.5 0 0 0 15,0 Z" class="cell_$auto$aigmap.cc:123:execute$15"/>
    <g s:x="0" s:y="5" s:pid="A"/>
    <g s:x="0" s:y="20" s:pid="B"/>
    <g s:x="30" s:y="12.5" s:pid="Y"/>
  </g>
  <g s:type="and" transform="translate(142,125)" s:width="30" s:height="25" id="cell_$auto$aigmap.cc:123:execute$19">
    <s:alias val="$and"/>
    <s:alias val="$logic_and"/>
    <s:alias val="$_AND_"/>
    <path d="M0,0 L0,25 L15,25 A15 12.5 0 0 0 15,0 Z" class="cell_$auto$aigmap.cc:123:execute$19"/>
    <g s:x="0" s:y="5" s:pid="A"/>
    <g s:x="0" s:y="20" s:pid="B"/>
    <g s:x="30" s:y="12.5" s:pid="Y"/>
  </g>
  <g s:type="and" transform="translate(272,57.5)" s:width="30" s:height="25" id="cell_$auto$aigmap.cc:123:execute$23">
    <s:alias val="$and"/>
    <s:alias val="$logic_and"/>
    <s:alias val="$_AND_"/>
    <path d="M0,0 L0,25 L15,25 A15 12.5 0 0 0 15,0 Z" class="cell_$auto$aigmap.cc:123:execute$23"/>
    <g s:x="0" s:y="5" s:pid="A"/>
    <g s:x="0" s:y="20" s:pid="B"/>
    <g s:x="30" s:y="12.5" s:pid="Y"/>
  </g>
  <g s:type="and" transform="translate(467,65)" s:width="30" s:height="25" id="cell_$auto$aigmap.cc:123:execute$29">
    <s:alias val="$and"/>
    <s:alias val="$logic_and"/>
    <s:alias val="$_AND_"/>
    <path d="M0,0 L0,25 L15,25 A15 12.5 0 0 0 15,0 Z" class="cell_$auto$aigmap.cc:123:execute$29"/>
    <g s:x="0" s:y="5" s:pid="A"/>
    <g s:x="0" s:y="20" s:pid="B"/>
    <g s:x="30" s:y="12.5" s:pid="Y"/>
  </g>
  <g s:type="and" transform="translate(272,185)" s:width="30" s:height="25" id="cell_$auto$aigmap.cc:123:execute$33">
    <s:alias val="$and"/>
    <s:alias val="$logic_and"/>
    <s:alias val="$_AND_"/>
    <path d="M0,0 L0,25 L15,25 A15 12.5 0 0 0 15,0 Z" class="cell_$auto$aigmap.cc:123:execute$33"/>
    <g s:x="0" s:y="5" s:pid="A"/>
    <g s:x="0" s:y="20" s:pid="B"/>
    <g s:x="30" s:y="12.5" s:pid="Y"/>
  </g>
  <g s:type="and" transform="translate(597,72.5)" s:width="30" s:height="25" id="cell_$auto$aigmap.cc:123:execute$37">
    <s:alias val="$and"/>
    <s:alias val="$logic_and"/>
    <s:alias val="$_AND_"/>
    <path d="M0,0 L0,25 L15,25 A15 12.5 0 0 0 15,0 Z" class="cell_$auto$aigmap.cc:123:execute$37"/>
    <g s:x="0" s:y="5" s:pid="A"/>
    <g s:x="0" s:y="20" s:pid="B"/>
    <g s:x="30" s:y="12.5" s:pid="Y"/>
  </g>
  <g s:type="and" transform="translate(792,80)" s:width="30" s:height="25" id="cell_$auto$aigmap.cc:123:execute$43">
    <s:alias val="$and"/>
    <s:alias val="$logic_and"/>
    <s:alias val="$_AND_"/>
    <path d="M0,0 L0,25 L15,25 A15 12.5 0 0 0 15,0 Z" class="cell_$auto$aigmap.cc:123:execute$43"/>
    <g s:x="0" s:y="5" s:pid="A"/>
    <g s:x="0" s:y="20" s:pid="B"/>
    <g s:x="30" s:y="12.5" s:pid="Y"/>
  </g>
  <g s:type="and" transform="translate(792,234.5)" s:width="30" s:height="25" id="cell_$auto$aigmap.cc:123:execute$47">
    <s:alias val="$and"/>
    <s:alias val="$logic_and"/>
    <s:alias val="$_AND_"/>
    <path d="M0,0 L0,25 L15,25 A15 12.5 0 0 0 15,0 Z" class="cell_$auto$aigmap.cc:123:execute$47"/>
    <g s:x="0" s:y="5" s:pid="A"/>
    <g s:x="0" s:y="20" s:pid="B"/>
    <g s:x="30" s:y="12.5" s:pid="Y"/>
  </g>
  <g s:type="and" transform="translate(922,87.5)" s:width="30" s:height="25" id="cell_$auto$aigmap.cc:123:execute$51">
    <s:alias val="$and"/>
    <s:alias val="$logic_and"/>
    <s:alias val="$_AND_"/>
    <path d="M0,0 L0,25 L15,25 A15 12.5 0 0 0 15,0 Z" class="cell_$auto$aigmap.cc:123:execute$51"/>
    <g s:x="0" s:y="5" s:pid="A"/>
    <g s:x="0" s:y="20" s:pid="B"/>
    <g s:x="30" s:y="12.5" s:pid="Y"/>
  </g>
  <g s:type="not" transform="translate(77,45)" s:width="30" s:height="20" id="cell_$auto$aigmap.cc:132:execute$11">
    <s:alias val="$_NOT_"/>
    <s:alias val="$not"/>
    <s:alias val="$logic_not"/>
    <path d="M0,0 L0,20 L20,10 Z" class="cell_$auto$aigmap.cc:132:execute$11"/>
    <circle cx="23" cy="10" r="3" class="cell_$auto$aigmap.cc:132:execute$11"/>
    <g s:x="0" s:y="10" s:pid="A"/>
    <g s:x="25" s:y="10" s:pid="Y"/>
  </g>
  <g s:type="not" transform="translate(77,100)" s:width="30" s:height="20" id="cell_$auto$aigmap.cc:132:execute$13">
    <s:alias val="$_NOT_"/>
    <s:alias val="$not"/>
    <s:alias val="$logic_not"/>
    <path d="M0,0 L0,20 L20,10 Z" class="cell_$auto$aigmap.cc:132:execute$13"/>
    <circle cx="23" cy="10" r="3" class="cell_$auto$aigmap.cc:132:execute$13"/>
    <g s:x="0" s:y="10" s:pid="A"/>
    <g s:x="25" s:y="10" s:pid="Y"/>
  </g>
  <g s:type="not" transform="translate(207,52.5)" s:width="30" s:height="20" id="cell_$auto$aigmap.cc:132:execute$17">
    <s:alias val="$_NOT_"/>
    <s:alias val="$not"/>
    <s:alias val="$logic_not"/>
    <path d="M0,0 L0,20 L20,10 Z" class="cell_$auto$aigmap.cc:132:execute$17"/>
    <circle cx="23" cy="10" r="3" class="cell_$auto$aigmap.cc:132:execute$17"/>
    <g s:x="0" s:y="10" s:pid="A"/>
    <g s:x="25" s:y="10" s:pid="Y"/>
  </g>
  <g s:type="not" transform="translate(207,127.5)" s:width="30" s:height="20" id="cell_$auto$aigmap.cc:132:execute$21">
    <s:alias val="$_NOT_"/>
    <s:alias val="$not"/>
    <s:alias val="$logic_not"/>
    <path d="M0,0 L0,20 L20,10 Z" class="cell_$auto$aigmap.cc:132:execute$21"/>
    <circle cx="23" cy="10" r="3" class="cell_$auto$aigmap.cc:132:execute$21"/>
    <g s:x="0" s:y="10" s:pid="A"/>
    <g s:x="25" s:y="10" s:pid="Y"/>
  </g>
  <g s:type="not" transform="translate(402,60)" s:width="30" s:height="20" id="cell_$auto$aigmap.cc:132:execute$25">
    <s:alias val="$_NOT_"/>
    <s:alias val="$not"/>
    <s:alias val="$logic_not"/>
    <path d="M0,0 L0,20 L20,10 Z" class="cell_$auto$aigmap.cc:132:execute$25"/>
    <circle cx="23" cy="10" r="3" class="cell_$auto$aigmap.cc:132:execute$25"/>
    <g s:x="0" s:y="10" s:pid="A"/>
    <g s:x="25" s:y="10" s:pid="Y"/>
  </g>
  <g s:type="not" transform="translate(402,115)" s:width="30" s:height="20" id="cell_$auto$aigmap.cc:132:execute$27">
    <s:alias val="$_NOT_"/>
    <s:alias val="$not"/>
    <s:alias val="$logic_not"/>
    <path d="M0,0 L0,20 L20,10 Z" class="cell_$auto$aigmap.cc:132:execute$27"/>
    <circle cx="23" cy="10" r="3" class="cell_$auto$aigmap.cc:132:execute$27"/>
    <g s:x="0" s:y="10" s:pid="A"/>
    <g s:x="25" s:y="10" s:pid="Y"/>
  </g>
  <g s:type="not" transform="translate(532,67.5)" s:width="30" s:height="20" id="cell_$auto$aigmap.cc:132:execute$31">
    <s:alias val="$_NOT_"/>
    <s:alias val="$not"/>
    <s:alias val="$logic_not"/>
    <path d="M0,0 L0,20 L20,10 Z" class="cell_$auto$aigmap.cc:132:execute$31"/>
    <circle cx="23" cy="10" r="3" class="cell_$auto$aigmap.cc:132:execute$31"/>
    <g s:x="0" s:y="10" s:pid="A"/>
    <g s:x="25" s:y="10" s:pid="Y"/>
  </g>
  <g s:type="not" transform="translate(532,187.5)" s:width="30" s:height="20" id="cell_$auto$aigmap.cc:132:execute$35">
    <s:alias val="$_NOT_"/>
    <s:alias val="$not"/>
    <s:alias val="$logic_not"/>
    <path d="M0,0 L0,20 L20,10 Z" class="cell_$auto$aigmap.cc:132:execute$35"/>
    <circle cx="23" cy="10" r="3" class="cell_$auto$aigmap.cc:132:execute$35"/>
    <g s:x="0" s:y="10" s:pid="A"/>
    <g s:x="25" s:y="10" s:pid="Y"/>
  </g>
  <g s:type="not" transform="translate(727,75)" s:width="30" s:height="20" id="cell_$auto$aigmap.cc:132:execute$39">
    <s:alias val="$_NOT_"/>
    <s:alias val="$not"/>
    <s:alias val="$logic_not"/>
    <path d="M0,0 L0,20 L20,10 Z" class="cell_$auto$aigmap.cc:132:execute$39"/>
    <circle cx="23" cy="10" r="3" class="cell_$auto$aigmap.cc:132:execute$39"/>
    <g s:x="0" s:y="10" s:pid="A"/>
    <g s:x="25" s:y="10" s:pid="Y"/>
  </g>
  <g s:type="not" transform="translate(727,130)" s:width="30" s:height="20" id="cell_$auto$aigmap.cc:132:execute$41">
    <s:alias val="$_NOT_"/>
    <s:alias val="$not"/>
    <s:alias val="$logic_not"/>
    <path d="M0,0 L0,20 L20,10 Z" class="cell_$auto$aigmap.cc:132:execute$41"/>
    <circle cx="23" cy="10" r="3" class="cell_$auto$aigmap.cc:132:execute$41"/>
    <g s:x="0" s:y="10" s:pid="A"/>
    <g s:x="25" s:y="10" s:pid="Y"/>
  </g>
  <g s:type="not" transform="translate(857,82.5)" s:width="30" s:height="20" id="cell_$auto$aigmap.cc:132:execute$45">
    <s:alias val="$_NOT_"/>
    <s:alias val="$not"/>
    <s:alias val="$logic_not"/>
    <path d="M0,0 L0,20 L20,10 Z" class="cell_$auto$aigmap.cc:132:execute$45"/>
    <circle cx="23" cy="10" r="3" class="cell_$auto$aigmap.cc:132:execute$45"/>
    <g s:x="0" s:y="10" s:pid="A"/>
    <g s:x="25" s:y="10" s:pid="Y"/>
  </g>
  <g s:type="not" transform="translate(857,237)" s:width="30" s:height="20" id="cell_$auto$aigmap.cc:132:execute$49">
    <s:alias val="$_NOT_"/>
    <s:alias val="$not"/>
    <s:alias val="$logic_not"/>
    <path d="M0,0 L0,20 L20,10 Z" class="cell_$auto$aigmap.cc:132:execute$49"/>
    <circle cx="23" cy="10" r="3" class="cell_$auto$aigmap.cc:132:execute$49"/>
    <g s:x="0" s:y="10" s:pid="A"/>
    <g s:x="25" s:y="10" s:pid="Y"/>
  </g>
  <g s:type="dff" transform="translate(662,75)" s:width="30" s:height="40" id="cell_$procdff$8">
    <s:alias val="$dff"/>
    <s:alias val="$_DFF_"/>
    <s:alias val="$_DFF_P_"/>
    <rect width="30" height="40" x="0" y="0" class="cell_$procdff$8"/>
    <path d="M0,35 L5,30 L0,25" class="cell_$procdff$8"/>
    <g s:x="30" s:y="10" s:pid="Q"/>
    <g s:x="0" s:y="30" s:pid="CLK"/>
    <g s:x="0" s:y="30" s:pid="C"/>
    <g s:x="0" s:y="10" s:pid="D"/>
  </g>
  <g s:type="dff" transform="translate(337,60)" s:width="30" s:height="40" id="cell_$procdff$9">
    <s:alias val="$dff"/>
    <s:alias val="$_DFF_"/>
    <s:alias val="$_DFF_P_"/>
    <rect width="30" height="40" x="0" y="0" class="cell_$procdff$9"/>
    <path d="M0,35 L5,30 L0,25" class="cell_$procdff$9"/>
    <g s:x="30" s:y="10" s:pid="Q"/>
    <g s:x="0" s:y="30" s:pid="CLK"/>
    <g s:x="0" s:y="30" s:pid="C"/>
    <g s:x="0" s:y="10" s:pid="D"/>
  </g>
  <g s:type="inputExt" transform="translate(272,130)" s:width="30" s:height="20" id="cell_clk">
    <text x="15" y="-4" class="nodelabel cell_clk" s:attribute="ref">clk</text>
    <s:alias val="$_inputExt_"/>
    <path d="M0,0 L0,20 L15,20 L30,10 L15,0 Z" class="cell_clk"/>
    <g s:x="28" s:y="10" s:pid="Y"/>
  </g>
  <g s:type="inputExt" transform="translate(12,24)" s:width="30" s:height="20" id="cell_d">
    <text x="15" y="-4" class="nodelabel cell_d" s:attribute="ref">d</text>
    <s:alias val="$_inputExt_"/>
    <path d="M0,0 L0,20 L15,20 L30,10 L15,0 Z" class="cell_d"/>
    <g s:x="28" s:y="10" s:pid="Y"/>
  </g>
  <g s:type="outputExt" transform="translate(987,90)" s:width="30" s:height="20" id="cell_q">
    <text x="15" y="-4" class="nodelabel cell_q" s:attribute="ref">q</text>
    <s:alias val="$_outputExt_"/>
    <path d="M30,0 L30,20 L15,20 L0,10 L15,0 Z" class="cell_q"/>
    <g s:x="0" s:y="10" s:pid="A"/>
  </g>
  <line x1="102" x2="142" y1="55" y2="55" class="net_5"/>
  <line x1="102" x2="117" y1="110" y2="110" class="net_6"/>
  <line x1="117" x2="117" y1="110" y2="70" class="net_6"/>
  <line x1="117" x2="142" y1="70" y2="70" class="net_6"/>
  <line x1="40" x2="52" y1="34" y2="34" class="net_3"/>
  <line x1="52" x2="52" y1="34" y2="130" class="net_3"/>
  <circle cx="52" cy="34" r="2" style="fill:#000" class="net_3"/>
  <line x1="52" x2="142" y1="130" y2="130" class="net_3"/>
  <line x1="40" x2="52" y1="34" y2="34" class="net_3"/>
  <line x1="52" x2="52" y1="34" y2="130" class="net_3"/>
  <line x1="52" x2="127" y1="130" y2="130" class="net_3"/>
  <line x1="127" x2="127" y1="130" y2="190" class="net_3"/>
  <circle cx="127" cy="130" r="2" style="fill:#000" class="net_3"/>
  <line x1="127" x2="272" y1="190" y2="190" class="net_3"/>
  <line x1="40" x2="52" y1="34" y2="34" class="net_3"/>
  <line x1="52" x2="52" y1="34" y2="110" class="net_3"/>
  <circle cx="52" cy="110" r="2" style="fill:#000" class="net_3"/>
  <line x1="52" x2="77" y1="110" y2="110" class="net_3"/>
  <line x1="40" x2="387" y1="34" y2="34" class="net_3"/>
  <line x1="387" x2="387" y1="34" y2="125" class="net_3"/>
  <line x1="387" x2="402" y1="125" y2="125" class="net_3"/>
  <line x1="692" x2="702" y1="85" y2="85" class="net_8"/>
  <line x1="702" x2="702" y1="85" y2="228.5" class="net_8"/>
  <line x1="702" x2="117" y1="228.5" y2="228.5" class="net_8"/>
  <line x1="117" x2="117" y1="228.5" y2="145" class="net_8"/>
  <circle cx="702" cy="228.5" r="2" style="fill:#000" class="net_8"/>
  <line x1="117" x2="142" y1="145" y2="145" class="net_8"/>
  <line x1="692" x2="702" y1="85" y2="85" class="net_8"/>
  <line x1="702" x2="702" y1="85" y2="250.5" class="net_8"/>
  <line x1="702" x2="767" y1="250.5" y2="250.5" class="net_8"/>
  <line x1="767" x2="767" y1="250.5" y2="254.5" class="net_8"/>
  <line x1="767" x2="792" y1="254.5" y2="254.5" class="net_8"/>
  <line x1="692" x2="702" y1="85" y2="85" class="net_8"/>
  <line x1="702" x2="702" y1="85" y2="23" class="net_8"/>
  <line x1="702" x2="62" y1="23" y2="23" class="net_8"/>
  <line x1="62" x2="62" y1="23" y2="55" class="net_8"/>
  <circle cx="702" cy="85" r="2" style="fill:#000" class="net_8"/>
  <line x1="62" x2="77" y1="55" y2="55" class="net_8"/>
  <line x1="692" x2="727" y1="85" y2="85" class="net_8"/>
  <line x1="232" x2="272" y1="62.5" y2="62.5" class="net_10"/>
  <line x1="232" x2="247" y1="137.5" y2="137.5" class="net_11"/>
  <line x1="247" x2="247" y1="137.5" y2="77.5" class="net_11"/>
  <line x1="247" x2="272" y1="77.5" y2="77.5" class="net_11"/>
  <line x1="427" x2="467" y1="70" y2="70" class="net_13"/>
  <line x1="427" x2="442" y1="125" y2="125" class="net_14"/>
  <line x1="442" x2="442" y1="125" y2="85" class="net_14"/>
  <line x1="442" x2="467" y1="85" y2="85" class="net_14"/>
  <line x1="367" x2="377" y1="70" y2="70" class="net_16"/>
  <line x1="377" x2="377" y1="70" y2="110" class="net_16"/>
  <line x1="377" x2="257" y1="110" y2="110" class="net_16"/>
  <line x1="257" x2="257" y1="110" y2="205" class="net_16"/>
  <circle cx="377" cy="110" r="2" style="fill:#000" class="net_16"/>
  <line x1="257" x2="272" y1="205" y2="205" class="net_16"/>
  <line x1="367" x2="377" y1="70" y2="70" class="net_16"/>
  <line x1="377" x2="377" y1="70" y2="239.5" class="net_16"/>
  <circle cx="377" cy="70" r="2" style="fill:#000" class="net_16"/>
  <line x1="377" x2="792" y1="239.5" y2="239.5" class="net_16"/>
  <line x1="367" x2="402" y1="70" y2="70" class="net_16"/>
  <line x1="367" x2="377" y1="70" y2="70" class="net_16"/>
  <line x1="377" x2="377" y1="70" y2="12" class="net_16"/>
  <line x1="377" x2="712" y1="12" y2="12" class="net_16"/>
  <line x1="712" x2="712" y1="12" y2="140" class="net_16"/>
  <line x1="712" x2="727" y1="140" y2="140" class="net_16"/>
  <line x1="557" x2="597" y1="77.5" y2="77.5" class="net_18"/>
  <line x1="557" x2="572" y1="197.5" y2="197.5" class="net_19"/>
  <line x1="572" x2="572" y1="197.5" y2="92.5" class="net_19"/>
  <line x1="572" x2="597" y1="92.5" y2="92.5" class="net_19"/>
  <line x1="752" x2="792" y1="85" y2="85" class="net_21"/>
  <line x1="752" x2="767" y1="140" y2="140" class="net_22"/>
  <line x1="767" x2="767" y1="140" y2="100" class="net_22"/>
  <line x1="767" x2="792" y1="100" y2="100" class="net_22"/>
  <line x1="882" x2="922" y1="92.5" y2="92.5" class="net_25"/>
  <line x1="882" x2="897" y1="247" y2="247" class="net_26"/>
  <line x1="897" x2="897" y1="247" y2="107.5" class="net_26"/>
  <line x1="897" x2="922" y1="107.5" y2="107.5" class="net_26"/>
  <line x1="172" x2="207" y1="62.5" y2="62.5" class="net_7"/>
  <line x1="172" x2="207" y1="137.5" y2="137.5" class="net_9"/>
  <line x1="497" x2="532" y1="77.5" y2="77.5" class="net_15"/>
  <line x1="302" x2="532" y1="197.5" y2="197.5" class="net_17"/>
  <line x1="822" x2="857" y1="92.5" y2="92.5" class="net_23"/>
  <line x1="822" x2="857" y1="247" y2="247" class="net_24"/>
  <line x1="300" x2="312" y1="140" y2="140" class="net_2"/>
  <line x1="312" x2="312" y1="140" y2="217.5" class="net_2"/>
  <line x1="312" x2="637" y1="217.5" y2="217.5" class="net_2"/>
  <line x1="637" x2="637" y1="217.5" y2="105" class="net_2"/>
  <circle cx="312" cy="140" r="2" style="fill:#000" class="net_2"/>
  <line x1="637" x2="662" y1="105" y2="105" class="net_2"/>
  <line x1="300" x2="312" y1="140" y2="140" class="net_2"/>
  <line x1="312" x2="312" y1="140" y2="90" class="net_2"/>
  <line x1="312" x2="337" y1="90" y2="90" class="net_2"/>
  <line x1="627" x2="662" y1="85" y2="85" class="net_20"/>
  <line x1="302" x2="337" y1="70" y2="70" class="net_12"/>
  <line x1="952" x2="987" y1="100" y2="100" class="net_4"/>
</svg>
