<?xml version="1.0" encoding="UTF-8" standalone="no"?>
<!DOCTYPE svg PUBLIC "-//W3C//DTD SVG 1.1//EN"
 "http://www.w3.org/Graphics/SVG/1.1/DTD/svg11.dtd">
<!-- Generated by graphviz version 4.0.0 (20220529.0937)
 -->
<!-- Title: top_module Pages: 1 -->
<svg width="894pt" height="297pt"
 viewBox="0.00 0.00 893.81 296.50" xmlns="http://www.w3.org/2000/svg" xmlns:xlink="http://www.w3.org/1999/xlink">
<g id="graph0" class="graph" transform="scale(1 1) rotate(0) translate(4 292.5)">
<title>top_module</title>
<polygon fill="white" stroke="transparent" points="-4,4 -4,-292.5 889.81,-292.5 889.81,4 -4,4"/>
<text text-anchor="middle" x="442.91" y="-7.8" font-family="Times New Roman,serif" font-size="14.00">top_module</text>
<!-- n3 -->
<g id="node1" class="node">
<title>n3</title>
<polygon fill="none" stroke="black" points="54,-194.04 54,-208.96 38.18,-219.5 15.82,-219.5 0,-208.96 0,-194.04 15.82,-183.5 38.18,-183.5 54,-194.04"/>
<text text-anchor="middle" x="27" y="-197.8" font-family="Times New Roman,serif" font-size="14.00">clk</text>
</g>
<!-- c11 -->
<g id="node6" class="node">
<title>c11</title>
<polygon fill="none" stroke="black" points="90,-135.5 90,-181.5 201,-181.5 201,-135.5 90,-135.5"/>
<text text-anchor="middle" x="112" y="-166.3" font-family="Times New Roman,serif" font-size="14.00">CLK</text>
<polyline fill="none" stroke="black" points="90,-158.5 134,-158.5 "/>
<text text-anchor="middle" x="112" y="-143.3" font-family="Times New Roman,serif" font-size="14.00">D</text>
<polyline fill="none" stroke="black" points="134,-135.5 134,-181.5 "/>
<text text-anchor="middle" x="154" y="-162.3" font-family="Times New Roman,serif" font-size="14.00">$8</text>
<text text-anchor="middle" x="154" y="-147.3" font-family="Times New Roman,serif" font-size="14.00">$dff</text>
<polyline fill="none" stroke="black" points="174,-135.5 174,-181.5 "/>
<text text-anchor="middle" x="187.5" y="-154.8" font-family="Times New Roman,serif" font-size="14.00">Q</text>
</g>
<!-- n3&#45;&gt;c11 -->
<g id="edge3" class="edge">
<title>n3:e&#45;&gt;c11:w</title>
<path fill="none" stroke="#1b9e77" d="M54,-201.5C70.99,-201.5 70.28,-181.43 80.35,-173.59"/>
<polygon fill="#1b9e77" stroke="#1b9e77" points="81.54,-176.88 90,-170.5 79.41,-170.21 81.54,-176.88"/>
</g>
<!-- c12 -->
<g id="node7" class="node">
<title>c12</title>
<polygon fill="none" stroke="black" points="459.99,-175.5 459.99,-221.5 570.99,-221.5 570.99,-175.5 459.99,-175.5"/>
<text text-anchor="middle" x="481.99" y="-206.3" font-family="Times New Roman,serif" font-size="14.00">CLK</text>
<polyline fill="none" stroke="black" points="459.99,-198.5 503.99,-198.5 "/>
<text text-anchor="middle" x="481.99" y="-183.3" font-family="Times New Roman,serif" font-size="14.00">D</text>
<polyline fill="none" stroke="black" points="503.99,-175.5 503.99,-221.5 "/>
<text text-anchor="middle" x="523.99" y="-202.3" font-family="Times New Roman,serif" font-size="14.00">$9</text>
<text text-anchor="middle" x="523.99" y="-187.3" font-family="Times New Roman,serif" font-size="14.00">$dff</text>
<polyline fill="none" stroke="black" points="543.99,-175.5 543.99,-221.5 "/>
<text text-anchor="middle" x="557.49" y="-194.8" font-family="Times New Roman,serif" font-size="14.00">Q</text>
</g>
<!-- n3&#45;&gt;c12 -->
<g id="edge4" class="edge">
<title>n3:e&#45;&gt;c12:w</title>
<path fill="none" stroke="#1b9e77" d="M54,-201.5C176.89,-201.5 207.15,-214.72 329.99,-218.5 371.75,-219.78 382.46,-223.06 423.99,-218.5 436.33,-217.14 441.23,-213.25 450.01,-211.44"/>
<polygon fill="#1b9e77" stroke="#1b9e77" points="450.36,-214.92 459.99,-210.5 449.7,-207.96 450.36,-214.92"/>
</g>
<!-- n4 -->
<g id="node2" class="node">
<title>n4</title>
<polygon fill="none" stroke="black" points="54,-263.04 54,-277.96 38.18,-288.5 15.82,-288.5 0,-277.96 0,-263.04 15.82,-252.5 38.18,-252.5 54,-263.04"/>
<text text-anchor="middle" x="27" y="-266.8" font-family="Times New Roman,serif" font-size="14.00">d</text>
</g>
<!-- c16 -->
<g id="node8" class="node">
<title>c16</title>
<polygon fill="none" stroke="black" points="329.99,-163.5 329.99,-209.5 423.99,-209.5 423.99,-163.5 329.99,-163.5"/>
<text text-anchor="middle" x="342.99" y="-194.3" font-family="Times New Roman,serif" font-size="14.00">A</text>
<polyline fill="none" stroke="black" points="329.99,-186.5 355.99,-186.5 "/>
<text text-anchor="middle" x="342.99" y="-171.3" font-family="Times New Roman,serif" font-size="14.00">B</text>
<polyline fill="none" stroke="black" points="355.99,-163.5 355.99,-209.5 "/>
<text text-anchor="middle" x="376.99" y="-190.3" font-family="Times New Roman,serif" font-size="14.00">$2</text>
<text text-anchor="middle" x="376.99" y="-175.3" font-family="Times New Roman,serif" font-size="14.00">$xor</text>
<polyline fill="none" stroke="black" points="397.99,-163.5 397.99,-209.5 "/>
<text text-anchor="middle" x="410.99" y="-182.8" font-family="Times New Roman,serif" font-size="14.00">Y</text>
</g>
<!-- n4&#45;&gt;c16 -->
<g id="edge5" class="edge">
<title>n4:e&#45;&gt;c16:w</title>
<path fill="none" stroke="#7570b3" d="M54,-270.5C177.3,-270.5 201.92,-202.38 319.82,-198.66"/>
<polygon fill="#7570b3" stroke="#7570b3" points="320.04,-202.16 329.99,-198.5 319.93,-195.16 320.04,-202.16"/>
</g>
<!-- c17 -->
<g id="node9" class="node">
<title>c17</title>
<polygon fill="none" stroke="black" points="701.81,-95.5 701.81,-141.5 795.81,-141.5 795.81,-95.5 701.81,-95.5"/>
<text text-anchor="middle" x="714.81" y="-126.3" font-family="Times New Roman,serif" font-size="14.00">A</text>
<polyline fill="none" stroke="black" points="701.81,-118.5 727.81,-118.5 "/>
<text text-anchor="middle" x="714.81" y="-103.3" font-family="Times New Roman,serif" font-size="14.00">B</text>
<polyline fill="none" stroke="black" points="727.81,-95.5 727.81,-141.5 "/>
<text text-anchor="middle" x="748.81" y="-122.3" font-family="Times New Roman,serif" font-size="14.00">$4</text>
<text text-anchor="middle" x="748.81" y="-107.3" font-family="Times New Roman,serif" font-size="14.00">$xor</text>
<polyline fill="none" stroke="black" points="769.81,-95.5 769.81,-141.5 "/>
<text text-anchor="middle" x="782.81" y="-114.8" font-family="Times New Roman,serif" font-size="14.00">Y</text>
</g>
<!-- n4&#45;&gt;c17 -->
<g id="edge6" class="edge">
<title>n4:e&#45;&gt;c17:w</title>
<path fill="none" stroke="#7570b3" d="M54,-270.5C147.82,-270.5 170.67,-286.5 264.49,-286.5 264.49,-286.5 264.49,-286.5 516.49,-286.5 567.06,-286.5 638.66,-148.82 691.78,-132.15"/>
<polygon fill="#7570b3" stroke="#7570b3" points="692.51,-135.57 701.81,-130.5 691.38,-128.67 692.51,-135.57"/>
</g>
<!-- n5 -->
<g id="node3" class="node">
<title>n5</title>
<polygon fill="none" stroke="black" points="885.81,-39.04 885.81,-53.96 870,-64.5 847.63,-64.5 831.81,-53.96 831.81,-39.04 847.63,-28.5 870,-28.5 885.81,-39.04"/>
<text text-anchor="middle" x="858.81" y="-42.8" font-family="Times New Roman,serif" font-size="14.00">q</text>
</g>
<!-- n6 -->
<g id="node4" class="node">
<title>n6</title>
<polygon fill="none" stroke="black" points="265.49,-182.5 237.01,-164.5 265.49,-146.5 293.98,-164.5 265.49,-182.5"/>
<text text-anchor="middle" x="265.49" y="-160.8" font-family="Times New Roman,serif" font-size="14.00">qn</text>
</g>
<!-- n6&#45;&gt;c16 -->
<g id="edge9" class="edge">
<title>n6:e&#45;&gt;c16:w</title>
<path fill="none" stroke="#e7298a" d="M293.99,-164.5C306.57,-164.5 311.22,-170.24 319.96,-173.02"/>
<polygon fill="#e7298a" stroke="#e7298a" points="319.58,-176.51 329.99,-174.5 320.6,-169.58 319.58,-176.51"/>
</g>
<!-- c18 -->
<g id="node10" class="node">
<title>c18</title>
<polygon fill="none" stroke="black" points="701.81,-23.5 701.81,-69.5 795.81,-69.5 795.81,-23.5 701.81,-23.5"/>
<text text-anchor="middle" x="714.81" y="-54.3" font-family="Times New Roman,serif" font-size="14.00">A</text>
<polyline fill="none" stroke="black" points="701.81,-46.5 727.81,-46.5 "/>
<text text-anchor="middle" x="714.81" y="-31.3" font-family="Times New Roman,serif" font-size="14.00">B</text>
<polyline fill="none" stroke="black" points="727.81,-23.5 727.81,-69.5 "/>
<text text-anchor="middle" x="748.81" y="-50.3" font-family="Times New Roman,serif" font-size="14.00">$5</text>
<text text-anchor="middle" x="748.81" y="-35.3" font-family="Times New Roman,serif" font-size="14.00">$xor</text>
<polyline fill="none" stroke="black" points="769.81,-23.5 769.81,-69.5 "/>
<text text-anchor="middle" x="782.81" y="-42.8" font-family="Times New Roman,serif" font-size="14.00">Y</text>
</g>
<!-- n6&#45;&gt;c18 -->
<g id="edge10" class="edge">
<title>n6:e&#45;&gt;c18:w</title>
<path fill="none" stroke="#e7298a" d="M293.99,-164.5C312.59,-164.5 588.92,-49.91 606.99,-45.5 644.66,-36.3 657.24,-34.73 691.53,-34.53"/>
<polygon fill="#e7298a" stroke="#e7298a" points="691.82,-38.03 701.81,-34.5 691.8,-31.03 691.82,-38.03"/>
</g>
<!-- n7 -->
<g id="node5" class="node">
<title>n7</title>
<polygon fill="none" stroke="black" points="636.4,-90.5 607.07,-72.5 636.4,-54.5 665.73,-72.5 636.4,-90.5"/>
<text text-anchor="middle" x="636.4" y="-68.8" font-family="Times New Roman,serif" font-size="14.00">qp</text>
</g>
<!-- n7&#45;&gt;c17 -->
<g id="edge12" class="edge">
<title>n7:e&#45;&gt;c17:w</title>
<path fill="none" stroke="#7570b3" d="M665.81,-72.5C683.7,-72.5 681.76,-94.95 692.21,-103.36"/>
<polygon fill="#7570b3" stroke="#7570b3" points="691.22,-106.72 701.81,-106.5 693.39,-100.07 691.22,-106.72"/>
</g>
<!-- n7&#45;&gt;c18 -->
<g id="edge13" class="edge">
<title>n7:e&#45;&gt;c18:w</title>
<path fill="none" stroke="#7570b3" d="M665.81,-72.5C678.96,-72.5 683.01,-64.29 691.9,-60.45"/>
<polygon fill="#7570b3" stroke="#7570b3" points="692.68,-63.86 701.81,-58.5 691.33,-56.99 692.68,-63.86"/>
</g>
<!-- c11&#45;&gt;n6 -->
<g id="edge8" class="edge">
<title>c11:e&#45;&gt;n6:w</title>
<path fill="none" stroke="#e7298a" d="M201,-158.5C213.17,-158.5 218.21,-161.88 226.81,-163.56"/>
<polygon fill="#e7298a" stroke="#e7298a" points="226.72,-167.07 237,-164.5 227.36,-160.1 226.72,-167.07"/>
</g>
<!-- c12&#45;&gt;n7 -->
<g id="edge11" class="edge">
<title>c12:e&#45;&gt;n7:w</title>
<path fill="none" stroke="#7570b3" d="M570.99,-198.5C625.13,-198.5 559.38,-89.6 596.66,-74.28"/>
<polygon fill="#7570b3" stroke="#7570b3" points="597.73,-77.65 606.99,-72.5 596.54,-70.75 597.73,-77.65"/>
</g>
<!-- c16&#45;&gt;c12 -->
<g id="edge2" class="edge">
<title>c16:e&#45;&gt;c12:w</title>
<path fill="none" stroke="#1b9e77" d="M423.99,-186.5C435.99,-186.5 441.24,-186.5 449.86,-186.5"/>
<polygon fill="#1b9e77" stroke="#1b9e77" points="449.99,-190 459.99,-186.5 449.99,-183 449.99,-190"/>
</g>
<!-- c17&#45;&gt;c11 -->
<g id="edge1" class="edge">
<title>c17:e&#45;&gt;c11:w</title>
<path fill="none" stroke="#66a61e" d="M796.81,-118.5C807.27,-118.5 803.36,-134.77 795.81,-142 765.65,-170.91 743.51,-144.63 701.81,-142 618.95,-136.77 599.51,-118.5 516.49,-118.5 375.99,-118.5 375.99,-118.5 375.99,-118.5 248.45,-118.5 180.99,-46.14 89.5,-135 89.15,-135.34 88.82,-135.71 88.5,-136.11"/>
<polygon fill="#66a61e" stroke="#66a61e" points="85,-136.5 88.5,-146.5 92,-136.5 85,-136.5"/>
</g>
<!-- c18&#45;&gt;n5 -->
<g id="edge7" class="edge">
<title>c18:e&#45;&gt;n5:w</title>
<path fill="none" stroke="#e7298a" d="M795.81,-46.5C807.81,-46.5 813.06,-46.5 821.69,-46.5"/>
<polygon fill="#e7298a" stroke="#e7298a" points="821.81,-50 831.81,-46.5 821.81,-43 821.81,-50"/>
</g>
</g>
</svg>
