<?xml version="1.0" encoding="UTF-8" standalone="no"?>
<!DOCTYPE svg PUBLIC "-//W3C//DTD SVG 1.1//EN"
 "http://www.w3.org/Graphics/SVG/1.1/DTD/svg11.dtd">
<!-- Generated by graphviz version 4.0.0 (20220529.0937)
 -->
<!-- Title: top_module Pages: 1 -->
<svg width="1705pt" height="428pt"
 viewBox="0.00 0.00 1704.94 428.00" xmlns="http://www.w3.org/2000/svg" xmlns:xlink="http://www.w3.org/1999/xlink">
<g id="graph0" class="graph" transform="scale(1 1) rotate(0) translate(4 424)">
<title>top_module</title>
<polygon fill="white" stroke="transparent" points="-4,4 -4,-424 1700.94,-424 1700.94,4 -4,4"/>
<text text-anchor="middle" x="848.47" y="-7.8" font-family="Times New Roman,serif" font-size="14.00">top_module</text>
<!-- n1 -->
<g id="node1" class="node">
<title>n1</title>
<polygon fill="none" stroke="black" points="213.17,-149 89.83,-131 213.17,-113 336.5,-131 213.17,-149"/>
<text text-anchor="middle" x="213.17" y="-127.3" font-family="Times New Roman,serif" font-size="14.00">qn_SB_DFFN_Q_D</text>
</g>
<!-- c18 -->
<g id="node14" class="node">
<title>c18</title>
<polygon fill="none" stroke="black" points="372.33,-120 372.33,-166 542.33,-166 542.33,-120 372.33,-120"/>
<text text-anchor="middle" x="385.33" y="-150.8" font-family="Times New Roman,serif" font-size="14.00">C</text>
<polyline fill="none" stroke="black" points="372.33,-143 398.33,-143 "/>
<text text-anchor="middle" x="385.33" y="-127.8" font-family="Times New Roman,serif" font-size="14.00">D</text>
<polyline fill="none" stroke="black" points="398.33,-120 398.33,-166 "/>
<text text-anchor="middle" x="456.83" y="-146.8" font-family="Times New Roman,serif" font-size="14.00">qn_SB_DFFN_Q</text>
<text text-anchor="middle" x="456.83" y="-131.8" font-family="Times New Roman,serif" font-size="14.00">SB_DFFN</text>
<polyline fill="none" stroke="black" points="515.33,-120 515.33,-166 "/>
<text text-anchor="middle" x="528.83" y="-139.3" font-family="Times New Roman,serif" font-size="14.00">Q</text>
</g>
<!-- n1&#45;&gt;c18 -->
<g id="edge2" class="edge">
<title>n1:e&#45;&gt;c18:w</title>
<path fill="none" stroke="#66a61e" d="M336.33,-131C348.33,-131 353.58,-131 362.21,-131"/>
<polygon fill="#66a61e" stroke="#66a61e" points="362.33,-134.5 372.33,-131 362.33,-127.5 362.33,-134.5"/>
</g>
<!-- n2 -->
<g id="node2" class="node">
<title>n2</title>
<polygon fill="none" stroke="black" points="986.22,-137 871.43,-119 986.22,-101 1101.01,-119 986.22,-137"/>
<text text-anchor="middle" x="986.22" y="-115.3" font-family="Times New Roman,serif" font-size="14.00">qp_SB_DFF_Q_D</text>
</g>
<!-- c19 -->
<g id="node15" class="node">
<title>c19</title>
<polygon fill="none" stroke="black" points="1137.11,-108 1137.11,-154 1298.11,-154 1298.11,-108 1137.11,-108"/>
<text text-anchor="middle" x="1150.11" y="-138.8" font-family="Times New Roman,serif" font-size="14.00">C</text>
<polyline fill="none" stroke="black" points="1137.11,-131 1163.11,-131 "/>
<text text-anchor="middle" x="1150.11" y="-115.8" font-family="Times New Roman,serif" font-size="14.00">D</text>
<polyline fill="none" stroke="black" points="1163.11,-108 1163.11,-154 "/>
<text text-anchor="middle" x="1217.11" y="-134.8" font-family="Times New Roman,serif" font-size="14.00">qp_SB_DFF_Q</text>
<text text-anchor="middle" x="1217.11" y="-119.8" font-family="Times New Roman,serif" font-size="14.00">SB_DFF</text>
<polyline fill="none" stroke="black" points="1271.11,-108 1271.11,-154 "/>
<text text-anchor="middle" x="1284.61" y="-127.3" font-family="Times New Roman,serif" font-size="14.00">Q</text>
</g>
<!-- n2&#45;&gt;c19 -->
<g id="edge4" class="edge">
<title>n2:e&#45;&gt;c19:w</title>
<path fill="none" stroke="#1b9e77" d="M1101.11,-119C1113.11,-119 1118.36,-119 1126.99,-119"/>
<polygon fill="#1b9e77" stroke="#1b9e77" points="1127.11,-122.5 1137.11,-119 1127.11,-115.5 1127.11,-122.5"/>
</g>
<!-- n3 -->
<g id="node3" class="node">
<title>n3</title>
<polygon fill="none" stroke="black" points="54,-208.54 54,-223.46 38.18,-234 15.82,-234 0,-223.46 0,-208.54 15.82,-198 38.18,-198 54,-208.54"/>
<text text-anchor="middle" x="27" y="-212.3" font-family="Times New Roman,serif" font-size="14.00">clk</text>
</g>
<!-- n3&#45;&gt;c18 -->
<g id="edge5" class="edge">
<title>n3:e&#45;&gt;c18:w</title>
<path fill="none" stroke="#1b9e77" d="M54,-216C122.79,-216 284.85,-160.36 362.03,-155.36"/>
<polygon fill="#1b9e77" stroke="#1b9e77" points="362.46,-158.85 372.33,-155 362.22,-151.85 362.46,-158.85"/>
</g>
<!-- n3&#45;&gt;c19 -->
<g id="edge6" class="edge">
<title>n3:e&#45;&gt;c19:w</title>
<path fill="none" stroke="#1b9e77" d="M54,-216C234.48,-216 275.86,-271 456.33,-271 456.33,-271 456.33,-271 607.83,-271 665.61,-271 1040.63,-154.24 1126.91,-143.75"/>
<polygon fill="#1b9e77" stroke="#1b9e77" points="1127.4,-147.23 1137.11,-143 1126.88,-140.24 1127.4,-147.23"/>
</g>
<!-- n4 -->
<g id="node4" class="node">
<title>n4</title>
<polygon fill="none" stroke="black" points="54,-263.54 54,-278.46 38.18,-289 15.82,-289 0,-278.46 0,-263.54 15.82,-253 38.18,-253 54,-263.54"/>
<text text-anchor="middle" x="27" y="-267.3" font-family="Times New Roman,serif" font-size="14.00">d</text>
</g>
<!-- c13 -->
<g id="node10" class="node">
<title>c13</title>
<polygon fill="none" stroke="black" points="1428.94,-256 1428.94,-348 1606.94,-348 1606.94,-256 1428.94,-256"/>
<text text-anchor="middle" x="1442.94" y="-332.8" font-family="Times New Roman,serif" font-size="14.00">I0</text>
<polyline fill="none" stroke="black" points="1428.94,-325 1456.94,-325 "/>
<text text-anchor="middle" x="1442.94" y="-309.8" font-family="Times New Roman,serif" font-size="14.00">I1</text>
<polyline fill="none" stroke="black" points="1428.94,-302 1456.94,-302 "/>
<text text-anchor="middle" x="1442.94" y="-286.8" font-family="Times New Roman,serif" font-size="14.00">I2</text>
<polyline fill="none" stroke="black" points="1428.94,-279 1456.94,-279 "/>
<text text-anchor="middle" x="1442.94" y="-263.8" font-family="Times New Roman,serif" font-size="14.00">I3</text>
<polyline fill="none" stroke="black" points="1456.94,-256 1456.94,-348 "/>
<text text-anchor="middle" x="1518.44" y="-305.8" font-family="Times New Roman,serif" font-size="14.00">d_SB_LUT4_I2_1</text>
<text text-anchor="middle" x="1518.44" y="-290.8" font-family="Times New Roman,serif" font-size="14.00">SB_LUT4</text>
<polyline fill="none" stroke="black" points="1579.94,-256 1579.94,-348 "/>
<text text-anchor="middle" x="1593.44" y="-298.3" font-family="Times New Roman,serif" font-size="14.00">O</text>
</g>
<!-- n4&#45;&gt;c13 -->
<g id="edge7" class="edge">
<title>n4:e&#45;&gt;c13:w</title>
<path fill="none" stroke="#7570b3" d="M54,-271C233.61,-271 276.72,-309 456.33,-309 456.33,-309 456.33,-309 754.32,-309 1050.9,-309 1127.28,-290.42 1418.92,-290.01"/>
<polygon fill="#7570b3" stroke="#7570b3" points="1418.94,-293.51 1428.94,-290 1418.93,-286.51 1418.94,-293.51"/>
</g>
<!-- c14 -->
<g id="node13" class="node">
<title>c14</title>
<polygon fill="none" stroke="black" points="671.32,-73 671.32,-165 835.32,-165 835.32,-73 671.32,-73"/>
<text text-anchor="middle" x="685.32" y="-149.8" font-family="Times New Roman,serif" font-size="14.00">I0</text>
<polyline fill="none" stroke="black" points="671.32,-142 699.32,-142 "/>
<text text-anchor="middle" x="685.32" y="-126.8" font-family="Times New Roman,serif" font-size="14.00">I1</text>
<polyline fill="none" stroke="black" points="671.32,-119 699.32,-119 "/>
<text text-anchor="middle" x="685.32" y="-103.8" font-family="Times New Roman,serif" font-size="14.00">I2</text>
<polyline fill="none" stroke="black" points="671.32,-96 699.32,-96 "/>
<text text-anchor="middle" x="685.32" y="-80.8" font-family="Times New Roman,serif" font-size="14.00">I3</text>
<polyline fill="none" stroke="black" points="699.32,-73 699.32,-165 "/>
<text text-anchor="middle" x="753.82" y="-122.8" font-family="Times New Roman,serif" font-size="14.00">d_SB_LUT4_I2</text>
<text text-anchor="middle" x="753.82" y="-107.8" font-family="Times New Roman,serif" font-size="14.00">SB_LUT4</text>
<polyline fill="none" stroke="black" points="808.32,-73 808.32,-165 "/>
<text text-anchor="middle" x="821.82" y="-115.3" font-family="Times New Roman,serif" font-size="14.00">O</text>
</g>
<!-- n4&#45;&gt;c14 -->
<g id="edge8" class="edge">
<title>n4:e&#45;&gt;c14:w</title>
<path fill="none" stroke="#7570b3" d="M54,-271C275.11,-271 365.51,-308.75 542.33,-176 570.31,-155 548.47,-124.22 578.33,-106 610.58,-86.32 627.04,-103.45 661.19,-106.54"/>
<polygon fill="#7570b3" stroke="#7570b3" points="661.17,-110.05 671.32,-107 661.49,-103.05 661.17,-110.05"/>
</g>
<!-- n5 -->
<g id="node5" class="node">
<title>n5</title>
<polygon fill="none" stroke="black" points="1696.94,-141.54 1696.94,-156.46 1681.12,-167 1658.75,-167 1642.94,-156.46 1642.94,-141.54 1658.75,-131 1681.12,-131 1696.94,-141.54"/>
<text text-anchor="middle" x="1669.94" y="-145.3" font-family="Times New Roman,serif" font-size="14.00">q</text>
</g>
<!-- n6 -->
<g id="node6" class="node">
<title>n6</title>
<polygon fill="none" stroke="black" points="606.83,-59 578.34,-41 606.83,-23 635.32,-41 606.83,-59"/>
<text text-anchor="middle" x="606.83" y="-37.3" font-family="Times New Roman,serif" font-size="14.00">qn</text>
</g>
<!-- n6&#45;&gt;c14 -->
<g id="edge11" class="edge">
<title>n6:e&#45;&gt;c14:w</title>
<path fill="none" stroke="#e7298a" d="M635.32,-41C655.96,-41 650.01,-70.49 661.51,-80.63"/>
<polygon fill="#e7298a" stroke="#e7298a" points="660.73,-84.06 671.32,-84 663,-77.44 660.73,-84.06"/>
</g>
<!-- c20 -->
<g id="node18" class="node">
<title>c20</title>
<polygon fill="none" stroke="black" points="1436.44,-103 1436.44,-195 1599.44,-195 1599.44,-103 1436.44,-103"/>
<text text-anchor="middle" x="1450.44" y="-179.8" font-family="Times New Roman,serif" font-size="14.00">I0</text>
<polyline fill="none" stroke="black" points="1436.44,-172 1464.44,-172 "/>
<text text-anchor="middle" x="1450.44" y="-156.8" font-family="Times New Roman,serif" font-size="14.00">I1</text>
<polyline fill="none" stroke="black" points="1436.44,-149 1464.44,-149 "/>
<text text-anchor="middle" x="1450.44" y="-133.8" font-family="Times New Roman,serif" font-size="14.00">I2</text>
<polyline fill="none" stroke="black" points="1436.44,-126 1464.44,-126 "/>
<text text-anchor="middle" x="1450.44" y="-110.8" font-family="Times New Roman,serif" font-size="14.00">I3</text>
<polyline fill="none" stroke="black" points="1464.44,-103 1464.44,-195 "/>
<text text-anchor="middle" x="1518.44" y="-152.8" font-family="Times New Roman,serif" font-size="14.00">q_SB_LUT4_O</text>
<text text-anchor="middle" x="1518.44" y="-137.8" font-family="Times New Roman,serif" font-size="14.00">SB_LUT4</text>
<polyline fill="none" stroke="black" points="1572.44,-103 1572.44,-195 "/>
<text text-anchor="middle" x="1585.94" y="-145.3" font-family="Times New Roman,serif" font-size="14.00">O</text>
</g>
<!-- n6&#45;&gt;c20 -->
<g id="edge12" class="edge">
<title>n6:e&#45;&gt;c20:w</title>
<path fill="none" stroke="#e7298a" d="M635.32,-41C790.83,-41 829.71,-43 985.22,-43 985.22,-43 985.22,-43 1218.61,-43 1298.1,-43 1325.91,-40.26 1392.94,-83 1415.17,-97.18 1407.56,-127.37 1424.98,-135.15"/>
<polygon fill="#e7298a" stroke="#e7298a" points="1424.47,-138.61 1434.94,-137 1425.75,-131.73 1424.47,-138.61"/>
</g>
<!-- n7 -->
<g id="node7" class="node">
<title>n7</title>
<polygon fill="none" stroke="black" points="1363.52,-128 1334.2,-110 1363.52,-92 1392.85,-110 1363.52,-128"/>
<text text-anchor="middle" x="1363.52" y="-106.3" font-family="Times New Roman,serif" font-size="14.00">qp</text>
</g>
<!-- n7&#45;&gt;c13 -->
<g id="edge14" class="edge">
<title>n7:e&#45;&gt;c13:w</title>
<path fill="none" stroke="#7570b3" d="M1392.94,-110C1460.61,-110 1368.54,-250.3 1418.74,-265.64"/>
<polygon fill="#7570b3" stroke="#7570b3" points="1418.56,-269.15 1428.94,-267 1419.49,-262.21 1418.56,-269.15"/>
</g>
<!-- n7&#45;&gt;c20 -->
<g id="edge15" class="edge">
<title>n7:e&#45;&gt;c20:w</title>
<path fill="none" stroke="#7570b3" d="M1392.94,-110C1407.73,-110 1413.65,-112.49 1424.71,-113.54"/>
<polygon fill="#7570b3" stroke="#7570b3" points="1424.79,-117.05 1434.94,-114 1425.1,-110.06 1424.79,-117.05"/>
</g>
<!-- v0 -->
<g id="node8" class="node">
<title>v0</title>
<ellipse fill="none" stroke="black" cx="1363.52" cy="-402" rx="27" ry="18"/>
<text text-anchor="middle" x="1363.52" y="-398.3" font-family="Times New Roman,serif" font-size="14.00">1&#39;0</text>
</g>
<!-- v0&#45;&gt;c13 -->
<g id="edge16" class="edge">
<title>v0:e&#45;&gt;c13:w</title>
<path fill="none" stroke="#d95f02" d="M1391.52,-402C1420.69,-402 1401.94,-352.23 1419.13,-339.79"/>
<polygon fill="#d95f02" stroke="#d95f02" points="1420.28,-343.1 1428.94,-337 1418.36,-336.37 1420.28,-343.1"/>
</g>
<!-- v1 -->
<g id="node9" class="node">
<title>v1</title>
<ellipse fill="none" stroke="black" cx="1363.52" cy="-348" rx="27" ry="18"/>
<text text-anchor="middle" x="1363.52" y="-344.3" font-family="Times New Roman,serif" font-size="14.00">1&#39;0</text>
</g>
<!-- v1&#45;&gt;c13 -->
<g id="edge17" class="edge">
<title>v1:e&#45;&gt;c13:w</title>
<path fill="none" stroke="#1b9e77" d="M1391.52,-348C1409.78,-348 1408.24,-325.55 1419.07,-317.14"/>
<polygon fill="#1b9e77" stroke="#1b9e77" points="1420.47,-320.37 1428.94,-314 1418.35,-313.69 1420.47,-320.37"/>
</g>
<!-- c13&#45;&gt;n1 -->
<g id="edge1" class="edge">
<title>c13:e&#45;&gt;n1:w</title>
<path fill="none" stroke="#66a61e" d="M1607.94,-302C1628.61,-302 1621.71,-334.04 1606.94,-348.5 1550.4,-403.84 1503.88,-373.85 1428.94,-348.5 1409.86,-342.05 1411.55,-328.68 1392.94,-321 1055.41,-181.68 940.34,-261.88 578.33,-214 469.84,-199.65 164.52,-229.3 90.17,-149 88.04,-146.7 86.2,-143.45 85.22,-140.35"/>
<polygon fill="#66a61e" stroke="#66a61e" points="88.51,-141.57 89.17,-131 82.06,-138.85 88.51,-141.57"/>
</g>
<!-- v2 -->
<g id="node11" class="node">
<title>v2</title>
<ellipse fill="none" stroke="black" cx="606.83" cy="-187" rx="27" ry="18"/>
<text text-anchor="middle" x="606.83" y="-183.3" font-family="Times New Roman,serif" font-size="14.00">1&#39;0</text>
</g>
<!-- v2&#45;&gt;c14 -->
<g id="edge18" class="edge">
<title>v2:e&#45;&gt;c14:w</title>
<path fill="none" stroke="#1b9e77" d="M634.83,-187C652.6,-187 651.15,-165.21 661.71,-157.05"/>
<polygon fill="#1b9e77" stroke="#1b9e77" points="662.85,-160.36 671.32,-154 660.73,-153.68 662.85,-160.36"/>
</g>
<!-- v3 -->
<g id="node12" class="node">
<title>v3</title>
<ellipse fill="none" stroke="black" cx="606.83" cy="-133" rx="27" ry="18"/>
<text text-anchor="middle" x="606.83" y="-129.3" font-family="Times New Roman,serif" font-size="14.00">1&#39;0</text>
</g>
<!-- v3&#45;&gt;c14 -->
<g id="edge19" class="edge">
<title>v3:e&#45;&gt;c14:w</title>
<path fill="none" stroke="#e6ab02" d="M634.83,-133C647.14,-133 652.42,-131.85 661.33,-131.3"/>
<polygon fill="#e6ab02" stroke="#e6ab02" points="661.43,-134.79 671.32,-131 661.22,-127.8 661.43,-134.79"/>
</g>
<!-- c14&#45;&gt;n2 -->
<g id="edge3" class="edge">
<title>c14:e&#45;&gt;n2:w</title>
<path fill="none" stroke="#1b9e77" d="M835.32,-119C847.32,-119 852.57,-119 861.2,-119"/>
<polygon fill="#1b9e77" stroke="#1b9e77" points="861.32,-122.5 871.32,-119 861.32,-115.5 861.32,-122.5"/>
</g>
<!-- c18&#45;&gt;n6 -->
<g id="edge10" class="edge">
<title>c18:e&#45;&gt;n6:w</title>
<path fill="none" stroke="#e7298a" d="M542.33,-143C586.28,-143 539.8,-57.78 568.2,-43.13"/>
<polygon fill="#e7298a" stroke="#e7298a" points="569.27,-46.48 578.33,-41 567.83,-39.63 569.27,-46.48"/>
</g>
<!-- c19&#45;&gt;n7 -->
<g id="edge13" class="edge">
<title>c19:e&#45;&gt;n7:w</title>
<path fill="none" stroke="#7570b3" d="M1298.11,-131C1312.58,-131 1315.11,-118.18 1324.35,-112.58"/>
<polygon fill="#7570b3" stroke="#7570b3" points="1325.34,-115.94 1334.11,-110 1323.55,-109.17 1325.34,-115.94"/>
</g>
<!-- v4 -->
<g id="node16" class="node">
<title>v4</title>
<ellipse fill="none" stroke="black" cx="1363.52" cy="-218" rx="27" ry="18"/>
<text text-anchor="middle" x="1363.52" y="-214.3" font-family="Times New Roman,serif" font-size="14.00">1&#39;0</text>
</g>
<!-- v4&#45;&gt;c20 -->
<g id="edge20" class="edge">
<title>v4:e&#45;&gt;c20:w</title>
<path fill="none" stroke="#e6ab02" d="M1391.52,-218C1412.01,-218 1411.46,-194.24 1425.04,-186.45"/>
<polygon fill="#e6ab02" stroke="#e6ab02" points="1426.07,-189.8 1434.94,-184 1424.39,-183 1426.07,-189.8"/>
</g>
<!-- v5 -->
<g id="node17" class="node">
<title>v5</title>
<ellipse fill="none" stroke="black" cx="1363.52" cy="-164" rx="27" ry="18"/>
<text text-anchor="middle" x="1363.52" y="-160.3" font-family="Times New Roman,serif" font-size="14.00">1&#39;0</text>
</g>
<!-- v5&#45;&gt;c20 -->
<g id="edge21" class="edge">
<title>v5:e&#45;&gt;c20:w</title>
<path fill="none" stroke="#d95f02" d="M1391.52,-164C1406.94,-164 1413.07,-162.09 1424.71,-161.32"/>
<polygon fill="#d95f02" stroke="#d95f02" points="1425.05,-164.81 1434.94,-161 1424.83,-157.82 1425.05,-164.81"/>
</g>
<!-- c20&#45;&gt;n5 -->
<g id="edge9" class="edge">
<title>c20:e&#45;&gt;n5:w</title>
<path fill="none" stroke="#e7298a" d="M1600.94,-149C1615.67,-149 1621.68,-149 1632.73,-149"/>
<polygon fill="#e7298a" stroke="#e7298a" points="1632.94,-152.5 1642.94,-149 1632.94,-145.5 1632.94,-152.5"/>
</g>
</g>
</svg>
