<svg xmlns="http://www.w3.org/2000/svg" xmlns:xlink="http://www.w3.org/1999/xlink" xmlns:s="https://github.com/nturley/netlistsvg" width="453" height="147">
  <style>svg {
    stroke:#000;
    fill:none;
  }
  text {
    fill:#000;
    stroke:none;
    font-size:10px;
    font-weight: bold;
    font-family: "Courier New", monospace;
  }
  .nodelabel {
    text-anchor: middle;
  }
  .inputPortLabel {
    text-anchor: end;
  }
  .splitjoinBody {
    fill:#000;
  }</style>
  <g s:type="dff" transform="translate(145,45.5)" s:width="30" s:height="40" id="cell_$procdff$8">
    <s:alias val="$dff"/>
    <s:alias val="$_DFF_"/>
    <s:alias val="$_DFF_P_"/>
    <rect width="30" height="40" x="0" y="0" class="cell_$procdff$8"/>
    <path d="M0,35 L5,30 L0,25" class="cell_$procdff$8"/>
    <g s:x="30" s:y="10" s:pid="Q"/>
    <g s:x="0" s:y="30" s:pid="CLK"/>
    <g s:x="0" s:y="30" s:pid="C"/>
    <g s:x="0" s:y="10" s:pid="D"/>
  </g>
  <g s:type="dff" transform="translate(278,29.5)" s:width="30" s:height="40" id="cell_$procdff$9">
    <s:alias val="$dff"/>
    <s:alias val="$_DFF_"/>
    <s:alias val="$_DFF_P_"/>
    <rect width="30" height="40" x="0" y="0" class="cell_$procdff$9"/>
    <path d="M0,35 L5,30 L0,25" class="cell_$procdff$9"/>
    <g s:x="30" s:y="10" s:pid="Q"/>
    <g s:x="0" s:y="30" s:pid="CLK"/>
    <g s:x="0" s:y="30" s:pid="C"/>
    <g s:x="0" s:y="10" s:pid="D"/>
  </g>
  <g s:type="reduce_xor" transform="translate(210,27)" s:width="33" s:height="25" id="cell_$xor$top_module.v:20$2">
    <s:alias val="$xor"/>
    <s:alias val="$reduce_xor"/>
    <s:alias val="$_XOR_"/>
    <path d="M3,0 A30 25 0 0 1 3,25 A30 25 0 0 0 33,12.5 A30 25 0 0 0 3,0" class="cell_$xor$top_module.v:20$2"/>
    <path d="M0,0 A30 25 0 0 1 0,25" class="cell_$xor$top_module.v:20$2"/>
    <g s:x="3" s:y="5" s:pid="A"/>
    <g s:x="3" s:y="20" s:pid="B"/>
    <g s:x="33" s:y="12.5" s:pid="Y"/>
  </g>
  <g s:type="reduce_xor" transform="translate(77,43)" s:width="33" s:height="25" id="cell_$xor$top_module.v:24$4">
    <s:alias val="$xor"/>
    <s:alias val="$reduce_xor"/>
    <s:alias val="$_XOR_"/>
    <path d="M3,0 A30 25 0 0 1 3,25 A30 25 0 0 0 33,12.5 A30 25 0 0 0 3,0" class="cell_$xor$top_module.v:24$4"/>
    <path d="M0,0 A30 25 0 0 1 0,25" class="cell_$xor$top_module.v:24$4"/>
    <g s:x="3" s:y="5" s:pid="A"/>
    <g s:x="3" s:y="20" s:pid="B"/>
    <g s:x="33" s:y="12.5" s:pid="Y"/>
  </g>
  <g s:type="reduce_xor" transform="translate(343,34.5)" s:width="33" s:height="25" id="cell_$xor$top_module.v:27$5">
    <s:alias val="$xor"/>
    <s:alias val="$reduce_xor"/>
    <s:alias val="$_XOR_"/>
    <path d="M3,0 A30 25 0 0 1 3,25 A30 25 0 0 0 33,12.5 A30 25 0 0 0 3,0" class="cell_$xor$top_module.v:27$5"/>
    <path d="M0,0 A30 25 0 0 1 0,25" class="cell_$xor$top_module.v:27$5"/>
    <g s:x="3" s:y="5" s:pid="A"/>
    <g s:x="3" s:y="20" s:pid="B"/>
    <g s:x="33" s:y="12.5" s:pid="Y"/>
  </g>
  <g s:type="inputExt" transform="translate(80,113)" s:width="30" s:height="20" id="cell_clk">
    <text x="15" y="-4" class="nodelabel cell_clk" s:attribute="ref">clk</text>
    <s:alias val="$_inputExt_"/>
    <path d="M0,0 L0,20 L15,20 L30,10 L15,0 Z" class="cell_clk"/>
    <g s:x="28" s:y="10" s:pid="Y"/>
  </g>
  <g s:type="inputExt" transform="translate(12,22)" s:width="30" s:height="20" id="cell_d">
    <text x="15" y="-4" class="nodelabel cell_d" s:attribute="ref">d</text>
    <s:alias val="$_inputExt_"/>
    <path d="M0,0 L0,20 L15,20 L30,10 L15,0 Z" class="cell_d"/>
    <g s:x="28" s:y="10" s:pid="Y"/>
  </g>
  <g s:type="outputExt" transform="translate(411,37)" s:width="30" s:height="20" id="cell_q">
    <text x="15" y="-4" class="nodelabel cell_q" s:attribute="ref">q</text>
    <s:alias val="$_outputExt_"/>
    <path d="M30,0 L30,20 L15,20 L0,10 L15,0 Z" class="cell_q"/>
    <g s:x="0" s:y="10" s:pid="A"/>
  </g>
  <line x1="108" x2="120" y1="123" y2="123" class="net_2"/>
  <line x1="120" x2="120" y1="123" y2="75.5" class="net_2"/>
  <circle cx="120" cy="123" r="2" style="fill:#000" class="net_2"/>
  <line x1="120" x2="145" y1="75.5" y2="75.5" class="net_2"/>
  <line x1="108" x2="253" y1="123" y2="123" class="net_2"/>
  <line x1="253" x2="253" y1="123" y2="59.5" class="net_2"/>
  <line x1="253" x2="278" y1="59.5" y2="59.5" class="net_2"/>
  <line x1="110" x2="145" y1="55.5" y2="55.5" class="net_5"/>
  <line x1="243" x2="278" y1="39.5" y2="39.5" class="net_7"/>
  <line x1="40" x2="213" y1="32" y2="32" class="net_3"/>
  <line x1="40" x2="62" y1="32" y2="32" class="net_3"/>
  <line x1="62" x2="62" y1="32" y2="48" class="net_3"/>
  <circle cx="62" cy="32" r="2" style="fill:#000" class="net_3"/>
  <line x1="62" x2="80" y1="48" y2="48" class="net_3"/>
  <line x1="175" x2="185" y1="55.5" y2="55.5" class="net_6"/>
  <line x1="185" x2="185" y1="55.5" y2="47" class="net_6"/>
  <circle cx="185" cy="55.5" r="2" style="fill:#000" class="net_6"/>
  <line x1="185" x2="213" y1="47" y2="47" class="net_6"/>
  <line x1="175" x2="185" y1="55.5" y2="55.5" class="net_6"/>
  <line x1="185" x2="185" y1="55.5" y2="134" class="net_6"/>
  <line x1="185" x2="318" y1="134" y2="134" class="net_6"/>
  <line x1="318" x2="318" y1="134" y2="54.5" class="net_6"/>
  <line x1="318" x2="346" y1="54.5" y2="54.5" class="net_6"/>
  <line x1="308" x2="318" y1="39.5" y2="39.5" class="net_8"/>
  <line x1="318" x2="318" y1="39.5" y2="16" class="net_8"/>
  <line x1="318" x2="52" y1="16" y2="16" class="net_8"/>
  <line x1="52" x2="52" y1="16" y2="63" class="net_8"/>
  <circle cx="318" cy="39.5" r="2" style="fill:#000" class="net_8"/>
  <line x1="52" x2="80" y1="63" y2="63" class="net_8"/>
  <line x1="308" x2="346" y1="39.5" y2="39.5" class="net_8"/>
  <line x1="376" x2="411" y1="47" y2="47" class="net_4"/>
</svg>
