<?xml version="1.0" encoding="UTF-8" standalone="no"?>
<!DOCTYPE svg PUBLIC "-//W3C//DTD SVG 1.1//EN"
 "http://www.w3.org/Graphics/SVG/1.1/DTD/svg11.dtd">
<!-- Generated by graphviz version 4.0.0 (20220529.0937)
 -->
<!-- Title: top_module Pages: 1 -->
<svg width="2321pt" height="1189pt"
 viewBox="0.00 0.00 2320.88 1188.67" xmlns="http://www.w3.org/2000/svg" xmlns:xlink="http://www.w3.org/1999/xlink">
<g id="graph0" class="graph" transform="scale(1 1) rotate(0) translate(4 1184.67)">
<title>top_module</title>
<polygon fill="white" stroke="transparent" points="-4,4 -4,-1184.67 2316.88,-1184.67 2316.88,4 -4,4"/>
<text text-anchor="middle" x="1156.44" y="-7.8" font-family="Times New Roman,serif" font-size="14.00">top_module</text>
<!-- n1 -->
<g id="node1" class="node">
<title>n1</title>
<polygon fill="none" stroke="black" points="543.48,-170 395.52,-152 543.48,-134 691.45,-152 543.48,-170"/>
<text text-anchor="middle" x="543.48" y="-148.3" font-family="Times New Roman,serif" font-size="14.00">state_SB_DFFESR_Q_E</text>
</g>
<!-- c22 -->
<g id="node26" class="node">
<title>c22</title>
<polygon fill="none" stroke="black" points="727.47,-558 727.47,-650 939.47,-650 939.47,-558 727.47,-558"/>
<text text-anchor="middle" x="740.47" y="-634.8" font-family="Times New Roman,serif" font-size="14.00">C</text>
<polyline fill="none" stroke="black" points="727.47,-627 753.47,-627 "/>
<text text-anchor="middle" x="740.47" y="-611.8" font-family="Times New Roman,serif" font-size="14.00">D</text>
<polyline fill="none" stroke="black" points="727.47,-604 753.47,-604 "/>
<text text-anchor="middle" x="740.47" y="-588.8" font-family="Times New Roman,serif" font-size="14.00">E</text>
<polyline fill="none" stroke="black" points="727.47,-581 753.47,-581 "/>
<text text-anchor="middle" x="740.47" y="-565.8" font-family="Times New Roman,serif" font-size="14.00">R</text>
<polyline fill="none" stroke="black" points="753.47,-558 753.47,-650 "/>
<text text-anchor="middle" x="832.97" y="-607.8" font-family="Times New Roman,serif" font-size="14.00">state_SB_DFFESR_Q_2</text>
<text text-anchor="middle" x="832.97" y="-592.8" font-family="Times New Roman,serif" font-size="14.00">SB_DFFESR</text>
<polyline fill="none" stroke="black" points="912.47,-558 912.47,-650 "/>
<text text-anchor="middle" x="925.97" y="-600.3" font-family="Times New Roman,serif" font-size="14.00">Q</text>
</g>
<!-- n1&#45;&gt;c22 -->
<g id="edge22" class="edge">
<title>n1:e&#45;&gt;c22:w</title>
<path fill="none" stroke="#7570b3" d="M691.47,-152C785.93,-152 640.9,-559.95 717.59,-590.23"/>
<polygon fill="#7570b3" stroke="#7570b3" points="717.01,-593.68 727.47,-592 718.24,-586.79 717.01,-593.68"/>
</g>
<!-- c23 -->
<g id="node29" class="node">
<title>c23</title>
<polygon fill="none" stroke="black" points="1912.88,-327 1912.88,-419 2124.88,-419 2124.88,-327 1912.88,-327"/>
<text text-anchor="middle" x="1925.88" y="-403.8" font-family="Times New Roman,serif" font-size="14.00">C</text>
<polyline fill="none" stroke="black" points="1912.88,-396 1938.88,-396 "/>
<text text-anchor="middle" x="1925.88" y="-380.8" font-family="Times New Roman,serif" font-size="14.00">D</text>
<polyline fill="none" stroke="black" points="1912.88,-373 1938.88,-373 "/>
<text text-anchor="middle" x="1925.88" y="-357.8" font-family="Times New Roman,serif" font-size="14.00">E</text>
<polyline fill="none" stroke="black" points="1912.88,-350 1938.88,-350 "/>
<text text-anchor="middle" x="1925.88" y="-334.8" font-family="Times New Roman,serif" font-size="14.00">R</text>
<polyline fill="none" stroke="black" points="1938.88,-327 1938.88,-419 "/>
<text text-anchor="middle" x="2018.38" y="-376.8" font-family="Times New Roman,serif" font-size="14.00">state_SB_DFFESR_Q_1</text>
<text text-anchor="middle" x="2018.38" y="-361.8" font-family="Times New Roman,serif" font-size="14.00">SB_DFFESR</text>
<polyline fill="none" stroke="black" points="2097.88,-327 2097.88,-419 "/>
<text text-anchor="middle" x="2111.38" y="-369.3" font-family="Times New Roman,serif" font-size="14.00">Q</text>
</g>
<!-- n1&#45;&gt;c23 -->
<g id="edge23" class="edge">
<title>n1:e&#45;&gt;c23:w</title>
<path fill="none" stroke="#7570b3" d="M691.47,-152C831.02,-152 865.91,-152 1005.47,-152 1005.47,-152 1005.47,-152 1113.07,-152 1173.93,-152 1188.45,-162.3 1248.68,-171 1365.2,-187.83 1397.49,-177.62 1510.68,-210 1690.94,-261.56 1720.89,-357.46 1902.68,-360.9"/>
<polygon fill="#7570b3" stroke="#7570b3" points="1902.84,-364.41 1912.88,-361 1902.91,-357.41 1902.84,-364.41"/>
</g>
<!-- c24 -->
<g id="node32" class="node">
<title>c24</title>
<polygon fill="none" stroke="black" points="1919.88,-108 1919.88,-200 2117.88,-200 2117.88,-108 1919.88,-108"/>
<text text-anchor="middle" x="1932.88" y="-184.8" font-family="Times New Roman,serif" font-size="14.00">C</text>
<polyline fill="none" stroke="black" points="1919.88,-177 1945.88,-177 "/>
<text text-anchor="middle" x="1932.88" y="-161.8" font-family="Times New Roman,serif" font-size="14.00">D</text>
<polyline fill="none" stroke="black" points="1919.88,-154 1945.88,-154 "/>
<text text-anchor="middle" x="1932.88" y="-138.8" font-family="Times New Roman,serif" font-size="14.00">E</text>
<polyline fill="none" stroke="black" points="1919.88,-131 1945.88,-131 "/>
<text text-anchor="middle" x="1932.88" y="-115.8" font-family="Times New Roman,serif" font-size="14.00">R</text>
<polyline fill="none" stroke="black" points="1945.88,-108 1945.88,-200 "/>
<text text-anchor="middle" x="2018.38" y="-157.8" font-family="Times New Roman,serif" font-size="14.00">state_SB_DFFESR_Q</text>
<text text-anchor="middle" x="2018.38" y="-142.8" font-family="Times New Roman,serif" font-size="14.00">SB_DFFESR</text>
<polyline fill="none" stroke="black" points="2090.88,-108 2090.88,-200 "/>
<text text-anchor="middle" x="2104.38" y="-150.3" font-family="Times New Roman,serif" font-size="14.00">Q</text>
</g>
<!-- n1&#45;&gt;c24 -->
<g id="edge24" class="edge">
<title>n1:e&#45;&gt;c24:w</title>
<path fill="none" stroke="#7570b3" d="M691.47,-152C708.64,-152 710.6,-141.17 727.47,-138 754.63,-132.9 1752.72,-141.56 1908.77,-141.98"/>
<polygon fill="#7570b3" stroke="#7570b3" points="1908.87,-145.48 1918.88,-142 1908.88,-138.48 1908.87,-145.48"/>
</g>
<!-- n2 -->
<g id="node2" class="node">
<title>n2</title>
<polygon fill="none" stroke="black" points="57.25,-739.54 57.25,-754.46 41.43,-765 19.07,-765 3.25,-754.46 3.25,-739.54 19.07,-729 41.43,-729 57.25,-739.54"/>
<text text-anchor="middle" x="30.25" y="-743.3" font-family="Times New Roman,serif" font-size="14.00">clk</text>
</g>
<!-- c13 -->
<g id="node10" class="node">
<title>c13</title>
<polygon fill="none" stroke="black" points="186.5,-240 186.5,-332 359.5,-332 359.5,-240 186.5,-240"/>
<text text-anchor="middle" x="200.5" y="-316.8" font-family="Times New Roman,serif" font-size="14.00">I0</text>
<polyline fill="none" stroke="black" points="186.5,-309 214.5,-309 "/>
<text text-anchor="middle" x="200.5" y="-293.8" font-family="Times New Roman,serif" font-size="14.00">I1</text>
<polyline fill="none" stroke="black" points="186.5,-286 214.5,-286 "/>
<text text-anchor="middle" x="200.5" y="-270.8" font-family="Times New Roman,serif" font-size="14.00">I2</text>
<polyline fill="none" stroke="black" points="186.5,-263 214.5,-263 "/>
<text text-anchor="middle" x="200.5" y="-247.8" font-family="Times New Roman,serif" font-size="14.00">I3</text>
<polyline fill="none" stroke="black" points="214.5,-240 214.5,-332 "/>
<text text-anchor="middle" x="273.5" y="-289.8" font-family="Times New Roman,serif" font-size="14.00">clk_SB_LUT4_I2</text>
<text text-anchor="middle" x="273.5" y="-274.8" font-family="Times New Roman,serif" font-size="14.00">SB_LUT4</text>
<polyline fill="none" stroke="black" points="332.5,-240 332.5,-332 "/>
<text text-anchor="middle" x="346" y="-282.3" font-family="Times New Roman,serif" font-size="14.00">O</text>
</g>
<!-- n2&#45;&gt;c13 -->
<g id="edge25" class="edge">
<title>n2:e&#45;&gt;c13:w</title>
<path fill="none" stroke="#a6761d" d="M58.25,-747C108.87,-747 62.99,-330.95 96.5,-293 121.24,-264.99 141.79,-272.31 176.36,-273.78"/>
<polygon fill="#a6761d" stroke="#a6761d" points="176.43,-277.28 186.5,-274 176.58,-270.28 176.43,-277.28"/>
</g>
<!-- n2&#45;&gt;c22 -->
<g id="edge26" class="edge">
<title>n2:e&#45;&gt;c22:w</title>
<path fill="none" stroke="#a6761d" d="M58.25,-747C356.15,-747 424.66,-641.41 717.41,-639.04"/>
<polygon fill="#a6761d" stroke="#a6761d" points="717.48,-642.54 727.47,-639 717.45,-635.54 717.48,-642.54"/>
</g>
<!-- n2&#45;&gt;c23 -->
<g id="edge27" class="edge">
<title>n2:e&#45;&gt;c23:w</title>
<path fill="none" stroke="#a6761d" d="M58.25,-747C90.63,-747 72.28,-787.51 96.5,-809 327.64,-1014.08 433.23,-1006.63 727.47,-1101 892.57,-1153.95 937.69,-1172 1111.07,-1172 1111.07,-1172 1111.07,-1172 1712.78,-1172 1786.49,-1172 1827.33,-1202.58 1876.88,-1148 1929.83,-1089.67 1839,-465.21 1903.26,-411.66"/>
<polygon fill="#a6761d" stroke="#a6761d" points="1904.77,-414.83 1912.88,-408 1902.28,-408.28 1904.77,-414.83"/>
</g>
<!-- n2&#45;&gt;c24 -->
<g id="edge28" class="edge">
<title>n2:e&#45;&gt;c24:w</title>
<path fill="none" stroke="#a6761d" d="M58.25,-747C73.83,-747 1095.49,-1134 1111.07,-1134 1111.07,-1134 1111.07,-1134 1712.78,-1134 1759.1,-1134 1855.65,-931.21 1876.88,-856 1896.1,-787.88 1849.37,-243.68 1909.25,-192.81"/>
<polygon fill="#a6761d" stroke="#a6761d" points="1910.86,-195.93 1918.88,-189 1908.29,-189.43 1910.86,-195.93"/>
</g>
<!-- n3 -->
<g id="node3" class="node">
<title>n3</title>
<polygon fill="none" stroke="black" points="1711.78,-653 1644.58,-635 1711.78,-617 1778.97,-635 1711.78,-653"/>
<text text-anchor="middle" x="1711.78" y="-631.3" font-family="Times New Roman,serif" font-size="14.00">next_state</text>
</g>
<!-- x14 -->
<g id="node27" class="node">
<title>x14</title>
<path fill="none" stroke="black" d="M1826.88,-810C1826.88,-810 1864.88,-810 1864.88,-810 1870.88,-810 1876.88,-816 1876.88,-822 1876.88,-822 1876.88,-834 1876.88,-834 1876.88,-840 1870.88,-846 1864.88,-846 1864.88,-846 1826.88,-846 1826.88,-846 1820.88,-846 1814.88,-840 1814.88,-834 1814.88,-834 1814.88,-822 1814.88,-822 1814.88,-816 1820.88,-810 1826.88,-810"/>
<text text-anchor="middle" x="1845.88" y="-824.3" font-family="Times New Roman,serif" font-size="14.00">0:0 &#45; 0:0</text>
</g>
<!-- n3&#45;&gt;x14 -->
<g id="edge32" class="edge">
<title>n3:e&#45;&gt;x14:w</title>
<path fill="none" stroke="#e6ab02" d="M1778.88,-635C1862.38,-635 1739.1,-811.77 1804.84,-826.96"/>
<polygon fill="#e6ab02" stroke="#e6ab02" points="1804.57,-830.45 1814.88,-828 1805.29,-823.49 1804.57,-830.45"/>
</g>
<!-- x16 -->
<g id="node30" class="node">
<title>x16</title>
<path fill="none" stroke="black" d="M1826.88,-453C1826.88,-453 1864.88,-453 1864.88,-453 1870.88,-453 1876.88,-459 1876.88,-465 1876.88,-465 1876.88,-477 1876.88,-477 1876.88,-483 1870.88,-489 1864.88,-489 1864.88,-489 1826.88,-489 1826.88,-489 1820.88,-489 1814.88,-483 1814.88,-477 1814.88,-477 1814.88,-465 1814.88,-465 1814.88,-459 1820.88,-453 1826.88,-453"/>
<text text-anchor="middle" x="1845.88" y="-467.3" font-family="Times New Roman,serif" font-size="14.00">1:1 &#45; 0:0</text>
</g>
<!-- n3&#45;&gt;x16 -->
<g id="edge33" class="edge">
<title>n3:e&#45;&gt;x16:w</title>
<path fill="none" stroke="#e6ab02" d="M1778.88,-635C1849.71,-635 1751.27,-487.23 1804.91,-472.23"/>
<polygon fill="#e6ab02" stroke="#e6ab02" points="1805.38,-475.69 1814.88,-471 1804.52,-468.75 1805.38,-475.69"/>
</g>
<!-- x18 -->
<g id="node33" class="node">
<title>x18</title>
<path fill="none" stroke="black" d="M1826.88,-296C1826.88,-296 1864.88,-296 1864.88,-296 1870.88,-296 1876.88,-302 1876.88,-308 1876.88,-308 1876.88,-320 1876.88,-320 1876.88,-326 1870.88,-332 1864.88,-332 1864.88,-332 1826.88,-332 1826.88,-332 1820.88,-332 1814.88,-326 1814.88,-320 1814.88,-320 1814.88,-308 1814.88,-308 1814.88,-302 1820.88,-296 1826.88,-296"/>
<text text-anchor="middle" x="1845.88" y="-310.3" font-family="Times New Roman,serif" font-size="14.00">2:2 &#45; 0:0</text>
</g>
<!-- n3&#45;&gt;x18 -->
<g id="edge34" class="edge">
<title>n3:e&#45;&gt;x18:w</title>
<path fill="none" stroke="#e6ab02" d="M1778.88,-635C1846.87,-635 1753.94,-346.96 1804.96,-316.58"/>
<polygon fill="#e6ab02" stroke="#e6ab02" points="1806.08,-319.91 1814.88,-314 1804.32,-313.14 1806.08,-319.91"/>
</g>
<!-- n4 -->
<g id="node4" class="node">
<title>n4</title>
<polygon fill="none" stroke="black" points="60.25,-129.54 60.25,-144.46 42.68,-155 17.82,-155 0.25,-144.46 0.25,-129.54 17.82,-119 42.68,-119 60.25,-129.54"/>
<text text-anchor="middle" x="30.25" y="-133.3" font-family="Times New Roman,serif" font-size="14.00">reset</text>
</g>
<!-- n4&#45;&gt;c13 -->
<g id="edge35" class="edge">
<title>n4:e&#45;&gt;c13:w</title>
<path fill="none" stroke="#1b9e77" d="M60.5,-137C97.47,-137 69.86,-186.36 96.5,-212 125.34,-239.75 140.34,-249.42 176.32,-250.82"/>
<polygon fill="#1b9e77" stroke="#1b9e77" points="176.44,-254.32 186.5,-251 176.57,-247.32 176.44,-254.32"/>
</g>
<!-- n4&#45;&gt;c22 -->
<g id="edge36" class="edge">
<title>n4:e&#45;&gt;c22:w</title>
<path fill="none" stroke="#1b9e77" d="M60.5,-137C199.67,-137 238.94,-160.49 359.5,-230 549.13,-339.33 506.52,-561.91 717.24,-568.83"/>
<polygon fill="#1b9e77" stroke="#1b9e77" points="717.41,-572.34 727.47,-569 717.53,-565.34 717.41,-572.34"/>
</g>
<!-- n4&#45;&gt;c23 -->
<g id="edge37" class="edge">
<title>n4:e&#45;&gt;c23:w</title>
<path fill="none" stroke="#1b9e77" d="M60.5,-137C158.33,-137 174.17,-76 272,-76 272,-76 272,-76 1007.47,-76 1235.15,-76 1289.87,-116.47 1510.68,-172 1676.12,-213.61 1739.05,-186.47 1876.88,-287 1895.96,-300.92 1888.53,-328.12 1903.03,-335.88"/>
<polygon fill="#1b9e77" stroke="#1b9e77" points="1902.36,-339.32 1912.88,-338 1903.83,-332.48 1902.36,-339.32"/>
</g>
<!-- n4&#45;&gt;c24 -->
<g id="edge38" class="edge">
<title>n4:e&#45;&gt;c24:w</title>
<path fill="none" stroke="#1b9e77" d="M60.5,-137C97.47,-137 66.62,-83.77 96.5,-62 160.13,-15.64 193.27,-38 272,-38 272,-38 272,-38 1398.68,-38 1629.24,-38 1683.32,-116.64 1908.71,-118.95"/>
<polygon fill="#1b9e77" stroke="#1b9e77" points="1908.86,-122.45 1918.88,-119 1908.89,-115.45 1908.86,-122.45"/>
</g>
<!-- n5 -->
<g id="node5" class="node">
<title>n5</title>
<polygon fill="none" stroke="black" points="1112.07,-622 1073.36,-604 1112.07,-586 1150.78,-604 1112.07,-622"/>
<text text-anchor="middle" x="1112.07" y="-600.3" font-family="Times New Roman,serif" font-size="14.00">state</text>
</g>
<!-- x2 -->
<g id="node12" class="node">
<title>x2</title>
<path fill="none" stroke="black" d="M1198.68,-751C1198.68,-751 1236.68,-751 1236.68,-751 1242.68,-751 1248.68,-757 1248.68,-763 1248.68,-763 1248.68,-775 1248.68,-775 1248.68,-781 1242.68,-787 1236.68,-787 1236.68,-787 1198.68,-787 1198.68,-787 1192.68,-787 1186.68,-781 1186.68,-775 1186.68,-775 1186.68,-763 1186.68,-763 1186.68,-757 1192.68,-751 1198.68,-751"/>
<text text-anchor="middle" x="1217.68" y="-765.3" font-family="Times New Roman,serif" font-size="14.00">2:2 &#45; 0:0</text>
</g>
<!-- n5&#45;&gt;x2 -->
<g id="edge47" class="edge">
<title>n5:e&#45;&gt;x2:w</title>
<path fill="none" stroke="#66a61e" d="M1150.68,-604C1221.93,-604 1122.72,-752.67 1176.66,-767.77"/>
<polygon fill="#66a61e" stroke="#66a61e" points="1176.33,-771.25 1186.68,-769 1177.18,-764.3 1176.33,-771.25"/>
</g>
<!-- x3 -->
<g id="node13" class="node">
<title>x3</title>
<path fill="none" stroke="black" d="M1198.68,-696C1198.68,-696 1236.68,-696 1236.68,-696 1242.68,-696 1248.68,-702 1248.68,-708 1248.68,-708 1248.68,-720 1248.68,-720 1248.68,-726 1242.68,-732 1236.68,-732 1236.68,-732 1198.68,-732 1198.68,-732 1192.68,-732 1186.68,-726 1186.68,-720 1186.68,-720 1186.68,-708 1186.68,-708 1186.68,-702 1192.68,-696 1198.68,-696"/>
<text text-anchor="middle" x="1217.68" y="-710.3" font-family="Times New Roman,serif" font-size="14.00">0:0 &#45; 0:0</text>
</g>
<!-- n5&#45;&gt;x3 -->
<g id="edge48" class="edge">
<title>n5:e&#45;&gt;x3:w</title>
<path fill="none" stroke="#66a61e" d="M1150.68,-604C1198.1,-604 1144.97,-697.48 1176.68,-712.09"/>
<polygon fill="#66a61e" stroke="#66a61e" points="1176.2,-715.56 1186.68,-714 1177.51,-708.69 1176.2,-715.56"/>
</g>
<!-- x4 -->
<g id="node14" class="node">
<title>x4</title>
<path fill="none" stroke="black" d="M1198.68,-641C1198.68,-641 1236.68,-641 1236.68,-641 1242.68,-641 1248.68,-647 1248.68,-653 1248.68,-653 1248.68,-665 1248.68,-665 1248.68,-671 1242.68,-677 1236.68,-677 1236.68,-677 1198.68,-677 1198.68,-677 1192.68,-677 1186.68,-671 1186.68,-665 1186.68,-665 1186.68,-653 1186.68,-653 1186.68,-647 1192.68,-641 1198.68,-641"/>
<text text-anchor="middle" x="1217.68" y="-655.3" font-family="Times New Roman,serif" font-size="14.00">1:1 &#45; 0:0</text>
</g>
<!-- n5&#45;&gt;x4 -->
<g id="edge49" class="edge">
<title>n5:e&#45;&gt;x4:w</title>
<path fill="none" stroke="#66a61e" d="M1150.68,-604C1175.56,-604 1162.98,-643.88 1176.74,-655.72"/>
<polygon fill="#66a61e" stroke="#66a61e" points="1176.09,-659.19 1186.68,-659 1178.28,-652.54 1176.09,-659.19"/>
</g>
<!-- x6 -->
<g id="node17" class="node">
<title>x6</title>
<path fill="none" stroke="black" d="M1198.68,-586C1198.68,-586 1236.68,-586 1236.68,-586 1242.68,-586 1248.68,-592 1248.68,-598 1248.68,-598 1248.68,-610 1248.68,-610 1248.68,-616 1242.68,-622 1236.68,-622 1236.68,-622 1198.68,-622 1198.68,-622 1192.68,-622 1186.68,-616 1186.68,-610 1186.68,-610 1186.68,-598 1186.68,-598 1186.68,-592 1192.68,-586 1198.68,-586"/>
<text text-anchor="middle" x="1217.68" y="-600.3" font-family="Times New Roman,serif" font-size="14.00">2:2 &#45; 0:0</text>
</g>
<!-- n5&#45;&gt;x6 -->
<g id="edge50" class="edge">
<title>n5:e&#45;&gt;x6:w</title>
<path fill="none" stroke="#66a61e" d="M1150.68,-604C1162.68,-604 1167.93,-604 1176.55,-604"/>
<polygon fill="#66a61e" stroke="#66a61e" points="1176.68,-607.5 1186.68,-604 1176.68,-600.5 1176.68,-607.5"/>
</g>
<!-- x7 -->
<g id="node18" class="node">
<title>x7</title>
<path fill="none" stroke="black" d="M1198.68,-531C1198.68,-531 1236.68,-531 1236.68,-531 1242.68,-531 1248.68,-537 1248.68,-543 1248.68,-543 1248.68,-555 1248.68,-555 1248.68,-561 1242.68,-567 1236.68,-567 1236.68,-567 1198.68,-567 1198.68,-567 1192.68,-567 1186.68,-561 1186.68,-555 1186.68,-555 1186.68,-543 1186.68,-543 1186.68,-537 1192.68,-531 1198.68,-531"/>
<text text-anchor="middle" x="1217.68" y="-545.3" font-family="Times New Roman,serif" font-size="14.00">0:0 &#45; 0:0</text>
</g>
<!-- n5&#45;&gt;x7 -->
<g id="edge51" class="edge">
<title>n5:e&#45;&gt;x7:w</title>
<path fill="none" stroke="#66a61e" d="M1150.68,-604C1175.56,-604 1162.98,-564.12 1176.74,-552.28"/>
<polygon fill="#66a61e" stroke="#66a61e" points="1178.28,-555.46 1186.68,-549 1176.09,-548.81 1178.28,-555.46"/>
</g>
<!-- x8 -->
<g id="node19" class="node">
<title>x8</title>
<path fill="none" stroke="black" d="M1198.68,-476C1198.68,-476 1236.68,-476 1236.68,-476 1242.68,-476 1248.68,-482 1248.68,-488 1248.68,-488 1248.68,-500 1248.68,-500 1248.68,-506 1242.68,-512 1236.68,-512 1236.68,-512 1198.68,-512 1198.68,-512 1192.68,-512 1186.68,-506 1186.68,-500 1186.68,-500 1186.68,-488 1186.68,-488 1186.68,-482 1192.68,-476 1198.68,-476"/>
<text text-anchor="middle" x="1217.68" y="-490.3" font-family="Times New Roman,serif" font-size="14.00">1:1 &#45; 0:0</text>
</g>
<!-- n5&#45;&gt;x8 -->
<g id="edge52" class="edge">
<title>n5:e&#45;&gt;x8:w</title>
<path fill="none" stroke="#66a61e" d="M1150.68,-604C1198.1,-604 1144.97,-510.52 1176.68,-495.91"/>
<polygon fill="#66a61e" stroke="#66a61e" points="1177.51,-499.31 1186.68,-494 1176.2,-492.44 1177.51,-499.31"/>
</g>
<!-- x10 -->
<g id="node22" class="node">
<title>x10</title>
<path fill="none" stroke="black" d="M1198.68,-1031C1198.68,-1031 1236.68,-1031 1236.68,-1031 1242.68,-1031 1248.68,-1037 1248.68,-1043 1248.68,-1043 1248.68,-1055 1248.68,-1055 1248.68,-1061 1242.68,-1067 1236.68,-1067 1236.68,-1067 1198.68,-1067 1198.68,-1067 1192.68,-1067 1186.68,-1061 1186.68,-1055 1186.68,-1055 1186.68,-1043 1186.68,-1043 1186.68,-1037 1192.68,-1031 1198.68,-1031"/>
<text text-anchor="middle" x="1217.68" y="-1045.3" font-family="Times New Roman,serif" font-size="14.00">0:0 &#45; 0:0</text>
</g>
<!-- n5&#45;&gt;x10 -->
<g id="edge42" class="edge">
<title>n5:e&#45;&gt;x10:w</title>
<path fill="none" stroke="#66a61e" d="M1150.68,-604C1246.21,-604 1099.16,-1016.59 1176.69,-1047.21"/>
<polygon fill="#66a61e" stroke="#66a61e" points="1176.22,-1050.68 1186.68,-1049 1177.45,-1043.79 1176.22,-1050.68"/>
</g>
<!-- x11 -->
<g id="node23" class="node">
<title>x11</title>
<path fill="none" stroke="black" d="M1198.68,-976C1198.68,-976 1236.68,-976 1236.68,-976 1242.68,-976 1248.68,-982 1248.68,-988 1248.68,-988 1248.68,-1000 1248.68,-1000 1248.68,-1006 1242.68,-1012 1236.68,-1012 1236.68,-1012 1198.68,-1012 1198.68,-1012 1192.68,-1012 1186.68,-1006 1186.68,-1000 1186.68,-1000 1186.68,-988 1186.68,-988 1186.68,-982 1192.68,-976 1198.68,-976"/>
<text text-anchor="middle" x="1217.68" y="-990.3" font-family="Times New Roman,serif" font-size="14.00">1:1 &#45; 0:0</text>
</g>
<!-- n5&#45;&gt;x11 -->
<g id="edge43" class="edge">
<title>n5:e&#45;&gt;x11:w</title>
<path fill="none" stroke="#66a61e" d="M1150.68,-604C1233.97,-604 1111.09,-961.2 1176.67,-991.9"/>
<polygon fill="#66a61e" stroke="#66a61e" points="1176.17,-995.37 1186.68,-994 1177.61,-988.52 1176.17,-995.37"/>
</g>
<!-- x12 -->
<g id="node24" class="node">
<title>x12</title>
<path fill="none" stroke="black" d="M1198.68,-806C1198.68,-806 1236.68,-806 1236.68,-806 1242.68,-806 1248.68,-812 1248.68,-818 1248.68,-818 1248.68,-830 1248.68,-830 1248.68,-836 1242.68,-842 1236.68,-842 1236.68,-842 1198.68,-842 1198.68,-842 1192.68,-842 1186.68,-836 1186.68,-830 1186.68,-830 1186.68,-818 1186.68,-818 1186.68,-812 1192.68,-806 1198.68,-806"/>
<text text-anchor="middle" x="1217.68" y="-820.3" font-family="Times New Roman,serif" font-size="14.00">2:2 &#45; 0:0</text>
</g>
<!-- n5&#45;&gt;x12 -->
<g id="edge44" class="edge">
<title>n5:e&#45;&gt;x12:w</title>
<path fill="none" stroke="#66a61e" d="M1150.68,-604C1246.08,-604 1099.28,-807.97 1176.7,-823.11"/>
<polygon fill="#66a61e" stroke="#66a61e" points="1176.41,-826.6 1186.68,-824 1177.03,-819.63 1176.41,-826.6"/>
</g>
<!-- x22 -->
<g id="node38" class="node">
<title>x22</title>
<path fill="none" stroke="black" d="M1198.68,-236C1198.68,-236 1236.68,-236 1236.68,-236 1242.68,-236 1248.68,-242 1248.68,-248 1248.68,-248 1248.68,-260 1248.68,-260 1248.68,-266 1242.68,-272 1236.68,-272 1236.68,-272 1198.68,-272 1198.68,-272 1192.68,-272 1186.68,-266 1186.68,-260 1186.68,-260 1186.68,-248 1186.68,-248 1186.68,-242 1192.68,-236 1198.68,-236"/>
<text text-anchor="middle" x="1217.68" y="-250.3" font-family="Times New Roman,serif" font-size="14.00">1:1 &#45; 0:0</text>
</g>
<!-- n5&#45;&gt;x22 -->
<g id="edge45" class="edge">
<title>n5:e&#45;&gt;x22:w</title>
<path fill="none" stroke="#66a61e" d="M1150.68,-604C1225.05,-604 1119.77,-287.35 1176.6,-256.42"/>
<polygon fill="#66a61e" stroke="#66a61e" points="1177.77,-259.74 1186.68,-254 1176.14,-252.93 1177.77,-259.74"/>
</g>
<!-- x23 -->
<g id="node39" class="node">
<title>x23</title>
<path fill="none" stroke="black" d="M1198.68,-181C1198.68,-181 1236.68,-181 1236.68,-181 1242.68,-181 1248.68,-187 1248.68,-193 1248.68,-193 1248.68,-205 1248.68,-205 1248.68,-211 1242.68,-217 1236.68,-217 1236.68,-217 1198.68,-217 1198.68,-217 1192.68,-217 1186.68,-211 1186.68,-205 1186.68,-205 1186.68,-193 1186.68,-193 1186.68,-187 1192.68,-181 1198.68,-181"/>
<text text-anchor="middle" x="1217.68" y="-195.3" font-family="Times New Roman,serif" font-size="14.00">2:2 &#45; 0:0</text>
</g>
<!-- n5&#45;&gt;x23 -->
<g id="edge46" class="edge">
<title>n5:e&#45;&gt;x23:w</title>
<path fill="none" stroke="#66a61e" d="M1150.68,-604C1237.33,-604 1107.8,-231.54 1176.71,-200.99"/>
<polygon fill="#66a61e" stroke="#66a61e" points="1177.56,-204.39 1186.68,-199 1176.19,-197.52 1177.56,-204.39"/>
</g>
<!-- n6 -->
<g id="node6" class="node">
<title>n6</title>
<polygon fill="none" stroke="black" points="57.25,-901.54 57.25,-916.46 41.43,-927 19.07,-927 3.25,-916.46 3.25,-901.54 19.07,-891 41.43,-891 57.25,-901.54"/>
<text text-anchor="middle" x="30.25" y="-905.3" font-family="Times New Roman,serif" font-size="14.00">w</text>
</g>
<!-- c14 -->
<g id="node11" class="node">
<title>c14</title>
<polygon fill="none" stroke="black" points="1284.68,-656 1284.68,-748 1510.68,-748 1510.68,-656 1284.68,-656"/>
<text text-anchor="middle" x="1298.68" y="-732.8" font-family="Times New Roman,serif" font-size="14.00">I0</text>
<polyline fill="none" stroke="black" points="1284.68,-725 1312.68,-725 "/>
<text text-anchor="middle" x="1298.68" y="-709.8" font-family="Times New Roman,serif" font-size="14.00">I1</text>
<polyline fill="none" stroke="black" points="1284.68,-702 1312.68,-702 "/>
<text text-anchor="middle" x="1298.68" y="-686.8" font-family="Times New Roman,serif" font-size="14.00">I2</text>
<polyline fill="none" stroke="black" points="1284.68,-679 1312.68,-679 "/>
<text text-anchor="middle" x="1298.68" y="-663.8" font-family="Times New Roman,serif" font-size="14.00">I3</text>
<polyline fill="none" stroke="black" points="1312.68,-656 1312.68,-748 "/>
<text text-anchor="middle" x="1398.18" y="-705.8" font-family="Times New Roman,serif" font-size="14.00">next_state_SB_LUT4_O_2</text>
<text text-anchor="middle" x="1398.18" y="-690.8" font-family="Times New Roman,serif" font-size="14.00">SB_LUT4</text>
<polyline fill="none" stroke="black" points="1483.68,-656 1483.68,-748 "/>
<text text-anchor="middle" x="1497.18" y="-698.3" font-family="Times New Roman,serif" font-size="14.00">O</text>
</g>
<!-- n6&#45;&gt;c14 -->
<g id="edge53" class="edge">
<title>n6:e&#45;&gt;c14:w</title>
<path fill="none" stroke="#a6761d" d="M58.25,-909C153.25,-909 177,-909 272,-909 272,-909 272,-909 1113.07,-909 1174.28,-909 1205.65,-928.53 1248.68,-885 1280.5,-852.81 1242.52,-694.7 1274.86,-670.19"/>
<polygon fill="#a6761d" stroke="#a6761d" points="1276.25,-673.42 1284.68,-667 1274.09,-666.76 1276.25,-673.42"/>
</g>
<!-- c15 -->
<g id="node16" class="node">
<title>c15</title>
<polygon fill="none" stroke="black" points="1284.68,-523 1284.68,-615 1510.68,-615 1510.68,-523 1284.68,-523"/>
<text text-anchor="middle" x="1298.68" y="-599.8" font-family="Times New Roman,serif" font-size="14.00">I0</text>
<polyline fill="none" stroke="black" points="1284.68,-592 1312.68,-592 "/>
<text text-anchor="middle" x="1298.68" y="-576.8" font-family="Times New Roman,serif" font-size="14.00">I1</text>
<polyline fill="none" stroke="black" points="1284.68,-569 1312.68,-569 "/>
<text text-anchor="middle" x="1298.68" y="-553.8" font-family="Times New Roman,serif" font-size="14.00">I2</text>
<polyline fill="none" stroke="black" points="1284.68,-546 1312.68,-546 "/>
<text text-anchor="middle" x="1298.68" y="-530.8" font-family="Times New Roman,serif" font-size="14.00">I3</text>
<polyline fill="none" stroke="black" points="1312.68,-523 1312.68,-615 "/>
<text text-anchor="middle" x="1398.18" y="-572.8" font-family="Times New Roman,serif" font-size="14.00">next_state_SB_LUT4_O_1</text>
<text text-anchor="middle" x="1398.18" y="-557.8" font-family="Times New Roman,serif" font-size="14.00">SB_LUT4</text>
<polyline fill="none" stroke="black" points="1483.68,-523 1483.68,-615 "/>
<text text-anchor="middle" x="1497.18" y="-565.3" font-family="Times New Roman,serif" font-size="14.00">O</text>
</g>
<!-- n6&#45;&gt;c15 -->
<g id="edge54" class="edge">
<title>n6:e&#45;&gt;c15:w</title>
<path fill="none" stroke="#a6761d" d="M58.25,-909C106.49,-909 223.76,-871 272,-871 272,-871 272,-871 1113.07,-871 1173.93,-871 1206.03,-895.41 1248.68,-852 1292.34,-807.56 1226.89,-584.44 1274.78,-559.3"/>
<polygon fill="#a6761d" stroke="#a6761d" points="1275.73,-562.68 1284.68,-557 1274.15,-555.86 1275.73,-562.68"/>
</g>
<!-- c16 -->
<g id="node21" class="node">
<title>c16</title>
<polygon fill="none" stroke="black" points="1291.68,-913 1291.68,-1005 1503.68,-1005 1503.68,-913 1291.68,-913"/>
<text text-anchor="middle" x="1305.68" y="-989.8" font-family="Times New Roman,serif" font-size="14.00">I0</text>
<polyline fill="none" stroke="black" points="1291.68,-982 1319.68,-982 "/>
<text text-anchor="middle" x="1305.68" y="-966.8" font-family="Times New Roman,serif" font-size="14.00">I1</text>
<polyline fill="none" stroke="black" points="1291.68,-959 1319.68,-959 "/>
<text text-anchor="middle" x="1305.68" y="-943.8" font-family="Times New Roman,serif" font-size="14.00">I2</text>
<polyline fill="none" stroke="black" points="1291.68,-936 1319.68,-936 "/>
<text text-anchor="middle" x="1305.68" y="-920.8" font-family="Times New Roman,serif" font-size="14.00">I3</text>
<polyline fill="none" stroke="black" points="1319.68,-913 1319.68,-1005 "/>
<text text-anchor="middle" x="1398.18" y="-962.8" font-family="Times New Roman,serif" font-size="14.00">next_state_SB_LUT4_O</text>
<text text-anchor="middle" x="1398.18" y="-947.8" font-family="Times New Roman,serif" font-size="14.00">SB_LUT4</text>
<polyline fill="none" stroke="black" points="1476.68,-913 1476.68,-1005 "/>
<text text-anchor="middle" x="1490.18" y="-955.3" font-family="Times New Roman,serif" font-size="14.00">O</text>
</g>
<!-- n6&#45;&gt;c16 -->
<g id="edge55" class="edge">
<title>n6:e&#45;&gt;c16:w</title>
<path fill="none" stroke="#a6761d" d="M58.25,-909C76.35,-909 78.93,-918.64 96.5,-923 172.91,-941.97 193.27,-947 272,-947 272,-947 272,-947 1113.07,-947 1188.46,-947 1209.85,-947 1280.39,-947"/>
<polygon fill="#a6761d" stroke="#a6761d" points="1280.68,-950.5 1290.68,-947 1280.68,-943.5 1280.68,-950.5"/>
</g>
<!-- n7 -->
<g id="node7" class="node">
<title>n7</title>
<polygon fill="none" stroke="black" points="2312.88,-33.54 2312.88,-48.46 2297.06,-59 2274.69,-59 2258.88,-48.46 2258.88,-33.54 2274.69,-23 2297.06,-23 2312.88,-33.54"/>
<text text-anchor="middle" x="2285.88" y="-37.3" font-family="Times New Roman,serif" font-size="14.00">z</text>
</g>
<!-- v0 -->
<g id="node8" class="node">
<title>v0</title>
<ellipse fill="none" stroke="black" cx="123.5" cy="-374" rx="27" ry="18"/>
<text text-anchor="middle" x="123.5" y="-370.3" font-family="Times New Roman,serif" font-size="14.00">1&#39;0</text>
</g>
<!-- v0&#45;&gt;c13 -->
<g id="edge57" class="edge">
<title>v0:e&#45;&gt;c13:w</title>
<path fill="none" stroke="#e6ab02" d="M150.5,-374C174.75,-374 163.16,-335.57 176.76,-324.16"/>
<polygon fill="#e6ab02" stroke="#e6ab02" points="178.07,-327.41 186.5,-321 175.91,-320.75 178.07,-327.41"/>
</g>
<!-- v1 -->
<g id="node9" class="node">
<title>v1</title>
<ellipse fill="none" stroke="black" cx="123.5" cy="-320" rx="27" ry="18"/>
<text text-anchor="middle" x="123.5" y="-316.3" font-family="Times New Roman,serif" font-size="14.00">1&#39;0</text>
</g>
<!-- v1&#45;&gt;c13 -->
<g id="edge58" class="edge">
<title>v1:e&#45;&gt;c13:w</title>
<path fill="none" stroke="#7570b3" d="M150.5,-320C165.15,-320 167.44,-306.57 176.68,-300.7"/>
<polygon fill="#7570b3" stroke="#7570b3" points="177.78,-304.02 186.5,-298 175.93,-297.27 177.78,-304.02"/>
</g>
<!-- c13&#45;&gt;n1 -->
<g id="edge21" class="edge">
<title>c13:e&#45;&gt;n1:w</title>
<path fill="none" stroke="#7570b3" d="M359.5,-286C417.31,-286 344.17,-168.23 385.61,-153.5"/>
<polygon fill="#7570b3" stroke="#7570b3" points="386.14,-156.96 395.5,-152 385.09,-150.04 386.14,-156.96"/>
</g>
<!-- x5 -->
<g id="node15" class="node">
<title>x5</title>
<path fill="none" stroke="black" d="M1558.68,-645C1558.68,-645 1596.68,-645 1596.68,-645 1602.68,-645 1608.68,-651 1608.68,-657 1608.68,-657 1608.68,-669 1608.68,-669 1608.68,-675 1602.68,-681 1596.68,-681 1596.68,-681 1558.68,-681 1558.68,-681 1552.68,-681 1546.68,-675 1546.68,-669 1546.68,-669 1546.68,-657 1546.68,-657 1546.68,-651 1552.68,-645 1558.68,-645"/>
<text text-anchor="middle" x="1577.68" y="-659.3" font-family="Times New Roman,serif" font-size="14.00">0:0 &#45; 0:0</text>
</g>
<!-- c14&#45;&gt;x5 -->
<g id="edge4" class="edge">
<title>c14:e&#45;&gt;x5:w</title>
<path fill="none" stroke="#7570b3" d="M1521.9,-697.22C1528.47,-689.73 1528.88,-675.33 1535.43,-667.82"/>
<polygon fill="none" stroke="#7570b3" points="1521.72,-697.29 1517.77,-703.33 1510.68,-702 1514.63,-695.97 1521.72,-697.29"/>
<polygon fill="none" stroke="#7570b3" points="1535.65,-667.73 1539.59,-661.69 1546.68,-663 1542.74,-669.04 1535.65,-667.73"/>
</g>
<!-- x2&#45;&gt;c14 -->
<g id="edge1" class="edge">
<title>x2:e&#45;&gt;c14:w</title>
<path fill="none" stroke="#66a61e" d="M1260.07,-764.28C1265.82,-758.16 1267.63,-747.56 1273.47,-741.53"/>
<polygon fill="none" stroke="#66a61e" points="1259.76,-764.4 1255.75,-770.4 1248.68,-769 1252.69,-763.01 1259.76,-764.4"/>
<polygon fill="none" stroke="#66a61e" points="1273.55,-741.5 1277.62,-735.54 1284.68,-737 1280.62,-742.96 1273.55,-741.5"/>
</g>
<!-- x3&#45;&gt;c14 -->
<g id="edge2" class="edge">
<title>x3:e&#45;&gt;c14:w</title>
<path fill="none" stroke="#1b9e77" d="M1260.89,-714C1264.97,-714 1268.41,-714 1272.49,-714"/>
<polygon fill="none" stroke="#1b9e77" points="1260.68,-714 1254.68,-718 1248.68,-714 1254.68,-710 1260.68,-714"/>
<polygon fill="none" stroke="#1b9e77" points="1272.68,-714 1278.68,-710 1284.68,-714 1278.68,-718 1272.68,-714"/>
</g>
<!-- x4&#45;&gt;c14 -->
<g id="edge3" class="edge">
<title>x4:e&#45;&gt;c14:w</title>
<path fill="none" stroke="#1b9e77" d="M1259.98,-663.57C1265.62,-669.37 1267.61,-679.31 1273.16,-685.2"/>
<polygon fill="none" stroke="#1b9e77" points="1259.8,-663.5 1252.74,-664.96 1248.68,-659 1255.74,-657.54 1259.8,-663.5"/>
<polygon fill="none" stroke="#1b9e77" points="1273.6,-685.39 1280.68,-684 1284.68,-690 1277.6,-691.39 1273.6,-685.39"/>
</g>
<!-- x5&#45;&gt;n3 -->
<g id="edge30" class="edge">
<title>x5:e&#45;&gt;n3:w</title>
<path fill="none" stroke="#e6ab02" d="M1608.68,-663C1624.83,-663 1625.23,-645.22 1634.98,-638"/>
<polygon fill="#e6ab02" stroke="#e6ab02" points="1636.16,-641.3 1644.68,-635 1634.09,-634.61 1636.16,-641.3"/>
</g>
<!-- x9 -->
<g id="node20" class="node">
<title>x9</title>
<path fill="none" stroke="black" d="M1558.68,-570C1558.68,-570 1596.68,-570 1596.68,-570 1602.68,-570 1608.68,-576 1608.68,-582 1608.68,-582 1608.68,-594 1608.68,-594 1608.68,-600 1602.68,-606 1596.68,-606 1596.68,-606 1558.68,-606 1558.68,-606 1552.68,-606 1546.68,-600 1546.68,-594 1546.68,-594 1546.68,-582 1546.68,-582 1546.68,-576 1552.68,-570 1558.68,-570"/>
<text text-anchor="middle" x="1577.68" y="-584.3" font-family="Times New Roman,serif" font-size="14.00">0:0 &#45; 1:1</text>
</g>
<!-- c15&#45;&gt;x9 -->
<g id="edge8" class="edge">
<title>c15:e&#45;&gt;x9:w</title>
<path fill="none" stroke="#d95f02" d="M1522.17,-572.48C1526.96,-575.83 1530.13,-580.86 1534.85,-584.28"/>
<polygon fill="none" stroke="#d95f02" points="1522.16,-572.48 1515.26,-574.57 1510.68,-569 1517.58,-566.91 1522.16,-572.48"/>
<polygon fill="none" stroke="#d95f02" points="1535.23,-584.4 1542.16,-582.38 1546.68,-588 1539.75,-590.01 1535.23,-584.4"/>
</g>
<!-- x6&#45;&gt;c15 -->
<g id="edge5" class="edge">
<title>x6:e&#45;&gt;c15:w</title>
<path fill="none" stroke="#e7298a" d="M1260.89,-604C1264.97,-604 1268.41,-604 1272.49,-604"/>
<polygon fill="none" stroke="#e7298a" points="1260.68,-604 1254.68,-608 1248.68,-604 1254.68,-600 1260.68,-604"/>
<polygon fill="none" stroke="#e7298a" points="1272.68,-604 1278.68,-600 1284.68,-604 1278.68,-608 1272.68,-604"/>
</g>
<!-- x7&#45;&gt;c15 -->
<g id="edge6" class="edge">
<title>x7:e&#45;&gt;c15:w</title>
<path fill="none" stroke="#e7298a" d="M1260.07,-553.72C1265.82,-559.84 1267.63,-570.44 1273.47,-576.47"/>
<polygon fill="none" stroke="#e7298a" points="1259.76,-553.6 1252.69,-554.99 1248.68,-549 1255.75,-547.6 1259.76,-553.6"/>
<polygon fill="none" stroke="#e7298a" points="1273.55,-576.5 1280.62,-575.04 1284.68,-581 1277.62,-582.46 1273.55,-576.5"/>
</g>
<!-- x8&#45;&gt;c15 -->
<g id="edge7" class="edge">
<title>x8:e&#45;&gt;c15:w</title>
<path fill="none" stroke="#7570b3" d="M1259.99,-498.9C1266.56,-506.58 1266.79,-521.35 1273.33,-529.06"/>
<polygon fill="none" stroke="#7570b3" points="1259.69,-498.77 1252.59,-500.06 1248.68,-494 1255.77,-492.72 1259.69,-498.77"/>
<polygon fill="none" stroke="#7570b3" points="1273.68,-529.21 1280.78,-527.94 1284.68,-534 1277.58,-535.27 1273.68,-529.21"/>
</g>
<!-- x9&#45;&gt;n3 -->
<g id="edge31" class="edge">
<title>x9:e&#45;&gt;n3:w</title>
<path fill="none" stroke="#e6ab02" d="M1608.68,-588C1630.88,-588 1622.51,-621.46 1635.16,-631.92"/>
<polygon fill="#e6ab02" stroke="#e6ab02" points="1634.09,-635.25 1644.68,-635 1636.24,-628.59 1634.09,-635.25"/>
</g>
<!-- x13 -->
<g id="node25" class="node">
<title>x13</title>
<path fill="none" stroke="black" d="M1558.68,-821C1558.68,-821 1596.68,-821 1596.68,-821 1602.68,-821 1608.68,-827 1608.68,-833 1608.68,-833 1608.68,-845 1608.68,-845 1608.68,-851 1602.68,-857 1596.68,-857 1596.68,-857 1558.68,-857 1558.68,-857 1552.68,-857 1546.68,-851 1546.68,-845 1546.68,-845 1546.68,-833 1546.68,-833 1546.68,-827 1552.68,-821 1558.68,-821"/>
<text text-anchor="middle" x="1577.68" y="-835.3" font-family="Times New Roman,serif" font-size="14.00">0:0 &#45; 2:2</text>
</g>
<!-- c16&#45;&gt;x13 -->
<g id="edge12" class="edge">
<title>c16:e&#45;&gt;x13:w</title>
<path fill="none" stroke="#e6ab02" d="M1516.58,-956.49C1546.8,-940.88 1504.55,-857.07 1534.8,-841.49"/>
<polygon fill="none" stroke="#e6ab02" points="1516.42,-956.53 1511.37,-961.68 1504.68,-959 1509.73,-953.85 1516.42,-956.53"/>
<polygon fill="none" stroke="#e6ab02" points="1534.93,-841.46 1539.98,-836.32 1546.68,-839 1541.63,-844.15 1534.93,-841.46"/>
</g>
<!-- x10&#45;&gt;c16 -->
<g id="edge9" class="edge">
<title>x10:e&#45;&gt;c16:w</title>
<path fill="none" stroke="#1b9e77" d="M1260.2,-1045.04C1271.61,-1034.9 1267.75,-1008.03 1279.2,-997.92"/>
<polygon fill="none" stroke="#1b9e77" points="1260.03,-1045.1 1255.65,-1050.84 1248.68,-1049 1253.05,-1043.27 1260.03,-1045.1"/>
<polygon fill="none" stroke="#1b9e77" points="1279.32,-997.88 1283.71,-992.15 1290.68,-994 1286.29,-999.72 1279.32,-997.88"/>
</g>
<!-- x11&#45;&gt;c16 -->
<g id="edge10" class="edge">
<title>x11:e&#45;&gt;c16:w</title>
<path fill="none" stroke="#1b9e77" d="M1260.6,-990.8C1267.84,-986.36 1271.71,-978.37 1279.04,-974.02"/>
<polygon fill="none" stroke="#1b9e77" points="1260.27,-990.89 1255.51,-996.31 1248.68,-994 1253.44,-988.58 1260.27,-990.89"/>
<polygon fill="none" stroke="#1b9e77" points="1279.06,-974.02 1283.87,-968.64 1290.68,-971 1285.88,-976.38 1279.06,-974.02"/>
</g>
<!-- x12&#45;&gt;c16 -->
<g id="edge11" class="edge">
<title>x12:e&#45;&gt;c16:w</title>
<path fill="none" stroke="#e6ab02" d="M1260.41,-826.88C1283.89,-841.42 1255.48,-906.54 1278.93,-921.1"/>
<polygon fill="none" stroke="#e6ab02" points="1260.33,-826.87 1253.55,-829.32 1248.68,-824 1255.46,-821.55 1260.33,-826.87"/>
<polygon fill="none" stroke="#e6ab02" points="1279.03,-921.13 1285.81,-918.68 1290.68,-924 1283.89,-926.45 1279.03,-921.13"/>
</g>
<!-- x13&#45;&gt;n3 -->
<g id="edge29" class="edge">
<title>x13:e&#45;&gt;n3:w</title>
<path fill="none" stroke="#e6ab02" d="M1608.68,-839C1696.97,-839 1564.36,-651.39 1634.53,-636"/>
<polygon fill="#e6ab02" stroke="#e6ab02" points="1635.07,-639.47 1644.68,-635 1634.38,-632.5 1635.07,-639.47"/>
</g>
<!-- x15 -->
<g id="node28" class="node">
<title>x15</title>
<path fill="none" stroke="black" d="M987.47,-586C987.47,-586 1025.47,-586 1025.47,-586 1031.47,-586 1037.47,-592 1037.47,-598 1037.47,-598 1037.47,-610 1037.47,-610 1037.47,-616 1031.47,-622 1025.47,-622 1025.47,-622 987.47,-622 987.47,-622 981.47,-622 975.47,-616 975.47,-610 975.47,-610 975.47,-598 975.47,-598 975.47,-592 981.47,-586 987.47,-586"/>
<text text-anchor="middle" x="1006.47" y="-600.3" font-family="Times New Roman,serif" font-size="14.00">0:0 &#45; 0:0</text>
</g>
<!-- c22&#45;&gt;x15 -->
<g id="edge14" class="edge">
<title>c22:e&#45;&gt;x15:w</title>
<path fill="none" stroke="#d95f02" d="M951.69,-604C955.76,-604 959.2,-604 963.28,-604"/>
<polygon fill="none" stroke="#d95f02" points="951.47,-604 945.47,-608 939.47,-604 945.47,-600 951.47,-604"/>
<polygon fill="none" stroke="#d95f02" points="963.47,-604 969.47,-600 975.47,-604 969.47,-608 963.47,-604"/>
</g>
<!-- x14&#45;&gt;c22 -->
<g id="edge13" class="edge">
<title>x14:e&#45;&gt;c22:w</title>
<path fill="none" stroke="#d95f02" d="M1889.68,-830.65C1932.79,-858.49 1662.71,-1096 1578.68,-1096 1111.07,-1096 1111.07,-1096 1111.07,-1096 1048.34,-1096 719.1,-691.52 718.37,-625.16"/>
<polygon fill="none" stroke="#d95f02" points="1889.58,-830.63 1882.85,-833.22 1877.88,-828 1884.61,-825.41 1889.58,-830.63"/>
<polygon fill="none" stroke="#d95f02" points="718.52,-624.99 719.5,-617.85 726.47,-616 725.49,-623.14 718.52,-624.99"/>
</g>
<!-- x15&#45;&gt;n5 -->
<g id="edge39" class="edge">
<title>x15:e&#45;&gt;n5:w</title>
<path fill="none" stroke="#66a61e" d="M1037.47,-604C1049.47,-604 1054.72,-604 1063.34,-604"/>
<polygon fill="#66a61e" stroke="#66a61e" points="1063.47,-607.5 1073.47,-604 1063.47,-600.5 1063.47,-607.5"/>
</g>
<!-- x17 -->
<g id="node31" class="node">
<title>x17</title>
<path fill="none" stroke="black" d="M2172.88,-283C2172.88,-283 2210.88,-283 2210.88,-283 2216.88,-283 2222.88,-289 2222.88,-295 2222.88,-295 2222.88,-307 2222.88,-307 2222.88,-313 2216.88,-319 2210.88,-319 2210.88,-319 2172.88,-319 2172.88,-319 2166.88,-319 2160.88,-313 2160.88,-307 2160.88,-307 2160.88,-295 2160.88,-295 2160.88,-289 2166.88,-283 2172.88,-283"/>
<text text-anchor="middle" x="2191.88" y="-297.3" font-family="Times New Roman,serif" font-size="14.00">0:0 &#45; 1:1</text>
</g>
<!-- c23&#45;&gt;x17 -->
<g id="edge16" class="edge">
<title>c23:e&#45;&gt;x17:w</title>
<path fill="none" stroke="#1b9e77" d="M2136.56,-368.71C2149.07,-355.88 2136.64,-317.86 2149.3,-305.18"/>
<polygon fill="none" stroke="#1b9e77" points="2136.14,-368.87 2131.89,-374.69 2124.88,-373 2129.13,-367.18 2136.14,-368.87"/>
<polygon fill="none" stroke="#1b9e77" points="2149.59,-305.07 2153.87,-299.27 2160.88,-301 2156.59,-306.8 2149.59,-305.07"/>
</g>
<!-- x16&#45;&gt;c23 -->
<g id="edge15" class="edge">
<title>x16:e&#45;&gt;c23:w</title>
<path fill="none" stroke="#d95f02" d="M1888.62,-467.3C1905.25,-453.16 1884.43,-402.54 1901.26,-388.59"/>
<polygon fill="none" stroke="#d95f02" points="1888.32,-467.4 1883.8,-473.01 1876.88,-471 1881.4,-465.38 1888.32,-467.4"/>
<polygon fill="none" stroke="#d95f02" points="1901.41,-388.54 1905.96,-382.95 1912.88,-385 1908.32,-390.59 1901.41,-388.54"/>
</g>
<!-- x17&#45;&gt;n5 -->
<g id="edge40" class="edge">
<title>x17:e&#45;&gt;n5:w</title>
<path fill="none" stroke="#66a61e" d="M2223.88,-301C2232.11,-301 2228.85,-313.84 2222.88,-319.5 2202.87,-338.45 2188.39,-321.07 2160.88,-319.5 2034.04,-312.27 2003.72,-294.23 1876.88,-287 1708.2,-277.38 1673.05,-342.33 1510.68,-389 1439.5,-409.46 1238.83,-414.42 1186.68,-467 1136.87,-517.21 1206.06,-578.01 1150.68,-622 1123.67,-643.45 1098.13,-645.7 1073.07,-622 1070.71,-619.76 1068.78,-616.37 1067.86,-613.14"/>
<polygon fill="#66a61e" stroke="#66a61e" points="1071.06,-614.55 1072.07,-604 1064.7,-611.61 1071.06,-614.55"/>
</g>
<!-- x19 -->
<g id="node34" class="node">
<title>x19</title>
<path fill="none" stroke="black" d="M2172.88,-103C2172.88,-103 2210.88,-103 2210.88,-103 2216.88,-103 2222.88,-109 2222.88,-115 2222.88,-115 2222.88,-127 2222.88,-127 2222.88,-133 2216.88,-139 2210.88,-139 2210.88,-139 2172.88,-139 2172.88,-139 2166.88,-139 2160.88,-133 2160.88,-127 2160.88,-127 2160.88,-115 2160.88,-115 2160.88,-109 2166.88,-103 2172.88,-103"/>
<text text-anchor="middle" x="2191.88" y="-117.3" font-family="Times New Roman,serif" font-size="14.00">0:0 &#45; 2:2</text>
</g>
<!-- c24&#45;&gt;x19 -->
<g id="edge18" class="edge">
<title>c24:e&#45;&gt;x19:w</title>
<path fill="none" stroke="#7570b3" d="M2130.55,-150.21C2138.67,-143.85 2141.11,-131.08 2149.26,-124.74"/>
<polygon fill="none" stroke="#7570b3" points="2130.29,-150.3 2125.82,-155.95 2118.88,-154 2123.35,-148.34 2130.29,-150.3"/>
<polygon fill="none" stroke="#7570b3" points="2149.45,-124.68 2153.94,-119.03 2160.88,-121 2156.39,-126.65 2149.45,-124.68"/>
</g>
<!-- x18&#45;&gt;c24 -->
<g id="edge17" class="edge">
<title>x18:e&#45;&gt;c24:w</title>
<path fill="none" stroke="#1b9e77" d="M1888.71,-312.02C1929.77,-295.76 1866.06,-184.46 1906.92,-168.02"/>
<polygon fill="none" stroke="#1b9e77" points="1888.71,-312.02 1883.45,-316.96 1876.88,-314 1882.13,-309.06 1888.71,-312.02"/>
<polygon fill="none" stroke="#1b9e77" points="1907.04,-168 1912.29,-163.06 1918.88,-166 1913.63,-170.95 1907.04,-168"/>
</g>
<!-- x19&#45;&gt;n5 -->
<g id="edge41" class="edge">
<title>x19:e&#45;&gt;n5:w</title>
<path fill="none" stroke="#66a61e" d="M2223.88,-121C2246.38,-121 2256.54,-183.16 2160.88,-139.5 2138.66,-129.36 2147.09,-108.14 2124.88,-98 2039.16,-58.88 2004.07,-74.32 1912.88,-98 1714.84,-149.43 1699.28,-242.66 1510.68,-322 1414.11,-362.62 1383.22,-353.42 1284.68,-389 1240.11,-405.1 1216.33,-394.04 1186.68,-431 1132.62,-498.38 1217.18,-566.86 1150.68,-622 1124.13,-644.01 1098.13,-645.7 1073.07,-622 1070.71,-619.76 1068.78,-616.37 1067.86,-613.14"/>
<polygon fill="#66a61e" stroke="#66a61e" points="1071.06,-614.55 1072.07,-604 1064.7,-611.61 1071.06,-614.55"/>
</g>
<!-- v20 -->
<g id="node35" class="node">
<title>v20</title>
<ellipse fill="none" stroke="black" cx="1217.68" cy="-363" rx="27" ry="18"/>
<text text-anchor="middle" x="1217.68" y="-359.3" font-family="Times New Roman,serif" font-size="14.00">1&#39;0</text>
</g>
<!-- c25 -->
<g id="node37" class="node">
<title>c25</title>
<polygon fill="none" stroke="black" points="1316.68,-220 1316.68,-312 1478.68,-312 1478.68,-220 1316.68,-220"/>
<text text-anchor="middle" x="1330.68" y="-296.8" font-family="Times New Roman,serif" font-size="14.00">I0</text>
<polyline fill="none" stroke="black" points="1316.68,-289 1344.68,-289 "/>
<text text-anchor="middle" x="1330.68" y="-273.8" font-family="Times New Roman,serif" font-size="14.00">I1</text>
<polyline fill="none" stroke="black" points="1316.68,-266 1344.68,-266 "/>
<text text-anchor="middle" x="1330.68" y="-250.8" font-family="Times New Roman,serif" font-size="14.00">I2</text>
<polyline fill="none" stroke="black" points="1316.68,-243 1344.68,-243 "/>
<text text-anchor="middle" x="1330.68" y="-227.8" font-family="Times New Roman,serif" font-size="14.00">I3</text>
<polyline fill="none" stroke="black" points="1344.68,-220 1344.68,-312 "/>
<text text-anchor="middle" x="1398.18" y="-269.8" font-family="Times New Roman,serif" font-size="14.00">z_SB_LUT4_O</text>
<text text-anchor="middle" x="1398.18" y="-254.8" font-family="Times New Roman,serif" font-size="14.00">SB_LUT4</text>
<polyline fill="none" stroke="black" points="1451.68,-220 1451.68,-312 "/>
<text text-anchor="middle" x="1465.18" y="-262.3" font-family="Times New Roman,serif" font-size="14.00">O</text>
</g>
<!-- v20&#45;&gt;c25 -->
<g id="edge59" class="edge">
<title>v20:e&#45;&gt;c25:w</title>
<path fill="none" stroke="#d95f02" d="M1245.68,-363C1283.5,-363 1276.03,-311.64 1305.72,-302.41"/>
<polygon fill="#d95f02" stroke="#d95f02" points="1306.27,-305.87 1315.68,-301 1305.29,-298.94 1306.27,-305.87"/>
</g>
<!-- v21 -->
<g id="node36" class="node">
<title>v21</title>
<ellipse fill="none" stroke="black" cx="1217.68" cy="-309" rx="27" ry="18"/>
<text text-anchor="middle" x="1217.68" y="-305.3" font-family="Times New Roman,serif" font-size="14.00">1&#39;0</text>
</g>
<!-- v21&#45;&gt;c25 -->
<g id="edge60" class="edge">
<title>v21:e&#45;&gt;c25:w</title>
<path fill="none" stroke="#d95f02" d="M1245.68,-309C1275.98,-309 1280.84,-284.41 1305.58,-279.03"/>
<polygon fill="#d95f02" stroke="#d95f02" points="1306.09,-282.5 1315.68,-278 1305.37,-275.53 1306.09,-282.5"/>
</g>
<!-- c25&#45;&gt;n7 -->
<g id="edge56" class="edge">
<title>c25:e&#45;&gt;n7:w</title>
<path fill="none" stroke="#7570b3" d="M1479.68,-266C1582.76,-266 1556.25,-155.98 1644.68,-103 1724.58,-55.13 1751.73,-41 1844.88,-41 1844.88,-41 1844.88,-41 2019.88,-41 2122.67,-41 2150.86,-41 2248.85,-41"/>
<polygon fill="#7570b3" stroke="#7570b3" points="2248.88,-44.5 2258.88,-41 2248.88,-37.5 2248.88,-44.5"/>
</g>
<!-- x22&#45;&gt;c25 -->
<g id="edge19" class="edge">
<title>x22:e&#45;&gt;c25:w</title>
<path fill="none" stroke="#666666" d="M1260.89,-254C1277.59,-254 1286.77,-254 1303.47,-254"/>
<polygon fill="none" stroke="#666666" points="1260.68,-254 1254.68,-258 1248.68,-254 1254.68,-250 1260.68,-254"/>
<polygon fill="none" stroke="#666666" points="1303.68,-254 1309.68,-250 1315.68,-254 1309.68,-258 1303.68,-254"/>
</g>
<!-- x23&#45;&gt;c25 -->
<g id="edge20" class="edge">
<title>x23:e&#45;&gt;c25:w</title>
<path fill="none" stroke="#a6761d" d="M1260.58,-200.63C1279.03,-206.11 1285.26,-223.81 1303.66,-229.33"/>
<polygon fill="none" stroke="#a6761d" points="1260.57,-200.63 1254.08,-203.78 1248.68,-199 1255.17,-195.85 1260.57,-200.63"/>
<polygon fill="none" stroke="#a6761d" points="1303.79,-229.35 1310.28,-226.21 1315.68,-231 1309.19,-234.14 1303.79,-229.35"/>
</g>
</g>
</svg>
