<svg xmlns="http://www.w3.org/2000/svg" xmlns:xlink="http://www.w3.org/1999/xlink" xmlns:s="https://github.com/nturley/netlistsvg" width="1285" height="1280.5">
  <style>svg {
    stroke:#000;
    fill:none;
  }
  text {
    fill:#000;
    stroke:none;
    font-size:10px;
    font-weight: bold;
    font-family: "Courier New", monospace;
  }
  .nodelabel {
    text-anchor: middle;
  }
  .inputPortLabel {
    text-anchor: end;
  }
  .splitjoinBody {
    fill:#000;
  }</style>
  <g s:type="generic" transform="translate(319,272.5)" s:width="30" s:height="40" id="cell_$auto$opt_reduce.cc:128:opt_mux$30">
    <text x="15" y="-4" class="nodelabel cell_$auto$opt_reduce.cc:128:opt_mux$30" s:attribute="ref">$reduce_or</text>
    <rect width="30" height="20" s:generic="body" class="cell_$auto$opt_reduce.cc:128:opt_mux$30"/>
    <g transform="translate(0,10)" s:x="0" s:y="10" s:pid="in0" id="port_$auto$opt_reduce.cc:128:opt_mux$30~A">
      <text x="-3" y="-4" class="inputPortLabel cell_$auto$opt_reduce.cc:128:opt_mux$30">A</text>
    </g>
    <g transform="translate(30,10)" s:x="30" s:y="10" s:pid="out0" id="port_$auto$opt_reduce.cc:128:opt_mux$30~Y">
      <text x="5" y="-4" style="fill:#000; stroke:none" class="cell_$auto$opt_reduce.cc:128:opt_mux$30">Y</text>
    </g>
  </g>
  <g s:type="generic" transform="translate(319,517.5)" s:width="30" s:height="40" id="cell_$auto$opt_reduce.cc:128:opt_mux$32">
    <text x="15" y="-4" class="nodelabel cell_$auto$opt_reduce.cc:128:opt_mux$32" s:attribute="ref">$reduce_or</text>
    <rect width="30" height="20" s:generic="body" class="cell_$auto$opt_reduce.cc:128:opt_mux$32"/>
    <g transform="translate(0,10)" s:x="0" s:y="10" s:pid="in0" id="port_$auto$opt_reduce.cc:128:opt_mux$32~A">
      <text x="-3" y="-4" class="inputPortLabel cell_$auto$opt_reduce.cc:128:opt_mux$32">A</text>
    </g>
    <g transform="translate(30,10)" s:x="30" s:y="10" s:pid="out0" id="port_$auto$opt_reduce.cc:128:opt_mux$32~Y">
      <text x="5" y="-4" style="fill:#000; stroke:none" class="cell_$auto$opt_reduce.cc:128:opt_mux$32">Y</text>
    </g>
  </g>
  <g s:type="generic" transform="translate(319,647.5)" s:width="30" s:height="40" id="cell_$auto$opt_reduce.cc:128:opt_mux$34">
    <text x="15" y="-4" class="nodelabel cell_$auto$opt_reduce.cc:128:opt_mux$34" s:attribute="ref">$reduce_or</text>
    <rect width="30" height="20" s:generic="body" class="cell_$auto$opt_reduce.cc:128:opt_mux$34"/>
    <g transform="translate(0,10)" s:x="0" s:y="10" s:pid="in0" id="port_$auto$opt_reduce.cc:128:opt_mux$34~A">
      <text x="-3" y="-4" class="inputPortLabel cell_$auto$opt_reduce.cc:128:opt_mux$34">A</text>
    </g>
    <g transform="translate(30,10)" s:x="30" s:y="10" s:pid="out0" id="port_$auto$opt_reduce.cc:128:opt_mux$34~Y">
      <text x="5" y="-4" style="fill:#000; stroke:none" class="cell_$auto$opt_reduce.cc:128:opt_mux$34">Y</text>
    </g>
  </g>
  <g s:type="generic" transform="translate(319,919.5)" s:width="30" s:height="40" id="cell_$auto$opt_reduce.cc:128:opt_mux$36">
    <text x="15" y="-4" class="nodelabel cell_$auto$opt_reduce.cc:128:opt_mux$36" s:attribute="ref">$reduce_or</text>
    <rect width="30" height="20" s:generic="body" class="cell_$auto$opt_reduce.cc:128:opt_mux$36"/>
    <g transform="translate(0,10)" s:x="0" s:y="10" s:pid="in0" id="port_$auto$opt_reduce.cc:128:opt_mux$36~A">
      <text x="-3" y="-4" class="inputPortLabel cell_$auto$opt_reduce.cc:128:opt_mux$36">A</text>
    </g>
    <g transform="translate(30,10)" s:x="30" s:y="10" s:pid="out0" id="port_$auto$opt_reduce.cc:128:opt_mux$36~Y">
      <text x="5" y="-4" style="fill:#000; stroke:none" class="cell_$auto$opt_reduce.cc:128:opt_mux$36">Y</text>
    </g>
  </g>
  <g s:type="dff" transform="translate(819,198)" s:width="30" s:height="40" id="cell_$procdff$29">
    <s:alias val="$dff"/>
    <s:alias val="$_DFF_"/>
    <s:alias val="$_DFF_P_"/>
    <rect width="30" height="40" x="0" y="0" class="cell_$procdff$29"/>
    <path d="M0,35 L5,30 L0,25" class="cell_$procdff$29"/>
    <g s:x="30" s:y="10" s:pid="Q"/>
    <g s:x="0" s:y="30" s:pid="CLK"/>
    <g s:x="0" s:y="30" s:pid="C"/>
    <g s:x="0" s:y="10" s:pid="D"/>
  </g>
  <g s:type="mux" transform="translate(705.6666666666666,178)" s:width="20" s:height="40" id="cell_$procmux$10">
    <s:alias val="$pmux"/>
    <s:alias val="$mux"/>
    <s:alias val="$_MUX_"/>
    <path d="M0,0 L20,10 L20,30 L0,40 Z" class="cell_$procmux$10"/>
    <g s:x="0" s:y="10" s:pid="A"/>
    <g s:x="0" s:y="30" s:pid="B"/>
    <g s:x="10" s:y="35" s:pid="S"/>
    <g s:x="20" s:y="20" s:pid="Y"/>
  </g>
  <g s:type="mux" transform="translate(764,188)" s:width="20" s:height="40" id="cell_$procmux$13">
    <s:alias val="$pmux"/>
    <s:alias val="$mux"/>
    <s:alias val="$_MUX_"/>
    <path d="M0,0 L20,10 L20,30 L0,40 Z" class="cell_$procmux$13"/>
    <g s:x="0" s:y="10" s:pid="A"/>
    <g s:x="0" s:y="30" s:pid="B"/>
    <g s:x="10" s:y="35" s:pid="S"/>
    <g s:x="20" s:y="20" s:pid="Y"/>
  </g>
  <g s:type="mux" transform="translate(637.3333333333334,188)" s:width="20" s:height="40" id="cell_$procmux$16">
    <s:alias val="$pmux"/>
    <s:alias val="$mux"/>
    <s:alias val="$_MUX_"/>
    <path d="M0,0 L20,10 L20,30 L0,40 Z" class="cell_$procmux$16"/>
    <g s:x="0" s:y="10" s:pid="A"/>
    <g s:x="0" s:y="30" s:pid="B"/>
    <g s:x="10" s:y="35" s:pid="S"/>
    <g s:x="20" s:y="20" s:pid="Y"/>
  </g>
  <g s:type="eq" transform="translate(187,260.5)" s:width="25" s:height="25" id="cell_$procmux$17_CMP0">
    <s:alias val="$eq"/>
    <circle r="12.5" cx="12.5" cy="12.5" class="cell_$procmux$17_CMP0"/>
    <line x1="7.5" x2="17.5" y1="10" y2="10" class="cell_$procmux$17_CMP0"/>
    <line x1="7.5" x2="17.5" y1="15" y2="15" class="cell_$procmux$17_CMP0"/>
    <g s:x="3" s:y="5" s:pid="A"/>
    <g s:x="3" s:y="20" s:pid="B"/>
    <g s:x="25" s:y="12.5" s:pid="Y"/>
  </g>
  <g s:type="eq" transform="translate(187,505.5)" s:width="25" s:height="25" id="cell_$procmux$18_CMP0">
    <s:alias val="$eq"/>
    <circle r="12.5" cx="12.5" cy="12.5" class="cell_$procmux$18_CMP0"/>
    <line x1="7.5" x2="17.5" y1="10" y2="10" class="cell_$procmux$18_CMP0"/>
    <line x1="7.5" x2="17.5" y1="15" y2="15" class="cell_$procmux$18_CMP0"/>
    <g s:x="3" s:y="5" s:pid="A"/>
    <g s:x="3" s:y="20" s:pid="B"/>
    <g s:x="25" s:y="12.5" s:pid="Y"/>
  </g>
  <g s:type="eq" transform="translate(187,325.5)" s:width="25" s:height="25" id="cell_$procmux$19_CMP0">
    <s:alias val="$eq"/>
    <circle r="12.5" cx="12.5" cy="12.5" class="cell_$procmux$19_CMP0"/>
    <line x1="7.5" x2="17.5" y1="10" y2="10" class="cell_$procmux$19_CMP0"/>
    <line x1="7.5" x2="17.5" y1="15" y2="15" class="cell_$procmux$19_CMP0"/>
    <g s:x="3" s:y="5" s:pid="A"/>
    <g s:x="3" s:y="20" s:pid="B"/>
    <g s:x="25" s:y="12.5" s:pid="Y"/>
  </g>
  <g s:type="eq" transform="translate(187,635.5)" s:width="25" s:height="25" id="cell_$procmux$20_CMP0">
    <s:alias val="$eq"/>
    <circle r="12.5" cx="12.5" cy="12.5" class="cell_$procmux$20_CMP0"/>
    <line x1="7.5" x2="17.5" y1="10" y2="10" class="cell_$procmux$20_CMP0"/>
    <line x1="7.5" x2="17.5" y1="15" y2="15" class="cell_$procmux$20_CMP0"/>
    <g s:x="3" s:y="5" s:pid="A"/>
    <g s:x="3" s:y="20" s:pid="B"/>
    <g s:x="25" s:y="12.5" s:pid="Y"/>
  </g>
  <g s:type="eq" transform="translate(187,907.5)" s:width="25" s:height="25" id="cell_$procmux$21_CMP0">
    <s:alias val="$eq"/>
    <circle r="12.5" cx="12.5" cy="12.5" class="cell_$procmux$21_CMP0"/>
    <line x1="7.5" x2="17.5" y1="10" y2="10" class="cell_$procmux$21_CMP0"/>
    <line x1="7.5" x2="17.5" y1="15" y2="15" class="cell_$procmux$21_CMP0"/>
    <g s:x="3" s:y="5" s:pid="A"/>
    <g s:x="3" s:y="20" s:pid="B"/>
    <g s:x="25" s:y="12.5" s:pid="Y"/>
  </g>
  <g s:type="eq" transform="translate(376.3333333333333,1002.5)" s:width="25" s:height="25" id="cell_$procmux$22_CMP0">
    <s:alias val="$eq"/>
    <circle r="12.5" cx="12.5" cy="12.5" class="cell_$procmux$22_CMP0"/>
    <line x1="7.5" x2="17.5" y1="10" y2="10" class="cell_$procmux$22_CMP0"/>
    <line x1="7.5" x2="17.5" y1="15" y2="15" class="cell_$procmux$22_CMP0"/>
    <g s:x="3" s:y="5" s:pid="A"/>
    <g s:x="3" s:y="20" s:pid="B"/>
    <g s:x="25" s:y="12.5" s:pid="Y"/>
  </g>
  <g s:type="eq" transform="translate(187,385.5)" s:width="25" s:height="25" id="cell_$procmux$23_CMP0">
    <s:alias val="$eq"/>
    <circle r="12.5" cx="12.5" cy="12.5" class="cell_$procmux$23_CMP0"/>
    <line x1="7.5" x2="17.5" y1="10" y2="10" class="cell_$procmux$23_CMP0"/>
    <line x1="7.5" x2="17.5" y1="15" y2="15" class="cell_$procmux$23_CMP0"/>
    <g s:x="3" s:y="5" s:pid="A"/>
    <g s:x="3" s:y="20" s:pid="B"/>
    <g s:x="25" s:y="12.5" s:pid="Y"/>
  </g>
  <g s:type="eq" transform="translate(187,695.5)" s:width="25" s:height="25" id="cell_$procmux$24_CMP0">
    <s:alias val="$eq"/>
    <circle r="12.5" cx="12.5" cy="12.5" class="cell_$procmux$24_CMP0"/>
    <line x1="7.5" x2="17.5" y1="10" y2="10" class="cell_$procmux$24_CMP0"/>
    <line x1="7.5" x2="17.5" y1="15" y2="15" class="cell_$procmux$24_CMP0"/>
    <g s:x="3" s:y="5" s:pid="A"/>
    <g s:x="3" s:y="20" s:pid="B"/>
    <g s:x="25" s:y="12.5" s:pid="Y"/>
  </g>
  <g s:type="eq" transform="translate(187,445.5)" s:width="25" s:height="25" id="cell_$procmux$25_CMP0">
    <s:alias val="$eq"/>
    <circle r="12.5" cx="12.5" cy="12.5" class="cell_$procmux$25_CMP0"/>
    <line x1="7.5" x2="17.5" y1="10" y2="10" class="cell_$procmux$25_CMP0"/>
    <line x1="7.5" x2="17.5" y1="15" y2="15" class="cell_$procmux$25_CMP0"/>
    <g s:x="3" s:y="5" s:pid="A"/>
    <g s:x="3" s:y="20" s:pid="B"/>
    <g s:x="25" s:y="12.5" s:pid="Y"/>
  </g>
  <g s:type="eq" transform="translate(187,565.5)" s:width="25" s:height="25" id="cell_$procmux$26_CMP0">
    <s:alias val="$eq"/>
    <circle r="12.5" cx="12.5" cy="12.5" class="cell_$procmux$26_CMP0"/>
    <line x1="7.5" x2="17.5" y1="10" y2="10" class="cell_$procmux$26_CMP0"/>
    <line x1="7.5" x2="17.5" y1="15" y2="15" class="cell_$procmux$26_CMP0"/>
    <g s:x="3" s:y="5" s:pid="A"/>
    <g s:x="3" s:y="20" s:pid="B"/>
    <g s:x="25" s:y="12.5" s:pid="Y"/>
  </g>
  <g s:type="eq" transform="translate(187,972.5)" s:width="25" s:height="25" id="cell_$procmux$27_CMP0">
    <s:alias val="$eq"/>
    <circle r="12.5" cx="12.5" cy="12.5" class="cell_$procmux$27_CMP0"/>
    <line x1="7.5" x2="17.5" y1="10" y2="10" class="cell_$procmux$27_CMP0"/>
    <line x1="7.5" x2="17.5" y1="15" y2="15" class="cell_$procmux$27_CMP0"/>
    <g s:x="3" s:y="5" s:pid="A"/>
    <g s:x="3" s:y="20" s:pid="B"/>
    <g s:x="25" s:y="12.5" s:pid="Y"/>
  </g>
  <g s:type="not" transform="translate(402.5,1062.5)" s:width="30" s:height="20" id="cell_$procmux$28_CMP0">
    <s:alias val="$_NOT_"/>
    <s:alias val="$not"/>
    <s:alias val="$logic_not"/>
    <path d="M0,0 L0,20 L20,10 Z" class="cell_$procmux$28_CMP0"/>
    <circle cx="23" cy="10" r="3" class="cell_$procmux$28_CMP0"/>
    <g s:x="0" s:y="10" s:pid="A"/>
    <g s:x="25" s:y="10" s:pid="Y"/>
  </g>
  <g s:type="mux" transform="translate(1188,12)" s:width="20" s:height="40" id="cell_$procmux$7">
    <s:alias val="$pmux"/>
    <s:alias val="$mux"/>
    <s:alias val="$_MUX_"/>
    <path d="M0,0 L20,10 L20,30 L0,40 Z" class="cell_$procmux$7"/>
    <g s:x="0" s:y="10" s:pid="A"/>
    <g s:x="0" s:y="30" s:pid="B"/>
    <g s:x="10" s:y="35" s:pid="S"/>
    <g s:x="20" s:y="20" s:pid="Y"/>
  </g>
  <g s:type="generic" transform="translate(1004,89)" s:width="30" s:height="40" id="cell_$procmux$8_ANY">
    <text x="15" y="-4" class="nodelabel cell_$procmux$8_ANY" s:attribute="ref">$reduce_or</text>
    <rect width="30" height="20" s:generic="body" class="cell_$procmux$8_ANY"/>
    <g transform="translate(0,10)" s:x="0" s:y="10" s:pid="in0" id="port_$procmux$8_ANY~A">
      <text x="-3" y="-4" class="inputPortLabel cell_$procmux$8_ANY">A</text>
    </g>
    <g transform="translate(30,10)" s:x="30" s:y="10" s:pid="out0" id="port_$procmux$8_ANY~Y">
      <text x="5" y="-4" style="fill:#000; stroke:none" class="cell_$procmux$8_ANY">Y</text>
    </g>
  </g>
  <g s:type="eq" transform="translate(885.6666666666666,77)" s:width="25" s:height="25" id="cell_$procmux$8_CMP0">
    <s:alias val="$eq"/>
    <circle r="12.5" cx="12.5" cy="12.5" class="cell_$procmux$8_CMP0"/>
    <line x1="7.5" x2="17.5" y1="10" y2="10" class="cell_$procmux$8_CMP0"/>
    <line x1="7.5" x2="17.5" y1="15" y2="15" class="cell_$procmux$8_CMP0"/>
    <g s:x="3" s:y="5" s:pid="A"/>
    <g s:x="3" s:y="20" s:pid="B"/>
    <g s:x="25" s:y="12.5" s:pid="Y"/>
  </g>
  <g s:type="eq" transform="translate(885.6666666666666,137)" s:width="25" s:height="25" id="cell_$procmux$8_CMP1">
    <s:alias val="$eq"/>
    <circle r="12.5" cx="12.5" cy="12.5" class="cell_$procmux$8_CMP1"/>
    <line x1="7.5" x2="17.5" y1="10" y2="10" class="cell_$procmux$8_CMP1"/>
    <line x1="7.5" x2="17.5" y1="15" y2="15" class="cell_$procmux$8_CMP1"/>
    <g s:x="3" s:y="5" s:pid="A"/>
    <g s:x="3" s:y="20" s:pid="B"/>
    <g s:x="25" s:y="12.5" s:pid="Y"/>
  </g>
  <g s:type="generic" transform="translate(1004,207.5)" s:width="30" s:height="40" id="cell_$procmux$9_ANY">
    <text x="15" y="-4" class="nodelabel cell_$procmux$9_ANY" s:attribute="ref">$reduce_or</text>
    <rect width="30" height="20" s:generic="body" class="cell_$procmux$9_ANY"/>
    <g transform="translate(0,10)" s:x="0" s:y="10" s:pid="in0" id="port_$procmux$9_ANY~A">
      <text x="-3" y="-4" class="inputPortLabel cell_$procmux$9_ANY">A</text>
    </g>
    <g transform="translate(30,10)" s:x="30" s:y="10" s:pid="out0" id="port_$procmux$9_ANY~Y">
      <text x="5" y="-4" style="fill:#000; stroke:none" class="cell_$procmux$9_ANY">Y</text>
    </g>
  </g>
  <g s:type="not" transform="translate(884,198)" s:width="30" s:height="20" id="cell_$procmux$9_CMP0">
    <s:alias val="$_NOT_"/>
    <s:alias val="$not"/>
    <s:alias val="$logic_not"/>
    <path d="M0,0 L0,20 L20,10 Z" class="cell_$procmux$9_CMP0"/>
    <circle cx="23" cy="10" r="3" class="cell_$procmux$9_CMP0"/>
    <g s:x="0" s:y="10" s:pid="A"/>
    <g s:x="25" s:y="10" s:pid="Y"/>
  </g>
  <g s:type="eq" transform="translate(885.6666666666666,1123.5)" s:width="25" s:height="25" id="cell_$procmux$9_CMP1">
    <s:alias val="$eq"/>
    <circle r="12.5" cx="12.5" cy="12.5" class="cell_$procmux$9_CMP1"/>
    <line x1="7.5" x2="17.5" y1="10" y2="10" class="cell_$procmux$9_CMP1"/>
    <line x1="7.5" x2="17.5" y1="15" y2="15" class="cell_$procmux$9_CMP1"/>
    <g s:x="3" s:y="5" s:pid="A"/>
    <g s:x="3" s:y="20" s:pid="B"/>
    <g s:x="25" s:y="12.5" s:pid="Y"/>
  </g>
  <g s:type="eq" transform="translate(885.6666666666666,1183.5)" s:width="25" s:height="25" id="cell_$procmux$9_CMP2">
    <s:alias val="$eq"/>
    <circle r="12.5" cx="12.5" cy="12.5" class="cell_$procmux$9_CMP2"/>
    <line x1="7.5" x2="17.5" y1="10" y2="10" class="cell_$procmux$9_CMP2"/>
    <line x1="7.5" x2="17.5" y1="15" y2="15" class="cell_$procmux$9_CMP2"/>
    <g s:x="3" s:y="5" s:pid="A"/>
    <g s:x="3" s:y="20" s:pid="B"/>
    <g s:x="25" s:y="12.5" s:pid="Y"/>
  </g>
  <g s:type="eq" transform="translate(885.6666666666666,1243.5)" s:width="25" s:height="25" id="cell_$procmux$9_CMP3">
    <s:alias val="$eq"/>
    <circle r="12.5" cx="12.5" cy="12.5" class="cell_$procmux$9_CMP3"/>
    <line x1="7.5" x2="17.5" y1="10" y2="10" class="cell_$procmux$9_CMP3"/>
    <line x1="7.5" x2="17.5" y1="15" y2="15" class="cell_$procmux$9_CMP3"/>
    <g s:x="3" s:y="5" s:pid="A"/>
    <g s:x="3" s:y="20" s:pid="B"/>
    <g s:x="25" s:y="12.5" s:pid="Y"/>
  </g>
  <g s:type="inputExt" transform="translate(634,538)" s:width="30" s:height="20" id="cell_clk">
    <text x="15" y="-4" class="nodelabel cell_clk" s:attribute="ref">clk</text>
    <s:alias val="$_inputExt_"/>
    <path d="M0,0 L0,20 L15,20 L30,10 L15,0 Z" class="cell_clk"/>
    <g s:x="28" s:y="10" s:pid="Y"/>
  </g>
  <g s:type="inputExt" transform="translate(699,619)" s:width="30" s:height="20" id="cell_reset">
    <text x="15" y="-4" class="nodelabel cell_reset" s:attribute="ref">reset</text>
    <s:alias val="$_inputExt_"/>
    <path d="M0,0 L0,20 L15,20 L30,10 L15,0 Z" class="cell_reset"/>
    <g s:x="28" s:y="10" s:pid="Y"/>
  </g>
  <g s:type="inputExt" transform="translate(12,788)" s:width="30" s:height="20" id="cell_w">
    <text x="15" y="-4" class="nodelabel cell_w" s:attribute="ref">w</text>
    <s:alias val="$_inputExt_"/>
    <path d="M0,0 L0,20 L15,20 L30,10 L15,0 Z" class="cell_w"/>
    <g s:x="28" s:y="10" s:pid="Y"/>
  </g>
  <g s:type="outputExt" transform="translate(1243,22)" s:width="30" s:height="20" id="cell_z">
    <text x="15" y="-4" class="nodelabel cell_z" s:attribute="ref">z</text>
    <s:alias val="$_outputExt_"/>
    <path d="M30,0 L30,20 L15,20 L0,10 L15,0 Z" class="cell_z"/>
    <g s:x="0" s:y="10" s:pid="A"/>
  </g>
  <g s:type="constant" transform="translate(699,568)" s:width="30" s:height="20" id="cell_000">
    <text x="15" y="-4" class="nodelabel cell_000" s:attribute="ref">000</text>
    <s:alias val="$_constant_"/>
    <rect width="30" height="20" class="cell_000"/>
    <g s:x="30" s:y="10" s:pid="Y"/>
  </g>
  <g s:type="constant" transform="translate(563,188)" s:width="30" s:height="20" id="cell_111">
    <text x="15" y="-4" class="nodelabel cell_111" s:attribute="ref">111</text>
    <s:alias val="$_constant_"/>
    <rect width="30" height="20" class="cell_111"/>
    <g s:x="30" s:y="10" s:pid="Y"/>
  </g>
  <g s:type="constant" transform="translate(563,253)" s:width="30" s:height="20" id="cell_001101000100010011">
    <text x="15" y="-4" class="nodelabel cell_001101000100010011" s:attribute="ref">0xd113</text>
    <s:alias val="$_constant_"/>
    <rect width="30" height="20" class="cell_001101000100010011"/>
    <g s:x="30" s:y="10" s:pid="Y"/>
  </g>
  <g s:type="constant" transform="translate(77,270.5)" s:width="30" s:height="20" id="cell_1101">
    <text x="15" y="-4" class="nodelabel cell_1101" s:attribute="ref">0xd</text>
    <s:alias val="$_constant_"/>
    <rect width="30" height="20" class="cell_1101"/>
    <g s:x="30" s:y="10" s:pid="Y"/>
  </g>
  <g s:type="constant" transform="translate(77,515.5)" s:width="30" s:height="20" id="cell_101">
    <text x="15" y="-4" class="nodelabel cell_101" s:attribute="ref">101</text>
    <s:alias val="$_constant_"/>
    <rect width="30" height="20" class="cell_101"/>
    <g s:x="30" s:y="10" s:pid="Y"/>
  </g>
  <g s:type="constant" transform="translate(77,335.5)" s:width="30" s:height="20" id="cell_1100">
    <text x="15" y="-4" class="nodelabel cell_1100" s:attribute="ref">0xc</text>
    <s:alias val="$_constant_"/>
    <rect width="30" height="20" class="cell_1100"/>
    <g s:x="30" s:y="10" s:pid="Y"/>
  </g>
  <g s:type="constant" transform="translate(77,645.5)" s:width="30" s:height="20" id="cell_100">
    <text x="15" y="-4" class="nodelabel cell_100" s:attribute="ref">100</text>
    <s:alias val="$_constant_"/>
    <rect width="30" height="20" class="cell_100"/>
    <g s:x="30" s:y="10" s:pid="Y"/>
  </g>
  <g s:type="constant" transform="translate(77,917.5)" s:width="30" s:height="20" id="cell_1011">
    <text x="15" y="-4" class="nodelabel cell_1011" s:attribute="ref">0xb</text>
    <s:alias val="$_constant_"/>
    <rect width="30" height="20" class="cell_1011"/>
    <g s:x="30" s:y="10" s:pid="Y"/>
  </g>
  <g s:type="constant" transform="translate(247,1113.5)" s:width="30" s:height="20" id="cell_11">
    <text x="15" y="-4" class="nodelabel cell_11" s:attribute="ref">11</text>
    <s:alias val="$_constant_"/>
    <rect width="30" height="20" class="cell_11"/>
    <g s:x="30" s:y="10" s:pid="Y"/>
  </g>
  <g s:type="constant" transform="translate(77,580.5)" s:width="30" s:height="20" id="cell_1010">
    <text x="15" y="-4" class="nodelabel cell_1010" s:attribute="ref">0xa</text>
    <s:alias val="$_constant_"/>
    <rect width="30" height="20" class="cell_1010"/>
    <g s:x="30" s:y="10" s:pid="Y"/>
  </g>
  <g s:type="constant" transform="translate(77,1047.5)" s:width="30" s:height="20" id="cell_10">
    <text x="15" y="-4" class="nodelabel cell_10" s:attribute="ref">10</text>
    <s:alias val="$_constant_"/>
    <rect width="30" height="20" class="cell_10"/>
    <g s:x="30" s:y="10" s:pid="Y"/>
  </g>
  <g s:type="constant" transform="translate(77,710.5)" s:width="30" s:height="20" id="cell_1001">
    <text x="15" y="-4" class="nodelabel cell_1001" s:attribute="ref">0x9</text>
    <s:alias val="$_constant_"/>
    <rect width="30" height="20" class="cell_1001"/>
    <g s:x="30" s:y="10" s:pid="Y"/>
  </g>
  <g s:type="constant" transform="translate(77,852.5)" s:width="30" s:height="20" id="cell_1">
    <text x="15" y="-4" class="nodelabel cell_1" s:attribute="ref">1</text>
    <s:alias val="$_constant_"/>
    <rect width="30" height="20" class="cell_1"/>
    <g s:x="30" s:y="10" s:pid="Y"/>
  </g>
  <g s:type="constant" transform="translate(77,982.5)" s:width="30" s:height="20" id="cell_1000">
    <text x="15" y="-4" class="nodelabel cell_1000" s:attribute="ref">0x8</text>
    <s:alias val="$_constant_"/>
    <rect width="30" height="20" class="cell_1000"/>
    <g s:x="30" s:y="10" s:pid="Y"/>
  </g>
  <g s:type="constant" transform="translate(1123,32)" s:width="30" s:height="20" id="cell_01">
    <text x="15" y="-4" class="nodelabel cell_01" s:attribute="ref">01</text>
    <s:alias val="$_constant_"/>
    <rect width="30" height="20" class="cell_01"/>
    <g s:x="30" s:y="10" s:pid="Y"/>
  </g>
  <g s:type="join" transform="translate(257,262.5)" s:width="4" s:height="40" id="cell_$join$,6,7,8,9,">
    <rect width="5" height="80" class="splitjoinBody" s:generic="body"/>
    <s:alias val="$_join_"/>
    <g s:x="5" s:y="20" s:pid="out"/>
    <g transform="translate(0,10)" s:x="0" s:y="10" s:pid="in0">
      <text x="-3" y="-4" class="inputPortLabel">0</text>
    </g>
    <g transform="translate(0,30)" s:x="0" s:y="10" s:pid="in0">
      <text x="-3" y="-4" class="inputPortLabel">1</text>
    </g>
    <g transform="translate(0,50)" s:x="0" s:y="10" s:pid="in0">
      <text x="-3" y="-4" class="inputPortLabel">2</text>
    </g>
    <g transform="translate(0,70)" s:x="0" s:y="10" s:pid="in0">
      <text x="-3" y="-4" class="inputPortLabel">3</text>
    </g>
  </g>
  <g s:type="join" transform="translate(258,507.5)" s:width="4" s:height="40" id="cell_$join$,11,12,">
    <rect width="5" height="40" class="splitjoinBody" s:generic="body"/>
    <s:alias val="$_join_"/>
    <g s:x="5" s:y="20" s:pid="out"/>
    <g transform="translate(0,10)" s:x="0" s:y="10" s:pid="in0">
      <text x="-3" y="-4" class="inputPortLabel">0</text>
    </g>
    <g transform="translate(0,30)" s:x="0" s:y="10" s:pid="in0">
      <text x="-3" y="-4" class="inputPortLabel">1</text>
    </g>
  </g>
  <g s:type="join" transform="translate(258,637.5)" s:width="4" s:height="40" id="cell_$join$,14,15,">
    <rect width="5" height="40" class="splitjoinBody" s:generic="body"/>
    <s:alias val="$_join_"/>
    <g s:x="5" s:y="20" s:pid="out"/>
    <g transform="translate(0,10)" s:x="0" s:y="10" s:pid="in0">
      <text x="-3" y="-4" class="inputPortLabel">0</text>
    </g>
    <g transform="translate(0,30)" s:x="0" s:y="10" s:pid="in0">
      <text x="-3" y="-4" class="inputPortLabel">1</text>
    </g>
  </g>
  <g s:type="join" transform="translate(258,909.5)" s:width="4" s:height="40" id="cell_$join$,17,18,">
    <rect width="5" height="40" class="splitjoinBody" s:generic="body"/>
    <s:alias val="$_join_"/>
    <g s:x="5" s:y="20" s:pid="out"/>
    <g transform="translate(0,10)" s:x="0" s:y="10" s:pid="in0">
      <text x="-3" y="-4" class="inputPortLabel">0</text>
    </g>
    <g transform="translate(0,30)" s:x="0" s:y="10" s:pid="in0">
      <text x="-3" y="-4" class="inputPortLabel">1</text>
    </g>
  </g>
  <g s:type="join" transform="translate(569.4,497.5)" s:width="4" s:height="40" id="cell_$join$,10,13,16,19,32,33,">
    <rect width="5" height="120" class="splitjoinBody" s:generic="body"/>
    <s:alias val="$_join_"/>
    <g s:x="5" s:y="20" s:pid="out"/>
    <g transform="translate(0,10)" s:x="0" s:y="10" s:pid="in0">
      <text x="-3" y="-4" class="inputPortLabel">0</text>
    </g>
    <g transform="translate(0,30)" s:x="0" s:y="10" s:pid="in0">
      <text x="-3" y="-4" class="inputPortLabel">1</text>
    </g>
    <g transform="translate(0,50)" s:x="0" s:y="10" s:pid="in0">
      <text x="-3" y="-4" class="inputPortLabel">2</text>
    </g>
    <g transform="translate(0,70)" s:x="0" s:y="10" s:pid="in0">
      <text x="-3" y="-4" class="inputPortLabel">3</text>
    </g>
    <g transform="translate(0,90)" s:x="0" s:y="10" s:pid="in0">
      <text x="-3" y="-4" class="inputPortLabel">4</text>
    </g>
    <g transform="translate(0,110)" s:x="0" s:y="10" s:pid="in0">
      <text x="-3" y="-4" class="inputPortLabel">5</text>
    </g>
  </g>
  <g s:type="join" transform="translate(96,767.5)" s:width="4" s:height="40" id="cell_$join$,23,24,25,4,">
    <rect width="5" height="40" class="splitjoinBody" s:generic="body"/>
    <s:alias val="$_join_"/>
    <g s:x="5" s:y="20" s:pid="out"/>
    <g transform="translate(0,10)" s:x="0" s:y="10" s:pid="in0">
      <text x="-3" y="-4" class="inputPortLabel">0:2</text>
    </g>
    <g transform="translate(0,30)" s:x="0" s:y="10" s:pid="in0">
      <text x="-3" y="-4" class="inputPortLabel">3</text>
    </g>
  </g>
  <g s:type="join" transform="translate(1134,89)" s:width="4" s:height="40" id="cell_$join$,34,35,">
    <rect width="5" height="40" class="splitjoinBody" s:generic="body"/>
    <s:alias val="$_join_"/>
    <g s:x="5" s:y="20" s:pid="out"/>
    <g transform="translate(0,10)" s:x="0" s:y="10" s:pid="in0">
      <text x="-3" y="-4" class="inputPortLabel">0</text>
    </g>
    <g transform="translate(0,30)" s:x="0" s:y="10" s:pid="in0">
      <text x="-3" y="-4" class="inputPortLabel">1</text>
    </g>
  </g>
  <g s:type="join" transform="translate(956,79)" s:width="4" s:height="40" id="cell_$join$,36,37,">
    <rect width="5" height="40" class="splitjoinBody" s:generic="body"/>
    <s:alias val="$_join_"/>
    <g s:x="5" s:y="20" s:pid="out"/>
    <g transform="translate(0,10)" s:x="0" s:y="10" s:pid="in0">
      <text x="-3" y="-4" class="inputPortLabel">0</text>
    </g>
    <g transform="translate(0,30)" s:x="0" s:y="10" s:pid="in0">
      <text x="-3" y="-4" class="inputPortLabel">1</text>
    </g>
  </g>
  <g s:type="join" transform="translate(956,197.5)" s:width="4" s:height="40" id="cell_$join$,38,39,40,41,">
    <rect width="5" height="80" class="splitjoinBody" s:generic="body"/>
    <s:alias val="$_join_"/>
    <g s:x="5" s:y="20" s:pid="out"/>
    <g transform="translate(0,10)" s:x="0" s:y="10" s:pid="in0">
      <text x="-3" y="-4" class="inputPortLabel">0</text>
    </g>
    <g transform="translate(0,30)" s:x="0" s:y="10" s:pid="in0">
      <text x="-3" y="-4" class="inputPortLabel">1</text>
    </g>
    <g transform="translate(0,50)" s:x="0" s:y="10" s:pid="in0">
      <text x="-3" y="-4" class="inputPortLabel">2</text>
    </g>
    <g transform="translate(0,70)" s:x="0" s:y="10" s:pid="in0">
      <text x="-3" y="-4" class="inputPortLabel">3</text>
    </g>
  </g>
  <line x1="263" x2="319" y1="283" y2="283" class="net_6,7,8,9"/>
  <line x1="264" x2="319" y1="528" y2="528" class="net_11,12"/>
  <line x1="264" x2="319" y1="658" y2="658" class="net_14,15"/>
  <line x1="264" x2="319" y1="930" y2="930" class="net_17,18"/>
  <line x1="662" x2="674" y1="548" y2="548" class="net_2"/>
  <line x1="674" x2="674" y1="548" y2="598" class="net_2"/>
  <line x1="674" x2="794" y1="598" y2="598" class="net_2"/>
  <line x1="794" x2="794" y1="598" y2="228" class="net_2"/>
  <circle cx="674" cy="548" r="2" style="fill:#000" class="net_2"/>
  <line x1="794" x2="819" y1="228" y2="228" class="net_2"/>
  <line x1="662" x2="715.6666666666666" y1="548" y2="548" class="net_2"/>
  <line x1="715.6666666666666" x2="715.6666666666666" y1="548" y2="213" class="net_2"/>
  <line x1="784" x2="819" y1="208" y2="208" class="net_20,21,22"/>
  <line x1="849" x2="859" y1="208" y2="208" class="net_23,24,25"/>
  <line x1="859" x2="859" y1="208" y2="168" class="net_23,24,25"/>
  <line x1="859" x2="674" y1="168" y2="168" class="net_23,24,25"/>
  <line x1="674" x2="674" y1="168" y2="188" class="net_23,24,25"/>
  <circle cx="859" cy="168" r="2" style="fill:#000" class="net_23,24,25"/>
  <circle cx="859" cy="208" r="2" style="fill:#000" class="net_23,24,25"/>
  <line x1="674" x2="705.6666666666666" y1="188" y2="188" class="net_23,24,25"/>
  <line x1="849" x2="859" y1="208" y2="208" class="net_23,24,25"/>
  <line x1="859" x2="859" y1="208" y2="82" class="net_23,24,25"/>
  <line x1="859" x2="888.6666666666666" y1="82" y2="82" class="net_23,24,25"/>
  <line x1="849" x2="859" y1="208" y2="208" class="net_23,24,25"/>
  <line x1="859" x2="859" y1="208" y2="142" class="net_23,24,25"/>
  <circle cx="859" cy="142" r="2" style="fill:#000" class="net_23,24,25"/>
  <line x1="859" x2="888.6666666666666" y1="142" y2="142" class="net_23,24,25"/>
  <line x1="849" x2="884" y1="208" y2="208" class="net_23,24,25"/>
  <line x1="849" x2="859" y1="208" y2="208" class="net_23,24,25"/>
  <line x1="859" x2="859" y1="208" y2="1128.5" class="net_23,24,25"/>
  <circle cx="859" cy="1128.5" r="2" style="fill:#000" class="net_23,24,25"/>
  <line x1="859" x2="888.6666666666666" y1="1128.5" y2="1128.5" class="net_23,24,25"/>
  <line x1="849" x2="859" y1="208" y2="208" class="net_23,24,25"/>
  <line x1="859" x2="859" y1="208" y2="1188.5" class="net_23,24,25"/>
  <circle cx="859" cy="1188.5" r="2" style="fill:#000" class="net_23,24,25"/>
  <line x1="859" x2="888.6666666666666" y1="1188.5" y2="1188.5" class="net_23,24,25"/>
  <line x1="849" x2="859" y1="208" y2="208" class="net_23,24,25"/>
  <line x1="859" x2="859" y1="208" y2="1248.5" class="net_23,24,25"/>
  <line x1="859" x2="888.6666666666666" y1="1248.5" y2="1248.5" class="net_23,24,25"/>
  <line x1="849" x2="859" y1="208" y2="208" class="net_23,24,25"/>
  <line x1="859" x2="859" y1="208" y2="1092.5" class="net_23,24,25"/>
  <line x1="859" x2="52" y1="1092.5" y2="1092.5" class="net_23,24,25"/>
  <line x1="52" x2="52" y1="1092.5" y2="778" class="net_23,24,25"/>
  <circle cx="859" cy="1092.5" r="2" style="fill:#000" class="net_23,24,25"/>
  <line x1="52" x2="96" y1="778" y2="778" class="net_23,24,25"/>
  <line x1="657.3333333333334" x2="705.6666666666666" y1="208" y2="208" class="net_26,27,28"/>
  <line x1="725.6666666666666" x2="764" y1="198" y2="198" class="net_29,30,31"/>
  <line x1="729" x2="739" y1="578" y2="578" class="net_42,43,44"/>
  <line x1="739" x2="739" y1="578" y2="218" class="net_42,43,44"/>
  <line x1="739" x2="764" y1="218" y2="218" class="net_42,43,44"/>
  <line x1="727" x2="774" y1="629" y2="629" class="net_3"/>
  <line x1="774" x2="774" y1="629" y2="223" class="net_3"/>
  <line x1="593" x2="637.3333333333334" y1="198" y2="198" class="net_45,46,47"/>
  <line x1="593" x2="609" y1="263" y2="263" class="net_48,49,50,51,52,53,54,55,56,57,58,59,60,61,62,63,64,65"/>
  <line x1="609" x2="609" y1="263" y2="218" class="net_48,49,50,51,52,53,54,55,56,57,58,59,60,61,62,63,64,65"/>
  <line x1="609" x2="637.3333333333334" y1="218" y2="218" class="net_48,49,50,51,52,53,54,55,56,57,58,59,60,61,62,63,64,65"/>
  <line x1="575.4" x2="647.3333333333334" y1="518" y2="518" class="net_10,13,16,19,32,33"/>
  <line x1="647.3333333333334" x2="647.3333333333334" y1="518" y2="223" class="net_10,13,16,19,32,33"/>
  <line x1="102" x2="177" y1="788" y2="788" class="net_23,24,25,4"/>
  <line x1="177" x2="177" y1="788" y2="265.5" class="net_23,24,25,4"/>
  <circle cx="177" cy="788" r="2" style="fill:#000" class="net_23,24,25,4"/>
  <line x1="177" x2="190" y1="265.5" y2="265.5" class="net_23,24,25,4"/>
  <line x1="102" x2="177" y1="788" y2="788" class="net_23,24,25,4"/>
  <line x1="177" x2="177" y1="788" y2="510.5" class="net_23,24,25,4"/>
  <circle cx="177" cy="510.5" r="2" style="fill:#000" class="net_23,24,25,4"/>
  <line x1="177" x2="190" y1="510.5" y2="510.5" class="net_23,24,25,4"/>
  <line x1="102" x2="177" y1="788" y2="788" class="net_23,24,25,4"/>
  <line x1="177" x2="177" y1="788" y2="330.5" class="net_23,24,25,4"/>
  <circle cx="177" cy="330.5" r="2" style="fill:#000" class="net_23,24,25,4"/>
  <line x1="177" x2="190" y1="330.5" y2="330.5" class="net_23,24,25,4"/>
  <line x1="102" x2="177" y1="788" y2="788" class="net_23,24,25,4"/>
  <line x1="177" x2="177" y1="788" y2="640.5" class="net_23,24,25,4"/>
  <circle cx="177" cy="640.5" r="2" style="fill:#000" class="net_23,24,25,4"/>
  <line x1="177" x2="190" y1="640.5" y2="640.5" class="net_23,24,25,4"/>
  <line x1="102" x2="177" y1="788" y2="788" class="net_23,24,25,4"/>
  <line x1="177" x2="177" y1="788" y2="912.5" class="net_23,24,25,4"/>
  <circle cx="177" cy="912.5" r="2" style="fill:#000" class="net_23,24,25,4"/>
  <line x1="177" x2="190" y1="912.5" y2="912.5" class="net_23,24,25,4"/>
  <line x1="102" x2="177" y1="788" y2="788" class="net_23,24,25,4"/>
  <line x1="177" x2="177" y1="788" y2="1007.5" class="net_23,24,25,4"/>
  <line x1="177" x2="379.3333333333333" y1="1007.5" y2="1007.5" class="net_23,24,25,4"/>
  <line x1="102" x2="177" y1="788" y2="788" class="net_23,24,25,4"/>
  <line x1="177" x2="177" y1="788" y2="390.5" class="net_23,24,25,4"/>
  <circle cx="177" cy="390.5" r="2" style="fill:#000" class="net_23,24,25,4"/>
  <line x1="177" x2="190" y1="390.5" y2="390.5" class="net_23,24,25,4"/>
  <line x1="102" x2="177" y1="788" y2="788" class="net_23,24,25,4"/>
  <line x1="177" x2="177" y1="788" y2="700.5" class="net_23,24,25,4"/>
  <circle cx="177" cy="700.5" r="2" style="fill:#000" class="net_23,24,25,4"/>
  <line x1="177" x2="190" y1="700.5" y2="700.5" class="net_23,24,25,4"/>
  <line x1="102" x2="177" y1="788" y2="788" class="net_23,24,25,4"/>
  <line x1="177" x2="177" y1="788" y2="450.5" class="net_23,24,25,4"/>
  <circle cx="177" cy="450.5" r="2" style="fill:#000" class="net_23,24,25,4"/>
  <line x1="177" x2="190" y1="450.5" y2="450.5" class="net_23,24,25,4"/>
  <line x1="102" x2="177" y1="788" y2="788" class="net_23,24,25,4"/>
  <line x1="177" x2="177" y1="788" y2="570.5" class="net_23,24,25,4"/>
  <circle cx="177" cy="570.5" r="2" style="fill:#000" class="net_23,24,25,4"/>
  <line x1="177" x2="190" y1="570.5" y2="570.5" class="net_23,24,25,4"/>
  <line x1="102" x2="177" y1="788" y2="788" class="net_23,24,25,4"/>
  <line x1="177" x2="177" y1="788" y2="977.5" class="net_23,24,25,4"/>
  <circle cx="177" cy="977.5" r="2" style="fill:#000" class="net_23,24,25,4"/>
  <line x1="177" x2="190" y1="977.5" y2="977.5" class="net_23,24,25,4"/>
  <line x1="102" x2="177" y1="788" y2="788" class="net_23,24,25,4"/>
  <line x1="177" x2="177" y1="788" y2="1007.5" class="net_23,24,25,4"/>
  <line x1="177" x2="297" y1="1007.5" y2="1007.5" class="net_23,24,25,4"/>
  <line x1="297" x2="297" y1="1007.5" y2="1072.5" class="net_23,24,25,4"/>
  <circle cx="297" cy="1007.5" r="2" style="fill:#000" class="net_23,24,25,4"/>
  <line x1="297" x2="402.5" y1="1072.5" y2="1072.5" class="net_23,24,25,4"/>
  <line x1="107" x2="190" y1="280.5" y2="280.5" class="net_66,67,68,69"/>
  <line x1="107" x2="190" y1="525.5" y2="525.5" class="net_70,71,72"/>
  <line x1="107" x2="127" y1="525.5" y2="525.5" class="net_70,71,72"/>
  <line x1="127" x2="127" y1="525.5" y2="157" class="net_70,71,72"/>
  <circle cx="127" cy="525.5" r="2" style="fill:#000" class="net_70,71,72"/>
  <line x1="127" x2="888.6666666666666" y1="157" y2="157" class="net_70,71,72"/>
  <line x1="107" x2="190" y1="345.5" y2="345.5" class="net_73,74,75,76"/>
  <line x1="107" x2="190" y1="655.5" y2="655.5" class="net_77,78,79"/>
  <line x1="107" x2="117" y1="655.5" y2="655.5" class="net_77,78,79"/>
  <line x1="117" x2="117" y1="655.5" y2="97" class="net_77,78,79"/>
  <circle cx="117" cy="655.5" r="2" style="fill:#000" class="net_77,78,79"/>
  <line x1="117" x2="888.6666666666666" y1="97" y2="97" class="net_77,78,79"/>
  <line x1="107" x2="190" y1="927.5" y2="927.5" class="net_80,81,82,83"/>
  <line x1="277" x2="287" y1="1123.5" y2="1123.5" class="net_84,85"/>
  <line x1="287" x2="287" y1="1123.5" y2="1022.5" class="net_84,85"/>
  <circle cx="287" cy="1123.5" r="2" style="fill:#000" class="net_84,85"/>
  <line x1="287" x2="379.3333333333333" y1="1022.5" y2="1022.5" class="net_84,85"/>
  <line x1="277" x2="287" y1="1123.5" y2="1123.5" class="net_84,85"/>
  <line x1="287" x2="287" y1="1123.5" y2="1263.5" class="net_84,85"/>
  <line x1="287" x2="888.6666666666666" y1="1263.5" y2="1263.5" class="net_84,85"/>
  <line x1="107" x2="137" y1="590.5" y2="590.5" class="net_86,87,88,89"/>
  <line x1="137" x2="137" y1="590.5" y2="405.5" class="net_86,87,88,89"/>
  <line x1="137" x2="190" y1="405.5" y2="405.5" class="net_86,87,88,89"/>
  <line x1="107" x2="157" y1="1057.5" y2="1057.5" class="net_90,91"/>
  <line x1="157" x2="157" y1="1057.5" y2="715.5" class="net_90,91"/>
  <circle cx="157" cy="1057.5" r="2" style="fill:#000" class="net_90,91"/>
  <line x1="157" x2="190" y1="715.5" y2="715.5" class="net_90,91"/>
  <line x1="107" x2="157" y1="1057.5" y2="1057.5" class="net_90,91"/>
  <line x1="157" x2="157" y1="1057.5" y2="1203.5" class="net_90,91"/>
  <line x1="157" x2="888.6666666666666" y1="1203.5" y2="1203.5" class="net_90,91"/>
  <line x1="107" x2="147" y1="720.5" y2="720.5" class="net_92,93,94,95"/>
  <line x1="147" x2="147" y1="720.5" y2="465.5" class="net_92,93,94,95"/>
  <line x1="147" x2="190" y1="465.5" y2="465.5" class="net_92,93,94,95"/>
  <line x1="107" x2="167" y1="862.5" y2="862.5" class="net_96"/>
  <line x1="167" x2="167" y1="862.5" y2="585.5" class="net_96"/>
  <circle cx="167" cy="862.5" r="2" style="fill:#000" class="net_96"/>
  <line x1="167" x2="190" y1="585.5" y2="585.5" class="net_96"/>
  <line x1="107" x2="167" y1="862.5" y2="862.5" class="net_96"/>
  <line x1="167" x2="167" y1="862.5" y2="1143.5" class="net_96"/>
  <line x1="167" x2="888.6666666666666" y1="1143.5" y2="1143.5" class="net_96"/>
  <line x1="107" x2="190" y1="992.5" y2="992.5" class="net_97,98,99,100"/>
  <line x1="1153" x2="1188" y1="42" y2="42" class="net_101,102"/>
  <line x1="1140" x2="1198" y1="109.5" y2="109.5" class="net_34,35"/>
  <line x1="1198" x2="1198" y1="109.5" y2="47" class="net_34,35"/>
  <line x1="962" x2="1004" y1="99.5" y2="99.5" class="net_36,37"/>
  <line x1="962" x2="1004" y1="218" y2="218" class="net_38,39,40,41"/>
  <line x1="1208" x2="1243" y1="32" y2="32" class="net_5"/>
  <line x1="212" x2="257" y1="273" y2="273" class="net_6"/>
  <line x1="212" x2="222" y1="338" y2="338" class="net_7"/>
  <line x1="222" x2="222" y1="338" y2="293" class="net_7"/>
  <line x1="222" x2="257" y1="293" y2="293" class="net_7"/>
  <line x1="212" x2="232" y1="398" y2="398" class="net_8"/>
  <line x1="232" x2="232" y1="398" y2="313" class="net_8"/>
  <line x1="232" x2="257" y1="313" y2="313" class="net_8"/>
  <line x1="212" x2="257.5" y1="458" y2="458" class="net_9"/>
  <line x1="257.5" x2="257.5" y1="458" y2="333.5" class="net_9"/>
  <line x1="212" x2="258" y1="518" y2="518" class="net_11"/>
  <line x1="212" x2="222" y1="578" y2="578" class="net_12"/>
  <line x1="222" x2="222" y1="578" y2="538" class="net_12"/>
  <line x1="222" x2="258" y1="538" y2="538" class="net_12"/>
  <line x1="212" x2="258" y1="648" y2="648" class="net_14"/>
  <line x1="212" x2="222" y1="708" y2="708" class="net_15"/>
  <line x1="222" x2="222" y1="708" y2="668" class="net_15"/>
  <line x1="222" x2="258" y1="668" y2="668" class="net_15"/>
  <line x1="212" x2="258" y1="920" y2="920" class="net_17"/>
  <line x1="212" x2="222" y1="985" y2="985" class="net_18"/>
  <line x1="222" x2="222" y1="985" y2="940" class="net_18"/>
  <line x1="222" x2="258" y1="940" y2="940" class="net_18"/>
  <line x1="350" x2="569.9" y1="283" y2="283" class="net_10"/>
  <line x1="569.9" x2="569.9" y1="283" y2="507.5" class="net_10"/>
  <line x1="350" x2="569.4" y1="528" y2="528" class="net_13"/>
  <line x1="350" x2="533" y1="658" y2="658" class="net_16"/>
  <line x1="533" x2="533" y1="658" y2="548" class="net_16"/>
  <line x1="533" x2="569.4" y1="548" y2="548" class="net_16"/>
  <line x1="350" x2="543" y1="930" y2="930" class="net_19"/>
  <line x1="543" x2="543" y1="930" y2="568" class="net_19"/>
  <line x1="543" x2="569.4" y1="568" y2="568" class="net_19"/>
  <line x1="401.3333333333333" x2="553" y1="1015" y2="1015" class="net_32"/>
  <line x1="553" x2="553" y1="1015" y2="588" class="net_32"/>
  <line x1="553" x2="569.4" y1="588" y2="588" class="net_32"/>
  <line x1="427.5" x2="569.9" y1="1072.5" y2="1072.5" class="net_33"/>
  <line x1="569.9" x2="569.9" y1="1072.5" y2="608.5" class="net_33"/>
  <line x1="40" x2="96" y1="798" y2="798" class="net_4"/>
  <line x1="1035" x2="1134" y1="99.5" y2="99.5" class="net_34"/>
  <line x1="1035" x2="1098" y1="218" y2="218" class="net_35"/>
  <line x1="1098" x2="1098" y1="218" y2="119.5" class="net_35"/>
  <line x1="1098" x2="1134" y1="119.5" y2="119.5" class="net_35"/>
  <line x1="910.6666666666666" x2="956" y1="89.5" y2="89.5" class="net_36"/>
  <line x1="910.6666666666666" x2="924" y1="149.5" y2="149.5" class="net_37"/>
  <line x1="924" x2="924" y1="149.5" y2="109.5" class="net_37"/>
  <line x1="924" x2="956" y1="109.5" y2="109.5" class="net_37"/>
  <line x1="909" x2="956" y1="208" y2="208" class="net_38"/>
  <line x1="910.6666666666666" x2="924" y1="1136" y2="1136" class="net_39"/>
  <line x1="924" x2="924" y1="1136" y2="228" class="net_39"/>
  <line x1="924" x2="956" y1="228" y2="228" class="net_39"/>
  <line x1="910.6666666666666" x2="934" y1="1196" y2="1196" class="net_40"/>
  <line x1="934" x2="934" y1="1196" y2="248" class="net_40"/>
  <line x1="934" x2="956" y1="248" y2="248" class="net_40"/>
  <line x1="910.6666666666666" x2="956.5" y1="1256" y2="1256" class="net_41"/>
  <line x1="956.5" x2="956.5" y1="1256" y2="268.5" class="net_41"/>
</svg>
