<svg xmlns="http://www.w3.org/2000/svg" xmlns:xlink="http://www.w3.org/1999/xlink" xmlns:s="https://github.com/nturley/netlistsvg" width="969" height="406.5">
  <style>svg {
    stroke:#000;
    fill:none;
  }
  text {
    fill:#000;
    stroke:none;
    font-size:10px;
    font-weight: bold;
    font-family: "Courier New", monospace;
  }
  .nodelabel {
    text-anchor: middle;
  }
  .inputPortLabel {
    text-anchor: end;
  }
  .splitjoinBody {
    fill:#000;
  }</style>
  <g s:type="and" transform="translate(667,76.5)" s:width="30" s:height="25" id="cell_$auto$aigmap.cc:123:execute$15">
    <s:alias val="$and"/>
    <s:alias val="$logic_and"/>
    <s:alias val="$_AND_"/>
    <path d="M0,0 L0,25 L15,25 A15 12.5 0 0 0 15,0 Z" class="cell_$auto$aigmap.cc:123:execute$15"/>
    <g s:x="0" s:y="5" s:pid="A"/>
    <g s:x="0" s:y="20" s:pid="B"/>
    <g s:x="30" s:y="12.5" s:pid="Y"/>
  </g>
  <g s:type="and" transform="translate(667,339.5)" s:width="30" s:height="25" id="cell_$auto$aigmap.cc:123:execute$19">
    <s:alias val="$and"/>
    <s:alias val="$logic_and"/>
    <s:alias val="$_AND_"/>
    <path d="M0,0 L0,25 L15,25 A15 12.5 0 0 0 15,0 Z" class="cell_$auto$aigmap.cc:123:execute$19"/>
    <g s:x="0" s:y="5" s:pid="A"/>
    <g s:x="0" s:y="20" s:pid="B"/>
    <g s:x="30" s:y="12.5" s:pid="Y"/>
  </g>
  <g s:type="and" transform="translate(797,332)" s:width="30" s:height="25" id="cell_$auto$aigmap.cc:123:execute$23">
    <s:alias val="$and"/>
    <s:alias val="$logic_and"/>
    <s:alias val="$_AND_"/>
    <path d="M0,0 L0,25 L15,25 A15 12.5 0 0 0 15,0 Z" class="cell_$auto$aigmap.cc:123:execute$23"/>
    <g s:x="0" s:y="5" s:pid="A"/>
    <g s:x="0" s:y="20" s:pid="B"/>
    <g s:x="30" s:y="12.5" s:pid="Y"/>
  </g>
  <g s:type="and" transform="translate(212,173.5)" s:width="30" s:height="25" id="cell_$auto$aigmap.cc:123:execute$31">
    <s:alias val="$and"/>
    <s:alias val="$logic_and"/>
    <s:alias val="$_AND_"/>
    <path d="M0,0 L0,25 L15,25 A15 12.5 0 0 0 15,0 Z" class="cell_$auto$aigmap.cc:123:execute$31"/>
    <g s:x="0" s:y="5" s:pid="A"/>
    <g s:x="0" s:y="20" s:pid="B"/>
    <g s:x="30" s:y="12.5" s:pid="Y"/>
  </g>
  <g s:type="and" transform="translate(212,233.5)" s:width="30" s:height="25" id="cell_$auto$aigmap.cc:123:execute$35">
    <s:alias val="$and"/>
    <s:alias val="$logic_and"/>
    <s:alias val="$_AND_"/>
    <path d="M0,0 L0,25 L15,25 A15 12.5 0 0 0 15,0 Z" class="cell_$auto$aigmap.cc:123:execute$35"/>
    <g s:x="0" s:y="5" s:pid="A"/>
    <g s:x="0" s:y="20" s:pid="B"/>
    <g s:x="30" s:y="12.5" s:pid="Y"/>
  </g>
  <g s:type="and" transform="translate(342,226)" s:width="30" s:height="25" id="cell_$auto$aigmap.cc:123:execute$39">
    <s:alias val="$and"/>
    <s:alias val="$logic_and"/>
    <s:alias val="$_AND_"/>
    <path d="M0,0 L0,25 L15,25 A15 12.5 0 0 0 15,0 Z" class="cell_$auto$aigmap.cc:123:execute$39"/>
    <g s:x="0" s:y="5" s:pid="A"/>
    <g s:x="0" s:y="20" s:pid="B"/>
    <g s:x="30" s:y="12.5" s:pid="Y"/>
  </g>
  <g s:type="and" transform="translate(212,309.5)" s:width="30" s:height="25" id="cell_$auto$aigmap.cc:123:execute$47">
    <s:alias val="$and"/>
    <s:alias val="$logic_and"/>
    <s:alias val="$_AND_"/>
    <path d="M0,0 L0,25 L15,25 A15 12.5 0 0 0 15,0 Z" class="cell_$auto$aigmap.cc:123:execute$47"/>
    <g s:x="0" s:y="5" s:pid="A"/>
    <g s:x="0" s:y="20" s:pid="B"/>
    <g s:x="30" s:y="12.5" s:pid="Y"/>
  </g>
  <g s:type="and" transform="translate(212,369.5)" s:width="30" s:height="25" id="cell_$auto$aigmap.cc:123:execute$51">
    <s:alias val="$and"/>
    <s:alias val="$logic_and"/>
    <s:alias val="$_AND_"/>
    <path d="M0,0 L0,25 L15,25 A15 12.5 0 0 0 15,0 Z" class="cell_$auto$aigmap.cc:123:execute$51"/>
    <g s:x="0" s:y="5" s:pid="A"/>
    <g s:x="0" s:y="20" s:pid="B"/>
    <g s:x="30" s:y="12.5" s:pid="Y"/>
  </g>
  <g s:type="and" transform="translate(342,362)" s:width="30" s:height="25" id="cell_$auto$aigmap.cc:123:execute$55">
    <s:alias val="$and"/>
    <s:alias val="$logic_and"/>
    <s:alias val="$_AND_"/>
    <path d="M0,0 L0,25 L15,25 A15 12.5 0 0 0 15,0 Z" class="cell_$auto$aigmap.cc:123:execute$55"/>
    <g s:x="0" s:y="5" s:pid="A"/>
    <g s:x="0" s:y="20" s:pid="B"/>
    <g s:x="30" s:y="12.5" s:pid="Y"/>
  </g>
  <g s:type="and" transform="translate(472,354.5)" s:width="30" s:height="25" id="cell_$auto$aigmap.cc:123:execute$61">
    <s:alias val="$and"/>
    <s:alias val="$logic_and"/>
    <s:alias val="$_AND_"/>
    <path d="M0,0 L0,25 L15,25 A15 12.5 0 0 0 15,0 Z" class="cell_$auto$aigmap.cc:123:execute$61"/>
    <g s:x="0" s:y="5" s:pid="A"/>
    <g s:x="0" s:y="20" s:pid="B"/>
    <g s:x="30" s:y="12.5" s:pid="Y"/>
  </g>
  <g s:type="and" transform="translate(537,347)" s:width="30" s:height="25" id="cell_$auto$aigmap.cc:123:execute$63">
    <s:alias val="$and"/>
    <s:alias val="$logic_and"/>
    <s:alias val="$_AND_"/>
    <path d="M0,0 L0,25 L15,25 A15 12.5 0 0 0 15,0 Z" class="cell_$auto$aigmap.cc:123:execute$63"/>
    <g s:x="0" s:y="5" s:pid="A"/>
    <g s:x="0" s:y="20" s:pid="B"/>
    <g s:x="30" s:y="12.5" s:pid="Y"/>
  </g>
  <g s:type="not" transform="translate(602,349.5)" s:width="30" s:height="20" id="cell_$auto$aigmap.cc:132:execute$13">
    <s:alias val="$_NOT_"/>
    <s:alias val="$not"/>
    <s:alias val="$logic_not"/>
    <path d="M0,0 L0,20 L20,10 Z" class="cell_$auto$aigmap.cc:132:execute$13"/>
    <circle cx="23" cy="10" r="3" class="cell_$auto$aigmap.cc:132:execute$13"/>
    <g s:x="0" s:y="10" s:pid="A"/>
    <g s:x="25" s:y="10" s:pid="Y"/>
  </g>
  <g s:type="not" transform="translate(732,79)" s:width="30" s:height="20" id="cell_$auto$aigmap.cc:132:execute$17">
    <s:alias val="$_NOT_"/>
    <s:alias val="$not"/>
    <s:alias val="$logic_not"/>
    <path d="M0,0 L0,20 L20,10 Z" class="cell_$auto$aigmap.cc:132:execute$17"/>
    <circle cx="23" cy="10" r="3" class="cell_$auto$aigmap.cc:132:execute$17"/>
    <g s:x="0" s:y="10" s:pid="A"/>
    <g s:x="25" s:y="10" s:pid="Y"/>
  </g>
  <g s:type="not" transform="translate(732,342)" s:width="30" s:height="20" id="cell_$auto$aigmap.cc:132:execute$21">
    <s:alias val="$_NOT_"/>
    <s:alias val="$not"/>
    <s:alias val="$logic_not"/>
    <path d="M0,0 L0,20 L20,10 Z" class="cell_$auto$aigmap.cc:132:execute$21"/>
    <circle cx="23" cy="10" r="3" class="cell_$auto$aigmap.cc:132:execute$21"/>
    <g s:x="0" s:y="10" s:pid="A"/>
    <g s:x="25" s:y="10" s:pid="Y"/>
  </g>
  <g s:type="not" transform="translate(862,334.5)" s:width="30" s:height="20" id="cell_$auto$aigmap.cc:132:execute$25">
    <s:alias val="$_NOT_"/>
    <s:alias val="$not"/>
    <s:alias val="$logic_not"/>
    <path d="M0,0 L0,20 L20,10 Z" class="cell_$auto$aigmap.cc:132:execute$25"/>
    <circle cx="23" cy="10" r="3" class="cell_$auto$aigmap.cc:132:execute$25"/>
    <g s:x="0" s:y="10" s:pid="A"/>
    <g s:x="25" s:y="10" s:pid="Y"/>
  </g>
  <g s:type="not" transform="translate(147,128.5)" s:width="30" s:height="20" id="cell_$auto$aigmap.cc:132:execute$27">
    <s:alias val="$_NOT_"/>
    <s:alias val="$not"/>
    <s:alias val="$logic_not"/>
    <path d="M0,0 L0,20 L20,10 Z" class="cell_$auto$aigmap.cc:132:execute$27"/>
    <circle cx="23" cy="10" r="3" class="cell_$auto$aigmap.cc:132:execute$27"/>
    <g s:x="0" s:y="10" s:pid="A"/>
    <g s:x="25" s:y="10" s:pid="Y"/>
  </g>
  <g s:type="not" transform="translate(147,183.5)" s:width="30" s:height="20" id="cell_$auto$aigmap.cc:132:execute$29">
    <s:alias val="$_NOT_"/>
    <s:alias val="$not"/>
    <s:alias val="$logic_not"/>
    <path d="M0,0 L0,20 L20,10 Z" class="cell_$auto$aigmap.cc:132:execute$29"/>
    <circle cx="23" cy="10" r="3" class="cell_$auto$aigmap.cc:132:execute$29"/>
    <g s:x="0" s:y="10" s:pid="A"/>
    <g s:x="25" s:y="10" s:pid="Y"/>
  </g>
  <g s:type="not" transform="translate(277,176)" s:width="30" s:height="20" id="cell_$auto$aigmap.cc:132:execute$33">
    <s:alias val="$_NOT_"/>
    <s:alias val="$not"/>
    <s:alias val="$logic_not"/>
    <path d="M0,0 L0,20 L20,10 Z" class="cell_$auto$aigmap.cc:132:execute$33"/>
    <circle cx="23" cy="10" r="3" class="cell_$auto$aigmap.cc:132:execute$33"/>
    <g s:x="0" s:y="10" s:pid="A"/>
    <g s:x="25" s:y="10" s:pid="Y"/>
  </g>
  <g s:type="not" transform="translate(277,236)" s:width="30" s:height="20" id="cell_$auto$aigmap.cc:132:execute$37">
    <s:alias val="$_NOT_"/>
    <s:alias val="$not"/>
    <s:alias val="$logic_not"/>
    <path d="M0,0 L0,20 L20,10 Z" class="cell_$auto$aigmap.cc:132:execute$37"/>
    <circle cx="23" cy="10" r="3" class="cell_$auto$aigmap.cc:132:execute$37"/>
    <g s:x="0" s:y="10" s:pid="A"/>
    <g s:x="25" s:y="10" s:pid="Y"/>
  </g>
  <g s:type="not" transform="translate(407,228.5)" s:width="30" s:height="20" id="cell_$auto$aigmap.cc:132:execute$41">
    <s:alias val="$_NOT_"/>
    <s:alias val="$not"/>
    <s:alias val="$logic_not"/>
    <path d="M0,0 L0,20 L20,10 Z" class="cell_$auto$aigmap.cc:132:execute$41"/>
    <circle cx="23" cy="10" r="3" class="cell_$auto$aigmap.cc:132:execute$41"/>
    <g s:x="0" s:y="10" s:pid="A"/>
    <g s:x="25" s:y="10" s:pid="Y"/>
  </g>
  <g s:type="not" transform="translate(147,264.5)" s:width="30" s:height="20" id="cell_$auto$aigmap.cc:132:execute$43">
    <s:alias val="$_NOT_"/>
    <s:alias val="$not"/>
    <s:alias val="$logic_not"/>
    <path d="M0,0 L0,20 L20,10 Z" class="cell_$auto$aigmap.cc:132:execute$43"/>
    <circle cx="23" cy="10" r="3" class="cell_$auto$aigmap.cc:132:execute$43"/>
    <g s:x="0" s:y="10" s:pid="A"/>
    <g s:x="25" s:y="10" s:pid="Y"/>
  </g>
  <g s:type="not" transform="translate(147,319.5)" s:width="30" s:height="20" id="cell_$auto$aigmap.cc:132:execute$45">
    <s:alias val="$_NOT_"/>
    <s:alias val="$not"/>
    <s:alias val="$logic_not"/>
    <path d="M0,0 L0,20 L20,10 Z" class="cell_$auto$aigmap.cc:132:execute$45"/>
    <circle cx="23" cy="10" r="3" class="cell_$auto$aigmap.cc:132:execute$45"/>
    <g s:x="0" s:y="10" s:pid="A"/>
    <g s:x="25" s:y="10" s:pid="Y"/>
  </g>
  <g s:type="not" transform="translate(277,312)" s:width="30" s:height="20" id="cell_$auto$aigmap.cc:132:execute$49">
    <s:alias val="$_NOT_"/>
    <s:alias val="$not"/>
    <s:alias val="$logic_not"/>
    <path d="M0,0 L0,20 L20,10 Z" class="cell_$auto$aigmap.cc:132:execute$49"/>
    <circle cx="23" cy="10" r="3" class="cell_$auto$aigmap.cc:132:execute$49"/>
    <g s:x="0" s:y="10" s:pid="A"/>
    <g s:x="25" s:y="10" s:pid="Y"/>
  </g>
  <g s:type="not" transform="translate(277,372)" s:width="30" s:height="20" id="cell_$auto$aigmap.cc:132:execute$53">
    <s:alias val="$_NOT_"/>
    <s:alias val="$not"/>
    <s:alias val="$logic_not"/>
    <path d="M0,0 L0,20 L20,10 Z" class="cell_$auto$aigmap.cc:132:execute$53"/>
    <circle cx="23" cy="10" r="3" class="cell_$auto$aigmap.cc:132:execute$53"/>
    <g s:x="0" s:y="10" s:pid="A"/>
    <g s:x="25" s:y="10" s:pid="Y"/>
  </g>
  <g s:type="not" transform="translate(407,364.5)" s:width="30" s:height="20" id="cell_$auto$aigmap.cc:132:execute$57">
    <s:alias val="$_NOT_"/>
    <s:alias val="$not"/>
    <s:alias val="$logic_not"/>
    <path d="M0,0 L0,20 L20,10 Z" class="cell_$auto$aigmap.cc:132:execute$57"/>
    <circle cx="23" cy="10" r="3" class="cell_$auto$aigmap.cc:132:execute$57"/>
    <g s:x="0" s:y="10" s:pid="A"/>
    <g s:x="25" s:y="10" s:pid="Y"/>
  </g>
  <g s:type="not" transform="translate(472,107.5)" s:width="30" s:height="20" id="cell_$auto$aigmap.cc:132:execute$59">
    <s:alias val="$_NOT_"/>
    <s:alias val="$not"/>
    <s:alias val="$logic_not"/>
    <path d="M0,0 L0,20 L20,10 Z" class="cell_$auto$aigmap.cc:132:execute$59"/>
    <circle cx="23" cy="10" r="3" class="cell_$auto$aigmap.cc:132:execute$59"/>
    <g s:x="0" s:y="10" s:pid="A"/>
    <g s:x="25" s:y="10" s:pid="Y"/>
  </g>
  <g s:type="inputExt" transform="translate(12,238.5)" s:width="30" s:height="20" id="cell_state">
    <text x="15" y="-4" class="nodelabel cell_state" s:attribute="ref">state</text>
    <s:alias val="$_inputExt_"/>
    <path d="M0,0 L0,20 L15,20 L30,10 L15,0 Z" class="cell_state"/>
    <g s:x="28" s:y="10" s:pid="Y"/>
  </g>
  <g s:type="inputExt" transform="translate(12,44.5)" s:width="30" s:height="20" id="cell_data">
    <text x="15" y="-4" class="nodelabel cell_data" s:attribute="ref">data</text>
    <s:alias val="$_inputExt_"/>
    <path d="M0,0 L0,20 L15,20 L30,10 L15,0 Z" class="cell_data"/>
    <g s:x="28" s:y="10" s:pid="Y"/>
  </g>
  <g s:type="outputExt" transform="translate(136,22)" s:width="30" s:height="20" id="cell_out_byte">
    <text x="15" y="-4" class="nodelabel cell_out_byte" s:attribute="ref">out_byte</text>
    <s:alias val="$_outputExt_"/>
    <path d="M30,0 L30,20 L15,20 L0,10 L15,0 Z" class="cell_out_byte"/>
    <g s:x="0" s:y="10" s:pid="A"/>
  </g>
  <g s:type="outputExt" transform="translate(927,334.5)" s:width="30" s:height="20" id="cell_done">
    <text x="15" y="-4" class="nodelabel cell_done" s:attribute="ref">done</text>
    <s:alias val="$_outputExt_"/>
    <path d="M30,0 L30,20 L15,20 L0,10 L15,0 Z" class="cell_done"/>
    <g s:x="0" s:y="10" s:pid="A"/>
  </g>
  <g s:type="constant" transform="translate(77,86.5)" s:width="30" s:height="20" id="cell_1">
    <text x="15" y="-4" class="nodelabel cell_1" s:attribute="ref">1</text>
    <s:alias val="$_constant_"/>
    <rect width="30" height="20" class="cell_1"/>
    <g s:x="30" s:y="10" s:pid="Y"/>
  </g>
  <g s:type="constant" transform="translate(602,294.5)" s:width="30" s:height="20" id="cell_0">
    <text x="15" y="-4" class="nodelabel cell_0" s:attribute="ref">0</text>
    <s:alias val="$_constant_"/>
    <rect width="30" height="20" class="cell_0"/>
    <g s:x="30" s:y="10" s:pid="Y"/>
  </g>
  <g s:type="split" transform="translate(92.25,228)" s:width="5" s:height="40" id="cell_$split$,2,3,4,">
    <rect width="5" height="60" class="splitjoinBody" s:generic="body"/>
    <s:alias val="$_split_"/>
    <g s:x="0" s:y="20" s:pid="in"/>
    <g transform="translate(4,10)" s:x="4" s:y="10" s:pid="out0">
      <text x="5" y="-4">0</text>
    </g>
    <g transform="translate(4,30)" s:x="4" s:y="10" s:pid="out0">
      <text x="5" y="-4">1</text>
    </g>
    <g transform="translate(4,50)" s:x="4" s:y="10" s:pid="out0">
      <text x="5" y="-4">2</text>
    </g>
  </g>
  <g s:type="split" transform="translate(77,21.5)" s:width="5" s:height="40" id="cell_$split$,5,6,7,8,9,10,11,12,13,">
    <rect width="5" height="20" class="splitjoinBody" s:generic="body"/>
    <s:alias val="$_split_"/>
    <g s:x="0" s:y="20" s:pid="in"/>
    <g transform="translate(4,10)" s:x="4" s:y="10" s:pid="out0">
      <text x="5" y="-4">0:7</text>
    </g>
  </g>
  <line x1="567" x2="577" y1="359.5" y2="359.5" class="net_15"/>
  <line x1="577" x2="577" y1="359.5" y2="81.5" class="net_15"/>
  <circle cx="577" cy="359.5" r="2" style="fill:#000" class="net_15"/>
  <line x1="577" x2="667" y1="81.5" y2="81.5" class="net_15"/>
  <line x1="567" x2="602" y1="359.5" y2="359.5" class="net_15"/>
  <line x1="107" x2="667" y1="96.5" y2="96.5" class="net_40"/>
  <line x1="107" x2="127" y1="96.5" y2="96.5" class="net_40"/>
  <line x1="127" x2="127" y1="96.5" y2="253.5" class="net_40"/>
  <circle cx="127" cy="96.5" r="2" style="fill:#000" class="net_40"/>
  <circle cx="127" cy="253.5" r="2" style="fill:#000" class="net_40"/>
  <line x1="127" x2="212" y1="253.5" y2="253.5" class="net_40"/>
  <line x1="107" x2="127" y1="96.5" y2="96.5" class="net_40"/>
  <line x1="127" x2="127" y1="96.5" y2="389.5" class="net_40"/>
  <line x1="127" x2="212" y1="389.5" y2="389.5" class="net_40"/>
  <line x1="107" x2="127" y1="96.5" y2="96.5" class="net_40"/>
  <line x1="127" x2="127" y1="96.5" y2="138.5" class="net_40"/>
  <circle cx="127" cy="138.5" r="2" style="fill:#000" class="net_40"/>
  <line x1="127" x2="147" y1="138.5" y2="138.5" class="net_40"/>
  <line x1="107" x2="127" y1="96.5" y2="96.5" class="net_40"/>
  <line x1="127" x2="127" y1="96.5" y2="274.5" class="net_40"/>
  <circle cx="127" cy="274.5" r="2" style="fill:#000" class="net_40"/>
  <line x1="127" x2="147" y1="274.5" y2="274.5" class="net_40"/>
  <line x1="632" x2="642" y1="304.5" y2="304.5" class="net_41"/>
  <line x1="642" x2="642" y1="304.5" y2="344.5" class="net_41"/>
  <line x1="642" x2="667" y1="344.5" y2="344.5" class="net_41"/>
  <line x1="627" x2="667" y1="359.5" y2="359.5" class="net_17"/>
  <line x1="757" x2="772" y1="89" y2="89" class="net_19"/>
  <line x1="772" x2="772" y1="89" y2="337" class="net_19"/>
  <line x1="772" x2="797" y1="337" y2="337" class="net_19"/>
  <line x1="757" x2="797" y1="352" y2="352" class="net_20"/>
  <line x1="172" x2="187" y1="138.5" y2="138.5" class="net_22"/>
  <line x1="187" x2="187" y1="138.5" y2="178.5" class="net_22"/>
  <line x1="187" x2="212" y1="178.5" y2="178.5" class="net_22"/>
  <line x1="172" x2="212" y1="193.5" y2="193.5" class="net_23"/>
  <line x1="97.25" x2="212" y1="238.5" y2="238.5" class="net_2"/>
  <line x1="97.25" x2="137" y1="238.5" y2="238.5" class="net_2"/>
  <line x1="137" x2="137" y1="238.5" y2="193.5" class="net_2"/>
  <circle cx="137" cy="238.5" r="2" style="fill:#000" class="net_2"/>
  <line x1="137" x2="147" y1="193.5" y2="193.5" class="net_2"/>
  <line x1="302" x2="317" y1="186" y2="186" class="net_26"/>
  <line x1="317" x2="317" y1="186" y2="231" class="net_26"/>
  <line x1="317" x2="342" y1="231" y2="231" class="net_26"/>
  <line x1="302" x2="342" y1="246" y2="246" class="net_27"/>
  <line x1="172" x2="187" y1="274.5" y2="274.5" class="net_29"/>
  <line x1="187" x2="187" y1="274.5" y2="314.5" class="net_29"/>
  <line x1="187" x2="212" y1="314.5" y2="314.5" class="net_29"/>
  <line x1="172" x2="212" y1="329.5" y2="329.5" class="net_30"/>
  <line x1="97.25" x2="137" y1="258.5" y2="258.5" class="net_3"/>
  <line x1="137" x2="137" y1="258.5" y2="374.5" class="net_3"/>
  <line x1="137" x2="212" y1="374.5" y2="374.5" class="net_3"/>
  <line x1="97.25" x2="137" y1="258.5" y2="258.5" class="net_3"/>
  <line x1="137" x2="137" y1="258.5" y2="329.5" class="net_3"/>
  <circle cx="137" cy="329.5" r="2" style="fill:#000" class="net_3"/>
  <line x1="137" x2="147" y1="329.5" y2="329.5" class="net_3"/>
  <line x1="302" x2="317" y1="322" y2="322" class="net_33"/>
  <line x1="317" x2="317" y1="322" y2="367" class="net_33"/>
  <line x1="317" x2="342" y1="367" y2="367" class="net_33"/>
  <line x1="302" x2="342" y1="382" y2="382" class="net_34"/>
  <line x1="432" x2="447" y1="238.5" y2="238.5" class="net_36"/>
  <line x1="447" x2="447" y1="238.5" y2="359.5" class="net_36"/>
  <line x1="447" x2="472" y1="359.5" y2="359.5" class="net_36"/>
  <line x1="432" x2="472" y1="374.5" y2="374.5" class="net_37"/>
  <line x1="497" x2="512" y1="117.5" y2="117.5" class="net_39"/>
  <line x1="512" x2="512" y1="117.5" y2="352" class="net_39"/>
  <line x1="512" x2="537" y1="352" y2="352" class="net_39"/>
  <line x1="502" x2="537" y1="367" y2="367" class="net_38"/>
  <line x1="697" x2="732" y1="89" y2="89" class="net_16"/>
  <line x1="697" x2="732" y1="352" y2="352" class="net_18"/>
  <line x1="827" x2="862" y1="344.5" y2="344.5" class="net_21"/>
  <line x1="242" x2="277" y1="186" y2="186" class="net_24"/>
  <line x1="242" x2="277" y1="246" y2="246" class="net_25"/>
  <line x1="372" x2="407" y1="238.5" y2="238.5" class="net_28"/>
  <line x1="242" x2="277" y1="322" y2="322" class="net_31"/>
  <line x1="242" x2="277" y1="382" y2="382" class="net_32"/>
  <line x1="372" x2="407" y1="374.5" y2="374.5" class="net_35"/>
  <line x1="97.25" x2="117" y1="278.5" y2="278.5" class="net_4"/>
  <line x1="117" x2="117" y1="278.5" y2="117.5" class="net_4"/>
  <line x1="117" x2="472" y1="117.5" y2="117.5" class="net_4"/>
  <line x1="82" x2="136" y1="32" y2="32" class="net_5,6,7,8,9,10,11,12"/>
  <line x1="887" x2="927" y1="344.5" y2="344.5" class="net_14"/>
  <line x1="40" x2="92.25" y1="248.5" y2="248.5" class="net_2,3,4"/>
  <line x1="40" x2="77.5" y1="54.5" y2="54.5" class="net_5,6,7,8,9,10,11,12,13"/>
  <line x1="77.5" x2="77.5" y1="54.5" y2="42.5" class="net_5,6,7,8,9,10,11,12,13"/>
</svg>
