<svg xmlns="http://www.w3.org/2000/svg" xmlns:xlink="http://www.w3.org/1999/xlink" xmlns:s="https://github.com/nturley/netlistsvg" width="906" height="743.5">
  <style>svg {
    stroke:#000;
    fill:none;
  }
  text {
    fill:#000;
    stroke:none;
    font-size:10px;
    font-weight: bold;
    font-family: "Courier New", monospace;
  }
  .nodelabel {
    text-anchor: middle;
  }
  .inputPortLabel {
    text-anchor: end;
  }
  .splitjoinBody {
    fill:#000;
  }</style>
  <g s:type="add" transform="translate(367,40.5)" s:width="25" s:height="25" id="cell_$add$top_module.v:121$5">
    <s:alias val="$add"/>
    <circle r="12.5" cx="12.5" cy="12.5" class="cell_$add$top_module.v:121$5"/>
    <line x1="7.5" x2="17.5" y1="12.5" y2="12.5" class="cell_$add$top_module.v:121$5"/>
    <line x1="12.5" x2="12.5" y1="7.5" y2="17.5" class="cell_$add$top_module.v:121$5"/>
    <g s:x="3" s:y="5" s:pid="A"/>
    <g s:x="3" s:y="20" s:pid="B"/>
    <g s:x="25" s:y="12.5" s:pid="Y"/>
  </g>
  <g s:type="lt" transform="translate(367,100.5)" s:width="25" s:height="25" id="cell_$lt$top_module.v:121$4">
    <s:alias val="$lt"/>
    <circle r="12.5" cx="12.5" cy="12.5" class="cell_$lt$top_module.v:121$4"/>
    <line x1="7.5" x2="17.5" y1="12.5" y2="7.5" class="cell_$lt$top_module.v:121$4"/>
    <line x1="7.5" x2="17.5" y1="12.5" y2="17.5" class="cell_$lt$top_module.v:121$4"/>
    <g s:x="3" s:y="5" s:pid="A"/>
    <g s:x="3" s:y="20" s:pid="B"/>
    <g s:x="25" s:y="12.5" s:pid="Y"/>
  </g>
  <g s:type="dff" transform="translate(237,403.5)" s:width="30" s:height="40" id="cell_$procdff$32">
    <s:alias val="$dff"/>
    <s:alias val="$_DFF_"/>
    <s:alias val="$_DFF_P_"/>
    <rect width="30" height="40" x="0" y="0" class="cell_$procdff$32"/>
    <path d="M0,35 L5,30 L0,25" class="cell_$procdff$32"/>
    <g s:x="30" s:y="10" s:pid="Q"/>
    <g s:x="0" s:y="30" s:pid="CLK"/>
    <g s:x="0" s:y="30" s:pid="C"/>
    <g s:x="0" s:y="10" s:pid="D"/>
  </g>
  <g s:type="dff" transform="translate(799,327.5)" s:width="30" s:height="40" id="cell_$procdff$33">
    <s:alias val="$dff"/>
    <s:alias val="$_DFF_"/>
    <s:alias val="$_DFF_P_"/>
    <rect width="30" height="40" x="0" y="0" class="cell_$procdff$33"/>
    <path d="M0,35 L5,30 L0,25" class="cell_$procdff$33"/>
    <g s:x="30" s:y="10" s:pid="Q"/>
    <g s:x="0" s:y="30" s:pid="CLK"/>
    <g s:x="0" s:y="30" s:pid="C"/>
    <g s:x="0" s:y="10" s:pid="D"/>
  </g>
  <g s:type="dff" transform="translate(799,680.5)" s:width="30" s:height="40" id="cell_$procdff$34">
    <s:alias val="$dff"/>
    <s:alias val="$_DFF_"/>
    <s:alias val="$_DFF_P_"/>
    <rect width="30" height="40" x="0" y="0" class="cell_$procdff$34"/>
    <path d="M0,35 L5,30 L0,25" class="cell_$procdff$34"/>
    <g s:x="30" s:y="10" s:pid="Q"/>
    <g s:x="0" s:y="30" s:pid="CLK"/>
    <g s:x="0" s:y="30" s:pid="C"/>
    <g s:x="0" s:y="10" s:pid="D"/>
  </g>
  <g s:type="mux" transform="translate(684,640.5)" s:width="20" s:height="40" id="cell_$procmux$12">
    <s:alias val="$pmux"/>
    <s:alias val="$mux"/>
    <s:alias val="$_MUX_"/>
    <path d="M0,0 L20,10 L20,30 L0,40 Z" class="cell_$procmux$12"/>
    <g s:x="0" s:y="10" s:pid="A"/>
    <g s:x="0" s:y="30" s:pid="B"/>
    <g s:x="10" s:y="35" s:pid="S"/>
    <g s:x="20" s:y="20" s:pid="Y"/>
  </g>
  <g s:type="mux" transform="translate(629,413.5)" s:width="20" s:height="40" id="cell_$procmux$14">
    <s:alias val="$pmux"/>
    <s:alias val="$mux"/>
    <s:alias val="$_MUX_"/>
    <path d="M0,0 L20,10 L20,30 L0,40 Z" class="cell_$procmux$14"/>
    <g s:x="0" s:y="10" s:pid="A"/>
    <g s:x="0" s:y="30" s:pid="B"/>
    <g s:x="10" s:y="35" s:pid="S"/>
    <g s:x="20" s:y="20" s:pid="Y"/>
  </g>
  <g s:type="mux" transform="translate(684,486)" s:width="20" s:height="40" id="cell_$procmux$17">
    <s:alias val="$pmux"/>
    <s:alias val="$mux"/>
    <s:alias val="$_MUX_"/>
    <path d="M0,0 L20,10 L20,30 L0,40 Z" class="cell_$procmux$17"/>
    <g s:x="0" s:y="10" s:pid="A"/>
    <g s:x="0" s:y="30" s:pid="B"/>
    <g s:x="10" s:y="35" s:pid="S"/>
    <g s:x="20" s:y="20" s:pid="Y"/>
  </g>
  <g s:type="mux" transform="translate(629,103)" s:width="20" s:height="40" id="cell_$procmux$19">
    <s:alias val="$pmux"/>
    <s:alias val="$mux"/>
    <s:alias val="$_MUX_"/>
    <path d="M0,0 L20,10 L20,30 L0,40 Z" class="cell_$procmux$19"/>
    <g s:x="0" s:y="10" s:pid="A"/>
    <g s:x="0" s:y="30" s:pid="B"/>
    <g s:x="10" s:y="35" s:pid="S"/>
    <g s:x="20" s:y="20" s:pid="Y"/>
  </g>
  <g s:type="eq" transform="translate(177,268.5)" s:width="25" s:height="25" id="cell_$procmux$20_CMP0">
    <s:alias val="$eq"/>
    <circle r="12.5" cx="12.5" cy="12.5" class="cell_$procmux$20_CMP0"/>
    <line x1="7.5" x2="17.5" y1="10" y2="10" class="cell_$procmux$20_CMP0"/>
    <line x1="7.5" x2="17.5" y1="15" y2="15" class="cell_$procmux$20_CMP0"/>
    <g s:x="3" s:y="5" s:pid="A"/>
    <g s:x="3" s:y="20" s:pid="B"/>
    <g s:x="25" s:y="12.5" s:pid="Y"/>
  </g>
  <g s:type="generic" transform="translate(434,209.5)" s:width="30" s:height="40" id="cell_$procmux$21_ANY">
    <text x="15" y="-4" class="nodelabel cell_$procmux$21_ANY" s:attribute="ref">$reduce_or</text>
    <rect width="30" height="20" s:generic="body" class="cell_$procmux$21_ANY"/>
    <g transform="translate(0,10)" s:x="0" s:y="10" s:pid="in0" id="port_$procmux$21_ANY~A">
      <text x="-3" y="-4" class="inputPortLabel cell_$procmux$21_ANY">A</text>
    </g>
    <g transform="translate(30,10)" s:x="30" s:y="10" s:pid="out0" id="port_$procmux$21_ANY~Y">
      <text x="5" y="-4" style="fill:#000; stroke:none" class="cell_$procmux$21_ANY">Y</text>
    </g>
  </g>
  <g s:type="eq" transform="translate(303.6666666666667,195)" s:width="25" s:height="25" id="cell_$procmux$21_CMP0">
    <s:alias val="$eq"/>
    <circle r="12.5" cx="12.5" cy="12.5" class="cell_$procmux$21_CMP0"/>
    <line x1="7.5" x2="17.5" y1="10" y2="10" class="cell_$procmux$21_CMP0"/>
    <line x1="7.5" x2="17.5" y1="15" y2="15" class="cell_$procmux$21_CMP0"/>
    <g s:x="3" s:y="5" s:pid="A"/>
    <g s:x="3" s:y="20" s:pid="B"/>
    <g s:x="25" s:y="12.5" s:pid="Y"/>
  </g>
  <g s:type="eq" transform="translate(177,217.5)" s:width="25" s:height="25" id="cell_$procmux$21_CMP1">
    <s:alias val="$eq"/>
    <circle r="12.5" cx="12.5" cy="12.5" class="cell_$procmux$21_CMP1"/>
    <line x1="7.5" x2="17.5" y1="10" y2="10" class="cell_$procmux$21_CMP1"/>
    <line x1="7.5" x2="17.5" y1="15" y2="15" class="cell_$procmux$21_CMP1"/>
    <g s:x="3" s:y="5" s:pid="A"/>
    <g s:x="3" s:y="20" s:pid="B"/>
    <g s:x="25" s:y="12.5" s:pid="Y"/>
  </g>
  <g s:type="mux" transform="translate(684,93)" s:width="20" s:height="40" id="cell_$procmux$22">
    <s:alias val="$pmux"/>
    <s:alias val="$mux"/>
    <s:alias val="$_MUX_"/>
    <path d="M0,0 L20,10 L20,30 L0,40 Z" class="cell_$procmux$22"/>
    <g s:x="0" s:y="10" s:pid="A"/>
    <g s:x="0" s:y="30" s:pid="B"/>
    <g s:x="10" s:y="35" s:pid="S"/>
    <g s:x="20" s:y="20" s:pid="Y"/>
  </g>
  <g s:type="mux" transform="translate(741.6666666666666,317.5)" s:width="20" s:height="40" id="cell_$procmux$25">
    <s:alias val="$pmux"/>
    <s:alias val="$mux"/>
    <s:alias val="$_MUX_"/>
    <path d="M0,0 L20,10 L20,30 L0,40 Z" class="cell_$procmux$25"/>
    <g s:x="0" s:y="10" s:pid="A"/>
    <g s:x="0" s:y="30" s:pid="B"/>
    <g s:x="10" s:y="35" s:pid="S"/>
    <g s:x="20" s:y="20" s:pid="Y"/>
  </g>
  <g s:type="mux" transform="translate(113.66666666666667,333.5)" s:width="20" s:height="40" id="cell_$procmux$27">
    <s:alias val="$pmux"/>
    <s:alias val="$mux"/>
    <s:alias val="$_MUX_"/>
    <path d="M0,0 L20,10 L20,30 L0,40 Z" class="cell_$procmux$27"/>
    <g s:x="0" s:y="10" s:pid="A"/>
    <g s:x="0" s:y="30" s:pid="B"/>
    <g s:x="10" s:y="35" s:pid="S"/>
    <g s:x="20" s:y="20" s:pid="Y"/>
  </g>
  <g s:type="mux" transform="translate(178.66666666666666,383.5)" s:width="20" s:height="40" id="cell_$procmux$30">
    <s:alias val="$pmux"/>
    <s:alias val="$mux"/>
    <s:alias val="$_MUX_"/>
    <path d="M0,0 L20,10 L20,30 L0,40 Z" class="cell_$procmux$30"/>
    <g s:x="0" s:y="10" s:pid="A"/>
    <g s:x="0" s:y="30" s:pid="B"/>
    <g s:x="10" s:y="35" s:pid="S"/>
    <g s:x="20" s:y="20" s:pid="Y"/>
  </g>
  <g s:type="mux" transform="translate(629,570.5)" s:width="20" s:height="40" id="cell_$procmux$9">
    <s:alias val="$pmux"/>
    <s:alias val="$mux"/>
    <s:alias val="$_MUX_"/>
    <path d="M0,0 L20,10 L20,30 L0,40 Z" class="cell_$procmux$9"/>
    <g s:x="0" s:y="10" s:pid="A"/>
    <g s:x="0" s:y="30" s:pid="B"/>
    <g s:x="10" s:y="35" s:pid="S"/>
    <g s:x="20" s:y="20" s:pid="Y"/>
  </g>
  <g s:type="mux" transform="translate(458.3333333333333,23)" s:width="20" s:height="40" id="cell_$ternary$top_module.v:121$6">
    <s:alias val="$pmux"/>
    <s:alias val="$mux"/>
    <s:alias val="$_MUX_"/>
    <path d="M0,0 L20,10 L20,30 L0,40 Z" class="cell_$ternary$top_module.v:121$6"/>
    <g s:x="0" s:y="10" s:pid="A"/>
    <g s:x="0" s:y="30" s:pid="B"/>
    <g s:x="10" s:y="35" s:pid="S"/>
    <g s:x="20" s:y="20" s:pid="Y"/>
  </g>
  <g s:type="inputExt" transform="translate(12,700.5)" s:width="30" s:height="20" id="cell_clk">
    <text x="15" y="-4" class="nodelabel cell_clk" s:attribute="ref">clk</text>
    <s:alias val="$_inputExt_"/>
    <path d="M0,0 L0,20 L15,20 L30,10 L15,0 Z" class="cell_clk"/>
    <g s:x="28" s:y="10" s:pid="Y"/>
  </g>
  <g s:type="inputExt" transform="translate(559,590.5)" s:width="30" s:height="20" id="cell_in">
    <text x="15" y="-4" class="nodelabel cell_in" s:attribute="ref">in</text>
    <s:alias val="$_inputExt_"/>
    <path d="M0,0 L0,20 L15,20 L30,10 L15,0 Z" class="cell_in"/>
    <g s:x="28" s:y="10" s:pid="Y"/>
  </g>
  <g s:type="inputExt" transform="translate(107,680.5)" s:width="30" s:height="20" id="cell_reset">
    <text x="15" y="-4" class="nodelabel cell_reset" s:attribute="ref">reset</text>
    <s:alias val="$_inputExt_"/>
    <path d="M0,0 L0,20 L15,20 L30,10 L15,0 Z" class="cell_reset"/>
    <g s:x="28" s:y="10" s:pid="Y"/>
  </g>
  <g s:type="inputExt" transform="translate(12,353.5)" s:width="30" s:height="20" id="cell_next_state">
    <text x="15" y="-4" class="nodelabel cell_next_state" s:attribute="ref">next_state</text>
    <s:alias val="$_inputExt_"/>
    <path d="M0,0 L0,20 L15,20 L30,10 L15,0 Z" class="cell_next_state"/>
    <g s:x="28" s:y="10" s:pid="Y"/>
  </g>
  <g s:type="outputExt" transform="translate(864,327.5)" s:width="30" s:height="20" id="cell_bits">
    <text x="15" y="-4" class="nodelabel cell_bits" s:attribute="ref">bits</text>
    <s:alias val="$_outputExt_"/>
    <path d="M30,0 L30,20 L15,20 L0,10 L15,0 Z" class="cell_bits"/>
    <g s:x="0" s:y="10" s:pid="A"/>
  </g>
  <g s:type="outputExt" transform="translate(864,392.5)" s:width="30" s:height="20" id="cell_state">
    <text x="15" y="-4" class="nodelabel cell_state" s:attribute="ref">state</text>
    <s:alias val="$_outputExt_"/>
    <path d="M30,0 L30,20 L15,20 L0,10 L15,0 Z" class="cell_state"/>
    <g s:x="0" s:y="10" s:pid="A"/>
  </g>
  <g s:type="outputExt" transform="translate(864,680.5)" s:width="30" s:height="20" id="cell_data">
    <text x="15" y="-4" class="nodelabel cell_data" s:attribute="ref">data</text>
    <s:alias val="$_outputExt_"/>
    <path d="M30,0 L30,20 L15,20 L0,10 L15,0 Z" class="cell_data"/>
    <g s:x="0" s:y="10" s:pid="A"/>
  </g>
  <g s:type="constant" transform="translate(237,50.5)" s:width="30" s:height="20" id="cell_1">
    <text x="15" y="-4" class="nodelabel cell_1" s:attribute="ref">1</text>
    <s:alias val="$_constant_"/>
    <rect width="30" height="20" class="cell_1"/>
    <g s:x="30" s:y="10" s:pid="Y"/>
  </g>
  <g s:type="constant" transform="translate(302,110.5)" s:width="30" s:height="20" id="cell_1000">
    <text x="15" y="-4" class="nodelabel cell_1000" s:attribute="ref">0x8</text>
    <s:alias val="$_constant_"/>
    <rect width="30" height="20" class="cell_1000"/>
    <g s:x="30" s:y="10" s:pid="Y"/>
  </g>
  <g s:type="constant" transform="translate(434,133)" s:width="30" s:height="20" id="cell_00000">
    <text x="15" y="-4" class="nodelabel cell_00000" s:attribute="ref">0x0</text>
    <s:alias val="$_constant_"/>
    <rect width="30" height="20" class="cell_00000"/>
    <g s:x="30" s:y="10" s:pid="Y"/>
  </g>
  <g s:type="constant" transform="translate(107,278.5)" s:width="30" s:height="20" id="cell_10">
    <text x="15" y="-4" class="nodelabel cell_10" s:attribute="ref">10</text>
    <s:alias val="$_constant_"/>
    <rect width="30" height="20" class="cell_10"/>
    <g s:x="30" s:y="10" s:pid="Y"/>
  </g>
  <g s:type="constant" transform="translate(107,227.5)" s:width="30" s:height="20" id="cell_11">
    <text x="15" y="-4" class="nodelabel cell_11" s:attribute="ref">11</text>
    <s:alias val="$_constant_"/>
    <rect width="30" height="20" class="cell_11"/>
    <g s:x="30" s:y="10" s:pid="Y"/>
  </g>
  <g s:type="constant" transform="translate(107,403.5)" s:width="30" s:height="20" id="cell_001">
    <text x="15" y="-4" class="nodelabel cell_001" s:attribute="ref">001</text>
    <s:alias val="$_constant_"/>
    <rect width="30" height="20" class="cell_001"/>
    <g s:x="30" s:y="10" s:pid="Y"/>
  </g>
  <g s:type="join" transform="translate(758,630)" s:width="4" s:height="40" id="cell_$join$,39,40,41,42,43,44,45,46,47,">
    <rect width="5" height="40" class="splitjoinBody" s:generic="body"/>
    <s:alias val="$_join_"/>
    <g s:x="5" s:y="20" s:pid="out"/>
    <g transform="translate(0,10)" s:x="0" s:y="10" s:pid="in0">
      <text x="-3" y="-4" class="inputPortLabel">0:7</text>
    </g>
    <g transform="translate(0,30)" s:x="0" s:y="10" s:pid="in0">
      <text x="-3" y="-4" class="inputPortLabel">8</text>
    </g>
  </g>
  <g s:type="join" transform="translate(578,112.5)" s:width="4" s:height="40" id="cell_$join$,57,58,59,60,61,84,85,86,87,88,">
    <rect width="5" height="40" class="splitjoinBody" s:generic="body"/>
    <s:alias val="$_join_"/>
    <g s:x="5" s:y="20" s:pid="out"/>
    <g transform="translate(0,10)" s:x="0" s:y="10" s:pid="in0">
      <text x="-3" y="-4" class="inputPortLabel">0:4</text>
    </g>
    <g transform="translate(0,30)" s:x="0" s:y="10" s:pid="in0">
      <text x="-3" y="-4" class="inputPortLabel">5:9</text>
    </g>
  </g>
  <g s:type="join" transform="translate(574,189.5)" s:width="4" s:height="40" id="cell_$join$,62,63,">
    <rect width="5" height="40" class="splitjoinBody" s:generic="body"/>
    <s:alias val="$_join_"/>
    <g s:x="5" s:y="20" s:pid="out"/>
    <g transform="translate(0,10)" s:x="0" s:y="10" s:pid="in0">
      <text x="-3" y="-4" class="inputPortLabel">0</text>
    </g>
    <g transform="translate(0,30)" s:x="0" s:y="10" s:pid="in0">
      <text x="-3" y="-4" class="inputPortLabel">1</text>
    </g>
  </g>
  <g s:type="join" transform="translate(376.3333333333333,199.5)" s:width="4" s:height="40" id="cell_$join$,69,70,">
    <rect width="5" height="40" class="splitjoinBody" s:generic="body"/>
    <s:alias val="$_join_"/>
    <g s:x="5" s:y="20" s:pid="out"/>
    <g transform="translate(0,10)" s:x="0" s:y="10" s:pid="in0">
      <text x="-3" y="-4" class="inputPortLabel">0</text>
    </g>
    <g transform="translate(0,30)" s:x="0" s:y="10" s:pid="in0">
      <text x="-3" y="-4" class="inputPortLabel">1</text>
    </g>
  </g>
  <g s:type="split" transform="translate(577,485.5)" s:width="5" s:height="40" id="cell_$split$,16,17,18,19,20,21,22,23,24,">
    <rect width="5" height="60" class="splitjoinBody" s:generic="body"/>
    <s:alias val="$_split_"/>
    <g s:x="0" s:y="20" s:pid="in"/>
    <g transform="translate(4,10)" s:x="4" s:y="10" s:pid="out0">
      <text x="5" y="-4">8</text>
    </g>
    <g transform="translate(4,30)" s:x="4" s:y="10" s:pid="out0">
      <text x="5" y="-4">0:7</text>
    </g>
    <g transform="translate(4,50)" s:x="4" s:y="10" s:pid="out0">
      <text x="5" y="-4">1:8</text>
    </g>
  </g>
  <line x1="829" x2="839" y1="337.5" y2="337.5" class="net_8,9,10,11,12"/>
  <line x1="839" x2="839" y1="337.5" y2="12" class="net_8,9,10,11,12"/>
  <line x1="839" x2="342" y1="12" y2="12" class="net_8,9,10,11,12"/>
  <line x1="342" x2="342" y1="12" y2="45.5" class="net_8,9,10,11,12"/>
  <circle cx="342" cy="45.5" r="2" style="fill:#000" class="net_8,9,10,11,12"/>
  <line x1="342" x2="370" y1="45.5" y2="45.5" class="net_8,9,10,11,12"/>
  <line x1="829" x2="839" y1="337.5" y2="337.5" class="net_8,9,10,11,12"/>
  <line x1="839" x2="839" y1="337.5" y2="12" class="net_8,9,10,11,12"/>
  <line x1="839" x2="342" y1="12" y2="12" class="net_8,9,10,11,12"/>
  <line x1="342" x2="342" y1="12" y2="105.5" class="net_8,9,10,11,12"/>
  <circle cx="839" cy="337.5" r="2" style="fill:#000" class="net_8,9,10,11,12"/>
  <line x1="342" x2="370" y1="105.5" y2="105.5" class="net_8,9,10,11,12"/>
  <line x1="829" x2="839" y1="337.5" y2="337.5" class="net_8,9,10,11,12"/>
  <line x1="839" x2="839" y1="337.5" y2="12" class="net_8,9,10,11,12"/>
  <line x1="839" x2="599" y1="12" y2="12" class="net_8,9,10,11,12"/>
  <line x1="599" x2="599" y1="12" y2="113" class="net_8,9,10,11,12"/>
  <circle cx="599" cy="12" r="2" style="fill:#000" class="net_8,9,10,11,12"/>
  <line x1="599" x2="629" y1="113" y2="113" class="net_8,9,10,11,12"/>
  <line x1="829" x2="839" y1="337.5" y2="337.5" class="net_8,9,10,11,12"/>
  <line x1="839" x2="839" y1="337.5" y2="377.5" class="net_8,9,10,11,12"/>
  <line x1="839" x2="659" y1="377.5" y2="377.5" class="net_8,9,10,11,12"/>
  <line x1="659" x2="659" y1="377.5" y2="103" class="net_8,9,10,11,12"/>
  <line x1="659" x2="684" y1="103" y2="103" class="net_8,9,10,11,12"/>
  <line x1="829" x2="839" y1="337.5" y2="337.5" class="net_8,9,10,11,12"/>
  <line x1="839" x2="839" y1="337.5" y2="377.5" class="net_8,9,10,11,12"/>
  <line x1="839" x2="714" y1="377.5" y2="377.5" class="net_8,9,10,11,12"/>
  <line x1="714" x2="714" y1="377.5" y2="347.5" class="net_8,9,10,11,12"/>
  <circle cx="714" cy="377.5" r="2" style="fill:#000" class="net_8,9,10,11,12"/>
  <line x1="714" x2="741.6666666666666" y1="347.5" y2="347.5" class="net_8,9,10,11,12"/>
  <line x1="829" x2="839" y1="337.5" y2="337.5" class="net_8,9,10,11,12"/>
  <line x1="839" x2="839" y1="337.5" y2="12" class="net_8,9,10,11,12"/>
  <line x1="839" x2="402" y1="12" y2="12" class="net_8,9,10,11,12"/>
  <line x1="402" x2="402" y1="12" y2="33" class="net_8,9,10,11,12"/>
  <circle cx="402" cy="12" r="2" style="fill:#000" class="net_8,9,10,11,12"/>
  <line x1="402" x2="458.3333333333333" y1="33" y2="33" class="net_8,9,10,11,12"/>
  <line x1="829" x2="864" y1="337.5" y2="337.5" class="net_8,9,10,11,12"/>
  <line x1="267" x2="370" y1="60.5" y2="60.5" class="net_79"/>
  <line x1="267" x2="287" y1="60.5" y2="60.5" class="net_79"/>
  <line x1="287" x2="287" y1="60.5" y2="215" class="net_79"/>
  <circle cx="287" cy="60.5" r="2" style="fill:#000" class="net_79"/>
  <line x1="287" x2="306.6666666666667" y1="215" y2="215" class="net_79"/>
  <line x1="332" x2="370" y1="120.5" y2="120.5" class="net_80,81,82,83"/>
  <line x1="40" x2="82" y1="710.5" y2="710.5" class="net_2"/>
  <line x1="82" x2="82" y1="710.5" y2="620.5" class="net_2"/>
  <line x1="82" x2="147" y1="620.5" y2="620.5" class="net_2"/>
  <line x1="147" x2="147" y1="620.5" y2="433.5" class="net_2"/>
  <circle cx="82" cy="710.5" r="2" style="fill:#000" class="net_2"/>
  <circle cx="82" cy="620.5" r="2" style="fill:#000" class="net_2"/>
  <circle cx="147" cy="620.5" r="2" style="fill:#000" class="net_2"/>
  <line x1="147" x2="237" y1="433.5" y2="433.5" class="net_2"/>
  <line x1="40" x2="82" y1="710.5" y2="710.5" class="net_2"/>
  <line x1="82" x2="82" y1="710.5" y2="620.5" class="net_2"/>
  <line x1="82" x2="147" y1="620.5" y2="620.5" class="net_2"/>
  <line x1="147" x2="147" y1="620.5" y2="463.5" class="net_2"/>
  <line x1="147" x2="287" y1="463.5" y2="463.5" class="net_2"/>
  <line x1="287" x2="287" y1="463.5" y2="306.5" class="net_2"/>
  <line x1="287" x2="774" y1="306.5" y2="306.5" class="net_2"/>
  <line x1="774" x2="774" y1="306.5" y2="357.5" class="net_2"/>
  <line x1="774" x2="799" y1="357.5" y2="357.5" class="net_2"/>
  <line x1="40" x2="799" y1="710.5" y2="710.5" class="net_2"/>
  <line x1="40" x2="82" y1="710.5" y2="710.5" class="net_2"/>
  <line x1="82" x2="82" y1="710.5" y2="620.5" class="net_2"/>
  <line x1="82" x2="147" y1="620.5" y2="620.5" class="net_2"/>
  <line x1="147" x2="147" y1="620.5" y2="463.5" class="net_2"/>
  <line x1="147" x2="639" y1="463.5" y2="463.5" class="net_2"/>
  <line x1="639" x2="639" y1="463.5" y2="448.5" class="net_2"/>
  <line x1="40" x2="82" y1="710.5" y2="710.5" class="net_2"/>
  <line x1="82" x2="82" y1="710.5" y2="620.5" class="net_2"/>
  <line x1="82" x2="147" y1="620.5" y2="620.5" class="net_2"/>
  <line x1="147" x2="147" y1="620.5" y2="463.5" class="net_2"/>
  <line x1="147" x2="287" y1="463.5" y2="463.5" class="net_2"/>
  <line x1="287" x2="287" y1="463.5" y2="306.5" class="net_2"/>
  <line x1="287" x2="669" y1="306.5" y2="306.5" class="net_2"/>
  <line x1="669" x2="669" y1="306.5" y2="296.5" class="net_2"/>
  <line x1="669" x2="694" y1="296.5" y2="296.5" class="net_2"/>
  <circle cx="147" cy="463.5" r="2" style="fill:#000" class="net_2"/>
  <circle cx="287" cy="463.5" r="2" style="fill:#000" class="net_2"/>
  <circle cx="669" cy="306.5" r="2" style="fill:#000" class="net_2"/>
  <line x1="694" x2="694" y1="296.5" y2="128" class="net_2"/>
  <line x1="40" x2="82" y1="710.5" y2="710.5" class="net_2"/>
  <line x1="82" x2="82" y1="710.5" y2="383.5" class="net_2"/>
  <line x1="82" x2="123.66666666666667" y1="383.5" y2="383.5" class="net_2"/>
  <line x1="123.66666666666667" x2="123.66666666666667" y1="383.5" y2="368.5" class="net_2"/>
  <line x1="40" x2="82" y1="710.5" y2="710.5" class="net_2"/>
  <line x1="82" x2="82" y1="710.5" y2="620.5" class="net_2"/>
  <line x1="82" x2="639" y1="620.5" y2="620.5" class="net_2"/>
  <line x1="639" x2="639" y1="620.5" y2="605.5" class="net_2"/>
  <line x1="198.66666666666666" x2="212" y1="403.5" y2="403.5" class="net_31,32,33"/>
  <line x1="212" x2="212" y1="403.5" y2="413.5" class="net_31,32,33"/>
  <line x1="212" x2="237" y1="413.5" y2="413.5" class="net_31,32,33"/>
  <line x1="761.6666666666666" x2="799" y1="337.5" y2="337.5" class="net_34,35,36,37,38"/>
  <line x1="764" x2="774" y1="650.5" y2="650.5" class="net_39,40,41,42,43,44,45,46,47"/>
  <line x1="774" x2="774" y1="650.5" y2="690.5" class="net_39,40,41,42,43,44,45,46,47"/>
  <line x1="774" x2="799" y1="690.5" y2="690.5" class="net_39,40,41,42,43,44,45,46,47"/>
  <line x1="649" x2="659" y1="590.5" y2="590.5" class="net_48"/>
  <line x1="659" x2="659" y1="590.5" y2="650.5" class="net_48"/>
  <line x1="659" x2="684" y1="650.5" y2="650.5" class="net_48"/>
  <line x1="582" x2="599" y1="496" y2="496" class="net_24"/>
  <line x1="599" x2="599" y1="496" y2="670.5" class="net_24"/>
  <line x1="599" x2="684" y1="670.5" y2="670.5" class="net_24"/>
  <line x1="582" x2="599" y1="496" y2="496" class="net_24"/>
  <line x1="599" x2="599" y1="496" y2="580.5" class="net_24"/>
  <circle cx="599" cy="580.5" r="2" style="fill:#000" class="net_24"/>
  <line x1="599" x2="629" y1="580.5" y2="580.5" class="net_24"/>
  <line x1="135" x2="694" y1="690.5" y2="690.5" class="net_4"/>
  <line x1="694" x2="694" y1="690.5" y2="675.5" class="net_4"/>
  <line x1="135" x2="609" y1="690.5" y2="690.5" class="net_4"/>
  <line x1="609" x2="609" y1="690.5" y2="630.5" class="net_4"/>
  <line x1="609" x2="694" y1="630.5" y2="630.5" class="net_4"/>
  <circle cx="609" cy="690.5" r="2" style="fill:#000" class="net_4"/>
  <line x1="694" x2="694" y1="630.5" y2="521" class="net_4"/>
  <line x1="135" x2="157" y1="690.5" y2="690.5" class="net_4"/>
  <line x1="157" x2="157" y1="690.5" y2="474.5" class="net_4"/>
  <line x1="157" x2="751.6666666666666" y1="474.5" y2="474.5" class="net_4"/>
  <circle cx="157" cy="690.5" r="2" style="fill:#000" class="net_4"/>
  <line x1="751.6666666666666" x2="751.6666666666666" y1="474.5" y2="352.5" class="net_4"/>
  <line x1="135" x2="157" y1="690.5" y2="690.5" class="net_4"/>
  <line x1="157" x2="157" y1="690.5" y2="680.5" class="net_4"/>
  <line x1="157" x2="188.66666666666666" y1="680.5" y2="680.5" class="net_4"/>
  <circle cx="157" cy="680.5" r="2" style="fill:#000" class="net_4"/>
  <line x1="188.66666666666666" x2="188.66666666666666" y1="680.5" y2="418.5" class="net_4"/>
  <line x1="582" x2="609" y1="516" y2="516" class="net_16,17,18,19,20,21,22,23"/>
  <line x1="609" x2="609" y1="516" y2="423.5" class="net_16,17,18,19,20,21,22,23"/>
  <circle cx="609" cy="516" r="2" style="fill:#000" class="net_16,17,18,19,20,21,22,23"/>
  <line x1="609" x2="629" y1="423.5" y2="423.5" class="net_16,17,18,19,20,21,22,23"/>
  <line x1="582" x2="684" y1="516" y2="516" class="net_16,17,18,19,20,21,22,23"/>
  <line x1="582" x2="619" y1="536" y2="536" class="net_17,18,19,20,21,22,23,24"/>
  <line x1="619" x2="619" y1="536" y2="443.5" class="net_17,18,19,20,21,22,23,24"/>
  <line x1="619" x2="629" y1="443.5" y2="443.5" class="net_17,18,19,20,21,22,23,24"/>
  <line x1="649" x2="659" y1="433.5" y2="433.5" class="net_49,50,51,52,53,54,55,56"/>
  <line x1="659" x2="659" y1="433.5" y2="496" class="net_49,50,51,52,53,54,55,56"/>
  <line x1="659" x2="684" y1="496" y2="496" class="net_49,50,51,52,53,54,55,56"/>
  <line x1="584" x2="629" y1="133" y2="133" class="net_57,58,59,60,61,84,85,86,87,88"/>
  <line x1="580" x2="639" y1="210" y2="210" class="net_62,63"/>
  <line x1="639" x2="639" y1="210" y2="138" class="net_62,63"/>
  <line x1="267" x2="277" y1="413.5" y2="413.5" class="net_13,14,15"/>
  <line x1="277" x2="277" y1="413.5" y2="453.5" class="net_13,14,15"/>
  <line x1="277" x2="157" y1="453.5" y2="453.5" class="net_13,14,15"/>
  <line x1="157" x2="157" y1="453.5" y2="273.5" class="net_13,14,15"/>
  <line x1="157" x2="180" y1="273.5" y2="273.5" class="net_13,14,15"/>
  <line x1="267" x2="277" y1="413.5" y2="413.5" class="net_13,14,15"/>
  <line x1="277" x2="277" y1="413.5" y2="200" class="net_13,14,15"/>
  <line x1="277" x2="306.6666666666667" y1="200" y2="200" class="net_13,14,15"/>
  <line x1="267" x2="277" y1="413.5" y2="413.5" class="net_13,14,15"/>
  <line x1="277" x2="277" y1="413.5" y2="257.5" class="net_13,14,15"/>
  <line x1="277" x2="147" y1="257.5" y2="257.5" class="net_13,14,15"/>
  <line x1="147" x2="147" y1="257.5" y2="222.5" class="net_13,14,15"/>
  <circle cx="147" cy="257.5" r="2" style="fill:#000" class="net_13,14,15"/>
  <line x1="147" x2="180" y1="222.5" y2="222.5" class="net_13,14,15"/>
  <line x1="267" x2="277" y1="413.5" y2="413.5" class="net_13,14,15"/>
  <line x1="277" x2="277" y1="413.5" y2="257.5" class="net_13,14,15"/>
  <line x1="277" x2="82" y1="257.5" y2="257.5" class="net_13,14,15"/>
  <line x1="82" x2="82" y1="257.5" y2="343.5" class="net_13,14,15"/>
  <circle cx="277" cy="257.5" r="2" style="fill:#000" class="net_13,14,15"/>
  <circle cx="277" cy="413.5" r="2" style="fill:#000" class="net_13,14,15"/>
  <line x1="82" x2="113.66666666666667" y1="343.5" y2="343.5" class="net_13,14,15"/>
  <line x1="267" x2="277" y1="413.5" y2="413.5" class="net_13,14,15"/>
  <line x1="277" x2="277" y1="413.5" y2="402.5" class="net_13,14,15"/>
  <circle cx="277" cy="402.5" r="2" style="fill:#000" class="net_13,14,15"/>
  <line x1="277" x2="864" y1="402.5" y2="402.5" class="net_13,14,15"/>
  <line x1="137" x2="180" y1="288.5" y2="288.5" class="net_89,90"/>
  <line x1="382.3333333333333" x2="434" y1="220" y2="220" class="net_69,70"/>
  <line x1="137" x2="180" y1="237.5" y2="237.5" class="net_92,93"/>
  <line x1="649" x2="684" y1="123" y2="123" class="net_64,65,66,67,68"/>
  <line x1="704" x2="714" y1="113" y2="113" class="net_71,72,73,74,75"/>
  <line x1="714" x2="714" y1="113" y2="327.5" class="net_71,72,73,74,75"/>
  <line x1="714" x2="741.6666666666666" y1="327.5" y2="327.5" class="net_71,72,73,74,75"/>
  <line x1="40" x2="113.66666666666667" y1="363.5" y2="363.5" class="net_5,6,7"/>
  <line x1="133.66666666666669" x2="167" y1="353.5" y2="353.5" class="net_76,77,78"/>
  <line x1="167" x2="167" y1="353.5" y2="393.5" class="net_76,77,78"/>
  <line x1="167" x2="178.66666666666666" y1="393.5" y2="393.5" class="net_76,77,78"/>
  <line x1="137" x2="178.66666666666666" y1="413.5" y2="413.5" class="net_94,95,96"/>
  <line x1="587" x2="629" y1="600.5" y2="600.5" class="net_3"/>
  <line x1="392" x2="458.3333333333333" y1="53" y2="53" class="net_25,26,27,28,29"/>
  <line x1="392" x2="468.3333333333333" y1="113" y2="113" class="net_30"/>
  <line x1="468.3333333333333" x2="468.3333333333333" y1="113" y2="58" class="net_30"/>
  <line x1="829" x2="864" y1="690.5" y2="690.5" class="net_16,17,18,19,20,21,22,23,24"/>
  <line x1="829" x2="839" y1="690.5" y2="690.5" class="net_16,17,18,19,20,21,22,23,24"/>
  <line x1="839" x2="839" y1="690.5" y2="730.5" class="net_16,17,18,19,20,21,22,23,24"/>
  <line x1="839" x2="534" y1="730.5" y2="730.5" class="net_16,17,18,19,20,21,22,23,24"/>
  <line x1="534" x2="534" y1="730.5" y2="506" class="net_16,17,18,19,20,21,22,23,24"/>
  <circle cx="839" cy="690.5" r="2" style="fill:#000" class="net_16,17,18,19,20,21,22,23,24"/>
  <line x1="534" x2="577" y1="506" y2="506" class="net_16,17,18,19,20,21,22,23,24"/>
  <line x1="704" x2="714" y1="506" y2="506" class="net_39,40,41,42,43,44,45,46"/>
  <line x1="714" x2="714" y1="506" y2="640.5" class="net_39,40,41,42,43,44,45,46"/>
  <line x1="714" x2="758" y1="640.5" y2="640.5" class="net_39,40,41,42,43,44,45,46"/>
  <line x1="704" x2="758" y1="660.5" y2="660.5" class="net_47"/>
  <line x1="478.3333333333333" x2="534" y1="43" y2="43" class="net_57,58,59,60,61"/>
  <line x1="534" x2="534" y1="43" y2="123" class="net_57,58,59,60,61"/>
  <line x1="534" x2="578" y1="123" y2="123" class="net_57,58,59,60,61"/>
  <line x1="464" x2="578" y1="143" y2="143" class="net_84,85,86,87,88"/>
  <line x1="202" x2="212" y1="281" y2="281" class="net_62"/>
  <line x1="212" x2="212" y1="281" y2="184" class="net_62"/>
  <line x1="212" x2="534" y1="184" y2="184" class="net_62"/>
  <line x1="534" x2="534" y1="184" y2="200" class="net_62"/>
  <line x1="534" x2="574" y1="200" y2="200" class="net_62"/>
  <line x1="465" x2="574" y1="220" y2="220" class="net_63"/>
  <line x1="328.6666666666667" x2="342" y1="207.5" y2="207.5" class="net_69"/>
  <line x1="342" x2="342" y1="207.5" y2="210" class="net_69"/>
  <line x1="342" x2="376.3333333333333" y1="210" y2="210" class="net_69"/>
  <line x1="202" x2="376.3333333333333" y1="230" y2="230" class="net_70"/>
</svg>
