<svg xmlns="http://www.w3.org/2000/svg" xmlns:xlink="http://www.w3.org/1999/xlink" xmlns:s="https://github.com/nturley/netlistsvg" width="769" height="423">
  <style>svg {
    stroke:#000;
    fill:none;
  }
  text {
    fill:#000;
    stroke:none;
    font-size:10px;
    font-weight: bold;
    font-family: "Courier New", monospace;
  }
  .nodelabel {
    text-anchor: middle;
  }
  .inputPortLabel {
    text-anchor: end;
  }
  .splitjoinBody {
    fill:#000;
  }</style>
  <g s:type="and" transform="translate(354,256.5)" s:width="30" s:height="25" id="cell_$auto$aigmap.cc:123:execute$17">
    <s:alias val="$and"/>
    <s:alias val="$logic_and"/>
    <s:alias val="$_AND_"/>
    <path d="M0,0 L0,25 L15,25 A15 12.5 0 0 0 15,0 Z" class="cell_$auto$aigmap.cc:123:execute$17"/>
    <g s:x="0" s:y="5" s:pid="A"/>
    <g s:x="0" s:y="20" s:pid="B"/>
    <g s:x="30" s:y="12.5" s:pid="Y"/>
  </g>
  <g s:type="and" transform="translate(354,316.5)" s:width="30" s:height="25" id="cell_$auto$aigmap.cc:123:execute$21">
    <s:alias val="$and"/>
    <s:alias val="$logic_and"/>
    <s:alias val="$_AND_"/>
    <path d="M0,0 L0,25 L15,25 A15 12.5 0 0 0 15,0 Z" class="cell_$auto$aigmap.cc:123:execute$21"/>
    <g s:x="0" s:y="5" s:pid="A"/>
    <g s:x="0" s:y="20" s:pid="B"/>
    <g s:x="30" s:y="12.5" s:pid="Y"/>
  </g>
  <g s:type="and" transform="translate(484,309)" s:width="30" s:height="25" id="cell_$auto$aigmap.cc:123:execute$25">
    <s:alias val="$and"/>
    <s:alias val="$logic_and"/>
    <s:alias val="$_AND_"/>
    <path d="M0,0 L0,25 L15,25 A15 12.5 0 0 0 15,0 Z" class="cell_$auto$aigmap.cc:123:execute$25"/>
    <g s:x="0" s:y="5" s:pid="A"/>
    <g s:x="0" s:y="20" s:pid="B"/>
    <g s:x="30" s:y="12.5" s:pid="Y"/>
  </g>
  <g s:type="and" transform="translate(354,133.5)" s:width="30" s:height="25" id="cell_$auto$aigmap.cc:123:execute$31">
    <s:alias val="$and"/>
    <s:alias val="$logic_and"/>
    <s:alias val="$_AND_"/>
    <path d="M0,0 L0,25 L15,25 A15 12.5 0 0 0 15,0 Z" class="cell_$auto$aigmap.cc:123:execute$31"/>
    <g s:x="0" s:y="5" s:pid="A"/>
    <g s:x="0" s:y="20" s:pid="B"/>
    <g s:x="30" s:y="12.5" s:pid="Y"/>
  </g>
  <g s:type="and" transform="translate(354,196.5)" s:width="30" s:height="25" id="cell_$auto$aigmap.cc:123:execute$35">
    <s:alias val="$and"/>
    <s:alias val="$logic_and"/>
    <s:alias val="$_AND_"/>
    <path d="M0,0 L0,25 L15,25 A15 12.5 0 0 0 15,0 Z" class="cell_$auto$aigmap.cc:123:execute$35"/>
    <g s:x="0" s:y="5" s:pid="A"/>
    <g s:x="0" s:y="20" s:pid="B"/>
    <g s:x="30" s:y="12.5" s:pid="Y"/>
  </g>
  <g s:type="and" transform="translate(484,189)" s:width="30" s:height="25" id="cell_$auto$aigmap.cc:123:execute$39">
    <s:alias val="$and"/>
    <s:alias val="$logic_and"/>
    <s:alias val="$_AND_"/>
    <path d="M0,0 L0,25 L15,25 A15 12.5 0 0 0 15,0 Z" class="cell_$auto$aigmap.cc:123:execute$39"/>
    <g s:x="0" s:y="5" s:pid="A"/>
    <g s:x="0" s:y="20" s:pid="B"/>
    <g s:x="30" s:y="12.5" s:pid="Y"/>
  </g>
  <g s:type="and" transform="translate(354,12)" s:width="30" s:height="25" id="cell_$auto$aigmap.cc:123:execute$45">
    <s:alias val="$and"/>
    <s:alias val="$logic_and"/>
    <s:alias val="$_AND_"/>
    <path d="M0,0 L0,25 L15,25 A15 12.5 0 0 0 15,0 Z" class="cell_$auto$aigmap.cc:123:execute$45"/>
    <g s:x="0" s:y="5" s:pid="A"/>
    <g s:x="0" s:y="20" s:pid="B"/>
    <g s:x="30" s:y="12.5" s:pid="Y"/>
  </g>
  <g s:type="and" transform="translate(354,72)" s:width="30" s:height="25" id="cell_$auto$aigmap.cc:123:execute$49">
    <s:alias val="$and"/>
    <s:alias val="$logic_and"/>
    <s:alias val="$_AND_"/>
    <path d="M0,0 L0,25 L15,25 A15 12.5 0 0 0 15,0 Z" class="cell_$auto$aigmap.cc:123:execute$49"/>
    <g s:x="0" s:y="5" s:pid="A"/>
    <g s:x="0" s:y="20" s:pid="B"/>
    <g s:x="30" s:y="12.5" s:pid="Y"/>
  </g>
  <g s:type="and" transform="translate(484,64.5)" s:width="30" s:height="25" id="cell_$auto$aigmap.cc:123:execute$53">
    <s:alias val="$and"/>
    <s:alias val="$logic_and"/>
    <s:alias val="$_AND_"/>
    <path d="M0,0 L0,25 L15,25 A15 12.5 0 0 0 15,0 Z" class="cell_$auto$aigmap.cc:123:execute$53"/>
    <g s:x="0" s:y="5" s:pid="A"/>
    <g s:x="0" s:y="20" s:pid="B"/>
    <g s:x="30" s:y="12.5" s:pid="Y"/>
  </g>
  <g s:type="and" transform="translate(149,315)" s:width="30" s:height="25" id="cell_$auto$aigmap.cc:123:execute$61">
    <s:alias val="$and"/>
    <s:alias val="$logic_and"/>
    <s:alias val="$_AND_"/>
    <path d="M0,0 L0,25 L15,25 A15 12.5 0 0 0 15,0 Z" class="cell_$auto$aigmap.cc:123:execute$61"/>
    <g s:x="0" s:y="5" s:pid="A"/>
    <g s:x="0" s:y="20" s:pid="B"/>
    <g s:x="30" s:y="12.5" s:pid="Y"/>
  </g>
  <g s:type="and" transform="translate(149,375)" s:width="30" s:height="25" id="cell_$auto$aigmap.cc:123:execute$65">
    <s:alias val="$and"/>
    <s:alias val="$logic_and"/>
    <s:alias val="$_AND_"/>
    <path d="M0,0 L0,25 L15,25 A15 12.5 0 0 0 15,0 Z" class="cell_$auto$aigmap.cc:123:execute$65"/>
    <g s:x="0" s:y="5" s:pid="A"/>
    <g s:x="0" s:y="20" s:pid="B"/>
    <g s:x="30" s:y="12.5" s:pid="Y"/>
  </g>
  <g s:type="and" transform="translate(284,367.5)" s:width="30" s:height="25" id="cell_$auto$aigmap.cc:123:execute$69">
    <s:alias val="$and"/>
    <s:alias val="$logic_and"/>
    <s:alias val="$_AND_"/>
    <path d="M0,0 L0,25 L15,25 A15 12.5 0 0 0 15,0 Z" class="cell_$auto$aigmap.cc:123:execute$69"/>
    <g s:x="0" s:y="5" s:pid="A"/>
    <g s:x="0" s:y="20" s:pid="B"/>
    <g s:x="30" s:y="12.5" s:pid="Y"/>
  </g>
  <g s:type="not" transform="translate(284,326.5)" s:width="30" s:height="20" id="cell_$auto$aigmap.cc:132:execute$15">
    <s:alias val="$_NOT_"/>
    <s:alias val="$not"/>
    <s:alias val="$logic_not"/>
    <path d="M0,0 L0,20 L20,10 Z" class="cell_$auto$aigmap.cc:132:execute$15"/>
    <circle cx="23" cy="10" r="3" class="cell_$auto$aigmap.cc:132:execute$15"/>
    <g s:x="0" s:y="10" s:pid="A"/>
    <g s:x="25" s:y="10" s:pid="Y"/>
  </g>
  <g s:type="not" transform="translate(419,259)" s:width="30" s:height="20" id="cell_$auto$aigmap.cc:132:execute$19">
    <s:alias val="$_NOT_"/>
    <s:alias val="$not"/>
    <s:alias val="$logic_not"/>
    <path d="M0,0 L0,20 L20,10 Z" class="cell_$auto$aigmap.cc:132:execute$19"/>
    <circle cx="23" cy="10" r="3" class="cell_$auto$aigmap.cc:132:execute$19"/>
    <g s:x="0" s:y="10" s:pid="A"/>
    <g s:x="25" s:y="10" s:pid="Y"/>
  </g>
  <g s:type="not" transform="translate(419,319)" s:width="30" s:height="20" id="cell_$auto$aigmap.cc:132:execute$23">
    <s:alias val="$_NOT_"/>
    <s:alias val="$not"/>
    <s:alias val="$logic_not"/>
    <path d="M0,0 L0,20 L20,10 Z" class="cell_$auto$aigmap.cc:132:execute$23"/>
    <circle cx="23" cy="10" r="3" class="cell_$auto$aigmap.cc:132:execute$23"/>
    <g s:x="0" s:y="10" s:pid="A"/>
    <g s:x="25" s:y="10" s:pid="Y"/>
  </g>
  <g s:type="not" transform="translate(549,311.5)" s:width="30" s:height="20" id="cell_$auto$aigmap.cc:132:execute$27">
    <s:alias val="$_NOT_"/>
    <s:alias val="$not"/>
    <s:alias val="$logic_not"/>
    <path d="M0,0 L0,20 L20,10 Z" class="cell_$auto$aigmap.cc:132:execute$27"/>
    <circle cx="23" cy="10" r="3" class="cell_$auto$aigmap.cc:132:execute$27"/>
    <g s:x="0" s:y="10" s:pid="A"/>
    <g s:x="25" s:y="10" s:pid="Y"/>
  </g>
  <g s:type="not" transform="translate(284,206.5)" s:width="30" s:height="20" id="cell_$auto$aigmap.cc:132:execute$29">
    <s:alias val="$_NOT_"/>
    <s:alias val="$not"/>
    <s:alias val="$logic_not"/>
    <path d="M0,0 L0,20 L20,10 Z" class="cell_$auto$aigmap.cc:132:execute$29"/>
    <circle cx="23" cy="10" r="3" class="cell_$auto$aigmap.cc:132:execute$29"/>
    <g s:x="0" s:y="10" s:pid="A"/>
    <g s:x="25" s:y="10" s:pid="Y"/>
  </g>
  <g s:type="not" transform="translate(419,136)" s:width="30" s:height="20" id="cell_$auto$aigmap.cc:132:execute$33">
    <s:alias val="$_NOT_"/>
    <s:alias val="$not"/>
    <s:alias val="$logic_not"/>
    <path d="M0,0 L0,20 L20,10 Z" class="cell_$auto$aigmap.cc:132:execute$33"/>
    <circle cx="23" cy="10" r="3" class="cell_$auto$aigmap.cc:132:execute$33"/>
    <g s:x="0" s:y="10" s:pid="A"/>
    <g s:x="25" s:y="10" s:pid="Y"/>
  </g>
  <g s:type="not" transform="translate(419,199)" s:width="30" s:height="20" id="cell_$auto$aigmap.cc:132:execute$37">
    <s:alias val="$_NOT_"/>
    <s:alias val="$not"/>
    <s:alias val="$logic_not"/>
    <path d="M0,0 L0,20 L20,10 Z" class="cell_$auto$aigmap.cc:132:execute$37"/>
    <circle cx="23" cy="10" r="3" class="cell_$auto$aigmap.cc:132:execute$37"/>
    <g s:x="0" s:y="10" s:pid="A"/>
    <g s:x="25" s:y="10" s:pid="Y"/>
  </g>
  <g s:type="not" transform="translate(549,191.5)" s:width="30" s:height="20" id="cell_$auto$aigmap.cc:132:execute$41">
    <s:alias val="$_NOT_"/>
    <s:alias val="$not"/>
    <s:alias val="$logic_not"/>
    <path d="M0,0 L0,20 L20,10 Z" class="cell_$auto$aigmap.cc:132:execute$41"/>
    <circle cx="23" cy="10" r="3" class="cell_$auto$aigmap.cc:132:execute$41"/>
    <g s:x="0" s:y="10" s:pid="A"/>
    <g s:x="25" s:y="10" s:pid="Y"/>
  </g>
  <g s:type="not" transform="translate(284,82)" s:width="30" s:height="20" id="cell_$auto$aigmap.cc:132:execute$43">
    <s:alias val="$_NOT_"/>
    <s:alias val="$not"/>
    <s:alias val="$logic_not"/>
    <path d="M0,0 L0,20 L20,10 Z" class="cell_$auto$aigmap.cc:132:execute$43"/>
    <circle cx="23" cy="10" r="3" class="cell_$auto$aigmap.cc:132:execute$43"/>
    <g s:x="0" s:y="10" s:pid="A"/>
    <g s:x="25" s:y="10" s:pid="Y"/>
  </g>
  <g s:type="not" transform="translate(419,14.5)" s:width="30" s:height="20" id="cell_$auto$aigmap.cc:132:execute$47">
    <s:alias val="$_NOT_"/>
    <s:alias val="$not"/>
    <s:alias val="$logic_not"/>
    <path d="M0,0 L0,20 L20,10 Z" class="cell_$auto$aigmap.cc:132:execute$47"/>
    <circle cx="23" cy="10" r="3" class="cell_$auto$aigmap.cc:132:execute$47"/>
    <g s:x="0" s:y="10" s:pid="A"/>
    <g s:x="25" s:y="10" s:pid="Y"/>
  </g>
  <g s:type="not" transform="translate(419,74.5)" s:width="30" s:height="20" id="cell_$auto$aigmap.cc:132:execute$51">
    <s:alias val="$_NOT_"/>
    <s:alias val="$not"/>
    <s:alias val="$logic_not"/>
    <path d="M0,0 L0,20 L20,10 Z" class="cell_$auto$aigmap.cc:132:execute$51"/>
    <circle cx="23" cy="10" r="3" class="cell_$auto$aigmap.cc:132:execute$51"/>
    <g s:x="0" s:y="10" s:pid="A"/>
    <g s:x="25" s:y="10" s:pid="Y"/>
  </g>
  <g s:type="not" transform="translate(549,67)" s:width="30" s:height="20" id="cell_$auto$aigmap.cc:132:execute$55">
    <s:alias val="$_NOT_"/>
    <s:alias val="$not"/>
    <s:alias val="$logic_not"/>
    <path d="M0,0 L0,20 L20,10 Z" class="cell_$auto$aigmap.cc:132:execute$55"/>
    <circle cx="23" cy="10" r="3" class="cell_$auto$aigmap.cc:132:execute$55"/>
    <g s:x="0" s:y="10" s:pid="A"/>
    <g s:x="25" s:y="10" s:pid="Y"/>
  </g>
  <g s:type="not" transform="translate(84,270)" s:width="30" s:height="20" id="cell_$auto$aigmap.cc:132:execute$57">
    <s:alias val="$_NOT_"/>
    <s:alias val="$not"/>
    <s:alias val="$logic_not"/>
    <path d="M0,0 L0,20 L20,10 Z" class="cell_$auto$aigmap.cc:132:execute$57"/>
    <circle cx="23" cy="10" r="3" class="cell_$auto$aigmap.cc:132:execute$57"/>
    <g s:x="0" s:y="10" s:pid="A"/>
    <g s:x="25" s:y="10" s:pid="Y"/>
  </g>
  <g s:type="not" transform="translate(84,325)" s:width="30" s:height="20" id="cell_$auto$aigmap.cc:132:execute$59">
    <s:alias val="$_NOT_"/>
    <s:alias val="$not"/>
    <s:alias val="$logic_not"/>
    <path d="M0,0 L0,20 L20,10 Z" class="cell_$auto$aigmap.cc:132:execute$59"/>
    <circle cx="23" cy="10" r="3" class="cell_$auto$aigmap.cc:132:execute$59"/>
    <g s:x="0" s:y="10" s:pid="A"/>
    <g s:x="25" s:y="10" s:pid="Y"/>
  </g>
  <g s:type="not" transform="translate(214,317.5)" s:width="30" s:height="20" id="cell_$auto$aigmap.cc:132:execute$63">
    <s:alias val="$_NOT_"/>
    <s:alias val="$not"/>
    <s:alias val="$logic_not"/>
    <path d="M0,0 L0,20 L20,10 Z" class="cell_$auto$aigmap.cc:132:execute$63"/>
    <circle cx="23" cy="10" r="3" class="cell_$auto$aigmap.cc:132:execute$63"/>
    <g s:x="0" s:y="10" s:pid="A"/>
    <g s:x="25" s:y="10" s:pid="Y"/>
  </g>
  <g s:type="not" transform="translate(214,377.5)" s:width="30" s:height="20" id="cell_$auto$aigmap.cc:132:execute$67">
    <s:alias val="$_NOT_"/>
    <s:alias val="$not"/>
    <s:alias val="$logic_not"/>
    <path d="M0,0 L0,20 L20,10 Z" class="cell_$auto$aigmap.cc:132:execute$67"/>
    <circle cx="23" cy="10" r="3" class="cell_$auto$aigmap.cc:132:execute$67"/>
    <g s:x="0" s:y="10" s:pid="A"/>
    <g s:x="25" s:y="10" s:pid="Y"/>
  </g>
  <g s:type="dff" transform="translate(662,326.5)" s:width="30" s:height="40" id="cell_$procdff$13">
    <s:alias val="$dff"/>
    <s:alias val="$_DFF_"/>
    <s:alias val="$_DFF_P_"/>
    <rect width="30" height="40" x="0" y="0" class="cell_$procdff$13"/>
    <path d="M0,35 L5,30 L0,25" class="cell_$procdff$13"/>
    <g s:x="30" s:y="10" s:pid="Q"/>
    <g s:x="0" s:y="30" s:pid="CLK"/>
    <g s:x="0" s:y="30" s:pid="C"/>
    <g s:x="0" s:y="10" s:pid="D"/>
  </g>
  <g s:type="inputExt" transform="translate(214,133.5)" s:width="30" s:height="20" id="cell_SW">
    <text x="15" y="-4" class="nodelabel cell_SW" s:attribute="ref">SW</text>
    <s:alias val="$_inputExt_"/>
    <path d="M0,0 L0,20 L15,20 L30,10 L15,0 Z" class="cell_SW"/>
    <g s:x="28" s:y="10" s:pid="Y"/>
  </g>
  <g s:type="inputExt" transform="translate(149,216.5)" s:width="30" s:height="20" id="cell_KEY">
    <text x="15" y="-4" class="nodelabel cell_KEY" s:attribute="ref">KEY</text>
    <s:alias val="$_inputExt_"/>
    <path d="M0,0 L0,20 L15,20 L30,10 L15,0 Z" class="cell_KEY"/>
    <g s:x="28" s:y="10" s:pid="Y"/>
  </g>
  <g s:type="outputExt" transform="translate(727,326.5)" s:width="30" s:height="20" id="cell_LEDR">
    <text x="15" y="-4" class="nodelabel cell_LEDR" s:attribute="ref">LEDR</text>
    <s:alias val="$_outputExt_"/>
    <path d="M30,0 L30,20 L15,20 L0,10 L15,0 Z" class="cell_LEDR"/>
    <g s:x="0" s:y="10" s:pid="A"/>
  </g>
  <g s:type="join" transform="translate(621,271)" s:width="4" s:height="40" id="cell_$join$,37,36,35,">
    <rect width="5" height="60" class="splitjoinBody" s:generic="body"/>
    <s:alias val="$_join_"/>
    <g s:x="5" s:y="20" s:pid="out"/>
    <g transform="translate(0,10)" s:x="0" s:y="10" s:pid="in0">
      <text x="-3" y="-4" class="inputPortLabel">0</text>
    </g>
    <g transform="translate(0,30)" s:x="0" s:y="10" s:pid="in0">
      <text x="-3" y="-4" class="inputPortLabel">1</text>
    </g>
    <g transform="translate(0,50)" s:x="0" s:y="10" s:pid="in0">
      <text x="-3" y="-4" class="inputPortLabel">2</text>
    </g>
  </g>
  <g s:type="split" transform="translate(228.33333333333334,206)" s:width="5" s:height="40" id="cell_$split$,5,6,">
    <rect width="5" height="40" class="splitjoinBody" s:generic="body"/>
    <s:alias val="$_split_"/>
    <g s:x="0" s:y="20" s:pid="in"/>
    <g transform="translate(4,10)" s:x="4" s:y="10" s:pid="out0">
      <text x="5" y="-4">1</text>
    </g>
    <g transform="translate(4,30)" s:x="4" s:y="10" s:pid="out0">
      <text x="5" y="-4">0</text>
    </g>
  </g>
  <g s:type="split" transform="translate(299.25,123)" s:width="5" s:height="40" id="cell_$split$,2,3,4,">
    <rect width="5" height="60" class="splitjoinBody" s:generic="body"/>
    <s:alias val="$_split_"/>
    <g s:x="0" s:y="20" s:pid="in"/>
    <g transform="translate(4,10)" s:x="4" s:y="10" s:pid="out0">
      <text x="5" y="-4">2</text>
    </g>
    <g transform="translate(4,30)" s:x="4" s:y="10" s:pid="out0">
      <text x="5" y="-4">1</text>
    </g>
    <g transform="translate(4,50)" s:x="4" s:y="10" s:pid="out0">
      <text x="5" y="-4">0</text>
    </g>
  </g>
  <g s:type="split" transform="translate(32,304.5)" s:width="5" s:height="40" id="cell_$split$,7,8,9,">
    <rect width="5" height="60" class="splitjoinBody" s:generic="body"/>
    <s:alias val="$_split_"/>
    <g s:x="0" s:y="20" s:pid="in"/>
    <g transform="translate(4,10)" s:x="4" s:y="10" s:pid="out0">
      <text x="5" y="-4">0</text>
    </g>
    <g transform="translate(4,30)" s:x="4" s:y="10" s:pid="out0">
      <text x="5" y="-4">2</text>
    </g>
    <g transform="translate(4,50)" s:x="4" s:y="10" s:pid="out0">
      <text x="5" y="-4">1</text>
    </g>
  </g>
  <line x1="233.33333333333334" x2="274" y1="216.5" y2="216.5" class="net_6"/>
  <line x1="274" x2="274" y1="216.5" y2="261.5" class="net_6"/>
  <circle cx="274" cy="216.5" r="2" style="fill:#000" class="net_6"/>
  <circle cx="274" cy="261.5" r="2" style="fill:#000" class="net_6"/>
  <line x1="274" x2="354" y1="261.5" y2="261.5" class="net_6"/>
  <line x1="233.33333333333334" x2="274" y1="216.5" y2="216.5" class="net_6"/>
  <line x1="274" x2="274" y1="216.5" y2="112" class="net_6"/>
  <line x1="274" x2="344" y1="112" y2="112" class="net_6"/>
  <line x1="344" x2="344" y1="112" y2="138.5" class="net_6"/>
  <circle cx="274" cy="112" r="2" style="fill:#000" class="net_6"/>
  <line x1="344" x2="354" y1="138.5" y2="138.5" class="net_6"/>
  <line x1="233.33333333333334" x2="274" y1="216.5" y2="216.5" class="net_6"/>
  <line x1="274" x2="274" y1="216.5" y2="17" class="net_6"/>
  <line x1="274" x2="354" y1="17" y2="17" class="net_6"/>
  <line x1="233.33333333333334" x2="274" y1="216.5" y2="216.5" class="net_6"/>
  <line x1="274" x2="274" y1="216.5" y2="336.5" class="net_6"/>
  <line x1="274" x2="284" y1="336.5" y2="336.5" class="net_6"/>
  <line x1="233.33333333333334" x2="284" y1="216.5" y2="216.5" class="net_6"/>
  <line x1="233.33333333333334" x2="274" y1="216.5" y2="216.5" class="net_6"/>
  <line x1="274" x2="274" y1="216.5" y2="92" class="net_6"/>
  <circle cx="274" cy="92" r="2" style="fill:#000" class="net_6"/>
  <line x1="274" x2="284" y1="92" y2="92" class="net_6"/>
  <line x1="304.25" x2="324" y1="133.5" y2="133.5" class="net_4"/>
  <line x1="324" x2="324" y1="133.5" y2="276.5" class="net_4"/>
  <line x1="324" x2="354" y1="276.5" y2="276.5" class="net_4"/>
  <line x1="314" x2="324" y1="380" y2="380" class="net_11"/>
  <line x1="324" x2="324" y1="380" y2="321.5" class="net_11"/>
  <line x1="324" x2="354" y1="321.5" y2="321.5" class="net_11"/>
  <line x1="309" x2="354" y1="336.5" y2="336.5" class="net_12"/>
  <line x1="444" x2="459" y1="269" y2="269" class="net_14"/>
  <line x1="459" x2="459" y1="269" y2="314" class="net_14"/>
  <line x1="459" x2="484" y1="314" y2="314" class="net_14"/>
  <line x1="444" x2="484" y1="329" y2="329" class="net_15"/>
  <line x1="304.25" x2="354" y1="153.5" y2="153.5" class="net_3"/>
  <line x1="37" x2="54" y1="315" y2="315" class="net_7"/>
  <line x1="54" x2="54" y1="315" y2="193" class="net_7"/>
  <line x1="54" x2="334" y1="193" y2="193" class="net_7"/>
  <line x1="334" x2="334" y1="193" y2="201.5" class="net_7"/>
  <line x1="334" x2="354" y1="201.5" y2="201.5" class="net_7"/>
  <line x1="309" x2="354" y1="216.5" y2="216.5" class="net_18"/>
  <line x1="444" x2="459" y1="146" y2="146" class="net_20"/>
  <line x1="459" x2="459" y1="146" y2="194" class="net_20"/>
  <line x1="459" x2="484" y1="194" y2="194" class="net_20"/>
  <line x1="444" x2="484" y1="209" y2="209" class="net_21"/>
  <line x1="304.25" x2="334" y1="173.5" y2="173.5" class="net_2"/>
  <line x1="334" x2="334" y1="173.5" y2="32" class="net_2"/>
  <line x1="334" x2="354" y1="32" y2="32" class="net_2"/>
  <line x1="37" x2="74" y1="335" y2="335" class="net_9"/>
  <line x1="74" x2="74" y1="335" y2="71" class="net_9"/>
  <line x1="74" x2="344" y1="71" y2="71" class="net_9"/>
  <line x1="344" x2="344" y1="71" y2="77" class="net_9"/>
  <circle cx="74" cy="335" r="2" style="fill:#000" class="net_9"/>
  <line x1="344" x2="354" y1="77" y2="77" class="net_9"/>
  <line x1="37" x2="74" y1="335" y2="335" class="net_9"/>
  <line x1="74" x2="74" y1="335" y2="380" class="net_9"/>
  <line x1="74" x2="149" y1="380" y2="380" class="net_9"/>
  <line x1="37" x2="84" y1="335" y2="335" class="net_9"/>
  <line x1="309" x2="354" y1="92" y2="92" class="net_24"/>
  <line x1="444" x2="459" y1="24.5" y2="24.5" class="net_26"/>
  <line x1="459" x2="459" y1="24.5" y2="69.5" class="net_26"/>
  <line x1="459" x2="484" y1="69.5" y2="69.5" class="net_26"/>
  <line x1="444" x2="484" y1="84.5" y2="84.5" class="net_27"/>
  <line x1="109" x2="124" y1="280" y2="280" class="net_29"/>
  <line x1="124" x2="124" y1="280" y2="320" class="net_29"/>
  <line x1="124" x2="149" y1="320" y2="320" class="net_29"/>
  <line x1="109" x2="149" y1="335" y2="335" class="net_30"/>
  <line x1="37" x2="64" y1="355" y2="355" class="net_8"/>
  <line x1="64" x2="64" y1="355" y2="395" class="net_8"/>
  <circle cx="64" cy="355" r="2" style="fill:#000" class="net_8"/>
  <line x1="64" x2="149" y1="395" y2="395" class="net_8"/>
  <line x1="37" x2="64" y1="355" y2="355" class="net_8"/>
  <line x1="64" x2="64" y1="355" y2="280" class="net_8"/>
  <line x1="64" x2="84" y1="280" y2="280" class="net_8"/>
  <line x1="239" x2="254" y1="327.5" y2="327.5" class="net_33"/>
  <line x1="254" x2="254" y1="327.5" y2="372.5" class="net_33"/>
  <line x1="254" x2="284" y1="372.5" y2="372.5" class="net_33"/>
  <line x1="239" x2="284" y1="387.5" y2="387.5" class="net_34"/>
  <line x1="384" x2="419" y1="269" y2="269" class="net_10"/>
  <line x1="384" x2="419" y1="329" y2="329" class="net_13"/>
  <line x1="514" x2="549" y1="321.5" y2="321.5" class="net_16"/>
  <line x1="384" x2="419" y1="146" y2="146" class="net_17"/>
  <line x1="384" x2="419" y1="209" y2="209" class="net_19"/>
  <line x1="514" x2="549" y1="201.5" y2="201.5" class="net_22"/>
  <line x1="384" x2="419" y1="24.5" y2="24.5" class="net_23"/>
  <line x1="384" x2="419" y1="84.5" y2="84.5" class="net_25"/>
  <line x1="514" x2="549" y1="77" y2="77" class="net_28"/>
  <line x1="179" x2="214" y1="327.5" y2="327.5" class="net_31"/>
  <line x1="179" x2="214" y1="387.5" y2="387.5" class="net_32"/>
  <line x1="233.33333333333334" x2="264" y1="236.5" y2="236.5" class="net_5"/>
  <line x1="264" x2="264" y1="236.5" y2="356.5" class="net_5"/>
  <line x1="264" x2="662" y1="356.5" y2="356.5" class="net_5"/>
  <line x1="627" x2="637" y1="291.5" y2="291.5" class="net_37,36,35"/>
  <line x1="637" x2="637" y1="291.5" y2="336.5" class="net_37,36,35"/>
  <line x1="637" x2="662" y1="336.5" y2="336.5" class="net_37,36,35"/>
  <line x1="692" x2="727" y1="336.5" y2="336.5" class="net_7,8,9"/>
  <line x1="692" x2="702" y1="336.5" y2="336.5" class="net_7,8,9"/>
  <line x1="702" x2="702" y1="336.5" y2="410" class="net_7,8,9"/>
  <line x1="702" x2="12" y1="410" y2="410" class="net_7,8,9"/>
  <line x1="12" x2="12" y1="410" y2="325" class="net_7,8,9"/>
  <circle cx="702" cy="336.5" r="2" style="fill:#000" class="net_7,8,9"/>
  <line x1="12" x2="32" y1="325" y2="325" class="net_7,8,9"/>
  <line x1="574" x2="599" y1="77" y2="77" class="net_37"/>
  <line x1="599" x2="599" y1="77" y2="281.5" class="net_37"/>
  <line x1="599" x2="621" y1="281.5" y2="281.5" class="net_37"/>
  <line x1="574" x2="589" y1="201.5" y2="201.5" class="net_36"/>
  <line x1="589" x2="589" y1="201.5" y2="301.5" class="net_36"/>
  <line x1="589" x2="621" y1="301.5" y2="301.5" class="net_36"/>
  <line x1="574" x2="621" y1="321.5" y2="321.5" class="net_35"/>
  <line x1="177" x2="228.33333333333334" y1="226.5" y2="226.5" class="net_5,6"/>
  <line x1="242" x2="299.25" y1="143.5" y2="143.5" class="net_2,3,4"/>
</svg>
