<?xml version="1.0" encoding="UTF-8" standalone="no"?>
<!DOCTYPE svg PUBLIC "-//W3C//DTD SVG 1.1//EN"
 "http://www.w3.org/Graphics/SVG/1.1/DTD/svg11.dtd">
<!-- Generated by graphviz version 4.0.0 (20220529.0937)
 -->
<!-- Title: top_module Pages: 1 -->
<svg width="1685pt" height="718pt"
 viewBox="0.00 0.00 1685.40 718.32" xmlns="http://www.w3.org/2000/svg" xmlns:xlink="http://www.w3.org/1999/xlink">
<g id="graph0" class="graph" transform="scale(1 1) rotate(0) translate(4 714.32)">
<title>top_module</title>
<polygon fill="white" stroke="transparent" points="-4,4 -4,-714.32 1681.4,-714.32 1681.4,4 -4,4"/>
<text text-anchor="middle" x="838.7" y="-7.8" font-family="Times New Roman,serif" font-size="14.00">top_module</text>
<!-- n1 -->
<g id="node1" class="node">
<title>n1</title>
<polygon fill="none" stroke="black" points="188.37,-431.73 79.95,-413.73 188.37,-395.73 296.79,-413.73 188.37,-431.73"/>
<text text-anchor="middle" x="188.37" y="-410.03" font-family="Times New Roman,serif" font-size="14.00">q_SB_DFF_Q_D</text>
</g>
<!-- x16 -->
<g id="node26" class="node">
<title>x16</title>
<path fill="none" stroke="black" d="M406.83,-414.73C406.83,-414.73 444.83,-414.73 444.83,-414.73 450.83,-414.73 456.83,-420.73 456.83,-426.73 456.83,-426.73 456.83,-438.73 456.83,-438.73 456.83,-444.73 450.83,-450.73 444.83,-450.73 444.83,-450.73 406.83,-450.73 406.83,-450.73 400.83,-450.73 394.83,-444.73 394.83,-438.73 394.83,-438.73 394.83,-426.73 394.83,-426.73 394.83,-420.73 400.83,-414.73 406.83,-414.73"/>
<text text-anchor="middle" x="425.83" y="-429.03" font-family="Times New Roman,serif" font-size="14.00">1:1 &#45; 0:0</text>
</g>
<!-- n1&#45;&gt;x16 -->
<g id="edge26" class="edge">
<title>n1:e&#45;&gt;x16:w</title>
<path fill="none" stroke="#e6ab02" d="M296.83,-413.73C337.56,-413.73 348.71,-429.74 384.58,-432.37"/>
<polygon fill="#e6ab02" stroke="#e6ab02" points="384.71,-435.88 394.83,-432.73 384.96,-428.88 384.71,-435.88"/>
</g>
<!-- x19 -->
<g id="node30" class="node">
<title>x19</title>
<path fill="none" stroke="black" d="M406.83,-372.73C406.83,-372.73 444.83,-372.73 444.83,-372.73 450.83,-372.73 456.83,-378.73 456.83,-384.73 456.83,-384.73 456.83,-396.73 456.83,-396.73 456.83,-402.73 450.83,-408.73 444.83,-408.73 444.83,-408.73 406.83,-408.73 406.83,-408.73 400.83,-408.73 394.83,-402.73 394.83,-396.73 394.83,-396.73 394.83,-384.73 394.83,-384.73 394.83,-378.73 400.83,-372.73 406.83,-372.73"/>
<text text-anchor="middle" x="425.83" y="-387.03" font-family="Times New Roman,serif" font-size="14.00">2:2 &#45; 0:0</text>
</g>
<!-- n1&#45;&gt;x19 -->
<g id="edge27" class="edge">
<title>n1:e&#45;&gt;x19:w</title>
<path fill="none" stroke="#e6ab02" d="M296.83,-413.73C306.18,-413.73 360.56,-397.66 384.69,-392.39"/>
<polygon fill="#e6ab02" stroke="#e6ab02" points="385.52,-395.8 394.83,-390.73 384.4,-388.89 385.52,-395.8"/>
</g>
<!-- x22 -->
<g id="node34" class="node">
<title>x22</title>
<path fill="none" stroke="black" d="M406.83,-498.73C406.83,-498.73 444.83,-498.73 444.83,-498.73 450.83,-498.73 456.83,-504.73 456.83,-510.73 456.83,-510.73 456.83,-522.73 456.83,-522.73 456.83,-528.73 450.83,-534.73 444.83,-534.73 444.83,-534.73 406.83,-534.73 406.83,-534.73 400.83,-534.73 394.83,-528.73 394.83,-522.73 394.83,-522.73 394.83,-510.73 394.83,-510.73 394.83,-504.73 400.83,-498.73 406.83,-498.73"/>
<text text-anchor="middle" x="425.83" y="-513.03" font-family="Times New Roman,serif" font-size="14.00">0:0 &#45; 0:0</text>
</g>
<!-- n1&#45;&gt;x22 -->
<g id="edge28" class="edge">
<title>n1:e&#45;&gt;x22:w</title>
<path fill="none" stroke="#e6ab02" d="M296.83,-413.73C309.81,-413.73 306.22,-427.01 314.83,-436.73 345.75,-471.66 344.88,-510.63 384.74,-516.09"/>
<polygon fill="#e6ab02" stroke="#e6ab02" points="384.63,-519.59 394.83,-516.73 385.07,-512.6 384.63,-519.59"/>
</g>
<!-- n2 -->
<g id="node2" class="node">
<title>n2</title>
<polygon fill="none" stroke="black" points="61.86,-485.28 61.86,-500.19 43.76,-510.73 18.15,-510.73 0.05,-500.19 0.05,-485.28 18.15,-474.73 43.76,-474.73 61.86,-485.28"/>
<text text-anchor="middle" x="30.95" y="-489.03" font-family="Times New Roman,serif" font-size="14.00">KEY</text>
</g>
<!-- x3 -->
<g id="node10" class="node">
<title>x3</title>
<path fill="none" stroke="black" d="M1064.83,-215.73C1064.83,-215.73 1102.83,-215.73 1102.83,-215.73 1108.83,-215.73 1114.83,-221.73 1114.83,-227.73 1114.83,-227.73 1114.83,-239.73 1114.83,-239.73 1114.83,-245.73 1108.83,-251.73 1102.83,-251.73 1102.83,-251.73 1064.83,-251.73 1064.83,-251.73 1058.83,-251.73 1052.83,-245.73 1052.83,-239.73 1052.83,-239.73 1052.83,-227.73 1052.83,-227.73 1052.83,-221.73 1058.83,-215.73 1064.83,-215.73"/>
<text text-anchor="middle" x="1083.83" y="-230.03" font-family="Times New Roman,serif" font-size="14.00">1:1 &#45; 0:0</text>
</g>
<!-- n2&#45;&gt;x3 -->
<g id="edge33" class="edge">
<title>n2:e&#45;&gt;x3:w</title>
<path fill="none" stroke="#1b9e77" d="M61.91,-492.73C86.88,-492.73 63.01,-287.12 79.91,-268.73 160.67,-180.85 225.47,-224.73 344.83,-224.73 344.83,-224.73 344.83,-224.73 932.83,-224.73 982.76,-224.73 997.44,-232.58 1042.69,-233.62"/>
<polygon fill="#1b9e77" stroke="#1b9e77" points="1042.79,-237.12 1052.83,-233.73 1042.87,-230.12 1042.79,-237.12"/>
</g>
<!-- x8 -->
<g id="node16" class="node">
<title>x8</title>
<path fill="none" stroke="black" d="M912.83,-668.73C912.83,-668.73 950.83,-668.73 950.83,-668.73 956.83,-668.73 962.83,-674.73 962.83,-680.73 962.83,-680.73 962.83,-692.73 962.83,-692.73 962.83,-698.73 956.83,-704.73 950.83,-704.73 950.83,-704.73 912.83,-704.73 912.83,-704.73 906.83,-704.73 900.83,-698.73 900.83,-692.73 900.83,-692.73 900.83,-680.73 900.83,-680.73 900.83,-674.73 906.83,-668.73 912.83,-668.73"/>
<text text-anchor="middle" x="931.83" y="-683.03" font-family="Times New Roman,serif" font-size="14.00">1:1 &#45; 0:0</text>
</g>
<!-- n2&#45;&gt;x8 -->
<g id="edge34" class="edge">
<title>n2:e&#45;&gt;x8:w</title>
<path fill="none" stroke="#1b9e77" d="M61.91,-492.73C98.35,-492.73 54.85,-629.27 79.91,-655.73 161.97,-742.4 225.47,-699.73 344.83,-699.73 344.83,-699.73 344.83,-699.73 772.83,-699.73 826.44,-699.73 841.77,-688.31 890.6,-686.88"/>
<polygon fill="#1b9e77" stroke="#1b9e77" points="890.88,-690.37 900.83,-686.73 890.78,-683.37 890.88,-690.37"/>
</g>
<!-- x13 -->
<g id="node22" class="node">
<title>x13</title>
<path fill="none" stroke="black" d="M752.83,-140.73C752.83,-140.73 790.83,-140.73 790.83,-140.73 796.83,-140.73 802.83,-146.73 802.83,-152.73 802.83,-152.73 802.83,-164.73 802.83,-164.73 802.83,-170.73 796.83,-176.73 790.83,-176.73 790.83,-176.73 752.83,-176.73 752.83,-176.73 746.83,-176.73 740.83,-170.73 740.83,-164.73 740.83,-164.73 740.83,-152.73 740.83,-152.73 740.83,-146.73 746.83,-140.73 752.83,-140.73"/>
<text text-anchor="middle" x="771.83" y="-155.03" font-family="Times New Roman,serif" font-size="14.00">1:1 &#45; 0:0</text>
</g>
<!-- n2&#45;&gt;x13 -->
<g id="edge29" class="edge">
<title>n2:e&#45;&gt;x13:w</title>
<path fill="none" stroke="#1b9e77" d="M61.91,-492.73C93.3,-492.73 57.87,-233.1 79.91,-210.73 180.99,-108.15 575.23,-156.43 730.51,-158.65"/>
<polygon fill="#1b9e77" stroke="#1b9e77" points="730.8,-162.16 740.83,-158.73 730.86,-155.16 730.8,-162.16"/>
</g>
<!-- x15 -->
<g id="node25" class="node">
<title>x15</title>
<path fill="none" stroke="black" d="M406.83,-456.73C406.83,-456.73 444.83,-456.73 444.83,-456.73 450.83,-456.73 456.83,-462.73 456.83,-468.73 456.83,-468.73 456.83,-480.73 456.83,-480.73 456.83,-486.73 450.83,-492.73 444.83,-492.73 444.83,-492.73 406.83,-492.73 406.83,-492.73 400.83,-492.73 394.83,-486.73 394.83,-480.73 394.83,-480.73 394.83,-468.73 394.83,-468.73 394.83,-462.73 400.83,-456.73 406.83,-456.73"/>
<text text-anchor="middle" x="425.83" y="-471.03" font-family="Times New Roman,serif" font-size="14.00">0:0 &#45; 0:0</text>
</g>
<!-- n2&#45;&gt;x15 -->
<g id="edge30" class="edge">
<title>n2:e&#45;&gt;x15:w</title>
<path fill="none" stroke="#1b9e77" d="M61.91,-492.73C206.62,-492.73 244.87,-475.57 384.59,-474.76"/>
<polygon fill="#1b9e77" stroke="#1b9e77" points="384.84,-478.26 394.83,-474.73 384.82,-471.26 384.84,-478.26"/>
</g>
<!-- x18 -->
<g id="node29" class="node">
<title>x18</title>
<path fill="none" stroke="black" d="M326.83,-253.73C326.83,-253.73 364.83,-253.73 364.83,-253.73 370.83,-253.73 376.83,-259.73 376.83,-265.73 376.83,-265.73 376.83,-277.73 376.83,-277.73 376.83,-283.73 370.83,-289.73 364.83,-289.73 364.83,-289.73 326.83,-289.73 326.83,-289.73 320.83,-289.73 314.83,-283.73 314.83,-277.73 314.83,-277.73 314.83,-265.73 314.83,-265.73 314.83,-259.73 320.83,-253.73 326.83,-253.73"/>
<text text-anchor="middle" x="345.83" y="-268.03" font-family="Times New Roman,serif" font-size="14.00">0:0 &#45; 0:0</text>
</g>
<!-- n2&#45;&gt;x18 -->
<g id="edge31" class="edge">
<title>n2:e&#45;&gt;x18:w</title>
<path fill="none" stroke="#1b9e77" d="M61.91,-492.73C85.8,-492.73 65.6,-405.87 79.91,-386.73 147.47,-296.35 195.69,-273.08 304.78,-271.79"/>
<polygon fill="#1b9e77" stroke="#1b9e77" points="304.85,-275.29 314.83,-271.73 304.81,-268.29 304.85,-275.29"/>
</g>
<!-- x21 -->
<g id="node33" class="node">
<title>x21</title>
<path fill="none" stroke="black" d="M326.83,-634.73C326.83,-634.73 364.83,-634.73 364.83,-634.73 370.83,-634.73 376.83,-640.73 376.83,-646.73 376.83,-646.73 376.83,-658.73 376.83,-658.73 376.83,-664.73 370.83,-670.73 364.83,-670.73 364.83,-670.73 326.83,-670.73 326.83,-670.73 320.83,-670.73 314.83,-664.73 314.83,-658.73 314.83,-658.73 314.83,-646.73 314.83,-646.73 314.83,-640.73 320.83,-634.73 326.83,-634.73"/>
<text text-anchor="middle" x="345.83" y="-649.03" font-family="Times New Roman,serif" font-size="14.00">0:0 &#45; 0:0</text>
</g>
<!-- n2&#45;&gt;x21 -->
<g id="edge32" class="edge">
<title>n2:e&#45;&gt;x21:w</title>
<path fill="none" stroke="#1b9e77" d="M61.91,-492.73C90.41,-492.73 59.74,-599.59 79.91,-619.73 152.1,-691.84 205.84,-655.29 304.79,-652.86"/>
<polygon fill="#1b9e77" stroke="#1b9e77" points="304.87,-656.36 314.83,-652.73 304.79,-649.36 304.87,-656.36"/>
</g>
<!-- n3 -->
<g id="node3" class="node">
<title>n3</title>
<polygon fill="none" stroke="black" points="1677.18,-402.28 1677.18,-417.19 1655.47,-427.73 1624.76,-427.73 1603.04,-417.19 1603.04,-402.28 1624.76,-391.73 1655.47,-391.73 1677.18,-402.28"/>
<text text-anchor="middle" x="1640.11" y="-406.03" font-family="Times New Roman,serif" font-size="14.00">LEDR</text>
</g>
<!-- n4 -->
<g id="node4" class="node">
<title>n4</title>
<polygon fill="none" stroke="black" points="57.95,-107.28 57.95,-122.19 42.14,-132.73 19.77,-132.73 3.95,-122.19 3.95,-107.28 19.77,-96.73 42.14,-96.73 57.95,-107.28"/>
<text text-anchor="middle" x="30.95" y="-111.03" font-family="Times New Roman,serif" font-size="14.00">SW</text>
</g>
<!-- x2 -->
<g id="node9" class="node">
<title>x2</title>
<path fill="none" stroke="black" d="M486.83,-96.73C486.83,-96.73 524.83,-96.73 524.83,-96.73 530.83,-96.73 536.83,-102.73 536.83,-108.73 536.83,-108.73 536.83,-120.73 536.83,-120.73 536.83,-126.73 530.83,-132.73 524.83,-132.73 524.83,-132.73 486.83,-132.73 486.83,-132.73 480.83,-132.73 474.83,-126.73 474.83,-120.73 474.83,-120.73 474.83,-108.73 474.83,-108.73 474.83,-102.73 480.83,-96.73 486.83,-96.73"/>
<text text-anchor="middle" x="505.83" y="-111.03" font-family="Times New Roman,serif" font-size="14.00">0:0 &#45; 0:0</text>
</g>
<!-- n4&#45;&gt;x2 -->
<g id="edge37" class="edge">
<title>n4:e&#45;&gt;x2:w</title>
<path fill="none" stroke="#a6761d" d="M58.95,-114.73C240.36,-114.73 288.23,-114.73 464.68,-114.73"/>
<polygon fill="#a6761d" stroke="#a6761d" points="464.83,-118.23 474.83,-114.73 464.83,-111.23 464.83,-118.23"/>
</g>
<!-- x5 -->
<g id="node13" class="node">
<title>x5</title>
<path fill="none" stroke="black" d="M752.83,-533.73C752.83,-533.73 790.83,-533.73 790.83,-533.73 796.83,-533.73 802.83,-539.73 802.83,-545.73 802.83,-545.73 802.83,-557.73 802.83,-557.73 802.83,-563.73 796.83,-569.73 790.83,-569.73 790.83,-569.73 752.83,-569.73 752.83,-569.73 746.83,-569.73 740.83,-563.73 740.83,-557.73 740.83,-557.73 740.83,-545.73 740.83,-545.73 740.83,-539.73 746.83,-533.73 752.83,-533.73"/>
<text text-anchor="middle" x="771.83" y="-548.03" font-family="Times New Roman,serif" font-size="14.00">2:2 &#45; 0:0</text>
</g>
<!-- n4&#45;&gt;x5 -->
<g id="edge38" class="edge">
<title>n4:e&#45;&gt;x5:w</title>
<path fill="none" stroke="#a6761d" d="M58.95,-114.73C95.25,-114.73 57.38,-412.27 79.91,-440.73 262.6,-671.55 438.79,-554.56 730.41,-551.78"/>
<polygon fill="#a6761d" stroke="#a6761d" points="730.85,-555.28 740.83,-551.73 730.81,-548.28 730.85,-555.28"/>
</g>
<!-- x11 -->
<g id="node20" class="node">
<title>x11</title>
<path fill="none" stroke="black" d="M486.83,-41.73C486.83,-41.73 524.83,-41.73 524.83,-41.73 530.83,-41.73 536.83,-47.73 536.83,-53.73 536.83,-53.73 536.83,-65.73 536.83,-65.73 536.83,-71.73 530.83,-77.73 524.83,-77.73 524.83,-77.73 486.83,-77.73 486.83,-77.73 480.83,-77.73 474.83,-71.73 474.83,-65.73 474.83,-65.73 474.83,-53.73 474.83,-53.73 474.83,-47.73 480.83,-41.73 486.83,-41.73"/>
<text text-anchor="middle" x="505.83" y="-56.03" font-family="Times New Roman,serif" font-size="14.00">1:1 &#45; 0:0</text>
</g>
<!-- n4&#45;&gt;x11 -->
<g id="edge36" class="edge">
<title>n4:e&#45;&gt;x11:w</title>
<path fill="none" stroke="#a6761d" d="M58.95,-114.73C68.43,-114.73 70.55,-112.23 79.91,-110.73 251.25,-83.34 296.11,-60.63 464.61,-59.76"/>
<polygon fill="#a6761d" stroke="#a6761d" points="464.84,-63.26 474.83,-59.73 464.82,-56.26 464.84,-63.26"/>
</g>
<!-- n5 -->
<g id="node5" class="node">
<title>n5</title>
<polygon fill="none" stroke="black" points="1007.83,-447.73 980.83,-429.73 1007.83,-411.73 1034.83,-429.73 1007.83,-447.73"/>
<text text-anchor="middle" x="1007.83" y="-426.03" font-family="Times New Roman,serif" font-size="14.00">q</text>
</g>
<!-- x1 -->
<g id="node8" class="node">
<title>x1</title>
<path fill="none" stroke="black" d="M1144.83,-266.73C1144.83,-266.73 1182.83,-266.73 1182.83,-266.73 1188.83,-266.73 1194.83,-272.73 1194.83,-278.73 1194.83,-278.73 1194.83,-290.73 1194.83,-290.73 1194.83,-296.73 1188.83,-302.73 1182.83,-302.73 1182.83,-302.73 1144.83,-302.73 1144.83,-302.73 1138.83,-302.73 1132.83,-296.73 1132.83,-290.73 1132.83,-290.73 1132.83,-278.73 1132.83,-278.73 1132.83,-272.73 1138.83,-266.73 1144.83,-266.73"/>
<text text-anchor="middle" x="1163.83" y="-281.03" font-family="Times New Roman,serif" font-size="14.00">2:2 &#45; 0:0</text>
</g>
<!-- n5&#45;&gt;x1 -->
<g id="edge43" class="edge">
<title>n5:e&#45;&gt;x1:w</title>
<path fill="none" stroke="#7570b3" stroke-width="3" d="M1034.83,-429.73C1062.67,-429.73 1038.92,-393.85 1052.83,-369.73 1076.93,-327.96 1080.52,-290.39 1122.6,-285.31"/>
<polygon fill="#7570b3" stroke="#7570b3" stroke-width="3" points="1123.04,-288.79 1132.83,-284.73 1122.65,-281.81 1123.04,-288.79"/>
<text text-anchor="middle" x="1083.83" y="-373.53" font-family="Times New Roman,serif" font-size="14.00" fill="#7570b3">&lt;3&gt;</text>
</g>
<!-- x6 -->
<g id="node14" class="node">
<title>x6</title>
<path fill="none" stroke="black" d="M1144.83,-490.73C1144.83,-490.73 1182.83,-490.73 1182.83,-490.73 1188.83,-490.73 1194.83,-496.73 1194.83,-502.73 1194.83,-502.73 1194.83,-514.73 1194.83,-514.73 1194.83,-520.73 1188.83,-526.73 1182.83,-526.73 1182.83,-526.73 1144.83,-526.73 1144.83,-526.73 1138.83,-526.73 1132.83,-520.73 1132.83,-514.73 1132.83,-514.73 1132.83,-502.73 1132.83,-502.73 1132.83,-496.73 1138.83,-490.73 1144.83,-490.73"/>
<text text-anchor="middle" x="1163.83" y="-505.03" font-family="Times New Roman,serif" font-size="14.00">2:2 &#45; 0:0</text>
</g>
<!-- n5&#45;&gt;x6 -->
<g id="edge45" class="edge">
<title>n5:e&#45;&gt;x6:w</title>
<path fill="none" stroke="#7570b3" stroke-width="3" d="M1034.83,-429.73C1057.2,-429.73 1037.13,-460.8 1052.83,-476.73 1077.19,-501.45 1091.65,-507.65 1122.65,-508.59"/>
<polygon fill="#7570b3" stroke="#7570b3" stroke-width="3" points="1122.78,-512.09 1132.83,-508.73 1122.88,-505.1 1122.78,-512.09"/>
<text text-anchor="middle" x="1083.83" y="-511.53" font-family="Times New Roman,serif" font-size="14.00" fill="#7570b3">&lt;3&gt;</text>
</g>
<!-- x7 -->
<g id="node15" class="node">
<title>x7</title>
<path fill="none" stroke="black" d="M1144.83,-442.73C1144.83,-442.73 1182.83,-442.73 1182.83,-442.73 1188.83,-442.73 1194.83,-448.73 1194.83,-454.73 1194.83,-454.73 1194.83,-466.73 1194.83,-466.73 1194.83,-472.73 1188.83,-478.73 1182.83,-478.73 1182.83,-478.73 1144.83,-478.73 1144.83,-478.73 1138.83,-478.73 1132.83,-472.73 1132.83,-466.73 1132.83,-466.73 1132.83,-454.73 1132.83,-454.73 1132.83,-448.73 1138.83,-442.73 1144.83,-442.73"/>
<text text-anchor="middle" x="1163.83" y="-457.03" font-family="Times New Roman,serif" font-size="14.00">1:1 &#45; 0:0</text>
</g>
<!-- n5&#45;&gt;x7 -->
<g id="edge46" class="edge">
<title>n5:e&#45;&gt;x7:w</title>
<path fill="none" stroke="#7570b3" stroke-width="3" d="M1034.83,-429.73C1076.94,-429.73 1085.87,-456.08 1122.8,-460.19"/>
<polygon fill="#7570b3" stroke="#7570b3" stroke-width="3" points="1122.66,-463.69 1132.83,-460.73 1123.03,-456.7 1122.66,-463.69"/>
<text text-anchor="middle" x="1083.83" y="-461.53" font-family="Times New Roman,serif" font-size="14.00" fill="#7570b3">&lt;3&gt;</text>
</g>
<!-- x12 -->
<g id="node21" class="node">
<title>x12</title>
<path fill="none" stroke="black" d="M1144.83,-77.73C1144.83,-77.73 1182.83,-77.73 1182.83,-77.73 1188.83,-77.73 1194.83,-83.73 1194.83,-89.73 1194.83,-89.73 1194.83,-101.73 1194.83,-101.73 1194.83,-107.73 1188.83,-113.73 1182.83,-113.73 1182.83,-113.73 1144.83,-113.73 1144.83,-113.73 1138.83,-113.73 1132.83,-107.73 1132.83,-101.73 1132.83,-101.73 1132.83,-89.73 1132.83,-89.73 1132.83,-83.73 1138.83,-77.73 1144.83,-77.73"/>
<text text-anchor="middle" x="1163.83" y="-92.03" font-family="Times New Roman,serif" font-size="14.00">0:0 &#45; 0:0</text>
</g>
<!-- n5&#45;&gt;x12 -->
<g id="edge42" class="edge">
<title>n5:e&#45;&gt;x12:w</title>
<path fill="none" stroke="#7570b3" stroke-width="3" d="M1034.83,-429.73C1061.46,-429.73 1042.76,-215.39 1052.83,-190.73 1072.34,-142.92 1077.05,-101.42 1122.78,-96.27"/>
<polygon fill="#7570b3" stroke="#7570b3" stroke-width="3" points="1123.03,-99.76 1132.83,-95.73 1122.66,-92.77 1123.03,-99.76"/>
<text text-anchor="middle" x="1083.83" y="-194.53" font-family="Times New Roman,serif" font-size="14.00" fill="#7570b3">&lt;3&gt;</text>
</g>
<!-- x24 -->
<g id="node36" class="node">
<title>x24</title>
<path fill="none" stroke="black" d="M1254.83,-427.73C1254.83,-427.73 1224.83,-427.73 1224.83,-427.73 1218.83,-427.73 1212.83,-421.73 1212.83,-415.73 1212.83,-415.73 1212.83,-403.73 1212.83,-403.73 1212.83,-397.73 1218.83,-391.73 1224.83,-391.73 1224.83,-391.73 1254.83,-391.73 1254.83,-391.73 1260.83,-391.73 1266.83,-397.73 1266.83,-403.73 1266.83,-403.73 1266.83,-415.73 1266.83,-415.73 1266.83,-421.73 1260.83,-427.73 1254.83,-427.73"/>
<text text-anchor="middle" x="1239.83" y="-406.03" font-family="Times New Roman,serif" font-size="14.00">BUF</text>
</g>
<!-- n5&#45;&gt;x24 -->
<g id="edge44" class="edge">
<title>n5:e&#45;&gt;x24:w</title>
<path fill="none" stroke="#7570b3" stroke-width="3" d="M1034.83,-429.73C1045.83,-429.73 1042.64,-416.89 1052.83,-412.73 1115.46,-387.15 1139.35,-407.52 1202.74,-409.57"/>
<polygon fill="#7570b3" stroke="#7570b3" stroke-width="3" points="1202.77,-413.07 1212.83,-409.73 1202.89,-406.07 1202.77,-413.07"/>
<text text-anchor="middle" x="1083.83" y="-416.53" font-family="Times New Roman,serif" font-size="14.00" fill="#7570b3">&lt;3&gt;</text>
</g>
<!-- v0 -->
<g id="node6" class="node">
<title>v0</title>
<ellipse fill="none" stroke="black" cx="1163.83" cy="-326.73" rx="27" ry="18"/>
<text text-anchor="middle" x="1163.83" y="-323.03" font-family="Times New Roman,serif" font-size="14.00">1&#39;0</text>
</g>
<!-- c11 -->
<g id="node7" class="node">
<title>c11</title>
<polygon fill="none" stroke="black" points="1284.83,-229.73 1284.83,-321.73 1462.83,-321.73 1462.83,-229.73 1284.83,-229.73"/>
<text text-anchor="middle" x="1298.83" y="-306.53" font-family="Times New Roman,serif" font-size="14.00">I0</text>
<polyline fill="none" stroke="black" points="1284.83,-298.73 1312.83,-298.73 "/>
<text text-anchor="middle" x="1298.83" y="-283.53" font-family="Times New Roman,serif" font-size="14.00">I1</text>
<polyline fill="none" stroke="black" points="1284.83,-275.73 1312.83,-275.73 "/>
<text text-anchor="middle" x="1298.83" y="-260.53" font-family="Times New Roman,serif" font-size="14.00">I2</text>
<polyline fill="none" stroke="black" points="1284.83,-252.73 1312.83,-252.73 "/>
<text text-anchor="middle" x="1298.83" y="-237.53" font-family="Times New Roman,serif" font-size="14.00">I3</text>
<polyline fill="none" stroke="black" points="1312.83,-229.73 1312.83,-321.73 "/>
<text text-anchor="middle" x="1374.33" y="-279.53" font-family="Times New Roman,serif" font-size="14.00">SW_SB_LUT4_I2</text>
<text text-anchor="middle" x="1374.33" y="-264.53" font-family="Times New Roman,serif" font-size="14.00">SB_LUT4</text>
<polyline fill="none" stroke="black" points="1435.83,-229.73 1435.83,-321.73 "/>
<text text-anchor="middle" x="1449.33" y="-272.03" font-family="Times New Roman,serif" font-size="14.00">O</text>
</g>
<!-- v0&#45;&gt;c11 -->
<g id="edge47" class="edge">
<title>v0:e&#45;&gt;c11:w</title>
<path fill="none" stroke="#e6ab02" d="M1191.83,-326.73C1230.16,-326.73 1241.08,-313.36 1274.7,-311.07"/>
<polygon fill="#e6ab02" stroke="#e6ab02" points="1274.95,-314.56 1284.83,-310.73 1274.72,-307.56 1274.95,-314.56"/>
</g>
<!-- x4 -->
<g id="node11" class="node">
<title>x4</title>
<path fill="none" stroke="black" d="M1534.83,-313.73C1534.83,-313.73 1572.83,-313.73 1572.83,-313.73 1578.83,-313.73 1584.83,-319.73 1584.83,-325.73 1584.83,-325.73 1584.83,-337.73 1584.83,-337.73 1584.83,-343.73 1578.83,-349.73 1572.83,-349.73 1572.83,-349.73 1534.83,-349.73 1534.83,-349.73 1528.83,-349.73 1522.83,-343.73 1522.83,-337.73 1522.83,-337.73 1522.83,-325.73 1522.83,-325.73 1522.83,-319.73 1528.83,-313.73 1534.83,-313.73"/>
<text text-anchor="middle" x="1553.83" y="-328.03" font-family="Times New Roman,serif" font-size="14.00">0:0 &#45; 0:0</text>
</g>
<!-- c11&#45;&gt;x4 -->
<g id="edge4" class="edge">
<title>c11:e&#45;&gt;x4:w</title>
<path fill="none" stroke="#7570b3" d="M1474.68,-278.28C1493.51,-287.61 1492.14,-319.81 1510.94,-329.16"/>
<polygon fill="none" stroke="#7570b3" points="1474.56,-278.26 1467.85,-280.9 1462.83,-275.73 1469.54,-273.08 1474.56,-278.26"/>
<polygon fill="none" stroke="#7570b3" points="1511.1,-329.2 1517.81,-326.56 1522.83,-331.73 1516.12,-334.37 1511.1,-329.2"/>
</g>
<!-- x1&#45;&gt;c11 -->
<g id="edge1" class="edge">
<title>x1:e&#45;&gt;c11:w</title>
<path fill="none" stroke="#66a61e" d="M1206.96,-284.83C1233.58,-285.29 1245.94,-287.17 1272.5,-287.63"/>
<polygon fill="none" stroke="#66a61e" points="1206.83,-284.83 1200.8,-288.78 1194.83,-284.73 1200.86,-280.78 1206.83,-284.83"/>
<polygon fill="none" stroke="#66a61e" points="1272.83,-287.63 1278.86,-283.68 1284.83,-287.73 1278.8,-291.68 1272.83,-287.63"/>
</g>
<!-- x2&#45;&gt;c11 -->
<g id="edge2" class="edge">
<title>x2:e&#45;&gt;c11:w</title>
<path fill="none" stroke="#1b9e77" d="M548.98,-114.65C643.27,-113.4 670.73,-97.73 770.83,-97.73 770.83,-97.73 770.83,-97.73 1008.83,-97.73 1056.35,-97.73 1078.1,-81.58 1114.83,-111.73 1134.06,-127.52 1117.57,-145.09 1132.83,-164.73 1179.68,-225.04 1201.82,-259.93 1272.55,-263.44"/>
<polygon fill="none" stroke="#1b9e77" points="548.83,-114.65 542.85,-118.69 536.83,-114.73 542.8,-110.69 548.83,-114.65"/>
<polygon fill="none" stroke="#1b9e77" points="1272.83,-263.44 1278.93,-259.59 1284.83,-263.73 1278.73,-267.59 1272.83,-263.44"/>
</g>
<!-- x3&#45;&gt;c11 -->
<g id="edge3" class="edge">
<title>x3:e&#45;&gt;c11:w</title>
<path fill="none" stroke="#1b9e77" d="M1127.15,-233.8C1188.91,-234.46 1210.91,-240.02 1272.79,-240.67"/>
<polygon fill="none" stroke="#1b9e77" points="1126.83,-233.79 1120.81,-237.76 1114.83,-233.73 1120.85,-229.76 1126.83,-233.79"/>
<polygon fill="none" stroke="#1b9e77" points="1272.83,-240.67 1278.85,-236.7 1284.83,-240.73 1278.81,-244.7 1272.83,-240.67"/>
</g>
<!-- x4&#45;&gt;n1 -->
<g id="edge24" class="edge">
<title>x4:e&#45;&gt;n1:w</title>
<path fill="none" stroke="#e6ab02" d="M1585.83,-331.73C1594.06,-331.73 1590.78,-344.54 1584.83,-350.23 1526.03,-406.43 934.16,-356.73 852.83,-356.73 424.83,-356.73 424.83,-356.73 424.83,-356.73 373.66,-356.73 353.01,-356.67 314.83,-390.73 299.98,-403.98 313.49,-420.85 296.83,-431.73 286.71,-438.34 88.14,-440.03 79.37,-431.73 77,-429.49 75.07,-426.1 74.15,-422.87"/>
<polygon fill="#e6ab02" stroke="#e6ab02" points="77.35,-424.28 78.37,-413.73 71,-421.34 77.35,-424.28"/>
</g>
<!-- c12 -->
<g id="node12" class="node">
<title>c12</title>
<polygon fill="none" stroke="black" points="1284.83,-503.73 1284.83,-595.73 1462.83,-595.73 1462.83,-503.73 1284.83,-503.73"/>
<text text-anchor="middle" x="1298.83" y="-580.53" font-family="Times New Roman,serif" font-size="14.00">I0</text>
<polyline fill="none" stroke="black" points="1284.83,-572.73 1312.83,-572.73 "/>
<text text-anchor="middle" x="1298.83" y="-557.53" font-family="Times New Roman,serif" font-size="14.00">I1</text>
<polyline fill="none" stroke="black" points="1284.83,-549.73 1312.83,-549.73 "/>
<text text-anchor="middle" x="1298.83" y="-534.53" font-family="Times New Roman,serif" font-size="14.00">I2</text>
<polyline fill="none" stroke="black" points="1284.83,-526.73 1312.83,-526.73 "/>
<text text-anchor="middle" x="1298.83" y="-511.53" font-family="Times New Roman,serif" font-size="14.00">I3</text>
<polyline fill="none" stroke="black" points="1312.83,-503.73 1312.83,-595.73 "/>
<text text-anchor="middle" x="1374.33" y="-553.53" font-family="Times New Roman,serif" font-size="14.00">SW_SB_LUT4_I0</text>
<text text-anchor="middle" x="1374.33" y="-538.53" font-family="Times New Roman,serif" font-size="14.00">SB_LUT4</text>
<polyline fill="none" stroke="black" points="1435.83,-503.73 1435.83,-595.73 "/>
<text text-anchor="middle" x="1449.33" y="-546.03" font-family="Times New Roman,serif" font-size="14.00">O</text>
</g>
<!-- x9 -->
<g id="node17" class="node">
<title>x9</title>
<path fill="none" stroke="black" d="M1534.83,-580.73C1534.83,-580.73 1572.83,-580.73 1572.83,-580.73 1578.83,-580.73 1584.83,-586.73 1584.83,-592.73 1584.83,-592.73 1584.83,-604.73 1584.83,-604.73 1584.83,-610.73 1578.83,-616.73 1572.83,-616.73 1572.83,-616.73 1534.83,-616.73 1534.83,-616.73 1528.83,-616.73 1522.83,-610.73 1522.83,-604.73 1522.83,-604.73 1522.83,-592.73 1522.83,-592.73 1522.83,-586.73 1528.83,-580.73 1534.83,-580.73"/>
<text text-anchor="middle" x="1553.83" y="-595.03" font-family="Times New Roman,serif" font-size="14.00">0:0 &#45; 2:2</text>
</g>
<!-- c12&#45;&gt;x9 -->
<g id="edge9" class="edge">
<title>c12:e&#45;&gt;x9:w</title>
<path fill="none" stroke="#1b9e77" d="M1474.74,-552.23C1492.38,-560.65 1493.33,-587.97 1511.05,-596.3"/>
<polygon fill="none" stroke="#1b9e77" points="1474.57,-552.19 1467.88,-554.88 1462.83,-549.73 1469.52,-547.05 1474.57,-552.19"/>
<polygon fill="none" stroke="#1b9e77" points="1511.08,-596.3 1517.76,-593.6 1522.83,-598.73 1516.14,-601.43 1511.08,-596.3"/>
</g>
<!-- x5&#45;&gt;c12 -->
<g id="edge5" class="edge">
<title>x5:e&#45;&gt;c12:w</title>
<path fill="none" stroke="#e7298a" d="M814.92,-551.77C1015.61,-552.95 1072,-583.5 1272.66,-584.7"/>
<polygon fill="none" stroke="#e7298a" points="814.83,-551.77 808.82,-555.75 802.83,-551.73 808.84,-547.75 814.83,-551.77"/>
<polygon fill="none" stroke="#e7298a" points="1272.83,-584.7 1278.84,-580.71 1284.83,-584.73 1278.82,-588.71 1272.83,-584.7"/>
</g>
<!-- x6&#45;&gt;c12 -->
<g id="edge6" class="edge">
<title>x6:e&#45;&gt;c12:w</title>
<path fill="none" stroke="#e7298a" d="M1206.86,-508.92C1231.85,-509.82 1243.77,-514.52 1266.83,-532.73 1273.99,-538.39 1273.56,-547.73 1275.38,-554.28"/>
<polygon fill="none" stroke="#e7298a" points="1206.83,-508.92 1200.77,-512.82 1194.83,-508.73 1200.89,-504.82 1206.83,-508.92"/>
<polygon fill="none" stroke="#e7298a" points="1275.41,-554.3 1282.59,-554.88 1284.83,-561.73 1277.64,-561.16 1275.41,-554.3"/>
</g>
<!-- x7&#45;&gt;c12 -->
<g id="edge7" class="edge">
<title>x7:e&#45;&gt;c12:w</title>
<path fill="none" stroke="#7570b3" d="M1206.9,-461.41C1234.59,-464.82 1244,-480.75 1266.83,-504.73 1274.12,-512.39 1272.7,-523.57 1274.91,-530.75"/>
<polygon fill="none" stroke="#7570b3" points="1206.81,-461.41 1200.59,-465.06 1194.83,-460.73 1201.04,-457.08 1206.81,-461.41"/>
<polygon fill="none" stroke="#7570b3" points="1275.02,-530.82 1282.22,-531.01 1284.83,-537.73 1277.62,-537.55 1275.02,-530.82"/>
</g>
<!-- x8&#45;&gt;c12 -->
<g id="edge8" class="edge">
<title>x8:e&#45;&gt;c12:w</title>
<path fill="none" stroke="#d95f02" d="M974.98,-686.59C1115.99,-683.15 1147.55,-619.18 1266.83,-532.73 1271.27,-529.52 1272.97,-525.19 1274.84,-521.59"/>
<polygon fill="none" stroke="#d95f02" points="974.83,-686.59 968.88,-690.66 962.83,-686.73 968.78,-682.66 974.83,-686.59"/>
<polygon fill="none" stroke="#d95f02" points="1274.94,-521.52 1277.62,-514.83 1284.83,-514.73 1282.15,-521.43 1274.94,-521.52"/>
</g>
<!-- x9&#45;&gt;n1 -->
<g id="edge25" class="edge">
<title>x9:e&#45;&gt;n1:w</title>
<path fill="none" stroke="#e6ab02" d="M1585.83,-598.73C1594.06,-598.73 1590.76,-611.53 1584.83,-617.23 1375.9,-818.08 1222.64,-626.73 932.83,-626.73 637.83,-626.73 637.83,-626.73 637.83,-626.73 563.02,-626.73 546.06,-607.6 474.83,-584.73 295.39,-527.12 190.18,-584.17 79.37,-431.73 77.6,-429.3 75.89,-426.16 74.87,-423.19"/>
<polygon fill="#e6ab02" stroke="#e6ab02" points="78.18,-424.32 78.37,-413.73 71.61,-421.9 78.18,-424.32"/>
</g>
<!-- v10 -->
<g id="node18" class="node">
<title>v10</title>
<ellipse fill="none" stroke="black" cx="1163.83" cy="-137.73" rx="27" ry="18"/>
<text text-anchor="middle" x="1163.83" y="-134.03" font-family="Times New Roman,serif" font-size="14.00">1&#39;0</text>
</g>
<!-- c13 -->
<g id="node19" class="node">
<title>c13</title>
<polygon fill="none" stroke="black" points="1284.83,-54.73 1284.83,-146.73 1462.83,-146.73 1462.83,-54.73 1284.83,-54.73"/>
<text text-anchor="middle" x="1298.83" y="-131.53" font-family="Times New Roman,serif" font-size="14.00">I0</text>
<polyline fill="none" stroke="black" points="1284.83,-123.73 1312.83,-123.73 "/>
<text text-anchor="middle" x="1298.83" y="-108.53" font-family="Times New Roman,serif" font-size="14.00">I1</text>
<polyline fill="none" stroke="black" points="1284.83,-100.73 1312.83,-100.73 "/>
<text text-anchor="middle" x="1298.83" y="-85.53" font-family="Times New Roman,serif" font-size="14.00">I2</text>
<polyline fill="none" stroke="black" points="1284.83,-77.73 1312.83,-77.73 "/>
<text text-anchor="middle" x="1298.83" y="-62.53" font-family="Times New Roman,serif" font-size="14.00">I3</text>
<polyline fill="none" stroke="black" points="1312.83,-54.73 1312.83,-146.73 "/>
<text text-anchor="middle" x="1374.33" y="-104.53" font-family="Times New Roman,serif" font-size="14.00">SW_SB_LUT4_I1</text>
<text text-anchor="middle" x="1374.33" y="-89.53" font-family="Times New Roman,serif" font-size="14.00">SB_LUT4</text>
<polyline fill="none" stroke="black" points="1435.83,-54.73 1435.83,-146.73 "/>
<text text-anchor="middle" x="1449.33" y="-97.03" font-family="Times New Roman,serif" font-size="14.00">O</text>
</g>
<!-- v10&#45;&gt;c13 -->
<g id="edge48" class="edge">
<title>v10:e&#45;&gt;c13:w</title>
<path fill="none" stroke="#7570b3" d="M1191.83,-137.73C1229.62,-137.73 1241.48,-136.06 1274.82,-135.77"/>
<polygon fill="#7570b3" stroke="#7570b3" points="1274.84,-139.27 1284.83,-135.73 1274.81,-132.27 1274.84,-139.27"/>
</g>
<!-- x14 -->
<g id="node23" class="node">
<title>x14</title>
<path fill="none" stroke="black" d="M1534.83,-128.73C1534.83,-128.73 1572.83,-128.73 1572.83,-128.73 1578.83,-128.73 1584.83,-134.73 1584.83,-140.73 1584.83,-140.73 1584.83,-152.73 1584.83,-152.73 1584.83,-158.73 1578.83,-164.73 1572.83,-164.73 1572.83,-164.73 1534.83,-164.73 1534.83,-164.73 1528.83,-164.73 1522.83,-158.73 1522.83,-152.73 1522.83,-152.73 1522.83,-140.73 1522.83,-140.73 1522.83,-134.73 1528.83,-128.73 1534.83,-128.73"/>
<text text-anchor="middle" x="1553.83" y="-143.03" font-family="Times New Roman,serif" font-size="14.00">0:0 &#45; 1:1</text>
</g>
<!-- c13&#45;&gt;x14 -->
<g id="edge13" class="edge">
<title>c13:e&#45;&gt;x14:w</title>
<path fill="none" stroke="#d95f02" d="M1474.81,-103.2C1491.86,-111.19 1493.78,-136.24 1510.82,-144.25"/>
<polygon fill="none" stroke="#d95f02" points="1474.58,-103.16 1467.9,-105.86 1462.83,-100.73 1469.51,-98.03 1474.58,-103.16"/>
<polygon fill="none" stroke="#d95f02" points="1511.08,-144.3 1517.76,-141.6 1522.83,-146.73 1516.14,-149.43 1511.08,-144.3"/>
</g>
<!-- x11&#45;&gt;c13 -->
<g id="edge10" class="edge">
<title>x11:e&#45;&gt;c13:w</title>
<path fill="none" stroke="#1b9e77" d="M548.96,-59.73C643.04,-59.73 670.99,-59.73 770.83,-59.73 770.83,-59.73 770.83,-59.73 1164.83,-59.73 1211.61,-59.73 1228.65,-58.69 1266.83,-85.73 1273.63,-90.55 1273.77,-98.82 1275.45,-104.94"/>
<polygon fill="none" stroke="#1b9e77" points="548.83,-59.73 542.83,-63.73 536.83,-59.73 542.83,-55.73 548.83,-59.73"/>
<polygon fill="none" stroke="#1b9e77" points="1275.6,-105.06 1282.77,-105.82 1284.83,-112.73 1277.66,-111.97 1275.6,-105.06"/>
</g>
<!-- x12&#45;&gt;c13 -->
<g id="edge11" class="edge">
<title>x12:e&#45;&gt;c13:w</title>
<path fill="none" stroke="#e6ab02" d="M1206.98,-95.5C1233.64,-94.44 1245.89,-90.05 1272.47,-88.97"/>
<polygon fill="none" stroke="#e6ab02" points="1206.83,-95.5 1200.9,-99.62 1194.83,-95.73 1200.75,-91.62 1206.83,-95.5"/>
<polygon fill="none" stroke="#e6ab02" points="1272.83,-88.97 1278.75,-84.85 1284.83,-88.73 1278.91,-92.85 1272.83,-88.97"/>
</g>
<!-- x13&#45;&gt;c13 -->
<g id="edge12" class="edge">
<title>x13:e&#45;&gt;c13:w</title>
<path fill="none" stroke="#e6ab02" d="M814.94,-158.43C925.5,-152.84 937.7,-70.54 1052.83,-45.73 1145.81,-25.69 1179.94,-7.04 1266.83,-45.73 1272.46,-48.24 1273.89,-53.48 1275.59,-57.97"/>
<polygon fill="none" stroke="#e6ab02" points="814.82,-158.43 808.93,-162.58 802.83,-158.73 808.73,-154.58 814.82,-158.43"/>
<polygon fill="none" stroke="#e6ab02" points="1275.64,-58.01 1282.81,-58.81 1284.83,-65.73 1277.66,-64.93 1275.64,-58.01"/>
</g>
<!-- x14&#45;&gt;n1 -->
<g id="edge23" class="edge">
<title>x14:e&#45;&gt;n1:w</title>
<path fill="none" stroke="#e6ab02" d="M1585.83,-146.73C1594.06,-146.73 1590.59,-159.35 1584.83,-165.23 1501.92,-249.99 1170.27,-189.47 1052.83,-205.73 969.96,-217.21 374.87,-296.49 314.83,-354.73 289.6,-379.2 324.36,-409.89 296.83,-431.73 287.36,-439.24 88.14,-440.03 79.37,-431.73 77,-429.49 75.07,-426.1 74.15,-422.87"/>
<polygon fill="#e6ab02" stroke="#e6ab02" points="77.35,-424.28 78.37,-413.73 71,-421.34 77.35,-424.28"/>
</g>
<!-- c17 -->
<g id="node24" class="node">
<title>c17</title>
<polygon fill="none" stroke="black" points="554.83,-430.73 554.83,-476.73 722.83,-476.73 722.83,-430.73 554.83,-430.73"/>
<text text-anchor="middle" x="567.83" y="-461.53" font-family="Times New Roman,serif" font-size="14.00">C</text>
<polyline fill="none" stroke="black" points="554.83,-453.73 580.83,-453.73 "/>
<text text-anchor="middle" x="567.83" y="-438.53" font-family="Times New Roman,serif" font-size="14.00">D</text>
<polyline fill="none" stroke="black" points="580.83,-430.73 580.83,-476.73 "/>
<text text-anchor="middle" x="638.33" y="-457.53" font-family="Times New Roman,serif" font-size="14.00">q_SB_DFF_Q_1</text>
<text text-anchor="middle" x="638.33" y="-442.53" font-family="Times New Roman,serif" font-size="14.00">SB_DFF</text>
<polyline fill="none" stroke="black" points="695.83,-430.73 695.83,-476.73 "/>
<text text-anchor="middle" x="709.33" y="-450.03" font-family="Times New Roman,serif" font-size="14.00">Q</text>
</g>
<!-- x17 -->
<g id="node27" class="node">
<title>x17</title>
<path fill="none" stroke="black" d="M832.83,-435.73C832.83,-435.73 870.83,-435.73 870.83,-435.73 876.83,-435.73 882.83,-441.73 882.83,-447.73 882.83,-447.73 882.83,-459.73 882.83,-459.73 882.83,-465.73 876.83,-471.73 870.83,-471.73 870.83,-471.73 832.83,-471.73 832.83,-471.73 826.83,-471.73 820.83,-465.73 820.83,-459.73 820.83,-459.73 820.83,-447.73 820.83,-447.73 820.83,-441.73 826.83,-435.73 832.83,-435.73"/>
<text text-anchor="middle" x="851.83" y="-450.03" font-family="Times New Roman,serif" font-size="14.00">0:0 &#45; 1:1</text>
</g>
<!-- c17&#45;&gt;x17 -->
<g id="edge16" class="edge">
<title>c17:e&#45;&gt;x17:w</title>
<path fill="none" stroke="#1b9e77" d="M735.16,-453.73C765.11,-453.73 778.54,-453.73 808.48,-453.73"/>
<polygon fill="none" stroke="#1b9e77" points="734.83,-453.73 728.83,-457.73 722.83,-453.73 728.83,-449.73 734.83,-453.73"/>
<polygon fill="none" stroke="#1b9e77" points="808.83,-453.73 814.83,-449.73 820.83,-453.73 814.83,-457.73 808.83,-453.73"/>
</g>
<!-- x15&#45;&gt;c17 -->
<g id="edge14" class="edge">
<title>x15:e&#45;&gt;c17:w</title>
<path fill="none" stroke="#d95f02" d="M469.2,-474.47C499.21,-473.16 512.43,-467.3 542.44,-465.99"/>
<polygon fill="none" stroke="#d95f02" points="468.83,-474.48 462.91,-478.6 456.83,-474.73 462.74,-470.61 468.83,-474.48"/>
<polygon fill="none" stroke="#d95f02" points="542.83,-465.98 548.75,-461.86 554.83,-465.73 548.91,-469.86 542.83,-465.98"/>
</g>
<!-- x16&#45;&gt;c17 -->
<g id="edge15" class="edge">
<title>x16:e&#45;&gt;c17:w</title>
<path fill="none" stroke="#d95f02" d="M469.2,-432.99C499.21,-434.3 512.43,-440.16 542.44,-441.47"/>
<polygon fill="none" stroke="#d95f02" points="468.83,-432.98 462.74,-436.86 456.83,-432.73 462.91,-428.86 468.83,-432.98"/>
<polygon fill="none" stroke="#d95f02" points="542.83,-441.48 548.91,-437.61 554.83,-441.73 548.75,-445.6 542.83,-441.48"/>
</g>
<!-- x17&#45;&gt;n5 -->
<g id="edge39" class="edge">
<title>x17:e&#45;&gt;n5:w</title>
<path fill="none" stroke="#7570b3" stroke-width="3" d="M882.83,-453.73C923.99,-453.73 934.38,-433.51 970.49,-430.19"/>
<polygon fill="#7570b3" stroke="#7570b3" stroke-width="3" points="970.99,-433.67 980.83,-429.73 970.68,-426.68 970.99,-433.67"/>
<text text-anchor="middle" x="931.83" y="-455.53" font-family="Times New Roman,serif" font-size="14.00" fill="#7570b3">&lt;3&gt;</text>
</g>
<!-- c18 -->
<g id="node28" class="node">
<title>c18</title>
<polygon fill="none" stroke="black" points="561.83,-378.73 561.83,-424.73 715.83,-424.73 715.83,-378.73 561.83,-378.73"/>
<text text-anchor="middle" x="574.83" y="-409.53" font-family="Times New Roman,serif" font-size="14.00">C</text>
<polyline fill="none" stroke="black" points="561.83,-401.73 587.83,-401.73 "/>
<text text-anchor="middle" x="574.83" y="-386.53" font-family="Times New Roman,serif" font-size="14.00">D</text>
<polyline fill="none" stroke="black" points="587.83,-378.73 587.83,-424.73 "/>
<text text-anchor="middle" x="638.33" y="-405.53" font-family="Times New Roman,serif" font-size="14.00">q_SB_DFF_Q</text>
<text text-anchor="middle" x="638.33" y="-390.53" font-family="Times New Roman,serif" font-size="14.00">SB_DFF</text>
<polyline fill="none" stroke="black" points="688.83,-378.73 688.83,-424.73 "/>
<text text-anchor="middle" x="702.33" y="-398.03" font-family="Times New Roman,serif" font-size="14.00">Q</text>
</g>
<!-- x20 -->
<g id="node31" class="node">
<title>x20</title>
<path fill="none" stroke="black" d="M832.83,-384.73C832.83,-384.73 870.83,-384.73 870.83,-384.73 876.83,-384.73 882.83,-390.73 882.83,-396.73 882.83,-396.73 882.83,-408.73 882.83,-408.73 882.83,-414.73 876.83,-420.73 870.83,-420.73 870.83,-420.73 832.83,-420.73 832.83,-420.73 826.83,-420.73 820.83,-414.73 820.83,-408.73 820.83,-408.73 820.83,-396.73 820.83,-396.73 820.83,-390.73 826.83,-384.73 832.83,-384.73"/>
<text text-anchor="middle" x="851.83" y="-399.03" font-family="Times New Roman,serif" font-size="14.00">0:0 &#45; 2:2</text>
</g>
<!-- c18&#45;&gt;x20 -->
<g id="edge19" class="edge">
<title>c18:e&#45;&gt;x20:w</title>
<path fill="none" stroke="#666666" d="M728.97,-401.76C761.67,-401.89 775.85,-402.57 808.46,-402.71"/>
<polygon fill="none" stroke="#666666" points="728.83,-401.76 722.82,-405.74 716.83,-401.73 722.84,-397.74 728.83,-401.76"/>
<polygon fill="none" stroke="#666666" points="808.83,-402.71 814.84,-398.72 820.83,-402.73 814.82,-406.72 808.83,-402.71"/>
</g>
<!-- x18&#45;&gt;c18 -->
<g id="edge17" class="edge">
<title>x18:e&#45;&gt;c18:w</title>
<path fill="none" stroke="#1b9e77" d="M389.1,-272.13C465.26,-277.24 474.96,-330.96 536.83,-386.73 544.47,-393.62 545.58,-402.76 549.61,-408.45"/>
<polygon fill="none" stroke="#1b9e77" points="388.82,-272.12 382.7,-275.92 376.83,-271.73 382.95,-267.93 388.82,-272.12"/>
<polygon fill="none" stroke="#1b9e77" points="549.97,-408.62 557.11,-407.56 560.83,-413.73 553.7,-414.79 549.97,-408.62"/>
</g>
<!-- x19&#45;&gt;c18 -->
<g id="edge18" class="edge">
<title>x19:e&#45;&gt;c18:w</title>
<path fill="none" stroke="#7570b3" d="M468.97,-390.71C501.67,-390.57 515.85,-389.9 548.46,-389.76"/>
<polygon fill="none" stroke="#7570b3" points="468.83,-390.71 462.84,-394.72 456.83,-390.73 462.82,-386.72 468.83,-390.71"/>
<polygon fill="none" stroke="#7570b3" points="548.83,-389.76 554.82,-385.74 560.83,-389.73 554.84,-393.74 548.83,-389.76"/>
</g>
<!-- x20&#45;&gt;n5 -->
<g id="edge40" class="edge">
<title>x20:e&#45;&gt;n5:w</title>
<path fill="none" stroke="#7570b3" stroke-width="3" d="M882.83,-402.73C918.61,-402.73 930.59,-396.21 962.83,-411.73 968.72,-414.57 970.04,-420.14 972.28,-424.34"/>
<polygon fill="#7570b3" stroke="#7570b3" stroke-width="3" points="970.5,-427.36 980.83,-429.73 974.24,-421.44 970.5,-427.36"/>
<text text-anchor="middle" x="931.83" y="-415.53" font-family="Times New Roman,serif" font-size="14.00" fill="#7570b3">&lt;3&gt;</text>
</g>
<!-- c19 -->
<g id="node32" class="node">
<title>c19</title>
<polygon fill="none" stroke="black" points="554.83,-488.73 554.83,-534.73 722.83,-534.73 722.83,-488.73 554.83,-488.73"/>
<text text-anchor="middle" x="567.83" y="-519.53" font-family="Times New Roman,serif" font-size="14.00">C</text>
<polyline fill="none" stroke="black" points="554.83,-511.73 580.83,-511.73 "/>
<text text-anchor="middle" x="567.83" y="-496.53" font-family="Times New Roman,serif" font-size="14.00">D</text>
<polyline fill="none" stroke="black" points="580.83,-488.73 580.83,-534.73 "/>
<text text-anchor="middle" x="638.33" y="-515.53" font-family="Times New Roman,serif" font-size="14.00">q_SB_DFF_Q_2</text>
<text text-anchor="middle" x="638.33" y="-500.53" font-family="Times New Roman,serif" font-size="14.00">SB_DFF</text>
<polyline fill="none" stroke="black" points="695.83,-488.73 695.83,-534.73 "/>
<text text-anchor="middle" x="709.33" y="-508.03" font-family="Times New Roman,serif" font-size="14.00">Q</text>
</g>
<!-- x23 -->
<g id="node35" class="node">
<title>x23</title>
<path fill="none" stroke="black" d="M832.83,-486.73C832.83,-486.73 870.83,-486.73 870.83,-486.73 876.83,-486.73 882.83,-492.73 882.83,-498.73 882.83,-498.73 882.83,-510.73 882.83,-510.73 882.83,-516.73 876.83,-522.73 870.83,-522.73 870.83,-522.73 832.83,-522.73 832.83,-522.73 826.83,-522.73 820.83,-516.73 820.83,-510.73 820.83,-510.73 820.83,-498.73 820.83,-498.73 820.83,-492.73 826.83,-486.73 832.83,-486.73"/>
<text text-anchor="middle" x="851.83" y="-501.03" font-family="Times New Roman,serif" font-size="14.00">0:0 &#45; 0:0</text>
</g>
<!-- c19&#45;&gt;x23 -->
<g id="edge22" class="edge">
<title>c19:e&#45;&gt;x23:w</title>
<path fill="none" stroke="#a6761d" d="M735.18,-511.53C765.17,-510.51 778.47,-505.95 808.45,-504.93"/>
<polygon fill="none" stroke="#a6761d" points="734.83,-511.54 728.89,-515.63 722.83,-511.73 728.76,-507.63 734.83,-511.54"/>
<polygon fill="none" stroke="#a6761d" points="808.83,-504.93 814.76,-500.83 820.83,-504.73 814.89,-508.83 808.83,-504.93"/>
</g>
<!-- x21&#45;&gt;c19 -->
<g id="edge20" class="edge">
<title>x21:e&#45;&gt;c19:w</title>
<path fill="none" stroke="#a6761d" d="M389.06,-652.01C469.28,-642.13 462.32,-534.55 542.37,-524.49"/>
<polygon fill="none" stroke="#a6761d" points="388.81,-652.02 383.05,-656.37 376.83,-652.73 382.58,-648.38 388.81,-652.02"/>
<polygon fill="none" stroke="#a6761d" points="542.85,-524.46 548.6,-520.1 554.83,-523.73 549.08,-528.09 542.85,-524.46"/>
</g>
<!-- x22&#45;&gt;c19 -->
<g id="edge21" class="edge">
<title>x22:e&#45;&gt;c19:w</title>
<path fill="none" stroke="#7570b3" d="M468.85,-516.28C499.48,-513.87 512.11,-502.63 542.68,-500.2"/>
<polygon fill="none" stroke="#7570b3" points="468.82,-516.28 462.98,-520.5 456.83,-516.73 462.67,-512.51 468.82,-516.28"/>
<polygon fill="none" stroke="#7570b3" points="542.84,-500.19 548.68,-495.96 554.83,-499.73 548.99,-503.96 542.84,-500.19"/>
</g>
<!-- x23&#45;&gt;n5 -->
<g id="edge41" class="edge">
<title>x23:e&#45;&gt;n5:w</title>
<path fill="none" stroke="#7570b3" stroke-width="3" d="M882.83,-504.73C921.46,-504.73 935.35,-497.89 962.83,-470.73 973.44,-460.24 967.07,-442.42 971.61,-434.17"/>
<polygon fill="#7570b3" stroke="#7570b3" stroke-width="3" points="973.34,-437.22 980.83,-429.73 970.3,-430.92 973.34,-437.22"/>
<text text-anchor="middle" x="931.83" y="-507.53" font-family="Times New Roman,serif" font-size="14.00" fill="#7570b3">&lt;3&gt;</text>
</g>
<!-- x24&#45;&gt;n3 -->
<g id="edge35" class="edge">
<title>x24:e&#45;&gt;n3:w</title>
<path fill="none" stroke="#66a61e" stroke-width="3" d="M1266.83,-409.73C1412.66,-409.73 1451.68,-409.73 1592.51,-409.73"/>
<polygon fill="#66a61e" stroke="#66a61e" stroke-width="3" points="1592.83,-413.23 1602.83,-409.73 1592.83,-406.23 1592.83,-413.23"/>
<text text-anchor="middle" x="1492.83" y="-413.53" font-family="Times New Roman,serif" font-size="14.00" fill="#66a61e">&lt;3&gt;</text>
</g>
</g>
</svg>
