<?xml version="1.0" encoding="UTF-8" standalone="no"?>
<!DOCTYPE svg PUBLIC "-//W3C//DTD SVG 1.1//EN"
 "http://www.w3.org/Graphics/SVG/1.1/DTD/svg11.dtd">
<!-- Generated by graphviz version 4.0.0 (20220529.0937)
 -->
<!-- Title: top_module Pages: 1 -->
<svg width="1369pt" height="586pt"
 viewBox="0.00 0.00 1369.08 586.00" xmlns="http://www.w3.org/2000/svg" xmlns:xlink="http://www.w3.org/1999/xlink">
<g id="graph0" class="graph" transform="scale(1 1) rotate(0) translate(4 582)">
<title>top_module</title>
<polygon fill="white" stroke="transparent" points="-4,4 -4,-582 1365.08,-582 1365.08,4 -4,4"/>
<text text-anchor="middle" x="680.54" y="-7.8" font-family="Times New Roman,serif" font-size="14.00">top_module</text>
<!-- n3 -->
<g id="node1" class="node">
<title>n3</title>
<polygon fill="none" stroke="black" points="61.86,-255.04 61.86,-269.96 43.76,-280.5 18.15,-280.5 0.05,-269.96 0.05,-255.04 18.15,-244.5 43.76,-244.5 61.86,-255.04"/>
<text text-anchor="middle" x="30.95" y="-258.8" font-family="Times New Roman,serif" font-size="14.00">KEY</text>
</g>
<!-- x0 -->
<g id="node6" class="node">
<title>x0</title>
<path fill="none" stroke="black" d="M110.91,-432.5C110.91,-432.5 148.91,-432.5 148.91,-432.5 154.91,-432.5 160.91,-438.5 160.91,-444.5 160.91,-444.5 160.91,-456.5 160.91,-456.5 160.91,-462.5 154.91,-468.5 148.91,-468.5 148.91,-468.5 110.91,-468.5 110.91,-468.5 104.91,-468.5 98.91,-462.5 98.91,-456.5 98.91,-456.5 98.91,-444.5 98.91,-444.5 98.91,-438.5 104.91,-432.5 110.91,-432.5"/>
<text text-anchor="middle" x="129.91" y="-446.8" font-family="Times New Roman,serif" font-size="14.00">0:0 &#45; 0:0</text>
</g>
<!-- n3&#45;&gt;x0 -->
<g id="edge20" class="edge">
<title>n3:e&#45;&gt;x0:w</title>
<path fill="none" stroke="#1b9e77" d="M61.91,-262.5C80.62,-262.5 78.57,-407.73 92.26,-442.9"/>
<polygon fill="#1b9e77" stroke="#1b9e77" points="89.69,-445.28 98.91,-450.5 94.96,-440.67 89.69,-445.28"/>
</g>
<!-- x2 -->
<g id="node9" class="node">
<title>x2</title>
<path fill="none" stroke="black" d="M711.91,-269.5C711.91,-269.5 749.91,-269.5 749.91,-269.5 755.91,-269.5 761.91,-275.5 761.91,-281.5 761.91,-281.5 761.91,-293.5 761.91,-293.5 761.91,-299.5 755.91,-305.5 749.91,-305.5 749.91,-305.5 711.91,-305.5 711.91,-305.5 705.91,-305.5 699.91,-299.5 699.91,-293.5 699.91,-293.5 699.91,-281.5 699.91,-281.5 699.91,-275.5 705.91,-269.5 711.91,-269.5"/>
<text text-anchor="middle" x="730.91" y="-283.8" font-family="Times New Roman,serif" font-size="14.00">1:1 &#45; 0:0</text>
</g>
<!-- n3&#45;&gt;x2 -->
<g id="edge22" class="edge">
<title>n3:e&#45;&gt;x2:w</title>
<path fill="none" stroke="#1b9e77" d="M61.91,-262.5C71.28,-262.5 71.32,-269.73 79.91,-273.5 100.65,-282.6 106.26,-287.5 128.91,-287.5 128.91,-287.5 128.91,-287.5 571.91,-287.5 625.24,-287.5 641.07,-287.5 689.72,-287.5"/>
<polygon fill="#1b9e77" stroke="#1b9e77" points="689.91,-291 699.91,-287.5 689.91,-284 689.91,-291"/>
</g>
<!-- x6 -->
<g id="node14" class="node">
<title>x6</title>
<path fill="none" stroke="black" d="M295.41,-114.5C295.41,-114.5 333.41,-114.5 333.41,-114.5 339.41,-114.5 345.41,-120.5 345.41,-126.5 345.41,-126.5 345.41,-138.5 345.41,-138.5 345.41,-144.5 339.41,-150.5 333.41,-150.5 333.41,-150.5 295.41,-150.5 295.41,-150.5 289.41,-150.5 283.41,-144.5 283.41,-138.5 283.41,-138.5 283.41,-126.5 283.41,-126.5 283.41,-120.5 289.41,-114.5 295.41,-114.5"/>
<text text-anchor="middle" x="314.41" y="-128.8" font-family="Times New Roman,serif" font-size="14.00">1:1 &#45; 0:0</text>
</g>
<!-- n3&#45;&gt;x6 -->
<g id="edge23" class="edge">
<title>n3:e&#45;&gt;x6:w</title>
<path fill="none" stroke="#1b9e77" d="M61.91,-262.5C81,-262.5 66.98,-237.54 79.91,-223.5 144.4,-153.47 181.1,-133.86 272.23,-132.57"/>
<polygon fill="#1b9e77" stroke="#1b9e77" points="272.43,-136.07 282.41,-132.5 272.38,-129.07 272.43,-136.07"/>
</g>
<!-- x10 -->
<g id="node19" class="node">
<title>x10</title>
<path fill="none" stroke="black" d="M399.91,-218.5C399.91,-218.5 437.91,-218.5 437.91,-218.5 443.91,-218.5 449.91,-224.5 449.91,-230.5 449.91,-230.5 449.91,-242.5 449.91,-242.5 449.91,-248.5 443.91,-254.5 437.91,-254.5 437.91,-254.5 399.91,-254.5 399.91,-254.5 393.91,-254.5 387.91,-248.5 387.91,-242.5 387.91,-242.5 387.91,-230.5 387.91,-230.5 387.91,-224.5 393.91,-218.5 399.91,-218.5"/>
<text text-anchor="middle" x="418.91" y="-232.8" font-family="Times New Roman,serif" font-size="14.00">1:1 &#45; 0:0</text>
</g>
<!-- n3&#45;&gt;x10 -->
<g id="edge21" class="edge">
<title>n3:e&#45;&gt;x10:w</title>
<path fill="none" stroke="#1b9e77" d="M61.91,-262.5C203.85,-262.5 240.84,-237.7 377.87,-236.54"/>
<polygon fill="#1b9e77" stroke="#1b9e77" points="377.92,-240.04 387.91,-236.5 377.89,-233.04 377.92,-240.04"/>
</g>
<!-- n4 -->
<g id="node2" class="node">
<title>n4</title>
<polygon fill="none" stroke="black" points="1360.86,-492.04 1360.86,-506.96 1339.15,-517.5 1308.44,-517.5 1286.72,-506.96 1286.72,-492.04 1308.44,-481.5 1339.15,-481.5 1360.86,-492.04"/>
<text text-anchor="middle" x="1323.79" y="-495.8" font-family="Times New Roman,serif" font-size="14.00">LEDR</text>
</g>
<!-- n5 -->
<g id="node3" class="node">
<title>n5</title>
<polygon fill="none" stroke="black" points="57.95,-72.04 57.95,-86.96 42.14,-97.5 19.77,-97.5 3.95,-86.96 3.95,-72.04 19.77,-61.5 42.14,-61.5 57.95,-72.04"/>
<text text-anchor="middle" x="30.95" y="-75.8" font-family="Times New Roman,serif" font-size="14.00">SW</text>
</g>
<!-- x1 -->
<g id="node8" class="node">
<title>x1</title>
<path fill="none" stroke="black" d="M190.91,-177.5C190.91,-177.5 228.91,-177.5 228.91,-177.5 234.91,-177.5 240.91,-183.5 240.91,-189.5 240.91,-189.5 240.91,-201.5 240.91,-201.5 240.91,-207.5 234.91,-213.5 228.91,-213.5 228.91,-213.5 190.91,-213.5 190.91,-213.5 184.91,-213.5 178.91,-207.5 178.91,-201.5 178.91,-201.5 178.91,-189.5 178.91,-189.5 178.91,-183.5 184.91,-177.5 190.91,-177.5"/>
<text text-anchor="middle" x="209.91" y="-191.8" font-family="Times New Roman,serif" font-size="14.00">2:2 &#45; 0:0</text>
</g>
<!-- n5&#45;&gt;x1 -->
<g id="edge25" class="edge">
<title>n5:e&#45;&gt;x1:w</title>
<path fill="none" stroke="#666666" d="M58.95,-79.5C75.25,-79.5 141.24,-169.11 169.57,-190.81"/>
<polygon fill="#666666" stroke="#666666" points="168.4,-194.14 178.91,-195.5 171.54,-187.88 168.4,-194.14"/>
</g>
<!-- x5 -->
<g id="node13" class="node">
<title>x5</title>
<path fill="none" stroke="black" d="M190.91,-23.5C190.91,-23.5 228.91,-23.5 228.91,-23.5 234.91,-23.5 240.91,-29.5 240.91,-35.5 240.91,-35.5 240.91,-47.5 240.91,-47.5 240.91,-53.5 234.91,-59.5 228.91,-59.5 228.91,-59.5 190.91,-59.5 190.91,-59.5 184.91,-59.5 178.91,-53.5 178.91,-47.5 178.91,-47.5 178.91,-35.5 178.91,-35.5 178.91,-29.5 184.91,-23.5 190.91,-23.5"/>
<text text-anchor="middle" x="209.91" y="-37.8" font-family="Times New Roman,serif" font-size="14.00">1:1 &#45; 0:0</text>
</g>
<!-- n5&#45;&gt;x5 -->
<g id="edge26" class="edge">
<title>n5:e&#45;&gt;x5:w</title>
<path fill="none" stroke="#666666" d="M58.95,-79.5C70.15,-79.5 69.65,-70 79.91,-65.5 118.13,-48.73 131.54,-42.48 168.87,-41.61"/>
<polygon fill="#666666" stroke="#666666" points="168.95,-45.11 178.91,-41.5 168.87,-38.11 168.95,-45.11"/>
</g>
<!-- x9 -->
<g id="node18" class="node">
<title>x9</title>
<path fill="none" stroke="black" d="M551.91,-97.5C551.91,-97.5 589.91,-97.5 589.91,-97.5 595.91,-97.5 601.91,-103.5 601.91,-109.5 601.91,-109.5 601.91,-121.5 601.91,-121.5 601.91,-127.5 595.91,-133.5 589.91,-133.5 589.91,-133.5 551.91,-133.5 551.91,-133.5 545.91,-133.5 539.91,-127.5 539.91,-121.5 539.91,-121.5 539.91,-109.5 539.91,-109.5 539.91,-103.5 545.91,-97.5 551.91,-97.5"/>
<text text-anchor="middle" x="570.91" y="-111.8" font-family="Times New Roman,serif" font-size="14.00">0:0 &#45; 0:0</text>
</g>
<!-- n5&#45;&gt;x9 -->
<g id="edge27" class="edge">
<title>n5:e&#45;&gt;x9:w</title>
<path fill="none" stroke="#666666" d="M58.95,-79.5C90.04,-79.5 97.82,-79.5 128.91,-79.5 128.91,-79.5 128.91,-79.5 419.91,-79.5 472,-79.5 482.92,-111.01 529.7,-115.07"/>
<polygon fill="#666666" stroke="#666666" points="529.77,-118.58 539.91,-115.5 530.06,-111.58 529.77,-118.58"/>
</g>
<!-- n6 -->
<g id="node4" class="node">
<title>n6</title>
<polygon fill="none" stroke="black" points="494.91,-433.5 467.91,-415.5 494.91,-397.5 521.91,-415.5 494.91,-433.5"/>
<text text-anchor="middle" x="494.91" y="-411.8" font-family="Times New Roman,serif" font-size="14.00">q</text>
</g>
<!-- x4 -->
<g id="node12" class="node">
<title>x4</title>
<path fill="none" stroke="black" d="M631.91,-184.5C631.91,-184.5 669.91,-184.5 669.91,-184.5 675.91,-184.5 681.91,-190.5 681.91,-196.5 681.91,-196.5 681.91,-208.5 681.91,-208.5 681.91,-214.5 675.91,-220.5 669.91,-220.5 669.91,-220.5 631.91,-220.5 631.91,-220.5 625.91,-220.5 619.91,-214.5 619.91,-208.5 619.91,-208.5 619.91,-196.5 619.91,-196.5 619.91,-190.5 625.91,-184.5 631.91,-184.5"/>
<text text-anchor="middle" x="650.91" y="-198.8" font-family="Times New Roman,serif" font-size="14.00">0:0 &#45; 0:0</text>
</g>
<!-- n6&#45;&gt;x4 -->
<g id="edge32" class="edge">
<title>n6:e&#45;&gt;x4:w</title>
<path fill="none" stroke="#a6761d" stroke-width="3" d="M521.91,-415.5C544.27,-415.5 531.28,-337.13 539.91,-316.5 562.38,-262.74 558.58,-209.17 609.7,-203.07"/>
<polygon fill="#a6761d" stroke="#a6761d" stroke-width="3" points="610.12,-206.56 619.91,-202.5 609.73,-199.57 610.12,-206.56"/>
<text text-anchor="middle" x="570.91" y="-320.3" font-family="Times New Roman,serif" font-size="14.00" fill="#a6761d">&lt;3&gt;</text>
</g>
<!-- x8 -->
<g id="node17" class="node">
<title>x8</title>
<path fill="none" stroke="black" d="M631.91,-316.5C631.91,-316.5 669.91,-316.5 669.91,-316.5 675.91,-316.5 681.91,-322.5 681.91,-328.5 681.91,-328.5 681.91,-340.5 681.91,-340.5 681.91,-346.5 675.91,-352.5 669.91,-352.5 669.91,-352.5 631.91,-352.5 631.91,-352.5 625.91,-352.5 619.91,-346.5 619.91,-340.5 619.91,-340.5 619.91,-328.5 619.91,-328.5 619.91,-322.5 625.91,-316.5 631.91,-316.5"/>
<text text-anchor="middle" x="650.91" y="-330.8" font-family="Times New Roman,serif" font-size="14.00">2:2 &#45; 0:0</text>
</g>
<!-- n6&#45;&gt;x8 -->
<g id="edge33" class="edge">
<title>n6:e&#45;&gt;x8:w</title>
<path fill="none" stroke="#a6761d" stroke-width="3" d="M521.91,-415.5C543.45,-415.5 525,-386.05 539.91,-370.5 564.36,-344.99 578.17,-336.15 609.57,-334.72"/>
<polygon fill="#a6761d" stroke="#a6761d" stroke-width="3" points="609.98,-338.21 619.91,-334.5 609.84,-331.21 609.98,-338.21"/>
<text text-anchor="middle" x="570.91" y="-374.3" font-family="Times New Roman,serif" font-size="14.00" fill="#a6761d">&lt;3&gt;</text>
</g>
<!-- x12 -->
<g id="node22" class="node">
<title>x12</title>
<path fill="none" stroke="black" d="M631.91,-426.5C631.91,-426.5 669.91,-426.5 669.91,-426.5 675.91,-426.5 681.91,-432.5 681.91,-438.5 681.91,-438.5 681.91,-450.5 681.91,-450.5 681.91,-456.5 675.91,-462.5 669.91,-462.5 669.91,-462.5 631.91,-462.5 631.91,-462.5 625.91,-462.5 619.91,-456.5 619.91,-450.5 619.91,-450.5 619.91,-438.5 619.91,-438.5 619.91,-432.5 625.91,-426.5 631.91,-426.5"/>
<text text-anchor="middle" x="650.91" y="-440.8" font-family="Times New Roman,serif" font-size="14.00">2:2 &#45; 0:0</text>
</g>
<!-- n6&#45;&gt;x12 -->
<g id="edge29" class="edge">
<title>n6:e&#45;&gt;x12:w</title>
<path fill="none" stroke="#a6761d" stroke-width="3" d="M521.91,-415.5C563.6,-415.5 573.05,-439.94 609.46,-443.95"/>
<polygon fill="#a6761d" stroke="#a6761d" stroke-width="3" points="609.74,-447.47 619.91,-444.5 610.11,-440.48 609.74,-447.47"/>
<text text-anchor="middle" x="570.91" y="-447.3" font-family="Times New Roman,serif" font-size="14.00" fill="#a6761d">&lt;3&gt;</text>
</g>
<!-- x13 -->
<g id="node23" class="node">
<title>x13</title>
<path fill="none" stroke="black" d="M631.91,-371.5C631.91,-371.5 669.91,-371.5 669.91,-371.5 675.91,-371.5 681.91,-377.5 681.91,-383.5 681.91,-383.5 681.91,-395.5 681.91,-395.5 681.91,-401.5 675.91,-407.5 669.91,-407.5 669.91,-407.5 631.91,-407.5 631.91,-407.5 625.91,-407.5 619.91,-401.5 619.91,-395.5 619.91,-395.5 619.91,-383.5 619.91,-383.5 619.91,-377.5 625.91,-371.5 631.91,-371.5"/>
<text text-anchor="middle" x="650.91" y="-385.8" font-family="Times New Roman,serif" font-size="14.00">1:1 &#45; 0:0</text>
</g>
<!-- n6&#45;&gt;x13 -->
<g id="edge30" class="edge">
<title>n6:e&#45;&gt;x13:w</title>
<path fill="none" stroke="#a6761d" stroke-width="3" d="M521.91,-415.5C532.61,-415.5 530.16,-403.92 539.91,-399.5 569.23,-386.21 581.52,-388.73 609.69,-389.38"/>
<polygon fill="#a6761d" stroke="#a6761d" stroke-width="3" points="609.87,-392.88 619.91,-389.5 609.95,-385.88 609.87,-392.88"/>
<text text-anchor="middle" x="570.91" y="-403.3" font-family="Times New Roman,serif" font-size="14.00" fill="#a6761d">&lt;3&gt;</text>
</g>
<!-- x14 -->
<g id="node24" class="node">
<title>x14</title>
<path fill="none" stroke="black" d="M938.91,-517.5C938.91,-517.5 908.91,-517.5 908.91,-517.5 902.91,-517.5 896.91,-511.5 896.91,-505.5 896.91,-505.5 896.91,-493.5 896.91,-493.5 896.91,-487.5 902.91,-481.5 908.91,-481.5 908.91,-481.5 938.91,-481.5 938.91,-481.5 944.91,-481.5 950.91,-487.5 950.91,-493.5 950.91,-493.5 950.91,-505.5 950.91,-505.5 950.91,-511.5 944.91,-517.5 938.91,-517.5"/>
<text text-anchor="middle" x="923.91" y="-495.8" font-family="Times New Roman,serif" font-size="14.00">BUF</text>
</g>
<!-- n6&#45;&gt;x14 -->
<g id="edge31" class="edge">
<title>n6:e&#45;&gt;x14:w</title>
<path fill="none" stroke="#a6761d" stroke-width="3" d="M521.91,-415.5C544.28,-415.5 522.22,-448.81 539.91,-462.5 557.8,-476.35 570,-499.01 886.49,-499.49"/>
<polygon fill="#a6761d" stroke="#a6761d" stroke-width="3" points="886.9,-502.99 896.91,-499.5 886.91,-495.99 886.9,-502.99"/>
<text text-anchor="middle" x="650.91" y="-498.3" font-family="Times New Roman,serif" font-size="14.00" fill="#a6761d">&lt;3&gt;</text>
</g>
<!-- c10 -->
<g id="node5" class="node">
<title>c10</title>
<polygon fill="none" stroke="black" points="258.91,-531.5 258.91,-577.5 369.91,-577.5 369.91,-531.5 258.91,-531.5"/>
<text text-anchor="middle" x="280.91" y="-562.3" font-family="Times New Roman,serif" font-size="14.00">CLK</text>
<polyline fill="none" stroke="black" points="258.91,-554.5 302.91,-554.5 "/>
<text text-anchor="middle" x="280.91" y="-539.3" font-family="Times New Roman,serif" font-size="14.00">D</text>
<polyline fill="none" stroke="black" points="302.91,-531.5 302.91,-577.5 "/>
<text text-anchor="middle" x="322.91" y="-558.3" font-family="Times New Roman,serif" font-size="14.00">$13</text>
<text text-anchor="middle" x="322.91" y="-543.3" font-family="Times New Roman,serif" font-size="14.00">$dff</text>
<polyline fill="none" stroke="black" points="342.91,-531.5 342.91,-577.5 "/>
<text text-anchor="middle" x="356.41" y="-550.8" font-family="Times New Roman,serif" font-size="14.00">Q</text>
</g>
<!-- c10&#45;&gt;n6 -->
<g id="edge28" class="edge">
<title>c10:e&#45;&gt;n6:w</title>
<path fill="none" stroke="#a6761d" stroke-width="3" d="M369.91,-554.5C441.8,-554.5 397.21,-428.74 457.73,-416.46"/>
<polygon fill="#a6761d" stroke="#a6761d" stroke-width="3" points="458.28,-419.93 467.91,-415.5 457.62,-412.96 458.28,-419.93"/>
<text text-anchor="middle" x="418.91" y="-554.3" font-family="Times New Roman,serif" font-size="14.00" fill="#a6761d">&lt;3&gt;</text>
</g>
<!-- x0&#45;&gt;c10 -->
<g id="edge1" class="edge">
<title>x0:e&#45;&gt;c10:w</title>
<path fill="none" stroke="#66a61e" d="M173.03,-451.97C220.37,-464.45 199.45,-552.72 246.91,-565.07"/>
<polygon fill="none" stroke="#66a61e" points="172.82,-451.94 166.38,-455.19 160.91,-450.5 167.34,-447.25 172.82,-451.94"/>
<polygon fill="none" stroke="#66a61e" points="246.99,-565.08 253.42,-561.82 258.91,-566.5 252.48,-569.76 246.99,-565.08"/>
</g>
<!-- c15 -->
<g id="node7" class="node">
<title>c15</title>
<polygon fill="none" stroke="black" points="968.91,-246 968.91,-315 1067.91,-315 1067.91,-246 968.91,-246"/>
<text text-anchor="middle" x="981.91" y="-299.8" font-family="Times New Roman,serif" font-size="14.00">A</text>
<polyline fill="none" stroke="black" points="968.91,-292 994.91,-292 "/>
<text text-anchor="middle" x="981.91" y="-276.8" font-family="Times New Roman,serif" font-size="14.00">B</text>
<polyline fill="none" stroke="black" points="968.91,-269 994.91,-269 "/>
<text text-anchor="middle" x="981.91" y="-253.8" font-family="Times New Roman,serif" font-size="14.00">S</text>
<polyline fill="none" stroke="black" points="994.91,-246 994.91,-315 "/>
<text text-anchor="middle" x="1018.41" y="-284.3" font-family="Times New Roman,serif" font-size="14.00">$11</text>
<text text-anchor="middle" x="1018.41" y="-269.3" font-family="Times New Roman,serif" font-size="14.00">$mux</text>
<polyline fill="none" stroke="black" points="1041.91,-246 1041.91,-315 "/>
<text text-anchor="middle" x="1054.91" y="-276.8" font-family="Times New Roman,serif" font-size="14.00">Y</text>
</g>
<!-- x3 -->
<g id="node10" class="node">
<title>x3</title>
<path fill="none" stroke="black" d="M1177.91,-253.5C1177.91,-253.5 1215.91,-253.5 1215.91,-253.5 1221.91,-253.5 1227.91,-259.5 1227.91,-265.5 1227.91,-265.5 1227.91,-277.5 1227.91,-277.5 1227.91,-283.5 1221.91,-289.5 1215.91,-289.5 1215.91,-289.5 1177.91,-289.5 1177.91,-289.5 1171.91,-289.5 1165.91,-283.5 1165.91,-277.5 1165.91,-277.5 1165.91,-265.5 1165.91,-265.5 1165.91,-259.5 1171.91,-253.5 1177.91,-253.5"/>
<text text-anchor="middle" x="1196.91" y="-267.8" font-family="Times New Roman,serif" font-size="14.00">0:0 &#45; 2:2</text>
</g>
<!-- c15&#45;&gt;x3 -->
<g id="edge4" class="edge">
<title>c15:e&#45;&gt;x3:w</title>
<path fill="none" stroke="#7570b3" d="M1080.28,-280.24C1110.29,-278.93 1123.51,-273.07 1153.51,-271.76"/>
<polygon fill="none" stroke="#7570b3" points="1079.9,-280.25 1073.99,-284.37 1067.91,-280.5 1073.82,-276.37 1079.9,-280.25"/>
<polygon fill="none" stroke="#7570b3" points="1153.91,-271.75 1159.82,-267.63 1165.91,-271.5 1159.99,-275.63 1153.91,-271.75"/>
</g>
<!-- x1&#45;&gt;c15 -->
<g id="edge2" class="edge">
<title>x1:e&#45;&gt;c15:w</title>
<path fill="none" stroke="#1b9e77" d="M253.06,-195.53C336.34,-196.01 361.57,-201.57 449.91,-212.5 490.15,-217.48 499.78,-221.68 539.91,-227.5 631.16,-240.74 854.03,-277.4 956.71,-280.32"/>
<polygon fill="none" stroke="#1b9e77" points="252.91,-195.53 246.9,-199.52 240.91,-195.5 246.92,-191.52 252.91,-195.53"/>
<polygon fill="none" stroke="#1b9e77" points="956.91,-280.32 962.97,-276.41 968.91,-280.5 962.85,-284.41 956.91,-280.32"/>
</g>
<!-- x2&#45;&gt;c15 -->
<g id="edge3" class="edge">
<title>x2:e&#45;&gt;c15:w</title>
<path fill="none" stroke="#1b9e77" d="M774.01,-287.32C853.02,-284.98 877.81,-260.01 956.84,-257.68"/>
<polygon fill="none" stroke="#1b9e77" points="773.91,-287.33 767.96,-291.41 761.91,-287.5 767.85,-283.41 773.91,-287.33"/>
<polygon fill="none" stroke="#1b9e77" points="956.91,-257.67 962.85,-253.59 968.91,-257.5 962.97,-261.59 956.91,-257.67"/>
</g>
<!-- n1 -->
<g id="node25" class="node">
<title>n1</title>
<ellipse fill="black" stroke="black" cx="1266.71" cy="-240.5" rx="1.8" ry="1.8"/>
</g>
<!-- x3&#45;&gt;n1 -->
<g id="edge16" class="edge">
<title>x3:e&#45;&gt;n1:w</title>
<path fill="none" stroke="#d95f02" d="M1227.91,-271.5C1245.17,-271.5 1244.72,-251.43 1255.06,-243.59"/>
<polygon fill="#d95f02" stroke="#d95f02" points="1256.41,-246.83 1264.91,-240.5 1254.32,-240.15 1256.41,-246.83"/>
</g>
<!-- c16 -->
<g id="node11" class="node">
<title>c16</title>
<polygon fill="none" stroke="black" points="779.91,-60 779.91,-129 878.91,-129 878.91,-60 779.91,-60"/>
<text text-anchor="middle" x="792.91" y="-113.8" font-family="Times New Roman,serif" font-size="14.00">A</text>
<polyline fill="none" stroke="black" points="779.91,-106 805.91,-106 "/>
<text text-anchor="middle" x="792.91" y="-90.8" font-family="Times New Roman,serif" font-size="14.00">B</text>
<polyline fill="none" stroke="black" points="779.91,-83 805.91,-83 "/>
<text text-anchor="middle" x="792.91" y="-67.8" font-family="Times New Roman,serif" font-size="14.00">S</text>
<polyline fill="none" stroke="black" points="805.91,-60 805.91,-129 "/>
<text text-anchor="middle" x="829.41" y="-98.3" font-family="Times New Roman,serif" font-size="14.00">$5</text>
<text text-anchor="middle" x="829.41" y="-83.3" font-family="Times New Roman,serif" font-size="14.00">$mux</text>
<polyline fill="none" stroke="black" points="852.91,-60 852.91,-129 "/>
<text text-anchor="middle" x="865.91" y="-90.8" font-family="Times New Roman,serif" font-size="14.00">Y</text>
</g>
<!-- x7 -->
<g id="node15" class="node">
<title>x7</title>
<path fill="none" stroke="black" d="M1097.91,-146.5C1097.91,-146.5 1135.91,-146.5 1135.91,-146.5 1141.91,-146.5 1147.91,-152.5 1147.91,-158.5 1147.91,-158.5 1147.91,-170.5 1147.91,-170.5 1147.91,-176.5 1141.91,-182.5 1135.91,-182.5 1135.91,-182.5 1097.91,-182.5 1097.91,-182.5 1091.91,-182.5 1085.91,-176.5 1085.91,-170.5 1085.91,-170.5 1085.91,-158.5 1085.91,-158.5 1085.91,-152.5 1091.91,-146.5 1097.91,-146.5"/>
<text text-anchor="middle" x="1116.91" y="-160.8" font-family="Times New Roman,serif" font-size="14.00">0:0 &#45; 1:1</text>
</g>
<!-- c16&#45;&gt;x7 -->
<g id="edge8" class="edge">
<title>c16:e&#45;&gt;x7:w</title>
<path fill="none" stroke="#d95f02" d="M890.97,-94.88C973.4,-100.14 991.41,-158.86 1073.84,-164.12"/>
<polygon fill="none" stroke="#d95f02" points="890.9,-94.87 884.78,-98.69 878.91,-94.5 885.03,-90.69 890.9,-94.87"/>
<polygon fill="none" stroke="#d95f02" points="1073.91,-164.13 1080.04,-160.31 1085.91,-164.5 1079.79,-168.31 1073.91,-164.13"/>
</g>
<!-- x4&#45;&gt;c16 -->
<g id="edge5" class="edge">
<title>x4:e&#45;&gt;c16:w</title>
<path fill="none" stroke="#e7298a" d="M693.84,-201.1C733.71,-190.97 728.06,-129.25 767.77,-118.96"/>
<polygon fill="none" stroke="#e7298a" points="693.83,-201.1 688.33,-205.77 681.91,-202.5 687.4,-197.83 693.83,-201.1"/>
<polygon fill="none" stroke="#e7298a" points="767.99,-118.93 773.47,-114.24 779.91,-117.5 774.43,-122.19 767.99,-118.93"/>
</g>
<!-- x5&#45;&gt;c16 -->
<g id="edge6" class="edge">
<title>x5:e&#45;&gt;c16:w</title>
<path fill="none" stroke="#e7298a" d="M253.09,-41.55C479.59,-43.27 541.16,-92.72 767.59,-94.45"/>
<polygon fill="none" stroke="#e7298a" points="252.91,-41.55 246.89,-45.52 240.91,-41.5 246.92,-37.52 252.91,-41.55"/>
<polygon fill="none" stroke="#e7298a" points="767.91,-94.45 773.92,-90.48 779.91,-94.5 773.89,-98.48 767.91,-94.45"/>
</g>
<!-- x6&#45;&gt;c16 -->
<g id="edge7" class="edge">
<title>x6:e&#45;&gt;c16:w</title>
<path fill="none" stroke="#7570b3" d="M358.77,-132.32C436.08,-130.05 457.42,-106.52 539.91,-94.5 641.8,-79.65 670.54,-72.1 767.71,-71.53"/>
<polygon fill="none" stroke="#7570b3" points="358.41,-132.33 352.46,-136.41 346.41,-132.5 352.35,-128.41 358.41,-132.33"/>
<polygon fill="none" stroke="#7570b3" points="767.91,-71.53 773.9,-67.52 779.91,-71.5 773.92,-75.52 767.91,-71.53"/>
</g>
<!-- x7&#45;&gt;n1 -->
<g id="edge17" class="edge">
<title>x7:e&#45;&gt;n1:w</title>
<path fill="none" stroke="#d95f02" d="M1147.91,-164.5C1148.11,-164.5 1229.56,-217.61 1256.43,-235.03"/>
<polygon fill="#d95f02" stroke="#d95f02" points="1254.61,-238.02 1264.91,-240.5 1258.4,-232.14 1254.61,-238.02"/>
</g>
<!-- c17 -->
<g id="node16" class="node">
<title>c17</title>
<polygon fill="none" stroke="black" points="779.91,-151 779.91,-220 878.91,-220 878.91,-151 779.91,-151"/>
<text text-anchor="middle" x="792.91" y="-204.8" font-family="Times New Roman,serif" font-size="14.00">A</text>
<polyline fill="none" stroke="black" points="779.91,-197 805.91,-197 "/>
<text text-anchor="middle" x="792.91" y="-181.8" font-family="Times New Roman,serif" font-size="14.00">B</text>
<polyline fill="none" stroke="black" points="779.91,-174 805.91,-174 "/>
<text text-anchor="middle" x="792.91" y="-158.8" font-family="Times New Roman,serif" font-size="14.00">S</text>
<polyline fill="none" stroke="black" points="805.91,-151 805.91,-220 "/>
<text text-anchor="middle" x="829.41" y="-189.3" font-family="Times New Roman,serif" font-size="14.00">$8</text>
<text text-anchor="middle" x="829.41" y="-174.3" font-family="Times New Roman,serif" font-size="14.00">$mux</text>
<polyline fill="none" stroke="black" points="852.91,-151 852.91,-220 "/>
<text text-anchor="middle" x="865.91" y="-181.8" font-family="Times New Roman,serif" font-size="14.00">Y</text>
</g>
<!-- x11 -->
<g id="node20" class="node">
<title>x11</title>
<path fill="none" stroke="black" d="M1097.91,-201.5C1097.91,-201.5 1135.91,-201.5 1135.91,-201.5 1141.91,-201.5 1147.91,-207.5 1147.91,-213.5 1147.91,-213.5 1147.91,-225.5 1147.91,-225.5 1147.91,-231.5 1141.91,-237.5 1135.91,-237.5 1135.91,-237.5 1097.91,-237.5 1097.91,-237.5 1091.91,-237.5 1085.91,-231.5 1085.91,-225.5 1085.91,-225.5 1085.91,-213.5 1085.91,-213.5 1085.91,-207.5 1091.91,-201.5 1097.91,-201.5"/>
<text text-anchor="middle" x="1116.91" y="-215.8" font-family="Times New Roman,serif" font-size="14.00">0:0 &#45; 0:0</text>
</g>
<!-- c17&#45;&gt;x11 -->
<g id="edge12" class="edge">
<title>c17:e&#45;&gt;x11:w</title>
<path fill="none" stroke="#e6ab02" d="M891.04,-185.7C970.24,-188.36 994.6,-216.65 1073.81,-219.3"/>
<polygon fill="none" stroke="#e6ab02" points="890.91,-185.7 884.84,-189.6 878.91,-185.5 884.97,-181.6 890.91,-185.7"/>
<polygon fill="none" stroke="#e6ab02" points="1073.91,-219.3 1079.97,-215.4 1085.91,-219.5 1079.84,-223.4 1073.91,-219.3"/>
</g>
<!-- x8&#45;&gt;c17 -->
<g id="edge9" class="edge">
<title>x8:e&#45;&gt;c17:w</title>
<path fill="none" stroke="#1b9e77" d="M694.08,-334.72C722.97,-335.65 739.92,-338.24 761.91,-314.5 775.16,-300.19 762.85,-238.59 770.88,-216.46"/>
<polygon fill="none" stroke="#1b9e77" points="693.91,-334.72 687.83,-338.61 681.91,-334.5 687.98,-330.61 693.91,-334.72"/>
<polygon fill="none" stroke="#1b9e77" points="770.91,-216.44 772.76,-209.47 779.91,-208.5 778.05,-215.47 770.91,-216.44"/>
</g>
<!-- x9&#45;&gt;c17 -->
<g id="edge10" class="edge">
<title>x9:e&#45;&gt;c17:w</title>
<path fill="none" stroke="#1b9e77" d="M614.17,-115.32C677.74,-113.51 708.82,-99.29 761.91,-141.5 773.54,-150.75 767.26,-168.74 769.86,-178.61"/>
<polygon fill="none" stroke="#1b9e77" points="613.91,-115.33 607.96,-119.41 601.91,-115.5 607.85,-111.41 613.91,-115.33"/>
<polygon fill="none" stroke="#1b9e77" points="770.01,-178.72 777.22,-178.81 779.91,-185.5 772.7,-185.41 770.01,-178.72"/>
</g>
<!-- x10&#45;&gt;c17 -->
<g id="edge11" class="edge">
<title>x10:e&#45;&gt;c17:w</title>
<path fill="none" stroke="#e6ab02" d="M461.94,-235.9C494.54,-232.42 503.66,-214.66 539.91,-201.5 575.18,-188.7 583.13,-181.96 619.91,-174.5 685.7,-161.15 706.22,-162.3 767.89,-162.48"/>
<polygon fill="none" stroke="#e6ab02" points="461.89,-235.9 456.1,-240.19 449.91,-236.5 455.7,-232.2 461.89,-235.9"/>
<polygon fill="none" stroke="#e6ab02" points="767.91,-162.48 773.91,-158.49 779.91,-162.5 773.9,-166.49 767.91,-162.48"/>
</g>
<!-- x11&#45;&gt;n1 -->
<g id="edge15" class="edge">
<title>x11:e&#45;&gt;n1:w</title>
<path fill="none" stroke="#d95f02" d="M1147.91,-219.5C1197.23,-219.5 1210.39,-237.8 1254.91,-240.23"/>
<polygon fill="#d95f02" stroke="#d95f02" points="1254.82,-243.73 1264.91,-240.5 1255,-236.74 1254.82,-243.73"/>
</g>
<!-- c18 -->
<g id="node21" class="node">
<title>c18</title>
<polygon fill="none" stroke="black" points="782.41,-378.5 782.41,-424.5 876.41,-424.5 876.41,-378.5 782.41,-378.5"/>
<text text-anchor="middle" x="795.41" y="-409.3" font-family="Times New Roman,serif" font-size="14.00">A</text>
<polyline fill="none" stroke="black" points="782.41,-401.5 808.41,-401.5 "/>
<text text-anchor="middle" x="795.41" y="-386.3" font-family="Times New Roman,serif" font-size="14.00">B</text>
<polyline fill="none" stroke="black" points="808.41,-378.5 808.41,-424.5 "/>
<text text-anchor="middle" x="829.41" y="-405.3" font-family="Times New Roman,serif" font-size="14.00">$2</text>
<text text-anchor="middle" x="829.41" y="-390.3" font-family="Times New Roman,serif" font-size="14.00">$xor</text>
<polyline fill="none" stroke="black" points="850.41,-378.5 850.41,-424.5 "/>
<text text-anchor="middle" x="863.41" y="-397.8" font-family="Times New Roman,serif" font-size="14.00">Y</text>
</g>
<!-- c18&#45;&gt;c15 -->
<g id="edge19" class="edge">
<title>c18:e&#45;&gt;c15:w</title>
<path fill="none" stroke="#1b9e77" d="M877.41,-401.5C933.27,-401.5 912.44,-315.37 958.71,-304.6"/>
<polygon fill="#1b9e77" stroke="#1b9e77" points="959.34,-308.05 968.91,-303.5 958.59,-301.09 959.34,-308.05"/>
</g>
<!-- x12&#45;&gt;c18 -->
<g id="edge13" class="edge">
<title>x12:e&#45;&gt;c18:w</title>
<path fill="none" stroke="#d95f02" d="M693.96,-443.73C726.07,-439.46 737.12,-418.64 769.14,-414.3"/>
<polygon fill="none" stroke="#d95f02" points="693.88,-443.74 688.15,-448.11 681.91,-444.5 687.64,-440.13 693.88,-443.74"/>
<polygon fill="none" stroke="#d95f02" points="769.43,-414.28 775.16,-409.9 781.41,-413.5 775.68,-417.88 769.43,-414.28"/>
</g>
<!-- x13&#45;&gt;c18 -->
<g id="edge14" class="edge">
<title>x13:e&#45;&gt;c18:w</title>
<path fill="none" stroke="#d95f02" d="M693.98,-389.5C724.82,-389.5 738.42,-389.5 769.22,-389.5"/>
<polygon fill="none" stroke="#d95f02" points="693.91,-389.5 687.91,-393.5 681.91,-389.5 687.91,-385.5 693.91,-389.5"/>
<polygon fill="none" stroke="#d95f02" points="769.41,-389.5 775.41,-385.5 781.41,-389.5 775.41,-393.5 769.41,-389.5"/>
</g>
<!-- x14&#45;&gt;n4 -->
<g id="edge24" class="edge">
<title>x14:e&#45;&gt;n4:w</title>
<path fill="none" stroke="#7570b3" stroke-width="3" d="M950.91,-499.5C1096.57,-499.5 1135.54,-499.5 1276.2,-499.5"/>
<polygon fill="#7570b3" stroke="#7570b3" stroke-width="3" points="1276.51,-503 1286.51,-499.5 1276.51,-496 1276.51,-503"/>
<text text-anchor="middle" x="1196.91" y="-503.3" font-family="Times New Roman,serif" font-size="14.00" fill="#7570b3">&lt;3&gt;</text>
</g>
<!-- n1&#45;&gt;c10 -->
<g id="edge18" class="edge">
<title>n1:e&#45;&gt;c10:w</title>
<path fill="none" stroke="#d95f02" d="M1269.71,-240.5C1285.33,-240.5 1235.7,-504.97 1227.91,-518.5 1219.38,-533.3 1214.98,-542.5 1197.91,-542.5 493.91,-542.5 493.91,-542.5 493.91,-542.5 438.56,-542.5 425.2,-533.56 369.91,-531 320.4,-528.71 294.93,-497.51 258.41,-531 257.93,-531.43 257.48,-531.94 257.07,-532.49"/>
<polygon fill="#d95f02" stroke="#d95f02" points="253.57,-532.62 257.41,-542.5 260.57,-532.39 253.57,-532.62"/>
</g>
</g>
</svg>
