<svg xmlns="http://www.w3.org/2000/svg" xmlns:xlink="http://www.w3.org/1999/xlink" xmlns:s="https://github.com/nturley/netlistsvg" width="400" height="339">
  <style>svg {
    stroke:#000;
    fill:none;
  }
  text {
    fill:#000;
    stroke:none;
    font-size:10px;
    font-weight: bold;
    font-family: "Courier New", monospace;
  }
  .nodelabel {
    text-anchor: middle;
  }
  .inputPortLabel {
    text-anchor: end;
  }
  .splitjoinBody {
    fill:#000;
  }</style>
  <g s:type="dff" transform="translate(293,266.5)" s:width="30" s:height="40" id="cell_$procdff$13">
    <s:alias val="$dff"/>
    <s:alias val="$_DFF_"/>
    <s:alias val="$_DFF_P_"/>
    <rect width="30" height="40" x="0" y="0" class="cell_$procdff$13"/>
    <path d="M0,35 L5,30 L0,25" class="cell_$procdff$13"/>
    <g s:x="30" s:y="10" s:pid="Q"/>
    <g s:x="0" s:y="30" s:pid="CLK"/>
    <g s:x="0" s:y="30" s:pid="C"/>
    <g s:x="0" s:y="10" s:pid="D"/>
  </g>
  <g s:type="mux" transform="translate(190,186.5)" s:width="20" s:height="40" id="cell_$procmux$11">
    <s:alias val="$pmux"/>
    <s:alias val="$mux"/>
    <s:alias val="$_MUX_"/>
    <path d="M0,0 L20,10 L20,30 L0,40 Z" class="cell_$procmux$11"/>
    <g s:x="0" s:y="10" s:pid="A"/>
    <g s:x="0" s:y="30" s:pid="B"/>
    <g s:x="10" s:y="35" s:pid="S"/>
    <g s:x="20" s:y="20" s:pid="Y"/>
  </g>
  <g s:type="mux" transform="translate(190,23)" s:width="20" s:height="40" id="cell_$procmux$5">
    <s:alias val="$pmux"/>
    <s:alias val="$mux"/>
    <s:alias val="$_MUX_"/>
    <path d="M0,0 L20,10 L20,30 L0,40 Z" class="cell_$procmux$5"/>
    <g s:x="0" s:y="10" s:pid="A"/>
    <g s:x="0" s:y="30" s:pid="B"/>
    <g s:x="10" s:y="35" s:pid="S"/>
    <g s:x="20" s:y="20" s:pid="Y"/>
  </g>
  <g s:type="mux" transform="translate(190,246.5)" s:width="20" s:height="40" id="cell_$procmux$8">
    <s:alias val="$pmux"/>
    <s:alias val="$mux"/>
    <s:alias val="$_MUX_"/>
    <path d="M0,0 L20,10 L20,30 L0,40 Z" class="cell_$procmux$8"/>
    <g s:x="0" s:y="10" s:pid="A"/>
    <g s:x="0" s:y="30" s:pid="B"/>
    <g s:x="10" s:y="35" s:pid="S"/>
    <g s:x="20" s:y="20" s:pid="Y"/>
  </g>
  <g s:type="reduce_xor" transform="translate(97,142)" s:width="33" s:height="25" id="cell_$xor$top_module.v:22$2">
    <s:alias val="$xor"/>
    <s:alias val="$reduce_xor"/>
    <s:alias val="$_XOR_"/>
    <path d="M3,0 A30 25 0 0 1 3,25 A30 25 0 0 0 33,12.5 A30 25 0 0 0 3,0" class="cell_$xor$top_module.v:22$2"/>
    <path d="M0,0 A30 25 0 0 1 0,25" class="cell_$xor$top_module.v:22$2"/>
    <g s:x="3" s:y="5" s:pid="A"/>
    <g s:x="3" s:y="20" s:pid="B"/>
    <g s:x="33" s:y="12.5" s:pid="Y"/>
  </g>
  <g s:type="inputExt" transform="translate(32,216.5)" s:width="30" s:height="20" id="cell_SW">
    <text x="15" y="-4" class="nodelabel cell_SW" s:attribute="ref">SW</text>
    <s:alias val="$_inputExt_"/>
    <path d="M0,0 L0,20 L15,20 L30,10 L15,0 Z" class="cell_SW"/>
    <g s:x="28" s:y="10" s:pid="Y"/>
  </g>
  <g s:type="inputExt" transform="translate(32,56.5)" s:width="30" s:height="20" id="cell_KEY">
    <text x="15" y="-4" class="nodelabel cell_KEY" s:attribute="ref">KEY</text>
    <s:alias val="$_inputExt_"/>
    <path d="M0,0 L0,20 L15,20 L30,10 L15,0 Z" class="cell_KEY"/>
    <g s:x="28" s:y="10" s:pid="Y"/>
  </g>
  <g s:type="outputExt" transform="translate(358,266.5)" s:width="30" s:height="20" id="cell_LEDR">
    <text x="15" y="-4" class="nodelabel cell_LEDR" s:attribute="ref">LEDR</text>
    <s:alias val="$_outputExt_"/>
    <path d="M30,0 L30,20 L15,20 L0,10 L15,0 Z" class="cell_LEDR"/>
    <g s:x="0" s:y="10" s:pid="A"/>
  </g>
  <g s:type="join" transform="translate(252,256)" s:width="4" s:height="40" id="cell_$join$,10,11,12,">
    <rect width="5" height="60" class="splitjoinBody" s:generic="body"/>
    <s:alias val="$_join_"/>
    <g s:x="5" s:y="20" s:pid="out"/>
    <g transform="translate(0,10)" s:x="0" s:y="10" s:pid="in0">
      <text x="-3" y="-4" class="inputPortLabel">0</text>
    </g>
    <g transform="translate(0,30)" s:x="0" s:y="10" s:pid="in0">
      <text x="-3" y="-4" class="inputPortLabel">1</text>
    </g>
    <g transform="translate(0,50)" s:x="0" s:y="10" s:pid="in0">
      <text x="-3" y="-4" class="inputPortLabel">2</text>
    </g>
  </g>
  <g s:type="split" transform="translate(113.33333333333333,46)" s:width="5" s:height="40" id="cell_$split$,5,6,">
    <rect width="5" height="40" class="splitjoinBody" s:generic="body"/>
    <s:alias val="$_split_"/>
    <g s:x="0" s:y="20" s:pid="in"/>
    <g transform="translate(4,10)" s:x="4" s:y="10" s:pid="out0">
      <text x="5" y="-4">0</text>
    </g>
    <g transform="translate(4,30)" s:x="4" s:y="10" s:pid="out0">
      <text x="5" y="-4">1</text>
    </g>
  </g>
  <g s:type="split" transform="translate(114.5,206)" s:width="5" s:height="40" id="cell_$split$,2,3,4,">
    <rect width="5" height="60" class="splitjoinBody" s:generic="body"/>
    <s:alias val="$_split_"/>
    <g s:x="0" s:y="20" s:pid="in"/>
    <g transform="translate(4,10)" s:x="4" s:y="10" s:pid="out0">
      <text x="5" y="-4">2</text>
    </g>
    <g transform="translate(4,30)" s:x="4" s:y="10" s:pid="out0">
      <text x="5" y="-4">1</text>
    </g>
    <g transform="translate(4,50)" s:x="4" s:y="10" s:pid="out0">
      <text x="5" y="-4">0</text>
    </g>
  </g>
  <g s:type="split" transform="translate(50,111.5)" s:width="5" s:height="40" id="cell_$split$,7,8,9,">
    <rect width="5" height="60" class="splitjoinBody" s:generic="body"/>
    <s:alias val="$_split_"/>
    <g s:x="0" s:y="20" s:pid="in"/>
    <g transform="translate(4,10)" s:x="4" s:y="10" s:pid="out0">
      <text x="5" y="-4">0</text>
    </g>
    <g transform="translate(4,30)" s:x="4" s:y="10" s:pid="out0">
      <text x="5" y="-4">2</text>
    </g>
    <g transform="translate(4,50)" s:x="4" s:y="10" s:pid="out0">
      <text x="5" y="-4">1</text>
    </g>
  </g>
  <line x1="118.33333333333333" x2="140" y1="56.5" y2="56.5" class="net_5"/>
  <line x1="140" x2="140" y1="56.5" y2="12" class="net_5"/>
  <line x1="140" x2="268" y1="12" y2="12" class="net_5"/>
  <line x1="268" x2="268" y1="12" y2="296.5" class="net_5"/>
  <line x1="268" x2="293" y1="296.5" y2="296.5" class="net_5"/>
  <line x1="258" x2="293" y1="276.5" y2="276.5" class="net_10,11,12"/>
  <line x1="130" x2="170" y1="154.5" y2="154.5" class="net_13"/>
  <line x1="170" x2="170" y1="154.5" y2="196.5" class="net_13"/>
  <line x1="170" x2="190" y1="196.5" y2="196.5" class="net_13"/>
  <line x1="119.5" x2="190" y1="216.5" y2="216.5" class="net_4"/>
  <line x1="118.33333333333333" x2="180" y1="76.5" y2="76.5" class="net_6"/>
  <line x1="180" x2="180" y1="76.5" y2="236.5" class="net_6"/>
  <line x1="180" x2="200" y1="236.5" y2="236.5" class="net_6"/>
  <circle cx="180" cy="76.5" r="2" style="fill:#000" class="net_6"/>
  <circle cx="180" cy="236.5" r="2" style="fill:#000" class="net_6"/>
  <line x1="200" x2="200" y1="236.5" y2="221.5" class="net_6"/>
  <line x1="118.33333333333333" x2="200" y1="76.5" y2="76.5" class="net_6"/>
  <line x1="200" x2="200" y1="76.5" y2="58" class="net_6"/>
  <line x1="118.33333333333333" x2="180" y1="76.5" y2="76.5" class="net_6"/>
  <line x1="180" x2="180" y1="76.5" y2="296.5" class="net_6"/>
  <line x1="180" x2="200" y1="296.5" y2="296.5" class="net_6"/>
  <line x1="200" x2="200" y1="296.5" y2="281.5" class="net_6"/>
  <line x1="55" x2="72" y1="122" y2="122" class="net_7"/>
  <line x1="72" x2="72" y1="122" y2="33" class="net_7"/>
  <line x1="72" x2="190" y1="33" y2="33" class="net_7"/>
  <line x1="119.5" x2="150" y1="236.5" y2="236.5" class="net_3"/>
  <line x1="150" x2="150" y1="236.5" y2="53" class="net_3"/>
  <line x1="150" x2="190" y1="53" y2="53" class="net_3"/>
  <line x1="55" x2="72" y1="142" y2="142" class="net_9"/>
  <line x1="72" x2="72" y1="142" y2="131" class="net_9"/>
  <line x1="72" x2="160" y1="131" y2="131" class="net_9"/>
  <line x1="160" x2="160" y1="131" y2="256.5" class="net_9"/>
  <circle cx="72" cy="142" r="2" style="fill:#000" class="net_9"/>
  <line x1="160" x2="190" y1="256.5" y2="256.5" class="net_9"/>
  <line x1="55" x2="72" y1="142" y2="142" class="net_9"/>
  <line x1="72" x2="72" y1="142" y2="147" class="net_9"/>
  <line x1="72" x2="100" y1="147" y2="147" class="net_9"/>
  <line x1="119.5" x2="140" y1="256.5" y2="256.5" class="net_2"/>
  <line x1="140" x2="140" y1="256.5" y2="276.5" class="net_2"/>
  <line x1="140" x2="190" y1="276.5" y2="276.5" class="net_2"/>
  <line x1="55" x2="100" y1="162" y2="162" class="net_8"/>
  <line x1="323" x2="358" y1="276.5" y2="276.5" class="net_7,8,9"/>
  <line x1="323" x2="333" y1="276.5" y2="276.5" class="net_7,8,9"/>
  <line x1="333" x2="333" y1="276.5" y2="326" class="net_7,8,9"/>
  <line x1="333" x2="12" y1="326" y2="326" class="net_7,8,9"/>
  <line x1="12" x2="12" y1="326" y2="132" class="net_7,8,9"/>
  <circle cx="333" cy="276.5" r="2" style="fill:#000" class="net_7,8,9"/>
  <line x1="12" x2="50" y1="132" y2="132" class="net_7,8,9"/>
  <line x1="210" x2="252" y1="266.5" y2="266.5" class="net_10"/>
  <line x1="210" x2="230" y1="43" y2="43" class="net_11"/>
  <line x1="230" x2="230" y1="43" y2="286.5" class="net_11"/>
  <line x1="230" x2="252" y1="286.5" y2="286.5" class="net_11"/>
  <line x1="210" x2="220" y1="206.5" y2="206.5" class="net_12"/>
  <line x1="220" x2="220" y1="206.5" y2="306.5" class="net_12"/>
  <line x1="220" x2="252" y1="306.5" y2="306.5" class="net_12"/>
  <line x1="60" x2="113.33333333333333" y1="66.5" y2="66.5" class="net_5,6"/>
  <line x1="60" x2="114.5" y1="226.5" y2="226.5" class="net_2,3,4"/>
</svg>
