<?xml version="1.0" encoding="UTF-8" standalone="no"?>
<!DOCTYPE svg PUBLIC "-//W3C//DTD SVG 1.1//EN"
 "http://www.w3.org/Graphics/SVG/1.1/DTD/svg11.dtd">
<!-- Generated by graphviz version 4.0.0 (20220529.0937)
 -->
<!-- Title: top_module Pages: 1 -->
<svg width="4006pt" height="829pt"
 viewBox="0.00 0.00 4005.60 829.25" xmlns="http://www.w3.org/2000/svg" xmlns:xlink="http://www.w3.org/1999/xlink">
<g id="graph0" class="graph" transform="scale(1 1) rotate(0) translate(4 825.25)">
<title>top_module</title>
<polygon fill="white" stroke="transparent" points="-4,4 -4,-825.25 4001.6,-825.25 4001.6,4 -4,4"/>
<text text-anchor="middle" x="1998.8" y="-7.8" font-family="Times New Roman,serif" font-size="14.00">top_module</text>
<!-- n1 -->
<g id="node1" class="node">
<title>n1</title>
<polygon fill="none" stroke="black" points="271.68,-234.25 131.75,-216.25 271.68,-198.25 411.6,-216.25 271.68,-234.25"/>
<text text-anchor="middle" x="271.68" y="-212.55" font-family="Times New Roman,serif" font-size="14.00">aaah_SB_DFFER_Q_E</text>
</g>
<!-- c30 -->
<g id="node38" class="node">
<title>c30</title>
<polygon fill="none" stroke="black" points="448.39,-182.25 448.39,-274.25 638.39,-274.25 638.39,-182.25 448.39,-182.25"/>
<text text-anchor="middle" x="461.39" y="-259.05" font-family="Times New Roman,serif" font-size="14.00">C</text>
<polyline fill="none" stroke="black" points="448.39,-251.25 474.39,-251.25 "/>
<text text-anchor="middle" x="461.39" y="-236.05" font-family="Times New Roman,serif" font-size="14.00">D</text>
<polyline fill="none" stroke="black" points="448.39,-228.25 474.39,-228.25 "/>
<text text-anchor="middle" x="461.39" y="-213.05" font-family="Times New Roman,serif" font-size="14.00">E</text>
<polyline fill="none" stroke="black" points="448.39,-205.25 474.39,-205.25 "/>
<text text-anchor="middle" x="461.39" y="-190.05" font-family="Times New Roman,serif" font-size="14.00">R</text>
<polyline fill="none" stroke="black" points="474.39,-182.25 474.39,-274.25 "/>
<text text-anchor="middle" x="542.89" y="-232.05" font-family="Times New Roman,serif" font-size="14.00">state_SB_DFFER_Q</text>
<text text-anchor="middle" x="542.89" y="-217.05" font-family="Times New Roman,serif" font-size="14.00">SB_DFFER</text>
<polyline fill="none" stroke="black" points="611.39,-182.25 611.39,-274.25 "/>
<text text-anchor="middle" x="624.89" y="-224.55" font-family="Times New Roman,serif" font-size="14.00">Q</text>
</g>
<!-- n1&#45;&gt;c30 -->
<g id="edge20" class="edge">
<title>n1:e&#45;&gt;c30:w</title>
<path fill="none" stroke="#666666" d="M411.39,-216.25C423.85,-216.25 429.23,-216.25 438.26,-216.25"/>
<polygon fill="#666666" stroke="#666666" points="438.39,-219.75 448.39,-216.25 438.39,-212.75 438.39,-219.75"/>
</g>
<!-- c31 -->
<g id="node41" class="node">
<title>c31</title>
<polygon fill="none" stroke="black" points="3649.59,-41.25 3649.59,-133.25 3838.59,-133.25 3838.59,-41.25 3649.59,-41.25"/>
<text text-anchor="middle" x="3662.59" y="-118.05" font-family="Times New Roman,serif" font-size="14.00">C</text>
<polyline fill="none" stroke="black" points="3649.59,-110.25 3675.59,-110.25 "/>
<text text-anchor="middle" x="3662.59" y="-95.05" font-family="Times New Roman,serif" font-size="14.00">D</text>
<polyline fill="none" stroke="black" points="3649.59,-87.25 3675.59,-87.25 "/>
<text text-anchor="middle" x="3662.59" y="-72.05" font-family="Times New Roman,serif" font-size="14.00">E</text>
<polyline fill="none" stroke="black" points="3649.59,-64.25 3675.59,-64.25 "/>
<text text-anchor="middle" x="3662.59" y="-49.05" font-family="Times New Roman,serif" font-size="14.00">R</text>
<polyline fill="none" stroke="black" points="3675.59,-41.25 3675.59,-133.25 "/>
<text text-anchor="middle" x="3743.59" y="-91.05" font-family="Times New Roman,serif" font-size="14.00">aaah_SB_DFFER_Q</text>
<text text-anchor="middle" x="3743.59" y="-76.05" font-family="Times New Roman,serif" font-size="14.00">SB_DFFER</text>
<polyline fill="none" stroke="black" points="3811.59,-41.25 3811.59,-133.25 "/>
<text text-anchor="middle" x="3825.09" y="-83.55" font-family="Times New Roman,serif" font-size="14.00">Q</text>
</g>
<!-- n1&#45;&gt;c31 -->
<g id="edge21" class="edge">
<title>n1:e&#45;&gt;c31:w</title>
<path fill="none" stroke="#666666" d="M411.39,-216.25C436.94,-216.25 425.81,-184.21 448.39,-172.25 728.61,-23.84 841.01,-99.25 1158.1,-99.25 1158.1,-99.25 1158.1,-99.25 3435.49,-99.25 3527.14,-99.25 3551.29,-76.95 3638.06,-75.34"/>
<polygon fill="#666666" stroke="#666666" points="3638.12,-78.84 3648.09,-75.25 3638.06,-71.84 3638.12,-78.84"/>
</g>
<!-- n2 -->
<g id="node2" class="node">
<title>n2</title>
<polygon fill="none" stroke="black" points="2541.27,-418.25 2372.02,-400.25 2541.27,-382.25 2710.52,-400.25 2541.27,-418.25"/>
<text text-anchor="middle" x="2541.27" y="-396.55" font-family="Times New Roman,serif" font-size="14.00">bump_right_SB_LUT4_I0_O</text>
</g>
<!-- x1 -->
<g id="node16" class="node">
<title>x1</title>
<path fill="none" stroke="black" d="M2820.39,-423.25C2820.39,-423.25 2858.39,-423.25 2858.39,-423.25 2864.39,-423.25 2870.39,-429.25 2870.39,-435.25 2870.39,-435.25 2870.39,-447.25 2870.39,-447.25 2870.39,-453.25 2864.39,-459.25 2858.39,-459.25 2858.39,-459.25 2820.39,-459.25 2820.39,-459.25 2814.39,-459.25 2808.39,-453.25 2808.39,-447.25 2808.39,-447.25 2808.39,-435.25 2808.39,-435.25 2808.39,-429.25 2814.39,-423.25 2820.39,-423.25"/>
<text text-anchor="middle" x="2839.39" y="-437.55" font-family="Times New Roman,serif" font-size="14.00">1:1 &#45; 0:0</text>
</g>
<!-- n2&#45;&gt;x1 -->
<g id="edge39" class="edge">
<title>n2:e&#45;&gt;x1:w</title>
<path fill="none" stroke="#1b9e77" d="M2710.39,-400.25C2721.1,-400.25 2719.08,-410.98 2728.39,-416.25 2757.65,-432.8 2768.91,-439.84 2798.2,-441.05"/>
<polygon fill="#1b9e77" stroke="#1b9e77" points="2798.33,-444.56 2808.39,-441.25 2798.46,-437.56 2798.33,-444.56"/>
</g>
<!-- x16 -->
<g id="node36" class="node">
<title>x16</title>
<path fill="none" stroke="black" d="M2820.39,-229.25C2820.39,-229.25 2858.39,-229.25 2858.39,-229.25 2864.39,-229.25 2870.39,-235.25 2870.39,-241.25 2870.39,-241.25 2870.39,-253.25 2870.39,-253.25 2870.39,-259.25 2864.39,-265.25 2858.39,-265.25 2858.39,-265.25 2820.39,-265.25 2820.39,-265.25 2814.39,-265.25 2808.39,-259.25 2808.39,-253.25 2808.39,-253.25 2808.39,-241.25 2808.39,-241.25 2808.39,-235.25 2814.39,-229.25 2820.39,-229.25"/>
<text text-anchor="middle" x="2839.39" y="-243.55" font-family="Times New Roman,serif" font-size="14.00">1:1 &#45; 0:0</text>
</g>
<!-- n2&#45;&gt;x16 -->
<g id="edge38" class="edge">
<title>n2:e&#45;&gt;x16:w</title>
<path fill="none" stroke="#1b9e77" d="M2710.39,-400.25C2767.31,-400.25 2763.05,-350.17 2790.39,-300.25 2800.19,-282.35 2789.29,-258.15 2798.78,-250.03"/>
<polygon fill="#1b9e77" stroke="#1b9e77" points="2799.76,-253.39 2808.39,-247.25 2797.81,-246.67 2799.76,-253.39"/>
</g>
<!-- n3 -->
<g id="node3" class="node">
<title>n3</title>
<polygon fill="none" stroke="black" points="1689.37,-455.25 1527.83,-437.25 1689.37,-419.25 1850.91,-437.25 1689.37,-455.25"/>
<text text-anchor="middle" x="1689.37" y="-433.55" font-family="Times New Roman,serif" font-size="14.00">bump_left_SB_LUT4_I0_O</text>
</g>
<!-- x0 -->
<g id="node15" class="node">
<title>x0</title>
<path fill="none" stroke="black" d="M2304.14,-566.25C2304.14,-566.25 2342.14,-566.25 2342.14,-566.25 2348.14,-566.25 2354.14,-572.25 2354.14,-578.25 2354.14,-578.25 2354.14,-590.25 2354.14,-590.25 2354.14,-596.25 2348.14,-602.25 2342.14,-602.25 2342.14,-602.25 2304.14,-602.25 2304.14,-602.25 2298.14,-602.25 2292.14,-596.25 2292.14,-590.25 2292.14,-590.25 2292.14,-578.25 2292.14,-578.25 2292.14,-572.25 2298.14,-566.25 2304.14,-566.25"/>
<text text-anchor="middle" x="2323.14" y="-580.55" font-family="Times New Roman,serif" font-size="14.00">2:2 &#45; 0:0</text>
</g>
<!-- n3&#45;&gt;x0 -->
<g id="edge42" class="edge">
<title>n3:e&#45;&gt;x0:w</title>
<path fill="none" stroke="#66a61e" d="M1851.14,-437.25C1871.56,-437.25 1872.32,-604.35 1888.14,-617.25 1909.5,-634.66 1922.59,-617.67 1950.14,-617.25 2094.19,-615.03 2145.62,-672.34 2274.14,-607.25 2281.38,-603.58 2281.53,-595.52 2283.8,-589.98"/>
<polygon fill="#66a61e" stroke="#66a61e" points="2285.88,-592.8 2292.14,-584.25 2281.92,-587.02 2285.88,-592.8"/>
</g>
<!-- x11 -->
<g id="node30" class="node">
<title>x11</title>
<path fill="none" stroke="black" d="M1900.14,-498.25C1900.14,-498.25 1938.14,-498.25 1938.14,-498.25 1944.14,-498.25 1950.14,-504.25 1950.14,-510.25 1950.14,-510.25 1950.14,-522.25 1950.14,-522.25 1950.14,-528.25 1944.14,-534.25 1938.14,-534.25 1938.14,-534.25 1900.14,-534.25 1900.14,-534.25 1894.14,-534.25 1888.14,-528.25 1888.14,-522.25 1888.14,-522.25 1888.14,-510.25 1888.14,-510.25 1888.14,-504.25 1894.14,-498.25 1900.14,-498.25"/>
<text text-anchor="middle" x="1919.14" y="-512.55" font-family="Times New Roman,serif" font-size="14.00">2:2 &#45; 0:0</text>
</g>
<!-- n3&#45;&gt;x11 -->
<g id="edge43" class="edge">
<title>n3:e&#45;&gt;x11:w</title>
<path fill="none" stroke="#66a61e" d="M1851.14,-437.25C1885.82,-437.25 1857.04,-500.46 1878.34,-513.8"/>
<polygon fill="#66a61e" stroke="#66a61e" points="1877.59,-517.22 1888.14,-516.25 1879.29,-510.43 1877.59,-517.22"/>
</g>
<!-- x15 -->
<g id="node35" class="node">
<title>x15</title>
<path fill="none" stroke="black" d="M1980.14,-278.25C1980.14,-278.25 2018.14,-278.25 2018.14,-278.25 2024.14,-278.25 2030.14,-284.25 2030.14,-290.25 2030.14,-290.25 2030.14,-302.25 2030.14,-302.25 2030.14,-308.25 2024.14,-314.25 2018.14,-314.25 2018.14,-314.25 1980.14,-314.25 1980.14,-314.25 1974.14,-314.25 1968.14,-308.25 1968.14,-302.25 1968.14,-302.25 1968.14,-290.25 1968.14,-290.25 1968.14,-284.25 1974.14,-278.25 1980.14,-278.25"/>
<text text-anchor="middle" x="1999.14" y="-292.55" font-family="Times New Roman,serif" font-size="14.00">2:2 &#45; 0:0</text>
</g>
<!-- n3&#45;&gt;x15 -->
<g id="edge44" class="edge">
<title>n3:e&#45;&gt;x15:w</title>
<path fill="none" stroke="#66a61e" d="M1851.14,-437.25C1855.54,-437.25 1935.75,-332.17 1960.87,-303.44"/>
<polygon fill="#66a61e" stroke="#66a61e" points="1963.49,-305.77 1968.14,-296.25 1958.57,-300.79 1963.49,-305.77"/>
</g>
<!-- x25 -->
<g id="node48" class="node">
<title>x25</title>
<path fill="none" stroke="black" d="M1900.14,-401.25C1900.14,-401.25 1938.14,-401.25 1938.14,-401.25 1944.14,-401.25 1950.14,-407.25 1950.14,-413.25 1950.14,-413.25 1950.14,-425.25 1950.14,-425.25 1950.14,-431.25 1944.14,-437.25 1938.14,-437.25 1938.14,-437.25 1900.14,-437.25 1900.14,-437.25 1894.14,-437.25 1888.14,-431.25 1888.14,-425.25 1888.14,-425.25 1888.14,-413.25 1888.14,-413.25 1888.14,-407.25 1894.14,-401.25 1900.14,-401.25"/>
<text text-anchor="middle" x="1919.14" y="-415.55" font-family="Times New Roman,serif" font-size="14.00">2:2 &#45; 0:0</text>
</g>
<!-- n3&#45;&gt;x25 -->
<g id="edge45" class="edge">
<title>n3:e&#45;&gt;x25:w</title>
<path fill="none" stroke="#66a61e" d="M1851.14,-437.25C1865.43,-437.25 1868.81,-426.26 1878.33,-421.46"/>
<polygon fill="#66a61e" stroke="#66a61e" points="1879.15,-424.86 1888.14,-419.25 1877.62,-418.03 1879.15,-424.86"/>
</g>
<!-- n4 -->
<g id="node4" class="node">
<title>n4</title>
<polygon fill="none" stroke="black" points="3968.33,-319.79 3968.33,-334.71 3951.53,-345.25 3927.76,-345.25 3910.96,-334.71 3910.96,-319.79 3927.76,-309.25 3951.53,-309.25 3968.33,-319.79"/>
<text text-anchor="middle" x="3939.65" y="-323.55" font-family="Times New Roman,serif" font-size="14.00">aaah</text>
</g>
<!-- c19 -->
<g id="node14" class="node">
<title>c19</title>
<polygon fill="none" stroke="black" points="2907.39,-550.25 2907.39,-642.25 3231.39,-642.25 3231.39,-550.25 2907.39,-550.25"/>
<text text-anchor="middle" x="2921.39" y="-627.05" font-family="Times New Roman,serif" font-size="14.00">I0</text>
<polyline fill="none" stroke="black" points="2907.39,-619.25 2935.39,-619.25 "/>
<text text-anchor="middle" x="2921.39" y="-604.05" font-family="Times New Roman,serif" font-size="14.00">I1</text>
<polyline fill="none" stroke="black" points="2907.39,-596.25 2935.39,-596.25 "/>
<text text-anchor="middle" x="2921.39" y="-581.05" font-family="Times New Roman,serif" font-size="14.00">I2</text>
<polyline fill="none" stroke="black" points="2907.39,-573.25 2935.39,-573.25 "/>
<text text-anchor="middle" x="2921.39" y="-558.05" font-family="Times New Roman,serif" font-size="14.00">I3</text>
<polyline fill="none" stroke="black" points="2935.39,-550.25 2935.39,-642.25 "/>
<text text-anchor="middle" x="3069.89" y="-600.05" font-family="Times New Roman,serif" font-size="14.00">bump_right_SB_LUT4_I0_O_SB_LUT4_I3</text>
<text text-anchor="middle" x="3069.89" y="-585.05" font-family="Times New Roman,serif" font-size="14.00">SB_LUT4</text>
<polyline fill="none" stroke="black" points="3204.39,-550.25 3204.39,-642.25 "/>
<text text-anchor="middle" x="3217.89" y="-592.55" font-family="Times New Roman,serif" font-size="14.00">O</text>
</g>
<!-- n4&#45;&gt;c19 -->
<g id="edge47" class="edge">
<title>n4:e&#45;&gt;c19:w</title>
<path fill="none" stroke="#a6761d" d="M3969.65,-327.25C3999.61,-327.25 3874.36,-551 3850.59,-569.25 3812.45,-598.53 3793.18,-593.25 3745.09,-593.25 3298.39,-593.25 3298.39,-593.25 3298.39,-593.25 3261.37,-593.25 3266.56,-631.17 3231.39,-642.75 3214.3,-648.38 2920.3,-655.29 2907.39,-642.75 2903.91,-639.37 2901.36,-626.45 2901.91,-617.42"/>
<polygon fill="#a6761d" stroke="#a6761d" points="2905.14,-618.77 2906.39,-608.25 2898.85,-615.69 2905.14,-618.77"/>
</g>
<!-- c20 -->
<g id="node17" class="node">
<title>c20</title>
<polygon fill="none" stroke="black" points="1048.6,-510.25 1048.6,-602.25 1269.6,-602.25 1269.6,-510.25 1048.6,-510.25"/>
<text text-anchor="middle" x="1062.6" y="-587.05" font-family="Times New Roman,serif" font-size="14.00">I0</text>
<polyline fill="none" stroke="black" points="1048.6,-579.25 1076.6,-579.25 "/>
<text text-anchor="middle" x="1062.6" y="-564.05" font-family="Times New Roman,serif" font-size="14.00">I1</text>
<polyline fill="none" stroke="black" points="1048.6,-556.25 1076.6,-556.25 "/>
<text text-anchor="middle" x="1062.6" y="-541.05" font-family="Times New Roman,serif" font-size="14.00">I2</text>
<polyline fill="none" stroke="black" points="1048.6,-533.25 1076.6,-533.25 "/>
<text text-anchor="middle" x="1062.6" y="-518.05" font-family="Times New Roman,serif" font-size="14.00">I3</text>
<polyline fill="none" stroke="black" points="1076.6,-510.25 1076.6,-602.25 "/>
<text text-anchor="middle" x="1159.6" y="-560.05" font-family="Times New Roman,serif" font-size="14.00">bump_right_SB_LUT4_I0</text>
<text text-anchor="middle" x="1159.6" y="-545.05" font-family="Times New Roman,serif" font-size="14.00">SB_LUT4</text>
<polyline fill="none" stroke="black" points="1242.6,-510.25 1242.6,-602.25 "/>
<text text-anchor="middle" x="1256.1" y="-552.55" font-family="Times New Roman,serif" font-size="14.00">O</text>
</g>
<!-- n4&#45;&gt;c20 -->
<g id="edge48" class="edge">
<title>n4:e&#45;&gt;c20:w</title>
<path fill="none" stroke="#a6761d" d="M3969.65,-327.25C4003.45,-327.25 3874.52,-583.37 3850.59,-607.25 3764.4,-693.25 3719.65,-693.8 3600.59,-719.25 3573.64,-725.01 3566.14,-719.55 3538.59,-719.25 2796.48,-711.25 2609.97,-727.49 1869.14,-683.25 1777.64,-677.79 1110.65,-669.76 1048.1,-602.75 1044.79,-599.2 1042.19,-586.33 1042.68,-577.35"/>
<polygon fill="#a6761d" stroke="#a6761d" points="1045.88,-578.77 1047.1,-568.25 1039.58,-575.72 1045.88,-578.77"/>
</g>
<!-- c21 -->
<g id="node22" class="node">
<title>c21</title>
<polygon fill="none" stroke="black" points="3637.59,-468.25 3637.59,-560.25 3850.59,-560.25 3850.59,-468.25 3637.59,-468.25"/>
<text text-anchor="middle" x="3651.59" y="-545.05" font-family="Times New Roman,serif" font-size="14.00">I0</text>
<polyline fill="none" stroke="black" points="3637.59,-537.25 3665.59,-537.25 "/>
<text text-anchor="middle" x="3651.59" y="-522.05" font-family="Times New Roman,serif" font-size="14.00">I1</text>
<polyline fill="none" stroke="black" points="3637.59,-514.25 3665.59,-514.25 "/>
<text text-anchor="middle" x="3651.59" y="-499.05" font-family="Times New Roman,serif" font-size="14.00">I2</text>
<polyline fill="none" stroke="black" points="3637.59,-491.25 3665.59,-491.25 "/>
<text text-anchor="middle" x="3651.59" y="-476.05" font-family="Times New Roman,serif" font-size="14.00">I3</text>
<polyline fill="none" stroke="black" points="3665.59,-468.25 3665.59,-560.25 "/>
<text text-anchor="middle" x="3744.59" y="-518.05" font-family="Times New Roman,serif" font-size="14.00">walk_right_SB_LUT4_O</text>
<text text-anchor="middle" x="3744.59" y="-503.05" font-family="Times New Roman,serif" font-size="14.00">SB_LUT4</text>
<polyline fill="none" stroke="black" points="3823.59,-468.25 3823.59,-560.25 "/>
<text text-anchor="middle" x="3837.09" y="-510.55" font-family="Times New Roman,serif" font-size="14.00">O</text>
</g>
<!-- n4&#45;&gt;c21 -->
<g id="edge49" class="edge">
<title>n4:e&#45;&gt;c21:w</title>
<path fill="none" stroke="#a6761d" d="M3969.65,-327.25C3977.66,-327.25 3973.41,-338.8 3968.65,-345.25 3875.31,-471.61 3728.74,-340.16 3637.09,-467.75 3634.29,-471.64 3631.6,-484.15 3631.85,-492.98"/>
<polygon fill="#a6761d" stroke="#a6761d" points="3628.75,-494.61 3636.09,-502.25 3635.12,-491.7 3628.75,-494.61"/>
</g>
<!-- c22 -->
<g id="node26" class="node">
<title>c22</title>
<polygon fill="none" stroke="black" points="3641.09,-167.25 3641.09,-259.25 3847.09,-259.25 3847.09,-167.25 3641.09,-167.25"/>
<text text-anchor="middle" x="3655.09" y="-244.05" font-family="Times New Roman,serif" font-size="14.00">I0</text>
<polyline fill="none" stroke="black" points="3641.09,-236.25 3669.09,-236.25 "/>
<text text-anchor="middle" x="3655.09" y="-221.05" font-family="Times New Roman,serif" font-size="14.00">I1</text>
<polyline fill="none" stroke="black" points="3641.09,-213.25 3669.09,-213.25 "/>
<text text-anchor="middle" x="3655.09" y="-198.05" font-family="Times New Roman,serif" font-size="14.00">I2</text>
<polyline fill="none" stroke="black" points="3641.09,-190.25 3669.09,-190.25 "/>
<text text-anchor="middle" x="3655.09" y="-175.05" font-family="Times New Roman,serif" font-size="14.00">I3</text>
<polyline fill="none" stroke="black" points="3669.09,-167.25 3669.09,-259.25 "/>
<text text-anchor="middle" x="3744.59" y="-217.05" font-family="Times New Roman,serif" font-size="14.00">walk_left_SB_LUT4_O</text>
<text text-anchor="middle" x="3744.59" y="-202.05" font-family="Times New Roman,serif" font-size="14.00">SB_LUT4</text>
<polyline fill="none" stroke="black" points="3820.09,-167.25 3820.09,-259.25 "/>
<text text-anchor="middle" x="3833.59" y="-209.55" font-family="Times New Roman,serif" font-size="14.00">O</text>
</g>
<!-- n4&#45;&gt;c22 -->
<g id="edge50" class="edge">
<title>n4:e&#45;&gt;c22:w</title>
<path fill="none" stroke="#a6761d" d="M3969.65,-327.25C3981.32,-327.25 3967.33,-385.09 3910.8,-345.25 3841.95,-296.72 3915.94,-215.28 3847.09,-166.75 3809.67,-140.38 3673.92,-134.85 3641.09,-166.75 3637.61,-170.13 3635.06,-183.05 3635.6,-192.08"/>
<polygon fill="#a6761d" stroke="#a6761d" points="3632.55,-193.8 3640.09,-201.25 3638.84,-190.73 3632.55,-193.8"/>
</g>
<!-- c32 -->
<g id="node43" class="node">
<title>c32</title>
<polygon fill="none" stroke="black" points="1052.6,-268.25 1052.6,-360.25 1265.6,-360.25 1265.6,-268.25 1052.6,-268.25"/>
<text text-anchor="middle" x="1066.6" y="-345.05" font-family="Times New Roman,serif" font-size="14.00">I0</text>
<polyline fill="none" stroke="black" points="1052.6,-337.25 1080.6,-337.25 "/>
<text text-anchor="middle" x="1066.6" y="-322.05" font-family="Times New Roman,serif" font-size="14.00">I1</text>
<polyline fill="none" stroke="black" points="1052.6,-314.25 1080.6,-314.25 "/>
<text text-anchor="middle" x="1066.6" y="-299.05" font-family="Times New Roman,serif" font-size="14.00">I2</text>
<polyline fill="none" stroke="black" points="1052.6,-291.25 1080.6,-291.25 "/>
<text text-anchor="middle" x="1066.6" y="-276.05" font-family="Times New Roman,serif" font-size="14.00">I3</text>
<polyline fill="none" stroke="black" points="1080.6,-268.25 1080.6,-360.25 "/>
<text text-anchor="middle" x="1159.6" y="-318.05" font-family="Times New Roman,serif" font-size="14.00">bump_left_SB_LUT4_I0</text>
<text text-anchor="middle" x="1159.6" y="-303.05" font-family="Times New Roman,serif" font-size="14.00">SB_LUT4</text>
<polyline fill="none" stroke="black" points="1238.6,-268.25 1238.6,-360.25 "/>
<text text-anchor="middle" x="1252.1" y="-310.55" font-family="Times New Roman,serif" font-size="14.00">O</text>
</g>
<!-- n4&#45;&gt;c32 -->
<g id="edge51" class="edge">
<title>n4:e&#45;&gt;c32:w</title>
<path fill="none" stroke="#a6761d" d="M3969.65,-327.25C3977.66,-327.25 3974.47,-339.74 3968.65,-345.25 3949.97,-362.92 3936.47,-346.64 3910.8,-345.25 3836.83,-341.24 3819.17,-327.25 3745.09,-327.25 3433.49,-327.25 3433.49,-327.25 3433.49,-327.25 3343.45,-327.25 3321.33,-337.02 3231.39,-341.25 3071.08,-348.8 3030.87,-348.25 2870.39,-350.25 2842.84,-350.59 2835.82,-352.88 2808.39,-350.25 2764.23,-346.01 2754.31,-337.52 2710.39,-331.25 2409.82,-288.3 2333.44,-282.36 2030.14,-268.25 1690.71,-252.45 1605.4,-267.86 1265.6,-267.75 1253.74,-267.75 1060.61,-259.48 1052.1,-267.75 1048.62,-271.13 1046.07,-284.05 1046.61,-293.08"/>
<polygon fill="#a6761d" stroke="#a6761d" points="1043.56,-294.8 1051.1,-302.25 1049.85,-291.73 1043.56,-294.8"/>
</g>
<!-- x27 -->
<g id="node50" class="node">
<title>x27</title>
<path fill="none" stroke="black" d="M687.39,-228.25C687.39,-228.25 725.39,-228.25 725.39,-228.25 731.39,-228.25 737.39,-234.25 737.39,-240.25 737.39,-240.25 737.39,-252.25 737.39,-252.25 737.39,-258.25 731.39,-264.25 725.39,-264.25 725.39,-264.25 687.39,-264.25 687.39,-264.25 681.39,-264.25 675.39,-258.25 675.39,-252.25 675.39,-252.25 675.39,-240.25 675.39,-240.25 675.39,-234.25 681.39,-228.25 687.39,-228.25"/>
<text text-anchor="middle" x="706.39" y="-242.55" font-family="Times New Roman,serif" font-size="14.00">0:0 &#45; 1:1</text>
</g>
<!-- n4&#45;&gt;x27 -->
<g id="edge52" class="edge">
<title>n4:e&#45;&gt;x27:w</title>
<path fill="none" stroke="#a6761d" d="M3969.65,-327.25C3977.66,-327.25 3974.47,-339.74 3968.65,-345.25 3949.97,-362.92 3935.75,-351.47 3910.8,-345.25 3881.4,-337.92 3879.47,-322.44 3850.59,-313.25 3717.37,-270.87 3674.43,-306.28 3538.59,-273.25 3397.38,-238.91 3372.24,-197.03 3231.39,-161.25 3161.27,-143.44 3142.74,-137.25 3070.39,-137.25 1158.1,-137.25 1158.1,-137.25 1158.1,-137.25 962.72,-137.25 930.66,-236.11 737.39,-264.75 723.76,-266.77 685.39,-274.23 675.39,-264.75 672.87,-262.36 670.83,-258.69 669.94,-255.25"/>
<polygon fill="#a6761d" stroke="#a6761d" points="673.09,-256.76 674.39,-246.25 666.82,-253.66 673.09,-256.76"/>
</g>
<!-- n5 -->
<g id="node5" class="node">
<title>n5</title>
<polygon fill="none" stroke="black" points="91.43,-53.79 91.43,-68.71 71.25,-79.25 42.72,-79.25 22.54,-68.71 22.54,-53.79 42.72,-43.25 71.25,-43.25 91.43,-53.79"/>
<text text-anchor="middle" x="56.98" y="-57.55" font-family="Times New Roman,serif" font-size="14.00">areset</text>
</g>
<!-- n5&#45;&gt;c30 -->
<g id="edge53" class="edge">
<title>n5:e&#45;&gt;c30:w</title>
<path fill="none" stroke="#7570b3" d="M92.98,-61.25C174.02,-61.25 350.05,-183.39 438.33,-192.69"/>
<polygon fill="#7570b3" stroke="#7570b3" points="438.21,-196.19 448.39,-193.25 438.6,-189.2 438.21,-196.19"/>
</g>
<!-- n5&#45;&gt;c31 -->
<g id="edge54" class="edge">
<title>n5:e&#45;&gt;c31:w</title>
<path fill="none" stroke="#7570b3" d="M92.98,-61.25C111.39,-61.25 113.97,-51.13 131.97,-47.25 261.6,-19.26 296.77,-23.25 429.39,-23.25 429.39,-23.25 429.39,-23.25 3570.59,-23.25 3603.63,-23.25 3610.17,-46.66 3637.83,-51.41"/>
<polygon fill="#7570b3" stroke="#7570b3" points="3637.84,-54.92 3648.09,-52.25 3638.41,-47.95 3637.84,-54.92"/>
</g>
<!-- n6 -->
<g id="node6" class="node">
<title>n6</title>
<polygon fill="none" stroke="black" points="109.1,-432.79 109.1,-447.71 78.57,-458.25 35.4,-458.25 4.87,-447.71 4.87,-432.79 35.4,-422.25 78.57,-422.25 109.1,-432.79"/>
<text text-anchor="middle" x="56.98" y="-436.55" font-family="Times New Roman,serif" font-size="14.00">bump_left</text>
</g>
<!-- n6&#45;&gt;c32 -->
<g id="edge55" class="edge">
<title>n6:e&#45;&gt;c32:w</title>
<path fill="none" stroke="#e6ab02" d="M109.98,-440.25C251.94,-440.25 287.43,-440.25 429.39,-440.25 429.39,-440.25 429.39,-440.25 813.99,-440.25 923.34,-440.25 937.42,-354.85 1040.81,-349.51"/>
<polygon fill="#e6ab02" stroke="#e6ab02" points="1041.19,-353 1051.1,-349.25 1041.01,-346 1041.19,-353"/>
</g>
<!-- n7 -->
<g id="node7" class="node">
<title>n7</title>
<polygon fill="none" stroke="black" points="113.95,-610.79 113.95,-625.71 80.58,-636.25 33.39,-636.25 0.02,-625.71 0.02,-610.79 33.39,-600.25 80.58,-600.25 113.95,-610.79"/>
<text text-anchor="middle" x="56.98" y="-614.55" font-family="Times New Roman,serif" font-size="14.00">bump_right</text>
</g>
<!-- n7&#45;&gt;c20 -->
<g id="edge56" class="edge">
<title>n7:e&#45;&gt;c20:w</title>
<path fill="none" stroke="#7570b3" d="M113.97,-618.25C254.15,-618.25 289.2,-618.25 429.39,-618.25 429.39,-618.25 429.39,-618.25 813.99,-618.25 915.47,-618.25 941.91,-593.01 1038.4,-591.34"/>
<polygon fill="#7570b3" stroke="#7570b3" points="1038.63,-594.83 1048.6,-591.25 1038.57,-587.84 1038.63,-594.83"/>
</g>
<!-- n8 -->
<g id="node8" class="node">
<title>n8</title>
<polygon fill="none" stroke="black" points="83.98,-177.79 83.98,-192.71 68.17,-203.25 45.8,-203.25 29.98,-192.71 29.98,-177.79 45.8,-167.25 68.17,-167.25 83.98,-177.79"/>
<text text-anchor="middle" x="56.98" y="-181.55" font-family="Times New Roman,serif" font-size="14.00">clk</text>
</g>
<!-- n8&#45;&gt;c30 -->
<g id="edge57" class="edge">
<title>n8:e&#45;&gt;c30:w</title>
<path fill="none" stroke="#d95f02" d="M84.98,-185.25C118.16,-185.25 102.49,-228.03 131.97,-243.25 254.12,-306.31 304.98,-265.36 438.23,-263.33"/>
<polygon fill="#d95f02" stroke="#d95f02" points="438.42,-266.83 448.39,-263.25 438.36,-259.83 438.42,-266.83"/>
</g>
<!-- n8&#45;&gt;c31 -->
<g id="edge58" class="edge">
<title>n8:e&#45;&gt;c31:w</title>
<path fill="none" stroke="#d95f02" d="M84.98,-185.25C113.9,-185.25 106.76,-154.41 131.97,-140.25 251.22,-73.27 292.62,-61.25 429.39,-61.25 429.39,-61.25 429.39,-61.25 3435.49,-61.25 3481.47,-61.25 3584.48,-114.64 3637.81,-121.52"/>
<polygon fill="#d95f02" stroke="#d95f02" points="3637.87,-125.03 3648.09,-122.25 3638.36,-118.05 3637.87,-125.03"/>
</g>
<!-- n9 -->
<g id="node9" class="node">
<title>n9</title>
<polygon fill="none" stroke="black" points="96.27,-686.79 96.27,-701.71 73.26,-712.25 40.71,-712.25 17.69,-701.71 17.69,-686.79 40.71,-676.25 73.26,-676.25 96.27,-686.79"/>
<text text-anchor="middle" x="56.98" y="-690.55" font-family="Times New Roman,serif" font-size="14.00">ground</text>
</g>
<!-- n9&#45;&gt;c19 -->
<g id="edge59" class="edge">
<title>n9:e&#45;&gt;c19:w</title>
<path fill="none" stroke="#d95f02" d="M96.98,-694.25C120.6,-694.25 112.06,-721.54 131.97,-734.25 248.04,-808.38 291.66,-821.25 429.39,-821.25 429.39,-821.25 429.39,-821.25 2542.27,-821.25 2707.96,-821.25 2775.29,-805.4 2889.39,-685.25 2903.55,-670.34 2889.88,-644.01 2897.83,-634.66"/>
<polygon fill="#d95f02" stroke="#d95f02" points="2899.15,-637.91 2907.39,-631.25 2896.8,-631.31 2899.15,-637.91"/>
</g>
<!-- n9&#45;&gt;c20 -->
<g id="edge60" class="edge">
<title>n9:e&#45;&gt;c20:w</title>
<path fill="none" stroke="#d95f02" d="M96.98,-694.25C113.73,-694.25 115.66,-684.08 131.97,-680.25 261.07,-649.94 296.77,-656.25 429.39,-656.25 429.39,-656.25 429.39,-656.25 813.99,-656.25 930.77,-656.25 928.54,-529.04 1038.34,-521.59"/>
<polygon fill="#d95f02" stroke="#d95f02" points="1038.72,-525.08 1048.6,-521.25 1038.49,-518.08 1038.72,-525.08"/>
</g>
<!-- c23 -->
<g id="node29" class="node">
<title>c23</title>
<polygon fill="none" stroke="black" points="2048.14,-506.25 2048.14,-598.25 2274.14,-598.25 2274.14,-506.25 2048.14,-506.25"/>
<text text-anchor="middle" x="2062.14" y="-583.05" font-family="Times New Roman,serif" font-size="14.00">I0</text>
<polyline fill="none" stroke="black" points="2048.14,-575.25 2076.14,-575.25 "/>
<text text-anchor="middle" x="2062.14" y="-560.05" font-family="Times New Roman,serif" font-size="14.00">I1</text>
<polyline fill="none" stroke="black" points="2048.14,-552.25 2076.14,-552.25 "/>
<text text-anchor="middle" x="2062.14" y="-537.05" font-family="Times New Roman,serif" font-size="14.00">I2</text>
<polyline fill="none" stroke="black" points="2048.14,-529.25 2076.14,-529.25 "/>
<text text-anchor="middle" x="2062.14" y="-514.05" font-family="Times New Roman,serif" font-size="14.00">I3</text>
<polyline fill="none" stroke="black" points="2076.14,-506.25 2076.14,-598.25 "/>
<text text-anchor="middle" x="2161.64" y="-556.05" font-family="Times New Roman,serif" font-size="14.00">next_state_SB_LUT4_O_1</text>
<text text-anchor="middle" x="2161.64" y="-541.05" font-family="Times New Roman,serif" font-size="14.00">SB_LUT4</text>
<polyline fill="none" stroke="black" points="2247.14,-506.25 2247.14,-598.25 "/>
<text text-anchor="middle" x="2260.64" y="-548.55" font-family="Times New Roman,serif" font-size="14.00">O</text>
</g>
<!-- n9&#45;&gt;c23 -->
<g id="edge61" class="edge">
<title>n9:e&#45;&gt;c23:w</title>
<path fill="none" stroke="#d95f02" d="M96.98,-694.25C244.72,-694.25 281.65,-694.25 429.39,-694.25 429.39,-694.25 429.39,-694.25 1399.6,-694.25 1623.4,-694.25 1666.77,-605.1 1888.14,-572.25 1955.13,-562.31 1975.02,-564.04 2038.08,-564.23"/>
<polygon fill="#d95f02" stroke="#d95f02" points="2038.14,-567.73 2048.14,-564.25 2038.15,-560.73 2038.14,-567.73"/>
</g>
<!-- n9&#45;&gt;c32 -->
<g id="edge62" class="edge">
<title>n9:e&#45;&gt;c32:w</title>
<path fill="none" stroke="#d95f02" d="M96.98,-694.25C153.23,-694.25 91.98,-228.8 131.97,-189.25 231.99,-90.32 307.71,-182.25 448.39,-180.25 576.82,-178.42 610.44,-160.69 737.39,-180.25 878.5,-201.99 903.75,-275.68 1041.02,-279.12"/>
<polygon fill="#d95f02" stroke="#d95f02" points="1041.06,-282.63 1051.1,-279.25 1041.14,-275.63 1041.06,-282.63"/>
</g>
<!-- x23 -->
<g id="node46" class="node">
<title>x23</title>
<path fill="none" stroke="black" d="M1140.1,-721.25C1140.1,-721.25 1178.1,-721.25 1178.1,-721.25 1184.1,-721.25 1190.1,-727.25 1190.1,-733.25 1190.1,-733.25 1190.1,-755.25 1190.1,-755.25 1190.1,-761.25 1184.1,-767.25 1178.1,-767.25 1178.1,-767.25 1140.1,-767.25 1140.1,-767.25 1134.1,-767.25 1128.1,-761.25 1128.1,-755.25 1128.1,-755.25 1128.1,-733.25 1128.1,-733.25 1128.1,-727.25 1134.1,-721.25 1140.1,-721.25"/>
<text text-anchor="middle" x="1159.1" y="-752.05" font-family="Times New Roman,serif" font-size="14.00">0:0 &#45; 1:1</text>
<polyline fill="none" stroke="black" points="1128.1,-744.25 1190.1,-744.25 "/>
<text text-anchor="middle" x="1159.1" y="-729.05" font-family="Times New Roman,serif" font-size="14.00">0:0 &#45; 0:0</text>
</g>
<!-- n9&#45;&gt;x23 -->
<g id="edge63" class="edge">
<title>n9:e&#45;&gt;x23:w</title>
<path fill="none" stroke="#d95f02" d="M96.98,-694.25C113.73,-694.25 115.66,-704.42 131.97,-708.25 261.07,-738.56 296.77,-732.25 429.39,-732.25 429.39,-732.25 429.39,-732.25 920.6,-732.25 1008.88,-732.25 1033.47,-732.25 1116.9,-732.25"/>
<polygon fill="#d95f02" stroke="#d95f02" points="1117.1,-735.75 1127.1,-732.25 1117.1,-728.75 1117.1,-735.75"/>
</g>
<!-- n10 -->
<g id="node10" class="node">
<title>n10</title>
<polygon fill="none" stroke="black" points="3434.49,-392.25 3367.29,-374.25 3434.49,-356.25 3501.69,-374.25 3434.49,-392.25"/>
<text text-anchor="middle" x="3434.49" y="-370.55" font-family="Times New Roman,serif" font-size="14.00">next_state</text>
</g>
<!-- x18 -->
<g id="node39" class="node">
<title>x18</title>
<path fill="none" stroke="black" d="M3550.59,-395.25C3550.59,-395.25 3588.59,-395.25 3588.59,-395.25 3594.59,-395.25 3600.59,-401.25 3600.59,-407.25 3600.59,-407.25 3600.59,-419.25 3600.59,-419.25 3600.59,-425.25 3594.59,-431.25 3588.59,-431.25 3588.59,-431.25 3550.59,-431.25 3550.59,-431.25 3544.59,-431.25 3538.59,-425.25 3538.59,-419.25 3538.59,-419.25 3538.59,-407.25 3538.59,-407.25 3538.59,-401.25 3544.59,-395.25 3550.59,-395.25"/>
<text text-anchor="middle" x="3569.59" y="-409.55" font-family="Times New Roman,serif" font-size="14.00">0:0 &#45; 0:0</text>
</g>
<!-- n10&#45;&gt;x18 -->
<g id="edge24" class="edge">
<title>n10:e&#45;&gt;x18:w</title>
<path fill="none" stroke="#a6761d" d="M3501.59,-374.25C3521.38,-374.25 3517.38,-401 3528.99,-410.19"/>
<polygon fill="#a6761d" stroke="#a6761d" points="3528,-413.55 3538.59,-413.25 3530.12,-406.88 3528,-413.55"/>
</g>
<!-- x20 -->
<g id="node42" class="node">
<title>x20</title>
<path fill="none" stroke="black" d="M3550.59,-120.25C3550.59,-120.25 3588.59,-120.25 3588.59,-120.25 3594.59,-120.25 3600.59,-126.25 3600.59,-132.25 3600.59,-132.25 3600.59,-144.25 3600.59,-144.25 3600.59,-150.25 3594.59,-156.25 3588.59,-156.25 3588.59,-156.25 3550.59,-156.25 3550.59,-156.25 3544.59,-156.25 3538.59,-150.25 3538.59,-144.25 3538.59,-144.25 3538.59,-132.25 3538.59,-132.25 3538.59,-126.25 3544.59,-120.25 3550.59,-120.25"/>
<text text-anchor="middle" x="3569.59" y="-134.55" font-family="Times New Roman,serif" font-size="14.00">1:1 &#45; 0:0</text>
</g>
<!-- n10&#45;&gt;x20 -->
<g id="edge25" class="edge">
<title>n10:e&#45;&gt;x20:w</title>
<path fill="none" stroke="#a6761d" d="M3501.59,-374.25C3604.03,-374.25 3444.4,-154.55 3528.41,-139.1"/>
<polygon fill="#a6761d" stroke="#a6761d" points="3528.92,-142.57 3538.59,-138.25 3528.33,-135.6 3528.92,-142.57"/>
</g>
<!-- n11 -->
<g id="node11" class="node">
<title>n11</title>
<polygon fill="none" stroke="black" points="812.99,-343.25 774.28,-325.25 812.99,-307.25 851.7,-325.25 812.99,-343.25"/>
<text text-anchor="middle" x="812.99" y="-321.55" font-family="Times New Roman,serif" font-size="14.00">state</text>
</g>
<!-- x2 -->
<g id="node18" class="node">
<title>x2</title>
<path fill="none" stroke="black" d="M900.6,-491.25C900.6,-491.25 938.6,-491.25 938.6,-491.25 944.6,-491.25 950.6,-497.25 950.6,-503.25 950.6,-503.25 950.6,-515.25 950.6,-515.25 950.6,-521.25 944.6,-527.25 938.6,-527.25 938.6,-527.25 900.6,-527.25 900.6,-527.25 894.6,-527.25 888.6,-521.25 888.6,-515.25 888.6,-515.25 888.6,-503.25 888.6,-503.25 888.6,-497.25 894.6,-491.25 900.6,-491.25"/>
<text text-anchor="middle" x="919.6" y="-505.55" font-family="Times New Roman,serif" font-size="14.00">0:0 &#45; 0:0</text>
</g>
<!-- n11&#45;&gt;x2 -->
<g id="edge29" class="edge">
<title>n11:e&#45;&gt;x2:w</title>
<path fill="none" stroke="#7570b3" d="M851.6,-325.25C869.85,-325.25 868.52,-466.12 881.88,-501.34"/>
<polygon fill="#7570b3" stroke="#7570b3" points="879.45,-503.9 888.6,-509.25 884.79,-499.36 879.45,-503.9"/>
</g>
<!-- x6 -->
<g id="node23" class="node">
<title>x6</title>
<path fill="none" stroke="black" d="M980.6,-456.25C980.6,-456.25 1018.6,-456.25 1018.6,-456.25 1024.6,-456.25 1030.6,-462.25 1030.6,-468.25 1030.6,-468.25 1030.6,-480.25 1030.6,-480.25 1030.6,-486.25 1024.6,-492.25 1018.6,-492.25 1018.6,-492.25 980.6,-492.25 980.6,-492.25 974.6,-492.25 968.6,-486.25 968.6,-480.25 968.6,-480.25 968.6,-468.25 968.6,-468.25 968.6,-462.25 974.6,-456.25 980.6,-456.25"/>
<text text-anchor="middle" x="999.6" y="-470.55" font-family="Times New Roman,serif" font-size="14.00">0:0 &#45; 0:0</text>
</g>
<!-- n11&#45;&gt;x6 -->
<g id="edge30" class="edge">
<title>n11:e&#45;&gt;x6:w</title>
<path fill="none" stroke="#7570b3" d="M851.6,-325.25C870.35,-325.25 931.81,-443.44 959.9,-469.29"/>
<polygon fill="#7570b3" stroke="#7570b3" points="958.18,-472.34 968.6,-474.25 961.64,-466.26 958.18,-472.34"/>
</g>
<!-- x9 -->
<g id="node27" class="node">
<title>x9</title>
<path fill="none" stroke="black" d="M1299.6,-166.25C1299.6,-166.25 1337.6,-166.25 1337.6,-166.25 1343.6,-166.25 1349.6,-172.25 1349.6,-178.25 1349.6,-178.25 1349.6,-190.25 1349.6,-190.25 1349.6,-196.25 1343.6,-202.25 1337.6,-202.25 1337.6,-202.25 1299.6,-202.25 1299.6,-202.25 1293.6,-202.25 1287.6,-196.25 1287.6,-190.25 1287.6,-190.25 1287.6,-178.25 1287.6,-178.25 1287.6,-172.25 1293.6,-166.25 1299.6,-166.25"/>
<text text-anchor="middle" x="1318.6" y="-180.55" font-family="Times New Roman,serif" font-size="14.00">0:0 &#45; 0:0</text>
</g>
<!-- n11&#45;&gt;x9 -->
<g id="edge31" class="edge">
<title>n11:e&#45;&gt;x9:w</title>
<path fill="none" stroke="#7570b3" d="M851.6,-325.25C871.96,-325.25 870.31,-307.18 888.6,-298.25 1051.24,-218.81 1101.32,-185.49 1277.47,-184.28"/>
<polygon fill="#7570b3" stroke="#7570b3" points="1277.61,-187.78 1287.6,-184.25 1277.59,-180.78 1277.61,-187.78"/>
</g>
<!-- x21 -->
<g id="node44" class="node">
<title>x21</title>
<path fill="none" stroke="black" d="M900.6,-308.25C900.6,-308.25 938.6,-308.25 938.6,-308.25 944.6,-308.25 950.6,-314.25 950.6,-320.25 950.6,-320.25 950.6,-332.25 950.6,-332.25 950.6,-338.25 944.6,-344.25 938.6,-344.25 938.6,-344.25 900.6,-344.25 900.6,-344.25 894.6,-344.25 888.6,-338.25 888.6,-332.25 888.6,-332.25 888.6,-320.25 888.6,-320.25 888.6,-314.25 894.6,-308.25 900.6,-308.25"/>
<text text-anchor="middle" x="919.6" y="-322.55" font-family="Times New Roman,serif" font-size="14.00">0:0 &#45; 0:0</text>
</g>
<!-- n11&#45;&gt;x21 -->
<g id="edge28" class="edge">
<title>n11:e&#45;&gt;x21:w</title>
<path fill="none" stroke="#7570b3" d="M851.6,-325.25C864.07,-325.25 869.44,-325.82 878.47,-326.1"/>
<polygon fill="#7570b3" stroke="#7570b3" points="878.55,-329.6 888.6,-326.25 878.65,-322.6 878.55,-329.6"/>
</g>
<!-- n12 -->
<g id="node12" class="node">
<title>n12</title>
<polygon fill="none" stroke="black" points="3986.92,-231.79 3986.92,-246.71 3959.23,-257.25 3920.07,-257.25 3892.38,-246.71 3892.38,-231.79 3920.07,-221.25 3959.23,-221.25 3986.92,-231.79"/>
<text text-anchor="middle" x="3939.65" y="-235.55" font-family="Times New Roman,serif" font-size="14.00">walk_left</text>
</g>
<!-- n13 -->
<g id="node13" class="node">
<title>n13</title>
<polygon fill="none" stroke="black" points="3991.76,-699.79 3991.76,-714.71 3961.23,-725.25 3918.06,-725.25 3887.53,-714.71 3887.53,-699.79 3918.06,-689.25 3961.23,-689.25 3991.76,-699.79"/>
<text text-anchor="middle" x="3939.65" y="-703.55" font-family="Times New Roman,serif" font-size="14.00">walk_right</text>
</g>
<!-- n13&#45;&gt;c23 -->
<g id="edge34" class="edge">
<title>n13:e&#45;&gt;c23:w</title>
<path fill="none" stroke="#e6ab02" d="M3992.65,-707.25C4000.66,-707.25 3997.47,-719.74 3991.65,-725.25 3958.05,-757.03 3933.81,-726.9 3887.59,-725.25 3865.39,-724.46 2308.6,-626.17 2292.14,-611.25 2256.91,-579.3 2310.5,-536.43 2274.14,-505.75 2254.95,-489.55 2066.15,-488.25 2048.14,-505.75 2044.66,-509.13 2042.11,-522.05 2042.66,-531.08"/>
<polygon fill="#e6ab02" stroke="#e6ab02" points="2039.6,-532.8 2047.14,-540.25 2045.89,-529.73 2039.6,-532.8"/>
</g>
<!-- n13&#45;&gt;x23 -->
<g id="edge35" class="edge">
<title>n13:e&#45;&gt;x23:w</title>
<path fill="none" stroke="#e6ab02" d="M3992.65,-707.25C4000.66,-707.25 3996.79,-719.11 3991.65,-725.25 3919.33,-811.52 3857.66,-783.25 3745.09,-783.25 1397.6,-783.25 1397.6,-783.25 1397.6,-783.25 1337.61,-783.25 1171.13,-809.54 1128.1,-767.75 1127.75,-767.41 1127.42,-767.04 1127.1,-766.64"/>
<polygon fill="#e6ab02" stroke="#e6ab02" points="1130.6,-766.25 1127.1,-756.25 1123.6,-766.25 1130.6,-766.25"/>
</g>
<!-- c19&#45;&gt;n1 -->
<g id="edge19" class="edge">
<title>c19:e&#45;&gt;n1:w</title>
<path fill="none" stroke="#666666" d="M3232.39,-596.25C3242.73,-596.25 3238.53,-635.27 3231.39,-642.75 3111.11,-768.72 3014.57,-669.25 2840.39,-669.25 1918.14,-669.25 1918.14,-669.25 1918.14,-669.25 1869.7,-669.25 1096.85,-608.52 1048.6,-604.25 944.19,-595.01 918.81,-580.25 813.99,-580.25 542.39,-580.25 542.39,-580.25 542.39,-580.25 486.81,-580.25 140.77,-278.72 125.07,-224.54"/>
<polygon fill="#666666" stroke="#666666" points="127.97,-226.49 130.68,-216.25 122.18,-222.57 127.97,-226.49"/>
</g>
<!-- x0&#45;&gt;c19 -->
<g id="edge1" class="edge">
<title>x0:e&#45;&gt;c19:w</title>
<path fill="none" stroke="#66a61e" d="M2366.24,-584.25C2598.09,-584.25 2663.37,-584.25 2895.15,-584.25"/>
<polygon fill="none" stroke="#66a61e" points="2366.14,-584.25 2360.14,-588.25 2354.14,-584.25 2360.14,-580.25 2366.14,-584.25"/>
<polygon fill="none" stroke="#66a61e" points="2895.39,-584.25 2901.39,-580.25 2907.39,-584.25 2901.39,-588.25 2895.39,-584.25"/>
</g>
<!-- x1&#45;&gt;c19 -->
<g id="edge2" class="edge">
<title>x1:e&#45;&gt;c19:w</title>
<path fill="none" stroke="#1b9e77" d="M2882.47,-443.98C2910.78,-460.1 2866.93,-542.61 2895.42,-558.57"/>
<polygon fill="none" stroke="#1b9e77" points="2882.1,-443.9 2875.36,-446.47 2870.39,-441.25 2877.13,-438.67 2882.1,-443.9"/>
<polygon fill="none" stroke="#1b9e77" points="2895.68,-558.63 2902.41,-556.04 2907.39,-561.25 2900.66,-563.84 2895.68,-558.63"/>
</g>
<!-- x3 -->
<g id="node19" class="node">
<title>x3</title>
<path fill="none" stroke="black" d="M1459.6,-414.25C1459.6,-414.25 1497.6,-414.25 1497.6,-414.25 1503.6,-414.25 1509.6,-420.25 1509.6,-426.25 1509.6,-426.25 1509.6,-438.25 1509.6,-438.25 1509.6,-444.25 1503.6,-450.25 1497.6,-450.25 1497.6,-450.25 1459.6,-450.25 1459.6,-450.25 1453.6,-450.25 1447.6,-444.25 1447.6,-438.25 1447.6,-438.25 1447.6,-426.25 1447.6,-426.25 1447.6,-420.25 1453.6,-414.25 1459.6,-414.25"/>
<text text-anchor="middle" x="1478.6" y="-428.55" font-family="Times New Roman,serif" font-size="14.00">0:0 &#45; 1:1</text>
</g>
<!-- c20&#45;&gt;x3 -->
<g id="edge4" class="edge">
<title>c20:e&#45;&gt;x3:w</title>
<path fill="none" stroke="#7570b3" d="M1281.68,-555.55C1361.02,-546.06 1356.11,-442.65 1435.29,-432.97"/>
<polygon fill="none" stroke="#7570b3" points="1281.58,-555.56 1275.82,-559.9 1269.6,-556.25 1275.36,-551.91 1281.58,-555.56"/>
<polygon fill="none" stroke="#7570b3" points="1435.62,-432.95 1441.37,-428.61 1447.6,-432.25 1441.84,-436.6 1435.62,-432.95"/>
</g>
<!-- x2&#45;&gt;c20 -->
<g id="edge3" class="edge">
<title>x2:e&#45;&gt;c20:w</title>
<path fill="none" stroke="#1b9e77" d="M962.6,-510.11C994.48,-514.94 1004.6,-538.45 1036.38,-543.35"/>
<polygon fill="none" stroke="#1b9e77" points="962.57,-510.11 956.3,-513.67 950.6,-509.25 956.87,-505.69 962.57,-510.11"/>
<polygon fill="none" stroke="#1b9e77" points="1036.63,-543.37 1042.91,-539.82 1048.6,-544.25 1042.32,-547.8 1036.63,-543.37"/>
</g>
<!-- x3&#45;&gt;n2 -->
<g id="edge37" class="edge">
<title>x3:e&#45;&gt;n2:w</title>
<path fill="none" stroke="#1b9e77" d="M1509.6,-432.25C1522.23,-432.25 1516.33,-415.96 1527.6,-410.25 1670.75,-337.74 1727.73,-395.47 1888.14,-391.25 1915.69,-390.52 1922.59,-391.08 1950.14,-391.25 2094.15,-392.14 2130.16,-392.56 2274.14,-395.25 2309.7,-395.91 2318.74,-393.87 2354.14,-397.25 2357.67,-397.59 2360.01,-398.2 2362.2,-398.79"/>
<polygon fill="#1b9e77" stroke="#1b9e77" points="2361.74,-402.26 2372.14,-400.25 2362.76,-395.33 2361.74,-402.26"/>
</g>
<!-- v4 -->
<g id="node20" class="node">
<title>v4</title>
<ellipse fill="none" stroke="black" cx="3569.59" cy="-556.25" rx="27" ry="18"/>
<text text-anchor="middle" x="3569.59" y="-552.55" font-family="Times New Roman,serif" font-size="14.00">1&#39;0</text>
</g>
<!-- v4&#45;&gt;c21 -->
<g id="edge67" class="edge">
<title>v4:e&#45;&gt;c21:w</title>
<path fill="none" stroke="#1b9e77" d="M3597.59,-556.25C3611.69,-556.25 3617.16,-551.98 3627.48,-550.11"/>
<polygon fill="#1b9e77" stroke="#1b9e77" points="3627.92,-553.58 3637.59,-549.25 3627.33,-546.61 3627.92,-553.58"/>
</g>
<!-- v5 -->
<g id="node21" class="node">
<title>v5</title>
<ellipse fill="none" stroke="black" cx="3569.59" cy="-515.25" rx="27" ry="18"/>
<text text-anchor="middle" x="3569.59" y="-511.55" font-family="Times New Roman,serif" font-size="14.00">1&#39;0</text>
</g>
<!-- v5&#45;&gt;c21 -->
<g id="edge68" class="edge">
<title>v5:e&#45;&gt;c21:w</title>
<path fill="none" stroke="#e7298a" d="M3597.59,-515.25C3611.99,-515.25 3617.05,-521.96 3627.37,-524.9"/>
<polygon fill="#e7298a" stroke="#e7298a" points="3627.22,-528.41 3637.59,-526.25 3628.13,-521.47 3627.22,-528.41"/>
</g>
<!-- c21&#45;&gt;n13 -->
<g id="edge33" class="edge">
<title>c21:e&#45;&gt;n13:w</title>
<path fill="none" stroke="#e6ab02" d="M3850.59,-514.25C3890.51,-514.25 3851.88,-675.5 3878.29,-703.22"/>
<polygon fill="#e6ab02" stroke="#e6ab02" points="3877.02,-706.48 3887.59,-707.25 3879.81,-700.06 3877.02,-706.48"/>
</g>
<!-- x6&#45;&gt;c21 -->
<g id="edge5" class="edge">
<title>x6:e&#45;&gt;c21:w</title>
<path fill="none" stroke="#e7298a" d="M1042.67,-474.31C1160.58,-475.52 1193.85,-494.25 1317.6,-494.25 1317.6,-494.25 1317.6,-494.25 1690.37,-494.25 1899.26,-494.25 1951.25,-479.25 2160.14,-479.25 2160.14,-479.25 2160.14,-479.25 3570.59,-479.25 3595.83,-479.25 3605.02,-479.25 3625.38,-479.25"/>
<polygon fill="none" stroke="#e7298a" points="1042.6,-474.31 1036.58,-478.28 1030.6,-474.25 1036.62,-470.28 1042.6,-474.31"/>
<polygon fill="none" stroke="#e7298a" points="3625.59,-479.25 3631.59,-475.25 3637.59,-479.25 3631.59,-483.25 3625.59,-479.25"/>
</g>
<!-- v7 -->
<g id="node24" class="node">
<title>v7</title>
<ellipse fill="none" stroke="black" cx="3569.59" cy="-252.25" rx="27" ry="18"/>
<text text-anchor="middle" x="3569.59" y="-248.55" font-family="Times New Roman,serif" font-size="14.00">1&#39;0</text>
</g>
<!-- v7&#45;&gt;c22 -->
<g id="edge69" class="edge">
<title>v7:e&#45;&gt;c22:w</title>
<path fill="none" stroke="#666666" d="M3597.59,-252.25C3612.71,-252.25 3618.67,-249.71 3630.07,-248.68"/>
<polygon fill="#666666" stroke="#666666" points="3630.25,-252.17 3640.09,-248.25 3629.95,-245.18 3630.25,-252.17"/>
</g>
<!-- v8 -->
<g id="node25" class="node">
<title>v8</title>
<ellipse fill="none" stroke="black" cx="3569.59" cy="-211.25" rx="27" ry="18"/>
<text text-anchor="middle" x="3569.59" y="-207.55" font-family="Times New Roman,serif" font-size="14.00">1&#39;0</text>
</g>
<!-- v8&#45;&gt;c22 -->
<g id="edge70" class="edge">
<title>v8:e&#45;&gt;c22:w</title>
<path fill="none" stroke="#a6761d" d="M3597.59,-211.25C3613.59,-211.25 3618.48,-220.31 3630.14,-223.86"/>
<polygon fill="#a6761d" stroke="#a6761d" points="3629.7,-227.33 3640.09,-225.25 3630.67,-220.4 3629.7,-227.33"/>
</g>
<!-- c22&#45;&gt;n12 -->
<g id="edge32" class="edge">
<title>c22:e&#45;&gt;n12:w</title>
<path fill="none" stroke="#a6761d" d="M3848.09,-213.25C3866.27,-213.25 3868.35,-230.75 3880.74,-237.03"/>
<polygon fill="#a6761d" stroke="#a6761d" points="3880.12,-240.48 3890.65,-239.25 3881.65,-233.65 3880.12,-240.48"/>
</g>
<!-- x9&#45;&gt;c22 -->
<g id="edge6" class="edge">
<title>x9:e&#45;&gt;c22:w</title>
<path fill="none" stroke="#e7298a" d="M1361.62,-184.11C1408.93,-182.96 1424.8,-175.25 1477.6,-175.25 1477.6,-175.25 1477.6,-175.25 3570.59,-175.25 3597.04,-175.25 3606.47,-177.44 3628,-178.08"/>
<polygon fill="none" stroke="#e7298a" points="1361.6,-184.11 1355.65,-188.18 1349.6,-184.25 1355.55,-180.18 1361.6,-184.11"/>
<polygon fill="none" stroke="#e7298a" points="3628.09,-178.08 3634.15,-174.17 3640.09,-178.25 3634.03,-182.16 3628.09,-178.08"/>
</g>
<!-- v10 -->
<g id="node28" class="node">
<title>v10</title>
<ellipse fill="none" stroke="black" cx="1919.14" cy="-593.25" rx="27" ry="18"/>
<text text-anchor="middle" x="1919.14" y="-589.55" font-family="Times New Roman,serif" font-size="14.00">1&#39;0</text>
</g>
<!-- v10&#45;&gt;c23 -->
<g id="edge64" class="edge">
<title>v10:e&#45;&gt;c23:w</title>
<path fill="none" stroke="#e6ab02" d="M1947.14,-593.25C1988.42,-593.25 2001.13,-588.19 2037.72,-587.36"/>
<polygon fill="#e6ab02" stroke="#e6ab02" points="2038.18,-590.86 2048.14,-587.25 2038.1,-583.86 2038.18,-590.86"/>
</g>
<!-- x12 -->
<g id="node31" class="node">
<title>x12</title>
<path fill="none" stroke="black" d="M2740.39,-514.25C2740.39,-514.25 2778.39,-514.25 2778.39,-514.25 2784.39,-514.25 2790.39,-520.25 2790.39,-526.25 2790.39,-526.25 2790.39,-538.25 2790.39,-538.25 2790.39,-544.25 2784.39,-550.25 2778.39,-550.25 2778.39,-550.25 2740.39,-550.25 2740.39,-550.25 2734.39,-550.25 2728.39,-544.25 2728.39,-538.25 2728.39,-538.25 2728.39,-526.25 2728.39,-526.25 2728.39,-520.25 2734.39,-514.25 2740.39,-514.25"/>
<text text-anchor="middle" x="2759.39" y="-528.55" font-family="Times New Roman,serif" font-size="14.00">0:0 &#45; 0:0</text>
</g>
<!-- c23&#45;&gt;x12 -->
<g id="edge8" class="edge">
<title>c23:e&#45;&gt;x12:w</title>
<path fill="none" stroke="#d95f02" d="M2286.39,-552.22C2474.31,-551.45 2528.2,-533.05 2716.11,-532.27"/>
<polygon fill="none" stroke="#d95f02" points="2286.14,-552.22 2280.15,-556.24 2274.14,-552.25 2280.13,-548.24 2286.14,-552.22"/>
<polygon fill="none" stroke="#d95f02" points="2716.39,-532.27 2722.38,-528.26 2728.39,-532.25 2722.4,-536.26 2716.39,-532.27"/>
</g>
<!-- x11&#45;&gt;c23 -->
<g id="edge7" class="edge">
<title>x11:e&#45;&gt;c23:w</title>
<path fill="none" stroke="#7570b3" d="M1962.47,-516.28C1992.42,-516.42 2005.85,-517.07 2035.79,-517.22"/>
<polygon fill="none" stroke="#7570b3" points="1962.14,-516.28 1956.13,-520.26 1950.14,-516.25 1956.15,-512.26 1962.14,-516.28"/>
<polygon fill="none" stroke="#7570b3" points="2036.14,-517.22 2042.15,-513.24 2048.14,-517.25 2042.13,-521.24 2036.14,-517.22"/>
</g>
<!-- x12&#45;&gt;n10 -->
<g id="edge22" class="edge">
<title>x12:e&#45;&gt;n10:w</title>
<path fill="none" stroke="#a6761d" d="M2790.39,-532.25C2992.61,-532.25 3036.58,-474.48 3231.39,-420.25 3275.68,-407.92 3286.8,-404.87 3330.39,-390.25 3338.92,-387.39 3341.13,-386.82 3349.39,-383.25 3353.24,-381.58 3355.47,-379.5 3357.68,-377.76"/>
<polygon fill="#a6761d" stroke="#a6761d" points="3359.18,-380.94 3367.39,-374.25 3356.8,-374.36 3359.18,-380.94"/>
</g>
<!-- v13 -->
<g id="node32" class="node">
<title>v13</title>
<ellipse fill="none" stroke="black" cx="2839.39" cy="-330.25" rx="27" ry="18"/>
<text text-anchor="middle" x="2839.39" y="-326.55" font-family="Times New Roman,serif" font-size="14.00">1&#39;0</text>
</g>
<!-- c24 -->
<g id="node34" class="node">
<title>c24</title>
<polygon fill="none" stroke="black" points="2963.39,-240.25 2963.39,-332.25 3175.39,-332.25 3175.39,-240.25 2963.39,-240.25"/>
<text text-anchor="middle" x="2977.39" y="-317.05" font-family="Times New Roman,serif" font-size="14.00">I0</text>
<polyline fill="none" stroke="black" points="2963.39,-309.25 2991.39,-309.25 "/>
<text text-anchor="middle" x="2977.39" y="-294.05" font-family="Times New Roman,serif" font-size="14.00">I1</text>
<polyline fill="none" stroke="black" points="2963.39,-286.25 2991.39,-286.25 "/>
<text text-anchor="middle" x="2977.39" y="-271.05" font-family="Times New Roman,serif" font-size="14.00">I2</text>
<polyline fill="none" stroke="black" points="2963.39,-263.25 2991.39,-263.25 "/>
<text text-anchor="middle" x="2977.39" y="-248.05" font-family="Times New Roman,serif" font-size="14.00">I3</text>
<polyline fill="none" stroke="black" points="2991.39,-240.25 2991.39,-332.25 "/>
<text text-anchor="middle" x="3069.89" y="-290.05" font-family="Times New Roman,serif" font-size="14.00">next_state_SB_LUT4_O</text>
<text text-anchor="middle" x="3069.89" y="-275.05" font-family="Times New Roman,serif" font-size="14.00">SB_LUT4</text>
<polyline fill="none" stroke="black" points="3148.39,-240.25 3148.39,-332.25 "/>
<text text-anchor="middle" x="3161.89" y="-282.55" font-family="Times New Roman,serif" font-size="14.00">O</text>
</g>
<!-- v13&#45;&gt;c24 -->
<g id="edge65" class="edge">
<title>v13:e&#45;&gt;c24:w</title>
<path fill="none" stroke="#1b9e77" d="M2867.39,-330.25C2906.16,-330.25 2917.99,-322.73 2952.13,-321.44"/>
<polygon fill="#1b9e77" stroke="#1b9e77" points="2952.46,-324.93 2962.39,-321.25 2952.33,-317.93 2952.46,-324.93"/>
</g>
<!-- v14 -->
<g id="node33" class="node">
<title>v14</title>
<ellipse fill="none" stroke="black" cx="2839.39" cy="-289.25" rx="27" ry="18"/>
<text text-anchor="middle" x="2839.39" y="-285.55" font-family="Times New Roman,serif" font-size="14.00">1&#39;0</text>
</g>
<!-- v14&#45;&gt;c24 -->
<g id="edge66" class="edge">
<title>v14:e&#45;&gt;c24:w</title>
<path fill="none" stroke="#66a61e" d="M2867.39,-289.25C2906.16,-289.25 2917.99,-296.77 2952.13,-298.06"/>
<polygon fill="#66a61e" stroke="#66a61e" points="2952.33,-301.57 2962.39,-298.25 2952.46,-294.57 2952.33,-301.57"/>
</g>
<!-- x17 -->
<g id="node37" class="node">
<title>x17</title>
<path fill="none" stroke="black" d="M3280.39,-345.25C3280.39,-345.25 3318.39,-345.25 3318.39,-345.25 3324.39,-345.25 3330.39,-351.25 3330.39,-357.25 3330.39,-357.25 3330.39,-369.25 3330.39,-369.25 3330.39,-375.25 3324.39,-381.25 3318.39,-381.25 3318.39,-381.25 3280.39,-381.25 3280.39,-381.25 3274.39,-381.25 3268.39,-375.25 3268.39,-369.25 3268.39,-369.25 3268.39,-357.25 3268.39,-357.25 3268.39,-351.25 3274.39,-345.25 3280.39,-345.25"/>
<text text-anchor="middle" x="3299.39" y="-359.55" font-family="Times New Roman,serif" font-size="14.00">0:0 &#45; 1:1</text>
</g>
<!-- c24&#45;&gt;x17 -->
<g id="edge11" class="edge">
<title>c24:e&#45;&gt;x17:w</title>
<path fill="none" stroke="#e6ab02" d="M3188.47,-287.79C3224.05,-297.62 3220.67,-351.61 3256.07,-361.64"/>
<polygon fill="none" stroke="#e6ab02" points="3188.3,-287.77 3181.84,-290.98 3176.39,-286.25 3182.85,-283.04 3188.3,-287.77"/>
<polygon fill="none" stroke="#e6ab02" points="3256.49,-361.7 3262.96,-358.51 3268.39,-363.25 3261.93,-366.44 3256.49,-361.7"/>
</g>
<!-- x15&#45;&gt;c24 -->
<g id="edge9" class="edge">
<title>x15:e&#45;&gt;c24:w</title>
<path fill="none" stroke="#1b9e77" d="M2042.24,-296.23C2379.39,-295 2465.55,-242.42 2808.39,-227.25 2835.92,-226.03 2843.6,-220.8 2870.39,-227.25 2910.67,-236.94 2915.78,-267.41 2950.13,-273.27"/>
<polygon fill="none" stroke="#1b9e77" points="2042.14,-296.23 2036.15,-300.24 2030.14,-296.25 2036.13,-292.24 2042.14,-296.23"/>
<polygon fill="none" stroke="#1b9e77" points="2950.43,-273.29 2956.73,-269.78 2962.39,-274.25 2956.09,-277.76 2950.43,-273.29"/>
</g>
<!-- x16&#45;&gt;c24 -->
<g id="edge10" class="edge">
<title>x16:e&#45;&gt;c24:w</title>
<path fill="none" stroke="#1b9e77" d="M2882.8,-247.38C2910.14,-247.99 2922.75,-250.52 2950.15,-251.12"/>
<polygon fill="none" stroke="#1b9e77" points="2882.39,-247.38 2876.35,-251.31 2870.39,-247.25 2876.43,-243.31 2882.39,-247.38"/>
<polygon fill="none" stroke="#1b9e77" points="2950.39,-251.12 2956.43,-247.19 2962.39,-251.25 2956.35,-255.19 2950.39,-251.12"/>
</g>
<!-- x17&#45;&gt;n10 -->
<g id="edge23" class="edge">
<title>x17:e&#45;&gt;n10:w</title>
<path fill="none" stroke="#a6761d" d="M3330.39,-363.25C3343.53,-363.25 3348.18,-369.7 3357.34,-372.72"/>
<polygon fill="#a6761d" stroke="#a6761d" points="3356.98,-376.21 3367.39,-374.25 3358.03,-369.28 3356.98,-376.21"/>
</g>
<!-- x19 -->
<g id="node40" class="node">
<title>x19</title>
<path fill="none" stroke="black" d="M687.39,-186.25C687.39,-186.25 725.39,-186.25 725.39,-186.25 731.39,-186.25 737.39,-192.25 737.39,-198.25 737.39,-198.25 737.39,-210.25 737.39,-210.25 737.39,-216.25 731.39,-222.25 725.39,-222.25 725.39,-222.25 687.39,-222.25 687.39,-222.25 681.39,-222.25 675.39,-216.25 675.39,-210.25 675.39,-210.25 675.39,-198.25 675.39,-198.25 675.39,-192.25 681.39,-186.25 687.39,-186.25"/>
<text text-anchor="middle" x="706.39" y="-200.55" font-family="Times New Roman,serif" font-size="14.00">0:0 &#45; 0:0</text>
</g>
<!-- c30&#45;&gt;x19 -->
<g id="edge13" class="edge">
<title>c30:e&#45;&gt;x19:w</title>
<path fill="none" stroke="#d95f02" d="M649.95,-224.29C655.43,-219.81 658.41,-212.58 663.92,-208.14"/>
<polygon fill="none" stroke="#d95f02" points="649.74,-224.36 645.36,-230.09 638.39,-228.25 642.77,-222.52 649.74,-224.36"/>
<polygon fill="none" stroke="#d95f02" points="664.03,-208.1 668.42,-202.39 675.39,-204.25 670.99,-209.96 664.03,-208.1"/>
</g>
<!-- x18&#45;&gt;c30 -->
<g id="edge12" class="edge">
<title>x18:e&#45;&gt;c30:w</title>
<path fill="none" stroke="#e6ab02" d="M3605.13,-424.95C3604.06,-427.51 3602.46,-429.98 3600.59,-431.75 3580.59,-450.7 3566.13,-432.72 3538.59,-431.75 3169.81,-418.74 3078.52,-398.65 2710.39,-373.25 2380.54,-350.49 2297.85,-348.04 1968.14,-323.25 1657.49,-299.89 1580.86,-278.15 1269.6,-265.25 1171.46,-261.18 1146.81,-264.11 1048.6,-265.25 866.25,-267.36 820.74,-272.64 638.39,-274.75 553.95,-275.73 508.96,-333.59 448.39,-274.75 445.17,-271.62 442.74,-260.31 442.83,-251.49"/>
<polygon fill="none" stroke="#e6ab02" points="3605.06,-424.74 3599.5,-420.15 3601.59,-413.25 3607.15,-417.83 3605.06,-424.74"/>
<polygon fill="none" stroke="#e6ab02" points="442.88,-251.37 441.43,-244.31 447.39,-240.25 448.84,-247.31 442.88,-251.37"/>
</g>
<!-- x19&#45;&gt;n11 -->
<g id="edge26" class="edge">
<title>x19:e&#45;&gt;n11:w</title>
<path fill="none" stroke="#7570b3" d="M737.39,-204.25C764.52,-204.25 748.44,-236.31 756.39,-262.25 763.66,-285.96 750.48,-314.97 764.39,-323.06"/>
<polygon fill="#7570b3" stroke="#7570b3" points="763.87,-326.53 774.39,-325.25 765.37,-319.69 763.87,-326.53"/>
</g>
<!-- c31&#45;&gt;n4 -->
<g id="edge46" class="edge">
<title>c31:e&#45;&gt;n4:w</title>
<path fill="none" stroke="#a6761d" d="M3840.09,-87.25C3891.93,-87.25 3859.2,-296.43 3899.81,-324.21"/>
<polygon fill="#a6761d" stroke="#a6761d" points="3899.06,-327.65 3909.65,-327.25 3901.12,-320.96 3899.06,-327.65"/>
</g>
<!-- x20&#45;&gt;c31 -->
<g id="edge14" class="edge">
<title>x20:e&#45;&gt;c31:w</title>
<path fill="none" stroke="#d95f02" d="M3612.38,-134.92C3623.37,-127.56 3625.31,-109.93 3636.31,-102.57"/>
<polygon fill="none" stroke="#d95f02" points="3612.14,-134.99 3607.45,-140.47 3600.59,-138.25 3605.28,-132.77 3612.14,-134.99"/>
<polygon fill="none" stroke="#d95f02" points="3636.54,-102.5 3641.23,-97.03 3648.09,-99.25 3643.4,-104.73 3636.54,-102.5"/>
</g>
<!-- x22 -->
<g id="node45" class="node">
<title>x22</title>
<path fill="none" stroke="black" d="M1379.6,-330.25C1379.6,-330.25 1417.6,-330.25 1417.6,-330.25 1423.6,-330.25 1429.6,-336.25 1429.6,-342.25 1429.6,-342.25 1429.6,-354.25 1429.6,-354.25 1429.6,-360.25 1423.6,-366.25 1417.6,-366.25 1417.6,-366.25 1379.6,-366.25 1379.6,-366.25 1373.6,-366.25 1367.6,-360.25 1367.6,-354.25 1367.6,-354.25 1367.6,-342.25 1367.6,-342.25 1367.6,-336.25 1373.6,-330.25 1379.6,-330.25"/>
<text text-anchor="middle" x="1398.6" y="-344.55" font-family="Times New Roman,serif" font-size="14.00">0:0 &#45; 2:2</text>
</g>
<!-- c32&#45;&gt;x22 -->
<g id="edge16" class="edge">
<title>c32:e&#45;&gt;x22:w</title>
<path fill="none" stroke="#1b9e77" d="M1279.35,-315.09C1312.07,-319.79 1322.74,-342.81 1355.56,-347.44"/>
<polygon fill="none" stroke="#1b9e77" points="1279.07,-315.07 1272.81,-318.65 1267.1,-314.25 1273.36,-310.67 1279.07,-315.07"/>
<polygon fill="none" stroke="#1b9e77" points="1355.63,-347.44 1361.88,-343.86 1367.6,-348.25 1361.34,-351.84 1355.63,-347.44"/>
</g>
<!-- x21&#45;&gt;c32 -->
<g id="edge15" class="edge">
<title>x21:e&#45;&gt;c32:w</title>
<path fill="none" stroke="#d95f02" d="M962.79,-326.25C993.94,-326.25 1007.68,-326.25 1038.79,-326.25"/>
<polygon fill="none" stroke="#d95f02" points="962.6,-326.25 956.6,-330.25 950.6,-326.25 956.6,-322.25 962.6,-326.25"/>
<polygon fill="none" stroke="#d95f02" points="1039.1,-326.25 1045.1,-322.25 1051.1,-326.25 1045.1,-330.25 1039.1,-326.25"/>
</g>
<!-- x22&#45;&gt;n3 -->
<g id="edge40" class="edge">
<title>x22:e&#45;&gt;n3:w</title>
<path fill="none" stroke="#66a61e" d="M1429.6,-348.25C1473,-348.25 1480.67,-371.9 1509.6,-404.25 1517.43,-413.01 1514.89,-425.76 1518.5,-432.57"/>
<polygon fill="#66a61e" stroke="#66a61e" points="1517.11,-435.79 1527.6,-437.25 1520.31,-429.56 1517.11,-435.79"/>
</g>
<!-- x24 -->
<g id="node47" class="node">
<title>x24</title>
<path fill="none" stroke="black" d="M1379.6,-716.25C1379.6,-716.25 1417.6,-716.25 1417.6,-716.25 1423.6,-716.25 1429.6,-722.25 1429.6,-728.25 1429.6,-728.25 1429.6,-740.25 1429.6,-740.25 1429.6,-746.25 1423.6,-752.25 1417.6,-752.25 1417.6,-752.25 1379.6,-752.25 1379.6,-752.25 1373.6,-752.25 1367.6,-746.25 1367.6,-740.25 1367.6,-740.25 1367.6,-728.25 1367.6,-728.25 1367.6,-722.25 1373.6,-716.25 1379.6,-716.25"/>
<text text-anchor="middle" x="1398.6" y="-730.55" font-family="Times New Roman,serif" font-size="14.00">1:0 &#45; 1:0</text>
</g>
<!-- x23&#45;&gt;x24 -->
<g id="edge17" class="edge">
<title>x23:e&#45;&gt;x24:w</title>
<path fill="none" stroke="#1b9e77" stroke-width="3" d="M1203.48,-744.16C1268.08,-743.24 1290.75,-735.24 1355.47,-734.33"/>
<polygon fill="none" stroke="#1b9e77" stroke-width="3" points="1203.1,-744.17 1197.13,-748.21 1191.1,-744.25 1197.07,-740.21 1203.1,-744.17"/>
<polygon fill="none" stroke="#1b9e77" stroke-width="3" points="1355.6,-734.33 1361.57,-730.29 1367.6,-734.25 1361.63,-738.29 1355.6,-734.33"/>
<text text-anchor="middle" x="1318.6" y="-742.05" font-family="Times New Roman,serif" font-size="14.00" fill="#1b9e77">&lt;2&gt;</text>
</g>
<!-- x24&#45;&gt;n3 -->
<g id="edge41" class="edge">
<title>x24:e&#45;&gt;n3:w</title>
<path fill="none" stroke="#66a61e" d="M1429.6,-734.25C1461.5,-734.25 1488.13,-483.98 1519.17,-442.92"/>
<polygon fill="#66a61e" stroke="#66a61e" points="1521.25,-445.73 1527.6,-437.25 1517.35,-439.92 1521.25,-445.73"/>
</g>
<!-- x26 -->
<g id="node49" class="node">
<title>x26</title>
<path fill="none" stroke="black" d="M2142.14,-401.25C2142.14,-401.25 2180.14,-401.25 2180.14,-401.25 2186.14,-401.25 2192.14,-407.25 2192.14,-413.25 2192.14,-413.25 2192.14,-425.25 2192.14,-425.25 2192.14,-431.25 2186.14,-437.25 2180.14,-437.25 2180.14,-437.25 2142.14,-437.25 2142.14,-437.25 2136.14,-437.25 2130.14,-431.25 2130.14,-425.25 2130.14,-425.25 2130.14,-413.25 2130.14,-413.25 2130.14,-407.25 2136.14,-401.25 2142.14,-401.25"/>
<text text-anchor="middle" x="2161.14" y="-415.55" font-family="Times New Roman,serif" font-size="14.00">0:0 &#45; 0:0</text>
</g>
<!-- x25&#45;&gt;x26 -->
<g id="edge18" class="edge">
<title>x25:e&#45;&gt;x26:w</title>
<path fill="none" stroke="#7570b3" d="M1962.25,-419.25C2028.01,-419.25 2051.16,-419.25 2116.83,-419.25"/>
<polygon fill="none" stroke="#7570b3" points="1962.14,-419.25 1956.14,-423.25 1950.14,-419.25 1956.14,-415.25 1962.14,-419.25"/>
<polygon fill="none" stroke="#7570b3" points="2117.14,-419.25 2123.14,-415.25 2129.14,-419.25 2123.14,-423.25 2117.14,-419.25"/>
</g>
<!-- x26&#45;&gt;n2 -->
<g id="edge36" class="edge">
<title>x26:e&#45;&gt;n2:w</title>
<path fill="none" stroke="#1b9e77" d="M2193.14,-419.25C2269.55,-419.25 2290.31,-401.92 2361.72,-400.36"/>
<polygon fill="#1b9e77" stroke="#1b9e77" points="2362.18,-403.86 2372.14,-400.25 2362.11,-396.86 2362.18,-403.86"/>
</g>
<!-- x27&#45;&gt;n11 -->
<g id="edge27" class="edge">
<title>x27:e&#45;&gt;n11:w</title>
<path fill="none" stroke="#7570b3" d="M737.39,-246.25C772.07,-246.25 743.29,-309.46 764.58,-322.8"/>
<polygon fill="#7570b3" stroke="#7570b3" points="763.84,-326.22 774.39,-325.25 765.54,-319.43 763.84,-326.22"/>
</g>
</g>
</svg>
