<svg xmlns="http://www.w3.org/2000/svg" xmlns:xlink="http://www.w3.org/1999/xlink" xmlns:s="https://github.com/nturley/netlistsvg" width="1355" height="694">
  <style>svg {
    stroke:#000;
    fill:none;
  }
  text {
    fill:#000;
    stroke:none;
    font-size:10px;
    font-weight: bold;
    font-family: "Courier New", monospace;
  }
  .nodelabel {
    text-anchor: middle;
  }
  .inputPortLabel {
    text-anchor: end;
  }
  .splitjoinBody {
    fill:#000;
  }</style>
  <g s:type="generic" transform="translate(284,280.5)" s:width="30" s:height="40" id="cell_$auto$opt_reduce.cc:128:opt_mux$23">
    <text x="15" y="-4" class="nodelabel cell_$auto$opt_reduce.cc:128:opt_mux$23" s:attribute="ref">$reduce_or</text>
    <rect width="30" height="20" s:generic="body" class="cell_$auto$opt_reduce.cc:128:opt_mux$23"/>
    <g transform="translate(0,10)" s:x="0" s:y="10" s:pid="in0" id="port_$auto$opt_reduce.cc:128:opt_mux$23~A">
      <text x="-3" y="-4" class="inputPortLabel cell_$auto$opt_reduce.cc:128:opt_mux$23">A</text>
    </g>
    <g transform="translate(30,10)" s:x="30" s:y="10" s:pid="out0" id="port_$auto$opt_reduce.cc:128:opt_mux$23~Y">
      <text x="5" y="-4" style="fill:#000; stroke:none" class="cell_$auto$opt_reduce.cc:128:opt_mux$23">Y</text>
    </g>
  </g>
  <g s:type="generic" transform="translate(284,418)" s:width="30" s:height="40" id="cell_$auto$opt_reduce.cc:128:opt_mux$25">
    <text x="15" y="-4" class="nodelabel cell_$auto$opt_reduce.cc:128:opt_mux$25" s:attribute="ref">$reduce_or</text>
    <rect width="30" height="20" s:generic="body" class="cell_$auto$opt_reduce.cc:128:opt_mux$25"/>
    <g transform="translate(0,10)" s:x="0" s:y="10" s:pid="in0" id="port_$auto$opt_reduce.cc:128:opt_mux$25~A">
      <text x="-3" y="-4" class="inputPortLabel cell_$auto$opt_reduce.cc:128:opt_mux$25">A</text>
    </g>
    <g transform="translate(30,10)" s:x="30" s:y="10" s:pid="out0" id="port_$auto$opt_reduce.cc:128:opt_mux$25~Y">
      <text x="5" y="-4" style="fill:#000; stroke:none" class="cell_$auto$opt_reduce.cc:128:opt_mux$25">Y</text>
    </g>
  </g>
  <g s:type="generic" transform="translate(954,554)" s:width="30" s:height="40" id="cell_$auto$opt_reduce.cc:128:opt_mux$27">
    <text x="15" y="-4" class="nodelabel cell_$auto$opt_reduce.cc:128:opt_mux$27" s:attribute="ref">$reduce_or</text>
    <rect width="30" height="20" s:generic="body" class="cell_$auto$opt_reduce.cc:128:opt_mux$27"/>
    <g transform="translate(0,10)" s:x="0" s:y="10" s:pid="in0" id="port_$auto$opt_reduce.cc:128:opt_mux$27~A">
      <text x="-3" y="-4" class="inputPortLabel cell_$auto$opt_reduce.cc:128:opt_mux$27">A</text>
    </g>
    <g transform="translate(30,10)" s:x="30" s:y="10" s:pid="out0" id="port_$auto$opt_reduce.cc:128:opt_mux$27~Y">
      <text x="5" y="-4" style="fill:#000; stroke:none" class="cell_$auto$opt_reduce.cc:128:opt_mux$27">Y</text>
    </g>
  </g>
  <g s:type="generic" transform="translate(690,332.5)" s:width="30" s:height="40" id="cell_$procdff$22">
    <text x="15" y="-4" class="nodelabel cell_$procdff$22" s:attribute="ref">$adff</text>
    <rect width="30" height="60" s:generic="body" class="cell_$procdff$22"/>
    <g transform="translate(0,10)" s:x="0" s:y="10" s:pid="in0" id="port_$procdff$22~ARST">
      <text x="-3" y="-4" class="inputPortLabel cell_$procdff$22">ARST</text>
    </g>
    <g transform="translate(0,30)" s:x="0" s:y="10" s:pid="in0" id="port_$procdff$22~CLK">
      <text x="-3" y="-4" class="inputPortLabel cell_$procdff$22">CLK</text>
    </g>
    <g transform="translate(0,50)" s:x="0" s:y="10" s:pid="in0" id="port_$procdff$22~D">
      <text x="-3" y="-4" class="inputPortLabel cell_$procdff$22">D</text>
    </g>
    <g transform="translate(30,10)" s:x="30" s:y="10" s:pid="out0" id="port_$procdff$22~Q">
      <text x="5" y="-4" style="fill:#000; stroke:none" class="cell_$procdff$22">Q</text>
    </g>
  </g>
  <g s:type="eq" transform="translate(840.6666666666666,328)" s:width="25" s:height="25" id="cell_$procmux$10_CMP0">
    <s:alias val="$eq"/>
    <circle r="12.5" cx="12.5" cy="12.5" class="cell_$procmux$10_CMP0"/>
    <line x1="7.5" x2="17.5" y1="10" y2="10" class="cell_$procmux$10_CMP0"/>
    <line x1="7.5" x2="17.5" y1="15" y2="15" class="cell_$procmux$10_CMP0"/>
    <g s:x="3" s:y="5" s:pid="A"/>
    <g s:x="3" s:y="20" s:pid="B"/>
    <g s:x="25" s:y="12.5" s:pid="Y"/>
  </g>
  <g s:type="eq" transform="translate(840.6666666666666,542)" s:width="25" s:height="25" id="cell_$procmux$11_CMP0">
    <s:alias val="$eq"/>
    <circle r="12.5" cx="12.5" cy="12.5" class="cell_$procmux$11_CMP0"/>
    <line x1="7.5" x2="17.5" y1="10" y2="10" class="cell_$procmux$11_CMP0"/>
    <line x1="7.5" x2="17.5" y1="15" y2="15" class="cell_$procmux$11_CMP0"/>
    <g s:x="3" s:y="5" s:pid="A"/>
    <g s:x="3" s:y="20" s:pid="B"/>
    <g s:x="25" s:y="12.5" s:pid="Y"/>
  </g>
  <g s:type="eq" transform="translate(840.6666666666666,602)" s:width="25" s:height="25" id="cell_$procmux$12_CMP0">
    <s:alias val="$eq"/>
    <circle r="12.5" cx="12.5" cy="12.5" class="cell_$procmux$12_CMP0"/>
    <line x1="7.5" x2="17.5" y1="10" y2="10" class="cell_$procmux$12_CMP0"/>
    <line x1="7.5" x2="17.5" y1="15" y2="15" class="cell_$procmux$12_CMP0"/>
    <g s:x="3" s:y="5" s:pid="A"/>
    <g s:x="3" s:y="20" s:pid="B"/>
    <g s:x="25" s:y="12.5" s:pid="Y"/>
  </g>
  <g s:type="not" transform="translate(839,662)" s:width="30" s:height="20" id="cell_$procmux$13_CMP0">
    <s:alias val="$_NOT_"/>
    <s:alias val="$not"/>
    <s:alias val="$logic_not"/>
    <path d="M0,0 L0,20 L20,10 Z" class="cell_$procmux$13_CMP0"/>
    <circle cx="23" cy="10" r="3" class="cell_$procmux$13_CMP0"/>
    <g s:x="0" s:y="10" s:pid="A"/>
    <g s:x="25" s:y="10" s:pid="Y"/>
  </g>
  <g s:type="mux" transform="translate(595.3333333333334,363)" s:width="20" s:height="40" id="cell_$procmux$15">
    <s:alias val="$pmux"/>
    <s:alias val="$mux"/>
    <s:alias val="$_MUX_"/>
    <path d="M0,0 L20,10 L20,30 L0,40 Z" class="cell_$procmux$15"/>
    <g s:x="0" s:y="10" s:pid="A"/>
    <g s:x="0" s:y="30" s:pid="B"/>
    <g s:x="10" s:y="35" s:pid="S"/>
    <g s:x="20" s:y="20" s:pid="Y"/>
  </g>
  <g s:type="eq" transform="translate(148.66666666666666,161)" s:width="25" s:height="25" id="cell_$procmux$16_CMP0">
    <s:alias val="$eq"/>
    <circle r="12.5" cx="12.5" cy="12.5" class="cell_$procmux$16_CMP0"/>
    <line x1="7.5" x2="17.5" y1="10" y2="10" class="cell_$procmux$16_CMP0"/>
    <line x1="7.5" x2="17.5" y1="15" y2="15" class="cell_$procmux$16_CMP0"/>
    <g s:x="3" s:y="5" s:pid="A"/>
    <g s:x="3" s:y="20" s:pid="B"/>
    <g s:x="25" s:y="12.5" s:pid="Y"/>
  </g>
  <g s:type="eq" transform="translate(148.66666666666666,368.5)" s:width="25" s:height="25" id="cell_$procmux$17_CMP0">
    <s:alias val="$eq"/>
    <circle r="12.5" cx="12.5" cy="12.5" class="cell_$procmux$17_CMP0"/>
    <line x1="7.5" x2="17.5" y1="10" y2="10" class="cell_$procmux$17_CMP0"/>
    <line x1="7.5" x2="17.5" y1="15" y2="15" class="cell_$procmux$17_CMP0"/>
    <g s:x="3" s:y="5" s:pid="A"/>
    <g s:x="3" s:y="20" s:pid="B"/>
    <g s:x="25" s:y="12.5" s:pid="Y"/>
  </g>
  <g s:type="eq" transform="translate(148.66666666666666,248.5)" s:width="25" s:height="25" id="cell_$procmux$18_CMP0">
    <s:alias val="$eq"/>
    <circle r="12.5" cx="12.5" cy="12.5" class="cell_$procmux$18_CMP0"/>
    <line x1="7.5" x2="17.5" y1="10" y2="10" class="cell_$procmux$18_CMP0"/>
    <line x1="7.5" x2="17.5" y1="15" y2="15" class="cell_$procmux$18_CMP0"/>
    <g s:x="3" s:y="5" s:pid="A"/>
    <g s:x="3" s:y="20" s:pid="B"/>
    <g s:x="25" s:y="12.5" s:pid="Y"/>
  </g>
  <g s:type="eq" transform="translate(341.3333333333333,476)" s:width="25" s:height="25" id="cell_$procmux$19_CMP0">
    <s:alias val="$eq"/>
    <circle r="12.5" cx="12.5" cy="12.5" class="cell_$procmux$19_CMP0"/>
    <line x1="7.5" x2="17.5" y1="10" y2="10" class="cell_$procmux$19_CMP0"/>
    <line x1="7.5" x2="17.5" y1="15" y2="15" class="cell_$procmux$19_CMP0"/>
    <g s:x="3" s:y="5" s:pid="A"/>
    <g s:x="3" s:y="20" s:pid="B"/>
    <g s:x="25" s:y="12.5" s:pid="Y"/>
  </g>
  <g s:type="eq" transform="translate(148.66666666666666,308.5)" s:width="25" s:height="25" id="cell_$procmux$20_CMP0">
    <s:alias val="$eq"/>
    <circle r="12.5" cx="12.5" cy="12.5" class="cell_$procmux$20_CMP0"/>
    <line x1="7.5" x2="17.5" y1="10" y2="10" class="cell_$procmux$20_CMP0"/>
    <line x1="7.5" x2="17.5" y1="15" y2="15" class="cell_$procmux$20_CMP0"/>
    <g s:x="3" s:y="5" s:pid="A"/>
    <g s:x="3" s:y="20" s:pid="B"/>
    <g s:x="25" s:y="12.5" s:pid="Y"/>
  </g>
  <g s:type="not" transform="translate(147,428.5)" s:width="30" s:height="20" id="cell_$procmux$21_CMP0">
    <s:alias val="$_NOT_"/>
    <s:alias val="$not"/>
    <s:alias val="$logic_not"/>
    <path d="M0,0 L0,20 L20,10 Z" class="cell_$procmux$21_CMP0"/>
    <circle cx="23" cy="10" r="3" class="cell_$procmux$21_CMP0"/>
    <g s:x="0" s:y="10" s:pid="A"/>
    <g s:x="25" s:y="10" s:pid="Y"/>
  </g>
  <g s:type="mux" transform="translate(1258,457)" s:width="20" s:height="40" id="cell_$procmux$7">
    <s:alias val="$pmux"/>
    <s:alias val="$mux"/>
    <s:alias val="$_MUX_"/>
    <path d="M0,0 L20,10 L20,30 L0,40 Z" class="cell_$procmux$7"/>
    <g s:x="0" s:y="10" s:pid="A"/>
    <g s:x="0" s:y="30" s:pid="B"/>
    <g s:x="10" s:y="35" s:pid="S"/>
    <g s:x="20" s:y="20" s:pid="Y"/>
  </g>
  <g s:type="eq" transform="translate(1011.3333333333334,12)" s:width="25" s:height="25" id="cell_$procmux$8_CMP0">
    <s:alias val="$eq"/>
    <circle r="12.5" cx="12.5" cy="12.5" class="cell_$procmux$8_CMP0"/>
    <line x1="7.5" x2="17.5" y1="10" y2="10" class="cell_$procmux$8_CMP0"/>
    <line x1="7.5" x2="17.5" y1="15" y2="15" class="cell_$procmux$8_CMP0"/>
    <g s:x="3" s:y="5" s:pid="A"/>
    <g s:x="3" s:y="20" s:pid="B"/>
    <g s:x="25" s:y="12.5" s:pid="Y"/>
  </g>
  <g s:type="eq" transform="translate(840.6666666666666,43)" s:width="25" s:height="25" id="cell_$procmux$9_CMP0">
    <s:alias val="$eq"/>
    <circle r="12.5" cx="12.5" cy="12.5" class="cell_$procmux$9_CMP0"/>
    <line x1="7.5" x2="17.5" y1="10" y2="10" class="cell_$procmux$9_CMP0"/>
    <line x1="7.5" x2="17.5" y1="15" y2="15" class="cell_$procmux$9_CMP0"/>
    <g s:x="3" s:y="5" s:pid="A"/>
    <g s:x="3" s:y="20" s:pid="B"/>
    <g s:x="25" s:y="12.5" s:pid="Y"/>
  </g>
  <g s:type="inputExt" transform="translate(588,308)" s:width="30" s:height="20" id="cell_clk">
    <text x="15" y="-4" class="nodelabel cell_clk" s:attribute="ref">clk</text>
    <s:alias val="$_inputExt_"/>
    <path d="M0,0 L0,20 L15,20 L30,10 L15,0 Z" class="cell_clk"/>
    <g s:x="28" s:y="10" s:pid="Y"/>
  </g>
  <g s:type="inputExt" transform="translate(588,243)" s:width="30" s:height="20" id="cell_aresetn">
    <text x="15" y="-4" class="nodelabel cell_aresetn" s:attribute="ref">aresetn</text>
    <s:alias val="$_inputExt_"/>
    <path d="M0,0 L0,20 L15,20 L30,10 L15,0 Z" class="cell_aresetn"/>
    <g s:x="28" s:y="10" s:pid="Y"/>
  </g>
  <g s:type="inputExt" transform="translate(12,313.5)" s:width="30" s:height="20" id="cell_x">
    <text x="15" y="-4" class="nodelabel cell_x" s:attribute="ref">x</text>
    <s:alias val="$_inputExt_"/>
    <path d="M0,0 L0,20 L15,20 L30,10 L15,0 Z" class="cell_x"/>
    <g s:x="28" s:y="10" s:pid="Y"/>
  </g>
  <g s:type="outputExt" transform="translate(1313,467)" s:width="30" s:height="20" id="cell_z">
    <text x="15" y="-4" class="nodelabel cell_z" s:attribute="ref">z</text>
    <s:alias val="$_outputExt_"/>
    <path d="M30,0 L30,20 L15,20 L0,10 L15,0 Z" class="cell_z"/>
    <g s:x="0" s:y="10" s:pid="A"/>
  </g>
  <g s:type="constant" transform="translate(523,318)" s:width="30" s:height="20" id="cell_11">
    <text x="15" y="-4" class="nodelabel cell_11" s:attribute="ref">11</text>
    <s:alias val="$_constant_"/>
    <rect width="30" height="20" class="cell_11"/>
    <g s:x="30" s:y="10" s:pid="Y"/>
  </g>
  <g s:type="constant" transform="translate(77,378.5)" s:width="30" s:height="20" id="cell_10">
    <text x="15" y="-4" class="nodelabel cell_10" s:attribute="ref">10</text>
    <s:alias val="$_constant_"/>
    <rect width="30" height="20" class="cell_10"/>
    <g s:x="30" s:y="10" s:pid="Y"/>
  </g>
  <g s:type="constant" transform="translate(212,532)" s:width="30" s:height="20" id="cell_1">
    <text x="15" y="-4" class="nodelabel cell_1" s:attribute="ref">1</text>
    <s:alias val="$_constant_"/>
    <rect width="30" height="20" class="cell_1"/>
    <g s:x="30" s:y="10" s:pid="Y"/>
  </g>
  <g s:type="constant" transform="translate(523,383)" s:width="30" s:height="20" id="cell_100001">
    <text x="15" y="-4" class="nodelabel cell_100001" s:attribute="ref">0x21</text>
    <s:alias val="$_constant_"/>
    <rect width="30" height="20" class="cell_100001"/>
    <g s:x="30" s:y="10" s:pid="Y"/>
  </g>
  <g s:type="constant" transform="translate(77,171)" s:width="30" s:height="20" id="cell_110">
    <text x="15" y="-4" class="nodelabel cell_110" s:attribute="ref">110</text>
    <s:alias val="$_constant_"/>
    <rect width="30" height="20" class="cell_110"/>
    <g s:x="30" s:y="10" s:pid="Y"/>
  </g>
  <g s:type="constant" transform="translate(77,106)" s:width="30" s:height="20" id="cell_101">
    <text x="15" y="-4" class="nodelabel cell_101" s:attribute="ref">101</text>
    <s:alias val="$_constant_"/>
    <rect width="30" height="20" class="cell_101"/>
    <g s:x="30" s:y="10" s:pid="Y"/>
  </g>
  <g s:type="constant" transform="translate(77,236)" s:width="30" s:height="20" id="cell_100">
    <text x="15" y="-4" class="nodelabel cell_100" s:attribute="ref">100</text>
    <s:alias val="$_constant_"/>
    <rect width="30" height="20" class="cell_100"/>
    <g s:x="30" s:y="10" s:pid="Y"/>
  </g>
  <g s:type="constant" transform="translate(1193,477)" s:width="30" s:height="20" id="cell_01">
    <text x="15" y="-4" class="nodelabel cell_01" s:attribute="ref">01</text>
    <s:alias val="$_constant_"/>
    <rect width="30" height="20" class="cell_01"/>
    <g s:x="30" s:y="10" s:pid="Y"/>
  </g>
  <g s:type="join" transform="translate(222,270.5)" s:width="4" s:height="40" id="cell_$join$,6,7,8,">
    <rect width="5" height="60" class="splitjoinBody" s:generic="body"/>
    <s:alias val="$_join_"/>
    <g s:x="5" s:y="20" s:pid="out"/>
    <g transform="translate(0,10)" s:x="0" s:y="10" s:pid="in0">
      <text x="-3" y="-4" class="inputPortLabel">0</text>
    </g>
    <g transform="translate(0,30)" s:x="0" s:y="10" s:pid="in0">
      <text x="-3" y="-4" class="inputPortLabel">1</text>
    </g>
    <g transform="translate(0,50)" s:x="0" s:y="10" s:pid="in0">
      <text x="-3" y="-4" class="inputPortLabel">2</text>
    </g>
  </g>
  <g s:type="join" transform="translate(223,408)" s:width="4" s:height="40" id="cell_$join$,10,11,">
    <rect width="5" height="40" class="splitjoinBody" s:generic="body"/>
    <s:alias val="$_join_"/>
    <g s:x="5" s:y="20" s:pid="out"/>
    <g transform="translate(0,10)" s:x="0" s:y="10" s:pid="in0">
      <text x="-3" y="-4" class="inputPortLabel">0</text>
    </g>
    <g transform="translate(0,30)" s:x="0" s:y="10" s:pid="in0">
      <text x="-3" y="-4" class="inputPortLabel">1</text>
    </g>
  </g>
  <g s:type="join" transform="translate(904,544)" s:width="4" s:height="40" id="cell_$join$,13,14,15,16,17,">
    <rect width="5" height="100" class="splitjoinBody" s:generic="body"/>
    <s:alias val="$_join_"/>
    <g s:x="5" s:y="20" s:pid="out"/>
    <g transform="translate(0,10)" s:x="0" s:y="10" s:pid="in0">
      <text x="-3" y="-4" class="inputPortLabel">0</text>
    </g>
    <g transform="translate(0,30)" s:x="0" s:y="10" s:pid="in0">
      <text x="-3" y="-4" class="inputPortLabel">1</text>
    </g>
    <g transform="translate(0,50)" s:x="0" s:y="10" s:pid="in0">
      <text x="-3" y="-4" class="inputPortLabel">2</text>
    </g>
    <g transform="translate(0,70)" s:x="0" s:y="10" s:pid="in0">
      <text x="-3" y="-4" class="inputPortLabel">3</text>
    </g>
    <g transform="translate(0,90)" s:x="0" s:y="10" s:pid="in0">
      <text x="-3" y="-4" class="inputPortLabel">4</text>
    </g>
  </g>
  <g s:type="join" transform="translate(798,312.5)" s:width="4" s:height="40" id="cell_$join$,4,21,22,">
    <rect width="5" height="40" class="splitjoinBody" s:generic="body"/>
    <s:alias val="$_join_"/>
    <g s:x="5" s:y="20" s:pid="out"/>
    <g transform="translate(0,10)" s:x="0" s:y="10" s:pid="in0">
      <text x="-3" y="-4" class="inputPortLabel">0</text>
    </g>
    <g transform="translate(0,30)" s:x="0" s:y="10" s:pid="in0">
      <text x="-3" y="-4" class="inputPortLabel">1:2</text>
    </g>
  </g>
  <g s:type="join" transform="translate(533,438)" s:width="4" s:height="40" id="cell_$join$,9,12,23,">
    <rect width="5" height="60" class="splitjoinBody" s:generic="body"/>
    <s:alias val="$_join_"/>
    <g s:x="5" s:y="20" s:pid="out"/>
    <g transform="translate(0,10)" s:x="0" s:y="10" s:pid="in0">
      <text x="-3" y="-4" class="inputPortLabel">0</text>
    </g>
    <g transform="translate(0,30)" s:x="0" s:y="10" s:pid="in0">
      <text x="-3" y="-4" class="inputPortLabel">1</text>
    </g>
    <g transform="translate(0,50)" s:x="0" s:y="10" s:pid="in0">
      <text x="-3" y="-4" class="inputPortLabel">2</text>
    </g>
  </g>
  <g s:type="join" transform="translate(96,293)" s:width="4" s:height="40" id="cell_$join$,21,22,4,">
    <rect width="5" height="40" class="splitjoinBody" s:generic="body"/>
    <s:alias val="$_join_"/>
    <g s:x="5" s:y="20" s:pid="out"/>
    <g transform="translate(0,10)" s:x="0" s:y="10" s:pid="in0">
      <text x="-3" y="-4" class="inputPortLabel">0:1</text>
    </g>
    <g transform="translate(0,30)" s:x="0" s:y="10" s:pid="in0">
      <text x="-3" y="-4" class="inputPortLabel">2</text>
    </g>
  </g>
  <g s:type="join" transform="translate(1204,534)" s:width="4" s:height="40" id="cell_$join$,24,18,">
    <rect width="5" height="40" class="splitjoinBody" s:generic="body"/>
    <s:alias val="$_join_"/>
    <g s:x="5" s:y="20" s:pid="out"/>
    <g transform="translate(0,10)" s:x="0" s:y="10" s:pid="in0">
      <text x="-3" y="-4" class="inputPortLabel">0</text>
    </g>
    <g transform="translate(0,30)" s:x="0" s:y="10" s:pid="in0">
      <text x="-3" y="-4" class="inputPortLabel">1</text>
    </g>
  </g>
  <line x1="228" x2="284" y1="291" y2="291" class="net_6,7,8"/>
  <line x1="229" x2="284" y1="428.5" y2="428.5" class="net_10,11"/>
  <line x1="910" x2="954" y1="564.5" y2="564.5" class="net_13,14,15,16,17"/>
  <line x1="616" x2="650" y1="253" y2="253" class="net_3"/>
  <line x1="650" x2="650" y1="253" y2="343" class="net_3"/>
  <line x1="650" x2="690" y1="343" y2="343" class="net_3"/>
  <line x1="616" x2="640" y1="318" y2="318" class="net_2"/>
  <line x1="640" x2="640" y1="318" y2="363" class="net_2"/>
  <line x1="640" x2="690" y1="363" y2="363" class="net_2"/>
  <line x1="615.3333333333334" x2="690" y1="383" y2="383" class="net_19,20"/>
  <line x1="804" x2="843.6666666666666" y1="333" y2="333" class="net_4,21,22"/>
  <line x1="804" x2="814" y1="333" y2="333" class="net_4,21,22"/>
  <line x1="814" x2="814" y1="333" y2="547" class="net_4,21,22"/>
  <circle cx="814" cy="333" r="2" style="fill:#000" class="net_4,21,22"/>
  <circle cx="814" cy="547" r="2" style="fill:#000" class="net_4,21,22"/>
  <line x1="814" x2="843.6666666666666" y1="547" y2="547" class="net_4,21,22"/>
  <line x1="804" x2="814" y1="333" y2="333" class="net_4,21,22"/>
  <line x1="814" x2="814" y1="333" y2="607" class="net_4,21,22"/>
  <circle cx="814" cy="607" r="2" style="fill:#000" class="net_4,21,22"/>
  <line x1="814" x2="843.6666666666666" y1="607" y2="607" class="net_4,21,22"/>
  <line x1="804" x2="814" y1="333" y2="333" class="net_4,21,22"/>
  <line x1="814" x2="814" y1="333" y2="672" class="net_4,21,22"/>
  <line x1="814" x2="839" y1="672" y2="672" class="net_4,21,22"/>
  <line x1="804" x2="814" y1="333" y2="333" class="net_4,21,22"/>
  <line x1="814" x2="814" y1="333" y2="17" class="net_4,21,22"/>
  <line x1="814" x2="1014.3333333333334" y1="17" y2="17" class="net_4,21,22"/>
  <line x1="804" x2="814" y1="333" y2="333" class="net_4,21,22"/>
  <line x1="814" x2="814" y1="333" y2="48" class="net_4,21,22"/>
  <circle cx="814" cy="48" r="2" style="fill:#000" class="net_4,21,22"/>
  <line x1="814" x2="843.6666666666666" y1="48" y2="48" class="net_4,21,22"/>
  <line x1="553" x2="563" y1="328" y2="328" class="net_25,26"/>
  <line x1="563" x2="563" y1="328" y2="74" class="net_25,26"/>
  <line x1="563" x2="824" y1="74" y2="74" class="net_25,26"/>
  <line x1="824" x2="824" y1="74" y2="348" class="net_25,26"/>
  <circle cx="563" cy="328" r="2" style="fill:#000" class="net_25,26"/>
  <line x1="824" x2="843.6666666666666" y1="348" y2="348" class="net_25,26"/>
  <line x1="553" x2="563" y1="328" y2="328" class="net_25,26"/>
  <line x1="563" x2="563" y1="328" y2="373" class="net_25,26"/>
  <line x1="563" x2="595.3333333333334" y1="373" y2="373" class="net_25,26"/>
  <line x1="107" x2="117" y1="388.5" y2="388.5" class="net_27,28"/>
  <line x1="117" x2="117" y1="388.5" y2="562" class="net_27,28"/>
  <circle cx="117" cy="388.5" r="2" style="fill:#000" class="net_27,28"/>
  <line x1="117" x2="843.6666666666666" y1="562" y2="562" class="net_27,28"/>
  <line x1="107" x2="151.66666666666666" y1="388.5" y2="388.5" class="net_27,28"/>
  <line x1="242" x2="252" y1="542" y2="542" class="net_29"/>
  <line x1="252" x2="252" y1="542" y2="622" class="net_29"/>
  <circle cx="252" cy="542" r="2" style="fill:#000" class="net_29"/>
  <line x1="252" x2="843.6666666666666" y1="622" y2="622" class="net_29"/>
  <line x1="242" x2="252" y1="542" y2="542" class="net_29"/>
  <line x1="252" x2="252" y1="542" y2="496" class="net_29"/>
  <line x1="252" x2="344.3333333333333" y1="496" y2="496" class="net_29"/>
  <line x1="553" x2="595.3333333333334" y1="393" y2="393" class="net_32,33,34,35,36,37"/>
  <line x1="539" x2="605.3333333333334" y1="458.5" y2="458.5" class="net_9,12,23"/>
  <line x1="605.3333333333334" x2="605.3333333333334" y1="458.5" y2="398" class="net_9,12,23"/>
  <line x1="102" x2="137" y1="313.5" y2="313.5" class="net_21,22,4"/>
  <line x1="137" x2="137" y1="313.5" y2="166" class="net_21,22,4"/>
  <circle cx="137" cy="313.5" r="2" style="fill:#000" class="net_21,22,4"/>
  <line x1="137" x2="151.66666666666666" y1="166" y2="166" class="net_21,22,4"/>
  <line x1="102" x2="137" y1="313.5" y2="313.5" class="net_21,22,4"/>
  <line x1="137" x2="137" y1="313.5" y2="373.5" class="net_21,22,4"/>
  <circle cx="137" cy="373.5" r="2" style="fill:#000" class="net_21,22,4"/>
  <line x1="137" x2="151.66666666666666" y1="373.5" y2="373.5" class="net_21,22,4"/>
  <line x1="102" x2="137" y1="313.5" y2="313.5" class="net_21,22,4"/>
  <line x1="137" x2="137" y1="313.5" y2="253.5" class="net_21,22,4"/>
  <circle cx="137" cy="253.5" r="2" style="fill:#000" class="net_21,22,4"/>
  <line x1="137" x2="151.66666666666666" y1="253.5" y2="253.5" class="net_21,22,4"/>
  <line x1="102" x2="137" y1="313.5" y2="313.5" class="net_21,22,4"/>
  <line x1="137" x2="137" y1="313.5" y2="481" class="net_21,22,4"/>
  <line x1="137" x2="344.3333333333333" y1="481" y2="481" class="net_21,22,4"/>
  <line x1="102" x2="151.66666666666666" y1="313.5" y2="313.5" class="net_21,22,4"/>
  <line x1="102" x2="137" y1="313.5" y2="313.5" class="net_21,22,4"/>
  <line x1="137" x2="137" y1="313.5" y2="438.5" class="net_21,22,4"/>
  <circle cx="137" cy="438.5" r="2" style="fill:#000" class="net_21,22,4"/>
  <line x1="137" x2="147" y1="438.5" y2="438.5" class="net_21,22,4"/>
  <line x1="107" x2="151.66666666666666" y1="181" y2="181" class="net_38,39,40"/>
  <line x1="107" x2="117" y1="116" y2="116" class="net_43,44,45"/>
  <line x1="117" x2="117" y1="116" y2="268.5" class="net_43,44,45"/>
  <circle cx="117" cy="116" r="2" style="fill:#000" class="net_43,44,45"/>
  <line x1="117" x2="151.66666666666666" y1="268.5" y2="268.5" class="net_43,44,45"/>
  <line x1="107" x2="117" y1="116" y2="116" class="net_43,44,45"/>
  <line x1="117" x2="117" y1="116" y2="32" class="net_43,44,45"/>
  <line x1="117" x2="1014.3333333333334" y1="32" y2="32" class="net_43,44,45"/>
  <line x1="107" x2="127" y1="246" y2="246" class="net_47,48,49"/>
  <line x1="127" x2="127" y1="246" y2="328.5" class="net_47,48,49"/>
  <circle cx="127" cy="246" r="2" style="fill:#000" class="net_47,48,49"/>
  <line x1="127" x2="151.66666666666666" y1="328.5" y2="328.5" class="net_47,48,49"/>
  <line x1="107" x2="127" y1="246" y2="246" class="net_47,48,49"/>
  <line x1="127" x2="127" y1="246" y2="63" class="net_47,48,49"/>
  <line x1="127" x2="843.6666666666666" y1="63" y2="63" class="net_47,48,49"/>
  <line x1="1223" x2="1258" y1="487" y2="487" class="net_50,51"/>
  <line x1="1210" x2="1268" y1="554.5" y2="554.5" class="net_24,18"/>
  <line x1="1268" x2="1268" y1="554.5" y2="492" class="net_24,18"/>
  <line x1="1278" x2="1313" y1="477" y2="477" class="net_5"/>
  <line x1="173.66666666666666" x2="197" y1="173.5" y2="173.5" class="net_6"/>
  <line x1="197" x2="197" y1="173.5" y2="281" class="net_6"/>
  <line x1="197" x2="222" y1="281" y2="281" class="net_6"/>
  <line x1="173.66666666666666" x2="187" y1="261" y2="261" class="net_7"/>
  <line x1="187" x2="187" y1="261" y2="301" class="net_7"/>
  <line x1="187" x2="222" y1="301" y2="301" class="net_7"/>
  <line x1="173.66666666666666" x2="222" y1="321" y2="321" class="net_8"/>
  <line x1="173.66666666666666" x2="187" y1="381" y2="381" class="net_10"/>
  <line x1="187" x2="187" y1="381" y2="418.5" class="net_10"/>
  <line x1="187" x2="223" y1="418.5" y2="418.5" class="net_10"/>
  <line x1="172" x2="223" y1="438.5" y2="438.5" class="net_11"/>
  <line x1="865.6666666666666" x2="904.5" y1="55.5" y2="55.5" class="net_13"/>
  <line x1="904.5" x2="904.5" y1="55.5" y2="554" class="net_13"/>
  <line x1="865.6666666666666" x2="889" y1="340.5" y2="340.5" class="net_14"/>
  <line x1="889" x2="889" y1="340.5" y2="574.5" class="net_14"/>
  <line x1="889" x2="904" y1="574.5" y2="574.5" class="net_14"/>
  <line x1="865.6666666666666" x2="879" y1="554.5" y2="554.5" class="net_15"/>
  <line x1="879" x2="879" y1="554.5" y2="594.5" class="net_15"/>
  <line x1="879" x2="904" y1="594.5" y2="594.5" class="net_15"/>
  <line x1="865.6666666666666" x2="904" y1="614.5" y2="614.5" class="net_16"/>
  <line x1="864" x2="904.5" y1="672" y2="672" class="net_17"/>
  <line x1="904.5" x2="904.5" y1="672" y2="635" class="net_17"/>
  <line x1="40" x2="52" y1="323.5" y2="323.5" class="net_4"/>
  <line x1="52" x2="52" y1="323.5" y2="85" class="net_4"/>
  <line x1="52" x2="766" y1="85" y2="85" class="net_4"/>
  <line x1="766" x2="766" y1="85" y2="323" class="net_4"/>
  <circle cx="52" cy="323.5" r="2" style="fill:#000" class="net_4"/>
  <line x1="766" x2="798" y1="323" y2="323" class="net_4"/>
  <line x1="40" x2="96" y1="323.5" y2="323.5" class="net_4"/>
  <line x1="721" x2="798" y1="343" y2="343" class="net_21,22"/>
  <line x1="721" x2="766" y1="343" y2="343" class="net_21,22"/>
  <line x1="766" x2="766" y1="343" y2="511" class="net_21,22"/>
  <line x1="766" x2="62" y1="511" y2="511" class="net_21,22"/>
  <line x1="62" x2="62" y1="511" y2="303.5" class="net_21,22"/>
  <circle cx="766" cy="343" r="2" style="fill:#000" class="net_21,22"/>
  <line x1="62" x2="96" y1="303.5" y2="303.5" class="net_21,22"/>
  <line x1="315" x2="508" y1="291" y2="291" class="net_9"/>
  <line x1="508" x2="508" y1="291" y2="448.5" class="net_9"/>
  <line x1="508" x2="533" y1="448.5" y2="448.5" class="net_9"/>
  <line x1="315" x2="498" y1="428.5" y2="428.5" class="net_12"/>
  <line x1="498" x2="498" y1="428.5" y2="468.5" class="net_12"/>
  <line x1="498" x2="533" y1="468.5" y2="468.5" class="net_12"/>
  <line x1="366.3333333333333" x2="533" y1="488.5" y2="488.5" class="net_23"/>
  <line x1="1036.3333333333335" x2="1168" y1="24.5" y2="24.5" class="net_24"/>
  <line x1="1168" x2="1168" y1="24.5" y2="544.5" class="net_24"/>
  <line x1="1168" x2="1204" y1="544.5" y2="544.5" class="net_24"/>
  <line x1="985" x2="1204" y1="564.5" y2="564.5" class="net_18"/>
</svg>
