<?xml version="1.0" encoding="UTF-8" standalone="no"?>
<!DOCTYPE svg PUBLIC "-//W3C//DTD SVG 1.1//EN"
 "http://www.w3.org/Graphics/SVG/1.1/DTD/svg11.dtd">
<!-- Generated by graphviz version 4.0.0 (20220529.0937)
 -->
<!-- Title: finite_state_machine Pages: 1 -->
<svg width="320pt" height="121pt"
 viewBox="0.00 0.00 320.39 120.60" xmlns="http://www.w3.org/2000/svg" xmlns:xlink="http://www.w3.org/1999/xlink">
<g id="graph0" class="graph" transform="scale(1 1) rotate(0) translate(4 116.6)">
<title>finite_state_machine</title>
<polygon fill="white" stroke="transparent" points="-4,4 -4,-116.6 316.39,-116.6 316.39,4 -4,4"/>
<!-- RESET -->
<g id="node1" class="node">
<title>RESET</title>
<ellipse fill="black" stroke="black" cx="1.8" cy="-20.8" rx="1.8" ry="1.8"/>
</g>
<!-- S0 -->
<g id="node2" class="node">
<title>S0</title>
<ellipse fill="none" stroke="black" cx="100.4" cy="-20.8" rx="20.6" ry="20.6"/>
<text text-anchor="middle" x="100.4" y="-17.1" font-family="Times New Roman,serif" font-size="14.00">S0</text>
</g>
<!-- RESET&#45;&gt;S0 -->
<g id="edge1" class="edge">
<title>RESET&#45;&gt;S0</title>
<path fill="none" stroke="black" d="M3.88,-20.8C10.3,-20.8 43.83,-20.8 69.37,-20.8"/>
<polygon fill="black" stroke="black" points="69.38,-24.3 79.38,-20.8 69.38,-17.3 69.38,-24.3"/>
<text text-anchor="middle" x="41.6" y="-24.6" font-family="Times New Roman,serif" font-size="14.00">aresetn</text>
</g>
<!-- S0&#45;&gt;S0 -->
<g id="edge2" class="edge">
<title>S0&#45;&gt;S0</title>
<path fill="none" stroke="black" d="M92.13,-39.96C90.72,-50.24 93.48,-59.6 100.4,-59.6 104.83,-59.6 107.55,-55.75 108.57,-50.29"/>
<polygon fill="black" stroke="black" points="112.07,-49.99 108.67,-39.96 105.07,-49.93 112.07,-49.99"/>
<text text-anchor="middle" x="100.4" y="-63.4" font-family="Times New Roman,serif" font-size="14.00">0/0</text>
</g>
<!-- S1 -->
<g id="node3" class="node">
<title>S1</title>
<ellipse fill="none" stroke="black" cx="195.99" cy="-58.8" rx="20.6" ry="20.6"/>
<text text-anchor="middle" x="195.99" y="-55.1" font-family="Times New Roman,serif" font-size="14.00">S1</text>
</g>
<!-- S0&#45;&gt;S1 -->
<g id="edge3" class="edge">
<title>S0&#45;&gt;S1</title>
<path fill="none" stroke="black" d="M119.89,-28.31C133.35,-33.77 151.81,-41.27 167.07,-47.46"/>
<polygon fill="black" stroke="black" points="165.96,-50.79 176.54,-51.31 168.59,-44.3 165.96,-50.79"/>
<text text-anchor="middle" x="148.2" y="-47.6" font-family="Times New Roman,serif" font-size="14.00">1/0</text>
</g>
<!-- S1&#45;&gt;S1 -->
<g id="edge4" class="edge">
<title>S1&#45;&gt;S1</title>
<path fill="none" stroke="black" d="M187.73,-77.96C186.32,-88.24 189.08,-97.6 195.99,-97.6 200.43,-97.6 203.15,-93.75 204.17,-88.29"/>
<polygon fill="black" stroke="black" points="207.67,-87.99 204.26,-77.96 200.67,-87.93 207.67,-87.99"/>
<text text-anchor="middle" x="195.99" y="-101.4" font-family="Times New Roman,serif" font-size="14.00">1/0</text>
</g>
<!-- S2 -->
<g id="node4" class="node">
<title>S2</title>
<ellipse fill="none" stroke="black" cx="291.59" cy="-37.8" rx="20.6" ry="20.6"/>
<text text-anchor="middle" x="291.59" y="-34.1" font-family="Times New Roman,serif" font-size="14.00">S2</text>
</g>
<!-- S1&#45;&gt;S2 -->
<g id="edge5" class="edge">
<title>S1&#45;&gt;S2</title>
<path fill="none" stroke="black" d="M216.87,-58.51C227.64,-57.99 241.09,-56.72 252.79,-53.8 256.21,-52.94 259.73,-51.82 263.17,-50.57"/>
<polygon fill="black" stroke="black" points="264.56,-53.78 272.53,-46.79 261.95,-47.28 264.56,-53.78"/>
<text text-anchor="middle" x="243.79" y="-61.6" font-family="Times New Roman,serif" font-size="14.00">0/0</text>
</g>
<!-- S2&#45;&gt;S0 -->
<g id="edge6" class="edge">
<title>S2&#45;&gt;S0</title>
<path fill="none" stroke="black" d="M272.18,-30.02C257.49,-24.25 236.22,-16.88 216.79,-13.8 187.91,-9.22 154.53,-12.12 131.12,-15.47"/>
<polygon fill="black" stroke="black" points="130.47,-12.03 121.12,-17.01 131.54,-18.95 130.47,-12.03"/>
<text text-anchor="middle" x="195.99" y="-17.6" font-family="Times New Roman,serif" font-size="14.00">0/0</text>
</g>
<!-- S2&#45;&gt;S1 -->
<g id="edge7" class="edge">
<title>S2&#45;&gt;S1</title>
<path fill="none" stroke="black" d="M271.12,-33.62C260.23,-32.06 246.53,-31.39 234.79,-34.8 230.09,-36.16 225.42,-38.31 221.05,-40.77"/>
<polygon fill="black" stroke="black" points="219.17,-37.81 212.57,-46.1 222.9,-43.74 219.17,-37.81"/>
<text text-anchor="middle" x="243.79" y="-38.6" font-family="Times New Roman,serif" font-size="14.00">1/1</text>
</g>
</g>
</svg>
