<?xml version="1.0" encoding="UTF-8" standalone="no"?>
<!DOCTYPE svg PUBLIC "-//W3C//DTD SVG 1.1//EN"
 "http://www.w3.org/Graphics/SVG/1.1/DTD/svg11.dtd">
<!-- Generated by graphviz version 4.0.0 (20220529.0937)
 -->
<!-- Title: bcdcount Pages: 1 -->
<svg width="1092pt" height="458pt"
 viewBox="0.00 0.00 1092.01 457.59" xmlns="http://www.w3.org/2000/svg" xmlns:xlink="http://www.w3.org/1999/xlink">
<g id="graph0" class="graph" transform="scale(1 1) rotate(0) translate(4 453.59)">
<title>bcdcount</title>
<polygon fill="white" stroke="transparent" points="-4,4 -4,-453.59 1088.01,-453.59 1088.01,4 -4,4"/>
<text text-anchor="middle" x="542" y="-7.8" font-family="Times New Roman,serif" font-size="14.00">bcdcount</text>
<!-- n7 -->
<g id="node1" class="node">
<title>n7</title>
<polygon fill="none" stroke="black" points="63.58,-139.54 63.58,-154.46 47.77,-165 25.4,-165 9.58,-154.46 9.58,-139.54 25.4,-129 47.77,-129 63.58,-139.54"/>
<text text-anchor="middle" x="36.58" y="-143.3" font-family="Times New Roman,serif" font-size="14.00">clk</text>
</g>
<!-- c17 -->
<g id="node8" class="node">
<title>c17</title>
<polygon fill="none" stroke="black" points="853.06,-112 853.06,-158 964.06,-158 964.06,-112 853.06,-112"/>
<text text-anchor="middle" x="875.06" y="-142.8" font-family="Times New Roman,serif" font-size="14.00">CLK</text>
<polyline fill="none" stroke="black" points="853.06,-135 897.06,-135 "/>
<text text-anchor="middle" x="875.06" y="-119.8" font-family="Times New Roman,serif" font-size="14.00">D</text>
<polyline fill="none" stroke="black" points="897.06,-112 897.06,-158 "/>
<text text-anchor="middle" x="917.06" y="-138.8" font-family="Times New Roman,serif" font-size="14.00">$27</text>
<text text-anchor="middle" x="917.06" y="-123.8" font-family="Times New Roman,serif" font-size="14.00">$dff</text>
<polyline fill="none" stroke="black" points="937.06,-112 937.06,-158 "/>
<text text-anchor="middle" x="950.56" y="-131.3" font-family="Times New Roman,serif" font-size="14.00">Q</text>
</g>
<!-- n7&#45;&gt;c17 -->
<g id="edge4" class="edge">
<title>n7:e&#45;&gt;c17:w</title>
<path fill="none" stroke="#7570b3" d="M64.58,-147C119.9,-147 133.73,-147 189.06,-147 189.06,-147 189.06,-147 744.56,-147 789.2,-147 802.85,-147 842.89,-147"/>
<polygon fill="#7570b3" stroke="#7570b3" points="843.06,-150.5 853.06,-147 843.06,-143.5 843.06,-150.5"/>
</g>
<!-- n8 -->
<g id="node2" class="node">
<title>n8</title>
<polygon fill="none" stroke="black" points="73.25,-228.54 73.25,-243.46 51.77,-254 21.4,-254 -0.08,-243.46 -0.08,-228.54 21.4,-218 51.77,-218 73.25,-228.54"/>
<text text-anchor="middle" x="36.58" y="-232.3" font-family="Times New Roman,serif" font-size="14.00">enable</text>
</g>
<!-- c20 -->
<g id="node7" class="node">
<title>c20</title>
<polygon fill="none" stroke="black" points="535.06,-226.5 535.06,-295.5 634.06,-295.5 634.06,-226.5 535.06,-226.5"/>
<text text-anchor="middle" x="548.06" y="-280.3" font-family="Times New Roman,serif" font-size="14.00">A</text>
<polyline fill="none" stroke="black" points="535.06,-272.5 561.06,-272.5 "/>
<text text-anchor="middle" x="548.06" y="-257.3" font-family="Times New Roman,serif" font-size="14.00">B</text>
<polyline fill="none" stroke="black" points="535.06,-249.5 561.06,-249.5 "/>
<text text-anchor="middle" x="548.06" y="-234.3" font-family="Times New Roman,serif" font-size="14.00">S</text>
<polyline fill="none" stroke="black" points="561.06,-226.5 561.06,-295.5 "/>
<text text-anchor="middle" x="584.56" y="-264.8" font-family="Times New Roman,serif" font-size="14.00">$19</text>
<text text-anchor="middle" x="584.56" y="-249.8" font-family="Times New Roman,serif" font-size="14.00">$mux</text>
<polyline fill="none" stroke="black" points="608.06,-226.5 608.06,-295.5 "/>
<text text-anchor="middle" x="621.06" y="-257.3" font-family="Times New Roman,serif" font-size="14.00">Y</text>
</g>
<!-- n8&#45;&gt;c20 -->
<g id="edge5" class="edge">
<title>n8:e&#45;&gt;c20:w</title>
<path fill="none" stroke="#d95f02" d="M73.16,-236C124.67,-236 137.55,-236 189.06,-236 189.06,-236 189.06,-236 426.56,-236 471.21,-236 484.84,-237.71 524.89,-237.97"/>
<polygon fill="#d95f02" stroke="#d95f02" points="525.05,-241.47 535.06,-238 525.07,-234.47 525.05,-241.47"/>
</g>
<!-- n9 -->
<g id="node3" class="node">
<title>n9</title>
<polygon fill="none" stroke="black" points="66.58,-76.54 66.58,-91.46 49.01,-102 24.15,-102 6.58,-91.46 6.58,-76.54 24.15,-66 49.01,-66 66.58,-76.54"/>
<text text-anchor="middle" x="36.58" y="-80.3" font-family="Times New Roman,serif" font-size="14.00">reset</text>
</g>
<!-- c21 -->
<g id="node9" class="node">
<title>c21</title>
<polygon fill="none" stroke="black" points="694.06,-62.5 694.06,-131.5 793.06,-131.5 793.06,-62.5 694.06,-62.5"/>
<text text-anchor="middle" x="707.06" y="-116.3" font-family="Times New Roman,serif" font-size="14.00">A</text>
<polyline fill="none" stroke="black" points="694.06,-108.5 720.06,-108.5 "/>
<text text-anchor="middle" x="707.06" y="-93.3" font-family="Times New Roman,serif" font-size="14.00">B</text>
<polyline fill="none" stroke="black" points="694.06,-85.5 720.06,-85.5 "/>
<text text-anchor="middle" x="707.06" y="-70.3" font-family="Times New Roman,serif" font-size="14.00">S</text>
<polyline fill="none" stroke="black" points="720.06,-62.5 720.06,-131.5 "/>
<text text-anchor="middle" x="743.56" y="-100.8" font-family="Times New Roman,serif" font-size="14.00">$25</text>
<text text-anchor="middle" x="743.56" y="-85.8" font-family="Times New Roman,serif" font-size="14.00">$mux</text>
<polyline fill="none" stroke="black" points="767.06,-62.5 767.06,-131.5 "/>
<text text-anchor="middle" x="780.06" y="-93.3" font-family="Times New Roman,serif" font-size="14.00">Y</text>
</g>
<!-- n9&#45;&gt;c21 -->
<g id="edge6" class="edge">
<title>n9:e&#45;&gt;c21:w</title>
<path fill="none" stroke="#1b9e77" d="M67.58,-84C121.57,-84 135.07,-84 189.06,-84 189.06,-84 189.06,-84 585.56,-84 630.39,-84 643.7,-75.43 683.85,-74.16"/>
<polygon fill="#1b9e77" stroke="#1b9e77" points="684.11,-77.65 694.06,-74 684,-70.65 684.11,-77.65"/>
</g>
<!-- n6 -->
<g id="node4" class="node">
<title>n6</title>
<polygon fill="none" stroke="black" points="1078.06,-303.54 1078.06,-318.46 1062.24,-329 1039.87,-329 1024.06,-318.46 1024.06,-303.54 1039.87,-293 1062.24,-293 1078.06,-303.54"/>
<text text-anchor="middle" x="1051.06" y="-307.3" font-family="Times New Roman,serif" font-size="14.00">Q</text>
</g>
<!-- c13 -->
<g id="node5" class="node">
<title>c13</title>
<polygon fill="none" stroke="black" points="220.06,-374 220.06,-420 316.06,-420 316.06,-374 220.06,-374"/>
<text text-anchor="middle" x="233.06" y="-404.8" font-family="Times New Roman,serif" font-size="14.00">A</text>
<polyline fill="none" stroke="black" points="220.06,-397 246.06,-397 "/>
<text text-anchor="middle" x="233.06" y="-381.8" font-family="Times New Roman,serif" font-size="14.00">B</text>
<polyline fill="none" stroke="black" points="246.06,-374 246.06,-420 "/>
<text text-anchor="middle" x="268.06" y="-400.8" font-family="Times New Roman,serif" font-size="14.00">$8</text>
<text text-anchor="middle" x="268.06" y="-385.8" font-family="Times New Roman,serif" font-size="14.00">$add</text>
<polyline fill="none" stroke="black" points="290.06,-374 290.06,-420 "/>
<text text-anchor="middle" x="303.06" y="-393.3" font-family="Times New Roman,serif" font-size="14.00">Y</text>
</g>
<!-- n6&#45;&gt;c13 -->
<g id="edge1" class="edge">
<title>n6:e&#45;&gt;c13:w</title>
<path fill="none" stroke="#e7298a" stroke-width="3" d="M1079.06,-311C1087.07,-311 1082.27,-322.19 1078.06,-329 1032.7,-402.29 995.75,-425 909.56,-425 424.56,-425 424.56,-425 424.56,-425 333.65,-425 286.39,-482.67 220.06,-420.5 219.59,-420.06 219.14,-419.55 218.73,-419"/>
<polygon fill="#e7298a" stroke="#e7298a" stroke-width="3" points="222.23,-419.11 219.06,-409 215.23,-418.88 222.23,-419.11"/>
<text text-anchor="middle" x="664.06" y="-428.8" font-family="Times New Roman,serif" font-size="14.00" fill="#e7298a">&lt;4&gt;</text>
</g>
<!-- c14 -->
<g id="node6" class="node">
<title>c14</title>
<polygon fill="none" stroke="black" points="223.56,-286 223.56,-332 312.56,-332 312.56,-286 223.56,-286"/>
<text text-anchor="middle" x="236.56" y="-316.8" font-family="Times New Roman,serif" font-size="14.00">A</text>
<polyline fill="none" stroke="black" points="223.56,-309 249.56,-309 "/>
<text text-anchor="middle" x="236.56" y="-293.8" font-family="Times New Roman,serif" font-size="14.00">B</text>
<polyline fill="none" stroke="black" points="249.56,-286 249.56,-332 "/>
<text text-anchor="middle" x="268.06" y="-312.8" font-family="Times New Roman,serif" font-size="14.00">$7</text>
<text text-anchor="middle" x="268.06" y="-297.8" font-family="Times New Roman,serif" font-size="14.00">$eq</text>
<polyline fill="none" stroke="black" points="286.56,-286 286.56,-332 "/>
<text text-anchor="middle" x="299.56" y="-305.3" font-family="Times New Roman,serif" font-size="14.00">Y</text>
</g>
<!-- n6&#45;&gt;c14 -->
<g id="edge2" class="edge">
<title>n6:e&#45;&gt;c14:w</title>
<path fill="none" stroke="#e7298a" stroke-width="3" d="M1079.06,-311C1087.07,-311 1083.76,-323.37 1078.06,-329 1024.69,-381.63 984.51,-336 909.56,-336 424.56,-336 424.56,-336 424.56,-336 379.77,-336 255.8,-363.05 223.06,-332.5 222.59,-332.06 222.14,-331.55 221.73,-331"/>
<polygon fill="#e7298a" stroke="#e7298a" stroke-width="3" points="225.22,-331.11 222.06,-321 218.23,-330.88 225.22,-331.11"/>
<text text-anchor="middle" x="664.06" y="-339.8" font-family="Times New Roman,serif" font-size="14.00" fill="#e7298a">&lt;4&gt;</text>
</g>
<!-- n6&#45;&gt;c20 -->
<g id="edge3" class="edge">
<title>n6:e&#45;&gt;c20:w</title>
<path fill="none" stroke="#e7298a" stroke-width="3" d="M1079.06,-311C1087.07,-311 1083.88,-323.49 1078.06,-329 1060.62,-345.49 1047.65,-333.43 1024.06,-329 1015.62,-327.42 1014.42,-323.95 1006.06,-322 931.76,-304.67 911.2,-311.73 835.06,-307 801.71,-304.93 558.73,-319.07 534.56,-296 533.95,-295.42 533.38,-294.73 532.87,-293.98"/>
<polygon fill="#e7298a" stroke="#e7298a" stroke-width="3" points="536.36,-294.22 533.56,-284 529.38,-293.74 536.36,-294.22"/>
<text text-anchor="middle" x="823.06" y="-310.8" font-family="Times New Roman,serif" font-size="14.00" fill="#e7298a">&lt;4&gt;</text>
</g>
<!-- c19 -->
<g id="node11" class="node">
<title>c19</title>
<polygon fill="none" stroke="black" points="376.06,-251.5 376.06,-320.5 475.06,-320.5 475.06,-251.5 376.06,-251.5"/>
<text text-anchor="middle" x="389.06" y="-305.3" font-family="Times New Roman,serif" font-size="14.00">A</text>
<polyline fill="none" stroke="black" points="376.06,-297.5 402.06,-297.5 "/>
<text text-anchor="middle" x="389.06" y="-282.3" font-family="Times New Roman,serif" font-size="14.00">B</text>
<polyline fill="none" stroke="black" points="376.06,-274.5 402.06,-274.5 "/>
<text text-anchor="middle" x="389.06" y="-259.3" font-family="Times New Roman,serif" font-size="14.00">S</text>
<polyline fill="none" stroke="black" points="402.06,-251.5 402.06,-320.5 "/>
<text text-anchor="middle" x="425.56" y="-289.8" font-family="Times New Roman,serif" font-size="14.00">$11</text>
<text text-anchor="middle" x="425.56" y="-274.8" font-family="Times New Roman,serif" font-size="14.00">$mux</text>
<polyline fill="none" stroke="black" points="449.06,-251.5 449.06,-320.5 "/>
<text text-anchor="middle" x="462.06" y="-282.3" font-family="Times New Roman,serif" font-size="14.00">Y</text>
</g>
<!-- c13&#45;&gt;c19 -->
<g id="edge8" class="edge">
<title>c13:e&#45;&gt;c19:w</title>
<path fill="none" stroke="#7570b3" stroke-width="3" d="M316.06,-397C359.51,-397 333.86,-322.85 365.97,-310.68"/>
<polygon fill="#7570b3" stroke="#7570b3" stroke-width="3" points="366.77,-314.1 376.06,-309 365.62,-307.19 366.77,-314.1"/>
<text text-anchor="middle" x="346.06" y="-393.8" font-family="Times New Roman,serif" font-size="14.00" fill="#7570b3">&lt;4&gt;</text>
</g>
<!-- c14&#45;&gt;c19 -->
<g id="edge10" class="edge">
<title>c14:e&#45;&gt;c19:w</title>
<path fill="none" stroke="#e7298a" d="M314.06,-309C344.62,-309 342.7,-272.51 366.16,-264.53"/>
<polygon fill="#e7298a" stroke="#e7298a" points="366.71,-267.99 376.06,-263 365.64,-261.07 366.71,-267.99"/>
</g>
<!-- c20&#45;&gt;c21 -->
<g id="edge14" class="edge">
<title>c20:e&#45;&gt;c21:w</title>
<path fill="none" stroke="#1b9e77" stroke-width="3" d="M634.06,-261C698.44,-261 633.86,-135 684.13,-121.22"/>
<polygon fill="#1b9e77" stroke="#1b9e77" stroke-width="3" points="684.56,-124.69 694.06,-120 683.71,-117.75 684.56,-124.69"/>
<text text-anchor="middle" x="664.06" y="-259.8" font-family="Times New Roman,serif" font-size="14.00" fill="#1b9e77">&lt;4&gt;</text>
</g>
<!-- c17&#45;&gt;n6 -->
<g id="edge11" class="edge">
<title>c17:e&#45;&gt;n6:w</title>
<path fill="none" stroke="#e7298a" stroke-width="3" d="M964.06,-135C965.17,-135 1007.73,-264.98 1020.49,-301.54"/>
<polygon fill="#e7298a" stroke="#e7298a" stroke-width="3" points="1017.26,-302.87 1024.06,-311 1023.81,-300.41 1017.26,-302.87"/>
<text text-anchor="middle" x="994.06" y="-258.8" font-family="Times New Roman,serif" font-size="14.00" fill="#e7298a">&lt;4&gt;</text>
</g>
<!-- c21&#45;&gt;c17 -->
<g id="edge16" class="edge">
<title>c21:e&#45;&gt;c17:w</title>
<path fill="none" stroke="#66a61e" stroke-width="3" d="M793.06,-97C804.75,-97 827.07,-113.84 842.91,-120.41"/>
<polygon fill="#66a61e" stroke="#66a61e" stroke-width="3" points="842.5,-123.92 853.06,-123 844.23,-117.14 842.5,-123.92"/>
<text text-anchor="middle" x="823.06" y="-120.8" font-family="Times New Roman,serif" font-size="14.00" fill="#66a61e">&lt;4&gt;</text>
</g>
<!-- v0 -->
<g id="node10" class="node">
<title>v0</title>
<ellipse fill="none" stroke="black" cx="125.61" cy="-385" rx="27" ry="18"/>
<text text-anchor="middle" x="125.61" y="-381.3" font-family="Times New Roman,serif" font-size="14.00">1&#39;1</text>
</g>
<!-- v0&#45;&gt;c13 -->
<g id="edge7" class="edge">
<title>v0:e&#45;&gt;c13:w</title>
<path fill="none" stroke="#1b9e77" d="M153.61,-385C179.45,-385 188.33,-385 209.93,-385"/>
<polygon fill="#1b9e77" stroke="#1b9e77" points="210.06,-388.5 220.06,-385 210.06,-381.5 210.06,-388.5"/>
</g>
<!-- c19&#45;&gt;c20 -->
<g id="edge13" class="edge">
<title>c19:e&#45;&gt;c20:w</title>
<path fill="none" stroke="#1b9e77" stroke-width="3" d="M475.06,-286C500.22,-286 505.15,-267.03 525.1,-262.14"/>
<polygon fill="#1b9e77" stroke="#1b9e77" stroke-width="3" points="525.52,-265.61 535.06,-261 524.72,-258.66 525.52,-265.61"/>
<text text-anchor="middle" x="505.06" y="-285.8" font-family="Times New Roman,serif" font-size="14.00" fill="#1b9e77">&lt;4&gt;</text>
</g>
<!-- v1 -->
<g id="node12" class="node">
<title>v1</title>
<ellipse fill="none" stroke="black" cx="125.61" cy="-297" rx="34.39" ry="18"/>
<text text-anchor="middle" x="125.61" y="-293.3" font-family="Times New Roman,serif" font-size="14.00">4&#39;1001</text>
</g>
<!-- v1&#45;&gt;c14 -->
<g id="edge9" class="edge">
<title>v1:e&#45;&gt;c14:w</title>
<path fill="none" stroke="#e6ab02" stroke-width="3" d="M160.06,-297C183.85,-297 192.23,-297 211.81,-297"/>
<polygon fill="#e6ab02" stroke="#e6ab02" stroke-width="3" points="212.06,-300.5 222.06,-297 212.06,-293.5 212.06,-300.5"/>
<text text-anchor="middle" x="190.06" y="-300.8" font-family="Times New Roman,serif" font-size="14.00" fill="#e6ab02">&lt;4&gt;</text>
</g>
<!-- v2 -->
<g id="node13" class="node">
<title>v2</title>
<ellipse fill="none" stroke="black" cx="268.06" cy="-193" rx="34.39" ry="18"/>
<text text-anchor="middle" x="268.06" y="-189.3" font-family="Times New Roman,serif" font-size="14.00">4&#39;0000</text>
</g>
<!-- v2&#45;&gt;c19 -->
<g id="edge12" class="edge">
<title>v2:e&#45;&gt;c19:w</title>
<path fill="none" stroke="#e6ab02" stroke-width="3" d="M304.06,-193C339.28,-193 337.81,-222.18 358.06,-251 365.28,-261.29 362.38,-274.87 366.68,-281.69"/>
<polygon fill="#e6ab02" stroke="#e6ab02" stroke-width="3" points="365.51,-285.01 376.06,-286 368.43,-278.65 365.51,-285.01"/>
<text text-anchor="middle" x="346.06" y="-254.8" font-family="Times New Roman,serif" font-size="14.00" fill="#e6ab02">&lt;4&gt;</text>
</g>
<!-- v3 -->
<g id="node14" class="node">
<title>v3</title>
<ellipse fill="none" stroke="black" cx="584.56" cy="-41" rx="34.39" ry="18"/>
<text text-anchor="middle" x="584.56" y="-37.3" font-family="Times New Roman,serif" font-size="14.00">4&#39;0000</text>
</g>
<!-- v3&#45;&gt;c21 -->
<g id="edge15" class="edge">
<title>v3:e&#45;&gt;c21:w</title>
<path fill="none" stroke="#d95f02" stroke-width="3" d="M620.56,-41C646,-41 656.71,-38.49 676.06,-55 687.76,-64.99 680.4,-83.96 684.99,-92.56"/>
<polygon fill="#d95f02" stroke="#d95f02" stroke-width="3" points="683.54,-95.75 694.06,-97 686.61,-89.46 683.54,-95.75"/>
<text text-anchor="middle" x="664.06" y="-58.8" font-family="Times New Roman,serif" font-size="14.00" fill="#d95f02">&lt;4&gt;</text>
</g>
</g>
</svg>
