<?xml version="1.0" encoding="UTF-8" standalone="no"?>
<!DOCTYPE svg PUBLIC "-//W3C//DTD SVG 1.1//EN"
 "http://www.w3.org/Graphics/SVG/1.1/DTD/svg11.dtd">
<!-- Generated by graphviz version 4.0.0 (20220529.0937)
 -->
<!-- Title: top_module Pages: 1 -->
<svg width="1012pt" height="655pt"
 viewBox="0.00 0.00 1012.21 655.35" xmlns="http://www.w3.org/2000/svg" xmlns:xlink="http://www.w3.org/1999/xlink">
<g id="graph0" class="graph" transform="scale(1 1) rotate(0) translate(4 651.35)">
<title>top_module</title>
<polygon fill="white" stroke="transparent" points="-4,4 -4,-651.35 1008.21,-651.35 1008.21,4 -4,4"/>
<text text-anchor="middle" x="502.11" y="-7.8" font-family="Times New Roman,serif" font-size="14.00">top_module</text>
<!-- n7 -->
<g id="node1" class="node">
<title>n7</title>
<polygon fill="none" stroke="black" points="57.25,-413.54 57.25,-428.46 41.43,-439 19.07,-439 3.25,-428.46 3.25,-413.54 19.07,-403 41.43,-403 57.25,-413.54"/>
<text text-anchor="middle" x="30.25" y="-417.3" font-family="Times New Roman,serif" font-size="14.00">clk</text>
</g>
<!-- c21 -->
<g id="node13" class="node">
<title>c21</title>
<polygon fill="none" stroke="black" points="177.5,-59.5 177.5,-128.5 326.5,-128.5 326.5,-59.5 177.5,-59.5"/>
<text text-anchor="middle" x="203.5" y="-113.3" font-family="Times New Roman,serif" font-size="14.00">clk</text>
<polyline fill="none" stroke="black" points="177.5,-105.5 229.5,-105.5 "/>
<text text-anchor="middle" x="203.5" y="-90.3" font-family="Times New Roman,serif" font-size="14.00">enable</text>
<polyline fill="none" stroke="black" points="177.5,-82.5 229.5,-82.5 "/>
<text text-anchor="middle" x="203.5" y="-67.3" font-family="Times New Roman,serif" font-size="14.00">reset</text>
<polyline fill="none" stroke="black" points="229.5,-59.5 229.5,-128.5 "/>
<text text-anchor="middle" x="264.5" y="-97.8" font-family="Times New Roman,serif" font-size="14.00">counter0</text>
<text text-anchor="middle" x="264.5" y="-82.8" font-family="Times New Roman,serif" font-size="14.00">bcdcount</text>
<polyline fill="none" stroke="black" points="299.5,-59.5 299.5,-128.5 "/>
<text text-anchor="middle" x="313" y="-90.3" font-family="Times New Roman,serif" font-size="14.00">Q</text>
</g>
<!-- n7&#45;&gt;c21 -->
<g id="edge8" class="edge">
<title>n7:e&#45;&gt;c21:w</title>
<path fill="none" stroke="#7570b3" d="M58.25,-421C82.45,-421 70.74,-336.92 78.5,-314 79.36,-311.47 151.84,-163.2 172.27,-125.6"/>
<polygon fill="#7570b3" stroke="#7570b3" points="175.29,-127.36 177.5,-117 169.31,-123.72 175.29,-127.36"/>
</g>
<!-- c22 -->
<g id="node14" class="node">
<title>c22</title>
<polygon fill="none" stroke="black" points="177.5,-350.5 177.5,-419.5 326.5,-419.5 326.5,-350.5 177.5,-350.5"/>
<text text-anchor="middle" x="203.5" y="-404.3" font-family="Times New Roman,serif" font-size="14.00">clk</text>
<polyline fill="none" stroke="black" points="177.5,-396.5 229.5,-396.5 "/>
<text text-anchor="middle" x="203.5" y="-381.3" font-family="Times New Roman,serif" font-size="14.00">enable</text>
<polyline fill="none" stroke="black" points="177.5,-373.5 229.5,-373.5 "/>
<text text-anchor="middle" x="203.5" y="-358.3" font-family="Times New Roman,serif" font-size="14.00">reset</text>
<polyline fill="none" stroke="black" points="229.5,-350.5 229.5,-419.5 "/>
<text text-anchor="middle" x="264.5" y="-388.8" font-family="Times New Roman,serif" font-size="14.00">counter1</text>
<text text-anchor="middle" x="264.5" y="-373.8" font-family="Times New Roman,serif" font-size="14.00">bcdcount</text>
<polyline fill="none" stroke="black" points="299.5,-350.5 299.5,-419.5 "/>
<text text-anchor="middle" x="313" y="-381.3" font-family="Times New Roman,serif" font-size="14.00">Q</text>
</g>
<!-- n7&#45;&gt;c22 -->
<g id="edge9" class="edge">
<title>n7:e&#45;&gt;c22:w</title>
<path fill="none" stroke="#7570b3" d="M58.25,-421C68.71,-421 68.41,-430.24 78.5,-433 105.08,-440.28 114.15,-441.07 140.5,-433 155.47,-428.42 157.5,-415.5 167.44,-410.26"/>
<polygon fill="#7570b3" stroke="#7570b3" points="168.51,-413.6 177.5,-408 166.98,-406.77 168.51,-413.6"/>
</g>
<!-- c23 -->
<g id="node15" class="node">
<title>c23</title>
<polygon fill="none" stroke="black" points="177.5,-494.5 177.5,-563.5 326.5,-563.5 326.5,-494.5 177.5,-494.5"/>
<text text-anchor="middle" x="203.5" y="-548.3" font-family="Times New Roman,serif" font-size="14.00">clk</text>
<polyline fill="none" stroke="black" points="177.5,-540.5 229.5,-540.5 "/>
<text text-anchor="middle" x="203.5" y="-525.3" font-family="Times New Roman,serif" font-size="14.00">enable</text>
<polyline fill="none" stroke="black" points="177.5,-517.5 229.5,-517.5 "/>
<text text-anchor="middle" x="203.5" y="-502.3" font-family="Times New Roman,serif" font-size="14.00">reset</text>
<polyline fill="none" stroke="black" points="229.5,-494.5 229.5,-563.5 "/>
<text text-anchor="middle" x="264.5" y="-532.8" font-family="Times New Roman,serif" font-size="14.00">counter2</text>
<text text-anchor="middle" x="264.5" y="-517.8" font-family="Times New Roman,serif" font-size="14.00">bcdcount</text>
<polyline fill="none" stroke="black" points="299.5,-494.5 299.5,-563.5 "/>
<text text-anchor="middle" x="313" y="-525.3" font-family="Times New Roman,serif" font-size="14.00">Q</text>
</g>
<!-- n7&#45;&gt;c23 -->
<g id="edge10" class="edge">
<title>n7:e&#45;&gt;c23:w</title>
<path fill="none" stroke="#7570b3" d="M58.25,-421C73.61,-421 68.66,-437.21 78.5,-449 116.9,-494.97 114.45,-545.87 167.35,-551.49"/>
<polygon fill="#7570b3" stroke="#7570b3" points="167.34,-554.99 177.5,-552 167.69,-548 167.34,-554.99"/>
</g>
<!-- c24 -->
<g id="node16" class="node">
<title>c24</title>
<polygon fill="none" stroke="black" points="177.5,-254.5 177.5,-323.5 326.5,-323.5 326.5,-254.5 177.5,-254.5"/>
<text text-anchor="middle" x="203.5" y="-308.3" font-family="Times New Roman,serif" font-size="14.00">clk</text>
<polyline fill="none" stroke="black" points="177.5,-300.5 229.5,-300.5 "/>
<text text-anchor="middle" x="203.5" y="-285.3" font-family="Times New Roman,serif" font-size="14.00">enable</text>
<polyline fill="none" stroke="black" points="177.5,-277.5 229.5,-277.5 "/>
<text text-anchor="middle" x="203.5" y="-262.3" font-family="Times New Roman,serif" font-size="14.00">reset</text>
<polyline fill="none" stroke="black" points="229.5,-254.5 229.5,-323.5 "/>
<text text-anchor="middle" x="264.5" y="-292.8" font-family="Times New Roman,serif" font-size="14.00">counter3</text>
<text text-anchor="middle" x="264.5" y="-277.8" font-family="Times New Roman,serif" font-size="14.00">bcdcount</text>
<polyline fill="none" stroke="black" points="299.5,-254.5 299.5,-323.5 "/>
<text text-anchor="middle" x="313" y="-285.3" font-family="Times New Roman,serif" font-size="14.00">Q</text>
</g>
<!-- n7&#45;&gt;c24 -->
<g id="edge11" class="edge">
<title>n7:e&#45;&gt;c24:w</title>
<path fill="none" stroke="#7570b3" d="M58.25,-421C79.37,-421 64.71,-394 78.5,-378 110.74,-340.61 122.98,-315.51 167.49,-312.34"/>
<polygon fill="#7570b3" stroke="#7570b3" points="167.62,-315.84 177.5,-312 167.39,-308.84 167.62,-315.84"/>
</g>
<!-- n10 -->
<g id="node2" class="node">
<title>n10</title>
<polygon fill="none" stroke="black" points="60.25,-247.54 60.25,-262.46 42.68,-273 17.82,-273 0.25,-262.46 0.25,-247.54 17.82,-237 42.68,-237 60.25,-247.54"/>
<text text-anchor="middle" x="30.25" y="-251.3" font-family="Times New Roman,serif" font-size="14.00">reset</text>
</g>
<!-- n10&#45;&gt;c21 -->
<g id="edge17" class="edge">
<title>n10:e&#45;&gt;c21:w</title>
<path fill="none" stroke="#e6ab02" d="M60.5,-255C99.15,-255 51.26,-109.43 78.5,-82 107.26,-53.04 129.51,-68.13 167.49,-70.66"/>
<polygon fill="#e6ab02" stroke="#e6ab02" points="167.39,-74.16 177.5,-71 167.62,-67.16 167.39,-74.16"/>
</g>
<!-- n10&#45;&gt;c22 -->
<g id="edge18" class="edge">
<title>n10:e&#45;&gt;c22:w</title>
<path fill="none" stroke="#e6ab02" d="M60.5,-255C71.81,-255 70.29,-265.22 78.5,-273 118.83,-311.25 118.54,-356.18 167.41,-361.48"/>
<polygon fill="#e6ab02" stroke="#e6ab02" points="167.33,-364.98 177.5,-362 167.69,-357.99 167.33,-364.98"/>
</g>
<!-- n10&#45;&gt;c23 -->
<g id="edge19" class="edge">
<title>n10:e&#45;&gt;c23:w</title>
<path fill="none" stroke="#e6ab02" d="M60.5,-255C100.26,-255 55.28,-400.73 78.5,-433 96.16,-457.54 116.49,-442.62 140.5,-461 157.69,-474.16 153.9,-496.76 167.32,-503.83"/>
<polygon fill="#e6ab02" stroke="#e6ab02" points="166.99,-507.33 177.5,-506 168.45,-500.49 166.99,-507.33"/>
</g>
<!-- n10&#45;&gt;c24 -->
<g id="edge20" class="edge">
<title>n10:e&#45;&gt;c24:w</title>
<path fill="none" stroke="#e6ab02" d="M60.5,-255C109.16,-255 123.37,-264.55 167.32,-265.85"/>
<polygon fill="#e6ab02" stroke="#e6ab02" points="167.45,-269.35 177.5,-266 167.55,-262.36 167.45,-269.35"/>
</g>
<!-- n8 -->
<g id="node3" class="node">
<title>n8</title>
<polygon fill="none" stroke="black" points="994.87,-445.54 994.87,-460.46 979.06,-471 956.69,-471 940.87,-460.46 940.87,-445.54 956.69,-435 979.06,-435 994.87,-445.54"/>
<text text-anchor="middle" x="967.87" y="-449.3" font-family="Times New Roman,serif" font-size="14.00">ena</text>
</g>
<!-- x0 -->
<g id="node17" class="node">
<title>x0</title>
<path fill="none" stroke="black" d="M547.37,-414C547.37,-414 585.37,-414 585.37,-414 591.37,-414 597.37,-420 597.37,-426 597.37,-426 597.37,-438 597.37,-438 597.37,-444 591.37,-450 585.37,-450 585.37,-450 547.37,-450 547.37,-450 541.37,-450 535.37,-444 535.37,-438 535.37,-438 535.37,-426 535.37,-426 535.37,-420 541.37,-414 547.37,-414"/>
<text text-anchor="middle" x="566.37" y="-428.3" font-family="Times New Roman,serif" font-size="14.00">0:0 &#45; 0:0</text>
</g>
<!-- n8&#45;&gt;x0 -->
<g id="edge12" class="edge">
<title>n8:e&#45;&gt;x0:w</title>
<path fill="none" stroke="#d95f02" d="M995.87,-453C1003.88,-453 1000.69,-465.49 994.87,-471 977.44,-487.49 963.71,-478.38 940.87,-471 931.48,-467.96 932.23,-461.13 922.87,-458 912.66,-454.59 543.11,-457.98 535.37,-450.5 532.87,-448.09 530.84,-444.42 529.94,-440.98"/>
<polygon fill="#d95f02" stroke="#d95f02" points="533.09,-442.52 534.37,-432 526.81,-439.42 533.09,-442.52"/>
</g>
<!-- x2 -->
<g id="node18" class="node">
<title>x2</title>
<path fill="none" stroke="black" d="M547.37,-456C547.37,-456 585.37,-456 585.37,-456 591.37,-456 597.37,-462 597.37,-468 597.37,-468 597.37,-480 597.37,-480 597.37,-486 591.37,-492 585.37,-492 585.37,-492 547.37,-492 547.37,-492 541.37,-492 535.37,-486 535.37,-480 535.37,-480 535.37,-468 535.37,-468 535.37,-462 541.37,-456 547.37,-456"/>
<text text-anchor="middle" x="566.37" y="-470.3" font-family="Times New Roman,serif" font-size="14.00">1:1 &#45; 0:0</text>
</g>
<!-- n8&#45;&gt;x2 -->
<g id="edge13" class="edge">
<title>n8:e&#45;&gt;x2:w</title>
<path fill="none" stroke="#d95f02" d="M995.87,-453C1003.88,-453 1000.54,-465.34 994.87,-471 993.89,-471.98 598.75,-492.46 597.37,-492.5 583.6,-492.87 545.37,-501.98 535.37,-492.5 532.85,-490.11 530.81,-486.44 529.92,-483"/>
<polygon fill="#d95f02" stroke="#d95f02" points="533.07,-484.52 534.37,-474 526.8,-481.41 533.07,-484.52"/>
</g>
<!-- x9 -->
<g id="node19" class="node">
<title>x9</title>
<path fill="none" stroke="black" d="M90.5,-387C90.5,-387 128.5,-387 128.5,-387 134.5,-387 140.5,-393 140.5,-399 140.5,-399 140.5,-411 140.5,-411 140.5,-417 134.5,-423 128.5,-423 128.5,-423 90.5,-423 90.5,-423 84.5,-423 78.5,-417 78.5,-411 78.5,-411 78.5,-399 78.5,-399 78.5,-393 84.5,-387 90.5,-387"/>
<text text-anchor="middle" x="109.5" y="-401.3" font-family="Times New Roman,serif" font-size="14.00">0:0 &#45; 0:0</text>
</g>
<!-- n8&#45;&gt;x9 -->
<g id="edge14" class="edge">
<title>n8:e&#45;&gt;x9:w</title>
<path fill="none" stroke="#d95f02" d="M995.87,-453C1035.98,-453 913.98,-586 873.87,-586 565.37,-586 565.37,-586 565.37,-586 485.43,-586 461.46,-594.79 386.5,-567 365.23,-559.11 358.17,-556.1 344.5,-538 329.51,-518.15 344.44,-502.24 326.5,-485 264.34,-425.27 225.06,-446.79 140.5,-430 126.91,-427.3 88.05,-433.54 78.5,-423.5 76.2,-421.08 74.24,-417.57 73.28,-414.26"/>
<polygon fill="#d95f02" stroke="#d95f02" points="76.54,-415.55 77.5,-405 70.17,-412.65 76.54,-415.55"/>
</g>
<!-- x10 -->
<g id="node20" class="node">
<title>x10</title>
<path fill="none" stroke="black" d="M90.5,-587C90.5,-587 128.5,-587 128.5,-587 134.5,-587 140.5,-593 140.5,-599 140.5,-599 140.5,-611 140.5,-611 140.5,-617 134.5,-623 128.5,-623 128.5,-623 90.5,-623 90.5,-623 84.5,-623 78.5,-617 78.5,-611 78.5,-611 78.5,-599 78.5,-599 78.5,-593 84.5,-587 90.5,-587"/>
<text text-anchor="middle" x="109.5" y="-601.3" font-family="Times New Roman,serif" font-size="14.00">1:1 &#45; 0:0</text>
</g>
<!-- n8&#45;&gt;x10 -->
<g id="edge15" class="edge">
<title>n8:e&#45;&gt;x10:w</title>
<path fill="none" stroke="#d95f02" d="M995.87,-453C1003.88,-453 997.49,-463.43 994.87,-471 976.78,-523.33 930.82,-571.84 903.87,-600 892.06,-612.33 890.95,-624 873.87,-624 251,-624 251,-624 251,-624 174.33,-624 134.08,-676.31 78.5,-623.5 75.98,-621.11 73.95,-617.44 73.05,-614"/>
<polygon fill="#d95f02" stroke="#d95f02" points="76.21,-615.52 77.5,-605 69.93,-612.41 76.21,-615.52"/>
</g>
<!-- x11 -->
<g id="node21" class="node">
<title>x11</title>
<path fill="none" stroke="black" d="M90.5,-142C90.5,-142 128.5,-142 128.5,-142 134.5,-142 140.5,-148 140.5,-154 140.5,-154 140.5,-166 140.5,-166 140.5,-172 134.5,-178 128.5,-178 128.5,-178 90.5,-178 90.5,-178 84.5,-178 78.5,-172 78.5,-166 78.5,-166 78.5,-154 78.5,-154 78.5,-148 84.5,-142 90.5,-142"/>
<text text-anchor="middle" x="109.5" y="-156.3" font-family="Times New Roman,serif" font-size="14.00">2:2 &#45; 0:0</text>
</g>
<!-- n8&#45;&gt;x11 -->
<g id="edge16" class="edge">
<title>n8:e&#45;&gt;x11:w</title>
<path fill="none" stroke="#d95f02" d="M995.87,-453C1003.88,-453 1000.69,-465.49 994.87,-471 977.44,-487.49 959.45,-486.19 940.87,-471 911.83,-447.24 911.39,-140 873.87,-140 490.87,-140 490.87,-140 490.87,-140 334.21,-140 296.92,-169.93 140.5,-178.5 112.99,-180.01 98.5,-197.45 78.5,-178.5 75.98,-176.11 73.94,-172.44 73.05,-169"/>
<polygon fill="#d95f02" stroke="#d95f02" points="76.2,-170.52 77.5,-160 69.93,-167.41 76.2,-170.52"/>
</g>
<!-- n9 -->
<g id="node4" class="node">
<title>n9</title>
<polygon fill="none" stroke="black" points="994.87,-33.54 994.87,-48.46 979.06,-59 956.69,-59 940.87,-48.46 940.87,-33.54 956.69,-23 979.06,-23 994.87,-33.54"/>
<text text-anchor="middle" x="967.87" y="-37.3" font-family="Times New Roman,serif" font-size="14.00">q</text>
</g>
<!-- n3 -->
<g id="node5" class="node">
<title>n3</title>
<polygon fill="none" stroke="black" points="424.19,-113 386.31,-95 424.19,-77 462.06,-95 424.19,-113"/>
<text text-anchor="middle" x="424.19" y="-91.3" font-family="Times New Roman,serif" font-size="14.00">cQ0</text>
</g>
<!-- c16 -->
<g id="node6" class="node">
<title>c16</title>
<polygon fill="none" stroke="black" points="521.87,-41 521.87,-87 610.87,-87 610.87,-41 521.87,-41"/>
<text text-anchor="middle" x="534.87" y="-71.8" font-family="Times New Roman,serif" font-size="14.00">A</text>
<polyline fill="none" stroke="black" points="521.87,-64 547.87,-64 "/>
<text text-anchor="middle" x="534.87" y="-48.8" font-family="Times New Roman,serif" font-size="14.00">B</text>
<polyline fill="none" stroke="black" points="547.87,-41 547.87,-87 "/>
<text text-anchor="middle" x="566.37" y="-67.8" font-family="Times New Roman,serif" font-size="14.00">$1</text>
<text text-anchor="middle" x="566.37" y="-52.8" font-family="Times New Roman,serif" font-size="14.00">$eq</text>
<polyline fill="none" stroke="black" points="584.87,-41 584.87,-87 "/>
<text text-anchor="middle" x="597.87" y="-60.3" font-family="Times New Roman,serif" font-size="14.00">Y</text>
</g>
<!-- n3&#45;&gt;c16 -->
<g id="edge1" class="edge">
<title>n3:e&#45;&gt;c16:w</title>
<path fill="none" stroke="#66a61e" stroke-width="3" d="M461.87,-95C486.13,-95 492.4,-80.71 511.88,-76.92"/>
<polygon fill="#66a61e" stroke="#66a61e" stroke-width="3" points="512.23,-80.4 521.87,-76 511.59,-73.43 512.23,-80.4"/>
<text text-anchor="middle" x="491.87" y="-95.8" font-family="Times New Roman,serif" font-size="14.00" fill="#66a61e">&lt;4&gt;</text>
</g>
<!-- x12 -->
<g id="node7" class="node">
<title>x12</title>
<path fill="none" stroke="black" d="M540.87,-203C540.87,-203 591.87,-203 591.87,-203 597.87,-203 603.87,-209 603.87,-215 603.87,-215 603.87,-283 603.87,-283 603.87,-289 597.87,-295 591.87,-295 591.87,-295 540.87,-295 540.87,-295 534.87,-295 528.87,-289 528.87,-283 528.87,-283 528.87,-215 528.87,-215 528.87,-209 534.87,-203 540.87,-203"/>
<text text-anchor="middle" x="566.37" y="-279.8" font-family="Times New Roman,serif" font-size="14.00">3:0 &#45; 15:12</text>
<polyline fill="none" stroke="black" points="528.87,-272 603.87,-272 "/>
<text text-anchor="middle" x="566.37" y="-256.8" font-family="Times New Roman,serif" font-size="14.00">3:0 &#45; 11:8</text>
<polyline fill="none" stroke="black" points="528.87,-249 603.87,-249 "/>
<text text-anchor="middle" x="566.37" y="-233.8" font-family="Times New Roman,serif" font-size="14.00">3:0 &#45; 7:4</text>
<polyline fill="none" stroke="black" points="528.87,-226 603.87,-226 "/>
<text text-anchor="middle" x="566.37" y="-210.8" font-family="Times New Roman,serif" font-size="14.00">3:0 &#45; 3:0</text>
</g>
<!-- n3&#45;&gt;x12 -->
<g id="edge2" class="edge">
<title>n3:e&#45;&gt;x12:w</title>
<path fill="none" stroke="#66a61e" stroke-width="3" d="M461.87,-95C488.64,-95 495.7,-188.57 518,-209.76"/>
<polygon fill="#66a61e" stroke="#66a61e" stroke-width="3" points="516.82,-213.07 527.37,-214 519.7,-206.69 516.82,-213.07"/>
<text text-anchor="middle" x="491.87" y="-185.8" font-family="Times New Roman,serif" font-size="14.00" fill="#66a61e">&lt;4&gt;</text>
</g>
<!-- x5 -->
<g id="node27" class="node">
<title>x5</title>
<path fill="none" stroke="black" d="M773.87,-75C773.87,-75 811.87,-75 811.87,-75 817.87,-75 823.87,-81 823.87,-87 823.87,-87 823.87,-99 823.87,-99 823.87,-105 817.87,-111 811.87,-111 811.87,-111 773.87,-111 773.87,-111 767.87,-111 761.87,-105 761.87,-99 761.87,-99 761.87,-87 761.87,-87 761.87,-81 767.87,-75 773.87,-75"/>
<text text-anchor="middle" x="792.87" y="-89.3" font-family="Times New Roman,serif" font-size="14.00">0:0 &#45; 0:0</text>
</g>
<!-- c16&#45;&gt;x5 -->
<g id="edge28" class="edge">
<title>c16:e&#45;&gt;x5:w</title>
<path fill="none" stroke="#7570b3" d="M623.08,-64.33C677.35,-67.3 695.42,-89.71 749.71,-92.68"/>
<polygon fill="none" stroke="#7570b3" points="622.87,-64.32 616.76,-68.16 610.87,-64 616.98,-60.16 622.87,-64.32"/>
<polygon fill="none" stroke="#7570b3" points="749.88,-92.68 755.98,-88.84 761.87,-93 755.77,-96.84 749.88,-92.68"/>
</g>
<!-- x12&#45;&gt;n9 -->
<g id="edge42" class="edge">
<title>x12:e&#45;&gt;n9:w</title>
<path fill="none" stroke="#d95f02" stroke-width="3" d="M605.37,-249C717.89,-249 661.93,-101.69 761.87,-50 829.45,-15.05 858.56,-38.65 930.44,-40.84"/>
<polygon fill="#d95f02" stroke="#d95f02" stroke-width="3" points="930.82,-44.35 940.87,-41 930.93,-37.35 930.82,-44.35"/>
<text text-anchor="middle" x="792.87" y="-53.8" font-family="Times New Roman,serif" font-size="14.00" fill="#d95f02">&lt;16&gt;</text>
</g>
<!-- n4 -->
<g id="node8" class="node">
<title>n4</title>
<polygon fill="none" stroke="black" points="424.19,-396 386.31,-378 424.19,-360 462.06,-378 424.19,-396"/>
<text text-anchor="middle" x="424.19" y="-374.3" font-family="Times New Roman,serif" font-size="14.00">cQ1</text>
</g>
<!-- n4&#45;&gt;x12 -->
<g id="edge4" class="edge">
<title>n4:e&#45;&gt;x12:w</title>
<path fill="none" stroke="#a6761d" stroke-width="3" d="M461.87,-378C490.38,-378 461.24,-272.57 479.87,-251 491.9,-237.08 501.63,-236.65 517.36,-236.88"/>
<polygon fill="#a6761d" stroke="#a6761d" stroke-width="3" points="517.33,-240.38 527.37,-237 517.41,-233.38 517.33,-240.38"/>
<text text-anchor="middle" x="491.87" y="-254.8" font-family="Times New Roman,serif" font-size="14.00" fill="#a6761d">&lt;4&gt;</text>
</g>
<!-- c17 -->
<g id="node9" class="node">
<title>c17</title>
<polygon fill="none" stroke="black" points="521.87,-362 521.87,-408 610.87,-408 610.87,-362 521.87,-362"/>
<text text-anchor="middle" x="534.87" y="-392.8" font-family="Times New Roman,serif" font-size="14.00">A</text>
<polyline fill="none" stroke="black" points="521.87,-385 547.87,-385 "/>
<text text-anchor="middle" x="534.87" y="-369.8" font-family="Times New Roman,serif" font-size="14.00">B</text>
<polyline fill="none" stroke="black" points="547.87,-362 547.87,-408 "/>
<text text-anchor="middle" x="566.37" y="-388.8" font-family="Times New Roman,serif" font-size="14.00">$2</text>
<text text-anchor="middle" x="566.37" y="-373.8" font-family="Times New Roman,serif" font-size="14.00">$eq</text>
<polyline fill="none" stroke="black" points="584.87,-362 584.87,-408 "/>
<text text-anchor="middle" x="597.87" y="-381.3" font-family="Times New Roman,serif" font-size="14.00">Y</text>
</g>
<!-- n4&#45;&gt;c17 -->
<g id="edge3" class="edge">
<title>n4:e&#45;&gt;c17:w</title>
<path fill="none" stroke="#a6761d" stroke-width="3" d="M461.87,-378C477.8,-378 466.06,-401.05 479.87,-409 489.12,-414.32 493.66,-412.09 503.87,-409 508.47,-407.61 510.57,-404.61 512.72,-401.96"/>
<polygon fill="#a6761d" stroke="#a6761d" stroke-width="3" points="514.74,-404.84 521.87,-397 511.41,-398.68 514.74,-404.84"/>
<text text-anchor="middle" x="491.87" y="-415.8" font-family="Times New Roman,serif" font-size="14.00" fill="#a6761d">&lt;4&gt;</text>
</g>
<!-- c14 -->
<g id="node22" class="node">
<title>c14</title>
<polygon fill="none" stroke="black" points="647.87,-361 647.87,-407 743.87,-407 743.87,-361 647.87,-361"/>
<text text-anchor="middle" x="660.87" y="-391.8" font-family="Times New Roman,serif" font-size="14.00">A</text>
<polyline fill="none" stroke="black" points="647.87,-384 673.87,-384 "/>
<text text-anchor="middle" x="660.87" y="-368.8" font-family="Times New Roman,serif" font-size="14.00">B</text>
<polyline fill="none" stroke="black" points="673.87,-361 673.87,-407 "/>
<text text-anchor="middle" x="695.87" y="-387.8" font-family="Times New Roman,serif" font-size="14.00">$3</text>
<text text-anchor="middle" x="695.87" y="-372.8" font-family="Times New Roman,serif" font-size="14.00">$and</text>
<polyline fill="none" stroke="black" points="717.87,-361 717.87,-407 "/>
<text text-anchor="middle" x="730.87" y="-380.3" font-family="Times New Roman,serif" font-size="14.00">Y</text>
</g>
<!-- c17&#45;&gt;c14 -->
<g id="edge31" class="edge">
<title>c17:e&#45;&gt;c14:w</title>
<path fill="none" stroke="#a6761d" d="M610.87,-385C624.22,-385 628.6,-377.38 637.74,-373.81"/>
<polygon fill="#a6761d" stroke="#a6761d" points="638.64,-377.2 647.87,-372 637.41,-370.31 638.64,-377.2"/>
</g>
<!-- n5 -->
<g id="node10" class="node">
<title>n5</title>
<polygon fill="none" stroke="black" points="424.19,-437 386.31,-419 424.19,-401 462.06,-419 424.19,-437"/>
<text text-anchor="middle" x="424.19" y="-415.3" font-family="Times New Roman,serif" font-size="14.00">cQ2</text>
</g>
<!-- n5&#45;&gt;x12 -->
<g id="edge6" class="edge">
<title>n5:e&#45;&gt;x12:w</title>
<path fill="none" stroke="#7570b3" stroke-width="3" d="M461.87,-419C491.26,-419 463.4,-312.33 479.87,-288 485.19,-280.15 503.78,-268.08 517.45,-263.18"/>
<polygon fill="#7570b3" stroke="#7570b3" stroke-width="3" points="518.36,-266.57 527.37,-261 516.85,-259.73 518.36,-266.57"/>
<text text-anchor="middle" x="491.87" y="-291.8" font-family="Times New Roman,serif" font-size="14.00" fill="#7570b3">&lt;4&gt;</text>
</g>
<!-- c18 -->
<g id="node11" class="node">
<title>c18</title>
<polygon fill="none" stroke="black" points="521.87,-498 521.87,-544 610.87,-544 610.87,-498 521.87,-498"/>
<text text-anchor="middle" x="534.87" y="-528.8" font-family="Times New Roman,serif" font-size="14.00">A</text>
<polyline fill="none" stroke="black" points="521.87,-521 547.87,-521 "/>
<text text-anchor="middle" x="534.87" y="-505.8" font-family="Times New Roman,serif" font-size="14.00">B</text>
<polyline fill="none" stroke="black" points="547.87,-498 547.87,-544 "/>
<text text-anchor="middle" x="566.37" y="-524.8" font-family="Times New Roman,serif" font-size="14.00">$4</text>
<text text-anchor="middle" x="566.37" y="-509.8" font-family="Times New Roman,serif" font-size="14.00">$eq</text>
<polyline fill="none" stroke="black" points="584.87,-498 584.87,-544 "/>
<text text-anchor="middle" x="597.87" y="-517.3" font-family="Times New Roman,serif" font-size="14.00">Y</text>
</g>
<!-- n5&#45;&gt;c18 -->
<g id="edge5" class="edge">
<title>n5:e&#45;&gt;c18:w</title>
<path fill="none" stroke="#7570b3" stroke-width="3" d="M461.87,-419C481.17,-419 495.07,-477.83 503.87,-495 510.26,-507.47 506.68,-522.61 512.37,-529.4"/>
<polygon fill="#7570b3" stroke="#7570b3" stroke-width="3" points="511.28,-532.73 521.87,-533 513.76,-526.18 511.28,-532.73"/>
<text text-anchor="middle" x="491.87" y="-498.8" font-family="Times New Roman,serif" font-size="14.00" fill="#7570b3">&lt;4&gt;</text>
</g>
<!-- c15 -->
<g id="node24" class="node">
<title>c15</title>
<polygon fill="none" stroke="black" points="647.87,-499 647.87,-545 743.87,-545 743.87,-499 647.87,-499"/>
<text text-anchor="middle" x="660.87" y="-529.8" font-family="Times New Roman,serif" font-size="14.00">A</text>
<polyline fill="none" stroke="black" points="647.87,-522 673.87,-522 "/>
<text text-anchor="middle" x="660.87" y="-506.8" font-family="Times New Roman,serif" font-size="14.00">B</text>
<polyline fill="none" stroke="black" points="673.87,-499 673.87,-545 "/>
<text text-anchor="middle" x="695.87" y="-525.8" font-family="Times New Roman,serif" font-size="14.00">$5</text>
<text text-anchor="middle" x="695.87" y="-510.8" font-family="Times New Roman,serif" font-size="14.00">$and</text>
<polyline fill="none" stroke="black" points="717.87,-499 717.87,-545 "/>
<text text-anchor="middle" x="730.87" y="-518.3" font-family="Times New Roman,serif" font-size="14.00">Y</text>
</g>
<!-- c18&#45;&gt;c15 -->
<g id="edge33" class="edge">
<title>c18:e&#45;&gt;c15:w</title>
<path fill="none" stroke="#1b9e77" d="M610.87,-521C624.01,-521 628.66,-514.55 637.82,-511.53"/>
<polygon fill="#1b9e77" stroke="#1b9e77" points="638.51,-514.96 647.87,-510 637.46,-508.04 638.51,-514.96"/>
</g>
<!-- n6 -->
<g id="node12" class="node">
<title>n6</title>
<polygon fill="none" stroke="black" points="424.19,-355 386.31,-337 424.19,-319 462.06,-337 424.19,-355"/>
<text text-anchor="middle" x="424.19" y="-333.3" font-family="Times New Roman,serif" font-size="14.00">cQ3</text>
</g>
<!-- n6&#45;&gt;x12 -->
<g id="edge7" class="edge">
<title>n6:e&#45;&gt;x12:w</title>
<path fill="none" stroke="#e6ab02" stroke-width="3" d="M461.87,-337C484.81,-337 486.29,-321.73 503.87,-307 511.57,-300.55 512.88,-292.1 517.7,-287.44"/>
<polygon fill="#e6ab02" stroke="#e6ab02" stroke-width="3" points="519.13,-290.65 527.37,-284 516.78,-284.06 519.13,-290.65"/>
<text text-anchor="middle" x="491.87" y="-334.8" font-family="Times New Roman,serif" font-size="14.00" fill="#e6ab02">&lt;4&gt;</text>
</g>
<!-- c21&#45;&gt;n3 -->
<g id="edge35" class="edge">
<title>c21:e&#45;&gt;n3:w</title>
<path fill="none" stroke="#66a61e" stroke-width="3" d="M326.5,-94C349.42,-94 357.56,-94.74 376.32,-94.95"/>
<polygon fill="#66a61e" stroke="#66a61e" stroke-width="3" points="376.48,-98.45 386.5,-95 376.52,-91.45 376.48,-98.45"/>
<text text-anchor="middle" x="356.5" y="-98.8" font-family="Times New Roman,serif" font-size="14.00" fill="#66a61e">&lt;4&gt;</text>
</g>
<!-- c22&#45;&gt;n4 -->
<g id="edge36" class="edge">
<title>c22:e&#45;&gt;n4:w</title>
<path fill="none" stroke="#a6761d" stroke-width="3" d="M326.5,-385C349.57,-385 357.47,-379.83 376.28,-378.38"/>
<polygon fill="#a6761d" stroke="#a6761d" stroke-width="3" points="376.64,-381.87 386.5,-378 376.38,-374.87 376.64,-381.87"/>
<text text-anchor="middle" x="356.5" y="-386.8" font-family="Times New Roman,serif" font-size="14.00" fill="#a6761d">&lt;4&gt;</text>
</g>
<!-- c23&#45;&gt;n5 -->
<g id="edge38" class="edge">
<title>c23:e&#45;&gt;n5:w</title>
<path fill="none" stroke="#7570b3" stroke-width="3" d="M326.5,-529C378.27,-529 337.51,-433.92 376.27,-420.55"/>
<polygon fill="#7570b3" stroke="#7570b3" stroke-width="3" points="377.14,-423.96 386.5,-419 376.09,-417.04 377.14,-423.96"/>
<text text-anchor="middle" x="356.5" y="-524.8" font-family="Times New Roman,serif" font-size="14.00" fill="#7570b3">&lt;4&gt;</text>
</g>
<!-- c24&#45;&gt;n6 -->
<g id="edge40" class="edge">
<title>c24:e&#45;&gt;n6:w</title>
<path fill="none" stroke="#e6ab02" stroke-width="3" d="M326.5,-289C356.78,-289 353.69,-326.74 376.41,-335.29"/>
<polygon fill="#e6ab02" stroke="#e6ab02" stroke-width="3" points="376.06,-338.78 386.5,-337 377.22,-331.88 376.06,-338.78"/>
<text text-anchor="middle" x="356.5" y="-333.8" font-family="Times New Roman,serif" font-size="14.00" fill="#e6ab02">&lt;4&gt;</text>
</g>
<!-- x0&#45;&gt;c14 -->
<g id="edge22" class="edge">
<title>x0:e&#45;&gt;c14:w</title>
<path fill="none" stroke="#d95f02" d="M610.3,-428.93C621.67,-422.13 624.58,-405.86 635.96,-399.06"/>
<polygon fill="none" stroke="#d95f02" points="609.99,-429.01 605.18,-434.38 598.37,-432 603.18,-426.63 609.99,-429.01"/>
<polygon fill="none" stroke="#d95f02" points="636.25,-398.99 641.06,-393.62 647.87,-396 643.06,-401.37 636.25,-398.99"/>
</g>
<!-- x2&#45;&gt;c15 -->
<g id="edge25" class="edge">
<title>x2:e&#45;&gt;c15:w</title>
<path fill="none" stroke="#1b9e77" d="M610.04,-477.23C625.46,-487.64 620.78,-520.32 636.18,-530.76"/>
<polygon fill="none" stroke="#1b9e77" points="609.94,-477.2 603.09,-479.45 598.37,-474 605.22,-471.74 609.94,-477.2"/>
<polygon fill="none" stroke="#1b9e77" points="636.31,-530.79 643.16,-528.54 647.87,-534 641.02,-536.25 636.31,-530.79"/>
</g>
<!-- x9&#45;&gt;c22 -->
<g id="edge37" class="edge">
<title>x9:e&#45;&gt;c22:w</title>
<path fill="none" stroke="#666666" d="M152.07,-401.52C157.37,-397.85 160.68,-392.1 165.99,-388.44"/>
<polygon fill="none" stroke="#666666" points="151.99,-401.54 147.4,-407.1 140.5,-405 145.09,-399.44 151.99,-401.54"/>
<polygon fill="none" stroke="#666666" points="166,-388.44 170.61,-382.89 177.5,-385 172.9,-390.55 166,-388.44"/>
</g>
<!-- x10&#45;&gt;c23 -->
<g id="edge39" class="edge">
<title>x10:e&#45;&gt;c23:w</title>
<path fill="none" stroke="#a6761d" d="M149.73,-597.15C157.3,-582.59 160.68,-551.54 168.24,-536.92"/>
<polygon fill="none" stroke="#a6761d" points="149.64,-597.23 147.66,-604.16 140.5,-605 142.48,-598.07 149.64,-597.23"/>
<polygon fill="none" stroke="#a6761d" points="168.38,-536.8 170.34,-529.86 177.5,-529 175.54,-535.94 168.38,-536.8"/>
</g>
<!-- x11&#45;&gt;c24 -->
<g id="edge41" class="edge">
<title>x11:e&#45;&gt;c24:w</title>
<path fill="none" stroke="#7570b3" d="M152.47,-162.46C184.44,-178.69 133.59,-270.2 165.48,-286.51"/>
<polygon fill="none" stroke="#7570b3" points="152.25,-162.42 145.57,-165.13 140.5,-160 147.18,-157.29 152.25,-162.42"/>
<polygon fill="none" stroke="#7570b3" points="165.75,-286.57 172.44,-283.87 177.5,-289 170.81,-291.7 165.75,-286.57"/>
</g>
<!-- x1 -->
<g id="node23" class="node">
<title>x1</title>
<path fill="none" stroke="black" d="M853.87,-370C853.87,-370 891.87,-370 891.87,-370 897.87,-370 903.87,-376 903.87,-382 903.87,-382 903.87,-394 903.87,-394 903.87,-400 897.87,-406 891.87,-406 891.87,-406 853.87,-406 853.87,-406 847.87,-406 841.87,-400 841.87,-394 841.87,-394 841.87,-382 841.87,-382 841.87,-376 847.87,-370 853.87,-370"/>
<text text-anchor="middle" x="872.87" y="-384.3" font-family="Times New Roman,serif" font-size="14.00">0:0 &#45; 1:1</text>
</g>
<!-- c14&#45;&gt;x1 -->
<g id="edge21" class="edge">
<title>c14:e&#45;&gt;x1:w</title>
<path fill="none" stroke="#d95f02" d="M756.21,-384.12C786.17,-384.7 799.56,-387.3 829.51,-387.88"/>
<polygon fill="none" stroke="#d95f02" points="755.87,-384.11 749.83,-388.06 743.87,-384 749.91,-380.06 755.87,-384.11"/>
<polygon fill="none" stroke="#d95f02" points="829.87,-387.89 835.91,-383.94 841.87,-388 835.83,-391.94 829.87,-387.89"/>
</g>
<!-- x1&#45;&gt;n8 -->
<g id="edge23" class="edge">
<title>x1:e&#45;&gt;n8:w</title>
<path fill="none" stroke="#d95f02" d="M903.87,-388C920.41,-388 914.69,-405.63 922.87,-420 928.81,-430.44 926.88,-442.92 931.53,-449.11"/>
<polygon fill="#d95f02" stroke="#d95f02" points="930.29,-452.39 940.87,-453 932.98,-445.93 930.29,-452.39"/>
</g>
<!-- x3 -->
<g id="node25" class="node">
<title>x3</title>
<path fill="none" stroke="black" d="M853.87,-500C853.87,-500 891.87,-500 891.87,-500 897.87,-500 903.87,-506 903.87,-512 903.87,-512 903.87,-524 903.87,-524 903.87,-530 897.87,-536 891.87,-536 891.87,-536 853.87,-536 853.87,-536 847.87,-536 841.87,-530 841.87,-524 841.87,-524 841.87,-512 841.87,-512 841.87,-506 847.87,-500 853.87,-500"/>
<text text-anchor="middle" x="872.87" y="-514.3" font-family="Times New Roman,serif" font-size="14.00">0:0 &#45; 2:2</text>
</g>
<!-- c15&#45;&gt;x3 -->
<g id="edge24" class="edge">
<title>c15:e&#45;&gt;x3:w</title>
<path fill="none" stroke="#1b9e77" d="M756.21,-521.88C786.17,-521.3 799.56,-518.7 829.51,-518.12"/>
<polygon fill="none" stroke="#1b9e77" points="755.87,-521.89 749.91,-525.94 743.87,-522 749.83,-517.94 755.87,-521.89"/>
<polygon fill="none" stroke="#1b9e77" points="829.87,-518.11 835.83,-514.06 841.87,-518 835.91,-522.06 829.87,-518.11"/>
</g>
<!-- x3&#45;&gt;n8 -->
<g id="edge26" class="edge">
<title>x3:e&#45;&gt;n8:w</title>
<path fill="none" stroke="#d95f02" d="M903.87,-518C920.41,-518 914.69,-500.37 922.87,-486 928.81,-475.56 926.88,-463.08 931.53,-456.89"/>
<polygon fill="#d95f02" stroke="#d95f02" points="932.98,-460.07 940.87,-453 930.29,-453.61 932.98,-460.07"/>
</g>
<!-- v4 -->
<g id="node26" class="node">
<title>v4</title>
<ellipse fill="none" stroke="black" cx="424.19" cy="-44" rx="34.39" ry="18"/>
<text text-anchor="middle" x="424.19" y="-40.3" font-family="Times New Roman,serif" font-size="14.00">4&#39;1001</text>
</g>
<!-- v4&#45;&gt;c16 -->
<g id="edge27" class="edge">
<title>v4:e&#45;&gt;c16:w</title>
<path fill="none" stroke="#e6ab02" stroke-width="3" d="M460.19,-44C484.05,-44 492.08,-49.96 511.62,-51.59"/>
<polygon fill="#e6ab02" stroke="#e6ab02" stroke-width="3" points="511.74,-55.1 521.87,-52 512.02,-48.11 511.74,-55.1"/>
<text text-anchor="middle" x="491.87" y="-54.8" font-family="Times New Roman,serif" font-size="14.00" fill="#e6ab02">&lt;4&gt;</text>
</g>
<!-- x5&#45;&gt;n8 -->
<g id="edge29" class="edge">
<title>x5:e&#45;&gt;n8:w</title>
<path fill="none" stroke="#d95f02" d="M823.87,-93C870.25,-93 894.73,-89.13 922.87,-126 943.01,-152.38 911.11,-402.68 932.96,-446.48"/>
<polygon fill="#d95f02" stroke="#d95f02" points="930.93,-449.34 940.87,-453 935.38,-443.94 930.93,-449.34"/>
</g>
<!-- v6 -->
<g id="node28" class="node">
<title>v6</title>
<ellipse fill="none" stroke="black" cx="424.19" cy="-460" rx="34.39" ry="18"/>
<text text-anchor="middle" x="424.19" y="-456.3" font-family="Times New Roman,serif" font-size="14.00">4&#39;1001</text>
</g>
<!-- v6&#45;&gt;c17 -->
<g id="edge30" class="edge">
<title>v6:e&#45;&gt;c17:w</title>
<path fill="none" stroke="#1b9e77" stroke-width="3" d="M460.19,-460C492.5,-460 458.32,-414.08 479.87,-390 490.78,-377.81 498.4,-374.21 511.67,-373.28"/>
<polygon fill="#1b9e77" stroke="#1b9e77" stroke-width="3" points="511.97,-376.78 521.87,-373 511.78,-369.78 511.97,-376.78"/>
<text text-anchor="middle" x="491.87" y="-393.8" font-family="Times New Roman,serif" font-size="14.00" fill="#1b9e77">&lt;4&gt;</text>
</g>
<!-- v7 -->
<g id="node29" class="node">
<title>v7</title>
<ellipse fill="none" stroke="black" cx="424.19" cy="-543" rx="34.39" ry="18"/>
<text text-anchor="middle" x="424.19" y="-539.3" font-family="Times New Roman,serif" font-size="14.00">4&#39;1001</text>
</g>
<!-- v7&#45;&gt;c18 -->
<g id="edge32" class="edge">
<title>v7:e&#45;&gt;c18:w</title>
<path fill="none" stroke="#66a61e" stroke-width="3" d="M460.19,-543C487.7,-543 490.32,-516.74 511.8,-510.37"/>
<polygon fill="#66a61e" stroke="#66a61e" stroke-width="3" points="512.44,-513.82 521.87,-509 511.49,-506.89 512.44,-513.82"/>
<text text-anchor="middle" x="491.87" y="-539.8" font-family="Times New Roman,serif" font-size="14.00" fill="#66a61e">&lt;4&gt;</text>
</g>
<!-- v8 -->
<g id="node30" class="node">
<title>v8</title>
<ellipse fill="none" stroke="black" cx="109.5" cy="-106" rx="27" ry="18"/>
<text text-anchor="middle" x="109.5" y="-102.3" font-family="Times New Roman,serif" font-size="14.00">1&#39;1</text>
</g>
<!-- v8&#45;&gt;c21 -->
<g id="edge34" class="edge">
<title>v8:e&#45;&gt;c21:w</title>
<path fill="none" stroke="#1b9e77" d="M137.5,-106C152.15,-106 157.03,-98.53 167.55,-95.38"/>
<polygon fill="#1b9e77" stroke="#1b9e77" points="168.07,-98.84 177.5,-94 167.11,-91.9 168.07,-98.84"/>
</g>
</g>
</svg>
