<svg xmlns="http://www.w3.org/2000/svg" xmlns:xlink="http://www.w3.org/1999/xlink" xmlns:s="https://github.com/nturley/netlistsvg" width="969" height="395">
  <style>svg {
    stroke:#000;
    fill:none;
  }
  text {
    fill:#000;
    stroke:none;
    font-size:10px;
    font-weight: bold;
    font-family: "Courier New", monospace;
  }
  .nodelabel {
    text-anchor: middle;
  }
  .inputPortLabel {
    text-anchor: end;
  }
  .splitjoinBody {
    fill:#000;
  }</style>
  <g s:type="and" transform="translate(437,139.5)" s:width="30" s:height="25" id="cell_$and$top_module.v:20$3">
    <s:alias val="$and"/>
    <s:alias val="$logic_and"/>
    <s:alias val="$_AND_"/>
    <path d="M0,0 L0,25 L15,25 A15 12.5 0 0 0 15,0 Z" class="cell_$and$top_module.v:20$3"/>
    <g s:x="0" s:y="5" s:pid="A"/>
    <g s:x="0" s:y="20" s:pid="B"/>
    <g s:x="30" s:y="12.5" s:pid="Y"/>
  </g>
  <g s:type="and" transform="translate(682,195.5)" s:width="30" s:height="25" id="cell_$and$top_module.v:21$5">
    <s:alias val="$and"/>
    <s:alias val="$logic_and"/>
    <s:alias val="$_AND_"/>
    <path d="M0,0 L0,25 L15,25 A15 12.5 0 0 0 15,0 Z" class="cell_$and$top_module.v:21$5"/>
    <g s:x="0" s:y="5" s:pid="A"/>
    <g s:x="0" s:y="20" s:pid="B"/>
    <g s:x="30" s:y="12.5" s:pid="Y"/>
  </g>
  <g s:type="eq" transform="translate(197,84.5)" s:width="25" s:height="25" id="cell_$eq$top_module.v:19$1">
    <s:alias val="$eq"/>
    <circle r="12.5" cx="12.5" cy="12.5" class="cell_$eq$top_module.v:19$1"/>
    <line x1="7.5" x2="17.5" y1="10" y2="10" class="cell_$eq$top_module.v:19$1"/>
    <line x1="7.5" x2="17.5" y1="15" y2="15" class="cell_$eq$top_module.v:19$1"/>
    <g s:x="3" s:y="5" s:pid="A"/>
    <g s:x="3" s:y="20" s:pid="B"/>
    <g s:x="25" s:y="12.5" s:pid="Y"/>
  </g>
  <g s:type="eq" transform="translate(377,147)" s:width="25" s:height="25" id="cell_$eq$top_module.v:20$2">
    <s:alias val="$eq"/>
    <circle r="12.5" cx="12.5" cy="12.5" class="cell_$eq$top_module.v:20$2"/>
    <line x1="7.5" x2="17.5" y1="10" y2="10" class="cell_$eq$top_module.v:20$2"/>
    <line x1="7.5" x2="17.5" y1="15" y2="15" class="cell_$eq$top_module.v:20$2"/>
    <g s:x="3" s:y="5" s:pid="A"/>
    <g s:x="3" s:y="20" s:pid="B"/>
    <g s:x="25" s:y="12.5" s:pid="Y"/>
  </g>
  <g s:type="eq" transform="translate(622,203)" s:width="25" s:height="25" id="cell_$eq$top_module.v:21$4">
    <s:alias val="$eq"/>
    <circle r="12.5" cx="12.5" cy="12.5" class="cell_$eq$top_module.v:21$4"/>
    <line x1="7.5" x2="17.5" y1="10" y2="10" class="cell_$eq$top_module.v:21$4"/>
    <line x1="7.5" x2="17.5" y1="15" y2="15" class="cell_$eq$top_module.v:21$4"/>
    <g s:x="3" s:y="5" s:pid="A"/>
    <g s:x="3" s:y="20" s:pid="B"/>
    <g s:x="25" s:y="12.5" s:pid="Y"/>
  </g>
  <g s:type="generic" transform="translate(114,79)" s:width="30" s:height="40" id="cell_counter0">
    <text x="15" y="-4" class="nodelabel cell_counter0" s:attribute="ref">bcdcount</text>
    <rect width="30" height="60" s:generic="body" class="cell_counter0"/>
    <g transform="translate(0,10)" s:x="0" s:y="10" s:pid="in0" id="port_counter0~clk">
      <text x="-3" y="-4" class="inputPortLabel cell_counter0">clk</text>
    </g>
    <g transform="translate(0,30)" s:x="0" s:y="10" s:pid="in0" id="port_counter0~enable">
      <text x="-3" y="-4" class="inputPortLabel cell_counter0">enable</text>
    </g>
    <g transform="translate(0,50)" s:x="0" s:y="10" s:pid="in0" id="port_counter0~reset">
      <text x="-3" y="-4" class="inputPortLabel cell_counter0">reset</text>
    </g>
    <g transform="translate(30,10)" s:x="30" s:y="10" s:pid="out0" id="port_counter0~Q">
      <text x="5" y="-4" style="fill:#000; stroke:none" class="cell_counter0">Q</text>
    </g>
  </g>
  <g s:type="generic" transform="translate(294,141.5)" s:width="30" s:height="40" id="cell_counter1">
    <text x="15" y="-4" class="nodelabel cell_counter1" s:attribute="ref">bcdcount</text>
    <rect width="30" height="60" s:generic="body" class="cell_counter1"/>
    <g transform="translate(0,10)" s:x="0" s:y="10" s:pid="in0" id="port_counter1~clk">
      <text x="-3" y="-4" class="inputPortLabel cell_counter1">clk</text>
    </g>
    <g transform="translate(0,30)" s:x="0" s:y="10" s:pid="in0" id="port_counter1~enable">
      <text x="-3" y="-4" class="inputPortLabel cell_counter1">enable</text>
    </g>
    <g transform="translate(0,50)" s:x="0" s:y="10" s:pid="in0" id="port_counter1~reset">
      <text x="-3" y="-4" class="inputPortLabel cell_counter1">reset</text>
    </g>
    <g transform="translate(30,10)" s:x="30" s:y="10" s:pid="out0" id="port_counter1~Q">
      <text x="5" y="-4" style="fill:#000; stroke:none" class="cell_counter1">Q</text>
    </g>
  </g>
  <g s:type="generic" transform="translate(539,257.5)" s:width="30" s:height="40" id="cell_counter2">
    <text x="15" y="-4" class="nodelabel cell_counter2" s:attribute="ref">bcdcount</text>
    <rect width="30" height="60" s:generic="body" class="cell_counter2"/>
    <g transform="translate(0,10)" s:x="0" s:y="10" s:pid="in0" id="port_counter2~clk">
      <text x="-3" y="-4" class="inputPortLabel cell_counter2">clk</text>
    </g>
    <g transform="translate(0,30)" s:x="0" s:y="10" s:pid="in0" id="port_counter2~enable">
      <text x="-3" y="-4" class="inputPortLabel cell_counter2">enable</text>
    </g>
    <g transform="translate(0,50)" s:x="0" s:y="10" s:pid="in0" id="port_counter2~reset">
      <text x="-3" y="-4" class="inputPortLabel cell_counter2">reset</text>
    </g>
    <g transform="translate(30,10)" s:x="30" s:y="10" s:pid="out0" id="port_counter2~Q">
      <text x="5" y="-4" style="fill:#000; stroke:none" class="cell_counter2">Q</text>
    </g>
  </g>
  <g s:type="generic" transform="translate(784,320)" s:width="30" s:height="40" id="cell_counter3">
    <text x="15" y="-4" class="nodelabel cell_counter3" s:attribute="ref">bcdcount</text>
    <rect width="30" height="60" s:generic="body" class="cell_counter3"/>
    <g transform="translate(0,10)" s:x="0" s:y="10" s:pid="in0" id="port_counter3~clk">
      <text x="-3" y="-4" class="inputPortLabel cell_counter3">clk</text>
    </g>
    <g transform="translate(0,30)" s:x="0" s:y="10" s:pid="in0" id="port_counter3~enable">
      <text x="-3" y="-4" class="inputPortLabel cell_counter3">enable</text>
    </g>
    <g transform="translate(0,50)" s:x="0" s:y="10" s:pid="in0" id="port_counter3~reset">
      <text x="-3" y="-4" class="inputPortLabel cell_counter3">reset</text>
    </g>
    <g transform="translate(30,10)" s:x="30" s:y="10" s:pid="out0" id="port_counter3~Q">
      <text x="5" y="-4" style="fill:#000; stroke:none" class="cell_counter3">Q</text>
    </g>
  </g>
  <g s:type="inputExt" transform="translate(12,233)" s:width="30" s:height="20" id="cell_clk">
    <text x="15" y="-4" class="nodelabel cell_clk" s:attribute="ref">clk</text>
    <s:alias val="$_inputExt_"/>
    <path d="M0,0 L0,20 L15,20 L30,10 L15,0 Z" class="cell_clk"/>
    <g s:x="28" s:y="10" s:pid="Y"/>
  </g>
  <g s:type="inputExt" transform="translate(12,298)" s:width="30" s:height="20" id="cell_reset">
    <text x="15" y="-4" class="nodelabel cell_reset" s:attribute="ref">reset</text>
    <s:alias val="$_inputExt_"/>
    <path d="M0,0 L0,20 L15,20 L30,10 L15,0 Z" class="cell_reset"/>
    <g s:x="28" s:y="10" s:pid="Y"/>
  </g>
  <g s:type="outputExt" transform="translate(927,22.5)" s:width="30" s:height="20" id="cell_ena">
    <text x="15" y="-4" class="nodelabel cell_ena" s:attribute="ref">ena</text>
    <s:alias val="$_outputExt_"/>
    <path d="M30,0 L30,20 L15,20 L0,10 L15,0 Z" class="cell_ena"/>
    <g s:x="0" s:y="10" s:pid="A"/>
  </g>
  <g s:type="outputExt" transform="translate(927,228)" s:width="30" s:height="20" id="cell_q">
    <text x="15" y="-4" class="nodelabel cell_q" s:attribute="ref">q</text>
    <s:alias val="$_outputExt_"/>
    <path d="M30,0 L30,20 L15,20 L0,10 L15,0 Z" class="cell_q"/>
    <g s:x="0" s:y="10" s:pid="A"/>
  </g>
  <g s:type="constant" transform="translate(114,213)" s:width="30" s:height="20" id="cell_1001">
    <text x="15" y="-4" class="nodelabel cell_1001" s:attribute="ref">0x9</text>
    <s:alias val="$_constant_"/>
    <rect width="30" height="20" class="cell_1001"/>
    <g s:x="30" s:y="10" s:pid="Y"/>
  </g>
  <g s:type="constant" transform="translate(12,99.5)" s:width="30" s:height="20" id="cell_1">
    <text x="15" y="-4" class="nodelabel cell_1" s:attribute="ref">1</text>
    <s:alias val="$_constant_"/>
    <rect width="30" height="20" class="cell_1"/>
    <g s:x="30" s:y="10" s:pid="Y"/>
  </g>
  <g s:type="join" transform="translate(881.75,12)" s:width="4" s:height="40" id="cell_$join$,4,5,6,">
    <rect width="5" height="60" class="splitjoinBody" s:generic="body"/>
    <s:alias val="$_join_"/>
    <g s:x="5" s:y="20" s:pid="out"/>
    <g transform="translate(0,10)" s:x="0" s:y="10" s:pid="in0">
      <text x="-3" y="-4" class="inputPortLabel">0</text>
    </g>
    <g transform="translate(0,30)" s:x="0" s:y="10" s:pid="in0">
      <text x="-3" y="-4" class="inputPortLabel">1</text>
    </g>
    <g transform="translate(0,50)" s:x="0" s:y="10" s:pid="in0">
      <text x="-3" y="-4" class="inputPortLabel">2</text>
    </g>
  </g>
  <g s:type="join" transform="translate(886,217.5)" s:width="4" s:height="40" id="cell_$join$,7,8,9,10,11,12,13,14,15,16,17,18,19,20,21,22,">
    <rect width="5" height="80" class="splitjoinBody" s:generic="body"/>
    <s:alias val="$_join_"/>
    <g s:x="5" s:y="20" s:pid="out"/>
    <g transform="translate(0,10)" s:x="0" s:y="10" s:pid="in0">
      <text x="-3" y="-4" class="inputPortLabel">0:3</text>
    </g>
    <g transform="translate(0,30)" s:x="0" s:y="10" s:pid="in0">
      <text x="-3" y="-4" class="inputPortLabel">4:7</text>
    </g>
    <g transform="translate(0,50)" s:x="0" s:y="10" s:pid="in0">
      <text x="-3" y="-4" class="inputPortLabel">8:11</text>
    </g>
    <g transform="translate(0,70)" s:x="0" s:y="10" s:pid="in0">
      <text x="-3" y="-4" class="inputPortLabel">12:15</text>
    </g>
  </g>
  <line x1="222" x2="412" y1="97" y2="97" class="net_4"/>
  <line x1="412" x2="412" y1="97" y2="144.5" class="net_4"/>
  <line x1="412" x2="437" y1="144.5" y2="144.5" class="net_4"/>
  <line x1="222" x2="232" y1="97" y2="97" class="net_4"/>
  <line x1="232" x2="232" y1="97" y2="172" class="net_4"/>
  <circle cx="232" cy="97" r="2" style="fill:#000" class="net_4"/>
  <line x1="232" x2="294" y1="172" y2="172" class="net_4"/>
  <line x1="222" x2="232" y1="97" y2="97" class="net_4"/>
  <line x1="232" x2="232" y1="97" y2="22.5" class="net_4"/>
  <line x1="232" x2="881.75" y1="22.5" y2="22.5" class="net_4"/>
  <line x1="402" x2="437" y1="159.5" y2="159.5" class="net_23"/>
  <line x1="467" x2="657" y1="152" y2="152" class="net_5"/>
  <line x1="657" x2="657" y1="152" y2="200.5" class="net_5"/>
  <line x1="657" x2="682" y1="200.5" y2="200.5" class="net_5"/>
  <line x1="467" x2="487" y1="152" y2="152" class="net_5"/>
  <line x1="487" x2="487" y1="152" y2="288" class="net_5"/>
  <circle cx="487" cy="152" r="2" style="fill:#000" class="net_5"/>
  <line x1="487" x2="539" y1="288" y2="288" class="net_5"/>
  <line x1="467" x2="487" y1="152" y2="152" class="net_5"/>
  <line x1="487" x2="487" y1="152" y2="42.5" class="net_5"/>
  <line x1="487" x2="881.75" y1="42.5" y2="42.5" class="net_5"/>
  <line x1="647" x2="682" y1="215.5" y2="215.5" class="net_24"/>
  <line x1="145" x2="200" y1="89.5" y2="89.5" class="net_7,8,9,10"/>
  <line x1="145" x2="172" y1="89.5" y2="89.5" class="net_7,8,9,10"/>
  <line x1="172" x2="172" y1="89.5" y2="73.5" class="net_7,8,9,10"/>
  <line x1="172" x2="852" y1="73.5" y2="73.5" class="net_7,8,9,10"/>
  <line x1="852" x2="852" y1="73.5" y2="228" class="net_7,8,9,10"/>
  <circle cx="172" cy="89.5" r="2" style="fill:#000" class="net_7,8,9,10"/>
  <line x1="852" x2="886" y1="228" y2="228" class="net_7,8,9,10"/>
  <line x1="144" x2="172" y1="223" y2="223" class="net_25,26,27,28"/>
  <line x1="172" x2="172" y1="223" y2="104.5" class="net_25,26,27,28"/>
  <circle cx="172" cy="223" r="2" style="fill:#000" class="net_25,26,27,28"/>
  <line x1="172" x2="200" y1="104.5" y2="104.5" class="net_25,26,27,28"/>
  <line x1="144" x2="352" y1="223" y2="223" class="net_25,26,27,28"/>
  <line x1="352" x2="352" y1="223" y2="167" class="net_25,26,27,28"/>
  <circle cx="352" cy="223" r="2" style="fill:#000" class="net_25,26,27,28"/>
  <line x1="352" x2="380" y1="167" y2="167" class="net_25,26,27,28"/>
  <line x1="144" x2="625" y1="223" y2="223" class="net_25,26,27,28"/>
  <line x1="325" x2="380" y1="152" y2="152" class="net_11,12,13,14"/>
  <line x1="325" x2="352" y1="152" y2="152" class="net_11,12,13,14"/>
  <line x1="352" x2="352" y1="152" y2="86" class="net_11,12,13,14"/>
  <line x1="352" x2="842" y1="86" y2="86" class="net_11,12,13,14"/>
  <line x1="842" x2="842" y1="86" y2="248" class="net_11,12,13,14"/>
  <circle cx="352" cy="152" r="2" style="fill:#000" class="net_11,12,13,14"/>
  <line x1="842" x2="886" y1="248" y2="248" class="net_11,12,13,14"/>
  <line x1="570" x2="597" y1="268" y2="268" class="net_15,16,17,18"/>
  <line x1="597" x2="597" y1="268" y2="208" class="net_15,16,17,18"/>
  <circle cx="597" cy="268" r="2" style="fill:#000" class="net_15,16,17,18"/>
  <line x1="597" x2="625" y1="208" y2="208" class="net_15,16,17,18"/>
  <line x1="570" x2="886" y1="268" y2="268" class="net_15,16,17,18"/>
  <line x1="40" x2="62" y1="243" y2="243" class="net_2"/>
  <line x1="62" x2="62" y1="243" y2="89.5" class="net_2"/>
  <circle cx="62" cy="243" r="2" style="fill:#000" class="net_2"/>
  <line x1="62" x2="114" y1="89.5" y2="89.5" class="net_2"/>
  <line x1="40" x2="62" y1="243" y2="243" class="net_2"/>
  <line x1="62" x2="62" y1="243" y2="152" class="net_2"/>
  <circle cx="62" cy="152" r="2" style="fill:#000" class="net_2"/>
  <line x1="62" x2="294" y1="152" y2="152" class="net_2"/>
  <line x1="40" x2="477" y1="243" y2="243" class="net_2"/>
  <line x1="477" x2="477" y1="243" y2="268" class="net_2"/>
  <line x1="477" x2="539" y1="268" y2="268" class="net_2"/>
  <line x1="40" x2="62" y1="243" y2="243" class="net_2"/>
  <line x1="62" x2="62" y1="243" y2="330.5" class="net_2"/>
  <line x1="62" x2="784" y1="330.5" y2="330.5" class="net_2"/>
  <line x1="42" x2="114" y1="109.5" y2="109.5" class="net_37"/>
  <line x1="40" x2="52" y1="308" y2="308" class="net_3"/>
  <line x1="52" x2="52" y1="308" y2="129.5" class="net_3"/>
  <circle cx="52" cy="308" r="2" style="fill:#000" class="net_3"/>
  <line x1="52" x2="114" y1="129.5" y2="129.5" class="net_3"/>
  <line x1="40" x2="52" y1="308" y2="308" class="net_3"/>
  <line x1="52" x2="52" y1="308" y2="192" class="net_3"/>
  <circle cx="52" cy="192" r="2" style="fill:#000" class="net_3"/>
  <line x1="52" x2="294" y1="192" y2="192" class="net_3"/>
  <line x1="40" x2="539" y1="308" y2="308" class="net_3"/>
  <line x1="40" x2="52" y1="308" y2="308" class="net_3"/>
  <line x1="52" x2="52" y1="308" y2="370.5" class="net_3"/>
  <line x1="52" x2="784" y1="370.5" y2="370.5" class="net_3"/>
  <line x1="712" x2="722" y1="208" y2="208" class="net_6"/>
  <line x1="722" x2="722" y1="208" y2="350.5" class="net_6"/>
  <circle cx="722" cy="208" r="2" style="fill:#000" class="net_6"/>
  <line x1="722" x2="784" y1="350.5" y2="350.5" class="net_6"/>
  <line x1="712" x2="722" y1="208" y2="208" class="net_6"/>
  <line x1="722" x2="722" y1="208" y2="62.5" class="net_6"/>
  <line x1="722" x2="881.75" y1="62.5" y2="62.5" class="net_6"/>
  <line x1="887.75" x2="927" y1="32.5" y2="32.5" class="net_4,5,6"/>
  <line x1="892" x2="927" y1="238" y2="238" class="net_7,8,9,10,11,12,13,14,15,16,17,18,19,20,21,22"/>
  <line x1="815" x2="886.5" y1="330.5" y2="330.5" class="net_19,20,21,22"/>
  <line x1="886.5" x2="886.5" y1="330.5" y2="288.5" class="net_19,20,21,22"/>
</svg>
