<?xml version="1.0" encoding="UTF-8" standalone="no"?>
<!DOCTYPE svg PUBLIC "-//W3C//DTD SVG 1.1//EN"
 "http://www.w3.org/Graphics/SVG/1.1/DTD/svg11.dtd">
<!-- Generated by graphviz version 4.0.0 (20220529.0937)
 -->
<!-- Title: top_module Pages: 1 -->
<svg width="1261pt" height="131pt"
 viewBox="0.00 0.00 1260.94 131.00" xmlns="http://www.w3.org/2000/svg" xmlns:xlink="http://www.w3.org/1999/xlink">
<g id="graph0" class="graph" transform="scale(1 1) rotate(0) translate(4 127)">
<title>top_module</title>
<polygon fill="white" stroke="transparent" points="-4,4 -4,-127 1256.94,-127 1256.94,4 -4,4"/>
<text text-anchor="middle" x="626.47" y="-7.8" font-family="Times New Roman,serif" font-size="14.00">top_module</text>
<!-- n2 -->
<g id="node1" class="node">
<title>n2</title>
<polygon fill="none" stroke="black" points="1253.05,-91.54 1253.05,-106.46 1227.44,-117 1191.21,-117 1165.59,-106.46 1165.59,-91.54 1191.21,-81 1227.44,-81 1253.05,-91.54"/>
<text text-anchor="middle" x="1209.32" y="-95.3" font-family="Times New Roman,serif" font-size="14.00">anyedge</text>
</g>
<!-- n3 -->
<g id="node2" class="node">
<title>n3</title>
<polygon fill="none" stroke="black" points="923.69,-117 855.65,-99 923.69,-81 991.72,-99 923.69,-117"/>
<text text-anchor="middle" x="923.69" y="-95.3" font-family="Times New Roman,serif" font-size="14.00">anyedge_r</text>
</g>
<!-- x0 -->
<g id="node9" class="node">
<title>x0</title>
<path fill="none" stroke="black" d="M1093.71,-117C1093.71,-117 1063.71,-117 1063.71,-117 1057.71,-117 1051.71,-111 1051.71,-105 1051.71,-105 1051.71,-93 1051.71,-93 1051.71,-87 1057.71,-81 1063.71,-81 1063.71,-81 1093.71,-81 1093.71,-81 1099.71,-81 1105.71,-87 1105.71,-93 1105.71,-93 1105.71,-105 1105.71,-105 1105.71,-111 1099.71,-117 1093.71,-117"/>
<text text-anchor="middle" x="1078.71" y="-95.3" font-family="Times New Roman,serif" font-size="14.00">BUF</text>
</g>
<!-- n3&#45;&gt;x0 -->
<g id="edge4" class="edge">
<title>n3:e&#45;&gt;x0:w</title>
<path fill="none" stroke="#1b9e77" stroke-width="3" d="M991.71,-99C1014.62,-99 1022.77,-99 1041.53,-99"/>
<polygon fill="#1b9e77" stroke="#1b9e77" stroke-width="3" points="1041.71,-102.5 1051.71,-99 1041.71,-95.5 1041.71,-102.5"/>
<text text-anchor="middle" x="1021.71" y="-102.8" font-family="Times New Roman,serif" font-size="14.00" fill="#1b9e77">&lt;8&gt;</text>
</g>
<!-- n4 -->
<g id="node3" class="node">
<title>n4</title>
<polygon fill="none" stroke="black" points="54,-92.54 54,-107.46 38.18,-118 15.82,-118 0,-107.46 0,-92.54 15.82,-82 38.18,-82 54,-92.54"/>
<text text-anchor="middle" x="27" y="-96.3" font-family="Times New Roman,serif" font-size="14.00">clk</text>
</g>
<!-- c10 -->
<g id="node6" class="node">
<title>c10</title>
<polygon fill="none" stroke="black" points="114,-48 114,-94 225,-94 225,-48 114,-48"/>
<text text-anchor="middle" x="136" y="-78.8" font-family="Times New Roman,serif" font-size="14.00">CLK</text>
<polyline fill="none" stroke="black" points="114,-71 158,-71 "/>
<text text-anchor="middle" x="136" y="-55.8" font-family="Times New Roman,serif" font-size="14.00">D</text>
<polyline fill="none" stroke="black" points="158,-48 158,-94 "/>
<text text-anchor="middle" x="178" y="-74.8" font-family="Times New Roman,serif" font-size="14.00">$5</text>
<text text-anchor="middle" x="178" y="-59.8" font-family="Times New Roman,serif" font-size="14.00">$dff</text>
<polyline fill="none" stroke="black" points="198,-48 198,-94 "/>
<text text-anchor="middle" x="211.5" y="-67.3" font-family="Times New Roman,serif" font-size="14.00">Q</text>
</g>
<!-- n4&#45;&gt;c10 -->
<g id="edge5" class="edge">
<title>n4:e&#45;&gt;c10:w</title>
<path fill="none" stroke="#7570b3" d="M54,-100C77.93,-100 84.6,-87.33 103.81,-83.87"/>
<polygon fill="#7570b3" stroke="#7570b3" points="104.33,-87.33 114,-83 103.74,-80.36 104.33,-87.33"/>
</g>
<!-- c11 -->
<g id="node7" class="node">
<title>c11</title>
<polygon fill="none" stroke="black" points="684.67,-76 684.67,-122 795.67,-122 795.67,-76 684.67,-76"/>
<text text-anchor="middle" x="706.67" y="-106.8" font-family="Times New Roman,serif" font-size="14.00">CLK</text>
<polyline fill="none" stroke="black" points="684.67,-99 728.67,-99 "/>
<text text-anchor="middle" x="706.67" y="-83.8" font-family="Times New Roman,serif" font-size="14.00">D</text>
<polyline fill="none" stroke="black" points="728.67,-76 728.67,-122 "/>
<text text-anchor="middle" x="748.67" y="-102.8" font-family="Times New Roman,serif" font-size="14.00">$6</text>
<text text-anchor="middle" x="748.67" y="-87.8" font-family="Times New Roman,serif" font-size="14.00">$dff</text>
<polyline fill="none" stroke="black" points="768.67,-76 768.67,-122 "/>
<text text-anchor="middle" x="782.17" y="-95.3" font-family="Times New Roman,serif" font-size="14.00">Q</text>
</g>
<!-- n4&#45;&gt;c11 -->
<g id="edge6" class="edge">
<title>n4:e&#45;&gt;c11:w</title>
<path fill="none" stroke="#7570b3" d="M54,-100C62.3,-100 63.91,-103.13 72,-105 114.5,-114.85 124.87,-123 168.5,-123 168.5,-123 168.5,-123 578.67,-123 622.38,-123 635.29,-112.8 674.19,-111.21"/>
<polygon fill="#7570b3" stroke="#7570b3" points="674.74,-114.7 684.67,-111 674.6,-107.7 674.74,-114.7"/>
</g>
<!-- n5 -->
<g id="node4" class="node">
<title>n5</title>
<polygon fill="none" stroke="black" points="54,-33.54 54,-48.46 38.18,-59 15.82,-59 0,-48.46 0,-33.54 15.82,-23 38.18,-23 54,-33.54"/>
<text text-anchor="middle" x="27" y="-37.3" font-family="Times New Roman,serif" font-size="14.00">in</text>
</g>
<!-- n5&#45;&gt;c10 -->
<g id="edge7" class="edge">
<title>n5:e&#45;&gt;c10:w</title>
<path fill="none" stroke="#e7298a" stroke-width="3" d="M54,-41C78.03,-41 84.54,-54.41 103.78,-58.08"/>
<polygon fill="#e7298a" stroke="#e7298a" stroke-width="3" points="103.73,-61.59 114,-59 104.35,-54.62 103.73,-61.59"/>
<text text-anchor="middle" x="84" y="-58.8" font-family="Times New Roman,serif" font-size="14.00" fill="#e7298a">&lt;8&gt;</text>
</g>
<!-- c15 -->
<g id="node8" class="node">
<title>c15</title>
<polygon fill="none" stroke="black" points="530.67,-36 530.67,-82 624.67,-82 624.67,-36 530.67,-36"/>
<text text-anchor="middle" x="543.67" y="-66.8" font-family="Times New Roman,serif" font-size="14.00">A</text>
<polyline fill="none" stroke="black" points="530.67,-59 556.67,-59 "/>
<text text-anchor="middle" x="543.67" y="-43.8" font-family="Times New Roman,serif" font-size="14.00">B</text>
<polyline fill="none" stroke="black" points="556.67,-36 556.67,-82 "/>
<text text-anchor="middle" x="577.67" y="-62.8" font-family="Times New Roman,serif" font-size="14.00">$2</text>
<text text-anchor="middle" x="577.67" y="-47.8" font-family="Times New Roman,serif" font-size="14.00">$xor</text>
<polyline fill="none" stroke="black" points="598.67,-36 598.67,-82 "/>
<text text-anchor="middle" x="611.67" y="-55.3" font-family="Times New Roman,serif" font-size="14.00">Y</text>
</g>
<!-- n5&#45;&gt;c15 -->
<g id="edge8" class="edge">
<title>n5:e&#45;&gt;c15:w</title>
<path fill="none" stroke="#e7298a" stroke-width="3" d="M54,-41C62.01,-41 63.99,-40.32 72,-40 90.66,-39.26 95.33,-39.22 114,-39 272.52,-37.11 312.23,-38.43 470.67,-44 493.6,-44.81 501.71,-46.44 520.49,-46.89"/>
<polygon fill="#e7298a" stroke="#e7298a" stroke-width="3" points="520.63,-50.39 530.67,-47 520.71,-43.39 520.63,-50.39"/>
<text text-anchor="middle" x="255" y="-41.8" font-family="Times New Roman,serif" font-size="14.00" fill="#e7298a">&lt;8&gt;</text>
</g>
<!-- n6 -->
<g id="node5" class="node">
<title>n6</title>
<polygon fill="none" stroke="black" points="377.83,-89 285.16,-71 377.83,-53 470.5,-71 377.83,-89"/>
<text text-anchor="middle" x="377.83" y="-67.3" font-family="Times New Roman,serif" font-size="14.00">previous_pin_r</text>
</g>
<!-- n6&#45;&gt;c15 -->
<g id="edge10" class="edge">
<title>n6:e&#45;&gt;c15:w</title>
<path fill="none" stroke="#e7298a" stroke-width="3" d="M470.67,-71C493.59,-71 501.73,-71 520.5,-71"/>
<polygon fill="#e7298a" stroke="#e7298a" stroke-width="3" points="520.67,-74.5 530.67,-71 520.67,-67.5 520.67,-74.5"/>
<text text-anchor="middle" x="500.67" y="-74.8" font-family="Times New Roman,serif" font-size="14.00" fill="#e7298a">&lt;8&gt;</text>
</g>
<!-- c10&#45;&gt;n6 -->
<g id="edge9" class="edge">
<title>c10:e&#45;&gt;n6:w</title>
<path fill="none" stroke="#e7298a" stroke-width="3" d="M225,-71C247.92,-71 256.06,-71 274.83,-71"/>
<polygon fill="#e7298a" stroke="#e7298a" stroke-width="3" points="275,-74.5 285,-71 275,-67.5 275,-74.5"/>
<text text-anchor="middle" x="255" y="-74.8" font-family="Times New Roman,serif" font-size="14.00" fill="#e7298a">&lt;8&gt;</text>
</g>
<!-- c11&#45;&gt;n3 -->
<g id="edge3" class="edge">
<title>c11:e&#45;&gt;n3:w</title>
<path fill="none" stroke="#1b9e77" stroke-width="3" d="M795.67,-99C818.59,-99 826.73,-99 845.5,-99"/>
<polygon fill="#1b9e77" stroke="#1b9e77" stroke-width="3" points="845.67,-102.5 855.67,-99 845.67,-95.5 845.67,-102.5"/>
<text text-anchor="middle" x="825.67" y="-102.8" font-family="Times New Roman,serif" font-size="14.00" fill="#1b9e77">&lt;8&gt;</text>
</g>
<!-- c15&#45;&gt;c11 -->
<g id="edge1" class="edge">
<title>c15:e&#45;&gt;c11:w</title>
<path fill="none" stroke="#66a61e" stroke-width="3" d="M624.67,-59C650.3,-59 654.48,-80.25 674.58,-85.72"/>
<polygon fill="#66a61e" stroke="#66a61e" stroke-width="3" points="674.31,-89.22 684.67,-87 675.19,-82.27 674.31,-89.22"/>
<text text-anchor="middle" x="654.67" y="-85.8" font-family="Times New Roman,serif" font-size="14.00" fill="#66a61e">&lt;8&gt;</text>
</g>
<!-- x0&#45;&gt;n2 -->
<g id="edge2" class="edge">
<title>x0:e&#45;&gt;n2:w</title>
<path fill="none" stroke="#1b9e77" stroke-width="3" d="M1105.71,-99C1128.62,-99 1136.77,-99 1155.53,-99"/>
<polygon fill="#1b9e77" stroke="#1b9e77" stroke-width="3" points="1155.71,-102.5 1165.71,-99 1155.71,-95.5 1155.71,-102.5"/>
<text text-anchor="middle" x="1135.71" y="-102.8" font-family="Times New Roman,serif" font-size="14.00" fill="#1b9e77">&lt;8&gt;</text>
</g>
</g>
</svg>
