<svg xmlns="http://www.w3.org/2000/svg" xmlns:xlink="http://www.w3.org/1999/xlink" xmlns:s="https://github.com/nturley/netlistsvg" width="1256" height="992">
  <style>svg {
    stroke:#000;
    fill:none;
  }
  text {
    fill:#000;
    stroke:none;
    font-size:10px;
    font-weight: bold;
    font-family: "Courier New", monospace;
  }
  .nodelabel {
    text-anchor: middle;
  }
  .inputPortLabel {
    text-anchor: end;
  }
  .splitjoinBody {
    fill:#000;
  }</style>
  <g s:type="generic" transform="translate(469,199)" s:width="30" s:height="40" id="cell_$auto$opt_reduce.cc:128:opt_mux$31">
    <text x="15" y="-4" class="nodelabel cell_$auto$opt_reduce.cc:128:opt_mux$31" s:attribute="ref">$reduce_or</text>
    <rect width="30" height="20" s:generic="body" class="cell_$auto$opt_reduce.cc:128:opt_mux$31"/>
    <g transform="translate(0,10)" s:x="0" s:y="10" s:pid="in0" id="port_$auto$opt_reduce.cc:128:opt_mux$31~A">
      <text x="-3" y="-4" class="inputPortLabel cell_$auto$opt_reduce.cc:128:opt_mux$31">A</text>
    </g>
    <g transform="translate(30,10)" s:x="30" s:y="10" s:pid="out0" id="port_$auto$opt_reduce.cc:128:opt_mux$31~Y">
      <text x="5" y="-4" style="fill:#000; stroke:none" class="cell_$auto$opt_reduce.cc:128:opt_mux$31">Y</text>
    </g>
  </g>
  <g s:type="generic" transform="translate(469,537)" s:width="30" s:height="40" id="cell_$auto$opt_reduce.cc:128:opt_mux$33">
    <text x="15" y="-4" class="nodelabel cell_$auto$opt_reduce.cc:128:opt_mux$33" s:attribute="ref">$reduce_or</text>
    <rect width="30" height="20" s:generic="body" class="cell_$auto$opt_reduce.cc:128:opt_mux$33"/>
    <g transform="translate(0,10)" s:x="0" s:y="10" s:pid="in0" id="port_$auto$opt_reduce.cc:128:opt_mux$33~A">
      <text x="-3" y="-4" class="inputPortLabel cell_$auto$opt_reduce.cc:128:opt_mux$33">A</text>
    </g>
    <g transform="translate(30,10)" s:x="30" s:y="10" s:pid="out0" id="port_$auto$opt_reduce.cc:128:opt_mux$33~Y">
      <text x="5" y="-4" style="fill:#000; stroke:none" class="cell_$auto$opt_reduce.cc:128:opt_mux$33">Y</text>
    </g>
  </g>
  <g s:type="generic" transform="translate(469,678)" s:width="30" s:height="40" id="cell_$auto$opt_reduce.cc:128:opt_mux$35">
    <text x="15" y="-4" class="nodelabel cell_$auto$opt_reduce.cc:128:opt_mux$35" s:attribute="ref">$reduce_or</text>
    <rect width="30" height="20" s:generic="body" class="cell_$auto$opt_reduce.cc:128:opt_mux$35"/>
    <g transform="translate(0,10)" s:x="0" s:y="10" s:pid="in0" id="port_$auto$opt_reduce.cc:128:opt_mux$35~A">
      <text x="-3" y="-4" class="inputPortLabel cell_$auto$opt_reduce.cc:128:opt_mux$35">A</text>
    </g>
    <g transform="translate(30,10)" s:x="30" s:y="10" s:pid="out0" id="port_$auto$opt_reduce.cc:128:opt_mux$35~Y">
      <text x="5" y="-4" style="fill:#000; stroke:none" class="cell_$auto$opt_reduce.cc:128:opt_mux$35">Y</text>
    </g>
  </g>
  <g s:type="generic" transform="translate(469,886)" s:width="30" s:height="40" id="cell_$auto$opt_reduce.cc:128:opt_mux$37">
    <text x="15" y="-4" class="nodelabel cell_$auto$opt_reduce.cc:128:opt_mux$37" s:attribute="ref">$reduce_or</text>
    <rect width="30" height="20" s:generic="body" class="cell_$auto$opt_reduce.cc:128:opt_mux$37"/>
    <g transform="translate(0,10)" s:x="0" s:y="10" s:pid="in0" id="port_$auto$opt_reduce.cc:128:opt_mux$37~A">
      <text x="-3" y="-4" class="inputPortLabel cell_$auto$opt_reduce.cc:128:opt_mux$37">A</text>
    </g>
    <g transform="translate(30,10)" s:x="30" s:y="10" s:pid="out0" id="port_$auto$opt_reduce.cc:128:opt_mux$37~Y">
      <text x="5" y="-4" style="fill:#000; stroke:none" class="cell_$auto$opt_reduce.cc:128:opt_mux$37">Y</text>
    </g>
  </g>
  <g s:type="dff" transform="translate(964,167)" s:width="30" s:height="40" id="cell_$procdff$30">
    <s:alias val="$dff"/>
    <s:alias val="$_DFF_"/>
    <s:alias val="$_DFF_P_"/>
    <rect width="30" height="40" x="0" y="0" class="cell_$procdff$30"/>
    <path d="M0,35 L5,30 L0,25" class="cell_$procdff$30"/>
    <g s:x="30" s:y="10" s:pid="Q"/>
    <g s:x="0" s:y="30" s:pid="CLK"/>
    <g s:x="0" s:y="30" s:pid="C"/>
    <g s:x="0" s:y="10" s:pid="D"/>
  </g>
  <g s:type="eq" transform="translate(1030.6666666666665,105)" s:width="25" s:height="25" id="cell_$procmux$10_CMP0">
    <s:alias val="$eq"/>
    <circle r="12.5" cx="12.5" cy="12.5" class="cell_$procmux$10_CMP0"/>
    <line x1="7.5" x2="17.5" y1="10" y2="10" class="cell_$procmux$10_CMP0"/>
    <line x1="7.5" x2="17.5" y1="15" y2="15" class="cell_$procmux$10_CMP0"/>
    <g s:x="3" s:y="5" s:pid="A"/>
    <g s:x="3" s:y="20" s:pid="B"/>
    <g s:x="25" s:y="12.5" s:pid="Y"/>
  </g>
  <g s:type="eq" transform="translate(1030.6666666666665,172)" s:width="25" s:height="25" id="cell_$procmux$11_CMP0">
    <s:alias val="$eq"/>
    <circle r="12.5" cx="12.5" cy="12.5" class="cell_$procmux$11_CMP0"/>
    <line x1="7.5" x2="17.5" y1="10" y2="10" class="cell_$procmux$11_CMP0"/>
    <line x1="7.5" x2="17.5" y1="15" y2="15" class="cell_$procmux$11_CMP0"/>
    <g s:x="3" s:y="5" s:pid="A"/>
    <g s:x="3" s:y="20" s:pid="B"/>
    <g s:x="25" s:y="12.5" s:pid="Y"/>
  </g>
  <g s:type="not" transform="translate(1029,232)" s:width="30" s:height="20" id="cell_$procmux$12_CMP0">
    <s:alias val="$_NOT_"/>
    <s:alias val="$not"/>
    <s:alias val="$logic_not"/>
    <path d="M0,0 L0,20 L20,10 Z" class="cell_$procmux$12_CMP0"/>
    <circle cx="23" cy="10" r="3" class="cell_$procmux$12_CMP0"/>
    <g s:x="0" s:y="10" s:pid="A"/>
    <g s:x="25" s:y="10" s:pid="Y"/>
  </g>
  <g s:type="mux" transform="translate(846.6666666666666,277)" s:width="20" s:height="40" id="cell_$procmux$13">
    <s:alias val="$pmux"/>
    <s:alias val="$mux"/>
    <s:alias val="$_MUX_"/>
    <path d="M0,0 L20,10 L20,30 L0,40 Z" class="cell_$procmux$13"/>
    <g s:x="0" s:y="10" s:pid="A"/>
    <g s:x="0" s:y="30" s:pid="B"/>
    <g s:x="10" s:y="35" s:pid="S"/>
    <g s:x="20" s:y="20" s:pid="Y"/>
  </g>
  <g s:type="mux" transform="translate(909,157)" s:width="20" s:height="40" id="cell_$procmux$16">
    <s:alias val="$pmux"/>
    <s:alias val="$mux"/>
    <s:alias val="$_MUX_"/>
    <path d="M0,0 L20,10 L20,30 L0,40 Z" class="cell_$procmux$16"/>
    <g s:x="0" s:y="10" s:pid="A"/>
    <g s:x="0" s:y="30" s:pid="B"/>
    <g s:x="10" s:y="35" s:pid="S"/>
    <g s:x="20" s:y="20" s:pid="Y"/>
  </g>
  <g s:type="mux" transform="translate(776.3333333333334,287)" s:width="20" s:height="40" id="cell_$procmux$19">
    <s:alias val="$pmux"/>
    <s:alias val="$mux"/>
    <s:alias val="$_MUX_"/>
    <path d="M0,0 L20,10 L20,30 L0,40 Z" class="cell_$procmux$19"/>
    <g s:x="0" s:y="10" s:pid="A"/>
    <g s:x="0" s:y="30" s:pid="B"/>
    <g s:x="10" s:y="35" s:pid="S"/>
    <g s:x="20" s:y="20" s:pid="Y"/>
  </g>
  <g s:type="eq" transform="translate(350.6666666666667,147)" s:width="25" s:height="25" id="cell_$procmux$20_CMP0">
    <s:alias val="$eq"/>
    <circle r="12.5" cx="12.5" cy="12.5" class="cell_$procmux$20_CMP0"/>
    <line x1="7.5" x2="17.5" y1="10" y2="10" class="cell_$procmux$20_CMP0"/>
    <line x1="7.5" x2="17.5" y1="15" y2="15" class="cell_$procmux$20_CMP0"/>
    <g s:x="3" s:y="5" s:pid="A"/>
    <g s:x="3" s:y="20" s:pid="B"/>
    <g s:x="25" s:y="12.5" s:pid="Y"/>
  </g>
  <g s:type="eq" transform="translate(350.6666666666667,525)" s:width="25" s:height="25" id="cell_$procmux$21_CMP0">
    <s:alias val="$eq"/>
    <circle r="12.5" cx="12.5" cy="12.5" class="cell_$procmux$21_CMP0"/>
    <line x1="7.5" x2="17.5" y1="10" y2="10" class="cell_$procmux$21_CMP0"/>
    <line x1="7.5" x2="17.5" y1="15" y2="15" class="cell_$procmux$21_CMP0"/>
    <g s:x="3" s:y="5" s:pid="A"/>
    <g s:x="3" s:y="20" s:pid="B"/>
    <g s:x="25" s:y="12.5" s:pid="Y"/>
  </g>
  <g s:type="eq" transform="translate(350.6666666666667,207)" s:width="25" s:height="25" id="cell_$procmux$22_CMP0">
    <s:alias val="$eq"/>
    <circle r="12.5" cx="12.5" cy="12.5" class="cell_$procmux$22_CMP0"/>
    <line x1="7.5" x2="17.5" y1="10" y2="10" class="cell_$procmux$22_CMP0"/>
    <line x1="7.5" x2="17.5" y1="15" y2="15" class="cell_$procmux$22_CMP0"/>
    <g s:x="3" s:y="5" s:pid="A"/>
    <g s:x="3" s:y="20" s:pid="B"/>
    <g s:x="25" s:y="12.5" s:pid="Y"/>
  </g>
  <g s:type="eq" transform="translate(350.6666666666667,666)" s:width="25" s:height="25" id="cell_$procmux$23_CMP0">
    <s:alias val="$eq"/>
    <circle r="12.5" cx="12.5" cy="12.5" class="cell_$procmux$23_CMP0"/>
    <line x1="7.5" x2="17.5" y1="10" y2="10" class="cell_$procmux$23_CMP0"/>
    <line x1="7.5" x2="17.5" y1="15" y2="15" class="cell_$procmux$23_CMP0"/>
    <g s:x="3" s:y="5" s:pid="A"/>
    <g s:x="3" s:y="20" s:pid="B"/>
    <g s:x="25" s:y="12.5" s:pid="Y"/>
  </g>
  <g s:type="eq" transform="translate(350.6666666666667,410)" s:width="25" s:height="25" id="cell_$procmux$24_CMP0">
    <s:alias val="$eq"/>
    <circle r="12.5" cx="12.5" cy="12.5" class="cell_$procmux$24_CMP0"/>
    <line x1="7.5" x2="17.5" y1="10" y2="10" class="cell_$procmux$24_CMP0"/>
    <line x1="7.5" x2="17.5" y1="15" y2="15" class="cell_$procmux$24_CMP0"/>
    <g s:x="3" s:y="5" s:pid="A"/>
    <g s:x="3" s:y="20" s:pid="B"/>
    <g s:x="25" s:y="12.5" s:pid="Y"/>
  </g>
  <g s:type="eq" transform="translate(350.6666666666667,874)" s:width="25" s:height="25" id="cell_$procmux$25_CMP0">
    <s:alias val="$eq"/>
    <circle r="12.5" cx="12.5" cy="12.5" class="cell_$procmux$25_CMP0"/>
    <line x1="7.5" x2="17.5" y1="10" y2="10" class="cell_$procmux$25_CMP0"/>
    <line x1="7.5" x2="17.5" y1="15" y2="15" class="cell_$procmux$25_CMP0"/>
    <g s:x="3" s:y="5" s:pid="A"/>
    <g s:x="3" s:y="20" s:pid="B"/>
    <g s:x="25" s:y="12.5" s:pid="Y"/>
  </g>
  <g s:type="eq" transform="translate(350.6666666666667,585)" s:width="25" s:height="25" id="cell_$procmux$26_CMP0">
    <s:alias val="$eq"/>
    <circle r="12.5" cx="12.5" cy="12.5" class="cell_$procmux$26_CMP0"/>
    <line x1="7.5" x2="17.5" y1="10" y2="10" class="cell_$procmux$26_CMP0"/>
    <line x1="7.5" x2="17.5" y1="15" y2="15" class="cell_$procmux$26_CMP0"/>
    <g s:x="3" s:y="5" s:pid="A"/>
    <g s:x="3" s:y="20" s:pid="B"/>
    <g s:x="25" s:y="12.5" s:pid="Y"/>
  </g>
  <g s:type="eq" transform="translate(350.6666666666667,801.5)" s:width="25" s:height="25" id="cell_$procmux$27_CMP0">
    <s:alias val="$eq"/>
    <circle r="12.5" cx="12.5" cy="12.5" class="cell_$procmux$27_CMP0"/>
    <line x1="7.5" x2="17.5" y1="10" y2="10" class="cell_$procmux$27_CMP0"/>
    <line x1="7.5" x2="17.5" y1="15" y2="15" class="cell_$procmux$27_CMP0"/>
    <g s:x="3" s:y="5" s:pid="A"/>
    <g s:x="3" s:y="20" s:pid="B"/>
    <g s:x="25" s:y="12.5" s:pid="Y"/>
  </g>
  <g s:type="eq" transform="translate(350.6666666666667,934)" s:width="25" s:height="25" id="cell_$procmux$28_CMP0">
    <s:alias val="$eq"/>
    <circle r="12.5" cx="12.5" cy="12.5" class="cell_$procmux$28_CMP0"/>
    <line x1="7.5" x2="17.5" y1="10" y2="10" class="cell_$procmux$28_CMP0"/>
    <line x1="7.5" x2="17.5" y1="15" y2="15" class="cell_$procmux$28_CMP0"/>
    <g s:x="3" s:y="5" s:pid="A"/>
    <g s:x="3" s:y="20" s:pid="B"/>
    <g s:x="25" s:y="12.5" s:pid="Y"/>
  </g>
  <g s:type="not" transform="translate(349,470)" s:width="30" s:height="20" id="cell_$procmux$29_CMP0">
    <s:alias val="$_NOT_"/>
    <s:alias val="$not"/>
    <s:alias val="$logic_not"/>
    <path d="M0,0 L0,20 L20,10 Z" class="cell_$procmux$29_CMP0"/>
    <circle cx="23" cy="10" r="3" class="cell_$procmux$29_CMP0"/>
    <g s:x="0" s:y="10" s:pid="A"/>
    <g s:x="25" s:y="10" s:pid="Y"/>
  </g>
  <g s:type="mux" transform="translate(1159,12)" s:width="20" s:height="40" id="cell_$procmux$8">
    <s:alias val="$pmux"/>
    <s:alias val="$mux"/>
    <s:alias val="$_MUX_"/>
    <path d="M0,0 L20,10 L20,30 L0,40 Z" class="cell_$procmux$8"/>
    <g s:x="0" s:y="10" s:pid="A"/>
    <g s:x="0" s:y="30" s:pid="B"/>
    <g s:x="10" s:y="35" s:pid="S"/>
    <g s:x="20" s:y="20" s:pid="Y"/>
  </g>
  <g s:type="eq" transform="translate(1030.6666666666665,45)" s:width="25" s:height="25" id="cell_$procmux$9_CMP0">
    <s:alias val="$eq"/>
    <circle r="12.5" cx="12.5" cy="12.5" class="cell_$procmux$9_CMP0"/>
    <line x1="7.5" x2="17.5" y1="10" y2="10" class="cell_$procmux$9_CMP0"/>
    <line x1="7.5" x2="17.5" y1="15" y2="15" class="cell_$procmux$9_CMP0"/>
    <g s:x="3" s:y="5" s:pid="A"/>
    <g s:x="3" s:y="20" s:pid="B"/>
    <g s:x="25" s:y="12.5" s:pid="Y"/>
  </g>
  <g s:type="inputExt" transform="translate(773,557.5)" s:width="30" s:height="20" id="cell_clk">
    <text x="15" y="-4" class="nodelabel cell_clk" s:attribute="ref">clk</text>
    <s:alias val="$_inputExt_"/>
    <path d="M0,0 L0,20 L15,20 L30,10 L15,0 Z" class="cell_clk"/>
    <g s:x="28" s:y="10" s:pid="Y"/>
  </g>
  <g s:type="inputExt" transform="translate(838,222)" s:width="30" s:height="20" id="cell_resetn">
    <text x="15" y="-4" class="nodelabel cell_resetn" s:attribute="ref">resetn</text>
    <s:alias val="$_inputExt_"/>
    <path d="M0,0 L0,20 L15,20 L30,10 L15,0 Z" class="cell_resetn"/>
    <g s:x="28" s:y="10" s:pid="Y"/>
  </g>
  <g s:type="inputExt" transform="translate(12,304.5)" s:width="30" s:height="20" id="cell_r">
    <text x="15" y="-4" class="nodelabel cell_r" s:attribute="ref">r</text>
    <s:alias val="$_inputExt_"/>
    <path d="M0,0 L0,20 L15,20 L30,10 L15,0 Z" class="cell_r"/>
    <g s:x="28" s:y="10" s:pid="Y"/>
  </g>
  <g s:type="outputExt" transform="translate(1214,22)" s:width="30" s:height="20" id="cell_g">
    <text x="15" y="-4" class="nodelabel cell_g" s:attribute="ref">g</text>
    <s:alias val="$_outputExt_"/>
    <path d="M30,0 L30,20 L15,20 L0,10 L15,0 Z" class="cell_g"/>
    <g s:x="0" s:y="10" s:pid="A"/>
  </g>
  <g s:type="constant" transform="translate(259,217)" s:width="30" s:height="20" id="cell_10">
    <text x="15" y="-4" class="nodelabel cell_10" s:attribute="ref">10</text>
    <s:alias val="$_constant_"/>
    <rect width="30" height="20" class="cell_10"/>
    <g s:x="30" s:y="10" s:pid="Y"/>
  </g>
  <g s:type="constant" transform="translate(259,741)" s:width="30" s:height="20" id="cell_1">
    <text x="15" y="-4" class="nodelabel cell_1" s:attribute="ref">1</text>
    <s:alias val="$_constant_"/>
    <rect width="30" height="20" class="cell_1"/>
    <g s:x="30" s:y="10" s:pid="Y"/>
  </g>
  <g s:type="constant" transform="translate(838,157)" s:width="30" s:height="20" id="cell_000">
    <text x="15" y="-4" class="nodelabel cell_000" s:attribute="ref">000</text>
    <s:alias val="$_constant_"/>
    <rect width="30" height="20" class="cell_000"/>
    <g s:x="30" s:y="10" s:pid="Y"/>
  </g>
  <g s:type="constant" transform="translate(708,287)" s:width="30" s:height="20" id="cell_111">
    <text x="15" y="-4" class="nodelabel cell_111" s:attribute="ref">111</text>
    <s:alias val="$_constant_"/>
    <rect width="30" height="20" class="cell_111"/>
    <g s:x="30" s:y="10" s:pid="Y"/>
  </g>
  <g s:type="constant" transform="translate(708,352)" s:width="30" s:height="20" id="cell_001010011000">
    <text x="15" y="-4" class="nodelabel cell_001010011000" s:attribute="ref">0x298</text>
    <s:alias val="$_constant_"/>
    <rect width="30" height="20" class="cell_001010011000"/>
    <g s:x="30" s:y="10" s:pid="Y"/>
  </g>
  <g s:type="constant" transform="translate(259,157)" s:width="30" s:height="20" id="cell_11">
    <text x="15" y="-4" class="nodelabel cell_11" s:attribute="ref">11</text>
    <s:alias val="$_constant_"/>
    <rect width="30" height="20" class="cell_11"/>
    <g s:x="30" s:y="10" s:pid="Y"/>
  </g>
  <g s:type="constant" transform="translate(259,535)" s:width="30" s:height="20" id="cell_1011">
    <text x="15" y="-4" class="nodelabel cell_1011" s:attribute="ref">0xb</text>
    <s:alias val="$_constant_"/>
    <rect width="30" height="20" class="cell_1011"/>
    <g s:x="30" s:y="10" s:pid="Y"/>
  </g>
  <g s:type="constant" transform="translate(259,676)" s:width="30" s:height="20" id="cell_1010">
    <text x="15" y="-4" class="nodelabel cell_1010" s:attribute="ref">0xa</text>
    <s:alias val="$_constant_"/>
    <rect width="30" height="20" class="cell_1010"/>
    <g s:x="30" s:y="10" s:pid="Y"/>
  </g>
  <g s:type="constant" transform="translate(259,900)" s:width="30" s:height="20" id="cell_1001">
    <text x="15" y="-4" class="nodelabel cell_1001" s:attribute="ref">0x9</text>
    <s:alias val="$_constant_"/>
    <rect width="30" height="20" class="cell_1001"/>
    <g s:x="30" s:y="10" s:pid="Y"/>
  </g>
  <g s:type="constant" transform="translate(259,611)" s:width="30" s:height="20" id="cell_100000">
    <text x="15" y="-4" class="nodelabel cell_100000" s:attribute="ref">0x20</text>
    <s:alias val="$_constant_"/>
    <rect width="30" height="20" class="cell_100000"/>
    <g s:x="30" s:y="10" s:pid="Y"/>
  </g>
  <g s:type="constant" transform="translate(259,849)" s:width="30" s:height="20" id="cell_10000">
    <text x="15" y="-4" class="nodelabel cell_10000" s:attribute="ref">0x10</text>
    <s:alias val="$_constant_"/>
    <rect width="30" height="20" class="cell_10000"/>
    <g s:x="30" s:y="10" s:pid="Y"/>
  </g>
  <g s:type="constant" transform="translate(259,960)" s:width="30" s:height="20" id="cell_1000">
    <text x="15" y="-4" class="nodelabel cell_1000" s:attribute="ref">0x8</text>
    <s:alias val="$_constant_"/>
    <rect width="30" height="20" class="cell_1000"/>
    <g s:x="30" s:y="10" s:pid="Y"/>
  </g>
  <g s:type="constant" transform="translate(1094,32)" s:width="30" s:height="20" id="cell_000001010100">
    <text x="15" y="-4" class="nodelabel cell_000001010100" s:attribute="ref">0x54</text>
    <s:alias val="$_constant_"/>
    <rect width="30" height="20" class="cell_000001010100"/>
    <g s:x="30" s:y="10" s:pid="Y"/>
  </g>
  <g s:type="join" transform="translate(421,189)" s:width="4" s:height="40" id="cell_$join$,10,11,12,13,">
    <rect width="5" height="80" class="splitjoinBody" s:generic="body"/>
    <s:alias val="$_join_"/>
    <g s:x="5" s:y="20" s:pid="out"/>
    <g transform="translate(0,10)" s:x="0" s:y="10" s:pid="in0">
      <text x="-3" y="-4" class="inputPortLabel">0</text>
    </g>
    <g transform="translate(0,30)" s:x="0" s:y="10" s:pid="in0">
      <text x="-3" y="-4" class="inputPortLabel">1</text>
    </g>
    <g transform="translate(0,50)" s:x="0" s:y="10" s:pid="in0">
      <text x="-3" y="-4" class="inputPortLabel">2</text>
    </g>
    <g transform="translate(0,70)" s:x="0" s:y="10" s:pid="in0">
      <text x="-3" y="-4" class="inputPortLabel">3</text>
    </g>
  </g>
  <g s:type="join" transform="translate(421,527)" s:width="4" s:height="40" id="cell_$join$,15,16,">
    <rect width="5" height="40" class="splitjoinBody" s:generic="body"/>
    <s:alias val="$_join_"/>
    <g s:x="5" s:y="20" s:pid="out"/>
    <g transform="translate(0,10)" s:x="0" s:y="10" s:pid="in0">
      <text x="-3" y="-4" class="inputPortLabel">0</text>
    </g>
    <g transform="translate(0,30)" s:x="0" s:y="10" s:pid="in0">
      <text x="-3" y="-4" class="inputPortLabel">1</text>
    </g>
  </g>
  <g s:type="join" transform="translate(421,668)" s:width="4" s:height="40" id="cell_$join$,18,19,">
    <rect width="5" height="40" class="splitjoinBody" s:generic="body"/>
    <s:alias val="$_join_"/>
    <g s:x="5" s:y="20" s:pid="out"/>
    <g transform="translate(0,10)" s:x="0" s:y="10" s:pid="in0">
      <text x="-3" y="-4" class="inputPortLabel">0</text>
    </g>
    <g transform="translate(0,30)" s:x="0" s:y="10" s:pid="in0">
      <text x="-3" y="-4" class="inputPortLabel">1</text>
    </g>
  </g>
  <g s:type="join" transform="translate(421,876)" s:width="4" s:height="40" id="cell_$join$,21,22,">
    <rect width="5" height="40" class="splitjoinBody" s:generic="body"/>
    <s:alias val="$_join_"/>
    <g s:x="5" s:y="20" s:pid="out"/>
    <g transform="translate(0,10)" s:x="0" s:y="10" s:pid="in0">
      <text x="-3" y="-4" class="inputPortLabel">0</text>
    </g>
    <g transform="translate(0,30)" s:x="0" s:y="10" s:pid="in0">
      <text x="-3" y="-4" class="inputPortLabel">1</text>
    </g>
  </g>
  <g s:type="join" transform="translate(718,517)" s:width="4" s:height="40" id="cell_$join$,14,17,20,23,">
    <rect width="5" height="80" class="splitjoinBody" s:generic="body"/>
    <s:alias val="$_join_"/>
    <g s:x="5" s:y="20" s:pid="out"/>
    <g transform="translate(0,10)" s:x="0" s:y="10" s:pid="in0">
      <text x="-3" y="-4" class="inputPortLabel">0</text>
    </g>
    <g transform="translate(0,30)" s:x="0" s:y="10" s:pid="in0">
      <text x="-3" y="-4" class="inputPortLabel">1</text>
    </g>
    <g transform="translate(0,50)" s:x="0" s:y="10" s:pid="in0">
      <text x="-3" y="-4" class="inputPortLabel">2</text>
    </g>
    <g transform="translate(0,70)" s:x="0" s:y="10" s:pid="in0">
      <text x="-3" y="-4" class="inputPortLabel">3</text>
    </g>
  </g>
  <g s:type="join" transform="translate(278,274)" s:width="4" s:height="40" id="cell_$join$,27,28,29,6,">
    <rect width="5" height="40" class="splitjoinBody" s:generic="body"/>
    <s:alias val="$_join_"/>
    <g s:x="5" s:y="20" s:pid="out"/>
    <g transform="translate(0,10)" s:x="0" s:y="10" s:pid="in0">
      <text x="-3" y="-4" class="inputPortLabel">0:2</text>
    </g>
    <g transform="translate(0,30)" s:x="0" s:y="10" s:pid="in0">
      <text x="-3" y="-4" class="inputPortLabel">3</text>
    </g>
  </g>
  <g s:type="join" transform="translate(278,351)" s:width="4" s:height="40" id="cell_$join$,27,28,29,5,">
    <rect width="5" height="40" class="splitjoinBody" s:generic="body"/>
    <s:alias val="$_join_"/>
    <g s:x="5" s:y="20" s:pid="out"/>
    <g transform="translate(0,10)" s:x="0" s:y="10" s:pid="in0">
      <text x="-3" y="-4" class="inputPortLabel">0:2</text>
    </g>
    <g transform="translate(0,30)" s:x="0" s:y="10" s:pid="in0">
      <text x="-3" y="-4" class="inputPortLabel">3</text>
    </g>
  </g>
  <g s:type="join" transform="translate(158,394.5)" s:width="4" s:height="40" id="cell_$join$,27,28,29,4,">
    <rect width="5" height="40" class="splitjoinBody" s:generic="body"/>
    <s:alias val="$_join_"/>
    <g s:x="5" s:y="20" s:pid="out"/>
    <g transform="translate(0,10)" s:x="0" s:y="10" s:pid="in0">
      <text x="-3" y="-4" class="inputPortLabel">0:2</text>
    </g>
    <g transform="translate(0,30)" s:x="0" s:y="10" s:pid="in0">
      <text x="-3" y="-4" class="inputPortLabel">3</text>
    </g>
  </g>
  <g s:type="join" transform="translate(218,459.5)" s:width="4" s:height="40" id="cell_$join$,27,28,29,4,5,6,">
    <rect width="5" height="40" class="splitjoinBody" s:generic="body"/>
    <s:alias val="$_join_"/>
    <g s:x="5" s:y="20" s:pid="out"/>
    <g transform="translate(0,10)" s:x="0" s:y="10" s:pid="in0">
      <text x="-3" y="-4" class="inputPortLabel">0:3</text>
    </g>
    <g transform="translate(0,30)" s:x="0" s:y="10" s:pid="in0">
      <text x="-3" y="-4" class="inputPortLabel">4:5</text>
    </g>
  </g>
  <g s:type="join" transform="translate(1104,87)" s:width="4" s:height="40" id="cell_$join$,39,30,31,32,">
    <rect width="5" height="80" class="splitjoinBody" s:generic="body"/>
    <s:alias val="$_join_"/>
    <g s:x="5" s:y="20" s:pid="out"/>
    <g transform="translate(0,10)" s:x="0" s:y="10" s:pid="in0">
      <text x="-3" y="-4" class="inputPortLabel">0</text>
    </g>
    <g transform="translate(0,30)" s:x="0" s:y="10" s:pid="in0">
      <text x="-3" y="-4" class="inputPortLabel">1</text>
    </g>
    <g transform="translate(0,50)" s:x="0" s:y="10" s:pid="in0">
      <text x="-3" y="-4" class="inputPortLabel">2</text>
    </g>
    <g transform="translate(0,70)" s:x="0" s:y="10" s:pid="in0">
      <text x="-3" y="-4" class="inputPortLabel">3</text>
    </g>
  </g>
  <g s:type="split" transform="translate(77,294)" s:width="5" s:height="40" id="cell_$split$,4,5,6,">
    <rect width="5" height="80" class="splitjoinBody" s:generic="body"/>
    <s:alias val="$_split_"/>
    <g s:x="0" s:y="20" s:pid="in"/>
    <g transform="translate(4,10)" s:x="4" s:y="10" s:pid="out0">
      <text x="5" y="-4">2</text>
    </g>
    <g transform="translate(4,30)" s:x="4" s:y="10" s:pid="out0">
      <text x="5" y="-4">1</text>
    </g>
    <g transform="translate(4,50)" s:x="4" s:y="10" s:pid="out0">
      <text x="5" y="-4">0</text>
    </g>
    <g transform="translate(4,70)" s:x="4" s:y="10" s:pid="out0">
      <text x="5" y="-4">1:2</text>
    </g>
  </g>
  <g s:type="split" transform="translate(265,796)" s:width="5" s:height="40" id="cell_$split$,27,28,29,4,5,6,">
    <rect width="5" height="20" class="splitjoinBody" s:generic="body"/>
    <s:alias val="$_split_"/>
    <g s:x="0" s:y="20" s:pid="in"/>
    <g transform="translate(4,10)" s:x="4" s:y="10" s:pid="out0">
      <text x="5" y="-4">0:4</text>
    </g>
  </g>
  <line x1="427" x2="469" y1="209.5" y2="209.5" class="net_10,11,12,13"/>
  <line x1="427" x2="469" y1="547.5" y2="547.5" class="net_15,16"/>
  <line x1="427" x2="469" y1="688.5" y2="688.5" class="net_18,19"/>
  <line x1="427" x2="469" y1="896.5" y2="896.5" class="net_21,22"/>
  <line x1="801" x2="949" y1="567.5" y2="567.5" class="net_2"/>
  <line x1="949" x2="949" y1="567.5" y2="197" class="net_2"/>
  <line x1="949" x2="964" y1="197" y2="197" class="net_2"/>
  <line x1="801" x2="823" y1="567.5" y2="567.5" class="net_2"/>
  <line x1="823" x2="823" y1="567.5" y2="372" class="net_2"/>
  <line x1="823" x2="856.6666666666666" y1="372" y2="372" class="net_2"/>
  <circle cx="823" cy="567.5" r="2" style="fill:#000" class="net_2"/>
  <line x1="856.6666666666666" x2="856.6666666666666" y1="372" y2="312" class="net_2"/>
  <line x1="929" x2="964" y1="177" y2="177" class="net_24,25,26"/>
  <line x1="994" x2="1004" y1="177" y2="177" class="net_27,28,29"/>
  <line x1="1004" x2="1004" y1="177" y2="110" class="net_27,28,29"/>
  <circle cx="1004" cy="110" r="2" style="fill:#000" class="net_27,28,29"/>
  <line x1="1004" x2="1033.6666666666665" y1="110" y2="110" class="net_27,28,29"/>
  <line x1="994" x2="1033.6666666666665" y1="177" y2="177" class="net_27,28,29"/>
  <line x1="994" x2="1004" y1="177" y2="177" class="net_27,28,29"/>
  <line x1="1004" x2="1004" y1="177" y2="242" class="net_27,28,29"/>
  <circle cx="1004" cy="242" r="2" style="fill:#000" class="net_27,28,29"/>
  <line x1="1004" x2="1029" y1="242" y2="242" class="net_27,28,29"/>
  <line x1="994" x2="1004" y1="177" y2="177" class="net_27,28,29"/>
  <line x1="1004" x2="1004" y1="177" y2="578.5" class="net_27,28,29"/>
  <line x1="1004" x2="813" y1="578.5" y2="578.5" class="net_27,28,29"/>
  <line x1="813" x2="813" y1="578.5" y2="287" class="net_27,28,29"/>
  <line x1="813" x2="846.6666666666666" y1="287" y2="287" class="net_27,28,29"/>
  <line x1="994" x2="1004" y1="177" y2="177" class="net_27,28,29"/>
  <line x1="1004" x2="1004" y1="177" y2="50" class="net_27,28,29"/>
  <line x1="1004" x2="1033.6666666666665" y1="50" y2="50" class="net_27,28,29"/>
  <line x1="994" x2="1004" y1="177" y2="177" class="net_27,28,29"/>
  <line x1="1004" x2="1004" y1="177" y2="136" class="net_27,28,29"/>
  <line x1="1004" x2="234" y1="136" y2="136" class="net_27,28,29"/>
  <line x1="234" x2="234" y1="136" y2="284.5" class="net_27,28,29"/>
  <circle cx="234" cy="284.5" r="2" style="fill:#000" class="net_27,28,29"/>
  <line x1="234" x2="278" y1="284.5" y2="284.5" class="net_27,28,29"/>
  <line x1="994" x2="1004" y1="177" y2="177" class="net_27,28,29"/>
  <line x1="1004" x2="1004" y1="177" y2="136" class="net_27,28,29"/>
  <line x1="1004" x2="234" y1="136" y2="136" class="net_27,28,29"/>
  <line x1="234" x2="234" y1="136" y2="361.5" class="net_27,28,29"/>
  <circle cx="1004" cy="136" r="2" style="fill:#000" class="net_27,28,29"/>
  <circle cx="1004" cy="177" r="2" style="fill:#000" class="net_27,28,29"/>
  <line x1="234" x2="278" y1="361.5" y2="361.5" class="net_27,28,29"/>
  <line x1="994" x2="1004" y1="177" y2="177" class="net_27,28,29"/>
  <line x1="1004" x2="1004" y1="177" y2="136" class="net_27,28,29"/>
  <line x1="1004" x2="939" y1="136" y2="136" class="net_27,28,29"/>
  <line x1="939" x2="939" y1="136" y2="382" class="net_27,28,29"/>
  <line x1="939" x2="693" y1="382" y2="382" class="net_27,28,29"/>
  <line x1="693" x2="693" y1="382" y2="136" class="net_27,28,29"/>
  <line x1="693" x2="299" y1="136" y2="136" class="net_27,28,29"/>
  <line x1="299" x2="299" y1="136" y2="187" class="net_27,28,29"/>
  <line x1="299" x2="119" y1="187" y2="187" class="net_27,28,29"/>
  <line x1="119" x2="119" y1="187" y2="405" class="net_27,28,29"/>
  <circle cx="299" cy="136" r="2" style="fill:#000" class="net_27,28,29"/>
  <circle cx="693" cy="136" r="2" style="fill:#000" class="net_27,28,29"/>
  <circle cx="939" cy="136" r="2" style="fill:#000" class="net_27,28,29"/>
  <line x1="119" x2="158" y1="405" y2="405" class="net_27,28,29"/>
  <line x1="289" x2="319" y1="227" y2="227" class="net_40,41"/>
  <line x1="319" x2="319" y1="227" y2="125" class="net_40,41"/>
  <circle cx="319" cy="227" r="2" style="fill:#000" class="net_40,41"/>
  <line x1="319" x2="1033.6666666666665" y1="125" y2="125" class="net_40,41"/>
  <line x1="289" x2="353.6666666666667" y1="227" y2="227" class="net_40,41"/>
  <line x1="289" x2="309" y1="751" y2="751" class="net_42"/>
  <line x1="309" x2="309" y1="751" y2="969" class="net_42"/>
  <line x1="309" x2="1014" y1="969" y2="969" class="net_42"/>
  <line x1="1014" x2="1014" y1="969" y2="192" class="net_42"/>
  <circle cx="309" cy="751" r="2" style="fill:#000" class="net_42"/>
  <line x1="1014" x2="1033.6666666666665" y1="192" y2="192" class="net_42"/>
  <line x1="289" x2="309" y1="751" y2="751" class="net_42"/>
  <line x1="309" x2="309" y1="751" y2="430" class="net_42"/>
  <line x1="309" x2="353.6666666666667" y1="430" y2="430" class="net_42"/>
  <line x1="796.3333333333334" x2="846.6666666666666" y1="307" y2="307" class="net_33,34,35"/>
  <line x1="868" x2="909" y1="167" y2="167" class="net_43,44,45"/>
  <line x1="866.6666666666666" x2="884" y1="297" y2="297" class="net_36,37,38"/>
  <line x1="884" x2="884" y1="297" y2="187" class="net_36,37,38"/>
  <line x1="884" x2="909" y1="187" y2="187" class="net_36,37,38"/>
  <line x1="866" x2="919" y1="232" y2="232" class="net_3"/>
  <line x1="919" x2="919" y1="232" y2="192" class="net_3"/>
  <line x1="738" x2="776.3333333333334" y1="297" y2="297" class="net_46,47,48"/>
  <line x1="738" x2="748" y1="362" y2="362" class="net_49,50,51,52,53,54,55,56,57,58,59,60"/>
  <line x1="748" x2="748" y1="362" y2="317" class="net_49,50,51,52,53,54,55,56,57,58,59,60"/>
  <line x1="748" x2="776.3333333333334" y1="317" y2="317" class="net_49,50,51,52,53,54,55,56,57,58,59,60"/>
  <line x1="724" x2="786.3333333333334" y1="537.5" y2="537.5" class="net_14,17,20,23"/>
  <line x1="786.3333333333334" x2="786.3333333333334" y1="537.5" y2="322" class="net_14,17,20,23"/>
  <line x1="284" x2="339" y1="294.5" y2="294.5" class="net_27,28,29,6"/>
  <line x1="339" x2="339" y1="294.5" y2="152" class="net_27,28,29,6"/>
  <circle cx="339" cy="294.5" r="2" style="fill:#000" class="net_27,28,29,6"/>
  <line x1="339" x2="353.6666666666667" y1="152" y2="152" class="net_27,28,29,6"/>
  <line x1="284" x2="339" y1="294.5" y2="294.5" class="net_27,28,29,6"/>
  <line x1="339" x2="339" y1="294.5" y2="530" class="net_27,28,29,6"/>
  <line x1="339" x2="353.6666666666667" y1="530" y2="530" class="net_27,28,29,6"/>
  <line x1="289" x2="353.6666666666667" y1="167" y2="167" class="net_61,62"/>
  <line x1="289" x2="309" y1="167" y2="167" class="net_61,62"/>
  <line x1="309" x2="309" y1="167" y2="65" class="net_61,62"/>
  <circle cx="309" cy="167" r="2" style="fill:#000" class="net_61,62"/>
  <line x1="309" x2="1033.6666666666665" y1="65" y2="65" class="net_61,62"/>
  <line x1="289" x2="353.6666666666667" y1="545" y2="545" class="net_63,64,65,66"/>
  <line x1="284" x2="329" y1="371.5" y2="371.5" class="net_27,28,29,5"/>
  <line x1="329" x2="329" y1="371.5" y2="212" class="net_27,28,29,5"/>
  <circle cx="329" cy="371.5" r="2" style="fill:#000" class="net_27,28,29,5"/>
  <line x1="329" x2="353.6666666666667" y1="212" y2="212" class="net_27,28,29,5"/>
  <line x1="284" x2="329" y1="371.5" y2="371.5" class="net_27,28,29,5"/>
  <line x1="329" x2="329" y1="371.5" y2="671" class="net_27,28,29,5"/>
  <line x1="329" x2="353.6666666666667" y1="671" y2="671" class="net_27,28,29,5"/>
  <line x1="289" x2="353.6666666666667" y1="686" y2="686" class="net_69,70,71,72"/>
  <line x1="164" x2="353.6666666666667" y1="415" y2="415" class="net_27,28,29,4"/>
  <line x1="164" x2="174" y1="415" y2="415" class="net_27,28,29,4"/>
  <line x1="174" x2="174" y1="415" y2="879" class="net_27,28,29,4"/>
  <circle cx="174" cy="415" r="2" style="fill:#000" class="net_27,28,29,4"/>
  <line x1="174" x2="353.6666666666667" y1="879" y2="879" class="net_27,28,29,4"/>
  <line x1="164" x2="174" y1="415" y2="415" class="net_27,28,29,4"/>
  <line x1="174" x2="174" y1="415" y2="879" class="net_27,28,29,4"/>
  <line x1="174" x2="234" y1="879" y2="879" class="net_27,28,29,4"/>
  <line x1="234" x2="234" y1="879" y2="939" class="net_27,28,29,4"/>
  <circle cx="234" cy="879" r="2" style="fill:#000" class="net_27,28,29,4"/>
  <line x1="234" x2="353.6666666666667" y1="939" y2="939" class="net_27,28,29,4"/>
  <line x1="164" x2="174" y1="415" y2="415" class="net_27,28,29,4"/>
  <line x1="174" x2="174" y1="415" y2="470" class="net_27,28,29,4"/>
  <circle cx="174" cy="470" r="2" style="fill:#000" class="net_27,28,29,4"/>
  <line x1="174" x2="218" y1="470" y2="470" class="net_27,28,29,4"/>
  <line x1="289" x2="299" y1="910" y2="910" class="net_74,75,76,77"/>
  <line x1="299" x2="299" y1="910" y2="894" class="net_74,75,76,77"/>
  <line x1="299" x2="353.6666666666667" y1="894" y2="894" class="net_74,75,76,77"/>
  <line x1="224" x2="234" y1="480" y2="480" class="net_27,28,29,4,5,6"/>
  <line x1="234" x2="234" y1="480" y2="590" class="net_27,28,29,4,5,6"/>
  <circle cx="234" cy="480" r="2" style="fill:#000" class="net_27,28,29,4,5,6"/>
  <circle cx="234" cy="590" r="2" style="fill:#000" class="net_27,28,29,4,5,6"/>
  <line x1="234" x2="353.6666666666667" y1="590" y2="590" class="net_27,28,29,4,5,6"/>
  <line x1="224" x2="349" y1="480" y2="480" class="net_27,28,29,4,5,6"/>
  <line x1="224" x2="234" y1="480" y2="480" class="net_27,28,29,4,5,6"/>
  <line x1="234" x2="234" y1="480" y2="829" class="net_27,28,29,4,5,6"/>
  <line x1="234" x2="265.5" y1="829" y2="829" class="net_27,28,29,4,5,6"/>
  <line x1="265.5" x2="265.5" y1="829" y2="817" class="net_27,28,29,4,5,6"/>
  <line x1="289" x2="319" y1="621" y2="621" class="net_78,79,80,81,82,83"/>
  <line x1="319" x2="319" y1="621" y2="605" class="net_78,79,80,81,82,83"/>
  <line x1="319" x2="353.6666666666667" y1="605" y2="605" class="net_78,79,80,81,82,83"/>
  <line x1="270" x2="353.6666666666667" y1="806.5" y2="806.5" class="net_27,28,29,4,5"/>
  <line x1="289" x2="299" y1="859" y2="859" class="net_84,85,86,87,88"/>
  <line x1="299" x2="299" y1="859" y2="821.5" class="net_84,85,86,87,88"/>
  <line x1="299" x2="353.6666666666667" y1="821.5" y2="821.5" class="net_84,85,86,87,88"/>
  <line x1="289" x2="299" y1="970" y2="970" class="net_89,90,91,92"/>
  <line x1="299" x2="299" y1="970" y2="954" class="net_89,90,91,92"/>
  <line x1="299" x2="353.6666666666667" y1="954" y2="954" class="net_89,90,91,92"/>
  <line x1="1124" x2="1159" y1="42" y2="42" class="net_93,94,95,96,97,98,99,100,101,102,103,104"/>
  <line x1="1110" x2="1169" y1="107.5" y2="107.5" class="net_39,30,31,32"/>
  <line x1="1169" x2="1169" y1="107.5" y2="47" class="net_39,30,31,32"/>
  <line x1="1179" x2="1214" y1="32" y2="32" class="net_7,8,9"/>
  <line x1="375.6666666666667" x2="389" y1="159.5" y2="159.5" class="net_10"/>
  <line x1="389" x2="389" y1="159.5" y2="199.5" class="net_10"/>
  <line x1="389" x2="421" y1="199.5" y2="199.5" class="net_10"/>
  <line x1="375.6666666666667" x2="421" y1="219.5" y2="219.5" class="net_11"/>
  <line x1="375.6666666666667" x2="389" y1="422.5" y2="422.5" class="net_12"/>
  <line x1="389" x2="389" y1="422.5" y2="239.5" class="net_12"/>
  <line x1="389" x2="421" y1="239.5" y2="239.5" class="net_12"/>
  <line x1="374" x2="421.5" y1="480" y2="480" class="net_13"/>
  <line x1="421.5" x2="421.5" y1="480" y2="260" class="net_13"/>
  <line x1="375.6666666666667" x2="421" y1="537.5" y2="537.5" class="net_15"/>
  <line x1="375.6666666666667" x2="389" y1="597.5" y2="597.5" class="net_16"/>
  <line x1="389" x2="389" y1="597.5" y2="557.5" class="net_16"/>
  <line x1="389" x2="421" y1="557.5" y2="557.5" class="net_16"/>
  <line x1="375.6666666666667" x2="421" y1="678.5" y2="678.5" class="net_18"/>
  <line x1="375.6666666666667" x2="389" y1="814" y2="814" class="net_19"/>
  <line x1="389" x2="389" y1="814" y2="698.5" class="net_19"/>
  <line x1="389" x2="421" y1="698.5" y2="698.5" class="net_19"/>
  <line x1="375.6666666666667" x2="421" y1="886.5" y2="886.5" class="net_21"/>
  <line x1="375.6666666666667" x2="389" y1="946.5" y2="946.5" class="net_22"/>
  <line x1="389" x2="389" y1="946.5" y2="906.5" class="net_22"/>
  <line x1="389" x2="421" y1="906.5" y2="906.5" class="net_22"/>
  <line x1="500" x2="683" y1="209.5" y2="209.5" class="net_14"/>
  <line x1="683" x2="683" y1="209.5" y2="527.5" class="net_14"/>
  <line x1="683" x2="718" y1="527.5" y2="527.5" class="net_14"/>
  <line x1="500" x2="718" y1="547.5" y2="547.5" class="net_17"/>
  <line x1="500" x2="683" y1="688.5" y2="688.5" class="net_20"/>
  <line x1="683" x2="683" y1="688.5" y2="567.5" class="net_20"/>
  <line x1="683" x2="718" y1="567.5" y2="567.5" class="net_20"/>
  <line x1="500" x2="718.5" y1="896.5" y2="896.5" class="net_23"/>
  <line x1="718.5" x2="718.5" y1="896.5" y2="588" class="net_23"/>
  <line x1="82" x2="278" y1="304.5" y2="304.5" class="net_6"/>
  <line x1="82" x2="129" y1="324.5" y2="324.5" class="net_5"/>
  <line x1="129" x2="129" y1="324.5" y2="381.5" class="net_5"/>
  <line x1="129" x2="278" y1="381.5" y2="381.5" class="net_5"/>
  <line x1="82" x2="109" y1="344.5" y2="344.5" class="net_4"/>
  <line x1="109" x2="109" y1="344.5" y2="425" class="net_4"/>
  <line x1="109" x2="158" y1="425" y2="425" class="net_4"/>
  <line x1="82" x2="99" y1="364.5" y2="364.5" class="net_5,6"/>
  <line x1="99" x2="99" y1="364.5" y2="490" class="net_5,6"/>
  <line x1="99" x2="218" y1="490" y2="490" class="net_5,6"/>
  <line x1="1055.6666666666665" x2="1069" y1="57.5" y2="57.5" class="net_39"/>
  <line x1="1069" x2="1069" y1="57.5" y2="97.5" class="net_39"/>
  <line x1="1069" x2="1104" y1="97.5" y2="97.5" class="net_39"/>
  <line x1="1055.6666666666665" x2="1104" y1="117.5" y2="117.5" class="net_30"/>
  <line x1="1055.6666666666665" x2="1069" y1="184.5" y2="184.5" class="net_31"/>
  <line x1="1069" x2="1069" y1="184.5" y2="137.5" class="net_31"/>
  <line x1="1069" x2="1104" y1="137.5" y2="137.5" class="net_31"/>
  <line x1="1054" x2="1104.5" y1="242" y2="242" class="net_32"/>
  <line x1="1104.5" x2="1104.5" y1="242" y2="158" class="net_32"/>
  <line x1="40" x2="77" y1="314.5" y2="314.5" class="net_4,5,6"/>
</svg>
