<?xml version="1.0" encoding="UTF-8" standalone="no"?>
<!DOCTYPE svg PUBLIC "-//W3C//DTD SVG 1.1//EN"
 "http://www.w3.org/Graphics/SVG/1.1/DTD/svg11.dtd">
<!-- Generated by graphviz version 4.0.0 (20220529.0937)
 -->
<!-- Title: top_module Pages: 1 -->
<svg width="950pt" height="422pt"
 viewBox="0.00 0.00 950.12 422.00" xmlns="http://www.w3.org/2000/svg" xmlns:xlink="http://www.w3.org/1999/xlink">
<g id="graph0" class="graph" transform="scale(1 1) rotate(0) translate(4 418)">
<title>top_module</title>
<polygon fill="white" stroke="transparent" points="-4,4 -4,-418 946.12,-418 946.12,4 -4,4"/>
<text text-anchor="middle" x="471.06" y="-7.8" font-family="Times New Roman,serif" font-size="14.00">top_module</text>
<!-- n4 -->
<g id="node1" class="node">
<title>n4</title>
<polygon fill="none" stroke="black" points="79.06,-252.54 79.06,-267.46 63.24,-278 40.87,-278 25.06,-267.46 25.06,-252.54 40.87,-242 63.24,-242 79.06,-252.54"/>
<text text-anchor="middle" x="52.06" y="-256.3" font-family="Times New Roman,serif" font-size="14.00">clk</text>
</g>
<!-- c13 -->
<g id="node7" class="node">
<title>c13</title>
<polygon fill="none" stroke="black" points="141.12,-225 141.12,-271 252.12,-271 252.12,-225 141.12,-225"/>
<text text-anchor="middle" x="163.12" y="-255.8" font-family="Times New Roman,serif" font-size="14.00">CLK</text>
<polyline fill="none" stroke="black" points="141.12,-248 185.12,-248 "/>
<text text-anchor="middle" x="163.12" y="-232.8" font-family="Times New Roman,serif" font-size="14.00">D</text>
<polyline fill="none" stroke="black" points="185.12,-225 185.12,-271 "/>
<text text-anchor="middle" x="205.12" y="-251.8" font-family="Times New Roman,serif" font-size="14.00">$8</text>
<text text-anchor="middle" x="205.12" y="-236.8" font-family="Times New Roman,serif" font-size="14.00">$dff</text>
<polyline fill="none" stroke="black" points="225.12,-225 225.12,-271 "/>
<text text-anchor="middle" x="238.62" y="-244.3" font-family="Times New Roman,serif" font-size="14.00">Q</text>
</g>
<!-- n4&#45;&gt;c13 -->
<g id="edge5" class="edge">
<title>n4:e&#45;&gt;c13:w</title>
<path fill="none" stroke="#e7298a" d="M80.06,-260C103.49,-260 111.74,-260 131.02,-260"/>
<polygon fill="#e7298a" stroke="#e7298a" points="131.12,-263.5 141.12,-260 131.12,-256.5 131.12,-263.5"/>
</g>
<!-- n5 -->
<g id="node2" class="node">
<title>n5</title>
<polygon fill="none" stroke="black" points="104.18,-33.54 104.18,-48.46 73.65,-59 30.47,-59 -0.06,-48.46 -0.06,-33.54 30.47,-23 73.65,-23 104.18,-33.54"/>
<text text-anchor="middle" x="52.06" y="-37.3" font-family="Times New Roman,serif" font-size="14.00">count_ena</text>
</g>
<!-- c19 -->
<g id="node10" class="node">
<title>c19</title>
<polygon fill="none" stroke="black" points="771.12,-95.5 771.12,-164.5 870.12,-164.5 870.12,-95.5 771.12,-95.5"/>
<text text-anchor="middle" x="784.12" y="-149.3" font-family="Times New Roman,serif" font-size="14.00">A</text>
<polyline fill="none" stroke="black" points="771.12,-141.5 797.12,-141.5 "/>
<text text-anchor="middle" x="784.12" y="-126.3" font-family="Times New Roman,serif" font-size="14.00">B</text>
<polyline fill="none" stroke="black" points="771.12,-118.5 797.12,-118.5 "/>
<text text-anchor="middle" x="784.12" y="-103.3" font-family="Times New Roman,serif" font-size="14.00">S</text>
<polyline fill="none" stroke="black" points="797.12,-95.5 797.12,-164.5 "/>
<text text-anchor="middle" x="820.62" y="-133.8" font-family="Times New Roman,serif" font-size="14.00">$6</text>
<text text-anchor="middle" x="820.62" y="-118.8" font-family="Times New Roman,serif" font-size="14.00">$mux</text>
<polyline fill="none" stroke="black" points="844.12,-95.5 844.12,-164.5 "/>
<text text-anchor="middle" x="857.12" y="-126.3" font-family="Times New Roman,serif" font-size="14.00">Y</text>
</g>
<!-- n5&#45;&gt;c19 -->
<g id="edge6" class="edge">
<title>n5:e&#45;&gt;c19:w</title>
<path fill="none" stroke="#e7298a" d="M104.12,-41C144.78,-41 154.95,-41 195.62,-41 195.62,-41 195.62,-41 662.62,-41 715.42,-41 714.99,-98.77 760.93,-106.21"/>
<polygon fill="#e7298a" stroke="#e7298a" points="760.88,-109.72 771.12,-107 761.42,-102.74 760.88,-109.72"/>
</g>
<!-- n6 -->
<g id="node3" class="node">
<title>n6</title>
<polygon fill="none" stroke="black" points="80.34,-175.54 80.34,-190.46 63.77,-201 40.34,-201 23.78,-190.46 23.78,-175.54 40.34,-165 63.77,-165 80.34,-175.54"/>
<text text-anchor="middle" x="52.06" y="-179.3" font-family="Times New Roman,serif" font-size="14.00">data</text>
</g>
<!-- x0 -->
<g id="node9" class="node">
<title>x0</title>
<path fill="none" stroke="black" d="M455.12,-199C455.12,-199 493.12,-199 493.12,-199 499.12,-199 505.12,-205 505.12,-211 505.12,-211 505.12,-233 505.12,-233 505.12,-239 499.12,-245 493.12,-245 493.12,-245 455.12,-245 455.12,-245 449.12,-245 443.12,-239 443.12,-233 443.12,-233 443.12,-211 443.12,-211 443.12,-205 449.12,-199 455.12,-199"/>
<text text-anchor="middle" x="474.12" y="-229.8" font-family="Times New Roman,serif" font-size="14.00">2:0 &#45; 3:1</text>
<polyline fill="none" stroke="black" points="443.12,-222 505.12,-222 "/>
<text text-anchor="middle" x="474.12" y="-206.8" font-family="Times New Roman,serif" font-size="14.00">0:0 &#45; 0:0</text>
</g>
<!-- n6&#45;&gt;x0 -->
<g id="edge7" class="edge">
<title>n6:e&#45;&gt;x0:w</title>
<path fill="none" stroke="#7570b3" d="M81.06,-183C238.52,-183 279.46,-208.85 431.91,-209.96"/>
<polygon fill="#7570b3" stroke="#7570b3" points="432.1,-213.46 442.12,-210 432.13,-206.46 432.1,-213.46"/>
</g>
<!-- n7 -->
<g id="node4" class="node">
<title>n7</title>
<polygon fill="none" stroke="black" points="942.12,-388.54 942.12,-403.46 926.3,-414 903.93,-414 888.12,-403.46 888.12,-388.54 903.93,-378 926.3,-378 942.12,-388.54"/>
<text text-anchor="middle" x="915.12" y="-392.3" font-family="Times New Roman,serif" font-size="14.00">q</text>
</g>
<!-- n8 -->
<g id="node5" class="node">
<title>n8</title>
<polygon fill="none" stroke="black" points="339.12,-285 312.12,-267 339.12,-249 366.12,-267 339.12,-285"/>
<text text-anchor="middle" x="339.12" y="-263.3" font-family="Times New Roman,serif" font-size="14.00">qr</text>
</g>
<!-- c18 -->
<g id="node8" class="node">
<title>c18</title>
<polygon fill="none" stroke="black" points="612.12,-214.5 612.12,-283.5 711.12,-283.5 711.12,-214.5 612.12,-214.5"/>
<text text-anchor="middle" x="625.12" y="-268.3" font-family="Times New Roman,serif" font-size="14.00">A</text>
<polyline fill="none" stroke="black" points="612.12,-260.5 638.12,-260.5 "/>
<text text-anchor="middle" x="625.12" y="-245.3" font-family="Times New Roman,serif" font-size="14.00">B</text>
<polyline fill="none" stroke="black" points="612.12,-237.5 638.12,-237.5 "/>
<text text-anchor="middle" x="625.12" y="-222.3" font-family="Times New Roman,serif" font-size="14.00">S</text>
<polyline fill="none" stroke="black" points="638.12,-214.5 638.12,-283.5 "/>
<text text-anchor="middle" x="661.62" y="-252.8" font-family="Times New Roman,serif" font-size="14.00">$4</text>
<text text-anchor="middle" x="661.62" y="-237.8" font-family="Times New Roman,serif" font-size="14.00">$mux</text>
<polyline fill="none" stroke="black" points="685.12,-214.5 685.12,-283.5 "/>
<text text-anchor="middle" x="698.12" y="-245.3" font-family="Times New Roman,serif" font-size="14.00">Y</text>
</g>
<!-- n8&#45;&gt;c18 -->
<g id="edge10" class="edge">
<title>n8:e&#45;&gt;c18:w</title>
<path fill="none" stroke="#1b9e77" stroke-width="3" d="M366.12,-267C374.13,-267 376.11,-267.71 384.12,-268 481.94,-271.57 508.95,-271.98 601.98,-272"/>
<polygon fill="#1b9e77" stroke="#1b9e77" stroke-width="3" points="602.12,-275.5 612.12,-272 602.12,-268.5 602.12,-275.5"/>
<text text-anchor="middle" x="474.12" y="-275.8" font-family="Times New Roman,serif" font-size="14.00" fill="#1b9e77">&lt;4&gt;</text>
</g>
<!-- n8&#45;&gt;x0 -->
<g id="edge12" class="edge">
<title>n8:e&#45;&gt;x0:w</title>
<path fill="none" stroke="#1b9e77" stroke-width="3" d="M366.12,-267C376.25,-267 375.17,-257.76 384.12,-253 404.79,-242 412.78,-235.83 432.03,-234.35"/>
<polygon fill="#1b9e77" stroke="#1b9e77" stroke-width="3" points="432.24,-237.85 442.12,-234 432,-230.85 432.24,-237.85"/>
<text text-anchor="middle" x="396.12" y="-256.8" font-family="Times New Roman,serif" font-size="14.00" fill="#1b9e77">&lt;4&gt;</text>
</g>
<!-- c20 -->
<g id="node12" class="node">
<title>c20</title>
<polygon fill="none" stroke="black" points="426.12,-73 426.12,-119 522.12,-119 522.12,-73 426.12,-73"/>
<text text-anchor="middle" x="439.12" y="-103.8" font-family="Times New Roman,serif" font-size="14.00">A</text>
<polyline fill="none" stroke="black" points="426.12,-96 452.12,-96 "/>
<text text-anchor="middle" x="439.12" y="-80.8" font-family="Times New Roman,serif" font-size="14.00">B</text>
<polyline fill="none" stroke="black" points="452.12,-73 452.12,-119 "/>
<text text-anchor="middle" x="474.12" y="-99.8" font-family="Times New Roman,serif" font-size="14.00">$2</text>
<text text-anchor="middle" x="474.12" y="-84.8" font-family="Times New Roman,serif" font-size="14.00">$sub</text>
<polyline fill="none" stroke="black" points="496.12,-73 496.12,-119 "/>
<text text-anchor="middle" x="509.12" y="-92.3" font-family="Times New Roman,serif" font-size="14.00">Y</text>
</g>
<!-- n8&#45;&gt;c20 -->
<g id="edge11" class="edge">
<title>n8:e&#45;&gt;c20:w</title>
<path fill="none" stroke="#1b9e77" stroke-width="3" d="M366.12,-267C370.16,-267 407.74,-150.64 421.47,-117"/>
<polygon fill="#1b9e77" stroke="#1b9e77" stroke-width="3" points="424.64,-118.49 426.12,-108 418.42,-115.28 424.64,-118.49"/>
<text text-anchor="middle" x="396.12" y="-224.8" font-family="Times New Roman,serif" font-size="14.00" fill="#1b9e77">&lt;4&gt;</text>
</g>
<!-- x2 -->
<g id="node13" class="node">
<title>x2</title>
<path fill="none" stroke="black" d="M582.12,-414C582.12,-414 552.12,-414 552.12,-414 546.12,-414 540.12,-408 540.12,-402 540.12,-402 540.12,-390 540.12,-390 540.12,-384 546.12,-378 552.12,-378 552.12,-378 582.12,-378 582.12,-378 588.12,-378 594.12,-384 594.12,-390 594.12,-390 594.12,-402 594.12,-402 594.12,-408 588.12,-414 582.12,-414"/>
<text text-anchor="middle" x="567.12" y="-392.3" font-family="Times New Roman,serif" font-size="14.00">BUF</text>
</g>
<!-- n8&#45;&gt;x2 -->
<g id="edge13" class="edge">
<title>n8:e&#45;&gt;x2:w</title>
<path fill="none" stroke="#1b9e77" stroke-width="3" d="M366.12,-267C381.29,-267 373.47,-285.2 384.12,-296 439.44,-352.14 456.32,-392.42 529.86,-395.77"/>
<polygon fill="#1b9e77" stroke="#1b9e77" stroke-width="3" points="530.04,-399.28 540.12,-396 530.2,-392.28 530.04,-399.28"/>
<text text-anchor="middle" x="396.12" y="-324.8" font-family="Times New Roman,serif" font-size="14.00" fill="#1b9e77">&lt;4&gt;</text>
</g>
<!-- n9 -->
<g id="node6" class="node">
<title>n9</title>
<polygon fill="none" stroke="black" points="99.33,-355.54 99.33,-370.46 71.64,-381 32.48,-381 4.79,-370.46 4.79,-355.54 32.48,-345 71.64,-345 99.33,-355.54"/>
<text text-anchor="middle" x="52.06" y="-359.3" font-family="Times New Roman,serif" font-size="14.00">shift_ena</text>
</g>
<!-- n9&#45;&gt;c18 -->
<g id="edge14" class="edge">
<title>n9:e&#45;&gt;c18:w</title>
<path fill="none" stroke="#1b9e77" d="M101.06,-363C143.08,-363 153.59,-363 195.62,-363 195.62,-363 195.62,-363 475.12,-363 538.11,-363 556.3,-336.38 594.12,-286 608.09,-267.39 591.83,-237.97 602.38,-228.81"/>
<polygon fill="#1b9e77" stroke="#1b9e77" points="603.48,-232.14 612.12,-226 601.54,-225.41 603.48,-232.14"/>
</g>
<!-- c13&#45;&gt;n8 -->
<g id="edge9" class="edge">
<title>c13:e&#45;&gt;n8:w</title>
<path fill="none" stroke="#1b9e77" stroke-width="3" d="M252.12,-248C276.37,-248 282.65,-262.29 302.13,-266.08"/>
<polygon fill="#1b9e77" stroke="#1b9e77" stroke-width="3" points="301.84,-269.57 312.12,-267 302.48,-262.6 301.84,-269.57"/>
<text text-anchor="middle" x="282.12" y="-267.8" font-family="Times New Roman,serif" font-size="14.00" fill="#1b9e77">&lt;4&gt;</text>
</g>
<!-- c18&#45;&gt;c19 -->
<g id="edge3" class="edge">
<title>c18:e&#45;&gt;c19:w</title>
<path fill="none" stroke="#1b9e77" stroke-width="3" d="M711.12,-249C733.03,-249 743.21,-176.15 762.09,-157.37"/>
<polygon fill="#1b9e77" stroke="#1b9e77" stroke-width="3" points="763.65,-160.51 771.12,-153 760.59,-154.21 763.65,-160.51"/>
<text text-anchor="middle" x="741.12" y="-234.8" font-family="Times New Roman,serif" font-size="14.00" fill="#1b9e77">&lt;4&gt;</text>
</g>
<!-- x0&#45;&gt;c18 -->
<g id="edge1" class="edge">
<title>x0:e&#45;&gt;c18:w</title>
<path fill="none" stroke="#66a61e" stroke-width="3" d="M518.31,-222.61C552.89,-226.24 565.42,-244.81 600.04,-248.4"/>
<polygon fill="none" stroke="#66a61e" stroke-width="3" points="518.1,-222.6 511.91,-226.3 506.12,-222 512.31,-218.31 518.1,-222.6"/>
<polygon fill="none" stroke="#66a61e" stroke-width="3" points="600.13,-248.4 606.32,-244.71 612.12,-249 605.93,-252.7 600.13,-248.4"/>
<text text-anchor="middle" x="567.12" y="-251.8" font-family="Times New Roman,serif" font-size="14.00" fill="#66a61e">&lt;4&gt;</text>
</g>
<!-- c19&#45;&gt;c13 -->
<g id="edge2" class="edge">
<title>c19:e&#45;&gt;c13:w</title>
<path fill="none" stroke="#1b9e77" stroke-width="3" d="M871.62,-130C879.4,-130 876.17,-159.55 870.62,-165 865.8,-169.73 390.82,-169.14 384.12,-170 324.14,-177.7 311.16,-189.94 252.12,-203 202.84,-213.9 174.41,-187.01 140.62,-224.5 140.29,-224.86 139.98,-225.25 139.68,-225.66"/>
<polygon fill="#1b9e77" stroke="#1b9e77" stroke-width="3" points="136.17,-225.98 139.62,-236 143.17,-226.02 136.17,-225.98"/>
<text text-anchor="middle" x="474.12" y="-173.8" font-family="Times New Roman,serif" font-size="14.00" fill="#1b9e77">&lt;4&gt;</text>
</g>
<!-- v1 -->
<g id="node11" class="node">
<title>v1</title>
<ellipse fill="none" stroke="black" cx="339.12" cy="-87" rx="27" ry="18"/>
<text text-anchor="middle" x="339.12" y="-83.3" font-family="Times New Roman,serif" font-size="14.00">1&#39;1</text>
</g>
<!-- v1&#45;&gt;c20 -->
<g id="edge15" class="edge">
<title>v1:e&#45;&gt;c20:w</title>
<path fill="none" stroke="#e6ab02" d="M366.12,-87C389.06,-87 397.16,-84.78 415.93,-84.16"/>
<polygon fill="#e6ab02" stroke="#e6ab02" points="416.17,-87.66 426.12,-84 416.06,-80.66 416.17,-87.66"/>
</g>
<!-- c20&#45;&gt;c19 -->
<g id="edge4" class="edge">
<title>c20:e&#45;&gt;c19:w</title>
<path fill="none" stroke="#7570b3" stroke-width="3" d="M522.12,-96C630.32,-96 657.74,-127.91 760.89,-129.9"/>
<polygon fill="#7570b3" stroke="#7570b3" stroke-width="3" points="761.08,-133.4 771.12,-130 761.15,-126.4 761.08,-133.4"/>
<text text-anchor="middle" x="661.62" y="-130.8" font-family="Times New Roman,serif" font-size="14.00" fill="#7570b3">&lt;4&gt;</text>
</g>
<!-- x2&#45;&gt;n7 -->
<g id="edge8" class="edge">
<title>x2:e&#45;&gt;n7:w</title>
<path fill="none" stroke="#d95f02" stroke-width="3" d="M594.12,-396C721.34,-396 755.66,-396 877.98,-396"/>
<polygon fill="#d95f02" stroke="#d95f02" stroke-width="3" points="878.12,-399.5 888.12,-396 878.12,-392.5 878.12,-399.5"/>
<text text-anchor="middle" x="741.12" y="-399.8" font-family="Times New Roman,serif" font-size="14.00" fill="#d95f02">&lt;4&gt;</text>
</g>
</g>
</svg>
