<svg xmlns="http://www.w3.org/2000/svg" xmlns:xlink="http://www.w3.org/1999/xlink" xmlns:s="https://github.com/nturley/netlistsvg" width="427" height="277">
  <style>svg {
    stroke:#000;
    fill:none;
  }
  text {
    fill:#000;
    stroke:none;
    font-size:10px;
    font-weight: bold;
    font-family: "Courier New", monospace;
  }
  .nodelabel {
    text-anchor: middle;
  }
  .inputPortLabel {
    text-anchor: end;
  }
  .splitjoinBody {
    fill:#000;
  }</style>
  <g s:type="dff" transform="translate(320,214)" s:width="30" s:height="40" id="cell_$procdff$8">
    <s:alias val="$dff"/>
    <s:alias val="$_DFF_"/>
    <s:alias val="$_DFF_P_"/>
    <rect width="30" height="40" x="0" y="0" class="cell_$procdff$8"/>
    <path d="M0,35 L5,30 L0,25" class="cell_$procdff$8"/>
    <g s:x="30" s:y="10" s:pid="Q"/>
    <g s:x="0" s:y="30" s:pid="CLK"/>
    <g s:x="0" s:y="30" s:pid="C"/>
    <g s:x="0" s:y="10" s:pid="D"/>
  </g>
  <g s:type="mux" transform="translate(180.66666666666666,79.5)" s:width="20" s:height="40" id="cell_$procmux$4">
    <s:alias val="$pmux"/>
    <s:alias val="$mux"/>
    <s:alias val="$_MUX_"/>
    <path d="M0,0 L20,10 L20,30 L0,40 Z" class="cell_$procmux$4"/>
    <g s:x="0" s:y="10" s:pid="A"/>
    <g s:x="0" s:y="30" s:pid="B"/>
    <g s:x="10" s:y="35" s:pid="S"/>
    <g s:x="20" s:y="20" s:pid="Y"/>
  </g>
  <g s:type="mux" transform="translate(258.33333333333337,89.5)" s:width="20" s:height="40" id="cell_$procmux$6">
    <s:alias val="$pmux"/>
    <s:alias val="$mux"/>
    <s:alias val="$_MUX_"/>
    <path d="M0,0 L20,10 L20,30 L0,40 Z" class="cell_$procmux$6"/>
    <g s:x="0" s:y="10" s:pid="A"/>
    <g s:x="0" s:y="30" s:pid="B"/>
    <g s:x="10" s:y="35" s:pid="S"/>
    <g s:x="20" s:y="20" s:pid="Y"/>
  </g>
  <g s:type="sub" transform="translate(177.33333333333334,22)" s:width="25" s:height="25" id="cell_$sub$top_module.v:27$2">
    <s:alias val="$sub"/>
    <circle r="12.5" cx="12.5" cy="12.5" class="cell_$sub$top_module.v:27$2"/>
    <line x1="7.5" x2="17.5" y1="12.5" y2="12.5" class="cell_$sub$top_module.v:27$2"/>
    <g s:x="3" s:y="5" s:pid="A"/>
    <g s:x="3" s:y="20" s:pid="B"/>
    <g s:x="25" s:y="12.5" s:pid="Y"/>
  </g>
  <g s:type="inputExt" transform="translate(255,234)" s:width="30" s:height="20" id="cell_clk">
    <text x="15" y="-4" class="nodelabel cell_clk" s:attribute="ref">clk</text>
    <s:alias val="$_inputExt_"/>
    <path d="M0,0 L0,20 L15,20 L30,10 L15,0 Z" class="cell_clk"/>
    <g s:x="28" s:y="10" s:pid="Y"/>
  </g>
  <g s:type="inputExt" transform="translate(77,174)" s:width="30" s:height="20" id="cell_shift_ena">
    <text x="15" y="-4" class="nodelabel cell_shift_ena" s:attribute="ref">shift_ena</text>
    <s:alias val="$_inputExt_"/>
    <path d="M0,0 L0,20 L15,20 L30,10 L15,0 Z" class="cell_shift_ena"/>
    <g s:x="28" s:y="10" s:pid="Y"/>
  </g>
  <g s:type="inputExt" transform="translate(166,204)" s:width="30" s:height="20" id="cell_count_ena">
    <text x="15" y="-4" class="nodelabel cell_count_ena" s:attribute="ref">count_ena</text>
    <s:alias val="$_inputExt_"/>
    <path d="M0,0 L0,20 L15,20 L30,10 L15,0 Z" class="cell_count_ena"/>
    <g s:x="28" s:y="10" s:pid="Y"/>
  </g>
  <g s:type="inputExt" transform="translate(12,54)" s:width="30" s:height="20" id="cell_data">
    <text x="15" y="-4" class="nodelabel cell_data" s:attribute="ref">data</text>
    <s:alias val="$_inputExt_"/>
    <path d="M0,0 L0,20 L15,20 L30,10 L15,0 Z" class="cell_data"/>
    <g s:x="28" s:y="10" s:pid="Y"/>
  </g>
  <g s:type="outputExt" transform="translate(385,214)" s:width="30" s:height="20" id="cell_q">
    <text x="15" y="-4" class="nodelabel cell_q" s:attribute="ref">q</text>
    <s:alias val="$_outputExt_"/>
    <path d="M30,0 L30,20 L15,20 L0,10 L15,0 Z" class="cell_q"/>
    <g s:x="0" s:y="10" s:pid="A"/>
  </g>
  <g s:type="constant" transform="translate(77,32)" s:width="30" s:height="20" id="cell_1">
    <text x="15" y="-4" class="nodelabel cell_1" s:attribute="ref">1</text>
    <s:alias val="$_constant_"/>
    <rect width="30" height="20" class="cell_1"/>
    <g s:x="30" s:y="10" s:pid="Y"/>
  </g>
  <g s:type="join" transform="translate(96,89)" s:width="4" s:height="40" id="cell_$join$,5,6,7,8,">
    <rect width="5" height="40" class="splitjoinBody" s:generic="body"/>
    <s:alias val="$_join_"/>
    <g s:x="5" s:y="20" s:pid="out"/>
    <g transform="translate(0,10)" s:x="0" s:y="10" s:pid="in0">
      <text x="-3" y="-4" class="inputPortLabel">0</text>
    </g>
    <g transform="translate(0,30)" s:x="0" s:y="10" s:pid="in0">
      <text x="-3" y="-4" class="inputPortLabel">1:3</text>
    </g>
  </g>
  <g s:type="split" transform="translate(18,109)" s:width="5" s:height="40" id="cell_$split$,6,7,8,9,">
    <rect width="5" height="20" class="splitjoinBody" s:generic="body"/>
    <s:alias val="$_split_"/>
    <g s:x="0" s:y="20" s:pid="in"/>
    <g transform="translate(4,10)" s:x="4" s:y="10" s:pid="out0">
      <text x="5" y="-4">0:2</text>
    </g>
  </g>
  <line x1="283" x2="320" y1="244" y2="244" class="net_2"/>
  <line x1="278.33333333333337" x2="295" y1="109.5" y2="109.5" class="net_10,11,12,13"/>
  <line x1="295" x2="295" y1="109.5" y2="224" class="net_10,11,12,13"/>
  <line x1="295" x2="320" y1="224" y2="224" class="net_10,11,12,13"/>
  <line x1="350" x2="360" y1="224" y2="224" class="net_6,7,8,9"/>
  <line x1="360" x2="360" y1="224" y2="69.5" class="net_6,7,8,9"/>
  <line x1="360" x2="141" y1="69.5" y2="69.5" class="net_6,7,8,9"/>
  <line x1="141" x2="141" y1="69.5" y2="89.5" class="net_6,7,8,9"/>
  <line x1="141" x2="180.66666666666666" y1="89.5" y2="89.5" class="net_6,7,8,9"/>
  <line x1="350" x2="360" y1="224" y2="224" class="net_6,7,8,9"/>
  <line x1="360" x2="360" y1="224" y2="69.5" class="net_6,7,8,9"/>
  <line x1="360" x2="240" y1="69.5" y2="69.5" class="net_6,7,8,9"/>
  <line x1="240" x2="240" y1="69.5" y2="12" class="net_6,7,8,9"/>
  <line x1="240" x2="141" y1="12" y2="12" class="net_6,7,8,9"/>
  <line x1="141" x2="141" y1="12" y2="27" class="net_6,7,8,9"/>
  <circle cx="240" cy="69.5" r="2" style="fill:#000" class="net_6,7,8,9"/>
  <circle cx="360" cy="224" r="2" style="fill:#000" class="net_6,7,8,9"/>
  <line x1="141" x2="180.33333333333334" y1="27" y2="27" class="net_6,7,8,9"/>
  <line x1="350" x2="385" y1="224" y2="224" class="net_6,7,8,9"/>
  <line x1="350" x2="360" y1="224" y2="224" class="net_6,7,8,9"/>
  <line x1="360" x2="360" y1="224" y2="264" class="net_6,7,8,9"/>
  <line x1="360" x2="18.5" y1="264" y2="264" class="net_6,7,8,9"/>
  <line x1="18.5" x2="18.5" y1="264" y2="130" class="net_6,7,8,9"/>
  <line x1="102" x2="180.66666666666666" y1="109.5" y2="109.5" class="net_5,6,7,8"/>
  <line x1="105" x2="190.66666666666666" y1="184" y2="184" class="net_3"/>
  <line x1="190.66666666666666" x2="190.66666666666666" y1="184" y2="114.5" class="net_3"/>
  <line x1="200.66666666666666" x2="258.33333333333337" y1="99.5" y2="99.5" class="net_14,15,16,17"/>
  <line x1="202.33333333333334" x2="230" y1="34.5" y2="34.5" class="net_18,19,20,21"/>
  <line x1="230" x2="230" y1="34.5" y2="119.5" class="net_18,19,20,21"/>
  <line x1="230" x2="258.33333333333337" y1="119.5" y2="119.5" class="net_18,19,20,21"/>
  <line x1="194" x2="268.33333333333337" y1="214" y2="214" class="net_4"/>
  <line x1="268.33333333333337" x2="268.33333333333337" y1="214" y2="124.5" class="net_4"/>
  <line x1="107" x2="180.33333333333334" y1="42" y2="42" class="net_22"/>
  <line x1="40" x2="52" y1="64" y2="64" class="net_5"/>
  <line x1="52" x2="52" y1="64" y2="99.5" class="net_5"/>
  <line x1="52" x2="96" y1="99.5" y2="99.5" class="net_5"/>
  <line x1="23" x2="96" y1="119.5" y2="119.5" class="net_6,7,8"/>
</svg>
