<?xml version="1.0" encoding="UTF-8" standalone="no"?>
<!DOCTYPE svg PUBLIC "-//W3C//DTD SVG 1.1//EN"
 "http://www.w3.org/Graphics/SVG/1.1/DTD/svg11.dtd">
<!-- Generated by graphviz version 4.0.0 (20220529.0937)
 -->
<!-- Title: top_module Pages: 1 -->
<svg width="1278pt" height="984pt"
 viewBox="0.00 0.00 1277.72 984.00" xmlns="http://www.w3.org/2000/svg" xmlns:xlink="http://www.w3.org/1999/xlink">
<g id="graph0" class="graph" transform="scale(1 1) rotate(0) translate(4 980)">
<title>top_module</title>
<polygon fill="white" stroke="transparent" points="-4,4 -4,-980 1273.72,-980 1273.72,4 -4,4"/>
<text text-anchor="middle" x="634.86" y="-7.8" font-family="Times New Roman,serif" font-size="14.00">top_module</text>
<!-- n5 -->
<g id="node1" class="node">
<title>n5</title>
<polygon fill="none" stroke="black" points="57.25,-950.54 57.25,-965.46 41.43,-976 19.07,-976 3.25,-965.46 3.25,-950.54 19.07,-940 41.43,-940 57.25,-950.54"/>
<text text-anchor="middle" x="30.25" y="-954.3" font-family="Times New Roman,serif" font-size="14.00">clk</text>
</g>
<!-- c12 -->
<g id="node5" class="node">
<title>c12</title>
<polygon fill="none" stroke="black" points="97.5,-923 97.5,-969 208.5,-969 208.5,-923 97.5,-923"/>
<text text-anchor="middle" x="119.5" y="-953.8" font-family="Times New Roman,serif" font-size="14.00">CLK</text>
<polyline fill="none" stroke="black" points="97.5,-946 141.5,-946 "/>
<text text-anchor="middle" x="119.5" y="-930.8" font-family="Times New Roman,serif" font-size="14.00">D</text>
<polyline fill="none" stroke="black" points="141.5,-923 141.5,-969 "/>
<text text-anchor="middle" x="161.5" y="-949.8" font-family="Times New Roman,serif" font-size="14.00">$24</text>
<text text-anchor="middle" x="161.5" y="-934.8" font-family="Times New Roman,serif" font-size="14.00">$dff</text>
<polyline fill="none" stroke="black" points="181.5,-923 181.5,-969 "/>
<text text-anchor="middle" x="195" y="-942.3" font-family="Times New Roman,serif" font-size="14.00">Q</text>
</g>
<!-- n5&#45;&gt;c12 -->
<g id="edge26" class="edge">
<title>n5:e&#45;&gt;c12:w</title>
<path fill="none" stroke="#a6761d" d="M58.25,-958C71.74,-958 77.41,-958 87.35,-958"/>
<polygon fill="#a6761d" stroke="#a6761d" points="87.5,-961.5 97.5,-958 87.5,-954.5 87.5,-961.5"/>
</g>
<!-- n6 -->
<g id="node2" class="node">
<title>n6</title>
<polygon fill="none" stroke="black" points="1269.72,-906.54 1269.72,-921.46 1253.91,-932 1231.54,-932 1215.72,-921.46 1215.72,-906.54 1231.54,-896 1253.91,-896 1269.72,-906.54"/>
<text text-anchor="middle" x="1242.72" y="-910.3" font-family="Times New Roman,serif" font-size="14.00">q</text>
</g>
<!-- n7 -->
<g id="node3" class="node">
<title>n7</title>
<polygon fill="none" stroke="black" points="307.67,-596 275.33,-578 307.67,-560 340.01,-578 307.67,-596"/>
<text text-anchor="middle" x="307.67" y="-574.3" font-family="Times New Roman,serif" font-size="14.00">q_i</text>
</g>
<!-- x0 -->
<g id="node8" class="node">
<title>x0</title>
<path fill="none" stroke="black" d="M485.98,-404C485.98,-404 536.98,-404 536.98,-404 542.98,-404 548.98,-410 548.98,-416 548.98,-416 548.98,-428 548.98,-428 548.98,-434 542.98,-440 536.98,-440 536.98,-440 485.98,-440 485.98,-440 479.98,-440 473.98,-434 473.98,-428 473.98,-428 473.98,-416 473.98,-416 473.98,-410 479.98,-404 485.98,-404"/>
<text text-anchor="middle" x="511.48" y="-418.3" font-family="Times New Roman,serif" font-size="14.00">31:23 &#45; 8:0</text>
</g>
<!-- n7&#45;&gt;x0 -->
<g id="edge29" class="edge">
<title>n7:e&#45;&gt;x0:w</title>
<path fill="none" stroke="#a6761d" stroke-width="3" d="M339.84,-578C366.83,-578 343,-542.54 357.84,-520 392.76,-466.96 404.24,-426.47 462.34,-422.35"/>
<polygon fill="#a6761d" stroke="#a6761d" stroke-width="3" points="462.61,-425.84 472.48,-422 462.37,-418.84 462.61,-425.84"/>
<text text-anchor="middle" x="373.34" y="-523.8" font-family="Times New Roman,serif" font-size="14.00" fill="#a6761d">&lt;32&gt;</text>
</g>
<!-- x5 -->
<g id="node15" class="node">
<title>x5</title>
<path fill="none" stroke="black" d="M485.98,-294C485.98,-294 536.98,-294 536.98,-294 542.98,-294 548.98,-300 548.98,-306 548.98,-306 548.98,-318 548.98,-318 548.98,-324 542.98,-330 536.98,-330 536.98,-330 485.98,-330 485.98,-330 479.98,-330 473.98,-324 473.98,-318 473.98,-318 473.98,-306 473.98,-306 473.98,-300 479.98,-294 485.98,-294"/>
<text text-anchor="middle" x="511.48" y="-308.3" font-family="Times New Roman,serif" font-size="14.00">21:3 &#45; 18:0</text>
</g>
<!-- n7&#45;&gt;x5 -->
<g id="edge38" class="edge">
<title>n7:e&#45;&gt;x5:w</title>
<path fill="none" stroke="#a6761d" stroke-width="3" d="M339.84,-578C367.91,-578 350.19,-480 357.84,-453 378.91,-378.63 390.68,-317.47 462.45,-312.35"/>
<polygon fill="#a6761d" stroke="#a6761d" stroke-width="3" points="462.61,-315.84 472.48,-312 462.37,-308.85 462.61,-315.84"/>
<text text-anchor="middle" x="373.34" y="-456.8" font-family="Times New Roman,serif" font-size="14.00" fill="#a6761d">&lt;32&gt;</text>
</g>
<!-- x12 -->
<g id="node25" class="node">
<title>x12</title>
<path fill="none" stroke="black" d="M492.48,-811C492.48,-811 530.48,-811 530.48,-811 536.48,-811 542.48,-817 542.48,-823 542.48,-823 542.48,-835 542.48,-835 542.48,-841 536.48,-847 530.48,-847 530.48,-847 492.48,-847 492.48,-847 486.48,-847 480.48,-841 480.48,-835 480.48,-835 480.48,-823 480.48,-823 480.48,-817 486.48,-811 492.48,-811"/>
<text text-anchor="middle" x="511.48" y="-825.3" font-family="Times New Roman,serif" font-size="14.00">0:0 &#45; 0:0</text>
</g>
<!-- n7&#45;&gt;x12 -->
<g id="edge30" class="edge">
<title>n7:e&#45;&gt;x12:w</title>
<path fill="none" stroke="#a6761d" stroke-width="3" d="M339.84,-578C360.02,-578 352.36,-647.58 357.84,-667 375.06,-728.03 362.39,-755.77 406.84,-801 428.54,-823.07 441.86,-828.06 469.19,-828.87"/>
<polygon fill="#a6761d" stroke="#a6761d" stroke-width="3" points="469.44,-832.37 479.48,-829 469.53,-825.37 469.44,-832.37"/>
<text text-anchor="middle" x="373.34" y="-781.8" font-family="Times New Roman,serif" font-size="14.00" fill="#a6761d">&lt;32&gt;</text>
</g>
<!-- x15 -->
<g id="node28" class="node">
<title>x15</title>
<path fill="none" stroke="black" d="M492.48,-553C492.48,-553 530.48,-553 530.48,-553 536.48,-553 542.48,-559 542.48,-565 542.48,-565 542.48,-577 542.48,-577 542.48,-583 536.48,-589 530.48,-589 530.48,-589 492.48,-589 492.48,-589 486.48,-589 480.48,-583 480.48,-577 480.48,-577 480.48,-565 480.48,-565 480.48,-559 486.48,-553 492.48,-553"/>
<text text-anchor="middle" x="511.48" y="-567.3" font-family="Times New Roman,serif" font-size="14.00">1:1 &#45; 0:0</text>
</g>
<!-- n7&#45;&gt;x15 -->
<g id="edge31" class="edge">
<title>n7:e&#45;&gt;x15:w</title>
<path fill="none" stroke="#a6761d" stroke-width="3" d="M339.84,-578C398.46,-578 415.45,-571.77 469.36,-571.06"/>
<polygon fill="#a6761d" stroke="#a6761d" stroke-width="3" points="469.5,-574.56 479.48,-571 469.46,-567.56 469.5,-574.56"/>
<text text-anchor="middle" x="373.34" y="-581.8" font-family="Times New Roman,serif" font-size="14.00" fill="#a6761d">&lt;32&gt;</text>
</g>
<!-- x16 -->
<g id="node29" class="node">
<title>x16</title>
<path fill="none" stroke="black" d="M492.48,-498C492.48,-498 530.48,-498 530.48,-498 536.48,-498 542.48,-504 542.48,-510 542.48,-510 542.48,-522 542.48,-522 542.48,-528 536.48,-534 530.48,-534 530.48,-534 492.48,-534 492.48,-534 486.48,-534 480.48,-528 480.48,-522 480.48,-522 480.48,-510 480.48,-510 480.48,-504 486.48,-498 492.48,-498"/>
<text text-anchor="middle" x="511.48" y="-512.3" font-family="Times New Roman,serif" font-size="14.00">0:0 &#45; 0:0</text>
</g>
<!-- n7&#45;&gt;x16 -->
<g id="edge32" class="edge">
<title>n7:e&#45;&gt;x16:w</title>
<path fill="none" stroke="#a6761d" stroke-width="3" d="M339.84,-578C351.8,-578 347.87,-564.61 357.84,-558 402.54,-528.38 420.07,-517.38 469.21,-516.12"/>
<polygon fill="#a6761d" stroke="#a6761d" stroke-width="3" points="469.53,-519.62 479.48,-516 469.44,-512.62 469.53,-519.62"/>
<text text-anchor="middle" x="373.34" y="-561.8" font-family="Times New Roman,serif" font-size="14.00" fill="#a6761d">&lt;32&gt;</text>
</g>
<!-- x17 -->
<g id="node31" class="node">
<title>x17</title>
<path fill="none" stroke="black" d="M492.48,-146C492.48,-146 530.48,-146 530.48,-146 536.48,-146 542.48,-152 542.48,-158 542.48,-158 542.48,-170 542.48,-170 542.48,-176 536.48,-182 530.48,-182 530.48,-182 492.48,-182 492.48,-182 486.48,-182 480.48,-176 480.48,-170 480.48,-170 480.48,-158 480.48,-158 480.48,-152 486.48,-146 492.48,-146"/>
<text text-anchor="middle" x="511.48" y="-160.3" font-family="Times New Roman,serif" font-size="14.00">2:2 &#45; 0:0</text>
</g>
<!-- n7&#45;&gt;x17 -->
<g id="edge33" class="edge">
<title>n7:e&#45;&gt;x17:w</title>
<path fill="none" stroke="#a6761d" stroke-width="3" d="M339.84,-578C365.92,-578 352.81,-369.59 357.84,-344 371.55,-274.36 358.08,-243.58 406.84,-192 428.11,-169.51 441.77,-164.85 469.18,-164.12"/>
<polygon fill="#a6761d" stroke="#a6761d" stroke-width="3" points="469.52,-167.61 479.48,-164 469.44,-160.61 469.52,-167.61"/>
<text text-anchor="middle" x="373.34" y="-347.8" font-family="Times New Roman,serif" font-size="14.00" fill="#a6761d">&lt;32&gt;</text>
</g>
<!-- x18 -->
<g id="node32" class="node">
<title>x18</title>
<path fill="none" stroke="black" d="M492.48,-52C492.48,-52 530.48,-52 530.48,-52 536.48,-52 542.48,-58 542.48,-64 542.48,-64 542.48,-76 542.48,-76 542.48,-82 536.48,-88 530.48,-88 530.48,-88 492.48,-88 492.48,-88 486.48,-88 480.48,-82 480.48,-76 480.48,-76 480.48,-64 480.48,-64 480.48,-58 486.48,-52 492.48,-52"/>
<text text-anchor="middle" x="511.48" y="-66.3" font-family="Times New Roman,serif" font-size="14.00">0:0 &#45; 0:0</text>
</g>
<!-- n7&#45;&gt;x18 -->
<g id="edge34" class="edge">
<title>n7:e&#45;&gt;x18:w</title>
<path fill="none" stroke="#a6761d" stroke-width="3" d="M339.84,-578C361.03,-578 350.34,-216.82 357.84,-197 384.28,-127.19 399.88,-74.88 469.32,-70.32"/>
<polygon fill="#a6761d" stroke="#a6761d" stroke-width="3" points="469.6,-73.82 479.48,-70 469.38,-66.82 469.6,-73.82"/>
<text text-anchor="middle" x="373.34" y="-200.8" font-family="Times New Roman,serif" font-size="14.00" fill="#a6761d">&lt;32&gt;</text>
</g>
<!-- x19 -->
<g id="node34" class="node">
<title>x19</title>
<path fill="none" stroke="black" d="M485.98,-663C485.98,-663 536.98,-663 536.98,-663 542.98,-663 548.98,-669 548.98,-675 548.98,-675 548.98,-687 548.98,-687 548.98,-693 542.98,-699 536.98,-699 536.98,-699 485.98,-699 485.98,-699 479.98,-699 473.98,-693 473.98,-687 473.98,-687 473.98,-675 473.98,-675 473.98,-669 479.98,-663 485.98,-663"/>
<text text-anchor="middle" x="511.48" y="-677.3" font-family="Times New Roman,serif" font-size="14.00">22:22 &#45; 0:0</text>
</g>
<!-- n7&#45;&gt;x19 -->
<g id="edge35" class="edge">
<title>n7:e&#45;&gt;x19:w</title>
<path fill="none" stroke="#a6761d" stroke-width="3" d="M339.84,-578C365.14,-578 340.71,-613.38 357.84,-632 362.28,-636.82 434.9,-668.96 462.65,-678.4"/>
<polygon fill="#a6761d" stroke="#a6761d" stroke-width="3" points="461.92,-681.83 472.48,-681 463.71,-675.06 461.92,-681.83"/>
<text text-anchor="middle" x="373.34" y="-651.8" font-family="Times New Roman,serif" font-size="14.00" fill="#a6761d">&lt;32&gt;</text>
</g>
<!-- x20 -->
<g id="node35" class="node">
<title>x20</title>
<path fill="none" stroke="black" d="M492.48,-608C492.48,-608 530.48,-608 530.48,-608 536.48,-608 542.48,-614 542.48,-620 542.48,-620 542.48,-632 542.48,-632 542.48,-638 536.48,-644 530.48,-644 530.48,-644 492.48,-644 492.48,-644 486.48,-644 480.48,-638 480.48,-632 480.48,-632 480.48,-620 480.48,-620 480.48,-614 486.48,-608 492.48,-608"/>
<text text-anchor="middle" x="511.48" y="-622.3" font-family="Times New Roman,serif" font-size="14.00">0:0 &#45; 0:0</text>
</g>
<!-- n7&#45;&gt;x20 -->
<g id="edge36" class="edge">
<title>n7:e&#45;&gt;x20:w</title>
<path fill="none" stroke="#a6761d" stroke-width="3" d="M339.84,-578C351.47,-578 347.77,-591.19 357.84,-597 402.88,-622.98 421.47,-625.73 469.19,-625.98"/>
<polygon fill="#a6761d" stroke="#a6761d" stroke-width="3" points="469.47,-629.48 479.48,-626 469.49,-622.48 469.47,-629.48"/>
<text text-anchor="middle" x="373.34" y="-616.8" font-family="Times New Roman,serif" font-size="14.00" fill="#a6761d">&lt;32&gt;</text>
</g>
<!-- x21 -->
<g id="node36" class="node">
<title>x21</title>
<path fill="none" stroke="black" d="M676.12,-932C676.12,-932 646.12,-932 646.12,-932 640.12,-932 634.12,-926 634.12,-920 634.12,-920 634.12,-908 634.12,-908 634.12,-902 640.12,-896 646.12,-896 646.12,-896 676.12,-896 676.12,-896 682.12,-896 688.12,-902 688.12,-908 688.12,-908 688.12,-920 688.12,-920 688.12,-926 682.12,-932 676.12,-932"/>
<text text-anchor="middle" x="661.12" y="-910.3" font-family="Times New Roman,serif" font-size="14.00">BUF</text>
</g>
<!-- n7&#45;&gt;x21 -->
<g id="edge37" class="edge">
<title>n7:e&#45;&gt;x21:w</title>
<path fill="none" stroke="#a6761d" stroke-width="3" d="M339.84,-578C364.26,-578 348.61,-774.4 357.84,-797 406.96,-917.32 496.1,-914.24 624.04,-914.01"/>
<polygon fill="#a6761d" stroke="#a6761d" stroke-width="3" points="624.13,-917.51 634.12,-914 624.12,-910.51 624.13,-917.51"/>
<text text-anchor="middle" x="373.34" y="-853.8" font-family="Times New Roman,serif" font-size="14.00" fill="#a6761d">&lt;32&gt;</text>
</g>
<!-- n8 -->
<g id="node4" class="node">
<title>n8</title>
<polygon fill="none" stroke="black" points="60.25,-359.54 60.25,-374.46 42.68,-385 17.82,-385 0.25,-374.46 0.25,-359.54 17.82,-349 42.68,-349 60.25,-359.54"/>
<text text-anchor="middle" x="30.25" y="-363.3" font-family="Times New Roman,serif" font-size="14.00">reset</text>
</g>
<!-- c17 -->
<g id="node7" class="node">
<title>c17</title>
<polygon fill="none" stroke="black" points="706.12,-342.5 706.12,-411.5 805.12,-411.5 805.12,-342.5 706.12,-342.5"/>
<text text-anchor="middle" x="719.12" y="-396.3" font-family="Times New Roman,serif" font-size="14.00">A</text>
<polyline fill="none" stroke="black" points="706.12,-388.5 732.12,-388.5 "/>
<text text-anchor="middle" x="719.12" y="-373.3" font-family="Times New Roman,serif" font-size="14.00">B</text>
<polyline fill="none" stroke="black" points="706.12,-365.5 732.12,-365.5 "/>
<text text-anchor="middle" x="719.12" y="-350.3" font-family="Times New Roman,serif" font-size="14.00">S</text>
<polyline fill="none" stroke="black" points="732.12,-342.5 732.12,-411.5 "/>
<text text-anchor="middle" x="755.62" y="-380.8" font-family="Times New Roman,serif" font-size="14.00">$10</text>
<text text-anchor="middle" x="755.62" y="-365.8" font-family="Times New Roman,serif" font-size="14.00">$mux</text>
<polyline fill="none" stroke="black" points="779.12,-342.5 779.12,-411.5 "/>
<text text-anchor="middle" x="792.12" y="-373.3" font-family="Times New Roman,serif" font-size="14.00">Y</text>
</g>
<!-- n8&#45;&gt;c17 -->
<g id="edge39" class="edge">
<title>n8:e&#45;&gt;c17:w</title>
<path fill="none" stroke="#e6ab02" d="M60.5,-367C121.4,-367 91.1,-265 152,-265 152,-265 152,-265 512.48,-265 590.79,-265 628.6,-228.11 688.12,-279 710.72,-298.32 681.88,-340.53 696.18,-351.4"/>
<polygon fill="#e6ab02" stroke="#e6ab02" points="695.56,-354.86 706.12,-354 697.33,-348.09 695.56,-354.86"/>
</g>
<!-- c18 -->
<g id="node11" class="node">
<title>c18</title>
<polygon fill="none" stroke="black" points="872.12,-638.5 872.12,-707.5 971.12,-707.5 971.12,-638.5 872.12,-638.5"/>
<text text-anchor="middle" x="885.12" y="-692.3" font-family="Times New Roman,serif" font-size="14.00">A</text>
<polyline fill="none" stroke="black" points="872.12,-684.5 898.12,-684.5 "/>
<text text-anchor="middle" x="885.12" y="-669.3" font-family="Times New Roman,serif" font-size="14.00">B</text>
<polyline fill="none" stroke="black" points="872.12,-661.5 898.12,-661.5 "/>
<text text-anchor="middle" x="885.12" y="-646.3" font-family="Times New Roman,serif" font-size="14.00">S</text>
<polyline fill="none" stroke="black" points="898.12,-638.5 898.12,-707.5 "/>
<text text-anchor="middle" x="921.62" y="-676.8" font-family="Times New Roman,serif" font-size="14.00">$13</text>
<text text-anchor="middle" x="921.62" y="-661.8" font-family="Times New Roman,serif" font-size="14.00">$mux</text>
<polyline fill="none" stroke="black" points="945.12,-638.5 945.12,-707.5 "/>
<text text-anchor="middle" x="958.12" y="-669.3" font-family="Times New Roman,serif" font-size="14.00">Y</text>
</g>
<!-- n8&#45;&gt;c18 -->
<g id="edge40" class="edge">
<title>n8:e&#45;&gt;c18:w</title>
<path fill="none" stroke="#e6ab02" d="M60.5,-367C101.88,-367 110.62,-728 152,-728 152,-728 152,-728 756.62,-728 807.27,-728 816.8,-703.24 854.12,-669 859.21,-664.33 860.5,-658.51 863.15,-654.55"/>
<polygon fill="#e6ab02" stroke="#e6ab02" points="864.78,-657.64 872.12,-650 861.62,-651.4 864.78,-657.64"/>
</g>
<!-- c19 -->
<g id="node14" class="node">
<title>c19</title>
<polygon fill="none" stroke="black" points="706.12,-209.5 706.12,-278.5 805.12,-278.5 805.12,-209.5 706.12,-209.5"/>
<text text-anchor="middle" x="719.12" y="-263.3" font-family="Times New Roman,serif" font-size="14.00">A</text>
<polyline fill="none" stroke="black" points="706.12,-255.5 732.12,-255.5 "/>
<text text-anchor="middle" x="719.12" y="-240.3" font-family="Times New Roman,serif" font-size="14.00">B</text>
<polyline fill="none" stroke="black" points="706.12,-232.5 732.12,-232.5 "/>
<text text-anchor="middle" x="719.12" y="-217.3" font-family="Times New Roman,serif" font-size="14.00">S</text>
<polyline fill="none" stroke="black" points="732.12,-209.5 732.12,-278.5 "/>
<text text-anchor="middle" x="755.62" y="-247.8" font-family="Times New Roman,serif" font-size="14.00">$16</text>
<text text-anchor="middle" x="755.62" y="-232.8" font-family="Times New Roman,serif" font-size="14.00">$mux</text>
<polyline fill="none" stroke="black" points="779.12,-209.5 779.12,-278.5 "/>
<text text-anchor="middle" x="792.12" y="-240.3" font-family="Times New Roman,serif" font-size="14.00">Y</text>
</g>
<!-- n8&#45;&gt;c19 -->
<g id="edge41" class="edge">
<title>n8:e&#45;&gt;c19:w</title>
<path fill="none" stroke="#e6ab02" d="M60.5,-367C85.45,-367 88.97,-284.45 97.5,-261 120.89,-196.69 83.57,-117 152,-117 152,-117 152,-117 512.48,-117 559.31,-117 574.35,-114.83 616.12,-136 637.88,-147.03 670.19,-205.33 696.41,-218.4"/>
<polygon fill="#e6ab02" stroke="#e6ab02" points="695.56,-221.8 706.12,-221 697.37,-215.03 695.56,-221.8"/>
</g>
<!-- c20 -->
<g id="node18" class="node">
<title>c20</title>
<polygon fill="none" stroke="black" points="872.12,-53.5 872.12,-122.5 971.12,-122.5 971.12,-53.5 872.12,-53.5"/>
<text text-anchor="middle" x="885.12" y="-107.3" font-family="Times New Roman,serif" font-size="14.00">A</text>
<polyline fill="none" stroke="black" points="872.12,-99.5 898.12,-99.5 "/>
<text text-anchor="middle" x="885.12" y="-84.3" font-family="Times New Roman,serif" font-size="14.00">B</text>
<polyline fill="none" stroke="black" points="872.12,-76.5 898.12,-76.5 "/>
<text text-anchor="middle" x="885.12" y="-61.3" font-family="Times New Roman,serif" font-size="14.00">S</text>
<polyline fill="none" stroke="black" points="898.12,-53.5 898.12,-122.5 "/>
<text text-anchor="middle" x="921.62" y="-91.8" font-family="Times New Roman,serif" font-size="14.00">$19</text>
<text text-anchor="middle" x="921.62" y="-76.8" font-family="Times New Roman,serif" font-size="14.00">$mux</text>
<polyline fill="none" stroke="black" points="945.12,-53.5 945.12,-122.5 "/>
<text text-anchor="middle" x="958.12" y="-84.3" font-family="Times New Roman,serif" font-size="14.00">Y</text>
</g>
<!-- n8&#45;&gt;c20 -->
<g id="edge42" class="edge">
<title>n8:e&#45;&gt;c20:w</title>
<path fill="none" stroke="#e6ab02" d="M60.5,-367C89.02,-367 87.87,-139.84 97.5,-113 113.3,-68.99 105.24,-23 152,-23 152,-23 152,-23 756.62,-23 807.62,-23 816.46,-59.61 861.85,-64.47"/>
<polygon fill="#e6ab02" stroke="#e6ab02" points="861.96,-67.98 872.12,-65 862.32,-60.99 861.96,-67.98"/>
</g>
<!-- c21 -->
<g id="node21" class="node">
<title>c21</title>
<polygon fill="none" stroke="black" points="872.12,-461.5 872.12,-530.5 971.12,-530.5 971.12,-461.5 872.12,-461.5"/>
<text text-anchor="middle" x="885.12" y="-515.3" font-family="Times New Roman,serif" font-size="14.00">A</text>
<polyline fill="none" stroke="black" points="872.12,-507.5 898.12,-507.5 "/>
<text text-anchor="middle" x="885.12" y="-492.3" font-family="Times New Roman,serif" font-size="14.00">B</text>
<polyline fill="none" stroke="black" points="872.12,-484.5 898.12,-484.5 "/>
<text text-anchor="middle" x="885.12" y="-469.3" font-family="Times New Roman,serif" font-size="14.00">S</text>
<polyline fill="none" stroke="black" points="898.12,-461.5 898.12,-530.5 "/>
<text text-anchor="middle" x="921.62" y="-499.8" font-family="Times New Roman,serif" font-size="14.00">$22</text>
<text text-anchor="middle" x="921.62" y="-484.8" font-family="Times New Roman,serif" font-size="14.00">$mux</text>
<polyline fill="none" stroke="black" points="945.12,-461.5 945.12,-530.5 "/>
<text text-anchor="middle" x="958.12" y="-492.3" font-family="Times New Roman,serif" font-size="14.00">Y</text>
</g>
<!-- n8&#45;&gt;c21 -->
<g id="edge43" class="edge">
<title>n8:e&#45;&gt;c21:w</title>
<path fill="none" stroke="#e6ab02" d="M60.5,-367C90.95,-367 121.55,-469 152,-469 152,-469 152,-469 374.34,-469 565.8,-469 613.75,-463.29 805.12,-469 831.21,-469.78 840.1,-472.26 861.9,-472.86"/>
<polygon fill="#e6ab02" stroke="#e6ab02" points="862.08,-476.37 872.12,-473 862.17,-469.37 862.08,-476.37"/>
</g>
<!-- c22 -->
<g id="node24" class="node">
<title>c22</title>
<polygon fill="none" stroke="black" points="706.12,-812.5 706.12,-881.5 805.12,-881.5 805.12,-812.5 706.12,-812.5"/>
<text text-anchor="middle" x="719.12" y="-866.3" font-family="Times New Roman,serif" font-size="14.00">A</text>
<polyline fill="none" stroke="black" points="706.12,-858.5 732.12,-858.5 "/>
<text text-anchor="middle" x="719.12" y="-843.3" font-family="Times New Roman,serif" font-size="14.00">B</text>
<polyline fill="none" stroke="black" points="706.12,-835.5 732.12,-835.5 "/>
<text text-anchor="middle" x="719.12" y="-820.3" font-family="Times New Roman,serif" font-size="14.00">S</text>
<polyline fill="none" stroke="black" points="732.12,-812.5 732.12,-881.5 "/>
<text text-anchor="middle" x="755.62" y="-850.8" font-family="Times New Roman,serif" font-size="14.00">$7</text>
<text text-anchor="middle" x="755.62" y="-835.8" font-family="Times New Roman,serif" font-size="14.00">$mux</text>
<polyline fill="none" stroke="black" points="779.12,-812.5 779.12,-881.5 "/>
<text text-anchor="middle" x="792.12" y="-843.3" font-family="Times New Roman,serif" font-size="14.00">Y</text>
</g>
<!-- n8&#45;&gt;c22 -->
<g id="edge44" class="edge">
<title>n8:e&#45;&gt;c22:w</title>
<path fill="none" stroke="#e6ab02" d="M60.5,-367C81.36,-367 72.84,-721.93 78.5,-742 96.93,-807.38 84.07,-876 152,-876 152,-876 152,-876 374.34,-876 482.17,-876 510.71,-878.7 616.12,-856 654.06,-847.83 662.37,-827.86 695.94,-824.49"/>
<polygon fill="#e6ab02" stroke="#e6ab02" points="696.3,-827.97 706.12,-824 695.97,-820.98 696.3,-827.97"/>
</g>
<!-- c12&#45;&gt;n7 -->
<g id="edge28" class="edge">
<title>c12:e&#45;&gt;n7:w</title>
<path fill="none" stroke="#a6761d" stroke-width="3" d="M208.5,-946C246.98,-946 236.01,-630.6 267.15,-583.78"/>
<polygon fill="#a6761d" stroke="#a6761d" stroke-width="3" points="269.27,-586.57 275.5,-578 265.29,-580.82 269.27,-586.57"/>
<text text-anchor="middle" x="242" y="-911.8" font-family="Times New Roman,serif" font-size="14.00" fill="#a6761d">&lt;32&gt;</text>
</g>
<!-- v1 -->
<g id="node6" class="node">
<title>v1</title>
<ellipse fill="none" stroke="black" cx="511.48" cy="-367" rx="56.59" ry="18"/>
<text text-anchor="middle" x="511.48" y="-363.3" font-family="Times New Roman,serif" font-size="14.00">9&#39;000000000</text>
</g>
<!-- v1&#45;&gt;c17 -->
<g id="edge45" class="edge">
<title>v1:e&#45;&gt;c17:w</title>
<path fill="none" stroke="#1b9e77" stroke-width="3" d="M569.48,-367C626.81,-367 643.33,-375.86 695.87,-376.9"/>
<polygon fill="#1b9e77" stroke="#1b9e77" stroke-width="3" points="696.09,-380.4 706.12,-377 696.16,-373.4 696.09,-380.4"/>
<text text-anchor="middle" x="661.12" y="-380.8" font-family="Times New Roman,serif" font-size="14.00" fill="#1b9e77">&lt;9&gt;</text>
</g>
<!-- x2 -->
<g id="node9" class="node">
<title>x2</title>
<path fill="none" stroke="black" d="M1001.12,-388C1001.12,-388 1052.12,-388 1052.12,-388 1058.12,-388 1064.12,-394 1064.12,-400 1064.12,-400 1064.12,-412 1064.12,-412 1064.12,-418 1058.12,-424 1052.12,-424 1052.12,-424 1001.12,-424 1001.12,-424 995.12,-424 989.12,-418 989.12,-412 989.12,-412 989.12,-400 989.12,-400 989.12,-394 995.12,-388 1001.12,-388"/>
<text text-anchor="middle" x="1026.62" y="-402.3" font-family="Times New Roman,serif" font-size="14.00">8:0 &#45; 30:22</text>
</g>
<!-- c17&#45;&gt;x2 -->
<g id="edge2" class="edge">
<title>c17:e&#45;&gt;x2:w</title>
<path fill="none" stroke="#1b9e77" stroke-width="3" d="M817.25,-377.22C885.97,-379.73 908.13,-403.21 976.73,-405.77"/>
<polygon fill="none" stroke="#1b9e77" stroke-width="3" points="817.12,-377.21 811.05,-381.11 805.12,-377 811.19,-373.11 817.12,-377.21"/>
<polygon fill="none" stroke="#1b9e77" stroke-width="3" points="977.12,-405.78 983.2,-401.89 989.12,-406 983.05,-409.89 977.12,-405.78"/>
<text text-anchor="middle" x="838.62" y="-384.8" font-family="Times New Roman,serif" font-size="14.00" fill="#1b9e77">&lt;9&gt;</text>
</g>
<!-- x0&#45;&gt;c17 -->
<g id="edge1" class="edge">
<title>x0:e&#45;&gt;c17:w</title>
<path fill="none" stroke="#66a61e" stroke-width="3" d="M562.6,-421.77C618.61,-419.57 637.99,-402.43 694,-400.23"/>
<polygon fill="none" stroke="#66a61e" stroke-width="3" points="562.48,-421.77 556.56,-425.88 550.48,-422 556.4,-417.89 562.48,-421.77"/>
<polygon fill="none" stroke="#66a61e" stroke-width="3" points="694.12,-400.23 700.05,-396.12 706.12,-400 700.2,-404.11 694.12,-400.23"/>
<text text-anchor="middle" x="661.12" y="-413.8" font-family="Times New Roman,serif" font-size="14.00" fill="#66a61e">&lt;9&gt;</text>
</g>
<!-- n1 -->
<g id="node37" class="node">
<title>n1</title>
<ellipse fill="black" stroke="black" cx="1195.92" cy="-496" rx="1.8" ry="1.8"/>
</g>
<!-- x2&#45;&gt;n1 -->
<g id="edge18" class="edge">
<title>x2:e&#45;&gt;n1:w</title>
<path fill="none" stroke="#1b9e77" d="M1064.12,-406C1113.8,-406 1116.63,-439.22 1157.12,-468 1170.65,-477.61 1173.01,-489.89 1184.16,-494.31"/>
<polygon fill="#1b9e77" stroke="#1b9e77" points="1183.68,-497.78 1194.12,-496 1184.85,-490.88 1183.68,-497.78"/>
</g>
<!-- v3 -->
<g id="node10" class="node">
<title>v3</title>
<ellipse fill="none" stroke="black" cx="755.62" cy="-616" rx="27" ry="18"/>
<text text-anchor="middle" x="755.62" y="-612.3" font-family="Times New Roman,serif" font-size="14.00">1&#39;0</text>
</g>
<!-- v3&#45;&gt;c18 -->
<g id="edge48" class="edge">
<title>v3:e&#45;&gt;c18:w</title>
<path fill="none" stroke="#7570b3" d="M783.62,-616C826.75,-616 825.81,-664.44 862.06,-672.01"/>
<polygon fill="#7570b3" stroke="#7570b3" points="861.83,-675.5 872.12,-673 862.51,-668.54 861.83,-675.5"/>
</g>
<!-- x4 -->
<g id="node12" class="node">
<title>x4</title>
<path fill="none" stroke="black" d="M1094.12,-565C1094.12,-565 1145.12,-565 1145.12,-565 1151.12,-565 1157.12,-571 1157.12,-577 1157.12,-577 1157.12,-589 1157.12,-589 1157.12,-595 1151.12,-601 1145.12,-601 1145.12,-601 1094.12,-601 1094.12,-601 1088.12,-601 1082.12,-595 1082.12,-589 1082.12,-589 1082.12,-577 1082.12,-577 1082.12,-571 1088.12,-565 1094.12,-565"/>
<text text-anchor="middle" x="1119.62" y="-579.3" font-family="Times New Roman,serif" font-size="14.00">0:0 &#45; 21:21</text>
</g>
<!-- c18&#45;&gt;x4 -->
<g id="edge3" class="edge">
<title>c18:e&#45;&gt;x4:w</title>
<path fill="none" stroke="#1b9e77" d="M983.08,-671.8C1029.12,-661.91 1024.09,-594.22 1070.04,-584.23"/>
<polygon fill="none" stroke="#1b9e77" points="983.06,-671.8 977.49,-676.38 971.12,-673 976.69,-668.42 983.06,-671.8"/>
<polygon fill="none" stroke="#1b9e77" points="1070.18,-584.22 1075.75,-579.63 1082.12,-583 1076.56,-587.59 1070.18,-584.22"/>
</g>
<!-- x4&#45;&gt;n1 -->
<g id="edge19" class="edge">
<title>x4:e&#45;&gt;n1:w</title>
<path fill="none" stroke="#1b9e77" d="M1157.12,-583C1195.04,-583 1160.44,-512.16 1184.19,-498.33"/>
<polygon fill="#1b9e77" stroke="#1b9e77" points="1185.19,-501.69 1194.12,-496 1183.59,-494.87 1185.19,-501.69"/>
</g>
<!-- v6 -->
<g id="node13" class="node">
<title>v6</title>
<ellipse fill="none" stroke="black" cx="511.48" cy="-219" rx="104.78" ry="18"/>
<text text-anchor="middle" x="511.48" y="-215.3" font-family="Times New Roman,serif" font-size="14.00">19&#39;0000000000000000000</text>
</g>
<!-- v6&#45;&gt;c19 -->
<g id="edge49" class="edge">
<title>v6:e&#45;&gt;c19:w</title>
<path fill="none" stroke="#e6ab02" stroke-width="3" d="M616.12,-219C649,-219 656.96,-225.5 688.12,-236 692.01,-237.31 694.29,-239.15 696.51,-240.74"/>
<polygon fill="#e6ab02" stroke="#e6ab02" stroke-width="3" points="695.53,-244.1 706.12,-244 697.78,-237.47 695.53,-244.1"/>
<text text-anchor="middle" x="661.12" y="-239.8" font-family="Times New Roman,serif" font-size="14.00" fill="#e6ab02">&lt;19&gt;</text>
</g>
<!-- x7 -->
<g id="node16" class="node">
<title>x7</title>
<path fill="none" stroke="black" d="M1001.12,-272C1001.12,-272 1052.12,-272 1052.12,-272 1058.12,-272 1064.12,-278 1064.12,-284 1064.12,-284 1064.12,-296 1064.12,-296 1064.12,-302 1058.12,-308 1052.12,-308 1052.12,-308 1001.12,-308 1001.12,-308 995.12,-308 989.12,-302 989.12,-296 989.12,-296 989.12,-284 989.12,-284 989.12,-278 995.12,-272 1001.12,-272"/>
<text text-anchor="middle" x="1026.62" y="-286.3" font-family="Times New Roman,serif" font-size="14.00">18:0 &#45; 20:2</text>
</g>
<!-- c19&#45;&gt;x7 -->
<g id="edge5" class="edge">
<title>c19:e&#45;&gt;x7:w</title>
<path fill="none" stroke="#e7298a" stroke-width="3" d="M817.45,-244.34C887.27,-248.33 907.06,-285.73 976.96,-289.67"/>
<polygon fill="none" stroke="#e7298a" stroke-width="3" points="817.12,-244.33 811.01,-248.17 805.12,-244 811.23,-240.17 817.12,-244.33"/>
<polygon fill="none" stroke="#e7298a" stroke-width="3" points="977.13,-289.67 983.24,-285.84 989.12,-290 983.02,-293.83 977.13,-289.67"/>
<text text-anchor="middle" x="838.62" y="-254.8" font-family="Times New Roman,serif" font-size="14.00" fill="#e7298a">&lt;19&gt;</text>
</g>
<!-- x5&#45;&gt;c19 -->
<g id="edge4" class="edge">
<title>x5:e&#45;&gt;c19:w</title>
<path fill="none" stroke="#7570b3" stroke-width="3" d="M562.54,-311.55C620.21,-307.17 636.37,-271.85 694.02,-267.45"/>
<polygon fill="none" stroke="#7570b3" stroke-width="3" points="562.47,-311.56 556.63,-315.78 550.48,-312 556.33,-307.78 562.47,-311.56"/>
<polygon fill="none" stroke="#7570b3" stroke-width="3" points="694.13,-267.44 699.98,-263.23 706.12,-267 700.28,-271.22 694.13,-267.44"/>
<text text-anchor="middle" x="661.12" y="-289.8" font-family="Times New Roman,serif" font-size="14.00" fill="#7570b3">&lt;19&gt;</text>
</g>
<!-- x7&#45;&gt;n1 -->
<g id="edge20" class="edge">
<title>x7:e&#45;&gt;n1:w</title>
<path fill="none" stroke="#1b9e77" d="M1064.12,-290C1129.51,-290 1123.88,-347.69 1157.12,-404 1166.58,-420.01 1170.73,-474.5 1185.03,-491.14"/>
<polygon fill="#1b9e77" stroke="#1b9e77" points="1183.65,-494.37 1194.12,-496 1186.96,-488.2 1183.65,-494.37"/>
</g>
<!-- v8 -->
<g id="node17" class="node">
<title>v8</title>
<ellipse fill="none" stroke="black" cx="755.62" cy="-78" rx="27" ry="18"/>
<text text-anchor="middle" x="755.62" y="-74.3" font-family="Times New Roman,serif" font-size="14.00">1&#39;0</text>
</g>
<!-- v8&#45;&gt;c20 -->
<g id="edge50" class="edge">
<title>v8:e&#45;&gt;c20:w</title>
<path fill="none" stroke="#7570b3" d="M783.62,-78C819.5,-78 830.52,-86.21 861.74,-87.75"/>
<polygon fill="#7570b3" stroke="#7570b3" points="862.04,-91.26 872.12,-88 862.21,-84.26 862.04,-91.26"/>
</g>
<!-- x9 -->
<g id="node19" class="node">
<title>x9</title>
<path fill="none" stroke="black" d="M1100.62,-246C1100.62,-246 1138.62,-246 1138.62,-246 1144.62,-246 1150.62,-252 1150.62,-258 1150.62,-258 1150.62,-270 1150.62,-270 1150.62,-276 1144.62,-282 1138.62,-282 1138.62,-282 1100.62,-282 1100.62,-282 1094.62,-282 1088.62,-276 1088.62,-270 1088.62,-270 1088.62,-258 1088.62,-258 1088.62,-252 1094.62,-246 1100.62,-246"/>
<text text-anchor="middle" x="1119.62" y="-260.3" font-family="Times New Roman,serif" font-size="14.00">0:0 &#45; 1:1</text>
</g>
<!-- c20&#45;&gt;x9 -->
<g id="edge6" class="edge">
<title>c20:e&#45;&gt;x9:w</title>
<path fill="none" stroke="#e7298a" d="M983.26,-89.12C1054.94,-103.38 1003.79,-248.73 1075.56,-262.89"/>
<polygon fill="none" stroke="#e7298a" points="983.07,-89.11 976.73,-92.54 971.12,-88 977.47,-84.57 983.07,-89.11"/>
<polygon fill="none" stroke="#e7298a" points="1075.67,-262.9 1082.01,-259.47 1087.62,-264 1081.28,-267.43 1075.67,-262.9"/>
</g>
<!-- x9&#45;&gt;n1 -->
<g id="edge21" class="edge">
<title>x9:e&#45;&gt;n1:w</title>
<path fill="none" stroke="#1b9e77" d="M1151.62,-264C1193.08,-264 1168.05,-313.34 1176.12,-354 1178.75,-367.22 1178.43,-460.06 1187.96,-488.04"/>
<polygon fill="#1b9e77" stroke="#1b9e77" points="1185.23,-490.24 1194.12,-496 1190.77,-485.95 1185.23,-490.24"/>
</g>
<!-- v10 -->
<g id="node20" class="node">
<title>v10</title>
<ellipse fill="none" stroke="black" cx="755.62" cy="-496" rx="27" ry="18"/>
<text text-anchor="middle" x="755.62" y="-492.3" font-family="Times New Roman,serif" font-size="14.00">1&#39;1</text>
</g>
<!-- v10&#45;&gt;c21 -->
<g id="edge46" class="edge">
<title>v10:e&#45;&gt;c21:w</title>
<path fill="none" stroke="#66a61e" d="M783.62,-496C819.27,-496 830.69,-496 861.79,-496"/>
<polygon fill="#66a61e" stroke="#66a61e" points="862.12,-499.5 872.12,-496 862.12,-492.5 862.12,-499.5"/>
</g>
<!-- x11 -->
<g id="node22" class="node">
<title>x11</title>
<path fill="none" stroke="black" d="M1100.62,-478C1100.62,-478 1138.62,-478 1138.62,-478 1144.62,-478 1150.62,-484 1150.62,-490 1150.62,-490 1150.62,-502 1150.62,-502 1150.62,-508 1144.62,-514 1138.62,-514 1138.62,-514 1100.62,-514 1100.62,-514 1094.62,-514 1088.62,-508 1088.62,-502 1088.62,-502 1088.62,-490 1088.62,-490 1088.62,-484 1094.62,-478 1100.62,-478"/>
<text text-anchor="middle" x="1119.62" y="-492.3" font-family="Times New Roman,serif" font-size="14.00">0:0 &#45; 0:0</text>
</g>
<!-- c21&#45;&gt;x11 -->
<g id="edge7" class="edge">
<title>c21:e&#45;&gt;x11:w</title>
<path fill="none" stroke="#7570b3" d="M983.12,-496C1021.5,-496 1037.21,-496 1075.56,-496"/>
<polygon fill="none" stroke="#7570b3" points="983.12,-496 977.12,-500 971.12,-496 977.12,-492 983.12,-496"/>
<polygon fill="none" stroke="#7570b3" points="1075.62,-496 1081.62,-492 1087.62,-496 1081.62,-500 1075.62,-496"/>
</g>
<!-- x11&#45;&gt;n1 -->
<g id="edge16" class="edge">
<title>x11:e&#45;&gt;n1:w</title>
<path fill="none" stroke="#1b9e77" d="M1151.62,-496C1166.53,-496 1172.61,-496 1183.79,-496"/>
<polygon fill="#1b9e77" stroke="#1b9e77" points="1184.12,-499.5 1194.12,-496 1184.12,-492.5 1184.12,-499.5"/>
</g>
<!-- v13 -->
<g id="node23" class="node">
<title>v13</title>
<ellipse fill="none" stroke="black" cx="511.48" cy="-774" rx="27" ry="18"/>
<text text-anchor="middle" x="511.48" y="-770.3" font-family="Times New Roman,serif" font-size="14.00">1&#39;0</text>
</g>
<!-- v13&#45;&gt;c22 -->
<g id="edge47" class="edge">
<title>v13:e&#45;&gt;c22:w</title>
<path fill="none" stroke="#a6761d" d="M539.48,-774C575.6,-774 582.94,-786.75 616.12,-801 654.01,-817.27 660.33,-842.43 695.85,-846.45"/>
<polygon fill="#a6761d" stroke="#a6761d" points="695.95,-849.96 706.12,-847 696.32,-842.97 695.95,-849.96"/>
</g>
<!-- x14 -->
<g id="node26" class="node">
<title>x14</title>
<path fill="none" stroke="black" d="M1001.12,-807C1001.12,-807 1052.12,-807 1052.12,-807 1058.12,-807 1064.12,-813 1064.12,-819 1064.12,-819 1064.12,-831 1064.12,-831 1064.12,-837 1058.12,-843 1052.12,-843 1052.12,-843 1001.12,-843 1001.12,-843 995.12,-843 989.12,-837 989.12,-831 989.12,-831 989.12,-819 989.12,-819 989.12,-813 995.12,-807 1001.12,-807"/>
<text text-anchor="middle" x="1026.62" y="-821.3" font-family="Times New Roman,serif" font-size="14.00">0:0 &#45; 31:31</text>
</g>
<!-- c22&#45;&gt;x14 -->
<g id="edge9" class="edge">
<title>c22:e&#45;&gt;x14:w</title>
<path fill="none" stroke="#1b9e77" d="M817.2,-846.84C885.64,-844.93 908.46,-827.11 976.79,-825.17"/>
<polygon fill="none" stroke="#1b9e77" points="817.12,-846.84 811.18,-850.92 805.12,-847 811.07,-842.92 817.12,-846.84"/>
<polygon fill="none" stroke="#1b9e77" points="977.12,-825.17 983.07,-821.08 989.12,-825 983.18,-829.08 977.12,-825.17"/>
</g>
<!-- x12&#45;&gt;c22 -->
<g id="edge8" class="edge">
<title>x12:e&#45;&gt;c22:w</title>
<path fill="none" stroke="#d95f02" d="M555.81,-829.64C587.76,-833.13 597.21,-850.14 634.12,-859 661.3,-865.52 671.09,-868.98 694.08,-869.81"/>
<polygon fill="none" stroke="#d95f02" points="555.47,-829.62 549.27,-833.3 543.48,-829 549.68,-825.31 555.47,-829.62"/>
<polygon fill="none" stroke="#d95f02" points="694.12,-869.81 700.19,-865.9 706.12,-870 700.06,-873.9 694.12,-869.81"/>
</g>
<!-- x14&#45;&gt;n1 -->
<g id="edge17" class="edge">
<title>x14:e&#45;&gt;n1:w</title>
<path fill="none" stroke="#1b9e77" d="M1064.12,-825C1194.45,-825 1135.87,-677.95 1176.12,-554 1183.09,-532.54 1172.13,-506.43 1184.11,-498.44"/>
<polygon fill="#1b9e77" stroke="#1b9e77" points="1185.23,-501.77 1194.12,-496 1183.58,-494.97 1185.23,-501.77"/>
</g>
<!-- c23 -->
<g id="node27" class="node">
<title>c23</title>
<polygon fill="none" stroke="black" points="708.62,-533 708.62,-579 802.62,-579 802.62,-533 708.62,-533"/>
<text text-anchor="middle" x="721.62" y="-563.8" font-family="Times New Roman,serif" font-size="14.00">A</text>
<polyline fill="none" stroke="black" points="708.62,-556 734.62,-556 "/>
<text text-anchor="middle" x="721.62" y="-540.8" font-family="Times New Roman,serif" font-size="14.00">B</text>
<polyline fill="none" stroke="black" points="734.62,-533 734.62,-579 "/>
<text text-anchor="middle" x="755.62" y="-559.8" font-family="Times New Roman,serif" font-size="14.00">$2</text>
<text text-anchor="middle" x="755.62" y="-544.8" font-family="Times New Roman,serif" font-size="14.00">$xor</text>
<polyline fill="none" stroke="black" points="776.62,-533 776.62,-579 "/>
<text text-anchor="middle" x="789.62" y="-552.3" font-family="Times New Roman,serif" font-size="14.00">Y</text>
</g>
<!-- c23&#45;&gt;c21 -->
<g id="edge23" class="edge">
<title>c23:e&#45;&gt;c21:w</title>
<path fill="none" stroke="#1b9e77" d="M803.62,-556C834.44,-556 837.25,-526.65 861.94,-520.23"/>
<polygon fill="#1b9e77" stroke="#1b9e77" points="862.62,-523.68 872.12,-519 861.77,-516.73 862.62,-523.68"/>
</g>
<!-- x15&#45;&gt;c23 -->
<g id="edge10" class="edge">
<title>x15:e&#45;&gt;c23:w</title>
<path fill="none" stroke="#1b9e77" d="M555.77,-570.97C614.83,-570.68 636.25,-568.32 695.29,-568.03"/>
<polygon fill="none" stroke="#1b9e77" points="555.48,-570.97 549.49,-574.99 543.48,-571 549.47,-566.99 555.48,-570.97"/>
<polygon fill="none" stroke="#1b9e77" points="695.62,-568.03 701.61,-564.01 707.62,-568 701.63,-572.01 695.62,-568.03"/>
</g>
<!-- x16&#45;&gt;c23 -->
<g id="edge11" class="edge">
<title>x16:e&#45;&gt;c23:w</title>
<path fill="none" stroke="#e6ab02" d="M555.52,-516.26C615.63,-518.91 635.42,-541.06 695.49,-543.74"/>
<polygon fill="none" stroke="#e6ab02" points="555.48,-516.26 549.39,-520.13 543.48,-516 549.57,-512.13 555.48,-516.26"/>
<polygon fill="none" stroke="#e6ab02" points="695.63,-543.74 701.71,-539.87 707.62,-544 701.54,-547.87 695.63,-543.74"/>
</g>
<!-- c24 -->
<g id="node30" class="node">
<title>c24</title>
<polygon fill="none" stroke="black" points="708.62,-115 708.62,-161 802.62,-161 802.62,-115 708.62,-115"/>
<text text-anchor="middle" x="721.62" y="-145.8" font-family="Times New Roman,serif" font-size="14.00">A</text>
<polyline fill="none" stroke="black" points="708.62,-138 734.62,-138 "/>
<text text-anchor="middle" x="721.62" y="-122.8" font-family="Times New Roman,serif" font-size="14.00">B</text>
<polyline fill="none" stroke="black" points="734.62,-115 734.62,-161 "/>
<text text-anchor="middle" x="755.62" y="-141.8" font-family="Times New Roman,serif" font-size="14.00">$3</text>
<text text-anchor="middle" x="755.62" y="-126.8" font-family="Times New Roman,serif" font-size="14.00">$xor</text>
<polyline fill="none" stroke="black" points="776.62,-115 776.62,-161 "/>
<text text-anchor="middle" x="789.62" y="-134.3" font-family="Times New Roman,serif" font-size="14.00">Y</text>
</g>
<!-- c24&#45;&gt;c20 -->
<g id="edge24" class="edge">
<title>c24:e&#45;&gt;c20:w</title>
<path fill="none" stroke="#7570b3" d="M803.62,-138C832.64,-138 838.33,-116.77 862.06,-111.96"/>
<polygon fill="#7570b3" stroke="#7570b3" points="862.5,-115.43 872.12,-111 861.84,-108.47 862.5,-115.43"/>
</g>
<!-- x17&#45;&gt;c24 -->
<g id="edge12" class="edge">
<title>x17:e&#45;&gt;c24:w</title>
<path fill="none" stroke="#e6ab02" d="M555.8,-163.86C615.14,-162.5 636.15,-151.46 695.62,-150.13"/>
<polygon fill="none" stroke="#e6ab02" points="555.48,-163.86 549.53,-167.93 543.48,-164 549.44,-159.93 555.48,-163.86"/>
<polygon fill="none" stroke="#e6ab02" points="695.62,-150.13 701.58,-146.07 707.62,-150 701.67,-154.07 695.62,-150.13"/>
</g>
<!-- x18&#45;&gt;c24 -->
<g id="edge13" class="edge">
<title>x18:e&#45;&gt;c24:w</title>
<path fill="none" stroke="#d95f02" d="M555.71,-69.99C612.44,-69.99 635.4,-70.97 688.12,-103 694.57,-106.91 695.69,-113.7 697.83,-118.89"/>
<polygon fill="none" stroke="#d95f02" points="555.48,-69.99 549.48,-74 543.48,-70 549.48,-66 555.48,-69.99"/>
<polygon fill="none" stroke="#d95f02" points="697.91,-118.95 705.11,-119.24 707.62,-126 700.42,-125.71 697.91,-118.95"/>
</g>
<!-- c25 -->
<g id="node33" class="node">
<title>c25</title>
<polygon fill="none" stroke="black" points="708.62,-653 708.62,-699 802.62,-699 802.62,-653 708.62,-653"/>
<text text-anchor="middle" x="721.62" y="-683.8" font-family="Times New Roman,serif" font-size="14.00">A</text>
<polyline fill="none" stroke="black" points="708.62,-676 734.62,-676 "/>
<text text-anchor="middle" x="721.62" y="-660.8" font-family="Times New Roman,serif" font-size="14.00">B</text>
<polyline fill="none" stroke="black" points="734.62,-653 734.62,-699 "/>
<text text-anchor="middle" x="755.62" y="-679.8" font-family="Times New Roman,serif" font-size="14.00">$4</text>
<text text-anchor="middle" x="755.62" y="-664.8" font-family="Times New Roman,serif" font-size="14.00">$xor</text>
<polyline fill="none" stroke="black" points="776.62,-653 776.62,-699 "/>
<text text-anchor="middle" x="789.62" y="-672.3" font-family="Times New Roman,serif" font-size="14.00">Y</text>
</g>
<!-- c25&#45;&gt;c18 -->
<g id="edge25" class="edge">
<title>c25:e&#45;&gt;c18:w</title>
<path fill="none" stroke="#666666" d="M803.62,-676C831.62,-676 838.85,-691.59 861.98,-695.24"/>
<polygon fill="#666666" stroke="#666666" points="861.89,-698.74 872.12,-696 862.41,-691.76 861.89,-698.74"/>
</g>
<!-- x19&#45;&gt;c25 -->
<g id="edge14" class="edge">
<title>x19:e&#45;&gt;c25:w</title>
<path fill="none" stroke="#d95f02" d="M562.63,-681.07C618.81,-681.77 639.29,-687.23 695.48,-687.93"/>
<polygon fill="none" stroke="#d95f02" points="562.48,-681.07 556.46,-685.04 550.48,-681 556.51,-677.04 562.48,-681.07"/>
<polygon fill="none" stroke="#d95f02" points="695.62,-687.93 701.65,-683.96 707.62,-688 701.6,-691.96 695.62,-687.93"/>
</g>
<!-- x20&#45;&gt;c25 -->
<g id="edge15" class="edge">
<title>x20:e&#45;&gt;c25:w</title>
<path fill="none" stroke="#d95f02" d="M555.65,-626.35C616.28,-629.95 634.77,-660.01 695.36,-663.64"/>
<polygon fill="none" stroke="#d95f02" points="555.48,-626.35 549.36,-630.17 543.48,-626 549.6,-622.18 555.48,-626.35"/>
<polygon fill="none" stroke="#d95f02" points="695.63,-663.65 701.74,-659.83 707.62,-664 701.51,-667.82 695.63,-663.65"/>
</g>
<!-- x21&#45;&gt;n6 -->
<g id="edge27" class="edge">
<title>x21:e&#45;&gt;n6:w</title>
<path fill="none" stroke="#7570b3" stroke-width="3" d="M688.12,-914C754.57,-914 771.18,-914 837.62,-914 837.62,-914 837.62,-914 1176.12,-914 1189.74,-914 1195.45,-914 1205.49,-914"/>
<polygon fill="#7570b3" stroke="#7570b3" stroke-width="3" points="1205.72,-917.5 1215.72,-914 1205.72,-910.5 1205.72,-917.5"/>
<text text-anchor="middle" x="1026.62" y="-917.8" font-family="Times New Roman,serif" font-size="14.00" fill="#7570b3">&lt;32&gt;</text>
</g>
<!-- n1&#45;&gt;c12 -->
<g id="edge22" class="edge">
<title>n1:e&#45;&gt;c12:w</title>
<path fill="none" stroke="#1b9e77" d="M1198.92,-496C1214.76,-496 1162.46,-763.09 1157.12,-778 1130.04,-853.64 1132.3,-890.5 1064.12,-933 979.15,-985.97 939.76,-952 839.62,-952 306.67,-952 306.67,-952 306.67,-952 261.11,-952 253.57,-929.13 208.5,-922.5 159.47,-915.29 133.53,-889.01 97,-922.5 96.53,-922.93 96.08,-923.44 95.66,-923.99"/>
<polygon fill="#1b9e77" stroke="#1b9e77" points="92.16,-924.12 96,-934 99.16,-923.89 92.16,-924.12"/>
</g>
</g>
</svg>
