<svg xmlns="http://www.w3.org/2000/svg" xmlns:xlink="http://www.w3.org/1999/xlink" xmlns:s="https://github.com/nturley/netlistsvg" width="453" height="578.5">
  <style>svg {
    stroke:#000;
    fill:none;
  }
  text {
    fill:#000;
    stroke:none;
    font-size:10px;
    font-weight: bold;
    font-family: "Courier New", monospace;
  }
  .nodelabel {
    text-anchor: middle;
  }
  .inputPortLabel {
    text-anchor: end;
  }
  .splitjoinBody {
    fill:#000;
  }</style>
  <g s:type="dff" transform="translate(346,515.5)" s:width="30" s:height="40" id="cell_$procdff$24">
    <s:alias val="$dff"/>
    <s:alias val="$_DFF_"/>
    <s:alias val="$_DFF_P_"/>
    <rect width="30" height="40" x="0" y="0" class="cell_$procdff$24"/>
    <path d="M0,35 L5,30 L0,25" class="cell_$procdff$24"/>
    <g s:x="30" s:y="10" s:pid="Q"/>
    <g s:x="0" s:y="30" s:pid="CLK"/>
    <g s:x="0" s:y="30" s:pid="C"/>
    <g s:x="0" s:y="10" s:pid="D"/>
  </g>
  <g s:type="mux" transform="translate(221,435.5)" s:width="20" s:height="40" id="cell_$procmux$10">
    <s:alias val="$pmux"/>
    <s:alias val="$mux"/>
    <s:alias val="$_MUX_"/>
    <path d="M0,0 L20,10 L20,30 L0,40 Z" class="cell_$procmux$10"/>
    <g s:x="0" s:y="10" s:pid="A"/>
    <g s:x="0" s:y="30" s:pid="B"/>
    <g s:x="10" s:y="35" s:pid="S"/>
    <g s:x="20" s:y="20" s:pid="Y"/>
  </g>
  <g s:type="mux" transform="translate(221,375.5)" s:width="20" s:height="40" id="cell_$procmux$13">
    <s:alias val="$pmux"/>
    <s:alias val="$mux"/>
    <s:alias val="$_MUX_"/>
    <path d="M0,0 L20,10 L20,30 L0,40 Z" class="cell_$procmux$13"/>
    <g s:x="0" s:y="10" s:pid="A"/>
    <g s:x="0" s:y="30" s:pid="B"/>
    <g s:x="10" s:y="35" s:pid="S"/>
    <g s:x="20" s:y="20" s:pid="Y"/>
  </g>
  <g s:type="mux" transform="translate(221,185.5)" s:width="20" s:height="40" id="cell_$procmux$16">
    <s:alias val="$pmux"/>
    <s:alias val="$mux"/>
    <s:alias val="$_MUX_"/>
    <path d="M0,0 L20,10 L20,30 L0,40 Z" class="cell_$procmux$16"/>
    <g s:x="0" s:y="10" s:pid="A"/>
    <g s:x="0" s:y="30" s:pid="B"/>
    <g s:x="10" s:y="35" s:pid="S"/>
    <g s:x="20" s:y="20" s:pid="Y"/>
  </g>
  <g s:type="mux" transform="translate(221,125.5)" s:width="20" s:height="40" id="cell_$procmux$19">
    <s:alias val="$pmux"/>
    <s:alias val="$mux"/>
    <s:alias val="$_MUX_"/>
    <path d="M0,0 L20,10 L20,30 L0,40 Z" class="cell_$procmux$19"/>
    <g s:x="0" s:y="10" s:pid="A"/>
    <g s:x="0" s:y="30" s:pid="B"/>
    <g s:x="10" s:y="35" s:pid="S"/>
    <g s:x="20" s:y="20" s:pid="Y"/>
  </g>
  <g s:type="mux" transform="translate(221,62)" s:width="20" s:height="40" id="cell_$procmux$22">
    <s:alias val="$pmux"/>
    <s:alias val="$mux"/>
    <s:alias val="$_MUX_"/>
    <path d="M0,0 L20,10 L20,30 L0,40 Z" class="cell_$procmux$22"/>
    <g s:x="0" s:y="10" s:pid="A"/>
    <g s:x="0" s:y="30" s:pid="B"/>
    <g s:x="10" s:y="35" s:pid="S"/>
    <g s:x="20" s:y="20" s:pid="Y"/>
  </g>
  <g s:type="mux" transform="translate(221,495.5)" s:width="20" s:height="40" id="cell_$procmux$7">
    <s:alias val="$pmux"/>
    <s:alias val="$mux"/>
    <s:alias val="$_MUX_"/>
    <path d="M0,0 L20,10 L20,30 L0,40 Z" class="cell_$procmux$7"/>
    <g s:x="0" s:y="10" s:pid="A"/>
    <g s:x="0" s:y="30" s:pid="B"/>
    <g s:x="10" s:y="35" s:pid="S"/>
    <g s:x="20" s:y="20" s:pid="Y"/>
  </g>
  <g s:type="reduce_xor" transform="translate(128,12)" s:width="33" s:height="25" id="cell_$xor$top_module.v:22$2">
    <s:alias val="$xor"/>
    <s:alias val="$reduce_xor"/>
    <s:alias val="$_XOR_"/>
    <path d="M3,0 A30 25 0 0 1 3,25 A30 25 0 0 0 33,12.5 A30 25 0 0 0 3,0" class="cell_$xor$top_module.v:22$2"/>
    <path d="M0,0 A30 25 0 0 1 0,25" class="cell_$xor$top_module.v:22$2"/>
    <g s:x="3" s:y="5" s:pid="A"/>
    <g s:x="3" s:y="20" s:pid="B"/>
    <g s:x="33" s:y="12.5" s:pid="Y"/>
  </g>
  <g s:type="reduce_xor" transform="translate(128,123)" s:width="33" s:height="25" id="cell_$xor$top_module.v:23$3">
    <s:alias val="$xor"/>
    <s:alias val="$reduce_xor"/>
    <s:alias val="$_XOR_"/>
    <path d="M3,0 A30 25 0 0 1 3,25 A30 25 0 0 0 33,12.5 A30 25 0 0 0 3,0" class="cell_$xor$top_module.v:23$3"/>
    <path d="M0,0 A30 25 0 0 1 0,25" class="cell_$xor$top_module.v:23$3"/>
    <g s:x="3" s:y="5" s:pid="A"/>
    <g s:x="3" s:y="20" s:pid="B"/>
    <g s:x="33" s:y="12.5" s:pid="Y"/>
  </g>
  <g s:type="reduce_xor" transform="translate(128,260.5)" s:width="33" s:height="25" id="cell_$xor$top_module.v:25$4">
    <s:alias val="$xor"/>
    <s:alias val="$reduce_xor"/>
    <s:alias val="$_XOR_"/>
    <path d="M3,0 A30 25 0 0 1 3,25 A30 25 0 0 0 33,12.5 A30 25 0 0 0 3,0" class="cell_$xor$top_module.v:25$4"/>
    <path d="M0,0 A30 25 0 0 1 0,25" class="cell_$xor$top_module.v:25$4"/>
    <g s:x="3" s:y="5" s:pid="A"/>
    <g s:x="3" s:y="20" s:pid="B"/>
    <g s:x="33" s:y="12.5" s:pid="Y"/>
  </g>
  <g s:type="inputExt" transform="translate(281,535.5)" s:width="30" s:height="20" id="cell_clk">
    <text x="15" y="-4" class="nodelabel cell_clk" s:attribute="ref">clk</text>
    <s:alias val="$_inputExt_"/>
    <path d="M0,0 L0,20 L15,20 L30,10 L15,0 Z" class="cell_clk"/>
    <g s:x="28" s:y="10" s:pid="Y"/>
  </g>
  <g s:type="inputExt" transform="translate(131,330.5)" s:width="30" s:height="20" id="cell_reset">
    <text x="15" y="-4" class="nodelabel cell_reset" s:attribute="ref">reset</text>
    <s:alias val="$_inputExt_"/>
    <path d="M0,0 L0,20 L15,20 L30,10 L15,0 Z" class="cell_reset"/>
    <g s:x="28" s:y="10" s:pid="Y"/>
  </g>
  <g s:type="outputExt" transform="translate(411,515.5)" s:width="30" s:height="20" id="cell_q">
    <text x="15" y="-4" class="nodelabel cell_q" s:attribute="ref">q</text>
    <s:alias val="$_outputExt_"/>
    <path d="M30,0 L30,20 L15,20 L0,10 L15,0 Z" class="cell_q"/>
    <g s:x="0" s:y="10" s:pid="A"/>
  </g>
  <g s:type="constant" transform="translate(131,455.5)" s:width="30" s:height="20" id="cell_000000000">
    <text x="15" y="-4" class="nodelabel cell_000000000" s:attribute="ref">0x0</text>
    <s:alias val="$_constant_"/>
    <rect width="30" height="20" class="cell_000000000"/>
    <g s:x="30" s:y="10" s:pid="Y"/>
  </g>
  <g s:type="constant" transform="translate(131,395.5)" s:width="30" s:height="20" id="cell_0">
    <text x="15" y="-4" class="nodelabel cell_0" s:attribute="ref">0</text>
    <s:alias val="$_constant_"/>
    <rect width="30" height="20" class="cell_0"/>
    <g s:x="30" s:y="10" s:pid="Y"/>
  </g>
  <g s:type="constant" transform="translate(131,205.5)" s:width="30" s:height="20" id="cell_0000000000000000000">
    <text x="15" y="-4" class="nodelabel cell_0000000000000000000" s:attribute="ref">0x0</text>
    <s:alias val="$_constant_"/>
    <rect width="30" height="20" class="cell_0000000000000000000"/>
    <g s:x="30" s:y="10" s:pid="Y"/>
  </g>
  <g s:type="constant" transform="translate(131,82)" s:width="30" s:height="20" id="cell_1">
    <text x="15" y="-4" class="nodelabel cell_1" s:attribute="ref">1</text>
    <s:alias val="$_constant_"/>
    <rect width="30" height="20" class="cell_1"/>
    <g s:x="30" s:y="10" s:pid="Y"/>
  </g>
  <g s:type="join" transform="translate(286.2,365)" s:width="4" s:height="40" id="cell_$join$,36,37,38,39,40,41,42,43,44,45,46,47,48,49,50,51,52,53,54,55,56,57,58,59,60,61,62,63,64,65,66,67,">
    <rect width="5" height="120" class="splitjoinBody" s:generic="body"/>
    <s:alias val="$_join_"/>
    <g s:x="5" s:y="20" s:pid="out"/>
    <g transform="translate(0,10)" s:x="0" s:y="10" s:pid="in0">
      <text x="-3" y="-4" class="inputPortLabel">0</text>
    </g>
    <g transform="translate(0,30)" s:x="0" s:y="10" s:pid="in0">
      <text x="-3" y="-4" class="inputPortLabel">1</text>
    </g>
    <g transform="translate(0,50)" s:x="0" s:y="10" s:pid="in0">
      <text x="-3" y="-4" class="inputPortLabel">2:20</text>
    </g>
    <g transform="translate(0,70)" s:x="0" s:y="10" s:pid="in0">
      <text x="-3" y="-4" class="inputPortLabel">21</text>
    </g>
    <g transform="translate(0,90)" s:x="0" s:y="10" s:pid="in0">
      <text x="-3" y="-4" class="inputPortLabel">22:30</text>
    </g>
    <g transform="translate(0,110)" s:x="0" s:y="10" s:pid="in0">
      <text x="-3" y="-4" class="inputPortLabel">31</text>
    </g>
  </g>
  <g s:type="split" transform="translate(32,92.5)" s:width="5" s:height="40" id="cell_$split$,4,5,6,7,8,9,10,11,12,13,14,15,16,17,18,19,20,21,22,23,24,25,26,27,28,29,30,31,32,33,34,35,">
    <rect width="5" height="120" class="splitjoinBody" s:generic="body"/>
    <s:alias val="$_split_"/>
    <g s:x="0" s:y="20" s:pid="in"/>
    <g transform="translate(4,10)" s:x="4" s:y="10" s:pid="out0">
      <text x="5" y="-4">23:31</text>
    </g>
    <g transform="translate(4,30)" s:x="4" s:y="10" s:pid="out0">
      <text x="5" y="-4">3:21</text>
    </g>
    <g transform="translate(4,50)" s:x="4" s:y="10" s:pid="out0">
      <text x="5" y="-4">0</text>
    </g>
    <g transform="translate(4,70)" s:x="4" s:y="10" s:pid="out0">
      <text x="5" y="-4">1</text>
    </g>
    <g transform="translate(4,90)" s:x="4" s:y="10" s:pid="out0">
      <text x="5" y="-4">2</text>
    </g>
    <g transform="translate(4,110)" s:x="4" s:y="10" s:pid="out0">
      <text x="5" y="-4">22</text>
    </g>
  </g>
  <line x1="309" x2="346" y1="545.5" y2="545.5" class="net_2"/>
  <line x1="292.2" x2="321" y1="385.5" y2="385.5" class="net_36,37,38,39,40,41,42,43,44,45,46,47,48,49,50,51,52,53,54,55,56,57,58,59,60,61,62,63,64,65,66,67"/>
  <line x1="321" x2="321" y1="385.5" y2="525.5" class="net_36,37,38,39,40,41,42,43,44,45,46,47,48,49,50,51,52,53,54,55,56,57,58,59,60,61,62,63,64,65,66,67"/>
  <line x1="321" x2="346" y1="525.5" y2="525.5" class="net_36,37,38,39,40,41,42,43,44,45,46,47,48,49,50,51,52,53,54,55,56,57,58,59,60,61,62,63,64,65,66,67"/>
  <line x1="36.5" x2="36.5" y1="102.5" y2="80.5" class="net_27,28,29,30,31,32,33,34,35"/>
  <line x1="36.5" x2="78" y1="80.5" y2="80.5" class="net_27,28,29,30,31,32,33,34,35"/>
  <line x1="78" x2="78" y1="80.5" y2="434.5" class="net_27,28,29,30,31,32,33,34,35"/>
  <line x1="78" x2="191" y1="434.5" y2="434.5" class="net_27,28,29,30,31,32,33,34,35"/>
  <line x1="191" x2="191" y1="434.5" y2="445.5" class="net_27,28,29,30,31,32,33,34,35"/>
  <line x1="191" x2="221" y1="445.5" y2="445.5" class="net_27,28,29,30,31,32,33,34,35"/>
  <line x1="161" x2="221" y1="465.5" y2="465.5" class="net_71,72,73,74,75,76,77,78,79"/>
  <line x1="159" x2="201" y1="340.5" y2="340.5" class="net_3"/>
  <line x1="201" x2="201" y1="340.5" y2="485.5" class="net_3"/>
  <line x1="201" x2="231" y1="485.5" y2="485.5" class="net_3"/>
  <circle cx="201" cy="340.5" r="2" style="fill:#000" class="net_3"/>
  <circle cx="201" cy="485.5" r="2" style="fill:#000" class="net_3"/>
  <line x1="231" x2="231" y1="485.5" y2="470.5" class="net_3"/>
  <line x1="159" x2="201" y1="340.5" y2="340.5" class="net_3"/>
  <line x1="201" x2="201" y1="340.5" y2="425.5" class="net_3"/>
  <line x1="201" x2="231" y1="425.5" y2="425.5" class="net_3"/>
  <circle cx="201" cy="425.5" r="2" style="fill:#000" class="net_3"/>
  <line x1="231" x2="231" y1="425.5" y2="410.5" class="net_3"/>
  <line x1="159" x2="231" y1="340.5" y2="340.5" class="net_3"/>
  <line x1="231" x2="231" y1="340.5" y2="220.5" class="net_3"/>
  <line x1="159" x2="201" y1="340.5" y2="340.5" class="net_3"/>
  <line x1="201" x2="201" y1="340.5" y2="175.5" class="net_3"/>
  <line x1="201" x2="231" y1="175.5" y2="175.5" class="net_3"/>
  <circle cx="201" cy="175.5" r="2" style="fill:#000" class="net_3"/>
  <line x1="231" x2="231" y1="175.5" y2="160.5" class="net_3"/>
  <line x1="159" x2="201" y1="340.5" y2="340.5" class="net_3"/>
  <line x1="201" x2="201" y1="340.5" y2="115.5" class="net_3"/>
  <line x1="201" x2="231" y1="115.5" y2="115.5" class="net_3"/>
  <line x1="231" x2="231" y1="115.5" y2="97" class="net_3"/>
  <line x1="159" x2="201" y1="340.5" y2="340.5" class="net_3"/>
  <line x1="201" x2="201" y1="340.5" y2="545.5" class="net_3"/>
  <line x1="201" x2="231" y1="545.5" y2="545.5" class="net_3"/>
  <line x1="231" x2="231" y1="545.5" y2="530.5" class="net_3"/>
  <line x1="161" x2="211" y1="273" y2="273" class="net_68"/>
  <line x1="211" x2="211" y1="273" y2="385.5" class="net_68"/>
  <line x1="211" x2="221" y1="385.5" y2="385.5" class="net_68"/>
  <line x1="161" x2="221" y1="405.5" y2="405.5" class="net_80"/>
  <line x1="161" x2="181" y1="405.5" y2="405.5" class="net_80"/>
  <line x1="181" x2="181" y1="405.5" y2="155.5" class="net_80"/>
  <circle cx="181" cy="405.5" r="2" style="fill:#000" class="net_80"/>
  <line x1="181" x2="221" y1="155.5" y2="155.5" class="net_80"/>
  <line x1="161" x2="181" y1="405.5" y2="405.5" class="net_80"/>
  <line x1="181" x2="181" y1="405.5" y2="525.5" class="net_80"/>
  <line x1="181" x2="221" y1="525.5" y2="525.5" class="net_80"/>
  <line x1="37" x2="118" y1="123" y2="123" class="net_7,8,9,10,11,12,13,14,15,16,17,18,19,20,21,22,23,24,25"/>
  <line x1="118" x2="118" y1="123" y2="112" class="net_7,8,9,10,11,12,13,14,15,16,17,18,19,20,21,22,23,24,25"/>
  <line x1="118" x2="171" y1="112" y2="112" class="net_7,8,9,10,11,12,13,14,15,16,17,18,19,20,21,22,23,24,25"/>
  <line x1="171" x2="171" y1="112" y2="195.5" class="net_7,8,9,10,11,12,13,14,15,16,17,18,19,20,21,22,23,24,25"/>
  <line x1="171" x2="221" y1="195.5" y2="195.5" class="net_7,8,9,10,11,12,13,14,15,16,17,18,19,20,21,22,23,24,25"/>
  <line x1="161" x2="221" y1="215.5" y2="215.5" class="net_81,82,83,84,85,86,87,88,89,90,91,92,93,94,95,96,97,98,99"/>
  <line x1="161" x2="221" y1="135.5" y2="135.5" class="net_69"/>
  <line x1="161" x2="171" y1="24.5" y2="24.5" class="net_70"/>
  <line x1="171" x2="171" y1="24.5" y2="72" class="net_70"/>
  <line x1="171" x2="221" y1="72" y2="72" class="net_70"/>
  <line x1="161" x2="221" y1="92" y2="92" class="net_101"/>
  <line x1="37" x2="108" y1="143" y2="143" class="net_4"/>
  <line x1="108" x2="108" y1="143" y2="505.5" class="net_4"/>
  <circle cx="108" cy="143" r="2" style="fill:#000" class="net_4"/>
  <line x1="108" x2="221" y1="505.5" y2="505.5" class="net_4"/>
  <line x1="37" x2="108" y1="143" y2="143" class="net_4"/>
  <line x1="108" x2="108" y1="143" y2="32" class="net_4"/>
  <line x1="108" x2="131" y1="32" y2="32" class="net_4"/>
  <line x1="37" x2="131" y1="143" y2="143" class="net_4"/>
  <line x1="37" x2="108" y1="143" y2="143" class="net_4"/>
  <line x1="108" x2="108" y1="143" y2="280.5" class="net_4"/>
  <circle cx="108" cy="280.5" r="2" style="fill:#000" class="net_4"/>
  <line x1="108" x2="131" y1="280.5" y2="280.5" class="net_4"/>
  <line x1="37" x2="88" y1="163" y2="163" class="net_5"/>
  <line x1="88" x2="88" y1="163" y2="17" class="net_5"/>
  <line x1="88" x2="131" y1="17" y2="17" class="net_5"/>
  <line x1="37" x2="98" y1="183" y2="183" class="net_6"/>
  <line x1="98" x2="98" y1="183" y2="128" class="net_6"/>
  <line x1="98" x2="131" y1="128" y2="128" class="net_6"/>
  <line x1="36.5" x2="36.5" y1="203.5" y2="265.5" class="net_26"/>
  <line x1="36.5" x2="131" y1="265.5" y2="265.5" class="net_26"/>
  <line x1="376" x2="411" y1="525.5" y2="525.5" class="net_4,5,6,7,8,9,10,11,12,13,14,15,16,17,18,19,20,21,22,23,24,25,26,27,28,29,30,31,32,33,34,35"/>
  <line x1="376" x2="386" y1="525.5" y2="525.5" class="net_4,5,6,7,8,9,10,11,12,13,14,15,16,17,18,19,20,21,22,23,24,25,26,27,28,29,30,31,32,33,34,35"/>
  <line x1="386" x2="386" y1="525.5" y2="565.5" class="net_4,5,6,7,8,9,10,11,12,13,14,15,16,17,18,19,20,21,22,23,24,25,26,27,28,29,30,31,32,33,34,35"/>
  <line x1="386" x2="12" y1="565.5" y2="565.5" class="net_4,5,6,7,8,9,10,11,12,13,14,15,16,17,18,19,20,21,22,23,24,25,26,27,28,29,30,31,32,33,34,35"/>
  <line x1="12" x2="12" y1="565.5" y2="113" class="net_4,5,6,7,8,9,10,11,12,13,14,15,16,17,18,19,20,21,22,23,24,25,26,27,28,29,30,31,32,33,34,35"/>
  <circle cx="386" cy="525.5" r="2" style="fill:#000" class="net_4,5,6,7,8,9,10,11,12,13,14,15,16,17,18,19,20,21,22,23,24,25,26,27,28,29,30,31,32,33,34,35"/>
  <line x1="12" x2="32" y1="113" y2="113" class="net_4,5,6,7,8,9,10,11,12,13,14,15,16,17,18,19,20,21,22,23,24,25,26,27,28,29,30,31,32,33,34,35"/>
  <line x1="241" x2="286.7" y1="82" y2="82" class="net_36"/>
  <line x1="286.7" x2="286.7" y1="82" y2="375" class="net_36"/>
  <line x1="241" x2="271" y1="145.5" y2="145.5" class="net_37"/>
  <line x1="271" x2="271" y1="145.5" y2="395.5" class="net_37"/>
  <line x1="271" x2="286.2" y1="395.5" y2="395.5" class="net_37"/>
  <line x1="241" x2="261" y1="205.5" y2="205.5" class="net_38,39,40,41,42,43,44,45,46,47,48,49,50,51,52,53,54,55,56"/>
  <line x1="261" x2="261" y1="205.5" y2="415.5" class="net_38,39,40,41,42,43,44,45,46,47,48,49,50,51,52,53,54,55,56"/>
  <line x1="261" x2="286.2" y1="415.5" y2="415.5" class="net_38,39,40,41,42,43,44,45,46,47,48,49,50,51,52,53,54,55,56"/>
  <line x1="241" x2="251" y1="395.5" y2="395.5" class="net_57"/>
  <line x1="251" x2="251" y1="395.5" y2="435.5" class="net_57"/>
  <line x1="251" x2="286.2" y1="435.5" y2="435.5" class="net_57"/>
  <line x1="241" x2="286.2" y1="455.5" y2="455.5" class="net_58,59,60,61,62,63,64,65,66"/>
  <line x1="241" x2="286.7" y1="515.5" y2="515.5" class="net_67"/>
  <line x1="286.7" x2="286.7" y1="515.5" y2="476" class="net_67"/>
</svg>
