<?xml version="1.0" encoding="UTF-8" standalone="no"?>
<!DOCTYPE svg PUBLIC "-//W3C//DTD SVG 1.1//EN"
 "http://www.w3.org/Graphics/SVG/1.1/DTD/svg11.dtd">
<!-- Generated by graphviz version 4.0.0 (20220529.0937)
 -->
<!-- Title: top_module Pages: 1 -->
<svg width="662pt" height="225pt"
 viewBox="0.00 0.00 661.79 224.50" xmlns="http://www.w3.org/2000/svg" xmlns:xlink="http://www.w3.org/1999/xlink">
<g id="graph0" class="graph" transform="scale(1 1) rotate(0) translate(4 220.5)">
<title>top_module</title>
<polygon fill="white" stroke="transparent" points="-4,4 -4,-220.5 657.79,-220.5 657.79,4 -4,4"/>
<text text-anchor="middle" x="326.89" y="-7.8" font-family="Times New Roman,serif" font-size="14.00">top_module</text>
<!-- n1 -->
<g id="node1" class="node">
<title>n1</title>
<polygon fill="none" stroke="black" points="648.2,-131.54 648.2,-146.46 632.38,-157 610.01,-157 594.2,-146.46 594.2,-131.54 610.01,-121 632.38,-121 648.2,-131.54"/>
<text text-anchor="middle" x="621.2" y="-135.3" font-family="Times New Roman,serif" font-size="14.00">Y2</text>
</g>
<!-- x3 -->
<g id="node9" class="node">
<title>x3</title>
<path fill="none" stroke="black" d="M183,-148C183,-148 222,-148 222,-148 228,-148 234,-154 234,-160 234,-160 234,-182 234,-182 234,-188 228,-194 222,-194 222,-194 183,-194 183,-194 177,-194 171,-188 171,-182 171,-182 171,-160 171,-160 171,-154 177,-148 183,-148"/>
<text text-anchor="middle" x="202.5" y="-178.8" font-family="Times New Roman,serif" font-size="14.00">0:0 &#45; 1:1</text>
<polyline fill="none" stroke="black" points="171,-171 234,-171 "/>
<text text-anchor="middle" x="202.5" y="-155.8" font-family="Times New Roman,serif" font-size="14.00">X &#45;&gt; 0:0</text>
</g>
<!-- n1&#45;&gt;x3 -->
<g id="edge5" class="edge">
<title>n1:e&#45;&gt;x3:w</title>
<path fill="none" stroke="#7570b3" d="M649.2,-139C657.21,-139 652.86,-150.49 648.2,-157 628.1,-185.04 609.98,-179.02 576.2,-186 427.21,-216.8 386.12,-192.61 234,-194.5 205.78,-194.85 191.3,-213.57 170.5,-194.5 170.03,-194.07 169.58,-193.56 169.16,-193.01"/>
<polygon fill="#7570b3" stroke="#7570b3" points="172.66,-193.11 169.5,-183 165.66,-192.88 172.66,-193.11"/>
</g>
<!-- n2 -->
<g id="node2" class="node">
<title>n2</title>
<polygon fill="none" stroke="black" points="509.1,-177 441.9,-159 509.1,-141 576.3,-159 509.1,-177"/>
<text text-anchor="middle" x="509.1" y="-155.3" font-family="Times New Roman,serif" font-size="14.00">next_state</text>
</g>
<!-- n3 -->
<g id="node3" class="node">
<title>n3</title>
<polygon fill="none" stroke="black" points="54,-33.54 54,-48.46 38.18,-59 15.82,-59 0,-48.46 0,-33.54 15.82,-23 38.18,-23 54,-33.54"/>
<text text-anchor="middle" x="27" y="-37.3" font-family="Times New Roman,serif" font-size="14.00">w</text>
</g>
<!-- c10 -->
<g id="node5" class="node">
<title>c10</title>
<polygon fill="none" stroke="black" points="252,-30 252,-122 424,-122 424,-30 252,-30"/>
<text text-anchor="middle" x="266" y="-106.8" font-family="Times New Roman,serif" font-size="14.00">I0</text>
<polyline fill="none" stroke="black" points="252,-99 280,-99 "/>
<text text-anchor="middle" x="266" y="-83.8" font-family="Times New Roman,serif" font-size="14.00">I1</text>
<polyline fill="none" stroke="black" points="252,-76 280,-76 "/>
<text text-anchor="middle" x="266" y="-60.8" font-family="Times New Roman,serif" font-size="14.00">I2</text>
<polyline fill="none" stroke="black" points="252,-53 280,-53 "/>
<text text-anchor="middle" x="266" y="-37.8" font-family="Times New Roman,serif" font-size="14.00">I3</text>
<polyline fill="none" stroke="black" points="280,-30 280,-122 "/>
<text text-anchor="middle" x="338.5" y="-79.8" font-family="Times New Roman,serif" font-size="14.00">Y2_SB_LUT4_O</text>
<text text-anchor="middle" x="338.5" y="-64.8" font-family="Times New Roman,serif" font-size="14.00">SB_LUT4</text>
<polyline fill="none" stroke="black" points="397,-30 397,-122 "/>
<text text-anchor="middle" x="410.5" y="-72.3" font-family="Times New Roman,serif" font-size="14.00">O</text>
</g>
<!-- n3&#45;&gt;c10 -->
<g id="edge7" class="edge">
<title>n3:e&#45;&gt;c10:w</title>
<path fill="none" stroke="#e7298a" d="M54,-41C139.13,-41 161.68,-62.24 241.92,-63.9"/>
<polygon fill="#e7298a" stroke="#e7298a" points="241.96,-67.4 252,-64 242.04,-60.4 241.96,-67.4"/>
</g>
<!-- n4 -->
<g id="node4" class="node">
<title>n4</title>
<polygon fill="none" stroke="black" points="54,-135.54 54,-150.46 38.18,-161 15.82,-161 0,-150.46 0,-135.54 15.82,-125 38.18,-125 54,-135.54"/>
<text text-anchor="middle" x="27" y="-139.3" font-family="Times New Roman,serif" font-size="14.00">y</text>
</g>
<!-- x0 -->
<g id="node6" class="node">
<title>x0</title>
<path fill="none" stroke="black" d="M103,-125C103,-125 141,-125 141,-125 147,-125 153,-131 153,-137 153,-137 153,-149 153,-149 153,-155 147,-161 141,-161 141,-161 103,-161 103,-161 97,-161 91,-155 91,-149 91,-149 91,-137 91,-137 91,-131 97,-125 103,-125"/>
<text text-anchor="middle" x="122" y="-139.3" font-family="Times New Roman,serif" font-size="14.00">0:0 &#45; 0:0</text>
</g>
<!-- n4&#45;&gt;x0 -->
<g id="edge8" class="edge">
<title>n4:e&#45;&gt;x0:w</title>
<path fill="none" stroke="#7570b3" d="M54,-143C66.46,-143 71.84,-143 80.87,-143"/>
<polygon fill="#7570b3" stroke="#7570b3" points="81,-146.5 91,-143 81,-139.5 81,-146.5"/>
</g>
<!-- x1 -->
<g id="node7" class="node">
<title>x1</title>
<path fill="none" stroke="black" d="M103,-180C103,-180 141,-180 141,-180 147,-180 153,-186 153,-192 153,-192 153,-204 153,-204 153,-210 147,-216 141,-216 141,-216 103,-216 103,-216 97,-216 91,-210 91,-204 91,-204 91,-192 91,-192 91,-186 97,-180 103,-180"/>
<text text-anchor="middle" x="122" y="-194.3" font-family="Times New Roman,serif" font-size="14.00">2:2 &#45; 0:0</text>
</g>
<!-- n4&#45;&gt;x1 -->
<g id="edge9" class="edge">
<title>n4:e&#45;&gt;x1:w</title>
<path fill="none" stroke="#7570b3" d="M54,-143C79.32,-143 66.69,-183.62 81.33,-195.04"/>
<polygon fill="#7570b3" stroke="#7570b3" points="80.41,-198.42 91,-198 82.46,-191.73 80.41,-198.42"/>
</g>
<!-- x2 -->
<g id="node8" class="node">
<title>x2</title>
<path fill="none" stroke="black" d="M103,-70C103,-70 141,-70 141,-70 147,-70 153,-76 153,-82 153,-82 153,-94 153,-94 153,-100 147,-106 141,-106 141,-106 103,-106 103,-106 97,-106 91,-100 91,-94 91,-94 91,-82 91,-82 91,-76 97,-70 103,-70"/>
<text text-anchor="middle" x="122" y="-84.3" font-family="Times New Roman,serif" font-size="14.00">1:1 &#45; 0:0</text>
</g>
<!-- n4&#45;&gt;x2 -->
<g id="edge10" class="edge">
<title>n4:e&#45;&gt;x2:w</title>
<path fill="none" stroke="#7570b3" d="M54,-143C79.32,-143 66.69,-102.38 81.33,-90.96"/>
<polygon fill="#7570b3" stroke="#7570b3" points="82.46,-94.27 91,-88 80.41,-87.58 82.46,-94.27"/>
</g>
<!-- c10&#45;&gt;n1 -->
<g id="edge4" class="edge">
<title>c10:e&#45;&gt;n1:w</title>
<path fill="none" stroke="#7570b3" d="M424,-76C496.08,-76 508.78,-106.49 576.2,-132 579.96,-133.42 582.26,-135.05 584.53,-136.38"/>
<polygon fill="#7570b3" stroke="#7570b3" points="583.63,-139.76 594.2,-139 585.46,-133 583.63,-139.76"/>
</g>
<!-- x0&#45;&gt;c10 -->
<g id="edge1" class="edge">
<title>x0:e&#45;&gt;c10:w</title>
<path fill="none" stroke="#66a61e" d="M165.02,-142.21C197.04,-137.8 207.84,-116.31 239.76,-111.82"/>
<polygon fill="none" stroke="#66a61e" points="164.97,-142.21 159.25,-146.6 153,-143 158.72,-138.61 164.97,-142.21"/>
<polygon fill="none" stroke="#66a61e" points="240.03,-111.8 245.75,-107.41 252,-111 246.28,-115.39 240.03,-111.8"/>
</g>
<!-- x1&#45;&gt;c10 -->
<g id="edge2" class="edge">
<title>x1:e&#45;&gt;c10:w</title>
<path fill="none" stroke="#1b9e77" d="M164.32,-193.21C171.06,-182.46 158,-156.02 171,-139 194.21,-108.63 206.76,-91.66 239.92,-88.53"/>
<polygon fill="none" stroke="#1b9e77" points="164.05,-193.32 160.08,-199.35 153,-198 156.97,-191.98 164.05,-193.32"/>
<polygon fill="none" stroke="#1b9e77" points="240.01,-88.53 245.83,-84.27 252,-88 246.18,-92.26 240.01,-88.53"/>
</g>
<!-- x2&#45;&gt;c10 -->
<g id="edge3" class="edge">
<title>x2:e&#45;&gt;c10:w</title>
<path fill="none" stroke="#1b9e77" d="M165.06,-86.93C198.58,-80.64 206.26,-48.58 239.63,-42.13"/>
<polygon fill="none" stroke="#1b9e77" points="164.95,-86.94 159.33,-91.45 153,-88 158.62,-83.49 164.95,-86.94"/>
<polygon fill="none" stroke="#1b9e77" points="240.05,-42.09 245.66,-37.56 252,-41 246.39,-45.53 240.05,-42.09"/>
</g>
<!-- x3&#45;&gt;n2 -->
<g id="edge6" class="edge">
<title>x3:e&#45;&gt;n2:w</title>
<path fill="none" stroke="#e7298a" stroke-width="3" d="M234,-171C323.16,-171 347.61,-159.87 431.97,-159.05"/>
<polygon fill="#e7298a" stroke="#e7298a" stroke-width="3" points="432.02,-162.55 442,-159 431.98,-155.55 432.02,-162.55"/>
<text text-anchor="middle" x="338" y="-173.8" font-family="Times New Roman,serif" font-size="14.00" fill="#e7298a">&lt;2&gt;</text>
</g>
</g>
</svg>
