<?xml version="1.0" encoding="UTF-8" standalone="no"?>
<!DOCTYPE svg PUBLIC "-//W3C//DTD SVG 1.1//EN"
 "http://www.w3.org/Graphics/SVG/1.1/DTD/svg11.dtd">
<!-- Generated by graphviz version 4.0.0 (20220529.0937)
 -->
<!-- Title: bcd_fadd Pages: 1 -->
<svg width="1254pt" height="289pt"
 viewBox="0.00 0.00 1253.62 289.00" xmlns="http://www.w3.org/2000/svg" xmlns:xlink="http://www.w3.org/1999/xlink">
<g id="graph0" class="graph" transform="scale(1 1) rotate(0) translate(4 285)">
<title>bcd_fadd</title>
<polygon fill="white" stroke="transparent" points="-4,4 -4,-285 1249.62,-285 1249.62,4 -4,4"/>
<text text-anchor="middle" x="622.81" y="-7.8" font-family="Times New Roman,serif" font-size="14.00">bcd_fadd</text>
<!-- n5 -->
<g id="node1" class="node">
<title>n5</title>
<polygon fill="none" stroke="black" points="54,-201.54 54,-216.46 38.18,-227 15.82,-227 0,-216.46 0,-201.54 15.82,-191 38.18,-191 54,-201.54"/>
<text text-anchor="middle" x="27" y="-205.3" font-family="Times New Roman,serif" font-size="14.00">a</text>
</g>
<!-- c14 -->
<g id="node6" class="node">
<title>c14</title>
<polygon fill="none" stroke="black" points="114,-198 114,-244 210,-244 210,-198 114,-198"/>
<text text-anchor="middle" x="127" y="-228.8" font-family="Times New Roman,serif" font-size="14.00">A</text>
<polyline fill="none" stroke="black" points="114,-221 140,-221 "/>
<text text-anchor="middle" x="127" y="-205.8" font-family="Times New Roman,serif" font-size="14.00">B</text>
<polyline fill="none" stroke="black" points="140,-198 140,-244 "/>
<text text-anchor="middle" x="162" y="-224.8" font-family="Times New Roman,serif" font-size="14.00">$2</text>
<text text-anchor="middle" x="162" y="-209.8" font-family="Times New Roman,serif" font-size="14.00">$add</text>
<polyline fill="none" stroke="black" points="184,-198 184,-244 "/>
<text text-anchor="middle" x="197" y="-217.3" font-family="Times New Roman,serif" font-size="14.00">Y</text>
</g>
<!-- n5&#45;&gt;c14 -->
<g id="edge1" class="edge">
<title>n5:e&#45;&gt;c14:w</title>
<path fill="none" stroke="#e7298a" stroke-width="3" d="M54,-209C76.92,-209 85.06,-209 103.83,-209"/>
<polygon fill="#e7298a" stroke="#e7298a" stroke-width="3" points="104,-212.5 114,-209 104,-205.5 104,-212.5"/>
<text text-anchor="middle" x="84" y="-212.8" font-family="Times New Roman,serif" font-size="14.00" fill="#e7298a">&lt;4&gt;</text>
</g>
<!-- n6 -->
<g id="node2" class="node">
<title>n6</title>
<polygon fill="none" stroke="black" points="54,-147.54 54,-162.46 38.18,-173 15.82,-173 0,-162.46 0,-147.54 15.82,-137 38.18,-137 54,-147.54"/>
<text text-anchor="middle" x="27" y="-151.3" font-family="Times New Roman,serif" font-size="14.00">b</text>
</g>
<!-- c15 -->
<g id="node7" class="node">
<title>c15</title>
<polygon fill="none" stroke="black" points="270,-148 270,-194 366,-194 366,-148 270,-148"/>
<text text-anchor="middle" x="283" y="-178.8" font-family="Times New Roman,serif" font-size="14.00">A</text>
<polyline fill="none" stroke="black" points="270,-171 296,-171 "/>
<text text-anchor="middle" x="283" y="-155.8" font-family="Times New Roman,serif" font-size="14.00">B</text>
<polyline fill="none" stroke="black" points="296,-148 296,-194 "/>
<text text-anchor="middle" x="318" y="-174.8" font-family="Times New Roman,serif" font-size="14.00">$3</text>
<text text-anchor="middle" x="318" y="-159.8" font-family="Times New Roman,serif" font-size="14.00">$add</text>
<polyline fill="none" stroke="black" points="340,-148 340,-194 "/>
<text text-anchor="middle" x="353" y="-167.3" font-family="Times New Roman,serif" font-size="14.00">Y</text>
</g>
<!-- n6&#45;&gt;c15 -->
<g id="edge2" class="edge">
<title>n6:e&#45;&gt;c15:w</title>
<path fill="none" stroke="#7570b3" stroke-width="3" d="M54,-155C146.55,-155 172.16,-158.72 259.87,-158.98"/>
<polygon fill="#7570b3" stroke="#7570b3" stroke-width="3" points="259.99,-162.48 270,-159 260.01,-155.48 259.99,-162.48"/>
<text text-anchor="middle" x="162" y="-162.8" font-family="Times New Roman,serif" font-size="14.00" fill="#7570b3">&lt;4&gt;</text>
</g>
<!-- n7 -->
<g id="node3" class="node">
<title>n7</title>
<polygon fill="none" stroke="black" points="54,-255.54 54,-270.46 38.18,-281 15.82,-281 0,-270.46 0,-255.54 15.82,-245 38.18,-245 54,-255.54"/>
<text text-anchor="middle" x="27" y="-259.3" font-family="Times New Roman,serif" font-size="14.00">cin</text>
</g>
<!-- n7&#45;&gt;c14 -->
<g id="edge3" class="edge">
<title>n7:e&#45;&gt;c14:w</title>
<path fill="none" stroke="#d95f02" d="M54,-263C79.97,-263 83.6,-240.24 103.81,-234.37"/>
<polygon fill="#d95f02" stroke="#d95f02" points="104.55,-237.8 114,-233 103.62,-230.86 104.55,-237.8"/>
</g>
<!-- n8 -->
<g id="node4" class="node">
<title>n8</title>
<polygon fill="none" stroke="black" points="1245.46,-191.54 1245.46,-206.46 1228.65,-217 1204.89,-217 1188.09,-206.46 1188.09,-191.54 1204.89,-181 1228.65,-181 1245.46,-191.54"/>
<text text-anchor="middle" x="1216.77" y="-195.3" font-family="Times New Roman,serif" font-size="14.00">cout</text>
</g>
<!-- n10 -->
<g id="node5" class="node">
<title>n10</title>
<polygon fill="none" stroke="black" points="1245.05,-136.54 1245.05,-151.46 1228.49,-162 1205.06,-162 1188.49,-151.46 1188.49,-136.54 1205.06,-126 1228.49,-126 1245.05,-136.54"/>
<text text-anchor="middle" x="1216.77" y="-140.3" font-family="Times New Roman,serif" font-size="14.00">sum</text>
</g>
<!-- c14&#45;&gt;c15 -->
<g id="edge6" class="edge">
<title>c14:e&#45;&gt;c15:w</title>
<path fill="none" stroke="#66a61e" stroke-width="3" d="M210,-221C237.74,-221 238.68,-191.65 259.94,-184.54"/>
<polygon fill="#66a61e" stroke="#66a61e" stroke-width="3" points="260.64,-187.97 270,-183 259.59,-181.05 260.64,-187.97"/>
<text text-anchor="middle" x="240" y="-218.8" font-family="Times New Roman,serif" font-size="14.00" fill="#66a61e">&lt;5&gt;</text>
</g>
<!-- n2 -->
<g id="node11" class="node">
<title>n2</title>
<ellipse fill="black" stroke="black" cx="460.45" cy="-171" rx="1.8" ry="1.8"/>
</g>
<!-- c15&#45;&gt;n2 -->
<g id="edge7" class="edge">
<title>c15:e&#45;&gt;n2:w</title>
<path fill="none" stroke="#1b9e77" stroke-width="3" d="M366,-171C402.99,-171 414.73,-171 447.19,-171"/>
<polygon fill="#1b9e77" stroke="#1b9e77" stroke-width="3" points="447.45,-174.5 457.45,-171 447.45,-167.5 447.45,-174.5"/>
<text text-anchor="middle" x="396" y="-174.8" font-family="Times New Roman,serif" font-size="14.00" fill="#1b9e77">&lt;5&gt;</text>
</g>
<!-- n9 -->
<g id="node8" class="node">
<title>n9</title>
<polygon fill="none" stroke="black" points="937.91,-189 869.88,-171 937.91,-153 1005.95,-171 937.91,-189"/>
<text text-anchor="middle" x="937.91" y="-167.3" font-family="Times New Roman,serif" font-size="14.00">large_sum</text>
</g>
<!-- x2 -->
<g id="node9" class="node">
<title>x2</title>
<path fill="none" stroke="black" d="M1077.93,-181C1077.93,-181 1115.93,-181 1115.93,-181 1121.93,-181 1127.93,-187 1127.93,-193 1127.93,-193 1127.93,-205 1127.93,-205 1127.93,-211 1121.93,-217 1115.93,-217 1115.93,-217 1077.93,-217 1077.93,-217 1071.93,-217 1065.93,-211 1065.93,-205 1065.93,-205 1065.93,-193 1065.93,-193 1065.93,-187 1071.93,-181 1077.93,-181"/>
<text text-anchor="middle" x="1096.93" y="-195.3" font-family="Times New Roman,serif" font-size="14.00">4:4 &#45; 0:0</text>
</g>
<!-- n9&#45;&gt;x2 -->
<g id="edge4" class="edge">
<title>n9:e&#45;&gt;x2:w</title>
<path fill="none" stroke="#1b9e77" stroke-width="3" d="M1005.93,-171C1031.56,-171 1035.74,-192.25 1055.84,-197.72"/>
<polygon fill="#1b9e77" stroke="#1b9e77" stroke-width="3" points="1055.57,-201.22 1065.93,-199 1056.45,-194.27 1055.57,-201.22"/>
<text text-anchor="middle" x="1035.93" y="-198.8" font-family="Times New Roman,serif" font-size="14.00" fill="#1b9e77">&lt;4&gt;</text>
</g>
<!-- x3 -->
<g id="node10" class="node">
<title>x3</title>
<path fill="none" stroke="black" d="M1077.93,-126C1077.93,-126 1115.93,-126 1115.93,-126 1121.93,-126 1127.93,-132 1127.93,-138 1127.93,-138 1127.93,-150 1127.93,-150 1127.93,-156 1121.93,-162 1115.93,-162 1115.93,-162 1077.93,-162 1077.93,-162 1071.93,-162 1065.93,-156 1065.93,-150 1065.93,-150 1065.93,-138 1065.93,-138 1065.93,-132 1071.93,-126 1077.93,-126"/>
<text text-anchor="middle" x="1096.93" y="-140.3" font-family="Times New Roman,serif" font-size="14.00">3:0 &#45; 3:0</text>
</g>
<!-- n9&#45;&gt;x3 -->
<g id="edge5" class="edge">
<title>n9:e&#45;&gt;x3:w</title>
<path fill="none" stroke="#1b9e77" stroke-width="3" d="M1005.93,-171C1016.06,-171 1014.94,-161.69 1023.93,-157 1037.87,-149.73 1043.92,-145.74 1055.93,-144.46"/>
<polygon fill="#1b9e77" stroke="#1b9e77" stroke-width="3" points="1056.1,-147.96 1065.93,-144 1055.78,-140.97 1056.1,-147.96"/>
<text text-anchor="middle" x="1035.93" y="-160.8" font-family="Times New Roman,serif" font-size="14.00" fill="#1b9e77">&lt;4&gt;</text>
</g>
<!-- x2&#45;&gt;n8 -->
<g id="edge13" class="edge">
<title>x2:e&#45;&gt;n8:w</title>
<path fill="none" stroke="#1b9e77" d="M1127.93,-199C1150.85,-199 1158.99,-199 1177.75,-199"/>
<polygon fill="#1b9e77" stroke="#1b9e77" points="1177.93,-202.5 1187.93,-199 1177.93,-195.5 1177.93,-202.5"/>
</g>
<!-- x3&#45;&gt;n10 -->
<g id="edge14" class="edge">
<title>x3:e&#45;&gt;n10:w</title>
<path fill="none" stroke="#1b9e77" stroke-width="3" d="M1127.93,-144C1150.85,-144 1158.99,-144 1177.75,-144"/>
<polygon fill="#1b9e77" stroke="#1b9e77" stroke-width="3" points="1177.93,-147.5 1187.93,-144 1177.93,-140.5 1177.93,-147.5"/>
<text text-anchor="middle" x="1157.93" y="-147.8" font-family="Times New Roman,serif" font-size="14.00" fill="#1b9e77">&lt;4&gt;</text>
</g>
<!-- c16 -->
<g id="node13" class="node">
<title>c16</title>
<polygon fill="none" stroke="black" points="554.89,-52 554.89,-98 650.89,-98 650.89,-52 554.89,-52"/>
<text text-anchor="middle" x="567.89" y="-82.8" font-family="Times New Roman,serif" font-size="14.00">A</text>
<polyline fill="none" stroke="black" points="554.89,-75 580.89,-75 "/>
<text text-anchor="middle" x="567.89" y="-59.8" font-family="Times New Roman,serif" font-size="14.00">B</text>
<polyline fill="none" stroke="black" points="580.89,-52 580.89,-98 "/>
<text text-anchor="middle" x="602.89" y="-78.8" font-family="Times New Roman,serif" font-size="14.00">$5</text>
<text text-anchor="middle" x="602.89" y="-63.8" font-family="Times New Roman,serif" font-size="14.00">$add</text>
<polyline fill="none" stroke="black" points="624.89,-52 624.89,-98 "/>
<text text-anchor="middle" x="637.89" y="-71.3" font-family="Times New Roman,serif" font-size="14.00">Y</text>
</g>
<!-- n2&#45;&gt;c16 -->
<g id="edge15" class="edge">
<title>n2:e&#45;&gt;c16:w</title>
<path fill="none" stroke="#1b9e77" stroke-width="3" d="M463.45,-171C473.98,-171 529.6,-118.6 536.89,-111 542.81,-104.84 543.06,-96.72 545.98,-91.68"/>
<polygon fill="#1b9e77" stroke="#1b9e77" stroke-width="3" points="547.67,-94.75 554.89,-87 544.41,-88.55 547.67,-94.75"/>
<text text-anchor="middle" x="524.89" y="-136.8" font-family="Times New Roman,serif" font-size="14.00" fill="#1b9e77">&lt;5&gt;</text>
</g>
<!-- c19 -->
<g id="node14" class="node">
<title>c19</title>
<polygon fill="none" stroke="black" points="710.89,-136.5 710.89,-205.5 809.89,-205.5 809.89,-136.5 710.89,-136.5"/>
<text text-anchor="middle" x="723.89" y="-190.3" font-family="Times New Roman,serif" font-size="14.00">A</text>
<polyline fill="none" stroke="black" points="710.89,-182.5 736.89,-182.5 "/>
<text text-anchor="middle" x="723.89" y="-167.3" font-family="Times New Roman,serif" font-size="14.00">B</text>
<polyline fill="none" stroke="black" points="710.89,-159.5 736.89,-159.5 "/>
<text text-anchor="middle" x="723.89" y="-144.3" font-family="Times New Roman,serif" font-size="14.00">S</text>
<polyline fill="none" stroke="black" points="736.89,-136.5 736.89,-205.5 "/>
<text text-anchor="middle" x="760.39" y="-174.8" font-family="Times New Roman,serif" font-size="14.00">$7</text>
<text text-anchor="middle" x="760.39" y="-159.8" font-family="Times New Roman,serif" font-size="14.00">$mux</text>
<polyline fill="none" stroke="black" points="783.89,-136.5 783.89,-205.5 "/>
<text text-anchor="middle" x="796.89" y="-167.3" font-family="Times New Roman,serif" font-size="14.00">Y</text>
</g>
<!-- n2&#45;&gt;c19 -->
<g id="edge17" class="edge">
<title>n2:e&#45;&gt;c19:w</title>
<path fill="none" stroke="#1b9e77" stroke-width="3" d="M463.45,-171C485.78,-171 490.73,-177.21 512.89,-180 597,-190.6 620.84,-193.76 700.85,-193.99"/>
<polygon fill="#1b9e77" stroke="#1b9e77" stroke-width="3" points="700.89,-197.49 710.89,-194 700.9,-190.49 700.89,-197.49"/>
<text text-anchor="middle" x="602.89" y="-197.8" font-family="Times New Roman,serif" font-size="14.00" fill="#1b9e77">&lt;5&gt;</text>
</g>
<!-- c17 -->
<g id="node16" class="node">
<title>c17</title>
<polygon fill="none" stroke="black" points="559.89,-117 559.89,-163 645.89,-163 645.89,-117 559.89,-117"/>
<text text-anchor="middle" x="572.89" y="-147.8" font-family="Times New Roman,serif" font-size="14.00">A</text>
<polyline fill="none" stroke="black" points="559.89,-140 585.89,-140 "/>
<text text-anchor="middle" x="572.89" y="-124.8" font-family="Times New Roman,serif" font-size="14.00">B</text>
<polyline fill="none" stroke="black" points="585.89,-117 585.89,-163 "/>
<text text-anchor="middle" x="602.89" y="-143.8" font-family="Times New Roman,serif" font-size="14.00">$4</text>
<text text-anchor="middle" x="602.89" y="-128.8" font-family="Times New Roman,serif" font-size="14.00">$gt</text>
<polyline fill="none" stroke="black" points="619.89,-117 619.89,-163 "/>
<text text-anchor="middle" x="632.89" y="-136.3" font-family="Times New Roman,serif" font-size="14.00">Y</text>
</g>
<!-- n2&#45;&gt;c17 -->
<g id="edge16" class="edge">
<title>n2:e&#45;&gt;c17:w</title>
<path fill="none" stroke="#1b9e77" stroke-width="3" d="M463.45,-171C502.98,-171 513.85,-155.13 548.46,-152.4"/>
<polygon fill="#1b9e77" stroke="#1b9e77" stroke-width="3" points="549.03,-155.88 558.89,-152 548.77,-148.88 549.03,-155.88"/>
<text text-anchor="middle" x="524.89" y="-164.8" font-family="Times New Roman,serif" font-size="14.00" fill="#1b9e77">&lt;5&gt;</text>
</g>
<!-- v0 -->
<g id="node12" class="node">
<title>v0</title>
<ellipse fill="none" stroke="black" cx="460.45" cy="-41" rx="30.59" ry="18"/>
<text text-anchor="middle" x="460.45" y="-37.3" font-family="Times New Roman,serif" font-size="14.00">3&#39;110</text>
</g>
<!-- v0&#45;&gt;c16 -->
<g id="edge8" class="edge">
<title>v0:e&#45;&gt;c16:w</title>
<path fill="none" stroke="#e6ab02" stroke-width="3" d="M492.45,-41C504.4,-41 528.44,-55.52 544.93,-60.97"/>
<polygon fill="#e6ab02" stroke="#e6ab02" stroke-width="3" points="544.4,-64.43 554.89,-63 545.79,-57.57 544.4,-64.43"/>
<text text-anchor="middle" x="524.89" y="-61.8" font-family="Times New Roman,serif" font-size="14.00" fill="#e6ab02">&lt;3&gt;</text>
</g>
<!-- c16&#45;&gt;c19 -->
<g id="edge9" class="edge">
<title>c16:e&#45;&gt;c19:w</title>
<path fill="none" stroke="#7570b3" stroke-width="3" d="M650.89,-75C697.28,-75 666.37,-156.59 700.68,-169.33"/>
<polygon fill="#7570b3" stroke="#7570b3" stroke-width="3" points="700.46,-172.84 710.89,-171 701.59,-165.94 700.46,-172.84"/>
<text text-anchor="middle" x="680.89" y="-166.8" font-family="Times New Roman,serif" font-size="14.00" fill="#7570b3">&lt;5&gt;</text>
</g>
<!-- c19&#45;&gt;n9 -->
<g id="edge12" class="edge">
<title>c19:e&#45;&gt;n9:w</title>
<path fill="none" stroke="#1b9e77" stroke-width="3" d="M809.89,-171C832.81,-171 840.96,-171 859.72,-171"/>
<polygon fill="#1b9e77" stroke="#1b9e77" stroke-width="3" points="859.89,-174.5 869.89,-171 859.89,-167.5 859.89,-174.5"/>
<text text-anchor="middle" x="839.89" y="-174.8" font-family="Times New Roman,serif" font-size="14.00" fill="#1b9e77">&lt;4&gt;</text>
</g>
<!-- v1 -->
<g id="node15" class="node">
<title>v1</title>
<ellipse fill="none" stroke="black" cx="460.45" cy="-95" rx="34.39" ry="18"/>
<text text-anchor="middle" x="460.45" y="-91.3" font-family="Times New Roman,serif" font-size="14.00">4&#39;1001</text>
</g>
<!-- v1&#45;&gt;c17 -->
<g id="edge10" class="edge">
<title>v1:e&#45;&gt;c17:w</title>
<path fill="none" stroke="#e6ab02" stroke-width="3" d="M494.89,-95C513.57,-95 520.47,-87.11 536.89,-96 547.8,-101.91 545.48,-115.85 549.72,-123.23"/>
<polygon fill="#e6ab02" stroke="#e6ab02" stroke-width="3" points="548.41,-126.49 558.89,-128 551.63,-120.28 548.41,-126.49"/>
<text text-anchor="middle" x="524.89" y="-99.8" font-family="Times New Roman,serif" font-size="14.00" fill="#e6ab02">&lt;4&gt;</text>
</g>
<!-- c17&#45;&gt;c19 -->
<g id="edge11" class="edge">
<title>c17:e&#45;&gt;c19:w</title>
<path fill="none" stroke="#e7298a" d="M646.89,-140C671.86,-140 680.14,-146.07 700.81,-147.64"/>
<polygon fill="#e7298a" stroke="#e7298a" points="700.77,-151.14 710.89,-148 701.03,-144.14 700.77,-151.14"/>
</g>
</g>
</svg>
