<svg xmlns="http://www.w3.org/2000/svg" xmlns:xlink="http://www.w3.org/1999/xlink" xmlns:s="https://github.com/nturley/netlistsvg" width="1534" height="702.5">
  <style>svg {
    stroke:#000;
    fill:none;
  }
  text {
    fill:#000;
    stroke:none;
    font-size:10px;
    font-weight: bold;
    font-family: "Courier New", monospace;
  }
  .nodelabel {
    text-anchor: middle;
  }
  .inputPortLabel {
    text-anchor: end;
  }
  .splitjoinBody {
    fill:#000;
  }</style>
  <g s:type="and" transform="translate(1222,304.5)" s:width="30" s:height="25" id="cell_$auto$aigmap.cc:123:execute$102">
    <s:alias val="$and"/>
    <s:alias val="$logic_and"/>
    <s:alias val="$_AND_"/>
    <path d="M0,0 L0,25 L15,25 A15 12.5 0 0 0 15,0 Z" class="cell_$auto$aigmap.cc:123:execute$102"/>
    <g s:x="0" s:y="5" s:pid="A"/>
    <g s:x="0" s:y="20" s:pid="B"/>
    <g s:x="30" s:y="12.5" s:pid="Y"/>
  </g>
  <g s:type="and" transform="translate(1352,312)" s:width="30" s:height="25" id="cell_$auto$aigmap.cc:123:execute$108">
    <s:alias val="$and"/>
    <s:alias val="$logic_and"/>
    <s:alias val="$_AND_"/>
    <path d="M0,0 L0,25 L15,25 A15 12.5 0 0 0 15,0 Z" class="cell_$auto$aigmap.cc:123:execute$108"/>
    <g s:x="0" s:y="5" s:pid="A"/>
    <g s:x="0" s:y="20" s:pid="B"/>
    <g s:x="30" s:y="12.5" s:pid="Y"/>
  </g>
  <g s:type="and" transform="translate(1222,583.5)" s:width="30" s:height="25" id="cell_$auto$aigmap.cc:123:execute$112">
    <s:alias val="$and"/>
    <s:alias val="$logic_and"/>
    <s:alias val="$_AND_"/>
    <path d="M0,0 L0,25 L15,25 A15 12.5 0 0 0 15,0 Z" class="cell_$auto$aigmap.cc:123:execute$112"/>
    <g s:x="0" s:y="5" s:pid="A"/>
    <g s:x="0" s:y="20" s:pid="B"/>
    <g s:x="30" s:y="12.5" s:pid="Y"/>
  </g>
  <g s:type="and" transform="translate(1222,643.5)" s:width="30" s:height="25" id="cell_$auto$aigmap.cc:123:execute$116">
    <s:alias val="$and"/>
    <s:alias val="$logic_and"/>
    <s:alias val="$_AND_"/>
    <path d="M0,0 L0,25 L15,25 A15 12.5 0 0 0 15,0 Z" class="cell_$auto$aigmap.cc:123:execute$116"/>
    <g s:x="0" s:y="5" s:pid="A"/>
    <g s:x="0" s:y="20" s:pid="B"/>
    <g s:x="30" s:y="12.5" s:pid="Y"/>
  </g>
  <g s:type="and" transform="translate(1352,591)" s:width="30" s:height="25" id="cell_$auto$aigmap.cc:123:execute$120">
    <s:alias val="$and"/>
    <s:alias val="$logic_and"/>
    <s:alias val="$_AND_"/>
    <path d="M0,0 L0,25 L15,25 A15 12.5 0 0 0 15,0 Z" class="cell_$auto$aigmap.cc:123:execute$120"/>
    <g s:x="0" s:y="5" s:pid="A"/>
    <g s:x="0" s:y="20" s:pid="B"/>
    <g s:x="30" s:y="12.5" s:pid="Y"/>
  </g>
  <g s:type="and" transform="translate(427,424)" s:width="30" s:height="25" id="cell_$auto$aigmap.cc:123:execute$126">
    <s:alias val="$and"/>
    <s:alias val="$logic_and"/>
    <s:alias val="$_AND_"/>
    <path d="M0,0 L0,25 L15,25 A15 12.5 0 0 0 15,0 Z" class="cell_$auto$aigmap.cc:123:execute$126"/>
    <g s:x="0" s:y="5" s:pid="A"/>
    <g s:x="0" s:y="20" s:pid="B"/>
    <g s:x="30" s:y="12.5" s:pid="Y"/>
  </g>
  <g s:type="and" transform="translate(427,364)" s:width="30" s:height="25" id="cell_$auto$aigmap.cc:123:execute$130">
    <s:alias val="$and"/>
    <s:alias val="$logic_and"/>
    <s:alias val="$_AND_"/>
    <path d="M0,0 L0,25 L15,25 A15 12.5 0 0 0 15,0 Z" class="cell_$auto$aigmap.cc:123:execute$130"/>
    <g s:x="0" s:y="5" s:pid="A"/>
    <g s:x="0" s:y="20" s:pid="B"/>
    <g s:x="30" s:y="12.5" s:pid="Y"/>
  </g>
  <g s:type="and" transform="translate(557,431.5)" s:width="30" s:height="25" id="cell_$auto$aigmap.cc:123:execute$134">
    <s:alias val="$and"/>
    <s:alias val="$logic_and"/>
    <s:alias val="$_AND_"/>
    <path d="M0,0 L0,25 L15,25 A15 12.5 0 0 0 15,0 Z" class="cell_$auto$aigmap.cc:123:execute$134"/>
    <g s:x="0" s:y="5" s:pid="A"/>
    <g s:x="0" s:y="20" s:pid="B"/>
    <g s:x="30" s:y="12.5" s:pid="Y"/>
  </g>
  <g s:type="and" transform="translate(1482,49.5)" s:width="30" s:height="25" id="cell_$auto$aigmap.cc:123:execute$24">
    <s:alias val="$and"/>
    <s:alias val="$logic_and"/>
    <s:alias val="$_AND_"/>
    <path d="M0,0 L0,25 L15,25 A15 12.5 0 0 0 15,0 Z" class="cell_$auto$aigmap.cc:123:execute$24"/>
    <g s:x="0" s:y="5" s:pid="A"/>
    <g s:x="0" s:y="20" s:pid="B"/>
    <g s:x="30" s:y="12.5" s:pid="Y"/>
  </g>
  <g s:type="and" transform="translate(687,337)" s:width="30" s:height="25" id="cell_$auto$aigmap.cc:123:execute$30">
    <s:alias val="$and"/>
    <s:alias val="$logic_and"/>
    <s:alias val="$_AND_"/>
    <path d="M0,0 L0,25 L15,25 A15 12.5 0 0 0 15,0 Z" class="cell_$auto$aigmap.cc:123:execute$30"/>
    <g s:x="0" s:y="5" s:pid="A"/>
    <g s:x="0" s:y="20" s:pid="B"/>
    <g s:x="30" s:y="12.5" s:pid="Y"/>
  </g>
  <g s:type="and" transform="translate(687,439)" s:width="30" s:height="25" id="cell_$auto$aigmap.cc:123:execute$34">
    <s:alias val="$and"/>
    <s:alias val="$logic_and"/>
    <s:alias val="$_AND_"/>
    <path d="M0,0 L0,25 L15,25 A15 12.5 0 0 0 15,0 Z" class="cell_$auto$aigmap.cc:123:execute$34"/>
    <g s:x="0" s:y="5" s:pid="A"/>
    <g s:x="0" s:y="20" s:pid="B"/>
    <g s:x="30" s:y="12.5" s:pid="Y"/>
  </g>
  <g s:type="and" transform="translate(817,344.5)" s:width="30" s:height="25" id="cell_$auto$aigmap.cc:123:execute$38">
    <s:alias val="$and"/>
    <s:alias val="$logic_and"/>
    <s:alias val="$_AND_"/>
    <path d="M0,0 L0,25 L15,25 A15 12.5 0 0 0 15,0 Z" class="cell_$auto$aigmap.cc:123:execute$38"/>
    <g s:x="0" s:y="5" s:pid="A"/>
    <g s:x="0" s:y="20" s:pid="B"/>
    <g s:x="30" s:y="12.5" s:pid="Y"/>
  </g>
  <g s:type="and" transform="translate(167,430)" s:width="30" s:height="25" id="cell_$auto$aigmap.cc:123:execute$44">
    <s:alias val="$and"/>
    <s:alias val="$logic_and"/>
    <s:alias val="$_AND_"/>
    <path d="M0,0 L0,25 L15,25 A15 12.5 0 0 0 15,0 Z" class="cell_$auto$aigmap.cc:123:execute$44"/>
    <g s:x="0" s:y="5" s:pid="A"/>
    <g s:x="0" s:y="20" s:pid="B"/>
    <g s:x="30" s:y="12.5" s:pid="Y"/>
  </g>
  <g s:type="and" transform="translate(167,490)" s:width="30" s:height="25" id="cell_$auto$aigmap.cc:123:execute$48">
    <s:alias val="$and"/>
    <s:alias val="$logic_and"/>
    <s:alias val="$_AND_"/>
    <path d="M0,0 L0,25 L15,25 A15 12.5 0 0 0 15,0 Z" class="cell_$auto$aigmap.cc:123:execute$48"/>
    <g s:x="0" s:y="5" s:pid="A"/>
    <g s:x="0" s:y="20" s:pid="B"/>
    <g s:x="30" s:y="12.5" s:pid="Y"/>
  </g>
  <g s:type="and" transform="translate(297,437.5)" s:width="30" s:height="25" id="cell_$auto$aigmap.cc:123:execute$52">
    <s:alias val="$and"/>
    <s:alias val="$logic_and"/>
    <s:alias val="$_AND_"/>
    <path d="M0,0 L0,25 L15,25 A15 12.5 0 0 0 15,0 Z" class="cell_$auto$aigmap.cc:123:execute$52"/>
    <g s:x="0" s:y="5" s:pid="A"/>
    <g s:x="0" s:y="20" s:pid="B"/>
    <g s:x="30" s:y="12.5" s:pid="Y"/>
  </g>
  <g s:type="and" transform="translate(1092,27)" s:width="30" s:height="25" id="cell_$auto$aigmap.cc:123:execute$60">
    <s:alias val="$and"/>
    <s:alias val="$logic_and"/>
    <s:alias val="$_AND_"/>
    <path d="M0,0 L0,25 L15,25 A15 12.5 0 0 0 15,0 Z" class="cell_$auto$aigmap.cc:123:execute$60"/>
    <g s:x="0" s:y="5" s:pid="A"/>
    <g s:x="0" s:y="20" s:pid="B"/>
    <g s:x="30" s:y="12.5" s:pid="Y"/>
  </g>
  <g s:type="and" transform="translate(1092,102)" s:width="30" s:height="25" id="cell_$auto$aigmap.cc:123:execute$64">
    <s:alias val="$and"/>
    <s:alias val="$logic_and"/>
    <s:alias val="$_AND_"/>
    <path d="M0,0 L0,25 L15,25 A15 12.5 0 0 0 15,0 Z" class="cell_$auto$aigmap.cc:123:execute$64"/>
    <g s:x="0" s:y="5" s:pid="A"/>
    <g s:x="0" s:y="20" s:pid="B"/>
    <g s:x="30" s:y="12.5" s:pid="Y"/>
  </g>
  <g s:type="and" transform="translate(1222,34.5)" s:width="30" s:height="25" id="cell_$auto$aigmap.cc:123:execute$68">
    <s:alias val="$and"/>
    <s:alias val="$logic_and"/>
    <s:alias val="$_AND_"/>
    <path d="M0,0 L0,25 L15,25 A15 12.5 0 0 0 15,0 Z" class="cell_$auto$aigmap.cc:123:execute$68"/>
    <g s:x="0" s:y="5" s:pid="A"/>
    <g s:x="0" s:y="20" s:pid="B"/>
    <g s:x="30" s:y="12.5" s:pid="Y"/>
  </g>
  <g s:type="and" transform="translate(1092,162)" s:width="30" s:height="25" id="cell_$auto$aigmap.cc:123:execute$76">
    <s:alias val="$and"/>
    <s:alias val="$logic_and"/>
    <s:alias val="$_AND_"/>
    <path d="M0,0 L0,25 L15,25 A15 12.5 0 0 0 15,0 Z" class="cell_$auto$aigmap.cc:123:execute$76"/>
    <g s:x="0" s:y="5" s:pid="A"/>
    <g s:x="0" s:y="20" s:pid="B"/>
    <g s:x="30" s:y="12.5" s:pid="Y"/>
  </g>
  <g s:type="and" transform="translate(1092,237)" s:width="30" s:height="25" id="cell_$auto$aigmap.cc:123:execute$80">
    <s:alias val="$and"/>
    <s:alias val="$logic_and"/>
    <s:alias val="$_AND_"/>
    <path d="M0,0 L0,25 L15,25 A15 12.5 0 0 0 15,0 Z" class="cell_$auto$aigmap.cc:123:execute$80"/>
    <g s:x="0" s:y="5" s:pid="A"/>
    <g s:x="0" s:y="20" s:pid="B"/>
    <g s:x="30" s:y="12.5" s:pid="Y"/>
  </g>
  <g s:type="and" transform="translate(1222,169.5)" s:width="30" s:height="25" id="cell_$auto$aigmap.cc:123:execute$84">
    <s:alias val="$and"/>
    <s:alias val="$logic_and"/>
    <s:alias val="$_AND_"/>
    <path d="M0,0 L0,25 L15,25 A15 12.5 0 0 0 15,0 Z" class="cell_$auto$aigmap.cc:123:execute$84"/>
    <g s:x="0" s:y="5" s:pid="A"/>
    <g s:x="0" s:y="20" s:pid="B"/>
    <g s:x="30" s:y="12.5" s:pid="Y"/>
  </g>
  <g s:type="and" transform="translate(1352,42)" s:width="30" s:height="25" id="cell_$auto$aigmap.cc:123:execute$88">
    <s:alias val="$and"/>
    <s:alias val="$logic_and"/>
    <s:alias val="$_AND_"/>
    <path d="M0,0 L0,25 L15,25 A15 12.5 0 0 0 15,0 Z" class="cell_$auto$aigmap.cc:123:execute$88"/>
    <g s:x="0" s:y="5" s:pid="A"/>
    <g s:x="0" s:y="20" s:pid="B"/>
    <g s:x="30" s:y="12.5" s:pid="Y"/>
  </g>
  <g s:type="and" transform="translate(1092,297)" s:width="30" s:height="25" id="cell_$auto$aigmap.cc:123:execute$94">
    <s:alias val="$and"/>
    <s:alias val="$logic_and"/>
    <s:alias val="$_AND_"/>
    <path d="M0,0 L0,25 L15,25 A15 12.5 0 0 0 15,0 Z" class="cell_$auto$aigmap.cc:123:execute$94"/>
    <g s:x="0" s:y="5" s:pid="A"/>
    <g s:x="0" s:y="20" s:pid="B"/>
    <g s:x="30" s:y="12.5" s:pid="Y"/>
  </g>
  <g s:type="and" transform="translate(1092,372)" s:width="30" s:height="25" id="cell_$auto$aigmap.cc:123:execute$98">
    <s:alias val="$and"/>
    <s:alias val="$logic_and"/>
    <s:alias val="$_AND_"/>
    <path d="M0,0 L0,25 L15,25 A15 12.5 0 0 0 15,0 Z" class="cell_$auto$aigmap.cc:123:execute$98"/>
    <g s:x="0" s:y="5" s:pid="A"/>
    <g s:x="0" s:y="20" s:pid="B"/>
    <g s:x="30" s:y="12.5" s:pid="Y"/>
  </g>
  <g s:type="not" transform="translate(1157,374.5)" s:width="30" s:height="20" id="cell_$auto$aigmap.cc:132:execute$100">
    <s:alias val="$_NOT_"/>
    <s:alias val="$not"/>
    <s:alias val="$logic_not"/>
    <path d="M0,0 L0,20 L20,10 Z" class="cell_$auto$aigmap.cc:132:execute$100"/>
    <circle cx="23" cy="10" r="3" class="cell_$auto$aigmap.cc:132:execute$100"/>
    <g s:x="0" s:y="10" s:pid="A"/>
    <g s:x="25" s:y="10" s:pid="Y"/>
  </g>
  <g s:type="not" transform="translate(1287,307)" s:width="30" s:height="20" id="cell_$auto$aigmap.cc:132:execute$104">
    <s:alias val="$_NOT_"/>
    <s:alias val="$not"/>
    <s:alias val="$logic_not"/>
    <path d="M0,0 L0,20 L20,10 Z" class="cell_$auto$aigmap.cc:132:execute$104"/>
    <circle cx="23" cy="10" r="3" class="cell_$auto$aigmap.cc:132:execute$104"/>
    <g s:x="0" s:y="10" s:pid="A"/>
    <g s:x="25" s:y="10" s:pid="Y"/>
  </g>
  <g s:type="not" transform="translate(1287,531)" s:width="30" s:height="20" id="cell_$auto$aigmap.cc:132:execute$106">
    <s:alias val="$_NOT_"/>
    <s:alias val="$not"/>
    <s:alias val="$logic_not"/>
    <path d="M0,0 L0,20 L20,10 Z" class="cell_$auto$aigmap.cc:132:execute$106"/>
    <circle cx="23" cy="10" r="3" class="cell_$auto$aigmap.cc:132:execute$106"/>
    <g s:x="0" s:y="10" s:pid="A"/>
    <g s:x="25" s:y="10" s:pid="Y"/>
  </g>
  <g s:type="not" transform="translate(1157,659.5)" s:width="30" s:height="20" id="cell_$auto$aigmap.cc:132:execute$110">
    <s:alias val="$_NOT_"/>
    <s:alias val="$not"/>
    <s:alias val="$logic_not"/>
    <path d="M0,0 L0,20 L20,10 Z" class="cell_$auto$aigmap.cc:132:execute$110"/>
    <circle cx="23" cy="10" r="3" class="cell_$auto$aigmap.cc:132:execute$110"/>
    <g s:x="0" s:y="10" s:pid="A"/>
    <g s:x="25" s:y="10" s:pid="Y"/>
  </g>
  <g s:type="not" transform="translate(1287,586)" s:width="30" s:height="20" id="cell_$auto$aigmap.cc:132:execute$114">
    <s:alias val="$_NOT_"/>
    <s:alias val="$not"/>
    <s:alias val="$logic_not"/>
    <path d="M0,0 L0,20 L20,10 Z" class="cell_$auto$aigmap.cc:132:execute$114"/>
    <circle cx="23" cy="10" r="3" class="cell_$auto$aigmap.cc:132:execute$114"/>
    <g s:x="0" s:y="10" s:pid="A"/>
    <g s:x="25" s:y="10" s:pid="Y"/>
  </g>
  <g s:type="not" transform="translate(1287,646)" s:width="30" s:height="20" id="cell_$auto$aigmap.cc:132:execute$118">
    <s:alias val="$_NOT_"/>
    <s:alias val="$not"/>
    <s:alias val="$logic_not"/>
    <path d="M0,0 L0,20 L20,10 Z" class="cell_$auto$aigmap.cc:132:execute$118"/>
    <circle cx="23" cy="10" r="3" class="cell_$auto$aigmap.cc:132:execute$118"/>
    <g s:x="0" s:y="10" s:pid="A"/>
    <g s:x="25" s:y="10" s:pid="Y"/>
  </g>
  <g s:type="not" transform="translate(1417,593.5)" s:width="30" s:height="20" id="cell_$auto$aigmap.cc:132:execute$122">
    <s:alias val="$_NOT_"/>
    <s:alias val="$not"/>
    <s:alias val="$logic_not"/>
    <path d="M0,0 L0,20 L20,10 Z" class="cell_$auto$aigmap.cc:132:execute$122"/>
    <circle cx="23" cy="10" r="3" class="cell_$auto$aigmap.cc:132:execute$122"/>
    <g s:x="0" s:y="10" s:pid="A"/>
    <g s:x="25" s:y="10" s:pid="Y"/>
  </g>
  <g s:type="not" transform="translate(362,374)" s:width="30" s:height="20" id="cell_$auto$aigmap.cc:132:execute$124">
    <s:alias val="$_NOT_"/>
    <s:alias val="$not"/>
    <s:alias val="$logic_not"/>
    <path d="M0,0 L0,20 L20,10 Z" class="cell_$auto$aigmap.cc:132:execute$124"/>
    <circle cx="23" cy="10" r="3" class="cell_$auto$aigmap.cc:132:execute$124"/>
    <g s:x="0" s:y="10" s:pid="A"/>
    <g s:x="25" s:y="10" s:pid="Y"/>
  </g>
  <g s:type="not" transform="translate(492,426.5)" s:width="30" s:height="20" id="cell_$auto$aigmap.cc:132:execute$128">
    <s:alias val="$_NOT_"/>
    <s:alias val="$not"/>
    <s:alias val="$logic_not"/>
    <path d="M0,0 L0,20 L20,10 Z" class="cell_$auto$aigmap.cc:132:execute$128"/>
    <circle cx="23" cy="10" r="3" class="cell_$auto$aigmap.cc:132:execute$128"/>
    <g s:x="0" s:y="10" s:pid="A"/>
    <g s:x="25" s:y="10" s:pid="Y"/>
  </g>
  <g s:type="not" transform="translate(492,481.5)" s:width="30" s:height="20" id="cell_$auto$aigmap.cc:132:execute$132">
    <s:alias val="$_NOT_"/>
    <s:alias val="$not"/>
    <s:alias val="$logic_not"/>
    <path d="M0,0 L0,20 L20,10 Z" class="cell_$auto$aigmap.cc:132:execute$132"/>
    <circle cx="23" cy="10" r="3" class="cell_$auto$aigmap.cc:132:execute$132"/>
    <g s:x="0" s:y="10" s:pid="A"/>
    <g s:x="25" s:y="10" s:pid="Y"/>
  </g>
  <g s:type="not" transform="translate(622,434)" s:width="30" s:height="20" id="cell_$auto$aigmap.cc:132:execute$136">
    <s:alias val="$_NOT_"/>
    <s:alias val="$not"/>
    <s:alias val="$logic_not"/>
    <path d="M0,0 L0,20 L20,10 Z" class="cell_$auto$aigmap.cc:132:execute$136"/>
    <circle cx="23" cy="10" r="3" class="cell_$auto$aigmap.cc:132:execute$136"/>
    <g s:x="0" s:y="10" s:pid="A"/>
    <g s:x="25" s:y="10" s:pid="Y"/>
  </g>
  <g s:type="not" transform="translate(1417,44.5)" s:width="30" s:height="20" id="cell_$auto$aigmap.cc:132:execute$20">
    <s:alias val="$_NOT_"/>
    <s:alias val="$not"/>
    <s:alias val="$logic_not"/>
    <path d="M0,0 L0,20 L20,10 Z" class="cell_$auto$aigmap.cc:132:execute$20"/>
    <circle cx="23" cy="10" r="3" class="cell_$auto$aigmap.cc:132:execute$20"/>
    <g s:x="0" s:y="10" s:pid="A"/>
    <g s:x="25" s:y="10" s:pid="Y"/>
  </g>
  <g s:type="not" transform="translate(1417,314.5)" s:width="30" s:height="20" id="cell_$auto$aigmap.cc:132:execute$22">
    <s:alias val="$_NOT_"/>
    <s:alias val="$not"/>
    <s:alias val="$logic_not"/>
    <path d="M0,0 L0,20 L20,10 Z" class="cell_$auto$aigmap.cc:132:execute$22"/>
    <circle cx="23" cy="10" r="3" class="cell_$auto$aigmap.cc:132:execute$22"/>
    <g s:x="0" s:y="10" s:pid="A"/>
    <g s:x="25" s:y="10" s:pid="Y"/>
  </g>
  <g s:type="not" transform="translate(32,42)" s:width="30" s:height="20" id="cell_$auto$aigmap.cc:132:execute$26">
    <s:alias val="$_NOT_"/>
    <s:alias val="$not"/>
    <s:alias val="$logic_not"/>
    <path d="M0,0 L0,20 L20,10 Z" class="cell_$auto$aigmap.cc:132:execute$26"/>
    <circle cx="23" cy="10" r="3" class="cell_$auto$aigmap.cc:132:execute$26"/>
    <g s:x="0" s:y="10" s:pid="A"/>
    <g s:x="25" s:y="10" s:pid="Y"/>
  </g>
  <g s:type="not" transform="translate(622,489)" s:width="30" s:height="20" id="cell_$auto$aigmap.cc:132:execute$28">
    <s:alias val="$_NOT_"/>
    <s:alias val="$not"/>
    <s:alias val="$logic_not"/>
    <path d="M0,0 L0,20 L20,10 Z" class="cell_$auto$aigmap.cc:132:execute$28"/>
    <circle cx="23" cy="10" r="3" class="cell_$auto$aigmap.cc:132:execute$28"/>
    <g s:x="0" s:y="10" s:pid="A"/>
    <g s:x="25" s:y="10" s:pid="Y"/>
  </g>
  <g s:type="not" transform="translate(752,339.5)" s:width="30" s:height="20" id="cell_$auto$aigmap.cc:132:execute$32">
    <s:alias val="$_NOT_"/>
    <s:alias val="$not"/>
    <s:alias val="$logic_not"/>
    <path d="M0,0 L0,20 L20,10 Z" class="cell_$auto$aigmap.cc:132:execute$32"/>
    <circle cx="23" cy="10" r="3" class="cell_$auto$aigmap.cc:132:execute$32"/>
    <g s:x="0" s:y="10" s:pid="A"/>
    <g s:x="25" s:y="10" s:pid="Y"/>
  </g>
  <g s:type="not" transform="translate(752,441.5)" s:width="30" s:height="20" id="cell_$auto$aigmap.cc:132:execute$36">
    <s:alias val="$_NOT_"/>
    <s:alias val="$not"/>
    <s:alias val="$logic_not"/>
    <path d="M0,0 L0,20 L20,10 Z" class="cell_$auto$aigmap.cc:132:execute$36"/>
    <circle cx="23" cy="10" r="3" class="cell_$auto$aigmap.cc:132:execute$36"/>
    <g s:x="0" s:y="10" s:pid="A"/>
    <g s:x="25" s:y="10" s:pid="Y"/>
  </g>
  <g s:type="not" transform="translate(882,347)" s:width="30" s:height="20" id="cell_$auto$aigmap.cc:132:execute$40">
    <s:alias val="$_NOT_"/>
    <s:alias val="$not"/>
    <s:alias val="$logic_not"/>
    <path d="M0,0 L0,20 L20,10 Z" class="cell_$auto$aigmap.cc:132:execute$40"/>
    <circle cx="23" cy="10" r="3" class="cell_$auto$aigmap.cc:132:execute$40"/>
    <g s:x="0" s:y="10" s:pid="A"/>
    <g s:x="25" s:y="10" s:pid="Y"/>
  </g>
  <g s:type="not" transform="translate(97,500)" s:width="30" s:height="20" id="cell_$auto$aigmap.cc:132:execute$42">
    <s:alias val="$_NOT_"/>
    <s:alias val="$not"/>
    <s:alias val="$logic_not"/>
    <path d="M0,0 L0,20 L20,10 Z" class="cell_$auto$aigmap.cc:132:execute$42"/>
    <circle cx="23" cy="10" r="3" class="cell_$auto$aigmap.cc:132:execute$42"/>
    <g s:x="0" s:y="10" s:pid="A"/>
    <g s:x="25" s:y="10" s:pid="Y"/>
  </g>
  <g s:type="not" transform="translate(232,432.5)" s:width="30" s:height="20" id="cell_$auto$aigmap.cc:132:execute$46">
    <s:alias val="$_NOT_"/>
    <s:alias val="$not"/>
    <s:alias val="$logic_not"/>
    <path d="M0,0 L0,20 L20,10 Z" class="cell_$auto$aigmap.cc:132:execute$46"/>
    <circle cx="23" cy="10" r="3" class="cell_$auto$aigmap.cc:132:execute$46"/>
    <g s:x="0" s:y="10" s:pid="A"/>
    <g s:x="25" s:y="10" s:pid="Y"/>
  </g>
  <g s:type="not" transform="translate(232,492.5)" s:width="30" s:height="20" id="cell_$auto$aigmap.cc:132:execute$50">
    <s:alias val="$_NOT_"/>
    <s:alias val="$not"/>
    <s:alias val="$logic_not"/>
    <path d="M0,0 L0,20 L20,10 Z" class="cell_$auto$aigmap.cc:132:execute$50"/>
    <circle cx="23" cy="10" r="3" class="cell_$auto$aigmap.cc:132:execute$50"/>
    <g s:x="0" s:y="10" s:pid="A"/>
    <g s:x="25" s:y="10" s:pid="Y"/>
  </g>
  <g s:type="not" transform="translate(362,440)" s:width="30" s:height="20" id="cell_$auto$aigmap.cc:132:execute$54">
    <s:alias val="$_NOT_"/>
    <s:alias val="$not"/>
    <s:alias val="$logic_not"/>
    <path d="M0,0 L0,20 L20,10 Z" class="cell_$auto$aigmap.cc:132:execute$54"/>
    <circle cx="23" cy="10" r="3" class="cell_$auto$aigmap.cc:132:execute$54"/>
    <g s:x="0" s:y="10" s:pid="A"/>
    <g s:x="25" s:y="10" s:pid="Y"/>
  </g>
  <g s:type="not" transform="translate(1027,22)" s:width="30" s:height="20" id="cell_$auto$aigmap.cc:132:execute$56">
    <s:alias val="$_NOT_"/>
    <s:alias val="$not"/>
    <s:alias val="$logic_not"/>
    <path d="M0,0 L0,20 L20,10 Z" class="cell_$auto$aigmap.cc:132:execute$56"/>
    <circle cx="23" cy="10" r="3" class="cell_$auto$aigmap.cc:132:execute$56"/>
    <g s:x="0" s:y="10" s:pid="A"/>
    <g s:x="25" s:y="10" s:pid="Y"/>
  </g>
  <g s:type="not" transform="translate(1027,77)" s:width="30" s:height="20" id="cell_$auto$aigmap.cc:132:execute$58">
    <s:alias val="$_NOT_"/>
    <s:alias val="$not"/>
    <s:alias val="$logic_not"/>
    <path d="M0,0 L0,20 L20,10 Z" class="cell_$auto$aigmap.cc:132:execute$58"/>
    <circle cx="23" cy="10" r="3" class="cell_$auto$aigmap.cc:132:execute$58"/>
    <g s:x="0" s:y="10" s:pid="A"/>
    <g s:x="25" s:y="10" s:pid="Y"/>
  </g>
  <g s:type="not" transform="translate(1157,29.5)" s:width="30" s:height="20" id="cell_$auto$aigmap.cc:132:execute$62">
    <s:alias val="$_NOT_"/>
    <s:alias val="$not"/>
    <s:alias val="$logic_not"/>
    <path d="M0,0 L0,20 L20,10 Z" class="cell_$auto$aigmap.cc:132:execute$62"/>
    <circle cx="23" cy="10" r="3" class="cell_$auto$aigmap.cc:132:execute$62"/>
    <g s:x="0" s:y="10" s:pid="A"/>
    <g s:x="25" s:y="10" s:pid="Y"/>
  </g>
  <g s:type="not" transform="translate(1157,104.5)" s:width="30" s:height="20" id="cell_$auto$aigmap.cc:132:execute$66">
    <s:alias val="$_NOT_"/>
    <s:alias val="$not"/>
    <s:alias val="$logic_not"/>
    <path d="M0,0 L0,20 L20,10 Z" class="cell_$auto$aigmap.cc:132:execute$66"/>
    <circle cx="23" cy="10" r="3" class="cell_$auto$aigmap.cc:132:execute$66"/>
    <g s:x="0" s:y="10" s:pid="A"/>
    <g s:x="25" s:y="10" s:pid="Y"/>
  </g>
  <g s:type="not" transform="translate(1287,37)" s:width="30" s:height="20" id="cell_$auto$aigmap.cc:132:execute$70">
    <s:alias val="$_NOT_"/>
    <s:alias val="$not"/>
    <s:alias val="$logic_not"/>
    <path d="M0,0 L0,20 L20,10 Z" class="cell_$auto$aigmap.cc:132:execute$70"/>
    <circle cx="23" cy="10" r="3" class="cell_$auto$aigmap.cc:132:execute$70"/>
    <g s:x="0" s:y="10" s:pid="A"/>
    <g s:x="25" s:y="10" s:pid="Y"/>
  </g>
  <g s:type="not" transform="translate(1027,157)" s:width="30" s:height="20" id="cell_$auto$aigmap.cc:132:execute$72">
    <s:alias val="$_NOT_"/>
    <s:alias val="$not"/>
    <s:alias val="$logic_not"/>
    <path d="M0,0 L0,20 L20,10 Z" class="cell_$auto$aigmap.cc:132:execute$72"/>
    <circle cx="23" cy="10" r="3" class="cell_$auto$aigmap.cc:132:execute$72"/>
    <g s:x="0" s:y="10" s:pid="A"/>
    <g s:x="25" s:y="10" s:pid="Y"/>
  </g>
  <g s:type="not" transform="translate(1027,212)" s:width="30" s:height="20" id="cell_$auto$aigmap.cc:132:execute$74">
    <s:alias val="$_NOT_"/>
    <s:alias val="$not"/>
    <s:alias val="$logic_not"/>
    <path d="M0,0 L0,20 L20,10 Z" class="cell_$auto$aigmap.cc:132:execute$74"/>
    <circle cx="23" cy="10" r="3" class="cell_$auto$aigmap.cc:132:execute$74"/>
    <g s:x="0" s:y="10" s:pid="A"/>
    <g s:x="25" s:y="10" s:pid="Y"/>
  </g>
  <g s:type="not" transform="translate(1157,164.5)" s:width="30" s:height="20" id="cell_$auto$aigmap.cc:132:execute$78">
    <s:alias val="$_NOT_"/>
    <s:alias val="$not"/>
    <s:alias val="$logic_not"/>
    <path d="M0,0 L0,20 L20,10 Z" class="cell_$auto$aigmap.cc:132:execute$78"/>
    <circle cx="23" cy="10" r="3" class="cell_$auto$aigmap.cc:132:execute$78"/>
    <g s:x="0" s:y="10" s:pid="A"/>
    <g s:x="25" s:y="10" s:pid="Y"/>
  </g>
  <g s:type="not" transform="translate(1157,239.5)" s:width="30" s:height="20" id="cell_$auto$aigmap.cc:132:execute$82">
    <s:alias val="$_NOT_"/>
    <s:alias val="$not"/>
    <s:alias val="$logic_not"/>
    <path d="M0,0 L0,20 L20,10 Z" class="cell_$auto$aigmap.cc:132:execute$82"/>
    <circle cx="23" cy="10" r="3" class="cell_$auto$aigmap.cc:132:execute$82"/>
    <g s:x="0" s:y="10" s:pid="A"/>
    <g s:x="25" s:y="10" s:pid="Y"/>
  </g>
  <g s:type="not" transform="translate(1287,172)" s:width="30" s:height="20" id="cell_$auto$aigmap.cc:132:execute$86">
    <s:alias val="$_NOT_"/>
    <s:alias val="$not"/>
    <s:alias val="$logic_not"/>
    <path d="M0,0 L0,20 L20,10 Z" class="cell_$auto$aigmap.cc:132:execute$86"/>
    <circle cx="23" cy="10" r="3" class="cell_$auto$aigmap.cc:132:execute$86"/>
    <g s:x="0" s:y="10" s:pid="A"/>
    <g s:x="25" s:y="10" s:pid="Y"/>
  </g>
  <g s:type="not" transform="translate(1027,292)" s:width="30" s:height="20" id="cell_$auto$aigmap.cc:132:execute$90">
    <s:alias val="$_NOT_"/>
    <s:alias val="$not"/>
    <s:alias val="$logic_not"/>
    <path d="M0,0 L0,20 L20,10 Z" class="cell_$auto$aigmap.cc:132:execute$90"/>
    <circle cx="23" cy="10" r="3" class="cell_$auto$aigmap.cc:132:execute$90"/>
    <g s:x="0" s:y="10" s:pid="A"/>
    <g s:x="25" s:y="10" s:pid="Y"/>
  </g>
  <g s:type="not" transform="translate(1027,347)" s:width="30" s:height="20" id="cell_$auto$aigmap.cc:132:execute$92">
    <s:alias val="$_NOT_"/>
    <s:alias val="$not"/>
    <s:alias val="$logic_not"/>
    <path d="M0,0 L0,20 L20,10 Z" class="cell_$auto$aigmap.cc:132:execute$92"/>
    <circle cx="23" cy="10" r="3" class="cell_$auto$aigmap.cc:132:execute$92"/>
    <g s:x="0" s:y="10" s:pid="A"/>
    <g s:x="25" s:y="10" s:pid="Y"/>
  </g>
  <g s:type="not" transform="translate(1157,299.5)" s:width="30" s:height="20" id="cell_$auto$aigmap.cc:132:execute$96">
    <s:alias val="$_NOT_"/>
    <s:alias val="$not"/>
    <s:alias val="$logic_not"/>
    <path d="M0,0 L0,20 L20,10 Z" class="cell_$auto$aigmap.cc:132:execute$96"/>
    <circle cx="23" cy="10" r="3" class="cell_$auto$aigmap.cc:132:execute$96"/>
    <g s:x="0" s:y="10" s:pid="A"/>
    <g s:x="25" s:y="10" s:pid="Y"/>
  </g>
  <g s:type="dff" transform="translate(947,347)" s:width="30" s:height="40" id="cell_$procdff$16">
    <s:alias val="$dff"/>
    <s:alias val="$_DFF_"/>
    <s:alias val="$_DFF_P_"/>
    <rect width="30" height="40" x="0" y="0" class="cell_$procdff$16"/>
    <path d="M0,35 L5,30 L0,25" class="cell_$procdff$16"/>
    <g s:x="30" s:y="10" s:pid="Q"/>
    <g s:x="0" s:y="30" s:pid="CLK"/>
    <g s:x="0" s:y="30" s:pid="C"/>
    <g s:x="0" s:y="10" s:pid="D"/>
  </g>
  <g s:type="inputExt" transform="translate(297,374)" s:width="30" s:height="20" id="cell_clk">
    <text x="15" y="-4" class="nodelabel cell_clk" s:attribute="ref">clk</text>
    <s:alias val="$_inputExt_"/>
    <path d="M0,0 L0,20 L15,20 L30,10 L15,0 Z" class="cell_clk"/>
    <g s:x="28" s:y="10" s:pid="Y"/>
  </g>
  <g s:type="inputExt" transform="translate(557,374)" s:width="30" s:height="20" id="cell_reset">
    <text x="15" y="-4" class="nodelabel cell_reset" s:attribute="ref">reset</text>
    <s:alias val="$_inputExt_"/>
    <path d="M0,0 L0,20 L15,20 L30,10 L15,0 Z" class="cell_reset"/>
    <g s:x="28" s:y="10" s:pid="Y"/>
  </g>
  <g s:type="inputExt" transform="translate(947,188)" s:width="30" s:height="20" id="cell_in">
    <text x="15" y="-4" class="nodelabel cell_in" s:attribute="ref">in</text>
    <s:alias val="$_inputExt_"/>
    <path d="M0,0 L0,20 L15,20 L30,10 L15,0 Z" class="cell_in"/>
    <g s:x="28" s:y="10" s:pid="Y"/>
  </g>
  <g s:type="outputExt" transform="translate(1482,593.5)" s:width="30" s:height="20" id="cell_out">
    <text x="15" y="-4" class="nodelabel cell_out" s:attribute="ref">out</text>
    <s:alias val="$_outputExt_"/>
    <path d="M30,0 L30,20 L15,20 L0,10 L15,0 Z" class="cell_out"/>
    <g s:x="0" s:y="10" s:pid="A"/>
  </g>
  <g s:type="constant" transform="translate(97,157)" s:width="30" s:height="20" id="cell_1">
    <text x="15" y="-4" class="nodelabel cell_1" s:attribute="ref">1</text>
    <s:alias val="$_constant_"/>
    <rect width="30" height="20" class="cell_1"/>
    <g s:x="30" s:y="10" s:pid="Y"/>
  </g>
  <g s:type="constant" transform="translate(97,22)" s:width="30" s:height="20" id="cell_0">
    <text x="15" y="-4" class="nodelabel cell_0" s:attribute="ref">0</text>
    <s:alias val="$_constant_"/>
    <rect width="30" height="20" class="cell_0"/>
    <g s:x="30" s:y="10" s:pid="Y"/>
  </g>
  <line x1="1182" x2="1222" y1="309.5" y2="309.5" class="net_6"/>
  <line x1="1182" x2="1197" y1="384.5" y2="384.5" class="net_7"/>
  <line x1="1197" x2="1197" y1="384.5" y2="324.5" class="net_7"/>
  <line x1="1197" x2="1222" y1="324.5" y2="324.5" class="net_7"/>
  <line x1="1312" x2="1352" y1="317" y2="317" class="net_9"/>
  <line x1="1312" x2="1327" y1="541" y2="541" class="net_10"/>
  <line x1="1327" x2="1327" y1="541" y2="332" class="net_10"/>
  <line x1="1327" x2="1352" y1="332" y2="332" class="net_10"/>
  <line x1="977" x2="997" y1="357" y2="357" class="net_12"/>
  <line x1="997" x2="997" y1="357" y2="588.5" class="net_12"/>
  <circle cx="997" cy="588.5" r="2" style="fill:#000" class="net_12"/>
  <line x1="997" x2="1222" y1="588.5" y2="588.5" class="net_12"/>
  <line x1="977" x2="997" y1="357" y2="357" class="net_12"/>
  <line x1="997" x2="997" y1="357" y2="326" class="net_12"/>
  <line x1="997" x2="402" y1="326" y2="326" class="net_12"/>
  <line x1="402" x2="402" y1="326" y2="369" class="net_12"/>
  <circle cx="997" cy="326" r="2" style="fill:#000" class="net_12"/>
  <circle cx="997" cy="357" r="2" style="fill:#000" class="net_12"/>
  <line x1="402" x2="427" y1="369" y2="369" class="net_12"/>
  <line x1="977" x2="997" y1="357" y2="357" class="net_12"/>
  <line x1="997" x2="997" y1="357" y2="107" class="net_12"/>
  <circle cx="997" cy="107" r="2" style="fill:#000" class="net_12"/>
  <line x1="997" x2="1092" y1="107" y2="107" class="net_12"/>
  <line x1="977" x2="997" y1="357" y2="357" class="net_12"/>
  <line x1="997" x2="997" y1="357" y2="377" class="net_12"/>
  <circle cx="997" cy="377" r="2" style="fill:#000" class="net_12"/>
  <line x1="997" x2="1092" y1="377" y2="377" class="net_12"/>
  <line x1="977" x2="997" y1="357" y2="357" class="net_12"/>
  <line x1="997" x2="997" y1="357" y2="669.5" class="net_12"/>
  <line x1="997" x2="1157" y1="669.5" y2="669.5" class="net_12"/>
  <line x1="977" x2="997" y1="357" y2="357" class="net_12"/>
  <line x1="997" x2="997" y1="357" y2="87" class="net_12"/>
  <line x1="997" x2="1027" y1="87" y2="87" class="net_12"/>
  <line x1="977" x2="1027" y1="357" y2="357" class="net_12"/>
  <line x1="127" x2="147" y1="167" y2="167" class="net_65"/>
  <line x1="147" x2="147" y1="167" y2="530" class="net_65"/>
  <line x1="147" x2="987" y1="530" y2="530" class="net_65"/>
  <line x1="987" x2="987" y1="530" y2="599.5" class="net_65"/>
  <line x1="987" x2="1197" y1="599.5" y2="599.5" class="net_65"/>
  <line x1="1197" x2="1197" y1="599.5" y2="603.5" class="net_65"/>
  <circle cx="147" cy="167" r="2" style="fill:#000" class="net_65"/>
  <circle cx="987" cy="530" r="2" style="fill:#000" class="net_65"/>
  <line x1="1197" x2="1222" y1="603.5" y2="603.5" class="net_65"/>
  <line x1="127" x2="412" y1="167" y2="167" class="net_65"/>
  <line x1="412" x2="412" y1="167" y2="353" class="net_65"/>
  <line x1="412" x2="662" y1="353" y2="353" class="net_65"/>
  <line x1="662" x2="662" y1="353" y2="357" class="net_65"/>
  <circle cx="412" cy="167" r="2" style="fill:#000" class="net_65"/>
  <line x1="662" x2="687" y1="357" y2="357" class="net_65"/>
  <line x1="127" x2="147" y1="167" y2="167" class="net_65"/>
  <line x1="147" x2="147" y1="167" y2="495" class="net_65"/>
  <circle cx="147" cy="495" r="2" style="fill:#000" class="net_65"/>
  <line x1="147" x2="167" y1="495" y2="495" class="net_65"/>
  <line x1="127" x2="1017" y1="167" y2="167" class="net_65"/>
  <line x1="1017" x2="1017" y1="167" y2="253" class="net_65"/>
  <line x1="1017" x2="1067" y1="253" y2="253" class="net_65"/>
  <line x1="1067" x2="1067" y1="253" y2="257" class="net_65"/>
  <circle cx="1017" cy="167" r="2" style="fill:#000" class="net_65"/>
  <line x1="1067" x2="1092" y1="257" y2="257" class="net_65"/>
  <line x1="127" x2="147" y1="167" y2="167" class="net_65"/>
  <line x1="147" x2="147" y1="167" y2="530" class="net_65"/>
  <line x1="147" x2="1067" y1="530" y2="530" class="net_65"/>
  <line x1="1067" x2="1067" y1="530" y2="392" class="net_65"/>
  <line x1="1067" x2="1092" y1="392" y2="392" class="net_65"/>
  <line x1="127" x2="1027" y1="167" y2="167" class="net_65"/>
  <line x1="127" x2="922" y1="167" y2="167" class="net_65"/>
  <line x1="922" x2="922" y1="167" y2="302" class="net_65"/>
  <circle cx="922" cy="167" r="2" style="fill:#000" class="net_65"/>
  <line x1="922" x2="1027" y1="302" y2="302" class="net_65"/>
  <line x1="127" x2="137" y1="32" y2="32" class="net_66"/>
  <line x1="137" x2="137" y1="32" y2="648.5" class="net_66"/>
  <circle cx="137" cy="32" r="2" style="fill:#000" class="net_66"/>
  <line x1="137" x2="1222" y1="648.5" y2="648.5" class="net_66"/>
  <line x1="127" x2="137" y1="32" y2="32" class="net_66"/>
  <line x1="137" x2="137" y1="32" y2="450" class="net_66"/>
  <circle cx="137" cy="450" r="2" style="fill:#000" class="net_66"/>
  <line x1="137" x2="167" y1="450" y2="450" class="net_66"/>
  <line x1="127" x2="987" y1="32" y2="32" class="net_66"/>
  <line x1="987" x2="987" y1="32" y2="118" class="net_66"/>
  <line x1="987" x2="1067" y1="118" y2="118" class="net_66"/>
  <line x1="1067" x2="1067" y1="118" y2="122" class="net_66"/>
  <circle cx="987" cy="32" r="2" style="fill:#000" class="net_66"/>
  <line x1="1067" x2="1092" y1="122" y2="122" class="net_66"/>
  <line x1="127" x2="1027" y1="32" y2="32" class="net_66"/>
  <line x1="1182" x2="1197" y1="669.5" y2="669.5" class="net_14"/>
  <line x1="1197" x2="1197" y1="669.5" y2="663.5" class="net_14"/>
  <line x1="1197" x2="1222" y1="663.5" y2="663.5" class="net_14"/>
  <line x1="1312" x2="1352" y1="596" y2="596" class="net_16"/>
  <line x1="1312" x2="1327" y1="656" y2="656" class="net_17"/>
  <line x1="1327" x2="1327" y1="656" y2="611" class="net_17"/>
  <line x1="1327" x2="1352" y1="611" y2="611" class="net_17"/>
  <line x1="325" x2="337" y1="384" y2="384" class="net_2"/>
  <line x1="337" x2="337" y1="384" y2="429" class="net_2"/>
  <circle cx="337" cy="384" r="2" style="fill:#000" class="net_2"/>
  <circle cx="337" cy="429" r="2" style="fill:#000" class="net_2"/>
  <line x1="337" x2="427" y1="429" y2="429" class="net_2"/>
  <line x1="325" x2="362" y1="384" y2="384" class="net_2"/>
  <line x1="325" x2="337" y1="384" y2="384" class="net_2"/>
  <line x1="337" x2="337" y1="384" y2="519" class="net_2"/>
  <line x1="337" x2="922" y1="519" y2="519" class="net_2"/>
  <line x1="922" x2="922" y1="519" y2="377" class="net_2"/>
  <line x1="922" x2="947" y1="377" y2="377" class="net_2"/>
  <line x1="387" x2="402" y1="450" y2="450" class="net_19"/>
  <line x1="402" x2="402" y1="450" y2="444" class="net_19"/>
  <line x1="402" x2="427" y1="444" y2="444" class="net_19"/>
  <line x1="387" x2="427" y1="384" y2="384" class="net_21"/>
  <line x1="517" x2="557" y1="436.5" y2="436.5" class="net_23"/>
  <line x1="517" x2="532" y1="491.5" y2="491.5" class="net_24"/>
  <line x1="532" x2="532" y1="491.5" y2="451.5" class="net_24"/>
  <line x1="532" x2="557" y1="451.5" y2="451.5" class="net_24"/>
  <line x1="1442" x2="1482" y1="54.5" y2="54.5" class="net_26"/>
  <line x1="1442" x2="1457" y1="324.5" y2="324.5" class="net_27"/>
  <line x1="1457" x2="1457" y1="324.5" y2="69.5" class="net_27"/>
  <line x1="1457" x2="1482" y1="69.5" y2="69.5" class="net_27"/>
  <line x1="585" x2="597" y1="384" y2="384" class="net_3"/>
  <line x1="597" x2="597" y1="384" y2="342" class="net_3"/>
  <circle cx="597" cy="384" r="2" style="fill:#000" class="net_3"/>
  <line x1="597" x2="687" y1="342" y2="342" class="net_3"/>
  <line x1="585" x2="597" y1="384" y2="384" class="net_3"/>
  <line x1="597" x2="597" y1="384" y2="499" class="net_3"/>
  <line x1="597" x2="622" y1="499" y2="499" class="net_3"/>
  <line x1="647" x2="687" y1="444" y2="444" class="net_30"/>
  <line x1="647" x2="662" y1="499" y2="499" class="net_31"/>
  <line x1="662" x2="662" y1="499" y2="459" class="net_31"/>
  <line x1="662" x2="687" y1="459" y2="459" class="net_31"/>
  <line x1="777" x2="817" y1="349.5" y2="349.5" class="net_33"/>
  <line x1="777" x2="792" y1="451.5" y2="451.5" class="net_34"/>
  <line x1="792" x2="792" y1="451.5" y2="364.5" class="net_34"/>
  <line x1="792" x2="817" y1="364.5" y2="364.5" class="net_34"/>
  <line x1="57" x2="157" y1="52" y2="52" class="net_36"/>
  <line x1="157" x2="157" y1="52" y2="435" class="net_36"/>
  <line x1="157" x2="167" y1="435" y2="435" class="net_36"/>
  <line x1="57" x2="72" y1="52" y2="52" class="net_36"/>
  <line x1="72" x2="72" y1="52" y2="510" class="net_36"/>
  <circle cx="72" cy="52" r="2" style="fill:#000" class="net_36"/>
  <line x1="72" x2="97" y1="510" y2="510" class="net_36"/>
  <line x1="122" x2="167" y1="510" y2="510" class="net_38"/>
  <line x1="257" x2="297" y1="442.5" y2="442.5" class="net_40"/>
  <line x1="257" x2="272" y1="502.5" y2="502.5" class="net_41"/>
  <line x1="272" x2="272" y1="502.5" y2="457.5" class="net_41"/>
  <line x1="272" x2="297" y1="457.5" y2="457.5" class="net_41"/>
  <line x1="1052" x2="1092" y1="32" y2="32" class="net_43"/>
  <line x1="1052" x2="1067" y1="87" y2="87" class="net_44"/>
  <line x1="1067" x2="1067" y1="87" y2="47" class="net_44"/>
  <line x1="1067" x2="1092" y1="47" y2="47" class="net_44"/>
  <line x1="1182" x2="1222" y1="39.5" y2="39.5" class="net_47"/>
  <line x1="1182" x2="1197" y1="114.5" y2="114.5" class="net_48"/>
  <line x1="1197" x2="1197" y1="114.5" y2="54.5" class="net_48"/>
  <line x1="1197" x2="1222" y1="54.5" y2="54.5" class="net_48"/>
  <line x1="1052" x2="1092" y1="167" y2="167" class="net_50"/>
  <line x1="1052" x2="1067" y1="222" y2="222" class="net_51"/>
  <line x1="1067" x2="1067" y1="222" y2="182" class="net_51"/>
  <line x1="1067" x2="1092" y1="182" y2="182" class="net_51"/>
  <line x1="975" x2="1007" y1="198" y2="198" class="net_4"/>
  <line x1="1007" x2="1007" y1="198" y2="242" class="net_4"/>
  <circle cx="1007" cy="242" r="2" style="fill:#000" class="net_4"/>
  <line x1="1007" x2="1092" y1="242" y2="242" class="net_4"/>
  <line x1="975" x2="1007" y1="198" y2="198" class="net_4"/>
  <line x1="1007" x2="1007" y1="198" y2="541" class="net_4"/>
  <line x1="1007" x2="1287" y1="541" y2="541" class="net_4"/>
  <line x1="975" x2="1007" y1="198" y2="198" class="net_4"/>
  <line x1="1007" x2="1007" y1="198" y2="222" class="net_4"/>
  <circle cx="1007" cy="222" r="2" style="fill:#000" class="net_4"/>
  <line x1="1007" x2="1027" y1="222" y2="222" class="net_4"/>
  <line x1="1182" x2="1222" y1="174.5" y2="174.5" class="net_54"/>
  <line x1="1182" x2="1197" y1="249.5" y2="249.5" class="net_55"/>
  <line x1="1197" x2="1197" y1="249.5" y2="189.5" class="net_55"/>
  <line x1="1197" x2="1222" y1="189.5" y2="189.5" class="net_55"/>
  <line x1="1312" x2="1352" y1="47" y2="47" class="net_57"/>
  <line x1="1312" x2="1327" y1="182" y2="182" class="net_58"/>
  <line x1="1327" x2="1327" y1="182" y2="62" class="net_58"/>
  <line x1="1327" x2="1352" y1="62" y2="62" class="net_58"/>
  <line x1="1052" x2="1092" y1="302" y2="302" class="net_60"/>
  <line x1="1052" x2="1067" y1="357" y2="357" class="net_61"/>
  <line x1="1067" x2="1067" y1="357" y2="317" class="net_61"/>
  <line x1="1067" x2="1092" y1="317" y2="317" class="net_61"/>
  <line x1="1122" x2="1157" y1="384.5" y2="384.5" class="net_63"/>
  <line x1="1252" x2="1287" y1="317" y2="317" class="net_8"/>
  <line x1="1252" x2="1287" y1="596" y2="596" class="net_13"/>
  <line x1="1252" x2="1287" y1="656" y2="656" class="net_15"/>
  <line x1="1382" x2="1417" y1="603.5" y2="603.5" class="net_18"/>
  <line x1="457" x2="492" y1="436.5" y2="436.5" class="net_20"/>
  <line x1="457" x2="467" y1="376.5" y2="376.5" class="net_22"/>
  <line x1="467" x2="467" y1="376.5" y2="491.5" class="net_22"/>
  <line x1="467" x2="492" y1="491.5" y2="491.5" class="net_22"/>
  <line x1="587" x2="622" y1="444" y2="444" class="net_25"/>
  <line x1="1382" x2="1417" y1="54.5" y2="54.5" class="net_59"/>
  <line x1="1382" x2="1417" y1="324.5" y2="324.5" class="net_11"/>
  <line x1="1512" x2="1522" y1="62" y2="62" class="net_28"/>
  <line x1="1522" x2="1522" y1="62" y2="689.5" class="net_28"/>
  <line x1="1522" x2="12" y1="689.5" y2="689.5" class="net_28"/>
  <line x1="12" x2="12" y1="689.5" y2="52" class="net_28"/>
  <line x1="12" x2="32" y1="52" y2="52" class="net_28"/>
  <line x1="717" x2="752" y1="349.5" y2="349.5" class="net_29"/>
  <line x1="717" x2="752" y1="451.5" y2="451.5" class="net_32"/>
  <line x1="847" x2="882" y1="357" y2="357" class="net_35"/>
  <line x1="197" x2="232" y1="442.5" y2="442.5" class="net_37"/>
  <line x1="197" x2="232" y1="502.5" y2="502.5" class="net_39"/>
  <line x1="327" x2="362" y1="450" y2="450" class="net_42"/>
  <line x1="1122" x2="1157" y1="39.5" y2="39.5" class="net_45"/>
  <line x1="1122" x2="1157" y1="114.5" y2="114.5" class="net_46"/>
  <line x1="1252" x2="1287" y1="47" y2="47" class="net_49"/>
  <line x1="1122" x2="1157" y1="174.5" y2="174.5" class="net_52"/>
  <line x1="1122" x2="1157" y1="249.5" y2="249.5" class="net_53"/>
  <line x1="1252" x2="1287" y1="182" y2="182" class="net_56"/>
  <line x1="1122" x2="1157" y1="309.5" y2="309.5" class="net_62"/>
  <line x1="907" x2="947" y1="357" y2="357" class="net_64"/>
  <line x1="1442" x2="1482" y1="603.5" y2="603.5" class="net_5"/>
</svg>
