<?xml version="1.0" encoding="UTF-8" standalone="no"?>
<!DOCTYPE svg PUBLIC "-//W3C//DTD SVG 1.1//EN"
 "http://www.w3.org/Graphics/SVG/1.1/DTD/svg11.dtd">
<!-- Generated by graphviz version 4.0.0 (20220529.0937)
 -->
<!-- Title: top_module Pages: 1 -->
<svg width="1602pt" height="557pt"
 viewBox="0.00 0.00 1601.91 556.54" xmlns="http://www.w3.org/2000/svg" xmlns:xlink="http://www.w3.org/1999/xlink">
<g id="graph0" class="graph" transform="scale(1 1) rotate(0) translate(4 552.54)">
<title>top_module</title>
<polygon fill="white" stroke="transparent" points="-4,4 -4,-552.54 1597.91,-552.54 1597.91,4 -4,4"/>
<text text-anchor="middle" x="796.95" y="-7.8" font-family="Times New Roman,serif" font-size="14.00">top_module</text>
<!-- n6 -->
<g id="node1" class="node">
<title>n6</title>
<polygon fill="none" stroke="black" points="57.25,-399.54 57.25,-414.46 41.43,-425 19.07,-425 3.25,-414.46 3.25,-399.54 19.07,-389 41.43,-389 57.25,-399.54"/>
<text text-anchor="middle" x="30.25" y="-403.3" font-family="Times New Roman,serif" font-size="14.00">clk</text>
</g>
<!-- c18 -->
<g id="node9" class="node">
<title>c18</title>
<polygon fill="none" stroke="black" points="97.5,-329 97.5,-375 208.5,-375 208.5,-329 97.5,-329"/>
<text text-anchor="middle" x="119.5" y="-359.8" font-family="Times New Roman,serif" font-size="14.00">CLK</text>
<polyline fill="none" stroke="black" points="97.5,-352 141.5,-352 "/>
<text text-anchor="middle" x="119.5" y="-336.8" font-family="Times New Roman,serif" font-size="14.00">D</text>
<polyline fill="none" stroke="black" points="141.5,-329 141.5,-375 "/>
<text text-anchor="middle" x="161.5" y="-355.8" font-family="Times New Roman,serif" font-size="14.00">$16</text>
<text text-anchor="middle" x="161.5" y="-340.8" font-family="Times New Roman,serif" font-size="14.00">$dff</text>
<polyline fill="none" stroke="black" points="181.5,-329 181.5,-375 "/>
<text text-anchor="middle" x="195" y="-348.3" font-family="Times New Roman,serif" font-size="14.00">Q</text>
</g>
<!-- n6&#45;&gt;c18 -->
<g id="edge15" class="edge">
<title>n6:e&#45;&gt;c18:w</title>
<path fill="none" stroke="#e6ab02" d="M58.25,-407C80.08,-407 74.59,-376.39 87.89,-366.82"/>
<polygon fill="#e6ab02" stroke="#e6ab02" points="88.89,-370.18 97.5,-364 86.92,-363.46 88.89,-370.18"/>
</g>
<!-- c26 -->
<g id="node24" class="node">
<title>c26</title>
<polygon fill="none" stroke="black" points="1286.91,-375.5 1286.91,-444.5 1385.91,-444.5 1385.91,-375.5 1286.91,-375.5"/>
<text text-anchor="middle" x="1299.91" y="-429.3" font-family="Times New Roman,serif" font-size="14.00">A</text>
<polyline fill="none" stroke="black" points="1286.91,-421.5 1312.91,-421.5 "/>
<text text-anchor="middle" x="1299.91" y="-406.3" font-family="Times New Roman,serif" font-size="14.00">B</text>
<polyline fill="none" stroke="black" points="1286.91,-398.5 1312.91,-398.5 "/>
<text text-anchor="middle" x="1299.91" y="-383.3" font-family="Times New Roman,serif" font-size="14.00">S</text>
<polyline fill="none" stroke="black" points="1312.91,-375.5 1312.91,-444.5 "/>
<text text-anchor="middle" x="1336.41" y="-413.8" font-family="Times New Roman,serif" font-size="14.00">$7</text>
<text text-anchor="middle" x="1336.41" y="-398.8" font-family="Times New Roman,serif" font-size="14.00">$mux</text>
<polyline fill="none" stroke="black" points="1359.91,-375.5 1359.91,-444.5 "/>
<text text-anchor="middle" x="1372.91" y="-406.3" font-family="Times New Roman,serif" font-size="14.00">Y</text>
</g>
<!-- n6&#45;&gt;c26 -->
<g id="edge16" class="edge">
<title>n6:e&#45;&gt;c26:w</title>
<path fill="none" stroke="#e6ab02" d="M58.25,-407C202.96,-407 217.71,-502.15 359.71,-530 503.02,-558.11 627.04,-561.35 942.71,-486 1005.97,-470.9 1023.37,-466.17 1078.71,-432 1097.46,-420.42 1095.41,-407.56 1115.71,-399 1182.69,-370.75 1208.22,-385.45 1276.51,-386.89"/>
<polygon fill="#e6ab02" stroke="#e6ab02" points="1276.87,-390.39 1286.91,-387 1276.94,-383.39 1276.87,-390.39"/>
</g>
<!-- n7 -->
<g id="node2" class="node">
<title>n7</title>
<polygon fill="none" stroke="black" points="57.25,-473.54 57.25,-488.46 41.43,-499 19.07,-499 3.25,-488.46 3.25,-473.54 19.07,-463 41.43,-463 57.25,-473.54"/>
<text text-anchor="middle" x="30.25" y="-477.3" font-family="Times New Roman,serif" font-size="14.00">in</text>
</g>
<!-- x4 -->
<g id="node17" class="node">
<title>x4</title>
<path fill="none" stroke="black" d="M390.21,-316C390.21,-316 428.21,-316 428.21,-316 434.21,-316 440.21,-322 440.21,-328 440.21,-328 440.21,-350 440.21,-350 440.21,-356 434.21,-362 428.21,-362 428.21,-362 390.21,-362 390.21,-362 384.21,-362 378.21,-356 378.21,-350 378.21,-350 378.21,-328 378.21,-328 378.21,-322 384.21,-316 390.21,-316"/>
<text text-anchor="middle" x="409.21" y="-346.8" font-family="Times New Roman,serif" font-size="14.00">0:0 &#45; 1:1</text>
<polyline fill="none" stroke="black" points="378.21,-339 440.21,-339 "/>
<text text-anchor="middle" x="409.21" y="-323.8" font-family="Times New Roman,serif" font-size="14.00">0:0 &#45; 0:0</text>
</g>
<!-- n7&#45;&gt;x4 -->
<g id="edge17" class="edge">
<title>n7:e&#45;&gt;x4:w</title>
<path fill="none" stroke="#e6ab02" d="M58.25,-481C89.74,-481 293.97,-391.88 322.71,-379 344.07,-369.43 348.85,-355.63 367.06,-351.94"/>
<polygon fill="#e6ab02" stroke="#e6ab02" points="367.57,-355.41 377.21,-351 366.93,-348.43 367.57,-355.41"/>
</g>
<!-- x6 -->
<g id="node20" class="node">
<title>x6</title>
<path fill="none" stroke="black" d="M390.21,-474C390.21,-474 428.21,-474 428.21,-474 434.21,-474 440.21,-480 440.21,-486 440.21,-486 440.21,-508 440.21,-508 440.21,-514 434.21,-520 428.21,-520 428.21,-520 390.21,-520 390.21,-520 384.21,-520 378.21,-514 378.21,-508 378.21,-508 378.21,-486 378.21,-486 378.21,-480 384.21,-474 390.21,-474"/>
<text text-anchor="middle" x="409.21" y="-504.8" font-family="Times New Roman,serif" font-size="14.00">0:0 &#45; 1:1</text>
<polyline fill="none" stroke="black" points="378.21,-497 440.21,-497 "/>
<text text-anchor="middle" x="409.21" y="-481.8" font-family="Times New Roman,serif" font-size="14.00">0:0 &#45; 0:0</text>
</g>
<!-- n7&#45;&gt;x6 -->
<g id="edge18" class="edge">
<title>n7:e&#45;&gt;x6:w</title>
<path fill="none" stroke="#e6ab02" d="M58.25,-481C197.08,-481 233.16,-507.65 366.98,-508.95"/>
<polygon fill="#e6ab02" stroke="#e6ab02" points="367.19,-512.45 377.21,-509 367.23,-505.45 367.19,-512.45"/>
</g>
<!-- n8 -->
<g id="node3" class="node">
<title>n8</title>
<polygon fill="none" stroke="black" points="1182.81,-444 1115.61,-426 1182.81,-408 1250.01,-426 1182.81,-444"/>
<text text-anchor="middle" x="1182.81" y="-422.3" font-family="Times New Roman,serif" font-size="14.00">next_state</text>
</g>
<!-- n8&#45;&gt;c26 -->
<g id="edge20" class="edge">
<title>n8:e&#45;&gt;c26:w</title>
<path fill="none" stroke="#d95f02" d="M1249.91,-426C1263.76,-426 1267.6,-416.43 1276.92,-412.09"/>
<polygon fill="#d95f02" stroke="#d95f02" points="1277.84,-415.48 1286.91,-410 1276.4,-408.62 1277.84,-415.48"/>
</g>
<!-- n9 -->
<g id="node4" class="node">
<title>n9</title>
<polygon fill="none" stroke="black" points="1593.91,-64.54 1593.91,-79.46 1578.09,-90 1555.72,-90 1539.91,-79.46 1539.91,-64.54 1555.72,-54 1578.09,-54 1593.91,-64.54"/>
<text text-anchor="middle" x="1566.91" y="-68.3" font-family="Times New Roman,serif" font-size="14.00">out</text>
</g>
<!-- n10 -->
<g id="node5" class="node">
<title>n10</title>
<polygon fill="none" stroke="black" points="60.25,-133.54 60.25,-148.46 42.68,-159 17.82,-159 0.25,-148.46 0.25,-133.54 17.82,-123 42.68,-123 60.25,-133.54"/>
<text text-anchor="middle" x="30.25" y="-137.3" font-family="Times New Roman,serif" font-size="14.00">reset</text>
</g>
<!-- c21 -->
<g id="node11" class="node">
<title>c21</title>
<polygon fill="none" stroke="black" points="1422.91,-175.5 1422.91,-244.5 1521.91,-244.5 1521.91,-175.5 1422.91,-175.5"/>
<text text-anchor="middle" x="1435.91" y="-229.3" font-family="Times New Roman,serif" font-size="14.00">A</text>
<polyline fill="none" stroke="black" points="1422.91,-221.5 1448.91,-221.5 "/>
<text text-anchor="middle" x="1435.91" y="-206.3" font-family="Times New Roman,serif" font-size="14.00">B</text>
<polyline fill="none" stroke="black" points="1422.91,-198.5 1448.91,-198.5 "/>
<text text-anchor="middle" x="1435.91" y="-183.3" font-family="Times New Roman,serif" font-size="14.00">S</text>
<polyline fill="none" stroke="black" points="1448.91,-175.5 1448.91,-244.5 "/>
<text text-anchor="middle" x="1472.41" y="-213.8" font-family="Times New Roman,serif" font-size="14.00">$10</text>
<text text-anchor="middle" x="1472.41" y="-198.8" font-family="Times New Roman,serif" font-size="14.00">$mux</text>
<polyline fill="none" stroke="black" points="1495.91,-175.5 1495.91,-244.5 "/>
<text text-anchor="middle" x="1508.91" y="-206.3" font-family="Times New Roman,serif" font-size="14.00">Y</text>
</g>
<!-- n10&#45;&gt;c21 -->
<g id="edge5" class="edge">
<title>n10:e&#45;&gt;c21:w</title>
<path fill="none" stroke="#e7298a" d="M60.5,-141C101.17,-141 111.33,-141 152,-141 152,-141 152,-141 1337.41,-141 1360.56,-141 1365.61,-148.86 1385.91,-160 1400.13,-167.8 1402.25,-180.32 1412.83,-185.08"/>
<polygon fill="#e7298a" stroke="#e7298a" points="1412.43,-188.56 1422.91,-187 1413.74,-181.69 1412.43,-188.56"/>
</g>
<!-- n11 -->
<g id="node6" class="node">
<title>n11</title>
<polygon fill="none" stroke="black" points="284.1,-370 245.4,-352 284.1,-334 322.81,-352 284.1,-370"/>
<text text-anchor="middle" x="284.1" y="-348.3" font-family="Times New Roman,serif" font-size="14.00">state</text>
</g>
<!-- n11&#45;&gt;x4 -->
<g id="edge9" class="edge">
<title>n11:e&#45;&gt;x4:w</title>
<path fill="none" stroke="#e7298a" d="M322.71,-352C345.4,-352 349.64,-333.87 366.86,-328.49"/>
<polygon fill="#e7298a" stroke="#e7298a" points="367.81,-331.89 377.21,-327 366.81,-324.96 367.81,-331.89"/>
</g>
<!-- n11&#45;&gt;x6 -->
<g id="edge10" class="edge">
<title>n11:e&#45;&gt;x6:w</title>
<path fill="none" stroke="#e7298a" d="M322.71,-352C346.82,-352 327.92,-438.56 340.71,-459 349.21,-472.59 354.77,-481.14 366.99,-483.97"/>
<polygon fill="#e7298a" stroke="#e7298a" points="366.91,-487.48 377.21,-485 367.61,-480.51 366.91,-487.48"/>
</g>
<!-- c25 -->
<g id="node23" class="node">
<title>c25</title>
<polygon fill="none" stroke="black" points="359.71,-37.5 359.71,-106.5 458.71,-106.5 458.71,-37.5 359.71,-37.5"/>
<text text-anchor="middle" x="372.71" y="-91.3" font-family="Times New Roman,serif" font-size="14.00">A</text>
<polyline fill="none" stroke="black" points="359.71,-83.5 385.71,-83.5 "/>
<text text-anchor="middle" x="372.71" y="-68.3" font-family="Times New Roman,serif" font-size="14.00">B</text>
<polyline fill="none" stroke="black" points="359.71,-60.5 385.71,-60.5 "/>
<text text-anchor="middle" x="372.71" y="-45.3" font-family="Times New Roman,serif" font-size="14.00">S</text>
<polyline fill="none" stroke="black" points="385.71,-37.5 385.71,-106.5 "/>
<text text-anchor="middle" x="409.21" y="-75.8" font-family="Times New Roman,serif" font-size="14.00">$5</text>
<text text-anchor="middle" x="409.21" y="-60.8" font-family="Times New Roman,serif" font-size="14.00">$mux</text>
<polyline fill="none" stroke="black" points="432.71,-37.5 432.71,-106.5 "/>
<text text-anchor="middle" x="445.71" y="-68.3" font-family="Times New Roman,serif" font-size="14.00">Y</text>
</g>
<!-- n11&#45;&gt;c25 -->
<g id="edge7" class="edge">
<title>n11:e&#45;&gt;c25:w</title>
<path fill="none" stroke="#e7298a" d="M322.71,-352C386.83,-352 302.17,-81.23 350.02,-51.62"/>
<polygon fill="#e7298a" stroke="#e7298a" points="350.97,-54.99 359.71,-49 349.14,-48.23 350.97,-54.99"/>
</g>
<!-- n11&#45;&gt;c26 -->
<g id="edge8" class="edge">
<title>n11:e&#45;&gt;c26:w</title>
<path fill="none" stroke="#e7298a" d="M322.71,-352C359.48,-352 330.63,-403.49 359.71,-426 401.75,-458.55 423.96,-444.27 476.71,-451 690.29,-478.26 745.4,-472 960.71,-472 960.71,-472 960.71,-472 1183.81,-472 1214.37,-472 1221.61,-464.56 1249.91,-453 1263.43,-447.48 1267,-438.38 1276.82,-434.66"/>
<polygon fill="#e7298a" stroke="#e7298a" points="1277.61,-438.08 1286.91,-433 1276.47,-431.17 1277.61,-438.08"/>
</g>
<!-- c14 -->
<g id="node7" class="node">
<title>c14</title>
<polygon fill="none" stroke="black" points="810.71,-297 810.71,-335 942.71,-335 942.71,-297 810.71,-297"/>
<text text-anchor="middle" x="823.71" y="-312.3" font-family="Times New Roman,serif" font-size="14.00">A</text>
<polyline fill="none" stroke="black" points="836.71,-297 836.71,-335 "/>
<text text-anchor="middle" x="876.71" y="-319.8" font-family="Times New Roman,serif" font-size="14.00">$17</text>
<text text-anchor="middle" x="876.71" y="-304.8" font-family="Times New Roman,serif" font-size="14.00">$reduce_or</text>
<polyline fill="none" stroke="black" points="916.71,-297 916.71,-335 "/>
<text text-anchor="middle" x="929.71" y="-312.3" font-family="Times New Roman,serif" font-size="14.00">Y</text>
</g>
<!-- c22 -->
<g id="node14" class="node">
<title>c22</title>
<polygon fill="none" stroke="black" points="979.71,-353.5 979.71,-422.5 1078.71,-422.5 1078.71,-353.5 979.71,-353.5"/>
<text text-anchor="middle" x="992.71" y="-407.3" font-family="Times New Roman,serif" font-size="14.00">A</text>
<polyline fill="none" stroke="black" points="979.71,-399.5 1005.71,-399.5 "/>
<text text-anchor="middle" x="992.71" y="-384.3" font-family="Times New Roman,serif" font-size="14.00">B</text>
<polyline fill="none" stroke="black" points="979.71,-376.5 1005.71,-376.5 "/>
<text text-anchor="middle" x="992.71" y="-361.3" font-family="Times New Roman,serif" font-size="14.00">S</text>
<polyline fill="none" stroke="black" points="1005.71,-353.5 1005.71,-422.5 "/>
<text text-anchor="middle" x="1029.21" y="-391.8" font-family="Times New Roman,serif" font-size="14.00">$13</text>
<text text-anchor="middle" x="1029.21" y="-376.8" font-family="Times New Roman,serif" font-size="14.00">$mux</text>
<polyline fill="none" stroke="black" points="1052.71,-353.5 1052.71,-422.5 "/>
<text text-anchor="middle" x="1065.71" y="-384.3" font-family="Times New Roman,serif" font-size="14.00">Y</text>
</g>
<!-- c14&#45;&gt;c22 -->
<g id="edge11" class="edge">
<title>c14:e&#45;&gt;c22:w</title>
<path fill="none" stroke="#7570b3" d="M942.71,-316C965.73,-316 956.82,-350.88 969.86,-361.78"/>
<polygon fill="#7570b3" stroke="#7570b3" points="969.12,-365.22 979.71,-365 971.29,-358.57 969.12,-365.22"/>
</g>
<!-- x0 -->
<g id="node8" class="node">
<title>x0</title>
<path fill="none" stroke="black" d="M700.71,-295C700.71,-295 738.71,-295 738.71,-295 744.71,-295 750.71,-301 750.71,-307 750.71,-307 750.71,-329 750.71,-329 750.71,-335 744.71,-341 738.71,-341 738.71,-341 700.71,-341 700.71,-341 694.71,-341 688.71,-335 688.71,-329 688.71,-329 688.71,-307 688.71,-307 688.71,-301 694.71,-295 700.71,-295"/>
<text text-anchor="middle" x="719.71" y="-325.8" font-family="Times New Roman,serif" font-size="14.00">0:0 &#45; 1:1</text>
<polyline fill="none" stroke="black" points="688.71,-318 750.71,-318 "/>
<text text-anchor="middle" x="719.71" y="-302.8" font-family="Times New Roman,serif" font-size="14.00">0:0 &#45; 0:0</text>
</g>
<!-- x0&#45;&gt;c14 -->
<g id="edge1" class="edge">
<title>x0:e&#45;&gt;c14:w</title>
<path fill="none" stroke="#66a61e" stroke-width="3" d="M762.89,-317.84C776.6,-317.47 784.69,-316.54 798.35,-316.16"/>
<polygon fill="none" stroke="#66a61e" stroke-width="3" points="762.71,-317.85 756.76,-321.92 750.71,-318 756.66,-313.92 762.71,-317.85"/>
<polygon fill="none" stroke="#66a61e" stroke-width="3" points="798.71,-316.16 804.66,-312.08 810.71,-316 804.76,-320.08 798.71,-316.16"/>
<text text-anchor="middle" x="780.71" y="-320.8" font-family="Times New Roman,serif" font-size="14.00" fill="#66a61e">&lt;2&gt;</text>
</g>
<!-- c18&#45;&gt;n11 -->
<g id="edge6" class="edge">
<title>c18:e&#45;&gt;n11:w</title>
<path fill="none" stroke="#e7298a" d="M208.5,-352C220.96,-352 226.34,-352 235.37,-352"/>
<polygon fill="#e7298a" stroke="#e7298a" points="235.5,-355.5 245.5,-352 235.5,-348.5 235.5,-355.5"/>
</g>
<!-- v1 -->
<g id="node10" class="node">
<title>v1</title>
<ellipse fill="none" stroke="black" cx="1336.41" cy="-187" rx="27" ry="18"/>
<text text-anchor="middle" x="1336.41" y="-183.3" font-family="Times New Roman,serif" font-size="14.00">1&#39;1</text>
</g>
<!-- v1&#45;&gt;c21 -->
<g id="edge22" class="edge">
<title>v1:e&#45;&gt;c21:w</title>
<path fill="none" stroke="#d95f02" d="M1364.41,-187C1388.52,-187 1393.78,-204.14 1412.74,-208.83"/>
<polygon fill="#d95f02" stroke="#d95f02" points="1412.57,-212.33 1422.91,-210 1413.37,-205.38 1412.57,-212.33"/>
</g>
<!-- c21&#45;&gt;c18 -->
<g id="edge4" class="edge">
<title>c21:e&#45;&gt;c18:w</title>
<path fill="none" stroke="#7570b3" d="M1523.41,-210C1531.19,-210 1527.99,-239.58 1522.41,-245 1463.32,-302.42 1419.8,-233 1337.41,-233 283.1,-233 283.1,-233 283.1,-233 190.14,-233 148.86,-251.34 97,-328.5 96.73,-328.9 96.46,-329.32 96.19,-329.77"/>
<polygon fill="#7570b3" stroke="#7570b3" points="92.69,-329.94 96,-340 99.69,-330.07 92.69,-329.94"/>
</g>
<!-- v2 -->
<g id="node12" class="node">
<title>v2</title>
<ellipse fill="none" stroke="black" cx="876.71" cy="-426" rx="27" ry="18"/>
<text text-anchor="middle" x="876.71" y="-422.3" font-family="Times New Roman,serif" font-size="14.00">1&#39;1</text>
</g>
<!-- v2&#45;&gt;c22 -->
<g id="edge23" class="edge">
<title>v2:e&#45;&gt;c22:w</title>
<path fill="none" stroke="#1b9e77" d="M904.71,-426C934.98,-426 943.86,-414.1 969.45,-411.5"/>
<polygon fill="#1b9e77" stroke="#1b9e77" points="969.89,-414.98 979.71,-411 969.55,-407.99 969.89,-414.98"/>
</g>
<!-- v3 -->
<g id="node13" class="node">
<title>v3</title>
<ellipse fill="none" stroke="black" cx="876.71" cy="-372" rx="27" ry="18"/>
<text text-anchor="middle" x="876.71" y="-368.3" font-family="Times New Roman,serif" font-size="14.00">1&#39;0</text>
</g>
<!-- v3&#45;&gt;c22 -->
<g id="edge24" class="edge">
<title>v3:e&#45;&gt;c22:w</title>
<path fill="none" stroke="#1b9e77" d="M904.71,-372C935.07,-372 943.81,-384.69 969.43,-387.47"/>
<polygon fill="#1b9e77" stroke="#1b9e77" points="969.54,-390.98 979.71,-388 969.9,-383.99 969.54,-390.98"/>
</g>
<!-- c22&#45;&gt;n8 -->
<g id="edge19" class="edge">
<title>c22:e&#45;&gt;n8:w</title>
<path fill="none" stroke="#d95f02" d="M1078.71,-388C1098.05,-388 1094.69,-413.57 1105.88,-422.76"/>
<polygon fill="#d95f02" stroke="#d95f02" points="1105.12,-426.19 1115.71,-426 1107.31,-419.55 1105.12,-426.19"/>
</g>
<!-- v5 -->
<g id="node15" class="node">
<title>v5</title>
<ellipse fill="none" stroke="black" cx="409.21" cy="-279" rx="27" ry="18"/>
<text text-anchor="middle" x="409.21" y="-275.3" font-family="Times New Roman,serif" font-size="14.00">2&#39;10</text>
</g>
<!-- c23 -->
<g id="node16" class="node">
<title>c23</title>
<polygon fill="none" stroke="black" points="518.71,-283 518.71,-329 651.71,-329 651.71,-283 518.71,-283"/>
<text text-anchor="middle" x="531.71" y="-313.8" font-family="Times New Roman,serif" font-size="14.00">A</text>
<polyline fill="none" stroke="black" points="518.71,-306 544.71,-306 "/>
<text text-anchor="middle" x="531.71" y="-290.8" font-family="Times New Roman,serif" font-size="14.00">B</text>
<polyline fill="none" stroke="black" points="544.71,-283 544.71,-329 "/>
<text text-anchor="middle" x="585.21" y="-309.8" font-family="Times New Roman,serif" font-size="14.00">$14_CMP0</text>
<text text-anchor="middle" x="585.21" y="-294.8" font-family="Times New Roman,serif" font-size="14.00">$eq</text>
<polyline fill="none" stroke="black" points="625.71,-283 625.71,-329 "/>
<text text-anchor="middle" x="638.71" y="-302.3" font-family="Times New Roman,serif" font-size="14.00">Y</text>
</g>
<!-- v5&#45;&gt;c23 -->
<g id="edge25" class="edge">
<title>v5:e&#45;&gt;c23:w</title>
<path fill="none" stroke="#7570b3" stroke-width="3" d="M437.21,-279C440.88,-279 487.53,-288.53 508.66,-292.39"/>
<polygon fill="#7570b3" stroke="#7570b3" stroke-width="3" points="508.28,-295.88 518.71,-294 509.39,-288.97 508.28,-295.88"/>
<text text-anchor="middle" x="488.71" y="-293.8" font-family="Times New Roman,serif" font-size="14.00" fill="#7570b3">&lt;2&gt;</text>
</g>
<!-- c23&#45;&gt;x0 -->
<g id="edge12" class="edge">
<title>c23:e&#45;&gt;x0:w</title>
<path fill="none" stroke="#d95f02" d="M651.71,-306C664.17,-306 669.55,-306 678.58,-306"/>
<polygon fill="#d95f02" stroke="#d95f02" points="678.71,-309.5 688.71,-306 678.71,-302.5 678.71,-309.5"/>
</g>
<!-- x4&#45;&gt;c23 -->
<g id="edge2" class="edge">
<title>x4:e&#45;&gt;c23:w</title>
<path fill="none" stroke="#1b9e77" stroke-width="3" d="M453.32,-338.1C475.19,-334.66 484.65,-322.4 506.47,-318.92"/>
<polygon fill="none" stroke="#1b9e77" stroke-width="3" points="453.18,-338.11 447.49,-342.54 441.21,-339 446.9,-334.57 453.18,-338.11"/>
<polygon fill="none" stroke="#1b9e77" stroke-width="3" points="506.74,-318.9 512.43,-314.46 518.71,-318 513.03,-322.44 506.74,-318.9"/>
<text text-anchor="middle" x="488.71" y="-332.8" font-family="Times New Roman,serif" font-size="14.00" fill="#1b9e77">&lt;2&gt;</text>
</g>
<!-- v7 -->
<g id="node18" class="node">
<title>v7</title>
<ellipse fill="none" stroke="black" cx="409.21" cy="-399" rx="27" ry="18"/>
<text text-anchor="middle" x="409.21" y="-395.3" font-family="Times New Roman,serif" font-size="14.00">1&#39;1</text>
</g>
<!-- c24 -->
<g id="node19" class="node">
<title>c24</title>
<polygon fill="none" stroke="black" points="518.71,-388 518.71,-434 651.71,-434 651.71,-388 518.71,-388"/>
<text text-anchor="middle" x="531.71" y="-418.8" font-family="Times New Roman,serif" font-size="14.00">A</text>
<polyline fill="none" stroke="black" points="518.71,-411 544.71,-411 "/>
<text text-anchor="middle" x="531.71" y="-395.8" font-family="Times New Roman,serif" font-size="14.00">B</text>
<polyline fill="none" stroke="black" points="544.71,-388 544.71,-434 "/>
<text text-anchor="middle" x="585.21" y="-414.8" font-family="Times New Roman,serif" font-size="14.00">$15_CMP0</text>
<text text-anchor="middle" x="585.21" y="-399.8" font-family="Times New Roman,serif" font-size="14.00">$eq</text>
<polyline fill="none" stroke="black" points="625.71,-388 625.71,-434 "/>
<text text-anchor="middle" x="638.71" y="-407.3" font-family="Times New Roman,serif" font-size="14.00">Y</text>
</g>
<!-- v7&#45;&gt;c24 -->
<g id="edge26" class="edge">
<title>v7:e&#45;&gt;c24:w</title>
<path fill="none" stroke="#666666" d="M437.21,-399C469.75,-399 480.37,-399 508.46,-399"/>
<polygon fill="#666666" stroke="#666666" points="508.71,-402.5 518.71,-399 508.71,-395.5 508.71,-402.5"/>
</g>
<!-- c24&#45;&gt;x0 -->
<g id="edge13" class="edge">
<title>c24:e&#45;&gt;x0:w</title>
<path fill="none" stroke="#1b9e77" d="M651.71,-411C687.11,-411 657.11,-346.18 678.72,-332.51"/>
<polygon fill="#1b9e77" stroke="#1b9e77" points="679.87,-335.83 688.71,-330 678.16,-329.05 679.87,-335.83"/>
</g>
<!-- x6&#45;&gt;c24 -->
<g id="edge3" class="edge">
<title>x6:e&#45;&gt;c24:w</title>
<path fill="none" stroke="#1b9e77" stroke-width="3" d="M453.41,-495.02C482.56,-484.49 477.42,-435.17 506.78,-424.88"/>
<polygon fill="none" stroke="#1b9e77" stroke-width="3" points="453.05,-495.08 447.77,-499.99 441.21,-497 446.49,-492.09 453.05,-495.08"/>
<polygon fill="none" stroke="#1b9e77" stroke-width="3" points="506.86,-424.87 512.16,-419.98 518.71,-423 513.41,-427.89 506.86,-424.87"/>
<text text-anchor="middle" x="488.71" y="-469.8" font-family="Times New Roman,serif" font-size="14.00" fill="#1b9e77">&lt;2&gt;</text>
</g>
<!-- v8 -->
<g id="node21" class="node">
<title>v8</title>
<ellipse fill="none" stroke="black" cx="284.1" cy="-95" rx="27" ry="18"/>
<text text-anchor="middle" x="284.1" y="-91.3" font-family="Times New Roman,serif" font-size="14.00">1&#39;0</text>
</g>
<!-- v8&#45;&gt;c25 -->
<g id="edge27" class="edge">
<title>v8:e&#45;&gt;c25:w</title>
<path fill="none" stroke="#a6761d" d="M312.1,-95C329.46,-95 336.14,-95 349.66,-95"/>
<polygon fill="#a6761d" stroke="#a6761d" points="349.71,-98.5 359.71,-95 349.71,-91.5 349.71,-98.5"/>
</g>
<!-- v9 -->
<g id="node22" class="node">
<title>v9</title>
<ellipse fill="none" stroke="black" cx="284.1" cy="-41" rx="27" ry="18"/>
<text text-anchor="middle" x="284.1" y="-37.3" font-family="Times New Roman,serif" font-size="14.00">1&#39;1</text>
</g>
<!-- v9&#45;&gt;c25 -->
<g id="edge28" class="edge">
<title>v9:e&#45;&gt;c25:w</title>
<path fill="none" stroke="#7570b3" d="M312.1,-41C326.66,-41 329.69,-46.79 341.71,-55 346.82,-58.49 348.4,-63.43 350.75,-67.09"/>
<polygon fill="#7570b3" stroke="#7570b3" points="349.26,-70.26 359.71,-72 352.62,-64.12 349.26,-70.26"/>
</g>
<!-- c25&#45;&gt;n9 -->
<g id="edge21" class="edge">
<title>c25:e&#45;&gt;n9:w</title>
<path fill="none" stroke="#d95f02" d="M458.71,-72C514.49,-72 528.43,-72 584.21,-72 584.21,-72 584.21,-72 1404.91,-72 1461.39,-72 1477.99,-72 1529.81,-72"/>
<polygon fill="#d95f02" stroke="#d95f02" points="1529.91,-75.5 1539.91,-72 1529.91,-68.5 1529.91,-75.5"/>
</g>
<!-- c26&#45;&gt;c21 -->
<g id="edge14" class="edge">
<title>c26:e&#45;&gt;c21:w</title>
<path fill="none" stroke="#1b9e77" d="M1385.91,-410C1422.32,-410 1390.12,-264.63 1413.67,-237.38"/>
<polygon fill="#1b9e77" stroke="#1b9e77" points="1415.37,-240.44 1422.91,-233 1412.37,-234.12 1415.37,-240.44"/>
</g>
</g>
</svg>
