<svg xmlns="http://www.w3.org/2000/svg" xmlns:xlink="http://www.w3.org/1999/xlink" xmlns:s="https://github.com/nturley/netlistsvg" width="848" height="309.5">
  <style>svg {
    stroke:#000;
    fill:none;
  }
  text {
    fill:#000;
    stroke:none;
    font-size:10px;
    font-weight: bold;
    font-family: "Courier New", monospace;
  }
  .nodelabel {
    text-anchor: middle;
  }
  .inputPortLabel {
    text-anchor: end;
  }
  .splitjoinBody {
    fill:#000;
  }</style>
  <g s:type="generic" transform="translate(262,153.5)" s:width="30" s:height="40" id="cell_$auto$opt_reduce.cc:128:opt_mux$17">
    <text x="15" y="-4" class="nodelabel cell_$auto$opt_reduce.cc:128:opt_mux$17" s:attribute="ref">$reduce_or</text>
    <rect width="30" height="20" s:generic="body" class="cell_$auto$opt_reduce.cc:128:opt_mux$17"/>
    <g transform="translate(0,10)" s:x="0" s:y="10" s:pid="in0" id="port_$auto$opt_reduce.cc:128:opt_mux$17~A">
      <text x="-3" y="-4" class="inputPortLabel cell_$auto$opt_reduce.cc:128:opt_mux$17">A</text>
    </g>
    <g transform="translate(30,10)" s:x="30" s:y="10" s:pid="out0" id="port_$auto$opt_reduce.cc:128:opt_mux$17~Y">
      <text x="5" y="-4" style="fill:#000; stroke:none" class="cell_$auto$opt_reduce.cc:128:opt_mux$17">Y</text>
    </g>
  </g>
  <g s:type="dff" transform="translate(686,124)" s:width="30" s:height="40" id="cell_$procdff$16">
    <s:alias val="$dff"/>
    <s:alias val="$_DFF_"/>
    <s:alias val="$_DFF_P_"/>
    <rect width="30" height="40" x="0" y="0" class="cell_$procdff$16"/>
    <path d="M0,35 L5,30 L0,25" class="cell_$procdff$16"/>
    <g s:x="30" s:y="10" s:pid="Q"/>
    <g s:x="0" s:y="30" s:pid="CLK"/>
    <g s:x="0" s:y="30" s:pid="C"/>
    <g s:x="0" s:y="10" s:pid="D"/>
  </g>
  <g s:type="mux" transform="translate(631,114)" s:width="20" s:height="40" id="cell_$procmux$10">
    <s:alias val="$pmux"/>
    <s:alias val="$mux"/>
    <s:alias val="$_MUX_"/>
    <path d="M0,0 L20,10 L20,30 L0,40 Z" class="cell_$procmux$10"/>
    <g s:x="0" s:y="10" s:pid="A"/>
    <g s:x="0" s:y="30" s:pid="B"/>
    <g s:x="10" s:y="35" s:pid="S"/>
    <g s:x="20" s:y="20" s:pid="Y"/>
  </g>
  <g s:type="mux" transform="translate(504.3333333333333,114)" s:width="20" s:height="40" id="cell_$procmux$13">
    <s:alias val="$pmux"/>
    <s:alias val="$mux"/>
    <s:alias val="$_MUX_"/>
    <path d="M0,0 L20,10 L20,30 L0,40 Z" class="cell_$procmux$13"/>
    <g s:x="0" s:y="10" s:pid="A"/>
    <g s:x="0" s:y="30" s:pid="B"/>
    <g s:x="10" s:y="35" s:pid="S"/>
    <g s:x="20" s:y="20" s:pid="Y"/>
  </g>
  <g s:type="eq" transform="translate(147,141.5)" s:width="25" s:height="25" id="cell_$procmux$14_CMP0">
    <s:alias val="$eq"/>
    <circle r="12.5" cx="12.5" cy="12.5" class="cell_$procmux$14_CMP0"/>
    <line x1="7.5" x2="17.5" y1="10" y2="10" class="cell_$procmux$14_CMP0"/>
    <line x1="7.5" x2="17.5" y1="15" y2="15" class="cell_$procmux$14_CMP0"/>
    <g s:x="3" s:y="5" s:pid="A"/>
    <g s:x="3" s:y="20" s:pid="B"/>
    <g s:x="25" s:y="12.5" s:pid="Y"/>
  </g>
  <g s:type="eq" transform="translate(147,201.5)" s:width="25" s:height="25" id="cell_$procmux$15_CMP0">
    <s:alias val="$eq"/>
    <circle r="12.5" cx="12.5" cy="12.5" class="cell_$procmux$15_CMP0"/>
    <line x1="7.5" x2="17.5" y1="10" y2="10" class="cell_$procmux$15_CMP0"/>
    <line x1="7.5" x2="17.5" y1="15" y2="15" class="cell_$procmux$15_CMP0"/>
    <g s:x="3" s:y="5" s:pid="A"/>
    <g s:x="3" s:y="20" s:pid="B"/>
    <g s:x="25" s:y="12.5" s:pid="Y"/>
  </g>
  <g s:type="mux" transform="translate(751,12)" s:width="20" s:height="40" id="cell_$procmux$5">
    <s:alias val="$pmux"/>
    <s:alias val="$mux"/>
    <s:alias val="$_MUX_"/>
    <path d="M0,0 L20,10 L20,30 L0,40 Z" class="cell_$procmux$5"/>
    <g s:x="0" s:y="10" s:pid="A"/>
    <g s:x="0" s:y="30" s:pid="B"/>
    <g s:x="10" s:y="35" s:pid="S"/>
    <g s:x="20" s:y="20" s:pid="Y"/>
  </g>
  <g s:type="mux" transform="translate(572.6666666666666,104)" s:width="20" s:height="40" id="cell_$procmux$7">
    <s:alias val="$pmux"/>
    <s:alias val="$mux"/>
    <s:alias val="$_MUX_"/>
    <path d="M0,0 L20,10 L20,30 L0,40 Z" class="cell_$procmux$7"/>
    <g s:x="0" s:y="10" s:pid="A"/>
    <g s:x="0" s:y="30" s:pid="B"/>
    <g s:x="10" s:y="35" s:pid="S"/>
    <g s:x="20" s:y="20" s:pid="Y"/>
  </g>
  <g s:type="inputExt" transform="translate(501,277.5)" s:width="30" s:height="20" id="cell_clk">
    <text x="15" y="-4" class="nodelabel cell_clk" s:attribute="ref">clk</text>
    <s:alias val="$_inputExt_"/>
    <path d="M0,0 L0,20 L15,20 L30,10 L15,0 Z" class="cell_clk"/>
    <g s:x="28" s:y="10" s:pid="Y"/>
  </g>
  <g s:type="inputExt" transform="translate(566,257.5)" s:width="30" s:height="20" id="cell_reset">
    <text x="15" y="-4" class="nodelabel cell_reset" s:attribute="ref">reset</text>
    <s:alias val="$_inputExt_"/>
    <path d="M0,0 L0,20 L15,20 L30,10 L15,0 Z" class="cell_reset"/>
    <g s:x="28" s:y="10" s:pid="Y"/>
  </g>
  <g s:type="inputExt" transform="translate(12,146.5)" s:width="30" s:height="20" id="cell_in">
    <text x="15" y="-4" class="nodelabel cell_in" s:attribute="ref">in</text>
    <s:alias val="$_inputExt_"/>
    <path d="M0,0 L0,20 L15,20 L30,10 L15,0 Z" class="cell_in"/>
    <g s:x="28" s:y="10" s:pid="Y"/>
  </g>
  <g s:type="outputExt" transform="translate(806,22)" s:width="30" s:height="20" id="cell_out">
    <text x="15" y="-4" class="nodelabel cell_out" s:attribute="ref">out</text>
    <s:alias val="$_outputExt_"/>
    <path d="M30,0 L30,20 L15,20 L0,10 L15,0 Z" class="cell_out"/>
    <g s:x="0" s:y="10" s:pid="A"/>
  </g>
  <g s:type="constant" transform="translate(77,211.5)" s:width="30" s:height="20" id="cell_1">
    <text x="15" y="-4" class="nodelabel cell_1" s:attribute="ref">1</text>
    <s:alias val="$_constant_"/>
    <rect width="30" height="20" class="cell_1"/>
    <g s:x="30" s:y="10" s:pid="Y"/>
  </g>
  <g s:type="constant" transform="translate(262,63)" s:width="30" s:height="20" id="cell_0">
    <text x="15" y="-4" class="nodelabel cell_0" s:attribute="ref">0</text>
    <s:alias val="$_constant_"/>
    <rect width="30" height="20" class="cell_0"/>
    <g s:x="30" s:y="10" s:pid="Y"/>
  </g>
  <g s:type="constant" transform="translate(77,276.5)" s:width="30" s:height="20" id="cell_10">
    <text x="15" y="-4" class="nodelabel cell_10" s:attribute="ref">10</text>
    <s:alias val="$_constant_"/>
    <rect width="30" height="20" class="cell_10"/>
    <g s:x="30" s:y="10" s:pid="Y"/>
  </g>
  <g s:type="join" transform="translate(214,143.5)" s:width="4" s:height="40" id="cell_$join$,6,7,">
    <rect width="5" height="40" class="splitjoinBody" s:generic="body"/>
    <s:alias val="$_join_"/>
    <g s:x="5" s:y="20" s:pid="out"/>
    <g transform="translate(0,10)" s:x="0" s:y="10" s:pid="in0">
      <text x="-3" y="-4" class="inputPortLabel">0</text>
    </g>
    <g transform="translate(0,30)" s:x="0" s:y="10" s:pid="in0">
      <text x="-3" y="-4" class="inputPortLabel">1</text>
    </g>
  </g>
  <g s:type="join" transform="translate(93.66666666666666,126)" s:width="4" s:height="40" id="cell_$join$,10,4,">
    <rect width="5" height="40" class="splitjoinBody" s:generic="body"/>
    <s:alias val="$_join_"/>
    <g s:x="5" s:y="20" s:pid="out"/>
    <g transform="translate(0,10)" s:x="0" s:y="10" s:pid="in0">
      <text x="-3" y="-4" class="inputPortLabel">0</text>
    </g>
    <g transform="translate(0,30)" s:x="0" s:y="10" s:pid="in0">
      <text x="-3" y="-4" class="inputPortLabel">1</text>
    </g>
  </g>
  <line x1="220" x2="262" y1="164" y2="164" class="net_6,7"/>
  <line x1="529" x2="661" y1="287.5" y2="287.5" class="net_2"/>
  <line x1="661" x2="661" y1="287.5" y2="154" class="net_2"/>
  <line x1="661" x2="686" y1="154" y2="154" class="net_2"/>
  <line x1="529" x2="541" y1="287.5" y2="287.5" class="net_2"/>
  <line x1="541" x2="541" y1="287.5" y2="226.5" class="net_2"/>
  <line x1="541" x2="582.6666666666666" y1="226.5" y2="226.5" class="net_2"/>
  <circle cx="541" cy="287.5" r="2" style="fill:#000" class="net_2"/>
  <line x1="582.6666666666666" x2="582.6666666666666" y1="226.5" y2="139" class="net_2"/>
  <line x1="651" x2="686" y1="134" y2="134" class="net_9"/>
  <line x1="592.6666666666666" x2="631" y1="124" y2="124" class="net_11"/>
  <line x1="107" x2="117" y1="221.5" y2="221.5" class="net_13"/>
  <line x1="117" x2="117" y1="221.5" y2="236.5" class="net_13"/>
  <line x1="117" x2="606" y1="236.5" y2="236.5" class="net_13"/>
  <line x1="606" x2="606" y1="236.5" y2="144" class="net_13"/>
  <circle cx="117" cy="221.5" r="2" style="fill:#000" class="net_13"/>
  <line x1="606" x2="631" y1="144" y2="144" class="net_13"/>
  <line x1="107" x2="117" y1="221.5" y2="221.5" class="net_13"/>
  <line x1="117" x2="117" y1="221.5" y2="124" class="net_13"/>
  <circle cx="117" cy="124" r="2" style="fill:#000" class="net_13"/>
  <line x1="117" x2="504.3333333333333" y1="124" y2="124" class="net_13"/>
  <line x1="107" x2="150" y1="221.5" y2="221.5" class="net_13"/>
  <line x1="107" x2="117" y1="221.5" y2="221.5" class="net_13"/>
  <line x1="117" x2="117" y1="221.5" y2="42" class="net_13"/>
  <line x1="117" x2="751" y1="42" y2="42" class="net_13"/>
  <line x1="594" x2="641" y1="267.5" y2="267.5" class="net_3"/>
  <line x1="641" x2="641" y1="267.5" y2="149" class="net_3"/>
  <line x1="292" x2="476" y1="73" y2="73" class="net_15"/>
  <line x1="476" x2="476" y1="73" y2="144" class="net_15"/>
  <circle cx="476" cy="73" r="2" style="fill:#000" class="net_15"/>
  <line x1="476" x2="504.3333333333333" y1="144" y2="144" class="net_15"/>
  <line x1="292" x2="476" y1="73" y2="73" class="net_15"/>
  <line x1="476" x2="476" y1="73" y2="22" class="net_15"/>
  <line x1="476" x2="751" y1="22" y2="22" class="net_15"/>
  <line x1="293" x2="514.3333333333333" y1="164" y2="164" class="net_8"/>
  <line x1="514.3333333333333" x2="514.3333333333333" y1="164" y2="149" class="net_8"/>
  <line x1="99.66666666666666" x2="150" y1="146.5" y2="146.5" class="net_10,4"/>
  <line x1="99.66666666666666" x2="137" y1="146.5" y2="146.5" class="net_10,4"/>
  <line x1="137" x2="137" y1="146.5" y2="206.5" class="net_10,4"/>
  <circle cx="137" cy="146.5" r="2" style="fill:#000" class="net_10,4"/>
  <line x1="137" x2="150" y1="206.5" y2="206.5" class="net_10,4"/>
  <line x1="107" x2="127" y1="286.5" y2="286.5" class="net_16,17"/>
  <line x1="127" x2="127" y1="286.5" y2="161.5" class="net_16,17"/>
  <line x1="127" x2="150" y1="161.5" y2="161.5" class="net_16,17"/>
  <line x1="716" x2="761" y1="134" y2="134" class="net_10"/>
  <line x1="761" x2="761" y1="134" y2="47" class="net_10"/>
  <line x1="716" x2="726" y1="134" y2="134" class="net_10"/>
  <line x1="726" x2="726" y1="134" y2="93" class="net_10"/>
  <line x1="726" x2="541" y1="93" y2="93" class="net_10"/>
  <line x1="541" x2="541" y1="93" y2="114" class="net_10"/>
  <circle cx="541" cy="93" r="2" style="fill:#000" class="net_10"/>
  <line x1="541" x2="572.6666666666666" y1="114" y2="114" class="net_10"/>
  <line x1="716" x2="726" y1="134" y2="134" class="net_10"/>
  <line x1="726" x2="726" y1="134" y2="93" class="net_10"/>
  <line x1="726" x2="52" y1="93" y2="93" class="net_10"/>
  <line x1="52" x2="52" y1="93" y2="136.5" class="net_10"/>
  <circle cx="726" cy="134" r="2" style="fill:#000" class="net_10"/>
  <line x1="52" x2="93.66666666666666" y1="136.5" y2="136.5" class="net_10"/>
  <line x1="524.3333333333333" x2="572.6666666666666" y1="134" y2="134" class="net_12"/>
  <line x1="771" x2="806" y1="32" y2="32" class="net_5"/>
  <line x1="172" x2="214" y1="154" y2="154" class="net_6"/>
  <line x1="172" x2="182" y1="214" y2="214" class="net_7"/>
  <line x1="182" x2="182" y1="214" y2="174" class="net_7"/>
  <line x1="182" x2="214" y1="174" y2="174" class="net_7"/>
  <line x1="40" x2="93.66666666666666" y1="156.5" y2="156.5" class="net_4"/>
</svg>
