<?xml version="1.0" encoding="UTF-8" standalone="no"?>
<!DOCTYPE svg PUBLIC "-//W3C//DTD SVG 1.1//EN"
 "http://www.w3.org/Graphics/SVG/1.1/DTD/svg11.dtd">
<!-- Generated by graphviz version 4.0.0 (20220529.0937)
 -->
<!-- Title: top_module Pages: 1 -->
<svg width="1353pt" height="425pt"
 viewBox="0.00 0.00 1353.35 425.00" xmlns="http://www.w3.org/2000/svg" xmlns:xlink="http://www.w3.org/1999/xlink">
<g id="graph0" class="graph" transform="scale(1 1) rotate(0) translate(4 421)">
<title>top_module</title>
<polygon fill="white" stroke="transparent" points="-4,4 -4,-421 1349.35,-421 1349.35,4 -4,4"/>
<text text-anchor="middle" x="672.67" y="-7.8" font-family="Times New Roman,serif" font-size="14.00">top_module</text>
<!-- n4 -->
<g id="node1" class="node">
<title>n4</title>
<polygon fill="none" stroke="black" points="68.91,-319.54 68.91,-334.46 48.74,-345 20.2,-345 0.03,-334.46 0.03,-319.54 20.2,-309 48.74,-309 68.91,-319.54"/>
<text text-anchor="middle" x="34.47" y="-323.3" font-family="Times New Roman,serif" font-size="14.00">areset</text>
</g>
<!-- c18 -->
<g id="node10" class="node">
<title>c18</title>
<polygon fill="none" stroke="black" points="105.94,-262.5 105.94,-331.5 231.94,-331.5 231.94,-262.5 105.94,-262.5"/>
<text text-anchor="middle" x="132.44" y="-316.3" font-family="Times New Roman,serif" font-size="14.00">ARST</text>
<polyline fill="none" stroke="black" points="105.94,-308.5 158.94,-308.5 "/>
<text text-anchor="middle" x="132.44" y="-293.3" font-family="Times New Roman,serif" font-size="14.00">CLK</text>
<polyline fill="none" stroke="black" points="105.94,-285.5 158.94,-285.5 "/>
<text text-anchor="middle" x="132.44" y="-270.3" font-family="Times New Roman,serif" font-size="14.00">D</text>
<polyline fill="none" stroke="black" points="158.94,-262.5 158.94,-331.5 "/>
<text text-anchor="middle" x="181.94" y="-300.8" font-family="Times New Roman,serif" font-size="14.00">$11</text>
<text text-anchor="middle" x="181.94" y="-285.8" font-family="Times New Roman,serif" font-size="14.00">$adff</text>
<polyline fill="none" stroke="black" points="204.94,-262.5 204.94,-331.5 "/>
<text text-anchor="middle" x="218.44" y="-293.3" font-family="Times New Roman,serif" font-size="14.00">Q</text>
</g>
<!-- n4&#45;&gt;c18 -->
<g id="edge11" class="edge">
<title>n4:e&#45;&gt;c18:w</title>
<path fill="none" stroke="#d95f02" d="M68.94,-327C81.63,-327 86.72,-322.98 95.73,-321.03"/>
<polygon fill="#d95f02" stroke="#d95f02" points="96.35,-324.49 105.94,-320 95.64,-317.52 96.35,-324.49"/>
</g>
<!-- n5 -->
<g id="node2" class="node">
<title>n5</title>
<polygon fill="none" stroke="black" points="61.47,-265.54 61.47,-280.46 45.65,-291 23.29,-291 7.47,-280.46 7.47,-265.54 23.29,-255 45.65,-255 61.47,-265.54"/>
<text text-anchor="middle" x="34.47" y="-269.3" font-family="Times New Roman,serif" font-size="14.00">clk</text>
</g>
<!-- n5&#45;&gt;c18 -->
<g id="edge12" class="edge">
<title>n5:e&#45;&gt;c18:w</title>
<path fill="none" stroke="#1b9e77" d="M62.47,-273C80.57,-273 83.38,-289.15 95.98,-294.95"/>
<polygon fill="#1b9e77" stroke="#1b9e77" points="95.44,-298.42 105.94,-297 96.85,-291.56 95.44,-298.42"/>
</g>
<!-- n6 -->
<g id="node3" class="node">
<title>n6</title>
<polygon fill="none" stroke="black" points="61.47,-391.54 61.47,-406.46 45.65,-417 23.29,-417 7.47,-406.46 7.47,-391.54 23.29,-381 45.65,-381 61.47,-391.54"/>
<text text-anchor="middle" x="34.47" y="-395.3" font-family="Times New Roman,serif" font-size="14.00">j</text>
</g>
<!-- x1 -->
<g id="node13" class="node">
<title>x1</title>
<path fill="none" stroke="black" d="M413.65,-286C413.65,-286 451.65,-286 451.65,-286 457.65,-286 463.65,-292 463.65,-298 463.65,-298 463.65,-320 463.65,-320 463.65,-326 457.65,-332 451.65,-332 451.65,-332 413.65,-332 413.65,-332 407.65,-332 401.65,-326 401.65,-320 401.65,-320 401.65,-298 401.65,-298 401.65,-292 407.65,-286 413.65,-286"/>
<text text-anchor="middle" x="432.65" y="-316.8" font-family="Times New Roman,serif" font-size="14.00">0:0 &#45; 1:1</text>
<polyline fill="none" stroke="black" points="401.65,-309 463.65,-309 "/>
<text text-anchor="middle" x="432.65" y="-293.8" font-family="Times New Roman,serif" font-size="14.00">0:0 &#45; 0:0</text>
</g>
<!-- n6&#45;&gt;x1 -->
<g id="edge13" class="edge">
<title>n6:e&#45;&gt;x1:w</title>
<path fill="none" stroke="#1b9e77" d="M62.47,-399C146.91,-399 168.85,-394.78 250.94,-375 316.22,-359.27 328.73,-324.75 390.33,-321.28"/>
<polygon fill="#1b9e77" stroke="#1b9e77" points="390.75,-324.77 400.65,-321 390.56,-317.77 390.75,-324.77"/>
</g>
<!-- n7 -->
<g id="node4" class="node">
<title>n7</title>
<polygon fill="none" stroke="black" points="61.47,-193.54 61.47,-208.46 45.65,-219 23.29,-219 7.47,-208.46 7.47,-193.54 23.29,-183 45.65,-183 61.47,-193.54"/>
<text text-anchor="middle" x="34.47" y="-197.3" font-family="Times New Roman,serif" font-size="14.00">k</text>
</g>
<!-- x7 -->
<g id="node22" class="node">
<title>x7</title>
<path fill="none" stroke="black" d="M413.65,-166C413.65,-166 451.65,-166 451.65,-166 457.65,-166 463.65,-172 463.65,-178 463.65,-178 463.65,-200 463.65,-200 463.65,-206 457.65,-212 451.65,-212 451.65,-212 413.65,-212 413.65,-212 407.65,-212 401.65,-206 401.65,-200 401.65,-200 401.65,-178 401.65,-178 401.65,-172 407.65,-166 413.65,-166"/>
<text text-anchor="middle" x="432.65" y="-196.8" font-family="Times New Roman,serif" font-size="14.00">0:0 &#45; 1:1</text>
<polyline fill="none" stroke="black" points="401.65,-189 463.65,-189 "/>
<text text-anchor="middle" x="432.65" y="-173.8" font-family="Times New Roman,serif" font-size="14.00">0:0 &#45; 0:0</text>
</g>
<!-- n7&#45;&gt;x7 -->
<g id="edge14" class="edge">
<title>n7:e&#45;&gt;x7:w</title>
<path fill="none" stroke="#e6ab02" d="M62.47,-201C209.25,-201 248.53,-201 390.27,-201"/>
<polygon fill="#e6ab02" stroke="#e6ab02" points="390.65,-204.5 400.65,-201 390.65,-197.5 390.65,-204.5"/>
</g>
<!-- n8 -->
<g id="node5" class="node">
<title>n8</title>
<polygon fill="none" stroke="black" points="1206.25,-337 1139.05,-319 1206.25,-301 1273.45,-319 1206.25,-337"/>
<text text-anchor="middle" x="1206.25" y="-315.3" font-family="Times New Roman,serif" font-size="14.00">next_state</text>
</g>
<!-- n8&#45;&gt;c18 -->
<g id="edge16" class="edge">
<title>n8:e&#45;&gt;c18:w</title>
<path fill="none" stroke="#e6ab02" d="M1274.25,-319C1282.26,-319 1278.76,-331.19 1273.25,-337 1205.7,-408.25 1151.83,-361 1053.65,-361 306.55,-361 306.55,-361 306.55,-361 266.88,-361 272.79,-324.43 249.94,-292 240.99,-279.29 245.47,-269.66 231.94,-262 183.21,-234.41 147.15,-224.08 105.94,-262 105.33,-262.57 104.75,-263.25 104.23,-264"/>
<polygon fill="#e6ab02" stroke="#e6ab02" points="100.74,-264.27 104.94,-274 107.72,-263.78 100.74,-264.27"/>
</g>
<!-- n9 -->
<g id="node6" class="node">
<title>n9</title>
<polygon fill="none" stroke="black" points="1345.35,-50.54 1345.35,-65.46 1329.53,-76 1307.16,-76 1291.35,-65.46 1291.35,-50.54 1307.16,-40 1329.53,-40 1345.35,-50.54"/>
<text text-anchor="middle" x="1318.35" y="-54.3" font-family="Times New Roman,serif" font-size="14.00">out</text>
</g>
<!-- n10 -->
<g id="node7" class="node">
<title>n10</title>
<polygon fill="none" stroke="black" points="307.55,-279 268.84,-261 307.55,-243 346.26,-261 307.55,-279"/>
<text text-anchor="middle" x="307.55" y="-257.3" font-family="Times New Roman,serif" font-size="14.00">state</text>
</g>
<!-- n10&#45;&gt;x1 -->
<g id="edge7" class="edge">
<title>n10:e&#45;&gt;x1:w</title>
<path fill="none" stroke="#e7298a" d="M346.15,-261C371.33,-261 371.99,-288.07 390.66,-295.26"/>
<polygon fill="#e7298a" stroke="#e7298a" points="390.2,-298.74 400.65,-297 391.4,-291.84 390.2,-298.74"/>
</g>
<!-- c22 -->
<g id="node16" class="node">
<title>c22</title>
<polygon fill="none" stroke="black" points="383.15,-23.5 383.15,-92.5 482.15,-92.5 482.15,-23.5 383.15,-23.5"/>
<text text-anchor="middle" x="396.15" y="-77.3" font-family="Times New Roman,serif" font-size="14.00">A</text>
<polyline fill="none" stroke="black" points="383.15,-69.5 409.15,-69.5 "/>
<text text-anchor="middle" x="396.15" y="-54.3" font-family="Times New Roman,serif" font-size="14.00">B</text>
<polyline fill="none" stroke="black" points="383.15,-46.5 409.15,-46.5 "/>
<text text-anchor="middle" x="396.15" y="-31.3" font-family="Times New Roman,serif" font-size="14.00">S</text>
<polyline fill="none" stroke="black" points="409.15,-23.5 409.15,-92.5 "/>
<text text-anchor="middle" x="432.65" y="-61.8" font-family="Times New Roman,serif" font-size="14.00">$5</text>
<text text-anchor="middle" x="432.65" y="-46.8" font-family="Times New Roman,serif" font-size="14.00">$mux</text>
<polyline fill="none" stroke="black" points="456.15,-23.5 456.15,-92.5 "/>
<text text-anchor="middle" x="469.15" y="-54.3" font-family="Times New Roman,serif" font-size="14.00">Y</text>
</g>
<!-- n10&#45;&gt;c22 -->
<g id="edge6" class="edge">
<title>n10:e&#45;&gt;c22:w</title>
<path fill="none" stroke="#e7298a" d="M346.15,-261C393.27,-261 341.24,-67.3 373.64,-38.55"/>
<polygon fill="#e7298a" stroke="#e7298a" points="375.01,-41.78 383.15,-35 372.56,-35.22 375.01,-41.78"/>
</g>
<!-- n10&#45;&gt;x7 -->
<g id="edge8" class="edge">
<title>n10:e&#45;&gt;x7:w</title>
<path fill="none" stroke="#e7298a" d="M346.15,-261C386.66,-261 361.71,-191.42 390.46,-178.91"/>
<polygon fill="#e7298a" stroke="#e7298a" points="391.47,-182.28 400.65,-177 390.18,-175.4 391.47,-182.28"/>
</g>
<!-- c13 -->
<g id="node8" class="node">
<title>c13</title>
<polygon fill="none" stroke="black" points="834.15,-186 834.15,-224 966.15,-224 966.15,-186 834.15,-186"/>
<text text-anchor="middle" x="847.15" y="-201.3" font-family="Times New Roman,serif" font-size="14.00">A</text>
<polyline fill="none" stroke="black" points="860.15,-186 860.15,-224 "/>
<text text-anchor="middle" x="900.15" y="-208.8" font-family="Times New Roman,serif" font-size="14.00">$12</text>
<text text-anchor="middle" x="900.15" y="-193.8" font-family="Times New Roman,serif" font-size="14.00">$reduce_or</text>
<polyline fill="none" stroke="black" points="940.15,-186 940.15,-224 "/>
<text text-anchor="middle" x="953.15" y="-201.3" font-family="Times New Roman,serif" font-size="14.00">Y</text>
</g>
<!-- c23 -->
<g id="node19" class="node">
<title>c23</title>
<polygon fill="none" stroke="black" points="1003.15,-242.5 1003.15,-311.5 1102.15,-311.5 1102.15,-242.5 1003.15,-242.5"/>
<text text-anchor="middle" x="1016.15" y="-296.3" font-family="Times New Roman,serif" font-size="14.00">A</text>
<polyline fill="none" stroke="black" points="1003.15,-288.5 1029.15,-288.5 "/>
<text text-anchor="middle" x="1016.15" y="-273.3" font-family="Times New Roman,serif" font-size="14.00">B</text>
<polyline fill="none" stroke="black" points="1003.15,-265.5 1029.15,-265.5 "/>
<text text-anchor="middle" x="1016.15" y="-250.3" font-family="Times New Roman,serif" font-size="14.00">S</text>
<polyline fill="none" stroke="black" points="1029.15,-242.5 1029.15,-311.5 "/>
<text text-anchor="middle" x="1052.65" y="-280.8" font-family="Times New Roman,serif" font-size="14.00">$8</text>
<text text-anchor="middle" x="1052.65" y="-265.8" font-family="Times New Roman,serif" font-size="14.00">$mux</text>
<polyline fill="none" stroke="black" points="1076.15,-242.5 1076.15,-311.5 "/>
<text text-anchor="middle" x="1089.15" y="-273.3" font-family="Times New Roman,serif" font-size="14.00">Y</text>
</g>
<!-- c13&#45;&gt;c23 -->
<g id="edge4" class="edge">
<title>c13:e&#45;&gt;c23:w</title>
<path fill="none" stroke="#7570b3" d="M966.15,-205C989.18,-205 980.26,-239.88 993.3,-250.78"/>
<polygon fill="#7570b3" stroke="#7570b3" points="992.56,-254.22 1003.15,-254 994.73,-247.57 992.56,-254.22"/>
</g>
<!-- x0 -->
<g id="node9" class="node">
<title>x0</title>
<path fill="none" stroke="black" d="M724.15,-182C724.15,-182 762.15,-182 762.15,-182 768.15,-182 774.15,-188 774.15,-194 774.15,-194 774.15,-216 774.15,-216 774.15,-222 768.15,-228 762.15,-228 762.15,-228 724.15,-228 724.15,-228 718.15,-228 712.15,-222 712.15,-216 712.15,-216 712.15,-194 712.15,-194 712.15,-188 718.15,-182 724.15,-182"/>
<text text-anchor="middle" x="743.15" y="-212.8" font-family="Times New Roman,serif" font-size="14.00">0:0 &#45; 1:1</text>
<polyline fill="none" stroke="black" points="712.15,-205 774.15,-205 "/>
<text text-anchor="middle" x="743.15" y="-189.8" font-family="Times New Roman,serif" font-size="14.00">0:0 &#45; 0:0</text>
</g>
<!-- x0&#45;&gt;c13 -->
<g id="edge1" class="edge">
<title>x0:e&#45;&gt;c13:w</title>
<path fill="none" stroke="#66a61e" stroke-width="3" d="M786.33,-205C800.04,-205 808.14,-205 821.79,-205"/>
<polygon fill="none" stroke="#66a61e" stroke-width="3" points="786.15,-205 780.15,-209 774.15,-205 780.15,-201 786.15,-205"/>
<polygon fill="none" stroke="#66a61e" stroke-width="3" points="822.15,-205 828.15,-201 834.15,-205 828.15,-209 822.15,-205"/>
<text text-anchor="middle" x="804.15" y="-208.8" font-family="Times New Roman,serif" font-size="14.00" fill="#66a61e">&lt;2&gt;</text>
</g>
<!-- c18&#45;&gt;n10 -->
<g id="edge5" class="edge">
<title>c18:e&#45;&gt;n10:w</title>
<path fill="none" stroke="#e7298a" d="M231.94,-297C250.76,-297 248.16,-272.78 259.29,-264.07"/>
<polygon fill="#e7298a" stroke="#e7298a" points="260.47,-267.37 268.94,-261 258.35,-260.69 260.47,-267.37"/>
</g>
<!-- v2 -->
<g id="node11" class="node">
<title>v2</title>
<ellipse fill="none" stroke="black" cx="432.65" cy="-249" rx="27" ry="18"/>
<text text-anchor="middle" x="432.65" y="-245.3" font-family="Times New Roman,serif" font-size="14.00">2&#39;10</text>
</g>
<!-- c20 -->
<g id="node12" class="node">
<title>c20</title>
<polygon fill="none" stroke="black" points="542.15,-238 542.15,-284 675.15,-284 675.15,-238 542.15,-238"/>
<text text-anchor="middle" x="555.15" y="-268.8" font-family="Times New Roman,serif" font-size="14.00">A</text>
<polyline fill="none" stroke="black" points="542.15,-261 568.15,-261 "/>
<text text-anchor="middle" x="555.15" y="-245.8" font-family="Times New Roman,serif" font-size="14.00">B</text>
<polyline fill="none" stroke="black" points="568.15,-238 568.15,-284 "/>
<text text-anchor="middle" x="608.65" y="-264.8" font-family="Times New Roman,serif" font-size="14.00">$10_CMP0</text>
<text text-anchor="middle" x="608.65" y="-249.8" font-family="Times New Roman,serif" font-size="14.00">$eq</text>
<polyline fill="none" stroke="black" points="649.15,-238 649.15,-284 "/>
<text text-anchor="middle" x="662.15" y="-257.3" font-family="Times New Roman,serif" font-size="14.00">Y</text>
</g>
<!-- v2&#45;&gt;c20 -->
<g id="edge18" class="edge">
<title>v2:e&#45;&gt;c20:w</title>
<path fill="none" stroke="#d95f02" stroke-width="3" d="M460.65,-249C493.19,-249 503.81,-249 531.9,-249"/>
<polygon fill="#d95f02" stroke="#d95f02" stroke-width="3" points="532.15,-252.5 542.15,-249 532.15,-245.5 532.15,-252.5"/>
<text text-anchor="middle" x="512.15" y="-252.8" font-family="Times New Roman,serif" font-size="14.00" fill="#d95f02">&lt;2&gt;</text>
</g>
<!-- c20&#45;&gt;x0 -->
<g id="edge9" class="edge">
<title>c20:e&#45;&gt;x0:w</title>
<path fill="none" stroke="#e7298a" d="M675.15,-261C696.51,-261 690.16,-230.25 702.43,-220.16"/>
<polygon fill="#e7298a" stroke="#e7298a" points="703.73,-223.42 712.15,-217 701.56,-216.77 703.73,-223.42"/>
</g>
<!-- x1&#45;&gt;c20 -->
<g id="edge2" class="edge">
<title>x1:e&#45;&gt;c20:w</title>
<path fill="none" stroke="#1b9e77" stroke-width="3" d="M476.62,-307.63C499.92,-301.93 506.88,-280.07 530.18,-274.37"/>
<polygon fill="none" stroke="#1b9e77" stroke-width="3" points="476.57,-307.64 471.07,-312.29 464.65,-309 470.16,-304.34 476.57,-307.64"/>
<polygon fill="none" stroke="#1b9e77" stroke-width="3" points="530.23,-274.36 535.74,-269.71 542.15,-273 536.64,-277.66 530.23,-274.36"/>
<text text-anchor="middle" x="512.15" y="-296.8" font-family="Times New Roman,serif" font-size="14.00" fill="#1b9e77">&lt;2&gt;</text>
</g>
<!-- v3 -->
<g id="node14" class="node">
<title>v3</title>
<ellipse fill="none" stroke="black" cx="307.55" cy="-113" rx="27" ry="18"/>
<text text-anchor="middle" x="307.55" y="-109.3" font-family="Times New Roman,serif" font-size="14.00">1&#39;0</text>
</g>
<!-- v3&#45;&gt;c22 -->
<g id="edge19" class="edge">
<title>v3:e&#45;&gt;c22:w</title>
<path fill="none" stroke="#d95f02" d="M335.55,-113C357.06,-113 358.01,-90.22 373.1,-83.1"/>
<polygon fill="#d95f02" stroke="#d95f02" points="374.08,-86.47 383.15,-81 372.65,-79.62 374.08,-86.47"/>
</g>
<!-- v4 -->
<g id="node15" class="node">
<title>v4</title>
<ellipse fill="none" stroke="black" cx="307.55" cy="-59" rx="27" ry="18"/>
<text text-anchor="middle" x="307.55" y="-55.3" font-family="Times New Roman,serif" font-size="14.00">1&#39;1</text>
</g>
<!-- v4&#45;&gt;c22 -->
<g id="edge20" class="edge">
<title>v4:e&#45;&gt;c22:w</title>
<path fill="none" stroke="#1b9e77" d="M335.55,-59C352.91,-59 359.58,-58.33 373.1,-58.09"/>
<polygon fill="#1b9e77" stroke="#1b9e77" points="373.18,-61.58 383.15,-58 373.12,-54.59 373.18,-61.58"/>
</g>
<!-- c22&#45;&gt;n9 -->
<g id="edge17" class="edge">
<title>c22:e&#45;&gt;n9:w</title>
<path fill="none" stroke="#d95f02" d="M482.15,-58C537.93,-58 551.87,-58 607.65,-58 607.65,-58 607.65,-58 1121.15,-58 1193.25,-58 1213.81,-58 1281.07,-58"/>
<polygon fill="#d95f02" stroke="#d95f02" points="1281.35,-61.5 1291.35,-58 1281.35,-54.5 1281.35,-61.5"/>
</g>
<!-- v5 -->
<g id="node17" class="node">
<title>v5</title>
<ellipse fill="none" stroke="black" cx="900.15" cy="-315" rx="27" ry="18"/>
<text text-anchor="middle" x="900.15" y="-311.3" font-family="Times New Roman,serif" font-size="14.00">1&#39;0</text>
</g>
<!-- v5&#45;&gt;c23 -->
<g id="edge21" class="edge">
<title>v5:e&#45;&gt;c23:w</title>
<path fill="none" stroke="#1b9e77" d="M928.15,-315C958.43,-315 967.3,-303.1 992.9,-300.5"/>
<polygon fill="#1b9e77" stroke="#1b9e77" points="993.33,-303.98 1003.15,-300 992.99,-296.99 993.33,-303.98"/>
</g>
<!-- v6 -->
<g id="node18" class="node">
<title>v6</title>
<ellipse fill="none" stroke="black" cx="900.15" cy="-261" rx="27" ry="18"/>
<text text-anchor="middle" x="900.15" y="-257.3" font-family="Times New Roman,serif" font-size="14.00">1&#39;1</text>
</g>
<!-- v6&#45;&gt;c23 -->
<g id="edge22" class="edge">
<title>v6:e&#45;&gt;c23:w</title>
<path fill="none" stroke="#7570b3" d="M928.15,-261C958.51,-261 967.25,-273.69 992.87,-276.47"/>
<polygon fill="#7570b3" stroke="#7570b3" points="992.98,-279.98 1003.15,-277 993.35,-272.99 992.98,-279.98"/>
</g>
<!-- c23&#45;&gt;n8 -->
<g id="edge15" class="edge">
<title>c23:e&#45;&gt;n8:w</title>
<path fill="none" stroke="#e6ab02" d="M1102.15,-277C1122.95,-277 1117.45,-306.35 1129.61,-315.98"/>
<polygon fill="#e6ab02" stroke="#e6ab02" points="1128.56,-319.32 1139.15,-319 1130.67,-312.64 1128.56,-319.32"/>
</g>
<!-- v8 -->
<g id="node20" class="node">
<title>v8</title>
<ellipse fill="none" stroke="black" cx="432.65" cy="-129" rx="27" ry="18"/>
<text text-anchor="middle" x="432.65" y="-125.3" font-family="Times New Roman,serif" font-size="14.00">1&#39;1</text>
</g>
<!-- c24 -->
<g id="node21" class="node">
<title>c24</title>
<polygon fill="none" stroke="black" points="545.65,-154 545.65,-200 671.65,-200 671.65,-154 545.65,-154"/>
<text text-anchor="middle" x="558.65" y="-184.8" font-family="Times New Roman,serif" font-size="14.00">A</text>
<polyline fill="none" stroke="black" points="545.65,-177 571.65,-177 "/>
<text text-anchor="middle" x="558.65" y="-161.8" font-family="Times New Roman,serif" font-size="14.00">B</text>
<polyline fill="none" stroke="black" points="571.65,-154 571.65,-200 "/>
<text text-anchor="middle" x="608.65" y="-180.8" font-family="Times New Roman,serif" font-size="14.00">$9_CMP0</text>
<text text-anchor="middle" x="608.65" y="-165.8" font-family="Times New Roman,serif" font-size="14.00">$eq</text>
<polyline fill="none" stroke="black" points="645.65,-154 645.65,-200 "/>
<text text-anchor="middle" x="658.65" y="-173.3" font-family="Times New Roman,serif" font-size="14.00">Y</text>
</g>
<!-- v8&#45;&gt;c24 -->
<g id="edge23" class="edge">
<title>v8:e&#45;&gt;c24:w</title>
<path fill="none" stroke="#666666" d="M460.65,-129C497.62,-129 503.23,-158.82 534.57,-164.18"/>
<polygon fill="#666666" stroke="#666666" points="534.4,-167.68 544.65,-165 534.97,-160.7 534.4,-167.68"/>
</g>
<!-- c24&#45;&gt;x0 -->
<g id="edge10" class="edge">
<title>c24:e&#45;&gt;x0:w</title>
<path fill="none" stroke="#7570b3" d="M672.65,-177C687.6,-177 691.76,-186.96 702.15,-191.16"/>
<polygon fill="#7570b3" stroke="#7570b3" points="701.68,-194.64 712.15,-193 702.95,-187.75 701.68,-194.64"/>
</g>
<!-- x7&#45;&gt;c24 -->
<g id="edge3" class="edge">
<title>x7:e&#45;&gt;c24:w</title>
<path fill="none" stroke="#1b9e77" stroke-width="3" d="M476.84,-189C499.19,-189 510.23,-189 532.64,-189"/>
<polygon fill="none" stroke="#1b9e77" stroke-width="3" points="476.65,-189 470.65,-193 464.65,-189 470.65,-185 476.65,-189"/>
<polygon fill="none" stroke="#1b9e77" stroke-width="3" points="532.65,-189 538.65,-185 544.65,-189 538.65,-193 532.65,-189"/>
<text text-anchor="middle" x="512.15" y="-192.8" font-family="Times New Roman,serif" font-size="14.00" fill="#1b9e77">&lt;2&gt;</text>
</g>
</g>
</svg>
