<?xml version="1.0" encoding="UTF-8" standalone="no"?>
<!DOCTYPE svg PUBLIC "-//W3C//DTD SVG 1.1//EN"
 "http://www.w3.org/Graphics/SVG/1.1/DTD/svg11.dtd">
<!-- Generated by graphviz version 4.0.0 (20220529.0937)
 -->
<!-- Title: top_module Pages: 1 -->
<svg width="915pt" height="340pt"
 viewBox="0.00 0.00 915.35 340.34" xmlns="http://www.w3.org/2000/svg" xmlns:xlink="http://www.w3.org/1999/xlink">
<g id="graph0" class="graph" transform="scale(1 1) rotate(0) translate(4 336.34)">
<title>top_module</title>
<polygon fill="white" stroke="transparent" points="-4,4 -4,-336.34 911.35,-336.34 911.35,4 -4,4"/>
<text text-anchor="middle" x="453.67" y="-7.8" font-family="Times New Roman,serif" font-size="14.00">top_module</text>
<!-- n1 -->
<g id="node1" class="node">
<title>n1</title>
<polygon fill="none" stroke="black" points="68.91,-115.54 68.91,-130.46 48.74,-141 20.2,-141 0.03,-130.46 0.03,-115.54 20.2,-105 48.74,-105 68.91,-115.54"/>
<text text-anchor="middle" x="34.47" y="-119.3" font-family="Times New Roman,serif" font-size="14.00">areset</text>
</g>
<!-- c18 -->
<g id="node10" class="node">
<title>c18</title>
<polygon fill="none" stroke="black" points="104.94,-115.5 104.94,-184.5 285.94,-184.5 285.94,-115.5 104.94,-115.5"/>
<text text-anchor="middle" x="117.94" y="-169.3" font-family="Times New Roman,serif" font-size="14.00">C</text>
<polyline fill="none" stroke="black" points="104.94,-161.5 130.94,-161.5 "/>
<text text-anchor="middle" x="117.94" y="-146.3" font-family="Times New Roman,serif" font-size="14.00">D</text>
<polyline fill="none" stroke="black" points="104.94,-138.5 130.94,-138.5 "/>
<text text-anchor="middle" x="117.94" y="-123.3" font-family="Times New Roman,serif" font-size="14.00">R</text>
<polyline fill="none" stroke="black" points="130.94,-115.5 130.94,-184.5 "/>
<text text-anchor="middle" x="194.94" y="-153.8" font-family="Times New Roman,serif" font-size="14.00">state_SB_DFFR_Q</text>
<text text-anchor="middle" x="194.94" y="-138.8" font-family="Times New Roman,serif" font-size="14.00">SB_DFFR</text>
<polyline fill="none" stroke="black" points="258.94,-115.5 258.94,-184.5 "/>
<text text-anchor="middle" x="272.44" y="-146.3" font-family="Times New Roman,serif" font-size="14.00">Q</text>
</g>
<!-- n1&#45;&gt;c18 -->
<g id="edge1" class="edge">
<title>n1:e&#45;&gt;c18:w</title>
<path fill="none" stroke="#66a61e" d="M68.94,-123C81.02,-123 86.17,-125.25 94.79,-126.38"/>
<polygon fill="#66a61e" stroke="#66a61e" points="94.75,-129.88 104.94,-127 95.18,-122.89 94.75,-129.88"/>
</g>
<!-- n2 -->
<g id="node2" class="node">
<title>n2</title>
<polygon fill="none" stroke="black" points="61.47,-169.54 61.47,-184.46 45.65,-195 23.29,-195 7.47,-184.46 7.47,-169.54 23.29,-159 45.65,-159 61.47,-169.54"/>
<text text-anchor="middle" x="34.47" y="-173.3" font-family="Times New Roman,serif" font-size="14.00">clk</text>
</g>
<!-- n2&#45;&gt;c18 -->
<g id="edge2" class="edge">
<title>n2:e&#45;&gt;c18:w</title>
<path fill="none" stroke="#1b9e77" d="M62.47,-177C77.58,-177 83.54,-174.46 94.93,-173.43"/>
<polygon fill="#1b9e77" stroke="#1b9e77" points="95.1,-176.92 104.94,-173 94.8,-169.93 95.1,-176.92"/>
</g>
<!-- n3 -->
<g id="node3" class="node">
<title>n3</title>
<polygon fill="none" stroke="black" points="61.47,-223.54 61.47,-238.46 45.65,-249 23.29,-249 7.47,-238.46 7.47,-223.54 23.29,-213 45.65,-213 61.47,-223.54"/>
<text text-anchor="middle" x="34.47" y="-227.3" font-family="Times New Roman,serif" font-size="14.00">j</text>
</g>
<!-- c13 -->
<g id="node9" class="node">
<title>c13</title>
<polygon fill="none" stroke="black" points="435.15,-155 435.15,-247 647.15,-247 647.15,-155 435.15,-155"/>
<text text-anchor="middle" x="449.15" y="-231.8" font-family="Times New Roman,serif" font-size="14.00">I0</text>
<polyline fill="none" stroke="black" points="435.15,-224 463.15,-224 "/>
<text text-anchor="middle" x="449.15" y="-208.8" font-family="Times New Roman,serif" font-size="14.00">I1</text>
<polyline fill="none" stroke="black" points="435.15,-201 463.15,-201 "/>
<text text-anchor="middle" x="449.15" y="-185.8" font-family="Times New Roman,serif" font-size="14.00">I2</text>
<polyline fill="none" stroke="black" points="435.15,-178 463.15,-178 "/>
<text text-anchor="middle" x="449.15" y="-162.8" font-family="Times New Roman,serif" font-size="14.00">I3</text>
<polyline fill="none" stroke="black" points="463.15,-155 463.15,-247 "/>
<text text-anchor="middle" x="541.65" y="-204.8" font-family="Times New Roman,serif" font-size="14.00">next_state_SB_LUT4_O</text>
<text text-anchor="middle" x="541.65" y="-189.8" font-family="Times New Roman,serif" font-size="14.00">SB_LUT4</text>
<polyline fill="none" stroke="black" points="620.15,-155 620.15,-247 "/>
<text text-anchor="middle" x="633.65" y="-197.3" font-family="Times New Roman,serif" font-size="14.00">O</text>
</g>
<!-- n3&#45;&gt;c13 -->
<g id="edge3" class="edge">
<title>n3:e&#45;&gt;c13:w</title>
<path fill="none" stroke="#1b9e77" d="M62.47,-231C224.9,-231 267.59,-213.73 425.1,-213.02"/>
<polygon fill="#1b9e77" stroke="#1b9e77" points="425.16,-216.52 435.15,-213 425.14,-209.52 425.16,-216.52"/>
</g>
<!-- n4 -->
<g id="node4" class="node">
<title>n4</title>
<polygon fill="none" stroke="black" points="61.47,-61.54 61.47,-76.46 45.65,-87 23.29,-87 7.47,-76.46 7.47,-61.54 23.29,-51 45.65,-51 61.47,-61.54"/>
<text text-anchor="middle" x="34.47" y="-65.3" font-family="Times New Roman,serif" font-size="14.00">k</text>
</g>
<!-- n4&#45;&gt;c13 -->
<g id="edge4" class="edge">
<title>n4:e&#45;&gt;c13:w</title>
<path fill="none" stroke="#7570b3" d="M62.47,-69C163.14,-69 190.89,-72.82 285.94,-106 354.23,-129.84 358.96,-183.64 424.95,-188.63"/>
<polygon fill="#7570b3" stroke="#7570b3" points="425.03,-192.13 435.15,-189 425.29,-185.14 425.03,-192.13"/>
</g>
<!-- n5 -->
<g id="node5" class="node">
<title>n5</title>
<polygon fill="none" stroke="black" points="750.25,-271 683.05,-253 750.25,-235 817.45,-253 750.25,-271"/>
<text text-anchor="middle" x="750.25" y="-249.3" font-family="Times New Roman,serif" font-size="14.00">next_state</text>
</g>
<!-- n5&#45;&gt;c18 -->
<g id="edge6" class="edge">
<title>n5:e&#45;&gt;c18:w</title>
<path fill="none" stroke="#e7298a" d="M818.25,-253C826.26,-253 822.97,-265.39 817.25,-271 684.49,-401.18 585.06,-282.67 399.15,-286 364.84,-286.62 355.45,-293.4 321.94,-286 217.87,-263.01 163.06,-274.02 104.44,-185 98.56,-176.06 92.94,-162.87 95.05,-155.5"/>
<polygon fill="#e7298a" stroke="#e7298a" points="97,-158.41 103.44,-150 93.16,-152.56 97,-158.41"/>
</g>
<!-- n6 -->
<g id="node6" class="node">
<title>n6</title>
<polygon fill="none" stroke="black" points="907.35,-33.54 907.35,-48.46 891.53,-59 869.16,-59 853.35,-48.46 853.35,-33.54 869.16,-23 891.53,-23 907.35,-33.54"/>
<text text-anchor="middle" x="880.35" y="-37.3" font-family="Times New Roman,serif" font-size="14.00">out</text>
</g>
<!-- n7 -->
<g id="node7" class="node">
<title>n7</title>
<polygon fill="none" stroke="black" points="360.55,-59 321.84,-41 360.55,-23 399.26,-41 360.55,-59"/>
<text text-anchor="middle" x="360.55" y="-37.3" font-family="Times New Roman,serif" font-size="14.00">state</text>
</g>
<!-- n7&#45;&gt;c13 -->
<g id="edge9" class="edge">
<title>n7:e&#45;&gt;c13:w</title>
<path fill="none" stroke="#7570b3" d="M399.15,-41C452.9,-41 387.86,-149.04 424.9,-164.23"/>
<polygon fill="#7570b3" stroke="#7570b3" points="424.7,-167.75 435.15,-166 425.89,-160.85 424.7,-167.75"/>
</g>
<!-- x1 -->
<g id="node11" class="node">
<title>x1</title>
<path fill="none" stroke="black" d="M765.25,-59C765.25,-59 735.25,-59 735.25,-59 729.25,-59 723.25,-53 723.25,-47 723.25,-47 723.25,-35 723.25,-35 723.25,-29 729.25,-23 735.25,-23 735.25,-23 765.25,-23 765.25,-23 771.25,-23 777.25,-29 777.25,-35 777.25,-35 777.25,-47 777.25,-47 777.25,-53 771.25,-59 765.25,-59"/>
<text text-anchor="middle" x="750.25" y="-37.3" font-family="Times New Roman,serif" font-size="14.00">BUF</text>
</g>
<!-- n7&#45;&gt;x1 -->
<g id="edge10" class="edge">
<title>n7:e&#45;&gt;x1:w</title>
<path fill="none" stroke="#7570b3" d="M399.15,-41C539.24,-41 576.83,-41 711.92,-41"/>
<polygon fill="#7570b3" stroke="#7570b3" points="712.25,-44.5 722.25,-41 712.25,-37.5 712.25,-44.5"/>
</g>
<!-- v0 -->
<g id="node8" class="node">
<title>v0</title>
<ellipse fill="none" stroke="black" cx="360.55" cy="-259" rx="27" ry="18"/>
<text text-anchor="middle" x="360.55" y="-255.3" font-family="Times New Roman,serif" font-size="14.00">1&#39;0</text>
</g>
<!-- v0&#45;&gt;c13 -->
<g id="edge11" class="edge">
<title>v0:e&#45;&gt;c13:w</title>
<path fill="none" stroke="#d95f02" d="M388.55,-259C407.68,-259 411.24,-243.23 425.02,-237.8"/>
<polygon fill="#d95f02" stroke="#d95f02" points="425.92,-241.2 435.15,-236 424.69,-234.31 425.92,-241.2"/>
</g>
<!-- c13&#45;&gt;n5 -->
<g id="edge5" class="edge">
<title>c13:e&#45;&gt;n5:w</title>
<path fill="none" stroke="#e7298a" d="M647.15,-201C671.09,-201 659.98,-238.71 673.51,-249.9"/>
<polygon fill="#e7298a" stroke="#e7298a" points="672.56,-253.27 683.15,-253 674.7,-246.61 672.56,-253.27"/>
</g>
<!-- c18&#45;&gt;n7 -->
<g id="edge8" class="edge">
<title>c18:e&#45;&gt;n7:w</title>
<path fill="none" stroke="#7570b3" d="M285.94,-150C332.97,-150 280.53,-57.37 312.02,-42.89"/>
<polygon fill="#7570b3" stroke="#7570b3" points="312.77,-46.31 321.94,-41 311.46,-39.43 312.77,-46.31"/>
</g>
<!-- x1&#45;&gt;n6 -->
<g id="edge7" class="edge">
<title>x1:e&#45;&gt;n6:w</title>
<path fill="none" stroke="#e7298a" d="M778.25,-41C807.98,-41 817.85,-41 843.23,-41"/>
<polygon fill="#e7298a" stroke="#e7298a" points="843.35,-44.5 853.35,-41 843.35,-37.5 843.35,-44.5"/>
</g>
</g>
</svg>
