<svg xmlns="http://www.w3.org/2000/svg" xmlns:xlink="http://www.w3.org/1999/xlink" xmlns:s="https://github.com/nturley/netlistsvg" width="697" height="356">
  <style>svg {
    stroke:#000;
    fill:none;
  }
  text {
    fill:#000;
    stroke:none;
    font-size:10px;
    font-weight: bold;
    font-family: "Courier New", monospace;
  }
  .nodelabel {
    text-anchor: middle;
  }
  .inputPortLabel {
    text-anchor: end;
  }
  .splitjoinBody {
    fill:#000;
  }</style>
  <g s:type="generic" transform="translate(406,306)" s:width="30" s:height="40" id="cell_$auto$opt_reduce.cc:128:opt_mux$12">
    <text x="15" y="-4" class="nodelabel cell_$auto$opt_reduce.cc:128:opt_mux$12" s:attribute="ref">$reduce_or</text>
    <rect width="30" height="20" s:generic="body" class="cell_$auto$opt_reduce.cc:128:opt_mux$12"/>
    <g transform="translate(0,10)" s:x="0" s:y="10" s:pid="in0" id="port_$auto$opt_reduce.cc:128:opt_mux$12~A">
      <text x="-3" y="-4" class="inputPortLabel cell_$auto$opt_reduce.cc:128:opt_mux$12">A</text>
    </g>
    <g transform="translate(30,10)" s:x="30" s:y="10" s:pid="out0" id="port_$auto$opt_reduce.cc:128:opt_mux$12~Y">
      <text x="5" y="-4" style="fill:#000; stroke:none" class="cell_$auto$opt_reduce.cc:128:opt_mux$12">Y</text>
    </g>
  </g>
  <g s:type="generic" transform="translate(108,74.5)" s:width="30" s:height="40" id="cell_$procdff$11">
    <text x="15" y="-4" class="nodelabel cell_$procdff$11" s:attribute="ref">$adff</text>
    <rect width="30" height="60" s:generic="body" class="cell_$procdff$11"/>
    <g transform="translate(0,10)" s:x="0" s:y="10" s:pid="in0" id="port_$procdff$11~ARST">
      <text x="-3" y="-4" class="inputPortLabel cell_$procdff$11">ARST</text>
    </g>
    <g transform="translate(0,30)" s:x="0" s:y="10" s:pid="in0" id="port_$procdff$11~CLK">
      <text x="-3" y="-4" class="inputPortLabel cell_$procdff$11">CLK</text>
    </g>
    <g transform="translate(0,50)" s:x="0" s:y="10" s:pid="in0" id="port_$procdff$11~D">
      <text x="-3" y="-4" class="inputPortLabel cell_$procdff$11">D</text>
    </g>
    <g transform="translate(30,10)" s:x="30" s:y="10" s:pid="out0" id="port_$procdff$11~Q">
      <text x="5" y="-4" style="fill:#000; stroke:none" class="cell_$procdff$11">Q</text>
    </g>
  </g>
  <g s:type="eq" transform="translate(274,314)" s:width="25" s:height="25" id="cell_$procmux$10_CMP0">
    <s:alias val="$eq"/>
    <circle r="12.5" cx="12.5" cy="12.5" class="cell_$procmux$10_CMP0"/>
    <line x1="7.5" x2="17.5" y1="10" y2="10" class="cell_$procmux$10_CMP0"/>
    <line x1="7.5" x2="17.5" y1="15" y2="15" class="cell_$procmux$10_CMP0"/>
    <g s:x="3" s:y="5" s:pid="A"/>
    <g s:x="3" s:y="20" s:pid="B"/>
    <g s:x="25" s:y="12.5" s:pid="Y"/>
  </g>
  <g s:type="mux" transform="translate(465,34)" s:width="20" s:height="40" id="cell_$procmux$5">
    <s:alias val="$pmux"/>
    <s:alias val="$mux"/>
    <s:alias val="$_MUX_"/>
    <path d="M0,0 L20,10 L20,30 L0,40 Z" class="cell_$procmux$5"/>
    <g s:x="0" s:y="10" s:pid="A"/>
    <g s:x="0" s:y="30" s:pid="B"/>
    <g s:x="10" s:y="35" s:pid="S"/>
    <g s:x="20" s:y="20" s:pid="Y"/>
  </g>
  <g s:type="mux" transform="translate(645,99)" s:width="20" s:height="40" id="cell_$procmux$8">
    <s:alias val="$pmux"/>
    <s:alias val="$mux"/>
    <s:alias val="$_MUX_"/>
    <path d="M0,0 L20,10 L20,30 L0,40 Z" class="cell_$procmux$8"/>
    <g s:x="0" s:y="10" s:pid="A"/>
    <g s:x="0" s:y="30" s:pid="B"/>
    <g s:x="10" s:y="35" s:pid="S"/>
    <g s:x="20" s:y="20" s:pid="Y"/>
  </g>
  <g s:type="eq" transform="translate(274,177.5)" s:width="25" s:height="25" id="cell_$procmux$9_CMP0">
    <s:alias val="$eq"/>
    <circle r="12.5" cx="12.5" cy="12.5" class="cell_$procmux$9_CMP0"/>
    <line x1="7.5" x2="17.5" y1="10" y2="10" class="cell_$procmux$9_CMP0"/>
    <line x1="7.5" x2="17.5" y1="15" y2="15" class="cell_$procmux$9_CMP0"/>
    <g s:x="3" s:y="5" s:pid="A"/>
    <g s:x="3" s:y="20" s:pid="B"/>
    <g s:x="25" s:y="12.5" s:pid="Y"/>
  </g>
  <g s:type="inputExt" transform="translate(12,95)" s:width="30" s:height="20" id="cell_clk">
    <text x="15" y="-4" class="nodelabel cell_clk" s:attribute="ref">clk</text>
    <s:alias val="$_inputExt_"/>
    <path d="M0,0 L0,20 L15,20 L30,10 L15,0 Z" class="cell_clk"/>
    <g s:x="28" s:y="10" s:pid="Y"/>
  </g>
  <g s:type="inputExt" transform="translate(12,30)" s:width="30" s:height="20" id="cell_areset">
    <text x="15" y="-4" class="nodelabel cell_areset" s:attribute="ref">areset</text>
    <s:alias val="$_inputExt_"/>
    <path d="M0,0 L0,20 L15,20 L30,10 L15,0 Z" class="cell_areset"/>
    <g s:x="28" s:y="10" s:pid="Y"/>
  </g>
  <g s:type="inputExt" transform="translate(108,259.5)" s:width="30" s:height="20" id="cell_j">
    <text x="15" y="-4" class="nodelabel cell_j" s:attribute="ref">j</text>
    <s:alias val="$_inputExt_"/>
    <path d="M0,0 L0,20 L15,20 L30,10 L15,0 Z" class="cell_j"/>
    <g s:x="28" s:y="10" s:pid="Y"/>
  </g>
  <g s:type="inputExt" transform="translate(108,182.5)" s:width="30" s:height="20" id="cell_k">
    <text x="15" y="-4" class="nodelabel cell_k" s:attribute="ref">k</text>
    <s:alias val="$_inputExt_"/>
    <path d="M0,0 L0,20 L15,20 L30,10 L15,0 Z" class="cell_k"/>
    <g s:x="28" s:y="10" s:pid="Y"/>
  </g>
  <g s:type="outputExt" transform="translate(645,44)" s:width="30" s:height="20" id="cell_out">
    <text x="15" y="-4" class="nodelabel cell_out" s:attribute="ref">out</text>
    <s:alias val="$_outputExt_"/>
    <path d="M30,0 L30,20 L15,20 L0,10 L15,0 Z" class="cell_out"/>
    <g s:x="0" s:y="10" s:pid="A"/>
  </g>
  <g s:type="constant" transform="translate(209,324)" s:width="30" s:height="20" id="cell_10">
    <text x="15" y="-4" class="nodelabel cell_10" s:attribute="ref">10</text>
    <s:alias val="$_constant_"/>
    <rect width="30" height="20" class="cell_10"/>
    <g s:x="30" s:y="10" s:pid="Y"/>
  </g>
  <g s:type="constant" transform="translate(334,34)" s:width="30" s:height="20" id="cell_0">
    <text x="15" y="-4" class="nodelabel cell_0" s:attribute="ref">0</text>
    <s:alias val="$_constant_"/>
    <rect width="30" height="20" class="cell_0"/>
    <g s:x="30" s:y="10" s:pid="Y"/>
  </g>
  <g s:type="constant" transform="translate(209,119)" s:width="30" s:height="20" id="cell_1">
    <text x="15" y="-4" class="nodelabel cell_1" s:attribute="ref">1</text>
    <s:alias val="$_constant_"/>
    <rect width="30" height="20" class="cell_1"/>
    <g s:x="30" s:y="10" s:pid="Y"/>
  </g>
  <g s:type="join" transform="translate(345,296)" s:width="4" s:height="40" id="cell_$join$,7,8,">
    <rect width="5" height="40" class="splitjoinBody" s:generic="body"/>
    <s:alias val="$_join_"/>
    <g s:x="5" s:y="20" s:pid="out"/>
    <g transform="translate(0,10)" s:x="0" s:y="10" s:pid="in0">
      <text x="-3" y="-4" class="inputPortLabel">0</text>
    </g>
    <g transform="translate(0,30)" s:x="0" s:y="10" s:pid="in0">
      <text x="-3" y="-4" class="inputPortLabel">1</text>
    </g>
  </g>
  <g s:type="join" transform="translate(220,239)" s:width="4" s:height="40" id="cell_$join$,11,4,">
    <rect width="5" height="40" class="splitjoinBody" s:generic="body"/>
    <s:alias val="$_join_"/>
    <g s:x="5" s:y="20" s:pid="out"/>
    <g transform="translate(0,10)" s:x="0" s:y="10" s:pid="in0">
      <text x="-3" y="-4" class="inputPortLabel">0</text>
    </g>
    <g transform="translate(0,30)" s:x="0" s:y="10" s:pid="in0">
      <text x="-3" y="-4" class="inputPortLabel">1</text>
    </g>
  </g>
  <g s:type="join" transform="translate(220,162)" s:width="4" s:height="40" id="cell_$join$,11,5,">
    <rect width="5" height="40" class="splitjoinBody" s:generic="body"/>
    <s:alias val="$_join_"/>
    <g s:x="5" s:y="20" s:pid="out"/>
    <g transform="translate(0,10)" s:x="0" s:y="10" s:pid="in0">
      <text x="-3" y="-4" class="inputPortLabel">0</text>
    </g>
    <g transform="translate(0,30)" s:x="0" s:y="10" s:pid="in0">
      <text x="-3" y="-4" class="inputPortLabel">1</text>
    </g>
  </g>
  <line x1="351" x2="406" y1="316.5" y2="316.5" class="net_7,8"/>
  <line x1="40" x2="68" y1="40" y2="40" class="net_3"/>
  <line x1="68" x2="68" y1="40" y2="85" class="net_3"/>
  <line x1="68" x2="108" y1="85" y2="85" class="net_3"/>
  <line x1="40" x2="108" y1="105" y2="105" class="net_2"/>
  <line x1="665" x2="685" y1="119" y2="119" class="net_10"/>
  <line x1="685" x2="685" y1="119" y2="12" class="net_10"/>
  <line x1="685" x2="58" y1="12" y2="12" class="net_10"/>
  <line x1="58" x2="58" y1="12" y2="125" class="net_10"/>
  <line x1="58" x2="108" y1="125" y2="125" class="net_10"/>
  <line x1="226" x2="249" y1="259.5" y2="259.5" class="net_11,4"/>
  <line x1="249" x2="249" y1="259.5" y2="319" class="net_11,4"/>
  <line x1="249" x2="277" y1="319" y2="319" class="net_11,4"/>
  <line x1="239" x2="277" y1="334" y2="334" class="net_12,13"/>
  <line x1="364" x2="465" y1="44" y2="44" class="net_14"/>
  <line x1="364" x2="374" y1="44" y2="44" class="net_14"/>
  <line x1="374" x2="374" y1="44" y2="23" class="net_14"/>
  <line x1="374" x2="620" y1="23" y2="23" class="net_14"/>
  <line x1="620" x2="620" y1="23" y2="109" class="net_14"/>
  <circle cx="374" cy="44" r="2" style="fill:#000" class="net_14"/>
  <line x1="620" x2="645" y1="109" y2="109" class="net_14"/>
  <line x1="239" x2="374" y1="129" y2="129" class="net_15"/>
  <line x1="374" x2="374" y1="129" y2="64" class="net_15"/>
  <circle cx="374" cy="129" r="2" style="fill:#000" class="net_15"/>
  <line x1="374" x2="465" y1="64" y2="64" class="net_15"/>
  <line x1="239" x2="645" y1="129" y2="129" class="net_15"/>
  <line x1="239" x2="249" y1="129" y2="129" class="net_15"/>
  <line x1="249" x2="249" y1="129" y2="197.5" class="net_15"/>
  <circle cx="249" cy="129" r="2" style="fill:#000" class="net_15"/>
  <line x1="249" x2="277" y1="197.5" y2="197.5" class="net_15"/>
  <line x1="139" x2="184" y1="85" y2="85" class="net_11"/>
  <line x1="184" x2="184" y1="85" y2="149" class="net_11"/>
  <line x1="184" x2="475" y1="149" y2="149" class="net_11"/>
  <circle cx="184" cy="149" r="2" style="fill:#000" class="net_11"/>
  <line x1="475" x2="475" y1="149" y2="69" class="net_11"/>
  <line x1="139" x2="184" y1="85" y2="85" class="net_11"/>
  <line x1="184" x2="184" y1="85" y2="249.5" class="net_11"/>
  <line x1="184" x2="220" y1="249.5" y2="249.5" class="net_11"/>
  <line x1="139" x2="184" y1="85" y2="85" class="net_11"/>
  <line x1="184" x2="184" y1="85" y2="172.5" class="net_11"/>
  <circle cx="184" cy="172.5" r="2" style="fill:#000" class="net_11"/>
  <line x1="184" x2="220" y1="172.5" y2="172.5" class="net_11"/>
  <line x1="437" x2="655" y1="316.5" y2="316.5" class="net_9"/>
  <line x1="655" x2="655" y1="316.5" y2="134" class="net_9"/>
  <line x1="226" x2="277" y1="182.5" y2="182.5" class="net_11,5"/>
  <line x1="485" x2="645" y1="54" y2="54" class="net_6"/>
  <line x1="299" x2="309" y1="190" y2="190" class="net_7"/>
  <line x1="309" x2="309" y1="190" y2="306.5" class="net_7"/>
  <line x1="309" x2="345" y1="306.5" y2="306.5" class="net_7"/>
  <line x1="299" x2="345" y1="326.5" y2="326.5" class="net_8"/>
  <line x1="136" x2="220" y1="269.5" y2="269.5" class="net_4"/>
  <line x1="136" x2="220" y1="192.5" y2="192.5" class="net_5"/>
</svg>
