<?xml version="1.0" encoding="UTF-8" standalone="no"?>
<!DOCTYPE svg PUBLIC "-//W3C//DTD SVG 1.1//EN"
 "http://www.w3.org/Graphics/SVG/1.1/DTD/svg11.dtd">
<!-- Generated by graphviz version 4.0.0 (20220529.0937)
 -->
<!-- Title: top_module Pages: 1 -->
<svg width="1247pt" height="301pt"
 viewBox="0.00 0.00 1246.77 301.00" xmlns="http://www.w3.org/2000/svg" xmlns:xlink="http://www.w3.org/1999/xlink">
<g id="graph0" class="graph" transform="scale(1 1) rotate(0) translate(4 297)">
<title>top_module</title>
<polygon fill="white" stroke="transparent" points="-4,4 -4,-297 1242.77,-297 1242.77,4 -4,4"/>
<text text-anchor="middle" x="619.38" y="-7.8" font-family="Times New Roman,serif" font-size="14.00">top_module</text>
<!-- n2 -->
<g id="node1" class="node">
<title>n2</title>
<polygon fill="none" stroke="black" points="57.25,-207.54 57.25,-222.46 41.43,-233 19.07,-233 3.25,-222.46 3.25,-207.54 19.07,-197 41.43,-197 57.25,-207.54"/>
<text text-anchor="middle" x="30.25" y="-211.3" font-family="Times New Roman,serif" font-size="14.00">clk</text>
</g>
<!-- c12 -->
<g id="node8" class="node">
<title>c12</title>
<polygon fill="none" stroke="black" points="97.5,-134 97.5,-226 341.5,-226 341.5,-134 97.5,-134"/>
<text text-anchor="middle" x="134" y="-210.8" font-family="Times New Roman,serif" font-size="14.00">clk</text>
<polyline fill="none" stroke="black" points="97.5,-203 170.5,-203 "/>
<text text-anchor="middle" x="134" y="-187.8" font-family="Times New Roman,serif" font-size="14.00">in</text>
<polyline fill="none" stroke="black" points="97.5,-180 170.5,-180 "/>
<text text-anchor="middle" x="134" y="-164.8" font-family="Times New Roman,serif" font-size="14.00">next_state</text>
<polyline fill="none" stroke="black" points="97.5,-157 170.5,-157 "/>
<text text-anchor="middle" x="134" y="-141.8" font-family="Times New Roman,serif" font-size="14.00">reset</text>
<polyline fill="none" stroke="black" points="170.5,-134 170.5,-226 "/>
<text text-anchor="middle" x="235" y="-183.8" font-family="Times New Roman,serif" font-size="14.00">st</text>
<text text-anchor="middle" x="235" y="-168.8" font-family="Times New Roman,serif" font-size="14.00">fsm_state_transition</text>
<polyline fill="none" stroke="black" points="299.5,-134 299.5,-226 "/>
<text text-anchor="middle" x="320.5" y="-207.3" font-family="Times New Roman,serif" font-size="14.00">bits</text>
<polyline fill="none" stroke="black" points="299.5,-196 341.5,-196 "/>
<text text-anchor="middle" x="320.5" y="-176.8" font-family="Times New Roman,serif" font-size="14.00">data</text>
<polyline fill="none" stroke="black" points="299.5,-165 341.5,-165 "/>
<text text-anchor="middle" x="320.5" y="-145.8" font-family="Times New Roman,serif" font-size="14.00">state</text>
</g>
<!-- n2&#45;&gt;c12 -->
<g id="edge2" class="edge">
<title>n2:e&#45;&gt;c12:w</title>
<path fill="none" stroke="#666666" d="M58.25,-215C71.74,-215 77.41,-215 87.35,-215"/>
<polygon fill="#666666" stroke="#666666" points="87.5,-218.5 97.5,-215 87.5,-211.5 87.5,-218.5"/>
</g>
<!-- n5 -->
<g id="node2" class="node">
<title>n5</title>
<polygon fill="none" stroke="black" points="57.25,-130.54 57.25,-145.46 41.43,-156 19.07,-156 3.25,-145.46 3.25,-130.54 19.07,-120 41.43,-120 57.25,-130.54"/>
<text text-anchor="middle" x="30.25" y="-134.3" font-family="Times New Roman,serif" font-size="14.00">in</text>
</g>
<!-- c10 -->
<g id="node7" class="node">
<title>c10</title>
<polygon fill="none" stroke="black" points="552.71,-39.5 552.71,-108.5 768.71,-108.5 768.71,-39.5 552.71,-39.5"/>
<text text-anchor="middle" x="573.71" y="-93.3" font-family="Times New Roman,serif" font-size="14.00">bits</text>
<polyline fill="none" stroke="black" points="552.71,-85.5 594.71,-85.5 "/>
<text text-anchor="middle" x="573.71" y="-70.3" font-family="Times New Roman,serif" font-size="14.00">in</text>
<polyline fill="none" stroke="black" points="552.71,-62.5 594.71,-62.5 "/>
<text text-anchor="middle" x="573.71" y="-47.3" font-family="Times New Roman,serif" font-size="14.00">state</text>
<polyline fill="none" stroke="black" points="594.71,-39.5 594.71,-108.5 "/>
<text text-anchor="middle" x="645.21" y="-77.8" font-family="Times New Roman,serif" font-size="14.00">ns</text>
<text text-anchor="middle" x="645.21" y="-62.8" font-family="Times New Roman,serif" font-size="14.00">fsm_next_state</text>
<polyline fill="none" stroke="black" points="695.71,-39.5 695.71,-108.5 "/>
<text text-anchor="middle" x="732.21" y="-70.3" font-family="Times New Roman,serif" font-size="14.00">next_state</text>
</g>
<!-- n5&#45;&gt;c10 -->
<g id="edge4" class="edge">
<title>n5:e&#45;&gt;c10:w</title>
<path fill="none" stroke="#a6761d" d="M58.25,-138C76.63,-138 79.55,-128.93 97.5,-125 293.06,-82.15 347.34,-74.26 542.69,-74.01"/>
<polygon fill="#a6761d" stroke="#a6761d" points="542.71,-77.51 552.71,-74 542.71,-70.51 542.71,-77.51"/>
</g>
<!-- n5&#45;&gt;c12 -->
<g id="edge5" class="edge">
<title>n5:e&#45;&gt;c12:w</title>
<path fill="none" stroke="#a6761d" d="M58.25,-138C83.75,-138 72.5,-177.88 87.66,-189.1"/>
<polygon fill="#a6761d" stroke="#a6761d" points="86.92,-192.53 97.5,-192 88.9,-185.81 86.92,-192.53"/>
</g>
<!-- n8 -->
<g id="node3" class="node">
<title>n8</title>
<polygon fill="none" stroke="black" points="60.25,-33.54 60.25,-48.46 42.68,-59 17.82,-59 0.25,-48.46 0.25,-33.54 17.82,-23 42.68,-23 60.25,-33.54"/>
<text text-anchor="middle" x="30.25" y="-37.3" font-family="Times New Roman,serif" font-size="14.00">reset</text>
</g>
<!-- n8&#45;&gt;c12 -->
<g id="edge7" class="edge">
<title>n8:e&#45;&gt;c12:w</title>
<path fill="none" stroke="#7570b3" d="M60.5,-41C105.54,-41 57.73,-128.64 87.53,-143.02"/>
<polygon fill="#7570b3" stroke="#7570b3" points="87.01,-146.48 97.5,-145 88.38,-139.62 87.01,-146.48"/>
</g>
<!-- n4 -->
<g id="node4" class="node">
<title>n4</title>
<polygon fill="none" stroke="black" points="1223.24,-234.54 1223.24,-249.46 1205.14,-260 1179.53,-260 1161.43,-249.46 1161.43,-234.54 1179.53,-224 1205.14,-224 1223.24,-234.54"/>
<text text-anchor="middle" x="1192.34" y="-238.3" font-family="Times New Roman,serif" font-size="14.00">done</text>
</g>
<!-- n7 -->
<g id="node5" class="node">
<title>n7</title>
<polygon fill="none" stroke="black" points="1238.7,-191.54 1238.7,-206.46 1211.54,-217 1173.13,-217 1145.98,-206.46 1145.98,-191.54 1173.13,-181 1211.54,-181 1238.7,-191.54"/>
<text text-anchor="middle" x="1192.34" y="-195.3" font-family="Times New Roman,serif" font-size="14.00">out_byte</text>
</g>
<!-- n1 -->
<g id="node6" class="node">
<title>n1</title>
<polygon fill="none" stroke="black" points="447.1,-293 413.09,-275 447.1,-257 481.12,-275 447.1,-293"/>
<text text-anchor="middle" x="447.1" y="-271.3" font-family="Times New Roman,serif" font-size="14.00">bits</text>
</g>
<!-- n1&#45;&gt;c10 -->
<g id="edge1" class="edge">
<title>n1:e&#45;&gt;c10:w</title>
<path fill="none" stroke="#666666" stroke-width="3" d="M482.1,-275C510.87,-275 486.62,-237.13 503.71,-214 513.91,-200.2 525.58,-205.53 534.71,-191 544.08,-176.09 535.69,-121.41 544.61,-103.05"/>
<polygon fill="#666666" stroke="#666666" stroke-width="3" points="546.79,-105.79 552.71,-97 542.6,-100.18 546.79,-105.79"/>
<text text-anchor="middle" x="519.21" y="-217.8" font-family="Times New Roman,serif" font-size="14.00" fill="#666666">&lt;5&gt;</text>
</g>
<!-- n6 -->
<g id="node11" class="node">
<title>n6</title>
<polygon fill="none" stroke="black" points="1060.81,-156 993.61,-138 1060.81,-120 1128.01,-138 1060.81,-156"/>
<text text-anchor="middle" x="1060.81" y="-134.3" font-family="Times New Roman,serif" font-size="14.00">next_state</text>
</g>
<!-- c10&#45;&gt;n6 -->
<g id="edge10" class="edge">
<title>c10:e&#45;&gt;n6:w</title>
<path fill="none" stroke="#e7298a" stroke-width="3" d="M768.71,-74C869.22,-74 888.51,-133.82 983.63,-137.79"/>
<polygon fill="#e7298a" stroke="#e7298a" stroke-width="3" points="983.64,-141.29 993.71,-138 983.78,-134.3 983.64,-141.29"/>
<text text-anchor="middle" x="881.21" y="-139.8" font-family="Times New Roman,serif" font-size="14.00" fill="#e7298a">&lt;3&gt;</text>
</g>
<!-- c12&#45;&gt;n1 -->
<g id="edge13" class="edge">
<title>c12:e&#45;&gt;n1:w</title>
<path fill="none" stroke="#666666" stroke-width="3" d="M341.5,-211C352.81,-211 351.24,-221.27 359.5,-229 379.44,-247.65 380.97,-269.05 402.14,-273.96"/>
<polygon fill="#666666" stroke="#666666" stroke-width="3" points="401.8,-277.44 412.1,-275 402.52,-270.48 401.8,-277.44"/>
<text text-anchor="middle" x="375" y="-271.8" font-family="Times New Roman,serif" font-size="14.00" fill="#666666">&lt;5&gt;</text>
</g>
<!-- n3 -->
<g id="node9" class="node">
<title>n3</title>
<polygon fill="none" stroke="black" points="447.1,-239 410.57,-221 447.1,-203 483.64,-221 447.1,-239"/>
<text text-anchor="middle" x="447.1" y="-217.3" font-family="Times New Roman,serif" font-size="14.00">data</text>
</g>
<!-- c12&#45;&gt;n3 -->
<g id="edge14" class="edge">
<title>c12:e&#45;&gt;n3:w</title>
<path fill="none" stroke="#666666" stroke-width="3" d="M341.5,-181C348.52,-181 382.37,-206.9 399.87,-217.02"/>
<polygon fill="#666666" stroke="#666666" stroke-width="3" points="398.54,-220.26 409.1,-221 401.31,-213.83 398.54,-220.26"/>
<text text-anchor="middle" x="375" y="-213.8" font-family="Times New Roman,serif" font-size="14.00" fill="#666666">&lt;10&gt;</text>
</g>
<!-- n9 -->
<g id="node12" class="node">
<title>n9</title>
<polygon fill="none" stroke="black" points="447.1,-147 408.4,-129 447.1,-111 485.81,-129 447.1,-147"/>
<text text-anchor="middle" x="447.1" y="-125.3" font-family="Times New Roman,serif" font-size="14.00">state</text>
</g>
<!-- c12&#45;&gt;n9 -->
<g id="edge15" class="edge">
<title>c12:e&#45;&gt;n9:w</title>
<path fill="none" stroke="#e7298a" stroke-width="3" d="M341.5,-149C354.25,-149 380.71,-135.54 398.39,-130.71"/>
<polygon fill="#e7298a" stroke="#e7298a" stroke-width="3" points="399.22,-134.11 408.5,-129 398.06,-127.21 399.22,-134.11"/>
<text text-anchor="middle" x="375" y="-147.8" font-family="Times New Roman,serif" font-size="14.00" fill="#e7298a">&lt;3&gt;</text>
</g>
<!-- c11 -->
<g id="node10" class="node">
<title>c11</title>
<polygon fill="none" stroke="black" points="786.71,-195 786.71,-241 975.71,-241 975.71,-195 786.71,-195"/>
<text text-anchor="middle" x="807.71" y="-225.8" font-family="Times New Roman,serif" font-size="14.00">data</text>
<polyline fill="none" stroke="black" points="786.71,-218 828.71,-218 "/>
<text text-anchor="middle" x="807.71" y="-202.8" font-family="Times New Roman,serif" font-size="14.00">state</text>
<polyline fill="none" stroke="black" points="828.71,-195 828.71,-241 "/>
<text text-anchor="middle" x="869.21" y="-221.8" font-family="Times New Roman,serif" font-size="14.00">o</text>
<text text-anchor="middle" x="869.21" y="-206.8" font-family="Times New Roman,serif" font-size="14.00">fsm_output</text>
<polyline fill="none" stroke="black" points="909.71,-195 909.71,-241 "/>
<text text-anchor="middle" x="942.71" y="-225.8" font-family="Times New Roman,serif" font-size="14.00">done</text>
<polyline fill="none" stroke="black" points="909.71,-218 975.71,-218 "/>
<text text-anchor="middle" x="942.71" y="-202.8" font-family="Times New Roman,serif" font-size="14.00">out_byte</text>
</g>
<!-- n3&#45;&gt;c11 -->
<g id="edge3" class="edge">
<title>n3:e&#45;&gt;c11:w</title>
<path fill="none" stroke="#666666" stroke-width="3" d="M485.1,-221C494.11,-221 494.9,-227.17 503.71,-229 623.49,-253.88 659,-231.31 776.59,-230.05"/>
<polygon fill="#666666" stroke="#666666" stroke-width="3" points="776.73,-233.55 786.71,-230 776.69,-226.55 776.73,-233.55"/>
<text text-anchor="middle" x="519.21" y="-237.8" font-family="Times New Roman,serif" font-size="14.00" fill="#666666">&lt;10&gt;</text>
</g>
<!-- c11&#45;&gt;n4 -->
<g id="edge11" class="edge">
<title>c11:e&#45;&gt;n4:w</title>
<path fill="none" stroke="#a6761d" d="M975.71,-230C1054.41,-230 1076.26,-240.99 1150.07,-241.94"/>
<polygon fill="#a6761d" stroke="#a6761d" points="1150.32,-245.44 1160.34,-242 1150.36,-238.44 1150.32,-245.44"/>
</g>
<!-- c11&#45;&gt;n7 -->
<g id="edge12" class="edge">
<title>c11:e&#45;&gt;n7:w</title>
<path fill="none" stroke="#1b9e77" stroke-width="3" d="M975.71,-206C1047.87,-206 1068.31,-199.64 1135.62,-199.04"/>
<polygon fill="#1b9e77" stroke="#1b9e77" stroke-width="3" points="1135.92,-202.54 1145.91,-199 1135.89,-195.54 1135.92,-202.54"/>
<text text-anchor="middle" x="1060.81" y="-208.8" font-family="Times New Roman,serif" font-size="14.00" fill="#1b9e77">&lt;8&gt;</text>
</g>
<!-- n6&#45;&gt;c12 -->
<g id="edge6" class="edge">
<title>n6:e&#45;&gt;c12:w</title>
<path fill="none" stroke="#e7298a" stroke-width="3" d="M1128.81,-138C1136.82,-138 1133.61,-150.47 1127.81,-156 1068.48,-212.5 472.42,-160.72 390.5,-161 376.72,-161.05 371.62,-167.55 359.5,-161 346.65,-154.05 354.35,-140.45 341.5,-133.5 246.1,-81.93 175.29,-57.94 97.5,-133.5 94.02,-136.88 91.47,-149.8 92.01,-158.83"/>
<polygon fill="#e7298a" stroke="#e7298a" stroke-width="3" points="88.96,-160.56 96.5,-168 95.25,-157.48 88.96,-160.56"/>
<text text-anchor="middle" x="519.21" y="-171.8" font-family="Times New Roman,serif" font-size="14.00" fill="#e7298a">&lt;3&gt;</text>
</g>
<!-- n9&#45;&gt;c10 -->
<g id="edge8" class="edge">
<title>n9:e&#45;&gt;c10:w</title>
<path fill="none" stroke="#e7298a" stroke-width="3" d="M485.71,-129C500.88,-129 493.44,-111.16 503.71,-100 515.33,-87.38 522.78,-89.33 534.71,-77 541.12,-70.37 540.82,-61.25 543.82,-55.76"/>
<polygon fill="#e7298a" stroke="#e7298a" stroke-width="3" points="545.54,-58.8 552.71,-51 542.24,-52.63 545.54,-58.8"/>
<text text-anchor="middle" x="519.21" y="-103.8" font-family="Times New Roman,serif" font-size="14.00" fill="#e7298a">&lt;3&gt;</text>
</g>
<!-- n9&#45;&gt;c11 -->
<g id="edge9" class="edge">
<title>n9:e&#45;&gt;c11:w</title>
<path fill="none" stroke="#e7298a" stroke-width="3" d="M485.71,-129C620.29,-129 647.29,-202.14 776.41,-205.85"/>
<polygon fill="#e7298a" stroke="#e7298a" stroke-width="3" points="776.66,-209.36 786.71,-206 776.76,-202.36 776.66,-209.36"/>
<text text-anchor="middle" x="519.21" y="-135.8" font-family="Times New Roman,serif" font-size="14.00" fill="#e7298a">&lt;3&gt;</text>
</g>
</g>
</svg>
