<?xml version="1.0" encoding="UTF-8" standalone="no"?>
<!DOCTYPE svg PUBLIC "-//W3C//DTD SVG 1.1//EN"
 "http://www.w3.org/Graphics/SVG/1.1/DTD/svg11.dtd">
<!-- Generated by graphviz version 4.0.0 (20220529.0937)
 -->
<!-- Title: fsm_output Pages: 1 -->
<svg width="1003pt" height="262pt"
 viewBox="0.00 0.00 1002.95 261.50" xmlns="http://www.w3.org/2000/svg" xmlns:xlink="http://www.w3.org/1999/xlink">
<g id="graph0" class="graph" transform="scale(1 1) rotate(0) translate(4 257.5)">
<title>fsm_output</title>
<polygon fill="white" stroke="transparent" points="-4,4 -4,-257.5 998.95,-257.5 998.95,4 -4,4"/>
<text text-anchor="middle" x="497.48" y="-7.8" font-family="Times New Roman,serif" font-size="14.00">fsm_output</text>
<!-- n4 -->
<g id="node1" class="node">
<title>n4</title>
<polygon fill="none" stroke="black" points="57.83,-77.04 57.83,-91.96 41.26,-102.5 17.83,-102.5 1.27,-91.96 1.27,-77.04 17.83,-66.5 41.26,-66.5 57.83,-77.04"/>
<text text-anchor="middle" x="29.55" y="-80.8" font-family="Times New Roman,serif" font-size="14.00">data</text>
</g>
<!-- x0 -->
<g id="node5" class="node">
<title>x0</title>
<path fill="none" stroke="black" d="M276.59,-66.5C276.59,-66.5 314.59,-66.5 314.59,-66.5 320.59,-66.5 326.59,-72.5 326.59,-78.5 326.59,-78.5 326.59,-90.5 326.59,-90.5 326.59,-96.5 320.59,-102.5 314.59,-102.5 314.59,-102.5 276.59,-102.5 276.59,-102.5 270.59,-102.5 264.59,-96.5 264.59,-90.5 264.59,-90.5 264.59,-78.5 264.59,-78.5 264.59,-72.5 270.59,-66.5 276.59,-66.5"/>
<text text-anchor="middle" x="295.59" y="-80.8" font-family="Times New Roman,serif" font-size="14.00">9:9 &#45; 0:0</text>
</g>
<!-- n4&#45;&gt;x0 -->
<g id="edge1" class="edge">
<title>n4:e&#45;&gt;x0:w</title>
<path fill="none" stroke="#7570b3" stroke-width="3" d="M58.55,-84.5C146.21,-84.5 170.63,-84.5 253.47,-84.5"/>
<polygon fill="#7570b3" stroke="#7570b3" stroke-width="3" points="253.59,-88 263.59,-84.5 253.59,-81 253.59,-88"/>
<text text-anchor="middle" x="104.09" y="-89.3" font-family="Times New Roman,serif" font-size="14.00" fill="#7570b3">&lt;8&gt;</text>
</g>
<!-- x3 -->
<g id="node6" class="node">
<title>x3</title>
<path fill="none" stroke="black" d="M161.09,-113.5C161.09,-113.5 199.09,-113.5 199.09,-113.5 205.09,-113.5 211.09,-119.5 211.09,-125.5 211.09,-125.5 211.09,-137.5 211.09,-137.5 211.09,-143.5 205.09,-149.5 199.09,-149.5 199.09,-149.5 161.09,-149.5 161.09,-149.5 155.09,-149.5 149.09,-143.5 149.09,-137.5 149.09,-137.5 149.09,-125.5 149.09,-125.5 149.09,-119.5 155.09,-113.5 161.09,-113.5"/>
<text text-anchor="middle" x="180.09" y="-127.8" font-family="Times New Roman,serif" font-size="14.00">8:0 &#45; 8:0</text>
</g>
<!-- n4&#45;&gt;x3 -->
<g id="edge2" class="edge">
<title>n4:e&#45;&gt;x3:w</title>
<path fill="none" stroke="#7570b3" stroke-width="3" d="M58.55,-84.5C70.35,-84.5 67.25,-96.99 77.09,-103.5 102.71,-120.44 112.64,-129.48 139.02,-131.2"/>
<polygon fill="#7570b3" stroke="#7570b3" stroke-width="3" points="138.99,-134.7 149.09,-131.5 139.2,-127.7 138.99,-134.7"/>
<text text-anchor="middle" x="104.09" y="-133.3" font-family="Times New Roman,serif" font-size="14.00" fill="#7570b3">&lt;8&gt;</text>
</g>
<!-- x4 -->
<g id="node7" class="node">
<title>x4</title>
<path fill="none" stroke="black" d="M549.09,-23.5C549.09,-23.5 587.09,-23.5 587.09,-23.5 593.09,-23.5 599.09,-29.5 599.09,-35.5 599.09,-35.5 599.09,-47.5 599.09,-47.5 599.09,-53.5 593.09,-59.5 587.09,-59.5 587.09,-59.5 549.09,-59.5 549.09,-59.5 543.09,-59.5 537.09,-53.5 537.09,-47.5 537.09,-47.5 537.09,-35.5 537.09,-35.5 537.09,-29.5 543.09,-23.5 549.09,-23.5"/>
<text text-anchor="middle" x="568.09" y="-37.8" font-family="Times New Roman,serif" font-size="14.00">7:0 &#45; 7:0</text>
</g>
<!-- n4&#45;&gt;x4 -->
<g id="edge3" class="edge">
<title>n4:e&#45;&gt;x4:w</title>
<path fill="none" stroke="#7570b3" stroke-width="3" d="M58.55,-84.5C66.98,-84.5 68.84,-82.25 77.09,-80.5 109.07,-73.72 116.82,-70.67 149.09,-65.5 316.2,-38.75 362.44,-41.38 526.62,-41.5"/>
<polygon fill="#7570b3" stroke="#7570b3" stroke-width="3" points="527.09,-45 537.09,-41.5 527.09,-38 527.09,-45"/>
<text text-anchor="middle" x="180.09" y="-69.3" font-family="Times New Roman,serif" font-size="14.00" fill="#7570b3">&lt;8&gt;</text>
</g>
<!-- n7 -->
<g id="node2" class="node">
<title>n7</title>
<polygon fill="none" stroke="black" points="59.14,-222.04 59.14,-236.96 41.8,-247.5 17.29,-247.5 -0.05,-236.96 -0.05,-222.04 17.29,-211.5 41.8,-211.5 59.14,-222.04"/>
<text text-anchor="middle" x="29.55" y="-225.8" font-family="Times New Roman,serif" font-size="14.00">state</text>
</g>
<!-- c14 -->
<g id="node8" class="node">
<title>c14</title>
<polygon fill="none" stroke="black" points="229.09,-175.5 229.09,-221.5 362.09,-221.5 362.09,-175.5 229.09,-175.5"/>
<text text-anchor="middle" x="242.09" y="-206.3" font-family="Times New Roman,serif" font-size="14.00">A</text>
<polyline fill="none" stroke="black" points="229.09,-198.5 255.09,-198.5 "/>
<text text-anchor="middle" x="242.09" y="-183.3" font-family="Times New Roman,serif" font-size="14.00">B</text>
<polyline fill="none" stroke="black" points="255.09,-175.5 255.09,-221.5 "/>
<text text-anchor="middle" x="295.59" y="-202.3" font-family="Times New Roman,serif" font-size="14.00">$13_CMP0</text>
<text text-anchor="middle" x="295.59" y="-187.3" font-family="Times New Roman,serif" font-size="14.00">$eq</text>
<polyline fill="none" stroke="black" points="336.09,-175.5 336.09,-221.5 "/>
<text text-anchor="middle" x="349.09" y="-194.8" font-family="Times New Roman,serif" font-size="14.00">Y</text>
</g>
<!-- n7&#45;&gt;c14 -->
<g id="edge4" class="edge">
<title>n7:e&#45;&gt;c14:w</title>
<path fill="none" stroke="#e6ab02" stroke-width="3" d="M59.09,-229.5C131.56,-229.5 151.26,-212.24 218.77,-210.62"/>
<polygon fill="#e6ab02" stroke="#e6ab02" stroke-width="3" points="219.14,-214.12 229.09,-210.5 219.05,-207.12 219.14,-214.12"/>
<text text-anchor="middle" x="104.09" y="-232.3" font-family="Times New Roman,serif" font-size="14.00" fill="#e6ab02">&lt;3&gt;</text>
</g>
<!-- n5 -->
<g id="node3" class="node">
<title>n5</title>
<polygon fill="none" stroke="black" points="979.43,-205.04 979.43,-219.96 961.33,-230.5 935.72,-230.5 917.62,-219.96 917.62,-205.04 935.72,-194.5 961.33,-194.5 979.43,-205.04"/>
<text text-anchor="middle" x="948.52" y="-208.8" font-family="Times New Roman,serif" font-size="14.00">done</text>
</g>
<!-- n6 -->
<g id="node4" class="node">
<title>n6</title>
<polygon fill="none" stroke="black" points="994.88,-34.04 994.88,-48.96 967.73,-59.5 929.32,-59.5 902.16,-48.96 902.16,-34.04 929.32,-23.5 967.73,-23.5 994.88,-34.04"/>
<text text-anchor="middle" x="948.52" y="-37.8" font-family="Times New Roman,serif" font-size="14.00">out_byte</text>
</g>
<!-- c11 -->
<g id="node9" class="node">
<title>c11</title>
<polygon fill="none" stroke="black" points="617.09,-97.5 617.09,-143.5 706.09,-143.5 706.09,-97.5 617.09,-97.5"/>
<text text-anchor="middle" x="630.09" y="-128.3" font-family="Times New Roman,serif" font-size="14.00">A</text>
<polyline fill="none" stroke="black" points="617.09,-120.5 643.09,-120.5 "/>
<text text-anchor="middle" x="630.09" y="-105.3" font-family="Times New Roman,serif" font-size="14.00">B</text>
<polyline fill="none" stroke="black" points="643.09,-97.5 643.09,-143.5 "/>
<text text-anchor="middle" x="661.59" y="-124.3" font-family="Times New Roman,serif" font-size="14.00">$10</text>
<text text-anchor="middle" x="661.59" y="-109.3" font-family="Times New Roman,serif" font-size="14.00">$eq</text>
<polyline fill="none" stroke="black" points="680.09,-97.5 680.09,-143.5 "/>
<text text-anchor="middle" x="693.09" y="-116.8" font-family="Times New Roman,serif" font-size="14.00">Y</text>
</g>
<!-- x0&#45;&gt;c11 -->
<g id="edge6" class="edge">
<title>x0:e&#45;&gt;c11:w</title>
<path fill="none" stroke="#a6761d" d="M339.78,-84.57C454.87,-85.97 489.84,-107.03 604.94,-108.43"/>
<polygon fill="none" stroke="#a6761d" points="339.59,-84.57 333.57,-88.54 327.59,-84.5 333.62,-80.54 339.59,-84.57"/>
<polygon fill="none" stroke="#a6761d" points="605.09,-108.43 611.12,-104.46 617.09,-108.5 611.07,-112.46 605.09,-108.43"/>
</g>
<!-- c15 -->
<g id="node13" class="node">
<title>c15</title>
<polygon fill="none" stroke="black" points="380.09,-113.5 380.09,-151.5 519.09,-151.5 519.09,-113.5 380.09,-113.5"/>
<text text-anchor="middle" x="393.09" y="-128.8" font-family="Times New Roman,serif" font-size="14.00">A</text>
<polyline fill="none" stroke="black" points="406.09,-113.5 406.09,-151.5 "/>
<text text-anchor="middle" x="449.59" y="-136.3" font-family="Times New Roman,serif" font-size="14.00">$9</text>
<text text-anchor="middle" x="449.59" y="-121.3" font-family="Times New Roman,serif" font-size="14.00">$reduce_xor</text>
<polyline fill="none" stroke="black" points="493.09,-113.5 493.09,-151.5 "/>
<text text-anchor="middle" x="506.09" y="-128.8" font-family="Times New Roman,serif" font-size="14.00">Y</text>
</g>
<!-- x3&#45;&gt;c15 -->
<g id="edge12" class="edge">
<title>x3:e&#45;&gt;c15:w</title>
<path fill="none" stroke="#e7298a" stroke-width="3" d="M223.33,-131.51C284.57,-131.6 306.56,-132.4 367.75,-132.49"/>
<polygon fill="none" stroke="#e7298a" stroke-width="3" points="223.09,-131.51 217.09,-135.5 211.09,-131.5 217.1,-127.5 223.09,-131.51"/>
<polygon fill="none" stroke="#e7298a" stroke-width="3" points="368.09,-132.49 374.1,-128.5 380.09,-132.5 374.09,-136.5 368.09,-132.49"/>
<text text-anchor="middle" x="295.59" y="-135.3" font-family="Times New Roman,serif" font-size="14.00" fill="#e7298a">&lt;9&gt;</text>
</g>
<!-- x4&#45;&gt;n6 -->
<g id="edge13" class="edge">
<title>x4:e&#45;&gt;n6:w</title>
<path fill="none" stroke="#d95f02" stroke-width="3" d="M599.09,-41.5C730.34,-41.5 765.65,-41.5 892.03,-41.5"/>
<polygon fill="#d95f02" stroke="#d95f02" stroke-width="3" points="892.09,-45 902.09,-41.5 892.09,-38 892.09,-45"/>
<text text-anchor="middle" x="736.09" y="-45.3" font-family="Times New Roman,serif" font-size="14.00" fill="#d95f02">&lt;8&gt;</text>
</g>
<!-- c13 -->
<g id="node10" class="node">
<title>c13</title>
<polygon fill="none" stroke="black" points="766.09,-178 766.09,-247 865.09,-247 865.09,-178 766.09,-178"/>
<text text-anchor="middle" x="779.09" y="-231.8" font-family="Times New Roman,serif" font-size="14.00">A</text>
<polyline fill="none" stroke="black" points="766.09,-224 792.09,-224 "/>
<text text-anchor="middle" x="779.09" y="-208.8" font-family="Times New Roman,serif" font-size="14.00">B</text>
<polyline fill="none" stroke="black" points="766.09,-201 792.09,-201 "/>
<text text-anchor="middle" x="779.09" y="-185.8" font-family="Times New Roman,serif" font-size="14.00">S</text>
<polyline fill="none" stroke="black" points="792.09,-178 792.09,-247 "/>
<text text-anchor="middle" x="815.59" y="-216.3" font-family="Times New Roman,serif" font-size="14.00">$12</text>
<text text-anchor="middle" x="815.59" y="-201.3" font-family="Times New Roman,serif" font-size="14.00">$mux</text>
<polyline fill="none" stroke="black" points="839.09,-178 839.09,-247 "/>
<text text-anchor="middle" x="852.09" y="-208.8" font-family="Times New Roman,serif" font-size="14.00">Y</text>
</g>
<!-- c14&#45;&gt;c13 -->
<g id="edge10" class="edge">
<title>c14:e&#45;&gt;c13:w</title>
<path fill="none" stroke="#a6761d" d="M362.09,-198.5C538.27,-198.5 584.74,-189.84 755.98,-189.51"/>
<polygon fill="#a6761d" stroke="#a6761d" points="756.1,-193.01 766.09,-189.5 756.09,-186.01 756.1,-193.01"/>
</g>
<!-- c11&#45;&gt;c13 -->
<g id="edge5" class="edge">
<title>c11:e&#45;&gt;c13:w</title>
<path fill="none" stroke="#a6761d" d="M706.09,-120.5C736.85,-120.5 731.95,-149.32 748.09,-175.5 755.14,-186.93 751.68,-201.53 756.59,-208.47"/>
<polygon fill="#a6761d" stroke="#a6761d" points="755.52,-211.82 766.09,-212.5 758.25,-205.38 755.52,-211.82"/>
</g>
<!-- c13&#45;&gt;n5 -->
<g id="edge8" class="edge">
<title>c13:e&#45;&gt;n5:w</title>
<path fill="none" stroke="#7570b3" d="M865.09,-212.5C884.2,-212.5 891.33,-212.5 906.51,-212.5"/>
<polygon fill="#7570b3" stroke="#7570b3" points="906.52,-216 916.52,-212.5 906.52,-209 906.52,-216"/>
</g>
<!-- v1 -->
<g id="node11" class="node">
<title>v1</title>
<ellipse fill="none" stroke="black" cx="661.59" cy="-235.5" rx="27" ry="18"/>
<text text-anchor="middle" x="661.59" y="-231.8" font-family="Times New Roman,serif" font-size="14.00">1&#39;0</text>
</g>
<!-- v1&#45;&gt;c13 -->
<g id="edge7" class="edge">
<title>v1:e&#45;&gt;c13:w</title>
<path fill="none" stroke="#a6761d" d="M689.59,-235.5C719.87,-235.5 729.93,-235.5 755.79,-235.5"/>
<polygon fill="#a6761d" stroke="#a6761d" points="756.09,-239 766.09,-235.5 756.09,-232 756.09,-239"/>
</g>
<!-- v2 -->
<g id="node12" class="node">
<title>v2</title>
<ellipse fill="none" stroke="black" cx="104.09" cy="-186.5" rx="27" ry="18"/>
<text text-anchor="middle" x="104.09" y="-182.8" font-family="Times New Roman,serif" font-size="14.00">2&#39;11</text>
</g>
<!-- v2&#45;&gt;c14 -->
<g id="edge9" class="edge">
<title>v2:e&#45;&gt;c14:w</title>
<path fill="none" stroke="#e6ab02" stroke-width="3" d="M131.09,-186.5C171.08,-186.5 183.53,-186.5 219,-186.5"/>
<polygon fill="#e6ab02" stroke="#e6ab02" stroke-width="3" points="219.09,-190 229.09,-186.5 219.09,-183 219.09,-190"/>
<text text-anchor="middle" x="180.09" y="-190.3" font-family="Times New Roman,serif" font-size="14.00" fill="#e6ab02">&lt;2&gt;</text>
</g>
<!-- c15&#45;&gt;c11 -->
<g id="edge11" class="edge">
<title>c15:e&#45;&gt;c11:w</title>
<path fill="none" stroke="#e6ab02" d="M519.09,-132.5C559.08,-132.5 571.53,-132.5 607,-132.5"/>
<polygon fill="#e6ab02" stroke="#e6ab02" points="607.09,-136 617.09,-132.5 607.09,-129 607.09,-136"/>
</g>
</g>
</svg>
