<svg xmlns="http://www.w3.org/2000/svg" xmlns:xlink="http://www.w3.org/1999/xlink" xmlns:s="https://github.com/nturley/netlistsvg" width="372" height="235">
  <style>svg {
    stroke:#000;
    fill:none;
  }
  text {
    fill:#000;
    stroke:none;
    font-size:10px;
    font-weight: bold;
    font-family: "Courier New", monospace;
  }
  .nodelabel {
    text-anchor: middle;
  }
  .inputPortLabel {
    text-anchor: end;
  }
  .splitjoinBody {
    fill:#000;
  }</style>
  <g s:type="eq" transform="translate(193.66666666666666,77)" s:width="25" s:height="25" id="cell_$eq$top_module.v:139$10">
    <s:alias val="$eq"/>
    <circle r="12.5" cx="12.5" cy="12.5" class="cell_$eq$top_module.v:139$10"/>
    <line x1="7.5" x2="17.5" y1="10" y2="10" class="cell_$eq$top_module.v:139$10"/>
    <line x1="7.5" x2="17.5" y1="15" y2="15" class="cell_$eq$top_module.v:139$10"/>
    <g s:x="3" s:y="5" s:pid="A"/>
    <g s:x="3" s:y="20" s:pid="B"/>
    <g s:x="25" s:y="12.5" s:pid="Y"/>
  </g>
  <g s:type="mux" transform="translate(257,59.5)" s:width="20" s:height="40" id="cell_$procmux$12">
    <s:alias val="$pmux"/>
    <s:alias val="$mux"/>
    <s:alias val="$_MUX_"/>
    <path d="M0,0 L20,10 L20,30 L0,40 Z" class="cell_$procmux$12"/>
    <g s:x="0" s:y="10" s:pid="A"/>
    <g s:x="0" s:y="30" s:pid="B"/>
    <g s:x="10" s:y="35" s:pid="S"/>
    <g s:x="20" s:y="20" s:pid="Y"/>
  </g>
  <g s:type="eq" transform="translate(193.66666666666666,173)" s:width="25" s:height="25" id="cell_$procmux$13_CMP0">
    <s:alias val="$eq"/>
    <circle r="12.5" cx="12.5" cy="12.5" class="cell_$procmux$13_CMP0"/>
    <line x1="7.5" x2="17.5" y1="10" y2="10" class="cell_$procmux$13_CMP0"/>
    <line x1="7.5" x2="17.5" y1="15" y2="15" class="cell_$procmux$13_CMP0"/>
    <g s:x="3" s:y="5" s:pid="A"/>
    <g s:x="3" s:y="20" s:pid="B"/>
    <g s:x="25" s:y="12.5" s:pid="Y"/>
  </g>
  <g s:type="reduce_xor" transform="translate(124,62)" s:width="33" s:height="25" id="cell_$reduce_xor$top_module.v:139$9">
    <s:alias val="$xor"/>
    <s:alias val="$reduce_xor"/>
    <s:alias val="$_XOR_"/>
    <path d="M3,0 A30 25 0 0 1 3,25 A30 25 0 0 0 33,12.5 A30 25 0 0 0 3,0" class="cell_$reduce_xor$top_module.v:139$9"/>
    <path d="M0,0 A30 25 0 0 1 0,25" class="cell_$reduce_xor$top_module.v:139$9"/>
    <g s:x="3" s:y="5" s:pid="A"/>
    <g s:x="3" s:y="20" s:pid="B"/>
    <g s:x="33" s:y="12.5" s:pid="Y"/>
  </g>
  <g s:type="inputExt" transform="translate(127,118)" s:width="30" s:height="20" id="cell_state">
    <text x="15" y="-4" class="nodelabel cell_state" s:attribute="ref">state</text>
    <s:alias val="$_inputExt_"/>
    <path d="M0,0 L0,20 L15,20 L30,10 L15,0 Z" class="cell_state"/>
    <g s:x="28" s:y="10" s:pid="Y"/>
  </g>
  <g s:type="inputExt" transform="translate(12,173)" s:width="30" s:height="20" id="cell_data">
    <text x="15" y="-4" class="nodelabel cell_data" s:attribute="ref">data</text>
    <s:alias val="$_inputExt_"/>
    <path d="M0,0 L0,20 L15,20 L30,10 L15,0 Z" class="cell_data"/>
    <g s:x="28" s:y="10" s:pid="Y"/>
  </g>
  <g s:type="outputExt" transform="translate(312,203)" s:width="30" s:height="20" id="cell_out_byte">
    <text x="15" y="-4" class="nodelabel cell_out_byte" s:attribute="ref">out_byte</text>
    <s:alias val="$_outputExt_"/>
    <path d="M30,0 L30,20 L15,20 L0,10 L15,0 Z" class="cell_out_byte"/>
    <g s:x="0" s:y="10" s:pid="A"/>
  </g>
  <g s:type="outputExt" transform="translate(312,69.5)" s:width="30" s:height="20" id="cell_done">
    <text x="15" y="-4" class="nodelabel cell_done" s:attribute="ref">done</text>
    <s:alias val="$_outputExt_"/>
    <path d="M30,0 L30,20 L15,20 L0,10 L15,0 Z" class="cell_done"/>
    <g s:x="0" s:y="10" s:pid="A"/>
  </g>
  <g s:type="constant" transform="translate(192,22)" s:width="30" s:height="20" id="cell_0">
    <text x="15" y="-4" class="nodelabel cell_0" s:attribute="ref">0</text>
    <s:alias val="$_constant_"/>
    <rect width="30" height="20" class="cell_0"/>
    <g s:x="30" s:y="10" s:pid="Y"/>
  </g>
  <g s:type="constant" transform="translate(127,183)" s:width="30" s:height="20" id="cell_11">
    <text x="15" y="-4" class="nodelabel cell_11" s:attribute="ref">11</text>
    <s:alias val="$_constant_"/>
    <rect width="30" height="20" class="cell_11"/>
    <g s:x="30" s:y="10" s:pid="Y"/>
  </g>
  <g s:type="split" transform="translate(77,162.5)" s:width="5" s:height="40" id="cell_$split$,5,6,7,8,9,10,11,12,13,14,">
    <rect width="5" height="60" class="splitjoinBody" s:generic="body"/>
    <s:alias val="$_split_"/>
    <g s:x="0" s:y="20" s:pid="in"/>
    <g transform="translate(4,10)" s:x="4" s:y="10" s:pid="out0">
      <text x="5" y="-4">9</text>
    </g>
    <g transform="translate(4,30)" s:x="4" s:y="10" s:pid="out0">
      <text x="5" y="-4">0:8</text>
    </g>
    <g transform="translate(4,50)" s:x="4" s:y="10" s:pid="out0">
      <text x="5" y="-4">0:7</text>
    </g>
  </g>
  <line x1="157" x2="167" y1="74.5" y2="74.5" class="net_16"/>
  <line x1="167" x2="167" y1="74.5" y2="82" class="net_16"/>
  <line x1="167" x2="196.66666666666666" y1="82" y2="82" class="net_16"/>
  <line x1="82" x2="109" y1="173" y2="173" class="net_14"/>
  <line x1="109" x2="109" y1="173" y2="97" class="net_14"/>
  <line x1="109" x2="196.66666666666666" y1="97" y2="97" class="net_14"/>
  <line x1="222" x2="232" y1="32" y2="32" class="net_19"/>
  <line x1="232" x2="232" y1="32" y2="69.5" class="net_19"/>
  <line x1="232" x2="257" y1="69.5" y2="69.5" class="net_19"/>
  <line x1="218.66666666666666" x2="257" y1="89.5" y2="89.5" class="net_17"/>
  <line x1="218.66666666666666" x2="267" y1="185.5" y2="185.5" class="net_18"/>
  <line x1="267" x2="267" y1="185.5" y2="94.5" class="net_18"/>
  <line x1="155" x2="167" y1="128" y2="128" class="net_2,3,4"/>
  <line x1="167" x2="167" y1="128" y2="178" class="net_2,3,4"/>
  <line x1="167" x2="196.66666666666666" y1="178" y2="178" class="net_2,3,4"/>
  <line x1="157" x2="196.66666666666666" y1="193" y2="193" class="net_20,21"/>
  <line x1="82" x2="99" y1="193" y2="193" class="net_5,6,7,8,9,10,11,12,13"/>
  <line x1="99" x2="99" y1="193" y2="67" class="net_5,6,7,8,9,10,11,12,13"/>
  <line x1="99" x2="127" y1="67" y2="67" class="net_5,6,7,8,9,10,11,12,13"/>
  <line x1="82" x2="312" y1="213" y2="213" class="net_5,6,7,8,9,10,11,12"/>
  <line x1="277" x2="312" y1="79.5" y2="79.5" class="net_15"/>
  <line x1="40" x2="77" y1="183" y2="183" class="net_5,6,7,8,9,10,11,12,13,14"/>
</svg>
