<svg xmlns="http://www.w3.org/2000/svg" xmlns:xlink="http://www.w3.org/1999/xlink" xmlns:s="https://github.com/nturley/netlistsvg" width="818" height="574">
  <style>svg {
    stroke:#000;
    fill:none;
  }
  text {
    fill:#000;
    stroke:none;
    font-size:10px;
    font-weight: bold;
    font-family: "Courier New", monospace;
  }
  .nodelabel {
    text-anchor: middle;
  }
  .inputPortLabel {
    text-anchor: end;
  }
  .splitjoinBody {
    fill:#000;
  }</style>
  <g s:type="generic" transform="translate(387,115)" s:width="30" s:height="40" id="cell_$auto$opt_reduce.cc:128:opt_mux$23">
    <text x="15" y="-4" class="nodelabel cell_$auto$opt_reduce.cc:128:opt_mux$23" s:attribute="ref">$reduce_or</text>
    <rect width="30" height="20" s:generic="body" class="cell_$auto$opt_reduce.cc:128:opt_mux$23"/>
    <g transform="translate(0,10)" s:x="0" s:y="10" s:pid="in0" id="port_$auto$opt_reduce.cc:128:opt_mux$23~A">
      <text x="-3" y="-4" class="inputPortLabel cell_$auto$opt_reduce.cc:128:opt_mux$23">A</text>
    </g>
    <g transform="translate(30,10)" s:x="30" s:y="10" s:pid="out0" id="port_$auto$opt_reduce.cc:128:opt_mux$23~Y">
      <text x="5" y="-4" style="fill:#000; stroke:none" class="cell_$auto$opt_reduce.cc:128:opt_mux$23">Y</text>
    </g>
  </g>
  <g s:type="generic" transform="translate(387,375.5)" s:width="30" s:height="40" id="cell_$auto$opt_reduce.cc:128:opt_mux$25">
    <text x="15" y="-4" class="nodelabel cell_$auto$opt_reduce.cc:128:opt_mux$25" s:attribute="ref">$reduce_or</text>
    <rect width="30" height="20" s:generic="body" class="cell_$auto$opt_reduce.cc:128:opt_mux$25"/>
    <g transform="translate(0,10)" s:x="0" s:y="10" s:pid="in0" id="port_$auto$opt_reduce.cc:128:opt_mux$25~A">
      <text x="-3" y="-4" class="inputPortLabel cell_$auto$opt_reduce.cc:128:opt_mux$25">A</text>
    </g>
    <g transform="translate(30,10)" s:x="30" s:y="10" s:pid="out0" id="port_$auto$opt_reduce.cc:128:opt_mux$25~Y">
      <text x="5" y="-4" style="fill:#000; stroke:none" class="cell_$auto$opt_reduce.cc:128:opt_mux$25">Y</text>
    </g>
  </g>
  <g s:type="generic" transform="translate(387,531.5)" s:width="30" s:height="40" id="cell_$auto$opt_reduce.cc:128:opt_mux$27">
    <text x="15" y="-4" class="nodelabel cell_$auto$opt_reduce.cc:128:opt_mux$27" s:attribute="ref">$reduce_or</text>
    <rect width="30" height="20" s:generic="body" class="cell_$auto$opt_reduce.cc:128:opt_mux$27"/>
    <g transform="translate(0,10)" s:x="0" s:y="10" s:pid="in0" id="port_$auto$opt_reduce.cc:128:opt_mux$27~A">
      <text x="-3" y="-4" class="inputPortLabel cell_$auto$opt_reduce.cc:128:opt_mux$27">A</text>
    </g>
    <g transform="translate(30,10)" s:x="30" s:y="10" s:pid="out0" id="port_$auto$opt_reduce.cc:128:opt_mux$27~Y">
      <text x="5" y="-4" style="fill:#000; stroke:none" class="cell_$auto$opt_reduce.cc:128:opt_mux$27">Y</text>
    </g>
  </g>
  <g s:type="eq" transform="translate(77,421)" s:width="25" s:height="25" id="cell_$eq$top_module.v:67$2">
    <s:alias val="$eq"/>
    <circle r="12.5" cx="12.5" cy="12.5" class="cell_$eq$top_module.v:67$2"/>
    <line x1="7.5" x2="17.5" y1="10" y2="10" class="cell_$eq$top_module.v:67$2"/>
    <line x1="7.5" x2="17.5" y1="15" y2="15" class="cell_$eq$top_module.v:67$2"/>
    <g s:x="3" s:y="5" s:pid="A"/>
    <g s:x="3" s:y="20" s:pid="B"/>
    <g s:x="25" s:y="12.5" s:pid="Y"/>
  </g>
  <g s:type="mux" transform="translate(691,341.5)" s:width="20" s:height="40" id="cell_$procmux$13">
    <s:alias val="$pmux"/>
    <s:alias val="$mux"/>
    <s:alias val="$_MUX_"/>
    <path d="M0,0 L20,10 L20,30 L0,40 Z" class="cell_$procmux$13"/>
    <g s:x="0" s:y="10" s:pid="A"/>
    <g s:x="0" s:y="30" s:pid="B"/>
    <g s:x="10" s:y="35" s:pid="S"/>
    <g s:x="20" s:y="20" s:pid="Y"/>
  </g>
  <g s:type="eq" transform="translate(251.66666666666666,23)" s:width="25" s:height="25" id="cell_$procmux$14_CMP0">
    <s:alias val="$eq"/>
    <circle r="12.5" cx="12.5" cy="12.5" class="cell_$procmux$14_CMP0"/>
    <line x1="7.5" x2="17.5" y1="10" y2="10" class="cell_$procmux$14_CMP0"/>
    <line x1="7.5" x2="17.5" y1="15" y2="15" class="cell_$procmux$14_CMP0"/>
    <g s:x="3" s:y="5" s:pid="A"/>
    <g s:x="3" s:y="20" s:pid="B"/>
    <g s:x="25" s:y="12.5" s:pid="Y"/>
  </g>
  <g s:type="eq" transform="translate(251.66666666666666,203)" s:width="25" s:height="25" id="cell_$procmux$15_CMP0">
    <s:alias val="$eq"/>
    <circle r="12.5" cx="12.5" cy="12.5" class="cell_$procmux$15_CMP0"/>
    <line x1="7.5" x2="17.5" y1="10" y2="10" class="cell_$procmux$15_CMP0"/>
    <line x1="7.5" x2="17.5" y1="15" y2="15" class="cell_$procmux$15_CMP0"/>
    <g s:x="3" s:y="5" s:pid="A"/>
    <g s:x="3" s:y="20" s:pid="B"/>
    <g s:x="25" s:y="12.5" s:pid="Y"/>
  </g>
  <g s:type="eq" transform="translate(444.3333333333333,454.5)" s:width="25" s:height="25" id="cell_$procmux$16_CMP0">
    <s:alias val="$eq"/>
    <circle r="12.5" cx="12.5" cy="12.5" class="cell_$procmux$16_CMP0"/>
    <line x1="7.5" x2="17.5" y1="10" y2="10" class="cell_$procmux$16_CMP0"/>
    <line x1="7.5" x2="17.5" y1="15" y2="15" class="cell_$procmux$16_CMP0"/>
    <g s:x="3" s:y="5" s:pid="A"/>
    <g s:x="3" s:y="20" s:pid="B"/>
    <g s:x="25" s:y="12.5" s:pid="Y"/>
  </g>
  <g s:type="eq" transform="translate(251.66666666666666,482)" s:width="25" s:height="25" id="cell_$procmux$17_CMP0">
    <s:alias val="$eq"/>
    <circle r="12.5" cx="12.5" cy="12.5" class="cell_$procmux$17_CMP0"/>
    <line x1="7.5" x2="17.5" y1="10" y2="10" class="cell_$procmux$17_CMP0"/>
    <line x1="7.5" x2="17.5" y1="15" y2="15" class="cell_$procmux$17_CMP0"/>
    <g s:x="3" s:y="5" s:pid="A"/>
    <g s:x="3" s:y="20" s:pid="B"/>
    <g s:x="25" s:y="12.5" s:pid="Y"/>
  </g>
  <g s:type="eq" transform="translate(251.66666666666666,311)" s:width="25" s:height="25" id="cell_$procmux$18_CMP0">
    <s:alias val="$eq"/>
    <circle r="12.5" cx="12.5" cy="12.5" class="cell_$procmux$18_CMP0"/>
    <line x1="7.5" x2="17.5" y1="10" y2="10" class="cell_$procmux$18_CMP0"/>
    <line x1="7.5" x2="17.5" y1="15" y2="15" class="cell_$procmux$18_CMP0"/>
    <g s:x="3" s:y="5" s:pid="A"/>
    <g s:x="3" s:y="20" s:pid="B"/>
    <g s:x="25" s:y="12.5" s:pid="Y"/>
  </g>
  <g s:type="eq" transform="translate(251.66666666666666,403.5)" s:width="25" s:height="25" id="cell_$procmux$19_CMP0">
    <s:alias val="$eq"/>
    <circle r="12.5" cx="12.5" cy="12.5" class="cell_$procmux$19_CMP0"/>
    <line x1="7.5" x2="17.5" y1="10" y2="10" class="cell_$procmux$19_CMP0"/>
    <line x1="7.5" x2="17.5" y1="15" y2="15" class="cell_$procmux$19_CMP0"/>
    <g s:x="3" s:y="5" s:pid="A"/>
    <g s:x="3" s:y="20" s:pid="B"/>
    <g s:x="25" s:y="12.5" s:pid="Y"/>
  </g>
  <g s:type="eq" transform="translate(251.66666666666666,143)" s:width="25" s:height="25" id="cell_$procmux$20_CMP0">
    <s:alias val="$eq"/>
    <circle r="12.5" cx="12.5" cy="12.5" class="cell_$procmux$20_CMP0"/>
    <line x1="7.5" x2="17.5" y1="10" y2="10" class="cell_$procmux$20_CMP0"/>
    <line x1="7.5" x2="17.5" y1="15" y2="15" class="cell_$procmux$20_CMP0"/>
    <g s:x="3" s:y="5" s:pid="A"/>
    <g s:x="3" s:y="20" s:pid="B"/>
    <g s:x="25" s:y="12.5" s:pid="Y"/>
  </g>
  <g s:type="eq" transform="translate(251.66666666666666,83)" s:width="25" s:height="25" id="cell_$procmux$21_CMP0">
    <s:alias val="$eq"/>
    <circle r="12.5" cx="12.5" cy="12.5" class="cell_$procmux$21_CMP0"/>
    <line x1="7.5" x2="17.5" y1="10" y2="10" class="cell_$procmux$21_CMP0"/>
    <line x1="7.5" x2="17.5" y1="15" y2="15" class="cell_$procmux$21_CMP0"/>
    <g s:x="3" s:y="5" s:pid="A"/>
    <g s:x="3" s:y="20" s:pid="B"/>
    <g s:x="25" s:y="12.5" s:pid="Y"/>
  </g>
  <g s:type="not" transform="translate(250,542)" s:width="30" s:height="20" id="cell_$procmux$22_CMP0">
    <s:alias val="$_NOT_"/>
    <s:alias val="$not"/>
    <s:alias val="$logic_not"/>
    <path d="M0,0 L0,20 L20,10 Z" class="cell_$procmux$22_CMP0"/>
    <circle cx="23" cy="10" r="3" class="cell_$procmux$22_CMP0"/>
    <g s:x="0" s:y="10" s:pid="A"/>
    <g s:x="25" s:y="10" s:pid="Y"/>
  </g>
  <g s:type="inputExt" transform="translate(12,351)" s:width="30" s:height="20" id="cell_in">
    <text x="15" y="-4" class="nodelabel cell_in" s:attribute="ref">in</text>
    <s:alias val="$_inputExt_"/>
    <path d="M0,0 L0,20 L15,20 L30,10 L15,0 Z" class="cell_in"/>
    <g s:x="28" s:y="10" s:pid="Y"/>
  </g>
  <g s:type="inputExt" transform="translate(12,88)" s:width="30" s:height="20" id="cell_state">
    <text x="15" y="-4" class="nodelabel cell_state" s:attribute="ref">state</text>
    <s:alias val="$_inputExt_"/>
    <path d="M0,0 L0,20 L15,20 L30,10 L15,0 Z" class="cell_state"/>
    <g s:x="28" s:y="10" s:pid="Y"/>
  </g>
  <g s:type="inputExt" transform="translate(12,416)" s:width="30" s:height="20" id="cell_bits">
    <text x="15" y="-4" class="nodelabel cell_bits" s:attribute="ref">bits</text>
    <s:alias val="$_inputExt_"/>
    <path d="M0,0 L0,20 L15,20 L30,10 L15,0 Z" class="cell_bits"/>
    <g s:x="28" s:y="10" s:pid="Y"/>
  </g>
  <g s:type="outputExt" transform="translate(746,351.5)" s:width="30" s:height="20" id="cell_next_state">
    <text x="15" y="-4" class="nodelabel cell_next_state" s:attribute="ref">next_state</text>
    <s:alias val="$_outputExt_"/>
    <path d="M30,0 L30,20 L15,20 L0,10 L15,0 Z" class="cell_next_state"/>
    <g s:x="0" s:y="10" s:pid="A"/>
  </g>
  <g s:type="constant" transform="translate(12,153)" s:width="30" s:height="20" id="cell_1001">
    <text x="15" y="-4" class="nodelabel cell_1001" s:attribute="ref">0x9</text>
    <s:alias val="$_constant_"/>
    <rect width="30" height="20" class="cell_1001"/>
    <g s:x="30" s:y="10" s:pid="Y"/>
  </g>
  <g s:type="constant" transform="translate(626,296.5)" s:width="30" s:height="20" id="cell_111">
    <text x="15" y="-4" class="nodelabel cell_111" s:attribute="ref">111</text>
    <s:alias val="$_constant_"/>
    <rect width="30" height="20" class="cell_111"/>
    <g s:x="30" s:y="10" s:pid="Y"/>
  </g>
  <g s:type="constant" transform="translate(626,361.5)" s:width="30" s:height="20" id="cell_000011010001">
    <text x="15" y="-4" class="nodelabel cell_000011010001" s:attribute="ref">0xd1</text>
    <s:alias val="$_constant_"/>
    <rect width="30" height="20" class="cell_000011010001"/>
    <g s:x="30" s:y="10" s:pid="Y"/>
  </g>
  <g s:type="constant" transform="translate(185,33)" s:width="30" s:height="20" id="cell_1011">
    <text x="15" y="-4" class="nodelabel cell_1011" s:attribute="ref">0xb</text>
    <s:alias val="$_constant_"/>
    <rect width="30" height="20" class="cell_1011"/>
    <g s:x="30" s:y="10" s:pid="Y"/>
  </g>
  <g s:type="constant" transform="translate(185,213)" s:width="30" s:height="20" id="cell_11">
    <text x="15" y="-4" class="nodelabel cell_11" s:attribute="ref">11</text>
    <s:alias val="$_constant_"/>
    <rect width="30" height="20" class="cell_11"/>
    <g s:x="30" s:y="10" s:pid="Y"/>
  </g>
  <g s:type="constant" transform="translate(315,464.5)" s:width="30" s:height="20" id="cell_10101">
    <text x="15" y="-4" class="nodelabel cell_10101" s:attribute="ref">0x15</text>
    <s:alias val="$_constant_"/>
    <rect width="30" height="20" class="cell_10101"/>
    <g s:x="30" s:y="10" s:pid="Y"/>
  </g>
  <g s:type="constant" transform="translate(185,492)" s:width="30" s:height="20" id="cell_101">
    <text x="15" y="-4" class="nodelabel cell_101" s:attribute="ref">101</text>
    <s:alias val="$_constant_"/>
    <rect width="30" height="20" class="cell_101"/>
    <g s:x="30" s:y="10" s:pid="Y"/>
  </g>
  <g s:type="constant" transform="translate(185,321)" s:width="30" s:height="20" id="cell_100">
    <text x="15" y="-4" class="nodelabel cell_100" s:attribute="ref">100</text>
    <s:alias val="$_constant_"/>
    <rect width="30" height="20" class="cell_100"/>
    <g s:x="30" s:y="10" s:pid="Y"/>
  </g>
  <g s:type="constant" transform="translate(185,413.5)" s:width="30" s:height="20" id="cell_1">
    <text x="15" y="-4" class="nodelabel cell_1" s:attribute="ref">1</text>
    <s:alias val="$_constant_"/>
    <rect width="30" height="20" class="cell_1"/>
    <g s:x="30" s:y="10" s:pid="Y"/>
  </g>
  <g s:type="constant" transform="translate(185,93)" s:width="30" s:height="20" id="cell_1000">
    <text x="15" y="-4" class="nodelabel cell_1000" s:attribute="ref">0x8</text>
    <s:alias val="$_constant_"/>
    <rect width="30" height="20" class="cell_1000"/>
    <g s:x="30" s:y="10" s:pid="Y"/>
  </g>
  <g s:type="join" transform="translate(325,105)" s:width="4" s:height="40" id="cell_$join$,14,15,16,">
    <rect width="5" height="60" class="splitjoinBody" s:generic="body"/>
    <s:alias val="$_join_"/>
    <g s:x="5" s:y="20" s:pid="out"/>
    <g transform="translate(0,10)" s:x="0" s:y="10" s:pid="in0">
      <text x="-3" y="-4" class="inputPortLabel">0</text>
    </g>
    <g transform="translate(0,30)" s:x="0" s:y="10" s:pid="in0">
      <text x="-3" y="-4" class="inputPortLabel">1</text>
    </g>
    <g transform="translate(0,50)" s:x="0" s:y="10" s:pid="in0">
      <text x="-3" y="-4" class="inputPortLabel">2</text>
    </g>
  </g>
  <g s:type="join" transform="translate(325,365.5)" s:width="4" s:height="40" id="cell_$join$,18,19,20,">
    <rect width="5" height="60" class="splitjoinBody" s:generic="body"/>
    <s:alias val="$_join_"/>
    <g s:x="5" s:y="20" s:pid="out"/>
    <g transform="translate(0,10)" s:x="0" s:y="10" s:pid="in0">
      <text x="-3" y="-4" class="inputPortLabel">0</text>
    </g>
    <g transform="translate(0,30)" s:x="0" s:y="10" s:pid="in0">
      <text x="-3" y="-4" class="inputPortLabel">1</text>
    </g>
    <g transform="translate(0,50)" s:x="0" s:y="10" s:pid="in0">
      <text x="-3" y="-4" class="inputPortLabel">2</text>
    </g>
  </g>
  <g s:type="join" transform="translate(326,521.5)" s:width="4" s:height="40" id="cell_$join$,22,23,">
    <rect width="5" height="40" class="splitjoinBody" s:generic="body"/>
    <s:alias val="$_join_"/>
    <g s:x="5" s:y="20" s:pid="out"/>
    <g transform="translate(0,10)" s:x="0" s:y="10" s:pid="in0">
      <text x="-3" y="-4" class="inputPortLabel">0</text>
    </g>
    <g transform="translate(0,30)" s:x="0" s:y="10" s:pid="in0">
      <text x="-3" y="-4" class="inputPortLabel">1</text>
    </g>
  </g>
  <g s:type="join" transform="translate(636,416.5)" s:width="4" s:height="40" id="cell_$join$,17,21,26,24,">
    <rect width="5" height="80" class="splitjoinBody" s:generic="body"/>
    <s:alias val="$_join_"/>
    <g s:x="5" s:y="20" s:pid="out"/>
    <g transform="translate(0,10)" s:x="0" s:y="10" s:pid="in0">
      <text x="-3" y="-4" class="inputPortLabel">0</text>
    </g>
    <g transform="translate(0,30)" s:x="0" s:y="10" s:pid="in0">
      <text x="-3" y="-4" class="inputPortLabel">1</text>
    </g>
    <g transform="translate(0,50)" s:x="0" s:y="10" s:pid="in0">
      <text x="-3" y="-4" class="inputPortLabel">2</text>
    </g>
    <g transform="translate(0,70)" s:x="0" s:y="10" s:pid="in0">
      <text x="-3" y="-4" class="inputPortLabel">3</text>
    </g>
  </g>
  <g s:type="join" transform="translate(96,330.5)" s:width="4" s:height="40" id="cell_$join$,3,4,5,2,">
    <rect width="5" height="40" class="splitjoinBody" s:generic="body"/>
    <s:alias val="$_join_"/>
    <g s:x="5" s:y="20" s:pid="out"/>
    <g transform="translate(0,10)" s:x="0" s:y="10" s:pid="in0">
      <text x="-3" y="-4" class="inputPortLabel">0:2</text>
    </g>
    <g transform="translate(0,30)" s:x="0" s:y="10" s:pid="in0">
      <text x="-3" y="-4" class="inputPortLabel">3</text>
    </g>
  </g>
  <g s:type="join" transform="translate(144,423)" s:width="4" s:height="40" id="cell_$join$,25,3,4,5,2,">
    <rect width="5" height="40" class="splitjoinBody" s:generic="body"/>
    <s:alias val="$_join_"/>
    <g s:x="5" s:y="20" s:pid="out"/>
    <g transform="translate(0,10)" s:x="0" s:y="10" s:pid="in0">
      <text x="-3" y="-4" class="inputPortLabel">0</text>
    </g>
    <g transform="translate(0,30)" s:x="0" s:y="10" s:pid="in0">
      <text x="-3" y="-4" class="inputPortLabel">1:4</text>
    </g>
  </g>
  <g s:type="split" transform="translate(191,268)" s:width="5" s:height="40" id="cell_$split$,25,3,4,5,2,">
    <rect width="5" height="20" class="splitjoinBody" s:generic="body"/>
    <s:alias val="$_split_"/>
    <g s:x="0" s:y="20" s:pid="in"/>
    <g transform="translate(4,10)" s:x="4" s:y="10" s:pid="out0">
      <text x="5" y="-4">0:3</text>
    </g>
  </g>
  <line x1="331" x2="387" y1="125.5" y2="125.5" class="net_14,15,16"/>
  <line x1="331" x2="387" y1="386" y2="386" class="net_18,19,20"/>
  <line x1="332" x2="387" y1="542" y2="542" class="net_22,23"/>
  <line x1="40" x2="80" y1="426" y2="426" class="net_6,7,8,9,10"/>
  <line x1="42" x2="52" y1="163" y2="163" class="net_27,28,29,30"/>
  <line x1="52" x2="52" y1="163" y2="441" class="net_27,28,29,30"/>
  <circle cx="52" cy="163" r="2" style="fill:#000" class="net_27,28,29,30"/>
  <line x1="52" x2="80" y1="441" y2="441" class="net_27,28,29,30"/>
  <line x1="42" x2="254.66666666666666" y1="163" y2="163" class="net_27,28,29,30"/>
  <line x1="656" x2="666" y1="306.5" y2="306.5" class="net_31,32,33"/>
  <line x1="666" x2="666" y1="306.5" y2="351.5" class="net_31,32,33"/>
  <line x1="666" x2="691" y1="351.5" y2="351.5" class="net_31,32,33"/>
  <line x1="656" x2="691" y1="371.5" y2="371.5" class="net_34,35,36,37,38,39,40,41,42,43,44,45"/>
  <line x1="642" x2="701" y1="437" y2="437" class="net_17,21,26,24"/>
  <line x1="701" x2="701" y1="437" y2="376.5" class="net_17,21,26,24"/>
  <line x1="102" x2="112" y1="351" y2="351" class="net_3,4,5,2"/>
  <line x1="112" x2="112" y1="351" y2="72" class="net_3,4,5,2"/>
  <line x1="112" x2="160" y1="72" y2="72" class="net_3,4,5,2"/>
  <line x1="160" x2="160" y1="72" y2="12" class="net_3,4,5,2"/>
  <line x1="160" x2="225" y1="12" y2="12" class="net_3,4,5,2"/>
  <line x1="225" x2="225" y1="12" y2="28" class="net_3,4,5,2"/>
  <circle cx="112" cy="351" r="2" style="fill:#000" class="net_3,4,5,2"/>
  <circle cx="160" cy="72" r="2" style="fill:#000" class="net_3,4,5,2"/>
  <line x1="225" x2="254.66666666666666" y1="28" y2="28" class="net_3,4,5,2"/>
  <line x1="102" x2="160" y1="351" y2="351" class="net_3,4,5,2"/>
  <line x1="160" x2="160" y1="351" y2="192" class="net_3,4,5,2"/>
  <line x1="160" x2="225" y1="192" y2="192" class="net_3,4,5,2"/>
  <line x1="225" x2="225" y1="192" y2="208" class="net_3,4,5,2"/>
  <circle cx="160" cy="351" r="2" style="fill:#000" class="net_3,4,5,2"/>
  <line x1="225" x2="254.66666666666666" y1="208" y2="208" class="net_3,4,5,2"/>
  <line x1="102" x2="225" y1="351" y2="351" class="net_3,4,5,2"/>
  <line x1="225" x2="225" y1="351" y2="408.5" class="net_3,4,5,2"/>
  <line x1="225" x2="254.66666666666666" y1="408.5" y2="408.5" class="net_3,4,5,2"/>
  <line x1="102" x2="112" y1="351" y2="351" class="net_3,4,5,2"/>
  <line x1="112" x2="112" y1="351" y2="72" class="net_3,4,5,2"/>
  <line x1="112" x2="160" y1="72" y2="72" class="net_3,4,5,2"/>
  <line x1="160" x2="160" y1="72" y2="148" class="net_3,4,5,2"/>
  <line x1="160" x2="254.66666666666666" y1="148" y2="148" class="net_3,4,5,2"/>
  <line x1="102" x2="112" y1="351" y2="351" class="net_3,4,5,2"/>
  <line x1="112" x2="112" y1="351" y2="72" class="net_3,4,5,2"/>
  <line x1="112" x2="225" y1="72" y2="72" class="net_3,4,5,2"/>
  <line x1="225" x2="225" y1="72" y2="88" class="net_3,4,5,2"/>
  <line x1="225" x2="254.66666666666666" y1="88" y2="88" class="net_3,4,5,2"/>
  <line x1="102" x2="112" y1="351" y2="351" class="net_3,4,5,2"/>
  <line x1="112" x2="112" y1="351" y2="552" class="net_3,4,5,2"/>
  <line x1="112" x2="250" y1="552" y2="552" class="net_3,4,5,2"/>
  <line x1="102" x2="112" y1="351" y2="351" class="net_3,4,5,2"/>
  <line x1="112" x2="112" y1="351" y2="453.5" class="net_3,4,5,2"/>
  <circle cx="112" cy="453.5" r="2" style="fill:#000" class="net_3,4,5,2"/>
  <line x1="112" x2="144" y1="453.5" y2="453.5" class="net_3,4,5,2"/>
  <line x1="215" x2="254.66666666666666" y1="43" y2="43" class="net_46,47,48,49"/>
  <line x1="215" x2="254.66666666666666" y1="223" y2="223" class="net_50,51"/>
  <line x1="150" x2="355" y1="443.5" y2="443.5" class="net_25,3,4,5,2"/>
  <line x1="355" x2="355" y1="443.5" y2="459.5" class="net_25,3,4,5,2"/>
  <line x1="355" x2="447.3333333333333" y1="459.5" y2="459.5" class="net_25,3,4,5,2"/>
  <line x1="150" x2="225" y1="443.5" y2="443.5" class="net_25,3,4,5,2"/>
  <line x1="225" x2="225" y1="443.5" y2="487" class="net_25,3,4,5,2"/>
  <circle cx="225" cy="443.5" r="2" style="fill:#000" class="net_25,3,4,5,2"/>
  <line x1="225" x2="254.66666666666666" y1="487" y2="487" class="net_25,3,4,5,2"/>
  <line x1="150" x2="170" y1="443.5" y2="443.5" class="net_25,3,4,5,2"/>
  <line x1="170" x2="170" y1="443.5" y2="301" class="net_25,3,4,5,2"/>
  <line x1="170" x2="191.5" y1="301" y2="301" class="net_25,3,4,5,2"/>
  <circle cx="170" cy="443.5" r="2" style="fill:#000" class="net_25,3,4,5,2"/>
  <line x1="191.5" x2="191.5" y1="301" y2="289" class="net_25,3,4,5,2"/>
  <line x1="345" x2="447.3333333333333" y1="474.5" y2="474.5" class="net_52,53,54,55,56"/>
  <line x1="215" x2="254.66666666666666" y1="502" y2="502" class="net_57,58,59"/>
  <line x1="196" x2="225" y1="278.5" y2="278.5" class="net_25,3,4,5"/>
  <line x1="225" x2="225" y1="278.5" y2="316" class="net_25,3,4,5"/>
  <line x1="225" x2="254.66666666666666" y1="316" y2="316" class="net_25,3,4,5"/>
  <line x1="215" x2="254.66666666666666" y1="331" y2="331" class="net_60,61,62"/>
  <line x1="215" x2="254.66666666666666" y1="423.5" y2="423.5" class="net_63"/>
  <line x1="215" x2="254.66666666666666" y1="103" y2="103" class="net_68,69,70,71"/>
  <line x1="711" x2="746" y1="361.5" y2="361.5" class="net_11,12,13"/>
  <line x1="276.66666666666663" x2="300" y1="35.5" y2="35.5" class="net_14"/>
  <line x1="300" x2="300" y1="35.5" y2="115.5" class="net_14"/>
  <line x1="300" x2="325" y1="115.5" y2="115.5" class="net_14"/>
  <line x1="276.66666666666663" x2="290" y1="95.5" y2="95.5" class="net_15"/>
  <line x1="290" x2="290" y1="95.5" y2="135.5" class="net_15"/>
  <line x1="290" x2="325" y1="135.5" y2="135.5" class="net_15"/>
  <line x1="276.66666666666663" x2="325" y1="155.5" y2="155.5" class="net_16"/>
  <line x1="276.66666666666663" x2="300" y1="215.5" y2="215.5" class="net_18"/>
  <line x1="300" x2="300" y1="215.5" y2="376" class="net_18"/>
  <line x1="300" x2="325" y1="376" y2="376" class="net_18"/>
  <line x1="276.66666666666663" x2="290" y1="323.5" y2="323.5" class="net_19"/>
  <line x1="290" x2="290" y1="323.5" y2="396" class="net_19"/>
  <line x1="290" x2="325" y1="396" y2="396" class="net_19"/>
  <line x1="276.66666666666663" x2="325" y1="416" y2="416" class="net_20"/>
  <line x1="276.66666666666663" x2="290" y1="494.5" y2="494.5" class="net_22"/>
  <line x1="290" x2="290" y1="494.5" y2="532" class="net_22"/>
  <line x1="290" x2="326" y1="532" y2="532" class="net_22"/>
  <line x1="275" x2="326" y1="552" y2="552" class="net_23"/>
  <line x1="418" x2="611" y1="125.5" y2="125.5" class="net_17"/>
  <line x1="611" x2="611" y1="125.5" y2="427" class="net_17"/>
  <line x1="611" x2="636" y1="427" y2="427" class="net_17"/>
  <line x1="418" x2="601" y1="386" y2="386" class="net_21"/>
  <line x1="601" x2="601" y1="386" y2="447" class="net_21"/>
  <line x1="601" x2="636" y1="447" y2="447" class="net_21"/>
  <line x1="469.3333333333333" x2="636" y1="467" y2="467" class="net_26"/>
  <line x1="418" x2="636.5" y1="542" y2="542" class="net_24"/>
  <line x1="636.5" x2="636.5" y1="542" y2="487.5" class="net_24"/>
  <line x1="40" x2="62" y1="98" y2="98" class="net_3,4,5"/>
  <line x1="62" x2="62" y1="98" y2="341" class="net_3,4,5"/>
  <line x1="62" x2="96" y1="341" y2="341" class="net_3,4,5"/>
  <line x1="40" x2="96" y1="361" y2="361" class="net_2"/>
  <line x1="102" x2="144" y1="433.5" y2="433.5" class="net_25"/>
</svg>
