<svg xmlns="http://www.w3.org/2000/svg" xmlns:xlink="http://www.w3.org/1999/xlink" xmlns:s="https://github.com/nturley/netlistsvg" width="916" height="801.5">
  <style>svg {
    stroke:#000;
    fill:none;
  }
  text {
    fill:#000;
    stroke:none;
    font-size:10px;
    font-weight: bold;
    font-family: "Courier New", monospace;
  }
  .nodelabel {
    text-anchor: middle;
  }
  .inputPortLabel {
    text-anchor: end;
  }
  .splitjoinBody {
    fill:#000;
  }</style>
  <g s:type="add" transform="translate(377,267)" s:width="25" s:height="25" id="cell_$add$top_module.v:121$5">
    <s:alias val="$add"/>
    <circle r="12.5" cx="12.5" cy="12.5" class="cell_$add$top_module.v:121$5"/>
    <line x1="7.5" x2="17.5" y1="12.5" y2="12.5" class="cell_$add$top_module.v:121$5"/>
    <line x1="12.5" x2="12.5" y1="7.5" y2="17.5" class="cell_$add$top_module.v:121$5"/>
    <g s:x="3" s:y="5" s:pid="A"/>
    <g s:x="3" s:y="20" s:pid="B"/>
    <g s:x="25" s:y="12.5" s:pid="Y"/>
  </g>
  <g s:type="lt" transform="translate(377,466.5)" s:width="25" s:height="25" id="cell_$lt$top_module.v:121$4">
    <s:alias val="$lt"/>
    <circle r="12.5" cx="12.5" cy="12.5" class="cell_$lt$top_module.v:121$4"/>
    <line x1="7.5" x2="17.5" y1="12.5" y2="7.5" class="cell_$lt$top_module.v:121$4"/>
    <line x1="7.5" x2="17.5" y1="12.5" y2="17.5" class="cell_$lt$top_module.v:121$4"/>
    <g s:x="3" s:y="5" s:pid="A"/>
    <g s:x="3" s:y="20" s:pid="B"/>
    <g s:x="25" s:y="12.5" s:pid="Y"/>
  </g>
  <g s:type="dff" transform="translate(247,647.5)" s:width="30" s:height="40" id="cell_$procdff$34">
    <s:alias val="$dff"/>
    <s:alias val="$_DFF_"/>
    <s:alias val="$_DFF_P_"/>
    <rect width="30" height="40" x="0" y="0" class="cell_$procdff$34"/>
    <path d="M0,35 L5,30 L0,25" class="cell_$procdff$34"/>
    <g s:x="30" s:y="10" s:pid="Q"/>
    <g s:x="0" s:y="30" s:pid="CLK"/>
    <g s:x="0" s:y="30" s:pid="C"/>
    <g s:x="0" s:y="10" s:pid="D"/>
  </g>
  <g s:type="dff" transform="translate(809,255)" s:width="30" s:height="40" id="cell_$procdff$35">
    <s:alias val="$dff"/>
    <s:alias val="$_DFF_"/>
    <s:alias val="$_DFF_P_"/>
    <rect width="30" height="40" x="0" y="0" class="cell_$procdff$35"/>
    <path d="M0,35 L5,30 L0,25" class="cell_$procdff$35"/>
    <g s:x="30" s:y="10" s:pid="Q"/>
    <g s:x="0" s:y="30" s:pid="CLK"/>
    <g s:x="0" s:y="30" s:pid="C"/>
    <g s:x="0" s:y="10" s:pid="D"/>
  </g>
  <g s:type="dff" transform="translate(809,43)" s:width="30" s:height="40" id="cell_$procdff$36">
    <s:alias val="$dff"/>
    <s:alias val="$_DFF_"/>
    <s:alias val="$_DFF_P_"/>
    <rect width="30" height="40" x="0" y="0" class="cell_$procdff$36"/>
    <path d="M0,35 L5,30 L0,25" class="cell_$procdff$36"/>
    <g s:x="30" s:y="10" s:pid="Q"/>
    <g s:x="0" s:y="30" s:pid="CLK"/>
    <g s:x="0" s:y="30" s:pid="C"/>
    <g s:x="0" s:y="10" s:pid="D"/>
  </g>
  <g s:type="mux" transform="translate(639,195)" s:width="20" s:height="40" id="cell_$procmux$11">
    <s:alias val="$pmux"/>
    <s:alias val="$mux"/>
    <s:alias val="$_MUX_"/>
    <path d="M0,0 L20,10 L20,30 L0,40 Z" class="cell_$procmux$11"/>
    <g s:x="0" s:y="10" s:pid="A"/>
    <g s:x="0" s:y="30" s:pid="B"/>
    <g s:x="10" s:y="35" s:pid="S"/>
    <g s:x="20" s:y="20" s:pid="Y"/>
  </g>
  <g s:type="mux" transform="translate(694,124)" s:width="20" s:height="40" id="cell_$procmux$14">
    <s:alias val="$pmux"/>
    <s:alias val="$mux"/>
    <s:alias val="$_MUX_"/>
    <path d="M0,0 L20,10 L20,30 L0,40 Z" class="cell_$procmux$14"/>
    <g s:x="0" s:y="10" s:pid="A"/>
    <g s:x="0" s:y="30" s:pid="B"/>
    <g s:x="10" s:y="35" s:pid="S"/>
    <g s:x="20" s:y="20" s:pid="Y"/>
  </g>
  <g s:type="mux" transform="translate(639,64)" s:width="20" s:height="40" id="cell_$procmux$16">
    <s:alias val="$pmux"/>
    <s:alias val="$mux"/>
    <s:alias val="$_MUX_"/>
    <path d="M0,0 L20,10 L20,30 L0,40 Z" class="cell_$procmux$16"/>
    <g s:x="0" s:y="10" s:pid="A"/>
    <g s:x="0" s:y="30" s:pid="B"/>
    <g s:x="10" s:y="35" s:pid="S"/>
    <g s:x="20" s:y="20" s:pid="Y"/>
  </g>
  <g s:type="mux" transform="translate(694,23)" s:width="20" s:height="40" id="cell_$procmux$19">
    <s:alias val="$pmux"/>
    <s:alias val="$mux"/>
    <s:alias val="$_MUX_"/>
    <path d="M0,0 L20,10 L20,30 L0,40 Z" class="cell_$procmux$19"/>
    <g s:x="0" s:y="10" s:pid="A"/>
    <g s:x="0" s:y="30" s:pid="B"/>
    <g s:x="10" s:y="35" s:pid="S"/>
    <g s:x="20" s:y="20" s:pid="Y"/>
  </g>
  <g s:type="mux" transform="translate(639,344)" s:width="20" s:height="40" id="cell_$procmux$21">
    <s:alias val="$pmux"/>
    <s:alias val="$mux"/>
    <s:alias val="$_MUX_"/>
    <path d="M0,0 L20,10 L20,30 L0,40 Z" class="cell_$procmux$21"/>
    <g s:x="0" s:y="10" s:pid="A"/>
    <g s:x="0" s:y="30" s:pid="B"/>
    <g s:x="10" s:y="35" s:pid="S"/>
    <g s:x="20" s:y="20" s:pid="Y"/>
  </g>
  <g s:type="eq" transform="translate(187,517.5)" s:width="25" s:height="25" id="cell_$procmux$22_CMP0">
    <s:alias val="$eq"/>
    <circle r="12.5" cx="12.5" cy="12.5" class="cell_$procmux$22_CMP0"/>
    <line x1="7.5" x2="17.5" y1="10" y2="10" class="cell_$procmux$22_CMP0"/>
    <line x1="7.5" x2="17.5" y1="15" y2="15" class="cell_$procmux$22_CMP0"/>
    <g s:x="3" s:y="5" s:pid="A"/>
    <g s:x="3" s:y="20" s:pid="B"/>
    <g s:x="25" s:y="12.5" s:pid="Y"/>
  </g>
  <g s:type="generic" transform="translate(444,664.5)" s:width="30" s:height="40" id="cell_$procmux$23_ANY">
    <text x="15" y="-4" class="nodelabel cell_$procmux$23_ANY" s:attribute="ref">$reduce_or</text>
    <rect width="30" height="20" s:generic="body" class="cell_$procmux$23_ANY"/>
    <g transform="translate(0,10)" s:x="0" s:y="10" s:pid="in0" id="port_$procmux$23_ANY~A">
      <text x="-3" y="-4" class="inputPortLabel cell_$procmux$23_ANY">A</text>
    </g>
    <g transform="translate(30,10)" s:x="30" s:y="10" s:pid="out0" id="port_$procmux$23_ANY~Y">
      <text x="5" y="-4" style="fill:#000; stroke:none" class="cell_$procmux$23_ANY">Y</text>
    </g>
  </g>
  <g s:type="eq" transform="translate(313.6666666666667,652.5)" s:width="25" s:height="25" id="cell_$procmux$23_CMP0">
    <s:alias val="$eq"/>
    <circle r="12.5" cx="12.5" cy="12.5" class="cell_$procmux$23_CMP0"/>
    <line x1="7.5" x2="17.5" y1="10" y2="10" class="cell_$procmux$23_CMP0"/>
    <line x1="7.5" x2="17.5" y1="15" y2="15" class="cell_$procmux$23_CMP0"/>
    <g s:x="3" s:y="5" s:pid="A"/>
    <g s:x="3" s:y="20" s:pid="B"/>
    <g s:x="25" s:y="12.5" s:pid="Y"/>
  </g>
  <g s:type="eq" transform="translate(187,748.5)" s:width="25" s:height="25" id="cell_$procmux$23_CMP1">
    <s:alias val="$eq"/>
    <circle r="12.5" cx="12.5" cy="12.5" class="cell_$procmux$23_CMP1"/>
    <line x1="7.5" x2="17.5" y1="10" y2="10" class="cell_$procmux$23_CMP1"/>
    <line x1="7.5" x2="17.5" y1="15" y2="15" class="cell_$procmux$23_CMP1"/>
    <g s:x="3" s:y="5" s:pid="A"/>
    <g s:x="3" s:y="20" s:pid="B"/>
    <g s:x="25" s:y="12.5" s:pid="Y"/>
  </g>
  <g s:type="mux" transform="translate(694,334)" s:width="20" s:height="40" id="cell_$procmux$24">
    <s:alias val="$pmux"/>
    <s:alias val="$mux"/>
    <s:alias val="$_MUX_"/>
    <path d="M0,0 L20,10 L20,30 L0,40 Z" class="cell_$procmux$24"/>
    <g s:x="0" s:y="10" s:pid="A"/>
    <g s:x="0" s:y="30" s:pid="B"/>
    <g s:x="10" s:y="35" s:pid="S"/>
    <g s:x="20" s:y="20" s:pid="Y"/>
  </g>
  <g s:type="mux" transform="translate(751.6666666666666,344)" s:width="20" s:height="40" id="cell_$procmux$27">
    <s:alias val="$pmux"/>
    <s:alias val="$mux"/>
    <s:alias val="$_MUX_"/>
    <path d="M0,0 L20,10 L20,30 L0,40 Z" class="cell_$procmux$27"/>
    <g s:x="0" s:y="10" s:pid="A"/>
    <g s:x="0" s:y="30" s:pid="B"/>
    <g s:x="10" s:y="35" s:pid="S"/>
    <g s:x="20" s:y="20" s:pid="Y"/>
  </g>
  <g s:type="mux" transform="translate(113.66666666666667,688.5)" s:width="20" s:height="40" id="cell_$procmux$29">
    <s:alias val="$pmux"/>
    <s:alias val="$mux"/>
    <s:alias val="$_MUX_"/>
    <path d="M0,0 L20,10 L20,30 L0,40 Z" class="cell_$procmux$29"/>
    <g s:x="0" s:y="10" s:pid="A"/>
    <g s:x="0" s:y="30" s:pid="B"/>
    <g s:x="10" s:y="35" s:pid="S"/>
    <g s:x="20" s:y="20" s:pid="Y"/>
  </g>
  <g s:type="mux" transform="translate(188.66666666666666,577.5)" s:width="20" s:height="40" id="cell_$procmux$32">
    <s:alias val="$pmux"/>
    <s:alias val="$mux"/>
    <s:alias val="$_MUX_"/>
    <path d="M0,0 L20,10 L20,30 L0,40 Z" class="cell_$procmux$32"/>
    <g s:x="0" s:y="10" s:pid="A"/>
    <g s:x="0" s:y="30" s:pid="B"/>
    <g s:x="10" s:y="35" s:pid="S"/>
    <g s:x="20" s:y="20" s:pid="Y"/>
  </g>
  <g s:type="mux" transform="translate(468.3333333333333,429)" s:width="20" s:height="40" id="cell_$ternary$top_module.v:121$6">
    <s:alias val="$pmux"/>
    <s:alias val="$mux"/>
    <s:alias val="$_MUX_"/>
    <path d="M0,0 L20,10 L20,30 L0,40 Z" class="cell_$ternary$top_module.v:121$6"/>
    <g s:x="0" s:y="10" s:pid="A"/>
    <g s:x="0" s:y="30" s:pid="B"/>
    <g s:x="10" s:y="35" s:pid="S"/>
    <g s:x="20" s:y="20" s:pid="Y"/>
  </g>
  <g s:type="inputExt" transform="translate(12,164)" s:width="30" s:height="20" id="cell_clk">
    <text x="15" y="-4" class="nodelabel cell_clk" s:attribute="ref">clk</text>
    <s:alias val="$_inputExt_"/>
    <path d="M0,0 L0,20 L15,20 L30,10 L15,0 Z" class="cell_clk"/>
    <g s:x="28" s:y="10" s:pid="Y"/>
  </g>
  <g s:type="inputExt" transform="translate(569,215)" s:width="30" s:height="20" id="cell_in">
    <text x="15" y="-4" class="nodelabel cell_in" s:attribute="ref">in</text>
    <s:alias val="$_inputExt_"/>
    <path d="M0,0 L0,20 L15,20 L30,10 L15,0 Z" class="cell_in"/>
    <g s:x="28" s:y="10" s:pid="Y"/>
  </g>
  <g s:type="inputExt" transform="translate(107,303)" s:width="30" s:height="20" id="cell_reset">
    <text x="15" y="-4" class="nodelabel cell_reset" s:attribute="ref">reset</text>
    <s:alias val="$_inputExt_"/>
    <path d="M0,0 L0,20 L15,20 L30,10 L15,0 Z" class="cell_reset"/>
    <g s:x="28" s:y="10" s:pid="Y"/>
  </g>
  <g s:type="inputExt" transform="translate(12,708.5)" s:width="30" s:height="20" id="cell_next_state">
    <text x="15" y="-4" class="nodelabel cell_next_state" s:attribute="ref">next_state</text>
    <s:alias val="$_inputExt_"/>
    <path d="M0,0 L0,20 L15,20 L30,10 L15,0 Z" class="cell_next_state"/>
    <g s:x="28" s:y="10" s:pid="Y"/>
  </g>
  <g s:type="outputExt" transform="translate(874,255)" s:width="30" s:height="20" id="cell_bits">
    <text x="15" y="-4" class="nodelabel cell_bits" s:attribute="ref">bits</text>
    <s:alias val="$_outputExt_"/>
    <path d="M30,0 L30,20 L15,20 L0,10 L15,0 Z" class="cell_bits"/>
    <g s:x="0" s:y="10" s:pid="A"/>
  </g>
  <g s:type="outputExt" transform="translate(874,762)" s:width="30" s:height="20" id="cell_state">
    <text x="15" y="-4" class="nodelabel cell_state" s:attribute="ref">state</text>
    <s:alias val="$_outputExt_"/>
    <path d="M30,0 L30,20 L15,20 L0,10 L15,0 Z" class="cell_state"/>
    <g s:x="0" s:y="10" s:pid="A"/>
  </g>
  <g s:type="outputExt" transform="translate(874,43)" s:width="30" s:height="20" id="cell_data">
    <text x="15" y="-4" class="nodelabel cell_data" s:attribute="ref">data</text>
    <s:alias val="$_outputExt_"/>
    <path d="M30,0 L30,20 L15,20 L0,10 L15,0 Z" class="cell_data"/>
    <g s:x="0" s:y="10" s:pid="A"/>
  </g>
  <g s:type="constant" transform="translate(247,354)" s:width="30" s:height="20" id="cell_1">
    <text x="15" y="-4" class="nodelabel cell_1" s:attribute="ref">1</text>
    <s:alias val="$_constant_"/>
    <rect width="30" height="20" class="cell_1"/>
    <g s:x="30" s:y="10" s:pid="Y"/>
  </g>
  <g s:type="constant" transform="translate(312,476.5)" s:width="30" s:height="20" id="cell_1001">
    <text x="15" y="-4" class="nodelabel cell_1001" s:attribute="ref">0x9</text>
    <s:alias val="$_constant_"/>
    <rect width="30" height="20" class="cell_1001"/>
    <g s:x="30" s:y="10" s:pid="Y"/>
  </g>
  <g s:type="constant" transform="translate(444,374)" s:width="30" s:height="20" id="cell_00000">
    <text x="15" y="-4" class="nodelabel cell_00000" s:attribute="ref">0x0</text>
    <s:alias val="$_constant_"/>
    <rect width="30" height="20" class="cell_00000"/>
    <g s:x="30" s:y="10" s:pid="Y"/>
  </g>
  <g s:type="constant" transform="translate(107,527.5)" s:width="30" s:height="20" id="cell_10">
    <text x="15" y="-4" class="nodelabel cell_10" s:attribute="ref">10</text>
    <s:alias val="$_constant_"/>
    <rect width="30" height="20" class="cell_10"/>
    <g s:x="30" s:y="10" s:pid="Y"/>
  </g>
  <g s:type="constant" transform="translate(107,758.5)" s:width="30" s:height="20" id="cell_11">
    <text x="15" y="-4" class="nodelabel cell_11" s:attribute="ref">11</text>
    <s:alias val="$_constant_"/>
    <rect width="30" height="20" class="cell_11"/>
    <g s:x="30" s:y="10" s:pid="Y"/>
  </g>
  <g s:type="constant" transform="translate(107,597.5)" s:width="30" s:height="20" id="cell_001">
    <text x="15" y="-4" class="nodelabel cell_001" s:attribute="ref">001</text>
    <s:alias val="$_constant_"/>
    <rect width="30" height="20" class="cell_001"/>
    <g s:x="30" s:y="10" s:pid="Y"/>
  </g>
  <g s:type="join" transform="translate(768,32.5)" s:width="4" s:height="40" id="cell_$join$,40,41,42,43,44,45,46,47,48,49,">
    <rect width="5" height="40" class="splitjoinBody" s:generic="body"/>
    <s:alias val="$_join_"/>
    <g s:x="5" s:y="20" s:pid="out"/>
    <g transform="translate(0,10)" s:x="0" s:y="10" s:pid="in0">
      <text x="-3" y="-4" class="inputPortLabel">0:8</text>
    </g>
    <g transform="translate(0,30)" s:x="0" s:y="10" s:pid="in0">
      <text x="-3" y="-4" class="inputPortLabel">9</text>
    </g>
  </g>
  <g s:type="join" transform="translate(588,353.5)" s:width="4" s:height="40" id="cell_$join$,60,61,62,63,64,87,88,89,90,91,">
    <rect width="5" height="40" class="splitjoinBody" s:generic="body"/>
    <s:alias val="$_join_"/>
    <g s:x="5" s:y="20" s:pid="out"/>
    <g transform="translate(0,10)" s:x="0" s:y="10" s:pid="in0">
      <text x="-3" y="-4" class="inputPortLabel">0:4</text>
    </g>
    <g transform="translate(0,30)" s:x="0" s:y="10" s:pid="in0">
      <text x="-3" y="-4" class="inputPortLabel">5:9</text>
    </g>
  </g>
  <g s:type="join" transform="translate(584,519.5)" s:width="4" s:height="40" id="cell_$join$,65,66,">
    <rect width="5" height="40" class="splitjoinBody" s:generic="body"/>
    <s:alias val="$_join_"/>
    <g s:x="5" s:y="20" s:pid="out"/>
    <g transform="translate(0,10)" s:x="0" s:y="10" s:pid="in0">
      <text x="-3" y="-4" class="inputPortLabel">0</text>
    </g>
    <g transform="translate(0,30)" s:x="0" s:y="10" s:pid="in0">
      <text x="-3" y="-4" class="inputPortLabel">1</text>
    </g>
  </g>
  <g s:type="join" transform="translate(386.3333333333333,654.5)" s:width="4" s:height="40" id="cell_$join$,72,73,">
    <rect width="5" height="40" class="splitjoinBody" s:generic="body"/>
    <s:alias val="$_join_"/>
    <g s:x="5" s:y="20" s:pid="out"/>
    <g transform="translate(0,10)" s:x="0" s:y="10" s:pid="in0">
      <text x="-3" y="-4" class="inputPortLabel">0</text>
    </g>
    <g transform="translate(0,30)" s:x="0" s:y="10" s:pid="in0">
      <text x="-3" y="-4" class="inputPortLabel">1</text>
    </g>
  </g>
  <g s:type="split" transform="translate(587,22.5)" s:width="5" s:height="40" id="cell_$split$,16,17,18,19,20,21,22,23,24,25,">
    <rect width="5" height="60" class="splitjoinBody" s:generic="body"/>
    <s:alias val="$_split_"/>
    <g s:x="0" s:y="20" s:pid="in"/>
    <g transform="translate(4,10)" s:x="4" s:y="10" s:pid="out0">
      <text x="5" y="-4">9</text>
    </g>
    <g transform="translate(4,30)" s:x="4" s:y="10" s:pid="out0">
      <text x="5" y="-4">0:8</text>
    </g>
    <g transform="translate(4,50)" s:x="4" s:y="10" s:pid="out0">
      <text x="5" y="-4">1:9</text>
    </g>
  </g>
  <line x1="839" x2="849" y1="265" y2="265" class="net_8,9,10,11,12"/>
  <line x1="849" x2="849" y1="265" y2="245" class="net_8,9,10,11,12"/>
  <line x1="849" x2="352" y1="245" y2="245" class="net_8,9,10,11,12"/>
  <line x1="352" x2="352" y1="245" y2="272" class="net_8,9,10,11,12"/>
  <circle cx="849" cy="265" r="2" style="fill:#000" class="net_8,9,10,11,12"/>
  <line x1="352" x2="380" y1="272" y2="272" class="net_8,9,10,11,12"/>
  <line x1="839" x2="849" y1="265" y2="265" class="net_8,9,10,11,12"/>
  <line x1="849" x2="849" y1="265" y2="697.5" class="net_8,9,10,11,12"/>
  <line x1="849" x2="794" y1="697.5" y2="697.5" class="net_8,9,10,11,12"/>
  <line x1="794" x2="794" y1="697.5" y2="302" class="net_8,9,10,11,12"/>
  <line x1="794" x2="362" y1="302" y2="302" class="net_8,9,10,11,12"/>
  <line x1="362" x2="362" y1="302" y2="471.5" class="net_8,9,10,11,12"/>
  <circle cx="794" cy="697.5" r="2" style="fill:#000" class="net_8,9,10,11,12"/>
  <line x1="362" x2="380" y1="471.5" y2="471.5" class="net_8,9,10,11,12"/>
  <line x1="839" x2="849" y1="265" y2="265" class="net_8,9,10,11,12"/>
  <line x1="849" x2="849" y1="265" y2="697.5" class="net_8,9,10,11,12"/>
  <line x1="849" x2="609" y1="697.5" y2="697.5" class="net_8,9,10,11,12"/>
  <line x1="609" x2="609" y1="697.5" y2="354" class="net_8,9,10,11,12"/>
  <circle cx="609" cy="697.5" r="2" style="fill:#000" class="net_8,9,10,11,12"/>
  <line x1="609" x2="639" y1="354" y2="354" class="net_8,9,10,11,12"/>
  <line x1="839" x2="849" y1="265" y2="265" class="net_8,9,10,11,12"/>
  <line x1="849" x2="849" y1="265" y2="697.5" class="net_8,9,10,11,12"/>
  <line x1="849" x2="794" y1="697.5" y2="697.5" class="net_8,9,10,11,12"/>
  <line x1="794" x2="794" y1="697.5" y2="394" class="net_8,9,10,11,12"/>
  <line x1="794" x2="669" y1="394" y2="394" class="net_8,9,10,11,12"/>
  <line x1="669" x2="669" y1="394" y2="344" class="net_8,9,10,11,12"/>
  <circle cx="794" cy="394" r="2" style="fill:#000" class="net_8,9,10,11,12"/>
  <line x1="669" x2="694" y1="344" y2="344" class="net_8,9,10,11,12"/>
  <line x1="839" x2="849" y1="265" y2="265" class="net_8,9,10,11,12"/>
  <line x1="849" x2="849" y1="265" y2="697.5" class="net_8,9,10,11,12"/>
  <line x1="849" x2="724" y1="697.5" y2="697.5" class="net_8,9,10,11,12"/>
  <line x1="724" x2="724" y1="697.5" y2="374" class="net_8,9,10,11,12"/>
  <circle cx="724" cy="697.5" r="2" style="fill:#000" class="net_8,9,10,11,12"/>
  <line x1="724" x2="751.6666666666666" y1="374" y2="374" class="net_8,9,10,11,12"/>
  <line x1="839" x2="849" y1="265" y2="265" class="net_8,9,10,11,12"/>
  <line x1="849" x2="849" y1="265" y2="697.5" class="net_8,9,10,11,12"/>
  <line x1="849" x2="412" y1="697.5" y2="697.5" class="net_8,9,10,11,12"/>
  <line x1="412" x2="412" y1="697.5" y2="439" class="net_8,9,10,11,12"/>
  <line x1="412" x2="468.3333333333333" y1="439" y2="439" class="net_8,9,10,11,12"/>
  <line x1="839" x2="874" y1="265" y2="265" class="net_8,9,10,11,12"/>
  <line x1="277" x2="297" y1="364" y2="364" class="net_82"/>
  <line x1="297" x2="297" y1="364" y2="287" class="net_82"/>
  <circle cx="297" cy="364" r="2" style="fill:#000" class="net_82"/>
  <line x1="297" x2="380" y1="287" y2="287" class="net_82"/>
  <line x1="277" x2="297" y1="364" y2="364" class="net_82"/>
  <line x1="297" x2="297" y1="364" y2="672.5" class="net_82"/>
  <line x1="297" x2="316.6666666666667" y1="672.5" y2="672.5" class="net_82"/>
  <line x1="342" x2="380" y1="486.5" y2="486.5" class="net_83,84,85,86"/>
  <line x1="40" x2="92" y1="174" y2="174" class="net_2"/>
  <line x1="92" x2="92" y1="174" y2="677.5" class="net_2"/>
  <circle cx="92" cy="174" r="2" style="fill:#000" class="net_2"/>
  <circle cx="92" cy="677.5" r="2" style="fill:#000" class="net_2"/>
  <line x1="92" x2="247" y1="677.5" y2="677.5" class="net_2"/>
  <line x1="40" x2="362" y1="174" y2="174" class="net_2"/>
  <line x1="362" x2="362" y1="174" y2="256" class="net_2"/>
  <line x1="362" x2="609" y1="256" y2="256" class="net_2"/>
  <line x1="609" x2="609" y1="256" y2="285" class="net_2"/>
  <circle cx="609" cy="256" r="2" style="fill:#000" class="net_2"/>
  <line x1="609" x2="809" y1="285" y2="285" class="net_2"/>
  <line x1="40" x2="784" y1="174" y2="174" class="net_2"/>
  <line x1="784" x2="784" y1="174" y2="73" class="net_2"/>
  <line x1="784" x2="809" y1="73" y2="73" class="net_2"/>
  <line x1="40" x2="362" y1="174" y2="174" class="net_2"/>
  <line x1="362" x2="362" y1="174" y2="256" class="net_2"/>
  <line x1="362" x2="649" y1="256" y2="256" class="net_2"/>
  <circle cx="362" cy="174" r="2" style="fill:#000" class="net_2"/>
  <line x1="649" x2="649" y1="256" y2="230" class="net_2"/>
  <line x1="40" x2="619" y1="174" y2="174" class="net_2"/>
  <line x1="619" x2="619" y1="174" y2="185" class="net_2"/>
  <line x1="619" x2="649" y1="185" y2="185" class="net_2"/>
  <circle cx="619" cy="174" r="2" style="fill:#000" class="net_2"/>
  <line x1="649" x2="649" y1="185" y2="99" class="net_2"/>
  <line x1="40" x2="92" y1="174" y2="174" class="net_2"/>
  <line x1="92" x2="92" y1="174" y2="333" class="net_2"/>
  <line x1="92" x2="679" y1="333" y2="333" class="net_2"/>
  <line x1="679" x2="679" y1="333" y2="384" class="net_2"/>
  <line x1="679" x2="704" y1="384" y2="384" class="net_2"/>
  <circle cx="92" cy="333" r="2" style="fill:#000" class="net_2"/>
  <line x1="704" x2="704" y1="384" y2="369" class="net_2"/>
  <line x1="40" x2="92" y1="174" y2="174" class="net_2"/>
  <line x1="92" x2="92" y1="174" y2="738.5" class="net_2"/>
  <line x1="92" x2="123.66666666666667" y1="738.5" y2="738.5" class="net_2"/>
  <line x1="123.66666666666667" x2="123.66666666666667" y1="738.5" y2="723.5" class="net_2"/>
  <line x1="208.66666666666666" x2="222" y1="597.5" y2="597.5" class="net_32,33,34"/>
  <line x1="222" x2="222" y1="597.5" y2="657.5" class="net_32,33,34"/>
  <line x1="222" x2="247" y1="657.5" y2="657.5" class="net_32,33,34"/>
  <line x1="771.6666666666666" x2="784" y1="364" y2="364" class="net_35,36,37,38,39"/>
  <line x1="784" x2="784" y1="364" y2="265" class="net_35,36,37,38,39"/>
  <line x1="784" x2="809" y1="265" y2="265" class="net_35,36,37,38,39"/>
  <line x1="774" x2="809" y1="53" y2="53" class="net_40,41,42,43,44,45,46,47,48,49"/>
  <line x1="592" x2="609" y1="33" y2="33" class="net_25"/>
  <line x1="609" x2="609" y1="33" y2="205" class="net_25"/>
  <line x1="609" x2="639" y1="205" y2="205" class="net_25"/>
  <line x1="592" x2="609" y1="33" y2="33" class="net_25"/>
  <line x1="609" x2="609" y1="33" y2="154" class="net_25"/>
  <circle cx="609" cy="154" r="2" style="fill:#000" class="net_25"/>
  <line x1="609" x2="694" y1="154" y2="154" class="net_25"/>
  <line x1="597" x2="639" y1="225" y2="225" class="net_3"/>
  <line x1="659" x2="669" y1="215" y2="215" class="net_50"/>
  <line x1="669" x2="669" y1="215" y2="134" class="net_50"/>
  <line x1="669" x2="694" y1="134" y2="134" class="net_50"/>
  <line x1="135" x2="704" y1="313" y2="313" class="net_4"/>
  <line x1="704" x2="704" y1="313" y2="159" class="net_4"/>
  <line x1="135" x2="177" y1="313" y2="313" class="net_4"/>
  <line x1="177" x2="177" y1="313" y2="114" class="net_4"/>
  <line x1="177" x2="704" y1="114" y2="114" class="net_4"/>
  <circle cx="177" cy="313" r="2" style="fill:#000" class="net_4"/>
  <line x1="704" x2="704" y1="114" y2="58" class="net_4"/>
  <line x1="135" x2="177" y1="313" y2="313" class="net_4"/>
  <line x1="177" x2="177" y1="313" y2="506.5" class="net_4"/>
  <line x1="177" x2="761.6666666666666" y1="506.5" y2="506.5" class="net_4"/>
  <circle cx="177" cy="506.5" r="2" style="fill:#000" class="net_4"/>
  <line x1="761.6666666666666" x2="761.6666666666666" y1="506.5" y2="379" class="net_4"/>
  <line x1="135" x2="177" y1="313" y2="313" class="net_4"/>
  <line x1="177" x2="177" y1="313" y2="627.5" class="net_4"/>
  <line x1="177" x2="198.66666666666666" y1="627.5" y2="627.5" class="net_4"/>
  <line x1="198.66666666666666" x2="198.66666666666666" y1="627.5" y2="612.5" class="net_4"/>
  <line x1="592" x2="629" y1="53" y2="53" class="net_16,17,18,19,20,21,22,23,24"/>
  <line x1="629" x2="629" y1="53" y2="74" class="net_16,17,18,19,20,21,22,23,24"/>
  <circle cx="629" cy="53" r="2" style="fill:#000" class="net_16,17,18,19,20,21,22,23,24"/>
  <line x1="629" x2="639" y1="74" y2="74" class="net_16,17,18,19,20,21,22,23,24"/>
  <line x1="592" x2="694" y1="53" y2="53" class="net_16,17,18,19,20,21,22,23,24"/>
  <line x1="592" x2="619" y1="73" y2="73" class="net_17,18,19,20,21,22,23,24,25"/>
  <line x1="619" x2="619" y1="73" y2="94" class="net_17,18,19,20,21,22,23,24,25"/>
  <line x1="619" x2="639" y1="94" y2="94" class="net_17,18,19,20,21,22,23,24,25"/>
  <line x1="659" x2="669" y1="84" y2="84" class="net_51,52,53,54,55,56,57,58,59"/>
  <line x1="669" x2="669" y1="84" y2="33" class="net_51,52,53,54,55,56,57,58,59"/>
  <line x1="669" x2="694" y1="33" y2="33" class="net_51,52,53,54,55,56,57,58,59"/>
  <line x1="594" x2="639" y1="374" y2="374" class="net_60,61,62,63,64,87,88,89,90,91"/>
  <line x1="590" x2="649" y1="540" y2="540" class="net_65,66"/>
  <line x1="649" x2="649" y1="540" y2="379" class="net_65,66"/>
  <line x1="277" x2="287" y1="657.5" y2="657.5" class="net_13,14,15"/>
  <line x1="287" x2="287" y1="657.5" y2="697.5" class="net_13,14,15"/>
  <line x1="287" x2="167" y1="697.5" y2="697.5" class="net_13,14,15"/>
  <line x1="167" x2="167" y1="697.5" y2="522.5" class="net_13,14,15"/>
  <circle cx="287" cy="697.5" r="2" style="fill:#000" class="net_13,14,15"/>
  <line x1="167" x2="190" y1="522.5" y2="522.5" class="net_13,14,15"/>
  <line x1="277" x2="316.6666666666667" y1="657.5" y2="657.5" class="net_13,14,15"/>
  <line x1="277" x2="287" y1="657.5" y2="657.5" class="net_13,14,15"/>
  <line x1="287" x2="287" y1="657.5" y2="637.5" class="net_13,14,15"/>
  <line x1="287" x2="157" y1="637.5" y2="637.5" class="net_13,14,15"/>
  <line x1="157" x2="157" y1="637.5" y2="753.5" class="net_13,14,15"/>
  <circle cx="287" cy="657.5" r="2" style="fill:#000" class="net_13,14,15"/>
  <line x1="157" x2="190" y1="753.5" y2="753.5" class="net_13,14,15"/>
  <line x1="277" x2="287" y1="657.5" y2="657.5" class="net_13,14,15"/>
  <line x1="287" x2="287" y1="657.5" y2="697.5" class="net_13,14,15"/>
  <line x1="287" x2="222" y1="697.5" y2="697.5" class="net_13,14,15"/>
  <line x1="222" x2="222" y1="697.5" y2="788.5" class="net_13,14,15"/>
  <line x1="222" x2="82" y1="788.5" y2="788.5" class="net_13,14,15"/>
  <line x1="82" x2="82" y1="788.5" y2="698.5" class="net_13,14,15"/>
  <circle cx="222" cy="697.5" r="2" style="fill:#000" class="net_13,14,15"/>
  <line x1="82" x2="113.66666666666667" y1="698.5" y2="698.5" class="net_13,14,15"/>
  <line x1="277" x2="287" y1="657.5" y2="657.5" class="net_13,14,15"/>
  <line x1="287" x2="287" y1="657.5" y2="772" class="net_13,14,15"/>
  <line x1="287" x2="874" y1="772" y2="772" class="net_13,14,15"/>
  <line x1="137" x2="190" y1="537.5" y2="537.5" class="net_92,93"/>
  <line x1="392.3333333333333" x2="444" y1="675" y2="675" class="net_72,73"/>
  <line x1="137" x2="190" y1="768.5" y2="768.5" class="net_95,96"/>
  <line x1="659" x2="694" y1="364" y2="364" class="net_67,68,69,70,71"/>
  <line x1="714" x2="751.6666666666666" y1="354" y2="354" class="net_74,75,76,77,78"/>
  <line x1="40" x2="113.66666666666667" y1="718.5" y2="718.5" class="net_5,6,7"/>
  <line x1="133.66666666666669" x2="147" y1="708.5" y2="708.5" class="net_79,80,81"/>
  <line x1="147" x2="147" y1="708.5" y2="587.5" class="net_79,80,81"/>
  <line x1="147" x2="188.66666666666666" y1="587.5" y2="587.5" class="net_79,80,81"/>
  <line x1="137" x2="188.66666666666666" y1="607.5" y2="607.5" class="net_97,98,99"/>
  <line x1="402" x2="422" y1="279.5" y2="279.5" class="net_26,27,28,29,30"/>
  <line x1="422" x2="422" y1="279.5" y2="459" class="net_26,27,28,29,30"/>
  <line x1="422" x2="468.3333333333333" y1="459" y2="459" class="net_26,27,28,29,30"/>
  <line x1="402" x2="478.3333333333333" y1="479" y2="479" class="net_31"/>
  <line x1="478.3333333333333" x2="478.3333333333333" y1="479" y2="464" class="net_31"/>
  <line x1="839" x2="874" y1="53" y2="53" class="net_16,17,18,19,20,21,22,23,24,25"/>
  <line x1="839" x2="849" y1="53" y2="53" class="net_16,17,18,19,20,21,22,23,24,25"/>
  <line x1="849" x2="849" y1="53" y2="12" class="net_16,17,18,19,20,21,22,23,24,25"/>
  <line x1="849" x2="544" y1="12" y2="12" class="net_16,17,18,19,20,21,22,23,24,25"/>
  <line x1="544" x2="544" y1="12" y2="43" class="net_16,17,18,19,20,21,22,23,24,25"/>
  <circle cx="849" cy="53" r="2" style="fill:#000" class="net_16,17,18,19,20,21,22,23,24,25"/>
  <line x1="544" x2="587" y1="43" y2="43" class="net_16,17,18,19,20,21,22,23,24,25"/>
  <line x1="714" x2="768" y1="43" y2="43" class="net_40,41,42,43,44,45,46,47,48"/>
  <line x1="714" x2="724" y1="144" y2="144" class="net_49"/>
  <line x1="724" x2="724" y1="144" y2="63" class="net_49"/>
  <line x1="724" x2="768" y1="63" y2="63" class="net_49"/>
  <line x1="488.3333333333333" x2="544" y1="449" y2="449" class="net_60,61,62,63,64"/>
  <line x1="544" x2="544" y1="449" y2="364" class="net_60,61,62,63,64"/>
  <line x1="544" x2="588" y1="364" y2="364" class="net_60,61,62,63,64"/>
  <line x1="474" x2="588" y1="384" y2="384" class="net_87,88,89,90,91"/>
  <line x1="212" x2="584" y1="530" y2="530" class="net_65"/>
  <line x1="475" x2="544" y1="675" y2="675" class="net_66"/>
  <line x1="544" x2="544" y1="675" y2="550" class="net_66"/>
  <line x1="544" x2="584" y1="550" y2="550" class="net_66"/>
  <line x1="338.6666666666667" x2="386.3333333333333" y1="665" y2="665" class="net_72"/>
  <line x1="212" x2="352" y1="761" y2="761" class="net_73"/>
  <line x1="352" x2="352" y1="761" y2="685" class="net_73"/>
  <line x1="352" x2="386.3333333333333" y1="685" y2="685" class="net_73"/>
</svg>
