<?xml version="1.0" encoding="UTF-8" standalone="no"?>
<!DOCTYPE svg PUBLIC "-//W3C//DTD SVG 1.1//EN"
 "http://www.w3.org/Graphics/SVG/1.1/DTD/svg11.dtd">
<!-- Generated by graphviz version 4.0.0 (20220529.0937)
 -->
<!-- Title: finite_state_machine Pages: 1 -->
<svg width="816pt" height="361pt"
 viewBox="0.00 0.00 816.35 361.32" xmlns="http://www.w3.org/2000/svg" xmlns:xlink="http://www.w3.org/1999/xlink">
<g id="graph0" class="graph" transform="scale(1 1) rotate(0) translate(4 357.32)">
<title>finite_state_machine</title>
<polygon fill="white" stroke="transparent" points="-4,4 -4,-357.32 812.35,-357.32 812.35,4 -4,4"/>
<!-- RESET -->
<g id="node1" class="node">
<title>RESET</title>
<ellipse fill="black" stroke="black" cx="1.8" cy="-135.63" rx="1.8" ry="1.8"/>
</g>
<!-- START -->
<g id="node4" class="node">
<title>START</title>
<ellipse fill="none" stroke="black" cx="140.85" cy="-135.63" rx="74.49" ry="74.49"/>
<text text-anchor="middle" x="140.85" y="-146.93" font-family="Times New Roman,serif" font-size="14.00">START</text>
<text text-anchor="middle" x="140.85" y="-131.93" font-family="Times New Roman,serif" font-size="14.00">bits=0</text>
<text text-anchor="middle" x="140.85" y="-116.93" font-family="Times New Roman,serif" font-size="14.00">wait for start bit</text>
</g>
<!-- RESET&#45;&gt;START -->
<g id="edge1" class="edge">
<title>RESET&#45;&gt;START</title>
<path fill="none" stroke="black" d="M3.68,-135.63C8.32,-135.63 30.87,-135.63 56.32,-135.63"/>
<polygon fill="black" stroke="black" points="56.58,-139.13 66.58,-135.63 56.58,-132.13 56.58,-139.13"/>
<text text-anchor="middle" x="35.1" y="-139.43" font-family="Times New Roman,serif" font-size="14.00">reset</text>
</g>
<!-- IDLE -->
<g id="node2" class="node">
<title>IDLE</title>
<ellipse fill="none" stroke="black" cx="715.72" cy="-261.63" rx="58.88" ry="58.88"/>
<text text-anchor="middle" x="715.72" y="-265.43" font-family="Times New Roman,serif" font-size="14.00">IDLE</text>
<text text-anchor="middle" x="715.72" y="-250.43" font-family="Times New Roman,serif" font-size="14.00">wait for idle</text>
</g>
<!-- IDLE&#45;&gt;IDLE -->
<g id="edge2" class="edge">
<title>IDLE&#45;&gt;IDLE</title>
<path fill="none" stroke="black" d="M678.68,-307.3C677.47,-324.31 689.81,-338.32 715.72,-338.32 736.17,-338.32 748.17,-329.6 751.73,-317.56"/>
<polygon fill="black" stroke="black" points="755.24,-317.6 752.77,-307.3 748.27,-316.89 755.24,-317.6"/>
<text text-anchor="middle" x="715.72" y="-342.12" font-family="Times New Roman,serif" font-size="14.00">in==0</text>
</g>
<!-- IDLE&#45;&gt;START -->
<g id="edge3" class="edge">
<title>IDLE&#45;&gt;START</title>
<path fill="none" stroke="black" d="M657.22,-267.56C572.96,-274.15 412.19,-278.7 285.09,-234.63 256.73,-224.8 228.82,-207.7 205.28,-190.45"/>
<polygon fill="black" stroke="black" points="207.24,-187.55 197.14,-184.35 203.05,-193.15 207.24,-187.55"/>
<text text-anchor="middle" x="348.59" y="-265.43" font-family="Times New Roman,serif" font-size="14.00">in==1</text>
</g>
<!-- STOP -->
<g id="node3" class="node">
<title>STOP</title>
<ellipse fill="none" stroke="black" cx="715.72" cy="-92.63" rx="92.76" ry="92.76"/>
<text text-anchor="middle" x="715.72" y="-103.93" font-family="Times New Roman,serif" font-size="14.00">STOP</text>
<text text-anchor="middle" x="715.72" y="-88.93" font-family="Times New Roman,serif" font-size="14.00">done=parity_correct</text>
<text text-anchor="middle" x="715.72" y="-73.93" font-family="Times New Roman,serif" font-size="14.00">bits=0</text>
</g>
<!-- STOP&#45;&gt;START -->
<g id="edge10" class="edge">
<title>STOP&#45;&gt;START</title>
<path fill="none" stroke="black" d="M626.43,-67.45C538.51,-46.4 400.41,-24.28 285.09,-54.63 259.24,-61.43 233.14,-74.09 210.44,-87.4"/>
<polygon fill="black" stroke="black" points="208.35,-84.58 201.59,-92.73 211.96,-90.57 208.35,-84.58"/>
<text text-anchor="middle" x="348.59" y="-58.43" font-family="Times New Roman,serif" font-size="14.00">in==1 (start bit wrong)</text>
</g>
<!-- DATA -->
<g id="node5" class="node">
<title>DATA</title>
<ellipse fill="none" stroke="black" cx="348.59" cy="-135.63" rx="56.64" ry="56.64"/>
<text text-anchor="middle" x="348.59" y="-146.93" font-family="Times New Roman,serif" font-size="14.00">DATA</text>
<text text-anchor="middle" x="348.59" y="-131.93" font-family="Times New Roman,serif" font-size="14.00">bits++</text>
<text text-anchor="middle" x="348.59" y="-116.93" font-family="Times New Roman,serif" font-size="14.00">receive bits</text>
</g>
<!-- STOP&#45;&gt;DATA -->
<g id="edge9" class="edge">
<title>STOP&#45;&gt;DATA</title>
<path fill="none" stroke="black" d="M623.61,-81.48C567.06,-77.29 493.37,-76.79 430.09,-92.63 422.03,-94.65 413.89,-97.65 406.04,-101.14"/>
<polygon fill="black" stroke="black" points="404.52,-97.98 396.99,-105.43 407.52,-104.31 404.52,-97.98"/>
<text text-anchor="middle" x="517.59" y="-96.43" font-family="Times New Roman,serif" font-size="14.00">in==0</text>
</g>
<!-- START&#45;&gt;START -->
<g id="edge4" class="edge">
<title>START&#45;&gt;START</title>
<path fill="none" stroke="black" d="M122.8,-207.95C125.39,-219.76 131.4,-227.88 140.85,-227.88 147.34,-227.88 152.21,-224.04 155.46,-217.81"/>
<polygon fill="black" stroke="black" points="158.91,-218.55 158.89,-207.95 152.3,-216.25 158.91,-218.55"/>
<text text-anchor="middle" x="140.85" y="-231.68" font-family="Times New Roman,serif" font-size="14.00">in==1</text>
</g>
<!-- START&#45;&gt;DATA -->
<g id="edge5" class="edge">
<title>START&#45;&gt;DATA</title>
<path fill="none" stroke="black" d="M215.25,-135.63C236.97,-135.63 260.61,-135.63 281.81,-135.63"/>
<polygon fill="black" stroke="black" points="282.01,-139.13 292.01,-135.63 282.01,-132.13 282.01,-139.13"/>
<text text-anchor="middle" x="250.09" y="-139.43" font-family="Times New Roman,serif" font-size="14.00">in==0</text>
</g>
<!-- DATA&#45;&gt;IDLE -->
<g id="edge8" class="edge">
<title>DATA&#45;&gt;IDLE</title>
<path fill="none" stroke="black" d="M402.3,-153.82C467.84,-176.44 579.69,-215.03 650.27,-239.39"/>
<polygon fill="black" stroke="black" points="649.35,-242.78 659.95,-242.73 651.64,-236.16 649.35,-242.78"/>
<text text-anchor="middle" x="517.59" y="-224.43" font-family="Times New Roman,serif" font-size="14.00">bits==9,in==0 (stop bit wrong)</text>
</g>
<!-- DATA&#45;&gt;STOP -->
<g id="edge7" class="edge">
<title>DATA&#45;&gt;STOP</title>
<path fill="none" stroke="black" d="M405.06,-131.67C456.91,-127.68 536.42,-120.79 605.09,-111.63 608.15,-111.22 611.26,-110.79 614.39,-110.34"/>
<polygon fill="black" stroke="black" points="615.09,-113.78 624.47,-108.85 614.07,-106.85 615.09,-113.78"/>
<text text-anchor="middle" x="517.59" y="-132.43" font-family="Times New Roman,serif" font-size="14.00">bits==9,in==1</text>
</g>
<!-- DATA&#45;&gt;DATA -->
<g id="edge6" class="edge">
<title>DATA&#45;&gt;DATA</title>
<path fill="none" stroke="black" d="M330.71,-189.59C332.39,-201.51 338.35,-210.2 348.59,-210.2 355.63,-210.2 360.65,-206.09 363.64,-199.65"/>
<polygon fill="black" stroke="black" points="367.14,-200.16 366.47,-189.59 360.4,-198.27 367.14,-200.16"/>
<text text-anchor="middle" x="348.59" y="-214" font-family="Times New Roman,serif" font-size="14.00">bits&lt;9</text>
</g>
</g>
</svg>
