<?xml version="1.0" encoding="UTF-8" standalone="no"?>
<!DOCTYPE svg PUBLIC "-//W3C//DTD SVG 1.1//EN"
 "http://www.w3.org/Graphics/SVG/1.1/DTD/svg11.dtd">
<!-- Generated by graphviz version 4.0.0 (20220529.0937)
 -->
<!-- Title: top_module Pages: 1 -->
<svg width="562pt" height="1333pt"
 viewBox="0.00 0.00 562.07 1333.00" xmlns="http://www.w3.org/2000/svg" xmlns:xlink="http://www.w3.org/1999/xlink">
<g id="graph0" class="graph" transform="scale(1 1) rotate(0) translate(4 1329)">
<title>top_module</title>
<polygon fill="white" stroke="transparent" points="-4,4 -4,-1329 558.07,-1329 558.07,4 -4,4"/>
<text text-anchor="middle" x="277.04" y="-7.8" font-family="Times New Roman,serif" font-size="14.00">top_module</text>
<!-- n2 -->
<g id="node1" class="node">
<title>n2</title>
<polygon fill="none" stroke="black" points="61.86,-804.04 61.86,-818.96 43.76,-829.5 18.15,-829.5 0.05,-818.96 0.05,-804.04 18.15,-793.5 43.76,-793.5 61.86,-804.04"/>
<text text-anchor="middle" x="30.95" y="-807.8" font-family="Times New Roman,serif" font-size="14.00">KEY</text>
</g>
<!-- x0 -->
<g id="node5" class="node">
<title>x0</title>
<path fill="none" stroke="black" d="M109.91,-793.5C109.91,-793.5 147.91,-793.5 147.91,-793.5 153.91,-793.5 159.91,-799.5 159.91,-805.5 159.91,-805.5 159.91,-817.5 159.91,-817.5 159.91,-823.5 153.91,-829.5 147.91,-829.5 147.91,-829.5 109.91,-829.5 109.91,-829.5 103.91,-829.5 97.91,-823.5 97.91,-817.5 97.91,-817.5 97.91,-805.5 97.91,-805.5 97.91,-799.5 103.91,-793.5 109.91,-793.5"/>
<text text-anchor="middle" x="128.91" y="-807.8" font-family="Times New Roman,serif" font-size="14.00">1:1 &#45; 0:0</text>
</g>
<!-- n2&#45;&gt;x0 -->
<g id="edge1" class="edge">
<title>n2:e&#45;&gt;x0:w</title>
<path fill="none" stroke="#66a61e" d="M61.91,-811.5C73.91,-811.5 79.16,-811.5 87.78,-811.5"/>
<polygon fill="#66a61e" stroke="#66a61e" points="87.91,-815 97.91,-811.5 87.91,-808 87.91,-815"/>
</g>
<!-- x1 -->
<g id="node6" class="node">
<title>x1</title>
<path fill="none" stroke="black" d="M109.91,-738.5C109.91,-738.5 147.91,-738.5 147.91,-738.5 153.91,-738.5 159.91,-744.5 159.91,-750.5 159.91,-750.5 159.91,-762.5 159.91,-762.5 159.91,-768.5 153.91,-774.5 147.91,-774.5 147.91,-774.5 109.91,-774.5 109.91,-774.5 103.91,-774.5 97.91,-768.5 97.91,-762.5 97.91,-762.5 97.91,-750.5 97.91,-750.5 97.91,-744.5 103.91,-738.5 109.91,-738.5"/>
<text text-anchor="middle" x="128.91" y="-752.8" font-family="Times New Roman,serif" font-size="14.00">2:2 &#45; 0:0</text>
</g>
<!-- n2&#45;&gt;x1 -->
<g id="edge2" class="edge">
<title>n2:e&#45;&gt;x1:w</title>
<path fill="none" stroke="#66a61e" d="M61.91,-811.5C86.79,-811.5 74.21,-771.62 87.97,-759.78"/>
<polygon fill="#66a61e" stroke="#66a61e" points="89.51,-762.96 97.91,-756.5 87.31,-756.31 89.51,-762.96"/>
</g>
<!-- x4 -->
<g id="node7" class="node">
<title>x4</title>
<path fill="none" stroke="black" d="M109.91,-683.5C109.91,-683.5 147.91,-683.5 147.91,-683.5 153.91,-683.5 159.91,-689.5 159.91,-695.5 159.91,-695.5 159.91,-707.5 159.91,-707.5 159.91,-713.5 153.91,-719.5 147.91,-719.5 147.91,-719.5 109.91,-719.5 109.91,-719.5 103.91,-719.5 97.91,-713.5 97.91,-707.5 97.91,-707.5 97.91,-695.5 97.91,-695.5 97.91,-689.5 103.91,-683.5 109.91,-683.5"/>
<text text-anchor="middle" x="128.91" y="-697.8" font-family="Times New Roman,serif" font-size="14.00">0:0 &#45; 0:0</text>
</g>
<!-- n2&#45;&gt;x4 -->
<g id="edge3" class="edge">
<title>n2:e&#45;&gt;x4:w</title>
<path fill="none" stroke="#66a61e" d="M61.91,-811.5C109.33,-811.5 56.19,-718.02 87.9,-703.41"/>
<polygon fill="#66a61e" stroke="#66a61e" points="88.74,-706.81 97.91,-701.5 87.43,-699.94 88.74,-706.81"/>
</g>
<!-- x6 -->
<g id="node8" class="node">
<title>x6</title>
<path fill="none" stroke="black" d="M109.91,-573.5C109.91,-573.5 147.91,-573.5 147.91,-573.5 153.91,-573.5 159.91,-579.5 159.91,-585.5 159.91,-585.5 159.91,-597.5 159.91,-597.5 159.91,-603.5 153.91,-609.5 147.91,-609.5 147.91,-609.5 109.91,-609.5 109.91,-609.5 103.91,-609.5 97.91,-603.5 97.91,-597.5 97.91,-597.5 97.91,-585.5 97.91,-585.5 97.91,-579.5 103.91,-573.5 109.91,-573.5"/>
<text text-anchor="middle" x="128.91" y="-587.8" font-family="Times New Roman,serif" font-size="14.00">1:1 &#45; 0:0</text>
</g>
<!-- n2&#45;&gt;x6 -->
<g id="edge4" class="edge">
<title>n2:e&#45;&gt;x6:w</title>
<path fill="none" stroke="#66a61e" d="M61.91,-811.5C157.31,-811.5 10.5,-607.53 87.93,-592.39"/>
<polygon fill="#66a61e" stroke="#66a61e" points="88.26,-595.87 97.91,-591.5 87.64,-588.9 88.26,-595.87"/>
</g>
<!-- x7 -->
<g id="node9" class="node">
<title>x7</title>
<path fill="none" stroke="black" d="M109.91,-463.5C109.91,-463.5 147.91,-463.5 147.91,-463.5 153.91,-463.5 159.91,-469.5 159.91,-475.5 159.91,-475.5 159.91,-487.5 159.91,-487.5 159.91,-493.5 153.91,-499.5 147.91,-499.5 147.91,-499.5 109.91,-499.5 109.91,-499.5 103.91,-499.5 97.91,-493.5 97.91,-487.5 97.91,-487.5 97.91,-475.5 97.91,-475.5 97.91,-469.5 103.91,-463.5 109.91,-463.5"/>
<text text-anchor="middle" x="128.91" y="-477.8" font-family="Times New Roman,serif" font-size="14.00">2:2 &#45; 0:0</text>
</g>
<!-- n2&#45;&gt;x7 -->
<g id="edge5" class="edge">
<title>n2:e&#45;&gt;x7:w</title>
<path fill="none" stroke="#66a61e" d="M61.91,-811.5C131.93,-811.5 34.99,-514.16 88.05,-483.97"/>
<polygon fill="#66a61e" stroke="#66a61e" points="89.06,-487.32 97.91,-481.5 87.36,-480.53 89.06,-487.32"/>
</g>
<!-- x10 -->
<g id="node10" class="node">
<title>x10</title>
<path fill="none" stroke="black" d="M109.91,-353.5C109.91,-353.5 147.91,-353.5 147.91,-353.5 153.91,-353.5 159.91,-359.5 159.91,-365.5 159.91,-365.5 159.91,-377.5 159.91,-377.5 159.91,-383.5 153.91,-389.5 147.91,-389.5 147.91,-389.5 109.91,-389.5 109.91,-389.5 103.91,-389.5 97.91,-383.5 97.91,-377.5 97.91,-377.5 97.91,-365.5 97.91,-365.5 97.91,-359.5 103.91,-353.5 109.91,-353.5"/>
<text text-anchor="middle" x="128.91" y="-367.8" font-family="Times New Roman,serif" font-size="14.00">0:0 &#45; 0:0</text>
</g>
<!-- n2&#45;&gt;x10 -->
<g id="edge6" class="edge">
<title>n2:e&#45;&gt;x10:w</title>
<path fill="none" stroke="#66a61e" d="M61.91,-811.5C156.37,-811.5 11.34,-403.55 88.03,-373.27"/>
<polygon fill="#66a61e" stroke="#66a61e" points="88.68,-376.71 97.91,-371.5 87.45,-369.82 88.68,-376.71"/>
</g>
<!-- x12 -->
<g id="node11" class="node">
<title>x12</title>
<path fill="none" stroke="black" d="M109.91,-243.5C109.91,-243.5 147.91,-243.5 147.91,-243.5 153.91,-243.5 159.91,-249.5 159.91,-255.5 159.91,-255.5 159.91,-267.5 159.91,-267.5 159.91,-273.5 153.91,-279.5 147.91,-279.5 147.91,-279.5 109.91,-279.5 109.91,-279.5 103.91,-279.5 97.91,-273.5 97.91,-267.5 97.91,-267.5 97.91,-255.5 97.91,-255.5 97.91,-249.5 103.91,-243.5 109.91,-243.5"/>
<text text-anchor="middle" x="128.91" y="-257.8" font-family="Times New Roman,serif" font-size="14.00">1:1 &#45; 0:0</text>
</g>
<!-- n2&#45;&gt;x12 -->
<g id="edge7" class="edge">
<title>n2:e&#45;&gt;x12:w</title>
<path fill="none" stroke="#66a61e" d="M61.91,-811.5C119.68,-811.5 45.99,-322.04 88.87,-266.59"/>
<polygon fill="#66a61e" stroke="#66a61e" points="90.91,-269.46 97.91,-261.5 87.48,-263.36 90.91,-269.46"/>
</g>
<!-- x13 -->
<g id="node12" class="node">
<title>x13</title>
<path fill="none" stroke="black" d="M109.91,-188.5C109.91,-188.5 147.91,-188.5 147.91,-188.5 153.91,-188.5 159.91,-194.5 159.91,-200.5 159.91,-200.5 159.91,-212.5 159.91,-212.5 159.91,-218.5 153.91,-224.5 147.91,-224.5 147.91,-224.5 109.91,-224.5 109.91,-224.5 103.91,-224.5 97.91,-218.5 97.91,-212.5 97.91,-212.5 97.91,-200.5 97.91,-200.5 97.91,-194.5 103.91,-188.5 109.91,-188.5"/>
<text text-anchor="middle" x="128.91" y="-202.8" font-family="Times New Roman,serif" font-size="14.00">2:2 &#45; 0:0</text>
</g>
<!-- n2&#45;&gt;x13 -->
<g id="edge8" class="edge">
<title>n2:e&#45;&gt;x13:w</title>
<path fill="none" stroke="#66a61e" d="M61.91,-811.5C125.83,-811.5 40.16,-266.39 88.89,-211.02"/>
<polygon fill="#66a61e" stroke="#66a61e" points="90.54,-214.11 97.91,-206.5 87.4,-207.85 90.54,-214.11"/>
</g>
<!-- x16 -->
<g id="node13" class="node">
<title>x16</title>
<path fill="none" stroke="black" d="M109.91,-23.5C109.91,-23.5 147.91,-23.5 147.91,-23.5 153.91,-23.5 159.91,-29.5 159.91,-35.5 159.91,-35.5 159.91,-47.5 159.91,-47.5 159.91,-53.5 153.91,-59.5 147.91,-59.5 147.91,-59.5 109.91,-59.5 109.91,-59.5 103.91,-59.5 97.91,-53.5 97.91,-47.5 97.91,-47.5 97.91,-35.5 97.91,-35.5 97.91,-29.5 103.91,-23.5 109.91,-23.5"/>
<text text-anchor="middle" x="128.91" y="-37.8" font-family="Times New Roman,serif" font-size="14.00">0:0 &#45; 0:0</text>
</g>
<!-- n2&#45;&gt;x16 -->
<g id="edge9" class="edge">
<title>n2:e&#45;&gt;x16:w</title>
<path fill="none" stroke="#66a61e" d="M61.91,-811.5C144.04,-811.5 22.99,-103.37 88.45,-45.28"/>
<polygon fill="#66a61e" stroke="#66a61e" points="89.92,-48.46 97.91,-41.5 87.32,-41.96 89.92,-48.46"/>
</g>
<!-- x18 -->
<g id="node14" class="node">
<title>x18</title>
<path fill="none" stroke="black" d="M109.91,-1068.5C109.91,-1068.5 147.91,-1068.5 147.91,-1068.5 153.91,-1068.5 159.91,-1074.5 159.91,-1080.5 159.91,-1080.5 159.91,-1092.5 159.91,-1092.5 159.91,-1098.5 153.91,-1104.5 147.91,-1104.5 147.91,-1104.5 109.91,-1104.5 109.91,-1104.5 103.91,-1104.5 97.91,-1098.5 97.91,-1092.5 97.91,-1092.5 97.91,-1080.5 97.91,-1080.5 97.91,-1074.5 103.91,-1068.5 109.91,-1068.5"/>
<text text-anchor="middle" x="128.91" y="-1082.8" font-family="Times New Roman,serif" font-size="14.00">1:1 &#45; 0:0</text>
</g>
<!-- n2&#45;&gt;x18 -->
<g id="edge10" class="edge">
<title>n2:e&#45;&gt;x18:w</title>
<path fill="none" stroke="#66a61e" d="M61.91,-811.5C119.81,-811.5 46.3,-1054.21 88.28,-1083.6"/>
<polygon fill="#66a61e" stroke="#66a61e" points="87.32,-1086.96 97.91,-1086.5 89.34,-1080.26 87.32,-1086.96"/>
</g>
<!-- x19 -->
<g id="node15" class="node">
<title>x19</title>
<path fill="none" stroke="black" d="M109.91,-1013.5C109.91,-1013.5 147.91,-1013.5 147.91,-1013.5 153.91,-1013.5 159.91,-1019.5 159.91,-1025.5 159.91,-1025.5 159.91,-1037.5 159.91,-1037.5 159.91,-1043.5 153.91,-1049.5 147.91,-1049.5 147.91,-1049.5 109.91,-1049.5 109.91,-1049.5 103.91,-1049.5 97.91,-1043.5 97.91,-1037.5 97.91,-1037.5 97.91,-1025.5 97.91,-1025.5 97.91,-1019.5 103.91,-1013.5 109.91,-1013.5"/>
<text text-anchor="middle" x="128.91" y="-1027.8" font-family="Times New Roman,serif" font-size="14.00">2:2 &#45; 0:0</text>
</g>
<!-- n2&#45;&gt;x19 -->
<g id="edge11" class="edge">
<title>n2:e&#45;&gt;x19:w</title>
<path fill="none" stroke="#66a61e" d="M61.91,-811.5C157.31,-811.5 10.5,-1015.47 87.93,-1030.61"/>
<polygon fill="#66a61e" stroke="#66a61e" points="87.64,-1034.1 97.91,-1031.5 88.26,-1027.13 87.64,-1034.1"/>
</g>
<!-- x22 -->
<g id="node16" class="node">
<title>x22</title>
<path fill="none" stroke="black" d="M109.91,-903.5C109.91,-903.5 147.91,-903.5 147.91,-903.5 153.91,-903.5 159.91,-909.5 159.91,-915.5 159.91,-915.5 159.91,-927.5 159.91,-927.5 159.91,-933.5 153.91,-939.5 147.91,-939.5 147.91,-939.5 109.91,-939.5 109.91,-939.5 103.91,-939.5 97.91,-933.5 97.91,-927.5 97.91,-927.5 97.91,-915.5 97.91,-915.5 97.91,-909.5 103.91,-903.5 109.91,-903.5"/>
<text text-anchor="middle" x="128.91" y="-917.8" font-family="Times New Roman,serif" font-size="14.00">0:0 &#45; 0:0</text>
</g>
<!-- n2&#45;&gt;x22 -->
<g id="edge12" class="edge">
<title>n2:e&#45;&gt;x22:w</title>
<path fill="none" stroke="#66a61e" d="M61.91,-811.5C109.33,-811.5 56.19,-904.98 87.9,-919.59"/>
<polygon fill="#66a61e" stroke="#66a61e" points="87.43,-923.06 97.91,-921.5 88.74,-916.19 87.43,-923.06"/>
</g>
<!-- x23 -->
<g id="node17" class="node">
<title>x23</title>
<path fill="none" stroke="black" d="M109.91,-848.5C109.91,-848.5 147.91,-848.5 147.91,-848.5 153.91,-848.5 159.91,-854.5 159.91,-860.5 159.91,-860.5 159.91,-872.5 159.91,-872.5 159.91,-878.5 153.91,-884.5 147.91,-884.5 147.91,-884.5 109.91,-884.5 109.91,-884.5 103.91,-884.5 97.91,-878.5 97.91,-872.5 97.91,-872.5 97.91,-860.5 97.91,-860.5 97.91,-854.5 103.91,-848.5 109.91,-848.5"/>
<text text-anchor="middle" x="128.91" y="-862.8" font-family="Times New Roman,serif" font-size="14.00">3:3 &#45; 0:0</text>
</g>
<!-- n2&#45;&gt;x23 -->
<g id="edge13" class="edge">
<title>n2:e&#45;&gt;x23:w</title>
<path fill="none" stroke="#66a61e" d="M61.91,-811.5C86.79,-811.5 74.21,-851.38 87.97,-863.22"/>
<polygon fill="#66a61e" stroke="#66a61e" points="87.31,-866.69 97.91,-866.5 89.51,-860.04 87.31,-866.69"/>
</g>
<!-- x24 -->
<g id="node18" class="node">
<title>x24</title>
<path fill="none" stroke="black" d="M109.91,-1288.5C109.91,-1288.5 147.91,-1288.5 147.91,-1288.5 153.91,-1288.5 159.91,-1294.5 159.91,-1300.5 159.91,-1300.5 159.91,-1312.5 159.91,-1312.5 159.91,-1318.5 153.91,-1324.5 147.91,-1324.5 147.91,-1324.5 109.91,-1324.5 109.91,-1324.5 103.91,-1324.5 97.91,-1318.5 97.91,-1312.5 97.91,-1312.5 97.91,-1300.5 97.91,-1300.5 97.91,-1294.5 103.91,-1288.5 109.91,-1288.5"/>
<text text-anchor="middle" x="128.91" y="-1302.8" font-family="Times New Roman,serif" font-size="14.00">1:1 &#45; 0:0</text>
</g>
<!-- n2&#45;&gt;x24 -->
<g id="edge14" class="edge">
<title>n2:e&#45;&gt;x24:w</title>
<path fill="none" stroke="#66a61e" d="M61.91,-811.5C113.71,-811.5 51.28,-1248.37 89.26,-1301.28"/>
<polygon fill="#66a61e" stroke="#66a61e" points="87.54,-1304.33 97.91,-1306.5 91.16,-1298.33 87.54,-1304.33"/>
</g>
<!-- x25 -->
<g id="node19" class="node">
<title>x25</title>
<path fill="none" stroke="black" d="M109.91,-1233.5C109.91,-1233.5 147.91,-1233.5 147.91,-1233.5 153.91,-1233.5 159.91,-1239.5 159.91,-1245.5 159.91,-1245.5 159.91,-1257.5 159.91,-1257.5 159.91,-1263.5 153.91,-1269.5 147.91,-1269.5 147.91,-1269.5 109.91,-1269.5 109.91,-1269.5 103.91,-1269.5 97.91,-1263.5 97.91,-1257.5 97.91,-1257.5 97.91,-1245.5 97.91,-1245.5 97.91,-1239.5 103.91,-1233.5 109.91,-1233.5"/>
<text text-anchor="middle" x="128.91" y="-1247.8" font-family="Times New Roman,serif" font-size="14.00">2:2 &#45; 0:0</text>
</g>
<!-- n2&#45;&gt;x25 -->
<g id="edge15" class="edge">
<title>n2:e&#45;&gt;x25:w</title>
<path fill="none" stroke="#66a61e" d="M61.91,-811.5C156.37,-811.5 11.34,-1219.45 88.03,-1249.73"/>
<polygon fill="#66a61e" stroke="#66a61e" points="87.45,-1253.18 97.91,-1251.5 88.68,-1246.29 87.45,-1253.18"/>
</g>
<!-- x26 -->
<g id="node20" class="node">
<title>x26</title>
<path fill="none" stroke="black" d="M109.91,-1178.5C109.91,-1178.5 147.91,-1178.5 147.91,-1178.5 153.91,-1178.5 159.91,-1184.5 159.91,-1190.5 159.91,-1190.5 159.91,-1202.5 159.91,-1202.5 159.91,-1208.5 153.91,-1214.5 147.91,-1214.5 147.91,-1214.5 109.91,-1214.5 109.91,-1214.5 103.91,-1214.5 97.91,-1208.5 97.91,-1202.5 97.91,-1202.5 97.91,-1190.5 97.91,-1190.5 97.91,-1184.5 103.91,-1178.5 109.91,-1178.5"/>
<text text-anchor="middle" x="128.91" y="-1192.8" font-family="Times New Roman,serif" font-size="14.00">0:0 &#45; 0:0</text>
</g>
<!-- n2&#45;&gt;x26 -->
<g id="edge16" class="edge">
<title>n2:e&#45;&gt;x26:w</title>
<path fill="none" stroke="#66a61e" d="M61.91,-811.5C144.14,-811.5 23.24,-1164.12 88.02,-1194.43"/>
<polygon fill="#66a61e" stroke="#66a61e" points="87.4,-1197.87 97.91,-1196.5 88.84,-1191.02 87.4,-1197.87"/>
</g>
<!-- x27 -->
<g id="node21" class="node">
<title>x27</title>
<path fill="none" stroke="black" d="M109.91,-1123.5C109.91,-1123.5 147.91,-1123.5 147.91,-1123.5 153.91,-1123.5 159.91,-1129.5 159.91,-1135.5 159.91,-1135.5 159.91,-1147.5 159.91,-1147.5 159.91,-1153.5 153.91,-1159.5 147.91,-1159.5 147.91,-1159.5 109.91,-1159.5 109.91,-1159.5 103.91,-1159.5 97.91,-1153.5 97.91,-1147.5 97.91,-1147.5 97.91,-1135.5 97.91,-1135.5 97.91,-1129.5 103.91,-1123.5 109.91,-1123.5"/>
<text text-anchor="middle" x="128.91" y="-1137.8" font-family="Times New Roman,serif" font-size="14.00">3:3 &#45; 0:0</text>
</g>
<!-- n2&#45;&gt;x27 -->
<g id="edge17" class="edge">
<title>n2:e&#45;&gt;x27:w</title>
<path fill="none" stroke="#66a61e" d="M61.91,-811.5C131.93,-811.5 34.99,-1108.84 88.05,-1139.03"/>
<polygon fill="#66a61e" stroke="#66a61e" points="87.36,-1142.47 97.91,-1141.5 89.06,-1135.68 87.36,-1142.47"/>
</g>
<!-- n5 -->
<g id="node2" class="node">
<title>n5</title>
<polygon fill="none" stroke="black" points="57.95,-474.04 57.95,-488.96 42.14,-499.5 19.77,-499.5 3.95,-488.96 3.95,-474.04 19.77,-463.5 42.14,-463.5 57.95,-474.04"/>
<text text-anchor="middle" x="30.95" y="-477.8" font-family="Times New Roman,serif" font-size="14.00">SW</text>
</g>
<!-- x3 -->
<g id="node26" class="node">
<title>x3</title>
<path fill="none" stroke="black" d="M109.91,-518.5C109.91,-518.5 147.91,-518.5 147.91,-518.5 153.91,-518.5 159.91,-524.5 159.91,-530.5 159.91,-530.5 159.91,-542.5 159.91,-542.5 159.91,-548.5 153.91,-554.5 147.91,-554.5 147.91,-554.5 109.91,-554.5 109.91,-554.5 103.91,-554.5 97.91,-548.5 97.91,-542.5 97.91,-542.5 97.91,-530.5 97.91,-530.5 97.91,-524.5 103.91,-518.5 109.91,-518.5"/>
<text text-anchor="middle" x="128.91" y="-532.8" font-family="Times New Roman,serif" font-size="14.00">0:0 &#45; 0:0</text>
</g>
<!-- n5&#45;&gt;x3 -->
<g id="edge21" class="edge">
<title>n5:e&#45;&gt;x3:w</title>
<path fill="none" stroke="#666666" d="M58.95,-481.5C84.7,-481.5 72.84,-522.12 88.01,-533.54"/>
<polygon fill="#666666" stroke="#666666" points="87.32,-536.99 97.91,-536.5 89.33,-530.28 87.32,-536.99"/>
</g>
<!-- x9 -->
<g id="node27" class="node">
<title>x9</title>
<path fill="none" stroke="black" d="M109.91,-408.5C109.91,-408.5 147.91,-408.5 147.91,-408.5 153.91,-408.5 159.91,-414.5 159.91,-420.5 159.91,-420.5 159.91,-432.5 159.91,-432.5 159.91,-438.5 153.91,-444.5 147.91,-444.5 147.91,-444.5 109.91,-444.5 109.91,-444.5 103.91,-444.5 97.91,-438.5 97.91,-432.5 97.91,-432.5 97.91,-420.5 97.91,-420.5 97.91,-414.5 103.91,-408.5 109.91,-408.5"/>
<text text-anchor="middle" x="128.91" y="-422.8" font-family="Times New Roman,serif" font-size="14.00">1:1 &#45; 0:0</text>
</g>
<!-- n5&#45;&gt;x9 -->
<g id="edge22" class="edge">
<title>n5:e&#45;&gt;x9:w</title>
<path fill="none" stroke="#666666" d="M58.95,-481.5C84.7,-481.5 72.84,-440.88 88.01,-429.46"/>
<polygon fill="#666666" stroke="#666666" points="89.33,-432.72 97.91,-426.5 87.32,-426.01 89.33,-432.72"/>
</g>
<!-- x15 -->
<g id="node28" class="node">
<title>x15</title>
<path fill="none" stroke="black" d="M109.91,-78.5C109.91,-78.5 147.91,-78.5 147.91,-78.5 153.91,-78.5 159.91,-84.5 159.91,-90.5 159.91,-90.5 159.91,-102.5 159.91,-102.5 159.91,-108.5 153.91,-114.5 147.91,-114.5 147.91,-114.5 109.91,-114.5 109.91,-114.5 103.91,-114.5 97.91,-108.5 97.91,-102.5 97.91,-102.5 97.91,-90.5 97.91,-90.5 97.91,-84.5 103.91,-78.5 109.91,-78.5"/>
<text text-anchor="middle" x="128.91" y="-92.8" font-family="Times New Roman,serif" font-size="14.00">2:2 &#45; 0:0</text>
</g>
<!-- n5&#45;&gt;x15 -->
<g id="edge23" class="edge">
<title>n5:e&#45;&gt;x15:w</title>
<path fill="none" stroke="#666666" d="M58.95,-481.5C141.25,-481.5 22.94,-128.88 88,-98.57"/>
<polygon fill="#666666" stroke="#666666" points="88.84,-101.97 97.91,-96.5 87.4,-95.12 88.84,-101.97"/>
</g>
<!-- x21 -->
<g id="node29" class="node">
<title>x21</title>
<path fill="none" stroke="black" d="M109.91,-958.5C109.91,-958.5 147.91,-958.5 147.91,-958.5 153.91,-958.5 159.91,-964.5 159.91,-970.5 159.91,-970.5 159.91,-982.5 159.91,-982.5 159.91,-988.5 153.91,-994.5 147.91,-994.5 147.91,-994.5 109.91,-994.5 109.91,-994.5 103.91,-994.5 97.91,-988.5 97.91,-982.5 97.91,-982.5 97.91,-970.5 97.91,-970.5 97.91,-964.5 103.91,-958.5 109.91,-958.5"/>
<text text-anchor="middle" x="128.91" y="-972.8" font-family="Times New Roman,serif" font-size="14.00">3:3 &#45; 0:0</text>
</g>
<!-- n5&#45;&gt;x21 -->
<g id="edge24" class="edge">
<title>n5:e&#45;&gt;x21:w</title>
<path fill="none" stroke="#666666" d="M58.95,-481.5C110.78,-481.5 50.92,-918.37 89.22,-971.28"/>
<polygon fill="#666666" stroke="#666666" points="87.53,-974.34 97.91,-976.5 91.14,-968.35 87.53,-974.34"/>
</g>
<!-- n4 -->
<g id="node3" class="node">
<title>n4</title>
<polygon fill="none" stroke="black" points="538.26,-419.04 538.26,-433.96 516.55,-444.5 485.84,-444.5 464.12,-433.96 464.12,-419.04 485.84,-408.5 516.55,-408.5 538.26,-419.04"/>
<text text-anchor="middle" x="501.19" y="-422.8" font-family="Times New Roman,serif" font-size="14.00">LEDR</text>
</g>
<!-- x5 -->
<g id="node23" class="node">
<title>x5</title>
<path fill="none" stroke="black" d="M109.91,-628.5C109.91,-628.5 147.91,-628.5 147.91,-628.5 153.91,-628.5 159.91,-634.5 159.91,-640.5 159.91,-640.5 159.91,-652.5 159.91,-652.5 159.91,-658.5 153.91,-664.5 147.91,-664.5 147.91,-664.5 109.91,-664.5 109.91,-664.5 103.91,-664.5 97.91,-658.5 97.91,-652.5 97.91,-652.5 97.91,-640.5 97.91,-640.5 97.91,-634.5 103.91,-628.5 109.91,-628.5"/>
<text text-anchor="middle" x="128.91" y="-642.8" font-family="Times New Roman,serif" font-size="14.00">1:1 &#45; 0:0</text>
</g>
<!-- n4&#45;&gt;x5 -->
<g id="edge18" class="edge">
<title>n4:e&#45;&gt;x5:w</title>
<path fill="none" stroke="#e7298a" d="M539.19,-426.5C629.2,-426.5 272.63,-594.43 195.91,-641.5 179.62,-651.49 178.22,-659.55 159.91,-665 146.7,-668.93 107.91,-674.48 97.91,-665 95.39,-662.61 93.35,-658.94 92.45,-655.5"/>
<polygon fill="#e7298a" stroke="#e7298a" points="95.61,-657.02 96.91,-646.5 89.34,-653.91 95.61,-657.02"/>
</g>
<!-- x11 -->
<g id="node24" class="node">
<title>x11</title>
<path fill="none" stroke="black" d="M109.91,-298.5C109.91,-298.5 147.91,-298.5 147.91,-298.5 153.91,-298.5 159.91,-304.5 159.91,-310.5 159.91,-310.5 159.91,-322.5 159.91,-322.5 159.91,-328.5 153.91,-334.5 147.91,-334.5 147.91,-334.5 109.91,-334.5 109.91,-334.5 103.91,-334.5 97.91,-328.5 97.91,-322.5 97.91,-322.5 97.91,-310.5 97.91,-310.5 97.91,-304.5 103.91,-298.5 109.91,-298.5"/>
<text text-anchor="middle" x="128.91" y="-312.8" font-family="Times New Roman,serif" font-size="14.00">2:2 &#45; 0:0</text>
</g>
<!-- n4&#45;&gt;x11 -->
<g id="edge19" class="edge">
<title>n4:e&#45;&gt;x11:w</title>
<path fill="none" stroke="#e7298a" d="M539.19,-426.5C547.2,-426.5 544.01,-438.99 538.19,-444.5 514.21,-467.19 493.59,-458.96 463.91,-444.5 440.57,-433.13 448.69,-414.06 427.91,-398.5 390.38,-370.4 375.42,-370.73 329.91,-359.5 323.62,-357.95 102.37,-339.7 97.91,-335 95.6,-332.57 93.65,-329.07 92.69,-325.76"/>
<polygon fill="#e7298a" stroke="#e7298a" points="95.95,-327.05 96.91,-316.5 89.58,-324.15 95.95,-327.05"/>
</g>
<!-- x17 -->
<g id="node25" class="node">
<title>x17</title>
<path fill="none" stroke="black" d="M109.91,-133.5C109.91,-133.5 147.91,-133.5 147.91,-133.5 153.91,-133.5 159.91,-139.5 159.91,-145.5 159.91,-145.5 159.91,-157.5 159.91,-157.5 159.91,-163.5 153.91,-169.5 147.91,-169.5 147.91,-169.5 109.91,-169.5 109.91,-169.5 103.91,-169.5 97.91,-163.5 97.91,-157.5 97.91,-157.5 97.91,-145.5 97.91,-145.5 97.91,-139.5 103.91,-133.5 109.91,-133.5"/>
<text text-anchor="middle" x="128.91" y="-147.8" font-family="Times New Roman,serif" font-size="14.00">3:3 &#45; 0:0</text>
</g>
<!-- n4&#45;&gt;x17 -->
<g id="edge20" class="edge">
<title>n4:e&#45;&gt;x17:w</title>
<path fill="none" stroke="#e7298a" d="M539.19,-426.5C555.51,-426.5 554.66,-503.18 463.91,-444.5 431.17,-423.33 455.35,-392.2 427.91,-364.5 347.99,-283.84 276.21,-337.78 195.91,-257.5 168.91,-230.51 190.41,-202.46 159.91,-179.5 137.63,-162.74 116.63,-190.65 97.91,-170 95.66,-167.52 93.72,-164 92.75,-160.7"/>
<polygon fill="#e7298a" stroke="#e7298a" points="95.98,-162.05 96.91,-151.5 89.6,-159.17 95.98,-162.05"/>
</g>
<!-- n1 -->
<g id="node4" class="node">
<title>n1</title>
<polygon fill="none" stroke="black" points="262.91,-1324.5 235.91,-1306.5 262.91,-1288.5 289.91,-1306.5 262.91,-1324.5"/>
<text text-anchor="middle" x="262.91" y="-1302.8" font-family="Times New Roman,serif" font-size="14.00">E</text>
</g>
<!-- c10 -->
<g id="node32" class="node">
<title>c10</title>
<polygon fill="none" stroke="black" points="195.91,-651 195.91,-766 329.91,-766 329.91,-651 195.91,-651"/>
<text text-anchor="middle" x="212.41" y="-750.8" font-family="Times New Roman,serif" font-size="14.00">E</text>
<polyline fill="none" stroke="black" points="195.91,-743 228.91,-743 "/>
<text text-anchor="middle" x="212.41" y="-727.8" font-family="Times New Roman,serif" font-size="14.00">L</text>
<polyline fill="none" stroke="black" points="195.91,-720 228.91,-720 "/>
<text text-anchor="middle" x="212.41" y="-704.8" font-family="Times New Roman,serif" font-size="14.00">R</text>
<polyline fill="none" stroke="black" points="195.91,-697 228.91,-697 "/>
<text text-anchor="middle" x="212.41" y="-681.8" font-family="Times New Roman,serif" font-size="14.00">clk</text>
<polyline fill="none" stroke="black" points="195.91,-674 228.91,-674 "/>
<text text-anchor="middle" x="212.41" y="-658.8" font-family="Times New Roman,serif" font-size="14.00">w</text>
<polyline fill="none" stroke="black" points="228.91,-651 228.91,-766 "/>
<text text-anchor="middle" x="265.91" y="-712.3" font-family="Times New Roman,serif" font-size="14.00">md0</text>
<text text-anchor="middle" x="265.91" y="-697.3" font-family="Times New Roman,serif" font-size="14.00">MUXDFF</text>
<polyline fill="none" stroke="black" points="302.91,-651 302.91,-766 "/>
<text text-anchor="middle" x="316.41" y="-704.8" font-family="Times New Roman,serif" font-size="14.00">Q</text>
</g>
<!-- x0&#45;&gt;c10 -->
<g id="edge26" class="edge">
<title>x0:e&#45;&gt;c10:w</title>
<path fill="none" stroke="#1b9e77" d="M171.13,-807.03C180.68,-796.42 175.14,-769.85 184.56,-759.11"/>
<polygon fill="none" stroke="#1b9e77" points="171.05,-807.06 166.96,-812.99 159.91,-811.5 164,-805.56 171.05,-807.06"/>
<polygon fill="none" stroke="#1b9e77" points="184.79,-759.02 188.84,-753.05 195.91,-754.5 191.85,-760.46 184.79,-759.02"/>
</g>
<!-- x1&#45;&gt;c10 -->
<g id="edge27" class="edge">
<title>x1:e&#45;&gt;c10:w</title>
<path fill="none" stroke="#1b9e77" d="M171.52,-752.15C176.57,-747.56 179.29,-740.37 184.35,-735.8"/>
<polygon fill="none" stroke="#1b9e77" points="171.14,-752.29 166.93,-758.14 159.91,-756.5 164.12,-750.65 171.14,-752.29"/>
<polygon fill="none" stroke="#1b9e77" points="184.66,-735.69 188.89,-729.85 195.91,-731.5 191.68,-737.34 184.66,-735.69"/>
</g>
<!-- x4&#45;&gt;c10 -->
<g id="edge30" class="edge">
<title>x4:e&#45;&gt;c10:w</title>
<path fill="none" stroke="#d95f02" d="M171.75,-698.26C176.27,-695.49 179.55,-691.51 184.08,-688.73"/>
<polygon fill="none" stroke="#d95f02" points="171.48,-698.33 166.75,-703.78 159.91,-701.5 164.64,-696.06 171.48,-698.33"/>
<polygon fill="none" stroke="#d95f02" points="184.33,-688.66 189.07,-683.22 195.91,-685.5 191.17,-690.94 184.33,-688.66"/>
</g>
<!-- c11 -->
<g id="node34" class="node">
<title>c11</title>
<polygon fill="none" stroke="black" points="195.91,-369 195.91,-484 329.91,-484 329.91,-369 195.91,-369"/>
<text text-anchor="middle" x="212.41" y="-468.8" font-family="Times New Roman,serif" font-size="14.00">E</text>
<polyline fill="none" stroke="black" points="195.91,-461 228.91,-461 "/>
<text text-anchor="middle" x="212.41" y="-445.8" font-family="Times New Roman,serif" font-size="14.00">L</text>
<polyline fill="none" stroke="black" points="195.91,-438 228.91,-438 "/>
<text text-anchor="middle" x="212.41" y="-422.8" font-family="Times New Roman,serif" font-size="14.00">R</text>
<polyline fill="none" stroke="black" points="195.91,-415 228.91,-415 "/>
<text text-anchor="middle" x="212.41" y="-399.8" font-family="Times New Roman,serif" font-size="14.00">clk</text>
<polyline fill="none" stroke="black" points="195.91,-392 228.91,-392 "/>
<text text-anchor="middle" x="212.41" y="-376.8" font-family="Times New Roman,serif" font-size="14.00">w</text>
<polyline fill="none" stroke="black" points="228.91,-369 228.91,-484 "/>
<text text-anchor="middle" x="265.91" y="-430.3" font-family="Times New Roman,serif" font-size="14.00">md1</text>
<text text-anchor="middle" x="265.91" y="-415.3" font-family="Times New Roman,serif" font-size="14.00">MUXDFF</text>
<polyline fill="none" stroke="black" points="302.91,-369 302.91,-484 "/>
<text text-anchor="middle" x="316.41" y="-422.8" font-family="Times New Roman,serif" font-size="14.00">Q</text>
</g>
<!-- x6&#45;&gt;c11 -->
<g id="edge33" class="edge">
<title>x6:e&#45;&gt;c11:w</title>
<path fill="none" stroke="#d95f02" d="M171.85,-588.79C199.8,-572.81 155.95,-490.98 184.07,-475.15"/>
<polygon fill="none" stroke="#d95f02" points="171.61,-588.84 166.64,-594.07 159.91,-591.5 164.87,-586.27 171.61,-588.84"/>
<polygon fill="none" stroke="#d95f02" points="184.2,-475.12 189.18,-469.91 195.91,-472.5 190.93,-477.72 184.2,-475.12"/>
</g>
<!-- x7&#45;&gt;c11 -->
<g id="edge34" class="edge">
<title>x7:e&#45;&gt;c11:w</title>
<path fill="none" stroke="#1b9e77" d="M171.3,-476.78C177.05,-470.66 178.86,-460.06 184.7,-454.03"/>
<polygon fill="none" stroke="#1b9e77" points="170.99,-476.9 166.98,-482.9 159.91,-481.5 163.92,-475.51 170.99,-476.9"/>
<polygon fill="none" stroke="#1b9e77" points="184.78,-454 188.85,-448.04 195.91,-449.5 191.84,-455.46 184.78,-454"/>
</g>
<!-- x10&#45;&gt;c11 -->
<g id="edge37" class="edge">
<title>x10:e&#45;&gt;c11:w</title>
<path fill="none" stroke="#666666" d="M171.3,-376.22C177.05,-382.34 178.86,-392.94 184.7,-398.97"/>
<polygon fill="none" stroke="#666666" points="170.99,-376.1 163.92,-377.49 159.91,-371.5 166.98,-370.1 170.99,-376.1"/>
<polygon fill="none" stroke="#666666" points="184.78,-399 191.84,-397.54 195.91,-403.5 188.85,-404.96 184.78,-399"/>
</g>
<!-- c12 -->
<g id="node36" class="node">
<title>c12</title>
<polygon fill="none" stroke="black" points="195.91,-133 195.91,-248 329.91,-248 329.91,-133 195.91,-133"/>
<text text-anchor="middle" x="212.41" y="-232.8" font-family="Times New Roman,serif" font-size="14.00">E</text>
<polyline fill="none" stroke="black" points="195.91,-225 228.91,-225 "/>
<text text-anchor="middle" x="212.41" y="-209.8" font-family="Times New Roman,serif" font-size="14.00">L</text>
<polyline fill="none" stroke="black" points="195.91,-202 228.91,-202 "/>
<text text-anchor="middle" x="212.41" y="-186.8" font-family="Times New Roman,serif" font-size="14.00">R</text>
<polyline fill="none" stroke="black" points="195.91,-179 228.91,-179 "/>
<text text-anchor="middle" x="212.41" y="-163.8" font-family="Times New Roman,serif" font-size="14.00">clk</text>
<polyline fill="none" stroke="black" points="195.91,-156 228.91,-156 "/>
<text text-anchor="middle" x="212.41" y="-140.8" font-family="Times New Roman,serif" font-size="14.00">w</text>
<polyline fill="none" stroke="black" points="228.91,-133 228.91,-248 "/>
<text text-anchor="middle" x="265.91" y="-194.3" font-family="Times New Roman,serif" font-size="14.00">md2</text>
<text text-anchor="middle" x="265.91" y="-179.3" font-family="Times New Roman,serif" font-size="14.00">MUXDFF</text>
<polyline fill="none" stroke="black" points="302.91,-133 302.91,-248 "/>
<text text-anchor="middle" x="316.41" y="-186.8" font-family="Times New Roman,serif" font-size="14.00">Q</text>
</g>
<!-- x12&#45;&gt;c12 -->
<g id="edge40" class="edge">
<title>x12:e&#45;&gt;c12:w</title>
<path fill="none" stroke="#7570b3" d="M171.52,-257.15C176.57,-252.56 179.29,-245.37 184.35,-240.8"/>
<polygon fill="none" stroke="#7570b3" points="171.14,-257.29 166.93,-263.14 159.91,-261.5 164.12,-255.65 171.14,-257.29"/>
<polygon fill="none" stroke="#7570b3" points="184.66,-240.69 188.89,-234.85 195.91,-236.5 191.68,-242.34 184.66,-240.69"/>
</g>
<!-- x13&#45;&gt;c12 -->
<g id="edge41" class="edge">
<title>x13:e&#45;&gt;c12:w</title>
<path fill="none" stroke="#a6761d" d="M171.94,-208.05C176.18,-209.21 179.65,-210.79 183.89,-211.95"/>
<polygon fill="none" stroke="#a6761d" points="171.81,-208.04 165.35,-211.24 159.91,-206.5 166.37,-203.3 171.81,-208.04"/>
<polygon fill="none" stroke="#a6761d" points="184.01,-211.97 190.47,-208.77 195.91,-213.5 189.45,-216.7 184.01,-211.97"/>
</g>
<!-- x16&#45;&gt;c12 -->
<g id="edge44" class="edge">
<title>x16:e&#45;&gt;c12:w</title>
<path fill="none" stroke="#66a61e" d="M172.03,-44.13C202.22,-60.53 153.58,-148.53 183.82,-164.88"/>
<polygon fill="none" stroke="#66a61e" points="171.63,-44.05 164.92,-46.68 159.91,-41.5 166.62,-38.86 171.63,-44.05"/>
<polygon fill="none" stroke="#66a61e" points="184.18,-164.96 190.89,-162.32 195.91,-167.5 189.2,-170.14 184.18,-164.96"/>
</g>
<!-- c13 -->
<g id="node38" class="node">
<title>c13</title>
<polygon fill="none" stroke="black" points="195.91,-903 195.91,-1018 329.91,-1018 329.91,-903 195.91,-903"/>
<text text-anchor="middle" x="212.41" y="-1002.8" font-family="Times New Roman,serif" font-size="14.00">E</text>
<polyline fill="none" stroke="black" points="195.91,-995 228.91,-995 "/>
<text text-anchor="middle" x="212.41" y="-979.8" font-family="Times New Roman,serif" font-size="14.00">L</text>
<polyline fill="none" stroke="black" points="195.91,-972 228.91,-972 "/>
<text text-anchor="middle" x="212.41" y="-956.8" font-family="Times New Roman,serif" font-size="14.00">R</text>
<polyline fill="none" stroke="black" points="195.91,-949 228.91,-949 "/>
<text text-anchor="middle" x="212.41" y="-933.8" font-family="Times New Roman,serif" font-size="14.00">clk</text>
<polyline fill="none" stroke="black" points="195.91,-926 228.91,-926 "/>
<text text-anchor="middle" x="212.41" y="-910.8" font-family="Times New Roman,serif" font-size="14.00">w</text>
<polyline fill="none" stroke="black" points="228.91,-903 228.91,-1018 "/>
<text text-anchor="middle" x="265.91" y="-964.3" font-family="Times New Roman,serif" font-size="14.00">md3</text>
<text text-anchor="middle" x="265.91" y="-949.3" font-family="Times New Roman,serif" font-size="14.00">MUXDFF</text>
<polyline fill="none" stroke="black" points="302.91,-903 302.91,-1018 "/>
<text text-anchor="middle" x="316.41" y="-956.8" font-family="Times New Roman,serif" font-size="14.00">Q</text>
</g>
<!-- x18&#45;&gt;c13 -->
<g id="edge47" class="edge">
<title>x18:e&#45;&gt;c13:w</title>
<path fill="none" stroke="#7570b3" d="M171.54,-1082.64C186.42,-1069.16 169.47,-1024.22 184.12,-1010.51"/>
<polygon fill="none" stroke="#7570b3" points="171.3,-1082.72 166.86,-1088.41 159.91,-1086.5 164.34,-1080.81 171.3,-1082.72"/>
<polygon fill="none" stroke="#7570b3" points="184.55,-1010.36 188.94,-1004.64 195.91,-1006.5 191.51,-1012.22 184.55,-1010.36"/>
</g>
<!-- x19&#45;&gt;c13 -->
<g id="edge48" class="edge">
<title>x19:e&#45;&gt;c13:w</title>
<path fill="none" stroke="#e6ab02" d="M171.15,-1026.72C178.98,-1017.52 176.84,-997.44 184.68,-988.26"/>
<polygon fill="none" stroke="#e6ab02" points="170.95,-1026.81 166.99,-1032.84 159.91,-1031.5 163.87,-1025.47 170.95,-1026.81"/>
<polygon fill="none" stroke="#e6ab02" points="184.86,-988.18 188.82,-982.16 195.91,-983.5 191.94,-989.52 184.86,-988.18"/>
</g>
<!-- x22&#45;&gt;c13 -->
<g id="edge51" class="edge">
<title>x22:e&#45;&gt;c13:w</title>
<path fill="none" stroke="#d95f02" d="M171.75,-924.74C176.27,-927.51 179.55,-931.49 184.08,-934.27"/>
<polygon fill="none" stroke="#d95f02" points="171.48,-924.67 164.64,-926.94 159.91,-921.5 166.75,-919.22 171.48,-924.67"/>
<polygon fill="none" stroke="#d95f02" points="184.33,-934.34 191.17,-932.06 195.91,-937.5 189.07,-939.78 184.33,-934.34"/>
</g>
<!-- x23&#45;&gt;c13 -->
<g id="edge52" class="edge">
<title>x23:e&#45;&gt;c13:w</title>
<path fill="none" stroke="#e6ab02" d="M171.15,-871.28C178.98,-880.48 176.84,-900.56 184.68,-909.74"/>
<polygon fill="none" stroke="#e6ab02" points="170.95,-871.19 163.87,-872.53 159.91,-866.5 166.99,-865.16 170.95,-871.19"/>
<polygon fill="none" stroke="#e6ab02" points="184.86,-909.82 191.94,-908.48 195.91,-914.5 188.82,-915.84 184.86,-909.82"/>
</g>
<!-- x24&#45;&gt;n1 -->
<g id="edge53" class="edge">
<title>x24:e&#45;&gt;n1:w</title>
<path fill="none" stroke="#1b9e77" d="M159.91,-1306.5C189.59,-1306.5 199.45,-1306.5 224.8,-1306.5"/>
<polygon fill="#1b9e77" stroke="#1b9e77" points="224.91,-1310 234.91,-1306.5 224.91,-1303 224.91,-1310"/>
</g>
<!-- n3 -->
<g id="node22" class="node">
<title>n3</title>
<polygon fill="none" stroke="black" points="262.91,-1269.5 235.91,-1251.5 262.91,-1233.5 289.91,-1251.5 262.91,-1269.5"/>
<text text-anchor="middle" x="262.91" y="-1247.8" font-family="Times New Roman,serif" font-size="14.00">L</text>
</g>
<!-- x25&#45;&gt;n3 -->
<g id="edge54" class="edge">
<title>x25:e&#45;&gt;n3:w</title>
<path fill="none" stroke="#1b9e77" d="M159.91,-1251.5C189.59,-1251.5 199.45,-1251.5 224.8,-1251.5"/>
<polygon fill="#1b9e77" stroke="#1b9e77" points="224.91,-1255 234.91,-1251.5 224.91,-1248 224.91,-1255"/>
</g>
<!-- n6 -->
<g id="node30" class="node">
<title>n6</title>
<polygon fill="none" stroke="black" points="262.91,-1214.5 232.74,-1196.5 262.91,-1178.5 293.07,-1196.5 262.91,-1214.5"/>
<text text-anchor="middle" x="262.91" y="-1192.8" font-family="Times New Roman,serif" font-size="14.00">clk</text>
</g>
<!-- x26&#45;&gt;n6 -->
<g id="edge55" class="edge">
<title>x26:e&#45;&gt;n6:w</title>
<path fill="none" stroke="#a6761d" d="M159.91,-1196.5C188.28,-1196.5 197.79,-1196.5 221.89,-1196.5"/>
<polygon fill="#a6761d" stroke="#a6761d" points="221.91,-1200 231.91,-1196.5 221.91,-1193 221.91,-1200"/>
</g>
<!-- n7 -->
<g id="node31" class="node">
<title>n7</title>
<polygon fill="none" stroke="black" points="262.91,-1159.5 235.91,-1141.5 262.91,-1123.5 289.91,-1141.5 262.91,-1159.5"/>
<text text-anchor="middle" x="262.91" y="-1137.8" font-family="Times New Roman,serif" font-size="14.00">w</text>
</g>
<!-- x27&#45;&gt;n7 -->
<g id="edge56" class="edge">
<title>x27:e&#45;&gt;n7:w</title>
<path fill="none" stroke="#7570b3" d="M159.91,-1141.5C189.59,-1141.5 199.45,-1141.5 224.8,-1141.5"/>
<polygon fill="#7570b3" stroke="#7570b3" points="224.91,-1145 234.91,-1141.5 224.91,-1138 224.91,-1145"/>
</g>
<!-- x5&#45;&gt;c10 -->
<g id="edge31" class="edge">
<title>x5:e&#45;&gt;c10:w</title>
<path fill="none" stroke="#d95f02" d="M171.75,-649.74C176.27,-652.51 179.55,-656.49 184.08,-659.27"/>
<polygon fill="none" stroke="#d95f02" points="171.48,-649.67 164.64,-651.94 159.91,-646.5 166.75,-644.22 171.48,-649.67"/>
<polygon fill="none" stroke="#d95f02" points="184.33,-659.34 191.17,-657.06 195.91,-662.5 189.07,-664.78 184.33,-659.34"/>
</g>
<!-- x11&#45;&gt;c11 -->
<g id="edge38" class="edge">
<title>x11:e&#45;&gt;c11:w</title>
<path fill="none" stroke="#a6761d" d="M171.52,-321.1C182.15,-333.03 173.6,-364.79 184.65,-376.28"/>
<polygon fill="none" stroke="#a6761d" points="171.06,-320.92 164.01,-322.43 159.91,-316.5 166.96,-314.99 171.06,-320.92"/>
<polygon fill="none" stroke="#a6761d" points="184.67,-376.29 191.69,-374.65 195.91,-380.5 188.88,-382.14 184.67,-376.29"/>
</g>
<!-- x17&#45;&gt;c12 -->
<g id="edge45" class="edge">
<title>x17:e&#45;&gt;c12:w</title>
<path fill="none" stroke="#a6761d" d="M171.94,-149.95C176.18,-148.79 179.65,-147.21 183.89,-146.05"/>
<polygon fill="none" stroke="#a6761d" points="171.81,-149.96 166.37,-154.7 159.91,-151.5 165.35,-146.76 171.81,-149.96"/>
<polygon fill="none" stroke="#a6761d" points="184.01,-146.03 189.45,-141.3 195.91,-144.5 190.47,-149.23 184.01,-146.03"/>
</g>
<!-- x3&#45;&gt;c10 -->
<g id="edge29" class="edge">
<title>x3:e&#45;&gt;c10:w</title>
<path fill="none" stroke="#e6ab02" d="M172,-538.32C220.82,-555.51 135,-689.49 183.81,-706.68"/>
<polygon fill="none" stroke="#e6ab02" points="171.77,-538.28 165.25,-541.35 159.91,-536.5 166.43,-533.43 171.77,-538.28"/>
<polygon fill="none" stroke="#e6ab02" points="184.04,-706.72 190.57,-703.65 195.91,-708.5 189.38,-711.56 184.04,-706.72"/>
</g>
<!-- x9&#45;&gt;c11 -->
<g id="edge36" class="edge">
<title>x9:e&#45;&gt;c11:w</title>
<path fill="none" stroke="#7570b3" d="M172.12,-426.5C176.2,-426.5 179.64,-426.5 183.72,-426.5"/>
<polygon fill="none" stroke="#7570b3" points="171.91,-426.5 165.91,-430.5 159.91,-426.5 165.91,-422.5 171.91,-426.5"/>
<polygon fill="none" stroke="#7570b3" points="183.91,-426.5 189.91,-422.5 195.91,-426.5 189.91,-430.5 183.91,-426.5"/>
</g>
<!-- x15&#45;&gt;c12 -->
<g id="edge43" class="edge">
<title>x15:e&#45;&gt;c12:w</title>
<path fill="none" stroke="#1b9e77" d="M171.62,-99.85C190.84,-114.37 165.16,-171.88 183.87,-186.9"/>
<polygon fill="none" stroke="#1b9e77" points="171.45,-99.8 164.58,-101.99 159.91,-96.5 166.78,-94.3 171.45,-99.8"/>
<polygon fill="none" stroke="#1b9e77" points="184.41,-187.06 191.31,-184.95 195.91,-190.5 189.01,-192.61 184.41,-187.06"/>
</g>
<!-- x21&#45;&gt;c13 -->
<g id="edge50" class="edge">
<title>x21:e&#45;&gt;c13:w</title>
<path fill="none" stroke="#d95f02" d="M171.75,-973.26C176.27,-970.49 179.55,-966.51 184.08,-963.73"/>
<polygon fill="none" stroke="#d95f02" points="171.48,-973.33 166.75,-978.78 159.91,-976.5 164.64,-971.06 171.48,-973.33"/>
<polygon fill="none" stroke="#d95f02" points="184.33,-963.66 189.07,-958.22 195.91,-960.5 191.17,-965.94 184.33,-963.66"/>
</g>
<!-- x2 -->
<g id="node33" class="node">
<title>x2</title>
<path fill="none" stroke="black" d="M377.91,-640.5C377.91,-640.5 415.91,-640.5 415.91,-640.5 421.91,-640.5 427.91,-646.5 427.91,-652.5 427.91,-652.5 427.91,-664.5 427.91,-664.5 427.91,-670.5 421.91,-676.5 415.91,-676.5 415.91,-676.5 377.91,-676.5 377.91,-676.5 371.91,-676.5 365.91,-670.5 365.91,-664.5 365.91,-664.5 365.91,-652.5 365.91,-652.5 365.91,-646.5 371.91,-640.5 377.91,-640.5"/>
<text text-anchor="middle" x="396.91" y="-654.8" font-family="Times New Roman,serif" font-size="14.00">0:0 &#45; 0:0</text>
</g>
<!-- c10&#45;&gt;x2 -->
<g id="edge25" class="edge">
<title>c10:e&#45;&gt;x2:w</title>
<path fill="none" stroke="#e6ab02" d="M341.05,-703.89C349.34,-694.41 346.46,-672.84 354.65,-663.25"/>
<polygon fill="none" stroke="#e6ab02" points="340.99,-703.91 336.98,-709.9 329.91,-708.5 333.92,-702.51 340.99,-703.91"/>
<polygon fill="none" stroke="#e6ab02" points="354.85,-663.16 358.82,-657.15 365.91,-658.5 361.93,-664.52 354.85,-663.16"/>
</g>
<!-- x2&#45;&gt;n4 -->
<g id="edge28" class="edge">
<title>x2:e&#45;&gt;n4:w</title>
<path fill="none" stroke="#e7298a" d="M427.91,-658.5C528.58,-658.5 371.36,-442.53 453.91,-427.34"/>
<polygon fill="#e7298a" stroke="#e7298a" points="454.24,-430.82 463.91,-426.5 453.65,-423.85 454.24,-430.82"/>
</g>
<!-- x8 -->
<g id="node35" class="node">
<title>x8</title>
<path fill="none" stroke="black" d="M377.91,-408.5C377.91,-408.5 415.91,-408.5 415.91,-408.5 421.91,-408.5 427.91,-414.5 427.91,-420.5 427.91,-420.5 427.91,-432.5 427.91,-432.5 427.91,-438.5 421.91,-444.5 415.91,-444.5 415.91,-444.5 377.91,-444.5 377.91,-444.5 371.91,-444.5 365.91,-438.5 365.91,-432.5 365.91,-432.5 365.91,-420.5 365.91,-420.5 365.91,-414.5 371.91,-408.5 377.91,-408.5"/>
<text text-anchor="middle" x="396.91" y="-422.8" font-family="Times New Roman,serif" font-size="14.00">0:0 &#45; 1:1</text>
</g>
<!-- c11&#45;&gt;x8 -->
<g id="edge32" class="edge">
<title>c11:e&#45;&gt;x8:w</title>
<path fill="none" stroke="#1b9e77" d="M342.12,-426.5C346.2,-426.5 349.64,-426.5 353.72,-426.5"/>
<polygon fill="none" stroke="#1b9e77" points="341.91,-426.5 335.91,-430.5 329.91,-426.5 335.91,-422.5 341.91,-426.5"/>
<polygon fill="none" stroke="#1b9e77" points="353.91,-426.5 359.91,-422.5 365.91,-426.5 359.91,-430.5 353.91,-426.5"/>
</g>
<!-- x8&#45;&gt;n4 -->
<g id="edge35" class="edge">
<title>x8:e&#45;&gt;n4:w</title>
<path fill="none" stroke="#e7298a" d="M427.91,-426.5C439.91,-426.5 445.16,-426.5 453.78,-426.5"/>
<polygon fill="#e7298a" stroke="#e7298a" points="453.91,-430 463.91,-426.5 453.91,-423 453.91,-430"/>
</g>
<!-- x14 -->
<g id="node37" class="node">
<title>x14</title>
<path fill="none" stroke="black" d="M377.91,-194.5C377.91,-194.5 415.91,-194.5 415.91,-194.5 421.91,-194.5 427.91,-200.5 427.91,-206.5 427.91,-206.5 427.91,-218.5 427.91,-218.5 427.91,-224.5 421.91,-230.5 415.91,-230.5 415.91,-230.5 377.91,-230.5 377.91,-230.5 371.91,-230.5 365.91,-224.5 365.91,-218.5 365.91,-218.5 365.91,-206.5 365.91,-206.5 365.91,-200.5 371.91,-194.5 377.91,-194.5"/>
<text text-anchor="middle" x="396.91" y="-208.8" font-family="Times New Roman,serif" font-size="14.00">0:0 &#45; 2:2</text>
</g>
<!-- c12&#45;&gt;x14 -->
<g id="edge39" class="edge">
<title>c12:e&#45;&gt;x14:w</title>
<path fill="none" stroke="#e6ab02" d="M341.32,-194.33C346.3,-198.27 349.28,-204.38 354.18,-208.41"/>
<polygon fill="none" stroke="#e6ab02" points="341.28,-194.32 334.32,-196.2 329.91,-190.5 336.87,-188.62 341.28,-194.32"/>
<polygon fill="none" stroke="#e6ab02" points="354.58,-208.55 361.56,-206.75 365.91,-212.5 358.93,-214.3 354.58,-208.55"/>
</g>
<!-- x14&#45;&gt;n4 -->
<g id="edge42" class="edge">
<title>x14:e&#45;&gt;n4:w</title>
<path fill="none" stroke="#e7298a" d="M427.91,-212.5C520.59,-212.5 379.33,-410.11 453.73,-425.55"/>
<polygon fill="#e7298a" stroke="#e7298a" points="453.62,-429.05 463.91,-426.5 454.28,-422.08 453.62,-429.05"/>
</g>
<!-- x20 -->
<g id="node39" class="node">
<title>x20</title>
<path fill="none" stroke="black" d="M377.91,-827.5C377.91,-827.5 415.91,-827.5 415.91,-827.5 421.91,-827.5 427.91,-833.5 427.91,-839.5 427.91,-839.5 427.91,-851.5 427.91,-851.5 427.91,-857.5 421.91,-863.5 415.91,-863.5 415.91,-863.5 377.91,-863.5 377.91,-863.5 371.91,-863.5 365.91,-857.5 365.91,-851.5 365.91,-851.5 365.91,-839.5 365.91,-839.5 365.91,-833.5 371.91,-827.5 377.91,-827.5"/>
<text text-anchor="middle" x="396.91" y="-841.8" font-family="Times New Roman,serif" font-size="14.00">0:0 &#45; 3:3</text>
</g>
<!-- c13&#45;&gt;x20 -->
<g id="edge46" class="edge">
<title>c13:e&#45;&gt;x20:w</title>
<path fill="none" stroke="#7570b3" d="M341.89,-957.66C368.25,-941.75 327.45,-863.89 354.09,-848.24"/>
<polygon fill="none" stroke="#7570b3" points="341.58,-957.73 336.67,-963.01 329.91,-960.5 334.82,-955.22 341.58,-957.73"/>
<polygon fill="none" stroke="#7570b3" points="354.22,-848.21 359.16,-842.96 365.91,-845.5 360.97,-850.75 354.22,-848.21"/>
</g>
<!-- x20&#45;&gt;n4 -->
<g id="edge49" class="edge">
<title>x20:e&#45;&gt;n4:w</title>
<path fill="none" stroke="#e7298a" d="M427.91,-845.5C517.71,-845.5 381.87,-458.6 454.05,-428.37"/>
<polygon fill="#e7298a" stroke="#e7298a" points="454.73,-431.8 463.91,-426.5 453.43,-424.92 454.73,-431.8"/>
</g>
</g>
</svg>
