<?xml version="1.0" encoding="UTF-8" standalone="no"?>
<!DOCTYPE svg PUBLIC "-//W3C//DTD SVG 1.1//EN"
 "http://www.w3.org/Graphics/SVG/1.1/DTD/svg11.dtd">
<!-- Generated by graphviz version 4.0.0 (20220529.0937)
 -->
<!-- Title: top_module Pages: 1 -->
<svg width="4708pt" height="2047pt"
 viewBox="0.00 0.00 4708.07 2047.00" xmlns="http://www.w3.org/2000/svg" xmlns:xlink="http://www.w3.org/1999/xlink">
<g id="graph0" class="graph" transform="scale(1 1) rotate(0) translate(4 2043)">
<title>top_module</title>
<polygon fill="white" stroke="transparent" points="-4,4 -4,-2043 4704.07,-2043 4704.07,4 -4,4"/>
<text text-anchor="middle" x="2350.04" y="-7.8" font-family="Times New Roman,serif" font-size="14.00">top_module</text>
<!-- n1 -->
<g id="node1" class="node">
<title>n1</title>
<polygon fill="none" stroke="black" points="797.13,-1040.5 653.86,-1022.5 797.13,-1004.5 940.41,-1022.5 797.13,-1040.5"/>
<text text-anchor="middle" x="797.13" y="-1018.8" font-family="Times New Roman,serif" font-size="14.00">md0.Q_SB_DFFE_Q_E</text>
</g>
<!-- c53 -->
<g id="node58" class="node">
<title>c53</title>
<polygon fill="none" stroke="black" points="4133.56,-799 4133.56,-868 4326.56,-868 4326.56,-799 4133.56,-799"/>
<text text-anchor="middle" x="4146.56" y="-852.8" font-family="Times New Roman,serif" font-size="14.00">C</text>
<polyline fill="none" stroke="black" points="4133.56,-845 4159.56,-845 "/>
<text text-anchor="middle" x="4146.56" y="-829.8" font-family="Times New Roman,serif" font-size="14.00">D</text>
<polyline fill="none" stroke="black" points="4133.56,-822 4159.56,-822 "/>
<text text-anchor="middle" x="4146.56" y="-806.8" font-family="Times New Roman,serif" font-size="14.00">E</text>
<polyline fill="none" stroke="black" points="4159.56,-799 4159.56,-868 "/>
<text text-anchor="middle" x="4229.56" y="-837.3" font-family="Times New Roman,serif" font-size="14.00">md0.Q_SB_DFFE_Q</text>
<text text-anchor="middle" x="4229.56" y="-822.3" font-family="Times New Roman,serif" font-size="14.00">SB_DFFE</text>
<polyline fill="none" stroke="black" points="4299.56,-799 4299.56,-868 "/>
<text text-anchor="middle" x="4313.06" y="-829.8" font-family="Times New Roman,serif" font-size="14.00">Q</text>
</g>
<!-- n1&#45;&gt;c53 -->
<g id="edge17" class="edge">
<title>n1:e&#45;&gt;c53:w</title>
<path fill="none" stroke="#1b9e77" d="M942.13,-1022.5C1028.24,-1022.5 1049.76,-1022.5 1135.86,-1022.5 1135.86,-1022.5 1135.86,-1022.5 3952.33,-1022.5 4037.16,-1022.5 4046.63,-966.07 4096.56,-897.5 4118.97,-866.72 4096.64,-820.28 4123.53,-811.84"/>
<polygon fill="#1b9e77" stroke="#1b9e77" points="4124.11,-815.29 4133.56,-810.5 4123.18,-808.35 4124.11,-815.29"/>
</g>
<!-- c54 -->
<g id="node60" class="node">
<title>c54</title>
<polygon fill="none" stroke="black" points="3204.16,-735 3204.16,-804 3397.16,-804 3397.16,-735 3204.16,-735"/>
<text text-anchor="middle" x="3217.16" y="-788.8" font-family="Times New Roman,serif" font-size="14.00">C</text>
<polyline fill="none" stroke="black" points="3204.16,-781 3230.16,-781 "/>
<text text-anchor="middle" x="3217.16" y="-765.8" font-family="Times New Roman,serif" font-size="14.00">D</text>
<polyline fill="none" stroke="black" points="3204.16,-758 3230.16,-758 "/>
<text text-anchor="middle" x="3217.16" y="-742.8" font-family="Times New Roman,serif" font-size="14.00">E</text>
<polyline fill="none" stroke="black" points="3230.16,-735 3230.16,-804 "/>
<text text-anchor="middle" x="3300.16" y="-773.3" font-family="Times New Roman,serif" font-size="14.00">md1.Q_SB_DFFE_Q</text>
<text text-anchor="middle" x="3300.16" y="-758.3" font-family="Times New Roman,serif" font-size="14.00">SB_DFFE</text>
<polyline fill="none" stroke="black" points="3370.16,-735 3370.16,-804 "/>
<text text-anchor="middle" x="3383.66" y="-765.8" font-family="Times New Roman,serif" font-size="14.00">Q</text>
</g>
<!-- n1&#45;&gt;c54 -->
<g id="edge18" class="edge">
<title>n1:e&#45;&gt;c54:w</title>
<path fill="none" stroke="#1b9e77" d="M942.13,-1022.5C952.35,-1022.5 950.78,-1012.04 960.36,-1008.5 1099.88,-956.88 1480.05,-972.5 1628.81,-972.5 1628.81,-972.5 1628.81,-972.5 2456.76,-972.5 2651.95,-972.5 2679.98,-869.69 2839.71,-757.5 2857.5,-745 2856.33,-733.09 2876.71,-725.5 2997.68,-680.44 3042.35,-692.55 3167.16,-725.5 3181.44,-729.27 3184.45,-739.97 3194.1,-744.47"/>
<polygon fill="#1b9e77" stroke="#1b9e77" points="3193.66,-747.95 3204.16,-746.5 3195.05,-741.09 3193.66,-747.95"/>
</g>
<!-- c55 -->
<g id="node62" class="node">
<title>c55</title>
<polygon fill="none" stroke="black" points="2213.76,-1089 2213.76,-1158 2406.76,-1158 2406.76,-1089 2213.76,-1089"/>
<text text-anchor="middle" x="2226.76" y="-1142.8" font-family="Times New Roman,serif" font-size="14.00">C</text>
<polyline fill="none" stroke="black" points="2213.76,-1135 2239.76,-1135 "/>
<text text-anchor="middle" x="2226.76" y="-1119.8" font-family="Times New Roman,serif" font-size="14.00">D</text>
<polyline fill="none" stroke="black" points="2213.76,-1112 2239.76,-1112 "/>
<text text-anchor="middle" x="2226.76" y="-1096.8" font-family="Times New Roman,serif" font-size="14.00">E</text>
<polyline fill="none" stroke="black" points="2239.76,-1089 2239.76,-1158 "/>
<text text-anchor="middle" x="2309.76" y="-1127.3" font-family="Times New Roman,serif" font-size="14.00">md2.Q_SB_DFFE_Q</text>
<text text-anchor="middle" x="2309.76" y="-1112.3" font-family="Times New Roman,serif" font-size="14.00">SB_DFFE</text>
<polyline fill="none" stroke="black" points="2379.76,-1089 2379.76,-1158 "/>
<text text-anchor="middle" x="2393.26" y="-1119.8" font-family="Times New Roman,serif" font-size="14.00">Q</text>
</g>
<!-- n1&#45;&gt;c55 -->
<g id="edge19" class="edge">
<title>n1:e&#45;&gt;c55:w</title>
<path fill="none" stroke="#1b9e77" d="M942.13,-1022.5C952.35,-1022.5 950.93,-1032.57 960.36,-1036.5 1033.01,-1066.83 1057.14,-1060.5 1135.86,-1060.5 1135.86,-1060.5 1135.86,-1060.5 1971.53,-1060.5 2077.13,-1060.5 2103.01,-1097.96 2203.47,-1100.38"/>
<polygon fill="#1b9e77" stroke="#1b9e77" points="2203.72,-1103.88 2213.76,-1100.5 2203.8,-1096.88 2203.72,-1103.88"/>
</g>
<!-- c56 -->
<g id="node64" class="node">
<title>c56</title>
<polygon fill="none" stroke="black" points="1040.36,-876 1040.36,-945 1233.36,-945 1233.36,-876 1040.36,-876"/>
<text text-anchor="middle" x="1053.36" y="-929.8" font-family="Times New Roman,serif" font-size="14.00">C</text>
<polyline fill="none" stroke="black" points="1040.36,-922 1066.36,-922 "/>
<text text-anchor="middle" x="1053.36" y="-906.8" font-family="Times New Roman,serif" font-size="14.00">D</text>
<polyline fill="none" stroke="black" points="1040.36,-899 1066.36,-899 "/>
<text text-anchor="middle" x="1053.36" y="-883.8" font-family="Times New Roman,serif" font-size="14.00">E</text>
<polyline fill="none" stroke="black" points="1066.36,-876 1066.36,-945 "/>
<text text-anchor="middle" x="1136.36" y="-914.3" font-family="Times New Roman,serif" font-size="14.00">md3.Q_SB_DFFE_Q</text>
<text text-anchor="middle" x="1136.36" y="-899.3" font-family="Times New Roman,serif" font-size="14.00">SB_DFFE</text>
<polyline fill="none" stroke="black" points="1206.36,-876 1206.36,-945 "/>
<text text-anchor="middle" x="1219.86" y="-906.8" font-family="Times New Roman,serif" font-size="14.00">Q</text>
</g>
<!-- n1&#45;&gt;c56 -->
<g id="edge20" class="edge">
<title>n1:e&#45;&gt;c56:w</title>
<path fill="none" stroke="#1b9e77" d="M942.13,-1022.5C970,-1022.5 941.97,-983.44 960.36,-962.5 980.32,-939.78 1001.62,-956.5 1022.36,-934.5 1034.35,-921.79 1024.94,-900.25 1030.92,-891.44"/>
<polygon fill="#1b9e77" stroke="#1b9e77" points="1032.48,-894.58 1040.36,-887.5 1029.78,-888.12 1032.48,-894.58"/>
</g>
<!-- n2 -->
<g id="node2" class="node">
<title>n2</title>
<polygon fill="none" stroke="black" points="3021.93,-770.5 2876.48,-752.5 3021.93,-734.5 3167.39,-752.5 3021.93,-770.5"/>
<text text-anchor="middle" x="3021.93" y="-748.8" font-family="Times New Roman,serif" font-size="14.00">md1.Q_SB_DFFE_Q_D</text>
</g>
<!-- n2&#45;&gt;c54 -->
<g id="edge40" class="edge">
<title>n2:e&#45;&gt;c54:w</title>
<path fill="none" stroke="#7570b3" d="M3167.16,-752.5C3181.16,-752.5 3184.81,-762.67 3194.12,-767.28"/>
<polygon fill="#7570b3" stroke="#7570b3" points="3193.64,-770.76 3204.16,-769.5 3195.15,-763.92 3193.64,-770.76"/>
</g>
<!-- n3 -->
<g id="node3" class="node">
<title>n3</title>
<polygon fill="none" stroke="black" points="1970.53,-1146.5 1825.08,-1128.5 1970.53,-1110.5 2115.99,-1128.5 1970.53,-1146.5"/>
<text text-anchor="middle" x="1970.53" y="-1124.8" font-family="Times New Roman,serif" font-size="14.00">md2.Q_SB_DFFE_Q_D</text>
</g>
<!-- n3&#45;&gt;c55 -->
<g id="edge60" class="edge">
<title>n3:e&#45;&gt;c55:w</title>
<path fill="none" stroke="#a6761d" d="M2115.76,-1128.5C2155.79,-1128.5 2168.16,-1124.29 2203.65,-1123.6"/>
<polygon fill="#a6761d" stroke="#a6761d" points="2203.79,-1127.09 2213.76,-1123.5 2203.73,-1120.09 2203.79,-1127.09"/>
</g>
<!-- n4 -->
<g id="node4" class="node">
<title>n4</title>
<polygon fill="none" stroke="black" points="797.13,-862.5 651.68,-844.5 797.13,-826.5 942.59,-844.5 797.13,-862.5"/>
<text text-anchor="middle" x="797.13" y="-840.8" font-family="Times New Roman,serif" font-size="14.00">md3.Q_SB_DFFE_Q_D</text>
</g>
<!-- n4&#45;&gt;c56 -->
<g id="edge76" class="edge">
<title>n4:e&#45;&gt;c56:w</title>
<path fill="none" stroke="#d95f02" d="M942.36,-844.5C991.28,-844.5 988.53,-901.78 1030.39,-909.62"/>
<polygon fill="#d95f02" stroke="#d95f02" points="1030.09,-913.1 1040.36,-910.5 1030.71,-906.13 1030.09,-913.1"/>
</g>
<!-- n5 -->
<g id="node5" class="node">
<title>n5</title>
<polygon fill="none" stroke="black" points="3951.33,-694.5 3805.88,-676.5 3951.33,-658.5 4096.79,-676.5 3951.33,-694.5"/>
<text text-anchor="middle" x="3951.33" y="-672.8" font-family="Times New Roman,serif" font-size="14.00">md0.Q_SB_DFFE_Q_D</text>
</g>
<!-- n5&#45;&gt;c53 -->
<g id="edge79" class="edge">
<title>n5:e&#45;&gt;c53:w</title>
<path fill="none" stroke="#a6761d" d="M4096.56,-676.5C4164.33,-676.5 4072.97,-816.8 4123.34,-832.14"/>
<polygon fill="#a6761d" stroke="#a6761d" points="4123.19,-835.65 4133.56,-833.5 4124.11,-828.71 4123.19,-835.65"/>
</g>
<!-- n6 -->
<g id="node6" class="node">
<title>n6</title>
<polygon fill="none" stroke="black" points="406.41,-598.5 379.41,-580.5 406.41,-562.5 433.41,-580.5 406.41,-598.5"/>
<text text-anchor="middle" x="406.41" y="-576.8" font-family="Times New Roman,serif" font-size="14.00">E</text>
</g>
<!-- n7 -->
<g id="node7" class="node">
<title>n7</title>
<polygon fill="none" stroke="black" points="61.86,-1292.04 61.86,-1306.96 43.76,-1317.5 18.15,-1317.5 0.05,-1306.96 0.05,-1292.04 18.15,-1281.5 43.76,-1281.5 61.86,-1292.04"/>
<text text-anchor="middle" x="30.95" y="-1295.8" font-family="Times New Roman,serif" font-size="14.00">KEY</text>
</g>
<!-- x2 -->
<g id="node44" class="node">
<title>x2</title>
<path fill="none" stroke="black" d="M110.91,-1007.5C110.91,-1007.5 148.91,-1007.5 148.91,-1007.5 154.91,-1007.5 160.91,-1013.5 160.91,-1019.5 160.91,-1019.5 160.91,-1031.5 160.91,-1031.5 160.91,-1037.5 154.91,-1043.5 148.91,-1043.5 148.91,-1043.5 110.91,-1043.5 110.91,-1043.5 104.91,-1043.5 98.91,-1037.5 98.91,-1031.5 98.91,-1031.5 98.91,-1019.5 98.91,-1019.5 98.91,-1013.5 104.91,-1007.5 110.91,-1007.5"/>
<text text-anchor="middle" x="129.91" y="-1021.8" font-family="Times New Roman,serif" font-size="14.00">1:1 &#45; 0:0</text>
</g>
<!-- n7&#45;&gt;x2 -->
<g id="edge94" class="edge">
<title>n7:e&#45;&gt;x2:w</title>
<path fill="none" stroke="#1b9e77" d="M61.91,-1299.5C89.69,-1299.5 72.36,-1075.44 91.51,-1032.55"/>
<polygon fill="#1b9e77" stroke="#1b9e77" points="94.08,-1034.93 98.91,-1025.5 89.25,-1029.86 94.08,-1034.93"/>
</g>
<!-- x3 -->
<g id="node45" class="node">
<title>x3</title>
<path fill="none" stroke="black" d="M110.91,-952.5C110.91,-952.5 148.91,-952.5 148.91,-952.5 154.91,-952.5 160.91,-958.5 160.91,-964.5 160.91,-964.5 160.91,-976.5 160.91,-976.5 160.91,-982.5 154.91,-988.5 148.91,-988.5 148.91,-988.5 110.91,-988.5 110.91,-988.5 104.91,-988.5 98.91,-982.5 98.91,-976.5 98.91,-976.5 98.91,-964.5 98.91,-964.5 98.91,-958.5 104.91,-952.5 110.91,-952.5"/>
<text text-anchor="middle" x="129.91" y="-966.8" font-family="Times New Roman,serif" font-size="14.00">2:2 &#45; 0:0</text>
</g>
<!-- n7&#45;&gt;x3 -->
<g id="edge100" class="edge">
<title>n7:e&#45;&gt;x3:w</title>
<path fill="none" stroke="#1b9e77" d="M61.91,-1299.5C70.15,-1299.5 85.96,-1035.09 95.77,-980.35"/>
<polygon fill="#1b9e77" stroke="#1b9e77" points="99.21,-981.09 98.91,-970.5 92.54,-978.97 99.21,-981.09"/>
</g>
<!-- x6 -->
<g id="node49" class="node">
<title>x6</title>
<path fill="none" stroke="black" d="M190.91,-1382.5C190.91,-1382.5 228.91,-1382.5 228.91,-1382.5 234.91,-1382.5 240.91,-1388.5 240.91,-1394.5 240.91,-1394.5 240.91,-1406.5 240.91,-1406.5 240.91,-1412.5 234.91,-1418.5 228.91,-1418.5 228.91,-1418.5 190.91,-1418.5 190.91,-1418.5 184.91,-1418.5 178.91,-1412.5 178.91,-1406.5 178.91,-1406.5 178.91,-1394.5 178.91,-1394.5 178.91,-1388.5 184.91,-1382.5 190.91,-1382.5"/>
<text text-anchor="middle" x="209.91" y="-1396.8" font-family="Times New Roman,serif" font-size="14.00">2:2 &#45; 0:0</text>
</g>
<!-- n7&#45;&gt;x6 -->
<g id="edge108" class="edge">
<title>n7:e&#45;&gt;x6:w</title>
<path fill="none" stroke="#1b9e77" d="M61.91,-1299.5C81.81,-1299.5 71.81,-1322.32 79.91,-1340.5 88.25,-1359.21 83.02,-1369.56 98.91,-1382.5 124.4,-1403.27 139.35,-1401.21 168.8,-1400.61"/>
<polygon fill="#1b9e77" stroke="#1b9e77" points="168.95,-1404.11 178.91,-1400.5 168.87,-1397.11 168.95,-1404.11"/>
</g>
<!-- x9 -->
<g id="node53" class="node">
<title>x9</title>
<path fill="none" stroke="black" d="M2436.76,-611.5C2436.76,-611.5 2474.76,-611.5 2474.76,-611.5 2480.76,-611.5 2486.76,-617.5 2486.76,-623.5 2486.76,-623.5 2486.76,-635.5 2486.76,-635.5 2486.76,-641.5 2480.76,-647.5 2474.76,-647.5 2474.76,-647.5 2436.76,-647.5 2436.76,-647.5 2430.76,-647.5 2424.76,-641.5 2424.76,-635.5 2424.76,-635.5 2424.76,-623.5 2424.76,-623.5 2424.76,-617.5 2430.76,-611.5 2436.76,-611.5"/>
<text text-anchor="middle" x="2455.76" y="-625.8" font-family="Times New Roman,serif" font-size="14.00">2:2 &#45; 0:0</text>
</g>
<!-- n7&#45;&gt;x9 -->
<g id="edge109" class="edge">
<title>n7:e&#45;&gt;x9:w</title>
<path fill="none" stroke="#1b9e77" d="M61.91,-1299.5C78.25,-1299.5 76.86,-727.55 79.91,-711.5 87.96,-669.04 85.69,-627.5 128.91,-627.5 128.91,-627.5 128.91,-627.5 2165.76,-627.5 2277.39,-627.5 2307.82,-629.38 2414.54,-629.49"/>
<polygon fill="#1b9e77" stroke="#1b9e77" points="2414.76,-632.99 2424.76,-629.5 2414.76,-625.99 2414.76,-632.99"/>
</g>
<!-- x12 -->
<g id="node57" class="node">
<title>x12</title>
<path fill="none" stroke="black" d="M1464.31,-331.5C1464.31,-331.5 1502.31,-331.5 1502.31,-331.5 1508.31,-331.5 1514.31,-337.5 1514.31,-343.5 1514.31,-343.5 1514.31,-355.5 1514.31,-355.5 1514.31,-361.5 1508.31,-367.5 1502.31,-367.5 1502.31,-367.5 1464.31,-367.5 1464.31,-367.5 1458.31,-367.5 1452.31,-361.5 1452.31,-355.5 1452.31,-355.5 1452.31,-343.5 1452.31,-343.5 1452.31,-337.5 1458.31,-331.5 1464.31,-331.5"/>
<text text-anchor="middle" x="1483.31" y="-345.8" font-family="Times New Roman,serif" font-size="14.00">2:2 &#45; 0:0</text>
</g>
<!-- n7&#45;&gt;x12 -->
<g id="edge81" class="edge">
<title>n7:e&#45;&gt;x12:w</title>
<path fill="none" stroke="#1b9e77" d="M61.91,-1299.5C86.22,-1299.5 73.95,-448.07 79.91,-424.5 88.01,-392.44 95.84,-368.5 128.91,-368.5 128.91,-368.5 128.91,-368.5 1283.36,-368.5 1355.38,-368.5 1374.95,-351.24 1442.05,-349.62"/>
<polygon fill="#1b9e77" stroke="#1b9e77" points="1442.35,-353.12 1452.31,-349.5 1442.27,-346.12 1442.35,-353.12"/>
</g>
<!-- x13 -->
<g id="node59" class="node">
<title>x13</title>
<path fill="none" stroke="black" d="M583.91,-1569.5C583.91,-1569.5 621.91,-1569.5 621.91,-1569.5 627.91,-1569.5 633.91,-1575.5 633.91,-1581.5 633.91,-1581.5 633.91,-1593.5 633.91,-1593.5 633.91,-1599.5 627.91,-1605.5 621.91,-1605.5 621.91,-1605.5 583.91,-1605.5 583.91,-1605.5 577.91,-1605.5 571.91,-1599.5 571.91,-1593.5 571.91,-1593.5 571.91,-1581.5 571.91,-1581.5 571.91,-1575.5 577.91,-1569.5 583.91,-1569.5"/>
<text text-anchor="middle" x="602.91" y="-1583.8" font-family="Times New Roman,serif" font-size="14.00">0:0 &#45; 0:0</text>
</g>
<!-- n7&#45;&gt;x13 -->
<g id="edge82" class="edge">
<title>n7:e&#45;&gt;x13:w</title>
<path fill="none" stroke="#1b9e77" d="M61.91,-1299.5C78.44,-1299.5 77.04,-1580.22 79.91,-1596.5 85.06,-1625.72 76.28,-1641.31 98.91,-1660.5 139.65,-1695.05 499.02,-1711.84 553.91,-1667.5 578.71,-1647.46 545.99,-1601.24 561.83,-1590"/>
<polygon fill="#1b9e77" stroke="#1b9e77" points="563.04,-1593.3 571.91,-1587.5 561.36,-1586.51 563.04,-1593.3"/>
</g>
<!-- x14 -->
<g id="node61" class="node">
<title>x14</title>
<path fill="none" stroke="black" d="M1757.31,-709.5C1757.31,-709.5 1795.31,-709.5 1795.31,-709.5 1801.31,-709.5 1807.31,-715.5 1807.31,-721.5 1807.31,-721.5 1807.31,-733.5 1807.31,-733.5 1807.31,-739.5 1801.31,-745.5 1795.31,-745.5 1795.31,-745.5 1757.31,-745.5 1757.31,-745.5 1751.31,-745.5 1745.31,-739.5 1745.31,-733.5 1745.31,-733.5 1745.31,-721.5 1745.31,-721.5 1745.31,-715.5 1751.31,-709.5 1757.31,-709.5"/>
<text text-anchor="middle" x="1776.31" y="-723.8" font-family="Times New Roman,serif" font-size="14.00">0:0 &#45; 0:0</text>
</g>
<!-- n7&#45;&gt;x14 -->
<g id="edge83" class="edge">
<title>n7:e&#45;&gt;x14:w</title>
<path fill="none" stroke="#1b9e77" d="M61.91,-1299.5C76.25,-1299.5 78.3,-797.75 79.91,-783.5 84.93,-738.98 66.93,-715.88 98.91,-684.5 134.31,-649.75 159.29,-665.5 208.91,-665.5 208.91,-665.5 208.91,-665.5 1484.31,-665.5 1600.04,-665.5 1624.67,-723.92 1735.07,-727.34"/>
<polygon fill="#1b9e77" stroke="#1b9e77" points="1735.25,-730.85 1745.31,-727.5 1735.36,-723.85 1735.25,-730.85"/>
</g>
<!-- x15 -->
<g id="node63" class="node">
<title>x15</title>
<path fill="none" stroke="black" d="M583.91,-1305.5C583.91,-1305.5 621.91,-1305.5 621.91,-1305.5 627.91,-1305.5 633.91,-1311.5 633.91,-1317.5 633.91,-1317.5 633.91,-1329.5 633.91,-1329.5 633.91,-1335.5 627.91,-1341.5 621.91,-1341.5 621.91,-1341.5 583.91,-1341.5 583.91,-1341.5 577.91,-1341.5 571.91,-1335.5 571.91,-1329.5 571.91,-1329.5 571.91,-1317.5 571.91,-1317.5 571.91,-1311.5 577.91,-1305.5 583.91,-1305.5"/>
<text text-anchor="middle" x="602.91" y="-1319.8" font-family="Times New Roman,serif" font-size="14.00">0:0 &#45; 0:0</text>
</g>
<!-- n7&#45;&gt;x15 -->
<g id="edge84" class="edge">
<title>n7:e&#45;&gt;x15:w</title>
<path fill="none" stroke="#1b9e77" d="M61.91,-1299.5C77.5,-1299.5 77.1,-1564.17 79.91,-1579.5 85.09,-1607.85 75.73,-1624.36 98.91,-1641.5 110.88,-1650.35 494.85,-1696.44 553.91,-1640.5 577.22,-1618.42 543.78,-1373.93 564.19,-1330.18"/>
<polygon fill="#1b9e77" stroke="#1b9e77" points="566.64,-1332.69 571.91,-1323.5 562.06,-1327.4 566.64,-1332.69"/>
</g>
<!-- x16 -->
<g id="node65" class="node">
<title>x16</title>
<path fill="none" stroke="black" d="M190.91,-905.5C190.91,-905.5 228.91,-905.5 228.91,-905.5 234.91,-905.5 240.91,-911.5 240.91,-917.5 240.91,-917.5 240.91,-929.5 240.91,-929.5 240.91,-935.5 234.91,-941.5 228.91,-941.5 228.91,-941.5 190.91,-941.5 190.91,-941.5 184.91,-941.5 178.91,-935.5 178.91,-929.5 178.91,-929.5 178.91,-917.5 178.91,-917.5 178.91,-911.5 184.91,-905.5 190.91,-905.5"/>
<text text-anchor="middle" x="209.91" y="-919.8" font-family="Times New Roman,serif" font-size="14.00">0:0 &#45; 0:0</text>
</g>
<!-- n7&#45;&gt;x16 -->
<g id="edge85" class="edge">
<title>n7:e&#45;&gt;x16:w</title>
<path fill="none" stroke="#1b9e77" d="M61.91,-1299.5C63.15,-1299.5 98.09,-944.44 98.91,-943.5 120.58,-918.52 138.44,-922.34 168.65,-923.32"/>
<polygon fill="#1b9e77" stroke="#1b9e77" points="168.85,-926.82 178.91,-923.5 168.97,-919.83 168.85,-926.82"/>
</g>
<!-- x18 -->
<g id="node68" class="node">
<title>x18</title>
<path fill="none" stroke="black" d="M110.91,-804.5C110.91,-804.5 148.91,-804.5 148.91,-804.5 154.91,-804.5 160.91,-810.5 160.91,-816.5 160.91,-816.5 160.91,-828.5 160.91,-828.5 160.91,-834.5 154.91,-840.5 148.91,-840.5 148.91,-840.5 110.91,-840.5 110.91,-840.5 104.91,-840.5 98.91,-834.5 98.91,-828.5 98.91,-828.5 98.91,-816.5 98.91,-816.5 98.91,-810.5 104.91,-804.5 110.91,-804.5"/>
<text text-anchor="middle" x="129.91" y="-818.8" font-family="Times New Roman,serif" font-size="14.00">3:3 &#45; 0:0</text>
</g>
<!-- n7&#45;&gt;x18 -->
<g id="edge86" class="edge">
<title>n7:e&#45;&gt;x18:w</title>
<path fill="none" stroke="#1b9e77" d="M61.91,-1299.5C83.6,-1299.5 77.08,-931.01 79.91,-909.5 84.54,-874.24 64.24,-832.11 88.77,-823.92"/>
<polygon fill="#1b9e77" stroke="#1b9e77" points="89.49,-827.35 98.91,-822.5 88.52,-820.42 89.49,-827.35"/>
</g>
<!-- x20 -->
<g id="node70" class="node">
<title>x20</title>
<path fill="none" stroke="black" d="M110.91,-749.5C110.91,-749.5 148.91,-749.5 148.91,-749.5 154.91,-749.5 160.91,-755.5 160.91,-761.5 160.91,-761.5 160.91,-773.5 160.91,-773.5 160.91,-779.5 154.91,-785.5 148.91,-785.5 148.91,-785.5 110.91,-785.5 110.91,-785.5 104.91,-785.5 98.91,-779.5 98.91,-773.5 98.91,-773.5 98.91,-761.5 98.91,-761.5 98.91,-755.5 104.91,-749.5 110.91,-749.5"/>
<text text-anchor="middle" x="129.91" y="-763.8" font-family="Times New Roman,serif" font-size="14.00">2:2 &#45; 0:0</text>
</g>
<!-- n7&#45;&gt;x20 -->
<g id="edge87" class="edge">
<title>n7:e&#45;&gt;x20:w</title>
<path fill="none" stroke="#1b9e77" d="M61.91,-1299.5C88.2,-1299.5 75.33,-852.4 79.91,-826.5 83.95,-803.61 75.08,-777.34 88.76,-769.69"/>
<polygon fill="#1b9e77" stroke="#1b9e77" points="89.87,-773.04 98.91,-767.5 88.39,-766.19 89.87,-773.04"/>
</g>
<!-- x21 -->
<g id="node71" class="node">
<title>x21</title>
<path fill="none" stroke="black" d="M110.91,-562.5C110.91,-562.5 148.91,-562.5 148.91,-562.5 154.91,-562.5 160.91,-568.5 160.91,-574.5 160.91,-574.5 160.91,-586.5 160.91,-586.5 160.91,-592.5 154.91,-598.5 148.91,-598.5 148.91,-598.5 110.91,-598.5 110.91,-598.5 104.91,-598.5 98.91,-592.5 98.91,-586.5 98.91,-586.5 98.91,-574.5 98.91,-574.5 98.91,-568.5 104.91,-562.5 110.91,-562.5"/>
<text text-anchor="middle" x="129.91" y="-576.8" font-family="Times New Roman,serif" font-size="14.00">1:1 &#45; 0:0</text>
</g>
<!-- n7&#45;&gt;x21 -->
<g id="edge88" class="edge">
<title>n7:e&#45;&gt;x21:w</title>
<path fill="none" stroke="#1b9e77" d="M61.91,-1299.5C80.97,-1299.5 74.74,-631.85 79.91,-613.5 83.27,-601.54 82.82,-589.35 89.04,-583.72"/>
<polygon fill="#1b9e77" stroke="#1b9e77" points="90.48,-586.93 98.91,-580.5 88.31,-580.27 90.48,-586.93"/>
</g>
<!-- x22 -->
<g id="node72" class="node">
<title>x22</title>
<path fill="none" stroke="black" d="M110.91,-507.5C110.91,-507.5 148.91,-507.5 148.91,-507.5 154.91,-507.5 160.91,-513.5 160.91,-519.5 160.91,-519.5 160.91,-531.5 160.91,-531.5 160.91,-537.5 154.91,-543.5 148.91,-543.5 148.91,-543.5 110.91,-543.5 110.91,-543.5 104.91,-543.5 98.91,-537.5 98.91,-531.5 98.91,-531.5 98.91,-519.5 98.91,-519.5 98.91,-513.5 104.91,-507.5 110.91,-507.5"/>
<text text-anchor="middle" x="129.91" y="-521.8" font-family="Times New Roman,serif" font-size="14.00">2:2 &#45; 0:0</text>
</g>
<!-- n7&#45;&gt;x22 -->
<g id="edge89" class="edge">
<title>n7:e&#45;&gt;x22:w</title>
<path fill="none" stroke="#1b9e77" d="M61.91,-1299.5C81.16,-1299.5 77.45,-625.6 79.91,-606.5 84.12,-573.84 66.57,-535.1 88.8,-527.02"/>
<polygon fill="#1b9e77" stroke="#1b9e77" points="89.54,-530.45 98.91,-525.5 88.5,-523.53 89.54,-530.45"/>
</g>
<!-- x24 -->
<g id="node74" class="node">
<title>x24</title>
<path fill="none" stroke="black" d="M110.91,-452.5C110.91,-452.5 148.91,-452.5 148.91,-452.5 154.91,-452.5 160.91,-458.5 160.91,-464.5 160.91,-464.5 160.91,-476.5 160.91,-476.5 160.91,-482.5 154.91,-488.5 148.91,-488.5 148.91,-488.5 110.91,-488.5 110.91,-488.5 104.91,-488.5 98.91,-482.5 98.91,-476.5 98.91,-476.5 98.91,-464.5 98.91,-464.5 98.91,-458.5 104.91,-452.5 110.91,-452.5"/>
<text text-anchor="middle" x="129.91" y="-466.8" font-family="Times New Roman,serif" font-size="14.00">0:0 &#45; 0:0</text>
</g>
<!-- n7&#45;&gt;x24 -->
<g id="edge90" class="edge">
<title>n7:e&#45;&gt;x24:w</title>
<path fill="none" stroke="#1b9e77" d="M61.91,-1299.5C83.27,-1299.5 76.4,-551.58 79.91,-530.5 83.82,-507 74.56,-480.02 89,-472.52"/>
<polygon fill="#1b9e77" stroke="#1b9e77" points="89.81,-475.93 98.91,-470.5 88.41,-469.07 89.81,-475.93"/>
</g>
<!-- x25 -->
<g id="node75" class="node">
<title>x25</title>
<path fill="none" stroke="black" d="M110.91,-397.5C110.91,-397.5 148.91,-397.5 148.91,-397.5 154.91,-397.5 160.91,-403.5 160.91,-409.5 160.91,-409.5 160.91,-421.5 160.91,-421.5 160.91,-427.5 154.91,-433.5 148.91,-433.5 148.91,-433.5 110.91,-433.5 110.91,-433.5 104.91,-433.5 98.91,-427.5 98.91,-421.5 98.91,-421.5 98.91,-409.5 98.91,-409.5 98.91,-403.5 104.91,-397.5 110.91,-397.5"/>
<text text-anchor="middle" x="129.91" y="-411.8" font-family="Times New Roman,serif" font-size="14.00">1:1 &#45; 0:0</text>
</g>
<!-- n7&#45;&gt;x25 -->
<g id="edge91" class="edge">
<title>n7:e&#45;&gt;x25:w</title>
<path fill="none" stroke="#1b9e77" d="M61.91,-1299.5C84.58,-1299.5 76.58,-505.93 79.91,-483.5 83.9,-456.58 71.66,-425.21 88.8,-417.36"/>
<polygon fill="#1b9e77" stroke="#1b9e77" points="89.7,-420.75 98.91,-415.5 88.44,-413.86 89.7,-420.75"/>
</g>
<!-- x27 -->
<g id="node77" class="node">
<title>x27</title>
<path fill="none" stroke="black" d="M110.91,-2002.5C110.91,-2002.5 148.91,-2002.5 148.91,-2002.5 154.91,-2002.5 160.91,-2008.5 160.91,-2014.5 160.91,-2014.5 160.91,-2026.5 160.91,-2026.5 160.91,-2032.5 154.91,-2038.5 148.91,-2038.5 148.91,-2038.5 110.91,-2038.5 110.91,-2038.5 104.91,-2038.5 98.91,-2032.5 98.91,-2026.5 98.91,-2026.5 98.91,-2014.5 98.91,-2014.5 98.91,-2008.5 104.91,-2002.5 110.91,-2002.5"/>
<text text-anchor="middle" x="129.91" y="-2016.8" font-family="Times New Roman,serif" font-size="14.00">2:2 &#45; 0:0</text>
</g>
<!-- n7&#45;&gt;x27 -->
<g id="edge92" class="edge">
<title>n7:e&#45;&gt;x27:w</title>
<path fill="none" stroke="#1b9e77" d="M61.91,-1299.5C79.47,-1299.5 77.82,-1914.06 79.91,-1931.5 84.25,-1967.74 63.29,-2011.04 88.88,-2019.16"/>
<polygon fill="#1b9e77" stroke="#1b9e77" points="88.53,-2022.64 98.91,-2020.5 89.46,-2015.7 88.53,-2022.64"/>
</g>
<!-- x29 -->
<g id="node79" class="node">
<title>x29</title>
<path fill="none" stroke="black" d="M110.91,-1947.5C110.91,-1947.5 148.91,-1947.5 148.91,-1947.5 154.91,-1947.5 160.91,-1953.5 160.91,-1959.5 160.91,-1959.5 160.91,-1971.5 160.91,-1971.5 160.91,-1977.5 154.91,-1983.5 148.91,-1983.5 148.91,-1983.5 110.91,-1983.5 110.91,-1983.5 104.91,-1983.5 98.91,-1977.5 98.91,-1971.5 98.91,-1971.5 98.91,-1959.5 98.91,-1959.5 98.91,-1953.5 104.91,-1947.5 110.91,-1947.5"/>
<text text-anchor="middle" x="129.91" y="-1961.8" font-family="Times New Roman,serif" font-size="14.00">0:0 &#45; 0:0</text>
</g>
<!-- n7&#45;&gt;x29 -->
<g id="edge93" class="edge">
<title>n7:e&#45;&gt;x29:w</title>
<path fill="none" stroke="#1b9e77" d="M61.91,-1299.5C77.94,-1299.5 77.98,-1860.58 79.91,-1876.5 84.3,-1912.73 63.3,-1956.04 88.88,-1964.16"/>
<polygon fill="#1b9e77" stroke="#1b9e77" points="88.53,-1967.64 98.91,-1965.5 89.46,-1960.7 88.53,-1967.64"/>
</g>
<!-- x31 -->
<g id="node81" class="node">
<title>x31</title>
<path fill="none" stroke="black" d="M110.91,-1892.5C110.91,-1892.5 148.91,-1892.5 148.91,-1892.5 154.91,-1892.5 160.91,-1898.5 160.91,-1904.5 160.91,-1904.5 160.91,-1916.5 160.91,-1916.5 160.91,-1922.5 154.91,-1928.5 148.91,-1928.5 148.91,-1928.5 110.91,-1928.5 110.91,-1928.5 104.91,-1928.5 98.91,-1922.5 98.91,-1916.5 98.91,-1916.5 98.91,-1904.5 98.91,-1904.5 98.91,-1898.5 104.91,-1892.5 110.91,-1892.5"/>
<text text-anchor="middle" x="129.91" y="-1906.8" font-family="Times New Roman,serif" font-size="14.00">1:1 &#45; 0:0</text>
</g>
<!-- n7&#45;&gt;x31 -->
<g id="edge95" class="edge">
<title>n7:e&#45;&gt;x31:w</title>
<path fill="none" stroke="#1b9e77" d="M61.91,-1299.5C76.47,-1299.5 78.1,-1809.05 79.91,-1823.5 84.33,-1858.78 64.2,-1900.89 88.76,-1909.08"/>
<polygon fill="#1b9e77" stroke="#1b9e77" points="88.52,-1912.58 98.91,-1910.5 89.49,-1905.65 88.52,-1912.58"/>
</g>
<!-- x33 -->
<g id="node83" class="node">
<title>x33</title>
<path fill="none" stroke="black" d="M110.91,-1837.5C110.91,-1837.5 148.91,-1837.5 148.91,-1837.5 154.91,-1837.5 160.91,-1843.5 160.91,-1849.5 160.91,-1849.5 160.91,-1861.5 160.91,-1861.5 160.91,-1867.5 154.91,-1873.5 148.91,-1873.5 148.91,-1873.5 110.91,-1873.5 110.91,-1873.5 104.91,-1873.5 98.91,-1867.5 98.91,-1861.5 98.91,-1861.5 98.91,-1849.5 98.91,-1849.5 98.91,-1843.5 104.91,-1837.5 110.91,-1837.5"/>
<text text-anchor="middle" x="129.91" y="-1851.8" font-family="Times New Roman,serif" font-size="14.00">2:2 &#45; 0:0</text>
</g>
<!-- n7&#45;&gt;x33 -->
<g id="edge96" class="edge">
<title>n7:e&#45;&gt;x33:w</title>
<path fill="none" stroke="#1b9e77" d="M61.91,-1299.5C88.2,-1299.5 76.46,-1746.43 79.91,-1772.5 84.35,-1806.06 65.77,-1845.99 88.88,-1854.04"/>
<polygon fill="#1b9e77" stroke="#1b9e77" points="88.51,-1857.53 98.91,-1855.5 89.51,-1850.6 88.51,-1857.53"/>
</g>
<!-- x35 -->
<g id="node85" class="node">
<title>x35</title>
<path fill="none" stroke="black" d="M110.91,-1782.5C110.91,-1782.5 148.91,-1782.5 148.91,-1782.5 154.91,-1782.5 160.91,-1788.5 160.91,-1794.5 160.91,-1794.5 160.91,-1806.5 160.91,-1806.5 160.91,-1812.5 154.91,-1818.5 148.91,-1818.5 148.91,-1818.5 110.91,-1818.5 110.91,-1818.5 104.91,-1818.5 98.91,-1812.5 98.91,-1806.5 98.91,-1806.5 98.91,-1794.5 98.91,-1794.5 98.91,-1788.5 104.91,-1782.5 110.91,-1782.5"/>
<text text-anchor="middle" x="129.91" y="-1796.8" font-family="Times New Roman,serif" font-size="14.00">0:0 &#45; 0:0</text>
</g>
<!-- n7&#45;&gt;x35 -->
<g id="edge97" class="edge">
<title>n7:e&#45;&gt;x35:w</title>
<path fill="none" stroke="#1b9e77" d="M61.91,-1299.5C85.71,-1299.5 76.39,-1703.96 79.91,-1727.5 84.26,-1756.64 69.74,-1790.95 88.92,-1798.83"/>
<polygon fill="#1b9e77" stroke="#1b9e77" points="88.47,-1802.3 98.91,-1800.5 89.62,-1795.4 88.47,-1802.3"/>
</g>
<!-- x37 -->
<g id="node87" class="node">
<title>x37</title>
<path fill="none" stroke="black" d="M110.91,-1727.5C110.91,-1727.5 148.91,-1727.5 148.91,-1727.5 154.91,-1727.5 160.91,-1733.5 160.91,-1739.5 160.91,-1739.5 160.91,-1751.5 160.91,-1751.5 160.91,-1757.5 154.91,-1763.5 148.91,-1763.5 148.91,-1763.5 110.91,-1763.5 110.91,-1763.5 104.91,-1763.5 98.91,-1757.5 98.91,-1751.5 98.91,-1751.5 98.91,-1739.5 98.91,-1739.5 98.91,-1733.5 104.91,-1727.5 110.91,-1727.5"/>
<text text-anchor="middle" x="129.91" y="-1741.8" font-family="Times New Roman,serif" font-size="14.00">1:1 &#45; 0:0</text>
</g>
<!-- n7&#45;&gt;x37 -->
<g id="edge98" class="edge">
<title>n7:e&#45;&gt;x37:w</title>
<path fill="none" stroke="#1b9e77" d="M61.91,-1299.5C84.87,-1299.5 73.49,-1690.45 79.91,-1712.5 83.38,-1724.43 82.87,-1736.64 89.06,-1742.28"/>
<polygon fill="#1b9e77" stroke="#1b9e77" points="88.31,-1745.72 98.91,-1745.5 90.49,-1739.06 88.31,-1745.72"/>
</g>
<!-- x39 -->
<g id="node89" class="node">
<title>x39</title>
<path fill="none" stroke="black" d="M110.91,-1595.5C110.91,-1595.5 148.91,-1595.5 148.91,-1595.5 154.91,-1595.5 160.91,-1601.5 160.91,-1607.5 160.91,-1607.5 160.91,-1619.5 160.91,-1619.5 160.91,-1625.5 154.91,-1631.5 148.91,-1631.5 148.91,-1631.5 110.91,-1631.5 110.91,-1631.5 104.91,-1631.5 98.91,-1625.5 98.91,-1619.5 98.91,-1619.5 98.91,-1607.5 98.91,-1607.5 98.91,-1601.5 104.91,-1595.5 110.91,-1595.5"/>
<text text-anchor="middle" x="129.91" y="-1609.8" font-family="Times New Roman,serif" font-size="14.00">2:2 &#45; 0:0</text>
</g>
<!-- n7&#45;&gt;x39 -->
<g id="edge99" class="edge">
<title>n7:e&#45;&gt;x39:w</title>
<path fill="none" stroke="#1b9e77" d="M61.91,-1299.5C87.21,-1299.5 76.2,-1501.47 79.91,-1526.5 85.12,-1561.67 64.36,-1603.87 88.79,-1612.08"/>
<polygon fill="#1b9e77" stroke="#1b9e77" points="88.52,-1615.58 98.91,-1613.5 89.49,-1608.64 88.52,-1615.58"/>
</g>
<!-- x41 -->
<g id="node91" class="node">
<title>x41</title>
<path fill="none" stroke="black" d="M110.91,-1540.5C110.91,-1540.5 148.91,-1540.5 148.91,-1540.5 154.91,-1540.5 160.91,-1546.5 160.91,-1552.5 160.91,-1552.5 160.91,-1564.5 160.91,-1564.5 160.91,-1570.5 154.91,-1576.5 148.91,-1576.5 148.91,-1576.5 110.91,-1576.5 110.91,-1576.5 104.91,-1576.5 98.91,-1570.5 98.91,-1564.5 98.91,-1564.5 98.91,-1552.5 98.91,-1552.5 98.91,-1546.5 104.91,-1540.5 110.91,-1540.5"/>
<text text-anchor="middle" x="129.91" y="-1554.8" font-family="Times New Roman,serif" font-size="14.00">0:0 &#45; 0:0</text>
</g>
<!-- n7&#45;&gt;x41 -->
<g id="edge101" class="edge">
<title>n7:e&#45;&gt;x41:w</title>
<path fill="none" stroke="#1b9e77" d="M61.91,-1299.5C81.56,-1299.5 76.71,-1456.1 79.91,-1475.5 85.42,-1508.9 65.99,-1548.96 88.92,-1557.04"/>
<polygon fill="#1b9e77" stroke="#1b9e77" points="88.51,-1560.52 98.91,-1558.5 89.52,-1553.59 88.51,-1560.52"/>
</g>
<!-- x43 -->
<g id="node93" class="node">
<title>x43</title>
<path fill="none" stroke="black" d="M110.91,-1485.5C110.91,-1485.5 148.91,-1485.5 148.91,-1485.5 154.91,-1485.5 160.91,-1491.5 160.91,-1497.5 160.91,-1497.5 160.91,-1509.5 160.91,-1509.5 160.91,-1515.5 154.91,-1521.5 148.91,-1521.5 148.91,-1521.5 110.91,-1521.5 110.91,-1521.5 104.91,-1521.5 98.91,-1515.5 98.91,-1509.5 98.91,-1509.5 98.91,-1497.5 98.91,-1497.5 98.91,-1491.5 104.91,-1485.5 110.91,-1485.5"/>
<text text-anchor="middle" x="129.91" y="-1499.8" font-family="Times New Roman,serif" font-size="14.00">1:1 &#45; 0:0</text>
</g>
<!-- n7&#45;&gt;x43 -->
<g id="edge102" class="edge">
<title>n7:e&#45;&gt;x43:w</title>
<path fill="none" stroke="#1b9e77" d="M61.91,-1299.5C91.29,-1299.5 74.2,-1401.68 79.91,-1430.5 85.63,-1459.4 70.07,-1493.89 88.98,-1501.82"/>
<polygon fill="#1b9e77" stroke="#1b9e77" points="88.46,-1505.28 98.91,-1503.5 89.63,-1498.38 88.46,-1505.28"/>
</g>
<!-- x44 -->
<g id="node94" class="node">
<title>x44</title>
<path fill="none" stroke="black" d="M110.91,-1430.5C110.91,-1430.5 148.91,-1430.5 148.91,-1430.5 154.91,-1430.5 160.91,-1436.5 160.91,-1442.5 160.91,-1442.5 160.91,-1454.5 160.91,-1454.5 160.91,-1460.5 154.91,-1466.5 148.91,-1466.5 148.91,-1466.5 110.91,-1466.5 110.91,-1466.5 104.91,-1466.5 98.91,-1460.5 98.91,-1454.5 98.91,-1454.5 98.91,-1442.5 98.91,-1442.5 98.91,-1436.5 104.91,-1430.5 110.91,-1430.5"/>
<text text-anchor="middle" x="129.91" y="-1444.8" font-family="Times New Roman,serif" font-size="14.00">3:3 &#45; 0:0</text>
</g>
<!-- n7&#45;&gt;x44 -->
<g id="edge103" class="edge">
<title>n7:e&#45;&gt;x44:w</title>
<path fill="none" stroke="#1b9e77" d="M61.91,-1299.5C87.99,-1299.5 71.25,-1390.89 79.91,-1415.5 84.03,-1427.22 83.22,-1439.53 89.2,-1445.23"/>
<polygon fill="#1b9e77" stroke="#1b9e77" points="88.31,-1448.63 98.91,-1448.5 90.55,-1441.99 88.31,-1448.63"/>
</g>
<!-- x45 -->
<g id="node95" class="node">
<title>x45</title>
<path fill="none" stroke="black" d="M110.91,-1336.5C110.91,-1336.5 148.91,-1336.5 148.91,-1336.5 154.91,-1336.5 160.91,-1342.5 160.91,-1348.5 160.91,-1348.5 160.91,-1360.5 160.91,-1360.5 160.91,-1366.5 154.91,-1372.5 148.91,-1372.5 148.91,-1372.5 110.91,-1372.5 110.91,-1372.5 104.91,-1372.5 98.91,-1366.5 98.91,-1360.5 98.91,-1360.5 98.91,-1348.5 98.91,-1348.5 98.91,-1342.5 104.91,-1336.5 110.91,-1336.5"/>
<text text-anchor="middle" x="129.91" y="-1350.8" font-family="Times New Roman,serif" font-size="14.00">2:2 &#45; 0:0</text>
</g>
<!-- n7&#45;&gt;x45 -->
<g id="edge104" class="edge">
<title>n7:e&#45;&gt;x45:w</title>
<path fill="none" stroke="#1b9e77" d="M61.91,-1299.5C87.23,-1299.5 74.6,-1340.12 89.24,-1351.54"/>
<polygon fill="#1b9e77" stroke="#1b9e77" points="88.32,-1354.92 98.91,-1354.5 90.37,-1348.23 88.32,-1354.92"/>
</g>
<!-- x47 -->
<g id="node97" class="node">
<title>x47</title>
<path fill="none" stroke="black" d="M110.91,-1281.5C110.91,-1281.5 148.91,-1281.5 148.91,-1281.5 154.91,-1281.5 160.91,-1287.5 160.91,-1293.5 160.91,-1293.5 160.91,-1305.5 160.91,-1305.5 160.91,-1311.5 154.91,-1317.5 148.91,-1317.5 148.91,-1317.5 110.91,-1317.5 110.91,-1317.5 104.91,-1317.5 98.91,-1311.5 98.91,-1305.5 98.91,-1305.5 98.91,-1293.5 98.91,-1293.5 98.91,-1287.5 104.91,-1281.5 110.91,-1281.5"/>
<text text-anchor="middle" x="129.91" y="-1295.8" font-family="Times New Roman,serif" font-size="14.00">0:0 &#45; 0:0</text>
</g>
<!-- n7&#45;&gt;x47 -->
<g id="edge105" class="edge">
<title>n7:e&#45;&gt;x47:w</title>
<path fill="none" stroke="#1b9e77" d="M61.91,-1299.5C74.37,-1299.5 79.75,-1299.5 88.78,-1299.5"/>
<polygon fill="#1b9e77" stroke="#1b9e77" points="88.91,-1303 98.91,-1299.5 88.91,-1296 88.91,-1303"/>
</g>
<!-- x48 -->
<g id="node98" class="node">
<title>x48</title>
<path fill="none" stroke="black" d="M110.91,-1226.5C110.91,-1226.5 148.91,-1226.5 148.91,-1226.5 154.91,-1226.5 160.91,-1232.5 160.91,-1238.5 160.91,-1238.5 160.91,-1250.5 160.91,-1250.5 160.91,-1256.5 154.91,-1262.5 148.91,-1262.5 148.91,-1262.5 110.91,-1262.5 110.91,-1262.5 104.91,-1262.5 98.91,-1256.5 98.91,-1250.5 98.91,-1250.5 98.91,-1238.5 98.91,-1238.5 98.91,-1232.5 104.91,-1226.5 110.91,-1226.5"/>
<text text-anchor="middle" x="129.91" y="-1240.8" font-family="Times New Roman,serif" font-size="14.00">3:3 &#45; 0:0</text>
</g>
<!-- n7&#45;&gt;x48 -->
<g id="edge106" class="edge">
<title>n7:e&#45;&gt;x48:w</title>
<path fill="none" stroke="#1b9e77" d="M61.91,-1299.5C87.23,-1299.5 74.6,-1258.88 89.24,-1247.46"/>
<polygon fill="#1b9e77" stroke="#1b9e77" points="90.37,-1250.77 98.91,-1244.5 88.32,-1244.08 90.37,-1250.77"/>
</g>
<!-- x49 -->
<g id="node99" class="node">
<title>x49</title>
<path fill="none" stroke="black" d="M110.91,-1171.5C110.91,-1171.5 148.91,-1171.5 148.91,-1171.5 154.91,-1171.5 160.91,-1177.5 160.91,-1183.5 160.91,-1183.5 160.91,-1195.5 160.91,-1195.5 160.91,-1201.5 154.91,-1207.5 148.91,-1207.5 148.91,-1207.5 110.91,-1207.5 110.91,-1207.5 104.91,-1207.5 98.91,-1201.5 98.91,-1195.5 98.91,-1195.5 98.91,-1183.5 98.91,-1183.5 98.91,-1177.5 104.91,-1171.5 110.91,-1171.5"/>
<text text-anchor="middle" x="129.91" y="-1185.8" font-family="Times New Roman,serif" font-size="14.00">3:3 &#45; 0:0</text>
</g>
<!-- n7&#45;&gt;x49 -->
<g id="edge107" class="edge">
<title>n7:e&#45;&gt;x49:w</title>
<path fill="none" stroke="#1b9e77" d="M61.91,-1299.5C84.17,-1299.5 76.35,-1217.52 90.39,-1195.11"/>
<polygon fill="#1b9e77" stroke="#1b9e77" points="92.48,-1197.92 98.91,-1189.5 88.63,-1192.07 92.48,-1197.92"/>
</g>
<!-- n8 -->
<g id="node8" class="node">
<title>n8</title>
<polygon fill="none" stroke="black" points="406.41,-543.5 379.41,-525.5 406.41,-507.5 433.41,-525.5 406.41,-543.5"/>
<text text-anchor="middle" x="406.41" y="-521.8" font-family="Times New Roman,serif" font-size="14.00">L</text>
</g>
<!-- n9 -->
<g id="node9" class="node">
<title>n9</title>
<polygon fill="none" stroke="black" points="4699.86,-826.04 4699.86,-840.96 4678.15,-851.5 4647.43,-851.5 4625.72,-840.96 4625.72,-826.04 4647.43,-815.5 4678.15,-815.5 4699.86,-826.04"/>
<text text-anchor="middle" x="4662.79" y="-829.8" font-family="Times New Roman,serif" font-size="14.00">LEDR</text>
</g>
<!-- n10 -->
<g id="node10" class="node">
<title>n10</title>
<polygon fill="none" stroke="black" points="57.95,-204.04 57.95,-218.96 42.14,-229.5 19.77,-229.5 3.95,-218.96 3.95,-204.04 19.77,-193.5 42.14,-193.5 57.95,-204.04"/>
<text text-anchor="middle" x="30.95" y="-207.8" font-family="Times New Roman,serif" font-size="14.00">SW</text>
</g>
<!-- x5 -->
<g id="node48" class="node">
<title>x5</title>
<path fill="none" stroke="black" d="M972.36,-314.5C972.36,-314.5 1010.36,-314.5 1010.36,-314.5 1016.36,-314.5 1022.36,-320.5 1022.36,-326.5 1022.36,-326.5 1022.36,-338.5 1022.36,-338.5 1022.36,-344.5 1016.36,-350.5 1010.36,-350.5 1010.36,-350.5 972.36,-350.5 972.36,-350.5 966.36,-350.5 960.36,-344.5 960.36,-338.5 960.36,-338.5 960.36,-326.5 960.36,-326.5 960.36,-320.5 966.36,-314.5 972.36,-314.5"/>
<text text-anchor="middle" x="991.36" y="-328.8" font-family="Times New Roman,serif" font-size="14.00">2:2 &#45; 0:0</text>
</g>
<!-- n10&#45;&gt;x5 -->
<g id="edge27" class="edge">
<title>n10:e&#45;&gt;x5:w</title>
<path fill="none" stroke="#1b9e77" d="M58.95,-211.5C102.19,-211.5 53.19,-272.51 79.91,-306.5 94.89,-325.56 104.66,-330.5 128.91,-330.5 128.91,-330.5 128.91,-330.5 603.91,-330.5 758.93,-330.5 800.18,-332.41 950.31,-332.5"/>
<polygon fill="#1b9e77" stroke="#1b9e77" points="950.36,-336 960.36,-332.5 950.36,-329 950.36,-336"/>
</g>
<!-- x8 -->
<g id="node52" class="node">
<title>x8</title>
<path fill="none" stroke="black" d="M2145.76,-275.5C2145.76,-275.5 2183.76,-275.5 2183.76,-275.5 2189.76,-275.5 2195.76,-281.5 2195.76,-287.5 2195.76,-287.5 2195.76,-299.5 2195.76,-299.5 2195.76,-305.5 2189.76,-311.5 2183.76,-311.5 2183.76,-311.5 2145.76,-311.5 2145.76,-311.5 2139.76,-311.5 2133.76,-305.5 2133.76,-299.5 2133.76,-299.5 2133.76,-287.5 2133.76,-287.5 2133.76,-281.5 2139.76,-275.5 2145.76,-275.5"/>
<text text-anchor="middle" x="2164.76" y="-289.8" font-family="Times New Roman,serif" font-size="14.00">1:1 &#45; 0:0</text>
</g>
<!-- n10&#45;&gt;x8 -->
<g id="edge28" class="edge">
<title>n10:e&#45;&gt;x8:w</title>
<path fill="none" stroke="#1b9e77" d="M58.95,-211.5C76.7,-211.5 70.14,-230.68 79.91,-245.5 96.51,-270.7 98.73,-292.5 128.91,-292.5 128.91,-292.5 128.91,-292.5 1777.31,-292.5 1932.33,-292.5 1973.58,-293.46 2123.71,-293.5"/>
<polygon fill="#1b9e77" stroke="#1b9e77" points="2123.76,-297 2133.76,-293.5 2123.76,-290 2123.76,-297"/>
</g>
<!-- x11 -->
<g id="node56" class="node">
<title>x11</title>
<path fill="none" stroke="black" d="M1263.36,-153.5C1263.36,-153.5 1301.36,-153.5 1301.36,-153.5 1307.36,-153.5 1313.36,-159.5 1313.36,-165.5 1313.36,-165.5 1313.36,-177.5 1313.36,-177.5 1313.36,-183.5 1307.36,-189.5 1301.36,-189.5 1301.36,-189.5 1263.36,-189.5 1263.36,-189.5 1257.36,-189.5 1251.36,-183.5 1251.36,-177.5 1251.36,-177.5 1251.36,-165.5 1251.36,-165.5 1251.36,-159.5 1257.36,-153.5 1263.36,-153.5"/>
<text text-anchor="middle" x="1282.36" y="-167.8" font-family="Times New Roman,serif" font-size="14.00">0:0 &#45; 0:0</text>
</g>
<!-- n10&#45;&gt;x11 -->
<g id="edge21" class="edge">
<title>n10:e&#45;&gt;x11:w</title>
<path fill="none" stroke="#1b9e77" d="M58.95,-211.5C88.46,-211.5 69.03,-175.93 79.91,-148.5 87.31,-129.83 85.66,-122.6 98.91,-107.5 109.32,-95.64 113.12,-88.5 128.91,-88.5 128.91,-88.5 128.91,-88.5 992.36,-88.5 1109.82,-88.5 1129.42,-166.87 1241.34,-171.3"/>
<polygon fill="#1b9e77" stroke="#1b9e77" points="1241.29,-174.8 1251.36,-171.5 1241.43,-167.81 1241.29,-174.8"/>
</g>
<!-- x19 -->
<g id="node69" class="node">
<title>x19</title>
<path fill="none" stroke="black" d="M110.91,-694.5C110.91,-694.5 148.91,-694.5 148.91,-694.5 154.91,-694.5 160.91,-700.5 160.91,-706.5 160.91,-706.5 160.91,-718.5 160.91,-718.5 160.91,-724.5 154.91,-730.5 148.91,-730.5 148.91,-730.5 110.91,-730.5 110.91,-730.5 104.91,-730.5 98.91,-724.5 98.91,-718.5 98.91,-718.5 98.91,-706.5 98.91,-706.5 98.91,-700.5 104.91,-694.5 110.91,-694.5"/>
<text text-anchor="middle" x="129.91" y="-708.8" font-family="Times New Roman,serif" font-size="14.00">3:3 &#45; 0:0</text>
</g>
<!-- n10&#45;&gt;x19 -->
<g id="edge22" class="edge">
<title>n10:e&#45;&gt;x19:w</title>
<path fill="none" stroke="#1b9e77" d="M58.95,-211.5C84.75,-211.5 73.15,-639.08 93.25,-704.22"/>
<polygon fill="#1b9e77" stroke="#1b9e77" points="90.38,-706.22 98.91,-712.5 96.16,-702.27 90.38,-706.22"/>
</g>
<!-- x28 -->
<g id="node78" class="node">
<title>x28</title>
<path fill="none" stroke="black" d="M110.91,-23.5C110.91,-23.5 148.91,-23.5 148.91,-23.5 154.91,-23.5 160.91,-29.5 160.91,-35.5 160.91,-35.5 160.91,-47.5 160.91,-47.5 160.91,-53.5 154.91,-59.5 148.91,-59.5 148.91,-59.5 110.91,-59.5 110.91,-59.5 104.91,-59.5 98.91,-53.5 98.91,-47.5 98.91,-47.5 98.91,-35.5 98.91,-35.5 98.91,-29.5 104.91,-23.5 110.91,-23.5"/>
<text text-anchor="middle" x="129.91" y="-37.8" font-family="Times New Roman,serif" font-size="14.00">0:0 &#45; 0:0</text>
</g>
<!-- n10&#45;&gt;x28 -->
<g id="edge23" class="edge">
<title>n10:e&#45;&gt;x28:w</title>
<path fill="none" stroke="#1b9e77" d="M58.95,-211.5C89.75,-211.5 69.72,-103.57 79.91,-74.5 84.02,-62.77 83.21,-50.47 89.19,-44.77"/>
<polygon fill="#1b9e77" stroke="#1b9e77" points="90.54,-48 98.91,-41.5 88.31,-41.37 90.54,-48"/>
</g>
<!-- x34 -->
<g id="node84" class="node">
<title>x34</title>
<path fill="none" stroke="black" d="M110.91,-227.5C110.91,-227.5 148.91,-227.5 148.91,-227.5 154.91,-227.5 160.91,-233.5 160.91,-239.5 160.91,-239.5 160.91,-251.5 160.91,-251.5 160.91,-257.5 154.91,-263.5 148.91,-263.5 148.91,-263.5 110.91,-263.5 110.91,-263.5 104.91,-263.5 98.91,-257.5 98.91,-251.5 98.91,-251.5 98.91,-239.5 98.91,-239.5 98.91,-233.5 104.91,-227.5 110.91,-227.5"/>
<text text-anchor="middle" x="129.91" y="-241.8" font-family="Times New Roman,serif" font-size="14.00">1:1 &#45; 0:0</text>
</g>
<!-- n10&#45;&gt;x34 -->
<g id="edge24" class="edge">
<title>n10:e&#45;&gt;x34:w</title>
<path fill="none" stroke="#1b9e77" d="M58.95,-211.5C78.26,-211.5 77,-234.82 89.24,-242.83"/>
<polygon fill="#1b9e77" stroke="#1b9e77" points="88.34,-246.21 98.91,-245.5 90.2,-239.47 88.34,-246.21"/>
</g>
<!-- x40 -->
<g id="node90" class="node">
<title>x40</title>
<path fill="none" stroke="black" d="M110.91,-172.5C110.91,-172.5 148.91,-172.5 148.91,-172.5 154.91,-172.5 160.91,-178.5 160.91,-184.5 160.91,-184.5 160.91,-196.5 160.91,-196.5 160.91,-202.5 154.91,-208.5 148.91,-208.5 148.91,-208.5 110.91,-208.5 110.91,-208.5 104.91,-208.5 98.91,-202.5 98.91,-196.5 98.91,-196.5 98.91,-184.5 98.91,-184.5 98.91,-178.5 104.91,-172.5 110.91,-172.5"/>
<text text-anchor="middle" x="129.91" y="-186.8" font-family="Times New Roman,serif" font-size="14.00">2:2 &#45; 0:0</text>
</g>
<!-- n10&#45;&gt;x40 -->
<g id="edge25" class="edge">
<title>n10:e&#45;&gt;x40:w</title>
<path fill="none" stroke="#1b9e77" d="M58.95,-211.5C74.94,-211.5 78.08,-198.16 88.85,-192.75"/>
<polygon fill="#1b9e77" stroke="#1b9e77" points="89.91,-196.1 98.91,-190.5 88.38,-189.26 89.91,-196.1"/>
</g>
<!-- x46 -->
<g id="node96" class="node">
<title>x46</title>
<path fill="none" stroke="black" d="M110.91,-117.5C110.91,-117.5 148.91,-117.5 148.91,-117.5 154.91,-117.5 160.91,-123.5 160.91,-129.5 160.91,-129.5 160.91,-141.5 160.91,-141.5 160.91,-147.5 154.91,-153.5 148.91,-153.5 148.91,-153.5 110.91,-153.5 110.91,-153.5 104.91,-153.5 98.91,-147.5 98.91,-141.5 98.91,-141.5 98.91,-129.5 98.91,-129.5 98.91,-123.5 104.91,-117.5 110.91,-117.5"/>
<text text-anchor="middle" x="129.91" y="-131.8" font-family="Times New Roman,serif" font-size="14.00">3:3 &#45; 0:0</text>
</g>
<!-- n10&#45;&gt;x46 -->
<g id="edge26" class="edge">
<title>n10:e&#45;&gt;x46:w</title>
<path fill="none" stroke="#1b9e77" d="M58.95,-211.5C93.09,-211.5 67.59,-150.69 89.15,-137.86"/>
<polygon fill="#1b9e77" stroke="#1b9e77" points="90.01,-141.25 98.91,-135.5 88.37,-134.45 90.01,-141.25"/>
</g>
<!-- n11 -->
<g id="node11" class="node">
<title>n11</title>
<polygon fill="none" stroke="black" points="406.41,-488.5 376.24,-470.5 406.41,-452.5 436.57,-470.5 406.41,-488.5"/>
<text text-anchor="middle" x="406.41" y="-466.8" font-family="Times New Roman,serif" font-size="14.00">clk</text>
</g>
<!-- n12 -->
<g id="node12" class="node">
<title>n12</title>
<polygon fill="none" stroke="black" points="406.41,-433.5 357.48,-415.5 406.41,-397.5 455.34,-415.5 406.41,-433.5"/>
<text text-anchor="middle" x="406.41" y="-411.8" font-family="Times New Roman,serif" font-size="14.00">md0.E</text>
</g>
<!-- n13 -->
<g id="node13" class="node">
<title>n13</title>
<polygon fill="none" stroke="black" points="3951.33,-834.5 3895.19,-816.5 3951.33,-798.5 4007.47,-816.5 3951.33,-834.5"/>
<text text-anchor="middle" x="3951.33" y="-812.8" font-family="Times New Roman,serif" font-size="14.00">md0.Eo</text>
</g>
<!-- n14 -->
<g id="node14" class="node">
<title>n14</title>
<polygon fill="none" stroke="black" points="406.41,-2038.5 357.48,-2020.5 406.41,-2002.5 455.34,-2020.5 406.41,-2038.5"/>
<text text-anchor="middle" x="406.41" y="-2016.8" font-family="Times New Roman,serif" font-size="14.00">md0.L</text>
</g>
<!-- n15 -->
<g id="node15" class="node">
<title>n15</title>
<polygon fill="none" stroke="black" points="4415.03,-742.5 4363.59,-724.5 4415.03,-706.5 4466.48,-724.5 4415.03,-742.5"/>
<text text-anchor="middle" x="4415.03" y="-720.8" font-family="Times New Roman,serif" font-size="14.00">md0.Q</text>
</g>
<!-- x23 -->
<g id="node73" class="node">
<title>x23</title>
<path fill="none" stroke="black" d="M4515.5,-787.5C4515.5,-787.5 4553.5,-787.5 4553.5,-787.5 4559.5,-787.5 4565.5,-793.5 4565.5,-799.5 4565.5,-799.5 4565.5,-867.5 4565.5,-867.5 4565.5,-873.5 4559.5,-879.5 4553.5,-879.5 4553.5,-879.5 4515.5,-879.5 4515.5,-879.5 4509.5,-879.5 4503.5,-873.5 4503.5,-867.5 4503.5,-867.5 4503.5,-799.5 4503.5,-799.5 4503.5,-793.5 4509.5,-787.5 4515.5,-787.5"/>
<text text-anchor="middle" x="4534.5" y="-864.3" font-family="Times New Roman,serif" font-size="14.00">0:0 &#45; 3:3</text>
<polyline fill="none" stroke="black" points="4503.5,-856.5 4565.5,-856.5 "/>
<text text-anchor="middle" x="4534.5" y="-841.3" font-family="Times New Roman,serif" font-size="14.00">0:0 &#45; 2:2</text>
<polyline fill="none" stroke="black" points="4503.5,-833.5 4565.5,-833.5 "/>
<text text-anchor="middle" x="4534.5" y="-818.3" font-family="Times New Roman,serif" font-size="14.00">0:0 &#45; 1:1</text>
<polyline fill="none" stroke="black" points="4503.5,-810.5 4565.5,-810.5 "/>
<text text-anchor="middle" x="4534.5" y="-795.3" font-family="Times New Roman,serif" font-size="14.00">0:0 &#45; 0:0</text>
</g>
<!-- n15&#45;&gt;x23 -->
<g id="edge34" class="edge">
<title>n15:e&#45;&gt;x23:w</title>
<path fill="none" stroke="#a6761d" d="M4466.5,-724.5C4483.04,-724.5 4478.01,-741.76 4485.5,-756.5 4492.55,-770.36 4487.45,-787.62 4493.79,-794.94"/>
<polygon fill="#a6761d" stroke="#a6761d" points="4492.91,-798.35 4503.5,-798.5 4495.32,-791.78 4492.91,-798.35"/>
</g>
<!-- n16 -->
<g id="node16" class="node">
<title>n16</title>
<polygon fill="none" stroke="black" points="406.41,-59.5 355.8,-41.5 406.41,-23.5 457.01,-41.5 406.41,-59.5"/>
<text text-anchor="middle" x="406.41" y="-37.8" font-family="Times New Roman,serif" font-size="14.00">md0.R</text>
</g>
<!-- n17 -->
<g id="node17" class="node">
<title>n17</title>
<polygon fill="none" stroke="black" points="406.41,-1983.5 349.43,-1965.5 406.41,-1947.5 463.38,-1965.5 406.41,-1983.5"/>
<text text-anchor="middle" x="406.41" y="-1961.8" font-family="Times New Roman,serif" font-size="14.00">md0.clk</text>
</g>
<!-- n18 -->
<g id="node18" class="node">
<title>n18</title>
<polygon fill="none" stroke="black" points="3951.33,-888.5 3900.72,-870.5 3951.33,-852.5 4001.94,-870.5 3951.33,-888.5"/>
<text text-anchor="middle" x="3951.33" y="-866.8" font-family="Times New Roman,serif" font-size="14.00">md0.w</text>
</g>
<!-- n19 -->
<g id="node19" class="node">
<title>n19</title>
<polygon fill="none" stroke="black" points="406.41,-1928.5 357.48,-1910.5 406.41,-1892.5 455.34,-1910.5 406.41,-1928.5"/>
<text text-anchor="middle" x="406.41" y="-1906.8" font-family="Times New Roman,serif" font-size="14.00">md1.E</text>
</g>
<!-- n20 -->
<g id="node20" class="node">
<title>n20</title>
<polygon fill="none" stroke="black" points="3021.93,-1140.5 2965.8,-1122.5 3021.93,-1104.5 3078.07,-1122.5 3021.93,-1140.5"/>
<text text-anchor="middle" x="3021.93" y="-1118.8" font-family="Times New Roman,serif" font-size="14.00">md1.Eo</text>
</g>
<!-- n21 -->
<g id="node21" class="node">
<title>n21</title>
<polygon fill="none" stroke="black" points="406.41,-1873.5 357.48,-1855.5 406.41,-1837.5 455.34,-1855.5 406.41,-1873.5"/>
<text text-anchor="middle" x="406.41" y="-1851.8" font-family="Times New Roman,serif" font-size="14.00">md1.L</text>
</g>
<!-- n22 -->
<g id="node22" class="node">
<title>n22</title>
<polygon fill="none" stroke="black" points="3485.63,-788.5 3434.19,-770.5 3485.63,-752.5 3537.08,-770.5 3485.63,-788.5"/>
<text text-anchor="middle" x="3485.63" y="-766.8" font-family="Times New Roman,serif" font-size="14.00">md1.Q</text>
</g>
<!-- c49 -->
<g id="node55" class="node">
<title>c49</title>
<polygon fill="none" stroke="black" points="3574.11,-484.5 3574.11,-576.5 3769.11,-576.5 3769.11,-484.5 3574.11,-484.5"/>
<text text-anchor="middle" x="3588.11" y="-561.3" font-family="Times New Roman,serif" font-size="14.00">I0</text>
<polyline fill="none" stroke="black" points="3574.11,-553.5 3602.11,-553.5 "/>
<text text-anchor="middle" x="3588.11" y="-538.3" font-family="Times New Roman,serif" font-size="14.00">I1</text>
<polyline fill="none" stroke="black" points="3574.11,-530.5 3602.11,-530.5 "/>
<text text-anchor="middle" x="3588.11" y="-515.3" font-family="Times New Roman,serif" font-size="14.00">I2</text>
<polyline fill="none" stroke="black" points="3574.11,-507.5 3602.11,-507.5 "/>
<text text-anchor="middle" x="3588.11" y="-492.3" font-family="Times New Roman,serif" font-size="14.00">I3</text>
<polyline fill="none" stroke="black" points="3602.11,-484.5 3602.11,-576.5 "/>
<text text-anchor="middle" x="3672.11" y="-534.3" font-family="Times New Roman,serif" font-size="14.00">md1.Q_SB_LUT4_I1</text>
<text text-anchor="middle" x="3672.11" y="-519.3" font-family="Times New Roman,serif" font-size="14.00">SB_LUT4</text>
<polyline fill="none" stroke="black" points="3742.11,-484.5 3742.11,-576.5 "/>
<text text-anchor="middle" x="3755.61" y="-526.8" font-family="Times New Roman,serif" font-size="14.00">O</text>
</g>
<!-- n22&#45;&gt;c49 -->
<g id="edge44" class="edge">
<title>n22:e&#45;&gt;c49:w</title>
<path fill="none" stroke="#d95f02" d="M3537.11,-770.5C3584.63,-770.5 3531.88,-575.09 3564.51,-546.08"/>
<polygon fill="#d95f02" stroke="#d95f02" points="3565.96,-549.28 3574.11,-542.5 3563.51,-542.72 3565.96,-549.28"/>
</g>
<!-- n22&#45;&gt;x23 -->
<g id="edge45" class="edge">
<title>n22:e&#45;&gt;x23:w</title>
<path fill="none" stroke="#d95f02" d="M3537.11,-770.5C3596.44,-770.5 3611.27,-770.5 3670.61,-770.5 3670.61,-770.5 3670.61,-770.5 4416.03,-770.5 4457.34,-770.5 4458.6,-813.48 4493.34,-820.53"/>
<polygon fill="#d95f02" stroke="#d95f02" points="4493.22,-824.03 4503.5,-821.5 4493.88,-817.06 4493.22,-824.03"/>
</g>
<!-- x26 -->
<g id="node76" class="node">
<title>x26</title>
<path fill="none" stroke="black" d="M3686.61,-834.5C3686.61,-834.5 3656.61,-834.5 3656.61,-834.5 3650.61,-834.5 3644.61,-828.5 3644.61,-822.5 3644.61,-822.5 3644.61,-810.5 3644.61,-810.5 3644.61,-804.5 3650.61,-798.5 3656.61,-798.5 3656.61,-798.5 3686.61,-798.5 3686.61,-798.5 3692.61,-798.5 3698.61,-804.5 3698.61,-810.5 3698.61,-810.5 3698.61,-822.5 3698.61,-822.5 3698.61,-828.5 3692.61,-834.5 3686.61,-834.5"/>
<text text-anchor="middle" x="3671.61" y="-812.8" font-family="Times New Roman,serif" font-size="14.00">BUF</text>
</g>
<!-- n22&#45;&gt;x26 -->
<g id="edge46" class="edge">
<title>n22:e&#45;&gt;x26:w</title>
<path fill="none" stroke="#d95f02" d="M3537.11,-770.5C3547.24,-770.5 3546.23,-779.61 3555.11,-784.5 3588.58,-802.96 3599.86,-814.41 3633.49,-816.24"/>
<polygon fill="#d95f02" stroke="#d95f02" points="3633.52,-819.74 3643.61,-816.5 3633.7,-812.74 3633.52,-819.74"/>
</g>
<!-- x30 -->
<g id="node80" class="node">
<title>x30</title>
<path fill="none" stroke="black" d="M3686.61,-888.5C3686.61,-888.5 3656.61,-888.5 3656.61,-888.5 3650.61,-888.5 3644.61,-882.5 3644.61,-876.5 3644.61,-876.5 3644.61,-864.5 3644.61,-864.5 3644.61,-858.5 3650.61,-852.5 3656.61,-852.5 3656.61,-852.5 3686.61,-852.5 3686.61,-852.5 3692.61,-852.5 3698.61,-858.5 3698.61,-864.5 3698.61,-864.5 3698.61,-876.5 3698.61,-876.5 3698.61,-882.5 3692.61,-888.5 3686.61,-888.5"/>
<text text-anchor="middle" x="3671.61" y="-866.8" font-family="Times New Roman,serif" font-size="14.00">BUF</text>
</g>
<!-- n22&#45;&gt;x30 -->
<g id="edge47" class="edge">
<title>n22:e&#45;&gt;x30:w</title>
<path fill="none" stroke="#d95f02" d="M3537.11,-770.5C3546.2,-770.5 3567.37,-837.39 3574.11,-843.5 3595.98,-863.32 3607.73,-869.25 3633.45,-870.31"/>
<polygon fill="#d95f02" stroke="#d95f02" points="3633.54,-873.81 3643.61,-870.5 3633.67,-866.82 3633.54,-873.81"/>
</g>
<!-- n23 -->
<g id="node23" class="node">
<title>n23</title>
<polygon fill="none" stroke="black" points="406.41,-263.5 355.8,-245.5 406.41,-227.5 457.01,-245.5 406.41,-263.5"/>
<text text-anchor="middle" x="406.41" y="-241.8" font-family="Times New Roman,serif" font-size="14.00">md1.R</text>
</g>
<!-- n24 -->
<g id="node24" class="node">
<title>n24</title>
<polygon fill="none" stroke="black" points="406.41,-1818.5 349.43,-1800.5 406.41,-1782.5 463.38,-1800.5 406.41,-1818.5"/>
<text text-anchor="middle" x="406.41" y="-1796.8" font-family="Times New Roman,serif" font-size="14.00">md1.clk</text>
</g>
<!-- n25 -->
<g id="node25" class="node">
<title>n25</title>
<polygon fill="none" stroke="black" points="3021.93,-1086.5 2971.33,-1068.5 3021.93,-1050.5 3072.54,-1068.5 3021.93,-1086.5"/>
<text text-anchor="middle" x="3021.93" y="-1064.8" font-family="Times New Roman,serif" font-size="14.00">md1.w</text>
</g>
<!-- n26 -->
<g id="node26" class="node">
<title>n26</title>
<polygon fill="none" stroke="black" points="406.41,-1763.5 357.48,-1745.5 406.41,-1727.5 455.34,-1745.5 406.41,-1763.5"/>
<text text-anchor="middle" x="406.41" y="-1741.8" font-family="Times New Roman,serif" font-size="14.00">md2.E</text>
</g>
<!-- n27 -->
<g id="node27" class="node">
<title>n27</title>
<polygon fill="none" stroke="black" points="1970.53,-852.5 1914.4,-834.5 1970.53,-816.5 2026.67,-834.5 1970.53,-852.5"/>
<text text-anchor="middle" x="1970.53" y="-830.8" font-family="Times New Roman,serif" font-size="14.00">md2.Eo</text>
</g>
<!-- n28 -->
<g id="node28" class="node">
<title>n28</title>
<polygon fill="none" stroke="black" points="406.41,-1631.5 357.48,-1613.5 406.41,-1595.5 455.34,-1613.5 406.41,-1631.5"/>
<text text-anchor="middle" x="406.41" y="-1609.8" font-family="Times New Roman,serif" font-size="14.00">md2.L</text>
</g>
<!-- n29 -->
<g id="node29" class="node">
<title>n29</title>
<polygon fill="none" stroke="black" points="2556.23,-1140.5 2504.79,-1122.5 2556.23,-1104.5 2607.68,-1122.5 2556.23,-1140.5"/>
<text text-anchor="middle" x="2556.23" y="-1118.8" font-family="Times New Roman,serif" font-size="14.00">md2.Q</text>
</g>
<!-- c48 -->
<g id="node51" class="node">
<title>c48</title>
<polygon fill="none" stroke="black" points="2644.71,-656.5 2644.71,-748.5 2839.71,-748.5 2839.71,-656.5 2644.71,-656.5"/>
<text text-anchor="middle" x="2658.71" y="-733.3" font-family="Times New Roman,serif" font-size="14.00">I0</text>
<polyline fill="none" stroke="black" points="2644.71,-725.5 2672.71,-725.5 "/>
<text text-anchor="middle" x="2658.71" y="-710.3" font-family="Times New Roman,serif" font-size="14.00">I1</text>
<polyline fill="none" stroke="black" points="2644.71,-702.5 2672.71,-702.5 "/>
<text text-anchor="middle" x="2658.71" y="-687.3" font-family="Times New Roman,serif" font-size="14.00">I2</text>
<polyline fill="none" stroke="black" points="2644.71,-679.5 2672.71,-679.5 "/>
<text text-anchor="middle" x="2658.71" y="-664.3" font-family="Times New Roman,serif" font-size="14.00">I3</text>
<polyline fill="none" stroke="black" points="2672.71,-656.5 2672.71,-748.5 "/>
<text text-anchor="middle" x="2742.71" y="-706.3" font-family="Times New Roman,serif" font-size="14.00">md2.Q_SB_LUT4_I1</text>
<text text-anchor="middle" x="2742.71" y="-691.3" font-family="Times New Roman,serif" font-size="14.00">SB_LUT4</text>
<polyline fill="none" stroke="black" points="2812.71,-656.5 2812.71,-748.5 "/>
<text text-anchor="middle" x="2826.21" y="-698.8" font-family="Times New Roman,serif" font-size="14.00">O</text>
</g>
<!-- n29&#45;&gt;c48 -->
<g id="edge55" class="edge">
<title>n29:e&#45;&gt;c48:w</title>
<path fill="none" stroke="#666666" d="M2607.71,-1122.5C2650.02,-1122.5 2606.29,-769.86 2636.51,-720.27"/>
<polygon fill="#666666" stroke="#666666" points="2638.54,-723.12 2644.71,-714.5 2634.51,-717.39 2638.54,-723.12"/>
</g>
<!-- n29&#45;&gt;x23 -->
<g id="edge56" class="edge">
<title>n29:e&#45;&gt;x23:w</title>
<path fill="none" stroke="#666666" d="M2607.71,-1122.5C2617.84,-1122.5 2617.52,-1130.52 2625.71,-1136.5 2633.97,-1142.53 2635.27,-1145.54 2644.71,-1149.5 2685.01,-1166.41 2697.49,-1168.5 2741.21,-1168.5 2741.21,-1168.5 2741.21,-1168.5 3788.11,-1168.5 3934.03,-1168.5 3981.37,-1201.85 4115.56,-1144.5 4312.61,-1060.29 4286.69,-852.14 4493.48,-845.66"/>
<polygon fill="#666666" stroke="#666666" points="4493.56,-849.15 4503.5,-845.5 4493.45,-842.16 4493.56,-849.15"/>
</g>
<!-- x32 -->
<g id="node82" class="node">
<title>x32</title>
<path fill="none" stroke="black" d="M2757.21,-1140.5C2757.21,-1140.5 2727.21,-1140.5 2727.21,-1140.5 2721.21,-1140.5 2715.21,-1134.5 2715.21,-1128.5 2715.21,-1128.5 2715.21,-1116.5 2715.21,-1116.5 2715.21,-1110.5 2721.21,-1104.5 2727.21,-1104.5 2727.21,-1104.5 2757.21,-1104.5 2757.21,-1104.5 2763.21,-1104.5 2769.21,-1110.5 2769.21,-1116.5 2769.21,-1116.5 2769.21,-1128.5 2769.21,-1128.5 2769.21,-1134.5 2763.21,-1140.5 2757.21,-1140.5"/>
<text text-anchor="middle" x="2742.21" y="-1118.8" font-family="Times New Roman,serif" font-size="14.00">BUF</text>
</g>
<!-- n29&#45;&gt;x32 -->
<g id="edge57" class="edge">
<title>n29:e&#45;&gt;x32:w</title>
<path fill="none" stroke="#666666" d="M2607.71,-1122.5C2651.34,-1122.5 2664.81,-1122.5 2703.73,-1122.5"/>
<polygon fill="#666666" stroke="#666666" points="2704.21,-1126 2714.21,-1122.5 2704.21,-1119 2704.21,-1126"/>
</g>
<!-- x36 -->
<g id="node86" class="node">
<title>x36</title>
<path fill="none" stroke="black" d="M2757.21,-1086.5C2757.21,-1086.5 2727.21,-1086.5 2727.21,-1086.5 2721.21,-1086.5 2715.21,-1080.5 2715.21,-1074.5 2715.21,-1074.5 2715.21,-1062.5 2715.21,-1062.5 2715.21,-1056.5 2721.21,-1050.5 2727.21,-1050.5 2727.21,-1050.5 2757.21,-1050.5 2757.21,-1050.5 2763.21,-1050.5 2769.21,-1056.5 2769.21,-1062.5 2769.21,-1062.5 2769.21,-1074.5 2769.21,-1074.5 2769.21,-1080.5 2763.21,-1086.5 2757.21,-1086.5"/>
<text text-anchor="middle" x="2742.21" y="-1064.8" font-family="Times New Roman,serif" font-size="14.00">BUF</text>
</g>
<!-- n29&#45;&gt;x36 -->
<g id="edge58" class="edge">
<title>n29:e&#45;&gt;x36:w</title>
<path fill="none" stroke="#666666" d="M2607.71,-1122.5C2628.06,-1122.5 2626.85,-1105.27 2644.71,-1095.5 2670.6,-1081.34 2679.21,-1070.99 2704.2,-1068.89"/>
<polygon fill="#666666" stroke="#666666" points="2704.35,-1072.39 2714.21,-1068.5 2704.08,-1065.39 2704.35,-1072.39"/>
</g>
<!-- n30 -->
<g id="node30" class="node">
<title>n30</title>
<polygon fill="none" stroke="black" points="406.41,-208.5 355.8,-190.5 406.41,-172.5 457.01,-190.5 406.41,-208.5"/>
<text text-anchor="middle" x="406.41" y="-186.8" font-family="Times New Roman,serif" font-size="14.00">md2.R</text>
</g>
<!-- n31 -->
<g id="node31" class="node">
<title>n31</title>
<polygon fill="none" stroke="black" points="406.41,-1576.5 349.43,-1558.5 406.41,-1540.5 463.38,-1558.5 406.41,-1576.5"/>
<text text-anchor="middle" x="406.41" y="-1554.8" font-family="Times New Roman,serif" font-size="14.00">md2.clk</text>
</g>
<!-- n32 -->
<g id="node32" class="node">
<title>n32</title>
<polygon fill="none" stroke="black" points="1970.53,-906.5 1919.93,-888.5 1970.53,-870.5 2021.14,-888.5 1970.53,-906.5"/>
<text text-anchor="middle" x="1970.53" y="-884.8" font-family="Times New Roman,serif" font-size="14.00">md2.w</text>
</g>
<!-- n33 -->
<g id="node33" class="node">
<title>n33</title>
<polygon fill="none" stroke="black" points="406.41,-1521.5 357.48,-1503.5 406.41,-1485.5 455.34,-1503.5 406.41,-1521.5"/>
<text text-anchor="middle" x="406.41" y="-1499.8" font-family="Times New Roman,serif" font-size="14.00">md3.E</text>
</g>
<!-- n34 -->
<g id="node34" class="node">
<title>n34</title>
<polygon fill="none" stroke="black" points="406.41,-1466.5 350.27,-1448.5 406.41,-1430.5 462.54,-1448.5 406.41,-1466.5"/>
<text text-anchor="middle" x="406.41" y="-1444.8" font-family="Times New Roman,serif" font-size="14.00">md3.Eo</text>
</g>
<!-- n35 -->
<g id="node35" class="node">
<title>n35</title>
<polygon fill="none" stroke="black" points="406.41,-1370.5 357.48,-1352.5 406.41,-1334.5 455.34,-1352.5 406.41,-1370.5"/>
<text text-anchor="middle" x="406.41" y="-1348.8" font-family="Times New Roman,serif" font-size="14.00">md3.L</text>
</g>
<!-- n36 -->
<g id="node36" class="node">
<title>n36</title>
<polygon fill="none" stroke="black" points="1382.83,-907.5 1331.39,-889.5 1382.83,-871.5 1434.28,-889.5 1382.83,-907.5"/>
<text text-anchor="middle" x="1382.83" y="-885.8" font-family="Times New Roman,serif" font-size="14.00">md3.Q</text>
</g>
<!-- c47 -->
<g id="node47" class="node">
<title>c47</title>
<polygon fill="none" stroke="black" points="1532.31,-1089.5 1532.31,-1181.5 1727.31,-1181.5 1727.31,-1089.5 1532.31,-1089.5"/>
<text text-anchor="middle" x="1546.31" y="-1166.3" font-family="Times New Roman,serif" font-size="14.00">I0</text>
<polyline fill="none" stroke="black" points="1532.31,-1158.5 1560.31,-1158.5 "/>
<text text-anchor="middle" x="1546.31" y="-1143.3" font-family="Times New Roman,serif" font-size="14.00">I1</text>
<polyline fill="none" stroke="black" points="1532.31,-1135.5 1560.31,-1135.5 "/>
<text text-anchor="middle" x="1546.31" y="-1120.3" font-family="Times New Roman,serif" font-size="14.00">I2</text>
<polyline fill="none" stroke="black" points="1532.31,-1112.5 1560.31,-1112.5 "/>
<text text-anchor="middle" x="1546.31" y="-1097.3" font-family="Times New Roman,serif" font-size="14.00">I3</text>
<polyline fill="none" stroke="black" points="1560.31,-1089.5 1560.31,-1181.5 "/>
<text text-anchor="middle" x="1630.31" y="-1139.3" font-family="Times New Roman,serif" font-size="14.00">md3.Q_SB_LUT4_I1</text>
<text text-anchor="middle" x="1630.31" y="-1124.3" font-family="Times New Roman,serif" font-size="14.00">SB_LUT4</text>
<polyline fill="none" stroke="black" points="1700.31,-1089.5 1700.31,-1181.5 "/>
<text text-anchor="middle" x="1713.81" y="-1131.8" font-family="Times New Roman,serif" font-size="14.00">O</text>
</g>
<!-- n36&#45;&gt;c47 -->
<g id="edge68" class="edge">
<title>n36:e&#45;&gt;c47:w</title>
<path fill="none" stroke="#a6761d" d="M1434.31,-889.5C1461.72,-889.5 1443.19,-922.65 1452.31,-948.5 1482.84,-1035.06 1440.37,-1139.43 1522.27,-1147.06"/>
<polygon fill="#a6761d" stroke="#a6761d" points="1522.16,-1150.55 1532.31,-1147.5 1522.47,-1143.56 1522.16,-1150.55"/>
</g>
<!-- n36&#45;&gt;x23 -->
<g id="edge69" class="edge">
<title>n36:e&#45;&gt;x23:w</title>
<path fill="none" stroke="#a6761d" d="M1434.31,-889.5C1444.17,-889.5 1443.23,-898.64 1452.31,-902.5 1525.66,-933.72 1549.08,-934.5 1628.81,-934.5 1628.81,-934.5 1628.81,-934.5 4416.03,-934.5 4460.93,-934.5 4456,-878.41 4493.11,-869.65"/>
<polygon fill="#a6761d" stroke="#a6761d" points="4493.95,-873.07 4503.5,-868.5 4493.18,-866.12 4493.95,-873.07"/>
</g>
<!-- x38 -->
<g id="node88" class="node">
<title>x38</title>
<path fill="none" stroke="black" d="M1644.81,-852.5C1644.81,-852.5 1614.81,-852.5 1614.81,-852.5 1608.81,-852.5 1602.81,-846.5 1602.81,-840.5 1602.81,-840.5 1602.81,-828.5 1602.81,-828.5 1602.81,-822.5 1608.81,-816.5 1614.81,-816.5 1614.81,-816.5 1644.81,-816.5 1644.81,-816.5 1650.81,-816.5 1656.81,-822.5 1656.81,-828.5 1656.81,-828.5 1656.81,-840.5 1656.81,-840.5 1656.81,-846.5 1650.81,-852.5 1644.81,-852.5"/>
<text text-anchor="middle" x="1629.81" y="-830.8" font-family="Times New Roman,serif" font-size="14.00">BUF</text>
</g>
<!-- n36&#45;&gt;x38 -->
<g id="edge70" class="edge">
<title>n36:e&#45;&gt;x38:w</title>
<path fill="none" stroke="#a6761d" d="M1434.31,-889.5C1442.84,-889.5 1556.17,-847.77 1591.73,-837.01"/>
<polygon fill="#a6761d" stroke="#a6761d" points="1592.95,-840.31 1601.81,-834.5 1591.26,-833.52 1592.95,-840.31"/>
</g>
<!-- x42 -->
<g id="node92" class="node">
<title>x42</title>
<path fill="none" stroke="black" d="M1644.81,-906.5C1644.81,-906.5 1614.81,-906.5 1614.81,-906.5 1608.81,-906.5 1602.81,-900.5 1602.81,-894.5 1602.81,-894.5 1602.81,-882.5 1602.81,-882.5 1602.81,-876.5 1608.81,-870.5 1614.81,-870.5 1614.81,-870.5 1644.81,-870.5 1644.81,-870.5 1650.81,-870.5 1656.81,-876.5 1656.81,-882.5 1656.81,-882.5 1656.81,-894.5 1656.81,-894.5 1656.81,-900.5 1650.81,-906.5 1644.81,-906.5"/>
<text text-anchor="middle" x="1629.81" y="-884.8" font-family="Times New Roman,serif" font-size="14.00">BUF</text>
</g>
<!-- n36&#45;&gt;x42 -->
<g id="edge71" class="edge">
<title>n36:e&#45;&gt;x42:w</title>
<path fill="none" stroke="#a6761d" d="M1434.31,-889.5C1505.26,-889.5 1525.49,-888.59 1591.69,-888.51"/>
<polygon fill="#a6761d" stroke="#a6761d" points="1591.81,-892.01 1601.81,-888.5 1591.8,-885.01 1591.81,-892.01"/>
</g>
<!-- n37 -->
<g id="node37" class="node">
<title>n37</title>
<polygon fill="none" stroke="black" points="406.41,-153.5 355.8,-135.5 406.41,-117.5 457.01,-135.5 406.41,-153.5"/>
<text text-anchor="middle" x="406.41" y="-131.8" font-family="Times New Roman,serif" font-size="14.00">md3.R</text>
</g>
<!-- n38 -->
<g id="node38" class="node">
<title>n38</title>
<polygon fill="none" stroke="black" points="406.41,-1316.5 349.43,-1298.5 406.41,-1280.5 463.38,-1298.5 406.41,-1316.5"/>
<text text-anchor="middle" x="406.41" y="-1294.8" font-family="Times New Roman,serif" font-size="14.00">md3.clk</text>
</g>
<!-- n39 -->
<g id="node39" class="node">
<title>n39</title>
<polygon fill="none" stroke="black" points="406.41,-1262.5 355.8,-1244.5 406.41,-1226.5 457.01,-1244.5 406.41,-1262.5"/>
<text text-anchor="middle" x="406.41" y="-1240.8" font-family="Times New Roman,serif" font-size="14.00">md3.w</text>
</g>
<!-- n40 -->
<g id="node40" class="node">
<title>n40</title>
<polygon fill="none" stroke="black" points="406.41,-1207.5 379.41,-1189.5 406.41,-1171.5 433.41,-1189.5 406.41,-1207.5"/>
<text text-anchor="middle" x="406.41" y="-1185.8" font-family="Times New Roman,serif" font-size="14.00">w</text>
</g>
<!-- v0 -->
<g id="node41" class="node">
<title>v0</title>
<ellipse fill="none" stroke="black" cx="129.91" cy="-1134.5" rx="27" ry="18"/>
<text text-anchor="middle" x="129.91" y="-1130.8" font-family="Times New Roman,serif" font-size="14.00">1&#39;0</text>
</g>
<!-- c46 -->
<g id="node43" class="node">
<title>c46</title>
<polygon fill="none" stroke="black" points="258.91,-991.5 258.91,-1083.5 553.91,-1083.5 553.91,-991.5 258.91,-991.5"/>
<text text-anchor="middle" x="272.91" y="-1068.3" font-family="Times New Roman,serif" font-size="14.00">I0</text>
<polyline fill="none" stroke="black" points="258.91,-1060.5 286.91,-1060.5 "/>
<text text-anchor="middle" x="272.91" y="-1045.3" font-family="Times New Roman,serif" font-size="14.00">I1</text>
<polyline fill="none" stroke="black" points="258.91,-1037.5 286.91,-1037.5 "/>
<text text-anchor="middle" x="272.91" y="-1022.3" font-family="Times New Roman,serif" font-size="14.00">I2</text>
<polyline fill="none" stroke="black" points="258.91,-1014.5 286.91,-1014.5 "/>
<text text-anchor="middle" x="272.91" y="-999.3" font-family="Times New Roman,serif" font-size="14.00">I3</text>
<polyline fill="none" stroke="black" points="286.91,-991.5 286.91,-1083.5 "/>
<text text-anchor="middle" x="406.91" y="-1041.3" font-family="Times New Roman,serif" font-size="14.00">md0.Q_SB_DFFE_Q_E_SB_LUT4_O</text>
<text text-anchor="middle" x="406.91" y="-1026.3" font-family="Times New Roman,serif" font-size="14.00">SB_LUT4</text>
<polyline fill="none" stroke="black" points="526.91,-991.5 526.91,-1083.5 "/>
<text text-anchor="middle" x="540.41" y="-1033.8" font-family="Times New Roman,serif" font-size="14.00">O</text>
</g>
<!-- v0&#45;&gt;c46 -->
<g id="edge112" class="edge">
<title>v0:e&#45;&gt;c46:w</title>
<path fill="none" stroke="#66a61e" d="M157.91,-1134.5C181.16,-1134.5 221.55,-1086.18 248.81,-1074.85"/>
<polygon fill="#66a61e" stroke="#66a61e" points="249.96,-1078.18 258.91,-1072.5 248.37,-1071.36 249.96,-1078.18"/>
</g>
<!-- v1 -->
<g id="node42" class="node">
<title>v1</title>
<ellipse fill="none" stroke="black" cx="129.91" cy="-1080.5" rx="27" ry="18"/>
<text text-anchor="middle" x="129.91" y="-1076.8" font-family="Times New Roman,serif" font-size="14.00">1&#39;0</text>
</g>
<!-- v1&#45;&gt;c46 -->
<g id="edge113" class="edge">
<title>v1:e&#45;&gt;c46:w</title>
<path fill="none" stroke="#666666" d="M157.91,-1080.5C201.19,-1080.5 210.6,-1054.15 248.59,-1050.04"/>
<polygon fill="#666666" stroke="#666666" points="249.1,-1053.52 258.91,-1049.5 248.74,-1046.53 249.1,-1053.52"/>
</g>
<!-- c46&#45;&gt;n1 -->
<g id="edge16" class="edge">
<title>c46:e&#45;&gt;n1:w</title>
<path fill="none" stroke="#1b9e77" d="M553.91,-1037.5C594.45,-1037.5 606.12,-1024.86 641.92,-1022.79"/>
<polygon fill="#1b9e77" stroke="#1b9e77" points="642.24,-1026.28 652.13,-1022.5 642.04,-1019.28 642.24,-1026.28"/>
</g>
<!-- x2&#45;&gt;c46 -->
<g id="edge1" class="edge">
<title>x2:e&#45;&gt;c46:w</title>
<path fill="none" stroke="#66a61e" d="M173.24,-1025.5C203.19,-1025.5 216.61,-1025.5 246.55,-1025.5"/>
<polygon fill="none" stroke="#66a61e" points="172.91,-1025.5 166.91,-1029.5 160.91,-1025.5 166.91,-1021.5 172.91,-1025.5"/>
<polygon fill="none" stroke="#66a61e" points="246.91,-1025.5 252.91,-1021.5 258.91,-1025.5 252.91,-1029.5 246.91,-1025.5"/>
</g>
<!-- x3&#45;&gt;c46 -->
<g id="edge2" class="edge">
<title>x3:e&#45;&gt;c46:w</title>
<path fill="none" stroke="#1b9e77" d="M173.28,-971.36C204.65,-975.91 215.33,-997.24 246.83,-1001.69"/>
<polygon fill="none" stroke="#1b9e77" points="172.88,-971.33 166.62,-974.9 160.91,-970.5 167.17,-966.92 172.88,-971.33"/>
<polygon fill="none" stroke="#1b9e77" points="246.93,-1001.69 253.19,-998.11 258.91,-1002.5 252.65,-1006.09 246.93,-1001.69"/>
</g>
<!-- v4 -->
<g id="node46" class="node">
<title>v4</title>
<ellipse fill="none" stroke="black" cx="1382.83" cy="-1166.5" rx="27" ry="18"/>
<text text-anchor="middle" x="1382.83" y="-1162.8" font-family="Times New Roman,serif" font-size="14.00">1&#39;0</text>
</g>
<!-- v4&#45;&gt;c47 -->
<g id="edge116" class="edge">
<title>v4:e&#45;&gt;c47:w</title>
<path fill="none" stroke="#d95f02" d="M1410.83,-1166.5C1461.26,-1166.5 1476.33,-1169.99 1522.06,-1170.45"/>
<polygon fill="#d95f02" stroke="#d95f02" points="1522.29,-1173.95 1532.31,-1170.5 1522.32,-1166.95 1522.29,-1173.95"/>
</g>
<!-- c47&#45;&gt;n3 -->
<g id="edge59" class="edge">
<title>c47:e&#45;&gt;n3:w</title>
<path fill="none" stroke="#a6761d" d="M1727.31,-1135.5C1767.39,-1135.5 1779.67,-1129.6 1815.19,-1128.63"/>
<polygon fill="#a6761d" stroke="#a6761d" points="1815.35,-1132.13 1825.31,-1128.5 1815.26,-1125.13 1815.35,-1132.13"/>
</g>
<!-- x5&#45;&gt;c47 -->
<g id="edge3" class="edge">
<title>x5:e&#45;&gt;c47:w</title>
<path fill="none" stroke="#1b9e77" d="M1034.57,-332.71C1311.62,-342.29 1161.13,-682.35 1331.36,-916.5 1333.43,-919.35 1483.99,-1077.09 1523.15,-1115.25"/>
<polygon fill="none" stroke="#1b9e77" points="1034.36,-332.7 1028.29,-336.6 1022.36,-332.5 1028.43,-328.6 1034.36,-332.7"/>
<polygon fill="none" stroke="#1b9e77" points="1523.39,-1115.47 1530.52,-1116.51 1532.31,-1123.5 1525.17,-1122.46 1523.39,-1115.47"/>
</g>
<!-- x6&#45;&gt;c47 -->
<g id="edge4" class="edge">
<title>x6:e&#45;&gt;c47:w</title>
<path fill="none" stroke="#7570b3" d="M252.91,-1400.69C330.33,-1402.89 503.92,-1422.65 553.91,-1379.5 582.48,-1354.84 555.52,-1330.5 571.91,-1296.5 596.32,-1245.85 602.53,-1225.38 651.91,-1198.5 994.15,-1012.19 1135.69,-1098.68 1520.27,-1100.47"/>
<polygon fill="none" stroke="#7570b3" points="252.91,-1400.69 246.84,-1404.6 240.91,-1400.5 246.97,-1396.6 252.91,-1400.69"/>
<polygon fill="none" stroke="#7570b3" points="1520.31,-1100.47 1526.32,-1096.49 1532.31,-1100.5 1526.3,-1104.49 1520.31,-1100.47"/>
</g>
<!-- v7 -->
<g id="node50" class="node">
<title>v7</title>
<ellipse fill="none" stroke="black" cx="2556.23" cy="-737.5" rx="27" ry="18"/>
<text text-anchor="middle" x="2556.23" y="-733.8" font-family="Times New Roman,serif" font-size="14.00">1&#39;0</text>
</g>
<!-- v7&#45;&gt;c48 -->
<g id="edge117" class="edge">
<title>v7:e&#45;&gt;c48:w</title>
<path fill="none" stroke="#1b9e77" d="M2584.23,-737.5C2607.33,-737.5 2615.54,-737.5 2634.45,-737.5"/>
<polygon fill="#1b9e77" stroke="#1b9e77" points="2634.71,-741 2644.71,-737.5 2634.71,-734 2634.71,-741"/>
</g>
<!-- c48&#45;&gt;n2 -->
<g id="edge39" class="edge">
<title>c48:e&#45;&gt;n2:w</title>
<path fill="none" stroke="#7570b3" d="M2839.71,-702.5C2863.25,-702.5 2853.48,-738.76 2867.13,-749.52"/>
<polygon fill="#7570b3" stroke="#7570b3" points="2866.12,-752.87 2876.71,-752.5 2868.2,-746.19 2866.12,-752.87"/>
</g>
<!-- x8&#45;&gt;c48 -->
<g id="edge5" class="edge">
<title>x8:e&#45;&gt;c48:w</title>
<path fill="none" stroke="#e7298a" d="M2207.89,-293.87C2381.32,-304.78 2268.78,-554.15 2424.76,-656.5 2503.99,-708.49 2542.49,-692.07 2632.56,-690.6"/>
<polygon fill="none" stroke="#e7298a" points="2207.75,-293.87 2201.64,-297.68 2195.76,-293.5 2201.88,-289.68 2207.75,-293.87"/>
<polygon fill="none" stroke="#e7298a" points="2632.71,-690.6 2638.67,-686.55 2644.71,-690.5 2638.74,-694.55 2632.71,-690.6"/>
</g>
<!-- x9&#45;&gt;c48 -->
<g id="edge6" class="edge">
<title>x9:e&#45;&gt;c48:w</title>
<path fill="none" stroke="#e7298a" d="M2498.86,-629.72C2552.75,-631.77 2568.92,-647.67 2626.71,-662.5 2629.22,-663.15 2631.11,-663.88 2632.77,-664.57"/>
<polygon fill="none" stroke="#e7298a" points="2498.76,-629.72 2492.69,-633.61 2486.76,-629.5 2492.83,-625.61 2498.76,-629.72"/>
<polygon fill="none" stroke="#e7298a" points="2633.05,-664.64 2639.83,-662.19 2644.71,-667.5 2637.93,-669.96 2633.05,-664.64"/>
</g>
<!-- v10 -->
<g id="node54" class="node">
<title>v10</title>
<ellipse fill="none" stroke="black" cx="3485.63" cy="-567.5" rx="27" ry="18"/>
<text text-anchor="middle" x="3485.63" y="-563.8" font-family="Times New Roman,serif" font-size="14.00">1&#39;0</text>
</g>
<!-- v10&#45;&gt;c49 -->
<g id="edge114" class="edge">
<title>v10:e&#45;&gt;c49:w</title>
<path fill="none" stroke="#666666" d="M3513.63,-567.5C3536.85,-567.5 3545.01,-566.01 3564.11,-565.6"/>
<polygon fill="#666666" stroke="#666666" points="3564.14,-569.1 3574.11,-565.5 3564.07,-562.1 3564.14,-569.1"/>
</g>
<!-- c49&#45;&gt;n5 -->
<g id="edge78" class="edge">
<title>c49:e&#45;&gt;n5:w</title>
<path fill="none" stroke="#a6761d" d="M3769.11,-530.5C3832.12,-530.5 3749.96,-659.89 3795.96,-675.05"/>
<polygon fill="#a6761d" stroke="#a6761d" points="3795.71,-678.55 3806.11,-676.5 3796.7,-671.62 3795.71,-678.55"/>
</g>
<!-- x11&#45;&gt;c49 -->
<g id="edge7" class="edge">
<title>x11:e&#45;&gt;c49:w</title>
<path fill="none" stroke="#7570b3" d="M1325.43,-171.5C2005.29,-171.72 2184.53,-190.77 2858.71,-316.5 3179.37,-376.3 3242.15,-514.92 3561.65,-518.43"/>
<polygon fill="none" stroke="#7570b3" points="1325.36,-171.5 1319.36,-175.5 1313.36,-171.5 1319.36,-167.5 1325.36,-171.5"/>
<polygon fill="none" stroke="#7570b3" points="3562.11,-518.43 3568.13,-514.47 3574.11,-518.5 3568.08,-522.47 3562.11,-518.43"/>
</g>
<!-- x12&#45;&gt;c49 -->
<g id="edge8" class="edge">
<title>x12:e&#45;&gt;c49:w</title>
<path fill="none" stroke="#d95f02" d="M1526.58,-349.43C1632.78,-348.15 1663.2,-330.5 1775.31,-330.5 1775.31,-330.5 1775.31,-330.5 3486.63,-330.5 3519.3,-330.5 3535.5,-329.15 3556.11,-354.5 3573.07,-375.37 3551.29,-462.94 3563.95,-488.48"/>
<polygon fill="none" stroke="#d95f02" points="1526.31,-349.43 1520.33,-353.46 1514.31,-349.5 1520.28,-345.46 1526.31,-349.43"/>
<polygon fill="none" stroke="#d95f02" points="3564.23,-488.68 3571.44,-488.8 3574.11,-495.5 3566.9,-495.38 3564.23,-488.68"/>
</g>
<!-- c53&#45;&gt;n15 -->
<g id="edge33" class="edge">
<title>c53:e&#45;&gt;n15:w</title>
<path fill="none" stroke="#a6761d" d="M4326.56,-833.5C4373.72,-833.5 4321.89,-740.87 4353.59,-726.39"/>
<polygon fill="#a6761d" stroke="#a6761d" points="4354.39,-729.8 4363.56,-724.5 4353.08,-722.93 4354.39,-729.8"/>
</g>
<!-- x13&#45;&gt;c53 -->
<g id="edge9" class="edge">
<title>x13:e&#45;&gt;c53:w</title>
<path fill="none" stroke="#1b9e77" d="M646.04,-1587.14C849,-1574.79 776.5,-1250.5 990.36,-1250.5 990.36,-1250.5 990.36,-1250.5 1777.31,-1250.5 2506.31,-1250.5 2692.97,-1274.42 3416.16,-1182.5 3569.57,-1163 3987.68,-1146.32 4096.56,-1036.5 4150.8,-981.78 4062.95,-870.11 4121.39,-857.64"/>
<polygon fill="none" stroke="#1b9e77" points="645.9,-1587.14 640.02,-1591.32 633.91,-1587.5 639.79,-1583.32 645.9,-1587.14"/>
<polygon fill="none" stroke="#1b9e77" points="4121.61,-857.62 4127.21,-853.08 4133.56,-856.5 4127.96,-861.04 4121.61,-857.62"/>
</g>
<!-- c54&#45;&gt;n22 -->
<g id="edge43" class="edge">
<title>c54:e&#45;&gt;n22:w</title>
<path fill="none" stroke="#d95f02" d="M3397.16,-769.5C3409.63,-769.5 3415,-770.07 3424.03,-770.35"/>
<polygon fill="#d95f02" stroke="#d95f02" points="3424.11,-773.85 3434.16,-770.5 3424.21,-766.85 3424.11,-773.85"/>
</g>
<!-- x14&#45;&gt;c54 -->
<g id="edge10" class="edge">
<title>x14:e&#45;&gt;c54:w</title>
<path fill="none" stroke="#1b9e77" d="M1819.46,-727.51C2119.79,-728.09 2198.77,-750.21 2504.76,-764.5 2670.02,-772.22 2711.39,-772.89 2876.71,-779.5 3018.12,-785.16 3056.37,-792.09 3192.04,-792.48"/>
<polygon fill="none" stroke="#1b9e77" points="1819.31,-727.51 1813.3,-731.51 1807.31,-727.5 1813.31,-723.51 1819.31,-727.51"/>
<polygon fill="none" stroke="#1b9e77" points="3192.16,-792.48 3198.17,-788.49 3204.16,-792.5 3198.15,-796.49 3192.16,-792.48"/>
</g>
<!-- c55&#45;&gt;n29 -->
<g id="edge54" class="edge">
<title>c55:e&#45;&gt;n29:w</title>
<path fill="none" stroke="#666666" d="M2406.76,-1123.5C2446.75,-1123.5 2459.2,-1122.66 2494.66,-1122.52"/>
<polygon fill="#666666" stroke="#666666" points="2494.77,-1126.02 2504.76,-1122.5 2494.75,-1119.02 2494.77,-1126.02"/>
</g>
<!-- x15&#45;&gt;c55 -->
<g id="edge11" class="edge">
<title>x15:e&#45;&gt;c55:w</title>
<path fill="none" stroke="#e6ab02" d="M645.66,-1320.15C660.59,-1307.04 626.37,-1258.84 651.91,-1236.5 765.4,-1137.2 839.56,-1212.5 990.36,-1212.5 990.36,-1212.5 990.36,-1212.5 1971.53,-1212.5 2078.97,-1212.5 2100.64,-1151.31 2201.71,-1146.77"/>
<polygon fill="none" stroke="#e6ab02" points="645.45,-1320.21 640.77,-1325.7 633.91,-1323.5 638.58,-1318.01 645.45,-1320.21"/>
<polygon fill="none" stroke="#e6ab02" points="2201.76,-1146.76 2207.67,-1142.63 2213.76,-1146.5 2207.85,-1150.63 2201.76,-1146.76"/>
</g>
<!-- c56&#45;&gt;n36 -->
<g id="edge67" class="edge">
<title>c56:e&#45;&gt;n36:w</title>
<path fill="none" stroke="#a6761d" d="M1233.36,-910.5C1274.25,-910.5 1285.11,-892.8 1321.08,-889.9"/>
<polygon fill="#a6761d" stroke="#a6761d" points="1321.5,-893.39 1331.36,-889.5 1321.23,-886.39 1321.5,-893.39"/>
</g>
<!-- x16&#45;&gt;c56 -->
<g id="edge12" class="edge">
<title>x16:e&#45;&gt;c56:w</title>
<path fill="none" stroke="#e6ab02" d="M253.04,-923.5C594.27,-923.73 686.94,-933.27 1028.12,-933.5"/>
<polygon fill="none" stroke="#e6ab02" points="252.91,-923.5 246.91,-927.5 240.91,-923.5 246.91,-919.5 252.91,-923.5"/>
<polygon fill="none" stroke="#e6ab02" points="1028.36,-933.5 1034.36,-929.5 1040.36,-933.5 1034.36,-937.5 1028.36,-933.5"/>
</g>
<!-- v17 -->
<g id="node66" class="node">
<title>v17</title>
<ellipse fill="none" stroke="black" cx="129.91" cy="-877.5" rx="27" ry="18"/>
<text text-anchor="middle" x="129.91" y="-873.8" font-family="Times New Roman,serif" font-size="14.00">1&#39;0</text>
</g>
<!-- c57 -->
<g id="node67" class="node">
<title>c57</title>
<polygon fill="none" stroke="black" points="317.41,-764.5 317.41,-856.5 495.41,-856.5 495.41,-764.5 317.41,-764.5"/>
<text text-anchor="middle" x="331.41" y="-841.3" font-family="Times New Roman,serif" font-size="14.00">I0</text>
<polyline fill="none" stroke="black" points="317.41,-833.5 345.41,-833.5 "/>
<text text-anchor="middle" x="331.41" y="-818.3" font-family="Times New Roman,serif" font-size="14.00">I1</text>
<polyline fill="none" stroke="black" points="317.41,-810.5 345.41,-810.5 "/>
<text text-anchor="middle" x="331.41" y="-795.3" font-family="Times New Roman,serif" font-size="14.00">I2</text>
<polyline fill="none" stroke="black" points="317.41,-787.5 345.41,-787.5 "/>
<text text-anchor="middle" x="331.41" y="-772.3" font-family="Times New Roman,serif" font-size="14.00">I3</text>
<polyline fill="none" stroke="black" points="345.41,-764.5 345.41,-856.5 "/>
<text text-anchor="middle" x="406.91" y="-814.3" font-family="Times New Roman,serif" font-size="14.00">SW_SB_LUT4_I2</text>
<text text-anchor="middle" x="406.91" y="-799.3" font-family="Times New Roman,serif" font-size="14.00">SB_LUT4</text>
<polyline fill="none" stroke="black" points="468.41,-764.5 468.41,-856.5 "/>
<text text-anchor="middle" x="481.91" y="-806.8" font-family="Times New Roman,serif" font-size="14.00">O</text>
</g>
<!-- v17&#45;&gt;c57 -->
<g id="edge115" class="edge">
<title>v17:e&#45;&gt;c57:w</title>
<path fill="none" stroke="#a6761d" d="M157.91,-877.5C226.26,-877.5 242.96,-848.55 306.28,-845.72"/>
<polygon fill="#a6761d" stroke="#a6761d" points="306.49,-849.22 316.41,-845.5 306.33,-842.22 306.49,-849.22"/>
</g>
<!-- c57&#45;&gt;n4 -->
<g id="edge75" class="edge">
<title>c57:e&#45;&gt;n4:w</title>
<path fill="none" stroke="#d95f02" d="M496.41,-810.5C563.56,-810.5 579.59,-841.13 641.55,-844.25"/>
<polygon fill="#d95f02" stroke="#d95f02" points="641.82,-847.75 651.91,-844.5 642,-840.76 641.82,-847.75"/>
</g>
<!-- x18&#45;&gt;c57 -->
<g id="edge13" class="edge">
<title>x18:e&#45;&gt;c57:w</title>
<path fill="none" stroke="#d95f02" d="M172.91,-822.5C228.47,-822.5 248.84,-822.5 304.4,-822.5"/>
<polygon fill="none" stroke="#d95f02" points="172.91,-822.5 166.91,-826.5 160.91,-822.5 166.91,-818.5 172.91,-822.5"/>
<polygon fill="none" stroke="#d95f02" points="304.41,-822.5 310.41,-818.5 316.41,-822.5 310.41,-826.5 304.41,-822.5"/>
</g>
<!-- x19&#45;&gt;c57 -->
<g id="edge14" class="edge">
<title>x19:e&#45;&gt;c57:w</title>
<path fill="none" stroke="#d95f02" d="M173.16,-713.24C236.08,-721.17 241.33,-790.01 304.4,-797.79"/>
<polygon fill="none" stroke="#d95f02" points="172.89,-713.23 166.65,-716.86 160.91,-712.5 167.14,-708.87 172.89,-713.23"/>
<polygon fill="none" stroke="#d95f02" points="304.43,-797.79 310.66,-794.15 316.41,-798.5 310.18,-802.14 304.43,-797.79"/>
</g>
<!-- x20&#45;&gt;c57 -->
<g id="edge15" class="edge">
<title>x20:e&#45;&gt;c57:w</title>
<path fill="none" stroke="#d95f02" d="M172.93,-767.58C228.54,-768.38 248.77,-774.62 304.39,-775.42"/>
<polygon fill="none" stroke="#d95f02" points="172.91,-767.58 166.88,-771.54 160.91,-767.5 166.94,-763.54 172.91,-767.58"/>
<polygon fill="none" stroke="#d95f02" points="304.41,-775.42 310.44,-771.46 316.41,-775.5 310.38,-779.46 304.41,-775.42"/>
</g>
<!-- x21&#45;&gt;n6 -->
<g id="edge80" class="edge">
<title>x21:e&#45;&gt;n6:w</title>
<path fill="none" stroke="#e6ab02" d="M160.91,-580.5C254.08,-580.5 279.9,-580.5 368.21,-580.5"/>
<polygon fill="#e6ab02" stroke="#e6ab02" points="368.41,-584 378.41,-580.5 368.41,-577 368.41,-584"/>
</g>
<!-- x22&#45;&gt;n8 -->
<g id="edge110" class="edge">
<title>x22:e&#45;&gt;n8:w</title>
<path fill="none" stroke="#d95f02" d="M160.91,-525.5C254.08,-525.5 279.9,-525.5 368.21,-525.5"/>
<polygon fill="#d95f02" stroke="#d95f02" points="368.41,-529 378.41,-525.5 368.41,-522 368.41,-529"/>
</g>
<!-- x23&#45;&gt;n9 -->
<g id="edge111" class="edge">
<title>x23:e&#45;&gt;n9:w</title>
<path fill="none" stroke="#1b9e77" stroke-width="3" d="M4565.5,-833.5C4588.42,-833.5 4596.57,-833.5 4615.33,-833.5"/>
<polygon fill="#1b9e77" stroke="#1b9e77" stroke-width="3" points="4615.5,-837 4625.5,-833.5 4615.5,-830 4615.5,-837"/>
<text text-anchor="middle" x="4595.5" y="-837.3" font-family="Times New Roman,serif" font-size="14.00" fill="#1b9e77">&lt;4&gt;</text>
</g>
<!-- x24&#45;&gt;n11 -->
<g id="edge29" class="edge">
<title>x24:e&#45;&gt;n11:w</title>
<path fill="none" stroke="#7570b3" d="M160.91,-470.5C252.8,-470.5 278.26,-470.5 365.35,-470.5"/>
<polygon fill="#7570b3" stroke="#7570b3" points="365.41,-474 375.41,-470.5 365.41,-467 365.41,-474"/>
</g>
<!-- x25&#45;&gt;n12 -->
<g id="edge30" class="edge">
<title>x25:e&#45;&gt;n12:w</title>
<path fill="none" stroke="#666666" d="M160.91,-415.5C244.23,-415.5 267.63,-415.5 346.04,-415.5"/>
<polygon fill="#666666" stroke="#666666" points="346.41,-419 356.41,-415.5 346.41,-412 346.41,-419"/>
</g>
<!-- x26&#45;&gt;n13 -->
<g id="edge31" class="edge">
<title>x26:e&#45;&gt;n13:w</title>
<path fill="none" stroke="#a6761d" d="M3699.61,-816.5C3782.6,-816.5 3805.9,-816.5 3884,-816.5"/>
<polygon fill="#a6761d" stroke="#a6761d" points="3884.33,-820 3894.33,-816.5 3884.33,-813 3884.33,-820"/>
</g>
<!-- x27&#45;&gt;n14 -->
<g id="edge32" class="edge">
<title>x27:e&#45;&gt;n14:w</title>
<path fill="none" stroke="#7570b3" d="M160.91,-2020.5C244.23,-2020.5 267.63,-2020.5 346.04,-2020.5"/>
<polygon fill="#7570b3" stroke="#7570b3" points="346.41,-2024 356.41,-2020.5 346.41,-2017 346.41,-2024"/>
</g>
<!-- x28&#45;&gt;n16 -->
<g id="edge35" class="edge">
<title>x28:e&#45;&gt;n16:w</title>
<path fill="none" stroke="#e6ab02" d="M160.91,-41.5C243.38,-41.5 266.54,-41.5 344.14,-41.5"/>
<polygon fill="#e6ab02" stroke="#e6ab02" points="344.41,-45 354.41,-41.5 344.41,-38 344.41,-45"/>
</g>
<!-- x29&#45;&gt;n17 -->
<g id="edge36" class="edge">
<title>x29:e&#45;&gt;n17:w</title>
<path fill="none" stroke="#1b9e77" d="M160.91,-1965.5C240.66,-1965.5 263.17,-1965.5 338,-1965.5"/>
<polygon fill="#1b9e77" stroke="#1b9e77" points="338.41,-1969 348.41,-1965.5 338.41,-1962 338.41,-1969"/>
</g>
<!-- x30&#45;&gt;n18 -->
<g id="edge37" class="edge">
<title>x30:e&#45;&gt;n18:w</title>
<path fill="none" stroke="#66a61e" d="M3699.61,-870.5C3784.91,-870.5 3808.73,-870.5 3889.23,-870.5"/>
<polygon fill="#66a61e" stroke="#66a61e" points="3889.33,-874 3899.33,-870.5 3889.33,-867 3889.33,-874"/>
</g>
<!-- x31&#45;&gt;n19 -->
<g id="edge38" class="edge">
<title>x31:e&#45;&gt;n19:w</title>
<path fill="none" stroke="#a6761d" d="M160.91,-1910.5C244.23,-1910.5 267.63,-1910.5 346.04,-1910.5"/>
<polygon fill="#a6761d" stroke="#a6761d" points="346.41,-1914 356.41,-1910.5 346.41,-1907 346.41,-1914"/>
</g>
<!-- x32&#45;&gt;n20 -->
<g id="edge41" class="edge">
<title>x32:e&#45;&gt;n20:w</title>
<path fill="none" stroke="#e6ab02" d="M2770.21,-1122.5C2853.2,-1122.5 2876.5,-1122.5 2954.6,-1122.5"/>
<polygon fill="#e6ab02" stroke="#e6ab02" points="2954.93,-1126 2964.93,-1122.5 2954.93,-1119 2954.93,-1126"/>
</g>
<!-- x33&#45;&gt;n21 -->
<g id="edge42" class="edge">
<title>x33:e&#45;&gt;n21:w</title>
<path fill="none" stroke="#7570b3" d="M160.91,-1855.5C244.23,-1855.5 267.63,-1855.5 346.04,-1855.5"/>
<polygon fill="#7570b3" stroke="#7570b3" points="346.41,-1859 356.41,-1855.5 346.41,-1852 346.41,-1859"/>
</g>
<!-- x34&#45;&gt;n23 -->
<g id="edge48" class="edge">
<title>x34:e&#45;&gt;n23:w</title>
<path fill="none" stroke="#d95f02" d="M160.91,-245.5C243.38,-245.5 266.54,-245.5 344.14,-245.5"/>
<polygon fill="#d95f02" stroke="#d95f02" points="344.41,-249 354.41,-245.5 344.41,-242 344.41,-249"/>
</g>
<!-- x35&#45;&gt;n24 -->
<g id="edge49" class="edge">
<title>x35:e&#45;&gt;n24:w</title>
<path fill="none" stroke="#e6ab02" d="M160.91,-1800.5C240.66,-1800.5 263.17,-1800.5 338,-1800.5"/>
<polygon fill="#e6ab02" stroke="#e6ab02" points="338.41,-1804 348.41,-1800.5 338.41,-1797 338.41,-1804"/>
</g>
<!-- x36&#45;&gt;n25 -->
<g id="edge50" class="edge">
<title>x36:e&#45;&gt;n25:w</title>
<path fill="none" stroke="#1b9e77" d="M2770.21,-1068.5C2855.51,-1068.5 2879.33,-1068.5 2959.83,-1068.5"/>
<polygon fill="#1b9e77" stroke="#1b9e77" points="2959.93,-1072 2969.93,-1068.5 2959.93,-1065 2959.93,-1072"/>
</g>
<!-- x37&#45;&gt;n26 -->
<g id="edge51" class="edge">
<title>x37:e&#45;&gt;n26:w</title>
<path fill="none" stroke="#66a61e" d="M160.91,-1745.5C244.23,-1745.5 267.63,-1745.5 346.04,-1745.5"/>
<polygon fill="#66a61e" stroke="#66a61e" points="346.41,-1749 356.41,-1745.5 346.41,-1742 346.41,-1749"/>
</g>
<!-- x38&#45;&gt;n27 -->
<g id="edge52" class="edge">
<title>x38:e&#45;&gt;n27:w</title>
<path fill="none" stroke="#1b9e77" d="M1657.81,-834.5C1768.02,-834.5 1798.08,-834.5 1903.44,-834.5"/>
<polygon fill="#1b9e77" stroke="#1b9e77" points="1903.53,-838 1913.53,-834.5 1903.53,-831 1903.53,-838"/>
</g>
<!-- x39&#45;&gt;n28 -->
<g id="edge53" class="edge">
<title>x39:e&#45;&gt;n28:w</title>
<path fill="none" stroke="#e7298a" d="M160.91,-1613.5C244.23,-1613.5 267.63,-1613.5 346.04,-1613.5"/>
<polygon fill="#e7298a" stroke="#e7298a" points="346.41,-1617 356.41,-1613.5 346.41,-1610 346.41,-1617"/>
</g>
<!-- x40&#45;&gt;n30 -->
<g id="edge61" class="edge">
<title>x40:e&#45;&gt;n30:w</title>
<path fill="none" stroke="#7570b3" d="M160.91,-190.5C243.38,-190.5 266.54,-190.5 344.14,-190.5"/>
<polygon fill="#7570b3" stroke="#7570b3" points="344.41,-194 354.41,-190.5 344.41,-187 344.41,-194"/>
</g>
<!-- x41&#45;&gt;n31 -->
<g id="edge62" class="edge">
<title>x41:e&#45;&gt;n31:w</title>
<path fill="none" stroke="#66a61e" d="M160.91,-1558.5C240.66,-1558.5 263.17,-1558.5 338,-1558.5"/>
<polygon fill="#66a61e" stroke="#66a61e" points="338.41,-1562 348.41,-1558.5 338.41,-1555 338.41,-1562"/>
</g>
<!-- x42&#45;&gt;n32 -->
<g id="edge63" class="edge">
<title>x42:e&#45;&gt;n32:w</title>
<path fill="none" stroke="#66a61e" d="M1657.81,-888.5C1770.18,-888.5 1800.82,-888.5 1908.24,-888.5"/>
<polygon fill="#66a61e" stroke="#66a61e" points="1908.53,-892 1918.53,-888.5 1908.53,-885 1908.53,-892"/>
</g>
<!-- x43&#45;&gt;n33 -->
<g id="edge64" class="edge">
<title>x43:e&#45;&gt;n33:w</title>
<path fill="none" stroke="#a6761d" d="M160.91,-1503.5C244.23,-1503.5 267.63,-1503.5 346.04,-1503.5"/>
<polygon fill="#a6761d" stroke="#a6761d" points="346.41,-1507 356.41,-1503.5 346.41,-1500 346.41,-1507"/>
</g>
<!-- x44&#45;&gt;n34 -->
<g id="edge65" class="edge">
<title>x44:e&#45;&gt;n34:w</title>
<path fill="none" stroke="#e7298a" d="M160.91,-1448.5C241.25,-1448.5 263.81,-1448.5 339.41,-1448.5"/>
<polygon fill="#e7298a" stroke="#e7298a" points="339.41,-1452 349.41,-1448.5 339.41,-1445 339.41,-1452"/>
</g>
<!-- x45&#45;&gt;n35 -->
<g id="edge66" class="edge">
<title>x45:e&#45;&gt;n35:w</title>
<path fill="none" stroke="#a6761d" d="M160.91,-1354.5C244.24,-1354.5 267.62,-1352.66 346.04,-1352.51"/>
<polygon fill="#a6761d" stroke="#a6761d" points="346.41,-1356.01 356.41,-1352.5 346.4,-1349.01 346.41,-1356.01"/>
</g>
<!-- x46&#45;&gt;n37 -->
<g id="edge72" class="edge">
<title>x46:e&#45;&gt;n37:w</title>
<path fill="none" stroke="#e6ab02" d="M160.91,-135.5C243.38,-135.5 266.54,-135.5 344.14,-135.5"/>
<polygon fill="#e6ab02" stroke="#e6ab02" points="344.41,-139 354.41,-135.5 344.41,-132 344.41,-139"/>
</g>
<!-- x47&#45;&gt;n38 -->
<g id="edge73" class="edge">
<title>x47:e&#45;&gt;n38:w</title>
<path fill="none" stroke="#7570b3" d="M160.91,-1299.5C240.66,-1299.5 263.17,-1298.58 338,-1298.51"/>
<polygon fill="#7570b3" stroke="#7570b3" points="338.41,-1302.01 348.41,-1298.5 338.41,-1295.01 338.41,-1302.01"/>
</g>
<!-- x48&#45;&gt;n39 -->
<g id="edge74" class="edge">
<title>x48:e&#45;&gt;n39:w</title>
<path fill="none" stroke="#7570b3" d="M160.91,-1244.5C243.38,-1244.5 266.54,-1244.5 344.14,-1244.5"/>
<polygon fill="#7570b3" stroke="#7570b3" points="344.41,-1248 354.41,-1244.5 344.41,-1241 344.41,-1248"/>
</g>
<!-- x49&#45;&gt;n40 -->
<g id="edge77" class="edge">
<title>x49:e&#45;&gt;n40:w</title>
<path fill="none" stroke="#e6ab02" d="M160.91,-1189.5C254.08,-1189.5 279.9,-1189.5 368.21,-1189.5"/>
<polygon fill="#e6ab02" stroke="#e6ab02" points="368.41,-1193 378.41,-1189.5 368.41,-1186 368.41,-1193"/>
</g>
</g>
</svg>
