<?xml version="1.0" encoding="UTF-8" standalone="no"?>
<!DOCTYPE svg PUBLIC "-//W3C//DTD SVG 1.1//EN"
 "http://www.w3.org/Graphics/SVG/1.1/DTD/svg11.dtd">
<!-- Generated by graphviz version 4.0.0 (20220529.0937)
 -->
<!-- Title: MUXDFF Pages: 1 -->
<svg width="670pt" height="324pt"
 viewBox="0.00 0.00 669.66 324.24" xmlns="http://www.w3.org/2000/svg" xmlns:xlink="http://www.w3.org/1999/xlink">
<g id="graph0" class="graph" transform="scale(1 1) rotate(0) translate(4 320.24)">
<title>MUXDFF</title>
<polygon fill="white" stroke="transparent" points="-4,4 -4,-320.24 665.66,-320.24 665.66,4 -4,4"/>
<text text-anchor="middle" x="330.83" y="-7.8" font-family="Times New Roman,serif" font-size="14.00">MUXDFF</text>
<!-- n2 -->
<g id="node1" class="node">
<title>n2</title>
<polygon fill="none" stroke="black" points="54,-230.54 54,-245.46 38.18,-256 15.82,-256 0,-245.46 0,-230.54 15.82,-220 38.18,-220 54,-230.54"/>
<text text-anchor="middle" x="27" y="-234.3" font-family="Times New Roman,serif" font-size="14.00">E</text>
</g>
<!-- c16 -->
<g id="node7" class="node">
<title>c16</title>
<polygon fill="none" stroke="black" points="90,-222.5 90,-291.5 189,-291.5 189,-222.5 90,-222.5"/>
<text text-anchor="middle" x="103" y="-276.3" font-family="Times New Roman,serif" font-size="14.00">A</text>
<polyline fill="none" stroke="black" points="90,-268.5 116,-268.5 "/>
<text text-anchor="middle" x="103" y="-253.3" font-family="Times New Roman,serif" font-size="14.00">B</text>
<polyline fill="none" stroke="black" points="90,-245.5 116,-245.5 "/>
<text text-anchor="middle" x="103" y="-230.3" font-family="Times New Roman,serif" font-size="14.00">S</text>
<polyline fill="none" stroke="black" points="116,-222.5 116,-291.5 "/>
<text text-anchor="middle" x="139.5" y="-260.8" font-family="Times New Roman,serif" font-size="14.00">$1</text>
<text text-anchor="middle" x="139.5" y="-245.8" font-family="Times New Roman,serif" font-size="14.00">$mux</text>
<polyline fill="none" stroke="black" points="163,-222.5 163,-291.5 "/>
<text text-anchor="middle" x="176" y="-253.3" font-family="Times New Roman,serif" font-size="14.00">Y</text>
</g>
<!-- n2&#45;&gt;c16 -->
<g id="edge1" class="edge">
<title>n2:e&#45;&gt;c16:w</title>
<path fill="none" stroke="#1b9e77" d="M54,-238C66.07,-238 71.23,-235.75 79.85,-234.62"/>
<polygon fill="#1b9e77" stroke="#1b9e77" points="80.23,-238.11 90,-234 79.8,-231.12 80.23,-238.11"/>
</g>
<!-- n4 -->
<g id="node2" class="node">
<title>n4</title>
<polygon fill="none" stroke="black" points="54,-33.54 54,-48.46 38.18,-59 15.82,-59 0,-48.46 0,-33.54 15.82,-23 38.18,-23 54,-33.54"/>
<text text-anchor="middle" x="27" y="-37.3" font-family="Times New Roman,serif" font-size="14.00">L</text>
</g>
<!-- c17 -->
<g id="node9" class="node">
<title>c17</title>
<polygon fill="none" stroke="black" points="319.83,-72.5 319.83,-141.5 418.83,-141.5 418.83,-72.5 319.83,-72.5"/>
<text text-anchor="middle" x="332.83" y="-126.3" font-family="Times New Roman,serif" font-size="14.00">A</text>
<polyline fill="none" stroke="black" points="319.83,-118.5 345.83,-118.5 "/>
<text text-anchor="middle" x="332.83" y="-103.3" font-family="Times New Roman,serif" font-size="14.00">B</text>
<polyline fill="none" stroke="black" points="319.83,-95.5 345.83,-95.5 "/>
<text text-anchor="middle" x="332.83" y="-80.3" font-family="Times New Roman,serif" font-size="14.00">S</text>
<polyline fill="none" stroke="black" points="345.83,-72.5 345.83,-141.5 "/>
<text text-anchor="middle" x="369.33" y="-110.8" font-family="Times New Roman,serif" font-size="14.00">$3</text>
<text text-anchor="middle" x="369.33" y="-95.8" font-family="Times New Roman,serif" font-size="14.00">$mux</text>
<polyline fill="none" stroke="black" points="392.83,-72.5 392.83,-141.5 "/>
<text text-anchor="middle" x="405.83" y="-103.3" font-family="Times New Roman,serif" font-size="14.00">Y</text>
</g>
<!-- n4&#45;&gt;c17 -->
<g id="edge3" class="edge">
<title>n4:e&#45;&gt;c17:w</title>
<path fill="none" stroke="#7570b3" d="M54,-41C170.17,-41 198.51,-81.52 309.54,-83.89"/>
<polygon fill="#7570b3" stroke="#7570b3" points="309.79,-87.39 319.83,-84 309.86,-80.39 309.79,-87.39"/>
</g>
<!-- n6 -->
<g id="node3" class="node">
<title>n6</title>
<polygon fill="none" stroke="black" points="54,-87.54 54,-102.46 38.18,-113 15.82,-113 0,-102.46 0,-87.54 15.82,-77 38.18,-77 54,-87.54"/>
<text text-anchor="middle" x="27" y="-91.3" font-family="Times New Roman,serif" font-size="14.00">R</text>
</g>
<!-- n6&#45;&gt;c17 -->
<g id="edge5" class="edge">
<title>n6:e&#45;&gt;c17:w</title>
<path fill="none" stroke="#e7298a" d="M54,-95C168.8,-95 199.77,-106.31 309.66,-106.97"/>
<polygon fill="#e7298a" stroke="#e7298a" points="309.82,-110.47 319.83,-107 309.84,-103.47 309.82,-110.47"/>
</g>
<!-- n7 -->
<g id="node4" class="node">
<title>n7</title>
<polygon fill="none" stroke="black" points="54,-176.54 54,-191.46 38.18,-202 15.82,-202 0,-191.46 0,-176.54 15.82,-166 38.18,-166 54,-176.54"/>
<text text-anchor="middle" x="27" y="-180.3" font-family="Times New Roman,serif" font-size="14.00">clk</text>
</g>
<!-- c11 -->
<g id="node10" class="node">
<title>c11</title>
<polygon fill="none" stroke="black" points="454.83,-152 454.83,-198 565.83,-198 565.83,-152 454.83,-152"/>
<text text-anchor="middle" x="476.83" y="-182.8" font-family="Times New Roman,serif" font-size="14.00">CLK</text>
<polyline fill="none" stroke="black" points="454.83,-175 498.83,-175 "/>
<text text-anchor="middle" x="476.83" y="-159.8" font-family="Times New Roman,serif" font-size="14.00">D</text>
<polyline fill="none" stroke="black" points="498.83,-152 498.83,-198 "/>
<text text-anchor="middle" x="518.83" y="-178.8" font-family="Times New Roman,serif" font-size="14.00">$4</text>
<text text-anchor="middle" x="518.83" y="-163.8" font-family="Times New Roman,serif" font-size="14.00">$dff</text>
<polyline fill="none" stroke="black" points="538.83,-152 538.83,-198 "/>
<text text-anchor="middle" x="552.33" y="-171.3" font-family="Times New Roman,serif" font-size="14.00">Q</text>
</g>
<!-- n7&#45;&gt;c11 -->
<g id="edge6" class="edge">
<title>n7:e&#45;&gt;c11:w</title>
<path fill="none" stroke="#7570b3" d="M54,-184C228.76,-184 274.93,-186.89 444.79,-187"/>
<polygon fill="#7570b3" stroke="#7570b3" points="444.82,-190.5 454.83,-187 444.83,-183.5 444.82,-190.5"/>
</g>
<!-- n8 -->
<g id="node5" class="node">
<title>n8</title>
<polygon fill="none" stroke="black" points="54,-284.54 54,-299.46 38.18,-310 15.82,-310 0,-299.46 0,-284.54 15.82,-274 38.18,-274 54,-284.54"/>
<text text-anchor="middle" x="27" y="-288.3" font-family="Times New Roman,serif" font-size="14.00">w</text>
</g>
<!-- n8&#45;&gt;c16 -->
<g id="edge7" class="edge">
<title>n8:e&#45;&gt;c16:w</title>
<path fill="none" stroke="#d95f02" d="M54,-292C72.13,-292 69.83,-268.89 80.3,-260.23"/>
<polygon fill="#d95f02" stroke="#d95f02" points="81.62,-263.48 90,-257 79.41,-256.84 81.62,-263.48"/>
</g>
<!-- n5 -->
<g id="node6" class="node">
<title>n5</title>
<polygon fill="none" stroke="black" points="655.83,-206.54 655.83,-221.46 640.01,-232 617.64,-232 601.83,-221.46 601.83,-206.54 617.64,-196 640.01,-196 655.83,-206.54"/>
<text text-anchor="middle" x="628.83" y="-210.3" font-family="Times New Roman,serif" font-size="14.00">Q</text>
</g>
<!-- n5&#45;&gt;c16 -->
<g id="edge4" class="edge">
<title>n5:e&#45;&gt;c16:w</title>
<path fill="none" stroke="#e7298a" d="M656.83,-214C664.84,-214 661.28,-226.13 655.83,-232 513.35,-385.17 397.76,-278.64 189,-292 144.87,-294.82 122.04,-321.94 89.5,-292 88.88,-291.43 88.31,-290.75 87.79,-290"/>
<polygon fill="#e7298a" stroke="#e7298a" points="91.28,-290.22 88.5,-280 84.3,-289.73 91.28,-290.22"/>
</g>
<!-- n3 -->
<g id="node8" class="node">
<title>n3</title>
<polygon fill="none" stroke="black" points="254.41,-159 225.09,-141 254.41,-123 283.74,-141 254.41,-159"/>
<text text-anchor="middle" x="254.41" y="-137.3" font-family="Times New Roman,serif" font-size="14.00">Eo</text>
</g>
<!-- c16&#45;&gt;n3 -->
<g id="edge9" class="edge">
<title>c16:e&#45;&gt;n3:w</title>
<path fill="none" stroke="#1b9e77" d="M189,-257C238.97,-257 181.01,-157.58 214.96,-142.82"/>
<polygon fill="#1b9e77" stroke="#1b9e77" points="215.79,-146.23 225,-141 214.54,-139.34 215.79,-146.23"/>
</g>
<!-- n3&#45;&gt;c17 -->
<g id="edge2" class="edge">
<title>n3:e&#45;&gt;c17:w</title>
<path fill="none" stroke="#1b9e77" d="M283.83,-141C296.5,-141 301.03,-134.68 309.76,-131.62"/>
<polygon fill="#1b9e77" stroke="#1b9e77" points="310.51,-135.05 319.83,-130 309.4,-128.14 310.51,-135.05"/>
</g>
<!-- c17&#45;&gt;c11 -->
<g id="edge10" class="edge">
<title>c17:e&#45;&gt;c11:w</title>
<path fill="none" stroke="#66a61e" d="M418.83,-107C444.25,-107 430.71,-148.36 445.18,-159.99"/>
<polygon fill="#66a61e" stroke="#66a61e" points="444.24,-163.36 454.83,-163 446.32,-156.68 444.24,-163.36"/>
</g>
<!-- c11&#45;&gt;n5 -->
<g id="edge8" class="edge">
<title>c11:e&#45;&gt;n5:w</title>
<path fill="none" stroke="#e7298a" d="M565.83,-175C585.18,-175 581.13,-201.24 592.07,-210.67"/>
<polygon fill="#e7298a" stroke="#e7298a" points="591.23,-214.09 601.83,-214 593.49,-207.46 591.23,-214.09"/>
</g>
</g>
</svg>
