<svg xmlns="http://www.w3.org/2000/svg" xmlns:xlink="http://www.w3.org/1999/xlink" xmlns:s="https://github.com/nturley/netlistsvg" width="627" height="509.5">
  <style>svg {
    stroke:#000;
    fill:none;
  }
  text {
    fill:#000;
    stroke:none;
    font-size:10px;
    font-weight: bold;
    font-family: "Courier New", monospace;
  }
  .nodelabel {
    text-anchor: middle;
  }
  .inputPortLabel {
    text-anchor: end;
  }
  .splitjoinBody {
    fill:#000;
  }</style>
  <g s:type="generic" transform="translate(464,87)" s:width="30" s:height="40" id="cell_md0">
    <text x="15" y="-4" class="nodelabel cell_md0" s:attribute="ref">MUXDFF</text>
    <rect width="30" height="100" s:generic="body" class="cell_md0"/>
    <g transform="translate(0,10)" s:x="0" s:y="10" s:pid="in0" id="port_md0~E">
      <text x="-3" y="-4" class="inputPortLabel cell_md0">E</text>
    </g>
    <g transform="translate(0,30)" s:x="0" s:y="10" s:pid="in0" id="port_md0~L">
      <text x="-3" y="-4" class="inputPortLabel cell_md0">L</text>
    </g>
    <g transform="translate(0,50)" s:x="0" s:y="10" s:pid="in0" id="port_md0~R">
      <text x="-3" y="-4" class="inputPortLabel cell_md0">R</text>
    </g>
    <g transform="translate(0,70)" s:x="0" s:y="10" s:pid="in0" id="port_md0~clk">
      <text x="-3" y="-4" class="inputPortLabel cell_md0">clk</text>
    </g>
    <g transform="translate(0,90)" s:x="0" s:y="10" s:pid="in0" id="port_md0~w">
      <text x="-3" y="-4" class="inputPortLabel cell_md0">w</text>
    </g>
    <g transform="translate(30,10)" s:x="30" s:y="10" s:pid="out0" id="port_md0~Q">
      <text x="5" y="-4" style="fill:#000; stroke:none" class="cell_md0">Q</text>
    </g>
  </g>
  <g s:type="generic" transform="translate(372,189.5)" s:width="30" s:height="40" id="cell_md1">
    <text x="15" y="-4" class="nodelabel cell_md1" s:attribute="ref">MUXDFF</text>
    <rect width="30" height="100" s:generic="body" class="cell_md1"/>
    <g transform="translate(0,10)" s:x="0" s:y="10" s:pid="in0" id="port_md1~E">
      <text x="-3" y="-4" class="inputPortLabel cell_md1">E</text>
    </g>
    <g transform="translate(0,30)" s:x="0" s:y="10" s:pid="in0" id="port_md1~L">
      <text x="-3" y="-4" class="inputPortLabel cell_md1">L</text>
    </g>
    <g transform="translate(0,50)" s:x="0" s:y="10" s:pid="in0" id="port_md1~R">
      <text x="-3" y="-4" class="inputPortLabel cell_md1">R</text>
    </g>
    <g transform="translate(0,70)" s:x="0" s:y="10" s:pid="in0" id="port_md1~clk">
      <text x="-3" y="-4" class="inputPortLabel cell_md1">clk</text>
    </g>
    <g transform="translate(0,90)" s:x="0" s:y="10" s:pid="in0" id="port_md1~w">
      <text x="-3" y="-4" class="inputPortLabel cell_md1">w</text>
    </g>
    <g transform="translate(30,10)" s:x="30" s:y="10" s:pid="out0" id="port_md1~Q">
      <text x="5" y="-4" style="fill:#000; stroke:none" class="cell_md1">Q</text>
    </g>
  </g>
  <g s:type="generic" transform="translate(280,292)" s:width="30" s:height="40" id="cell_md2">
    <text x="15" y="-4" class="nodelabel cell_md2" s:attribute="ref">MUXDFF</text>
    <rect width="30" height="100" s:generic="body" class="cell_md2"/>
    <g transform="translate(0,10)" s:x="0" s:y="10" s:pid="in0" id="port_md2~E">
      <text x="-3" y="-4" class="inputPortLabel cell_md2">E</text>
    </g>
    <g transform="translate(0,30)" s:x="0" s:y="10" s:pid="in0" id="port_md2~L">
      <text x="-3" y="-4" class="inputPortLabel cell_md2">L</text>
    </g>
    <g transform="translate(0,50)" s:x="0" s:y="10" s:pid="in0" id="port_md2~R">
      <text x="-3" y="-4" class="inputPortLabel cell_md2">R</text>
    </g>
    <g transform="translate(0,70)" s:x="0" s:y="10" s:pid="in0" id="port_md2~clk">
      <text x="-3" y="-4" class="inputPortLabel cell_md2">clk</text>
    </g>
    <g transform="translate(0,90)" s:x="0" s:y="10" s:pid="in0" id="port_md2~w">
      <text x="-3" y="-4" class="inputPortLabel cell_md2">w</text>
    </g>
    <g transform="translate(30,10)" s:x="30" s:y="10" s:pid="out0" id="port_md2~Q">
      <text x="5" y="-4" style="fill:#000; stroke:none" class="cell_md2">Q</text>
    </g>
  </g>
  <g s:type="generic" transform="translate(188,394.5)" s:width="30" s:height="40" id="cell_md3">
    <text x="15" y="-4" class="nodelabel cell_md3" s:attribute="ref">MUXDFF</text>
    <rect width="30" height="100" s:generic="body" class="cell_md3"/>
    <g transform="translate(0,10)" s:x="0" s:y="10" s:pid="in0" id="port_md3~E">
      <text x="-3" y="-4" class="inputPortLabel cell_md3">E</text>
    </g>
    <g transform="translate(0,30)" s:x="0" s:y="10" s:pid="in0" id="port_md3~L">
      <text x="-3" y="-4" class="inputPortLabel cell_md3">L</text>
    </g>
    <g transform="translate(0,50)" s:x="0" s:y="10" s:pid="in0" id="port_md3~R">
      <text x="-3" y="-4" class="inputPortLabel cell_md3">R</text>
    </g>
    <g transform="translate(0,70)" s:x="0" s:y="10" s:pid="in0" id="port_md3~clk">
      <text x="-3" y="-4" class="inputPortLabel cell_md3">clk</text>
    </g>
    <g transform="translate(0,90)" s:x="0" s:y="10" s:pid="in0" id="port_md3~w">
      <text x="-3" y="-4" class="inputPortLabel cell_md3">w</text>
    </g>
    <g transform="translate(30,10)" s:x="30" s:y="10" s:pid="out0" id="port_md3~Q">
      <text x="5" y="-4" style="fill:#000; stroke:none" class="cell_md3">Q</text>
    </g>
  </g>
  <g s:type="inputExt" transform="translate(12,137.5)" s:width="30" s:height="20" id="cell_SW">
    <text x="15" y="-4" class="nodelabel cell_SW" s:attribute="ref">SW</text>
    <s:alias val="$_inputExt_"/>
    <path d="M0,0 L0,20 L15,20 L30,10 L15,0 Z" class="cell_SW"/>
    <g s:x="28" s:y="10" s:pid="Y"/>
  </g>
  <g s:type="inputExt" transform="translate(12,22.5)" s:width="30" s:height="20" id="cell_KEY">
    <text x="15" y="-4" class="nodelabel cell_KEY" s:attribute="ref">KEY</text>
    <s:alias val="$_inputExt_"/>
    <path d="M0,0 L0,20 L15,20 L30,10 L15,0 Z" class="cell_KEY"/>
    <g s:x="28" s:y="10" s:pid="Y"/>
  </g>
  <g s:type="outputExt" transform="translate(585,180)" s:width="30" s:height="20" id="cell_LEDR">
    <text x="15" y="-4" class="nodelabel cell_LEDR" s:attribute="ref">LEDR</text>
    <s:alias val="$_outputExt_"/>
    <path d="M30,0 L30,20 L15,20 L0,10 L15,0 Z" class="cell_LEDR"/>
    <g s:x="0" s:y="10" s:pid="A"/>
  </g>
  <g s:type="join" transform="translate(544,169.5)" s:width="4" s:height="40" id="cell_$join$,10,11,12,13,">
    <rect width="5" height="80" class="splitjoinBody" s:generic="body"/>
    <s:alias val="$_join_"/>
    <g s:x="5" s:y="20" s:pid="out"/>
    <g transform="translate(0,10)" s:x="0" s:y="10" s:pid="in0">
      <text x="-3" y="-4" class="inputPortLabel">0</text>
    </g>
    <g transform="translate(0,30)" s:x="0" s:y="10" s:pid="in0">
      <text x="-3" y="-4" class="inputPortLabel">1</text>
    </g>
    <g transform="translate(0,50)" s:x="0" s:y="10" s:pid="in0">
      <text x="-3" y="-4" class="inputPortLabel">2</text>
    </g>
    <g transform="translate(0,70)" s:x="0" s:y="10" s:pid="in0">
      <text x="-3" y="-4" class="inputPortLabel">3</text>
    </g>
  </g>
  <g s:type="split" transform="translate(77,12)" s:width="5" s:height="40" id="cell_$split$,6,7,8,9,">
    <rect width="5" height="80" class="splitjoinBody" s:generic="body"/>
    <s:alias val="$_split_"/>
    <g s:x="0" s:y="20" s:pid="in"/>
    <g transform="translate(4,10)" s:x="4" s:y="10" s:pid="out0">
      <text x="5" y="-4">1</text>
    </g>
    <g transform="translate(4,30)" s:x="4" s:y="10" s:pid="out0">
      <text x="5" y="-4">2</text>
    </g>
    <g transform="translate(4,50)" s:x="4" s:y="10" s:pid="out0">
      <text x="5" y="-4">0</text>
    </g>
    <g transform="translate(4,70)" s:x="4" s:y="10" s:pid="out0">
      <text x="5" y="-4">3</text>
    </g>
  </g>
  <g s:type="split" transform="translate(77,127)" s:width="5" s:height="40" id="cell_$split$,2,3,4,5,">
    <rect width="5" height="80" class="splitjoinBody" s:generic="body"/>
    <s:alias val="$_split_"/>
    <g s:x="0" s:y="20" s:pid="in"/>
    <g transform="translate(4,10)" s:x="4" s:y="10" s:pid="out0">
      <text x="5" y="-4">0</text>
    </g>
    <g transform="translate(4,30)" s:x="4" s:y="10" s:pid="out0">
      <text x="5" y="-4">1</text>
    </g>
    <g transform="translate(4,50)" s:x="4" s:y="10" s:pid="out0">
      <text x="5" y="-4">2</text>
    </g>
    <g transform="translate(4,70)" s:x="4" s:y="10" s:pid="out0">
      <text x="5" y="-4">3</text>
    </g>
  </g>
  <line x1="82" x2="430" y1="22.5" y2="22.5" class="net_7"/>
  <line x1="430" x2="430" y1="22.5" y2="97.5" class="net_7"/>
  <line x1="430" x2="464" y1="97.5" y2="97.5" class="net_7"/>
  <line x1="82" x2="159" y1="22.5" y2="22.5" class="net_7"/>
  <line x1="159" x2="159" y1="22.5" y2="159.5" class="net_7"/>
  <line x1="159" x2="338" y1="159.5" y2="159.5" class="net_7"/>
  <line x1="338" x2="338" y1="159.5" y2="200" class="net_7"/>
  <circle cx="159" cy="22.5" r="2" style="fill:#000" class="net_7"/>
  <circle cx="159" cy="159.5" r="2" style="fill:#000" class="net_7"/>
  <line x1="338" x2="372" y1="200" y2="200" class="net_7"/>
  <line x1="82" x2="159" y1="22.5" y2="22.5" class="net_7"/>
  <line x1="159" x2="159" y1="22.5" y2="262" class="net_7"/>
  <line x1="159" x2="246" y1="262" y2="262" class="net_7"/>
  <line x1="246" x2="246" y1="262" y2="302.5" class="net_7"/>
  <circle cx="159" cy="262" r="2" style="fill:#000" class="net_7"/>
  <line x1="246" x2="280" y1="302.5" y2="302.5" class="net_7"/>
  <line x1="82" x2="159" y1="22.5" y2="22.5" class="net_7"/>
  <line x1="159" x2="159" y1="22.5" y2="405" class="net_7"/>
  <line x1="159" x2="188" y1="405" y2="405" class="net_7"/>
  <line x1="82" x2="420" y1="42.5" y2="42.5" class="net_8"/>
  <line x1="420" x2="420" y1="42.5" y2="117.5" class="net_8"/>
  <line x1="420" x2="464" y1="117.5" y2="117.5" class="net_8"/>
  <line x1="82" x2="149" y1="42.5" y2="42.5" class="net_8"/>
  <line x1="149" x2="149" y1="42.5" y2="170.5" class="net_8"/>
  <line x1="149" x2="328" y1="170.5" y2="170.5" class="net_8"/>
  <line x1="328" x2="328" y1="170.5" y2="220" class="net_8"/>
  <circle cx="149" cy="42.5" r="2" style="fill:#000" class="net_8"/>
  <circle cx="149" cy="170.5" r="2" style="fill:#000" class="net_8"/>
  <line x1="328" x2="372" y1="220" y2="220" class="net_8"/>
  <line x1="82" x2="149" y1="42.5" y2="42.5" class="net_8"/>
  <line x1="149" x2="149" y1="42.5" y2="273" class="net_8"/>
  <line x1="149" x2="236" y1="273" y2="273" class="net_8"/>
  <line x1="236" x2="236" y1="273" y2="322.5" class="net_8"/>
  <circle cx="149" cy="273" r="2" style="fill:#000" class="net_8"/>
  <line x1="236" x2="280" y1="322.5" y2="322.5" class="net_8"/>
  <line x1="82" x2="149" y1="42.5" y2="42.5" class="net_8"/>
  <line x1="149" x2="149" y1="42.5" y2="425" class="net_8"/>
  <line x1="149" x2="188" y1="425" y2="425" class="net_8"/>
  <line x1="82" x2="464" y1="137.5" y2="137.5" class="net_2"/>
  <line x1="82" x2="139" y1="62.5" y2="62.5" class="net_6"/>
  <line x1="139" x2="139" y1="62.5" y2="148.5" class="net_6"/>
  <line x1="139" x2="420" y1="148.5" y2="148.5" class="net_6"/>
  <line x1="420" x2="420" y1="148.5" y2="157.5" class="net_6"/>
  <circle cx="139" cy="148.5" r="2" style="fill:#000" class="net_6"/>
  <line x1="420" x2="464" y1="157.5" y2="157.5" class="net_6"/>
  <line x1="82" x2="139" y1="62.5" y2="62.5" class="net_6"/>
  <line x1="139" x2="139" y1="62.5" y2="251" class="net_6"/>
  <line x1="139" x2="328" y1="251" y2="251" class="net_6"/>
  <line x1="328" x2="328" y1="251" y2="260" class="net_6"/>
  <circle cx="139" cy="251" r="2" style="fill:#000" class="net_6"/>
  <line x1="328" x2="372" y1="260" y2="260" class="net_6"/>
  <line x1="82" x2="139" y1="62.5" y2="62.5" class="net_6"/>
  <line x1="139" x2="139" y1="62.5" y2="353.5" class="net_6"/>
  <line x1="139" x2="236" y1="353.5" y2="353.5" class="net_6"/>
  <line x1="236" x2="236" y1="353.5" y2="362.5" class="net_6"/>
  <circle cx="139" cy="353.5" r="2" style="fill:#000" class="net_6"/>
  <line x1="236" x2="280" y1="362.5" y2="362.5" class="net_6"/>
  <line x1="82" x2="139" y1="62.5" y2="62.5" class="net_6"/>
  <line x1="139" x2="139" y1="62.5" y2="465" class="net_6"/>
  <line x1="139" x2="188" y1="465" y2="465" class="net_6"/>
  <line x1="403" x2="420" y1="200" y2="200" class="net_11"/>
  <line x1="420" x2="420" y1="200" y2="177.5" class="net_11"/>
  <circle cx="420" cy="200" r="2" style="fill:#000" class="net_11"/>
  <line x1="420" x2="464" y1="177.5" y2="177.5" class="net_11"/>
  <line x1="403" x2="544" y1="200" y2="200" class="net_11"/>
  <line x1="82" x2="129" y1="157.5" y2="157.5" class="net_3"/>
  <line x1="129" x2="129" y1="157.5" y2="240" class="net_3"/>
  <line x1="129" x2="372" y1="240" y2="240" class="net_3"/>
  <line x1="311" x2="328" y1="302.5" y2="302.5" class="net_12"/>
  <line x1="328" x2="328" y1="302.5" y2="280" class="net_12"/>
  <circle cx="328" cy="302.5" r="2" style="fill:#000" class="net_12"/>
  <line x1="328" x2="372" y1="280" y2="280" class="net_12"/>
  <line x1="311" x2="512" y1="302.5" y2="302.5" class="net_12"/>
  <line x1="512" x2="512" y1="302.5" y2="220" class="net_12"/>
  <line x1="512" x2="544" y1="220" y2="220" class="net_12"/>
  <line x1="82" x2="119" y1="177.5" y2="177.5" class="net_4"/>
  <line x1="119" x2="119" y1="177.5" y2="342.5" class="net_4"/>
  <line x1="119" x2="280" y1="342.5" y2="342.5" class="net_4"/>
  <line x1="219" x2="236" y1="405" y2="405" class="net_13"/>
  <line x1="236" x2="236" y1="405" y2="382.5" class="net_13"/>
  <circle cx="236" cy="405" r="2" style="fill:#000" class="net_13"/>
  <line x1="236" x2="280" y1="382.5" y2="382.5" class="net_13"/>
  <line x1="219" x2="544.5" y1="405" y2="405" class="net_13"/>
  <line x1="544.5" x2="544.5" y1="405" y2="240.5" class="net_13"/>
  <line x1="82" x2="109" y1="197.5" y2="197.5" class="net_5"/>
  <line x1="109" x2="109" y1="197.5" y2="445" class="net_5"/>
  <line x1="109" x2="188" y1="445" y2="445" class="net_5"/>
  <line x1="82" x2="99" y1="82.5" y2="82.5" class="net_9"/>
  <line x1="99" x2="99" y1="82.5" y2="485" class="net_9"/>
  <line x1="99" x2="188" y1="485" y2="485" class="net_9"/>
  <line x1="550" x2="585" y1="190" y2="190" class="net_10,11,12,13"/>
  <line x1="495" x2="512" y1="97.5" y2="97.5" class="net_10"/>
  <line x1="512" x2="512" y1="97.5" y2="180" class="net_10"/>
  <line x1="512" x2="544" y1="180" y2="180" class="net_10"/>
  <line x1="40" x2="77" y1="32.5" y2="32.5" class="net_6,7,8,9"/>
  <line x1="40" x2="77" y1="147.5" y2="147.5" class="net_2,3,4,5"/>
</svg>
