<svg xmlns="http://www.w3.org/2000/svg" xmlns:xlink="http://www.w3.org/1999/xlink" xmlns:s="https://github.com/nturley/netlistsvg" width="785" height="893.5">
  <style>svg {
    stroke:#000;
    fill:none;
  }
  text {
    fill:#000;
    stroke:none;
    font-size:10px;
    font-weight: bold;
    font-family: "Courier New", monospace;
  }
  .nodelabel {
    text-anchor: middle;
  }
  .inputPortLabel {
    text-anchor: end;
  }
  .splitjoinBody {
    fill:#000;
  }</style>
  <g s:type="and" transform="translate(222,163.5)" s:width="30" s:height="25" id="cell_$auto$aigmap.cc:123:execute$14">
    <s:alias val="$and"/>
    <s:alias val="$logic_and"/>
    <s:alias val="$_AND_"/>
    <path d="M0,0 L0,25 L15,25 A15 12.5 0 0 0 15,0 Z" class="cell_$auto$aigmap.cc:123:execute$14"/>
    <g s:x="0" s:y="5" s:pid="A"/>
    <g s:x="0" s:y="20" s:pid="B"/>
    <g s:x="30" s:y="12.5" s:pid="Y"/>
  </g>
  <g s:type="and" transform="translate(222,223.5)" s:width="30" s:height="25" id="cell_$auto$aigmap.cc:123:execute$18">
    <s:alias val="$and"/>
    <s:alias val="$logic_and"/>
    <s:alias val="$_AND_"/>
    <path d="M0,0 L0,25 L15,25 A15 12.5 0 0 0 15,0 Z" class="cell_$auto$aigmap.cc:123:execute$18"/>
    <g s:x="0" s:y="5" s:pid="A"/>
    <g s:x="0" s:y="20" s:pid="B"/>
    <g s:x="30" s:y="12.5" s:pid="Y"/>
  </g>
  <g s:type="and" transform="translate(367.3333333333333,216)" s:width="30" s:height="25" id="cell_$auto$aigmap.cc:123:execute$22">
    <s:alias val="$and"/>
    <s:alias val="$logic_and"/>
    <s:alias val="$_AND_"/>
    <path d="M0,0 L0,25 L15,25 A15 12.5 0 0 0 15,0 Z" class="cell_$auto$aigmap.cc:123:execute$22"/>
    <g s:x="0" s:y="5" s:pid="A"/>
    <g s:x="0" s:y="20" s:pid="B"/>
    <g s:x="30" s:y="12.5" s:pid="Y"/>
  </g>
  <g s:type="and" transform="translate(222,299.5)" s:width="30" s:height="25" id="cell_$auto$aigmap.cc:123:execute$30">
    <s:alias val="$and"/>
    <s:alias val="$logic_and"/>
    <s:alias val="$_AND_"/>
    <path d="M0,0 L0,25 L15,25 A15 12.5 0 0 0 15,0 Z" class="cell_$auto$aigmap.cc:123:execute$30"/>
    <g s:x="0" s:y="5" s:pid="A"/>
    <g s:x="0" s:y="20" s:pid="B"/>
    <g s:x="30" s:y="12.5" s:pid="Y"/>
  </g>
  <g s:type="and" transform="translate(222,359.5)" s:width="30" s:height="25" id="cell_$auto$aigmap.cc:123:execute$34">
    <s:alias val="$and"/>
    <s:alias val="$logic_and"/>
    <s:alias val="$_AND_"/>
    <path d="M0,0 L0,25 L15,25 A15 12.5 0 0 0 15,0 Z" class="cell_$auto$aigmap.cc:123:execute$34"/>
    <g s:x="0" s:y="5" s:pid="A"/>
    <g s:x="0" s:y="20" s:pid="B"/>
    <g s:x="30" s:y="12.5" s:pid="Y"/>
  </g>
  <g s:type="and" transform="translate(367.3333333333333,352)" s:width="30" s:height="25" id="cell_$auto$aigmap.cc:123:execute$38">
    <s:alias val="$and"/>
    <s:alias val="$logic_and"/>
    <s:alias val="$_AND_"/>
    <path d="M0,0 L0,25 L15,25 A15 12.5 0 0 0 15,0 Z" class="cell_$auto$aigmap.cc:123:execute$38"/>
    <g s:x="0" s:y="5" s:pid="A"/>
    <g s:x="0" s:y="20" s:pid="B"/>
    <g s:x="30" s:y="12.5" s:pid="Y"/>
  </g>
  <g s:type="and" transform="translate(551.3333333333334,344.5)" s:width="30" s:height="25" id="cell_$auto$aigmap.cc:123:execute$42">
    <s:alias val="$and"/>
    <s:alias val="$logic_and"/>
    <s:alias val="$_AND_"/>
    <path d="M0,0 L0,25 L15,25 A15 12.5 0 0 0 15,0 Z" class="cell_$auto$aigmap.cc:123:execute$42"/>
    <g s:x="0" s:y="5" s:pid="A"/>
    <g s:x="0" s:y="20" s:pid="B"/>
    <g s:x="30" s:y="12.5" s:pid="Y"/>
  </g>
  <g s:type="and" transform="translate(222,479.5)" s:width="30" s:height="25" id="cell_$auto$aigmap.cc:123:execute$48">
    <s:alias val="$and"/>
    <s:alias val="$logic_and"/>
    <s:alias val="$_AND_"/>
    <path d="M0,0 L0,25 L15,25 A15 12.5 0 0 0 15,0 Z" class="cell_$auto$aigmap.cc:123:execute$48"/>
    <g s:x="0" s:y="5" s:pid="A"/>
    <g s:x="0" s:y="20" s:pid="B"/>
    <g s:x="30" s:y="12.5" s:pid="Y"/>
  </g>
  <g s:type="and" transform="translate(222,539.5)" s:width="30" s:height="25" id="cell_$auto$aigmap.cc:123:execute$52">
    <s:alias val="$and"/>
    <s:alias val="$logic_and"/>
    <s:alias val="$_AND_"/>
    <path d="M0,0 L0,25 L15,25 A15 12.5 0 0 0 15,0 Z" class="cell_$auto$aigmap.cc:123:execute$52"/>
    <g s:x="0" s:y="5" s:pid="A"/>
    <g s:x="0" s:y="20" s:pid="B"/>
    <g s:x="30" s:y="12.5" s:pid="Y"/>
  </g>
  <g s:type="and" transform="translate(367.3333333333333,532)" s:width="30" s:height="25" id="cell_$auto$aigmap.cc:123:execute$56">
    <s:alias val="$and"/>
    <s:alias val="$logic_and"/>
    <s:alias val="$_AND_"/>
    <path d="M0,0 L0,25 L15,25 A15 12.5 0 0 0 15,0 Z" class="cell_$auto$aigmap.cc:123:execute$56"/>
    <g s:x="0" s:y="5" s:pid="A"/>
    <g s:x="0" s:y="20" s:pid="B"/>
    <g s:x="30" s:y="12.5" s:pid="Y"/>
  </g>
  <g s:type="and" transform="translate(222,615.5)" s:width="30" s:height="25" id="cell_$auto$aigmap.cc:123:execute$64">
    <s:alias val="$and"/>
    <s:alias val="$logic_and"/>
    <s:alias val="$_AND_"/>
    <path d="M0,0 L0,25 L15,25 A15 12.5 0 0 0 15,0 Z" class="cell_$auto$aigmap.cc:123:execute$64"/>
    <g s:x="0" s:y="5" s:pid="A"/>
    <g s:x="0" s:y="20" s:pid="B"/>
    <g s:x="30" s:y="12.5" s:pid="Y"/>
  </g>
  <g s:type="and" transform="translate(222,675.5)" s:width="30" s:height="25" id="cell_$auto$aigmap.cc:123:execute$68">
    <s:alias val="$and"/>
    <s:alias val="$logic_and"/>
    <s:alias val="$_AND_"/>
    <path d="M0,0 L0,25 L15,25 A15 12.5 0 0 0 15,0 Z" class="cell_$auto$aigmap.cc:123:execute$68"/>
    <g s:x="0" s:y="5" s:pid="A"/>
    <g s:x="0" s:y="20" s:pid="B"/>
    <g s:x="30" s:y="12.5" s:pid="Y"/>
  </g>
  <g s:type="and" transform="translate(367.3333333333333,668)" s:width="30" s:height="25" id="cell_$auto$aigmap.cc:123:execute$72">
    <s:alias val="$and"/>
    <s:alias val="$logic_and"/>
    <s:alias val="$_AND_"/>
    <path d="M0,0 L0,25 L15,25 A15 12.5 0 0 0 15,0 Z" class="cell_$auto$aigmap.cc:123:execute$72"/>
    <g s:x="0" s:y="5" s:pid="A"/>
    <g s:x="0" s:y="20" s:pid="B"/>
    <g s:x="30" s:y="12.5" s:pid="Y"/>
  </g>
  <g s:type="and" transform="translate(551.3333333333334,660.5)" s:width="30" s:height="25" id="cell_$auto$aigmap.cc:123:execute$76">
    <s:alias val="$and"/>
    <s:alias val="$logic_and"/>
    <s:alias val="$_AND_"/>
    <path d="M0,0 L0,25 L15,25 A15 12.5 0 0 0 15,0 Z" class="cell_$auto$aigmap.cc:123:execute$76"/>
    <g s:x="0" s:y="5" s:pid="A"/>
    <g s:x="0" s:y="20" s:pid="B"/>
    <g s:x="30" s:y="12.5" s:pid="Y"/>
  </g>
  <g s:type="and" transform="translate(222,751.5)" s:width="30" s:height="25" id="cell_$auto$aigmap.cc:123:execute$82">
    <s:alias val="$and"/>
    <s:alias val="$logic_and"/>
    <s:alias val="$_AND_"/>
    <path d="M0,0 L0,25 L15,25 A15 12.5 0 0 0 15,0 Z" class="cell_$auto$aigmap.cc:123:execute$82"/>
    <g s:x="0" s:y="5" s:pid="A"/>
    <g s:x="0" s:y="20" s:pid="B"/>
    <g s:x="30" s:y="12.5" s:pid="Y"/>
  </g>
  <g s:type="and" transform="translate(222,811.5)" s:width="30" s:height="25" id="cell_$auto$aigmap.cc:123:execute$86">
    <s:alias val="$and"/>
    <s:alias val="$logic_and"/>
    <s:alias val="$_AND_"/>
    <path d="M0,0 L0,25 L15,25 A15 12.5 0 0 0 15,0 Z" class="cell_$auto$aigmap.cc:123:execute$86"/>
    <g s:x="0" s:y="5" s:pid="A"/>
    <g s:x="0" s:y="20" s:pid="B"/>
    <g s:x="30" s:y="12.5" s:pid="Y"/>
  </g>
  <g s:type="and" transform="translate(367.3333333333333,804)" s:width="30" s:height="25" id="cell_$auto$aigmap.cc:123:execute$90">
    <s:alias val="$and"/>
    <s:alias val="$logic_and"/>
    <s:alias val="$_AND_"/>
    <path d="M0,0 L0,25 L15,25 A15 12.5 0 0 0 15,0 Z" class="cell_$auto$aigmap.cc:123:execute$90"/>
    <g s:x="0" s:y="5" s:pid="A"/>
    <g s:x="0" s:y="20" s:pid="B"/>
    <g s:x="30" s:y="12.5" s:pid="Y"/>
  </g>
  <g s:type="and" transform="translate(551.3333333333334,851.5)" s:width="30" s:height="25" id="cell_$auto$aigmap.cc:123:execute$96">
    <s:alias val="$and"/>
    <s:alias val="$logic_and"/>
    <s:alias val="$_AND_"/>
    <path d="M0,0 L0,25 L15,25 A15 12.5 0 0 0 15,0 Z" class="cell_$auto$aigmap.cc:123:execute$96"/>
    <g s:x="0" s:y="5" s:pid="A"/>
    <g s:x="0" s:y="20" s:pid="B"/>
    <g s:x="30" s:y="12.5" s:pid="Y"/>
  </g>
  <g s:type="not" transform="translate(157,118.5)" s:width="30" s:height="20" id="cell_$auto$aigmap.cc:132:execute$10">
    <s:alias val="$_NOT_"/>
    <s:alias val="$not"/>
    <s:alias val="$logic_not"/>
    <path d="M0,0 L0,20 L20,10 Z" class="cell_$auto$aigmap.cc:132:execute$10"/>
    <circle cx="23" cy="10" r="3" class="cell_$auto$aigmap.cc:132:execute$10"/>
    <g s:x="0" s:y="10" s:pid="A"/>
    <g s:x="25" s:y="10" s:pid="Y"/>
  </g>
  <g s:type="not" transform="translate(157,173.5)" s:width="30" s:height="20" id="cell_$auto$aigmap.cc:132:execute$12">
    <s:alias val="$_NOT_"/>
    <s:alias val="$not"/>
    <s:alias val="$logic_not"/>
    <path d="M0,0 L0,20 L20,10 Z" class="cell_$auto$aigmap.cc:132:execute$12"/>
    <circle cx="23" cy="10" r="3" class="cell_$auto$aigmap.cc:132:execute$12"/>
    <g s:x="0" s:y="10" s:pid="A"/>
    <g s:x="25" s:y="10" s:pid="Y"/>
  </g>
  <g s:type="not" transform="translate(287,166)" s:width="30" s:height="20" id="cell_$auto$aigmap.cc:132:execute$16">
    <s:alias val="$_NOT_"/>
    <s:alias val="$not"/>
    <s:alias val="$logic_not"/>
    <path d="M0,0 L0,20 L20,10 Z" class="cell_$auto$aigmap.cc:132:execute$16"/>
    <circle cx="23" cy="10" r="3" class="cell_$auto$aigmap.cc:132:execute$16"/>
    <g s:x="0" s:y="10" s:pid="A"/>
    <g s:x="25" s:y="10" s:pid="Y"/>
  </g>
  <g s:type="not" transform="translate(287,226)" s:width="30" s:height="20" id="cell_$auto$aigmap.cc:132:execute$20">
    <s:alias val="$_NOT_"/>
    <s:alias val="$not"/>
    <s:alias val="$logic_not"/>
    <path d="M0,0 L0,20 L20,10 Z" class="cell_$auto$aigmap.cc:132:execute$20"/>
    <circle cx="23" cy="10" r="3" class="cell_$auto$aigmap.cc:132:execute$20"/>
    <g s:x="0" s:y="10" s:pid="A"/>
    <g s:x="25" s:y="10" s:pid="Y"/>
  </g>
  <g s:type="not" transform="translate(457.5,218.5)" s:width="30" s:height="20" id="cell_$auto$aigmap.cc:132:execute$24">
    <s:alias val="$_NOT_"/>
    <s:alias val="$not"/>
    <s:alias val="$logic_not"/>
    <path d="M0,0 L0,20 L20,10 Z" class="cell_$auto$aigmap.cc:132:execute$24"/>
    <circle cx="23" cy="10" r="3" class="cell_$auto$aigmap.cc:132:execute$24"/>
    <g s:x="0" s:y="10" s:pid="A"/>
    <g s:x="25" s:y="10" s:pid="Y"/>
  </g>
  <g s:type="not" transform="translate(157,254.5)" s:width="30" s:height="20" id="cell_$auto$aigmap.cc:132:execute$26">
    <s:alias val="$_NOT_"/>
    <s:alias val="$not"/>
    <s:alias val="$logic_not"/>
    <path d="M0,0 L0,20 L20,10 Z" class="cell_$auto$aigmap.cc:132:execute$26"/>
    <circle cx="23" cy="10" r="3" class="cell_$auto$aigmap.cc:132:execute$26"/>
    <g s:x="0" s:y="10" s:pid="A"/>
    <g s:x="25" s:y="10" s:pid="Y"/>
  </g>
  <g s:type="not" transform="translate(157,309.5)" s:width="30" s:height="20" id="cell_$auto$aigmap.cc:132:execute$28">
    <s:alias val="$_NOT_"/>
    <s:alias val="$not"/>
    <s:alias val="$logic_not"/>
    <path d="M0,0 L0,20 L20,10 Z" class="cell_$auto$aigmap.cc:132:execute$28"/>
    <circle cx="23" cy="10" r="3" class="cell_$auto$aigmap.cc:132:execute$28"/>
    <g s:x="0" s:y="10" s:pid="A"/>
    <g s:x="25" s:y="10" s:pid="Y"/>
  </g>
  <g s:type="not" transform="translate(287,302)" s:width="30" s:height="20" id="cell_$auto$aigmap.cc:132:execute$32">
    <s:alias val="$_NOT_"/>
    <s:alias val="$not"/>
    <s:alias val="$logic_not"/>
    <path d="M0,0 L0,20 L20,10 Z" class="cell_$auto$aigmap.cc:132:execute$32"/>
    <circle cx="23" cy="10" r="3" class="cell_$auto$aigmap.cc:132:execute$32"/>
    <g s:x="0" s:y="10" s:pid="A"/>
    <g s:x="25" s:y="10" s:pid="Y"/>
  </g>
  <g s:type="not" transform="translate(287,362)" s:width="30" s:height="20" id="cell_$auto$aigmap.cc:132:execute$36">
    <s:alias val="$_NOT_"/>
    <s:alias val="$not"/>
    <s:alias val="$logic_not"/>
    <path d="M0,0 L0,20 L20,10 Z" class="cell_$auto$aigmap.cc:132:execute$36"/>
    <circle cx="23" cy="10" r="3" class="cell_$auto$aigmap.cc:132:execute$36"/>
    <g s:x="0" s:y="10" s:pid="A"/>
    <g s:x="25" s:y="10" s:pid="Y"/>
  </g>
  <g s:type="not" transform="translate(457.5,354.5)" s:width="30" s:height="20" id="cell_$auto$aigmap.cc:132:execute$40">
    <s:alias val="$_NOT_"/>
    <s:alias val="$not"/>
    <s:alias val="$logic_not"/>
    <path d="M0,0 L0,20 L20,10 Z" class="cell_$auto$aigmap.cc:132:execute$40"/>
    <circle cx="23" cy="10" r="3" class="cell_$auto$aigmap.cc:132:execute$40"/>
    <g s:x="0" s:y="10" s:pid="A"/>
    <g s:x="25" s:y="10" s:pid="Y"/>
  </g>
  <g s:type="not" transform="translate(157,434.5)" s:width="30" s:height="20" id="cell_$auto$aigmap.cc:132:execute$44">
    <s:alias val="$_NOT_"/>
    <s:alias val="$not"/>
    <s:alias val="$logic_not"/>
    <path d="M0,0 L0,20 L20,10 Z" class="cell_$auto$aigmap.cc:132:execute$44"/>
    <circle cx="23" cy="10" r="3" class="cell_$auto$aigmap.cc:132:execute$44"/>
    <g s:x="0" s:y="10" s:pid="A"/>
    <g s:x="25" s:y="10" s:pid="Y"/>
  </g>
  <g s:type="not" transform="translate(157,489.5)" s:width="30" s:height="20" id="cell_$auto$aigmap.cc:132:execute$46">
    <s:alias val="$_NOT_"/>
    <s:alias val="$not"/>
    <s:alias val="$logic_not"/>
    <path d="M0,0 L0,20 L20,10 Z" class="cell_$auto$aigmap.cc:132:execute$46"/>
    <circle cx="23" cy="10" r="3" class="cell_$auto$aigmap.cc:132:execute$46"/>
    <g s:x="0" s:y="10" s:pid="A"/>
    <g s:x="25" s:y="10" s:pid="Y"/>
  </g>
  <g s:type="not" transform="translate(287,482)" s:width="30" s:height="20" id="cell_$auto$aigmap.cc:132:execute$50">
    <s:alias val="$_NOT_"/>
    <s:alias val="$not"/>
    <s:alias val="$logic_not"/>
    <path d="M0,0 L0,20 L20,10 Z" class="cell_$auto$aigmap.cc:132:execute$50"/>
    <circle cx="23" cy="10" r="3" class="cell_$auto$aigmap.cc:132:execute$50"/>
    <g s:x="0" s:y="10" s:pid="A"/>
    <g s:x="25" s:y="10" s:pid="Y"/>
  </g>
  <g s:type="not" transform="translate(287,542)" s:width="30" s:height="20" id="cell_$auto$aigmap.cc:132:execute$54">
    <s:alias val="$_NOT_"/>
    <s:alias val="$not"/>
    <s:alias val="$logic_not"/>
    <path d="M0,0 L0,20 L20,10 Z" class="cell_$auto$aigmap.cc:132:execute$54"/>
    <circle cx="23" cy="10" r="3" class="cell_$auto$aigmap.cc:132:execute$54"/>
    <g s:x="0" s:y="10" s:pid="A"/>
    <g s:x="25" s:y="10" s:pid="Y"/>
  </g>
  <g s:type="not" transform="translate(457.5,534.5)" s:width="30" s:height="20" id="cell_$auto$aigmap.cc:132:execute$58">
    <s:alias val="$_NOT_"/>
    <s:alias val="$not"/>
    <s:alias val="$logic_not"/>
    <path d="M0,0 L0,20 L20,10 Z" class="cell_$auto$aigmap.cc:132:execute$58"/>
    <circle cx="23" cy="10" r="3" class="cell_$auto$aigmap.cc:132:execute$58"/>
    <g s:x="0" s:y="10" s:pid="A"/>
    <g s:x="25" s:y="10" s:pid="Y"/>
  </g>
  <g s:type="not" transform="translate(157,570.5)" s:width="30" s:height="20" id="cell_$auto$aigmap.cc:132:execute$60">
    <s:alias val="$_NOT_"/>
    <s:alias val="$not"/>
    <s:alias val="$logic_not"/>
    <path d="M0,0 L0,20 L20,10 Z" class="cell_$auto$aigmap.cc:132:execute$60"/>
    <circle cx="23" cy="10" r="3" class="cell_$auto$aigmap.cc:132:execute$60"/>
    <g s:x="0" s:y="10" s:pid="A"/>
    <g s:x="25" s:y="10" s:pid="Y"/>
  </g>
  <g s:type="not" transform="translate(157,625.5)" s:width="30" s:height="20" id="cell_$auto$aigmap.cc:132:execute$62">
    <s:alias val="$_NOT_"/>
    <s:alias val="$not"/>
    <s:alias val="$logic_not"/>
    <path d="M0,0 L0,20 L20,10 Z" class="cell_$auto$aigmap.cc:132:execute$62"/>
    <circle cx="23" cy="10" r="3" class="cell_$auto$aigmap.cc:132:execute$62"/>
    <g s:x="0" s:y="10" s:pid="A"/>
    <g s:x="25" s:y="10" s:pid="Y"/>
  </g>
  <g s:type="not" transform="translate(287,618)" s:width="30" s:height="20" id="cell_$auto$aigmap.cc:132:execute$66">
    <s:alias val="$_NOT_"/>
    <s:alias val="$not"/>
    <s:alias val="$logic_not"/>
    <path d="M0,0 L0,20 L20,10 Z" class="cell_$auto$aigmap.cc:132:execute$66"/>
    <circle cx="23" cy="10" r="3" class="cell_$auto$aigmap.cc:132:execute$66"/>
    <g s:x="0" s:y="10" s:pid="A"/>
    <g s:x="25" s:y="10" s:pid="Y"/>
  </g>
  <g s:type="not" transform="translate(287,678)" s:width="30" s:height="20" id="cell_$auto$aigmap.cc:132:execute$70">
    <s:alias val="$_NOT_"/>
    <s:alias val="$not"/>
    <s:alias val="$logic_not"/>
    <path d="M0,0 L0,20 L20,10 Z" class="cell_$auto$aigmap.cc:132:execute$70"/>
    <circle cx="23" cy="10" r="3" class="cell_$auto$aigmap.cc:132:execute$70"/>
    <g s:x="0" s:y="10" s:pid="A"/>
    <g s:x="25" s:y="10" s:pid="Y"/>
  </g>
  <g s:type="not" transform="translate(457.5,670.5)" s:width="30" s:height="20" id="cell_$auto$aigmap.cc:132:execute$74">
    <s:alias val="$_NOT_"/>
    <s:alias val="$not"/>
    <s:alias val="$logic_not"/>
    <path d="M0,0 L0,20 L20,10 Z" class="cell_$auto$aigmap.cc:132:execute$74"/>
    <circle cx="23" cy="10" r="3" class="cell_$auto$aigmap.cc:132:execute$74"/>
    <g s:x="0" s:y="10" s:pid="A"/>
    <g s:x="25" s:y="10" s:pid="Y"/>
  </g>
  <g s:type="not" transform="translate(157,706.5)" s:width="30" s:height="20" id="cell_$auto$aigmap.cc:132:execute$78">
    <s:alias val="$_NOT_"/>
    <s:alias val="$not"/>
    <s:alias val="$logic_not"/>
    <path d="M0,0 L0,20 L20,10 Z" class="cell_$auto$aigmap.cc:132:execute$78"/>
    <circle cx="23" cy="10" r="3" class="cell_$auto$aigmap.cc:132:execute$78"/>
    <g s:x="0" s:y="10" s:pid="A"/>
    <g s:x="25" s:y="10" s:pid="Y"/>
  </g>
  <g s:type="not" transform="translate(157,761.5)" s:width="30" s:height="20" id="cell_$auto$aigmap.cc:132:execute$80">
    <s:alias val="$_NOT_"/>
    <s:alias val="$not"/>
    <s:alias val="$logic_not"/>
    <path d="M0,0 L0,20 L20,10 Z" class="cell_$auto$aigmap.cc:132:execute$80"/>
    <circle cx="23" cy="10" r="3" class="cell_$auto$aigmap.cc:132:execute$80"/>
    <g s:x="0" s:y="10" s:pid="A"/>
    <g s:x="25" s:y="10" s:pid="Y"/>
  </g>
  <g s:type="not" transform="translate(287,754)" s:width="30" s:height="20" id="cell_$auto$aigmap.cc:132:execute$84">
    <s:alias val="$_NOT_"/>
    <s:alias val="$not"/>
    <s:alias val="$logic_not"/>
    <path d="M0,0 L0,20 L20,10 Z" class="cell_$auto$aigmap.cc:132:execute$84"/>
    <circle cx="23" cy="10" r="3" class="cell_$auto$aigmap.cc:132:execute$84"/>
    <g s:x="0" s:y="10" s:pid="A"/>
    <g s:x="25" s:y="10" s:pid="Y"/>
  </g>
  <g s:type="not" transform="translate(287,814)" s:width="30" s:height="20" id="cell_$auto$aigmap.cc:132:execute$88">
    <s:alias val="$_NOT_"/>
    <s:alias val="$not"/>
    <s:alias val="$logic_not"/>
    <path d="M0,0 L0,20 L20,10 Z" class="cell_$auto$aigmap.cc:132:execute$88"/>
    <circle cx="23" cy="10" r="3" class="cell_$auto$aigmap.cc:132:execute$88"/>
    <g s:x="0" s:y="10" s:pid="A"/>
    <g s:x="25" s:y="10" s:pid="Y"/>
  </g>
  <g s:type="not" transform="translate(457.5,806.5)" s:width="30" s:height="20" id="cell_$auto$aigmap.cc:132:execute$92">
    <s:alias val="$_NOT_"/>
    <s:alias val="$not"/>
    <s:alias val="$logic_not"/>
    <path d="M0,0 L0,20 L20,10 Z" class="cell_$auto$aigmap.cc:132:execute$92"/>
    <circle cx="23" cy="10" r="3" class="cell_$auto$aigmap.cc:132:execute$92"/>
    <g s:x="0" s:y="10" s:pid="A"/>
    <g s:x="25" s:y="10" s:pid="Y"/>
  </g>
  <g s:type="not" transform="translate(457.5,861.5)" s:width="30" s:height="20" id="cell_$auto$aigmap.cc:132:execute$94">
    <s:alias val="$_NOT_"/>
    <s:alias val="$not"/>
    <s:alias val="$logic_not"/>
    <path d="M0,0 L0,20 L20,10 Z" class="cell_$auto$aigmap.cc:132:execute$94"/>
    <circle cx="23" cy="10" r="3" class="cell_$auto$aigmap.cc:132:execute$94"/>
    <g s:x="0" s:y="10" s:pid="A"/>
    <g s:x="25" s:y="10" s:pid="Y"/>
  </g>
  <g s:type="mux" transform="translate(688,88.5)" s:width="20" s:height="40" id="cell_$procmux$4">
    <s:alias val="$pmux"/>
    <s:alias val="$mux"/>
    <s:alias val="$_MUX_"/>
    <path d="M0,0 L20,10 L20,30 L0,40 Z" class="cell_$procmux$4"/>
    <g s:x="0" s:y="10" s:pid="A"/>
    <g s:x="0" s:y="30" s:pid="B"/>
    <g s:x="10" s:y="35" s:pid="S"/>
    <g s:x="20" s:y="20" s:pid="Y"/>
  </g>
  <g s:type="generic" transform="translate(371,138)" s:width="30" s:height="40" id="cell_m1">
    <text x="15" y="-4" class="nodelabel cell_m1" s:attribute="ref">my_dff8</text>
    <rect width="30" height="40" s:generic="body" class="cell_m1"/>
    <g transform="translate(0,10)" s:x="0" s:y="10" s:pid="in0" id="port_m1~clk">
      <text x="-3" y="-4" class="inputPortLabel cell_m1">clk</text>
    </g>
    <g transform="translate(0,30)" s:x="0" s:y="10" s:pid="in0" id="port_m1~d">
      <text x="-3" y="-4" class="inputPortLabel cell_m1">d</text>
    </g>
    <g transform="translate(30,10)" s:x="30" s:y="10" s:pid="out0" id="port_m1~q">
      <text x="5" y="-4" style="fill:#000; stroke:none" class="cell_m1">q</text>
    </g>
  </g>
  <g s:type="generic" transform="translate(463,95.5)" s:width="30" s:height="40" id="cell_m2">
    <text x="15" y="-4" class="nodelabel cell_m2" s:attribute="ref">my_dff8</text>
    <rect width="30" height="40" s:generic="body" class="cell_m2"/>
    <g transform="translate(0,10)" s:x="0" s:y="10" s:pid="in0" id="port_m2~clk">
      <text x="-3" y="-4" class="inputPortLabel cell_m2">clk</text>
    </g>
    <g transform="translate(0,30)" s:x="0" s:y="10" s:pid="in0" id="port_m2~d">
      <text x="-3" y="-4" class="inputPortLabel cell_m2">d</text>
    </g>
    <g transform="translate(30,10)" s:x="30" s:y="10" s:pid="out0" id="port_m2~q">
      <text x="5" y="-4" style="fill:#000; stroke:none" class="cell_m2">q</text>
    </g>
  </g>
  <g s:type="generic" transform="translate(555,53)" s:width="30" s:height="40" id="cell_m3">
    <text x="15" y="-4" class="nodelabel cell_m3" s:attribute="ref">my_dff8</text>
    <rect width="30" height="40" s:generic="body" class="cell_m3"/>
    <g transform="translate(0,10)" s:x="0" s:y="10" s:pid="in0" id="port_m3~clk">
      <text x="-3" y="-4" class="inputPortLabel cell_m3">clk</text>
    </g>
    <g transform="translate(0,30)" s:x="0" s:y="10" s:pid="in0" id="port_m3~d">
      <text x="-3" y="-4" class="inputPortLabel cell_m3">d</text>
    </g>
    <g transform="translate(30,10)" s:x="30" s:y="10" s:pid="out0" id="port_m3~q">
      <text x="5" y="-4" style="fill:#000; stroke:none" class="cell_m3">q</text>
    </g>
  </g>
  <g s:type="inputExt" transform="translate(287,96)" s:width="30" s:height="20" id="cell_clk">
    <text x="15" y="-4" class="nodelabel cell_clk" s:attribute="ref">clk</text>
    <s:alias val="$_inputExt_"/>
    <path d="M0,0 L0,20 L15,20 L30,10 L15,0 Z" class="cell_clk"/>
    <g s:x="28" s:y="10" s:pid="Y"/>
  </g>
  <g s:type="inputExt" transform="translate(287,22)" s:width="30" s:height="20" id="cell_d">
    <text x="15" y="-4" class="nodelabel cell_d" s:attribute="ref">d</text>
    <s:alias val="$_inputExt_"/>
    <path d="M0,0 L0,20 L15,20 L30,10 L15,0 Z" class="cell_d"/>
    <g s:x="28" s:y="10" s:pid="Y"/>
  </g>
  <g s:type="inputExt" transform="translate(12,544.5)" s:width="30" s:height="20" id="cell_sel">
    <text x="15" y="-4" class="nodelabel cell_sel" s:attribute="ref">sel</text>
    <s:alias val="$_inputExt_"/>
    <path d="M0,0 L0,20 L15,20 L30,10 L15,0 Z" class="cell_sel"/>
    <g s:x="28" s:y="10" s:pid="Y"/>
  </g>
  <g s:type="outputExt" transform="translate(743,98.5)" s:width="30" s:height="20" id="cell_q">
    <text x="15" y="-4" class="nodelabel cell_q" s:attribute="ref">q</text>
    <s:alias val="$_outputExt_"/>
    <path d="M30,0 L30,20 L15,20 L0,10 L15,0 Z" class="cell_q"/>
    <g s:x="0" s:y="10" s:pid="A"/>
  </g>
  <g s:type="constant" transform="translate(77,369.5)" s:width="30" s:height="20" id="cell_1">
    <text x="15" y="-4" class="nodelabel cell_1" s:attribute="ref">1</text>
    <s:alias val="$_constant_"/>
    <rect width="30" height="20" class="cell_1"/>
    <g s:x="30" s:y="10" s:pid="Y"/>
  </g>
  <g s:type="constant" transform="translate(77,434.5)" s:width="30" s:height="20" id="cell_0">
    <text x="15" y="-4" class="nodelabel cell_0" s:attribute="ref">0</text>
    <s:alias val="$_constant_"/>
    <rect width="30" height="20" class="cell_0"/>
    <g s:x="30" s:y="10" s:pid="Y"/>
  </g>
  <g s:type="join" transform="translate(647,98)" s:width="4" s:height="40" id="cell_$join$,65,66,67,68,69,70,71,72,73,74,75,76,77,78,79,80,81,82,83,84,85,86,87,88,">
    <rect width="5" height="60" class="splitjoinBody" s:generic="body"/>
    <s:alias val="$_join_"/>
    <g s:x="5" s:y="20" s:pid="out"/>
    <g transform="translate(0,10)" s:x="0" s:y="10" s:pid="in0">
      <text x="-3" y="-4" class="inputPortLabel">0:7</text>
    </g>
    <g transform="translate(0,30)" s:x="0" s:y="10" s:pid="in0">
      <text x="-3" y="-4" class="inputPortLabel">8:15</text>
    </g>
    <g transform="translate(0,50)" s:x="0" s:y="10" s:pid="in0">
      <text x="-3" y="-4" class="inputPortLabel">16:23</text>
    </g>
  </g>
  <g s:type="join" transform="translate(642.75,813.5)" s:width="4" s:height="40" id="cell_$join$,37,54,64,">
    <rect width="5" height="60" class="splitjoinBody" s:generic="body"/>
    <s:alias val="$_join_"/>
    <g s:x="5" s:y="20" s:pid="out"/>
    <g transform="translate(0,10)" s:x="0" s:y="10" s:pid="in0">
      <text x="-3" y="-4" class="inputPortLabel">0</text>
    </g>
    <g transform="translate(0,30)" s:x="0" s:y="10" s:pid="in0">
      <text x="-3" y="-4" class="inputPortLabel">1</text>
    </g>
    <g transform="translate(0,50)" s:x="0" s:y="10" s:pid="in0">
      <text x="-3" y="-4" class="inputPortLabel">2</text>
    </g>
  </g>
  <g s:type="split" transform="translate(91.33333333333333,534)" s:width="5" s:height="40" id="cell_$split$,11,12,">
    <rect width="5" height="40" class="splitjoinBody" s:generic="body"/>
    <s:alias val="$_split_"/>
    <g s:x="0" s:y="20" s:pid="in"/>
    <g transform="translate(4,10)" s:x="4" s:y="10" s:pid="out0">
      <text x="5" y="-4">0</text>
    </g>
    <g transform="translate(4,30)" s:x="4" s:y="10" s:pid="out0">
      <text x="5" y="-4">1</text>
    </g>
  </g>
  <line x1="182" x2="197" y1="128.5" y2="128.5" class="net_21"/>
  <line x1="197" x2="197" y1="128.5" y2="168.5" class="net_21"/>
  <line x1="197" x2="222" y1="168.5" y2="168.5" class="net_21"/>
  <line x1="182" x2="222" y1="183.5" y2="183.5" class="net_22"/>
  <line x1="96.33333333333333" x2="137" y1="544.5" y2="544.5" class="net_11"/>
  <line x1="137" x2="137" y1="544.5" y2="228.5" class="net_11"/>
  <circle cx="137" cy="544.5" r="2" style="fill:#000" class="net_11"/>
  <circle cx="137" cy="228.5" r="2" style="fill:#000" class="net_11"/>
  <line x1="137" x2="222" y1="228.5" y2="228.5" class="net_11"/>
  <line x1="96.33333333333333" x2="222" y1="544.5" y2="544.5" class="net_11"/>
  <line x1="96.33333333333333" x2="137" y1="544.5" y2="544.5" class="net_11"/>
  <line x1="137" x2="137" y1="544.5" y2="816.5" class="net_11"/>
  <line x1="137" x2="222" y1="816.5" y2="816.5" class="net_11"/>
  <line x1="96.33333333333333" x2="137" y1="544.5" y2="544.5" class="net_11"/>
  <line x1="137" x2="137" y1="544.5" y2="183.5" class="net_11"/>
  <line x1="137" x2="157" y1="183.5" y2="183.5" class="net_11"/>
  <line x1="96.33333333333333" x2="137" y1="544.5" y2="544.5" class="net_11"/>
  <line x1="137" x2="137" y1="544.5" y2="499.5" class="net_11"/>
  <circle cx="137" cy="499.5" r="2" style="fill:#000" class="net_11"/>
  <line x1="137" x2="157" y1="499.5" y2="499.5" class="net_11"/>
  <line x1="96.33333333333333" x2="137" y1="544.5" y2="544.5" class="net_11"/>
  <line x1="137" x2="137" y1="544.5" y2="771.5" class="net_11"/>
  <circle cx="137" cy="771.5" r="2" style="fill:#000" class="net_11"/>
  <line x1="137" x2="157" y1="771.5" y2="771.5" class="net_11"/>
  <line x1="107" x2="127" y1="379.5" y2="379.5" class="net_89"/>
  <line x1="127" x2="127" y1="379.5" y2="243.5" class="net_89"/>
  <circle cx="127" cy="379.5" r="2" style="fill:#000" class="net_89"/>
  <circle cx="127" cy="243.5" r="2" style="fill:#000" class="net_89"/>
  <line x1="127" x2="222" y1="243.5" y2="243.5" class="net_89"/>
  <line x1="107" x2="222" y1="379.5" y2="379.5" class="net_89"/>
  <line x1="107" x2="127" y1="379.5" y2="379.5" class="net_89"/>
  <line x1="127" x2="127" y1="379.5" y2="695.5" class="net_89"/>
  <circle cx="127" cy="695.5" r="2" style="fill:#000" class="net_89"/>
  <line x1="127" x2="222" y1="695.5" y2="695.5" class="net_89"/>
  <line x1="107" x2="127" y1="379.5" y2="379.5" class="net_89"/>
  <line x1="127" x2="127" y1="379.5" y2="831.5" class="net_89"/>
  <line x1="127" x2="222" y1="831.5" y2="831.5" class="net_89"/>
  <line x1="107" x2="127" y1="379.5" y2="379.5" class="net_89"/>
  <line x1="127" x2="127" y1="379.5" y2="128.5" class="net_89"/>
  <line x1="127" x2="157" y1="128.5" y2="128.5" class="net_89"/>
  <line x1="107" x2="127" y1="379.5" y2="379.5" class="net_89"/>
  <line x1="127" x2="127" y1="379.5" y2="264.5" class="net_89"/>
  <circle cx="127" cy="264.5" r="2" style="fill:#000" class="net_89"/>
  <line x1="127" x2="157" y1="264.5" y2="264.5" class="net_89"/>
  <line x1="107" x2="127" y1="379.5" y2="379.5" class="net_89"/>
  <line x1="127" x2="127" y1="379.5" y2="580.5" class="net_89"/>
  <circle cx="127" cy="580.5" r="2" style="fill:#000" class="net_89"/>
  <line x1="127" x2="157" y1="580.5" y2="580.5" class="net_89"/>
  <line x1="107" x2="127" y1="379.5" y2="379.5" class="net_89"/>
  <line x1="127" x2="127" y1="379.5" y2="716.5" class="net_89"/>
  <circle cx="127" cy="716.5" r="2" style="fill:#000" class="net_89"/>
  <line x1="127" x2="157" y1="716.5" y2="716.5" class="net_89"/>
  <line x1="312" x2="327" y1="176" y2="176" class="net_25"/>
  <line x1="327" x2="327" y1="176" y2="221" class="net_25"/>
  <line x1="327" x2="367.3333333333333" y1="221" y2="221" class="net_25"/>
  <line x1="312" x2="367.3333333333333" y1="236" y2="236" class="net_26"/>
  <line x1="182" x2="197" y1="264.5" y2="264.5" class="net_28"/>
  <line x1="197" x2="197" y1="264.5" y2="304.5" class="net_28"/>
  <line x1="197" x2="222" y1="304.5" y2="304.5" class="net_28"/>
  <line x1="182" x2="222" y1="319.5" y2="319.5" class="net_29"/>
  <line x1="96.33333333333333" x2="117" y1="564.5" y2="564.5" class="net_12"/>
  <line x1="117" x2="117" y1="564.5" y2="364.5" class="net_12"/>
  <circle cx="117" cy="564.5" r="2" style="fill:#000" class="net_12"/>
  <circle cx="117" cy="364.5" r="2" style="fill:#000" class="net_12"/>
  <line x1="117" x2="222" y1="364.5" y2="364.5" class="net_12"/>
  <line x1="96.33333333333333" x2="117" y1="564.5" y2="564.5" class="net_12"/>
  <line x1="117" x2="117" y1="564.5" y2="680.5" class="net_12"/>
  <circle cx="117" cy="680.5" r="2" style="fill:#000" class="net_12"/>
  <line x1="117" x2="222" y1="680.5" y2="680.5" class="net_12"/>
  <line x1="96.33333333333333" x2="117" y1="564.5" y2="564.5" class="net_12"/>
  <line x1="117" x2="117" y1="564.5" y2="319.5" class="net_12"/>
  <line x1="117" x2="157" y1="319.5" y2="319.5" class="net_12"/>
  <line x1="96.33333333333333" x2="117" y1="564.5" y2="564.5" class="net_12"/>
  <line x1="117" x2="117" y1="564.5" y2="635.5" class="net_12"/>
  <circle cx="117" cy="635.5" r="2" style="fill:#000" class="net_12"/>
  <line x1="117" x2="157" y1="635.5" y2="635.5" class="net_12"/>
  <line x1="96.33333333333333" x2="117" y1="564.5" y2="564.5" class="net_12"/>
  <line x1="117" x2="117" y1="564.5" y2="871.5" class="net_12"/>
  <line x1="117" x2="457.5" y1="871.5" y2="871.5" class="net_12"/>
  <line x1="312" x2="327" y1="312" y2="312" class="net_32"/>
  <line x1="327" x2="327" y1="312" y2="357" class="net_32"/>
  <line x1="327" x2="367.3333333333333" y1="357" y2="357" class="net_32"/>
  <line x1="312" x2="367.3333333333333" y1="372" y2="372" class="net_33"/>
  <line x1="482.5" x2="511" y1="228.5" y2="228.5" class="net_35"/>
  <line x1="511" x2="511" y1="228.5" y2="349.5" class="net_35"/>
  <line x1="511" x2="551.3333333333334" y1="349.5" y2="349.5" class="net_35"/>
  <line x1="482.5" x2="551.3333333333334" y1="364.5" y2="364.5" class="net_36"/>
  <line x1="182" x2="197" y1="444.5" y2="444.5" class="net_38"/>
  <line x1="197" x2="197" y1="444.5" y2="484.5" class="net_38"/>
  <line x1="197" x2="222" y1="484.5" y2="484.5" class="net_38"/>
  <line x1="182" x2="222" y1="499.5" y2="499.5" class="net_39"/>
  <line x1="107" x2="147" y1="444.5" y2="444.5" class="net_91"/>
  <line x1="147" x2="147" y1="444.5" y2="559.5" class="net_91"/>
  <circle cx="147" cy="444.5" r="2" style="fill:#000" class="net_91"/>
  <line x1="147" x2="222" y1="559.5" y2="559.5" class="net_91"/>
  <line x1="107" x2="157" y1="444.5" y2="444.5" class="net_91"/>
  <line x1="312" x2="327" y1="492" y2="492" class="net_42"/>
  <line x1="327" x2="327" y1="492" y2="537" class="net_42"/>
  <line x1="327" x2="367.3333333333333" y1="537" y2="537" class="net_42"/>
  <line x1="312" x2="367.3333333333333" y1="552" y2="552" class="net_43"/>
  <line x1="182" x2="197" y1="580.5" y2="580.5" class="net_45"/>
  <line x1="197" x2="197" y1="580.5" y2="620.5" class="net_45"/>
  <line x1="197" x2="222" y1="620.5" y2="620.5" class="net_45"/>
  <line x1="182" x2="222" y1="635.5" y2="635.5" class="net_46"/>
  <line x1="312" x2="327" y1="628" y2="628" class="net_49"/>
  <line x1="327" x2="327" y1="628" y2="673" class="net_49"/>
  <line x1="327" x2="367.3333333333333" y1="673" y2="673" class="net_49"/>
  <line x1="312" x2="367.3333333333333" y1="688" y2="688" class="net_50"/>
  <line x1="482.5" x2="511" y1="544.5" y2="544.5" class="net_52"/>
  <line x1="511" x2="511" y1="544.5" y2="665.5" class="net_52"/>
  <line x1="511" x2="551.3333333333334" y1="665.5" y2="665.5" class="net_52"/>
  <line x1="482.5" x2="551.3333333333334" y1="680.5" y2="680.5" class="net_53"/>
  <line x1="182" x2="197" y1="716.5" y2="716.5" class="net_55"/>
  <line x1="197" x2="197" y1="716.5" y2="756.5" class="net_55"/>
  <line x1="197" x2="222" y1="756.5" y2="756.5" class="net_55"/>
  <line x1="182" x2="222" y1="771.5" y2="771.5" class="net_56"/>
  <line x1="312" x2="327" y1="764" y2="764" class="net_59"/>
  <line x1="327" x2="327" y1="764" y2="809" class="net_59"/>
  <line x1="327" x2="367.3333333333333" y1="809" y2="809" class="net_59"/>
  <line x1="312" x2="367.3333333333333" y1="824" y2="824" class="net_60"/>
  <line x1="482.5" x2="511" y1="816.5" y2="816.5" class="net_62"/>
  <line x1="511" x2="511" y1="816.5" y2="856.5" class="net_62"/>
  <line x1="511" x2="551.3333333333334" y1="856.5" y2="856.5" class="net_62"/>
  <line x1="482.5" x2="551.3333333333334" y1="871.5" y2="871.5" class="net_63"/>
  <line x1="252" x2="287" y1="176" y2="176" class="net_23"/>
  <line x1="252" x2="287" y1="236" y2="236" class="net_24"/>
  <line x1="397.3333333333333" x2="457.5" y1="228.5" y2="228.5" class="net_27"/>
  <line x1="252" x2="287" y1="312" y2="312" class="net_30"/>
  <line x1="252" x2="287" y1="372" y2="372" class="net_31"/>
  <line x1="397.3333333333333" x2="457.5" y1="364.5" y2="364.5" class="net_34"/>
  <line x1="252" x2="287" y1="492" y2="492" class="net_40"/>
  <line x1="252" x2="287" y1="552" y2="552" class="net_41"/>
  <line x1="397.3333333333333" x2="457.5" y1="544.5" y2="544.5" class="net_44"/>
  <line x1="252" x2="287" y1="628" y2="628" class="net_47"/>
  <line x1="252" x2="287" y1="688" y2="688" class="net_48"/>
  <line x1="397.3333333333333" x2="457.5" y1="680.5" y2="680.5" class="net_51"/>
  <line x1="252" x2="287" y1="764" y2="764" class="net_57"/>
  <line x1="252" x2="287" y1="824" y2="824" class="net_58"/>
  <line x1="397.3333333333333" x2="457.5" y1="816.5" y2="816.5" class="net_61"/>
  <line x1="315" x2="663" y1="32" y2="32" class="net_3,4,5,6,7,8,9,10"/>
  <line x1="663" x2="663" y1="32" y2="98.5" class="net_3,4,5,6,7,8,9,10"/>
  <line x1="663" x2="688" y1="98.5" y2="98.5" class="net_3,4,5,6,7,8,9,10"/>
  <line x1="315" x2="327" y1="32" y2="32" class="net_3,4,5,6,7,8,9,10"/>
  <line x1="327" x2="327" y1="32" y2="168.5" class="net_3,4,5,6,7,8,9,10"/>
  <circle cx="327" cy="32" r="2" style="fill:#000" class="net_3,4,5,6,7,8,9,10"/>
  <line x1="327" x2="371" y1="168.5" y2="168.5" class="net_3,4,5,6,7,8,9,10"/>
  <line x1="653" x2="688" y1="118.5" y2="118.5" class="net_65,66,67,68,69,70,71,72,73,74,75,76,77,78,79,80,81,82,83,84,85,86,87,88"/>
  <line x1="648.75" x2="698" y1="834" y2="834" class="net_37,54,64"/>
  <line x1="698" x2="698" y1="834" y2="123.5" class="net_37,54,64"/>
  <line x1="315" x2="337" y1="106" y2="106" class="net_2"/>
  <line x1="337" x2="337" y1="106" y2="148.5" class="net_2"/>
  <circle cx="337" cy="106" r="2" style="fill:#000" class="net_2"/>
  <line x1="337" x2="371" y1="148.5" y2="148.5" class="net_2"/>
  <line x1="315" x2="463" y1="106" y2="106" class="net_2"/>
  <line x1="315" x2="419" y1="106" y2="106" class="net_2"/>
  <line x1="419" x2="419" y1="106" y2="63.5" class="net_2"/>
  <circle cx="419" cy="106" r="2" style="fill:#000" class="net_2"/>
  <line x1="419" x2="555" y1="63.5" y2="63.5" class="net_2"/>
  <line x1="402" x2="419" y1="148.5" y2="148.5" class="net_81,82,83,84,85,86,87,88"/>
  <line x1="419" x2="419" y1="148.5" y2="126" class="net_81,82,83,84,85,86,87,88"/>
  <circle cx="419" cy="148.5" r="2" style="fill:#000" class="net_81,82,83,84,85,86,87,88"/>
  <line x1="419" x2="463" y1="126" y2="126" class="net_81,82,83,84,85,86,87,88"/>
  <line x1="402" x2="647" y1="148.5" y2="148.5" class="net_81,82,83,84,85,86,87,88"/>
  <line x1="494" x2="511" y1="106" y2="106" class="net_73,74,75,76,77,78,79,80"/>
  <line x1="511" x2="511" y1="106" y2="83.5" class="net_73,74,75,76,77,78,79,80"/>
  <circle cx="511" cy="106" r="2" style="fill:#000" class="net_73,74,75,76,77,78,79,80"/>
  <line x1="511" x2="555" y1="83.5" y2="83.5" class="net_73,74,75,76,77,78,79,80"/>
  <line x1="494" x2="603" y1="106" y2="106" class="net_73,74,75,76,77,78,79,80"/>
  <line x1="603" x2="603" y1="106" y2="128.5" class="net_73,74,75,76,77,78,79,80"/>
  <line x1="603" x2="647" y1="128.5" y2="128.5" class="net_73,74,75,76,77,78,79,80"/>
  <line x1="708" x2="743" y1="108.5" y2="108.5" class="net_13,14,15,16,17,18,19,20"/>
  <line x1="586" x2="613" y1="63.5" y2="63.5" class="net_65,66,67,68,69,70,71,72"/>
  <line x1="613" x2="613" y1="63.5" y2="108.5" class="net_65,66,67,68,69,70,71,72"/>
  <line x1="613" x2="647" y1="108.5" y2="108.5" class="net_65,66,67,68,69,70,71,72"/>
  <line x1="581.3333333333334" x2="613" y1="357" y2="357" class="net_37"/>
  <line x1="613" x2="613" y1="357" y2="824" class="net_37"/>
  <line x1="613" x2="642.75" y1="824" y2="824" class="net_37"/>
  <line x1="581.3333333333334" x2="603" y1="673" y2="673" class="net_54"/>
  <line x1="603" x2="603" y1="673" y2="844" class="net_54"/>
  <line x1="603" x2="642.75" y1="844" y2="844" class="net_54"/>
  <line x1="581.3333333333334" x2="642.75" y1="864" y2="864" class="net_64"/>
  <line x1="40" x2="91.33333333333333" y1="554.5" y2="554.5" class="net_11,12"/>
</svg>
