<?xml version="1.0" encoding="UTF-8" standalone="no"?>
<!DOCTYPE svg PUBLIC "-//W3C//DTD SVG 1.1//EN"
 "http://www.w3.org/Graphics/SVG/1.1/DTD/svg11.dtd">
<!-- Generated by graphviz version 4.0.0 (20220529.0937)
 -->
<!-- Title: my_dff8 Pages: 1 -->
<svg width="347pt" height="121pt"
 viewBox="0.00 0.00 347.00 121.00" xmlns="http://www.w3.org/2000/svg" xmlns:xlink="http://www.w3.org/1999/xlink">
<g id="graph0" class="graph" transform="scale(1 1) rotate(0) translate(4 117)">
<title>my_dff8</title>
<polygon fill="white" stroke="transparent" points="-4,4 -4,-117 343,-117 343,4 -4,4"/>
<text text-anchor="middle" x="169.5" y="-7.8" font-family="Times New Roman,serif" font-size="14.00">my_dff8</text>
<!-- n1 -->
<g id="node1" class="node">
<title>n1</title>
<polygon fill="none" stroke="black" points="54,-87.54 54,-102.46 38.18,-113 15.82,-113 0,-102.46 0,-87.54 15.82,-77 38.18,-77 54,-87.54"/>
<text text-anchor="middle" x="27" y="-91.3" font-family="Times New Roman,serif" font-size="14.00">clk</text>
</g>
<!-- c7 -->
<g id="node4" class="node">
<title>c7</title>
<polygon fill="none" stroke="black" points="114,-45 114,-91 225,-91 225,-45 114,-45"/>
<text text-anchor="middle" x="136" y="-75.8" font-family="Times New Roman,serif" font-size="14.00">CLK</text>
<polyline fill="none" stroke="black" points="114,-68 158,-68 "/>
<text text-anchor="middle" x="136" y="-52.8" font-family="Times New Roman,serif" font-size="14.00">D</text>
<polyline fill="none" stroke="black" points="158,-45 158,-91 "/>
<text text-anchor="middle" x="178" y="-71.8" font-family="Times New Roman,serif" font-size="14.00">$2</text>
<text text-anchor="middle" x="178" y="-56.8" font-family="Times New Roman,serif" font-size="14.00">$dff</text>
<polyline fill="none" stroke="black" points="198,-45 198,-91 "/>
<text text-anchor="middle" x="211.5" y="-64.3" font-family="Times New Roman,serif" font-size="14.00">Q</text>
</g>
<!-- n1&#45;&gt;c7 -->
<g id="edge1" class="edge">
<title>n1:e&#45;&gt;c7:w</title>
<path fill="none" stroke="#66a61e" d="M54,-95C77.73,-95 84.72,-83.82 103.87,-80.76"/>
<polygon fill="#66a61e" stroke="#66a61e" points="104.29,-84.24 114,-80 103.76,-77.26 104.29,-84.24"/>
</g>
<!-- n2 -->
<g id="node2" class="node">
<title>n2</title>
<polygon fill="none" stroke="black" points="54,-33.54 54,-48.46 38.18,-59 15.82,-59 0,-48.46 0,-33.54 15.82,-23 38.18,-23 54,-33.54"/>
<text text-anchor="middle" x="27" y="-37.3" font-family="Times New Roman,serif" font-size="14.00">d</text>
</g>
<!-- n2&#45;&gt;c7 -->
<g id="edge2" class="edge">
<title>n2:e&#45;&gt;c7:w</title>
<path fill="none" stroke="#1b9e77" stroke-width="3" d="M54,-41C77.73,-41 84.72,-52.18 103.87,-55.24"/>
<polygon fill="#1b9e77" stroke="#1b9e77" stroke-width="3" points="103.76,-58.74 114,-56 104.29,-51.76 103.76,-58.74"/>
<text text-anchor="middle" x="84" y="-56.8" font-family="Times New Roman,serif" font-size="14.00" fill="#1b9e77">&lt;8&gt;</text>
</g>
<!-- n3 -->
<g id="node3" class="node">
<title>n3</title>
<polygon fill="none" stroke="black" points="339,-60.54 339,-75.46 323.18,-86 300.82,-86 285,-75.46 285,-60.54 300.82,-50 323.18,-50 339,-60.54"/>
<text text-anchor="middle" x="312" y="-64.3" font-family="Times New Roman,serif" font-size="14.00">q</text>
</g>
<!-- c7&#45;&gt;n3 -->
<g id="edge3" class="edge">
<title>c7:e&#45;&gt;n3:w</title>
<path fill="none" stroke="#1b9e77" stroke-width="3" d="M225,-68C247.92,-68 256.06,-68 274.83,-68"/>
<polygon fill="#1b9e77" stroke="#1b9e77" stroke-width="3" points="275,-71.5 285,-68 275,-64.5 275,-71.5"/>
<text text-anchor="middle" x="255" y="-71.8" font-family="Times New Roman,serif" font-size="14.00" fill="#1b9e77">&lt;8&gt;</text>
</g>
</g>
</svg>
