<?xml version="1.0" encoding="UTF-8" standalone="no"?>
<!DOCTYPE svg PUBLIC "-//W3C//DTD SVG 1.1//EN"
 "http://www.w3.org/Graphics/SVG/1.1/DTD/svg11.dtd">
<!-- Generated by graphviz version 4.0.0 (20220529.0937)
 -->
<!-- Title: top_module Pages: 1 -->
<svg width="1862pt" height="575pt"
 viewBox="0.00 0.00 1861.96 575.00" xmlns="http://www.w3.org/2000/svg" xmlns:xlink="http://www.w3.org/1999/xlink">
<g id="graph0" class="graph" transform="scale(1 1) rotate(0) translate(4 571)">
<title>top_module</title>
<polygon fill="white" stroke="transparent" points="-4,4 -4,-571 1857.96,-571 1857.96,4 -4,4"/>
<text text-anchor="middle" x="926.98" y="-7.8" font-family="Times New Roman,serif" font-size="14.00">top_module</text>
<!-- n10 -->
<g id="node1" class="node">
<title>n10</title>
<polygon fill="none" stroke="black" points="57.25,-447.54 57.25,-462.46 41.43,-473 19.07,-473 3.25,-462.46 3.25,-447.54 19.07,-437 41.43,-437 57.25,-447.54"/>
<text text-anchor="middle" x="30.25" y="-451.3" font-family="Times New Roman,serif" font-size="14.00">clk</text>
</g>
<!-- c21 -->
<g id="node8" class="node">
<title>c21</title>
<polygon fill="none" stroke="black" points="97.5,-309 97.5,-355 208.5,-355 208.5,-309 97.5,-309"/>
<text text-anchor="middle" x="119.5" y="-339.8" font-family="Times New Roman,serif" font-size="14.00">CLK</text>
<polyline fill="none" stroke="black" points="97.5,-332 141.5,-332 "/>
<text text-anchor="middle" x="119.5" y="-316.8" font-family="Times New Roman,serif" font-size="14.00">D</text>
<polyline fill="none" stroke="black" points="141.5,-309 141.5,-355 "/>
<text text-anchor="middle" x="161.5" y="-335.8" font-family="Times New Roman,serif" font-size="14.00">$22</text>
<text text-anchor="middle" x="161.5" y="-320.8" font-family="Times New Roman,serif" font-size="14.00">$dff</text>
<polyline fill="none" stroke="black" points="181.5,-309 181.5,-355 "/>
<text text-anchor="middle" x="195" y="-328.3" font-family="Times New Roman,serif" font-size="14.00">Q</text>
</g>
<!-- n10&#45;&gt;c21 -->
<g id="edge6" class="edge">
<title>n10:e&#45;&gt;c21:w</title>
<path fill="none" stroke="#e7298a" d="M58.25,-455C106.49,-455 54.67,-360.67 87.28,-345.93"/>
<polygon fill="#e7298a" stroke="#e7298a" points="88.32,-349.29 97.5,-344 87.03,-342.41 88.32,-349.29"/>
</g>
<!-- c24 -->
<g id="node9" class="node">
<title>c24</title>
<polygon fill="none" stroke="black" points="1483.69,-433.5 1483.69,-502.5 1582.69,-502.5 1582.69,-433.5 1483.69,-433.5"/>
<text text-anchor="middle" x="1496.69" y="-487.3" font-family="Times New Roman,serif" font-size="14.00">A</text>
<polyline fill="none" stroke="black" points="1483.69,-479.5 1509.69,-479.5 "/>
<text text-anchor="middle" x="1496.69" y="-464.3" font-family="Times New Roman,serif" font-size="14.00">B</text>
<polyline fill="none" stroke="black" points="1483.69,-456.5 1509.69,-456.5 "/>
<text text-anchor="middle" x="1496.69" y="-441.3" font-family="Times New Roman,serif" font-size="14.00">S</text>
<polyline fill="none" stroke="black" points="1509.69,-433.5 1509.69,-502.5 "/>
<text text-anchor="middle" x="1533.19" y="-471.8" font-family="Times New Roman,serif" font-size="14.00">$10</text>
<text text-anchor="middle" x="1533.19" y="-456.8" font-family="Times New Roman,serif" font-size="14.00">$mux</text>
<polyline fill="none" stroke="black" points="1556.69,-433.5 1556.69,-502.5 "/>
<text text-anchor="middle" x="1569.69" y="-464.3" font-family="Times New Roman,serif" font-size="14.00">Y</text>
</g>
<!-- n10&#45;&gt;c24 -->
<g id="edge7" class="edge">
<title>n10:e&#45;&gt;c24:w</title>
<path fill="none" stroke="#e7298a" d="M58.25,-455C123.17,-455 87.09,-567 152,-567 152,-567 152,-567 889.31,-567 1046.29,-567 1093.96,-551.2 1229.5,-472 1239.26,-466.29 1237.13,-458.53 1247.5,-454 1340.57,-413.35 1376.26,-442.89 1473.46,-444.89"/>
<polygon fill="#e7298a" stroke="#e7298a" points="1473.66,-448.4 1483.69,-445 1473.73,-441.4 1473.66,-448.4"/>
</g>
<!-- n11 -->
<g id="node2" class="node">
<title>n11</title>
<polygon fill="none" stroke="black" points="1356.59,-501 1289.4,-483 1356.59,-465 1423.79,-483 1356.59,-501"/>
<text text-anchor="middle" x="1356.59" y="-479.3" font-family="Times New Roman,serif" font-size="14.00">next_state</text>
</g>
<!-- n11&#45;&gt;c24 -->
<g id="edge9" class="edge">
<title>n11:e&#45;&gt;c24:w</title>
<path fill="none" stroke="#7570b3" stroke-width="3" d="M1423.69,-483C1447.42,-483 1454.41,-471.82 1473.56,-468.76"/>
<polygon fill="#7570b3" stroke="#7570b3" stroke-width="3" points="1473.99,-472.24 1483.69,-468 1473.46,-465.26 1473.99,-472.24"/>
<text text-anchor="middle" x="1453.69" y="-483.8" font-family="Times New Roman,serif" font-size="14.00" fill="#7570b3">&lt;3&gt;</text>
</g>
<!-- n12 -->
<g id="node3" class="node">
<title>n12</title>
<polygon fill="none" stroke="black" points="60.25,-33.54 60.25,-48.46 42.68,-59 17.82,-59 0.25,-48.46 0.25,-33.54 17.82,-23 42.68,-23 60.25,-33.54"/>
<text text-anchor="middle" x="30.25" y="-37.3" font-family="Times New Roman,serif" font-size="14.00">reset</text>
</g>
<!-- c25 -->
<g id="node11" class="node">
<title>c25</title>
<polygon fill="none" stroke="black" points="1642.69,-129.5 1642.69,-198.5 1741.69,-198.5 1741.69,-129.5 1642.69,-129.5"/>
<text text-anchor="middle" x="1655.69" y="-183.3" font-family="Times New Roman,serif" font-size="14.00">A</text>
<polyline fill="none" stroke="black" points="1642.69,-175.5 1668.69,-175.5 "/>
<text text-anchor="middle" x="1655.69" y="-160.3" font-family="Times New Roman,serif" font-size="14.00">B</text>
<polyline fill="none" stroke="black" points="1642.69,-152.5 1668.69,-152.5 "/>
<text text-anchor="middle" x="1655.69" y="-137.3" font-family="Times New Roman,serif" font-size="14.00">S</text>
<polyline fill="none" stroke="black" points="1668.69,-129.5 1668.69,-198.5 "/>
<text text-anchor="middle" x="1692.19" y="-167.8" font-family="Times New Roman,serif" font-size="14.00">$13</text>
<text text-anchor="middle" x="1692.19" y="-152.8" font-family="Times New Roman,serif" font-size="14.00">$mux</text>
<polyline fill="none" stroke="black" points="1715.69,-129.5 1715.69,-198.5 "/>
<text text-anchor="middle" x="1728.69" y="-160.3" font-family="Times New Roman,serif" font-size="14.00">Y</text>
</g>
<!-- n12&#45;&gt;c25 -->
<g id="edge10" class="edge">
<title>n12:e&#45;&gt;c25:w</title>
<path fill="none" stroke="#d95f02" d="M60.5,-41C101.17,-41 111.33,-41 152,-41 152,-41 152,-41 1260.5,-41 1407.32,-41 1443.45,-67.42 1582.69,-114 1606.85,-122.08 1612.26,-136.57 1632.58,-140.17"/>
<polygon fill="#d95f02" stroke="#d95f02" points="1632.44,-143.67 1642.69,-141 1633.01,-136.7 1632.44,-143.67"/>
</g>
<!-- n13 -->
<g id="node4" class="node">
<title>n13</title>
<polygon fill="none" stroke="black" points="1854.1,-49.54 1854.1,-64.46 1826.41,-75 1787.25,-75 1759.56,-64.46 1759.56,-49.54 1787.25,-39 1826.41,-39 1854.1,-49.54"/>
<text text-anchor="middle" x="1806.83" y="-53.3" font-family="Times New Roman,serif" font-size="14.00">shift_ena</text>
</g>
<!-- n14 -->
<g id="node5" class="node">
<title>n14</title>
<polygon fill="none" stroke="black" points="307.1,-350 268.4,-332 307.1,-314 345.81,-332 307.1,-350"/>
<text text-anchor="middle" x="307.1" y="-328.3" font-family="Times New Roman,serif" font-size="14.00">state</text>
</g>
<!-- n14&#45;&gt;c24 -->
<g id="edge13" class="edge">
<title>n14:e&#45;&gt;c24:w</title>
<path fill="none" stroke="#1b9e77" stroke-width="3" d="M345.71,-332C381.71,-332 340.5,-465.48 363.71,-493 395.77,-531.01 421.48,-524 471.21,-524 471.21,-524 471.21,-524 709.31,-524 877.63,-524 919.68,-529 1088,-529 1088,-529 1088,-529 1357.59,-529 1407.45,-529 1418.76,-515.84 1465.69,-499 1469.56,-497.61 1471.83,-495.77 1474.06,-494.2"/>
<polygon fill="#1b9e77" stroke="#1b9e77" stroke-width="3" points="1475.31,-497.47 1483.69,-491 1473.1,-490.83 1475.31,-497.47"/>
<text text-anchor="middle" x="804.31" y="-528.8" font-family="Times New Roman,serif" font-size="14.00" fill="#1b9e77">&lt;3&gt;</text>
</g>
<!-- c27 -->
<g id="node17" class="node">
<title>c27</title>
<polygon fill="none" stroke="black" points="405.71,-367 405.71,-413 538.71,-413 538.71,-367 405.71,-367"/>
<text text-anchor="middle" x="418.71" y="-397.8" font-family="Times New Roman,serif" font-size="14.00">A</text>
<polyline fill="none" stroke="black" points="405.71,-390 431.71,-390 "/>
<text text-anchor="middle" x="418.71" y="-374.8" font-family="Times New Roman,serif" font-size="14.00">B</text>
<polyline fill="none" stroke="black" points="431.71,-367 431.71,-413 "/>
<text text-anchor="middle" x="472.21" y="-393.8" font-family="Times New Roman,serif" font-size="14.00">$17_CMP0</text>
<text text-anchor="middle" x="472.21" y="-378.8" font-family="Times New Roman,serif" font-size="14.00">$eq</text>
<polyline fill="none" stroke="black" points="512.71,-367 512.71,-413 "/>
<text text-anchor="middle" x="525.71" y="-386.3" font-family="Times New Roman,serif" font-size="14.00">Y</text>
</g>
<!-- n14&#45;&gt;c27 -->
<g id="edge14" class="edge">
<title>n14:e&#45;&gt;c27:w</title>
<path fill="none" stroke="#1b9e77" stroke-width="3" d="M345.71,-332C372.28,-332 344.87,-370.27 363.71,-389 374.86,-400.09 382.61,-401.75 395.39,-401.97"/>
<polygon fill="#1b9e77" stroke="#1b9e77" stroke-width="3" points="395.7,-405.48 405.71,-402 395.72,-398.48 395.7,-405.48"/>
<text text-anchor="middle" x="375.71" y="-404.8" font-family="Times New Roman,serif" font-size="14.00" fill="#1b9e77">&lt;3&gt;</text>
</g>
<!-- c28 -->
<g id="node19" class="node">
<title>c28</title>
<polygon fill="none" stroke="black" points="405.71,-152 405.71,-198 538.71,-198 538.71,-152 405.71,-152"/>
<text text-anchor="middle" x="418.71" y="-182.8" font-family="Times New Roman,serif" font-size="14.00">A</text>
<polyline fill="none" stroke="black" points="405.71,-175 431.71,-175 "/>
<text text-anchor="middle" x="418.71" y="-159.8" font-family="Times New Roman,serif" font-size="14.00">B</text>
<polyline fill="none" stroke="black" points="431.71,-152 431.71,-198 "/>
<text text-anchor="middle" x="472.21" y="-178.8" font-family="Times New Roman,serif" font-size="14.00">$18_CMP0</text>
<text text-anchor="middle" x="472.21" y="-163.8" font-family="Times New Roman,serif" font-size="14.00">$eq</text>
<polyline fill="none" stroke="black" points="512.71,-152 512.71,-198 "/>
<text text-anchor="middle" x="525.71" y="-171.3" font-family="Times New Roman,serif" font-size="14.00">Y</text>
</g>
<!-- n14&#45;&gt;c28 -->
<g id="edge15" class="edge">
<title>n14:e&#45;&gt;c28:w</title>
<path fill="none" stroke="#1b9e77" stroke-width="3" d="M345.71,-332C353.13,-332 385.1,-226.85 399.81,-195.64"/>
<polygon fill="#1b9e77" stroke="#1b9e77" stroke-width="3" points="402.96,-197.23 405.71,-187 397.18,-193.28 402.96,-197.23"/>
<text text-anchor="middle" x="375.71" y="-293.8" font-family="Times New Roman,serif" font-size="14.00" fill="#1b9e77">&lt;3&gt;</text>
</g>
<!-- c29 -->
<g id="node21" class="node">
<title>c29</title>
<polygon fill="none" stroke="black" points="405.71,-87 405.71,-133 538.71,-133 538.71,-87 405.71,-87"/>
<text text-anchor="middle" x="418.71" y="-117.8" font-family="Times New Roman,serif" font-size="14.00">A</text>
<polyline fill="none" stroke="black" points="405.71,-110 431.71,-110 "/>
<text text-anchor="middle" x="418.71" y="-94.8" font-family="Times New Roman,serif" font-size="14.00">B</text>
<polyline fill="none" stroke="black" points="431.71,-87 431.71,-133 "/>
<text text-anchor="middle" x="472.21" y="-113.8" font-family="Times New Roman,serif" font-size="14.00">$19_CMP0</text>
<text text-anchor="middle" x="472.21" y="-98.8" font-family="Times New Roman,serif" font-size="14.00">$eq</text>
<polyline fill="none" stroke="black" points="512.71,-87 512.71,-133 "/>
<text text-anchor="middle" x="525.71" y="-106.3" font-family="Times New Roman,serif" font-size="14.00">Y</text>
</g>
<!-- n14&#45;&gt;c29 -->
<g id="edge16" class="edge">
<title>n14:e&#45;&gt;c29:w</title>
<path fill="none" stroke="#1b9e77" stroke-width="3" d="M345.71,-332C366.58,-332 352.22,-162.43 363.71,-145 373.32,-130.42 381.1,-124.28 395.34,-122.55"/>
<polygon fill="#1b9e77" stroke="#1b9e77" stroke-width="3" points="395.91,-126.02 405.71,-122 395.54,-119.03 395.91,-126.02"/>
<text text-anchor="middle" x="375.71" y="-148.8" font-family="Times New Roman,serif" font-size="14.00" fill="#1b9e77">&lt;3&gt;</text>
</g>
<!-- c30 -->
<g id="node23" class="node">
<title>c30</title>
<polygon fill="none" stroke="black" points="405.71,-438 405.71,-484 538.71,-484 538.71,-438 405.71,-438"/>
<text text-anchor="middle" x="418.71" y="-468.8" font-family="Times New Roman,serif" font-size="14.00">A</text>
<polyline fill="none" stroke="black" points="405.71,-461 431.71,-461 "/>
<text text-anchor="middle" x="418.71" y="-445.8" font-family="Times New Roman,serif" font-size="14.00">B</text>
<polyline fill="none" stroke="black" points="431.71,-438 431.71,-484 "/>
<text text-anchor="middle" x="472.21" y="-464.8" font-family="Times New Roman,serif" font-size="14.00">$20_CMP0</text>
<text text-anchor="middle" x="472.21" y="-449.8" font-family="Times New Roman,serif" font-size="14.00">$eq</text>
<polyline fill="none" stroke="black" points="512.71,-438 512.71,-484 "/>
<text text-anchor="middle" x="525.71" y="-457.3" font-family="Times New Roman,serif" font-size="14.00">Y</text>
</g>
<!-- n14&#45;&gt;c30 -->
<g id="edge17" class="edge">
<title>n14:e&#45;&gt;c30:w</title>
<path fill="none" stroke="#1b9e77" stroke-width="3" d="M345.71,-332C375.53,-332 343.19,-443.35 363.71,-465 374.23,-476.1 382.71,-474.52 395.52,-473.47"/>
<polygon fill="#1b9e77" stroke="#1b9e77" stroke-width="3" points="395.88,-476.96 405.71,-473 395.56,-469.97 395.88,-476.96"/>
<text text-anchor="middle" x="375.71" y="-477.8" font-family="Times New Roman,serif" font-size="14.00" fill="#1b9e77">&lt;3&gt;</text>
</g>
<!-- c31 -->
<g id="node25" class="node">
<title>c31</title>
<polygon fill="none" stroke="black" points="405.71,-256 405.71,-302 538.71,-302 538.71,-256 405.71,-256"/>
<text text-anchor="middle" x="418.71" y="-286.8" font-family="Times New Roman,serif" font-size="14.00">A</text>
<polyline fill="none" stroke="black" points="405.71,-279 431.71,-279 "/>
<text text-anchor="middle" x="418.71" y="-263.8" font-family="Times New Roman,serif" font-size="14.00">B</text>
<polyline fill="none" stroke="black" points="431.71,-256 431.71,-302 "/>
<text text-anchor="middle" x="472.21" y="-282.8" font-family="Times New Roman,serif" font-size="14.00">$21_CMP0</text>
<text text-anchor="middle" x="472.21" y="-267.8" font-family="Times New Roman,serif" font-size="14.00">$eq</text>
<polyline fill="none" stroke="black" points="512.71,-256 512.71,-302 "/>
<text text-anchor="middle" x="525.71" y="-275.3" font-family="Times New Roman,serif" font-size="14.00">Y</text>
</g>
<!-- n14&#45;&gt;c31 -->
<g id="edge18" class="edge">
<title>n14:e&#45;&gt;c31:w</title>
<path fill="none" stroke="#1b9e77" stroke-width="3" d="M345.71,-332C366.2,-332 371.46,-325.48 387.71,-313 393.82,-308.31 394.47,-301.17 396.91,-296.3"/>
<polygon fill="#1b9e77" stroke="#1b9e77" stroke-width="3" points="398.95,-299.16 405.71,-291 395.34,-293.16 398.95,-299.16"/>
<text text-anchor="middle" x="375.71" y="-333.8" font-family="Times New Roman,serif" font-size="14.00" fill="#1b9e77">&lt;3&gt;</text>
</g>
<!-- c17 -->
<g id="node6" class="node">
<title>c17</title>
<polygon fill="none" stroke="black" points="738.31,-355 738.31,-393 870.31,-393 870.31,-355 738.31,-355"/>
<text text-anchor="middle" x="751.31" y="-370.3" font-family="Times New Roman,serif" font-size="14.00">A</text>
<polyline fill="none" stroke="black" points="764.31,-355 764.31,-393 "/>
<text text-anchor="middle" x="804.31" y="-377.8" font-family="Times New Roman,serif" font-size="14.00">$23</text>
<text text-anchor="middle" x="804.31" y="-362.8" font-family="Times New Roman,serif" font-size="14.00">$reduce_or</text>
<polyline fill="none" stroke="black" points="844.31,-355 844.31,-393 "/>
<text text-anchor="middle" x="857.31" y="-370.3" font-family="Times New Roman,serif" font-size="14.00">Y</text>
</g>
<!-- x4 -->
<g id="node15" class="node">
<title>x4</title>
<path fill="none" stroke="black" d="M962.4,-300C962.4,-300 1000.4,-300 1000.4,-300 1006.4,-300 1012.4,-306 1012.4,-312 1012.4,-312 1012.4,-380 1012.4,-380 1012.4,-386 1006.4,-392 1000.4,-392 1000.4,-392 962.4,-392 962.4,-392 956.4,-392 950.4,-386 950.4,-380 950.4,-380 950.4,-312 950.4,-312 950.4,-306 956.4,-300 962.4,-300"/>
<text text-anchor="middle" x="981.4" y="-376.8" font-family="Times New Roman,serif" font-size="14.00">0:0 &#45; 3:3</text>
<polyline fill="none" stroke="black" points="950.4,-369 1012.4,-369 "/>
<text text-anchor="middle" x="981.4" y="-353.8" font-family="Times New Roman,serif" font-size="14.00">0:0 &#45; 2:2</text>
<polyline fill="none" stroke="black" points="950.4,-346 1012.4,-346 "/>
<text text-anchor="middle" x="981.4" y="-330.8" font-family="Times New Roman,serif" font-size="14.00">0:0 &#45; 1:1</text>
<polyline fill="none" stroke="black" points="950.4,-323 1012.4,-323 "/>
<text text-anchor="middle" x="981.4" y="-307.8" font-family="Times New Roman,serif" font-size="14.00">0:0 &#45; 0:0</text>
</g>
<!-- c17&#45;&gt;x4 -->
<g id="edge19" class="edge">
<title>c17:e&#45;&gt;x4:w</title>
<path fill="none" stroke="#e6ab02" d="M870.31,-374C911.56,-374 905.86,-320.91 939.41,-312.2"/>
<polygon fill="#e6ab02" stroke="#e6ab02" points="939.89,-315.67 949.4,-311 939.06,-308.72 939.89,-315.67"/>
</g>
<!-- x0 -->
<g id="node7" class="node">
<title>x0</title>
<path fill="none" stroke="black" d="M628.31,-327C628.31,-327 666.31,-327 666.31,-327 672.31,-327 678.31,-333 678.31,-339 678.31,-339 678.31,-361 678.31,-361 678.31,-367 672.31,-373 666.31,-373 666.31,-373 628.31,-373 628.31,-373 622.31,-373 616.31,-367 616.31,-361 616.31,-361 616.31,-339 616.31,-339 616.31,-333 622.31,-327 628.31,-327"/>
<text text-anchor="middle" x="647.31" y="-357.8" font-family="Times New Roman,serif" font-size="14.00">0:0 &#45; 1:1</text>
<polyline fill="none" stroke="black" points="616.31,-350 678.31,-350 "/>
<text text-anchor="middle" x="647.31" y="-334.8" font-family="Times New Roman,serif" font-size="14.00">0:0 &#45; 0:0</text>
</g>
<!-- x0&#45;&gt;c17 -->
<g id="edge1" class="edge">
<title>x0:e&#45;&gt;c17:w</title>
<path fill="none" stroke="#66a61e" stroke-width="3" d="M690.31,-351.65C704.96,-356.01 711.5,-367.83 726.06,-372.27"/>
<polygon fill="none" stroke="#66a61e" stroke-width="3" points="690.2,-351.63 683.71,-354.78 678.31,-350 684.8,-346.85 690.2,-351.63"/>
<polygon fill="none" stroke="#66a61e" stroke-width="3" points="726.43,-372.33 732.93,-369.2 738.31,-374 731.81,-377.12 726.43,-372.33"/>
<text text-anchor="middle" x="708.31" y="-373.8" font-family="Times New Roman,serif" font-size="14.00" fill="#66a61e">&lt;2&gt;</text>
</g>
<!-- c21&#45;&gt;n14 -->
<g id="edge12" class="edge">
<title>c21:e&#45;&gt;n14:w</title>
<path fill="none" stroke="#1b9e77" stroke-width="3" d="M208.5,-332C231.42,-332 239.56,-332 258.33,-332"/>
<polygon fill="#1b9e77" stroke="#1b9e77" stroke-width="3" points="258.5,-335.5 268.5,-332 258.5,-328.5 258.5,-335.5"/>
<text text-anchor="middle" x="238.5" y="-335.8" font-family="Times New Roman,serif" font-size="14.00" fill="#1b9e77">&lt;3&gt;</text>
</g>
<!-- c24&#45;&gt;c25 -->
<g id="edge20" class="edge">
<title>c24:e&#45;&gt;c25:w</title>
<path fill="none" stroke="#e6ab02" stroke-width="3" d="M1582.69,-468C1611.75,-468 1611.17,-235.22 1634.9,-193.4"/>
<polygon fill="#e6ab02" stroke="#e6ab02" stroke-width="3" points="1637.19,-196.05 1642.69,-187 1632.74,-190.64 1637.19,-196.05"/>
<text text-anchor="middle" x="1612.69" y="-423.8" font-family="Times New Roman,serif" font-size="14.00" fill="#e6ab02">&lt;3&gt;</text>
</g>
<!-- v1 -->
<g id="node10" class="node">
<title>v1</title>
<ellipse fill="none" stroke="black" cx="1533.19" cy="-141" rx="30.59" ry="18"/>
<text text-anchor="middle" x="1533.19" y="-137.3" font-family="Times New Roman,serif" font-size="14.00">3&#39;001</text>
</g>
<!-- v1&#45;&gt;c25 -->
<g id="edge37" class="edge">
<title>v1:e&#45;&gt;c25:w</title>
<path fill="none" stroke="#666666" stroke-width="3" d="M1565.19,-141C1592.7,-141 1598.42,-149.87 1624.69,-158 1628.22,-159.09 1630.49,-160.38 1632.64,-161.48"/>
<polygon fill="#666666" stroke="#666666" stroke-width="3" points="1632.14,-164.96 1642.69,-164 1633.85,-158.17 1632.14,-164.96"/>
<text text-anchor="middle" x="1612.69" y="-161.8" font-family="Times New Roman,serif" font-size="14.00" fill="#666666">&lt;3&gt;</text>
</g>
<!-- c25&#45;&gt;c21 -->
<g id="edge5" class="edge">
<title>c25:e&#45;&gt;c21:w</title>
<path fill="none" stroke="#e7298a" stroke-width="3" d="M1743.19,-164C1750.97,-164 1747.77,-193.58 1742.19,-199 1675.79,-263.54 1626.79,-187 1534.19,-187 707.31,-187 707.31,-187 707.31,-187 665.99,-187 655.03,-191.58 616.31,-206 598.3,-212.71 597.73,-227 578.51,-227 306.1,-227 306.1,-227 306.1,-227 206.36,-227 156.8,-228.67 97,-308.5 96.71,-308.88 96.42,-309.3 96.14,-309.73"/>
<polygon fill="#e7298a" stroke="#e7298a" stroke-width="3" points="92.64,-309.95 96,-320 99.64,-310.05 92.64,-309.95"/>
<text text-anchor="middle" x="804.31" y="-190.8" font-family="Times New Roman,serif" font-size="14.00" fill="#e7298a">&lt;3&gt;</text>
</g>
<!-- v2 -->
<g id="node12" class="node">
<title>v2</title>
<ellipse fill="none" stroke="black" cx="981.4" cy="-483" rx="30.59" ry="18"/>
<text text-anchor="middle" x="981.4" y="-479.3" font-family="Times New Roman,serif" font-size="14.00">3&#39;111</text>
</g>
<!-- c26 -->
<g id="node14" class="node">
<title>c26</title>
<polygon fill="none" stroke="black" points="1122.5,-393.5 1122.5,-462.5 1229.5,-462.5 1229.5,-393.5 1122.5,-393.5"/>
<text text-anchor="middle" x="1135.5" y="-447.3" font-family="Times New Roman,serif" font-size="14.00">A</text>
<polyline fill="none" stroke="black" points="1122.5,-439.5 1148.5,-439.5 "/>
<text text-anchor="middle" x="1135.5" y="-424.3" font-family="Times New Roman,serif" font-size="14.00">B</text>
<polyline fill="none" stroke="black" points="1122.5,-416.5 1148.5,-416.5 "/>
<text text-anchor="middle" x="1135.5" y="-401.3" font-family="Times New Roman,serif" font-size="14.00">S</text>
<polyline fill="none" stroke="black" points="1148.5,-393.5 1148.5,-462.5 "/>
<text text-anchor="middle" x="1176" y="-431.8" font-family="Times New Roman,serif" font-size="14.00">$16</text>
<text text-anchor="middle" x="1176" y="-416.8" font-family="Times New Roman,serif" font-size="14.00">$pmux</text>
<polyline fill="none" stroke="black" points="1203.5,-393.5 1203.5,-462.5 "/>
<text text-anchor="middle" x="1216.5" y="-424.3" font-family="Times New Roman,serif" font-size="14.00">Y</text>
</g>
<!-- v2&#45;&gt;c26 -->
<g id="edge40" class="edge">
<title>v2:e&#45;&gt;c26:w</title>
<path fill="none" stroke="#a6761d" stroke-width="3" d="M1013.4,-483C1060.38,-483 1070.63,-455.34 1112.44,-451.45"/>
<polygon fill="#a6761d" stroke="#a6761d" stroke-width="3" points="1112.66,-454.95 1122.5,-451 1112.35,-447.95 1112.66,-454.95"/>
<text text-anchor="middle" x="1089" y="-466.8" font-family="Times New Roman,serif" font-size="14.00" fill="#a6761d">&lt;3&gt;</text>
</g>
<!-- v3 -->
<g id="node13" class="node">
<title>v3</title>
<ellipse fill="none" stroke="black" cx="981.4" cy="-429" rx="74.19" ry="18"/>
<text text-anchor="middle" x="981.4" y="-425.3" font-family="Times New Roman,serif" font-size="14.00">12&#39;010011100101</text>
</g>
<!-- v3&#45;&gt;c26 -->
<g id="edge41" class="edge">
<title>v3:e&#45;&gt;c26:w</title>
<path fill="none" stroke="#e6ab02" stroke-width="3" d="M1055.5,-429C1081.55,-429 1090.51,-428.23 1112.29,-428.04"/>
<polygon fill="#e6ab02" stroke="#e6ab02" stroke-width="3" points="1112.51,-431.54 1122.5,-428 1112.48,-424.54 1112.51,-431.54"/>
<text text-anchor="middle" x="1089" y="-431.8" font-family="Times New Roman,serif" font-size="14.00" fill="#e6ab02">&lt;12&gt;</text>
</g>
<!-- c26&#45;&gt;n11 -->
<g id="edge8" class="edge">
<title>c26:e&#45;&gt;n11:w</title>
<path fill="none" stroke="#7570b3" stroke-width="3" d="M1229.5,-428C1261.86,-428 1255.39,-472.01 1279.56,-481.29"/>
<polygon fill="#7570b3" stroke="#7570b3" stroke-width="3" points="1279.05,-484.76 1289.5,-483 1280.23,-477.86 1279.05,-484.76"/>
<text text-anchor="middle" x="1259.5" y="-478.8" font-family="Times New Roman,serif" font-size="14.00" fill="#7570b3">&lt;3&gt;</text>
</g>
<!-- x4&#45;&gt;c26 -->
<g id="edge2" class="edge">
<title>x4:e&#45;&gt;c26:w</title>
<path fill="none" stroke="#1b9e77" stroke-width="3" d="M1025.62,-347.07C1065,-354.38 1070.96,-396.73 1110.42,-403.95"/>
<polygon fill="none" stroke="#1b9e77" stroke-width="3" points="1025.36,-347.05 1019.03,-350.51 1013.4,-346 1019.73,-342.54 1025.36,-347.05"/>
<polygon fill="none" stroke="#1b9e77" stroke-width="3" points="1110.54,-403.96 1116.86,-400.5 1122.5,-405 1116.17,-408.47 1110.54,-403.96"/>
<text text-anchor="middle" x="1089" y="-404.8" font-family="Times New Roman,serif" font-size="14.00" fill="#1b9e77">&lt;4&gt;</text>
</g>
<!-- v5 -->
<g id="node16" class="node">
<title>v5</title>
<ellipse fill="none" stroke="black" cx="307.1" cy="-386" rx="30.59" ry="18"/>
<text text-anchor="middle" x="307.1" y="-382.3" font-family="Times New Roman,serif" font-size="14.00">3&#39;101</text>
</g>
<!-- v5&#45;&gt;c27 -->
<g id="edge42" class="edge">
<title>v5:e&#45;&gt;c27:w</title>
<path fill="none" stroke="#1b9e77" stroke-width="3" d="M339.1,-386C351.27,-386 351.85,-376.74 363.71,-374 374.1,-371.6 377.11,-372.84 387.71,-374 391.27,-374.39 393.6,-375.21 395.77,-376"/>
<polygon fill="#1b9e77" stroke="#1b9e77" stroke-width="3" points="395.22,-379.46 405.71,-378 396.6,-372.6 395.22,-379.46"/>
<text text-anchor="middle" x="375.71" y="-377.8" font-family="Times New Roman,serif" font-size="14.00" fill="#1b9e77">&lt;3&gt;</text>
</g>
<!-- n4 -->
<g id="node32" class="node">
<title>n4</title>
<ellipse fill="black" stroke="black" cx="577.51" cy="-390" rx="1.8" ry="1.8"/>
</g>
<!-- c27&#45;&gt;n4 -->
<g id="edge21" class="edge">
<title>c27:e&#45;&gt;n4:w</title>
<path fill="none" stroke="#d95f02" d="M538.71,-390C551.17,-390 556.55,-390 565.58,-390"/>
<polygon fill="#d95f02" stroke="#d95f02" points="565.71,-393.5 575.71,-390 565.71,-386.5 565.71,-393.5"/>
</g>
<!-- v6 -->
<g id="node18" class="node">
<title>v6</title>
<ellipse fill="none" stroke="black" cx="307.1" cy="-167" rx="30.59" ry="18"/>
<text text-anchor="middle" x="307.1" y="-163.3" font-family="Times New Roman,serif" font-size="14.00">3&#39;100</text>
</g>
<!-- v6&#45;&gt;c28 -->
<g id="edge43" class="edge">
<title>v6:e&#45;&gt;c28:w</title>
<path fill="none" stroke="#66a61e" stroke-width="3" d="M339.1,-167C365.05,-167 373.88,-163.94 395.55,-163.17"/>
<polygon fill="#66a61e" stroke="#66a61e" stroke-width="3" points="395.77,-166.67 405.71,-163 395.65,-159.67 395.77,-166.67"/>
<text text-anchor="middle" x="375.71" y="-169.8" font-family="Times New Roman,serif" font-size="14.00" fill="#66a61e">&lt;3&gt;</text>
</g>
<!-- n5 -->
<g id="node33" class="node">
<title>n5</title>
<ellipse fill="black" stroke="black" cx="577.51" cy="-197" rx="1.8" ry="1.8"/>
</g>
<!-- c28&#45;&gt;n5 -->
<g id="edge24" class="edge">
<title>c28:e&#45;&gt;n5:w</title>
<path fill="none" stroke="#d95f02" d="M538.71,-175C553.81,-175 556.2,-188.7 565.94,-194.48"/>
<polygon fill="#d95f02" stroke="#d95f02" points="565.15,-197.89 575.71,-197 566.9,-191.11 565.15,-197.89"/>
</g>
<!-- v7 -->
<g id="node20" class="node">
<title>v7</title>
<ellipse fill="none" stroke="black" cx="307.1" cy="-91" rx="27" ry="18"/>
<text text-anchor="middle" x="307.1" y="-87.3" font-family="Times New Roman,serif" font-size="14.00">2&#39;11</text>
</g>
<!-- v7&#45;&gt;c29 -->
<g id="edge44" class="edge">
<title>v7:e&#45;&gt;c29:w</title>
<path fill="none" stroke="#a6761d" stroke-width="3" d="M335.1,-91C358.49,-91 364.66,-88.04 387.71,-92 391.35,-92.63 393.63,-93.85 395.76,-95.03"/>
<polygon fill="#a6761d" stroke="#a6761d" stroke-width="3" points="395.13,-98.5 405.71,-98 397.13,-91.79 395.13,-98.5"/>
<text text-anchor="middle" x="375.71" y="-95.8" font-family="Times New Roman,serif" font-size="14.00" fill="#a6761d">&lt;2&gt;</text>
</g>
<!-- n6 -->
<g id="node34" class="node">
<title>n6</title>
<ellipse fill="black" stroke="black" cx="577.51" cy="-149" rx="1.8" ry="1.8"/>
</g>
<!-- c29&#45;&gt;n6 -->
<g id="edge27" class="edge">
<title>c29:e&#45;&gt;n6:w</title>
<path fill="none" stroke="#d95f02" d="M538.71,-110C558.5,-110 554.5,-136.75 566.11,-145.94"/>
<polygon fill="#d95f02" stroke="#d95f02" points="565.12,-149.3 575.71,-149 567.25,-142.63 565.12,-149.3"/>
</g>
<!-- v8 -->
<g id="node22" class="node">
<title>v8</title>
<ellipse fill="none" stroke="black" cx="307.1" cy="-449" rx="27" ry="18"/>
<text text-anchor="middle" x="307.1" y="-445.3" font-family="Times New Roman,serif" font-size="14.00">2&#39;10</text>
</g>
<!-- v8&#45;&gt;c30 -->
<g id="edge45" class="edge">
<title>v8:e&#45;&gt;c30:w</title>
<path fill="none" stroke="#7570b3" stroke-width="3" d="M335.1,-449C362.81,-449 372.17,-449 395.57,-449"/>
<polygon fill="#7570b3" stroke="#7570b3" stroke-width="3" points="395.71,-452.5 405.71,-449 395.71,-445.5 395.71,-452.5"/>
<text text-anchor="middle" x="375.71" y="-452.8" font-family="Times New Roman,serif" font-size="14.00" fill="#7570b3">&lt;2&gt;</text>
</g>
<!-- n7 -->
<g id="node35" class="node">
<title>n7</title>
<ellipse fill="black" stroke="black" cx="577.51" cy="-440" rx="1.8" ry="1.8"/>
</g>
<!-- c30&#45;&gt;n7 -->
<g id="edge30" class="edge">
<title>c30:e&#45;&gt;n7:w</title>
<path fill="none" stroke="#1b9e77" d="M538.71,-461C553.48,-461 556.21,-448.18 565.72,-442.58"/>
<polygon fill="#1b9e77" stroke="#1b9e77" points="566.9,-445.89 575.71,-440 565.15,-439.11 566.9,-445.89"/>
</g>
<!-- v9 -->
<g id="node24" class="node">
<title>v9</title>
<ellipse fill="none" stroke="black" cx="307.1" cy="-273" rx="27" ry="18"/>
<text text-anchor="middle" x="307.1" y="-269.3" font-family="Times New Roman,serif" font-size="14.00">1&#39;1</text>
</g>
<!-- v9&#45;&gt;c31 -->
<g id="edge46" class="edge">
<title>v9:e&#45;&gt;c31:w</title>
<path fill="none" stroke="#e6ab02" d="M335.1,-273C362.91,-273 372.1,-268.32 395.54,-267.23"/>
<polygon fill="#e6ab02" stroke="#e6ab02" points="395.79,-270.72 405.71,-267 395.63,-263.73 395.79,-270.72"/>
</g>
<!-- n8 -->
<g id="node36" class="node">
<title>n8</title>
<ellipse fill="black" stroke="black" cx="577.51" cy="-279" rx="1.8" ry="1.8"/>
</g>
<!-- c31&#45;&gt;n8 -->
<g id="edge33" class="edge">
<title>c31:e&#45;&gt;n8:w</title>
<path fill="none" stroke="#1b9e77" d="M538.71,-279C551.17,-279 556.55,-279 565.58,-279"/>
<polygon fill="#1b9e77" stroke="#1b9e77" points="565.71,-282.5 575.71,-279 565.71,-275.5 565.71,-282.5"/>
</g>
<!-- v10 -->
<g id="node26" class="node">
<title>v10</title>
<ellipse fill="none" stroke="black" cx="981.4" cy="-141" rx="27" ry="18"/>
<text text-anchor="middle" x="981.4" y="-137.3" font-family="Times New Roman,serif" font-size="14.00">1&#39;x</text>
</g>
<!-- c32 -->
<g id="node28" class="node">
<title>c32</title>
<polygon fill="none" stroke="black" points="1122.5,-76.5 1122.5,-145.5 1229.5,-145.5 1229.5,-76.5 1122.5,-76.5"/>
<text text-anchor="middle" x="1135.5" y="-130.3" font-family="Times New Roman,serif" font-size="14.00">A</text>
<polyline fill="none" stroke="black" points="1122.5,-122.5 1148.5,-122.5 "/>
<text text-anchor="middle" x="1135.5" y="-107.3" font-family="Times New Roman,serif" font-size="14.00">B</text>
<polyline fill="none" stroke="black" points="1122.5,-99.5 1148.5,-99.5 "/>
<text text-anchor="middle" x="1135.5" y="-84.3" font-family="Times New Roman,serif" font-size="14.00">S</text>
<polyline fill="none" stroke="black" points="1148.5,-76.5 1148.5,-145.5 "/>
<text text-anchor="middle" x="1176" y="-114.8" font-family="Times New Roman,serif" font-size="14.00">$7</text>
<text text-anchor="middle" x="1176" y="-99.8" font-family="Times New Roman,serif" font-size="14.00">$pmux</text>
<polyline fill="none" stroke="black" points="1203.5,-76.5 1203.5,-145.5 "/>
<text text-anchor="middle" x="1216.5" y="-107.3" font-family="Times New Roman,serif" font-size="14.00">Y</text>
</g>
<!-- v10&#45;&gt;c32 -->
<g id="edge38" class="edge">
<title>v10:e&#45;&gt;c32:w</title>
<path fill="none" stroke="#a6761d" d="M1009.4,-141C1056.22,-141 1070.21,-134.95 1112.41,-134.1"/>
<polygon fill="#a6761d" stroke="#a6761d" points="1112.53,-137.6 1122.5,-134 1112.46,-130.6 1112.53,-137.6"/>
</g>
<!-- v11 -->
<g id="node27" class="node">
<title>v11</title>
<ellipse fill="none" stroke="black" cx="981.4" cy="-87" rx="27" ry="18"/>
<text text-anchor="middle" x="981.4" y="-83.3" font-family="Times New Roman,serif" font-size="14.00">2&#39;01</text>
</g>
<!-- v11&#45;&gt;c32 -->
<g id="edge39" class="edge">
<title>v11:e&#45;&gt;c32:w</title>
<path fill="none" stroke="#7570b3" stroke-width="3" d="M1009.4,-87C1057.17,-87 1069.46,-107.74 1112.24,-110.66"/>
<polygon fill="#7570b3" stroke="#7570b3" stroke-width="3" points="1112.39,-114.17 1122.5,-111 1112.62,-107.17 1112.39,-114.17"/>
<text text-anchor="middle" x="1089" y="-113.8" font-family="Times New Roman,serif" font-size="14.00" fill="#7570b3">&lt;2&gt;</text>
</g>
<!-- c32&#45;&gt;n13 -->
<g id="edge11" class="edge">
<title>c32:e&#45;&gt;n13:w</title>
<path fill="none" stroke="#1b9e77" d="M1229.5,-111C1462.89,-111 1521.14,-58.57 1749.4,-57.03"/>
<polygon fill="#1b9e77" stroke="#1b9e77" points="1749.71,-60.53 1759.69,-57 1749.68,-53.53 1749.71,-60.53"/>
</g>
<!-- x12 -->
<g id="node29" class="node">
<title>x12</title>
<path fill="none" stroke="black" d="M962.4,-229C962.4,-229 1000.4,-229 1000.4,-229 1006.4,-229 1012.4,-235 1012.4,-241 1012.4,-241 1012.4,-263 1012.4,-263 1012.4,-269 1006.4,-275 1000.4,-275 1000.4,-275 962.4,-275 962.4,-275 956.4,-275 950.4,-269 950.4,-263 950.4,-263 950.4,-241 950.4,-241 950.4,-235 956.4,-229 962.4,-229"/>
<text text-anchor="middle" x="981.4" y="-259.8" font-family="Times New Roman,serif" font-size="14.00">0:0 &#45; 1:1</text>
<polyline fill="none" stroke="black" points="950.4,-252 1012.4,-252 "/>
<text text-anchor="middle" x="981.4" y="-236.8" font-family="Times New Roman,serif" font-size="14.00">0:0 &#45; 0:0</text>
</g>
<!-- x12&#45;&gt;c32 -->
<g id="edge3" class="edge">
<title>x12:e&#45;&gt;c32:w</title>
<path fill="none" stroke="#1b9e77" stroke-width="3" d="M1025.67,-251.25C1074.46,-244.92 1077.18,-199.33 1104.5,-150 1115.68,-129.8 1101.94,-101.96 1111.1,-91.86"/>
<polygon fill="none" stroke="#1b9e77" stroke-width="3" points="1025.38,-251.27 1019.64,-255.63 1013.4,-252 1019.15,-247.64 1025.38,-251.27"/>
<polygon fill="none" stroke="#1b9e77" stroke-width="3" points="1111.13,-91.85 1115.53,-86.14 1122.5,-88 1118.1,-93.71 1111.13,-91.85"/>
<text text-anchor="middle" x="1089" y="-217.8" font-family="Times New Roman,serif" font-size="14.00" fill="#1b9e77">&lt;2&gt;</text>
</g>
<!-- c33 -->
<g id="node30" class="node">
<title>c33</title>
<polygon fill="none" stroke="black" points="738.31,-221 738.31,-259 870.31,-259 870.31,-221 738.31,-221"/>
<text text-anchor="middle" x="751.31" y="-236.3" font-family="Times New Roman,serif" font-size="14.00">A</text>
<polyline fill="none" stroke="black" points="764.31,-221 764.31,-259 "/>
<text text-anchor="middle" x="804.31" y="-243.8" font-family="Times New Roman,serif" font-size="14.00">$8_ANY</text>
<text text-anchor="middle" x="804.31" y="-228.8" font-family="Times New Roman,serif" font-size="14.00">$reduce_or</text>
<polyline fill="none" stroke="black" points="844.31,-221 844.31,-259 "/>
<text text-anchor="middle" x="857.31" y="-236.3" font-family="Times New Roman,serif" font-size="14.00">Y</text>
</g>
<!-- c33&#45;&gt;x12 -->
<g id="edge36" class="edge">
<title>c33:e&#45;&gt;x12:w</title>
<path fill="none" stroke="#7570b3" d="M870.31,-240C901.75,-240 912.1,-240 939.1,-240"/>
<polygon fill="#7570b3" stroke="#7570b3" points="939.4,-243.5 949.4,-240 939.4,-236.5 939.4,-243.5"/>
</g>
<!-- x13 -->
<g id="node31" class="node">
<title>x13</title>
<path fill="none" stroke="black" d="M628.31,-216C628.31,-216 666.31,-216 666.31,-216 672.31,-216 678.31,-222 678.31,-228 678.31,-228 678.31,-296 678.31,-296 678.31,-302 672.31,-308 666.31,-308 666.31,-308 628.31,-308 628.31,-308 622.31,-308 616.31,-302 616.31,-296 616.31,-296 616.31,-228 616.31,-228 616.31,-222 622.31,-216 628.31,-216"/>
<text text-anchor="middle" x="647.31" y="-292.8" font-family="Times New Roman,serif" font-size="14.00">0:0 &#45; 3:3</text>
<polyline fill="none" stroke="black" points="616.31,-285 678.31,-285 "/>
<text text-anchor="middle" x="647.31" y="-269.8" font-family="Times New Roman,serif" font-size="14.00">0:0 &#45; 2:2</text>
<polyline fill="none" stroke="black" points="616.31,-262 678.31,-262 "/>
<text text-anchor="middle" x="647.31" y="-246.8" font-family="Times New Roman,serif" font-size="14.00">0:0 &#45; 1:1</text>
<polyline fill="none" stroke="black" points="616.31,-239 678.31,-239 "/>
<text text-anchor="middle" x="647.31" y="-223.8" font-family="Times New Roman,serif" font-size="14.00">0:0 &#45; 0:0</text>
</g>
<!-- x13&#45;&gt;c33 -->
<g id="edge4" class="edge">
<title>x13:e&#45;&gt;c33:w</title>
<path fill="none" stroke="#7570b3" stroke-width="3" d="M690.22,-260.49C704.84,-256.49 711.62,-245.66 726.14,-241.58"/>
<polygon fill="none" stroke="#7570b3" stroke-width="3" points="690.21,-260.49 684.77,-265.21 678.31,-262 683.76,-257.28 690.21,-260.49"/>
<polygon fill="none" stroke="#7570b3" stroke-width="3" points="726.41,-241.55 731.84,-236.81 738.31,-240 732.88,-244.74 726.41,-241.55"/>
<text text-anchor="middle" x="708.31" y="-261.8" font-family="Times New Roman,serif" font-size="14.00" fill="#7570b3">&lt;4&gt;</text>
</g>
<!-- n4&#45;&gt;x0 -->
<g id="edge22" class="edge">
<title>n4:e&#45;&gt;x0:w</title>
<path fill="none" stroke="#d95f02" d="M579.31,-390C603.46,-390 592.74,-352.29 606.54,-341.1"/>
<polygon fill="#d95f02" stroke="#d95f02" points="607.84,-344.36 616.31,-338 605.72,-337.69 607.84,-344.36"/>
</g>
<!-- n4&#45;&gt;x12 -->
<g id="edge23" class="edge">
<title>n4:e&#45;&gt;x12:w</title>
<path fill="none" stroke="#d95f02" d="M579.31,-390C642.24,-390 668.37,-412.54 720.31,-377 733.78,-367.78 725.96,-355.67 738.31,-345 811.76,-281.56 846.5,-265.11 939.33,-264.06"/>
<polygon fill="#d95f02" stroke="#d95f02" points="939.42,-267.55 949.4,-264 939.38,-260.55 939.42,-267.55"/>
</g>
<!-- n5&#45;&gt;x0 -->
<g id="edge25" class="edge">
<title>n5:e&#45;&gt;x0:w</title>
<path fill="none" stroke="#d95f02" d="M579.31,-197C613.22,-197 585.46,-331.35 607.33,-357.59"/>
<polygon fill="#d95f02" stroke="#d95f02" points="605.79,-360.73 616.31,-362 608.88,-354.45 605.79,-360.73"/>
</g>
<!-- n5&#45;&gt;x13 -->
<g id="edge26" class="edge">
<title>n5:e&#45;&gt;x13:w</title>
<path fill="none" stroke="#d95f02" d="M579.31,-197C596.35,-197 596.21,-216.43 606.54,-224.01"/>
<polygon fill="#d95f02" stroke="#d95f02" points="605.72,-227.42 616.31,-227 607.77,-220.73 605.72,-227.42"/>
</g>
<!-- n6&#45;&gt;x4 -->
<g id="edge29" class="edge">
<title>n6:e&#45;&gt;x4:w</title>
<path fill="none" stroke="#d95f02" d="M579.31,-149C630.08,-149 647.65,-165.53 678.31,-206 697.97,-231.95 672.98,-254.29 696.31,-277 776.42,-355 830.73,-335.32 939.09,-334.06"/>
<polygon fill="#d95f02" stroke="#d95f02" points="939.42,-337.56 949.4,-334 939.38,-330.56 939.42,-337.56"/>
</g>
<!-- n6&#45;&gt;x13 -->
<g id="edge28" class="edge">
<title>n6:e&#45;&gt;x13:w</title>
<path fill="none" stroke="#d95f02" d="M579.31,-149C599.76,-149 594.81,-222.91 607.91,-244.28"/>
<polygon fill="#d95f02" stroke="#d95f02" points="606.07,-247.26 616.31,-250 610.01,-241.48 606.07,-247.26"/>
</g>
<!-- n7&#45;&gt;x4 -->
<g id="edge32" class="edge">
<title>n7:e&#45;&gt;x4:w</title>
<path fill="none" stroke="#1b9e77" d="M579.31,-440C709.68,-440 746.63,-444.24 870.31,-403 905.23,-391.36 908.6,-363.63 939.42,-358.74"/>
<polygon fill="#1b9e77" stroke="#1b9e77" points="939.69,-362.23 949.4,-358 939.17,-355.25 939.69,-362.23"/>
</g>
<!-- n7&#45;&gt;x13 -->
<g id="edge31" class="edge">
<title>n7:e&#45;&gt;x13:w</title>
<path fill="none" stroke="#1b9e77" d="M579.31,-440C613.41,-440 585.32,-304.84 607.28,-278.44"/>
<polygon fill="#1b9e77" stroke="#1b9e77" points="608.88,-281.55 616.31,-274 605.79,-275.27 608.88,-281.55"/>
</g>
<!-- n8&#45;&gt;x4 -->
<g id="edge35" class="edge">
<title>n8:e&#45;&gt;x4:w</title>
<path fill="none" stroke="#1b9e77" d="M579.31,-279C603.84,-279 600.64,-364.12 616.31,-383 656.38,-431.27 677.74,-437.66 738.31,-454 803.1,-471.48 834.64,-492.93 889.31,-454 909.23,-439.81 891.17,-420.38 907.31,-402 918.63,-389.11 925.63,-383.24 939.33,-381.54"/>
<polygon fill="#1b9e77" stroke="#1b9e77" points="939.61,-385.03 949.4,-381 939.23,-378.04 939.61,-385.03"/>
</g>
<!-- n8&#45;&gt;x13 -->
<g id="edge34" class="edge">
<title>n8:e&#45;&gt;x13:w</title>
<path fill="none" stroke="#1b9e77" d="M579.31,-279C593.6,-279 596.98,-289.99 606.5,-294.79"/>
<polygon fill="#1b9e77" stroke="#1b9e77" points="605.79,-298.22 616.31,-297 607.32,-291.39 605.79,-298.22"/>
</g>
</g>
</svg>
