<svg xmlns="http://www.w3.org/2000/svg" xmlns:xlink="http://www.w3.org/1999/xlink" xmlns:s="https://github.com/nturley/netlistsvg" width="835" height="460">
  <style>svg {
    stroke:#000;
    fill:none;
  }
  text {
    fill:#000;
    stroke:none;
    font-size:10px;
    font-weight: bold;
    font-family: "Courier New", monospace;
  }
  .nodelabel {
    text-anchor: middle;
  }
  .inputPortLabel {
    text-anchor: end;
  }
  .splitjoinBody {
    fill:#000;
  }</style>
  <g s:type="generic" transform="translate(209,342)" s:width="30" s:height="40" id="cell_$auto$opt_reduce.cc:128:opt_mux$23">
    <text x="15" y="-4" class="nodelabel cell_$auto$opt_reduce.cc:128:opt_mux$23" s:attribute="ref">$reduce_or</text>
    <rect width="30" height="20" s:generic="body" class="cell_$auto$opt_reduce.cc:128:opt_mux$23"/>
    <g transform="translate(0,10)" s:x="0" s:y="10" s:pid="in0" id="port_$auto$opt_reduce.cc:128:opt_mux$23~A">
      <text x="-3" y="-4" class="inputPortLabel cell_$auto$opt_reduce.cc:128:opt_mux$23">A</text>
    </g>
    <g transform="translate(30,10)" s:x="30" s:y="10" s:pid="out0" id="port_$auto$opt_reduce.cc:128:opt_mux$23~Y">
      <text x="5" y="-4" style="fill:#000; stroke:none" class="cell_$auto$opt_reduce.cc:128:opt_mux$23">Y</text>
    </g>
  </g>
  <g s:type="dff" transform="translate(759,397)" s:width="30" s:height="40" id="cell_$procdff$22">
    <s:alias val="$dff"/>
    <s:alias val="$_DFF_"/>
    <s:alias val="$_DFF_P_"/>
    <rect width="30" height="40" x="0" y="0" class="cell_$procdff$22"/>
    <path d="M0,35 L5,30 L0,25" class="cell_$procdff$22"/>
    <g s:x="30" s:y="10" s:pid="Q"/>
    <g s:x="0" s:y="30" s:pid="CLK"/>
    <g s:x="0" s:y="30" s:pid="C"/>
    <g s:x="0" s:y="10" s:pid="D"/>
  </g>
  <g s:type="mux" transform="translate(645,255)" s:width="20" s:height="40" id="cell_$procmux$10">
    <s:alias val="$pmux"/>
    <s:alias val="$mux"/>
    <s:alias val="$_MUX_"/>
    <path d="M0,0 L20,10 L20,30 L0,40 Z" class="cell_$procmux$10"/>
    <g s:x="0" s:y="10" s:pid="A"/>
    <g s:x="0" s:y="30" s:pid="B"/>
    <g s:x="10" s:y="35" s:pid="S"/>
    <g s:x="20" s:y="20" s:pid="Y"/>
  </g>
  <g s:type="mux" transform="translate(704,312)" s:width="20" s:height="40" id="cell_$procmux$13">
    <s:alias val="$pmux"/>
    <s:alias val="$mux"/>
    <s:alias val="$_MUX_"/>
    <path d="M0,0 L20,10 L20,30 L0,40 Z" class="cell_$procmux$13"/>
    <g s:x="0" s:y="10" s:pid="A"/>
    <g s:x="0" s:y="30" s:pid="B"/>
    <g s:x="10" s:y="35" s:pid="S"/>
    <g s:x="20" s:y="20" s:pid="Y"/>
  </g>
  <g s:type="mux" transform="translate(539,265)" s:width="20" s:height="40" id="cell_$procmux$16">
    <s:alias val="$pmux"/>
    <s:alias val="$mux"/>
    <s:alias val="$_MUX_"/>
    <path d="M0,0 L20,10 L20,30 L0,40 Z" class="cell_$procmux$16"/>
    <g s:x="0" s:y="10" s:pid="A"/>
    <g s:x="0" s:y="30" s:pid="B"/>
    <g s:x="10" s:y="35" s:pid="S"/>
    <g s:x="20" s:y="20" s:pid="Y"/>
  </g>
  <g s:type="eq" transform="translate(80.33333333333333,330)" s:width="25" s:height="25" id="cell_$procmux$17_CMP0">
    <s:alias val="$eq"/>
    <circle r="12.5" cx="12.5" cy="12.5" class="cell_$procmux$17_CMP0"/>
    <line x1="7.5" x2="17.5" y1="10" y2="10" class="cell_$procmux$17_CMP0"/>
    <line x1="7.5" x2="17.5" y1="15" y2="15" class="cell_$procmux$17_CMP0"/>
    <g s:x="3" s:y="5" s:pid="A"/>
    <g s:x="3" s:y="20" s:pid="B"/>
    <g s:x="25" s:y="12.5" s:pid="Y"/>
  </g>
  <g s:type="eq" transform="translate(80.33333333333333,22)" s:width="25" s:height="25" id="cell_$procmux$18_CMP0">
    <s:alias val="$eq"/>
    <circle r="12.5" cx="12.5" cy="12.5" class="cell_$procmux$18_CMP0"/>
    <line x1="7.5" x2="17.5" y1="10" y2="10" class="cell_$procmux$18_CMP0"/>
    <line x1="7.5" x2="17.5" y1="15" y2="15" class="cell_$procmux$18_CMP0"/>
    <g s:x="3" s:y="5" s:pid="A"/>
    <g s:x="3" s:y="20" s:pid="B"/>
    <g s:x="25" s:y="12.5" s:pid="Y"/>
  </g>
  <g s:type="eq" transform="translate(142,82)" s:width="25" s:height="25" id="cell_$procmux$19_CMP0">
    <s:alias val="$eq"/>
    <circle r="12.5" cx="12.5" cy="12.5" class="cell_$procmux$19_CMP0"/>
    <line x1="7.5" x2="17.5" y1="10" y2="10" class="cell_$procmux$19_CMP0"/>
    <line x1="7.5" x2="17.5" y1="15" y2="15" class="cell_$procmux$19_CMP0"/>
    <g s:x="3" s:y="5" s:pid="A"/>
    <g s:x="3" s:y="20" s:pid="B"/>
    <g s:x="25" s:y="12.5" s:pid="Y"/>
  </g>
  <g s:type="eq" transform="translate(142,147)" s:width="25" s:height="25" id="cell_$procmux$20_CMP0">
    <s:alias val="$eq"/>
    <circle r="12.5" cx="12.5" cy="12.5" class="cell_$procmux$20_CMP0"/>
    <line x1="7.5" x2="17.5" y1="10" y2="10" class="cell_$procmux$20_CMP0"/>
    <line x1="7.5" x2="17.5" y1="15" y2="15" class="cell_$procmux$20_CMP0"/>
    <g s:x="3" s:y="5" s:pid="A"/>
    <g s:x="3" s:y="20" s:pid="B"/>
    <g s:x="25" s:y="12.5" s:pid="Y"/>
  </g>
  <g s:type="eq" transform="translate(142,407)" s:width="25" s:height="25" id="cell_$procmux$21_CMP0">
    <s:alias val="$eq"/>
    <circle r="12.5" cx="12.5" cy="12.5" class="cell_$procmux$21_CMP0"/>
    <line x1="7.5" x2="17.5" y1="10" y2="10" class="cell_$procmux$21_CMP0"/>
    <line x1="7.5" x2="17.5" y1="15" y2="15" class="cell_$procmux$21_CMP0"/>
    <g s:x="3" s:y="5" s:pid="A"/>
    <g s:x="3" s:y="20" s:pid="B"/>
    <g s:x="25" s:y="12.5" s:pid="Y"/>
  </g>
  <g s:type="mux" transform="translate(704,91.5)" s:width="20" s:height="40" id="cell_$procmux$7">
    <s:alias val="$pmux"/>
    <s:alias val="$mux"/>
    <s:alias val="$_MUX_"/>
    <path d="M0,0 L20,10 L20,30 L0,40 Z" class="cell_$procmux$7"/>
    <g s:x="0" s:y="10" s:pid="A"/>
    <g s:x="0" s:y="30" s:pid="B"/>
    <g s:x="10" s:y="35" s:pid="S"/>
    <g s:x="20" s:y="20" s:pid="Y"/>
  </g>
  <g s:type="generic" transform="translate(520,129)" s:width="30" s:height="40" id="cell_$procmux$8_ANY">
    <text x="15" y="-4" class="nodelabel cell_$procmux$8_ANY" s:attribute="ref">$reduce_or</text>
    <rect width="30" height="20" s:generic="body" class="cell_$procmux$8_ANY"/>
    <g transform="translate(0,10)" s:x="0" s:y="10" s:pid="in0" id="port_$procmux$8_ANY~A">
      <text x="-3" y="-4" class="inputPortLabel cell_$procmux$8_ANY">A</text>
    </g>
    <g transform="translate(30,10)" s:x="30" s:y="10" s:pid="out0" id="port_$procmux$8_ANY~Y">
      <text x="5" y="-4" style="fill:#000; stroke:none" class="cell_$procmux$8_ANY">Y</text>
    </g>
  </g>
  <g s:type="inputExt" transform="translate(520,417)" s:width="30" s:height="20" id="cell_clk">
    <text x="15" y="-4" class="nodelabel cell_clk" s:attribute="ref">clk</text>
    <s:alias val="$_inputExt_"/>
    <path d="M0,0 L0,20 L15,20 L30,10 L15,0 Z" class="cell_clk"/>
    <g s:x="28" s:y="10" s:pid="Y"/>
  </g>
  <g s:type="inputExt" transform="translate(639,397)" s:width="30" s:height="20" id="cell_reset">
    <text x="15" y="-4" class="nodelabel cell_reset" s:attribute="ref">reset</text>
    <s:alias val="$_inputExt_"/>
    <path d="M0,0 L0,20 L15,20 L30,10 L15,0 Z" class="cell_reset"/>
    <g s:x="28" s:y="10" s:pid="Y"/>
  </g>
  <g s:type="outputExt" transform="translate(759,101.5)" s:width="30" s:height="20" id="cell_shift_ena">
    <text x="15" y="-4" class="nodelabel cell_shift_ena" s:attribute="ref">shift_ena</text>
    <s:alias val="$_outputExt_"/>
    <path d="M30,0 L30,20 L15,20 L0,10 L15,0 Z" class="cell_shift_ena"/>
    <g s:x="0" s:y="10" s:pid="A"/>
  </g>
  <g s:type="constant" transform="translate(639,332)" s:width="30" s:height="20" id="cell_001">
    <text x="15" y="-4" class="nodelabel cell_001" s:attribute="ref">001</text>
    <s:alias val="$_constant_"/>
    <rect width="30" height="20" class="cell_001"/>
    <g s:x="30" s:y="10" s:pid="Y"/>
  </g>
  <g s:type="constant" transform="translate(448,220)" s:width="30" s:height="20" id="cell_111">
    <text x="15" y="-4" class="nodelabel cell_111" s:attribute="ref">111</text>
    <s:alias val="$_constant_"/>
    <rect width="30" height="20" class="cell_111"/>
    <g s:x="30" s:y="10" s:pid="Y"/>
  </g>
  <g s:type="constant" transform="translate(448,285)" s:width="30" s:height="20" id="cell_010011100101">
    <text x="15" y="-4" class="nodelabel cell_010011100101" s:attribute="ref">0x4e5</text>
    <s:alias val="$_constant_"/>
    <rect width="30" height="20" class="cell_010011100101"/>
    <g s:x="30" s:y="10" s:pid="Y"/>
  </g>
  <g s:type="constant" transform="translate(12,340)" s:width="30" s:height="20" id="cell_101">
    <text x="15" y="-4" class="nodelabel cell_101" s:attribute="ref">101</text>
    <s:alias val="$_constant_"/>
    <rect width="30" height="20" class="cell_101"/>
    <g s:x="30" s:y="10" s:pid="Y"/>
  </g>
  <g s:type="constant" transform="translate(12,32)" s:width="30" s:height="20" id="cell_100">
    <text x="15" y="-4" class="nodelabel cell_100" s:attribute="ref">100</text>
    <s:alias val="$_constant_"/>
    <rect width="30" height="20" class="cell_100"/>
    <g s:x="30" s:y="10" s:pid="Y"/>
  </g>
  <g s:type="constant" transform="translate(77,92)" s:width="30" s:height="20" id="cell_11">
    <text x="15" y="-4" class="nodelabel cell_11" s:attribute="ref">11</text>
    <s:alias val="$_constant_"/>
    <rect width="30" height="20" class="cell_11"/>
    <g s:x="30" s:y="10" s:pid="Y"/>
  </g>
  <g s:type="constant" transform="translate(77,157)" s:width="30" s:height="20" id="cell_10">
    <text x="15" y="-4" class="nodelabel cell_10" s:attribute="ref">10</text>
    <s:alias val="$_constant_"/>
    <rect width="30" height="20" class="cell_10"/>
    <g s:x="30" s:y="10" s:pid="Y"/>
  </g>
  <g s:type="constant" transform="translate(77,417)" s:width="30" s:height="20" id="cell_1">
    <text x="15" y="-4" class="nodelabel cell_1" s:attribute="ref">1</text>
    <s:alias val="$_constant_"/>
    <rect width="30" height="20" class="cell_1"/>
    <g s:x="30" s:y="10" s:pid="Y"/>
  </g>
  <g s:type="constant" transform="translate(639,111.5)" s:width="30" s:height="20" id="cell_01">
    <text x="15" y="-4" class="nodelabel cell_01" s:attribute="ref">01</text>
    <s:alias val="$_constant_"/>
    <rect width="30" height="20" class="cell_01"/>
    <g s:x="30" s:y="10" s:pid="Y"/>
  </g>
  <g s:type="join" transform="translate(151.33333333333334,332)" s:width="4" s:height="40" id="cell_$join$,5,6,">
    <rect width="5" height="40" class="splitjoinBody" s:generic="body"/>
    <s:alias val="$_join_"/>
    <g s:x="5" s:y="20" s:pid="out"/>
    <g transform="translate(0,10)" s:x="0" s:y="10" s:pid="in0">
      <text x="-3" y="-4" class="inputPortLabel">0</text>
    </g>
    <g transform="translate(0,30)" s:x="0" s:y="10" s:pid="in0">
      <text x="-3" y="-4" class="inputPortLabel">1</text>
    </g>
  </g>
  <g s:type="join" transform="translate(459,342)" s:width="4" s:height="40" id="cell_$join$,7,20,21,22,">
    <rect width="5" height="40" class="splitjoinBody" s:generic="body"/>
    <s:alias val="$_join_"/>
    <g s:x="5" s:y="20" s:pid="out"/>
    <g transform="translate(0,10)" s:x="0" s:y="10" s:pid="in0">
      <text x="-3" y="-4" class="inputPortLabel">0</text>
    </g>
    <g transform="translate(0,30)" s:x="0" s:y="10" s:pid="in0">
      <text x="-3" y="-4" class="inputPortLabel">1:3</text>
    </g>
  </g>
  <g s:type="join" transform="translate(257.25,129)" s:width="4" s:height="40" id="cell_$join$,20,21,22,">
    <rect width="5" height="60" class="splitjoinBody" s:generic="body"/>
    <s:alias val="$_join_"/>
    <g s:x="5" s:y="20" s:pid="out"/>
    <g transform="translate(0,10)" s:x="0" s:y="10" s:pid="in0">
      <text x="-3" y="-4" class="inputPortLabel">0</text>
    </g>
    <g transform="translate(0,30)" s:x="0" s:y="10" s:pid="in0">
      <text x="-3" y="-4" class="inputPortLabel">1</text>
    </g>
    <g transform="translate(0,50)" s:x="0" s:y="10" s:pid="in0">
      <text x="-3" y="-4" class="inputPortLabel">2</text>
    </g>
  </g>
  <g s:type="join" transform="translate(650,168.5)" s:width="4" s:height="40" id="cell_$join$,23,5,">
    <rect width="5" height="40" class="splitjoinBody" s:generic="body"/>
    <s:alias val="$_join_"/>
    <g s:x="5" s:y="20" s:pid="out"/>
    <g transform="translate(0,10)" s:x="0" s:y="10" s:pid="in0">
      <text x="-3" y="-4" class="inputPortLabel">0</text>
    </g>
    <g transform="translate(0,30)" s:x="0" s:y="10" s:pid="in0">
      <text x="-3" y="-4" class="inputPortLabel">1</text>
    </g>
  </g>
  <g s:type="join" transform="translate(459,119)" s:width="4" s:height="40" id="cell_$join$,6,20,21,22,">
    <rect width="5" height="40" class="splitjoinBody" s:generic="body"/>
    <s:alias val="$_join_"/>
    <g s:x="5" s:y="20" s:pid="out"/>
    <g transform="translate(0,10)" s:x="0" s:y="10" s:pid="in0">
      <text x="-3" y="-4" class="inputPortLabel">0</text>
    </g>
    <g transform="translate(0,30)" s:x="0" s:y="10" s:pid="in0">
      <text x="-3" y="-4" class="inputPortLabel">1:3</text>
    </g>
  </g>
  <line x1="157.33333333333334" x2="209" y1="352.5" y2="352.5" class="net_5,6"/>
  <line x1="548" x2="759" y1="427" y2="427" class="net_2"/>
  <line x1="548" x2="614" y1="427" y2="427" class="net_2"/>
  <line x1="614" x2="614" y1="427" y2="312" class="net_2"/>
  <line x1="614" x2="655" y1="312" y2="312" class="net_2"/>
  <circle cx="614" cy="427" r="2" style="fill:#000" class="net_2"/>
  <line x1="655" x2="655" y1="312" y2="290" class="net_2"/>
  <line x1="724" x2="734" y1="332" y2="332" class="net_8,9,10"/>
  <line x1="734" x2="734" y1="332" y2="407" class="net_8,9,10"/>
  <line x1="734" x2="759" y1="407" y2="407" class="net_8,9,10"/>
  <line x1="789" x2="823" y1="407" y2="407" class="net_11,12,13"/>
  <line x1="823" x2="823" y1="407" y2="245" class="net_11,12,13"/>
  <line x1="823" x2="614" y1="245" y2="245" class="net_11,12,13"/>
  <line x1="614" x2="614" y1="245" y2="265" class="net_11,12,13"/>
  <circle cx="823" cy="245" r="2" style="fill:#000" class="net_11,12,13"/>
  <line x1="614" x2="645" y1="265" y2="265" class="net_11,12,13"/>
  <line x1="789" x2="823" y1="407" y2="407" class="net_11,12,13"/>
  <line x1="823" x2="823" y1="407" y2="447" class="net_11,12,13"/>
  <line x1="823" x2="52" y1="447" y2="447" class="net_11,12,13"/>
  <line x1="52" x2="52" y1="447" y2="335" class="net_11,12,13"/>
  <line x1="52" x2="83.33333333333333" y1="335" y2="335" class="net_11,12,13"/>
  <line x1="789" x2="823" y1="407" y2="407" class="net_11,12,13"/>
  <line x1="823" x2="823" y1="407" y2="12" class="net_11,12,13"/>
  <line x1="823" x2="52" y1="12" y2="12" class="net_11,12,13"/>
  <line x1="52" x2="52" y1="12" y2="27" class="net_11,12,13"/>
  <circle cx="823" cy="407" r="2" style="fill:#000" class="net_11,12,13"/>
  <line x1="52" x2="83.33333333333333" y1="27" y2="27" class="net_11,12,13"/>
  <line x1="789" x2="823" y1="407" y2="407" class="net_11,12,13"/>
  <line x1="823" x2="823" y1="407" y2="12" class="net_11,12,13"/>
  <line x1="823" x2="127" y1="12" y2="12" class="net_11,12,13"/>
  <line x1="127" x2="127" y1="12" y2="87" class="net_11,12,13"/>
  <circle cx="127" cy="87" r="2" style="fill:#000" class="net_11,12,13"/>
  <line x1="127" x2="145" y1="87" y2="87" class="net_11,12,13"/>
  <line x1="789" x2="823" y1="407" y2="407" class="net_11,12,13"/>
  <line x1="823" x2="823" y1="407" y2="12" class="net_11,12,13"/>
  <line x1="823" x2="127" y1="12" y2="12" class="net_11,12,13"/>
  <line x1="127" x2="127" y1="12" y2="152" class="net_11,12,13"/>
  <circle cx="127" cy="12" r="2" style="fill:#000" class="net_11,12,13"/>
  <line x1="127" x2="145" y1="152" y2="152" class="net_11,12,13"/>
  <line x1="789" x2="823" y1="407" y2="407" class="net_11,12,13"/>
  <line x1="823" x2="823" y1="407" y2="447" class="net_11,12,13"/>
  <line x1="823" x2="117" y1="447" y2="447" class="net_11,12,13"/>
  <line x1="117" x2="117" y1="447" y2="412" class="net_11,12,13"/>
  <circle cx="117" cy="447" r="2" style="fill:#000" class="net_11,12,13"/>
  <line x1="117" x2="145" y1="412" y2="412" class="net_11,12,13"/>
  <line x1="559" x2="645" y1="285" y2="285" class="net_14,15,16"/>
  <line x1="665" x2="679" y1="275" y2="275" class="net_17,18,19"/>
  <line x1="679" x2="679" y1="275" y2="322" class="net_17,18,19"/>
  <line x1="679" x2="704" y1="322" y2="322" class="net_17,18,19"/>
  <line x1="669" x2="704" y1="342" y2="342" class="net_24,25,26"/>
  <line x1="667" x2="714" y1="407" y2="407" class="net_3"/>
  <line x1="714" x2="714" y1="407" y2="347" class="net_3"/>
  <line x1="478" x2="488" y1="230" y2="230" class="net_27,28,29"/>
  <line x1="488" x2="488" y1="230" y2="275" class="net_27,28,29"/>
  <line x1="488" x2="539" y1="275" y2="275" class="net_27,28,29"/>
  <line x1="478" x2="539" y1="295" y2="295" class="net_30,31,32,33,34,35,36,37,38,39,40,41"/>
  <line x1="465" x2="549" y1="362.5" y2="362.5" class="net_7,20,21,22"/>
  <line x1="549" x2="549" y1="362.5" y2="300" class="net_7,20,21,22"/>
  <line x1="42" x2="83.33333333333333" y1="350" y2="350" class="net_42,43,44"/>
  <line x1="42" x2="83.33333333333333" y1="42" y2="42" class="net_45,46,47"/>
  <line x1="107" x2="145" y1="102" y2="102" class="net_48,49"/>
  <line x1="107" x2="145" y1="167" y2="167" class="net_50,51"/>
  <line x1="107" x2="145" y1="427" y2="427" class="net_52"/>
  <line x1="669" x2="704" y1="121.5" y2="121.5" class="net_53,54"/>
  <line x1="656" x2="714" y1="189" y2="189" class="net_23,5"/>
  <line x1="714" x2="714" y1="189" y2="126.5" class="net_23,5"/>
  <line x1="465" x2="520" y1="139.5" y2="139.5" class="net_6,20,21,22"/>
  <line x1="724" x2="759" y1="111.5" y2="111.5" class="net_4"/>
  <line x1="105.33333333333333" x2="151.33333333333334" y1="342.5" y2="342.5" class="net_5"/>
  <line x1="105.33333333333333" x2="127" y1="342.5" y2="342.5" class="net_5"/>
  <line x1="127" x2="127" y1="342.5" y2="199" class="net_5"/>
  <circle cx="127" cy="342.5" r="2" style="fill:#000" class="net_5"/>
  <line x1="127" x2="650" y1="199" y2="199" class="net_5"/>
  <line x1="105.33333333333333" x2="117" y1="34.5" y2="34.5" class="net_6"/>
  <line x1="117" x2="117" y1="34.5" y2="362.5" class="net_6"/>
  <circle cx="117" cy="34.5" r="2" style="fill:#000" class="net_6"/>
  <line x1="117" x2="151.33333333333334" y1="362.5" y2="362.5" class="net_6"/>
  <line x1="105.33333333333333" x2="423" y1="34.5" y2="34.5" class="net_6"/>
  <line x1="423" x2="423" y1="34.5" y2="129.5" class="net_6"/>
  <line x1="423" x2="459" y1="129.5" y2="129.5" class="net_6"/>
  <line x1="240" x2="459" y1="352.5" y2="352.5" class="net_7"/>
  <line x1="263.25" x2="423" y1="149.5" y2="149.5" class="net_20,21,22"/>
  <line x1="423" x2="423" y1="149.5" y2="372.5" class="net_20,21,22"/>
  <circle cx="423" cy="149.5" r="2" style="fill:#000" class="net_20,21,22"/>
  <line x1="423" x2="459" y1="372.5" y2="372.5" class="net_20,21,22"/>
  <line x1="263.25" x2="459" y1="149.5" y2="149.5" class="net_20,21,22"/>
  <line x1="167" x2="177" y1="94.5" y2="94.5" class="net_20"/>
  <line x1="177" x2="177" y1="94.5" y2="139.5" class="net_20"/>
  <line x1="177" x2="257.25" y1="139.5" y2="139.5" class="net_20"/>
  <line x1="167" x2="257.25" y1="159.5" y2="159.5" class="net_21"/>
  <line x1="167" x2="177" y1="419.5" y2="419.5" class="net_22"/>
  <line x1="177" x2="177" y1="419.5" y2="179.5" class="net_22"/>
  <line x1="177" x2="257.25" y1="179.5" y2="179.5" class="net_22"/>
  <line x1="551" x2="614" y1="139.5" y2="139.5" class="net_23"/>
  <line x1="614" x2="614" y1="139.5" y2="179" class="net_23"/>
  <line x1="614" x2="650" y1="179" y2="179" class="net_23"/>
</svg>
