<?xml version="1.0" encoding="UTF-8" standalone="no"?>
<!DOCTYPE svg PUBLIC "-//W3C//DTD SVG 1.1//EN"
 "http://www.w3.org/Graphics/SVG/1.1/DTD/svg11.dtd">
<!-- Generated by graphviz version 4.0.0 (20220529.0937)
 -->
<!-- Title: finite_state_machine Pages: 1 -->
<svg width="744pt" height="124pt"
 viewBox="0.00 0.00 743.66 123.97" xmlns="http://www.w3.org/2000/svg" xmlns:xlink="http://www.w3.org/1999/xlink">
<g id="graph0" class="graph" transform="scale(1 1) rotate(0) translate(4 119.97)">
<title>finite_state_machine</title>
<polygon fill="white" stroke="transparent" points="-4,4 -4,-119.97 739.66,-119.97 739.66,4 -4,4"/>
<!-- RESET -->
<g id="node1" class="node">
<title>RESET</title>
<ellipse fill="black" stroke="black" cx="1.8" cy="-57.98" rx="1.8" ry="1.8"/>
</g>
<!-- C1 -->
<g id="node2" class="node">
<title>C1</title>
<ellipse fill="none" stroke="black" cx="124.58" cy="-57.98" rx="57.97" ry="57.97"/>
<text text-anchor="middle" x="124.58" y="-61.78" font-family="Times New Roman,serif" font-size="14.00">C1</text>
<text text-anchor="middle" x="124.58" y="-46.78" font-family="Times New Roman,serif" font-size="14.00">shift_ena=1</text>
</g>
<!-- RESET&#45;&gt;C1 -->
<g id="edge1" class="edge">
<title>RESET&#45;&gt;C1</title>
<path fill="none" stroke="black" d="M4.16,-57.98C9.8,-57.98 32.27,-57.98 56.22,-57.98"/>
<polygon fill="black" stroke="black" points="56.53,-61.48 66.53,-57.98 56.53,-54.48 56.53,-61.48"/>
<text text-anchor="middle" x="35.1" y="-61.78" font-family="Times New Roman,serif" font-size="14.00">reset</text>
</g>
<!-- C2 -->
<g id="node3" class="node">
<title>C2</title>
<ellipse fill="none" stroke="black" cx="277.55" cy="-57.98" rx="57.97" ry="57.97"/>
<text text-anchor="middle" x="277.55" y="-61.78" font-family="Times New Roman,serif" font-size="14.00">C2</text>
<text text-anchor="middle" x="277.55" y="-46.78" font-family="Times New Roman,serif" font-size="14.00">shift_ena=1</text>
</g>
<!-- C1&#45;&gt;C2 -->
<g id="edge2" class="edge">
<title>C1&#45;&gt;C2</title>
<path fill="none" stroke="black" d="M182.66,-57.98C191.3,-57.98 200.28,-57.98 209.12,-57.98"/>
<polygon fill="black" stroke="black" points="209.39,-61.48 219.39,-57.98 209.39,-54.48 209.39,-61.48"/>
</g>
<!-- C3 -->
<g id="node4" class="node">
<title>C3</title>
<ellipse fill="none" stroke="black" cx="430.51" cy="-57.98" rx="57.97" ry="57.97"/>
<text text-anchor="middle" x="430.51" y="-61.78" font-family="Times New Roman,serif" font-size="14.00">C3</text>
<text text-anchor="middle" x="430.51" y="-46.78" font-family="Times New Roman,serif" font-size="14.00">shift_ena=1</text>
</g>
<!-- C2&#45;&gt;C3 -->
<g id="edge3" class="edge">
<title>C2&#45;&gt;C3</title>
<path fill="none" stroke="black" d="M335.62,-57.98C344.26,-57.98 353.25,-57.98 362.08,-57.98"/>
<polygon fill="black" stroke="black" points="362.36,-61.48 372.36,-57.98 362.36,-54.48 362.36,-61.48"/>
</g>
<!-- C4 -->
<g id="node5" class="node">
<title>C4</title>
<ellipse fill="none" stroke="black" cx="583.48" cy="-57.98" rx="57.97" ry="57.97"/>
<text text-anchor="middle" x="583.48" y="-61.78" font-family="Times New Roman,serif" font-size="14.00">C4</text>
<text text-anchor="middle" x="583.48" y="-46.78" font-family="Times New Roman,serif" font-size="14.00">shift_ena=1</text>
</g>
<!-- C3&#45;&gt;C4 -->
<g id="edge4" class="edge">
<title>C3&#45;&gt;C4</title>
<path fill="none" stroke="black" d="M488.59,-57.98C497.23,-57.98 506.21,-57.98 515.05,-57.98"/>
<polygon fill="black" stroke="black" points="515.33,-61.48 525.32,-57.98 515.32,-54.48 515.33,-61.48"/>
</g>
<!-- OFF -->
<g id="node6" class="node">
<title>OFF</title>
<ellipse fill="none" stroke="black" cx="707.06" cy="-57.98" rx="28.7" ry="28.7"/>
<text text-anchor="middle" x="707.06" y="-54.28" font-family="Times New Roman,serif" font-size="14.00">OFF</text>
</g>
<!-- C4&#45;&gt;OFF -->
<g id="edge5" class="edge">
<title>C4&#45;&gt;OFF</title>
<path fill="none" stroke="black" d="M641.71,-57.98C650.63,-57.98 659.65,-57.98 668.01,-57.98"/>
<polygon fill="black" stroke="black" points="668.17,-61.48 678.17,-57.98 668.17,-54.48 668.17,-61.48"/>
</g>
<!-- OFF&#45;&gt;OFF -->
<g id="edge6" class="edge">
<title>OFF&#45;&gt;OFF</title>
<path fill="none" stroke="black" d="M698.47,-85.26C698.09,-95.81 700.95,-104.58 707.06,-104.58 710.97,-104.58 713.56,-100.98 714.8,-95.62"/>
<polygon fill="black" stroke="black" points="718.33,-95.52 715.65,-85.26 711.35,-94.95 718.33,-95.52"/>
</g>
</g>
</svg>
