<svg xmlns="http://www.w3.org/2000/svg" xmlns:xlink="http://www.w3.org/1999/xlink" xmlns:s="https://github.com/nturley/netlistsvg" width="961" height="653">
  <style>svg {
    stroke:#000;
    fill:none;
  }
  text {
    fill:#000;
    stroke:none;
    font-size:10px;
    font-weight: bold;
    font-family: "Courier New", monospace;
  }
  .nodelabel {
    text-anchor: middle;
  }
  .inputPortLabel {
    text-anchor: end;
  }
  .splitjoinBody {
    fill:#000;
  }</style>
  <g s:type="and" transform="translate(167,556)" s:width="30" s:height="25" id="cell_$auto$aigmap.cc:123:execute$102">
    <s:alias val="$and"/>
    <s:alias val="$logic_and"/>
    <s:alias val="$_AND_"/>
    <path d="M0,0 L0,25 L15,25 A15 12.5 0 0 0 15,0 Z" class="cell_$auto$aigmap.cc:123:execute$102"/>
    <g s:x="0" s:y="5" s:pid="A"/>
    <g s:x="0" s:y="20" s:pid="B"/>
    <g s:x="30" s:y="12.5" s:pid="Y"/>
  </g>
  <g s:type="and" transform="translate(167,616)" s:width="30" s:height="25" id="cell_$auto$aigmap.cc:123:execute$106">
    <s:alias val="$and"/>
    <s:alias val="$logic_and"/>
    <s:alias val="$_AND_"/>
    <path d="M0,0 L0,25 L15,25 A15 12.5 0 0 0 15,0 Z" class="cell_$auto$aigmap.cc:123:execute$106"/>
    <g s:x="0" s:y="5" s:pid="A"/>
    <g s:x="0" s:y="20" s:pid="B"/>
    <g s:x="30" s:y="12.5" s:pid="Y"/>
  </g>
  <g s:type="and" transform="translate(297,608.5)" s:width="30" s:height="25" id="cell_$auto$aigmap.cc:123:execute$110">
    <s:alias val="$and"/>
    <s:alias val="$logic_and"/>
    <s:alias val="$_AND_"/>
    <path d="M0,0 L0,25 L15,25 A15 12.5 0 0 0 15,0 Z" class="cell_$auto$aigmap.cc:123:execute$110"/>
    <g s:x="0" s:y="5" s:pid="A"/>
    <g s:x="0" s:y="20" s:pid="B"/>
    <g s:x="30" s:y="12.5" s:pid="Y"/>
  </g>
  <g s:type="and" transform="translate(462,23)" s:width="30" s:height="25" id="cell_$auto$aigmap.cc:123:execute$16">
    <s:alias val="$and"/>
    <s:alias val="$logic_and"/>
    <s:alias val="$_AND_"/>
    <path d="M0,0 L0,25 L15,25 A15 12.5 0 0 0 15,0 Z" class="cell_$auto$aigmap.cc:123:execute$16"/>
    <g s:x="0" s:y="5" s:pid="A"/>
    <g s:x="0" s:y="20" s:pid="B"/>
    <g s:x="30" s:y="12.5" s:pid="Y"/>
  </g>
  <g s:type="and" transform="translate(462,83)" s:width="30" s:height="25" id="cell_$auto$aigmap.cc:123:execute$20">
    <s:alias val="$and"/>
    <s:alias val="$logic_and"/>
    <s:alias val="$_AND_"/>
    <path d="M0,0 L0,25 L15,25 A15 12.5 0 0 0 15,0 Z" class="cell_$auto$aigmap.cc:123:execute$20"/>
    <g s:x="0" s:y="5" s:pid="A"/>
    <g s:x="0" s:y="20" s:pid="B"/>
    <g s:x="30" s:y="12.5" s:pid="Y"/>
  </g>
  <g s:type="and" transform="translate(592,75.5)" s:width="30" s:height="25" id="cell_$auto$aigmap.cc:123:execute$24">
    <s:alias val="$and"/>
    <s:alias val="$logic_and"/>
    <s:alias val="$_AND_"/>
    <path d="M0,0 L0,25 L15,25 A15 12.5 0 0 0 15,0 Z" class="cell_$auto$aigmap.cc:123:execute$24"/>
    <g s:x="0" s:y="5" s:pid="A"/>
    <g s:x="0" s:y="20" s:pid="B"/>
    <g s:x="30" s:y="12.5" s:pid="Y"/>
  </g>
  <g s:type="and" transform="translate(462,265.5)" s:width="30" s:height="25" id="cell_$auto$aigmap.cc:123:execute$28">
    <s:alias val="$and"/>
    <s:alias val="$logic_and"/>
    <s:alias val="$_AND_"/>
    <path d="M0,0 L0,25 L15,25 A15 12.5 0 0 0 15,0 Z" class="cell_$auto$aigmap.cc:123:execute$28"/>
    <g s:x="0" s:y="5" s:pid="A"/>
    <g s:x="0" s:y="20" s:pid="B"/>
    <g s:x="30" s:y="12.5" s:pid="Y"/>
  </g>
  <g s:type="and" transform="translate(462,361)" s:width="30" s:height="25" id="cell_$auto$aigmap.cc:123:execute$32">
    <s:alias val="$and"/>
    <s:alias val="$logic_and"/>
    <s:alias val="$_AND_"/>
    <path d="M0,0 L0,25 L15,25 A15 12.5 0 0 0 15,0 Z" class="cell_$auto$aigmap.cc:123:execute$32"/>
    <g s:x="0" s:y="5" s:pid="A"/>
    <g s:x="0" s:y="20" s:pid="B"/>
    <g s:x="30" s:y="12.5" s:pid="Y"/>
  </g>
  <g s:type="and" transform="translate(592,353.5)" s:width="30" s:height="25" id="cell_$auto$aigmap.cc:123:execute$36">
    <s:alias val="$and"/>
    <s:alias val="$logic_and"/>
    <s:alias val="$_AND_"/>
    <path d="M0,0 L0,25 L15,25 A15 12.5 0 0 0 15,0 Z" class="cell_$auto$aigmap.cc:123:execute$36"/>
    <g s:x="0" s:y="5" s:pid="A"/>
    <g s:x="0" s:y="20" s:pid="B"/>
    <g s:x="30" s:y="12.5" s:pid="Y"/>
  </g>
  <g s:type="and" transform="translate(462,421)" s:width="30" s:height="25" id="cell_$auto$aigmap.cc:123:execute$40">
    <s:alias val="$and"/>
    <s:alias val="$logic_and"/>
    <s:alias val="$_AND_"/>
    <path d="M0,0 L0,25 L15,25 A15 12.5 0 0 0 15,0 Z" class="cell_$auto$aigmap.cc:123:execute$40"/>
    <g s:x="0" s:y="5" s:pid="A"/>
    <g s:x="0" s:y="20" s:pid="B"/>
    <g s:x="30" s:y="12.5" s:pid="Y"/>
  </g>
  <g s:type="and" transform="translate(462,481)" s:width="30" s:height="25" id="cell_$auto$aigmap.cc:123:execute$44">
    <s:alias val="$and"/>
    <s:alias val="$logic_and"/>
    <s:alias val="$_AND_"/>
    <path d="M0,0 L0,25 L15,25 A15 12.5 0 0 0 15,0 Z" class="cell_$auto$aigmap.cc:123:execute$44"/>
    <g s:x="0" s:y="5" s:pid="A"/>
    <g s:x="0" s:y="20" s:pid="B"/>
    <g s:x="30" s:y="12.5" s:pid="Y"/>
  </g>
  <g s:type="and" transform="translate(592,473.5)" s:width="30" s:height="25" id="cell_$auto$aigmap.cc:123:execute$48">
    <s:alias val="$and"/>
    <s:alias val="$logic_and"/>
    <s:alias val="$_AND_"/>
    <path d="M0,0 L0,25 L15,25 A15 12.5 0 0 0 15,0 Z" class="cell_$auto$aigmap.cc:123:execute$48"/>
    <g s:x="0" s:y="5" s:pid="A"/>
    <g s:x="0" s:y="20" s:pid="B"/>
    <g s:x="30" s:y="12.5" s:pid="Y"/>
  </g>
  <g s:type="and" transform="translate(462,541)" s:width="30" s:height="25" id="cell_$auto$aigmap.cc:123:execute$52">
    <s:alias val="$and"/>
    <s:alias val="$logic_and"/>
    <s:alias val="$_AND_"/>
    <path d="M0,0 L0,25 L15,25 A15 12.5 0 0 0 15,0 Z" class="cell_$auto$aigmap.cc:123:execute$52"/>
    <g s:x="0" s:y="5" s:pid="A"/>
    <g s:x="0" s:y="20" s:pid="B"/>
    <g s:x="30" s:y="12.5" s:pid="Y"/>
  </g>
  <g s:type="and" transform="translate(462,601)" s:width="30" s:height="25" id="cell_$auto$aigmap.cc:123:execute$56">
    <s:alias val="$and"/>
    <s:alias val="$logic_and"/>
    <s:alias val="$_AND_"/>
    <path d="M0,0 L0,25 L15,25 A15 12.5 0 0 0 15,0 Z" class="cell_$auto$aigmap.cc:123:execute$56"/>
    <g s:x="0" s:y="5" s:pid="A"/>
    <g s:x="0" s:y="20" s:pid="B"/>
    <g s:x="30" s:y="12.5" s:pid="Y"/>
  </g>
  <g s:type="and" transform="translate(592,593.5)" s:width="30" s:height="25" id="cell_$auto$aigmap.cc:123:execute$60">
    <s:alias val="$and"/>
    <s:alias val="$logic_and"/>
    <s:alias val="$_AND_"/>
    <path d="M0,0 L0,25 L15,25 A15 12.5 0 0 0 15,0 Z" class="cell_$auto$aigmap.cc:123:execute$60"/>
    <g s:x="0" s:y="5" s:pid="A"/>
    <g s:x="0" s:y="20" s:pid="B"/>
    <g s:x="30" s:y="12.5" s:pid="Y"/>
  </g>
  <g s:type="and" transform="translate(167,23)" s:width="30" s:height="25" id="cell_$auto$aigmap.cc:123:execute$66">
    <s:alias val="$and"/>
    <s:alias val="$logic_and"/>
    <s:alias val="$_AND_"/>
    <path d="M0,0 L0,25 L15,25 A15 12.5 0 0 0 15,0 Z" class="cell_$auto$aigmap.cc:123:execute$66"/>
    <g s:x="0" s:y="5" s:pid="A"/>
    <g s:x="0" s:y="20" s:pid="B"/>
    <g s:x="30" s:y="12.5" s:pid="Y"/>
  </g>
  <g s:type="and" transform="translate(167,83)" s:width="30" s:height="25" id="cell_$auto$aigmap.cc:123:execute$70">
    <s:alias val="$and"/>
    <s:alias val="$logic_and"/>
    <s:alias val="$_AND_"/>
    <path d="M0,0 L0,25 L15,25 A15 12.5 0 0 0 15,0 Z" class="cell_$auto$aigmap.cc:123:execute$70"/>
    <g s:x="0" s:y="5" s:pid="A"/>
    <g s:x="0" s:y="20" s:pid="B"/>
    <g s:x="30" s:y="12.5" s:pid="Y"/>
  </g>
  <g s:type="and" transform="translate(297,75.5)" s:width="30" s:height="25" id="cell_$auto$aigmap.cc:123:execute$74">
    <s:alias val="$and"/>
    <s:alias val="$logic_and"/>
    <s:alias val="$_AND_"/>
    <path d="M0,0 L0,25 L15,25 A15 12.5 0 0 0 15,0 Z" class="cell_$auto$aigmap.cc:123:execute$74"/>
    <g s:x="0" s:y="5" s:pid="A"/>
    <g s:x="0" s:y="20" s:pid="B"/>
    <g s:x="30" s:y="12.5" s:pid="Y"/>
  </g>
  <g s:type="and" transform="translate(167,143)" s:width="30" s:height="25" id="cell_$auto$aigmap.cc:123:execute$78">
    <s:alias val="$and"/>
    <s:alias val="$logic_and"/>
    <s:alias val="$_AND_"/>
    <path d="M0,0 L0,25 L15,25 A15 12.5 0 0 0 15,0 Z" class="cell_$auto$aigmap.cc:123:execute$78"/>
    <g s:x="0" s:y="5" s:pid="A"/>
    <g s:x="0" s:y="20" s:pid="B"/>
    <g s:x="30" s:y="12.5" s:pid="Y"/>
  </g>
  <g s:type="and" transform="translate(167,203)" s:width="30" s:height="25" id="cell_$auto$aigmap.cc:123:execute$82">
    <s:alias val="$and"/>
    <s:alias val="$logic_and"/>
    <s:alias val="$_AND_"/>
    <path d="M0,0 L0,25 L15,25 A15 12.5 0 0 0 15,0 Z" class="cell_$auto$aigmap.cc:123:execute$82"/>
    <g s:x="0" s:y="5" s:pid="A"/>
    <g s:x="0" s:y="20" s:pid="B"/>
    <g s:x="30" s:y="12.5" s:pid="Y"/>
  </g>
  <g s:type="and" transform="translate(297,195.5)" s:width="30" s:height="25" id="cell_$auto$aigmap.cc:123:execute$86">
    <s:alias val="$and"/>
    <s:alias val="$logic_and"/>
    <s:alias val="$_AND_"/>
    <path d="M0,0 L0,25 L15,25 A15 12.5 0 0 0 15,0 Z" class="cell_$auto$aigmap.cc:123:execute$86"/>
    <g s:x="0" s:y="5" s:pid="A"/>
    <g s:x="0" s:y="20" s:pid="B"/>
    <g s:x="30" s:y="12.5" s:pid="Y"/>
  </g>
  <g s:type="and" transform="translate(167,436)" s:width="30" s:height="25" id="cell_$auto$aigmap.cc:123:execute$90">
    <s:alias val="$and"/>
    <s:alias val="$logic_and"/>
    <s:alias val="$_AND_"/>
    <path d="M0,0 L0,25 L15,25 A15 12.5 0 0 0 15,0 Z" class="cell_$auto$aigmap.cc:123:execute$90"/>
    <g s:x="0" s:y="5" s:pid="A"/>
    <g s:x="0" s:y="20" s:pid="B"/>
    <g s:x="30" s:y="12.5" s:pid="Y"/>
  </g>
  <g s:type="and" transform="translate(167,496)" s:width="30" s:height="25" id="cell_$auto$aigmap.cc:123:execute$94">
    <s:alias val="$and"/>
    <s:alias val="$logic_and"/>
    <s:alias val="$_AND_"/>
    <path d="M0,0 L0,25 L15,25 A15 12.5 0 0 0 15,0 Z" class="cell_$auto$aigmap.cc:123:execute$94"/>
    <g s:x="0" s:y="5" s:pid="A"/>
    <g s:x="0" s:y="20" s:pid="B"/>
    <g s:x="30" s:y="12.5" s:pid="Y"/>
  </g>
  <g s:type="and" transform="translate(297,488.5)" s:width="30" s:height="25" id="cell_$auto$aigmap.cc:123:execute$98">
    <s:alias val="$and"/>
    <s:alias val="$logic_and"/>
    <s:alias val="$_AND_"/>
    <path d="M0,0 L0,25 L15,25 A15 12.5 0 0 0 15,0 Z" class="cell_$auto$aigmap.cc:123:execute$98"/>
    <g s:x="0" s:y="5" s:pid="A"/>
    <g s:x="0" s:y="20" s:pid="B"/>
    <g s:x="30" s:y="12.5" s:pid="Y"/>
  </g>
  <g s:type="not" transform="translate(362,491)" s:width="30" s:height="20" id="cell_$auto$aigmap.cc:132:execute$100">
    <s:alias val="$_NOT_"/>
    <s:alias val="$not"/>
    <s:alias val="$logic_not"/>
    <path d="M0,0 L0,20 L20,10 Z" class="cell_$auto$aigmap.cc:132:execute$100"/>
    <circle cx="23" cy="10" r="3" class="cell_$auto$aigmap.cc:132:execute$100"/>
    <g s:x="0" s:y="10" s:pid="A"/>
    <g s:x="25" s:y="10" s:pid="Y"/>
  </g>
  <g s:type="not" transform="translate(232,558.5)" s:width="30" s:height="20" id="cell_$auto$aigmap.cc:132:execute$104">
    <s:alias val="$_NOT_"/>
    <s:alias val="$not"/>
    <s:alias val="$logic_not"/>
    <path d="M0,0 L0,20 L20,10 Z" class="cell_$auto$aigmap.cc:132:execute$104"/>
    <circle cx="23" cy="10" r="3" class="cell_$auto$aigmap.cc:132:execute$104"/>
    <g s:x="0" s:y="10" s:pid="A"/>
    <g s:x="25" s:y="10" s:pid="Y"/>
  </g>
  <g s:type="not" transform="translate(232,618.5)" s:width="30" s:height="20" id="cell_$auto$aigmap.cc:132:execute$108">
    <s:alias val="$_NOT_"/>
    <s:alias val="$not"/>
    <s:alias val="$logic_not"/>
    <path d="M0,0 L0,20 L20,10 Z" class="cell_$auto$aigmap.cc:132:execute$108"/>
    <circle cx="23" cy="10" r="3" class="cell_$auto$aigmap.cc:132:execute$108"/>
    <g s:x="0" s:y="10" s:pid="A"/>
    <g s:x="25" s:y="10" s:pid="Y"/>
  </g>
  <g s:type="not" transform="translate(362,611)" s:width="30" s:height="20" id="cell_$auto$aigmap.cc:132:execute$112">
    <s:alias val="$_NOT_"/>
    <s:alias val="$not"/>
    <s:alias val="$logic_not"/>
    <path d="M0,0 L0,20 L20,10 Z" class="cell_$auto$aigmap.cc:132:execute$112"/>
    <circle cx="23" cy="10" r="3" class="cell_$auto$aigmap.cc:132:execute$112"/>
    <g s:x="0" s:y="10" s:pid="A"/>
    <g s:x="25" s:y="10" s:pid="Y"/>
  </g>
  <g s:type="not" transform="translate(362,356)" s:width="30" s:height="20" id="cell_$auto$aigmap.cc:132:execute$14">
    <s:alias val="$_NOT_"/>
    <s:alias val="$not"/>
    <s:alias val="$logic_not"/>
    <path d="M0,0 L0,20 L20,10 Z" class="cell_$auto$aigmap.cc:132:execute$14"/>
    <circle cx="23" cy="10" r="3" class="cell_$auto$aigmap.cc:132:execute$14"/>
    <g s:x="0" s:y="10" s:pid="A"/>
    <g s:x="25" s:y="10" s:pid="Y"/>
  </g>
  <g s:type="not" transform="translate(527,25.5)" s:width="30" s:height="20" id="cell_$auto$aigmap.cc:132:execute$18">
    <s:alias val="$_NOT_"/>
    <s:alias val="$not"/>
    <s:alias val="$logic_not"/>
    <path d="M0,0 L0,20 L20,10 Z" class="cell_$auto$aigmap.cc:132:execute$18"/>
    <circle cx="23" cy="10" r="3" class="cell_$auto$aigmap.cc:132:execute$18"/>
    <g s:x="0" s:y="10" s:pid="A"/>
    <g s:x="25" s:y="10" s:pid="Y"/>
  </g>
  <g s:type="not" transform="translate(527,85.5)" s:width="30" s:height="20" id="cell_$auto$aigmap.cc:132:execute$22">
    <s:alias val="$_NOT_"/>
    <s:alias val="$not"/>
    <s:alias val="$logic_not"/>
    <path d="M0,0 L0,20 L20,10 Z" class="cell_$auto$aigmap.cc:132:execute$22"/>
    <circle cx="23" cy="10" r="3" class="cell_$auto$aigmap.cc:132:execute$22"/>
    <g s:x="0" s:y="10" s:pid="A"/>
    <g s:x="25" s:y="10" s:pid="Y"/>
  </g>
  <g s:type="not" transform="translate(657,78)" s:width="30" s:height="20" id="cell_$auto$aigmap.cc:132:execute$26">
    <s:alias val="$_NOT_"/>
    <s:alias val="$not"/>
    <s:alias val="$logic_not"/>
    <path d="M0,0 L0,20 L20,10 Z" class="cell_$auto$aigmap.cc:132:execute$26"/>
    <circle cx="23" cy="10" r="3" class="cell_$auto$aigmap.cc:132:execute$26"/>
    <g s:x="0" s:y="10" s:pid="A"/>
    <g s:x="25" s:y="10" s:pid="Y"/>
  </g>
  <g s:type="not" transform="translate(527,268)" s:width="30" s:height="20" id="cell_$auto$aigmap.cc:132:execute$30">
    <s:alias val="$_NOT_"/>
    <s:alias val="$not"/>
    <s:alias val="$logic_not"/>
    <path d="M0,0 L0,20 L20,10 Z" class="cell_$auto$aigmap.cc:132:execute$30"/>
    <circle cx="23" cy="10" r="3" class="cell_$auto$aigmap.cc:132:execute$30"/>
    <g s:x="0" s:y="10" s:pid="A"/>
    <g s:x="25" s:y="10" s:pid="Y"/>
  </g>
  <g s:type="not" transform="translate(527,363.5)" s:width="30" s:height="20" id="cell_$auto$aigmap.cc:132:execute$34">
    <s:alias val="$_NOT_"/>
    <s:alias val="$not"/>
    <s:alias val="$logic_not"/>
    <path d="M0,0 L0,20 L20,10 Z" class="cell_$auto$aigmap.cc:132:execute$34"/>
    <circle cx="23" cy="10" r="3" class="cell_$auto$aigmap.cc:132:execute$34"/>
    <g s:x="0" s:y="10" s:pid="A"/>
    <g s:x="25" s:y="10" s:pid="Y"/>
  </g>
  <g s:type="not" transform="translate(657,356)" s:width="30" s:height="20" id="cell_$auto$aigmap.cc:132:execute$38">
    <s:alias val="$_NOT_"/>
    <s:alias val="$not"/>
    <s:alias val="$logic_not"/>
    <path d="M0,0 L0,20 L20,10 Z" class="cell_$auto$aigmap.cc:132:execute$38"/>
    <circle cx="23" cy="10" r="3" class="cell_$auto$aigmap.cc:132:execute$38"/>
    <g s:x="0" s:y="10" s:pid="A"/>
    <g s:x="25" s:y="10" s:pid="Y"/>
  </g>
  <g s:type="not" transform="translate(527,423.5)" s:width="30" s:height="20" id="cell_$auto$aigmap.cc:132:execute$42">
    <s:alias val="$_NOT_"/>
    <s:alias val="$not"/>
    <s:alias val="$logic_not"/>
    <path d="M0,0 L0,20 L20,10 Z" class="cell_$auto$aigmap.cc:132:execute$42"/>
    <circle cx="23" cy="10" r="3" class="cell_$auto$aigmap.cc:132:execute$42"/>
    <g s:x="0" s:y="10" s:pid="A"/>
    <g s:x="25" s:y="10" s:pid="Y"/>
  </g>
  <g s:type="not" transform="translate(527,483.5)" s:width="30" s:height="20" id="cell_$auto$aigmap.cc:132:execute$46">
    <s:alias val="$_NOT_"/>
    <s:alias val="$not"/>
    <s:alias val="$logic_not"/>
    <path d="M0,0 L0,20 L20,10 Z" class="cell_$auto$aigmap.cc:132:execute$46"/>
    <circle cx="23" cy="10" r="3" class="cell_$auto$aigmap.cc:132:execute$46"/>
    <g s:x="0" s:y="10" s:pid="A"/>
    <g s:x="25" s:y="10" s:pid="Y"/>
  </g>
  <g s:type="not" transform="translate(657,476)" s:width="30" s:height="20" id="cell_$auto$aigmap.cc:132:execute$50">
    <s:alias val="$_NOT_"/>
    <s:alias val="$not"/>
    <s:alias val="$logic_not"/>
    <path d="M0,0 L0,20 L20,10 Z" class="cell_$auto$aigmap.cc:132:execute$50"/>
    <circle cx="23" cy="10" r="3" class="cell_$auto$aigmap.cc:132:execute$50"/>
    <g s:x="0" s:y="10" s:pid="A"/>
    <g s:x="25" s:y="10" s:pid="Y"/>
  </g>
  <g s:type="not" transform="translate(527,543.5)" s:width="30" s:height="20" id="cell_$auto$aigmap.cc:132:execute$54">
    <s:alias val="$_NOT_"/>
    <s:alias val="$not"/>
    <s:alias val="$logic_not"/>
    <path d="M0,0 L0,20 L20,10 Z" class="cell_$auto$aigmap.cc:132:execute$54"/>
    <circle cx="23" cy="10" r="3" class="cell_$auto$aigmap.cc:132:execute$54"/>
    <g s:x="0" s:y="10" s:pid="A"/>
    <g s:x="25" s:y="10" s:pid="Y"/>
  </g>
  <g s:type="not" transform="translate(527,603.5)" s:width="30" s:height="20" id="cell_$auto$aigmap.cc:132:execute$58">
    <s:alias val="$_NOT_"/>
    <s:alias val="$not"/>
    <s:alias val="$logic_not"/>
    <path d="M0,0 L0,20 L20,10 Z" class="cell_$auto$aigmap.cc:132:execute$58"/>
    <circle cx="23" cy="10" r="3" class="cell_$auto$aigmap.cc:132:execute$58"/>
    <g s:x="0" s:y="10" s:pid="A"/>
    <g s:x="25" s:y="10" s:pid="Y"/>
  </g>
  <g s:type="not" transform="translate(657,596)" s:width="30" s:height="20" id="cell_$auto$aigmap.cc:132:execute$62">
    <s:alias val="$_NOT_"/>
    <s:alias val="$not"/>
    <s:alias val="$logic_not"/>
    <path d="M0,0 L0,20 L20,10 Z" class="cell_$auto$aigmap.cc:132:execute$62"/>
    <circle cx="23" cy="10" r="3" class="cell_$auto$aigmap.cc:132:execute$62"/>
    <g s:x="0" s:y="10" s:pid="A"/>
    <g s:x="25" s:y="10" s:pid="Y"/>
  </g>
  <g s:type="not" transform="translate(77,491)" s:width="30" s:height="20" id="cell_$auto$aigmap.cc:132:execute$64">
    <s:alias val="$_NOT_"/>
    <s:alias val="$not"/>
    <s:alias val="$logic_not"/>
    <path d="M0,0 L0,20 L20,10 Z" class="cell_$auto$aigmap.cc:132:execute$64"/>
    <circle cx="23" cy="10" r="3" class="cell_$auto$aigmap.cc:132:execute$64"/>
    <g s:x="0" s:y="10" s:pid="A"/>
    <g s:x="25" s:y="10" s:pid="Y"/>
  </g>
  <g s:type="not" transform="translate(232,25.5)" s:width="30" s:height="20" id="cell_$auto$aigmap.cc:132:execute$68">
    <s:alias val="$_NOT_"/>
    <s:alias val="$not"/>
    <s:alias val="$logic_not"/>
    <path d="M0,0 L0,20 L20,10 Z" class="cell_$auto$aigmap.cc:132:execute$68"/>
    <circle cx="23" cy="10" r="3" class="cell_$auto$aigmap.cc:132:execute$68"/>
    <g s:x="0" s:y="10" s:pid="A"/>
    <g s:x="25" s:y="10" s:pid="Y"/>
  </g>
  <g s:type="not" transform="translate(232,85.5)" s:width="30" s:height="20" id="cell_$auto$aigmap.cc:132:execute$72">
    <s:alias val="$_NOT_"/>
    <s:alias val="$not"/>
    <s:alias val="$logic_not"/>
    <path d="M0,0 L0,20 L20,10 Z" class="cell_$auto$aigmap.cc:132:execute$72"/>
    <circle cx="23" cy="10" r="3" class="cell_$auto$aigmap.cc:132:execute$72"/>
    <g s:x="0" s:y="10" s:pid="A"/>
    <g s:x="25" s:y="10" s:pid="Y"/>
  </g>
  <g s:type="not" transform="translate(362,78)" s:width="30" s:height="20" id="cell_$auto$aigmap.cc:132:execute$76">
    <s:alias val="$_NOT_"/>
    <s:alias val="$not"/>
    <s:alias val="$logic_not"/>
    <path d="M0,0 L0,20 L20,10 Z" class="cell_$auto$aigmap.cc:132:execute$76"/>
    <circle cx="23" cy="10" r="3" class="cell_$auto$aigmap.cc:132:execute$76"/>
    <g s:x="0" s:y="10" s:pid="A"/>
    <g s:x="25" s:y="10" s:pid="Y"/>
  </g>
  <g s:type="not" transform="translate(232,145.5)" s:width="30" s:height="20" id="cell_$auto$aigmap.cc:132:execute$80">
    <s:alias val="$_NOT_"/>
    <s:alias val="$not"/>
    <s:alias val="$logic_not"/>
    <path d="M0,0 L0,20 L20,10 Z" class="cell_$auto$aigmap.cc:132:execute$80"/>
    <circle cx="23" cy="10" r="3" class="cell_$auto$aigmap.cc:132:execute$80"/>
    <g s:x="0" s:y="10" s:pid="A"/>
    <g s:x="25" s:y="10" s:pid="Y"/>
  </g>
  <g s:type="not" transform="translate(232,205.5)" s:width="30" s:height="20" id="cell_$auto$aigmap.cc:132:execute$84">
    <s:alias val="$_NOT_"/>
    <s:alias val="$not"/>
    <s:alias val="$logic_not"/>
    <path d="M0,0 L0,20 L20,10 Z" class="cell_$auto$aigmap.cc:132:execute$84"/>
    <circle cx="23" cy="10" r="3" class="cell_$auto$aigmap.cc:132:execute$84"/>
    <g s:x="0" s:y="10" s:pid="A"/>
    <g s:x="25" s:y="10" s:pid="Y"/>
  </g>
  <g s:type="not" transform="translate(362,198)" s:width="30" s:height="20" id="cell_$auto$aigmap.cc:132:execute$88">
    <s:alias val="$_NOT_"/>
    <s:alias val="$not"/>
    <s:alias val="$logic_not"/>
    <path d="M0,0 L0,20 L20,10 Z" class="cell_$auto$aigmap.cc:132:execute$88"/>
    <circle cx="23" cy="10" r="3" class="cell_$auto$aigmap.cc:132:execute$88"/>
    <g s:x="0" s:y="10" s:pid="A"/>
    <g s:x="25" s:y="10" s:pid="Y"/>
  </g>
  <g s:type="not" transform="translate(232,438.5)" s:width="30" s:height="20" id="cell_$auto$aigmap.cc:132:execute$92">
    <s:alias val="$_NOT_"/>
    <s:alias val="$not"/>
    <s:alias val="$logic_not"/>
    <path d="M0,0 L0,20 L20,10 Z" class="cell_$auto$aigmap.cc:132:execute$92"/>
    <circle cx="23" cy="10" r="3" class="cell_$auto$aigmap.cc:132:execute$92"/>
    <g s:x="0" s:y="10" s:pid="A"/>
    <g s:x="25" s:y="10" s:pid="Y"/>
  </g>
  <g s:type="not" transform="translate(232,498.5)" s:width="30" s:height="20" id="cell_$auto$aigmap.cc:132:execute$96">
    <s:alias val="$_NOT_"/>
    <s:alias val="$not"/>
    <s:alias val="$logic_not"/>
    <path d="M0,0 L0,20 L20,10 Z" class="cell_$auto$aigmap.cc:132:execute$96"/>
    <circle cx="23" cy="10" r="3" class="cell_$auto$aigmap.cc:132:execute$96"/>
    <g s:x="0" s:y="10" s:pid="A"/>
    <g s:x="25" s:y="10" s:pid="Y"/>
  </g>
  <g s:type="generic" transform="translate(818,405.5)" s:width="30" s:height="40" id="cell_$procdff$12">
    <text x="15" y="-4" class="nodelabel cell_$procdff$12" s:attribute="ref">$adff</text>
    <rect width="30" height="60" s:generic="body" class="cell_$procdff$12"/>
    <g transform="translate(0,10)" s:x="0" s:y="10" s:pid="in0" id="port_$procdff$12~ARST">
      <text x="-3" y="-4" class="inputPortLabel cell_$procdff$12">ARST</text>
    </g>
    <g transform="translate(0,30)" s:x="0" s:y="10" s:pid="in0" id="port_$procdff$12~CLK">
      <text x="-3" y="-4" class="inputPortLabel cell_$procdff$12">CLK</text>
    </g>
    <g transform="translate(0,50)" s:x="0" s:y="10" s:pid="in0" id="port_$procdff$12~D">
      <text x="-3" y="-4" class="inputPortLabel cell_$procdff$12">D</text>
    </g>
    <g transform="translate(30,10)" s:x="30" s:y="10" s:pid="out0" id="port_$procdff$12~Q">
      <text x="5" y="-4" style="fill:#000; stroke:none" class="cell_$procdff$12">Q</text>
    </g>
  </g>
  <g s:type="inputExt" transform="translate(722,380.5)" s:width="30" s:height="20" id="cell_clk">
    <text x="15" y="-4" class="nodelabel cell_clk" s:attribute="ref">clk</text>
    <s:alias val="$_inputExt_"/>
    <path d="M0,0 L0,20 L15,20 L30,10 L15,0 Z" class="cell_clk"/>
    <g s:x="28" s:y="10" s:pid="Y"/>
  </g>
  <g s:type="inputExt" transform="translate(722,315.5)" s:width="30" s:height="20" id="cell_areset">
    <text x="15" y="-4" class="nodelabel cell_areset" s:attribute="ref">areset</text>
    <s:alias val="$_inputExt_"/>
    <path d="M0,0 L0,20 L15,20 L30,10 L15,0 Z" class="cell_areset"/>
    <g s:x="28" s:y="10" s:pid="Y"/>
  </g>
  <g s:type="inputExt" transform="translate(297,335)" s:width="30" s:height="20" id="cell_load">
    <text x="15" y="-4" class="nodelabel cell_load" s:attribute="ref">load</text>
    <s:alias val="$_inputExt_"/>
    <path d="M0,0 L0,20 L15,20 L30,10 L15,0 Z" class="cell_load"/>
    <g s:x="28" s:y="10" s:pid="Y"/>
  </g>
  <g s:type="inputExt" transform="translate(12,431)" s:width="30" s:height="20" id="cell_ena">
    <text x="15" y="-4" class="nodelabel cell_ena" s:attribute="ref">ena</text>
    <s:alias val="$_inputExt_"/>
    <path d="M0,0 L0,20 L15,20 L30,10 L15,0 Z" class="cell_ena"/>
    <g s:x="28" s:y="10" s:pid="Y"/>
  </g>
  <g s:type="inputExt" transform="translate(297,265.5)" s:width="30" s:height="20" id="cell_data">
    <text x="15" y="-4" class="nodelabel cell_data" s:attribute="ref">data</text>
    <s:alias val="$_inputExt_"/>
    <path d="M0,0 L0,20 L15,20 L30,10 L15,0 Z" class="cell_data"/>
    <g s:x="28" s:y="10" s:pid="Y"/>
  </g>
  <g s:type="outputExt" transform="translate(919,406)" s:width="30" s:height="20" id="cell_q">
    <text x="15" y="-4" class="nodelabel cell_q" s:attribute="ref">q</text>
    <s:alias val="$_outputExt_"/>
    <path d="M30,0 L30,20 L15,20 L0,10 L15,0 Z" class="cell_q"/>
    <g s:x="0" s:y="10" s:pid="A"/>
  </g>
  <g s:type="constant" transform="translate(77,566)" s:width="30" s:height="20" id="cell_0">
    <text x="15" y="-4" class="nodelabel cell_0" s:attribute="ref">0</text>
    <s:alias val="$_constant_"/>
    <rect width="30" height="20" class="cell_0"/>
    <g s:x="30" s:y="10" s:pid="Y"/>
  </g>
  <g s:type="join" transform="translate(733.5,435.5)" s:width="4" s:height="40" id="cell_$join$,60,61,62,63,">
    <rect width="5" height="80" class="splitjoinBody" s:generic="body"/>
    <s:alias val="$_join_"/>
    <g s:x="5" s:y="20" s:pid="out"/>
    <g transform="translate(0,10)" s:x="0" s:y="10" s:pid="in0">
      <text x="-3" y="-4" class="inputPortLabel">0</text>
    </g>
    <g transform="translate(0,30)" s:x="0" s:y="10" s:pid="in0">
      <text x="-3" y="-4" class="inputPortLabel">1</text>
    </g>
    <g transform="translate(0,50)" s:x="0" s:y="10" s:pid="in0">
      <text x="-3" y="-4" class="inputPortLabel">2</text>
    </g>
    <g transform="translate(0,70)" s:x="0" s:y="10" s:pid="in0">
      <text x="-3" y="-4" class="inputPortLabel">3</text>
    </g>
  </g>
  <g s:type="split" transform="translate(95,192.5)" s:width="5" s:height="40" id="cell_$split$,10,11,12,13,">
    <rect width="5" height="80" class="splitjoinBody" s:generic="body"/>
    <s:alias val="$_split_"/>
    <g s:x="0" s:y="20" s:pid="in"/>
    <g transform="translate(4,10)" s:x="4" s:y="10" s:pid="out0">
      <text x="5" y="-4">3</text>
    </g>
    <g transform="translate(4,30)" s:x="4" s:y="10" s:pid="out0">
      <text x="5" y="-4">1</text>
    </g>
    <g transform="translate(4,50)" s:x="4" s:y="10" s:pid="out0">
      <text x="5" y="-4">0</text>
    </g>
    <g transform="translate(4,70)" s:x="4" s:y="10" s:pid="out0">
      <text x="5" y="-4">2</text>
    </g>
  </g>
  <g s:type="split" transform="translate(377.8,255)" s:width="5" s:height="40" id="cell_$split$,6,7,8,9,">
    <rect width="5" height="80" class="splitjoinBody" s:generic="body"/>
    <s:alias val="$_split_"/>
    <g s:x="0" s:y="20" s:pid="in"/>
    <g transform="translate(4,10)" s:x="4" s:y="10" s:pid="out0">
      <text x="5" y="-4">0</text>
    </g>
    <g transform="translate(4,30)" s:x="4" s:y="10" s:pid="out0">
      <text x="5" y="-4">1</text>
    </g>
    <g transform="translate(4,50)" s:x="4" s:y="10" s:pid="out0">
      <text x="5" y="-4">2</text>
    </g>
    <g transform="translate(4,70)" s:x="4" s:y="10" s:pid="out0">
      <text x="5" y="-4">3</text>
    </g>
  </g>
  <line x1="40" x2="62" y1="441" y2="441" class="net_5"/>
  <line x1="62" x2="62" y1="441" y2="545" class="net_5"/>
  <line x1="62" x2="127" y1="545" y2="545" class="net_5"/>
  <line x1="127" x2="127" y1="545" y2="561" class="net_5"/>
  <circle cx="62" cy="441" r="2" style="fill:#000" class="net_5"/>
  <line x1="127" x2="167" y1="561" y2="561" class="net_5"/>
  <line x1="40" x2="62" y1="441" y2="441" class="net_5"/>
  <line x1="62" x2="62" y1="441" y2="148" class="net_5"/>
  <line x1="62" x2="117" y1="148" y2="148" class="net_5"/>
  <line x1="117" x2="117" y1="148" y2="28" class="net_5"/>
  <circle cx="117" cy="148" r="2" style="fill:#000" class="net_5"/>
  <line x1="117" x2="167" y1="28" y2="28" class="net_5"/>
  <line x1="40" x2="62" y1="441" y2="441" class="net_5"/>
  <line x1="62" x2="62" y1="441" y2="148" class="net_5"/>
  <line x1="62" x2="167" y1="148" y2="148" class="net_5"/>
  <line x1="40" x2="167" y1="441" y2="441" class="net_5"/>
  <line x1="40" x2="62" y1="441" y2="441" class="net_5"/>
  <line x1="62" x2="62" y1="441" y2="501" class="net_5"/>
  <circle cx="62" cy="501" r="2" style="fill:#000" class="net_5"/>
  <line x1="62" x2="77" y1="501" y2="501" class="net_5"/>
  <line x1="107" x2="167" y1="576" y2="576" class="net_64"/>
  <line x1="102" x2="147" y1="501" y2="501" class="net_15"/>
  <line x1="147" x2="147" y1="501" y2="621" class="net_15"/>
  <circle cx="147" cy="501" r="2" style="fill:#000" class="net_15"/>
  <line x1="147" x2="167" y1="621" y2="621" class="net_15"/>
  <line x1="102" x2="147" y1="501" y2="501" class="net_15"/>
  <line x1="147" x2="147" y1="501" y2="103" class="net_15"/>
  <line x1="147" x2="167" y1="103" y2="103" class="net_15"/>
  <line x1="102" x2="147" y1="501" y2="501" class="net_15"/>
  <line x1="147" x2="147" y1="501" y2="208" class="net_15"/>
  <circle cx="147" cy="208" r="2" style="fill:#000" class="net_15"/>
  <line x1="147" x2="167" y1="208" y2="208" class="net_15"/>
  <line x1="102" x2="167" y1="501" y2="501" class="net_15"/>
  <line x1="100" x2="117" y1="203" y2="203" class="net_13"/>
  <line x1="117" x2="117" y1="203" y2="636" class="net_13"/>
  <line x1="117" x2="167" y1="636" y2="636" class="net_13"/>
  <line x1="100" x2="117" y1="203" y2="203" class="net_13"/>
  <line x1="117" x2="117" y1="203" y2="456" class="net_13"/>
  <circle cx="117" cy="456" r="2" style="fill:#000" class="net_13"/>
  <line x1="117" x2="167" y1="456" y2="456" class="net_13"/>
  <line x1="257" x2="272" y1="568.5" y2="568.5" class="net_17"/>
  <line x1="272" x2="272" y1="568.5" y2="613.5" class="net_17"/>
  <line x1="272" x2="297" y1="613.5" y2="613.5" class="net_17"/>
  <line x1="257" x2="297" y1="628.5" y2="628.5" class="net_18"/>
  <line x1="325" x2="337" y1="345" y2="345" class="net_4"/>
  <line x1="337" x2="337" y1="345" y2="28" class="net_4"/>
  <circle cx="337" cy="345" r="2" style="fill:#000" class="net_4"/>
  <line x1="337" x2="462" y1="28" y2="28" class="net_4"/>
  <line x1="325" x2="337" y1="345" y2="345" class="net_4"/>
  <line x1="337" x2="337" y1="345" y2="187" class="net_4"/>
  <line x1="337" x2="452" y1="187" y2="187" class="net_4"/>
  <line x1="452" x2="452" y1="187" y2="270.5" class="net_4"/>
  <circle cx="337" cy="187" r="2" style="fill:#000" class="net_4"/>
  <line x1="452" x2="462" y1="270.5" y2="270.5" class="net_4"/>
  <line x1="325" x2="412" y1="345" y2="345" class="net_4"/>
  <line x1="412" x2="412" y1="345" y2="426" class="net_4"/>
  <line x1="412" x2="462" y1="426" y2="426" class="net_4"/>
  <line x1="325" x2="337" y1="345" y2="345" class="net_4"/>
  <line x1="337" x2="337" y1="345" y2="546" class="net_4"/>
  <line x1="337" x2="462" y1="546" y2="546" class="net_4"/>
  <line x1="325" x2="337" y1="345" y2="345" class="net_4"/>
  <line x1="337" x2="337" y1="345" y2="366" class="net_4"/>
  <circle cx="337" cy="366" r="2" style="fill:#000" class="net_4"/>
  <line x1="337" x2="362" y1="366" y2="366" class="net_4"/>
  <line x1="382.8" x2="402" y1="265.5" y2="265.5" class="net_6"/>
  <line x1="402" x2="402" y1="265.5" y2="43" class="net_6"/>
  <line x1="402" x2="462" y1="43" y2="43" class="net_6"/>
  <line x1="387" x2="462" y1="88" y2="88" class="net_21"/>
  <line x1="387" x2="442" y1="366" y2="366" class="net_22"/>
  <line x1="442" x2="442" y1="366" y2="103" class="net_22"/>
  <circle cx="442" cy="366" r="2" style="fill:#000" class="net_22"/>
  <line x1="442" x2="462" y1="103" y2="103" class="net_22"/>
  <line x1="387" x2="462" y1="366" y2="366" class="net_22"/>
  <line x1="387" x2="442" y1="366" y2="366" class="net_22"/>
  <line x1="442" x2="442" y1="366" y2="486" class="net_22"/>
  <circle cx="442" cy="486" r="2" style="fill:#000" class="net_22"/>
  <line x1="442" x2="462" y1="486" y2="486" class="net_22"/>
  <line x1="387" x2="442" y1="366" y2="366" class="net_22"/>
  <line x1="442" x2="442" y1="366" y2="606" class="net_22"/>
  <line x1="442" x2="462" y1="606" y2="606" class="net_22"/>
  <line x1="552" x2="567" y1="35.5" y2="35.5" class="net_24"/>
  <line x1="567" x2="567" y1="35.5" y2="80.5" class="net_24"/>
  <line x1="567" x2="592" y1="80.5" y2="80.5" class="net_24"/>
  <line x1="552" x2="592" y1="95.5" y2="95.5" class="net_25"/>
  <line x1="382.8" x2="462" y1="285.5" y2="285.5" class="net_7"/>
  <line x1="387" x2="432" y1="208" y2="208" class="net_28"/>
  <line x1="432" x2="432" y1="208" y2="381" class="net_28"/>
  <line x1="432" x2="462" y1="381" y2="381" class="net_28"/>
  <line x1="552" x2="567" y1="278" y2="278" class="net_30"/>
  <line x1="567" x2="567" y1="278" y2="358.5" class="net_30"/>
  <line x1="567" x2="592" y1="358.5" y2="358.5" class="net_30"/>
  <line x1="552" x2="592" y1="373.5" y2="373.5" class="net_31"/>
  <line x1="382.8" x2="422" y1="305.5" y2="305.5" class="net_8"/>
  <line x1="422" x2="422" y1="305.5" y2="441" class="net_8"/>
  <line x1="422" x2="462" y1="441" y2="441" class="net_8"/>
  <line x1="387" x2="462" y1="501" y2="501" class="net_34"/>
  <line x1="552" x2="567" y1="433.5" y2="433.5" class="net_36"/>
  <line x1="567" x2="567" y1="433.5" y2="478.5" class="net_36"/>
  <line x1="567" x2="592" y1="478.5" y2="478.5" class="net_36"/>
  <line x1="552" x2="592" y1="493.5" y2="493.5" class="net_37"/>
  <line x1="382.8" x2="402" y1="325.5" y2="325.5" class="net_9"/>
  <line x1="402" x2="402" y1="325.5" y2="561" class="net_9"/>
  <line x1="402" x2="462" y1="561" y2="561" class="net_9"/>
  <line x1="387" x2="462" y1="621" y2="621" class="net_40"/>
  <line x1="552" x2="567" y1="553.5" y2="553.5" class="net_42"/>
  <line x1="567" x2="567" y1="553.5" y2="598.5" class="net_42"/>
  <line x1="567" x2="592" y1="598.5" y2="598.5" class="net_42"/>
  <line x1="552" x2="592" y1="613.5" y2="613.5" class="net_43"/>
  <line x1="100" x2="127" y1="223" y2="223" class="net_11"/>
  <line x1="127" x2="127" y1="223" y2="43" class="net_11"/>
  <circle cx="127" cy="223" r="2" style="fill:#000" class="net_11"/>
  <line x1="127" x2="167" y1="43" y2="43" class="net_11"/>
  <line x1="100" x2="167" y1="223" y2="223" class="net_11"/>
  <line x1="100" x2="137" y1="243" y2="243" class="net_10"/>
  <line x1="137" x2="137" y1="243" y2="88" class="net_10"/>
  <line x1="137" x2="167" y1="88" y2="88" class="net_10"/>
  <line x1="257" x2="272" y1="35.5" y2="35.5" class="net_47"/>
  <line x1="272" x2="272" y1="35.5" y2="80.5" class="net_47"/>
  <line x1="272" x2="297" y1="80.5" y2="80.5" class="net_47"/>
  <line x1="257" x2="297" y1="95.5" y2="95.5" class="net_48"/>
  <line x1="100" x2="157" y1="263" y2="263" class="net_12"/>
  <line x1="157" x2="157" y1="263" y2="163" class="net_12"/>
  <circle cx="157" cy="263" r="2" style="fill:#000" class="net_12"/>
  <line x1="157" x2="167" y1="163" y2="163" class="net_12"/>
  <line x1="100" x2="157" y1="263" y2="263" class="net_12"/>
  <line x1="157" x2="157" y1="263" y2="516" class="net_12"/>
  <line x1="157" x2="167" y1="516" y2="516" class="net_12"/>
  <line x1="257" x2="272" y1="155.5" y2="155.5" class="net_52"/>
  <line x1="272" x2="272" y1="155.5" y2="200.5" class="net_52"/>
  <line x1="272" x2="297" y1="200.5" y2="200.5" class="net_52"/>
  <line x1="257" x2="297" y1="215.5" y2="215.5" class="net_53"/>
  <line x1="257" x2="272" y1="448.5" y2="448.5" class="net_57"/>
  <line x1="272" x2="272" y1="448.5" y2="493.5" class="net_57"/>
  <line x1="272" x2="297" y1="493.5" y2="493.5" class="net_57"/>
  <line x1="257" x2="297" y1="508.5" y2="508.5" class="net_58"/>
  <line x1="327" x2="362" y1="501" y2="501" class="net_59"/>
  <line x1="197" x2="232" y1="568.5" y2="568.5" class="net_14"/>
  <line x1="197" x2="232" y1="628.5" y2="628.5" class="net_16"/>
  <line x1="327" x2="362" y1="621" y2="621" class="net_19"/>
  <line x1="492" x2="527" y1="35.5" y2="35.5" class="net_20"/>
  <line x1="492" x2="527" y1="95.5" y2="95.5" class="net_23"/>
  <line x1="622" x2="657" y1="88" y2="88" class="net_26"/>
  <line x1="492" x2="527" y1="278" y2="278" class="net_27"/>
  <line x1="492" x2="527" y1="373.5" y2="373.5" class="net_29"/>
  <line x1="622" x2="657" y1="366" y2="366" class="net_32"/>
  <line x1="492" x2="527" y1="433.5" y2="433.5" class="net_33"/>
  <line x1="492" x2="527" y1="493.5" y2="493.5" class="net_35"/>
  <line x1="622" x2="657" y1="486" y2="486" class="net_38"/>
  <line x1="492" x2="527" y1="553.5" y2="553.5" class="net_39"/>
  <line x1="492" x2="527" y1="613.5" y2="613.5" class="net_41"/>
  <line x1="622" x2="657" y1="606" y2="606" class="net_44"/>
  <line x1="197" x2="232" y1="35.5" y2="35.5" class="net_45"/>
  <line x1="197" x2="232" y1="95.5" y2="95.5" class="net_46"/>
  <line x1="327" x2="362" y1="88" y2="88" class="net_49"/>
  <line x1="197" x2="232" y1="155.5" y2="155.5" class="net_50"/>
  <line x1="197" x2="232" y1="215.5" y2="215.5" class="net_51"/>
  <line x1="327" x2="362" y1="208" y2="208" class="net_54"/>
  <line x1="197" x2="232" y1="448.5" y2="448.5" class="net_55"/>
  <line x1="197" x2="232" y1="508.5" y2="508.5" class="net_56"/>
  <line x1="750" x2="778" y1="325.5" y2="325.5" class="net_3"/>
  <line x1="778" x2="778" y1="325.5" y2="416" class="net_3"/>
  <line x1="778" x2="818" y1="416" y2="416" class="net_3"/>
  <line x1="750" x2="768" y1="390.5" y2="390.5" class="net_2"/>
  <line x1="768" x2="768" y1="390.5" y2="436" class="net_2"/>
  <line x1="768" x2="818" y1="436" y2="436" class="net_2"/>
  <line x1="739.5" x2="818" y1="456" y2="456" class="net_60,61,62,63"/>
  <line x1="849" x2="919" y1="416" y2="416" class="net_10,11,12,13"/>
  <line x1="849" x2="894" y1="416" y2="416" class="net_10,11,12,13"/>
  <line x1="894" x2="894" y1="416" y2="12" class="net_10,11,12,13"/>
  <line x1="894" x2="52" y1="12" y2="12" class="net_10,11,12,13"/>
  <line x1="52" x2="52" y1="12" y2="213" class="net_10,11,12,13"/>
  <circle cx="894" cy="416" r="2" style="fill:#000" class="net_10,11,12,13"/>
  <line x1="52" x2="95" y1="213" y2="213" class="net_10,11,12,13"/>
  <line x1="682" x2="707" y1="88" y2="88" class="net_60"/>
  <line x1="707" x2="707" y1="88" y2="446" class="net_60"/>
  <line x1="707" x2="733.5" y1="446" y2="446" class="net_60"/>
  <line x1="682" x2="697" y1="366" y2="366" class="net_61"/>
  <line x1="697" x2="697" y1="366" y2="466" class="net_61"/>
  <line x1="697" x2="733.5" y1="466" y2="466" class="net_61"/>
  <line x1="682" x2="733.5" y1="486" y2="486" class="net_62"/>
  <line x1="682" x2="734" y1="606" y2="606" class="net_63"/>
  <line x1="734" x2="734" y1="606" y2="506.5" class="net_63"/>
  <line x1="325" x2="377.8" y1="275.5" y2="275.5" class="net_6,7,8,9"/>
</svg>
