<?xml version="1.0" encoding="UTF-8" standalone="no"?>
<!DOCTYPE svg PUBLIC "-//W3C//DTD SVG 1.1//EN"
 "http://www.w3.org/Graphics/SVG/1.1/DTD/svg11.dtd">
<!-- Generated by graphviz version 4.0.0 (20220529.0937)
 -->
<!-- Title: top_module Pages: 1 -->
<svg width="1496pt" height="1315pt"
 viewBox="0.00 0.00 1495.51 1315.15" xmlns="http://www.w3.org/2000/svg" xmlns:xlink="http://www.w3.org/1999/xlink">
<g id="graph0" class="graph" transform="scale(1 1) rotate(0) translate(4 1311.15)">
<title>top_module</title>
<polygon fill="white" stroke="transparent" points="-4,4 -4,-1311.15 1491.51,-1311.15 1491.51,4 -4,4"/>
<text text-anchor="middle" x="743.75" y="-7.8" font-family="Times New Roman,serif" font-size="14.00">top_module</text>
<!-- n1 -->
<g id="node1" class="node">
<title>n1</title>
<polygon fill="none" stroke="black" points="655.95,-863.56 530.94,-845.56 655.95,-827.56 780.96,-845.56 655.95,-863.56"/>
<text text-anchor="middle" x="655.95" y="-841.86" font-family="Times New Roman,serif" font-size="14.00">q_SB_DFFER_Q_D</text>
</g>
<!-- x18 -->
<g id="node33" class="node">
<title>x18</title>
<path fill="none" stroke="black" d="M924.8,-613.56C924.8,-613.56 962.8,-613.56 962.8,-613.56 968.8,-613.56 974.8,-619.56 974.8,-625.56 974.8,-625.56 974.8,-637.56 974.8,-637.56 974.8,-643.56 968.8,-649.56 962.8,-649.56 962.8,-649.56 924.8,-649.56 924.8,-649.56 918.8,-649.56 912.8,-643.56 912.8,-637.56 912.8,-637.56 912.8,-625.56 912.8,-625.56 912.8,-619.56 918.8,-613.56 924.8,-613.56"/>
<text text-anchor="middle" x="943.8" y="-627.86" font-family="Times New Roman,serif" font-size="14.00">1:1 &#45; 0:0</text>
</g>
<!-- n1&#45;&gt;x18 -->
<g id="edge24" class="edge">
<title>n1:e&#45;&gt;x18:w</title>
<path fill="none" stroke="#a6761d" d="M780.95,-845.56C862.97,-845.56 763.11,-726.43 816.95,-664.56 843.96,-633.52 863.85,-631.66 901.76,-631.56"/>
<polygon fill="#a6761d" stroke="#a6761d" points="901.8,-635.06 911.8,-631.56 901.8,-628.06 901.8,-635.06"/>
</g>
<!-- x20 -->
<g id="node36" class="node">
<title>x20</title>
<path fill="none" stroke="black" d="M924.8,-893.56C924.8,-893.56 962.8,-893.56 962.8,-893.56 968.8,-893.56 974.8,-899.56 974.8,-905.56 974.8,-905.56 974.8,-917.56 974.8,-917.56 974.8,-923.56 968.8,-929.56 962.8,-929.56 962.8,-929.56 924.8,-929.56 924.8,-929.56 918.8,-929.56 912.8,-923.56 912.8,-917.56 912.8,-917.56 912.8,-905.56 912.8,-905.56 912.8,-899.56 918.8,-893.56 924.8,-893.56"/>
<text text-anchor="middle" x="943.8" y="-907.86" font-family="Times New Roman,serif" font-size="14.00">2:2 &#45; 0:0</text>
</g>
<!-- n1&#45;&gt;x20 -->
<g id="edge25" class="edge">
<title>n1:e&#45;&gt;x20:w</title>
<path fill="none" stroke="#a6761d" d="M780.95,-845.56C802.66,-845.56 798.32,-867.43 816.95,-878.56 852.13,-899.57 865.04,-909.81 901.44,-911.35"/>
<polygon fill="#a6761d" stroke="#a6761d" points="901.73,-914.86 911.8,-911.56 901.87,-907.86 901.73,-914.86"/>
</g>
<!-- x22 -->
<g id="node39" class="node">
<title>x22</title>
<path fill="none" stroke="black" d="M924.8,-948.56C924.8,-948.56 962.8,-948.56 962.8,-948.56 968.8,-948.56 974.8,-954.56 974.8,-960.56 974.8,-960.56 974.8,-972.56 974.8,-972.56 974.8,-978.56 968.8,-984.56 962.8,-984.56 962.8,-984.56 924.8,-984.56 924.8,-984.56 918.8,-984.56 912.8,-978.56 912.8,-972.56 912.8,-972.56 912.8,-960.56 912.8,-960.56 912.8,-954.56 918.8,-948.56 924.8,-948.56"/>
<text text-anchor="middle" x="943.8" y="-962.86" font-family="Times New Roman,serif" font-size="14.00">3:3 &#45; 0:0</text>
</g>
<!-- n1&#45;&gt;x22 -->
<g id="edge26" class="edge">
<title>n1:e&#45;&gt;x22:w</title>
<path fill="none" stroke="#a6761d" d="M780.95,-845.56C825.69,-845.56 783.95,-909.35 816.95,-939.56 846.63,-966.72 864.81,-966.77 901.5,-966.59"/>
<polygon fill="#a6761d" stroke="#a6761d" points="901.81,-970.09 911.8,-966.56 901.79,-963.09 901.81,-970.09"/>
</g>
<!-- x24 -->
<g id="node42" class="node">
<title>x24</title>
<path fill="none" stroke="black" d="M924.8,-761.56C924.8,-761.56 962.8,-761.56 962.8,-761.56 968.8,-761.56 974.8,-767.56 974.8,-773.56 974.8,-773.56 974.8,-785.56 974.8,-785.56 974.8,-791.56 968.8,-797.56 962.8,-797.56 962.8,-797.56 924.8,-797.56 924.8,-797.56 918.8,-797.56 912.8,-791.56 912.8,-785.56 912.8,-785.56 912.8,-773.56 912.8,-773.56 912.8,-767.56 918.8,-761.56 924.8,-761.56"/>
<text text-anchor="middle" x="943.8" y="-775.86" font-family="Times New Roman,serif" font-size="14.00">0:0 &#45; 0:0</text>
</g>
<!-- n1&#45;&gt;x24 -->
<g id="edge27" class="edge">
<title>n1:e&#45;&gt;x24:w</title>
<path fill="none" stroke="#a6761d" d="M780.95,-845.56C802.66,-845.56 798.32,-823.69 816.95,-812.56 852.13,-791.55 865.04,-781.3 901.44,-779.76"/>
<polygon fill="#a6761d" stroke="#a6761d" points="901.87,-783.26 911.8,-779.56 901.73,-776.26 901.87,-783.26"/>
</g>
<!-- n2 -->
<g id="node2" class="node">
<title>n2</title>
<polygon fill="none" stroke="black" points="943.8,-742.56 817.11,-724.56 943.8,-706.56 1070.48,-724.56 943.8,-742.56"/>
<text text-anchor="middle" x="943.8" y="-720.86" font-family="Times New Roman,serif" font-size="14.00">ena_SB_LUT4_I3_O</text>
</g>
<!-- c24 -->
<g id="node32" class="node">
<title>c24</title>
<polygon fill="none" stroke="black" points="1106.64,-574.56 1106.64,-666.56 1292.64,-666.56 1292.64,-574.56 1106.64,-574.56"/>
<text text-anchor="middle" x="1119.64" y="-651.36" font-family="Times New Roman,serif" font-size="14.00">C</text>
<polyline fill="none" stroke="black" points="1106.64,-643.56 1132.64,-643.56 "/>
<text text-anchor="middle" x="1119.64" y="-628.36" font-family="Times New Roman,serif" font-size="14.00">D</text>
<polyline fill="none" stroke="black" points="1106.64,-620.56 1132.64,-620.56 "/>
<text text-anchor="middle" x="1119.64" y="-605.36" font-family="Times New Roman,serif" font-size="14.00">E</text>
<polyline fill="none" stroke="black" points="1106.64,-597.56 1132.64,-597.56 "/>
<text text-anchor="middle" x="1119.64" y="-582.36" font-family="Times New Roman,serif" font-size="14.00">R</text>
<polyline fill="none" stroke="black" points="1132.64,-574.56 1132.64,-666.56 "/>
<text text-anchor="middle" x="1199.14" y="-624.36" font-family="Times New Roman,serif" font-size="14.00">q_SB_DFFER_Q_2</text>
<text text-anchor="middle" x="1199.14" y="-609.36" font-family="Times New Roman,serif" font-size="14.00">SB_DFFER</text>
<polyline fill="none" stroke="black" points="1265.64,-574.56 1265.64,-666.56 "/>
<text text-anchor="middle" x="1279.14" y="-616.86" font-family="Times New Roman,serif" font-size="14.00">Q</text>
</g>
<!-- n2&#45;&gt;c24 -->
<g id="edge29" class="edge">
<title>n2:e&#45;&gt;c24:w</title>
<path fill="none" stroke="#7570b3" d="M1070.64,-724.56C1120.62,-724.56 1062.65,-625.14 1096.6,-610.38"/>
<polygon fill="#7570b3" stroke="#7570b3" points="1097.43,-613.79 1106.64,-608.56 1096.18,-606.9 1097.43,-613.79"/>
</g>
<!-- c25 -->
<g id="node35" class="node">
<title>c25</title>
<polygon fill="none" stroke="black" points="1106.64,-796.56 1106.64,-888.56 1292.64,-888.56 1292.64,-796.56 1106.64,-796.56"/>
<text text-anchor="middle" x="1119.64" y="-873.36" font-family="Times New Roman,serif" font-size="14.00">C</text>
<polyline fill="none" stroke="black" points="1106.64,-865.56 1132.64,-865.56 "/>
<text text-anchor="middle" x="1119.64" y="-850.36" font-family="Times New Roman,serif" font-size="14.00">D</text>
<polyline fill="none" stroke="black" points="1106.64,-842.56 1132.64,-842.56 "/>
<text text-anchor="middle" x="1119.64" y="-827.36" font-family="Times New Roman,serif" font-size="14.00">E</text>
<polyline fill="none" stroke="black" points="1106.64,-819.56 1132.64,-819.56 "/>
<text text-anchor="middle" x="1119.64" y="-804.36" font-family="Times New Roman,serif" font-size="14.00">R</text>
<polyline fill="none" stroke="black" points="1132.64,-796.56 1132.64,-888.56 "/>
<text text-anchor="middle" x="1199.14" y="-846.36" font-family="Times New Roman,serif" font-size="14.00">q_SB_DFFER_Q_1</text>
<text text-anchor="middle" x="1199.14" y="-831.36" font-family="Times New Roman,serif" font-size="14.00">SB_DFFER</text>
<polyline fill="none" stroke="black" points="1265.64,-796.56 1265.64,-888.56 "/>
<text text-anchor="middle" x="1279.14" y="-838.86" font-family="Times New Roman,serif" font-size="14.00">Q</text>
</g>
<!-- n2&#45;&gt;c25 -->
<g id="edge30" class="edge">
<title>n2:e&#45;&gt;c25:w</title>
<path fill="none" stroke="#7570b3" d="M1070.64,-724.56C1116.31,-724.56 1066.54,-813.88 1096.56,-828.54"/>
<polygon fill="#7570b3" stroke="#7570b3" points="1096.15,-832.02 1106.64,-830.56 1097.52,-825.16 1096.15,-832.02"/>
</g>
<!-- c26 -->
<g id="node38" class="node">
<title>c26</title>
<polygon fill="none" stroke="black" points="1113.64,-907.56 1113.64,-999.56 1285.64,-999.56 1285.64,-907.56 1113.64,-907.56"/>
<text text-anchor="middle" x="1126.64" y="-984.36" font-family="Times New Roman,serif" font-size="14.00">C</text>
<polyline fill="none" stroke="black" points="1113.64,-976.56 1139.64,-976.56 "/>
<text text-anchor="middle" x="1126.64" y="-961.36" font-family="Times New Roman,serif" font-size="14.00">D</text>
<polyline fill="none" stroke="black" points="1113.64,-953.56 1139.64,-953.56 "/>
<text text-anchor="middle" x="1126.64" y="-938.36" font-family="Times New Roman,serif" font-size="14.00">E</text>
<polyline fill="none" stroke="black" points="1113.64,-930.56 1139.64,-930.56 "/>
<text text-anchor="middle" x="1126.64" y="-915.36" font-family="Times New Roman,serif" font-size="14.00">R</text>
<polyline fill="none" stroke="black" points="1139.64,-907.56 1139.64,-999.56 "/>
<text text-anchor="middle" x="1199.14" y="-957.36" font-family="Times New Roman,serif" font-size="14.00">q_SB_DFFER_Q</text>
<text text-anchor="middle" x="1199.14" y="-942.36" font-family="Times New Roman,serif" font-size="14.00">SB_DFFER</text>
<polyline fill="none" stroke="black" points="1258.64,-907.56 1258.64,-999.56 "/>
<text text-anchor="middle" x="1272.14" y="-949.86" font-family="Times New Roman,serif" font-size="14.00">Q</text>
</g>
<!-- n2&#45;&gt;c26 -->
<g id="edge31" class="edge">
<title>n2:e&#45;&gt;c26:w</title>
<path fill="none" stroke="#7570b3" d="M1070.64,-724.56C1165.04,-724.56 1026.09,-924.94 1102.26,-940.59"/>
<polygon fill="#7570b3" stroke="#7570b3" points="1102.36,-944.12 1112.64,-941.56 1103.01,-937.15 1102.36,-944.12"/>
</g>
<!-- c27 -->
<g id="node41" class="node">
<title>c27</title>
<polygon fill="none" stroke="black" points="1106.64,-685.56 1106.64,-777.56 1292.64,-777.56 1292.64,-685.56 1106.64,-685.56"/>
<text text-anchor="middle" x="1119.64" y="-762.36" font-family="Times New Roman,serif" font-size="14.00">C</text>
<polyline fill="none" stroke="black" points="1106.64,-754.56 1132.64,-754.56 "/>
<text text-anchor="middle" x="1119.64" y="-739.36" font-family="Times New Roman,serif" font-size="14.00">D</text>
<polyline fill="none" stroke="black" points="1106.64,-731.56 1132.64,-731.56 "/>
<text text-anchor="middle" x="1119.64" y="-716.36" font-family="Times New Roman,serif" font-size="14.00">E</text>
<polyline fill="none" stroke="black" points="1106.64,-708.56 1132.64,-708.56 "/>
<text text-anchor="middle" x="1119.64" y="-693.36" font-family="Times New Roman,serif" font-size="14.00">R</text>
<polyline fill="none" stroke="black" points="1132.64,-685.56 1132.64,-777.56 "/>
<text text-anchor="middle" x="1199.14" y="-735.36" font-family="Times New Roman,serif" font-size="14.00">q_SB_DFFER_Q_3</text>
<text text-anchor="middle" x="1199.14" y="-720.36" font-family="Times New Roman,serif" font-size="14.00">SB_DFFER</text>
<polyline fill="none" stroke="black" points="1265.64,-685.56 1265.64,-777.56 "/>
<text text-anchor="middle" x="1279.14" y="-727.86" font-family="Times New Roman,serif" font-size="14.00">Q</text>
</g>
<!-- n2&#45;&gt;c27 -->
<g id="edge32" class="edge">
<title>n2:e&#45;&gt;c27:w</title>
<path fill="none" stroke="#7570b3" d="M1070.64,-724.56C1082.76,-724.56 1087.86,-721.75 1096.47,-720.34"/>
<polygon fill="#7570b3" stroke="#7570b3" points="1096.94,-723.81 1106.64,-719.56 1096.4,-716.84 1096.94,-723.81"/>
</g>
<!-- n3 -->
<g id="node3" class="node">
<title>n3</title>
<polygon fill="none" stroke="black" points="68.91,-113.1 68.91,-128.01 48.74,-138.56 20.2,-138.56 0.03,-128.01 0.03,-113.1 20.2,-102.56 48.74,-102.56 68.91,-113.1"/>
<text text-anchor="middle" x="34.47" y="-116.86" font-family="Times New Roman,serif" font-size="14.00">areset</text>
</g>
<!-- n3&#45;&gt;c24 -->
<g id="edge33" class="edge">
<title>n3:e&#45;&gt;c24:w</title>
<path fill="none" stroke="#a6761d" d="M68.94,-120.56C90.65,-120.56 85.24,-96.66 104.94,-87.56 183.82,-51.14 212.06,-63.56 298.94,-63.56 298.94,-63.56 298.94,-63.56 656.95,-63.56 841.12,-63.56 939.49,41.74 1070.64,-87.56 1107.75,-124.15 1057.94,-531.51 1097.77,-580.71"/>
<polygon fill="#a6761d" stroke="#a6761d" points="1096.19,-583.83 1106.64,-585.56 1099.55,-577.69 1096.19,-583.83"/>
</g>
<!-- n3&#45;&gt;c25 -->
<g id="edge34" class="edge">
<title>n3:e&#45;&gt;c25:w</title>
<path fill="none" stroke="#a6761d" d="M68.94,-120.56C85.1,-120.56 88.88,-123.87 104.94,-125.56 190.91,-134.62 212.5,-139.56 298.94,-139.56 298.94,-139.56 298.94,-139.56 656.95,-139.56 933.56,-139.56 950,-355.64 1070.64,-604.56 1088.98,-642.41 1065.38,-781.83 1096.82,-804.45"/>
<polygon fill="#a6761d" stroke="#a6761d" points="1096.05,-807.88 1106.64,-807.56 1098.16,-801.2 1096.05,-807.88"/>
</g>
<!-- n3&#45;&gt;c26 -->
<g id="edge35" class="edge">
<title>n3:e&#45;&gt;c26:w</title>
<path fill="none" stroke="#a6761d" d="M68.94,-120.56C87.93,-120.56 87.69,-135.63 104.94,-143.56 228.11,-200.14 286.37,-153.16 396.94,-231.56 655.4,-414.81 558.67,-624.06 816.95,-807.56 913.01,-875.8 966.54,-829.35 1070.64,-884.56 1088.21,-893.88 1089.01,-911.08 1102.41,-916.72"/>
<polygon fill="#a6761d" stroke="#a6761d" points="1102.18,-920.23 1112.64,-918.56 1103.42,-913.34 1102.18,-920.23"/>
</g>
<!-- n3&#45;&gt;c27 -->
<g id="edge36" class="edge">
<title>n3:e&#45;&gt;c27:w</title>
<path fill="none" stroke="#a6761d" d="M68.94,-120.56C171.51,-120.56 196.37,-101.56 298.94,-101.56 298.94,-101.56 298.94,-101.56 656.95,-101.56 749.03,-101.56 1005.36,-60.61 1070.64,-125.56 1113.24,-167.95 1050.66,-640.45 1097.39,-692"/>
<polygon fill="#a6761d" stroke="#a6761d" points="1096.12,-695.28 1106.64,-696.56 1099.22,-689 1096.12,-695.28"/>
</g>
<!-- n4 -->
<g id="node4" class="node">
<title>n4</title>
<polygon fill="none" stroke="black" points="61.47,-1262.1 61.47,-1277.01 45.65,-1287.56 23.29,-1287.56 7.47,-1277.01 7.47,-1262.1 23.29,-1251.56 45.65,-1251.56 61.47,-1262.1"/>
<text text-anchor="middle" x="34.47" y="-1265.86" font-family="Times New Roman,serif" font-size="14.00">clk</text>
</g>
<!-- n4&#45;&gt;c24 -->
<g id="edge37" class="edge">
<title>n4:e&#45;&gt;c24:w</title>
<path fill="none" stroke="#e6ab02" d="M62.47,-1269.56C67.28,-1269.56 198.62,-1170.67 202.94,-1168.56 283.68,-1129.1 314.93,-1148.3 396.94,-1111.56 488.67,-1070.46 723.5,-955.03 780.95,-872.56 826.34,-807.4 759.18,-752.03 816.95,-697.56 822.27,-692.55 1045.3,-662.64 1096.45,-656.62"/>
<polygon fill="#e6ab02" stroke="#e6ab02" points="1097.05,-660.07 1106.64,-655.56 1096.33,-653.11 1097.05,-660.07"/>
</g>
<!-- n4&#45;&gt;c25 -->
<g id="edge38" class="edge">
<title>n4:e&#45;&gt;c25:w</title>
<path fill="none" stroke="#e6ab02" d="M62.47,-1269.56C388.23,-1269.56 472.04,-1227.96 780.95,-1124.56 914.78,-1079.77 977.19,-1100.31 1070.64,-994.56 1103.99,-956.82 1059.82,-888.68 1096.24,-878.77"/>
<polygon fill="#e6ab02" stroke="#e6ab02" points="1097.11,-882.2 1106.64,-877.56 1096.3,-875.24 1097.11,-882.2"/>
</g>
<!-- n4&#45;&gt;c26 -->
<g id="edge39" class="edge">
<title>n4:e&#45;&gt;c26:w</title>
<path fill="none" stroke="#e6ab02" d="M62.47,-1269.56C86.38,-1269.56 82.33,-1294.81 104.94,-1302.56 131.01,-1311.5 139.45,-1304.38 166.94,-1302.56 217.48,-1299.22 1033.4,-1216.89 1070.64,-1182.56 1132.71,-1125.33 1033.64,-999.95 1102.34,-989.29"/>
<polygon fill="#e6ab02" stroke="#e6ab02" points="1102.91,-992.75 1112.64,-988.56 1102.42,-985.77 1102.91,-992.75"/>
</g>
<!-- n4&#45;&gt;c27 -->
<g id="edge40" class="edge">
<title>n4:e&#45;&gt;c27:w</title>
<path fill="none" stroke="#e6ab02" d="M62.47,-1269.56C112.68,-1269.56 447.48,-1154.95 494.94,-1138.56 511.17,-1132.96 514.74,-1130.23 530.94,-1124.56 640.81,-1086.11 702.16,-1132.24 780.95,-1046.56 830.88,-992.27 766.82,-938.66 816.95,-884.56 897.04,-798.14 971.6,-871.39 1070.64,-807.56 1087.52,-796.68 1084.5,-775.7 1096.74,-768.81"/>
<polygon fill="#e6ab02" stroke="#e6ab02" points="1097.67,-772.19 1106.64,-766.56 1096.11,-765.36 1097.67,-772.19"/>
</g>
<!-- n5 -->
<g id="node5" class="node">
<title>n5</title>
<polygon fill="none" stroke="black" points="62.75,-748.1 62.75,-763.01 46.19,-773.56 22.76,-773.56 6.19,-763.01 6.19,-748.1 22.76,-737.56 46.19,-737.56 62.75,-748.1"/>
<text text-anchor="middle" x="34.47" y="-751.86" font-family="Times New Roman,serif" font-size="14.00">data</text>
</g>
<!-- x2 -->
<g id="node12" class="node">
<title>x2</title>
<path fill="none" stroke="black" d="M116.94,-428.56C116.94,-428.56 154.94,-428.56 154.94,-428.56 160.94,-428.56 166.94,-434.56 166.94,-440.56 166.94,-440.56 166.94,-452.56 166.94,-452.56 166.94,-458.56 160.94,-464.56 154.94,-464.56 154.94,-464.56 116.94,-464.56 116.94,-464.56 110.94,-464.56 104.94,-458.56 104.94,-452.56 104.94,-452.56 104.94,-440.56 104.94,-440.56 104.94,-434.56 110.94,-428.56 116.94,-428.56"/>
<text text-anchor="middle" x="135.94" y="-442.86" font-family="Times New Roman,serif" font-size="14.00">0:0 &#45; 0:0</text>
</g>
<!-- n5&#45;&gt;x2 -->
<g id="edge43" class="edge">
<title>n5:e&#45;&gt;x2:w</title>
<path fill="none" stroke="#1b9e77" d="M63.47,-755.56C128.96,-755.56 45.78,-479.43 95.01,-449.23"/>
<polygon fill="#1b9e77" stroke="#1b9e77" points="96.2,-452.54 104.94,-446.56 94.38,-445.78 96.2,-452.54"/>
</g>
<!-- x6 -->
<g id="node17" class="node">
<title>x6</title>
<path fill="none" stroke="black" d="M116.94,-1037.56C116.94,-1037.56 154.94,-1037.56 154.94,-1037.56 160.94,-1037.56 166.94,-1043.56 166.94,-1049.56 166.94,-1049.56 166.94,-1061.56 166.94,-1061.56 166.94,-1067.56 160.94,-1073.56 154.94,-1073.56 154.94,-1073.56 116.94,-1073.56 116.94,-1073.56 110.94,-1073.56 104.94,-1067.56 104.94,-1061.56 104.94,-1061.56 104.94,-1049.56 104.94,-1049.56 104.94,-1043.56 110.94,-1037.56 116.94,-1037.56"/>
<text text-anchor="middle" x="135.94" y="-1051.86" font-family="Times New Roman,serif" font-size="14.00">1:1 &#45; 0:0</text>
</g>
<!-- n5&#45;&gt;x6 -->
<g id="edge44" class="edge">
<title>n5:e&#45;&gt;x6:w</title>
<path fill="none" stroke="#1b9e77" d="M63.47,-755.56C126.96,-755.56 47.68,-1022.54 94.99,-1052.78"/>
<polygon fill="#1b9e77" stroke="#1b9e77" points="94.37,-1056.24 104.94,-1055.56 96.25,-1049.5 94.37,-1056.24"/>
</g>
<!-- x10 -->
<g id="node22" class="node">
<title>x10</title>
<path fill="none" stroke="black" d="M116.94,-631.56C116.94,-631.56 154.94,-631.56 154.94,-631.56 160.94,-631.56 166.94,-637.56 166.94,-643.56 166.94,-643.56 166.94,-655.56 166.94,-655.56 166.94,-661.56 160.94,-667.56 154.94,-667.56 154.94,-667.56 116.94,-667.56 116.94,-667.56 110.94,-667.56 104.94,-661.56 104.94,-655.56 104.94,-655.56 104.94,-643.56 104.94,-643.56 104.94,-637.56 110.94,-631.56 116.94,-631.56"/>
<text text-anchor="middle" x="135.94" y="-645.86" font-family="Times New Roman,serif" font-size="14.00">2:2 &#45; 0:0</text>
</g>
<!-- n5&#45;&gt;x10 -->
<g id="edge41" class="edge">
<title>n5:e&#45;&gt;x10:w</title>
<path fill="none" stroke="#1b9e77" d="M63.47,-755.56C110.11,-755.56 63.01,-665.47 95,-651.4"/>
<polygon fill="#1b9e77" stroke="#1b9e77" points="95.75,-654.82 104.94,-649.56 94.47,-647.94 95.75,-654.82"/>
</g>
<!-- x14 -->
<g id="node27" class="node">
<title>x14</title>
<path fill="none" stroke="black" d="M116.94,-835.56C116.94,-835.56 154.94,-835.56 154.94,-835.56 160.94,-835.56 166.94,-841.56 166.94,-847.56 166.94,-847.56 166.94,-859.56 166.94,-859.56 166.94,-865.56 160.94,-871.56 154.94,-871.56 154.94,-871.56 116.94,-871.56 116.94,-871.56 110.94,-871.56 104.94,-865.56 104.94,-859.56 104.94,-859.56 104.94,-847.56 104.94,-847.56 104.94,-841.56 110.94,-835.56 116.94,-835.56"/>
<text text-anchor="middle" x="135.94" y="-849.86" font-family="Times New Roman,serif" font-size="14.00">3:3 &#45; 0:0</text>
</g>
<!-- n5&#45;&gt;x14 -->
<g id="edge42" class="edge">
<title>n5:e&#45;&gt;x14:w</title>
<path fill="none" stroke="#1b9e77" d="M63.47,-755.56C106.7,-755.56 66.04,-837.44 94.85,-851.51"/>
<polygon fill="#1b9e77" stroke="#1b9e77" points="94.45,-855 104.94,-853.56 95.84,-848.14 94.45,-855"/>
</g>
<!-- n6 -->
<g id="node6" class="node">
<title>n6</title>
<polygon fill="none" stroke="black" points="61.47,-208.1 61.47,-223.01 45.65,-233.56 23.29,-233.56 7.47,-223.01 7.47,-208.1 23.29,-197.56 45.65,-197.56 61.47,-208.1"/>
<text text-anchor="middle" x="34.47" y="-211.86" font-family="Times New Roman,serif" font-size="14.00">ena</text>
</g>
<!-- c18 -->
<g id="node31" class="node">
<title>c18</title>
<polygon fill="none" stroke="black" points="212.44,-241.56 212.44,-333.56 387.44,-333.56 387.44,-241.56 212.44,-241.56"/>
<text text-anchor="middle" x="226.44" y="-318.36" font-family="Times New Roman,serif" font-size="14.00">I0</text>
<polyline fill="none" stroke="black" points="212.44,-310.56 240.44,-310.56 "/>
<text text-anchor="middle" x="226.44" y="-295.36" font-family="Times New Roman,serif" font-size="14.00">I1</text>
<polyline fill="none" stroke="black" points="212.44,-287.56 240.44,-287.56 "/>
<text text-anchor="middle" x="226.44" y="-272.36" font-family="Times New Roman,serif" font-size="14.00">I2</text>
<polyline fill="none" stroke="black" points="212.44,-264.56 240.44,-264.56 "/>
<text text-anchor="middle" x="226.44" y="-249.36" font-family="Times New Roman,serif" font-size="14.00">I3</text>
<polyline fill="none" stroke="black" points="240.44,-241.56 240.44,-333.56 "/>
<text text-anchor="middle" x="300.44" y="-291.36" font-family="Times New Roman,serif" font-size="14.00">ena_SB_LUT4_I3</text>
<text text-anchor="middle" x="300.44" y="-276.36" font-family="Times New Roman,serif" font-size="14.00">SB_LUT4</text>
<polyline fill="none" stroke="black" points="360.44,-241.56 360.44,-333.56 "/>
<text text-anchor="middle" x="373.94" y="-283.86" font-family="Times New Roman,serif" font-size="14.00">O</text>
</g>
<!-- n6&#45;&gt;c18 -->
<g id="edge45" class="edge">
<title>n6:e&#45;&gt;c18:w</title>
<path fill="none" stroke="#66a61e" d="M62.47,-215.56C110.11,-215.56 120.86,-227.47 166.94,-239.56 182.81,-243.72 188.43,-249.6 200.64,-251.74"/>
<polygon fill="#66a61e" stroke="#66a61e" points="200.7,-255.26 210.94,-252.56 201.25,-248.28 200.7,-255.26"/>
</g>
<!-- n7 -->
<g id="node7" class="node">
<title>n7</title>
<polygon fill="none" stroke="black" points="63.16,-595.1 63.16,-610.01 46.35,-620.56 22.59,-620.56 5.78,-610.01 5.78,-595.1 22.59,-584.56 46.35,-584.56 63.16,-595.1"/>
<text text-anchor="middle" x="34.47" y="-598.86" font-family="Times New Roman,serif" font-size="14.00">load</text>
</g>
<!-- c14 -->
<g id="node10" class="node">
<title>c14</title>
<polygon fill="none" stroke="black" points="202.94,-443.56 202.94,-535.56 396.94,-535.56 396.94,-443.56 202.94,-443.56"/>
<text text-anchor="middle" x="216.94" y="-520.36" font-family="Times New Roman,serif" font-size="14.00">I0</text>
<polyline fill="none" stroke="black" points="202.94,-512.56 230.94,-512.56 "/>
<text text-anchor="middle" x="216.94" y="-497.36" font-family="Times New Roman,serif" font-size="14.00">I1</text>
<polyline fill="none" stroke="black" points="202.94,-489.56 230.94,-489.56 "/>
<text text-anchor="middle" x="216.94" y="-474.36" font-family="Times New Roman,serif" font-size="14.00">I2</text>
<polyline fill="none" stroke="black" points="202.94,-466.56 230.94,-466.56 "/>
<text text-anchor="middle" x="216.94" y="-451.36" font-family="Times New Roman,serif" font-size="14.00">I3</text>
<polyline fill="none" stroke="black" points="230.94,-443.56 230.94,-535.56 "/>
<text text-anchor="middle" x="300.44" y="-493.36" font-family="Times New Roman,serif" font-size="14.00">data_SB_LUT4_I2_2</text>
<text text-anchor="middle" x="300.44" y="-478.36" font-family="Times New Roman,serif" font-size="14.00">SB_LUT4</text>
<polyline fill="none" stroke="black" points="369.94,-443.56 369.94,-535.56 "/>
<text text-anchor="middle" x="383.44" y="-485.86" font-family="Times New Roman,serif" font-size="14.00">O</text>
</g>
<!-- n7&#45;&gt;c14 -->
<g id="edge46" class="edge">
<title>n7:e&#45;&gt;c14:w</title>
<path fill="none" stroke="#a6761d" d="M64.47,-602.56C147.77,-602.56 39.99,-471.71 104.94,-419.56 126.43,-402.31 141.41,-409.19 166.94,-419.56 183.74,-426.38 182.28,-445.22 193.11,-452.05"/>
<polygon fill="#a6761d" stroke="#a6761d" points="192.39,-455.48 202.94,-454.56 194.12,-448.69 192.39,-455.48"/>
</g>
<!-- c15 -->
<g id="node15" class="node">
<title>c15</title>
<polygon fill="none" stroke="black" points="202.94,-1009.56 202.94,-1101.56 396.94,-1101.56 396.94,-1009.56 202.94,-1009.56"/>
<text text-anchor="middle" x="216.94" y="-1086.36" font-family="Times New Roman,serif" font-size="14.00">I0</text>
<polyline fill="none" stroke="black" points="202.94,-1078.56 230.94,-1078.56 "/>
<text text-anchor="middle" x="216.94" y="-1063.36" font-family="Times New Roman,serif" font-size="14.00">I1</text>
<polyline fill="none" stroke="black" points="202.94,-1055.56 230.94,-1055.56 "/>
<text text-anchor="middle" x="216.94" y="-1040.36" font-family="Times New Roman,serif" font-size="14.00">I2</text>
<polyline fill="none" stroke="black" points="202.94,-1032.56 230.94,-1032.56 "/>
<text text-anchor="middle" x="216.94" y="-1017.36" font-family="Times New Roman,serif" font-size="14.00">I3</text>
<polyline fill="none" stroke="black" points="230.94,-1009.56 230.94,-1101.56 "/>
<text text-anchor="middle" x="300.44" y="-1059.36" font-family="Times New Roman,serif" font-size="14.00">data_SB_LUT4_I2_1</text>
<text text-anchor="middle" x="300.44" y="-1044.36" font-family="Times New Roman,serif" font-size="14.00">SB_LUT4</text>
<polyline fill="none" stroke="black" points="369.94,-1009.56 369.94,-1101.56 "/>
<text text-anchor="middle" x="383.44" y="-1051.86" font-family="Times New Roman,serif" font-size="14.00">O</text>
</g>
<!-- n7&#45;&gt;c15 -->
<g id="edge47" class="edge">
<title>n7:e&#45;&gt;c15:w</title>
<path fill="none" stroke="#a6761d" d="M64.47,-602.56C150.94,-602.56 50.28,-922.56 104.94,-989.56 131.56,-1022.19 153.56,-1021 192.63,-1020.62"/>
<polygon fill="#a6761d" stroke="#a6761d" points="192.96,-1024.12 202.94,-1020.56 192.92,-1017.12 192.96,-1024.12"/>
</g>
<!-- c16 -->
<g id="node20" class="node">
<title>c16</title>
<polygon fill="none" stroke="black" points="209.94,-704.56 209.94,-796.56 389.94,-796.56 389.94,-704.56 209.94,-704.56"/>
<text text-anchor="middle" x="223.94" y="-781.36" font-family="Times New Roman,serif" font-size="14.00">I0</text>
<polyline fill="none" stroke="black" points="209.94,-773.56 237.94,-773.56 "/>
<text text-anchor="middle" x="223.94" y="-758.36" font-family="Times New Roman,serif" font-size="14.00">I1</text>
<polyline fill="none" stroke="black" points="209.94,-750.56 237.94,-750.56 "/>
<text text-anchor="middle" x="223.94" y="-735.36" font-family="Times New Roman,serif" font-size="14.00">I2</text>
<polyline fill="none" stroke="black" points="209.94,-727.56 237.94,-727.56 "/>
<text text-anchor="middle" x="223.94" y="-712.36" font-family="Times New Roman,serif" font-size="14.00">I3</text>
<polyline fill="none" stroke="black" points="237.94,-704.56 237.94,-796.56 "/>
<text text-anchor="middle" x="300.44" y="-754.36" font-family="Times New Roman,serif" font-size="14.00">data_SB_LUT4_I2</text>
<text text-anchor="middle" x="300.44" y="-739.36" font-family="Times New Roman,serif" font-size="14.00">SB_LUT4</text>
<polyline fill="none" stroke="black" points="362.94,-704.56 362.94,-796.56 "/>
<text text-anchor="middle" x="376.44" y="-746.86" font-family="Times New Roman,serif" font-size="14.00">O</text>
</g>
<!-- n7&#45;&gt;c16 -->
<g id="edge48" class="edge">
<title>n7:e&#45;&gt;c16:w</title>
<path fill="none" stroke="#a6761d" d="M64.47,-602.56C110.87,-602.56 130.56,-593.76 166.94,-622.56 199.44,-648.29 169.73,-704.68 199.02,-714.19"/>
<polygon fill="#a6761d" stroke="#a6761d" points="198.56,-717.66 208.94,-715.56 199.52,-710.72 198.56,-717.66"/>
</g>
<!-- c17 -->
<g id="node26" class="node">
<title>c17</title>
<polygon fill="none" stroke="black" points="209.94,-860.56 209.94,-952.56 389.94,-952.56 389.94,-860.56 209.94,-860.56"/>
<text text-anchor="middle" x="223.94" y="-937.36" font-family="Times New Roman,serif" font-size="14.00">I0</text>
<polyline fill="none" stroke="black" points="209.94,-929.56 237.94,-929.56 "/>
<text text-anchor="middle" x="223.94" y="-914.36" font-family="Times New Roman,serif" font-size="14.00">I1</text>
<polyline fill="none" stroke="black" points="209.94,-906.56 237.94,-906.56 "/>
<text text-anchor="middle" x="223.94" y="-891.36" font-family="Times New Roman,serif" font-size="14.00">I2</text>
<polyline fill="none" stroke="black" points="209.94,-883.56 237.94,-883.56 "/>
<text text-anchor="middle" x="223.94" y="-868.36" font-family="Times New Roman,serif" font-size="14.00">I3</text>
<polyline fill="none" stroke="black" points="237.94,-860.56 237.94,-952.56 "/>
<text text-anchor="middle" x="300.44" y="-910.36" font-family="Times New Roman,serif" font-size="14.00">data_SB_LUT4_I3</text>
<text text-anchor="middle" x="300.44" y="-895.36" font-family="Times New Roman,serif" font-size="14.00">SB_LUT4</text>
<polyline fill="none" stroke="black" points="362.94,-860.56 362.94,-952.56 "/>
<text text-anchor="middle" x="376.44" y="-902.86" font-family="Times New Roman,serif" font-size="14.00">O</text>
</g>
<!-- n7&#45;&gt;c17 -->
<g id="edge49" class="edge">
<title>n7:e&#45;&gt;c17:w</title>
<path fill="none" stroke="#a6761d" d="M64.47,-602.56C148.64,-602.56 56.56,-718.68 104.94,-787.56 123.65,-814.2 144.02,-803.45 166.94,-826.56 189.12,-848.92 177.06,-885.09 198.81,-893"/>
<polygon fill="#a6761d" stroke="#a6761d" points="198.53,-896.5 208.94,-894.56 199.59,-889.58 198.53,-896.5"/>
</g>
<!-- n7&#45;&gt;c18 -->
<g id="edge50" class="edge">
<title>n7:e&#45;&gt;c18:w</title>
<path fill="none" stroke="#a6761d" d="M64.47,-602.56C138.35,-602.56 49.61,-321.52 104.94,-272.56 137.62,-243.65 160.25,-270.84 200.82,-275.03"/>
<polygon fill="#a6761d" stroke="#a6761d" points="200.77,-278.54 210.94,-275.56 201.14,-271.55 200.77,-278.54"/>
</g>
<!-- n8 -->
<g id="node8" class="node">
<title>n8</title>
<polygon fill="none" stroke="black" points="1480.64,-946.1 1480.64,-961.01 1464.82,-971.56 1442.46,-971.56 1426.64,-961.01 1426.64,-946.1 1442.46,-935.56 1464.82,-935.56 1480.64,-946.1"/>
<text text-anchor="middle" x="1453.64" y="-949.86" font-family="Times New Roman,serif" font-size="14.00">q</text>
</g>
<!-- x1 -->
<g id="node11" class="node">
<title>x1</title>
<path fill="none" stroke="black" d="M116.94,-483.56C116.94,-483.56 154.94,-483.56 154.94,-483.56 160.94,-483.56 166.94,-489.56 166.94,-495.56 166.94,-495.56 166.94,-507.56 166.94,-507.56 166.94,-513.56 160.94,-519.56 154.94,-519.56 154.94,-519.56 116.94,-519.56 116.94,-519.56 110.94,-519.56 104.94,-513.56 104.94,-507.56 104.94,-507.56 104.94,-495.56 104.94,-495.56 104.94,-489.56 110.94,-483.56 116.94,-483.56"/>
<text text-anchor="middle" x="135.94" y="-497.86" font-family="Times New Roman,serif" font-size="14.00">1:1 &#45; 0:0</text>
</g>
<!-- n8&#45;&gt;x1 -->
<g id="edge55" class="edge">
<title>n8:e&#45;&gt;x1:w</title>
<path fill="none" stroke="#7570b3" d="M1481.64,-953.56C1489.65,-953.56 1485.88,-965.5 1480.64,-971.56 1424.85,-1036.01 1377.46,-1001.07 1292.64,-1009.56 909.78,-1047.86 697.49,-1186.95 432.94,-907.56 367.23,-838.16 447.57,-776.62 396.94,-695.56 363.62,-642.21 225,-554.77 166.94,-530.56 141.15,-519.8 123.55,-540.91 104.94,-520.06 102.72,-517.56 100.77,-514.04 99.81,-510.74"/>
<polygon fill="#7570b3" stroke="#7570b3" points="103.03,-512.11 103.94,-501.56 96.64,-509.24 103.03,-512.11"/>
</g>
<!-- x5 -->
<g id="node16" class="node">
<title>x5</title>
<path fill="none" stroke="black" d="M116.94,-1147.56C116.94,-1147.56 154.94,-1147.56 154.94,-1147.56 160.94,-1147.56 166.94,-1153.56 166.94,-1159.56 166.94,-1159.56 166.94,-1171.56 166.94,-1171.56 166.94,-1177.56 160.94,-1183.56 154.94,-1183.56 154.94,-1183.56 116.94,-1183.56 116.94,-1183.56 110.94,-1183.56 104.94,-1177.56 104.94,-1171.56 104.94,-1171.56 104.94,-1159.56 104.94,-1159.56 104.94,-1153.56 110.94,-1147.56 116.94,-1147.56"/>
<text text-anchor="middle" x="135.94" y="-1161.86" font-family="Times New Roman,serif" font-size="14.00">2:2 &#45; 0:0</text>
</g>
<!-- n8&#45;&gt;x5 -->
<g id="edge56" class="edge">
<title>n8:e&#45;&gt;x5:w</title>
<path fill="none" stroke="#7570b3" d="M1481.64,-953.56C1529.71,-953.56 1248.71,-1282.56 1200.64,-1282.56 462.94,-1282.56 462.94,-1282.56 462.94,-1282.56 297.92,-1282.56 208.47,-1312.57 104.94,-1184.06 102.92,-1181.55 101.07,-1178.18 100.06,-1175.01"/>
<polygon fill="#7570b3" stroke="#7570b3" points="103.38,-1176.14 103.94,-1165.56 96.9,-1173.48 103.38,-1176.14"/>
</g>
<!-- x9 -->
<g id="node21" class="node">
<title>x9</title>
<path fill="none" stroke="black" d="M116.94,-741.56C116.94,-741.56 154.94,-741.56 154.94,-741.56 160.94,-741.56 166.94,-747.56 166.94,-753.56 166.94,-753.56 166.94,-765.56 166.94,-765.56 166.94,-771.56 160.94,-777.56 154.94,-777.56 154.94,-777.56 116.94,-777.56 116.94,-777.56 110.94,-777.56 104.94,-771.56 104.94,-765.56 104.94,-765.56 104.94,-753.56 104.94,-753.56 104.94,-747.56 110.94,-741.56 116.94,-741.56"/>
<text text-anchor="middle" x="135.94" y="-755.86" font-family="Times New Roman,serif" font-size="14.00">3:3 &#45; 0:0</text>
</g>
<!-- n8&#45;&gt;x9 -->
<g id="edge57" class="edge">
<title>n8:e&#45;&gt;x9:w</title>
<path fill="none" stroke="#7570b3" d="M1481.64,-953.56C1489.65,-953.56 1484.33,-964.45 1480.64,-971.56 1457.15,-1016.77 1438.71,-1025.67 1390.64,-1042.56 385.62,-1395.67 462.43,-1074.17 432.94,-1049.56 364.27,-992.25 458.65,-916.31 396.94,-851.56 335.88,-787.49 284.87,-840.07 202.94,-806.56 185.59,-799.46 184.7,-790.57 166.94,-784.56 153.82,-780.12 114.49,-788.1 104.94,-778.06 102.64,-775.63 100.68,-772.13 99.72,-768.82"/>
<polygon fill="#7570b3" stroke="#7570b3" points="102.98,-770.11 103.94,-759.56 96.61,-767.21 102.98,-770.11"/>
</g>
<!-- v0 -->
<g id="node9" class="node">
<title>v0</title>
<ellipse fill="none" stroke="black" cx="135.94" cy="-556.56" rx="27" ry="18"/>
<text text-anchor="middle" x="135.94" y="-552.86" font-family="Times New Roman,serif" font-size="14.00">1&#39;0</text>
</g>
<!-- v0&#45;&gt;c14 -->
<g id="edge58" class="edge">
<title>v0:e&#45;&gt;c14:w</title>
<path fill="none" stroke="#e6ab02" d="M163.94,-556.56C182.33,-556.56 181.71,-535.03 193.27,-527.29"/>
<polygon fill="#e6ab02" stroke="#e6ab02" points="194.27,-530.64 202.94,-524.56 192.37,-523.9 194.27,-530.64"/>
</g>
<!-- x3 -->
<g id="node13" class="node">
<title>x3</title>
<path fill="none" stroke="black" d="M444.94,-572.56C444.94,-572.56 482.94,-572.56 482.94,-572.56 488.94,-572.56 494.94,-578.56 494.94,-584.56 494.94,-584.56 494.94,-596.56 494.94,-596.56 494.94,-602.56 488.94,-608.56 482.94,-608.56 482.94,-608.56 444.94,-608.56 444.94,-608.56 438.94,-608.56 432.94,-602.56 432.94,-596.56 432.94,-596.56 432.94,-584.56 432.94,-584.56 432.94,-578.56 438.94,-572.56 444.94,-572.56"/>
<text text-anchor="middle" x="463.94" y="-586.86" font-family="Times New Roman,serif" font-size="14.00">0:0 &#45; 0:0</text>
</g>
<!-- c14&#45;&gt;x3 -->
<g id="edge3" class="edge">
<title>c14:e&#45;&gt;x3:w</title>
<path fill="none" stroke="#1b9e77" d="M408.7,-492.69C430.4,-507.74 399.46,-572.49 421.24,-587.46"/>
<polygon fill="none" stroke="#1b9e77" points="408.54,-492.65 401.71,-494.97 396.94,-489.56 403.77,-487.24 408.54,-492.65"/>
<polygon fill="none" stroke="#1b9e77" points="421.34,-587.49 428.16,-585.16 432.94,-590.56 426.12,-592.89 421.34,-587.49"/>
</g>
<!-- x1&#45;&gt;c14 -->
<g id="edge1" class="edge">
<title>x1:e&#45;&gt;c14:w</title>
<path fill="none" stroke="#66a61e" d="M179.16,-501.56C183.24,-501.56 186.68,-501.56 190.76,-501.56"/>
<polygon fill="none" stroke="#66a61e" points="178.94,-501.56 172.94,-505.56 166.94,-501.56 172.94,-497.56 178.94,-501.56"/>
<polygon fill="none" stroke="#66a61e" points="190.94,-501.56 196.94,-497.56 202.94,-501.56 196.94,-505.56 190.94,-501.56"/>
</g>
<!-- x2&#45;&gt;c14 -->
<g id="edge2" class="edge">
<title>x2:e&#45;&gt;c14:w</title>
<path fill="none" stroke="#1b9e77" d="M178.25,-451.13C183.89,-456.93 185.87,-466.86 191.42,-472.76"/>
<polygon fill="none" stroke="#1b9e77" points="178.07,-451.06 171,-452.52 166.94,-446.56 174,-445.1 178.07,-451.06"/>
<polygon fill="none" stroke="#1b9e77" points="191.86,-472.95 198.94,-471.56 202.94,-477.56 195.87,-478.95 191.86,-472.95"/>
</g>
<!-- x3&#45;&gt;n1 -->
<g id="edge22" class="edge">
<title>x3:e&#45;&gt;n1:w</title>
<path fill="none" stroke="#a6761d" d="M494.94,-590.56C548.37,-590.56 483.54,-812.82 521.26,-842.33"/>
<polygon fill="#a6761d" stroke="#a6761d" points="520.35,-845.72 530.94,-845.56 522.56,-839.08 520.35,-845.72"/>
</g>
<!-- v4 -->
<g id="node14" class="node">
<title>v4</title>
<ellipse fill="none" stroke="black" cx="135.94" cy="-1110.56" rx="27" ry="18"/>
<text text-anchor="middle" x="135.94" y="-1106.86" font-family="Times New Roman,serif" font-size="14.00">1&#39;0</text>
</g>
<!-- v4&#45;&gt;c15 -->
<g id="edge63" class="edge">
<title>v4:e&#45;&gt;c15:w</title>
<path fill="none" stroke="#1b9e77" d="M163.94,-1110.56C179.47,-1110.56 182.64,-1097.86 193.15,-1092.7"/>
<polygon fill="#1b9e77" stroke="#1b9e77" points="193.92,-1096.11 202.94,-1090.56 192.43,-1089.28 193.92,-1096.11"/>
</g>
<!-- x7 -->
<g id="node18" class="node">
<title>x7</title>
<path fill="none" stroke="black" d="M444.94,-1003.56C444.94,-1003.56 482.94,-1003.56 482.94,-1003.56 488.94,-1003.56 494.94,-1009.56 494.94,-1015.56 494.94,-1015.56 494.94,-1027.56 494.94,-1027.56 494.94,-1033.56 488.94,-1039.56 482.94,-1039.56 482.94,-1039.56 444.94,-1039.56 444.94,-1039.56 438.94,-1039.56 432.94,-1033.56 432.94,-1027.56 432.94,-1027.56 432.94,-1015.56 432.94,-1015.56 432.94,-1009.56 438.94,-1003.56 444.94,-1003.56"/>
<text text-anchor="middle" x="463.94" y="-1017.86" font-family="Times New Roman,serif" font-size="14.00">0:0 &#45; 1:1</text>
</g>
<!-- c15&#45;&gt;x7 -->
<g id="edge6" class="edge">
<title>c15:e&#45;&gt;x7:w</title>
<path fill="none" stroke="#e7298a" d="M408.24,-1050.83C414.15,-1044.41 415.65,-1032.98 421.48,-1026.47"/>
<polygon fill="none" stroke="#e7298a" points="408.01,-1050.93 404.02,-1056.93 396.94,-1055.56 400.93,-1049.55 408.01,-1050.93"/>
<polygon fill="none" stroke="#e7298a" points="421.91,-1026.28 425.85,-1020.24 432.94,-1021.56 429,-1027.6 421.91,-1026.28"/>
</g>
<!-- x5&#45;&gt;c15 -->
<g id="edge4" class="edge">
<title>x5:e&#45;&gt;c15:w</title>
<path fill="none" stroke="#7570b3" d="M178.73,-1162.3C199.32,-1147.35 170.5,-1085.49 191.27,-1070.73"/>
<polygon fill="none" stroke="#7570b3" points="178.51,-1162.36 173.79,-1167.82 166.94,-1165.56 171.66,-1160.1 178.51,-1162.36"/>
<polygon fill="none" stroke="#7570b3" points="191.36,-1070.71 196.1,-1065.27 202.94,-1067.56 198.2,-1072.99 191.36,-1070.71"/>
</g>
<!-- x6&#45;&gt;c15 -->
<g id="edge5" class="edge">
<title>x6:e&#45;&gt;c15:w</title>
<path fill="none" stroke="#e7298a" d="M178.87,-1053.01C183.25,-1050.98 186.65,-1048.14 191.02,-1046.1"/>
<polygon fill="none" stroke="#e7298a" points="178.68,-1053.05 173.64,-1058.22 166.94,-1055.56 171.98,-1050.39 178.68,-1053.05"/>
<polygon fill="none" stroke="#e7298a" points="191.21,-1046.06 196.24,-1040.9 202.94,-1043.56 197.91,-1048.72 191.21,-1046.06"/>
</g>
<!-- x7&#45;&gt;n1 -->
<g id="edge23" class="edge">
<title>x7:e&#45;&gt;n1:w</title>
<path fill="none" stroke="#a6761d" d="M494.94,-1021.56C570.89,-1021.56 462.69,-862.33 520.66,-846.78"/>
<polygon fill="#a6761d" stroke="#a6761d" points="521.42,-850.21 530.94,-845.56 520.6,-843.26 521.42,-850.21"/>
</g>
<!-- v8 -->
<g id="node19" class="node">
<title>v8</title>
<ellipse fill="none" stroke="black" cx="135.94" cy="-704.56" rx="27" ry="18"/>
<text text-anchor="middle" x="135.94" y="-700.86" font-family="Times New Roman,serif" font-size="14.00">1&#39;0</text>
</g>
<!-- v8&#45;&gt;c16 -->
<g id="edge64" class="edge">
<title>v8:e&#45;&gt;c16:w</title>
<path fill="none" stroke="#66a61e" d="M163.94,-704.56C201.1,-704.56 174.31,-770.51 198.98,-783.39"/>
<polygon fill="#66a61e" stroke="#66a61e" points="198.43,-786.85 208.94,-785.56 199.91,-780.01 198.43,-786.85"/>
</g>
<!-- x11 -->
<g id="node23" class="node">
<title>x11</title>
<path fill="none" stroke="black" d="M444.94,-779.56C444.94,-779.56 482.94,-779.56 482.94,-779.56 488.94,-779.56 494.94,-785.56 494.94,-791.56 494.94,-791.56 494.94,-803.56 494.94,-803.56 494.94,-809.56 488.94,-815.56 482.94,-815.56 482.94,-815.56 444.94,-815.56 444.94,-815.56 438.94,-815.56 432.94,-809.56 432.94,-803.56 432.94,-803.56 432.94,-791.56 432.94,-791.56 432.94,-785.56 438.94,-779.56 444.94,-779.56"/>
<text text-anchor="middle" x="463.94" y="-793.86" font-family="Times New Roman,serif" font-size="14.00">0:0 &#45; 2:2</text>
</g>
<!-- c16&#45;&gt;x11 -->
<g id="edge9" class="edge">
<title>c16:e&#45;&gt;x11:w</title>
<path fill="none" stroke="#1b9e77" d="M402.46,-754.57C412.47,-763.45 411.42,-784.69 421.44,-793.56"/>
<polygon fill="none" stroke="#1b9e77" points="402.28,-754.5 395.29,-756.31 390.94,-750.56 397.92,-748.75 402.28,-754.5"/>
<polygon fill="none" stroke="#1b9e77" points="421.61,-793.62 428.59,-791.81 432.94,-797.56 425.96,-799.37 421.61,-793.62"/>
</g>
<!-- x9&#45;&gt;c16 -->
<g id="edge7" class="edge">
<title>x9:e&#45;&gt;c16:w</title>
<path fill="none" stroke="#7570b3" d="M179.08,-760.05C185.56,-760.61 190.41,-761.52 196.91,-762.07"/>
<polygon fill="none" stroke="#7570b3" points="178.93,-760.05 172.77,-763.8 166.94,-759.56 173.1,-755.81 178.93,-760.05"/>
<polygon fill="none" stroke="#7570b3" points="196.95,-762.07 203.11,-758.32 208.94,-762.56 202.79,-766.31 196.95,-762.07"/>
</g>
<!-- x10&#45;&gt;c16 -->
<g id="edge8" class="edge">
<title>x10:e&#45;&gt;c16:w</title>
<path fill="none" stroke="#d95f02" d="M178.63,-652.73C198.57,-666.54 177.34,-721.42 197.17,-735.34"/>
<polygon fill="none" stroke="#d95f02" points="178.52,-652.7 171.69,-654.99 166.94,-649.56 173.78,-647.27 178.52,-652.7"/>
<polygon fill="none" stroke="#d95f02" points="197.37,-735.39 204.21,-733.12 208.94,-738.56 202.1,-740.83 197.37,-735.39"/>
</g>
<!-- x11&#45;&gt;n1 -->
<g id="edge20" class="edge">
<title>x11:e&#45;&gt;n1:w</title>
<path fill="none" stroke="#a6761d" d="M494.94,-797.56C517.44,-797.56 508.62,-831.73 521.33,-842.41"/>
<polygon fill="#a6761d" stroke="#a6761d" points="520.35,-845.77 530.94,-845.56 522.53,-839.12 520.35,-845.77"/>
</g>
<!-- v12 -->
<g id="node24" class="node">
<title>v12</title>
<ellipse fill="none" stroke="black" cx="135.94" cy="-962.56" rx="27" ry="18"/>
<text text-anchor="middle" x="135.94" y="-958.86" font-family="Times New Roman,serif" font-size="14.00">1&#39;0</text>
</g>
<!-- v12&#45;&gt;c17 -->
<g id="edge59" class="edge">
<title>v12:e&#45;&gt;c17:w</title>
<path fill="none" stroke="#7570b3" d="M163.94,-962.56C182.05,-962.56 185.88,-948.43 198.85,-943.35"/>
<polygon fill="#7570b3" stroke="#7570b3" points="199.71,-946.75 208.94,-941.56 198.48,-939.86 199.71,-946.75"/>
</g>
<!-- v13 -->
<g id="node25" class="node">
<title>v13</title>
<ellipse fill="none" stroke="black" cx="135.94" cy="-908.56" rx="27" ry="18"/>
<text text-anchor="middle" x="135.94" y="-904.86" font-family="Times New Roman,serif" font-size="14.00">1&#39;0</text>
</g>
<!-- v13&#45;&gt;c17 -->
<g id="edge60" class="edge">
<title>v13:e&#45;&gt;c17:w</title>
<path fill="none" stroke="#d95f02" d="M163.94,-908.56C180.59,-908.56 186.37,-915.16 198.94,-917.64"/>
<polygon fill="#d95f02" stroke="#d95f02" points="198.66,-921.13 208.94,-918.56 199.31,-914.16 198.66,-921.13"/>
</g>
<!-- x15 -->
<g id="node28" class="node">
<title>x15</title>
<path fill="none" stroke="black" d="M444.94,-861.56C444.94,-861.56 482.94,-861.56 482.94,-861.56 488.94,-861.56 494.94,-867.56 494.94,-873.56 494.94,-873.56 494.94,-885.56 494.94,-885.56 494.94,-891.56 488.94,-897.56 482.94,-897.56 482.94,-897.56 444.94,-897.56 444.94,-897.56 438.94,-897.56 432.94,-891.56 432.94,-885.56 432.94,-885.56 432.94,-873.56 432.94,-873.56 432.94,-867.56 438.94,-861.56 444.94,-861.56"/>
<text text-anchor="middle" x="463.94" y="-875.86" font-family="Times New Roman,serif" font-size="14.00">0:0 &#45; 3:3</text>
</g>
<!-- c17&#45;&gt;x15 -->
<g id="edge11" class="edge">
<title>c17:e&#45;&gt;x15:w</title>
<path fill="none" stroke="#e6ab02" d="M402.49,-903.25C410.24,-898.07 413.62,-888.1 421.35,-882.9"/>
<polygon fill="none" stroke="#e6ab02" points="402.48,-903.25 397.81,-908.75 390.94,-906.56 395.61,-901.06 402.48,-903.25"/>
<polygon fill="none" stroke="#e6ab02" points="421.41,-882.88 426.07,-877.38 432.94,-879.56 428.28,-885.06 421.41,-882.88"/>
</g>
<!-- x14&#45;&gt;c17 -->
<g id="edge10" class="edge">
<title>x14:e&#45;&gt;c17:w</title>
<path fill="none" stroke="#1b9e77" d="M178.91,-856.21C185.87,-859.66 190.18,-865.62 197.2,-869.01"/>
<polygon fill="none" stroke="#1b9e77" points="178.66,-856.16 171.93,-858.76 166.94,-853.56 173.67,-850.95 178.66,-856.16"/>
<polygon fill="none" stroke="#1b9e77" points="197.22,-869.01 203.93,-866.38 208.94,-871.56 202.23,-874.19 197.22,-869.01"/>
</g>
<!-- x15&#45;&gt;n1 -->
<g id="edge21" class="edge">
<title>x15:e&#45;&gt;n1:w</title>
<path fill="none" stroke="#a6761d" d="M494.94,-879.56C512.82,-879.56 510.88,-857.11 521.33,-848.7"/>
<polygon fill="#a6761d" stroke="#a6761d" points="522.52,-851.99 530.94,-845.56 520.35,-845.34 522.52,-851.99"/>
</g>
<!-- v16 -->
<g id="node29" class="node">
<title>v16</title>
<ellipse fill="none" stroke="black" cx="135.94" cy="-353.56" rx="27" ry="18"/>
<text text-anchor="middle" x="135.94" y="-349.86" font-family="Times New Roman,serif" font-size="14.00">1&#39;0</text>
</g>
<!-- v16&#45;&gt;c18 -->
<g id="edge61" class="edge">
<title>v16:e&#45;&gt;c18:w</title>
<path fill="none" stroke="#d95f02" d="M163.94,-353.56C185.06,-353.56 186.19,-331.49 201.05,-324.59"/>
<polygon fill="#d95f02" stroke="#d95f02" points="201.85,-328 210.94,-322.56 200.44,-321.15 201.85,-328"/>
</g>
<!-- v17 -->
<g id="node30" class="node">
<title>v17</title>
<ellipse fill="none" stroke="black" cx="135.94" cy="-299.56" rx="27" ry="18"/>
<text text-anchor="middle" x="135.94" y="-295.86" font-family="Times New Roman,serif" font-size="14.00">1&#39;0</text>
</g>
<!-- v17&#45;&gt;c18 -->
<g id="edge62" class="edge">
<title>v17:e&#45;&gt;c18:w</title>
<path fill="none" stroke="#e6ab02" d="M163.94,-299.56C180.91,-299.56 187.54,-299.56 200.64,-299.56"/>
<polygon fill="#e6ab02" stroke="#e6ab02" points="200.94,-303.06 210.94,-299.56 200.94,-296.06 200.94,-303.06"/>
</g>
<!-- c18&#45;&gt;n2 -->
<g id="edge28" class="edge">
<title>c18:e&#45;&gt;n2:w</title>
<path fill="none" stroke="#7570b3" d="M388.94,-287.56C657.35,-287.56 547.97,-713.53 806.78,-724.35"/>
<polygon fill="#7570b3" stroke="#7570b3" points="806.88,-727.85 816.95,-724.56 807.03,-720.85 806.88,-727.85"/>
</g>
<!-- x19 -->
<g id="node34" class="node">
<title>x19</title>
<path fill="none" stroke="black" d="M1340.64,-623.56C1340.64,-623.56 1378.64,-623.56 1378.64,-623.56 1384.64,-623.56 1390.64,-629.56 1390.64,-635.56 1390.64,-635.56 1390.64,-647.56 1390.64,-647.56 1390.64,-653.56 1384.64,-659.56 1378.64,-659.56 1378.64,-659.56 1340.64,-659.56 1340.64,-659.56 1334.64,-659.56 1328.64,-653.56 1328.64,-647.56 1328.64,-647.56 1328.64,-635.56 1328.64,-635.56 1328.64,-629.56 1334.64,-623.56 1340.64,-623.56"/>
<text text-anchor="middle" x="1359.64" y="-637.86" font-family="Times New Roman,serif" font-size="14.00">0:0 &#45; 1:1</text>
</g>
<!-- c24&#45;&gt;x19 -->
<g id="edge13" class="edge">
<title>c24:e&#45;&gt;x19:w</title>
<path fill="none" stroke="#d95f02" d="M1304.25,-624.41C1309.13,-628.2 1312.18,-633.95 1317.07,-637.73"/>
<polygon fill="none" stroke="#d95f02" points="1304.03,-624.34 1297.08,-626.25 1292.64,-620.56 1299.6,-618.65 1304.03,-624.34"/>
<polygon fill="none" stroke="#d95f02" points="1317.25,-637.79 1324.2,-635.88 1328.64,-641.56 1321.69,-643.47 1317.25,-637.79"/>
</g>
<!-- x18&#45;&gt;c24 -->
<g id="edge12" class="edge">
<title>x18:e&#45;&gt;c24:w</title>
<path fill="none" stroke="#e6ab02" d="M988.06,-631.57C1032.48,-631.69 1049.96,-632.43 1094.39,-632.54"/>
<polygon fill="none" stroke="#e6ab02" points="987.8,-631.57 981.79,-635.57 975.8,-631.56 981.8,-627.57 987.8,-631.57"/>
<polygon fill="none" stroke="#e6ab02" points="1094.64,-632.54 1100.65,-628.55 1106.64,-632.56 1100.64,-636.55 1094.64,-632.54"/>
</g>
<!-- x19&#45;&gt;n8 -->
<g id="edge51" class="edge">
<title>x19:e&#45;&gt;n8:w</title>
<path fill="none" stroke="#7570b3" d="M1390.64,-641.56C1456.62,-641.56 1367.66,-920.37 1416.69,-950.86"/>
<polygon fill="#7570b3" stroke="#7570b3" points="1416.07,-954.32 1426.64,-953.56 1417.9,-947.56 1416.07,-954.32"/>
</g>
<!-- x21 -->
<g id="node37" class="node">
<title>x21</title>
<path fill="none" stroke="black" d="M1340.64,-859.56C1340.64,-859.56 1378.64,-859.56 1378.64,-859.56 1384.64,-859.56 1390.64,-865.56 1390.64,-871.56 1390.64,-871.56 1390.64,-883.56 1390.64,-883.56 1390.64,-889.56 1384.64,-895.56 1378.64,-895.56 1378.64,-895.56 1340.64,-895.56 1340.64,-895.56 1334.64,-895.56 1328.64,-889.56 1328.64,-883.56 1328.64,-883.56 1328.64,-871.56 1328.64,-871.56 1328.64,-865.56 1334.64,-859.56 1340.64,-859.56"/>
<text text-anchor="middle" x="1359.64" y="-873.86" font-family="Times New Roman,serif" font-size="14.00">0:0 &#45; 2:2</text>
</g>
<!-- c25&#45;&gt;x21 -->
<g id="edge15" class="edge">
<title>c25:e&#45;&gt;x21:w</title>
<path fill="none" stroke="#d95f02" d="M1303.76,-847.13C1310,-853.81 1311.23,-866.14 1317.41,-872.87"/>
<polygon fill="none" stroke="#d95f02" points="1303.74,-847.12 1296.67,-848.54 1292.64,-842.56 1299.71,-841.14 1303.74,-847.12"/>
<polygon fill="none" stroke="#d95f02" points="1317.57,-872.93 1324.65,-871.56 1328.64,-877.56 1321.56,-878.94 1317.57,-872.93"/>
</g>
<!-- x20&#45;&gt;c25 -->
<g id="edge14" class="edge">
<title>x20:e&#45;&gt;c25:w</title>
<path fill="none" stroke="#d95f02" d="M988.01,-910.8C1036.29,-904.52 1046.23,-861.49 1094.6,-855.3"/>
<polygon fill="none" stroke="#d95f02" points="987.77,-910.81 982.03,-915.18 975.8,-911.56 981.54,-907.19 987.77,-910.81"/>
<polygon fill="none" stroke="#d95f02" points="1094.66,-855.3 1100.41,-850.93 1106.64,-854.56 1100.9,-858.92 1094.66,-855.3"/>
</g>
<!-- x21&#45;&gt;n8 -->
<g id="edge52" class="edge">
<title>x21:e&#45;&gt;n8:w</title>
<path fill="none" stroke="#7570b3" d="M1390.64,-877.56C1423.93,-877.56 1396.83,-937.84 1416.91,-951.03"/>
<polygon fill="#7570b3" stroke="#7570b3" points="1416.08,-954.43 1426.64,-953.56 1417.84,-947.66 1416.08,-954.43"/>
</g>
<!-- x23 -->
<g id="node40" class="node">
<title>x23</title>
<path fill="none" stroke="black" d="M1340.64,-935.56C1340.64,-935.56 1378.64,-935.56 1378.64,-935.56 1384.64,-935.56 1390.64,-941.56 1390.64,-947.56 1390.64,-947.56 1390.64,-959.56 1390.64,-959.56 1390.64,-965.56 1384.64,-971.56 1378.64,-971.56 1378.64,-971.56 1340.64,-971.56 1340.64,-971.56 1334.64,-971.56 1328.64,-965.56 1328.64,-959.56 1328.64,-959.56 1328.64,-947.56 1328.64,-947.56 1328.64,-941.56 1334.64,-935.56 1340.64,-935.56"/>
<text text-anchor="middle" x="1359.64" y="-949.86" font-family="Times New Roman,serif" font-size="14.00">0:0 &#45; 3:3</text>
</g>
<!-- c26&#45;&gt;x23 -->
<g id="edge17" class="edge">
<title>c26:e&#45;&gt;x23:w</title>
<path fill="none" stroke="#1b9e77" d="M1298.77,-953.56C1305.25,-953.56 1310.12,-953.56 1316.62,-953.56"/>
<polygon fill="none" stroke="#1b9e77" points="1298.64,-953.56 1292.64,-957.56 1286.64,-953.56 1292.64,-949.56 1298.64,-953.56"/>
<polygon fill="none" stroke="#1b9e77" points="1316.64,-953.56 1322.64,-949.56 1328.64,-953.56 1322.64,-957.56 1316.64,-953.56"/>
</g>
<!-- x22&#45;&gt;c26 -->
<g id="edge16" class="edge">
<title>x22:e&#45;&gt;c26:w</title>
<path fill="none" stroke="#1b9e77" d="M987.98,-966.54C1035.1,-966.43 1053.29,-965.69 1100.37,-965.57"/>
<polygon fill="none" stroke="#1b9e77" points="987.8,-966.54 981.8,-970.55 975.8,-966.56 981.79,-962.55 987.8,-966.54"/>
<polygon fill="none" stroke="#1b9e77" points="1100.64,-965.57 1106.64,-961.57 1112.64,-965.56 1106.65,-969.57 1100.64,-965.57"/>
</g>
<!-- x23&#45;&gt;n8 -->
<g id="edge53" class="edge">
<title>x23:e&#45;&gt;n8:w</title>
<path fill="none" stroke="#7570b3" d="M1390.64,-953.56C1402.64,-953.56 1407.89,-953.56 1416.52,-953.56"/>
<polygon fill="#7570b3" stroke="#7570b3" points="1416.64,-957.06 1426.64,-953.56 1416.64,-950.06 1416.64,-957.06"/>
</g>
<!-- x25 -->
<g id="node43" class="node">
<title>x25</title>
<path fill="none" stroke="black" d="M1340.64,-762.56C1340.64,-762.56 1378.64,-762.56 1378.64,-762.56 1384.64,-762.56 1390.64,-768.56 1390.64,-774.56 1390.64,-774.56 1390.64,-786.56 1390.64,-786.56 1390.64,-792.56 1384.64,-798.56 1378.64,-798.56 1378.64,-798.56 1340.64,-798.56 1340.64,-798.56 1334.64,-798.56 1328.64,-792.56 1328.64,-786.56 1328.64,-786.56 1328.64,-774.56 1328.64,-774.56 1328.64,-768.56 1334.64,-762.56 1340.64,-762.56"/>
<text text-anchor="middle" x="1359.64" y="-776.86" font-family="Times New Roman,serif" font-size="14.00">0:0 &#45; 0:0</text>
</g>
<!-- c27&#45;&gt;x25 -->
<g id="edge19" class="edge">
<title>c27:e&#45;&gt;x25:w</title>
<path fill="none" stroke="#666666" d="M1303.99,-736.44C1311.83,-745.83 1309.45,-766.32 1317.31,-775.7"/>
<polygon fill="none" stroke="#666666" points="1303.67,-736.3 1296.57,-737.6 1292.64,-731.56 1299.73,-730.25 1303.67,-736.3"/>
<polygon fill="none" stroke="#666666" points="1317.61,-775.83 1324.7,-774.52 1328.64,-780.56 1321.55,-781.87 1317.61,-775.83"/>
</g>
<!-- x24&#45;&gt;c27 -->
<g id="edge18" class="edge">
<title>x24:e&#45;&gt;c27:w</title>
<path fill="none" stroke="#7570b3" d="M987.61,-777.41C1013.38,-771.03 1068.81,-752.17 1094.69,-745.74"/>
<polygon fill="none" stroke="#7570b3" points="987.6,-777.42 982.41,-782.42 975.8,-779.56 980.99,-774.55 987.6,-777.42"/>
<polygon fill="none" stroke="#7570b3" points="1094.83,-745.71 1100.02,-740.7 1106.64,-743.56 1101.45,-748.57 1094.83,-745.71"/>
</g>
<!-- x25&#45;&gt;n8 -->
<g id="edge54" class="edge">
<title>x25:e&#45;&gt;n8:w</title>
<path fill="none" stroke="#7570b3" d="M1390.64,-780.56C1465.34,-780.56 1359.45,-937.08 1416.52,-952.36"/>
<polygon fill="#7570b3" stroke="#7570b3" points="1416.3,-955.86 1426.64,-953.56 1417.12,-948.91 1416.3,-955.86"/>
</g>
</g>
</svg>
