<?xml version="1.0" encoding="UTF-8" standalone="no"?>
<!DOCTYPE svg PUBLIC "-//W3C//DTD SVG 1.1//EN"
 "http://www.w3.org/Graphics/SVG/1.1/DTD/svg11.dtd">
<!-- Generated by graphviz version 4.0.0 (20220529.0937)
 -->
<!-- Title: top_module Pages: 1 -->
<svg width="781pt" height="350pt"
 viewBox="0.00 0.00 780.89 350.00" xmlns="http://www.w3.org/2000/svg" xmlns:xlink="http://www.w3.org/1999/xlink">
<g id="graph0" class="graph" transform="scale(1 1) rotate(0) translate(4 346)">
<title>top_module</title>
<polygon fill="white" stroke="transparent" points="-4,4 -4,-346 776.89,-346 776.89,4 -4,4"/>
<text text-anchor="middle" x="386.45" y="-7.8" font-family="Times New Roman,serif" font-size="14.00">top_module</text>
<!-- n3 -->
<g id="node1" class="node">
<title>n3</title>
<polygon fill="none" stroke="black" points="68.91,-195.54 68.91,-210.46 48.74,-221 20.2,-221 0.03,-210.46 0.03,-195.54 20.2,-185 48.74,-185 68.91,-195.54"/>
<text text-anchor="middle" x="34.47" y="-199.3" font-family="Times New Roman,serif" font-size="14.00">areset</text>
</g>
<!-- c13 -->
<g id="node7" class="node">
<title>c13</title>
<polygon fill="none" stroke="black" points="526.94,-121.5 526.94,-190.5 652.94,-190.5 652.94,-121.5 526.94,-121.5"/>
<text text-anchor="middle" x="553.44" y="-175.3" font-family="Times New Roman,serif" font-size="14.00">ARST</text>
<polyline fill="none" stroke="black" points="526.94,-167.5 579.94,-167.5 "/>
<text text-anchor="middle" x="553.44" y="-152.3" font-family="Times New Roman,serif" font-size="14.00">CLK</text>
<polyline fill="none" stroke="black" points="526.94,-144.5 579.94,-144.5 "/>
<text text-anchor="middle" x="553.44" y="-129.3" font-family="Times New Roman,serif" font-size="14.00">D</text>
<polyline fill="none" stroke="black" points="579.94,-121.5 579.94,-190.5 "/>
<text text-anchor="middle" x="602.94" y="-159.8" font-family="Times New Roman,serif" font-size="14.00">$12</text>
<text text-anchor="middle" x="602.94" y="-144.8" font-family="Times New Roman,serif" font-size="14.00">$adff</text>
<polyline fill="none" stroke="black" points="625.94,-121.5 625.94,-190.5 "/>
<text text-anchor="middle" x="639.44" y="-152.3" font-family="Times New Roman,serif" font-size="14.00">Q</text>
</g>
<!-- n3&#45;&gt;c13 -->
<g id="edge4" class="edge">
<title>n3:e&#45;&gt;c13:w</title>
<path fill="none" stroke="#7570b3" d="M68.94,-203C117.91,-203 128.98,-187 177.94,-187 177.94,-187 177.94,-187 418.44,-187 463.21,-187 476.64,-180.14 516.75,-179.13"/>
<polygon fill="#7570b3" stroke="#7570b3" points="516.99,-182.62 526.94,-179 516.9,-175.62 516.99,-182.62"/>
</g>
<!-- n4 -->
<g id="node2" class="node">
<title>n4</title>
<polygon fill="none" stroke="black" points="61.47,-141.54 61.47,-156.46 45.65,-167 23.29,-167 7.47,-156.46 7.47,-141.54 23.29,-131 45.65,-131 61.47,-141.54"/>
<text text-anchor="middle" x="34.47" y="-145.3" font-family="Times New Roman,serif" font-size="14.00">clk</text>
</g>
<!-- n4&#45;&gt;c13 -->
<g id="edge5" class="edge">
<title>n4:e&#45;&gt;c13:w</title>
<path fill="none" stroke="#e7298a" d="M62.47,-149C113.79,-149 126.62,-149 177.94,-149 177.94,-149 177.94,-149 418.44,-149 463.18,-149 476.66,-155 516.76,-155.89"/>
<polygon fill="#e7298a" stroke="#e7298a" points="516.91,-159.39 526.94,-156 516.98,-152.39 516.91,-159.39"/>
</g>
<!-- n5 -->
<g id="node3" class="node">
<title>n5</title>
<polygon fill="none" stroke="black" points="62.75,-87.54 62.75,-102.46 46.19,-113 22.76,-113 6.19,-102.46 6.19,-87.54 22.76,-77 46.19,-77 62.75,-87.54"/>
<text text-anchor="middle" x="34.47" y="-91.3" font-family="Times New Roman,serif" font-size="14.00">data</text>
</g>
<!-- c18 -->
<g id="node8" class="node">
<title>c18</title>
<polygon fill="none" stroke="black" points="367.94,-62.5 367.94,-131.5 466.94,-131.5 466.94,-62.5 367.94,-62.5"/>
<text text-anchor="middle" x="380.94" y="-116.3" font-family="Times New Roman,serif" font-size="14.00">A</text>
<polyline fill="none" stroke="black" points="367.94,-108.5 393.94,-108.5 "/>
<text text-anchor="middle" x="380.94" y="-93.3" font-family="Times New Roman,serif" font-size="14.00">B</text>
<polyline fill="none" stroke="black" points="367.94,-85.5 393.94,-85.5 "/>
<text text-anchor="middle" x="380.94" y="-70.3" font-family="Times New Roman,serif" font-size="14.00">S</text>
<polyline fill="none" stroke="black" points="393.94,-62.5 393.94,-131.5 "/>
<text text-anchor="middle" x="417.44" y="-100.8" font-family="Times New Roman,serif" font-size="14.00">$10</text>
<text text-anchor="middle" x="417.44" y="-85.8" font-family="Times New Roman,serif" font-size="14.00">$mux</text>
<polyline fill="none" stroke="black" points="440.94,-62.5 440.94,-131.5 "/>
<text text-anchor="middle" x="453.94" y="-93.3" font-family="Times New Roman,serif" font-size="14.00">Y</text>
</g>
<!-- n5&#45;&gt;c18 -->
<g id="edge6" class="edge">
<title>n5:e&#45;&gt;c18:w</title>
<path fill="none" stroke="#e7298a" stroke-width="3" d="M63.47,-95C195.36,-95 230.84,-96.9 357.83,-97"/>
<polygon fill="#e7298a" stroke="#e7298a" stroke-width="3" points="357.94,-100.5 367.94,-97 357.94,-93.5 357.94,-100.5"/>
<text text-anchor="middle" x="178.94" y="-99.8" font-family="Times New Roman,serif" font-size="14.00" fill="#e7298a">&lt;4&gt;</text>
</g>
<!-- n6 -->
<g id="node4" class="node">
<title>n6</title>
<polygon fill="none" stroke="black" points="61.47,-306.54 61.47,-321.46 45.65,-332 23.29,-332 7.47,-321.46 7.47,-306.54 23.29,-296 45.65,-296 61.47,-306.54"/>
<text text-anchor="middle" x="34.47" y="-310.3" font-family="Times New Roman,serif" font-size="14.00">ena</text>
</g>
<!-- c19 -->
<g id="node9" class="node">
<title>c19</title>
<polygon fill="none" stroke="black" points="208.94,-248.5 208.94,-317.5 307.94,-317.5 307.94,-248.5 208.94,-248.5"/>
<text text-anchor="middle" x="221.94" y="-302.3" font-family="Times New Roman,serif" font-size="14.00">A</text>
<polyline fill="none" stroke="black" points="208.94,-294.5 234.94,-294.5 "/>
<text text-anchor="middle" x="221.94" y="-279.3" font-family="Times New Roman,serif" font-size="14.00">B</text>
<polyline fill="none" stroke="black" points="208.94,-271.5 234.94,-271.5 "/>
<text text-anchor="middle" x="221.94" y="-256.3" font-family="Times New Roman,serif" font-size="14.00">S</text>
<polyline fill="none" stroke="black" points="234.94,-248.5 234.94,-317.5 "/>
<text text-anchor="middle" x="258.44" y="-286.8" font-family="Times New Roman,serif" font-size="14.00">$4</text>
<text text-anchor="middle" x="258.44" y="-271.8" font-family="Times New Roman,serif" font-size="14.00">$mux</text>
<polyline fill="none" stroke="black" points="281.94,-248.5 281.94,-317.5 "/>
<text text-anchor="middle" x="294.94" y="-279.3" font-family="Times New Roman,serif" font-size="14.00">Y</text>
</g>
<!-- n6&#45;&gt;c19 -->
<g id="edge7" class="edge">
<title>n6:e&#45;&gt;c19:w</title>
<path fill="none" stroke="#7570b3" d="M62.47,-314C120.07,-314 144.23,-330.69 190.94,-297 201.72,-289.23 196.68,-273.22 200.14,-265.04"/>
<polygon fill="#7570b3" stroke="#7570b3" points="202.01,-268.01 208.94,-260 198.53,-261.93 202.01,-268.01"/>
</g>
<!-- n7 -->
<g id="node5" class="node">
<title>n7</title>
<polygon fill="none" stroke="black" points="63.16,-33.54 63.16,-48.46 46.35,-59 22.59,-59 5.78,-48.46 5.78,-33.54 22.59,-23 46.35,-23 63.16,-33.54"/>
<text text-anchor="middle" x="34.47" y="-37.3" font-family="Times New Roman,serif" font-size="14.00">load</text>
</g>
<!-- n7&#45;&gt;c18 -->
<g id="edge8" class="edge">
<title>n7:e&#45;&gt;c18:w</title>
<path fill="none" stroke="#d95f02" d="M64.47,-41C196.7,-41 230.57,-72.35 357.8,-73.94"/>
<polygon fill="#d95f02" stroke="#d95f02" points="357.92,-77.44 367.94,-74 357.96,-70.44 357.92,-77.44"/>
</g>
<!-- n8 -->
<g id="node6" class="node">
<title>n8</title>
<polygon fill="none" stroke="black" points="766.94,-217.54 766.94,-232.46 751.13,-243 728.76,-243 712.94,-232.46 712.94,-217.54 728.76,-207 751.13,-207 766.94,-217.54"/>
<text text-anchor="middle" x="739.94" y="-221.3" font-family="Times New Roman,serif" font-size="14.00">q</text>
</g>
<!-- n8&#45;&gt;c19 -->
<g id="edge10" class="edge">
<title>n8:e&#45;&gt;c19:w</title>
<path fill="none" stroke="#1b9e77" stroke-width="3" d="M767.94,-225C775.95,-225 772.3,-237.04 766.94,-243 628.76,-396.73 513.97,-301.28 307.94,-318 263.86,-321.58 240.98,-347.94 208.44,-318 207.83,-317.43 207.25,-316.75 206.73,-316"/>
<polygon fill="#1b9e77" stroke="#1b9e77" stroke-width="3" points="210.22,-316.22 207.44,-306 203.24,-315.73 210.22,-316.22"/>
<text text-anchor="middle" x="496.94" y="-330.8" font-family="Times New Roman,serif" font-size="14.00" fill="#1b9e77">&lt;3&gt;</text>
</g>
<!-- x0 -->
<g id="node10" class="node">
<title>x0</title>
<path fill="none" stroke="black" d="M98.94,-231C98.94,-231 136.94,-231 136.94,-231 142.94,-231 148.94,-237 148.94,-243 148.94,-243 148.94,-265 148.94,-265 148.94,-271 142.94,-277 136.94,-277 136.94,-277 98.94,-277 98.94,-277 92.94,-277 86.94,-271 86.94,-265 86.94,-265 86.94,-243 86.94,-243 86.94,-237 92.94,-231 98.94,-231"/>
<text text-anchor="middle" x="117.94" y="-261.8" font-family="Times New Roman,serif" font-size="14.00">0 &#45;&gt; 3:3</text>
<polyline fill="none" stroke="black" points="86.94,-254 148.94,-254 "/>
<text text-anchor="middle" x="117.94" y="-238.8" font-family="Times New Roman,serif" font-size="14.00">3:1 &#45; 2:0</text>
</g>
<!-- n8&#45;&gt;x0 -->
<g id="edge11" class="edge">
<title>n8:e&#45;&gt;x0:w</title>
<path fill="none" stroke="#1b9e77" stroke-width="3" d="M767.94,-225C775.95,-225 772.76,-237.49 766.94,-243 749.51,-259.49 736.88,-244.76 712.94,-243 658.28,-238.99 645.75,-225 590.94,-225 257.44,-225 257.44,-225 257.44,-225 219.53,-225 114.47,-204.43 86.94,-230.5 86.59,-230.83 86.26,-231.2 85.93,-231.6"/>
<polygon fill="#1b9e77" stroke="#1b9e77" stroke-width="3" points="82.43,-232 85.94,-242 89.43,-232 82.43,-232"/>
<text text-anchor="middle" x="417.44" y="-228.8" font-family="Times New Roman,serif" font-size="14.00" fill="#1b9e77">&lt;3&gt;</text>
</g>
<!-- c13&#45;&gt;n8 -->
<g id="edge9" class="edge">
<title>c13:e&#45;&gt;n8:w</title>
<path fill="none" stroke="#1b9e77" stroke-width="3" d="M652.94,-156C678.72,-156 678.68,-176 694.94,-196 701.37,-203.91 700.44,-214.28 703.74,-220.24"/>
<polygon fill="#1b9e77" stroke="#1b9e77" stroke-width="3" points="702.45,-223.51 712.94,-225 705.67,-217.3 702.45,-223.51"/>
<text text-anchor="middle" x="682.94" y="-199.8" font-family="Times New Roman,serif" font-size="14.00" fill="#1b9e77">&lt;3&gt;</text>
</g>
<!-- c18&#45;&gt;c13 -->
<g id="edge2" class="edge">
<title>c18:e&#45;&gt;c13:w</title>
<path fill="none" stroke="#1b9e77" stroke-width="3" d="M466.94,-97C488.22,-97 490.95,-108.64 508.94,-120 513.37,-122.8 515.39,-126.29 517.79,-128.95"/>
<polygon fill="#1b9e77" stroke="#1b9e77" stroke-width="3" points="516.38,-132.16 526.94,-133 519.21,-125.76 516.38,-132.16"/>
<text text-anchor="middle" x="496.94" y="-123.8" font-family="Times New Roman,serif" font-size="14.00" fill="#1b9e77">&lt;4&gt;</text>
</g>
<!-- c19&#45;&gt;c18 -->
<g id="edge3" class="edge">
<title>c19:e&#45;&gt;c18:w</title>
<path fill="none" stroke="#1b9e77" stroke-width="3" d="M307.94,-283C381.37,-283 299.55,-135.53 357.82,-121.13"/>
<polygon fill="#1b9e77" stroke="#1b9e77" stroke-width="3" points="358.39,-124.59 367.94,-120 357.62,-117.63 358.39,-124.59"/>
<text text-anchor="middle" x="337.94" y="-281.8" font-family="Times New Roman,serif" font-size="14.00" fill="#1b9e77">&lt;4&gt;</text>
</g>
<!-- x0&#45;&gt;c19 -->
<g id="edge1" class="edge">
<title>x0:e&#45;&gt;c19:w</title>
<path fill="none" stroke="#66a61e" stroke-width="3" d="M160.93,-255.9C176.02,-261.14 181.79,-275.76 196.82,-281.05"/>
<polygon fill="none" stroke="#66a61e" stroke-width="3" points="160.79,-255.88 154.24,-258.89 148.94,-254 155.5,-250.99 160.79,-255.88"/>
<polygon fill="none" stroke="#66a61e" stroke-width="3" points="197.09,-281.1 203.65,-278.1 208.94,-283 202.38,-286 197.09,-281.1"/>
<text text-anchor="middle" x="178.94" y="-281.8" font-family="Times New Roman,serif" font-size="14.00" fill="#66a61e">&lt;4&gt;</text>
</g>
</g>
</svg>
