<svg xmlns="http://www.w3.org/2000/svg" xmlns:xlink="http://www.w3.org/1999/xlink" xmlns:s="https://github.com/nturley/netlistsvg" width="456" height="288">
  <style>svg {
    stroke:#000;
    fill:none;
  }
  text {
    fill:#000;
    stroke:none;
    font-size:10px;
    font-weight: bold;
    font-family: "Courier New", monospace;
  }
  .nodelabel {
    text-anchor: middle;
  }
  .inputPortLabel {
    text-anchor: end;
  }
  .splitjoinBody {
    fill:#000;
  }</style>
  <g s:type="generic" transform="translate(108,57.5)" s:width="30" s:height="40" id="cell_$procdff$12">
    <text x="15" y="-4" class="nodelabel cell_$procdff$12" s:attribute="ref">$adff</text>
    <rect width="30" height="60" s:generic="body" class="cell_$procdff$12"/>
    <g transform="translate(0,10)" s:x="0" s:y="10" s:pid="in0" id="port_$procdff$12~ARST">
      <text x="-3" y="-4" class="inputPortLabel cell_$procdff$12">ARST</text>
    </g>
    <g transform="translate(0,30)" s:x="0" s:y="10" s:pid="in0" id="port_$procdff$12~CLK">
      <text x="-3" y="-4" class="inputPortLabel cell_$procdff$12">CLK</text>
    </g>
    <g transform="translate(0,50)" s:x="0" s:y="10" s:pid="in0" id="port_$procdff$12~D">
      <text x="-3" y="-4" class="inputPortLabel cell_$procdff$12">D</text>
    </g>
    <g transform="translate(30,10)" s:x="30" s:y="10" s:pid="out0" id="port_$procdff$12~Q">
      <text x="5" y="-4" style="fill:#000; stroke:none" class="cell_$procdff$12">Q</text>
    </g>
  </g>
  <g s:type="mux" transform="translate(404,22)" s:width="20" s:height="40" id="cell_$procmux$10">
    <s:alias val="$pmux"/>
    <s:alias val="$mux"/>
    <s:alias val="$_MUX_"/>
    <path d="M0,0 L20,10 L20,30 L0,40 Z" class="cell_$procmux$10"/>
    <g s:x="0" s:y="10" s:pid="A"/>
    <g s:x="0" s:y="30" s:pid="B"/>
    <g s:x="10" s:y="35" s:pid="S"/>
    <g s:x="20" s:y="20" s:pid="Y"/>
  </g>
  <g s:type="mux" transform="translate(342.3333333333333,12)" s:width="20" s:height="40" id="cell_$procmux$4">
    <s:alias val="$pmux"/>
    <s:alias val="$mux"/>
    <s:alias val="$_MUX_"/>
    <path d="M0,0 L20,10 L20,30 L0,40 Z" class="cell_$procmux$4"/>
    <g s:x="0" s:y="10" s:pid="A"/>
    <g s:x="0" s:y="30" s:pid="B"/>
    <g s:x="10" s:y="35" s:pid="S"/>
    <g s:x="20" s:y="20" s:pid="Y"/>
  </g>
  <g s:type="inputExt" transform="translate(12,123)" s:width="30" s:height="20" id="cell_clk">
    <text x="15" y="-4" class="nodelabel cell_clk" s:attribute="ref">clk</text>
    <s:alias val="$_inputExt_"/>
    <path d="M0,0 L0,20 L15,20 L30,10 L15,0 Z" class="cell_clk"/>
    <g s:x="28" s:y="10" s:pid="Y"/>
  </g>
  <g s:type="inputExt" transform="translate(12,58)" s:width="30" s:height="20" id="cell_areset">
    <text x="15" y="-4" class="nodelabel cell_areset" s:attribute="ref">areset</text>
    <s:alias val="$_inputExt_"/>
    <path d="M0,0 L0,20 L15,20 L30,10 L15,0 Z" class="cell_areset"/>
    <g s:x="28" s:y="10" s:pid="Y"/>
  </g>
  <g s:type="inputExt" transform="translate(339,215)" s:width="30" s:height="20" id="cell_load">
    <text x="15" y="-4" class="nodelabel cell_load" s:attribute="ref">load</text>
    <s:alias val="$_inputExt_"/>
    <path d="M0,0 L0,20 L15,20 L30,10 L15,0 Z" class="cell_load"/>
    <g s:x="28" s:y="10" s:pid="Y"/>
  </g>
  <g s:type="inputExt" transform="translate(274,120)" s:width="30" s:height="20" id="cell_ena">
    <text x="15" y="-4" class="nodelabel cell_ena" s:attribute="ref">ena</text>
    <s:alias val="$_inputExt_"/>
    <path d="M0,0 L0,20 L15,20 L30,10 L15,0 Z" class="cell_ena"/>
    <g s:x="28" s:y="10" s:pid="Y"/>
  </g>
  <g s:type="inputExt" transform="translate(339,150)" s:width="30" s:height="20" id="cell_data">
    <text x="15" y="-4" class="nodelabel cell_data" s:attribute="ref">data</text>
    <s:alias val="$_inputExt_"/>
    <path d="M0,0 L0,20 L15,20 L30,10 L15,0 Z" class="cell_data"/>
    <g s:x="28" s:y="10" s:pid="Y"/>
  </g>
  <g s:type="outputExt" transform="translate(404,245)" s:width="30" s:height="20" id="cell_q">
    <text x="15" y="-4" class="nodelabel cell_q" s:attribute="ref">q</text>
    <s:alias val="$_outputExt_"/>
    <path d="M30,0 L30,20 L15,20 L0,10 L15,0 Z" class="cell_q"/>
    <g s:x="0" s:y="10" s:pid="A"/>
  </g>
  <g s:type="constant" transform="translate(209,88)" s:width="30" s:height="20" id="cell_0">
    <text x="15" y="-4" class="nodelabel cell_0" s:attribute="ref">0</text>
    <s:alias val="$_constant_"/>
    <rect width="30" height="20" class="cell_0"/>
    <g s:x="30" s:y="10" s:pid="Y"/>
  </g>
  <g s:type="join" transform="translate(293,35)" s:width="4" s:height="40" id="cell_$join$,11,12,13,22,">
    <rect width="5" height="40" class="splitjoinBody" s:generic="body"/>
    <s:alias val="$_join_"/>
    <g s:x="5" s:y="20" s:pid="out"/>
    <g transform="translate(0,10)" s:x="0" s:y="10" s:pid="in0">
      <text x="-3" y="-4" class="inputPortLabel">0:2</text>
    </g>
    <g transform="translate(0,30)" s:x="0" s:y="10" s:pid="in0">
      <text x="-3" y="-4" class="inputPortLabel">3</text>
    </g>
  </g>
  <g s:type="split" transform="translate(215,35)" s:width="5" s:height="40" id="cell_$split$,10,11,12,13,">
    <rect width="5" height="20" class="splitjoinBody" s:generic="body"/>
    <s:alias val="$_split_"/>
    <g s:x="0" s:y="20" s:pid="in"/>
    <g transform="translate(4,10)" s:x="4" s:y="10" s:pid="out0">
      <text x="5" y="-4">1:3</text>
    </g>
  </g>
  <line x1="40" x2="108" y1="68" y2="68" class="net_3"/>
  <line x1="40" x2="58" y1="133" y2="133" class="net_2"/>
  <line x1="58" x2="58" y1="133" y2="88" class="net_2"/>
  <line x1="58" x2="108" y1="88" y2="88" class="net_2"/>
  <line x1="424" x2="444" y1="42" y2="42" class="net_14,15,16,17"/>
  <line x1="444" x2="444" y1="42" y2="275" class="net_14,15,16,17"/>
  <line x1="444" x2="68" y1="275" y2="275" class="net_14,15,16,17"/>
  <line x1="68" x2="68" y1="275" y2="108" class="net_14,15,16,17"/>
  <line x1="68" x2="108" y1="108" y2="108" class="net_14,15,16,17"/>
  <line x1="362.3333333333333" x2="404" y1="32" y2="32" class="net_18,19,20,21"/>
  <line x1="367" x2="379" y1="160" y2="160" class="net_6,7,8,9"/>
  <line x1="379" x2="379" y1="160" y2="52" class="net_6,7,8,9"/>
  <line x1="379" x2="404" y1="52" y2="52" class="net_6,7,8,9"/>
  <line x1="367" x2="414" y1="225" y2="225" class="net_4"/>
  <line x1="414" x2="414" y1="225" y2="57" class="net_4"/>
  <line x1="139" x2="184" y1="68" y2="68" class="net_10,11,12,13"/>
  <line x1="184" x2="184" y1="68" y2="22" class="net_10,11,12,13"/>
  <circle cx="184" cy="68" r="2" style="fill:#000" class="net_10,11,12,13"/>
  <line x1="184" x2="342.3333333333333" y1="22" y2="22" class="net_10,11,12,13"/>
  <line x1="139" x2="184" y1="68" y2="68" class="net_10,11,12,13"/>
  <line x1="184" x2="184" y1="68" y2="255" class="net_10,11,12,13"/>
  <line x1="184" x2="404" y1="255" y2="255" class="net_10,11,12,13"/>
  <line x1="139" x2="215.5" y1="68" y2="68" class="net_10,11,12,13"/>
  <line x1="215.5" x2="215.5" y1="68" y2="56" class="net_10,11,12,13"/>
  <line x1="299" x2="314" y1="55.5" y2="55.5" class="net_11,12,13,22"/>
  <line x1="314" x2="314" y1="55.5" y2="42" class="net_11,12,13,22"/>
  <line x1="314" x2="342.3333333333333" y1="42" y2="42" class="net_11,12,13,22"/>
  <line x1="302" x2="352.3333333333333" y1="130" y2="130" class="net_5"/>
  <line x1="352.3333333333333" x2="352.3333333333333" y1="130" y2="47" class="net_5"/>
  <line x1="220" x2="293" y1="45.5" y2="45.5" class="net_11,12,13"/>
  <line x1="239" x2="249" y1="98" y2="98" class="net_22"/>
  <line x1="249" x2="249" y1="98" y2="65.5" class="net_22"/>
  <line x1="249" x2="293" y1="65.5" y2="65.5" class="net_22"/>
</svg>
