<?xml version="1.0" encoding="UTF-8" standalone="no"?>
<!DOCTYPE svg PUBLIC "-//W3C//DTD SVG 1.1//EN"
 "http://www.w3.org/Graphics/SVG/1.1/DTD/svg11.dtd">
<!-- Generated by graphviz version 4.0.0 (20220529.0937)
 -->
<!-- Title: top_module Pages: 1 -->
<svg width="650pt" height="474pt"
 viewBox="0.00 0.00 649.80 474.00" xmlns="http://www.w3.org/2000/svg" xmlns:xlink="http://www.w3.org/1999/xlink">
<g id="graph0" class="graph" transform="scale(1 1) rotate(0) translate(4 470)">
<title>top_module</title>
<polygon fill="white" stroke="transparent" points="-4,4 -4,-470 645.8,-470 645.8,4 -4,4"/>
<text text-anchor="middle" x="320.9" y="-7.8" font-family="Times New Roman,serif" font-size="14.00">top_module</text>
<!-- n1 -->
<g id="node1" class="node">
<title>n1</title>
<polygon fill="none" stroke="black" points="56.55,-401.04 56.55,-415.96 40.73,-426.5 18.36,-426.5 2.55,-415.96 2.55,-401.04 18.36,-390.5 40.73,-390.5 56.55,-401.04"/>
<text text-anchor="middle" x="29.55" y="-404.8" font-family="Times New Roman,serif" font-size="14.00">in</text>
</g>
<!-- c11 -->
<g id="node11" class="node">
<title>c11</title>
<polygon fill="none" stroke="black" points="193.09,-327.5 193.09,-419.5 405.09,-419.5 405.09,-327.5 193.09,-327.5"/>
<text text-anchor="middle" x="207.09" y="-404.3" font-family="Times New Roman,serif" font-size="14.00">I0</text>
<polyline fill="none" stroke="black" points="193.09,-396.5 221.09,-396.5 "/>
<text text-anchor="middle" x="207.09" y="-381.3" font-family="Times New Roman,serif" font-size="14.00">I1</text>
<polyline fill="none" stroke="black" points="193.09,-373.5 221.09,-373.5 "/>
<text text-anchor="middle" x="207.09" y="-358.3" font-family="Times New Roman,serif" font-size="14.00">I2</text>
<polyline fill="none" stroke="black" points="193.09,-350.5 221.09,-350.5 "/>
<text text-anchor="middle" x="207.09" y="-335.3" font-family="Times New Roman,serif" font-size="14.00">I3</text>
<polyline fill="none" stroke="black" points="221.09,-327.5 221.09,-419.5 "/>
<text text-anchor="middle" x="299.59" y="-377.3" font-family="Times New Roman,serif" font-size="14.00">next_state_SB_LUT4_O</text>
<text text-anchor="middle" x="299.59" y="-362.3" font-family="Times New Roman,serif" font-size="14.00">SB_LUT4</text>
<polyline fill="none" stroke="black" points="378.09,-327.5 378.09,-419.5 "/>
<text text-anchor="middle" x="391.59" y="-369.8" font-family="Times New Roman,serif" font-size="14.00">O</text>
</g>
<!-- n1&#45;&gt;c11 -->
<g id="edge6" class="edge">
<title>n1:e&#45;&gt;c11:w</title>
<path fill="none" stroke="#e7298a" d="M57.55,-408.5C78.1,-408.5 77.24,-391.69 95.09,-381.5 133.18,-359.77 143.91,-341.56 182.62,-338.85"/>
<polygon fill="#e7298a" stroke="#e7298a" points="183.22,-342.33 193.09,-338.5 182.98,-335.33 183.22,-342.33"/>
</g>
<!-- x8 -->
<g id="node15" class="node">
<title>x8</title>
<path fill="none" stroke="black" d="M453.09,-429.5C453.09,-429.5 491.09,-429.5 491.09,-429.5 497.09,-429.5 503.09,-435.5 503.09,-441.5 503.09,-441.5 503.09,-453.5 503.09,-453.5 503.09,-459.5 497.09,-465.5 491.09,-465.5 491.09,-465.5 453.09,-465.5 453.09,-465.5 447.09,-465.5 441.09,-459.5 441.09,-453.5 441.09,-453.5 441.09,-441.5 441.09,-441.5 441.09,-435.5 447.09,-429.5 453.09,-429.5"/>
<text text-anchor="middle" x="472.09" y="-443.8" font-family="Times New Roman,serif" font-size="14.00">0:0 &#45; 0:0</text>
</g>
<!-- n1&#45;&gt;x8 -->
<g id="edge7" class="edge">
<title>n1:e&#45;&gt;x8:w</title>
<path fill="none" stroke="#e7298a" d="M57.55,-408.5C78.1,-408.5 75.64,-428.86 95.09,-435.5 237.44,-484.11 285.08,-449.15 430.89,-447.56"/>
<polygon fill="#e7298a" stroke="#e7298a" points="431.11,-451.05 441.09,-447.5 431.07,-444.05 431.11,-451.05"/>
</g>
<!-- n2 -->
<g id="node2" class="node">
<title>n2</title>
<polygon fill="none" stroke="black" points="641.66,-399.04 641.66,-413.96 611.66,-424.5 569.24,-424.5 539.24,-413.96 539.24,-399.04 569.24,-388.5 611.66,-388.5 641.66,-399.04"/>
<text text-anchor="middle" x="590.45" y="-402.8" font-family="Times New Roman,serif" font-size="14.00">next_state</text>
</g>
<!-- n3 -->
<g id="node3" class="node">
<title>n3</title>
<polygon fill="none" stroke="black" points="617.45,-117.04 617.45,-131.96 601.63,-142.5 579.26,-142.5 563.45,-131.96 563.45,-117.04 579.26,-106.5 601.63,-106.5 617.45,-117.04"/>
<text text-anchor="middle" x="590.45" y="-120.8" font-family="Times New Roman,serif" font-size="14.00">out</text>
</g>
<!-- n4 -->
<g id="node4" class="node">
<title>n4</title>
<polygon fill="none" stroke="black" points="59.14,-171.04 59.14,-185.96 41.8,-196.5 17.29,-196.5 -0.05,-185.96 -0.05,-171.04 17.29,-160.5 41.8,-160.5 59.14,-171.04"/>
<text text-anchor="middle" x="29.55" y="-174.8" font-family="Times New Roman,serif" font-size="14.00">state</text>
</g>
<!-- x2 -->
<g id="node8" class="node">
<title>x2</title>
<path fill="none" stroke="black" d="M107.09,-78.5C107.09,-78.5 145.09,-78.5 145.09,-78.5 151.09,-78.5 157.09,-84.5 157.09,-90.5 157.09,-90.5 157.09,-102.5 157.09,-102.5 157.09,-108.5 151.09,-114.5 145.09,-114.5 145.09,-114.5 107.09,-114.5 107.09,-114.5 101.09,-114.5 95.09,-108.5 95.09,-102.5 95.09,-102.5 95.09,-90.5 95.09,-90.5 95.09,-84.5 101.09,-78.5 107.09,-78.5"/>
<text text-anchor="middle" x="126.09" y="-92.8" font-family="Times New Roman,serif" font-size="14.00">0:0 &#45; 0:0</text>
</g>
<!-- n4&#45;&gt;x2 -->
<g id="edge11" class="edge">
<title>n4:e&#45;&gt;x2:w</title>
<path fill="none" stroke="#1b9e77" d="M59.09,-178.5C94.85,-178.5 63.29,-112.31 85.37,-98.87"/>
<polygon fill="#1b9e77" stroke="#1b9e77" points="86.2,-102.27 95.09,-96.5 84.55,-95.46 86.2,-102.27"/>
</g>
<!-- x3 -->
<g id="node9" class="node">
<title>x3</title>
<path fill="none" stroke="black" d="M107.09,-23.5C107.09,-23.5 145.09,-23.5 145.09,-23.5 151.09,-23.5 157.09,-29.5 157.09,-35.5 157.09,-35.5 157.09,-47.5 157.09,-47.5 157.09,-53.5 151.09,-59.5 145.09,-59.5 145.09,-59.5 107.09,-59.5 107.09,-59.5 101.09,-59.5 95.09,-53.5 95.09,-47.5 95.09,-47.5 95.09,-35.5 95.09,-35.5 95.09,-29.5 101.09,-23.5 107.09,-23.5"/>
<text text-anchor="middle" x="126.09" y="-37.8" font-family="Times New Roman,serif" font-size="14.00">1:1 &#45; 0:0</text>
</g>
<!-- n4&#45;&gt;x3 -->
<g id="edge12" class="edge">
<title>n4:e&#45;&gt;x3:w</title>
<path fill="none" stroke="#1b9e77" d="M59.09,-178.5C118.11,-178.5 42.78,-58.09 85.01,-43.04"/>
<polygon fill="#1b9e77" stroke="#1b9e77" points="85.74,-46.47 95.09,-41.5 84.68,-39.55 85.74,-46.47"/>
</g>
<!-- x5 -->
<g id="node12" class="node">
<title>x5</title>
<path fill="none" stroke="black" d="M107.09,-297.5C107.09,-297.5 145.09,-297.5 145.09,-297.5 151.09,-297.5 157.09,-303.5 157.09,-309.5 157.09,-309.5 157.09,-321.5 157.09,-321.5 157.09,-327.5 151.09,-333.5 145.09,-333.5 145.09,-333.5 107.09,-333.5 107.09,-333.5 101.09,-333.5 95.09,-327.5 95.09,-321.5 95.09,-321.5 95.09,-309.5 95.09,-309.5 95.09,-303.5 101.09,-297.5 107.09,-297.5"/>
<text text-anchor="middle" x="126.09" y="-311.8" font-family="Times New Roman,serif" font-size="14.00">1:1 &#45; 0:0</text>
</g>
<!-- n4&#45;&gt;x5 -->
<g id="edge13" class="edge">
<title>n4:e&#45;&gt;x5:w</title>
<path fill="none" stroke="#1b9e77" d="M59.09,-178.5C118.11,-178.5 42.78,-298.91 85.01,-313.96"/>
<polygon fill="#1b9e77" stroke="#1b9e77" points="84.68,-317.45 95.09,-315.5 85.74,-310.53 84.68,-317.45"/>
</g>
<!-- x6 -->
<g id="node13" class="node">
<title>x6</title>
<path fill="none" stroke="black" d="M107.09,-242.5C107.09,-242.5 145.09,-242.5 145.09,-242.5 151.09,-242.5 157.09,-248.5 157.09,-254.5 157.09,-254.5 157.09,-266.5 157.09,-266.5 157.09,-272.5 151.09,-278.5 145.09,-278.5 145.09,-278.5 107.09,-278.5 107.09,-278.5 101.09,-278.5 95.09,-272.5 95.09,-266.5 95.09,-266.5 95.09,-254.5 95.09,-254.5 95.09,-248.5 101.09,-242.5 107.09,-242.5"/>
<text text-anchor="middle" x="126.09" y="-256.8" font-family="Times New Roman,serif" font-size="14.00">0:0 &#45; 0:0</text>
</g>
<!-- n4&#45;&gt;x6 -->
<g id="edge14" class="edge">
<title>n4:e&#45;&gt;x6:w</title>
<path fill="none" stroke="#1b9e77" d="M59.09,-178.5C94.85,-178.5 63.29,-244.69 85.37,-258.13"/>
<polygon fill="#1b9e77" stroke="#1b9e77" points="84.55,-261.54 95.09,-260.5 86.2,-254.73 84.55,-261.54"/>
</g>
<!-- v0 -->
<g id="node5" class="node">
<title>v0</title>
<ellipse fill="none" stroke="black" cx="126.09" cy="-205.5" rx="27" ry="18"/>
<text text-anchor="middle" x="126.09" y="-201.8" font-family="Times New Roman,serif" font-size="14.00">1&#39;0</text>
</g>
<!-- c10 -->
<g id="node7" class="node">
<title>c10</title>
<polygon fill="none" stroke="black" points="212.09,-78.5 212.09,-170.5 386.09,-170.5 386.09,-78.5 212.09,-78.5"/>
<text text-anchor="middle" x="226.09" y="-155.3" font-family="Times New Roman,serif" font-size="14.00">I0</text>
<polyline fill="none" stroke="black" points="212.09,-147.5 240.09,-147.5 "/>
<text text-anchor="middle" x="226.09" y="-132.3" font-family="Times New Roman,serif" font-size="14.00">I1</text>
<polyline fill="none" stroke="black" points="212.09,-124.5 240.09,-124.5 "/>
<text text-anchor="middle" x="226.09" y="-109.3" font-family="Times New Roman,serif" font-size="14.00">I2</text>
<polyline fill="none" stroke="black" points="212.09,-101.5 240.09,-101.5 "/>
<text text-anchor="middle" x="226.09" y="-86.3" font-family="Times New Roman,serif" font-size="14.00">I3</text>
<polyline fill="none" stroke="black" points="240.09,-78.5 240.09,-170.5 "/>
<text text-anchor="middle" x="299.59" y="-128.3" font-family="Times New Roman,serif" font-size="14.00">out_SB_LUT4_O</text>
<text text-anchor="middle" x="299.59" y="-113.3" font-family="Times New Roman,serif" font-size="14.00">SB_LUT4</text>
<polyline fill="none" stroke="black" points="359.09,-78.5 359.09,-170.5 "/>
<text text-anchor="middle" x="372.59" y="-120.8" font-family="Times New Roman,serif" font-size="14.00">O</text>
</g>
<!-- v0&#45;&gt;c10 -->
<g id="edge15" class="edge">
<title>v0:e&#45;&gt;c10:w</title>
<path fill="none" stroke="#1b9e77" d="M154.09,-205.5C182.83,-205.5 179.88,-169.65 201.19,-161.25"/>
<polygon fill="#1b9e77" stroke="#1b9e77" points="201.85,-164.68 211.09,-159.5 200.64,-157.79 201.85,-164.68"/>
</g>
<!-- v1 -->
<g id="node6" class="node">
<title>v1</title>
<ellipse fill="none" stroke="black" cx="126.09" cy="-151.5" rx="27" ry="18"/>
<text text-anchor="middle" x="126.09" y="-147.8" font-family="Times New Roman,serif" font-size="14.00">1&#39;0</text>
</g>
<!-- v1&#45;&gt;c10 -->
<g id="edge16" class="edge">
<title>v1:e&#45;&gt;c10:w</title>
<path fill="none" stroke="#e6ab02" d="M154.09,-151.5C176.4,-151.5 183.05,-140.62 200.71,-137.39"/>
<polygon fill="#e6ab02" stroke="#e6ab02" points="201.43,-140.84 211.09,-136.5 200.83,-133.87 201.43,-140.84"/>
</g>
<!-- c10&#45;&gt;n3 -->
<g id="edge10" class="edge">
<title>c10:e&#45;&gt;n3:w</title>
<path fill="none" stroke="#d95f02" d="M387.09,-124.5C461.53,-124.5 482.64,-124.5 552.29,-124.5"/>
<polygon fill="#d95f02" stroke="#d95f02" points="552.45,-128 562.45,-124.5 552.45,-121 552.45,-128"/>
</g>
<!-- x2&#45;&gt;c10 -->
<g id="edge1" class="edge">
<title>x2:e&#45;&gt;c10:w</title>
<path fill="none" stroke="#66a61e" d="M169.23,-97.98C180.92,-101.04 187.4,-108.05 199.15,-111.07"/>
<polygon fill="none" stroke="#66a61e" points="169.01,-97.95 162.57,-101.2 157.09,-96.5 163.53,-93.25 169.01,-97.95"/>
<polygon fill="none" stroke="#66a61e" points="199.18,-111.08 205.61,-107.82 211.09,-112.5 204.66,-115.76 199.18,-111.08"/>
</g>
<!-- x3&#45;&gt;c10 -->
<g id="edge2" class="edge">
<title>x3:e&#45;&gt;c10:w</title>
<path fill="none" stroke="#1b9e77" d="M168.87,-44.36C183.83,-52.84 184.26,-77.78 199.02,-86.47"/>
<polygon fill="none" stroke="#1b9e77" points="168.75,-44.33 161.98,-46.8 157.09,-41.5 163.87,-39.03 168.75,-44.33"/>
<polygon fill="none" stroke="#1b9e77" points="199.45,-86.58 206.25,-84.16 211.09,-89.5 204.3,-91.92 199.45,-86.58"/>
</g>
<!-- v4 -->
<g id="node10" class="node">
<title>v4</title>
<ellipse fill="none" stroke="black" cx="126.09" cy="-408.5" rx="27" ry="18"/>
<text text-anchor="middle" x="126.09" y="-404.8" font-family="Times New Roman,serif" font-size="14.00">1&#39;0</text>
</g>
<!-- v4&#45;&gt;c11 -->
<g id="edge17" class="edge">
<title>v4:e&#45;&gt;c11:w</title>
<path fill="none" stroke="#e6ab02" d="M154.09,-408.5C167.5,-408.5 173.13,-408.5 183.01,-408.5"/>
<polygon fill="#e6ab02" stroke="#e6ab02" points="183.09,-412 193.09,-408.5 183.09,-405 183.09,-412"/>
</g>
<!-- x7 -->
<g id="node14" class="node">
<title>x7</title>
<path fill="none" stroke="black" d="M453.09,-361.5C453.09,-361.5 491.09,-361.5 491.09,-361.5 497.09,-361.5 503.09,-367.5 503.09,-373.5 503.09,-373.5 503.09,-385.5 503.09,-385.5 503.09,-391.5 497.09,-397.5 491.09,-397.5 491.09,-397.5 453.09,-397.5 453.09,-397.5 447.09,-397.5 441.09,-391.5 441.09,-385.5 441.09,-385.5 441.09,-373.5 441.09,-373.5 441.09,-367.5 447.09,-361.5 453.09,-361.5"/>
<text text-anchor="middle" x="472.09" y="-375.8" font-family="Times New Roman,serif" font-size="14.00">0:0 &#45; 1:1</text>
</g>
<!-- c11&#45;&gt;x7 -->
<g id="edge5" class="edge">
<title>c11:e&#45;&gt;x7:w</title>
<path fill="none" stroke="#e7298a" d="M417.11,-374.83C421.36,-375.83 424.84,-377.18 429.09,-378.17"/>
<polygon fill="none" stroke="#e7298a" points="417.02,-374.82 410.62,-378.14 405.09,-373.5 411.5,-370.19 417.02,-374.82"/>
<polygon fill="none" stroke="#e7298a" points="429.17,-378.18 435.57,-374.86 441.09,-379.5 434.69,-382.82 429.17,-378.18"/>
</g>
<!-- x5&#45;&gt;c11 -->
<g id="edge3" class="edge">
<title>x5:e&#45;&gt;c11:w</title>
<path fill="none" stroke="#1b9e77" d="M168.57,-319.67C180.94,-332.15 169.21,-369.11 181.73,-381.44"/>
<polygon fill="none" stroke="#1b9e77" points="168.37,-319.6 161.37,-321.31 157.09,-315.5 164.1,-313.79 168.37,-319.6"/>
<polygon fill="none" stroke="#1b9e77" points="181.79,-381.46 188.79,-379.71 193.09,-385.5 186.1,-387.25 181.79,-381.46"/>
</g>
<!-- x6&#45;&gt;c11 -->
<g id="edge4" class="edge">
<title>x6:e&#45;&gt;c11:w</title>
<path fill="none" stroke="#7570b3" d="M168.85,-263.63C190.55,-278.68 159.61,-343.43 181.39,-358.4"/>
<polygon fill="none" stroke="#7570b3" points="168.69,-263.59 161.86,-265.91 157.09,-260.5 163.92,-258.18 168.69,-263.59"/>
<polygon fill="none" stroke="#7570b3" points="181.49,-358.43 188.32,-356.1 193.09,-361.5 186.27,-363.83 181.49,-358.43"/>
</g>
<!-- x7&#45;&gt;n2 -->
<g id="edge8" class="edge">
<title>x7:e&#45;&gt;n2:w</title>
<path fill="none" stroke="#7570b3" d="M503.09,-379.5C519.03,-379.5 519.73,-396.65 529.47,-403.61"/>
<polygon fill="#7570b3" stroke="#7570b3" points="528.51,-406.98 539.09,-406.5 530.52,-400.27 528.51,-406.98"/>
</g>
<!-- x8&#45;&gt;n2 -->
<g id="edge9" class="edge">
<title>x8:e&#45;&gt;n2:w</title>
<path fill="none" stroke="#7570b3" d="M503.09,-447.5C523.18,-447.5 518.05,-419.38 529.47,-409.72"/>
<polygon fill="#7570b3" stroke="#7570b3" points="530.72,-412.99 539.09,-406.5 528.5,-406.35 530.72,-412.99"/>
</g>
</g>
</svg>
