<svg xmlns="http://www.w3.org/2000/svg" xmlns:xlink="http://www.w3.org/1999/xlink" xmlns:s="https://github.com/nturley/netlistsvg" width="715" height="584.5">
  <style>svg {
    stroke:#000;
    fill:none;
  }
  text {
    fill:#000;
    stroke:none;
    font-size:10px;
    font-weight: bold;
    font-family: "Courier New", monospace;
  }
  .nodelabel {
    text-anchor: middle;
  }
  .inputPortLabel {
    text-anchor: end;
  }
  .splitjoinBody {
    fill:#000;
  }</style>
  <g s:type="generic" transform="translate(284,114)" s:width="30" s:height="40" id="cell_$auto$opt_reduce.cc:128:opt_mux$15">
    <text x="15" y="-4" class="nodelabel cell_$auto$opt_reduce.cc:128:opt_mux$15" s:attribute="ref">$reduce_or</text>
    <rect width="30" height="20" s:generic="body" class="cell_$auto$opt_reduce.cc:128:opt_mux$15"/>
    <g transform="translate(0,10)" s:x="0" s:y="10" s:pid="in0" id="port_$auto$opt_reduce.cc:128:opt_mux$15~A">
      <text x="-3" y="-4" class="inputPortLabel cell_$auto$opt_reduce.cc:128:opt_mux$15">A</text>
    </g>
    <g transform="translate(30,10)" s:x="30" s:y="10" s:pid="out0" id="port_$auto$opt_reduce.cc:128:opt_mux$15~Y">
      <text x="5" y="-4" style="fill:#000; stroke:none" class="cell_$auto$opt_reduce.cc:128:opt_mux$15">Y</text>
    </g>
  </g>
  <g s:type="generic" transform="translate(284,341)" s:width="30" s:height="40" id="cell_$auto$opt_reduce.cc:128:opt_mux$17">
    <text x="15" y="-4" class="nodelabel cell_$auto$opt_reduce.cc:128:opt_mux$17" s:attribute="ref">$reduce_or</text>
    <rect width="30" height="20" s:generic="body" class="cell_$auto$opt_reduce.cc:128:opt_mux$17"/>
    <g transform="translate(0,10)" s:x="0" s:y="10" s:pid="in0" id="port_$auto$opt_reduce.cc:128:opt_mux$17~A">
      <text x="-3" y="-4" class="inputPortLabel cell_$auto$opt_reduce.cc:128:opt_mux$17">A</text>
    </g>
    <g transform="translate(30,10)" s:x="30" s:y="10" s:pid="out0" id="port_$auto$opt_reduce.cc:128:opt_mux$17~Y">
      <text x="5" y="-4" style="fill:#000; stroke:none" class="cell_$auto$opt_reduce.cc:128:opt_mux$17">Y</text>
    </g>
  </g>
  <g s:type="generic" transform="translate(284,476)" s:width="30" s:height="40" id="cell_$auto$opt_reduce.cc:128:opt_mux$19">
    <text x="15" y="-4" class="nodelabel cell_$auto$opt_reduce.cc:128:opt_mux$19" s:attribute="ref">$reduce_or</text>
    <rect width="30" height="20" s:generic="body" class="cell_$auto$opt_reduce.cc:128:opt_mux$19"/>
    <g transform="translate(0,10)" s:x="0" s:y="10" s:pid="in0" id="port_$auto$opt_reduce.cc:128:opt_mux$19~A">
      <text x="-3" y="-4" class="inputPortLabel cell_$auto$opt_reduce.cc:128:opt_mux$19">A</text>
    </g>
    <g transform="translate(30,10)" s:x="30" s:y="10" s:pid="out0" id="port_$auto$opt_reduce.cc:128:opt_mux$19~Y">
      <text x="5" y="-4" style="fill:#000; stroke:none" class="cell_$auto$opt_reduce.cc:128:opt_mux$19">Y</text>
    </g>
  </g>
  <g s:type="eq" transform="translate(148.66666666666666,426.5)" s:width="25" s:height="25" id="cell_$procmux$10_CMP0">
    <s:alias val="$eq"/>
    <circle r="12.5" cx="12.5" cy="12.5" class="cell_$procmux$10_CMP0"/>
    <line x1="7.5" x2="17.5" y1="10" y2="10" class="cell_$procmux$10_CMP0"/>
    <line x1="7.5" x2="17.5" y1="15" y2="15" class="cell_$procmux$10_CMP0"/>
    <g s:x="3" s:y="5" s:pid="A"/>
    <g s:x="3" s:y="20" s:pid="B"/>
    <g s:x="25" s:y="12.5" s:pid="Y"/>
  </g>
  <g s:type="eq" transform="translate(148.66666666666666,77)" s:width="25" s:height="25" id="cell_$procmux$11_CMP0">
    <s:alias val="$eq"/>
    <circle r="12.5" cx="12.5" cy="12.5" class="cell_$procmux$11_CMP0"/>
    <line x1="7.5" x2="17.5" y1="10" y2="10" class="cell_$procmux$11_CMP0"/>
    <line x1="7.5" x2="17.5" y1="15" y2="15" class="cell_$procmux$11_CMP0"/>
    <g s:x="3" s:y="5" s:pid="A"/>
    <g s:x="3" s:y="20" s:pid="B"/>
    <g s:x="25" s:y="12.5" s:pid="Y"/>
  </g>
  <g s:type="eq" transform="translate(148.66666666666666,349)" s:width="25" s:height="25" id="cell_$procmux$12_CMP0">
    <s:alias val="$eq"/>
    <circle r="12.5" cx="12.5" cy="12.5" class="cell_$procmux$12_CMP0"/>
    <line x1="7.5" x2="17.5" y1="10" y2="10" class="cell_$procmux$12_CMP0"/>
    <line x1="7.5" x2="17.5" y1="15" y2="15" class="cell_$procmux$12_CMP0"/>
    <g s:x="3" s:y="5" s:pid="A"/>
    <g s:x="3" s:y="20" s:pid="B"/>
    <g s:x="25" s:y="12.5" s:pid="Y"/>
  </g>
  <g s:type="eq" transform="translate(148.66666666666666,142)" s:width="25" s:height="25" id="cell_$procmux$13_CMP0">
    <s:alias val="$eq"/>
    <circle r="12.5" cx="12.5" cy="12.5" class="cell_$procmux$13_CMP0"/>
    <line x1="7.5" x2="17.5" y1="10" y2="10" class="cell_$procmux$13_CMP0"/>
    <line x1="7.5" x2="17.5" y1="15" y2="15" class="cell_$procmux$13_CMP0"/>
    <g s:x="3" s:y="5" s:pid="A"/>
    <g s:x="3" s:y="20" s:pid="B"/>
    <g s:x="25" s:y="12.5" s:pid="Y"/>
  </g>
  <g s:type="not" transform="translate(147,486.5)" s:width="30" s:height="20" id="cell_$procmux$14_CMP0">
    <s:alias val="$_NOT_"/>
    <s:alias val="$not"/>
    <s:alias val="$logic_not"/>
    <path d="M0,0 L0,20 L20,10 Z" class="cell_$procmux$14_CMP0"/>
    <circle cx="23" cy="10" r="3" class="cell_$procmux$14_CMP0"/>
    <g s:x="0" s:y="10" s:pid="A"/>
    <g s:x="25" s:y="10" s:pid="Y"/>
  </g>
  <g s:type="mux" transform="translate(588,506.5)" s:width="20" s:height="40" id="cell_$procmux$4">
    <s:alias val="$pmux"/>
    <s:alias val="$mux"/>
    <s:alias val="$_MUX_"/>
    <path d="M0,0 L20,10 L20,30 L0,40 Z" class="cell_$procmux$4"/>
    <g s:x="0" s:y="10" s:pid="A"/>
    <g s:x="0" s:y="30" s:pid="B"/>
    <g s:x="10" s:y="35" s:pid="S"/>
    <g s:x="20" s:y="20" s:pid="Y"/>
  </g>
  <g s:type="eq" transform="translate(527,547.5)" s:width="25" s:height="25" id="cell_$procmux$5_CMP0">
    <s:alias val="$eq"/>
    <circle r="12.5" cx="12.5" cy="12.5" class="cell_$procmux$5_CMP0"/>
    <line x1="7.5" x2="17.5" y1="10" y2="10" class="cell_$procmux$5_CMP0"/>
    <line x1="7.5" x2="17.5" y1="15" y2="15" class="cell_$procmux$5_CMP0"/>
    <g s:x="3" s:y="5" s:pid="A"/>
    <g s:x="3" s:y="20" s:pid="B"/>
    <g s:x="25" s:y="12.5" s:pid="Y"/>
  </g>
  <g s:type="mux" transform="translate(588,286)" s:width="20" s:height="40" id="cell_$procmux$6">
    <s:alias val="$pmux"/>
    <s:alias val="$mux"/>
    <s:alias val="$_MUX_"/>
    <path d="M0,0 L20,10 L20,30 L0,40 Z" class="cell_$procmux$6"/>
    <g s:x="0" s:y="10" s:pid="A"/>
    <g s:x="0" s:y="30" s:pid="B"/>
    <g s:x="10" s:y="35" s:pid="S"/>
    <g s:x="20" s:y="20" s:pid="Y"/>
  </g>
  <g s:type="eq" transform="translate(148.66666666666666,12)" s:width="25" s:height="25" id="cell_$procmux$7_CMP0">
    <s:alias val="$eq"/>
    <circle r="12.5" cx="12.5" cy="12.5" class="cell_$procmux$7_CMP0"/>
    <line x1="7.5" x2="17.5" y1="10" y2="10" class="cell_$procmux$7_CMP0"/>
    <line x1="7.5" x2="17.5" y1="15" y2="15" class="cell_$procmux$7_CMP0"/>
    <g s:x="3" s:y="5" s:pid="A"/>
    <g s:x="3" s:y="20" s:pid="B"/>
    <g s:x="25" s:y="12.5" s:pid="Y"/>
  </g>
  <g s:type="eq" transform="translate(148.66666666666666,284)" s:width="25" s:height="25" id="cell_$procmux$8_CMP0">
    <s:alias val="$eq"/>
    <circle r="12.5" cx="12.5" cy="12.5" class="cell_$procmux$8_CMP0"/>
    <line x1="7.5" x2="17.5" y1="10" y2="10" class="cell_$procmux$8_CMP0"/>
    <line x1="7.5" x2="17.5" y1="15" y2="15" class="cell_$procmux$8_CMP0"/>
    <g s:x="3" s:y="5" s:pid="A"/>
    <g s:x="3" s:y="20" s:pid="B"/>
    <g s:x="25" s:y="12.5" s:pid="Y"/>
  </g>
  <g s:type="eq" transform="translate(341.3333333333333,399)" s:width="25" s:height="25" id="cell_$procmux$9_CMP0">
    <s:alias val="$eq"/>
    <circle r="12.5" cx="12.5" cy="12.5" class="cell_$procmux$9_CMP0"/>
    <line x1="7.5" x2="17.5" y1="10" y2="10" class="cell_$procmux$9_CMP0"/>
    <line x1="7.5" x2="17.5" y1="15" y2="15" class="cell_$procmux$9_CMP0"/>
    <g s:x="3" s:y="5" s:pid="A"/>
    <g s:x="3" s:y="20" s:pid="B"/>
    <g s:x="25" s:y="12.5" s:pid="Y"/>
  </g>
  <g s:type="inputExt" transform="translate(12,229.5)" s:width="30" s:height="20" id="cell_in">
    <text x="15" y="-4" class="nodelabel cell_in" s:attribute="ref">in</text>
    <s:alias val="$_inputExt_"/>
    <path d="M0,0 L0,20 L15,20 L30,10 L15,0 Z" class="cell_in"/>
    <g s:x="28" s:y="10" s:pid="Y"/>
  </g>
  <g s:type="inputExt" transform="translate(12,164.5)" s:width="30" s:height="20" id="cell_state">
    <text x="15" y="-4" class="nodelabel cell_state" s:attribute="ref">state</text>
    <s:alias val="$_inputExt_"/>
    <path d="M0,0 L0,20 L15,20 L30,10 L15,0 Z" class="cell_state"/>
    <g s:x="28" s:y="10" s:pid="Y"/>
  </g>
  <g s:type="outputExt" transform="translate(643,296)" s:width="30" s:height="20" id="cell_next_state">
    <text x="15" y="-4" class="nodelabel cell_next_state" s:attribute="ref">next_state</text>
    <s:alias val="$_outputExt_"/>
    <path d="M30,0 L30,20 L15,20 L0,10 L15,0 Z" class="cell_next_state"/>
    <g s:x="0" s:y="10" s:pid="A"/>
  </g>
  <g s:type="outputExt" transform="translate(643,516.5)" s:width="30" s:height="20" id="cell_out">
    <text x="15" y="-4" class="nodelabel cell_out" s:attribute="ref">out</text>
    <s:alias val="$_outputExt_"/>
    <path d="M30,0 L30,20 L15,20 L0,10 L15,0 Z" class="cell_out"/>
    <g s:x="0" s:y="10" s:pid="A"/>
  </g>
  <g s:type="constant" transform="translate(77,436.5)" s:width="30" s:height="20" id="cell_10">
    <text x="15" y="-4" class="nodelabel cell_10" s:attribute="ref">10</text>
    <s:alias val="$_constant_"/>
    <rect width="30" height="20" class="cell_10"/>
    <g s:x="30" s:y="10" s:pid="Y"/>
  </g>
  <g s:type="constant" transform="translate(77,87)" s:width="30" s:height="20" id="cell_101">
    <text x="15" y="-4" class="nodelabel cell_101" s:attribute="ref">101</text>
    <s:alias val="$_constant_"/>
    <rect width="30" height="20" class="cell_101"/>
    <g s:x="30" s:y="10" s:pid="Y"/>
  </g>
  <g s:type="constant" transform="translate(77,359)" s:width="30" s:height="20" id="cell_1">
    <text x="15" y="-4" class="nodelabel cell_1" s:attribute="ref">1</text>
    <s:alias val="$_constant_"/>
    <rect width="30" height="20" class="cell_1"/>
    <g s:x="30" s:y="10" s:pid="Y"/>
  </g>
  <g s:type="constant" transform="translate(77,152)" s:width="30" s:height="20" id="cell_100">
    <text x="15" y="-4" class="nodelabel cell_100" s:attribute="ref">100</text>
    <s:alias val="$_constant_"/>
    <rect width="30" height="20" class="cell_100"/>
    <g s:x="30" s:y="10" s:pid="Y"/>
  </g>
  <g s:type="constant" transform="translate(523,506.5)" s:width="30" s:height="20" id="cell_0">
    <text x="15" y="-4" class="nodelabel cell_0" s:attribute="ref">0</text>
    <s:alias val="$_constant_"/>
    <rect width="30" height="20" class="cell_0"/>
    <g s:x="30" s:y="10" s:pid="Y"/>
  </g>
  <g s:type="constant" transform="translate(77,294)" s:width="30" s:height="20" id="cell_11">
    <text x="15" y="-4" class="nodelabel cell_11" s:attribute="ref">11</text>
    <s:alias val="$_constant_"/>
    <rect width="30" height="20" class="cell_11"/>
    <g s:x="30" s:y="10" s:pid="Y"/>
  </g>
  <g s:type="constant" transform="translate(523,306)" s:width="30" s:height="20" id="cell_00111001">
    <text x="15" y="-4" class="nodelabel cell_00111001" s:attribute="ref">0x39</text>
    <s:alias val="$_constant_"/>
    <rect width="30" height="20" class="cell_00111001"/>
    <g s:x="30" s:y="10" s:pid="Y"/>
  </g>
  <g s:type="constant" transform="translate(77,22)" s:width="30" s:height="20" id="cell_111">
    <text x="15" y="-4" class="nodelabel cell_111" s:attribute="ref">111</text>
    <s:alias val="$_constant_"/>
    <rect width="30" height="20" class="cell_111"/>
    <g s:x="30" s:y="10" s:pid="Y"/>
  </g>
  <g s:type="constant" transform="translate(212,409)" s:width="30" s:height="20" id="cell_110">
    <text x="15" y="-4" class="nodelabel cell_110" s:attribute="ref">110</text>
    <s:alias val="$_constant_"/>
    <rect width="30" height="20" class="cell_110"/>
    <g s:x="30" s:y="10" s:pid="Y"/>
  </g>
  <g s:type="join" transform="translate(222,104)" s:width="4" s:height="40" id="cell_$join$,8,9,10,">
    <rect width="5" height="60" class="splitjoinBody" s:generic="body"/>
    <s:alias val="$_join_"/>
    <g s:x="5" s:y="20" s:pid="out"/>
    <g transform="translate(0,10)" s:x="0" s:y="10" s:pid="in0">
      <text x="-3" y="-4" class="inputPortLabel">0</text>
    </g>
    <g transform="translate(0,30)" s:x="0" s:y="10" s:pid="in0">
      <text x="-3" y="-4" class="inputPortLabel">1</text>
    </g>
    <g transform="translate(0,50)" s:x="0" s:y="10" s:pid="in0">
      <text x="-3" y="-4" class="inputPortLabel">2</text>
    </g>
  </g>
  <g s:type="join" transform="translate(223,331)" s:width="4" s:height="40" id="cell_$join$,12,13,">
    <rect width="5" height="40" class="splitjoinBody" s:generic="body"/>
    <s:alias val="$_join_"/>
    <g s:x="5" s:y="20" s:pid="out"/>
    <g transform="translate(0,10)" s:x="0" s:y="10" s:pid="in0">
      <text x="-3" y="-4" class="inputPortLabel">0</text>
    </g>
    <g transform="translate(0,30)" s:x="0" s:y="10" s:pid="in0">
      <text x="-3" y="-4" class="inputPortLabel">1</text>
    </g>
  </g>
  <g s:type="join" transform="translate(223,466)" s:width="4" s:height="40" id="cell_$join$,15,16,">
    <rect width="5" height="40" class="splitjoinBody" s:generic="body"/>
    <s:alias val="$_join_"/>
    <g s:x="5" s:y="20" s:pid="out"/>
    <g transform="translate(0,10)" s:x="0" s:y="10" s:pid="in0">
      <text x="-3" y="-4" class="inputPortLabel">0</text>
    </g>
    <g transform="translate(0,30)" s:x="0" s:y="10" s:pid="in0">
      <text x="-3" y="-4" class="inputPortLabel">1</text>
    </g>
  </g>
  <g s:type="join" transform="translate(96,209)" s:width="4" s:height="40" id="cell_$join$,3,4,2,">
    <rect width="5" height="40" class="splitjoinBody" s:generic="body"/>
    <s:alias val="$_join_"/>
    <g s:x="5" s:y="20" s:pid="out"/>
    <g transform="translate(0,10)" s:x="0" s:y="10" s:pid="in0">
      <text x="-3" y="-4" class="inputPortLabel">0:1</text>
    </g>
    <g transform="translate(0,30)" s:x="0" s:y="10" s:pid="in0">
      <text x="-3" y="-4" class="inputPortLabel">2</text>
    </g>
  </g>
  <g s:type="join" transform="translate(533,361)" s:width="4" s:height="40" id="cell_$join$,11,14,19,17,">
    <rect width="5" height="80" class="splitjoinBody" s:generic="body"/>
    <s:alias val="$_join_"/>
    <g s:x="5" s:y="20" s:pid="out"/>
    <g transform="translate(0,10)" s:x="0" s:y="10" s:pid="in0">
      <text x="-3" y="-4" class="inputPortLabel">0</text>
    </g>
    <g transform="translate(0,30)" s:x="0" s:y="10" s:pid="in0">
      <text x="-3" y="-4" class="inputPortLabel">1</text>
    </g>
    <g transform="translate(0,50)" s:x="0" s:y="10" s:pid="in0">
      <text x="-3" y="-4" class="inputPortLabel">2</text>
    </g>
    <g transform="translate(0,70)" s:x="0" s:y="10" s:pid="in0">
      <text x="-3" y="-4" class="inputPortLabel">3</text>
    </g>
  </g>
  <line x1="228" x2="284" y1="124.5" y2="124.5" class="net_8,9,10"/>
  <line x1="229" x2="284" y1="351.5" y2="351.5" class="net_12,13"/>
  <line x1="229" x2="284" y1="486.5" y2="486.5" class="net_15,16"/>
  <line x1="102" x2="137" y1="229.5" y2="229.5" class="net_3,4,2"/>
  <line x1="137" x2="137" y1="229.5" y2="431.5" class="net_3,4,2"/>
  <circle cx="137" cy="229.5" r="2" style="fill:#000" class="net_3,4,2"/>
  <circle cx="137" cy="431.5" r="2" style="fill:#000" class="net_3,4,2"/>
  <line x1="137" x2="151.66666666666666" y1="431.5" y2="431.5" class="net_3,4,2"/>
  <line x1="102" x2="137" y1="229.5" y2="229.5" class="net_3,4,2"/>
  <line x1="137" x2="137" y1="229.5" y2="82" class="net_3,4,2"/>
  <circle cx="137" cy="82" r="2" style="fill:#000" class="net_3,4,2"/>
  <line x1="137" x2="151.66666666666666" y1="82" y2="82" class="net_3,4,2"/>
  <line x1="102" x2="137" y1="229.5" y2="229.5" class="net_3,4,2"/>
  <line x1="137" x2="137" y1="229.5" y2="354" class="net_3,4,2"/>
  <circle cx="137" cy="354" r="2" style="fill:#000" class="net_3,4,2"/>
  <line x1="137" x2="151.66666666666666" y1="354" y2="354" class="net_3,4,2"/>
  <line x1="102" x2="137" y1="229.5" y2="229.5" class="net_3,4,2"/>
  <line x1="137" x2="137" y1="229.5" y2="147" class="net_3,4,2"/>
  <circle cx="137" cy="147" r="2" style="fill:#000" class="net_3,4,2"/>
  <line x1="137" x2="151.66666666666666" y1="147" y2="147" class="net_3,4,2"/>
  <line x1="102" x2="137" y1="229.5" y2="229.5" class="net_3,4,2"/>
  <line x1="137" x2="137" y1="229.5" y2="496.5" class="net_3,4,2"/>
  <line x1="137" x2="147" y1="496.5" y2="496.5" class="net_3,4,2"/>
  <line x1="102" x2="137" y1="229.5" y2="229.5" class="net_3,4,2"/>
  <line x1="137" x2="137" y1="229.5" y2="17" class="net_3,4,2"/>
  <line x1="137" x2="151.66666666666666" y1="17" y2="17" class="net_3,4,2"/>
  <line x1="102" x2="137" y1="229.5" y2="229.5" class="net_3,4,2"/>
  <line x1="137" x2="137" y1="229.5" y2="289" class="net_3,4,2"/>
  <circle cx="137" cy="289" r="2" style="fill:#000" class="net_3,4,2"/>
  <line x1="137" x2="151.66666666666666" y1="289" y2="289" class="net_3,4,2"/>
  <line x1="102" x2="137" y1="229.5" y2="229.5" class="net_3,4,2"/>
  <line x1="137" x2="137" y1="229.5" y2="388" class="net_3,4,2"/>
  <line x1="137" x2="252" y1="388" y2="388" class="net_3,4,2"/>
  <line x1="252" x2="252" y1="388" y2="404" class="net_3,4,2"/>
  <circle cx="137" cy="388" r="2" style="fill:#000" class="net_3,4,2"/>
  <line x1="252" x2="344.3333333333333" y1="404" y2="404" class="net_3,4,2"/>
  <line x1="107" x2="151.66666666666666" y1="446.5" y2="446.5" class="net_20,21"/>
  <line x1="107" x2="151.66666666666666" y1="97" y2="97" class="net_22,23,24"/>
  <line x1="107" x2="151.66666666666666" y1="369" y2="369" class="net_25"/>
  <line x1="107" x2="127" y1="369" y2="369" class="net_25"/>
  <line x1="127" x2="127" y1="369" y2="536.5" class="net_25"/>
  <circle cx="127" cy="369" r="2" style="fill:#000" class="net_25"/>
  <line x1="127" x2="588" y1="536.5" y2="536.5" class="net_25"/>
  <line x1="107" x2="151.66666666666666" y1="162" y2="162" class="net_26,27,28"/>
  <line x1="553" x2="588" y1="516.5" y2="516.5" class="net_29"/>
  <line x1="552" x2="598" y1="560" y2="560" class="net_18"/>
  <line x1="598" x2="598" y1="560" y2="541.5" class="net_18"/>
  <line x1="40" x2="52" y1="174.5" y2="174.5" class="net_3,4"/>
  <line x1="52" x2="52" y1="174.5" y2="552.5" class="net_3,4"/>
  <line x1="52" x2="530" y1="552.5" y2="552.5" class="net_3,4"/>
  <line x1="40" x2="52" y1="174.5" y2="174.5" class="net_3,4"/>
  <line x1="52" x2="52" y1="174.5" y2="219.5" class="net_3,4"/>
  <circle cx="52" cy="219.5" r="2" style="fill:#000" class="net_3,4"/>
  <line x1="52" x2="96" y1="219.5" y2="219.5" class="net_3,4"/>
  <line x1="107" x2="117" y1="304" y2="304" class="net_31,32"/>
  <line x1="117" x2="117" y1="304" y2="567.5" class="net_31,32"/>
  <circle cx="117" cy="304" r="2" style="fill:#000" class="net_31,32"/>
  <line x1="117" x2="530" y1="567.5" y2="567.5" class="net_31,32"/>
  <line x1="107" x2="151.66666666666666" y1="304" y2="304" class="net_31,32"/>
  <line x1="553" x2="588" y1="316" y2="316" class="net_33,34,35,36,37,38,39,40"/>
  <line x1="539" x2="598" y1="381.5" y2="381.5" class="net_11,14,19,17"/>
  <line x1="598" x2="598" y1="381.5" y2="321" class="net_11,14,19,17"/>
  <line x1="107" x2="151.66666666666666" y1="32" y2="32" class="net_41,42,43"/>
  <line x1="242" x2="344.3333333333333" y1="419" y2="419" class="net_46,47,48"/>
  <line x1="608" x2="643" y1="306" y2="306" class="net_5,6"/>
  <line x1="608" x2="643" y1="526.5" y2="526.5" class="net_7"/>
  <line x1="173.66666666666666" x2="197" y1="24.5" y2="24.5" class="net_8"/>
  <line x1="197" x2="197" y1="24.5" y2="114.5" class="net_8"/>
  <line x1="197" x2="222" y1="114.5" y2="114.5" class="net_8"/>
  <line x1="173.66666666666666" x2="187" y1="89.5" y2="89.5" class="net_9"/>
  <line x1="187" x2="187" y1="89.5" y2="134.5" class="net_9"/>
  <line x1="187" x2="222" y1="134.5" y2="134.5" class="net_9"/>
  <line x1="173.66666666666666" x2="222" y1="154.5" y2="154.5" class="net_10"/>
  <line x1="173.66666666666666" x2="187" y1="296.5" y2="296.5" class="net_12"/>
  <line x1="187" x2="187" y1="296.5" y2="341.5" class="net_12"/>
  <line x1="187" x2="223" y1="341.5" y2="341.5" class="net_12"/>
  <line x1="173.66666666666666" x2="223" y1="361.5" y2="361.5" class="net_13"/>
  <line x1="173.66666666666666" x2="187" y1="439" y2="439" class="net_15"/>
  <line x1="187" x2="187" y1="439" y2="476.5" class="net_15"/>
  <line x1="187" x2="223" y1="476.5" y2="476.5" class="net_15"/>
  <line x1="172" x2="223" y1="496.5" y2="496.5" class="net_16"/>
  <line x1="40" x2="96" y1="239.5" y2="239.5" class="net_2"/>
  <line x1="315" x2="508" y1="124.5" y2="124.5" class="net_11"/>
  <line x1="508" x2="508" y1="124.5" y2="371.5" class="net_11"/>
  <line x1="508" x2="533" y1="371.5" y2="371.5" class="net_11"/>
  <line x1="315" x2="498" y1="351.5" y2="351.5" class="net_14"/>
  <line x1="498" x2="498" y1="351.5" y2="391.5" class="net_14"/>
  <line x1="498" x2="533" y1="391.5" y2="391.5" class="net_14"/>
  <line x1="366.3333333333333" x2="533" y1="411.5" y2="411.5" class="net_19"/>
  <line x1="315" x2="533.5" y1="486.5" y2="486.5" class="net_17"/>
  <line x1="533.5" x2="533.5" y1="486.5" y2="432" class="net_17"/>
</svg>
